# pilowlava3D glyph '0' variant 1 — Vincent Wagner / Velvetyne, Free Art License
v 4.03605 2.39343 0.00000
v 4.00715 2.39787 -0.18266
v 3.99760 2.65645 -0.17874
v 3.98756 2.92967 0.00000
v 3.95966 2.91819 -0.18277
v 4.03165 2.13821 0.00000
v 4.01669 1.89504 0.00000
v 3.96872 1.90577 -0.20164
v 3.99353 2.14778 -0.19161
v 3.86836 1.93824 -0.35369
v 3.91273 2.16923 -0.33379
v 3.94634 2.40624 -0.30656
v 3.81024 2.19880 -0.37884
v 3.86292 2.41827 -0.34331
v 3.86964 2.64093 -0.32807
v 3.94319 2.64955 -0.29487
v 3.81827 2.85860 -0.34571
v 3.89815 2.89176 -0.30974
v 3.71329 3.06402 -0.38671
v 3.81432 3.12730 -0.34019
v 3.88887 3.17329 -0.19578
v 3.69845 3.35184 -0.36799
v 3.79152 3.41950 -0.21075
v 3.83762 3.44339 0.00000
v 3.92501 3.19292 0.00000
v 3.93130 1.41004 0.00000
v 3.98524 1.65313 0.00000
v 3.86994 1.43027 -0.21478
v 3.92982 1.66696 -0.20898
v 3.74217 1.47957 -0.39029
v 3.81087 1.70635 -0.37503
v 3.56104 1.56475 -0.46240
v 3.65307 1.77247 -0.43805
v 3.73603 1.98264 -0.41093
v 3.49982 1.84504 -0.37154
v 3.61091 2.03475 -0.35537
v 3.71171 2.23018 -0.33213
v 3.51305 2.08101 -0.19947
v 3.62866 2.25412 -0.18755
v 3.72226 2.43346 -0.16881
v 3.78309 2.42927 -0.29787
v 3.75144 2.62595 -0.15962
v 3.79664 2.63242 -0.28507
v 3.68556 2.80581 -0.16808
v 3.74103 2.82561 -0.30400
v 3.55292 2.94002 -0.18949
v 3.62304 2.99636 -0.33781
v 3.39167 3.04541 -0.20705
v 3.46573 3.13936 -0.36413
v 3.57732 3.24919 -0.42628
v 3.29495 3.25916 -0.38799
v 3.41910 3.41435 -0.46293
v 3.55531 3.55807 -0.39415
v 3.24829 3.55682 -0.48852
v 3.38589 3.73786 -0.40930
v 3.49600 3.85629 -0.22772
v 3.66382 3.64901 -0.22147
v 3.71685 3.68385 0.00000
v 3.52553 2.91656 0.00000
v 3.66762 2.80057 0.00000
v 3.59523 2.26867 0.00000
v 3.47117 2.10838 0.00000
v 3.34371 1.94691 0.00000
v 3.74883 0.91843 0.00000
v 3.85933 1.16240 0.00000
v 3.68585 0.95572 -0.23051
v 3.79767 1.18861 -0.22642
v 3.54614 1.04097 -0.41631
v 3.65761 1.25598 -0.40655
v 3.34829 1.17228 -0.49319
v 3.46163 1.36389 -0.48116
v 3.15405 1.31095 -0.40999
v 3.27247 1.48224 -0.40060
v 3.38692 1.66089 -0.38830
v 3.14716 1.57495 -0.21862
v 3.26866 1.74080 -0.21308
v 3.39150 1.90924 -0.20626
v 3.21488 1.78510 0.00000
v 2.95895 1.46772 0.00000
v 3.60210 0.68587 0.00000
v 3.36576 0.53324 -0.23316
v 3.54450 0.73196 -0.23443
v 3.24762 0.65427 -0.42043
v 3.41037 0.83800 -0.42205
v 3.07351 0.82513 -0.49843
v 3.21929 0.99192 -0.49923
v 2.89622 0.99189 -0.41416
v 3.02939 1.14683 -0.41459
v 2.76736 1.10460 -0.22552
v 2.89684 1.25682 -0.22535
v 3.02189 1.41411 -0.22394
v 2.83188 1.31164 0.00000
v 2.57516 1.00650 0.00000
v 2.92546 0.24123 -0.22098
v 3.15773 0.36400 -0.23036
v 2.85251 0.36601 -0.39835
v 3.06034 0.49481 -0.41427
v 2.73261 0.54114 -0.47138
v 2.91125 0.67420 -0.49009
v 2.60328 0.70402 -0.39487
v 2.75379 0.84528 -0.40696
v 2.49947 0.80874 -0.21745
v 2.63617 0.95602 -0.22244
v 2.36153 0.66512 -0.21036
v 2.22333 0.52358 -0.20179
v 2.18999 0.56273 0.00000
v 2.44376 0.56339 -0.37933
v 2.27741 0.42967 -0.35276
v 2.09461 0.32265 -0.32000
v 2.07226 0.40106 -0.18529
v 2.54084 0.41987 -0.44577
v 2.33898 0.30987 -0.41090
v 2.12625 0.22630 -0.37207
v 1.90100 0.19175 -0.34579
v 1.89775 0.27654 -0.30009
v 2.40031 0.17822 -0.35853
v 2.15684 0.12089 -0.33290
v 1.90535 0.09850 -0.31419
v 1.65737 0.12051 -0.31259
v 1.67713 0.21350 -0.34530
v 2.17913 0.04040 -0.19416
v 1.91115 0.03096 -0.18870
v 1.64203 0.04941 -0.18907
v 1.37610 0.10458 -0.19235
v 1.41200 0.18528 -0.32992
v 1.63432 0.01911 0.00000
v 1.36166 0.07196 0.00000
v 1.09516 0.16098 0.00000
v 1.11742 0.19739 -0.19988
v 0.84594 0.28816 0.00000
v 0.62199 0.45827 0.00000
v 0.66449 0.50194 -0.22210
v 0.87690 0.33035 -0.21226
v 0.77355 0.60120 -0.39555
v 0.95785 0.42810 -0.37612
v 1.17483 0.28623 -0.35276
v 1.08866 0.55367 -0.43481
v 1.26045 0.40119 -0.39928
v 1.45963 0.28265 -0.36707
v 1.34476 0.49435 -0.34146
v 1.50438 0.36710 -0.31612
v 1.69433 0.29458 -0.30005
v 1.53985 0.43687 -0.18097
v 1.70736 0.35421 -0.17530
v 1.89553 0.33862 -0.17546
v 1.71201 0.37319 0.00000
v 1.89503 0.35982 0.00000
v 2.06038 0.43480 0.00000
v 2.70572 0.09316 0.00000
v 2.43929 0.07760 -0.20473
v 2.68549 0.14867 -0.21232
v 2.63290 0.26245 -0.38078
v 0.28474 0.90020 0.00000
v 0.43164 0.66592 0.00000
v 0.35206 0.93751 -0.23488
v 0.48664 0.70803 -0.23102
v 0.50457 1.01441 -0.42351
v 0.62266 0.79808 -0.41246
v 0.72634 1.11562 -0.50033
v 0.82538 0.91563 -0.48640
v 0.94360 0.72973 -0.46301
v 1.02901 1.02471 -0.40571
v 1.11713 0.84058 -0.38969
v 1.21811 0.66266 -0.36812
v 1.25089 0.90980 -0.21659
v 1.32310 0.73460 -0.20903
v 1.41281 0.56959 -0.19561
v 1.55469 0.46140 0.00000
v 1.25362 1.11872 0.00000
v 0.17308 1.14621 0.00000
v 0.17169 1.42026 -0.23685
v 0.24936 1.17661 -0.23643
v 0.34103 1.46859 -0.42655
v 0.41257 1.23960 -0.42616
v 0.57857 1.53770 -0.50599
v 0.64493 1.32493 -0.50485
v 0.81478 1.61044 -0.42186
v 0.87763 1.40994 -0.42189
v 0.94843 1.21378 -0.41674
v 1.04598 1.47025 -0.23155
v 1.10849 1.27831 -0.22758
v 1.17760 1.09186 -0.22283
v 1.19144 1.30571 0.00000
v 1.06858 1.69340 0.00000
v 0.01223 1.90256 0.00000
v 0.04357 1.65289 0.00000
v 0.09050 1.91066 -0.22956
v 0.12422 1.66695 -0.23229
v 0.25307 1.93399 -0.41594
v 0.28937 1.70083 -0.42146
v 0.48189 1.97484 -0.49525
v 0.52486 1.75472 -0.50268
v 0.70926 2.02480 -0.41290
v 0.75952 1.81562 -0.41943
v 0.86754 2.06919 -0.22648
v 0.92574 1.86639 -0.23073
v 0.98323 1.66616 -0.23113
v 1.00846 1.89261 0.00000
v 0.88610 2.29737 0.00000
v 0.00000 2.39216 0.00000
v 0.00063 2.14913 0.00000
v 0.06779 2.39060 -0.21609
v 0.07619 2.15157 -0.22171
v 0.21134 2.39828 -0.39343
v 0.22875 2.16646 -0.40444
v 0.41693 2.42149 -0.46892
v 0.44692 2.19741 -0.48315
v 0.62048 2.45193 -0.39180
v 0.66302 2.23716 -0.40392
v 0.75828 2.48212 -0.21484
v 0.81345 2.27544 -0.22207
v 0.82440 2.50139 0.00000
v 0.76497 2.70519 0.00000
v 0.70636 2.69035 -0.20744
v 0.65452 2.89535 -0.19977
v 0.70604 2.90757 0.00000
v 0.57893 2.66717 -0.37848
v 0.53957 2.88109 -0.36428
v 0.50549 3.09498 -0.34649
v 0.60828 3.09787 -0.19663
v 0.39315 2.64577 -0.45105
v 0.37596 2.87108 -0.43076
v 0.37141 3.09660 -0.40442
v 0.38910 3.32406 -0.37582
v 0.49362 3.30974 -0.32604
v 0.20642 2.86531 -0.36722
v 0.22982 3.10379 -0.35154
v 0.27430 3.34394 -0.33450
v 0.35340 3.57922 -0.31496
v 0.44389 3.54489 -0.35020
v 0.12600 3.11364 -0.19865
v 0.18799 3.35941 -0.19246
v 0.28524 3.60409 -0.18734
v 0.42265 3.83360 -0.18272
v 0.47555 3.79647 -0.30283
v 0.15244 3.36656 0.00000
v 0.25746 3.61437 0.00000
v 0.59145 4.05580 0.00000
v 0.60531 4.03556 -0.18062
v 0.81456 4.22671 0.00000
v 1.07192 4.31222 -0.19404
v 0.82496 4.19857 -0.18668
v 1.09150 4.21561 -0.33894
v 0.85624 4.12371 -0.32156
v 0.64665 3.98080 -0.30814
v 0.89672 4.02721 -0.35484
v 0.69917 3.91355 -0.33792
v 0.54524 3.74840 -0.33719
v 0.74771 3.85148 -0.29667
v 0.60974 3.70366 -0.29697
v 0.52601 3.51553 -0.30929
v 0.65964 3.66590 -0.16443
v 0.59136 3.48913 -0.17439
v 0.57784 3.29680 -0.18623
v 0.61385 3.29076 0.00000
v 0.65409 3.10417 0.00000
v 0.01105 2.63423 0.00000
v 0.08999 2.86933 -0.20394
v 0.07285 2.62868 -0.20941
v 0.20352 2.63095 -0.37996
v 1.57060 4.48199 0.00000
v 1.57753 4.42247 -0.21178
v 1.32533 4.38144 -0.20187
v 1.57902 4.29100 -0.38063
v 1.33528 4.26720 -0.35949
v 1.56922 4.10799 -0.44665
v 1.34050 4.11157 -0.41514
v 1.11482 4.08860 -0.38320
v 1.34250 3.96733 -0.35200
v 1.13260 3.97551 -0.32900
v 0.92997 3.94104 -0.31176
v 1.14705 3.88756 -0.18495
v 0.96027 3.87130 -0.17412
v 0.78943 3.80023 -0.16422
v 0.80075 3.78657 0.00000
v 1.33146 3.80764 0.00000
v 1.82559 4.50456 0.00000
v 2.07633 4.43070 -0.22724
v 1.82635 4.43508 -0.21943
v 2.05871 4.27192 -0.40968
v 1.82037 4.29008 -0.39626
v 2.01828 4.05054 -0.48934
v 1.79506 4.08520 -0.47140
v 1.96882 3.83218 -0.40709
v 1.76131 3.88391 -0.39273
v 1.55323 3.93120 -0.37495
v 1.72673 3.74343 -0.21663
v 1.53247 3.80564 -0.20819
v 1.34010 3.85744 -0.19792
v 1.51362 3.74456 0.00000
v 2.57805 4.36275 -0.23787
v 2.32601 4.40733 -0.23342
v 2.53097 4.18841 -0.42934
v 2.29536 4.23807 -0.42111
v 2.45560 3.94968 -0.51490
v 2.23843 4.00593 -0.50409
v 2.37472 3.71162 -0.42850
v 2.17374 3.77476 -0.41931
v 2.30976 3.54053 -0.23460
v 2.11748 3.61076 -0.22990
v 1.92174 3.67844 -0.22378
v 2.46158 3.38151 0.00000
v 3.07250 4.18258 -0.23820
v 2.82987 4.29335 -0.24153
v 2.98642 4.02015 -0.43111
v 2.76241 4.11800 -0.43439
v 2.87178 3.79117 -0.51801
v 2.66760 3.87924 -0.52024
v 2.75918 3.55986 -0.43070
v 2.57024 3.64061 -0.43246
v 2.68254 3.39050 -0.23539
v 2.49855 3.46784 -0.23616
v 2.64629 3.30569 0.00000
v 2.82939 3.23026 0.00000
v 2.86446 3.31073 -0.23036
v 3.04275 3.22517 -0.22425
v 2.94256 3.46935 -0.42150
v 3.12085 3.36746 -0.40751
v 3.22052 3.13848 -0.21596
v 3.06551 3.68325 -0.50733
v 3.19587 3.89294 -0.42429
v 3.30002 4.03952 -0.23592
v 4.02321 2.66001 0.00000
v 3.55299 3.90698 0.00000
v 3.08735 1.62467 0.00000
v 3.41588 0.47843 0.00000
v 2.70360 1.15862 0.00000
v 2.95352 0.18087 0.00000
v 3.19719 0.30602 0.00000
v 2.44667 0.85686 0.00000
v 2.31770 0.70822 0.00000
v 1.91177 0.00000 0.00000
v 2.45124 0.03313 0.00000
v 2.18727 0.00438 0.00000
v 1.37854 0.75920 0.00000
v 1.44617 0.59950 0.00000
v 1.31682 0.93555 0.00000
v 0.09358 1.39923 0.00000
v 1.13113 1.49787 0.00000
v 0.94600 2.09433 0.00000
v 0.40272 3.84862 0.00000
v 1.06249 4.35081 0.00000
v 0.61397 3.47851 0.00000
v 0.03734 2.87616 0.00000
v 0.08245 3.12065 0.00000
v 1.31560 4.43050 0.00000
v 0.96971 3.84921 0.00000
v 0.67454 3.65376 0.00000
v 1.15140 3.85165 0.00000
v 2.08016 4.50599 0.00000
v 1.70166 3.67384 0.00000
v 2.59770 4.44738 0.00000
v 2.33697 4.48820 0.00000
v 2.08477 3.52936 0.00000
v 1.89279 3.60181 0.00000
v 2.27426 3.45563 0.00000
v 3.11594 4.25869 0.00000
v 2.86265 4.37590 0.00000
v 3.01029 3.15226 0.00000
v 3.35216 4.10403 0.00000
v 3.18981 3.07507 0.00000
v 3.36262 2.99821 0.00000
v 3.70028 2.43553 0.00000
v 3.73729 2.62523 0.00000
v 4.00715 2.39787 0.18266
v 3.99760 2.65645 0.17874
v 3.95966 2.91819 0.18277
v 3.96872 1.90577 0.20164
v 3.99353 2.14778 0.19161
v 3.86836 1.93824 0.35369
v 3.91273 2.16923 0.33379
v 3.94634 2.40624 0.30656
v 3.81024 2.19880 0.37884
v 3.86292 2.41827 0.34331
v 3.86964 2.64093 0.32807
v 3.94319 2.64955 0.29487
v 3.81827 2.85860 0.34571
v 3.89815 2.89176 0.30974
v 3.71329 3.06402 0.38671
v 3.81432 3.12730 0.34019
v 3.88887 3.17329 0.19578
v 3.69845 3.35184 0.36799
v 3.79152 3.41950 0.21075
v 3.86994 1.43027 0.21478
v 3.92982 1.66696 0.20898
v 3.74217 1.47957 0.39029
v 3.81087 1.70635 0.37503
v 3.56104 1.56475 0.46240
v 3.65307 1.77247 0.43805
v 3.73603 1.98264 0.41093
v 3.49982 1.84504 0.37154
v 3.61091 2.03475 0.35537
v 3.71171 2.23018 0.33213
v 3.51305 2.08101 0.19947
v 3.62866 2.25412 0.18755
v 3.72226 2.43346 0.16881
v 3.78309 2.42927 0.29787
v 3.75144 2.62595 0.15962
v 3.79664 2.63242 0.28507
v 3.68556 2.80581 0.16808
v 3.74103 2.82561 0.30400
v 3.55292 2.94002 0.18949
v 3.62304 2.99636 0.33781
v 3.39167 3.04541 0.20705
v 3.46573 3.13936 0.36413
v 3.57732 3.24919 0.42628
v 3.29495 3.25916 0.38799
v 3.41910 3.41435 0.46293
v 3.55531 3.55807 0.39415
v 3.24829 3.55682 0.48852
v 3.38589 3.73786 0.40930
v 3.49600 3.85629 0.22772
v 3.66382 3.64901 0.22147
v 3.68585 0.95572 0.23051
v 3.79767 1.18861 0.22642
v 3.54614 1.04097 0.41631
v 3.65761 1.25598 0.40655
v 3.34829 1.17228 0.49319
v 3.46163 1.36389 0.48116
v 3.15405 1.31095 0.40999
v 3.27247 1.48224 0.40060
v 3.38692 1.66089 0.38830
v 3.14716 1.57495 0.21862
v 3.26866 1.74080 0.21308
v 3.39150 1.90924 0.20626
v 3.36576 0.53324 0.23316
v 3.54450 0.73196 0.23443
v 3.24762 0.65427 0.42043
v 3.41037 0.83800 0.42205
v 3.07351 0.82513 0.49843
v 3.21929 0.99192 0.49923
v 2.89622 0.99189 0.41416
v 3.02939 1.14683 0.41459
v 2.76736 1.10460 0.22552
v 2.89684 1.25682 0.22535
v 3.02189 1.41411 0.22394
v 2.92546 0.24123 0.22098
v 3.15773 0.36400 0.23036
v 2.85251 0.36601 0.39835
v 3.06034 0.49481 0.41427
v 2.73261 0.54114 0.47138
v 2.91125 0.67420 0.49009
v 2.60328 0.70402 0.39487
v 2.75379 0.84528 0.40696
v 2.49947 0.80874 0.21745
v 2.63617 0.95602 0.22244
v 2.36153 0.66512 0.21036
v 2.22333 0.52358 0.20179
v 2.44376 0.56339 0.37933
v 2.27741 0.42967 0.35276
v 2.09461 0.32265 0.32000
v 2.07226 0.40106 0.18529
v 2.54084 0.41987 0.44577
v 2.33898 0.30987 0.41090
v 2.12625 0.22630 0.37207
v 1.90100 0.19175 0.34579
v 1.89775 0.27654 0.30009
v 2.40031 0.17822 0.35853
v 2.15684 0.12089 0.33290
v 1.90535 0.09850 0.31419
v 1.65737 0.12051 0.31259
v 1.67713 0.21350 0.34530
v 2.17913 0.04040 0.19416
v 1.91115 0.03096 0.18870
v 1.64203 0.04941 0.18907
v 1.37610 0.10458 0.19235
v 1.41200 0.18528 0.32992
v 1.11742 0.19739 0.19988
v 0.66449 0.50194 0.22210
v 0.87690 0.33035 0.21226
v 0.77355 0.60120 0.39555
v 0.95785 0.42810 0.37612
v 1.17483 0.28623 0.35276
v 1.08866 0.55367 0.43481
v 1.26045 0.40119 0.39928
v 1.45963 0.28265 0.36707
v 1.34476 0.49435 0.34146
v 1.50438 0.36710 0.31612
v 1.69433 0.29458 0.30005
v 1.53985 0.43687 0.18097
v 1.70736 0.35421 0.17530
v 1.89553 0.33862 0.17546
v 2.43929 0.07760 0.20473
v 2.68549 0.14867 0.21232
v 2.63290 0.26245 0.38078
v 0.35206 0.93751 0.23488
v 0.48664 0.70803 0.23102
v 0.50457 1.01441 0.42351
v 0.62266 0.79808 0.41246
v 0.72634 1.11562 0.50033
v 0.82538 0.91563 0.48640
v 0.94360 0.72973 0.46301
v 1.02901 1.02471 0.40571
v 1.11713 0.84058 0.38969
v 1.21811 0.66266 0.36812
v 1.25089 0.90980 0.21659
v 1.32310 0.73460 0.20903
v 1.41281 0.56959 0.19561
v 0.17169 1.42026 0.23685
v 0.24936 1.17661 0.23643
v 0.34103 1.46859 0.42655
v 0.41257 1.23960 0.42616
v 0.57857 1.53770 0.50599
v 0.64493 1.32493 0.50485
v 0.81478 1.61044 0.42186
v 0.87763 1.40994 0.42189
v 0.94843 1.21378 0.41674
v 1.04598 1.47025 0.23155
v 1.10849 1.27831 0.22758
v 1.17760 1.09186 0.22283
v 0.09050 1.91066 0.22956
v 0.12422 1.66695 0.23229
v 0.25307 1.93399 0.41594
v 0.28937 1.70083 0.42146
v 0.48189 1.97484 0.49525
v 0.52486 1.75472 0.50268
v 0.70926 2.02480 0.41290
v 0.75952 1.81562 0.41943
v 0.86754 2.06919 0.22648
v 0.92574 1.86639 0.23073
v 0.98323 1.66616 0.23113
v 0.06779 2.39060 0.21609
v 0.07619 2.15157 0.22171
v 0.21134 2.39828 0.39343
v 0.22875 2.16646 0.40444
v 0.41693 2.42149 0.46892
v 0.44692 2.19741 0.48315
v 0.62048 2.45193 0.39180
v 0.66302 2.23716 0.40392
v 0.75828 2.48212 0.21484
v 0.81345 2.27544 0.22207
v 0.70636 2.69035 0.20744
v 0.65452 2.89535 0.19977
v 0.57893 2.66717 0.37848
v 0.53957 2.88109 0.36428
v 0.50549 3.09498 0.34649
v 0.60828 3.09787 0.19663
v 0.39315 2.64577 0.45105
v 0.37596 2.87108 0.43076
v 0.37141 3.09660 0.40442
v 0.38910 3.32406 0.37582
v 0.49362 3.30974 0.32604
v 0.20642 2.86531 0.36722
v 0.22982 3.10379 0.35154
v 0.27430 3.34394 0.33450
v 0.35340 3.57922 0.31496
v 0.44389 3.54489 0.35020
v 0.12600 3.11364 0.19865
v 0.18799 3.35941 0.19246
v 0.28524 3.60409 0.18734
v 0.42265 3.83360 0.18272
v 0.47555 3.79647 0.30283
v 0.60531 4.03556 0.18062
v 1.07192 4.31222 0.19404
v 0.82496 4.19857 0.18668
v 1.09150 4.21561 0.33894
v 0.85624 4.12371 0.32156
v 0.64665 3.98080 0.30814
v 0.89672 4.02721 0.35484
v 0.69917 3.91355 0.33792
v 0.54524 3.74840 0.33719
v 0.74771 3.85148 0.29667
v 0.60974 3.70366 0.29697
v 0.52601 3.51553 0.30929
v 0.65964 3.66590 0.16443
v 0.59136 3.48913 0.17439
v 0.57784 3.29680 0.18623
v 0.08999 2.86933 0.20394
v 0.07285 2.62868 0.20941
v 0.20352 2.63095 0.37996
v 1.57753 4.42247 0.21178
v 1.32533 4.38144 0.20187
v 1.57902 4.29100 0.38063
v 1.33528 4.26720 0.35949
v 1.56922 4.10799 0.44665
v 1.34050 4.11157 0.41514
v 1.11482 4.08860 0.38320
v 1.34250 3.96733 0.35200
v 1.13260 3.97551 0.32900
v 0.92997 3.94104 0.31176
v 1.14705 3.88756 0.18495
v 0.96027 3.87130 0.17412
v 0.78943 3.80023 0.16422
v 2.07633 4.43070 0.22724
v 1.82635 4.43508 0.21943
v 2.05871 4.27192 0.40968
v 1.82037 4.29008 0.39626
v 2.01828 4.05054 0.48934
v 1.79506 4.08520 0.47140
v 1.96882 3.83218 0.40709
v 1.76131 3.88391 0.39273
v 1.55323 3.93120 0.37495
v 1.72673 3.74343 0.21663
v 1.53247 3.80564 0.20819
v 1.34010 3.85744 0.19792
v 2.57805 4.36275 0.23787
v 2.32601 4.40733 0.23342
v 2.53097 4.18841 0.42934
v 2.29536 4.23807 0.42111
v 2.45560 3.94968 0.51490
v 2.23843 4.00593 0.50409
v 2.37472 3.71162 0.42850
v 2.17374 3.77476 0.41931
v 2.30976 3.54053 0.23460
v 2.11748 3.61076 0.22990
v 1.92174 3.67844 0.22378
v 3.07250 4.18258 0.23820
v 2.82987 4.29335 0.24153
v 2.98642 4.02015 0.43111
v 2.76241 4.11800 0.43439
v 2.87178 3.79117 0.51801
v 2.66760 3.87924 0.52024
v 2.75918 3.55986 0.43070
v 2.57024 3.64061 0.43246
v 2.68254 3.39050 0.23539
v 2.49855 3.46784 0.23616
v 2.86446 3.31073 0.23036
v 3.04275 3.22517 0.22425
v 2.94256 3.46935 0.42150
v 3.12085 3.36746 0.40751
v 3.22052 3.13848 0.21596
v 3.06551 3.68325 0.50733
v 3.19587 3.89294 0.42429
v 3.30002 4.03952 0.23592
vn 0.99594 0.08998 -0.00010
vn 0.99998 0.00561 0.00003
vn 0.95039 -0.00143 -0.31106
vn 0.95100 0.08721 -0.29663
vn 0.92991 0.18533 -0.31767
vn 0.98165 0.19069 -0.00014
vn 0.99850 -0.05479 0.00009
vn 0.99404 -0.10899 0.00003
vn 0.90927 -0.10930 -0.40160
vn 0.93308 -0.06295 -0.35410
vn 0.63262 -0.06201 -0.77198
vn 0.66672 -0.02441 -0.74491
vn 0.69012 0.02141 -0.72338
vn 0.40554 0.02407 -0.91376
vn 0.40912 0.04850 -0.91119
vn 0.40684 0.03511 -0.91282
vn 0.89576 0.08349 -0.43664
vn 0.40498 0.02265 -0.91404
vn 0.67535 0.10653 -0.72976
vn 0.39008 0.05211 -0.91931
vn 0.63430 0.16664 -0.75491
vn 0.88863 0.28034 -0.36298
vn 0.57410 0.23101 -0.78552
vn 0.82915 0.37362 -0.41583
vn 0.91506 0.40332 -0.00011
vn 0.95582 0.29396 -0.00009
vn 0.98286 -0.18434 -0.00004
vn 0.96773 -0.25197 -0.00007
vn 0.85997 -0.22542 -0.45785
vn 0.88352 -0.17112 -0.43601
vn 0.57267 -0.13358 -0.80883
vn 0.60039 -0.09939 -0.79351
vn 0.03816 0.09460 -0.99478
vn 0.36538 -0.03254 -0.93029
vn 0.38900 -0.00958 -0.92119
vn -0.30972 0.25245 -0.91670
vn -0.28649 0.24236 -0.92692
vn -0.48556 0.36724 -0.79333
vn -0.51871 0.37360 -0.76900
vn -0.58079 0.36726 -0.72650
vn -0.35980 0.26211 -0.89546
vn -0.74480 0.52985 -0.40562
vn -0.79792 0.49513 -0.34375
vn -0.90891 0.30896 -0.28004
vn -0.69175 0.23339 -0.68338
vn -0.44989 0.17240 -0.87628
vn -0.96394 -0.09766 -0.24756
vn -0.73792 -0.08203 -0.66988
vn -0.47583 -0.05789 -0.87763
vn -0.80683 -0.52402 -0.27283
vn -0.60400 -0.39401 -0.69278
vn -0.36579 -0.27423 -0.88938
vn -0.57544 -0.73979 -0.34867
vn -0.41738 -0.52895 -0.73892
vn -0.23814 -0.35516 -0.90396
vn -0.44140 -0.78888 -0.42758
vn -0.30290 -0.54457 -0.78211
vn 0.10345 -0.13729 -0.98511
vn -0.24838 -0.53485 -0.80761
vn 0.09838 -0.10178 -0.98993
vn 0.49870 0.30358 -0.81187
vn 0.08000 -0.06573 -0.99463
vn 0.42330 0.36669 -0.82847
vn 0.64354 0.58205 -0.49706
vn 0.74310 0.48364 -0.46249
vn 0.74705 0.66477 0.00012
vn 0.84364 0.53690 0.00010
vn 0.93700 -0.34933 -0.00010
vn 0.87885 -0.47709 -0.00010
vn 0.76573 -0.41620 -0.49034
vn 0.82337 -0.30754 -0.47695
vn 0.48654 -0.25490 -0.83564
vn 0.53431 -0.18578 -0.82462
vn 0.01462 0.04363 -0.99894
vn 0.02845 0.07027 -0.99712
vn -0.43269 0.35050 -0.83062
vn -0.44720 0.35274 -0.82194
vn -0.46408 0.35996 -0.80935
vn -0.68441 0.53086 -0.49977
vn -0.70110 0.52948 -0.47762
vn -0.71811 0.53246 -0.44812
vn -0.79218 0.61029 -0.00002
vn -0.79526 0.60627 0.00009
vn -0.80317 0.59575 -0.00010
vn -0.78541 0.61898 0.00001
vn 0.79802 -0.60263 -0.00003
vn 0.68586 -0.72774 -0.00008
vn 0.59586 -0.63139 -0.49628
vn 0.69244 -0.52271 -0.49729
vn 0.36939 -0.39680 -0.84030
vn 0.43348 -0.32414 -0.84085
vn -0.02609 -0.00739 -0.99963
vn -0.00265 0.01794 -0.99984
vn -0.41985 0.36149 -0.83250
vn -0.42334 0.35317 -0.83430
vn -0.64925 0.55813 -0.51668
vn -0.65854 0.54377 -0.52023
vn -0.66980 0.53545 -0.51445
vn -0.72244 0.59637 -0.34989
vn -0.77844 0.62772 0.00001
vn -0.76132 0.64837 0.00001
vn 0.54315 -0.83963 -0.00006
vn 0.40046 -0.91631 -0.00005
vn 0.35717 -0.80987 -0.46534
vn 0.47556 -0.73298 -0.48640
vn 0.21829 -0.53511 -0.81609
vn 0.29200 -0.47087 -0.83248
vn -0.09073 -0.05120 -0.99456
vn -0.05861 -0.03263 -0.99775
vn -0.43297 0.38898 -0.81316
vn -0.42456 0.37250 -0.82522
vn -0.64675 0.59145 -0.48157
vn -0.64640 0.57302 -0.50380
vn -0.74549 0.66651 0.00000
vn -0.75376 0.65715 0.00006
vn -0.65212 0.60941 -0.45096
vn -0.74000 0.67261 0.00006
vn -0.63271 0.65975 -0.40547
vn -0.70633 0.70789 0.00078
vn -0.45121 0.40919 -0.79308
vn -0.45391 0.46476 -0.76024
vn -0.34572 0.59206 -0.72797
vn -0.47707 0.80545 -0.35166
vn -0.12706 -0.05821 -0.99018
vn -0.31752 0.28511 -0.90437
vn -0.24954 0.38464 -0.88870
vn -0.06987 0.46311 -0.88354
vn -0.09168 0.70148 -0.70677
vn -0.03380 -0.35342 -0.93485
vn 0.00847 -0.36171 -0.93225
vn 0.09329 -0.61449 -0.78339
vn 0.02224 -0.63971 -0.76829
vn -0.04081 -0.33287 -0.94209
vn -0.07928 -0.63163 -0.77120
vn -0.02636 -0.33116 -0.94321
vn -0.01913 -0.87221 -0.48876
vn 0.07450 -0.93132 -0.35649
vn -0.02089 -0.94281 -0.33268
vn -0.12861 -0.93136 -0.34064
vn -0.24515 -0.89802 -0.36534
vn -0.13741 -0.60945 -0.78083
vn -0.02240 -0.99975 0.00007
vn -0.13229 -0.99121 0.00004
vn -0.26066 -0.96543 -0.00002
vn -0.39563 -0.91841 -0.00000
vn -0.36579 -0.84212 -0.39627
vn -0.54069 -0.84122 -0.00003
vn -0.68106 -0.73223 0.00001
vn -0.60495 -0.64651 -0.46483
vn -0.49061 -0.75640 -0.43263
vn -0.36647 -0.42493 -0.82773
vn -0.29533 -0.50351 -0.81194
vn -0.21341 -0.56903 -0.79414
vn 0.12328 -0.08396 -0.98881
vn -0.07578 -0.32924 -0.94120
vn -0.03472 -0.33814 -0.94045
vn 0.28853 0.36256 -0.88617
vn 0.35950 0.23579 -0.90287
vn 0.53115 0.37692 -0.75882
vn 0.40910 0.55449 -0.72469
vn 0.19138 0.68560 -0.70238
vn 0.13724 0.45342 -0.88067
vn 0.56726 0.75031 -0.33948
vn 0.25617 0.91952 -0.29809
vn -0.13019 0.94311 -0.30593
vn 0.27829 0.96050 -0.00019
vn -0.15327 0.98818 -0.00031
vn -0.53291 0.84617 0.00033
vn 0.29622 -0.95512 0.00007
vn 0.18547 -0.98265 0.00008
vn 0.17825 -0.89950 -0.39890
vn 0.27271 -0.85720 -0.43684
vn 0.16196 -0.57831 -0.79958
vn 0.07224 -0.99739 0.00004
vn -0.80215 -0.59712 -0.00003
vn -0.88587 -0.46393 -0.00004
vn -0.76764 -0.39814 -0.50220
vn -0.70147 -0.51971 -0.48769
vn -0.47535 -0.25492 -0.84205
vn -0.42698 -0.34013 -0.83785
vn 0.02955 -0.03390 -0.99899
vn 0.05553 -0.06631 -0.99625
vn 0.08603 -0.08555 -0.99261
vn 0.53059 0.17897 -0.82852
vn 0.54207 0.19707 -0.81690
vn 0.55653 0.25031 -0.79223
vn 0.81460 0.31274 -0.48848
vn 0.81502 0.36530 -0.44977
vn 0.75611 0.52048 -0.39673
vn 0.92137 0.38868 -0.00076
vn 0.83942 0.54349 -0.00022
vn 0.62437 0.78113 0.00025
vn -0.93522 -0.35407 0.00011
vn -0.96940 -0.24550 0.00006
vn -0.83272 -0.21033 -0.51220
vn -0.80490 -0.30232 -0.51063
vn -0.52394 -0.13135 -0.84156
vn -0.50301 -0.18946 -0.84326
vn 0.00481 0.00994 -0.99994
vn 0.01342 -0.00862 -0.99987
vn 0.52042 0.15695 -0.83937
vn 0.51853 0.16299 -0.83938
vn 0.52352 0.16910 -0.83506
vn 0.80793 0.25741 -0.53009
vn 0.80798 0.27043 -0.52349
vn 0.80846 0.29348 -0.51016
vn 0.88769 0.29390 -0.35444
vn 0.94182 0.33613 0.00003
vn 0.93770 0.34744 -0.00001
vn 0.88898 0.28274 -0.36025
vn -0.98735 -0.15858 0.00006
vn -0.99610 -0.08828 0.00002
vn -0.86217 -0.07637 -0.50083
vn -0.85067 -0.13632 -0.50772
vn -0.55801 -0.04054 -0.82884
vn -0.54299 -0.08243 -0.83568
vn -0.00508 0.04791 -0.99884
vn -0.00128 0.02858 -0.99959
vn 0.53705 0.15658 -0.82889
vn 0.52739 0.15453 -0.83545
vn 0.82694 0.23649 -0.51015
vn 0.81821 0.23995 -0.52246
vn 0.81140 0.24737 -0.52956
vn 0.89695 0.26780 -0.35179
vn 0.89213 0.27446 -0.35886
vn 0.95982 0.28061 -0.00001
vn -0.99951 -0.03127 0.00005
vn -0.99993 0.01142 0.00001
vn -0.88137 0.00602 -0.47239
vn -0.87188 -0.02923 -0.48884
vn -0.58419 0.01505 -0.81148
vn -0.57178 -0.00876 -0.82036
vn -0.00555 0.07572 -0.99711
vn -0.00678 0.06329 -0.99797
vn 0.56589 0.16330 -0.80815
vn 0.55006 0.15912 -0.81982
vn 0.84999 0.23423 -0.47186
vn 0.83790 0.23398 -0.49313
vn 0.96213 0.27259 -0.00003
vn 0.96130 0.27549 -0.00001
vn 0.86367 0.23180 -0.44760
vn 0.96379 0.26667 -0.00002
vn 0.87846 0.22277 -0.42270
vn 0.96719 0.25405 0.00009
vn 0.58437 0.16537 -0.79446
vn 0.60504 0.16367 -0.77919
vn 0.63518 0.13891 -0.75977
vn 0.90082 0.18497 -0.39281
vn 0.35079 0.11824 -0.92896
vn 0.36960 0.12213 -0.92113
vn 0.39941 0.11073 -0.91006
vn 0.42865 0.04857 -0.90217
vn 0.67251 0.04174 -0.73891
vn -0.33816 0.11667 -0.93383
vn -0.35059 0.07759 -0.93331
vn -0.60487 0.08760 -0.79149
vn -0.60501 0.14737 -0.78246
vn -0.59445 0.22231 -0.77279
vn -0.31463 0.15787 -0.93600
vn -0.57182 0.31086 -0.75920
vn -0.29875 0.19698 -0.93378
vn -0.89936 0.18990 -0.39382
vn -0.88488 0.29449 -0.36092
vn -0.84272 0.42458 -0.33099
vn -0.76059 0.56897 -0.31270
vn -0.70464 0.52601 -0.47623
vn -0.94664 0.32230 0.00010
vn -0.89155 0.45293 -0.00000
vn -0.80023 0.59969 -0.00006
vn -0.67467 0.73812 0.00007
vn -0.63899 0.70186 -0.31477
vn -0.52198 0.85295 -0.00003
vn -0.36165 0.93232 -0.00004
vn -0.32826 0.86305 -0.38390
vn -0.48598 0.80365 -0.34345
vn -0.24310 0.56557 -0.78805
vn -0.34236 0.52816 -0.77707
vn -0.58898 0.64974 -0.48057
vn -0.24548 0.23714 -0.93995
vn -0.20400 0.25589 -0.94494
vn -0.28327 0.22399 -0.93252
vn 0.38291 -0.23075 -0.89450
vn 0.24694 -0.37298 -0.89437
vn 0.39533 -0.58159 -0.71096
vn 0.60100 -0.37326 -0.70674
vn 0.68111 -0.14007 -0.71866
vn 0.43183 -0.07105 -0.89915
vn 0.81232 -0.50807 -0.28637
vn 0.93107 -0.19323 -0.30946
vn 0.93402 0.05492 -0.35299
vn 0.98214 -0.18816 0.00035
vn 0.99695 0.07807 -0.00010
vn 0.97691 0.21366 -0.00027
vn -0.99786 0.06531 0.00000
vn -0.99155 0.12971 0.00001
vn -0.89898 0.10971 -0.42403
vn -0.89123 0.05170 -0.45060
vn -0.59630 0.04531 -0.80148
vn -0.35203 0.04808 -0.93475
vn -0.97676 0.21434 0.00000
vn -0.23531 0.97192 -0.00002
vn -0.12960 0.99157 0.00003
vn -0.11161 0.88612 -0.44982
vn -0.20938 0.88324 -0.41959
vn -0.09642 0.58614 -0.80445
vn -0.16708 0.58292 -0.79517
vn -0.09103 0.34157 -0.93544
vn -0.13709 0.32514 -0.93568
vn -0.17136 0.29310 -0.94060
vn -0.04824 -0.43055 -0.90128
vn -0.12254 -0.39991 -0.90833
vn -0.15375 -0.62545 -0.76497
vn -0.03834 -0.66801 -0.74316
vn 0.15053 -0.67308 -0.72409
vn 0.07726 -0.43312 -0.89802
vn -0.05223 -0.93062 -0.36224
vn 0.21151 -0.92458 -0.31687
vn 0.53705 -0.79183 -0.29083
vn 0.20737 -0.97826 -0.00041
vn 0.55570 -0.83138 -0.00015
vn 0.84944 -0.52768 0.00008
vn -0.03670 0.99933 0.00007
vn 0.03887 0.99924 0.00002
vn 0.03688 0.86781 -0.49552
vn -0.02816 0.87954 -0.47500
vn 0.01304 0.56533 -0.82476
vn -0.03335 0.57910 -0.81457
vn -0.07767 0.00937 -0.99694
vn -0.04404 0.34536 -0.93744
vn -0.14225 -0.34044 -0.92944
vn -0.19758 -0.53411 -0.82200
vn -0.19935 -0.55567 -0.80715
vn -0.19630 -0.58386 -0.78776
vn -0.14737 -0.36429 -0.91955
vn -0.28643 -0.82654 -0.48456
vn -0.27220 -0.84903 -0.45284
vn -0.21266 -0.88660 -0.41075
vn -0.31776 -0.94817 -0.00016
vn -0.25192 -0.96775 0.00027
vn -0.07883 -0.99689 0.00019
vn -0.33758 -0.94130 0.00008
vn 0.11916 0.99287 0.00000
vn 0.21119 0.97744 -0.00005
vn 0.18106 0.83227 -0.52397
vn 0.10489 0.85263 -0.51189
vn 0.10974 0.53083 -0.84034
vn 0.05849 0.54939 -0.83352
vn -0.03783 0.01001 -0.99923
vn -0.06002 0.01220 -0.99812
vn -0.20001 -0.50588 -0.83909
vn -0.19952 -0.51689 -0.83247
vn -0.30353 -0.78919 -0.53389
vn -0.29600 -0.79866 -0.52395
vn -0.28947 -0.81130 -0.50795
vn -0.32812 -0.87521 -0.35544
vn -0.34270 -0.93945 0.00000
vn -0.33629 -0.86857 -0.36400
vn 0.32044 0.88228 -0.34482
vn 0.48177 0.87630 0.00010
vn 0.40877 0.74421 -0.52826
vn 0.28957 0.79673 -0.53044
vn 0.26366 0.46676 -0.84417
vn 0.18204 0.50331 -0.84471
vn 0.02605 -0.01583 -0.99954
vn -0.00789 0.00071 -0.99997
vn -0.20488 -0.50137 -0.84063
vn -0.20235 -0.50027 -0.84189
vn -0.32643 -0.77916 -0.53513
vn -0.31512 -0.78190 -0.53789
vn -0.35850 -0.85972 -0.36380
vn -0.34788 -0.86263 -0.36721
vn -0.34275 -0.77911 -0.52489
vn -0.37232 -0.85831 -0.35311
vn -0.36029 -0.78372 -0.50594
vn -0.40974 -0.91220 0.00005
vn -0.21346 -0.50728 -0.83493
vn -0.22705 -0.51896 -0.82409
vn -0.38346 -0.79092 -0.47686
vn 0.05713 -0.03910 -0.99760
vn 0.34640 0.41821 -0.83971
vn 0.52991 0.67021 -0.51963
vn 0.62161 0.78333 0.00001
vn -0.46334 -0.88618 -0.00046
vn -0.42342 -0.90593 0.00025
vn -0.58221 -0.81304 -0.00022
vn -0.83695 0.54727 -0.00052
vn -0.93907 0.34373 -0.00035
vn -0.99535 -0.09634 0.00001
vn -0.82348 -0.56735 0.00051
vn 0.95102 0.08690 0.29667
vn 0.95034 -0.00041 0.31123
vn 0.92991 0.18481 0.31798
vn 0.93302 -0.06282 0.35429
vn 0.90929 -0.10968 0.40144
vn 0.66662 -0.02429 0.74500
vn 0.63274 -0.06190 0.77189
vn 0.69002 0.02235 0.72344
vn 0.40913 0.04862 0.91118
vn 0.40547 0.02401 0.91379
vn 0.69299 0.06279 0.71821
vn 0.40702 0.03518 0.91274
vn 0.67523 0.10562 0.73001
vn 0.40509 0.02263 0.91400
vn 0.63417 0.16697 0.75495
vn 0.39009 0.05192 0.91931
vn 0.88854 0.28076 0.36287
vn 0.82867 0.37523 0.41534
vn 0.57374 0.23269 0.78529
vn 0.88363 -0.17074 0.43595
vn 0.85995 -0.22528 0.45797
vn 0.60049 -0.09855 0.79353
vn 0.57256 -0.13307 0.80899
vn 0.36535 -0.03163 0.93033
vn 0.03817 0.09501 0.99474
vn 0.38895 -0.00879 0.92122
vn -0.51856 0.37487 0.76848
vn -0.48535 0.36820 0.79301
vn -0.28615 0.24389 0.92663
vn -0.30973 0.25154 0.91695
vn -0.36083 0.26330 0.89469
vn -0.58135 0.36704 0.72616
vn -0.79757 0.49581 0.34359
vn -0.74417 0.53157 0.40453
vn -0.69204 0.23236 0.68344
vn -0.90892 0.30780 0.28131
vn -0.45140 0.17559 0.87487
vn -0.73723 -0.08254 0.67059
vn -0.96380 -0.09845 0.24778
vn -0.47470 -0.05644 0.87833
vn -0.60308 -0.39550 0.69273
vn -0.80659 -0.52548 0.27071
vn -0.36368 -0.26990 0.89157
vn -0.41680 -0.53117 0.73765
vn -0.57356 -0.74307 0.34478
vn -0.23885 -0.34976 0.90588
vn -0.30196 -0.54682 0.78090
vn -0.43940 -0.79130 0.42517
vn 0.10332 -0.13694 0.98518
vn 0.09910 -0.10337 0.98969
vn -0.24767 -0.53626 0.80690
vn 0.49857 0.30354 0.81197
vn 0.42338 0.36645 0.82853
vn 0.08024 -0.06624 0.99457
vn 0.74285 0.48386 0.46265
vn 0.64362 0.58185 0.49720
vn 0.82339 -0.30732 0.47706
vn 0.76572 -0.41625 0.49032
vn 0.53426 -0.18521 0.82478
vn 0.48648 -0.25485 0.83570
vn 0.02840 0.07044 0.99711
vn 0.01460 0.04376 0.99894
vn -0.44713 0.35306 0.82184
vn -0.43263 0.35076 0.83054
vn -0.46409 0.35998 0.80934
vn -0.70115 0.52936 0.47766
vn -0.68435 0.53106 0.49964
vn -0.71809 0.53253 0.44806
vn 0.69240 -0.52264 0.49742
vn 0.59593 -0.63141 0.49619
vn 0.43331 -0.32393 0.84102
vn 0.36939 -0.39679 0.84030
vn -0.00270 0.01799 0.99983
vn -0.02625 -0.00733 0.99963
vn -0.42332 0.35312 0.83433
vn -0.42007 0.36146 0.83240
vn -0.65854 0.54376 0.52025
vn -0.64937 0.55804 0.51663
vn -0.66975 0.53555 0.51442
vn -0.72243 0.59639 0.34989
vn 0.47530 -0.73305 0.48655
vn 0.35730 -0.80982 0.46532
vn 0.29153 -0.47085 0.83265
vn 0.21824 -0.53506 0.81614
vn -0.05865 -0.03254 0.99775
vn -0.09101 -0.05127 0.99453
vn -0.42438 0.37265 0.82525
vn -0.43249 0.38910 0.81336
vn -0.64624 0.57314 0.50387
vn -0.64625 0.59168 0.48194
vn -0.65247 0.60920 0.45073
vn -0.63077 0.66061 0.40708
vn -0.45083 0.40920 0.79329
vn -0.45318 0.46495 0.76056
vn -0.47388 0.80617 0.35430
vn -0.34365 0.59140 0.72948
vn -0.31840 0.28558 0.90392
vn -0.12586 -0.05805 0.99035
vn -0.25207 0.38373 0.88838
vn -0.08991 0.70061 0.70786
vn -0.06887 0.46198 0.88421
vn 0.02115 -0.63917 0.76877
vn 0.09289 -0.61442 0.78349
vn 0.00988 -0.36182 0.93220
vn -0.03360 -0.35278 0.93510
vn -0.04165 -0.33200 0.94236
vn -0.02592 -0.33070 0.94338
vn -0.07933 -0.63127 0.77150
vn -0.02126 -0.94258 0.33332
vn 0.07347 -0.93122 0.35697
vn -0.01974 -0.87161 0.48981
vn -0.12885 -0.93124 0.34085
vn -0.13796 -0.60943 0.78074
vn -0.24576 -0.89799 0.36499
vn -0.36544 -0.84223 0.39636
vn -0.49054 -0.75646 0.43259
vn -0.60513 -0.64642 0.46472
vn -0.29470 -0.50368 0.81207
vn -0.36674 -0.42489 0.82763
vn -0.21278 -0.56914 0.79423
vn -0.07508 -0.32935 0.94122
vn 0.12454 -0.08442 0.98862
vn -0.03458 -0.33777 0.94059
vn 0.41326 0.55439 0.72240
vn 0.53420 0.37636 0.75695
vn 0.36607 0.23448 0.90056
vn 0.29130 0.36240 0.88533
vn 0.13667 0.45278 0.88109
vn 0.19214 0.68569 0.70208
vn 0.25734 0.91954 0.29703
vn 0.56887 0.75006 0.33733
vn -0.12964 0.94298 0.30656
vn 0.27270 -0.85724 0.43678
vn 0.17710 -0.89956 0.39928
vn 0.16236 -0.57835 0.79947
vn -0.70126 -0.51982 0.48788
vn -0.76766 -0.39810 0.50221
vn -0.42682 -0.34011 0.83794
vn -0.47528 -0.25491 0.84210
vn 0.05573 -0.06643 0.99623
vn 0.02959 -0.03393 0.99899
vn 0.08507 -0.08518 0.99273
vn 0.54212 0.19680 0.81693
vn 0.53091 0.17878 0.82836
vn 0.55613 0.25001 0.79260
vn 0.81513 0.36477 0.45001
vn 0.81525 0.31197 0.48789
vn 0.75598 0.52090 0.39644
vn -0.80480 -0.30233 0.51077
vn -0.83276 -0.21037 0.51211
vn -0.50298 -0.18945 0.84328
vn -0.52411 -0.13147 0.84144
vn 0.01328 -0.00863 0.99987
vn 0.00474 0.00989 0.99994
vn 0.51848 0.16295 0.83942
vn 0.52040 0.15696 0.83937
vn 0.52353 0.16911 0.83506
vn 0.80801 0.27039 0.52347
vn 0.80797 0.25738 0.53004
vn 0.80844 0.29353 0.51016
vn 0.88775 0.29376 0.35440
vn 0.88897 0.28276 0.36025
vn -0.85069 -0.13633 0.50769
vn -0.86219 -0.07647 0.50079
vn -0.54312 -0.08252 0.83559
vn -0.55808 -0.04073 0.82879
vn -0.00137 0.02849 0.99959
vn -0.00512 0.04784 0.99884
vn 0.52737 0.15438 0.83549
vn 0.53703 0.15657 0.82891
vn 0.81820 0.23989 0.52249
vn 0.82691 0.23658 0.51014
vn 0.81140 0.24737 0.52956
vn 0.89213 0.27444 0.35887
vn 0.89694 0.26786 0.35179
vn -0.87188 -0.02917 0.48886
vn -0.88137 0.00595 0.47238
vn -0.57182 -0.00884 0.82033
vn -0.58421 0.01494 0.81147
vn -0.00683 0.06318 0.99798
vn -0.00556 0.07575 0.99711
vn 0.55005 0.15889 0.81988
vn 0.56586 0.16290 0.80825
vn 0.83792 0.23379 0.49318
vn 0.85002 0.23386 0.47199
vn 0.86368 0.23193 0.44750
vn 0.87847 0.22262 0.42276
vn 0.58437 0.16538 0.79445
vn 0.60508 0.16402 0.77909
vn 0.90072 0.18431 0.39335
vn 0.63455 0.13763 0.76053
vn 0.36974 0.12267 0.92100
vn 0.35072 0.11801 0.92902
vn 0.39896 0.11028 0.91031
vn 0.67224 0.04052 0.73923
vn 0.42749 0.04675 0.90281
vn -0.60456 0.14814 0.78267
vn -0.60476 0.08782 0.79155
vn -0.35073 0.07725 0.93328
vn -0.33777 0.11714 0.93391
vn -0.31432 0.15847 0.93600
vn -0.59429 0.22277 0.77278
vn -0.29835 0.19687 0.93393
vn -0.57176 0.31065 0.75934
vn -0.88476 0.29479 0.36098
vn -0.89916 0.19040 0.39403
vn -0.84281 0.42443 0.33096
vn -0.70442 0.52604 0.47653
vn -0.76054 0.56898 0.31281
vn -0.63913 0.70156 0.31516
vn -0.48572 0.80383 0.34341
vn -0.32822 0.86319 0.38363
vn -0.34262 0.52776 0.77723
vn -0.24310 0.56554 0.78807
vn -0.58912 0.64917 0.48116
vn -0.24455 0.23671 0.94030
vn -0.20477 0.25482 0.94506
vn -0.28176 0.22326 0.93315
vn 0.60111 -0.37325 0.70664
vn 0.39529 -0.58193 0.71071
vn 0.24679 -0.37479 0.89366
vn 0.38398 -0.23067 0.89406
vn 0.43261 -0.07143 0.89875
vn 0.68168 -0.13979 0.71817
vn 0.93099 -0.19352 0.30952
vn 0.81195 -0.50841 0.28680
vn 0.93414 0.05450 0.35271
vn -0.89120 0.05183 0.45064
vn -0.89886 0.11011 0.42418
vn -0.59628 0.04528 0.80150
vn -0.35208 0.04792 0.93474
vn -0.20933 0.88324 0.41960
vn -0.11149 0.88614 0.44980
vn -0.16679 0.58313 0.79507
vn -0.09641 0.58616 0.80444
vn -0.13666 0.32568 0.93555
vn -0.09116 0.34149 0.93545
vn -0.17139 0.29246 0.94079
vn -0.04050 -0.66947 0.74174
vn -0.15581 -0.62630 0.76385
vn -0.12567 -0.40134 0.90726
vn -0.04946 -0.43105 0.90097
vn 0.07759 -0.43460 0.89728
vn 0.15037 -0.67381 0.72345
vn 0.21046 -0.92499 0.31638
vn -0.05354 -0.93115 0.36069
vn 0.53709 -0.79168 0.29117
vn -0.02821 0.87953 0.47501
vn 0.03696 0.86782 0.49550
vn -0.03312 0.57922 0.81449
vn 0.01316 0.56538 0.82473
vn -0.04368 0.34552 0.93739
vn -0.07772 0.00936 0.99693
vn -0.20002 -0.55573 0.80694
vn -0.19783 -0.53416 0.82191
vn -0.14197 -0.34036 0.92952
vn -0.14822 -0.36461 0.91929
vn -0.19659 -0.58385 0.78770
vn -0.27231 -0.84896 0.45289
vn -0.28685 -0.82658 0.48424
vn -0.21282 -0.88665 0.41055
vn 0.10479 0.85262 0.51192
vn 0.18111 0.83227 0.52396
vn 0.05840 0.54937 0.83354
vn 0.10972 0.53078 0.84038
vn -0.05996 0.01220 0.99813
vn -0.03791 0.00995 0.99923
vn -0.19938 -0.51690 0.83250
vn -0.20016 -0.50591 0.83904
vn -0.29596 -0.79867 0.52396
vn -0.30357 -0.78920 0.53387
vn -0.28956 -0.81132 0.50786
vn -0.32818 -0.87520 0.35543
vn -0.33622 -0.86859 0.36402
vn 0.28950 0.79662 0.53065
vn 0.40876 0.74409 0.52843
vn 0.32044 0.88228 0.34483
vn 0.18190 0.50305 0.84490
vn 0.26363 0.46672 0.84420
vn -0.00792 0.00064 0.99997
vn 0.02605 -0.01592 0.99953
vn -0.20232 -0.50024 0.84192
vn -0.20493 -0.50140 0.84060
vn -0.31510 -0.78189 0.53791
vn -0.32646 -0.77911 0.53517
vn -0.34787 -0.86263 0.36722
vn -0.35845 -0.85975 0.36380
vn -0.37246 -0.85824 0.35312
vn -0.34272 -0.77915 0.52484
vn -0.36080 -0.78341 0.50605
vn -0.21340 -0.50734 0.83490
vn -0.22708 -0.51908 0.82401
vn -0.38391 -0.79072 0.47685
vn 0.05709 -0.03893 0.99761
vn 0.34637 0.41873 0.83946
vn 0.52979 0.67053 0.51934
f 323//1 1//2 2//3 3//4
f 323//1 3//4 5//5 4//6
f 6//7 7//8 8//9 9//10
f 6//7 9//10 2//3 1//2
f 9//10 8//9 10//11 11//12
f 9//10 11//12 12//13 2//3
f 12//13 11//12 13//14 14//15
f 12//13 14//15 15//16 16//16
f 12//13 16//17 3//4 2//3
f 16//16 15//16 17//18 18//19
f 16//17 18//19 5//5 3//4
f 18//19 17//18 19//20 20//21
f 18//19 20//21 21//22 5//5
f 21//22 20//21 22//23 23//24
f 21//22 23//24 24//25 25//26
f 21//22 25//26 4//6 5//5
f 27//27 26//28 28//29 29//30
f 27//27 29//30 8//9 7//8
f 29//30 28//29 30//31 31//32
f 29//30 31//32 10//11 8//9
f 31//32 30//31 32//33 33//34
f 31//32 33//34 34//35 10//11
f 34//36 33//37 35//38 36//39
f 34//36 36//39 37//40 13//41
f 34//35 13//14 11//12 10//11
f 37//40 36//39 38//42 39//43
f 37//40 39//43 40//44 41//45
f 37//40 41//45 14//46 13//41
f 41//45 40//44 42//47 43//48
f 41//45 43//48 15//49 14//46
f 43//48 42//47 44//50 45//51
f 43//48 45//51 17//52 15//49
f 45//51 44//50 46//53 47//54
f 45//51 47//54 19//55 17//52
f 47//54 46//53 48//56 49//57
f 47//54 49//57 50//58 19//55
f 50//58 49//57 51//59 52//60
f 50//58 52//60 53//61 22//23
f 50//58 22//23 20//21 19//20
f 53//61 52//60 54//62 55//63
f 53//61 55//63 56//64 57//65
f 53//61 57//65 23//24 22//23
f 57//65 56//64 324//66 58//67
f 57//65 58//67 24//25 23//24
f 65//68 64//69 66//70 67//71
f 65//68 67//71 28//29 26//28
f 67//71 66//70 68//72 69//73
f 67//71 69//73 30//31 28//29
f 69//73 68//72 70//74 71//75
f 69//73 71//75 32//33 30//31
f 71//75 70//74 72//76 73//77
f 71//75 73//77 74//78 32//33
f 74//78 73//77 75//79 76//80
f 74//78 76//80 77//81 35//38
f 74//78 35//38 33//37 32//33
f 77//81 76//80 78//82 63//83
f 77//81 63//83 62//84 38//42
f 77//81 38//42 36//39 35//38
f 78//82 76//80 75//79 325//85
f 80//86 326//87 81//88 82//89
f 80//86 82//89 66//70 64//69
f 82//89 81//88 83//90 84//91
f 82//89 84//91 68//72 66//70
f 84//91 83//90 85//92 86//93
f 84//91 86//93 70//74 68//72
f 86//93 85//92 87//94 88//95
f 86//93 88//95 72//76 70//74
f 88//95 87//94 89//96 90//97
f 88//95 90//97 91//98 72//76
f 91//98 90//97 92//99 79//100
f 91//98 79//100 325//85 75//79
f 91//98 75//79 73//77 72//76
f 92//99 90//97 89//96 327//101
f 329//102 328//103 94//104 95//105
f 329//102 95//105 81//88 326//87
f 95//105 94//104 96//106 97//107
f 95//105 97//107 83//90 81//88
f 97//107 96//106 98//108 99//109
f 97//107 99//109 85//92 83//90
f 99//109 98//108 100//110 101//111
f 99//109 101//111 87//94 85//92
f 101//111 100//110 102//112 103//113
f 101//111 103//113 89//96 87//94
f 103//113 102//112 330//114 93//115
f 103//113 93//115 327//101 89//96
f 330//114 102//112 104//116 331//117
f 104//116 105//118 106//119 331//117
f 104//116 102//112 100//110 107//120
f 104//116 107//120 108//121 105//118
f 108//121 109//122 110//123 105//118
f 108//121 107//120 111//124 112//125
f 108//121 112//125 113//126 109//122
f 113//126 114//127 115//128 109//122
f 113//129 112//130 116//131 117//132
f 113//129 117//132 118//133 114//133
f 118//133 119//134 120//135 114//133
f 118//136 117//132 121//137 122//138
f 118//136 122//138 123//139 119//134
f 123//139 124//140 125//141 119//134
f 123//139 122//138 332//142 126//143
f 123//139 126//143 127//144 124//140
f 127//144 128//145 129//146 124//140
f 130//147 131//148 132//149 133//150
f 130//147 133//150 129//146 128//145
f 133//150 132//149 134//151 135//152
f 133//150 135//152 136//153 129//146
f 136//153 135//152 137//154 138//155
f 136//153 138//155 139//156 125//141
f 136//153 125//141 124//140 129//146
f 139//157 138//158 140//159 141//160
f 139//157 141//160 142//161 120//162
f 139//156 120//135 119//134 125//141
f 142//161 141//160 143//163 144//164
f 142//161 144//164 145//165 115//128
f 142//161 115//128 114//127 120//162
f 145//165 144//164 146//166 147//167
f 145//165 147//167 148//168 110//123
f 145//165 110//123 109//122 115//128
f 148//168 106//119 105//118 110//123
f 149//169 333//170 150//171 151//172
f 149//169 151//172 94//104 328//103
f 151//172 150//171 116//131 152//173
f 151//172 152//173 96//106 94//104
f 152//173 116//131 112//130 111//124
f 152//173 111//124 98//108 96//106
f 150//171 121//137 117//132 116//131
f 150//171 333//170 334//174 121//137
f 334//174 332//142 122//138 121//137
f 154//175 153//176 155//177 156//178
f 154//175 156//178 132//149 131//148
f 156//178 155//177 157//179 158//180
f 156//178 158//180 134//151 132//149
f 158//180 157//179 159//181 160//182
f 158//180 160//182 161//183 134//151
f 161//183 160//182 162//184 163//185
f 161//183 163//185 164//186 137//154
f 161//183 137//154 135//152 134//151
f 164//186 163//185 165//187 166//188
f 164//186 166//188 167//189 140//159
f 164//186 140//159 138//158 137//154
f 167//189 166//188 335//190 336//191
f 167//189 336//191 168//192 143//163
f 167//189 143//163 141//160 140//159
f 168//192 146//166 144//164 143//163
f 170//193 338//194 171//195 172//196
f 170//193 172//196 155//177 153//176
f 172//196 171//195 173//197 174//198
f 172//196 174//198 157//179 155//177
f 174//198 173//197 175//199 176//200
f 174//198 176//200 159//181 157//179
f 176//200 175//199 177//201 178//202
f 176//200 178//202 179//203 159//181
f 179//203 178//202 180//204 181//205
f 179//203 181//205 182//206 162//184
f 179//203 162//184 160//182 159//181
f 182//206 181//205 183//207 169//208
f 182//206 169//208 337//209 165//187
f 182//206 165//187 163//185 162//184
f 183//207 181//205 180//204 339//210
f 186//211 185//212 187//213 188//214
f 186//211 188//214 171//195 338//194
f 188//214 187//213 189//215 190//216
f 188//214 190//216 173//197 171//195
f 190//216 189//215 191//217 192//218
f 190//216 192//218 175//199 173//197
f 192//218 191//217 193//219 194//220
f 192//218 194//220 177//201 175//199
f 194//220 193//219 195//221 196//222
f 194//220 196//222 197//223 177//201
f 197//223 196//222 198//224 184//225
f 197//223 184//225 339//210 180//204
f 197//223 180//204 178//202 177//201
f 198//224 196//222 195//221 340//226
f 201//227 200//228 202//229 203//230
f 201//227 203//230 187//213 185//212
f 203//230 202//229 204//231 205//232
f 203//230 205//232 189//215 187//213
f 205//232 204//231 206//233 207//234
f 205//232 207//234 191//217 189//215
f 207//234 206//233 208//235 209//236
f 207//234 209//236 193//219 191//217
f 209//236 208//235 210//237 211//238
f 209//236 211//238 195//221 193//219
f 211//238 210//237 212//239 199//240
f 211//238 199//240 340//226 195//221
f 212//239 210//237 214//241 213//242
f 214//241 215//243 216//244 213//242
f 214//241 210//237 208//235 217//245
f 214//241 217//245 218//246 215//243
f 218//246 219//247 220//248 215//243
f 218//246 217//245 221//249 222//250
f 218//246 222//250 223//251 219//247
f 223//251 224//252 225//253 219//247
f 223//254 222//255 226//256 227//257
f 223//254 227//257 228//258 224//259
f 228//258 229//260 230//261 224//259
f 228//258 227//257 231//262 232//263
f 228//258 232//263 233//264 229//260
f 233//264 234//265 235//266 229//260
f 233//264 232//263 236//267 237//268
f 233//264 237//268 341//269 234//265
f 341//269 238//270 239//271 234//265
f 240//272 342//273 241//274 242//275
f 240//272 242//275 239//271 238//270
f 242//275 241//274 243//276 244//277
f 242//275 244//277 245//278 239//271
f 245//279 244//277 246//280 247//279
f 245//279 247//279 248//281 235//281
f 245//278 235//266 234//265 239//271
f 248//282 247//283 249//284 250//285
f 248//282 250//285 251//286 230//287
f 248//281 230//261 229//260 235//281
f 251//286 250//285 252//288 253//289
f 251//286 253//289 254//290 225//253
f 251//286 225//253 224//252 230//287
f 254//290 253//289 343//291 255//292
f 254//290 255//292 256//293 220//248
f 254//290 220//248 219//247 225//253
f 256//293 216//244 215//243 220//248
f 257//294 344//295 258//296 259//297
f 257//294 259//297 202//229 200//228
f 259//297 258//296 226//256 260//298
f 259//297 260//298 204//231 202//229
f 260//298 226//256 222//255 221//299
f 260//298 221//299 206//233 204//231
f 258//296 231//262 227//257 226//256
f 258//296 344//295 345//300 231//262
f 345//300 236//267 232//263 231//262
f 346//301 261//302 262//303 263//304
f 346//301 263//304 241//274 342//273
f 263//304 262//303 264//305 265//306
f 263//304 265//306 243//276 241//274
f 265//306 264//305 266//307 267//308
f 265//306 267//308 268//309 243//276
f 268//310 267//311 269//312 270//313
f 268//310 270//313 271//314 246//315
f 268//309 246//280 244//277 243//276
f 271//314 270//313 272//316 273//317
f 271//314 273//317 274//318 249//284
f 271//314 249//284 247//283 246//315
f 274//318 273//317 347//319 275//320
f 274//318 275//320 348//321 252//288
f 274//318 252//288 250//285 249//284
f 348//321 343//291 253//289 252//288
f 277//322 350//323 278//324 279//325
f 277//322 279//325 262//303 261//302
f 279//325 278//324 280//326 281//327
f 279//325 281//327 264//305 262//303
f 281//327 280//326 282//328 283//329
f 281//327 283//329 266//307 264//305
f 283//330 282//328 284//331 285//332
f 283//330 285//332 286//333 266//334
f 286//333 285//332 287//335 288//336
f 286//333 288//336 289//337 269//312
f 286//333 269//312 267//311 266//334
f 289//337 288//336 290//338 276//339
f 289//337 276//339 349//340 272//316
f 289//337 272//316 270//313 269//312
f 290//338 288//336 287//335 351//341
f 353//342 352//343 291//344 292//345
f 353//342 292//345 278//324 350//323
f 292//345 291//344 293//346 294//347
f 292//345 294//347 280//326 278//324
f 294//347 293//346 295//348 296//349
f 294//347 296//349 282//328 280//326
f 296//349 295//348 297//350 298//351
f 296//349 298//351 284//331 282//328
f 298//351 297//350 299//352 300//353
f 298//351 300//353 301//354 284//331
f 301//354 300//353 354//355 355//356
f 301//354 355//356 351//341 287//335
f 301//354 287//335 285//332 284//331
f 354//355 300//353 299//352 356//357
f 358//358 357//359 303//360 304//361
f 358//358 304//361 291//344 352//343
f 304//361 303//360 305//362 306//363
f 304//361 306//363 293//346 291//344
f 306//363 305//362 307//364 308//365
f 306//363 308//365 295//348 293//346
f 308//365 307//364 309//366 310//367
f 308//365 310//367 297//350 295//348
f 310//367 309//366 311//368 312//369
f 310//367 312//369 299//352 297//350
f 312//369 311//368 313//370 302//371
f 312//369 302//371 356//357 299//352
f 313//370 311//368 315//372 314//373
f 315//372 316//374 359//375 314//373
f 315//372 311//368 309//366 317//376
f 315//372 317//376 318//377 316//374
f 318//377 51//59 319//378 316//374
f 318//377 317//376 320//379 54//62
f 318//377 54//62 52//60 51//59
f 320//379 317//376 309//366 307//364
f 320//379 307//364 305//362 321//380
f 320//379 321//380 55//63 54//62
f 321//380 305//362 303//360 322//381
f 321//380 322//381 56//64 55//63
f 322//381 303//360 357//359 360//382
f 322//381 360//382 324//66 56//64
f 362//383 361//384 319//378 48//56
f 362//383 48//56 46//53 59//385
f 361//384 359//375 316//374 319//378
f 319//378 51//59 49//57 48//56
f 349//340 347//319 273//317 272//316
f 221//249 217//245 208//235 206//233
f 337//209 335//190 166//188 165//187
f 111//124 107//120 100//110 98//108
f 62//84 61//386 39//43 38//42
f 61//386 363//387 40//44 39//43
f 363//387 364//388 42//47 40//44
f 364//388 60//389 44//50 42//47
f 60//389 59//385 46//53 44//50
f 366//390 365//391 1//2 323//1
f 4//6 367//392 366//390 323//1
f 369//393 368//394 7//8 6//7
f 1//2 365//391 369//393 6//7
f 371//395 370//396 368//394 369//393
f 365//391 372//397 371//395 369//393
f 374//398 373//399 371//395 372//397
f 376//400 375//401 374//398 372//397
f 365//391 366//390 376//400 372//397
f 378//402 377//403 375//401 376//400
f 366//390 367//392 378//402 376//400
f 380//404 379//405 377//403 378//402
f 367//392 381//406 380//404 378//402
f 383//407 382//408 380//404 381//406
f 25//26 24//25 383//407 381//406
f 367//392 4//6 25//26 381//406
f 385//409 384//410 26//28 27//27
f 7//8 368//394 385//409 27//27
f 387//411 386//412 384//410 385//409
f 368//394 370//396 387//411 385//409
f 389//413 388//414 386//412 387//411
f 370//396 390//415 389//413 387//411
f 392//416 391//417 389//418 390//419
f 373//420 393//421 392//416 390//419
f 370//396 371//395 373//399 390//415
f 395//422 394//423 392//416 393//421
f 397//424 396//425 395//422 393//421
f 373//420 374//426 397//424 393//421
f 399//427 398//428 396//425 397//424
f 374//426 375//429 399//427 397//424
f 401//430 400//431 398//428 399//427
f 375//429 377//432 401//430 399//427
f 403//433 402//434 400//431 401//430
f 377//432 379//435 403//433 401//430
f 405//436 404//437 402//434 403//433
f 379//435 406//438 405//436 403//433
f 408//439 407//440 405//436 406//438
f 382//408 409//441 408//439 406//438
f 379//405 380//404 382//408 406//438
f 411//442 410//443 408//439 409//441
f 413//444 412//445 411//442 409//441
f 382//408 383//407 413//444 409//441
f 58//67 324//66 412//445 413//444
f 383//407 24//25 58//67 413//444
f 415//446 414//447 64//69 65//68
f 26//28 384//410 415//446 65//68
f 417//448 416//449 414//447 415//446
f 384//410 386//412 417//448 415//446
f 419//450 418//451 416//449 417//448
f 386//412 388//414 419//450 417//448
f 421//452 420//453 418//451 419//450
f 388//414 422//454 421//452 419//450
f 424//455 423//456 421//452 422//454
f 391//417 425//457 424//455 422//454
f 388//414 389//418 391//417 422//454
f 63//83 78//82 424//455 425//457
f 394//423 62//84 63//83 425//457
f 391//417 392//416 394//423 425//457
f 325//85 423//456 424//455 78//82
f 427//458 426//459 326//87 80//86
f 64//69 414//447 427//458 80//86
f 429//460 428//461 426//459 427//458
f 414//447 416//449 429//460 427//458
f 431//462 430//463 428//461 429//460
f 416//449 418//451 431//462 429//460
f 433//464 432//465 430//463 431//462
f 418//451 420//453 433//464 431//462
f 435//466 434//467 432//465 433//464
f 420//453 436//468 435//466 433//464
f 79//100 92//469 435//466 436//468
f 423//456 325//85 79//100 436//468
f 420//453 421//452 423//456 436//468
f 327//101 434//467 435//466 92//469
f 438//470 437//471 328//103 329//102
f 326//87 426//459 438//470 329//102
f 440//472 439//473 437//471 438//470
f 426//459 428//461 440//472 438//470
f 442//474 441//475 439//473 440//472
f 428//461 430//463 442//474 440//472
f 444//476 443//477 441//475 442//474
f 430//463 432//465 444//476 442//474
f 446//478 445//479 443//477 444//476
f 432//465 434//467 446//478 444//476
f 93//115 330//114 445//479 446//478
f 434//467 327//101 93//115 446//478
f 331//117 447//480 445//479 330//114
f 331//117 106//119 448//481 447//480
f 449//482 443//477 445//479 447//480
f 448//481 450//483 449//482 447//480
f 448//481 452//484 451//485 450//483
f 454//486 453//487 449//482 450//483
f 451//485 455//488 454//486 450//483
f 451//485 457//489 456//490 455//488
f 459//491 458//492 454//493 455//494
f 456//495 460//495 459//491 455//494
f 456//495 462//496 461//497 460//495
f 464//498 463//499 459//491 460//500
f 461//497 465//501 464//498 460//500
f 461//497 467//502 466//503 465//501
f 126//143 332//142 464//498 465//501
f 466//503 127//144 126//143 465//501
f 466//503 468//504 128//145 127//144
f 470//505 469//506 131//148 130//147
f 128//145 468//504 470//505 130//147
f 472//507 471//508 469//506 470//505
f 468//504 473//509 472//507 470//505
f 475//510 474//511 472//507 473//509
f 467//502 476//512 475//510 473//509
f 468//504 466//503 467//502 473//509
f 478//513 477//514 475//515 476//516
f 462//517 479//518 478//513 476//516
f 467//502 461//497 462//496 476//512
f 481//519 480//520 478//513 479//518
f 457//489 482//521 481//519 479//518
f 462//517 456//490 457//489 479//518
f 147//167 146//166 481//519 482//521
f 452//484 148//168 147//167 482//521
f 457//489 451//485 452//484 482//521
f 452//484 448//481 106//119 148//168
f 484//522 483//523 333//170 149//169
f 328//103 437//471 484//522 149//169
f 485//524 458//492 483//523 484//522
f 437//471 439//473 485//524 484//522
f 453//487 454//493 458//492 485//524
f 439//473 441//475 453//487 485//524
f 458//492 459//491 463//499 483//523
f 463//499 334//174 333//170 483//523
f 463//499 464//498 332//142 334//174
f 487//525 486//526 153//176 154//175
f 131//148 469//506 487//525 154//175
f 489//527 488//528 486//526 487//525
f 469//506 471//508 489//527 487//525
f 491//529 490//530 488//528 489//527
f 471//508 492//531 491//529 489//527
f 494//532 493//533 491//529 492//531
f 474//511 495//534 494//532 492//531
f 471//508 472//507 474//511 492//531
f 497//535 496//536 494//532 495//534
f 477//514 498//537 497//535 495//534
f 474//511 475//515 477//514 495//534
f 336//191 335//190 497//535 498//537
f 480//520 168//192 336//191 498//537
f 477//514 478//513 480//520 498//537
f 480//520 481//519 146//166 168//192
f 500//538 499//539 338//194 170//193
f 153//176 486//526 500//538 170//193
f 502//540 501//541 499//539 500//538
f 486//526 488//528 502//540 500//538
f 504//542 503//543 501//541 502//540
f 488//528 490//530 504//542 502//540
f 506//544 505//545 503//543 504//542
f 490//530 507//546 506//544 504//542
f 509//547 508//548 506//544 507//546
f 493//533 510//549 509//547 507//546
f 490//530 491//529 493//533 507//546
f 169//208 183//550 509//547 510//549
f 496//536 337//209 169//208 510//549
f 493//533 494//532 496//536 510//549
f 339//551 508//548 509//547 183//550
f 512//552 511//553 185//212 186//211
f 338//194 499//539 512//552 186//211
f 514//554 513//555 511//553 512//552
f 499//539 501//541 514//554 512//552
f 516//556 515//557 513//555 514//554
f 501//541 503//543 516//556 514//554
f 518//558 517//559 515//557 516//556
f 503//543 505//545 518//558 516//556
f 520//560 519//561 517//559 518//558
f 505//545 521//562 520//560 518//558
f 184//563 198//564 520//560 521//562
f 508//548 339//551 184//563 521//562
f 505//545 506//544 508//548 521//562
f 340//226 519//561 520//560 198//564
f 523//565 522//566 200//228 201//227
f 185//212 511//553 523//565 201//227
f 525//567 524//568 522//566 523//565
f 511//553 513//555 525//567 523//565
f 527//569 526//570 524//568 525//567
f 513//555 515//557 527//569 525//567
f 529//571 528//572 526//570 527//569
f 515//557 517//559 529//571 527//569
f 531//573 530//574 528//572 529//571
f 517//559 519//561 531//573 529//571
f 199//240 212//239 530//574 531//573
f 519//561 340//226 199//240 531//573
f 213//242 532//575 530//574 212//239
f 213//242 216//244 533//576 532//575
f 534//577 528//572 530//574 532//575
f 533//576 535//578 534//577 532//575
f 533//576 537//579 536//580 535//578
f 539//581 538//582 534//577 535//578
f 536//580 540//583 539//581 535//578
f 536//580 542//584 541//585 540//583
f 544//586 543//587 539//588 540//589
f 541//590 545//591 544//586 540//589
f 541//590 547//592 546//593 545//591
f 549//594 548//595 544//586 545//591
f 546//593 550//596 549//594 545//591
f 546//593 552//597 551//598 550//596
f 237//268 236//267 549//594 550//596
f 551//598 341//269 237//268 550//596
f 551//598 553//599 238//270 341//269
f 555//600 554//601 342//273 240//272
f 238//270 553//599 555//600 240//272
f 557//602 556//603 554//601 555//600
f 553//599 558//604 557//602 555//600
f 560//605 559//606 557//602 558//605
f 552//607 561//607 560//605 558//605
f 553//599 551//598 552//597 558//604
f 563//608 562//609 560//610 561//611
f 547//612 564//613 563//608 561//611
f 552//607 546//593 547//592 561//607
f 566//614 565//615 563//608 564//613
f 542//584 567//616 566//614 564//613
f 547//612 541//585 542//584 564//613
f 255//292 343//291 566//614 567//616
f 537//579 256//293 255//292 567//616
f 542//584 536//580 537//579 567//616
f 537//579 533//576 216//244 256//293
f 569//617 568//618 344//295 257//294
f 200//228 522//566 569//617 257//294
f 570//619 543//587 568//618 569//617
f 522//566 524//568 570//619 569//617
f 538//620 539//588 543//587 570//619
f 524//568 526//570 538//620 570//619
f 543//587 544//586 548//595 568//618
f 548//595 345//300 344//295 568//618
f 548//595 549//594 236//267 345//300
f 572//621 571//622 261//302 346//301
f 342//273 554//601 572//621 346//301
f 574//623 573//624 571//622 572//621
f 554//601 556//603 574//623 572//621
f 576//625 575//626 573//624 574//623
f 556//603 577//627 576//625 574//623
f 579//628 578//629 576//630 577//631
f 559//632 580//633 579//628 577//631
f 556//603 557//602 559//606 577//627
f 582//634 581//635 579//628 580//633
f 562//609 583//636 582//634 580//633
f 559//632 560//610 562//609 580//633
f 275//320 347//319 582//634 583//636
f 565//615 348//321 275//320 583//636
f 562//609 563//608 565//615 583//636
f 565//615 566//614 343//291 348//321
f 585//637 584//638 350//323 277//322
f 261//302 571//622 585//637 277//322
f 587//639 586//640 584//638 585//637
f 571//622 573//624 587//639 585//637
f 589//641 588//642 586//640 587//639
f 573//624 575//626 589//641 587//639
f 591//643 590//644 588//642 589//645
f 575//646 592//647 591//643 589//645
f 594//648 593//649 591//643 592//647
f 578//629 595//650 594//648 592//647
f 575//646 576//630 578//629 592//647
f 276//339 290//338 594//648 595//650
f 581//635 349//340 276//339 595//650
f 578//629 579//628 581//635 595//650
f 351//341 593//649 594//648 290//338
f 597//651 596//652 352//343 353//342
f 350//323 584//638 597//651 353//342
f 599//653 598//654 596//652 597//651
f 584//638 586//640 599//653 597//651
f 601//655 600//656 598//654 599//653
f 586//640 588//642 601//655 599//653
f 603//657 602//658 600//656 601//655
f 588//642 590//644 603//657 601//655
f 605//659 604//660 602//658 603//657
f 590//644 606//661 605//659 603//657
f 355//356 354//662 605//659 606//661
f 593//649 351//341 355//356 606//661
f 590//644 591//643 593//649 606//661
f 356//663 604//660 605//659 354//662
f 608//664 607//665 357//359 358//666
f 352//343 596//652 608//664 358//666
f 610//667 609//668 607//665 608//664
f 596//652 598//654 610//667 608//664
f 612//669 611//670 609//668 610//667
f 598//654 600//656 612//669 610//667
f 614//671 613//672 611//670 612//669
f 600//656 602//658 614//671 612//669
f 616//673 615//674 613//672 614//671
f 602//658 604//660 616//673 614//671
f 302//675 313//676 615//674 616//673
f 604//660 356//663 302//675 616//673
f 314//677 617//678 615//674 313//676
f 314//677 359//375 618//679 617//678
f 619//680 613//672 615//674 617//678
f 618//679 620//681 619//680 617//678
f 618//679 621//682 407//440 620//681
f 410//443 622//683 619//680 620//681
f 407//440 408//439 410//443 620//681
f 611//670 613//672 619//680 622//683
f 623//684 609//668 611//670 622//683
f 410//443 411//442 623//684 622//683
f 624//685 607//665 609//668 623//684
f 411//442 412//445 624//685 623//684
f 360//382 357//359 607//665 624//685
f 412//445 324//66 360//382 624//685
f 404//437 621//682 361//384 362//383
f 59//385 402//434 404//437 362//383
f 621//682 618//679 359//375 361//384
f 404//437 405//436 407//440 621//682
f 581//635 582//634 347//319 349//340
f 526//570 528//572 534//577 538//582
f 496//536 497//535 335//190 337//209
f 441//475 443//477 449//482 453//487
f 394//423 395//422 61//386 62//84
f 395//422 396//425 363//387 61//386
f 396//425 398//428 364//388 363//387
f 398//428 400//431 60//389 364//388
f 400//431 402//434 59//385 60//389
