# pilowlava3D glyph '1' variant 1 — Vincent Wagner / Velvetyne, Free Art License
v 0.40792 3.55569 -0.38339
v 1.52653 0.21663 -0.40383
v 0.12379 4.12813 -0.20625
v 0.25492 4.22890 -0.25101
v 0.24882 3.98865 -0.39403
v 0.08026 3.91817 -0.25754
v 0.59594 3.60276 -0.40709
v 0.66872 3.42442 -0.23266
v 0.36390 3.41864 -0.24620
v 0.12900 3.61717 -0.26221
v 0.29372 3.70825 -0.41788
v 0.48518 3.81714 -0.47398
v 1.00501 0.34478 -0.39660
v 0.88891 0.26761 -0.25270
v 0.82230 0.54392 -0.25039
v 1.03376 0.52169 -0.44454
v 1.63943 0.35518 -0.44511
v 1.83374 0.26605 -0.26398
v 1.57235 0.08275 -0.25194
v 1.23957 0.22789 -0.42330
v 1.32841 0.42124 -0.52381
v 1.40040 0.61608 -0.55340
v 1.70183 0.56142 -0.47142
v 1.08994 0.70871 -0.46985
v 1.13587 0.89670 -0.47109
v 1.43366 0.82329 -0.55257
v 0.85653 0.76629 -0.25708
v 0.91010 0.96564 -0.25868
v 0.97586 1.16345 -0.25519
v 1.18056 1.09716 -0.46492
v 0.86490 1.20436 0.00000
v 0.93566 1.40192 0.00000
v 1.03760 1.36263 -0.25207
v 1.00503 1.59982 0.00000
v 1.07709 1.79822 0.00000
v 1.16293 1.76531 -0.23489
v 1.09957 1.56331 -0.24468
v 1.32672 1.71709 -0.42529
v 1.27761 1.50972 -0.43831
v 1.22833 1.30236 -0.45506
v 1.52214 1.45969 -0.52193
v 1.48877 1.24681 -0.53578
v 1.45881 1.03306 -0.54992
v 1.74818 1.21193 -0.44958
v 1.73257 0.99874 -0.46180
v 1.72202 0.78345 -0.47284
v 1.94182 0.98613 -0.25675
v 1.94132 0.76536 -0.26449
v 1.93345 0.52797 -0.26925
v 1.90476 0.20956 0.00000
v 1.58366 0.01150 0.00000
v 1.19712 0.06367 -0.25105
v 1.28857 2.17067 -0.21870
v 1.22518 1.96787 -0.22676
v 1.42648 2.13109 -0.39734
v 1.37594 1.92430 -0.41184
v 1.63198 2.08990 -0.47722
v 1.59399 1.88060 -0.49127
v 1.55779 1.66993 -0.50843
v 1.81327 1.84700 -0.40922
v 1.79011 1.63548 -0.42305
v 1.77013 1.42316 -0.43821
v 1.96162 1.62463 -0.23286
v 1.95350 1.41238 -0.24202
v 1.94679 1.20012 -0.24988
v 2.05814 1.19800 0.00000
v 2.05769 1.83612 0.00000
v 1.29192 2.39550 0.00000
v 1.41880 2.57277 -0.20225
v 1.35260 2.37293 -0.21044
v 1.53323 2.54382 -0.37175
v 1.47823 2.33769 -0.38593
v 1.70640 2.50977 -0.44535
v 1.66808 2.29846 -0.46329
v 1.87930 2.48094 -0.36986
v 1.85866 2.26964 -0.38160
v 1.83737 2.05789 -0.39528
v 1.98913 2.25973 -0.20834
v 1.98225 2.04770 -0.21670
v 1.97310 1.83591 -0.22503
v 2.05938 2.46887 0.00000
v 1.50627 2.98879 0.00000
v 1.55113 2.97376 -0.19126
v 1.48361 2.77407 -0.19617
v 1.64663 2.95359 -0.35036
v 1.58930 2.74868 -0.35987
v 1.78064 2.92820 -0.41065
v 1.74441 2.71902 -0.42700
v 1.91469 2.90588 -0.35009
v 1.89883 2.69319 -0.35896
v 2.01365 2.89258 -0.19201
v 2.00668 2.68100 -0.19560
v 1.99892 2.47001 -0.20160
v 2.06172 3.09982 0.00000
v 1.57675 3.18485 0.00000
v 1.68232 3.37213 -0.18117
v 1.61840 3.17394 -0.18751
v 1.75860 3.36315 -0.32607
v 1.70520 3.15775 -0.34102
v 1.85390 3.34828 -0.37218
v 1.81717 3.13696 -0.39271
v 1.94849 3.33146 -0.32930
v 1.92986 3.11879 -0.34242
v 2.02694 3.31536 -0.18195
v 2.01961 3.10427 -0.18811
v 2.06280 3.31079 0.00000
v 2.06317 3.52387 0.00000
v 2.03426 3.53003 -0.17340
v 2.04268 3.75119 -0.16496
v 2.06537 3.74736 0.00000
v 1.97391 3.54274 -0.30553
v 1.99697 3.75784 -0.27845
v 1.99310 3.98456 -0.26366
v 2.03740 3.99323 -0.16179
v 1.89063 3.55617 -0.34871
v 1.92524 3.76538 -0.32285
v 1.92499 3.97229 -0.30679
v 1.85480 4.16019 -0.30772
v 1.91276 4.20661 -0.27360
v 1.85515 3.76600 -0.27376
v 1.86565 3.95830 -0.24952
v 1.80906 4.12344 -0.24670
v 1.67412 4.21584 -0.25512
v 1.69519 4.27056 -0.31403
v 1.82427 3.94467 -0.14345
v 1.77849 4.09687 -0.13940
v 1.65668 4.17465 -0.14465
v 1.49339 4.15103 -0.15923
v 1.49655 4.20627 -0.28241
v 1.65050 4.16240 0.00000
v 1.35775 4.00572 0.00000
v 1.33735 4.04552 -0.18456
v 1.23372 3.86071 0.00000
v 1.10155 3.70655 0.00000
v 1.04813 3.75852 -0.21541
v 1.19103 3.90491 -0.20772
v 0.95508 3.86884 -0.39336
v 1.13568 4.00539 -0.36714
v 1.31595 4.12403 -0.32889
v 1.08748 4.12220 -0.42273
v 1.28827 4.21027 -0.37792
v 1.49249 4.27353 -0.33599
v 1.25881 4.30211 -0.33527
v 1.47964 4.34402 -0.29613
v 1.71483 4.33822 -0.27988
v 1.46877 4.39852 -0.18046
v 1.72784 4.39050 -0.17355
v 1.95450 4.24296 -0.16900
v 2.05707 3.99719 0.00000
v 1.80214 3.76075 -0.15569
v 1.74558 3.57009 -0.17043
v 1.80833 3.56669 -0.30421
v 0.94288 3.52056 0.00000
v 0.89804 3.58520 -0.22192
v 0.79065 3.72098 -0.40742
v 0.67105 3.91443 -0.48197
v 0.87685 4.01987 -0.46249
v 0.62330 4.12423 -0.43517
v 0.83132 4.18544 -0.41464
v 1.04643 4.24746 -0.37614
v 0.81818 4.33673 -0.23643
v 1.01926 4.36014 -0.21866
v 1.23709 4.38034 -0.19616
v 1.23039 4.42284 0.00000
v 0.63408 4.41200 0.00000
v 0.23143 4.32144 0.00000
v 0.43895 4.29806 -0.26038
v 0.07691 4.15288 0.00000
v 0.00000 3.89533 0.00000
v 0.06580 3.57863 0.00000
v 0.62739 4.31479 -0.24594
v 0.43462 4.06333 -0.43557
v 0.74538 0.78029 0.00000
v 0.79408 0.99989 0.00000
v 2.05515 0.75396 0.00000
v 2.03057 0.49816 0.00000
v 1.18194 0.00000 0.00000
v 0.83425 0.21766 0.00000
v 0.73234 0.52442 0.00000
v 1.22009 2.19624 0.00000
v 1.14891 1.99793 0.00000
v 2.05643 1.41213 0.00000
v 2.05862 0.98012 0.00000
v 2.05636 1.62375 0.00000
v 1.36333 2.59338 0.00000
v 2.05873 2.04745 0.00000
v 2.05879 2.25910 0.00000
v 1.43425 2.79110 0.00000
v 2.05959 2.67981 0.00000
v 2.06084 2.89003 0.00000
v 1.64622 3.38024 0.00000
v 1.76894 4.08753 0.00000
v 1.49459 4.12991 0.00000
v 1.73251 4.41148 0.00000
v 1.96905 4.25513 0.00000
v 1.78050 3.75816 0.00000
v 1.71534 3.57171 0.00000
v 1.81080 3.93912 0.00000
v 0.68435 3.35476 0.00000
v 1.01737 4.42064 0.00000
v 1.46531 4.42697 0.00000
v 0.43546 4.39887 0.00000
v 0.33517 3.35628 0.00000
v 0.82043 4.41696 0.00000
v 0.40792 3.55569 0.38339
v 1.52653 0.21663 0.40383
v 0.12379 4.12813 0.20625
v 0.25492 4.22890 0.25101
v 0.24882 3.98865 0.39403
v 0.08026 3.91817 0.25754
v 0.59594 3.60276 0.40709
v 0.66872 3.42442 0.23266
v 0.36390 3.41864 0.24620
v 0.12900 3.61717 0.26221
v 0.29372 3.70825 0.41788
v 0.48518 3.81714 0.47398
v 1.00501 0.34478 0.39660
v 0.88891 0.26761 0.25270
v 0.82230 0.54392 0.25039
v 1.03376 0.52169 0.44454
v 1.63943 0.35518 0.44511
v 1.83374 0.26605 0.26398
v 1.57235 0.08275 0.25194
v 1.23957 0.22789 0.42330
v 1.32841 0.42124 0.52381
v 1.40040 0.61608 0.55340
v 1.70183 0.56142 0.47142
v 1.08994 0.70871 0.46985
v 1.13587 0.89670 0.47109
v 1.43366 0.82329 0.55257
v 0.85653 0.76629 0.25708
v 0.91010 0.96564 0.25868
v 0.97586 1.16345 0.25519
v 1.18056 1.09716 0.46492
v 1.03760 1.36263 0.25207
v 1.16293 1.76531 0.23489
v 1.09957 1.56331 0.24468
v 1.32672 1.71709 0.42529
v 1.27761 1.50972 0.43831
v 1.22833 1.30236 0.45506
v 1.52214 1.45969 0.52193
v 1.48877 1.24681 0.53578
v 1.45881 1.03306 0.54992
v 1.74818 1.21193 0.44958
v 1.73257 0.99874 0.46180
v 1.72202 0.78345 0.47284
v 1.94182 0.98613 0.25675
v 1.94132 0.76536 0.26449
v 1.93345 0.52797 0.26925
v 1.19712 0.06367 0.25105
v 1.28857 2.17067 0.21870
v 1.22518 1.96787 0.22676
v 1.42648 2.13109 0.39734
v 1.37594 1.92430 0.41184
v 1.63198 2.08990 0.47722
v 1.59399 1.88060 0.49127
v 1.55779 1.66993 0.50843
v 1.81327 1.84700 0.40922
v 1.79011 1.63548 0.42305
v 1.77013 1.42316 0.43821
v 1.96162 1.62463 0.23286
v 1.95350 1.41238 0.24202
v 1.94679 1.20012 0.24988
v 1.41880 2.57277 0.20225
v 1.35260 2.37293 0.21044
v 1.53323 2.54382 0.37175
v 1.47823 2.33769 0.38593
v 1.70640 2.50977 0.44535
v 1.66808 2.29846 0.46329
v 1.87930 2.48094 0.36986
v 1.85866 2.26964 0.38160
v 1.83737 2.05789 0.39528
v 1.98913 2.25973 0.20834
v 1.98225 2.04770 0.21670
v 1.97310 1.83591 0.22503
v 1.55113 2.97376 0.19126
v 1.48361 2.77407 0.19617
v 1.64663 2.95359 0.35036
v 1.58930 2.74868 0.35987
v 1.78064 2.92820 0.41065
v 1.74441 2.71902 0.42700
v 1.91469 2.90588 0.35009
v 1.89883 2.69319 0.35896
v 2.01365 2.89258 0.19201
v 2.00668 2.68100 0.19560
v 1.99892 2.47001 0.20160
v 1.68232 3.37213 0.18117
v 1.61840 3.17394 0.18751
v 1.75860 3.36315 0.32607
v 1.70520 3.15775 0.34102
v 1.85390 3.34828 0.37218
v 1.81717 3.13696 0.39271
v 1.94849 3.33146 0.32930
v 1.92986 3.11879 0.34242
v 2.02694 3.31536 0.18195
v 2.01961 3.10427 0.18811
v 2.03426 3.53003 0.17340
v 2.04268 3.75119 0.16496
v 1.97391 3.54274 0.30553
v 1.99697 3.75784 0.27845
v 1.99310 3.98456 0.26366
v 2.03740 3.99323 0.16179
v 1.89063 3.55617 0.34871
v 1.92524 3.76538 0.32285
v 1.92499 3.97229 0.30679
v 1.85480 4.16019 0.30772
v 1.91276 4.20661 0.27360
v 1.85515 3.76600 0.27376
v 1.86565 3.95830 0.24952
v 1.80906 4.12344 0.24670
v 1.67412 4.21584 0.25512
v 1.69519 4.27056 0.31403
v 1.82427 3.94467 0.14345
v 1.77849 4.09687 0.13940
v 1.65668 4.17465 0.14465
v 1.49339 4.15103 0.15923
v 1.49655 4.20627 0.28241
v 1.33735 4.04552 0.18456
v 1.04813 3.75852 0.21541
v 1.19103 3.90491 0.20772
v 0.95508 3.86884 0.39336
v 1.13568 4.00539 0.36714
v 1.31595 4.12403 0.32889
v 1.08748 4.12220 0.42273
v 1.28827 4.21027 0.37792
v 1.49249 4.27353 0.33599
v 1.25881 4.30211 0.33527
v 1.47964 4.34402 0.29613
v 1.71483 4.33822 0.27988
v 1.46877 4.39852 0.18046
v 1.72784 4.39050 0.17355
v 1.95450 4.24296 0.16900
v 1.80214 3.76075 0.15569
v 1.74558 3.57009 0.17043
v 1.80833 3.56669 0.30421
v 0.89804 3.58520 0.22192
v 0.79065 3.72098 0.40742
v 0.67105 3.91443 0.48197
v 0.87685 4.01987 0.46249
v 0.62330 4.12423 0.43517
v 0.83132 4.18544 0.41464
v 1.04643 4.24746 0.37614
v 0.81818 4.33673 0.23643
v 1.01926 4.36014 0.21866
v 1.23709 4.38034 0.19616
v 0.43895 4.29806 0.26038
v 0.62739 4.31479 0.24594
v 0.43462 4.06333 0.43557
vn -0.77246 0.45914 -0.43875
vn -0.51023 0.64908 -0.56423
vn -0.47855 0.23130 -0.84705
vn -0.83349 0.10178 -0.54308
vn -0.15795 -0.53654 -0.82896
vn 0.13572 -0.48053 -0.86641
vn 0.26900 -0.80598 -0.52729
vn -0.26799 -0.80369 -0.53129
vn -0.72371 -0.41431 -0.55190
vn -0.38075 -0.22017 -0.89809
vn -0.08069 -0.08450 -0.99315
vn -0.49143 -0.34828 -0.79825
vn -0.69765 -0.49172 -0.52105
vn -0.83775 -0.04897 -0.54385
vn -0.50413 -0.08460 -0.85947
vn 0.18524 -0.59899 -0.77904
vn 0.34413 -0.38175 -0.85781
vn 0.64499 -0.53572 -0.54497
vn 0.27011 -0.82141 -0.50231
vn -0.14975 -0.53449 -0.83181
vn -0.06784 -0.23971 -0.96847
vn -0.01361 -0.06091 -0.99805
vn 0.44977 -0.13850 -0.88234
vn -0.47158 0.06474 -0.87944
vn -0.46641 0.12154 -0.87618
vn 0.00899 0.02237 -0.99971
vn -0.80095 0.14171 -0.58172
vn -0.77699 0.22166 -0.58920
vn -0.77653 0.25185 -0.57756
vn -0.47984 0.14769 -0.86483
vn -0.90812 0.15203 -0.39014
vn -0.87245 0.25525 -0.41675
vn -0.86110 0.29323 -0.41536
vn -0.86859 0.29334 -0.39938
vn -0.78637 0.25911 -0.56079
vn -0.87425 0.30003 -0.38168
vn -0.88094 0.30390 -0.36275
vn -0.80724 0.27115 -0.52425
vn -0.79471 0.26850 -0.54437
vn -0.52477 0.18419 -0.83108
vn -0.50665 0.18090 -0.84296
vn -0.49198 0.17055 -0.85374
vn 0.01693 0.07393 -0.99712
vn 0.02054 0.07076 -0.99728
vn 0.01750 0.05256 -0.99846
vn 0.52886 0.00523 -0.84869
vn 0.51424 0.01092 -0.85757
vn 0.49213 -0.01316 -0.87042
vn 0.82086 0.00183 -0.57112
vn 0.82045 -0.02060 -0.57134
vn 0.79887 -0.18582 -0.57208
vn 0.92149 -0.02862 -0.38734
vn 0.97438 -0.22493 -0.00005
vn 0.76795 -0.64051 0.00069
vn 0.30227 -0.95322 0.00156
vn -0.26297 -0.96480 0.00075
vn -0.22849 -0.83791 -0.49567
vn -0.80157 -0.59790 -0.00115
vn -0.99568 -0.09283 -0.00286
vn -0.94616 0.32371 -0.00003
vn -0.94557 0.32542 -0.00002
vn -0.83298 0.27911 -0.47775
vn -0.82074 0.27381 -0.50142
vn -0.55861 0.19298 -0.80667
vn -0.54054 0.19011 -0.81956
vn -0.33475 0.13150 -0.93309
vn 0.01937 0.07848 -0.99673
vn 0.01730 0.07784 -0.99682
vn 0.57382 -0.00650 -0.81896
vn 0.55897 0.00057 -0.82919
vn 0.54330 0.00174 -0.83954
vn 0.84770 -0.01715 -0.53020
vn 0.83699 -0.01005 -0.54713
vn 0.82662 -0.00660 -0.56273
vn 0.92007 -0.00611 -0.39171
vn 0.91434 -0.00314 -0.40493
vn 0.91315 -0.00209 -0.40761
vn -0.94417 0.32947 0.00000
vn -0.94427 0.32918 0.00002
vn -0.85374 0.29214 -0.43103
vn -0.84359 0.28766 -0.45344
vn -0.59184 0.21353 -0.77726
vn -0.57642 0.20363 -0.79138
vn -0.35950 0.15002 -0.92101
vn -0.34892 0.13984 -0.92666
vn 0.39082 0.00845 -0.92043
vn 0.40056 0.00873 -0.91623
vn 0.63063 -0.01174 -0.77600
vn 0.61444 -0.00895 -0.78891
vn 0.59341 -0.00765 -0.80486
vn 0.37256 0.00844 -0.92797
vn 0.88500 -0.02021 -0.46515
vn 0.87211 -0.01811 -0.48898
vn 0.85913 -0.02317 -0.51123
vn 0.99991 -0.01322 0.00000
vn 0.93531 -0.01872 -0.35333
vn 0.92721 -0.01541 -0.37424
vn 0.99989 -0.01460 -0.00002
vn -0.94397 0.33003 0.00001
vn -0.94318 0.33229 0.00003
vn -0.87279 0.29913 -0.38568
vn -0.86371 0.29443 -0.40904
vn -0.62355 0.21690 -0.75109
vn -0.60773 0.21321 -0.76499
vn -0.38183 0.14571 -0.91267
vn -0.37096 0.14605 -0.91709
vn 0.40546 0.00642 -0.91409
vn 0.40919 0.00481 -0.91244
vn 0.65666 -0.01253 -0.75408
vn 0.64423 -0.01223 -0.76473
vn 0.92062 -0.02232 -0.38983
vn 0.91013 -0.02297 -0.41368
vn 0.89792 -0.02425 -0.43950
vn 0.99987 -0.01605 -0.00002
vn 0.99985 -0.01721 -0.00001
vn 0.99988 -0.01561 -0.00005
vn -0.94493 0.32727 0.00001
vn -0.94558 0.32538 0.00008
vn -0.89509 0.29879 -0.33096
vn -0.88372 0.29754 -0.36127
vn -0.66216 0.23571 -0.71133
vn -0.64033 0.22347 -0.73487
vn -0.41269 0.17531 -0.89384
vn -0.39276 0.15607 -0.90630
vn 0.41153 0.01187 -0.91132
vn 0.42713 0.02672 -0.90380
vn 0.69105 -0.00280 -0.72280
vn 0.66939 -0.00931 -0.74286
vn 0.94243 -0.02393 -0.33353
vn 0.93078 -0.02258 -0.36489
vn 0.99988 -0.01556 -0.00003
vn 0.99988 -0.01542 -0.00002
vn 0.95488 -0.02616 -0.29584
vn 0.99984 -0.01767 -0.00007
vn 0.96344 0.00127 -0.26791
vn 0.99999 0.00371 -0.00008
vn 0.72603 0.00194 -0.68766
vn 0.75362 0.02736 -0.65674
vn 0.73316 0.14032 -0.66542
vn 0.94880 0.16852 -0.26717
vn 0.46953 0.03810 -0.88209
vn 0.51254 0.05333 -0.85701
vn 0.49858 0.10792 -0.86010
vn 0.37270 0.25313 -0.89276
vn 0.56843 0.41370 -0.71115
vn -0.66583 -0.07268 -0.74256
vn -0.57180 0.15518 -0.80558
vn -0.76348 0.18276 -0.61944
vn -0.81564 -0.08016 -0.57298
vn -0.65442 -0.51105 -0.55728
vn -0.54803 -0.43938 -0.71176
vn -0.17258 -0.80516 -0.56739
vn -0.14511 -0.67356 -0.72475
vn -0.96757 -0.07619 -0.24084
vn -0.77348 -0.58634 -0.24069
vn -0.19406 -0.94944 -0.24678
vn 0.37618 -0.88665 -0.26898
vn 0.29426 -0.74381 -0.60013
vn -0.53481 -0.84497 0.00001
vn 0.17824 -0.98399 -0.00058
vn 0.41434 -0.91012 0.00029
vn 0.68366 -0.72980 0.00000
vn 0.61783 -0.70960 -0.33876
vn 0.73965 -0.67300 -0.00054
vn 0.75174 -0.65946 0.00003
vn 0.64900 -0.59207 -0.47776
vn 0.65179 -0.62965 -0.42274
vn 0.43898 -0.41363 -0.79763
vn 0.47754 -0.46230 -0.74715
vn 0.47662 -0.56479 -0.67367
vn 0.21255 0.03514 -0.97652
vn 0.36581 -0.39749 -0.84154
vn 0.23770 -0.58829 -0.77292
vn 0.06835 0.46829 -0.88093
vn 0.04957 0.43356 -0.89976
vn -0.00698 0.67817 -0.73487
vn 0.03112 0.71470 -0.69874
vn 0.24218 0.66027 -0.71091
vn 0.17927 0.41218 -0.89329
vn -0.00314 0.95105 -0.30903
vn 0.29838 0.90779 -0.29477
vn 0.76111 0.58037 -0.28962
vn 0.30920 0.95100 0.00019
vn 0.79228 0.61015 0.00013
vn 0.98457 0.17498 0.00002
vn -0.94757 0.31956 0.00001
vn -0.97321 0.22991 0.00001
vn -0.94105 0.21450 -0.26155
vn -0.90773 0.29884 -0.29447
vn -0.69724 0.25115 -0.67140
vn -0.46450 0.20143 -0.86236
vn -0.99768 -0.06806 0.00003
vn -0.96040 -0.27863 -0.00013
vn 0.66749 -0.74462 0.00069
vn 0.29876 -0.95433 -0.00006
vn 0.56974 -0.64219 -0.51282
vn 0.34510 -0.41464 -0.84201
vn 0.07213 -0.02593 -0.99706
vn 0.16237 0.01264 -0.98665
vn -0.08023 0.46583 -0.88123
vn -0.03537 0.54309 -0.83893
vn -0.01024 0.61254 -0.79038
vn -0.07361 0.86657 -0.49360
vn -0.05878 0.90016 -0.43158
vn -0.05182 0.93052 -0.36256
vn -0.04618 0.99893 -0.00035
vn -0.04012 0.99919 -0.00026
vn 0.00252 1.00000 0.00008
vn -0.54641 0.83751 0.00302
vn -0.20057 0.91135 -0.35946
vn -0.21415 0.78029 -0.58761
vn -0.86096 0.50867 0.00231
vn -0.99875 0.05008 -0.00016
vn -0.86162 -0.50755 0.00037
vn -0.33169 -0.94339 -0.00085
vn -0.05754 0.93382 -0.35309
vn -0.08300 0.83223 -0.54818
vn -0.20621 0.36848 -0.90648
vn -0.05764 0.99834 -0.00002
vn -0.83945 0.10645 0.53291
vn -0.48652 0.23628 0.84111
vn -0.51745 0.64914 0.55755
vn -0.78008 0.45763 0.42668
vn -0.26544 -0.80142 0.53597
vn 0.26756 -0.80587 0.52819
vn 0.13299 -0.48254 0.86572
vn -0.15529 -0.53385 0.83120
vn -0.37698 -0.22172 0.89929
vn -0.71984 -0.41407 0.55711
vn -0.08145 -0.08747 0.99283
vn -0.50122 -0.09227 0.86039
vn -0.83531 -0.05425 0.54709
vn -0.69130 -0.49628 0.52517
vn -0.48581 -0.35559 0.79846
vn 0.26469 -0.81978 0.50785
vn 0.64128 -0.53570 0.54935
vn 0.34262 -0.38622 0.85641
vn 0.18254 -0.60214 0.77725
vn -0.06850 -0.24798 0.96634
vn -0.14984 -0.53987 0.82830
vn 0.45046 -0.13837 0.88201
vn -0.01357 -0.06109 0.99804
vn -0.47186 0.06513 0.87927
vn 0.00892 0.02306 0.99969
vn -0.46630 0.12236 0.87612
vn -0.80187 0.14287 0.58017
vn -0.77702 0.22218 0.58896
vn -0.47958 0.14855 0.86483
vn -0.77626 0.25251 0.57762
vn -0.87267 0.25547 0.41616
vn -0.90911 0.15359 0.38721
vn -0.86103 0.29340 0.41538
vn -0.78633 0.25917 0.56081
vn -0.86857 0.29334 0.39942
vn -0.79466 0.26867 0.54437
vn -0.80725 0.27117 0.52423
vn -0.88097 0.30385 0.36272
vn -0.87422 0.30012 0.38167
vn -0.50654 0.18141 0.84291
vn -0.52473 0.18432 0.83107
vn -0.49193 0.17080 0.85372
vn 0.02053 0.07084 0.99728
vn 0.01700 0.07452 0.99707
vn 0.01742 0.05309 0.99844
vn 0.51420 0.01098 0.85760
vn 0.52883 0.00528 0.84871
vn 0.49185 -0.01284 0.87058
vn 0.81994 -0.02048 0.57209
vn 0.82084 0.00176 0.57115
vn 0.79933 -0.18533 0.57160
vn 0.92102 -0.02850 0.38848
vn -0.22818 -0.83638 0.49840
vn -0.82076 0.27379 0.50140
vn -0.83299 0.27910 0.47774
vn -0.54050 0.19022 0.81956
vn -0.55861 0.19296 0.80667
vn 0.01937 0.07837 0.99674
vn -0.33476 0.13151 0.93308
vn 0.01734 0.07812 0.99679
vn 0.55896 0.00048 0.82919
vn 0.57378 -0.00658 0.81898
vn 0.54330 0.00205 0.83953
vn 0.83699 -0.01016 0.54713
vn 0.84767 -0.01735 0.53024
vn 0.82662 -0.00651 0.56272
vn 0.91434 -0.00327 0.40493
vn 0.92007 -0.00654 0.39169
vn 0.91310 -0.00187 0.40774
vn -0.84363 0.28760 0.45340
vn -0.85373 0.29219 0.43101
vn -0.57647 0.20366 0.79133
vn -0.59183 0.21371 0.77722
vn -0.34896 0.13989 0.92664
vn -0.35948 0.15018 0.92099
vn 0.61438 -0.00926 0.78896
vn 0.63063 -0.01172 0.77599
vn 0.40053 0.00866 0.91624
vn 0.39080 0.00872 0.92043
vn 0.37253 0.00853 0.92798
vn 0.59339 -0.00761 0.80488
vn 0.87210 -0.01814 0.48899
vn 0.88498 -0.02039 0.46518
vn 0.85912 -0.02299 0.51125
vn 0.93530 -0.01862 0.35337
vn 0.92719 -0.01528 0.37428
vn -0.86371 0.29447 0.40902
vn -0.87277 0.29919 0.38569
vn -0.60770 0.21341 0.76495
vn -0.62354 0.21700 0.75107
vn -0.37091 0.14626 0.91708
vn -0.38181 0.14580 0.91267
vn 0.64424 -0.01223 0.76473
vn 0.65665 -0.01270 0.75408
vn 0.40915 0.00445 0.91246
vn 0.40544 0.00626 0.91410
vn 0.91015 -0.02294 0.41365
vn 0.92064 -0.02217 0.38977
vn 0.89793 -0.02416 0.43947
vn -0.88368 0.29774 0.36120
vn -0.89517 0.29848 0.33104
vn -0.64036 0.22372 0.73477
vn -0.66224 0.23536 0.71137
vn -0.39279 0.15626 0.90626
vn -0.41270 0.17504 0.89389
vn 0.66934 -0.00955 0.74289
vn 0.69093 -0.00360 0.72291
vn 0.42707 0.02724 0.90381
vn 0.41149 0.01161 0.91134
vn 0.93077 -0.02272 0.36491
vn 0.94238 -0.02491 0.33360
vn 0.95487 -0.02629 0.29587
vn 0.96338 0.00194 0.26815
vn 0.72607 0.00163 0.68762
vn 0.75354 0.02771 0.65682
vn 0.94860 0.16845 0.26793
vn 0.73137 0.13978 0.66751
vn 0.51295 0.05235 0.85682
vn 0.46980 0.03780 0.88196
vn 0.49517 0.10679 0.86221
vn 0.56674 0.41339 0.71268
vn 0.37008 0.25333 0.89379
vn -0.81638 -0.07916 0.57206
vn -0.76482 0.18463 0.61722
vn -0.57486 0.15709 0.80303
vn -0.66611 -0.07170 0.74240
vn -0.54535 -0.43792 0.71471
vn -0.65381 -0.51095 0.55809
vn -0.14478 -0.66825 0.72972
vn -0.17342 -0.80266 0.57066
vn -0.77374 -0.58651 0.23944
vn -0.96784 -0.07604 0.23980
vn -0.19434 -0.94934 0.24695
vn 0.29281 -0.74234 0.60265
vn 0.37109 -0.88795 0.27172
vn 0.61677 -0.71042 0.33896
vn 0.65342 -0.62872 0.42161
vn 0.64804 -0.59214 0.47898
vn 0.47591 -0.46291 0.74782
vn 0.43916 -0.41253 0.79810
vn 0.47702 -0.56584 0.67251
vn 0.36715 -0.40026 0.83964
vn 0.20952 0.03390 0.97722
vn 0.24218 -0.58559 0.77359
vn 0.03392 0.71354 0.69979
vn -0.00507 0.67793 0.73511
vn 0.05460 0.43358 0.89946
vn 0.07117 0.46501 0.88244
vn 0.18093 0.41067 0.89365
vn 0.24285 0.65952 0.71138
vn 0.29829 0.90771 0.29510
vn -0.00233 0.95108 0.30894
vn 0.76099 0.57998 0.29074
vn -0.90773 0.29891 0.29441
vn -0.94100 0.21543 0.26097
vn -0.69764 0.25138 0.67090
vn -0.46529 0.20220 0.86176
vn 0.57064 -0.64208 0.51197
vn 0.34869 -0.41499 0.84036
vn 0.07700 -0.02460 0.99673
vn 0.16357 0.01316 0.98644
vn -0.03269 0.54479 0.83793
vn -0.07424 0.46818 0.88051
vn -0.01088 0.61283 0.79014
vn -0.05783 0.90066 0.43066
vn -0.07049 0.86773 0.49201
vn -0.05228 0.93044 0.36270
vn -0.21087 0.78044 0.58860
vn -0.20056 0.91123 0.35977
vn -0.07992 0.83303 0.54743
vn -0.05835 0.93364 0.35342
vn -0.20240 0.36842 0.90736
f 3//1 4//2 5//3 6//4
f 1//5 7//6 8//7 9//8
f 1//5 9//8 10//9 11//10
f 1//5 11//10 12//11 7//6
f 13//12 14//13 15//14 16//15
f 2//16 17//17 18//18 19//19
f 2//16 20//20 21//21 17//17
f 21//21 22//22 23//23 17//17
f 21//21 20//20 13//12 16//15
f 21//21 16//15 24//24 22//22
f 24//24 25//25 26//26 22//22
f 24//24 16//15 15//14 27//27
f 24//24 27//27 28//28 25//25
f 28//28 29//29 30//30 25//25
f 28//28 27//27 173//31 174//32
f 28//28 174//32 31//33 29//29
f 31//33 32//34 33//35 29//29
f 34//36 35//37 36//38 37//39
f 34//36 37//39 33//35 32//34
f 37//39 36//38 38//40 39//41
f 37//39 39//41 40//42 33//35
f 40//42 39//41 41//43 42//44
f 40//42 42//44 43//45 30//30
f 40//42 30//30 29//29 33//35
f 43//45 42//44 44//46 45//47
f 43//45 45//47 46//48 26//26
f 43//45 26//26 25//25 30//30
f 46//48 45//47 47//49 48//50
f 46//48 48//50 49//51 23//23
f 46//48 23//23 22//22 26//26
f 49//51 48//50 175//52 176//53
f 49//51 176//53 50//54 18//18
f 49//51 18//18 17//17 23//23
f 50//54 51//55 19//19 18//18
f 51//55 177//56 52//57 19//19
f 52//57 20//20 2//16 19//19
f 52//57 177//56 178//58 14//13
f 52//57 14//13 13//12 20//20
f 178//58 179//59 15//14 14//13
f 179//59 173//31 27//27 15//14
f 181//60 180//61 53//62 54//63
f 181//60 54//63 36//38 35//37
f 54//63 53//62 55//64 56//65
f 54//63 56//65 38//40 36//38
f 56//65 55//64 57//66 58//67
f 56//65 58//67 59//68 38//40
f 59//68 58//67 60//69 61//70
f 59//68 61//70 62//71 41//43
f 59//68 41//43 39//41 38//40
f 62//71 61//70 63//72 64//73
f 62//71 64//73 65//74 44//46
f 62//71 44//46 42//44 41//43
f 65//74 64//73 182//75 66//76
f 65//74 66//76 183//77 47//49
f 65//74 47//49 45//47 44//46
f 183//77 175//52 48//50 47//49
f 68//78 185//79 69//80 70//81
f 68//78 70//81 53//62 180//61
f 70//81 69//80 71//82 72//83
f 70//81 72//83 55//64 53//62
f 72//83 71//82 73//84 74//85
f 72//83 74//85 57//66 55//64
f 74//86 73//87 75//88 76//89
f 74//86 76//89 77//90 57//91
f 77//90 76//89 78//92 79//93
f 77//90 79//93 80//94 60//69
f 77//90 60//69 58//67 57//91
f 80//94 79//93 186//95 67//96
f 80//94 67//96 184//97 63//72
f 80//94 63//72 61//70 60//69
f 186//95 79//93 78//92 187//98
f 188//99 82//100 83//101 84//102
f 188//99 84//102 69//80 185//79
f 84//102 83//101 85//103 86//104
f 84//102 86//104 71//82 69//80
f 86//104 85//103 87//105 88//106
f 86//104 88//106 73//84 71//82
f 88//107 87//108 89//109 90//110
f 88//107 90//110 75//88 73//87
f 90//110 89//109 91//111 92//112
f 90//110 92//112 93//113 75//88
f 93//113 92//112 189//114 81//115
f 93//113 81//115 187//98 78//92
f 93//113 78//92 76//89 75//88
f 189//114 92//112 91//111 190//116
f 95//117 191//118 96//119 97//120
f 95//117 97//120 83//101 82//100
f 97//120 96//119 98//121 99//122
f 97//120 99//122 85//103 83//101
f 99//122 98//121 100//123 101//124
f 99//122 101//124 87//105 85//103
f 101//125 100//126 102//127 103//128
f 101//125 103//128 89//109 87//108
f 103//128 102//127 104//129 105//130
f 103//128 105//130 91//111 89//109
f 105//130 104//129 106//131 94//132
f 105//130 94//132 190//116 91//111
f 106//131 104//129 108//133 107//134
f 108//133 109//135 110//136 107//134
f 108//133 104//129 102//127 111//137
f 108//133 111//137 112//138 109//135
f 112//138 113//139 114//140 109//135
f 112//138 111//137 115//141 116//142
f 112//138 116//142 117//143 113//139
f 117//143 118//144 119//145 113//139
f 117//146 116//147 120//148 121//149
f 117//146 121//149 122//150 118//151
f 122//150 123//152 124//153 118//151
f 122//150 121//149 125//154 126//155
f 122//150 126//155 127//156 123//152
f 127//156 128//157 129//158 123//152
f 127//156 126//155 192//159 130//159
f 127//156 130//160 193//161 128//157
f 193//161 131//162 132//163 128//157
f 133//164 134//165 135//166 136//167
f 133//164 136//167 132//163 131//162
f 136//167 135//166 137//168 138//169
f 136//167 138//169 139//170 132//163
f 139//170 138//169 140//171 141//172
f 139//170 141//172 142//173 129//158
f 139//170 129//158 128//157 132//163
f 142//174 141//175 143//176 144//177
f 142//174 144//177 145//178 124//179
f 142//173 124//153 123//152 129//158
f 145//178 144//177 146//180 147//181
f 145//178 147//181 148//182 119//145
f 145//178 119//145 118//144 124//179
f 148//182 147//181 194//183 195//184
f 148//182 195//184 149//185 114//140
f 148//182 114//140 113//139 119//145
f 149//185 110//136 109//135 114//140
f 197//186 196//187 150//188 151//189
f 197//186 151//189 96//119 191//118
f 151//189 150//188 120//148 152//190
f 151//189 152//190 98//121 96//119
f 152//190 120//148 116//147 115//191
f 152//190 115//191 100//123 98//121
f 150//188 125//154 121//149 120//148
f 150//188 196//187 198//192 125//154
f 198//192 192//193 126//155 125//154
f 153//194 199//195 8//7 154//196
f 153//194 154//196 135//166 134//165
f 154//196 8//7 7//6 155//197
f 154//196 155//197 137//168 135//166
f 155//197 7//6 12//11 156//198
f 155//197 156//198 157//199 137//168
f 157//199 156//198 158//200 159//201
f 157//199 159//201 160//202 140//171
f 157//199 140//171 138//169 137//168
f 160//202 159//201 161//203 162//204
f 160//202 162//204 163//205 143//176
f 160//202 143//176 141//175 140//171
f 163//205 162//204 200//206 164//207
f 163//205 164//207 201//208 146//180
f 163//205 146//180 144//177 143//176
f 201//208 194//183 147//181 146//180
f 166//209 202//210 167//211 4//2
f 166//209 4//2 3//1 168//212
f 168//212 3//1 6//4 169//213
f 169//213 6//4 10//9 170//214
f 170//214 10//9 9//8 203//215
f 203//215 9//8 8//7 199//195
f 167//211 202//210 165//216 171//217
f 167//211 171//217 158//200 172//218
f 167//211 172//218 5//3 4//2
f 172//218 158//200 156//198 12//11
f 172//218 12//11 11//10 5//3
f 171//217 165//216 204//219 161//203
f 171//217 161//203 159//201 158//200
f 204//219 200//206 162//204 161//203
f 115//141 111//137 102//127 100//126
f 184//97 182//75 64//73 63//72
f 11//10 10//9 6//4 5//3
f 210//220 209//221 208//222 207//223
f 213//224 212//225 211//226 205//227
f 215//228 214//229 213//224 205//227
f 211//226 216//230 215//228 205//227
f 220//231 219//232 218//233 217//234
f 223//235 222//236 221//237 206//238
f 221//237 225//239 224//240 206//238
f 221//237 227//241 226//242 225//239
f 220//231 217//234 224//240 225//239
f 226//242 228//243 220//231 225//239
f 226//242 230//244 229//245 228//243
f 231//246 219//232 220//231 228//243
f 229//245 232//247 231//246 228//243
f 229//245 234//248 233//249 232//247
f 174//250 173//251 231//246 232//247
f 233//249 31//252 174//250 232//247
f 233//249 235//253 32//254 31//252
f 237//255 236//256 35//257 34//258
f 32//254 235//253 237//255 34//258
f 239//259 238//260 236//256 237//255
f 235//253 240//261 239//259 237//255
f 242//262 241//263 239//259 240//261
f 234//248 243//264 242//262 240//261
f 235//253 233//249 234//248 240//261
f 245//265 244//266 242//262 243//264
f 230//244 246//267 245//265 243//264
f 234//248 229//245 230//244 243//264
f 248//268 247//269 245//265 246//267
f 227//241 249//270 248//268 246//267
f 230//244 226//242 227//241 246//267
f 176//53 175//271 248//268 249//270
f 222//236 50//54 176//53 249//270
f 227//241 221//237 222//236 249//270
f 222//236 223//235 51//55 50//54
f 223//235 250//272 177//56 51//55
f 223//235 206//238 224//240 250//272
f 218//233 178//58 177//56 250//272
f 224//240 217//234 218//233 250//272
f 218//233 219//232 179//59 178//58
f 219//232 231//246 173//251 179//59
f 252//273 251//274 180//61 181//60
f 35//257 236//256 252//273 181//60
f 254//275 253//276 251//274 252//273
f 236//256 238//260 254//275 252//273
f 256//277 255//278 253//276 254//275
f 238//260 257//279 256//277 254//275
f 259//280 258//281 256//277 257//279
f 241//263 260//282 259//280 257//279
f 238//260 239//259 241//263 257//279
f 262//283 261//284 259//280 260//282
f 244//266 263//285 262//283 260//282
f 241//263 242//262 244//266 260//282
f 66//286 182//287 262//283 263//285
f 247//269 183//288 66//286 263//285
f 244//266 245//265 247//269 263//285
f 247//269 248//268 175//271 183//288
f 265//289 264//290 185//79 68//78
f 180//61 251//274 265//289 68//78
f 267//291 266//292 264//290 265//289
f 251//274 253//276 267//291 265//289
f 269//293 268//294 266//292 267//291
f 253//276 255//278 269//293 267//291
f 271//295 270//296 268//297 269//298
f 255//299 272//300 271//295 269//298
f 274//301 273//302 271//295 272//300
f 258//281 275//303 274//301 272//300
f 255//299 256//277 258//281 272//300
f 67//304 186//95 274//301 275//303
f 261//284 184//305 67//304 275//303
f 258//281 259//280 261//284 275//303
f 187//98 273//302 274//301 186//95
f 277//306 276//307 82//100 188//99
f 185//79 264//290 277//306 188//99
f 279//308 278//309 276//307 277//306
f 264//290 266//292 279//308 277//306
f 281//310 280//311 278//309 279//308
f 266//292 268//294 281//310 279//308
f 283//312 282//313 280//314 281//315
f 268//297 270//296 283//312 281//315
f 285//316 284//317 282//313 283//312
f 270//296 286//318 285//316 283//312
f 81//115 189//114 285//316 286//318
f 273//302 187//98 81//115 286//318
f 270//296 271//295 273//302 286//318
f 190//116 284//317 285//316 189//114
f 288//319 287//320 191//118 95//117
f 82//100 276//307 288//319 95//117
f 290//321 289//322 287//320 288//319
f 276//307 278//309 290//321 288//319
f 292//323 291//324 289//322 290//321
f 278//309 280//311 292//323 290//321
f 294//325 293//326 291//327 292//328
f 280//314 282//313 294//325 292//328
f 296//329 295//330 293//326 294//325
f 282//313 284//317 296//329 294//325
f 94//132 106//131 295//330 296//329
f 284//317 190//116 94//132 296//329
f 107//134 297//331 295//330 106//131
f 107//134 110//136 298//332 297//331
f 299//333 293//326 295//330 297//331
f 298//332 300//334 299//333 297//331
f 298//332 302//335 301//336 300//334
f 304//337 303//338 299//333 300//334
f 301//336 305//339 304//337 300//334
f 301//336 307//340 306//341 305//339
f 309//342 308//343 304//344 305//345
f 306//346 310//347 309//342 305//345
f 306//346 312//348 311//349 310//347
f 314//350 313//351 309//342 310//347
f 311//349 315//352 314//350 310//347
f 311//349 317//353 316//354 315//352
f 130//159 192//159 314//350 315//352
f 316//354 193//161 130//160 315//352
f 316//354 318//355 131//162 193//161
f 320//356 319//357 134//165 133//164
f 131//162 318//355 320//356 133//164
f 322//358 321//359 319//357 320//356
f 318//355 323//360 322//358 320//356
f 325//361 324//362 322//358 323//360
f 317//353 326//363 325//361 323//360
f 318//355 316//354 317//353 323//360
f 328//364 327//365 325//366 326//367
f 312//368 329//369 328//364 326//367
f 317//353 311//349 312//348 326//363
f 331//370 330//371 328//364 329//369
f 307//340 332//372 331//370 329//369
f 312//368 306//341 307//340 329//369
f 195//184 194//183 331//370 332//372
f 302//335 149//185 195//184 332//372
f 307//340 301//336 302//335 332//372
f 302//335 298//332 110//136 149//185
f 334//373 333//374 196//187 197//186
f 191//118 287//320 334//373 197//186
f 335//375 308//343 333//374 334//373
f 287//320 289//322 335//375 334//373
f 303//376 304//344 308//343 335//375
f 289//322 291//324 303//376 335//375
f 308//343 309//342 313//351 333//374
f 313//351 198//192 196//187 333//374
f 313//351 314//350 192//193 198//192
f 336//377 212//225 199//195 153//194
f 134//165 319//357 336//377 153//194
f 337//378 211//226 212//225 336//377
f 319//357 321//359 337//378 336//377
f 338//379 216//230 211//226 337//378
f 321//359 339//380 338//379 337//378
f 341//381 340//382 338//379 339//380
f 324//362 342//383 341//381 339//380
f 321//359 322//358 324//362 339//380
f 344//384 343//385 341//381 342//383
f 327//365 345//386 344//384 342//383
f 324//362 325//366 327//365 342//383
f 164//207 200//206 344//384 345//386
f 330//371 201//208 164//207 345//386
f 327//365 328//364 330//371 345//386
f 330//371 331//370 194//183 201//208
f 208//222 346//387 202//388 166//209
f 168//212 207//223 208//222 166//209
f 169//213 210//220 207//223 168//212
f 170//214 214//229 210//220 169//213
f 203//215 213//224 214//229 170//214
f 199//195 212//225 213//224 203//215
f 347//389 165//390 202//388 346//387
f 348//391 340//382 347//389 346//387
f 208//222 209//221 348//391 346//387
f 216//230 338//379 340//382 348//391
f 209//221 215//228 216//230 348//391
f 343//385 204//219 165//390 347//389
f 340//382 341//381 343//385 347//389
f 343//385 344//384 200//206 204//219
f 291//327 293//326 299//333 303//338
f 261//284 262//283 182//287 184//305
f 209//221 210//220 214//229 215//228
