# pilowlava3D glyph '2' variant 1 — Vincent Wagner / Velvetyne, Free Art License
v 3.78497 1.78722 -0.21135
v 3.35518 1.56500 -0.18268
v 0.16897 3.01674 -0.33975
v 0.29891 2.88181 -0.33436
v 3.97126 1.60083 0.00000
v 3.90308 1.59475 -0.25467
v 3.71706 1.56579 -0.36765
v 3.61341 1.79109 -0.26059
v 3.32856 1.57647 0.00000
v 3.40778 1.36301 0.00000
v 3.45098 1.39401 -0.22012
v 3.42331 1.69430 -0.25488
v 3.55826 1.48732 -0.35716
v 0.05616 3.01437 -0.23341
v 0.10481 3.30042 -0.24231
v 0.24505 3.16438 -0.40335
v 0.29512 2.77108 -0.23012
v 0.43944 2.96218 -0.39457
v 0.56315 2.82236 -0.23326
v 0.61080 3.12849 -0.44090
v 0.75623 2.98075 -0.25104
v 0.59607 2.76026 0.00000
v 0.26635 2.71477 0.00000
v 0.27697 3.50527 -0.25891
v 0.41510 3.75460 0.00000
v 0.47430 3.67911 -0.26297
v 0.60862 3.51115 -0.45189
v 0.41617 3.34166 -0.44692
v 0.78822 3.29928 -0.44888
v 0.80882 3.67029 -0.44660
v 0.97309 3.45686 -0.44323
v 1.10147 3.30278 -0.25537
v 0.92780 3.14443 -0.25748
v 0.63680 3.91521 0.00000
v 1.69024 3.70317 0.00000
v 1.86475 3.85791 0.00000
v 1.46335 3.60764 -0.24096
v 1.64766 3.75678 -0.23409
v 1.83176 3.90407 -0.22508
v 1.56192 3.88841 -0.39808
v 1.76858 4.01696 -0.37583
v 1.99012 4.12963 -0.34327
v 2.01960 4.03537 -0.20010
v 2.03158 3.99653 0.00000
v 2.23011 4.11721 -0.16998
v 2.23108 4.09429 0.00000
v 1.36851 4.26267 0.00000
v 1.11614 4.16587 0.00000
v 0.87386 4.04864 0.00000
v 1.15164 4.09469 -0.24505
v 0.91799 3.97141 -0.25067
v 0.68746 3.83874 -0.26049
v 1.02175 3.81149 -0.43329
v 1.24072 3.94116 -0.41956
v 1.36280 3.74993 -0.41745
v 1.16640 3.60524 -0.43298
v 1.28169 3.45479 -0.25036
v 1.46813 4.05651 -0.39922
v 1.39538 4.19897 -0.23706
v 1.64784 4.28194 -0.22814
v 1.70049 4.15753 -0.37787
v 1.91041 4.35161 -0.21336
v 1.94846 4.24612 -0.34837
v 2.18116 4.38835 -0.18542
v 2.20140 4.30143 -0.31782
v 2.22038 4.19227 -0.31073
v 2.45742 4.32020 -0.29809
v 2.45911 4.21190 -0.28708
v 2.45815 4.14945 -0.15428
v 2.69817 4.19681 -0.28077
v 2.69015 4.14060 -0.15153
v 2.45658 4.13385 0.00000
v 2.17291 4.41927 0.00000
v 1.89494 4.39453 0.00000
v 1.63016 4.33766 0.00000
v 2.45099 4.41509 0.00000
v 2.45295 4.39099 -0.16599
v 2.72726 4.39542 0.00000
v 2.72389 4.37374 -0.16262
v 2.71383 4.30675 -0.29027
v 2.99448 4.32544 -0.17213
v 2.96739 4.25573 -0.29960
v 2.93214 4.14784 -0.28730
v 3.21715 4.16001 -0.31353
v 3.15323 4.05836 -0.30508
v 3.11540 4.00096 -0.17529
v 2.91420 4.09117 -0.16057
v 3.10028 3.98128 0.00000
v 2.90698 4.07155 0.00000
v 3.00394 4.34638 0.00000
v 3.28677 4.24295 0.00000
v 3.26692 4.22488 -0.19091
v 3.54785 4.04893 0.00000
v 3.51641 4.03395 -0.21224
v 3.43673 3.98867 -0.32993
v 3.67672 3.74298 -0.23034
v 3.56705 3.72935 -0.35864
v 3.42924 3.71653 -0.35295
v 3.33369 3.91723 -0.32353
v 3.31937 3.70251 -0.21669
v 3.26979 3.87190 -0.18967
v 3.72429 3.74910 0.00000
v 3.79849 3.40974 0.00000
v 3.73518 3.41131 -0.24811
v 3.81646 3.07015 0.00000
v 2.58570 3.15032 0.00000
v 2.42420 3.04357 0.00000
v 2.84285 3.10753 -0.33329
v 2.69452 2.99782 -0.33429
v 2.52985 2.90207 -0.32716
v 2.91353 2.69364 -0.55719
v 2.72037 2.60932 -0.54516
v 2.48231 2.55229 -0.51303
v 2.34672 2.80629 -0.30721
v 2.25604 2.92986 0.00000
v 2.14470 2.71005 -0.28416
v 2.07648 2.81261 0.00000
v 3.39387 1.97025 0.00000
v 3.68817 2.32330 0.00000
v 3.80475 2.71461 0.00000
v 3.58919 2.38574 -0.30499
v 3.70588 2.74245 -0.29375
v 3.73142 3.08109 -0.26694
v 3.48101 2.83816 -0.49384
v 3.54683 3.13145 -0.45273
v 3.58647 3.42942 -0.40450
v 3.31722 3.23817 -0.47098
v 3.41353 3.47632 -0.41427
v 3.12773 3.37274 -0.29592
v 3.25734 3.52893 -0.25962
v 2.98690 3.23131 -0.31684
v 3.19973 3.02238 -0.51928
v 3.07142 2.83139 -0.55072
v 3.36275 2.55387 -0.51601
v 3.15787 2.33913 -0.52265
v 3.32599 2.07631 -0.31597
v 2.94762 1.97009 -0.30682
v 2.87603 2.24894 -0.51206
v 2.61255 2.00579 -0.28959
v 2.58055 2.24207 -0.49391
v 2.31955 2.05950 -0.27075
v 2.30044 2.25133 -0.45383
v 2.23842 2.49784 -0.46663
v 2.03575 2.24860 -0.41428
v 1.98931 2.43620 -0.42384
v 1.92658 2.60454 -0.26106
v 1.74566 2.35773 -0.38169
v 1.70019 2.49068 -0.23455
v 1.67354 2.54982 0.00000
v 1.88193 2.68490 0.00000
v 2.06250 2.09290 -0.24725
v 1.82779 2.04800 0.00000
v 1.81733 2.10078 -0.22208
v 1.78696 2.22081 -0.37487
v 1.58440 2.07162 -0.19035
v 1.54675 2.15732 -0.33487
v 1.50526 2.26671 -0.34219
v 1.32143 2.06644 -0.29991
v 1.27465 2.16429 -0.30690
v 1.24536 2.23930 -0.16993
v 1.47130 2.36876 -0.20261
v 1.23744 2.26414 0.00000
v 1.45710 2.40886 0.00000
v 1.59864 2.04088 0.00000
v 1.35566 2.00641 -0.15926
v 1.14366 1.89820 0.00000
v 1.13551 1.91000 -0.14281
v 1.10466 1.95737 -0.27489
v 0.92851 1.78695 -0.14224
v 0.89891 1.82792 -0.26713
v 0.83852 1.91212 -0.27077
v 1.05227 2.04663 -0.28098
v 0.80616 1.95433 -0.14606
v 1.02482 2.10001 -0.14906
v 0.79535 1.96916 0.00000
v 1.01672 2.11750 0.00000
v 0.74540 1.64272 -0.15444
v 0.63275 1.46418 0.00000
v 0.10622 0.49966 0.00000
v 0.41043 0.18279 0.00000
v 0.09095 0.93749 -0.24962
v 0.17074 0.53817 -0.26941
v 0.45823 0.25742 -0.27636
v 0.35339 0.66653 -0.43572
v 0.58283 0.45961 -0.45654
v 0.87076 0.35653 -0.46483
v 0.79616 0.13769 -0.27861
v 0.76675 0.04439 0.00000
v 1.11180 0.10539 -0.27104
v 1.09542 0.00575 0.00000
v 0.59865 1.29358 0.00000
v 0.61177 1.12423 -0.23707
v 0.56402 1.29061 -0.20650
v 0.61488 1.47395 -0.17677
v 0.44191 1.29456 -0.35849
v 0.53687 1.51416 -0.30959
v 0.70485 1.68429 -0.28183
v 0.43240 1.57032 -0.32193
v 0.62888 1.76187 -0.28544
v 0.34918 1.59882 -0.18679
v 0.58092 1.79893 -0.15892
v 0.15976 1.31508 -0.22514
v 0.28957 1.30058 -0.36179
v 0.25168 0.97339 -0.39770
v 0.45939 1.05155 -0.39933
v 0.56879 0.84935 -0.43830
v 0.72210 0.99837 -0.25811
v 0.87549 0.91694 -0.27384
v 0.74502 0.71578 -0.46125
v 1.06233 0.86588 -0.27843
v 0.97113 0.64188 -0.46917
v 1.27310 0.82847 -0.27330
v 1.21180 0.60484 -0.46496
v 1.15102 0.32310 -0.46203
v 1.45656 0.57795 -0.45394
v 1.41744 0.30694 -0.45359
v 1.39454 0.09859 -0.26430
v 1.67482 0.29370 -0.44432
v 1.65800 0.09492 -0.25706
v 1.65372 0.00284 0.00000
v 1.38748 0.00229 0.00000
v 1.10250 0.97688 0.00000
v 0.92730 1.01392 0.00000
v 1.49762 0.79070 -0.26508
v 1.75348 0.85572 0.00000
v 1.73356 0.75743 -0.25770
v 1.70346 0.55621 -0.44544
v 1.97482 0.72303 -0.25193
v 1.95071 0.53197 -0.43350
v 1.92748 0.27946 -0.43249
v 2.19810 0.50556 -0.42389
v 2.17943 0.26368 -0.42471
v 2.16971 0.08252 -0.24503
v 1.91442 0.08846 -0.25132
v 2.16843 0.00086 0.00000
v 1.91210 0.00074 0.00000
v 1.99268 0.81380 0.00000
v 2.21692 0.68549 -0.24551
v 2.46849 0.72608 0.00000
v 2.45736 0.65009 -0.23998
v 2.44415 0.47936 -0.41414
v 2.69426 0.61556 -0.23310
v 2.68747 0.45535 -0.39971
v 2.68524 0.25465 -0.40216
v 2.43197 0.25339 -0.41501
v 2.69129 0.08814 -0.23578
v 2.42747 0.07746 -0.24108
v 2.70167 0.68428 0.00000
v 2.93299 0.64412 0.00000
v 2.92525 0.58354 -0.22770
v 3.14599 0.60954 0.00000
v 3.48215 0.29731 0.00000
v 3.98812 1.03582 0.00000
v 3.70342 0.50502 -0.15407
v 3.87003 0.75070 -0.16059
v 3.95097 1.03507 -0.19528
v 3.81713 0.76502 -0.27576
v 3.86281 1.02740 -0.32677
v 3.81206 1.30322 -0.36674
v 3.95302 1.32333 -0.23645
v 4.01263 1.32762 0.00000
v 3.35960 0.59071 0.00000
v 3.57168 0.64210 -0.13518
v 3.37318 0.56965 -0.16616
v 3.15181 0.56367 -0.21030
v 3.40952 0.50336 -0.30605
v 3.17418 0.45753 -0.35196
v 2.92659 0.44418 -0.38250
v 3.19832 0.32353 -0.35447
v 2.93811 0.27441 -0.38477
v 3.21950 0.20824 -0.21525
v 2.95792 0.13008 -0.23114
v 3.22898 0.16207 0.00000
v 2.97132 0.07241 0.00000
v 3.47412 0.32406 -0.17835
v 3.44776 0.40432 -0.30844
v 3.67037 0.54461 -0.27003
v 3.61212 0.60603 -0.26377
v 3.73784 0.79295 -0.26808
v 3.68543 0.81648 -0.13811
v 3.66892 1.02202 -0.17711
v 3.75988 1.02197 -0.31604
v 3.57678 1.21345 -0.21628
v 3.68411 1.26684 -0.36068
v 3.52699 1.18600 0.00000
v 3.79827 1.81621 0.00000
v 3.58682 1.84831 0.00000
v 3.39780 1.75614 0.00000
v 0.81448 2.91630 0.00000
v 0.00000 2.99816 0.00000
v 0.04389 3.33625 0.00000
v 0.21649 3.57083 0.00000
v 1.16111 3.23492 0.00000
v 0.98867 3.07727 0.00000
v 1.51219 3.54795 0.00000
v 1.33588 3.39010 0.00000
v 2.68702 4.12464 0.00000
v 3.27738 3.70688 0.00000
v 3.24917 3.85517 0.00000
v 2.73885 3.25729 0.00000
v 3.03773 3.46778 0.00000
v 3.18601 3.57951 0.00000
v 2.89212 3.36119 0.00000
v 2.60708 1.89350 0.00000
v 2.96614 1.84476 0.00000
v 2.31147 1.96468 0.00000
v 2.06517 2.01705 0.00000
v 1.36570 1.99046 0.00000
v 0.93819 1.77403 0.00000
v 0.75626 1.63162 0.00000
v 0.02890 0.92805 0.00000
v 0.66209 1.15664 0.00000
v 0.32215 1.60555 0.00000
v 0.56374 1.81008 0.00000
v 0.11466 1.31743 0.00000
v 0.77557 1.06627 0.00000
v 1.30427 0.93824 0.00000
v 1.52275 0.89692 0.00000
v 2.23141 0.76924 0.00000
v 2.69812 0.01878 0.00000
v 2.42920 0.00000 0.00000
v 3.71430 0.49309 0.00000
v 3.88894 0.74571 0.00000
v 3.56376 0.64912 0.00000
v 3.63281 1.02255 0.00000
v 3.67588 0.82253 0.00000
v 3.78497 1.78722 0.21135
v 3.35518 1.56500 0.18268
v 0.16897 3.01674 0.33975
v 0.29891 2.88181 0.33436
v 3.90308 1.59475 0.25467
v 3.71706 1.56579 0.36765
v 3.61341 1.79109 0.26059
v 3.45098 1.39401 0.22012
v 3.42331 1.69430 0.25488
v 3.55826 1.48732 0.35716
v 0.05616 3.01437 0.23341
v 0.10481 3.30042 0.24231
v 0.24505 3.16438 0.40335
v 0.29512 2.77108 0.23012
v 0.43944 2.96218 0.39457
v 0.56315 2.82236 0.23326
v 0.61080 3.12849 0.44090
v 0.75623 2.98075 0.25104
v 0.27697 3.50527 0.25891
v 0.47430 3.67911 0.26297
v 0.60862 3.51115 0.45189
v 0.41617 3.34166 0.44692
v 0.78822 3.29928 0.44888
v 0.80882 3.67029 0.44660
v 0.97309 3.45686 0.44323
v 1.10147 3.30278 0.25537
v 0.92780 3.14443 0.25748
v 1.46335 3.60764 0.24096
v 1.64766 3.75678 0.23409
v 1.83176 3.90407 0.22508
v 1.56192 3.88841 0.39808
v 1.76858 4.01696 0.37583
v 1.99012 4.12963 0.34327
v 2.01960 4.03537 0.20010
v 2.23011 4.11721 0.16998
v 1.15164 4.09469 0.24505
v 0.91799 3.97141 0.25067
v 0.68746 3.83874 0.26049
v 1.02175 3.81149 0.43329
v 1.24072 3.94116 0.41956
v 1.36280 3.74993 0.41745
v 1.16640 3.60524 0.43298
v 1.28169 3.45479 0.25036
v 1.46813 4.05651 0.39922
v 1.39538 4.19897 0.23706
v 1.64784 4.28194 0.22814
v 1.70049 4.15753 0.37787
v 1.91041 4.35161 0.21336
v 1.94846 4.24612 0.34837
v 2.18116 4.38835 0.18542
v 2.20140 4.30143 0.31782
v 2.22038 4.19227 0.31073
v 2.45742 4.32020 0.29809
v 2.45911 4.21190 0.28708
v 2.45815 4.14945 0.15428
v 2.69817 4.19681 0.28077
v 2.69015 4.14060 0.15153
v 2.45295 4.39099 0.16599
v 2.72389 4.37374 0.16262
v 2.71383 4.30675 0.29027
v 2.99448 4.32544 0.17213
v 2.96739 4.25573 0.29960
v 2.93214 4.14784 0.28730
v 3.21715 4.16001 0.31353
v 3.15323 4.05836 0.30508
v 3.11540 4.00096 0.17529
v 2.91420 4.09117 0.16057
v 3.26692 4.22488 0.19091
v 3.51641 4.03395 0.21224
v 3.43673 3.98867 0.32993
v 3.67672 3.74298 0.23034
v 3.56705 3.72935 0.35864
v 3.42924 3.71653 0.35295
v 3.33369 3.91723 0.32353
v 3.31937 3.70251 0.21669
v 3.26979 3.87190 0.18967
v 3.73518 3.41131 0.24811
v 2.84285 3.10753 0.33329
v 2.69452 2.99782 0.33429
v 2.52985 2.90207 0.32716
v 2.91353 2.69364 0.55719
v 2.72037 2.60932 0.54516
v 2.48231 2.55229 0.51303
v 2.34672 2.80629 0.30721
v 2.14470 2.71005 0.28416
v 3.58919 2.38574 0.30499
v 3.70588 2.74245 0.29375
v 3.73142 3.08109 0.26694
v 3.48101 2.83816 0.49384
v 3.54683 3.13145 0.45273
v 3.58647 3.42942 0.40450
v 3.31722 3.23817 0.47098
v 3.41353 3.47632 0.41427
v 3.12773 3.37274 0.29592
v 3.25734 3.52893 0.25962
v 2.98690 3.23131 0.31684
v 3.19973 3.02238 0.51928
v 3.07142 2.83139 0.55072
v 3.36275 2.55387 0.51601
v 3.15787 2.33913 0.52265
v 3.32599 2.07631 0.31597
v 2.94762 1.97009 0.30682
v 2.87603 2.24894 0.51206
v 2.61255 2.00579 0.28959
v 2.58055 2.24207 0.49391
v 2.31955 2.05950 0.27075
v 2.30044 2.25133 0.45383
v 2.23842 2.49784 0.46663
v 2.03575 2.24860 0.41428
v 1.98931 2.43620 0.42384
v 1.92658 2.60454 0.26106
v 1.74566 2.35773 0.38169
v 1.70019 2.49068 0.23455
v 2.06250 2.09290 0.24725
v 1.81733 2.10078 0.22208
v 1.78696 2.22081 0.37487
v 1.58440 2.07162 0.19035
v 1.54675 2.15732 0.33487
v 1.50526 2.26671 0.34219
v 1.32143 2.06644 0.29991
v 1.27465 2.16429 0.30690
v 1.24536 2.23930 0.16993
v 1.47130 2.36876 0.20261
v 1.35566 2.00641 0.15926
v 1.13551 1.91000 0.14281
v 1.10466 1.95737 0.27489
v 0.92851 1.78695 0.14224
v 0.89891 1.82792 0.26713
v 0.83852 1.91212 0.27077
v 1.05227 2.04663 0.28098
v 0.80616 1.95433 0.14606
v 1.02482 2.10001 0.14906
v 0.74540 1.64272 0.15444
v 0.09095 0.93749 0.24962
v 0.17074 0.53817 0.26941
v 0.45823 0.25742 0.27636
v 0.35339 0.66653 0.43572
v 0.58283 0.45961 0.45654
v 0.87076 0.35653 0.46483
v 0.79616 0.13769 0.27861
v 1.11180 0.10539 0.27104
v 0.61177 1.12423 0.23707
v 0.56402 1.29061 0.20650
v 0.61488 1.47395 0.17677
v 0.44191 1.29456 0.35849
v 0.53687 1.51416 0.30959
v 0.70485 1.68429 0.28183
v 0.43240 1.57032 0.32193
v 0.62888 1.76187 0.28544
v 0.34918 1.59882 0.18679
v 0.58092 1.79893 0.15892
v 0.15976 1.31508 0.22514
v 0.28957 1.30058 0.36179
v 0.25168 0.97339 0.39770
v 0.45939 1.05155 0.39933
v 0.56879 0.84935 0.43830
v 0.72210 0.99837 0.25811
v 0.87549 0.91694 0.27384
v 0.74502 0.71578 0.46125
v 1.06233 0.86588 0.27843
v 0.97113 0.64188 0.46917
v 1.27310 0.82847 0.27330
v 1.21180 0.60484 0.46496
v 1.15102 0.32310 0.46203
v 1.45656 0.57795 0.45394
v 1.41744 0.30694 0.45359
v 1.39454 0.09859 0.26430
v 1.67482 0.29370 0.44432
v 1.65800 0.09492 0.25706
v 1.49762 0.79070 0.26508
v 1.73356 0.75743 0.25770
v 1.70346 0.55621 0.44544
v 1.97482 0.72303 0.25193
v 1.95071 0.53197 0.43350
v 1.92748 0.27946 0.43249
v 2.19810 0.50556 0.42389
v 2.17943 0.26368 0.42471
v 2.16971 0.08252 0.24503
v 1.91442 0.08846 0.25132
v 2.21692 0.68549 0.24551
v 2.45736 0.65009 0.23998
v 2.44415 0.47936 0.41414
v 2.69426 0.61556 0.23310
v 2.68747 0.45535 0.39971
v 2.68524 0.25465 0.40216
v 2.43197 0.25339 0.41501
v 2.69129 0.08814 0.23578
v 2.42747 0.07746 0.24108
v 2.92525 0.58354 0.22770
v 3.70342 0.50502 0.15407
v 3.87003 0.75070 0.16059
v 3.95097 1.03507 0.19528
v 3.81713 0.76502 0.27576
v 3.86281 1.02740 0.32677
v 3.81206 1.30322 0.36674
v 3.95302 1.32333 0.23645
v 3.57168 0.64210 0.13518
v 3.37318 0.56965 0.16616
v 3.15181 0.56367 0.21030
v 3.40952 0.50336 0.30605
v 3.17418 0.45753 0.35196
v 2.92659 0.44418 0.38250
v 3.19832 0.32353 0.35447
v 2.93811 0.27441 0.38477
v 3.21950 0.20824 0.21525
v 2.95792 0.13008 0.23114
v 3.47412 0.32406 0.17835
v 3.44776 0.40432 0.30844
v 3.67037 0.54461 0.27003
v 3.61212 0.60603 0.26377
v 3.73784 0.79295 0.26808
v 3.68543 0.81648 0.13811
v 3.66892 1.02202 0.17711
v 3.75988 1.02197 0.31604
v 3.57678 1.21345 0.21628
v 3.68411 1.26684 0.36068
vn 0.32317 0.45174 -0.83156
vn 0.73783 0.36162 -0.56995
vn 0.17462 0.23924 -0.95513
vn 0.05915 0.40631 -0.91182
vn 0.79857 0.57658 -0.17271
vn 0.80749 0.58987 0.00452
vn 0.92252 0.38595 0.00234
vn 0.10485 0.98005 -0.16885
vn -0.17215 0.96132 -0.21502
vn -0.17372 0.98479 0.00164
vn 0.11154 0.99375 0.00306
vn -0.82635 -0.29357 -0.48058
vn -0.78312 -0.39352 -0.48153
vn -0.87316 -0.48743 0.00271
vn -0.91430 -0.40501 0.00521
vn -0.91292 0.37229 -0.16727
vn -0.92722 0.37450 0.00112
vn -0.45962 0.09720 -0.88278
vn -0.41660 -0.06114 -0.90703
vn -0.53348 -0.27184 -0.80094
vn -0.81539 -0.28679 -0.50289
vn -0.78660 0.30812 -0.53509
vn -0.42785 0.00544 -0.90384
vn -0.24917 -0.54315 -0.80181
vn -0.64448 -0.63167 -0.43086
vn 0.03017 -0.44359 -0.89572
vn 0.31719 -0.78551 -0.53138
vn 0.13445 -0.85581 -0.49951
vn 0.18630 -0.32996 -0.92543
vn 0.52652 -0.65097 -0.54682
vn 0.64077 -0.76773 0.00040
vn 0.38919 -0.92116 -0.00116
vn 0.16091 -0.98696 -0.00300
vn -0.72030 -0.69366 0.00119
vn -0.98951 0.14446 -0.00159
vn -0.92157 0.38821 -0.00132
vn -0.73527 0.67777 -0.00042
vn -0.61866 0.55470 -0.55639
vn -0.63282 0.77430 0.00010
vn -0.52543 0.63982 -0.56085
vn -0.42143 0.50966 -0.75009
vn -0.49654 0.42821 -0.75504
vn -0.06211 -0.08613 -0.99435
vn 0.00780 -0.01198 -0.99990
vn 0.03329 0.01354 -0.99935
vn 0.45519 -0.50266 -0.73494
vn 0.45413 -0.51226 -0.72894
vn 0.55763 -0.62615 -0.54496
vn 0.56429 -0.61629 -0.54932
vn 0.66634 -0.74565 -0.00002
vn 0.67824 -0.73484 -0.00000
vn 0.64742 -0.76213 -0.00004
vn 0.65350 -0.75693 0.00002
vn 0.55850 -0.64883 -0.51681
vn 0.55813 -0.66734 -0.49310
vn 0.55506 -0.70074 -0.44818
vn 0.63222 -0.77479 0.00042
vn 0.46378 -0.56585 -0.68170
vn 0.46776 -0.61428 -0.63550
vn 0.40247 -0.72259 -0.56203
vn 0.46443 -0.79810 -0.38385
vn 0.51700 -0.85598 0.00023
vn 0.26413 -0.91072 -0.31754
vn 0.28803 -0.95762 -0.00029
vn -0.46855 0.88344 0.00007
vn -0.40991 0.91213 0.00013
vn -0.35049 0.77596 -0.52444
vn -0.39447 0.74280 -0.54096
vn -0.45054 0.69942 -0.55482
vn -0.54132 0.84082 0.00005
vn -0.32378 0.60888 -0.72418
vn -0.36405 0.56479 -0.74060
vn -0.29082 0.64007 -0.71115
vn 0.04707 0.02533 -0.99857
vn 0.06217 0.03138 -0.99757
vn 0.45694 -0.52587 -0.71740
vn 0.46298 -0.54035 -0.70262
vn 0.55627 -0.63731 -0.53329
vn 0.65879 -0.75233 -0.00001
vn 0.07748 0.03331 -0.99644
vn -0.24284 0.67726 -0.69451
vn -0.28860 0.81562 -0.50146
vn -0.23021 0.85200 -0.47021
vn -0.19657 0.71829 -0.66739
vn 0.10310 0.02709 -0.99430
vn -0.14655 0.89262 -0.42633
vn -0.12344 0.77261 -0.62277
vn 0.12929 0.00130 -0.99161
vn -0.04210 0.92831 -0.36941
vn -0.03561 0.83235 -0.55310
vn 0.11410 -0.04627 -0.99239
vn 0.05795 -0.08425 -0.99476
vn 0.23586 -0.84243 -0.48444
vn 0.04958 -0.90062 -0.43177
vn 0.05583 -0.95990 -0.27474
vn -0.12202 -0.90200 -0.41412
vn -0.12896 -0.95535 -0.26583
vn -0.13340 -0.99106 0.00003
vn 0.06119 -0.99813 -0.00004
vn -0.25830 0.96607 -0.00012
vn -0.16457 0.98636 0.00003
vn -0.33063 0.94376 -0.00002
vn -0.04678 0.99891 0.00011
vn 0.03823 0.99927 0.00003
vn 0.03553 0.94551 -0.32364
vn 0.12070 0.99269 -0.00004
vn 0.11365 0.94372 -0.31059
vn 0.10401 0.87308 -0.47636
vn 0.03223 0.87080 -0.49058
vn 0.23752 0.91629 -0.32247
vn 0.21001 0.83881 -0.50229
vn -0.01376 -0.09172 -0.99569
vn -0.07049 -0.07292 -0.99484
vn -0.09017 -0.02988 -0.99548
vn -0.29371 -0.85369 -0.43006
vn -0.48381 -0.74127 -0.46524
vn -0.51648 -0.79990 -0.30564
vn -0.31221 -0.90735 -0.28149
vn -0.53882 -0.84242 -0.00005
vn -0.32535 -0.94559 0.00000
vn 0.25791 0.96617 0.00002
vn 0.47460 0.88020 0.00006
vn 0.43412 0.83014 -0.34986
vn 0.74744 0.66433 0.00017
vn 0.67976 0.61983 -0.39210
vn 0.58281 0.54866 -0.59941
vn 0.37677 0.74779 -0.54668
vn 0.83830 0.32639 -0.43672
vn 0.70954 0.28530 -0.64433
vn -0.08356 0.04383 -0.99554
vn -0.03001 0.14750 -0.98861
vn -0.70931 -0.45383 -0.53937
vn -0.77485 0.04979 -0.63018
vn -0.89420 0.09733 -0.43695
vn -0.79296 -0.49417 -0.35639
vn -0.97490 -0.22262 -0.00222
vn -0.85473 -0.51907 -0.00118
vn 0.93500 0.35465 0.00001
vn 0.99334 0.11525 -0.00032
vn 0.87131 0.10473 -0.47943
vn -0.48978 0.72592 -0.48287
vn -0.51581 0.71269 -0.47541
vn -0.43385 0.58558 -0.68475
vn -0.40412 0.59729 -0.69277
vn -0.38593 0.62455 -0.67897
vn -0.47236 0.74535 -0.47045
vn -0.13556 0.18737 -0.97289
vn -0.16979 0.18947 -0.96710
vn -0.21564 0.21028 -0.95356
vn -0.39015 0.65349 -0.64864
vn -0.46812 0.76588 -0.44078
vn -0.39890 0.68871 -0.60544
vn -0.46668 0.79197 -0.39369
vn 0.98581 -0.16786 -0.00010
vn 0.87977 -0.47541 -0.00018
vn 0.70335 -0.37703 -0.60262
vn 0.81584 -0.13409 -0.56252
vn 0.85453 -0.00170 -0.51940
vn 0.99998 -0.00585 -0.00010
vn 0.41193 -0.01082 -0.91115
vn 0.44280 0.07369 -0.89359
vn 0.42917 0.14614 -0.89132
vn -0.15667 0.30933 -0.93796
vn 0.07167 0.18150 -0.98078
vn -0.59183 0.38706 -0.70705
vn -0.53194 0.58945 -0.60794
vn -0.68670 0.50623 -0.52171
vn -0.59798 0.69783 -0.39429
vn -0.78065 0.62496 0.00187
vn -0.87136 0.49060 0.00604
vn -0.46927 0.58957 -0.65742
vn -0.54648 0.70831 -0.44683
vn -0.11487 0.27027 -0.95591
vn -0.11306 0.22018 -0.96888
vn 0.32993 -0.14534 -0.93275
vn 0.17078 -0.28058 -0.94451
vn 0.41899 -0.65190 -0.63204
vn 0.05305 -0.79010 -0.61067
vn -0.00679 -0.36299 -0.93177
vn -0.14120 -0.81049 -0.56848
vn -0.12101 -0.39587 -0.91030
vn -0.16817 -0.83148 -0.52949
vn -0.15363 -0.41748 -0.89561
vn -0.24391 0.23983 -0.93968
vn -0.14559 -0.08832 -0.98539
vn -0.33301 0.58883 -0.73647
vn -0.41973 0.72149 -0.55070
vn -0.37215 0.63447 -0.67746
vn -0.44757 0.75112 -0.48528
vn -0.51639 0.85635 0.00010
vn -0.51043 0.85992 -0.00010
vn 0.06697 -0.92560 -0.37253
vn -0.16308 -0.92081 -0.35428
vn 0.50500 -0.77703 -0.37577
vn -0.20078 -0.97964 -0.00017
vn -0.13865 -0.99034 0.00009
vn -0.11429 -0.86559 -0.48754
vn -0.01480 -0.99989 0.00063
vn -0.00414 -0.90296 -0.42970
vn 0.00865 -0.79173 -0.61081
vn -0.08965 -0.73939 -0.66728
vn 0.14848 -0.92203 -0.35752
vn 0.14396 -0.83515 -0.53085
vn -0.13715 -0.09536 -0.98595
vn -0.11724 -0.10729 -0.98729
vn -0.08339 -0.10786 -0.99066
vn -0.41858 0.68352 -0.59799
vn -0.46243 0.72929 -0.50428
vn -0.50750 0.79369 -0.33542
vn -0.47868 0.77616 -0.41041
vn -0.54089 0.84109 0.00003
vn -0.52730 0.84968 -0.00011
vn 0.14987 -0.98870 0.00027
vn 0.31266 -0.94986 -0.00005
vn 0.30387 -0.90693 -0.29180
vn 0.45264 -0.89169 0.00000
vn 0.43839 -0.86153 -0.25609
vn 0.41675 -0.81648 -0.39959
vn 0.28782 -0.84524 -0.45026
vn 0.55175 -0.79549 -0.25055
vn 0.52685 -0.75548 -0.38947
vn -0.03373 -0.08111 -0.99613
vn 0.03005 -0.02471 -0.99924
vn -0.49386 0.75634 -0.42902
vn -0.50786 0.76164 -0.40246
vn -0.53768 0.80017 -0.26576
vn -0.52700 0.80120 -0.28345
vn -0.56042 0.82821 0.00002
vn -0.55227 0.83367 0.00002
vn 0.56805 -0.82299 -0.00002
vn 0.71663 -0.69746 0.00003
vn 0.68555 -0.67255 -0.27875
vn -0.88757 -0.46067 -0.00037
vn -0.99992 0.01276 0.00021
vn -0.86172 0.02160 -0.50693
vn -0.73767 -0.37277 -0.56293
vn -0.44617 -0.68252 -0.57887
vn -0.54436 -0.83885 -0.00017
vn -0.32979 -0.09606 -0.93915
vn -0.20231 -0.25182 -0.94639
vn -0.07945 -0.32925 -0.94089
vn -0.18523 -0.79714 -0.57469
vn -0.22933 -0.97335 0.00015
vn -0.04581 -0.82306 -0.56610
vn -0.05942 -0.99823 -0.00011
vn 0.99727 0.07384 0.00089
vn 0.82607 0.56357 0.00296
vn 0.73052 0.47485 -0.49078
vn 0.90653 0.05846 -0.41807
vn 0.85160 -0.39837 -0.34071
vn 0.90783 -0.41934 -0.00048
vn 0.77533 0.03971 -0.63031
vn 0.76022 -0.36005 -0.54077
vn 0.63759 -0.63118 -0.44170
vn 0.09428 0.03056 -0.99508
vn 0.11552 0.09266 -0.98897
vn -0.53809 0.72611 -0.42804
vn -0.61870 0.58713 -0.52200
vn -0.68865 0.64203 -0.33699
vn -0.57718 0.76773 -0.27830
vn -0.73691 0.67599 -0.00009
vn -0.60593 0.79552 0.00001
vn -0.82152 0.37089 -0.43307
vn -0.91655 0.39993 0.00005
vn -0.68800 0.32401 -0.64936
vn -0.38489 0.08453 -0.91908
vn 0.04812 0.13809 -0.98925
vn -0.04745 0.12902 -0.99051
vn 0.16443 0.32548 -0.93114
vn 0.61040 0.36691 -0.70199
vn 0.46679 0.68934 -0.55400
vn 0.26355 0.76581 -0.58657
vn 0.08942 0.32703 -0.94077
vn 0.17134 0.78406 -0.59657
vn 0.06852 0.32232 -0.94415
vn 0.14939 0.79129 -0.59291
vn 0.11953 0.62924 -0.76796
vn 0.02442 -0.01429 -0.99960
vn -0.00450 -0.35641 -0.93432
vn 0.03604 -0.00977 -0.99930
vn -0.00316 -0.67224 -0.74033
vn -0.00514 -0.83021 -0.55742
vn -0.00097 -0.68303 -0.73039
vn -0.00382 -0.83584 -0.54896
vn -0.00685 -0.99998 0.00000
vn -0.00727 -0.99997 0.00001
vn 0.30862 0.95118 -0.00050
vn 0.19280 0.90472 -0.37989
vn 0.53999 0.84167 0.00075
vn 0.17062 0.90760 -0.38361
vn 0.16081 0.91227 -0.37669
vn 0.13907 0.80219 -0.58065
vn 0.15170 0.91961 -0.36236
vn 0.13110 0.81466 -0.56493
vn 0.10363 0.66695 -0.73786
vn 0.10980 0.64862 -0.75315
vn 0.13733 0.82416 -0.54945
vn 0.11051 0.67953 -0.72528
vn 0.04074 -0.00802 -0.99914
vn 0.04072 -0.00602 -0.99915
vn 0.03687 -0.00107 -0.99932
vn -0.00633 -0.69136 -0.72248
vn -0.00595 -0.69974 -0.71438
vn -0.00699 -0.84769 -0.53044
vn -0.00807 -0.84138 -0.54038
vn -0.00808 -0.99997 0.00001
vn -0.00994 -0.99995 0.00000
vn 0.16718 0.98593 -0.00001
vn 0.16955 0.98552 0.00001
vn 0.13989 0.83420 -0.53343
vn 0.16543 0.98622 0.00006
vn 0.13969 0.84462 -0.51681
vn 0.11410 0.70442 -0.70055
vn 0.11206 0.69252 -0.71264
vn 0.13507 0.85615 -0.49875
vn 0.10820 0.71843 -0.68713
vn 0.04701 0.00361 -0.99889
vn 0.06256 0.01050 -0.99799
vn 0.01951 -0.70406 -0.70987
vn 0.07706 -0.70700 -0.70300
vn 0.09800 -0.85620 -0.50727
vn 0.02219 -0.85296 -0.52150
vn 0.11773 -0.99305 0.00008
vn 0.02470 -0.99969 -0.00005
vn 0.16107 0.98694 0.00005
vn 0.14519 0.98940 -0.00036
vn 0.11746 0.87733 -0.46530
vn 0.89725 -0.44152 -0.00015
vn 0.73760 -0.67524 -0.00012
vn 0.70619 -0.65038 -0.27983
vn 0.85862 -0.42244 -0.29036
vn 0.90726 -0.17056 -0.38444
vn 0.98247 -0.18640 -0.00014
vn 0.80484 -0.39495 -0.44300
vn 0.80844 -0.15056 -0.56900
vn 0.34147 -0.02739 -0.93949
vn 0.86215 0.04888 -0.50430
vn 0.99886 0.04765 0.00006
vn -0.12983 0.99154 0.00059
vn -0.60626 0.79527 -0.00006
vn -0.59089 0.76219 -0.26440
vn -0.14135 0.94006 -0.31035
vn 0.06737 0.91572 -0.39612
vn 0.09009 0.99593 0.00028
vn -0.15053 0.86846 -0.47235
vn 0.04180 0.81680 -0.57540
vn 0.08900 0.75163 -0.65355
vn 0.09255 0.02235 -0.99546
vn 0.14160 0.04859 -0.98873
vn 0.17359 -0.71198 -0.68040
vn 0.30685 -0.71750 -0.62533
vn 0.35131 -0.83327 -0.42690
vn 0.21266 -0.85163 -0.47906
vn 0.38535 -0.92277 0.00012
vn 0.24618 -0.96923 0.00015
vn 0.51495 -0.78426 -0.34605
vn 0.54858 -0.83610 -0.00007
vn 0.46766 -0.71062 -0.52565
vn 0.65997 -0.61249 -0.43509
vn 0.01642 0.07811 -0.99681
vn 0.14138 0.09624 -0.98527
vn -0.10475 -0.07586 -0.99160
vn -0.86650 0.22149 -0.44735
vn -0.56092 0.71292 -0.42085
vn -0.93286 0.21918 -0.28589
vn -0.88731 -0.29015 -0.35847
vn -0.81409 -0.23874 -0.52940
vn -0.08751 -0.17834 -0.98007
vn -0.76466 -0.47044 -0.44043
vn -0.66973 -0.39157 -0.63098
vn -0.04909 -0.09614 -0.99416
vn -0.94144 -0.33719 0.00072
vn -0.84338 -0.53732 0.00121
vn -0.98743 -0.15803 -0.00083
vn -0.83896 0.54420 0.00001
vn -0.43552 0.86643 -0.24417
vn -0.44902 0.89352 0.00007
vn 0.06473 0.41934 0.90552
vn 0.17727 0.24804 0.95239
vn 0.73598 0.37135 0.56606
vn 0.33403 0.47302 0.81527
vn 0.79083 0.58447 0.18160
vn -0.16703 0.96143 0.21851
vn 0.11492 0.97786 0.17488
vn -0.78799 -0.39041 0.47607
vn -0.83389 -0.28563 0.47228
vn -0.91504 0.36602 0.16948
vn -0.65515 -0.27487 0.70373
vn -0.67656 -0.14892 0.72118
vn -0.42940 0.01020 0.90306
vn -0.78710 0.31315 0.53142
vn -0.81751 -0.28249 0.50187
vn -0.53594 -0.26685 0.80097
vn -0.64369 -0.63105 0.43295
vn -0.24508 -0.54479 0.80196
vn 0.03266 -0.44488 0.89499
vn 0.14070 -0.85814 0.49376
vn 0.31906 -0.78667 0.52854
vn 0.52548 -0.65144 0.54725
vn 0.18580 -0.33018 0.92545
vn -0.61823 0.55578 0.55579
vn -0.52546 0.63975 0.56090
vn -0.49602 0.42949 0.75465
vn -0.42153 0.50967 0.75004
vn 0.00801 -0.01200 0.99990
vn -0.06193 -0.08598 0.99437
vn 0.03314 0.01352 0.99936
vn 0.56426 -0.61629 0.54935
vn 0.55772 -0.62610 0.54493
vn 0.45421 -0.51223 0.72892
vn 0.45508 -0.50268 0.73499
vn 0.55730 -0.66780 0.49341
vn 0.55797 -0.64916 0.51697
vn 0.55515 -0.70111 0.44750
vn 0.46949 -0.61484 0.63368
vn 0.46185 -0.56672 0.68229
vn 0.46714 -0.79749 0.38182
vn 0.40755 -0.72270 0.55822
vn 0.26625 -0.91035 0.31682
vn -0.39419 0.74286 0.54109
vn -0.35019 0.77603 0.52455
vn -0.45030 0.69948 0.55494
vn -0.36367 0.56486 0.74073
vn -0.32346 0.60890 0.72430
vn -0.29074 0.64009 0.71116
vn 0.04660 0.02526 0.99859
vn 0.06194 0.03133 0.99759
vn 0.55614 -0.63740 0.53332
vn 0.46224 -0.54067 0.70286
vn 0.45673 -0.52598 0.71746
vn 0.07708 0.03323 0.99647
vn -0.28902 0.81557 0.50131
vn -0.24363 0.67720 0.69430
vn -0.19855 0.71811 0.66701
vn -0.23107 0.85195 0.46988
vn 0.10124 0.02703 0.99449
vn -0.12590 0.77297 0.62183
vn -0.14696 0.89280 0.42581
vn 0.12716 0.00202 0.99188
vn -0.03806 0.83344 0.55129
vn -0.04264 0.92865 0.36849
vn 0.11354 -0.04641 0.99245
vn 0.05814 -0.08489 0.99469
vn 0.05584 -0.95986 0.27488
vn 0.04896 -0.90050 0.43209
vn 0.23686 -0.84264 0.48358
vn -0.12878 -0.95537 0.26588
vn -0.12189 -0.90200 0.41416
vn 0.03525 0.94570 0.32313
vn 0.11359 0.94366 0.31081
vn 0.03132 0.87139 0.48959
vn 0.10386 0.87284 0.47683
vn 0.20973 0.83826 0.50332
vn 0.23736 0.91613 0.32305
vn -0.01362 -0.09119 0.99574
vn -0.06966 -0.07133 0.99502
vn -0.08810 -0.02687 0.99575
vn -0.31235 -0.90740 0.28118
vn -0.51654 -0.79984 0.30568
vn -0.48373 -0.74123 0.46539
vn -0.29410 -0.85385 0.42947
vn 0.43407 0.83017 0.34986
vn 0.67957 0.62014 0.39194
vn 0.37693 0.74777 0.54659
vn 0.58300 0.54904 0.59888
vn 0.71009 0.28440 0.64412
vn 0.83858 0.32581 0.43662
vn -0.08627 0.04394 0.99530
vn -0.02660 0.14052 0.98972
vn -0.79604 -0.49274 0.35148
vn -0.89406 0.08812 0.43920
vn -0.77370 0.04028 0.63227
vn -0.71478 -0.45350 0.53237
vn 0.87165 0.10381 0.47901
vn -0.40387 0.59735 0.69286
vn -0.43418 0.58446 0.68549
vn -0.51501 0.71335 0.47529
vn -0.48992 0.72576 0.48297
vn -0.47162 0.74575 0.47056
vn -0.38700 0.62447 0.67843
vn -0.17012 0.18889 0.96715
vn -0.13504 0.18726 0.97298
vn -0.39369 0.65268 0.64732
vn -0.21734 0.20971 0.95330
vn -0.46893 0.76558 0.44045
vn -0.47060 0.79012 0.39274
vn -0.40054 0.68809 0.60506
vn 0.81622 -0.13554 0.56162
vn 0.70402 -0.37823 0.60108
vn 0.85479 -0.00291 0.51897
vn 0.44299 0.07579 0.89332
vn 0.41236 -0.01008 0.91097
vn 0.43242 0.14474 0.88998
vn 0.07864 0.17940 0.98063
vn -0.15691 0.32047 0.93417
vn -0.68447 0.50473 0.52608
vn -0.52956 0.59760 0.60203
vn -0.58642 0.38809 0.71099
vn -0.59538 0.70071 0.39311
vn -0.54700 0.70724 0.44788
vn -0.46950 0.58933 0.65747
vn -0.11535 0.27301 0.95507
vn -0.11400 0.21957 0.96891
vn 0.33075 -0.14554 0.93243
vn 0.17193 -0.28219 0.94383
vn 0.41951 -0.65263 0.63094
vn -0.00436 -0.36455 0.93118
vn 0.05398 -0.79052 0.61005
vn -0.11739 -0.39718 0.91020
vn -0.13964 -0.81111 0.56797
vn -0.15097 -0.41748 0.89606
vn -0.16712 -0.83150 0.52979
vn -0.24289 0.24009 0.93987
vn -0.14538 -0.08821 0.98544
vn -0.41934 0.72160 0.55086
vn -0.33206 0.58883 0.73689
vn -0.45006 0.74977 0.48508
vn -0.37715 0.63205 0.67696
vn -0.16378 -0.92060 0.35451
vn 0.06665 -0.92528 0.37338
vn 0.50481 -0.77679 0.37652
vn -0.11417 -0.86561 0.48753
vn -0.00183 -0.90244 0.43081
vn -0.09025 -0.73950 0.66708
vn 0.00846 -0.79096 0.61181
vn 0.14824 -0.83284 0.53330
vn 0.15097 -0.92102 0.35906
vn -0.13741 -0.09563 0.98589
vn -0.11773 -0.10753 0.98721
vn -0.08334 -0.10766 0.99069
vn -0.47926 0.77607 0.40990
vn -0.50656 0.79425 0.33549
vn -0.46179 0.72964 0.50435
vn -0.41939 0.68364 0.59728
vn 0.30356 -0.90695 0.29204
vn 0.43830 -0.86159 0.25603
vn 0.28885 -0.84464 0.45073
vn 0.41629 -0.81677 0.39949
vn 0.52676 -0.75535 0.38984
vn 0.55179 -0.79540 0.25073
vn -0.03383 -0.08091 0.99615
vn 0.03008 -0.02466 0.99924
vn -0.52764 0.80068 0.28373
vn -0.53764 0.80028 0.26551
vn -0.50791 0.76188 0.40195
vn -0.49475 0.75548 0.42951
vn 0.68660 -0.67216 0.27710
vn -0.73764 -0.37258 0.56309
vn -0.86136 0.02274 0.50749
vn -0.44632 -0.68272 0.57853
vn -0.20303 -0.25339 0.94582
vn -0.32881 -0.09504 0.93960
vn -0.18523 -0.79661 0.57541
vn -0.07930 -0.32864 0.94112
vn -0.04591 -0.82300 0.56618
vn 0.90272 0.05411 0.42681
vn 0.72840 0.46626 0.50203
vn 0.85170 -0.39805 0.34083
vn 0.75934 -0.36066 0.54160
vn 0.76420 0.03335 0.64412
vn 0.64021 -0.63068 0.43859
vn 0.09538 0.02971 0.99500
vn 0.10816 0.09273 0.98980
vn -0.57659 0.76797 0.27885
vn -0.68699 0.64283 0.33886
vn -0.61419 0.58878 0.52546
vn -0.53684 0.72645 0.42903
vn -0.82072 0.37145 0.43409
vn -0.68583 0.32506 0.65113
vn -0.38556 0.08504 0.91876
vn -0.04976 0.12865 0.99044
vn 0.03488 0.13493 0.99024
vn -0.07593 0.08389 0.99358
vn 0.46623 0.68785 0.55632
vn 0.60090 0.35565 0.71584
vn 0.38589 0.52762 0.75677
vn 0.08894 0.32823 0.94040
vn 0.26260 0.76808 0.58403
vn 0.06850 0.32248 0.94409
vn 0.17142 0.78400 0.59662
vn 0.07641 0.32725 0.94184
vn 0.14921 0.79106 0.59326
vn -0.00458 -0.35621 0.93439
vn 0.03589 -0.00995 0.99931
vn -0.00515 -0.83025 0.55737
vn -0.00316 -0.67235 0.74023
vn -0.00371 -0.83581 0.54900
vn -0.00078 -0.68296 0.73045
vn 0.19306 0.90444 0.38042
vn 0.17067 0.90760 0.38357
vn 0.13898 0.80214 0.58074
vn 0.16065 0.91228 0.37674
vn 0.13100 0.81471 0.56488
vn 0.15134 0.91964 0.36244
vn 0.10977 0.64848 0.75327
vn 0.10380 0.66708 0.73772
vn 0.11012 0.67949 0.72538
vn 0.13714 0.82416 0.54950
vn 0.04077 -0.00800 0.99914
vn 0.04065 -0.00604 0.99916
vn 0.03676 -0.00109 0.99932
vn -0.00818 -0.84140 0.54036
vn -0.00712 -0.84771 0.53042
vn -0.00614 -0.69978 0.71433
vn -0.00648 -0.69140 0.72245
vn 0.13983 0.83420 0.53344
vn 0.13949 0.84463 0.51686
vn 0.11198 0.69253 0.71265
vn 0.11410 0.70442 0.70055
vn 0.10892 0.71851 0.68693
vn 0.13544 0.85614 0.49868
vn 0.04727 0.00369 0.99888
vn 0.06264 0.01048 0.99798
vn 0.02211 -0.85300 0.52144
vn 0.09828 -0.85604 0.50748
vn 0.07753 -0.70673 0.70323
vn 0.01946 -0.70409 0.70984
vn 0.11717 0.87698 0.46602
vn 0.85783 -0.42323 0.29155
vn 0.70688 -0.64900 0.28129
vn 0.90738 -0.16867 0.38497
vn 0.80818 -0.14626 0.57048
vn 0.80211 -0.39783 0.44536
vn 0.86220 0.05427 0.50365
vn 0.34259 -0.01938 0.93929
vn -0.13964 0.94132 0.30727
vn -0.58876 0.76423 0.26329
vn 0.06560 0.91611 0.39553
vn 0.04194 0.81785 0.57390
vn -0.14559 0.87270 0.46604
vn 0.08697 0.75035 0.65530
vn 0.09291 0.02261 0.99542
vn 0.14303 0.05008 0.98845
vn 0.21198 -0.85172 0.47920
vn 0.34993 -0.83414 0.42634
vn 0.30309 -0.72015 0.62412
vn 0.17265 -0.71220 0.68041
vn 0.51550 -0.78356 0.34684
vn 0.46754 -0.70946 0.52732
vn 0.66157 -0.60872 0.43793
vn 0.01681 0.08297 0.99641
vn 0.14236 0.10239 0.98450
vn -0.10204 -0.07525 0.99193
vn -0.93496 0.21361 0.28323
vn -0.55930 0.71542 0.41876
vn -0.86991 0.21741 0.44270
vn -0.81952 -0.24650 0.51733
vn -0.88824 -0.29494 0.35218
vn -0.08346 -0.17444 0.98112
vn -0.67475 -0.39749 0.62187
vn -0.76689 -0.47073 0.43623
vn -0.04755 -0.09373 0.99446
vn -0.13245 0.15950 0.97827
vn -0.20999 0.33063 0.92010
vn -0.43533 0.86649 0.24430
f 1//1 6//2 7//3 8//4
f 1//5 286//6 5//7 6//2
f 1//8 8//9 287//10 286//11
f 2//12 11//13 10//14 9//15
f 2//16 9//17 288//17 12//16
f 2//12 12//18 13//19 11//13
f 3//20 14//21 15//22 16//23
f 3//20 4//24 17//25 14//21
f 3//20 16//23 18//26 4//24
f 4//24 18//26 19//27 17//28
f 19//27 18//26 20//29 21//30
f 19//27 21//30 289//31 22//32
f 19//27 22//32 23//33 17//28
f 23//34 290//34 14//21 17//25
f 290//35 291//36 15//22 14//21
f 291//36 292//37 24//38 15//22
f 24//38 292//37 25//39 26//40
f 24//38 26//40 27//41 28//42
f 24//38 28//42 16//23 15//22
f 28//43 27//44 29//44 20//29
f 28//43 20//29 18//26 16//23
f 29//44 27//44 30//45 31//45
f 29//46 31//47 32//48 33//49
f 29//46 33//49 21//30 20//29
f 33//49 32//48 293//50 294//51
f 33//49 294//51 289//31 21//30
f 35//52 295//53 37//54 38//55
f 35//52 38//55 39//56 36//57
f 39//56 38//55 40//58 41//59
f 39//56 41//59 42//60 43//61
f 39//56 43//61 44//62 36//57
f 44//62 43//61 45//63 46//64
f 49//65 48//66 50//67 51//68
f 49//65 51//68 52//69 34//70
f 52//69 26//40 25//39 34//70
f 52//69 51//68 53//71 30//72
f 52//69 30//72 27//41 26//40
f 53//71 51//68 50//67 54//73
f 53//74 54//75 55//75 56//74
f 53//74 56//74 31//45 30//45
f 56//76 55//77 37//54 57//78
f 56//76 57//78 32//48 31//47
f 57//78 37//54 295//53 296//79
f 57//78 296//79 293//50 32//48
f 55//75 54//75 58//80 40//80
f 55//77 40//58 38//55 37//54
f 58//81 54//73 50//67 59//82
f 58//81 59//82 60//83 61//84
f 58//80 61//85 41//85 40//80
f 61//84 60//83 62//86 63//87
f 61//85 63//88 42//88 41//85
f 63//87 62//86 64//89 65//90
f 63//88 65//91 66//91 42//88
f 66//91 65//91 67//92 68//92
f 66//93 68//94 69//95 45//63
f 66//93 45//63 43//61 42//60
f 69//95 68//94 70//96 71//97
f 69//95 71//97 297//98 72//99
f 69//95 72//99 46//64 45//63
f 75//100 74//101 62//86 60//83
f 75//100 60//83 59//82 47//102
f 74//101 73//103 64//89 62//86
f 73//103 76//104 77//105 64//89
f 77//105 76//104 78//106 79//107
f 77//105 79//107 80//108 67//109
f 77//105 67//109 65//90 64//89
f 80//108 79//107 81//110 82//111
f 80//112 82//113 83//113 70//112
f 80//112 70//112 68//92 67//92
f 83//113 82//113 84//114 85//114
f 83//115 85//116 86//117 87//118
f 83//115 87//118 71//97 70//96
f 87//118 86//117 88//119 89//120
f 87//118 89//120 297//98 71//97
f 90//121 91//122 92//123 81//110
f 90//121 81//110 79//107 78//106
f 92//123 91//122 93//124 94//125
f 92//123 94//125 95//126 84//127
f 92//123 84//127 82//111 81//110
f 95//126 94//125 96//128 97//129
f 95//130 97//131 98//131 99//130
f 95//130 99//130 85//114 84//114
f 99//132 98//133 100//134 101//135
f 99//132 101//135 86//117 85//116
f 101//135 100//134 298//136 299//137
f 101//135 299//137 88//119 86//117
f 102//138 103//139 104//140 96//128
f 102//138 96//128 94//125 93//124
f 106//141 300//142 108//143 109//144
f 106//141 109//144 110//145 107//146
f 110//145 109//144 111//147 112//148
f 110//145 112//148 113//149 114//150
f 110//145 114//150 115//151 107//146
f 115//151 114//150 116//152 117//153
f 120//154 119//155 121//156 122//157
f 120//154 122//157 123//158 105//159
f 123//158 104//140 103//139 105//159
f 123//158 122//157 124//160 125//161
f 123//158 125//161 126//162 104//140
f 126//162 97//129 96//128 104//140
f 126//162 125//161 127//163 128//164
f 126//162 128//164 98//131 97//131
f 128//165 127//163 129//166 130//167
f 128//165 130//167 100//134 98//133
f 130//167 129//166 301//168 302//169
f 130//167 302//169 298//170 100//134
f 301//168 129//166 131//171 303//172
f 131//171 129//166 127//163 132//173
f 131//171 132//173 133//174 108//143
f 131//171 108//143 300//142 303//172
f 133//174 132//173 124//160 134//175
f 133//174 134//175 135//176 111//147
f 133//174 111//147 109//144 108//143
f 135//176 134//175 121//156 136//177
f 135//176 136//177 137//178 138//179
f 135//176 138//179 112//148 111//147
f 138//179 137//178 139//180 140//181
f 138//179 140//181 113//149 112//148
f 140//181 139//180 141//182 142//183
f 140//181 142//183 143//184 113//149
f 143//184 142//183 144//185 145//185
f 143//184 145//186 146//187 116//152
f 143//184 116//152 114//150 113//149
f 146//187 145//186 147//188 148//189
f 146//187 148//189 149//190 150//191
f 146//187 150//191 117//153 116//152
f 305//192 304//193 139//180 137//178
f 305//192 137//178 136//177 118//194
f 304//193 306//195 141//182 139//180
f 306//195 307//196 151//197 141//182
f 151//197 307//196 152//198 153//199
f 151//197 153//199 154//200 144//201
f 151//197 144//201 142//183 141//182
f 154//200 153//199 155//202 156//203
f 154//204 156//205 157//205 147//204
f 154//204 147//204 145//185 144//185
f 157//205 156//205 158//206 159//206
f 157//207 159//208 160//209 161//210
f 157//207 161//210 148//189 147//188
f 161//210 160//209 162//211 163//212
f 161//210 163//212 149//190 148//189
f 164//213 308//214 165//215 155//202
f 164//213 155//202 153//199 152//198
f 165//215 308//214 166//216 167//217
f 165//215 167//217 168//218 158//219
f 165//215 158//219 156//203 155//202
f 168//218 167//217 169//220 170//221
f 168//222 170//223 171//223 172//222
f 168//222 172//222 159//206 158//206
f 172//224 171//225 173//226 174//227
f 172//224 174//227 160//209 159//208
f 174//227 173//226 175//228 176//229
f 174//227 176//229 162//211 160//209
f 309//230 310//231 177//232 169//220
f 309//230 169//220 167//217 166//216
f 179//233 311//234 181//235 182//236
f 179//233 182//236 183//237 180//238
f 183//237 182//236 184//239 185//240
f 183//237 185//240 186//241 187//242
f 183//237 187//242 188//243 180//238
f 188//243 187//242 189//244 190//245
f 191//246 312//247 192//248 193//249
f 191//246 193//249 194//250 178//251
f 194//250 177//232 310//231 178//251
f 194//250 193//249 195//252 196//253
f 194//250 196//253 197//254 177//232
f 197//254 170//221 169//220 177//232
f 197//255 196//256 198//256 199//255
f 197//255 199//255 171//223 170//223
f 199//257 198//258 200//259 201//260
f 199//257 201//260 173//226 171//225
f 201//260 200//259 313//261 314//262
f 201//260 314//262 175//228 173//226
f 313//261 200//259 202//263 315//264
f 202//263 200//259 198//258 203//265
f 202//263 203//265 204//266 181//235
f 202//263 181//235 311//234 315//264
f 204//266 203//267 195//267 205//268
f 204//266 205//268 206//269 184//239
f 204//266 184//239 182//236 181//235
f 206//269 205//270 192//248 207//271
f 206//269 207//271 208//272 209//273
f 206//269 209//273 185//240 184//239
f 209//273 208//272 210//274 211//275
f 209//273 211//275 186//241 185//240
f 211//275 210//274 212//276 213//277
f 211//275 213//278 214//279 186//241
f 214//279 213//278 215//280 216//280
f 214//279 216//281 217//282 189//244
f 214//279 189//244 187//242 186//241
f 217//282 216//281 218//283 219//284
f 217//282 219//284 220//285 221//286
f 217//282 221//286 190//245 189//244
f 223//287 222//288 210//274 208//272
f 223//287 208//272 207//271 316//289
f 222//288 317//290 212//276 210//274
f 317//290 318//291 224//292 212//276
f 224//292 318//291 225//293 226//294
f 224//292 226//294 227//295 215//296
f 224//292 215//296 213//277 212//276
f 227//295 226//294 228//297 229//298
f 227//299 229//300 230//300 218//299
f 227//299 218//299 216//280 215//280
f 230//300 229//300 231//301 232//301
f 230//302 232//303 233//304 234//305
f 230//302 234//305 219//284 218//283
f 234//305 233//304 235//306 236//307
f 234//305 236//307 220//285 219//284
f 237//308 319//309 238//310 228//297
f 237//308 228//297 226//294 225//293
f 238//310 319//309 239//311 240//312
f 238//310 240//312 241//313 231//314
f 238//310 231//314 229//298 228//297
f 241//313 240//312 242//315 243//316
f 241//317 243//318 244//318 245//317
f 241//317 245//317 232//301 231//301
f 245//319 244//320 246//321 247//322
f 245//319 247//322 233//304 232//303
f 247//322 246//321 320//323 321//324
f 247//322 321//324 235//306 233//304
f 248//325 249//326 250//327 242//315
f 248//325 242//315 240//312 239//311
f 323//328 322//329 254//330 255//331
f 323//328 255//331 256//332 253//333
f 256//332 255//331 257//334 258//335
f 256//332 258//335 259//336 260//337
f 256//332 260//337 261//338 253//333
f 261//338 260//337 6//2 5//7
f 262//339 324//340 263//341 264//342
f 262//339 264//342 265//343 251//344
f 265//343 250//327 249//326 251//344
f 265//343 264//342 266//345 267//346
f 265//343 267//346 268//347 250//327
f 268//347 243//316 242//315 250//327
f 268//348 267//349 269//349 270//348
f 268//348 270//348 244//318 243//318
f 270//350 269//351 271//352 272//353
f 270//350 272//353 246//321 244//320
f 272//353 271//352 273//354 274//355
f 272//353 274//355 320//323 246//321
f 273//354 271//352 275//356 252//357
f 275//356 271//352 269//351 276//358
f 275//356 276//358 277//359 254//330
f 275//356 254//330 322//329 252//357
f 277//360 276//361 266//361 278//360
f 277//360 278//360 279//362 257//362
f 277//359 257//334 255//331 254//330
f 279//363 278//364 263//341 280//365
f 279//363 280//365 281//366 282//367
f 279//362 282//368 258//368 257//362
f 282//367 281//366 283//369 284//370
f 282//368 284//371 259//336 258//368
f 284//370 283//369 11//13 13//19
f 284//371 13//19 7//3 259//336
f 283//369 281//366 325//372 285//373
f 283//369 285//373 10//14 11//13
f 325//372 281//366 280//365 326//374
f 280//365 263//341 324//340 326//375
f 278//364 266//345 264//342 263//341
f 276//361 269//349 267//349 266//361
f 260//337 259//336 7//3 6//2
f 207//271 192//248 312//247 316//289
f 205//270 195//252 193//249 192//248
f 203//267 198//256 196//256 195//267
f 136//177 121//156 119//155 118//194
f 134//175 124//160 122//157 121//156
f 132//173 127//163 125//161 124//160
f 59//82 50//67 48//66 47//102
f 13//19 12//18 8//4 7//3
f 12//376 288//377 287//10 8//9
f 333//378 332//379 331//380 327//381
f 331//380 5//7 286//6 327//382
f 286//11 287//10 333//383 327//384
f 9//15 10//14 334//385 328//386
f 335//387 288//17 9//17 328//387
f 334//385 336//388 335//389 328//386
f 339//390 338//391 337//392 329//393
f 337//392 340//394 330//395 329//393
f 330//395 341//396 339//390 329//393
f 340//397 342//398 341//396 330//395
f 344//399 343//400 341//396 342//398
f 22//32 289//31 344//399 342//398
f 340//397 23//33 22//32 342//398
f 340//394 337//392 290//34 23//34
f 337//392 338//391 291//36 290//35
f 338//391 345//401 292//37 291//36
f 346//402 25//39 292//37 345//401
f 348//403 347//404 346//402 345//401
f 338//391 339//390 348//403 345//401
f 343//400 349//405 347//405 348//406
f 339//390 341//396 343//400 348//406
f 351//407 350//407 347//405 349//405
f 353//408 352//409 351//410 349//411
f 343//400 344//399 353//408 349//411
f 294//51 293//50 352//409 353//408
f 344//399 289//31 294//51 353//408
f 355//412 354//413 295//53 35//52
f 36//57 356//414 355//412 35//52
f 358//415 357//416 355//412 356//414
f 360//417 359//418 358//415 356//414
f 36//57 44//62 360//417 356//414
f 46//64 361//419 360//417 44//62
f 363//420 362//421 48//66 49//65
f 34//70 364//422 363//420 49//65
f 34//70 25//39 346//402 364//422
f 350//423 365//424 363//420 364//422
f 346//402 347//404 350//423 364//422
f 366//425 362//421 363//420 365//424
f 368//426 367//427 366//427 365//426
f 350//407 351//407 368//426 365//426
f 369//428 354//413 367//429 368//430
f 351//410 352//409 369//428 368//430
f 296//79 295//53 354//413 369//428
f 352//409 293//50 296//79 369//428
f 357//431 370//431 366//427 367//427
f 354//413 355//412 357//416 367//429
f 371//432 362//421 366//425 370//433
f 373//434 372//435 371//432 370//433
f 357//431 358//436 373//436 370//431
f 375//437 374//438 372//435 373//434
f 358//436 359//439 375//439 373//436
f 377//440 376//441 374//438 375//437
f 359//439 378//442 377//442 375//439
f 380//443 379//443 377//442 378//442
f 361//419 381//444 380//445 378//446
f 359//418 360//417 361//419 378//446
f 383//447 382//448 380//445 381//444
f 72//99 297//98 383//447 381//444
f 361//419 46//64 72//99 381//444
f 372//435 374//438 74//101 75//100
f 47//102 371//432 372//435 75//100
f 374//438 376//441 73//103 74//101
f 376//441 384//449 76//104 73//103
f 385//450 78//106 76//104 384//449
f 379//451 386//452 385//450 384//449
f 376//441 377//440 379//451 384//449
f 388//453 387//454 385//450 386//452
f 382//455 389//456 388//456 386//455
f 379//443 380//443 382//455 386//455
f 391//457 390//457 388//456 389//456
f 393//458 392//459 391//460 389//461
f 382//448 383//447 393//458 389//461
f 89//120 88//119 392//459 393//458
f 383//447 297//98 89//120 393//458
f 387//454 394//462 91//122 90//121
f 78//106 385//450 387//454 90//121
f 395//463 93//124 91//122 394//462
f 390//464 396//465 395//463 394//462
f 387//454 388//453 390//464 394//462
f 398//466 397//467 395//463 396//465
f 400//468 399//469 398//469 396//468
f 390//457 391//457 400//468 396//468
f 402//470 401//471 399//472 400//473
f 391//460 392//459 402//470 400//473
f 299//137 298//136 401//471 402//470
f 392//459 88//119 299//137 402//470
f 397//467 403//474 103//139 102//138
f 93//124 395//463 397//467 102//138
f 405//475 404//476 300//477 106//478
f 107//479 406//480 405//475 106//478
f 408//481 407//482 405//475 406//480
f 410//483 409//484 408//481 406//480
f 107//479 115//485 410//483 406//480
f 117//486 411//487 410//483 115//485
f 413//488 412//489 119//155 120//154
f 105//159 414//490 413//488 120//154
f 105//159 103//139 403//474 414//490
f 416//491 415//492 413//488 414//490
f 403//474 417//493 416//491 414//490
f 403//474 397//467 398//466 417//493
f 419//494 418//495 416//491 417//493
f 398//469 399//469 419//494 417//493
f 421//496 420//497 418//495 419//498
f 399//472 401//471 421//496 419//498
f 302//169 301//499 420//497 421//496
f 401//471 298//170 302//169 421//496
f 303//500 422//501 420//497 301//499
f 423//502 418//495 420//497 422//501
f 404//476 424//503 423//502 422//501
f 303//500 300//477 404//476 422//501
f 425//504 415//492 423//502 424//503
f 407//482 426//505 425//504 424//503
f 404//476 405//475 407//482 424//503
f 427//506 412//489 425//504 426//505
f 429//507 428//508 427//506 426//505
f 407//482 408//481 429//507 426//505
f 431//509 430//510 428//508 429//507
f 408//481 409//484 431//509 429//507
f 433//511 432//512 430//510 431//509
f 409//484 434//513 433//511 431//509
f 436//514 435//514 433//511 434//513
f 411//487 437//515 436//516 434//513
f 409//484 410//483 411//487 434//513
f 439//517 438//518 436//516 437//515
f 150//191 149//190 439//517 437//515
f 411//487 117//486 150//191 437//515
f 428//508 430//510 304//519 305//520
f 118//521 427//506 428//508 305//520
f 430//510 432//512 306//195 304//519
f 432//512 440//522 307//196 306//195
f 441//523 152//198 307//196 440//522
f 435//524 442//525 441//523 440//522
f 432//512 433//511 435//524 440//522
f 444//526 443//527 441//523 442//525
f 438//528 445//529 444//529 442//528
f 435//514 436//514 438//528 442//528
f 447//530 446//530 444//529 445//529
f 449//531 448//532 447//533 445//534
f 438//518 439//517 449//531 445//534
f 163//212 162//211 448//532 449//531
f 439//517 149//190 163//212 449//531
f 443//527 450//535 308//214 164//213
f 152//198 441//523 443//527 164//213
f 451//536 166//216 308//214 450//535
f 446//537 452//538 451//536 450//535
f 443//527 444//526 446//537 450//535
f 454//539 453//540 451//536 452//538
f 456//541 455//542 454//542 452//541
f 446//530 447//530 456//541 452//541
f 458//543 457//544 455//545 456//546
f 447//533 448//532 458//543 456//546
f 176//229 175//228 457//544 458//543
f 448//532 162//211 176//229 458//543
f 453//540 459//547 310//231 309//230
f 166//216 451//536 453//540 309//230
f 461//548 460//549 311//234 179//233
f 180//238 462//550 461//548 179//233
f 464//551 463//552 461//548 462//550
f 466//553 465//554 464//551 462//550
f 180//238 188//243 466//553 462//550
f 190//245 467//555 466//553 188//243
f 469//556 468//557 312//247 191//246
f 178//251 470//558 469//556 191//246
f 178//251 310//231 459//547 470//558
f 472//559 471//560 469//556 470//558
f 459//547 473//561 472//559 470//558
f 459//547 453//540 454//539 473//561
f 475//562 474//563 472//563 473//562
f 454//542 455//542 475//562 473//562
f 477//564 476//565 474//566 475//567
f 455//545 457//544 477//564 475//567
f 314//262 313//261 476//565 477//564
f 457//544 175//228 314//262 477//564
f 315//264 478//568 476//565 313//261
f 479//569 474//566 476//565 478//568
f 460//549 480//570 479//569 478//568
f 315//264 311//234 460//549 478//568
f 481//571 471//572 479//572 480//570
f 463//552 482//573 481//571 480//570
f 460//549 461//548 463//552 480//570
f 483//574 468//557 481//575 482//576
f 485//577 484//578 483//574 482//576
f 463//552 464//551 485//577 482//573
f 487//579 486//580 484//578 485//577
f 464//551 465//554 487//579 485//577
f 489//581 488//582 486//580 487//579
f 465//554 490//583 489//581 487//579
f 492//584 491//584 489//581 490//583
f 467//555 493//585 492//586 490//583
f 465//554 466//553 467//555 490//583
f 495//587 494//588 492//586 493//585
f 221//286 220//285 495//587 493//585
f 467//555 190//245 221//286 493//585
f 484//578 486//580 222//589 223//287
f 316//289 483//574 484//578 223//287
f 486//580 488//582 317//590 222//589
f 488//582 496//591 318//592 317//590
f 497//593 225//594 318//592 496//591
f 491//595 498//596 497//593 496//591
f 488//582 489//581 491//595 496//591
f 500//597 499//598 497//593 498//596
f 494//599 501//600 500//600 498//599
f 491//584 492//584 494//599 498//599
f 503//601 502//601 500//600 501//600
f 505//602 504//603 503//604 501//605
f 494//588 495//587 505//602 501//605
f 236//307 235//306 504//603 505//602
f 495//587 220//285 236//307 505//602
f 499//598 506//606 319//309 237//308
f 225//594 497//593 499//598 237//308
f 507//607 239//311 319//309 506//606
f 502//608 508//609 507//607 506//606
f 499//598 500//597 502//608 506//606
f 510//610 509//611 507//607 508//609
f 512//612 511//613 510//613 508//612
f 502//601 503//601 512//612 508//612
f 514//614 513//615 511//616 512//617
f 503//604 504//603 514//614 512//617
f 321//324 320//323 513//615 514//614
f 504//603 235//306 321//324 514//614
f 509//611 515//618 249//326 248//325
f 239//311 507//607 509//611 248//325
f 517//619 516//620 322//329 323//328
f 253//333 518//621 517//619 323//328
f 520//622 519//623 517//619 518//621
f 522//624 521//625 520//622 518//621
f 253//333 261//338 522//624 518//621
f 5//7 331//380 522//624 261//338
f 524//626 523//627 324//340 262//339
f 251//344 525//628 524//626 262//339
f 251//344 249//326 515//618 525//628
f 527//629 526//630 524//626 525//628
f 515//618 528//631 527//629 525//628
f 515//618 509//611 510//610 528//631
f 530//632 529//633 527//633 528//632
f 510//613 511//613 530//632 528//632
f 532//634 531//635 529//636 530//637
f 511//616 513//615 532//634 530//637
f 274//355 273//354 531//635 532//634
f 513//615 320//323 274//355 532//634
f 252//357 533//638 531//635 273//354
f 534//639 529//636 531//635 533//638
f 516//620 535//640 534//639 533//638
f 252//357 322//329 516//620 533//638
f 536//641 526//642 534//642 535//641
f 519//643 537//643 536//641 535//641
f 516//620 517//619 519//623 535//640
f 538//644 523//627 536//645 537//646
f 540//647 539//648 538//644 537//646
f 519//643 520//649 540//649 537//643
f 542//650 541//651 539//648 540//647
f 520//649 521//625 542//652 540//649
f 336//388 334//385 541//651 542//650
f 521//625 332//379 336//653 542//652
f 285//373 325//372 539//648 541//651
f 334//385 10//14 285//373 541//651
f 326//374 538//644 539//648 325//372
f 326//375 324//340 523//627 538//644
f 523//627 524//626 526//630 536//645
f 526//642 527//633 529//633 534//642
f 331//380 332//379 521//625 522//624
f 316//289 312//247 468//557 483//574
f 468//557 469//556 471//560 481//575
f 471//572 472//563 474//563 479//572
f 118//521 119//155 412//489 427//506
f 412//489 413//488 415//492 425//504
f 415//492 416//491 418//495 423//502
f 47//102 48//66 362//421 371//432
f 332//379 333//378 335//654 336//653
f 333//383 287//10 288//377 335//655
