# pilowlava3D glyph '3' variant 1 — Vincent Wagner / Velvetyne, Free Art License
v 0.27949 3.60538 -0.41393
v 0.13711 0.80224 -0.17021
v 0.16111 0.43576 -0.33998
v 1.49584 1.91261 -0.28623
v 0.54599 1.86267 -0.25941
v 0.18648 3.48238 -0.28011
v 0.07318 3.78458 -0.27403
v 0.25828 3.85325 -0.43596
v 0.49580 3.92459 -0.48141
v 0.51248 3.60997 -0.44131
v 0.50845 3.38489 -0.26331
v 0.31100 0.87399 -0.00000
v 0.28864 0.81049 -0.22566
v 0.20480 0.63569 -0.36456
v 0.02594 0.64266 -0.19904
v 0.07888 0.37812 -0.20097
v 0.39010 0.35510 -0.38203
v 0.33665 0.20123 -0.22240
v 1.64545 1.72918 -0.00000
v 1.62208 1.85373 -0.00000
v 1.71846 1.97972 -0.00000
v 1.35413 1.80595 -0.41012
v 1.12669 1.99426 -0.48624
v 1.28750 2.12343 -0.46753
v 1.60826 1.71564 -0.22661
v 1.56666 1.66441 -0.33199
v 1.47492 2.25879 -0.45804
v 1.63468 2.07138 -0.26726
v 0.69776 1.62673 -0.00000
v 0.72396 1.72847 -0.29190
v 0.52847 2.12826 -0.30452
v 0.76219 1.98279 -0.44287
v 0.09450 4.02124 -0.24288
v 0.24472 4.13931 -0.30273
v 0.03840 4.04729 -0.00000
v 0.46666 4.22770 -0.31205
v 0.69914 4.40127 -0.00000
v 0.70759 4.27123 -0.30354
v 0.72554 3.98665 -0.48180
v 0.75911 3.66694 -0.45149
v 0.95469 4.27972 -0.28712
v 0.96701 4.02235 -0.47265
v 0.99931 3.72015 -0.45013
v 1.04335 3.49921 -0.25527
v 0.79144 3.42960 -0.25744
v 1.21487 4.04759 -0.45621
v 1.24953 3.76744 -0.44301
v 1.29126 3.55691 -0.25618
v 1.31520 3.45795 -0.00000
v 1.06647 3.39403 -0.00000
v 1.49749 3.81652 -0.43051
v 1.53764 3.61970 -0.24973
v 1.78061 3.68220 -0.24181
v 2.43672 4.41333 -0.00000
v 2.18733 4.41106 -0.00000
v 2.69079 4.34983 -0.22653
v 2.44011 4.34270 -0.22953
v 2.94755 4.36308 -0.22384
v 2.95369 4.24530 -0.35501
v 2.70417 4.21940 -0.36916
v 3.22709 4.40163 -0.00000
v 3.22197 4.35535 -0.21292
v 3.21466 4.25821 -0.33477
v 3.20955 4.13548 -0.33090
v 2.96693 4.10194 -0.35199
v 3.50932 4.27765 -0.20183
v 3.47607 4.20316 -0.31333
v 3.43018 4.10033 -0.30148
v 3.39651 4.02993 -0.18263
v 3.20325 4.03941 -0.20562
v 3.67693 4.03062 -0.30263
v 3.58365 3.97326 -0.28718
v 3.52671 3.93689 -0.17400
v 3.51752 3.93165 -0.00000
v 3.38496 4.00881 -0.00000
v 3.62820 3.78213 -0.28791
v 3.56571 3.78453 -0.16894
v 3.50617 3.61968 -0.16854
v 3.10869 2.93714 -0.00000
v 3.32075 3.08127 -0.00000
v 2.90284 2.79501 -0.00000
v 2.87026 2.84660 -0.22687
v 3.08140 2.98324 -0.22146
v 2.66133 2.70915 -0.22832
v 2.59277 2.83290 -0.37936
v 2.80827 2.95714 -0.36808
v 2.45031 2.57415 -0.23226
v 2.37289 2.71347 -0.39354
v 2.27866 2.90678 -0.39184
v 2.50735 3.00377 -0.37864
v 2.23979 2.44349 -0.24012
v 2.15115 2.59877 -0.40794
v 2.04699 2.80967 -0.40627
v 1.97539 2.97229 -0.23698
v 2.21250 3.05586 -0.22815
v 1.92937 2.48550 -0.42320
v 1.81574 2.70888 -0.42108
v 1.73598 2.88417 -0.24691
v 1.70413 2.96903 -0.00000
v 1.94741 3.04831 -0.00000
v 1.58143 2.60494 -0.44167
v 1.49179 2.79461 -0.26072
v 1.23611 2.70501 -0.27609
v 0.90343 2.71299 -0.00000
v 0.95256 1.55116 -0.00000
v 1.20847 1.52119 -0.00000
v 1.48099 1.48959 -0.00000
v 1.76273 1.44786 -0.00000
v 1.22701 1.58993 -0.23411
v 1.49289 1.53592 -0.19346
v 1.76537 1.47688 -0.17600
v 1.52382 1.59811 -0.31109
v 1.76986 1.52011 -0.29266
v 2.02686 1.51585 -0.32181
v 2.03545 1.44855 -0.19112
v 2.03585 1.41334 -0.00000
v 2.29504 1.43757 -0.21693
v 2.01337 1.74800 -0.00000
v 2.01578 1.70958 -0.19816
v 1.78896 1.65567 -0.19298
v 2.01717 1.62512 -0.32722
v 1.78026 1.60106 -0.29676
v 2.25693 1.78918 -0.22222
v 2.26915 1.67832 -0.36385
v 2.28380 1.54755 -0.36227
v 2.52656 1.73313 -0.39300
v 2.53859 1.57608 -0.39499
v 2.54502 1.43034 -0.23836
v 2.79619 1.59706 -0.42254
v 2.78465 1.42089 -0.25341
v 2.54133 1.35650 -0.00000
v 2.24988 1.84213 -0.00000
v 2.50796 1.87300 -0.23913
v 2.77572 1.96589 -0.24713
v 2.79277 1.79470 -0.41907
v 3.08612 2.08201 -0.26011
v 3.08857 1.86837 -0.44015
v 3.05788 1.61288 -0.44339
v 3.40576 1.89243 -0.45339
v 3.30602 1.59320 -0.45836
v 3.19852 1.37277 -0.26786
v 3.00650 1.40840 -0.26229
v 3.15234 1.28014 -0.00000
v 3.47623 2.13713 -0.28402
v 3.94623 2.02185 -0.00000
v 3.86831 1.94706 -0.29961
v 3.69124 1.75040 -0.45837
v 4.00478 1.52651 -0.25395
v 3.82557 1.44968 -0.40176
v 3.62012 1.33473 -0.40027
v 3.49754 1.51118 -0.44888
v 3.47385 1.21350 -0.22968
v 3.35223 1.31079 -0.25788
v 3.42750 1.16777 -0.00000
v 3.30032 1.23717 -0.00000
v 4.07909 1.55636 -0.00000
v 3.97691 1.11923 -0.00000
v 3.92572 1.11542 -0.20820
v 3.77552 0.79686 -0.00000
v 2.71168 0.68075 -0.00000
v 3.19104 0.64388 -0.14766
v 2.95246 0.63085 -0.18683
v 2.70748 0.62906 -0.21221
v 2.97622 0.54097 -0.32361
v 2.71911 0.51265 -0.35446
v 2.46265 0.50006 -0.37037
v 2.46097 0.63848 -0.21788
v 2.46803 0.69988 -0.00000
v 2.21365 0.65352 -0.22226
v 2.21775 0.72100 -0.00000
v 3.02546 0.28679 -0.00000
v 3.28097 0.40773 -0.00000
v 3.53524 0.57293 -0.00000
v 3.27449 0.42867 -0.15826
v 3.52299 0.58344 -0.14766
v 3.74874 0.80355 -0.16532
v 3.49083 0.61873 -0.26050
v 3.67587 0.81946 -0.28900
v 3.79502 1.10545 -0.34627
v 3.58510 0.85774 -0.28033
v 3.65540 1.08348 -0.34438
v 3.53008 0.88127 -0.15935
v 3.54697 1.05721 -0.19508
v 3.40693 0.72520 -0.13783
v 3.43655 0.68825 -0.25198
v 3.21953 0.58857 -0.27764
v 3.25483 0.49303 -0.28370
v 3.00093 0.42037 -0.32678
v 3.01745 0.32405 -0.18948
v 2.75835 0.24612 -0.21554
v 2.74000 0.36867 -0.35685
v 2.50110 0.18300 -0.22315
v 2.47889 0.32296 -0.37302
v 2.23907 0.13180 -0.22399
v 2.22382 0.28481 -0.38492
v 2.21296 0.49555 -0.38323
v 1.96527 0.26526 -0.39502
v 1.96237 0.49520 -0.39455
v 1.96514 0.66490 -0.22745
v 1.71011 0.50147 -0.40492
v 1.71776 0.68214 -0.23457
v 2.51498 0.12349 -0.00000
v 1.97316 0.09930 -0.22888
v 1.70998 0.00745 -0.00000
v 1.70720 0.08436 -0.23270
v 1.70567 0.25978 -0.40424
v 1.44213 0.07994 -0.23584
v 1.44635 0.26213 -0.41052
v 1.45731 0.51151 -0.41304
v 1.18646 0.27040 -0.41227
v 1.20411 0.52321 -0.41653
v 1.22196 0.71937 -0.24423
v 1.46904 0.69979 -0.23981
v 1.23109 0.80597 -0.00000
v 1.47683 0.78325 -0.00000
v 1.44147 0.00000 -0.00000
v 1.17624 0.08541 -0.23624
v 0.89683 0.01749 -0.00000
v 0.90599 0.09731 -0.23543
v 0.92443 0.28187 -0.41086
v 0.62563 0.12844 -0.23189
v 0.65930 0.30540 -0.40227
v 0.70528 0.55595 -0.41265
v 0.95239 0.53720 -0.41738
v 0.74092 0.75671 -0.24257
v 0.97751 0.73561 -0.24385
v 0.98990 0.82516 -0.00000
v 0.60980 0.05630 -0.00000
v 0.31499 0.14487 -0.00000
v 0.05718 0.34650 -0.00000
v 0.51245 0.78498 -0.24188
v 0.46141 0.58807 -0.40351
v 1.28040 1.71076 -0.38241
v 1.02584 1.83467 -0.44646
v 0.97067 1.64229 -0.27361
v 0.88799 2.21748 -0.47875
v 0.68701 2.43734 -0.31199
v 0.96145 2.60458 -0.29261
v 1.09023 2.37308 -0.47618
v 1.33037 2.49517 -0.46251
v 1.70158 2.37668 -0.44412
v 2.03252 2.31351 -0.25360
v 1.82583 2.19007 -0.26464
v 1.89579 2.10491 -0.00000
v 2.18674 3.12494 -0.00000
v 2.44719 3.13995 -0.22433
v 2.67985 3.22457 -0.22287
v 2.73431 3.10376 -0.36678
v 2.91178 3.30667 -0.21762
v 2.96221 3.20630 -0.35266
v 3.02753 3.08152 -0.35490
v 3.18532 3.31366 -0.33427
v 3.24874 3.20266 -0.33764
v 3.29799 3.11977 -0.21214
v 3.47054 3.33755 -0.31824
v 3.52205 3.26954 -0.19894
v 3.54357 3.24066 -0.00000
v 3.72904 3.48152 -0.19127
v 3.19866 3.99683 -0.00000
v 2.98079 3.99140 -0.22296
v 2.74638 3.92985 -0.22367
v 2.72556 4.05428 -0.36672
v 2.50642 3.86837 -0.22526
v 2.48188 4.00738 -0.38216
v 2.45575 4.19503 -0.38319
v 2.23672 3.95963 -0.39313
v 2.20622 4.17159 -0.39545
v 2.19007 4.33588 -0.23348
v 1.95886 4.14303 -0.40986
v 1.94016 4.32454 -0.24081
v 1.93841 4.40812 -0.00000
v 1.69267 4.31173 -0.25074
v 0.80398 3.32342 -0.00000
v 0.00237 3.74613 -0.00000
v 0.95320 4.40196 -0.00000
v 1.19915 4.28637 -0.27303
v 1.44467 4.29972 -0.26210
v 1.46162 4.08107 -0.44120
v 1.71004 4.11355 -0.42716
v 1.74503 3.86392 -0.42041
v 1.99233 3.90982 -0.40599
v 2.02409 3.74140 -0.23575
v 2.26560 3.80564 -0.22959
v 2.28212 3.73615 -0.00000
v 2.52020 3.80471 -0.00000
v 3.52501 4.30936 -0.00000
v 3.77099 4.09258 -0.00000
v 3.74464 4.07568 -0.19587
v 3.82828 3.77553 -0.19323
v 3.74258 3.77831 -0.29786
v 3.65936 3.52641 -0.30137
v 3.56337 3.58681 -0.29190
v 3.39843 3.43153 -0.31373
v 3.34593 3.49077 -0.18531
v 3.13851 3.39384 -0.20655
v 3.11607 3.43198 -0.00000
v 2.28622 2.37495 -0.00000
v 0.12980 0.82845 -0.00000
v 0.00000 0.64313 -0.00000
v 0.48105 1.82883 -0.00000
v 0.41401 2.17437 -0.00000
v 0.19873 4.25276 -0.00000
v 0.44505 4.36261 -0.00000
v 1.56037 3.52794 -0.00000
v 1.80199 3.59849 -0.00000
v 2.68790 4.41594 -0.00000
v 2.94651 4.42166 -0.00000
v 3.54810 3.78692 -0.00000
v 3.48918 3.62830 -0.00000
v 2.69563 2.65353 -0.00000
v 2.48996 2.51330 -0.00000
v 1.45650 2.88959 -0.00000
v 1.19576 2.80902 -0.00000
v 2.29557 1.38379 -0.00000
v 1.79432 1.68315 -0.00000
v 2.77119 1.33166 -0.00000
v 2.49095 1.93830 -0.00000
v 2.75754 2.04510 -0.00000
v 2.97726 1.30951 -0.00000
v 3.50885 2.24321 -0.00000
v 3.07775 2.17525 -0.00000
v 2.94580 0.66540 -0.00000
v 3.18180 0.65977 -0.00000
v 3.51756 0.88562 -0.00000
v 3.51529 1.04736 -0.00000
v 3.40137 0.73254 -0.00000
v 1.72376 0.76181 -0.00000
v 1.97096 0.73961 -0.00000
v 2.77085 0.19434 -0.00000
v 2.24792 0.06685 -0.00000
v 1.97890 0.02875 -0.00000
v 1.17196 0.00344 -0.00000
v 0.75496 0.84520 -0.00000
v 0.52704 0.86713 -0.00000
v 2.08751 2.23579 -0.00000
v 2.42317 3.20423 -0.00000
v 2.65807 3.28293 -0.00000
v 3.75584 3.46569 -0.00000
v 2.99037 3.93765 -0.00000
v 2.75857 3.87245 -0.00000
v 1.69014 4.40405 -0.00000
v 0.48892 3.28226 -0.00000
v 0.13836 3.40826 -0.00000
v 1.19838 4.39970 -0.00000
v 1.44298 4.40151 -0.00000
v 2.04277 3.66590 -0.00000
v 3.86088 3.76919 -0.00000
v 3.32404 3.50998 -0.00000
v 2.89156 3.35814 -0.00000
v 0.59473 2.53629 -0.00000
v 0.27949 3.60538 0.41393
v 0.13711 0.80224 0.17021
v 0.16111 0.43576 0.33998
v 1.49584 1.91261 0.28623
v 0.54599 1.86267 0.25941
v 0.18648 3.48238 0.28011
v 0.07318 3.78458 0.27403
v 0.25828 3.85325 0.43596
v 0.49580 3.92459 0.48141
v 0.51248 3.60997 0.44131
v 0.50845 3.38489 0.26331
v 0.28864 0.81049 0.22566
v 0.20480 0.63569 0.36456
v 0.02594 0.64266 0.19904
v 0.07888 0.37812 0.20097
v 0.39010 0.35510 0.38203
v 0.33665 0.20123 0.22240
v 1.35413 1.80595 0.41012
v 1.12669 1.99426 0.48624
v 1.28750 2.12343 0.46753
v 1.60826 1.71564 0.22661
v 1.56666 1.66441 0.33199
v 1.47492 2.25879 0.45804
v 1.63468 2.07138 0.26726
v 0.72396 1.72847 0.29190
v 0.52847 2.12826 0.30452
v 0.76219 1.98279 0.44287
v 0.09450 4.02124 0.24288
v 0.24472 4.13931 0.30273
v 0.46666 4.22770 0.31205
v 0.70759 4.27123 0.30354
v 0.72554 3.98665 0.48180
v 0.75911 3.66694 0.45149
v 0.95469 4.27972 0.28712
v 0.96701 4.02235 0.47265
v 0.99931 3.72015 0.45013
v 1.04335 3.49921 0.25527
v 0.79144 3.42960 0.25744
v 1.21487 4.04759 0.45621
v 1.24953 3.76744 0.44301
v 1.29126 3.55691 0.25618
v 1.49749 3.81652 0.43051
v 1.53764 3.61970 0.24973
v 1.78061 3.68220 0.24181
v 2.69079 4.34983 0.22653
v 2.44011 4.34270 0.22953
v 2.94755 4.36308 0.22384
v 2.95369 4.24530 0.35501
v 2.70417 4.21940 0.36916
v 3.22197 4.35535 0.21292
v 3.21466 4.25821 0.33477
v 3.20955 4.13548 0.33090
v 2.96693 4.10194 0.35199
v 3.50932 4.27765 0.20183
v 3.47607 4.20316 0.31333
v 3.43018 4.10033 0.30148
v 3.39651 4.02993 0.18263
v 3.20325 4.03941 0.20562
v 3.67693 4.03062 0.30263
v 3.58365 3.97326 0.28718
v 3.52671 3.93689 0.17400
v 3.62820 3.78213 0.28791
v 3.56571 3.78453 0.16894
v 3.50617 3.61968 0.16854
v 2.87026 2.84660 0.22687
v 3.08140 2.98324 0.22146
v 2.66133 2.70915 0.22832
v 2.59277 2.83290 0.37936
v 2.80827 2.95714 0.36808
v 2.45031 2.57415 0.23226
v 2.37289 2.71347 0.39354
v 2.27866 2.90678 0.39184
v 2.50735 3.00377 0.37864
v 2.23979 2.44349 0.24012
v 2.15115 2.59877 0.40794
v 2.04699 2.80967 0.40627
v 1.97539 2.97229 0.23698
v 2.21250 3.05586 0.22815
v 1.92937 2.48550 0.42320
v 1.81574 2.70888 0.42108
v 1.73598 2.88417 0.24691
v 1.58143 2.60494 0.44167
v 1.49179 2.79461 0.26072
v 1.23611 2.70501 0.27609
v 1.22701 1.58993 0.23411
v 1.49289 1.53592 0.19346
v 1.76537 1.47688 0.17600
v 1.52382 1.59811 0.31109
v 1.76986 1.52011 0.29266
v 2.02686 1.51585 0.32181
v 2.03545 1.44855 0.19112
v 2.29504 1.43757 0.21693
v 2.01578 1.70958 0.19816
v 1.78896 1.65567 0.19298
v 2.01717 1.62512 0.32722
v 1.78026 1.60106 0.29676
v 2.25693 1.78918 0.22222
v 2.26915 1.67832 0.36385
v 2.28380 1.54755 0.36227
v 2.52656 1.73313 0.39300
v 2.53859 1.57608 0.39499
v 2.54502 1.43034 0.23836
v 2.79619 1.59706 0.42254
v 2.78465 1.42089 0.25341
v 2.50796 1.87300 0.23913
v 2.77572 1.96589 0.24713
v 2.79277 1.79470 0.41907
v 3.08612 2.08201 0.26011
v 3.08857 1.86837 0.44015
v 3.05788 1.61288 0.44339
v 3.40576 1.89243 0.45339
v 3.30602 1.59320 0.45836
v 3.19852 1.37277 0.26786
v 3.00650 1.40840 0.26229
v 3.47623 2.13713 0.28402
v 3.86831 1.94706 0.29961
v 3.69124 1.75040 0.45837
v 4.00478 1.52651 0.25395
v 3.82557 1.44968 0.40176
v 3.62012 1.33473 0.40027
v 3.49754 1.51118 0.44888
v 3.47385 1.21350 0.22968
v 3.35223 1.31079 0.25788
v 3.92572 1.11542 0.20820
v 3.19104 0.64388 0.14766
v 2.95246 0.63085 0.18683
v 2.70748 0.62906 0.21221
v 2.97622 0.54097 0.32361
v 2.71911 0.51265 0.35446
v 2.46265 0.50006 0.37037
v 2.46097 0.63848 0.21788
v 2.21365 0.65352 0.22226
v 3.27449 0.42867 0.15826
v 3.52299 0.58344 0.14766
v 3.74874 0.80355 0.16532
v 3.49083 0.61873 0.26050
v 3.67587 0.81946 0.28900
v 3.79502 1.10545 0.34627
v 3.58510 0.85774 0.28033
v 3.65540 1.08348 0.34438
v 3.53008 0.88127 0.15935
v 3.54697 1.05721 0.19508
v 3.40693 0.72520 0.13783
v 3.43655 0.68825 0.25198
v 3.21953 0.58857 0.27764
v 3.25483 0.49303 0.28370
v 3.00093 0.42037 0.32678
v 3.01745 0.32405 0.18948
v 2.75835 0.24612 0.21554
v 2.74000 0.36867 0.35685
v 2.50110 0.18300 0.22315
v 2.47889 0.32296 0.37302
v 2.23907 0.13180 0.22399
v 2.22382 0.28481 0.38492
v 2.21296 0.49555 0.38323
v 1.96527 0.26526 0.39502
v 1.96237 0.49520 0.39455
v 1.96514 0.66490 0.22745
v 1.71011 0.50147 0.40492
v 1.71776 0.68214 0.23457
v 1.97316 0.09930 0.22888
v 1.70720 0.08436 0.23270
v 1.70567 0.25978 0.40424
v 1.44213 0.07994 0.23584
v 1.44635 0.26213 0.41052
v 1.45731 0.51151 0.41304
v 1.18646 0.27040 0.41227
v 1.20411 0.52321 0.41653
v 1.22196 0.71937 0.24423
v 1.46904 0.69979 0.23981
v 1.17624 0.08541 0.23624
v 0.90599 0.09731 0.23543
v 0.92443 0.28187 0.41086
v 0.62563 0.12844 0.23189
v 0.65930 0.30540 0.40227
v 0.70528 0.55595 0.41265
v 0.95239 0.53720 0.41738
v 0.74092 0.75671 0.24257
v 0.97751 0.73561 0.24385
v 0.51245 0.78498 0.24188
v 0.46141 0.58807 0.40351
v 1.28040 1.71076 0.38241
v 1.02584 1.83467 0.44646
v 0.97067 1.64229 0.27361
v 0.88799 2.21748 0.47875
v 0.68701 2.43734 0.31199
v 0.96145 2.60458 0.29261
v 1.09023 2.37308 0.47618
v 1.33037 2.49517 0.46251
v 1.70158 2.37668 0.44412
v 2.03252 2.31351 0.25360
v 1.82583 2.19007 0.26464
v 2.44719 3.13995 0.22433
v 2.67985 3.22457 0.22287
v 2.73431 3.10376 0.36678
v 2.91178 3.30667 0.21762
v 2.96221 3.20630 0.35266
v 3.02753 3.08152 0.35490
v 3.18532 3.31366 0.33427
v 3.24874 3.20266 0.33764
v 3.29799 3.11977 0.21214
v 3.47054 3.33755 0.31824
v 3.52205 3.26954 0.19894
v 3.72904 3.48152 0.19127
v 2.98079 3.99140 0.22296
v 2.74638 3.92985 0.22367
v 2.72556 4.05428 0.36672
v 2.50642 3.86837 0.22526
v 2.48188 4.00738 0.38216
v 2.45575 4.19503 0.38319
v 2.23672 3.95963 0.39313
v 2.20622 4.17159 0.39545
v 2.19007 4.33588 0.23348
v 1.95886 4.14303 0.40986
v 1.94016 4.32454 0.24081
v 1.69267 4.31173 0.25074
v 1.19915 4.28637 0.27303
v 1.44467 4.29972 0.26210
v 1.46162 4.08107 0.44120
v 1.71004 4.11355 0.42716
v 1.74503 3.86392 0.42041
v 1.99233 3.90982 0.40599
v 2.02409 3.74140 0.23575
v 2.26560 3.80564 0.22959
v 3.74464 4.07568 0.19587
v 3.82828 3.77553 0.19323
v 3.74258 3.77831 0.29786
v 3.65936 3.52641 0.30137
v 3.56337 3.58681 0.29190
v 3.39843 3.43153 0.31373
v 3.34593 3.49077 0.18531
v 3.13851 3.39384 0.20655
vn -0.33246 -0.34096 -0.87933
vn -0.82062 -0.26611 -0.50574
vn -0.84342 -0.04734 -0.53517
vn -0.43998 0.09736 -0.89271
vn -0.12408 0.18471 -0.97493
vn -0.03144 -0.39541 -0.91797
vn -0.03874 -0.81351 -0.58026
vn -0.20504 -0.80799 -0.55238
vn -0.42169 0.54513 -0.72458
vn -0.14246 0.83046 -0.53856
vn -0.44770 0.43490 -0.78130
vn -0.82391 0.13430 -0.55057
vn -0.17406 0.96436 -0.19926
vn -0.18765 0.98223 0.00380
vn -0.06537 0.99786 0.00162
vn -0.80897 0.57632 -0.11583
vn -0.81484 0.57969 -0.00064
vn -0.79420 0.00233 -0.60765
vn -0.91832 -0.09787 -0.38356
vn -0.40973 -0.66995 -0.61911
vn -0.29974 -0.67467 -0.67452
vn -0.37417 -0.79378 -0.47949
vn -0.50877 -0.74563 -0.43034
vn 0.71383 -0.07830 -0.69593
vn 0.34181 -0.09812 -0.93463
vn 0.11783 -0.12322 -0.98536
vn 0.24862 -0.10702 -0.96267
vn 0.61020 0.66850 -0.42516
vn 0.50253 0.61252 -0.61014
vn 0.22416 -0.22957 -0.94713
vn 0.51223 -0.58114 -0.63237
vn 0.94872 0.31553 0.01908
vn 0.61735 -0.66803 -0.41547
vn 0.71382 -0.55912 -0.42171
vn -0.83599 -0.45989 -0.29936
vn -0.43558 -0.66089 -0.61114
vn -0.48955 -0.87198 0.00196
vn -0.87575 -0.48274 0.00449
vn -0.98882 0.14912 0.00258
vn -0.75277 0.05097 -0.65631
vn -0.47523 -0.25893 -0.84090
vn -0.33574 -0.20229 -0.91998
vn -0.81200 0.34743 -0.46899
vn -0.51918 0.57663 -0.63084
vn -0.91072 0.41300 -0.00417
vn -0.58500 0.81102 -0.00385
vn -0.25651 0.88333 -0.39233
vn -0.22706 0.71121 -0.66530
vn -0.07402 0.91527 -0.39598
vn -0.06634 0.75675 -0.65033
vn -0.01674 0.22986 -0.97308
vn 0.08224 -0.37441 -0.92361
vn 0.00120 0.77892 -0.62712
vn 0.02590 0.27084 -0.96228
vn 0.10430 -0.36759 -0.92412
vn 0.19758 -0.78494 -0.58722
vn 0.16870 -0.78807 -0.59201
vn 0.02982 0.30035 -0.95336
vn 0.11502 -0.36223 -0.92497
vn 0.20177 -0.79145 -0.57697
vn 0.23357 -0.89907 -0.37030
vn 0.23193 -0.89476 -0.38159
vn 0.12291 -0.36222 -0.92395
vn 0.21826 -0.79780 -0.56202
vn 0.25062 -0.90130 -0.35335
vn 0.21723 -0.81083 -0.54348
vn 0.26363 -0.96462 -0.00000
vn -0.02652 0.99965 0.00002
vn -0.02770 0.87064 -0.49114
vn -0.01915 0.86114 -0.50800
vn -0.01665 0.99986 0.00000
vn 0.00975 0.99995 -0.00010
vn 0.00338 0.88398 -0.46752
vn -0.00304 0.75189 -0.65928
vn -0.02840 0.73385 -0.67872
vn 0.16987 0.98547 -0.00036
vn 0.14998 0.88941 -0.43181
vn 0.12559 0.76897 -0.62683
vn 0.08695 -0.06073 -0.99436
vn 0.07195 -0.01750 -0.99725
vn 0.44294 0.80133 -0.40210
vn 0.38842 0.69775 -0.60189
vn 0.02635 -0.11417 -0.99311
vn -0.26544 -0.78745 -0.55630
vn -0.27714 -0.89302 -0.35455
vn 0.11055 -0.90830 -0.40345
vn 0.08471 -0.79690 -0.59815
vn -0.07725 -0.08325 -0.99353
vn -0.70856 -0.48066 -0.51663
vn -0.78017 -0.54022 -0.31544
vn -0.54072 -0.84121 -0.00083
vn -0.27471 -0.96153 -0.00098
vn -0.87559 0.04097 -0.48132
vn -0.95383 0.05129 -0.29592
vn -0.99821 0.05973 -0.00028
vn -0.97352 -0.22861 -0.00061
vn -0.76849 0.55988 -0.30977
vn -0.80306 0.59589 0.00017
vn 0.55776 -0.83000 -0.00003
vn 0.48607 -0.73422 -0.47397
vn 0.49145 -0.74631 -0.44888
vn 0.55464 -0.83209 -0.00002
vn 0.55530 -0.83165 -0.00003
vn 0.47755 -0.72645 -0.49418
vn 0.39505 -0.61342 -0.68385
vn 0.40679 -0.62644 -0.66490
vn 0.55110 -0.83444 -0.00004
vn 0.46611 -0.71826 -0.51658
vn 0.38017 -0.59953 -0.70430
vn 0.04753 0.03083 -0.99839
vn 0.04285 0.02784 -0.99869
vn 0.46025 -0.70117 -0.54454
vn 0.36835 -0.57412 -0.73124
vn 0.04935 0.03299 -0.99824
vn -0.22078 0.65521 -0.72246
vn -0.26784 0.79873 -0.53879
vn -0.27402 0.80815 -0.52136
vn -0.22912 0.66988 -0.70624
vn 0.22073 -0.27001 -0.93722
vn 0.05940 0.03971 -0.99744
vn -0.21155 0.63933 -0.73926
vn -0.26282 0.78748 -0.55750
vn -0.31833 0.94798 -0.00001
vn -0.31715 0.94837 -0.00000
vn -0.07008 0.35283 -0.93306
vn -0.24887 0.77929 -0.57513
vn -0.28818 0.88707 -0.36063
vn -0.24836 0.76283 -0.59700
vn -0.28704 0.88219 -0.37329
vn -0.15510 -0.98790 0.00020
vn -0.13568 -0.99075 0.00008
vn -0.13045 -0.87083 -0.47397
vn -0.16524 -0.91348 -0.37182
vn -0.14706 -0.94169 -0.30266
vn -0.14628 -0.98924 0.00023
vn -0.05007 -0.60571 -0.79411
vn -0.14767 -0.89781 -0.41488
vn -0.06597 -0.88151 -0.46753
vn -0.08539 -0.93919 -0.33261
vn -0.10409 -0.99457 0.00001
vn -0.06170 -0.90492 -0.42108
vn -0.08499 -0.99638 0.00008
vn 0.03021 0.99954 -0.00064
vn -0.30542 0.95222 0.00012
vn -0.27066 0.89149 -0.36330
vn 0.05512 0.94075 -0.33459
vn 0.31588 0.94880 -0.00157
vn -0.23164 0.81454 -0.53186
vn 0.07909 0.85824 -0.50712
vn -0.02858 -0.11421 -0.99305
vn -0.13016 -0.04572 -0.99044
vn 0.08425 -0.26965 -0.95927
vn -0.31047 0.85020 -0.42516
vn -0.26532 0.75113 -0.60449
vn -0.13027 -0.02790 -0.99109
vn -0.11141 -0.00048 -0.99377
vn -0.03689 -0.80830 -0.58762
vn -0.04005 -0.73965 -0.67180
vn -0.06125 -0.86743 -0.49378
vn -0.04502 -0.69369 -0.71887
vn -0.06489 -0.83940 -0.53963
vn -0.08638 -0.99626 0.00003
vn -0.08273 -0.99657 -0.00008
vn -0.35132 0.93626 0.00009
vn -0.35270 0.93574 0.00019
vn -0.30199 0.82522 -0.47729
vn -0.36175 0.93227 0.00013
vn -0.30180 0.80118 -0.51676
vn -0.24267 0.67007 -0.70151
vn -0.24893 0.70781 -0.66109
vn -0.22002 0.79955 -0.55885
vn -0.12673 0.34851 -0.92870
vn -0.09090 0.01464 -0.99575
vn -0.06464 0.02235 -0.99766
vn 0.01951 0.29807 -0.95434
vn -0.09459 -0.31876 -0.94311
vn -0.08017 -0.65198 -0.75399
vn -0.20322 -0.78638 -0.58337
vn -0.10624 -0.81465 -0.57015
vn -0.24876 -0.96857 -0.00025
vn -0.12583 -0.92766 -0.35160
vn -0.26596 0.96399 0.00017
vn 0.14629 0.98924 -0.00055
vn 0.10140 0.77894 -0.61885
vn 0.43811 0.89892 -0.00122
vn 0.60120 0.48118 -0.63798
vn 0.24976 0.11570 -0.96137
vn 0.84171 -0.00802 -0.53987
vn 0.38853 -0.11279 -0.91451
vn -0.22619 -0.33066 -0.91624
vn -0.11417 -0.34717 -0.93083
vn -0.62293 -0.58535 -0.51896
vn -0.35403 -0.74280 -0.56826
vn -0.70998 -0.70422 -0.00118
vn -0.42698 -0.90426 0.00027
vn 0.99967 0.02578 0.00008
vn 0.92610 -0.37729 0.00029
vn 0.82974 -0.35386 -0.43164
vn 0.96118 0.27593 -0.00008
vn 0.01833 0.99983 0.00007
vn -0.17039 0.98538 -0.00026
vn -0.17736 0.94160 -0.28624
vn 0.00584 0.93162 -0.36338
vn 0.03630 0.89853 -0.43741
vn 0.05066 0.99872 0.00030
vn -0.00582 0.84389 -0.53648
vn 0.02090 0.78255 -0.62224
vn 0.03239 0.74267 -0.66888
vn 0.05028 0.87504 -0.48144
vn 0.06810 0.99768 -0.00007
vn 0.05449 0.85953 -0.50817
vn 0.06940 0.99759 -0.00002
vn 0.61575 -0.78794 -0.00026
vn 0.47633 -0.87926 -0.00021
vn 0.44994 -0.83652 -0.31270
vn 0.59033 -0.75875 -0.27535
vn 0.73222 -0.59819 -0.32560
vn 0.77694 -0.62957 0.00003
vn 0.55505 -0.71670 -0.42221
vn 0.67272 -0.55520 -0.48909
vn 0.70893 -0.32059 -0.62821
vn -0.01170 -0.19646 -0.98044
vn -0.11253 -0.11901 -0.98650
vn -0.78233 -0.14572 -0.60558
vn -0.82925 0.30850 -0.46601
vn -0.89984 0.32640 -0.28941
vn -0.89179 -0.20487 -0.40340
vn -0.94192 0.33585 0.00079
vn -0.96613 -0.25807 -0.00104
vn -0.57435 0.77823 -0.25395
vn -0.58700 0.80959 -0.00006
vn -0.54720 0.72762 -0.41369
vn -0.17853 0.87837 -0.44338
vn 0.10300 0.10247 -0.98939
vn -0.04651 0.04484 -0.99791
vn 0.13334 0.06496 -0.98894
vn 0.30022 -0.76554 -0.56904
vn 0.41362 -0.77741 -0.47386
vn 0.33837 -0.85713 -0.38836
vn 0.25602 -0.85480 -0.45141
vn 0.21605 -0.73391 -0.64397
vn 0.08474 0.03161 -0.99590
vn 0.19614 -0.85213 -0.48519
vn 0.16049 -0.71543 -0.68001
vn 0.05333 0.01878 -0.99840
vn 0.14177 -0.85355 -0.50135
vn 0.11501 -0.71136 -0.69336
vn 0.04473 0.01062 -0.99894
vn 0.04017 0.00298 -0.99919
vn 0.03941 0.71694 -0.69602
vn 0.04845 0.69948 -0.71301
vn 0.06117 0.84802 -0.52643
vn 0.05761 0.68541 -0.72588
vn 0.07027 0.83895 -0.53965
vn 0.08327 0.99653 0.00001
vn 0.07401 0.99726 0.00002
vn 0.29093 -0.95674 -0.00002
vn 0.22832 -0.97359 -0.00005
vn 0.36869 -0.92955 -0.00010
vn 0.16696 -0.98596 -0.00007
vn 0.10181 -0.99480 0.00000
vn 0.08481 -0.85270 -0.51547
vn 0.04706 -0.99889 0.00004
vn 0.03856 -0.84838 -0.52798
vn 0.03025 -0.69886 -0.71462
vn 0.06751 -0.70623 -0.70475
vn 0.00201 -0.84408 -0.53622
vn 0.00021 -0.69306 -0.72088
vn 0.03313 -0.00393 -0.99944
vn 0.01882 -0.01069 -0.99977
vn 0.00386 -0.01746 -0.99984
vn 0.05525 0.67209 -0.73841
vn 0.04704 0.66069 -0.74918
vn 0.06346 0.82553 -0.56079
vn 0.07011 0.83173 -0.55074
vn 0.08061 0.99675 0.00002
vn 0.08545 0.99634 0.00000
vn 0.00392 -0.99999 -0.00000
vn -0.03222 -0.99948 -0.00003
vn -0.02813 -0.84110 -0.54015
vn -0.08628 -0.99627 -0.00009
vn -0.07250 -0.83942 -0.53862
vn -0.05889 -0.68511 -0.72606
vn -0.02418 -0.68889 -0.72446
vn -0.16740 -0.83262 -0.52793
vn -0.13503 -0.67663 -0.72384
vn -0.01507 -0.02526 -0.99957
vn -0.04593 -0.04080 -0.99811
vn 0.04242 0.65193 -0.75709
vn 0.05458 0.63917 -0.76713
vn 0.07565 0.81543 -0.57389
vn 0.06034 0.82031 -0.56873
vn 0.09738 0.99525 0.00002
vn 0.07922 0.99686 0.00002
vn -0.19832 -0.98014 0.00011
vn -0.44278 -0.89663 0.00053
vn -0.59746 -0.80190 0.00067
vn -0.98134 -0.19229 0.00024
vn 0.08485 0.99639 -0.00031
vn 0.06076 0.81939 -0.57000
vn 0.03571 0.62925 -0.77638
vn -0.12294 -0.05555 -0.99086
vn -0.18173 -0.05891 -0.98158
vn -0.01818 -0.56606 -0.82416
vn -0.09318 -0.43889 -0.89370
vn -0.19023 -0.80677 -0.55940
vn -0.21535 -0.97654 0.00015
vn -0.21320 0.13700 -0.96736
vn -0.54950 0.49797 -0.67088
vn -0.32024 0.70624 -0.63140
vn -0.10040 0.27796 -0.95533
vn -0.07415 0.32413 -0.94310
vn 0.21196 -0.26148 -0.94165
vn 0.45048 -0.68384 -0.57395
vn 0.43579 -0.67147 -0.59934
vn 0.55356 -0.83281 0.00016
vn 0.50825 -0.77106 -0.38361
vn -0.31929 0.94766 0.00000
vn -0.32716 0.94497 -0.00000
vn -0.28752 0.81373 -0.50515
vn -0.32321 0.94633 0.00001
vn -0.29104 0.82584 -0.48300
vn -0.25536 0.69608 -0.67101
vn -0.24618 0.67848 -0.69215
vn -0.29845 0.84239 -0.44867
vn -0.26763 0.72588 -0.63362
vn 0.04095 0.03076 -0.99869
vn 0.04786 0.04424 -0.99787
vn 0.05143 0.06271 -0.99671
vn 0.41808 -0.64433 -0.64035
vn 0.44346 -0.65637 -0.61035
vn 0.50951 -0.75167 -0.41881
vn 0.53049 -0.60618 -0.59256
vn 0.60096 -0.69401 -0.39648
vn 0.65126 -0.75886 0.00005
vn 0.56207 -0.82709 -0.00005
vn 0.78631 -0.47263 -0.39791
vn 0.85450 -0.51946 0.00006
vn 0.13412 -0.99097 -0.00020
vn 0.25655 -0.96653 0.00032
vn 0.22462 -0.86629 -0.44619
vn 0.26220 -0.96501 -0.00001
vn 0.22649 -0.85314 -0.46995
vn 0.18748 -0.72788 -0.65957
vn 0.18713 -0.74591 -0.63922
vn 0.22485 -0.84416 -0.48667
vn 0.18400 -0.71756 -0.67176
vn 0.06026 -0.00660 -0.99816
vn 0.05378 -0.00176 -0.99855
vn 0.05182 -0.00357 -0.99865
vn -0.02139 0.71939 -0.69427
vn -0.02198 0.70048 -0.71334
vn -0.02098 0.85009 -0.52623
vn -0.01979 0.68146 -0.73159
vn -0.02250 0.83783 -0.54546
vn -0.02528 0.99968 -0.00002
vn -0.01967 0.99981 -0.00001
vn -0.02069 0.82461 -0.56533
vn -0.02380 0.99972 0.00000
vn 0.19078 -0.90682 -0.37587
vn -0.08341 -0.99651 0.00149
vn -0.30586 -0.95207 0.00199
vn -0.93301 -0.35985 -0.00099
vn -0.99245 -0.12264 -0.00058
vn -0.00883 0.92487 -0.38018
vn -0.00596 0.79425 -0.60756
vn -0.00047 0.92073 -0.39019
vn -0.01988 0.93146 -0.36330
vn -0.01979 0.80929 -0.58708
vn -0.01841 0.63449 -0.77272
vn -0.01802 0.66043 -0.75068
vn 0.05929 -0.01941 -0.99805
vn 0.05730 -0.03100 -0.99788
vn 0.06096 -0.00906 -0.99810
vn 0.18215 -0.68359 -0.70677
vn 0.22279 -0.82145 -0.52496
vn 0.17451 -0.66892 -0.72256
vn 0.18601 -0.69994 -0.68956
vn 0.22799 -0.83176 -0.50616
vn 0.27004 -0.96285 0.00001
vn 0.26512 -0.96422 -0.00001
vn 0.26428 -0.96445 0.00001
vn 0.84624 0.53281 -0.00012
vn 0.77900 0.48419 -0.39839
vn 0.48137 0.87652 -0.00036
vn 0.99957 -0.02927 -0.00006
vn 0.91371 -0.02829 -0.40537
vn 0.78646 -0.02597 -0.61710
vn 0.67746 0.41450 -0.60765
vn 0.68614 -0.40661 -0.60323
vn -0.03368 0.07210 -0.99683
vn -0.09821 0.00378 -0.99516
vn 0.03111 0.08644 -0.99577
vn -0.44161 0.73199 -0.51882
vn -0.47388 0.81163 -0.34162
vn -0.71226 0.50758 -0.48481
vn -0.30812 0.75447 -0.57951
vn -0.33528 0.85381 -0.39824
vn -0.35560 0.93464 0.00019
vn -0.49471 0.86906 0.00047
vn -0.32417 0.94600 -0.00015
vn 0.55494 -0.83189 0.00000
vn -0.37749 0.84220 -0.38497
vn -0.66795 0.63001 -0.39615
vn -0.44603 0.09945 0.88947
vn -0.84641 -0.04564 0.53057
vn -0.80954 -0.27544 0.51844
vn -0.32607 -0.33626 0.88352
vn -0.03630 -0.39007 0.92007
vn -0.12598 0.18444 0.97474
vn -0.21243 -0.79864 0.56307
vn -0.04230 -0.80896 0.58634
vn -0.66034 0.62553 0.41554
vn -0.21960 0.63151 0.74362
vn -0.15067 0.83940 0.52222
vn -0.52095 0.77460 0.35861
vn -0.49639 -0.05843 0.86613
vn -0.90402 -0.12663 0.40829
vn -0.76056 -0.46177 0.45642
vn -0.49399 -0.27212 0.82579
vn -0.37941 -0.78692 0.48662
vn -0.30709 -0.65988 0.68575
vn 0.25503 -0.09845 0.96191
vn 0.11910 -0.11331 0.98639
vn 0.35840 -0.10498 0.92765
vn 0.71894 -0.07881 0.69059
vn 0.53271 0.58810 0.60857
vn 0.61903 0.65710 0.43015
vn 0.51444 -0.58008 0.63155
vn 0.22714 -0.22892 0.94657
vn 0.71284 -0.55914 0.42334
vn 0.61715 -0.66790 0.41598
vn -0.44689 -0.66234 0.60133
vn -0.75726 -0.41998 0.50017
vn -0.76047 0.03774 0.64827
vn -0.34880 -0.20877 0.91365
vn -0.52657 0.58703 0.61491
vn -0.81786 0.36098 0.44811
vn -0.22805 0.71117 0.66501
vn -0.25675 0.88310 0.39270
vn -0.06667 0.75670 0.65035
vn -0.07416 0.91531 0.39587
vn -0.01658 0.22955 0.97316
vn 0.08277 -0.37444 0.92355
vn 0.02485 0.27082 0.96231
vn 0.00018 0.77896 0.62707
vn 0.10425 -0.36744 0.92418
vn 0.16885 -0.78770 0.59247
vn 0.19768 -0.78480 0.58737
vn 0.11475 -0.36231 0.92497
vn 0.02890 0.30012 0.95346
vn 0.20181 -0.79143 0.57699
vn 0.23195 -0.89478 0.38155
vn 0.23346 -0.89908 0.37033
vn 0.21863 -0.79772 0.56200
vn 0.12310 -0.36219 0.92394
vn 0.25067 -0.90128 0.35336
vn 0.21777 -0.81071 0.54344
vn -0.01922 0.86115 0.50799
vn -0.02802 0.87063 0.49113
vn 0.00369 0.88387 0.46772
vn -0.02908 0.73386 0.67868
vn -0.00208 0.75144 0.65979
vn 0.14984 0.88968 0.43130
vn 0.12621 0.76915 0.62649
vn 0.07266 -0.01789 0.99720
vn 0.08713 -0.05586 0.99463
vn 0.38764 0.69805 0.60204
vn 0.44236 0.80176 0.40186
vn 0.02295 -0.11297 0.99333
vn 0.08720 -0.80020 0.59336
vn 0.11275 -0.90935 0.40045
vn -0.27416 -0.89432 0.35360
vn -0.26344 -0.78825 0.55611
vn -0.07666 -0.08665 0.99328
vn -0.78040 -0.53998 0.31529
vn -0.70925 -0.47864 0.51755
vn -0.95423 0.05100 0.29471
vn -0.87658 0.04070 0.47954
vn -0.76878 0.55859 0.31136
vn 0.49162 -0.74626 0.44878
vn 0.48652 -0.73396 0.47393
vn 0.47753 -0.72647 0.49417
vn 0.40754 -0.62599 0.66486
vn 0.39490 -0.61350 0.68387
vn 0.46639 -0.71812 0.51651
vn 0.38034 -0.59948 0.70425
vn 0.04283 0.02783 0.99869
vn 0.04761 0.03087 0.99839
vn 0.36981 -0.57345 0.73102
vn 0.46091 -0.70084 0.54441
vn 0.04939 0.03301 0.99823
vn -0.22972 0.66965 0.70626
vn -0.27437 0.80801 0.52137
vn -0.26806 0.79864 0.53882
vn -0.22077 0.65516 0.72251
vn 0.05945 0.03972 0.99744
vn 0.22086 -0.26989 0.93722
vn -0.26282 0.78748 0.55749
vn -0.21157 0.63932 0.73926
vn -0.24928 0.77913 0.57517
vn -0.07028 0.35258 0.93314
vn -0.28811 0.88711 0.36061
vn -0.28740 0.88212 0.37318
vn -0.24978 0.76274 0.59652
vn -0.16134 -0.91494 0.36995
vn -0.12295 -0.87303 0.47192
vn -0.14640 -0.94240 0.30075
vn -0.14766 -0.89966 0.41085
vn -0.04695 -0.61127 0.79003
vn -0.08042 -0.93980 0.33212
vn -0.05758 -0.88261 0.46657
vn -0.05864 -0.90520 0.42092
vn 0.05830 0.94011 0.33584
vn -0.27017 0.89142 0.36384
vn 0.08333 0.85602 0.51019
vn -0.22988 0.81453 0.53263
vn -0.03036 -0.12337 0.99190
vn -0.13014 -0.04621 0.99042
vn 0.08143 -0.27794 0.95714
vn -0.26973 0.75035 0.60351
vn -0.31285 0.84957 0.42468
vn -0.13031 -0.02766 0.99109
vn -0.11035 -0.00017 0.99389
vn -0.06162 -0.86738 0.49381
vn -0.04147 -0.73939 0.67199
vn -0.03411 -0.80874 0.58718
vn -0.06366 -0.83873 0.54081
vn -0.04212 -0.69191 0.72075
vn -0.30220 0.82515 0.47729
vn -0.30233 0.80070 0.51718
vn -0.24979 0.70776 0.66082
vn -0.24312 0.66936 0.70204
vn -0.12754 0.34640 0.92937
vn -0.22136 0.79787 0.56072
vn -0.09077 0.01462 0.99576
vn -0.06432 0.02284 0.99767
vn -0.09577 -0.32212 0.94184
vn 0.01911 0.29509 0.95528
vn -0.10582 -0.81446 0.57049
vn -0.20331 -0.78729 0.58209
vn -0.07986 -0.65201 0.75399
vn -0.12535 -0.92743 0.35237
vn 0.10181 0.77873 0.61905
vn 0.60199 0.48255 0.63620
vn 0.25103 0.11630 0.96097
vn 0.38760 -0.11355 0.91481
vn 0.84115 -0.00886 0.54073
vn -0.11378 -0.34408 0.93202
vn -0.23025 -0.33378 0.91410
vn -0.35579 -0.73953 0.57140
vn -0.62529 -0.58809 0.51300
vn 0.82987 -0.35393 0.43133
vn 0.00921 0.93227 0.36163
vn -0.17439 0.94238 0.28550
vn 0.03591 0.89865 0.43719
vn 0.02152 0.78318 0.62142
vn -0.00077 0.84597 0.53323
vn 0.04941 0.87494 0.48170
vn 0.03051 0.74226 0.66942
vn 0.05406 0.85955 0.50819
vn 0.58920 -0.75969 0.27516
vn 0.44716 -0.83860 0.31112
vn 0.73318 -0.59714 0.32537
vn 0.67517 -0.55255 0.48872
vn 0.55257 -0.71855 0.42233
vn 0.71048 -0.31920 0.62716
vn -0.00328 -0.20010 0.97977
vn -0.09879 -0.12001 0.98785
vn -0.89140 -0.20939 0.40194
vn -0.89597 0.33064 0.29652
vn -0.82100 0.31250 0.47782
vn -0.78236 -0.15256 0.60385
vn -0.57440 0.77775 0.25528
vn -0.54726 0.72619 0.41612
vn -0.17653 0.87925 0.44245
vn 0.10202 0.10342 0.98939
vn -0.04410 0.04531 0.99800
vn 0.13269 0.06389 0.98910
vn 0.33764 -0.85768 0.38780
vn 0.41009 -0.78085 0.47128
vn 0.29934 -0.76648 0.56824
vn 0.21839 -0.73308 0.64412
vn 0.25769 -0.85426 0.45148
vn 0.08520 0.03184 0.99585
vn 0.16118 -0.71529 0.67998
vn 0.19638 -0.85211 0.48513
vn 0.05375 0.01892 0.99837
vn 0.11530 -0.71118 0.69349
vn 0.14187 -0.85353 0.50136
vn 0.04488 0.01064 0.99894
vn 0.03997 0.00287 0.99920
vn 0.06112 0.84799 0.52647
vn 0.04843 0.69944 0.71305
vn 0.03886 0.71691 0.69608
vn 0.07011 0.83892 0.53973
vn 0.05728 0.68532 0.72599
vn 0.08489 -0.85266 0.51552
vn 0.03861 -0.84836 0.52801
vn 0.06765 -0.70614 0.70483
vn 0.03021 -0.69887 0.71461
vn 0.00029 -0.69301 0.72093
vn 0.00206 -0.84406 0.53625
vn 0.03312 -0.00392 0.99944
vn 0.01886 -0.01069 0.99977
vn 0.00380 -0.01758 0.99984
vn 0.07012 0.83175 0.55071
vn 0.06353 0.82554 0.56075
vn 0.04717 0.66076 0.74911
vn 0.05529 0.67215 0.73835
vn -0.02812 -0.84111 0.54013
vn -0.07244 -0.83948 0.53854
vn -0.02416 -0.68888 0.72447
vn -0.05888 -0.68513 0.72604
vn -0.13475 -0.67698 0.72356
vn -0.16742 -0.83266 0.52786
vn -0.01512 -0.02509 0.99957
vn -0.04627 -0.03926 0.99816
vn 0.06034 0.82035 0.56868
vn 0.07564 0.81558 0.57368
vn 0.05450 0.63958 0.76679
vn 0.04242 0.65206 0.75698
vn 0.06030 0.81948 0.56993
vn 0.03590 0.62891 0.77665
vn -0.12148 -0.05399 0.99112
vn -0.00978 -0.56837 0.82272
vn -0.09308 -0.43614 0.89505
vn -0.18827 -0.80663 0.56027
vn -0.21602 0.13907 0.96643
vn -0.10434 0.28080 0.95408
vn -0.32294 0.70715 0.62901
vn -0.54986 0.49755 0.67089
vn -0.07507 0.32417 0.94302
vn 0.21203 -0.26167 0.94158
vn 0.43554 -0.67166 0.59932
vn 0.45011 -0.68396 0.57411
vn 0.50808 -0.77118 0.38358
vn -0.28744 0.81377 0.50513
vn -0.29142 0.82563 0.48312
vn -0.24602 0.67856 0.69212
vn -0.25586 0.69572 0.67120
vn -0.26957 0.72464 0.63421
vn -0.29930 0.84197 0.44890
vn 0.04102 0.03082 0.99868
vn 0.04792 0.04421 0.99787
vn 0.05131 0.06212 0.99675
vn 0.50935 -0.75175 0.41884
vn 0.44316 -0.65643 0.61050
vn 0.41800 -0.64453 0.64021
vn 0.60098 -0.69406 0.39637
vn 0.53079 -0.60621 0.59226
vn 0.78609 -0.47265 0.39834
vn 0.22448 -0.86652 0.44581
vn 0.22652 -0.85312 0.46997
vn 0.18795 -0.74668 0.63808
vn 0.18742 -0.72786 0.65961
vn 0.18469 -0.71744 0.67169
vn 0.22518 -0.84408 0.48664
vn 0.06024 -0.00664 0.99816
vn 0.05343 -0.00179 0.99857
vn 0.05157 -0.00360 0.99866
vn -0.02092 0.85011 0.52620
vn -0.02201 0.70052 0.71330
vn -0.02141 0.71942 0.69425
vn -0.02296 0.83781 0.54547
vn -0.02066 0.68138 0.73164
vn -0.02077 0.82461 0.56532
vn 0.19082 -0.90651 0.37661
vn -0.00066 0.92074 0.39017
vn -0.00640 0.79418 0.60764
vn -0.00865 0.92488 0.38015
vn -0.01968 0.80929 0.58708
vn -0.01979 0.93146 0.36330
vn -0.01829 0.63449 0.77271
vn -0.01770 0.66045 0.75066
vn 0.05700 -0.03108 0.99789
vn 0.05926 -0.01942 0.99805
vn 0.06101 -0.00904 0.99810
vn 0.17518 -0.66881 0.72250
vn 0.22289 -0.82143 0.52495
vn 0.18201 -0.68364 0.70676
vn 0.22805 -0.83175 0.50614
vn 0.18613 -0.69994 0.68952
vn 0.77850 0.48395 0.39967
vn 0.91305 -0.02825 0.40687
vn 0.67592 0.41355 0.61000
vn 0.78440 -0.02588 0.61971
vn 0.68549 -0.40671 0.60390
vn -0.09373 0.00410 0.99559
vn -0.03468 0.07442 0.99662
vn 0.02931 0.08859 0.99564
vn -0.71180 0.50569 0.48746
vn -0.47505 0.81058 0.34247
vn -0.44146 0.73153 0.51959
vn -0.33624 0.85358 0.39792
vn -0.30899 0.75479 0.57864
vn -0.37760 0.84218 0.38491
vn -0.66789 0.62999 0.39628
f 1//1 6//2 7//3 8//4
f 1//1 8//4 9//5 10//6
f 1//1 10//6 11//7 6//8
f 2//9 13//10 14//11 15//12
f 2//13 298//14 12//15 13//10
f 2//16 15//16 299//17 298//17
f 3//18 16//19 15//12 14//11
f 3//20 17//21 18//22 16//23
f 4//24 22//25 23//26 24//27
f 4//24 25//28 26//29 22//25
f 4//24 24//27 27//30 28//31
f 4//24 20//32 19//32 25//28
f 4//24 28//31 21//33 20//34
f 5//35 30//36 29//37 300//38
f 5//35 300//38 301//39 31//40
f 5//41 31//40 32//42 30//36
f 33//43 34//44 8//4 7//3
f 34//44 33//43 35//45 302//46
f 34//44 302//46 303//47 36//48
f 34//44 36//48 9//5 8//4
f 36//48 303//47 37//49 38//50
f 36//48 38//50 39//51 9//5
f 39//51 40//52 10//6 9//5
f 39//51 38//50 41//53 42//54
f 39//51 42//54 43//55 40//52
f 43//55 44//56 45//57 40//52
f 43//55 42//54 46//58 47//59
f 43//55 47//59 48//60 44//56
f 48//60 49//61 50//62 44//56
f 48//60 47//59 51//63 52//64
f 48//60 52//64 304//65 49//61
f 304//65 52//64 53//66 305//67
f 306//68 56//69 57//70 54//71
f 306//68 307//72 58//73 56//69
f 58//73 59//74 60//75 56//69
f 58//73 307//72 61//76 62//77
f 58//73 62//77 63//78 59//74
f 63//79 64//79 65//80 59//80
f 63//78 62//77 66//81 67//82
f 63//79 67//83 68//83 64//79
f 68//84 69//85 70//86 64//87
f 68//83 67//83 71//88 72//88
f 68//84 72//89 73//90 69//85
f 73//90 74//91 75//92 69//85
f 73//90 72//89 76//93 77//94
f 73//90 77//94 308//95 74//96
f 308//95 77//94 78//97 309//98
f 81//99 82//100 83//101 79//102
f 81//99 310//103 84//104 82//100
f 84//104 85//105 86//106 82//100
f 84//104 310//103 311//107 87//108
f 84//104 87//108 88//109 85//105
f 88//110 89//110 90//111 85//111
f 88//109 87//108 91//112 92//113
f 88//110 92//114 93//114 89//110
f 93//115 94//116 95//117 89//118
f 93//114 92//114 96//119 97//120
f 93//115 97//121 98//122 94//116
f 98//122 99//123 100//124 94//116
f 98//122 97//121 101//125 102//126
f 98//122 102//126 312//127 99//123
f 312//127 102//126 103//128 313//129
f 107//130 106//131 109//132 110//133
f 107//130 110//133 111//134 108//135
f 111//134 110//133 112//136 113//137
f 111//134 113//137 114//138 115//139
f 111//134 115//139 116//140 108//135
f 116//140 115//139 117//141 314//142
f 315//143 118//144 119//145 120//146
f 315//143 120//146 25//28 19//147
f 120//146 119//145 121//148 122//149
f 120//146 122//149 26//29 25//28
f 122//150 121//151 114//151 113//150
f 122//150 113//150 112//136 26//152
f 121//148 119//145 123//153 124//154
f 121//151 124//155 125//155 114//151
f 125//155 124//155 126//156 127//156
f 125//157 127//158 128//159 117//141
f 125//157 117//141 115//139 114//138
f 128//159 127//158 129//160 130//161
f 128//159 130//161 316//162 131//163
f 128//159 131//163 314//142 117//141
f 132//164 317//165 133//166 123//153
f 132//164 123//153 119//145 118//144
f 133//166 317//165 318//167 134//168
f 133//166 134//168 135//169 126//170
f 133//166 126//170 124//154 123//153
f 135//169 134//168 136//171 137//172
f 135//173 137//172 138//174 129//173
f 135//173 129//173 127//156 126//156
f 138//174 137//172 139//175 140//176
f 138//177 140//176 141//178 142//179
f 138//177 142//179 130//161 129//160
f 142//179 141//178 143//180 319//181
f 142//179 319//181 316//162 130//161
f 321//182 320//183 144//184 136//171
f 321//182 136//171 134//168 318//167
f 144//184 320//183 145//185 146//186
f 144//184 146//186 147//187 139//175
f 144//184 139//175 137//172 136//171
f 147//187 146//186 148//188 149//189
f 147//187 149//189 150//190 151//191
f 147//187 151//191 140//176 139//175
f 151//191 150//190 152//192 153//193
f 151//191 153//193 141//178 140//176
f 153//193 152//192 154//194 155//195
f 153//193 155//195 143//180 141//178
f 156//196 157//197 158//198 148//188
f 156//196 148//188 146//186 145//199
f 322//200 323//201 161//202 162//203
f 322//200 162//203 163//204 160//205
f 163//204 162//203 164//206 165//207
f 163//204 165//207 166//208 167//209
f 163//204 167//209 168//210 160//205
f 168//210 167//209 169//211 170//212
f 173//213 172//214 174//215 175//216
f 173//213 175//216 176//217 159//218
f 176//217 158//198 157//197 159//218
f 176//217 175//216 177//219 178//220
f 176//217 178//220 179//221 158//198
f 179//221 149//189 148//188 158//198
f 179//222 178//223 180//223 181//222
f 179//222 181//222 150//190 149//189
f 181//224 180//225 182//226 183//227
f 181//224 183//227 152//192 150//190
f 183//227 182//226 324//228 325//229
f 183//227 325//229 154//194 152//192
f 324//228 182//226 184//230 326//231
f 184//230 182//226 180//225 185//232
f 184//230 185//232 186//233 161//202
f 184//230 161//202 323//201 326//231
f 186//234 185//235 177//235 187//234
f 186//234 187//234 188//236 164//236
f 186//233 164//206 162//203 161//202
f 188//237 187//238 174//215 189//239
f 188//237 189//239 190//240 191//241
f 188//236 191//242 165//242 164//236
f 191//241 190//240 192//243 193//244
f 191//242 193//245 166//245 165//242
f 193//244 192//243 194//246 195//247
f 193//245 195//248 196//248 166//245
f 196//248 195//248 197//249 198//249
f 196//250 198//251 199//252 169//211
f 196//250 169//211 167//209 166//208
f 199//252 198//251 200//253 201//254
f 199//252 201//254 327//255 328//256
f 199//252 328//256 170//212 169//211
f 329//257 202//258 192//243 190//240
f 329//257 190//240 189//239 171//259
f 202//258 330//260 194//246 192//243
f 330//260 331//261 203//262 194//246
f 203//262 331//261 204//263 205//264
f 203//262 205//264 206//265 197//266
f 203//262 197//266 195//247 194//246
f 206//265 205//264 207//267 208//268
f 206//269 208//270 209//270 200//269
f 206//269 200//269 198//249 197//249
f 209//270 208//270 210//271 211//271
f 209//272 211//273 212//274 213//275
f 209//272 213//275 201//254 200//253
f 213//275 212//274 214//276 215//277
f 213//275 215//277 327//255 201//254
f 216//278 332//279 217//280 207//267
f 216//278 207//267 205//264 204//263
f 217//280 332//279 218//281 219//282
f 217//280 219//282 220//283 210//284
f 217//280 210//284 208//268 207//267
f 220//283 219//282 221//285 222//286
f 220//287 222//288 223//288 224//287
f 220//287 224//287 211//271 210//271
f 224//289 223//290 225//291 226//292
f 224//289 226//292 212//274 211//273
f 226//292 225//291 333//293 227//294
f 226//292 227//294 214//276 212//274
f 228//295 229//296 18//22 221//285
f 228//295 221//285 219//282 218//281
f 229//296 230//297 16//23 18//22
f 230//298 299//298 15//12 16//19
f 334//299 333//293 225//291 231//300
f 334//299 231//300 13//10 12//15
f 231//300 225//291 223//290 232//301
f 231//300 232//301 14//11 13//10
f 232//302 223//288 222//288 17//302
f 232//302 17//302 3//303 14//303
f 222//286 221//285 18//22 17//21
f 189//239 174//215 172//214 171//259
f 187//238 177//219 175//216 174//215
f 185//235 180//223 178//223 177//235
f 112//136 233//304 22//25 26//152
f 112//136 110//133 109//132 233//304
f 233//304 234//305 23//26 22//25
f 233//304 109//132 235//306 234//305
f 235//306 30//36 32//42 234//305
f 235//306 109//132 106//131 105//307
f 235//306 105//307 29//37 30//36
f 234//305 32//42 236//308 23//26
f 236//308 237//309 238//310 239//311
f 236//308 239//311 24//27 23//26
f 236//308 32//42 31//40 237//309
f 239//311 238//310 103//128 240//312
f 239//311 240//312 27//30 24//27
f 240//312 103//128 102//126 101//125
f 240//312 101//125 241//313 27//30
f 241//313 101//125 97//120 96//119
f 241//313 96//119 242//314 243//315
f 241//313 243//315 28//31 27//30
f 243//315 242//314 335//316 244//317
f 243//315 244//317 21//33 28//31
f 245//318 336//319 246//320 95//117
f 245//318 95//117 94//116 100//124
f 246//320 336//319 337//321 247//322
f 246//320 247//322 248//323 90//324
f 246//320 90//324 89//118 95//117
f 248//323 247//322 249//325 250//326
f 248//327 250//328 251//328 86//327
f 248//327 86//327 85//111 90//111
f 251//328 250//328 252//329 253//329
f 251//330 253//331 254//332 83//101
f 251//330 83//101 82//100 86//106
f 254//332 253//331 255//333 256//334
f 254//332 256//334 257//335 80//336
f 254//332 80//336 79//102 83//101
f 257//335 256//334 258//337 338//338
f 259//339 339//340 260//341 70//86
f 259//339 70//86 69//85 75//92
f 260//341 339//340 340//342 261//343
f 260//341 261//343 262//344 65//345
f 260//341 65//345 64//87 70//86
f 262//344 261//343 263//346 264//347
f 262//348 264//349 265//349 60//348
f 262//348 60//348 59//80 65//80
f 265//349 264//349 266//350 267//350
f 265//351 267//352 268//353 57//70
f 265//351 57//70 56//69 60//75
f 268//353 267//352 269//354 270//355
f 268//353 270//355 271//356 55//357
f 268//353 55//357 54//71 57//70
f 271//356 270//355 272//358 341//359
f 273//360 342//361 11//7 45//57
f 273//360 45//57 44//56 50//62
f 342//361 343//362 6//8 11//7
f 343//363 274//364 7//3 6//2
f 274//364 35//45 33//43 7//3
f 344//365 276//366 41//53 275//367
f 344//365 345//368 277//369 276//366
f 277//369 278//370 46//58 276//366
f 277//369 345//368 341//359 272//358
f 277//369 272//358 279//371 278//370
f 279//372 280//372 51//63 278//373
f 279//371 272//358 270//355 269//354
f 279//372 269//374 281//374 280//372
f 281//375 282//376 53//66 280//377
f 281//374 269//374 267//350 266//350
f 281//375 266//378 283//379 282//376
f 283//379 284//380 346//381 282//376
f 283//379 266//378 264//347 263//346
f 283//379 263//346 285//382 284//380
f 285//382 263//346 261//343 340//342
f 287//383 288//384 66//81 286//385
f 287//383 347//386 289//387 288//384
f 289//387 290//388 71//389 288//384
f 289//387 347//386 338//338 258//337
f 289//387 258//337 291//390 290//388
f 291//391 292//391 76//392 290//392
f 291//390 258//337 256//334 255//333
f 291//391 255//393 293//393 292//391
f 293//394 294//395 78//97 292//396
f 293//393 255//393 253//329 252//329
f 293//394 252//397 295//398 294//395
f 295//398 296//399 348//400 294//395
f 295//398 252//397 250//326 249//325
f 295//398 249//325 349//401 296//399
f 349//401 249//325 247//322 337//321
f 297//402 91//112 87//108 311//107
f 297//402 335//316 242//314 91//112
f 294//395 348//400 309//98 78//97
f 292//396 78//97 77//94 76//93
f 290//392 76//392 72//88 71//88
f 288//384 71//389 67//82 66//81
f 286//385 66//81 62//77 61//76
f 282//376 346//381 305//67 53//66
f 280//377 53//66 52//64 51//63
f 278//373 51//63 47//59 46//58
f 276//366 46//58 42//54 41//53
f 275//367 41//53 38//50 37//49
f 242//314 96//119 92//113 91//112
f 238//310 104//403 313//129 103//128
f 238//310 237//309 350//404 104//403
f 350//404 237//309 31//40 301//39
f 45//57 11//7 10//6 40//52
f 358//405 357//406 356//407 351//408
f 360//409 359//410 358//405 351//408
f 356//411 361//412 360//409 351//408
f 364//413 363//414 362//415 352//416
f 362//415 12//15 298//14 352//416
f 298//17 299//17 364//413 352//416
f 363//417 364//418 365//419 353//420
f 365//419 367//421 366//422 353//420
f 370//423 369//424 368//425 354//426
f 368//425 372//427 371//428 354//426
f 374//429 373//430 370//423 354//426
f 371//428 19//32 20//32 354//426
f 20//431 21//432 374//429 354//426
f 300//38 29//37 375//433 355//434
f 376//435 301//39 300//38 355//434
f 375//433 377//436 376//435 355//434
f 357//406 358//405 379//437 378//438
f 302//46 35//45 378//438 379//437
f 380//439 303//440 302//46 379//437
f 358//405 359//410 380//439 379//437
f 381//441 37//442 303//440 380//439
f 359//410 382//443 381//441 380//439
f 359//410 360//409 383//444 382//443
f 385//445 384//446 381//441 382//443
f 383//444 386//447 385//445 382//443
f 383//444 388//448 387//449 386//447
f 390//450 389//451 385//445 386//447
f 387//449 391//452 390//450 386//447
f 387//449 50//453 49//454 391//452
f 393//455 392//456 390//450 391//452
f 49//454 304//457 393//455 391//452
f 305//67 394//458 393//455 304//457
f 54//71 396//459 395//460 306//68
f 395//460 397//461 307//72 306//68
f 395//460 399//462 398//463 397//461
f 400//464 61//76 307//72 397//461
f 398//463 401//465 400//464 397//461
f 398//466 403//466 402//467 401//467
f 405//468 404//469 400//464 401//465
f 402//467 406//470 405//470 401//467
f 402//471 408//472 407//473 406//474
f 410//475 409//475 405//470 406//470
f 407//473 411//476 410//477 406//474
f 407//473 75//92 74//91 411//476
f 413//478 412//479 410//477 411//476
f 74//96 308//95 413//478 411//476
f 309//98 414//480 413//478 308//95
f 79//102 416//481 415//482 81//99
f 415//482 417//483 310//103 81//99
f 415//482 419//484 418//485 417//483
f 420//486 311//107 310//103 417//483
f 418//485 421//487 420//486 417//483
f 418//488 423//488 422//489 421//489
f 425//490 424//491 420//486 421//487
f 422//489 426//492 425//492 421//489
f 422//493 428//494 427//495 426//496
f 430//497 429//498 425//492 426//492
f 427//495 431//499 430//500 426//496
f 427//495 100//124 99//123 431//499
f 433//501 432//502 430//500 431//499
f 99//123 312//503 433//501 431//499
f 313//504 434//505 433//501 312//503
f 436//506 435//507 106//131 107//130
f 108//135 437//508 436//506 107//130
f 439//509 438//510 436//506 437//508
f 441//511 440//512 439//509 437//508
f 108//135 116//140 441//511 437//508
f 314//142 442//513 441//511 116//140
f 444//514 443//515 118//144 315//143
f 19//147 371//428 444//514 315//143
f 446//516 445//517 443//515 444//514
f 371//428 372//427 446//516 444//514
f 439//518 440//519 445//519 446//518
f 372//520 438//510 439//518 446//518
f 448//521 447//522 443//515 445//517
f 440//519 449//523 448//523 445//519
f 451//524 450//524 448//523 449//523
f 442//513 452//525 451//526 449//527
f 440//512 441//511 442//513 449//527
f 454//528 453//529 451//526 452//525
f 131//163 316//162 454//528 452//525
f 442//513 314//142 131//163 452//525
f 447//522 455//530 317//165 132//164
f 118//144 443//515 447//522 132//164
f 456//531 318//167 317//165 455//530
f 450//532 457//533 456//531 455//530
f 447//522 448//521 450//532 455//530
f 459//534 458//535 456//531 457//533
f 453//536 460//537 459//534 457//536
f 450//524 451//524 453//536 457//536
f 462//538 461//539 459//534 460//537
f 464//540 463//541 462//538 460//542
f 453//529 454//528 464//540 460//542
f 319//543 143//180 463//541 464//540
f 454//528 316//162 319//543 464//540
f 458//535 465//544 320//183 321//182
f 318//167 456//531 458//535 321//182
f 466//545 145//185 320//183 465//544
f 461//539 467//546 466//545 465//544
f 458//535 459//534 461//539 465//544
f 469//547 468//548 466//545 467//546
f 471//549 470//550 469//547 467//546
f 461//539 462//538 471//549 467//546
f 473//551 472//552 470//550 471//549
f 462//538 463//541 473//551 471//549
f 155//195 154//194 472//552 473//551
f 463//541 143//180 155//195 473//551
f 468//548 474//553 157//197 156//196
f 145//199 466//545 468//548 156//196
f 476//554 475//555 323//201 322//200
f 160//205 477//556 476//554 322//200
f 479//557 478//558 476//554 477//556
f 481//559 480//560 479//557 477//556
f 160//205 168//210 481//559 477//556
f 170//212 482//561 481//559 168//210
f 484//562 483//563 172//214 173//213
f 159//218 485//564 484//562 173//213
f 159//218 157//197 474//553 485//564
f 487//565 486//566 484//562 485//564
f 474//553 488//567 487//565 485//564
f 474//553 468//548 469//547 488//567
f 490//568 489//569 487//569 488//568
f 469//547 470//550 490//568 488//568
f 492//570 491//571 489//572 490//573
f 470//550 472//552 492//570 490//573
f 325//229 324//228 491//571 492//570
f 472//552 154//194 325//229 492//570
f 326//231 493//574 491//571 324//228
f 494//575 489//572 491//571 493//574
f 475//555 495//576 494//575 493//574
f 326//231 323//201 475//555 493//574
f 496//577 486//578 494//578 495//577
f 478//579 497//579 496//577 495//577
f 475//555 476//554 478//558 495//576
f 498//580 483//563 496//581 497//582
f 500//583 499//584 498//580 497//582
f 478//579 479//585 500//585 497//579
f 502//586 501//587 499//584 500//583
f 479//585 480//588 502//588 500//585
f 504//589 503//590 501//587 502//586
f 480//588 505//591 504//591 502//588
f 507//592 506//592 504//591 505//591
f 482//561 508//593 507//594 505//595
f 480//560 481//559 482//561 505//595
f 510//596 509//597 507//594 508//593
f 328//256 327//255 510//596 508//593
f 482//561 170//212 328//256 508//593
f 499//584 501//587 202//258 329//257
f 171//259 498//580 499//584 329//257
f 501//587 503//590 330//260 202//258
f 503//590 511//598 331//261 330//260
f 512//599 204//263 331//261 511//598
f 506//600 513//601 512//599 511//598
f 503//590 504//589 506//600 511//598
f 515//602 514//603 512//599 513//601
f 509//604 516//605 515//605 513//604
f 506//592 507//592 509//604 513//604
f 518//606 517//606 515//605 516//605
f 520//607 519//608 518//609 516//610
f 509//597 510//596 520//607 516//610
f 215//277 214//276 519//608 520//607
f 510//596 327//255 215//277 520//607
f 514//603 521//611 332//279 216//278
f 204//263 512//599 514//603 216//278
f 522//612 218//281 332//279 521//611
f 517//613 523//614 522//612 521//611
f 514//603 515//602 517//613 521//611
f 525//615 524//616 522//612 523//614
f 527//617 526//618 525//618 523//617
f 517//606 518//606 527//617 523//617
f 529//619 528//620 526//621 527//622
f 518//609 519//608 529//619 527//622
f 227//294 333//293 528//620 529//619
f 519//608 214//276 227//294 529//619
f 524//616 367//421 229//296 228//295
f 218//281 522//612 524//616 228//295
f 367//421 365//419 230//297 229//296
f 365//419 364//418 299//298 230//298
f 530//623 528//620 333//293 334//299
f 12//15 362//415 530//623 334//299
f 531//624 526//621 528//620 530//623
f 362//415 363//414 531//624 530//623
f 366//625 525//618 526//618 531//625
f 363//417 353//420 366//625 531//625
f 366//422 367//421 524//616 525//615
f 171//259 172//214 483//563 498//580
f 483//563 484//562 486//566 496//581
f 486//578 487//569 489//569 494//578
f 372//520 368//425 532//626 438//510
f 532//626 435//507 436//506 438//510
f 368//425 369//424 533//627 532//626
f 533//627 534//628 435//507 532//626
f 533//627 377//436 375//433 534//628
f 105//307 106//131 435//507 534//628
f 375//433 29//37 105//307 534//628
f 369//424 535//629 377//436 533//627
f 538//630 537//631 536//632 535//629
f 369//424 370//423 538//630 535//629
f 536//632 376//435 377//436 535//629
f 539//633 434//505 537//631 538//630
f 370//423 373//430 539//633 538//630
f 432//502 433//501 434//505 539//633
f 373//430 540//634 432//502 539//633
f 429//498 430//497 432//502 540//634
f 542//635 541//636 429//498 540//634
f 373//430 374//429 542//635 540//634
f 244//637 335//316 541//636 542//635
f 374//429 21//432 244//637 542//635
f 428//494 543//638 336//319 245//318
f 100//124 427//495 428//494 245//318
f 544//639 337//321 336//319 543//638
f 423//640 545//641 544//639 543//638
f 428//494 422//493 423//640 543//638
f 547//642 546//643 544//639 545//641
f 419//644 548//645 547//645 545//644
f 423//488 418//488 419//644 545//644
f 550//646 549//646 547//645 548//645
f 416//481 551//647 550//648 548//649
f 419//484 415//482 416//481 548//649
f 553//650 552//651 550//648 551//647
f 80//336 257//335 553//650 551//647
f 416//481 79//102 80//336 551//647
f 338//338 554//652 553//650 257//335
f 408//472 555//653 339//340 259//339
f 75//92 407//473 408//472 259//339
f 556//654 340//342 339//340 555//653
f 403//655 557//656 556//654 555//653
f 408//472 402//471 403//655 555//653
f 559//657 558//658 556//654 557//656
f 399//659 560//660 559//660 557//659
f 403//466 398//466 399//659 557//659
f 562//661 561//661 559//660 560//660
f 396//459 563//662 562//663 560//664
f 399//462 395//460 396//459 560//664
f 565//665 564//666 562//663 563//662
f 55//357 271//356 565//665 563//662
f 396//459 54//71 55//357 563//662
f 341//359 566//667 565//665 271//356
f 388//448 361//412 342//361 273//668
f 50//453 387//449 388//448 273//668
f 361//412 356//411 343//362 342//361
f 356//407 357//406 274//364 343//363
f 357//406 378//438 35//45 274//364
f 275//669 384//446 567//670 344//671
f 567//670 568//672 345//673 344//671
f 567//670 389//451 569//674 568//672
f 566//667 341//359 345//673 568//672
f 569//674 570//675 566//667 568//672
f 569//676 392//456 571//677 570//677
f 564//666 565//665 566//667 570//675
f 571//677 572//678 564//678 570//677
f 571//679 394//458 573//680 572//681
f 561//661 562//661 564//678 572//678
f 573//680 574//682 561//683 572//681
f 573//680 346//381 284//380 574//682
f 558//658 559//657 561//683 574//682
f 284//380 285//382 558//658 574//682
f 340//342 556//654 558//658 285//382
f 286//385 404//469 575//684 287//383
f 575//684 576//685 347//386 287//383
f 575//684 409//686 577//687 576//685
f 554//652 338//338 347//386 576//685
f 577//687 578//688 554//652 576//685
f 577//689 412//689 579//690 578//690
f 552//651 553//650 554//652 578//688
f 579//690 580//691 552//691 578//690
f 579//692 414//480 581//693 580//694
f 549//646 550//646 552//691 580//691
f 581//693 582//695 549//696 580//694
f 581//693 348//400 296//399 582//695
f 546//643 547//642 549//696 582//695
f 296//399 349//401 546//643 582//695
f 337//321 544//639 546//643 349//401
f 311//107 420//486 424//491 297//402
f 424//491 541//636 335//316 297//402
f 414//480 309//98 348//400 581//693
f 412//479 413//478 414//480 579//692
f 409//475 410//475 412//689 577//689
f 404//469 405//468 409//686 575//684
f 61//76 400//464 404//469 286//385
f 394//458 305//67 346//381 573//680
f 392//456 393//455 394//458 571//679
f 389//451 390//450 392//456 569//676
f 384//446 385//445 389//451 567//670
f 37//442 381//441 384//446 275//669
f 424//491 425//490 429//498 541//636
f 434//505 313//504 104//697 537//631
f 104//697 350//698 536//632 537//631
f 301//39 376//435 536//632 350//698
f 383//444 360//409 361//412 388//448
