# pilowlava3D glyph '5' variant 1 — Vincent Wagner / Velvetyne, Free Art License
v 0.24445 1.00508 -0.43310
v 0.50930 3.98148 -0.47595
v 3.40182 4.20753 -0.28649
v 0.40568 1.11201 -0.44088
v 0.53790 0.92838 -0.49905
v 0.29005 0.78130 -0.48933
v 0.07461 0.67140 -0.29880
v 0.08603 1.03056 -0.28205
v 0.27883 1.27064 -0.29023
v 0.28840 4.15949 -0.24956
v 0.48458 4.24331 -0.29019
v 0.21308 3.95912 -0.29723
v 0.78391 4.30982 -0.28455
v 0.82565 4.13524 -0.46226
v 0.41773 3.65559 -0.48274
v 0.18897 3.67168 -0.29320
v 3.45698 4.26204 0.00000
v 3.20436 4.39209 0.00000
v 3.60210 3.97584 0.00000
v 3.48144 3.97434 -0.34964
v 3.19788 4.00203 -0.51315
v 3.19424 4.27403 -0.33403
v 3.28617 3.39535 -0.31117
v 3.00557 3.37960 -0.35279
v 3.12878 3.69362 -0.52070
v 3.45028 3.64849 -0.36175
v 0.49239 1.32945 -0.24869
v 0.63844 1.22177 -0.30916
v 0.76825 1.06136 -0.31850
v 0.51725 1.38176 0.00000
v 0.72219 1.28713 0.00000
v 0.86806 1.12961 0.00000
v 0.98092 0.96968 0.00000
v 0.88269 0.90463 -0.30442
v 1.10141 0.81012 0.00000
v 1.16571 0.58822 -0.27141
v 1.01832 0.74847 -0.28983
v 1.05578 0.45865 -0.44304
v 0.85697 0.60267 -0.47556
v 0.67770 0.75532 -0.49760
v 0.68722 0.39611 -0.46381
v 0.45337 0.55053 -0.48543
v 0.57699 0.23186 -0.27184
v 0.28462 0.37978 -0.29014
v 0.53625 0.16368 0.00000
v 1.50532 0.33598 0.00000
v 1.49798 0.30436 -0.19522
v 1.32761 0.43595 -0.24121
v 1.48275 0.21920 -0.33882
v 1.26496 0.32226 -0.39860
v 1.44929 0.11208 -0.33812
v 1.19527 0.18824 -0.39255
v 0.93934 0.28129 -0.43607
v 1.13886 0.07522 -0.23389
v 0.86400 0.13402 -0.25813
v 1.91373 0.33622 0.00000
v 1.70619 0.26882 0.00000
v 1.91619 0.31061 -0.18719
v 1.70524 0.25221 -0.17318
v 1.93242 0.22637 -0.32453
v 1.70580 0.18009 -0.30299
v 1.96205 0.12369 -0.32627
v 1.70662 0.08517 -0.30622
v 1.98492 0.06433 -0.19646
v 1.70613 0.02650 -0.18830
v 1.41991 0.03680 -0.20308
v 2.26742 0.07734 0.00000
v 2.26140 0.61637 0.00000
v 2.09196 0.47093 0.00000
v 2.29382 0.56897 -0.23729
v 2.11026 0.43086 -0.21965
v 2.36486 0.46259 -0.39422
v 2.15099 0.33011 -0.36797
v 2.44951 0.31231 -0.39598
v 2.20529 0.20799 -0.36839
v 2.50313 0.19357 -0.24033
v 2.25063 0.11587 -0.22481
v 2.52263 0.14357 0.00000
v 2.77846 0.23663 0.00000
v 2.75282 0.28806 -0.24311
v 2.99627 0.42005 -0.24358
v 3.03005 0.37115 0.00000
v 2.68187 0.42242 -0.40934
v 2.90155 0.55336 -0.41741
v 3.10600 0.71321 -0.42166
v 3.22309 0.58895 -0.24675
v 2.56639 0.60218 -0.40643
v 2.75723 0.74298 -0.41363
v 2.93767 0.89388 -0.41677
v 3.10367 1.05604 -0.41045
v 3.28056 0.90589 -0.41479
v 2.65437 0.86487 -0.23928
v 2.82653 1.01302 -0.23941
v 2.99231 1.16370 -0.23937
v 3.15392 1.31907 -0.24233
v 3.26106 1.22991 -0.39870
v 3.11195 1.35834 0.00000
v 3.26279 1.49969 0.00000
v 3.30369 1.47663 -0.22861
v 3.36501 1.65498 0.00000
v 3.33765 1.80311 0.00000
v 3.36575 1.82372 -0.21191
v 3.39834 1.65058 -0.20483
v 3.46060 1.86988 -0.34357
v 3.48116 1.64808 -0.32771
v 3.40563 1.43104 -0.37150
v 3.58458 1.64130 -0.33685
v 3.52593 1.37936 -0.37140
v 3.41686 1.12867 -0.40140
v 3.62526 1.33785 -0.22731
v 3.54659 1.06204 -0.24240
v 3.41181 0.80752 -0.24598
v 3.59106 1.03685 0.00000
v 3.45569 0.77403 0.00000
v 3.26161 0.54772 0.00000
v 2.47649 0.71621 -0.23935
v 3.04948 1.89908 0.00000
v 3.07163 2.00240 -0.28731
v 3.24095 1.95133 -0.24499
v 3.13791 2.23928 -0.46599
v 3.34435 2.08112 -0.40366
v 3.27186 2.48450 -0.45192
v 3.45685 2.20926 -0.40370
v 3.56087 1.91580 -0.34895
v 3.55527 2.29562 -0.25257
v 3.63080 1.95391 -0.22485
v 3.65598 1.63867 -0.21468
v 3.66286 1.32468 0.00000
v 3.43447 2.70020 0.00000
v 2.69207 1.87643 0.00000
v 2.88121 1.89187 0.00000
v 2.70079 1.99129 -0.29971
v 2.89634 2.00911 -0.30077
v 2.71491 2.25324 -0.50045
v 2.94493 2.27951 -0.49486
v 2.69350 2.57487 -0.49016
v 2.99436 2.61110 -0.48572
v 2.66225 2.81859 -0.29362
v 3.03540 2.86813 -0.29656
v 3.39342 2.65135 -0.27767
v 3.05647 2.94960 0.00000
v 2.34144 2.77915 0.00000
v 2.26083 1.84139 0.00000
v 2.48401 1.85938 0.00000
v 2.25738 1.93602 -0.27311
v 2.48486 1.96520 -0.28741
v 2.23093 2.13573 -0.47002
v 2.47374 2.19761 -0.48674
v 2.17123 2.39079 -0.46626
v 2.42482 2.48353 -0.48054
v 2.11415 2.57560 -0.26907
v 2.36837 2.69118 -0.27950
v 1.84906 2.54005 0.00000
v 1.87581 2.47004 -0.25829
v 1.64321 2.36751 -0.25039
v 1.62019 2.42997 0.00000
v 1.92709 2.30388 -0.44485
v 1.68878 2.22227 -0.42495
v 1.45114 2.13938 -0.40720
v 1.41187 2.26558 -0.24324
v 1.98771 2.07072 -0.44840
v 1.74377 2.01493 -0.42764
v 1.49892 1.96333 -0.40885
v 1.25134 1.91073 -0.38799
v 1.21257 2.05694 -0.38525
v 1.77628 1.86462 -0.25474
v 1.52923 1.83237 -0.24728
v 1.28379 1.79946 -0.23517
v 1.03609 1.76083 -0.21732
v 1.00740 1.85046 -0.36250
v 1.04718 1.72412 0.00000
v 0.78872 1.69926 0.00000
v 0.78169 1.72556 -0.19547
v 0.49979 1.69515 0.00000
v 0.21443 1.82630 0.00000
v 0.23269 1.83887 -0.19066
v 0.50400 1.71394 -0.18373
v 0.28296 1.88047 -0.30238
v 0.50914 1.76840 -0.29891
v 0.76440 1.78857 -0.32697
v 0.52484 1.87115 -0.29645
v 0.74030 1.90297 -0.32637
v 0.97341 1.98141 -0.35847
v 0.73203 1.97920 -0.19756
v 0.95607 2.06954 -0.22157
v 1.18335 2.16735 -0.23603
v 0.94910 2.11184 0.00000
v 1.16862 2.21512 0.00000
v 1.39393 2.32089 0.00000
v 2.02059 1.89886 -0.26303
v 0.09913 2.38874 -0.22626
v 0.10732 2.10707 -0.20520
v 0.18708 2.37318 -0.36255
v 0.17443 2.11084 -0.32466
v 0.31441 2.35089 -0.35810
v 0.28064 2.12518 -0.31462
v 0.35424 1.94909 -0.29212
v 0.34749 2.14080 -0.19117
v 0.39492 1.98899 -0.17696
v 0.54141 1.92478 -0.17838
v 0.44849 2.32890 0.00000
v 0.07685 2.90976 0.00000
v 0.14243 2.89982 -0.25494
v 0.12251 2.64796 -0.24448
v 0.28438 2.87420 -0.41841
v 0.23669 2.62364 -0.39422
v 0.47234 2.82474 -0.41803
v 0.39289 2.58629 -0.39307
v 0.60864 2.77822 -0.25040
v 0.50658 2.55384 -0.24231
v 0.40701 2.33677 -0.22662
v 0.78454 2.96463 0.00000
v 0.09038 3.41565 0.00000
v 0.08325 3.16211 0.00000
v 0.17889 3.40783 -0.27709
v 0.15913 3.15332 -0.26516
v 0.37645 3.37868 -0.46596
v 0.33133 3.12335 -0.44147
v 0.62931 3.30530 -0.46704
v 0.55454 3.06217 -0.44130
v 0.81451 3.22109 -0.26900
v 0.71391 3.00086 -0.26042
v 1.00330 3.37370 0.00000
v 0.91582 3.42926 -0.27897
v 1.01587 3.62107 -0.28162
v 1.10516 3.56377 0.00000
v 0.70865 3.54851 -0.48152
v 0.80826 3.76331 -0.48814
v 0.97008 3.93812 -0.46739
v 1.13117 3.79760 -0.27242
v 1.27509 3.96900 -0.25349
v 1.32255 3.91665 0.00000
v 1.20864 3.74312 0.00000
v 1.18641 4.10235 -0.41777
v 1.42177 4.20787 -0.35135
v 1.44604 4.10673 -0.21411
v 1.11880 4.23688 -0.41535
v 1.39234 4.31557 -0.35767
v 1.66217 4.32979 -0.33718
v 1.65693 4.22978 -0.33367
v 1.06983 4.35564 -0.25397
v 1.36789 4.39471 -0.22373
v 1.66637 4.40168 -0.21416
v 1.95150 4.38328 -0.22932
v 1.92571 4.28979 -0.37424
v 2.23139 4.42272 0.00000
v 2.21763 4.35899 -0.25618
v 2.48110 4.41557 0.00000
v 2.71765 4.31438 -0.29923
v 2.47225 4.33316 -0.27889
v 2.69436 4.09727 -0.49844
v 2.44226 4.15876 -0.46254
v 2.18519 4.22524 -0.42098
v 2.37549 3.94845 -0.46563
v 2.13678 4.06719 -0.42594
v 1.89602 4.17050 -0.37694
v 2.08284 3.92768 -0.26167
v 1.87312 4.05710 -0.23082
v 1.65716 4.14039 -0.20354
v 1.45648 4.07036 0.00000
v 0.24852 4.19735 0.00000
v 2.95726 4.41477 0.00000
v 2.95530 4.30337 -0.32415
v 2.93717 4.04564 -0.52429
v 2.85926 3.75219 -0.52952
v 2.61996 3.83735 -0.50287
v 2.72783 3.47409 -0.33749
v 2.50285 3.61826 -0.31014
v 2.29353 3.77921 -0.28562
v 2.23792 3.69869 0.00000
v 2.98436 3.23871 0.00000
v 3.33847 3.32157 0.00000
v 3.57545 3.60671 0.00000
v 1.22866 0.64810 0.00000
v 0.22711 0.32339 0.00000
v 0.00000 0.64342 0.00000
v 0.01785 1.04026 0.00000
v 0.22566 1.32143 0.00000
v 1.35999 0.48719 0.00000
v 1.11820 0.02210 0.00000
v 0.83471 0.07190 0.00000
v 1.70547 0.00000 0.00000
v 1.40733 0.00008 0.00000
v 1.99435 0.03481 0.00000
v 2.78273 1.06225 0.00000
v 2.94904 1.20982 0.00000
v 2.61215 0.91435 0.00000
v 2.43704 0.76412 0.00000
v 3.20594 1.89182 0.00000
v 3.66461 1.96808 0.00000
v 3.68624 1.63787 0.00000
v 3.59959 2.32373 0.00000
v 2.65098 2.91026 0.00000
v 2.08498 2.65469 0.00000
v 1.54042 1.77175 0.00000
v 1.29591 1.74955 0.00000
v 1.78557 1.79587 0.00000
v 2.02711 1.81916 0.00000
v 0.05728 2.39809 0.00000
v 0.07956 2.10745 0.00000
v 0.41072 2.00278 0.00000
v 0.54987 1.94294 0.00000
v 0.73255 2.01050 0.00000
v 0.37341 2.14917 0.00000
v 0.06536 2.66013 0.00000
v 0.55940 2.53546 0.00000
v 0.67135 2.75212 0.00000
v 0.89494 3.17429 0.00000
v 1.35913 4.43169 0.00000
v 1.66660 4.43383 0.00000
v 1.96246 4.42797 0.00000
v 2.72078 4.41254 0.00000
v 1.85997 4.01101 0.00000
v 1.65819 4.11458 0.00000
v 1.05238 4.41568 0.00000
v 0.77112 4.38698 0.00000
v 0.48823 4.32497 0.00000
v 0.11779 3.95344 0.00000
v 0.09154 3.67725 0.00000
v 2.43147 3.52434 0.00000
v 2.04881 3.86176 0.00000
v 2.66449 3.34940 0.00000
v 0.24445 1.00508 0.43310
v 0.50930 3.98148 0.47595
v 3.40182 4.20753 0.28649
v 0.40568 1.11201 0.44088
v 0.53790 0.92838 0.49905
v 0.29005 0.78130 0.48933
v 0.07461 0.67140 0.29880
v 0.08603 1.03056 0.28205
v 0.27883 1.27064 0.29023
v 0.28840 4.15949 0.24956
v 0.48458 4.24331 0.29019
v 0.21308 3.95912 0.29723
v 0.78391 4.30982 0.28455
v 0.82565 4.13524 0.46226
v 0.41773 3.65559 0.48274
v 0.18897 3.67168 0.29320
v 3.48144 3.97434 0.34964
v 3.19788 4.00203 0.51315
v 3.19424 4.27403 0.33403
v 3.28617 3.39535 0.31117
v 3.00557 3.37960 0.35279
v 3.12878 3.69362 0.52070
v 3.45028 3.64849 0.36175
v 0.49239 1.32945 0.24869
v 0.63844 1.22177 0.30916
v 0.76825 1.06136 0.31850
v 0.88269 0.90463 0.30442
v 1.16571 0.58822 0.27141
v 1.01832 0.74847 0.28983
v 1.05578 0.45865 0.44304
v 0.85697 0.60267 0.47556
v 0.67770 0.75532 0.49760
v 0.68722 0.39611 0.46381
v 0.45337 0.55053 0.48543
v 0.57699 0.23186 0.27184
v 0.28462 0.37978 0.29014
v 1.49798 0.30436 0.19522
v 1.32761 0.43595 0.24121
v 1.48275 0.21920 0.33882
v 1.26496 0.32226 0.39860
v 1.44929 0.11208 0.33812
v 1.19527 0.18824 0.39255
v 0.93934 0.28129 0.43607
v 1.13886 0.07522 0.23389
v 0.86400 0.13402 0.25813
v 1.91619 0.31061 0.18719
v 1.70524 0.25221 0.17318
v 1.93242 0.22637 0.32453
v 1.70580 0.18009 0.30299
v 1.96205 0.12369 0.32627
v 1.70662 0.08517 0.30622
v 1.98492 0.06433 0.19646
v 1.70613 0.02650 0.18830
v 1.41991 0.03680 0.20308
v 2.29382 0.56897 0.23729
v 2.11026 0.43086 0.21965
v 2.36486 0.46259 0.39422
v 2.15099 0.33011 0.36797
v 2.44951 0.31231 0.39598
v 2.20529 0.20799 0.36839
v 2.50313 0.19357 0.24033
v 2.25063 0.11587 0.22481
v 2.75282 0.28806 0.24311
v 2.99627 0.42005 0.24358
v 2.68187 0.42242 0.40934
v 2.90155 0.55336 0.41741
v 3.10600 0.71321 0.42166
v 3.22309 0.58895 0.24675
v 2.56639 0.60218 0.40643
v 2.75723 0.74298 0.41363
v 2.93767 0.89388 0.41677
v 3.10367 1.05604 0.41045
v 3.28056 0.90589 0.41479
v 2.65437 0.86487 0.23928
v 2.82653 1.01302 0.23941
v 2.99231 1.16370 0.23937
v 3.15392 1.31907 0.24233
v 3.26106 1.22991 0.39870
v 3.30369 1.47663 0.22861
v 3.36575 1.82372 0.21191
v 3.39834 1.65058 0.20483
v 3.46060 1.86988 0.34357
v 3.48116 1.64808 0.32771
v 3.40563 1.43104 0.37150
v 3.58458 1.64130 0.33685
v 3.52593 1.37936 0.37140
v 3.41686 1.12867 0.40140
v 3.62526 1.33785 0.22731
v 3.54659 1.06204 0.24240
v 3.41181 0.80752 0.24598
v 2.47649 0.71621 0.23935
v 3.07163 2.00240 0.28731
v 3.24095 1.95133 0.24499
v 3.13791 2.23928 0.46599
v 3.34435 2.08112 0.40366
v 3.27186 2.48450 0.45192
v 3.45685 2.20926 0.40370
v 3.56087 1.91580 0.34895
v 3.55527 2.29562 0.25257
v 3.63080 1.95391 0.22485
v 3.65598 1.63867 0.21468
v 2.70079 1.99129 0.29971
v 2.89634 2.00911 0.30077
v 2.71491 2.25324 0.50045
v 2.94493 2.27951 0.49486
v 2.69350 2.57487 0.49016
v 2.99436 2.61110 0.48572
v 2.66225 2.81859 0.29362
v 3.03540 2.86813 0.29656
v 3.39342 2.65135 0.27767
v 2.25738 1.93602 0.27311
v 2.48486 1.96520 0.28741
v 2.23093 2.13573 0.47002
v 2.47374 2.19761 0.48674
v 2.17123 2.39079 0.46626
v 2.42482 2.48353 0.48054
v 2.11415 2.57560 0.26907
v 2.36837 2.69118 0.27950
v 1.87581 2.47004 0.25829
v 1.64321 2.36751 0.25039
v 1.92709 2.30388 0.44485
v 1.68878 2.22227 0.42495
v 1.45114 2.13938 0.40720
v 1.41187 2.26558 0.24324
v 1.98771 2.07072 0.44840
v 1.74377 2.01493 0.42764
v 1.49892 1.96333 0.40885
v 1.25134 1.91073 0.38799
v 1.21257 2.05694 0.38525
v 1.77628 1.86462 0.25474
v 1.52923 1.83237 0.24728
v 1.28379 1.79946 0.23517
v 1.03609 1.76083 0.21732
v 1.00740 1.85046 0.36250
v 0.78169 1.72556 0.19547
v 0.23269 1.83887 0.19066
v 0.50400 1.71394 0.18373
v 0.28296 1.88047 0.30238
v 0.50914 1.76840 0.29891
v 0.76440 1.78857 0.32697
v 0.52484 1.87115 0.29645
v 0.74030 1.90297 0.32637
v 0.97341 1.98141 0.35847
v 0.73203 1.97920 0.19756
v 0.95607 2.06954 0.22157
v 1.18335 2.16735 0.23603
v 2.02059 1.89886 0.26303
v 0.09913 2.38874 0.22626
v 0.10732 2.10707 0.20520
v 0.18708 2.37318 0.36255
v 0.17443 2.11084 0.32466
v 0.31441 2.35089 0.35810
v 0.28064 2.12518 0.31462
v 0.35424 1.94909 0.29212
v 0.34749 2.14080 0.19117
v 0.39492 1.98899 0.17696
v 0.54141 1.92478 0.17838
v 0.14243 2.89982 0.25494
v 0.12251 2.64796 0.24448
v 0.28438 2.87420 0.41841
v 0.23669 2.62364 0.39422
v 0.47234 2.82474 0.41803
v 0.39289 2.58629 0.39307
v 0.60864 2.77822 0.25040
v 0.50658 2.55384 0.24231
v 0.40701 2.33677 0.22662
v 0.17889 3.40783 0.27709
v 0.15913 3.15332 0.26516
v 0.37645 3.37868 0.46596
v 0.33133 3.12335 0.44147
v 0.62931 3.30530 0.46704
v 0.55454 3.06217 0.44130
v 0.81451 3.22109 0.26900
v 0.71391 3.00086 0.26042
v 0.91582 3.42926 0.27897
v 1.01587 3.62107 0.28162
v 0.70865 3.54851 0.48152
v 0.80826 3.76331 0.48814
v 0.97008 3.93812 0.46739
v 1.13117 3.79760 0.27242
v 1.27509 3.96900 0.25349
v 1.18641 4.10235 0.41777
v 1.42177 4.20787 0.35135
v 1.44604 4.10673 0.21411
v 1.11880 4.23688 0.41535
v 1.39234 4.31557 0.35767
v 1.66217 4.32979 0.33718
v 1.65693 4.22978 0.33367
v 1.06983 4.35564 0.25397
v 1.36789 4.39471 0.22373
v 1.66637 4.40168 0.21416
v 1.95150 4.38328 0.22932
v 1.92571 4.28979 0.37424
v 2.21763 4.35899 0.25618
v 2.71765 4.31438 0.29923
v 2.47225 4.33316 0.27889
v 2.69436 4.09727 0.49844
v 2.44226 4.15876 0.46254
v 2.18519 4.22524 0.42098
v 2.37549 3.94845 0.46563
v 2.13678 4.06719 0.42594
v 1.89602 4.17050 0.37694
v 2.08284 3.92768 0.26167
v 1.87312 4.05710 0.23082
v 1.65716 4.14039 0.20354
v 2.95530 4.30337 0.32415
v 2.93717 4.04564 0.52429
v 2.85926 3.75219 0.52952
v 2.61996 3.83735 0.50287
v 2.72783 3.47409 0.33749
v 2.50285 3.61826 0.31014
v 2.29353 3.77921 0.28562
vn -0.46730 0.26907 -0.84216
vn -0.07097 0.46773 -0.88102
vn 0.16689 0.24126 -0.95600
vn -0.36864 -0.04267 -0.92859
vn -0.80412 -0.23262 -0.54707
vn -0.79109 0.32685 -0.51705
vn -0.39736 0.74795 -0.53166
vn -0.40625 0.40835 -0.81744
vn -0.33216 0.76388 -0.55331
vn -0.24839 0.25690 -0.93397
vn -0.75909 0.27700 -0.58911
vn -0.15609 0.85030 -0.50262
vn -0.03225 0.41203 -0.91060
vn -0.33851 0.01847 -0.94078
vn -0.82069 0.05610 -0.56862
vn 0.67284 0.68051 -0.29017
vn 0.70350 0.71068 0.00453
vn 0.98355 0.18062 0.00197
vn 0.93592 0.16970 -0.30862
vn 0.39559 0.42161 -0.81594
vn 0.44440 0.19196 -0.87502
vn 0.26194 0.25563 -0.93061
vn 0.25927 0.75723 -0.59948
vn 0.26045 0.96548 0.00250
vn 0.23694 -0.42104 -0.87555
vn -0.01695 -0.74509 -0.66675
vn 0.15904 -0.24445 -0.95653
vn 0.36080 -0.24083 -0.90101
vn 0.04278 0.61861 -0.78453
vn 0.41616 0.67950 -0.60423
vn 0.60494 0.50032 -0.61946
vn 0.12294 0.96228 -0.24269
vn 0.13158 0.99130 -0.00076
vn 0.61800 0.78618 -0.00160
vn 0.78661 0.61745 0.00013
vn 0.75158 0.55725 -0.35299
vn 0.64302 0.47941 -0.59724
vn 0.77807 0.62818 -0.00014
vn 0.75777 0.65252 0.00048
vn 0.64337 0.57098 -0.50996
vn 0.63614 0.52715 -0.56342
vn 0.52607 0.48737 -0.69693
vn 0.49684 0.42717 -0.75543
vn 0.26061 0.16062 -0.95199
vn 0.05478 -0.09744 -0.99373
vn -0.10810 -0.39811 -0.91094
vn -0.20879 -0.29478 -0.93248
vn -0.32162 -0.79891 -0.50823
vn -0.53794 -0.64384 -0.54414
vn -0.37652 -0.92641 0.00024
vn -0.64900 -0.76079 0.00001
vn -0.95853 -0.28499 -0.00015
vn -0.93965 0.34213 -0.00060
vn -0.53652 0.84389 0.00038
vn 0.71441 0.69973 0.00003
vn 0.49754 0.86744 -0.00056
vn 0.45091 0.81849 -0.35602
vn 0.63162 0.64541 -0.42953
vn 0.39553 0.74891 -0.53168
vn 0.54086 0.58017 -0.60899
vn 0.16154 -0.11171 -0.98052
vn 0.16795 -0.05526 -0.98425
vn 0.10124 -0.10968 -0.98880
vn -0.17770 -0.72635 -0.66396
vn -0.11020 -0.79658 -0.59440
vn -0.12495 -0.89998 -0.41763
vn -0.21160 -0.85611 -0.47148
vn -0.13742 -0.99051 0.00003
vn -0.24180 -0.97033 0.00003
vn -0.00250 1.00000 0.00015
vn -0.43813 0.89891 -0.00031
vn -0.40605 0.84889 -0.33840
vn 0.00004 0.94534 -0.32609
vn -0.36147 0.77007 -0.52567
vn 0.00190 0.85973 -0.51074
vn 0.02630 0.00476 -0.99964
vn -0.12569 -0.01783 -0.99191
vn 0.04112 -0.89086 -0.45242
vn 0.12918 -0.87320 -0.46994
vn 0.13750 -0.93830 -0.31731
vn 0.04880 -0.95062 -0.30650
vn -0.05478 -0.93461 -0.35144
vn -0.05437 -0.85871 -0.50956
vn 0.05570 -0.99845 -0.00025
vn -0.05402 -0.99854 -0.00013
vn 0.14420 -0.98955 -0.00011
vn -0.60420 0.79683 -0.00016
vn -0.63481 0.77267 0.00014
vn -0.56534 0.70024 -0.43595
vn -0.55179 0.73858 -0.38733
vn -0.48443 0.61403 -0.62313
vn -0.48581 0.66038 -0.57262
vn -0.12893 -0.04507 -0.99063
vn -0.07286 -0.02838 -0.99694
vn 0.19139 -0.80808 -0.55711
vn 0.25267 -0.73170 -0.63307
vn 0.28440 -0.85463 -0.43442
vn 0.20577 -0.90272 -0.37782
vn 0.30702 -0.95170 -0.00005
vn 0.21534 -0.97654 -0.00006
vn 0.36942 -0.80556 -0.46325
vn 0.41126 -0.91152 -0.00001
vn 0.47443 -0.74127 -0.47480
vn 0.53888 -0.84239 -0.00004
vn 0.31538 -0.67340 -0.66863
vn 0.39269 -0.61310 -0.68550
vn 0.48936 -0.52602 -0.69558
vn 0.59932 -0.64178 -0.47848
vn -0.02810 -0.00056 -0.99960
vn -0.04162 -0.01074 -0.99908
vn -0.00900 0.01853 -0.99979
vn 0.01085 0.04166 -0.99907
vn -0.49038 0.55180 -0.67457
vn -0.47496 0.56991 -0.67053
vn -0.56697 0.67041 -0.47863
vn -0.58043 0.65642 -0.48188
vn -0.60119 0.64279 -0.47476
vn -0.51306 0.53581 -0.67058
vn -0.62711 0.63449 -0.45184
vn -0.54412 0.53030 -0.65016
vn -0.66098 0.75041 -0.00001
vn -0.67646 0.73648 0.00004
vn -0.69223 0.72168 -0.00021
vn -0.78200 0.62328 0.00023
vn -0.72251 0.55865 -0.40729
vn -0.98249 -0.18630 -0.00028
vn -0.85787 -0.51387 -0.00187
vn -0.78274 -0.44200 -0.43813
vn -0.90316 0.16386 -0.39680
vn -0.85204 0.52348 0.00096
vn -0.67452 -0.35638 -0.64654
vn -0.79229 0.14136 -0.59354
vn -0.64236 0.47780 -0.59923
vn 0.02223 0.13042 -0.99121
vn -0.03218 0.04885 -0.99829
vn 0.03144 0.07553 -0.99665
vn 0.69729 -0.27683 -0.66118
vn 0.79258 -0.14759 -0.59163
vn 0.90596 -0.16156 -0.39132
vn 0.83388 -0.32541 -0.44582
vn 0.72914 -0.49505 -0.47251
vn 0.59617 -0.40652 -0.69233
vn 0.93313 -0.35955 -0.00014
vn 0.82815 -0.56051 -0.00002
vn 0.68355 -0.72990 -0.00004
vn -0.64136 0.76724 -0.00004
vn -0.64997 0.75996 0.00001
vn -0.56095 0.68527 -0.46448
vn -0.47109 0.59123 -0.65462
vn -0.39511 -0.91863 0.00018
vn -0.05806 -0.99831 0.00168
vn -0.05505 -0.81923 -0.57082
vn -0.36303 -0.77742 -0.51364
vn 0.05497 -0.35992 -0.93136
vn -0.09071 -0.39985 -0.91208
vn 0.35761 0.19425 -0.91344
vn 0.14599 -0.13644 -0.97983
vn 0.02385 -0.11834 -0.99269
vn 0.83971 0.10740 -0.53232
vn 0.74847 0.23231 -0.62115
vn 0.86789 0.27004 -0.41695
vn 0.92774 0.12046 -0.35326
vn 0.93867 -0.01205 -0.34460
vn 0.85071 -0.01629 -0.52539
vn 0.99143 0.13067 -0.00002
vn 0.99997 -0.00731 0.00021
vn 0.98554 -0.16946 0.00002
vn 0.95458 0.29796 -0.00010
vn 0.04723 -0.93419 -0.35363
vn 0.08197 -0.93206 -0.35291
vn 0.07746 -0.80274 -0.59128
vn 0.04698 -0.79743 -0.60157
vn 0.02610 -0.31365 -0.94918
vn 0.06220 -0.30806 -0.94933
vn -0.09973 0.33564 -0.93670
vn 0.11264 0.30923 -0.94429
vn -0.21907 0.80133 -0.55668
vn 0.18852 0.79832 -0.57197
vn 0.65995 0.55098 -0.51077
vn 0.22683 0.97394 -0.00008
vn 0.76094 0.64882 0.00039
vn -0.26010 0.96558 -0.00059
vn 0.09157 -0.99580 0.00000
vn 0.10553 -0.99442 0.00004
vn 0.09856 -0.83849 -0.53592
vn 0.08233 -0.81916 -0.56762
vn 0.09176 -0.68833 -0.71957
vn 0.07325 -0.64999 -0.75641
vn -0.05821 0.01284 -0.99822
vn -0.07499 -0.00043 -0.99718
vn -0.18124 0.33985 -0.92285
vn -0.30249 0.64719 -0.69974
vn -0.36623 0.77691 -0.51214
vn -0.35008 0.77031 -0.53298
vn -0.42868 0.90346 -0.00002
vn -0.41551 0.90959 -0.00015
vn -0.36698 0.79039 -0.49051
vn -0.42453 0.90541 0.00002
vn -0.36768 0.80452 -0.46643
vn -0.42218 0.90651 0.00003
vn -0.30655 0.66875 -0.67735
vn -0.30806 0.69131 -0.65360
vn -0.31508 0.71233 -0.62715
vn -0.36975 0.81840 -0.43989
vn -0.07756 -0.00798 -0.99696
vn -0.08393 -0.00688 -0.99645
vn -0.07943 -0.00873 -0.99680
vn -0.09620 -0.00616 -0.99534
vn 0.09368 -0.76727 -0.63445
vn 0.09495 -0.74285 -0.66269
vn 0.10393 -0.87331 -0.47596
vn 0.10190 -0.88823 -0.44796
vn 0.10987 -0.90501 -0.41095
vn 0.10393 -0.79752 -0.59427
vn 0.11670 -0.92635 -0.35813
vn 0.11534 -0.83983 -0.53046
vn 0.10790 -0.99416 -0.00008
vn 0.11356 -0.99353 -0.00001
vn 0.11548 -0.99331 0.00006
vn 0.06770 -0.99771 -0.00013
vn 0.06900 -0.95052 -0.30289
vn -0.20107 -0.97958 -0.00015
vn -0.70148 -0.71269 0.00006
vn -0.66306 -0.68371 -0.30479
vn -0.19442 -0.93916 -0.28316
vn -0.60575 -0.63506 -0.47935
vn -0.18299 -0.87672 -0.44484
vn 0.06870 -0.88472 -0.46104
vn -0.13142 -0.00009 -0.99133
vn -0.04962 0.04184 -0.99789
vn -0.12184 -0.00883 -0.99251
vn -0.34060 0.76679 -0.54407
vn -0.29873 0.82612 -0.47779
vn -0.33372 0.88905 -0.31342
vn -0.38037 0.84824 -0.36853
vn -0.37298 0.83276 -0.40914
vn -0.32343 0.73715 -0.59330
vn -0.41124 0.91153 0.00018
vn -0.41442 0.91009 0.00006
vn -0.41748 0.90869 0.00002
vn 0.11539 -0.99332 0.00003
vn 0.11121 -0.99380 -0.00009
vn 0.10745 -0.85725 -0.50357
vn 0.09899 -0.71923 -0.68769
vn -0.96829 -0.24982 -0.00013
vn -1.00000 -0.00315 -0.00016
vn -0.92806 0.00162 -0.37244
vn -0.91255 -0.24350 -0.32859
vn -0.83634 0.00627 -0.54818
vn -0.83200 -0.23000 -0.50485
vn 0.10073 -0.10865 -0.98896
vn 0.02522 -0.15215 -0.98803
vn 0.08576 0.01066 -0.99626
vn 0.85409 0.26324 -0.44860
vn 0.86777 -0.00614 -0.49692
vn 0.94511 -0.02587 -0.32573
vn 0.91876 0.26779 -0.29011
vn 0.36408 0.82997 -0.42261
vn 0.38488 0.88279 -0.26936
vn 0.05487 0.95500 -0.29150
vn 0.06359 0.89012 -0.45126
vn 0.39778 0.91748 0.00007
vn -0.31630 0.94866 -0.00051
vn -0.36174 0.93228 -0.00014
vn 0.96361 0.26730 0.00049
vn 0.99906 -0.04332 0.00091
vn -0.99848 0.05511 0.00005
vn -0.99881 0.04871 0.00001
vn -0.88233 0.05175 -0.46777
vn -0.90317 0.05838 -0.42529
vn -0.75055 0.05355 -0.65863
vn -0.79188 0.06004 -0.60772
vn -0.01291 -0.11517 -0.99326
vn -0.02081 -0.09187 -0.99555
vn 0.71723 -0.33782 -0.60948
vn 0.68860 -0.32212 -0.64967
vn 0.79579 -0.38677 -0.46597
vn 0.81414 -0.39543 -0.42522
vn 0.85572 -0.36356 -0.36820
vn 0.77415 -0.31569 -0.54866
vn 0.89512 -0.44583 -0.00008
vn 0.91594 -0.40131 0.00048
vn 0.89442 -0.44723 0.00015
vn -0.99908 0.04285 0.00000
vn -0.99959 0.02858 0.00001
vn -0.84544 0.02824 -0.53332
vn -0.86365 0.04344 -0.50221
vn -0.68169 0.02748 -0.73113
vn -0.71547 0.04316 -0.69731
vn -0.02528 -0.09115 -0.99552
vn -0.02323 -0.07461 -0.99694
vn 0.65973 -0.30991 -0.68463
vn 0.62877 -0.29012 -0.72145
vn 0.75726 -0.37099 -0.53752
vn 0.77706 -0.38005 -0.50174
vn 0.89037 -0.45524 -0.00005
vn 0.89297 -0.45011 0.00000
vn 0.73306 -0.37664 -0.56636
vn 0.88428 -0.46695 0.00005
vn 0.71088 -0.41008 -0.57139
vn 0.86985 -0.49332 -0.00007
vn 0.58924 -0.29074 -0.75383
vn 0.55897 -0.33017 -0.76062
vn 0.54713 -0.40167 -0.73438
vn 0.69072 -0.47737 -0.54316
vn 0.00333 0.03613 -0.99934
vn -0.01831 -0.02568 -0.99950
vn 0.08068 0.08593 -0.99303
vn 0.65715 -0.58509 -0.47520
vn 0.76054 -0.64929 0.00203
vn 0.83365 -0.55229 0.00062
vn 0.53788 -0.51115 -0.67038
vn 0.34144 -0.70843 -0.61769
vn 0.41277 -0.81012 -0.41633
vn 0.17427 0.08340 -0.98116
vn 0.14556 0.01234 -0.98927
vn -0.03779 -0.01028 -0.99923
vn -0.04682 0.84321 -0.53553
vn -0.09173 0.78555 -0.61197
vn -0.09681 0.89836 -0.42846
vn -0.04777 0.93037 -0.36350
vn 0.01503 0.93802 -0.34627
vn 0.01699 0.85584 -0.51696
vn 0.04268 0.92207 -0.38467
vn 0.04411 0.82742 -0.55985
vn -0.04661 0.99891 0.00018
vn 0.01242 0.99992 0.00024
vn 0.04072 0.99917 0.00020
vn 0.04828 0.99883 -0.00014
vn 0.05007 0.89368 -0.44589
vn 0.04219 0.99911 -0.00005
vn 0.01628 0.99987 0.00009
vn 0.01663 0.84003 -0.54228
vn 0.04198 0.86515 -0.49975
vn -0.05043 0.38372 -0.92207
vn 0.04090 0.72254 -0.69012
vn 0.05109 0.77549 -0.62929
vn -0.15150 0.06900 -0.98605
vn -0.13265 0.05998 -0.98935
vn -0.30095 -0.26091 -0.91726
vn -0.15904 0.04498 -0.98625
vn -0.38580 -0.69898 -0.60215
vn -0.43995 -0.61016 -0.65890
vn -0.52555 -0.70691 -0.47337
vn -0.44973 -0.79380 -0.40941
vn -0.11028 -0.91422 -0.38992
vn -0.09778 -0.79919 -0.59307
vn -0.50340 -0.86405 -0.00073
vn -0.11948 -0.99284 -0.00059
vn 0.46751 -0.88398 0.00117
vn -0.16481 0.98633 -0.00012
vn -0.09851 0.99514 0.00002
vn -0.33547 0.94205 0.00103
vn -0.68834 0.68394 -0.24168
vn -0.71190 0.70228 -0.00096
vn -0.96323 0.26867 -0.00194
vn -0.99879 0.04914 0.00005
vn 0.05016 0.99874 -0.00006
vn 0.04827 0.81278 -0.58056
vn 0.00893 0.33743 -0.94131
vn -0.13594 -0.23307 -0.96291
vn -0.25443 -0.23596 -0.93787
vn -0.34958 -0.68092 -0.64354
vn -0.49365 -0.63841 -0.59054
vn -0.53298 -0.65656 -0.53372
vn -0.62050 -0.78421 -0.00034
vn -0.63964 -0.76867 0.00021
vn -0.60622 -0.79529 -0.00010
vn -0.43216 -0.82036 -0.37450
vn -0.08370 -0.99648 0.00355
vn 0.15242 -0.94206 -0.29880
vn 0.16585 -0.98612 0.00722
vn 0.78977 -0.61339 -0.00303
vn 0.75156 -0.58777 -0.29946
vn 0.88040 -0.34359 -0.32686
vn 0.93214 -0.36208 -0.00145
vn -0.36700 -0.04259 0.92924
vn 0.16850 0.24382 0.95507
vn -0.06515 0.46330 0.88380
vn -0.45914 0.24843 0.85292
vn -0.78849 0.31347 0.52917
vn -0.80378 -0.23189 0.54787
vn -0.39297 0.74505 0.53896
vn -0.76542 0.28610 0.57644
vn -0.25475 0.26394 0.93029
vn -0.34391 0.76637 0.54259
vn -0.44089 0.44454 0.77975
vn -0.03717 0.40771 0.91235
vn -0.16130 0.84773 0.50530
vn -0.81964 0.05744 0.57000
vn -0.33563 0.01862 0.94181
vn 0.74768 0.20607 0.63127
vn 0.60961 0.62535 0.48714
vn 0.26692 0.75995 0.59265
vn 0.26857 0.26465 0.92619
vn 0.37281 -0.25983 0.89079
vn 0.16561 -0.25565 0.95248
vn -0.00729 -0.75173 0.65943
vn 0.25879 -0.46008 0.84933
vn 0.42076 0.68720 0.59222
vn 0.10863 0.89145 0.43991
vn 0.60493 0.50320 0.61713
vn 0.64229 0.48037 0.59725
vn 0.75112 0.55776 0.35316
vn 0.63715 0.52652 0.56286
vn 0.64237 0.57130 0.51086
vn 0.49868 0.42623 0.75475
vn 0.52571 0.48665 0.69771
vn 0.26044 0.16152 0.95188
vn -0.20949 -0.29483 0.93230
vn -0.10787 -0.39862 0.91075
vn 0.05647 -0.09755 0.99363
vn -0.53862 -0.64380 0.54352
vn -0.32183 -0.79907 0.50785
vn 0.63382 0.64426 0.42801
vn 0.45553 0.81708 0.35337
vn 0.54360 0.58031 0.60641
vn 0.40162 0.74864 0.52748
vn 0.16396 -0.11117 0.98018
vn 0.16915 -0.05728 0.98392
vn 0.10192 -0.10976 0.98872
vn -0.21240 -0.85575 0.47177
vn -0.12831 -0.89962 0.41740
vn -0.11777 -0.79586 0.59392
vn -0.17911 -0.72560 0.66439
vn -0.00061 0.94505 0.32694
vn -0.40772 0.84830 0.33786
vn 0.00187 0.85889 0.51215
vn -0.36280 0.76983 0.52511
vn 0.02523 0.00125 0.99968
vn -0.12610 -0.01868 0.99184
vn 0.04936 -0.95055 0.30664
vn 0.14051 -0.93812 0.31652
vn 0.13434 -0.87310 0.46866
vn 0.04267 -0.89044 0.45310
vn -0.05804 -0.85820 0.51003
vn -0.05624 -0.93448 0.35155
vn -0.55293 0.73787 0.38706
vn -0.56455 0.70042 0.43669
vn -0.48648 0.66005 0.57243
vn -0.48352 0.61368 0.62419
vn -0.12995 -0.04486 0.99051
vn -0.07272 -0.02837 0.99695
vn 0.20737 -0.90271 0.37698
vn 0.28277 -0.85520 0.43437
vn 0.25000 -0.73261 0.63307
vn 0.19448 -0.80833 0.55567
vn 0.36908 -0.80568 0.46330
vn 0.47446 -0.74124 0.47482
vn 0.31470 -0.67362 0.66873
vn 0.39268 -0.61303 0.68557
vn 0.59927 -0.64175 0.47857
vn 0.48917 -0.52590 0.69580
vn -0.02804 -0.00059 0.99961
vn -0.04159 -0.01073 0.99908
vn -0.00897 0.01856 0.99979
vn 0.01084 0.04184 0.99907
vn -0.58045 0.65639 0.48191
vn -0.56678 0.67052 0.47871
vn -0.47458 0.57009 0.67065
vn -0.49040 0.55170 0.67464
vn -0.51298 0.53593 0.67054
vn -0.60111 0.64284 0.47478
vn -0.54395 0.53381 0.64744
vn -0.62653 0.63633 0.45004
vn -0.72252 0.55765 0.40865
vn -0.90164 0.16126 0.40130
vn -0.78064 -0.44969 0.43403
vn -0.78758 0.13788 0.60059
vn -0.67379 -0.36575 0.64205
vn -0.64152 0.47646 0.60119
vn 0.01802 0.13547 0.99062
vn -0.03295 0.05449 0.99797
vn 0.03144 0.07544 0.99665
vn 0.83344 -0.32692 0.44553
vn 0.90596 -0.16500 0.38988
vn 0.79322 -0.15430 0.58906
vn 0.69660 -0.27933 0.66085
vn 0.59608 -0.40599 0.69272
vn 0.72915 -0.49484 0.47273
vn -0.56111 0.68524 0.46433
vn -0.47137 0.59121 0.65443
vn -0.36631 -0.77528 0.51455
vn -0.06015 -0.81284 0.57938
vn -0.09684 -0.39723 0.91260
vn 0.05126 -0.34951 0.93553
vn 0.13938 -0.13683 0.98074
vn 0.35605 0.19501 0.91389
vn 0.02429 -0.12542 0.99181
vn 0.92775 0.11889 0.35377
vn 0.86849 0.26609 0.41824
vn 0.74911 0.22374 0.62353
vn 0.83958 0.10373 0.53323
vn 0.85183 -0.01988 0.52344
vn 0.93898 -0.01377 0.34370
vn 0.04783 -0.79811 0.60061
vn 0.07800 -0.80256 0.59145
vn 0.08214 -0.93202 0.35297
vn 0.04788 -0.93430 0.35326
vn 0.06293 -0.31001 0.94865
vn 0.02668 -0.31295 0.94939
vn 0.11278 0.31004 0.94401
vn -0.09987 0.33593 0.93658
vn 0.18842 0.79947 0.57039
vn -0.21932 0.80152 0.55629
vn 0.66071 0.54941 0.51148
vn 0.08201 -0.81916 0.56767
vn 0.09850 -0.83868 0.53565
vn 0.07278 -0.64995 0.75649
vn 0.09146 -0.68891 0.71905
vn -0.18105 0.33933 0.92308
vn -0.07517 -0.00063 0.99717
vn -0.05816 0.01313 0.99822
vn -0.34991 0.77007 0.53344
vn -0.36576 0.77719 0.51204
vn -0.30147 0.64782 0.69960
vn -0.36711 0.79032 0.49053
vn -0.36744 0.80461 0.46647
vn -0.30677 0.66864 0.67736
vn -0.30801 0.69130 0.65363
vn -0.36906 0.81865 0.44001
vn -0.31372 0.71277 0.62733
vn -0.07751 -0.00796 0.99696
vn -0.08396 -0.00688 0.99645
vn -0.07902 -0.00862 0.99684
vn -0.09573 -0.00605 0.99539
vn 0.10165 -0.88823 0.44801
vn 0.10296 -0.87352 0.47577
vn 0.09356 -0.74319 0.66251
vn 0.09381 -0.76708 0.63465
vn 0.10340 -0.79750 0.59439
vn 0.10980 -0.90499 0.41101
vn 0.11105 -0.84030 0.53063
vn 0.11453 -0.92656 0.35828
vn 0.06739 -0.95066 0.30284
vn -0.19441 -0.93962 0.28162
vn -0.66365 -0.68407 0.30269
vn -0.18345 -0.87794 0.44223
vn -0.60753 -0.63627 0.47547
vn 0.06594 -0.88486 0.46117
vn -0.12971 -0.00269 0.99155
vn -0.05050 0.03303 0.99818
vn -0.12129 -0.00882 0.99258
vn -0.38020 0.84827 0.36863
vn -0.33209 0.88891 0.31553
vn -0.29463 0.82517 0.48196
vn -0.34167 0.76642 0.54394
vn -0.32463 0.73686 0.59300
vn -0.37351 0.83258 0.40902
vn 0.10772 -0.85712 0.50373
vn 0.09928 -0.71896 0.68792
vn -0.91332 -0.24225 0.32734
vn -0.92826 0.00127 0.37194
vn -0.83366 -0.22850 0.50278
vn -0.83676 0.00559 0.54754
vn 0.09908 -0.11318 0.98862
vn 0.02895 -0.15401 0.98765
vn 0.07806 0.00284 0.99694
vn 0.91988 0.26789 0.28645
vn 0.94642 -0.02587 0.32189
vn 0.87237 -0.01013 0.48874
vn 0.85837 0.26236 0.44088
vn 0.06707 0.88828 0.45438
vn 0.05581 0.95443 0.29316
vn 0.38489 0.88289 0.26901
vn 0.36415 0.83034 0.42182
vn -0.90307 0.05780 0.42558
vn -0.88229 0.05170 0.46786
vn -0.79158 0.05958 0.60815
vn -0.75043 0.05351 0.65878
vn -0.01300 -0.11427 0.99336
vn -0.02082 -0.09204 0.99554
vn 0.81404 -0.39544 0.42541
vn 0.79591 -0.38638 0.46608
vn 0.68861 -0.32218 0.64962
vn 0.71708 -0.33734 0.60992
vn 0.77604 -0.31730 0.54505
vn 0.85658 -0.36309 0.36666
vn -0.86366 0.04305 0.50224
vn -0.84566 0.02812 0.53298
vn -0.71548 0.04227 0.69735
vn -0.68232 0.02700 0.73055
vn -0.02529 -0.09127 0.99551
vn -0.02328 -0.07463 0.99694
vn 0.77706 -0.38015 0.50167
vn 0.75700 -0.37279 0.53664
vn 0.62868 -0.29364 0.72009
vn 0.65979 -0.31007 0.68450
vn 0.73304 -0.37739 0.56589
vn 0.71002 -0.41044 0.57220
vn 0.58934 -0.29259 0.75304
vn 0.55665 -0.33093 0.76199
vn 0.69111 -0.47757 0.54248
vn 0.54980 -0.40155 0.73245
vn -0.01604 -0.02803 0.99948
vn 0.00951 0.03366 0.99939
vn 0.08193 0.08543 0.99297
vn 0.65184 -0.58783 0.47913
vn 0.53349 -0.51110 0.67392
vn 0.40492 -0.81156 0.42119
vn 0.33057 -0.70762 0.62450
vn 0.17614 0.08202 0.98094
vn 0.15003 0.01153 0.98861
vn -0.04009 -0.01159 0.99913
vn -0.04437 0.93041 0.36381
vn -0.09521 0.89780 0.42998
vn -0.09138 0.78350 0.61464
vn -0.04230 0.84328 0.53581
vn 0.01845 0.85624 0.51624
vn 0.01549 0.93807 0.34610
vn 0.04963 0.82722 0.55968
vn 0.04589 0.92188 0.38476
vn 0.05091 0.89379 0.44560
vn 0.04166 0.86520 0.49970
vn 0.01678 0.83992 0.54245
vn 0.04068 0.72255 0.69012
vn -0.05041 0.38361 0.92212
vn 0.05236 0.77565 0.62899
vn -0.15009 0.06875 0.98628
vn -0.29946 -0.26193 0.91745
vn -0.13187 0.05977 0.98946
vn -0.16060 0.04356 0.98606
vn -0.45278 -0.79238 0.40881
vn -0.52885 -0.70557 0.47169
vn -0.44577 -0.60881 0.65623
vn -0.38633 -0.69856 0.60230
vn -0.09566 -0.79767 0.59545
vn -0.11037 -0.91372 0.39107
vn -0.69355 0.67925 0.24002
vn 0.04662 0.81262 0.58093
vn 0.00734 0.33705 0.94146
vn -0.13739 -0.23229 0.96290
vn -0.25370 -0.23538 0.93821
vn -0.49332 -0.63813 0.59112
vn -0.35071 -0.68079 0.64306
vn -0.53157 -0.65756 0.53390
vn -0.43149 -0.82113 0.37357
vn 0.16341 -0.93574 0.31255
vn 0.88245 -0.34117 0.32387
vn 0.75692 -0.58381 0.29367
f 1//1 4//2 5//3 6//4
f 1//1 6//4 7//5 8//6
f 1//1 8//6 9//7 4//2
f 10//8 11//9 2//10 12//11
f 2//10 11//9 13//12 14//13
f 2//10 15//14 16//15 12//11
f 3//16 17//17 19//18 20//19
f 3//20 20//21 21//22 22//23
f 3//16 22//23 18//24 17//17
f 23//25 24//26 25//27 26//28
f 27//29 28//30 4//2 9//7
f 28//30 29//31 5//3 4//2
f 28//30 27//32 30//33 31//34
f 28//30 31//34 32//35 29//31
f 32//35 33//36 34//37 29//31
f 35//38 274//39 36//40 37//41
f 35//38 37//41 34//37 33//36
f 37//41 36//40 38//42 39//43
f 37//41 39//43 40//44 34//37
f 40//44 39//45 41//46 42//47
f 40//44 42//47 6//4 5//3
f 40//44 5//3 29//31 34//37
f 42//47 41//46 43//48 44//49
f 42//47 44//49 7//5 6//4
f 44//49 43//48 45//50 275//51
f 44//49 275//51 276//52 7//5
f 276//52 277//53 8//6 7//5
f 277//53 278//54 9//7 8//6
f 278//54 30//33 27//32 9//7
f 279//55 46//56 47//57 48//58
f 279//55 48//58 36//40 274//39
f 48//58 47//57 49//59 50//60
f 48//58 50//60 38//42 36//40
f 50//61 49//62 51//62 52//61
f 50//61 52//61 53//63 38//63
f 53//64 52//65 54//66 55//67
f 53//64 55//67 43//48 41//46
f 53//63 41//46 39//45 38//63
f 55//67 54//66 280//68 281//69
f 55//67 281//69 45//50 43//48
f 57//70 56//71 58//72 59//73
f 57//70 59//73 47//57 46//56
f 59//73 58//72 60//74 61//75
f 59//73 61//75 49//59 47//57
f 61//76 60//77 62//77 63//76
f 61//76 63//76 51//62 49//62
f 63//78 62//79 64//80 65//81
f 63//78 65//81 66//82 51//83
f 66//82 65//81 282//84 283//85
f 66//82 283//85 280//68 54//66
f 66//82 54//66 52//65 51//83
f 282//84 65//81 64//80 284//86
f 69//87 68//88 70//89 71//90
f 69//87 71//90 58//72 56//71
f 71//90 70//89 72//91 73//92
f 71//90 73//92 60//74 58//72
f 73//93 72//94 74//94 75//93
f 73//93 75//93 62//77 60//77
f 75//95 74//96 76//97 77//98
f 75//95 77//98 64//80 62//79
f 77//98 76//97 78//99 67//100
f 77//98 67//100 284//86 64//80
f 78//99 76//97 80//101 79//102
f 80//101 81//103 82//104 79//102
f 80//101 76//97 74//96 83//105
f 80//101 83//105 84//106 81//103
f 84//106 85//107 86//108 81//103
f 84//109 83//110 87//110 88//109
f 84//109 88//109 89//111 85//111
f 89//111 90//112 91//112 85//111
f 89//113 88//114 92//115 93//116
f 89//113 93//116 94//117 90//118
f 94//117 95//119 96//120 90//118
f 94//117 93//116 285//121 286//122
f 94//117 286//122 97//123 95//119
f 97//123 98//124 99//125 95//119
f 100//126 101//127 102//128 103//129
f 100//130 103//129 99//125 98//124
f 103//129 102//128 104//131 105//132
f 103//129 105//132 106//133 99//125
f 106//134 105//135 107//135 108//134
f 106//134 108//134 109//136 96//136
f 106//133 96//120 95//119 99//125
f 109//137 108//138 110//139 111//140
f 109//137 111//140 112//141 91//142
f 109//136 91//112 90//112 96//136
f 112//141 111//140 113//143 114//144
f 112//141 114//144 115//145 86//108
f 112//141 86//108 85//107 91//142
f 115//145 82//104 81//103 86//108
f 288//146 287//147 92//115 116//148
f 288//146 116//148 70//89 68//88
f 116//148 92//115 88//114 87//149
f 116//148 87//149 72//91 70//89
f 287//147 285//121 93//116 92//115
f 289//150 117//151 118//152 119//153
f 289//150 119//153 102//128 101//127
f 119//153 118//152 120//154 121//155
f 119//153 121//155 104//131 102//128
f 121//155 120//154 122//156 123//157
f 121//155 123//157 124//158 104//158
f 124//159 123//160 125//161 126//162
f 124//159 126//162 127//163 107//164
f 124//158 107//135 105//135 104//158
f 127//163 126//162 290//165 291//166
f 127//163 291//166 128//167 110//139
f 127//163 110//139 108//138 107//164
f 128//167 113//143 111//140 110//139
f 290//165 126//162 125//161 292//168
f 131//169 130//170 132//171 133//172
f 131//169 133//172 118//152 117//151
f 133//172 132//171 134//173 135//174
f 133//172 135//174 120//154 118//152
f 135//174 134//173 136//175 137//176
f 135//174 137//176 122//156 120//154
f 137//176 136//175 138//177 139//178
f 137//176 139//178 140//179 122//156
f 140//179 139//178 141//180 129//181
f 140//179 129//181 292//168 125//161
f 140//179 125//161 123//160 122//156
f 141//180 139//178 138//177 293//182
f 144//183 143//184 145//185 146//186
f 144//183 146//186 132//171 130//170
f 146//186 145//185 147//187 148//188
f 146//186 148//188 134//173 132//171
f 148//189 147//190 149//190 150//191
f 148//189 150//191 136//175 134//173
f 150//191 149//192 151//193 152//194
f 150//191 152//194 138//177 136//175
f 152//194 151//193 294//195 142//196
f 152//194 142//196 293//182 138//177
f 294//195 151//193 154//197 153//198
f 154//197 155//199 156//200 153//198
f 154//197 151//193 149//192 157//201
f 154//197 157//201 158//202 155//199
f 158//202 159//203 160//204 155//199
f 158//205 157//206 161//206 162//205
f 158//205 162//205 163//207 159//207
f 163//207 164//208 165//208 159//207
f 163//209 162//210 166//211 167//212
f 163//209 167//212 168//213 164//214
f 168//213 169//215 170//216 164//214
f 168//213 167//212 295//217 296//218
f 168//213 296//218 171//219 169//215
f 171//219 172//220 173//221 169//215
f 174//222 175//223 176//224 177//225
f 174//222 177//225 173//221 172//220
f 177//225 176//224 178//226 179//227
f 177//225 179//227 180//228 173//221
f 180//229 179//230 181//230 182//229
f 180//229 182//229 183//231 170//231
f 180//228 170//216 169//215 173//221
f 183//232 182//233 184//234 185//235
f 183//232 185//235 186//236 165//237
f 183//231 165//208 164//208 170//231
f 186//236 185//235 187//238 188//239
f 186//236 188//239 189//240 160//204
f 186//236 160//204 159//203 165//237
f 189//240 156//200 155//199 160//204
f 298//241 297//242 166//211 190//243
f 298//241 190//243 145//185 143//184
f 190//243 166//211 162//210 161//244
f 190//243 161//244 147//187 145//185
f 297//242 295//217 167//212 166//211
f 300//245 299//246 191//247 192//248
f 300//245 192//248 176//224 175//223
f 192//248 191//247 193//249 194//250
f 192//248 194//250 178//226 176//224
f 194//251 193//252 195//252 196//251
f 194//251 196//251 197//253 178//253
f 197//254 196//255 198//256 199//257
f 197//258 199//259 200//260 181//261
f 197//253 181//230 179//230 178//253
f 200//260 199//259 301//262 302//262
f 200//260 302//263 303//264 184//234
f 200//260 184//234 182//233 181//261
f 303//264 187//238 185//235 184//234
f 301//265 199//257 198//256 304//266
f 305//267 202//268 203//269 204//270
f 305//267 204//270 191//247 299//246
f 204//270 203//269 205//271 206//272
f 204//270 206//272 193//249 191//247
f 206//273 205//274 207//274 208//273
f 206//273 208//273 195//252 193//252
f 208//275 207//276 209//277 210//278
f 208//275 210//278 211//279 195//280
f 211//279 210//278 306//281 201//282
f 211//279 201//282 304//266 198//256
f 211//279 198//256 196//255 195//280
f 306//281 210//278 209//277 307//283
f 214//284 213//285 215//286 216//287
f 214//284 216//287 203//269 202//268
f 216//287 215//286 217//288 218//289
f 216//287 218//289 205//271 203//269
f 218//290 217//291 219//291 220//290
f 218//290 220//290 207//274 205//274
f 220//292 219//293 221//294 222//295
f 220//292 222//295 209//277 207//276
f 222//295 221//294 308//296 212//297
f 222//295 212//297 307//283 209//277
f 308//296 221//294 224//298 223//299
f 224//298 225//300 226//301 223//299
f 224//298 221//294 219//293 227//302
f 224//298 227//302 228//303 225//300
f 228//303 229//304 230//305 225//300
f 228//306 227//307 15//14 2//10
f 228//306 2//10 14//13 229//308
f 230//305 231//309 232//310 233//311
f 230//305 233//311 226//301 225//300
f 230//305 229//304 234//312 231//309
f 234//312 235//313 236//314 231//309
f 234//315 229//308 14//13 237//315
f 234//315 237//315 238//316 235//316
f 238//316 239//317 240//317 235//316
f 238//318 237//319 241//320 242//321
f 238//318 242//321 243//322 239//323
f 243//322 244//324 245//325 239//323
f 243//322 242//321 309//326 310//327
f 243//322 310//327 311//328 244//324
f 311//328 246//329 247//330 244//324
f 248//331 312//332 249//333 250//334
f 248//331 250//334 247//330 246//329
f 250//334 249//333 251//335 252//336
f 250//334 252//336 253//337 247//330
f 253//338 252//339 254//340 255//338
f 253//338 255//338 256//341 245//341
f 253//337 245//325 244//324 247//330
f 256//342 255//343 257//344 258//345
f 256//342 258//345 259//346 240//347
f 256//341 240//317 239//317 245//341
f 259//346 258//345 313//348 314//349
f 259//346 314//349 260//350 236//314
f 259//346 236//314 235//313 240//347
f 260//350 232//310 231//309 236//314
f 316//351 315//352 241//320 13//12
f 316//351 13//12 11//9 317//353
f 317//353 11//9 10//354 261//355
f 261//355 10//354 12//11 318//356
f 318//356 12//11 16//15 319//357
f 319//357 16//15 215//286 213//285
f 315//352 309//326 242//321 241//320
f 262//358 18//24 22//23 263//359
f 262//358 263//359 249//333 312//332
f 263//359 22//23 21//22 264//360
f 263//359 264//360 251//335 249//333
f 264//360 21//22 25//27 265//361
f 264//360 265//361 266//362 251//335
f 266//362 265//361 267//363 268//364
f 266//362 268//364 269//365 254//340
f 266//362 254//340 252//339 251//335
f 269//365 268//364 320//366 270//367
f 269//365 270//367 321//368 257//344
f 269//365 257//344 255//343 254//340
f 321//368 313//348 258//345 257//344
f 320//366 268//364 267//363 322//369
f 271//370 322//369 267//363 24//26
f 271//370 24//26 23//371 272//372
f 272//373 23//374 26//375 273//376
f 273//376 26//375 20//19 19//18
f 267//363 265//361 25//27 24//26
f 241//320 237//319 14//13 13//12
f 227//307 219//291 217//291 15//14
f 217//288 215//286 16//15 15//14
f 161//206 157//206 149//190 147//190
f 87//110 83//110 74//94 72//94
f 26//28 25//27 21//22 20//21
f 328//377 327//378 326//379 323//380
f 330//381 329//382 328//377 323//380
f 326//379 331//383 330//381 323//380
f 334//384 324//385 333//386 332//387
f 336//388 335//389 333//386 324//385
f 334//384 338//390 337//391 324//385
f 339//392 19//18 17//17 325//393
f 341//394 340//395 339//392 325//393
f 17//17 18//24 341//394 325//393
f 345//396 344//397 343//398 342//399
f 331//383 326//379 347//400 346//401
f 326//379 327//378 348//402 347//400
f 31//34 30//33 346//401 347//400
f 348//402 32//35 31//34 347//400
f 348//402 349//403 33//404 32//35
f 351//405 350//406 274//39 35//38
f 33//404 349//403 351//405 35//38
f 353//407 352//408 350//406 351//405
f 349//403 354//409 353//407 351//405
f 356//410 355//411 353//412 354//409
f 327//378 328//377 356//410 354//409
f 349//403 348//402 327//378 354//409
f 358//413 357//414 355//411 356//410
f 328//377 329//382 358//413 356//410
f 275//51 45//50 357//414 358//413
f 329//382 276//52 275//51 358//413
f 329//382 330//381 277//53 276//52
f 330//381 331//383 278//54 277//53
f 331//383 346//401 30//33 278//54
f 360//415 359//416 46//56 279//55
f 274//39 350//406 360//415 279//55
f 362//417 361//418 359//416 360//415
f 350//406 352//408 362//417 360//415
f 364//419 363//420 361//420 362//419
f 352//421 365//421 364//419 362//419
f 367//422 366//423 364//424 365//425
f 355//411 357//414 367//422 365//425
f 352//421 353//412 355//411 365//421
f 281//69 280//68 366//423 367//422
f 357//414 45//50 281//69 367//422
f 369//426 368//427 56//71 57//70
f 46//56 359//416 369//426 57//70
f 371//428 370//429 368//427 369//426
f 359//416 361//418 371//428 369//426
f 373//430 372//431 370//431 371//430
f 361//420 363//420 373//430 371//430
f 375//432 374//433 372//434 373//435
f 363//436 376//437 375//432 373//435
f 283//85 282//84 375//432 376//437
f 366//423 280//68 283//85 376//437
f 363//436 364//424 366//423 376//437
f 284//86 374//433 375//432 282//84
f 378//438 377//439 68//88 69//87
f 56//71 368//427 378//438 69//87
f 380//440 379//441 377//439 378//438
f 368//427 370//429 380//440 378//438
f 382//442 381//443 379//443 380//442
f 370//431 372//431 382//442 380//442
f 384//444 383//445 381//446 382//447
f 372//434 374//433 384//444 382//447
f 67//100 78//99 383//445 384//444
f 374//433 284//86 67//100 384//444
f 79//102 385//448 383//445 78//99
f 79//102 82//104 386//449 385//448
f 387//450 381//446 383//445 385//448
f 386//449 388//451 387//450 385//448
f 386//449 390//452 389//453 388//451
f 392//454 391//455 387//455 388//454
f 389//456 393//456 392//454 388//454
f 389//456 395//457 394//457 393//456
f 397//458 396//459 392//460 393//461
f 394//462 398//463 397//458 393//461
f 394//462 400//464 399//465 398//463
f 286//122 285//121 397//458 398//463
f 399//465 97//123 286//122 398//463
f 399//465 401//466 98//124 97//123
f 403//467 402//468 101//127 100//126
f 98//124 401//466 403//467 100//130
f 405//469 404//470 402//468 403//467
f 401//466 406//471 405//469 403//467
f 408//472 407//473 405//473 406//472
f 400//474 409//474 408//472 406//472
f 401//466 399//465 400//464 406//471
f 411//475 410//476 408//477 409//478
f 395//479 412//480 411//475 409//478
f 400//474 394//457 395//457 409//474
f 114//144 113//143 411//475 412//480
f 390//452 115//145 114//144 412//480
f 395//479 389//453 390//452 412//480
f 390//452 386//449 82//104 115//145
f 413//481 396//459 287//147 288//146
f 68//88 377//439 413//481 288//146
f 391//482 392//460 396//459 413//481
f 377//439 379//441 391//482 413//481
f 396//459 397//458 285//121 287//147
f 415//483 414//484 117//151 289//150
f 101//127 402//468 415//483 289//150
f 417//485 416//486 414//484 415//483
f 402//468 404//470 417//485 415//483
f 419//487 418//488 416//486 417//485
f 404//489 420//489 419//487 417//485
f 422//490 421//491 419//492 420//493
f 407//494 423//495 422//490 420//493
f 404//489 405//473 407//473 420//489
f 291//166 290//165 422//490 423//495
f 410//476 128//167 291//166 423//495
f 407//494 408//477 410//476 423//495
f 410//476 411//475 113//143 128//167
f 292//168 421//491 422//490 290//165
f 425//496 424//497 130//498 131//499
f 117//151 414//484 425//496 131//499
f 427//500 426//501 424//497 425//496
f 414//484 416//486 427//500 425//496
f 429//502 428//503 426//501 427//500
f 416//486 418//488 429//502 427//500
f 431//504 430//505 428//503 429//502
f 418//488 432//506 431//504 429//502
f 129//181 141//180 431//504 432//506
f 421//491 292//168 129//181 432//506
f 418//488 419//492 421//491 432//506
f 293//182 430//505 431//504 141//180
f 434//507 433//508 143//184 144//183
f 130//498 424//497 434//507 144//183
f 436//509 435//510 433//508 434//507
f 424//497 426//501 436//509 434//507
f 438//511 437//512 435//512 436//513
f 426//501 428//503 438//511 436//513
f 440//514 439//515 437//516 438//511
f 428//503 430//505 440//514 438//511
f 142//196 294//195 439//515 440//514
f 430//505 293//182 142//196 440//514
f 153//198 441//517 439//515 294//195
f 153//198 156//200 442//518 441//517
f 443//519 437//516 439//515 441//517
f 442//518 444//520 443//519 441//517
f 442//518 446//521 445//522 444//520
f 448//523 447//524 443//524 444//523
f 445//525 449//525 448//523 444//523
f 445//525 451//526 450//526 449//525
f 453//527 452//528 448//529 449//530
f 450//531 454//532 453//527 449//530
f 450//531 456//533 455//534 454//532
f 296//218 295//217 453//527 454//532
f 455//534 171//219 296//218 454//532
f 455//534 457//535 172//220 171//219
f 459//536 458//537 175//223 174//222
f 172//220 457//535 459//536 174//222
f 461//538 460//539 458//537 459//536
f 457//535 462//540 461//538 459//536
f 464//541 463//542 461//542 462//541
f 456//543 465//543 464//541 462//541
f 457//535 455//534 456//533 462//540
f 467//544 466//545 464//546 465//547
f 451//548 468//549 467//544 465//547
f 456//543 450//526 451//526 465//543
f 188//239 187//238 467//544 468//549
f 446//521 189//240 188//239 468//549
f 451//548 445//522 446//521 468//549
f 446//521 442//518 156//200 189//240
f 469//550 452//528 297//242 298//241
f 143//184 433//508 469//550 298//241
f 447//551 448//529 452//528 469//550
f 433//508 435//510 447//551 469//550
f 452//528 453//527 295//217 297//242
f 471//552 470//553 299//246 300//245
f 175//223 458//537 471//552 300//245
f 473//554 472//555 470//553 471//552
f 458//537 460//539 473//554 471//552
f 475//556 474//557 472//557 473//556
f 460//558 476//558 475//556 473//556
f 478//559 477//560 475//561 476//562
f 463//563 479//564 478//565 476//566
f 460//558 461//542 463//542 476//558
f 302//262 301//262 478//565 479//564
f 466//545 303//264 302//263 479//564
f 463//563 464//546 466//545 479//564
f 466//545 467//544 187//238 303//264
f 304//266 477//560 478//559 301//265
f 481//567 480//568 202//268 305//267
f 299//246 470//553 481//567 305//267
f 483//569 482//570 480//568 481//567
f 470//553 472//555 483//569 481//567
f 485//571 484//572 482//572 483//571
f 472//557 474//557 485//571 483//571
f 487//573 486//574 484//575 485//576
f 474//577 488//578 487//573 485//576
f 201//282 306//281 487//573 488//578
f 477//560 304//266 201//282 488//578
f 474//577 475//561 477//560 488//578
f 307//283 486//574 487//573 306//281
f 490//579 489//580 213//285 214//284
f 202//268 480//568 490//579 214//284
f 492//581 491//582 489//580 490//579
f 480//568 482//570 492//581 490//579
f 494//583 493//584 491//584 492//583
f 482//572 484//572 494//583 492//583
f 496//585 495//586 493//587 494//588
f 484//575 486//574 496//585 494//588
f 212//297 308//296 495//586 496//585
f 486//574 307//283 212//297 496//585
f 223//299 497//589 495//586 308//296
f 223//299 226//301 498//590 497//589
f 499//591 493//587 495//586 497//589
f 498//590 500//592 499//591 497//589
f 498//590 502//593 501//594 500//592
f 324//385 337//391 499//595 500//596
f 501//597 336//388 324//385 500//596
f 233//311 232//310 503//598 502//593
f 498//590 226//301 233//311 502//593
f 503//598 504//599 501//594 502//593
f 503//598 506//600 505//601 504//599
f 507//602 336//388 501//597 504//602
f 505//603 508//603 507//602 504//602
f 505//603 510//604 509//604 508//603
f 512//605 511//606 507//607 508//608
f 509//609 513//610 512//605 508//608
f 509//609 515//611 514//612 513//610
f 310//327 309//326 512//605 513//610
f 514//612 311//328 310//327 513//610
f 514//612 516//613 246//329 311//328
f 518//614 517//615 312//332 248//331
f 246//329 516//613 518//614 248//331
f 520//616 519//617 517//615 518//614
f 516//613 521//618 520//616 518//614
f 523//619 522//620 520//621 521//619
f 515//622 524//622 523//619 521//619
f 516//613 514//612 515//611 521//618
f 526//623 525//624 523//625 524//626
f 510//627 527//628 526//623 524//626
f 515//622 509//604 510//604 524//622
f 314//349 313//348 526//623 527//628
f 506//600 260//350 314//349 527//628
f 510//627 505//601 506//600 527//628
f 506//600 503//598 232//310 260//350
f 335//389 511//606 315//352 316//351
f 317//353 333//386 335//389 316//351
f 261//355 332//629 333//386 317//353
f 318//356 334//384 332//629 261//355
f 319//357 338//390 334//384 318//356
f 213//285 489//580 338//390 319//357
f 511//606 512//605 309//326 315//352
f 528//630 341//394 18//24 262//358
f 312//332 517//615 528//630 262//358
f 529//631 340//395 341//394 528//630
f 517//615 519//617 529//631 528//630
f 530//632 344//397 340//395 529//631
f 519//617 531//633 530//632 529//631
f 533//634 532//635 530//632 531//633
f 522//620 534//636 533//634 531//633
f 519//617 520//621 522//620 531//633
f 270//367 320//366 533//634 534//636
f 525//624 321//368 270//367 534//636
f 522//620 523//625 525//624 534//636
f 525//624 526//623 313//348 321//368
f 322//637 532//635 533//634 320//366
f 343//398 532//635 322//637 271//370
f 272//372 342//638 343//398 271//370
f 273//376 345//639 342//640 272//373
f 19//18 339//392 345//639 273//376
f 343//398 344//397 530//632 532//635
f 335//389 336//388 507//607 511//606
f 337//391 491//584 493//584 499//595
f 337//391 338//390 489//580 491//582
f 435//512 437//512 443//524 447//524
f 379//443 381//443 387//455 391//455
f 339//392 340//395 344//397 345//396
