# pilowlava3D glyph '6' variant 1 — Vincent Wagner / Velvetyne, Free Art License
v 1.91498 2.87556 -0.46977
v 2.63281 4.31784 -0.36696
v 2.86912 4.05392 -0.36210
v 1.93980 3.18264 -0.51543
v 2.11598 3.10715 -0.39616
v 2.11432 2.89830 -0.34714
v 2.24133 2.70585 -0.28565
v 2.19380 2.65656 -0.33309
v 2.76802 4.20298 -0.38724
v 2.61864 4.09838 -0.47981
v 2.46639 4.28541 -0.42136
v 2.38069 4.44708 -0.24221
v 2.65497 4.42271 -0.22924
v 2.87153 4.28962 -0.22680
v 2.76873 3.92636 -0.40936
v 2.96973 4.04352 -0.22521
v 2.88706 3.82313 -0.23189
v 1.59442 2.76907 -0.50008
v 1.36822 2.98791 -0.45523
v 1.55144 3.15732 -0.46594
v 1.69147 2.58858 -0.39477
v 1.50473 2.46269 -0.40349
v 1.37154 2.63017 -0.50317
v 1.19072 2.80911 -0.44194
v 1.04527 2.92500 -0.24990
v 1.19878 3.11838 -0.25801
v 1.19190 2.46978 -0.49576
v 1.02677 2.62739 -0.42906
v 0.89617 2.73514 -0.24053
v 0.83212 2.78448 0.00000
v 0.97538 2.97665 0.00000
v 0.86695 2.44973 -0.41638
v 0.74782 2.54971 -0.23121
v 0.59999 2.36462 -0.22299
v 0.40432 2.21164 0.00000
v 0.64967 1.44093 0.00000
v 0.37637 1.17809 -0.16869
v 0.46974 1.33420 -0.18134
v 0.37472 1.02272 -0.16347
v 0.31439 1.00178 -0.29923
v 0.31045 1.18614 -0.30807
v 0.47516 0.91350 -0.17302
v 0.41760 0.85431 -0.31434
v 0.34836 0.78005 -0.37158
v 0.23612 0.97528 -0.35601
v 0.64186 0.86536 -0.18968
v 0.59872 0.76785 -0.34454
v 0.54481 0.64913 -0.40358
v 0.48125 0.52817 -0.35896
v 0.27784 0.70906 -0.34128
v 0.81201 0.73433 -0.36572
v 0.76682 0.57487 -0.43538
v 0.71383 0.40859 -0.37521
v 0.67127 0.29863 -0.21039
v 0.42435 0.43635 -0.20416
v 0.99048 0.52448 -0.45656
v 0.95097 0.33381 -0.38965
v 0.91890 0.20509 -0.21682
v 0.90212 0.15385 0.00000
v 0.65107 0.25550 0.00000
v 1.19114 0.28713 -0.39870
v 1.16706 0.15207 -0.21857
v 1.41230 0.11335 -0.22236
v 1.64891 0.02026 0.00000
v 2.35027 0.90529 0.00000
v 2.13054 0.90351 0.00000
v 2.56862 0.83805 -0.22022
v 2.34948 0.83269 -0.22234
v 2.78717 0.84399 -0.21503
v 2.79736 0.70578 -0.39755
v 2.57513 0.69234 -0.40502
v 3.00131 0.91224 0.00000
v 3.00289 0.84945 -0.20846
v 3.01722 0.72214 -0.38285
v 3.04791 0.53027 -0.46176
v 2.82009 0.49887 -0.47734
v 3.21693 0.86069 -0.20351
v 3.23402 0.74643 -0.36907
v 3.27077 0.57607 -0.44110
v 3.31544 0.40372 -0.37618
v 3.08285 0.33635 -0.38924
v 3.45259 0.77424 -0.35539
v 3.48962 0.63796 -0.41641
v 3.54075 0.49932 -0.36273
v 3.58425 0.39768 -0.20420
v 3.35306 0.28839 -0.20949
v 3.70835 0.72029 -0.38114
v 3.75702 0.62300 -0.33629
v 3.79580 0.54619 -0.19057
v 3.81251 0.51583 0.00000
v 3.60078 0.35868 0.00000
v 3.95475 0.78145 -0.29992
v 3.99116 0.73730 -0.17424
v 4.13919 0.96932 -0.17036
v 3.52438 1.56261 0.00000
v 3.67079 1.44898 0.00000
v 3.41932 1.73441 -0.21834
v 3.56909 1.61891 -0.21528
v 3.26618 1.84584 -0.22047
v 3.36635 1.97351 -0.40686
v 3.52146 1.85867 -0.40303
v 3.06283 1.90871 0.00000
v 3.10787 1.96272 -0.21778
v 3.19736 2.08159 -0.40103
v 3.30928 2.26865 -0.48296
v 3.50834 2.17027 -0.49154
v 2.94057 2.07544 -0.21511
v 3.01063 2.18858 -0.38938
v 3.08513 2.34909 -0.46017
v 3.14857 2.51494 -0.39485
v 3.39545 2.46922 -0.41188
v 2.80697 2.29082 -0.36722
v 2.85676 2.41973 -0.42761
v 2.90141 2.55128 -0.37196
v 2.93365 2.65309 -0.21241
v 3.18096 2.63808 -0.21927
v 2.63305 2.48519 -0.38664
v 2.66743 2.58619 -0.34124
v 2.69820 2.66713 -0.19642
v 2.71271 2.70300 0.00000
v 2.94453 2.70135 0.00000
v 2.44447 2.62712 -0.30463
v 2.47192 2.69039 -0.18279
v 2.48311 2.71222 0.00000
v 2.28703 2.76082 -0.17520
v 2.31087 3.01902 0.00000
v 2.42687 3.15856 0.00000
v 1.30005 2.01174 0.00000
v 1.46325 2.15414 0.00000
v 1.09504 1.91144 -0.21024
v 1.25911 2.06165 -0.21382
v 0.93127 1.76225 -0.20530
v 0.84422 1.84155 -0.37957
v 1.00644 2.00080 -0.38901
v 0.76851 1.61555 -0.19794
v 0.68327 1.68629 -0.36644
v 0.55046 1.79373 -0.44217
v 0.70502 1.96459 -0.46042
v 0.61474 1.47289 -0.19512
v 0.52880 1.53075 -0.35105
v 0.40738 1.61312 -0.41662
v 0.27317 1.70300 -0.36313
v 0.40936 1.90672 -0.37822
v 0.38875 1.36758 -0.32559
v 0.28668 1.41835 -0.38608
v 0.16550 1.47087 -0.34607
v 0.07224 1.50383 -0.19802
v 0.17758 1.76067 -0.20461
v 0.21567 1.20020 -0.36171
v 0.11491 1.21143 -0.33039
v 0.02868 1.21601 -0.19284
v 0.03973 1.51675 0.00000
v 0.14792 0.94487 -0.32959
v 0.06959 0.91677 -0.19275
v 0.21058 0.64539 -0.19555
v 0.40424 0.40388 0.00000
v 1.25418 0.90057 0.00000
v 1.04516 0.89940 0.00000
v 1.46945 0.83008 -0.21503
v 1.25238 0.83257 -0.21077
v 1.68846 0.82768 -0.21880
v 1.68464 0.67771 -0.40186
v 1.46269 0.68471 -0.39663
v 1.91003 0.90185 0.00000
v 1.90889 0.82745 -0.22131
v 1.90801 0.67492 -0.40680
v 1.90584 0.45282 -0.49221
v 1.67636 0.45991 -0.48743
v 2.12969 0.82970 -0.22281
v 2.13122 0.67580 -0.40842
v 2.13523 0.45200 -0.49280
v 2.13954 0.22796 -0.41272
v 1.90286 0.23074 -0.41072
v 2.35331 0.68156 -0.40818
v 2.36386 0.45870 -0.49295
v 2.37645 0.23515 -0.41152
v 2.38654 0.08153 -0.22504
v 2.14203 0.07254 -0.22633
v 2.59180 0.47496 -0.48775
v 2.61268 0.25638 -0.40759
v 2.63098 0.10753 -0.22252
v 2.64122 0.03755 0.00000
v 2.39172 0.00879 0.00000
v 2.84748 0.29043 -0.39913
v 2.87263 0.15061 -0.21834
v 2.88701 0.08610 0.00000
v 3.11387 0.20814 -0.21416
v 3.37044 0.24127 0.00000
v 3.61872 0.92679 0.00000
v 3.92876 1.06561 0.00000
v 3.94226 1.05919 -0.15669
v 3.81684 0.94223 -0.16281
v 3.93102 1.20751 0.00000
v 3.95083 1.21391 -0.16333
v 4.00332 1.21683 -0.29328
v 3.98019 1.03990 -0.27091
v 3.81169 1.33601 0.00000
v 3.85036 1.35817 -0.18883
v 3.93155 1.39671 -0.34190
v 4.02934 1.44403 -0.39464
v 4.07763 1.22039 -0.34381
v 3.71267 1.49669 -0.21105
v 3.80390 1.57483 -0.37429
v 3.94051 1.66429 -0.44124
v 4.08904 1.73795 -0.38443
v 4.13947 1.48186 -0.34804
v 3.66522 1.72825 -0.39386
v 3.82360 1.87069 -0.47486
v 3.99954 1.99182 -0.40498
v 4.12671 2.06334 -0.22838
v 4.20587 1.78488 -0.21885
v 3.68130 2.03828 -0.48824
v 3.85083 2.21458 -0.41615
v 3.97373 2.32983 -0.23530
v 4.01816 2.36789 0.00000
v 4.17782 2.08742 0.00000
v 3.63997 2.37566 -0.41629
v 3.72670 2.51861 -0.23366
v 3.75884 2.57224 0.00000
v 3.44794 2.61611 -0.22977
v 2.36185 2.40368 0.00000
v 2.14281 2.50109 0.00000
v 2.14875 2.52404 -0.17313
v 2.36867 2.42574 -0.17608
v 1.92261 2.53132 -0.19262
v 1.92290 2.66557 -0.36965
v 2.16544 2.57458 -0.30012
v 1.74785 2.45892 -0.20951
v 1.62065 2.28893 0.00000
v 1.58372 2.34429 -0.21610
v 1.42227 2.20772 -0.21672
v 1.33368 2.31586 -0.40144
v 1.16888 2.15977 -0.39585
v 1.02471 2.30268 -0.48750
v 0.86356 2.13430 -0.47562
v 0.71002 2.27321 -0.40429
v 0.55785 2.09347 -0.39130
v 0.45469 2.17599 -0.21572
v 0.31293 1.97783 -0.20916
v 0.26898 2.00712 0.00000
v 0.13915 1.78241 0.00000
v 0.65386 0.90533 0.00000
v 0.84126 0.90004 0.00000
v 0.83540 0.84834 -0.19921
v 1.04141 0.83805 -0.20508
v 1.02495 0.71106 -0.37675
v 1.24239 0.69526 -0.38795
v 1.21869 0.49238 -0.47299
v 1.44701 0.47217 -0.48050
v 1.42912 0.25818 -0.40458
v 1.66617 0.23923 -0.40972
v 1.65555 0.08992 -0.22438
v 1.89894 0.08030 -0.22403
v 1.89523 0.00784 0.00000
v 2.14195 0.00000 0.00000
v 3.21320 0.91670 0.00000
v 3.42066 0.92120 0.00000
v 3.42848 0.87307 -0.19841
v 3.63278 0.88921 -0.18409
v 3.66922 0.81156 -0.33060
v 3.85779 0.89808 -0.28894
v 3.90698 0.84161 -0.34085
v 4.03941 1.01264 -0.32022
v 4.10009 0.98620 -0.28339
v 4.15706 1.22871 -0.30445
v 4.21548 1.23441 -0.18077
v 4.22786 1.50983 -0.19984
v 4.26510 1.51692 0.00000
v 4.25142 1.79914 0.00000
v 2.90078 2.02620 0.00000
v 2.76203 2.19192 -0.20610
v 2.57063 2.30691 -0.19183
v 2.59877 2.38753 -0.33686
v 2.38714 2.48013 -0.29922
v 2.41313 2.55249 -0.34345
v 1.12222 3.17230 0.00000
v 1.35446 3.30634 -0.26234
v 1.41852 3.56701 0.00000
v 1.50220 3.49955 -0.26177
v 1.67584 3.35904 -0.46256
v 1.64734 3.70222 -0.26343
v 1.81103 3.57440 -0.46345
v 2.03259 3.41822 -0.53322
v 1.94588 3.78576 -0.47150
v 2.15898 3.62481 -0.54360
v 2.35081 3.47158 -0.44407
v 2.22181 3.29611 -0.43217
v 2.48118 3.36388 -0.23437
v 2.35817 3.20969 -0.22693
v 2.24882 3.05640 -0.20561
v 2.20892 2.90034 -0.18363
v 2.55078 3.30550 0.00000
v 2.61296 3.51402 -0.23673
v 1.70615 3.97477 0.00000
v 1.56318 3.76950 0.00000
v 1.78521 3.91106 -0.26846
v 1.92774 4.12722 -0.27229
v 2.08855 3.99092 -0.47308
v 2.11905 4.32909 -0.26366
v 2.26224 4.17044 -0.45936
v 2.44900 3.97323 -0.53098
v 2.29552 3.81415 -0.54039
v 2.62251 3.78168 -0.43937
v 2.48261 3.63616 -0.44393
v 2.75263 3.65818 -0.23803
v 2.94039 3.79665 0.00000
v 3.01158 4.04288 0.00000
v 2.90449 4.31413 0.00000
v 2.66915 4.46843 0.00000
v 0.68888 2.59485 0.00000
v 0.54548 2.40564 0.00000
v 0.50881 1.31324 0.00000
v 0.40493 1.17171 0.00000
v 0.39969 1.03189 0.00000
v 0.49285 0.93673 0.00000
v 1.15372 0.09302 0.00000
v 1.40140 0.04893 0.00000
v 2.56874 0.90738 0.00000
v 2.78528 0.90939 0.00000
v 4.00678 0.71780 0.00000
v 4.15402 0.96257 0.00000
v 3.37381 1.67603 0.00000
v 3.21957 1.79041 0.00000
v 2.30284 2.77166 0.00000
v 1.13422 1.86631 0.00000
v 0.96857 1.72188 0.00000
v 0.80540 1.58003 0.00000
v 0.00000 1.21852 0.00000
v 0.04267 0.90787 0.00000
v 0.18654 0.62296 0.00000
v 1.47108 0.90068 0.00000
v 1.68999 0.90089 0.00000
v 3.13023 0.15248 0.00000
v 3.80297 0.96115 0.00000
v 3.46705 2.67226 0.00000
v 1.93228 2.49142 0.00000
v 1.77327 2.40792 0.00000
v 4.23915 1.23505 0.00000
v 2.73341 2.14777 0.00000
v 2.55542 2.27332 0.00000
v 3.18706 2.69547 0.00000
v 1.27155 3.36828 0.00000
v 2.24965 2.88893 0.00000
v 2.68055 3.45562 0.00000
v 1.86138 4.19143 0.00000
v 2.81468 3.61107 0.00000
v 2.36853 4.50626 0.00000
v 2.07327 4.39562 0.00000
v 1.91498 2.87556 0.46977
v 2.63281 4.31784 0.36696
v 2.86912 4.05392 0.36210
v 1.93980 3.18264 0.51543
v 2.11598 3.10715 0.39616
v 2.11432 2.89830 0.34714
v 2.24133 2.70585 0.28565
v 2.19380 2.65656 0.33309
v 2.76802 4.20298 0.38724
v 2.61864 4.09838 0.47981
v 2.46639 4.28541 0.42136
v 2.38069 4.44708 0.24221
v 2.65497 4.42271 0.22924
v 2.87153 4.28962 0.22680
v 2.76873 3.92636 0.40936
v 2.96973 4.04352 0.22521
v 2.88706 3.82313 0.23189
v 1.59442 2.76907 0.50008
v 1.36822 2.98791 0.45523
v 1.55144 3.15732 0.46594
v 1.69147 2.58858 0.39477
v 1.50473 2.46269 0.40349
v 1.37154 2.63017 0.50317
v 1.19072 2.80911 0.44194
v 1.04527 2.92500 0.24990
v 1.19878 3.11838 0.25801
v 1.19190 2.46978 0.49576
v 1.02677 2.62739 0.42906
v 0.89617 2.73514 0.24053
v 0.86695 2.44973 0.41638
v 0.74782 2.54971 0.23121
v 0.59999 2.36462 0.22299
v 0.37637 1.17809 0.16869
v 0.46974 1.33420 0.18134
v 0.37472 1.02272 0.16347
v 0.31439 1.00178 0.29923
v 0.31045 1.18614 0.30807
v 0.47516 0.91350 0.17302
v 0.41760 0.85431 0.31434
v 0.34836 0.78005 0.37158
v 0.23612 0.97528 0.35601
v 0.64186 0.86536 0.18968
v 0.59872 0.76785 0.34454
v 0.54481 0.64913 0.40358
v 0.48125 0.52817 0.35896
v 0.27784 0.70906 0.34128
v 0.81201 0.73433 0.36572
v 0.76682 0.57487 0.43538
v 0.71383 0.40859 0.37521
v 0.67127 0.29863 0.21039
v 0.42435 0.43635 0.20416
v 0.99048 0.52448 0.45656
v 0.95097 0.33381 0.38965
v 0.91890 0.20509 0.21682
v 1.19114 0.28713 0.39870
v 1.16706 0.15207 0.21857
v 1.41230 0.11335 0.22236
v 2.56862 0.83805 0.22022
v 2.34948 0.83269 0.22234
v 2.78717 0.84399 0.21503
v 2.79736 0.70578 0.39755
v 2.57513 0.69234 0.40502
v 3.00289 0.84945 0.20846
v 3.01722 0.72214 0.38285
v 3.04791 0.53027 0.46176
v 2.82009 0.49887 0.47734
v 3.21693 0.86069 0.20351
v 3.23402 0.74643 0.36907
v 3.27077 0.57607 0.44110
v 3.31544 0.40372 0.37618
v 3.08285 0.33635 0.38924
v 3.45259 0.77424 0.35539
v 3.48962 0.63796 0.41641
v 3.54075 0.49932 0.36273
v 3.58425 0.39768 0.20420
v 3.35306 0.28839 0.20949
v 3.70835 0.72029 0.38114
v 3.75702 0.62300 0.33629
v 3.79580 0.54619 0.19057
v 3.95475 0.78145 0.29992
v 3.99116 0.73730 0.17424
v 4.13919 0.96932 0.17036
v 3.41932 1.73441 0.21834
v 3.56909 1.61891 0.21528
v 3.26618 1.84584 0.22047
v 3.36635 1.97351 0.40686
v 3.52146 1.85867 0.40303
v 3.10787 1.96272 0.21778
v 3.19736 2.08159 0.40103
v 3.30928 2.26865 0.48296
v 3.50834 2.17027 0.49154
v 2.94057 2.07544 0.21511
v 3.01063 2.18858 0.38938
v 3.08513 2.34909 0.46017
v 3.14857 2.51494 0.39485
v 3.39545 2.46922 0.41188
v 2.80697 2.29082 0.36722
v 2.85676 2.41973 0.42761
v 2.90141 2.55128 0.37196
v 2.93365 2.65309 0.21241
v 3.18096 2.63808 0.21927
v 2.63305 2.48519 0.38664
v 2.66743 2.58619 0.34124
v 2.69820 2.66713 0.19642
v 2.44447 2.62712 0.30463
v 2.47192 2.69039 0.18279
v 2.28703 2.76082 0.17520
v 1.09504 1.91144 0.21024
v 1.25911 2.06165 0.21382
v 0.93127 1.76225 0.20530
v 0.84422 1.84155 0.37957
v 1.00644 2.00080 0.38901
v 0.76851 1.61555 0.19794
v 0.68327 1.68629 0.36644
v 0.55046 1.79373 0.44217
v 0.70502 1.96459 0.46042
v 0.61474 1.47289 0.19512
v 0.52880 1.53075 0.35105
v 0.40738 1.61312 0.41662
v 0.27317 1.70300 0.36313
v 0.40936 1.90672 0.37822
v 0.38875 1.36758 0.32559
v 0.28668 1.41835 0.38608
v 0.16550 1.47087 0.34607
v 0.07224 1.50383 0.19802
v 0.17758 1.76067 0.20461
v 0.21567 1.20020 0.36171
v 0.11491 1.21143 0.33039
v 0.02868 1.21601 0.19284
v 0.14792 0.94487 0.32959
v 0.06959 0.91677 0.19275
v 0.21058 0.64539 0.19555
v 1.46945 0.83008 0.21503
v 1.25238 0.83257 0.21077
v 1.68846 0.82768 0.21880
v 1.68464 0.67771 0.40186
v 1.46269 0.68471 0.39663
v 1.90889 0.82745 0.22131
v 1.90801 0.67492 0.40680
v 1.90584 0.45282 0.49221
v 1.67636 0.45991 0.48743
v 2.12969 0.82970 0.22281
v 2.13122 0.67580 0.40842
v 2.13523 0.45200 0.49280
v 2.13954 0.22796 0.41272
v 1.90286 0.23074 0.41072
v 2.35331 0.68156 0.40818
v 2.36386 0.45870 0.49295
v 2.37645 0.23515 0.41152
v 2.38654 0.08153 0.22504
v 2.14203 0.07254 0.22633
v 2.59180 0.47496 0.48775
v 2.61268 0.25638 0.40759
v 2.63098 0.10753 0.22252
v 2.84748 0.29043 0.39913
v 2.87263 0.15061 0.21834
v 3.11387 0.20814 0.21416
v 3.94226 1.05919 0.15669
v 3.81684 0.94223 0.16281
v 3.95083 1.21391 0.16333
v 4.00332 1.21683 0.29328
v 3.98019 1.03990 0.27091
v 3.85036 1.35817 0.18883
v 3.93155 1.39671 0.34190
v 4.02934 1.44403 0.39464
v 4.07763 1.22039 0.34381
v 3.71267 1.49669 0.21105
v 3.80390 1.57483 0.37429
v 3.94051 1.66429 0.44124
v 4.08904 1.73795 0.38443
v 4.13947 1.48186 0.34804
v 3.66522 1.72825 0.39386
v 3.82360 1.87069 0.47486
v 3.99954 1.99182 0.40498
v 4.12671 2.06334 0.22838
v 4.20587 1.78488 0.21885
v 3.68130 2.03828 0.48824
v 3.85083 2.21458 0.41615
v 3.97373 2.32983 0.23530
v 3.63997 2.37566 0.41629
v 3.72670 2.51861 0.23366
v 3.44794 2.61611 0.22977
v 2.14875 2.52404 0.17313
v 2.36867 2.42574 0.17608
v 1.92261 2.53132 0.19262
v 1.92290 2.66557 0.36965
v 2.16544 2.57458 0.30012
v 1.74785 2.45892 0.20951
v 1.58372 2.34429 0.21610
v 1.42227 2.20772 0.21672
v 1.33368 2.31586 0.40144
v 1.16888 2.15977 0.39585
v 1.02471 2.30268 0.48750
v 0.86356 2.13430 0.47562
v 0.71002 2.27321 0.40429
v 0.55785 2.09347 0.39130
v 0.45469 2.17599 0.21572
v 0.31293 1.97783 0.20916
v 0.83540 0.84834 0.19921
v 1.04141 0.83805 0.20508
v 1.02495 0.71106 0.37675
v 1.24239 0.69526 0.38795
v 1.21869 0.49238 0.47299
v 1.44701 0.47217 0.48050
v 1.42912 0.25818 0.40458
v 1.66617 0.23923 0.40972
v 1.65555 0.08992 0.22438
v 1.89894 0.08030 0.22403
v 3.42848 0.87307 0.19841
v 3.63278 0.88921 0.18409
v 3.66922 0.81156 0.33060
v 3.85779 0.89808 0.28894
v 3.90698 0.84161 0.34085
v 4.03941 1.01264 0.32022
v 4.10009 0.98620 0.28339
v 4.15706 1.22871 0.30445
v 4.21548 1.23441 0.18077
v 4.22786 1.50983 0.19984
v 2.76203 2.19192 0.20610
v 2.57063 2.30691 0.19183
v 2.59877 2.38753 0.33686
v 2.38714 2.48013 0.29922
v 2.41313 2.55249 0.34345
v 1.35446 3.30634 0.26234
v 1.50220 3.49955 0.26177
v 1.67584 3.35904 0.46256
v 1.64734 3.70222 0.26343
v 1.81103 3.57440 0.46345
v 2.03259 3.41822 0.53322
v 1.94588 3.78576 0.47150
v 2.15898 3.62481 0.54360
v 2.35081 3.47158 0.44407
v 2.22181 3.29611 0.43217
v 2.48118 3.36388 0.23437
v 2.35817 3.20969 0.22693
v 2.24882 3.05640 0.20561
v 2.20892 2.90034 0.18363
v 2.61296 3.51402 0.23673
v 1.78521 3.91106 0.26846
v 1.92774 4.12722 0.27229
v 2.08855 3.99092 0.47308
v 2.11905 4.32909 0.26366
v 2.26224 4.17044 0.45936
v 2.44900 3.97323 0.53098
v 2.29552 3.81415 0.54039
v 2.62251 3.78168 0.43937
v 2.48261 3.63616 0.44393
v 2.75263 3.65818 0.23803
vn 0.22649 -0.14076 -0.96379
vn 0.14736 -0.11741 -0.98209
vn 0.60042 -0.30491 -0.73927
vn 0.70414 0.03617 -0.70914
vn 0.48370 0.50013 -0.71826
vn 0.37351 0.33491 -0.86506
vn 0.25191 0.64212 -0.72403
vn 0.47991 0.40055 -0.78054
vn 0.25544 0.18616 -0.94873
vn 0.01579 0.57088 -0.82088
vn -0.10968 0.87097 -0.47893
vn 0.30332 0.85140 -0.42793
vn 0.69932 0.58772 -0.40686
vn 0.67218 0.04099 -0.73925
vn 0.54437 -0.21202 -0.81161
vn 0.90517 0.02706 -0.42419
vn 0.78304 -0.42563 -0.45352
vn 0.08937 -0.14060 -0.98602
vn -0.30889 0.29052 -0.90564
vn -0.30581 0.23449 -0.92276
vn 0.33177 -0.55291 -0.76434
vn 0.38746 -0.49879 -0.77529
vn 0.04612 -0.10501 -0.99340
vn -0.38189 0.30576 -0.87217
vn -0.67247 0.51998 -0.52669
vn -0.64755 0.52212 -0.55504
vn 0.02006 -0.08267 -0.99638
vn -0.42292 0.32247 -0.84685
vn -0.68513 0.52605 -0.50385
vn -0.79580 0.60556 -0.00001
vn -0.79667 0.60442 -0.00002
vn -0.44611 0.33780 -0.82878
vn -0.69172 0.53629 -0.48365
vn -0.79299 0.60924 0.00000
vn -0.70455 0.53680 -0.46417
vn -0.79791 0.60278 0.00002
vn 0.95267 -0.30402 0.00017
vn 0.90839 -0.26804 -0.32092
vn 0.72134 -0.59347 -0.35701
vn 0.75787 -0.65240 0.00050
vn 0.99964 -0.02672 -0.00049
vn 0.88747 0.33303 -0.31857
vn 0.68545 0.24582 -0.68537
vn 0.70361 -0.18646 -0.68568
vn 0.72191 0.69198 -0.00047
vn 0.49506 0.86886 -0.00078
vn 0.48887 0.80177 -0.34377
vn 0.38576 0.58709 -0.71169
vn 0.27071 0.40949 -0.87123
vn 0.48901 0.17166 -0.85522
vn 0.14833 0.91285 -0.38040
vn 0.10934 0.66022 -0.74307
vn 0.05664 0.44681 -0.89284
vn -0.23586 -0.22037 -0.94647
vn -0.38828 -0.46104 -0.79792
vn -0.50521 -0.33831 -0.79392
vn -0.27106 -0.14105 -0.95217
vn 0.02497 0.63831 -0.76937
vn -0.00253 0.40980 -0.91217
vn -0.18209 -0.27582 -0.94380
vn -0.27768 -0.52860 -0.80217
vn -0.39506 -0.82220 -0.40977
vn -0.56184 -0.73192 -0.38552
vn -0.12904 -0.30717 -0.94287
vn -0.18715 -0.56018 -0.80695
vn -0.26345 -0.86313 -0.43080
vn -0.29602 -0.95518 0.00001
vn -0.43658 -0.89966 -0.00014
vn -0.11984 -0.57443 -0.80973
vn -0.17083 -0.87846 -0.44622
vn -0.19548 -0.98071 0.00004
vn -0.11788 -0.88003 -0.46005
vn -0.13737 -0.99052 -0.00007
vn -0.01501 0.99989 -0.00001
vn -0.01692 0.88402 -0.46713
vn -0.01523 0.87852 -0.47745
vn -0.01299 0.99992 0.00000
vn -0.01459 0.99989 -0.00001
vn -0.01424 0.89003 -0.45567
vn 0.00074 0.60358 -0.79730
vn -0.00894 0.59261 -0.80544
vn -0.02404 0.99971 0.00003
vn -0.02494 0.89629 -0.44276
vn -0.00477 0.61706 -0.78690
vn 0.01702 0.37970 -0.92495
vn 0.01548 0.36568 -0.93061
vn -0.04097 0.90571 -0.42191
vn -0.02176 0.63245 -0.77429
vn 0.00502 0.39278 -0.91962
vn 0.16753 -0.30895 -0.93621
vn 0.24793 -0.55261 -0.79571
vn 0.18283 -0.56919 -0.80162
vn 0.12812 -0.32635 -0.93653
vn -0.02867 0.66127 -0.74960
vn 0.00212 0.42416 -0.90559
vn 0.22396 -0.28902 -0.93076
vn 0.33886 -0.52552 -0.78039
vn 0.47386 -0.79057 -0.38789
vn 0.34975 -0.83850 -0.41784
vn 0.31190 -0.27595 -0.90916
vn 0.45776 -0.49524 -0.73837
vn 0.61035 -0.71618 -0.33845
vn 0.65379 -0.75667 -0.00004
vn 0.51828 -0.85521 0.00008
vn 0.58244 -0.43822 -0.68463
vn 0.75024 -0.59992 -0.27792
vn 0.78701 -0.61694 0.00010
vn 0.88230 -0.40055 -0.24720
vn 0.91156 -0.41116 0.00006
vn -0.59728 -0.80203 0.00001
vn -0.52132 -0.69653 -0.49302
vn -0.55207 -0.68401 -0.47682
vn -0.61615 -0.78763 -0.00007
vn -0.59525 -0.80354 0.00002
vn -0.51316 -0.70431 -0.49053
vn -0.32725 -0.46391 -0.82322
vn -0.33930 -0.45661 -0.82243
vn -0.58734 -0.80934 0.00002
vn -0.50857 -0.71837 -0.47465
vn -0.33303 -0.48053 -0.81129
vn -0.07806 0.01588 -0.99682
vn -0.02689 -0.01047 -0.99958
vn -0.50219 -0.74052 -0.44658
vn -0.34543 -0.50589 -0.79041
vn -0.12389 0.03204 -0.99178
vn 0.03113 0.61117 -0.79089
vn 0.11363 0.55624 -0.82321
vn -0.36532 -0.53610 -0.76101
vn -0.26059 -0.32604 -0.90873
vn -0.03640 0.39929 -0.91610
vn 0.00417 0.64800 -0.76163
vn 0.03896 0.92147 -0.38648
vn 0.06104 0.90422 -0.42268
vn -0.05004 0.43193 -0.90052
vn 0.00185 0.67846 -0.73464
vn 0.05036 0.93721 -0.34511
vn 0.04651 0.99892 -0.00015
vn 0.03263 0.99947 -0.00023
vn 0.11958 0.69068 -0.71321
vn 0.19177 0.92710 -0.32203
vn 0.20184 0.97942 -0.00027
vn 0.62391 0.70524 -0.33670
vn 0.33264 0.94305 -0.00049
vn 0.66431 -0.74745 0.00000
vn 0.60331 -0.67151 -0.43022
vn 0.59717 -0.66747 -0.44484
vn 0.66317 -0.74847 0.00003
vn 0.66127 -0.75015 0.00000
vn 0.60324 -0.68103 -0.41508
vn 0.41751 -0.48963 -0.76548
vn 0.42025 -0.47732 -0.77172
vn 0.66576 -0.74617 0.00001
vn 0.60989 -0.68216 -0.40336
vn 0.42139 -0.49699 -0.75857
vn 0.25096 -0.33148 -0.90947
vn 0.25109 -0.32209 -0.91281
vn 0.62416 -0.67812 -0.38804
vn 0.44311 -0.50315 -0.74195
vn 0.27446 -0.34686 -0.89686
vn -0.31052 0.09283 -0.94602
vn -0.55035 0.24189 -0.79912
vn -0.51430 0.31000 -0.79962
vn -0.30189 0.14543 -0.94219
vn 0.54472 -0.43736 -0.71554
vn 0.36009 -0.30488 -0.88169
vn -0.30837 0.02929 -0.95082
vn -0.58886 0.12988 -0.79773
vn -0.89699 0.23747 -0.37284
vn -0.82249 0.40599 -0.39835
vn -0.29675 -0.02369 -0.95466
vn -0.60850 -0.00963 -0.79350
vn -0.93681 0.00381 -0.34982
vn -1.00000 0.00169 0.00009
vn -0.96759 0.25251 0.00018
vn -0.81309 -0.25414 -0.52374
vn -0.89602 -0.28079 -0.34396
vn -0.95405 -0.29966 -0.00009
vn -0.75417 -0.54976 -0.35915
vn -0.80832 -0.58875 -0.00003
vn 0.00222 1.00000 -0.00000
vn 0.00333 0.87960 -0.47570
vn 0.00738 0.88548 -0.46462
vn 0.00414 0.99999 -0.00003
vn -0.00069 1.00000 0.00000
vn -0.00077 0.87617 -0.48200
vn -0.00600 0.58915 -0.80800
vn -0.00209 0.59634 -0.80273
vn -0.00677 0.99998 -0.00000
vn -0.00715 0.87478 -0.48447
vn -0.00830 0.58486 -0.81109
vn -0.00839 0.35918 -0.93323
vn -0.01076 0.36465 -0.93108
vn -0.01110 0.87540 -0.48327
vn -0.00994 0.58288 -0.81250
vn -0.00712 0.35488 -0.93488
vn 0.00219 -0.33972 -0.94052
vn 0.00282 -0.57595 -0.81748
vn -0.02169 -0.57836 -0.81549
vn -0.01541 -0.33911 -0.94062
vn -0.01264 0.58572 -0.81042
vn -0.00679 0.35463 -0.93498
vn 0.02905 -0.33943 -0.94018
vn 0.04440 -0.57490 -0.81702
vn 0.06485 -0.87508 -0.47961
vn 0.00249 -0.87720 -0.48013
vn 0.06327 -0.33926 -0.93856
vn 0.09117 -0.57526 -0.81288
vn 0.12989 -0.87146 -0.47295
vn 0.14968 -0.98873 -0.00002
vn 0.07435 -0.99723 0.00001
vn 0.13359 -0.57488 -0.80726
vn 0.18970 -0.86776 -0.45935
vn 0.21884 -0.97576 0.00003
vn 0.25743 -0.86032 -0.43997
vn 0.29279 -0.95618 0.00001
vn -0.65917 0.75199 0.00067
vn -0.87654 0.40699 -0.25698
vn -0.45730 0.84116 -0.28866
vn -0.45487 0.89056 0.00068
vn -0.99944 0.03343 0.00070
vn -0.91952 -0.27847 -0.27737
vn -0.72941 -0.21116 -0.65067
vn -0.70592 0.31480 -0.63449
vn -0.77042 -0.63754 -0.00041
vn -0.71669 -0.69739 0.00058
vn -0.69769 -0.62460 -0.35085
vn -0.53463 -0.46235 -0.70739
vn -0.34793 -0.33330 -0.87627
vn -0.51697 -0.16860 -0.83924
vn -0.59732 -0.67498 -0.43315
vn -0.42223 -0.47273 -0.77347
vn 0.05994 -0.17066 -0.98351
vn 0.60763 0.06669 -0.79141
vn 0.66709 -0.04196 -0.74379
vn 0.41315 -0.08243 -0.90692
vn -0.37330 -0.45797 -0.80679
vn 0.04444 -0.10395 -0.99359
vn 0.52870 0.20125 -0.82460
vn 0.82716 0.34035 -0.44718
vn 0.90154 0.14520 -0.40760
vn 0.01384 -0.04897 -0.99870
vn 0.40502 0.34859 -0.84525
vn 0.66362 0.57884 -0.47387
vn 0.75587 0.65472 0.00017
vn 0.92571 0.37824 -0.00006
vn 0.25404 0.47194 -0.84424
vn 0.41711 0.77409 -0.47624
vn 0.47553 0.87970 0.00018
vn 0.18371 0.87087 -0.45590
vn 0.20304 0.97917 0.00009
vn -0.20222 -0.97934 0.00065
vn -0.22089 -0.92467 -0.31015
vn -0.44549 -0.84658 -0.29128
vn -0.47394 -0.88056 0.00006
vn 0.22798 -0.97367 0.00024
vn 0.17551 -0.90437 -0.38898
vn 0.15034 -0.63653 -0.75646
vn -0.14769 -0.67020 -0.72734
vn 0.51775 -0.85553 -0.00059
vn 0.46009 -0.77480 -0.43359
vn 0.62336 -0.78193 -0.00018
vn 0.55397 -0.69974 -0.45109
vn 0.65463 -0.75595 -0.00000
vn 0.58436 -0.67293 -0.45352
vn 0.40747 -0.47613 -0.77928
vn 0.41769 -0.47169 -0.77656
vn 0.26581 -0.31346 -0.91164
vn -0.25557 0.17732 -0.95039
vn 0.25948 -0.31496 -0.91295
vn -0.27541 0.17843 -0.94462
vn -0.46712 0.34200 -0.81538
vn -0.28892 0.17155 -0.94186
vn -0.48828 0.33630 -0.80528
vn -0.72723 0.52400 -0.44336
vn -0.81469 0.57989 -0.00001
vn -0.76158 0.49277 -0.42092
vn -0.84259 0.53856 0.00003
vn -0.89843 0.43912 0.00015
vn 0.13997 0.99016 -0.00030
vn 0.03741 0.99930 0.00016
vn 0.04404 0.90803 -0.41658
vn 0.01428 0.99990 -0.00009
vn 0.02144 0.89520 -0.44515
vn 0.01054 0.62105 -0.78370
vn -0.00792 0.39434 -0.91893
vn -0.00046 0.60806 -0.79389
vn -0.01137 0.38460 -0.92301
vn -0.08332 -0.32458 -0.94218
vn -0.00850 0.37204 -0.92818
vn -0.05417 -0.33051 -0.94225
vn -0.07997 -0.57635 -0.81328
vn -0.03477 -0.33400 -0.94193
vn -0.04611 -0.57716 -0.81533
vn -0.06434 -0.88023 -0.47016
vn -0.07581 -0.99712 -0.00002
vn -0.03235 -0.87884 -0.47602
vn -0.03903 -0.99924 0.00002
vn 0.00172 -1.00000 -0.00000
vn -0.03518 0.99938 -0.00005
vn -0.04129 0.99915 0.00010
vn -0.04916 0.91983 -0.38923
vn -0.13417 0.99096 0.00050
vn -0.14271 0.92889 -0.34177
vn -0.10556 0.70369 -0.70262
vn -0.05090 0.48908 -0.87075
vn -0.37291 0.65909 -0.65309
vn -0.26352 0.48889 -0.83159
vn 0.39865 -0.25440 -0.88111
vn -0.52056 0.22484 -0.82369
vn 0.44342 -0.20892 -0.87163
vn 0.67989 -0.31398 -0.66270
vn 0.44380 -0.14985 -0.88351
vn 0.70501 -0.15999 -0.69092
vn 0.94457 -0.16906 -0.28142
vn 0.98312 -0.18299 0.00002
vn 0.93710 -0.00286 -0.34906
vn 0.99996 -0.00853 0.00009
vn 0.98752 0.15746 -0.00013
vn -0.57329 -0.81935 -0.00011
vn -0.56199 -0.82714 0.00008
vn -0.50137 -0.76525 -0.40375
vn -0.54480 -0.83857 0.00027
vn -0.49886 -0.79516 -0.34475
vn -0.38506 -0.57672 -0.72050
vn -0.29000 -0.35974 -0.88684
vn -0.34824 -0.62638 -0.69740
vn -0.24836 -0.38380 -0.88939
vn 0.05361 0.48104 -0.87506
vn -0.04150 -0.40536 -0.91322
vn 0.05816 0.99831 -0.00002
vn -0.64287 -0.76598 0.00073
vn 0.38964 -0.92097 -0.00002
vn 0.09401 -0.33632 -0.93704
vn 0.00172 0.35688 -0.93415
vn -0.01026 0.99995 -0.00000
vn -0.60992 -0.79246 -0.00003
vn -0.28479 -0.07059 -0.95599
vn 0.48881 -0.12664 -0.86315
vn 0.67373 -0.73897 0.00007
vn -0.79012 0.61295 -0.00005
vn -0.73784 0.56864 -0.36364
vn -0.64478 0.50207 -0.57635
vn -0.74740 0.54773 -0.37601
vn -0.66688 0.47418 -0.57482
vn -0.37593 0.20734 -0.90315
vn -0.68907 0.46075 -0.55936
vn -0.41847 0.23601 -0.87703
vn 0.06130 -0.10217 -0.99288
vn -0.41987 0.26041 -0.86942
vn 0.04047 -0.05696 -0.99756
vn 0.46047 -0.37811 -0.80312
vn 0.49096 -0.39801 -0.77495
vn 0.66119 -0.55902 -0.50032
vn 0.67843 -0.55200 -0.48480
vn 0.78720 -0.41952 -0.45201
vn 0.77401 -0.63318 -0.00016
vn 0.86827 -0.49608 0.00129
vn 0.93430 -0.35648 0.00278
vn 0.91729 0.07602 -0.39089
vn 0.89404 0.44798 0.00314
vn 0.71050 -0.60632 -0.35716
vn 0.64269 -0.57618 -0.50494
vn 0.74489 -0.66719 0.00012
vn -0.76310 0.52854 -0.37192
vn -0.82767 0.56122 -0.00014
vn -0.69986 0.46197 -0.54477
vn -0.76905 0.63918 -0.00039
vn -0.64740 0.53923 -0.53861
vn -0.36346 0.31990 -0.87496
vn -0.45737 0.71585 -0.52762
vn -0.21950 0.43977 -0.87088
vn 0.12399 0.05427 -0.99080
vn 0.05610 -0.02017 -0.99822
vn 0.45078 -0.33794 -0.82619
vn 0.43724 -0.37344 -0.81815
vn 0.66622 -0.55858 -0.49411
vn 0.88936 -0.45721 0.00034
vn 0.77240 -0.63514 -0.00034
vn 0.99950 0.03153 0.00080
vn 0.77097 0.63687 -0.00046
vn 0.33364 0.94270 -0.00078
vn -0.13252 0.99118 -0.00096
vn -0.54922 0.83568 -0.00085
vn 0.70203 0.03621 0.71123
vn 0.60262 -0.30491 0.73748
vn 0.14608 -0.12186 0.98174
vn 0.21711 -0.14617 0.96514
vn 0.36143 0.33233 0.87117
vn 0.47584 0.49947 0.72395
vn 0.01989 0.57064 0.82096
vn 0.26090 0.18841 0.94680
vn 0.48001 0.39594 0.78283
vn 0.25295 0.63984 0.72569
vn 0.30379 0.84963 0.43109
vn -0.10789 0.87041 0.48037
vn 0.69771 0.58367 0.41536
vn 0.54691 -0.20575 0.81152
vn 0.66956 0.04177 0.74158
vn 0.90095 0.02771 0.43303
vn 0.78345 -0.42045 0.45763
vn -0.31565 0.22216 0.92250
vn -0.31415 0.28763 0.90475
vn 0.08519 -0.14208 0.98618
vn 0.04835 -0.10442 0.99336
vn 0.38782 -0.49925 0.77481
vn 0.33139 -0.55181 0.76530
vn -0.38059 0.30681 0.87236
vn -0.64855 0.52105 0.55488
vn -0.67282 0.51959 0.52664
vn -0.42330 0.32180 0.84691
vn 0.01964 -0.08350 0.99631
vn -0.68507 0.52612 0.50387
vn -0.69195 0.53600 0.48364
vn -0.44643 0.33738 0.82878
vn -0.70467 0.53664 0.46417
vn 0.72170 -0.59228 0.35825
vn 0.90831 -0.26587 0.32293
vn 0.88699 0.33160 0.32140
vn 0.70118 -0.18534 0.68847
vn 0.68309 0.24666 0.68742
vn 0.48674 0.80313 0.34361
vn 0.38643 0.58651 0.71182
vn 0.48770 0.17688 0.85491
vn 0.27504 0.40779 0.87067
vn 0.10761 0.66104 0.74260
vn 0.14632 0.91450 0.37720
vn 0.05582 0.44249 0.89504
vn -0.26999 -0.13720 0.95304
vn -0.50494 -0.33677 0.79475
vn -0.38820 -0.46097 0.79800
vn -0.23555 -0.21919 0.94682
vn -0.00433 0.41154 0.91138
vn 0.02400 0.63929 0.76859
vn -0.27735 -0.52893 0.80206
vn -0.18127 -0.27698 0.94362
vn -0.56166 -0.73227 0.38511
vn -0.39506 -0.82220 0.40978
vn -0.18752 -0.55971 0.80719
vn -0.12936 -0.30674 0.94296
vn -0.26364 -0.86296 0.43103
vn -0.17077 -0.87850 0.44619
vn -0.11991 -0.57437 0.80977
vn -0.11774 -0.88013 0.45991
vn -0.01528 0.87852 0.47747
vn -0.01700 0.88399 0.46719
vn -0.01416 0.89004 0.45565
vn -0.00907 0.59254 0.80549
vn 0.00061 0.60346 0.79740
vn -0.02513 0.89627 0.44281
vn -0.00491 0.61699 0.78696
vn 0.01513 0.36538 0.93074
vn 0.01693 0.37958 0.92500
vn -0.02258 0.63211 0.77455
vn -0.04148 0.90558 0.42214
vn 0.00450 0.39260 0.91970
vn 0.12788 -0.32659 0.93648
vn 0.18269 -0.56930 0.80157
vn 0.24814 -0.55237 0.79581
vn 0.16764 -0.30886 0.93622
vn -0.00182 0.42164 0.90676
vn -0.03045 0.66058 0.75014
vn 0.33892 -0.52548 0.78039
vn 0.22512 -0.28789 0.93083
vn 0.34993 -0.83836 0.41797
vn 0.47346 -0.79084 0.38783
vn 0.45902 -0.49301 0.73908
vn 0.31384 -0.27271 0.90947
vn 0.61056 -0.71582 0.33886
vn 0.75101 -0.59837 0.27916
vn 0.58354 -0.43481 0.68587
vn 0.88209 -0.40022 0.24848
vn -0.55224 -0.68356 0.47726
vn -0.52108 -0.69677 0.49293
vn -0.51334 -0.70420 0.49049
vn -0.33922 -0.45642 0.82256
vn -0.32713 -0.46387 0.82329
vn -0.50842 -0.71837 0.47482
vn -0.33315 -0.48035 0.81134
vn -0.02649 -0.01034 0.99960
vn -0.07914 0.01597 0.99674
vn -0.34397 -0.50612 0.79090
vn -0.50124 -0.74079 0.44720
vn -0.12396 0.03193 0.99177
vn 0.11211 0.55629 0.82339
vn 0.02953 0.61107 0.79102
vn -0.25763 -0.32686 0.90928
vn -0.36381 -0.53641 0.76152
vn 0.00444 0.64801 0.76162
vn -0.03621 0.39936 0.91608
vn 0.05950 0.90423 0.42289
vn 0.03858 0.92156 0.38631
vn 0.00096 0.67880 0.73433
vn -0.05220 0.43284 0.89996
vn 0.05074 0.93721 0.34504
vn 0.19156 0.92741 0.32127
vn 0.11825 0.68924 0.71481
vn 0.62132 0.70607 0.33974
vn 0.59726 -0.66730 0.44497
vn 0.60339 -0.67137 0.43034
vn 0.60324 -0.68102 0.41510
vn 0.42029 -0.47720 0.77177
vn 0.41753 -0.48954 0.76552
vn 0.60987 -0.68219 0.40334
vn 0.42134 -0.49712 0.75851
vn 0.25113 -0.32196 0.91284
vn 0.25092 -0.33167 0.90941
vn 0.44335 -0.50268 0.74213
vn 0.62389 -0.67875 0.38738
vn 0.27494 -0.34397 0.89783
vn -0.30182 0.14621 0.94209
vn -0.51429 0.31018 0.79956
vn -0.55020 0.24116 0.79945
vn -0.31020 0.09177 0.94623
vn 0.36188 -0.30321 0.88154
vn 0.54525 -0.43588 0.71604
vn -0.58901 0.12932 0.79771
vn -0.30848 0.02820 0.95081
vn -0.82254 0.40557 0.39867
vn -0.89701 0.23726 0.37293
vn -0.60816 -0.00913 0.79376
vn -0.29594 -0.02312 0.95493
vn -0.93678 0.00394 0.34990
vn -0.89593 -0.28079 0.34419
vn -0.81276 -0.25404 0.52430
vn -0.75413 -0.54999 0.35889
vn 0.00707 0.88556 0.46447
vn 0.00324 0.87963 0.47565
vn -0.00077 0.87618 0.48198
vn -0.00228 0.59648 0.80262
vn -0.00604 0.58920 0.80797
vn -0.00715 0.87478 0.48447
vn -0.00831 0.58487 0.81109
vn -0.01080 0.36471 0.93106
vn -0.00841 0.35919 0.93323
vn -0.00993 0.58287 0.81250
vn -0.01110 0.87541 0.48326
vn -0.00711 0.35482 0.93491
vn -0.01543 -0.33907 0.94064
vn -0.02168 -0.57839 0.81547
vn 0.00285 -0.57603 0.81742
vn 0.00220 -0.33983 0.94049
vn -0.00679 0.35462 0.93499
vn -0.01266 0.58570 0.81043
vn 0.04439 -0.57494 0.81699
vn 0.02906 -0.33948 0.94017
vn 0.00251 -0.87721 0.48009
vn 0.06484 -0.87509 0.47960
vn 0.09120 -0.57525 0.81288
vn 0.06323 -0.33930 0.93855
vn 0.12991 -0.87146 0.47295
vn 0.18971 -0.86776 0.45935
vn 0.13349 -0.57496 0.80722
vn 0.25742 -0.86033 0.43997
vn -0.46099 0.83799 0.29200
vn -0.87726 0.40486 0.25787
vn -0.91950 -0.27655 0.27936
vn -0.70765 0.31173 0.63408
vn -0.73312 -0.21102 0.64653
vn -0.69796 -0.62339 0.35246
vn -0.53801 -0.46130 0.70551
vn -0.52543 -0.17656 0.83232
vn -0.35402 -0.33661 0.87256
vn -0.42302 -0.47286 0.77295
vn -0.59788 -0.67486 0.43254
vn 0.05944 -0.16868 0.98388
vn 0.41373 -0.07972 0.90690
vn 0.66802 -0.03746 0.74320
vn 0.60779 0.06914 0.79108
vn 0.04480 -0.10403 0.99356
vn -0.37324 -0.45783 0.80689
vn 0.52851 0.20147 0.82467
vn 0.90150 0.14709 0.40702
vn 0.82701 0.34020 0.44757
vn 0.40490 0.34850 0.84534
vn 0.01410 -0.04776 0.99876
vn 0.66344 0.57828 0.47481
vn 0.41713 0.77411 0.47618
vn 0.25419 0.47225 0.84402
vn 0.18297 0.87091 0.45611
vn -0.44351 -0.84760 0.29135
vn -0.21189 -0.92760 0.30768
vn 0.18455 -0.90372 0.38630
vn -0.13810 -0.67402 0.72569
vn 0.15894 -0.63682 0.75446
vn 0.46068 -0.77390 0.43457
vn 0.55414 -0.69962 0.45106
vn 0.58439 -0.67286 0.45359
vn 0.40749 -0.47614 0.77926
vn 0.41771 -0.47158 0.77661
vn 0.26580 -0.31355 0.91161
vn -0.25571 0.17708 0.95040
vn 0.25944 -0.31509 0.91291
vn -0.46715 0.34199 0.81536
vn -0.27541 0.17846 0.94462
vn -0.48830 0.33622 0.80531
vn -0.28895 0.17150 0.94186
vn -0.72721 0.52399 0.44339
vn -0.76163 0.49261 0.42102
vn 0.04417 0.90808 0.41647
vn 0.02126 0.89520 0.44516
vn 0.01060 0.62100 0.78374
vn -0.00799 0.39439 0.91891
vn -0.00068 0.60820 0.79378
vn -0.01142 0.38468 0.92298
vn -0.08356 -0.32426 0.94227
vn -0.00867 0.37226 0.92809
vn -0.07992 -0.57642 0.81324
vn -0.05419 -0.33047 0.94226
vn -0.04613 -0.57710 0.81537
vn -0.03480 -0.33390 0.94197
vn -0.06433 -0.88024 0.47016
vn -0.03233 -0.87885 0.47600
vn -0.04909 0.92000 0.38884
vn -0.14542 0.92794 0.34318
vn -0.10768 0.70402 0.70197
vn -0.05299 0.49222 0.86886
vn -0.37352 0.65754 0.65431
vn -0.26114 0.49237 0.83029
vn 0.39938 -0.25156 0.88160
vn -0.52258 0.22289 0.82294
vn 0.67906 -0.31345 0.66379
vn 0.44310 -0.20844 0.87190
vn 0.70533 -0.15793 0.69106
vn 0.44432 -0.14851 0.88347
vn 0.94469 -0.16813 0.28159
vn 0.93736 -0.00015 0.34835
vn -0.50108 -0.76531 0.40401
vn -0.49721 -0.79620 0.34474
vn -0.38474 -0.57710 0.72037
vn -0.29038 -0.35931 0.88689
vn -0.34744 -0.62697 0.69728
vn -0.24969 -0.38339 0.88920
vn 0.05186 0.47638 0.87771
vn -0.04250 -0.40457 0.91352
vn 0.09388 -0.33643 0.93702
vn 0.00167 0.35684 0.93416
vn -0.28192 -0.06944 0.95692
vn 0.48518 -0.12737 0.86509
vn -0.64489 0.50185 0.57643
vn -0.73772 0.56881 0.36362
vn -0.66660 0.47431 0.57504
vn -0.74739 0.54771 0.37606
vn -0.37776 0.20053 0.90393
vn -0.41732 0.23731 0.87723
vn -0.68918 0.46054 0.55941
vn 0.06122 -0.09896 0.99321
vn 0.04057 -0.05736 0.99753
vn -0.41988 0.26037 0.86943
vn 0.48976 -0.39600 0.77673
vn 0.46048 -0.37836 0.80300
vn 0.67820 -0.55190 0.48524
vn 0.66117 -0.55907 0.50030
vn 0.78817 -0.41961 0.45025
vn 0.91668 0.07594 0.39233
vn 0.71044 -0.60643 0.35709
vn 0.64269 -0.57594 0.50522
vn -0.69996 0.46204 0.54458
vn -0.76313 0.52849 0.37192
vn -0.64757 0.53919 0.53845
vn -0.36308 0.31961 0.87523
vn -0.21852 0.43967 0.87117
vn -0.45811 0.71573 0.52713
vn 0.05631 -0.02021 0.99821
vn 0.12427 0.05370 0.99079
vn 0.43718 -0.37307 0.81835
vn 0.45029 -0.33841 0.82627
vn 0.66615 -0.55893 0.49380
f 1//1 4//2 5//3 6//4
f 1//1 6//4 7//5 8//6
f 2//7 9//8 10//9 11//10
f 2//7 11//10 12//11 13//12
f 2//7 13//12 14//13 9//8
f 3//14 15//15 10//9 9//8
f 3//14 9//8 14//13 16//16
f 3//14 16//16 17//17 15//15
f 18//18 19//19 20//20 1//1
f 18//18 21//21 22//22 23//23
f 18//18 23//23 24//24 19//19
f 24//24 25//25 26//26 19//19
f 24//24 23//23 27//27 28//28
f 24//24 28//28 29//29 25//25
f 29//29 30//30 31//31 25//25
f 29//29 28//28 32//32 33//33
f 29//29 33//33 310//34 30//30
f 310//34 33//33 34//35 311//36
f 313//37 37//38 38//39 312//40
f 313//37 314//41 39//42 37//38
f 39//42 40//43 41//44 37//38
f 39//42 314//45 315//46 42//47
f 39//42 42//47 43//48 40//43
f 43//48 44//49 45//50 40//43
f 43//48 42//47 46//51 47//52
f 43//48 47//52 48//53 44//49
f 48//54 49//55 50//56 44//57
f 48//53 47//52 51//58 52//59
f 48//54 52//60 53//61 49//55
f 53//61 54//62 55//63 49//55
f 53//61 52//60 56//64 57//65
f 53//61 57//65 58//66 54//62
f 58//66 59//67 60//68 54//62
f 58//66 57//65 61//69 62//70
f 58//66 62//70 316//71 59//67
f 316//71 62//70 63//72 317//73
f 318//74 67//75 68//76 65//77
f 318//74 319//78 69//79 67//75
f 69//79 70//80 71//81 67//75
f 69//79 319//78 72//82 73//83
f 69//79 73//83 74//84 70//80
f 74//84 75//85 76//86 70//80
f 74//84 73//83 77//87 78//88
f 74//84 78//88 79//89 75//85
f 79//90 80//91 81//92 75//93
f 79//89 78//88 82//94 83//95
f 79//90 83//96 84//97 80//91
f 84//97 85//98 86//99 80//91
f 84//97 83//96 87//100 88//101
f 84//97 88//101 89//102 85//98
f 89//102 90//103 91//104 85//98
f 89//102 88//101 92//105 93//106
f 89//102 93//106 320//107 90//103
f 320//107 93//106 94//108 321//109
f 322//110 97//111 98//112 95//113
f 322//110 323//114 99//115 97//111
f 99//115 100//116 101//117 97//111
f 99//115 323//114 102//118 103//119
f 99//115 103//119 104//120 100//116
f 104//120 105//121 106//122 100//116
f 104//120 103//119 107//123 108//124
f 104//120 108//124 109//125 105//121
f 109//125 110//126 111//127 105//121
f 109//125 108//124 112//128 113//129
f 109//125 113//130 114//131 110//126
f 114//131 115//132 116//133 110//126
f 114//131 113//130 117//134 118//135
f 114//131 118//135 119//136 115//132
f 119//136 120//137 121//138 115//132
f 119//136 118//135 122//139 123//140
f 119//136 123//140 124//141 120//137
f 124//141 123//140 125//142 324//143
f 325//144 130//145 131//146 128//147
f 325//144 326//148 132//149 130//145
f 132//149 133//150 134//151 130//145
f 132//149 326//148 327//152 135//153
f 132//149 135//153 136//154 133//150
f 136//154 137//155 138//156 133//150
f 136//154 135//153 139//157 140//158
f 136//154 140//158 141//159 137//155
f 141//160 142//161 143//162 137//163
f 141//159 140//158 144//164 145//165
f 141//160 145//166 146//167 142//161
f 146//167 147//168 148//169 142//161
f 146//167 145//166 149//170 150//171
f 146//167 150//171 151//172 147//168
f 151//172 328//173 152//174 147//168
f 151//172 150//171 153//175 154//176
f 151//172 154//176 329//177 328//173
f 329//177 154//176 155//178 330//179
f 331//180 159//181 160//182 157//183
f 331//180 332//184 161//185 159//181
f 161//185 162//186 163//187 159//181
f 161//185 332//184 164//188 165//189
f 161//185 165//189 166//190 162//186
f 166//190 167//191 168//192 162//186
f 166//190 165//189 169//193 170//194
f 166//190 170//194 171//195 167//191
f 171//196 172//197 173//198 167//199
f 171//195 170//194 174//200 175//201
f 171//196 175//202 176//203 172//197
f 176//203 177//204 178//205 172//197
f 176//203 175//202 179//206 180//207
f 176//203 180//207 181//208 177//204
f 181//208 182//209 183//210 177//204
f 181//208 180//207 184//211 185//212
f 181//208 185//212 186//213 182//209
f 186//213 185//212 187//214 333//215
f 190//216 191//217 192//218 334//219
f 190//220 193//220 194//221 191//217
f 194//221 195//222 196//223 191//217
f 194//221 193//224 197//225 198//226
f 194//221 198//226 199//227 195//222
f 199//227 200//228 201//229 195//222
f 199//227 198//226 202//230 203//231
f 199//227 203//231 204//232 200//228
f 204//232 205//233 206//234 200//235
f 204//232 203//231 207//236 208//237
f 204//232 208//237 209//238 205//233
f 209//238 210//239 211//240 205//233
f 209//238 208//237 212//241 213//242
f 209//238 213//242 214//243 210//239
f 214//243 215//244 216//245 210//239
f 214//243 213//242 217//246 218//247
f 214//243 218//247 219//248 215//244
f 219//248 218//247 220//249 335//250
f 222//251 223//252 224//253 221//254
f 222//251 336//255 225//256 223//252
f 225//256 226//257 227//258 223//252
f 225//256 336//255 337//259 228//260
f 225//256 228//260 21//21 226//257
f 228//260 337//259 229//261 230//262
f 228//260 230//262 22//22 21//21
f 230//262 229//261 129//263 231//264
f 230//262 231//264 232//265 22//22
f 232//265 27//27 23//23 22//22
f 232//265 231//264 131//146 233//266
f 232//265 233//266 234//267 27//27
f 234//268 32//32 28//28 27//27
f 234//267 233//266 134//151 235//269
f 234//268 235//270 236//271 32//32
f 236//271 34//35 33//33 32//32
f 236//271 235//270 138//272 237//273
f 236//271 237//273 238//274 34//35
f 238//274 35//275 311//36 34//35
f 238//274 237//273 143//162 239//276
f 238//274 239//276 240//277 35//275
f 240//277 239//276 148//169 241//278
f 242//279 46//51 42//47 315//46
f 242//279 243//280 244//281 46//51
f 244//281 51//58 47//52 46//51
f 244//281 243//280 158//282 245//283
f 244//281 245//283 246//284 51//58
f 246//284 56//285 52//59 51//58
f 246//284 245//283 160//182 247//286
f 246//284 247//286 248//287 56//285
f 248//288 61//69 57//65 56//64
f 248//287 247//286 163//187 249//289
f 248//288 249//290 250//291 61//69
f 250//291 63//72 62//70 61//69
f 250//291 249//290 168//292 251//293
f 250//291 251//293 252//294 63//72
f 252//294 64//295 317//73 63//72
f 252//294 251//293 173//198 253//296
f 252//294 253//296 254//297 64//295
f 254//297 253//296 178//205 255//298
f 256//299 77//87 73//83 72//82
f 256//299 257//300 258//301 77//87
f 258//301 82//94 78//88 77//87
f 258//301 257//300 189//302 259//303
f 258//301 259//303 260//304 82//94
f 260//304 87//305 83//95 82//94
f 260//304 259//303 192//218 261//306
f 260//304 261//306 262//307 87//305
f 262//308 92//105 88//101 87//100
f 262//307 261//306 196//223 263//309
f 262//308 263//310 264//311 92//105
f 264//311 94//108 93//106 92//105
f 264//311 263//310 201//312 265//313
f 264//311 265//313 266//314 94//108
f 266//314 338//315 321//109 94//108
f 266//314 265//313 206//234 267//316
f 266//314 267//316 268//317 338//315
f 268//317 267//316 211//240 269//318
f 270//319 107//123 103//119 102//118
f 270//319 339//320 271//321 107//123
f 271//321 112//128 108//124 107//123
f 271//321 339//320 340//322 272//323
f 271//321 272//323 273//324 112//128
f 273//324 117//325 113//129 112//128
f 273//324 272//323 224//253 274//326
f 273//324 274//326 275//327 117//325
f 275//328 122//139 118//135 117//134
f 275//327 274//326 227//258 8//329
f 275//328 8//6 7//5 122//139
f 274//326 224//253 223//252 227//258
f 272//323 340//322 221//254 224//253
f 269//318 211//240 210//239 216//245
f 267//316 206//234 205//233 211//240
f 265//313 201//312 200//235 206//234
f 263//309 196//223 195//222 201//229
f 261//306 192//218 191//217 196//223
f 259//303 189//302 334//219 192//218
f 255//298 178//205 177//204 183//210
f 253//296 173//198 172//197 178//205
f 251//293 168//292 167//199 173//198
f 249//289 163//187 162//186 168//192
f 247//286 160//182 159//181 163//187
f 245//283 158//282 157//183 160//182
f 241//278 148//169 147//168 152//174
f 239//276 143//162 142//161 148//169
f 237//273 138//272 137//163 143//162
f 235//269 134//151 133//150 138//156
f 233//266 131//146 130//145 134//151
f 231//264 129//263 128//147 131//146
f 341//330 335//250 220//249 116//133
f 341//330 116//133 115//132 121//138
f 220//249 218//247 217//246 111//127
f 220//249 111//127 110//126 116//133
f 217//246 213//242 212//241 106//122
f 217//246 106//122 105//121 111//127
f 212//241 208//237 207//236 101//117
f 212//241 101//117 100//116 106//122
f 207//236 203//231 202//230 98//112
f 207//236 98//112 97//111 101//117
f 202//230 198//226 197//225 96//331
f 202//230 96//331 95//113 98//112
f 188//332 333//215 187//214 86//99
f 188//332 86//99 85//98 91//104
f 187//214 185//212 184//211 81//92
f 187//214 81//92 80//91 86//99
f 184//211 180//207 179//206 76//333
f 184//211 76//333 75//93 81//92
f 179//334 175//201 174//200 71//81
f 179//334 71//81 70//80 76//86
f 174//200 170//194 169//193 68//76
f 174//200 68//76 67//75 71//81
f 169//193 165//189 164//188 66//335
f 169//193 66//335 65//77 68//76
f 156//336 330//179 155//178 55//63
f 156//336 55//63 54//62 60//68
f 155//178 154//176 153//175 50//56
f 155//178 50//56 49//55 55//63
f 153//337 150//171 149//170 45//337
f 153//337 45//337 44//57 50//56
f 149//338 145//165 144//164 41//44
f 149//338 41//44 40//43 45//50
f 144//164 140//158 139//157 38//39
f 144//164 38//39 37//38 41//44
f 139//157 135//153 327//152 36//339
f 139//157 36//339 312//40 38//39
f 276//340 342//341 277//342 26//26
f 276//340 26//26 25//25 31//31
f 277//342 342//341 278//343 279//344
f 277//342 279//344 280//345 20//20
f 277//342 20//20 19//19 26//26
f 280//345 279//344 281//346 282//347
f 280//345 282//347 283//348 4//2
f 280//345 4//2 1//1 20//20
f 283//348 282//347 284//349 285//350
f 283//348 285//350 286//351 287//352
f 283//348 287//352 5//3 4//2
f 287//352 286//351 288//353 289//354
f 287//352 289//354 290//355 5//3
f 290//355 289//354 127//356 126//357
f 290//355 126//357 343//358 291//359
f 290//355 291//359 6//4 5//3
f 291//359 343//360 324//360 125//142
f 291//359 125//142 7//5 6//4
f 289//354 288//353 292//361 127//356
f 292//361 288//353 293//362 344//363
f 295//364 294//365 296//366 281//346
f 295//364 281//346 279//344 278//343
f 296//366 294//365 345//367 297//368
f 296//366 297//368 298//369 284//349
f 296//366 284//349 282//347 281//346
f 298//369 297//368 299//370 300//371
f 298//369 300//371 301//372 302//373
f 298//369 302//373 285//350 284//349
f 302//373 301//372 303//374 304//375
f 302//373 304//375 286//351 285//350
f 304//375 303//374 305//376 293//362
f 304//375 293//362 288//353 286//351
f 305//376 303//374 15//15 17//17
f 305//376 17//17 306//377 346//378
f 305//376 346//378 344//363 293//362
f 306//377 17//17 16//16 307//379
f 307//379 16//16 14//13 308//380
f 308//380 14//13 13//12 309//381
f 309//381 13//12 12//11 347//382
f 347//382 12//11 299//370 348//383
f 348//383 299//370 297//368 345//367
f 303//374 301//372 10//9 15//15
f 301//372 300//371 11//10 10//9
f 300//371 299//370 12//11 11//10
f 125//142 123//140 122//139 7//5
f 226//257 21//21 18//18 1//1
f 226//257 1//1 8//329 227//258
f 354//384 353//385 352//386 349//387
f 356//388 355//389 354//384 349//387
f 359//390 358//391 357//392 350//393
f 361//394 360//395 359//390 350//393
f 357//392 362//396 361//394 350//393
f 357//392 358//391 363//397 351//398
f 364//399 362//396 357//392 351//398
f 363//397 365//400 364//399 351//398
f 349//387 368//401 367//402 366//403
f 371//404 370//405 369//406 366//403
f 367//402 372//407 371//404 366//403
f 367//402 374//408 373//409 372//407
f 376//410 375//411 371//404 372//407
f 373//409 377//412 376//410 372//407
f 373//409 31//31 30//30 377//412
f 379//413 378//414 376//410 377//412
f 30//30 310//34 379//413 377//412
f 311//36 380//415 379//413 310//34
f 312//40 382//416 381//417 313//37
f 381//417 383//418 314//41 313//37
f 381//417 385//419 384//420 383//418
f 386//421 315//46 314//45 383//418
f 384//420 387//422 386//421 383//418
f 384//420 389//423 388//424 387//422
f 391//425 390//426 386//421 387//422
f 388//424 392//427 391//425 387//422
f 388//428 394//429 393//430 392//431
f 396//432 395//433 391//425 392//427
f 393//430 397//434 396//435 392//431
f 393//430 399//436 398//437 397//434
f 401//438 400//439 396//435 397//434
f 398//437 402//440 401//438 397//434
f 398//437 60//68 59//67 402//440
f 404//441 403//442 401//438 402//440
f 59//67 316//71 404//441 402//440
f 317//73 405//443 404//441 316//71
f 65//77 407//444 406//445 318//74
f 406//445 408//446 319//78 318//74
f 406//445 410//447 409//448 408//446
f 411//449 72//82 319//78 408//446
f 409//448 412//450 411//449 408//446
f 409//448 414//451 413//452 412//450
f 416//453 415//454 411//449 412//450
f 413//452 417//455 416//453 412//450
f 413//456 419//457 418//458 417//459
f 421//460 420//461 416//453 417//455
f 418//458 422//462 421//463 417//459
f 418//458 424//464 423//465 422//462
f 426//466 425//467 421//463 422//462
f 423//465 427//468 426//466 422//462
f 423//465 91//104 90//103 427//468
f 429//469 428//470 426//466 427//468
f 90//103 320//107 429//469 427//468
f 321//109 430//471 429//469 320//107
f 95//113 432//472 431//473 322//110
f 431//473 433//474 323//114 322//110
f 431//473 435//475 434//476 433//474
f 436//477 102//118 323//114 433//474
f 434//476 437//478 436//477 433//474
f 434//476 439//479 438//480 437//478
f 441//481 440//482 436//477 437//478
f 438//480 442//483 441//481 437//478
f 438//480 444//484 443//485 442//483
f 446//486 445//487 441//481 442//483
f 443//485 447//488 446//489 442//483
f 443//485 449//490 448//491 447//488
f 451//492 450//493 446//489 447//488
f 448//491 452//494 451//492 447//488
f 448//491 121//138 120//137 452//494
f 454//495 453//496 451//492 452//494
f 120//137 124//141 454//495 452//494
f 324//143 455//497 454//495 124//141
f 128//147 457//498 456//499 325//144
f 456//499 458//500 326//148 325//144
f 456//499 460//501 459//502 458//500
f 461//503 327//152 326//148 458//500
f 459//502 462//504 461//503 458//500
f 459//502 464//505 463//506 462//504
f 466//507 465//508 461//503 462//504
f 463//506 467//509 466//507 462//504
f 463//510 469//511 468//512 467//513
f 471//514 470//515 466//507 467//509
f 468//512 472//516 471//517 467//513
f 468//512 474//518 473//519 472//516
f 476//520 475//521 471//517 472//516
f 473//519 477//522 476//520 472//516
f 473//519 152//174 328//173 477//522
f 479//523 478//524 476//520 477//522
f 328//173 329//177 479//523 477//522
f 330//179 480//525 479//523 329//177
f 157//183 482//526 481//527 331//180
f 481//527 483//528 332//184 331//180
f 481//527 485//529 484//530 483//528
f 486//531 164//188 332//184 483//528
f 484//530 487//532 486//531 483//528
f 484//530 489//533 488//534 487//532
f 491//535 490//536 486//531 487//532
f 488//534 492//537 491//535 487//532
f 488//538 494//539 493//540 492//541
f 496//542 495//543 491//535 492//537
f 493//540 497//544 496//545 492//541
f 493//540 499//546 498//547 497//544
f 501//548 500//549 496//545 497//544
f 498//547 502//550 501//548 497//544
f 498//547 183//210 182//209 502//550
f 504//551 503//552 501//548 502//550
f 182//209 186//213 504//551 502//550
f 333//215 505//553 504//551 186//213
f 334//219 507//554 506//555 190//216
f 506//555 508//556 193//220 190//220
f 506//555 510//557 509//558 508//556
f 511//559 197//225 193//224 508//556
f 509//558 512//560 511//559 508//556
f 509//558 514//561 513//562 512//560
f 516//563 515//564 511//559 512//560
f 513//562 517//565 516//563 512//560
f 513//566 519//567 518//568 517//565
f 521//569 520//570 516//563 517//565
f 518//568 522//571 521//569 517//565
f 518//568 524//572 523//573 522//571
f 526//574 525//575 521//569 522//571
f 523//573 527//576 526//574 522//571
f 523//573 216//245 215//244 527//576
f 529//577 528//578 526//574 527//576
f 215//244 219//248 529//577 527//576
f 335//250 530//579 529//577 219//248
f 221//254 532//580 531//581 222//251
f 531//581 533//582 336//255 222//251
f 531//581 535//583 534//584 533//582
f 536//585 337//259 336//255 533//582
f 534//584 369//406 536//585 533//582
f 537//586 229//261 337//259 536//585
f 369//406 370//405 537//586 536//585
f 538//587 129//263 229//261 537//586
f 370//405 539//588 538//587 537//586
f 370//405 371//404 375//411 539//588
f 540//589 457//498 538//587 539//588
f 375//411 541//590 540//589 539//588
f 375//411 376//410 378//414 541//591
f 542//592 460//501 540//589 541//590
f 378//414 543//593 542//594 541//591
f 378//414 379//413 380//415 543//593
f 544//595 464//596 542//594 543//593
f 380//415 545//597 544//595 543//593
f 380//415 311//36 35//275 545//597
f 546//598 469//511 544//595 545//597
f 35//275 240//277 546//598 545//597
f 241//278 474//518 546//598 240//277
f 315//46 386//421 390//426 242//279
f 390//426 547//599 243//280 242//279
f 390//426 391//425 395//433 547//599
f 548//600 158//282 243//280 547//599
f 395//433 549//601 548//600 547//599
f 395//433 396//432 400//602 549//601
f 550//603 482//526 548//600 549//601
f 400//602 551//604 550//603 549//601
f 400//439 401//438 403//442 551//605
f 552//606 485//529 550//603 551//604
f 403//442 553//607 552//608 551//605
f 403//442 404//441 405//443 553//607
f 554//609 489//610 552//608 553//607
f 405//443 555//611 554//609 553//607
f 405//443 317//73 64//295 555//611
f 556//612 494//539 554//609 555//611
f 64//295 254//297 556//612 555//611
f 255//298 499//546 556//612 254//297
f 72//82 411//449 415//454 256//299
f 415//454 557//613 257//300 256//299
f 415//454 416//453 420//461 557//613
f 558//614 189//302 257//300 557//613
f 420//461 559//615 558//614 557//613
f 420//461 421//460 425//616 559//615
f 560//617 507//554 558//614 559//615
f 425//616 561//618 560//617 559//615
f 425//467 426//466 428//470 561//619
f 562//620 510//557 560//617 561//618
f 428//470 563//621 562//622 561//619
f 428//470 429//469 430//471 563//621
f 564//623 514//624 562//622 563//621
f 430//471 565//625 564//623 563//621
f 430//471 321//109 338//315 565//625
f 566//626 519//567 564//623 565//625
f 338//315 268//317 566//626 565//625
f 269//318 524//572 566//626 268//317
f 102//118 436//477 440//482 270//319
f 440//482 567//627 339//320 270//319
f 440//482 441//481 445//487 567//627
f 568//628 340//322 339//320 567//627
f 445//487 569//629 568//628 567//627
f 445//487 446//486 450//630 569//629
f 570//631 532//580 568//628 569//629
f 450//630 571//632 570//631 569//629
f 450//493 451//492 453//496 571//633
f 356//634 535//583 570//631 571//632
f 453//496 355//389 356//388 571//633
f 535//583 531//581 532//580 570//631
f 532//580 221//254 340//322 568//628
f 216//245 523//573 524//572 269//318
f 524//572 518//568 519//567 566//626
f 519//567 513//566 514//624 564//623
f 514//561 509//558 510//557 562//620
f 510//557 506//555 507//554 560//617
f 507//554 334//219 189//302 558//614
f 183//210 498//547 499//546 255//298
f 499//546 493//540 494//539 556//612
f 494//539 488//538 489//610 554//609
f 489//533 484//530 485//529 552//606
f 485//529 481//527 482//526 550//603
f 482//526 157//183 158//282 548//600
f 152//174 473//519 474//518 241//278
f 474//518 468//512 469//511 546//598
f 469//511 463//510 464//596 544//595
f 464//505 459//502 460//501 542//592
f 460//501 456//499 457//498 540//589
f 457//498 128//147 129//263 538//587
f 449//490 530//579 335//250 341//330
f 121//138 448//491 449//490 341//330
f 444//484 528//578 529//577 530//579
f 449//490 443//485 444//484 530//579
f 439//479 525//575 526//574 528//578
f 444//484 438//480 439//479 528//578
f 435//475 520//570 521//569 525//575
f 439//479 434//476 435//475 525//575
f 432//472 515//564 516//563 520//570
f 435//475 431//473 432//472 520//570
f 96//331 197//225 511//559 515//564
f 432//472 95//113 96//331 515//564
f 424//464 505//553 333//215 188//332
f 91//104 423//465 424//464 188//332
f 419//457 503//552 504//551 505//553
f 424//464 418//458 419//457 505//553
f 414//635 500//549 501//548 503//552
f 419//457 413//456 414//635 503//552
f 410//447 495//543 496//542 500//636
f 414//451 409//448 410//447 500//636
f 407//444 490//536 491//535 495//543
f 410//447 406//445 407//444 495//543
f 66//335 164//188 486//531 490//536
f 407//444 65//77 66//335 490//536
f 399//436 480//525 330//179 156//336
f 60//68 398//437 399//436 156//336
f 394//429 478//524 479//523 480//525
f 399//436 393//430 394//429 480//525
f 389//637 475//521 476//520 478//637
f 394//429 388//428 389//637 478//637
f 385//419 470//515 471//514 475//638
f 389//423 384//420 385//419 475//638
f 382//416 465//508 466//507 470//515
f 385//419 381//417 382//416 470//515
f 36//339 327//152 461//503 465//508
f 382//416 312//40 36//339 465//508
f 374//408 572//639 342//640 276//340
f 31//31 373//409 374//408 276//340
f 573//641 278//642 342//640 572//639
f 368//401 574//643 573//641 572//639
f 374//408 367//402 368//401 572//639
f 576//644 575//645 573//641 574//643
f 352//386 577//646 576//644 574//643
f 368//401 349//387 352//386 574//643
f 579//647 578//648 576//644 577//646
f 581//649 580//650 579//647 577//646
f 352//386 353//385 581//649 577//646
f 583//651 582//652 580//650 581//649
f 353//385 584//653 583//651 581//649
f 126//357 127//356 583//651 584//653
f 585//654 343//358 126//357 584//653
f 353//385 354//384 585//654 584//653
f 455//497 324//360 343//360 585//654
f 354//384 355//389 455//497 585//654
f 127//356 292//655 582//652 583//651
f 344//363 586//656 582//652 292//655
f 575//645 587//657 294//365 295//658
f 278//642 573//641 575//645 295//658
f 588//659 345//367 294//365 587//657
f 578//648 589//660 588//659 587//657
f 575//645 576//644 578//648 587//657
f 591//661 590//662 588//659 589//660
f 593//663 592//664 591//661 589//660
f 578//648 579//647 593//663 589//660
f 595//665 594//666 592//664 593//663
f 579//647 580//650 595//665 593//663
f 586//656 596//667 594//666 595//665
f 580//650 582//652 586//656 595//665
f 365//400 363//397 594//666 596//667
f 346//378 306//377 365//400 596//667
f 586//656 344//363 346//378 596//667
f 307//379 364//399 365//400 306//377
f 308//380 362//396 364//399 307//379
f 309//381 361//394 362//396 308//380
f 347//382 360//395 361//394 309//381
f 348//383 590//662 360//395 347//382
f 345//367 588//659 590//662 348//383
f 363//397 358//391 592//664 594//666
f 358//391 359//390 591//661 592//664
f 359//390 360//395 590//662 591//661
f 355//389 453//496 454//495 455//497
f 349//387 366//403 369//406 534//584
f 535//583 356//634 349//387 534//584
