# pilowlava3D glyph '7' variant 1 — Vincent Wagner / Velvetyne, Free Art License
v 0.25829 4.00900 -0.40956
v 1.39327 0.21104 -0.40248
v 1.98225 0.33300 -0.38114
v 3.31052 3.88566 -0.53389
v 3.83809 4.03428 -0.36591
v 0.41166 3.36748 -0.43094
v 0.39828 4.09467 -0.43515
v 0.45346 3.85852 -0.54083
v 0.24881 3.80926 -0.46617
v 0.06421 3.77105 -0.27158
v 0.13551 4.05496 -0.25280
v 0.32234 4.24966 -0.24310
v 1.34870 0.09964 -0.24950
v 1.14421 0.26985 -0.24139
v 1.29488 0.34451 -0.43287
v 1.51892 0.39903 -0.53625
v 1.57553 0.20680 -0.44485
v 1.60497 0.04602 -0.25304
v 1.99126 0.49631 -0.41824
v 2.14673 0.50528 -0.23408
v 2.06857 0.26774 -0.23587
v 1.82365 0.25109 -0.43540
v 1.77199 0.45030 -0.52976
v 1.86906 0.09922 -0.25077
v 3.58639 3.73935 -0.52008
v 3.44633 3.50006 -0.52845
v 3.23352 3.62798 -0.54009
v 3.08008 4.10527 -0.44732
v 3.15512 4.20507 -0.43477
v 3.43480 4.06641 -0.49018
v 3.65692 3.94740 -0.48654
v 3.84453 3.85343 -0.40533
v 3.69906 4.12815 -0.38556
v 3.92587 4.07529 -0.22650
v 3.98727 3.80248 -0.22967
v 3.74524 4.24392 -0.21253
v 0.30917 3.54349 -0.47341
v 0.51853 3.60122 -0.54873
v 0.58719 3.36685 -0.44729
v 0.59224 3.18336 -0.25203
v 0.32455 3.25026 -0.26924
v 0.12606 3.47384 -0.27811
v 0.06965 3.44714 0.00000
v 0.00000 3.76108 0.00000
v 0.28374 3.20337 0.00000
v 0.85458 3.22413 -0.24216
v 1.32922 3.38813 0.00000
v 1.08541 3.32508 -0.23382
v 1.29060 3.44777 -0.22661
v 1.01187 3.47492 -0.44072
v 1.21542 3.57634 -0.42700
v 1.41247 3.68577 -0.40379
v 1.47838 3.57386 -0.21621
v 1.51683 3.52311 0.00000
v 1.66380 3.70268 -0.20318
v 1.69451 3.65794 0.00000
v 0.79121 4.42528 0.00000
v 0.54232 4.39453 0.00000
v 0.28299 4.29312 0.00000
v 0.56496 4.32978 -0.23329
v 0.07678 4.06839 0.00000
v 0.80124 4.34988 -0.22569
v 0.81782 4.18596 -0.42529
v 0.60475 4.15979 -0.43680
v 0.85072 3.95415 -0.55376
v 0.65223 3.91236 -0.55711
v 0.92143 3.69862 -0.56293
v 0.72063 3.64656 -0.56267
v 0.80082 3.40369 -0.44604
v 1.06173 3.99785 -0.53842
v 1.12833 3.77073 -0.54627
v 1.28129 4.05162 -0.51668
v 1.34314 3.85523 -0.51860
v 1.50555 4.10577 -0.48450
v 1.55641 3.93731 -0.48789
v 1.61268 3.79421 -0.37854
v 1.77066 4.02531 -0.45073
v 1.81313 3.90512 -0.35848
v 1.85112 3.82352 -0.19226
v 2.01148 4.01850 -0.33564
v 2.03430 3.94435 -0.17814
v 1.24023 4.35637 -0.20998
v 1.02147 4.35449 -0.21837
v 1.24633 4.22835 -0.39741
v 1.02989 4.20399 -0.41376
v 1.45560 4.36562 -0.20150
v 1.46944 4.25384 -0.37661
v 1.67292 4.37754 -0.19080
v 1.69107 4.28335 -0.35299
v 1.72821 4.15833 -0.44861
v 1.91711 4.31752 -0.33317
v 1.94764 4.21635 -0.41415
v 1.98017 4.11453 -0.41347
v 2.16805 4.27484 -0.37592
v 2.18919 4.19637 -0.37433
v 2.20394 4.12268 -0.30325
v 2.39899 4.25184 -0.33577
v 2.40036 4.19819 -0.26882
v 2.39986 4.15411 -0.15026
v 2.21437 4.06195 -0.16362
v 2.22027 4.03873 0.00000
v 1.89675 4.39365 -0.17984
v 2.12699 4.43598 0.00000
v 2.13099 4.40794 -0.16625
v 2.14776 4.34986 -0.30895
v 2.37958 4.41674 -0.15629
v 2.38502 4.37113 -0.28434
v 2.39192 4.31711 -0.33973
v 2.63462 4.37398 -0.27786
v 2.62426 4.32273 -0.32892
v 2.61384 4.25791 -0.32389
v 2.87822 4.29198 -0.36179
v 2.83877 4.22065 -0.35979
v 2.80043 4.15824 -0.29083
v 2.60464 4.21000 -0.26278
v 2.76805 4.11887 -0.16397
v 2.59629 4.17810 -0.15305
v 2.37801 4.43843 0.00000
v 2.64620 4.41806 -0.15552
v 2.94135 4.43645 0.00000
v 2.93283 4.40674 -0.16784
v 2.90931 4.35416 -0.29897
v 3.22940 4.37761 -0.18653
v 3.20174 4.30035 -0.34186
v 3.50495 4.33068 -0.19855
v 3.47988 4.21905 -0.37648
v 3.23417 4.41925 0.00000
v 3.51249 4.37163 0.00000
v 3.76634 4.27673 0.00000
v 3.96684 4.08786 0.00000
v 4.03610 3.79280 0.00000
v 3.94786 3.47843 0.00000
v 3.89746 3.50980 -0.22878
v 3.70192 3.25771 -0.22306
v 3.60000 3.36080 -0.41056
v 3.76685 3.60096 -0.41193
v 3.45523 3.07309 -0.21381
v 3.37561 3.17403 -0.40020
v 3.24999 3.30176 -0.52219
v 3.14205 3.02227 -0.38313
v 3.03330 3.13394 -0.50090
v 2.89595 3.26004 -0.50513
v 3.07753 3.42865 -0.53201
v 2.76472 3.36397 -0.38859
v 2.89651 3.52154 -0.40246
v 2.99693 3.68721 -0.40208
v 3.02948 3.85949 -0.39031
v 2.77171 3.56819 -0.20963
v 2.84789 3.71070 -0.20720
v 2.88392 3.85270 -0.19445
v 2.86519 3.99408 -0.17766
v 2.95248 4.03075 -0.34142
v 2.84215 3.98444 0.00000
v 2.61683 3.45268 0.00000
v 2.66484 3.42466 -0.20513
v 2.61401 3.21282 -0.37044
v 2.53634 3.27606 -0.19725
v 2.49574 3.30594 0.00000
v 2.39604 3.11974 -0.18947
v 3.21144 2.93178 -0.20314
v 3.00275 2.76537 0.00000
v 1.60676 2.22918 0.00000
v 1.94571 2.60819 -0.16530
v 1.78381 2.42329 -0.15699
v 1.62359 2.22078 -0.15664
v 1.81028 2.39767 -0.27644
v 1.65900 2.20399 -0.27769
v 1.52552 1.99277 -0.30788
v 1.46924 2.00637 -0.16878
v 1.44446 2.01446 0.00000
v 1.33592 1.78363 -0.19026
v 1.29816 1.79951 0.00000
v 2.57102 2.55543 0.00000
v 2.78418 2.65830 0.00000
v 2.55462 2.59147 -0.17820
v 2.76271 2.69721 -0.18325
v 2.97754 2.81072 -0.19203
v 2.70763 2.76860 -0.34553
v 2.91850 2.88942 -0.36023
v 2.62871 2.86059 -0.44622
v 2.82518 2.99133 -0.47312
v 2.53934 2.96517 -0.44979
v 2.71577 3.11115 -0.47619
v 2.45820 3.05709 -0.35510
v 2.36618 2.81662 -0.42521
v 2.30052 2.89515 -0.34187
v 2.25007 2.95457 -0.18268
v 2.13978 2.73200 -0.32547
v 2.10075 2.78507 -0.17498
v 1.97653 2.56808 -0.29906
v 2.19099 2.66675 -0.39674
v 2.01498 2.51982 -0.36278
v 1.84812 2.36184 -0.33040
v 2.06808 2.45926 -0.36024
v 1.89769 2.31684 -0.32852
v 1.76080 2.14608 -0.33190
v 1.70492 2.17887 -0.33230
v 1.67154 1.94794 -0.37093
v 1.59352 1.97313 -0.37283
v 1.63066 1.73050 -0.42705
v 1.51938 1.74841 -0.42771
v 1.41589 1.76610 -0.34363
v 1.46127 1.51604 -0.48055
v 1.31943 1.53397 -0.38036
v 1.21593 1.56223 -0.20552
v 1.23593 1.30044 -0.40420
v 1.11471 1.33388 -0.21494
v 1.17230 1.58710 0.00000
v 1.85201 2.08938 0.00000
v 1.97326 2.25779 -0.14623
v 2.15438 2.37731 -0.15935
v 2.35062 2.48719 -0.17331
v 2.11355 2.41280 -0.29718
v 2.30392 2.53601 -0.31949
v 2.50478 2.65304 -0.33519
v 2.25006 2.59592 -0.39463
v 2.43801 2.73051 -0.42247
v 1.93875 2.28260 -0.27232
v 1.84264 2.09593 -0.14419
v 1.80883 2.11712 -0.26990
v 1.80396 1.89861 -0.15891
v 1.74733 1.92193 -0.29904
v 1.82477 1.70021 -0.18367
v 1.74014 1.71147 -0.33994
v 1.86692 1.50725 -0.20214
v 1.75986 1.49683 -0.37662
v 1.61692 1.50167 -0.47967
v 1.78802 1.28615 -0.39773
v 1.61107 1.26867 -0.52113
v 1.41096 1.27338 -0.52115
v 1.62160 1.04890 -0.54115
v 1.38087 1.03733 -0.54297
v 1.16708 1.05710 -0.42264
v 1.39143 0.81422 -0.55509
v 1.14914 0.80204 -0.43697
v 0.98516 0.79906 -0.23684
v 1.02372 1.07842 -0.22692
v 1.86473 1.70304 0.00000
v 1.82470 1.89215 0.00000
v 1.91370 1.31815 -0.20960
v 1.96823 1.13028 -0.21449
v 1.82659 1.09020 -0.41274
v 2.03181 0.94217 -0.21952
v 1.88193 0.90103 -0.42162
v 1.65817 0.84701 -0.55166
v 1.94877 0.71030 -0.43014
v 1.71130 0.65467 -0.55224
v 1.44447 0.60261 -0.55687
v 1.19786 0.55780 -0.44075
v 1.02941 0.51953 -0.23756
v 2.10954 0.74059 -0.22825
v 2.10117 0.23239 0.00000
v 1.88334 0.05426 0.00000
v 1.60891 0.00000 0.00000
v 1.33369 0.05489 0.00000
v 0.57952 3.11549 0.00000
v 0.86822 3.14938 0.00000
v 1.11942 3.25638 0.00000
v 2.04747 3.91491 0.00000
v 1.87262 3.78657 0.00000
v 1.24087 4.42302 0.00000
v 1.02211 4.42703 0.00000
v 2.39812 4.13904 0.00000
v 1.67150 4.42805 0.00000
v 1.45570 4.42516 0.00000
v 1.89355 4.43259 0.00000
v 2.75703 4.10984 0.00000
v 2.59195 4.16941 0.00000
v 2.65083 4.43978 0.00000
v 3.74448 3.21380 0.00000
v 2.79682 3.72045 0.00000
v 2.84380 3.85082 0.00000
v 2.71965 3.58939 0.00000
v 2.36165 3.14719 0.00000
v 3.23992 2.88222 0.00000
v 3.49121 3.02236 0.00000
v 1.77157 2.43608 0.00000
v 1.93008 2.62814 0.00000
v 2.07903 2.80749 0.00000
v 2.22241 2.98029 0.00000
v 1.05838 1.35396 0.00000
v 1.98415 2.25052 0.00000
v 2.17143 2.36116 0.00000
v 2.37053 2.45853 0.00000
v 0.92390 0.79808 0.00000
v 0.96388 1.09027 0.00000
v 1.92221 1.52263 0.00000
v 1.97899 1.34056 0.00000
v 2.03997 1.15360 0.00000
v 1.10181 0.23635 0.00000
v 0.96973 0.50139 0.00000
v 2.17626 0.74721 0.00000
v 2.10802 0.96109 0.00000
v 2.19901 0.49308 0.00000
v 0.25829 4.00900 0.40956
v 1.39327 0.21104 0.40248
v 1.98225 0.33300 0.38114
v 3.31052 3.88566 0.53389
v 3.83809 4.03428 0.36591
v 0.41166 3.36748 0.43094
v 0.39828 4.09467 0.43515
v 0.45346 3.85852 0.54083
v 0.24881 3.80926 0.46617
v 0.06421 3.77105 0.27158
v 0.13551 4.05496 0.25280
v 0.32234 4.24966 0.24310
v 1.34870 0.09964 0.24950
v 1.14421 0.26985 0.24139
v 1.29488 0.34451 0.43287
v 1.51892 0.39903 0.53625
v 1.57553 0.20680 0.44485
v 1.60497 0.04602 0.25304
v 1.99126 0.49631 0.41824
v 2.14673 0.50528 0.23408
v 2.06857 0.26774 0.23587
v 1.82365 0.25109 0.43540
v 1.77199 0.45030 0.52976
v 1.86906 0.09922 0.25077
v 3.58639 3.73935 0.52008
v 3.44633 3.50006 0.52845
v 3.23352 3.62798 0.54009
v 3.08008 4.10527 0.44732
v 3.15512 4.20507 0.43477
v 3.43480 4.06641 0.49018
v 3.65692 3.94740 0.48654
v 3.84453 3.85343 0.40533
v 3.69906 4.12815 0.38556
v 3.92587 4.07529 0.22650
v 3.98727 3.80248 0.22967
v 3.74524 4.24392 0.21253
v 0.30917 3.54349 0.47341
v 0.51853 3.60122 0.54873
v 0.58719 3.36685 0.44729
v 0.59224 3.18336 0.25203
v 0.32455 3.25026 0.26924
v 0.12606 3.47384 0.27811
v 0.85458 3.22413 0.24216
v 1.08541 3.32508 0.23382
v 1.29060 3.44777 0.22661
v 1.01187 3.47492 0.44072
v 1.21542 3.57634 0.42700
v 1.41247 3.68577 0.40379
v 1.47838 3.57386 0.21621
v 1.66380 3.70268 0.20318
v 0.56496 4.32978 0.23329
v 0.80124 4.34988 0.22569
v 0.81782 4.18596 0.42529
v 0.60475 4.15979 0.43680
v 0.85072 3.95415 0.55376
v 0.65223 3.91236 0.55711
v 0.92143 3.69862 0.56293
v 0.72063 3.64656 0.56267
v 0.80082 3.40369 0.44604
v 1.06173 3.99785 0.53842
v 1.12833 3.77073 0.54627
v 1.28129 4.05162 0.51668
v 1.34314 3.85523 0.51860
v 1.50555 4.10577 0.48450
v 1.55641 3.93731 0.48789
v 1.61268 3.79421 0.37854
v 1.77066 4.02531 0.45073
v 1.81313 3.90512 0.35848
v 1.85112 3.82352 0.19226
v 2.01148 4.01850 0.33564
v 2.03430 3.94435 0.17814
v 1.24023 4.35637 0.20998
v 1.02147 4.35449 0.21837
v 1.24633 4.22835 0.39741
v 1.02989 4.20399 0.41376
v 1.45560 4.36562 0.20150
v 1.46944 4.25384 0.37661
v 1.67292 4.37754 0.19080
v 1.69107 4.28335 0.35299
v 1.72821 4.15833 0.44861
v 1.91711 4.31752 0.33317
v 1.94764 4.21635 0.41415
v 1.98017 4.11453 0.41347
v 2.16805 4.27484 0.37592
v 2.18919 4.19637 0.37433
v 2.20394 4.12268 0.30325
v 2.39899 4.25184 0.33577
v 2.40036 4.19819 0.26882
v 2.39986 4.15411 0.15026
v 2.21437 4.06195 0.16362
v 1.89675 4.39365 0.17984
v 2.13099 4.40794 0.16625
v 2.14776 4.34986 0.30895
v 2.37958 4.41674 0.15629
v 2.38502 4.37113 0.28434
v 2.39192 4.31711 0.33973
v 2.63462 4.37398 0.27786
v 2.62426 4.32273 0.32892
v 2.61384 4.25791 0.32389
v 2.87822 4.29198 0.36179
v 2.83877 4.22065 0.35979
v 2.80043 4.15824 0.29083
v 2.60464 4.21000 0.26278
v 2.76805 4.11887 0.16397
v 2.59629 4.17810 0.15305
v 2.64620 4.41806 0.15552
v 2.93283 4.40674 0.16784
v 2.90931 4.35416 0.29897
v 3.22940 4.37761 0.18653
v 3.20174 4.30035 0.34186
v 3.50495 4.33068 0.19855
v 3.47988 4.21905 0.37648
v 3.89746 3.50980 0.22878
v 3.70192 3.25771 0.22306
v 3.60000 3.36080 0.41056
v 3.76685 3.60096 0.41193
v 3.45523 3.07309 0.21381
v 3.37561 3.17403 0.40020
v 3.24999 3.30176 0.52219
v 3.14205 3.02227 0.38313
v 3.03330 3.13394 0.50090
v 2.89595 3.26004 0.50513
v 3.07753 3.42865 0.53201
v 2.76472 3.36397 0.38859
v 2.89651 3.52154 0.40246
v 2.99693 3.68721 0.40208
v 3.02948 3.85949 0.39031
v 2.77171 3.56819 0.20963
v 2.84789 3.71070 0.20720
v 2.88392 3.85270 0.19445
v 2.86519 3.99408 0.17766
v 2.95248 4.03075 0.34142
v 2.66484 3.42466 0.20513
v 2.61401 3.21282 0.37044
v 2.53634 3.27606 0.19725
v 2.39604 3.11974 0.18947
v 3.21144 2.93178 0.20314
v 1.94571 2.60819 0.16530
v 1.78381 2.42329 0.15699
v 1.62359 2.22078 0.15664
v 1.81028 2.39767 0.27644
v 1.65900 2.20399 0.27769
v 1.52552 1.99277 0.30788
v 1.46924 2.00637 0.16878
v 1.33592 1.78363 0.19026
v 2.55462 2.59147 0.17820
v 2.76271 2.69721 0.18325
v 2.97754 2.81072 0.19203
v 2.70763 2.76860 0.34553
v 2.91850 2.88942 0.36023
v 2.62871 2.86059 0.44622
v 2.82518 2.99133 0.47312
v 2.53934 2.96517 0.44979
v 2.71577 3.11115 0.47619
v 2.45820 3.05709 0.35510
v 2.36618 2.81662 0.42521
v 2.30052 2.89515 0.34187
v 2.25007 2.95457 0.18268
v 2.13978 2.73200 0.32547
v 2.10075 2.78507 0.17498
v 1.97653 2.56808 0.29906
v 2.19099 2.66675 0.39674
v 2.01498 2.51982 0.36278
v 1.84812 2.36184 0.33040
v 2.06808 2.45926 0.36024
v 1.89769 2.31684 0.32852
v 1.76080 2.14608 0.33190
v 1.70492 2.17887 0.33230
v 1.67154 1.94794 0.37093
v 1.59352 1.97313 0.37283
v 1.63066 1.73050 0.42705
v 1.51938 1.74841 0.42771
v 1.41589 1.76610 0.34363
v 1.46127 1.51604 0.48055
v 1.31943 1.53397 0.38036
v 1.21593 1.56223 0.20552
v 1.23593 1.30044 0.40420
v 1.11471 1.33388 0.21494
v 1.97326 2.25779 0.14623
v 2.15438 2.37731 0.15935
v 2.35062 2.48719 0.17331
v 2.11355 2.41280 0.29718
v 2.30392 2.53601 0.31949
v 2.50478 2.65304 0.33519
v 2.25006 2.59592 0.39463
v 2.43801 2.73051 0.42247
v 1.93875 2.28260 0.27232
v 1.84264 2.09593 0.14419
v 1.80883 2.11712 0.26990
v 1.80396 1.89861 0.15891
v 1.74733 1.92193 0.29904
v 1.82477 1.70021 0.18367
v 1.74014 1.71147 0.33994
v 1.86692 1.50725 0.20214
v 1.75986 1.49683 0.37662
v 1.61692 1.50167 0.47967
v 1.78802 1.28615 0.39773
v 1.61107 1.26867 0.52113
v 1.41096 1.27338 0.52115
v 1.62160 1.04890 0.54115
v 1.38087 1.03733 0.54297
v 1.16708 1.05710 0.42264
v 1.39143 0.81422 0.55509
v 1.14914 0.80204 0.43697
v 0.98516 0.79906 0.23684
v 1.02372 1.07842 0.22692
v 1.91370 1.31815 0.20960
v 1.96823 1.13028 0.21449
v 1.82659 1.09020 0.41274
v 2.03181 0.94217 0.21952
v 1.88193 0.90103 0.42162
v 1.65817 0.84701 0.55166
v 1.94877 0.71030 0.43014
v 1.71130 0.65467 0.55224
v 1.44447 0.60261 0.55687
v 1.19786 0.55780 0.44075
v 1.02941 0.51953 0.23756
v 2.10954 0.74059 0.22825
vn -0.55515 0.37952 -0.74012
vn -0.32475 0.51457 -0.79357
vn -0.23639 0.16165 -0.95812
vn -0.55421 0.08340 -0.82819
vn -0.88063 0.03342 -0.47262
vn -0.76754 0.45734 -0.44914
vn -0.46425 0.75918 -0.45621
vn -0.33014 -0.60940 -0.72086
vn -0.40447 -0.81167 -0.42141
vn -0.71515 -0.54301 -0.44012
vn -0.48003 -0.39670 -0.78243
vn -0.12232 -0.29222 -0.94850
vn -0.03833 -0.60905 -0.79221
vn -0.00344 -0.90453 -0.42640
vn 0.60688 -0.36385 -0.70661
vn 0.63173 -0.07541 -0.77151
vn 0.89616 -0.07430 -0.43746
vn 0.75947 -0.49947 -0.41681
vn 0.32451 -0.52165 -0.78903
vn 0.26978 -0.18212 -0.94554
vn 0.40001 -0.81070 -0.42751
vn -0.19432 0.09531 -0.97630
vn 0.25313 -0.03794 -0.96669
vn 0.21089 -0.17974 -0.96084
vn -0.21647 0.10277 -0.97087
vn -0.35873 -0.01112 -0.93337
vn -0.04686 0.45577 -0.88886
vn 0.08982 0.38394 -0.91898
vn 0.29580 0.21942 -0.92971
vn 0.60644 0.38074 -0.69804
vn 0.61728 0.04507 -0.78545
vn 0.37014 0.56932 -0.73408
vn 0.79048 0.46887 -0.39409
vn 0.90212 -0.02728 -0.43062
vn 0.46991 0.79685 -0.37977
vn -0.27634 -0.56350 -0.77853
vn -0.45259 -0.27413 -0.84854
vn -0.12756 -0.20769 -0.96984
vn -0.01465 -0.57989 -0.81456
vn -0.02042 -0.87870 -0.47693
vn -0.43740 -0.76404 -0.47426
vn -0.78219 -0.39493 -0.48188
vn -0.89240 -0.45124 0.00028
vn -0.99976 0.02173 0.00031
vn -0.52470 -0.85129 -0.00073
vn -0.06040 -0.99817 -0.00142
vn 0.24264 -0.83650 -0.49132
vn 0.27270 -0.96210 -0.00036
vn 0.46500 -0.88531 0.00025
vn 0.40278 -0.78110 -0.47713
vn 0.48659 -0.74638 -0.45403
vn 0.55189 -0.83391 0.00000
vn 0.27334 -0.56298 -0.77996
vn 0.35997 -0.55684 -0.74856
vn 0.40075 -0.57321 -0.71472
vn 0.52186 -0.73899 -0.42609
vn 0.58543 -0.81072 -0.00009
vn 0.52503 -0.75688 -0.38919
vn 0.58156 -0.81350 -0.00012
vn -0.54638 0.83754 -0.00020
vn -0.21899 0.97573 -0.00039
vn -0.17805 0.86170 -0.47516
vn -0.87500 0.48412 0.00068
vn -0.05393 0.99854 0.00030
vn -0.04290 0.87742 -0.47780
vn -0.03247 0.63780 -0.76952
vn -0.12165 0.59715 -0.79285
vn 0.00025 0.26622 -0.96391
vn -0.07083 0.22550 -0.97166
vn 0.11232 -0.19075 -0.97519
vn 0.02827 -0.20006 -0.97938
vn 0.15616 -0.57231 -0.80503
vn 0.03040 0.29381 -0.95538
vn 0.18183 -0.18782 -0.96523
vn 0.05008 0.31509 -0.94774
vn 0.22238 -0.20262 -0.95367
vn 0.06823 0.33591 -0.93942
vn 0.24652 -0.21810 -0.94428
vn 0.41484 -0.60541 -0.67926
vn 0.26265 -0.22874 -0.93739
vn 0.43011 -0.62831 -0.64825
vn 0.52820 -0.77495 -0.34706
vn 0.44947 -0.65403 -0.60846
vn 0.53740 -0.78686 -0.30341
vn 0.57288 -0.81964 -0.00001
vn 0.57279 -0.81970 -0.00000
vn 0.00121 1.00000 -0.00001
vn -0.00470 0.99999 0.00001
vn -0.01364 0.89772 -0.44036
vn -0.00716 0.88503 -0.46549
vn -0.01887 0.70027 -0.71363
vn -0.01789 0.66831 -0.74367
vn -0.02843 0.91014 -0.41333
vn -0.01936 0.72712 -0.68624
vn -0.04255 0.92409 -0.37979
vn -0.03440 0.74890 -0.66179
vn 0.06823 0.34677 -0.93547
vn -0.04427 0.77702 -0.62791
vn 0.06944 0.35389 -0.93271
vn 0.28207 -0.25429 -0.92508
vn 0.08369 0.36503 -0.92723
vn 0.28454 -0.32218 -0.90290
vn 0.41987 -0.72327 -0.54826
vn 0.19875 -0.73897 -0.64375
vn 0.23036 -0.83588 -0.49824
vn 0.28371 -0.93399 -0.21718
vn 0.49260 -0.83121 -0.25776
vn 0.30902 -0.95106 0.00011
vn 0.52104 -0.85353 0.00006
vn -0.02383 0.99972 -0.00002
vn -0.03377 0.99943 -0.00009
vn -0.03616 0.99935 -0.00002
vn -0.04863 0.94186 -0.33248
vn -0.02578 0.99967 0.00001
vn -0.03521 0.95901 -0.28117
vn -0.02921 0.81380 -0.58041
vn -0.01460 0.96868 -0.24789
vn -0.00616 0.83947 -0.54337
vn 0.00520 0.70143 -0.71272
vn 0.00911 0.84259 -0.53848
vn 0.00417 0.70986 -0.70433
vn 0.11181 -0.03916 -0.99296
vn -0.04626 -0.03793 -0.99821
vn -0.09396 0.42578 -0.89993
vn -0.30575 -0.24380 -0.92037
vn -0.09553 -0.74922 -0.65540
vn -0.46451 -0.67186 -0.57693
vn -0.10528 -0.86039 -0.49864
vn -0.56638 -0.78736 -0.24347
vn -0.10703 -0.97388 -0.20024
vn -0.59992 -0.80006 -0.00030
vn -0.10155 -0.99483 -0.00009
vn -0.01210 0.99993 -0.00003
vn 0.00863 0.99996 0.00004
vn 0.01125 0.96838 -0.24922
vn 0.04687 0.99890 -0.00006
vn 0.05256 0.95685 -0.28578
vn 0.03497 0.82690 -0.56126
vn 0.11965 0.93384 -0.33708
vn 0.09702 0.78229 -0.61531
vn 0.23593 0.89711 -0.37354
vn 0.19534 0.70085 -0.68604
vn 0.11782 0.99303 -0.00008
vn 0.25306 0.96745 -0.00018
vn 0.52100 0.85356 0.00002
vn 0.86518 0.50146 0.00014
vn 0.99960 -0.02841 -0.00036
vn 0.89055 -0.45488 -0.00020
vn 0.79302 -0.40264 -0.45716
vn 0.70048 -0.71367 0.00014
vn 0.62821 -0.63581 -0.44844
vn 0.47410 -0.45108 -0.75615
vn 0.56101 -0.25097 -0.78885
vn 0.49398 -0.75750 -0.42683
vn 0.39193 -0.58518 -0.70990
vn 0.16131 -0.27964 -0.94646
vn 0.34851 -0.65593 -0.66955
vn 0.12151 -0.33768 -0.93338
vn -0.26587 0.13087 -0.95508
vn -0.23838 0.12139 -0.96356
vn -0.56801 0.44804 -0.69038
vn -0.58090 0.38951 -0.71473
vn -0.61302 0.27461 -0.74080
vn -0.67265 0.03924 -0.73892
vn -0.76328 0.49849 -0.41099
vn -0.83547 0.35813 -0.41681
vn -0.91419 0.08275 -0.39675
vn -0.87502 -0.35455 -0.32961
vn -0.67062 -0.30791 -0.67488
vn -0.91719 0.39845 -0.00064
vn -0.99262 0.12126 0.00020
vn -0.94136 -0.33742 0.00039
vn -0.83855 0.54483 -0.00016
vn -0.71879 0.57073 -0.39701
vn -0.78526 0.61916 0.00009
vn -0.56420 0.48643 -0.66714
vn -0.70139 0.60518 -0.37657
vn -0.76222 0.64732 0.00002
vn -0.70558 0.61602 -0.35026
vn -0.75900 0.65109 -0.00007
vn 0.54481 -0.83856 0.00008
vn 0.46772 -0.88388 0.00002
vn 0.42980 -0.80718 -0.40464
vn -0.77340 0.63392 -0.00007
vn -0.76311 0.64627 -0.00002
vn -0.73346 0.63312 -0.24735
vn -0.75258 0.62181 -0.21674
vn -0.77645 0.59066 -0.21967
vn -0.79317 0.60900 0.00004
vn -0.66424 0.54399 -0.51270
vn -0.67777 0.52259 -0.51724
vn -0.68272 0.47299 -0.55694
vn -0.79710 0.54271 -0.26475
vn -0.82112 0.57076 0.00009
vn -0.81146 0.48436 -0.32699
vn -0.85280 0.52224 0.00012
vn 0.44553 -0.89527 0.00003
vn 0.44239 -0.89683 -0.00005
vn 0.42528 -0.84198 -0.33197
vn 0.42170 -0.83250 -0.35932
vn 0.41646 -0.82468 -0.38269
vn 0.44756 -0.89426 0.00000
vn 0.35316 -0.69428 -0.62711
vn 0.34140 -0.68522 -0.64336
vn 0.11763 -0.35697 -0.92668
vn 0.10988 -0.35665 -0.92775
vn -0.28325 0.16487 -0.94477
vn -0.27748 0.15037 -0.94889
vn -0.57541 0.50543 -0.64299
vn -0.29536 0.17220 -0.93974
vn -0.59207 0.51856 -0.61689
vn -0.71536 0.62109 -0.32017
vn -0.61584 0.53259 -0.58059
vn -0.72462 0.62706 -0.28588
vn -0.76254 0.64694 0.00006
vn -0.76152 0.64814 -0.00002
vn -0.64125 0.54688 -0.53826
vn -0.51428 0.43126 -0.74130
vn -0.54905 0.44824 -0.70543
vn -0.56494 0.45209 -0.69026
vn -0.03026 -0.06086 -0.99769
vn -0.08812 -0.11883 -0.98900
vn 0.05213 0.07589 -0.99575
vn -0.56380 0.44789 -0.69392
vn 0.40795 0.08833 -0.90872
vn 0.07578 0.18866 -0.97911
vn -0.56244 0.41108 -0.71741
vn 0.36264 0.18644 -0.91309
vn -0.26489 0.30372 -0.91520
vn -0.67555 0.40832 -0.61392
vn -0.26576 0.25548 -0.92957
vn -0.66255 0.34570 -0.66447
vn -0.82431 0.42174 -0.37769
vn -0.65487 0.27033 -0.70574
vn -0.84301 0.34794 -0.41021
vn -0.92298 0.38484 0.00019
vn -0.88612 0.46346 0.00023
vn 0.49371 -0.86963 0.00013
vn 0.66050 -0.75083 -0.00002
vn 0.65166 -0.72831 -0.21191
vn 0.49040 -0.83563 -0.24743
vn 0.44180 -0.84696 -0.29575
vn 0.45135 -0.89235 0.00006
vn 0.42776 -0.72605 -0.53840
vn 0.38361 -0.72362 -0.57378
vn 0.36459 -0.70742 -0.60550
vn 0.31733 -0.61275 -0.72377
vn 0.12307 -0.36356 -0.92341
vn -0.08715 -0.10668 -0.99047
vn 0.35119 -0.62098 -0.70075
vn 0.57200 -0.63577 -0.51827
vn 0.48027 -0.54166 -0.68988
vn 0.88542 -0.41078 -0.21745
vn 0.76698 -0.36355 -0.52874
vn 0.64895 -0.30426 -0.69735
vn 0.96460 -0.02507 -0.26254
vn 0.82370 -0.03903 -0.56568
vn 0.92540 0.18222 -0.33230
vn 0.77295 0.14150 -0.61848
vn 0.88862 0.23066 -0.39642
vn 0.72304 0.17721 -0.66769
vn 0.32009 0.18258 -0.92963
vn 0.68659 0.17492 -0.70569
vn 0.29114 0.13973 -0.94642
vn -0.26232 0.17967 -0.94811
vn 0.26577 0.11305 -0.95738
vn -0.24676 0.09623 -0.96429
vn -0.64533 0.15840 -0.74730
vn -0.22251 0.00893 -0.97489
vn -0.62381 -0.01261 -0.78147
vn -0.89174 -0.00870 -0.45247
vn -0.87396 0.21907 -0.43383
vn -0.99998 -0.00688 -0.00009
vn -0.97013 0.24259 -0.00002
vn 1.00000 0.00196 0.00038
vn 0.97593 0.21810 0.00086
vn 0.91195 -0.41030 -0.00011
vn 0.96220 0.27234 0.00049
vn 0.95806 0.28657 0.00012
vn 0.86458 0.24217 -0.44029
vn 0.94917 0.31476 0.00003
vn 0.84235 0.27197 -0.46527
vn 0.65045 0.19654 -0.73368
vn 0.82953 0.30157 -0.47003
vn 0.61657 0.22293 -0.75508
vn 0.24462 0.09813 -0.96464
vn 0.61125 0.15842 -0.77542
vn 0.24338 0.02927 -0.96949
vn -0.19116 -0.09833 -0.97662
vn -0.57645 -0.19295 -0.79402
vn -0.84896 -0.26370 -0.45796
vn -0.78518 -0.61927 -0.00089
vn -0.95527 -0.29572 -0.00040
vn 0.94238 0.33454 0.00030
vn 0.97262 0.23239 -0.00035
vn 0.85866 0.22177 -0.46209
vn 0.99427 -0.10689 0.00000
vn 0.82235 -0.56898 0.00090
vn 0.43333 -0.90124 0.00029
vn -0.00256 -1.00000 -0.00008
vn -0.42781 -0.90387 -0.00062
vn -0.55586 0.08508 0.82691
vn -0.23860 0.16328 0.95729
vn -0.32677 0.51085 0.79514
vn -0.55645 0.37395 0.74197
vn -0.76718 0.45272 0.45439
vn -0.88020 0.03403 0.47339
vn -0.46545 0.75570 0.46072
vn -0.47750 -0.40160 0.78148
vn -0.71225 -0.54431 0.44320
vn -0.40118 -0.81193 0.42406
vn -0.32767 -0.61381 0.71824
vn -0.04090 -0.61333 0.78877
vn -0.12455 -0.29770 0.94650
vn -0.00375 -0.90438 0.42671
vn 0.75620 -0.50018 0.42188
vn 0.89410 -0.07719 0.44117
vn 0.63060 -0.08003 0.77197
vn 0.60459 -0.36665 0.70713
vn 0.27263 -0.18414 0.94433
vn 0.32773 -0.52155 0.78777
vn 0.40109 -0.80926 0.42921
vn -0.21687 0.10294 0.97076
vn 0.20932 -0.18002 0.96113
vn 0.25436 -0.03876 0.96633
vn -0.18829 0.09510 0.97750
vn 0.09038 0.38444 0.91871
vn -0.04417 0.45523 0.88928
vn -0.35507 -0.01259 0.93476
vn 0.30659 0.22374 0.92517
vn 0.37771 0.57068 0.72915
vn 0.62467 0.05022 0.77927
vn 0.61188 0.38549 0.69065
vn 0.90159 -0.02608 0.43180
vn 0.78901 0.46847 0.39749
vn 0.47031 0.79544 0.38222
vn -0.02124 -0.58086 0.81372
vn -0.13191 -0.21406 0.96787
vn -0.45447 -0.28037 0.84548
vn -0.28126 -0.56399 0.77641
vn -0.43890 -0.76050 0.47854
vn -0.02359 -0.87667 0.48052
vn -0.78101 -0.39534 0.48347
vn 0.24231 -0.83717 0.49033
vn 0.40236 -0.78182 0.47630
vn 0.48663 -0.74648 0.45383
vn 0.35884 -0.55762 0.74853
vn 0.27232 -0.56498 0.77887
vn 0.52304 -0.73826 0.42592
vn 0.40031 -0.57319 0.71498
vn 0.52591 -0.75629 0.38916
vn -0.17811 0.86197 0.47464
vn -0.04293 0.87726 0.47808
vn -0.12083 0.59733 0.79284
vn -0.03268 0.63742 0.76982
vn -0.07007 0.22550 0.97172
vn 0.00028 0.26585 0.96401
vn 0.02774 -0.20040 0.97932
vn 0.11175 -0.19158 0.97509
vn 0.15543 -0.57340 0.80440
vn 0.18090 -0.18833 0.96530
vn 0.03092 0.29415 0.95526
vn 0.22097 -0.20311 0.95390
vn 0.05154 0.31571 0.94746
vn 0.24580 -0.21844 0.94439
vn 0.06897 0.33622 0.93925
vn 0.41464 -0.60538 0.67940
vn 0.43084 -0.62809 0.64798
vn 0.26304 -0.22858 0.93732
vn 0.52816 -0.77504 0.34693
vn 0.53839 -0.78642 0.30280
vn 0.44956 -0.65389 0.60854
vn -0.00667 0.88508 0.46540
vn -0.01332 0.89763 0.44055
vn -0.01729 0.66854 0.74348
vn -0.01728 0.70053 0.71342
vn -0.01927 0.72713 0.68623
vn -0.02908 0.90999 0.41361
vn -0.03543 0.74864 0.66203
vn -0.04298 0.92396 0.38006
vn 0.06784 0.34672 0.93551
vn 0.06810 0.35368 0.93289
vn -0.04535 0.77677 0.62814
vn 0.28081 -0.25441 0.92543
vn 0.28557 -0.32265 0.90241
vn 0.08480 0.36454 0.92732
vn 0.41943 -0.72358 0.54819
vn 0.23150 -0.83616 0.49723
vn 0.20228 -0.73934 0.64223
vn 0.49206 -0.83145 0.25800
vn 0.28253 -0.93434 0.21724
vn -0.04852 0.94181 0.33263
vn -0.03554 0.95906 0.28095
vn -0.02888 0.81377 0.58047
vn -0.00557 0.83936 0.54355
vn -0.01523 0.96872 0.24769
vn 0.00728 0.70087 0.71325
vn 0.00443 0.70970 0.70449
vn 0.00947 0.84259 0.53848
vn 0.11307 -0.03911 0.99282
vn -0.04491 -0.03512 0.99837
vn -0.30980 -0.24448 0.91883
vn -0.08991 0.42572 0.90038
vn -0.10684 -0.86162 0.49618
vn -0.46772 -0.67276 0.57327
vn -0.09815 -0.75114 0.65281
vn -0.10740 -0.97410 0.19897
vn -0.56406 -0.78848 0.24522
vn 0.01126 0.96840 0.24915
vn 0.05115 0.95705 0.28538
vn 0.03452 0.82710 0.56099
vn 0.09704 0.78184 0.61587
vn 0.11683 0.93446 0.33635
vn 0.19645 0.69912 0.68748
vn 0.23455 0.89751 0.37345
vn 0.79289 -0.40275 0.45730
vn 0.62796 -0.63576 0.44887
vn 0.56104 -0.25264 0.78830
vn 0.47242 -0.45141 0.75700
vn 0.39207 -0.58512 0.70987
vn 0.49435 -0.75739 0.42659
vn 0.16131 -0.27956 0.94648
vn 0.12248 -0.33730 0.93340
vn 0.34963 -0.65534 0.66954
vn -0.23801 0.12148 0.96364
vn -0.26514 0.13083 0.95529
vn -0.58021 0.38948 0.71531
vn -0.56778 0.44792 0.69065
vn -0.61227 0.27436 0.74152
vn -0.66782 0.03941 0.74328
vn -0.83478 0.35885 0.41757
vn -0.76280 0.49867 0.41165
vn -0.91519 0.08532 0.39388
vn -0.66774 -0.30964 0.67694
vn -0.87517 -0.35409 0.32970
vn -0.71881 0.57066 0.39707
vn -0.70194 0.60485 0.37608
vn -0.56490 0.48630 0.66663
vn -0.70578 0.61587 0.35013
vn 0.43019 -0.80698 0.40463
vn -0.75215 0.62240 0.21654
vn -0.73329 0.63339 0.24718
vn -0.77680 0.59026 0.21948
vn -0.67803 0.52236 0.51712
vn -0.66392 0.54456 0.51251
vn -0.79844 0.54088 0.26446
vn -0.68308 0.47267 0.55677
vn -0.81204 0.48354 0.32678
vn 0.42148 -0.83262 0.35930
vn 0.42526 -0.84197 0.33203
vn 0.41671 -0.82457 0.38267
vn 0.34179 -0.68507 0.64332
vn 0.35298 -0.69438 0.62709
vn 0.10988 -0.35663 0.92776
vn 0.11767 -0.35693 0.92669
vn -0.27779 0.15040 0.94879
vn -0.28328 0.16477 0.94478
vn -0.57544 0.50541 0.64299
vn -0.59268 0.51800 0.61677
vn -0.29596 0.17173 0.93964
vn -0.71542 0.62102 0.32016
vn -0.72502 0.62661 0.28584
vn -0.61605 0.53247 0.58048
vn -0.64059 0.54777 0.53814
vn -0.54764 0.44988 0.70548
vn -0.51346 0.43230 0.74126
vn -0.56495 0.45228 0.69013
vn -0.03007 -0.06136 0.99766
vn -0.08828 -0.11918 0.98894
vn 0.05287 0.07578 0.99572
vn -0.56324 0.44838 0.69405
vn 0.07741 0.19027 0.97868
vn 0.40664 0.08603 0.90953
vn -0.56077 0.41300 0.71762
vn -0.26415 0.30461 0.91512
vn 0.36207 0.18453 0.91370
vn -0.67576 0.40818 0.61379
vn -0.66295 0.34470 0.66459
vn -0.26639 0.25384 0.92984
vn -0.82405 0.42220 0.37775
vn -0.84325 0.34748 0.41010
vn -0.65487 0.27019 0.70579
vn 0.49041 -0.83560 0.24751
vn 0.65163 -0.72829 0.21205
vn 0.44207 -0.84681 0.29578
vn 0.38321 -0.72387 0.57372
vn 0.42772 -0.72618 0.53826
vn 0.36431 -0.70756 0.60550
vn 0.12268 -0.36385 0.92334
vn 0.31676 -0.61311 0.72371
vn -0.08722 -0.10678 0.99045
vn 0.35113 -0.62127 0.70052
vn 0.57224 -0.63570 0.51810
vn 0.48014 -0.54235 0.68944
vn 0.76664 -0.36353 0.52925
vn 0.88640 -0.40890 0.21702
vn 0.64659 -0.30668 0.69847
vn 0.82333 -0.03891 0.56623
vn 0.96502 -0.02294 0.26118
vn 0.77306 0.14166 0.61831
vn 0.92583 0.18244 0.33098
vn 0.72351 0.17870 0.66678
vn 0.88893 0.23131 0.39534
vn 0.31986 0.18199 0.92982
vn 0.29172 0.14112 0.94604
vn 0.68734 0.17697 0.70445
vn -0.26188 0.17973 0.94822
vn -0.24706 0.09658 0.96417
vn 0.26614 0.11359 0.95722
vn -0.64546 0.15879 0.74711
vn -0.62468 -0.01337 0.78077
vn -0.22376 0.00801 0.97461
vn -0.87389 0.21911 0.43394
vn -0.89170 -0.00860 0.45254
vn 0.86473 0.24233 0.43991
vn 0.84236 0.27174 0.46539
vn 0.65074 0.19675 0.73336
vn 0.61627 0.22279 0.75537
vn 0.82922 0.30180 0.47044
vn 0.24444 0.09788 0.96471
vn 0.24326 0.02955 0.96951
vn 0.61114 0.15886 0.77542
vn -0.19131 -0.09864 0.97656
vn -0.57641 -0.19346 0.79393
vn -0.84900 -0.26394 0.45775
vn 0.85875 0.22212 0.46175
f 1//1 7//2 8//3 9//4
f 1//1 9//4 10//5 11//6
f 1//1 11//6 12//7 7//2
f 2//8 13//9 14//10 15//11
f 2//8 15//11 16//12 17//13
f 2//8 17//13 18//14 13//9
f 3//15 19//16 20//17 21//18
f 3//15 22//19 23//20 19//16
f 3//15 21//18 24//21 22//19
f 4//22 25//23 26//24 27//25
f 4//22 28//26 29//27 30//28
f 4//22 30//28 31//29 25//23
f 5//30 32//31 31//29 33//32
f 5//30 34//33 35//34 32//31
f 5//30 33//32 36//35 34//33
f 6//36 37//37 38//38 39//39
f 6//36 39//39 40//40 41//41
f 6//36 41//41 42//42 37//37
f 42//42 43//43 44//44 10//5
f 42//42 10//5 9//4 37//37
f 42//42 41//41 45//45 43//43
f 45//45 41//41 40//40 256//46
f 256//46 40//40 46//47 257//48
f 258//49 257//48 46//47 48//50
f 258//49 48//50 49//51 47//52
f 49//51 48//50 50//53 51//54
f 49//51 51//54 52//55 53//56
f 49//51 53//56 54//57 47//52
f 54//57 53//56 55//58 56//59
f 59//60 58//61 60//62 12//7
f 59//60 12//7 11//6 61//63
f 61//63 11//6 10//5 44//44
f 60//62 58//61 57//64 62//65
f 60//62 62//65 63//66 64//67
f 60//62 64//67 7//2 12//7
f 64//67 63//66 65//68 66//69
f 64//67 66//69 8//3 7//2
f 66//69 65//68 67//70 68//71
f 66//69 68//71 38//38 8//3
f 68//71 67//70 50//53 69//72
f 68//71 69//72 39//39 38//38
f 69//72 50//53 48//50 46//47
f 69//72 46//47 40//40 39//39
f 67//70 65//68 70//73 71//74
f 67//70 71//74 51//54 50//53
f 71//74 70//73 72//75 73//76
f 71//74 73//76 52//55 51//54
f 73//76 72//75 74//77 75//78
f 73//76 75//78 76//79 52//55
f 76//79 75//78 77//80 78//81
f 76//79 78//81 79//82 55//58
f 76//79 55//58 53//56 52//55
f 79//82 78//81 80//83 81//84
f 79//82 81//84 259//85 260//86
f 79//82 260//86 56//59 55//58
f 262//87 261//88 82//89 83//90
f 262//87 83//90 62//65 57//64
f 83//90 82//89 84//91 85//92
f 83//90 85//92 63//66 62//65
f 85//92 84//91 72//75 70//73
f 85//92 70//73 65//68 63//66
f 84//91 82//89 86//93 87//94
f 84//91 87//94 74//77 72//75
f 87//94 86//93 88//95 89//96
f 87//94 89//96 90//97 74//77
f 90//97 89//96 91//98 92//99
f 90//97 92//99 93//100 77//80
f 90//97 77//80 75//78 74//77
f 93//100 92//99 94//101 95//102
f 93//100 95//102 96//103 80//83
f 93//100 80//83 78//81 77//80
f 96//103 95//102 97//104 98//105
f 96//103 98//105 99//106 100//107
f 96//103 100//107 81//84 80//83
f 100//107 99//106 263//108 101//109
f 100//107 101//109 259//85 81//84
f 265//110 264//111 88//95 86//93
f 265//110 86//93 82//89 261//88
f 264//111 266//112 102//113 88//95
f 102//113 266//112 103//114 104//115
f 102//113 104//115 105//116 91//98
f 102//113 91//98 89//96 88//95
f 105//116 104//115 106//117 107//118
f 105//116 107//118 108//119 94//101
f 105//116 94//101 92//99 91//98
f 108//119 107//118 109//120 110//121
f 108//122 110//123 111//123 97//122
f 108//122 97//122 95//102 94//101
f 111//123 110//123 112//124 113//125
f 111//126 113//125 114//127 115//128
f 111//126 115//128 98//105 97//104
f 115//128 114//127 116//129 117//130
f 115//128 117//130 99//106 98//105
f 117//130 116//129 267//131 268//132
f 117//130 268//132 263//108 99//106
f 118//133 269//134 119//135 106//117
f 118//133 106//117 104//115 103//114
f 119//135 269//134 120//136 121//137
f 119//135 121//137 122//138 109//120
f 119//135 109//120 107//118 106//117
f 122//138 121//137 123//139 124//140
f 122//138 124//140 29//27 112//124
f 122//138 112//124 110//121 109//120
f 124//140 123//139 125//141 126//142
f 124//140 126//142 30//28 29//27
f 126//142 125//141 36//35 33//32
f 126//142 33//32 31//29 30//28
f 125//141 123//139 127//143 128//144
f 125//141 128//144 129//145 36//35
f 129//145 130//146 34//33 36//35
f 130//146 131//147 35//34 34//33
f 131//147 132//148 133//149 35//34
f 133//149 132//148 270//150 134//151
f 133//149 134//151 135//152 136//153
f 133//149 136//153 32//31 35//34
f 136//153 135//152 26//24 25//23
f 136//153 25//23 31//29 32//31
f 135//152 134//151 137//154 138//155
f 135//152 138//155 139//156 26//24
f 139//156 138//155 140//157 141//158
f 139//156 141//158 142//159 143//160
f 139//156 143//160 27//25 26//24
f 143//160 142//159 144//161 145//162
f 143//160 145//162 146//163 27//25
f 146//163 147//164 4//22 27//25
f 146//163 145//162 148//165 149//166
f 146//163 149//166 150//167 147//164
f 150//167 151//168 152//169 147//164
f 150//167 149//166 271//170 272//171
f 150//167 272//171 153//172 151//168
f 153//172 267//131 116//129 151//168
f 273//173 271//170 149//166 148//165
f 273//173 148//165 155//174 154//175
f 155//174 148//165 145//162 144//161
f 155//174 144//161 156//176 157//177
f 155//174 157//177 158//178 154//175
f 158//178 157//177 159//179 274//180
f 276//181 275//182 160//183 137//154
f 276//181 137//154 134//151 270//150
f 277//184 278//185 163//186 164//187
f 277//184 164//187 165//188 162//189
f 165//188 164//187 166//190 167//191
f 165//188 167//191 168//192 169//193
f 165//188 169//193 170//194 162//189
f 170//194 169//193 171//195 172//196
f 174//197 173//198 175//199 176//200
f 174//197 176//200 177//201 161//202
f 177//201 160//183 275//182 161//202
f 177//201 176//200 178//203 179//204
f 177//201 179//204 140//157 160//183
f 179//204 178//203 180//205 181//206
f 179//204 181//206 141//158 140//157
f 181//206 180//205 182//207 183//208
f 181//206 183//208 142//159 141//158
f 183//208 182//207 184//209 156//176
f 183//208 156//176 144//161 142//159
f 184//209 182//207 185//210 186//211
f 184//209 186//211 187//212 159//179
f 184//209 159//179 157//177 156//176
f 187//212 186//211 188//213 189//214
f 187//212 189//214 279//215 280//216
f 187//212 280//216 274//180 159//179
f 189//214 188//213 190//217 163//186
f 189//214 163//186 278//185 279//215
f 190//217 188//213 191//218 192//219
f 190//217 192//219 193//220 166//190
f 190//217 166//190 164//187 163//186
f 193//221 192//222 194//222 195//221
f 193//221 195//221 196//223 197//223
f 193//220 197//224 167//191 166//190
f 197//223 196//223 198//225 199//226
f 197//224 199//227 168//192 167//191
f 199//226 198//225 200//228 201//229
f 199//227 201//229 202//230 168//192
f 202//230 201//229 203//231 204//232
f 202//230 204//232 205//233 171//195
f 202//230 171//195 169//193 168//192
f 205//233 204//232 206//234 207//235
f 205//233 207//235 281//236 208//237
f 205//233 208//237 172//196 171//195
f 283//238 282//239 210//240 211//241
f 283//238 211//241 212//242 284//243
f 212//242 175//199 173//198 284//243
f 212//242 211//241 213//244 214//245
f 212//242 214//245 215//246 175//199
f 215//246 178//203 176//200 175//199
f 215//246 214//245 216//247 217//248
f 215//246 217//248 180//205 178//203
f 217//248 216//249 191//249 185//210
f 217//248 185//210 182//207 180//205
f 216//247 214//245 213//244 194//250
f 216//249 194//222 192//222 191//249
f 213//244 211//241 210//240 218//251
f 213//244 218//251 195//252 194//250
f 218//251 210//240 219//253 220//254
f 218//251 220//254 196//255 195//252
f 220//254 219//253 221//256 222//257
f 220//254 222//257 198//225 196//255
f 222//257 221//256 223//258 224//259
f 222//257 224//259 200//228 198//225
f 224//259 223//258 225//260 226//261
f 224//259 226//261 227//262 200//228
f 227//262 226//261 228//263 229//264
f 227//262 229//264 230//265 203//231
f 227//262 203//231 201//229 200//228
f 230//265 229//264 231//266 232//267
f 230//265 232//267 233//268 206//234
f 230//265 206//234 204//232 203//231
f 233//268 232//267 234//269 235//270
f 233//268 235//270 236//271 237//272
f 233//268 237//272 207//235 206//234
f 237//272 236//271 285//273 286//274
f 237//272 286//274 281//236 207//235
f 239//275 238//276 223//258 221//256
f 239//275 221//256 219//253 209//277
f 238//276 287//278 225//260 223//258
f 287//278 288//279 240//280 225//260
f 240//280 288//279 289//281 241//282
f 240//280 241//282 242//283 228//263
f 240//280 228//263 226//261 225//260
f 242//283 241//282 243//284 244//285
f 242//283 244//285 245//286 231//266
f 242//283 231//266 229//264 228//263
f 245//286 244//285 246//287 247//288
f 245//286 247//288 248//289 234//269
f 245//286 234//269 232//267 231//266
f 248//289 247//288 23//20 16//12
f 248//289 16//12 15//11 249//290
f 248//289 249//290 235//270 234//269
f 249//290 15//11 14//10 250//291
f 249//290 250//291 236//271 235//270
f 250//291 14//10 290//292 291//293
f 250//291 291//293 285//273 236//271
f 293//294 292//295 251//296 243//284
f 293//294 243//284 241//282 289//281
f 251//296 292//295 294//297 20//17
f 251//296 20//17 19//16 246//287
f 251//296 246//287 244//285 243//284
f 294//297 252//298 21//18 20//17
f 252//298 253//299 24//21 21//18
f 253//299 254//300 18//14 24//21
f 254//300 255//301 13//9 18//14
f 255//301 290//292 14//10 13//9
f 247//288 246//287 19//16 23//20
f 219//253 210//240 282//239 209//277
f 191//218 188//213 186//211 185//210
f 160//183 140//157 138//155 137//154
f 152//169 114//127 113//125 28//26
f 152//169 28//26 4//22 147//164
f 152//169 151//168 116//129 114//127
f 127//143 123//139 121//137 120//136
f 113//125 112//124 29//27 28//26
f 38//38 37//37 9//4 8//3
f 24//21 18//14 17//13 22//19
f 23//20 22//19 17//13 16//12
f 303//302 302//303 301//304 295//305
f 305//306 304//307 303//302 295//305
f 301//304 306//308 305//306 295//305
f 309//309 308//310 307//311 296//312
f 311//313 310//314 309//309 296//312
f 307//311 312//315 311//313 296//312
f 315//316 314//317 313//318 297//319
f 313//318 317//320 316//321 297//319
f 316//321 318//322 315//316 297//319
f 321//323 320//324 319//325 298//326
f 324//327 323//328 322//329 298//326
f 319//325 325//330 324//327 298//326
f 327//331 325//330 326//332 299//333
f 326//332 329//334 328//335 299//333
f 328//335 330//336 327//331 299//333
f 333//337 332//338 331//339 300//340
f 335//341 334//342 333//337 300//340
f 331//339 336//343 335//341 300//340
f 304//307 44//44 43//43 336//343
f 331//339 303//302 304//307 336//343
f 43//43 45//45 335//341 336//343
f 256//46 334//342 335//341 45//45
f 257//48 337//344 334//342 256//46
f 338//345 337//344 257//48 258//49
f 47//52 339//346 338//345 258//49
f 341//347 340//348 338//345 339//346
f 343//349 342//350 341//347 339//346
f 47//52 54//57 343//349 339//346
f 56//59 344//351 343//349 54//57
f 306//308 345//352 58//61 59//60
f 61//63 305//306 306//308 59//60
f 44//44 304//307 305//306 61//63
f 346//353 57//64 58//61 345//352
f 348//354 347//355 346//353 345//352
f 306//308 301//304 348//354 345//352
f 350//356 349//357 347//355 348//354
f 301//304 302//303 350//356 348//354
f 352//358 351//359 349//357 350//356
f 302//303 332//338 352//358 350//356
f 353//360 340//348 351//359 352//358
f 332//338 333//337 353//360 352//358
f 337//344 338//345 340//348 353//360
f 333//337 334//342 337//344 353//360
f 355//361 354//362 349//357 351//359
f 340//348 341//347 355//361 351//359
f 357//363 356//364 354//362 355//361
f 341//347 342//350 357//363 355//361
f 359//365 358//366 356//364 357//363
f 342//350 360//367 359//365 357//363
f 362//368 361//369 359//365 360//367
f 344//351 363//370 362//368 360//367
f 342//350 343//349 344//351 360//367
f 365//371 364//372 362//368 363//370
f 260//86 259//85 365//371 363//370
f 344//351 56//59 260//86 363//370
f 367//373 366//374 261//88 262//87
f 57//64 346//353 367//373 262//87
f 369//375 368//376 366//374 367//373
f 346//353 347//355 369//375 367//373
f 354//362 356//364 368//376 369//375
f 347//355 349//357 354//362 369//375
f 371//377 370//378 366//374 368//376
f 356//364 358//366 371//377 368//376
f 373//379 372//380 370//378 371//377
f 358//366 374//381 373//379 371//377
f 376//382 375//383 373//379 374//381
f 361//369 377//384 376//382 374//381
f 358//366 359//365 361//369 374//381
f 379//385 378//386 376//382 377//384
f 364//372 380//387 379//385 377//384
f 361//369 362//368 364//372 377//384
f 382//388 381//389 379//385 380//387
f 384//390 383//391 382//388 380//387
f 364//372 365//371 384//390 380//387
f 101//109 263//108 383//391 384//390
f 365//371 259//85 101//109 384//390
f 370//378 372//380 264//111 265//110
f 261//88 366//374 370//378 265//110
f 372//380 385//392 266//112 264//111
f 386//393 103//114 266//112 385//392
f 375//383 387//394 386//393 385//392
f 372//380 373//379 375//383 385//392
f 389//395 388//396 386//393 387//394
f 378//386 390//397 389//395 387//394
f 375//383 376//382 378//386 387//394
f 392//398 391//399 389//395 390//397
f 381//400 393//401 392//401 390//400
f 378//386 379//385 381//400 390//400
f 395//402 394//403 392//401 393//401
f 397//404 396//405 395//402 393//406
f 381//389 382//388 397//404 393//406
f 399//407 398//408 396//405 397//404
f 382//388 383//391 399//407 397//404
f 268//132 267//131 398//408 399//407
f 383//391 263//108 268//132 399//407
f 388//396 400//409 269//134 118//133
f 103//114 386//393 388//396 118//133
f 401//410 120//136 269//134 400//409
f 391//399 402//411 401//410 400//409
f 388//396 389//395 391//399 400//409
f 404//412 403//413 401//410 402//411
f 394//403 323//328 404//412 402//411
f 391//399 392//398 394//403 402//411
f 406//414 405//415 403//413 404//412
f 323//328 324//327 406//414 404//412
f 327//331 330//336 405//415 406//414
f 324//327 325//330 327//331 406//414
f 128//144 127//143 403//413 405//415
f 330//336 129//145 128//144 405//415
f 330//336 328//335 130//146 129//145
f 328//335 329//334 131//147 130//146
f 329//334 407//416 132//148 131//147
f 408//417 270//150 132//148 407//416
f 410//418 409//419 408//417 407//416
f 329//334 326//332 410//418 407//416
f 319//325 320//324 409//419 410//418
f 326//332 325//330 319//325 410//418
f 412//420 411//421 408//417 409//419
f 320//324 413//422 412//420 409//419
f 415//423 414//424 412//420 413//422
f 417//425 416//426 415//423 413//422
f 320//324 321//323 417//425 413//422
f 419//427 418//428 416//426 417//425
f 321//323 420//429 419//427 417//425
f 321//323 298//326 421//430 420//429
f 423//431 422//432 419//427 420//429
f 421//430 424//433 423//431 420//429
f 421//430 426//434 425//435 424//433
f 272//171 271//170 423//431 424//433
f 425//435 153//172 272//171 424//433
f 425//435 398//408 267//131 153//172
f 422//432 423//431 271//170 273//173
f 154//175 427//436 422//432 273//173
f 418//428 419//427 422//432 427//436
f 429//437 428//438 418//428 427//436
f 154//175 158//178 429//437 427//436
f 274//180 430//439 429//437 158//178
f 411//421 431//440 275//182 276//181
f 270//150 408//417 411//421 276//181
f 433//441 432//442 278//185 277//184
f 162//189 434//443 433//441 277//184
f 436//444 435//445 433//441 434//443
f 438//446 437//447 436//444 434//443
f 162//189 170//194 438//446 434//443
f 172//196 439//448 438//446 170//194
f 441//449 440//450 173//198 174//197
f 161//202 442//451 441//449 174//197
f 161//202 275//182 431//440 442//451
f 444//452 443//453 441//449 442//451
f 431//440 414//424 444//452 442//451
f 446//454 445//455 443//453 444//452
f 414//424 415//423 446//454 444//452
f 448//456 447//457 445//455 446//454
f 415//423 416//426 448//456 446//454
f 428//438 449//458 447//457 448//456
f 416//426 418//428 428//438 448//456
f 451//459 450//460 447//457 449//458
f 430//439 452//461 451//459 449//458
f 428//438 429//437 430//439 449//458
f 454//462 453//463 451//459 452//461
f 280//216 279//215 454//462 452//461
f 430//439 274//180 280//216 452//461
f 432//442 455//464 453//463 454//462
f 279//215 278//185 432//442 454//462
f 457//465 456//466 453//463 455//464
f 435//445 458//467 457//465 455//464
f 432//442 433//441 435//445 455//464
f 460//468 459//469 457//469 458//468
f 462//470 461//470 460//468 458//468
f 435//445 436//444 462//471 458//467
f 464//472 463//473 461//470 462//470
f 436//444 437//447 464//474 462//471
f 466//475 465//476 463//473 464//472
f 437//447 467//477 466//475 464//474
f 469//478 468//479 466//475 467//477
f 439//448 470//480 469//478 467//477
f 437//447 438//446 439//448 467//477
f 472//481 471//482 469//478 470//480
f 208//237 281//236 472//481 470//480
f 439//448 172//196 208//237 470//480
f 474//483 473//484 282//239 283//238
f 284//243 475//485 474//483 283//238
f 284//243 173//198 440//450 475//485
f 477//486 476//487 474//483 475//485
f 440//450 478//488 477//486 475//485
f 440//450 441//449 443//453 478//488
f 480//489 479//490 477//486 478//488
f 443//453 445//455 480//489 478//488
f 450//460 456//491 479//491 480//489
f 445//455 447//457 450//460 480//489
f 459//492 476//487 477//486 479//490
f 456//491 457//469 459//469 479//491
f 481//493 473//484 474//483 476//487
f 459//492 460//494 481//493 476//487
f 483//495 482//496 473//484 481//493
f 460//494 461//497 483//495 481//493
f 485//498 484//499 482//496 483//495
f 461//497 463//473 485//498 483//495
f 487//500 486//501 484//499 485//498
f 463//473 465//476 487//500 485//498
f 489//502 488//503 486//501 487//500
f 465//476 490//504 489//502 487//500
f 492//505 491//506 489//502 490//504
f 468//479 493//507 492//505 490//504
f 465//476 466//475 468//479 490//504
f 495//508 494//509 492//505 493//507
f 471//482 496//510 495//508 493//507
f 468//479 469//478 471//482 493//507
f 498//511 497//512 495//508 496//510
f 500//513 499//514 498//511 496//510
f 471//482 472//481 500//513 496//510
f 286//274 285//273 499//514 500//513
f 472//481 281//236 286//274 500//513
f 484//499 486//501 238//276 239//275
f 209//277 482//496 484//499 239//275
f 486//501 488//503 287//278 238//276
f 488//503 501//515 288//279 287//278
f 502//516 289//281 288//279 501//515
f 491//506 503//517 502//516 501//515
f 488//503 489//502 491//506 501//515
f 505//518 504//519 502//516 503//517
f 494//509 506//520 505//518 503//517
f 491//506 492//505 494//509 503//517
f 508//521 507//522 505//518 506//520
f 497//512 509//523 508//521 506//520
f 494//509 495//508 497//512 506//520
f 310//314 317//320 508//521 509//523
f 510//524 309//309 310//314 509//523
f 497//512 498//511 510//524 509//523
f 511//525 308//310 309//309 510//524
f 498//511 499//514 511//525 510//524
f 291//293 290//292 308//310 511//525
f 499//514 285//273 291//293 511//525
f 504//519 512//526 292//295 293//294
f 289//281 502//516 504//519 293//294
f 314//317 294//297 292//295 512//526
f 507//522 313//318 314//317 512//526
f 504//519 505//518 507//522 512//526
f 314//317 315//316 252//298 294//297
f 315//316 318//322 253//299 252//298
f 318//322 312//315 254//300 253//299
f 312//315 307//311 255//301 254//300
f 307//311 308//310 290//292 255//301
f 317//320 313//318 507//522 508//521
f 209//277 282//239 473//484 482//496
f 450//460 451//459 453//463 456//466
f 411//421 412//420 414//424 431//440
f 322//329 395//402 396//405 426//434
f 421//430 298//326 322//329 426//434
f 396//405 398//408 425//435 426//434
f 120//136 401//410 403//413 127//143
f 322//329 323//328 394//403 395//402
f 302//303 303//302 331//339 332//338
f 316//321 311//313 312//315 318//322
f 310//314 311//313 316//321 317//320
