# pilowlava3D glyph '8' variant 1 — Vincent Wagner / Velvetyne, Free Art License
v 2.45518 2.34992 -0.31476
v 1.85450 2.32603 -0.36823
v 2.23125 2.31383 -0.36286
v 2.27476 2.45157 -0.31516
v 2.50273 2.59487 -0.29830
v 2.56316 2.51913 -0.29443
v 2.52518 2.33931 -0.19238
v 2.60979 2.21176 -0.20318
v 2.53615 2.19405 -0.32798
v 2.59859 2.47417 -0.18299
v 1.95805 2.17183 -0.32313
v 1.70689 2.05424 -0.33107
v 1.65048 2.13857 -0.33378
v 1.67628 2.54918 -0.34023
v 1.74867 2.61026 -0.33602
v 1.96491 2.44855 -0.31509
v 2.25606 2.19180 -0.31490
v 1.60253 2.19617 -0.20734
v 1.68534 2.33920 -0.20121
v 1.61637 2.50431 -0.21098
v 2.50443 2.06657 -0.33713
v 2.79308 2.07583 -0.36858
v 2.75154 1.96199 -0.36741
v 2.72415 1.88395 -0.22380
v 2.48821 2.01398 -0.20604
v 2.24568 2.12168 -0.19618
v 1.98092 2.12247 -0.19627
v 2.48135 1.99188 0.00000
v 1.74945 1.97970 0.00000
v 1.73794 2.00076 -0.20288
v 1.51894 1.82495 0.00000
v 1.27804 1.73590 -0.24865
v 1.50387 1.86139 -0.22041
v 1.23039 1.85123 -0.41315
v 1.47302 1.94202 -0.36404
v 1.17506 1.98701 -0.41421
v 1.42799 2.05419 -0.37155
v 1.12632 2.09207 -0.25135
v 1.38683 2.13398 -0.22996
v 1.36482 2.17886 0.00000
v 1.57861 2.22159 0.00000
v 1.65537 2.34196 0.00000
v 1.36029 2.56746 0.00000
v 1.39889 2.61481 -0.23884
v 1.14456 2.71573 -0.26514
v 1.25060 2.83997 -0.43750
v 1.47892 2.69834 -0.38446
v 1.38902 2.97564 -0.44059
v 1.57197 2.79448 -0.38569
v 1.52030 3.07670 -0.26821
v 1.65153 2.86906 -0.23437
v 1.79395 2.65382 -0.20748
v 1.99058 2.49084 -0.19234
v 1.81240 2.67157 0.00000
v 1.99678 2.50920 0.00000
v 2.23965 2.52126 0.00000
v 2.24594 2.50471 -0.18481
v 2.46026 2.65042 0.00000
v 2.68773 2.78050 -0.17765
v 2.46998 2.63675 -0.17609
v 2.71415 2.73149 -0.30370
v 2.93419 2.85820 -0.33036
v 2.99798 2.75464 -0.33046
v 2.76988 2.63606 -0.31032
v 2.90022 2.91879 -0.19784
v 3.10564 3.05298 -0.21944
v 3.15800 2.98235 -0.35303
v 3.08244 3.08132 0.00000
v 3.23815 3.21498 0.00000
v 3.27326 3.19097 -0.23499
v 3.29358 3.32782 0.00000
v 3.27574 3.41418 0.00000
v 3.32936 3.44102 -0.25156
v 3.34057 3.32990 -0.24603
v 3.54568 3.52665 -0.44810
v 3.53871 3.31171 -0.43126
v 3.37178 3.11749 -0.37650
v 3.72831 3.25832 -0.43688
v 3.48072 3.03561 -0.38738
v 3.23042 2.88062 -0.35057
v 3.57798 2.97785 -0.24060
v 3.28739 2.82289 -0.21745
v 3.04090 2.69786 -0.19924
v 3.31702 2.79381 0.00000
v 3.06190 2.67237 0.00000
v 2.80749 2.57992 -0.18663
v 2.54763 2.33705 0.00000
v 2.63377 2.23015 0.00000
v 2.84795 2.20360 0.00000
v 2.82985 2.15944 -0.22449
v 3.09861 2.13265 -0.24663
v 3.05000 2.02150 -0.41568
v 3.38065 2.10591 -0.26264
v 3.32035 1.95950 -0.44549
v 3.24024 1.78491 -0.44770
v 2.99674 1.88170 -0.41458
v 3.15244 1.63704 -0.25834
v 2.94926 1.76206 -0.24658
v 2.70503 1.84403 0.00000
v 3.40517 2.16514 0.00000
v 3.63293 1.19926 0.00000
v 3.78261 1.07144 0.00000
v 3.50931 1.38589 -0.25843
v 3.67304 1.24765 -0.25526
v 3.81767 1.09154 -0.23042
v 3.79989 1.34683 -0.42556
v 3.91418 1.13116 -0.38104
v 3.94428 0.92334 -0.35494
v 3.86605 0.93817 -0.21587
v 3.83661 0.94276 0.00000
v 3.79044 0.81249 -0.22125
v 3.76869 0.83658 0.00000
v 4.11617 1.54437 0.00000
v 3.97776 1.85357 0.00000
v 3.71867 2.07508 0.00000
v 3.93172 1.80810 -0.27369
v 3.68182 2.01891 -0.27673
v 3.79744 1.67963 -0.45276
v 3.58037 1.86129 -0.45659
v 3.64006 1.52817 -0.45278
v 3.45248 1.66705 -0.45897
v 3.33722 1.51251 -0.25968
v 3.94358 1.43597 -0.42555
v 4.06787 1.51730 -0.25149
v 4.12726 1.20870 -0.23285
v 4.03549 1.17591 -0.38250
v 4.12613 0.89583 -0.22855
v 4.04829 0.90683 -0.36173
v 4.01049 0.60404 -0.23442
v 3.94407 0.66456 -0.36914
v 3.85672 0.74700 -0.36752
v 3.73400 0.48986 -0.40322
v 3.67178 0.62011 -0.40340
v 3.61781 0.74442 -0.24282
v 3.43081 0.55953 -0.43571
v 3.39295 0.71901 -0.25908
v 3.38446 0.78950 0.00000
v 3.60329 0.79616 0.00000
v 4.15684 0.88993 0.00000
v 4.16843 1.21834 0.00000
v 3.78829 0.38325 -0.24890
v 3.53136 0.19014 0.00000
v 3.51427 0.24820 -0.26107
v 3.47643 0.38781 -0.43475
v 3.23914 0.16958 -0.26730
v 3.21407 0.32900 -0.45480
v 3.18221 0.52968 -0.45735
v 2.95083 0.29209 -0.46883
v 2.92944 0.50971 -0.47134
v 2.90917 0.69698 -0.26989
v 3.15360 0.70648 -0.26371
v 3.25296 0.09928 0.00000
v 2.96611 0.12213 -0.27015
v 2.70096 0.01518 0.00000
v 2.69550 0.09572 -0.27150
v 2.68633 0.27188 -0.47664
v 2.42583 0.08009 -0.27413
v 2.42250 0.25921 -0.48034
v 2.41700 0.49215 -0.48032
v 2.67297 0.49917 -0.47914
v 2.41234 0.68666 -0.27263
v 2.66169 0.69074 -0.27233
v 2.41290 0.77418 0.00000
v 2.66018 0.77641 0.00000
v 2.42749 0.00000 0.00000
v 2.15507 0.00623 0.00000
v 2.15668 0.08616 -0.27243
v 1.88806 0.02202 0.00000
v 1.16420 0.77020 0.00000
v 0.92567 0.77413 0.00000
v 1.40446 0.68823 -0.26842
v 1.15650 0.69517 -0.26634
v 0.91396 0.70635 -0.26465
v 1.13444 0.52084 -0.45882
v 0.88010 0.54468 -0.44263
v 0.63225 0.59119 -0.41535
v 0.68549 0.72732 -0.25219
v 0.70173 0.78061 0.00000
v 0.51026 0.78810 -0.23335
v 0.53325 0.81368 0.00000
v 1.07648 0.11278 0.00000
v 1.34834 0.06601 0.00000
v 1.62056 0.03637 0.00000
v 1.35788 0.13852 -0.27030
v 1.62708 0.11253 -0.27142
v 1.89196 0.10138 -0.27025
v 1.63539 0.28121 -0.47103
v 1.89745 0.27347 -0.47589
v 2.15892 0.26182 -0.47912
v 1.90363 0.49481 -0.47737
v 2.16207 0.49144 -0.47863
v 1.90800 0.68678 -0.27127
v 2.16173 0.68619 -0.27220
v 1.65476 0.68601 -0.26993
v 1.64515 0.49623 -0.47275
v 1.39024 0.50441 -0.46668
v 1.37208 0.29908 -0.46401
v 1.10857 0.33261 -0.45500
v 1.08838 0.18274 -0.26699
v 0.81402 0.24026 -0.26226
v 0.84306 0.37847 -0.43823
v 0.52711 0.34182 -0.25272
v 0.57647 0.45490 -0.41311
v 0.26355 0.53237 -0.24200
v 0.33760 0.60854 -0.38459
v 0.42984 0.70589 -0.38523
v 0.18729 0.84691 -0.37757
v 0.31367 0.88331 -0.37846
v 0.42205 0.91098 -0.22783
v 0.30200 1.10684 -0.40351
v 0.43393 1.07511 -0.23667
v 0.45473 0.91484 0.00000
v 0.50426 0.29454 0.00000
v 0.08916 0.82353 -0.23989
v 0.00000 1.17758 0.00000
v 0.04796 1.16703 -0.24799
v 0.15818 1.14035 -0.40419
v 0.10176 1.50948 -0.26317
v 0.23813 1.43461 -0.43771
v 0.40088 1.33329 -0.44106
v 0.39748 1.68361 -0.45997
v 0.56618 1.50927 -0.45963
v 0.70421 1.36480 -0.27360
v 0.54475 1.23386 -0.25901
v 0.76032 1.29963 0.00000
v 0.60214 1.18566 0.00000
v 0.04720 1.53820 0.00000
v 0.25978 1.82123 -0.28360
v 0.51153 2.06717 0.00000
v 0.54626 2.00299 -0.27694
v 0.64095 1.83982 -0.45976
v 0.85096 2.05366 -0.26194
v 0.91026 1.91759 -0.44569
v 0.98480 1.75354 -0.45008
v 0.75819 1.64264 -0.46522
v 1.06689 1.60802 -0.26526
v 0.87741 1.48259 -0.27087
v 0.92946 1.41967 0.00000
v 3.02936 3.59056 0.00000
v 3.18851 3.50022 0.00000
v 3.07875 3.64525 -0.26674
v 3.24052 3.54416 -0.26083
v 3.21420 3.81054 -0.44840
v 3.42283 3.68941 -0.44353
v 3.36275 4.03554 -0.43439
v 3.65237 3.88061 -0.44170
v 3.82116 3.59574 -0.46665
v 3.82396 4.01291 -0.27815
v 4.03024 3.62211 -0.29333
v 3.89470 3.19359 -0.28037
v 4.10946 3.62999 0.00000
v 3.96654 3.16474 0.00000
v 3.50669 4.26239 0.00000
v 2.63833 3.78302 0.00000
v 2.84196 3.68212 0.00000
v 2.66811 3.84173 -0.25421
v 2.88274 3.74205 -0.26396
v 2.73031 3.98291 -0.42465
v 2.97162 3.89992 -0.44188
v 2.80676 4.18720 -0.41816
v 3.07074 4.11906 -0.43131
v 2.85273 4.34155 -0.24216
v 3.13829 4.28477 -0.24812
v 3.46534 4.19918 -0.25488
v 2.59484 4.44590 0.00000
v 2.20145 3.98890 0.00000
v 2.42053 3.88637 0.00000
v 2.21695 4.03598 -0.23058
v 2.44477 3.94069 -0.24448
v 2.24565 4.14503 -0.38435
v 2.49178 4.06571 -0.40656
v 2.28948 4.29981 -0.38591
v 2.54885 4.24722 -0.40525
v 2.32015 4.41701 -0.22910
v 2.58243 4.38737 -0.23795
v 2.32738 4.46784 0.00000
v 2.07060 4.48365 0.00000
v 2.05883 4.44428 -0.20873
v 1.79505 4.46776 -0.17641
v 1.80324 4.49223 0.00000
v 2.03000 4.35277 -0.35794
v 1.77561 4.40365 -0.31192
v 1.51700 4.42094 -0.27219
v 1.51826 4.46567 -0.15384
v 1.99819 4.21664 -0.35310
v 1.75522 4.28521 -0.31135
v 1.51898 4.32594 -0.27219
v 1.29942 4.29773 -0.28067
v 1.26262 4.38146 -0.28250
v 1.75508 4.21907 -0.17380
v 1.52206 4.27823 -0.15464
v 1.31708 4.25115 -0.17005
v 1.18256 4.13135 -0.20744
v 1.10973 4.18793 -0.34431
v 1.21034 4.12238 0.00000
v 1.20437 3.96556 0.00000
v 1.13395 3.96081 -0.26068
v 1.26079 3.80495 0.00000
v 1.32654 3.65631 0.00000
v 1.20937 3.61883 -0.30823
v 1.15310 3.78703 -0.29677
v 0.93338 3.53970 -0.51619
v 0.90417 3.76511 -0.49958
v 0.94851 3.99365 -0.42846
v 0.58484 3.77179 -0.48510
v 0.74137 4.06774 -0.41682
v 1.00310 4.26903 -0.34258
v 0.58737 4.13264 -0.25249
v 0.91523 4.32525 -0.19590
v 1.23120 4.42374 -0.16012
v 1.98606 4.13090 -0.20517
v 1.40481 3.48818 0.00000
v 1.39816 3.27208 -0.28865
v 1.29255 3.45111 -0.30203
v 1.20169 3.15942 -0.48602
v 1.03613 3.34533 -0.50762
v 0.99856 2.98594 -0.47675
v 0.75109 3.16854 -0.50258
v 0.58964 3.44290 -0.51303
v 0.55254 3.01404 -0.30459
v 0.32218 3.35779 -0.32596
v 0.34621 3.78824 -0.29727
v 0.23167 3.32993 0.00000
v 0.26682 3.79191 0.00000
v 0.53467 4.15087 0.00000
v 0.80690 2.76208 0.00000
v 0.85930 2.83094 -0.28254
v 2.24148 2.09764 0.00000
v 1.98479 2.10117 0.00000
v 1.30481 1.68206 0.00000
v 1.10456 2.15302 0.00000
v 1.58537 2.47957 0.00000
v 1.10254 2.65094 0.00000
v 1.69203 2.89877 0.00000
v 2.67818 2.80067 0.00000
v 2.88681 2.94553 0.00000
v 2.82222 2.55692 0.00000
v 2.61598 2.45840 0.00000
v 3.11663 2.18814 0.00000
v 3.10524 1.57776 0.00000
v 2.91662 1.70643 0.00000
v 3.46265 1.32785 0.00000
v 3.28833 1.45169 0.00000
v 4.03525 0.58107 0.00000
v 3.80867 0.34212 0.00000
v 2.90527 0.77957 0.00000
v 3.14715 0.78299 0.00000
v 2.97494 0.04501 0.00000
v 1.40859 0.77007 0.00000
v 1.91006 0.77300 0.00000
v 2.16290 0.77350 0.00000
v 1.65766 0.77184 0.00000
v 0.47902 1.05852 0.00000
v 0.79786 0.17669 0.00000
v 0.23322 0.50286 0.00000
v 0.04891 0.81430 0.00000
v 0.21143 1.87047 0.00000
v 1.11245 1.54960 0.00000
v 0.82779 2.12408 0.00000
v 3.62185 2.94909 0.00000
v 3.89062 4.05729 0.00000
v 3.16587 4.35583 0.00000
v 2.86916 4.40947 0.00000
v 1.52216 4.26480 0.00000
v 1.32513 4.24178 0.00000
v 0.88428 4.34450 0.00000
v 1.21759 4.44016 0.00000
v 1.51862 4.48259 0.00000
v 1.75661 4.19543 0.00000
v 1.98000 4.09523 0.00000
v 1.49098 3.30739 0.00000
v 0.48155 2.95769 0.00000
v 1.58624 3.11433 0.00000
v 2.45518 2.34992 0.31476
v 1.85450 2.32603 0.36823
v 2.23125 2.31383 0.36286
v 2.27476 2.45157 0.31516
v 2.50273 2.59487 0.29830
v 2.56316 2.51913 0.29443
v 2.52518 2.33931 0.19238
v 2.60979 2.21176 0.20318
v 2.53615 2.19405 0.32798
v 2.59859 2.47417 0.18299
v 1.95805 2.17183 0.32313
v 1.70689 2.05424 0.33107
v 1.65048 2.13857 0.33378
v 1.67628 2.54918 0.34023
v 1.74867 2.61026 0.33602
v 1.96491 2.44855 0.31509
v 2.25606 2.19180 0.31490
v 1.60253 2.19617 0.20734
v 1.68534 2.33920 0.20121
v 1.61637 2.50431 0.21098
v 2.50443 2.06657 0.33713
v 2.79308 2.07583 0.36858
v 2.75154 1.96199 0.36741
v 2.72415 1.88395 0.22380
v 2.48821 2.01398 0.20604
v 2.24568 2.12168 0.19618
v 1.98092 2.12247 0.19627
v 1.73794 2.00076 0.20288
v 1.27804 1.73590 0.24865
v 1.50387 1.86139 0.22041
v 1.23039 1.85123 0.41315
v 1.47302 1.94202 0.36404
v 1.17506 1.98701 0.41421
v 1.42799 2.05419 0.37155
v 1.12632 2.09207 0.25135
v 1.38683 2.13398 0.22996
v 1.39889 2.61481 0.23884
v 1.14456 2.71573 0.26514
v 1.25060 2.83997 0.43750
v 1.47892 2.69834 0.38446
v 1.38902 2.97564 0.44059
v 1.57197 2.79448 0.38569
v 1.52030 3.07670 0.26821
v 1.65153 2.86906 0.23437
v 1.79395 2.65382 0.20748
v 1.99058 2.49084 0.19234
v 2.24594 2.50471 0.18481
v 2.68773 2.78050 0.17765
v 2.46998 2.63675 0.17609
v 2.71415 2.73149 0.30370
v 2.93419 2.85820 0.33036
v 2.99798 2.75464 0.33046
v 2.76988 2.63606 0.31032
v 2.90022 2.91879 0.19784
v 3.10564 3.05298 0.21944
v 3.15800 2.98235 0.35303
v 3.27326 3.19097 0.23499
v 3.32936 3.44102 0.25156
v 3.34057 3.32990 0.24603
v 3.54568 3.52665 0.44810
v 3.53871 3.31171 0.43126
v 3.37178 3.11749 0.37650
v 3.72831 3.25832 0.43688
v 3.48072 3.03561 0.38738
v 3.23042 2.88062 0.35057
v 3.57798 2.97785 0.24060
v 3.28739 2.82289 0.21745
v 3.04090 2.69786 0.19924
v 2.80749 2.57992 0.18663
v 2.82985 2.15944 0.22449
v 3.09861 2.13265 0.24663
v 3.05000 2.02150 0.41568
v 3.38065 2.10591 0.26264
v 3.32035 1.95950 0.44549
v 3.24024 1.78491 0.44770
v 2.99674 1.88170 0.41458
v 3.15244 1.63704 0.25834
v 2.94926 1.76206 0.24658
v 3.50931 1.38589 0.25843
v 3.67304 1.24765 0.25526
v 3.81767 1.09154 0.23042
v 3.79989 1.34683 0.42556
v 3.91418 1.13116 0.38104
v 3.94428 0.92334 0.35494
v 3.86605 0.93817 0.21587
v 3.79044 0.81249 0.22125
v 3.93172 1.80810 0.27369
v 3.68182 2.01891 0.27673
v 3.79744 1.67963 0.45276
v 3.58037 1.86129 0.45659
v 3.64006 1.52817 0.45278
v 3.45248 1.66705 0.45897
v 3.33722 1.51251 0.25968
v 3.94358 1.43597 0.42555
v 4.06787 1.51730 0.25149
v 4.12726 1.20870 0.23285
v 4.03549 1.17591 0.38250
v 4.12613 0.89583 0.22855
v 4.04829 0.90683 0.36173
v 4.01049 0.60404 0.23442
v 3.94407 0.66456 0.36914
v 3.85672 0.74700 0.36752
v 3.73400 0.48986 0.40322
v 3.67178 0.62011 0.40340
v 3.61781 0.74442 0.24282
v 3.43081 0.55953 0.43571
v 3.39295 0.71901 0.25908
v 3.78829 0.38325 0.24890
v 3.51427 0.24820 0.26107
v 3.47643 0.38781 0.43475
v 3.23914 0.16958 0.26730
v 3.21407 0.32900 0.45480
v 3.18221 0.52968 0.45735
v 2.95083 0.29209 0.46883
v 2.92944 0.50971 0.47134
v 2.90917 0.69698 0.26989
v 3.15360 0.70648 0.26371
v 2.96611 0.12213 0.27015
v 2.69550 0.09572 0.27150
v 2.68633 0.27188 0.47664
v 2.42583 0.08009 0.27413
v 2.42250 0.25921 0.48034
v 2.41700 0.49215 0.48032
v 2.67297 0.49917 0.47914
v 2.41234 0.68666 0.27263
v 2.66169 0.69074 0.27233
v 2.15668 0.08616 0.27243
v 1.40446 0.68823 0.26842
v 1.15650 0.69517 0.26634
v 0.91396 0.70635 0.26465
v 1.13444 0.52084 0.45882
v 0.88010 0.54468 0.44263
v 0.63225 0.59119 0.41535
v 0.68549 0.72732 0.25219
v 0.51026 0.78810 0.23335
v 1.35788 0.13852 0.27030
v 1.62708 0.11253 0.27142
v 1.89196 0.10138 0.27025
v 1.63539 0.28121 0.47103
v 1.89745 0.27347 0.47589
v 2.15892 0.26182 0.47912
v 1.90363 0.49481 0.47737
v 2.16207 0.49144 0.47863
v 1.90800 0.68678 0.27127
v 2.16173 0.68619 0.27220
v 1.65476 0.68601 0.26993
v 1.64515 0.49623 0.47275
v 1.39024 0.50441 0.46668
v 1.37208 0.29908 0.46401
v 1.10857 0.33261 0.45500
v 1.08838 0.18274 0.26699
v 0.81402 0.24026 0.26226
v 0.84306 0.37847 0.43823
v 0.52711 0.34182 0.25272
v 0.57647 0.45490 0.41311
v 0.26355 0.53237 0.24200
v 0.33760 0.60854 0.38459
v 0.42984 0.70589 0.38523
v 0.18729 0.84691 0.37757
v 0.31367 0.88331 0.37846
v 0.42205 0.91098 0.22783
v 0.30200 1.10684 0.40351
v 0.43393 1.07511 0.23667
v 0.08916 0.82353 0.23989
v 0.04796 1.16703 0.24799
v 0.15818 1.14035 0.40419
v 0.10176 1.50948 0.26317
v 0.23813 1.43461 0.43771
v 0.40088 1.33329 0.44106
v 0.39748 1.68361 0.45997
v 0.56618 1.50927 0.45963
v 0.70421 1.36480 0.27360
v 0.54475 1.23386 0.25901
v 0.25978 1.82123 0.28360
v 0.54626 2.00299 0.27694
v 0.64095 1.83982 0.45976
v 0.85096 2.05366 0.26194
v 0.91026 1.91759 0.44569
v 0.98480 1.75354 0.45008
v 0.75819 1.64264 0.46522
v 1.06689 1.60802 0.26526
v 0.87741 1.48259 0.27087
v 3.07875 3.64525 0.26674
v 3.24052 3.54416 0.26083
v 3.21420 3.81054 0.44840
v 3.42283 3.68941 0.44353
v 3.36275 4.03554 0.43439
v 3.65237 3.88061 0.44170
v 3.82116 3.59574 0.46665
v 3.82396 4.01291 0.27815
v 4.03024 3.62211 0.29333
v 3.89470 3.19359 0.28037
v 2.66811 3.84173 0.25421
v 2.88274 3.74205 0.26396
v 2.73031 3.98291 0.42465
v 2.97162 3.89992 0.44188
v 2.80676 4.18720 0.41816
v 3.07074 4.11906 0.43131
v 2.85273 4.34155 0.24216
v 3.13829 4.28477 0.24812
v 3.46534 4.19918 0.25488
v 2.21695 4.03598 0.23058
v 2.44477 3.94069 0.24448
v 2.24565 4.14503 0.38435
v 2.49178 4.06571 0.40656
v 2.28948 4.29981 0.38591
v 2.54885 4.24722 0.40525
v 2.32015 4.41701 0.22910
v 2.58243 4.38737 0.23795
v 2.05883 4.44428 0.20873
v 1.79505 4.46776 0.17641
v 2.03000 4.35277 0.35794
v 1.77561 4.40365 0.31192
v 1.51700 4.42094 0.27219
v 1.51826 4.46567 0.15384
v 1.99819 4.21664 0.35310
v 1.75522 4.28521 0.31135
v 1.51898 4.32594 0.27219
v 1.29942 4.29773 0.28067
v 1.26262 4.38146 0.28250
v 1.75508 4.21907 0.17380
v 1.52206 4.27823 0.15464
v 1.31708 4.25115 0.17005
v 1.18256 4.13135 0.20744
v 1.10973 4.18793 0.34431
v 1.13395 3.96081 0.26068
v 1.20937 3.61883 0.30823
v 1.15310 3.78703 0.29677
v 0.93338 3.53970 0.51619
v 0.90417 3.76511 0.49958
v 0.94851 3.99365 0.42846
v 0.58484 3.77179 0.48510
v 0.74137 4.06774 0.41682
v 1.00310 4.26903 0.34258
v 0.58737 4.13264 0.25249
v 0.91523 4.32525 0.19590
v 1.23120 4.42374 0.16012
v 1.98606 4.13090 0.20517
v 1.39816 3.27208 0.28865
v 1.29255 3.45111 0.30203
v 1.20169 3.15942 0.48602
v 1.03613 3.34533 0.50762
v 0.99856 2.98594 0.47675
v 0.75109 3.16854 0.50258
v 0.58964 3.44290 0.51303
v 0.55254 3.01404 0.30459
v 0.32218 3.35779 0.32596
v 0.34621 3.78824 0.29727
v 0.85930 2.83094 0.28254
vn 0.11584 0.13734 -0.98373
vn 0.08130 0.21108 -0.97408
vn 0.00946 0.01360 -0.99986
vn 0.75143 0.47967 -0.45307
vn 0.78765 0.54423 -0.28883
vn 0.53195 0.78706 -0.31235
vn 0.52884 0.70904 -0.46646
vn 0.78768 -0.42139 -0.44943
vn 0.61713 -0.62833 -0.47366
vn 0.66178 -0.68375 -0.30747
vn 0.84197 -0.45680 -0.28708
vn 0.05513 0.00700 -0.99845
vn 0.03779 -0.22318 -0.97404
vn 0.09620 -0.04963 -0.99412
vn 0.13362 -0.00276 -0.99103
vn 0.06955 0.23775 -0.96883
vn 0.04242 0.02977 -0.99866
vn -0.00891 -0.23419 -0.97215
vn -0.66753 0.48773 -0.56261
vn -0.45889 0.69456 -0.55408
vn -0.52813 0.76156 -0.37564
vn -0.77572 0.51512 -0.36458
vn -0.72429 -0.40208 -0.56012
vn -0.83022 -0.42117 -0.36517
vn -0.64045 -0.66250 -0.38848
vn -0.57126 -0.59485 -0.56552
vn 0.00479 0.04906 -0.99878
vn -0.07817 -0.04160 -0.99607
vn -0.14038 0.06034 -0.98826
vn -0.41617 -0.79629 -0.43901
vn -0.41481 -0.76308 -0.49561
vn -0.46976 -0.81215 -0.34604
vn -0.44385 -0.84784 -0.29010
vn -0.20393 -0.93534 -0.28906
vn -0.19102 -0.87099 -0.45264
vn 0.22977 -0.93179 -0.28102
vn 0.22493 -0.87124 -0.43629
vn -0.46504 -0.88529 -0.00007
vn -0.21192 -0.97729 0.00007
vn 0.22970 -0.97326 0.00010
vn 0.49708 -0.86771 0.00016
vn 0.46812 -0.83481 -0.28974
vn 0.53464 -0.84508 0.00019
vn 0.54031 -0.84146 -0.00018
vn 0.47968 -0.76972 -0.42122
vn 0.49191 -0.79715 -0.35009
vn 0.41247 -0.68790 -0.59722
vn 0.44063 -0.73588 -0.51412
vn 0.43089 -0.78605 -0.44323
vn 0.15835 0.03051 -0.98691
vn 0.14305 0.04571 -0.98866
vn -0.16166 0.83973 -0.51838
vn -0.11211 0.81857 -0.56336
vn -0.11544 0.90582 -0.40764
vn -0.16853 0.91595 -0.36419
vn -0.11787 0.99303 -0.00012
vn -0.17428 0.98470 0.00024
vn -0.22787 0.97369 0.00069
vn -0.85304 0.52185 -0.00101
vn -0.90586 -0.42357 0.00195
vn -0.39791 -0.91742 0.00055
vn -0.36281 -0.93186 0.00015
vn -0.34475 -0.84304 -0.41284
vn -0.34115 -0.94001 -0.00011
vn -0.30283 -0.82746 -0.47287
vn -0.26105 -0.70747 -0.65676
vn -0.32346 -0.74552 -0.58273
vn 0.13732 -0.13800 -0.98087
vn 0.11359 -0.14437 -0.98298
vn 0.69363 0.43525 -0.57397
vn 0.63003 0.37498 -0.68003
vn 0.76055 0.42815 -0.48812
vn 0.79007 0.46768 -0.39631
vn 0.72115 0.62246 -0.30411
vn 0.66098 0.59194 -0.46120
vn 0.31343 0.91366 -0.25883
vn 0.29779 0.86589 -0.40194
vn 0.87267 0.48831 -0.00032
vn 0.76836 0.64002 0.00005
vn 0.65203 0.75819 0.00029
vn -0.05055 0.99872 -0.00003
vn -0.28597 0.95824 -0.00002
vn -0.26923 0.93091 -0.24682
vn -0.53261 0.84636 -0.00005
vn -0.56104 0.82779 -0.00005
vn -0.53731 0.79805 -0.27278
vn -0.51219 0.81977 -0.25619
vn -0.50490 0.75591 -0.41676
vn -0.48187 0.77738 -0.40433
vn -0.24750 0.88615 -0.39176
vn -0.06775 -0.01982 -0.99751
vn -0.07883 -0.03719 -0.99619
vn -0.53369 0.78583 -0.31248
vn -0.49425 0.73133 -0.46998
vn -0.56131 0.74267 -0.36519
vn -0.49882 0.66825 -0.55193
vn -0.56343 0.82616 -0.00006
vn -0.60706 0.79466 -0.00001
vn -0.79200 0.61052 0.00031
vn -0.71066 0.55838 -0.42799
vn -0.98933 0.14570 0.00135
vn -0.89719 -0.44164 0.00064
vn -0.77018 -0.35564 -0.52947
vn -0.86239 0.14092 -0.48623
vn -0.33350 -0.14083 -0.93217
vn -0.40453 0.01146 -0.91445
vn -0.59118 0.47623 -0.65093
vn -0.11269 -0.08887 -0.98965
vn -0.08861 -0.10263 -0.99077
vn -0.08104 -0.05085 -0.99541
vn 0.37854 -0.77696 -0.50303
vn 0.40331 -0.71394 -0.57239
vn 0.45520 -0.79953 -0.39184
vn 0.41546 -0.84192 -0.34433
vn 0.40955 -0.85297 -0.32358
vn 0.37535 -0.79401 -0.47818
vn 0.44627 -0.89490 0.00006
vn 0.43762 -0.89916 0.00001
vn 0.43982 -0.89809 0.00005
vn 0.41812 -0.85416 -0.30916
vn 0.38857 -0.79381 -0.46785
vn 0.69087 -0.72298 -0.00012
vn 0.87656 -0.48130 -0.00040
vn 0.80436 0.59414 0.00174
vn 0.16991 0.98546 0.00148
vn 0.12011 0.99276 0.00070
vn 0.13826 0.93042 -0.33940
vn 0.07494 0.99719 -0.00004
vn 0.07262 0.91310 -0.40123
vn 0.06910 0.81902 -0.56959
vn 0.15576 0.85928 -0.48722
vn 0.16217 0.87921 -0.44798
vn 0.14347 0.75273 -0.64251
vn -0.13828 0.05087 -0.98909
vn -0.06992 0.03902 -0.99679
vn -0.39735 -0.69742 -0.59642
vn -0.39427 -0.63749 -0.66193
vn -0.47642 -0.73631 -0.48049
vn -0.46720 -0.77316 -0.42889
vn -0.55669 -0.83072 -0.00015
vn -0.53473 -0.84502 -0.00003
vn -0.52081 -0.85367 0.00003
vn -0.65397 -0.75652 -0.00075
vn -0.60412 -0.79689 0.00002
vn -0.52885 -0.68713 -0.49816
vn -0.59920 -0.65815 -0.45585
vn -0.78556 -0.48178 -0.38831
vn -0.83277 -0.55362 0.00019
vn -0.52653 -0.54276 -0.65435
vn -0.71313 -0.39623 -0.57832
vn -0.81933 -0.24090 -0.52026
vn -0.89149 -0.30074 -0.33882
vn -0.93657 -0.35048 0.00187
vn -0.84845 0.52928 0.00052
vn -0.80984 0.49136 -0.32051
vn -0.58997 0.71566 -0.37384
vn 0.47074 0.88227 -0.00002
vn 0.80014 0.59981 0.00004
vn 0.70220 0.52074 -0.48553
vn 0.41034 0.76850 -0.49096
vn 0.17684 0.98424 -0.00004
vn 0.57389 0.41934 -0.70342
vn 0.33349 0.62383 -0.70683
vn -0.00761 0.01073 -0.99991
vn 0.04122 -0.04517 -0.99813
vn -0.40662 -0.59758 -0.69106
vn -0.44375 -0.56479 -0.69577
vn -0.49274 -0.71139 -0.50113
vn -0.57453 -0.81848 0.00000
vn 0.06605 -0.11779 -0.99084
vn 0.74356 0.22521 -0.62960
vn 0.86424 0.26210 -0.42941
vn 0.92642 0.07358 -0.36922
vn 0.83198 0.07157 -0.55017
vn 0.01648 -0.13075 -0.99128
vn 0.92273 -0.18241 -0.33955
vn 0.83865 -0.16306 -0.51969
vn -0.02347 -0.02592 -0.99939
vn 0.78521 -0.50534 -0.35789
vn 0.70232 -0.45189 -0.55004
vn 0.04905 0.07326 -0.99611
vn 0.11260 0.06565 -0.99147
vn -0.55136 0.61655 -0.56202
vn -0.19224 0.75836 -0.62285
vn -0.18882 0.88467 -0.42626
vn -0.74838 0.43956 -0.49670
vn -0.04785 0.74745 -0.66259
vn -0.04968 0.88046 -0.47150
vn -0.04993 0.99875 -0.00023
vn -0.17977 0.98371 0.00074
vn -0.29289 0.95614 0.00197
vn 0.99728 0.07374 0.00011
vn 0.98047 -0.19669 0.00025
vn 0.95682 0.29067 -0.00013
vn 0.84076 -0.54141 -0.00017
vn 0.59953 -0.80035 -0.00001
vn 0.54819 -0.73279 -0.40312
vn 0.38213 -0.92411 0.00026
vn 0.34052 -0.83059 -0.44064
vn 0.29064 -0.71568 -0.63508
vn 0.47773 -0.63952 -0.60233
vn 0.21022 -0.86099 -0.46315
vn 0.17839 -0.74027 -0.64822
vn 0.09771 0.02367 -0.99493
vn 0.06735 0.00124 -0.99773
vn 0.04265 -0.00694 -0.99907
vn -0.02180 0.73598 -0.67665
vn -0.01330 0.73344 -0.67962
vn -0.01673 0.86697 -0.49808
vn -0.02596 0.87098 -0.49063
vn -0.02013 0.99980 -0.00001
vn -0.02994 0.99955 0.00000
vn 0.23958 -0.97088 0.00005
vn 0.14331 -0.98968 -0.00003
vn 0.12559 -0.87158 -0.47390
vn 0.08077 -0.99673 0.00001
vn 0.07154 -0.87547 -0.47795
vn 0.06235 -0.75506 -0.65269
vn 0.10750 -0.75090 -0.65161
vn 0.01663 -0.87805 -0.47829
vn 0.01597 -0.75723 -0.65296
vn 0.02002 -0.00692 -0.99978
vn 0.00197 -0.00195 -1.00000
vn -0.01232 0.73198 -0.68121
vn -0.00930 0.73002 -0.68336
vn -0.00845 0.86239 -0.50617
vn -0.01365 0.86427 -0.50284
vn -0.00754 0.99997 -0.00001
vn -0.01501 0.99989 0.00000
vn 0.01723 -0.99985 -0.00001
vn -0.04153 -0.99914 -0.00000
vn -0.03608 -0.87915 -0.47517
vn 0.02170 0.99976 -0.00001
vn 0.00649 0.99998 0.00005
vn 0.00968 0.86771 -0.49698
vn 0.02319 0.87345 -0.48635
vn 0.04102 0.88123 -0.47090
vn 0.04210 0.99911 0.00010
vn 0.02424 0.73723 -0.67520
vn 0.03911 0.74219 -0.66905
vn 0.15532 0.74580 -0.64781
vn 0.15863 0.88425 -0.43925
vn 0.15428 0.98803 -0.00079
vn 0.52877 0.74418 -0.40816
vn 0.55801 0.82983 -0.00141
vn -0.07504 -0.99718 0.00000
vn -0.13515 -0.99083 0.00002
vn -0.11746 -0.87980 -0.46061
vn -0.06366 -0.88150 -0.46787
vn -0.04597 -0.88045 -0.47191
vn -0.05329 -0.99858 -0.00002
vn -0.05227 -0.76377 -0.64336
vn -0.03878 -0.76384 -0.64424
vn -0.03073 -0.76092 -0.64812
vn -0.00711 -0.00052 -0.99997
vn -0.01346 -0.00439 -0.99990
vn -0.00094 0.72911 -0.68440
vn -0.00215 0.73033 -0.68309
vn -0.00234 0.86270 -0.50570
vn -0.00121 0.86190 -0.50707
vn -0.00252 1.00000 0.00000
vn -0.00148 1.00000 0.00000
vn -0.00172 0.86398 -0.50352
vn -0.00236 1.00000 0.00001
vn -0.00109 0.73133 -0.68202
vn 0.01271 0.73392 -0.67912
vn -0.02969 -0.01079 -0.99950
vn -0.02199 -0.00773 -0.99973
vn -0.04928 -0.01222 -0.99871
vn -0.14830 -0.76295 -0.62922
vn -0.09924 -0.76382 -0.63776
vn -0.17084 -0.87557 -0.45188
vn -0.25742 -0.86072 -0.43920
vn -0.22366 -0.75079 -0.62153
vn -0.08237 -0.00051 -0.99660
vn -0.43892 -0.79509 -0.41854
vn -0.38290 -0.69345 -0.61033
vn -0.10016 0.03339 -0.99441
vn -0.68335 -0.61235 -0.39758
vn -0.59914 -0.53569 -0.59504
vn -0.06052 0.03835 -0.99743
vn -0.00828 -0.04035 -0.99915
vn 0.47296 0.62529 -0.62074
vn 0.75938 0.21716 -0.61333
vn 0.88173 0.24310 -0.40429
vn 0.72645 -0.26144 -0.63554
vn 0.83460 -0.33626 -0.43632
vn 0.91640 -0.40026 0.00030
vn 0.99228 -0.12404 -0.00168
vn 0.79983 0.60023 -0.00081
vn -0.28753 -0.95777 0.00016
vn -0.48353 -0.87533 0.00038
vn -0.19203 -0.98139 -0.00003
vn -0.74423 -0.66792 0.00024
vn -0.94513 -0.32669 0.00015
vn -0.86920 -0.30515 -0.38908
vn -0.99999 0.00447 0.00022
vn -0.91444 0.00230 -0.40471
vn -0.80198 -0.00008 -0.59735
vn -0.76472 -0.27352 -0.58343
vn -0.85274 0.26189 -0.45194
vn -0.72026 0.22153 -0.65738
vn -0.02717 -0.10800 -0.99378
vn -0.05632 -0.08462 -0.99482
vn -0.03436 -0.02657 -0.99906
vn 0.53484 -0.50307 -0.67887
vn 0.41709 -0.56128 -0.71485
vn 0.50548 -0.68972 -0.51844
vn 0.61671 -0.62113 -0.48360
vn 0.58698 -0.80960 -0.00024
vn 0.68690 -0.72676 0.00092
vn -0.95608 0.29311 0.00015
vn -0.74630 0.66560 0.00020
vn -0.64450 0.57502 -0.50397
vn -0.35977 0.93304 0.00029
vn -0.30960 0.81247 -0.49401
vn -0.25085 0.66946 -0.69921
vn -0.51616 0.46075 -0.72200
vn -0.13183 0.88339 -0.44972
vn -0.12210 0.77125 -0.62471
vn 0.01318 0.02479 -0.99961
vn 0.07687 0.05327 -0.99562
vn 0.38715 -0.59157 -0.70722
vn 0.39188 -0.63569 -0.66508
vn 0.47817 -0.73713 -0.47749
vn 0.48167 -0.71117 -0.51209
vn 0.55930 -0.82896 -0.00022
vn 0.57036 -0.82140 0.00002
vn -0.14021 0.99012 0.00011
vn -0.62280 -0.78238 -0.00030
vn -0.47581 -0.87955 0.00010
vn -0.39729 -0.75429 -0.52269
vn -0.52985 -0.65781 -0.53529
vn -0.30091 -0.59409 -0.74599
vn -0.22298 -0.24701 -0.94301
vn 0.00533 0.03930 -0.99921
vn -0.01600 0.02744 -0.99950
vn -0.04666 -0.02218 -0.99866
vn 0.61199 0.06333 -0.78833
vn 0.41838 0.48334 -0.76898
vn 0.57187 0.60900 -0.54962
vn 0.82209 0.07789 -0.56401
vn 0.67780 -0.54418 -0.49442
vn 0.54310 -0.45940 -0.70285
vn 0.95356 -0.30121 -0.00047
vn 0.79200 -0.61052 -0.00036
vn 0.49742 -0.86751 -0.00007
vn 0.88509 0.46541 -0.00065
vn 0.70472 0.70948 -0.00069
vn -0.43999 -0.89800 -0.00009
vn -0.42952 -0.90306 -0.00003
vn -0.37272 -0.79685 -0.47550
vn -0.37216 -0.78033 -0.50258
vn -0.30765 -0.67250 -0.67313
vn -0.29317 -0.63824 -0.71183
vn -0.02172 0.05630 -0.99818
vn -0.04758 0.04739 -0.99774
vn 0.15818 0.70205 -0.69434
vn 0.13323 0.72793 -0.67258
vn 0.15029 0.86154 -0.48493
vn 0.19009 0.84325 -0.50279
vn 0.29894 0.79983 -0.52048
vn 0.23055 0.64502 -0.72856
vn 0.21989 0.97552 0.00017
vn 0.35995 0.93297 -0.00021
vn 0.16540 0.98623 0.00009
vn -0.41615 -0.90929 -0.00005
vn -0.41325 -0.91062 0.00004
vn -0.37253 -0.83779 -0.39916
vn -0.36804 -0.81686 -0.44417
vn -0.32488 -0.74985 -0.57635
vn -0.31295 -0.70822 -0.63283
vn -0.06424 0.02921 -0.99751
vn -0.09552 0.01405 -0.99533
vn 0.10693 0.75606 -0.64571
vn 0.07904 0.79653 -0.59941
vn 0.08237 0.90490 -0.41757
vn 0.11464 0.88192 -0.45724
vn 0.08381 0.99648 -0.00014
vn 0.12015 0.99276 -0.00001
vn 0.06332 0.93039 -0.36106
vn 0.06237 0.99805 -0.00009
vn 0.01445 0.95582 -0.29360
vn 0.01214 0.99993 -0.00008
vn 0.06366 0.84796 -0.52623
vn 0.01764 0.89929 -0.43699
vn -0.07477 0.92547 -0.37138
vn -0.07967 0.96593 -0.24624
vn -0.16398 0.01178 -0.98639
vn -0.14294 0.01075 -0.98967
vn -0.05903 0.00373 -0.99825
vn 0.12190 0.07433 -0.98976
vn -0.04846 -0.91628 -0.39761
vn -0.28922 -0.85922 -0.42202
vn -0.31191 -0.90880 -0.27711
vn -0.06100 -0.96693 -0.24765
vn 0.41984 -0.86522 -0.27409
vn 0.39280 -0.80454 -0.44545
vn 0.81941 -0.43437 -0.37402
vn 0.71376 -0.40852 -0.56891
vn -0.07256 -0.99736 -0.00006
vn 0.43601 -0.89994 -0.00061
vn 0.89440 -0.44726 0.00122
vn 0.99809 0.06170 0.00121
vn 0.86895 0.03456 -0.49369
vn 0.94964 0.31334 -0.00007
vn 0.85511 0.37377 -0.35928
vn 0.73763 0.30812 -0.60080
vn 0.78481 0.24428 -0.56957
vn 0.28906 0.12558 -0.94904
vn 0.31781 0.18522 -0.92989
vn 0.41126 0.14873 -0.89930
vn -0.31206 0.23250 -0.92117
vn -0.21717 0.46522 -0.85814
vn 0.15202 0.20995 -0.96582
vn -0.31169 0.80929 -0.49789
vn -0.57366 0.69539 -0.43283
vn -0.35240 0.87660 -0.32771
vn -0.20085 0.94535 -0.25687
vn -0.18825 0.90194 -0.38867
vn -0.38459 0.92309 0.00006
vn -0.21087 0.97751 0.00003
vn -0.08348 0.99651 -0.00011
vn -0.40367 -0.91490 -0.00002
vn -0.33093 -0.94365 -0.00008
vn -0.37404 -0.86423 -0.33645
vn -0.33872 -0.79962 -0.49586
vn 0.83814 0.41519 -0.35374
vn 0.88418 0.46714 0.00028
vn 0.72768 0.40387 -0.55442
vn 0.71605 0.36347 -0.59596
vn 0.56731 0.33756 -0.75114
vn 0.29580 0.11643 -0.94813
vn 0.06289 -0.11265 -0.99164
vn -0.12211 -0.39735 -0.90951
vn -0.20338 -0.28054 -0.93805
vn -0.29576 -0.06201 -0.95325
vn -0.55648 -0.61335 -0.56047
vn -0.78203 -0.20397 -0.58891
vn -0.78193 0.32103 -0.53435
vn -0.96616 -0.25793 -0.00015
vn -0.93663 0.35031 -0.00003
vn -0.65844 0.75263 -0.00005
vn -0.68294 -0.73047 -0.00001
vn 0.88055 0.47396 0.00019
vn -0.43238 -0.90169 0.00018
vn -0.36595 -0.77529 -0.51479
vn 0.01815 0.01877 0.99966
vn 0.07672 0.20340 0.97609
vn 0.10935 0.12192 0.98650
vn 0.52769 0.72275 0.44629
vn 0.53154 0.79111 0.30267
vn 0.78837 0.54450 0.28633
vn 0.75356 0.48355 0.44535
vn 0.84088 -0.45669 0.29043
vn 0.66090 -0.68382 0.30919
vn 0.61465 -0.62823 0.47700
vn 0.78396 -0.42085 0.45638
vn 0.08143 -0.06137 0.99479
vn 0.02119 -0.22881 0.97324
vn 0.04112 0.01456 0.99905
vn 0.05863 0.25789 0.96439
vn 0.12302 0.01534 0.99229
vn -0.02846 -0.25059 0.96767
vn 0.02449 0.01375 0.99961
vn -0.76271 0.52245 0.38120
vn -0.52027 0.76274 0.38411
vn -0.44058 0.69474 0.56853
vn -0.63429 0.49596 0.59304
vn -0.55133 -0.60414 0.57537
vn -0.63175 -0.66675 0.39538
vn -0.81922 -0.42824 0.38143
vn -0.69687 -0.41453 0.58527
vn -0.09551 -0.06318 0.99342
vn -0.01654 0.02239 0.99961
vn -0.14012 0.05937 0.98835
vn -0.44609 -0.84697 0.28922
vn -0.46837 -0.81284 0.34630
vn -0.41197 -0.76437 0.49601
vn -0.41932 -0.79550 0.43745
vn -0.19199 -0.87370 0.44697
vn -0.20427 -0.93618 0.28607
vn 0.22490 -0.87344 0.43188
vn 0.22962 -0.93251 0.27874
vn 0.46948 -0.83387 0.29025
vn 0.49058 -0.79763 0.35088
vn 0.47911 -0.77048 0.42050
vn 0.43868 -0.73626 0.51524
vn 0.41240 -0.68881 0.59621
vn 0.43275 -0.78465 0.44390
vn 0.15651 0.02802 0.98728
vn 0.14292 0.04543 0.98869
vn -0.16859 0.91566 0.36488
vn -0.11497 0.90593 0.40751
vn -0.11244 0.81854 0.56334
vn -0.16103 0.83934 0.51921
vn -0.34482 -0.84326 0.41234
vn -0.30321 -0.82708 0.47328
vn -0.32245 -0.74690 0.58152
vn -0.26282 -0.70603 0.65761
vn 0.13720 -0.13714 0.98100
vn 0.11258 -0.14375 0.98319
vn 0.79186 0.46558 0.39521
vn 0.76125 0.42651 0.48846
vn 0.63092 0.37284 0.68039
vn 0.69449 0.43576 0.57253
vn 0.65701 0.59731 0.45996
vn 0.71978 0.62426 0.30367
vn 0.29793 0.86759 0.39816
vn 0.31319 0.91429 0.25688
vn -0.26966 0.93118 0.24534
vn -0.51225 0.81972 0.25624
vn -0.53739 0.79803 0.27269
vn -0.48202 0.77719 0.40450
vn -0.50554 0.75552 0.41667
vn -0.24849 0.88710 0.38899
vn -0.06666 -0.01735 0.99762
vn -0.07807 -0.03711 0.99626
vn -0.49395 0.73100 0.47080
vn -0.53352 0.78579 0.31286
vn -0.49455 0.66804 0.55600
vn -0.55953 0.74291 0.36744
vn -0.71235 0.55742 0.42643
vn -0.86266 0.14101 0.48573
vn -0.76940 -0.35651 0.53003
vn -0.40325 0.01100 0.91502
vn -0.33519 -0.14418 0.93105
vn -0.59551 0.47485 0.64798
vn -0.10499 -0.09175 0.99023
vn -0.08213 -0.10325 0.99126
vn -0.07936 -0.05312 0.99543
vn 0.41479 -0.84211 0.34466
vn 0.45273 -0.80030 0.39314
vn 0.39769 -0.71516 0.57479
vn 0.37762 -0.77708 0.50353
vn 0.37567 -0.79405 0.47787
vn 0.40964 -0.85299 0.32342
vn 0.41807 -0.85420 0.30911
vn 0.38822 -0.79408 0.46767
vn 0.13814 0.93335 0.33133
vn 0.07191 0.91320 0.40112
vn 0.15404 0.86858 0.47100
vn 0.06831 0.81918 0.56945
vn 0.13941 0.75235 0.64384
vn 0.16017 0.87922 0.44869
vn -0.13917 0.05097 0.98896
vn -0.07069 0.03922 0.99673
vn -0.46587 -0.77433 0.42822
vn -0.47809 -0.73578 0.47964
vn -0.39729 -0.63686 0.66073
vn -0.39583 -0.69928 0.59526
vn -0.60079 -0.65454 0.45895
vn -0.52934 -0.68643 0.49861
vn -0.78768 -0.47923 0.38715
vn -0.71858 -0.39056 0.57541
vn -0.52942 -0.53225 0.66062
vn -0.89338 -0.30264 0.33208
vn -0.82666 -0.24849 0.50486
vn -0.58842 0.71727 0.37321
vn -0.80893 0.48987 0.32505
vn 0.40980 0.76820 0.49187
vn 0.70229 0.51978 0.48644
vn 0.33212 0.62285 0.70835
vn 0.57363 0.41727 0.70486
vn -0.00709 0.01149 0.99991
vn 0.04142 -0.04577 0.99809
vn -0.49240 -0.71150 0.50131
vn -0.44434 -0.56344 0.69649
vn -0.40590 -0.59772 0.69135
vn 0.06641 -0.11710 0.99090
vn 0.86405 0.26339 0.42900
vn 0.74335 0.22738 0.62907
vn 0.83294 0.07640 0.54806
vn 0.92665 0.07614 0.36813
vn 0.02310 -0.12567 0.99180
vn 0.83836 -0.16207 0.52047
vn 0.92257 -0.18201 0.34020
vn -0.02208 -0.01944 0.99957
vn 0.70191 -0.44963 0.55241
vn 0.78518 -0.50452 0.35910
vn 0.04496 0.07321 0.99630
vn 0.11271 0.06118 0.99174
vn -0.18854 0.88594 0.42375
vn -0.19059 0.76339 0.61718
vn -0.54708 0.62267 0.55946
vn -0.74539 0.43621 0.50409
vn -0.05012 0.88005 0.47222
vn -0.04974 0.74594 0.66416
vn 0.54837 -0.73241 0.40355
vn 0.34067 -0.83050 0.44070
vn 0.47781 -0.63866 0.60317
vn 0.29036 -0.71607 0.63477
vn 0.17855 -0.74013 0.64833
vn 0.21039 -0.86089 0.46326
vn 0.09746 0.02302 0.99497
vn 0.06765 0.00157 0.99771
vn 0.04262 -0.00697 0.99907
vn -0.02596 0.87099 0.49062
vn -0.01662 0.86700 0.49802
vn -0.01320 0.73352 0.67954
vn -0.02179 0.73600 0.67663
vn 0.12554 -0.87161 0.47385
vn 0.07155 -0.87546 0.47797
vn 0.10746 -0.75092 0.65159
vn 0.06236 -0.75504 0.65271
vn 0.01597 -0.75717 0.65302
vn 0.01662 -0.87803 0.47831
vn 0.01996 -0.00701 0.99978
vn 0.00192 -0.00202 1.00000
vn -0.01365 0.86428 0.50282
vn -0.00844 0.86240 0.50615
vn -0.00929 0.73003 0.68335
vn -0.01229 0.73202 0.68117
vn -0.03608 -0.87915 0.47518
vn 0.02322 0.87345 0.48636
vn 0.00978 0.86766 0.49706
vn 0.04090 0.88145 0.47050
vn 0.03830 0.74297 0.66823
vn 0.02429 0.73720 0.67524
vn 0.15641 0.88705 0.43438
vn 0.15313 0.75225 0.64084
vn 0.52623 0.74770 0.40500
vn -0.06369 -0.88149 0.46788
vn -0.11759 -0.87974 0.46069
vn -0.04595 -0.88046 0.47188
vn -0.03873 -0.76386 0.64422
vn -0.05230 -0.76375 0.64339
vn -0.03072 -0.76090 0.64814
vn -0.00718 -0.00048 0.99997
vn -0.01354 -0.00436 0.99990
vn -0.00120 0.86189 0.50709
vn -0.00233 0.86270 0.50571
vn -0.00215 0.73032 0.68310
vn -0.00092 0.72908 0.68443
vn -0.00172 0.86398 0.50351
vn -0.00113 0.73136 0.68199
vn 0.01279 0.73387 0.67917
vn -0.02964 -0.01081 0.99950
vn -0.02203 -0.00769 0.99973
vn -0.04921 -0.01227 0.99871
vn -0.17089 -0.87555 0.45190
vn -0.09945 -0.76369 0.63787
vn -0.14846 -0.76285 0.62930
vn -0.22340 -0.75110 0.62124
vn -0.25741 -0.86073 0.43918
vn -0.08193 -0.00135 0.99664
vn -0.38261 -0.69397 0.60993
vn -0.43898 -0.79501 0.41864
vn -0.10044 0.02989 0.99449
vn -0.59938 -0.53617 0.59436
vn -0.68345 -0.61236 0.39739
vn -0.06049 0.03626 0.99751
vn -0.01027 -0.03952 0.99917
vn 0.88051 0.24325 0.40685
vn 0.75437 0.21751 0.61936
vn 0.47043 0.63045 0.61744
vn 0.83350 -0.33155 0.44198
vn 0.72091 -0.25382 0.64487
vn -0.86881 -0.30565 0.38955
vn -0.91373 0.00056 0.40633
vn -0.76397 -0.27440 0.58399
vn -0.80015 -0.00311 0.59979
vn -0.71853 0.21650 0.66094
vn -0.85234 0.25926 0.45420
vn -0.02780 -0.11098 0.99343
vn -0.05420 -0.08790 0.99465
vn -0.03537 -0.02552 0.99905
vn 0.61682 -0.61867 0.48661
vn 0.50527 -0.69121 0.51666
vn 0.41745 -0.56428 0.71227
vn 0.53307 -0.50010 0.68245
vn -0.64416 0.57367 0.50593
vn -0.31034 0.81236 0.49372
vn -0.51491 0.45764 0.72487
vn -0.25286 0.66966 0.69830
vn -0.12640 0.77150 0.62355
vn -0.13370 0.88338 0.44917
vn 0.01189 0.02585 0.99959
vn 0.07768 0.05352 0.99554
vn 0.48069 -0.71149 0.51257
vn 0.47924 -0.73662 0.47720
vn 0.39344 -0.63486 0.66495
vn 0.38521 -0.59194 0.70797
vn -0.53147 -0.65906 0.53215
vn -0.39674 -0.75407 0.52343
vn -0.22687 -0.25008 0.94127
vn -0.29951 -0.59353 0.74701
vn 0.20831 0.26755 0.94076
vn 0.12726 0.36705 0.92146
vn 0.00761 0.04230 0.99908
vn -0.05109 -0.02700 0.99833
vn 0.82018 0.07650 0.56697
vn 0.57086 0.60897 0.55070
vn 0.60580 0.06054 0.79331
vn 0.53758 -0.46106 0.70599
vn 0.67582 -0.54521 0.49600
vn -0.37218 -0.78007 0.50296
vn -0.37293 -0.79692 0.47523
vn -0.29292 -0.63750 0.71260
vn -0.30812 -0.67269 0.67272
vn -0.02178 0.05651 0.99816
vn -0.04727 0.04731 0.99776
vn 0.19011 0.84306 0.50311
vn 0.15011 0.86156 0.48495
vn 0.13318 0.72804 0.67247
vn 0.15840 0.70172 0.69462
vn 0.29943 0.80026 0.51955
vn -0.36830 -0.81686 0.44395
vn -0.37175 -0.83803 0.39937
vn -0.31322 -0.70838 0.63253
vn -0.32398 -0.75002 0.57664
vn -0.06404 0.02931 0.99752
vn -0.09542 0.01415 0.99534
vn 0.11501 0.88180 0.45739
vn 0.08363 0.90472 0.41772
vn 0.08187 0.79589 0.59988
vn 0.10759 0.75574 0.64597
vn 0.06327 0.93032 0.36124
vn 0.01514 0.95597 0.29306
vn 0.06258 0.84772 0.52675
vn 0.01683 0.89974 0.43610
vn -0.07838 0.96617 0.24570
vn -0.07276 0.92596 0.37054
vn -0.16288 0.01232 0.98657
vn -0.14193 0.01086 0.98982
vn -0.05832 0.00400 0.99829
vn 0.11418 0.07884 0.99033
vn -0.06226 -0.96695 0.24726
vn -0.31483 -0.90799 0.27648
vn -0.29263 -0.85858 0.42097
vn -0.05047 -0.91645 0.39695
vn 0.38444 -0.80483 0.45216
vn 0.41734 -0.86538 0.27739
vn 0.68717 -0.42104 0.59205
vn 0.80664 -0.44578 0.38808
vn 0.86377 0.02893 0.50306
vn 0.78451 0.24778 0.56846
vn 0.73660 0.30624 0.60302
vn 0.85512 0.37301 0.36006
vn 0.31594 0.18472 0.93062
vn 0.28772 0.12394 0.94966
vn 0.70061 -0.00183 0.71354
vn -0.21385 0.46554 0.85880
vn -0.31491 0.23057 0.92069
vn 0.05432 0.26738 0.96206
vn 0.15197 0.21713 0.96424
vn -0.35229 0.87685 0.32716
vn -0.57147 0.69651 0.43393
vn -0.31207 0.80987 0.49671
vn -0.19241 0.90189 0.38674
vn -0.20271 0.94522 0.25586
vn -0.37409 -0.86417 0.33654
vn -0.33838 -0.79962 0.49608
vn 0.71759 0.36223 0.59485
vn 0.72685 0.40500 0.55467
vn 0.83860 0.41449 0.35349
vn 0.29715 0.11568 0.94780
vn 0.56625 0.33937 0.75112
vn -0.20631 -0.28154 0.93711
vn -0.12302 -0.39750 0.90932
vn 0.06102 -0.11151 0.99189
vn -0.29808 -0.06281 0.95247
vn -0.78384 -0.20458 0.58630
vn -0.55838 -0.61359 0.55832
vn -0.78226 0.32088 0.53396
vn -0.36552 -0.77583 0.51428
f 1//1 4//2 5//3 6//3
f 1//4 7//5 8//6 9//7
f 1//8 6//9 10//10 7//11
f 2//12 11//13 12//14 13//14
f 2//12 14//15 15//15 16//16
f 2//12 3//17 17//18 11//13
f 2//19 13//20 18//21 19//22
f 2//23 19//24 20//25 14//26
f 2//12 16//16 4//2 3//17
f 3//17 9//27 21//28 17//18
f 21//28 9//27 22//29 23//29
f 21//30 23//31 24//32 25//33
f 21//30 25//33 26//34 17//35
f 26//34 27//36 11//37 17//35
f 26//34 25//33 28//38 328//39
f 26//34 328//39 329//40 27//36
f 329//40 29//41 30//42 27//36
f 31//43 330//44 32//45 33//46
f 31//43 33//46 30//42 29//41
f 33//46 32//45 34//47 35//48
f 33//46 35//48 12//49 30//42
f 35//50 34//51 36//51 37//50
f 35//50 37//50 13//14 12//14
f 37//52 36//53 38//54 39//55
f 37//52 39//55 18//21 13//20
f 39//55 38//54 331//56 40//57
f 39//55 40//57 41//58 18//21
f 41//59 42//59 19//22 18//21
f 42//60 332//60 20//25 19//24
f 332//61 43//62 44//63 20//25
f 44//63 43//62 333//64 45//65
f 44//63 45//65 46//66 47//67
f 44//63 47//67 14//26 20//25
f 47//68 46//69 48//69 49//68
f 47//68 49//68 15//15 14//15
f 49//70 48//71 50//72 51//73
f 49//70 51//73 52//74 15//75
f 52//74 53//76 16//77 15//75
f 52//74 51//73 334//78 54//79
f 52//74 54//79 55//80 53//76
f 55//81 56//82 57//83 53//76
f 58//84 335//85 59//86 60//87
f 58//84 60//87 57//83 56//82
f 60//87 59//86 61//88 5//89
f 60//87 5//89 4//90 57//83
f 61//91 62//92 63//92 64//91
f 61//91 64//91 6//3 5//3
f 61//88 59//86 65//93 62//94
f 65//93 66//95 67//96 62//94
f 65//93 59//86 335//85 336//97
f 65//93 336//97 68//98 66//95
f 68//98 69//99 70//100 66//95
f 71//101 72//102 73//103 74//104
f 71//101 74//104 70//100 69//99
f 74//104 73//103 75//105 76//106
f 74//104 76//106 77//107 70//100
f 77//108 76//106 78//109 79//108
f 77//108 79//108 80//110 67//110
f 77//107 67//96 66//95 70//100
f 80//111 79//112 81//113 82//114
f 80//111 82//114 83//115 63//116
f 80//110 63//92 62//92 67//110
f 83//115 82//114 84//117 85//118
f 83//115 85//118 337//119 86//120
f 83//115 86//120 64//121 63//116
f 86//120 337//119 338//122 10//10
f 86//120 10//10 6//9 64//121
f 338//122 87//123 7//11 10//10
f 87//124 88//124 8//6 7//5
f 88//125 89//126 90//127 8//6
f 90//127 89//126 339//128 91//129
f 90//127 91//129 92//130 22//131
f 90//127 22//131 9//7 8//6
f 92//130 91//129 93//132 94//133
f 92//134 94//135 95//135 96//134
f 92//134 96//134 23//29 22//29
f 96//136 95//137 97//138 98//139
f 96//136 98//139 24//32 23//31
f 98//139 97//138 340//140 341//141
f 98//139 341//141 99//142 24//32
f 99//142 28//38 25//33 24//32
f 101//143 342//144 103//145 104//146
f 101//143 104//146 105//147 102//148
f 105//147 104//146 106//149 107//150
f 105//147 107//150 108//151 109//152
f 105//147 109//152 110//153 102//148
f 110//154 109//155 111//156 112//154
f 115//157 114//158 116//159 117//160
f 115//157 117//160 93//132 100//161
f 117//160 116//159 118//162 119//163
f 117//160 119//163 94//133 93//132
f 119//164 118//165 120//165 121//164
f 119//164 121//164 95//135 94//135
f 121//166 120//167 103//145 122//168
f 121//166 122//168 97//138 95//137
f 122//168 103//145 342//144 343//169
f 122//168 343//169 340//140 97//138
f 120//165 118//165 123//170 106//170
f 120//167 106//149 104//146 103//145
f 123//171 118//162 116//159 124//172
f 123//171 124//172 125//173 126//174
f 123//170 126//175 107//175 106//170
f 126//174 125//173 127//176 128//177
f 126//175 128//178 108//178 107//175
f 128//177 127//176 129//179 130//180
f 128//178 130//181 131//181 108//178
f 131//181 130//181 132//182 133//182
f 131//183 133//184 134//185 111//156
f 131//183 111//156 109//155 108//186
f 134//185 133//184 135//187 136//188
f 134//185 136//188 137//189 138//190
f 134//185 138//190 112//191 111//156
f 140//192 139//193 127//176 125//173
f 140//192 125//173 124//172 113//194
f 139//193 344//195 129//179 127//176
f 344//195 345//196 141//197 129//179
f 141//197 345//196 142//198 143//199
f 141//197 143//199 144//200 132//201
f 141//197 132//201 130//180 129//179
f 144//200 143//199 145//202 146//203
f 144//204 146//205 147//205 135//204
f 144//204 135//204 133//182 132//182
f 147//205 146//205 148//206 149//206
f 147//207 149//208 150//209 151//210
f 147//207 151//210 136//188 135//187
f 151//210 150//209 346//211 347//212
f 151//210 347//212 137//189 136//188
f 152//213 348//214 153//215 145//202
f 152//213 145//202 143//199 142//198
f 153//215 348//214 154//216 155//217
f 153//215 155//217 156//218 148//219
f 153//215 148//219 146//203 145//202
f 156//218 155//217 157//220 158//221
f 156//222 158//223 159//223 160//222
f 156//222 160//222 149//206 148//206
f 160//224 159//225 161//226 162//227
f 160//224 162//227 150//209 149//208
f 162//227 161//226 163//228 164//229
f 162//227 164//229 346//211 150//209
f 165//230 166//231 167//232 157//220
f 165//230 157//220 155//217 154//216
f 169//233 349//234 171//235 172//236
f 169//233 172//236 173//237 170//238
f 173//237 172//236 174//239 175//240
f 173//237 175//240 176//241 177//242
f 173//237 177//242 178//243 170//238
f 178//243 177//242 179//244 180//245
f 183//246 182//247 184//248 185//249
f 183//246 185//249 186//250 168//251
f 186//250 167//232 166//231 168//251
f 186//250 185//249 187//252 188//253
f 186//250 188//253 189//254 167//232
f 189//254 158//221 157//220 167//232
f 189//255 188//256 190//256 191//255
f 189//255 191//255 159//223 158//223
f 191//257 190//258 192//259 193//260
f 191//257 193//260 161//226 159//225
f 193//260 192//259 350//261 351//262
f 193//260 351//262 163//228 161//226
f 350//261 192//259 194//263 352//264
f 194//263 192//259 190//258 195//265
f 194//263 195//265 196//266 171//235
f 194//263 171//235 349//234 352//264
f 196//267 195//268 187//268 197//267
f 196//267 197//267 198//269 174//269
f 196//266 174//239 172//236 171//235
f 198//270 197//271 184//248 199//272
f 198//270 199//272 200//273 201//274
f 198//269 201//275 175//275 174//269
f 201//274 200//273 202//276 203//277
f 201//275 203//278 176//278 175//275
f 203//277 202//276 204//279 205//280
f 203//278 205//281 206//281 176//278
f 206//281 205//281 207//282 208//282
f 206//283 208//284 209//285 179//244
f 206//283 179//244 177//242 176//241
f 209//285 208//284 210//286 211//287
f 209//285 211//287 353//288 212//289
f 209//285 212//290 180//245 179//244
f 354//291 213//292 202//276 200//273
f 354//291 200//273 199//272 181//293
f 213//292 355//294 204//279 202//276
f 355//294 356//295 214//296 204//279
f 214//296 356//295 215//297 216//298
f 214//296 216//298 217//299 207//300
f 214//296 207//300 205//280 204//279
f 217//299 216//298 218//301 219//302
f 217//303 219//304 220//304 210//303
f 217//303 210//303 208//282 207//282
f 220//304 219//304 221//305 222//305
f 220//306 222//307 223//308 224//309
f 220//306 224//309 211//287 210//286
f 224//309 223//308 225//310 226//311
f 224//309 226//311 353//288 211//287
f 227//312 357//313 228//314 218//301
f 227//312 218//301 216//298 215//297
f 228//314 357//313 229//315 230//316
f 228//314 230//316 231//317 221//318
f 228//314 221//318 219//302 218//301
f 231//317 230//316 232//319 233//320
f 231//321 233//322 234//322 235//321
f 231//321 235//321 222//305 221//305
f 235//323 234//324 236//325 237//326
f 235//323 237//326 223//308 222//307
f 237//326 236//325 358//327 238//328
f 237//326 238//328 225//310 223//308
f 359//329 331//56 38//54 232//319
f 359//329 232//319 230//316 229//315
f 358//327 236//325 32//45 330//44
f 236//325 234//324 34//47 32//45
f 234//322 233//322 36//51 34//51
f 233//320 232//319 38//54 36//53
f 199//272 184//248 182//247 181//293
f 197//271 187//252 185//249 184//248
f 195//268 190//256 188//256 187//268
f 124//172 116//159 114//158 113//194
f 100//161 93//132 91//129 339//128
f 240//330 239//331 241//332 242//333
f 240//330 242//333 73//103 72//102
f 242//333 241//332 243//334 244//335
f 242//333 244//335 75//105 73//103
f 244//335 243//336 245//336 246//337
f 244//335 246//337 247//338 75//105
f 247//339 246//340 248//341 249//342
f 247//339 249//342 250//343 78//344
f 247//338 78//109 76//106 75//105
f 250//343 249//342 251//345 252//346
f 250//343 252//346 360//347 81//113
f 250//343 81//113 79//112 78//344
f 360//347 84//117 82//114 81//113
f 251//348 249//342 248//341 361//349
f 255//350 254//351 256//352 257//353
f 255//350 257//353 241//332 239//331
f 257//353 256//352 258//354 259//355
f 257//353 259//355 243//334 241//332
f 259//356 258//357 260//357 261//356
f 259//356 261//356 245//336 243//336
f 261//358 260//359 262//360 263//361
f 261//358 263//361 264//362 245//363
f 264//362 263//361 362//364 253//365
f 264//362 253//365 361//349 248//341
f 264//362 248//341 246//340 245//363
f 362//364 263//361 262//360 363//366
f 267//367 266//368 268//369 269//370
f 267//367 269//370 256//352 254//351
f 269//370 268//369 270//371 271//372
f 269//370 271//372 258//354 256//352
f 271//373 270//374 272//374 273//373
f 271//373 273//373 260//357 258//357
f 273//375 272//376 274//377 275//378
f 273//375 275//378 262//360 260//359
f 275//378 274//377 276//379 265//380
f 275//378 265//380 363//366 262//360
f 276//379 274//377 278//381 277//382
f 278//381 279//383 280//384 277//382
f 278//381 274//377 272//376 281//385
f 278//381 281//385 282//386 279//383
f 282//386 283//387 284//388 279//383
f 282//389 281//390 285//390 286//389
f 282//389 286//389 287//391 283//391
f 287//391 288//392 289//392 283//391
f 287//393 286//394 290//395 291//396
f 287//393 291//396 292//397 288//398
f 292//397 293//399 294//400 288//398
f 292//397 291//396 364//401 365//402
f 292//397 365//402 295//403 293//399
f 295//403 296//404 297//405 293//399
f 298//406 299//407 300//408 301//409
f 298//406 301//409 297//405 296//404
f 301//409 300//408 302//410 303//411
f 301//409 303//411 304//412 297//405
f 304//412 303//411 305//413 306//414
f 304//412 306//414 307//415 294//415
f 304//412 294//400 293//399 297//405
f 307//416 306//414 308//417 309//418
f 307//416 309//418 310//419 289//420
f 307//415 289//392 288//392 294//415
f 310//419 309//418 366//421 367//422
f 310//419 367//422 368//423 284//388
f 310//419 284//388 283//387 289//420
f 368//423 280//384 279//383 284//388
f 370//424 369//425 290//395 311//426
f 370//424 311//426 268//369 266//368
f 311//426 290//395 286//394 285//427
f 311//426 285//427 270//371 268//369
f 369//425 364//401 291//396 290//395
f 312//428 371//429 313//430 314//431
f 312//428 314//431 300//408 299//407
f 314//431 313//430 315//432 316//433
f 314//431 316//433 302//410 300//408
f 316//433 315//434 317//435 318//436
f 316//433 318//436 319//437 302//410
f 319//437 318//436 320//438 321//439
f 319//437 321//439 322//440 305//413
f 319//437 305//413 303//411 302//410
f 322//440 321//439 323//441 324//442
f 322//440 324//442 325//443 308//417
f 322//440 308//417 306//414 305//413
f 325//443 366//421 309//418 308//417
f 323//441 321//439 320//438 372//444
f 373//445 334//78 51//73 50//72
f 373//445 50//72 313//430 371//429
f 326//446 372//444 320//438 327//447
f 326//446 327//447 45//65 333//64
f 327//447 320//438 318//436 317//435
f 327//447 317//435 46//66 45//65
f 317//435 315//434 48//69 46//69
f 315//432 313//430 50//72 48//71
f 285//390 281//390 272//374 270//374
f 57//83 4//90 16//77 53//76
f 30//42 12//49 11//37 27//36
f 9//27 3//17 4//2 1//1
f 379//448 378//448 377//449 374//450
f 382//451 381//452 380//453 374//454
f 380//455 383//456 379//457 374//458
f 386//459 385//459 384//460 375//461
f 389//462 388//463 387//463 375//461
f 384//460 390//464 376//465 375//461
f 392//466 391//467 386//468 375//469
f 387//470 393//471 392//472 375//473
f 376//465 377//449 389//462 375//461
f 390//464 394//474 382//475 376//465
f 396//476 395//476 382//475 394//474
f 398//477 397//478 396//479 394//480
f 390//481 399//482 398//477 394//480
f 390//481 384//483 400//484 399//482
f 328//39 28//38 398//477 399//482
f 400//484 329//40 328//39 399//482
f 400//484 401//485 29//41 329//40
f 403//486 402//487 330//44 31//43
f 29//41 401//485 403//486 31//43
f 405//488 404//489 402//487 403//486
f 401//485 385//490 405//488 403//486
f 407//491 406//492 404//492 405//491
f 385//459 386//459 407//491 405//491
f 409//493 408//494 406//495 407//496
f 386//468 391//467 409//493 407//496
f 40//57 331//56 408//494 409//493
f 391//467 41//58 40//57 409//493
f 391//467 392//466 42//59 41//59
f 392//472 393//471 332//60 42//60
f 393//471 410//497 43//62 332//61
f 411//498 333//64 43//62 410//497
f 413//499 412//500 411//498 410//497
f 393//471 387//470 413//499 410//497
f 415//501 414//502 412//502 413//501
f 387//463 388//463 415//501 413//501
f 417//503 416//504 414//505 415//506
f 388//507 418//508 417//503 415//506
f 388//507 389//509 419//510 418//508
f 54//79 334//78 417//503 418//508
f 419//510 55//80 54//79 418//508
f 419//510 420//511 56//82 55//81
f 422//512 421//513 335//85 58//84
f 56//82 420//511 422//512 58//84
f 378//514 423//515 421//513 422//512
f 420//511 377//516 378//514 422//512
f 426//517 425//518 424//518 423//517
f 378//448 379//448 426//517 423//517
f 424//519 427//520 421//513 423//515
f 424//519 429//521 428//522 427//520
f 336//97 335//85 421//513 427//520
f 428//522 68//98 336//97 427//520
f 428//522 430//523 69//99 68//98
f 432//524 431//525 72//102 71//101
f 69//99 430//523 432//524 71//101
f 434//526 433//527 431//525 432//524
f 430//523 435//528 434//526 432//524
f 437//529 436//530 434//526 435//529
f 429//531 438//531 437//529 435//529
f 430//523 428//522 429//521 435//528
f 440//532 439//533 437//534 438//535
f 425//536 441//537 440//532 438//535
f 429//531 424//518 425//518 438//531
f 85//118 84//117 440//532 441//537
f 442//538 337//119 85//118 441//537
f 425//536 426//539 442//538 441//537
f 383//456 338//122 337//119 442//538
f 426//539 379//457 383//456 442//538
f 383//456 380//455 87//123 338//122
f 380//453 381//452 88//124 87//124
f 381//452 443//540 89//126 88//125
f 444//541 339//128 89//126 443//540
f 395//542 445//543 444//541 443//540
f 381//452 382//451 395//542 443//540
f 447//544 446//545 444//541 445//543
f 449//546 448//547 447//547 445//546
f 395//476 396//476 449//546 445//546
f 451//548 450//549 448//550 449//551
f 396//479 397//478 451//548 449//551
f 341//141 340//140 450//549 451//548
f 397//478 99//142 341//141 451//548
f 397//478 398//477 28//38 99//142
f 453//552 452//553 342//144 101//143
f 102//148 454//554 453//552 101//143
f 456//555 455//556 453//552 454//554
f 458//557 457//558 456//555 454//554
f 102//148 110//153 458//557 454//554
f 112//154 459//559 458//560 110//154
f 461//561 460//562 114//158 115//157
f 100//161 446//545 461//561 115//157
f 463//563 462//564 460//562 461//561
f 446//545 447//544 463//563 461//561
f 465//565 464//566 462//566 463//565
f 447//547 448//547 465//565 463//565
f 466//567 452//553 464//568 465//569
f 448//550 450//549 466//567 465//569
f 343//169 342//144 452//553 466//567
f 450//549 340//140 343//169 466//567
f 455//570 467//570 462//566 464//566
f 452//553 453//552 455//556 464//568
f 468//571 460//562 462//564 467//572
f 470//573 469//574 468//571 467//572
f 455//570 456//575 470//575 467//570
f 472//576 471//577 469//574 470//573
f 456//575 457//578 472//578 470//575
f 474//579 473//580 471//577 472//576
f 457//578 475//581 474//581 472//578
f 477//582 476//582 474//581 475//581
f 459//559 478//583 477//584 475//585
f 457//586 458//560 459//559 475//585
f 480//587 479//588 477//584 478//583
f 138//190 137//189 480//587 478//583
f 459//559 112//191 138//190 478//583
f 469//574 471//577 139//193 140//192
f 113//194 468//571 469//574 140//192
f 471//577 473//580 344//195 139//193
f 473//580 481//589 345//196 344//195
f 482//590 142//198 345//196 481//589
f 476//591 483//592 482//590 481//589
f 473//580 474//579 476//591 481//589
f 485//593 484//594 482//590 483//592
f 479//595 486//596 485//596 483//595
f 476//582 477//582 479//595 483//595
f 488//597 487//597 485//596 486//596
f 490//598 489//599 488//600 486//601
f 479//588 480//587 490//598 486//601
f 347//212 346//211 489//599 490//598
f 480//587 137//189 347//212 490//598
f 484//594 491//602 348//214 152//213
f 142//198 482//590 484//594 152//213
f 492//603 154//216 348//214 491//602
f 487//604 493//605 492//603 491//602
f 484//594 485//593 487//604 491//602
f 495//606 494//607 492//603 493//605
f 497//608 496//609 495//609 493//608
f 487//597 488//597 497//608 493//608
f 499//610 498//611 496//612 497//613
f 488//600 489//599 499//610 497//613
f 164//229 163//228 498//611 499//610
f 489//599 346//211 164//229 499//610
f 494//607 500//614 166//231 165//230
f 154//216 492//603 494//607 165//230
f 502//615 501//616 349//234 169//233
f 170//238 503//617 502//615 169//233
f 505//618 504//619 502//615 503//617
f 507//620 506//621 505//618 503//617
f 170//238 178//243 507//620 503//617
f 180//245 508//622 507//620 178//243
f 510//623 509//624 182//247 183//246
f 168//251 511//625 510//623 183//246
f 168//251 166//231 500//614 511//625
f 513//626 512//627 510//623 511//625
f 500//614 514//628 513//626 511//625
f 500//614 494//607 495//606 514//628
f 516//629 515//630 513//630 514//629
f 495//609 496//609 516//629 514//629
f 518//631 517//632 515//633 516//634
f 496//612 498//611 518//631 516//634
f 351//262 350//261 517//632 518//631
f 498//611 163//228 351//262 518//631
f 352//264 519//635 517//632 350//261
f 520//636 515//633 517//632 519//635
f 501//616 521//637 520//636 519//635
f 352//264 349//234 501//616 519//635
f 522//638 512//639 520//639 521//638
f 504//640 523//640 522//638 521//638
f 501//616 502//615 504//619 521//637
f 524//641 509//624 522//642 523//643
f 526//644 525//645 524//641 523//643
f 504//640 505//646 526//646 523//640
f 528//647 527//648 525//645 526//644
f 505//646 506//649 528//649 526//646
f 530//650 529//651 527//648 528//647
f 506//649 531//652 530//652 528//649
f 533//653 532//653 530//652 531//652
f 508//622 534//654 533//655 531//656
f 506//621 507//620 508//622 531//656
f 536//657 535//658 533//655 534//654
f 212//289 353//288 536//657 534//654
f 508//622 180//245 212//290 534//654
f 525//645 527//648 213//292 354//291
f 181//293 524//641 525//645 354//291
f 527//648 529//651 355//294 213//292
f 529//651 537//659 356//295 355//294
f 538//660 215//297 356//295 537//659
f 532//661 539//662 538//660 537//659
f 529//651 530//650 532//661 537//659
f 541//663 540//664 538//660 539//662
f 535//665 542//666 541//666 539//665
f 532//653 533//653 535//665 539//665
f 544//667 543//667 541//666 542//666
f 546//668 545//669 544//670 542//671
f 535//658 536//657 546//668 542//671
f 226//311 225//310 545//669 546//668
f 536//657 353//288 226//311 546//668
f 540//664 547//672 357//313 227//312
f 215//297 538//660 540//664 227//312
f 548//673 229//315 357//313 547//672
f 543//674 549//675 548//673 547//672
f 540//664 541//663 543//674 547//672
f 551//676 550//677 548//673 549//675
f 553//678 552//679 551//679 549//678
f 543//667 544//667 553//678 549//678
f 555//680 554//681 552//682 553//683
f 544//670 545//669 555//680 553//683
f 238//328 358//327 554//681 555//680
f 545//669 225//310 238//328 555//680
f 550//677 408//494 331//56 359//329
f 229//315 548//673 550//677 359//329
f 330//44 402//487 554//681 358//327
f 402//487 404//489 552//682 554//681
f 404//492 406//492 551//679 552//679
f 406//495 408//494 550//677 551//676
f 181//293 182//247 509//624 524//641
f 509//624 510//623 512//627 522//642
f 512//639 513//630 515//630 520//639
f 113//194 114//158 460//562 468//571
f 339//128 444//541 446//545 100//161
f 557//684 556//685 239//331 240//330
f 72//102 431//525 557//684 240//330
f 559//686 558//687 556//685 557//684
f 431//525 433//527 559//686 557//684
f 561//688 560//689 558//690 559//686
f 433//527 562//691 561//688 559//686
f 564//692 563//693 561//688 562//694
f 436//695 565//696 564//692 562//694
f 433//527 434//526 436//530 562//691
f 252//346 251//345 564//692 565//696
f 439//533 360//347 252//346 565//696
f 436//695 437//534 439//533 565//696
f 439//533 440//532 84//117 360//347
f 361//349 563//693 564//692 251//348
f 567//697 566//698 254//351 255//350
f 239//331 556//685 567//697 255//350
f 569//699 568//700 566//698 567//697
f 556//685 558//687 569//699 567//697
f 571//701 570//702 568//702 569//701
f 558//690 560//689 571//701 569//701
f 573//703 572//704 570//705 571//706
f 560//689 574//707 573//703 571//706
f 253//365 362//364 573//703 574//707
f 563//693 361//349 253//365 574//707
f 560//689 561//688 563//693 574//707
f 363//366 572//704 573//703 362//364
f 576//708 575//709 266//368 267//367
f 254//351 566//698 576//708 267//367
f 578//710 577//711 575//709 576//708
f 566//698 568//700 578//710 576//708
f 580//712 579//713 577//713 578//712
f 568//702 570//702 580//712 578//712
f 582//714 581//715 579//716 580//717
f 570//705 572//704 582//714 580//717
f 265//380 276//379 581//715 582//714
f 572//704 363//366 265//380 582//714
f 277//382 583//718 581//715 276//379
f 277//382 280//384 584//719 583//718
f 585//720 579//716 581//715 583//718
f 584//719 586//721 585//720 583//718
f 584//719 588//722 587//723 586//721
f 590//724 589//725 585//725 586//724
f 587//726 591//726 590//724 586//724
f 587//726 593//727 592//727 591//726
f 595//728 594//729 590//730 591//731
f 592//732 596//733 595//728 591//731
f 592//732 598//734 597//735 596//733
f 365//402 364//401 595//728 596//733
f 597//735 295//403 365//402 596//733
f 597//735 599//736 296//404 295//403
f 601//737 600//738 299//739 298//406
f 296//404 599//736 601//737 298//406
f 603//740 602//741 600//738 601//737
f 599//736 604//742 603//740 601//737
f 606//743 605//744 603//740 604//745
f 598//746 607//746 606//743 604//745
f 599//736 597//735 598//734 604//742
f 609//747 608//748 606//743 607//749
f 593//750 610//751 609//747 607//749
f 598//746 592//727 593//727 607//746
f 367//422 366//421 609//747 610//751
f 588//722 368//423 367//422 610//751
f 593//750 587//723 588//722 610//751
f 588//722 584//719 280//384 368//423
f 611//752 594//729 369//425 370//424
f 266//368 575//709 611//752 370//424
f 589//753 590//730 594//729 611//752
f 575//709 577//711 589//753 611//752
f 594//729 595//728 364//401 369//425
f 613//754 612//755 371//429 312//756
f 299//739 600//738 613//754 312//756
f 615//757 614//758 612//755 613//754
f 600//738 602//741 615//757 613//754
f 617//759 616//760 614//761 615//757
f 602//741 618//762 617//759 615//757
f 620//763 619//764 617//759 618//762
f 605//744 621//765 620//763 618//762
f 602//741 603//740 605//744 618//762
f 324//442 323//441 620//763 621//765
f 608//748 325//443 324//442 621//765
f 605//744 606//743 608//748 621//765
f 608//748 609//747 366//421 325//443
f 372//444 619//764 620//763 323//441
f 416//504 417//503 334//78 373//445
f 371//429 612//755 416//504 373//445
f 622//766 619//764 372//444 326//446
f 333//64 411//498 622//766 326//446
f 616//760 617//759 619//764 622//766
f 411//498 412//500 616//760 622//766
f 412//502 414//502 614//761 616//760
f 414//505 416//504 612//755 614//758
f 577//713 579//713 585//725 589//725
f 419//510 389//509 377//516 420//511
f 400//484 384//483 385//490 401//485
f 374//450 377//449 376//465 382//475
