# pilowlava3D glyph '9' variant 1 — Vincent Wagner / Velvetyne, Free Art License
v 1.63429 0.17192 -0.38674
v 2.32515 1.78150 -0.43498
v 1.38787 0.46293 -0.37025
v 1.48589 0.29449 -0.40149
v 1.64710 0.40834 -0.50472
v 1.81433 0.21551 -0.44731
v 1.91576 0.05236 -0.25548
v 1.62075 0.06215 -0.23983
v 1.38132 0.20627 -0.23011
v 2.61234 1.90965 -0.44479
v 2.76150 1.73558 -0.53956
v 2.56878 1.58272 -0.56069
v 2.32595 1.95569 -0.21844
v 2.52693 2.04373 -0.24397
v 1.49318 0.59415 -0.42279
v 1.28939 0.47662 -0.23280
v 1.38611 0.70143 -0.23820
v 1.24873 0.48082 0.00000
v 1.33886 0.73191 0.00000
v 1.47255 0.91495 0.00000
v 1.52811 0.86862 -0.24709
v 1.64893 0.74235 -0.45866
v 1.67410 1.02146 -0.24666
v 1.80228 0.89797 -0.46803
v 1.98743 0.71945 -0.56827
v 1.82272 0.54598 -0.55939
v 2.19800 0.54522 -0.49559
v 2.02592 0.34919 -0.48570
v 2.36055 0.41973 -0.28105
v 2.18094 0.19697 -0.27566
v 1.61411 1.07552 0.00000
v 1.75113 1.23162 0.00000
v 1.81685 1.17568 -0.23932
v 1.88081 1.38755 0.00000
v 3.17621 1.37971 0.00000
v 3.32272 1.57728 0.00000
v 2.95240 1.24777 -0.25764
v 3.10289 1.43294 -0.24923
v 3.25617 1.62403 -0.24435
v 2.94891 1.55470 -0.45014
v 3.12153 1.73071 -0.44215
v 3.29016 1.91237 -0.43239
v 3.40755 1.81580 -0.23799
v 3.46779 1.77206 0.00000
v 3.56377 2.00585 -0.23102
v 3.61540 1.96604 0.00000
v 2.66747 2.23254 0.00000
v 2.49697 2.09566 0.00000
v 2.70587 2.18191 -0.24383
v 2.31578 1.99836 0.00000
v 2.06064 1.99561 -0.18773
v 1.83049 2.10959 -0.19207
v 1.83886 2.13305 0.00000
v 2.04070 1.92430 -0.31629
v 1.80836 2.04866 -0.32478
v 1.58908 2.14702 -0.35885
v 1.62162 2.23014 -0.20566
v 1.99561 1.87745 -0.33649
v 1.77966 1.96572 -0.36786
v 1.54553 2.03482 -0.41225
v 1.30640 2.10884 -0.44807
v 1.37414 2.25521 -0.38453
v 1.74819 1.88402 -0.32330
v 1.51033 1.92566 -0.36276
v 1.26035 1.96121 -0.38937
v 1.00449 1.99510 -0.41078
v 1.07504 2.18566 -0.47788
v 1.48211 1.84532 -0.20857
v 1.23438 1.85997 -0.21898
v 0.96859 1.86707 -0.22945
v 0.67726 1.91486 -0.23915
v 0.74408 2.05578 -0.42766
v 0.65362 1.86563 0.00000
v 0.35953 2.02113 0.00000
v 0.39259 2.05962 -0.24365
v 0.14502 2.28537 0.00000
v 0.03799 2.58587 0.00000
v 0.08191 2.60401 -0.22486
v 0.18493 2.31303 -0.23854
v 0.20399 2.66155 -0.40574
v 0.30848 2.40372 -0.42444
v 0.49518 2.18833 -0.43253
v 0.49815 2.55324 -0.49198
v 0.65578 2.39207 -0.50303
v 0.85093 2.27318 -0.49928
v 0.81247 2.58555 -0.41874
v 0.98043 2.47279 -0.41629
v 1.16998 2.36514 -0.40475
v 1.07067 2.59040 -0.22395
v 1.24342 2.47524 -0.22211
v 1.42813 2.35383 -0.21733
v 1.63855 2.26803 0.00000
v 1.98190 1.52906 0.00000
v 2.03036 1.65416 -0.19327
v 2.02736 1.51120 -0.20793
v 1.94038 1.34118 -0.22825
v 2.16750 1.51805 -0.42061
v 2.07350 1.26294 -0.44418
v 1.94860 1.06901 -0.45929
v 2.28304 1.14077 -0.56872
v 2.14104 0.91934 -0.57709
v 2.50417 0.98435 -0.49017
v 2.35110 0.76245 -0.49629
v 2.65955 0.85271 -0.27691
v 2.50445 0.64528 -0.27754
v 2.57923 0.58444 0.00000
v 2.80659 1.05772 -0.26732
v 2.64952 1.20503 -0.47958
v 2.78677 1.38384 -0.46627
v 2.41259 1.39128 -0.55786
v 2.09903 1.68242 -0.34465
v 1.92735 1.77027 -0.18930
v 1.95528 1.81048 -0.30322
v 2.15393 1.76738 -0.39340
v 1.72095 1.82347 -0.19413
v 0.00693 3.17034 0.00000
v 0.03463 3.17538 -0.18932
v 0.04034 2.88913 -0.21131
v 0.10193 3.19139 -0.31841
v 0.14167 2.92420 -0.37056
v 0.18582 3.21642 -0.36723
v 0.26320 2.98035 -0.42521
v 0.37125 2.75456 -0.46857
v 0.37296 3.04220 -0.36928
v 0.51842 2.86873 -0.39681
v 0.66160 2.71493 -0.41048
v 0.60905 2.95841 -0.21771
v 0.75870 2.82774 -0.22290
v 0.91090 2.70738 -0.22486
v 0.49245 3.12805 0.00000
v 0.07686 3.46231 0.00000
v 0.22817 3.71141 -0.17608
v 0.09187 3.45808 -0.17295
v 0.26119 3.67207 -0.29824
v 0.13222 3.44783 -0.28528
v 0.31308 3.61496 -0.33830
v 0.19733 3.42876 -0.32117
v 0.36665 3.56388 -0.28715
v 0.25910 3.40777 -0.27064
v 0.26664 3.23107 -0.30615
v 0.30185 3.39281 -0.16227
v 0.33112 3.24251 -0.17625
v 0.46083 3.09995 -0.20614
v 0.31544 3.39076 0.00000
v 0.41347 3.51764 0.00000
v 0.64616 4.07686 -0.20860
v 0.42292 3.92016 -0.19382
v 0.68623 3.98124 -0.37234
v 0.45842 3.84879 -0.33971
v 0.73688 3.84660 -0.42356
v 0.50801 3.75566 -0.38514
v 0.77473 3.71181 -0.36140
v 0.55168 3.66513 -0.33153
v 0.80023 3.61914 -0.20631
v 0.58992 3.59888 -0.18734
v 0.40428 3.52925 -0.16728
v 1.02720 3.58570 0.00000
v 1.11060 4.33959 0.00000
v 0.86356 4.24185 0.00000
v 1.12626 4.28854 -0.22055
v 0.88072 4.19667 -0.21529
v 1.15683 4.16506 -0.40357
v 0.91824 4.08627 -0.38991
v 1.19841 3.96447 -0.47365
v 0.96701 3.91175 -0.45174
v 1.23122 3.76939 -0.39548
v 1.00408 3.74013 -0.38042
v 1.24596 3.64824 -0.21462
v 1.02288 3.63334 -0.21113
v 1.24773 3.59314 0.00000
v 1.47098 3.59558 0.00000
v 1.47017 3.65648 -0.22088
v 1.69621 3.66340 -0.22557
v 1.69701 3.59821 0.00000
v 1.45821 3.79213 -0.40681
v 1.68749 3.80616 -0.41650
v 1.91799 3.81704 -0.42246
v 1.92334 3.66977 -0.22858
v 1.43307 4.00321 -0.48850
v 1.66923 4.02768 -0.50059
v 1.90731 4.04351 -0.50963
v 2.14661 4.04977 -0.51110
v 2.14899 3.82193 -0.42447
v 1.64888 4.25279 -0.42286
v 1.89606 4.27418 -0.43068
v 2.14443 4.28106 -0.43230
v 2.39238 4.27600 -0.42949
v 2.38630 4.04639 -0.50835
v 1.88775 4.42381 -0.23450
v 2.14250 4.43209 -0.23568
v 2.39617 4.42586 -0.23399
v 2.64913 4.40768 -0.23038
v 2.63895 4.26107 -0.42363
v 2.39905 4.49144 0.00000
v 2.65561 4.47352 0.00000
v 2.91269 4.43989 0.00000
v 2.90245 4.37851 -0.22644
v 3.17096 4.38772 0.00000
v 3.41321 4.26535 -0.21755
v 3.15653 4.33265 -0.22211
v 3.38135 4.14795 -0.39371
v 3.13276 4.20194 -0.40760
v 2.88507 4.23719 -0.41625
v 3.10190 3.99339 -0.47915
v 2.86342 4.01854 -0.49160
v 2.62519 4.03534 -0.50327
v 2.84484 3.80433 -0.40958
v 2.61304 3.81351 -0.41826
v 2.38062 3.82086 -0.42231
v 2.60803 3.67064 -0.22650
v 2.37901 3.67192 -0.22935
v 2.15092 3.67182 -0.22995
v 2.37859 3.60345 0.00000
v 2.15047 3.60273 0.00000
v 1.92339 3.60095 0.00000
v 1.63295 4.39727 -0.23020
v 1.37811 4.35426 -0.22574
v 1.40213 4.21870 -0.41454
v 3.94260 4.02721 0.00000
v 3.92439 3.99958 -0.20753
v 3.67592 4.16515 -0.21438
v 3.86754 3.91825 -0.36065
v 3.63061 4.06218 -0.37960
v 3.79765 3.80973 -0.40389
v 3.57055 3.90170 -0.43575
v 3.33841 3.95596 -0.46038
v 3.52335 3.74501 -0.36764
v 3.30008 3.76974 -0.38440
v 3.07446 3.79056 -0.39792
v 3.28044 3.65483 -0.20991
v 3.06051 3.66380 -0.21576
v 2.83588 3.66766 -0.22199
v 2.60671 3.60482 0.00000
v 3.48260 3.60065 0.00000
v 4.25323 3.45966 0.00000
v 4.14622 3.77488 0.00000
v 4.22995 3.45631 -0.19824
v 4.12511 3.75856 -0.20086
v 4.15548 3.44305 -0.33273
v 4.05588 3.70648 -0.34074
v 4.06668 3.42924 -0.36565
v 3.97806 3.64758 -0.37434
v 3.96941 3.41604 -0.30429
v 3.89503 3.58496 -0.31654
v 3.73481 3.69490 -0.34370
v 3.83409 3.54078 -0.17570
v 3.68750 3.61716 -0.18647
v 3.49332 3.64348 -0.20159
v 3.67587 3.59107 0.00000
v 3.82032 3.53003 0.00000
v 3.87400 3.40691 0.00000
v 4.17329 2.83882 0.00000
v 4.25549 3.13327 0.00000
v 4.13949 2.85659 -0.20682
v 4.22727 3.14132 -0.20144
v 4.04924 2.90177 -0.36532
v 4.14458 3.16088 -0.34563
v 3.92654 2.97242 -0.41506
v 4.04356 3.19338 -0.38257
v 3.80955 3.04880 -0.35834
v 3.93801 3.22630 -0.32376
v 3.71645 3.10220 -0.19583
v 3.84446 3.24870 -0.18054
v 3.89356 3.40737 -0.17211
v 3.52507 2.97680 0.00000
v 4.04658 2.59200 0.00000
v 3.86739 2.40318 -0.21625
v 4.00774 2.61809 -0.21018
v 3.77592 2.47507 -0.39510
v 3.91956 2.67969 -0.38034
v 3.62682 2.59751 -0.46478
v 3.78026 2.78272 -0.44197
v 3.48271 2.71807 -0.38867
v 3.64434 2.88593 -0.37529
v 3.39618 2.79186 -0.21049
v 3.55820 2.94910 -0.20457
v 3.36058 2.82878 0.00000
v 3.22880 2.63605 -0.21718
v 3.05725 2.48145 -0.22523
v 3.31961 2.55082 -0.40085
v 3.15228 2.38634 -0.41438
v 2.97944 2.22443 -0.42967
v 2.88194 2.32973 -0.23489
v 3.46815 2.41643 -0.48133
v 3.30249 2.24046 -0.49813
v 3.13080 2.06745 -0.51410
v 2.95248 1.89660 -0.52594
v 2.80384 2.06206 -0.44030
v 3.45724 2.09457 -0.42117
v 3.62041 2.28102 -0.40817
v 3.71875 2.19966 -0.22363
v 2.42833 0.36298 0.00000
v 2.22764 0.13786 0.00000
v 1.92894 0.00000 0.00000
v 1.61276 0.02289 0.00000
v 3.02866 1.18481 0.00000
v 2.84234 2.37798 0.00000
v 2.06659 2.01354 0.00000
v 1.22417 1.80785 0.00000
v 0.95475 1.81229 0.00000
v 1.28205 2.52312 0.00000
v 1.45796 2.39785 0.00000
v 2.00407 1.65495 0.00000
v 2.73046 0.78634 0.00000
v 2.87853 0.98958 0.00000
v 1.91383 1.75746 0.00000
v 1.70933 1.79489 0.00000
v 1.46774 1.80345 0.00000
v 0.00000 2.87992 0.00000
v 0.79978 2.88052 0.00000
v 0.95518 2.76119 0.00000
v 1.11439 2.64299 0.00000
v 0.64721 3.00236 0.00000
v 0.21642 3.72652 0.00000
v 0.35292 3.25304 0.00000
v 0.63066 4.11411 0.00000
v 0.41052 3.94647 0.00000
v 0.60475 3.57237 0.00000
v 0.81127 3.57933 0.00000
v 2.14212 4.49701 0.00000
v 3.42931 4.31385 0.00000
v 1.62439 4.46074 0.00000
v 1.36595 4.41159 0.00000
v 1.88366 4.48959 0.00000
v 3.69329 4.20258 0.00000
v 3.05694 3.60612 0.00000
v 2.83364 3.60596 0.00000
v 3.27532 3.60366 0.00000
v 3.81907 3.25975 0.00000
v 3.68429 3.12055 0.00000
v 3.90928 2.37216 0.00000
v 3.18975 2.67719 0.00000
v 3.01617 2.52642 0.00000
v 3.76434 2.16526 0.00000
v 1.35172 0.18794 0.00000
v 1.63429 0.17192 0.38674
v 2.32515 1.78150 0.43498
v 1.38787 0.46293 0.37025
v 1.48589 0.29449 0.40149
v 1.64710 0.40834 0.50472
v 1.81433 0.21551 0.44731
v 1.91576 0.05236 0.25548
v 1.62075 0.06215 0.23983
v 1.38132 0.20627 0.23011
v 2.61234 1.90965 0.44479
v 2.76150 1.73558 0.53956
v 2.56878 1.58272 0.56069
v 2.32595 1.95569 0.21844
v 2.52693 2.04373 0.24397
v 1.49318 0.59415 0.42279
v 1.28939 0.47662 0.23280
v 1.38611 0.70143 0.23820
v 1.52811 0.86862 0.24709
v 1.64893 0.74235 0.45866
v 1.67410 1.02146 0.24666
v 1.80228 0.89797 0.46803
v 1.98743 0.71945 0.56827
v 1.82272 0.54598 0.55939
v 2.19800 0.54522 0.49559
v 2.02592 0.34919 0.48570
v 2.36055 0.41973 0.28105
v 2.18094 0.19697 0.27566
v 1.81685 1.17568 0.23932
v 2.95240 1.24777 0.25764
v 3.10289 1.43294 0.24923
v 3.25617 1.62403 0.24435
v 2.94891 1.55470 0.45014
v 3.12153 1.73071 0.44215
v 3.29016 1.91237 0.43239
v 3.40755 1.81580 0.23799
v 3.56377 2.00585 0.23102
v 2.70587 2.18191 0.24383
v 2.06064 1.99561 0.18773
v 1.83049 2.10959 0.19207
v 2.04070 1.92430 0.31629
v 1.80836 2.04866 0.32478
v 1.58908 2.14702 0.35885
v 1.62162 2.23014 0.20566
v 1.99561 1.87745 0.33649
v 1.77966 1.96572 0.36786
v 1.54553 2.03482 0.41225
v 1.30640 2.10884 0.44807
v 1.37414 2.25521 0.38453
v 1.74819 1.88402 0.32330
v 1.51033 1.92566 0.36276
v 1.26035 1.96121 0.38937
v 1.00449 1.99510 0.41078
v 1.07504 2.18566 0.47788
v 1.48211 1.84532 0.20857
v 1.23438 1.85997 0.21898
v 0.96859 1.86707 0.22945
v 0.67726 1.91486 0.23915
v 0.74408 2.05578 0.42766
v 0.39259 2.05962 0.24365
v 0.08191 2.60401 0.22486
v 0.18493 2.31303 0.23854
v 0.20399 2.66155 0.40574
v 0.30848 2.40372 0.42444
v 0.49518 2.18833 0.43253
v 0.49815 2.55324 0.49198
v 0.65578 2.39207 0.50303
v 0.85093 2.27318 0.49928
v 0.81247 2.58555 0.41874
v 0.98043 2.47279 0.41629
v 1.16998 2.36514 0.40475
v 1.07067 2.59040 0.22395
v 1.24342 2.47524 0.22211
v 1.42813 2.35383 0.21733
v 2.03036 1.65416 0.19327
v 2.02736 1.51120 0.20793
v 1.94038 1.34118 0.22825
v 2.16750 1.51805 0.42061
v 2.07350 1.26294 0.44418
v 1.94860 1.06901 0.45929
v 2.28304 1.14077 0.56872
v 2.14104 0.91934 0.57709
v 2.50417 0.98435 0.49017
v 2.35110 0.76245 0.49629
v 2.65955 0.85271 0.27691
v 2.50445 0.64528 0.27754
v 2.80659 1.05772 0.26732
v 2.64952 1.20503 0.47958
v 2.78677 1.38384 0.46627
v 2.41259 1.39128 0.55786
v 2.09903 1.68242 0.34465
v 1.92735 1.77027 0.18930
v 1.95528 1.81048 0.30322
v 2.15393 1.76738 0.39340
v 1.72095 1.82347 0.19413
v 0.03463 3.17538 0.18932
v 0.04034 2.88913 0.21131
v 0.10193 3.19139 0.31841
v 0.14167 2.92420 0.37056
v 0.18582 3.21642 0.36723
v 0.26320 2.98035 0.42521
v 0.37125 2.75456 0.46857
v 0.37296 3.04220 0.36928
v 0.51842 2.86873 0.39681
v 0.66160 2.71493 0.41048
v 0.60905 2.95841 0.21771
v 0.75870 2.82774 0.22290
v 0.91090 2.70738 0.22486
v 0.22817 3.71141 0.17608
v 0.09187 3.45808 0.17295
v 0.26119 3.67207 0.29824
v 0.13222 3.44783 0.28528
v 0.31308 3.61496 0.33830
v 0.19733 3.42876 0.32117
v 0.36665 3.56388 0.28715
v 0.25910 3.40777 0.27064
v 0.26664 3.23107 0.30615
v 0.30185 3.39281 0.16227
v 0.33112 3.24251 0.17625
v 0.46083 3.09995 0.20614
v 0.64616 4.07686 0.20860
v 0.42292 3.92016 0.19382
v 0.68623 3.98124 0.37234
v 0.45842 3.84879 0.33971
v 0.73688 3.84660 0.42356
v 0.50801 3.75566 0.38514
v 0.77473 3.71181 0.36140
v 0.55168 3.66513 0.33153
v 0.80023 3.61914 0.20631
v 0.58992 3.59888 0.18734
v 0.40428 3.52925 0.16728
v 1.12626 4.28854 0.22055
v 0.88072 4.19667 0.21529
v 1.15683 4.16506 0.40357
v 0.91824 4.08627 0.38991
v 1.19841 3.96447 0.47365
v 0.96701 3.91175 0.45174
v 1.23122 3.76939 0.39548
v 1.00408 3.74013 0.38042
v 1.24596 3.64824 0.21462
v 1.02288 3.63334 0.21113
v 1.47017 3.65648 0.22088
v 1.69621 3.66340 0.22557
v 1.45821 3.79213 0.40681
v 1.68749 3.80616 0.41650
v 1.91799 3.81704 0.42246
v 1.92334 3.66977 0.22858
v 1.43307 4.00321 0.48850
v 1.66923 4.02768 0.50059
v 1.90731 4.04351 0.50963
v 2.14661 4.04977 0.51110
v 2.14899 3.82193 0.42447
v 1.64888 4.25279 0.42286
v 1.89606 4.27418 0.43068
v 2.14443 4.28106 0.43230
v 2.39238 4.27600 0.42949
v 2.38630 4.04639 0.50835
v 1.88775 4.42381 0.23450
v 2.14250 4.43209 0.23568
v 2.39617 4.42586 0.23399
v 2.64913 4.40768 0.23038
v 2.63895 4.26107 0.42363
v 2.90245 4.37851 0.22644
v 3.41321 4.26535 0.21755
v 3.15653 4.33265 0.22211
v 3.38135 4.14795 0.39371
v 3.13276 4.20194 0.40760
v 2.88507 4.23719 0.41625
v 3.10190 3.99339 0.47915
v 2.86342 4.01854 0.49160
v 2.62519 4.03534 0.50327
v 2.84484 3.80433 0.40958
v 2.61304 3.81351 0.41826
v 2.38062 3.82086 0.42231
v 2.60803 3.67064 0.22650
v 2.37901 3.67192 0.22935
v 2.15092 3.67182 0.22995
v 1.63295 4.39727 0.23020
v 1.37811 4.35426 0.22574
v 1.40213 4.21870 0.41454
v 3.92439 3.99958 0.20753
v 3.67592 4.16515 0.21438
v 3.86754 3.91825 0.36065
v 3.63061 4.06218 0.37960
v 3.79765 3.80973 0.40389
v 3.57055 3.90170 0.43575
v 3.33841 3.95596 0.46038
v 3.52335 3.74501 0.36764
v 3.30008 3.76974 0.38440
v 3.07446 3.79056 0.39792
v 3.28044 3.65483 0.20991
v 3.06051 3.66380 0.21576
v 2.83588 3.66766 0.22199
v 4.22995 3.45631 0.19824
v 4.12511 3.75856 0.20086
v 4.15548 3.44305 0.33273
v 4.05588 3.70648 0.34074
v 4.06668 3.42924 0.36565
v 3.97806 3.64758 0.37434
v 3.96941 3.41604 0.30429
v 3.89503 3.58496 0.31654
v 3.73481 3.69490 0.34370
v 3.83409 3.54078 0.17570
v 3.68750 3.61716 0.18647
v 3.49332 3.64348 0.20159
v 4.13949 2.85659 0.20682
v 4.22727 3.14132 0.20144
v 4.04924 2.90177 0.36532
v 4.14458 3.16088 0.34563
v 3.92654 2.97242 0.41506
v 4.04356 3.19338 0.38257
v 3.80955 3.04880 0.35834
v 3.93801 3.22630 0.32376
v 3.71645 3.10220 0.19583
v 3.84446 3.24870 0.18054
v 3.89356 3.40737 0.17211
v 3.86739 2.40318 0.21625
v 4.00774 2.61809 0.21018
v 3.77592 2.47507 0.39510
v 3.91956 2.67969 0.38034
v 3.62682 2.59751 0.46478
v 3.78026 2.78272 0.44197
v 3.48271 2.71807 0.38867
v 3.64434 2.88593 0.37529
v 3.39618 2.79186 0.21049
v 3.55820 2.94910 0.20457
v 3.22880 2.63605 0.21718
v 3.05725 2.48145 0.22523
v 3.31961 2.55082 0.40085
v 3.15228 2.38634 0.41438
v 2.97944 2.22443 0.42967
v 2.88194 2.32973 0.23489
v 3.46815 2.41643 0.48133
v 3.30249 2.24046 0.49813
v 3.13080 2.06745 0.51410
v 2.95248 1.89660 0.52594
v 2.80384 2.06206 0.44030
v 3.45724 2.09457 0.42117
v 3.62041 2.28102 0.40817
v 3.71875 2.19966 0.22363
vn -0.24957 -0.64879 -0.71888
vn -0.50618 -0.38368 -0.77238
vn -0.27079 -0.17085 -0.94736
vn 0.00939 -0.56875 -0.82246
vn 0.16798 -0.87347 -0.45699
vn -0.28510 -0.87027 -0.40168
vn -0.72136 -0.57589 -0.38470
vn -0.22932 0.42526 -0.87554
vn -0.31981 0.51541 -0.79503
vn -0.19585 0.32946 -0.92363
vn -0.26900 0.28571 -0.91979
vn -0.15953 0.90051 -0.40451
vn -0.48279 0.76169 -0.43213
vn -0.69350 -0.00968 -0.72039
vn -0.56453 0.23337 -0.79173
vn -0.91328 0.01583 -0.40703
vn -0.77874 0.45622 -0.43062
vn -0.99983 0.01830 -0.00081
vn -0.86947 0.49399 -0.00043
vn -0.76340 0.64592 0.00028
vn -0.67361 0.57573 -0.46345
vn -0.47177 0.35390 -0.80758
vn -0.64530 0.59803 -0.47533
vn -0.44788 0.40013 -0.79956
vn -0.05874 0.02726 -0.99790
vn -0.12854 -0.04354 -0.99075
vn 0.39430 -0.32618 -0.85914
vn 0.25709 -0.42875 -0.86607
vn 0.68659 -0.52059 -0.50752
vn 0.52163 -0.68875 -0.50351
vn 0.79983 -0.60023 0.00029
vn 0.61307 -0.79003 -0.00033
vn 0.19744 -0.98031 -0.00031
vn -0.30243 -0.95317 0.00058
vn -0.73765 0.67519 0.00010
vn -0.75955 0.65045 -0.00001
vn -0.67086 0.57170 -0.47234
vn 0.79237 -0.61004 -0.00004
vn 0.74378 -0.56892 -0.35089
vn 0.67063 -0.50535 -0.54303
vn 0.66667 -0.52649 -0.52761
vn 0.68056 -0.53830 -0.49705
vn 0.79499 -0.60662 0.00003
vn 0.41995 -0.33538 -0.84330
vn 0.43527 -0.35705 -0.82647
vn 0.45976 -0.36391 -0.81005
vn 0.69365 -0.54953 -0.46569
vn 0.79150 -0.61117 -0.00002
vn 0.70563 -0.55656 -0.43855
vn 0.79023 -0.61281 -0.00002
vn -0.53622 0.84408 -0.00034
vn -0.62796 0.77825 0.00008
vn -0.56238 0.70017 -0.43987
vn -0.18144 0.98340 -0.00119
vn 0.27705 0.90165 -0.33208
vn 0.28123 0.95964 -0.00075
vn 0.46599 0.83024 -0.30585
vn 0.49472 0.86905 -0.00001
vn 0.16353 0.60785 -0.77703
vn 0.36316 0.57872 -0.73020
vn 0.37465 0.56160 -0.73772
vn 0.50090 0.79249 -0.34793
vn -0.11210 0.00306 -0.99369
vn 0.25661 0.31735 -0.91293
vn 0.26535 0.32704 -0.90699
vn 0.13853 -0.04336 -0.98941
vn 0.36014 0.52301 -0.77250
vn 0.03888 -0.42942 -0.90227
vn -0.00389 -0.44973 -0.89316
vn -0.08449 -0.70607 -0.70308
vn -0.00992 -0.68956 -0.72416
vn -0.01032 -0.64793 -0.76163
vn -0.04248 -0.60177 -0.79754
vn 0.11277 -0.03206 -0.99310
vn -0.05207 -0.93987 -0.33754
vn -0.03371 -0.92559 -0.37702
vn -0.08579 -0.90727 -0.41171
vn -0.27951 -0.85487 -0.43712
vn -0.16114 -0.53359 -0.83025
vn -0.02541 -0.99968 0.00010
vn -0.09093 -0.99586 -0.00010
vn -0.31579 -0.94883 0.00002
vn -0.63096 -0.77582 0.00012
vn -0.56361 -0.69598 -0.44492
vn -0.87292 -0.48787 -0.00006
vn -0.97268 -0.23215 -0.00008
vn -0.89168 -0.20746 -0.40234
vn -0.79077 -0.43644 -0.42919
vn -0.59370 -0.10682 -0.79757
vn -0.49413 -0.25180 -0.83213
vn -0.33854 -0.41323 -0.84536
vn -0.02871 0.08241 -0.99618
vn 0.00863 0.03478 -0.99936
vn 0.06450 -0.00698 -0.99789
vn 0.34307 0.46548 -0.81586
vn 0.33384 0.48212 -0.81001
vn 0.34287 0.49910 -0.79583
vn 0.50979 0.73009 -0.45507
vn 0.50260 0.74878 -0.43211
vn 0.50870 0.76343 -0.39800
vn 0.56818 0.82290 -0.00010
vn 0.56656 0.82402 0.00010
vn 0.54981 0.83529 0.00017
vn -0.94551 0.32560 -0.00011
vn -0.99430 0.10664 -0.00229
vn -0.88816 -0.33006 -0.31974
vn -0.88748 0.24830 -0.38823
vn -0.74470 0.50168 -0.44015
vn -0.81472 0.57985 0.00101
vn -0.57257 0.14716 -0.80654
vn -0.54822 0.35644 -0.75657
vn -0.48245 0.40151 -0.77848
vn -0.36894 0.25475 -0.89386
vn -0.05240 0.05776 -0.99695
vn 0.25335 -0.12041 -0.95985
vn 0.44501 -0.27155 -0.85336
vn 0.43695 -0.29774 -0.84878
vn 0.69872 -0.49047 -0.52079
vn 0.70748 -0.49013 -0.50916
vn 0.80767 -0.58964 0.00001
vn 0.81887 -0.57398 -0.00001
vn 0.69059 -0.48470 -0.53679
vn 0.80613 -0.59174 0.00006
vn 0.43185 -0.26924 -0.86082
vn 0.41924 -0.30160 -0.85631
vn 0.24339 -0.12967 -0.96122
vn 0.24835 -0.16777 -0.95403
vn 0.25756 -0.19587 -0.94620
vn -0.36998 0.22515 -0.90134
vn -0.62754 -0.25722 -0.73487
vn -0.49734 -0.82323 -0.27376
vn -0.39055 -0.58263 -0.71275
vn -0.75015 -0.66127 0.00003
vn -0.50738 -0.86172 0.00028
vn -0.31593 0.02154 -0.94854
vn -0.14739 -0.94416 -0.29467
vn -0.13653 -0.99064 0.00026
vn -0.04596 -0.99894 0.00011
vn -0.99811 -0.06152 0.00002
vn -0.99340 0.11470 -0.00017
vn -0.94873 0.10219 -0.29911
vn -0.92948 -0.05971 -0.36400
vn -0.71745 0.11450 -0.68714
vn -0.66584 -0.00576 -0.74607
vn -0.48557 0.13088 -0.86434
vn -0.43493 0.04531 -0.89932
vn -0.05921 0.14296 -0.98796
vn 0.31136 0.37046 -0.87511
vn 0.47906 0.50266 -0.71961
vn 0.41040 0.46669 -0.78344
vn 0.37415 0.45397 -0.80866
vn 0.60007 0.68002 -0.42130
vn 0.56505 0.68798 -0.45540
vn 0.53274 0.70674 -0.46551
vn 0.62594 0.77987 0.00005
vn 0.60378 0.79715 -0.00001
vn 0.58167 0.81342 -0.00002
vn -0.93761 0.34768 -0.00027
vn -0.81909 0.57367 0.00003
vn -0.79046 0.55877 -0.25090
vn -0.91033 0.33517 -0.24282
vn -0.61931 0.40059 -0.67526
vn -0.70424 0.26912 -0.65697
vn -0.41726 0.22016 -0.88172
vn -0.46456 0.19237 -0.86439
vn 0.56092 -0.11760 -0.81947
vn 0.30574 -0.46928 -0.82843
vn 0.44173 -0.62331 -0.64526
vn 0.74607 -0.16845 -0.64421
vn 0.67233 0.35158 -0.65143
vn 0.50305 0.28992 -0.81418
vn 0.94634 0.20159 -0.25260
vn 0.84312 0.44728 -0.29848
vn 0.64720 0.67148 -0.36089
vn 0.86935 0.49419 -0.00015
vn 0.67592 0.73698 0.00013
vn 0.64722 0.76231 -0.00016
vn 0.97278 0.23173 -0.00096
vn -0.67220 0.74037 0.00004
vn -0.53377 0.84563 -0.00002
vn -0.49400 0.79162 -0.35959
vn -0.63574 0.70805 -0.30741
vn -0.36118 0.52928 -0.76773
vn -0.48905 0.48680 -0.72378
vn -0.23719 0.27656 -0.93127
vn -0.33663 0.25742 -0.90577
vn 0.07321 -0.50182 -0.86187
vn -0.00240 -0.43206 -0.90184
vn 0.03348 -0.67659 -0.73560
vn 0.14270 -0.71580 -0.68357
vn 0.05861 -0.93469 -0.35059
vn 0.19420 -0.93384 -0.30039
vn 0.56775 -0.78084 -0.26068
vn 0.18427 -0.98288 0.00017
vn 0.57803 -0.81602 0.00007
vn 0.79484 -0.60682 0.00018
vn 0.77430 -0.58833 -0.23307
vn 0.05072 -0.99871 0.00032
vn -0.41671 0.90904 0.00000
vn -0.31337 0.94963 0.00001
vn -0.28281 0.86706 -0.41015
vn -0.38048 0.83822 -0.39067
vn -0.20157 0.56937 -0.79698
vn -0.27213 0.55250 -0.78784
vn -0.07312 -0.03819 -0.99659
vn -0.17499 0.28777 -0.94158
vn -0.01006 -0.39164 -0.92006
vn 0.02166 -0.62694 -0.77876
vn 0.02376 -0.64547 -0.76341
vn 0.04064 -0.91116 -0.41003
vn 0.05105 -0.92152 -0.38496
vn 0.03425 -0.99941 -0.00004
vn 0.04629 -0.99893 0.00008
vn 0.02262 -0.90186 -0.43144
vn 0.01916 -0.99982 0.00001
vn 0.01813 -0.89530 -0.44510
vn 0.01815 -0.99984 -0.00001
vn 0.00887 -0.61213 -0.79071
vn 0.00336 -0.60342 -0.79741
vn 0.00465 -0.59970 -0.80021
vn 0.01282 -0.89161 -0.45263
vn -0.05493 -0.02708 -0.99812
vn -0.04233 -0.02106 -0.99888
vn -0.02129 -0.01888 -0.99959
vn 0.00256 -0.01779 -0.99984
vn 0.00454 -0.59719 -0.80209
vn -0.09491 0.58086 -0.80845
vn -0.04955 0.58252 -0.81131
vn -0.00059 0.58330 -0.81226
vn 0.03718 0.58392 -0.81096
vn 0.01745 -0.01667 -0.99971
vn -0.06442 0.89289 -0.44564
vn -0.00276 0.89482 -0.44642
vn 0.04593 0.89329 -0.44712
vn 0.08936 0.89059 -0.44593
vn 0.06915 0.58392 -0.80886
vn -0.00359 0.99999 0.00000
vn 0.04837 0.99883 0.00000
vn 0.09848 0.99514 0.00003
vn 0.15726 0.98756 -0.00002
vn 0.13862 0.88831 -0.43782
vn 0.22843 0.97356 -0.00001
vn 0.32064 0.94720 -0.00006
vn 0.28889 0.86780 -0.40430
vn 0.20274 0.88332 -0.42266
vn 0.20767 0.56564 -0.79807
vn 0.14584 0.57859 -0.80247
vn 0.10100 0.58227 -0.80670
vn 0.10068 0.30950 -0.94555
vn 0.07232 0.31965 -0.94477
vn 0.05153 0.32560 -0.94410
vn 0.01235 -0.35811 -0.93360
vn 0.01916 -0.36270 -0.93171
vn 0.00660 -0.61107 -0.79155
vn 0.00386 -0.60324 -0.79755
vn 0.00177 -0.59815 -0.80139
vn -0.00232 -0.89524 -0.44559
vn 0.00009 -0.89116 -0.45369
vn 0.00478 -0.88997 -0.45600
vn 0.00212 -1.00000 0.00000
vn 0.00485 -0.99999 -0.00000
vn 0.01282 -0.99992 -0.00001
vn -0.22195 0.97506 0.00000
vn -0.14431 0.98953 -0.00003
vn -0.12864 0.88870 -0.44008
vn -0.19703 0.88248 -0.42709
vn -0.13979 0.57811 -0.80389
vn -0.07038 0.99752 0.00001
vn 0.47330 0.88090 -0.00002
vn 0.67750 0.73552 -0.00000
vn 0.63232 0.68682 -0.35839
vn 0.43378 0.81541 -0.38333
vn 0.43858 0.43402 -0.78694
vn 0.30475 0.52448 -0.79502
vn 0.26139 0.20381 -0.94347
vn 0.19208 0.26102 -0.94603
vn 0.13968 0.29346 -0.94571
vn 0.01691 -0.38460 -0.92293
vn -0.00117 -0.40920 -0.91244
vn -0.04001 -0.65927 -0.75084
vn -0.00894 -0.63723 -0.77062
vn -0.00110 -0.62232 -0.78276
vn 0.01746 -0.37181 -0.92814
vn -0.03013 -0.91638 -0.39916
vn -0.01651 -0.90744 -0.41986
vn -0.00469 -0.90070 -0.43442
vn -0.01354 -0.99991 0.00003
vn -0.00284 -1.00000 0.00000
vn 0.00041 -1.00000 -0.00000
vn 0.87402 0.48589 -0.00003
vn 0.98641 0.16430 0.00014
vn 0.93502 0.15543 -0.31872
vn 0.82416 0.45841 -0.33261
vn 0.85493 0.14182 -0.49898
vn 0.56226 0.29054 -0.77424
vn 0.33986 0.06441 -0.93827
vn 0.31461 0.13305 -0.93985
vn -0.33383 -0.34049 -0.87899
vn -0.49253 -0.05264 -0.86870
vn -0.69205 -0.06452 -0.71896
vn -0.49949 -0.48998 -0.71444
vn -0.19461 -0.65837 -0.72710
vn -0.10650 -0.42819 -0.89739
vn -0.68228 -0.66157 -0.31115
vn -0.26484 -0.90755 -0.32592
vn -0.06643 -0.92807 -0.36643
vn -0.25840 -0.96604 -0.00028
vn -0.05737 -0.99835 0.00006
vn -0.02602 -0.99966 -0.00009
vn -0.42239 -0.90641 -0.00088
vn 0.98996 -0.14133 -0.00001
vn 0.92648 -0.37634 -0.00003
vn 0.86224 -0.35477 -0.36150
vn 0.93249 -0.13742 -0.33404
vn 0.58922 -0.21722 -0.77823
vn 0.63365 -0.07343 -0.77013
vn 0.33032 -0.08359 -0.94016
vn 0.34391 -0.00873 -0.93896
vn -0.40542 0.24040 -0.88195
vn -0.26449 0.32565 -0.90774
vn -0.45121 0.48486 -0.74921
vn -0.59216 0.33902 -0.73104
vn -0.65879 0.66166 -0.35806
vn -0.81083 0.47197 -0.34613
vn -0.94224 -0.05920 -0.32968
vn -0.85742 0.51463 -0.00028
vn -0.94540 0.32592 -0.00065
vn -0.91452 -0.40453 0.00018
vn -0.70631 0.70791 0.00016
vn 0.86440 -0.50280 0.00006
vn 0.83014 -0.55755 -0.00002
vn 0.76080 -0.51386 -0.39640
vn 0.79839 -0.46665 -0.38053
vn 0.52481 -0.33259 -0.78356
vn 0.55126 -0.29599 -0.78007
vn 0.30412 -0.16071 -0.93898
vn 0.31606 -0.13278 -0.93940
vn -0.22883 0.30862 -0.92325
vn -0.23424 0.29847 -0.92523
vn -0.42543 0.47843 -0.76819
vn -0.42401 0.48823 -0.76279
vn -0.62552 0.67487 -0.39151
vn -0.63170 0.67944 -0.37325
vn -0.67527 0.73757 -0.00008
vn -0.68030 0.73294 0.00002
vn -0.60857 0.67903 -0.41055
vn -0.66454 0.74726 -0.00000
vn -0.59077 0.68634 -0.42418
vn -0.65344 0.75698 -0.00001
vn -0.41174 0.47798 -0.77589
vn -0.39105 0.48150 -0.78437
vn -0.37792 0.47669 -0.79369
vn -0.57729 0.69178 -0.43379
vn -0.23133 0.29928 -0.92570
vn -0.21852 0.30384 -0.92733
vn -0.21354 0.29817 -0.93032
vn -0.21236 0.30005 -0.92999
vn -0.36596 0.47590 -0.79975
vn 0.27685 -0.20361 -0.93909
vn 0.28647 -0.19196 -0.93866
vn 0.47810 -0.36444 -0.79913
vn 0.26135 -0.21040 -0.94203
vn 0.29283 -0.17962 -0.93914
vn 0.49857 -0.35453 -0.79103
vn 0.72923 -0.54374 -0.41540
vn 0.80464 -0.59377 0.00000
vn -0.64249 0.76630 -0.00000
vn -0.78086 -0.62470 0.00015
vn 0.00436 -0.57006 0.82159
vn -0.27688 -0.17414 0.94499
vn -0.50654 -0.38121 0.77337
vn -0.25029 -0.64784 0.71948
vn -0.28557 -0.86782 0.40663
vn 0.16553 -0.87285 0.45906
vn -0.71967 -0.57254 0.39277
vn -0.26769 0.28129 0.92153
vn -0.19640 0.32958 0.92347
vn -0.32027 0.51712 0.79374
vn -0.25719 0.44352 0.85857
vn -0.48335 0.76252 0.43004
vn -0.15447 0.90147 0.40434
vn -0.56739 0.23018 0.79062
vn -0.69307 -0.00839 0.72082
vn -0.91114 0.01699 0.41176
vn -0.77947 0.45334 0.43234
vn -0.67371 0.57537 0.46375
vn -0.47124 0.35416 0.80778
vn -0.44730 0.39963 0.80013
vn -0.64531 0.59805 0.47530
vn -0.12899 -0.04349 0.99069
vn -0.05809 0.02664 0.99796
vn 0.25614 -0.42920 0.86613
vn 0.39455 -0.32622 0.85902
vn 0.52195 -0.68885 0.50304
vn 0.68654 -0.52077 0.50741
vn -0.67073 0.57161 0.47263
vn 0.66619 -0.52715 0.52755
vn 0.67049 -0.50565 0.54292
vn 0.74374 -0.56899 0.35086
vn 0.68049 -0.53843 0.49702
vn 0.43534 -0.35707 0.82642
vn 0.41986 -0.33573 0.84321
vn 0.69410 -0.54905 0.46558
vn 0.46028 -0.36339 0.81000
vn 0.70584 -0.55633 0.43851
vn -0.56243 0.70000 0.44008
vn 0.28308 0.89949 0.33285
vn 0.46761 0.82944 0.30557
vn 0.27615 0.80796 0.52052
vn 0.36162 0.58216 0.72823
vn 0.50291 0.79140 0.34753
vn 0.37692 0.56080 0.73718
vn 0.25236 0.32588 0.91111
vn -0.12558 -0.00132 0.99208
vn 0.02033 0.32130 0.94676
vn 0.26588 0.32698 0.90686
vn 0.36230 0.52240 0.77191
vn 0.14032 -0.04403 0.98913
vn -0.01123 -0.68905 0.72462
vn -0.08490 -0.70641 0.70269
vn -0.00532 -0.44982 0.89310
vn 0.03883 -0.42910 0.90242
vn -0.01000 -0.64781 0.76174
vn 0.11185 -0.03228 0.99320
vn -0.04330 -0.60201 0.79731
vn -0.03360 -0.92542 0.37744
vn -0.05307 -0.93963 0.33805
vn -0.08534 -0.90748 0.41134
vn -0.16183 -0.53382 0.82997
vn -0.28001 -0.85502 0.43650
vn -0.56368 -0.69616 0.44455
vn -0.79075 -0.43647 0.42919
vn -0.89155 -0.20790 0.40239
vn -0.49414 -0.25109 0.83233
vn -0.59316 -0.10793 0.79781
vn -0.33857 -0.41342 0.84526
vn 0.00895 0.03474 0.99936
vn -0.02892 0.08362 0.99608
vn 0.06419 -0.00667 0.99792
vn 0.33407 0.48214 0.80990
vn 0.34322 0.46529 0.81591
vn 0.34313 0.49896 0.79581
vn 0.50259 0.74881 0.43208
vn 0.51019 0.72993 0.45487
vn 0.50888 0.76339 0.39784
vn -0.88917 0.25677 0.37875
vn -0.89378 -0.32005 0.31422
vn -0.74673 0.50093 0.43757
vn -0.55134 0.35768 0.75372
vn -0.60119 0.18567 0.77724
vn -0.48212 0.40072 0.77909
vn -0.05228 0.05737 0.99698
vn -0.37002 0.25480 0.89340
vn 0.43693 -0.29756 0.84886
vn 0.44501 -0.27220 0.85315
vn 0.25310 -0.12114 0.95983
vn 0.70757 -0.49015 0.50901
vn 0.69873 -0.49074 0.52053
vn 0.69059 -0.48485 0.53666
vn 0.43140 -0.26947 0.86098
vn 0.41900 -0.30134 0.85652
vn 0.24794 -0.16664 0.95434
vn 0.24223 -0.12966 0.96151
vn 0.25837 -0.19527 0.94610
vn -0.36836 0.22059 0.90314
vn -0.67293 -0.20340 0.71119
vn -0.39131 -0.58345 0.71166
vn -0.49768 -0.82336 0.27274
vn -0.38253 0.06714 0.92150
vn -0.14686 -0.94428 0.29458
vn -0.92953 -0.05803 0.36414
vn -0.94904 0.10286 0.29791
vn -0.66546 -0.00400 0.74643
vn -0.71596 0.11878 0.68797
vn -0.43410 0.04616 0.89968
vn -0.48013 0.13763 0.86633
vn -0.05835 0.14083 0.98831
vn 0.41136 0.46387 0.78460
vn 0.47835 0.49927 0.72243
vn 0.31030 0.35570 0.88159
vn 0.37414 0.45390 0.80870
vn 0.56548 0.68740 0.45576
vn 0.60049 0.67908 0.42221
vn 0.53280 0.70675 0.46543
vn -0.91126 0.33385 0.24113
vn -0.79122 0.55764 0.25101
vn -0.70317 0.26966 0.65791
vn -0.61994 0.39878 0.67576
vn -0.45892 0.19455 0.86692
vn -0.41691 0.21841 0.88232
vn 0.74701 -0.17086 0.64248
vn 0.44463 -0.61977 0.64668
vn 0.30816 -0.46525 0.82981
vn 0.56703 -0.11800 0.81520
vn 0.50420 0.28078 0.81667
vn 0.67188 0.34921 0.65317
vn 0.84251 0.44887 0.29781
vn 0.94591 0.19882 0.25636
vn 0.64639 0.67349 0.35860
vn -0.63594 0.70767 0.30787
vn -0.49336 0.79207 0.35947
vn -0.48867 0.48648 0.72425
vn -0.36006 0.53033 0.76753
vn -0.33569 0.25789 0.90598
vn -0.23608 0.27788 0.93115
vn 0.14245 -0.71416 0.68533
vn 0.03184 -0.67830 0.73409
vn -0.00418 -0.43423 0.90079
vn 0.07079 -0.49886 0.86379
vn 0.19471 -0.93360 0.30080
vn 0.05860 -0.93495 0.34992
vn 0.56851 -0.77995 0.26168
vn 0.77422 -0.58861 0.23264
vn -0.38059 0.83817 0.39067
vn -0.28283 0.86705 0.41016
vn -0.27234 0.55235 0.78787
vn -0.20165 0.56932 0.79700
vn -0.17528 0.28752 0.94160
vn -0.07324 -0.03825 0.99658
vn 0.02429 -0.64524 0.76359
vn 0.02108 -0.62712 0.77864
vn -0.00900 -0.39118 0.92027
vn 0.05104 -0.92148 0.38506
vn 0.04013 -0.91128 0.40983
vn 0.02244 -0.90189 0.43138
vn 0.01809 -0.89529 0.44511
vn 0.00871 -0.61215 0.79069
vn 0.00334 -0.60346 0.79739
vn 0.01276 -0.89162 0.45260
vn 0.00461 -0.59976 0.80017
vn -0.04240 -0.02114 0.99888
vn -0.05489 -0.02706 0.99813
vn -0.02130 -0.01892 0.99959
vn 0.00453 -0.59721 0.80208
vn 0.00256 -0.01782 0.99984
vn -0.04954 0.58254 0.81129
vn -0.09486 0.58092 0.80841
vn -0.00059 0.58330 0.81226
vn 0.01746 -0.01671 0.99971
vn 0.03720 0.58388 0.81099
vn -0.00277 0.89482 0.44641
vn -0.06441 0.89290 0.44563
vn 0.04594 0.89329 0.44713
vn 0.06922 0.58383 0.80892
vn 0.08942 0.89056 0.44600
vn 0.13852 0.88837 0.43774
vn 0.20276 0.88332 0.42265
vn 0.28894 0.86780 0.40428
vn 0.14579 0.57865 0.80244
vn 0.20794 0.56535 0.79821
vn 0.10094 0.58232 0.80667
vn 0.07235 0.31963 0.94478
vn 0.10057 0.30964 0.94552
vn 0.05162 0.32546 0.94415
vn 0.00378 -0.60320 0.79758
vn 0.00660 -0.61103 0.79158
vn 0.01901 -0.36253 0.93178
vn 0.01235 -0.35812 0.93360
vn 0.00173 -0.59812 0.80141
vn 0.00004 -0.89114 0.45372
vn -0.00238 -0.89521 0.44564
vn 0.00477 -0.88997 0.45599
vn -0.19707 0.88246 0.42711
vn -0.12853 0.88877 0.43997
vn -0.13985 0.57806 0.80392
vn 0.43384 0.81534 0.38341
vn 0.63243 0.68669 0.35846
vn 0.30482 0.52433 0.79509
vn 0.43849 0.43363 0.78721
vn 0.19215 0.26098 0.94603
vn 0.26102 0.20318 0.94371
vn 0.14002 0.29293 0.94583
vn -0.00960 -0.63679 0.77098
vn -0.04084 -0.65870 0.75130
vn -0.00332 -0.40620 0.91378
vn 0.01640 -0.38421 0.92310
vn 0.01741 -0.37176 0.92817
vn -0.00117 -0.62227 0.78280
vn -0.01670 -0.90741 0.41992
vn -0.03044 -0.91627 0.39940
vn -0.00462 -0.90072 0.43438
vn 0.82405 0.45835 0.33295
vn 0.93478 0.15539 0.31945
vn 0.56203 0.28971 0.77472
vn 0.63363 0.10923 0.76588
vn 0.31449 0.13178 0.94007
vn 0.34021 0.06420 0.93816
vn -0.49860 -0.49115 0.71427
vn -0.68734 -0.06625 0.72331
vn -0.48401 -0.05255 0.87349
vn -0.33173 -0.34567 0.87777
vn -0.10945 -0.43238 0.89503
vn -0.19593 -0.65942 0.72579
vn -0.26510 -0.90734 0.32628
vn -0.68257 -0.66087 0.31201
vn -0.06672 -0.92836 0.36565
vn 0.93246 -0.13770 0.33401
vn 0.86223 -0.35512 0.36117
vn 0.63371 -0.07325 0.77009
vn 0.58928 -0.21739 0.77814
vn 0.34412 -0.00797 0.93889
vn 0.33013 -0.08313 0.94027
vn -0.58997 0.34028 0.73222
vn -0.45208 0.48789 0.74672
vn -0.26666 0.33057 0.90533
vn -0.40264 0.24454 0.88209
vn -0.81075 0.47135 0.34715
vn -0.65901 0.66180 0.35738
vn -0.94172 -0.06061 0.33089
vn 0.79835 -0.46673 0.38052
vn 0.76079 -0.51389 0.39639
vn 0.55123 -0.29626 0.77998
vn 0.52489 -0.33242 0.78358
vn 0.31606 -0.13306 0.93936
vn 0.30417 -0.16052 0.93900
vn -0.42421 0.48794 0.76286
vn -0.42538 0.47856 0.76814
vn -0.23432 0.29821 0.92529
vn -0.22917 0.30770 0.92347
vn -0.63167 0.67954 0.37313
vn -0.62536 0.67514 0.39129
vn -0.60858 0.67905 0.41052
vn -0.59075 0.68636 0.42417
vn -0.41173 0.47801 0.77587
vn -0.39109 0.48143 0.78439
vn -0.57729 0.69172 0.43389
vn -0.37792 0.47654 0.79378
vn -0.21853 0.30374 0.92735
vn -0.23135 0.29925 0.92570
vn -0.21357 0.29806 0.93035
vn -0.36593 0.47585 0.79979
vn -0.21226 0.30032 0.92992
vn 0.47816 -0.36440 0.79911
vn 0.28649 -0.19195 0.93866
vn 0.27699 -0.20342 0.93909
vn 0.26164 -0.21011 0.94202
vn 0.49855 -0.35453 0.79105
vn 0.29282 -0.17967 0.93913
vn 0.72927 -0.54367 0.41544
f 1//1 4//2 5//3 6//4
f 1//1 6//4 7//5 8//6
f 1//1 8//6 9//7 4//2
f 2//8 10//9 11//10 12//11
f 2//8 13//12 14//13 10//9
f 3//14 15//15 5//3 4//2
f 3//14 4//2 9//7 16//16
f 3//14 16//16 17//17 15//15
f 17//17 16//16 18//18 19//19
f 17//17 19//19 20//20 21//21
f 17//17 21//21 22//22 15//15
f 22//22 21//21 23//23 24//24
f 22//22 24//24 25//25 26//26
f 22//22 26//26 5//3 15//15
f 26//26 25//25 27//27 28//28
f 26//26 28//28 6//4 5//3
f 28//28 27//27 29//29 30//30
f 28//28 30//30 7//5 6//4
f 30//30 29//29 292//31 293//32
f 30//30 293//32 294//33 7//5
f 294//33 295//34 8//6 7//5
f 31//35 32//36 33//37 23//23
f 31//35 23//23 21//21 20//20
f 35//38 296//39 37//40 38//41
f 35//38 38//41 39//42 36//43
f 39//42 38//41 40//44 41//45
f 39//42 41//45 42//46 43//47
f 39//42 43//47 44//48 36//43
f 44//48 43//47 45//49 46//50
f 48//51 47//52 49//53 14//13
f 48//51 14//13 13//12 50//54
f 50//54 13//12 51//55 298//56
f 51//55 52//57 53//58 298//56
f 51//55 13//12 2//8 54//59
f 51//55 54//59 55//60 52//57
f 55//60 56//61 57//62 52//57
f 55//60 54//59 58//63 59//64
f 55//60 59//64 60//65 56//61
f 60//65 61//66 62//67 56//61
f 60//68 59//69 63//70 64//71
f 60//68 64//71 65//72 61//66
f 65//72 66//73 67//74 61//66
f 65//72 64//71 68//75 69//76
f 65//72 69//76 70//77 66//73
f 70//77 71//78 72//79 66//73
f 70//77 69//76 299//80 300//81
f 70//77 300//81 73//82 71//78
f 73//82 74//83 75//84 71//78
f 76//85 77//86 78//87 79//88
f 76//85 79//88 75//84 74//83
f 79//88 78//87 80//89 81//90
f 79//88 81//90 82//91 75//84
f 82//91 81//90 83//92 84//93
f 82//91 84//93 85//94 72//79
f 82//91 72//79 71//78 75//84
f 85//94 84//93 86//95 87//96
f 85//94 87//96 88//97 67//74
f 85//94 67//74 66//73 72//79
f 88//97 87//96 89//98 90//99
f 88//97 90//99 91//100 62//67
f 88//97 62//67 61//66 67//74
f 91//100 90//99 301//101 302//102
f 91//100 302//102 92//103 57//62
f 91//100 57//62 56//61 62//67
f 92//103 53//58 52//57 57//62
f 93//104 303//105 94//106 95//107
f 93//104 95//107 96//108 34//109
f 96//108 33//37 32//36 34//109
f 96//108 95//107 97//110 98//111
f 96//108 98//111 99//112 33//37
f 99//112 24//24 23//23 33//37
f 99//112 98//111 100//113 101//114
f 99//112 101//114 25//25 24//24
f 101//114 100//115 102//116 103//117
f 101//114 103//117 27//27 25//25
f 103//117 102//116 104//118 105//119
f 103//117 105//119 29//29 27//27
f 105//119 104//118 304//120 106//121
f 105//119 106//121 292//31 29//29
f 304//120 104//118 107//122 305//123
f 107//122 104//118 102//116 108//124
f 107//122 108//124 109//125 37//40
f 107//122 37//40 296//39 305//123
f 109//125 108//124 110//126 12//127
f 109//125 12//127 11//128 40//44
f 109//125 40//44 38//41 37//40
f 108//124 102//116 100//115 110//126
f 100//113 98//111 97//110 110//129
f 95//107 94//106 111//130 97//110
f 94//106 112//131 113//132 111//130
f 94//106 303//133 306//134 112//131
f 113//132 63//70 59//69 58//63
f 113//132 58//63 114//135 111//130
f 113//132 112//131 115//136 63//70
f 115//136 68//75 64//71 63//70
f 115//136 112//131 306//134 307//137
f 115//136 307//137 308//138 68//75
f 308//138 299//80 69//76 68//75
f 309//139 116//140 117//141 118//142
f 309//139 118//142 78//87 77//86
f 118//142 117//141 119//143 120//144
f 118//142 120//144 80//89 78//87
f 120//144 119//143 121//145 122//146
f 120//144 122//146 123//147 80//89
f 123//147 122//148 124//149 125//150
f 123//147 125//150 126//151 83//92
f 123//147 83//92 81//90 80//89
f 126//151 125//150 127//152 128//153
f 126//151 128//153 129//154 86//95
f 126//151 86//95 84//93 83//92
f 129//154 128//153 310//155 311//156
f 129//154 311//156 312//157 89//98
f 129//154 89//98 87//96 86//95
f 312//157 301//101 90//99 89//98
f 131//158 314//159 132//160 133//161
f 131//158 133//161 117//141 116//140
f 133//161 132//160 134//162 135//163
f 133//161 135//163 119//143 117//141
f 135//163 134//162 136//164 137//165
f 135//163 137//165 121//145 119//143
f 137//166 136//167 138//168 139//169
f 137//166 139//169 140//170 121//171
f 140//170 139//169 141//172 142//173
f 140//170 142//173 143//174 124//149
f 140//170 124//149 122//148 121//171
f 143//174 142//173 315//175 130//176
f 143//174 130//176 313//177 127//152
f 143//174 127//152 125//150 124//149
f 315//175 142//173 141//172 144//178
f 317//179 316//180 146//181 147//182
f 317//179 147//182 132//160 314//159
f 147//182 146//181 148//183 149//184
f 147//182 149//184 134//162 132//160
f 149//184 148//183 150//185 151//186
f 149//184 151//186 136//164 134//162
f 151//187 150//188 152//189 153//190
f 151//187 153//190 138//168 136//167
f 153//190 152//189 154//191 155//192
f 153//190 155//192 156//193 138//168
f 156//193 155//192 318//194 145//195
f 156//193 145//195 144//196 141//197
f 156//193 141//197 139//169 138//168
f 318//194 155//192 154//191 319//198
f 159//199 158//200 160//201 161//202
f 159//199 161//202 146//181 316//180
f 161//202 160//201 162//203 163//204
f 161//202 163//204 148//183 146//181
f 163//204 162//203 164//205 165//206
f 163//204 165//206 150//185 148//183
f 165//207 164//205 166//208 167//209
f 165//207 167//209 152//189 150//188
f 167//209 166//208 168//210 169//211
f 167//209 169//211 154//191 152//189
f 169//211 168//210 170//212 157//213
f 169//211 157//213 319//198 154//191
f 170//212 168//210 172//214 171//215
f 172//214 173//216 174//217 171//215
f 172//214 168//210 166//208 175//218
f 172//214 175//218 176//219 173//216
f 176//219 177//220 178//221 173//216
f 176//219 175//218 179//222 180//223
f 176//219 180//223 181//224 177//220
f 181//224 182//225 183//226 177//220
f 181//224 180//223 184//227 185//228
f 181//224 185//228 186//229 182//225
f 186//229 187//230 188//231 182//225
f 186//229 185//228 189//232 190//233
f 186//229 190//233 191//234 187//230
f 191//234 192//235 193//236 187//230
f 191//234 190//233 320//237 194//238
f 191//234 194//238 195//239 192//235
f 195//239 196//240 197//241 192//235
f 198//242 321//243 199//244 200//245
f 198//242 200//245 197//241 196//240
f 200//245 199//244 201//246 202//247
f 200//245 202//247 203//248 197//241
f 203//248 202//247 204//249 205//250
f 203//248 205//250 206//251 193//236
f 203//248 193//236 192//235 197//241
f 206//252 205//253 207//254 208//255
f 206//252 208//255 209//256 188//231
f 206//251 188//231 187//230 193//236
f 209//256 208//255 210//257 211//258
f 209//256 211//258 212//259 183//226
f 209//256 183//226 182//225 188//231
f 212//259 211//258 213//260 214//261
f 212//259 214//261 215//262 178//221
f 212//259 178//221 177//220 183//226
f 215//262 174//217 173//216 178//221
f 323//263 322//264 216//265 217//266
f 323//263 217//266 160//201 158//200
f 217//266 216//265 184//227 218//267
f 217//266 218//267 162//203 160//201
f 218//267 184//227 180//223 179//222
f 218//267 179//222 164//205 162//203
f 216//265 189//232 185//228 184//227
f 216//265 322//264 324//268 189//232
f 324//268 320//237 190//233 189//232
f 325//269 219//270 220//271 221//272
f 325//269 221//272 199//244 321//243
f 221//272 220//271 222//273 223//274
f 221//272 223//274 201//246 199//244
f 223//274 222//273 224//275 225//276
f 223//274 225//276 226//277 201//246
f 226//278 225//279 227//280 228//281
f 226//278 228//281 229//282 204//283
f 226//277 204//249 202//247 201//246
f 229//282 228//281 230//284 231//285
f 229//282 231//285 232//286 207//254
f 229//282 207//254 205//253 204//283
f 232//286 231//285 326//287 327//288
f 232//286 327//288 233//289 210//257
f 232//286 210//257 208//255 207//254
f 233//289 213//260 211//258 210//257
f 236//290 235//291 237//292 238//293
f 236//290 238//293 220//271 219//270
f 238//293 237//292 239//294 240//295
f 238//293 240//295 222//273 220//271
f 240//295 239//296 241//296 242//297
f 240//295 242//297 224//275 222//273
f 242//298 241//299 243//300 244//301
f 242//298 244//301 245//302 224//303
f 245//302 244//301 246//304 247//305
f 245//302 247//305 248//306 227//280
f 245//302 227//280 225//279 224//303
f 248//306 247//305 249//307 234//308
f 248//306 234//308 328//309 230//284
f 248//306 230//284 228//281 227//280
f 249//307 247//305 246//304 250//310
f 253//311 252//312 254//313 255//314
f 253//311 255//314 237//292 235//291
f 255//314 254//313 256//315 257//316
f 255//314 257//316 239//294 237//292
f 257//316 256//315 258//317 259//318
f 257//316 259//318 241//296 239//296
f 259//319 258//320 260//321 261//322
f 259//319 261//322 243//300 241//299
f 261//322 260//321 262//323 263//324
f 261//322 263//324 264//325 243//300
f 264//325 263//324 329//326 251//327
f 264//325 251//328 250//328 246//304
f 264//325 246//304 244//301 243//300
f 329//326 263//324 262//323 330//329
f 266//330 331//331 267//332 268//333
f 266//330 268//333 254//313 252//312
f 268//333 267//332 269//334 270//335
f 268//333 270//335 256//315 254//313
f 270//335 269//334 271//336 272//337
f 270//335 272//337 258//317 256//315
f 272//338 271//339 273//340 274//341
f 272//338 274//341 260//321 258//320
f 274//341 273//340 275//342 276//343
f 274//341 276//343 262//323 260//321
f 276//343 275//342 277//344 265//345
f 276//343 265//345 330//329 262//323
f 277//344 275//342 278//346 332//347
f 278//346 279//348 333//349 332//347
f 278//346 275//342 273//340 280//350
f 278//346 280//350 281//351 279//348
f 281//351 282//352 283//353 279//348
f 281//351 280//350 284//354 285//355
f 281//351 285//355 286//356 282//352
f 286//356 287//357 288//358 282//352
f 286//359 285//360 289//361 42//46
f 286//359 42//46 41//45 287//362
f 289//361 285//360 284//363 290//364
f 289//361 290//364 291//365 45//49
f 289//361 45//49 43//47 42//46
f 291//365 290//364 269//334 267//332
f 291//365 267//332 331//331 334//366
f 291//365 334//366 46//50 45//49
f 290//364 284//363 271//336 269//334
f 288//358 10//9 14//13 49//53
f 288//358 49//53 283//353 282//352
f 288//358 287//357 11//10 10//9
f 287//362 41//45 40//44 11//128
f 284//354 280//350 273//340 271//339
f 283//353 49//53 47//52 297//367
f 283//353 297//367 333//349 279//348
f 328//309 326//287 231//285 230//284
f 179//222 175//218 166//208 164//205
f 313//177 310//155 128//153 127//152
f 58//63 54//59 2//8 114//135
f 295//34 335//368 9//7 8//6
f 335//368 18//18 16//16 9//7
f 2//8 12//11 110//129 97//110
f 114//135 2//8 97//110 111//130
f 341//369 340//370 339//371 336//372
f 343//373 342//374 341//369 336//372
f 339//371 344//375 343//373 336//372
f 347//376 346//377 345//378 337//379
f 345//378 349//380 348//381 337//379
f 339//371 340//370 350//382 338//383
f 351//384 344//375 339//371 338//383
f 350//382 352//385 351//384 338//383
f 19//19 18//18 351//384 352//385
f 353//386 20//20 19//19 352//385
f 350//382 354//387 353//386 352//385
f 356//388 355//389 353//386 354//387
f 358//390 357//391 356//388 354//387
f 350//382 340//370 358//390 354//387
f 360//392 359//393 357//391 358//390
f 340//370 341//369 360//392 358//390
f 362//394 361//395 359//393 360//392
f 341//369 342//374 362//394 360//392
f 293//32 292//31 361//395 362//394
f 342//374 294//33 293//32 362//394
f 342//374 343//373 295//34 294//33
f 355//389 363//396 32//36 31//35
f 20//20 353//386 355//389 31//35
f 365//397 364//398 296//399 35//38
f 36//43 366//400 365//397 35//38
f 368//401 367//402 365//397 366//400
f 370//403 369//404 368//401 366//400
f 36//43 44//48 370//403 366//400
f 46//50 371//405 370//403 44//48
f 349//380 372//406 47//52 48//51
f 50//54 348//381 349//380 48//51
f 298//56 373//407 348//381 50//54
f 298//56 53//58 374//408 373//407
f 375//409 337//379 348//381 373//407
f 374//408 376//410 375//409 373//407
f 374//408 378//411 377//412 376//410
f 380//413 379//414 375//415 376//410
f 377//412 381//416 380//413 376//410
f 377//412 383//417 382//418 381//416
f 385//419 384//420 380//421 381//422
f 382//418 386//423 385//419 381//422
f 382//418 388//424 387//425 386//423
f 390//426 389//427 385//419 386//423
f 387//425 391//428 390//426 386//423
f 387//425 393//429 392//430 391//428
f 300//81 299//80 390//426 391//428
f 392//430 73//82 300//81 391//428
f 392//430 394//431 74//83 73//82
f 396//432 395//433 77//86 76//85
f 74//83 394//431 396//432 76//85
f 398//434 397//435 395//433 396//432
f 394//431 399//436 398//434 396//432
f 401//437 400//438 398//434 399//436
f 393//429 402//439 401//437 399//436
f 394//431 392//430 393//429 399//436
f 404//440 403//441 401//437 402//439
f 388//424 405//442 404//440 402//439
f 393//429 387//425 388//424 402//439
f 407//443 406//444 404//440 405//442
f 383//417 408//445 407//443 405//442
f 388//424 382//418 383//417 405//442
f 302//102 301//101 407//443 408//445
f 378//411 92//103 302//102 408//445
f 383//417 377//412 378//411 408//445
f 378//411 374//408 53//58 92//103
f 410//446 409//447 303//105 93//104
f 34//109 411//448 410//446 93//104
f 34//109 32//36 363//396 411//448
f 413//449 412//450 410//446 411//448
f 363//396 414//451 413//449 411//448
f 363//396 355//389 356//388 414//451
f 416//452 415//453 413//449 414//451
f 356//388 357//391 416//452 414//451
f 418//454 417//455 415//456 416//452
f 357//391 359//393 418//454 416//452
f 420//457 419//458 417//455 418//454
f 359//393 361//395 420//457 418//454
f 106//121 304//120 419//458 420//457
f 361//395 292//31 106//121 420//457
f 305//123 421//459 419//458 304//120
f 422//460 417//455 419//458 421//459
f 364//398 423//461 422//460 421//459
f 305//123 296//399 364//398 421//459
f 347//462 424//463 422//460 423//461
f 367//402 346//464 347//462 423//461
f 364//398 365//397 367//402 423//461
f 424//463 415//456 417//455 422//460
f 424//465 412//450 413//449 415//453
f 412//450 425//466 409//447 410//446
f 425//466 427//467 426//468 409//447
f 426//468 306//134 303//133 409//447
f 379//414 380//421 384//420 427//467
f 425//466 428//469 379//414 427//467
f 384//420 429//470 426//468 427//467
f 384//420 385//419 389//427 429//470
f 307//137 306//134 426//468 429//470
f 389//427 308//138 307//137 429//470
f 389//427 390//426 299//80 308//138
f 431//471 430//472 116//140 309//139
f 77//86 395//433 431//471 309//139
f 433//473 432//474 430//472 431//471
f 395//433 397//435 433//473 431//471
f 435//475 434//476 432//474 433//473
f 397//435 436//477 435//475 433//473
f 438//478 437//479 435//480 436//477
f 400//438 439//481 438//478 436//477
f 397//435 398//434 400//438 436//477
f 441//482 440//483 438//478 439//481
f 403//441 442//484 441//482 439//481
f 400//438 401//437 403//441 439//481
f 311//156 310//155 441//482 442//484
f 406//444 312//157 311//156 442//484
f 403//441 404//440 406//444 442//484
f 406//444 407//443 301//101 312//157
f 444//485 443//486 314//159 131//158
f 116//140 430//472 444//485 131//158
f 446//487 445//488 443//486 444//485
f 430//472 432//474 446//487 444//485
f 448//489 447//490 445//488 446//487
f 432//474 434//476 448//489 446//487
f 450//491 449//492 447//493 448//494
f 434//495 451//496 450//491 448//494
f 453//497 452//498 450//491 451//496
f 437//479 454//499 453//497 451//496
f 434//495 435//480 437//479 451//496
f 130//176 315//175 453//497 454//499
f 440//483 313//177 130//176 454//499
f 437//479 438//478 440//483 454//499
f 144//178 452//498 453//497 315//175
f 456//500 455//501 316//180 317//179
f 314//159 443//486 456//500 317//179
f 458//502 457//503 455//501 456//500
f 443//486 445//488 458//502 456//500
f 460//504 459//505 457//503 458//502
f 445//488 447//490 460//504 458//502
f 462//506 461//507 459//508 460//509
f 447//493 449//492 462//506 460//509
f 464//510 463//511 461//507 462//506
f 449//492 465//512 464//510 462//506
f 145//195 318//194 464//510 465//512
f 452//513 144//196 145//195 465//512
f 449//492 450//491 452//513 465//512
f 319//198 463//511 464//510 318//194
f 467//514 466//515 158//200 159//199
f 316//180 455//501 467//514 159//199
f 469//516 468//517 466//515 467//514
f 455//501 457//503 469//516 467//514
f 471//518 470//519 468//517 469//516
f 457//503 459//505 471//518 469//516
f 473//520 472//521 470//519 471//522
f 459//508 461//507 473//520 471//522
f 475//523 474//524 472//521 473//520
f 461//507 463//511 475//523 473//520
f 157//213 170//212 474//524 475//523
f 463//511 319//198 157//213 475//523
f 171//215 476//525 474//524 170//212
f 171//215 174//217 477//526 476//525
f 478//527 472//521 474//524 476//525
f 477//526 479//528 478//527 476//525
f 477//526 481//529 480//530 479//528
f 483//531 482//532 478//527 479//528
f 480//530 484//533 483//531 479//528
f 480//530 486//534 485//535 484//533
f 488//536 487//537 483//531 484//533
f 485//535 489//538 488//536 484//533
f 485//535 491//539 490//540 489//538
f 493//541 492//542 488//536 489//538
f 490//540 494//543 493//541 489//538
f 490//540 496//544 495//545 494//543
f 194//238 320//237 493//541 494//543
f 495//545 195//239 194//238 494//543
f 495//545 497//546 196//240 195//239
f 499//547 498//548 321//243 198//242
f 196//240 497//546 499//547 198//242
f 501//549 500//550 498//548 499//547
f 497//546 502//551 501//549 499//547
f 504//552 503//553 501//549 502//551
f 496//544 505//554 504//552 502//551
f 497//546 495//545 496//544 502//551
f 507//555 506//556 504//557 505//558
f 491//539 508//559 507//555 505//558
f 496//544 490//540 491//539 505//554
f 510//560 509//561 507//555 508//559
f 486//534 511//562 510//560 508//559
f 491//539 485//535 486//534 508//559
f 214//261 213//260 510//560 511//562
f 481//529 215//262 214//261 511//562
f 486//534 480//530 481//529 511//562
f 481//529 477//526 174//217 215//262
f 513//563 512//564 322//264 323//263
f 158//200 466//515 513//563 323//263
f 514//565 487//537 512//564 513//563
f 466//515 468//517 514//565 513//563
f 482//532 483//531 487//537 514//565
f 468//517 470//519 482//532 514//565
f 487//537 488//536 492//542 512//564
f 492//542 324//268 322//264 512//564
f 492//542 493//541 320//237 324//268
f 516//566 515//567 219//270 325//269
f 321//243 498//548 516//566 325//269
f 518//568 517//569 515//567 516//566
f 498//548 500//550 518//568 516//566
f 520//570 519//571 517//569 518//568
f 500//550 521//572 520//570 518//568
f 523//573 522//574 520//575 521//576
f 503//577 524//578 523//573 521//576
f 500//550 501//549 503//553 521//572
f 526//579 525//580 523//573 524//578
f 506//556 527//581 526//579 524//578
f 503//577 504//557 506//556 524//578
f 327//288 326//287 526//579 527//581
f 509//561 233//289 327//288 527//581
f 506//556 507//555 509//561 527//581
f 509//561 510//560 213//260 233//289
f 529//582 528//583 235//291 236//290
f 219//270 515//567 529//582 236//290
f 531//584 530//585 528//583 529//582
f 515//567 517//569 531//584 529//582
f 533//586 532//587 530//585 531//584
f 517//569 519//571 533//586 531//584
f 535//588 534//589 532//590 533//591
f 519//592 536//593 535//588 533//591
f 538//594 537//595 535//588 536//593
f 522//574 539//596 538//594 536//593
f 519//592 520//575 522//574 536//593
f 234//308 249//307 538//594 539//596
f 525//580 328//309 234//308 539//596
f 522//574 523//573 525//580 539//596
f 250//310 537//595 538//594 249//307
f 541//597 540//598 252//312 253//311
f 235//291 528//583 541//597 253//311
f 543//599 542//600 540//598 541//597
f 528//583 530//585 543//599 541//597
f 545//601 544//602 542//600 543//599
f 530//585 532//587 545//601 543//599
f 547//603 546//604 544//605 545//606
f 532//590 534//589 547//603 545//606
f 549//607 548//608 546//604 547//603
f 534//589 550//609 549//607 547//603
f 251//327 329//326 549//607 550//609
f 537//595 250//328 251//328 550//609
f 534//589 535//588 537//595 550//609
f 330//329 548//608 549//607 329//326
f 552//610 551//611 331//331 266//330
f 252//312 540//598 552//610 266//330
f 554//612 553//613 551//611 552//610
f 540//598 542//600 554//612 552//610
f 556//614 555//615 553//613 554//612
f 542//600 544//602 556//614 554//612
f 558//616 557//617 555//618 556//619
f 544//605 546//604 558//616 556//619
f 560//620 559//621 557//617 558//616
f 546//604 548//608 560//620 558//616
f 265//345 277//344 559//621 560//620
f 548//608 330//329 265//345 560//620
f 332//347 561//622 559//621 277//344
f 332//347 333//349 562//623 561//622
f 563//624 557//617 559//621 561//622
f 562//623 564//625 563//624 561//622
f 562//623 566//626 565//627 564//625
f 568//628 567//629 563//624 564//625
f 565//627 569//630 568//628 564//625
f 565//627 571//631 570//632 569//630
f 369//404 572//633 568//634 569//635
f 570//636 368//401 369//404 569//635
f 573//637 567//638 568//634 572//633
f 371//405 574//639 573//637 572//633
f 369//404 370//403 371//405 572//633
f 551//611 553//613 573//637 574//639
f 334//366 331//331 551//611 574//639
f 371//405 46//50 334//366 574//639
f 553//613 555//615 567//638 573//637
f 372//406 349//380 345//378 571//631
f 565//627 566//626 372//406 571//631
f 345//378 346//377 570//632 571//631
f 346//464 367//402 368//401 570//636
f 555//618 557//617 563//624 567//629
f 297//367 47//52 372//406 566//626
f 562//623 333//349 297//367 566//626
f 525//580 526//579 326//287 328//309
f 470//519 472//521 478//527 482//532
f 440//483 441//482 310//155 313//177
f 428//469 337//379 375//415 379//414
f 343//373 344//375 335//368 295//34
f 344//375 351//384 18//18 335//368
f 412//450 424//465 347//376 337//379
f 425//466 412//450 337//379 428//469
