# pilowlava3D glyph 'a' variant 1 — Vincent Wagner / Velvetyne, Free Art License
v 3.21658 0.20306 -0.42338
v 0.87425 1.96227 -0.45371
v 0.49888 2.33022 -0.43711
v 2.97577 1.49578 -0.36080
v 3.77469 0.44692 -0.52556
v 3.15355 1.28472 -0.57114
v 0.20649 0.77629 -0.48323
v 0.30868 0.36477 -0.48140
v 3.14571 0.11084 -0.24567
v 2.93764 0.31316 -0.26285
v 3.10845 0.35710 -0.47295
v 3.33617 0.37306 -0.56923
v 3.40079 0.17815 -0.44283
v 3.41931 0.03934 -0.23699
v 0.65283 2.11207 -0.49237
v 0.82055 2.26425 -0.59354
v 1.05019 2.04683 -0.49826
v 0.85568 1.81989 -0.28485
v 0.51837 1.97394 -0.28971
v 1.17066 1.88095 -0.28131
v 0.36634 2.30845 -0.27524
v 0.43093 2.60517 -0.27185
v 0.59605 2.49118 -0.48637
v 2.92035 1.54847 -0.21913
v 3.02316 1.70227 -0.24598
v 3.17179 1.58727 -0.49451
v 2.79929 1.38995 -0.35555
v 2.72834 1.44822 -0.19357
v 3.74618 0.67360 -0.58369
v 3.95094 0.67060 -0.43803
v 3.88713 0.37645 -0.42077
v 3.58445 0.38273 -0.57396
v 3.48717 0.65268 -0.66047
v 3.66202 0.20252 -0.43610
v 3.35451 0.95396 -0.65502
v 3.16353 0.91752 -0.59847
v 2.99203 1.18105 -0.51785
v 3.56772 1.25351 -0.59955
v 3.66313 0.96414 -0.60940
v 2.74674 1.32666 -0.37437
v 0.06523 0.83491 -0.29727
v 0.23221 1.08793 -0.31169
v 0.34590 0.88802 -0.53046
v 0.24372 0.56851 -0.51340
v 0.06416 0.52447 -0.29101
v 0.43712 0.61077 -0.61197
v 0.48908 0.32524 -0.52222
v 0.47380 0.11499 -0.29930
v 0.21079 0.25499 -0.29875
v 0.45388 0.03884 0.00000
v 0.16264 0.20545 0.00000
v 0.00289 0.50841 0.00000
v 0.00000 0.86609 0.00000
v 0.17749 1.15787 0.00000
v 0.45860 1.30077 0.00000
v 0.49245 1.20919 -0.30479
v 0.73819 1.35186 0.00000
v 0.99707 1.26733 -0.28421
v 0.75201 1.25623 -0.29674
v 1.01649 1.06640 -0.52093
v 0.78788 1.03019 -0.53464
v 0.56421 0.97995 -0.53872
v 0.85977 0.70651 -0.62709
v 0.65421 0.65544 -0.62815
v 0.97259 0.39699 -0.52646
v 0.73329 0.32845 -0.53482
v 1.05676 0.19835 -0.28875
v 0.77519 0.09986 -0.30023
v 1.08704 0.11538 0.00000
v 0.78369 0.01685 0.00000
v 1.47839 1.37758 0.00000
v 1.47760 1.30728 -0.27119
v 1.23857 1.28373 -0.27575
v 1.49997 1.15545 -0.49029
v 1.25311 1.10770 -0.50585
v 1.55789 0.96462 -0.57544
v 1.31452 0.86649 -0.60217
v 1.08108 0.77728 -0.61878
v 1.41730 0.64109 -0.50428
v 1.19782 0.50808 -0.51569
v 1.51155 0.49913 -0.27359
v 1.29849 0.34264 -0.27998
v 1.34413 0.27113 0.00000
v 1.71164 1.38663 0.00000
v 1.96109 1.35513 -0.23536
v 1.71544 1.32715 -0.26105
v 2.00203 1.27268 -0.40560
v 1.75515 1.21344 -0.46173
v 2.05374 1.15886 -0.47462
v 1.81378 1.06392 -0.54504
v 2.09223 1.03908 -0.41179
v 1.86742 0.91037 -0.46659
v 1.63674 0.77901 -0.48927
v 1.91127 0.79800 -0.26047
v 1.71212 0.65410 -0.26848
v 1.94260 0.75092 0.00000
v 2.12923 0.90386 0.00000
v 2.46740 1.42505 0.00000
v 2.47390 1.41004 -0.18591
v 2.21481 1.38486 -0.20316
v 2.48778 1.37306 -0.31094
v 2.24217 1.33104 -0.34272
v 2.50501 1.31908 -0.36851
v 2.27778 1.25126 -0.40503
v 2.51689 1.26081 -0.30563
v 2.30238 1.16541 -0.34585
v 2.52397 1.22006 -0.18486
v 2.31535 1.09922 -0.20411
v 2.11288 0.94537 -0.23658
v 2.69949 1.20601 0.00000
v 2.80596 0.82867 0.00000
v 2.80342 0.58514 0.00000
v 2.88219 0.29388 0.00000
v 2.87391 0.59050 -0.25521
v 3.11456 0.07789 0.00000
v 3.41963 0.00000 0.00000
v 3.72818 0.08328 -0.23684
v 3.74823 0.04731 0.00000
v 4.03464 0.28489 0.00000
v 4.14635 0.63664 0.00000
v 4.13472 0.97109 0.00000
v 3.99503 0.31109 -0.23795
v 4.09068 0.64964 -0.23758
v 4.06600 0.97057 -0.24013
v 3.91293 0.97073 -0.45557
v 3.85069 1.25292 -0.45698
v 4.00714 1.26752 -0.24040
v 4.08134 1.27546 0.00000
v 3.95250 1.55576 -0.24338
v 3.88384 2.37887 0.00000
v 3.83787 2.63765 0.00000
v 3.86159 2.10508 -0.24356
v 3.82270 2.36897 -0.24051
v 3.78225 2.62753 -0.23745
v 3.69086 2.35664 -0.45026
v 3.65894 2.61547 -0.44371
v 3.62703 2.87234 -0.44069
v 3.74153 2.88344 -0.23674
v 3.79225 2.89298 0.00000
v 3.70137 3.13962 -0.23781
v 3.74623 3.14721 0.00000
v 3.00537 1.93052 0.00000
v 2.97271 1.73244 0.00000
v 3.07606 1.90770 -0.25922
v 2.89265 1.57304 0.00000
v 2.71421 1.46318 0.00000
v 3.10300 2.13385 -0.25859
v 3.25699 2.10896 -0.48691
v 3.24588 1.85705 -0.49793
v 3.50166 2.09230 -0.57082
v 3.52167 1.81892 -0.58588
v 3.53309 1.52720 -0.59591
v 3.75599 1.81636 -0.46292
v 3.79763 1.53260 -0.46001
v 3.90580 1.83343 -0.24586
v 3.72184 2.09188 -0.45573
v 3.48358 2.35345 -0.55508
v 3.26472 2.35953 -0.46836
v 3.27335 2.61121 -0.45679
v 3.46916 2.61075 -0.53901
v 3.28723 2.86531 -0.44838
v 3.45898 2.86707 -0.52505
v 3.29907 3.11999 -0.43974
v 3.44843 3.12386 -0.51066
v 3.59596 3.13073 -0.43804
v 3.43655 3.38012 -0.49535
v 3.56500 3.38846 -0.43055
v 3.66016 3.39692 -0.23669
v 3.53958 3.65051 -0.41710
v 3.62011 3.65806 -0.23366
v 3.65428 3.66078 0.00000
v 3.70011 3.40140 0.00000
v 3.11399 2.87657 0.00000
v 3.08789 2.62755 0.00000
v 3.06084 2.38381 0.00000
v 3.14563 2.61946 -0.24539
v 3.12487 2.37340 -0.25182
v 3.16677 2.86969 -0.24222
v 3.14192 3.12522 0.00000
v 3.18950 3.12069 -0.23941
v 3.16920 3.37386 0.00000
v 3.20966 3.37300 -0.23638
v 3.30712 3.37531 -0.43039
v 3.23131 3.62025 -0.23341
v 3.31462 3.62961 -0.41407
v 3.42673 3.63987 -0.47785
v 3.31156 3.88188 -0.39000
v 3.40683 3.90300 -0.45759
v 3.50696 3.92316 -0.39623
v 3.32967 4.15715 -0.43367
v 3.41104 4.19843 -0.37192
v 3.46816 4.22587 -0.22121
v 3.57279 3.93658 -0.22977
v 3.60145 3.94125 0.00000
v 3.19648 3.61818 0.00000
v 3.21710 3.84770 0.00000
v 3.24484 3.85846 -0.22287
v 3.20049 4.05874 0.00000
v 3.21643 4.07327 -0.20595
v 3.25998 4.11108 -0.35599
v 3.10514 4.24771 -0.19049
v 3.12587 4.28694 -0.32360
v 3.15743 4.34557 -0.40539
v 2.91324 4.35505 -0.31154
v 2.91484 4.41342 -0.38592
v 2.91732 4.48203 -0.32975
v 3.20295 4.40865 -0.34960
v 2.92204 4.52125 -0.19891
v 3.23872 4.45199 -0.20820
v 2.92413 4.53557 0.00000
v 2.90943 4.31483 -0.18398
v 2.70825 4.21771 0.00000
v 2.70614 4.23808 -0.19194
v 2.69653 4.28489 -0.33449
v 2.54618 4.07065 -0.21143
v 2.51922 4.12396 -0.37497
v 2.46454 4.19736 -0.43684
v 2.67056 4.35187 -0.40127
v 2.40116 4.26711 -0.37358
v 2.63601 4.41560 -0.33581
v 2.35823 4.30887 -0.21646
v 2.61476 4.45639 -0.20297
v 2.60632 4.47136 0.00000
v 2.42646 3.85264 0.00000
v 2.40551 3.87616 -0.22669
v 2.30969 3.64173 0.00000
v 1.51252 3.67230 0.00000
v 1.31901 3.51148 0.00000
v 1.12469 3.35361 0.00000
v 0.93132 3.19703 0.00000
v 1.36051 3.45712 -0.25408
v 1.16912 3.29174 -0.26165
v 0.98188 3.12964 -0.26705
v 1.27576 3.17240 -0.48435
v 1.09633 2.99062 -0.49973
v 0.92311 2.81679 -0.50866
v 0.79506 2.96772 -0.27012
v 0.74003 3.03891 0.00000
v 0.60457 2.81051 -0.27313
v 1.97055 2.97772 0.00000
v 2.08423 3.20299 0.00000
v 2.19730 3.42394 0.00000
v 2.03033 3.23063 -0.24894
v 2.15030 3.45034 -0.24412
v 2.27488 3.66854 -0.23697
v 2.05909 3.51891 -0.44505
v 2.20180 3.73132 -0.42905
v 2.35450 3.93614 -0.40752
v 2.10795 3.81354 -0.49625
v 2.28120 4.01115 -0.46826
v 2.01159 3.90008 -0.43251
v 2.20115 4.08632 -0.40913
v 1.93922 3.96539 -0.23853
v 2.14248 4.13626 -0.22798
v 1.74081 3.79590 -0.24477
v 1.54730 3.62594 -0.24944
v 1.82213 3.71864 -0.44805
v 1.63748 3.53388 -0.45924
v 1.45600 3.35288 -0.46970
v 1.77814 3.41521 -0.54281
v 1.61589 3.21281 -0.56585
v 1.45298 3.01455 -0.58461
v 1.78574 3.08340 -0.47163
v 1.64306 2.86940 -0.48465
v 1.50652 2.65312 -0.49838
v 1.29176 2.80940 -0.60266
v 1.38439 2.42739 -0.51514
v 1.14071 2.60769 -0.61832
v 1.24228 2.21358 -0.52327
v 0.99019 2.42769 -0.61803
v 0.75627 2.65602 -0.50938
v 1.55713 2.32011 -0.28034
v 1.41493 2.06566 -0.29309
v 1.19904 1.81637 0.00000
v 0.83557 1.75754 0.00000
v 0.47475 1.93044 0.00000
v 0.30532 2.29297 0.00000
v 1.66191 2.56398 -0.26662
v 1.78337 2.78706 -0.26145
v 1.90818 3.00887 -0.25508
v 1.92206 3.30182 -0.45895
v 1.94048 3.61692 -0.52074
v 2.87915 0.83491 -0.23274
v 3.00202 0.86340 -0.44410
v 3.03485 0.60470 -0.47448
v 3.25189 0.62554 -0.61973
v 2.82374 1.06003 -0.20469
v 2.89513 1.09763 -0.39617
v 2.71785 1.21634 -0.18740
v 2.73203 1.26124 -0.31812
v 2.78350 1.04926 0.00000
v 0.99722 1.36060 0.00000
v 1.23914 1.36753 0.00000
v 1.55973 0.43862 0.00000
v 1.94646 1.39789 0.00000
v 1.75568 0.60011 0.00000
v 2.20269 1.41005 0.00000
v 2.32398 1.06870 0.00000
v 2.52646 1.20084 0.00000
v 4.02716 1.56746 0.00000
v 3.92947 2.11568 0.00000
v 3.03328 2.14873 0.00000
v 3.97767 1.84611 0.00000
v 3.49126 4.23439 0.00000
v 3.25297 4.46659 0.00000
v 2.90675 4.29625 0.00000
v 3.09684 4.23221 0.00000
v 2.34084 4.32447 0.00000
v 2.55483 4.05166 0.00000
v 0.54524 2.86815 0.00000
v 1.91109 3.99525 0.00000
v 2.11967 4.15655 0.00000
v 1.71078 3.83456 0.00000
v 1.63115 2.27676 0.00000
v 1.47272 2.00892 0.00000
v 0.36491 2.62960 0.00000
v 1.73897 2.52403 0.00000
v 1.85479 2.75217 0.00000
v 3.21658 0.20306 0.42338
v 0.87425 1.96227 0.45371
v 0.49888 2.33022 0.43711
v 2.97577 1.49578 0.36080
v 3.77469 0.44692 0.52556
v 3.15355 1.28472 0.57114
v 0.20649 0.77629 0.48323
v 0.30868 0.36477 0.48140
v 3.14571 0.11084 0.24567
v 2.93764 0.31316 0.26285
v 3.10845 0.35710 0.47295
v 3.33617 0.37306 0.56923
v 3.40079 0.17815 0.44283
v 3.41931 0.03934 0.23699
v 0.65283 2.11207 0.49237
v 0.82055 2.26425 0.59354
v 1.05019 2.04683 0.49826
v 0.85568 1.81989 0.28485
v 0.51837 1.97394 0.28971
v 1.17066 1.88095 0.28131
v 0.36634 2.30845 0.27524
v 0.43093 2.60517 0.27185
v 0.59605 2.49118 0.48637
v 2.92035 1.54847 0.21913
v 3.02316 1.70227 0.24598
v 3.17179 1.58727 0.49451
v 2.79929 1.38995 0.35555
v 2.72834 1.44822 0.19357
v 3.74618 0.67360 0.58369
v 3.95094 0.67060 0.43803
v 3.88713 0.37645 0.42077
v 3.58445 0.38273 0.57396
v 3.48717 0.65268 0.66047
v 3.66202 0.20252 0.43610
v 3.35451 0.95396 0.65502
v 3.16353 0.91752 0.59847
v 2.99203 1.18105 0.51785
v 3.56772 1.25351 0.59955
v 3.66313 0.96414 0.60940
v 2.74674 1.32666 0.37437
v 0.06523 0.83491 0.29727
v 0.23221 1.08793 0.31169
v 0.34590 0.88802 0.53046
v 0.24372 0.56851 0.51340
v 0.06416 0.52447 0.29101
v 0.43712 0.61077 0.61197
v 0.48908 0.32524 0.52222
v 0.47380 0.11499 0.29930
v 0.21079 0.25499 0.29875
v 0.49245 1.20919 0.30479
v 0.99707 1.26733 0.28421
v 0.75201 1.25623 0.29674
v 1.01649 1.06640 0.52093
v 0.78788 1.03019 0.53464
v 0.56421 0.97995 0.53872
v 0.85977 0.70651 0.62709
v 0.65421 0.65544 0.62815
v 0.97259 0.39699 0.52646
v 0.73329 0.32845 0.53482
v 1.05676 0.19835 0.28875
v 0.77519 0.09986 0.30023
v 1.47760 1.30728 0.27119
v 1.23857 1.28373 0.27575
v 1.49997 1.15545 0.49029
v 1.25311 1.10770 0.50585
v 1.55789 0.96462 0.57544
v 1.31452 0.86649 0.60217
v 1.08108 0.77728 0.61878
v 1.41730 0.64109 0.50428
v 1.19782 0.50808 0.51569
v 1.51155 0.49913 0.27359
v 1.29849 0.34264 0.27998
v 1.96109 1.35513 0.23536
v 1.71544 1.32715 0.26105
v 2.00203 1.27268 0.40560
v 1.75515 1.21344 0.46173
v 2.05374 1.15886 0.47462
v 1.81378 1.06392 0.54504
v 2.09223 1.03908 0.41179
v 1.86742 0.91037 0.46659
v 1.63674 0.77901 0.48927
v 1.91127 0.79800 0.26047
v 1.71212 0.65410 0.26848
v 2.47390 1.41004 0.18591
v 2.21481 1.38486 0.20316
v 2.48778 1.37306 0.31094
v 2.24217 1.33104 0.34272
v 2.50501 1.31908 0.36851
v 2.27778 1.25126 0.40503
v 2.51689 1.26081 0.30563
v 2.30238 1.16541 0.34585
v 2.52397 1.22006 0.18486
v 2.31535 1.09922 0.20411
v 2.11288 0.94537 0.23658
v 2.87391 0.59050 0.25521
v 3.72818 0.08328 0.23684
v 3.99503 0.31109 0.23795
v 4.09068 0.64964 0.23758
v 4.06600 0.97057 0.24013
v 3.91293 0.97073 0.45557
v 3.85069 1.25292 0.45698
v 4.00714 1.26752 0.24040
v 3.95250 1.55576 0.24338
v 3.86159 2.10508 0.24356
v 3.82270 2.36897 0.24051
v 3.78225 2.62753 0.23745
v 3.69086 2.35664 0.45026
v 3.65894 2.61547 0.44371
v 3.62703 2.87234 0.44069
v 3.74153 2.88344 0.23674
v 3.70137 3.13962 0.23781
v 3.07606 1.90770 0.25922
v 3.10300 2.13385 0.25859
v 3.25699 2.10896 0.48691
v 3.24588 1.85705 0.49793
v 3.50166 2.09230 0.57082
v 3.52167 1.81892 0.58588
v 3.53309 1.52720 0.59591
v 3.75599 1.81636 0.46292
v 3.79763 1.53260 0.46001
v 3.90580 1.83343 0.24586
v 3.72184 2.09188 0.45573
v 3.48358 2.35345 0.55508
v 3.26472 2.35953 0.46836
v 3.27335 2.61121 0.45679
v 3.46916 2.61075 0.53901
v 3.28723 2.86531 0.44838
v 3.45898 2.86707 0.52505
v 3.29907 3.11999 0.43974
v 3.44843 3.12386 0.51066
v 3.59596 3.13073 0.43804
v 3.43655 3.38012 0.49535
v 3.56500 3.38846 0.43055
v 3.66016 3.39692 0.23669
v 3.53958 3.65051 0.41710
v 3.62011 3.65806 0.23366
v 3.14563 2.61946 0.24539
v 3.12487 2.37340 0.25182
v 3.16677 2.86969 0.24222
v 3.18950 3.12069 0.23941
v 3.20966 3.37300 0.23638
v 3.30712 3.37531 0.43039
v 3.23131 3.62025 0.23341
v 3.31462 3.62961 0.41407
v 3.42673 3.63987 0.47785
v 3.31156 3.88188 0.39000
v 3.40683 3.90300 0.45759
v 3.50696 3.92316 0.39623
v 3.32967 4.15715 0.43367
v 3.41104 4.19843 0.37192
v 3.46816 4.22587 0.22121
v 3.57279 3.93658 0.22977
v 3.24484 3.85846 0.22287
v 3.21643 4.07327 0.20595
v 3.25998 4.11108 0.35599
v 3.10514 4.24771 0.19049
v 3.12587 4.28694 0.32360
v 3.15743 4.34557 0.40539
v 2.91324 4.35505 0.31154
v 2.91484 4.41342 0.38592
v 2.91732 4.48203 0.32975
v 3.20295 4.40865 0.34960
v 2.92204 4.52125 0.19891
v 3.23872 4.45199 0.20820
v 2.90943 4.31483 0.18398
v 2.70614 4.23808 0.19194
v 2.69653 4.28489 0.33449
v 2.54618 4.07065 0.21143
v 2.51922 4.12396 0.37497
v 2.46454 4.19736 0.43684
v 2.67056 4.35187 0.40127
v 2.40116 4.26711 0.37358
v 2.63601 4.41560 0.33581
v 2.35823 4.30887 0.21646
v 2.61476 4.45639 0.20297
v 2.40551 3.87616 0.22669
v 1.36051 3.45712 0.25408
v 1.16912 3.29174 0.26165
v 0.98188 3.12964 0.26705
v 1.27576 3.17240 0.48435
v 1.09633 2.99062 0.49973
v 0.92311 2.81679 0.50866
v 0.79506 2.96772 0.27012
v 0.60457 2.81051 0.27313
v 2.03033 3.23063 0.24894
v 2.15030 3.45034 0.24412
v 2.27488 3.66854 0.23697
v 2.05909 3.51891 0.44505
v 2.20180 3.73132 0.42905
v 2.35450 3.93614 0.40752
v 2.10795 3.81354 0.49625
v 2.28120 4.01115 0.46826
v 2.01159 3.90008 0.43251
v 2.20115 4.08632 0.40913
v 1.93922 3.96539 0.23853
v 2.14248 4.13626 0.22798
v 1.74081 3.79590 0.24477
v 1.54730 3.62594 0.24944
v 1.82213 3.71864 0.44805
v 1.63748 3.53388 0.45924
v 1.45600 3.35288 0.46970
v 1.77814 3.41521 0.54281
v 1.61589 3.21281 0.56585
v 1.45298 3.01455 0.58461
v 1.78574 3.08340 0.47163
v 1.64306 2.86940 0.48465
v 1.50652 2.65312 0.49838
v 1.29176 2.80940 0.60266
v 1.38439 2.42739 0.51514
v 1.14071 2.60769 0.61832
v 1.24228 2.21358 0.52327
v 0.99019 2.42769 0.61803
v 0.75627 2.65602 0.50938
v 1.55713 2.32011 0.28034
v 1.41493 2.06566 0.29309
v 1.66191 2.56398 0.26662
v 1.78337 2.78706 0.26145
v 1.90818 3.00887 0.25508
v 1.92206 3.30182 0.45895
v 1.94048 3.61692 0.52074
v 2.87915 0.83491 0.23274
v 3.00202 0.86340 0.44410
v 3.03485 0.60470 0.47448
v 3.25189 0.62554 0.61973
v 2.82374 1.06003 0.20469
v 2.89513 1.09763 0.39617
v 2.71785 1.21634 0.18740
v 2.73203 1.26124 0.31812
vn -0.33558 -0.66797 -0.66423
vn -0.43906 -0.81659 -0.37470
vn -0.77952 -0.46090 -0.42418
vn -0.52302 -0.39855 -0.75340
vn -0.17969 -0.40297 -0.89740
vn -0.06571 -0.70367 -0.70749
vn -0.04726 -0.93152 -0.36060
vn -0.08089 -0.64442 -0.76038
vn -0.41227 -0.39055 -0.82311
vn -0.17898 -0.15461 -0.97163
vn 0.16752 -0.53121 -0.83051
vn -0.10540 -0.88268 -0.45800
vn -0.63289 -0.62171 -0.46144
vn 0.35060 -0.81006 -0.46999
vn -0.65667 -0.04887 -0.75259
vn -0.88610 -0.08203 -0.45618
vn -0.79303 0.38860 -0.46915
vn -0.53329 0.20777 -0.82002
vn -0.56306 0.62997 -0.53488
vn -0.64650 0.67840 -0.34902
vn -0.84316 0.35307 -0.40549
vn -0.52865 0.31655 -0.78761
vn -0.33118 0.68320 -0.65081
vn -0.31674 0.91079 -0.26484
vn -0.27813 0.27403 -0.92062
vn 0.43957 -0.28292 -0.85249
vn 0.42632 -0.06127 -0.90250
vn 0.70864 -0.06095 -0.70293
vn 0.60438 -0.38598 -0.69695
vn 0.16842 -0.39375 -0.90366
vn 0.05605 -0.11994 -0.99120
vn 0.27718 -0.65420 -0.70370
vn -0.07150 0.05678 -0.99582
vn -0.46731 -0.05727 -0.88223
vn -0.52110 -0.03310 -0.85285
vn 0.21234 0.12574 -0.96907
vn 0.33044 0.10168 -0.93833
vn -0.22404 0.47038 -0.85355
vn -0.63691 0.17073 -0.75179
vn -0.85532 0.24344 -0.45734
vn -0.56890 0.64979 -0.50411
vn -0.38173 0.36635 -0.84857
vn -0.58778 -0.15132 -0.79474
vn -0.87556 -0.22000 -0.43010
vn -0.23248 -0.06674 -0.97031
vn -0.47362 -0.46488 -0.74804
vn -0.18462 -0.52390 -0.83153
vn -0.23248 -0.84923 -0.47408
vn -0.63402 -0.62940 -0.44930
vn -0.27868 -0.96038 0.00028
vn -0.71309 -0.70107 0.00035
vn -0.96971 -0.24425 -0.00025
vn -0.96218 0.27242 -0.00051
vn -0.66865 0.74358 -0.00082
vn -0.30771 0.95148 -0.00035
vn -0.25728 0.81298 -0.52236
vn -0.10303 0.99468 0.00006
vn -0.03694 0.99932 -0.00003
vn -0.04361 0.87227 -0.48708
vn -0.09224 0.85485 -0.51061
vn -0.03984 0.55777 -0.82904
vn -0.06171 0.51645 -0.85409
vn -0.15199 0.47346 -0.86761
vn 0.04334 0.00268 -0.99906
vn -0.03039 -0.01623 -0.99941
vn 0.22528 -0.48839 -0.84304
vn 0.07070 -0.51081 -0.85678
vn 0.36971 -0.78956 -0.48980
vn 0.12197 -0.85755 -0.49973
vn 0.42437 -0.90549 0.00024
vn 0.13503 -0.99084 0.00009
vn -0.05510 0.99848 -0.00001
vn -0.06160 0.99810 0.00007
vn -0.07571 0.90650 -0.41536
vn -0.06632 0.88756 -0.45588
vn -0.06293 0.63900 -0.76663
vn -0.05663 0.59607 -0.80093
vn -0.03163 0.41036 -0.91137
vn 0.10179 0.03247 -0.99428
vn 0.07919 0.01709 -0.99671
vn 0.36060 -0.49458 -0.79079
vn 0.30972 -0.48480 -0.81795
vn 0.54117 -0.71698 -0.43940
vn 0.48970 -0.73538 -0.46841
vn 0.61583 -0.78788 -0.00007
vn 0.56330 -0.82625 -0.00009
vn -0.06288 0.99802 -0.00021
vn -0.07093 0.99748 -0.00022
vn -0.07473 0.94616 -0.31495
vn -0.07257 0.92689 -0.36825
vn -0.01407 0.74856 -0.66292
vn -0.03519 0.69461 -0.71852
vn 0.05146 0.55071 -0.83311
vn 0.01390 0.48052 -0.87687
vn 0.32347 -0.33005 -0.88681
vn 0.41177 -0.34182 -0.84475
vn 0.50563 -0.54442 -0.66929
vn 0.43796 -0.53761 -0.72053
vn 0.38445 -0.52313 -0.76061
vn 0.24991 -0.32392 -0.91248
vn 0.56464 -0.74382 -0.35764
vn 0.55116 -0.73113 -0.40209
vn 0.61493 -0.78858 -0.00007
vn 0.61800 -0.78618 0.00012
vn -0.07259 0.99736 0.00013
vn -0.11260 0.99364 0.00006
vn -0.11105 0.96956 -0.21820
vn -0.07996 0.96413 -0.25309
vn -0.09495 0.80800 -0.58148
vn -0.04645 0.80135 -0.59639
vn -0.07473 0.61918 -0.78169
vn -0.00249 0.62484 -0.78075
vn 0.39280 -0.46804 -0.79161
vn 0.16627 -0.63980 -0.75034
vn 0.20457 -0.79601 -0.56966
vn 0.47380 -0.63544 -0.60969
vn 0.25484 -0.93904 -0.23078
vn 0.55409 -0.78879 -0.26607
vn 0.59359 -0.74208 -0.31140
vn 0.58210 -0.81312 0.00003
vn 0.62680 -0.77918 -0.00012
vn 0.27642 -0.96104 -0.00075
vn -0.86243 -0.50618 -0.00022
vn -0.99429 -0.10671 -0.00040
vn -0.89610 -0.09923 -0.43262
vn -0.48094 -0.87676 0.00015
vn -0.05408 -0.99854 0.00003
vn 0.37412 -0.84520 -0.38167
vn 0.40804 -0.91296 -0.00014
vn 0.99291 -0.11885 0.00003
vn 0.83514 -0.55004 0.00014
vn 0.76930 -0.49961 -0.39822
vn 0.90653 -0.09748 -0.41074
vn 0.89625 0.11661 -0.42796
vn 0.99289 0.11904 -0.00019
vn 0.67700 0.11017 -0.72769
vn 0.64881 0.13571 -0.74875
vn 0.88137 0.16753 -0.44171
vn 0.98309 0.18314 0.00007
vn 0.88322 0.15274 -0.44339
vn 0.98441 0.17591 0.00001
vn 0.98662 0.16302 0.00001
vn 0.98635 0.16467 0.00000
vn 0.89839 0.14245 -0.41547
vn 0.90693 0.14224 -0.39655
vn 0.91477 0.14577 -0.37676
vn 0.98604 0.16650 0.00001
vn 0.66772 0.10473 -0.73701
vn 0.67428 0.10346 -0.73120
vn 0.68306 0.09868 -0.72366
vn 0.92357 0.14457 -0.35512
vn 0.98605 0.16646 -0.00001
vn 0.93197 0.14705 -0.33137
vn 0.98589 0.16741 -0.00003
vn -0.93692 0.34954 0.00007
vn -0.98697 0.16089 0.00047
vn -0.89283 0.14658 -0.42588
vn -0.71010 0.70410 -0.00054
vn -0.33145 0.94347 -0.00017
vn -0.99335 0.11517 0.00006
vn -0.90251 0.09655 -0.41971
vn -0.60387 0.06716 -0.79425
vn -0.57895 0.09342 -0.80999
vn -0.32643 0.04844 -0.94398
vn -0.29514 0.04371 -0.95445
vn 0.12464 0.07638 -0.98926
vn 0.46146 0.06759 -0.88458
vn 0.65583 0.09870 -0.74843
vn 0.64700 0.10099 -0.75578
vn 0.88999 0.14507 -0.43228
vn 0.66283 0.10464 -0.74143
vn 0.98557 0.16927 0.00002
vn 0.45910 0.07996 -0.88478
vn 0.45136 0.07882 -0.88885
vn -0.36008 0.05087 -0.93153
vn -0.62897 0.06567 -0.77465
vn -0.65004 0.06046 -0.75749
vn -0.38707 0.04508 -0.92095
vn 0.44679 0.07263 -0.89168
vn -0.66723 0.05975 -0.74245
vn -0.40795 0.04306 -0.91199
vn 0.44421 0.06562 -0.89352
vn -0.68605 0.05605 -0.72539
vn -0.42907 0.04145 -0.90232
vn 0.44178 0.07070 -0.89433
vn 0.69177 0.10357 -0.71466
vn 0.44848 0.07961 -0.89024
vn 0.70537 0.10954 -0.70033
vn 0.94064 0.14757 -0.30565
vn 0.72491 0.12430 -0.67754
vn 0.94814 0.15418 -0.27796
vn 0.98536 0.17049 0.00003
vn 0.98609 0.16621 -0.00001
vn -0.99459 0.10390 0.00002
vn -0.99518 0.09803 -0.00001
vn -0.92076 0.08371 -0.38104
vn -0.91193 0.08852 -0.40069
vn -0.99510 0.09887 0.00002
vn -0.92831 0.08469 -0.36205
vn -0.99511 0.09876 0.00006
vn -0.93701 0.08203 -0.33953
vn -0.99521 0.09776 0.00007
vn -0.94666 0.08157 -0.31173
vn -0.70927 0.05926 -0.70244
vn -0.95701 0.07386 -0.28050
vn -0.74385 0.05856 -0.66578
vn -0.50852 0.05237 -0.85945
vn -0.45652 0.04775 -0.88843
vn -0.79281 -0.02803 -0.60883
vn -0.59750 -0.01413 -0.80174
vn 0.46893 0.09856 -0.87772
vn 0.48758 0.17550 -0.85526
vn 0.72531 0.21858 -0.65280
vn 0.43462 0.34948 -0.83004
vn 0.62848 0.44986 -0.63454
vn 0.80944 0.53215 -0.24826
vn 0.93248 0.25296 -0.25786
vn 0.83840 0.54505 -0.00002
vn 0.96466 0.26351 -0.00000
vn -0.99612 0.08804 -0.00010
vn -0.99992 -0.01248 0.00004
vn -0.96867 -0.02617 -0.24695
vn -0.94750 -0.31977 0.00026
vn -0.91946 -0.32480 -0.22157
vn -0.78372 -0.29504 -0.54656
vn -0.60726 -0.76505 -0.21431
vn -0.53039 -0.68153 -0.50418
vn -0.45769 -0.59555 -0.66018
vn -0.64399 -0.24738 -0.72393
vn 0.00375 -0.86518 -0.50145
vn -0.00492 -0.74809 -0.66357
vn 0.24258 0.54545 -0.80227
vn -0.01039 0.64204 -0.76660
vn -0.00510 0.82717 -0.56192
vn 0.35353 0.71444 -0.60381
vn 0.00200 0.98070 -0.19552
vn 0.45768 0.86049 -0.22381
vn 0.00334 0.99999 -0.00009
vn 0.47179 0.88171 -0.00004
vn -0.62502 -0.78061 0.00013
vn 0.02072 -0.99979 -0.00000
vn 0.01656 -0.97755 -0.21004
vn 0.56093 -0.82786 -0.00008
vn 0.54534 -0.81433 -0.19865
vn 0.47069 -0.70443 -0.53126
vn 0.75665 -0.61849 -0.21199
vn 0.63289 -0.50477 -0.58707
vn 0.48473 -0.35654 -0.79869
vn 0.38570 -0.56965 -0.72577
vn -0.19743 0.61347 -0.76464
vn -0.27184 0.50864 -0.81693
vn -0.41451 0.67312 -0.61245
vn -0.27649 0.77847 -0.56350
vn -0.53921 0.80977 -0.23137
vn -0.34444 0.91652 -0.20335
vn -0.55258 0.83346 0.00004
vn -0.34968 0.93687 0.00000
vn 0.78171 -0.62364 0.00007
vn 0.84552 -0.53394 0.00025
vn 0.80625 -0.53141 -0.25994
vn -0.63926 0.76899 -0.00004
vn -0.64620 0.76317 -0.00002
vn -0.59869 0.68873 -0.40892
vn -0.58381 0.68418 -0.43710
vn -0.57821 0.67207 -0.46260
vn -0.64200 0.76670 -0.00001
vn -0.40807 0.47410 -0.78020
vn -0.39588 0.45038 -0.80027
vn -0.38658 0.42327 -0.81939
vn -0.57266 0.66294 -0.48225
vn -0.64550 0.76376 0.00018
vn -0.62610 0.60736 -0.48899
vn -0.71767 0.69638 -0.00053
vn 0.88259 -0.47014 -0.00010
vn 0.88550 -0.46465 0.00003
vn 0.81219 -0.43835 -0.38497
vn 0.81922 -0.45159 -0.35347
vn 0.81898 -0.48133 -0.31241
vn 0.87149 -0.49042 0.00001
vn 0.60479 -0.33719 -0.72148
vn 0.62203 -0.36899 -0.69059
vn 0.63640 -0.41683 -0.64904
vn 0.42279 -0.23340 -0.87566
vn 0.45072 -0.26806 -0.85146
vn -0.27588 0.41149 -0.86866
vn -0.27044 0.36214 -0.89203
vn -0.45169 0.54958 -0.70280
vn -0.45424 0.59161 -0.66608
vn -0.61054 0.73019 -0.30670
vn -0.60470 0.75067 -0.26617
vn -0.63069 0.77603 -0.00010
vn -0.61911 0.78531 -0.00005
vn -0.64061 0.76787 -0.00004
vn -0.61131 0.71261 -0.34423
vn -0.61144 0.69522 -0.37789
vn -0.64922 0.76060 0.00002
vn -0.44642 0.52036 -0.72797
vn -0.44200 0.49828 -0.74589
vn -0.42633 0.48850 -0.76133
vn -0.27053 0.32119 -0.90755
vn -0.26228 0.31678 -0.91152
vn -0.24866 0.30248 -0.92015
vn 0.34556 -0.18001 -0.92097
vn 0.36185 -0.18777 -0.91313
vn 0.56530 -0.31124 -0.76391
vn 0.54613 -0.30001 -0.78214
vn 0.53917 -0.25882 -0.80144
vn 0.33202 -0.15458 -0.93052
vn -0.23761 0.27697 -0.93104
vn 0.50006 -0.25204 -0.82851
vn 0.02606 0.04757 -0.99853
vn 0.37370 -0.36514 -0.85265
vn -0.04128 -0.01826 -0.99898
vn -0.41296 0.36554 -0.83417
vn 0.78636 -0.38690 -0.48160
vn 0.64595 -0.58013 -0.49619
vn 0.89684 -0.44236 0.00025
vn 0.74429 -0.66786 -0.00000
vn 0.38972 -0.92093 0.00040
vn -0.12946 -0.99158 0.00097
vn -0.71016 -0.70404 -0.00000
vn -0.99322 -0.11620 -0.00100
vn -0.90738 0.42032 -0.00142
vn 0.88450 -0.46653 -0.00003
vn 0.90446 -0.42655 -0.00005
vn 0.79846 -0.38194 -0.46538
vn 0.78751 -0.42822 -0.44324
vn 0.79888 -0.43601 -0.41436
vn 0.88420 -0.46710 -0.00000
vn 0.58683 -0.31753 -0.74485
vn 0.37982 -0.19346 -0.90460
vn 0.39859 -0.21111 -0.89250
vn -0.27000 0.33532 -0.90259
vn -0.99798 -0.06358 0.00052
vn -0.91833 -0.08420 -0.38676
vn -0.76096 -0.11767 -0.63804
vn -0.68119 -0.12157 -0.72194
vn -0.34863 -0.15601 -0.92418
vn -0.88256 -0.36209 -0.29997
vn -0.75801 -0.33658 -0.55868
vn -0.81633 -0.52499 -0.24080
vn -0.72287 -0.45888 -0.51661
vn -0.63571 -0.35876 -0.68349
vn -0.01954 -0.84268 -0.53805
vn -0.00745 -0.97915 -0.20300
vn -0.01825 -0.69076 -0.72285
vn -0.93997 -0.34126 0.00001
vn -0.85938 -0.51134 -0.00108
vn 0.00482 -0.99999 -0.00138
vn -0.52577 -0.40627 0.74734
vn -0.77837 -0.46206 0.42502
vn -0.43755 -0.81590 0.37796
vn -0.33919 -0.67514 0.65508
vn -0.07202 -0.71096 0.69954
vn -0.18328 -0.41117 0.89294
vn -0.04805 -0.93107 0.36166
vn 0.16432 -0.53384 0.82946
vn -0.18239 -0.15964 0.97018
vn -0.41249 -0.39215 0.82223
vn -0.08193 -0.64518 0.75962
vn -0.63140 -0.62009 0.46564
vn -0.10593 -0.88012 0.46279
vn 0.34839 -0.80933 0.47287
vn -0.53313 0.20070 0.82188
vn -0.79314 0.38316 0.47342
vn -0.88326 -0.08633 0.46087
vn -0.65377 -0.05435 0.75474
vn -0.51407 0.25500 0.81897
vn -0.85043 0.33987 0.40156
vn -0.65927 0.66664 0.34779
vn -0.56782 0.54679 0.61531
vn -0.31925 0.91042 0.26310
vn -0.32906 0.62823 0.70501
vn -0.26731 0.22399 0.93721
vn 0.60142 -0.38445 0.70035
vn 0.70516 -0.06608 0.70596
vn 0.42305 -0.06759 0.90358
vn 0.43546 -0.27989 0.85559
vn 0.05734 -0.11988 0.99113
vn 0.17095 -0.38856 0.90542
vn 0.27882 -0.65136 0.70568
vn -0.53578 -0.03429 0.84366
vn -0.47379 -0.05516 0.87891
vn -0.07659 0.05960 0.99528
vn 0.32812 0.10239 0.93907
vn 0.21275 0.13339 0.96796
vn -0.23616 0.44306 0.86483
vn -0.38590 0.36003 0.84939
vn -0.57032 0.64513 0.50847
vn -0.85377 0.23913 0.46248
vn -0.63758 0.16479 0.75255
vn -0.87366 -0.21963 0.43414
vn -0.59218 -0.15307 0.79113
vn -0.24199 -0.07009 0.96774
vn -0.63382 -0.62603 0.45427
vn -0.23469 -0.84658 0.47773
vn -0.19074 -0.52337 0.83048
vn -0.47789 -0.46312 0.74642
vn -0.25754 0.81319 0.52191
vn -0.09174 0.85491 0.51059
vn -0.04371 0.87212 0.48734
vn -0.06033 0.51664 0.85408
vn -0.04009 0.55724 0.82938
vn -0.15235 0.47333 0.86761
vn -0.02991 -0.01715 0.99941
vn 0.04480 0.00286 0.99899
vn 0.07147 -0.51233 0.85581
vn 0.22596 -0.48838 0.84287
vn 0.12215 -0.85806 0.49881
vn 0.36988 -0.78946 0.48984
vn -0.06638 0.88771 0.45560
vn -0.07646 0.90606 0.41618
vn -0.05704 0.59627 0.80076
vn -0.06403 0.63792 0.76744
vn 0.10008 0.03170 0.99447
vn -0.03232 0.40950 0.91174
vn 0.07865 0.01697 0.99676
vn 0.30929 -0.48439 0.81836
vn 0.35951 -0.49546 0.79074
vn 0.48950 -0.73532 0.46871
vn 0.54138 -0.71705 0.43902
vn -0.07229 0.92677 0.36860
vn -0.07574 0.94627 0.31439
vn -0.03590 0.69379 0.71928
vn -0.01608 0.74868 0.66274
vn 0.01274 0.47960 0.87739
vn 0.04882 0.55061 0.83333
vn 0.43661 -0.53783 0.72119
vn 0.50720 -0.54318 0.66911
vn 0.41467 -0.34019 0.84399
vn 0.32467 -0.32992 0.88642
vn 0.25056 -0.32405 0.91225
vn 0.38434 -0.52295 0.76079
vn 0.55072 -0.73111 0.40271
vn 0.56323 -0.74436 0.35874
vn -0.08132 0.96389 0.25360
vn -0.11132 0.96979 0.21707
vn -0.04694 0.80063 0.59732
vn -0.09146 0.79998 0.59302
vn -0.00187 0.62376 0.78162
vn -0.06576 0.59501 0.80102
vn 0.47295 -0.63588 0.60990
vn 0.20042 -0.79803 0.56831
vn 0.16155 -0.64340 0.74829
vn 0.39187 -0.46801 0.79209
vn 0.55363 -0.78915 0.26595
vn 0.25375 -0.93950 0.23009
vn 0.59365 -0.74195 0.31160
vn -0.89717 -0.09795 0.43070
vn 0.37397 -0.84577 0.38055
vn 0.90621 -0.09773 0.41139
vn 0.76886 -0.50006 0.39849
vn 0.89631 0.11662 0.42781
vn 0.67722 0.10809 0.72779
vn 0.88139 0.16755 0.44168
vn 0.64920 0.13515 0.74851
vn 0.88320 0.15270 0.44344
vn 0.90695 0.14208 0.39655
vn 0.89840 0.14242 0.41544
vn 0.91477 0.14579 0.37676
vn 0.67427 0.10350 0.73119
vn 0.66777 0.10450 0.73700
vn 0.92356 0.14474 0.35509
vn 0.68303 0.09898 0.72365
vn 0.93199 0.14704 0.33131
vn -0.89308 0.14771 0.42496
vn -0.90258 0.09658 0.41954
vn -0.58030 0.09304 0.80907
vn -0.60432 0.06820 0.79381
vn -0.29562 0.04162 0.95440
vn -0.32709 0.05021 0.94366
vn 0.12872 0.07868 0.98855
vn 0.64693 0.10086 0.75585
vn 0.65579 0.09864 0.74847
vn 0.46140 0.06733 0.88463
vn 0.88997 0.14511 0.43231
vn 0.66286 0.10459 0.74140
vn 0.45915 0.07977 0.88477
vn 0.45140 0.07867 0.88885
vn -0.62904 0.06595 0.77457
vn -0.36033 0.05147 0.93140
vn -0.38695 0.04407 0.92105
vn -0.65005 0.06017 0.75750
vn 0.44678 0.07271 0.89168
vn -0.40787 0.04199 0.91207
vn -0.66724 0.05942 0.74247
vn 0.44418 0.06582 0.89351
vn -0.42899 0.04048 0.90240
vn -0.68607 0.05591 0.72538
vn 0.69176 0.10372 0.71464
vn 0.44172 0.07106 0.89433
vn 0.70527 0.11000 0.70035
vn 0.44833 0.08013 0.89027
vn 0.94062 0.14772 0.30564
vn 0.94800 0.15479 0.27810
vn 0.72487 0.12490 0.67747
vn -0.91191 0.08849 0.40073
vn -0.92078 0.08399 0.38094
vn -0.92831 0.08483 0.36199
vn -0.93700 0.08229 0.33949
vn -0.94663 0.08134 0.31189
vn -0.70932 0.05932 0.70238
vn -0.74316 0.05759 0.66663
vn -0.95691 0.07316 0.28101
vn -0.45680 0.04812 0.88827
vn -0.50771 0.05217 0.85995
vn -0.59185 -0.01462 0.80591
vn -0.79101 -0.02802 0.61115
vn 0.72491 0.21886 0.65315
vn 0.48718 0.17524 0.85554
vn 0.46931 0.09852 0.87752
vn 0.62814 0.45010 0.63470
vn 0.43414 0.34973 0.83019
vn 0.93231 0.25336 0.25807
vn 0.80937 0.53222 0.24833
vn -0.96881 -0.02618 0.24643
vn -0.91925 -0.32532 0.22169
vn -0.78386 -0.29587 0.54592
vn -0.53101 -0.68233 0.50245
vn -0.60614 -0.76563 0.21541
vn -0.64430 -0.24923 0.72303
vn -0.46151 -0.59735 0.65588
vn -0.00311 -0.75048 0.66088
vn 0.00435 -0.86586 0.50026
vn 0.35430 0.71486 0.60287
vn -0.00423 0.82734 0.56169
vn -0.00917 0.64107 0.76743
vn 0.24332 0.54608 0.80161
vn 0.45803 0.86047 0.22319
vn 0.00225 0.98091 0.19445
vn 0.01633 -0.97745 0.21054
vn 0.54585 -0.81404 0.19846
vn 0.46988 -0.70531 0.53080
vn 0.63172 -0.50469 0.58841
vn 0.75627 -0.61890 0.21219
vn 0.38354 -0.57194 0.72511
vn 0.48236 -0.35568 0.80051
vn -0.27454 0.77818 0.56486
vn -0.41392 0.67279 0.61321
vn -0.27017 0.50798 0.81790
vn -0.19354 0.61157 0.76715
vn -0.34424 0.91667 0.20299
vn -0.53942 0.80959 0.23148
vn 0.80553 -0.53227 0.26040
vn -0.58334 0.68470 0.43692
vn -0.59839 0.68899 0.40892
vn -0.57825 0.67214 0.46244
vn -0.39543 0.45117 0.80005
vn -0.40756 0.47478 0.78005
vn -0.57313 0.66270 0.48203
vn -0.38678 0.42373 0.81906
vn -0.62656 0.60737 0.48839
vn 0.81884 -0.45211 0.35369
vn 0.81202 -0.43857 0.38507
vn 0.81903 -0.48139 0.31218
vn 0.62154 -0.36966 0.69068
vn 0.60411 -0.33784 0.72174
vn 0.63626 -0.41721 0.64893
vn 0.45125 -0.26843 0.85107
vn 0.42131 -0.23462 0.87604
vn -0.45448 0.59182 0.66573
vn -0.45137 0.54985 0.70281
vn -0.27032 0.36220 0.89204
vn -0.27658 0.41169 0.86834
vn -0.60454 0.75085 0.26600
vn -0.61006 0.73064 0.30659
vn -0.61130 0.71266 0.34415
vn -0.61131 0.69534 0.37788
vn -0.44177 0.49853 0.74586
vn -0.44653 0.52032 0.72793
vn -0.42635 0.48840 0.76138
vn -0.26261 0.31638 0.91156
vn -0.27030 0.32144 0.90753
vn -0.24855 0.30273 0.92009
vn 0.54585 -0.30050 0.78215
vn 0.56494 -0.31178 0.76396
vn 0.36127 -0.18852 0.91320
vn 0.34571 -0.18000 0.92091
vn 0.33321 -0.15282 0.93039
vn 0.53957 -0.25860 0.80124
vn -0.23668 0.27827 0.93089
vn 0.02686 0.04966 0.99840
vn 0.50084 -0.25175 0.82812
vn -0.04105 -0.01720 0.99901
vn 0.37436 -0.36517 0.85236
vn -0.41316 0.36559 0.83405
vn 0.64643 -0.58038 0.49527
vn 0.78635 -0.38779 0.48091
vn 0.78723 -0.42868 0.44328
vn 0.79817 -0.38278 0.46520
vn 0.79881 -0.43615 0.41434
vn 0.58688 -0.31743 0.74486
vn 0.38011 -0.19317 0.90455
vn 0.39839 -0.21129 0.89255
vn -0.27021 0.33516 0.90258
vn -0.91744 -0.08664 0.38832
vn -0.68428 -0.11747 0.71969
vn -0.76361 -0.11651 0.63508
vn -0.35022 -0.15135 0.92436
vn -0.75727 -0.33948 0.55794
vn -0.87853 -0.36769 0.30495
vn -0.72216 -0.46146 0.51530
vn -0.81252 -0.52836 0.24628
vn -0.64977 -0.35710 0.67102
vn -0.00746 -0.97939 0.20186
vn -0.01921 -0.84441 0.53535
vn -0.01784 -0.69571 0.71810
f 1//1 9//2 10//3 11//4
f 1//1 11//4 12//5 13//6
f 1//1 13//6 14//7 9//2
f 2//8 15//9 16//10 17//11
f 2//8 18//12 19//13 15//9
f 2//8 17//11 20//14 18//12
f 3//15 21//16 22//17 23//18
f 3//15 15//9 19//13 21//16
f 3//15 23//18 16//10 15//9
f 4//19 24//20 25//21 26//22
f 27//23 28//24 24//20 4//19
f 4//19 26//22 6//25 27//23
f 5//26 29//27 30//28 31//29
f 5//26 32//30 33//31 29//27
f 5//26 31//29 34//32 32//30
f 6//25 35//33 36//34 37//35
f 6//25 38//36 39//37 35//33
f 6//25 37//35 40//38 27//23
f 7//39 41//40 42//41 43//42
f 7//39 44//43 45//44 41//40
f 7//39 43//42 46//45 44//43
f 8//46 47//47 48//48 49//49
f 8//46 49//49 45//44 44//43
f 8//46 44//43 46//45 47//47
f 49//49 48//48 50//50 51//51
f 49//49 51//51 52//52 45//44
f 52//52 53//53 41//40 45//44
f 53//53 54//54 42//41 41//40
f 54//54 55//55 56//56 42//41
f 57//57 292//58 58//59 59//60
f 57//57 59//60 56//56 55//55
f 59//60 58//59 60//61 61//62
f 59//60 61//62 62//63 56//56
f 62//63 61//62 63//64 64//65
f 62//63 64//65 46//45 43//42
f 62//63 43//42 42//41 56//56
f 64//65 63//64 65//66 66//67
f 64//65 66//67 47//47 46//45
f 66//67 65//66 67//68 68//69
f 66//67 68//69 48//48 47//47
f 68//69 67//68 69//70 70//71
f 68//69 70//71 50//50 48//48
f 293//72 71//73 72//74 73//75
f 293//72 73//75 58//59 292//58
f 73//75 72//74 74//76 75//77
f 73//75 75//77 60//61 58//59
f 75//77 74//76 76//78 77//79
f 75//77 77//79 78//80 60//61
f 78//80 77//79 79//81 80//82
f 78//80 80//82 65//66 63//64
f 78//80 63//64 61//62 60//61
f 80//82 79//81 81//83 82//84
f 80//82 82//84 67//68 65//66
f 82//84 81//83 294//85 83//86
f 82//84 83//86 69//70 67//68
f 84//87 295//88 85//89 86//90
f 84//87 86//90 72//74 71//73
f 86//90 85//89 87//91 88//92
f 86//90 88//92 74//76 72//74
f 88//92 87//91 89//93 90//94
f 88//92 90//94 76//78 74//76
f 90//95 89//96 91//97 92//98
f 90//95 92//98 93//99 76//100
f 93//99 92//98 94//101 95//102
f 93//99 95//102 81//83 79//81
f 93//99 79//81 77//79 76//100
f 95//102 94//101 96//103 296//104
f 95//102 296//104 294//85 81//83
f 297//105 98//106 99//107 100//108
f 297//105 100//108 85//89 295//88
f 100//108 99//107 101//109 102//110
f 100//108 102//110 87//91 85//89
f 102//110 101//109 103//111 104//112
f 102//110 104//112 89//93 87//91
f 104//113 103//114 105//115 106//116
f 104//113 106//116 91//97 89//96
f 106//116 105//115 107//117 108//118
f 106//116 108//118 109//119 91//97
f 109//119 108//118 298//120 97//121
f 109//119 97//121 96//103 94//101
f 109//119 94//101 92//98 91//97
f 298//120 108//118 107//117 299//122
f 113//123 112//124 114//125 10//3
f 113//123 10//3 9//2 115//126
f 115//126 9//2 14//7 116//127
f 116//127 14//7 117//128 118//129
f 120//130 119//131 122//132 123//133
f 120//130 123//133 124//134 121//135
f 124//134 123//133 30//28 125//136
f 124//134 125//136 126//137 127//138
f 124//134 127//138 128//139 121//135
f 128//139 127//138 129//140 300//141
f 130//142 301//143 132//144 133//145
f 130//142 133//145 134//146 131//147
f 134//146 133//145 135//148 136//149
f 134//146 136//149 137//150 138//151
f 134//146 138//151 139//152 131//147
f 139//152 138//151 140//153 141//154
f 143//155 142//156 144//157 25//21
f 143//155 25//21 24//20 145//158
f 145//158 24//20 28//24 146//159
f 146//159 28//24 99//107 98//106
f 144//157 142//156 302//160 147//161
f 144//157 147//161 148//162 149//163
f 144//157 149//163 26//22 25//21
f 149//163 148//162 150//164 151//165
f 149//163 151//165 152//166 26//22
f 152//166 38//36 6//25 26//22
f 152//166 151//167 153//168 154//169
f 152//166 154//169 126//137 38//36
f 154//169 153//168 155//170 129//140
f 154//169 129//140 127//138 126//137
f 155//170 153//168 156//171 132//144
f 155//170 132//144 301//143 303//172
f 155//170 303//172 300//141 129//140
f 156//171 153//168 151//167 150//173
f 156//171 150//173 157//174 135//148
f 156//171 135//148 133//145 132//144
f 157//175 150//164 148//162 158//176
f 157//175 158//176 159//177 160//178
f 157//174 160//179 136//149 135//148
f 160//178 159//177 161//180 162//181
f 160//179 162//182 137//150 136//149
f 162//181 161//180 163//183 164//184
f 162//182 164//185 165//186 137//150
f 165//186 164//185 166//187 167//188
f 165//186 167//188 168//189 140//153
f 165//186 140//153 138//151 137//150
f 168//189 167//188 169//190 170//191
f 168//189 170//191 171//192 172//193
f 168//189 172//193 141//154 140//153
f 175//194 174//195 176//196 177//197
f 175//194 177//197 147//161 302//160
f 177//197 176//196 159//177 158//176
f 177//197 158//176 148//162 147//161
f 176//196 174//195 173//198 178//199
f 176//196 178//199 161//180 159//177
f 178//199 173//198 179//200 180//201
f 178//199 180//201 163//183 161//180
f 180//201 179//200 181//202 182//203
f 180//201 182//203 183//204 163//183
f 183//204 182//203 184//205 185//206
f 183//204 185//206 186//207 166//208
f 183//204 166//208 164//184 163//183
f 186//207 185//206 187//209 188//210
f 186//211 188//212 189//213 169//190
f 186//211 169//190 167//188 166//187
f 189//213 188//212 190//214 191//215
f 189//213 191//215 192//216 193//217
f 189//213 193//217 170//191 169//190
f 193//217 192//216 304//218 194//219
f 193//217 194//219 171//192 170//191
f 195//220 196//221 197//222 184//205
f 195//220 184//205 182//203 181//202
f 197//222 196//221 198//223 199//224
f 197//222 199//224 200//225 187//209
f 197//222 187//209 185//206 184//205
f 200//225 199//224 201//226 202//227
f 200//225 202//227 203//228 190//229
f 200//225 190//229 188//210 187//209
f 203//228 202//227 204//230 205//231
f 203//232 205//233 206//234 207//235
f 203//232 207//235 191//215 190//214
f 207//235 206//234 208//236 209//237
f 207//235 209//237 192//216 191//215
f 209//237 208//236 210//238 305//239
f 209//237 305//239 304//218 192//216
f 307//240 306//241 211//242 201//226
f 307//240 201//226 199//224 198//223
f 211//242 306//241 212//243 213//244
f 211//242 213//244 214//245 204//230
f 211//242 204//230 202//227 201//226
f 214//245 213//244 215//246 216//247
f 214//245 216//247 217//248 218//249
f 214//245 218//249 205//231 204//230
f 218//250 217//251 219//252 220//253
f 218//250 220//253 206//234 205//233
f 220//253 219//252 221//254 222//255
f 220//253 222//255 208//236 206//234
f 222//255 221//254 308//256 223//257
f 222//255 223//257 210//238 208//236
f 309//258 224//259 225//260 215//246
f 309//258 215//246 213//244 212//243
f 229//261 228//262 231//263 232//264
f 229//261 232//264 233//265 230//266
f 233//265 232//264 234//267 235//268
f 233//265 235//268 236//269 237//270
f 233//265 237//270 238//271 230//266
f 238//271 237//270 239//272 310//273
f 242//274 241//275 243//276 244//277
f 242//274 244//277 245//278 226//279
f 245//278 225//260 224//259 226//279
f 245//278 244//277 246//280 247//281
f 245//278 247//281 248//282 225//260
f 248//282 216//247 215//246 225//260
f 248//282 247//281 249//283 250//284
f 248//282 250//284 217//248 216//247
f 250//285 249//286 251//287 252//288
f 250//285 252//288 219//252 217//251
f 252//288 251//287 253//289 254//290
f 252//288 254//290 221//254 219//252
f 254//290 253//289 311//291 312//292
f 254//290 312//292 308//256 221//254
f 313//293 311//291 253//289 255//294
f 313//293 255//294 256//295 227//296
f 256//295 255//294 257//297 258//298
f 256//295 258//298 259//299 231//263
f 256//295 231//263 228//262 227//296
f 259//299 258//298 260//300 261//301
f 259//299 261//301 262//302 234//267
f 259//299 234//267 232//264 231//263
f 262//303 261//304 263//305 264//306
f 262//303 264//306 265//307 266//308
f 262//302 266//309 235//268 234//267
f 266//308 265//307 267//310 268//311
f 266//309 268//311 236//269 235//268
f 268//311 267//310 269//312 270//313
f 268//311 270//313 271//314 236//269
f 271//314 270//313 16//10 23//18
f 271//314 23//18 22//17 239//272
f 271//314 239//272 237//270 236//269
f 270//313 269//312 17//11 16//10
f 269//312 267//310 272//315 273//316
f 269//312 273//316 20//14 17//11
f 273//316 272//315 314//317 315//318
f 273//316 315//318 274//319 20//14
f 274//319 275//320 18//12 20//14
f 275//320 276//321 19//13 18//12
f 276//321 277//322 21//16 19//13
f 277//322 316//323 22//17 21//16
f 316//323 310//273 239//272 22//17
f 318//324 317//325 278//326 279//327
f 318//324 279//327 280//328 240//329
f 280//328 243//276 241//275 240//329
f 280//328 279//327 264//306 263//305
f 280//328 263//305 281//330 243//276
f 281//330 246//280 244//277 243//276
f 281//330 263//305 261//304 260//331
f 281//330 260//331 282//332 246//280
f 282//332 249//283 247//281 246//280
f 282//333 260//300 258//298 257//297
f 282//333 257//297 251//287 249//286
f 279//327 278//326 265//307 264//306
f 278//326 317//325 314//317 272//315
f 278//326 272//315 267//310 265//307
f 257//297 255//294 253//289 251//287
f 126//137 125//136 39//37 38//36
f 125//136 30//28 29//27 39//37
f 123//133 122//132 31//29 30//28
f 122//132 117//128 34//32 31//29
f 122//132 119//131 118//129 117//128
f 117//128 14//7 13//6 34//32
f 114//125 112//124 111//334 283//335
f 114//125 283//335 284//336 285//337
f 114//125 285//337 11//4 10//3
f 285//337 284//336 36//34 286//338
f 285//337 286//338 12//5 11//4
f 286//338 36//34 35//33 33//31
f 286//338 33//31 32//30 12//5
f 284//336 283//335 287//339 288//340
f 284//336 288//340 37//35 36//34
f 288//340 287//339 289//341 290//342
f 288//340 290//342 40//343 37//35
f 290//344 289//345 107//117 105//115
f 290//344 105//115 103//114 40//346
f 289//341 287//339 291//347 110//348
f 289//345 110//349 299//122 107//117
f 291//347 287//339 283//335 111//334
f 103//111 101//109 27//23 40//38
f 101//109 99//107 28//24 27//23
f 39//37 29//27 33//31 35//33
f 34//32 13//6 12//5 32//30
f 329//350 328//351 327//352 319//353
f 331//354 330//355 329//350 319//353
f 327//352 332//356 331//354 319//353
f 335//357 334//358 333//359 320//360
f 333//359 337//361 336//362 320//360
f 336//362 338//363 335//357 320//360
f 341//364 340//365 339//366 321//367
f 339//366 337//361 333//359 321//367
f 333//359 334//358 341//364 321//367
f 344//368 343//369 342//370 322//371
f 322//371 342//370 346//372 345//373
f 345//373 324//374 344//368 322//371
f 349//375 348//376 347//377 323//378
f 347//377 351//379 350//380 323//378
f 350//380 352//381 349//375 323//378
f 355//382 354//383 353//384 324//374
f 353//384 357//385 356//386 324//374
f 345//373 358//387 355//382 324//374
f 361//388 360//389 359//390 325//391
f 359//390 363//392 362//393 325//391
f 362//393 364//394 361//388 325//391
f 367//395 366//396 365//397 326//398
f 362//393 363//392 367//395 326//398
f 365//397 364//394 362//393 326//398
f 51//51 50//50 366//396 367//395
f 363//392 52//52 51//51 367//395
f 363//392 359//390 53//53 52//52
f 359//390 360//389 54//54 53//53
f 360//389 368//399 55//55 54//54
f 370//400 369//401 292//58 57//57
f 55//55 368//399 370//400 57//57
f 372//402 371//403 369//401 370//400
f 368//399 373//404 372//402 370//400
f 375//405 374//406 372//402 373//404
f 361//388 364//394 375//405 373//404
f 368//399 360//389 361//388 373//404
f 377//407 376//408 374//406 375//405
f 364//394 365//397 377//407 375//405
f 379//409 378//410 376//408 377//407
f 365//397 366//396 379//409 377//407
f 70//71 69//70 378//410 379//409
f 366//396 50//50 70//71 379//409
f 381//411 380//412 71//73 293//72
f 292//58 369//401 381//411 293//72
f 383//413 382//414 380//412 381//411
f 369//401 371//403 383//413 381//411
f 385//415 384//416 382//414 383//413
f 371//403 386//417 385//415 383//413
f 388//418 387//419 385//415 386//417
f 374//406 376//408 388//418 386//417
f 371//403 372//402 374//406 386//417
f 390//420 389//421 387//419 388//418
f 376//408 378//410 390//420 388//418
f 83//86 294//85 389//421 390//420
f 378//410 69//70 83//86 390//420
f 392//422 391//423 295//88 84//87
f 71//73 380//412 392//422 84//87
f 394//424 393//425 391//423 392//422
f 380//412 382//414 394//424 392//422
f 396//426 395//427 393//425 394//424
f 382//414 384//416 396//426 394//424
f 398//428 397//429 395//430 396//431
f 384//432 399//433 398//428 396//431
f 401//434 400//435 398//428 399//433
f 387//419 389//421 401//434 399//433
f 384//432 385//415 387//419 399//433
f 296//104 96//103 400//435 401//434
f 389//421 294//85 296//104 401//434
f 403//436 402//437 98//106 297//105
f 295//88 391//423 403//436 297//105
f 405//438 404//439 402//437 403//436
f 391//423 393//425 405//438 403//436
f 407//440 406//441 404//439 405//438
f 393//425 395//427 407//440 405//438
f 409//442 408//443 406//444 407//445
f 395//430 397//429 409//442 407//445
f 411//446 410//447 408//443 409//442
f 397//429 412//448 411//446 409//442
f 97//121 298//120 411//446 412//448
f 400//435 96//103 97//121 412//448
f 397//429 398//428 400//435 412//448
f 299//122 410//447 411//446 298//120
f 328//351 413//449 112//124 113//123
f 115//126 327//352 328//351 113//123
f 116//127 332//356 327//352 115//126
f 118//129 414//450 332//356 116//127
f 416//451 415//452 119//131 120//130
f 121//135 417//453 416//451 120//130
f 418//454 348//376 416//451 417//453
f 420//455 419//456 418//454 417//453
f 121//135 128//139 420//455 417//453
f 300//141 421//457 420//455 128//139
f 423//458 422//459 301//143 130//142
f 131//147 424//460 423//458 130//142
f 426//461 425//462 423//458 424//460
f 428//463 427//464 426//461 424//460
f 131//147 139//152 428//463 424//460
f 141//154 429//465 428//463 139//152
f 343//369 430//466 142//156 143//155
f 145//158 342//370 343//369 143//155
f 146//159 346//372 342//370 145//158
f 98//106 402//437 346//372 146//159
f 431//467 302//160 142//156 430//466
f 433//468 432//469 431//467 430//466
f 343//369 344//368 433//468 430//466
f 435//470 434//471 432//469 433//468
f 344//368 436//472 435//470 433//468
f 344//368 324//374 356//386 436//472
f 438//473 437//474 435//475 436//472
f 356//386 419//456 438//473 436//472
f 421//457 439//476 437//474 438//473
f 419//456 420//455 421//457 438//473
f 422//459 440//477 437//474 439//476
f 303//172 301//143 422//459 439//476
f 421//457 300//141 303//172 439//476
f 434//478 435//475 437//474 440//477
f 425//462 441//479 434//478 440//477
f 422//459 423//458 425//462 440//477
f 442//480 432//469 434//471 441//481
f 444//482 443//483 442//480 441//481
f 425//462 426//461 444//484 441//479
f 446//485 445//486 443//483 444//482
f 426//461 427//464 446//487 444//484
f 448//488 447//489 445//486 446//485
f 427//464 449//490 448//491 446//487
f 451//492 450//493 448//491 449//490
f 429//465 452//494 451//492 449//490
f 427//464 428//463 429//465 449//490
f 454//495 453//496 451//492 452//494
f 172//193 171//192 454//495 452//494
f 429//465 141//154 172//193 452//494
f 456//497 455//498 174//195 175//194
f 302//160 431//467 456//497 175//194
f 442//480 443//483 455//498 456//497
f 431//467 432//469 442//480 456//497
f 457//499 173//198 174//195 455//498
f 443//483 445//486 457//499 455//498
f 458//500 179//200 173//198 457//499
f 445//486 447//489 458//500 457//499
f 459//501 181//202 179//200 458//500
f 447//489 460//502 459//501 458//500
f 462//503 461//504 459//501 460//502
f 450//505 463//506 462//503 460//502
f 447//489 448//488 450//505 460//502
f 465//507 464//508 462//503 463//506
f 453//496 466//509 465//510 463//511
f 450//493 451//492 453//496 463//511
f 468//512 467//513 465//510 466//509
f 470//514 469//515 468//512 466//509
f 453//496 454//495 470//514 466//509
f 194//219 304//218 469//515 470//514
f 454//495 171//192 194//219 470//514
f 461//504 471//516 196//221 195//220
f 181//202 459//501 461//504 195//220
f 472//517 198//223 196//221 471//516
f 464//508 473//518 472//517 471//516
f 461//504 462//503 464//508 471//516
f 475//519 474//520 472//517 473//518
f 467//521 476//522 475//519 473//518
f 464//508 465//507 467//521 473//518
f 478//523 477//524 475//519 476//522
f 480//525 479//526 478//527 476//528
f 467//513 468//512 480//525 476//528
f 482//529 481//530 479//526 480//525
f 468//512 469//515 482//529 480//525
f 305//239 210//238 481//530 482//529
f 469//515 304//218 305//239 482//529
f 474//520 483//531 306//241 307//240
f 198//223 472//517 474//520 307//240
f 484//532 212//243 306//241 483//531
f 477//524 485//533 484//532 483//531
f 474//520 475//519 477//524 483//531
f 487//534 486//535 484//532 485//533
f 489//536 488//537 487//534 485//533
f 477//524 478//523 489//536 485//533
f 491//538 490//539 488//540 489//541
f 478//527 479//526 491//538 489//541
f 493//542 492//543 490//539 491//538
f 479//526 481//530 493//542 491//538
f 223//257 308//256 492//543 493//542
f 481//530 210//238 223//257 493//542
f 486//535 494//544 224//259 309//258
f 212//243 484//532 486//535 309//258
f 496//545 495//546 228//262 229//261
f 230//266 497//547 496//545 229//261
f 499//548 498//549 496//545 497//547
f 501//550 500//551 499//548 497//547
f 230//266 238//271 501//550 497//547
f 310//273 502//552 501//550 238//271
f 504//553 503//554 241//275 242//274
f 226//279 505//555 504//553 242//274
f 226//279 224//259 494//544 505//555
f 507//556 506//557 504//553 505//555
f 494//544 508//558 507//556 505//555
f 494//544 486//535 487//534 508//558
f 510//559 509//560 507//556 508//558
f 487//534 488//537 510//559 508//558
f 512//561 511//562 509//563 510//564
f 488//540 490//539 512//561 510//564
f 514//565 513//566 511//562 512//561
f 490//539 492//543 514//565 512//561
f 312//292 311//291 513//566 514//565
f 492//543 308//256 312//292 514//565
f 515//567 513//566 311//291 313//293
f 227//296 516//568 515//567 313//293
f 518//569 517//570 515//567 516//568
f 495//546 519//571 518//569 516//568
f 227//296 228//262 495//546 516//568
f 521//572 520//573 518//569 519//571
f 498//549 522//574 521//572 519//571
f 495//546 496//545 498//549 519//571
f 524//575 523//576 521//577 522//578
f 526//579 525//580 524//575 522//578
f 498//549 499//548 526//581 522//574
f 528//582 527//583 525//580 526//579
f 499//548 500//551 528//582 526//581
f 530//584 529//585 527//583 528//582
f 500//551 531//586 530//584 528//582
f 341//364 334//358 530//584 531//586
f 502//552 340//365 341//364 531//586
f 500//551 501//550 502//552 531//586
f 334//358 335//357 529//585 530//584
f 533//587 532//588 527//583 529//585
f 335//357 338//363 533//587 529//585
f 315//318 314//317 532//588 533//587
f 338//363 274//319 315//318 533//587
f 338//363 336//362 275//320 274//319
f 336//362 337//361 276//321 275//320
f 337//361 339//366 277//322 276//321
f 339//366 340//365 316//323 277//322
f 340//365 502//552 310//273 316//323
f 535//589 534//590 317//325 318//324
f 240//329 536//591 535//589 318//324
f 240//329 241//275 503//554 536//591
f 523//576 524//575 535//589 536//591
f 503//554 537//592 523//576 536//591
f 503//554 504//553 506//557 537//592
f 520//593 521//577 523//576 537//592
f 506//557 538//594 520//593 537//592
f 506//557 507//556 509//560 538//594
f 517//570 518//569 520//573 538//595
f 509//563 511//562 517//570 538//595
f 524//575 525//580 534//590 535//589
f 532//588 314//317 317//325 534//590
f 525//580 527//583 532//588 534//590
f 511//562 513//566 515//567 517//570
f 356//386 357//385 418//454 419//456
f 357//385 347//377 348//376 418//454
f 348//376 349//375 415//452 416//451
f 349//375 352//381 414//450 415//452
f 414//450 118//129 119//131 415//452
f 352//381 331//354 332//356 414//450
f 539//596 111//334 112//124 413//449
f 541//597 540//598 539//596 413//449
f 328//351 329//350 541//597 413//449
f 542//599 354//383 540//598 541//597
f 329//350 330//355 542//599 541//597
f 351//379 353//384 354//383 542//599
f 330//355 350//380 351//379 542//599
f 544//600 543//601 539//596 540//598
f 354//383 355//382 544//600 540//598
f 546//602 545//603 543//601 544//600
f 355//382 358//604 546//602 544//600
f 408//443 410//447 545//605 546//606
f 358//607 406//444 408//443 546//606
f 110//348 291//347 543//601 545//603
f 410//447 299//122 110//349 545//605
f 111//334 539//596 543//601 291//347
f 358//387 345//373 404//439 406//441
f 345//373 346//372 402//437 404//439
f 353//384 351//379 347//377 357//385
f 350//380 330//355 331//354 352//381
