# pilowlava3D glyph 'a' variant 2 — Vincent Wagner / Velvetyne, Free Art License
v 0.61675 0.17309 -0.40664
v 3.45737 1.96805 -0.55698
v 3.43118 0.43408 -0.40895
v 0.16672 0.48787 -0.40787
v 1.33210 1.52282 -0.58052
v 0.75346 0.28535 -0.44435
v 0.84682 0.18791 -0.24283
v 0.62741 0.06845 -0.25110
v 0.44838 0.20784 -0.46352
v 0.59380 0.38791 -0.59012
v 0.36299 0.06330 -0.26388
v 3.44179 1.70959 -0.30185
v 3.24232 1.66367 -0.29608
v 3.18816 1.85292 -0.54037
v 3.07527 2.04802 -0.61401
v 3.29518 2.28308 -0.64739
v 3.28247 0.42029 -0.26599
v 3.36078 0.67384 -0.25742
v 3.53573 0.58771 -0.44780
v 3.80944 0.44088 -0.51428
v 3.59622 0.30688 -0.46054
v 3.39147 0.17475 -0.28049
v 3.60413 0.05637 -0.23993
v 3.82891 0.10682 -0.31155
v 0.05874 0.47647 -0.25661
v 0.12761 0.71838 -0.24791
v 0.24808 0.64673 -0.45084
v 0.39907 0.52213 -0.59360
v 0.25659 0.33715 -0.46614
v 0.12516 0.21888 -0.26800
v 1.42120 1.30593 -0.53365
v 1.19155 1.16838 -0.53917
v 1.05379 1.32821 -0.57794
v 1.37969 1.80120 -0.56927
v 1.61314 1.78075 -0.48961
v 1.68298 1.53748 -0.47989
v 1.63991 1.34780 -0.49472
v 1.90479 1.33346 -0.41541
v 1.90534 1.24633 -0.34196
v 1.66539 1.20571 -0.37849
v 1.47382 1.14875 -0.39266
v 1.91020 1.42484 -0.38960
v 1.78257 1.59261 -0.24714
v 1.91644 1.46885 -0.23378
v 2.11017 1.45379 -0.21742
v 2.11339 1.42700 -0.34669
v 2.12433 1.35829 -0.39156
v 2.29124 1.51391 -0.36099
v 2.32168 1.44128 -0.42814
v 2.36511 1.37160 -0.36580
v 2.14101 1.29342 -0.32959
v 2.39473 1.32792 -0.21152
v 2.15722 1.25287 -0.19836
v 1.91587 1.18657 -0.19677
v 1.69623 1.12453 -0.19961
v 2.16880 1.22496 -0.00000
v 1.92763 1.15305 -0.00000
v 1.71436 1.08781 -0.00000
v 1.51541 1.05188 -0.20558
v 1.36004 0.94147 -0.20963
v 1.29361 1.03306 -0.39607
v 1.23006 0.78258 -0.21433
v 1.14514 0.86695 -0.40492
v 1.01943 0.98963 -0.54624
v 1.01765 0.67408 -0.42186
v 0.87835 0.79405 -0.56310
v 0.69414 0.93459 -0.57682
v 0.84884 1.13444 -0.56753
v 0.52474 1.04834 -0.44911
v 0.67656 1.26081 -0.44383
v 0.84218 1.47929 -0.45011
v 1.01791 1.68622 -0.45346
v 0.54392 1.34132 -0.24057
v 0.69042 1.56428 -0.23978
v 0.83609 1.78280 -0.23628
v 0.96730 2.00091 -0.23792
v 1.12452 1.89855 -0.44824
v 0.61885 1.60183 -0.00000
v 0.76129 1.82739 -0.00000
v 0.90212 2.05047 -0.00000
v 1.04512 2.27266 -0.00000
v 1.09926 2.22608 -0.24326
v 1.18328 2.48786 -0.00000
v 1.31834 2.69984 -0.00000
v 1.36663 2.66642 -0.23795
v 1.23614 2.44874 -0.24225
v 1.47121 2.60860 -0.44203
v 1.35026 2.38295 -0.44536
v 1.22930 2.14452 -0.45192
v 1.53780 2.30436 -0.54223
v 1.44072 2.06642 -0.55790
v 1.73035 2.23826 -0.46024
v 1.65219 2.01511 -0.47351
v 1.84933 2.20361 -0.24570
v 1.78176 1.99274 -0.24854
v 1.74932 1.78622 -0.24700
v 1.78850 1.78456 -0.00000
v 1.80638 1.60050 -0.00000
v 1.92077 1.47485 -0.00000
v 2.10976 1.46012 -0.00000
v 2.27290 1.57774 -0.00000
v 3.06114 1.51156 -0.00000
v 3.26005 1.57206 -0.00000
v 3.45009 1.62528 -0.00000
v 3.03983 1.59024 -0.28002
v 2.83774 1.50345 -0.26246
v 2.77118 1.60524 -0.46788
v 2.97481 1.73291 -0.50674
v 2.68191 1.72218 -0.53273
v 2.87085 1.88187 -0.58041
v 2.59275 1.83914 -0.45423
v 2.73310 2.03004 -0.48848
v 2.86593 2.22762 -0.51685
v 2.60320 2.12201 -0.26522
v 2.70229 2.32538 -0.27930
v 2.80649 2.52509 -0.28875
v 2.98316 2.42897 -0.54371
v 2.90389 2.73413 -0.28240
v 3.06913 2.66796 -0.52667
v 3.34333 2.60517 -0.62661
v 2.99207 2.95132 -0.27129
v 3.13733 2.91177 -0.49938
v 3.35883 2.88400 -0.58866
v 3.19758 3.15423 -0.46751
v 3.37492 3.14096 -0.54925
v 3.55700 3.13497 -0.46597
v 3.57700 2.88177 -0.49013
v 3.59686 2.62744 -0.51593
v 3.68777 3.14788 -0.25746
v 3.73011 2.91228 -0.26583
v 3.77704 2.68403 -0.27507
v 3.82468 2.47389 -0.27954
v 3.58913 2.37160 -0.55038
v 3.91584 2.50962 -0.00000
v 3.96989 2.30454 -0.00000
v 3.88497 2.28213 -0.26221
v 4.03311 2.08592 -0.00000
v 4.10176 1.84000 -0.00000
v 4.05160 1.82836 -0.23844
v 3.96448 2.06936 -0.24758
v 3.95702 1.78882 -0.38936
v 3.82986 1.99241 -0.42055
v 3.70188 2.18036 -0.48223
v 3.84792 1.71952 -0.39885
v 3.70676 1.85232 -0.45672
v 3.76563 1.65531 -0.24171
v 3.64002 1.70832 -0.26237
v 3.73206 1.62513 -0.00000
v 3.61559 1.65355 -0.00000
v 4.16643 1.33070 -0.25897
v 4.11680 1.58173 -0.24368
v 4.04964 1.33292 -0.42446
v 4.02609 1.56943 -0.39204
v 3.90897 1.34253 -0.41504
v 3.90948 1.55165 -0.39406
v 3.79700 1.35445 -0.24922
v 3.81803 1.53437 -0.24113
v 3.73962 1.36935 -0.00000
v 3.77468 1.52713 -0.00000
v 4.35801 0.82123 -0.00000
v 4.29223 1.08833 -0.00000
v 4.25692 0.81773 -0.29945
v 4.20839 1.07326 -0.27933
v 4.01577 0.82600 -0.48896
v 4.03583 1.07764 -0.46138
v 3.75379 0.91094 -0.46114
v 3.85354 1.11779 -0.44782
v 3.59267 1.00912 -0.26816
v 3.70962 1.17526 -0.26475
v 4.19319 0.18148 -0.00000
v 4.36559 0.49532 -0.00000
v 4.09345 0.25649 -0.33157
v 4.25337 0.52597 -0.32033
v 3.95381 0.61344 -0.50798
v 3.65719 0.74046 -0.46411
v 3.47677 0.84821 -0.26269
v 3.60054 0.00000 -0.00000
v 3.89756 0.01458 -0.00000
v 3.69167 3.40530 -0.00000
v 3.62969 3.65823 -0.00000
v 3.63846 3.39245 -0.24575
v 3.58990 3.65290 -0.23230
v 3.53487 3.38914 -0.43828
v 3.51260 3.64805 -0.40868
v 3.46731 3.91957 -0.38236
v 3.53000 3.93995 -0.22303
v 3.56055 3.94793 -0.00000
v 3.40669 4.22747 -0.22331
v 3.43456 4.24518 -0.00000
v 2.37272 1.75541 -0.00000
v 2.50661 1.92101 -0.25900
v 2.40142 1.72780 -0.24098
v 2.28025 1.55704 -0.21666
v 2.44505 1.65962 -0.40867
v 2.50305 1.56932 -0.48217
v 2.57106 1.47881 -0.41694
v 2.62197 1.41225 -0.23628
v 0.00000 0.46918 -0.00000
v 0.25536 0.92165 -0.24915
v 0.39686 1.12465 -0.24323
v 0.38121 0.84441 -0.46278
v 0.55422 0.73087 -0.60297
v 0.74292 0.59472 -0.59375
v 0.89676 0.47075 -0.44288
v 1.11420 0.59132 -0.22211
v 1.00113 0.38424 -0.23154
v 1.04786 0.34485 -0.00000
v 0.87803 0.14122 -0.00000
v 0.62845 0.01105 -0.00000
v 0.08178 0.18015 -0.00000
v 0.47673 1.37956 -0.00000
v 2.74638 2.55921 -0.00000
v 2.84208 2.76585 -0.00000
v 3.07653 3.17280 -0.26104
v 3.10513 3.40273 -0.00000
v 3.14675 3.39724 -0.24809
v 3.24734 3.39569 -0.43952
v 3.20281 3.61823 -0.23046
v 3.28539 3.63398 -0.40286
v 3.39807 3.64311 -0.46917
v 3.38790 3.39201 -0.50974
v 3.27714 3.85838 -0.36815
v 3.37153 3.89204 -0.43934
v 3.19600 4.05391 -0.35235
v 3.26596 4.11528 -0.43051
v 3.34588 4.18018 -0.37411
v 3.07562 4.26872 -0.42877
v 3.11781 4.36190 -0.37200
v 3.15408 4.43654 -0.22239
v 2.83127 4.41516 -0.36516
v 2.83048 4.49213 -0.21945
v 2.83106 4.52521 -0.00000
v 3.17094 4.46659 -0.00000
v 3.17404 3.61349 -0.00000
v 3.21635 3.82918 -0.21626
v 3.15833 4.01603 -0.20854
v 3.01207 4.12715 -0.00000
v 3.01829 4.13943 -0.20712
v 3.03746 4.18315 -0.34943
v 2.83409 4.17545 -0.20586
v 2.83376 4.22239 -0.34651
v 2.83236 4.31590 -0.42441
v 2.63389 4.17013 -0.34345
v 2.59764 4.24722 -0.42129
v 2.55412 4.33042 -0.36309
v 2.41652 4.07979 -0.42853
v 2.34588 4.14011 -0.36766
v 2.30425 4.17936 -0.21673
v 2.52341 4.39230 -0.21647
v 2.83304 4.16270 -0.00000
v 2.64985 4.12511 -0.20313
v 2.51412 3.97609 -0.20890
v 2.48037 4.01954 -0.35655
v 2.41752 3.77567 -0.21899
v 2.36987 3.81327 -0.37794
v 2.28754 3.86575 -0.44496
v 2.26835 3.59489 -0.39715
v 2.17429 3.64641 -0.46131
v 2.07242 3.69915 -0.40370
v 2.19854 3.91900 -0.38617
v 2.00938 3.72996 -0.22812
v 2.14614 3.94858 -0.22241
v 2.32942 3.55752 -0.22562
v 2.28011 3.31553 -0.00000
v 2.24685 3.33350 -0.23048
v 2.17522 3.37036 -0.41114
v 2.16609 3.10537 -0.23329
v 2.08575 3.14243 -0.42026
v 1.96306 3.19758 -0.49397
v 2.06761 3.42262 -0.47897
v 1.83124 3.26167 -0.42746
v 1.95170 3.47979 -0.41839
v 1.75105 3.30395 -0.23431
v 1.88009 3.51455 -0.23247
v 1.71527 3.32611 -0.00000
v 1.84772 3.53220 -0.00000
v 2.20207 3.08851 -0.00000
v 2.12197 2.86038 -0.00000
v 2.08330 2.87706 -0.23492
v 1.58326 3.11931 -0.00000
v 1.45103 2.90962 -0.00000
v 1.62150 3.09392 -0.23382
v 1.49371 2.88110 -0.23470
v 1.71000 3.04573 -0.43096
v 1.59041 2.82794 -0.43667
v 1.85820 2.97487 -0.50615
v 1.75443 2.75243 -0.51964
v 1.64669 2.53012 -0.53215
v 1.90593 2.68829 -0.43756
v 1.81768 2.46219 -0.44871
v 2.00096 2.65007 -0.23780
v 1.92258 2.42504 -0.24116
v 1.89363 2.19240 -0.00000
v 1.99535 2.91456 -0.42810
v 1.53471 1.01293 -0.00000
v 1.38897 0.90448 -0.00000
v 1.82705 1.98333 -0.00000
v 2.85713 1.44529 -0.00000
v 3.80578 2.93835 -0.00000
v 3.86138 2.71828 -0.00000
v 4.23099 1.33918 -0.00000
v 4.16870 1.58897 -0.00000
v 3.52250 1.06179 -0.00000
v 3.64150 1.21166 -0.00000
v 3.28281 0.70595 -0.00000
v 3.40011 0.89877 -0.00000
v 3.20538 0.41742 -0.00000
v 3.32807 0.13112 -0.00000
v 3.75106 3.16781 -0.00000
v 2.46116 1.94036 -0.00000
v 2.64191 1.37408 -0.00000
v 2.41172 1.29993 -0.00000
v 0.19516 0.95609 -0.00000
v 0.07306 0.74323 -0.00000
v 0.33259 1.16273 -0.00000
v 1.16580 0.55174 -0.00000
v 0.33438 0.01069 -0.00000
v 1.27277 0.74539 -0.00000
v 2.55367 2.14149 -0.00000
v 2.64755 2.35110 -0.00000
v 2.93640 2.97964 -0.00000
v 3.02457 3.19110 -0.00000
v 3.20072 3.81943 -0.00000
v 3.14919 4.00550 -0.00000
v 2.28495 4.19767 -0.00000
v 2.50776 4.41719 -0.00000
v 2.65182 4.11156 -0.00000
v 2.52407 3.95852 -0.00000
v 1.98141 3.74368 -0.00000
v 2.12112 3.96228 -0.00000
v 2.35796 3.53937 -0.00000
v 2.43795 3.75782 -0.00000
v 2.04241 2.63390 -0.00000
v 1.96561 2.41072 -0.00000
v 0.61675 0.17309 0.40664
v 3.45737 1.96805 0.55698
v 3.43118 0.43408 0.40895
v 0.16672 0.48787 0.40787
v 1.33210 1.52282 0.58052
v 0.75346 0.28535 0.44435
v 0.84682 0.18791 0.24283
v 0.62741 0.06845 0.25110
v 0.44838 0.20784 0.46352
v 0.59380 0.38791 0.59012
v 0.36299 0.06330 0.26388
v 3.44179 1.70959 0.30185
v 3.24232 1.66367 0.29608
v 3.18816 1.85292 0.54037
v 3.07527 2.04802 0.61401
v 3.29518 2.28308 0.64739
v 3.28247 0.42029 0.26599
v 3.36078 0.67384 0.25742
v 3.53573 0.58771 0.44780
v 3.80944 0.44088 0.51428
v 3.59622 0.30688 0.46054
v 3.39147 0.17475 0.28049
v 3.60413 0.05637 0.23993
v 3.82891 0.10682 0.31155
v 0.05874 0.47647 0.25661
v 0.12761 0.71838 0.24791
v 0.24808 0.64673 0.45084
v 0.39907 0.52213 0.59360
v 0.25659 0.33715 0.46614
v 0.12516 0.21888 0.26800
v 1.42120 1.30593 0.53365
v 1.19155 1.16838 0.53917
v 1.05379 1.32821 0.57794
v 1.37969 1.80120 0.56927
v 1.61314 1.78075 0.48961
v 1.68298 1.53748 0.47989
v 1.63991 1.34780 0.49472
v 1.90479 1.33346 0.41541
v 1.90534 1.24633 0.34196
v 1.66539 1.20571 0.37849
v 1.47382 1.14875 0.39266
v 1.91020 1.42484 0.38960
v 1.78257 1.59261 0.24714
v 1.91644 1.46885 0.23378
v 2.11017 1.45379 0.21742
v 2.11339 1.42700 0.34669
v 2.12433 1.35829 0.39156
v 2.29124 1.51391 0.36099
v 2.32168 1.44128 0.42814
v 2.36511 1.37160 0.36580
v 2.14101 1.29342 0.32959
v 2.39473 1.32792 0.21152
v 2.15722 1.25287 0.19836
v 1.91587 1.18657 0.19677
v 1.69623 1.12453 0.19961
v 1.51541 1.05188 0.20558
v 1.36004 0.94147 0.20963
v 1.29361 1.03306 0.39607
v 1.23006 0.78258 0.21433
v 1.14514 0.86695 0.40492
v 1.01943 0.98963 0.54624
v 1.01765 0.67408 0.42186
v 0.87835 0.79405 0.56310
v 0.69414 0.93459 0.57682
v 0.84884 1.13444 0.56753
v 0.52474 1.04834 0.44911
v 0.67656 1.26081 0.44383
v 0.84218 1.47929 0.45011
v 1.01791 1.68622 0.45346
v 0.54392 1.34132 0.24057
v 0.69042 1.56428 0.23978
v 0.83609 1.78280 0.23628
v 0.96730 2.00091 0.23792
v 1.12452 1.89855 0.44824
v 1.09926 2.22608 0.24326
v 1.36663 2.66642 0.23795
v 1.23614 2.44874 0.24225
v 1.47121 2.60860 0.44203
v 1.35026 2.38295 0.44536
v 1.22930 2.14452 0.45192
v 1.53780 2.30436 0.54223
v 1.44072 2.06642 0.55790
v 1.73035 2.23826 0.46024
v 1.65219 2.01511 0.47351
v 1.84933 2.20361 0.24570
v 1.78176 1.99274 0.24854
v 1.74932 1.78622 0.24700
v 3.03983 1.59024 0.28002
v 2.83774 1.50345 0.26246
v 2.77118 1.60524 0.46788
v 2.97481 1.73291 0.50674
v 2.68191 1.72218 0.53273
v 2.87085 1.88187 0.58041
v 2.59275 1.83914 0.45423
v 2.73310 2.03004 0.48848
v 2.86593 2.22762 0.51685
v 2.60320 2.12201 0.26522
v 2.70229 2.32538 0.27930
v 2.80649 2.52509 0.28875
v 2.98316 2.42897 0.54371
v 2.90389 2.73413 0.28240
v 3.06913 2.66796 0.52667
v 3.34333 2.60517 0.62661
v 2.99207 2.95132 0.27129
v 3.13733 2.91177 0.49938
v 3.35883 2.88400 0.58866
v 3.19758 3.15423 0.46751
v 3.37492 3.14096 0.54925
v 3.55700 3.13497 0.46597
v 3.57700 2.88177 0.49013
v 3.59686 2.62744 0.51593
v 3.68777 3.14788 0.25746
v 3.73011 2.91228 0.26583
v 3.77704 2.68403 0.27507
v 3.82468 2.47389 0.27954
v 3.58913 2.37160 0.55038
v 3.88497 2.28213 0.26221
v 4.05160 1.82836 0.23844
v 3.96448 2.06936 0.24758
v 3.95702 1.78882 0.38936
v 3.82986 1.99241 0.42055
v 3.70188 2.18036 0.48223
v 3.84792 1.71952 0.39885
v 3.70676 1.85232 0.45672
v 3.76563 1.65531 0.24171
v 3.64002 1.70832 0.26237
v 4.16643 1.33070 0.25897
v 4.11680 1.58173 0.24368
v 4.04964 1.33292 0.42446
v 4.02609 1.56943 0.39204
v 3.90897 1.34253 0.41504
v 3.90948 1.55165 0.39406
v 3.79700 1.35445 0.24922
v 3.81803 1.53437 0.24113
v 4.25692 0.81773 0.29945
v 4.20839 1.07326 0.27933
v 4.01577 0.82600 0.48896
v 4.03583 1.07764 0.46138
v 3.75379 0.91094 0.46114
v 3.85354 1.11779 0.44782
v 3.59267 1.00912 0.26816
v 3.70962 1.17526 0.26475
v 4.09345 0.25649 0.33157
v 4.25337 0.52597 0.32033
v 3.95381 0.61344 0.50798
v 3.65719 0.74046 0.46411
v 3.47677 0.84821 0.26269
v 3.63846 3.39245 0.24575
v 3.58990 3.65290 0.23230
v 3.53487 3.38914 0.43828
v 3.51260 3.64805 0.40868
v 3.46731 3.91957 0.38236
v 3.53000 3.93995 0.22303
v 3.40669 4.22747 0.22331
v 2.50661 1.92101 0.25900
v 2.40142 1.72780 0.24098
v 2.28025 1.55704 0.21666
v 2.44505 1.65962 0.40867
v 2.50305 1.56932 0.48217
v 2.57106 1.47881 0.41694
v 2.62197 1.41225 0.23628
v 0.25536 0.92165 0.24915
v 0.39686 1.12465 0.24323
v 0.38121 0.84441 0.46278
v 0.55422 0.73087 0.60297
v 0.74292 0.59472 0.59375
v 0.89676 0.47075 0.44288
v 1.11420 0.59132 0.22211
v 1.00113 0.38424 0.23154
v 3.07653 3.17280 0.26104
v 3.14675 3.39724 0.24809
v 3.24734 3.39569 0.43952
v 3.20281 3.61823 0.23046
v 3.28539 3.63398 0.40286
v 3.39807 3.64311 0.46917
v 3.38790 3.39201 0.50974
v 3.27714 3.85838 0.36815
v 3.37153 3.89204 0.43934
v 3.19600 4.05391 0.35235
v 3.26596 4.11528 0.43051
v 3.34588 4.18018 0.37411
v 3.07562 4.26872 0.42877
v 3.11781 4.36190 0.37200
v 3.15408 4.43654 0.22239
v 2.83127 4.41516 0.36516
v 2.83048 4.49213 0.21945
v 3.21635 3.82918 0.21626
v 3.15833 4.01603 0.20854
v 3.01829 4.13943 0.20712
v 3.03746 4.18315 0.34943
v 2.83409 4.17545 0.20586
v 2.83376 4.22239 0.34651
v 2.83236 4.31590 0.42441
v 2.63389 4.17013 0.34345
v 2.59764 4.24722 0.42129
v 2.55412 4.33042 0.36309
v 2.41652 4.07979 0.42853
v 2.34588 4.14011 0.36766
v 2.30425 4.17936 0.21673
v 2.52341 4.39230 0.21647
v 2.64985 4.12511 0.20313
v 2.51412 3.97609 0.20890
v 2.48037 4.01954 0.35655
v 2.41752 3.77567 0.21899
v 2.36987 3.81327 0.37794
v 2.28754 3.86575 0.44496
v 2.26835 3.59489 0.39715
v 2.17429 3.64641 0.46131
v 2.07242 3.69915 0.40370
v 2.19854 3.91900 0.38617
v 2.00938 3.72996 0.22812
v 2.14614 3.94858 0.22241
v 2.32942 3.55752 0.22562
v 2.24685 3.33350 0.23048
v 2.17522 3.37036 0.41114
v 2.16609 3.10537 0.23329
v 2.08575 3.14243 0.42026
v 1.96306 3.19758 0.49397
v 2.06761 3.42262 0.47897
v 1.83124 3.26167 0.42746
v 1.95170 3.47979 0.41839
v 1.75105 3.30395 0.23431
v 1.88009 3.51455 0.23247
v 2.08330 2.87706 0.23492
v 1.62150 3.09392 0.23382
v 1.49371 2.88110 0.23470
v 1.71000 3.04573 0.43096
v 1.59041 2.82794 0.43667
v 1.85820 2.97487 0.50615
v 1.75443 2.75243 0.51964
v 1.64669 2.53012 0.53215
v 1.90593 2.68829 0.43756
v 1.81768 2.46219 0.44871
v 2.00096 2.65007 0.23780
v 1.92258 2.42504 0.24116
v 1.99535 2.91456 0.42810
vn 0.22718 -0.73200 -0.64232
vn 0.46167 -0.56473 -0.68406
vn 0.60020 -0.69645 -0.39333
vn 0.24609 -0.88466 -0.39600
vn -0.11718 -0.64586 -0.75441
vn 0.11499 -0.37322 -0.92059
vn -0.24169 -0.86727 -0.43524
vn 0.21676 -0.40854 -0.88663
vn 0.14112 -0.86890 -0.47445
vn 0.25624 -0.84733 -0.46515
vn 0.17283 -0.54652 -0.81942
vn -0.12511 -0.09060 -0.98800
vn 0.04134 -0.01643 -0.99901
vn -0.53904 -0.03823 -0.84141
vn -0.83884 -0.05539 -0.54155
vn -0.77048 0.36547 -0.52229
vn -0.44073 0.18537 -0.87829
vn 0.04176 -0.18679 -0.98151
vn -0.22768 -0.40162 -0.88705
vn -0.56717 -0.61561 -0.54712
vn -0.17931 -0.87630 -0.44715
vn 0.14773 -0.78764 -0.59816
vn -0.74346 0.02337 -0.66837
vn -0.90984 0.01499 -0.41468
vn -0.83468 0.37064 -0.40736
vn -0.66184 0.26040 -0.70296
vn -0.35827 -0.03029 -0.93313
vn -0.54332 -0.32528 -0.77395
vn -0.72589 -0.51911 -0.45123
vn 0.00179 0.05867 -0.99828
vn 0.24250 -0.34505 -0.90672
vn 0.27132 -0.31680 -0.90886
vn -0.11752 0.08695 -0.98926
vn -0.02408 0.07947 -0.99655
vn 0.32232 0.00391 -0.94662
vn 0.30071 0.03742 -0.95298
vn 0.27982 -0.29872 -0.91240
vn 0.18533 -0.63115 -0.75319
vn 0.21278 -0.78503 -0.58176
vn 0.25587 -0.74660 -0.61410
vn 0.35808 -0.68453 -0.63498
vn 0.24877 0.26717 -0.93098
vn 0.33820 0.89133 -0.30191
vn 0.76227 0.49089 -0.42186
vn 0.84048 0.47280 -0.26468
vn 0.38222 0.90678 -0.17796
vn -0.23022 0.96168 -0.14890
vn -0.17688 0.77284 -0.60945
vn -0.11727 0.47746 -0.87079
vn -0.55752 0.61384 -0.55890
vn -0.44042 0.44938 -0.77723
vn 0.13996 -0.64800 -0.74867
vn 0.12093 -0.60935 -0.78363
vn 0.21657 -0.78282 -0.58334
vn 0.19928 -0.80577 -0.55769
vn 0.30015 -0.92120 -0.24759
vn 0.26447 -0.93291 -0.24441
vn 0.25319 -0.92633 -0.27894
vn 0.30284 -0.89798 -0.31926
vn 0.28459 -0.95865 -0.00002
vn 0.27908 -0.96027 -0.00008
vn 0.33291 -0.94296 -0.00006
vn 0.48928 -0.87213 -0.00009
vn 0.44667 -0.82302 -0.35090
vn 0.69816 -0.71595 -0.00033
vn 0.63801 -0.67320 -0.37381
vn 0.50893 -0.56584 -0.64871
vn 0.76036 -0.51857 -0.39108
vn 0.61675 -0.43210 -0.65796
vn 0.31906 -0.21707 -0.92254
vn 0.65943 -0.35275 -0.66387
vn 0.34466 -0.13311 -0.92924
vn -0.15886 0.19842 -0.96716
vn -0.15217 0.13667 -0.97886
vn -0.54010 0.42001 -0.72930
vn -0.52692 0.39246 -0.75388
vn -0.48438 0.38093 -0.78757
vn -0.47998 0.32160 -0.81621
vn -0.73257 0.49837 -0.46365
vn -0.72009 0.49193 -0.48936
vn -0.72318 0.46495 -0.51073
vn -0.75502 0.43050 -0.49458
vn -0.53392 0.25371 -0.80657
vn -0.83823 0.54532 -0.00004
vn -0.84481 0.53507 -0.00016
vn -0.85280 0.52223 -0.00003
vn -0.85008 0.52666 0.00012
vn -0.77373 0.44683 -0.44909
vn -0.84797 0.53005 0.00002
vn -0.85080 0.52548 -0.00001
vn -0.79409 0.47627 -0.37761
vn -0.78186 0.47095 -0.40854
vn -0.58110 0.34049 -0.73918
vn -0.57043 0.32879 -0.75267
vn -0.56264 0.28478 -0.77610
vn -0.37315 0.21484 -0.90255
vn -0.38300 0.17769 -0.90650
vn 0.35183 -0.04717 -0.93488
vn 0.36775 -0.09901 -0.92464
vn 0.63185 -0.19512 -0.75013
vn 0.63575 -0.12682 -0.76140
vn 0.89343 -0.29009 -0.34298
vn 0.91430 -0.21658 -0.34227
vn 0.94715 0.00730 -0.32072
vn 0.87557 0.03407 -0.48190
vn 0.97108 -0.23876 -0.00011
vn 0.99980 -0.01990 0.00031
vn 0.89716 0.44170 -0.00009
vn 0.71137 0.70282 -0.00100
vn 0.07875 0.99689 0.00001
vn -0.25013 0.96821 -0.00010
vn 0.27431 -0.96164 -0.00023
vn 0.32404 -0.94604 0.00006
vn 0.31246 -0.84948 -0.42515
vn 0.17416 -0.98472 -0.00200
vn 0.34112 -0.86531 -0.36725
vn 0.23446 -0.64498 -0.72734
vn 0.20658 -0.59578 -0.77612
vn 0.34177 -0.93978 -0.00008
vn 0.10671 -0.43740 -0.89291
vn -0.16235 -0.10413 -0.98122
vn -0.47395 0.22686 -0.85082
vn -0.63587 0.33327 -0.69613
vn -0.58268 0.28672 -0.76045
vn -0.54270 0.24797 -0.80249
vn -0.82886 0.39892 -0.39225
vn -0.81821 0.39033 -0.42210
vn -0.81605 0.38590 -0.43029
vn -0.53008 0.23428 -0.81494
vn -0.83172 0.36609 -0.41739
vn -0.54901 0.24577 -0.79886
vn 0.03499 0.12522 -0.99151
vn -0.85326 0.34499 -0.39106
vn -0.59072 0.25211 -0.76648
vn -0.35002 0.17833 -0.91961
vn -0.63533 0.24154 -0.73350
vn -0.39631 0.18343 -0.89960
vn 0.40616 0.11389 -0.90668
vn 0.41954 0.12103 -0.89963
vn 0.65416 0.14205 -0.74290
vn 0.62792 0.13555 -0.76638
vn 0.59077 0.11669 -0.79836
vn 0.90108 0.18348 -0.39293
vn 0.88257 0.18161 -0.43370
vn 0.86219 0.18452 -0.47179
vn 0.84227 0.19758 -0.50154
vn 0.55932 0.06518 -0.82639
vn 0.97568 0.21921 0.00013
vn 0.97206 0.23474 0.00008
vn 0.96779 0.25178 0.00008
vn 0.95878 0.28416 0.00004
vn 0.82932 0.24133 -0.50397
vn 0.95314 0.30254 -0.00004
vn 0.96013 0.27956 -0.00002
vn 0.86855 0.27872 -0.40980
vn 0.83662 0.28705 -0.46655
vn 0.76860 0.27404 -0.57806
vn 0.53224 0.10049 -0.84061
vn 0.54878 0.05970 -0.83383
vn 0.14453 -0.04041 -0.98867
vn 0.29328 -0.07899 -0.95276
vn -0.16083 -0.76560 -0.62289
vn -0.58702 -0.57091 -0.57399
vn -0.63398 -0.66277 -0.39850
vn -0.13339 -0.89218 -0.43153
vn -0.29963 -0.95405 0.00234
vn -0.10016 -0.99497 -0.00066
vn 0.97032 0.24184 -0.00002
vn 0.97610 0.21734 -0.00009
vn 0.88718 0.17915 -0.42522
vn 0.89381 0.22650 -0.38704
vn 0.79615 0.14143 -0.58834
vn 0.81257 0.20956 -0.54389
vn 0.00917 0.06389 -0.99791
vn -0.04003 0.13454 -0.99010
vn -0.83096 -0.12029 -0.54317
vn -0.79360 0.21602 -0.56880
vn -0.87057 0.27648 -0.40701
vn -0.91784 -0.12110 -0.37803
vn -0.94186 0.33599 -0.00037
vn -0.99285 -0.11936 -0.00095
vn -0.91716 -0.39852 -0.00001
vn 0.97610 0.21733 -0.00023
vn 0.99248 0.12244 -0.00003
vn 0.81772 0.08310 -0.56958
vn 0.85206 0.16325 -0.49733
vn 0.62749 0.04313 -0.77742
vn 0.72236 0.10960 -0.68278
vn -0.05479 0.12868 -0.99017
vn -0.07577 0.09844 -0.99225
vn -0.36483 0.25727 -0.89482
vn -0.68079 0.36850 -0.63303
vn -0.70609 0.48842 -0.51272
vn -0.75893 0.45777 -0.46311
vn -0.80379 0.59492 -0.00034
vn -0.83663 0.54776 0.00029
vn 0.96978 -0.24399 -0.00019
vn 0.70341 -0.71078 -0.00007
vn 0.50798 -0.56155 -0.65315
vn 0.74732 -0.19845 -0.63414
vn 0.20336 -0.02991 -0.97865
vn -0.37345 0.24520 -0.89466
vn -0.70641 0.46722 -0.53169
vn -0.91169 0.41087 0.00046
vn -0.82760 0.56132 -0.00030
vn -0.99816 -0.06057 0.00075
vn -0.72509 -0.68865 0.00063
vn -0.18397 -0.98293 -0.00149
vn 0.29075 -0.95680 -0.00183
vn 0.97536 0.22062 -0.00004
vn 0.97606 0.21749 0.00013
vn 0.91957 0.18918 -0.34438
vn 0.93471 0.19699 -0.29581
vn 0.97592 0.21815 -0.00016
vn 0.68457 0.15154 -0.71303
vn 0.71181 0.16990 -0.68152
vn 0.69489 0.25509 -0.67235
vn 0.91288 0.29830 -0.27870
vn 0.95147 0.30774 -0.00008
vn 0.76055 0.57519 -0.30121
vn 0.80244 0.59674 -0.00009
vn -0.87204 0.48943 -0.00010
vn -0.90001 0.43586 0.00028
vn -0.83426 0.43010 -0.34499
vn -0.82092 0.50276 -0.27079
vn -0.67299 0.71449 -0.19128
vn -0.71640 0.69768 -0.00050
vn -0.66507 0.42753 -0.61229
vn -0.52169 0.31545 -0.79267
vn 0.11927 -0.52043 -0.84553
vn 0.23748 -0.71587 -0.65660
vn 0.33232 -0.89462 -0.29870
vn 0.33021 -0.94391 -0.00019
vn 0.30683 -0.95177 0.00003
vn -0.91869 0.39498 0.00027
vn -0.84154 0.54020 -0.00009
vn -0.75545 0.49848 -0.42523
vn -0.99998 0.00623 -0.00014
vn -0.73356 0.51476 -0.44374
vn -0.57353 0.40559 -0.71173
vn -0.82691 0.56234 -0.00000
vn -0.20632 0.18440 -0.96095
vn 0.30723 -0.15711 -0.93858
vn 0.62932 -0.38662 -0.67415
vn 0.80052 -0.44619 -0.40010
vn 0.76859 -0.49946 -0.39977
vn 0.87192 -0.48964 -0.00003
vn 0.83113 -0.55608 -0.00027
vn 0.63951 -0.76878 0.00009
vn 0.25155 -0.96785 0.00077
vn -0.28007 -0.95998 0.00053
vn -0.55096 -0.83453 0.00026
vn -0.96651 -0.25664 -0.00099
vn 0.83207 -0.55467 -0.00029
vn -0.83407 0.55166 0.00001
vn -0.90738 0.42030 -0.00004
vn -0.90303 0.42959 -0.00009
vn -0.90140 0.43298 -0.00005
vn -0.91219 0.40977 0.00001
vn -0.92288 0.38508 -0.00008
vn -0.93538 0.35365 0.00014
vn -0.87915 0.31679 -0.35599
vn -0.95139 0.30800 0.00044
vn -0.90862 0.27816 -0.31150
vn -0.68200 0.22197 -0.69685
vn -0.94824 0.17045 -0.26793
vn -0.74127 0.14266 -0.65587
vn -0.52102 0.12745 -0.84397
vn -0.44577 0.17912 -0.87704
vn 0.43642 0.12956 -0.89037
vn 0.45494 0.14559 -0.87854
vn -0.77854 -0.10052 -0.61950
vn -0.58495 -0.07144 -0.80792
vn 0.45037 0.19722 -0.87079
vn -0.66411 -0.46006 -0.58932
vn -0.51183 -0.36422 -0.77806
vn 0.37220 0.31401 -0.87342
vn 0.56423 0.44905 -0.69282
vn 0.19214 0.44968 -0.87228
vn 0.28798 0.65018 -0.70309
vn 0.39401 0.86238 -0.31790
vn -0.05498 0.72302 -0.68863
vn -0.07007 0.94887 -0.30779
vn -0.07473 0.99720 0.00009
vn 0.41897 0.90800 -0.00005
vn -0.98135 0.19225 0.00006
vn -0.99573 -0.09235 -0.00011
vn -0.96552 -0.10868 -0.23658
vn -0.84436 -0.53577 0.00006
vn -0.81633 -0.53575 -0.21584
vn -0.44349 -0.89628 0.00001
vn -0.43053 -0.88018 -0.19980
vn -0.35801 -0.73953 -0.57003
vn 0.03358 -0.98040 -0.19416
vn 0.02345 -0.82704 -0.56165
vn 0.01641 -0.64943 -0.76025
vn -0.28051 -0.57789 -0.76639
vn 0.42137 -0.70980 -0.56447
vn 0.33087 -0.56132 -0.75858
vn -0.04160 0.50836 -0.86014
vn -0.25897 0.46277 -0.84781
vn -0.37542 0.64827 -0.66243
vn -0.38134 0.37104 -0.84670
vn -0.57037 0.51558 -0.63942
vn -0.73632 0.62937 -0.24845
vn -0.49401 0.82316 -0.27995
vn -0.76421 0.64497 -0.00005
vn -0.52001 0.85416 0.00004
vn 0.03782 -0.99928 0.00002
vn 0.53327 -0.84595 -0.00005
vn 0.51238 -0.83499 -0.20064
vn 0.84150 -0.54025 -0.00018
vn 0.81543 -0.54000 -0.20850
vn 0.67816 -0.46121 -0.57217
vn 0.89324 -0.38447 -0.23302
vn 0.73017 -0.31242 -0.60766
vn 0.53941 -0.21670 -0.81368
vn 0.52626 -0.35539 -0.77250
vn 0.71604 -0.26671 -0.64510
vn 0.49956 -0.17009 -0.84942
vn -0.39607 0.30215 -0.86708
vn -0.37312 0.26419 -0.88937
vn -0.62544 0.43476 -0.64792
vn -0.79356 0.48375 -0.36912
vn -0.82240 0.50832 -0.25546
vn -0.80923 0.53565 -0.24129
vn -0.84759 0.53066 0.00002
vn -0.83346 0.55259 -0.00001
vn 0.92287 -0.38511 -0.00007
vn 0.93801 -0.34662 0.00003
vn 0.90232 -0.34272 -0.26144
vn 0.94324 -0.33210 -0.00002
vn 0.90267 -0.32406 -0.28315
vn 0.70179 -0.24661 -0.66834
vn 0.89836 -0.32168 -0.29912
vn 0.68692 -0.24388 -0.68459
vn 0.45599 -0.15365 -0.87662
vn 0.47482 -0.15396 -0.86651
vn -0.35761 0.24002 -0.90250
vn -0.35492 0.22229 -0.90809
vn -0.60340 0.36452 -0.70925
vn -0.78931 0.47013 -0.39493
vn -0.81316 0.49724 -0.30252
vn -0.82020 0.50017 -0.27768
vn -0.84691 0.53174 -0.00001
vn -0.84871 0.52886 -0.00001
vn 0.94327 -0.33202 -0.00000
vn 0.94208 -0.33538 0.00001
vn 0.89359 -0.32262 -0.31210
vn -0.85179 0.52389 0.00001
vn -0.84929 0.52793 0.00001
vn -0.80838 0.48961 -0.32681
vn -0.80321 0.48143 -0.35083
vn -0.59518 0.35476 -0.72104
vn -0.58789 0.34878 -0.72988
vn -0.35622 0.21821 -0.90857
vn -0.35870 0.22126 -0.90685
vn -0.36618 0.21903 -0.90440
vn 0.39278 -0.12541 -0.91104
vn 0.42216 -0.13592 -0.89627
vn 0.66321 -0.22934 -0.71243
vn 0.64610 -0.21773 -0.73154
vn 0.89222 -0.31568 -0.32294
vn 0.89234 -0.30398 -0.33365
vn 0.94379 -0.33055 0.00001
vn 0.94779 -0.31890 0.00001
vn 0.95154 -0.30753 0.00000
vn 0.67429 -0.24008 -0.69836
vn 0.44010 -0.14779 -0.88570
vn 0.24589 -0.88356 0.39856
vn 0.59881 -0.69679 0.39485
vn 0.46203 -0.57196 0.67779
vn 0.22916 -0.73902 0.63351
vn 0.11795 -0.38252 0.91639
vn -0.11340 -0.65327 0.74858
vn -0.24024 -0.86679 0.43698
vn 0.17219 -0.54294 0.82193
vn 0.25789 -0.84479 0.46885
vn 0.14998 -0.87019 0.46934
vn 0.22090 -0.41091 0.88451
vn 0.04346 -0.01507 0.99894
vn -0.12734 -0.09323 0.98747
vn -0.43612 0.18338 0.88100
vn -0.76985 0.36313 0.52485
vn -0.83443 -0.04073 0.54961
vn -0.53012 -0.01737 0.84775
vn -0.22574 -0.39300 0.89140
vn 0.04874 -0.18878 0.98081
vn -0.57066 -0.60950 0.55033
vn 0.15152 -0.79495 0.58745
vn -0.17435 -0.88408 0.43359
vn -0.66864 0.26015 0.69660
vn -0.83450 0.37023 0.40809
vn -0.90882 0.01790 0.41680
vn -0.74956 0.02796 0.66135
vn -0.55048 -0.32105 0.77065
vn -0.36729 -0.02971 0.92963
vn -0.72635 -0.51620 0.45382
vn -0.11387 0.08587 0.98978
vn 0.27256 -0.31805 0.90805
vn 0.24541 -0.35310 0.90282
vn 0.00650 0.04779 0.99884
vn 0.28955 0.02394 0.95686
vn 0.32199 -0.00190 0.94674
vn -0.02432 0.07296 0.99704
vn 0.26948 -0.30519 0.91337
vn 0.25366 -0.74659 0.61503
vn 0.21135 -0.78442 0.58311
vn 0.18340 -0.63036 0.75433
vn 0.35831 -0.68430 0.63509
vn 0.23007 0.27281 0.93415
vn 0.38919 0.90507 0.17137
vn 0.84644 0.46753 0.25487
vn 0.77704 0.48317 0.40343
vn 0.35139 0.88992 0.29082
vn -0.17573 0.77362 0.60879
vn -0.23268 0.96105 0.14911
vn -0.11060 0.48113 0.86965
vn -0.44183 0.44762 0.77745
vn -0.55613 0.61456 0.55949
vn 0.19976 -0.80484 0.55887
vn 0.21971 -0.78168 0.58370
vn 0.12307 -0.60789 0.78443
vn 0.13925 -0.64658 0.75003
vn 0.26527 -0.93259 0.24475
vn 0.30242 -0.92051 0.24739
vn 0.25283 -0.92622 0.27964
vn 0.30233 -0.89808 0.31946
vn 0.44705 -0.82268 0.35120
vn 0.63827 -0.67297 0.37380
vn 0.50879 -0.56574 0.64890
vn 0.61694 -0.43191 0.65790
vn 0.76088 -0.51827 0.39046
vn 0.31979 -0.21748 0.92219
vn 0.34449 -0.13311 0.92931
vn 0.65958 -0.35275 0.66371
vn -0.15214 0.13517 0.97907
vn -0.15936 0.19850 0.96706
vn -0.52754 0.39181 0.75378
vn -0.54025 0.41999 0.72920
vn -0.48283 0.38095 0.78851
vn -0.47763 0.31995 0.81823
vn -0.72041 0.49152 0.48930
vn -0.73234 0.49861 0.46374
vn -0.72347 0.46453 0.51069
vn -0.53354 0.25166 0.80746
vn -0.75438 0.43157 0.49463
vn -0.77347 0.44721 0.44916
vn -0.78197 0.47067 0.40866
vn -0.79409 0.47631 0.37755
vn -0.57055 0.32844 0.75273
vn -0.58111 0.34055 0.73915
vn -0.56259 0.28481 0.77613
vn -0.38328 0.17676 0.90656
vn -0.37318 0.21482 0.90255
vn 0.63595 -0.12687 0.76123
vn 0.63211 -0.19470 0.75002
vn 0.36803 -0.09854 0.92458
vn 0.35306 -0.04699 0.93442
vn 0.91415 -0.21682 0.34252
vn 0.89351 -0.28993 0.34289
vn 0.87736 0.03283 0.47871
vn 0.94763 0.00667 0.31929
vn 0.31278 -0.84928 0.42532
vn 0.20706 -0.59500 0.77660
vn 0.22936 -0.64833 0.72599
vn 0.33794 -0.86710 0.36597
vn -0.16297 -0.10389 0.98115
vn 0.10277 -0.43967 0.89226
vn -0.58127 0.28823 0.76095
vn -0.63305 0.33571 0.69753
vn -0.46628 0.23205 0.85366
vn -0.54227 0.24694 0.80309
vn -0.81750 0.39143 0.42247
vn -0.82700 0.40146 0.39358
vn -0.52815 0.23557 0.81582
vn -0.81597 0.38564 0.43067
vn -0.54970 0.24736 0.79790
vn -0.83176 0.36504 0.41823
vn 0.03640 0.12986 0.99086
vn -0.59082 0.25042 0.76696
vn -0.85345 0.34361 0.39187
vn -0.35045 0.17853 0.91941
vn -0.39622 0.17949 0.90044
vn -0.63551 0.23938 0.73405
vn 0.62815 0.13602 0.76611
vn 0.65398 0.14270 0.74293
vn 0.41944 0.12155 0.89961
vn 0.40651 0.11437 0.90646
vn 0.59287 0.11603 0.79689
vn 0.88262 0.18143 0.43366
vn 0.90103 0.18338 0.39310
vn 0.86232 0.18264 0.47228
vn 0.56188 0.06471 0.82469
vn 0.84218 0.19516 0.50265
vn 0.82859 0.24308 0.50433
vn 0.83691 0.28475 0.46743
vn 0.86962 0.27506 0.41000
vn 0.53060 0.10559 0.84102
vn 0.77051 0.26771 0.57848
vn 0.54894 0.06243 0.83353
vn 0.29134 -0.06434 0.95445
vn 0.13967 -0.02796 0.98980
vn -0.12892 -0.89238 0.43249
vn -0.63762 -0.65562 0.40447
vn -0.59113 -0.55830 0.58213
vn -0.15384 -0.76481 0.62562
vn 0.89440 0.22572 0.38613
vn 0.88683 0.18207 0.42472
vn 0.81388 0.20867 0.54227
vn 0.79576 0.14662 0.58760
vn 0.00778 0.06059 0.99813
vn -0.03781 0.13243 0.99047
vn -0.91925 -0.12007 0.37492
vn -0.87100 0.27413 0.40769
vn -0.79349 0.21171 0.57057
vn -0.83372 -0.11936 0.53913
vn 0.85221 0.16299 0.49717
vn 0.81605 0.08284 0.57202
vn 0.72251 0.10841 0.68281
vn 0.62291 0.04284 0.78112
vn -0.05457 0.12602 0.99053
vn -0.36548 0.25878 0.89412
vn -0.07608 0.09854 0.99222
vn -0.75900 0.45601 0.46474
vn -0.70620 0.48983 0.51122
vn -0.68005 0.36582 0.63538
vn 0.74677 -0.19728 0.63515
vn 0.51011 -0.56349 0.64982
vn 0.50407 -0.14433 0.85152
vn -0.37286 0.24533 0.89487
vn -0.11906 0.08997 0.98880
vn -0.70667 0.46727 0.53130
vn 0.91969 0.18931 0.34399
vn 0.93486 0.19644 0.29570
vn 0.71224 0.16848 0.68141
vn 0.68491 0.15152 0.71270
vn 0.91307 0.29832 0.27804
vn 0.69520 0.25506 0.67204
vn 0.76080 0.57503 0.30087
vn -0.82106 0.50270 0.27048
vn -0.83458 0.42980 0.34460
vn -0.67194 0.71533 0.19184
vn -0.66466 0.42895 0.61174
vn -0.52184 0.31689 0.79200
vn 0.23768 -0.71665 0.65569
vn 0.11985 -0.52120 0.84498
vn 0.33181 -0.89507 0.29790
vn -0.75544 0.49854 0.42517
vn -0.57399 0.40546 0.71144
vn -0.73354 0.51479 0.44375
vn -0.20684 0.18442 0.96084
vn 0.30717 -0.15709 0.93860
vn 0.62913 -0.38666 0.67431
vn 0.76853 -0.49964 0.39965
vn 0.80071 -0.44592 0.40002
vn -0.87926 0.31639 0.35608
vn -0.90871 0.27730 0.31202
vn -0.68216 0.22238 0.69657
vn -0.73975 0.14165 0.65781
vn -0.94816 0.16870 0.26933
vn -0.44643 0.17987 0.87656
vn -0.51880 0.12893 0.84512
vn 0.45561 0.14450 0.87837
vn 0.43659 0.12949 0.89029
vn -0.57860 -0.07098 0.81252
vn -0.77628 -0.10083 0.62227
vn 0.45016 0.19670 0.87102
vn -0.50814 -0.36254 0.78125
vn -0.66387 -0.45927 0.59022
vn 0.56420 0.44873 0.69305
vn 0.37139 0.31351 0.87394
vn 0.28761 0.64939 0.70397
vn 0.19179 0.44874 0.87284
vn 0.39388 0.86222 0.31849
vn -0.07010 0.94866 0.30844
vn -0.05508 0.72239 0.68929
vn -0.96561 -0.10873 0.23617
vn -0.81701 -0.53531 0.21433
vn -0.43070 -0.88021 0.19931
vn -0.35810 -0.73946 0.57005
vn 0.02342 -0.82655 0.56237
vn 0.03362 -0.98042 0.19404
vn -0.28011 -0.57721 0.76705
vn 0.01629 -0.64791 0.76154
vn 0.33223 -0.56174 0.75768
vn 0.42156 -0.70992 0.56418
vn -0.37543 0.64822 0.66247
vn -0.25857 0.46254 0.84806
vn -0.04179 0.50776 0.86048
vn -0.57092 0.51565 0.63887
vn -0.38199 0.37066 0.84658
vn -0.49417 0.82311 0.27979
vn -0.73641 0.62950 0.24785
vn 0.51216 -0.83504 0.20099
vn 0.81561 -0.53969 0.20861
vn 0.67791 -0.46188 0.57193
vn 0.73024 -0.31182 0.60788
vn 0.89362 -0.38390 0.23253
vn 0.52632 -0.35690 0.77175
vn 0.53838 -0.21623 0.81449
vn 0.50033 -0.16959 0.84906
vn 0.71648 -0.26630 0.64478
vn -0.62547 0.43501 0.64773
vn -0.37287 0.26413 0.88950
vn -0.39665 0.30237 0.86674
vn -0.80907 0.53585 0.24138
vn -0.82239 0.50832 0.25552
vn -0.79349 0.48379 0.36921
vn 0.90236 -0.34267 0.26140
vn 0.90267 -0.32406 0.28317
vn 0.70179 -0.24664 0.66833
vn 0.68694 -0.24381 0.68459
vn 0.89838 -0.32165 0.29910
vn 0.47493 -0.15392 0.86646
vn 0.45598 -0.15357 0.87664
vn -0.35773 0.23991 0.90248
vn -0.60331 0.36472 0.70923
vn -0.35478 0.22254 0.90808
vn -0.82021 0.50018 0.27762
vn -0.81313 0.49732 0.30249
vn -0.78930 0.47022 0.39484
vn 0.89357 -0.32266 0.31212
vn -0.80321 0.48141 0.35084
vn -0.80837 0.48961 0.32683
vn -0.58786 0.34884 0.72988
vn -0.59517 0.35476 0.72105
vn -0.35866 0.22132 0.90685
vn -0.35621 0.21824 0.90856
vn -0.36619 0.21905 0.90439
vn 0.64626 -0.21767 0.73141
vn 0.66294 -0.22982 0.71253
vn 0.42166 -0.13675 0.89638
vn 0.39300 -0.12545 0.91094
vn 0.89239 -0.30391 0.33359
vn 0.89219 -0.31573 0.32297
vn 0.67428 -0.24006 0.69837
vn 0.44011 -0.14773 0.88571
f 1//1 6//2 7//3 8//4
f 1//1 9//5 10//6 6//2
f 1//1 8//4 11//7 9//5
f 2//8 12//9 13//10 14//11
f 2//8 14//11 15//12 16//13
f 3//14 17//15 18//16 19//17
f 3//14 19//17 20//18 21//19
f 3//14 21//19 22//20 17//15
f 23//21 22//20 21//19 24//22
f 4//23 25//24 26//25 27//26
f 4//23 27//26 28//27 29//28
f 4//23 29//28 30//29 25//24
f 5//30 31//31 32//32 33//33
f 5//30 34//34 35//35 36//36
f 5//30 36//36 37//37 31//31
f 37//37 38//38 39//39 40//40
f 37//37 40//40 41//41 31//31
f 37//37 36//36 42//42 38//42
f 42//43 36//44 43//45 44//46
f 42//43 44//46 45//47 46//48
f 42//42 46//48 47//49 38//42
f 47//49 46//48 48//50 49//51
f 47//52 49//53 50//54 51//55
f 47//52 51//55 39//39 38//38
f 51//55 50//54 52//56 53//57
f 51//55 53//57 54//58 39//39
f 54//58 55//59 40//40 39//39
f 54//58 53//57 56//60 57//61
f 54//58 57//61 58//62 55//59
f 58//62 295//63 59//64 55//59
f 59//64 295//63 296//65 60//66
f 59//64 60//66 61//67 41//41
f 59//64 41//41 40//40 55//59
f 61//67 60//66 62//68 63//69
f 61//67 63//69 64//70 32//32
f 61//67 32//32 31//31 41//41
f 64//70 63//69 65//71 66//72
f 64//70 66//72 67//73 68//74
f 64//70 68//74 33//33 32//32
f 68//74 67//73 69//75 70//76
f 68//74 70//76 71//77 33//33
f 71//77 72//78 5//30 33//33
f 71//77 70//76 73//79 74//80
f 71//77 74//80 75//81 72//78
f 75//81 76//82 77//83 72//78
f 75//81 74//80 78//84 79//85
f 75//81 79//85 80//86 76//82
f 80//86 81//87 82//88 76//82
f 83//89 84//90 85//91 86//92
f 83//89 86//92 82//88 81//87
f 86//92 85//91 87//93 88//94
f 86//92 88//94 89//95 82//88
f 89//95 88//94 90//96 91//97
f 89//95 91//97 34//34 77//83
f 89//95 77//83 76//82 82//88
f 91//98 90//99 92//100 93//101
f 91//98 93//101 35//35 34//34
f 93//101 92//100 94//102 95//103
f 93//101 95//103 96//104 35//105
f 96//104 95//103 297//106 97//107
f 96//104 97//107 98//108 43//45
f 96//104 43//45 36//44 35//105
f 98//108 99//109 44//46 43//45
f 99//110 100//111 45//47 44//46
f 103//112 102//113 105//114 13//10
f 103//112 13//10 12//9 104//115
f 105//114 106//116 107//117 108//118
f 105//114 108//118 14//11 13//10
f 105//114 102//113 298//119 106//116
f 108//118 107//117 109//120 110//121
f 108//118 110//121 15//12 14//11
f 110//121 109//122 111//123 112//124
f 110//121 112//124 113//125 15//12
f 113//125 112//124 114//126 115//127
f 113//125 115//127 116//128 117//129
f 113//125 117//129 16//13 15//12
f 117//129 116//128 118//130 119//131
f 117//129 119//131 120//132 16//13
f 119//131 118//130 121//133 122//134
f 119//131 122//134 123//135 120//132
f 123//135 122//134 124//136 125//137
f 123//138 125//139 126//140 127//141
f 123//138 127//141 128//142 120//132
f 127//141 126//140 129//143 130//144
f 127//141 130//144 131//145 128//142
f 131//145 132//146 133//147 128//142
f 131//145 130//144 299//148 300//149
f 131//145 300//149 134//150 132//146
f 134//150 135//151 136//152 132//146
f 137//153 138//154 139//155 140//156
f 137//153 140//156 136//152 135//151
f 140//156 139//155 141//157 142//158
f 140//156 142//158 143//159 136//152
f 142//158 141//160 144//160 145//161
f 142//158 145//161 2//8 143//159
f 145//162 144//163 146//164 147//165
f 145//162 147//165 12//9 2//8
f 147//165 146//164 148//166 149//167
f 147//165 149//167 104//115 12//9
f 302//168 301//169 150//170 151//171
f 302//168 151//171 139//155 138//154
f 151//171 150//170 152//172 153//173
f 151//171 153//173 141//157 139//155
f 153//174 152//175 154//175 155//174
f 153//174 155//174 144//160 141//160
f 155//176 154//177 156//178 157//179
f 155//176 157//179 146//164 144//163
f 157//179 156//178 158//180 159//181
f 157//179 159//181 148//182 146//164
f 161//183 160//184 162//185 163//186
f 161//183 163//186 150//170 301//169
f 163//186 162//185 164//187 165//188
f 163//186 165//188 152//172 150//170
f 165//189 164//190 166//191 167//189
f 165//189 167//189 154//175 152//175
f 167//192 166//191 168//193 169//194
f 167//192 169//194 156//178 154//177
f 169//194 168//193 303//195 304//196
f 169//194 304//196 158//180 156//178
f 171//197 170//198 172//199 173//200
f 171//197 173//200 162//185 160//184
f 173//200 172//199 20//18 174//201
f 173//200 174//201 164//187 162//185
f 174//201 20//18 19//17 175//202
f 174//201 175//202 166//191 164//190
f 175//202 19//17 18//16 176//203
f 175//202 176//203 168//193 166//191
f 176//203 18//16 305//204 306//205
f 176//203 306//205 303//195 168//193
f 305//204 18//16 17//15 307//206
f 307//206 17//15 22//20 308//207
f 308//207 22//20 23//21 177//208
f 177//208 23//21 24//22 178//209
f 178//209 24//22 172//199 170//198
f 172//199 24//22 21//19 20//18
f 179//210 309//211 129//143 181//212
f 179//210 181//212 182//213 180//214
f 182//213 181//212 183//215 184//216
f 182//213 184//216 185//217 186//218
f 182//213 186//218 187//219 180//214
f 187//219 186//218 188//220 189//221
f 190//222 310//223 191//224 192//225
f 190//222 192//225 193//226 101//227
f 193//226 45//47 100//111 101//227
f 193//226 192//225 194//228 48//50
f 193//226 48//50 46//48 45//47
f 194//228 192//225 191//224 111//123
f 194//228 111//123 109//122 195//229
f 194//228 195//229 49//51 48//50
f 195//230 109//120 107//117 196//231
f 195//230 196//231 50//54 49//53
f 196//231 107//117 106//116 197//232
f 196//231 197//232 52//56 50//54
f 197//232 106//116 298//119 311//233
f 197//232 311//233 312//234 52//56
f 312//234 56//60 53//57 52//56
f 314//235 313//236 199//237 26//25
f 314//235 26//25 25//24 198//238
f 199//237 200//239 69//75 201//240
f 199//237 201//240 27//26 26//25
f 199//237 313//236 315//241 200//239
f 201//240 69//75 67//73 202//242
f 201//240 202//242 28//27 27//26
f 202//242 67//73 66//72 203//243
f 202//242 203//243 10//6 28//27
f 203//243 66//72 65//71 204//244
f 203//243 204//244 6//2 10//6
f 204//244 65//71 205//245 206//246
f 204//244 206//246 7//3 6//2
f 206//246 205//245 316//247 207//248
f 206//246 207//248 208//249 7//3
f 208//249 209//250 8//4 7//3
f 209//250 317//251 11//7 8//4
f 317//251 210//252 30//29 11//7
f 210//253 198//238 25//24 30//29
f 316//247 205//245 62//68 318//254
f 205//245 65//71 63//69 62//68
f 200//239 73//79 70//76 69//75
f 200//239 315//241 211//255 73//79
f 211//255 78//84 74//80 73//79
f 318//254 62//68 60//66 296//65
f 191//224 310//223 319//256 114//126
f 191//224 114//126 112//124 111//123
f 319//256 320//257 115//127 114//126
f 320//257 212//258 116//128 115//127
f 212//258 213//259 118//130 116//128
f 213//259 321//260 121//133 118//130
f 321//260 322//261 214//262 121//133
f 214//262 322//261 215//263 216//264
f 214//262 216//264 217//265 124//136
f 214//262 124//136 122//134 121//133
f 217//265 216//264 218//266 219//267
f 217//265 219//267 220//268 221//269
f 217//265 221//269 125//137 124//136
f 221//270 220//271 184//216 183//215
f 221//270 183//215 126//140 125//139
f 220//268 219//267 222//272 223//273
f 220//271 223//274 185//217 184//216
f 223//273 222//272 224//275 225//276
f 223//274 225//277 226//278 185//217
f 226//278 225//277 227//279 228//280
f 226//278 228//280 229//281 188//220
f 226//278 188//220 186//218 185//217
f 229//281 228//280 230//282 231//283
f 229//281 231//283 232//284 233//285
f 229//281 233//285 189//221 188//220
f 234//286 323//287 235//288 218//266
f 234//286 218//266 216//264 215//263
f 235//288 323//287 324//289 236//290
f 235//288 236//290 224//275 222//272
f 235//288 222//272 219//267 218//266
f 236//290 324//289 237//291 238//292
f 236//290 238//292 239//293 224//275
f 239//293 238//292 240//294 241//295
f 239//293 241//295 242//296 227//297
f 239//293 227//297 225//276 224//275
f 242//296 241//295 243//298 244//299
f 242//300 244//301 245//302 230//282
f 242//300 230//282 228//280 227//279
f 245//302 244//301 246//303 247//304
f 245//302 247//304 248//305 249//306
f 245//302 249//306 231//283 230//282
f 249//306 248//305 325//307 326//308
f 249//306 326//308 232//284 231//283
f 250//309 327//310 251//311 240//294
f 250//309 240//294 238//292 237//291
f 251//311 327//310 328//312 252//313
f 251//311 252//313 253//314 243//298
f 251//311 243//298 241//295 240//294
f 253//314 252//313 254//315 255//316
f 253//314 255//316 256//317 246//318
f 253//314 246//318 244//299 243//298
f 256//317 255//316 257//319 258//320
f 256//321 258//322 259//322 260//323
f 256//321 260//323 247//304 246//303
f 260//323 259//324 261//325 262//326
f 260//323 262//326 248//305 247//304
f 262//326 261//325 329//327 330//328
f 262//326 330//328 325//307 248//305
f 332//329 331//330 263//331 254//315
f 332//329 254//315 252//313 328//312
f 263//331 331//330 264//332 265//333
f 263//331 265//333 266//334 257//319
f 263//331 257//319 255//316 254//315
f 266//334 265//333 267//335 268//336
f 266//334 268//336 269//337 270//338
f 266//334 270//338 258//320 257//319
f 270//339 269//340 271//341 272//339
f 270//339 272//339 259//322 258//322
f 272//342 271//341 273//343 274//344
f 272//342 274//344 261//325 259//324
f 274//344 273//343 275//345 276//346
f 274//344 276//346 329//327 261//325
f 277//347 278//348 279//349 267//335
f 277//347 267//335 265//333 264//332
f 281//350 280//351 282//352 283//353
f 281//350 283//353 85//91 84//90
f 283//353 282//352 284//354 285//355
f 283//353 285//355 87//93 85//91
f 285//355 284//354 286//356 287//357
f 285//355 287//357 288//358 87//93
f 288//359 287//360 289//361 290//362
f 288//359 290//362 92//100 90//99
f 288//358 90//96 88//94 87//93
f 290//362 289//361 291//363 292//364
f 290//362 292//364 94//102 92//100
f 292//364 291//363 333//365 334//366
f 292//364 334//366 293//367 94//102
f 293//367 297//106 95//103 94//102
f 291//363 279//349 278//348 333//365
f 291//363 289//361 294//368 279//349
f 294//368 268//336 267//335 279//349
f 294//368 289//361 287//360 286//369
f 294//368 286//369 269//337 268//336
f 286//356 284//354 271//341 269//340
f 284//354 282//352 273//343 271//341
f 282//352 280//351 275//345 273//343
f 183//215 181//212 129//143 126//140
f 309//211 299//148 130//144 129//143
f 136//152 143//159 133//147 132//146
f 77//83 34//34 5//30 72//78
f 30//29 29//28 9//5 11//7
f 29//28 28//27 10//6 9//5
f 133//147 143//159 2//8 16//13
f 133//147 16//13 120//132 128//142
f 342//370 341//371 340//372 335//373
f 340//372 344//374 343//375 335//373
f 343//375 345//376 342//370 335//373
f 348//377 347//378 346//379 336//380
f 350//381 349//382 348//377 336//380
f 353//383 352//384 351//385 337//386
f 355//387 354//388 353//383 337//386
f 351//385 356//389 355//387 337//386
f 358//390 355//387 356//389 357//391
f 361//392 360//393 359//394 338//395
f 363//396 362//397 361//392 338//395
f 359//394 364//398 363//396 338//395
f 367//399 366//400 365//401 339//402
f 370//403 369//404 368//405 339//402
f 365//401 371//406 370//403 339//402
f 374//407 373//408 372//409 371//406
f 365//401 375//410 374//407 371//406
f 372//411 376//411 370//403 371//406
f 378//412 377//413 370//414 376//415
f 380//416 379//417 378//412 376//415
f 372//411 381//418 380//416 376//411
f 383//419 382//420 380//416 381//418
f 385//421 384//422 383//423 381//424
f 372//409 373//408 385//421 381//424
f 387//425 386//426 384//422 385//421
f 373//408 388//427 387//425 385//421
f 373//408 374//407 389//428 388//427
f 57//61 56//60 387//425 388//427
f 389//428 58//62 57//61 388//427
f 389//428 390//429 295//63 58//62
f 391//430 296//65 295//63 390//429
f 375//410 392//431 391//430 390//429
f 389//428 374//407 375//410 390//429
f 394//432 393//433 391//430 392//431
f 366//400 395//434 394//432 392//431
f 375//410 365//401 366//400 392//431
f 397//435 396//436 394//432 395//434
f 399//437 398//438 397//435 395//434
f 366//400 367//399 399//437 395//434
f 401//439 400//440 398//438 399//437
f 367//399 402//441 401//439 399//437
f 367//399 339//402 403//442 402//441
f 405//443 404//444 401//439 402//441
f 403//442 406//445 405//443 402//441
f 403//442 408//446 407//447 406//445
f 79//85 78//84 405//443 406//445
f 407//447 80//86 79//85 406//445
f 407//447 409//448 81//87 80//86
f 411//449 410//450 84//90 83//89
f 81//87 409//448 411//449 83//89
f 413//451 412//452 410//450 411//449
f 409//448 414//453 413//451 411//449
f 416//454 415//455 413//451 414//453
f 408//446 368//405 416//454 414//453
f 409//448 407//447 408//446 414//453
f 418//456 417//457 415//458 416//459
f 368//405 369//404 418//456 416//459
f 420//460 419//461 417//457 418//456
f 369//462 421//463 420//460 418//456
f 97//107 297//106 420//460 421//463
f 377//413 98//108 97//107 421//463
f 369//462 370//414 377//413 421//463
f 377//413 378//412 99//109 98//108
f 378//412 379//417 100//111 99//110
f 347//378 422//464 102//113 103//112
f 104//115 346//379 347//378 103//112
f 425//465 424//466 423//467 422//464
f 347//378 348//377 425//465 422//464
f 423//467 298//119 102//113 422//464
f 427//468 426//469 424//466 425//465
f 348//377 349//382 427//468 425//465
f 429//470 428//471 426//472 427//468
f 349//382 430//473 429//470 427//468
f 432//474 431//475 429//470 430//473
f 434//476 433//477 432//474 430//473
f 349//382 350//381 434//476 430//473
f 436//478 435//479 433//477 434//476
f 350//381 437//480 436//478 434//476
f 439//481 438//482 435//479 436//478
f 437//480 440//483 439//481 436//478
f 442//484 441//485 439//481 440//483
f 444//486 443//487 442//488 440//489
f 437//480 445//490 444//486 440//489
f 447//491 446//492 443//487 444//486
f 445//490 448//493 447//491 444//486
f 445//490 450//494 449//495 448//493
f 300//149 299//148 447//491 448//493
f 449//495 134//150 300//149 448//493
f 449//495 451//496 135//151 134//150
f 453//497 452//498 138//154 137//153
f 135//151 451//496 453//497 137//153
f 455//499 454//500 452//498 453//497
f 451//496 456//501 455//499 453//497
f 458//502 457//503 454//503 455//499
f 456//501 336//380 458//502 455//499
f 460//504 459//505 457//506 458//507
f 336//380 346//379 460//504 458//507
f 149//167 148//166 459//505 460//504
f 346//379 104//115 149//167 460//504
f 462//508 461//509 301//169 302//168
f 138//154 452//498 462//508 302//168
f 464//510 463//511 461//509 462//508
f 452//498 454//500 464//510 462//508
f 466//512 465//513 463//513 464//512
f 454//503 457//503 466//512 464//512
f 468//514 467//515 465//516 466//517
f 457//506 459//505 468//514 466//517
f 159//181 158//180 467//515 468//514
f 459//505 148//182 159//181 468//514
f 470//518 469//519 160//184 161//183
f 301//169 461//509 470//518 161//183
f 472//520 471//521 469//519 470//518
f 461//509 463//511 472//520 470//518
f 474//522 473//523 471//524 472//522
f 463//513 465//513 474//522 472//522
f 476//525 475//526 473//523 474//527
f 465//516 467//515 476//525 474//527
f 304//196 303//195 475//526 476//525
f 467//515 158//180 304//196 476//525
f 478//528 477//529 170//198 171//197
f 160//184 469//519 478//528 171//197
f 479//530 354//388 477//529 478//528
f 469//519 471//521 479//530 478//528
f 480//531 353//383 354//388 479//532
f 471//524 473//523 480//531 479//532
f 481//533 352//384 353//383 480//531
f 473//523 475//526 481//533 480//531
f 306//205 305//204 352//384 481//533
f 475//526 303//195 306//205 481//533
f 307//206 351//385 352//384 305//204
f 308//207 356//389 351//385 307//206
f 177//208 357//391 356//389 308//207
f 178//209 358//390 357//391 177//208
f 170//198 477//529 358//390 178//209
f 354//388 355//387 358//390 477//529
f 482//534 446//492 309//211 179//210
f 180//214 483//535 482//534 179//210
f 485//536 484//537 482//534 483//535
f 487//538 486//539 485//536 483//535
f 180//214 187//219 487//538 483//535
f 189//221 488//540 487//538 187//219
f 490//541 489//542 310//223 190//222
f 101//227 491//543 490//541 190//222
f 101//227 100//111 379//417 491//543
f 382//420 492//544 490//541 491//543
f 379//417 380//416 382//420 491//543
f 428//471 489//542 490//541 492//544
f 493//545 426//472 428//471 492//544
f 382//420 383//419 493//545 492//544
f 494//546 424//466 426//469 493//547
f 383//423 384//422 494//546 493//547
f 495//548 423//467 424//466 494//546
f 384//422 386//426 495//548 494//546
f 311//233 298//119 423//467 495//548
f 386//426 312//234 311//233 495//548
f 386//426 387//425 56//60 312//234
f 360//393 496//549 313//236 314//235
f 198//238 359//394 360//393 314//235
f 498//550 400//440 497//551 496//549
f 360//393 361//392 498//550 496//549
f 497//551 315//241 313//236 496//549
f 499//552 398//438 400//440 498//550
f 361//392 362//397 499//552 498//550
f 500//553 397//435 398//438 499//552
f 362//397 344//374 500//553 499//552
f 501//554 396//436 397//435 500//553
f 344//374 340//372 501//554 500//553
f 503//555 502//556 396//436 501//554
f 340//372 341//371 503//555 501//554
f 207//248 316//247 502//556 503//555
f 341//371 208//249 207//248 503//555
f 341//371 342//370 209//250 208//249
f 342//370 345//376 317//251 209//250
f 345//376 364//398 210//252 317//251
f 364//398 359//394 198//238 210//253
f 318//254 393//433 502//556 316//247
f 393//433 394//432 396//436 502//556
f 400//440 401//439 404//444 497//551
f 404//444 211//255 315//241 497//551
f 404//444 405//443 78//84 211//255
f 296//65 391//430 393//433 318//254
f 431//475 319//256 310//223 489//542
f 428//471 429//470 431//475 489//542
f 431//475 432//474 320//257 319//256
f 432//474 433//477 212//258 320//257
f 433//477 435//479 213//259 212//258
f 435//479 438//482 321//260 213//259
f 438//482 504//557 322//261 321//260
f 505//558 215//263 322//261 504//557
f 441//485 506//559 505//558 504//557
f 438//482 439//481 441//485 504//557
f 508//560 507//561 505//558 506//559
f 510//562 509//563 508//560 506//559
f 441//485 442//484 510//562 506//559
f 484//537 485//536 509//564 510//565
f 442//488 443//487 484//537 510//565
f 512//566 511//567 508//560 509//563
f 485//536 486//539 512//568 509//564
f 514//569 513//570 511//567 512//566
f 486//539 515//571 514//572 512//568
f 517//573 516//574 514//572 515//571
f 488//540 518//575 517//573 515//571
f 486//539 487//538 488//540 515//571
f 520//576 519//577 517//573 518//575
f 233//285 232//284 520//576 518//575
f 488//540 189//221 233//285 518//575
f 507//561 521//578 323//287 234//286
f 215//263 505//558 507//561 234//286
f 522//579 324//289 323//287 521//578
f 511//567 513//570 522//579 521//578
f 507//561 508//560 511//567 521//578
f 523//580 237//291 324//289 522//579
f 513//570 524//581 523//580 522//579
f 526//582 525//583 523//580 524//581
f 516//584 527//585 526//582 524//581
f 513//570 514//569 516//584 524//581
f 529//586 528//587 526//582 527//585
f 519//577 530//588 529//589 527//590
f 516//574 517//573 519//577 527//590
f 532//591 531//592 529//589 530//588
f 534//593 533//594 532//591 530//588
f 519//577 520//576 534//593 530//588
f 326//308 325//307 533//594 534//593
f 520//576 232//284 326//308 534//593
f 525//583 535//595 327//310 250//309
f 237//291 523//580 525//583 250//309
f 536//596 328//312 327//310 535//595
f 528//587 537//597 536//596 535//595
f 525//583 526//582 528//587 535//595
f 539//598 538//599 536//596 537//597
f 531//600 540//601 539//598 537//597
f 528//587 529//586 531//600 537//597
f 542//602 541//603 539//598 540//601
f 544//604 543//605 542//605 540//606
f 531//592 532//591 544//604 540//606
f 546//607 545//608 543//609 544//604
f 532//591 533//594 546//607 544//604
f 330//328 329//327 545//608 546//607
f 533//594 325//307 330//328 546//607
f 538//599 547//610 331//330 332//329
f 328//312 536//596 538//599 332//329
f 548//611 264//332 331//330 547//610
f 541//603 549//612 548//611 547//610
f 538//599 539//598 541//603 547//610
f 551//613 550//614 548//611 549//612
f 553//615 552//616 551//613 549//612
f 541//603 542//602 553//615 549//612
f 555//617 554//618 552//619 553//617
f 542//605 543//605 555//617 553//617
f 557//620 556//621 554//618 555//622
f 543//609 545//608 557//620 555//622
f 276//346 275//345 556//621 557//620
f 545//608 329//327 276//346 557//620
f 550//614 558//623 278//348 277//347
f 264//332 548//611 550//614 277//347
f 560//624 559//625 280//351 281//350
f 84//90 410//450 560//624 281//350
f 562//626 561//627 559//625 560//624
f 410//450 412//452 562//626 560//624
f 564//628 563//629 561//627 562//626
f 412//452 565//630 564//628 562//626
f 567//631 566//632 564//633 565//634
f 415//458 417//457 567//631 565//634
f 412//452 413//451 415//455 565//630
f 569//635 568//636 566//632 567//631
f 417//457 419//461 569//635 567//631
f 334//366 333//365 568//636 569//635
f 419//461 293//367 334//366 569//635
f 419//461 420//460 297//106 293//367
f 333//365 278//348 558//623 568//636
f 558//623 570//637 566//632 568//636
f 558//623 550//614 551//613 570//637
f 563//638 564//633 566//632 570//637
f 551//613 552//616 563//638 570//637
f 552//619 554//618 561//627 563//629
f 554//618 556//621 559//625 561//627
f 556//621 275//345 280//351 559//625
f 443//487 446//492 482//534 484//537
f 446//492 447//491 299//148 309//211
f 449//495 450//494 456//501 451//496
f 403//442 339//402 368//405 408//446
f 345//376 343//375 363//396 364//398
f 343//375 344//374 362//397 363//396
f 350//381 336//380 456//501 450//494
f 445//490 437//480 350//381 450//494
