# pilowlava3D glyph 'a' variant 3 — Vincent Wagner / Velvetyne, Free Art License
v 3.07808 1.17325 -0.60642
v 1.08564 2.18291 -0.61963
v 1.10107 1.44074 -0.22205
v 0.26140 0.97620 -0.41533
v 1.38223 1.35669 -0.21686
v 2.94377 1.49974 -0.27079
v 3.91366 0.40355 -0.50393
v 0.52362 2.46061 -0.46653
v 3.02151 1.12710 -0.56781
v 2.85586 1.26710 -0.41040
v 2.93068 1.33143 -0.43665
v 3.21274 1.28433 -0.64086
v 3.27924 1.01246 -0.75524
v 3.11933 0.91491 -0.67332
v 0.82259 2.41770 -0.64540
v 1.04629 2.61183 -0.67073
v 1.30285 2.44845 -0.63888
v 1.14762 1.95507 -0.47428
v 0.91708 1.88544 -0.41635
v 0.74974 2.04421 -0.51119
v 0.58312 2.26703 -0.52940
v 1.11932 1.57901 -0.22045
v 1.20521 1.57796 -0.24598
v 1.20156 1.36266 -0.29990
v 1.04077 1.29944 -0.35475
v 0.99579 1.39689 -0.17006
v 1.06547 1.58600 -0.13571
v 0.41308 1.04761 -0.45636
v 0.44769 0.81592 -0.60870
v 0.22431 0.77028 -0.47753
v 0.05991 0.74815 -0.27397
v 0.16961 1.03980 -0.25897
v 0.36834 1.19108 -0.24318
v 1.33796 1.58417 -0.00000
v 1.29239 1.58629 -0.17812
v 1.47982 1.16556 -0.42647
v 1.30126 1.14262 -0.49174
v 2.88658 1.53564 -0.00000
v 2.67125 1.43003 -0.00000
v 3.06129 1.74505 -0.25108
v 3.25881 1.73420 -0.49121
v 3.22058 1.50679 -0.54387
v 2.65711 1.36360 -0.28509
v 2.66620 1.40695 -0.17895
v 3.92155 0.56564 -0.55856
v 4.09251 0.55921 -0.30744
v 4.01826 0.33280 -0.30850
v 3.84356 0.14145 -0.30698
v 3.76448 0.29421 -0.55715
v 3.70352 0.50375 -0.70426
v 3.13462 0.22964 -0.49106
v 3.04542 0.39564 -0.52169
v 3.24856 0.41991 -0.67659
v 3.30821 0.20485 -0.54297
v 0.40837 0.29539 -0.49853
v 0.27772 0.48860 -0.50832
v 0.51603 0.56701 -0.64447
v 0.60824 0.30193 -0.54437
v 0.65910 2.61286 -0.51456
v 0.39581 2.48799 -0.28988
v 0.53987 2.74351 -0.28090
v 0.40116 2.19545 -0.30280
v 0.55925 1.94639 -0.28605
v 0.34183 2.18419 -0.00000
v 0.33345 2.50078 -0.00000
v 0.48505 2.78325 -0.00000
v 0.74320 2.92269 -0.28551
v 0.88454 3.13618 -0.00000
v 2.08012 3.15074 -0.00000
v 2.19235 3.37289 -0.00000
v 2.30510 3.59215 -0.00000
v 2.02491 3.18582 -0.22668
v 2.14430 3.40245 -0.21235
v 2.26794 3.61840 -0.20189
v 2.04601 3.47635 -0.37903
v 2.18412 3.68222 -0.36492
v 2.32678 3.88725 -0.34518
v 2.38861 3.82643 -0.18985
v 2.52312 4.02002 -0.16893
v 1.48146 3.61885 -0.00000
v 1.27828 3.45200 -0.00000
v 1.07869 3.29143 -0.00000
v 1.32679 3.40685 -0.23058
v 1.13131 3.24034 -0.25662
v 0.93883 3.07725 -0.27679
v 1.25439 3.15186 -0.47398
v 1.06507 2.96633 -0.51962
v 0.86166 2.78772 -0.53118
v 1.25288 2.82884 -0.65515
v 1.43958 3.02995 -0.58171
v 1.62975 2.88100 -0.51510
v 1.47567 2.67926 -0.59023
v 1.77971 2.76102 -0.29273
v 1.66573 2.56462 -0.33743
v 1.56120 2.36724 -0.37353
v 1.47506 2.16139 -0.37458
v 1.76216 2.51236 -0.00000
v 1.67710 2.33217 -0.00000
v 1.59785 2.16141 -0.00000
v 1.52322 1.99521 -0.00000
v 1.42480 1.98364 -0.31514
v 1.43024 1.79799 -0.00000
v 1.35964 1.79187 -0.23145
v 1.19841 1.77300 -0.33537
v 1.06757 1.74203 -0.30271
v 0.98404 1.71794 -0.16507
v 0.77379 1.80591 -0.22627
v 1.04762 1.59075 -0.00000
v 0.96811 1.41665 -0.00000
v 0.77376 1.30489 -0.21311
v 0.57756 1.25718 -0.24066
v 0.82912 1.19220 -0.44506
v 0.61819 1.11468 -0.47583
v 0.90512 0.98975 -0.63886
v 0.67205 0.89501 -0.64735
v 0.98599 0.71317 -0.69654
v 0.74707 0.63129 -0.69045
v 1.06924 0.43511 -0.56504
v 0.84074 0.35002 -0.56815
v 1.13849 0.23125 -0.31018
v 0.90402 0.12982 -0.31744
v 0.63089 0.08619 -0.31444
v 0.33753 0.16203 -0.30688
v 0.30102 0.10117 -0.00000
v 0.06742 0.38384 -0.00000
v 0.12157 0.41508 -0.28307
v 1.38458 0.27575 -0.00000
v 1.56927 0.42523 -0.00000
v 1.34322 0.35646 -0.29113
v 1.52906 0.49376 -0.26220
v 1.28054 0.53998 -0.53214
v 1.46865 0.65345 -0.47746
v 1.65396 0.76898 -0.42766
v 1.71339 0.63668 -0.23644
v 1.75221 0.57864 -0.00000
v 1.90152 0.77652 -0.22023
v 1.93356 0.72589 -0.00000
v 0.34083 1.23821 -0.00000
v 0.11326 1.06006 -0.00000
v 0.00000 0.74490 -0.00000
v 2.48286 1.16006 -0.00000
v 2.65215 1.21839 -0.00000
v 2.76424 1.14047 -0.00000
v 2.47809 1.17485 -0.16441
v 2.65671 1.22715 -0.16546
v 2.78429 1.14794 -0.18059
v 2.65746 1.25959 -0.27048
v 2.82291 1.19066 -0.33080
v 2.92188 1.02962 -0.42902
v 2.84284 0.98626 -0.21223
v 2.80772 0.97461 -0.00000
v 2.86604 0.79329 -0.24757
v 2.41562 1.40850 -0.00000
v 1.91804 1.38780 -0.00000
v 2.17396 1.37085 -0.18156
v 1.93066 1.34391 -0.20549
v 1.67973 1.33448 -0.21555
v 1.96622 1.24877 -0.35862
v 1.72418 1.20630 -0.39526
v 2.01180 1.12636 -0.41728
v 1.79081 1.04494 -0.46463
v 1.57850 0.96323 -0.51040
v 1.39549 0.88796 -0.56798
v 1.85333 0.88583 -0.39135
v 2.06154 1.00216 -0.35914
v 2.09599 0.91421 -0.20514
v 2.26724 1.11489 -0.32121
v 2.28784 1.05076 -0.18288
v 2.46698 1.21456 -0.27633
v 2.23220 1.21101 -0.37039
v 2.45193 1.27888 -0.32218
v 2.65309 1.31044 -0.31732
v 2.43365 1.34788 -0.27365
v 2.19942 1.30536 -0.31726
v 2.42084 1.39165 -0.15996
v 1.20809 0.80894 -0.64340
v 1.12815 1.08819 -0.56899
v 3.05470 0.11206 -0.00000
v 2.86309 0.58937 -0.26812
v 2.91360 0.34721 -0.27651
v 3.07925 0.14430 -0.28600
v 3.31442 0.05409 -0.29327
v 3.30856 0.00847 -0.00000
v 3.58195 0.05117 -0.29679
v 3.59096 0.00000 -0.00000
v 3.05693 2.23470 -0.00000
v 3.02524 1.98723 -0.00000
v 3.12083 2.22959 -0.23730
v 3.09476 1.97992 -0.24986
v 3.26650 2.22824 -0.43360
v 3.26584 1.97618 -0.45933
v 3.48730 2.23102 -0.50596
v 3.50884 1.98950 -0.53757
v 3.54337 1.74678 -0.58913
v 3.73743 1.99225 -0.42659
v 3.78699 1.74586 -0.47409
v 3.82173 1.49020 -0.52175
v 3.55357 1.50242 -0.64976
v 3.83455 1.24088 -0.55556
v 3.55839 1.26006 -0.70625
v 3.87405 1.01240 -0.58829
v 3.60337 1.00712 -0.76256
v 3.91045 0.78314 -0.58925
v 3.65486 0.73882 -0.76110
v 3.39347 0.69576 -0.78909
v 3.46686 0.44321 -0.73133
v 3.18347 0.65725 -0.70161
v 2.99775 0.62299 -0.51787
v 2.97271 0.84149 -0.48997
v 3.54097 0.21173 -0.55787
v 4.05551 1.02004 -0.30922
v 4.09333 0.79900 -0.31179
v 3.96561 1.99018 -0.00000
v 3.91882 2.24718 -0.00000
v 3.11929 2.73255 -0.00000
v 3.08767 2.48566 -0.00000
v 3.17546 2.72753 -0.21917
v 3.14777 2.48088 -0.22696
v 3.30027 2.72656 -0.40131
v 3.28222 2.47704 -0.41382
v 3.47392 2.72757 -0.46956
v 3.48048 2.47654 -0.48602
v 3.64880 2.73153 -0.39396
v 3.67714 2.47944 -0.39903
v 3.70329 2.23396 -0.40646
v 3.81167 2.49043 -0.21546
v 3.84827 2.24027 -0.21818
v 3.89112 1.98806 -0.23110
v 3.94314 1.73467 -0.25721
v 3.98206 1.48227 -0.27990
v 4.01222 1.24181 -0.29587
v 3.87381 2.50088 -0.00000
v 3.83018 2.75003 -0.00000
v 3.77310 2.74065 -0.21452
v 3.73182 2.98995 -0.21219
v 3.78519 2.99708 -0.00000
v 3.61626 2.98322 -0.38572
v 3.58648 3.23451 -0.37728
v 3.69484 3.24094 -0.21077
v 3.46329 2.97869 -0.44924
v 3.45508 3.22944 -0.42933
v 3.44791 3.48337 -0.40838
v 3.56001 3.48874 -0.36503
v 3.31500 2.97577 -0.38718
v 3.32921 3.22718 -0.37447
v 3.33930 3.47731 -0.35732
v 3.33993 3.72452 -0.33420
v 3.43636 3.73557 -0.38676
v 3.22454 3.22447 -0.20907
v 3.24599 3.46982 -0.20243
v 3.26312 3.71133 -0.19025
v 3.25856 3.93631 -0.16807
v 3.31912 3.96286 -0.30415
v 3.23812 3.92456 -0.00000
v 3.19435 4.12040 -0.00000
v 3.20198 4.13144 -0.14215
v 3.05988 4.26161 -0.00000
v 2.86283 4.28741 -0.12344
v 3.06264 4.26801 -0.12587
v 2.86223 4.32764 -0.24330
v 3.07535 4.30255 -0.24259
v 3.23626 4.16749 -0.26947
v 3.09947 4.36547 -0.31051
v 3.29471 4.21765 -0.33776
v 3.40094 3.98864 -0.36208
v 3.36832 4.27051 -0.30570
v 3.49454 4.01465 -0.32596
v 3.53746 3.74602 -0.34550
v 3.56279 4.03283 -0.19781
v 3.61441 3.75267 -0.20480
v 3.65635 3.49244 -0.20861
v 3.65027 3.75467 -0.00000
v 3.69835 3.49560 -0.00000
v 3.74168 3.24499 -0.00000
v 3.20066 2.97562 -0.21384
v 2.67970 4.16908 -0.00000
v 2.67830 4.18411 -0.14104
v 2.48527 4.07473 -0.30800
v 2.66052 4.23181 -0.27154
v 2.42753 4.14293 -0.36431
v 2.62288 4.30241 -0.32923
v 2.85507 4.39454 -0.30535
v 2.57695 4.37479 -0.28392
v 2.84397 4.46892 -0.26156
v 3.13264 4.43964 -0.27974
v 2.84010 4.50768 -0.14829
v 3.15818 4.48872 -0.15759
v 3.42315 4.30913 -0.18132
v 3.59065 4.03917 -0.00000
v 2.54018 4.42709 -0.00000
v 1.68329 3.78423 -0.00000
v 1.91106 3.91760 -0.20039
v 1.71729 3.74809 -0.20428
v 1.52156 3.57876 -0.21265
v 1.80282 3.67429 -0.37180
v 1.61632 3.50294 -0.39212
v 1.43825 3.32802 -0.42131
v 1.76289 3.39050 -0.47289
v 1.60608 3.21000 -0.51510
v 1.91419 3.27038 -0.40793
v 1.77868 3.07128 -0.44882
v 1.90169 2.96976 -0.25337
v 1.92274 3.57590 -0.43870
v 1.98623 3.84883 -0.36385
v 2.08506 3.76185 -0.41571
v 2.17231 4.02945 -0.35014
v 2.25256 3.95658 -0.39363
v 2.36229 4.21066 -0.31873
v 2.10855 4.08448 -0.19286
v 2.31481 4.25474 -0.18019
v 2.54885 4.41437 -0.16121
v 1.39874 1.40006 -0.00000
v 2.99655 1.75066 -0.00000
v 0.50025 1.92634 -0.00000
v 0.68931 2.98109 -0.00000
v 1.96684 2.92506 -0.00000
v 2.41645 3.80347 -0.00000
v 2.53794 3.99821 -0.00000
v 0.95924 1.71404 -0.00000
v 0.73129 1.78748 -0.00000
v 0.75550 1.35192 -0.00000
v 0.55987 1.31402 -0.00000
v 0.92381 0.03467 -0.00000
v 0.62057 0.00107 -0.00000
v 1.17305 0.13880 -0.00000
v 2.81545 0.78147 -0.00000
v 2.16280 1.39797 -0.00000
v 1.66836 1.38343 -0.00000
v 2.29665 1.02151 -0.00000
v 2.11439 0.87241 -0.00000
v 2.87366 0.32719 -0.00000
v 2.81317 0.57621 -0.00000
v 4.14411 1.02675 -0.00000
v 4.17132 0.79474 -0.00000
v 4.15740 0.53925 -0.00000
v 4.06696 0.29039 -0.00000
v 3.87476 0.09065 -0.00000
v 4.01484 1.73425 -0.00000
v 4.05951 1.48531 -0.00000
v 4.10176 1.25212 -0.00000
v 3.20226 3.46954 -0.00000
v 3.22767 3.70555 -0.00000
v 2.86084 4.27914 -0.00000
v 3.17563 3.22567 -0.00000
v 3.14827 2.98059 -0.00000
v 3.16553 4.49980 -0.00000
v 3.44157 4.31814 -0.00000
v 2.83884 4.51879 -0.00000
v 1.88164 3.94770 -0.00000
v 1.85892 2.71074 -0.00000
v 2.29633 4.27113 -0.00000
v 2.08548 4.10725 -0.00000
v 3.07808 1.17325 0.60642
v 1.08564 2.18291 0.61963
v 1.10107 1.44074 0.22205
v 0.26140 0.97620 0.41533
v 1.38223 1.35669 0.21686
v 2.94377 1.49974 0.27079
v 3.91366 0.40355 0.50393
v 0.52362 2.46061 0.46653
v 3.02151 1.12710 0.56781
v 2.85586 1.26710 0.41040
v 2.93068 1.33143 0.43665
v 3.21274 1.28433 0.64086
v 3.27924 1.01246 0.75524
v 3.11933 0.91491 0.67332
v 0.82259 2.41770 0.64540
v 1.04629 2.61183 0.67073
v 1.30285 2.44845 0.63888
v 1.14762 1.95507 0.47428
v 0.91708 1.88544 0.41635
v 0.74974 2.04421 0.51119
v 0.58312 2.26703 0.52940
v 1.11932 1.57901 0.22045
v 1.20521 1.57796 0.24598
v 1.20156 1.36266 0.29990
v 1.04077 1.29944 0.35475
v 0.99579 1.39689 0.17006
v 1.06547 1.58600 0.13571
v 0.41308 1.04761 0.45636
v 0.44769 0.81592 0.60870
v 0.22431 0.77028 0.47753
v 0.05991 0.74815 0.27397
v 0.16961 1.03980 0.25897
v 0.36834 1.19108 0.24318
v 1.29239 1.58629 0.17812
v 1.47982 1.16556 0.42647
v 1.30126 1.14262 0.49174
v 3.06129 1.74505 0.25108
v 3.25881 1.73420 0.49121
v 3.22058 1.50679 0.54387
v 2.65711 1.36360 0.28509
v 2.66620 1.40695 0.17895
v 3.92155 0.56564 0.55856
v 4.09251 0.55921 0.30744
v 4.01826 0.33280 0.30850
v 3.84356 0.14145 0.30698
v 3.76448 0.29421 0.55715
v 3.70352 0.50375 0.70426
v 3.13462 0.22964 0.49106
v 3.04542 0.39564 0.52169
v 3.24856 0.41991 0.67659
v 3.30821 0.20485 0.54297
v 0.40837 0.29539 0.49853
v 0.27772 0.48860 0.50832
v 0.51603 0.56701 0.64447
v 0.60824 0.30193 0.54437
v 0.65910 2.61286 0.51456
v 0.39581 2.48799 0.28988
v 0.53987 2.74351 0.28090
v 0.40116 2.19545 0.30280
v 0.55925 1.94639 0.28605
v 0.74320 2.92269 0.28551
v 2.02491 3.18582 0.22668
v 2.14430 3.40245 0.21235
v 2.26794 3.61840 0.20189
v 2.04601 3.47635 0.37903
v 2.18412 3.68222 0.36492
v 2.32678 3.88725 0.34518
v 2.38861 3.82643 0.18985
v 2.52312 4.02002 0.16893
v 1.32679 3.40685 0.23058
v 1.13131 3.24034 0.25662
v 0.93883 3.07725 0.27679
v 1.25439 3.15186 0.47398
v 1.06507 2.96633 0.51962
v 0.86166 2.78772 0.53118
v 1.25288 2.82884 0.65515
v 1.43958 3.02995 0.58171
v 1.62975 2.88100 0.51510
v 1.47567 2.67926 0.59023
v 1.77971 2.76102 0.29273
v 1.66573 2.56462 0.33743
v 1.56120 2.36724 0.37353
v 1.47506 2.16139 0.37458
v 1.42480 1.98364 0.31514
v 1.35964 1.79187 0.23145
v 1.19841 1.77300 0.33537
v 1.06757 1.74203 0.30271
v 0.98404 1.71794 0.16507
v 0.77379 1.80591 0.22627
v 0.77376 1.30489 0.21311
v 0.57756 1.25718 0.24066
v 0.82912 1.19220 0.44506
v 0.61819 1.11468 0.47583
v 0.90512 0.98975 0.63886
v 0.67205 0.89501 0.64735
v 0.98599 0.71317 0.69654
v 0.74707 0.63129 0.69045
v 1.06924 0.43511 0.56504
v 0.84074 0.35002 0.56815
v 1.13849 0.23125 0.31018
v 0.90402 0.12982 0.31744
v 0.63089 0.08619 0.31444
v 0.33753 0.16203 0.30688
v 0.12157 0.41508 0.28307
v 1.34322 0.35646 0.29113
v 1.52906 0.49376 0.26220
v 1.28054 0.53998 0.53214
v 1.46865 0.65345 0.47746
v 1.65396 0.76898 0.42766
v 1.71339 0.63668 0.23644
v 1.90152 0.77652 0.22023
v 2.47809 1.17485 0.16441
v 2.65671 1.22715 0.16546
v 2.78429 1.14794 0.18059
v 2.65746 1.25959 0.27048
v 2.82291 1.19066 0.33080
v 2.92188 1.02962 0.42902
v 2.84284 0.98626 0.21223
v 2.86604 0.79329 0.24757
v 2.17396 1.37085 0.18156
v 1.93066 1.34391 0.20549
v 1.67973 1.33448 0.21555
v 1.96622 1.24877 0.35862
v 1.72418 1.20630 0.39526
v 2.01180 1.12636 0.41728
v 1.79081 1.04494 0.46463
v 1.57850 0.96323 0.51040
v 1.39549 0.88796 0.56798
v 1.85333 0.88583 0.39135
v 2.06154 1.00216 0.35914
v 2.09599 0.91421 0.20514
v 2.26724 1.11489 0.32121
v 2.28784 1.05076 0.18288
v 2.46698 1.21456 0.27633
v 2.23220 1.21101 0.37039
v 2.45193 1.27888 0.32218
v 2.65309 1.31044 0.31732
v 2.43365 1.34788 0.27365
v 2.19942 1.30536 0.31726
v 2.42084 1.39165 0.15996
v 1.20809 0.80894 0.64340
v 1.12815 1.08819 0.56899
v 2.86309 0.58937 0.26812
v 2.91360 0.34721 0.27651
v 3.07925 0.14430 0.28600
v 3.31442 0.05409 0.29327
v 3.58195 0.05117 0.29679
v 3.12083 2.22959 0.23730
v 3.09476 1.97992 0.24986
v 3.26650 2.22824 0.43360
v 3.26584 1.97618 0.45933
v 3.48730 2.23102 0.50596
v 3.50884 1.98950 0.53757
v 3.54337 1.74678 0.58913
v 3.73743 1.99225 0.42659
v 3.78699 1.74586 0.47409
v 3.82173 1.49020 0.52175
v 3.55357 1.50242 0.64976
v 3.83455 1.24088 0.55556
v 3.55839 1.26006 0.70625
v 3.87405 1.01240 0.58829
v 3.60337 1.00712 0.76256
v 3.91045 0.78314 0.58925
v 3.65486 0.73882 0.76110
v 3.39347 0.69576 0.78909
v 3.46686 0.44321 0.73133
v 3.18347 0.65725 0.70161
v 2.99775 0.62299 0.51787
v 2.97271 0.84149 0.48997
v 3.54097 0.21173 0.55787
v 4.05551 1.02004 0.30922
v 4.09333 0.79900 0.31179
v 3.17546 2.72753 0.21917
v 3.14777 2.48088 0.22696
v 3.30027 2.72656 0.40131
v 3.28222 2.47704 0.41382
v 3.47392 2.72757 0.46956
v 3.48048 2.47654 0.48602
v 3.64880 2.73153 0.39396
v 3.67714 2.47944 0.39903
v 3.70329 2.23396 0.40646
v 3.81167 2.49043 0.21546
v 3.84827 2.24027 0.21818
v 3.89112 1.98806 0.23110
v 3.94314 1.73467 0.25721
v 3.98206 1.48227 0.27990
v 4.01222 1.24181 0.29587
v 3.77310 2.74065 0.21452
v 3.73182 2.98995 0.21219
v 3.61626 2.98322 0.38572
v 3.58648 3.23451 0.37728
v 3.69484 3.24094 0.21077
v 3.46329 2.97869 0.44924
v 3.45508 3.22944 0.42933
v 3.44791 3.48337 0.40838
v 3.56001 3.48874 0.36503
v 3.31500 2.97577 0.38718
v 3.32921 3.22718 0.37447
v 3.33930 3.47731 0.35732
v 3.33993 3.72452 0.33420
v 3.43636 3.73557 0.38676
v 3.22454 3.22447 0.20907
v 3.24599 3.46982 0.20243
v 3.26312 3.71133 0.19025
v 3.25856 3.93631 0.16807
v 3.31912 3.96286 0.30415
v 3.20198 4.13144 0.14215
v 2.86283 4.28741 0.12344
v 3.06264 4.26801 0.12587
v 2.86223 4.32764 0.24330
v 3.07535 4.30255 0.24259
v 3.23626 4.16749 0.26947
v 3.09947 4.36547 0.31051
v 3.29471 4.21765 0.33776
v 3.40094 3.98864 0.36208
v 3.36832 4.27051 0.30570
v 3.49454 4.01465 0.32596
v 3.53746 3.74602 0.34550
v 3.56279 4.03283 0.19781
v 3.61441 3.75267 0.20480
v 3.65635 3.49244 0.20861
v 3.20066 2.97562 0.21384
v 2.67830 4.18411 0.14104
v 2.48527 4.07473 0.30800
v 2.66052 4.23181 0.27154
v 2.42753 4.14293 0.36431
v 2.62288 4.30241 0.32923
v 2.85507 4.39454 0.30535
v 2.57695 4.37479 0.28392
v 2.84397 4.46892 0.26156
v 3.13264 4.43964 0.27974
v 2.84010 4.50768 0.14829
v 3.15818 4.48872 0.15759
v 3.42315 4.30913 0.18132
v 1.91106 3.91760 0.20039
v 1.71729 3.74809 0.20428
v 1.52156 3.57876 0.21265
v 1.80282 3.67429 0.37180
v 1.61632 3.50294 0.39212
v 1.43825 3.32802 0.42131
v 1.76289 3.39050 0.47289
v 1.60608 3.21000 0.51510
v 1.91419 3.27038 0.40793
v 1.77868 3.07128 0.44882
v 1.90169 2.96976 0.25337
v 1.92274 3.57590 0.43870
v 1.98623 3.84883 0.36385
v 2.08506 3.76185 0.41571
v 2.17231 4.02945 0.35014
v 2.25256 3.95658 0.39363
v 2.36229 4.21066 0.31873
v 2.10855 4.08448 0.19286
v 2.31481 4.25474 0.18019
v 2.54885 4.41437 0.16121
vn -0.46322 0.32799 -0.82332
vn -0.69540 0.03512 -0.71776
vn -0.60095 -0.04790 -0.79785
vn -0.40688 0.51663 -0.75335
vn -0.25773 0.21872 -0.94114
vn -0.63882 0.00223 -0.76935
vn -0.26693 0.43078 -0.86208
vn 0.16959 -0.36270 -0.91634
vn -0.27393 0.01100 -0.96169
vn -0.12157 0.14580 -0.98182
vn 0.37885 -0.20807 -0.90176
vn 0.23602 -0.52541 -0.81746
vn -0.19068 -0.70187 -0.68631
vn -0.31400 -0.53074 -0.78722
vn -0.55893 -0.16718 -0.81219
vn -0.51296 0.33449 -0.79057
vn -0.56669 -0.16097 -0.80805
vn -0.32770 -0.15679 -0.93168
vn -0.00521 0.53533 -0.84463
vn -0.55960 0.66096 -0.49999
vn -0.83764 0.32536 -0.43875
vn -0.15911 0.71606 -0.67967
vn -0.57991 0.46967 -0.66567
vn -0.38196 0.60599 -0.69777
vn -0.37519 0.25331 -0.89167
vn -0.65044 0.14956 -0.74469
vn -0.90083 0.09834 -0.42290
vn -0.72296 0.55797 -0.40742
vn -0.42289 0.81502 -0.39611
vn 0.91967 0.34390 -0.18958
vn 0.93563 0.35295 -0.00521
vn 0.22169 0.74551 -0.62855
vn 0.12423 0.59676 -0.79275
vn 0.18433 0.55517 -0.81105
vn 0.56120 -0.05078 -0.82612
vn 0.72222 -0.17143 -0.67008
vn -0.60130 0.63865 -0.48018
vn -0.85124 0.25702 -0.45753
vn -0.54360 0.20991 -0.81267
vn -0.45782 0.34857 -0.81786
vn -0.68528 0.72827 0.00240
vn -0.95512 0.29621 0.00013
vn -0.21082 0.69823 -0.68413
vn -0.21418 0.93123 -0.29484
vn -0.24283 0.97007 0.00224
vn 0.67391 -0.38576 -0.63010
vn 0.70651 -0.17054 -0.68685
vn 0.90771 -0.15657 -0.38930
vn 0.79706 -0.46763 -0.38212
vn 0.50016 -0.77713 -0.38198
vn 0.42864 -0.57547 -0.69650
vn 0.38284 -0.29202 -0.87645
vn -0.49268 -0.62928 -0.60106
vn -0.67596 -0.34433 -0.65155
vn -0.35656 -0.37463 -0.85587
vn -0.20514 -0.70738 -0.67641
vn -0.38057 -0.54738 -0.74535
vn -0.57926 -0.23805 -0.77961
vn -0.26690 -0.16051 -0.95027
vn -0.09941 -0.57084 -0.81502
vn -0.68359 0.18823 -0.70517
vn -0.53719 0.37916 -0.75344
vn -0.87775 0.22616 -0.42239
vn -0.70808 0.56538 -0.42305
vn -0.85405 -0.27322 -0.44267
vn -0.60007 -0.67800 -0.42453
vn -0.69851 -0.71560 0.00006
vn -0.95795 -0.28694 0.00024
vn -0.97044 0.24135 -0.00015
vn -0.78755 0.61625 -0.00056
vn -0.64931 0.76052 -0.00024
vn -0.58584 0.68635 -0.43095
vn 0.88464 -0.46627 -0.00006
vn 0.88850 -0.45888 -0.00003
vn 0.79777 -0.40424 -0.44739
vn 0.79937 -0.42643 -0.42328
vn 0.80591 -0.45050 -0.38415
vn 0.87937 -0.47614 -0.00001
vn 0.54939 -0.27284 -0.78976
vn 0.56463 -0.31345 -0.76351
vn 0.60057 -0.35731 -0.71529
vn 0.80327 -0.49278 -0.33455
vn 0.85887 -0.51220 -0.00014
vn 0.76027 -0.58704 -0.27815
vn 0.79806 -0.60258 0.00010
vn -0.62662 0.77933 0.00001
vn -0.63382 0.77348 0.00002
vn -0.56637 0.70949 -0.41934
vn -0.55688 0.71586 -0.42121
vn -0.55910 0.71124 -0.42607
vn -0.62189 0.78311 0.00001
vn -0.35865 0.58338 -0.72873
vn -0.39683 0.55441 -0.73154
vn -0.44113 0.49441 -0.74898
vn -0.00171 0.23949 -0.97090
vn -0.20013 0.47016 -0.85959
vn 0.35254 0.04173 -0.93486
vn 0.55472 -0.13438 -0.82112
vn 0.50030 -0.14052 -0.85438
vn 0.79572 -0.37023 -0.47934
vn 0.79032 -0.35693 -0.49800
vn 0.76490 -0.36998 -0.52730
vn 0.73540 -0.39181 -0.55287
vn 0.90130 -0.43320 -0.00002
vn 0.91050 -0.41351 0.00038
vn 0.91900 -0.39425 0.00010
vn 0.91408 -0.40553 -0.00031
vn 0.72277 -0.42974 -0.54123
vn 0.91458 -0.40441 0.00008
vn 0.92354 -0.38350 0.00014
vn 0.74440 -0.41711 -0.52142
vn 0.22542 -0.50283 -0.83448
vn -0.33727 -0.64373 -0.68692
vn -0.78323 -0.54752 -0.29455
vn -0.58259 -0.75376 -0.30402
vn -0.38549 -0.85871 -0.33768
vn -0.60972 -0.79261 0.00055
vn -0.42571 -0.90486 0.00021
vn -0.82626 -0.56330 0.00064
vn -0.91920 0.39379 0.00069
vn -0.32037 0.94729 0.00179
vn -0.23423 0.90447 -0.35646
vn -0.25963 0.96571 0.00087
vn -0.24279 0.89092 -0.38381
vn -0.25559 0.96679 -0.00021
vn -0.16417 0.75987 -0.62900
vn -0.23204 0.70553 -0.66962
vn -0.03515 0.45123 -0.89172
vn -0.18548 0.36042 -0.91417
vn 0.14174 -0.06530 -0.98775
vn -0.04701 -0.13212 -0.99012
vn 0.30365 -0.52160 -0.79732
vn 0.12241 -0.56289 -0.81742
vn 0.41591 -0.77302 -0.47901
vn 0.23093 -0.83973 -0.49146
vn -0.05312 -0.87914 -0.47359
vn -0.48961 -0.74878 -0.44677
vn 0.26593 -0.96399 0.00059
vn -0.07517 -0.99717 -0.00007
vn -0.54941 -0.83556 -0.00056
vn -0.90656 -0.42207 0.00009
vn -0.82792 -0.36415 -0.42655
vn 0.58568 -0.81054 0.00001
vn 0.47080 -0.88224 0.00011
vn 0.53174 -0.71171 -0.45904
vn 0.58087 -0.68072 -0.44634
vn 0.63360 -0.77366 0.00000
vn 0.44163 -0.45932 -0.77071
vn 0.48446 -0.42774 -0.76311
vn 0.45031 -0.45394 -0.76887
vn 0.57209 -0.69399 -0.43714
vn 0.63089 -0.77587 -0.00003
vn 0.55498 -0.72295 -0.41151
vn 0.61571 -0.78797 -0.00021
vn -0.46620 0.88468 0.00031
vn -0.80271 0.59637 0.00076
vn -0.99611 0.08809 0.00035
vn 0.30330 -0.95289 0.00050
vn 0.44450 -0.89578 0.00013
vn 0.41475 -0.88151 -0.22567
vn 0.27713 -0.94135 -0.19252
vn -0.55256 -0.83348 0.00080
vn -0.52406 -0.82897 -0.19538
vn -0.77038 -0.59279 -0.23476
vn -0.80311 -0.59583 0.00040
vn -0.15341 -0.80479 -0.57339
vn -0.69719 -0.49752 -0.51614
vn -0.85624 -0.14768 -0.49502
vn -0.94655 -0.17951 -0.26800
vn -0.98456 -0.17504 0.00006
vn -0.95275 -0.02831 -0.30243
vn -0.99980 -0.02009 0.00008
vn -0.04500 0.99899 -0.00006
vn -0.06192 0.99808 0.00001
vn -0.07120 0.94936 -0.30603
vn -0.05443 0.92778 -0.36913
vn 0.00574 0.91064 -0.41317
vn 0.02275 0.99974 -0.00020
vn 0.06847 0.99765 -0.00043
vn -0.01298 0.67407 -0.73855
vn 0.01816 0.63053 -0.77595
vn 0.03729 0.44911 -0.89270
vn 0.04621 0.41735 -0.90757
vn 0.24981 0.07892 -0.96507
vn 0.33027 0.07356 -0.94101
vn 0.31069 -0.28861 -0.90564
vn 0.42108 -0.49465 -0.76027
vn 0.31349 -0.30658 -0.89874
vn 0.42941 -0.52710 -0.73333
vn 0.55980 -0.74616 -0.36039
vn 0.44685 -0.58288 -0.67866
vn 0.55566 -0.77880 -0.29106
vn 0.59504 -0.80369 -0.00004
vn 0.61203 -0.79083 -0.00010
vn 0.32994 -0.71776 -0.61315
vn 0.33973 -0.36098 -0.86849
vn 0.25075 -0.51406 -0.82029
vn -0.16544 -0.62412 -0.76362
vn -0.22394 0.45422 -0.86229
vn -0.01547 0.54176 -0.84039
vn -0.04833 0.76509 -0.64211
vn -0.02302 0.72861 -0.68455
vn -0.07268 0.96376 -0.25667
vn 0.03404 0.50599 -0.86186
vn -0.06738 0.99773 0.00018
vn 0.30115 0.01917 -0.95338
vn 0.09901 0.51352 -0.85235
vn -0.89839 -0.43921 0.00002
vn -0.99516 -0.09830 -0.00016
vn -0.94022 -0.09018 -0.32841
vn -0.85705 -0.39745 -0.32788
vn -0.56433 -0.76193 -0.31779
vn -0.58922 -0.80797 0.00034
vn -0.18028 -0.92576 -0.33238
vn -0.19916 -0.97997 0.00006
vn 0.14103 -0.92094 -0.36329
vn 0.14715 -0.98911 0.00003
vn -0.99192 0.12684 0.00000
vn -0.99267 0.12090 -0.00001
vn -0.89200 0.10813 -0.43892
vn -0.88499 0.11269 -0.45176
vn -0.58170 0.09683 -0.80762
vn -0.56847 0.11352 -0.81483
vn -0.31824 0.08940 -0.94379
vn -0.31481 0.11951 -0.94160
vn -0.31384 0.19058 -0.93015
vn 0.41974 0.23866 -0.87571
vn 0.42012 0.19675 -0.88589
vn 0.61676 0.20523 -0.75993
vn 0.62654 0.23546 -0.74297
vn 0.64884 0.18811 -0.73730
vn 0.43907 0.20319 -0.87517
vn -0.26441 0.27358 -0.92479
vn 0.66652 0.19320 -0.72001
vn 0.17045 0.26818 -0.94817
vn 0.68629 0.17399 -0.70621
vn 0.25718 0.17978 -0.94949
vn 0.70792 0.03253 -0.70554
vn 0.33484 -0.03075 -0.94177
vn -0.13155 -0.09989 -0.98626
vn 0.00137 -0.39777 -0.91748
vn -0.52682 -0.12644 -0.84052
vn -0.79354 -0.10118 -0.60005
vn -0.84395 -0.04044 -0.53489
vn 0.10066 -0.71069 -0.69627
vn 0.89474 0.17042 -0.41278
vn 0.91315 0.05739 -0.40356
vn 0.98538 0.17035 0.00017
vn 0.99841 0.05643 -0.00010
vn 0.98348 -0.18102 0.00004
vn 0.85609 -0.51683 0.00053
vn 0.53700 -0.84358 0.00033
vn -0.99260 0.12146 0.00000
vn -0.99310 0.11730 0.00000
vn -0.90481 0.10506 -0.41265
vn -0.89841 0.11108 -0.42488
vn -0.61945 0.08248 -0.78069
vn -0.60065 0.09052 -0.79437
vn -0.36468 0.06444 -0.92890
vn -0.33975 0.07184 -0.93777
vn 0.40403 0.07255 -0.91186
vn 0.39283 0.07579 -0.91648
vn 0.62596 0.10348 -0.77296
vn 0.62213 0.09628 -0.77697
vn 0.61832 0.12800 -0.77543
vn 0.41569 0.11136 -0.90266
vn 0.88595 0.13665 -0.44320
vn 0.87540 0.15262 -0.45867
vn 0.87097 0.19772 -0.44979
vn 0.98521 0.17133 -0.00006
vn 0.98071 0.19547 0.00003
vn 0.98120 0.19299 0.00002
vn 0.88164 0.20485 -0.42515
vn 0.98567 0.16871 -0.00009
vn 0.89401 0.16361 -0.41710
vn 0.98389 0.17877 -0.00011
vn 0.89147 0.17112 -0.41952
vn 0.98676 0.16217 -0.00007
vn 0.89471 0.14473 -0.42255
vn 0.98584 0.16772 0.00001
vn 0.90274 0.14604 -0.40465
vn 0.98609 0.16621 0.00004
vn 0.62747 0.10932 -0.77093
vn 0.62857 0.10732 -0.77031
vn 0.91143 0.14163 -0.38630
vn 0.37960 0.08291 -0.92143
vn 0.36618 0.08259 -0.92687
vn 0.36048 0.09177 -0.92824
vn 0.63656 0.11464 -0.76266
vn -0.40344 0.06777 -0.91249
vn -0.38449 0.06564 -0.92079
vn -0.63582 0.07895 -0.76779
vn -0.65164 0.07757 -0.75455
vn -0.67615 0.07514 -0.73292
vn -0.43471 0.07037 -0.89782
vn -0.71834 0.04455 -0.69427
vn -0.49409 0.05129 -0.86790
vn -0.91883 0.09180 -0.38384
vn -0.92874 0.08533 -0.36077
vn -0.94537 0.04629 -0.32271
vn -0.95420 -0.12058 -0.27379
vn -0.76542 -0.09914 -0.63585
vn -0.99525 0.09736 -0.00010
vn -0.99835 0.05749 0.00020
vn -0.99374 -0.11175 0.00009
vn -0.87266 -0.48832 -0.00019
vn -0.84256 -0.48802 -0.22790
vn -0.09257 -0.99571 0.00002
vn 0.21738 -0.97609 -0.00003
vn 0.20401 -0.95814 -0.20085
vn -0.41934 -0.88517 -0.20157
vn -0.71430 -0.69984 0.00004
vn 0.16167 -0.81092 -0.56238
vn -0.36268 -0.75385 -0.54788
vn -0.70316 -0.41706 -0.57587
vn -0.30258 -0.61160 -0.73102
vn -0.56660 -0.33098 -0.75460
vn -0.57728 -0.06411 -0.81403
vn 0.31141 0.17548 -0.93393
vn 0.20910 0.28304 -0.93604
vn 0.64233 0.14052 -0.75344
vn 0.35235 0.11508 -0.92877
vn 0.82475 0.29818 -0.48050
vn 0.89322 0.31912 -0.31674
vn 0.92686 0.16787 -0.33579
vn 0.92049 0.14688 -0.36212
vn 0.98299 0.18365 -0.00007
vn 0.98597 0.16695 0.00000
vn 0.98698 0.16085 0.00003
vn -0.99411 0.10837 -0.00002
vn -0.99466 0.10318 -0.00003
vn -0.91179 0.09671 -0.39910
vn 0.63790 -0.77012 0.00025
vn 0.61341 -0.75680 -0.22576
vn 0.60886 -0.45032 -0.65307
vn 0.50970 -0.61959 -0.59692
vn 0.45311 -0.29759 -0.84032
vn 0.40007 -0.45805 -0.79381
vn 0.12473 -0.64345 -0.75526
vn -0.04498 0.47085 -0.88106
vn -0.14438 0.45798 -0.87716
vn -0.28804 0.69094 -0.66305
vn 0.07545 0.39958 -0.91359
vn 0.28097 0.87149 -0.40195
vn -0.11335 0.93012 -0.34931
vn -0.11851 0.96908 -0.21643
vn 0.30182 0.92073 -0.24729
vn 0.70462 0.64667 -0.29210
vn 0.64805 0.60558 -0.46185
vn 0.31591 0.94879 -0.00004
vn 0.74215 0.67023 0.00002
vn 0.94280 0.33336 -0.00001
vn -0.64346 0.76548 -0.00003
vn -0.63743 0.77051 -0.00001
vn -0.60217 0.70932 -0.36642
vn -0.59375 0.70043 -0.39604
vn -0.58182 0.70138 -0.41177
vn -0.64097 0.76756 -0.00000
vn -0.40423 0.50443 -0.76299
vn -0.38771 0.52497 -0.75769
vn -0.36426 0.55872 -0.74508
vn -0.21878 0.36962 -0.90306
vn -0.19712 0.42517 -0.88339
vn 0.35067 -0.01436 -0.93639
vn 0.34026 -0.07989 -0.93693
vn 0.55025 -0.22648 -0.80370
vn 0.55424 -0.17993 -0.81267
vn 0.79482 -0.39006 -0.46489
vn 0.88980 -0.45636 -0.00004
vn 0.89378 -0.44851 0.00000
vn 0.33620 -0.13519 -0.93204
vn -0.23031 0.33080 -0.91516
vn -0.41784 0.49835 -0.75964
vn -0.23190 0.30370 -0.92411
vn 0.34884 -0.17580 -0.92054
vn -0.41636 0.53342 -0.73628
vn -0.21803 0.33055 -0.91826
vn 0.40530 -0.21326 -0.88896
vn -0.39140 0.59825 -0.69922
vn -0.19858 0.39373 -0.89752
vn -0.59992 0.73196 -0.32300
vn -0.56572 0.77644 -0.27765
vn -0.41518 0.87892 -0.23478
vn -0.58574 0.81050 0.00010
vn -0.42675 0.90437 0.00004
vn -0.12188 0.99254 -0.00004
vn -0.62564 0.78011 0.00001
vn -0.48309 0.44222 0.75569
vn -0.61043 -0.06243 0.78961
vn -0.69672 0.02980 0.71673
vn -0.54159 0.21346 0.81309
vn -0.63308 -0.00323 0.77408
vn -0.30699 0.15159 0.93956
vn -0.33538 0.36308 0.86931
vn 0.37469 -0.20586 0.90401
vn -0.12042 0.14901 0.98148
vn -0.27341 0.01237 0.96182
vn 0.16524 -0.36045 0.91803
vn -0.31270 -0.53110 0.78750
vn -0.18351 -0.70830 0.68164
vn 0.23726 -0.52298 0.81866
vn -0.55728 -0.16405 0.81396
vn 0.01636 0.56673 0.82374
vn -0.30174 -0.16174 0.93957
vn -0.53659 -0.15902 0.82872
vn -0.46373 0.38217 0.79931
vn -0.81868 0.32734 0.47182
vn -0.53217 0.69015 0.49040
vn -0.14003 0.74722 0.64966
vn -0.65630 0.15418 0.73858
vn -0.38063 0.25813 0.88797
vn -0.38688 0.60939 0.69208
vn -0.58512 0.47535 0.65703
vn -0.72231 0.55810 0.40840
vn -0.90101 0.09807 0.42257
vn -0.42319 0.81465 0.39656
vn 0.91946 0.34990 0.17934
vn 0.18588 0.55820 0.80862
vn 0.12192 0.59973 0.79086
vn 0.21195 0.75236 0.62373
vn 0.72070 -0.16614 0.67304
vn 0.55660 -0.03995 0.82982
vn -0.45246 0.35781 0.81686
vn -0.54225 0.21396 0.81252
vn -0.85006 0.25979 0.45815
vn -0.60642 0.63673 0.47626
vn -0.23159 0.92705 0.29488
vn -0.24160 0.68387 0.68844
vn 0.79532 -0.46892 0.38416
vn 0.90658 -0.15855 0.39111
vn 0.70854 -0.17419 0.68383
vn 0.67629 -0.38919 0.62543
vn 0.43343 -0.57631 0.69282
vn 0.50018 -0.77656 0.38311
vn 0.38787 -0.29393 0.87359
vn -0.21038 -0.71936 0.66201
vn -0.36735 -0.38758 0.84548
vn -0.68481 -0.35404 0.63694
vn -0.50041 -0.64372 0.57898
vn -0.10789 -0.57628 0.81010
vn -0.27229 -0.17249 0.94663
vn -0.58280 -0.24984 0.77325
vn -0.38710 -0.55294 0.73784
vn -0.53854 0.37815 0.75298
vn -0.68200 0.19163 0.70580
vn -0.70851 0.56455 0.42345
vn -0.87586 0.22857 0.42501
vn -0.85355 -0.27046 0.44532
vn -0.60061 -0.67775 0.42417
vn -0.58590 0.68622 0.43107
vn 0.79913 -0.42692 0.42324
vn 0.79734 -0.40515 0.44733
vn 0.80614 -0.45042 0.38374
vn 0.56411 -0.31430 0.76354
vn 0.54929 -0.27314 0.78973
vn 0.80454 -0.49146 0.33343
vn 0.60076 -0.35696 0.71531
vn 0.76001 -0.58728 0.27836
vn -0.55698 0.71580 0.42119
vn -0.56650 0.70939 0.41934
vn -0.55912 0.71107 0.42634
vn -0.39658 0.55543 0.73091
vn -0.35830 0.58422 0.72822
vn -0.44099 0.49444 0.74904
vn -0.00109 0.24204 0.97027
vn -0.19941 0.47193 0.85879
vn 0.50237 -0.13970 0.85329
vn 0.55428 -0.13409 0.82146
vn 0.35178 0.04171 0.93515
vn 0.79124 -0.35711 0.49640
vn 0.79574 -0.36991 0.47956
vn 0.76143 -0.37126 0.53141
vn 0.72969 -0.39341 0.55927
vn 0.72318 -0.42640 0.54332
vn 0.74369 -0.41779 0.52189
vn 0.22698 -0.50024 0.83561
vn -0.32993 -0.64516 0.68914
vn -0.58029 -0.75550 0.30413
vn -0.78684 -0.53909 0.30043
vn -0.38092 -0.86209 0.33420
vn -0.23667 0.90311 0.35829
vn -0.24343 0.89039 0.38464
vn -0.16636 0.75942 0.62897
vn -0.23322 0.70464 0.67014
vn -0.18618 0.36052 0.91398
vn -0.03663 0.45215 0.89119
vn -0.04781 -0.13232 0.99005
vn 0.14091 -0.06502 0.98788
vn 0.12146 -0.56299 0.81749
vn 0.30338 -0.52152 0.79749
vn 0.23044 -0.83945 0.49215
vn 0.41613 -0.77296 0.47892
vn -0.05721 -0.87651 0.47797
vn -0.49215 -0.74481 0.45061
vn -0.82755 -0.36469 0.42680
vn 0.53203 -0.71151 0.45902
vn 0.58102 -0.68057 0.44636
vn 0.48401 -0.42792 0.76329
vn 0.44076 -0.45957 0.77105
vn 0.57291 -0.69337 0.43706
vn 0.45065 -0.45355 0.76890
vn 0.55537 -0.72269 0.41144
vn 0.27631 -0.94131 0.19388
vn 0.41546 -0.88105 0.22615
vn -0.77093 -0.59246 0.23381
vn -0.52852 -0.82700 0.19169
vn -0.70370 -0.49667 0.50807
vn -0.15870 -0.80634 0.56977
vn -0.94545 -0.18288 0.26960
vn -0.85818 -0.14879 0.49131
vn -0.95286 -0.02960 0.30198
vn -0.05064 0.92813 0.36881
vn -0.06672 0.94964 0.30616
vn 0.00323 0.91121 0.41192
vn 0.01631 0.63160 0.77512
vn -0.01005 0.67441 0.73829
vn 0.04738 0.41756 0.90742
vn 0.03699 0.44909 0.89272
vn 0.25177 0.08068 0.96442
vn 0.33248 0.07568 0.94007
vn 0.42041 -0.49496 0.76044
vn 0.30990 -0.28903 0.90577
vn 0.43061 -0.52647 0.73308
vn 0.31496 -0.30599 0.89842
vn 0.56003 -0.74605 0.36023
vn 0.55724 -0.77782 0.29065
vn 0.44750 -0.58166 0.67927
vn 0.32909 -0.71761 0.61378
vn 0.24663 -0.51577 0.82046
vn 0.33505 -0.36187 0.86994
vn -0.16856 -0.62753 0.76013
vn -0.04908 0.76532 0.64178
vn -0.01974 0.54270 0.83969
vn -0.23977 0.43142 0.86971
vn -0.07094 0.96378 0.25708
vn -0.02231 0.72856 0.68461
vn 0.02926 0.50588 0.86211
vn 0.09866 0.51476 0.85164
vn 0.30035 0.01948 0.95363
vn -0.85899 -0.39577 0.32481
vn -0.94062 -0.08940 0.32749
vn -0.56499 -0.76341 0.31302
vn -0.17744 -0.92729 0.32961
vn 0.14101 -0.92074 0.36380
vn -0.88494 0.11324 0.45173
vn -0.89197 0.10868 0.43884
vn -0.56846 0.11446 0.81471
vn -0.58175 0.09702 0.80756
vn -0.31487 0.12037 0.94147
vn -0.31836 0.08876 0.94381
vn -0.31435 0.19314 0.92945
vn 0.62650 0.23604 0.74282
vn 0.61661 0.20578 0.75990
vn 0.42013 0.19698 0.88583
vn 0.41992 0.23822 0.87574
vn 0.43941 0.20186 0.87531
vn 0.64899 0.18758 0.73731
vn -0.26555 0.27556 0.92388
vn 0.17161 0.26657 0.94841
vn 0.66607 0.19240 0.72065
vn 0.26113 0.17681 0.94897
vn 0.68564 0.17394 0.70685
vn 0.33692 -0.03209 0.94099
vn 0.70758 0.03233 0.70589
vn -0.12817 -0.10213 0.98648
vn -0.00152 -0.39856 0.91714
vn -0.52462 -0.12820 0.84163
vn -0.79299 -0.10157 0.60071
vn -0.84355 -0.04112 0.53547
vn 0.09936 -0.71062 0.69652
vn 0.91311 0.05721 0.40369
vn 0.89469 0.17047 0.41289
vn -0.89843 0.11111 0.42484
vn -0.90482 0.10506 0.41264
vn -0.60074 0.09051 0.79430
vn -0.61946 0.08250 0.78068
vn -0.33989 0.07179 0.93772
vn -0.36466 0.06448 0.92891
vn 0.62220 0.09598 0.77696
vn 0.62594 0.10375 0.77294
vn 0.39277 0.07637 0.91646
vn 0.40402 0.07242 0.91188
vn 0.41570 0.11134 0.90266
vn 0.61837 0.12791 0.77540
vn 0.87547 0.15249 0.45859
vn 0.88604 0.13638 0.44311
vn 0.87095 0.19771 0.44984
vn 0.88162 0.20517 0.42502
vn 0.89399 0.16404 0.41697
vn 0.89149 0.17124 0.41942
vn 0.89471 0.14470 0.42256
vn 0.90273 0.14602 0.40467
vn 0.62748 0.10934 0.77092
vn 0.91145 0.14137 0.38636
vn 0.62859 0.10695 0.77035
vn 0.37961 0.08287 0.92143
vn 0.36620 0.08237 0.92688
vn 0.63644 0.11502 0.76270
vn 0.36055 0.09181 0.92821
vn -0.65163 0.07779 0.75454
vn -0.63581 0.07882 0.76781
vn -0.38445 0.06539 0.92083
vn -0.40331 0.06759 0.91256
vn -0.43492 0.07044 0.89771
vn -0.67616 0.07487 0.73294
vn -0.49615 0.05245 0.86665
vn -0.71947 0.04506 0.69306
vn -0.92873 0.08533 0.36081
vn -0.91884 0.09220 0.38371
vn -0.94547 0.04558 0.32250
vn -0.76591 -0.09674 0.63563
vn -0.95493 -0.11931 0.27181
vn -0.84314 -0.48724 0.22739
vn -0.41820 -0.88545 0.20267
vn 0.20511 -0.95799 0.20044
vn -0.36268 -0.75402 0.54764
vn 0.16357 -0.81160 0.56085
vn -0.70288 -0.41701 0.57625
vn -0.56505 -0.33111 0.75570
vn -0.30445 -0.61274 0.72929
vn -0.57475 -0.06136 0.81603
vn 0.31082 0.17511 0.93420
vn 0.20681 0.28197 0.93687
vn 0.35306 0.11475 0.92854
vn 0.64244 0.14090 0.75327
vn 0.92677 0.16828 0.33582
vn 0.89318 0.31922 0.31676
vn 0.82472 0.29822 0.48053
vn 0.92039 0.14720 0.36223
vn -0.91181 0.09672 0.39906
vn 0.61273 -0.75731 0.22590
vn 0.50994 -0.62069 0.59557
vn 0.60790 -0.44983 0.65430
vn 0.40115 -0.46033 0.79195
vn 0.45052 -0.29687 0.84196
vn 0.12732 -0.64523 0.75330
vn -0.04528 0.46529 0.88400
vn -0.28807 0.69059 0.66341
vn -0.14386 0.45758 0.87745
vn 0.07382 0.39329 0.91645
vn 0.30209 0.92074 0.24696
vn -0.11793 0.96924 0.21601
vn -0.11201 0.93056 0.34858
vn 0.28129 0.87166 0.40135
vn 0.64756 0.60544 0.46272
vn 0.70440 0.64671 0.29256
vn -0.59365 0.70051 0.39607
vn -0.60216 0.70926 0.36654
vn -0.58193 0.70132 0.41171
vn -0.38825 0.52461 0.75766
vn -0.40382 0.50471 0.76302
vn -0.36454 0.55857 0.74506
vn -0.19712 0.42524 0.88335
vn -0.21949 0.36911 0.90310
vn 0.55438 -0.17992 0.81258
vn 0.55018 -0.22685 0.80364
vn 0.34055 -0.07966 0.93685
vn 0.35050 -0.01479 0.93644
vn 0.79498 -0.38992 0.46472
vn 0.33660 -0.13470 0.93196
vn -0.22980 0.33120 0.91515
vn -0.23126 0.30421 0.92411
vn -0.41769 0.49835 0.75973
vn 0.34701 -0.17734 0.92094
vn -0.21898 0.33023 0.91815
vn -0.41662 0.53325 0.73626
vn 0.40252 -0.21420 0.89000
vn -0.19921 0.39341 0.89752
vn -0.39172 0.59827 0.69902
vn -0.56555 0.77661 0.27754
vn -0.59977 0.73202 0.32313
vn -0.41526 0.87885 0.23491
f 1//1 9//2 10//3 11//4
f 13//5 14//6 9//2 1//1
f 1//1 11//4 12//7 13//5
f 2//8 15//9 16//10 17//11
f 2//8 18//12 19//13 20//14
f 2//8 20//14 21//15 15//9
f 3//16 22//17 23//18 24//19
f 26//20 27//21 22//17 3//16
f 3//16 24//19 25//22 26//20
f 4//23 28//24 29//25 30//26
f 4//23 30//26 31//27 32//28
f 4//23 32//28 33//29 28//24
f 5//30 35//30 34//31 312//31
f 5//32 36//33 37//34 24//19
f 5//32 24//19 23//35 35//36
f 6//37 40//38 41//39 42//40
f 6//37 42//40 12//7 11//4
f 6//37 38//41 313//42 40//38
f 6//37 11//4 43//43 44//44
f 6//37 44//44 39//45 38//41
f 7//46 45//47 46//48 47//49
f 7//46 47//49 48//50 49//51
f 7//46 49//51 50//52 45//47
f 51//53 52//54 53//55 54//56
f 55//57 56//58 57//59 58//60
f 8//61 59//62 15//9 21//15
f 8//61 60//63 61//64 59//62
f 8//61 21//15 62//65 60//63
f 62//65 63//66 314//67 64//68
f 62//65 64//68 65//69 60//63
f 62//65 21//15 20//14 63//66
f 65//69 66//70 61//64 60//63
f 66//70 315//71 67//72 61//64
f 70//73 69//74 72//75 73//76
f 70//73 73//76 74//77 71//78
f 74//77 73//76 75//79 76//80
f 74//77 76//80 77//81 78//82
f 74//77 78//82 317//83 71//78
f 317//83 78//82 79//84 318//85
f 82//86 81//87 83//88 84//89
f 82//86 84//89 85//90 68//91
f 85//90 67//72 315//71 68//91
f 85//90 84//89 86//92 87//93
f 85//90 87//93 88//94 67//72
f 88//94 59//62 61//64 67//72
f 88//94 87//93 89//95 16//10
f 88//94 16//10 15//9 59//62
f 89//95 87//93 86//92 90//96
f 89//95 90//97 91//98 92//99
f 89//95 92//99 17//11 16//10
f 92//99 91//98 93//100 94//101
f 92//99 94//101 95//102 17//11
f 95//102 96//103 2//8 17//11
f 95//102 94//101 97//104 98//105
f 95//102 98//105 99//106 96//103
f 99//106 100//107 101//108 96//103
f 102//109 34//110 35//36 103//111
f 102//109 103//111 101//108 100//107
f 103//111 35//36 23//35 104//112
f 103//111 104//112 18//12 101//108
f 104//112 23//18 22//17 105//113
f 104//112 105//113 19//13 18//12
f 105//113 22//17 27//114 106//115
f 105//113 106//115 107//116 19//13
f 107//116 106//115 319//117 320//118
f 107//116 320//118 314//67 63//66
f 107//116 63//66 20//14 19//13
f 108//119 319//117 106//115 27//114
f 108//120 27//21 26//20 109//120
f 109//121 26//20 110//122 321//123
f 110//122 111//124 322//125 321//123
f 110//122 26//20 25//22 112//126
f 110//122 112//126 113//127 111//124
f 113//127 28//24 33//29 111//124
f 113//127 112//126 114//128 115//129
f 113//127 115//129 29//25 28//24
f 115//129 114//128 116//130 117//131
f 115//129 117//131 57//59 29//25
f 117//131 116//130 118//132 119//133
f 117//131 119//133 58//60 57//59
f 119//133 118//132 120//134 121//135
f 119//133 121//135 122//136 58//60
f 122//136 123//137 55//57 58//60
f 122//136 121//135 323//138 324//139
f 122//136 324//139 124//140 123//137
f 124//140 125//141 126//142 123//137
f 127//143 325//144 120//134 129//145
f 127//143 129//145 130//146 128//147
f 130//146 129//145 131//148 132//149
f 130//146 132//149 133//150 134//151
f 130//146 134//151 135//152 128//147
f 135//152 134//151 136//153 137//154
f 138//155 322//125 111//124 33//29
f 138//155 33//29 32//28 139//156
f 139//156 32//28 31//27 140//157
f 140//157 31//27 126//142 125//141
f 142//158 141//159 144//160 145//161
f 142//162 145//163 146//164 143//165
f 146//164 145//163 147//166 148//167
f 146//164 148//167 149//168 150//169
f 146//164 150//169 151//170 143//165
f 151//170 150//169 152//171 326//172
f 154//173 327//174 155//175 156//176
f 154//173 156//176 157//177 328//178
f 328//178 157//177 5//32 312//179
f 157//177 156//176 158//180 159//181
f 157//177 159//181 36//33 5//32
f 159//181 158//180 160//182 161//183
f 159//181 161//183 162//184 36//33
f 162//184 163//185 37//34 36//33
f 162//184 161//186 164//187 133//150
f 162//184 133//150 132//149 163//185
f 164//187 161//186 160//188 165//189
f 164//187 165//189 166//190 136//153
f 164//187 136//153 134//151 133//150
f 166//190 165//189 167//191 168//192
f 166//190 168//192 329//193 330//194
f 166//190 330//194 137//154 136//153
f 168//192 167//191 169//195 144//160
f 168//192 144//160 141//159 329//193
f 169//195 167//191 170//196 171//197
f 169//195 171//197 172//198 147//166
f 169//195 147//166 145//161 144//160
f 172//199 171//200 173//201 43//43
f 172//199 43//43 11//4 10//3
f 172//198 10//3 148//167 147//166
f 173//201 174//202 155//175 175//203
f 173//201 175//203 44//44 43//43
f 173//201 171//200 170//204 174//202
f 175//203 155//175 327//174 153//205
f 175//203 153//205 39//45 44//44
f 174//202 158//180 156//176 155//175
f 174//202 170//204 160//182 158//180
f 170//196 167//191 165//189 160//188
f 163//185 176//206 177//207 37//34
f 163//185 132//149 131//148 176//206
f 177//207 114//128 112//126 25//22
f 177//207 25//22 24//19 37//34
f 177//207 176//206 116//130 114//128
f 176//206 131//148 118//132 116//130
f 331//208 332//209 179//210 180//211
f 331//208 180//211 181//212 178//213
f 181//212 180//211 52//54 51//53
f 181//212 51//53 54//56 182//214
f 181//212 182//214 183//215 178//213
f 183//215 182//214 184//216 185//217
f 187//218 186//219 188//220 189//221
f 187//218 189//221 40//38 313//42
f 189//221 188//220 190//222 191//223
f 189//221 191//223 41//39 40//38
f 191//223 190//222 192//224 193//225
f 191//223 193//225 194//226 41//39
f 194//227 193//228 195//229 196//230
f 194//227 196//230 197//231 198//232
f 194//226 198//233 42//40 41//39
f 198//232 197//231 199//234 200//235
f 198//233 200//235 12//7 42//40
f 200//235 199//234 201//236 202//237
f 200//235 202//237 13//5 12//7
f 202//237 201//236 203//238 204//239
f 202//237 204//239 205//240 13//5
f 205//240 204//239 50//52 206//241
f 205//240 206//241 53//55 207//242
f 205//240 207//242 14//6 13//5
f 207//242 53//55 52//54 208//243
f 207//242 208//243 209//244 14//6
f 209//244 149//168 9//2 14//6
f 209//244 208//243 179//210 152//171
f 209//244 152//171 150//169 149//168
f 208//243 52//54 180//211 179//210
f 206//241 50//52 49//51 210//245
f 206//241 210//245 54//56 53//55
f 210//245 49//51 48//50 184//216
f 210//245 184//216 182//214 54//56
f 204//239 203//238 45//47 50//52
f 203//238 201//236 211//246 212//247
f 203//238 212//247 46//48 45//47
f 212//247 211//246 333//248 334//249
f 212//247 334//249 335//250 46//48
f 335//250 336//251 47//49 46//48
f 336//251 337//252 48//50 47//49
f 337//252 185//217 184//216 48//50
f 216//253 215//254 217//255 218//256
f 216//253 218//256 188//220 186//219
f 218//256 217//255 219//257 220//258
f 218//256 220//258 190//222 188//220
f 220//258 219//257 221//259 222//260
f 220//258 222//260 192//224 190//222
f 222//261 221//262 223//263 224//264
f 222//261 224//264 225//265 192//266
f 225//265 224//264 226//267 227//268
f 225//265 227//268 228//269 195//229
f 225//265 195//229 193//228 192//266
f 228//269 227//268 214//270 213//271
f 228//269 213//271 338//272 229//273
f 228//269 229//273 196//230 195//229
f 229//273 338//272 339//274 230//275
f 229//273 230//275 197//231 196//230
f 230//275 339//274 340//276 231//277
f 230//275 231//277 199//234 197//231
f 231//277 340//276 333//248 211//246
f 231//277 211//246 201//236 199//234
f 227//268 226//267 232//278 214//270
f 232//278 226//267 234//279 233//280
f 234//279 235//281 236//282 233//280
f 234//279 226//267 224//264 223//263
f 234//279 223//263 237//283 235//281
f 237//283 238//284 239//285 235//281
f 237//283 223//263 221//262 240//286
f 237//283 240//286 241//287 238//284
f 241//287 242//288 243//289 238//284
f 241//290 240//291 244//292 245//293
f 241//290 245//293 246//294 242//295
f 246//294 247//296 248//297 242//295
f 246//294 245//293 249//298 250//299
f 246//294 250//299 251//300 247//296
f 251//300 252//301 253//302 247//296
f 251//300 250//299 341//303 342//304
f 251//300 342//304 254//305 252//301
f 254//305 255//306 256//307 252//301
f 257//308 343//309 258//310 259//311
f 257//312 259//311 256//307 255//306
f 259//311 258//310 260//313 261//314
f 259//311 261//314 262//315 256//307
f 262//315 261//314 263//316 264//317
f 262//315 264//317 265//318 253//302
f 262//315 253//302 252//301 256//307
f 265//319 264//320 266//320 267//319
f 265//319 267//319 268//321 248//322
f 265//318 248//297 247//296 253//302
f 268//321 267//323 269//324 270//325
f 268//321 270//325 271//326 243//289
f 268//321 243//289 242//288 248//322
f 271//326 270//325 272//327 273//328
f 271//326 273//328 274//329 239//285
f 271//326 239//285 238//284 243//289
f 274//329 236//282 235//281 239//285
f 345//330 344//331 249//298 275//332
f 345//330 275//332 217//255 215//254
f 275//332 249//298 245//293 244//292
f 275//332 244//292 219//257 217//255
f 344//331 341//303 250//299 249//298
f 276//333 318//85 79//84 277//334
f 276//333 277//334 258//310 343//309
f 277//334 79//84 278//335 279//336
f 277//334 279//336 260//313 258//310
f 279//336 278//335 280//337 281//338
f 279//336 281//338 282//339 260//313
f 282//340 281//341 283//342 284//340
f 282//340 284//340 285//343 263//343
f 282//339 263//316 261//314 260//313
f 285//344 284//345 286//346 287//347
f 285//344 287//347 288//348 266//349
f 285//343 266//320 264//320 263//343
f 288//348 287//347 346//350 347//351
f 288//348 347//351 289//352 269//324
f 288//348 269//324 267//323 266//349
f 289//352 272//327 270//325 269//324
f 291//353 349//354 292//355 293//356
f 291//353 293//356 294//357 80//358
f 294//357 83//88 81//87 80//358
f 294//357 293//356 295//359 296//360
f 294//357 296//360 297//361 83//88
f 297//361 86//92 84//89 83//88
f 297//361 296//360 298//362 299//363
f 297//361 299//363 90//96 86//92
f 299//364 298//365 300//366 301//367
f 299//364 301//367 91//98 90//97
f 301//367 300//366 72//75 302//368
f 301//367 302//368 93//100 91//98
f 302//368 72//75 69//74 316//369
f 302//368 316//369 350//370 93//100
f 350//370 97//104 94//101 93//100
f 300//366 298//365 303//371 75//79
f 300//366 75//79 73//76 72//75
f 303//372 298//362 296//360 295//359
f 303//372 295//359 304//373 305//374
f 303//371 305//375 76//80 75//79
f 305//374 304//373 306//376 307//377
f 305//375 307//378 77//81 76//80
f 307//377 306//376 308//379 280//380
f 307//378 280//337 278//335 77//81
f 308//379 306//376 309//381 310//382
f 308//379 310//382 311//383 283//342
f 308//379 283//342 281//341 280//380
f 311//383 310//382 351//384 290//385
f 311//383 290//385 348//386 286//346
f 311//383 286//346 284//345 283//342
f 351//384 310//382 309//381 352//387
f 309//381 292//355 349//354 352//387
f 309//381 306//376 304//373 292//355
f 304//373 295//359 293//356 292//355
f 348//386 346//350 287//347 286//346
f 278//335 79//84 78//82 77//81
f 244//292 240//291 221//259 219//257
f 179//210 332//209 326//172 152//171
f 149//168 148//167 10//3 9//2
f 131//148 129//145 120//134 118//132
f 325//144 323//138 121//135 120//134
f 126//142 31//27 30//26 56//58
f 126//142 56//58 55//57 123//137
f 101//108 18//12 2//8 96//103
f 57//59 56//58 30//26 29//25
f 363//388 362//389 361//390 353//391
f 353//391 361//390 366//392 365//393
f 365//393 364//394 363//388 353//391
f 369//395 368//396 367//397 354//398
f 372//399 371//400 370//401 354//398
f 367//397 373//402 372//399 354//398
f 376//403 375//404 374//405 355//406
f 355//406 374//405 379//407 378//408
f 378//408 377//409 376//403 355//406
f 382//410 381//411 380//412 356//413
f 384//414 383//415 382//410 356//413
f 380//412 385//416 384//414 356//413
f 312//31 34//31 386//417 357//417
f 376//403 388//418 387//419 357//420
f 386//421 375//422 376//403 357//420
f 391//423 390//424 389//425 358//426
f 363//388 364//394 391//423 358//426
f 389//425 313//42 38//41 358//426
f 393//427 392//428 363//388 358//426
f 38//41 39//45 393//427 358//426
f 396//429 395//430 394//431 359//432
f 398//433 397//434 396//429 359//432
f 394//431 399//435 398//433 359//432
f 403//436 402//437 401//438 400//439
f 407//440 406//441 405//442 404//443
f 373//402 367//397 408//444 360//445
f 408//444 410//446 409//447 360//445
f 409//447 411//448 373//402 360//445
f 64//68 314//67 412//449 411//448
f 409//447 65//69 64//68 411//448
f 412//449 372//399 373//402 411//448
f 409//447 410//446 66//70 65//69
f 410//446 413//450 315//71 66//70
f 415//451 414//452 69//74 70//73
f 71//78 416//453 415//451 70//73
f 418//454 417//455 415//451 416//453
f 420//456 419//457 418//454 416//453
f 71//78 317//83 420//456 416//453
f 318//85 421//458 420//456 317//83
f 423//459 422//460 81//87 82//86
f 68//91 424//461 423//459 82//86
f 68//91 315//71 413//450 424//461
f 426//462 425//463 423//459 424//461
f 413//450 427//464 426//462 424//461
f 413//450 410//446 408//444 427//464
f 368//396 428//465 426//462 427//464
f 408//444 367//397 368//396 427//464
f 429//466 425//463 426//462 428//465
f 431//467 430//468 429//469 428//465
f 368//396 369//395 431//467 428//465
f 433//470 432//471 430//468 431//467
f 369//395 434//472 433//470 431//467
f 369//395 354//398 435//473 434//472
f 98//105 97//104 433//470 434//472
f 435//473 99//106 98//105 434//472
f 435//473 436//474 100//107 99//106
f 437//475 386//421 34//110 102//109
f 100//107 436//474 437//475 102//109
f 438//476 375//422 386//421 437//475
f 436//474 370//401 438//476 437//475
f 439//477 374//405 375//404 438//476
f 370//401 371//400 439//477 438//476
f 440//478 379//479 374//405 439//477
f 371//400 441//480 440//478 439//477
f 320//118 319//117 440//478 441//480
f 412//449 314//67 320//118 441//480
f 371//400 372//399 412//449 441//480
f 379//479 440//478 319//117 108//119
f 109//120 378//408 379//407 108//120
f 321//123 442//481 378//408 109//121
f 321//123 322//125 443//482 442//481
f 444//483 377//409 378//408 442//481
f 443//482 445//484 444//483 442//481
f 443//482 385//416 380//412 445//484
f 447//485 446//486 444//483 445//484
f 380//412 381//411 447//485 445//484
f 449//487 448//488 446//486 447//485
f 381//411 406//441 449//487 447//485
f 451//489 450//490 448//488 449//487
f 406//441 407//440 451//489 449//487
f 453//491 452//492 450//490 451//489
f 407//440 454//493 453//491 451//489
f 407//440 404//443 455//494 454//493
f 324//139 323//138 453//491 454//493
f 455//494 124//140 324//139 454//493
f 455//494 456//495 125//141 124//140
f 457//496 452//492 325//144 127//143
f 128//147 458//497 457//496 127//143
f 460//498 459//499 457//496 458//497
f 462//500 461//501 460//498 458//497
f 128//147 135//152 462//500 458//497
f 137//154 463//502 462//500 135//152
f 385//416 443//482 322//125 138//155
f 139//156 384//414 385//416 138//155
f 140//157 383//415 384//414 139//156
f 125//141 456//495 383//415 140//157
f 465//503 464//504 141//159 142//158
f 143//165 466//505 465//506 142//162
f 468//507 467//508 465//506 466//505
f 470//509 469//510 468//507 466//505
f 143//165 151//170 470//509 466//505
f 326//172 471//511 470//509 151//170
f 473//512 472//513 327//174 154//173
f 328//178 474//514 473//512 154//173
f 312//179 357//420 474//514 328//178
f 476//515 475//516 473//512 474//514
f 357//420 387//419 476//515 474//514
f 478//517 477//518 475//516 476//515
f 387//419 479//519 478//517 476//515
f 387//419 388//418 480//520 479//519
f 461//501 481//521 478//522 479//519
f 480//520 460//498 461//501 479//519
f 482//523 477//524 478//522 481//521
f 463//502 483//525 482//523 481//521
f 461//501 462//500 463//502 481//521
f 485//526 484//527 482//523 483//525
f 330//194 329//193 485//526 483//525
f 463//502 137//154 330//194 483//525
f 464//504 486//528 484//527 485//526
f 329//193 141//159 464//504 485//526
f 488//529 487//530 484//527 486//528
f 467//508 489//531 488//529 486//528
f 464//504 465//503 467//508 486//528
f 392//428 490//532 488//533 489//534
f 362//389 363//388 392//428 489//534
f 467//508 468//507 362//389 489//531
f 492//535 472//513 491//536 490//532
f 392//428 393//427 492//535 490//532
f 491//536 487//537 488//533 490//532
f 153//205 327//174 472//513 492//535
f 393//427 39//45 153//205 492//535
f 472//513 473//512 475//516 491//536
f 475//516 477//518 487//537 491//536
f 477//524 482//523 484//527 487//530
f 388//418 494//538 493//539 480//520
f 493//539 459//499 460//498 480//520
f 377//409 444//483 446//486 494//538
f 388//418 376//403 377//409 494//538
f 446//486 448//488 493//539 494//538
f 448//488 450//490 459//499 493//539
f 496//540 495//541 332//209 331//208
f 178//213 497//542 496//540 331//208
f 400//439 401//438 496//540 497//542
f 498//543 403//436 400//439 497//542
f 178//213 183//215 498//543 497//542
f 185//217 499//544 498//543 183//215
f 501//545 500//546 186//219 187//218
f 313//42 389//425 501//545 187//218
f 503//547 502//548 500//546 501//545
f 389//425 390//424 503//547 501//545
f 505//549 504//550 502//548 503//547
f 390//424 506//551 505//549 503//547
f 508//552 507//553 505//554 506//555
f 510//556 509//557 508//552 506//555
f 390//424 391//423 510//558 506//551
f 512//559 511//560 509//557 510//556
f 391//423 364//394 512//559 510//558
f 514//561 513//562 511//560 512//559
f 364//394 365//393 514//561 512//559
f 516//563 515//564 513//562 514//561
f 365//393 517//565 516//563 514//561
f 518//566 399//435 516//563 517//565
f 519//567 402//437 518//566 517//565
f 365//393 366//392 519//567 517//565
f 520//568 401//438 402//437 519//567
f 366//392 521//569 520//568 519//567
f 366//392 361//390 469//510 521//569
f 471//511 495//541 520//568 521//569
f 469//510 470//509 471//511 521//569
f 495//541 496//540 401//438 520//568
f 522//570 398//433 399//435 518//566
f 402//437 403//436 522//570 518//566
f 499//544 397//434 398//433 522//570
f 403//436 498//543 499//544 522//570
f 399//435 394//431 515//564 516//563
f 524//571 523//572 513//562 515//564
f 394//431 395//430 524//571 515//564
f 334//249 333//248 523//572 524//571
f 395//430 335//250 334//249 524//571
f 395//430 396//429 336//251 335//250
f 396//429 397//434 337//252 336//251
f 397//434 499//544 185//217 337//252
f 526//573 525//574 215//254 216//253
f 186//219 500//546 526//573 216//253
f 528//575 527//576 525//574 526//573
f 500//546 502//548 528//575 526//573
f 530//577 529//578 527//576 528//575
f 502//548 504//550 530//577 528//575
f 532//579 531//580 529//581 530//582
f 504//583 533//584 532//579 530//582
f 535//585 534//586 532//579 533//584
f 507//553 536//587 535//585 533//584
f 504//583 505//554 507//553 533//584
f 213//271 214//270 535//585 536//587
f 537//588 338//272 213//271 536//587
f 507//553 508//552 537//588 536//587
f 538//589 339//274 338//272 537//588
f 508//552 509//557 538//589 537//588
f 539//590 340//276 339//274 538//589
f 509//557 511//560 539//590 538//589
f 523//572 333//248 340//276 539//590
f 511//560 513//562 523//572 539//590
f 214//270 232//278 534//586 535//585
f 233//280 540//591 534//586 232//278
f 233//280 236//282 541//592 540//591
f 531//580 532//579 534//586 540//591
f 541//592 542//593 531//580 540//591
f 541//592 544//594 543//595 542//593
f 545//596 529//581 531//580 542//593
f 543//595 546//597 545//596 542//593
f 543//595 548//598 547//599 546//597
f 550//600 549//601 545//602 546//603
f 547//604 551//605 550//600 546//603
f 547//604 553//606 552//607 551//605
f 555//608 554//609 550//600 551//605
f 552//607 556//610 555//608 551//605
f 552//607 558//611 557//612 556//610
f 342//304 341//303 555//608 556//610
f 557//612 254//305 342//304 556//610
f 557//612 559//613 255//306 254//305
f 561//614 560//615 343//309 257//308
f 255//306 559//613 561//614 257//312
f 563//616 562//617 560//615 561//614
f 559//613 564//618 563//616 561//614
f 566//619 565//620 563//616 564//618
f 558//611 567//621 566//619 564//618
f 559//613 557//612 558//611 564//618
f 569//622 568//623 566//623 567//622
f 553//624 570//625 569//622 567//622
f 558//611 552//607 553//606 567//621
f 572//626 571//627 569//628 570//625
f 548//598 573//629 572//626 570//625
f 553//624 547//599 548//598 570//625
f 273//328 272//327 572//626 573//629
f 544//594 274//329 273//328 573//629
f 548//598 543//595 544//594 573//629
f 544//594 541//592 236//282 274//329
f 574//630 554//609 344//331 345//330
f 215//254 525//574 574//630 345//330
f 549//601 550//600 554//609 574//630
f 525//574 527//576 549//601 574//630
f 554//609 555//608 341//303 344//331
f 575//631 421//458 318//85 276//333
f 343//309 560//615 575//631 276//333
f 577//632 576//633 421//458 575//631
f 560//615 562//617 577//632 575//631
f 579//634 578//635 576//633 577//632
f 562//617 580//636 579//634 577//632
f 582//637 581//638 579//639 580//637
f 565//640 583//640 582//637 580//637
f 562//617 563//616 565//620 580//636
f 585//641 584//642 582//643 583//644
f 568//645 586//646 585//641 583//644
f 565//640 566//623 568//623 583//640
f 347//351 346//350 585//641 586//646
f 571//627 289//352 347//351 586//646
f 568//645 569//628 571//627 586//646
f 571//627 572//626 272//327 289//352
f 588//647 587//648 349//354 291//353
f 80//358 589//649 588//647 291//353
f 80//358 81//87 422//460 589//649
f 591//650 590//651 588//647 589//649
f 422//460 592//652 591//650 589//649
f 422//460 423//459 425//463 592//652
f 594//653 593//654 591//650 592//652
f 425//463 429//466 594//653 592//652
f 596//655 595//656 593//657 594//658
f 429//469 430//468 596//655 594//658
f 597//659 414//452 595//656 596//655
f 430//468 432//471 597//659 596//655
f 316//369 69//74 414//452 597//659
f 432//471 350//370 316//369 597//659
f 432//471 433//470 97//104 350//370
f 417//455 598//660 593//657 595//656
f 414//452 415//451 417//455 595//656
f 590//651 591//650 593//654 598//661
f 600//662 599//663 590//651 598//661
f 417//455 418//454 600//664 598//660
f 602//665 601//666 599//663 600//662
f 418//454 419//457 602//667 600//664
f 578//668 603//669 601//666 602//665
f 419//457 576//633 578//635 602//667
f 605//670 604//671 601//666 603//669
f 581//638 606//672 605//670 603//669
f 578//668 579//639 581//638 603//669
f 290//385 351//384 605//670 606//672
f 584//642 348//386 290//385 606//672
f 581//638 582//643 584//642 606//672
f 352//387 604//671 605//670 351//384
f 352//387 349//354 587//648 604//671
f 587//648 599//663 601//666 604//671
f 587//648 588//647 590//651 599//663
f 584//642 585//641 346//350 348//386
f 419//457 420//456 421//458 576//633
f 527//576 529//578 545//602 549//601
f 471//511 326//172 332//209 495//541
f 361//390 362//389 468//507 469//510
f 450//490 452//492 457//496 459//499
f 452//492 453//491 323//138 325//144
f 405//442 382//410 383//415 456//495
f 455//494 404//443 405//442 456//495
f 435//473 354//398 370//401 436//474
f 381//411 382//410 405//442 406//441
