# pilowlava3D glyph 'a' variant 4 — Vincent Wagner / Velvetyne, Free Art License
v 1.77952 1.90752 -0.35876
v 1.71741 2.88709 -0.53132
v 3.95979 2.09624 -0.43284
v 0.19084 0.51335 -0.41076
v 3.98541 1.78185 -0.43444
v 3.61740 0.20412 -0.41982
v 0.39967 0.20082 -0.41055
v 1.04589 2.72509 -0.25354
v 1.83283 2.00789 -0.29146
v 3.27192 0.42131 -0.23805
v 3.35168 0.58711 -0.29848
v 3.48870 0.36868 -0.44039
v 3.34910 0.21744 -0.28488
v 1.78764 1.78935 -0.30381
v 1.58087 1.67271 -0.34110
v 1.52693 1.74112 -0.39170
v 1.43453 1.82867 -0.35709
v 1.65259 2.02230 -0.33618
v 1.98640 1.90161 -0.28213
v 2.01057 1.78758 -0.28947
v 1.52199 2.73746 -0.46820
v 1.25023 2.86595 -0.46197
v 1.36812 3.12338 -0.51187
v 1.83883 3.13651 -0.55356
v 2.13261 3.01931 -0.32741
v 2.07158 2.82959 -0.31329
v 1.85249 2.62459 -0.39540
v 1.73256 2.57808 -0.37175
v 1.53531 3.33501 -0.52836
v 3.68238 1.83141 -0.42003
v 3.66900 2.02136 -0.41477
v 4.27051 2.06551 -0.42379
v 4.27507 1.82769 -0.42021
v 3.61249 2.19173 -0.25028
v 3.79767 2.27450 -0.24263
v 4.05467 2.35451 -0.42110
v 4.28141 2.32905 -0.41822
v 0.27680 0.34145 -0.44338
v 0.13147 0.24689 -0.26059
v 0.05910 0.51296 -0.25882
v 0.28087 0.64587 -0.44737
v 0.45325 0.45436 -0.53424
v 0.12856 0.74627 -0.25320
v 4.30667 1.55473 -0.40056
v 4.13147 1.53083 -0.40600
v 3.87284 1.61201 -0.24583
v 3.65765 1.67702 -0.25328
v 4.01073 1.48815 -0.23931
v 3.82853 0.29001 -0.46517
v 3.94677 0.10807 -0.28055
v 3.61396 0.05765 -0.27059
v 0.60391 0.24104 -0.45882
v 0.68417 0.07211 -0.26513
v 0.37020 0.07889 -0.25419
v 1.21627 2.54745 -0.00000
v 1.02477 2.98042 -0.30908
v 1.22816 2.62104 -0.29192
v 1.88919 2.01931 -0.16669
v 2.01836 1.93951 -0.16652
v 1.76312 2.20644 -0.30299
v 1.85155 2.17558 -0.29278
v 1.89888 2.16477 -0.18123
v 1.97224 2.38503 -0.20938
v 1.91601 2.16096 -0.00000
v 1.90336 2.01917 -0.00000
v 1.90021 2.39060 -0.32482
v 2.03613 2.62460 -0.25897
v 1.79738 2.39401 -0.31468
v 1.70602 2.23244 -0.19150
v 1.73574 2.38935 -0.20095
v 1.64481 2.50853 -0.22823
v 1.45779 2.57328 -0.27769
v 1.44646 2.51686 -0.00000
v 1.52984 2.07521 -0.00000
v 1.32825 1.91270 -0.00000
v 1.55824 2.05937 -0.19966
v 1.36016 1.88798 -0.20860
v 1.23794 1.64861 -0.38112
v 1.15715 1.71542 -0.21711
v 1.12148 1.75121 -0.00000
v 0.96514 1.54781 -0.22935
v 0.92375 1.59712 -0.00000
v 1.63378 1.58656 -0.00000
v 1.79405 1.71101 -0.00000
v 2.00972 1.71811 -0.00000
v 2.24832 1.70665 -0.00000
v 2.48788 1.69412 -0.00000
v 2.00986 1.73755 -0.17061
v 2.24692 1.72713 -0.17001
v 2.48310 1.71973 -0.18450
v 2.24106 1.77930 -0.29541
v 2.47165 1.78901 -0.32597
v 2.70580 1.79919 -0.35119
v 2.71836 1.71339 -0.19992
v 2.72206 1.68219 -0.00000
v 2.95316 1.71002 -0.21733
v 2.95555 1.67040 -0.00000
v 2.02240 1.95023 -0.00000
v 2.23878 1.94363 -0.16760
v 2.46673 1.97808 -0.18203
v 2.46381 1.91072 -0.32192
v 2.23674 1.88741 -0.29153
v 2.69560 2.01876 -0.19813
v 2.69608 1.93435 -0.34661
v 2.92580 2.05788 -0.21558
v 2.93087 1.95917 -0.36644
v 2.94189 1.81392 -0.37168
v 3.16798 1.98288 -0.38519
v 3.18013 1.82509 -0.38684
v 3.18749 1.70881 -0.23496
v 3.42099 1.83269 -0.40475
v 3.42243 1.70186 -0.24599
v 3.15653 2.09894 -0.23432
v 3.38885 2.14235 -0.24645
v 3.40989 2.00227 -0.40285
v 3.58539 2.24941 -0.00000
v 3.76321 2.31588 -0.00000
v 3.85358 2.42239 -0.00000
v 3.89128 2.40678 -0.23859
v 3.84918 2.58912 -0.00000
v 4.49761 3.12754 -0.00000
v 4.49495 3.39586 -0.00000
v 4.45574 3.68865 -0.00000
v 4.42124 3.12226 -0.25414
v 4.41953 3.38457 -0.26774
v 4.38334 3.66541 -0.27315
v 4.22080 3.35108 -0.46598
v 4.18236 3.60624 -0.46975
v 4.09746 3.85482 -0.46699
v 4.28664 3.95189 -0.27520
v 4.35006 3.98507 -0.00000
v 4.09983 4.20627 -0.26944
v 4.15075 4.24775 -0.00000
v 3.72923 2.99777 -0.00000
v 3.79250 2.79063 -0.00000
v 3.80444 3.01854 -0.26696
v 3.85922 2.80056 -0.25902
v 3.90173 2.59032 -0.24921
v 4.03260 2.82665 -0.43936
v 4.06750 2.59161 -0.42836
v 4.26494 2.85326 -0.43151
v 4.28377 2.59764 -0.42041
v 4.42855 2.86533 -0.24438
v 4.43522 2.60268 -0.23744
v 4.43401 2.33360 -0.23638
v 4.43497 2.07053 -0.23967
v 4.49893 2.33462 -0.00000
v 4.50120 1.82157 -0.00000
v 4.43770 1.82787 -0.23934
v 4.50178 1.54184 -0.00000
v 4.44296 1.24255 -0.23477
v 4.44275 1.54769 -0.23286
v 4.31456 1.26921 -0.40164
v 4.27634 0.98314 -0.43338
v 4.09612 1.06193 -0.45091
v 4.15716 1.29720 -0.41156
v 4.42296 0.93091 -0.25047
v 4.36580 0.61719 -0.26828
v 4.19057 0.70327 -0.46234
v 4.42887 0.58863 -0.00000
v 4.28026 0.26737 -0.00000
v 4.21994 0.31700 -0.28601
v 3.98155 0.04984 -0.00000
v 3.61816 0.00000 -0.00000
v 3.31241 0.15281 -0.00000
v 3.27944 0.65105 -0.00000
v 3.49180 0.74910 -0.31797
v 3.58325 0.96857 -0.00000
v 3.88496 1.19248 -0.00000
v 3.74159 1.07382 -0.00000
v 3.97070 1.47125 -0.00000
v 3.98069 1.33239 -0.00000
v 4.02521 1.32058 -0.24962
v 3.94355 1.14775 -0.27494
v 3.80966 0.99895 -0.29506
v 3.97604 0.84450 -0.48193
v 3.82585 0.67672 -0.50227
v 3.65445 0.87621 -0.31068
v 4.04407 0.46327 -0.47728
v 3.65818 0.52666 -0.49559
v 3.84187 1.56680 -0.00000
v 3.64119 1.62035 -0.00000
v 4.24283 3.10071 -0.45040
v 3.98886 3.06001 -0.45788
v 3.94722 3.29284 -0.47230
v 3.75054 3.23203 -0.27101
v 3.69305 3.43514 -0.27593
v 3.89945 3.51524 -0.47696
v 3.62723 3.62614 -0.27660
v 3.82895 3.72370 -0.47090
v 3.55700 3.80747 -0.27019
v 3.72937 3.91381 -0.45714
v 3.95022 4.07911 -0.45207
v 3.59705 4.09288 -0.43249
v 3.73844 4.24959 -0.42406
v 3.83615 4.38130 -0.25260
v 3.47935 4.36580 -0.38203
v 3.53890 4.46989 -0.22842
v 3.56273 4.50883 -0.00000
v 3.87358 4.42485 -0.00000
v 3.46515 3.97750 -0.25808
v 3.31862 4.08254 -0.00000
v 3.34634 4.11928 -0.23275
v 3.40978 4.23926 -0.38483
v 3.18447 4.21255 -0.20547
v 3.19792 4.30511 -0.33301
v 3.21592 4.41591 -0.33423
v 2.98354 4.28635 -0.32584
v 2.95927 4.38536 -0.32147
v 2.94178 4.45257 -0.20393
v 3.23487 4.49098 -0.20805
v 2.99649 4.20670 -0.20041
v 2.83915 4.07097 -0.00000
v 2.82734 4.10218 -0.21996
v 2.78330 4.18698 -0.35887
v 2.68274 3.94625 -0.24680
v 2.60337 4.04293 -0.39747
v 2.50626 4.16426 -0.39213
v 2.72245 4.29147 -0.35121
v 2.43432 4.25438 -0.23688
v 2.67638 4.36581 -0.21671
v 2.71908 3.90311 -0.00000
v 2.55894 3.76537 -0.26691
v 1.25815 3.58116 -0.00000
v 1.06129 3.33316 -0.00000
v 1.54638 3.70080 -0.30485
v 1.33911 3.50823 -0.31147
v 1.15099 3.27328 -0.31065
v 0.93270 3.01683 -0.00000
v 1.71739 3.52722 -0.51972
v 1.90907 3.70186 -0.49655
v 2.13197 3.51301 -0.51134
v 1.97665 3.32986 -0.53597
v 1.76505 3.85555 -0.28581
v 1.97982 4.00248 -0.27305
v 2.10169 3.86649 -0.46405
v 2.20424 4.13128 -0.25552
v 2.29951 4.01988 -0.43026
v 2.43971 3.87217 -0.43912
v 2.28496 3.69535 -0.47394
v 2.44291 3.57526 -0.28372
v 2.32882 3.38808 -0.30038
v 2.34111 3.15297 -0.00000
v 2.22090 3.20480 -0.31693
v 2.26060 2.97454 -0.00000
v 2.18316 2.79742 -0.00000
v 1.79400 1.72906 -0.17771
v 1.62072 1.61094 -0.19231
v 1.51214 1.41735 -0.21170
v 1.43557 1.48228 -0.37444
v 1.42366 1.19646 -0.22865
v 1.31814 1.26547 -0.40551
v 1.18756 1.36450 -0.47449
v 1.34091 1.56158 -0.43180
v 1.06076 1.46350 -0.40917
v 1.04012 1.15212 -0.51594
v 0.88550 1.28055 -0.43387
v 0.78658 1.38738 -0.23692
v 0.71452 1.11070 -0.45384
v 0.60266 1.24151 -0.24583
v 0.55408 1.31076 -0.00000
v 1.33705 0.69472 -0.00000
v 1.41169 0.94279 -0.00000
v 1.48062 1.17149 -0.00000
v 1.34388 0.97035 -0.24025
v 1.26478 0.72932 -0.24718
v 1.11022 0.80297 -0.45331
v 1.20733 1.03945 -0.43571
v 0.89887 0.94228 -0.54219
v 1.00467 0.57255 -0.47470
v 0.76691 0.75125 -0.55895
v 0.55380 0.95515 -0.47221
v 0.62585 0.59058 -0.56408
v 0.41200 0.80140 -0.47019
v 0.25892 0.93988 -0.25693
v 0.41980 1.10597 -0.25708
v 0.19789 0.99111 -0.00000
v 0.36603 1.16792 -0.00000
v 0.98547 0.19580 -0.28354
v 1.18050 0.44929 -0.26892
v 0.83731 0.36975 -0.48651
v 1.00052 2.70179 -0.00000
v 2.00289 2.37528 -0.00000
v 1.71651 2.38730 -0.00000
v 1.62132 2.48465 -0.00000
v 1.68740 2.24393 -0.00000
v 1.54883 1.38735 -0.00000
v 2.23980 1.96455 -0.00000
v 2.46932 2.00719 -0.00000
v 3.41817 1.64577 -0.00000
v 3.18859 1.65900 -0.00000
v 2.92153 2.10183 -0.00000
v 2.69502 2.05455 -0.00000
v 3.14893 2.15172 -0.00000
v 3.37411 2.20025 -0.00000
v 4.49963 2.60231 -0.00000
v 4.50069 2.07424 -0.00000
v 4.50222 1.23307 -0.00000
v 4.48600 0.91459 -0.00000
v 3.22476 0.42718 -0.00000
v 3.41665 0.83659 -0.00000
v 4.49842 2.86699 -0.00000
v 3.53715 3.58853 -0.00000
v 3.60159 3.39998 -0.00000
v 3.66549 3.20276 -0.00000
v 3.47825 3.76835 -0.00000
v 3.41017 3.93298 -0.00000
v 2.93822 4.47945 -0.00000
v 3.24402 4.52137 -0.00000
v 2.99677 4.18610 -0.00000
v 3.17925 4.18784 -0.00000
v 2.40120 4.29948 -0.00000
v 2.65579 4.39855 -0.00000
v 2.62243 3.71877 -0.00000
v 1.47965 3.77921 -0.00000
v 1.70775 3.93310 -0.00000
v 1.93375 4.07127 -0.00000
v 2.16460 4.19021 -0.00000
v 2.52583 3.52654 -0.00000
v 2.43082 3.33766 -0.00000
v 2.10228 2.60197 -0.00000
v 0.73853 1.44972 -0.00000
v 1.03208 0.13380 -0.00000
v 1.24532 0.40239 -0.00000
v 0.70267 0.01234 -0.00000
v 0.35932 0.02959 -0.00000
v 0.09223 0.21336 -0.00000
v 0.00000 0.49950 -0.00000
v 0.06581 0.77399 -0.00000
v 1.77952 1.90752 0.35876
v 1.71741 2.88709 0.53132
v 3.95979 2.09624 0.43284
v 0.19084 0.51335 0.41076
v 3.98541 1.78185 0.43444
v 3.61740 0.20412 0.41982
v 0.39967 0.20082 0.41055
v 1.04589 2.72509 0.25354
v 1.83283 2.00789 0.29146
v 3.27192 0.42131 0.23805
v 3.35168 0.58711 0.29848
v 3.48870 0.36868 0.44039
v 3.34910 0.21744 0.28488
v 1.78764 1.78935 0.30381
v 1.58087 1.67271 0.34110
v 1.52693 1.74112 0.39170
v 1.43453 1.82867 0.35709
v 1.65259 2.02230 0.33618
v 1.98640 1.90161 0.28213
v 2.01057 1.78758 0.28947
v 1.52199 2.73746 0.46820
v 1.25023 2.86595 0.46197
v 1.36812 3.12338 0.51187
v 1.83883 3.13651 0.55356
v 2.13261 3.01931 0.32741
v 2.07158 2.82959 0.31329
v 1.85249 2.62459 0.39540
v 1.73256 2.57808 0.37175
v 1.53531 3.33501 0.52836
v 3.68238 1.83141 0.42003
v 3.66900 2.02136 0.41477
v 4.27051 2.06551 0.42379
v 4.27507 1.82769 0.42021
v 3.61249 2.19173 0.25028
v 3.79767 2.27450 0.24263
v 4.05467 2.35451 0.42110
v 4.28141 2.32905 0.41822
v 0.27680 0.34145 0.44338
v 0.13147 0.24689 0.26059
v 0.05910 0.51296 0.25882
v 0.28087 0.64587 0.44737
v 0.45325 0.45436 0.53424
v 0.12856 0.74627 0.25320
v 4.30667 1.55473 0.40056
v 4.13147 1.53083 0.40600
v 3.87284 1.61201 0.24583
v 3.65765 1.67702 0.25328
v 4.01073 1.48815 0.23931
v 3.82853 0.29001 0.46517
v 3.94677 0.10807 0.28055
v 3.61396 0.05765 0.27059
v 0.60391 0.24104 0.45882
v 0.68417 0.07211 0.26513
v 0.37020 0.07889 0.25419
v 1.02477 2.98042 0.30908
v 1.22816 2.62104 0.29192
v 1.88919 2.01931 0.16669
v 2.01836 1.93951 0.16652
v 1.76312 2.20644 0.30299
v 1.85155 2.17558 0.29278
v 1.89888 2.16477 0.18123
v 1.97224 2.38503 0.20938
v 1.90021 2.39060 0.32482
v 2.03613 2.62460 0.25897
v 1.79738 2.39401 0.31468
v 1.70602 2.23244 0.19150
v 1.73574 2.38935 0.20095
v 1.64481 2.50853 0.22823
v 1.45779 2.57328 0.27769
v 1.55824 2.05937 0.19966
v 1.36016 1.88798 0.20860
v 1.23794 1.64861 0.38112
v 1.15715 1.71542 0.21711
v 0.96514 1.54781 0.22935
v 2.00986 1.73755 0.17061
v 2.24692 1.72713 0.17001
v 2.48310 1.71973 0.18450
v 2.24106 1.77930 0.29541
v 2.47165 1.78901 0.32597
v 2.70580 1.79919 0.35119
v 2.71836 1.71339 0.19992
v 2.95316 1.71002 0.21733
v 2.23878 1.94363 0.16760
v 2.46673 1.97808 0.18203
v 2.46381 1.91072 0.32192
v 2.23674 1.88741 0.29153
v 2.69560 2.01876 0.19813
v 2.69608 1.93435 0.34661
v 2.92580 2.05788 0.21558
v 2.93087 1.95917 0.36644
v 2.94189 1.81392 0.37168
v 3.16798 1.98288 0.38519
v 3.18013 1.82509 0.38684
v 3.18749 1.70881 0.23496
v 3.42099 1.83269 0.40475
v 3.42243 1.70186 0.24599
v 3.15653 2.09894 0.23432
v 3.38885 2.14235 0.24645
v 3.40989 2.00227 0.40285
v 3.89128 2.40678 0.23859
v 4.42124 3.12226 0.25414
v 4.41953 3.38457 0.26774
v 4.38334 3.66541 0.27315
v 4.22080 3.35108 0.46598
v 4.18236 3.60624 0.46975
v 4.09746 3.85482 0.46699
v 4.28664 3.95189 0.27520
v 4.09983 4.20627 0.26944
v 3.80444 3.01854 0.26696
v 3.85922 2.80056 0.25902
v 3.90173 2.59032 0.24921
v 4.03260 2.82665 0.43936
v 4.06750 2.59161 0.42836
v 4.26494 2.85326 0.43151
v 4.28377 2.59764 0.42041
v 4.42855 2.86533 0.24438
v 4.43522 2.60268 0.23744
v 4.43401 2.33360 0.23638
v 4.43497 2.07053 0.23967
v 4.43770 1.82787 0.23934
v 4.44296 1.24255 0.23477
v 4.44275 1.54769 0.23286
v 4.31456 1.26921 0.40164
v 4.27634 0.98314 0.43338
v 4.09612 1.06193 0.45091
v 4.15716 1.29720 0.41156
v 4.42296 0.93091 0.25047
v 4.36580 0.61719 0.26828
v 4.19057 0.70327 0.46234
v 4.21994 0.31700 0.28601
v 3.49180 0.74910 0.31797
v 4.02521 1.32058 0.24962
v 3.94355 1.14775 0.27494
v 3.80966 0.99895 0.29506
v 3.97604 0.84450 0.48193
v 3.82585 0.67672 0.50227
v 3.65445 0.87621 0.31068
v 4.04407 0.46327 0.47728
v 3.65818 0.52666 0.49559
v 4.24283 3.10071 0.45040
v 3.98886 3.06001 0.45788
v 3.94722 3.29284 0.47230
v 3.75054 3.23203 0.27101
v 3.69305 3.43514 0.27593
v 3.89945 3.51524 0.47696
v 3.62723 3.62614 0.27660
v 3.82895 3.72370 0.47090
v 3.55700 3.80747 0.27019
v 3.72937 3.91381 0.45714
v 3.95022 4.07911 0.45207
v 3.59705 4.09288 0.43249
v 3.73844 4.24959 0.42406
v 3.83615 4.38130 0.25260
v 3.47935 4.36580 0.38203
v 3.53890 4.46989 0.22842
v 3.46515 3.97750 0.25808
v 3.34634 4.11928 0.23275
v 3.40978 4.23926 0.38483
v 3.18447 4.21255 0.20547
v 3.19792 4.30511 0.33301
v 3.21592 4.41591 0.33423
v 2.98354 4.28635 0.32584
v 2.95927 4.38536 0.32147
v 2.94178 4.45257 0.20393
v 3.23487 4.49098 0.20805
v 2.99649 4.20670 0.20041
v 2.82734 4.10218 0.21996
v 2.78330 4.18698 0.35887
v 2.68274 3.94625 0.24680
v 2.60337 4.04293 0.39747
v 2.50626 4.16426 0.39213
v 2.72245 4.29147 0.35121
v 2.43432 4.25438 0.23688
v 2.67638 4.36581 0.21671
v 2.55894 3.76537 0.26691
v 1.54638 3.70080 0.30485
v 1.33911 3.50823 0.31147
v 1.15099 3.27328 0.31065
v 1.71739 3.52722 0.51972
v 1.90907 3.70186 0.49655
v 2.13197 3.51301 0.51134
v 1.97665 3.32986 0.53597
v 1.76505 3.85555 0.28581
v 1.97982 4.00248 0.27305
v 2.10169 3.86649 0.46405
v 2.20424 4.13128 0.25552
v 2.29951 4.01988 0.43026
v 2.43971 3.87217 0.43912
v 2.28496 3.69535 0.47394
v 2.44291 3.57526 0.28372
v 2.32882 3.38808 0.30038
v 2.22090 3.20480 0.31693
v 1.79400 1.72906 0.17771
v 1.62072 1.61094 0.19231
v 1.51214 1.41735 0.21170
v 1.43557 1.48228 0.37444
v 1.42366 1.19646 0.22865
v 1.31814 1.26547 0.40551
v 1.18756 1.36450 0.47449
v 1.34091 1.56158 0.43180
v 1.06076 1.46350 0.40917
v 1.04012 1.15212 0.51594
v 0.88550 1.28055 0.43387
v 0.78658 1.38738 0.23692
v 0.71452 1.11070 0.45384
v 0.60266 1.24151 0.24583
v 1.34388 0.97035 0.24025
v 1.26478 0.72932 0.24718
v 1.11022 0.80297 0.45331
v 1.20733 1.03945 0.43571
v 0.89887 0.94228 0.54219
v 1.00467 0.57255 0.47470
v 0.76691 0.75125 0.55895
v 0.55380 0.95515 0.47221
v 0.62585 0.59058 0.56408
v 0.41200 0.80140 0.47019
v 0.25892 0.93988 0.25693
v 0.41980 1.10597 0.25708
v 0.98547 0.19580 0.28354
v 1.18050 0.44929 0.26892
v 0.83731 0.36975 0.48651
vn -0.90545 -0.01723 -0.42410
vn -0.75745 0.29913 -0.58034
vn -0.46243 -0.14146 -0.87530
vn -0.58436 -0.53253 -0.61231
vn 0.20613 0.02495 -0.97821
vn 0.30721 -0.60464 -0.73487
vn 0.55115 -0.46824 -0.69064
vn 0.39575 -0.29196 -0.87071
vn -0.09837 0.26488 -0.95925
vn -0.33998 0.49335 -0.80064
vn 0.14131 0.22041 -0.96512
vn 0.23355 0.47466 -0.84862
vn 0.08374 -0.05646 -0.99489
vn 0.17912 -0.24828 -0.95199
vn -0.12606 -0.53538 -0.83515
vn -0.36691 -0.25724 -0.89399
vn -0.33484 0.08870 -0.93809
vn 0.25010 -0.12583 -0.96001
vn 0.71723 -0.32501 -0.61640
vn 0.73681 -0.30158 -0.60512
vn 0.32674 -0.31700 -0.89037
vn -0.24781 -0.55237 -0.79592
vn -0.27682 0.23723 -0.93118
vn 0.00385 0.01202 -0.99992
vn 0.01283 -0.02108 -0.99970
vn -0.05257 0.01407 -0.99852
vn 0.03215 0.01187 -0.99941
vn 0.04562 -0.03774 -0.99825
vn -0.42874 0.50217 -0.75101
vn -0.17559 0.66302 -0.72771
vn -0.24405 0.82986 -0.50176
vn -0.53570 0.67352 -0.50932
vn 0.02421 0.00329 -0.99970
vn -0.64158 0.01620 -0.76688
vn -0.47257 -0.32725 -0.81828
vn -0.72920 -0.51785 -0.44733
vn -0.88581 0.00801 -0.46397
vn -0.52429 0.20865 -0.82559
vn -0.21225 -0.14305 -0.96669
vn -0.79465 0.37420 -0.47803
vn 0.04816 -0.02803 -0.99845
vn -0.37335 -0.62750 -0.68326
vn -0.42770 -0.77760 -0.46089
vn -0.15916 -0.87081 -0.46515
vn -0.12037 -0.72528 -0.67785
vn -0.69928 -0.29963 -0.64902
vn -0.80926 -0.38792 -0.44116
vn -0.16689 -0.52047 -0.83741
vn 0.10778 -0.40481 -0.90803
vn 0.32337 -0.79370 -0.51524
vn -0.18653 -0.84535 -0.50058
vn -0.22980 -0.62097 -0.74940
vn 0.03331 -0.55072 -0.83403
vn 0.14234 -0.87115 -0.46994
vn -0.29291 -0.84991 -0.43802
vn -0.49643 -0.31948 -0.80714
vn -0.80009 0.01229 -0.59976
vn -0.38007 -0.75055 -0.54057
vn -0.54175 -0.81728 -0.19637
vn -0.36686 -0.93028 0.00169
vn -0.55506 -0.83181 0.00317
vn 0.36814 0.44452 -0.81663
vn 0.52205 0.82710 -0.20826
vn 0.26337 0.93695 -0.22971
vn 0.09328 -0.03693 -0.99495
vn 0.91114 -0.10259 -0.39911
vn 0.87912 -0.20214 -0.43161
vn 0.93791 -0.21283 -0.27393
vn 0.96430 -0.09354 -0.24773
vn 0.87954 -0.29300 -0.37491
vn 0.93608 -0.35177 -0.00007
vn 0.97561 -0.21950 -0.00001
vn 0.99662 -0.08213 0.00006
vn 0.79080 -0.22804 -0.56801
vn 0.80961 -0.27014 -0.52110
vn -0.04570 -0.20778 -0.97711
vn -0.82298 -0.19269 -0.53439
vn -0.78704 0.34147 -0.51378
vn -0.85682 0.39982 -0.32559
vn -0.91155 -0.23251 -0.33915
vn -0.49875 -0.77919 -0.37962
vn -0.20192 -0.86932 -0.45111
vn -0.74964 -0.66185 0.00173
vn -0.51692 -0.85603 -0.00034
vn -0.19804 -0.98019 -0.00115
vn -0.69352 0.72043 0.00014
vn -0.89582 0.44442 -0.00010
vn -0.65693 0.66761 -0.35035
vn -0.58936 0.71982 -0.36676
vn -0.63399 0.77334 -0.00002
vn -0.60037 0.59474 -0.53464
vn -0.36933 0.50963 -0.77709
vn -0.58507 0.71083 -0.39040
vn -0.63037 0.77630 0.00001
vn -0.58414 0.69097 -0.42585
vn -0.63687 0.77097 0.00018
vn -0.04576 -0.99895 -0.00002
vn -0.00395 -0.99999 0.00001
vn -0.00359 -0.96626 -0.25753
vn -0.04188 -0.96406 -0.26236
vn -0.03950 -0.95610 -0.29037
vn -0.04472 -0.99900 -0.00004
vn -0.03734 -0.91688 -0.39742
vn -0.03373 -0.89869 -0.43729
vn -0.02841 -0.86851 -0.49485
vn -0.03518 -0.94315 -0.33050
vn -0.04118 -0.99915 0.00001
vn -0.03038 -0.92675 -0.37444
vn -0.03654 -0.99933 0.00005
vn 0.24623 0.96921 -0.00022
vn -0.10646 0.99432 0.00013
vn -0.08984 0.96222 -0.25702
vn 0.51343 0.85813 -0.00061
vn -0.18310 0.98310 -0.00001
vn -0.17135 0.93940 -0.29694
vn -0.15828 0.88556 -0.43673
vn -0.07222 0.91650 -0.39346
vn -0.08190 0.03715 -0.99595
vn -0.12113 0.02667 -0.99228
vn -0.17772 0.92493 -0.33604
vn -0.15907 0.85860 -0.48734
vn -0.09794 0.02718 -0.99482
vn -0.17888 0.90749 -0.38009
vn -0.15671 0.82186 -0.54772
vn -0.07987 0.02301 -0.99654
vn -0.07296 0.01161 -0.99727
vn -0.02301 -0.83221 -0.55398
vn -0.03033 -0.79803 -0.60185
vn -0.03649 -0.91006 -0.41287
vn -0.05482 -0.76678 -0.63957
vn -0.06863 -0.89453 -0.44171
vn -0.08069 -0.99674 -0.00005
vn -0.04156 -0.99914 -0.00002
vn -0.19442 0.98092 0.00000
vn -0.19810 0.98018 0.00007
vn -0.20316 0.97915 -0.00002
vn -0.17813 0.88771 -0.42454
vn -0.21310 0.97703 -0.00009
vn -0.17517 0.86607 -0.46822
vn -0.13213 0.72729 -0.67349
vn -0.14952 0.77836 -0.60975
vn -0.06311 0.01069 -0.99795
vn -0.30023 0.95387 -0.00040
vn -0.60343 0.79742 -0.00133
vn -0.94415 0.32953 -0.00031
vn -0.83915 0.26398 -0.47555
vn 0.99793 0.06438 0.00001
vn 0.99999 0.00544 -0.00002
vn 0.87048 0.00295 -0.49220
vn 0.86100 0.05256 -0.50588
vn 0.83433 0.19357 -0.51615
vn 0.97351 0.22865 -0.00005
vn 0.70817 0.03999 -0.70490
vn 0.66820 0.15234 -0.72822
vn 0.59537 0.31618 -0.73862
vn 0.75537 0.40139 -0.51798
vn 0.88296 0.46944 -0.00003
vn 0.58500 0.63716 -0.50180
vn 0.68075 0.73251 0.00009
vn -0.96662 -0.25622 -0.00003
vn -0.96196 -0.27321 0.00026
vn -0.82996 -0.23030 -0.50806
vn -0.84706 -0.21855 -0.48449
vn -0.88232 -0.09660 -0.46063
vn -0.99333 -0.11530 0.00046
vn -0.70139 -0.17457 -0.69107
vn -0.72827 -0.07333 -0.68136
vn -0.68341 0.18497 -0.70622
vn 0.03141 -0.03063 -0.99904
vn 0.03976 -0.05634 -0.99762
vn 0.76486 0.00319 -0.64418
vn 0.75377 0.01045 -0.65706
vn 0.87862 0.01067 -0.47740
vn 0.88489 0.00338 -0.46578
vn 0.88438 -0.00237 -0.46677
vn 0.76218 -0.00598 -0.64733
vn 0.88049 0.00406 -0.47405
vn 0.75038 0.00145 -0.66101
vn 0.99999 0.00360 -0.00001
vn 1.00000 0.00140 0.00000
vn 0.99998 0.00668 0.00004
vn 0.99998 0.00675 0.00004
vn 0.88291 0.00964 -0.46944
vn 0.99999 0.00445 0.00000
vn 0.99970 -0.02462 0.00000
vn 0.89654 -0.01564 -0.44269
vn 0.89204 0.01065 -0.45183
vn 0.78464 -0.00673 -0.61991
vn 0.77299 0.01652 -0.63420
vn 0.75248 0.01227 -0.65850
vn 0.08056 0.06435 -0.99467
vn 0.12233 0.08898 -0.98849
vn 0.88385 -0.09348 -0.45833
vn 0.75939 -0.07547 -0.64625
vn 0.82908 -0.25667 -0.49674
vn 0.42165 -0.08957 -0.90233
vn 0.99391 -0.11020 -0.00004
vn 0.95454 -0.29809 -0.00008
vn 0.77505 -0.63190 -0.00025
vn 0.65559 -0.53513 -0.53277
vn 0.37893 -0.92543 -0.00011
vn -0.17800 -0.98403 -0.00099
vn -0.47780 -0.87847 -0.00207
vn -0.95065 -0.31027 0.00076
vn -0.99997 -0.00793 -0.00200
vn -0.93441 -0.30574 -0.18274
vn -0.88737 0.46104 -0.00261
vn -0.70777 0.70645 -0.00029
vn -0.57371 0.53815 -0.61746
vn -0.97380 0.22740 0.00127
vn -0.99728 -0.07366 -0.00011
vn -0.87432 0.19180 -0.44585
vn -0.69224 0.52279 -0.49749
vn -0.77948 0.62642 0.00062
vn -0.53802 0.63049 -0.55948
vn -0.63045 0.77623 -0.00052
vn -0.74050 0.14756 -0.65566
vn -0.58360 0.40397 -0.70443
vn -0.43673 0.47750 -0.76241
vn -0.15771 0.22393 -0.96176
vn -0.48349 0.63687 -0.60054
vn 0.11881 0.03780 -0.99220
vn 0.30157 -0.23857 -0.92312
vn -0.24597 0.10622 -0.96344
vn -0.59470 0.80395 0.00013
vn -0.63007 -0.77654 0.00220
vn -0.46014 -0.88785 0.00134
vn -0.19199 -0.98140 0.00021
vn 0.99994 0.01076 0.00001
vn 0.73514 0.00055 -0.67791
vn 0.03912 -0.06447 -0.99715
vn 0.03222 -0.03499 -0.99887
vn -0.67268 -0.17844 -0.71809
vn -0.68617 -0.18404 -0.70378
vn -0.81589 -0.23093 -0.53008
vn -0.79693 -0.25059 -0.54965
vn -0.64754 -0.19360 -0.73703
vn 0.01939 0.00551 -0.99980
vn -0.78602 -0.27637 -0.55298
vn -0.62916 -0.22486 -0.74404
vn -0.00302 0.04150 -0.99913
vn -0.77859 -0.33129 -0.53296
vn -0.62425 -0.28146 -0.72876
vn -0.03420 0.07922 -0.99627
vn -0.09056 0.11267 -0.98950
vn 0.46143 0.51132 -0.72500
vn 0.29045 0.68039 -0.67284
vn 0.35642 0.81424 -0.45823
vn 0.12433 0.79716 -0.59083
vn 0.14357 0.90752 -0.39470
vn 0.15791 0.98745 0.00008
vn 0.40743 0.91324 -0.00002
vn -0.95084 -0.30968 -0.00005
vn -0.94463 -0.32812 -0.00010
vn -0.95885 -0.28391 0.00007
vn -0.92634 -0.37668 -0.00069
vn -0.86702 -0.49828 0.00007
vn -0.74660 -0.44748 -0.49229
vn -0.70225 -0.71193 0.00140
vn -0.62161 -0.65158 -0.43480
vn -0.51121 -0.56409 -0.64843
vn -0.60518 -0.38456 -0.69705
vn -0.25095 -0.88832 -0.38459
vn -0.20374 -0.77169 -0.60249
vn -0.15832 0.09996 -0.98231
vn -0.11509 0.04515 -0.99233
vn 0.02771 0.05763 -0.99795
vn -0.03975 0.85150 -0.52284
vn -0.18657 0.83888 -0.51135
vn -0.20216 0.92075 -0.33368
vn -0.04178 0.93870 -0.34219
vn -0.21239 0.97719 -0.00028
vn -0.04283 0.99908 0.00009
vn -0.28387 -0.95886 0.00070
vn 0.30344 -0.95285 -0.00028
vn 0.28661 -0.89116 -0.35170
vn 0.67965 -0.73354 -0.00074
vn 0.62188 -0.69213 -0.36637
vn 0.54173 -0.62181 -0.56558
vn 0.25665 -0.78647 -0.56177
vn 0.73581 -0.52594 -0.42658
vn 0.62795 -0.47058 -0.61987
vn 0.10264 0.11547 -0.98799
vn 0.10268 0.13417 -0.98562
vn -0.28712 0.79015 -0.54151
vn -0.34073 0.73540 -0.58573
vn -0.37818 0.82887 -0.41226
vn -0.31572 0.87574 -0.36524
vn -0.41055 0.91184 0.00015
vn -0.33684 0.94156 -0.00013
vn 0.82426 -0.56621 0.00004
vn 0.87154 -0.49033 0.00078
vn 0.75679 -0.43810 -0.48511
vn -0.72882 0.68470 0.00007
vn -0.61615 0.78763 0.00005
vn -0.51545 0.65695 -0.55022
vn -0.60398 0.55616 -0.57087
vn -0.70443 0.39159 -0.59198
vn -0.86089 0.50879 -0.00014
vn -0.99419 0.10762 0.00193
vn -0.96145 -0.16246 -0.22188
vn -0.98514 -0.17172 0.00397
vn -0.21692 0.32849 -0.91926
vn -0.18268 0.38061 -0.90651
vn 0.04365 0.12370 -0.99136
vn 0.00394 0.09547 -0.99542
vn -0.46610 0.71230 -0.52477
vn -0.43870 0.74920 -0.49623
vn -0.37414 0.63449 -0.67634
vn -0.54770 0.83668 -0.00007
vn -0.50327 0.86413 -0.00006
vn -0.45346 0.89127 0.00004
vn -0.40699 0.79017 -0.45825
vn -0.35841 0.68492 -0.63437
vn 0.08451 0.13297 -0.98751
vn 0.06697 0.13368 -0.98876
vn 0.61177 -0.34255 -0.71302
vn 0.63436 -0.38269 -0.67167
vn 0.74376 -0.40673 -0.53047
vn 0.72671 -0.39031 -0.56529
vn 0.58366 -0.32191 -0.74546
vn 0.88044 -0.47415 0.00036
vn 0.88467 -0.46622 0.00005
vn 0.83455 -0.40379 -0.37482
vn 0.71877 -0.35781 -0.59610
vn 0.55660 -0.28873 -0.77899
vn 0.85489 -0.36037 -0.37322
vn 0.93962 -0.34222 0.00008
vn 0.94242 -0.33444 0.00021
vn -0.00323 -0.91751 -0.39771
vn 0.31112 -0.90978 -0.27478
vn 0.32923 -0.94425 -0.00030
vn 0.76834 -0.64004 -0.00077
vn 0.71848 -0.62816 -0.29866
vn 0.92388 -0.38269 -0.00088
vn 0.85328 -0.38164 -0.35534
vn 0.62849 -0.28202 -0.72489
vn 0.85722 -0.30210 -0.41703
vn 0.61265 -0.20127 -0.76430
vn 0.40928 -0.09922 -0.90700
vn 0.42655 -0.16470 -0.88934
vn -0.16197 0.32280 -0.93250
vn -0.20290 0.33323 -0.92075
vn -0.38689 0.49689 -0.77680
vn -0.21516 0.31184 -0.92545
vn -0.37913 0.47893 -0.79176
vn -0.56274 0.68690 -0.45988
vn -0.34889 0.45631 -0.81857
vn -0.52988 0.69507 -0.48590
vn -0.60008 0.79994 0.00008
vn -0.62456 0.78098 0.00006
vn 0.94859 -0.31650 -0.00039
vn 0.95393 -0.30004 0.00006
vn 0.84689 -0.27530 -0.45496
vn 0.95717 -0.28953 -0.00013
vn 0.83907 -0.25768 -0.47912
vn 0.54766 -0.16616 -0.82004
vn 0.58402 -0.17864 -0.79184
vn 0.06839 0.09477 -0.99315
vn 0.37644 -0.09091 -0.92197
vn 0.46462 -0.21983 -0.85779
vn 0.03361 0.05618 -0.99785
vn -0.35693 0.40070 -0.84383
vn -0.06048 -0.02523 -0.99785
vn -0.42449 0.31942 -0.84722
vn -0.67879 0.53457 -0.50346
vn -0.57277 0.64684 -0.50352
vn -0.78651 0.61757 -0.00044
vn -0.66015 0.75113 0.00005
vn 0.89042 -0.45515 0.00010
vn 0.59557 -0.80330 0.00003
vn 0.51116 -0.68219 -0.52282
vn 0.76935 -0.38431 -0.51030
vn 0.28174 -0.38889 -0.87714
vn 0.16081 -0.98699 0.00006
vn -0.31770 -0.94819 0.00020
vn -0.80972 -0.58682 -0.00068
vn -0.99992 -0.01237 -0.00167
vn -0.91502 0.40339 -0.00147
vn -0.98185 0.18965 -0.00032
vn -0.69886 -0.48774 0.52317
vn -0.45380 -0.13816 0.88033
vn -0.76404 0.30437 0.56885
vn -0.91183 -0.00921 0.41047
vn 0.40015 -0.29132 0.86891
vn 0.55029 -0.46839 0.69123
vn 0.31058 -0.60256 0.73516
vn 0.21417 0.03509 0.97617
vn 0.13995 0.22358 0.96459
vn -0.33751 0.49490 0.80073
vn -0.09376 0.26796 0.95886
vn 0.09239 -0.05252 0.99434
vn 0.23868 0.48406 0.84185
vn -0.33616 0.08584 0.93788
vn -0.38054 -0.26361 0.88640
vn -0.13101 -0.52326 0.84204
vn 0.17602 -0.24129 0.95436
vn 0.73467 -0.29622 0.61034
vn 0.71479 -0.32651 0.61844
vn 0.24703 -0.12681 0.96067
vn -0.25177 -0.55125 0.79545
vn 0.31827 -0.32231 0.89153
vn -0.27607 0.23640 0.93161
vn -0.12378 0.36173 0.92403
vn -0.05530 0.01393 0.99837
vn 0.01040 -0.02241 0.99969
vn -0.17382 0.21234 0.96161
vn 0.04439 -0.03959 0.99823
vn 0.03088 0.01336 0.99943
vn -0.53249 0.66997 0.51730
vn -0.24416 0.82998 0.50152
vn 0.02359 0.00486 0.99971
vn -0.88435 0.00575 0.46679
vn -0.72519 -0.51715 0.45460
vn -0.47113 -0.32670 0.81933
vn -0.64160 0.01341 0.76692
vn -0.21964 -0.14611 0.96458
vn -0.52704 0.20369 0.82507
vn -0.79511 0.37049 0.48014
vn 0.05028 -0.02924 0.99831
vn -0.11703 -0.72278 0.68110
vn -0.15761 -0.86993 0.46730
vn -0.42695 -0.77032 0.47362
vn -0.36852 -0.60913 0.70225
vn -0.80902 -0.37854 0.44966
vn -0.69587 -0.28168 0.66063
vn -0.17188 -0.84041 0.51397
vn 0.32107 -0.79317 0.51750
vn 0.10479 -0.40279 0.90927
vn -0.14554 -0.50975 0.84792
vn 0.02981 -0.55213 0.83323
vn -0.22679 -0.61897 0.75196
vn -0.28943 -0.84769 0.44458
vn 0.14146 -0.87056 0.47129
vn -0.39242 -0.74985 0.53266
vn -0.80869 0.00204 0.58823
vn -0.53598 -0.35552 0.76572
vn -0.54605 -0.81289 0.20259
vn 0.26329 0.93800 0.22545
vn 0.52304 0.82767 0.20347
vn 0.36679 0.44870 0.81494
vn 0.07796 -0.04921 0.99574
vn 0.96426 -0.09340 0.24797
vn 0.93817 -0.21251 0.27326
vn 0.88025 -0.20008 0.43027
vn 0.91097 -0.10286 0.39944
vn 0.87256 -0.31387 0.37434
vn 0.78095 -0.26160 0.56717
vn 0.80182 -0.28552 0.52494
vn -0.05433 -0.20980 0.97623
vn -0.94262 0.16406 0.29079
vn -0.85555 0.40245 0.32568
vn -0.78457 0.34628 0.51433
vn -0.87162 0.13325 0.47172
vn -0.49944 -0.77953 0.37801
vn -0.73103 -0.60329 0.31880
vn -0.68223 -0.52409 0.50980
vn -0.20513 -0.86283 0.46200
vn -0.65483 0.66948 0.35071
vn -0.58934 0.71974 0.36695
vn -0.59641 0.59838 0.53502
vn -0.58563 0.71030 0.39052
vn -0.36959 0.50913 0.77729
vn -0.58486 0.69030 0.42595
vn -0.04249 -0.96401 0.26245
vn -0.00396 -0.96621 0.25774
vn -0.03971 -0.95606 0.29046
vn -0.03412 -0.89855 0.43753
vn -0.03883 -0.91673 0.39763
vn -0.03405 -0.94314 0.33065
vn -0.02640 -0.86843 0.49511
vn -0.02948 -0.92677 0.37446
vn -0.09051 0.96262 0.25528
vn -0.17218 0.93928 0.29683
vn -0.07320 0.91794 0.38990
vn -0.15899 0.88553 0.43653
vn -0.08171 0.03668 0.99598
vn -0.12103 0.02666 0.99229
vn -0.16089 0.85850 0.48692
vn -0.17859 0.92484 0.33582
vn -0.09795 0.02718 0.99482
vn -0.15823 0.82190 0.54721
vn -0.17915 0.90753 0.37987
vn -0.08022 0.02298 0.99651
vn -0.07327 0.01159 0.99724
vn -0.03617 -0.91008 0.41284
vn -0.03009 -0.79805 0.60184
vn -0.02235 -0.83226 0.55394
vn -0.06775 -0.89421 0.44249
vn -0.05286 -0.76573 0.64099
vn -0.17759 0.88779 0.42460
vn -0.17585 0.86643 0.46732
vn -0.14873 0.77840 0.60989
vn -0.13331 0.72838 0.67208
vn -0.06341 0.01069 0.99793
vn -0.83697 0.25930 0.48191
vn 0.86081 0.05219 0.50624
vn 0.87042 0.00275 0.49230
vn 0.83439 0.19356 0.51606
vn 0.66830 0.15233 0.72813
vn 0.70764 0.03910 0.70550
vn 0.75540 0.40146 0.51788
vn 0.59547 0.31625 0.73851
vn 0.58531 0.63712 0.50148
vn -0.84682 -0.21847 0.48495
vn -0.82988 -0.22965 0.50848
vn -0.88212 -0.09628 0.46109
vn -0.72830 -0.07281 0.68138
vn -0.70076 -0.17395 0.69187
vn -0.67588 0.17357 0.71629
vn 0.03062 -0.03030 0.99907
vn 0.03977 -0.05635 0.99762
vn 0.88486 0.00328 0.46585
vn 0.87861 0.01066 0.47742
vn 0.75375 0.01049 0.65707
vn 0.76476 0.00288 0.64431
vn 0.76218 -0.00626 0.64734
vn 0.88437 -0.00251 0.46677
vn 0.75037 0.00116 0.66102
vn 0.88046 0.00390 0.47410
vn 0.88297 0.01034 0.46932
vn 0.89201 0.01129 0.45188
vn 0.89637 -0.01543 0.44304
vn 0.77291 0.01771 0.63427
vn 0.78417 -0.00632 0.62052
vn 0.75270 0.01358 0.65823
vn 0.08070 0.06751 0.99445
vn 0.12053 0.09172 0.98846
vn 0.75961 -0.07705 0.64580
vn 0.88392 -0.09436 0.45803
vn 0.42287 -0.09240 0.90147
vn 0.82943 -0.25889 0.49499
vn 0.65596 -0.53606 0.53137
vn -0.57449 0.53784 0.61700
vn -0.87604 0.19209 0.44233
vn -0.69321 0.52141 0.49759
vn -0.53742 0.62986 0.56076
vn -0.58581 0.40248 0.70344
vn -0.74592 0.15198 0.64847
vn -0.43578 0.47403 0.76511
vn -0.48322 0.63734 0.60024
vn -0.15742 0.22440 0.96170
vn 0.11902 0.03691 0.99221
vn 0.30201 -0.24020 0.92255
vn -0.24711 0.10584 0.96319
vn 0.73496 0.00010 0.67812
vn 0.03914 -0.06442 0.99716
vn 0.03234 -0.03484 0.99887
vn -0.81595 -0.23092 0.53000
vn -0.68599 -0.18346 0.70410
vn -0.67288 -0.17857 0.71787
vn -0.64818 -0.19410 0.73634
vn -0.79715 -0.25090 0.54919
vn 0.01891 0.00540 0.99981
vn -0.62843 -0.22545 0.74448
vn -0.78582 -0.27657 0.55317
vn -0.00397 0.04127 0.99914
vn -0.62124 -0.28267 0.73086
vn -0.77800 -0.33149 0.53369
vn -0.03460 0.07918 0.99626
vn -0.08640 0.11253 0.98988
vn 0.35573 0.81456 0.45821
vn 0.28891 0.68098 0.67290
vn 0.46238 0.51140 0.72435
vn 0.14056 0.90754 0.39575
vn 0.11861 0.79680 0.59249
vn -0.74749 -0.44849 0.49002
vn -0.61855 -0.65360 0.43612
vn -0.60911 -0.38543 0.69313
vn -0.51066 -0.56423 0.64874
vn -0.19605 -0.76896 0.60850
vn -0.24557 -0.88802 0.38875
vn -0.15785 0.09669 0.98272
vn -0.11890 0.04025 0.99209
vn 0.02950 0.05465 0.99807
vn -0.04350 0.93832 0.34302
vn -0.20288 0.92070 0.33338
vn -0.18746 0.83873 0.51127
vn -0.04265 0.85054 0.52418
vn 0.28671 -0.89043 0.35346
vn 0.62476 -0.68996 0.36556
vn 0.25517 -0.78460 0.56505
vn 0.54343 -0.62054 0.56534
vn 0.62851 -0.47106 0.61893
vn 0.73633 -0.52565 0.42604
vn 0.10472 0.11422 0.98792
vn 0.10181 0.13372 0.98577
vn -0.31499 0.87610 0.36501
vn -0.37634 0.82951 0.41265
vn -0.33741 0.73659 0.58617
vn -0.28624 0.79058 0.54134
vn 0.75361 -0.44127 0.48719
vn -0.60356 0.55587 0.57160
vn -0.51585 0.65656 0.55030
vn -0.70416 0.39323 0.59121
vn -0.95794 -0.17211 0.22962
vn -0.21697 0.32827 0.91933
vn 0.29764 -0.10431 0.94896
vn 0.04285 0.12324 0.99145
vn -0.18357 0.38018 0.90651
vn -0.46676 0.71198 0.52462
vn -0.37550 0.63377 0.67626
vn -0.43941 0.74884 0.49614
vn -0.40731 0.78997 0.45830
vn -0.35869 0.68473 0.63442
vn 0.08366 0.13261 0.98763
vn 0.06651 0.13339 0.98883
vn 0.74270 -0.40799 0.53098
vn 0.62975 -0.38616 0.67402
vn 0.61085 -0.34351 0.71335
vn 0.58269 -0.32229 0.74606
vn 0.72624 -0.39060 0.56569
vn 0.71722 -0.35887 0.59733
vn 0.83494 -0.40318 0.37461
vn 0.85462 -0.36133 0.37291
vn -0.00386 -0.91734 0.39808
vn 0.31045 -0.90971 0.27577
vn 0.71766 -0.62818 0.30058
vn 0.85377 -0.38032 0.35558
vn 0.62879 -0.28186 0.72470
vn 0.61383 -0.20006 0.76367
vn 0.85853 -0.30019 0.41570
vn 0.42949 -0.16439 0.88798
vn 0.40884 -0.09980 0.90713
vn -0.38759 0.49637 0.77679
vn -0.20365 0.33260 0.92082
vn -0.16155 0.32269 0.93261
vn -0.38021 0.47760 0.79205
vn -0.21648 0.30974 0.92585
vn -0.56324 0.68645 0.45994
vn -0.53095 0.69415 0.48605
vn -0.35000 0.45524 0.81869
vn 0.84715 -0.27501 0.45465
vn 0.83870 -0.25677 0.48027
vn 0.58431 -0.17876 0.79160
vn 0.54648 -0.16453 0.82115
vn 0.37609 -0.09192 0.92201
vn 0.06811 0.09506 0.99314
vn 0.03424 0.05898 0.99767
vn 0.46422 -0.21697 0.85873
vn -0.35670 0.40121 0.84368
vn -0.42498 0.31882 0.84720
vn -0.06189 -0.02500 0.99777
vn -0.57326 0.64632 0.50364
vn -0.67884 0.53456 0.50341
vn 0.76927 -0.38332 0.51117
vn 0.51249 -0.68232 0.52133
vn 0.28251 -0.38940 0.87667
f 10//1 11//2 12//3 13//4
f 1//5 14//6 15//7 16//8
f 1//5 16//9 17//10 18//11
f 1//5 19//12 20//13 14//6
f 2//14 21//15 22//16 23//17
f 2//14 24//18 25//19 26//20
f 2//14 27//21 28//22 21//15
f 2//14 23//17 29//23 24//18
f 3//24 5//25 30//26 31//26
f 3//24 32//27 33//28 5//25
f 3//29 31//30 34//31 35//32
f 3//24 36//33 37//33 32//27
f 4//34 38//35 39//36 40//37
f 4//34 41//38 42//39 38//35
f 4//34 40//37 43//40 41//38
f 5//25 33//28 44//41 45//41
f 5//42 46//43 47//44 30//45
f 5//42 45//46 48//47 46//43
f 6//48 49//49 50//50 51//51
f 6//48 51//51 13//4 12//3
f 7//52 38//35 42//39 52//53
f 7//52 52//53 53//54 54//55
f 7//52 54//55 39//36 38//35
f 8//56 56//57 22//16 57//58
f 8//59 57//58 55//60 282//61
f 9//62 58//63 59//64 19//12
f 9//62 18//11 60//65 61//65
f 9//66 61//67 62//68 58//69
f 62//68 63//70 283//71 64//72
f 62//68 64//72 65//73 58//69
f 62//68 61//67 66//74 63//70
f 66//74 27//21 67//75 63//70
f 66//76 61//65 60//65 68//76
f 66//76 68//76 28//22 27//21
f 68//77 60//78 69//79 70//80
f 68//77 70//80 71//81 28//22
f 71//81 72//82 21//15 28//22
f 71//81 70//80 284//83 285//84
f 71//81 285//84 73//85 72//82
f 73//85 55//60 57//58 72//82
f 74//86 286//87 69//79 76//88
f 74//86 76//88 77//89 75//90
f 77//89 76//88 18//91 17//10
f 77//89 17//10 78//92 79//93
f 77//89 79//93 80//94 75//90
f 80//94 79//93 81//95 82//96
f 86//97 85//98 88//99 89//100
f 86//97 89//100 90//101 87//102
f 90//101 89//100 91//103 92//104
f 90//101 92//104 93//105 94//106
f 90//101 94//106 95//107 87//102
f 95//107 94//106 96//108 97//109
f 98//110 288//111 99//112 59//64
f 98//110 59//64 58//63 65//113
f 99//112 288//111 289//114 100//115
f 99//112 100//115 101//116 102//117
f 99//112 102//117 19//12 59//64
f 102//118 101//119 92//119 91//118
f 102//118 91//118 20//13 19//12
f 101//116 100//115 103//120 104//121
f 101//119 104//122 93//122 92//119
f 104//121 103//120 105//123 106//124
f 104//122 106//125 107//125 93//122
f 107//125 106//125 108//126 109//126
f 107//127 109//128 110//129 96//108
f 107//127 96//108 94//106 93//105
f 110//129 109//128 111//130 112//131
f 110//129 112//131 290//132 291//133
f 110//129 291//133 97//109 96//108
f 293//134 292//135 105//123 103//120
f 293//134 103//120 100//115 289//114
f 292//135 294//136 113//137 105//123
f 113//137 294//136 295//138 114//139
f 113//137 114//139 115//140 108//141
f 113//137 108//141 106//124 105//123
f 115//140 114//139 34//31 31//30
f 115//142 31//26 30//26 111//142
f 115//142 111//142 109//126 108//126
f 114//139 295//138 116//143 34//31
f 116//143 117//144 35//32 34//31
f 117//144 118//145 119//146 35//32
f 122//147 121//148 124//149 125//150
f 122//147 125//150 126//151 123//152
f 126//151 125//150 127//153 128//154
f 126//151 128//154 129//155 130//156
f 126//151 130//156 131//157 123//152
f 131//157 130//156 132//158 133//159
f 135//160 134//161 136//162 137//163
f 135//160 137//163 138//164 120//165
f 138//164 119//146 118//145 120//165
f 138//164 137//163 139//166 140//167
f 138//164 140//167 36//168 119//146
f 140//169 139//170 141//170 142//169
f 140//169 142//169 37//33 36//33
f 142//171 141//172 143//173 144//174
f 142//171 144//174 145//175 37//176
f 145//175 146//177 32//178 37//176
f 145//175 144//174 296//179 147//180
f 145//175 147//180 297//181 146//177
f 297//181 148//182 149//183 146//177
f 150//184 298//185 151//186 152//187
f 150//184 152//187 149//183 148//182
f 152//187 151//186 153//188 44//189
f 152//187 44//189 33//190 149//183
f 153//191 154//192 155//192 156//191
f 153//191 156//191 45//41 44//41
f 153//188 151//186 157//193 154//194
f 157//193 158//195 159//196 154//194
f 157//193 151//186 298//185 299//197
f 157//193 299//197 160//198 158//195
f 160//198 161//199 162//200 158//195
f 163//201 164//202 51//51 50//50
f 163//201 50//50 162//200 161//199
f 164//202 165//203 13//4 51//51
f 165//204 300//205 10//1 13//206
f 300//205 166//207 11//2 10//1
f 166//207 301//208 167//209 11//2
f 172//210 171//211 48//47 173//212
f 172//210 173//212 174//213 169//214
f 174//213 175//215 170//216 169//214
f 174//213 173//212 156//217 155//218
f 174//213 155//218 176//219 175//215
f 176//219 177//220 178//221 175//215
f 176//222 155//192 154//192 159//196
f 176//222 159//196 179//223 177//220
f 179//223 49//49 180//224 177//220
f 179//223 159//196 158//195 162//200
f 179//223 162//200 50//50 49//49
f 180//224 12//3 11//2 167//209
f 180//224 167//209 178//221 177//220
f 180//224 49//49 6//48 12//3
f 178//221 167//209 301//208 168//225
f 178//221 168//225 170//216 175//215
f 173//212 48//47 45//46 156//217
f 171//226 181//227 46//43 48//47
f 181//227 182//228 47//44 46//43
f 182//228 290//132 112//131 47//44
f 149//183 33//190 32//178 146//177
f 296//179 144//174 143//173 302//229
f 143//173 141//172 183//230 124//149
f 143//173 124//149 121//148 302//229
f 183//231 141//170 139//170 184//231
f 183//231 184//231 185//232 127//232
f 183//230 127//153 125//150 124//149
f 185//233 184//234 136//162 186//235
f 185//233 186//235 187//236 188//237
f 185//232 188//238 128//238 127//232
f 188//237 187//236 189//239 190//240
f 188//238 190//241 129//241 128//238
f 190//240 189//239 191//242 192//243
f 190//241 192//244 193//244 129//241
f 193//244 192//244 194//245 195//245
f 193//246 195//247 196//248 132//158
f 193//246 132//158 130//156 129//155
f 196//248 195//247 197//249 198//250
f 196//248 198//250 199//251 200//252
f 196//248 200//252 133//159 132//158
f 304//253 303//254 189//239 187//236
f 304//253 187//236 186//235 305//255
f 303//254 306//256 191//242 189//239
f 306//256 307//257 201//258 191//242
f 201//258 307//257 202//259 203//260
f 201//258 203//260 204//261 194//262
f 201//258 194//262 192//243 191//242
f 204//261 203//260 205//263 206//264
f 204//265 206//266 207//266 197//265
f 204//265 197//265 195//245 194//245
f 207//266 206//266 208//267 209//267
f 207//268 209//269 210//270 211//271
f 207//268 211//271 198//250 197//249
f 211//271 210//270 308//272 309//273
f 211//271 309//273 199//251 198//250
f 311//274 310//275 212//276 205//263
f 311//274 205//263 203//260 202//259
f 212//276 310//275 213//277 214//278
f 212//276 214//278 215//279 208//280
f 212//276 208//280 206//264 205//263
f 215//279 214//278 216//281 217//282
f 215//283 217//284 218//284 219//283
f 215//283 219//283 209//267 208//267
f 219//285 218//286 220//287 221//288
f 219//285 221//288 210//270 209//269
f 221//288 220//287 312//289 313//290
f 221//288 313//290 308//272 210//270
f 222//291 314//292 223//293 216//281
f 222//291 216//281 214//278 213//277
f 224//294 315//295 226//296 227//297
f 224//294 227//297 228//298 225//299
f 228//298 227//297 29//23 23//17
f 228//298 23//17 22//16 56//57
f 228//298 56//57 229//300 225//299
f 229//300 56//57 8//301 282//302
f 227//297 226//296 230//303 29//23
f 230//303 231//304 232//305 233//306
f 230//303 233//306 24//18 29//23
f 230//303 226//296 234//307 231//304
f 234//307 235//308 236//309 231//304
f 234//307 226//296 315//295 316//310
f 234//307 316//310 317//311 235//308
f 317//311 318//312 237//313 235//308
f 237//313 220//287 218//286 238//314
f 237//313 238//314 236//309 235//308
f 237//313 318//312 312//289 220//287
f 238//315 218//284 217//284 239//315
f 238//315 239//315 240//316 236//316
f 240//317 239//318 223//293 241//319
f 240//317 241//319 242//320 232//321
f 240//316 232//305 231//304 236//316
f 242//320 241//319 319//322 320//323
f 242//320 320//323 243//324 244//325
f 242//320 244//325 233//326 232//321
f 244//325 243//324 245//327 25//19
f 244//325 25//19 24//18 233//326
f 245//327 246//328 26//20 25//19
f 246//328 321//329 67//75 26//20
f 321//329 283//71 63//70 67//75
f 241//319 223//293 314//292 319//322
f 239//318 217//282 216//281 223//293
f 186//235 136//162 134//161 305//255
f 184//234 139//166 137//163 136//162
f 119//146 36//168 3//29 35//32
f 112//131 111//130 30//45 47//44
f 91//103 89//100 88//99 20//330
f 88//99 247//331 14//6 20//330
f 88//99 85//98 84//332 247//331
f 247//331 84//332 83//333 248//334
f 247//331 248//334 15//7 14//6
f 248//334 83//333 287//335 249//336
f 248//334 249//336 250//337 15//7
f 250//337 249//336 251//338 252//339
f 250//337 252//339 253//340 254//341
f 250//337 254//341 16//8 15//7
f 254//342 253//343 255//344 78//92
f 254//342 78//92 17//10 16//9
f 255//344 253//343 256//345 257//346
f 255//344 257//346 258//347 81//95
f 255//344 81//95 79//93 78//92
f 258//347 257//346 259//348 260//349
f 258//347 260//349 261//350 322//351
f 258//347 322//351 82//96 81//95
f 264//352 263//353 265//354 251//338
f 264//352 251//338 249//336 287//335
f 265//354 263//353 262//355 266//356
f 265//354 266//356 267//357 268//358
f 265//354 268//358 252//339 251//338
f 268//358 267//357 269//359 256//360
f 268//358 256//360 253//340 252//339
f 269//359 267//357 270//361 271//362
f 269//359 271//362 272//363 259//348
f 269//359 259//348 257//346 256//345
f 272//363 271//362 273//364 274//365
f 272//363 274//365 275//366 276//367
f 272//363 276//367 260//349 259//348
f 276//367 275//366 277//368 278//369
f 276//367 278//369 261//350 260//349
f 324//370 323//371 279//372 280//373
f 324//370 280//373 266//356 262//355
f 280//373 279//372 281//374 270//361
f 280//373 270//361 267//357 266//356
f 281//374 279//372 53//54 52//53
f 281//374 52//53 42//39 273//364
f 281//374 273//364 271//362 270//361
f 279//372 323//371 325//375 53//54
f 325//375 326//376 54//55 53//54
f 326//376 327//377 39//36 54//55
f 327//377 328//378 40//37 39//36
f 328//378 329//379 43//40 40//37
f 329//379 277//368 275//366 43//40
f 275//366 274//365 41//38 43//40
f 274//365 273//364 42//39 41//38
f 76//88 69//79 60//78 18//91
f 286//87 284//380 70//80 69//79
f 72//82 57//58 22//16 21//15
f 67//75 27//21 2//14 26//20
f 9//62 19//12 1//5 18//11
f 342//381 341//382 340//383 339//384
f 345//385 344//386 343//387 330//388
f 347//389 346//390 345//391 330//388
f 343//387 349//392 348//393 330//388
f 352//394 351//395 350//396 331//397
f 355//398 354//399 353//400 331//397
f 350//396 357//401 356//402 331//397
f 353//400 358//403 352//394 331//397
f 360//404 359//405 334//406 332//407
f 334//406 362//408 361//409 332//407
f 364//410 363//411 360//404 332//407
f 361//409 366//412 365//412 332//407
f 369//413 368//414 367//415 333//416
f 367//415 371//417 370//418 333//416
f 370//418 372//419 369//413 333//416
f 374//420 373//420 362//408 334//406
f 359//421 376//422 375//423 334//424
f 375//423 377//425 374//426 334//424
f 380//427 379//428 378//429 335//430
f 341//382 342//381 380//427 335//430
f 381//431 371//417 367//415 336//432
f 383//433 382//434 381//431 336//432
f 367//415 368//414 383//433 336//432
f 385//435 351//395 384//436 337//437
f 282//61 55//60 385//435 337//438
f 348//393 387//439 386//440 338//441
f 389//442 388//442 347//389 338//441
f 386//443 390//444 389//445 338//446
f 64//72 283//71 391//447 390//444
f 386//443 65//73 64//72 390//444
f 391//447 392//448 389//445 390//444
f 391//447 393//449 356//402 392//448
f 394//450 388//442 389//442 392//450
f 356//402 357//401 394//450 392//450
f 396//451 395//452 388//453 394//454
f 357//401 397//455 396//456 394//457
f 357//401 350//396 398//458 397//455
f 285//84 284//83 396//456 397//455
f 398//458 73//85 285//84 397//455
f 398//458 385//435 55//60 73//85
f 399//459 395//452 286//87 74//86
f 75//90 400//460 399//459 74//86
f 346//390 347//461 399//459 400//460
f 402//462 401//463 346//390 400//460
f 75//90 80//94 402//462 400//460
f 82//96 403//464 402//462 80//94
f 405//465 404//466 85//98 86//97
f 87//102 406//467 405//465 86//97
f 408//468 407//469 405//465 406//467
f 410//470 409//471 408//468 406//467
f 87//102 95//107 410//470 406//467
f 97//109 411//472 410//470 95//107
f 387//439 412//473 288//111 98//110
f 65//113 386//440 387//439 98//110
f 413//474 289//114 288//111 412//473
f 415//475 414//476 413//474 412//473
f 387//439 348//393 415//475 412//473
f 407//477 408//478 414//478 415//477
f 348//393 349//392 407//477 415//477
f 417//479 416//480 413//474 414//476
f 408//478 409//481 417//481 414//478
f 419//482 418//483 416//480 417//479
f 409//481 420//484 419//484 417//481
f 422//485 421//485 419//484 420//484
f 411//472 423//486 422//487 420//488
f 409//471 410//470 411//472 420//488
f 425//489 424//490 422//487 423//486
f 291//133 290//132 425//489 423//486
f 411//472 97//109 291//133 423//486
f 416//480 418//483 292//135 293//134
f 289//114 413//474 416//480 293//134
f 418//483 426//491 294//136 292//135
f 427//492 295//138 294//136 426//491
f 421//493 428//494 427//492 426//491
f 418//483 419//482 421//493 426//491
f 360//404 363//411 427//492 428//494
f 424//495 359//405 360//404 428//495
f 421//485 422//485 424//495 428//495
f 363//411 116//143 295//138 427//492
f 363//411 364//410 117//144 116//143
f 364//410 429//496 118//145 117//144
f 431//497 430//498 121//148 122//147
f 123//152 432//499 431//497 122//147
f 434//500 433//501 431//497 432//499
f 436//502 435//503 434//500 432//499
f 123//152 131//157 436//502 432//499
f 133//159 437//504 436//502 131//157
f 439//505 438//506 134//161 135//160
f 120//165 440//507 439//505 135//160
f 120//165 118//145 429//496 440//507
f 442//508 441//509 439//505 440//507
f 429//496 365//510 442//508 440//507
f 444//511 443//512 441//512 442//511
f 365//412 366//412 444//511 442//511
f 446//513 445//514 443//515 444//516
f 366//517 447//518 446//513 444//516
f 366//517 361//519 448//520 447//518
f 147//180 296//179 446//513 447//518
f 448//520 297//181 147//180 447//518
f 448//520 449//521 148//182 297//181
f 451//522 450//523 298//185 150//184
f 148//182 449//521 451//522 150//184
f 373//524 452//525 450//523 451//522
f 449//521 362//526 373//524 451//522
f 455//527 454//528 453//528 452//527
f 373//420 374//420 455//527 452//527
f 453//529 456//530 450//523 452//525
f 453//529 458//531 457//532 456//530
f 299//197 298//185 450//523 456//530
f 457//532 160//198 299//197 456//530
f 457//532 459//533 161//199 160//198
f 379//428 380//427 164//202 163//201
f 161//199 459//533 379//428 163//201
f 380//427 342//381 165//203 164//202
f 342//381 339//384 300//205 165//204
f 339//384 340//383 166//207 300//205
f 340//383 460//534 301//208 166//207
f 461//535 377//425 171//211 172//210
f 169//214 462//536 461//535 172//210
f 169//214 170//216 463//537 462//536
f 454//538 455//539 461//535 462//536
f 463//537 464//540 454//538 462//536
f 463//537 466//541 465//542 464//540
f 458//531 453//528 454//528 464//543
f 465//542 467//544 458//531 464//543
f 465//542 468//545 378//429 467//544
f 459//533 457//532 458//531 467//544
f 378//429 379//428 459//533 467//544
f 460//534 340//383 341//382 468//545
f 465//542 466//541 460//534 468//545
f 341//382 335//430 378//429 468//545
f 168//225 301//208 460//534 466//541
f 463//537 170//216 168//225 466//541
f 455//539 374//426 377//425 461//535
f 377//425 375//423 181//227 171//226
f 375//423 376//422 182//228 181//227
f 376//422 425//489 290//132 182//228
f 448//520 361//519 362//526 449//521
f 302//229 445//514 446//513 296//179
f 430//498 469//546 443//515 445//514
f 302//229 121//148 430//498 445//514
f 470//547 441//512 443//512 469//547
f 433//548 471//548 470//547 469//547
f 430//498 431//497 433//501 469//546
f 472//549 438//506 470//550 471//551
f 474//552 473//553 472//549 471//551
f 433//548 434//554 474//554 471//548
f 476//555 475//556 473//553 474//552
f 434//554 435//557 476//557 474//554
f 478//558 477//559 475//556 476//555
f 435//557 479//560 478//560 476//557
f 481//561 480//561 478//560 479//560
f 437//504 482//562 481//563 479//564
f 435//503 436//502 437//504 479//564
f 484//565 483//566 481//563 482//562
f 200//252 199//251 484//565 482//562
f 437//504 133//159 200//252 482//562
f 473//553 475//556 303//254 304//253
f 305//255 472//549 473//553 304//253
f 475//556 477//559 306//256 303//254
f 477//559 485//567 307//257 306//256
f 486//568 202//259 307//257 485//567
f 480//569 487//570 486//568 485//567
f 477//559 478//558 480//569 485//567
f 489//571 488//572 486//568 487//570
f 483//573 490//574 489//574 487//573
f 480//561 481//561 483//573 487//573
f 492//575 491//575 489//574 490//574
f 494//576 493//577 492//578 490//579
f 483//566 484//565 494//576 490//579
f 309//273 308//272 493//577 494//576
f 484//565 199//251 309//273 494//576
f 488//572 495//580 310//275 311//274
f 202//259 486//568 488//572 311//274
f 496//581 213//277 310//275 495//580
f 491//582 497//583 496//581 495//580
f 488//572 489//571 491//582 495//580
f 499//584 498//585 496//581 497//583
f 501//586 500//587 499//587 497//586
f 491//575 492//575 501//586 497//586
f 503//588 502//589 500//590 501//591
f 492//578 493//577 503//588 501//591
f 313//290 312//289 502//589 503//588
f 493//577 308//272 313//290 503//588
f 498//585 504//592 314//292 222//291
f 213//277 496//581 498//585 222//291
f 506//593 505//594 315//295 224//294
f 225//299 507//595 506//593 224//294
f 352//394 358//403 506//593 507//595
f 384//436 351//395 352//394 507//595
f 225//299 229//300 384//436 507//595
f 282//302 337//596 384//436 229//300
f 358//403 508//597 505//594 506//593
f 511//598 510//599 509//600 508//597
f 358//403 353//400 511//598 508//597
f 509//600 512//601 505//594 508//597
f 509//600 514//602 513//603 512//601
f 316//310 315//295 505//594 512//601
f 513//603 317//311 316//310 512//601
f 513//603 515//604 318//312 317//311
f 516//605 500//590 502//589 515//604
f 513//603 514//602 516//605 515//604
f 502//589 312//289 318//312 515//604
f 517//606 499//587 500//587 516//606
f 514//607 518//607 517//606 516//606
f 519//608 504//592 517//609 518//610
f 510//611 520//612 519//608 518//610
f 514//607 509//600 510//599 518//607
f 320//323 319//322 519//608 520//612
f 521//613 243//614 320//323 520//612
f 510//611 511//598 521//613 520//612
f 354//399 245//615 243//614 521//613
f 511//598 353//400 354//399 521//613
f 354//399 355//398 246//328 245//615
f 355//398 393//449 321//329 246//328
f 393//449 391//447 283//71 321//329
f 319//322 314//292 504//592 519//608
f 504//592 498//585 499//584 517//609
f 305//255 134//161 438//506 472//549
f 438//506 439//505 441//509 470//550
f 364//410 332//407 365//510 429//496
f 376//422 359//421 424//490 425//489
f 349//616 404//466 405//465 407//469
f 349//616 343//387 522//617 404//466
f 522//617 84//332 85//98 404//466
f 523//618 83//333 84//332 522//617
f 343//387 344//386 523//618 522//617
f 524//619 287//335 83//333 523//618
f 344//386 525//620 524//619 523//618
f 527//621 526//622 524//619 525//620
f 529//623 528//624 527//621 525//620
f 344//386 345//385 529//623 525//620
f 401//463 530//625 528//626 529//627
f 345//391 346//390 401//463 529//627
f 532//628 531//629 528//626 530//625
f 403//464 533//630 532//628 530//625
f 401//463 402//462 403//464 530//625
f 535//631 534//632 532//628 533//630
f 322//351 261//350 535//631 533//630
f 403//464 82//96 322//351 533//630
f 526//622 536//633 263//353 264//352
f 287//335 524//619 526//622 264//352
f 537//634 262//355 263//353 536//633
f 539//635 538//636 537//634 536//633
f 526//622 527//621 539//635 536//633
f 531//637 540//638 538//636 539//635
f 527//621 528//624 531//637 539//635
f 542//639 541//640 538//636 540//638
f 534//632 543//641 542//639 540//638
f 531//629 532//628 534//632 540//638
f 545//642 544//643 542//639 543//641
f 547//644 546//645 545//642 543//641
f 534//632 535//631 547//644 543//641
f 278//369 277//368 546//645 547//644
f 535//631 261//350 278//369 547//644
f 549//646 548//647 323//371 324//370
f 262//355 537//634 549//646 324//370
f 541//640 550//648 548//647 549//646
f 537//634 538//636 541//640 549//646
f 381//431 382//434 548//647 550//648
f 544//643 371//417 381//431 550//648
f 541//640 542//639 544//643 550//648
f 382//434 325//375 323//371 548//647
f 382//434 383//433 326//376 325//375
f 383//433 368//414 327//377 326//376
f 368//414 369//413 328//378 327//377
f 369//413 372//419 329//379 328//378
f 372//419 546//645 277//368 329//379
f 372//419 370//418 545//642 546//645
f 370//418 371//417 544//643 545//642
f 347//461 388//453 395//452 399//459
f 395//452 396//451 284//380 286//87
f 350//396 351//395 385//435 398//458
f 355//398 331//397 356//402 393//449
f 347//389 330//388 348//393 338//441
