# pilowlava3D glyph '&' variant 1 — Vincent Wagner / Velvetyne, Free Art License
v 3.99167 0.15423 -0.38497
v 2.83028 1.93696 -0.41292
v 1.88997 2.20625 -0.31177
v 2.91234 3.25203 -0.30038
v 3.00032 1.05634 -0.27594
v 3.23138 0.79657 -0.36150
v 4.47386 0.51599 -0.22028
v 4.89717 3.02887 -0.31580
v 2.69957 2.00998 -0.32475
v 1.75443 2.40846 -0.30867
v 4.14014 0.26549 -0.43962
v 4.25514 0.11899 -0.25752
v 3.99301 0.04632 -0.24176
v 3.71837 0.14251 -0.23798
v 3.81854 0.25881 -0.42114
v 3.97012 0.42653 -0.50997
v 3.37347 3.70651 -0.28790
v 3.28729 3.50432 -0.35472
v 3.08850 3.73289 -0.49126
v 3.27211 3.92654 -0.32587
v 2.89757 2.22418 -0.24920
v 2.97560 2.12011 -0.32942
v 2.96584 1.85650 -0.42410
v 2.79497 1.68806 -0.44834
v 2.61684 1.78675 -0.40324
v 1.85547 2.28088 -0.35495
v 1.96281 2.38422 -0.34983
v 2.05629 2.23120 -0.33306
v 1.96439 2.13335 -0.20452
v 1.74081 2.09855 -0.20760
v 1.69284 2.13324 -0.32059
v 2.90080 3.16349 0.00000
v 3.18428 3.22273 0.00000
v 3.10213 3.32695 -0.36270
v 2.73083 3.39175 -0.32519
v 2.90674 3.54853 -0.47797
v 2.94673 1.03063 0.00000
v 3.16130 1.24953 -0.47642
v 3.28096 1.09727 -0.47961
v 3.10243 0.92817 -0.37233
v 2.93561 0.80364 -0.32652
v 2.90428 0.84666 -0.22934
v 3.42578 0.95732 -0.49542
v 2.97238 0.73360 -0.30719
v 3.45763 0.63000 -0.41326
v 3.37064 0.54366 -0.22306
v 3.19862 0.69324 -0.19648
v 3.61137 0.78470 -0.51568
v 2.99727 0.68480 -0.19177
v 4.51459 0.52369 0.00000
v 4.44522 0.71766 0.00000
v 4.39153 0.65464 -0.27560
v 4.43565 0.33303 -0.26768
v 4.28935 0.47490 -0.42731
v 4.99837 3.01580 0.00000
v 5.02660 3.34712 0.00000
v 4.69154 2.87575 -0.33020
v 4.54445 3.12837 -0.49020
v 4.81905 3.24514 -0.43815
v 4.38484 3.70177 0.00000
v 4.87247 3.59662 0.00000
v 4.59627 3.54947 -0.39433
v 2.39493 1.91502 -0.34986
v 2.45331 2.01995 -0.24741
v 1.87546 2.55638 -0.35053
v 1.64467 2.20346 -0.29328
v 1.60802 2.24324 -0.17590
v 1.67436 2.41158 -0.18411
v 1.59138 2.26153 0.00000
v 1.49362 2.55502 0.00000
v 1.52031 2.59350 -0.22409
v 1.59244 2.66547 -0.36447
v 1.69304 2.77027 -0.38606
v 1.27948 2.69851 -0.25777
v 1.37616 2.82364 -0.43086
v 1.49825 2.95583 -0.43583
v 1.61729 3.05991 -0.27140
v 1.76280 2.84780 -0.24762
v 1.13181 2.96393 -0.47242
v 1.30711 3.13516 -0.48056
v 1.47980 3.25800 -0.28699
v 1.68225 3.09865 0.00000
v 1.11887 3.31996 -0.50946
v 1.35266 3.43983 -0.30089
v 1.24811 3.60757 -0.30757
v 1.28166 3.80134 0.00000
v 0.43465 4.08343 0.00000
v 1.13280 4.43435 -0.15391
v 0.81133 4.30987 -0.21327
v 1.41649 4.49594 -0.13846
v 1.42332 4.45709 -0.24097
v 1.18169 4.39623 -0.28307
v 1.69431 4.50739 -0.15469
v 1.67216 4.46058 -0.27980
v 1.65028 4.36907 -0.27331
v 1.43184 4.39171 -0.24060
v 1.96719 4.47811 -0.20177
v 1.92059 4.39454 -0.35418
v 1.86699 4.27042 -0.35243
v 1.84262 4.17791 -0.20204
v 1.64946 4.31358 -0.14972
v 2.17200 4.30044 -0.41110
v 2.10132 4.14828 -0.41047
v 2.03680 4.02759 -0.24594
v 1.99858 3.97992 0.00000
v 1.83470 4.13906 0.00000
v 2.33122 4.01908 -0.44684
v 2.22749 3.87720 -0.26472
v 2.40678 3.72342 -0.28205
v 3.11305 4.22399 0.00000
v 2.82005 4.36365 0.00000
v 3.35110 3.99341 0.00000
v 3.05856 4.14882 -0.30969
v 3.44336 3.70245 0.00000
v 3.38403 3.43212 0.00000
v 2.91321 3.94170 -0.49094
v 2.69106 4.10065 -0.47211
v 2.78430 4.28791 -0.28605
v 2.43532 4.20953 -0.44720
v 2.50255 4.37076 -0.26839
v 2.53015 4.44298 0.00000
v 2.23203 4.42737 -0.24502
v 1.64923 4.30003 0.00000
v 1.43513 4.34394 0.00000
v 1.43596 4.35097 -0.14330
v 1.26636 4.27275 -0.17268
v 1.23267 4.32262 -0.28856
v 1.16985 4.12518 -0.22188
v 1.05397 4.17321 -0.37294
v 0.91641 4.25055 -0.36318
v 0.93733 3.95083 -0.46092
v 0.67894 4.01314 -0.44835
v 0.49646 4.06703 -0.27288
v 0.57736 3.68339 -0.50056
v 0.31519 3.66526 -0.31415
v 0.22389 3.66312 0.00000
v 0.39908 3.23244 -0.32515
v 1.80544 2.88378 0.00000
v 1.90735 2.62825 -0.22710
v 2.02261 2.44883 -0.21721
v 2.14519 2.30484 0.00000
v 2.12677 2.29194 -0.20210
v 2.27960 2.13925 0.00000
v 2.26511 2.12273 -0.20197
v 2.21353 2.06528 -0.31389
v 2.33908 1.82096 -0.22291
v 2.15350 2.00001 -0.20650
v 2.13705 1.98291 0.00000
v 1.94902 2.11438 0.00000
v 1.72595 2.06237 0.00000
v 1.48845 1.94103 -0.20821
v 1.28865 1.75281 0.00000
v 1.26337 1.80003 -0.23142
v 1.21722 1.90551 -0.38359
v 1.46449 2.00991 -0.34002
v 1.16113 2.03791 -0.38100
v 1.42146 2.11343 -0.32398
v 1.12077 2.14123 -0.23400
v 1.39224 2.17975 -0.20009
v 1.10805 2.18769 0.00000
v 1.38147 2.21318 0.00000
v 1.09703 1.60839 0.00000
v 0.86652 1.52089 -0.24929
v 1.05473 1.66145 -0.24711
v 0.74809 1.65700 -0.42800
v 0.96652 1.78730 -0.41369
v 0.60399 1.87223 -0.42787
v 0.88124 1.96510 -0.41146
v 0.51476 2.03617 -0.26160
v 0.83717 2.10166 -0.25174
v 0.48714 2.08858 0.00000
v 0.82159 2.15817 0.00000
v 0.54057 1.23032 -0.24213
v 0.70087 1.37818 -0.25142
v 0.41193 1.33493 -0.40971
v 0.57104 1.51303 -0.42569
v 0.22876 1.44042 -0.41147
v 0.37366 1.69777 -0.42792
v 0.08264 1.49338 -0.25442
v 0.22099 1.82455 -0.26267
v 0.46085 0.91972 0.00000
v 0.42790 0.90879 -0.21752
v 0.42995 1.06841 -0.22676
v 0.31645 0.86852 -0.35205
v 0.30139 1.10128 -0.37480
v 0.18835 0.82253 -0.36620
v 0.15836 1.12805 -0.38175
v 0.09322 0.78919 -0.23880
v 0.04472 1.14341 -0.24526
v 0.74059 0.80556 0.00000
v 0.55577 0.83166 0.00000
v 0.72357 0.74860 -0.24010
v 0.53355 0.79794 -0.22399
v 0.67648 0.59147 -0.40474
v 0.44945 0.68994 -0.37308
v 0.61124 0.40495 -0.41033
v 0.34999 0.56895 -0.38327
v 0.54500 0.26488 -0.25248
v 0.26814 0.47580 -0.24414
v 0.52231 0.21784 0.00000
v 0.85368 0.15784 -0.25535
v 1.14177 0.03950 0.00000
v 1.20688 0.80353 0.00000
v 0.96764 0.80326 0.00000
v 1.20193 0.72676 -0.25206
v 0.95750 0.73264 -0.24909
v 1.18912 0.54839 -0.44043
v 0.92856 0.56406 -0.42842
v 1.16887 0.29451 -0.44272
v 0.88867 0.32805 -0.43171
v 1.15111 0.11199 -0.25697
v 1.44568 0.28008 -0.44713
v 1.44264 0.09428 -0.25818
v 1.44029 0.02015 0.00000
v 1.73401 0.09973 -0.25748
v 1.73795 0.02521 0.00000
v 1.45363 0.80350 0.00000
v 1.70177 0.72568 -0.25333
v 1.45212 0.72389 -0.25296
v 1.71045 0.54362 -0.44479
v 1.44975 0.54064 -0.44313
v 1.72424 0.28452 -0.44714
v 1.96870 0.56192 -0.43508
v 2.00046 0.31074 -0.43592
v 2.02655 0.13161 -0.25568
v 2.26941 0.37033 -0.42036
v 2.31572 0.21287 -0.24957
v 2.33249 0.15340 0.00000
v 2.03758 0.06254 0.00000
v 2.19879 0.74665 -0.24747
v 1.95079 0.73480 -0.25241
v 2.22054 0.59245 -0.41867
v 2.44489 0.76756 -0.24111
v 2.47098 0.64106 -0.39533
v 2.52640 0.47256 -0.39499
v 2.72124 0.71426 -0.35140
v 2.76947 0.60239 -0.34362
v 2.80333 0.52320 -0.21320
v 2.58080 0.34985 -0.23993
v 2.69527 0.79920 -0.23155
v 3.18388 0.66528 0.00000
v 3.52631 0.34438 -0.23458
v 2.79488 1.25225 0.00000
v 2.52281 1.64829 -0.25255
v 2.67848 1.49526 -0.26800
v 2.47679 2.06537 0.00000
v 2.67741 2.10814 0.00000
v 2.87141 2.25331 0.00000
v 3.08385 2.42503 -0.21323
v 3.13794 2.35269 -0.31464
v 3.28178 2.60297 -0.23832
v 3.34380 2.49062 -0.36026
v 3.41525 2.39116 -0.23349
v 3.18604 2.29095 -0.20873
v 3.48651 2.77144 -0.28037
v 3.57320 2.62316 -0.40341
v 3.66110 2.49023 -0.26886
v 3.69589 2.43315 0.00000
v 3.44168 2.35749 0.00000
v 3.81551 2.76034 -0.43472
v 3.91129 2.58950 -0.29119
v 4.16615 2.68140 -0.30071
v 4.16507 3.57005 0.00000
v 3.97809 3.38563 0.00000
v 4.09457 3.27406 -0.38198
v 3.89236 3.11083 -0.34237
v 3.80605 3.20372 0.00000
v 4.31407 3.41275 -0.42232
v 4.30093 3.01494 -0.48787
v 4.42410 2.77238 -0.31098
v 4.05653 2.88812 -0.46412
v 3.68936 2.94224 -0.31185
v 3.62592 3.01832 0.00000
v 3.20206 2.27085 0.00000
v 3.05574 2.13600 -0.21272
v 3.17134 1.97998 0.00000
v 3.12241 1.94918 -0.24631
v 3.33978 1.80383 0.00000
v 3.28195 1.75372 -0.26457
v 3.14326 1.62878 -0.45570
v 3.44804 1.57322 -0.26186
v 3.32545 1.43687 -0.45214
v 2.97884 1.46347 -0.46875
v 2.84120 1.30961 -0.27570
v 3.61275 1.41299 -0.26009
v 3.48038 1.27216 -0.45009
v 3.77150 1.25739 -0.26240
v 3.62613 1.12410 -0.45560
v 3.92856 1.09958 -0.26926
v 3.78899 0.95864 -0.46736
v 4.08205 0.94484 -0.27415
v 3.95547 0.78883 -0.47706
v 3.79254 0.60099 -0.52656
v 4.12416 0.63137 -0.47192
v 3.63330 0.44369 -0.43186
v 4.24149 0.80621 -0.28071
v 4.30148 0.87810 0.00000
v 4.14842 1.01882 0.00000
v 3.50487 1.63791 0.00000
v 1.24458 2.63462 0.00000
v 0.95731 2.73524 0.00000
v 1.00479 2.80864 -0.27498
v 0.69052 2.94994 -0.29834
v 0.86610 3.12000 -0.50388
v 0.65178 3.35927 -0.51788
v 0.97807 3.50640 -0.51550
v 0.91492 3.72301 -0.50611
v 1.17822 3.77417 -0.29907
v 1.14594 3.94609 -0.26855
v 1.21326 3.95647 0.00000
v 2.54616 3.88029 -0.47151
v 2.73576 3.72629 -0.48266
v 2.56999 3.56335 -0.30086
v 2.89104 0.86236 0.00000
v 4.47758 0.28609 0.00000
v 4.75597 2.77268 0.00000
v 1.64911 2.41790 0.00000
v 1.56493 3.29932 0.00000
v 1.45847 3.48497 0.00000
v 1.36252 3.65200 0.00000
v 0.77148 4.32688 0.00000
v 1.11331 4.44831 0.00000
v 1.41484 4.50861 0.00000
v 1.70041 4.52501 0.00000
v 2.17194 3.81687 0.00000
v 2.33369 3.65480 0.00000
v 2.25572 4.48756 0.00000
v 1.27644 4.26391 0.00000
v 0.30713 3.18842 0.00000
v 1.93268 2.66062 0.00000
v 2.04259 2.47367 0.00000
v 2.31667 1.79017 0.00000
v 1.50052 1.90832 0.00000
v 0.91289 1.46623 0.00000
v 0.58047 1.19414 0.00000
v 0.74452 1.32802 0.00000
v 0.03139 1.51244 0.00000
v 0.17607 1.86362 0.00000
v 0.46593 1.05363 0.00000
v 0.05621 0.77695 0.00000
v 0.00000 1.14882 0.00000
v 0.23885 0.44357 0.00000
v 0.83627 0.09675 0.00000
v 1.70125 0.80472 0.00000
v 2.19269 0.81219 0.00000
v 1.94798 0.80811 0.00000
v 2.81885 0.49416 0.00000
v 2.59969 0.30097 0.00000
v 2.69394 0.83409 0.00000
v 2.43970 0.82070 0.00000
v 3.00240 0.66686 0.00000
v 3.33040 0.50821 0.00000
v 3.48431 0.30465 0.00000
v 2.48451 1.60360 0.00000
v 2.63614 1.43568 0.00000
v 3.06287 2.45061 0.00000
v 3.25737 2.64724 0.00000
v 3.94238 2.50969 0.00000
v 4.19916 2.58966 0.00000
v 3.44560 2.83687 0.00000
v 3.08543 2.13833 0.00000
v 3.99547 1.16703 0.00000
v 3.83447 1.32088 0.00000
v 3.67067 1.47863 0.00000
v 4.46434 2.66837 0.00000
v 3.68867 0.10226 0.00000
v 3.98814 0.00000 0.00000
v 4.28419 0.07221 0.00000
v 0.62428 2.88282 0.00000
v 1.20280 4.11375 0.00000
v 1.98662 4.51478 0.00000
v 2.48695 3.48756 0.00000
v 2.64610 3.30522 0.00000
v 3.99167 0.15423 0.38497
v 2.83028 1.93696 0.41292
v 1.88997 2.20625 0.31177
v 2.91234 3.25203 0.30038
v 3.00032 1.05634 0.27594
v 3.23138 0.79657 0.36150
v 4.47386 0.51599 0.22028
v 4.89717 3.02887 0.31580
v 2.69957 2.00998 0.32475
v 1.75443 2.40846 0.30867
v 4.14014 0.26549 0.43962
v 4.25514 0.11899 0.25752
v 3.99301 0.04632 0.24176
v 3.71837 0.14251 0.23798
v 3.81854 0.25881 0.42114
v 3.97012 0.42653 0.50997
v 3.37347 3.70651 0.28790
v 3.28729 3.50432 0.35472
v 3.08850 3.73289 0.49126
v 3.27211 3.92654 0.32587
v 2.89757 2.22418 0.24920
v 2.97560 2.12011 0.32942
v 2.96584 1.85650 0.42410
v 2.79497 1.68806 0.44834
v 2.61684 1.78675 0.40324
v 1.85547 2.28088 0.35495
v 1.96281 2.38422 0.34983
v 2.05629 2.23120 0.33306
v 1.96439 2.13335 0.20452
v 1.74081 2.09855 0.20760
v 1.69284 2.13324 0.32059
v 3.10213 3.32695 0.36270
v 2.73083 3.39175 0.32519
v 2.90674 3.54853 0.47797
v 3.16130 1.24953 0.47642
v 3.28096 1.09727 0.47961
v 3.10243 0.92817 0.37233
v 2.93561 0.80364 0.32652
v 2.90428 0.84666 0.22934
v 3.42578 0.95732 0.49542
v 2.97238 0.73360 0.30719
v 3.45763 0.63000 0.41326
v 3.37064 0.54366 0.22306
v 3.19862 0.69324 0.19648
v 3.61137 0.78470 0.51568
v 2.99727 0.68480 0.19177
v 4.39153 0.65464 0.27560
v 4.43565 0.33303 0.26768
v 4.28935 0.47490 0.42731
v 4.69154 2.87575 0.33020
v 4.54445 3.12837 0.49020
v 4.81905 3.24514 0.43815
v 4.59627 3.54947 0.39433
v 2.39493 1.91502 0.34986
v 2.45331 2.01995 0.24741
v 1.87546 2.55638 0.35053
v 1.64467 2.20346 0.29328
v 1.60802 2.24324 0.17590
v 1.67436 2.41158 0.18411
v 1.52031 2.59350 0.22409
v 1.59244 2.66547 0.36447
v 1.69304 2.77027 0.38606
v 1.27948 2.69851 0.25777
v 1.37616 2.82364 0.43086
v 1.49825 2.95583 0.43583
v 1.61729 3.05991 0.27140
v 1.76280 2.84780 0.24762
v 1.13181 2.96393 0.47242
v 1.30711 3.13516 0.48056
v 1.47980 3.25800 0.28699
v 1.11887 3.31996 0.50946
v 1.35266 3.43983 0.30089
v 1.24811 3.60757 0.30757
v 1.13280 4.43435 0.15391
v 0.81133 4.30987 0.21327
v 1.41649 4.49594 0.13846
v 1.42332 4.45709 0.24097
v 1.18169 4.39623 0.28307
v 1.69431 4.50739 0.15469
v 1.67216 4.46058 0.27980
v 1.65028 4.36907 0.27331
v 1.43184 4.39171 0.24060
v 1.96719 4.47811 0.20177
v 1.92059 4.39454 0.35418
v 1.86699 4.27042 0.35243
v 1.84262 4.17791 0.20204
v 1.64946 4.31358 0.14972
v 2.17200 4.30044 0.41110
v 2.10132 4.14828 0.41047
v 2.03680 4.02759 0.24594
v 2.33122 4.01908 0.44684
v 2.22749 3.87720 0.26472
v 2.40678 3.72342 0.28205
v 3.05856 4.14882 0.30969
v 2.91321 3.94170 0.49094
v 2.69106 4.10065 0.47211
v 2.78430 4.28791 0.28605
v 2.43532 4.20953 0.44720
v 2.50255 4.37076 0.26839
v 2.23203 4.42737 0.24502
v 1.43596 4.35097 0.14330
v 1.26636 4.27275 0.17268
v 1.23267 4.32262 0.28856
v 1.16985 4.12518 0.22188
v 1.05397 4.17321 0.37294
v 0.91641 4.25055 0.36318
v 0.93733 3.95083 0.46092
v 0.67894 4.01314 0.44835
v 0.49646 4.06703 0.27288
v 0.57736 3.68339 0.50056
v 0.31519 3.66526 0.31415
v 0.39908 3.23244 0.32515
v 1.90735 2.62825 0.22710
v 2.02261 2.44883 0.21721
v 2.12677 2.29194 0.20210
v 2.26511 2.12273 0.20197
v 2.21353 2.06528 0.31389
v 2.33908 1.82096 0.22291
v 2.15350 2.00001 0.20650
v 1.48845 1.94103 0.20821
v 1.26337 1.80003 0.23142
v 1.21722 1.90551 0.38359
v 1.46449 2.00991 0.34002
v 1.16113 2.03791 0.38100
v 1.42146 2.11343 0.32398
v 1.12077 2.14123 0.23400
v 1.39224 2.17975 0.20009
v 0.86652 1.52089 0.24929
v 1.05473 1.66145 0.24711
v 0.74809 1.65700 0.42800
v 0.96652 1.78730 0.41369
v 0.60399 1.87223 0.42787
v 0.88124 1.96510 0.41146
v 0.51476 2.03617 0.26160
v 0.83717 2.10166 0.25174
v 0.54057 1.23032 0.24213
v 0.70087 1.37818 0.25142
v 0.41193 1.33493 0.40971
v 0.57104 1.51303 0.42569
v 0.22876 1.44042 0.41147
v 0.37366 1.69777 0.42792
v 0.08264 1.49338 0.25442
v 0.22099 1.82455 0.26267
v 0.42790 0.90879 0.21752
v 0.42995 1.06841 0.22676
v 0.31645 0.86852 0.35205
v 0.30139 1.10128 0.37480
v 0.18835 0.82253 0.36620
v 0.15836 1.12805 0.38175
v 0.09322 0.78919 0.23880
v 0.04472 1.14341 0.24526
v 0.72357 0.74860 0.24010
v 0.53355 0.79794 0.22399
v 0.67648 0.59147 0.40474
v 0.44945 0.68994 0.37308
v 0.61124 0.40495 0.41033
v 0.34999 0.56895 0.38327
v 0.54500 0.26488 0.25248
v 0.26814 0.47580 0.24414
v 0.85368 0.15784 0.25535
v 1.20193 0.72676 0.25206
v 0.95750 0.73264 0.24909
v 1.18912 0.54839 0.44043
v 0.92856 0.56406 0.42842
v 1.16887 0.29451 0.44272
v 0.88867 0.32805 0.43171
v 1.15111 0.11199 0.25697
v 1.44568 0.28008 0.44713
v 1.44264 0.09428 0.25818
v 1.73401 0.09973 0.25748
v 1.70177 0.72568 0.25333
v 1.45212 0.72389 0.25296
v 1.71045 0.54362 0.44479
v 1.44975 0.54064 0.44313
v 1.72424 0.28452 0.44714
v 1.96870 0.56192 0.43508
v 2.00046 0.31074 0.43592
v 2.02655 0.13161 0.25568
v 2.26941 0.37033 0.42036
v 2.31572 0.21287 0.24957
v 2.19879 0.74665 0.24747
v 1.95079 0.73480 0.25241
v 2.22054 0.59245 0.41867
v 2.44489 0.76756 0.24111
v 2.47098 0.64106 0.39533
v 2.52640 0.47256 0.39499
v 2.72124 0.71426 0.35140
v 2.76947 0.60239 0.34362
v 2.80333 0.52320 0.21320
v 2.58080 0.34985 0.23993
v 2.69527 0.79920 0.23155
v 3.52631 0.34438 0.23458
v 2.52281 1.64829 0.25255
v 2.67848 1.49526 0.26800
v 3.08385 2.42503 0.21323
v 3.13794 2.35269 0.31464
v 3.28178 2.60297 0.23832
v 3.34380 2.49062 0.36026
v 3.41525 2.39116 0.23349
v 3.18604 2.29095 0.20873
v 3.48651 2.77144 0.28037
v 3.57320 2.62316 0.40341
v 3.66110 2.49023 0.26886
v 3.81551 2.76034 0.43472
v 3.91129 2.58950 0.29119
v 4.16615 2.68140 0.30071
v 4.09457 3.27406 0.38198
v 3.89236 3.11083 0.34237
v 4.31407 3.41275 0.42232
v 4.30093 3.01494 0.48787
v 4.42410 2.77238 0.31098
v 4.05653 2.88812 0.46412
v 3.68936 2.94224 0.31185
v 3.05574 2.13600 0.21272
v 3.12241 1.94918 0.24631
v 3.28195 1.75372 0.26457
v 3.14326 1.62878 0.45570
v 3.44804 1.57322 0.26186
v 3.32545 1.43687 0.45214
v 2.97884 1.46347 0.46875
v 2.84120 1.30961 0.27570
v 3.61275 1.41299 0.26009
v 3.48038 1.27216 0.45009
v 3.77150 1.25739 0.26240
v 3.62613 1.12410 0.45560
v 3.92856 1.09958 0.26926
v 3.78899 0.95864 0.46736
v 4.08205 0.94484 0.27415
v 3.95547 0.78883 0.47706
v 3.79254 0.60099 0.52656
v 4.12416 0.63137 0.47192
v 3.63330 0.44369 0.43186
v 4.24149 0.80621 0.28071
v 1.00479 2.80864 0.27498
v 0.69052 2.94994 0.29834
v 0.86610 3.12000 0.50388
v 0.65178 3.35927 0.51788
v 0.97807 3.50640 0.51550
v 0.91492 3.72301 0.50611
v 1.17822 3.77417 0.29907
v 1.14594 3.94609 0.26855
v 2.54616 3.88029 0.47151
v 2.73576 3.72629 0.48266
v 2.56999 3.56335 0.30086
vn -0.03159 -0.66591 -0.74536
vn 0.26562 -0.43223 -0.86175
vn 0.47429 -0.73849 -0.47926
vn -0.03399 -0.90288 -0.42855
vn -0.49114 -0.76118 -0.42354
vn -0.29631 -0.52842 -0.79559
vn 0.03614 -0.18053 -0.98291
vn 0.55877 0.07652 -0.82579
vn 0.42387 -0.10630 -0.89946
vn 0.31741 0.03957 -0.94746
vn 0.69198 0.40330 -0.59876
vn -0.11930 0.35291 -0.92802
vn -0.17207 0.45632 -0.87302
vn -0.34061 0.49494 -0.79938
vn 0.04429 0.42411 -0.90453
vn -0.04373 0.21095 -0.97652
vn -0.14605 0.42144 -0.89502
vn 0.35972 0.29953 -0.88368
vn 0.13512 -0.60358 -0.78577
vn -0.04863 -0.22357 -0.97347
vn -0.07125 -0.13343 -0.98849
vn -0.12636 -0.58052 -0.80438
vn 0.32654 -0.84509 -0.42331
vn 0.37558 -0.72691 -0.57493
vn -0.21520 -0.87645 -0.43072
vn 0.23691 -0.92823 -0.28683
vn 0.46994 -0.82283 -0.31954
vn 0.49365 -0.86966 0.00197
vn 0.24206 -0.97025 0.00445
vn -0.16999 -0.47398 -0.86397
vn -0.49200 -0.60857 -0.62255
vn -0.09807 -0.30675 -0.94672
vn 0.04882 -0.38984 -0.91959
vn -0.80182 -0.07996 -0.59219
vn -0.54867 -0.27771 -0.78857
vn -0.19258 -0.06961 -0.97881
vn -0.42999 -0.08985 -0.89835
vn -0.45775 0.63087 -0.62647
vn -0.56455 0.72044 -0.40280
vn -0.93471 0.35539 0.00411
vn -0.35741 -0.37330 -0.85610
vn -0.14378 -0.06796 -0.98727
vn 0.04126 -0.17202 -0.98423
vn -0.50298 -0.42311 -0.75365
vn -0.68865 -0.61295 -0.38736
vn -0.65163 -0.66486 -0.36516
vn -0.13483 -0.04515 -0.98984
vn 0.06455 -0.88786 -0.45556
vn 0.04032 -0.95610 -0.29025
vn 0.34971 -0.88321 -0.31246
vn 0.32562 -0.81196 -0.48445
vn 0.91445 0.11139 -0.38906
vn 0.74745 0.40642 -0.52550
vn 0.83963 0.54315 0.00221
vn 0.99276 0.12009 0.00240
vn 0.80604 -0.30842 -0.50514
vn 0.53441 0.00322 -0.84522
vn 0.90538 -0.42459 0.00003
vn 0.63192 -0.72239 -0.28078
vn 0.66065 -0.75065 0.00842
vn 0.50945 -0.86049 0.00433
vn 0.39247 -0.66658 -0.63376
vn 0.32840 -0.36762 -0.87007
vn 0.09829 -0.12659 -0.98707
vn 0.19612 -0.07983 -0.97732
vn 0.93303 0.04841 -0.35653
vn 0.84919 0.28956 -0.44162
vn 0.14271 0.61882 -0.77246
vn 0.15062 0.84245 -0.51729
vn -0.17689 -0.02286 -0.98396
vn -0.10251 -0.09378 -0.99030
vn -0.16499 0.18950 -0.96792
vn -0.82363 0.35112 -0.44535
vn -0.88769 0.35569 -0.29238
vn -0.93537 0.35368 0.00031
vn -0.68426 -0.65231 -0.32600
vn -0.70577 -0.70843 -0.00497
vn -0.53643 -0.84394 -0.00273
vn -0.51471 -0.76478 -0.38754
vn -0.47831 -0.67220 -0.56512
vn -0.64132 -0.58392 -0.49774
vn 0.03554 -0.21382 -0.97623
vn -0.31183 -0.83031 -0.46189
vn -0.27812 -0.71304 -0.64360
vn 0.09927 -0.17440 -0.97966
vn 0.61110 0.40735 -0.67869
vn 0.73676 0.46997 -0.48612
vn 0.77264 0.48474 -0.40994
vn 0.67889 0.44271 -0.58576
vn 0.07620 -0.11864 -0.99001
vn 0.55843 0.37972 -0.73754
vn 0.70589 0.45573 -0.54225
vn 0.84922 0.52805 0.00003
vn 0.85058 0.52584 0.00045
vn 0.29863 0.14808 -0.94281
vn 0.68939 0.43117 -0.58209
vn 0.85579 0.51732 -0.00012
vn 0.70649 0.37562 -0.59982
vn 0.82295 0.44283 -0.35588
vn -0.26986 0.96290 0.00013
vn -0.25167 0.93211 -0.26044
vn -0.41860 0.83815 -0.34969
vn -0.46664 0.88445 -0.00002
vn -0.12718 0.99188 0.00021
vn -0.12418 0.96582 -0.22754
vn -0.11984 0.92936 -0.34918
vn -0.23004 0.88808 -0.39799
vn 0.00281 1.00000 0.00026
vn 0.00482 0.96571 -0.25958
vn 0.00504 0.92121 -0.38904
vn -0.22239 0.01408 -0.97486
vn 0.00821 0.03726 -0.99927
vn 0.09589 0.93298 -0.34693
vn 0.09813 0.86023 -0.50037
vn -0.24417 0.06830 -0.96732
vn -0.54503 -0.67443 -0.49809
vn -0.60395 -0.72304 -0.33535
vn -0.39908 -0.87882 -0.26155
vn -0.36775 -0.83142 -0.41652
vn -0.15868 0.06845 -0.98495
vn -0.50457 -0.60383 -0.61708
vn -0.58946 -0.67989 -0.43622
vn -0.66527 -0.74660 0.00073
vn -0.64827 -0.76141 0.00076
vn -0.47148 -0.54879 -0.69032
vn -0.57394 -0.64481 -0.50479
vn -0.67488 -0.73793 0.00000
vn -0.58586 -0.59269 -0.55272
vn -0.70926 -0.70495 0.00016
vn 0.84252 0.53865 0.00225
vn 0.46941 0.66494 -0.58095
vn 0.57476 0.81832 0.00016
vn 0.99914 0.04152 0.00008
vn 0.96160 0.04549 -0.27066
vn 0.86764 -0.49719 -0.00240
vn 0.82658 -0.46966 -0.31013
vn 0.15869 0.24943 -0.95530
vn 0.08787 0.34832 -0.93325
vn 0.29563 0.79053 -0.53635
vn 0.34925 0.93703 -0.00002
vn 0.15678 0.70606 -0.69058
vn 0.18922 0.84829 -0.49456
vn 0.21817 0.97591 -0.00001
vn 0.13764 0.88851 -0.43773
vn 0.14889 0.98885 0.00013
vn -0.41914 -0.90792 -0.00006
vn 0.13235 -0.99120 -0.00015
vn 0.13412 -0.95963 -0.24721
vn 0.68956 -0.72423 -0.00069
vn 0.65008 -0.69710 -0.30241
vn 0.58651 -0.63898 -0.49770
vn 0.13213 -0.89851 -0.41859
vn 0.87686 -0.24790 -0.41190
vn 0.73867 -0.22927 -0.63388
vn 0.17382 0.19134 -0.96601
vn 0.11903 0.29352 -0.94851
vn 0.01765 0.24389 -0.96964
vn -0.26161 0.39578 -0.88030
vn -0.35942 0.76812 -0.52991
vn -0.65625 0.59021 -0.47010
vn -0.31809 0.12019 -0.94041
vn -0.81195 0.13306 -0.56836
vn -0.99014 0.14010 0.00001
vn -0.76425 0.64492 0.00015
vn -0.70613 -0.38526 -0.59410
vn -0.87986 -0.47524 -0.00037
vn 0.85465 0.51920 0.00006
vn 0.85507 0.51851 -0.00024
vn 0.80223 0.48478 -0.34845
vn 0.85023 0.52641 -0.00019
vn 0.81029 0.47806 -0.33894
vn 0.74321 0.41450 -0.52519
vn 0.73559 0.44231 -0.51310
vn 0.81250 0.58296 -0.00014
vn 0.76642 0.53837 -0.35035
vn 0.68119 0.46671 -0.56406
vn 0.60571 0.79568 -0.00033
vn 0.56295 0.72418 -0.39832
vn 0.48233 0.60892 -0.62974
vn -0.51488 -0.54802 -0.65922
vn -0.53787 -0.51909 -0.66426
vn -0.64817 -0.62651 -0.43284
vn -0.60507 -0.68124 -0.41206
vn -0.71965 -0.69434 0.00005
vn -0.64839 -0.76131 0.00012
vn -0.57502 -0.81814 -0.00001
vn 0.19136 -0.98152 -0.00016
vn 0.37602 -0.92661 0.00053
vn 0.55792 -0.82989 0.00047
vn 0.51194 -0.79112 -0.33473
vn 0.57650 -0.81710 -0.00036
vn 0.51047 -0.75412 -0.41320
vn 0.43757 -0.67808 -0.59054
vn 0.45764 -0.73770 -0.49635
vn 0.06665 0.20045 -0.97743
vn 0.11613 0.10108 -0.98808
vn -0.16854 0.85439 -0.49155
vn -0.09508 0.80643 -0.58363
vn -0.10362 0.91079 -0.39966
vn -0.17359 0.92654 -0.33376
vn -0.24556 0.92271 -0.29718
vn -0.24364 0.86429 -0.44004
vn -0.10940 0.99400 -0.00003
vn -0.17607 0.98438 0.00030
vn -0.24566 0.96936 0.00064
vn 0.59504 -0.80370 -0.00022
vn 0.62543 -0.78028 0.00002
vn 0.53526 -0.67753 -0.50443
vn 0.51205 -0.71526 -0.47562
vn 0.43274 -0.55878 -0.70747
vn 0.42105 -0.61409 -0.66754
vn 0.06967 0.04565 -0.99652
vn 0.02283 0.01337 -0.99965
vn -0.12817 0.73659 -0.66409
vn -0.27721 0.62064 -0.73346
vn -0.34905 0.79133 -0.50197
vn -0.14478 0.87891 -0.45448
vn -0.40062 0.91625 -0.00004
vn -0.15599 0.98776 -0.00007
vn 0.64812 -0.76154 -0.00015
vn 0.72848 -0.68507 0.00039
vn 0.64981 -0.59526 -0.47266
vn 0.56342 -0.65481 -0.50378
vn 0.53885 -0.47589 -0.69511
vn 0.45712 -0.52370 -0.71887
vn -0.01547 -0.03000 -0.99943
vn -0.02029 -0.08728 -0.99598
vn -0.51590 0.40713 -0.75372
vn -0.68700 0.17903 -0.70426
vn -0.85379 0.21592 -0.47373
vn -0.67243 0.53069 -0.51595
vn -0.97078 0.23998 0.00010
vn -0.78498 0.61952 0.00003
vn 0.94324 -0.33210 0.00032
vn 0.99955 -0.02986 -0.00045
vn 0.83206 0.32436 -0.44996
vn 0.84490 -0.29296 -0.44758
vn 0.68511 0.25609 -0.68194
vn 0.69905 -0.23696 -0.67467
vn 0.03327 -0.09418 -0.99500
vn 0.05083 0.01979 -0.99851
vn -0.76161 -0.01406 -0.64788
vn -0.73414 -0.24787 -0.63214
vn -0.86261 -0.29055 -0.41410
vn -0.90307 -0.02014 -0.42902
vn -0.94787 -0.31864 -0.00016
vn -0.99968 -0.02533 -0.00000
vn 0.46459 0.88552 -0.00017
vn 0.11159 0.99375 0.00038
vn 0.10490 0.87594 -0.47087
vn 0.42812 0.78204 -0.45291
vn 0.69991 0.71423 -0.00145
vn 0.09476 0.72522 -0.68197
vn 0.36836 0.63565 -0.67843
vn -0.02398 0.10302 -0.99439
vn -0.07431 0.06998 -0.99478
vn -0.57036 -0.48631 -0.66197
vn -0.34676 -0.63252 -0.69258
vn -0.42793 -0.77309 -0.46820
vn -0.68480 -0.58317 -0.43700
vn -0.48693 -0.87344 -0.00003
vn -0.76169 -0.64794 0.00006
vn -0.22160 -0.84392 -0.48856
vn -0.25833 -0.96606 -0.00029
vn 0.02192 0.99976 -0.00014
vn 0.00745 0.99997 0.00004
vn 0.00896 0.86447 -0.50260
vn 0.01843 0.87000 -0.49272
vn 0.01034 0.72478 -0.68890
vn 0.01442 0.72539 -0.68819
vn -0.05888 0.02860 -0.99786
vn -0.02696 0.01482 -0.99953
vn -0.17661 -0.69029 -0.70164
vn -0.07963 -0.70771 -0.70200
vn -0.09914 -0.86019 -0.50025
vn -0.01699 -0.71309 -0.70086
vn -0.01995 -0.86352 -0.50392
vn -0.02256 -0.99975 0.00000
vn -0.11642 -0.99320 -0.00013
vn 0.05976 -0.86185 -0.50363
vn 0.06764 -0.99771 0.00004
vn -0.00051 1.00000 -0.00002
vn -0.01546 0.99988 0.00002
vn -0.01635 0.86265 -0.50554
vn -0.00007 0.86146 -0.50782
vn -0.01707 0.72334 -0.69029
vn 0.00034 0.72255 -0.69132
vn -0.00800 0.01257 -0.99989
vn 0.01745 0.01092 -0.99979
vn 0.04862 0.01271 -0.99874
vn 0.05078 -0.71065 -0.70171
vn 0.14429 -0.69744 -0.70197
vn 0.17532 -0.84901 -0.49844
vn 0.27296 -0.67445 -0.68601
vn 0.33297 -0.81266 -0.47825
vn 0.38216 -0.92410 -0.00001
vn 0.20192 -0.97940 -0.00003
vn -0.02704 0.99963 -0.00002
vn -0.04300 0.99908 -0.00004
vn -0.04653 0.87951 -0.47361
vn -0.02832 0.86837 -0.49510
vn -0.04894 0.74244 -0.66812
vn -0.02904 0.72839 -0.68455
vn -0.07681 0.89712 -0.43505
vn -0.07950 0.76784 -0.63569
vn 0.07330 0.02134 -0.99708
vn 0.13118 0.02888 -0.99094
vn 0.17701 -0.02596 -0.98387
vn 0.43021 -0.64431 -0.63229
vn 0.53839 -0.65144 -0.53456
vn 0.60731 -0.71411 -0.34817
vn 0.50576 -0.74840 -0.42907
vn 0.65588 -0.75487 -0.00010
vn 0.56307 -0.82641 -0.00011
vn -0.07107 0.99747 0.00008
vn -0.13382 0.99101 0.00073
vn -0.15296 0.91585 -0.37125
vn -0.18129 0.98343 0.00130
vn -0.16492 0.80114 -0.57531
vn 0.01521 -0.99988 0.00120
vn 0.66679 -0.74524 0.00013
vn -0.70287 -0.71131 0.00128
vn -0.75122 -0.66006 0.00064
vn -0.68389 -0.59692 -0.41950
vn -0.75707 -0.65333 -0.00015
vn -0.72548 -0.68824 -0.00021
vn -0.62731 -0.60383 -0.49180
vn -0.64039 -0.56421 -0.52112
vn -0.74257 -0.66977 -0.00013
vn 0.14649 0.98921 0.00304
vn -0.40356 0.91495 0.00136
vn -0.40089 0.88693 -0.22945
vn -0.68466 0.72886 -0.00196
vn -0.67579 0.71368 -0.18429
vn -0.70740 0.70681 0.00019
vn -0.62501 0.62368 -0.46945
vn -0.48788 0.48510 -0.72571
vn -0.69178 0.72211 0.00013
vn -0.61154 0.62475 -0.48551
vn -0.49175 0.48445 -0.72353
vn 0.24813 -0.69480 -0.67504
vn 0.30280 -0.84438 -0.44196
vn 0.55731 -0.74520 -0.36617
vn 0.50823 -0.63732 -0.57924
vn -0.57610 0.59575 -0.55964
vn -0.42241 0.42351 -0.80138
vn 0.20468 -0.63257 -0.74697
vn 0.26994 -0.81504 -0.51269
vn 0.31950 -0.94759 -0.00015
vn 0.34040 -0.94028 0.00006
vn 0.19092 -0.57826 -0.79320
vn 0.26141 -0.78373 -0.56342
vn 0.31783 -0.94815 -0.00026
vn 0.24854 -0.76557 -0.59341
vn 0.30792 -0.95141 -0.00001
vn -0.62147 0.67608 -0.39584
vn -0.65243 0.67382 -0.34684
vn -0.69708 0.71700 -0.00032
vn -0.49891 0.73885 -0.45299
vn -0.06868 0.19425 -0.97855
vn -0.23252 0.19815 -0.95219
vn -0.11280 0.99362 -0.00201
vn -0.10380 0.91546 -0.38880
vn 0.04192 0.21688 -0.97530
vn 0.17437 -0.51285 -0.84058
vn 0.25176 -0.74392 -0.61903
vn 0.17914 -0.54783 -0.81719
vn -0.30896 0.26736 -0.91272
vn -0.35679 0.34724 -0.86725
vn -0.65919 0.68823 -0.30301
vn -0.68870 0.72504 0.00017
vn -0.69179 0.72210 0.00011
vn 0.57894 -0.81537 -0.00045
vn 0.75880 -0.65133 -0.00074
vn 0.74321 -0.59442 -0.30710
vn 0.82847 0.36689 -0.42313
vn 0.90672 0.42173 -0.00239
vn 0.83478 0.55058 -0.00148
vn 0.74225 0.48357 -0.46392
vn 0.70120 -0.51655 -0.49141
vn 0.73348 0.67971 -0.00046
vn 0.63373 0.58881 -0.50169
vn 0.52268 0.48818 -0.69892
vn 0.61519 0.59603 -0.51602
vn 0.31215 0.29445 -0.90325
vn 0.02485 0.08415 -0.99614
vn 0.06455 0.06309 -0.99592
vn -0.53797 -0.39533 -0.74451
vn -0.68642 -0.51237 -0.51604
vn -0.50523 -0.43053 -0.74792
vn -0.83606 -0.54864 0.00104
vn -0.79830 -0.60227 0.00052
vn 0.59503 0.60666 -0.52716
vn 0.29959 0.31835 -0.89939
vn 0.58600 0.61110 -0.53212
vn 0.28868 0.34774 -0.89204
vn 0.58604 0.61015 -0.53318
vn 0.30155 0.35659 -0.88426
vn 0.57400 0.61879 -0.53631
vn 0.31702 0.33752 -0.88633
vn -0.07829 -0.07566 -0.99406
vn 0.36344 0.24908 -0.89770
vn -0.45789 -0.41893 -0.78411
vn 0.59434 0.59147 -0.54491
vn 0.69750 0.71659 -0.00008
vn 0.68150 0.73182 -0.00008
vn 0.69808 0.71602 -0.00002
vn 0.69582 0.71821 0.00001
vn 0.69577 0.71827 0.00001
vn 0.71001 0.70419 -0.00021
vn 0.31998 -0.94742 -0.00003
vn -0.49361 -0.48407 -0.72251
vn -0.53520 -0.84473 -0.00001
vn -0.04242 -0.99910 -0.00019
vn 0.52123 -0.85341 -0.00045
vn -0.37091 -0.92867 0.00017
vn -0.31827 -0.80171 -0.50594
vn -0.34066 -0.94019 -0.00008
vn -0.55130 -0.83431 -0.00010
vn -0.45150 -0.70339 -0.54899
vn -0.16202 -0.32907 -0.93030
vn -0.26264 -0.66805 -0.69622
vn -0.26264 -0.14226 -0.95435
vn 0.28088 0.14979 -0.94798
vn 0.30376 0.16699 -0.93800
vn 0.76606 0.29231 -0.57246
vn 0.68434 0.07524 -0.72527
vn 0.85437 0.11862 -0.50594
vn 0.98757 0.15716 0.00118
vn 0.92466 0.38079 -0.00085
vn 0.96739 -0.25329 0.00118
vn 0.09222 0.99574 0.00034
vn 0.12566 0.77735 -0.61639
vn -0.10046 0.05193 -0.99359
vn -0.28414 -0.23962 -0.92836
vn -0.25924 -0.21926 -0.94060
vn -0.59835 -0.54128 -0.59076
vn -0.69636 -0.62890 -0.34579
vn -0.65075 -0.75928 0.00273
vn -0.51430 -0.80486 -0.29614
vn -0.53536 -0.84461 0.00537
vn 0.70384 0.50975 -0.49473
vn 0.21080 0.97753 0.00000
vn -0.04156 -0.89900 0.43597
vn 0.46596 -0.73984 0.48530
vn 0.25491 -0.43239 0.86491
vn -0.04127 -0.65995 0.75018
vn -0.29228 -0.52829 0.79717
vn -0.48825 -0.76120 0.42683
vn 0.03618 -0.18174 0.98268
vn 0.69781 0.40053 0.59383
vn 0.32609 0.03996 0.94449
vn 0.43829 -0.10636 0.89252
vn 0.58385 0.07576 0.80832
vn -0.21108 0.41856 0.88332
vn -0.33929 0.49175 0.80191
vn -0.19768 0.45625 0.86762
vn -0.14274 0.35186 0.92510
vn -0.18908 0.42229 0.88652
vn -0.07015 0.21129 0.97490
vn 0.02972 0.17554 0.98402
vn -0.08320 -0.58677 0.80547
vn -0.02617 -0.10473 0.99416
vn -0.04672 -0.21343 0.97584
vn 0.14933 -0.60573 0.78153
vn 0.33983 -0.73662 0.58473
vn 0.31303 -0.85129 0.42109
vn -0.20919 -0.88191 0.42247
vn 0.46490 -0.82410 0.32362
vn 0.22623 -0.92822 0.29534
vn 0.04672 -0.40821 0.91169
vn -0.09968 -0.31567 0.94362
vn -0.48985 -0.61508 0.61784
vn -0.17535 -0.50832 0.84313
vn -0.44877 -0.10348 0.88764
vn -0.19749 -0.06168 0.97836
vn -0.56101 -0.26012 0.78588
vn -0.80645 -0.08804 0.58471
vn -0.84440 0.34770 0.40756
vn -0.68448 0.30759 0.66097
vn -0.14317 -0.06780 0.98737
vn -0.36316 -0.37381 0.85345
vn 0.03570 -0.16957 0.98487
vn -0.65035 -0.66660 0.36427
vn -0.68758 -0.61434 0.38705
vn -0.50406 -0.42357 0.75267
vn -0.13527 -0.04473 0.98980
vn 0.33528 -0.80338 0.49211
vn 0.35446 -0.87956 0.31740
vn 0.04787 -0.95290 0.29948
vn 0.07860 -0.87894 0.47041
vn 0.75540 0.40292 0.51674
vn 0.91928 0.10825 0.37843
vn 0.54586 0.00429 0.83787
vn 0.81341 -0.30574 0.49486
vn 0.39138 -0.66334 0.63781
vn 0.63306 -0.71490 0.29691
vn 0.19546 -0.07862 0.97756
vn 0.09622 -0.12650 0.98729
vn 0.32680 -0.36758 0.87068
vn 0.92655 -0.00355 0.37615
vn 0.84869 0.26150 0.45973
vn 0.13338 0.84915 0.51103
vn 0.10615 0.63827 0.76246
vn -0.11137 -0.07794 0.99072
vn -0.18511 -0.01375 0.98262
vn -0.17113 0.18190 0.96831
vn -0.88442 0.35665 0.30100
vn -0.81481 0.35171 0.46086
vn -0.50766 -0.76831 0.38985
vn -0.67963 -0.65372 0.33281
vn -0.63446 -0.57314 0.51862
vn -0.46914 -0.67122 0.57391
vn 0.03167 -0.20957 0.97728
vn -0.27056 -0.71787 0.64145
vn -0.30635 -0.83309 0.46055
vn 0.09586 -0.17163 0.98049
vn 0.67076 0.44879 0.59049
vn 0.76892 0.48829 0.41271
vn 0.73501 0.47190 0.48690
vn 0.60915 0.40925 0.67930
vn 0.07577 -0.11829 0.99008
vn 0.70602 0.45507 0.54263
vn 0.55853 0.37840 0.73815
vn 0.68791 0.43159 0.58353
vn 0.29689 0.14868 0.94327
vn 0.82272 0.44375 0.35527
vn 0.70646 0.37677 0.59914
vn -0.42033 0.83756 0.34904
vn -0.25428 0.93151 0.26005
vn -0.12407 0.96567 0.22824
vn -0.23515 0.88717 0.39704
vn -0.11962 0.92902 0.35016
vn -0.00046 0.96553 0.26031
vn -0.00198 0.92084 0.38995
vn 0.01314 0.03244 0.99939
vn -0.22703 0.01351 0.97380
vn 0.08678 0.86158 0.50015
vn 0.08986 0.93349 0.34715
vn -0.24813 0.06786 0.96635
vn -0.35952 -0.83387 0.41881
vn -0.39245 -0.88148 0.26263
vn -0.59914 -0.72687 0.33569
vn -0.54327 -0.67640 0.49733
vn -0.15779 0.06821 0.98511
vn -0.58937 -0.68014 0.43594
vn -0.50668 -0.60362 0.61556
vn -0.57178 -0.64563 0.50619
vn -0.46647 -0.55013 0.69265
vn -0.58486 -0.59342 0.55298
vn 0.46832 0.66529 0.58143
vn 0.96194 0.03444 0.27107
vn 0.82453 -0.47649 0.30513
vn 0.29286 0.79060 0.53777
vn 0.08429 0.34765 0.93383
vn 0.15728 0.24916 0.95560
vn 0.18912 0.84802 0.49507
vn 0.15700 0.70519 0.69142
vn 0.13729 0.88858 0.43770
vn 0.13382 -0.95930 0.24868
vn 0.65777 -0.69229 0.29678
vn 0.13062 -0.89745 0.42132
vn 0.59776 -0.63545 0.48876
vn 0.76019 -0.21585 0.61279
vn 0.88444 -0.24062 0.39984
vn 0.16986 0.18735 0.96750
vn 0.11483 0.29688 0.94799
vn -0.25763 0.39849 0.88024
vn 0.38295 0.17540 0.90697
vn -0.65624 0.59043 0.46984
vn -0.36234 0.76760 0.52868
vn -0.81277 0.13267 0.56728
vn -0.31770 0.12050 0.94051
vn -0.70742 -0.38582 0.59220
vn 0.80213 0.48498 0.34840
vn 0.81117 0.47797 0.33697
vn 0.73480 0.44318 0.51347
vn 0.74591 0.41375 0.52194
vn 0.76658 0.53849 0.34984
vn 0.68189 0.46650 0.56338
vn 0.55919 0.72844 0.39584
vn 0.48032 0.61454 0.62580
vn -0.60309 -0.68288 0.41225
vn -0.65208 -0.62294 0.43213
vn -0.54367 -0.51465 0.66299
vn -0.51047 -0.55185 0.65945
vn 0.51046 -0.79135 0.33645
vn 0.51077 -0.75447 0.41217
vn 0.45335 -0.73880 0.49865
vn 0.43617 -0.68010 0.58926
vn 0.06728 0.19620 0.97825
vn 0.11926 0.10191 0.98762
vn -0.17232 0.92629 0.33509
vn -0.10231 0.91093 0.39968
vn -0.09306 0.80659 0.58375
vn -0.16560 0.85384 0.49350
vn -0.24631 0.86117 0.44466
vn -0.24834 0.92097 0.30025
vn 0.51349 -0.71493 0.47456
vn 0.53475 -0.67777 0.50465
vn 0.42339 -0.61406 0.66609
vn 0.43173 -0.55914 0.70779
vn 0.06975 0.04563 0.99652
vn 0.02256 0.01377 0.99965
vn -0.14481 0.87831 0.45564
vn -0.34804 0.79146 0.50246
vn -0.27506 0.62056 0.73434
vn -0.12758 0.73484 0.66613
vn 0.56314 -0.65562 0.50302
vn 0.64927 -0.59381 0.47523
vn 0.45716 -0.52505 0.71787
vn 0.53677 -0.47300 0.69867
vn -0.01575 -0.03065 0.99941
vn -0.02241 -0.08306 0.99629
vn -0.67290 0.53225 0.51373
vn -0.85410 0.21622 0.47303
vn -0.68801 0.17990 0.70305
vn -0.51789 0.41095 0.75027
vn 0.84514 -0.29043 0.44876
vn 0.83402 0.32608 0.44507
vn 0.69890 -0.23312 0.67616
vn 0.69001 0.25944 0.67570
vn 0.03758 -0.08909 0.99531
vn 0.06154 0.02412 0.99781
vn -0.90296 -0.02129 0.42920
vn -0.86303 -0.29095 0.41295
vn -0.73526 -0.24881 0.63046
vn -0.76132 -0.01617 0.64817
vn 0.43041 0.78108 0.45239
vn 0.10639 0.87417 0.47381
vn 0.37125 0.63452 0.67791
vn 0.09617 0.72099 0.68624
vn -0.01940 0.10250 0.99454
vn -0.07474 0.06622 0.99500
vn -0.68519 -0.58291 0.43673
vn -0.42825 -0.77261 0.46869
vn -0.34723 -0.63132 0.69345
vn -0.57120 -0.48607 0.66142
vn -0.22151 -0.84409 0.48832
vn 0.01828 0.87000 0.49271
vn 0.00900 0.86446 0.50262
vn 0.01458 0.72520 0.68838
vn 0.01033 0.72481 0.68888
vn -0.05971 0.02967 0.99777
vn -0.02682 0.01455 0.99953
vn -0.09910 -0.86025 0.50015
vn -0.07965 -0.70768 0.70203
vn -0.17663 -0.69027 0.70166
vn -0.01996 -0.86350 0.50395
vn -0.01700 -0.71304 0.70092
vn 0.05984 -0.86175 0.50379
vn -0.00010 0.86151 0.50774
vn -0.01638 0.86265 0.50553
vn 0.00031 0.72266 0.69120
vn -0.01708 0.72337 0.69025
vn -0.00798 0.01237 0.99989
vn 0.01746 0.01086 0.99979
vn 0.04844 0.01252 0.99875
vn 0.17546 -0.84885 0.49867
vn 0.14462 -0.69694 0.70239
vn 0.05090 -0.71045 0.70190
vn 0.33364 -0.81211 0.47871
vn 0.27409 -0.67319 0.68680
vn -0.02803 0.86843 0.49502
vn -0.04705 0.87943 0.47370
vn -0.02858 0.72851 0.68444
vn -0.04970 0.74219 0.66835
vn -0.08382 0.76657 0.63667
vn -0.07880 0.89663 0.43571
vn 0.07310 0.02110 0.99710
vn 0.13307 0.03026 0.99064
vn 0.18428 -0.01995 0.98267
vn 0.50334 -0.74988 0.42933
vn 0.60542 -0.71548 0.34864
vn 0.53663 -0.65205 0.53560
vn 0.42635 -0.64631 0.63286
vn -0.15108 0.91661 0.37014
vn -0.20650 0.92212 0.32719
vn -0.16202 0.80401 0.57212
vn -0.22240 0.82194 0.52436
vn -0.68318 -0.59745 0.41990
vn -0.64195 -0.56334 0.52014
vn -0.63217 -0.59951 0.49088
vn -0.38438 0.89346 0.23233
vn -0.67055 0.71958 0.18048
vn -0.62587 0.62274 0.46955
vn -0.48881 0.48429 0.72562
vn -0.61379 0.62294 0.48498
vn -0.49356 0.48411 0.72253
vn 0.50674 -0.62694 0.59175
vn 0.55840 -0.74088 0.37321
vn 0.30608 -0.84309 0.44216
vn 0.25064 -0.69363 0.67532
vn -0.43018 0.41899 0.79962
vn -0.58034 0.59258 0.55862
vn 0.27016 -0.81496 0.51270
vn 0.20377 -0.63256 0.74722
vn 0.26249 -0.78310 0.56378
vn 0.19358 -0.57621 0.79404
vn 0.24993 -0.76496 0.59361
vn -0.65533 0.67131 0.34625
vn -0.61998 0.67794 0.39500
vn -0.49587 0.74352 0.44866
vn -0.23093 0.19853 0.95250
vn -0.07091 0.19374 0.97849
vn -0.10423 0.91705 0.38491
vn 0.04219 0.21915 0.97478
vn 0.18105 -0.54676 0.81748
vn 0.25213 -0.74338 0.61953
vn 0.17459 -0.51157 0.84132
vn -0.30152 0.27177 0.91391
vn -0.35756 0.34779 0.86671
vn -0.65930 0.68802 0.30322
vn 0.74043 -0.59068 0.32072
vn 0.74362 0.47838 0.46710
vn 0.83083 0.35418 0.42927
vn 0.71153 0.26370 0.65130
vn 0.62041 0.38248 0.68469
vn 0.69060 -0.50532 0.51742
vn 0.63347 0.58949 0.50121
vn 0.52271 0.48834 0.69879
vn 0.31164 0.29480 0.90331
vn 0.61513 0.59614 0.51598
vn 0.02511 0.08476 0.99609
vn 0.06394 0.06374 0.99592
vn -0.68727 -0.51151 0.51578
vn -0.54026 -0.39428 0.74341
vn -0.50897 -0.42860 0.74650
vn 0.29913 0.31817 0.89960
vn 0.59492 0.60671 0.52723
vn 0.28898 0.34764 0.89198
vn 0.58595 0.61111 0.53217
vn 0.30186 0.35661 0.88414
vn 0.58597 0.61014 0.53326
vn 0.31679 0.33750 0.88642
vn 0.57369 0.61868 0.53677
vn -0.07788 -0.07517 0.99412
vn 0.36463 0.24856 0.89736
vn -0.45685 -0.41916 0.78460
vn 0.59552 0.59098 0.54416
vn -0.50219 -0.47691 0.72136
vn -0.31613 -0.80223 0.50645
vn -0.45199 -0.70394 0.54788
vn -0.25920 -0.66875 0.69684
vn -0.16201 -0.32987 0.93002
vn -0.26331 -0.14274 0.95409
vn 0.28195 0.15089 0.94749
vn 0.30412 0.16531 0.93818
vn 0.76462 0.29367 0.57369
vn 0.85504 0.11952 0.50459
vn 0.12293 0.77795 0.61619
vn -0.10030 0.05186 0.99361
vn -0.28411 -0.24001 0.92826
vn -0.26038 -0.21889 0.94037
vn -0.59898 -0.54067 0.59068
vn -0.69606 -0.62922 0.34580
vn -0.50667 -0.80587 0.30637
vn 0.70012 0.50477 0.50502
f 1//1 11//2 12//3 13//4
f 1//1 13//4 14//5 15//6
f 1//1 15//6 16//7 11//2
f 17//8 18//9 19//10 20//11
f 2//12 9//13 21//14 22//15
f 24//16 25//17 9//13 2//12
f 2//12 22//15 23//18 24//16
f 3//19 26//20 27//21 28//22
f 30//23 31//24 26//20 3//19
f 3//19 28//22 29//25 30//23
f 4//26 34//27 33//28 32//29
f 4//30 35//31 36//32 34//33
f 5//34 38//35 39//36 40//37
f 5//34 40//37 41//38 42//39
f 5//34 42//39 314//40 37//40
f 6//41 40//37 39//36 43//42
f 6//41 44//43 41//43 40//37
f 6//41 45//44 46//45 47//46
f 6//41 43//42 48//47 45//44
f 6//48 47//49 49//50 44//51
f 7//52 52//53 51//54 50//55
f 7//52 53//56 54//57 52//53
f 7//52 50//55 315//58 53//56
f 8//59 55//60 316//61 57//62
f 8//63 57//62 58//64 59//65
f 8//66 59//67 56//67 55//66
f 9//13 25//17 63//68 64//69
f 10//70 65//71 27//21 26//20
f 10//70 26//20 31//72 66//72
f 10//73 66//73 67//74 68//74
f 68//74 67//74 69//75 317//75
f 68//76 317//77 70//78 71//79
f 68//76 71//79 72//80 10//81
f 72//82 73//82 65//71 10//70
f 72//80 71//79 74//83 75//84
f 72//82 75//85 76//85 73//82
f 76//86 77//87 78//88 73//89
f 76//85 75//85 79//90 80//90
f 76//86 80//91 81//92 77//87
f 81//92 318//93 82//94 77//87
f 81//92 80//91 83//95 84//96
f 81//92 84//96 319//97 318//93
f 319//97 84//96 85//98 320//99
f 322//100 88//101 89//102 321//103
f 322//100 323//104 90//105 88//101
f 90//105 91//106 92//107 88//101
f 90//105 323//104 324//108 93//109
f 90//105 93//109 94//110 91//106
f 94//111 95//111 96//112 91//112
f 94//110 93//109 97//113 98//114
f 94//111 98//115 99//115 95//111
f 99//116 100//117 101//118 95//119
f 99//115 98//115 102//120 103//120
f 99//116 103//121 104//122 100//117
f 104//122 105//123 106//124 100//117
f 104//122 103//121 107//125 108//126
f 104//122 108//126 325//127 105//123
f 325//127 108//126 109//128 326//129
f 112//130 20//11 113//131 110//132
f 112//130 114//133 17//134 20//11
f 114//133 115//135 18//136 17//134
f 115//135 33//28 34//27 18//136
f 113//131 116//137 117//138 118//139
f 113//131 118//139 111//140 110//132
f 113//131 20//11 19//10 116//137
f 118//139 117//138 119//141 120//142
f 118//139 120//142 121//143 111//140
f 121//143 120//142 122//144 327//145
f 123//146 124//147 125//148 101//118
f 123//146 101//118 100//117 106//124
f 125//148 124//147 328//149 126//150
f 125//148 126//150 127//151 96//152
f 125//148 96//152 95//119 101//118
f 127//151 126//150 128//153 129//154
f 127//155 129//156 130//156 92//155
f 127//155 92//155 91//112 96//112
f 130//156 129//156 131//157 132//158
f 130//159 132//158 133//160 89//102
f 130//159 89//102 88//101 92//107
f 133//160 132//158 134//161 135//162
f 133//160 135//162 136//163 87//164
f 133//160 87//164 321//103 89//102
f 136//163 135//162 137//165 329//166
f 138//167 330//168 139//169 78//88
f 138//167 78//88 77//87 82//94
f 139//169 330//168 331//170 140//171
f 139//169 140//171 27//172 65//173
f 139//169 65//173 73//89 78//88
f 140//171 331//170 141//174 142//175
f 140//171 142//175 28//176 27//172
f 142//175 141//174 143//177 144//178
f 142//175 144//178 145//179 28//176
f 145//179 144//178 64//69 63//68
f 145//180 63//181 146//182 147//183
f 145//180 147//183 29//25 28//22
f 147//183 146//182 332//184 148//185
f 147//183 148//185 149//186 29//25
f 149//187 150//188 30//23 29//25
f 150//188 333//189 151//190 30//23
f 151//190 333//189 152//191 153//192
f 151//190 153//192 154//193 155//194
f 151//190 155//194 31//24 30//23
f 155//195 154//196 156//196 157//195
f 155//195 157//195 66//72 31//72
f 157//197 156//198 158//199 159//200
f 157//197 159//200 67//201 66//202
f 159//200 158//199 160//203 161//204
f 159//200 161//204 69//205 67//201
f 162//206 334//207 163//208 164//209
f 162//206 164//209 153//192 152//191
f 164//209 163//208 165//210 166//211
f 164//209 166//211 154//193 153//192
f 166//212 165//213 167//213 168//212
f 166//212 168//212 156//196 154//196
f 168//214 167//215 169//216 170//217
f 168//214 170//217 158//199 156//198
f 170//217 169//216 171//218 172//219
f 170//217 172//219 160//203 158//199
f 336//220 335//221 173//222 174//223
f 336//220 174//223 163//208 334//207
f 174//223 173//222 175//224 176//225
f 174//223 176//225 165//210 163//208
f 176//226 175//227 177//227 178//226
f 176//226 178//226 167//213 165//213
f 178//228 177//229 179//230 180//231
f 178//228 180//231 169//216 167//215
f 180//231 179//230 337//232 338//233
f 180//231 338//233 171//218 169//216
f 339//234 181//235 182//236 183//237
f 339//234 183//237 173//222 335//221
f 183//237 182//236 184//238 185//239
f 183//237 185//239 175//224 173//222
f 185//240 184//241 186//241 187//240
f 185//240 187//240 177//227 175//227
f 187//242 186//243 188//244 189//245
f 187//242 189//245 179//230 177//229
f 189//245 188//244 340//246 341//247
f 189//245 341//247 337//232 179//230
f 191//248 190//249 192//250 193//251
f 191//248 193//251 182//236 181//252
f 193//251 192//250 194//253 195//254
f 193//251 195//254 184//238 182//236
f 195//255 194//256 196//256 197//255
f 195//255 197//255 186//241 184//241
f 197//257 196//258 198//259 199//260
f 197//257 199//260 188//244 186//243
f 199//260 198//259 200//261 342//262
f 199//260 342//262 340//246 188//244
f 200//261 198//259 201//263 343//264
f 204//265 203//266 205//267 206//268
f 204//265 206//268 192//250 190//249
f 206//268 205//267 207//269 208//270
f 206//268 208//270 194//253 192//250
f 208//271 207//272 209//272 210//271
f 208//271 210//271 196//256 194//256
f 210//273 209//274 211//275 201//263
f 210//273 201//263 198//259 196//258
f 211//275 209//274 212//276 213//277
f 211//275 213//277 214//278 202//279
f 211//275 202//279 343//264 201//263
f 214//278 213//277 215//280 216//281
f 217//282 344//283 218//284 219//285
f 217//282 219//285 205//267 203//266
f 219//285 218//284 220//286 221//287
f 219//285 221//287 207//269 205//267
f 221//288 220//289 222//289 212//288
f 221//288 212//288 209//272 207//272
f 222//289 220//289 223//290 224//290
f 222//291 224//292 225//293 215//280
f 222//291 215//280 213//277 212//276
f 225//293 224//292 226//294 227//295
f 225//293 227//295 228//296 229//297
f 225//293 229//297 216//281 215//280
f 346//298 345//299 230//300 231//301
f 346//298 231//301 218//284 344//283
f 231//301 230//300 232//302 223//303
f 231//301 223//303 220//286 218//284
f 232//302 230//300 233//304 234//305
f 232//306 234//307 235//307 226//306
f 232//306 226//306 224//290 223//290
f 235//307 234//307 236//308 237//308
f 235//309 237//310 238//311 239//312
f 235//309 239//312 227//295 226//294
f 239//312 238//311 347//313 348//314
f 239//312 348//314 228//296 227//295
f 350//315 349//316 240//317 233//304
f 350//315 233//304 230//300 345//299
f 240//317 349//316 314//318 42//39
f 240//317 42//39 41//38 236//319
f 240//317 236//319 234//305 233//304
f 351//320 49//50 47//49 241//320
f 351//321 347//313 238//311 49//50
f 241//322 47//46 46//45 352//323
f 352//323 46//45 242//324 353//325
f 354//326 244//327 245//328 355//329
f 354//326 332//184 146//182 244//327
f 246//330 247//331 9//332 64//69
f 246//330 64//69 144//178 143//177
f 247//331 248//333 21//334 9//332
f 248//333 356//335 249//336 21//334
f 249//336 250//337 22//15 21//14
f 249//336 356//335 357//338 251//339
f 249//336 251//339 252//340 250//337
f 252//341 253//342 254//343 250//344
f 252//340 251//339 255//345 256//346
f 252//341 256//347 257//348 253//342
f 257//348 258//349 259//350 253//342
f 257//348 256//347 260//351 261//352
f 257//348 261//352 358//353 258//349
f 358//353 261//352 262//354 359//355
f 264//356 265//356 266//357 267//358
f 264//356 263//359 268//359 265//356
f 268//360 58//64 269//361 265//361
f 268//359 263//359 60//362 62//363
f 268//360 62//364 59//65 58//64
f 269//365 270//366 262//354 271//367
f 269//361 271//368 266//368 265//361
f 269//365 58//64 57//62 270//366
f 271//367 262//354 261//352 260//351
f 271//368 260//369 272//369 266//368
f 272//369 260//369 256//346 255//345
f 272//370 255//345 360//371 273//372
f 272//370 273//372 267//358 266//357
f 274//373 361//374 275//375 254//343
f 274//373 254//343 253//342 259//350
f 275//376 361//377 276//378 277//379
f 275//376 277//379 23//18 22//15
f 275//375 22//380 250//344 254//343
f 277//379 276//378 278//381 279//382
f 277//379 279//382 280//383 23//18
f 280//383 279//382 281//384 282//385
f 280//386 282//385 38//387 283//386
f 280//386 283//386 24//16 23//18
f 283//388 38//35 5//34 284//389
f 283//388 284//389 245//328 24//390
f 284//389 5//34 37//391 243//392
f 284//389 243//392 355//329 245//328
f 282//385 281//384 285//393 286//394
f 282//385 286//394 39//36 38//387
f 286//394 285//393 287//395 288//396
f 286//394 288//396 43//42 39//36
f 288//396 287//395 289//397 290//398
f 288//396 290//398 48//47 43//42
f 290//398 289//397 291//399 292//400
f 290//398 292//400 293//401 48//47
f 293//401 292//400 294//402 16//7
f 293//401 16//7 15//6 295//403
f 293//401 295//403 45//44 48//47
f 295//403 15//6 14//5 242//324
f 295//403 242//324 46//45 45//44
f 294//402 296//404 52//53 54//57
f 294//402 54//57 11//2 16//7
f 294//402 292//400 291//399 296//404
f 296//404 297//405 51//54 52//53
f 296//404 291//399 298//406 297//405
f 298//406 291//399 289//397 362//407
f 362//407 289//397 287//395 363//408
f 363//408 287//395 285//393 364//409
f 364//409 285//393 281//384 299//410
f 299//410 281//384 279//382 278//381
f 360//371 255//345 251//339 357//338
f 270//366 365//411 359//355 262//354
f 270//366 57//62 316//61 365//411
f 245//328 244//327 25//412 24//390
f 244//327 146//182 63//181 25//412
f 366//413 14//5 13//4 367//414
f 366//413 353//325 242//324 14//5
f 367//414 13//4 12//3 368//415
f 368//415 12//3 53//56 315//58
f 238//311 237//310 44//51 49//50
f 237//308 236//308 41//43 44//43
f 301//416 302//417 74//83 300//418
f 301//416 369//419 303//420 302//417
f 303//420 304//421 79//422 302//417
f 303//420 369//419 329//166 137//165
f 303//420 137//165 305//423 304//421
f 305//423 306//424 83//95 304//421
f 305//423 137//165 135//162 134//161
f 305//423 134//161 307//425 306//424
f 307//425 308//426 85//98 306//424
f 307//425 134//161 132//158 131//157
f 307//425 131//427 309//428 308//426
f 309//428 310//429 86//430 308//426
f 309//428 131//427 129//154 128//153
f 309//428 128//153 370//431 310//429
f 370//431 128//153 126//150 328//149
f 308//426 86//430 320//99 85//98
f 306//424 85//98 84//96 83//95
f 304//421 83//95 80//90 79//90
f 302//417 79//422 75//84 74//83
f 300//418 74//83 71//79 70//78
f 371//432 97//113 93//109 324//108
f 371//432 327//145 122//144 97//113
f 122//144 102//433 98//114 97//113
f 122//144 120//142 119//141 102//433
f 119//434 107//434 103//120 102//120
f 119//434 117//138 311//435 107//434
f 311//435 109//128 108//126 107//125
f 311//435 117//138 116//137 312//436
f 311//435 312//436 313//437 109//128
f 313//437 372//438 326//129 109//128
f 313//437 312//436 36//32 35//31
f 313//437 35//31 373//439 372//438
f 373//439 35//31 4//440 32//441
f 312//436 116//137 19//10 36//32
f 62//442 61//442 56//67 59//67
f 54//57 53//56 12//3 11//2
f 36//32 19//10 18//9 34//33
f 60//362 61//443 62//363
f 386//444 385//445 384//446 374//447
f 388//448 387//449 386//444 374//447
f 384//446 389//450 388//448 374//447
f 393//451 392//452 391//453 390//454
f 395//455 394//456 382//457 375//458
f 375//458 382//457 398//459 397//460
f 397//460 396//461 395//455 375//458
f 401//462 400//463 399//464 376//465
f 376//465 399//464 404//466 403//467
f 403//467 402//468 401//462 376//465
f 32//29 33//28 405//469 377//470
f 405//471 407//472 406//473 377//474
f 410//475 409//476 408//477 378//478
f 412//479 411//480 410//475 378//478
f 37//40 314//40 412//479 378//478
f 413//481 409//476 410//475 379//482
f 410//475 411//483 414//483 379//482
f 417//484 416//485 415//486 379//482
f 415//486 418//487 413//481 379//482
f 414//488 419//489 417//490 379//491
f 50//55 51//54 420//492 380//493
f 420//492 422//494 421//495 380//493
f 421//495 315//58 50//55 380//493
f 423//496 316//61 55//60 381//497
f 425//498 424//499 423//496 381//500
f 55//501 56//502 425//502 381//501
f 428//503 427//504 398//459 382//457
f 399//464 400//463 429//505 383//506
f 430//507 404//507 399//464 383//506
f 432//508 431//508 430//509 383//509
f 317//75 69//75 431//508 432//508
f 433//510 70//78 317//77 432//511
f 383//512 434//513 433//510 432//511
f 383//506 429//505 435//514 434//514
f 437//515 436//516 433//510 434//513
f 435//514 438//517 437//517 434//514
f 435//518 440//519 439//520 438//521
f 442//522 441//522 437//517 438//517
f 439//520 443//523 442//524 438//521
f 439//520 82//94 318//93 443//523
f 445//525 444//526 442//524 443//523
f 318//93 319//97 445//525 443//523
f 320//527 446//528 445//525 319//97
f 321//103 448//529 447//530 322//100
f 447//530 449//531 323//104 322//100
f 447//530 451//532 450//533 449//531
f 452//534 324//108 323//104 449//531
f 450//533 453//535 452//534 449//531
f 450//536 455//536 454//537 453//537
f 457//538 456//539 452//534 453//535
f 454//537 458//540 457//540 453//537
f 454//541 460//542 459//543 458//544
f 462//545 461//545 457//540 458//540
f 459//543 463//546 462//547 458//544
f 459//543 106//124 105//123 463//546
f 465//548 464//549 462//547 463//546
f 105//123 325//127 465//548 463//546
f 326//129 466//550 465//548 325//127
f 110//132 467//551 393//451 112//130
f 393//451 390//552 114//133 112//130
f 390//552 391//553 115//135 114//133
f 391//553 405//469 33//28 115//135
f 470//554 469//555 468//556 467//551
f 110//132 111//140 470//554 467//551
f 468//556 392//452 393//451 467//551
f 472//557 471//558 469//555 470//554
f 111//140 121//143 472//557 470//554
f 327//145 473//559 472//557 121//143
f 460//542 474//560 124//147 123//146
f 106//124 459//543 460//542 123//146
f 475//561 328//149 124//147 474//560
f 455//562 476//563 475//561 474//560
f 460//542 454//541 455//562 474//560
f 478//564 477//565 475//561 476//563
f 451//566 479//567 478//567 476//566
f 455//536 450//536 451//566 476//566
f 481//568 480//569 478//567 479//567
f 448//529 482//570 481//568 479//571
f 451//532 447//530 448//529 479//571
f 484//572 483//573 481//568 482//570
f 87//164 136//163 484//572 482//570
f 448//529 321//103 87//164 482//570
f 329//166 485//574 484//572 136//163
f 440//519 486//575 330//168 138//167
f 82//94 439//520 440//519 138//167
f 487//576 331//170 330//168 486//575
f 429//577 400//578 487//576 486//575
f 440//519 435//518 429//577 486//575
f 488//579 141//174 331//170 487//576
f 400//578 401//580 488//579 487//576
f 489//581 143//177 141//174 488//579
f 401//580 490//582 489//581 488//579
f 427//504 428//503 489//581 490//582
f 492//583 491//584 427//585 490//586
f 401//462 402//468 492//583 490//586
f 148//185 332//184 491//584 492//583
f 402//468 149//186 148//185 492//583
f 402//468 403//467 150//188 149//187
f 403//467 493//587 333//189 150//188
f 494//588 152//191 333//189 493//587
f 496//589 495//590 494//588 493//587
f 403//467 404//466 496//589 493//587
f 498//591 497//592 495//592 496//591
f 404//507 430//507 498//591 496//591
f 500//593 499//594 497//595 498//596
f 430//597 431//598 500//593 498//596
f 161//204 160//203 499//594 500//593
f 431//598 69//205 161//204 500//593
f 502//599 501//600 334//207 162//206
f 152//191 494//588 502//599 162//206
f 504//601 503//602 501//600 502//599
f 494//588 495//590 504//601 502//599
f 506//603 505//604 503//604 504//603
f 495//592 497//592 506//603 504//603
f 508//605 507//606 505//607 506//608
f 497//595 499//594 508//605 506//608
f 172//219 171//218 507//606 508//605
f 499//594 160//203 172//219 508//605
f 510//609 509//610 335//221 336//220
f 334//207 501//600 510//609 336//220
f 512//611 511//612 509//610 510//609
f 501//600 503//602 512//611 510//609
f 514//613 513//614 511//614 512//613
f 503//604 505//604 514//613 512//613
f 516//615 515//616 513//617 514//618
f 505//607 507//606 516//615 514//618
f 338//233 337//232 515//616 516//615
f 507//606 171//218 338//233 516//615
f 518//619 517//620 181//235 339//234
f 335//221 509//610 518//619 339//234
f 520//621 519//622 517//620 518//619
f 509//610 511//612 520//621 518//619
f 522//623 521//624 519//624 520//623
f 511//614 513//614 522//623 520//623
f 524//625 523//626 521//627 522//628
f 513//617 515//616 524//625 522//628
f 341//247 340//246 523//626 524//625
f 515//616 337//232 341//247 524//625
f 526//629 525//630 190//249 191//248
f 181//252 517//620 526//629 191//248
f 528//631 527//632 525//630 526//629
f 517//620 519//622 528//631 526//629
f 530//633 529//634 527//634 528//633
f 519//624 521//624 530//633 528//633
f 532//635 531//636 529//637 530//638
f 521//627 523//626 532//635 530//638
f 342//262 200//261 531//636 532//635
f 523//626 340//246 342//262 532//635
f 343//264 533//639 531//636 200//261
f 535//640 534//641 203//266 204//265
f 190//249 525//630 535//640 204//265
f 537//642 536//643 534//641 535//640
f 525//630 527//632 537//642 535//640
f 539//644 538//645 536//645 537//644
f 527//634 529//634 539//644 537//644
f 533//639 540//646 538//647 539//648
f 529//637 531//636 533//639 539//648
f 542//649 541//650 538//647 540//646
f 202//279 214//278 542//649 540//646
f 533//639 343//264 202//279 540//646
f 216//281 543//651 542//649 214//278
f 545//652 544//653 344//283 217//282
f 203//266 534//641 545//652 217//282
f 547//654 546//655 544//653 545//652
f 534//641 536//643 547//654 545//652
f 541//656 548//657 546//657 547//656
f 536//645 538//645 541//656 547//656
f 550//658 549//658 546//657 548//657
f 543//651 551//659 550//660 548//661
f 541//650 542//649 543//651 548//661
f 553//662 552//663 550//660 551//659
f 229//297 228//296 553//662 551//659
f 543//651 216//281 229//297 551//659
f 555//664 554//665 345//299 346//298
f 344//283 544//653 555//664 346//298
f 549//666 556//667 554//665 555//664
f 544//653 546//655 549//666 555//664
f 558//668 557//669 554//665 556//667
f 552//670 559//671 558//671 556//670
f 549//658 550//658 552//670 556//670
f 561//672 560//672 558//671 559//671
f 563//673 562//674 561//675 559//676
f 552//663 553//662 563//673 559//676
f 348//314 347//313 562//674 563//673
f 553//662 228//296 348//314 563//673
f 557//669 564//677 349//316 350//315
f 345//299 554//665 557//669 350//315
f 412//678 314//318 349//316 564//677
f 560//679 411//680 412//678 564//677
f 557//669 558//668 560//679 564//677
f 241//320 417//490 419//489 351//320
f 419//489 562//674 347//313 351//321
f 352//323 416//485 417//484 241//322
f 353//325 565//681 416//485 352//323
f 355//329 567//682 566//683 354//326
f 566//683 491//584 332//184 354//326
f 428//503 382//684 247//331 246//330
f 143//177 489//581 428//503 246//330
f 382//684 394//685 248//333 247//331
f 394//685 568//686 356//335 248//333
f 394//456 395//455 569//687 568//686
f 570//688 357//338 356//335 568//686
f 569//687 571//689 570//688 568//686
f 569//690 573//691 572//692 571//693
f 575//694 574//695 570//688 571//689
f 572//692 576//696 575//697 571//693
f 572//692 259//350 258//349 576//696
f 578//698 577//699 575//697 576//696
f 258//349 358//353 578//698 576//696
f 359//355 579//700 578//698 358//353
f 267//358 581//701 580//702 264//702
f 580//702 582//703 263//703 264//702
f 580//704 583//704 424//499 582//705
f 426//706 60//362 263//703 582//703
f 424//499 425//498 426//707 582//705
f 585//708 579//700 584//709 583//710
f 580//704 581//711 585//711 583//704
f 584//709 423//496 424//499 583//710
f 577//699 578//698 579//700 585//708
f 581//711 586//712 577//712 585//711
f 574//695 575//694 577//712 586//712
f 273//372 360//371 574//695 586//713
f 581//701 267//358 273//372 586//713
f 573//691 587//714 361//374 274//373
f 259//350 572//692 573//691 274//373
f 588//715 276//378 361//377 587//716
f 395//717 396//718 588//715 587//716
f 573//691 569//690 395//719 587//714
f 589//720 278//381 276//378 588//715
f 396//718 590//721 589//720 588//715
f 592//722 591//723 589//720 590//721
f 593//724 408//725 592//722 590//724
f 396//461 397//460 593//724 590//724
f 594//726 378//478 408//477 593//727
f 397//728 567//682 594//726 593//727
f 243//392 37//391 378//478 594//726
f 567//682 355//329 243//392 594//726
f 596//729 595//730 591//723 592//722
f 408//725 409//476 596//729 592//722
f 598//731 597//732 595//730 596//729
f 409//476 413//481 598//731 596//729
f 600//733 599//734 597//732 598//731
f 413//481 418//487 600//733 598//731
f 602//735 601//736 599//734 600//733
f 418//487 603//737 602//735 600//733
f 389//450 604//738 602//735 603//737
f 605//739 388//448 389//450 603//737
f 418//487 415//486 605//739 603//737
f 565//681 387//449 388//448 605//739
f 415//486 416//485 565//681 605//739
f 422//494 420//492 606//740 604//738
f 389//450 384//446 422//494 604//738
f 606//740 601//736 602//735 604//738
f 420//492 51//54 297//405 606//740
f 297//405 298//406 601//736 606//740
f 362//407 599//734 601//736 298//406
f 363//408 597//732 599//734 362//407
f 364//409 595//730 597//732 363//408
f 299//410 591//723 595//730 364//409
f 278//381 589//720 591//723 299//410
f 357//338 570//688 574//695 360//371
f 579//700 359//355 365//411 584//709
f 365//411 316//61 423//496 584//709
f 397//728 398//741 566//683 567//682
f 398//741 427//585 491//584 566//683
f 367//414 386//444 387//449 366//413
f 387//449 565//681 353//325 366//413
f 368//415 385//445 386//444 367//414
f 315//58 421//495 385//445 368//415
f 419//489 414//488 561//675 562//674
f 414//483 411//483 560//672 561//672
f 300//418 436//516 607//742 301//416
f 607//742 608//743 369//419 301//416
f 607//742 441//744 609//745 608//743
f 485//574 329//166 369//419 608//743
f 609//745 610//746 485//574 608//743
f 609//745 444//526 611//747 610//746
f 483//573 484//572 485//574 610//746
f 611//747 612//748 483//573 610//746
f 611//747 446//528 613//749 612//748
f 480//569 481//568 483//573 612//748
f 613//749 614//750 480//569 612//748
f 613//749 86//430 310//429 614//750
f 477//565 478//564 480//569 614//750
f 310//429 370//431 477//565 614//750
f 328//149 475//561 477//565 370//431
f 446//528 320//527 86//430 613//749
f 444//526 445//525 446//528 611//747
f 441//522 442//522 444//526 609//745
f 436//516 437//515 441//744 607//742
f 70//78 433//510 436//516 300//418
f 324//108 452//534 456//539 371//432
f 456//539 473//559 327//145 371//432
f 456//539 457//538 461//751 473//559
f 461//751 471//558 472//557 473//559
f 461//545 462//545 464//752 471//752
f 464//752 615//753 469//555 471//752
f 464//549 465//548 466//550 615//753
f 616//754 468//556 469//555 615//753
f 466//550 617//755 616//754 615//753
f 466//550 326//129 372//756 617//755
f 406//473 407//472 616//754 617//755
f 372//756 373//439 406//473 617//755
f 32//441 377//757 406//473 373//439
f 407//472 392//452 468//556 616//754
f 425//502 56//502 61//758 426//758
f 384//446 385//445 421//495 422//494
f 405//471 391//453 392//452 407//472
f 426//706 61//443 60//362
