# pilowlava3D glyph '&' variant 2 — Vincent Wagner / Velvetyne, Free Art License
v 3.28860 2.66400 -0.34708
v 3.01871 1.02547 -0.25895
v 3.23187 0.76263 -0.33317
v 4.47058 0.53970 -0.22052
v 4.82983 3.04774 -0.38300
v 4.62073 3.66313 -0.25197
v 2.87494 1.93821 -0.41115
v 2.69981 1.86976 -0.41366
v 3.42955 2.73606 -0.37429
v 3.56804 2.54653 -0.36408
v 3.34555 2.48626 -0.35031
v 3.19577 2.61217 -0.22020
v 3.13264 2.80933 -0.21703
v 3.17468 2.88605 -0.31701
v 2.98389 1.00451 -0.16654
v 2.87973 1.20119 -0.18980
v 2.96863 1.22328 -0.35592
v 3.08859 0.99456 -0.35022
v 2.95201 0.83625 -0.27978
v 2.90744 0.85151 -0.18219
v 3.20314 0.67908 -0.16339
v 3.00287 0.67751 -0.17079
v 2.98633 0.71876 -0.28548
v 3.50726 0.55111 -0.40256
v 3.41907 0.46511 -0.20977
v 4.51382 0.54819 0.00000
v 4.41475 0.76443 0.00000
v 4.36664 0.69615 -0.27288
v 4.44135 0.35323 -0.26374
v 4.27109 0.51481 -0.42815
v 4.94640 3.01785 -0.24642
v 4.69838 2.80210 -0.22279
v 4.62909 2.92868 -0.40227
v 4.75555 3.23251 -0.45787
v 4.97307 3.31614 -0.28017
v 4.51585 3.13179 -0.49093
v 4.39339 3.69691 0.00000
v 4.43155 3.62148 -0.28814
v 4.79967 3.56195 -0.30188
v 4.57939 3.44931 -0.44537
v 3.97597 0.18665 -0.41717
v 4.13812 0.30460 -0.46003
v 4.27711 0.13275 -0.26314
v 3.96301 0.04896 -0.25491
v 2.64104 2.04436 -0.22618
v 2.79785 2.12969 -0.26012
v 2.93130 2.03740 -0.37133
v 3.06898 1.78959 -0.41587
v 2.92876 1.62920 -0.47349
v 2.78741 1.48848 -0.38939
v 2.58572 1.69086 -0.36677
v 3.22064 2.92243 -0.29006
v 3.44142 2.83148 -0.31277
v 3.69699 2.91108 -0.37296
v 3.75237 2.80074 -0.42789
v 3.25075 2.95342 -0.18030
v 3.44930 2.88593 -0.18993
v 3.64993 2.98884 -0.21266
v 3.84329 3.15009 -0.23242
v 3.92033 3.05308 -0.41096
v 3.44585 2.90429 0.00000
v 3.97275 3.37971 0.00000
v 4.02383 3.32740 -0.25079
v 4.15816 3.56114 0.00000
v 4.20950 3.50078 -0.26998
v 4.35370 3.34524 -0.45868
v 4.13721 3.20845 -0.44141
v 4.27267 3.02939 -0.48682
v 4.01933 2.90872 -0.46699
v 4.36566 2.84122 -0.40521
v 4.10580 2.74679 -0.40081
v 3.84190 2.64828 -0.38460
v 4.15491 2.63566 -0.22088
v 3.89804 2.54828 -0.22071
v 3.64503 2.46301 -0.21703
v 3.67079 2.42332 0.00000
v 3.44319 2.34894 0.00000
v 3.42795 2.38366 -0.21256
v 3.22504 2.27510 0.00000
v 3.21571 2.29976 -0.20353
v 3.17267 2.37258 -0.31492
v 3.07249 2.19417 -0.20958
v 3.00998 2.24420 -0.32059
v 2.94731 2.29943 -0.22079
v 3.10495 2.45994 -0.21777
v 3.16859 2.63278 0.00000
v 3.09283 2.81698 0.00000
v 3.26012 2.96431 0.00000
v 3.19450 3.16170 0.00000
v 3.16943 3.15093 -0.18691
v 3.11981 3.12531 -0.31780
v 3.14116 3.38780 -0.39163
v 3.30972 3.41280 -0.24284
v 3.38037 3.42491 0.00000
v 3.34554 3.78531 -0.30391
v 3.42407 3.82164 0.00000
v 2.76424 3.20399 0.00000
v 2.92856 3.02735 0.00000
v 2.82199 3.25219 -0.24424
v 2.96413 3.05205 -0.21214
v 2.96165 3.33685 -0.40295
v 3.03688 3.08711 -0.33158
v 2.68613 3.41066 -0.26911
v 2.87024 3.53409 -0.46514
v 3.13283 3.68373 -0.47765
v 2.72728 3.71192 -0.47971
v 2.95488 3.93208 -0.48391
v 3.13110 4.10401 -0.29830
v 2.71164 4.09245 -0.46746
v 2.82408 4.27609 -0.28165
v 2.86603 4.34545 0.00000
v 3.19283 4.16391 0.00000
v 2.61716 3.34974 0.00000
v 2.54848 3.55706 -0.27427
v 2.39207 3.71451 -0.26939
v 2.53824 3.86291 -0.46418
v 2.21605 3.87283 -0.26184
v 2.32321 4.00481 -0.44098
v 2.44217 4.20176 -0.44420
v 2.09567 4.14708 -0.40638
v 2.17763 4.29850 -0.40989
v 2.23613 4.42679 -0.24404
v 2.51628 4.36202 -0.26334
v 1.99554 3.98412 0.00000
v 2.02907 4.03437 -0.24305
v 1.82922 4.14830 0.00000
v 1.83806 4.18477 -0.19553
v 1.86134 4.27499 -0.34896
v 1.63593 4.31840 -0.14513
v 1.63968 4.37109 -0.26662
v 1.66092 4.46135 -0.27223
v 1.91389 4.39815 -0.35138
v 1.68086 4.50515 -0.15152
v 1.96211 4.47933 -0.20016
v 1.42758 4.34334 0.00000
v 1.42696 4.34975 -0.13744
v 1.26776 4.24556 0.00000
v 0.36484 3.10312 0.00000
v 0.45271 4.00232 -0.28232
v 0.31235 3.57214 -0.32276
v 0.45457 3.15623 -0.32613
v 0.58331 3.61133 -0.51491
v 0.69847 3.29793 -0.52789
v 0.92873 3.06982 -0.50066
v 0.76134 2.90361 -0.29794
v 0.70201 2.83837 0.00000
v 1.07748 2.76884 -0.27459
v 1.03256 2.70189 0.00000
v 1.15189 3.90763 -0.27648
v 1.15776 4.08831 -0.21643
v 1.25922 4.25533 -0.16162
v 1.03993 4.14661 -0.36949
v 1.22556 4.30339 -0.29025
v 1.42305 4.38492 -0.23996
v 1.16104 4.37979 -0.28909
v 1.40826 4.45503 -0.23868
v 1.10378 4.41921 -0.16046
v 1.39813 4.48901 -0.13819
v 1.39522 4.50107 0.00000
v 0.76860 4.27932 -0.21794
v 0.89162 4.21617 -0.37479
v 0.65691 3.94736 -0.45275
v 0.92200 3.90230 -0.46171
v 0.92731 3.67907 -0.51674
v 1.19759 3.73574 -0.30568
v 1.27258 3.56412 -0.30801
v 1.01576 3.45703 -0.52527
v 1.38159 3.39123 -0.29674
v 1.16414 3.26469 -0.50369
v 1.51598 3.20380 -0.28418
v 1.36046 3.08275 -0.46759
v 1.19881 2.91697 -0.46322
v 1.56236 2.90413 -0.41807
v 1.44946 2.78406 -0.41563
v 1.35143 2.66538 -0.25211
v 1.66136 2.63368 -0.35270
v 1.57841 2.55803 -0.21360
v 1.55045 2.52534 0.00000
v 1.31483 2.61113 0.00000
v 1.48433 3.43752 0.00000
v 1.38757 3.60894 0.00000
v 1.66266 2.99865 -0.26057
v 1.85202 2.80180 0.00000
v 1.81778 2.77144 -0.23294
v 1.75388 2.70928 -0.37018
v 1.96083 2.54105 -0.21185
v 1.91040 2.47875 -0.34172
v 1.76184 2.38261 -0.31884
v 2.03610 2.31140 -0.32386
v 1.91344 2.19343 -0.30121
v 1.66949 2.11824 -0.30443
v 1.63098 2.18399 -0.30177
v 1.58855 2.23722 -0.18870
v 1.68085 2.39004 -0.18735
v 1.57085 2.25047 0.00000
v 1.65369 2.38629 0.00000
v 1.98521 2.56781 0.00000
v 2.09178 2.35585 -0.19306
v 2.23997 2.17503 0.00000
v 2.23347 2.16470 -0.17051
v 2.19958 2.12373 -0.28208
v 2.42404 2.04782 -0.19031
v 2.40355 1.98512 -0.32068
v 2.34383 1.88429 -0.31642
v 2.14569 2.05799 -0.28708
v 2.31972 1.82425 -0.17803
v 2.11729 2.01955 -0.16401
v 1.91617 2.13344 -0.16829
v 1.69456 2.05912 -0.17647
v 1.70018 2.04273 0.00000
v 1.47757 1.88824 0.00000
v 1.46663 1.92050 -0.19793
v 1.26984 1.73226 0.00000
v 1.24561 1.77989 -0.23367
v 1.19820 1.88773 -0.38583
v 1.43927 1.99401 -0.33584
v 1.13557 2.02765 -0.38450
v 1.39388 2.10420 -0.33813
v 1.09299 2.12885 -0.24038
v 1.36011 2.17883 -0.21147
v 1.07704 2.18054 0.00000
v 1.34760 2.21019 0.00000
v 1.07904 1.58958 0.00000
v 0.02516 1.48540 0.00000
v 0.00000 1.12306 0.00000
v 0.20584 1.79889 -0.26525
v 0.07635 1.46650 -0.25577
v 0.04619 1.11799 -0.24566
v 0.22754 1.40877 -0.41144
v 0.15919 1.10369 -0.37934
v 0.19493 0.80679 -0.36631
v 0.10042 0.76898 -0.23853
v 0.06265 0.75580 0.00000
v 0.27725 0.45922 -0.24441
v 0.56595 1.18189 0.00000
v 0.67674 1.36671 -0.25128
v 0.84747 1.50325 -0.25154
v 1.03809 1.64117 -0.25005
v 0.73213 1.63742 -0.42804
v 0.94937 1.76714 -0.41580
v 0.58809 1.85118 -0.43146
v 0.86055 1.94818 -0.41466
v 0.49181 2.01833 -0.26615
v 0.81412 2.08519 -0.25512
v 0.36668 1.67196 -0.42907
v 0.55492 1.49373 -0.42399
v 0.39661 1.31280 -0.40816
v 0.52202 1.21887 -0.24117
v 0.42094 1.05483 -0.22420
v 0.29921 1.08027 -0.36863
v 0.42935 0.89947 -0.21657
v 0.31917 0.85560 -0.34945
v 0.53958 0.79684 -0.22437
v 0.45871 0.68142 -0.37319
v 0.36177 0.55739 -0.38323
v 0.68831 0.59502 -0.40693
v 0.62193 0.40166 -0.41011
v 0.55823 0.25787 -0.25146
v 0.89760 0.32610 -0.43150
v 0.86417 0.15545 -0.25583
v 0.84836 0.09289 0.00000
v 0.53555 0.20914 0.00000
v 0.46303 0.91353 0.00000
v 0.46094 1.04078 0.00000
v 0.73445 0.75141 -0.23975
v 0.97710 0.80077 0.00000
v 0.96767 0.73232 -0.24757
v 0.93912 0.56400 -0.42787
v 1.21037 0.72282 -0.25098
v 1.19717 0.54542 -0.43953
v 1.17761 0.29288 -0.44346
v 1.45816 0.54283 -0.44220
v 1.45515 0.28212 -0.44659
v 1.45154 0.09551 -0.25740
v 1.16107 0.11146 -0.25732
v 1.44844 0.01932 0.00000
v 1.21445 0.79982 0.00000
v 1.45935 0.72376 -0.25214
v 1.70781 0.80367 0.00000
v 1.70938 0.72646 -0.25158
v 1.71698 0.54707 -0.44112
v 1.95723 0.73543 -0.25090
v 1.97368 0.56584 -0.43486
v 2.00592 0.31408 -0.43897
v 1.73085 0.28584 -0.44613
v 2.03339 0.13414 -0.25649
v 1.74228 0.09796 -0.25812
v 1.74629 0.02419 0.00000
v 2.19878 0.81299 0.00000
v 2.20509 0.74892 -0.24738
v 2.44402 0.82091 0.00000
v 2.82140 0.48552 0.00000
v 3.19612 0.65395 0.00000
v 2.81110 0.51009 -0.20453
v 2.58583 0.33809 -0.23913
v 2.53419 0.46876 -0.39670
v 2.77608 0.59382 -0.34126
v 2.47746 0.64087 -0.39534
v 2.72316 0.71839 -0.34445
v 2.45033 0.76864 -0.23658
v 2.69469 0.79959 -0.21385
v 2.68123 1.38121 0.00000
v 2.71391 1.41113 -0.20918
v 2.50180 1.58186 0.00000
v 2.52756 1.61296 -0.20611
v 2.62329 2.07977 0.00000
v 2.77484 2.16665 0.00000
v 2.22740 0.59513 -0.42052
v 2.27478 0.37203 -0.42312
v 2.31862 0.21302 -0.25285
v 3.60721 0.16840 0.00000
v 3.64302 0.21090 -0.24151
v 3.75485 0.33267 -0.43868
v 3.95039 0.00000 0.00000
v 3.68970 0.72830 -0.52141
v 3.91779 0.50991 -0.52397
v 3.86240 0.90992 -0.46361
v 4.06909 0.70732 -0.46755
v 3.98878 1.05083 -0.26405
v 4.18193 0.87071 -0.27320
v 4.23802 0.94311 0.00000
v 3.26868 1.86974 0.00000
v 3.09599 2.18515 0.00000
v 3.08017 2.02800 -0.22623
v 3.21764 1.83459 -0.24268
v 3.40331 1.63252 -0.24329
v 3.28717 1.52962 -0.42963
v 3.60004 1.43712 -0.24578
v 3.47745 1.31831 -0.43406
v 3.28474 1.16680 -0.48321
v 3.12468 1.38637 -0.48220
v 3.66025 1.11885 -0.44821
v 3.46178 0.95128 -0.50262
v 3.79436 1.24269 -0.25346
v 3.85358 1.30226 0.00000
v 4.73018 2.75690 0.00000
v 4.41484 2.71512 -0.22011
v 4.99586 2.99880 0.00000
v 4.48708 0.31144 0.00000
v 4.64218 3.71199 0.00000
v 3.62468 3.02274 0.00000
v 3.80096 3.19688 0.00000
v 3.92047 2.50037 0.00000
v 2.93172 2.31521 0.00000
v 3.08858 2.47612 0.00000
v 2.47229 3.49684 0.00000
v 2.32230 3.65288 0.00000
v 2.25717 4.48531 0.00000
v 2.54694 4.43441 0.00000
v 2.16173 3.81636 0.00000
v 1.68636 4.52090 0.00000
v 1.98189 4.51218 0.00000
v 1.63359 4.30557 0.00000
v 0.21536 3.56329 0.00000
v 0.38159 4.02034 0.00000
v 1.23117 3.91862 0.00000
v 1.19603 4.07117 0.00000
v 1.08270 4.43526 0.00000
v 0.72473 4.29975 0.00000
v 1.30498 3.76549 0.00000
v 1.59506 3.24824 0.00000
v 1.71640 3.03850 0.00000
v 2.10753 2.37063 0.00000
v 2.10902 2.00784 0.00000
v 1.91571 2.11852 0.00000
v 0.16066 1.83863 0.00000
v 0.24792 0.42584 0.00000
v 0.72418 1.31527 0.00000
v 0.89473 1.44869 0.00000
v 0.46115 2.07361 0.00000
v 0.79514 2.14953 0.00000
v 0.55969 0.83195 0.00000
v 0.74873 0.80594 0.00000
v 1.15184 0.03923 0.00000
v 1.46017 0.80218 0.00000
v 2.04576 0.06405 0.00000
v 1.95454 0.80701 0.00000
v 2.59921 0.29043 0.00000
v 3.00520 0.66611 0.00000
v 2.69374 0.83030 0.00000
v 2.89403 0.85887 0.00000
v 2.96011 0.99759 0.00000
v 2.84923 1.18346 0.00000
v 2.30800 1.79968 0.00000
v 2.43118 2.06563 0.00000
v 2.33513 0.15112 0.00000
v 3.38210 0.43485 0.00000
v 4.29781 0.07728 0.00000
v 4.04927 1.11843 0.00000
v 3.45660 1.68370 0.00000
v 3.12338 2.03715 0.00000
v 3.65387 1.49391 0.00000
v 4.43582 2.65484 0.00000
v 5.03188 3.33493 0.00000
v 4.87329 3.59557 0.00000
v 4.17482 2.57940 0.00000
v 3.28860 2.66400 0.34708
v 3.01871 1.02547 0.25895
v 3.23187 0.76263 0.33317
v 4.47058 0.53970 0.22052
v 4.82983 3.04774 0.38300
v 4.62073 3.66313 0.25197
v 2.87494 1.93821 0.41115
v 2.69981 1.86976 0.41366
v 3.42955 2.73606 0.37429
v 3.56804 2.54653 0.36408
v 3.34555 2.48626 0.35031
v 3.19577 2.61217 0.22020
v 3.13264 2.80933 0.21703
v 3.17468 2.88605 0.31701
v 2.98389 1.00451 0.16654
v 2.87973 1.20119 0.18980
v 2.96863 1.22328 0.35592
v 3.08859 0.99456 0.35022
v 2.95201 0.83625 0.27978
v 2.90744 0.85151 0.18219
v 3.20314 0.67908 0.16339
v 3.00287 0.67751 0.17079
v 2.98633 0.71876 0.28548
v 3.50726 0.55111 0.40256
v 3.41907 0.46511 0.20977
v 4.36664 0.69615 0.27288
v 4.44135 0.35323 0.26374
v 4.27109 0.51481 0.42815
v 4.94640 3.01785 0.24642
v 4.69838 2.80210 0.22279
v 4.62909 2.92868 0.40227
v 4.75555 3.23251 0.45787
v 4.97307 3.31614 0.28017
v 4.51585 3.13179 0.49093
v 4.43155 3.62148 0.28814
v 4.79967 3.56195 0.30188
v 4.57939 3.44931 0.44537
v 3.97597 0.18665 0.41717
v 4.13812 0.30460 0.46003
v 4.27711 0.13275 0.26314
v 3.96301 0.04896 0.25491
v 2.64104 2.04436 0.22618
v 2.79785 2.12969 0.26012
v 2.93130 2.03740 0.37133
v 3.06898 1.78959 0.41587
v 2.92876 1.62920 0.47349
v 2.78741 1.48848 0.38939
v 2.58572 1.69086 0.36677
v 3.22064 2.92243 0.29006
v 3.44142 2.83148 0.31277
v 3.69699 2.91108 0.37296
v 3.75237 2.80074 0.42789
v 3.25075 2.95342 0.18030
v 3.44930 2.88593 0.18993
v 3.64993 2.98884 0.21266
v 3.84329 3.15009 0.23242
v 3.92033 3.05308 0.41096
v 4.02383 3.32740 0.25079
v 4.20950 3.50078 0.26998
v 4.35370 3.34524 0.45868
v 4.13721 3.20845 0.44141
v 4.27267 3.02939 0.48682
v 4.01933 2.90872 0.46699
v 4.36566 2.84122 0.40521
v 4.10580 2.74679 0.40081
v 3.84190 2.64828 0.38460
v 4.15491 2.63566 0.22088
v 3.89804 2.54828 0.22071
v 3.64503 2.46301 0.21703
v 3.42795 2.38366 0.21256
v 3.21571 2.29976 0.20353
v 3.17267 2.37258 0.31492
v 3.07249 2.19417 0.20958
v 3.00998 2.24420 0.32059
v 2.94731 2.29943 0.22079
v 3.10495 2.45994 0.21777
v 3.16943 3.15093 0.18691
v 3.11981 3.12531 0.31780
v 3.14116 3.38780 0.39163
v 3.30972 3.41280 0.24284
v 3.34554 3.78531 0.30391
v 2.82199 3.25219 0.24424
v 2.96413 3.05205 0.21214
v 2.96165 3.33685 0.40295
v 3.03688 3.08711 0.33158
v 2.68613 3.41066 0.26911
v 2.87024 3.53409 0.46514
v 3.13283 3.68373 0.47765
v 2.72728 3.71192 0.47971
v 2.95488 3.93208 0.48391
v 3.13110 4.10401 0.29830
v 2.71164 4.09245 0.46746
v 2.82408 4.27609 0.28165
v 2.54848 3.55706 0.27427
v 2.39207 3.71451 0.26939
v 2.53824 3.86291 0.46418
v 2.21605 3.87283 0.26184
v 2.32321 4.00481 0.44098
v 2.44217 4.20176 0.44420
v 2.09567 4.14708 0.40638
v 2.17763 4.29850 0.40989
v 2.23613 4.42679 0.24404
v 2.51628 4.36202 0.26334
v 2.02907 4.03437 0.24305
v 1.83806 4.18477 0.19553
v 1.86134 4.27499 0.34896
v 1.63593 4.31840 0.14513
v 1.63968 4.37109 0.26662
v 1.66092 4.46135 0.27223
v 1.91389 4.39815 0.35138
v 1.68086 4.50515 0.15152
v 1.96211 4.47933 0.20016
v 1.42696 4.34975 0.13744
v 0.45271 4.00232 0.28232
v 0.31235 3.57214 0.32276
v 0.45457 3.15623 0.32613
v 0.58331 3.61133 0.51491
v 0.69847 3.29793 0.52789
v 0.92873 3.06982 0.50066
v 0.76134 2.90361 0.29794
v 1.07748 2.76884 0.27459
v 1.15189 3.90763 0.27648
v 1.15776 4.08831 0.21643
v 1.25922 4.25533 0.16162
v 1.03993 4.14661 0.36949
v 1.22556 4.30339 0.29025
v 1.42305 4.38492 0.23996
v 1.16104 4.37979 0.28909
v 1.40826 4.45503 0.23868
v 1.10378 4.41921 0.16046
v 1.39813 4.48901 0.13819
v 0.76860 4.27932 0.21794
v 0.89162 4.21617 0.37479
v 0.65691 3.94736 0.45275
v 0.92200 3.90230 0.46171
v 0.92731 3.67907 0.51674
v 1.19759 3.73574 0.30568
v 1.27258 3.56412 0.30801
v 1.01576 3.45703 0.52527
v 1.38159 3.39123 0.29674
v 1.16414 3.26469 0.50369
v 1.51598 3.20380 0.28418
v 1.36046 3.08275 0.46759
v 1.19881 2.91697 0.46322
v 1.56236 2.90413 0.41807
v 1.44946 2.78406 0.41563
v 1.35143 2.66538 0.25211
v 1.66136 2.63368 0.35270
v 1.57841 2.55803 0.21360
v 1.66266 2.99865 0.26057
v 1.81778 2.77144 0.23294
v 1.75388 2.70928 0.37018
v 1.96083 2.54105 0.21185
v 1.91040 2.47875 0.34172
v 1.76184 2.38261 0.31884
v 2.03610 2.31140 0.32386
v 1.91344 2.19343 0.30121
v 1.66949 2.11824 0.30443
v 1.63098 2.18399 0.30177
v 1.58855 2.23722 0.18870
v 1.68085 2.39004 0.18735
v 2.09178 2.35585 0.19306
v 2.23347 2.16470 0.17051
v 2.19958 2.12373 0.28208
v 2.42404 2.04782 0.19031
v 2.40355 1.98512 0.32068
v 2.34383 1.88429 0.31642
v 2.14569 2.05799 0.28708
v 2.31972 1.82425 0.17803
v 2.11729 2.01955 0.16401
v 1.91617 2.13344 0.16829
v 1.69456 2.05912 0.17647
v 1.46663 1.92050 0.19793
v 1.24561 1.77989 0.23367
v 1.19820 1.88773 0.38583
v 1.43927 1.99401 0.33584
v 1.13557 2.02765 0.38450
v 1.39388 2.10420 0.33813
v 1.09299 2.12885 0.24038
v 1.36011 2.17883 0.21147
v 0.20584 1.79889 0.26525
v 0.07635 1.46650 0.25577
v 0.04619 1.11799 0.24566
v 0.22754 1.40877 0.41144
v 0.15919 1.10369 0.37934
v 0.19493 0.80679 0.36631
v 0.10042 0.76898 0.23853
v 0.27725 0.45922 0.24441
v 0.67674 1.36671 0.25128
v 0.84747 1.50325 0.25154
v 1.03809 1.64117 0.25005
v 0.73213 1.63742 0.42804
v 0.94937 1.76714 0.41580
v 0.58809 1.85118 0.43146
v 0.86055 1.94818 0.41466
v 0.49181 2.01833 0.26615
v 0.81412 2.08519 0.25512
v 0.36668 1.67196 0.42907
v 0.55492 1.49373 0.42399
v 0.39661 1.31280 0.40816
v 0.52202 1.21887 0.24117
v 0.42094 1.05483 0.22420
v 0.29921 1.08027 0.36863
v 0.42935 0.89947 0.21657
v 0.31917 0.85560 0.34945
v 0.53958 0.79684 0.22437
v 0.45871 0.68142 0.37319
v 0.36177 0.55739 0.38323
v 0.68831 0.59502 0.40693
v 0.62193 0.40166 0.41011
v 0.55823 0.25787 0.25146
v 0.89760 0.32610 0.43150
v 0.86417 0.15545 0.25583
v 0.73445 0.75141 0.23975
v 0.96767 0.73232 0.24757
v 0.93912 0.56400 0.42787
v 1.21037 0.72282 0.25098
v 1.19717 0.54542 0.43953
v 1.17761 0.29288 0.44346
v 1.45816 0.54283 0.44220
v 1.45515 0.28212 0.44659
v 1.45154 0.09551 0.25740
v 1.16107 0.11146 0.25732
v 1.45935 0.72376 0.25214
v 1.70938 0.72646 0.25158
v 1.71698 0.54707 0.44112
v 1.95723 0.73543 0.25090
v 1.97368 0.56584 0.43486
v 2.00592 0.31408 0.43897
v 1.73085 0.28584 0.44613
v 2.03339 0.13414 0.25649
v 1.74228 0.09796 0.25812
v 2.20509 0.74892 0.24738
v 2.81110 0.51009 0.20453
v 2.58583 0.33809 0.23913
v 2.53419 0.46876 0.39670
v 2.77608 0.59382 0.34126
v 2.47746 0.64087 0.39534
v 2.72316 0.71839 0.34445
v 2.45033 0.76864 0.23658
v 2.69469 0.79959 0.21385
v 2.71391 1.41113 0.20918
v 2.52756 1.61296 0.20611
v 2.22740 0.59513 0.42052
v 2.27478 0.37203 0.42312
v 2.31862 0.21302 0.25285
v 3.64302 0.21090 0.24151
v 3.75485 0.33267 0.43868
v 3.68970 0.72830 0.52141
v 3.91779 0.50991 0.52397
v 3.86240 0.90992 0.46361
v 4.06909 0.70732 0.46755
v 3.98878 1.05083 0.26405
v 4.18193 0.87071 0.27320
v 3.08017 2.02800 0.22623
v 3.21764 1.83459 0.24268
v 3.40331 1.63252 0.24329
v 3.28717 1.52962 0.42963
v 3.60004 1.43712 0.24578
v 3.47745 1.31831 0.43406
v 3.28474 1.16680 0.48321
v 3.12468 1.38637 0.48220
v 3.66025 1.11885 0.44821
v 3.46178 0.95128 0.50262
v 3.79436 1.24269 0.25346
v 4.41484 2.71512 0.22011
vn -0.48023 -0.15486 -0.86336
vn -0.23457 -0.14437 -0.96132
vn -0.08024 -0.13318 -0.98784
vn -0.10551 -0.05981 -0.99262
vn -0.77840 -0.37876 -0.50064
vn -0.60390 -0.31997 -0.73002
vn -0.64713 0.08026 -0.75814
vn -0.80973 -0.07093 -0.58250
vn -0.93338 -0.01288 -0.35867
vn -0.83152 -0.46648 -0.30161
vn -0.78186 -0.53367 -0.32234
vn -0.69176 -0.33616 -0.63911
vn -0.93467 0.20233 -0.29233
vn -0.87990 0.42392 -0.21463
vn -0.97069 -0.00559 -0.24028
vn 0.04870 -0.92124 -0.38593
vn 0.01195 -0.96816 -0.25006
vn 0.34762 -0.89604 -0.27618
vn 0.33033 -0.83918 -0.43204
vn -0.44016 -0.32815 -0.83581
vn -0.50248 -0.42616 -0.75226
vn -0.69356 -0.61517 -0.37488
vn -0.69367 -0.63748 -0.33532
vn -0.03113 -0.01644 -0.99938
vn -0.35783 -0.21898 -0.90775
vn 0.89707 0.16743 -0.40895
vn 0.71494 0.45355 -0.53213
vn 0.80547 0.59264 0.00211
vn 0.98375 0.17951 0.00208
vn 0.92657 -0.37612 -0.00050
vn 0.81535 -0.24830 -0.52302
vn 0.52072 0.07431 -0.85049
vn 0.51077 -0.34804 -0.78612
vn 0.77436 -0.42668 -0.46724
vn 0.42940 -0.79455 -0.42931
vn 0.28448 -0.53063 -0.79844
vn 0.38943 0.03852 -0.92025
vn 0.81886 0.19376 -0.54030
vn 0.07768 -0.09365 -0.99257
vn 0.16636 0.96113 -0.22036
vn -0.21976 0.80302 -0.55395
vn -0.31241 0.94994 0.00287
vn 0.17352 0.98483 0.00288
vn 0.07066 0.61778 -0.78317
vn 0.27066 0.48860 -0.82946
vn 0.07306 0.43647 -0.89675
vn -0.06650 -0.61072 -0.78905
vn 0.26958 -0.35594 -0.89478
vn 0.49928 -0.70681 -0.50113
vn -0.08859 -0.88350 -0.45998
vn -0.16374 0.36367 -0.91702
vn -0.17653 0.31939 -0.93103
vn -0.22224 0.87035 -0.43943
vn -0.48343 0.63564 -0.60187
vn 0.26308 0.35994 -0.89511
vn -0.11370 -0.01142 -0.99345
vn -0.33440 0.39106 -0.85746
vn -0.51971 -0.41339 -0.74767
vn -0.27927 -0.06777 -0.95782
vn -0.08641 0.48822 -0.86843
vn 0.21593 0.29724 -0.93007
vn 0.26557 0.53709 -0.80063
vn -0.07316 0.72549 -0.68433
vn -0.39927 0.56702 -0.72046
vn -0.15885 0.04647 -0.98621
vn 0.31001 0.92351 -0.22590
vn -0.45941 0.83997 -0.28877
vn -0.53970 0.77075 -0.33862
vn -0.62528 0.65984 -0.41669
vn -0.41709 0.42986 -0.80079
vn -0.51138 0.85935 0.00130
vn -0.59778 0.80166 0.00051
vn -0.70068 0.71347 -0.00013
vn -0.71057 0.70363 0.00003
vn -0.61325 0.62912 -0.47764
vn -0.60319 0.79760 -0.00004
vn -0.49888 0.68370 -0.53261
vn -0.21871 0.35436 -0.90917
vn -0.35162 0.36541 -0.86188
vn -0.02150 -0.10396 -0.99435
vn -0.09272 -0.06332 -0.99368
vn 0.18851 -0.57822 -0.79380
vn 0.16904 -0.58350 -0.79433
vn 0.12976 -0.55861 -0.81921
vn 0.27745 -0.86449 -0.41915
vn 0.28284 -0.86894 -0.40613
vn 0.27770 -0.86956 -0.40835
vn 0.23390 -0.77048 -0.59301
vn 0.30750 -0.95155 -0.00015
vn 0.31551 -0.94892 -0.00021
vn 0.33333 -0.94281 -0.00019
vn 0.30242 -0.85929 -0.41251
vn 0.25755 -0.73491 -0.62736
vn 0.46756 -0.88396 0.00033
vn 0.44968 -0.80413 -0.38881
vn 0.40443 -0.67557 -0.61648
vn 0.81655 -0.38967 -0.42591
vn 0.67493 -0.35494 -0.64691
vn -0.47576 0.46045 -0.74943
vn -0.47027 0.51120 -0.71939
vn -0.62637 0.64074 -0.44397
vn -0.68194 0.56485 -0.46465
vn -0.71307 0.70110 -0.00028
vn -0.80216 0.59710 -0.00005
vn -0.87557 0.48309 -0.00011
vn -0.86840 0.47945 -0.12651
vn -0.93968 -0.34204 0.00071
vn -0.88192 -0.47141 -0.00059
vn 0.31295 0.94977 0.00022
vn 0.93798 0.34670 0.00053
vn 0.90372 0.35523 -0.23895
vn 0.85781 0.35981 -0.36702
vn 0.82415 -0.46665 -0.32097
vn 0.78289 -0.39098 -0.48396
vn 0.47280 -0.28726 -0.83303
vn 0.84987 -0.31934 -0.41922
vn 0.93986 -0.34156 0.00047
vn 0.84292 -0.53804 0.00064
vn 0.80917 0.15983 -0.56542
vn 0.97259 0.23251 0.00012
vn -0.78597 -0.61826 -0.00073
vn -0.74245 -0.66991 0.00018
vn -0.65091 -0.57638 -0.49407
vn -0.72048 -0.55105 -0.42101
vn -0.55342 -0.47616 -0.68338
vn -0.63608 -0.46724 -0.61407
vn 0.25059 -0.08727 -0.96415
vn 0.15725 -0.24861 -0.95575
vn -0.60097 -0.58433 -0.54534
vn -0.22389 -0.33374 -0.91569
vn 0.34811 -0.04076 -0.93657
vn -0.26502 -0.25437 -0.93009
vn 0.19921 0.23709 -0.95084
vn 0.55074 0.61387 -0.56555
vn 0.09330 0.34957 -0.93225
vn 0.31170 0.78750 -0.53168
vn 0.37386 0.92748 0.00001
vn 0.67346 0.73922 0.00005
vn -0.71815 -0.69589 -0.00008
vn -0.71769 -0.69637 -0.00001
vn -0.59465 -0.58152 -0.55518
vn -0.70654 -0.70768 0.00018
vn -0.58677 -0.60529 -0.53789
vn -0.46831 -0.50355 -0.72603
vn -0.59048 -0.63670 -0.49593
vn -0.48580 -0.54781 -0.68110
vn -0.06457 0.03332 -0.99736
vn -0.09654 0.04191 -0.99445
vn -0.15610 0.06012 -0.98591
vn 0.16472 0.70351 -0.69133
vn 0.13849 0.77374 -0.61818
vn 0.15007 0.88704 -0.43662
vn 0.19667 0.84635 -0.49498
vn 0.15808 0.98743 -0.00033
vn 0.22561 0.97422 -0.00014
vn -0.69261 -0.72132 -0.00015
vn -0.68345 -0.73000 0.00030
vn -0.60913 -0.66798 -0.42752
vn -0.63919 -0.76905 0.00046
vn -0.59766 -0.73006 -0.33138
vn -0.54342 -0.68254 -0.48871
vn -0.52612 -0.59792 -0.60473
vn -0.37146 -0.89324 -0.25327
vn -0.34020 -0.85115 -0.39975
vn -0.24802 0.06695 -0.96644
vn -0.21450 0.02080 -0.97650
vn 0.08658 0.86382 -0.49630
vn -0.01117 0.92740 -0.37391
vn -0.01041 0.96901 -0.24680
vn 0.08762 0.93669 -0.33902
vn -0.00819 0.99997 -0.00015
vn 0.08723 0.99619 -0.00045
vn -0.39358 -0.91929 -0.00019
vn -0.16559 -0.98619 -0.00010
vn 0.18212 -0.95671 -0.22702
vn -0.99991 0.01338 -0.00011
vn -0.81600 0.57805 0.00012
vn -0.68322 0.52683 -0.50563
vn -0.81067 0.03085 -0.58469
vn -0.66058 -0.47180 -0.58399
vn -0.81816 -0.57499 -0.00024
vn -0.31195 0.08880 -0.94594
vn -0.24028 -0.19305 -0.95131
vn -0.13518 -0.35919 -0.92342
vn -0.41625 -0.73632 -0.53344
vn -0.50290 -0.86434 -0.00006
vn -0.29701 -0.81748 -0.49346
vn -0.34916 -0.93706 -0.00003
vn 0.98733 -0.15866 0.00198
vn 0.96719 0.25403 0.00314
vn 0.82862 0.21596 -0.51648
vn 0.89412 -0.16964 -0.41446
vn 0.68995 -0.66610 -0.28335
vn 0.73595 -0.67703 -0.00049
vn 0.50958 -0.86043 0.00025
vn 0.76577 -0.17426 -0.61905
vn 0.62682 -0.63302 -0.45430
vn 0.17612 -0.90900 -0.37777
vn 0.03124 0.04358 -0.99856
vn 0.19001 0.16787 -0.96732
vn -0.13456 0.93121 -0.33874
vn -0.25695 0.87405 -0.41232
vn -0.27388 0.92220 -0.27303
vn -0.13807 0.96534 -0.22148
vn -0.28716 0.95788 0.00017
vn -0.13997 0.99016 0.00025
vn -0.44664 0.80860 -0.38299
vn -0.50171 0.86504 -0.00002
vn -0.37889 0.72805 -0.57130
vn -0.25435 0.36363 -0.89615
vn 0.14011 0.25224 -0.95747
vn 0.36784 0.21600 -0.90445
vn 0.29334 0.19794 -0.93529
vn 0.74706 0.32979 -0.57719
vn 0.71390 0.37432 -0.59180
vn 0.30202 0.13977 -0.94300
vn 0.69575 0.43159 -0.57416
vn 0.32276 0.13563 -0.93671
vn 0.71022 0.46466 -0.52884
vn 0.57068 0.39075 -0.72224
vn 0.09861 -0.12160 -0.98767
vn 0.10197 -0.17027 -0.98011
vn -0.23895 -0.68152 -0.69169
vn -0.25517 -0.71480 -0.65111
vn -0.30303 -0.83645 -0.45664
vn -0.51651 -0.59890 -0.61199
vn -0.57926 -0.70058 -0.41671
vn -0.62429 -0.78119 -0.00090
vn -0.34496 -0.93862 0.00015
vn 0.82416 0.43882 -0.35803
vn 0.85406 0.52017 -0.00034
vn 0.91477 0.40396 0.00032
vn 0.84582 0.53346 -0.00057
vn 0.85057 0.52585 -0.00018
vn 0.74796 0.47989 -0.45855
vn 0.85825 0.51324 0.00015
vn 0.78896 0.47932 -0.38445
vn 0.70538 0.43790 -0.55739
vn 0.63344 0.42571 -0.64617
vn 0.80125 0.49523 -0.33579
vn 0.73531 0.45282 -0.50426
vn 0.01589 -0.18106 -0.98334
vn -0.05408 -0.14888 -0.98738
vn -0.03519 -0.10752 -0.99358
vn 0.00875 -0.12719 -0.99184
vn 0.00678 -0.09289 -0.99565
vn 0.06040 0.02208 -0.99793
vn -0.74571 0.45220 -0.48932
vn -0.81331 0.49369 -0.30790
vn -0.71302 -0.43188 -0.55235
vn -0.78076 -0.50665 -0.36567
vn -0.85463 0.51923 -0.00009
vn -0.82308 -0.56792 -0.00200
vn 0.85006 0.52669 0.00017
vn 0.82758 0.56135 0.00018
vn 0.78984 0.53676 -0.29673
vn 0.67780 0.73524 0.00002
vn 0.64886 0.70950 -0.27493
vn 0.59883 0.66193 -0.45082
vn 0.72924 0.49654 -0.47081
vn 0.25278 0.91122 -0.32525
vn 0.25146 0.81492 -0.52217
vn -0.01644 -0.01245 -0.99979
vn -0.17253 0.04607 -0.98393
vn -0.55554 -0.74416 -0.37096
vn -0.64283 -0.64250 -0.41708
vn -0.68639 -0.67057 -0.28144
vn -0.58587 -0.77483 -0.23746
vn -0.47805 -0.84954 -0.22303
vn -0.45393 -0.81549 -0.35907
vn 0.31060 -0.91427 -0.26008
vn 0.41892 -0.86279 -0.28301
vn 0.38593 -0.80747 -0.44616
vn 0.28706 -0.85988 -0.42214
vn -0.60797 -0.79396 0.00010
vn -0.49414 -0.86938 -0.00008
vn 0.32635 -0.94525 -0.00009
vn 0.44113 -0.89744 -0.00013
vn 0.56480 -0.82523 -0.00023
vn 0.52657 -0.77964 -0.33894
vn 0.58201 -0.81318 0.00006
vn 0.52110 -0.74582 -0.41499
vn 0.45092 -0.66345 -0.59708
vn 0.47814 -0.71823 -0.50550
vn 0.14229 0.06709 -0.98755
vn 0.13061 0.05907 -0.98967
vn -0.15185 0.83221 -0.53326
vn -0.11785 0.79409 -0.59627
vn -0.12629 0.90227 -0.41227
vn -0.16437 0.92201 -0.35053
vn -0.19806 0.92675 -0.31923
vn -0.18424 0.84360 -0.50437
vn -0.13120 0.99136 -0.00005
vn -0.17200 0.98510 0.00037
vn -0.20689 0.97836 0.00083
vn -0.97583 0.21851 0.00007
vn -0.80313 0.59581 -0.00008
vn -0.68435 0.50541 -0.52557
vn -0.85458 0.19346 -0.48194
vn -0.89995 -0.03864 -0.43428
vn -0.99901 -0.04440 -0.00004
vn -0.67883 0.15596 -0.71754
vn -0.75549 -0.03098 -0.65443
vn -0.72556 -0.25689 -0.63841
vn -0.85595 -0.30219 -0.41956
vn -0.94321 -0.33220 -0.00016
vn -0.67024 -0.59296 -0.44629
vn -0.74921 -0.66233 -0.00019
vn 0.60892 -0.79323 -0.00005
vn 0.64217 -0.76656 -0.00019
vn 0.56060 -0.66096 -0.49886
vn 0.52231 -0.69009 -0.50097
vn 0.51022 -0.71749 -0.47422
vn 0.59077 -0.80684 0.00017
vn 0.42472 -0.57200 -0.70174
vn 0.41891 -0.61274 -0.67012
vn 0.07084 0.03775 -0.99677
vn 0.02379 0.00124 -0.99972
vn -0.13961 0.72959 -0.66948
vn -0.28542 0.60325 -0.74473
vn -0.36339 0.77628 -0.51511
vn -0.15562 0.87049 -0.46693
vn -0.42147 0.90684 -0.00024
vn -0.16723 0.98592 -0.00015
vn -0.51742 0.37959 -0.76694
vn -0.01105 -0.04138 -0.99908
vn -0.01244 -0.09586 -0.99532
vn 0.56396 -0.47243 -0.67731
vn 0.46362 -0.53797 -0.70402
vn 0.66823 -0.57794 -0.46846
vn 0.85833 -0.25127 -0.44736
vn 0.71837 -0.20871 -0.66361
vn 0.05067 -0.09146 -0.99452
vn 0.81112 0.36954 -0.45334
vn 0.67016 0.29138 -0.68263
vn 0.06983 0.03805 -0.99683
vn 0.39638 0.79704 -0.45565
vn 0.33588 0.64629 -0.68520
vn -0.02263 0.10653 -0.99405
vn -0.07678 0.05920 -0.99529
vn -0.55346 -0.49026 -0.67330
vn -0.33456 -0.63261 -0.69848
vn -0.41278 -0.77788 -0.47383
vn -0.17412 -0.68997 -0.70258
vn -0.21545 -0.84453 -0.49025
vn -0.24908 -0.96848 0.00006
vn -0.46967 -0.88284 0.00001
vn 0.95945 -0.28189 0.00015
vn 0.99951 0.03115 -0.00092
vn 0.74872 -0.66289 0.00044
vn 0.66021 0.75108 0.00108
vn 0.43407 0.90088 0.00100
vn 0.11160 0.99375 0.00027
vn 0.10245 0.87709 -0.46928
vn 0.03377 0.99943 -0.00024
vn 0.03108 0.87164 -0.48916
vn 0.02739 0.72737 -0.68570
vn 0.08941 0.72434 -0.68362
vn 0.00749 0.86574 -0.50044
vn 0.00868 0.72736 -0.68620
vn -0.05755 0.02747 -0.99796
vn -0.02617 0.01870 -0.99948
vn -0.00385 0.01739 -0.99984
vn -0.07407 -0.70905 -0.70125
vn -0.01496 -0.71120 -0.70283
vn -0.01984 -0.86210 -0.50636
vn -0.09362 -0.86052 -0.50075
vn -0.02447 -0.99970 0.00006
vn -0.11126 -0.99379 -0.00006
vn 0.00608 0.99998 -0.00008
vn -0.00773 0.99997 0.00001
vn -0.00649 0.86323 -0.50477
vn -0.01627 0.99987 0.00002
vn -0.01777 0.86522 -0.50108
vn -0.01906 0.72741 -0.68594
vn -0.00526 0.72575 -0.68794
vn -0.03326 0.87155 -0.48918
vn -0.03485 0.73413 -0.67812
vn 0.01306 0.01901 -0.99973
vn 0.03864 0.02151 -0.99902
vn 0.04920 -0.70633 -0.70617
vn 0.14264 -0.69580 -0.70392
vn 0.17563 -0.84772 -0.50053
vn 0.06036 -0.85984 -0.50698
vn 0.20442 -0.97888 0.00003
vn 0.07042 -0.99752 -0.00000
vn -0.03099 0.99952 -0.00004
vn -0.04425 0.99902 -0.00007
vn -0.04554 0.88265 -0.46782
vn 0.68394 -0.72954 -0.00002
vn 0.66289 -0.74871 0.00020
vn 0.61826 -0.71455 -0.32738
vn -0.02582 -0.99967 0.00102
vn 0.49729 -0.75522 -0.42701
vn 0.42401 -0.64231 -0.63848
vn 0.55074 -0.65393 -0.51871
vn 0.54983 -0.83528 0.00018
vn 0.20300 0.07589 -0.97623
vn 0.13983 0.04848 -0.98899
vn -0.16263 0.85129 -0.49885
vn -0.07271 0.78133 -0.61986
vn -0.06924 0.90275 -0.42456
vn -0.14731 0.93458 -0.32381
vn -0.20642 0.94568 -0.25117
vn -0.22903 0.88719 -0.40055
vn -0.06219 0.99806 0.00012
vn -0.12835 0.99173 0.00108
vn -0.18239 0.98322 0.00187
vn -0.89677 0.44250 0.00074
vn -0.86727 -0.49784 0.00031
vn -0.82132 -0.57047 0.00027
vn -0.75511 -0.65560 0.00015
vn -0.70890 -0.61231 -0.35005
vn -0.73826 -0.67452 -0.00011
vn -0.72329 -0.69054 -0.00001
vn -0.68993 -0.64059 -0.33710
vn -0.63660 -0.60101 -0.48324
vn 0.24414 0.96974 0.00093
vn -0.27789 0.96061 0.00095
vn -0.61258 0.79041 -0.00031
vn -0.04540 0.74891 -0.66111
vn 0.07244 0.02866 -0.99696
vn 0.26231 -0.67469 -0.68991
vn 0.31991 -0.81642 -0.48075
vn 0.36644 -0.93044 0.00001
vn -0.74319 -0.66908 0.00150
vn -0.75367 -0.65725 0.00076
vn -0.56606 -0.70594 -0.42570
vn -0.61904 -0.78536 -0.00023
vn -0.35829 -0.46702 -0.80841
vn -0.11389 -0.99349 -0.00082
vn 0.54254 -0.84003 -0.00107
vn -0.11050 -0.03792 -0.99315
vn 0.00896 -0.09718 -0.99523
vn 0.32350 0.37101 -0.87046
vn 0.36000 0.30483 -0.88175
vn 0.58156 0.62656 -0.51885
vn 0.58894 0.60727 -0.53326
vn 0.68295 0.73047 -0.00005
vn 0.68819 0.72553 0.00002
vn 0.99255 0.12184 0.00223
vn 0.92246 0.38610 0.00041
vn 0.84349 0.31440 -0.43552
vn 0.58425 -0.81157 0.00074
vn 0.75171 0.65949 -0.00096
vn 0.67918 0.58296 -0.44595
vn 0.72092 0.22682 -0.65485
vn 0.70912 0.70509 -0.00025
vn 0.63208 0.61301 -0.47401
vn 0.38015 0.36148 -0.85137
vn 0.60920 0.61883 -0.49590
vn 0.34924 0.36174 -0.86439
vn -0.13754 -0.05634 -0.98889
vn 0.16560 0.16343 -0.97256
vn -0.36509 -0.27647 -0.88898
vn 0.32380 0.37499 -0.86864
vn -0.14505 -0.04408 -0.98844
vn 0.59424 0.62217 -0.50969
vn 0.69734 0.71674 -0.00003
vn 0.69277 0.72116 -0.00003
vn 0.49516 -0.86880 0.00027
vn 0.29742 -0.95475 -0.00030
vn 0.27284 -0.85899 -0.43323
vn 0.65896 -0.75218 0.00112
vn 0.99401 -0.10927 0.00019
vn 0.97368 0.22791 -0.00005
vn 0.65065 0.72468 -0.22693
vn 0.66774 0.74440 -0.00021
vn 0.29742 -0.95475 -0.00007
vn -0.09017 -0.07072 0.99341
vn -0.07929 -0.13813 0.98723
vn -0.17317 0.11810 0.97779
vn -0.46226 -0.14499 0.87481
vn -0.59203 -0.30229 0.74708
vn -0.77649 -0.37280 0.50802
vn -0.81453 -0.07736 0.57494
vn -0.65913 0.07003 0.74876
vn -0.63522 -0.33911 0.69390
vn -0.77976 -0.53716 0.32160
vn -0.82728 -0.47300 0.30313
vn -0.86944 -0.03864 0.49252
vn -0.87902 0.42090 0.22398
vn -0.85539 0.17487 0.48758
vn -0.46994 -0.18299 0.86352
vn 0.34378 -0.83112 0.43709
vn 0.35343 -0.89279 0.27932
vn 0.01759 -0.96661 0.25565
vn 0.06103 -0.91684 0.39455
vn -0.69374 -0.63904 0.33220
vn -0.69452 -0.61481 0.37370
vn -0.50304 -0.42621 0.75186
vn -0.42539 -0.32913 0.84304
vn 0.00060 -0.01174 0.99993
vn 0.72493 0.45181 0.51994
vn 0.90413 0.16607 0.39365
vn 0.82495 -0.24532 0.50920
vn 0.53631 0.07756 0.84045
vn 0.28455 -0.52684 0.80092
vn 0.42980 -0.79227 0.43311
vn 0.76491 -0.43502 0.47505
vn 0.49801 -0.35706 0.79025
vn 0.81685 0.18230 0.54729
vn 0.38363 0.02594 0.92312
vn 0.07924 -0.09285 0.99252
vn -0.21501 0.81065 0.54463
vn 0.14509 0.89492 0.42197
vn 0.07554 0.44986 0.88990
vn 0.27607 0.51372 0.81233
vn -0.09957 -0.87836 0.46752
vn 0.49014 -0.70724 0.50948
vn 0.25821 -0.34888 0.90089
vn -0.08138 -0.59774 0.79755
vn -0.46548 0.65587 0.59427
vn -0.23042 0.87269 0.43048
vn -0.19162 0.32009 0.92780
vn -0.12989 0.39087 0.91124
vn -0.11604 -0.01856 0.99307
vn 0.28184 0.37316 0.88392
vn -0.29610 0.44169 0.84689
vn -0.28655 -0.05813 0.95630
vn -0.52005 -0.41133 0.74857
vn -0.07421 0.72310 0.68674
vn 0.25890 0.54014 0.80076
vn 0.20659 0.30441 0.92987
vn -0.15689 0.04132 0.98675
vn -0.39719 0.56479 0.72336
vn 0.31097 0.92255 0.22846
vn -0.54088 0.77112 0.33589
vn -0.46301 0.84011 0.28256
vn -0.41355 0.43082 0.80210
vn -0.62317 0.66116 0.41777
vn -0.61320 0.62862 0.47835
vn -0.50095 0.68211 0.53270
vn -0.21907 0.35347 0.90943
vn -0.35233 0.36450 0.86198
vn -0.02198 -0.10386 0.99435
vn -0.09230 -0.06433 0.99365
vn 0.16875 -0.58400 0.79402
vn 0.18870 -0.57843 0.79361
vn 0.12581 -0.55949 0.81923
vn 0.28278 -0.86906 0.40592
vn 0.27731 -0.86458 0.41905
vn 0.23330 -0.77105 0.59250
vn 0.27744 -0.86987 0.40787
vn 0.29963 -0.86019 0.41268
vn 0.25133 -0.73662 0.62788
vn 0.44700 -0.80488 0.39034
vn 0.39875 -0.67681 0.61881
vn 0.50445 -0.63113 0.58924
vn 0.56122 -0.74373 0.36317
vn -0.68844 0.56079 0.45996
vn -0.63374 0.63555 0.44096
vn -0.48728 0.50066 0.71547
vn -0.49036 0.45538 0.74308
vn -0.86869 0.47898 0.12629
vn 0.90410 0.35461 0.23845
vn 0.85961 0.35746 0.36509
vn 0.85330 -0.30688 0.42155
vn 0.48104 -0.27786 0.83150
vn 0.80645 -0.32861 0.49159
vn 0.83529 -0.44225 0.32665
vn 0.80924 0.15898 0.56555
vn -0.72773 -0.54234 0.41985
vn -0.65548 -0.56994 0.49550
vn -0.64719 -0.45302 0.61312
vn -0.55994 -0.46528 0.68555
vn 0.24852 -0.09328 0.96413
vn 0.16243 -0.26251 0.95116
vn -0.22397 -0.33823 0.91402
vn -0.59944 -0.58657 0.54462
vn 0.34704 -0.04359 0.93684
vn 0.19786 0.23585 0.95143
vn -0.26641 -0.25544 0.92939
vn 0.55025 0.61377 0.56614
vn 0.31014 0.78722 0.53301
vn 0.09128 0.34880 0.93274
vn -0.59515 -0.58150 0.55466
vn -0.58601 -0.60571 0.53825
vn -0.46727 -0.50403 0.72637
vn -0.48059 -0.54957 0.68337
vn -0.58835 -0.63769 0.49719
vn -0.09654 0.04175 0.99445
vn -0.06484 0.03354 0.99733
vn -0.15491 0.05984 0.98611
vn 0.19721 0.84598 0.49540
vn 0.14741 0.88794 0.43569
vn 0.13551 0.77514 0.61708
vn 0.16471 0.70262 0.69224
vn -0.60860 -0.66901 0.42664
vn -0.59292 -0.73419 0.33077
vn -0.52752 -0.59863 0.60279
vn -0.54148 -0.68547 0.48676
vn -0.33554 -0.85288 0.40002
vn -0.36693 -0.89512 0.25321
vn -0.25123 0.06659 0.96564
vn -0.21884 0.01961 0.97556
vn 0.08851 0.93724 0.33725
vn -0.00558 0.96917 0.24633
vn -0.00425 0.92771 0.37328
vn 0.08855 0.86505 0.49380
vn 0.18229 -0.95710 0.22523
vn -0.81118 0.03061 0.58400
vn -0.68472 0.52592 0.50455
vn -0.66010 -0.47187 0.58447
vn -0.23925 -0.19281 0.95162
vn -0.31030 0.08995 0.94637
vn -0.41464 -0.73638 0.53463
vn -0.13292 -0.35878 0.92391
vn -0.29666 -0.81741 0.49380
vn 0.88310 -0.18173 0.43256
vn 0.82315 0.20154 0.53086
vn 0.68751 -0.66662 0.28800
vn 0.61571 -0.63805 0.46238
vn 0.73646 -0.19392 0.64809
vn 0.17806 -0.90992 0.37461
vn 0.02703 0.04574 0.99859
vn 0.18161 0.17165 0.96827
vn -0.13715 0.96529 0.22226
vn -0.26987 0.92302 0.27422
vn -0.24890 0.87550 0.41419
vn -0.13325 0.93102 0.33978
vn -0.44553 0.80919 0.38303
vn -0.37622 0.72921 0.57159
vn -0.25816 0.36089 0.89617
vn 0.35595 0.20555 0.91162
vn 0.12745 0.24702 0.96059
vn 0.29481 0.19757 0.93491
vn 0.74716 0.32675 0.57879
vn 0.30177 0.13986 0.94307
vn 0.71376 0.37452 0.59184
vn 0.32099 0.13639 0.93721
vn 0.69472 0.43213 0.57500
vn 0.56364 0.39631 0.72474
vn 0.70799 0.46678 0.52996
vn 0.09857 -0.12144 0.98769
vn 0.10475 -0.17613 0.97878
vn -0.30283 -0.83695 0.45586
vn -0.25324 -0.71696 0.64949
vn -0.23869 -0.68101 0.69228
vn -0.58095 -0.70489 0.40697
vn -0.52117 -0.60957 0.59733
vn 0.82435 0.43899 0.35742
vn 0.74781 0.47965 0.45904
vn 0.78978 0.47788 0.38455
vn 0.63274 0.42497 0.64733
vn 0.70834 0.43321 0.55730
vn 0.73512 0.45340 0.50400
vn 0.80126 0.49520 0.33580
vn 0.01869 -0.18702 0.98218
vn -0.04781 -0.11356 0.99238
vn -0.05474 -0.14881 0.98735
vn -0.01501 -0.09276 0.99558
vn -0.00560 -0.11776 0.99303
vn 0.03976 0.01065 0.99915
vn -0.81353 0.49367 0.30736
vn -0.54727 0.76521 0.33905
vn -0.49600 0.68829 0.52938
vn -0.74624 0.45221 0.48849
vn -0.78413 -0.51342 0.34864
vn -0.72600 -0.44417 0.52500
vn 0.79041 0.53623 0.29615
vn 0.64879 0.70981 0.27430
vn 0.73062 0.49584 0.46941
vn 0.60011 0.66153 0.44972
vn 0.23345 0.83006 0.50646
vn 0.24394 0.91658 0.31682
vn -0.02854 -0.00608 0.99957
vn -0.18235 0.04857 0.98203
vn -0.58642 -0.77430 0.23785
vn -0.68881 -0.66842 0.28065
vn -0.64637 -0.63991 0.41559
vn -0.55603 -0.74352 0.37149
vn -0.45393 -0.81547 0.35911
vn -0.47803 -0.84957 0.22298
vn 0.28706 -0.85884 0.42426
vn 0.38652 -0.80652 0.44736
vn 0.41865 -0.86277 0.28349
vn 0.31080 -0.91390 0.26112
vn 0.52519 -0.78050 0.33911
vn 0.52115 -0.74620 0.41424
vn 0.47473 -0.72001 0.50618
vn 0.45002 -0.66539 0.59560
vn 0.13898 0.06462 0.98818
vn 0.12967 0.05877 0.98981
vn -0.16371 0.92180 0.35141
vn -0.12585 0.90223 0.41248
vn -0.11832 0.79367 0.59673
vn -0.15073 0.83181 0.53420
vn -0.85504 0.19636 0.47995
vn -0.68485 0.50694 0.52344
vn -0.90015 -0.03710 0.43399
vn -0.75593 -0.02797 0.65405
vn -0.68092 0.16189 0.71424
vn -0.85595 -0.30313 0.41889
vn -0.72565 -0.25882 0.63754
vn -0.67047 -0.59343 0.44531
vn 0.52194 -0.69019 0.50121
vn 0.56036 -0.66175 0.49808
vn 0.51099 -0.71742 0.47349
vn 0.42123 -0.61276 0.66865
vn 0.42385 -0.57208 0.70220
vn 0.07152 0.03773 0.99673
vn 0.02476 0.00082 0.99969
vn -0.15559 0.86976 0.46830
vn -0.36223 0.77652 0.51556
vn -0.28273 0.60316 0.74583
vn -0.13862 0.72746 0.67200
vn -0.51938 0.38318 0.76382
vn -0.01081 -0.04084 0.99911
vn -0.00908 -0.10070 0.99488
vn 0.66780 -0.57662 0.47069
vn 0.46372 -0.53922 0.70300
vn 0.56233 -0.47006 0.68032
vn 0.71586 -0.20478 0.66754
vn 0.85775 -0.24877 0.44987
vn 0.06018 -0.09717 0.99345
vn 0.67276 0.29663 0.67779
vn 0.81188 0.37165 0.45026
vn 0.07092 0.03190 0.99697
vn 0.33713 0.65386 0.67736
vn 0.39705 0.79901 0.45158
vn -0.02889 0.10625 0.99392
vn -0.07850 0.06571 0.99475
vn -0.41300 -0.77755 0.47419
vn -0.33485 -0.63182 0.69906
vn -0.55427 -0.49122 0.67193
vn -0.21556 -0.84441 0.49041
vn -0.17425 -0.68977 0.70275
vn 0.10232 0.87777 0.46803
vn 0.03069 0.87180 0.48890
vn 0.08841 0.72682 0.68111
vn 0.02731 0.72747 0.68560
vn 0.00863 0.72744 0.68612
vn 0.00739 0.86581 0.50032
vn -0.05789 0.02792 0.99793
vn -0.02613 0.01860 0.99949
vn -0.00385 0.01734 0.99984
vn -0.09363 -0.86051 0.50076
vn -0.01985 -0.86208 0.50639
vn -0.01498 -0.71123 0.70280
vn -0.07416 -0.70894 0.70136
vn -0.00650 0.86325 0.50474
vn -0.01786 0.86519 0.50113
vn -0.00527 0.72581 0.68787
vn -0.01917 0.72735 0.68600
vn -0.03467 0.73416 0.67809
vn -0.03312 0.87158 0.48914
vn 0.01305 0.01895 0.99974
vn 0.03863 0.02150 0.99902
vn 0.06035 -0.85987 0.50693
vn 0.17575 -0.84763 0.50063
vn 0.14280 -0.69564 0.70405
vn 0.04920 -0.70641 0.70610
vn -0.04568 0.88259 0.46792
vn 0.61930 -0.71347 0.32776
vn 0.55288 -0.65179 0.51913
vn 0.41873 -0.64633 0.63790
vn 0.49509 -0.75671 0.42694
vn 0.20163 0.07591 0.97651
vn 0.13960 0.04831 0.98903
vn -0.15029 0.93116 0.33220
vn -0.06592 0.90324 0.42405
vn -0.06881 0.78253 0.61880
vn -0.16692 0.84255 0.51209
vn -0.24796 0.86790 0.43043
vn -0.21981 0.93774 0.26894
vn -0.70923 -0.61271 0.34870
vn -0.69187 -0.63910 0.33595
vn -0.63982 -0.59915 0.48129
vn -0.04628 0.74863 0.66137
vn 0.07269 0.02887 0.99694
vn 0.31943 -0.81669 0.48062
vn 0.26187 -0.67510 0.68969
vn -0.56644 -0.70496 0.42681
vn -0.35784 -0.46269 0.81109
vn 0.01037 -0.09367 0.99555
vn -0.10807 -0.03906 0.99338
vn 0.36233 0.30529 0.88063
vn 0.32314 0.37074 0.87070
vn 0.59021 0.60704 0.53213
vn 0.58138 0.62654 0.51908
vn 0.92044 0.06067 0.38614
vn 0.84648 0.32144 0.42444
vn 0.67869 0.58306 0.44656
vn 0.73339 0.24383 0.63458
vn 0.80185 -0.00046 0.59753
vn 0.63190 0.61320 0.47401
vn 0.38016 0.36106 0.85154
vn 0.34976 0.36162 0.86423
vn 0.60920 0.61897 0.49573
vn 0.16611 0.16271 0.97259
vn -0.13712 -0.05695 0.98892
vn -0.36916 -0.27278 0.88843
vn -0.14274 -0.04573 0.98870
vn 0.32378 0.37488 0.86869
vn 0.59433 0.62217 0.50959
vn 0.27272 -0.85936 0.43258
vn 0.65005 0.72536 0.22645
f 1//1 9//2 10//3 11//4
f 13//5 14//6 9//2 1//1
f 1//1 11//7 12//8 13//5
f 2//9 15//10 16//11 17//12
f 19//13 20//14 15//14 2//9
f 2//9 17//12 18//15 19//13
f 3//16 21//17 22//18 23//19
f 3//20 24//21 25//22 21//23
f 3//20 23//24 19//24 18//25
f 4//26 28//27 27//28 26//29
f 4//26 26//29 339//30 29//31
f 4//26 29//31 30//32 28//27
f 5//33 31//34 32//35 33//36
f 5//33 34//37 35//38 31//34
f 5//33 33//36 36//39 34//37
f 6//40 38//41 37//42 340//43
f 6//44 39//45 40//46 38//41
f 41//47 42//48 43//49 44//50
f 7//51 8//52 45//53 46//54
f 48//55 49//56 8//52 7//51
f 7//51 46//54 47//57 48//55
f 8//52 49//56 50//58 51//59
f 9//60 14//61 52//62 53//63
f 53//63 54//64 55//65 9//60
f 53//63 52//62 56//66 57//66
f 53//63 57//67 58//68 54//64
f 58//68 59//69 60//70 54//64
f 58//68 57//67 61//71 341//72
f 58//68 341//72 342//73 59//69
f 342//73 62//74 63//75 59//69
f 64//76 37//42 38//41 65//77
f 64//76 65//77 63//75 62//74
f 65//77 38//41 40//46 66//78
f 65//77 66//78 67//79 63//75
f 67//79 66//78 36//39 68//80
f 67//79 68//80 69//81 60//70
f 67//79 60//70 59//69 63//75
f 69//81 68//80 70//82 71//83
f 69//81 71//83 72//84 55//65
f 69//81 55//65 54//64 60//70
f 72//84 71//83 73//85 74//86
f 72//84 74//86 75//87 10//88
f 72//84 10//3 9//2 55//65
f 75//87 74//86 343//89 76//90
f 75//87 76//90 77//91 78//92
f 75//87 78//92 11//93 10//88
f 78//92 77//91 79//94 80//95
f 78//92 80//95 81//96 11//93
f 81//96 80//95 82//97 83//98
f 81//99 83//100 84//101 85//102
f 81//99 85//102 12//8 11//7
f 85//102 84//101 344//103 345//104
f 85//102 345//104 86//105 12//106
f 86//107 87//108 13//5 12//8
f 88//109 61//109 57//66 56//66
f 88//110 56//111 90//111 89//110
f 90//111 56//111 52//112 91//112
f 90//113 91//114 92//115 93//116
f 90//113 93//116 94//117 89//118
f 94//117 93//116 95//119 96//120
f 98//121 97//122 99//123 100//124
f 98//121 100//124 13//5 87//108
f 100//124 99//123 101//125 102//126
f 100//124 102//126 14//6 13//5
f 102//127 101//128 92//115 91//127
f 102//127 91//127 52//62 14//61
f 101//125 99//123 103//129 104//130
f 101//128 104//130 105//131 92//115
f 105//131 104//130 106//132 107//133
f 105//131 107//133 108//134 95//119
f 105//131 95//119 93//116 92//115
f 108//134 107//133 109//135 110//136
f 108//134 110//136 111//137 112//138
f 108//134 112//138 96//120 95//119
f 113//139 346//140 114//141 103//129
f 113//139 103//129 99//123 97//122
f 114//141 346//140 347//142 115//143
f 114//141 115//143 116//144 106//132
f 114//141 106//132 104//130 103//129
f 116//144 115//143 117//145 118//146
f 116//147 118//148 119//148 109//135
f 116//147 109//135 107//133 106//132
f 119//148 118//148 120//149 121//149
f 119//150 121//151 122//152 123//153
f 119//150 123//153 110//136 109//135
f 123//153 122//152 348//154 349//155
f 123//153 349//155 111//137 110//136
f 350//156 124//157 125//158 117//145
f 350//156 117//145 115//143 347//142
f 125//158 124//157 126//159 127//160
f 125//158 127//160 128//161 120//162
f 125//158 120//162 118//146 117//145
f 128//161 127//160 129//163 130//164
f 128//165 130//166 131//166 132//165
f 128//165 132//165 121//149 120//149
f 132//167 131//168 133//169 134//170
f 132//167 134//170 122//152 121//151
f 134//170 133//169 351//171 352//172
f 134//170 352//172 348//154 122//152
f 353//173 135//174 136//175 129//163
f 353//173 129//163 127//160 126//159
f 354//176 355//177 139//178 140//179
f 354//176 140//179 141//180 138//181
f 141//180 140//179 142//182 143//183
f 141//180 143//183 144//184 145//185
f 141//180 145//185 146//186 138//181
f 146//186 145//185 147//187 148//188
f 357//189 356//190 149//191 150//192
f 357//189 150//192 151//193 137//194
f 151//193 136//175 135//195 137//194
f 151//193 150//192 152//196 153//197
f 151//193 153//197 154//198 136//175
f 154//198 130//164 129//163 136//175
f 154//199 153//200 155//200 156//199
f 154//199 156//199 131//166 130//166
f 156//201 155//202 157//203 158//204
f 156//201 158//204 133//169 131//168
f 158//204 157//203 358//205 159//206
f 158//204 159//206 351//171 133//169
f 358//205 157//203 160//207 359//208
f 160//207 157//203 155//202 161//209
f 160//207 161//209 162//210 139//178
f 160//207 139//178 355//177 359//208
f 162//210 161//211 152//211 163//212
f 162//210 163//212 164//213 142//182
f 162//210 142//182 140//179 139//178
f 164//213 163//212 149//191 165//214
f 164//213 165//214 166//215 167//216
f 164//213 167//216 143//183 142//182
f 167//216 166//215 168//217 169//218
f 167//216 169//218 144//184 143//183
f 169//218 168//217 170//219 171//220
f 169//218 171//221 172//221 144//184
f 172//221 171//221 173//222 174//222
f 172//223 174//224 175//225 147//187
f 172//223 147//187 145//185 144//184
f 175//225 174//224 176//226 177//227
f 175//225 177//227 178//228 179//229
f 175//225 179//229 148//188 147//187
f 181//230 180//231 168//217 166//215
f 181//230 166//215 165//214 360//232
f 180//231 361//233 170//219 168//217
f 361//233 362//234 182//235 170//219
f 182//235 362//234 183//236 184//237
f 182//235 184//237 185//238 173//239
f 182//235 173//239 171//220 170//219
f 185//238 184//237 186//240 187//241
f 185//242 187//243 188//244 176//242
f 185//242 176//242 174//222 173//222
f 188//244 187//243 189//245 190//246
f 188//244 190//246 191//247 192//247
f 188//248 192//248 193//249 194//249
f 188//250 194//251 177//227 176//226
f 194//249 193//249 195//252 196//252
f 194//251 196//253 178//228 177//227
f 197//254 363//255 198//256 186//240
f 197//254 186//240 184//237 183//236
f 198//256 363//255 199//257 200//258
f 198//256 200//258 201//259 189//260
f 198//256 189//260 187//241 186//240
f 201//259 200//258 202//261 203//262
f 201//263 203//264 204//264 205//263
f 201//263 205//263 190//246 189//245
f 205//265 204//266 206//267 207//268
f 205//265 207//268 208//269 190//270
f 208//271 209//272 191//273 190//274
f 208//269 207//268 364//275 365//276
f 208//271 365//277 210//278 209//272
f 210//278 211//279 212//280 209//272
f 212//280 211//279 213//281 214//282
f 212//280 214//282 215//283 216//284
f 212//280 216//284 191//273 209//272
f 216//285 215//286 217//286 218//285
f 216//285 218//285 192//247 191//247
f 218//287 217//288 219//289 220//290
f 218//287 220//290 193//291 192//292
f 220//290 219//289 221//293 222//294
f 220//290 222//294 195//295 193//291
f 224//296 366//297 226//298 227//299
f 224//296 227//299 228//300 225//301
f 228//300 227//299 229//302 230//303
f 228//300 230//303 231//304 232//305
f 228//300 232//305 233//306 225//301
f 233//306 232//305 234//307 367//308
f 369//309 368//310 236//311 237//312
f 369//309 237//312 238//313 223//314
f 238//313 214//282 213//281 223//314
f 238//313 237//312 239//315 240//316
f 238//313 240//316 215//283 214//282
f 240//317 239//318 241//318 242//317
f 240//317 242//317 217//286 215//286
f 242//319 241//320 243//321 244//322
f 242//319 244//322 219//289 217//288
f 244//322 243//321 370//323 371//324
f 244//322 371//324 221//293 219//289
f 243//321 241//320 245//325 226//298
f 243//321 226//298 366//297 370//323
f 245//326 241//318 239//318 246//326
f 245//326 246//326 247//327 229//327
f 245//325 229//302 227//299 226//298
f 247//328 246//329 236//311 248//330
f 247//328 248//330 249//331 250//332
f 247//327 250//333 230//333 229//327
f 250//332 249//331 251//334 252//335
f 250//333 252//336 231//336 230//333
f 252//335 251//334 253//337 254//338
f 252//336 254//339 255//339 231//336
f 255//339 254//339 256//340 257//340
f 255//341 257//342 258//343 234//307
f 255//341 234//307 232//305 231//304
f 258//343 257//342 259//344 260//345
f 258//343 260//345 261//346 262//347
f 258//343 262//347 367//308 234//307
f 264//348 263//349 251//334 249//331
f 264//348 249//331 248//330 235//350
f 263//351 372//352 253//337 251//334
f 372//352 373//353 265//354 253//337
f 265//354 373//353 266//355 267//356
f 265//354 267//356 268//357 256//358
f 265//354 256//358 254//338 253//337
f 268//357 267//356 269//359 270//360
f 268//361 270//362 271//362 259//361
f 268//361 259//361 257//340 256//340
f 271//362 270//362 272//363 273//363
f 271//364 273//365 274//366 275//367
f 271//364 275//367 260//345 259//344
f 275//367 274//366 276//368 374//369
f 275//367 374//369 261//346 260//345
f 277//370 375//371 278//372 269//359
f 277//370 269//359 267//356 266//355
f 278//372 375//371 279//373 280//374
f 278//372 280//374 281//375 272//376
f 278//372 272//376 270//360 269//359
f 281//375 280//374 282//377 283//378
f 281//379 283//380 284//380 285//379
f 281//379 285//379 273//363 272//363
f 285//381 284//382 286//383 287//384
f 285//381 287//384 274//366 273//365
f 287//384 286//383 376//385 288//386
f 287//384 288//386 276//368 274//366
f 377//387 289//388 290//389 282//377
f 377//387 282//377 280//374 279//373
f 379//390 292//391 294//392 22//18
f 379//393 22//18 21//17 293//393
f 294//392 295//394 296//395 297//396
f 294//392 297//396 23//19 22//18
f 294//392 292//391 378//397 295//394
f 297//398 296//399 298//399 299//398
f 297//398 299//398 19//24 23//24
f 299//400 298//401 300//402 301//403
f 299//400 301//403 20//404 19//405
f 301//403 300//402 291//406 380//407
f 301//403 380//407 381//408 20//404
f 381//409 382//409 15//14 20//14
f 382//410 383//411 16//11 15//10
f 383//411 302//412 303//413 16//11
f 304//414 384//415 206//267 305//416
f 304//414 305//416 303//413 302//412
f 305//416 206//267 204//266 51//417
f 305//416 51//417 50//58 303//413
f 384//415 364//275 207//268 206//267
f 385//418 306//419 45//53 202//261
f 385//418 202//261 200//258 199//257
f 306//419 307//420 46//54 45//53
f 307//420 344//103 84//101 46//54
f 303//413 50//58 17//12 16//11
f 300//402 290//389 289//388 291//406
f 300//402 298//401 308//421 290//389
f 308//421 283//378 282//377 290//389
f 308//422 298//399 296//399 309//422
f 308//422 309//422 284//380 283//380
f 309//423 296//395 295//394 310//424
f 309//423 310//424 286//383 284//382
f 310//424 295//394 378//397 386//425
f 310//424 386//425 376//385 286//383
f 293//426 21//23 25//22 387//427
f 387//427 25//22 312//428 311//429
f 312//428 25//22 24//21 313//430
f 312//428 313//430 41//47 44//50
f 312//428 44//50 314//431 311//429
f 314//431 44//50 43//49 388//432
f 388//432 43//49 29//31 339//30
f 313//430 24//21 315//433 316//434
f 313//430 316//434 42//48 41//47
f 316//434 315//433 317//435 318//436
f 316//434 318//436 30//32 42//48
f 318//436 317//435 319//437 320//438
f 318//436 320//438 28//27 30//32
f 320//438 319//437 389//439 321//440
f 320//438 321//440 27//28 28//27
f 323//441 391//442 324//443 82//97
f 323//444 82//97 80//95 79//94
f 324//443 391//442 322//445 325//446
f 324//443 325//446 48//55 47//447
f 324//443 47//447 83//98 82//97
f 325//446 322//445 390//448 326//449
f 325//446 326//449 327//450 48//55
f 327//450 326//449 328//451 329//452
f 327//450 329//452 330//453 331//454
f 327//450 331//454 49//56 48//55
f 331//455 330//453 18//25 17//12
f 331//455 17//12 50//58 49//56
f 330//453 329//452 332//456 333//457
f 330//453 333//457 3//20 18//25
f 333//457 332//456 317//435 315//433
f 333//457 315//433 24//21 3//20
f 332//456 329//452 328//451 334//458
f 332//456 334//458 319//437 317//435
f 334//458 328//451 392//459 335//460
f 334//458 335//460 389//439 319//437
f 392//459 328//451 326//449 390//448
f 248//330 236//311 368//310 235//350
f 246//329 239//315 237//312 236//311
f 204//264 203//264 8//52 51//59
f 203//262 202//261 45//53 8//52
f 165//214 149//191 356//190 360//232
f 163//212 152//196 150//192 149//191
f 161//211 155//200 153//200 152//211
f 336//461 393//462 337//463 32//35
f 336//461 32//35 31//34 338//464
f 338//465 31//34 35//38 394//466
f 394//466 35//38 39//467 395//468
f 395//468 39//467 6//40 340//43
f 337//463 393//462 396//469 73//85
f 337//463 73//85 71//83 70//82
f 337//463 70//82 33//36 32//35
f 396//469 343//89 74//86 73//85
f 84//101 83//100 47//57 46//54
f 70//82 68//80 36//39 33//36
f 66//78 40//46 34//37 36//39
f 43//49 42//48 30//32 29//31
f 40//46 39//45 35//38 34//37
f 407//470 406//471 405//472 397//473
f 397//473 405//472 410//474 409//475
f 409//475 408//476 407//477 397//473
f 413//478 412//479 411//480 398//481
f 398//481 411//482 416//482 415//483
f 415//483 414//484 413//478 398//481
f 419//485 418//486 417//487 399//488
f 417//489 421//490 420//491 399//492
f 414//484 415//493 419//493 399//492
f 26//29 27//28 422//494 400//495
f 423//496 339//30 26//29 400//495
f 422//494 424//497 423//496 400//495
f 427//498 426//499 425//500 401//501
f 425//500 429//502 428//503 401//501
f 428//503 430//504 427//498 401//501
f 340//43 37//42 431//505 402//506
f 431//505 433//507 432//508 402//506
f 437//509 436//510 435//511 434//512
f 439//513 438//514 404//515 403//516
f 403//516 404//515 442//517 441//518
f 441//518 440//519 439//513 403//516
f 444//520 443//521 442//517 404//515
f 446//522 445//523 410//524 405//472
f 405//472 448//525 447//526 446//522
f 450//527 449//527 445//523 446//522
f 447//526 451//528 450//529 446//522
f 447//526 453//530 452//531 451//528
f 341//72 61//71 450//529 451//528
f 452//531 342//73 341//72 451//528
f 452//531 454//532 62//74 342//73
f 455//533 431//505 37//42 64//76
f 62//74 454//532 455//533 64//76
f 456//534 433//507 431//505 455//533
f 454//532 457//535 456//534 455//533
f 458//536 430//504 456//534 457//535
f 453//530 459//537 458//536 457//535
f 454//532 452//531 453//530 457//535
f 461//538 460//539 458//536 459//537
f 448//525 462//540 461//538 459//537
f 453//530 447//526 448//525 459//537
f 464//541 463//542 461//538 462//540
f 406//543 465//544 464//541 462//540
f 448//525 405//472 406//471 462//540
f 76//90 343//89 464//541 465//544
f 466//545 77//91 76//90 465//544
f 406//543 407//546 466//545 465//544
f 467//547 79//94 77//91 466//545
f 407//546 468//548 467//547 466//545
f 470//549 469//550 467//547 468//548
f 472//551 471//552 470//553 468//554
f 407//477 408//476 472//551 468//554
f 345//104 344//103 471//552 472//551
f 408//555 86//105 345//104 472//551
f 408//476 409//475 87//108 86//107
f 449//527 450//527 61//109 88//109
f 89//110 473//556 449//556 88//110
f 474//557 445//557 449//556 473//556
f 476//558 475//559 474//560 473//561
f 89//118 94//117 476//558 473//561
f 96//120 477//562 476//558 94//117
f 479//563 478//564 97//122 98//121
f 87//108 409//475 479//563 98//121
f 481//565 480//566 478//564 479//563
f 409//475 410//474 481//565 479//563
f 474//567 475//559 480//568 481//567
f 410//524 445//523 474//567 481//567
f 483//569 482//570 478//564 480//566
f 475//559 484//571 483//569 480//568
f 486//572 485//573 483//569 484//571
f 477//562 487//574 486//572 484//571
f 475//559 476//558 477//562 484//571
f 489//575 488//576 486//572 487//574
f 112//138 111//137 489//575 487//574
f 477//562 96//120 112//138 487//574
f 482//570 490//577 346//140 113//139
f 97//122 478//564 482//570 113//139
f 491//578 347//142 346//140 490//577
f 485//573 492//579 491//578 490//577
f 482//570 483//569 485//573 490//577
f 494//580 493//581 491//578 492//579
f 488//576 495//582 494//582 492//583
f 485//573 486//572 488//576 492//583
f 497//584 496//584 494//582 495//582
f 499//585 498//586 497//587 495//588
f 488//576 489//575 499//585 495//588
f 349//155 348//154 498//586 499//585
f 489//575 111//137 349//155 499//585
f 493//581 500//589 124//157 350//156
f 347//142 491//578 493//581 350//156
f 501//590 126//159 124//157 500//589
f 496//591 502//592 501//590 500//589
f 493//581 494//580 496//591 500//589
f 504//593 503//594 501//590 502//592
f 506//595 505//596 504//596 502//595
f 496//584 497//584 506//595 502//595
f 508//597 507//598 505//599 506//600
f 497//587 498//586 508//597 506//600
f 352//172 351//171 507//598 508//597
f 498//586 348//154 352//172 508//597
f 503//594 509//601 135//174 353//173
f 126//159 501//590 503//594 353//173
f 511//602 510//603 355//177 354//176
f 138//181 512//604 511//602 354//176
f 514//605 513//606 511//602 512//604
f 516//607 515//608 514//605 512//604
f 138//181 146//186 516//607 512//604
f 148//188 517//609 516//607 146//186
f 519//610 518//611 356//190 357//189
f 137//194 520//612 519//610 357//189
f 137//194 135//195 509//601 520//612
f 522//613 521//614 519//610 520//612
f 509//601 523//615 522//613 520//612
f 509//601 503//594 504//593 523//615
f 525//616 524//617 522//617 523//616
f 504//596 505//596 525//616 523//616
f 527//618 526//619 524//620 525//621
f 505//599 507//598 527//618 525//621
f 159//206 358//205 526//619 527//618
f 507//598 351//171 159//206 527//618
f 359//208 528//622 526//619 358//205
f 529//623 524//620 526//619 528//622
f 510//603 530//624 529//623 528//622
f 359//208 355//177 510//603 528//622
f 531//625 521//626 529//626 530//624
f 513//606 532//627 531//625 530//624
f 510//603 511//602 513//606 530//624
f 533//628 518//611 531//625 532//627
f 535//629 534//630 533//628 532//627
f 513//606 514//605 535//629 532//627
f 537//631 536//632 534//630 535//629
f 514//605 515//608 537//631 535//629
f 539//633 538//634 536//632 537//631
f 515//608 540//635 539//635 537//631
f 542//636 541//636 539//635 540//635
f 517//609 543//637 542//638 540//639
f 515//608 516//607 517//609 540//639
f 545//640 544//641 542//638 543//637
f 179//229 178//228 545//640 543//637
f 517//609 148//188 179//229 543//637
f 534//630 536//632 180//231 181//642
f 360//232 533//628 534//630 181//642
f 536//632 538//634 361//233 180//231
f 538//634 546//643 362//234 361//233
f 547//644 183//236 362//234 546//643
f 541//645 548//646 547//644 546//643
f 538//634 539//633 541//645 546//643
f 550//647 549//648 547//644 548//646
f 544//649 551//650 550//651 548//649
f 541//636 542//636 544//649 548//649
f 553//652 552//653 550//651 551//650
f 555//654 554//654 553//652 551//650
f 557//655 556//656 555//657 551//658
f 544//641 545//640 557//659 551//660
f 196//252 195//252 556//656 557//655
f 545//640 178//228 196//253 557//659
f 549//648 558//661 363//255 197//254
f 183//236 547//644 549//648 197//254
f 559//662 199//257 363//255 558//661
f 552//663 560//664 559//662 558//661
f 549//648 550//647 552//663 558//661
f 562//665 561//666 559//662 560//664
f 564//667 563//668 562//668 560//667
f 552//653 553//652 564//667 560//667
f 566//669 565//670 563//671 564//672
f 553//673 567//674 566//669 564//672
f 553//675 554//676 568//677 567//678
f 365//276 364//275 566//669 567//674
f 568//677 210//278 365//277 567//678
f 568//677 569//679 211//279 210//278
f 570//680 213//281 211//279 569//679
f 572//681 571//682 570//680 569//679
f 568//677 554//676 572//681 569//679
f 574//683 573//684 571//684 572//683
f 554//654 555//654 574//683 572//683
f 576//685 575//686 573//687 574//688
f 555//657 556//656 576//685 574//688
f 222//294 221//293 575//686 576//685
f 556//656 195//295 222//294 576//685
f 578//689 577//690 366//297 224//296
f 225//301 579//691 578//689 224//296
f 581//692 580//693 578//689 579//691
f 583//694 582//695 581//692 579//691
f 225//301 233//306 583//694 579//691
f 367//308 584//696 583//694 233//306
f 586//697 585//698 368//310 369//309
f 223//314 587//699 586//697 369//309
f 223//314 213//281 570//680 587//699
f 589//700 588//701 586//697 587//699
f 570//680 571//682 589//700 587//699
f 591//702 590//703 588//703 589//702
f 571//684 573//684 591//702 589//702
f 593//704 592//705 590//706 591//707
f 573//687 575//686 593//704 591//707
f 371//324 370//323 592//705 593//704
f 575//686 221//293 371//324 593//704
f 577//690 594//708 590//706 592//705
f 370//323 366//297 577//690 592//705
f 595//709 588//703 590//703 594//709
f 580//710 596//710 595//709 594//709
f 577//690 578//689 580//693 594//708
f 597//711 585//698 595//712 596//713
f 599//714 598//715 597//711 596//713
f 580//710 581//716 599//716 596//710
f 601//717 600//718 598//715 599//714
f 581//716 582//719 601//719 599//716
f 603//720 602//721 600//718 601//717
f 582//719 604//722 603//722 601//719
f 606//723 605//723 603//722 604//722
f 584//696 607//724 606//725 604//726
f 582//695 583//694 584//696 604//726
f 609//727 608//728 606//725 607//724
f 262//347 261//346 609//727 607//724
f 584//696 367//308 262//347 607//724
f 598//715 600//718 263//349 264//348
f 235//350 597//711 598//715 264//348
f 600//718 602//721 372//352 263//351
f 602//721 610//729 373//353 372//352
f 611//730 266//355 373//353 610//729
f 605//731 612//732 611//730 610//729
f 602//721 603//720 605//731 610//729
f 614//733 613//734 611//730 612//732
f 608//735 615//736 614//736 612//735
f 605//723 606//723 608//735 612//735
f 617//737 616//737 614//736 615//736
f 619//738 618//739 617//740 615//741
f 608//728 609//727 619//738 615//741
f 374//369 276//368 618//739 619//738
f 609//727 261//346 374//369 619//738
f 613//734 620//742 375//371 277//370
f 266//355 611//730 613//734 277//370
f 621//743 279//373 375//371 620//742
f 616//744 622//745 621//743 620//742
f 613//734 614//733 616//744 620//742
f 624//746 623//747 621//743 622//745
f 626//748 625//749 624//749 622//748
f 616//737 617//737 626//748 622//748
f 628//750 627//751 625//752 626//753
f 617//740 618//739 628//750 626//753
f 288//386 376//385 627//751 628//750
f 618//739 276//368 288//386 628//750
f 623//747 629//754 289//388 377//387
f 279//373 621//743 623//747 377//387
f 418//486 630//755 292//391 379//390
f 293//393 417//487 418//486 379//393
f 633//756 632//757 631//758 630//755
f 418//486 419//485 633//756 630//755
f 631//758 378//397 292//391 630//755
f 635//759 634//760 632//760 633//759
f 419//493 415//493 635//759 633//759
f 637//761 636//762 634//763 635//764
f 415//765 416//766 637//761 635//764
f 380//407 291//406 636//762 637//761
f 416//766 381//408 380//407 637//761
f 416//482 411//482 382//409 381//409
f 411//480 412//479 383//411 382//410
f 412//479 638//767 302//412 383//411
f 639//768 565//670 384//415 304//414
f 302//412 638//767 639//768 304//414
f 444//769 563//671 565//670 639//768
f 638//767 443//521 444//769 639//768
f 565//670 566//669 364//275 384//415
f 561//666 438//514 306//419 385//418
f 199//257 559//662 561//666 385//418
f 438//514 439//513 307//420 306//419
f 439//513 471//552 344//103 307//420
f 412//479 413//478 443//521 638//767
f 291//406 289//388 629//754 636//762
f 629//754 640//770 634//763 636//762
f 629//754 623//747 624//746 640//770
f 641//771 632//760 634//760 640//771
f 624//749 625//749 641//771 640//771
f 642//772 631//758 632//757 641//773
f 625//752 627//751 642//772 641//773
f 386//425 378//397 631//758 642//772
f 627//751 376//385 386//425 642//772
f 387//427 421//490 417//489 293//426
f 311//429 643//774 421//490 387//427
f 644//775 420//491 421//490 643//774
f 437//509 434//512 644//775 643//774
f 311//429 314//431 437//509 643//774
f 388//432 436//510 437//509 314//431
f 339//30 423//496 436//510 388//432
f 646//776 645//777 420//491 644//775
f 434//512 435//511 646//776 644//775
f 648//778 647//779 645//777 646//776
f 435//511 424//497 648//778 646//776
f 650//780 649//781 647//779 648//778
f 424//497 422//494 650//780 648//778
f 321//440 389//439 649//781 650//780
f 422//494 27//28 321//440 650//780
f 469//782 651//783 391//442 323//441
f 79//94 467//547 469//550 323//444
f 652//784 322//445 391//442 651//783
f 440//785 441//518 652//784 651//783
f 469//782 470//786 440//785 651//783
f 653//787 390//448 322//445 652//784
f 441//518 654//788 653//787 652//784
f 656//789 655//790 653//787 654//788
f 658//791 657//792 656//789 654//788
f 441//518 442//517 658//791 654//788
f 413//478 414//484 657//792 658//793
f 442//517 443//521 413//478 658//793
f 660//794 659//795 656//789 657//792
f 414//484 399//492 660//794 657//792
f 645//777 647//779 659//795 660//794
f 399//492 420//491 645//777 660//794
f 661//796 655//790 656//789 659//795
f 647//779 649//781 661//796 659//795
f 335//460 392//459 655//790 661//796
f 649//781 389//439 335//460 661//796
f 390//448 653//787 655//790 392//459
f 235//350 368//310 585//698 597//711
f 585//698 586//697 588//701 595//712
f 444//520 404//515 562//668 563//668
f 404//515 438//514 561//666 562//665
f 360//232 356//190 518//611 533//628
f 518//611 519//610 521//614 531//625
f 521//626 522//617 524//617 529//626
f 426//499 662//797 393//462 336//461
f 338//464 425//500 426//499 336//461
f 394//466 429//502 425//500 338//465
f 395//468 432//798 429//502 394//466
f 340//43 402//506 432//798 395//468
f 463//542 396//469 393//462 662//797
f 460//539 461//538 463//542 662//797
f 426//499 427//498 460//539 662//797
f 463//542 464//541 343//89 396//469
f 439//513 440//519 470//553 471//552
f 427//498 430//504 458//536 460//539
f 430//504 428//503 433//507 456//534
f 423//496 424//497 435//511 436//510
f 428//503 429//502 432//508 433//507
