# pilowlava3D glyph '&' variant 3 — Vincent Wagner / Velvetyne, Free Art License
v 3.98932 3.25770 -0.22438
v 4.75146 2.35586 -0.23797
v 4.23763 2.31436 -0.22782
v 2.85275 1.32234 -0.54355
v 4.06337 3.70405 -0.41532
v 3.81560 3.28609 -0.29019
v 3.96577 3.49184 -0.44983
v 4.15666 3.41878 -0.27402
v 4.78214 2.39277 0.00000
v 4.77055 2.13400 -0.26504
v 4.60556 2.15822 -0.40288
v 4.59753 2.43907 -0.31656
v 4.20267 2.34911 0.00000
v 4.23131 2.07331 0.00000
v 4.36870 2.42436 -0.31476
v 4.43031 2.14390 -0.39866
v 4.28157 2.09247 -0.25547
v 3.03969 1.50596 -0.52622
v 3.23381 1.33337 -0.55141
v 2.98405 1.09311 -0.53540
v 2.66029 1.18310 -0.45552
v 2.61641 1.44043 -0.45679
v 2.86868 1.67082 -0.49760
v 4.18633 3.73892 -0.25759
v 3.72379 3.60372 -0.49342
v 3.87637 3.85929 -0.46342
v 3.98862 4.02807 -0.26896
v 1.96341 0.76089 -0.38761
v 1.77441 0.60573 -0.40630
v 1.70305 0.73342 -0.23032
v 1.87683 0.84092 -0.21300
v 1.95918 0.99016 -0.19393
v 2.06129 0.98784 -0.34757
v 2.11732 0.64273 -0.41892
v 1.90492 0.39342 -0.43084
v 1.63052 0.27189 -0.43719
v 1.55179 0.51241 -0.42233
v 2.24602 0.52205 -0.27323
v 2.01530 0.23787 -0.27513
v 1.68575 0.09249 -0.26868
v 1.34958 0.06112 -0.26473
v 1.33369 0.22633 -0.42949
v 1.35458 0.00000 0.00000
v 1.02252 0.02975 0.00000
v 1.02611 0.08410 -0.26002
v 0.70633 0.13854 0.00000
v 0.42389 0.33383 0.00000
v 0.43861 0.35508 -0.21095
v 0.71597 0.17597 -0.23769
v 0.48320 0.41960 -0.34041
v 0.74493 0.28274 -0.37585
v 1.03767 0.22367 -0.40902
v 0.77452 0.41776 -0.37070
v 1.04047 0.41481 -0.40217
v 1.29924 0.45030 -0.41907
v 1.03075 0.54675 -0.24773
v 1.26825 0.59426 -0.24462
v 1.49425 0.65855 -0.24133
v 1.25352 0.65720 0.00000
v 1.68239 0.77246 0.00000
v 1.85583 0.86256 0.00000
v 1.93501 0.99405 0.00000
v 1.77376 1.30487 -0.15823
v 1.92587 1.14235 -0.17970
v 1.56137 1.46135 0.00000
v 0.68504 2.25876 0.00000
v 0.21815 2.09885 0.00000
v 1.12000 2.04838 -0.22654
v 0.70984 2.18794 -0.29186
v 0.27718 2.03322 -0.32600
v 0.77219 1.97567 -0.46475
v 0.46744 1.82918 -0.49378
v 0.29260 1.54969 -0.47989
v 0.08452 1.64324 -0.29888
v 0.01169 1.67736 0.00000
v 0.06516 1.26232 -0.27586
v 1.35141 1.59336 0.00000
v 1.14114 1.62105 -0.21325
v 1.35561 1.60323 -0.16837
v 1.56590 1.46885 -0.15125
v 1.38431 1.66784 -0.30703
v 1.59741 1.51141 -0.27706
v 1.80760 1.34881 -0.28194
v 1.99869 1.15872 -0.31631
v 1.65654 1.59576 -0.27545
v 1.87294 1.42283 -0.28741
v 2.14870 1.19987 -0.35656
v 1.67999 1.64090 -0.14804
v 1.91107 1.45775 -0.16287
v 2.16121 1.31849 -0.19271
v 1.92627 1.46592 0.00000
v 2.15933 1.33410 0.00000
v 2.34583 1.39057 0.00000
v 2.36960 1.34881 -0.23902
v 2.31506 1.57277 0.00000
v 2.35068 1.60046 -0.21967
v 2.16125 1.77601 0.00000
v 1.98506 1.98056 0.00000
v 2.03238 2.02333 -0.25090
v 2.20663 1.81353 -0.24455
v 2.13455 2.12562 -0.43064
v 2.32352 1.91907 -0.43845
v 2.48396 1.69764 -0.43788
v 2.49278 2.08603 -0.45674
v 2.69209 1.88324 -0.47113
v 2.61703 2.22138 -0.27086
v 2.83470 2.04078 -0.28050
v 3.03911 1.86015 -0.29510
v 2.88933 2.11272 0.00000
v 3.30734 1.78668 0.00000
v 3.22815 1.69366 -0.31357
v 3.50363 1.63548 0.00000
v 3.41847 1.53356 -0.32904
v 3.69292 1.48866 0.00000
v 3.61195 1.37098 -0.34040
v 3.45799 1.13931 -0.57367
v 3.79597 1.22298 -0.34863
v 3.67352 0.94490 -0.58710
v 3.49292 0.62061 -0.58092
v 3.26543 0.86788 -0.56477
v 3.33495 0.37146 -0.34932
v 3.11372 0.65840 -0.33012
v 2.90036 0.87779 -0.30282
v 2.68098 0.97730 -0.27197
v 2.66905 0.93197 0.00000
v 2.46350 0.78427 0.00000
v 2.43579 0.82493 -0.27522
v 2.29207 0.48345 0.00000
v 0.20595 0.60179 0.00000
v 0.12550 0.92364 -0.24346
v 0.23489 0.60909 -0.21572
v 0.23711 0.91420 -0.38806
v 0.30656 0.63481 -0.33708
v 0.37032 0.90209 -0.38581
v 0.40379 0.67478 -0.33064
v 0.54709 0.50610 -0.32888
v 0.46619 0.70164 -0.20725
v 0.58839 0.56428 -0.20443
v 0.79471 0.52334 -0.22805
v 0.59850 0.58217 0.00000
v 1.02419 0.60675 0.00000
v 0.48557 0.70703 0.00000
v 0.51657 0.87109 0.00000
v 0.64224 1.04518 0.00000
v 0.70267 1.26168 -0.27994
v 0.83781 1.41157 -0.27835
v 0.97766 1.53603 -0.26066
v 0.68739 1.59013 -0.48204
v 0.86987 1.72516 -0.46330
v 1.13518 1.75493 -0.38798
v 1.12836 1.91388 -0.39269
v 1.41988 1.75886 -0.30918
v 1.42064 1.82565 -0.16933
v 0.54578 1.40089 -0.47471
v 0.57309 1.08496 -0.26376
v 0.42992 1.16197 -0.44352
v 0.23517 1.22946 -0.44605
v 0.47647 0.88514 -0.23120
v 4.20288 0.05713 0.00000
v 3.70332 0.13598 -0.35351
v 4.18289 0.14390 -0.32515
v 3.78873 0.42934 -0.56861
v 4.14342 0.40937 -0.51793
v 4.42041 0.64447 -0.42142
v 4.51315 0.49421 -0.26240
v 4.55464 0.43220 0.00000
v 4.61510 0.92244 -0.21368
v 3.86720 1.35363 0.00000
v 1.80727 2.18986 0.00000
v 1.66904 2.44077 -0.25044
v 1.85371 2.23369 -0.25216
v 1.75648 2.52966 -0.40585
v 1.94650 2.32960 -0.41849
v 1.88464 2.66309 -0.40684
v 2.08722 2.47439 -0.42280
v 2.28754 2.28025 -0.44078
v 2.18625 2.57810 -0.26186
v 2.40152 2.39901 -0.26576
v 2.66843 2.28280 0.00000
v 1.26442 2.82025 0.00000
v 1.29633 2.85181 -0.22545
v 1.48320 2.64722 -0.24071
v 1.36833 2.92875 -0.38071
v 1.56416 2.72873 -0.39355
v 1.47353 3.03790 -0.37786
v 1.68077 2.84990 -0.39266
v 1.54184 3.10619 -0.22646
v 1.75511 2.93003 -0.24321
v 1.96922 2.75440 -0.25471
v 1.35483 3.30172 0.00000
v 1.08064 3.03205 0.00000
v 0.92047 3.27601 -0.20157
v 1.10693 3.05885 -0.21417
v 0.97231 3.32684 -0.34739
v 1.17102 3.12715 -0.36701
v 1.06905 3.41441 -0.33808
v 1.27008 3.22607 -0.36094
v 1.12553 3.45640 -0.19384
v 1.32930 3.27994 -0.20983
v 0.95284 3.63772 -0.17251
v 0.88918 3.82123 -0.15903
v 0.89165 3.61352 -0.31396
v 0.82906 3.82788 -0.29430
v 0.90535 4.03549 -0.28647
v 0.95241 3.99616 -0.15667
v 0.78528 3.55115 -0.33010
v 0.69733 3.83583 -0.32220
v 0.80719 4.11405 -0.30868
v 1.05756 4.28809 -0.30843
v 1.10162 4.18051 -0.29202
v 0.61688 3.83569 -0.19745
v 0.75450 4.15215 -0.18315
v 1.03979 4.33821 -0.18017
v 1.35583 4.41813 -0.20350
v 1.34984 4.33984 -0.34451
v 1.03477 4.35463 0.00000
v 1.35832 4.44724 0.00000
v 1.66246 4.48526 0.00000
v 1.65550 4.43806 -0.23578
v 1.94717 4.49862 0.00000
v 2.23825 4.49184 0.00000
v 2.22939 4.42609 -0.25472
v 1.94264 4.43801 -0.25232
v 2.20407 4.27149 -0.43251
v 1.92749 4.29771 -0.41508
v 1.64206 4.32268 -0.38890
v 1.89703 4.11288 -0.41079
v 1.62561 4.17381 -0.38601
v 1.35439 4.21375 -0.34020
v 1.61449 4.06587 -0.23595
v 1.36807 4.12545 -0.19830
v 1.13135 4.12411 -0.16424
v 1.37555 4.09409 0.00000
v 0.96030 3.98645 0.00000
v 0.72813 3.51623 -0.19554
v 2.80081 4.36618 -0.26902
v 2.51514 4.40050 -0.26145
v 2.76006 4.18172 -0.46815
v 2.48207 4.23127 -0.45330
v 2.69252 3.91954 -0.47340
v 2.42728 3.98896 -0.45502
v 2.16148 4.05384 -0.43211
v 2.37956 3.81260 -0.26512
v 2.12421 3.89773 -0.25660
v 1.86707 3.98376 -0.25086
v 1.60741 4.01849 0.00000
v 2.60274 3.64423 0.00000
v 3.40395 4.33925 0.00000
v 3.10828 4.40264 0.00000
v 3.37805 4.25367 -0.27790
v 3.08887 4.31904 -0.27599
v 3.31587 4.05300 -0.49158
v 3.03682 4.12363 -0.48266
v 3.21750 3.77253 -0.50394
v 2.95514 3.84888 -0.48864
v 3.12871 3.55112 -0.29836
v 2.88387 3.63940 -0.28799
v 2.63309 3.72524 -0.27676
v 3.31883 3.36673 0.00000
v 4.02927 4.07761 0.00000
v 3.71474 4.24762 0.00000
v 3.67902 4.17434 -0.27622
v 3.60065 3.97787 -0.48419
v 3.47964 3.69381 -0.50547
v 3.58995 3.37304 -0.30573
v 3.36459 3.46137 -0.30524
v 3.54326 3.28085 0.00000
v 3.97250 1.11265 -0.34460
v 4.15291 1.15526 0.00000
v 4.13121 1.05849 -0.31809
v 4.12383 0.75878 -0.53107
v 3.90062 0.80185 -0.58055
v 4.25461 1.07011 -0.27202
v 4.31483 0.84461 -0.44260
v 4.36577 1.15313 -0.24099
v 4.44995 1.07493 -0.36068
v 4.54701 0.99032 -0.34143
v 4.50647 1.31746 -0.33335
v 4.60703 1.29528 -0.32334
v 4.67540 1.27675 -0.20133
v 4.62529 1.57759 -0.34956
v 4.71057 1.57637 -0.21887
v 4.35233 1.18303 0.00000
v 4.25336 1.13000 0.00000
v 4.43913 1.33696 -0.21281
v 4.38914 1.58304 0.00000
v 4.42320 1.57970 -0.21902
v 4.50777 1.57723 -0.34998
v 4.36076 1.84055 -0.24369
v 4.48102 1.85622 -0.38491
v 4.61292 1.86395 -0.38544
v 4.73792 1.86270 -0.24521
v 4.31490 1.82598 0.00000
v 2.29953 1.01669 -0.39623
v 3.99368 3.21953 0.00000
v 3.77394 3.21074 0.00000
v 4.20819 3.40152 0.00000
v 4.83235 2.12148 0.00000
v 4.59471 2.54084 0.00000
v 4.35498 2.53040 0.00000
v 2.04997 0.18720 0.00000
v 1.70422 0.03303 0.00000
v 1.47473 0.71290 0.00000
v 1.76891 1.29742 0.00000
v 1.90916 1.14587 0.00000
v 1.11617 2.09727 0.00000
v 0.00000 1.27660 0.00000
v 1.14975 1.57944 0.00000
v 1.68834 1.65574 0.00000
v 3.10442 1.94397 0.00000
v 3.02643 0.56503 0.00000
v 2.84232 0.80488 0.00000
v 0.07452 0.92497 0.00000
v 0.80489 0.56278 0.00000
v 0.77048 1.19790 0.00000
v 0.89626 1.34215 0.00000
v 1.01898 1.47341 0.00000
v 1.42369 1.85612 0.00000
v 3.26373 0.26361 0.00000
v 3.67966 0.02072 0.00000
v 4.65154 0.89145 0.00000
v 4.01810 1.24251 0.00000
v 1.62645 2.39957 0.00000
v 2.22948 2.62492 0.00000
v 2.44896 2.45301 0.00000
v 1.44496 2.61086 0.00000
v 1.78697 2.96638 0.00000
v 2.00806 2.79555 0.00000
v 1.57034 3.13461 0.00000
v 0.89769 3.25402 0.00000
v 1.14932 3.47059 0.00000
v 0.97255 3.64154 0.00000
v 0.90234 3.81886 0.00000
v 0.74077 4.16120 0.00000
v 1.14047 4.11170 0.00000
v 0.59370 3.83296 0.00000
v 0.70483 3.50375 0.00000
v 2.81551 4.44623 0.00000
v 2.52673 4.47419 0.00000
v 2.10426 3.83283 0.00000
v 1.84987 3.92700 0.00000
v 2.35489 3.73949 0.00000
v 2.84822 3.55005 0.00000
v 3.08727 3.45743 0.00000
v 4.23517 3.75470 0.00000
v 4.74982 1.57462 0.00000
v 4.70682 1.26489 0.00000
v 4.42007 1.34424 0.00000
v 4.78928 1.85310 0.00000
v 3.98932 3.25770 0.22438
v 4.75146 2.35586 0.23797
v 4.23763 2.31436 0.22782
v 2.85275 1.32234 0.54355
v 4.06337 3.70405 0.41532
v 3.81560 3.28609 0.29019
v 3.96577 3.49184 0.44983
v 4.15666 3.41878 0.27402
v 4.77055 2.13400 0.26504
v 4.60556 2.15822 0.40288
v 4.59753 2.43907 0.31656
v 4.36870 2.42436 0.31476
v 4.43031 2.14390 0.39866
v 4.28157 2.09247 0.25547
v 3.03969 1.50596 0.52622
v 3.23381 1.33337 0.55141
v 2.98405 1.09311 0.53540
v 2.66029 1.18310 0.45552
v 2.61641 1.44043 0.45679
v 2.86868 1.67082 0.49760
v 4.18633 3.73892 0.25759
v 3.72379 3.60372 0.49342
v 3.87637 3.85929 0.46342
v 3.98862 4.02807 0.26896
v 1.96341 0.76089 0.38761
v 1.77441 0.60573 0.40630
v 1.70305 0.73342 0.23032
v 1.87683 0.84092 0.21300
v 1.95918 0.99016 0.19393
v 2.06129 0.98784 0.34757
v 2.11732 0.64273 0.41892
v 1.90492 0.39342 0.43084
v 1.63052 0.27189 0.43719
v 1.55179 0.51241 0.42233
v 2.24602 0.52205 0.27323
v 2.01530 0.23787 0.27513
v 1.68575 0.09249 0.26868
v 1.34958 0.06112 0.26473
v 1.33369 0.22633 0.42949
v 1.02611 0.08410 0.26002
v 0.43861 0.35508 0.21095
v 0.71597 0.17597 0.23769
v 0.48320 0.41960 0.34041
v 0.74493 0.28274 0.37585
v 1.03767 0.22367 0.40902
v 0.77452 0.41776 0.37070
v 1.04047 0.41481 0.40217
v 1.29924 0.45030 0.41907
v 1.03075 0.54675 0.24773
v 1.26825 0.59426 0.24462
v 1.49425 0.65855 0.24133
v 1.77376 1.30487 0.15823
v 1.92587 1.14235 0.17970
v 1.12000 2.04838 0.22654
v 0.70984 2.18794 0.29186
v 0.27718 2.03322 0.32600
v 0.77219 1.97567 0.46475
v 0.46744 1.82918 0.49378
v 0.29260 1.54969 0.47989
v 0.08452 1.64324 0.29888
v 0.06516 1.26232 0.27586
v 1.14114 1.62105 0.21325
v 1.35561 1.60323 0.16837
v 1.56590 1.46885 0.15125
v 1.38431 1.66784 0.30703
v 1.59741 1.51141 0.27706
v 1.80760 1.34881 0.28194
v 1.99869 1.15872 0.31631
v 1.65654 1.59576 0.27545
v 1.87294 1.42283 0.28741
v 2.14870 1.19987 0.35656
v 1.67999 1.64090 0.14804
v 1.91107 1.45775 0.16287
v 2.16121 1.31849 0.19271
v 2.36960 1.34881 0.23902
v 2.35068 1.60046 0.21967
v 2.03238 2.02333 0.25090
v 2.20663 1.81353 0.24455
v 2.13455 2.12562 0.43064
v 2.32352 1.91907 0.43845
v 2.48396 1.69764 0.43788
v 2.49278 2.08603 0.45674
v 2.69209 1.88324 0.47113
v 2.61703 2.22138 0.27086
v 2.83470 2.04078 0.28050
v 3.03911 1.86015 0.29510
v 3.22815 1.69366 0.31357
v 3.41847 1.53356 0.32904
v 3.61195 1.37098 0.34040
v 3.45799 1.13931 0.57367
v 3.79597 1.22298 0.34863
v 3.67352 0.94490 0.58710
v 3.49292 0.62061 0.58092
v 3.26543 0.86788 0.56477
v 3.33495 0.37146 0.34932
v 3.11372 0.65840 0.33012
v 2.90036 0.87779 0.30282
v 2.68098 0.97730 0.27197
v 2.43579 0.82493 0.27522
v 0.12550 0.92364 0.24346
v 0.23489 0.60909 0.21572
v 0.23711 0.91420 0.38806
v 0.30656 0.63481 0.33708
v 0.37032 0.90209 0.38581
v 0.40379 0.67478 0.33064
v 0.54709 0.50610 0.32888
v 0.46619 0.70164 0.20725
v 0.58839 0.56428 0.20443
v 0.79471 0.52334 0.22805
v 0.70267 1.26168 0.27994
v 0.83781 1.41157 0.27835
v 0.97766 1.53603 0.26066
v 0.68739 1.59013 0.48204
v 0.86987 1.72516 0.46330
v 1.13518 1.75493 0.38798
v 1.12836 1.91388 0.39269
v 1.41988 1.75886 0.30918
v 1.42064 1.82565 0.16933
v 0.54578 1.40089 0.47471
v 0.57309 1.08496 0.26376
v 0.42992 1.16197 0.44352
v 0.23517 1.22946 0.44605
v 0.47647 0.88514 0.23120
v 3.70332 0.13598 0.35351
v 4.18289 0.14390 0.32515
v 3.78873 0.42934 0.56861
v 4.14342 0.40937 0.51793
v 4.42041 0.64447 0.42142
v 4.51315 0.49421 0.26240
v 4.61510 0.92244 0.21368
v 1.66904 2.44077 0.25044
v 1.85371 2.23369 0.25216
v 1.75648 2.52966 0.40585
v 1.94650 2.32960 0.41849
v 1.88464 2.66309 0.40684
v 2.08722 2.47439 0.42280
v 2.28754 2.28025 0.44078
v 2.18625 2.57810 0.26186
v 2.40152 2.39901 0.26576
v 1.29633 2.85181 0.22545
v 1.48320 2.64722 0.24071
v 1.36833 2.92875 0.38071
v 1.56416 2.72873 0.39355
v 1.47353 3.03790 0.37786
v 1.68077 2.84990 0.39266
v 1.54184 3.10619 0.22646
v 1.75511 2.93003 0.24321
v 1.96922 2.75440 0.25471
v 0.92047 3.27601 0.20157
v 1.10693 3.05885 0.21417
v 0.97231 3.32684 0.34739
v 1.17102 3.12715 0.36701
v 1.06905 3.41441 0.33808
v 1.27008 3.22607 0.36094
v 1.12553 3.45640 0.19384
v 1.32930 3.27994 0.20983
v 0.95284 3.63772 0.17251
v 0.88918 3.82123 0.15903
v 0.89165 3.61352 0.31396
v 0.82906 3.82788 0.29430
v 0.90535 4.03549 0.28647
v 0.95241 3.99616 0.15667
v 0.78528 3.55115 0.33010
v 0.69733 3.83583 0.32220
v 0.80719 4.11405 0.30868
v 1.05756 4.28809 0.30843
v 1.10162 4.18051 0.29202
v 0.61688 3.83569 0.19745
v 0.75450 4.15215 0.18315
v 1.03979 4.33821 0.18017
v 1.35583 4.41813 0.20350
v 1.34984 4.33984 0.34451
v 1.65550 4.43806 0.23578
v 2.22939 4.42609 0.25472
v 1.94264 4.43801 0.25232
v 2.20407 4.27149 0.43251
v 1.92749 4.29771 0.41508
v 1.64206 4.32268 0.38890
v 1.89703 4.11288 0.41079
v 1.62561 4.17381 0.38601
v 1.35439 4.21375 0.34020
v 1.61449 4.06587 0.23595
v 1.36807 4.12545 0.19830
v 1.13135 4.12411 0.16424
v 0.72813 3.51623 0.19554
v 2.80081 4.36618 0.26902
v 2.51514 4.40050 0.26145
v 2.76006 4.18172 0.46815
v 2.48207 4.23127 0.45330
v 2.69252 3.91954 0.47340
v 2.42728 3.98896 0.45502
v 2.16148 4.05384 0.43211
v 2.37956 3.81260 0.26512
v 2.12421 3.89773 0.25660
v 1.86707 3.98376 0.25086
v 3.37805 4.25367 0.27790
v 3.08887 4.31904 0.27599
v 3.31587 4.05300 0.49158
v 3.03682 4.12363 0.48266
v 3.21750 3.77253 0.50394
v 2.95514 3.84888 0.48864
v 3.12871 3.55112 0.29836
v 2.88387 3.63940 0.28799
v 2.63309 3.72524 0.27676
v 3.67902 4.17434 0.27622
v 3.60065 3.97787 0.48419
v 3.47964 3.69381 0.50547
v 3.58995 3.37304 0.30573
v 3.36459 3.46137 0.30524
v 3.97250 1.11265 0.34460
v 4.13121 1.05849 0.31809
v 4.12383 0.75878 0.53107
v 3.90062 0.80185 0.58055
v 4.25461 1.07011 0.27202
v 4.31483 0.84461 0.44260
v 4.36577 1.15313 0.24099
v 4.44995 1.07493 0.36068
v 4.54701 0.99032 0.34143
v 4.50647 1.31746 0.33335
v 4.60703 1.29528 0.32334
v 4.67540 1.27675 0.20133
v 4.62529 1.57759 0.34956
v 4.71057 1.57637 0.21887
v 4.43913 1.33696 0.21281
v 4.42320 1.57970 0.21902
v 4.50777 1.57723 0.34998
v 4.36076 1.84055 0.24369
v 4.48102 1.85622 0.38491
v 4.61292 1.86395 0.38544
v 4.73792 1.86270 0.24521
v 2.29953 1.01669 0.39623
vn -0.02966 -0.97807 -0.20613
vn -0.02032 -0.99979 0.00406
vn -0.16819 -0.98575 0.00203
vn -0.05247 -0.82809 -0.55814
vn 0.27390 -0.61376 -0.74046
vn 0.30555 -0.36120 -0.88101
vn 0.74375 -0.31413 -0.59006
vn 0.65176 -0.74292 -0.15256
vn 0.65812 -0.75292 0.00142
vn 0.58019 0.19553 -0.79067
vn 0.85867 0.03111 -0.51159
vn 0.33094 0.09447 -0.93891
vn 0.28741 0.25385 -0.92356
vn 0.97375 0.14013 -0.17936
vn 0.98940 0.14515 0.00396
vn 1.00000 -0.00040 0.00200
vn 0.57255 0.79028 -0.21829
vn 0.27511 0.91933 -0.28132
vn 0.28982 0.95708 0.00146
vn 0.59209 0.80586 0.00288
vn -0.62971 0.02662 -0.77638
vn -0.35346 0.16547 -0.92070
vn -0.36975 0.01581 -0.92900
vn -0.85741 -0.16466 -0.48758
vn -0.97696 -0.13985 -0.16124
vn -0.97382 -0.22731 0.00204
vn -0.99029 -0.13898 0.00401
vn -0.72522 0.64996 -0.22716
vn -0.74843 0.66321 0.00199
vn -0.17893 -0.00403 -0.98385
vn 0.14961 0.31463 -0.93735
vn 0.17384 0.28676 -0.94210
vn -0.28568 -0.26497 -0.92097
vn -0.39615 -0.00473 -0.91817
vn 0.12807 0.30320 -0.94428
vn -0.28299 -0.31440 -0.90613
vn 0.56561 0.12089 -0.81576
vn 0.86110 0.21252 -0.46188
vn 0.15549 0.03664 -0.98716
vn 0.33061 0.31153 -0.89087
vn 0.57781 0.65929 -0.48112
vn -0.59093 0.56975 -0.57113
vn -0.33667 0.70505 -0.62415
vn -0.37463 0.82770 -0.41780
vn -0.65880 0.65405 -0.37174
vn -0.92594 0.15853 -0.34280
vn -0.82788 0.14029 -0.54308
vn -0.09255 0.15852 -0.98301
vn -0.02098 0.11261 -0.99342
vn -0.00966 0.06750 -0.99767
vn 0.38986 -0.50444 -0.77042
vn 0.51056 -0.32993 -0.79402
vn 0.70113 -0.47632 -0.53060
vn 0.51757 -0.67483 -0.52604
vn 0.21726 -0.83307 -0.50872
vn 0.16969 -0.64612 -0.74413
vn 0.00812 -0.87480 -0.48442
vn 0.01049 -0.70392 -0.71020
vn 0.60664 -0.79497 -0.00003
vn 0.25122 -0.96793 -0.00004
vn 0.00518 -0.99999 0.00008
vn -0.19796 -0.98021 -0.00008
vn -0.17687 -0.87341 -0.45373
vn -0.44025 -0.89788 -0.00001
vn -0.67635 -0.73658 0.00019
vn -0.63576 -0.69213 -0.34170
vn -0.40705 -0.82274 -0.39673
vn -0.57109 -0.62101 -0.53684
vn -0.35475 -0.70924 -0.60921
vn -0.14650 -0.72252 -0.67564
vn -0.09027 0.04324 -0.99498
vn -0.10636 0.09142 -0.99012
vn -0.04910 0.04149 -0.99793
vn -0.16881 0.74272 -0.64798
vn -0.12087 0.76614 -0.63121
vn -0.15166 0.88577 -0.43864
vn -0.20150 0.86565 -0.45830
vn -0.25228 0.85706 -0.44922
vn -0.21832 0.73073 -0.64681
vn -0.23065 0.97304 -0.00001
vn -0.27963 0.96011 0.00008
vn -0.39723 0.91772 -0.00014
vn -0.70028 0.71387 -0.00058
vn -0.86269 0.50573 -0.00049
vn -0.89262 -0.45082 0.00001
vn -0.67903 -0.73411 -0.00000
vn -0.66495 -0.70829 -0.23700
vn -0.85509 -0.43169 -0.28717
vn -0.98250 -0.18628 0.00003
vn 0.01750 0.99985 0.00007
vn 0.48921 0.87217 0.00001
vn 0.46335 0.80585 -0.36867
vn 0.04281 0.85424 -0.51811
vn -0.52992 0.60618 -0.59306
vn -0.32149 0.94691 0.00012
vn 0.12170 0.36055 -0.92477
vn -0.16527 0.21355 -0.96285
vn -0.33269 0.03225 -0.94248
vn -0.81779 0.19328 -0.54210
vn -0.97124 0.23812 0.00020
vn -0.90085 0.43414 0.00030
vn -0.87688 -0.08062 -0.47389
vn -0.99636 -0.08526 0.00011
vn -0.27564 -0.96126 0.00100
vn 0.30094 -0.95364 0.00242
vn 0.24411 -0.87866 -0.41032
vn -0.27336 -0.91537 -0.29559
vn -0.56105 -0.79293 -0.23766
vn -0.57773 -0.81623 -0.00000
vn -0.26473 -0.83618 -0.48033
vn -0.52692 -0.74504 -0.40899
vn -0.62956 -0.65978 -0.41030
vn -0.78415 -0.39610 -0.47771
vn -0.11612 0.00864 -0.99320
vn 0.03180 -0.02729 -0.99912
vn -0.00142 0.41536 -0.90966
vn -0.21816 0.03648 -0.97523
vn 0.50374 0.75203 -0.42509
vn 0.56300 0.74032 -0.36737
vn 0.58838 0.77046 -0.24534
vn 0.53613 0.80242 -0.26207
vn 0.32928 0.81381 -0.47884
vn 0.60806 0.79389 -0.00011
vn 0.55481 0.83198 0.00026
vn 0.48585 0.87404 0.00039
vn -0.23200 0.97271 0.00177
vn -0.23610 0.96247 -0.13381
vn -0.99323 -0.11596 0.00727
vn -0.93162 -0.36341 0.00376
vn -0.82761 -0.35435 -0.43532
vn -0.66829 0.15987 -0.72652
vn -0.78485 -0.61968 -0.00001
vn -0.76171 -0.64792 0.00002
vn -0.68025 -0.58240 -0.44506
vn -0.70272 -0.56192 -0.43638
vn -0.59006 -0.50923 -0.62650
vn -0.60718 -0.49373 -0.62255
vn -0.42664 -0.18670 -0.88494
vn -0.08332 -0.02885 -0.99610
vn -0.12319 -0.02519 -0.99206
vn 0.43336 0.50840 -0.74413
vn 0.45048 0.54299 -0.70868
vn 0.53999 0.66799 -0.51206
vn 0.53283 0.64722 -0.54516
vn 0.51248 0.63785 -0.57490
vn 0.62661 0.77933 0.00003
vn 0.62973 0.77681 0.00004
vn 0.58069 0.73039 -0.35962
vn 0.48997 0.64346 -0.58813
vn 0.57435 0.72796 -0.37442
vn 0.48823 0.64167 -0.59152
vn 0.57023 0.72629 -0.38385
vn 0.49112 0.63632 -0.59490
vn 0.38309 0.50886 -0.77091
vn 0.47023 0.64850 -0.59860
vn 0.18391 0.26566 -0.94636
vn -0.06940 0.01643 -0.99745
vn -0.23657 -0.24822 -0.93937
vn -0.32003 -0.22846 -0.91945
vn -0.54909 -0.60111 -0.58066
vn -0.65014 -0.53140 -0.54307
vn -0.55145 -0.66446 -0.50439
vn -0.24118 -0.72838 -0.64132
vn -0.78069 -0.62491 -0.00038
vn -0.64907 -0.76073 0.00170
vn -0.51786 -0.85546 0.00372
vn 0.55669 -0.83072 0.00212
vn 0.72437 -0.68941 0.00087
vn 0.71406 -0.67947 -0.16866
vn 0.55127 -0.82205 -0.14263
vn 0.81908 -0.57368 -0.00018
vn -0.86566 -0.50063 -0.00020
vn -0.95956 -0.28150 -0.00020
vn -0.87658 -0.26347 -0.40273
vn -0.81011 -0.47295 -0.34648
vn -0.76545 -0.23642 -0.59849
vn -0.72877 -0.42944 -0.53337
vn 0.06442 -0.06739 -0.99564
vn 0.01698 -0.19588 -0.98048
vn -0.01724 0.09616 -0.99522
vn 0.43454 0.72864 -0.52939
vn 0.80569 0.27686 -0.52365
vn 0.89620 0.29146 -0.33449
vn 0.46112 0.82178 -0.33474
vn 0.01273 0.92224 -0.38641
vn 0.03402 0.81123 -0.58373
vn 0.47029 0.88251 0.00013
vn -0.00907 0.99996 -0.00041
vn -0.18000 0.98367 -0.00055
vn 0.74487 0.66721 -0.00018
vn 0.72909 -0.68442 -0.00018
vn 0.76443 -0.64470 -0.00029
vn 0.65602 -0.53867 -0.52865
vn 0.61615 -0.57537 -0.53788
vn 0.54279 -0.67521 -0.49947
vn 0.64310 -0.76578 0.00112
vn 0.49526 -0.45832 -0.73801
vn 0.42514 -0.56657 -0.70587
vn 0.17256 -0.77304 -0.61044
vn 0.25306 -0.01612 -0.96732
vn 0.16325 0.02832 -0.98618
vn 0.18195 -0.05982 -0.98149
vn 0.55557 0.72922 -0.39948
vn 0.42644 0.72031 -0.54709
vn 0.58273 0.76502 -0.27416
vn 0.60569 0.79570 -0.00017
vn 0.04123 -0.00898 -0.99911
vn 0.54455 -0.43137 -0.71930
vn -0.01646 -0.07472 -0.99707
vn 0.73218 -0.48972 -0.47338
vn 0.64021 -0.40126 -0.65507
vn -0.02972 -0.15191 -0.98795
vn -0.71970 -0.07262 -0.69048
vn 0.87879 -0.27696 -0.38861
vn 0.79200 -0.21442 -0.57163
vn 0.81631 -0.57761 -0.00092
vn 0.94249 -0.33422 0.00051
vn 0.99154 -0.12977 0.00210
vn -0.24473 -0.96959 -0.00009
vn -0.66964 -0.74269 -0.00081
vn -0.18839 -0.77842 -0.59881
vn 0.39291 -0.72578 -0.56467
vn 0.05172 -0.99866 0.00105
vn -0.01710 -0.31695 -0.94829
vn 0.31224 -0.27598 -0.90903
vn 0.55071 -0.11321 -0.82698
vn 0.81079 -0.37428 -0.45004
vn 0.89038 -0.45522 0.00026
vn 0.73953 -0.67312 0.00046
vn 0.91584 -0.16288 -0.36702
vn 0.98345 -0.18115 0.00017
vn -0.75709 -0.65331 -0.00000
vn -0.75298 -0.65805 -0.00001
vn -0.67741 -0.59360 -0.43447
vn -0.67751 -0.58675 -0.44352
vn -0.59001 -0.51883 -0.61863
vn -0.58908 -0.51243 -0.62483
vn -0.05467 0.02027 -0.99830
vn -0.04055 0.02980 -0.99873
vn -0.06835 0.00043 -0.99766
vn 0.46538 0.56184 -0.68393
vn 0.47582 0.57969 -0.66148
vn 0.55645 0.69008 -0.46277
vn 0.55069 0.67817 -0.48665
vn 0.62246 0.78265 0.00001
vn 0.62463 0.78092 -0.00000
vn 0.62139 0.78350 0.00003
vn -0.75266 -0.65841 -0.00001
vn -0.75044 -0.66094 -0.00000
vn -0.69113 -0.61166 -0.38499
vn -0.68457 -0.59992 -0.41408
vn -0.61854 -0.55053 -0.56065
vn -0.60313 -0.52963 -0.59643
vn -0.03085 0.03803 -0.99880
vn -0.02241 0.05183 -0.99840
vn 0.50703 0.63106 -0.58709
vn 0.53120 0.65949 -0.53189
vn 0.58168 0.72954 -0.35975
vn 0.57087 0.71688 -0.40023
vn 0.56118 0.70453 -0.43442
vn 0.48803 0.60418 -0.62991
vn 0.62010 0.78452 -0.00005
vn 0.61883 0.78553 -0.00002
vn 0.61982 0.78474 -0.00005
vn -0.75844 -0.65174 0.00001
vn -0.77736 -0.62906 -0.00006
vn -0.73549 -0.60115 -0.31252
vn -0.70677 -0.61563 -0.34853
vn -0.68310 -0.56451 -0.46336
vn -0.64326 -0.56912 -0.51218
vn -0.01507 0.07852 -0.99680
vn 0.00952 0.11053 -0.99383
vn 0.56020 0.67946 -0.47382
vn 0.61007 0.66525 -0.43042
vn 0.64747 0.70714 -0.28415
vn 0.60003 0.73375 -0.31872
vn 0.67457 0.73821 -0.00009
vn 0.63029 0.77636 0.00003
vn 0.81304 0.51863 -0.26456
vn 0.84060 0.54165 -0.00002
vn 0.96555 0.00591 -0.26013
vn 0.99996 0.00938 0.00022
vn 0.76954 0.48558 -0.41475
vn 0.90703 0.00194 -0.42106
vn 0.72015 -0.54202 -0.43312
vn 0.76957 -0.58142 -0.26404
vn 0.18303 0.03641 -0.98243
vn 0.09805 0.11604 -0.98839
vn 0.14303 -0.08569 -0.98600
vn -0.02586 -0.12561 -0.99174
vn -0.67793 0.57568 -0.45718
vn -0.86153 0.04581 -0.50564
vn -0.94631 0.04576 -0.32002
vn -0.73122 0.62127 -0.28166
vn -0.39698 0.87873 -0.26501
vn -0.37437 0.82618 -0.42104
vn -0.17227 0.93226 -0.31815
vn -0.15506 0.86045 -0.48537
vn -0.76188 0.64772 0.00003
vn -0.41110 0.91159 0.00010
vn -0.18514 0.98271 0.00006
vn -0.06721 0.99774 -0.00013
vn -0.05670 0.91614 -0.39684
vn 0.00073 1.00000 -0.00008
vn 0.05162 0.99867 -0.00001
vn 0.04699 0.88213 -0.46866
vn 0.00475 0.89437 -0.44730
vn 0.04146 0.75055 -0.65952
vn 0.00824 0.76680 -0.64184
vn -0.04429 0.80994 -0.58484
vn -0.12691 -0.01487 -0.99180
vn -0.08157 -0.00408 -0.99666
vn -0.14856 -0.06727 -0.98661
vn -0.13210 -0.85296 -0.50498
vn -0.24649 -0.78072 -0.57421
vn -0.28166 -0.87619 -0.39110
vn -0.14901 -0.93213 -0.33005
vn 0.27585 -0.91582 -0.29185
vn 0.26069 -0.84593 -0.46523
vn -0.16473 -0.98634 -0.00060
vn 0.28146 -0.95957 -0.00020
vn 0.79690 -0.60411 0.00010
vn -0.87873 -0.47731 -0.00001
vn -0.94582 -0.32469 0.00012
vn -0.83784 -0.45145 -0.30695
vn -0.77907 -0.41608 -0.46897
vn -0.91403 0.40565 0.00013
vn 0.08795 0.99612 0.00000
vn 0.12738 0.99185 -0.00000
vn 0.11110 0.85932 -0.49922
vn 0.07856 0.87175 -0.48361
vn 0.09431 0.72277 -0.68462
vn 0.06836 0.73933 -0.66987
vn -0.06589 0.02283 -0.99757
vn -0.05100 0.03040 -0.99824
vn -0.07379 0.00954 -0.99723
vn -0.23725 -0.70417 -0.66922
vn -0.24056 -0.67838 -0.69421
vn -0.29357 -0.81422 -0.50086
vn -0.28911 -0.83084 -0.47553
vn -0.29268 -0.84842 -0.44105
vn -0.24304 -0.73598 -0.63187
vn -0.33579 -0.94194 0.00002
vn -0.33586 -0.94191 0.00012
vn -0.31098 -0.95042 -0.00028
vn -0.34264 -0.93947 0.00005
vn 0.18247 0.98321 -0.00001
vn 0.24200 0.97028 -0.00017
vn 0.20763 0.83191 -0.51460
vn 0.15657 0.84549 -0.51053
vn 0.17237 0.69018 -0.70281
vn 0.13036 0.70607 -0.69604
vn -0.03997 0.03882 -0.99845
vn -0.00453 0.04663 -0.99890
vn -0.23637 -0.63039 -0.73942
vn -0.22753 -0.60709 -0.76136
vn -0.29500 -0.77267 -0.56210
vn -0.29489 -0.78519 -0.54454
vn -0.29415 -0.79934 -0.52395
vn -0.23803 -0.65465 -0.71748
vn -0.35202 -0.93599 -0.00000
vn -0.34799 -0.93750 0.00001
vn -0.36055 -0.93274 0.00001
vn 0.36412 0.93135 0.00018
vn 0.66872 0.74352 0.00072
vn 0.31236 0.80096 -0.51077
vn 0.16403 0.37599 -0.91199
vn 0.05344 0.05169 -0.99723
vn -0.20637 -0.58063 -0.78758
vn -0.16606 -0.56347 -0.80928
vn -0.25679 -0.76651 -0.58866
vn -0.28686 -0.76289 -0.57940
vn -0.33866 -0.94091 -0.00005
vn -0.36301 -0.93179 0.00001
vn 0.96899 0.24710 0.00029
vn 0.99684 -0.07942 -0.00020
vn 0.54487 0.74648 -0.38195
vn 0.51381 0.85790 0.00024
vn 0.41695 0.69048 -0.59109
vn 0.29580 0.95525 0.00251
vn 0.27391 0.77610 -0.56801
vn 0.26215 0.29048 -0.92027
vn 0.21857 0.25539 -0.94181
vn -0.15667 0.83020 -0.53500
vn 0.14085 0.35995 -0.92228
vn -0.69138 0.58120 -0.42919
vn -0.56672 0.46781 -0.67822
vn 0.25011 0.08023 -0.96489
vn 0.58540 -0.03343 -0.81006
vn 0.10230 -0.01504 -0.99464
vn 0.84735 -0.12442 -0.51624
vn 0.92711 -0.13499 -0.34963
vn 0.81867 -0.10394 -0.56478
vn 0.91714 -0.11829 -0.38060
vn 0.99161 -0.12930 0.00016
vn 0.98972 -0.14304 0.00022
vn -0.21390 0.97685 0.00057
vn -0.76003 0.64989 -0.00131
vn -0.98895 0.14825 -0.00016
vn -0.92728 0.14548 -0.34495
vn -0.98277 -0.18481 -0.00047
vn -0.92074 -0.15547 -0.35787
vn -0.82396 -0.12138 -0.55349
vn -0.81983 0.13519 -0.55641
vn -0.86789 -0.24943 -0.42959
vn -0.73771 -0.19536 -0.64623
vn 0.02212 -0.10236 -0.99450
vn -0.00329 -0.08967 -0.99597
vn 0.74164 -0.08370 -0.66555
vn 0.88558 -0.11272 -0.45060
vn 0.99060 -0.13681 0.00008
vn -0.95632 -0.29234 -0.00035
vn 0.37196 -0.39771 -0.83873
vn -0.05233 0.94809 -0.31365
vn -0.05511 0.99848 -0.00018
vn -0.23615 0.27495 -0.93201
vn -0.18812 0.11948 -0.97485
vn -0.04548 -0.83442 0.54925
vn 0.33222 -0.85915 0.38921
vn 0.49226 -0.74092 0.45685
vn 0.07286 -0.62047 0.78084
vn 0.29825 0.26038 0.91829
vn 0.33777 0.09601 0.93632
vn 0.86138 0.03252 0.50692
vn 0.59872 0.20422 0.77448
vn 0.97153 0.14526 0.18716
vn 0.28083 0.91657 0.28467
vn 0.58231 0.78152 0.22392
vn -0.86035 -0.16379 0.48267
vn -0.67551 -0.08869 0.73200
vn -0.64884 0.02864 0.76038
vn -0.97640 -0.13428 0.16916
vn -0.73181 0.64116 0.23104
vn -0.28231 -0.25449 0.92495
vn 0.17022 0.29020 0.94171
vn 0.14018 0.32149 0.93648
vn -0.18107 0.01725 0.98332
vn -0.16861 0.07157 0.98308
vn -0.38682 0.01825 0.92198
vn -0.25532 -0.30629 0.91706
vn 0.49009 -0.04473 0.87052
vn 0.88528 -0.09595 0.45505
vn 0.85321 0.21596 0.47476
vn 0.54941 0.12562 0.82606
vn 0.32800 0.30324 0.89469
vn 0.15101 0.03619 0.98787
vn 0.57960 0.65285 0.48769
vn -0.65731 0.65564 0.37160
vn -0.37423 0.82932 0.41495
vn -0.33682 0.70902 0.61955
vn -0.58891 0.57123 0.57173
vn -0.82382 0.13616 0.55026
vn -0.92484 0.15646 0.34670
vn -0.02051 0.10886 0.99385
vn -0.10891 0.15717 0.98155
vn -0.01084 0.07036 0.99746
vn 0.51762 -0.67532 0.52537
vn 0.70181 -0.47795 0.52823
vn 0.51304 -0.33389 0.79076
vn 0.39014 -0.50565 0.76948
vn 0.16938 -0.64675 0.74365
vn 0.21709 -0.83332 0.50838
vn 0.00919 -0.70272 0.71141
vn 0.00740 -0.87435 0.48524
vn -0.17618 -0.87376 0.45333
vn -0.40710 -0.82232 0.39756
vn -0.63666 -0.69058 0.34316
vn -0.35477 -0.70800 0.61064
vn -0.57211 -0.61810 0.53911
vn -0.14584 -0.72316 0.67510
vn -0.08924 0.04243 0.99511
vn -0.10463 0.08378 0.99098
vn -0.04942 0.04181 0.99790
vn -0.20159 0.86572 0.45813
vn -0.15180 0.88541 0.43932
vn -0.11908 0.76474 0.63324
vn -0.16907 0.74289 0.64771
vn -0.21834 0.73135 0.64610
vn -0.25255 0.85716 0.44888
vn -0.85424 -0.43316 0.28747
vn -0.66517 -0.70833 0.23626
vn 0.04725 0.85169 0.52192
vn 0.46878 0.80171 0.37081
vn -0.31152 0.91801 0.24536
vn -0.16156 0.20959 0.96435
vn 0.12169 0.35783 0.92582
vn -0.35460 0.41431 0.83822
vn -0.81621 0.18978 0.54570
vn -0.32965 0.02831 0.94368
vn -0.87196 0.41991 0.25173
vn -0.87671 -0.07961 0.47439
vn -0.28190 -0.91101 0.30099
vn 0.23947 -0.88051 0.40909
vn -0.56143 -0.79253 0.23810
vn -0.52764 -0.74407 0.40982
vn -0.27391 -0.82835 0.48868
vn -0.63017 -0.66005 0.40892
vn -0.78274 -0.39827 0.47822
vn -0.12367 0.00632 0.99230
vn 0.03184 -0.02672 0.99914
vn -0.22260 0.02857 0.97449
vn 0.53377 0.80540 0.25773
vn 0.58808 0.77074 0.24521
vn 0.56310 0.74026 0.36733
vn 0.49971 0.75950 0.41647
vn 0.32579 0.70906 0.62538
vn 0.39548 0.79583 0.45854
vn -0.22360 0.96496 0.13731
vn -0.79429 -0.01394 0.60737
vn -0.83206 -0.34701 0.43274
vn -0.70287 -0.56195 0.43610
vn -0.68030 -0.58234 0.44505
vn -0.60805 -0.49323 0.62209
vn -0.59013 -0.50920 0.62647
vn -0.43445 -0.18001 0.88252
vn -0.12181 -0.02596 0.99221
vn -0.08145 -0.03001 0.99623
vn 0.53280 0.64722 0.54519
vn 0.54034 0.66769 0.51207
vn 0.45110 0.54248 0.70868
vn 0.43267 0.50897 0.74414
vn 0.39329 0.49972 0.77176
vn 0.51154 0.63857 0.57493
vn 0.48954 0.64375 0.58816
vn 0.58003 0.73087 0.35973
vn 0.48814 0.64199 0.59124
vn 0.57408 0.72827 0.37425
vn 0.49123 0.63682 0.59427
vn 0.57012 0.72648 0.38366
vn 0.38353 0.50982 0.77005
vn 0.18429 0.26648 0.94606
vn 0.47068 0.64897 0.59774
vn -0.31818 -0.22705 0.92044
vn -0.23713 -0.24796 0.93930
vn -0.06958 0.01643 0.99744
vn -0.64976 -0.52997 0.54493
vn -0.54983 -0.60150 0.57956
vn -0.54889 -0.66500 0.50646
vn -0.23110 -0.74018 0.63144
vn 0.55040 -0.82189 0.14682
vn 0.71371 -0.67941 0.17038
vn -0.81110 -0.47168 0.34588
vn -0.87816 -0.25983 0.40165
vn -0.73012 -0.42806 0.53262
vn -0.76849 -0.23021 0.59702
vn 0.07036 -0.07101 0.99499
vn 0.02355 -0.19465 0.98059
vn -0.01842 0.08750 0.99599
vn 0.45998 0.82339 0.33232
vn 0.89780 0.28954 0.33185
vn 0.81134 0.27079 0.51808
vn 0.43061 0.73380 0.52546
vn 0.03182 0.81391 0.58011
vn 0.01192 0.92321 0.38410
vn 0.61605 -0.57436 0.53907
vn 0.65604 -0.53681 0.53051
vn 0.54527 -0.67808 0.49283
vn 0.43768 -0.57246 0.69334
vn 0.49366 -0.45655 0.74018
vn 0.17818 -0.77588 0.60520
vn 0.24833 -0.01702 0.96853
vn 0.15601 0.03239 0.98722
vn 0.18403 -0.06492 0.98077
vn 0.58531 0.76284 0.27475
vn 0.43632 0.71144 0.55090
vn 0.56086 0.72437 0.40091
vn 0.04073 -0.00843 0.99913
vn 0.54395 -0.42637 0.72272
vn -0.01673 -0.07545 0.99701
vn 0.63873 -0.38987 0.66335
vn 0.73113 -0.48732 0.47745
vn -0.03069 -0.15002 0.98821
vn -0.71940 -0.07012 0.69104
vn 0.79422 -0.21288 0.56912
vn 0.87901 -0.27702 0.38808
vn -0.18818 -0.77837 0.59894
vn 0.39410 -0.72450 0.56550
vn 0.31546 -0.26738 0.91049
vn -0.01566 -0.31376 0.94937
vn 0.81130 -0.37273 0.45040
vn 0.55189 -0.10419 0.82739
vn 0.91606 -0.16115 0.36724
vn -0.67751 -0.58675 0.44352
vn -0.67729 -0.59374 0.43445
vn -0.58905 -0.51245 0.62483
vn -0.58987 -0.51901 0.61861
vn -0.05477 0.02033 0.99829
vn -0.04048 0.02976 0.99874
vn -0.06819 0.00031 0.99767
vn 0.55074 0.67816 0.48661
vn 0.55697 0.68967 0.46276
vn 0.47685 0.57889 0.66144
vn 0.46551 0.56182 0.68386
vn -0.68461 -0.59992 0.41401
vn -0.69109 -0.61174 0.38493
vn -0.60314 -0.52974 0.59632
vn -0.61846 -0.55073 0.56053
vn -0.03082 0.03800 0.99880
vn -0.02242 0.05192 0.99840
vn 0.57073 0.71697 0.40027
vn 0.58131 0.72986 0.35968
vn 0.53097 0.65970 0.53185
vn 0.50677 0.63113 0.58725
vn 0.48818 0.60412 0.62986
vn 0.56130 0.70446 0.43437
vn -0.70702 -0.61527 0.34867
vn -0.73591 -0.60061 0.31258
vn -0.64376 -0.56833 0.51242
vn -0.68381 -0.56346 0.46360
vn -0.01516 0.07843 0.99680
vn 0.01055 0.11177 0.99368
vn 0.59993 0.73381 0.31876
vn 0.64736 0.70707 0.28455
vn 0.61014 0.66459 0.43134
vn 0.55998 0.67962 0.47385
vn 0.81314 0.51875 0.26401
vn 0.96580 0.00579 0.25923
vn 0.76999 0.48580 0.41365
vn 0.90795 0.00252 0.41907
vn 0.76969 -0.58146 0.26359
vn 0.72053 -0.54231 0.43213
vn 0.17407 0.03507 0.98411
vn 0.09073 0.11598 0.98910
vn 0.14396 -0.08717 0.98574
vn -0.02472 -0.13335 0.99076
vn -0.73087 0.62163 0.28179
vn -0.94643 0.04538 0.31971
vn -0.86200 0.04496 0.50491
vn -0.67729 0.57626 0.45738
vn -0.37331 0.82842 0.41756
vn -0.39666 0.87942 0.26322
vn -0.14976 0.86258 0.48325
vn -0.16912 0.93320 0.31707
vn -0.05504 0.91643 0.39640
vn 0.00382 0.89443 0.44719
vn 0.04691 0.88214 0.46864
vn 0.00702 0.76687 0.64176
vn 0.04141 0.75055 0.65951
vn -0.04198 0.81046 0.58428
vn -0.12608 -0.01426 0.99192
vn -0.08234 -0.00408 0.99660
vn -0.14824 -0.07267 0.98628
vn -0.15105 -0.93179 0.33006
vn -0.28400 -0.87623 0.38931
vn -0.24960 -0.78171 0.57152
vn -0.13070 -0.85251 0.50611
vn 0.26376 -0.84396 0.46708
vn 0.27604 -0.91543 0.29291
vn -0.83823 -0.45177 0.30541
vn -0.78038 -0.41684 0.46610
vn 0.07865 0.87175 0.48359
vn 0.11124 0.85930 0.49922
vn 0.06858 0.73934 0.66983
vn 0.09450 0.72275 0.68462
vn -0.06591 0.02281 0.99756
vn -0.05124 0.03039 0.99822
vn -0.07425 0.00956 0.99719
vn -0.28872 -0.83097 0.47552
vn -0.29395 -0.81416 0.50074
vn -0.24182 -0.67821 0.69394
vn -0.23656 -0.70444 0.66918
vn -0.24334 -0.73653 0.63112
vn -0.29260 -0.84862 0.44071
vn 0.15647 0.84549 0.51056
vn 0.20763 0.83195 0.51454
vn 0.13019 0.70604 0.69610
vn 0.17239 0.69003 0.70295
vn -0.04019 0.03862 0.99845
vn -0.00445 0.04679 0.99889
vn -0.29492 -0.78520 0.54450
vn -0.29481 -0.77253 0.56238
vn -0.22721 -0.60666 0.76180
vn -0.23628 -0.63048 0.73936
vn -0.23819 -0.65461 0.71746
vn -0.29422 -0.79932 0.52395
vn 0.31248 0.80086 0.51086
vn 0.16419 0.37577 0.91205
vn 0.05373 0.05105 0.99725
vn -0.28654 -0.76294 0.57949
vn -0.25672 -0.76640 0.58884
vn -0.16662 -0.56285 0.80959
vn -0.20573 -0.58069 0.78771
vn 0.41531 0.69188 0.59060
vn 0.54537 0.74657 0.38106
vn 0.26631 0.77511 0.57296
vn 0.22037 0.25906 0.94039
vn 0.26277 0.29584 0.91838
vn 0.13963 0.35276 0.92524
vn -0.16171 0.82067 0.54804
vn -0.55943 0.44361 0.70018
vn -0.69011 0.57275 0.44239
vn 0.58748 -0.03078 0.80865
vn 0.25465 0.08210 0.96354
vn 0.10940 -0.01641 0.99386
vn 0.92736 -0.13472 0.34908
vn 0.84826 -0.12396 0.51487
vn 0.91761 -0.11549 0.38032
vn 0.81979 -0.09904 0.56403
vn -0.92546 0.14392 0.35043
vn -0.92060 -0.15785 0.35719
vn -0.81363 0.13219 0.56615
vn -0.82380 -0.12422 0.55310
vn -0.73932 -0.20261 0.64215
vn -0.86805 -0.25357 0.42684
vn 0.02402 -0.10131 0.99456
vn -0.00328 -0.08897 0.99603
vn -0.02357 0.11828 0.99270
vn 0.88620 -0.11223 0.44950
vn 0.74351 -0.08317 0.66354
vn 0.38475 -0.41749 0.82321
vn -0.03626 0.28682 0.95730
vn -0.05233 0.94821 0.31332
vn -0.45384 0.21582 0.86455
vn 0.20556 0.61018 0.76513
vn -0.20249 0.11933 0.97199
f 1//1 295//2 296//3 6//4
f 1//5 6//4 7//6 8//7
f 1//8 8//8 297//9 295//9
f 2//10 10//11 11//12 12//13
f 2//14 9//15 298//16 10//11
f 2//17 12//18 299//19 9//20
f 3//21 15//22 16//23 17//24
f 3//25 17//24 14//26 13//27
f 3//28 13//29 300//29 15//28
f 4//30 18//31 19//32 20//33
f 22//34 23//35 18//31 4//30
f 4//30 20//33 21//36 22//34
f 5//37 24//38 8//7 7//6
f 5//37 7//6 25//39 26//40
f 5//37 26//40 27//41 24//38
f 28//42 29//43 30//44 31//45
f 28//42 31//45 32//46 33//47
f 28//48 34//48 35//49 29//49
f 35//49 36//50 37//50 29//49
f 35//51 34//52 38//53 39//54
f 35//51 39//54 40//55 36//56
f 40//55 41//57 42//58 36//56
f 40//55 39//54 301//59 302//60
f 40//55 302//60 43//61 41//57
f 43//61 44//62 45//63 41//57
f 46//64 47//65 48//66 49//67
f 46//64 49//67 45//63 44//62
f 49//67 48//66 50//68 51//69
f 49//67 51//69 52//70 45//63
f 52//71 51//72 53//72 54//71
f 52//71 54//71 55//73 42//73
f 52//70 42//58 41//57 45//63
f 55//74 54//75 56//76 57//77
f 55//74 57//77 58//78 37//79
f 55//73 37//50 36//50 42//73
f 58//78 57//77 59//80 303//81
f 58//78 303//81 60//82 30//44
f 58//78 30//44 29//43 37//79
f 60//82 61//83 31//45 30//44
f 61//83 62//84 32//46 31//45
f 305//85 304//86 63//87 64//88
f 305//85 64//88 32//46 62//89
f 66//90 306//91 68//92 69//93
f 66//90 69//93 70//94 67//95
f 70//94 69//93 71//96 72//97
f 70//94 72//97 73//98 74//99
f 70//94 74//99 75//100 67//101
f 75//100 74//99 76//102 307//103
f 77//104 308//105 78//106 79//107
f 77//104 79//107 80//108 65//109
f 80//108 63//87 304//86 65//109
f 80//108 79//107 81//110 82//111
f 80//108 82//111 83//112 63//87
f 83//112 84//113 64//88 63//87
f 83//114 82//115 85//115 86//114
f 83//114 86//114 87//116 84//117
f 86//118 85//119 88//120 89//121
f 86//118 89//121 90//122 87//116
f 89//121 88//120 309//123 91//124
f 89//121 91//124 92//125 90//122
f 92//126 93//126 94//127 90//127
f 93//128 95//129 96//130 94//131
f 97//132 98//133 99//134 100//135
f 97//132 100//135 96//130 95//129
f 100//135 99//134 101//136 102//137
f 100//135 102//137 103//138 96//130
f 103//138 102//139 104//139 105//140
f 103//138 105//140 23//35 22//34
f 103//138 22//34 94//131 96//130
f 105//141 104//142 106//143 107//144
f 105//141 107//144 108//145 23//35
f 108//145 107//144 109//146 310//147
f 108//145 310//147 110//148 111//149
f 108//145 111//149 18//31 23//35
f 111//149 110//148 112//150 113//151
f 111//149 113//151 19//32 18//31
f 113//151 112//150 114//152 115//153
f 113//151 115//153 116//154 19//32
f 116//154 115//153 117//155 118//156
f 116//157 118//156 119//158 120//159
f 116//157 120//159 20//33 19//32
f 120//159 119//158 121//160 122//161
f 120//159 122//161 123//162 20//33
f 123//162 124//163 21//36 20//33
f 123//162 122//161 311//164 312//165
f 123//162 312//165 125//166 124//163
f 125//167 126//168 127//169 124//170
f 128//171 301//59 39//54 38//53
f 128//171 38//53 127//169 126//168
f 129//172 313//173 130//174 131//175
f 129//172 131//175 48//66 47//65
f 131//175 130//174 132//176 133//177
f 131//175 133//177 50//68 48//66
f 133//178 132//179 134//179 135//178
f 133//178 135//178 136//180 50//180
f 136//181 135//182 137//183 138//184
f 136//181 138//184 139//185 53//186
f 136//180 53//72 51//72 50//180
f 139//185 138//184 140//187 314//188
f 139//185 314//188 141//189 56//76
f 139//185 56//76 54//75 53//186
f 141//189 59//80 57//77 56//76
f 140//187 138//184 137//183 142//190
f 316//191 315//192 145//193 146//194
f 316//191 146//194 147//195 317//196
f 147//195 78//106 308//105 317//196
f 147//195 146//194 148//197 149//198
f 147//195 149//198 150//199 78//106
f 150//199 81//110 79//107 78//106
f 150//200 149//201 71//96 151//200
f 150//200 151//200 152//202 81//202
f 152//202 85//115 82//115 81//202
f 152//203 151//204 68//92 153//205
f 152//203 153//205 88//120 85//119
f 153//205 68//92 306//91 318//206
f 153//205 318//206 309//123 88//120
f 151//204 71//96 69//93 68//92
f 149//201 148//207 72//97 71//96
f 148//197 146//194 145//193 154//208
f 148//207 154//209 73//98 72//97
f 154//208 145//193 155//210 156//211
f 154//209 156//212 157//212 73//98
f 157//212 156//212 134//179 132//179
f 157//213 132//176 130//174 76//102
f 157//213 76//102 74//99 73//98
f 156//211 155//210 158//214 134//215
f 158//214 155//210 144//216 143//217
f 158//214 143//217 142//218 137//183
f 158//214 137//183 135//182 134//215
f 155//210 145//193 315//192 144//216
f 130//174 313//173 307//103 76//102
f 320//219 319//220 121//160 160//221
f 320//219 160//221 161//222 159//223
f 161//222 160//221 162//224 163//225
f 161//222 163//225 164//226 165//227
f 161//222 165//227 166//228 159//229
f 166//228 165//227 167//230 321//231
f 169//232 323//233 170//234 171//235
f 169//232 171//235 99//134 98//133
f 171//235 170//234 172//236 173//237
f 171//235 173//237 101//136 99//134
f 173//238 172//239 174//239 175//238
f 173//238 175//238 176//240 101//240
f 176//241 175//242 177//243 178//244
f 176//241 178//244 106//143 104//142
f 176//240 104//139 102//139 101//240
f 178//244 177//243 324//245 325//246
f 178//244 325//246 179//247 106//143
f 179//247 109//146 107//144 106//143
f 326//248 180//249 181//250 182//251
f 326//248 182//251 170//234 323//233
f 182//251 181//250 183//252 184//253
f 182//251 184//253 172//236 170//234
f 184//254 183//255 185//255 186//254
f 184//254 186//254 174//239 172//239
f 186//256 185//257 187//258 188//259
f 186//256 188//259 189//260 174//261
f 189//260 188//259 327//262 328//263
f 189//260 328//263 324//245 177//243
f 189//260 177//243 175//242 174//261
f 327//262 188//259 187//258 329//264
f 191//265 330//266 192//267 193//268
f 191//265 193//268 181//250 180//249
f 193//268 192//267 194//269 195//270
f 193//268 195//270 183//252 181//250
f 195//271 194//272 196//272 197//271
f 195//271 197//271 185//255 183//255
f 197//273 196//274 198//275 199//276
f 197//273 199//276 187//258 185//257
f 199//276 198//275 331//277 190//278
f 199//276 190//278 329//264 187//258
f 331//277 198//275 200//279 332//280
f 200//279 201//281 333//282 332//280
f 200//279 198//275 196//274 202//283
f 200//279 202//283 203//284 201//281
f 203//284 204//285 205//286 201//281
f 203//287 202//288 206//288 207//287
f 203//287 207//287 208//289 204//289
f 208//289 209//290 210//290 204//289
f 208//291 207//292 211//293 212//294
f 208//291 212//294 213//295 209//296
f 213//295 214//297 215//298 209//296
f 213//295 212//294 334//299 216//300
f 213//295 216//300 217//301 214//297
f 217//301 218//302 219//303 214//297
f 220//304 221//305 222//306 223//307
f 220//304 223//307 219//303 218//302
f 223//307 222//306 224//308 225//309
f 223//307 225//309 226//310 219//303
f 226//311 225//312 227//312 228//311
f 226//311 228//311 229//313 215//313
f 226//310 215//298 214//297 219//303
f 229//314 228//315 230//316 231//317
f 229//314 231//317 232//318 210//319
f 229//313 210//290 209//290 215//313
f 232//318 231//317 233//320 335//321
f 232//318 335//321 234//322 205//286
f 232//318 205//286 204//285 210//319
f 234//322 333//282 201//281 205//286
f 337//323 336//324 211//293 235//325
f 337//323 235//325 192//267 330//266
f 235//325 211//293 207//292 206//326
f 235//325 206//326 194//269 192//267
f 336//327 334//299 212//294 211//293
f 339//328 338//329 236//330 237//331
f 339//328 237//331 222//306 221//305
f 237//331 236//330 238//332 239//333
f 237//331 239//333 224//308 222//306
f 239//334 238//335 240//335 241//334
f 239//334 241//334 242//336 224//336
f 242//337 241//338 243//339 244//340
f 242//337 244//340 245//341 227//342
f 242//336 227//312 225//312 224//336
f 245//341 244//340 340//343 341//344
f 245//341 341//344 246//345 230//316
f 245//341 230//316 228//315 227//342
f 246//345 233//320 231//317 230//316
f 340//343 244//340 243//339 342//346
f 249//347 248//348 250//349 251//350
f 249//347 251//350 236//330 338//329
f 251//350 250//349 252//351 253//352
f 251//350 253//352 238//332 236//330
f 253//353 252//354 254//354 255//353
f 253//353 255//353 240//335 238//335
f 255//355 254//356 256//357 257//358
f 255//355 257//358 258//359 240//360
f 258//359 257//358 343//361 247//362
f 258//359 247//362 342//346 243//339
f 258//359 243//339 241//338 240//360
f 343//361 257//358 256//357 344//363
f 261//364 260//365 27//41 262//366
f 261//364 262//366 250//349 248//348
f 262//366 27//41 26//40 263//367
f 262//366 263//367 252//351 250//349
f 263//367 26//40 25//39 264//368
f 263//367 264//368 254//354 252//354
f 264//369 25//370 265//371 266//372
f 264//369 266//372 256//357 254//356
f 266//372 265//371 267//373 259//374
f 266//372 259//374 344//363 256//357
f 267//373 265//371 6//4 296//3
f 265//371 25//370 7//6 6//4
f 260//365 345//375 24//38 27//41
f 345//375 297//376 8//7 24//38
f 206//288 202//288 196//272 194//272
f 168//377 322//378 268//379 117//155
f 168//377 117//155 115//153 114//152
f 268//379 322//378 269//380 270//381
f 268//379 270//381 271//382 272//383
f 268//379 272//383 118//156 117//155
f 272//383 271//382 163//225 162//224
f 272//383 162//224 119//158 118//156
f 271//382 270//381 273//384 274//385
f 271//382 274//385 164//226 163//225
f 274//385 273//384 275//386 276//387
f 274//385 276//388 277//389 164//226
f 277//389 276//388 278//390 279//390
f 277//389 279//391 280//392 167//230
f 277//389 167//230 165//227 164//226
f 280//392 279//391 281//393 282//394
f 280//392 282//394 346//395 347//396
f 280//392 347//396 321//231 167//230
f 284//397 283//398 275//386 273//384
f 284//397 273//384 270//381 269//380
f 283//398 348//399 285//400 275//386
f 285//400 348//399 286//401 287//402
f 285//400 287//402 288//403 278//404
f 285//400 278//404 276//387 275//386
f 288//403 287//402 289//405 290//406
f 288//407 290//408 291//408 281//407
f 288//407 281//407 279//390 278//390
f 291//408 290//408 16//23 11//12
f 291//409 11//12 10//11 292//410
f 291//409 292//410 282//394 281//393
f 292//410 10//11 298//16 349//411
f 292//410 349//411 346//395 282//394
f 293//412 14//26 17//24 289//405
f 293//412 289//405 287//402 286//401
f 290//406 289//405 17//24 16//23
f 162//224 160//221 121//160 119//158
f 319//220 311//164 122//161 121//160
f 127//413 38//53 34//52 294//413
f 127//413 294//413 21//36 124//163
f 64//88 84//113 33//47 32//46
f 16//23 15//22 12//13 11//12
f 15//414 300//415 299//19 12//18
f 294//416 94//131 22//34 21//36
f 294//416 87//116 90//122 94//131
f 294//416 33//417 84//117 87//116
f 294//416 34//48 28//48 33//417
f 355//418 296//3 295//2 350//419
f 357//420 356//421 355//418 350//419
f 295//9 297//9 357//420 350//419
f 360//422 359//423 358//424 351//425
f 358//424 298//16 9//15 351//426
f 9//20 299//19 360//427 351//428
f 363//429 362//430 361//431 352//431
f 13//27 14//26 363//429 352//432
f 361//433 300//29 13//29 352//433
f 366//434 365//435 364//436 353//437
f 353//437 364//436 369//438 368//439
f 368//439 367//440 366//434 353//437
f 356//441 357//442 370//443 354//444
f 372//445 371//446 356//441 354//444
f 370//443 373//447 372//445 354//444
f 377//448 376//449 375//450 374//451
f 379//452 378//453 377//448 374//451
f 375//454 381//454 380//455 374//455
f 375//454 383//456 382//456 381//454
f 385//457 384//458 380//459 381//460
f 382//461 386//462 385//457 381//460
f 382//461 388//463 387//464 386//462
f 302//60 301//59 385//457 386//462
f 387//464 43//61 302//60 386//462
f 387//464 389//465 44//62 43//61
f 391//466 390//467 47//65 46//64
f 44//62 389//465 391//466 46//64
f 393//468 392//469 390//467 391//466
f 389//465 394//470 393//468 391//466
f 396//471 395//472 393//472 394//471
f 388//473 397//473 396//471 394//471
f 389//465 387//464 388//463 394//470
f 399//474 398//475 396//476 397//477
f 383//478 400//479 399//474 397//477
f 388//473 382//456 383//456 397//473
f 303//81 59//80 399//474 400//479
f 376//449 60//82 303//81 400//479
f 383//478 375//450 376//449 400//479
f 376//449 377//448 61//83 60//82
f 377//448 378//453 62//84 61//83
f 402//480 401//481 304//86 305//85
f 62//89 378//453 402//480 305//85
f 404//482 403//483 306//91 66//90
f 67//95 405//484 404//482 66//90
f 407//485 406//486 404//482 405//487
f 409//488 408//489 407//485 405//487
f 67//101 75//100 409//488 405//490
f 307//103 410//491 409//488 75//100
f 412//492 411//493 308//105 77//104
f 65//109 413//494 412//492 77//104
f 65//109 304//86 401//481 413//494
f 415//495 414//496 412//492 413//494
f 401//481 416//497 415//495 413//494
f 401//481 402//480 417//498 416//497
f 419//499 418//500 415//500 416//499
f 417//501 420//501 419//499 416//499
f 422//502 421//503 418//504 419//505
f 420//506 423//507 422//502 419//505
f 91//124 309//123 421//503 422//502
f 423//507 92//125 91//124 422//502
f 423//508 424//508 93//126 92//126
f 424//509 425//510 95//129 93//128
f 427//511 426//512 98//133 97//132
f 95//129 425//510 427//511 97//132
f 429//513 428//514 426//512 427//511
f 425//510 430//515 429//513 427//511
f 432//516 431//517 429//517 430//515
f 368//439 369//438 432//516 430//515
f 425//510 424//509 368//439 430//515
f 434//518 433//519 431//520 432//521
f 369//522 435//523 434//518 432//521
f 310//147 109//146 434//518 435//523
f 436//524 110//525 310//147 435//523
f 369//522 364//436 436//524 435//523
f 437//526 112//527 110//525 436//524
f 364//436 365//435 437//526 436//524
f 438//528 114//529 112//527 437//526
f 365//435 439//530 438//528 437//526
f 441//531 440//532 438//528 439//530
f 443//533 442//534 441//531 439//535
f 365//435 366//434 443//533 439//535
f 445//536 444//537 442//534 443//533
f 366//434 446//538 445//536 443//533
f 366//434 367//440 447//539 446//538
f 312//165 311//164 445//536 446//538
f 447//539 125//166 312//165 446//538
f 447//540 448//541 126//168 125//167
f 384//458 385//457 301//59 128//171
f 126//168 448//541 384//458 128//171
f 450//542 449//543 313//173 129//172
f 47//65 390//467 450//542 129//172
f 452//544 451//545 449//543 450//542
f 390//467 392//469 452//544 450//542
f 454//546 453//547 451//547 452//546
f 392//548 455//548 454//546 452//546
f 457//549 456//550 454//551 455//552
f 395//553 458//554 457//549 455//552
f 392//548 393//472 395//472 455//548
f 314//188 140//187 457//549 458//554
f 398//475 141//189 314//188 458//554
f 395//553 396//476 398//475 458//554
f 398//475 399//474 59//80 141//189
f 142//190 456//550 457//549 140//187
f 460//555 459//556 315//192 316//191
f 317//196 461//557 460//555 316//191
f 317//196 308//105 411//493 461//557
f 463//558 462//559 460//555 461//557
f 411//493 464//560 463//558 461//557
f 411//493 412//492 414//496 464//560
f 465//561 406//486 463//562 464//561
f 414//563 466//563 465//561 464//561
f 414//563 415//500 418//500 466//563
f 467//564 403//483 465//565 466//566
f 418//504 421//503 467//564 466//566
f 318//206 306//91 403//483 467//564
f 421//503 309//123 318//206 467//564
f 403//483 404//482 406//486 465//565
f 406//486 407//485 462//567 463//562
f 468//568 459//556 460//555 462//559
f 407//485 408//489 468//569 462//567
f 470//570 469//571 459//556 468//568
f 408//489 471//572 470//572 468//569
f 451//547 453//547 470//572 471//572
f 410//491 449//543 451//545 471//573
f 408//489 409//488 410//491 471//573
f 453//574 472//575 469//571 470//570
f 143//217 144//216 469//571 472//575
f 456//550 142//218 143//217 472//575
f 453//574 454//551 456//550 472//575
f 144//216 315//192 459//556 469//571
f 410//491 307//103 313//173 449//543
f 473//576 444//537 319//220 320//219
f 159//223 474//577 473//576 320//219
f 476//578 475//579 473//576 474//577
f 478//580 477//581 476//578 474//577
f 159//229 166//228 478//580 474//577
f 321//231 479//582 478//580 166//228
f 481//583 480//584 323//233 169//232
f 98//133 426//512 481//583 169//232
f 483//585 482//586 480//584 481//583
f 426//512 428//514 483//585 481//583
f 485//587 484//588 482//588 483//587
f 428//589 486//589 485//587 483//587
f 488//590 487//591 485//592 486//593
f 431//520 433//519 488//590 486//593
f 428//589 429//517 431//517 486//589
f 325//246 324//245 487//591 488//590
f 433//519 179//247 325//246 488//590
f 433//519 434//518 109//146 179//247
f 490//594 489//595 180//249 326//248
f 323//233 480//584 490//594 326//248
f 492//596 491//597 489//595 490//594
f 480//584 482//586 492//596 490//594
f 494//598 493//599 491//599 492//598
f 482//588 484//588 494//598 492//598
f 496//600 495//601 493//602 494//603
f 484//604 497//605 496//600 494//603
f 328//263 327//262 496//600 497//605
f 487//591 324//245 328//263 497//605
f 484//604 485//592 487//591 497//605
f 329//264 495//601 496//600 327//262
f 499//606 498//607 330//266 191//265
f 180//249 489//595 499//606 191//265
f 501//608 500//609 498//607 499//606
f 489//595 491//597 501//608 499//606
f 503//610 502//611 500//611 501//610
f 491//599 493//599 503//610 501//610
f 505//612 504//613 502//614 503//615
f 493//602 495//601 505//612 503//615
f 190//278 331//277 504//613 505//612
f 495//601 329//264 190//278 505//612
f 332//280 506//616 504//613 331//277
f 332//280 333//282 507//617 506//616
f 508//618 502//614 504//613 506//616
f 507//617 509//619 508//618 506//616
f 507//617 511//620 510//621 509//619
f 513//622 512//623 508//623 509//622
f 510//624 514//624 513//622 509//622
f 510//624 516//625 515//625 514//624
f 518//626 517//627 513//628 514//629
f 515//630 519//631 518//626 514//629
f 515//630 521//632 520//633 519//631
f 216//300 334//299 518//626 519//631
f 520//633 217//301 216//300 519//631
f 520//633 522//634 218//302 217//301
f 524//635 523//636 221//305 220//304
f 218//302 522//634 524//635 220//304
f 526//637 525//638 523//636 524//635
f 522//634 527//639 526//637 524//635
f 529//640 528//641 526//641 527//640
f 521//642 530//642 529//640 527//640
f 522//634 520//633 521//632 527//639
f 532//643 531//644 529//645 530//646
f 516//647 533//648 532//643 530//646
f 521//642 515//625 516//625 530//642
f 335//321 233//320 532//643 533//648
f 511//620 234//322 335//321 533//648
f 516//647 510//621 511//620 533//648
f 511//620 507//617 333//282 234//322
f 534//649 517//627 336//324 337//323
f 330//266 498//607 534//649 337//323
f 512//650 513//628 517//627 534//649
f 498//607 500//609 512//650 534//649
f 517//627 518//626 334//299 336//327
f 536//651 535//652 338//329 339//328
f 221//305 523//636 536//651 339//328
f 538//653 537//654 535//652 536//651
f 523//636 525//638 538//653 536//651
f 540//655 539//656 537//656 538//655
f 525//657 541//657 540//655 538//655
f 543//658 542//659 540//660 541//661
f 528//662 544//663 543//658 541//661
f 525//657 526//641 528//641 541//657
f 341//344 340//343 543//658 544//663
f 531//644 246//345 341//344 544//663
f 528//662 529//645 531//644 544//663
f 531//644 532//643 233//320 246//345
f 342//346 542//659 543//658 340//343
f 546//664 545//665 248//348 249//347
f 338//329 535//652 546//664 249//347
f 548//666 547//667 545//665 546//664
f 535//652 537//654 548//666 546//664
f 550//668 549//669 547//669 548//668
f 537//656 539//656 550//668 548//668
f 552//670 551//671 549//672 550//673
f 539//674 553//675 552//670 550//673
f 247//362 343//361 552//670 553//675
f 542//659 342//346 247//362 553//675
f 539//674 540//660 542//659 553//675
f 344//363 551//671 552//670 343//361
f 554//676 373//447 260//365 261//364
f 248//348 545//665 554//676 261//364
f 555//677 372//445 373//447 554//676
f 545//665 547//667 555//677 554//676
f 556//678 371//446 372//445 555//677
f 547//669 549//669 556//678 555//677
f 558//679 557//680 371//681 556//682
f 549//672 551//671 558//679 556//682
f 259//374 267//373 557//680 558//679
f 551//671 344//363 259//374 558//679
f 296//3 355//418 557//680 267//373
f 355//418 356//421 371//681 557//680
f 373//447 370//443 345//375 260//365
f 370//443 357//442 297//376 345//375
f 500//611 502//611 508//623 512//623
f 440//532 559//683 322//378 168//684
f 114//529 438//528 440//532 168//684
f 560//685 269//380 322//378 559//683
f 562//686 561//687 560//685 559//683
f 440//532 441//531 562//686 559//683
f 475//579 476//578 561//687 562//686
f 441//531 442//534 475//579 562//686
f 564//688 563//689 560//685 561//687
f 476//578 477//581 564//688 561//687
f 566//690 565//691 563//689 564//688
f 477//581 567//692 566//693 564//688
f 569//694 568//694 566//693 567//692
f 479//582 570//695 569//696 567//692
f 477//581 478//580 479//582 567//692
f 572//697 571//698 569//696 570//695
f 347//396 346//395 572//697 570//695
f 479//582 321//231 347//396 570//695
f 563//689 565//691 283//398 284//397
f 269//380 560//685 563//689 284//397
f 565//691 573//699 348//399 283//398
f 574//700 286//401 348//399 573//699
f 568//701 575//702 574//700 573//699
f 565//691 566//690 568//701 573//699
f 577//703 576//704 574//700 575//702
f 571//705 578//706 577//706 575//705
f 568//694 569//694 571//705 575//705
f 359//423 362//707 577//706 578//706
f 579//708 358//424 359//423 578//709
f 571//698 572//697 579//708 578//709
f 349//411 298//16 358//424 579//708
f 572//697 346//395 349//411 579//708
f 576//704 363//429 14//26 293//412
f 286//401 574//700 576//704 293//412
f 362//430 363//429 576//704 577//703
f 442//534 444//537 473//576 475//579
f 444//537 445//536 311//164 319//220
f 580//710 380//459 384//458 448//710
f 447//539 367//440 580//710 448//710
f 378//453 379//452 417//498 402//480
f 359//423 360//422 361//711 362//707
f 360//427 299//19 300//415 361//712
f 367//440 368//439 424//509 580//713
f 424//714 423//507 420//506 580//714
f 420//501 417//501 379//715 580//715
f 379//715 374//455 380//455 580//715
