# pilowlava3D glyph '*' variant 1 — Vincent Wagner / Velvetyne, Free Art License
v 1.28255 1.50511 -0.30862
v 1.20503 1.50116 -0.26440
v 1.35274 1.58881 -0.27511
v 0.84121 0.22975 -0.25583
v 1.34083 1.39073 -0.24400
v 2.17163 2.62045 -0.26128
v 1.40737 1.52107 -0.25636
v 2.61089 1.16075 -0.25422
v 0.16590 1.16635 -0.23484
v 0.10793 1.53996 -0.26571
v 1.17318 0.11256 -0.27165
v 1.24284 1.41696 -0.25196
v 2.43624 0.72358 -0.26051
v 0.61302 2.38370 -0.28229
v 1.00535 2.57590 -0.26254
v 2.39008 2.35584 -0.23713
v 1.22431 1.58337 -0.29521
v 1.28633 1.63099 -0.29885
v 1.36378 1.45014 -0.29404
v 1.14658 1.47035 -0.26802
v 1.13662 1.48448 -0.21354
v 1.19568 1.51730 -0.21485
v 1.15440 1.43065 -0.25408
v 1.19375 1.58990 -0.22728
v 1.35550 1.61968 -0.21516
v 1.41392 1.66024 -0.21550
v 1.42735 1.63772 -0.27362
v 1.46449 1.60037 -0.26813
v 1.29869 1.65218 -0.22885
v 0.80351 0.21102 -0.14876
v 0.81161 0.36553 -0.14941
v 0.86105 0.33955 -0.28346
v 0.96320 0.28930 -0.36997
v 0.91819 0.15166 -0.30413
v 0.89088 0.07151 -0.15845
v 1.44680 1.41503 -0.29277
v 1.43596 1.38344 -0.25619
v 1.30550 1.31294 -0.25295
v 1.25045 1.32168 -0.24878
v 1.43635 1.36008 -0.20147
v 1.36707 1.36124 -0.19044
v 1.33415 1.29867 -0.19900
v 2.16882 2.66485 -0.14982
v 2.31857 2.61897 -0.14867
v 2.27018 2.57402 -0.29189
v 2.06660 2.54923 -0.29913
v 2.00562 2.59127 -0.15781
v 2.16525 2.47463 -0.37046
v 1.43932 1.51718 -0.19666
v 1.48015 1.45963 -0.20077
v 1.46632 1.44562 -0.26173
v 1.48855 1.58433 -0.20417
v 2.65063 1.17857 -0.14716
v 2.70741 1.03077 -0.15580
v 2.63181 1.06020 -0.29658
v 2.49883 1.11212 -0.37309
v 2.50916 1.21135 -0.27728
v 2.51601 1.26175 -0.14387
v 0.09521 1.26368 -0.28108
v 0.23782 1.29544 -0.35500
v 0.28230 1.18054 -0.26795
v 0.14890 1.13326 -0.13451
v 0.03221 1.25206 -0.14257
v 0.30772 1.13127 -0.13917
v 0.07581 1.57605 -0.15253
v 0.23282 1.65697 -0.16068
v 0.22477 1.57753 -0.30027
v 0.07725 1.42222 -0.29117
v 0.01271 1.42099 -0.14825
v 0.21846 1.43830 -0.36517
v 1.20267 0.06765 -0.15677
v 1.04607 0.01642 -0.16205
v 1.06202 0.10004 -0.30966
v 1.22285 0.22779 -0.30201
v 1.29420 0.21706 -0.15976
v 1.09822 0.24701 -0.37805
v 1.22456 1.31997 -0.18930
v 1.22056 1.39207 -0.18524
v 2.31955 0.76247 -0.29145
v 2.39345 0.85238 -0.37554
v 2.51843 0.78590 -0.29849
v 2.44134 0.67897 -0.15173
v 2.27698 0.71134 -0.15264
v 2.58369 0.73798 -0.15826
v 0.65388 2.27212 -0.30903
v 0.58961 2.22022 -0.16414
v 0.55119 2.39499 -0.16240
v 0.64932 2.56549 -0.16484
v 0.70188 2.48864 -0.31419
v 0.77360 2.37019 -0.38819
v 1.02167 2.61175 -0.15105
v 1.13074 2.48799 -0.15397
v 1.06972 2.47957 -0.29401
v 0.86684 2.57210 -0.30529
v 0.83447 2.63973 -0.15951
v 0.92894 2.44748 -0.38704
v 2.36684 2.46206 -0.28460
v 2.41949 2.50129 -0.14421
v 2.42481 2.34925 -0.13660
v 2.30695 2.27816 -0.27123
v 2.25370 2.37204 -0.35933
v 2.32887 2.23238 -0.14188
v 2.20973 2.13888 -0.15346
v 2.18314 2.19021 -0.29522
v 2.21496 2.12482 0.00000
v 2.09560 2.03456 0.00000
v 2.08817 2.04883 -0.15966
v 1.97374 1.94183 0.00000
v 1.84251 1.85384 -0.14976
v 1.96598 1.95421 -0.15847
v 1.81204 1.87710 -0.26801
v 1.93192 1.98870 -0.28957
v 2.05564 2.09485 -0.29936
v 1.88028 2.03568 -0.35915
v 1.99993 2.15726 -0.37503
v 2.12609 2.27175 -0.38118
v 1.93221 2.22297 -0.38102
v 2.04724 2.35519 -0.39000
v 1.86631 2.27854 -0.31416
v 1.96027 2.42106 -0.31587
v 1.81353 2.31277 -0.17105
v 1.89709 2.45402 -0.16586
v 1.88189 2.46184 0.00000
v 1.99321 2.60007 0.00000
v 2.43210 2.50629 0.00000
v 1.72399 1.74527 0.00000
v 1.59794 1.65296 -0.12438
v 1.71706 1.75017 -0.13571
v 1.58218 1.66436 -0.21913
v 1.69438 1.76647 -0.24087
v 1.55278 1.68905 -0.28502
v 1.65506 1.79827 -0.30792
v 1.76536 1.91525 -0.33543
v 1.60535 1.84381 -0.31047
v 1.70921 1.96598 -0.33792
v 1.81904 2.09198 -0.36372
v 1.66721 2.00929 -0.27300
v 1.76704 2.14122 -0.29865
v 1.63994 2.04149 -0.15486
v 1.72810 2.17661 -0.16696
v 1.63025 2.05311 0.00000
v 1.71488 2.18709 0.00000
v 1.36146 1.65248 0.00000
v 1.31295 1.68142 0.00000
v 1.29432 1.76021 0.00000
v 1.16041 1.58982 0.00000
v 1.16803 1.53247 0.00000
v 1.11279 1.50761 0.00000
v 1.17191 1.59136 -0.13306
v 1.17861 1.52686 -0.12843
v 1.12238 1.49800 -0.12807
v 1.03506 1.49089 -0.22356
v 1.02999 1.51411 -0.13178
v 1.02689 1.52630 0.00000
v 0.88261 1.54245 -0.14639
v 0.88316 1.55658 0.00000
v 1.13793 1.39238 0.00000
v 1.20437 1.38005 0.00000
v 1.20013 1.31131 0.00000
v 1.15872 1.21788 0.00000
v 1.20802 1.31484 -0.10765
v 1.16616 1.21864 -0.11615
v 1.10497 1.07690 -0.13350
v 1.18552 1.21807 -0.20591
v 1.13493 1.07839 -0.23896
v 1.08843 0.92649 -0.27367
v 1.04678 0.92958 -0.15284
v 0.99142 0.78671 -0.16053
v 0.97774 0.79193 0.00000
v 1.36263 1.16647 0.00000
v 1.36591 1.27101 0.00000
v 1.38787 1.32642 0.00000
v 1.44509 1.32361 0.00000
v 1.52466 1.26611 0.00000
v 1.46283 1.52712 0.00000
v 1.49502 1.47052 -0.11438
v 1.45599 1.52145 -0.11294
v 1.50596 1.58011 -0.11728
v 1.59644 1.44966 -0.12137
v 1.58801 1.43259 -0.21156
v 1.73839 1.38859 -0.23207
v 1.71970 1.35733 -0.30560
v 1.57758 1.41106 -0.27713
v 1.75248 1.41203 -0.13105
v 1.90678 1.37644 -0.14196
v 1.89050 1.34498 -0.26039
v 2.06181 1.36325 0.00000
v 2.05740 1.34487 -0.14732
v 2.21151 1.33969 0.00000
v 2.36249 1.29762 -0.14559
v 2.20935 1.32010 -0.14853
v 2.35895 1.24920 -0.28574
v 2.20141 1.27526 -0.28584
v 2.04398 1.30542 -0.27837
v 2.18449 1.20394 -0.37389
v 2.02513 1.24963 -0.35768
v 1.86926 1.30046 -0.33645
v 1.99555 1.17234 -0.38553
v 1.84356 1.24102 -0.36038
v 1.69736 1.31100 -0.32964
v 1.81317 1.17744 -0.34094
v 1.67558 1.25926 -0.30729
v 1.54566 1.33137 -0.27570
v 1.56057 1.37151 -0.30626
v 1.66242 1.21967 -0.24337
v 1.53615 1.30546 -0.22013
v 1.65511 1.18977 -0.13929
v 1.52898 1.28159 -0.12747
v 1.44365 1.33647 -0.11806
v 1.38234 1.33769 -0.11274
v 1.35406 1.28099 -0.11654
v 1.34691 1.17457 -0.12772
v 1.32151 1.18577 -0.21808
v 1.34057 1.01950 -0.14642
v 1.30846 1.03791 -0.24816
v 1.26001 1.05595 -0.30626
v 1.28292 1.19894 -0.27329
v 1.18988 1.07114 -0.30121
v 1.22369 1.21236 -0.26848
v 1.23083 0.89995 -0.34356
v 1.15408 0.91684 -0.33834
v 1.19958 0.73516 -0.36648
v 1.11562 0.75396 -0.36329
v 1.04012 0.77187 -0.29365
v 1.07079 0.59301 -0.37725
v 0.98450 0.62199 -0.29971
v 0.93306 0.64577 -0.16027
v 0.92010 0.48008 -0.29791
v 0.86947 0.50885 -0.15575
v 0.91946 0.65354 0.00000
v 1.33357 0.86211 -0.16385
v 1.32809 0.70553 -0.17022
v 1.27159 0.71757 -0.30196
v 1.29089 0.87994 -0.28045
v 1.32626 0.54761 -0.16973
v 1.25855 0.55266 -0.31313
v 1.16912 0.56869 -0.38217
v 1.25081 0.38823 -0.31372
v 1.13628 0.40379 -0.39241
v 1.01809 0.43757 -0.38516
v 1.32255 0.38565 -0.16506
v 1.31049 0.21359 0.00000
v 1.21085 0.05418 0.00000
v 0.78957 0.20371 0.00000
v 1.78049 1.09560 -0.15012
v 1.90556 1.00020 -0.15627
v 1.79251 1.12967 -0.27047
v 1.92896 1.03898 -0.28739
v 2.06277 0.94727 -0.29574
v 2.02751 0.90458 -0.15663
v 1.95905 1.09649 -0.36466
v 2.10847 1.01690 -0.38195
v 2.25357 0.93415 -0.38886
v 2.19048 0.85196 -0.29669
v 2.15282 1.10802 -0.40482
v 2.30962 1.04430 -0.41588
v 2.46231 0.97824 -0.40525
v 2.34464 1.15959 -0.38259
v 2.60215 0.91215 -0.31621
v 2.68584 0.86846 -0.16313
v 2.70152 0.85676 0.00000
v 2.72482 1.02313 0.00000
v 2.13394 0.79683 0.00000
v 2.26721 0.69920 0.00000
v 2.14705 0.80775 -0.15334
v 2.44054 0.66445 0.00000
v 1.20870 1.38351 -0.10494
v 1.14331 1.39968 -0.10808
v 1.15202 1.41418 -0.19301
v 1.04330 1.36820 -0.11739
v 1.04492 1.38532 -0.21052
v 1.04584 1.41166 -0.27767
v 0.89813 1.35088 -0.24137
v 0.89841 1.39396 -0.31302
v 0.89409 1.46054 -0.31873
v 1.04134 1.46134 -0.28488
v 0.88723 1.50843 -0.25326
v 0.72928 1.45494 -0.35146
v 0.72399 1.52134 -0.28775
v 0.72411 1.57186 -0.16155
v 0.55561 1.54156 -0.31017
v 0.56973 1.60638 -0.16769
v 0.57596 1.62578 0.00000
v 0.72903 1.58946 0.00000
v 1.04081 1.36047 0.00000
v 0.89737 1.32410 -0.13460
v 0.74380 1.27845 -0.15073
v 0.73691 1.31926 -0.27524
v 0.59853 1.23274 -0.15484
v 0.57677 1.28382 -0.29306
v 0.55888 1.36246 -0.36724
v 0.73351 1.38158 -0.34680
v 0.55111 1.45485 -0.37408
v 0.39179 1.33132 -0.37354
v 0.37698 1.45253 -0.38325
v 0.39033 1.57477 -0.31309
v 0.41022 1.64751 -0.16592
v 0.41548 1.66608 0.00000
v 0.31357 1.11875 0.00000
v 0.60738 1.21809 0.00000
v 0.45778 1.17860 -0.14910
v 0.42657 1.23052 -0.28965
v 0.14151 1.12293 0.00000
v 0.02029 1.24897 0.00000
v 0.00000 1.42290 0.00000
v 1.11661 1.66320 -0.14309
v 1.14302 1.67699 -0.24973
v 1.05585 1.79145 -0.27889
v 1.10872 1.81881 -0.35275
v 1.17684 1.69361 -0.32645
v 1.02074 1.76622 -0.15780
v 0.91473 1.87553 -0.16687
v 0.95787 1.91351 -0.30721
v 0.90079 1.86103 0.00000
v 0.79345 1.96525 0.00000
v 0.80592 1.98175 -0.17173
v 0.68126 2.07463 0.00000
v 0.69424 2.08815 -0.16797
v 0.74533 2.15063 -0.32232
v 0.85251 2.03420 -0.32383
v 0.85090 2.24079 -0.40733
v 0.93648 2.10213 -0.40185
v 1.02558 1.95900 -0.38060
v 1.04204 2.15379 -0.39729
v 1.10207 1.99843 -0.37883
v 1.17222 1.85203 -0.35127
v 1.17056 2.02416 -0.30123
v 1.21539 1.87503 -0.27474
v 1.26171 1.74029 -0.24895
v 1.23326 1.72333 -0.32568
v 1.24853 1.88731 -0.15628
v 1.28242 1.75325 -0.14353
v 1.30701 1.67202 -0.13221
v 1.35813 1.64142 -0.12672
v 1.40891 1.68182 -0.12721
v 1.46624 1.77500 -0.13131
v 1.48109 1.75775 -0.22568
v 1.55196 1.90530 -0.13997
v 1.57156 1.88050 -0.24549
v 1.50745 1.73066 -0.28976
v 1.26727 1.89088 0.00000
v 1.23907 2.03731 0.00000
v 1.21639 2.03530 -0.16327
v 1.19559 2.18341 -0.16487
v 1.21821 2.18381 0.00000
v 1.13780 2.17736 -0.31540
v 1.11153 2.33060 -0.31318
v 1.17719 2.33573 -0.16150
v 0.98774 2.30479 -0.40303
v 1.19724 2.33748 0.00000
v 0.82666 2.65085 0.00000
v 0.64018 2.57629 0.00000
v 2.43476 2.34456 0.00000
v 2.33416 2.22132 0.00000
v 1.85117 1.84574 0.00000
v 1.79776 2.32141 0.00000
v 2.16698 2.67801 0.00000
v 2.32845 2.62891 0.00000
v 1.60266 1.65024 0.00000
v 1.09549 1.07400 0.00000
v 1.03470 0.93038 0.00000
v 1.50493 1.47589 0.00000
v 1.51379 1.58101 0.00000
v 1.60178 1.45861 0.00000
v 1.75932 1.42505 0.00000
v 1.91235 1.39170 0.00000
v 2.36428 1.31558 0.00000
v 0.85764 0.51742 0.00000
v 1.35195 0.85527 0.00000
v 1.35739 1.00848 0.00000
v 1.34797 0.70271 0.00000
v 1.34613 0.54688 0.00000
v 1.34074 0.38415 0.00000
v 1.04296 0.00000 0.00000
v 0.88367 0.05591 0.00000
v 0.79974 0.37171 0.00000
v 1.64851 1.17324 0.00000
v 1.77225 1.07936 0.00000
v 1.89297 0.98603 0.00000
v 2.59445 0.72658 0.00000
v 2.66641 1.18475 0.00000
v 2.52177 1.27726 0.00000
v 2.01265 0.89269 0.00000
v 0.89713 1.31351 0.00000
v 0.74982 1.26521 0.00000
v 0.23557 1.67528 0.00000
v 0.46722 1.16571 0.00000
v 0.06751 1.58889 0.00000
v 1.10162 1.65489 0.00000
v 1.00790 1.75201 0.00000
v 0.57462 2.21013 0.00000
v 1.40709 1.69241 0.00000
v 1.46133 1.78403 0.00000
v 1.54478 1.91559 0.00000
v 1.14725 2.49270 0.00000
v 1.02379 2.62504 0.00000
v 0.53699 2.40297 0.00000
v 1.28255 1.50511 0.30862
v 1.20503 1.50116 0.26440
v 1.35274 1.58881 0.27511
v 0.84121 0.22975 0.25583
v 1.34083 1.39073 0.24400
v 2.17163 2.62045 0.26128
v 1.40737 1.52107 0.25636
v 2.61089 1.16075 0.25422
v 0.16590 1.16635 0.23484
v 0.10793 1.53996 0.26571
v 1.17318 0.11256 0.27165
v 1.24284 1.41696 0.25196
v 2.43624 0.72358 0.26051
v 0.61302 2.38370 0.28229
v 1.00535 2.57590 0.26254
v 2.39008 2.35584 0.23713
v 1.22431 1.58337 0.29521
v 1.28633 1.63099 0.29885
v 1.36378 1.45014 0.29404
v 1.14658 1.47035 0.26802
v 1.13662 1.48448 0.21354
v 1.19568 1.51730 0.21485
v 1.15440 1.43065 0.25408
v 1.19375 1.58990 0.22728
v 1.35550 1.61968 0.21516
v 1.41392 1.66024 0.21550
v 1.42735 1.63772 0.27362
v 1.46449 1.60037 0.26813
v 1.29869 1.65218 0.22885
v 0.80351 0.21102 0.14876
v 0.81161 0.36553 0.14941
v 0.86105 0.33955 0.28346
v 0.96320 0.28930 0.36997
v 0.91819 0.15166 0.30413
v 0.89088 0.07151 0.15845
v 1.44680 1.41503 0.29277
v 1.43596 1.38344 0.25619
v 1.30550 1.31294 0.25295
v 1.25045 1.32168 0.24878
v 1.43635 1.36008 0.20147
v 1.36707 1.36124 0.19044
v 1.33415 1.29867 0.19900
v 2.16882 2.66485 0.14982
v 2.31857 2.61897 0.14867
v 2.27018 2.57402 0.29189
v 2.06660 2.54923 0.29913
v 2.00562 2.59127 0.15781
v 2.16525 2.47463 0.37046
v 1.43932 1.51718 0.19666
v 1.48015 1.45963 0.20077
v 1.46632 1.44562 0.26173
v 1.48855 1.58433 0.20417
v 2.65063 1.17857 0.14716
v 2.70741 1.03077 0.15580
v 2.63181 1.06020 0.29658
v 2.49883 1.11212 0.37309
v 2.50916 1.21135 0.27728
v 2.51601 1.26175 0.14387
v 0.09521 1.26368 0.28108
v 0.23782 1.29544 0.35500
v 0.28230 1.18054 0.26795
v 0.14890 1.13326 0.13451
v 0.03221 1.25206 0.14257
v 0.30772 1.13127 0.13917
v 0.07581 1.57605 0.15253
v 0.23282 1.65697 0.16068
v 0.22477 1.57753 0.30027
v 0.07725 1.42222 0.29117
v 0.01271 1.42099 0.14825
v 0.21846 1.43830 0.36517
v 1.20267 0.06765 0.15677
v 1.04607 0.01642 0.16205
v 1.06202 0.10004 0.30966
v 1.22285 0.22779 0.30201
v 1.29420 0.21706 0.15976
v 1.09822 0.24701 0.37805
v 1.22456 1.31997 0.18930
v 1.22056 1.39207 0.18524
v 2.31955 0.76247 0.29145
v 2.39345 0.85238 0.37554
v 2.51843 0.78590 0.29849
v 2.44134 0.67897 0.15173
v 2.27698 0.71134 0.15264
v 2.58369 0.73798 0.15826
v 0.65388 2.27212 0.30903
v 0.58961 2.22022 0.16414
v 0.55119 2.39499 0.16240
v 0.64932 2.56549 0.16484
v 0.70188 2.48864 0.31419
v 0.77360 2.37019 0.38819
v 1.02167 2.61175 0.15105
v 1.13074 2.48799 0.15397
v 1.06972 2.47957 0.29401
v 0.86684 2.57210 0.30529
v 0.83447 2.63973 0.15951
v 0.92894 2.44748 0.38704
v 2.36684 2.46206 0.28460
v 2.41949 2.50129 0.14421
v 2.42481 2.34925 0.13660
v 2.30695 2.27816 0.27123
v 2.25370 2.37204 0.35933
v 2.32887 2.23238 0.14188
v 2.20973 2.13888 0.15346
v 2.18314 2.19021 0.29522
v 2.08817 2.04883 0.15966
v 1.84251 1.85384 0.14976
v 1.96598 1.95421 0.15847
v 1.81204 1.87710 0.26801
v 1.93192 1.98870 0.28957
v 2.05564 2.09485 0.29936
v 1.88028 2.03568 0.35915
v 1.99993 2.15726 0.37503
v 2.12609 2.27175 0.38118
v 1.93221 2.22297 0.38102
v 2.04724 2.35519 0.39000
v 1.86631 2.27854 0.31416
v 1.96027 2.42106 0.31587
v 1.81353 2.31277 0.17105
v 1.89709 2.45402 0.16586
v 1.59794 1.65296 0.12438
v 1.71706 1.75017 0.13571
v 1.58218 1.66436 0.21913
v 1.69438 1.76647 0.24087
v 1.55278 1.68905 0.28502
v 1.65506 1.79827 0.30792
v 1.76536 1.91525 0.33543
v 1.60535 1.84381 0.31047
v 1.70921 1.96598 0.33792
v 1.81904 2.09198 0.36372
v 1.66721 2.00929 0.27300
v 1.76704 2.14122 0.29865
v 1.63994 2.04149 0.15486
v 1.72810 2.17661 0.16696
v 1.17191 1.59136 0.13306
v 1.17861 1.52686 0.12843
v 1.12238 1.49800 0.12807
v 1.03506 1.49089 0.22356
v 1.02999 1.51411 0.13178
v 0.88261 1.54245 0.14639
v 1.20802 1.31484 0.10765
v 1.16616 1.21864 0.11615
v 1.10497 1.07690 0.13350
v 1.18552 1.21807 0.20591
v 1.13493 1.07839 0.23896
v 1.08843 0.92649 0.27367
v 1.04678 0.92958 0.15284
v 0.99142 0.78671 0.16053
v 1.49502 1.47052 0.11438
v 1.45599 1.52145 0.11294
v 1.50596 1.58011 0.11728
v 1.59644 1.44966 0.12137
v 1.58801 1.43259 0.21156
v 1.73839 1.38859 0.23207
v 1.71970 1.35733 0.30560
v 1.57758 1.41106 0.27713
v 1.75248 1.41203 0.13105
v 1.90678 1.37644 0.14196
v 1.89050 1.34498 0.26039
v 2.05740 1.34487 0.14732
v 2.36249 1.29762 0.14559
v 2.20935 1.32010 0.14853
v 2.35895 1.24920 0.28574
v 2.20141 1.27526 0.28584
v 2.04398 1.30542 0.27837
v 2.18449 1.20394 0.37389
v 2.02513 1.24963 0.35768
v 1.86926 1.30046 0.33645
v 1.99555 1.17234 0.38553
v 1.84356 1.24102 0.36038
v 1.69736 1.31100 0.32964
v 1.81317 1.17744 0.34094
v 1.67558 1.25926 0.30729
v 1.54566 1.33137 0.27570
v 1.56057 1.37151 0.30626
v 1.66242 1.21967 0.24337
v 1.53615 1.30546 0.22013
v 1.65511 1.18977 0.13929
v 1.52898 1.28159 0.12747
v 1.44365 1.33647 0.11806
v 1.38234 1.33769 0.11274
v 1.35406 1.28099 0.11654
v 1.34691 1.17457 0.12772
v 1.32151 1.18577 0.21808
v 1.34057 1.01950 0.14642
v 1.30846 1.03791 0.24816
v 1.26001 1.05595 0.30626
v 1.28292 1.19894 0.27329
v 1.18988 1.07114 0.30121
v 1.22369 1.21236 0.26848
v 1.23083 0.89995 0.34356
v 1.15408 0.91684 0.33834
v 1.19958 0.73516 0.36648
v 1.11562 0.75396 0.36329
v 1.04012 0.77187 0.29365
v 1.07079 0.59301 0.37725
v 0.98450 0.62199 0.29971
v 0.93306 0.64577 0.16027
v 0.92010 0.48008 0.29791
v 0.86947 0.50885 0.15575
v 1.33357 0.86211 0.16385
v 1.32809 0.70553 0.17022
v 1.27159 0.71757 0.30196
v 1.29089 0.87994 0.28045
v 1.32626 0.54761 0.16973
v 1.25855 0.55266 0.31313
v 1.16912 0.56869 0.38217
v 1.25081 0.38823 0.31372
v 1.13628 0.40379 0.39241
v 1.01809 0.43757 0.38516
v 1.32255 0.38565 0.16506
v 1.78049 1.09560 0.15012
v 1.90556 1.00020 0.15627
v 1.79251 1.12967 0.27047
v 1.92896 1.03898 0.28739
v 2.06277 0.94727 0.29574
v 2.02751 0.90458 0.15663
v 1.95905 1.09649 0.36466
v 2.10847 1.01690 0.38195
v 2.25357 0.93415 0.38886
v 2.19048 0.85196 0.29669
v 2.15282 1.10802 0.40482
v 2.30962 1.04430 0.41588
v 2.46231 0.97824 0.40525
v 2.34464 1.15959 0.38259
v 2.60215 0.91215 0.31621
v 2.68584 0.86846 0.16313
v 2.14705 0.80775 0.15334
v 1.20870 1.38351 0.10494
v 1.14331 1.39968 0.10808
v 1.15202 1.41418 0.19301
v 1.04330 1.36820 0.11739
v 1.04492 1.38532 0.21052
v 1.04584 1.41166 0.27767
v 0.89813 1.35088 0.24137
v 0.89841 1.39396 0.31302
v 0.89409 1.46054 0.31873
v 1.04134 1.46134 0.28488
v 0.88723 1.50843 0.25326
v 0.72928 1.45494 0.35146
v 0.72399 1.52134 0.28775
v 0.72411 1.57186 0.16155
v 0.55561 1.54156 0.31017
v 0.56973 1.60638 0.16769
v 0.89737 1.32410 0.13460
v 0.74380 1.27845 0.15073
v 0.73691 1.31926 0.27524
v 0.59853 1.23274 0.15484
v 0.57677 1.28382 0.29306
v 0.55888 1.36246 0.36724
v 0.73351 1.38158 0.34680
v 0.55111 1.45485 0.37408
v 0.39179 1.33132 0.37354
v 0.37698 1.45253 0.38325
v 0.39033 1.57477 0.31309
v 0.41022 1.64751 0.16592
v 0.45778 1.17860 0.14910
v 0.42657 1.23052 0.28965
v 1.11661 1.66320 0.14309
v 1.14302 1.67699 0.24973
v 1.05585 1.79145 0.27889
v 1.10872 1.81881 0.35275
v 1.17684 1.69361 0.32645
v 1.02074 1.76622 0.15780
v 0.91473 1.87553 0.16687
v 0.95787 1.91351 0.30721
v 0.80592 1.98175 0.17173
v 0.69424 2.08815 0.16797
v 0.74533 2.15063 0.32232
v 0.85251 2.03420 0.32383
v 0.85090 2.24079 0.40733
v 0.93648 2.10213 0.40185
v 1.02558 1.95900 0.38060
v 1.04204 2.15379 0.39729
v 1.10207 1.99843 0.37883
v 1.17222 1.85203 0.35127
v 1.17056 2.02416 0.30123
v 1.21539 1.87503 0.27474
v 1.26171 1.74029 0.24895
v 1.23326 1.72333 0.32568
v 1.24853 1.88731 0.15628
v 1.28242 1.75325 0.14353
v 1.30701 1.67202 0.13221
v 1.35813 1.64142 0.12672
v 1.40891 1.68182 0.12721
v 1.46624 1.77500 0.13131
v 1.48109 1.75775 0.22568
v 1.55196 1.90530 0.13997
v 1.57156 1.88050 0.24549
v 1.50745 1.73066 0.28976
v 1.21639 2.03530 0.16327
v 1.19559 2.18341 0.16487
v 1.13780 2.17736 0.31540
v 1.11153 2.33060 0.31318
v 1.17719 2.33573 0.16150
v 0.98774 2.30479 0.40303
vn 0.27196 0.07443 -0.95943
vn 0.13815 -0.11318 -0.98392
vn 0.20441 -0.00323 -0.97888
vn 0.25529 0.15767 -0.95392
vn 0.33896 0.30885 -0.88866
vn -0.30882 -0.41902 -0.85384
vn -0.17540 -0.60014 -0.78043
vn -0.12085 -0.57122 -0.81186
vn -0.14457 -0.26727 -0.95272
vn -0.44403 0.83437 -0.32659
vn -0.20916 0.91588 -0.34265
vn -0.19274 0.94239 -0.27341
vn -0.45486 0.85044 -0.26428
vn -0.22053 -0.25218 -0.94222
vn 0.12322 -0.21396 -0.96904
vn -0.94782 0.02413 -0.31788
vn -0.96477 -0.03274 -0.26103
vn -0.90924 -0.29610 -0.29257
vn -0.89836 -0.24446 -0.36494
vn -0.51223 0.76316 -0.39396
vn -0.55212 0.77861 -0.29821
vn -0.68094 0.66067 -0.31597
vn -0.63366 0.64660 -0.42473
vn 0.01913 -0.15656 -0.98748
vn 0.55916 0.74620 -0.36128
vn 0.74381 0.56564 -0.35610
vn 0.76053 0.58351 -0.28481
vn 0.54212 0.78874 -0.28983
vn -0.83083 -0.19025 -0.52300
vn -0.94122 -0.23882 -0.23892
vn -0.95098 0.20996 -0.22707
vn -0.79787 0.11691 -0.59139
vn -0.39569 -0.10649 -0.91219
vn -0.51798 -0.49274 -0.69922
vn -0.60384 -0.74253 -0.28988
vn -0.28519 -0.61054 -0.73886
vn -0.29572 -0.75306 -0.58775
vn -0.01642 0.10042 -0.99481
vn -0.29603 -0.89544 -0.33251
vn -0.07626 -0.93603 -0.34356
vn 0.78683 -0.31936 -0.52811
vn 0.83165 -0.36867 -0.41527
vn 0.88609 -0.21041 -0.41300
vn 0.82545 -0.18186 -0.53438
vn -0.05379 0.82938 -0.55609
vn 0.29486 0.92935 -0.22218
vn 0.53679 0.80575 -0.25026
vn 0.36842 0.63426 -0.67969
vn -0.38698 0.64789 -0.65611
vn -0.58656 0.76755 -0.25849
vn -0.40811 0.88309 -0.23151
vn 0.04249 0.34484 -0.93770
vn 0.74670 0.57918 -0.32709
vn 0.76718 0.58516 -0.26271
vn 0.52015 0.81136 -0.26672
vn 0.37141 0.69905 -0.61105
vn 0.71019 -0.56997 -0.41323
vn 0.64004 -0.63532 -0.43211
vn 0.67382 -0.67422 -0.30231
vn 0.74613 -0.60114 -0.28624
vn 0.20042 0.53980 -0.81759
vn 0.64322 0.57832 -0.50181
vn 0.74366 0.62377 -0.24057
vn 0.95122 0.12100 -0.28379
vn 0.72990 0.20364 -0.65252
vn 0.36634 0.37234 -0.85274
vn 0.37370 0.75293 -0.54170
vn 0.37576 0.89921 -0.22410
vn -0.31424 -0.79001 -0.52643
vn -0.61478 -0.41098 -0.67316
vn -0.18009 -0.36779 -0.91230
vn 0.03124 -0.79585 -0.60468
vn -0.69715 -0.68398 -0.21482
vn -0.87125 -0.42467 -0.24611
vn 0.13450 -0.96394 -0.22962
vn -0.00832 -0.97791 -0.20885
vn -0.61043 0.53533 -0.58378
vn -0.71775 0.64759 -0.25587
vn -0.21139 0.93568 -0.28252
vn -0.24461 0.67312 -0.69790
vn -0.71744 0.11572 -0.68694
vn -0.96154 0.11934 -0.24739
vn -0.27744 0.15766 -0.94772
vn 0.50967 -0.62479 -0.59151
vn 0.59568 -0.75501 -0.27409
vn -0.01690 -0.95353 -0.30082
vn 0.04430 -0.68059 -0.73132
vn 0.67529 -0.32604 -0.66158
vn 0.89994 -0.34339 -0.26867
vn 0.16873 -0.27801 -0.94564
vn -0.92633 -0.05733 -0.37232
vn -0.89826 0.14387 -0.41525
vn -0.93876 0.16982 -0.29981
vn -0.96082 -0.03610 -0.27481
vn 0.08727 -0.83444 -0.54415
vn -0.25526 -0.74712 -0.61372
vn 0.01725 -0.46610 -0.88456
vn 0.38874 -0.62879 -0.67343
vn 0.10111 -0.96223 -0.25279
vn -0.38756 -0.88608 -0.25428
vn 0.58012 -0.76142 -0.28931
vn -0.76703 0.12815 -0.62869
vn -0.68106 -0.21886 -0.69875
vn -0.86960 -0.39955 -0.29011
vn -0.94305 0.15386 -0.29492
vn -0.62273 0.72217 -0.30113
vn -0.48847 0.48914 -0.72259
vn -0.31828 0.11936 -0.94045
vn 0.40485 0.74826 -0.52556
vn 0.46031 0.85911 -0.22370
vn 0.84420 0.48163 -0.23526
vn 0.63811 0.45816 -0.61879
vn -0.03684 0.73570 -0.67631
vn -0.12043 0.95736 -0.26261
vn 0.14960 0.36446 -0.91912
vn 0.81401 -0.29619 -0.49965
vn 0.73053 0.17293 -0.66062
vn 0.90582 0.34335 -0.24820
vn 0.97698 0.03158 -0.21099
vn 0.62754 -0.53197 -0.56851
vn 0.43103 -0.11097 -0.89549
vn 0.75432 -0.62659 -0.19592
vn 0.68727 -0.69449 -0.21293
vn 0.60036 -0.76517 -0.23256
vn 0.52761 -0.62360 -0.57685
vn 0.77466 -0.63238 -0.00000
vn 0.70420 -0.71000 0.00001
vn 0.61346 -0.78973 0.00002
vn 0.60473 -0.79643 0.00002
vn 0.59274 -0.77092 -0.23312
vn 0.61538 -0.78823 -0.00003
vn 0.62413 -0.78132 -0.00002
vn 0.61696 -0.76390 -0.18929
vn 0.60631 -0.76492 -0.21744
vn 0.54251 -0.68527 -0.48589
vn 0.52588 -0.66211 -0.53391
vn 0.51125 -0.64726 -0.56540
vn 0.21047 -0.36674 -0.90620
vn 0.22384 -0.32968 -0.91717
vn 0.27929 -0.26944 -0.92163
vn -0.27776 0.13064 -0.95173
vn -0.17473 0.18830 -0.96644
vn -0.66569 0.42847 -0.61096
vn -0.58974 0.47805 -0.65091
vn -0.82129 0.51064 -0.25444
vn -0.78258 0.56153 -0.26878
vn -0.85411 0.52010 -0.00001
vn -0.82123 0.57059 -0.00001
vn -0.61130 0.79140 -0.00003
vn -0.40841 0.91280 -0.00003
vn 0.29223 0.95635 -0.00005
vn 0.54931 0.83562 -0.00001
vn 0.93459 0.35573 0.00015
vn 0.99972 0.02370 0.00025
vn 0.62459 -0.78096 0.00001
vn 0.61992 -0.78466 -0.00003
vn 0.61961 -0.77535 -0.12212
vn 0.62151 -0.76798 -0.15469
vn 0.58916 -0.72702 -0.35260
vn 0.56740 -0.70573 -0.42427
vn 0.54734 -0.67331 -0.49706
vn 0.50098 -0.63731 -0.58554
vn 0.45873 -0.60322 -0.65245
vn -0.07706 -0.14274 -0.98676
vn -0.07119 -0.14595 -0.98673
vn -0.04467 -0.12367 -0.99132
vn -0.58399 0.35247 -0.73124
vn -0.64392 0.37712 -0.66569
vn -0.73606 0.45240 -0.50354
vn -0.70154 0.43818 -0.56200
vn -0.82566 0.52445 -0.20793
vn -0.82099 0.52067 -0.23427
vn -0.84516 0.53452 0.00001
vn -0.84662 0.53221 0.00001
vn -0.99272 -0.12045 0.00031
vn -0.91690 -0.39912 -0.00007
vn -0.91514 -0.37183 -0.15574
vn -0.98426 -0.10502 -0.14214
vn -0.43385 0.90098 0.00026
vn -0.44884 0.88190 -0.14418
vn -0.15088 0.97812 -0.14325
vn -0.12641 0.99198 -0.00011
vn 0.12828 0.93784 -0.32249
vn 0.17874 0.97204 -0.15228
vn 0.19774 0.98025 -0.00020
vn 0.19095 0.96159 -0.19720
vn 0.20109 0.97957 0.00008
vn -0.91511 0.40321 -0.00001
vn -0.97447 0.22452 -0.00001
vn -0.97072 0.20916 -0.11812
vn -0.90823 0.39854 -0.12761
vn -0.90884 0.38656 -0.15678
vn -0.91982 0.39233 -0.00005
vn -0.85436 0.37504 -0.35975
vn -0.81403 0.36946 -0.44816
vn -0.78738 0.33713 -0.51612
vn -0.91024 0.36657 -0.19258
vn -0.92597 0.37760 -0.00001
vn -0.90492 0.36342 -0.22145
vn -0.92538 0.37905 0.00006
vn 0.78271 0.62239 -0.00015
vn 0.78315 0.60525 -0.14261
vn 0.74356 -0.66867 0.00038
vn 0.75744 -0.64653 -0.09101
vn 0.69000 -0.71689 -0.09984
vn 0.68278 -0.73063 0.00016
vn 0.19531 0.97275 -0.12497
vn 0.21003 0.96721 -0.14278
vn 0.22382 0.93545 -0.27357
vn 0.18615 0.98252 -0.00027
vn 0.20240 0.97930 -0.00013
vn 0.21664 0.91498 -0.34042
vn 0.12249 0.70858 -0.69492
vn 0.16249 0.77496 -0.61077
vn 0.21834 0.96025 -0.17389
vn 0.20357 0.95921 -0.19613
vn 0.19179 0.89485 -0.40306
vn 0.21687 0.97620 -0.00001
vn 0.20458 0.97885 0.00001
vn 0.17588 0.98441 0.00001
vn 0.17652 0.96117 -0.21211
vn 0.15473 0.98796 -0.00001
vn 0.19238 0.98132 -0.00003
vn 0.19204 0.95467 -0.22744
vn 0.15422 0.96277 -0.22203
vn 0.19345 0.83466 -0.51568
vn 0.14974 0.86176 -0.48472
vn 0.16676 0.87727 -0.45011
vn 0.08373 0.55168 -0.82985
vn 0.07987 0.59287 -0.80132
vn 0.09070 0.64339 -0.76014
vn -0.11129 0.09184 -0.98953
vn -0.14869 0.10913 -0.98284
vn 0.02103 0.46663 -0.88420
vn -0.33905 -0.28175 -0.89759
vn -0.41135 -0.43201 -0.80260
vn -0.45605 -0.49854 -0.73720
vn -0.44547 -0.62715 -0.63894
vn -0.36016 -0.46923 -0.80630
vn 0.08077 0.56569 -0.82065
vn -0.56433 -0.72711 -0.39095
vn -0.53091 -0.77757 -0.33693
vn -0.59244 -0.78269 -0.19082
vn -0.56666 -0.80547 -0.17351
vn -0.30603 -0.93474 -0.18058
vn -0.58277 -0.81263 -0.00021
vn -0.31572 -0.94885 -0.00011
vn -0.03894 -0.99924 0.00019
vn -0.04534 -0.98097 -0.18879
vn 0.88977 -0.40934 -0.20187
vn 0.91439 -0.40482 -0.00071
vn 0.97365 -0.22803 -0.00045
vn 0.95227 -0.23202 -0.19836
vn 0.99934 -0.03642 -0.00009
vn 0.97993 -0.03478 -0.19628
vn 0.90467 -0.01874 -0.42570
vn 0.97668 -0.02558 -0.21318
vn 0.87879 0.00681 -0.47716
vn 0.77528 0.03296 -0.63076
vn 0.82406 -0.00394 -0.56649
vn -0.03256 0.20746 -0.97770
vn -0.02001 0.23303 -0.97226
vn -0.78657 0.34705 -0.51075
vn -0.70035 0.34412 -0.62537
vn -0.01784 0.19289 -0.98106
vn -0.35602 0.26575 -0.89589
vn -0.02035 0.12187 -0.99234
vn -0.34199 0.20333 -0.91744
vn -0.76896 0.31044 -0.55886
vn -0.33340 0.17381 -0.92663
vn -0.74981 0.31457 -0.58210
vn -0.89253 0.38476 -0.23527
vn -0.75035 0.28810 -0.59496
vn -0.89526 0.37690 -0.23759
vn -0.91945 0.39321 0.00000
vn -0.91619 0.40074 0.00002
vn 0.99950 -0.03164 -0.00002
vn 0.99952 -0.03088 -0.00003
vn 0.97184 -0.03077 -0.23363
vn 0.99980 -0.02004 -0.00001
vn 0.96616 -0.02679 -0.25653
vn 0.81242 -0.02405 -0.58258
vn 0.84775 -0.00921 -0.53032
vn 0.66683 -0.01386 -0.74508
vn 0.72402 0.01232 -0.68967
vn 0.96199 -0.02706 -0.27173
vn 0.78054 -0.03394 -0.62419
vn 0.30894 0.02538 -0.95074
vn 0.74793 -0.11280 -0.65412
vn 0.25970 -0.06059 -0.96379
vn -0.34625 0.10618 -0.93211
vn 0.95497 -0.10449 -0.27770
vn 0.99978 -0.02078 0.00000
vn 0.99488 -0.10104 -0.00001
vn 0.93449 -0.35598 0.00007
vn 0.61766 -0.78644 0.00015
vn -0.01224 -0.99993 0.00005
vn -0.62535 -0.78034 -0.00013
vn -0.96844 -0.24923 -0.00001
vn -0.97641 0.21594 0.00009
vn -0.60188 -0.79859 -0.00002
vn -0.59431 -0.77833 -0.20248
vn -0.60837 -0.79365 -0.00001
vn -0.59125 -0.77513 -0.22270
vn -0.61351 -0.78969 0.00000
vn -0.55001 -0.71081 -0.43845
vn -0.51795 -0.70114 -0.49004
vn -0.49707 -0.67874 -0.54059
vn -0.59444 -0.76669 -0.24253
vn -0.35000 -0.41171 -0.84142
vn -0.30100 -0.39406 -0.86840
vn -0.22400 -0.39248 -0.89207
vn -0.45732 -0.66755 -0.58757
vn -0.07562 0.06972 -0.99470
vn 0.00175 0.02719 -0.99963
vn 0.26125 -0.09132 -0.96094
vn 0.14418 0.49800 -0.85511
vn 0.64306 -0.25934 -0.72056
vn 0.87224 -0.36731 -0.32293
vn 0.91889 -0.39451 -0.00001
vn 0.59674 -0.80244 -0.00010
vn 0.99359 0.11307 -0.00024
vn 0.77438 0.63271 -0.00049
vn 0.38722 0.92199 -0.00023
vn -0.40352 -0.91497 -0.00005
vn -0.60864 -0.79345 -0.00001
vn -0.58151 -0.77224 -0.25591
vn 0.09515 -0.99546 -0.00009
vn -0.61997 -0.78462 0.00001
vn -0.99326 0.01134 -0.11533
vn -0.99932 0.03682 -0.00000
vn -0.23393 -0.96588 -0.11114
vn -0.21006 -0.97769 -0.00000
vn 0.05099 -0.99870 -0.00003
vn 0.03510 -0.99327 -0.11036
vn 0.02544 -0.96988 -0.24225
vn -0.23015 -0.94190 -0.24464
vn 0.29764 -0.94745 -0.11723
vn 0.27315 -0.92339 -0.26970
vn 0.25506 -0.89670 -0.36176
vn 0.03124 -0.94728 -0.31888
vn -0.20165 -0.92427 -0.32414
vn 0.25945 -0.89066 -0.37336
vn 0.23538 -0.83167 -0.50291
vn 0.21969 -0.15090 -0.96383
vn 0.21748 -0.07695 -0.97303
vn 0.09548 0.90278 -0.41937
vn 0.15187 0.80608 -0.57199
vn 0.16768 0.88280 -0.43880
vn 0.14586 0.69758 -0.70150
vn 0.16667 0.82331 -0.54256
vn 0.19817 0.95091 -0.23771
vn 0.15662 0.76339 -0.62666
vn 0.21830 0.93785 -0.26978
vn 0.23640 0.97166 -0.00000
vn 0.21356 0.97693 0.00005
vn 0.30599 -0.95203 0.00000
vn 0.30294 -0.95301 -0.00005
vn 0.29106 -0.94385 -0.15628
vn 0.30538 -0.95223 -0.00011
vn 0.28785 -0.93617 -0.20182
vn 0.24345 -0.84261 -0.48035
vn 0.31063 -0.92104 -0.23491
vn 0.24128 -0.79339 -0.55885
vn 0.14398 -0.38438 -0.91188
vn 0.20983 -0.74261 -0.63601
vn 0.16224 -0.06007 -0.98492
vn 0.10384 0.27963 -0.95447
vn 0.04987 -0.36480 -0.92975
vn -0.01986 0.22198 -0.97485
vn 0.04803 0.72385 -0.68829
vn 0.12851 0.94813 -0.29074
vn -0.21216 0.97724 0.00006
vn 0.14895 0.98884 0.00000
vn 0.33062 -0.94376 -0.00003
vn 0.32326 -0.94631 -0.00001
vn 0.30447 -0.92027 -0.24575
vn 0.13857 -0.99035 0.00011
vn 0.20716 -0.77251 -0.60027
vn -0.01966 -0.99981 0.00022
vn -0.71569 -0.69841 0.00021
vn -0.90258 -0.43053 0.00012
vn -0.99101 0.13380 0.00003
vn -0.92668 0.37586 0.00004
vn -0.45962 0.88811 0.00010
vn -0.74508 -0.64129 -0.18328
vn -0.73667 -0.57204 -0.36069
vn -0.74339 -0.66886 -0.00020
vn -0.64695 -0.59921 -0.47159
vn -0.59130 -0.53329 -0.60495
vn -0.71848 -0.52320 -0.45832
vn -0.70323 -0.67471 -0.22412
vn -0.68531 -0.68384 -0.25044
vn -0.58836 -0.57833 -0.56513
vn -0.71735 -0.69671 0.00003
vn -0.70468 -0.70953 -0.00000
vn -0.69557 -0.71846 -0.00002
vn -0.67718 -0.68397 -0.27133
vn -0.74199 -0.67041 -0.00001
vn -0.90672 -0.42174 -0.00031
vn -0.72103 -0.62929 -0.29001
vn -0.58790 -0.43896 -0.67948
vn -0.56301 -0.53253 -0.63201
vn -0.23239 -0.11801 -0.96544
vn -0.20093 -0.23651 -0.95063
vn -0.21619 -0.31947 -0.92260
vn 0.36796 0.04321 -0.92884
vn 0.08759 -0.11631 -0.98934
vn 0.09650 -0.14554 -0.98463
vn 0.81306 0.22411 -0.53731
vn 0.72374 0.16068 -0.67111
vn 0.84447 0.17241 -0.50709
vn 0.88254 0.22766 -0.41145
vn 0.90679 0.28932 -0.30662
vn 0.86759 0.30204 -0.39504
vn 0.10877 -0.18460 -0.97678
vn 0.95566 0.21762 -0.19837
vn 0.95433 0.25600 -0.15401
vn 0.78649 0.59917 -0.14977
vn 0.97147 0.23716 -0.00037
vn 0.96692 0.25506 -0.00045
vn 0.51642 0.85633 -0.00006
vn 0.51896 0.84128 -0.15146
vn -0.61449 0.77799 -0.13090
vn -0.64092 0.76761 -0.00039
vn -0.75934 0.65069 -0.00025
vn -0.74019 0.65916 -0.13278
vn -0.84902 0.52837 -0.00004
vn -0.83510 0.53009 -0.14701
vn -0.77644 0.51383 -0.36487
vn -0.82785 0.53181 -0.17845
vn -0.75735 0.48330 -0.43913
vn -0.68425 0.42742 -0.59086
vn -0.71812 0.48677 -0.49735
vn -0.04039 -0.14995 -0.98787
vn -0.84398 0.53637 -0.00000
vn 0.97803 0.20845 -0.00011
vn 0.95802 0.17282 -0.22878
vn 0.98568 0.16861 0.00003
vn 0.95871 0.13910 -0.24806
vn 0.99096 0.13416 0.00002
vn 0.80296 0.14441 -0.57828
vn 0.75222 0.22158 -0.62054
vn 0.94147 0.21761 -0.25744
vn 0.29184 0.13480 -0.94692
vn 0.86668 0.49887 0.00033
vn 0.97632 0.21633 -0.00001
vn 0.46807 0.88369 0.00054
vn -0.11905 0.99289 0.00016
vn -0.65231 0.75795 -0.00006
vn -0.86328 0.50472 -0.00012
vn -0.97924 -0.20269 -0.00061
vn -0.46693 -0.26812 -0.84267
vn 0.19283 0.03142 0.98073
vn 0.12566 -0.07362 0.98934
vn -0.06235 -0.14611 0.98730
vn -0.02498 -0.16030 0.98675
vn 0.35547 0.29089 0.88827
vn 0.42523 0.28290 0.85974
vn -0.12261 -0.25694 0.95862
vn -0.12015 -0.56284 0.81779
vn -0.17252 -0.60135 0.78014
vn -0.45575 0.85018 0.26362
vn -0.19660 0.94094 0.27565
vn -0.21486 0.91371 0.34493
vn -0.44564 0.83371 0.32610
vn 0.15799 -0.21063 0.96471
vn -0.16670 -0.25463 0.95256
vn -0.90212 -0.25801 0.34585
vn -0.91025 -0.30056 0.28479
vn -0.96729 -0.04305 0.25000
vn -0.95581 0.00145 0.29399
vn -0.63671 0.64591 0.42120
vn -0.68178 0.66019 0.31516
vn -0.55213 0.77902 0.29712
vn -0.51310 0.76474 0.38974
vn 0.02551 -0.14827 0.98862
vn 0.54113 0.78798 0.29370
vn 0.75824 0.58397 0.28992
vn 0.74040 0.56543 0.36345
vn 0.55708 0.74417 0.36860
vn -0.79970 0.11490 0.58930
vn -0.95088 0.20852 0.22879
vn -0.94088 -0.23693 0.24210
vn -0.83240 -0.18773 0.52140
vn -0.52250 -0.48957 0.69808
vn -0.39958 -0.10692 0.91044
vn -0.60575 -0.74011 0.29206
vn -0.28842 -0.75387 0.59034
vn -0.27093 -0.61571 0.73993
vn -0.01555 0.12061 0.99258
vn -0.07730 -0.93439 0.34778
vn -0.29562 -0.89410 0.33643
vn 0.82530 -0.17933 0.53546
vn 0.88591 -0.20939 0.41391
vn 0.83111 -0.36757 0.41732
vn 0.78532 -0.31694 0.53181
vn 0.36620 0.63910 0.67635
vn 0.53561 0.80611 0.25161
vn -0.05817 0.96751 0.24607
vn -0.05140 0.83161 0.55297
vn -0.58351 0.76880 0.26166
vn -0.38348 0.65188 0.65421
vn 0.04165 0.35025 0.93573
vn 0.38605 0.68862 0.61381
vn 0.51926 0.81117 0.26901
vn 0.76604 0.58463 0.26720
vn 0.74601 -0.60178 0.28520
vn 0.67428 -0.67378 0.30227
vn 0.64071 -0.63416 0.43282
vn 0.71005 -0.56980 0.41371
vn 0.22982 0.52110 0.82197
vn 0.73572 0.21053 0.64373
vn 0.95113 0.12130 0.28396
vn 0.74364 0.62357 0.24117
vn 0.64861 0.58321 0.48906
vn 0.37969 0.75659 0.53236
vn 0.37322 0.38040 0.84617
vn 0.37636 0.89883 0.22463
vn 0.02769 -0.79816 0.60180
vn -0.18152 -0.37263 0.91005
vn -0.61422 -0.41636 0.67036
vn -0.31493 -0.79232 0.52255
vn -0.87041 -0.42576 0.24721
vn -0.69472 -0.68582 0.21683
vn -0.01235 -0.97708 0.21252
vn 0.13260 -0.96375 0.23153
vn -0.25085 0.67361 0.69522
vn -0.21370 0.93425 0.28550
vn -0.71788 0.64599 0.25952
vn -0.61281 0.53605 0.58062
vn -0.96098 0.12057 0.24894
vn -0.71922 0.12087 0.68419
vn -0.28216 0.16223 0.94555
vn 0.04939 -0.68152 0.73013
vn -0.01447 -0.95277 0.30333
vn 0.59589 -0.75351 0.27775
vn 0.51161 -0.62489 0.58972
vn 0.89883 -0.34472 0.27069
vn 0.67532 -0.32956 0.65980
vn 0.17155 -0.28117 0.94420
vn -0.96215 -0.03718 0.26996
vn -0.93966 0.16737 0.29837
vn -0.90012 0.13944 0.41272
vn -0.92935 -0.06017 0.36425
vn 0.38303 -0.63451 0.67133
vn 0.01847 -0.47265 0.88106
vn -0.25221 -0.75185 0.60919
vn 0.08163 -0.83729 0.54063
vn -0.38664 -0.88624 0.25511
vn 0.09595 -0.96153 0.25741
vn 0.57539 -0.76335 0.29363
vn -0.94236 0.15180 0.29818
vn -0.86966 -0.39910 0.29054
vn -0.68664 -0.21735 0.69375
vn -0.77179 0.12623 0.62323
vn -0.49637 0.48637 0.71907
vn -0.62428 0.71990 0.30333
vn -0.32584 0.12025 0.93775
vn 0.63911 0.46316 0.61402
vn 0.84287 0.48285 0.23754
vn 0.46154 0.85717 0.22856
vn 0.40957 0.74931 0.52037
vn -0.11742 0.95701 0.26523
vn -0.02973 0.73922 0.67281
vn 0.15392 0.37039 0.91603
vn 0.92235 -0.31774 0.21980
vn 0.90623 0.34104 0.24988
vn 0.73418 0.16815 0.65780
vn 0.81552 -0.29845 0.49583
vn 0.43552 -0.11362 0.89298
vn 0.63075 -0.53163 0.56526
vn 0.68832 -0.69292 0.21466
vn 0.52759 -0.62354 0.57693
vn 0.60025 -0.76524 0.23261
vn 0.59289 -0.77074 0.23335
vn 0.60602 -0.76516 0.21741
vn 0.61715 -0.76379 0.18908
vn 0.52512 -0.66307 0.53347
vn 0.54277 -0.68529 0.48557
vn 0.51126 -0.64722 0.56543
vn 0.22387 -0.32975 0.91714
vn 0.20996 -0.36773 0.90592
vn 0.27940 -0.26927 0.92165
vn -0.17432 0.18861 0.96646
vn -0.27741 0.13114 0.95176
vn -0.58884 0.47857 0.65134
vn -0.66568 0.42865 0.61085
vn -0.78225 0.56183 0.26914
vn -0.82143 0.51048 0.25429
vn 0.62159 -0.76790 0.15476
vn 0.61919 -0.77565 0.12237
vn 0.56714 -0.70583 0.42444
vn 0.58865 -0.72711 0.35327
vn 0.50032 -0.63764 0.58574
vn 0.54684 -0.67316 0.49781
vn 0.45899 -0.60331 0.65218
vn -0.07723 -0.14296 0.98671
vn -0.07149 -0.14623 0.98666
vn -0.04476 -0.12378 0.99130
vn -0.70165 0.43820 0.56184
vn -0.73538 0.45309 0.50390
vn -0.64263 0.37867 0.66606
vn -0.58436 0.35225 0.73105
vn -0.82089 0.52085 0.23422
vn -0.82570 0.52432 0.20812
vn -0.98415 -0.10383 0.14375
vn -0.91534 -0.37045 0.15784
vn -0.15173 0.97784 0.14425
vn -0.44888 0.88191 0.14402
vn 0.17696 0.97218 0.15347
vn 0.12595 0.93722 0.32521
vn 0.19112 0.96158 0.19705
vn -0.90800 0.39895 0.12796
vn -0.97081 0.20883 0.11801
vn -0.90874 0.38669 0.15702
vn -0.81298 0.37117 0.44866
vn -0.85360 0.37535 0.36123
vn -0.91060 0.36541 0.19311
vn -0.78746 0.33664 0.51631
vn -0.90503 0.36298 0.22173
vn 0.78331 0.60496 0.14301
vn 0.69014 -0.71679 0.09957
vn 0.75743 -0.64667 0.09004
vn 0.22416 0.93543 0.27335
vn 0.20974 0.96722 0.14316
vn 0.19532 0.97267 0.12554
vn 0.16442 0.77462 0.61068
vn 0.12438 0.70859 0.69458
vn 0.21836 0.91451 0.34056
vn 0.21844 0.96021 0.17403
vn 0.19284 0.89459 0.40314
vn 0.20428 0.95902 0.19632
vn 0.17676 0.96112 0.21216
vn 0.15418 0.96278 0.22198
vn 0.19223 0.95461 0.22751
vn 0.15113 0.86125 0.48520
vn 0.19422 0.83439 0.51581
vn 0.16723 0.87719 0.45009
vn 0.08102 0.59245 0.80152
vn 0.08597 0.55057 0.83035
vn 0.09077 0.64355 0.76000
vn -0.15035 0.10985 0.98251
vn -0.11096 0.09164 0.98959
vn 0.02106 0.46763 0.88367
vn -0.45730 -0.49778 0.73695
vn -0.41387 -0.43092 0.80189
vn -0.33844 -0.28257 0.89756
vn -0.35629 -0.47157 0.80665
vn -0.44417 -0.62710 0.63989
vn 0.08291 0.56434 0.82137
vn -0.53127 -0.77648 0.33888
vn -0.56617 -0.72577 0.39077
vn -0.56671 -0.80526 0.17437
vn -0.59281 -0.78242 0.19076
vn -0.30565 -0.93463 0.18181
vn -0.04494 -0.98087 0.18943
vn 0.95237 -0.23169 0.19827
vn 0.89017 -0.40879 0.20124
vn 0.97988 -0.03448 0.19660
vn 0.90473 -0.01861 0.42557
vn 0.87896 0.00765 0.47683
vn 0.97673 -0.02470 0.21304
vn 0.82470 -0.00398 0.56556
vn 0.77558 0.03273 0.63040
vn -0.03249 0.20749 0.97770
vn -0.01998 0.23309 0.97225
vn -0.69828 0.34770 0.62571
vn -0.78531 0.34680 0.51286
vn -0.35592 0.26655 0.89570
vn -0.01792 0.19253 0.98113
vn -0.34205 0.20336 0.91742
vn -0.02041 0.12178 0.99235
vn -0.76899 0.31013 0.55900
vn -0.74989 0.31403 0.58229
vn -0.33337 0.17302 0.92678
vn -0.89249 0.38490 0.23517
vn -0.89523 0.37697 0.23759
vn -0.75039 0.28797 0.59497
vn 0.97180 -0.03084 0.23379
vn 0.96611 -0.02709 0.25669
vn 0.84754 -0.00925 0.53065
vn 0.81187 -0.02566 0.58328
vn 0.72375 0.01251 0.68995
vn 0.66574 -0.01637 0.74600
vn 0.78064 -0.03337 0.62409
vn 0.96206 -0.02674 0.27153
vn 0.30889 0.02557 0.95075
vn 0.26000 -0.05932 0.96378
vn 0.74809 -0.11155 0.65416
vn -0.34633 0.10586 0.93212
vn 0.95491 -0.10463 0.27784
vn -0.59405 -0.77846 0.20273
vn -0.59117 -0.77518 0.22274
vn -0.55079 -0.71033 0.43825
vn -0.51753 -0.70131 0.49023
vn -0.59490 -0.76645 0.24217
vn -0.49767 -0.67853 0.54030
vn -0.35012 -0.41152 0.84147
vn -0.30117 -0.39394 0.86840
vn -0.45817 -0.66716 0.58735
vn -0.22460 -0.39209 0.89209
vn -0.07497 0.06940 0.99477
vn 0.00165 0.02728 0.99963
vn 0.26022 -0.09067 0.96128
vn 0.14470 0.49789 0.85508
vn 0.64313 -0.25908 0.72060
vn 0.87246 -0.36710 0.32258
vn -0.58170 -0.77219 0.25565
vn -0.99334 0.01133 0.11462
vn 0.03534 -0.99325 0.11049
vn -0.23424 -0.96570 0.11207
vn -0.22543 -0.94104 0.25225
vn 0.02713 -0.96895 0.24575
vn 0.27475 -0.92295 0.26958
vn 0.29855 -0.94721 0.11689
vn 0.03468 -0.94503 0.32515
vn 0.25605 -0.89626 0.36216
vn -0.19051 -0.92198 0.33712
vn 0.24150 -0.83000 0.50277
vn 0.26204 -0.88980 0.37362
vn 0.22103 -0.14836 0.96392
vn 0.21632 -0.07723 0.97326
vn 0.16877 0.88264 0.43871
vn 0.15303 0.80569 0.57223
vn 0.09450 0.90161 0.42210
vn 0.16417 0.82295 0.54388
vn 0.14006 0.69684 0.70342
vn 0.19843 0.95078 0.23798
vn 0.21716 0.93793 0.27044
vn 0.15680 0.76270 0.62746
vn 0.29061 -0.94394 0.15658
vn 0.28767 -0.93628 0.20155
vn 0.24329 -0.84233 0.48093
vn 0.24256 -0.79310 0.55871
vn 0.31149 -0.92093 0.23424
vn 0.21038 -0.74131 0.63734
vn 0.14431 -0.38386 0.91204
vn 0.16263 -0.06004 0.98486
vn 0.10531 0.27910 0.95447
vn -0.01765 0.22266 0.97474
vn 0.05094 -0.36490 0.92965
vn 0.04972 0.72401 0.68799
vn 0.12806 0.94802 0.29129
vn 0.30459 -0.92027 0.24561
vn 0.20829 -0.77256 0.59981
vn -0.73835 -0.57120 0.35857
vn -0.74469 -0.64147 0.18425
vn -0.72274 -0.52273 0.45212
vn -0.59565 -0.52725 0.60598
vn -0.64911 -0.59649 0.47208
vn -0.70311 -0.67486 0.22404
vn -0.58900 -0.57715 0.56566
vn -0.68621 -0.68277 0.25089
vn -0.67732 -0.68378 0.27145
vn -0.72081 -0.62987 0.28931
vn -0.58842 -0.43875 0.67916
vn -0.56328 -0.53262 0.63169
vn -0.20117 -0.23684 0.95049
vn -0.23287 -0.11685 0.96546
vn -0.21625 -0.31915 0.92270
vn 0.08721 -0.11567 0.98945
vn 0.36863 0.04301 0.92858
vn 0.09644 -0.14543 0.98466
vn 0.88381 0.22512 0.41012
vn 0.84636 0.16827 0.50533
vn 0.72818 0.15321 0.66804
vn 0.81467 0.22220 0.53567
vn 0.86490 0.30511 0.39858
vn 0.90544 0.29062 0.30940
vn 0.10858 -0.18503 0.97672
vn 0.95453 0.25490 0.15459
vn 0.95620 0.21581 0.19777
vn 0.78620 0.59926 0.15091
vn 0.51895 0.84127 0.15150
vn -0.73990 0.65930 0.13368
vn -0.61439 0.77795 0.13165
vn -0.83512 0.52990 0.14761
vn -0.77703 0.51324 0.36444
vn -0.75733 0.48342 0.43904
vn -0.82848 0.53082 0.17848
vn -0.71970 0.48636 0.49545
vn -0.68303 0.42964 0.59067
vn -0.04031 -0.15001 0.98786
vn 0.95802 0.17267 0.22886
vn 0.95861 0.13948 0.24824
vn 0.80332 0.14446 0.57777
vn 0.94156 0.21736 0.25735
vn 0.75187 0.22228 0.62071
vn 0.29136 0.13589 0.94691
f 1//1 17//2 18//2 3//3
f 1//1 3//3 7//4 19//5
f 1//6 19//7 5//8 12//9
f 2//10 20//11 21//12 22//13
f 2//14 12//9 23//15 20//15
f 2//16 22//17 24//18 17//19
f 3//20 25//21 26//22 27//23
f 3//3 27//24 28//24 7//4
f 3//25 18//26 29//27 25//28
f 4//29 30//30 31//31 32//32
f 4//29 32//32 33//33 34//34
f 4//29 34//34 35//35 30//30
f 5//8 19//7 36//36 37//37
f 5//8 38//38 39//38 12//9
f 5//8 37//37 40//39 41//40
f 5//41 41//42 42//43 38//44
f 6//45 43//46 44//47 45//48
f 6//45 46//49 47//50 43//51
f 6//45 45//48 48//52 46//49
f 7//53 49//54 50//55 51//56
f 7//57 28//58 52//59 49//60
f 7//4 51//56 36//61 19//5
f 8//62 53//63 54//64 55//65
f 8//62 55//65 56//66 57//67
f 8//62 57//67 58//68 53//63
f 9//69 59//70 60//71 61//72
f 9//69 62//73 63//74 59//70
f 9//69 61//72 64//75 62//76
f 10//77 65//78 66//79 67//80
f 10//77 68//81 69//82 65//78
f 10//77 67//80 70//83 68//81
f 11//84 71//85 72//86 73//87
f 11//84 74//88 75//89 71//85
f 11//84 73//87 76//90 74//88
f 12//91 39//92 77//93 78//94
f 13//95 79//96 80//97 81//98
f 13//95 82//99 83//100 79//96
f 13//95 81//98 84//101 82//99
f 14//102 85//103 86//104 87//105
f 14//102 87//105 88//106 89//107
f 14//102 89//107 90//108 85//103
f 15//109 91//110 92//111 93//112
f 15//109 94//113 95//114 91//110
f 15//109 93//112 96//115 94//113
f 16//116 97//117 98//118 99//119
f 16//116 100//120 101//121 97//117
f 16//116 99//122 102//123 100//120
f 102//123 103//124 104//125 100//120
f 102//123 99//122 353//126 354//127
f 102//123 354//127 105//128 103//124
f 105//128 106//129 107//130 103//124
f 108//131 355//132 109//133 110//134
f 108//131 110//134 107//130 106//129
f 110//134 109//133 111//135 112//136
f 110//134 112//136 113//137 107//130
f 113//137 112//136 114//138 115//139
f 113//137 115//139 116//140 104//125
f 113//137 104//125 103//124 107//130
f 116//140 115//139 117//141 118//142
f 116//140 118//142 48//52 101//121
f 116//140 101//121 100//120 104//125
f 118//142 117//141 119//143 120//144
f 118//142 120//144 46//49 48//52
f 120//144 119//143 121//145 122//146
f 120//144 122//146 47//50 46//49
f 122//146 121//145 356//147 123//148
f 122//146 123//148 124//149 47//50
f 124//149 357//150 43//51 47//50
f 357//151 358//152 44//47 43//46
f 358//152 125//153 98//118 44//47
f 125//153 353//154 99//119 98//118
f 126//155 359//156 127//157 128//158
f 126//155 128//158 109//133 355//132
f 128//158 127//157 129//159 130//160
f 128//158 130//160 111//135 109//133
f 130//160 129//159 131//161 132//162
f 130//160 132//162 133//163 111//135
f 133//164 132//165 134//165 135//164
f 133//164 135//164 136//166 114//138
f 133//163 114//138 112//136 111//135
f 136//167 135//168 137//169 138//170
f 136//167 138//170 119//143 117//141
f 136//166 117//141 115//139 114//138
f 138//170 137//169 139//171 140//172
f 138//170 140//172 121//145 119//143
f 140//172 139//171 141//173 142//174
f 140//172 142//174 356//147 121//145
f 147//175 146//176 149//177 150//178
f 147//179 150//180 151//181 148//182
f 151//181 150//180 22//13 21//12
f 151//181 21//12 152//183 153//184
f 151//181 153//184 154//185 148//182
f 154//185 153//184 155//186 156//187
f 160//188 159//189 161//190 162//191
f 160//188 162//191 163//192 360//193
f 163//192 162//191 164//194 165//195
f 163//192 165//195 166//196 167//197
f 163//192 167//197 361//198 360//193
f 361//198 167//197 168//199 169//200
f 175//201 362//201 176//202 177//202
f 175//203 177//204 178//205 363//206
f 178//205 177//204 49//60 52//59
f 178//205 52//59 129//159 127//157
f 178//205 127//157 359//156 363//206
f 177//202 176//202 50//55 49//54
f 176//207 179//208 180//209 50//55
f 176//207 362//210 364//211 179//208
f 180//209 181//212 182//213 183//214
f 180//209 183//214 51//56 50//55
f 180//209 179//208 184//215 181//212
f 184//215 185//216 186//217 181//212
f 184//215 179//208 364//211 365//218
f 184//215 365//218 366//219 185//216
f 366//219 187//220 188//221 185//216
f 189//222 367//223 190//224 191//225
f 189//222 191//225 188//221 187//220
f 191//225 190//224 192//226 193//227
f 191//225 193//227 194//228 188//221
f 194//228 193//227 195//229 196//230
f 194//228 196//230 197//231 186//217
f 194//228 186//217 185//216 188//221
f 197//231 196//230 198//232 199//233
f 197//231 199//233 200//234 182//213
f 197//231 182//213 181//212 186//217
f 200//235 199//233 201//236 202//237
f 200//235 202//237 203//238 204//239
f 200//234 204//240 183//214 182//213
f 204//239 203//238 37//37 36//36
f 204//240 36//61 51//56 183//214
f 203//238 202//237 205//241 206//242
f 203//238 206//242 40//39 37//37
f 206//242 205//241 207//243 208//244
f 206//242 208//244 209//245 40//39
f 209//245 208//244 174//246 173//247
f 209//245 173//247 172//248 210//249
f 209//245 210//249 41//40 40//39
f 210//250 172//251 171//252 211//253
f 210//250 211//253 42//43 41//42
f 211//253 171//252 170//254 212//255
f 211//253 212//255 213//256 42//43
f 213//256 212//255 214//257 215//258
f 213//256 215//258 216//259 217//260
f 213//256 217//260 38//44 42//43
f 217//261 216//262 218//262 219//261
f 217//261 219//261 39//38 38//38
f 219//263 218//264 165//195 164//194
f 219//263 164//194 77//93 39//92
f 218//262 216//262 220//265 221//266
f 218//264 221//266 166//196 165//195
f 221//266 220//265 222//267 223//268
f 221//266 223//268 224//269 166//196
f 224//269 223//268 225//270 226//271
f 224//269 226//271 227//272 168//199
f 224//269 168//199 167//197 166//196
f 227//272 226//271 228//273 229//274
f 227//272 229//274 368//275 230//276
f 227//272 230//276 169//200 168//199
f 370//277 369//278 231//279 214//257
f 370//277 214//257 212//255 170//254
f 231//279 369//278 371//280 232//281
f 231//279 232//281 233//282 234//283
f 231//279 234//283 215//258 214//257
f 234//283 233//282 222//284 220//285
f 234//283 220//285 216//259 215//258
f 233//282 232//281 235//286 236//287
f 233//282 236//287 237//288 222//284
f 237//288 236//287 238//289 239//290
f 237//288 239//290 240//291 225//270
f 237//288 225//270 223//268 222//267
f 240//291 239//290 76//90 33//33
f 240//291 33//33 32//32 228//273
f 240//291 228//273 226//271 225//270
f 239//290 238//289 74//88 76//90
f 238//289 236//287 235//286 241//292
f 238//289 241//292 75//89 74//88
f 241//292 235//286 372//293 373//294
f 241//292 373//294 242//295 75//89
f 242//295 243//296 71//85 75//89
f 243//296 374//297 72//86 71//85
f 374//297 375//298 35//35 72//86
f 375//298 244//299 30//30 35//35
f 244//299 376//300 31//31 30//30
f 376//300 368//275 229//274 31//31
f 372//293 235//286 232//281 371//280
f 229//274 228//273 32//32 31//31
f 208//244 207//243 377//301 174//246
f 377//301 207//243 245//302 378//303
f 245//302 246//304 379//305 378//303
f 245//302 207//243 205//241 247//306
f 245//302 247//306 248//307 246//304
f 248//307 249//308 250//309 246//304
f 248//307 247//306 201//236 251//310
f 248//307 251//310 252//311 249//308
f 252//311 253//312 254//313 249//308
f 252//311 251//310 198//232 255//314
f 252//311 255//314 256//315 253//312
f 256//315 257//316 80//97 253//312
f 256//315 255//314 195//229 258//317
f 256//315 258//317 56//66 257//316
f 258//317 195//229 193//227 192//226
f 258//317 192//226 57//67 56//66
f 257//316 259//318 81//98 80//97
f 257//316 56//66 55//65 259//318
f 259//318 260//319 84//101 81//98
f 259//318 55//65 54//64 260//319
f 260//319 261//320 380//321 84//101
f 260//319 54//64 262//322 261//320
f 262//322 54//64 53//63 381//323
f 381//323 53//63 58//68 382//324
f 382//324 58//68 190//224 367//223
f 264//325 263//326 265//327 83//100
f 264//325 83//100 82//99 266//328
f 266//328 82//99 84//101 380//321
f 265//327 263//326 383//329 250//309
f 265//327 250//309 249//308 254//313
f 265//327 254//313 79//96 83//100
f 383//329 379//305 246//304 250//309
f 255//314 198//232 196//230 195//229
f 254//313 253//312 80//97 79//96
f 251//310 201//236 199//233 198//232
f 247//306 205//241 202//237 201//236
f 192//226 190//224 58//68 57//67
f 164//194 162//191 161//190 77//93
f 161//190 267//330 78//94 77//93
f 161//190 159//189 158//331 267//330
f 267//332 158//333 157//334 268//335
f 267//332 268//335 269//336 78//337
f 269//336 268//335 270//338 271//339
f 269//336 271//339 272//340 23//341
f 269//336 23//341 12//342 78//337
f 272//340 271//339 273//343 274//344
f 272//345 274//346 275//346 276//345
f 272//345 276//345 20//15 23//15
f 276//347 275//348 277//349 152//183
f 276//347 152//183 21//12 20//11
f 277//349 275//348 278//350 279//351
f 277//349 279//351 280//352 155//186
f 277//349 155//186 153//184 152//183
f 280//352 279//351 281//353 282//354
f 280//352 282//354 283//355 284//356
f 280//352 284//356 156//187 155//186
f 285//357 384//358 286//359 270//338
f 285//357 270//338 268//335 157//334
f 286//359 384//358 385//360 287//361
f 286//359 287//361 288//362 273//343
f 286//359 273//343 271//339 270//338
f 288//362 287//361 289//363 290//364
f 288//362 290//364 291//365 292//366
f 288//362 292//366 274//344 273//343
f 292//367 291//365 293//368 278//367
f 292//367 278//367 275//346 274//346
f 293//368 291//365 294//369 295//370
f 293//368 295//370 296//371 281//353
f 293//368 281//353 279//351 278//350
f 296//371 295//370 70//83 67//80
f 296//371 67//80 66//79 297//372
f 296//371 297//372 282//354 281//353
f 297//372 66//79 386//373 298//374
f 297//372 298//374 283//355 282//354
f 300//375 387//376 301//377 289//363
f 300//375 289//363 287//361 385//360
f 301//377 387//376 299//378 64//75
f 301//377 64//75 61//72 302//379
f 301//377 302//379 290//364 289//363
f 302//379 61//72 60//71 294//369
f 302//379 294//369 291//365 290//364
f 299//378 303//380 62//76 64//75
f 303//381 304//382 63//74 62//73
f 304//382 305//383 69//82 63//74
f 305//383 388//384 65//78 69//82
f 388//385 386//373 66//79 65//78
f 295//370 294//369 60//71 70//83
f 150//178 149//177 24//18 22//17
f 149//177 306//386 307//387 24//18
f 149//177 146//176 389//388 306//386
f 307//387 308//389 309//390 310//391
f 307//387 310//391 17//19 24//18
f 307//387 306//386 311//392 308//389
f 311//392 312//393 313//394 308//389
f 311//392 306//386 389//388 390//395
f 311//392 390//395 314//396 312//393
f 314//396 315//397 316//398 312//393
f 317//399 391//400 86//104 318//401
f 317//399 318//401 316//398 315//397
f 318//401 86//104 85//103 319//402
f 318//401 319//402 320//403 316//398
f 320//403 319//402 321//404 322//405
f 320//403 322//405 323//406 313//394
f 320//403 313//394 312//393 316//398
f 323//406 322//405 324//407 325//408
f 323//406 325//408 326//409 309//409
f 323//406 309//390 308//389 313//394
f 326//410 325//411 327//412 328//413
f 326//410 328//413 329//414 330//415
f 326//409 330//416 310//416 309//409
f 330//415 329//414 29//27 18//26
f 330//416 18//2 17//2 310//416
f 329//414 328//413 331//417 332//418
f 329//414 332//418 333//419 29//27
f 333//419 332//418 145//420 144//421
f 333//419 144//422 143//422 334//423
f 333//419 334//423 25//28 29//27
f 334//424 143//425 392//426 335//427
f 334//424 335//427 26//22 25//21
f 335//427 392//426 393//428 336//429
f 335//427 336//429 337//430 26//22
f 337//430 336//429 338//431 339//432
f 337//430 339//432 134//433 340//434
f 337//430 340//434 27//23 26//22
f 340//435 134//165 132//165 131//435
f 340//435 131//435 28//24 27//24
f 339//432 338//431 139//171 137//169
f 339//432 137//169 135//168 134//433
f 338//431 336//429 393//428 394//436
f 338//431 394//436 141//173 139//171
f 332//418 331//417 341//437 145//420
f 341//437 331//417 343//438 342//439
f 343//438 344//440 345//441 342//439
f 343//438 331//417 328//413 327//412
f 343//438 327//412 346//442 344//440
f 346//442 347//443 348//444 344//440
f 346//442 327//412 325//411 324//407
f 346//442 324//407 349//445 347//443
f 349//445 96//115 93//112 347//443
f 349//445 324//407 322//405 321//404
f 349//445 321//404 90//108 96//115
f 348//444 92//111 395//446 350//447
f 348//444 350//447 345//441 344//440
f 348//444 347//443 93//112 92//111
f 395//446 92//111 91//110 396//448
f 396//448 91//110 95//114 351//449
f 351//449 95//114 88//106 352//450
f 352//450 88//106 87//105 397//451
f 397//452 87//105 86//104 391//400
f 321//404 319//402 85//103 90//108
f 131//161 129//159 52//59 28//58
f 101//121 48//52 45//48 97//117
f 98//118 97//117 45//48 44//47
f 96//115 90//108 89//107 94//113
f 95//114 94//113 89//107 88//106
f 76//90 73//87 34//34 33//33
f 73//87 72//86 35//35 34//34
f 70//83 60//71 59//70 68//81
f 69//82 68//81 59//70 63//74
f 12//9 2//14 17//453 1//6
f 400//454 415//455 414//456 398//457
f 416//458 404//459 400//454 398//457
f 409//460 402//461 416//462 398//457
f 419//463 418//464 417//465 399//466
f 417//467 420//467 409//460 399//468
f 414//469 421//470 419//471 399//472
f 424//473 423//474 422//475 400//476
f 404//459 425//477 424//477 400//454
f 422//478 426//479 415//480 400//481
f 429//482 428//483 427//484 401//485
f 431//486 430//487 429//482 401//485
f 427//484 432//488 431//486 401//485
f 434//489 433//490 416//462 402//461
f 409//460 436//491 435//491 402//461
f 438//492 437//493 434//489 402//461
f 435//494 439//495 438//496 402//497
f 442//498 441//499 440//500 403//501
f 440//500 444//502 443//503 403//501
f 443//503 445//504 442//498 403//501
f 448//505 447//506 446//507 404//459
f 446//508 449//509 425//510 404//511
f 416//458 433//512 448//505 404//459
f 452//513 451//514 450//515 405//516
f 454//517 453//518 452//513 405//516
f 450//515 455//519 454//517 405//516
f 458//520 457//521 456//522 406//523
f 456//522 460//524 459//525 406//523
f 459//526 461//527 458//520 406//523
f 464//528 463//529 462//530 407//531
f 462//530 466//532 465//533 407//531
f 465//533 467//534 464//528 407//531
f 470//535 469//536 468//537 408//538
f 468//537 472//539 471//540 408//538
f 471//540 473//541 470//535 408//538
f 475//542 474//543 436//544 409//545
f 478//546 477//547 476//548 410//549
f 476//548 480//550 479//551 410//549
f 479//551 481//552 478//546 410//549
f 484//553 483//554 482//555 411//556
f 486//557 485//558 484//553 411//556
f 482//555 487//559 486//557 411//556
f 490//560 489//561 488//562 412//563
f 488//562 492//564 491//565 412//563
f 491//565 493//566 490//560 412//563
f 496//567 495//568 494//569 413//570
f 494//569 498//571 497//572 413//570
f 497//572 499//573 496//567 413//570
f 497//572 501//574 500//575 499//573
f 354//127 353//126 496//567 499//573
f 500//575 105//128 354//127 499//573
f 500//575 502//576 106//129 105//128
f 504//577 503//578 355//132 108//131
f 106//129 502//576 504//577 108//131
f 506//579 505//580 503//578 504//577
f 502//576 507//581 506//579 504//577
f 509//582 508//583 506//579 507//581
f 501//574 510//584 509//582 507//581
f 502//576 500//575 501//574 507//581
f 512//585 511//586 509//582 510//584
f 498//571 445//504 512//585 510//584
f 501//574 497//572 498//571 510//584
f 514//587 513//588 511//586 512//585
f 445//504 443//503 514//587 512//585
f 516//589 515//590 513//588 514//587
f 443//503 444//502 516//589 514//587
f 123//148 356//147 515//590 516//589
f 444//502 124//149 123//148 516//589
f 444//502 440//500 357//150 124//149
f 440//500 441//499 358//152 357//151
f 441//499 495//568 125//153 358//152
f 495//568 496//567 353//154 125//153
f 518//591 517//592 359//156 126//155
f 355//132 503//578 518//591 126//155
f 520//593 519//594 517//592 518//591
f 503//578 505//580 520//593 518//591
f 522//595 521//596 519//594 520//593
f 505//580 523//597 522//595 520//593
f 525//598 524//599 522//599 523//598
f 508//583 526//600 525//598 523//598
f 505//580 506//579 508//583 523//597
f 528//601 527//602 525//603 526//604
f 511//586 513//588 528//601 526//604
f 508//583 509//582 511//586 526//600
f 530//605 529//606 527//602 528//601
f 513//588 515//590 530//605 528//601
f 142//174 141//173 529//606 530//605
f 515//590 356//147 142//174 530//605
f 532//607 531//608 146//176 147//175
f 148//182 533//609 532//610 147//179
f 418//464 419//463 532//610 533//609
f 535//611 534//612 418//464 533//609
f 148//182 154//185 535//611 533//609
f 156//187 536//613 535//611 154//185
f 538//614 537//615 159//189 160//188
f 360//193 539//616 538//614 160//188
f 541//617 540//618 538//614 539//616
f 543//619 542//620 541//617 539//616
f 360//193 361//198 543//619 539//616
f 169//200 544//621 543//619 361//198
f 546//622 545//622 362//201 175//201
f 363//206 547//623 546//624 175//203
f 449//509 446//508 546//624 547//623
f 517//592 519//594 449//509 547//623
f 363//206 359//156 517//592 547//623
f 446//507 447//506 545//622 546//622
f 447//506 549//625 548//626 545//627
f 548//626 364//211 362//210 545//627
f 552//628 551//629 550//630 549//625
f 447//506 448//505 552//628 549//625
f 550//630 553//631 548//626 549//625
f 550//630 555//632 554//633 553//631
f 365//218 364//211 548//626 553//631
f 554//633 366//219 365//218 553//631
f 554//633 556//634 187//220 366//219
f 558//635 557//636 367//223 189//222
f 187//220 556//634 558//635 189//222
f 560//637 559//638 557//636 558//635
f 556//634 561//639 560//637 558//635
f 563//640 562//641 560//637 561//639
f 555//632 564//642 563//640 561//639
f 556//634 554//633 555//632 561//639
f 566//643 565//644 563//640 564//642
f 551//629 567//645 566//643 564//642
f 555//632 550//630 551//629 564//642
f 569//646 568//647 566//643 567//648
f 571//649 570//650 569//646 567//648
f 551//629 552//628 571//651 567//645
f 433//490 434//489 570//650 571//649
f 552//628 448//505 433//512 571//651
f 573//652 572//653 569//646 570//650
f 434//489 437//493 573//652 570//650
f 575//654 574//655 572//653 573//652
f 437//493 576//656 575//654 573//652
f 173//247 174//246 575//654 576//656
f 577//657 172//248 173//247 576//656
f 437//493 438//492 577//657 576//656
f 578//658 171//252 172//251 577//659
f 438//496 439//495 578//658 577//659
f 579//660 170//254 171//252 578//658
f 439//495 580//661 579//660 578//658
f 582//662 581//663 579//660 580//661
f 584//664 583//665 582//662 580//661
f 439//495 435//494 584//664 580//661
f 586//666 585//667 583//667 584//666
f 435//491 436//491 586//666 584//666
f 540//618 541//617 585//668 586//669
f 436//544 474//543 540//618 586//669
f 588//670 587//671 583//667 585//667
f 541//617 542//620 588//670 585//668
f 590//672 589//673 587//671 588//670
f 542//620 591//674 590//672 588//670
f 593//675 592//676 590//672 591//674
f 544//621 594//677 593//675 591//674
f 542//620 543//619 544//621 591//674
f 596//678 595//679 593//675 594//677
f 230//276 368//275 596//678 594//677
f 544//621 169//200 230//276 594//677
f 581//663 597//680 369//278 370//277
f 170//254 579//660 581//663 370//277
f 598//681 371//280 369//278 597//680
f 600//682 599//683 598//681 597//680
f 581//663 582//662 600//682 597//680
f 587//684 589//685 599//683 600//682
f 582//662 583//665 587//684 600//682
f 602//686 601//687 598//681 599//683
f 589//685 603//688 602//686 599//683
f 605//689 604//690 602//686 603//688
f 592//676 606//691 605//689 603//688
f 589//673 590//672 592//676 603//688
f 430//487 473//541 605//689 606//691
f 595//679 429//482 430//487 606//691
f 592//676 593//675 595//679 606//691
f 473//541 471//540 604//690 605//689
f 607//692 601//687 602//686 604//690
f 471//540 472//539 607//692 604//690
f 373//294 372//293 601//687 607//692
f 472//539 242//295 373//294 607//692
f 472//539 468//537 243//296 242//295
f 468//537 469//536 374//297 243//296
f 469//536 432//488 375//298 374//297
f 432//488 427//484 244//299 375//298
f 427//484 428//483 376//300 244//299
f 428//483 596//678 368//275 376//300
f 371//280 598//681 601//687 372//293
f 428//483 429//482 595//679 596//678
f 174//246 377//301 574//655 575//654
f 378//303 608//693 574//655 377//301
f 378//303 379//305 609//694 608//693
f 610//695 572//653 574//655 608//693
f 609//694 611//696 610//695 608//693
f 609//694 613//697 612//698 611//696
f 614//699 568//647 610//695 611//696
f 612//698 615//700 614//699 611//696
f 612//698 617//701 616//702 615//700
f 618//703 565//644 614//699 615//700
f 616//702 619//704 618//703 615//700
f 616//702 477//547 620//705 619//704
f 621//706 562//641 618//703 619//704
f 620//705 453//518 621//706 619//704
f 559//638 560//637 562//641 621//706
f 453//518 454//517 559//638 621//706
f 477//547 478//546 622//707 620//705
f 622//707 452//513 453//518 620//705
f 478//546 481//552 623//708 622//707
f 623//708 451//514 452//513 622//707
f 481//552 380//321 261//320 623//708
f 261//320 262//322 451//514 623//708
f 381//323 450//515 451//514 262//322
f 382//324 455//519 450//515 381//323
f 367//223 557//636 455//519 382//324
f 480//550 624//709 263//326 264//325
f 266//328 479//551 480//550 264//325
f 380//321 481//552 479//551 266//328
f 613//697 383//329 263//326 624//709
f 617//701 612//698 613//697 624//709
f 480//550 476//548 617//701 624//709
f 613//697 609//694 379//305 383//329
f 562//641 563//640 565//644 618//703
f 476//548 477//547 616//702 617//701
f 565//644 566//643 568//647 614//699
f 568//647 569//646 572//653 610//695
f 454//517 455//519 557//636 559//638
f 474//543 537//615 538//614 540//618
f 474//543 475//542 625//710 537//615
f 625//710 158//331 159//189 537//615
f 626//711 157//334 158//333 625//712
f 475//713 627//714 626//711 625//712
f 629//715 628//716 626//711 627//714
f 420//717 630//718 629//715 627//714
f 475//713 409//719 420//717 627//714
f 632//720 631//721 629//715 630//718
f 634//722 633//723 632//723 630//722
f 420//467 417//467 634//722 630//722
f 534//612 635//724 633//725 634//726
f 417//465 418//464 534//612 634//726
f 637//727 636//728 633//725 635//724
f 536//613 638//729 637//727 635//724
f 534//612 535//611 536//613 635//724
f 640//730 639//731 637//727 638//729
f 284//356 283//355 640//730 638//729
f 536//613 156//187 284//356 638//729
f 628//716 641//732 384//358 285//357
f 157//334 626//711 628//716 285//357
f 642//733 385//360 384//358 641//732
f 631//721 643//734 642//733 641//732
f 628//716 629//715 631//721 641//732
f 645//735 644//736 642//733 643//734
f 647//737 646//738 645//735 643//734
f 631//721 632//720 647//737 643//734
f 636//739 648//740 646//738 647//739
f 632//723 633//723 636//739 647//739
f 650//741 649//742 646//738 648//740
f 639//731 651//743 650//741 648//740
f 636//728 637//727 639//731 648//740
f 464//528 467//534 650//741 651//743
f 652//744 463//529 464//528 651//743
f 639//731 640//730 652//744 651//743
f 298//374 386//373 463//529 652//744
f 640//730 283//355 298//374 652//744
f 644//736 653//745 387//376 300//375
f 385//360 642//733 644//736 300//375
f 461//527 299//378 387//376 653//745
f 654//746 458//520 461//527 653//745
f 644//736 645//735 654//746 653//745
f 649//742 457//521 458//520 654//746
f 645//735 646//738 649//742 654//746
f 461//527 459//526 303//380 299//378
f 459//525 460//524 304//382 303//381
f 460//524 466//532 305//383 304//382
f 466//532 462//530 388//384 305//383
f 462//530 463//529 386//373 388//385
f 467//534 457//521 649//742 650//741
f 419//471 421//470 531//608 532//607
f 421//470 656//747 655//748 531//608
f 655//748 389//388 146//176 531//608
f 659//749 658//750 657//751 656//747
f 421//470 414//469 659//749 656//747
f 657//751 660//752 655//748 656//747
f 657//751 662//753 661//754 660//752
f 390//395 389//388 655//748 660//752
f 661//754 314//396 390//395 660//752
f 661//754 663//755 315//397 314//396
f 664//756 483//554 391//400 317//399
f 315//397 663//755 664//756 317//399
f 665//757 482//555 483//554 664//756
f 663//755 666//758 665//757 664//756
f 668//759 667//760 665//757 666//758
f 662//753 669//761 668//759 666//758
f 663//755 661//754 662//753 666//758
f 671//762 670//763 668//759 669//761
f 658//764 672//764 671//762 669//761
f 662//753 657//751 658//750 669//761
f 674//765 673//766 671//767 672//768
f 676//769 675//770 674//765 672//768
f 658//764 659//771 676//771 672//764
f 415//480 426//479 675//770 676//769
f 659//771 414//456 415//455 676//771
f 678//772 677//773 674//765 675//770
f 426//479 679//774 678//772 675//770
f 144//421 145//420 678//772 679//774
f 680//775 143//422 144//422 679//774
f 426//479 422//478 680//775 679//774
f 681//776 392//426 143//425 680//777
f 422//475 423//474 681//776 680//777
f 682//778 393//428 392//426 681//776
f 423//474 683//779 682//778 681//776
f 685//780 684//781 682//778 683//779
f 686//782 524//783 685//780 683//779
f 423//474 424//473 686//782 683//779
f 521//784 522//599 524//599 686//784
f 424//477 425//477 521//784 686//784
f 527//602 529//606 684//781 685//780
f 524//783 525//603 527//602 685//780
f 394//436 393//428 682//778 684//781
f 529//606 141//173 394//436 684//781
f 145//420 341//437 677//773 678//772
f 342//439 687//785 677//773 341//437
f 342//439 345//441 688//786 687//785
f 673//766 674//765 677//773 687//785
f 688//786 689//787 673//766 687//785
f 688//786 691//788 690//789 689//787
f 670//763 671//767 673//766 689//787
f 690//789 692//790 670//763 689//787
f 690//789 490//560 493//566 692//790
f 667//760 668//759 670//763 692//790
f 493//566 487//559 667//760 692//790
f 350//447 395//446 489//561 691//788
f 688//786 345//441 350//447 691//788
f 489//561 490//560 690//789 691//788
f 396//448 488//562 489//561 395//446
f 351//449 492//564 488//562 396//448
f 352//450 485//558 492//564 351//449
f 397//451 484//553 485//558 352//450
f 391//400 483//554 484//553 397//452
f 487//559 482//555 665//757 667//760
f 425//510 449//509 519//594 521//596
f 494//569 442//498 445//504 498//571
f 441//499 442//498 494//569 495//568
f 491//565 486//557 487//559 493//566
f 485//558 486//557 491//565 492//564
f 430//487 431//486 470//535 473//541
f 431//486 432//488 469//536 470//535
f 465//533 456//522 457//521 467//534
f 460//524 456//522 465//533 466//532
f 398//457 414//456 399//468 409//460
