# pilowlava3D glyph '@' variant 1 — Vincent Wagner / Velvetyne, Free Art License
v 2.44310 2.09713 -0.23125
v 2.74265 1.76541 -0.25855
v 4.28844 0.19563 -0.28855
v 4.27116 0.69857 -0.28397
v 2.20834 1.96107 0.00000
v 2.64647 1.98502 -0.30340
v 2.26685 1.93091 -0.27488
v 2.44096 1.79214 -0.40074
v 2.61707 1.51652 0.00000
v 2.80809 1.75570 0.00000
v 2.57285 1.60517 -0.29534
v 4.34146 0.13381 0.00000
v 4.45744 0.44735 0.00000
v 4.05675 0.13739 -0.33517
v 4.05875 0.44582 -0.46101
v 4.35669 0.44716 -0.34579
v 4.31944 0.75310 0.00000
v 4.03032 0.87108 0.00000
v 4.03537 0.75094 -0.33042
v 3.77324 0.43147 -0.47363
v 3.74268 0.72811 -0.32510
v 3.72250 0.85143 0.00000
v 3.45407 0.68259 -0.31636
v 3.43671 0.80501 0.00000
v 3.49149 0.13223 -0.31853
v 3.77603 0.13189 -0.32671
v 3.48279 0.40805 -0.47314
v 3.20523 0.12259 -0.31286
v 3.19093 0.38292 -0.46414
v 3.16769 0.64720 -0.30868
v 2.90269 0.36012 -0.45379
v 2.88226 0.61196 -0.30304
v 2.86989 0.72377 0.00000
v 3.15469 0.76484 0.00000
v 2.91803 0.11526 -0.30549
v 2.63318 0.00487 0.00000
v 2.62965 0.10855 -0.30299
v 2.61531 0.33974 -0.44499
v 2.34239 0.10333 -0.30146
v 2.32791 0.32509 -0.43297
v 2.31229 0.54168 -0.29738
v 2.59743 0.57550 -0.30103
v 2.58743 0.68328 0.00000
v 2.34500 0.00273 0.00000
v 2.05400 0.09909 -0.29790
v 1.76758 0.00307 0.00000
v 0.94585 0.46785 0.00000
v 1.46307 0.44223 -0.28408
v 1.18921 0.41818 -0.27145
v 0.92619 0.42129 -0.24260
v 1.17934 0.25857 -0.38528
v 0.88722 0.28376 -0.36079
v 0.62010 0.39814 -0.34808
v 0.69856 0.49883 -0.22371
v 0.72260 0.52686 0.00000
v 0.56137 0.68451 -0.24603
v 0.60619 0.71255 0.00000
v 1.47197 0.00807 0.00000
v 1.17177 0.10289 -0.26715
v 1.47298 0.08994 -0.28441
v 1.76517 0.09470 -0.29163
v 1.46887 0.26923 -0.40051
v 1.75543 0.28744 -0.41236
v 2.04193 0.30683 -0.42258
v 1.74365 0.47462 -0.29110
v 2.02736 0.50737 -0.29482
v 0.85950 0.16093 -0.24132
v 0.54703 0.30203 -0.23306
v 0.26013 0.53431 0.00000
v 0.30707 0.55452 -0.25347
v 0.42851 0.61283 -0.36787
v 0.17488 0.87526 -0.28338
v 0.35123 0.90392 -0.40443
v 0.53697 0.92504 -0.28718
v 0.34419 1.20025 -0.43385
v 0.57404 1.18764 -0.30363
v 0.67386 1.17078 0.00000
v 0.61797 0.93086 0.00000
v 0.10081 0.85920 0.00000
v 0.12086 1.19275 -0.30027
v 0.00000 1.50451 0.00000
v 0.10551 1.50134 -0.30580
v 0.36314 1.48362 -0.45624
v 0.12109 1.80528 -0.31348
v 0.39882 1.76668 -0.47552
v 0.68698 1.71659 -0.31809
v 0.62993 1.45034 -0.31053
v 0.00639 1.81806 0.00000
v 0.03748 2.12968 0.00000
v 0.15544 2.10804 -0.32293
v 0.10225 2.44047 0.00000
v 1.09268 2.72470 0.00000
v 1.16611 2.98564 0.00000
v 0.89424 2.50472 -0.32504
v 0.97578 2.76456 -0.31934
v 1.06079 3.02128 -0.31126
v 0.69981 2.86769 -0.47430
v 0.81581 3.12726 -0.45923
v 0.94894 3.37715 -0.43261
v 1.15041 3.27741 -0.30393
v 1.24059 3.24309 0.00000
v 1.25171 3.52840 -0.28077
v 1.31158 3.48713 0.00000
v 0.33058 3.02921 0.00000
v 0.43517 2.97842 -0.31529
v 0.31740 2.69760 -0.31988
v 0.22047 2.40690 -0.32450
v 0.60062 2.59992 -0.48641
v 0.51514 2.32718 -0.48996
v 0.44783 2.04924 -0.48629
v 0.81656 2.24430 -0.32702
v 0.74870 1.98219 -0.32460
v 0.58296 3.24665 -0.30735
v 0.76103 3.49362 -0.29968
v 0.90129 3.77662 0.00000
v 0.96082 3.72899 -0.28134
v 1.10368 3.62910 -0.40142
v 1.18903 3.94571 -0.24457
v 1.28943 3.85273 -0.36253
v 1.38918 3.74819 -0.23973
v 1.51442 4.02862 -0.33058
v 1.57425 3.92516 -0.20853
v 1.58290 3.90495 0.00000
v 1.41402 3.71544 0.00000
v 1.45006 4.12556 -0.21317
v 1.73343 4.27976 0.00000
v 1.74144 4.25097 -0.20560
v 1.77327 4.14337 -0.32207
v 2.04868 4.32257 -0.22596
v 2.05179 4.19924 -0.34620
v 2.06613 4.06333 -0.22570
v 1.80830 4.03419 -0.20309
v 2.36540 4.34904 -0.26270
v 2.70447 4.41456 0.00000
v 2.70982 3.70637 0.00000
v 3.08853 3.36060 0.00000
v 2.78229 3.80279 -0.31806
v 2.98846 3.64478 -0.33497
v 3.19316 3.48055 -0.35098
v 3.16438 3.91094 -0.49338
v 3.40475 3.75812 -0.51487
v 3.63026 3.58314 -0.53011
v 3.39018 3.30958 -0.36031
v 3.27704 3.18542 0.00000
v 3.57799 3.12668 -0.36263
v 3.46381 3.00756 0.00000
v 3.03171 4.37651 0.00000
v 3.30827 4.17473 -0.32505
v 3.00391 4.27786 -0.31312
v 2.68805 4.33069 -0.29657
v 2.91150 4.04201 -0.45998
v 2.63547 4.14192 -0.42326
v 2.34157 4.19962 -0.38451
v 2.56133 3.94206 -0.29624
v 2.32124 4.03293 -0.26403
v 3.59314 4.03195 -0.34123
v 3.85542 3.84726 -0.34986
v 4.19330 3.72528 0.00000
v 4.08534 3.62418 -0.34775
v 3.83652 3.38413 -0.52728
v 4.28210 3.37763 -0.33939
v 4.02409 3.16800 -0.51862
v 3.76347 2.93784 -0.35369
v 4.19337 2.93938 -0.49362
v 3.94299 2.73944 -0.33879
v 3.65295 2.82958 0.00000
v 4.39671 3.46008 0.00000
v 4.44606 3.11303 -0.32434
v 4.68172 2.87312 0.00000
v 4.58002 2.83367 -0.31335
v 4.34892 2.70504 -0.46588
v 4.68015 2.53859 -0.29946
v 4.49097 2.45175 -0.42770
v 4.30353 2.34597 -0.30286
v 4.12674 2.54441 -0.32106
v 4.22421 2.28705 0.00000
v 4.76701 2.56486 0.00000
v 4.75331 2.22343 -0.26384
v 4.80359 1.88922 0.00000
v 4.46091 1.67318 0.00000
v 4.09607 1.49911 0.00000
v 4.48308 1.65890 -0.20088
v 4.32474 1.49051 -0.20782
v 4.10167 1.45066 -0.24315
v 4.38982 1.39010 -0.33433
v 4.11050 1.29642 -0.36692
v 3.79797 1.33087 -0.40053
v 3.88785 1.52572 -0.27780
v 3.91783 1.58813 0.00000
v 3.71045 1.66371 -0.29164
v 4.70026 1.54095 0.00000
v 4.44653 1.28526 -0.22278
v 4.67691 1.55454 -0.20729
v 4.76826 1.88944 -0.22429
v 4.58817 1.60185 -0.32151
v 4.65189 1.88648 -0.34034
v 4.60489 2.17620 -0.38277
v 4.51659 1.89356 -0.22484
v 4.44621 2.12803 -0.26531
v 4.11073 1.14713 -0.25382
v 3.73561 1.13516 -0.28186
v 3.32265 1.21782 0.00000
v 3.38217 1.28482 -0.30293
v 3.54895 1.47596 -0.42083
v 3.18381 1.59096 -0.29776
v 3.37740 1.71283 -0.42293
v 3.56389 1.85163 -0.30064
v 3.25063 1.98087 -0.41145
v 3.42139 2.08106 -0.29433
v 3.49139 2.12633 0.00000
v 3.63217 1.91410 0.00000
v 3.10719 1.54231 0.00000
v 3.07944 1.89429 -0.28771
v 2.90511 2.13762 0.00000
v 2.97249 2.16809 -0.27558
v 3.12817 2.24587 -0.39559
v 2.86310 2.43458 -0.25490
v 3.00194 2.50649 -0.38096
v 3.14017 2.57390 -0.25108
v 3.28241 2.32637 -0.27602
v 3.34311 2.35964 0.00000
v 2.80957 2.40871 0.00000
v 2.75545 2.70025 -0.23688
v 2.62340 2.93607 0.00000
v 2.29532 3.33979 0.00000
v 2.06793 3.09956 0.00000
v 2.63628 3.30772 -0.21609
v 2.30493 3.31412 -0.21202
v 2.09407 3.08168 -0.20670
v 2.35388 3.22420 -0.32640
v 2.18024 3.02932 -0.33378
v 2.05208 2.77583 -0.34855
v 1.94658 2.82575 -0.21474
v 1.91272 2.84286 0.00000
v 1.80464 2.57497 -0.22966
v 2.53232 3.08744 0.00000
v 2.39462 3.12521 -0.19947
v 2.53821 3.11780 -0.20174
v 2.64980 2.95524 -0.21614
v 2.58443 3.22005 -0.32857
v 2.75255 3.02053 -0.34227
v 2.87598 2.76443 -0.36372
v 2.84416 3.07275 -0.21754
v 2.99429 2.82055 -0.23156
v 2.27632 2.96744 -0.20857
v 2.16495 2.71467 -0.22182
v 2.09526 2.42940 0.00000
v 2.05449 2.45188 -0.23331
v 1.92747 2.51746 -0.36521
v 1.94183 2.18934 -0.24678
v 1.80573 2.25649 -0.37693
v 1.66666 2.32302 -0.25290
v 1.68126 1.99513 -0.38782
v 1.52924 2.06881 -0.27491
v 1.46887 2.09969 0.00000
v 1.99115 2.16486 0.00000
v 1.82831 1.92783 -0.25925
v 1.79115 1.65328 0.00000
v 1.72269 1.67126 -0.25317
v 1.54831 1.73614 -0.39399
v 1.65546 1.47432 -0.23982
v 1.46492 1.48291 -0.39935
v 1.25774 1.47692 -0.30648
v 1.37419 1.81017 -0.29190
v 1.30444 1.83578 0.00000
v 1.71931 1.46865 0.00000
v 1.66423 1.35259 -0.22140
v 1.80734 1.33885 0.00000
v 2.07617 1.32240 -0.21732
v 2.32686 1.46139 -0.26261
v 2.01366 1.38799 -0.33098
v 2.22131 1.58212 -0.38178
v 1.94221 1.46613 -0.21551
v 2.10684 1.69507 -0.25871
v 2.06497 1.72991 0.00000
v 1.79599 1.30500 -0.21085
v 1.80284 1.23727 -0.30812
v 1.58455 1.28242 -0.34682
v 1.80760 1.20080 -0.20854
v 1.47063 1.15523 -0.25199
v 2.44888 2.14815 0.00000
v 2.73531 2.06565 0.00000
v 4.05518 0.00096 0.00000
v 3.48695 0.00743 0.00000
v 3.76738 0.00000 0.00000
v 2.92072 0.00581 0.00000
v 3.20575 0.00604 0.00000
v 2.30354 0.64353 0.00000
v 2.05746 0.00194 0.00000
v 1.19554 0.48798 0.00000
v 1.45973 0.52437 0.00000
v 1.16612 0.03784 0.00000
v 1.73677 0.56348 0.00000
v 2.01913 0.60299 0.00000
v 0.84619 0.11607 0.00000
v 0.52304 0.27340 0.00000
v 0.02698 1.18282 0.00000
v 0.80864 1.68905 0.00000
v 0.74060 1.42742 0.00000
v 1.01984 2.46573 0.00000
v 0.49272 3.30161 0.00000
v 0.20117 2.73961 0.00000
v 0.94870 2.20811 0.00000
v 0.87842 1.94898 0.00000
v 0.68544 3.55248 0.00000
v 1.15056 3.97932 0.00000
v 1.43182 4.15172 0.00000
v 2.07175 4.02990 0.00000
v 1.81381 4.01589 0.00000
v 2.05115 4.36467 0.00000
v 2.37675 4.41067 0.00000
v 2.52205 3.86190 0.00000
v 2.90013 3.53522 0.00000
v 3.35739 4.28451 0.00000
v 2.31313 3.97299 0.00000
v 3.66391 4.14843 0.00000
v 3.94823 3.95896 0.00000
v 3.84180 2.64727 0.00000
v 4.55730 3.17498 0.00000
v 4.03732 2.46382 0.00000
v 4.81224 2.24047 0.00000
v 4.30840 1.51288 0.00000
v 3.76541 1.73017 0.00000
v 4.46024 1.25231 0.00000
v 4.48567 1.90185 0.00000
v 4.38504 2.11277 0.00000
v 4.10782 1.09326 0.00000
v 3.71336 1.06429 0.00000
v 3.00140 1.85993 0.00000
v 3.19044 2.59780 0.00000
v 2.71411 2.67671 0.00000
v 2.65068 3.33221 0.00000
v 1.76463 2.59412 0.00000
v 2.39920 3.09525 0.00000
v 2.87640 3.09011 0.00000
v 3.03560 2.83965 0.00000
v 2.30067 2.94800 0.00000
v 2.19894 2.69387 0.00000
v 1.61671 2.34776 0.00000
v 1.88771 1.90412 0.00000
v 1.17960 1.48001 0.00000
v 1.70187 1.36541 0.00000
v 2.09393 1.29487 0.00000
v 2.36230 1.40211 0.00000
v 1.91444 1.49537 0.00000
v 1.80783 1.17778 0.00000
v 1.43443 1.12875 0.00000
v 2.44310 2.09713 0.23125
v 2.74265 1.76541 0.25855
v 4.28844 0.19563 0.28855
v 4.27116 0.69857 0.28397
v 2.64647 1.98502 0.30340
v 2.26685 1.93091 0.27488
v 2.44096 1.79214 0.40074
v 2.57285 1.60517 0.29534
v 4.05675 0.13739 0.33517
v 4.05875 0.44582 0.46101
v 4.35669 0.44716 0.34579
v 4.03537 0.75094 0.33042
v 3.77324 0.43147 0.47363
v 3.74268 0.72811 0.32510
v 3.45407 0.68259 0.31636
v 3.49149 0.13223 0.31853
v 3.77603 0.13189 0.32671
v 3.48279 0.40805 0.47314
v 3.20523 0.12259 0.31286
v 3.19093 0.38292 0.46414
v 3.16769 0.64720 0.30868
v 2.90269 0.36012 0.45379
v 2.88226 0.61196 0.30304
v 2.91803 0.11526 0.30549
v 2.62965 0.10855 0.30299
v 2.61531 0.33974 0.44499
v 2.34239 0.10333 0.30146
v 2.32791 0.32509 0.43297
v 2.31229 0.54168 0.29738
v 2.59743 0.57550 0.30103
v 2.05400 0.09909 0.29790
v 1.46307 0.44223 0.28408
v 1.18921 0.41818 0.27145
v 0.92619 0.42129 0.24260
v 1.17934 0.25857 0.38528
v 0.88722 0.28376 0.36079
v 0.62010 0.39814 0.34808
v 0.69856 0.49883 0.22371
v 0.56137 0.68451 0.24603
v 1.17177 0.10289 0.26715
v 1.47298 0.08994 0.28441
v 1.76517 0.09470 0.29163
v 1.46887 0.26923 0.40051
v 1.75543 0.28744 0.41236
v 2.04193 0.30683 0.42258
v 1.74365 0.47462 0.29110
v 2.02736 0.50737 0.29482
v 0.85950 0.16093 0.24132
v 0.54703 0.30203 0.23306
v 0.30707 0.55452 0.25347
v 0.42851 0.61283 0.36787
v 0.17488 0.87526 0.28338
v 0.35123 0.90392 0.40443
v 0.53697 0.92504 0.28718
v 0.34419 1.20025 0.43385
v 0.57404 1.18764 0.30363
v 0.12086 1.19275 0.30027
v 0.10551 1.50134 0.30580
v 0.36314 1.48362 0.45624
v 0.12109 1.80528 0.31348
v 0.39882 1.76668 0.47552
v 0.68698 1.71659 0.31809
v 0.62993 1.45034 0.31053
v 0.15544 2.10804 0.32293
v 0.89424 2.50472 0.32504
v 0.97578 2.76456 0.31934
v 1.06079 3.02128 0.31126
v 0.69981 2.86769 0.47430
v 0.81581 3.12726 0.45923
v 0.94894 3.37715 0.43261
v 1.15041 3.27741 0.30393
v 1.25171 3.52840 0.28077
v 0.43517 2.97842 0.31529
v 0.31740 2.69760 0.31988
v 0.22047 2.40690 0.32450
v 0.60062 2.59992 0.48641
v 0.51514 2.32718 0.48996
v 0.44783 2.04924 0.48629
v 0.81656 2.24430 0.32702
v 0.74870 1.98219 0.32460
v 0.58296 3.24665 0.30735
v 0.76103 3.49362 0.29968
v 0.96082 3.72899 0.28134
v 1.10368 3.62910 0.40142
v 1.18903 3.94571 0.24457
v 1.28943 3.85273 0.36253
v 1.38918 3.74819 0.23973
v 1.51442 4.02862 0.33058
v 1.57425 3.92516 0.20853
v 1.45006 4.12556 0.21317
v 1.74144 4.25097 0.20560
v 1.77327 4.14337 0.32207
v 2.04868 4.32257 0.22596
v 2.05179 4.19924 0.34620
v 2.06613 4.06333 0.22570
v 1.80830 4.03419 0.20309
v 2.36540 4.34904 0.26270
v 2.78229 3.80279 0.31806
v 2.98846 3.64478 0.33497
v 3.19316 3.48055 0.35098
v 3.16438 3.91094 0.49338
v 3.40475 3.75812 0.51487
v 3.63026 3.58314 0.53011
v 3.39018 3.30958 0.36031
v 3.57799 3.12668 0.36263
v 3.30827 4.17473 0.32505
v 3.00391 4.27786 0.31312
v 2.68805 4.33069 0.29657
v 2.91150 4.04201 0.45998
v 2.63547 4.14192 0.42326
v 2.34157 4.19962 0.38451
v 2.56133 3.94206 0.29624
v 2.32124 4.03293 0.26403
v 3.59314 4.03195 0.34123
v 3.85542 3.84726 0.34986
v 4.08534 3.62418 0.34775
v 3.83652 3.38413 0.52728
v 4.28210 3.37763 0.33939
v 4.02409 3.16800 0.51862
v 3.76347 2.93784 0.35369
v 4.19337 2.93938 0.49362
v 3.94299 2.73944 0.33879
v 4.44606 3.11303 0.32434
v 4.58002 2.83367 0.31335
v 4.34892 2.70504 0.46588
v 4.68015 2.53859 0.29946
v 4.49097 2.45175 0.42770
v 4.30353 2.34597 0.30286
v 4.12674 2.54441 0.32106
v 4.75331 2.22343 0.26384
v 4.48308 1.65890 0.20088
v 4.32474 1.49051 0.20782
v 4.10167 1.45066 0.24315
v 4.38982 1.39010 0.33433
v 4.11050 1.29642 0.36692
v 3.79797 1.33087 0.40053
v 3.88785 1.52572 0.27780
v 3.71045 1.66371 0.29164
v 4.44653 1.28526 0.22278
v 4.67691 1.55454 0.20729
v 4.76826 1.88944 0.22429
v 4.58817 1.60185 0.32151
v 4.65189 1.88648 0.34034
v 4.60489 2.17620 0.38277
v 4.51659 1.89356 0.22484
v 4.44621 2.12803 0.26531
v 4.11073 1.14713 0.25382
v 3.73561 1.13516 0.28186
v 3.38217 1.28482 0.30293
v 3.54895 1.47596 0.42083
v 3.18381 1.59096 0.29776
v 3.37740 1.71283 0.42293
v 3.56389 1.85163 0.30064
v 3.25063 1.98087 0.41145
v 3.42139 2.08106 0.29433
v 3.07944 1.89429 0.28771
v 2.97249 2.16809 0.27558
v 3.12817 2.24587 0.39559
v 2.86310 2.43458 0.25490
v 3.00194 2.50649 0.38096
v 3.14017 2.57390 0.25108
v 3.28241 2.32637 0.27602
v 2.75545 2.70025 0.23688
v 2.63628 3.30772 0.21609
v 2.30493 3.31412 0.21202
v 2.09407 3.08168 0.20670
v 2.35388 3.22420 0.32640
v 2.18024 3.02932 0.33378
v 2.05208 2.77583 0.34855
v 1.94658 2.82575 0.21474
v 1.80464 2.57497 0.22966
v 2.39462 3.12521 0.19947
v 2.53821 3.11780 0.20174
v 2.64980 2.95524 0.21614
v 2.58443 3.22005 0.32857
v 2.75255 3.02053 0.34227
v 2.87598 2.76443 0.36372
v 2.84416 3.07275 0.21754
v 2.99429 2.82055 0.23156
v 2.27632 2.96744 0.20857
v 2.16495 2.71467 0.22182
v 2.05449 2.45188 0.23331
v 1.92747 2.51746 0.36521
v 1.94183 2.18934 0.24678
v 1.80573 2.25649 0.37693
v 1.66666 2.32302 0.25290
v 1.68126 1.99513 0.38782
v 1.52924 2.06881 0.27491
v 1.82831 1.92783 0.25925
v 1.72269 1.67126 0.25317
v 1.54831 1.73614 0.39399
v 1.65546 1.47432 0.23982
v 1.46492 1.48291 0.39935
v 1.25774 1.47692 0.30648
v 1.37419 1.81017 0.29190
v 1.66423 1.35259 0.22140
v 2.07617 1.32240 0.21732
v 2.32686 1.46139 0.26261
v 2.01366 1.38799 0.33098
v 2.22131 1.58212 0.38178
v 1.94221 1.46613 0.21551
v 2.10684 1.69507 0.25871
v 1.79599 1.30500 0.21085
v 1.80284 1.23727 0.30812
v 1.58455 1.28242 0.34682
v 1.80760 1.20080 0.20854
v 1.47063 1.15523 0.25199
vn 0.34044 0.90257 -0.26356
vn 0.34109 0.94001 0.00657
vn -0.63034 0.75529 -0.17947
vn -0.73437 0.64821 -0.20131
vn -0.74873 0.66287 0.00182
vn -0.63802 0.77001 0.00391
vn -0.13250 0.46929 -0.87305
vn -0.29485 0.40190 -0.86692
vn 0.39869 -0.09663 -0.91198
vn 0.32612 -0.28427 -0.90158
vn 0.72301 -0.64514 -0.24709
vn 0.74939 -0.66210 0.00620
vn 0.60813 -0.79383 0.00336
vn 0.58265 -0.76617 -0.27109
vn 0.91847 0.28619 -0.27295
vn 0.95697 0.29006 0.00793
vn 0.29798 -0.31937 -0.89956
vn 0.16109 -0.36836 -0.91562
vn 0.16244 0.01187 -0.98665
vn 0.31239 0.01748 -0.94979
vn 0.34027 -0.89167 -0.29857
vn 0.36319 -0.93169 0.00678
vn 0.18990 -0.98180 0.00348
vn 0.17525 -0.92312 -0.34225
vn 0.91427 -0.31941 -0.24918
vn 0.94340 -0.33165 0.00186
vn 0.30679 0.91276 -0.26974
vn 0.12097 0.94117 -0.31553
vn 0.13045 0.99145 0.00319
vn 0.32455 0.94585 0.00596
vn 0.89311 0.38029 -0.24026
vn 0.91911 0.39400 0.00200
vn 0.29051 0.35231 -0.88965
vn 0.13942 0.39096 -0.90978
vn -0.04194 0.44296 -0.89556
vn -0.11117 0.92794 -0.35575
vn -0.11327 0.74542 -0.65690
vn -0.14022 0.92189 -0.36119
vn -0.00657 -0.92790 -0.37277
vn -0.00185 -0.93164 -0.36339
vn 0.00254 -0.75116 -0.66011
vn 0.01326 -0.43717 -0.89928
vn 0.00662 -0.48007 -0.87721
vn 0.00794 -0.76435 -0.64475
vn 0.00373 -0.50293 -0.86432
vn -0.07281 0.47999 -0.87425
vn -0.07590 0.49933 -0.86308
vn -0.10787 0.75513 -0.64664
vn -0.07093 0.50827 -0.85827
vn -0.10519 0.76170 -0.63934
vn -0.12753 0.92880 -0.34795
vn -0.12762 0.92537 -0.35694
vn 0.01122 -0.93667 -0.35003
vn 0.01011 -0.99995 -0.00001
vn 0.00714 -0.77342 -0.63385
vn 0.01182 -0.99993 0.00000
vn 0.00744 -0.77847 -0.62764
vn 0.00284 -0.51859 -0.85502
vn 0.00389 -0.51532 -0.85699
vn -0.00142 -0.51460 -0.85743
vn -0.06728 0.51672 -0.85351
vn -0.06770 0.52516 -0.84831
vn -0.10174 0.77625 -0.62216
vn -0.10211 0.76872 -0.63138
vn -0.13113 0.99137 0.00001
vn -0.13307 0.99111 -0.00000
vn 0.00929 -0.99996 -0.00001
vn 0.00443 -0.99999 0.00000
vn 0.00426 -0.95101 -0.30912
vn 0.00881 -0.94846 -0.31679
vn -0.08223 0.99661 -0.00037
vn -0.12454 0.99221 0.00017
vn -0.10448 0.80454 -0.58464
vn -0.07450 0.83042 -0.55214
vn 0.10376 0.85314 -0.51126
vn 0.12025 0.99274 -0.00018
vn -0.06121 0.59625 -0.80046
vn 0.07780 0.63924 -0.76506
vn 0.39188 0.52505 -0.75548
vn 0.51317 0.69380 -0.50528
vn 0.59216 0.80582 0.00075
vn 0.80888 0.25080 -0.53180
vn 0.95602 0.29328 0.00189
vn -0.04098 -0.99916 0.00006
vn -0.14897 -0.98884 -0.00011
vn -0.12858 -0.82964 -0.54329
vn -0.03918 -0.96132 -0.27264
vn -0.00095 -0.95501 -0.29658
vn -0.00093 -1.00000 -0.00003
vn -0.00464 -0.53014 -0.84790
vn -0.02704 -0.55533 -0.83119
vn -0.00188 -0.51761 -0.85561
vn -0.06874 0.53255 -0.84360
vn -0.07302 0.54135 -0.83762
vn -0.10491 0.79218 -0.60120
vn -0.10234 0.78394 -0.61234
vn -0.12980 0.99154 0.00003
vn -0.13024 0.99148 0.00001
vn -0.07630 0.55794 -0.82636
vn -0.09779 -0.60530 -0.78996
vn -0.32512 -0.94567 -0.00042
vn -0.28716 -0.82200 -0.49179
vn -0.22581 -0.63374 -0.73986
vn -0.57770 -0.81625 -0.00001
vn -0.50384 -0.72046 -0.47653
vn -0.38786 -0.56482 -0.72838
vn -0.82107 -0.57083 0.00046
vn -0.69835 -0.49954 -0.51261
vn -0.51508 -0.38562 -0.76550
vn -0.77795 -0.26397 -0.57018
vn -0.54354 -0.19252 -0.81701
vn 0.59209 0.18968 -0.78323
vn 0.55776 -0.05363 -0.82827
vn 0.49520 -0.10742 -0.86212
vn 0.96161 -0.09265 -0.25830
vn 0.92894 -0.20252 -0.30992
vn 0.97695 -0.21346 -0.00051
vn 0.99555 -0.09424 0.00092
vn -0.94938 -0.31414 0.00011
vn -0.99060 -0.13677 -0.00001
vn -0.94614 -0.13088 -0.29611
vn -0.99981 -0.01937 0.00021
vn -0.94586 -0.01815 -0.32407
vn -0.51956 -0.07555 -0.85109
vn -0.50640 -0.01662 -0.86214
vn -0.49704 0.02207 -0.86745
vn 0.46875 -0.11702 -0.87555
vn 0.45825 -0.12044 -0.88062
vn 0.91368 -0.22094 -0.34113
vn 0.90407 -0.22505 -0.36334
vn 0.97199 -0.23503 0.00002
vn -0.99784 0.06577 0.00006
vn -0.92594 0.14433 -0.34902
vn -0.93803 0.06190 -0.34099
vn 0.89516 -0.26551 -0.35805
vn 0.89086 -0.25762 -0.37417
vn 0.90110 -0.27675 -0.33381
vn 0.95591 -0.29364 0.00007
vn 0.46378 -0.14343 -0.87427
vn 0.45275 -0.13057 -0.88203
vn 0.48952 -0.15936 -0.85731
vn 0.90853 -0.29464 -0.29623
vn 0.95144 -0.30784 -0.00050
vn 0.76337 -0.31781 -0.56238
vn 0.92176 -0.38776 -0.00120
vn -0.87241 0.33584 -0.35512
vn -0.89230 0.45145 -0.00002
vn -0.83767 0.42387 -0.34445
vn -0.90217 0.24590 -0.35443
vn -0.46172 0.12967 -0.87750
vn -0.44869 0.18068 -0.87523
vn -0.47948 0.06972 -0.87478
vn 0.45091 -0.12099 -0.88433
vn 0.44615 -0.12448 -0.88626
vn 0.71116 -0.19711 -0.67483
vn 0.71627 -0.18884 -0.67179
vn 0.89069 -0.24605 -0.38227
vn 0.89554 -0.23400 -0.37850
vn 0.44685 -0.12534 -0.88578
vn -0.43517 0.22629 -0.87144
vn -0.83389 0.55194 -0.00019
vn -0.78842 0.52206 -0.32533
vn -0.41717 0.28210 -0.86394
vn -0.76854 0.63980 -0.00012
vn -0.73312 0.61097 -0.29873
vn -0.40373 0.34335 -0.84801
vn -0.69372 0.72024 -0.00011
vn -0.56312 0.60066 -0.56754
vn -0.39072 0.43387 -0.81185
vn -0.49874 0.70433 -0.50515
vn -0.36212 0.54656 -0.75507
vn 0.53723 -0.21650 -0.81517
vn 0.54015 -0.36479 -0.75840
vn 0.71354 -0.49746 -0.49334
vn 0.41556 -0.56004 -0.71670
vn 0.52959 -0.72302 -0.44359
vn 0.58646 -0.80998 0.00014
vn 0.81526 -0.57910 -0.00049
vn -0.59493 0.80378 0.00013
vn -0.46609 0.88474 0.00020
vn -0.40414 0.79235 -0.45701
vn -0.32057 0.94722 0.00014
vn -0.29034 0.84671 -0.44584
vn -0.23663 0.67704 -0.69687
vn -0.30774 0.63345 -0.70995
vn -0.18129 0.86247 -0.47253
vn -0.16172 0.67613 -0.71882
vn 0.18215 -0.67654 -0.71352
vn -0.05047 -0.66044 -0.74918
vn -0.05619 -0.87567 -0.47963
vn 0.23280 -0.86793 -0.43875
vn -0.05475 -0.99850 0.00042
vn 0.25781 -0.96620 -0.00007
vn -0.18618 0.98252 0.00004
vn -0.05784 0.99833 -0.00014
vn -0.06680 0.84752 -0.52654
vn -0.60530 -0.69647 -0.38541
vn -0.62363 -0.78172 -0.00076
vn -0.58393 -0.73433 -0.34611
vn -0.61046 -0.67836 -0.40886
vn -0.30110 -0.30981 -0.90186
vn -0.30648 -0.32890 -0.89325
vn -0.29525 -0.30109 -0.90674
vn -0.62200 -0.66206 -0.41808
vn -0.63270 -0.65514 -0.41290
vn 0.21158 0.97736 -0.00012
vn 0.35472 0.93497 -0.00008
vn 0.33307 0.87802 -0.34372
vn 0.20110 0.92883 -0.31119
vn 0.04706 0.81062 -0.58368
vn 0.07040 0.99752 0.00008
vn 0.09602 0.50599 -0.85718
vn 0.02114 0.56431 -0.82530
vn -0.06889 0.63328 -0.77085
vn -0.19871 -0.56096 -0.80364
vn -0.27476 -0.44914 -0.85017
vn -0.30193 -0.92797 -0.21842
vn -0.49043 -0.82239 -0.28836
vn -0.51445 -0.85752 -0.00155
vn -0.30913 -0.95102 -0.00038
vn -0.30574 -0.36966 -0.87743
vn 0.15987 0.46321 -0.87171
vn 0.45661 0.81003 -0.36791
vn 0.21662 0.41821 -0.88214
vn 0.58177 0.71779 -0.38252
vn 0.46209 0.57366 -0.67630
vn 0.28669 0.36034 -0.88767
vn 0.68634 0.61534 -0.38766
vn 0.55115 0.48809 -0.67676
vn 0.35129 0.30358 -0.88568
vn 0.62187 0.40645 -0.66938
vn 0.40413 0.25061 -0.87970
vn -0.28953 -0.30335 -0.90783
vn -0.29038 -0.31457 -0.90373
vn -0.30026 -0.32963 -0.89509
vn -0.64425 -0.65341 -0.39750
vn -0.65238 -0.65868 -0.37489
vn 0.76764 0.51526 -0.38110
vn 0.83243 0.42061 -0.36077
vn 0.67829 0.33331 -0.65484
vn 0.93887 0.34428 -0.00037
vn 0.72763 0.26145 -0.63419
vn 0.47937 0.16629 -0.86171
vn 0.44457 0.20693 -0.87151
vn 0.78387 0.17382 -0.59610
vn 0.53848 0.10758 -0.83574
vn -0.32681 -0.34677 -0.87917
vn -0.38543 -0.35780 -0.85054
vn -0.65976 -0.66733 -0.34553
vn -0.71163 -0.63688 -0.29660
vn -0.74398 -0.66820 -0.00123
vn -0.70326 -0.71094 0.00021
vn 0.97379 0.22747 -0.00008
vn 0.99656 0.08292 0.00038
vn 0.84488 0.05551 -0.53207
vn -0.44442 0.89582 0.00079
vn -0.90522 0.42494 0.00010
vn -0.80200 0.38173 -0.45944
vn -0.39131 0.79221 -0.46827
vn 0.12309 0.84727 -0.51671
vn 0.15233 0.98833 -0.00055
vn -0.30491 0.61720 -0.72532
vn 0.08201 0.62348 -0.77752
vn 0.28206 0.45978 -0.84204
vn 0.51900 0.82157 -0.23591
vn 0.53488 0.84493 -0.00080
vn 0.70548 0.65425 -0.27250
vn 0.73280 0.68044 0.00064
vn 0.88266 -0.47001 -0.00024
vn 0.60081 -0.79939 0.00010
vn 0.54380 -0.69872 -0.46483
vn 0.79609 -0.42490 -0.43094
vn 0.87707 -0.13797 -0.46012
vn 0.98999 -0.14110 0.00020
vn 0.64615 -0.34586 -0.68034
vn 0.69267 -0.12422 -0.71047
vn 0.62329 0.02187 -0.78169
vn -0.50789 -0.31071 -0.80343
vn -0.64581 -0.09866 -0.75710
vn -0.86418 -0.12305 -0.48791
vn -0.84112 -0.49456 -0.21892
vn -0.99136 -0.13117 0.00111
vn -0.86223 -0.50652 -0.00043
vn -0.61922 0.30080 -0.72532
vn 0.43911 -0.53710 -0.72021
vn 0.23654 -0.97162 0.00038
vn 0.21906 -0.81877 -0.53068
vn 0.17957 -0.58340 -0.79208
vn -0.15767 -0.98749 0.00034
vn -0.15323 -0.95674 -0.24732
vn -0.05135 -0.50819 -0.85971
vn -0.63281 -0.77431 0.00031
vn -0.60682 -0.74237 -0.28401
vn -0.27030 -0.35245 -0.89595
vn -0.43490 -0.21026 -0.87559
vn 0.35504 0.31854 -0.87891
vn 0.40116 0.26079 -0.87810
vn 0.43498 0.27207 -0.85835
vn 0.78806 0.54676 -0.28287
vn 0.81509 0.51278 -0.26962
vn 0.84631 0.53269 0.00006
vn 0.82160 0.57007 0.00025
vn -0.90039 -0.43509 0.00015
vn -0.94455 -0.32837 0.00001
vn -0.90759 -0.31535 -0.27718
vn -0.86298 -0.41705 -0.28519
vn -0.93894 -0.34407 0.00003
vn -0.77369 -0.27794 -0.56935
vn -0.50932 -0.17383 -0.84283
vn -0.54790 -0.19083 -0.81449
vn -0.79612 -0.29190 -0.53008
vn -0.59307 -0.21276 -0.77653
vn 0.48289 0.31082 -0.81867
vn 0.54388 0.34790 -0.76365
vn 0.72430 0.45629 -0.51691
vn 0.69816 0.43765 -0.56660
vn 0.84859 0.52905 0.00004
vn 0.85106 0.52507 -0.00003
vn -0.93730 -0.34853 -0.00002
vn -0.93678 -0.34991 -0.00011
vn -0.82086 -0.30323 -0.48397
vn 0.01961 0.99981 0.00010
vn 0.36992 0.82607 -0.42517
vn -0.35737 0.83420 -0.42000
vn -0.73426 0.67887 -0.00046
vn -0.73346 0.54358 -0.40811
vn -0.80142 0.59810 -0.00019
vn -0.29861 0.69057 -0.65875
vn -0.62087 0.45624 -0.63747
vn -0.64722 0.38076 -0.66040
vn -0.77687 0.45788 -0.43223
vn -0.86120 0.50827 0.00004
vn -0.75907 0.44710 -0.47319
vn -0.86280 0.50554 0.00000
vn -0.05624 -0.99842 -0.00006
vn -0.04698 -0.91680 -0.39658
vn -0.84358 -0.53701 0.00132
vn -0.76341 -0.49998 -0.40894
vn -0.80269 -0.40598 -0.43688
vn -0.89478 -0.44650 0.00060
vn -0.62326 -0.42455 -0.65674
vn -0.64741 -0.33330 -0.68540
vn -0.64190 -0.23246 -0.73071
vn 0.60307 0.37495 -0.70407
vn 0.59854 0.45095 -0.66211
vn 0.72101 0.54425 -0.42888
vn 0.75041 0.46721 -0.46755
vn 0.79785 0.60285 -0.00028
vn 0.84864 0.52897 -0.00003
vn 0.30149 0.68389 -0.66437
vn 0.74002 0.67259 -0.00050
vn -0.03524 -0.78528 -0.61813
vn 0.74251 -0.54339 -0.39167
vn 0.81760 -0.57579 -0.00122
vn 0.87563 -0.48298 -0.00067
vn 0.78979 -0.44685 -0.42019
vn 0.64762 -0.37815 -0.66151
vn 0.61847 -0.47433 -0.62651
vn 0.92566 -0.37836 -0.00007
vn 0.82278 -0.33437 -0.45959
vn 0.65768 -0.26477 -0.70523
vn 0.92733 -0.37424 -0.00003
vn 0.81088 -0.32289 -0.48808
vn 0.63325 -0.24699 -0.73348
vn 0.79601 -0.31988 -0.51384
vn 0.60672 -0.23884 -0.75819
vn -0.60350 0.35761 -0.71267
vn -0.54197 0.32578 -0.77469
vn -0.73391 0.43278 -0.52353
vn -0.47214 0.29563 -0.83047
vn -0.83385 0.50009 -0.23368
vn -0.85747 0.51454 -0.00002
vn -0.86416 0.50322 -0.00000
vn 0.92611 -0.37725 0.00003
vn 0.92673 -0.37573 -0.00007
vn 0.77823 -0.32233 -0.53894
vn 0.93223 -0.36186 0.00002
vn 0.77850 -0.30912 -0.54625
vn 0.57727 -0.23713 -0.78136
vn 0.57504 -0.24624 -0.78019
vn 0.84395 -0.13553 -0.51902
vn 0.65798 -0.05702 -0.75088
vn -0.43204 0.22777 -0.87262
vn -0.39255 -0.11440 -0.91259
vn -0.87407 0.42102 -0.24236
vn -0.91409 0.32550 -0.24182
vn -0.94209 0.33536 -0.00016
vn -0.90097 0.43389 -0.00009
vn 0.97791 -0.20901 -0.00184
vn 0.99793 -0.06419 -0.00388
vn 0.87573 0.02433 -0.48219
vn 0.42818 -0.90369 0.00019
vn 0.40399 -0.91476 0.00029
vn 0.39575 -0.83075 -0.39145
vn 0.37072 -0.75337 -0.54314
vn 0.36730 -0.71074 -0.59995
vn 0.28464 -0.54857 -0.78616
vn -0.52253 0.33771 -0.78288
vn -0.59029 0.47126 -0.65534
vn -0.72392 0.54569 -0.42209
vn -0.71456 0.46280 -0.52462
vn -0.81108 0.58493 -0.00221
vn -0.83884 0.54438 -0.00009
vn -0.69922 0.61790 -0.35958
vn -0.78559 0.61873 -0.00452
vn 0.30324 0.88418 -0.35536
vn 0.29739 0.95475 0.00379
vn -0.57648 0.58283 -0.57269
vn 0.29465 0.77479 -0.55935
vn 0.69958 0.10475 -0.70683
vn -0.12104 -0.62842 -0.76840
vn 0.25285 -0.79889 -0.54575
vn 0.26690 -0.90291 -0.33693
vn -0.03459 -0.81379 -0.58012
vn 0.26826 -0.96335 0.00053
vn 0.13820 -0.99040 0.00050
vn -0.80045 -0.56984 -0.18588
vn -0.81413 -0.58068 0.00055
vn 0.31637 0.90753 0.27622
vn -0.73186 0.64990 0.20497
vn -0.62406 0.75864 0.18716
vn -0.30448 0.40484 0.86220
vn -0.13988 0.48172 0.86509
vn 0.41582 -0.10941 0.90284
vn 0.34013 -0.28262 0.89690
vn 0.58692 -0.76056 0.27763
vn 0.72695 -0.63594 0.25909
vn 0.91854 0.27062 0.28818
vn 0.30870 -0.33119 0.89163
vn 0.16655 -0.37425 0.91225
vn 0.18113 -0.91942 0.34908
vn 0.35149 -0.88286 0.31148
vn 0.91214 -0.32266 0.25277
vn 0.12633 0.93832 0.32185
vn 0.31719 0.90572 0.28119
vn 0.89037 0.38425 0.24414
vn 0.14465 0.39713 0.90629
vn 0.30058 0.36468 0.88128
vn -0.04262 0.44251 0.89575
vn -0.11118 0.92786 0.35596
vn -0.14023 0.92189 0.36118
vn -0.11360 0.74535 0.65692
vn -0.00663 -0.92792 0.37272
vn 0.00222 -0.75122 0.66005
vn -0.00183 -0.93162 0.36342
vn 0.01240 -0.43718 0.89929
vn 0.00600 -0.48027 0.87710
vn 0.00415 -0.50282 0.86438
vn 0.00817 -0.76429 0.64482
vn -0.10785 0.75513 0.64665
vn -0.07587 0.49930 0.86310
vn -0.07341 0.47984 0.87428
vn -0.10529 0.76170 0.63932
vn -0.07116 0.50827 0.85825
vn -0.12761 0.92538 0.35692
vn -0.12749 0.92881 0.34794
vn 0.00719 -0.77341 0.63386
vn 0.01124 -0.93665 0.35008
vn 0.00733 -0.77847 0.62764
vn 0.00404 -0.51529 0.85700
vn 0.00258 -0.51861 0.85501
vn -0.00167 -0.51461 0.85742
vn -0.10206 0.76873 0.63138
vn -0.10169 0.77625 0.62217
vn -0.06761 0.52516 0.84832
vn -0.06721 0.51673 0.85351
vn 0.00880 -0.94846 0.31678
vn 0.00416 -0.95101 0.30912
vn -0.07475 0.82970 0.55318
vn -0.10409 0.80438 0.58493
vn 0.10409 0.85387 0.50997
vn 0.07935 0.64121 0.76325
vn -0.06006 0.59375 0.80241
vn 0.51105 0.69480 0.50605
vn 0.38828 0.52696 0.75601
vn 0.80874 0.25121 0.53183
vn -0.03502 -0.80817 0.58791
vn -0.12878 -0.82929 0.54378
vn -0.00082 -0.95503 0.29652
vn -0.00458 -0.53010 0.84792
vn -0.02608 -0.55594 0.83082
vn -0.00170 -0.51762 0.85561
vn -0.10233 0.78393 0.61235
vn -0.10487 0.79220 0.60118
vn -0.07317 0.54140 0.83757
vn -0.06875 0.53254 0.84361
vn -0.07618 0.55764 0.82658
vn -0.09845 -0.60402 0.79087
vn -0.28758 -0.82159 0.49223
vn -0.22760 -0.63172 0.74103
vn -0.50389 -0.72080 0.47597
vn -0.38872 -0.56530 0.72755
vn -0.69631 -0.50152 0.51344
vn -0.51242 -0.38791 0.76613
vn -0.53903 -0.19623 0.81911
vn -0.77587 -0.26646 0.57186
vn 0.81265 -0.07595 0.57778
vn 0.56453 -0.05323 0.82370
vn 0.59592 0.18553 0.78132
vn 0.49349 -0.10409 0.86350
vn 0.92906 -0.20343 0.30896
vn -0.94622 -0.13039 0.29608
vn -0.94571 -0.01850 0.32448
vn -0.51858 -0.07709 0.85155
vn -0.50652 -0.01639 0.86207
vn -0.49726 0.02238 0.86731
vn 0.46859 -0.11628 0.87573
vn 0.45819 -0.12038 0.88067
vn 0.90404 -0.22515 0.36334
vn 0.91367 -0.22092 0.34118
vn -0.93799 0.06175 0.34112
vn -0.92595 0.14436 0.34896
vn 0.89518 -0.26535 0.35810
vn 0.89077 -0.25777 0.37427
vn 0.90103 -0.27684 0.33393
vn 0.46374 -0.14332 0.87430
vn 0.45224 -0.13106 0.88221
vn 0.49284 -0.15674 0.85589
vn 0.90922 -0.29350 0.29527
vn 0.89685 -0.37400 0.23618
vn -0.87231 0.33591 0.35531
vn -0.83773 0.42378 0.34442
vn -0.90216 0.24593 0.35443
vn -0.46152 0.12963 0.87761
vn -0.44849 0.18069 0.87533
vn -0.47965 0.07001 0.87466
vn 0.71625 -0.18868 0.67185
vn 0.71116 -0.19714 0.67482
vn 0.44620 -0.12450 0.88623
vn 0.45084 -0.12082 0.88439
vn 0.89555 -0.23387 0.37854
vn 0.89066 -0.24610 0.38231
vn 0.44682 -0.12538 0.88580
vn -0.43473 0.22652 0.87161
vn -0.78872 0.52182 0.32498
vn -0.41644 0.28256 0.86414
vn -0.73383 0.61025 0.29849
vn -0.40171 0.34512 0.84825
vn -0.56459 0.59990 0.56689
vn -0.39172 0.43448 0.81104
vn -0.36622 0.54616 0.75338
vn -0.50084 0.70355 0.50417
vn 0.53609 -0.21496 0.81633
vn 0.71364 -0.49728 0.49339
vn 0.53882 -0.36593 0.75880
vn 0.52984 -0.72374 0.44211
vn 0.41841 -0.56087 0.71440
vn -0.40406 0.79259 0.45666
vn -0.29064 0.84642 0.44620
vn -0.30898 0.63372 0.70917
vn -0.23665 0.67664 0.69725
vn -0.16047 0.67710 0.71818
vn -0.18020 0.86289 0.47217
vn 0.23159 -0.86881 0.43766
vn -0.05431 -0.87535 0.48043
vn -0.04911 -0.65957 0.75004
vn 0.18125 -0.67851 0.71188
vn -0.06628 0.84776 0.52622
vn -0.60545 -0.69633 0.38541
vn -0.58658 -0.73289 0.34468
vn -0.61008 -0.67864 0.40897
vn -0.30178 -0.30975 0.90166
vn -0.30859 -0.32870 0.89260
vn -0.29496 -0.30086 0.90691
vn -0.62212 -0.66199 0.41801
vn -0.63261 -0.65529 0.41280
vn 0.20107 0.92890 0.31098
vn 0.33316 0.87805 0.34355
vn 0.04695 0.81034 0.58408
vn 0.02013 0.56359 0.82581
vn 0.09772 0.50605 0.85695
vn -0.07055 0.63355 0.77048
vn -0.20064 -0.56058 0.80343
vn -0.27525 -0.45134 0.84884
vn -0.49522 -0.82056 0.28537
vn -0.30145 -0.92827 0.21782
vn -0.30322 -0.36953 0.87835
vn 0.16038 0.46337 0.87153
vn 0.45610 0.81011 0.36836
vn 0.21736 0.41837 0.88189
vn 0.46197 0.57361 0.67643
vn 0.58162 0.71776 0.38281
vn 0.28667 0.36035 0.88768
vn 0.55118 0.48822 0.67664
vn 0.68631 0.61536 0.38769
vn 0.35144 0.30386 0.88553
vn 0.40427 0.25100 0.87953
vn 0.62193 0.40651 0.66930
vn -0.28928 -0.30272 0.90812
vn -0.29025 -0.31440 0.90383
vn -0.29951 -0.33141 0.89469
vn -0.64449 -0.65312 0.39757
vn -0.65236 -0.65863 0.37501
vn 0.67837 0.33325 0.65480
vn 0.83243 0.42084 0.36050
vn 0.76772 0.51505 0.38122
vn 0.88677 0.32577 0.32790
vn 0.44460 0.20652 0.87159
vn 0.47919 0.16691 0.86170
vn 0.53803 0.10504 0.83636
vn 0.78402 0.17173 0.59651
vn -0.32685 -0.34548 0.87966
vn -0.38707 -0.36052 0.84865
vn -0.70992 -0.63989 0.29421
vn -0.66002 -0.66686 0.34592
vn 0.84544 0.05295 0.53143
vn -0.39189 0.79467 0.46360
vn -0.80348 0.38160 0.45694
vn 0.11796 0.84721 0.51799
vn 0.07251 0.62198 0.77967
vn -0.30445 0.62633 0.71765
vn 0.26912 0.44696 0.85311
vn 0.52077 0.82093 0.23425
vn 0.70440 0.65489 0.27375
vn 0.79524 -0.42421 0.43317
vn 0.54328 -0.69870 0.46547
vn 0.87721 -0.13736 0.46004
vn 0.69344 -0.12135 0.71023
vn 0.64311 -0.34397 0.68418
vn 0.62507 0.02127 0.78028
vn -0.50463 -0.31269 0.80472
vn -0.86457 -0.11783 0.48850
vn -0.64647 -0.09495 0.75701
vn -0.84162 -0.49397 0.21835
vn -0.62373 0.30074 0.72146
vn 0.43754 -0.53714 0.72114
vn 0.21765 -0.82035 0.52882
vn 0.17611 -0.58849 0.78909
vn -0.15229 -0.95671 0.24801
vn -0.05806 -0.51352 0.85611
vn -0.60657 -0.74234 0.28462
vn -0.27552 -0.35675 0.89265
vn -0.43680 -0.21385 0.87377
vn 0.35234 0.31731 0.88044
vn 0.40151 0.26266 0.87738
vn 0.43490 0.27472 0.85755
vn 0.81483 0.51313 0.26973
vn 0.78791 0.54673 0.28335
vn -0.86293 -0.41696 0.28547
vn -0.90748 -0.31565 0.27720
vn -0.77341 -0.27855 0.56943
vn -0.50963 -0.17521 0.84237
vn -0.54771 -0.19101 0.81457
vn -0.59312 -0.21257 0.77655
vn -0.79614 -0.29186 0.53007
vn 0.69819 0.43775 0.56648
vn 0.72420 0.45630 0.51703
vn 0.54355 0.34812 0.76379
vn 0.48293 0.31112 0.81853
vn -0.82117 -0.30225 0.48407
vn -0.35797 0.83450 0.41888
vn 0.37039 0.82624 0.42443
vn -0.73410 0.54364 0.40688
vn -0.62261 0.45634 0.63570
vn -0.29992 0.69138 0.65730
vn -0.77734 0.45724 0.43206
vn -0.64823 0.37964 0.66006
vn -0.75937 0.44663 0.47317
vn -0.04686 -0.91521 0.40024
vn -0.80397 -0.40683 0.43373
vn -0.76577 -0.50177 0.40227
vn -0.65213 -0.33634 0.67942
vn -0.63336 -0.42962 0.64365
vn -0.64172 -0.23206 0.73099
vn 0.75064 0.46717 0.46722
vn 0.72210 0.54357 0.42791
vn 0.60050 0.45007 0.66094
vn 0.60367 0.37486 0.70361
vn 0.30235 0.68434 0.66352
vn -0.03487 -0.78026 0.62448
vn 0.78861 -0.44595 0.42334
vn 0.74043 -0.54192 0.39760
vn 0.60994 -0.46951 0.63838
vn 0.64261 -0.37598 0.66760
vn 0.82263 -0.33448 0.45978
vn 0.65695 -0.26550 0.70564
vn 0.81094 -0.32276 0.48806
vn 0.63315 -0.24722 0.73349
vn 0.60702 -0.23855 0.75804
vn 0.79614 -0.31970 0.51377
vn -0.73388 0.43283 0.52352
vn -0.54189 0.32593 0.77467
vn -0.60367 0.35740 0.71263
vn -0.47331 0.29481 0.83010
vn -0.83361 0.50050 0.23364
vn 0.77811 -0.32267 0.53892
vn 0.77709 -0.30931 0.54814
vn 0.57485 -0.24649 0.78025
vn 0.57344 -0.23728 0.78413
vn 0.68406 -0.06769 0.72628
vn 0.85344 -0.14263 0.50130
vn -0.43074 0.22664 0.87356
vn -0.39837 -0.11745 0.90967
vn -0.91424 0.32533 0.24151
vn -0.87418 0.42090 0.24219
vn 0.89600 0.00842 0.44398
vn 0.36747 -0.75407 0.54437
vn 0.39445 -0.83379 0.38626
vn 0.28047 -0.54821 0.78791
vn 0.37070 -0.71674 0.59065
vn -0.71447 0.46369 0.52395
vn -0.71710 0.55060 0.42733
vn -0.57233 0.47713 0.66693
vn -0.52311 0.33917 0.78187
vn -0.69118 0.62168 0.36850
vn 0.29884 0.88083 0.36720
vn -0.55135 0.58472 0.59508
vn 0.28726 0.76677 0.57406
vn 0.75514 0.08353 0.65022
vn -0.06600 -0.82940 0.55475
vn 0.25552 -0.91300 0.31802
vn 0.23249 -0.82663 0.51248
vn -0.16694 -0.65578 0.73626
vn -0.79927 -0.57115 0.18696
f 1//1 281//2 282//2 6//1
f 1//3 7//4 5//5 281//6
f 1//7 6//7 8//8 7//8
f 2//9 11//10 8//10 6//9
f 2//11 10//12 9//13 11//14
f 2//15 6//15 282//16 10//16
f 3//17 14//18 15//19 16//20
f 3//21 12//22 283//23 14//24
f 3//25 16//25 13//26 12//26
f 4//27 19//28 18//29 17//30
f 4//31 17//32 13//32 16//31
f 4//33 16//20 15//19 19//34
f 19//34 15//19 20//35 21//35
f 19//28 21//36 22//36 18//29
f 22//36 21//36 23//37 24//38
f 285//39 284//40 25//41 26//39
f 285//39 26//39 14//24 283//23
f 26//42 25//41 27//43 20//42
f 26//42 20//42 15//19 14//18
f 27//43 25//41 28//44 29//45
f 27//46 29//47 30//48 23//37
f 27//46 23//37 21//35 20//35
f 30//48 29//47 31//49 32//50
f 30//48 32//50 33//51 34//52
f 30//48 34//52 24//38 23//37
f 287//53 286//54 35//55 28//44
f 287//53 28//44 25//41 284//40
f 35//55 286//54 36//56 37//57
f 35//55 37//57 38//58 31//59
f 35//55 31//59 29//45 28//44
f 38//58 37//57 39//60 40//60
f 38//61 40//62 41//63 42//64
f 38//61 42//64 32//50 31//49
f 42//64 41//63 288//65 43//66
f 42//64 43//66 33//51 32//50
f 44//67 289//68 45//69 39//70
f 44//67 39//70 37//57 36//56
f 290//71 291//72 48//73 49//74
f 290//71 49//74 50//75 47//76
f 50//75 49//74 51//77 52//78
f 50//75 52//78 53//79 54//80
f 50//75 54//80 55//81 47//76
f 55//81 54//80 56//82 57//83
f 58//84 292//85 59//86 60//87
f 58//84 60//87 61//88 46//89
f 61//88 45//69 289//68 46//89
f 61//90 60//91 62//91 63//90
f 61//90 63//90 64//92 45//92
f 64//92 40//60 39//60 45//92
f 64//93 63//94 65//95 66//96
f 64//93 66//96 41//63 40//62
f 66//96 65//95 293//97 294//98
f 66//96 294//98 288//65 41//63
f 65//95 63//94 62//99 48//73
f 65//95 48//73 291//72 293//97
f 62//91 60//91 59//86 51//100
f 62//99 51//77 49//74 48//73
f 59//86 292//85 295//101 67//102
f 59//86 67//102 52//103 51//100
f 67//102 295//101 296//104 68//105
f 67//102 68//105 53//106 52//103
f 68//105 296//104 69//107 70//108
f 68//105 70//108 71//109 53//106
f 71//109 70//108 72//110 73//111
f 71//112 73//113 74//113 56//82
f 71//112 56//82 54//80 53//79
f 74//113 73//113 75//114 76//114
f 74//115 76//116 77//117 78//118
f 74//115 78//118 57//83 56//82
f 79//119 297//120 80//121 72//110
f 79//119 72//110 70//108 69//107
f 80//121 297//120 81//122 82//123
f 80//124 82//125 83//125 75//124
f 80//124 75//124 73//111 72//110
f 83//125 82//125 84//126 85//126
f 83//127 85//128 86//128 87//127
f 83//127 87//127 76//114 75//114
f 87//129 86//130 298//130 299//131
f 87//129 299//131 77//117 76//116
f 88//132 89//133 90//133 84//134
f 88//132 84//134 82//123 81//122
f 92//135 300//136 94//136 95//135
f 92//135 95//135 96//137 93//138
f 96//139 95//140 97//140 98//139
f 96//139 98//139 99//141 100//141
f 96//137 100//142 101//143 93//138
f 101//143 100//142 102//144 103//145
f 302//146 104//147 105//148 106//146
f 302//146 106//146 107//149 91//149
f 107//149 90//133 89//133 91//149
f 107//150 106//151 108//151 109//150
f 107//150 109//150 110//152 90//152
f 110//152 85//126 84//126 90//152
f 110//153 109//154 111//155 112//156
f 110//153 112//156 86//128 85//128
f 112//156 111//155 303//157 304//158
f 112//156 304//158 298//130 86//130
f 111//155 109//154 108//159 94//159
f 111//155 94//136 300//136 303//157
f 108//151 106//151 105//160 97//160
f 108//159 97//140 95//140 94//159
f 105//148 104//147 301//161 113//162
f 105//160 113//163 98//163 97//160
f 113//162 301//161 305//164 114//165
f 113//163 114//166 99//166 98//163
f 114//165 305//164 115//167 116//168
f 114//166 116//168 117//169 99//166
f 117//169 116//168 118//170 119//171
f 117//172 119//173 120//174 102//144
f 117//172 102//144 100//141 99//141
f 120//174 119//173 121//175 122//176
f 120//174 122//176 123//177 124//178
f 120//174 124//178 103//145 102//144
f 306//179 307//180 125//181 118//170
f 306//179 118//170 116//168 115//167
f 125//181 307//180 126//182 127//183
f 125//181 127//183 128//184 121//185
f 125//181 121//185 119//171 118//170
f 128//184 127//183 129//186 130//187
f 128//188 130//189 131//190 132//191
f 128//188 132//191 122//176 121//175
f 132//191 131//190 308//192 309//193
f 132//191 309//193 123//177 122//176
f 310//194 311//195 133//196 129//186
f 310//194 129//186 127//183 126//182
f 313//197 135//198 137//199 138//197
f 313//197 138//197 139//200 136//200
f 139//201 138//202 140//202 141//201
f 139//201 141//201 142//203 143//203
f 139//200 143//204 144//204 136//200
f 144//204 143//204 145//205 146//205
f 147//206 314//207 148//208 149//209
f 147//206 149//209 150//210 134//211
f 150//210 133//196 311//195 134//211
f 150//210 149//212 151//212 152//213
f 150//210 152//213 153//214 133//196
f 153//214 130//187 129//186 133//196
f 153//215 152//216 154//216 155//215
f 153//215 155//215 131//190 130//189
f 155//217 154//218 312//219 315//220
f 155//217 315//220 308//192 131//190
f 154//216 152//216 151//221 137//221
f 154//218 137//199 135//198 312//219
f 151//212 149//212 148//222 140//222
f 151//221 140//202 138//202 137//221
f 148//208 314//207 316//223 156//223
f 148//222 156//224 141//224 140//222
f 156//223 316//223 317//225 157//226
f 156//224 157//226 142//227 141//224
f 157//226 317//225 158//228 159//229
f 157//226 159//229 160//230 142//227
f 160//230 159//229 161//231 162//232
f 160//233 162//234 163//234 145//233
f 160//233 145//233 143//203 142//203
f 163//234 162//234 164//235 165//235
f 163//236 165//237 318//237 166//236
f 163//236 166//236 146//205 145//205
f 167//238 319//239 168//240 161//231
f 167//238 161//231 159//229 158//228
f 168//240 319//239 169//241 170//242
f 168//240 170//242 171//243 164//244
f 168//240 164//244 162//232 161//231
f 171//243 170//242 172//245 173//246
f 171//247 173//248 174//248 175//247
f 171//247 175//247 165//235 164//235
f 175//249 174//250 176//251 320//252
f 175//249 320//252 318//237 165//237
f 177//253 321//254 178//255 172//245
f 177//253 172//245 170//242 169//241
f 322//256 180//257 182//258 183//259
f 322//256 183//259 184//260 181//261
f 184//260 183//259 185//262 186//263
f 184//260 186//263 187//264 188//264
f 184//260 188//265 189//266 181//261
f 189//266 188//265 190//267 323//268
f 191//269 324//270 192//271 193//272
f 191//269 193//272 194//273 179//274
f 194//273 178//255 321//254 179//274
f 194//273 193//272 195//275 196//276
f 194//273 196//276 197//277 178//255
f 197//277 173//246 172//245 178//255
f 197//278 196//279 198//280 199//278
f 197//278 199//278 174//248 173//248
f 199//281 198//280 325//282 326//283
f 199//281 326//283 176//251 174//250
f 198//280 196//279 195//284 182//258
f 198//280 182//258 180//257 325//282
f 195//275 193//272 192//271 185//285
f 195//284 185//262 183//259 182//258
f 192//271 324//270 327//286 200//287
f 192//271 200//287 186//288 185//285
f 200//287 327//286 328//289 201//290
f 200//287 201//291 187//291 186//288
f 201//290 328//289 202//292 203//293
f 201//291 203//294 204//294 187//291
f 204//294 203//294 205//295 206//295
f 204//296 206//297 207//297 190//296
f 204//296 190//296 188//264 187//264
f 207//297 206//297 208//298 209//298
f 207//299 209//300 210//301 211//302
f 207//299 211//302 323//268 190//267
f 212//303 329//304 213//305 205//306
f 212//303 205//306 203//293 202//292
f 213//305 329//304 214//307 215//308
f 213//309 215//308 216//310 208//309
f 213//309 208//309 206//295 205//295
f 216//310 215//308 217//311 218//312
f 216//313 218//314 219//315 220//316
f 216//313 220//316 209//298 208//298
f 220//316 219//315 330//317 221//318
f 220//316 221//318 210//301 209//300
f 222//319 331//320 223//321 217//311
f 222//319 217//311 215//308 214//307
f 225//322 332//322 227//323 228//324
f 225//325 228//324 229//326 226//327
f 229//326 228//324 230//328 231//329
f 229//326 231//329 232//330 233//331
f 229//326 233//331 234//332 226//327
f 234//332 233//331 235//333 333//334
f 236//335 334//335 237//336 238//336
f 236//337 238//338 239//339 224//340
f 239//339 223//321 331//320 224//340
f 239//339 238//338 240//341 241//342
f 239//339 241//342 242//343 223//321
f 242//343 218//312 217//311 223//321
f 242//344 241//345 243//346 244//347
f 242//344 244//347 219//315 218//314
f 244//347 243//346 335//348 336//349
f 244//347 336//349 330//317 219//315
f 243//346 241//345 240//350 227//323
f 243//346 227//323 332//351 335//348
f 240//352 238//336 237//336 230//352
f 240//350 230//328 228//324 227//323
f 237//353 334//354 337//355 245//356
f 237//353 245//356 231//357 230//358
f 245//356 337//355 338//359 246//360
f 245//356 246//360 232//361 231//357
f 246//360 338//359 247//362 248//363
f 246//360 248//363 249//364 232//361
f 249//364 248//363 250//365 251//366
f 249//367 251//368 252//369 235//333
f 249//367 235//333 233//331 232//330
f 252//369 251//368 253//370 254//370
f 252//369 254//371 255//372 339//373
f 252//369 339//373 333//334 235//333
f 256//374 340//375 257//376 250//365
f 256//374 250//365 248//363 247//362
f 257//376 340//375 258//377 259//378
f 257//376 259//378 260//379 253//380
f 257//376 253//380 251//366 250//365
f 260//379 259//378 261//381 262//382
f 260//383 262//384 263//384 264//383
f 260//383 264//383 254//370 253//370
f 264//385 263//386 341//387 265//388
f 264//385 265//388 255//372 254//371
f 266//389 342//390 267//391 261//381
f 266//389 261//381 259//378 258//377
f 344//392 343//393 269//394 270//395
f 344//392 270//395 11//14 9//13
f 270//395 269//394 271//396 272//397
f 270//395 272//397 8//10 11//10
f 272//398 271//399 273//400 274//401
f 272//398 274//401 7//8 8//8
f 274//401 273//400 345//402 275//403
f 274//401 275//403 5//5 7//4
f 345//402 273//400 276//404 268//405
f 276//406 267//406 342//407 268//407
f 276//404 273//400 271//399 277//408
f 276//406 277//409 278//409 267//406
f 278//410 262//382 261//381 267//391
f 278//411 277//412 279//413 280//414
f 278//411 280//414 263//384 262//384
f 280//414 279//413 346//415 347//416
f 280//417 347//418 341//418 263//417
f 279//413 277//412 271//396 269//394
f 279//413 269//394 343//393 346//415
f 352//419 282//2 281//2 348//419
f 281//6 5//5 353//420 348//421
f 353//422 354//422 352//423 348//423
f 352//424 354//425 355//425 349//424
f 355//426 9//13 10//12 349//427
f 10//16 282//16 352//428 349//428
f 358//429 357//430 356//430 350//429
f 356//431 283//23 12//22 350//432
f 12//26 13//26 358//433 350//433
f 17//30 18//29 359//434 351//435
f 358//436 13//32 17//32 351//436
f 359//437 357//437 358//438 351//438
f 361//439 360//439 357//437 359//437
f 18//29 22//440 361//440 359//434
f 24//441 362//442 361//440 22//440
f 364//443 363//444 284//445 285//443
f 283//23 356//431 364//443 285//443
f 360//446 365//447 363//444 364//446
f 356//430 357//430 360//446 364//446
f 367//448 366//449 363//444 365//447
f 362//442 368//450 367//451 365//452
f 360//439 361//439 362//442 365//452
f 370//453 369//454 367//451 368//450
f 34//455 33//456 370//453 368//450
f 362//442 24//441 34//455 368//450
f 366//449 371//457 286//54 287//458
f 284//445 363//444 366//449 287//458
f 372//459 36//56 286//54 371//457
f 369//460 373//461 372//459 371//457
f 366//449 367//448 369//460 371//457
f 375//462 374//462 372//459 373//461
f 377//463 376//464 375//465 373//466
f 369//454 370//453 377//463 373//466
f 43//66 288//65 376//464 377//463
f 370//453 33//456 43//66 377//463
f 374//467 378//468 289//68 44//67
f 36//56 372//459 374//467 44//67
f 380//469 379//470 291//72 290//71
f 47//76 381//471 380//469 290//71
f 383//472 382//473 380//469 381//471
f 385//474 384//475 383//472 381//471
f 47//76 55//81 385//474 381//471
f 57//83 386//476 385//474 55//81
f 388//477 387//478 292//85 58//84
f 46//89 389//479 388//477 58//84
f 46//89 289//68 378//468 389//479
f 391//480 390//481 388//477 389//480
f 378//482 392//482 391//480 389//480
f 378//482 374//462 375//462 392//482
f 394//483 393//484 391//485 392//486
f 375//465 376//464 394//483 392//486
f 294//98 293//97 393//484 394//483
f 376//464 288//65 294//98 394//483
f 379//470 390//487 391//485 393//484
f 293//97 291//72 379//470 393//484
f 382//488 387//478 388//477 390//481
f 379//470 380//469 382//473 390//487
f 395//489 295//101 292//85 387//478
f 382//488 383//490 395//489 387//478
f 396//491 296//104 295//101 395//489
f 383//490 384//492 396//491 395//489
f 397//493 69//107 296//104 396//491
f 384//492 398//494 397//493 396//491
f 400//495 399//496 397//493 398//494
f 386//476 401//497 400//498 398//499
f 384//475 385//474 386//476 398//499
f 403//500 402//500 400//498 401//497
f 78//118 77//117 403//501 401//497
f 386//476 57//83 78//118 401//497
f 399//496 404//502 297//120 79//119
f 69//107 397//493 399//496 79//119
f 405//503 81//122 297//120 404//502
f 402//504 406//505 405//505 404//504
f 399//496 400//495 402//504 404//504
f 408//506 407//506 405//505 406//505
f 410//507 409//508 408//508 406//507
f 402//500 403//500 410//507 406//507
f 299//131 298//509 409//509 410//510
f 403//501 77//117 299//131 410//510
f 407//511 411//512 89//512 88//132
f 81//122 405//503 407//511 88//132
f 413//513 412//514 300//514 92//513
f 93//138 414//515 413//513 92//513
f 416//516 415//517 413//517 414//516
f 418//518 417//518 416//516 414//516
f 93//138 101//143 418//519 414//515
f 103//145 419//520 418//519 101//143
f 421//521 420//522 104//147 302//521
f 91//523 422//523 421//521 302//521
f 91//523 89//512 411//512 422//523
f 424//524 423//525 421//525 422//524
f 411//526 425//526 424//524 422//524
f 411//526 407//506 408//506 425//526
f 427//527 426//528 424//529 425//530
f 408//508 409//508 427//527 425//530
f 304//531 303//532 426//528 427//527
f 409//509 298//509 304//531 427//527
f 412//533 423//533 424//529 426//528
f 303//532 300//514 412//514 426//528
f 415//534 420//534 421//525 423//525
f 412//533 413//517 415//517 423//533
f 428//535 301//161 104//147 420//522
f 415//534 416//536 428//536 420//534
f 429//537 305//164 301//161 428//535
f 416//536 417//538 429//538 428//536
f 430//539 115//167 305//164 429//537
f 417//538 431//540 430//539 429//538
f 433//541 432//542 430//539 431//540
f 419//543 434//544 433//545 431//543
f 417//518 418//518 419//543 431//543
f 436//546 435//547 433//545 434//544
f 124//178 123//177 436//546 434//544
f 419//520 103//145 124//178 434//544
f 432//542 437//548 307//180 306//179
f 115//167 430//539 432//542 306//179
f 438//549 126//182 307//180 437//548
f 435//550 439//551 438//549 437//548
f 432//542 433//541 435//550 437//548
f 441//552 440//553 438//549 439//551
f 443//554 442//555 441//556 439//557
f 435//547 436//546 443//554 439//557
f 309//193 308//192 442//555 443//554
f 436//546 123//177 309//193 443//554
f 440//553 444//558 311//195 310//194
f 126//182 438//549 440//553 310//194
f 446//559 445//560 135//198 313//559
f 136//561 447//561 446//559 313//559
f 449//562 448//563 446//563 447//562
f 451//564 450//564 449//562 447//562
f 136//561 144//565 451//565 447//561
f 146//566 452//566 451//565 144//565
f 454//567 453//568 314//207 147//206
f 134//211 455//569 454//567 147//206
f 134//211 311//195 444//558 455//569
f 457//570 456//571 454//571 455//569
f 444//558 458//572 457//570 455//569
f 444//558 440//553 441//552 458//572
f 460//573 459//574 457//574 458//573
f 441//556 442//555 460//573 458//573
f 315//220 312//219 459//575 460//576
f 442//555 308//192 315//220 460//576
f 445//577 456//577 457//574 459//574
f 312//219 135//198 445//560 459//575
f 448//578 453//578 454//571 456//571
f 445//577 446//563 448//563 456//577
f 461//579 316//579 314//207 453//568
f 448//578 449//580 461//580 453//578
f 462//581 317//582 316//579 461//579
f 449//580 450//583 462//581 461//580
f 463//584 158//585 317//582 462//581
f 450//583 464//586 463//584 462//581
f 466//587 465//588 463//584 464//586
f 452//589 467//590 466//590 464//589
f 450//564 451//564 452//589 464//589
f 469//591 468//591 466//590 467//590
f 166//592 318//593 469//593 467//592
f 452//566 146//566 166//592 467//592
f 465//588 470//594 319//595 167//596
f 158//585 463//584 465//588 167//596
f 471//597 169//241 319//595 470//594
f 468//598 472//599 471//599 470//594
f 465//588 466//587 468//598 470//594
f 474//600 473//601 471//599 472//599
f 476//602 475//603 474//603 472//602
f 468//591 469//591 476//602 472//602
f 320//252 176//251 475//604 476//605
f 469//593 318//593 320//252 476//605
f 473//601 477//606 321//254 177//253
f 169//241 471//597 473//601 177//253
f 479//607 478//608 180//257 322//256
f 181//261 480//609 479//607 322//256
f 482//610 481//611 479//607 480//609
f 484//612 483//612 482//610 480//609
f 181//261 189//266 484//613 480//609
f 323//268 485//614 484//613 189//266
f 487//615 486//616 324//270 191//269
f 179//274 488//617 487//615 191//269
f 179//274 321//254 477//606 488//617
f 490//618 489//619 487//615 488//617
f 477//606 491//620 490//618 488//617
f 477//606 473//601 474//600 491//620
f 493//621 492//622 490//623 491//621
f 474//603 475//603 493//621 491//621
f 326//283 325//282 492//622 493//624
f 475//604 176//251 326//283 493//624
f 478//608 489//625 490//623 492//622
f 325//282 180//257 478//608 492//622
f 481//626 486//616 487//615 489//619
f 478//608 479//607 481//611 489//625
f 494//627 327//286 324//270 486//616
f 481//626 482//628 494//627 486//616
f 495//629 328//289 327//286 494//627
f 482//628 483//630 495//630 494//627
f 496//631 202//292 328//289 495//629
f 483//630 497//632 496//632 495//630
f 499//633 498//633 496//632 497//632
f 485//634 500//635 499//635 497//634
f 483//612 484//612 485//634 497//634
f 502//636 501//636 499//635 500//635
f 211//302 210//301 502//637 500//638
f 485//614 323//268 211//302 500//638
f 498//639 503//640 329//304 212//303
f 202//292 496//631 498//639 212//303
f 504//641 214//307 329//304 503//640
f 501//642 505//643 504//641 503//642
f 498//633 499//633 501//642 503//642
f 507//644 506//645 504//641 505//643
f 509//646 508//647 507//648 505//649
f 501//636 502//636 509//646 505//649
f 221//318 330//317 508//647 509//646
f 502//637 210//301 221//318 509//646
f 506//645 510//650 331//320 222//319
f 214//307 504//641 506//645 222//319
f 512//651 511//652 332//322 225//322
f 226//327 513//653 512//651 225//325
f 515//654 514//655 512//651 513//653
f 517//656 516//657 515//654 513//653
f 226//327 234//332 517//656 513//653
f 333//334 518//658 517//656 234//332
f 520//659 519//659 334//335 236//335
f 224//340 521//660 520//661 236//337
f 224//340 331//320 510//650 521//660
f 523//662 522//663 520//661 521//660
f 510//650 524//664 523//662 521//660
f 510//650 506//645 507//644 524//664
f 526//665 525//666 523//667 524//668
f 507//648 508//647 526//665 524//668
f 336//349 335//348 525//666 526//665
f 508//647 330//317 336//349 526//665
f 511//652 522//669 523//667 525//666
f 335//348 332//351 511//652 525//666
f 514//670 519//659 520//659 522//670
f 511//652 512//651 514//655 522//669
f 527//671 337//355 334//354 519//672
f 514//673 515//674 527//671 519//672
f 528//675 338//359 337//355 527//671
f 515//674 516//676 528//675 527//671
f 529//677 247//362 338//359 528//675
f 516//676 530//678 529//677 528//675
f 532//679 531//680 529//677 530//678
f 518//658 533//681 532//682 530//683
f 516//657 517//656 518//658 530//683
f 535//684 534//684 532//682 533//681
f 339//373 255//372 535//685 533//681
f 518//658 333//334 339//373 533//681
f 531//680 536//686 340//375 256//374
f 247//362 529//677 531//680 256//374
f 537//687 258//377 340//375 536//686
f 534//688 538//689 537//687 536//686
f 531//680 532//679 534//688 536//686
f 540//690 539//691 537//687 538//689
f 542//692 541//693 540//693 538//692
f 534//684 535//684 542//692 538//692
f 265//388 341//387 541//694 542//695
f 535//685 255//372 265//388 542//695
f 539//691 543//696 342//390 266//389
f 258//377 537//687 539//691 266//389
f 545//697 544//698 343//393 344//392
f 9//13 355//426 545//697 344//392
f 547//699 546//700 544//698 545//697
f 355//425 354//425 547//699 545//697
f 549//701 548//702 546//703 547//704
f 354//422 353//422 549//701 547//704
f 275//403 345//402 548//702 549//701
f 353//420 5//5 275//403 549//701
f 268//405 550//705 548//702 345//402
f 268//407 342//407 543//706 550//706
f 551//707 546//703 548//702 550//705
f 543//706 552//708 551//708 550//706
f 543//696 539//691 540//690 552//709
f 554//710 553//711 551//712 552//713
f 540//693 541//693 554//710 552//713
f 347//416 346//415 553//711 554//710
f 541//714 341//418 347//418 554//714
f 544//698 546//700 551//712 553//711
f 346//415 343//393 544//698 553//711
