# pilowlava3D glyph 'b' variant 2 — Vincent Wagner / Velvetyne, Free Art License
v 3.95715 0.69076 0.52763
v 2.65394 2.02990 0.52574
v 2.45717 1.99510 0.52575
v 0.91457 2.62639 0.23568
v 4.29170 0.55876 0.27790
v 4.27306 0.89664 0.31943
v 4.07648 0.33552 0.32740
v 1.20405 2.86715 0.39664
v 1.15445 2.95035 0.22427
v 0.90862 2.83016 0.26270
v 1.08909 2.71577 0.46153
v 4.04068 1.31107 0.31892
v 3.82901 1.13609 0.51263
v 3.62080 0.37202 0.51079
v 3.69851 0.16929 0.31941
v 2.61429 1.72027 0.43049
v 2.71963 1.81868 0.42095
v 2.77112 2.09386 0.49912
v 2.73624 2.30278 0.48644
v 2.50723 2.35334 0.51127
v 2.29522 1.82283 0.28392
v 2.52162 1.64528 0.26285
v 0.88804 2.84658 -0.00000
v 1.06561 2.51666 0.30454
v 1.30593 2.41112 0.32528
v 1.34821 2.57138 0.50724
v 1.55267 2.28435 0.32448
v 1.61034 2.44081 0.52285
v 1.68551 2.65068 0.49496
v 1.41084 2.76395 0.45982
v 1.72679 2.78287 0.28220
v 1.45060 2.86853 0.24961
v 1.73888 2.84441 -0.00000
v 1.13746 2.96942 -0.00000
v 1.52563 2.22238 -0.00000
v 1.76210 2.08514 -0.00000
v 1.79852 2.15030 0.31784
v 2.00246 1.94074 -0.00000
v 2.04326 2.00045 0.31026
v 2.14736 2.17577 0.53994
v 1.87381 2.31649 0.53469
v 2.23328 2.44371 0.51998
v 1.95975 2.54783 0.51286
v 2.26534 2.64909 0.29214
v 1.99889 2.71153 0.29174
v 2.25220 1.78693 -0.00000
v 2.77722 1.46397 0.23557
v 2.81106 1.48591 0.37492
v 3.01549 1.29655 0.23845
v 3.06245 1.35098 0.40039
v 3.13898 1.45368 0.39867
v 2.86974 1.55636 0.37313
v 3.19945 1.12662 0.27616
v 3.34871 1.21595 0.48442
v 3.50332 1.37461 0.47164
v 3.60319 1.51697 0.29041
v 3.19574 1.53305 0.25255
v 3.54818 1.01401 0.52865
v 3.29627 0.95241 0.30462
v 3.31639 0.77723 0.31317
v 3.60131 0.74998 0.53053
v 3.24571 0.60578 0.29706
v 3.44266 0.50569 0.50815
v 3.09578 0.43763 0.26730
v 3.17985 0.34640 0.46730
v 3.27418 0.21363 0.46622
v 3.32575 0.09070 0.29138
v 2.92121 0.24889 0.43339
v 2.95797 0.12941 0.43523
v 2.98251 0.04323 0.25779
v 2.98823 0.00572 -0.00000
v 2.66152 0.09247 0.42277
v 2.66658 0.02660 0.24800
v 2.35986 0.02553 0.24479
v 2.05051 0.00628 -0.00000
v 1.77186 0.68541 -0.00000
v 1.62036 0.87785 -0.00000
v 1.55600 0.82920 0.29212
v 1.72873 0.64506 0.28373
v 1.39144 1.01914 0.29367
v 1.22053 0.86989 0.51341
v 1.41378 0.69162 0.50077
v 1.23155 1.21145 0.29322
v 1.04202 1.06013 0.51815
v 0.79085 0.84428 0.51516
v 1.00246 0.63929 0.50676
v 1.08055 1.40973 0.29224
v 0.88406 1.26743 0.51962
v 0.61137 1.07910 0.51678
v 0.40992 0.94651 0.29637
v 0.61217 0.68307 0.29502
v 0.74663 1.49007 0.51444
v 0.46863 1.33693 0.51188
v 0.25816 1.23832 0.29463
v 0.35993 1.60903 0.50378
v 0.15817 1.54208 0.29096
v 0.10173 1.85316 0.28686
v 0.01851 1.84245 -0.00000
v 0.00000 2.15708 -0.00000
v 0.47797 2.99491 -0.00000
v 0.47005 2.99806 0.24908
v 0.41687 2.75739 0.25590
v 0.59672 3.20857 0.25081
v 0.54753 3.24857 0.42150
v 0.41645 3.02012 0.42252
v 0.79259 3.34956 -0.00000
v 0.78049 3.36514 0.26203
v 0.73359 3.43266 0.43742
v 0.63570 3.55931 0.45132
v 0.43446 3.33344 0.44158
v 1.00544 3.45673 0.27571
v 0.96480 3.56039 0.45715
v 0.88212 3.73515 0.46595
v 0.79790 3.87121 0.28275
v 0.54753 3.65981 0.27736
v 1.21910 3.64651 0.48053
v 1.14857 3.86340 0.48419
v 1.07764 4.03212 0.28211
v 1.42711 3.96286 0.49428
v 1.36734 4.15452 0.28675
v 1.66833 4.23387 0.28672
v 1.95598 4.38250 -0.00000
v 2.82114 3.53649 0.29202
v 2.55850 3.54490 0.29079
v 3.07894 3.52699 0.29134
v 3.10221 3.73829 0.50572
v 2.83529 3.76162 0.50960
v 3.32018 3.43336 -0.00000
v 3.32835 3.50972 0.28907
v 3.36775 3.69476 0.49891
v 3.44458 3.96221 0.49451
v 3.15375 4.03460 0.50182
v 3.56750 3.47104 0.28545
v 3.62491 3.61983 0.47901
v 3.72961 3.84575 0.47882
v 3.82476 4.00704 0.28245
v 3.51751 4.15436 0.28491
v 3.85645 3.50074 0.45888
v 3.98654 3.66865 0.46274
v 4.10156 3.78764 0.28096
v 4.14214 3.82959 -0.00000
v 3.86470 4.06913 -0.00000
v 4.18216 3.41876 0.44867
v 4.30472 3.48952 0.27792
v 4.40709 3.14276 0.27441
v 3.79522 2.53975 -0.00000
v 3.98890 2.65306 -0.00000
v 3.56982 2.47809 0.27644
v 3.80763 2.52359 0.26691
v 3.30625 2.49340 0.29019
v 3.31084 2.37945 0.46172
v 3.59028 2.39452 0.44624
v 3.02393 2.53268 0.29445
v 3.02180 2.36492 0.47419
v 3.03944 2.19079 0.48005
v 3.32495 2.21440 0.46164
v 2.75354 2.56080 0.28543
v 2.52192 2.69201 -0.00000
v 2.51830 2.60393 0.28672
v 2.84323 1.93776 -0.00000
v 2.77226 1.76775 -0.00000
v 2.90159 1.59350 -0.00000
v 3.15658 1.11188 -0.00000
v 3.22440 0.94426 -0.00000
v 3.23012 0.78347 -0.00000
v 2.89224 0.31167 0.24404
v 2.64527 0.24911 0.23399
v 2.65189 0.21113 0.41937
v 2.38498 0.26483 0.23173
v 2.37935 0.22419 0.42013
v 2.36595 0.09539 0.42540
v 2.11531 0.28709 0.43385
v 2.07404 0.13790 0.43918
v 2.05243 0.04340 0.24927
v 1.78491 0.21830 0.46191
v 1.74310 0.08490 0.26720
v 1.73475 0.03184 -0.00000
v 1.43714 0.16608 0.27977
v 1.16831 1.47588 -0.00000
v 0.93936 1.61708 0.29264
v 0.87443 1.88802 -0.00000
v 0.80297 1.83226 0.29338
v 0.62521 1.72751 0.50743
v 0.66949 2.05209 0.29325
v 0.51645 1.97533 0.49490
v 0.28267 1.89428 0.49215
v 0.42152 2.23483 0.47027
v 0.22886 2.18560 0.47342
v 0.06997 2.16148 0.28390
v 0.19884 2.48101 0.45621
v 0.06425 2.47818 0.27751
v 0.01062 2.48001 -0.00000
v 0.10076 2.79861 0.27267
v 0.16019 3.12182 -0.00000
v 1.01937 3.42309 -0.00000
v 1.25354 3.50197 0.28676
v 1.51094 3.44716 -0.00000
v 1.50792 3.52529 0.28790
v 1.48618 3.70463 0.49443
v 1.76770 3.53858 0.28698
v 1.75361 3.74076 0.50328
v 1.71155 4.02915 0.50046
v 2.02311 3.76579 0.50540
v 1.99897 4.06769 0.50398
v 1.97219 4.28805 0.28960
v 2.28819 4.08717 0.50753
v 2.27746 4.31314 0.28934
v 2.27046 4.41422 -0.00000
v 2.58454 4.31556 0.28738
v 2.90685 4.40386 -0.00000
v 3.55132 3.41677 -0.00000
v 3.78696 3.39455 0.28122
v 3.97063 3.26650 0.27278
v 4.04005 3.32174 0.44050
v 4.08416 3.07328 0.26736
v 4.14826 3.08989 0.42728
v 4.29044 3.12141 0.43741
v 4.15097 2.83705 0.42305
v 4.29176 2.80568 0.43183
v 4.39757 2.78090 0.27329
v 4.15923 2.52138 0.43291
v 4.24972 2.45042 0.27560
v 4.27761 2.42964 -0.00000
v 3.97029 2.23055 0.27860
v 3.64475 2.13500 0.28445
v 3.34031 2.09628 0.28560
v 3.05654 2.05511 0.28248
v 2.83060 1.97077 0.27057
v 2.76077 1.78009 0.26659
v 2.89071 1.58579 0.24802
v 3.21266 1.56988 -0.00000
v 4.11571 1.40255 -0.00000
v 4.39524 0.95583 -0.00000
v 2.38513 0.26939 -0.00000
v 2.13926 0.35064 0.24115
v 1.92145 0.48375 0.26492
v 1.86078 0.38700 0.46004
v 1.62582 0.52631 0.48533
v 1.50363 0.32686 0.48225
v 1.24032 0.46693 0.49509
v 1.13796 0.28895 0.28594
v 0.85931 0.46187 0.29060
v 0.80360 0.38355 -0.00000
v 0.53877 0.61351 -0.00000
v 0.72857 2.09317 -0.00000
v 0.54283 2.27767 0.28609
v 0.44545 2.51221 0.26868
v 0.35914 2.49741 0.44584
v 0.35398 2.76336 0.42950
v 0.21375 2.78111 0.44553
v 0.28702 3.07262 0.43688
v 0.19545 3.10922 0.26886
v 0.34415 3.39983 0.26860
v 0.31161 3.41974 -0.00000
v 0.51462 3.69134 -0.00000
v 1.76769 3.44920 -0.00000
v 2.03015 3.44842 -0.00000
v 2.03051 3.54599 0.28771
v 2.29414 3.55012 0.28824
v 2.29403 3.77679 0.50856
v 2.56536 3.77397 0.51214
v 2.57697 4.08749 0.50768
v 2.86537 4.07177 0.50318
v 2.89381 4.29994 0.28728
v 3.20639 4.24989 0.28680
v 3.23323 4.34232 -0.00000
v 3.55500 4.23449 -0.00000
v 4.07358 3.07026 -0.00000
v 4.08555 2.85113 -0.00000
v 4.09386 2.84922 0.26418
v 3.99705 2.64781 0.26352
v 4.03992 2.61617 0.42245
v 3.84544 2.46259 0.43300
v 3.91688 2.32511 0.43896
v 3.62095 2.24173 0.45069
v 0.90142 2.61912 -0.00000
v 1.07075 2.47580 -0.00000
v 1.29593 2.35457 -0.00000
v 1.46617 2.90476 -0.00000
v 2.26706 2.73697 -0.00000
v 2.00666 2.78838 -0.00000
v 2.51231 1.61667 -0.00000
v 2.76645 1.45871 -0.00000
v 3.00070 1.28816 -0.00000
v 3.33838 0.02482 -0.00000
v 2.66783 0.00000 -0.00000
v 2.35888 0.00004 -0.00000
v 1.46909 1.07738 -0.00000
v 1.31787 1.27690 -0.00000
v 0.16912 1.20040 -0.00000
v 0.32433 0.89057 -0.00000
v 0.06936 1.52279 -0.00000
v 0.43194 2.75646 -0.00000
v 0.60318 3.20239 -0.00000
v 1.04375 4.09420 -0.00000
v 0.76230 3.91721 -0.00000
v 1.33672 4.22989 -0.00000
v 1.64514 4.32154 -0.00000
v 2.81962 3.43928 -0.00000
v 2.55792 3.44310 -0.00000
v 3.07587 3.43713 -0.00000
v 4.34489 3.51322 -0.00000
v 4.44525 3.14986 -0.00000
v 3.56048 2.51036 -0.00000
v 3.30864 2.53771 -0.00000
v 3.04394 2.59168 -0.00000
v 2.78131 2.64291 -0.00000
v 3.06374 2.00274 -0.00000
v 3.18085 0.61965 -0.00000
v 3.06830 0.45215 -0.00000
v 2.88365 0.31535 -0.00000
v 2.64132 0.24830 -0.00000
v 1.41826 0.09856 -0.00000
v 1.02131 1.68096 -0.00000
v 0.05845 2.80578 -0.00000
v 1.26133 3.44353 -0.00000
v 2.58564 4.42305 -0.00000
v 3.76725 3.36327 -0.00000
v 3.95417 3.25288 -0.00000
v 4.43348 2.77384 -0.00000
v 3.98823 2.20066 -0.00000
v 3.65662 2.09468 -0.00000
v 3.34839 2.04686 -0.00000
v 3.63602 1.58241 -0.00000
v 4.37736 0.51840 -0.00000
v 4.11181 0.20431 -0.00000
v 3.70877 0.07100 -0.00000
v 2.14687 0.36464 -0.00000
v 1.94271 0.51105 -0.00000
v 1.10315 0.21216 -0.00000
v 0.58616 2.29834 -0.00000
v 0.47202 2.51758 -0.00000
v 2.29407 3.44682 -0.00000
v 3.95715 0.69076 -0.52763
v 2.65394 2.02990 -0.52574
v 2.45717 1.99510 -0.52575
v 0.91457 2.62639 -0.23568
v 4.29170 0.55876 -0.27790
v 4.27306 0.89664 -0.31943
v 4.07648 0.33552 -0.32740
v 1.20405 2.86715 -0.39664
v 1.15445 2.95035 -0.22427
v 0.90862 2.83016 -0.26270
v 1.08909 2.71577 -0.46153
v 4.04068 1.31107 -0.31892
v 3.82901 1.13609 -0.51263
v 3.62080 0.37202 -0.51079
v 3.69851 0.16929 -0.31941
v 2.61429 1.72027 -0.43049
v 2.71963 1.81868 -0.42095
v 2.77112 2.09386 -0.49912
v 2.73624 2.30278 -0.48644
v 2.50723 2.35334 -0.51127
v 2.29522 1.82283 -0.28392
v 2.52162 1.64528 -0.26285
v 1.06561 2.51666 -0.30454
v 1.30593 2.41112 -0.32528
v 1.34821 2.57138 -0.50724
v 1.55267 2.28435 -0.32448
v 1.61034 2.44081 -0.52285
v 1.68551 2.65068 -0.49496
v 1.41084 2.76395 -0.45982
v 1.72679 2.78287 -0.28220
v 1.45060 2.86853 -0.24961
v 1.79852 2.15030 -0.31784
v 2.04326 2.00045 -0.31026
v 2.14736 2.17577 -0.53994
v 1.87381 2.31649 -0.53469
v 2.23328 2.44371 -0.51998
v 1.95975 2.54783 -0.51286
v 2.26534 2.64909 -0.29214
v 1.99889 2.71153 -0.29174
v 2.77722 1.46397 -0.23557
v 2.81106 1.48591 -0.37492
v 3.01549 1.29655 -0.23845
v 3.06245 1.35098 -0.40039
v 3.13898 1.45368 -0.39867
v 2.86974 1.55636 -0.37313
v 3.19945 1.12662 -0.27616
v 3.34871 1.21595 -0.48442
v 3.50332 1.37461 -0.47164
v 3.60319 1.51697 -0.29041
v 3.19574 1.53305 -0.25255
v 3.54818 1.01401 -0.52865
v 3.29627 0.95241 -0.30462
v 3.31639 0.77723 -0.31317
v 3.60131 0.74998 -0.53053
v 3.24571 0.60578 -0.29706
v 3.44266 0.50569 -0.50815
v 3.09578 0.43763 -0.26730
v 3.17985 0.34640 -0.46730
v 3.27418 0.21363 -0.46622
v 3.32575 0.09070 -0.29138
v 2.92121 0.24889 -0.43339
v 2.95797 0.12941 -0.43523
v 2.98251 0.04323 -0.25779
v 2.66152 0.09247 -0.42277
v 2.66658 0.02660 -0.24800
v 2.35986 0.02553 -0.24479
v 1.55600 0.82920 -0.29212
v 1.72873 0.64506 -0.28373
v 1.39144 1.01914 -0.29367
v 1.22053 0.86989 -0.51341
v 1.41378 0.69162 -0.50077
v 1.23155 1.21145 -0.29322
v 1.04202 1.06013 -0.51815
v 0.79085 0.84428 -0.51516
v 1.00246 0.63929 -0.50676
v 1.08055 1.40973 -0.29224
v 0.88406 1.26743 -0.51962
v 0.61137 1.07910 -0.51678
v 0.40992 0.94651 -0.29637
v 0.61217 0.68307 -0.29502
v 0.74663 1.49007 -0.51444
v 0.46863 1.33693 -0.51188
v 0.25816 1.23832 -0.29463
v 0.35993 1.60903 -0.50378
v 0.15817 1.54208 -0.29096
v 0.10173 1.85316 -0.28686
v 0.47005 2.99806 -0.24908
v 0.41687 2.75739 -0.25590
v 0.59672 3.20857 -0.25081
v 0.54753 3.24857 -0.42150
v 0.41645 3.02012 -0.42252
v 0.78049 3.36514 -0.26203
v 0.73359 3.43266 -0.43742
v 0.63570 3.55931 -0.45132
v 0.43446 3.33344 -0.44158
v 1.00544 3.45673 -0.27571
v 0.96480 3.56039 -0.45715
v 0.88212 3.73515 -0.46595
v 0.79790 3.87121 -0.28275
v 0.54753 3.65981 -0.27736
v 1.21910 3.64651 -0.48053
v 1.14857 3.86340 -0.48419
v 1.07764 4.03212 -0.28211
v 1.42711 3.96286 -0.49428
v 1.36734 4.15452 -0.28675
v 1.66833 4.23387 -0.28672
v 2.82114 3.53649 -0.29202
v 2.55850 3.54490 -0.29079
v 3.07894 3.52699 -0.29134
v 3.10221 3.73829 -0.50572
v 2.83529 3.76162 -0.50960
v 3.32835 3.50972 -0.28907
v 3.36775 3.69476 -0.49891
v 3.44458 3.96221 -0.49451
v 3.15375 4.03460 -0.50182
v 3.56750 3.47104 -0.28545
v 3.62491 3.61983 -0.47901
v 3.72961 3.84575 -0.47882
v 3.82476 4.00704 -0.28245
v 3.51751 4.15436 -0.28491
v 3.85645 3.50074 -0.45888
v 3.98654 3.66865 -0.46274
v 4.10156 3.78764 -0.28096
v 4.18216 3.41876 -0.44867
v 4.30472 3.48952 -0.27792
v 4.40709 3.14276 -0.27441
v 3.56982 2.47809 -0.27644
v 3.80763 2.52359 -0.26691
v 3.30625 2.49340 -0.29019
v 3.31084 2.37945 -0.46172
v 3.59028 2.39452 -0.44624
v 3.02393 2.53268 -0.29445
v 3.02180 2.36492 -0.47419
v 3.03944 2.19079 -0.48005
v 3.32495 2.21440 -0.46164
v 2.75354 2.56080 -0.28543
v 2.51830 2.60393 -0.28672
v 2.89224 0.31167 -0.24404
v 2.64527 0.24911 -0.23399
v 2.65189 0.21113 -0.41937
v 2.38498 0.26483 -0.23173
v 2.37935 0.22419 -0.42013
v 2.36595 0.09539 -0.42540
v 2.11531 0.28709 -0.43385
v 2.07404 0.13790 -0.43918
v 2.05243 0.04340 -0.24927
v 1.78491 0.21830 -0.46191
v 1.74310 0.08490 -0.26720
v 1.43714 0.16608 -0.27977
v 0.93936 1.61708 -0.29264
v 0.80297 1.83226 -0.29338
v 0.62521 1.72751 -0.50743
v 0.66949 2.05209 -0.29325
v 0.51645 1.97533 -0.49490
v 0.28267 1.89428 -0.49215
v 0.42152 2.23483 -0.47027
v 0.22886 2.18560 -0.47342
v 0.06997 2.16148 -0.28390
v 0.19884 2.48101 -0.45621
v 0.06425 2.47818 -0.27751
v 0.10076 2.79861 -0.27267
v 1.25354 3.50197 -0.28676
v 1.50792 3.52529 -0.28790
v 1.48618 3.70463 -0.49443
v 1.76770 3.53858 -0.28698
v 1.75361 3.74076 -0.50328
v 1.71155 4.02915 -0.50046
v 2.02311 3.76579 -0.50540
v 1.99897 4.06769 -0.50398
v 1.97219 4.28805 -0.28960
v 2.28819 4.08717 -0.50753
v 2.27746 4.31314 -0.28934
v 2.58454 4.31556 -0.28738
v 3.78696 3.39455 -0.28122
v 3.97063 3.26650 -0.27278
v 4.04005 3.32174 -0.44050
v 4.08416 3.07328 -0.26736
v 4.14826 3.08989 -0.42728
v 4.29044 3.12141 -0.43741
v 4.15097 2.83705 -0.42305
v 4.29176 2.80568 -0.43183
v 4.39757 2.78090 -0.27329
v 4.15923 2.52138 -0.43291
v 4.24972 2.45042 -0.27560
v 3.97029 2.23055 -0.27860
v 3.64475 2.13500 -0.28445
v 3.34031 2.09628 -0.28560
v 3.05654 2.05511 -0.28248
v 2.83060 1.97077 -0.27057
v 2.76077 1.78009 -0.26659
v 2.89071 1.58579 -0.24802
v 2.13926 0.35064 -0.24115
v 1.92145 0.48375 -0.26492
v 1.86078 0.38700 -0.46004
v 1.62582 0.52631 -0.48533
v 1.50363 0.32686 -0.48225
v 1.24032 0.46693 -0.49509
v 1.13796 0.28895 -0.28594
v 0.85931 0.46187 -0.29060
v 0.54283 2.27767 -0.28609
v 0.44545 2.51221 -0.26868
v 0.35914 2.49741 -0.44584
v 0.35398 2.76336 -0.42950
v 0.21375 2.78111 -0.44553
v 0.28702 3.07262 -0.43688
v 0.19545 3.10922 -0.26886
v 0.34415 3.39983 -0.26860
v 2.03051 3.54599 -0.28771
v 2.29414 3.55012 -0.28824
v 2.29403 3.77679 -0.50856
v 2.56536 3.77397 -0.51214
v 2.57697 4.08749 -0.50768
v 2.86537 4.07177 -0.50318
v 2.89381 4.29994 -0.28728
v 3.20639 4.24989 -0.28680
v 4.09386 2.84922 -0.26418
v 3.99705 2.64781 -0.26352
v 4.03992 2.61617 -0.42245
v 3.84544 2.46259 -0.43300
v 3.91688 2.32511 -0.43896
v 3.62095 2.24173 -0.45069
vn 0.48322 -0.15706 0.86130
vn 0.74351 0.14575 0.65265
vn 0.26998 -0.09741 0.95792
vn 0.49927 -0.58825 0.63616
vn -0.24927 0.54902 0.79777
vn -0.10655 0.93812 0.32951
vn -0.44445 0.82532 0.34830
vn 0.52997 0.59457 0.60466
vn 0.20734 0.26721 0.94107
vn 0.09410 -0.36135 0.92767
vn 0.24962 -0.79894 0.54717
vn 0.08267 -0.12487 0.98872
vn 0.09711 -0.06439 0.99319
vn 0.16412 -0.20092 0.96576
vn 0.11468 -0.17925 0.97710
vn 0.05138 0.27637 0.95968
vn 0.12751 0.37776 0.91708
vn 0.02804 -0.04113 0.99876
vn -0.42389 -0.62273 0.65766
vn -0.50664 -0.74588 0.43242
vn -0.55827 -0.76089 0.33072
vn -0.52526 -0.66273 0.53375
vn -0.62397 -0.77787 0.07472
vn -0.62840 -0.77789 -0.00126
vn -0.53953 -0.84196 -0.00038
vn -0.57671 -0.68231 0.44928
vn -0.65657 -0.23305 0.71736
vn -0.53515 -0.42309 0.73117
vn -0.99671 -0.04761 0.06557
vn -0.99883 -0.04834 -0.00048
vn -0.46066 -0.88758 0.00048
vn -0.43166 -0.78738 0.44012
vn -0.37239 -0.63124 0.68033
vn -0.42731 -0.79141 0.43713
vn -0.35476 -0.67528 0.64664
vn -0.02568 0.26598 0.96364
vn -0.00596 0.15199 0.98836
vn 0.24236 0.85118 0.46556
vn 0.22888 0.80857 0.54206
vn 0.23386 0.89382 0.38262
vn 0.24110 0.91910 0.31166
vn 0.24680 0.87234 0.42204
vn 0.23574 0.97182 0.00016
vn 0.23570 0.97182 0.00131
vn -0.11086 0.99384 0.00107
vn -0.43424 0.90080 -0.00003
vn -0.48294 -0.87565 0.00015
vn -0.50207 -0.86483 -0.00008
vn -0.43771 -0.77986 0.44746
vn -0.52957 -0.84827 -0.00030
vn -0.45556 -0.76479 0.45558
vn -0.36501 -0.65157 0.66500
vn -0.36064 -0.67139 0.64743
vn 0.00320 0.09731 0.99525
vn 0.03537 0.06200 0.99745
vn 0.21988 0.76299 0.60786
vn 0.20657 0.70982 0.67342
vn 0.20204 0.84859 0.48896
vn 0.21979 0.87128 0.43881
vn 0.19439 0.98092 0.00012
vn 0.21807 0.97593 -0.00001
vn -0.56095 -0.82785 -0.00106
vn -0.56459 -0.82537 -0.00038
vn -0.56646 -0.82409 0.00039
vn -0.55820 -0.79862 0.22497
vn -0.53613 -0.75463 0.37828
vn -0.65376 -0.75670 0.00048
vn -0.60272 -0.75374 0.26193
vn -0.53402 -0.72613 0.43308
vn -0.12031 0.13358 0.98371
vn 0.04726 -0.01019 0.99883
vn -0.73301 -0.55094 0.39895
vn -0.60262 -0.50411 0.61864
vn -0.10394 0.17423 0.97920
vn 0.02888 0.48183 0.87579
vn 0.17723 0.86841 0.46308
vn 0.08817 0.94503 0.31488
vn 0.11485 0.86886 0.48155
vn -0.00024 0.09070 0.99588
vn -0.63866 -0.21233 0.73961
vn -0.82910 -0.23896 0.50546
vn -0.83593 0.11341 0.53699
vn -0.62910 0.08788 0.77234
vn 0.00682 -0.01327 0.99989
vn -0.76222 0.45224 0.46314
vn -0.60151 0.40428 0.68901
vn -0.05557 -0.07136 0.99590
vn -0.61428 0.71731 0.32883
vn -0.51548 0.67614 0.52641
vn -0.09686 -0.06613 0.99310
vn 0.14694 -0.78311 0.60427
vn 0.13642 -0.89597 0.42264
vn -0.07496 -0.01519 0.99707
vn 0.09201 -0.88208 0.46203
vn 0.07706 -0.94675 0.31260
vn 0.05989 -0.99821 -0.00003
vn 0.12083 -0.99267 0.00008
vn 0.03213 -0.92545 0.37751
vn 0.02474 -0.96825 0.24875
vn 0.01718 -0.99985 0.00006
vn -0.03067 -0.96750 0.25100
vn -0.01853 -0.99983 0.00001
vn 0.76909 0.63914 0.00022
vn 0.65340 0.58132 0.48490
vn 0.63310 0.65348 0.41491
vn 0.72303 0.69082 0.00051
vn 0.78013 0.62562 -0.00002
vn 0.65038 0.54637 0.52771
vn 0.52129 0.46633 0.71470
vn 0.52665 0.51174 0.67879
vn 0.79002 0.61308 -0.00000
vn 0.65528 0.51858 0.54925
vn 0.53154 0.43199 0.72859
vn 0.00104 -0.01852 0.99983
vn 0.01294 -0.03586 0.99927
vn 0.67666 0.48729 0.55198
vn 0.55864 0.39670 0.72839
vn -0.01017 0.00080 0.99995
vn -0.56956 -0.36469 0.73662
vn -0.70662 -0.44935 0.54660
vn -0.61131 -0.57300 0.54587
vn -0.49502 -0.46275 0.73541
vn -0.01910 0.01559 0.99970
vn -0.63192 -0.27027 0.72639
vn -0.77928 -0.32520 0.53570
vn -0.92530 -0.37922 0.00001
vn -0.84504 -0.53470 -0.00007
vn -0.68686 -0.18464 0.70295
vn -0.83109 -0.21028 0.51486
vn -0.97210 -0.23457 0.00004
vn -0.86552 -0.11864 0.48661
vn -0.99246 -0.12254 -0.00014
vn 0.93124 -0.36441 -0.00005
vn 0.91420 -0.35881 0.18840
vn 0.97529 -0.04638 0.21601
vn 0.99954 -0.03030 -0.00015
vn 0.75468 -0.65609 0.00003
vn 0.74659 -0.63267 0.20574
vn 0.71965 -0.59366 0.36009
vn 0.87783 -0.34572 0.33149
vn 0.49238 -0.87038 0.00019
vn 0.49757 -0.82731 0.26072
vn 0.48660 -0.75911 0.43240
vn 0.01613 -0.09994 0.99486
vn 0.07709 -0.08791 0.99314
vn 0.25514 -0.90690 0.33530
vn 0.26498 -0.81060 0.52222
vn -0.03700 -0.07254 0.99668
vn -0.43014 0.62694 0.64955
vn -0.52076 0.73149 0.44015
vn -0.66412 0.63266 0.39835
vn -0.56781 0.55659 0.60646
vn -0.04751 -0.03643 0.99821
vn -0.32396 0.66428 0.67364
vn -0.39846 0.78672 0.47149
vn -0.46210 0.88683 0.00006
vn -0.59076 0.80684 0.00028
vn -0.23076 0.68509 0.69094
vn -0.28707 0.81912 0.49662
vn -0.33944 0.94063 0.00003
vn -0.18829 0.83620 0.51509
vn -0.22804 0.97365 0.00018
vn -0.02314 -0.99973 0.00001
vn -0.02740 -0.84758 0.52996
vn -0.02168 -0.84249 0.53827
vn -0.02136 -0.99977 -0.00001
vn -0.03163 -0.99950 -0.00010
vn -0.04396 -0.85931 0.50955
vn -0.05521 -0.71268 0.69931
vn -0.03125 -0.69790 0.71551
vn -0.07779 -0.99697 -0.00050
vn -0.09285 -0.87633 0.47267
vn -0.10539 -0.73652 0.66816
vn 0.04412 -0.00224 0.99902
vn 0.01926 0.01190 0.99974
vn -0.21044 -0.88132 0.42306
vn -0.21201 -0.74909 0.62763
vn 0.05587 -0.02794 0.99805
vn 0.38215 0.61607 0.68878
vn 0.47167 0.73573 0.48603
vn 0.31906 0.79789 0.51144
vn 0.25502 0.66506 0.70190
vn 0.03254 -0.05499 0.99796
vn 0.54060 0.50959 0.66939
vn 0.65703 0.60171 0.45416
vn 0.74487 0.66721 -0.00006
vn 0.54924 0.83566 -0.00041
vn 0.69637 0.33815 0.63302
vn 0.82339 0.38732 0.41473
vn 0.90898 0.41685 0.00006
vn 0.91716 0.12068 0.37982
vn 0.99231 0.12377 -0.00014
vn -0.03443 0.99941 -0.00004
vn -0.05802 0.95469 0.29190
vn -0.36277 0.90159 0.23567
vn -0.34759 0.93765 0.00023
vn 0.12830 0.99174 0.00015
vn 0.08693 0.92645 0.36625
vn 0.04268 0.82750 0.55984
vn -0.07983 0.88413 0.46037
vn 0.15695 0.98761 0.00019
vn 0.08293 0.88231 0.46331
vn 0.02858 0.41547 0.90916
vn 0.04653 0.03701 0.99823
vn 0.04847 0.02070 0.99861
vn 0.11470 0.83861 0.53252
vn 0.16362 0.98652 -0.00022
vn 0.18090 0.98350 -0.00004
vn 0.18381 0.82770 0.53021
vn -0.96850 -0.24903 0.00024
vn -0.82511 -0.56497 0.00109
vn -0.99138 0.13105 -0.00001
vn -0.88151 0.47216 0.00137
vn -0.68839 0.72534 0.00128
vn -0.41595 0.90939 0.00026
vn -0.37501 0.90512 0.20030
vn -0.32500 0.87680 0.35439
vn -0.09388 0.99558 0.00001
vn -0.08374 0.98841 0.12662
vn -0.07243 0.96785 0.24086
vn -0.02105 0.02383 0.99949
vn 0.19150 0.97230 0.13405
vn 0.16763 0.95594 0.24098
vn 0.03060 0.03104 0.99905
vn -0.04247 -0.92323 0.38191
vn 0.07042 0.00962 0.99747
vn -0.10833 -0.87934 0.46372
vn -0.09017 -0.94627 0.31055
vn -0.06997 -0.99755 -0.00009
vn -0.17244 -0.80355 0.56971
vn -0.17051 -0.90437 0.39121
vn -0.16451 -0.98638 0.00004
vn -0.27482 -0.84584 0.45719
vn -0.29246 -0.95628 0.00031
vn 0.75864 0.55192 0.34618
vn 0.82535 0.56462 -0.00003
vn 0.70478 0.46349 0.53708
vn 0.59209 0.36868 0.71660
vn 0.83306 0.55318 -0.00017
vn 0.73380 0.45606 0.50354
vn 0.63022 0.35753 0.68920
vn -0.02421 0.02780 0.99932
vn 0.76811 0.45705 0.44846
vn 0.67781 0.36289 0.63943
vn -0.02326 0.05543 0.99819
vn -0.73122 -0.11306 0.67270
vn 0.00397 0.07844 0.99691
vn -0.76618 -0.05309 0.64043
vn -0.89153 -0.04447 0.45077
vn -0.99940 -0.03463 0.00004
vn -0.79992 0.02850 0.59943
vn -0.91213 0.05013 0.40683
vn -0.99751 0.07047 0.00004
vn -0.91169 0.19068 0.36396
vn -0.97635 0.21620 -0.00013
vn 0.23616 -0.97172 -0.00022
vn 0.09070 -0.99588 -0.00020
vn 0.11541 -0.90520 0.40902
vn 0.13649 -0.78857 0.59961
vn 0.04130 -0.99915 0.00024
vn 0.06124 -0.88273 0.46588
vn 0.07919 -0.75417 0.65188
vn -0.03302 -0.00922 0.99941
vn 0.03597 -0.86378 0.50258
vn 0.04979 -0.72731 0.68450
vn -0.01922 0.00287 0.99981
vn -0.14808 0.69526 0.70334
vn -0.01145 0.00467 0.99992
vn -0.08603 0.69441 0.71442
vn -0.11189 0.84079 0.52966
vn -0.13851 0.99036 -0.00003
vn -0.02846 0.69381 0.71960
vn -0.04083 0.84066 0.54002
vn -0.05406 0.99854 -0.00000
vn 0.01973 0.83707 0.54674
vn 0.01913 0.99982 0.00003
vn -0.20014 -0.97977 0.00002
vn -0.41594 -0.90939 0.00017
vn -0.42205 -0.83155 0.36110
vn -0.40781 -0.71450 0.56849
vn -0.71209 -0.70209 -0.00036
vn -0.70647 -0.64680 0.28731
vn -0.67218 -0.56520 0.47825
vn -0.01081 -0.06415 0.99788
vn -0.93511 -0.27328 0.22559
vn -0.88705 -0.24046 0.39410
vn -0.05133 -0.03942 0.99790
vn 0.79759 0.11162 0.59278
vn -0.06324 0.00597 0.99798
vn 0.79647 -0.17959 0.57739
vn 0.90732 -0.20672 0.36610
vn 0.97460 -0.22396 0.00001
vn 0.64610 -0.49780 0.57858
vn 0.73559 -0.57059 0.36514
vn 0.78848 -0.61506 0.00005
vn 0.43638 -0.82538 0.35822
vn 0.46506 -0.88528 0.00010
vn 0.14372 -0.98962 -0.00005
vn 0.21793 -0.97596 0.00003
vn 0.19965 -0.91187 0.35866
vn 0.12609 -0.91951 0.37229
vn 0.21939 -0.90345 0.36831
vn 0.23105 -0.97294 -0.00030
vn 0.10490 -0.82224 0.55940
vn 0.20176 -0.80796 0.55362
vn 0.29369 -0.79049 0.53747
vn 0.30751 -0.88340 0.35361
vn 0.31271 -0.94985 -0.00060
vn 0.91861 -0.33156 0.21498
vn 0.88881 -0.29142 0.35369
vn 0.93090 -0.36528 -0.00073
vn 0.83613 0.53933 0.10010
vn 0.84979 0.49976 0.16763
vn 0.81809 0.57508 0.00078
vn 0.16944 0.95328 0.25011
vn 0.21156 0.89196 0.39955
vn 0.05986 0.99821 0.00011
vn 0.12246 0.99247 -0.00017
vn 0.18944 0.98189 -0.00038
vn 0.65080 0.75925 0.00027
vn 0.96671 0.25589 -0.00116
vn 0.88088 -0.33093 0.33844
vn 0.93543 -0.35351 -0.00165
vn 0.57622 -0.81730 -0.00002
vn 0.25563 -0.96677 -0.00025
vn 0.45660 0.88967 -0.00004
vn 0.41297 0.88562 0.21247
vn 0.21333 0.97698 0.00013
vn 0.62166 0.78329 0.00014
vn 0.55899 0.76553 0.31857
vn 0.48042 0.72544 0.49288
vn 0.36079 0.86443 0.35013
vn 0.52613 0.59562 0.60698
vn 0.05079 -0.04072 0.99788
vn 0.07745 -0.02363 0.99672
vn 0.02661 -0.04350 0.99870
vn -0.33520 -0.63609 0.69501
vn -0.38740 -0.77267 0.50290
vn -0.25171 -0.71876 0.64810
vn -0.41566 -0.55278 0.72226
vn -0.50213 -0.68189 0.53188
vn -0.58713 -0.80950 0.00014
vn -0.43482 -0.90052 0.00040
vn -0.72892 -0.68460 -0.00006
vn 0.87695 0.48058 -0.00008
vn 0.83052 0.41570 0.37072
vn 0.84087 0.54124 -0.00049
vn 0.95771 0.28772 0.00014
vn 0.92667 0.24562 0.28451
vn 0.86969 0.19729 0.45247
vn 0.75790 0.33854 0.55765
vn 0.92977 -0.06173 0.36292
vn 0.10176 0.02420 0.99451
vn 0.05942 0.06485 0.99612
vn 0.10840 -0.03295 0.99356
vn -0.78805 0.32069 0.52549
vn -0.87035 0.35507 0.34119
vn -0.81850 0.15948 0.55193
vn -0.69859 0.45765 0.55003
vn -0.78682 0.50412 0.35605
vn -0.84664 0.53217 -0.00006
vn -0.92562 0.37847 -0.00004
vn -0.73193 0.68138 0.00004
vn 0.00831 -0.99997 0.00001
vn 0.01815 -0.85007 0.52635
vn 0.02114 -0.99978 0.00006
vn -0.00708 -0.99997 0.00000
vn -0.00442 -0.84292 0.53802
vn -0.00191 -0.69799 0.71610
vn 0.02746 -0.70789 0.70579
vn -0.02199 -0.69489 0.71878
vn 0.00327 0.01275 0.99991
vn -0.00947 0.00621 0.99994
vn 0.01236 0.01586 0.99980
vn 0.07156 0.68633 0.72376
vn 0.09182 0.83299 0.54562
vn 0.02047 0.69176 0.72184
vn 0.15023 0.68146 0.71627
vn 0.19435 0.82388 0.53240
vn 0.24011 0.97075 -0.00003
vn 0.11392 0.99349 -0.00021
vn 0.38119 0.92450 -0.00005
vn -0.97989 0.19954 -0.00003
vn -0.95993 0.20133 0.19494
vn -0.95463 -0.29780 -0.00016
vn -0.74284 0.66947 0.00005
vn -0.73669 0.64626 0.19911
vn -0.71400 0.60890 0.34559
vn -0.91621 0.19811 0.34831
vn -0.36879 0.84414 0.38912
vn 0.01186 0.05435 0.99845
vn -0.03434 0.04499 0.99840
vn 0.03847 0.03419 0.99867
vn 0.17408 -0.81448 0.55346
vn 0.38765 -0.72778 0.56574
vn 0.51880 -0.58717 -0.62135
vn 0.28774 -0.10161 -0.95230
vn 0.75784 0.13400 -0.63853
vn 0.79564 -0.29424 -0.52952
vn -0.21795 0.54555 -0.80924
vn -0.41149 0.83606 -0.36287
vn -0.08068 0.94108 -0.32842
vn -0.05317 0.70138 -0.71080
vn 0.20210 0.26425 -0.94304
vn 0.52919 0.59355 -0.60634
vn 0.25164 -0.79757 -0.54823
vn 0.09421 -0.35829 -0.92885
vn 0.22068 -0.17556 -0.95942
vn 0.18992 -0.20430 -0.96031
vn 0.10850 -0.06199 -0.99216
vn 0.18372 -0.11624 -0.97608
vn 0.12258 0.38206 -0.91597
vn 0.11001 0.28416 -0.95245
vn 0.16344 -0.03299 -0.98600
vn -0.54981 -0.63963 -0.53720
vn -0.57013 -0.75093 -0.33324
vn -0.51306 -0.73999 -0.43495
vn -0.43677 -0.61074 -0.66048
vn -0.58646 -0.68848 -0.42668
vn -0.62919 -0.77340 -0.07722
vn -0.70357 -0.27838 -0.65383
vn -0.56007 -0.44967 -0.69579
vn -0.99659 -0.04887 -0.06652
vn -0.43212 -0.78828 -0.43805
vn -0.37244 -0.63410 -0.67765
vn -0.35436 -0.67515 -0.64700
vn -0.42723 -0.79140 -0.43721
vn -0.03153 0.25801 -0.96563
vn -0.00700 0.15171 -0.98840
vn 0.24660 0.92015 -0.30415
vn 0.23329 0.89400 -0.38254
vn 0.22922 0.80840 -0.54217
vn 0.25338 0.85426 -0.45391
vn -0.43747 -0.77983 -0.44775
vn -0.45614 -0.76445 -0.45557
vn -0.36006 -0.67137 -0.64778
vn -0.36548 -0.65180 -0.66451
vn 0.00350 0.09748 -0.99523
vn 0.03577 0.06112 -0.99749
vn 0.21964 0.87143 -0.43861
vn 0.20004 0.84997 -0.48737
vn 0.20296 0.71317 -0.67097
vn 0.21927 0.76348 -0.60748
vn -0.56266 -0.79577 -0.22398
vn -0.54602 -0.74802 -0.37727
vn -0.60917 -0.75038 -0.25659
vn -0.54541 -0.72298 -0.42406
vn 0.04857 -0.01104 -0.99876
vn -0.11585 0.13131 -0.98455
vn -0.60797 -0.49865 -0.61784
vn -0.73756 -0.54589 -0.39751
vn 0.02876 0.47920 -0.87723
vn -0.10365 0.17101 -0.97980
vn 0.13291 0.86685 -0.48053
vn 0.09801 0.94426 -0.31426
vn 0.17690 0.86750 -0.46491
vn -0.00834 0.08917 -0.99598
vn -0.82777 -0.23923 -0.50751
vn -0.63396 -0.21403 -0.74316
vn -0.62600 0.08673 -0.77498
vn -0.83499 0.11205 -0.53874
vn -0.00232 -0.01343 -0.99991
vn -0.58151 0.40367 -0.70632
vn -0.75640 0.45208 -0.47274
vn -0.06147 -0.07075 -0.99560
vn -0.49772 0.67643 -0.54288
vn -0.60897 0.71803 -0.33704
vn -0.09586 -0.06712 -0.99313
vn 0.13152 -0.89745 -0.42106
vn 0.14132 -0.78621 -0.60159
vn -0.07285 -0.01712 -0.99720
vn 0.07714 -0.94685 -0.31229
vn 0.09402 -0.88221 -0.46137
vn 0.02436 -0.96812 -0.24929
vn 0.03105 -0.92502 -0.37866
vn -0.02998 -0.96742 -0.25141
vn 0.63387 0.65263 -0.41507
vn 0.65536 0.58001 -0.48383
vn 0.65063 0.54616 -0.52762
vn 0.53035 0.50980 -0.67737
vn 0.52197 0.46583 -0.71452
vn 0.65516 0.51861 -0.54937
vn 0.53119 0.43210 -0.72878
vn 0.01287 -0.03597 -0.99927
vn 0.00076 -0.01865 -0.99983
vn 0.55861 0.39651 -0.72852
vn 0.67664 0.48722 -0.55206
vn -0.01022 0.00074 -0.99995
vn -0.49537 -0.46289 -0.73508
vn -0.61141 -0.57303 -0.54573
vn -0.70664 -0.44937 -0.54655
vn -0.56970 -0.36483 -0.73644
vn -0.01912 0.01560 -0.99970
vn -0.77924 -0.32500 -0.53587
vn -0.63176 -0.26983 -0.72669
vn -0.83094 -0.20949 -0.51541
vn -0.68627 -0.18306 -0.70394
vn -0.86540 -0.11833 -0.48691
vn 0.97544 -0.04610 -0.21538
vn 0.91415 -0.35892 -0.18841
vn 0.74666 -0.63242 -0.20625
vn 0.87784 -0.34578 -0.33142
vn 0.71996 -0.59268 -0.36110
vn 0.49638 -0.82818 -0.26022
vn 0.48553 -0.76012 -0.43183
vn 0.07711 -0.08956 -0.99299
vn 0.01750 -0.09994 -0.99484
vn 0.26086 -0.81429 -0.51855
vn 0.25297 -0.90821 -0.33341
vn -0.03740 -0.07149 -0.99674
vn -0.56758 0.55911 -0.60436
vn -0.66378 0.63380 -0.39710
vn -0.52051 0.73205 -0.43951
vn -0.42989 0.62781 -0.64888
vn -0.04878 -0.03825 -0.99808
vn -0.39850 0.78676 -0.47139
vn -0.32392 0.66437 -0.67356
vn -0.28695 0.81932 -0.49636
vn -0.23045 0.68561 -0.69053
vn -0.18833 0.83620 -0.51508
vn -0.02167 -0.84248 -0.53829
vn -0.02750 -0.84752 -0.53005
vn -0.04372 -0.85948 -0.50930
vn -0.03149 -0.69773 -0.71567
vn -0.05459 -0.71327 -0.69876
vn -0.09350 -0.87589 -0.47336
vn -0.10589 -0.73607 -0.66858
vn 0.01919 0.01207 -0.99974
vn 0.04444 -0.00329 -0.99901
vn -0.21515 -0.74558 -0.63073
vn -0.21220 -0.88003 -0.42488
vn 0.05605 -0.02713 -0.99806
vn 0.25538 0.66424 -0.70255
vn 0.31933 0.79751 -0.51187
vn 0.47173 0.73556 -0.48623
vn 0.38219 0.61634 -0.68852
vn 0.03315 -0.05035 -0.99818
vn 0.65696 0.60154 -0.45449
vn 0.54033 0.50923 -0.66987
vn 0.82318 0.38638 -0.41604
vn 0.69534 0.33596 -0.63533
vn 0.91704 0.12017 -0.38026
vn -0.36252 0.90167 -0.23573
vn -0.05677 0.95534 -0.29002
vn 0.08482 0.92690 -0.36559
vn -0.07745 0.88616 -0.45686
vn 0.03874 0.82835 -0.55887
vn 0.08598 0.88230 -0.46277
vn 0.03193 0.41594 -0.90883
vn 0.04847 0.02132 -0.99860
vn 0.04732 0.03688 -0.99820
vn 0.12084 0.83824 -0.53175
vn 0.18318 0.82841 -0.52933
vn -0.37389 0.90524 -0.20186
vn -0.32108 0.87689 -0.35773
vn -0.08434 0.98850 -0.12550
vn -0.07380 0.96828 -0.23871
vn -0.02078 0.02352 -0.99951
vn 0.16902 0.95605 -0.23959
vn 0.19237 0.97224 -0.13321
vn 0.03108 0.03149 -0.99902
vn -0.04087 -0.92296 -0.38271
vn 0.07194 0.01031 -0.99736
vn -0.09073 -0.94622 -0.31053
vn -0.11006 -0.87922 -0.46353
vn -0.17312 -0.90431 -0.39019
vn -0.17783 -0.80368 -0.56787
vn -0.27712 -0.84577 -0.45594
vn 0.75861 0.55195 -0.34621
vn 0.70468 0.46376 -0.53698
vn 0.59192 0.36934 -0.71640
vn 0.73405 0.45530 -0.50386
vn 0.63052 0.35643 -0.68949
vn -0.02416 0.02809 -0.99931
vn 0.67893 0.35736 -0.64137
vn 0.76911 0.45378 -0.45006
vn -0.02334 0.05418 -0.99826
vn -0.73101 -0.11276 -0.67299
vn 0.00287 0.07485 -0.99719
vn -0.89142 -0.04433 -0.45100
vn -0.76583 -0.05264 -0.64089
vn -0.91172 0.05100 -0.40764
vn -0.79876 0.03041 -0.60089
vn -0.91112 0.19141 -0.36501
vn 0.11523 -0.90531 -0.40883
vn 0.13542 -0.78922 -0.59899
vn 0.06158 -0.88260 -0.46608
vn 0.08025 -0.75346 -0.65257
vn -0.03332 -0.00950 -0.99940
vn 0.04866 -0.72780 -0.68407
vn 0.03531 -0.86399 -0.50226
vn -0.01896 0.00321 -0.99981
vn -0.14823 0.69499 -0.70358
vn -0.01141 0.00476 -0.99992
vn -0.11197 0.84065 -0.52987
vn -0.08620 0.69407 -0.71472
vn -0.04084 0.84066 -0.54002
vn -0.02846 0.69381 -0.71959
vn 0.01972 0.83715 -0.54662
vn -0.42203 -0.83222 -0.35960
vn -0.40799 -0.71636 -0.56602
vn -0.70575 -0.64773 -0.28699
vn -0.67057 -0.56798 -0.47721
vn -0.01160 -0.06290 -0.99795
vn -0.88582 -0.23826 -0.39818
vn -0.93488 -0.27212 -0.22793
vn -0.05292 -0.04096 -0.99776
vn 0.79732 0.11070 -0.59332
vn -0.06291 0.00572 -0.99800
vn 0.90769 -0.20672 -0.36520
vn 0.79757 -0.17965 -0.57586
vn 0.73566 -0.57050 -0.36514
vn 0.64620 -0.49758 -0.57866
vn 0.43621 -0.82528 -0.35865
vn 0.12635 -0.91943 -0.37240
vn 0.19971 -0.91182 -0.35874
vn 0.22077 -0.90345 -0.36748
vn 0.20384 -0.80879 -0.55163
vn 0.10532 -0.82210 -0.55951
vn 0.30986 -0.88327 -0.35188
vn 0.29727 -0.79196 -0.53333
vn 0.91718 -0.33676 -0.21303
vn 0.88711 -0.30248 -0.34863
vn 0.83501 0.53938 -0.10875
vn 0.84544 0.50052 -0.18629
vn 0.23278 0.88848 -0.39550
vn 0.17957 0.95189 -0.24830
vn 0.41478 0.88527 -0.21038
vn 0.55904 0.76567 -0.31815
vn 0.36573 0.86396 -0.34615
vn 0.48047 0.72582 -0.49228
vn 0.52533 0.59524 -0.60804
vn 0.08017 -0.02314 -0.99651
vn 0.05175 -0.04063 -0.99783
vn 0.02622 -0.04344 -0.99871
vn -0.25533 -0.71898 -0.64643
vn -0.38809 -0.77267 -0.50237
vn -0.33594 -0.63605 -0.69468
vn -0.50201 -0.68191 -0.53196
vn -0.41517 -0.55271 -0.72260
vn 0.83128 0.41229 -0.37281
vn 0.92695 0.24461 -0.28448
vn 0.75867 0.33097 -0.56114
vn 0.87028 0.19455 -0.45251
vn 0.93042 -0.06044 -0.36148
vn 0.05663 0.06177 -0.99648
vn 0.09987 0.02326 -0.99473
vn 0.10730 -0.03227 -0.99370
vn -0.81715 0.16061 -0.55360
vn -0.87000 0.35506 -0.34209
vn -0.78708 0.32048 -0.52706
vn -0.78679 0.50434 -0.35582
vn -0.69856 0.45830 -0.54953
vn 0.01788 -0.85017 -0.52620
vn -0.00442 -0.84293 -0.53800
vn 0.02696 -0.70815 -0.70555
vn -0.00196 -0.69802 -0.71607
vn -0.02198 -0.69488 -0.71879
vn -0.00950 0.00605 -0.99994
vn 0.00323 0.01267 -0.99991
vn 0.01228 0.01614 -0.99979
vn 0.02045 0.69192 -0.72168
vn 0.09180 0.83305 -0.54553
vn 0.07147 0.68680 -0.72333
vn 0.19443 0.82380 -0.53249
vn 0.15039 0.68130 -0.71639
vn -0.95972 0.20141 -0.19590
vn -0.73690 0.64559 -0.20051
vn -0.91552 0.19818 -0.35006
vn -0.71419 0.60715 -0.34827
vn -0.36895 0.84382 -0.38966
vn -0.03545 0.04679 -0.99828
vn 0.01053 0.05552 -0.99840
vn 0.03891 0.03389 -0.99867
vn 0.38731 -0.72725 -0.56666
vn 0.17426 -0.81431 -0.55365
f 5//1 6//2 1//3 7//4
f 8//5 9//6 10//7 11//5
f 1//3 6//2 12//8 13//9
f 1//3 14//10 15//11 7//4
f 2//12 3//13 16//14 17//15
f 19//16 20//17 3//13 2//12
f 2//12 17//15 18//18 19//16
f 3//19 21//20 22//21 16//22
f 4//23 276//24 277//25 24//26
f 4//27 24//26 11//28 10//27
f 4//29 10//29 23//30 276//30
f 24//26 277//25 278//31 25//32
f 24//26 25//32 26//33 11//28
f 26//33 25//32 27//34 28//35
f 26//36 28//37 29//37 30//36
f 26//36 30//36 8//5 11//5
f 30//38 29//39 31//40 32//41
f 30//38 32//41 9//6 8//42
f 32//41 31//40 33//43 279//44
f 32//41 279//44 34//45 9//6
f 34//45 23//46 10//7 9//6
f 35//47 36//48 37//49 27//34
f 35//47 27//34 25//32 278//31
f 37//49 36//48 38//50 39//51
f 37//49 39//51 40//52 41//53
f 37//49 41//53 28//35 27//34
f 41//54 40//55 42//55 43//54
f 41//54 43//54 29//37 28//37
f 43//56 42//57 44//58 45//59
f 43//56 45//59 31//40 29//39
f 45//59 44//58 280//60 281//61
f 45//59 281//61 33//43 31//40
f 46//62 282//63 22//21 21//20
f 46//62 21//20 39//51 38//50
f 282//63 283//64 47//65 22//21
f 47//65 48//66 16//22 22//21
f 47//65 283//64 284//67 49//68
f 47//65 49//68 50//69 48//66
f 50//70 51//70 52//71 48//71
f 50//69 49//68 53//72 54//73
f 50//70 54//74 55//75 51//70
f 55//75 56//76 57//77 51//78
f 55//75 54//74 58//79 13//9
f 55//75 13//9 12//8 56//76
f 58//80 54//73 53//72 59//81
f 58//80 59//81 60//82 61//83
f 58//79 61//84 1//3 13//9
f 61//83 60//82 62//85 63//86
f 61//84 63//87 14//10 1//3
f 63//86 62//85 64//88 65//89
f 63//87 65//90 66//90 14//10
f 66//91 67//92 15//11 14//10
f 66//90 65//90 68//93 69//93
f 66//91 69//94 70//95 67//92
f 70//95 71//96 285//97 67//92
f 70//95 69//94 72//98 73//99
f 70//95 73//99 286//100 71//96
f 286//100 73//99 74//101 287//102
f 77//103 78//104 79//105 76//106
f 77//103 288//107 80//108 78//104
f 80//108 81//109 82//110 78//104
f 80//108 288//107 289//111 83//112
f 80//108 83//112 84//113 81//109
f 84//114 85//114 86//115 81//115
f 84//113 83//112 87//116 88//117
f 84//114 88//118 89//118 85//114
f 89//119 90//120 91//121 85//122
f 89//118 88//118 92//123 93//123
f 89//119 93//124 94//125 90//120
f 94//125 290//126 291//127 90//120
f 94//125 93//124 95//128 96//129
f 94//125 96//129 292//130 290//126
f 292//130 96//129 97//131 98//132
f 100//133 101//134 102//135 293//136
f 100//133 294//137 103//138 101//134
f 103//138 104//139 105//140 101//134
f 103//138 294//137 106//141 107//142
f 103//138 107//142 108//143 104//139
f 108//144 109//144 110//145 104//145
f 108//143 107//142 111//146 112//147
f 108//144 112//148 113//148 109//144
f 113//149 114//150 115//151 109//152
f 113//148 112//148 116//153 117//153
f 113//149 117//154 118//155 114//150
f 118//155 295//156 296//157 114//150
f 118//155 117//154 119//158 120//159
f 118//155 120//159 297//160 295//156
f 297//160 120//159 121//161 298//162
f 299//163 123//164 124//165 300//166
f 299//163 301//167 125//168 123//164
f 125//168 126//169 127//170 123//164
f 125//168 301//167 128//171 129//172
f 125//168 129//172 130//173 126//169
f 130//174 131//174 132//175 126//175
f 130//173 129//172 133//176 134//177
f 130//174 134//178 135//178 131//174
f 135//179 136//180 137//181 131//182
f 135//178 134//178 138//183 139//183
f 135//179 139//184 140//185 136//180
f 140//185 141//186 142//187 136//180
f 140//185 139//184 143//188 144//189
f 140//185 144//189 302//190 141//186
f 302//190 144//189 145//191 303//192
f 304//193 148//194 149//195 146//196
f 304//193 305//197 150//198 148//194
f 150//198 151//199 152//200 148//194
f 150//198 305//197 306//201 153//202
f 150//198 153//202 154//203 151//199
f 154//203 155//204 156//205 151//205
f 154//203 153//202 157//206 19//16
f 154//203 19//16 18//18 155//204
f 157//206 153//202 306//201 307//207
f 157//206 307//207 158//208 159//209
f 157//206 159//209 20//17 19//16
f 159//209 158//208 280//60 44//58
f 159//209 44//58 42//57 20//17
f 164//210 59//81 53//72 163//211
f 164//210 165//212 60//82 59//81
f 165//212 309//213 62//85 60//82
f 309//213 310//214 64//88 62//85
f 310//214 311//215 166//216 64//88
f 166//216 68//217 65//89 64//88
f 166//216 311//215 312//218 167//219
f 166//216 167//219 168//220 68//217
f 168//221 72//221 69//93 68//93
f 168//220 167//219 169//222 170//223
f 168//221 170//224 171//224 72//221
f 171//225 74//101 73//99 72//98
f 171//224 170//224 172//226 173//226
f 171//225 173//227 174//228 74//101
f 174//228 75//229 287//102 74//101
f 174//228 173//227 175//230 176//231
f 174//228 176//231 177//232 75//229
f 177//232 176//231 178//233 313//234
f 179//235 87//116 83//112 289//111
f 179//235 314//236 180//237 87//116
f 180//237 92//238 88//117 87//116
f 180//237 314//236 181//239 182//240
f 180//237 182//240 183//241 92//238
f 183//242 95//242 93//123 92//123
f 183//241 182//240 184//243 185//244
f 183//242 185//245 186//245 95//242
f 186//246 97//131 96//129 95//128
f 186//245 185//245 187//247 188//247
f 186//246 188//248 189//249 97//131
f 189//249 99//250 98//132 97//131
f 189//249 188//248 190//251 191//252
f 189//249 191//252 192//253 99//250
f 192//253 191//252 193//254 315//255
f 195//256 111//146 107//142 106//141
f 195//256 316//257 196//258 111//146
f 196//258 116//259 112//147 111//146
f 196//258 316//257 197//260 198//261
f 196//258 198//261 199//262 116//259
f 199//263 119//263 117//153 116//153
f 199//262 198//261 200//264 201//265
f 199//263 201//266 202//266 119//263
f 202//267 121//161 120//159 119//158
f 202//266 201//266 203//268 204//268
f 202//267 204//269 205//270 121//161
f 205//270 122//271 298//162 121//161
f 205//270 204//269 206//272 207//273
f 205//270 207//273 208//274 122//271
f 208//274 207//273 209//275 317//276
f 211//277 133//176 129//172 128//171
f 211//277 318//278 212//279 133//176
f 212//279 138//280 134//177 133//176
f 212//279 318//278 319//281 213//282
f 212//279 213//282 214//283 138//280
f 214//284 143//284 139//183 138//183
f 214//283 213//282 215//285 216//286
f 214//284 216//287 217//287 143//284
f 217//288 145//191 144//189 143//188
f 217//287 216//287 218//289 219//289
f 217//288 219//290 220//291 145//191
f 220//291 320//292 303//192 145//191
f 220//291 219//290 221//293 222//294
f 220//291 222//294 223//295 320//292
f 223//295 222//294 224//296 321//297
f 323//298 322//299 225//300 226//301
f 323//298 226//301 227//302 308//303
f 227//302 226//301 156//304 155//305
f 227//302 155//305 18//306 228//307
f 227//302 228//307 160//308 308//303
f 228//309 18//310 17//310 229//309
f 228//309 229//309 161//311 160//311
f 229//312 17//313 52//313 230//312
f 229//312 230//312 162//314 161//314
f 230//315 52//316 51//78 57//77
f 230//315 57//77 231//317 162//318
f 231//317 57//77 56//76 324//319
f 232//320 324//319 56//76 12//8
f 232//320 12//8 6//2 233//321
f 233//321 6//2 5//322 325//323
f 325//323 5//322 7//4 326//324
f 326//324 7//4 15//11 327//325
f 327//325 15//11 67//92 285//97
f 328//326 235//327 169//222 234//328
f 328//326 329//329 236//330 235//327
f 236//330 237//331 172//332 235//327
f 236//330 329//329 76//106 79//105
f 236//330 79//105 238//333 237//331
f 238//334 239//334 175//335 237//335
f 238//333 79//105 78//104 82//110
f 238//334 82//336 240//336 239//334
f 240//337 241//338 178//233 239//339
f 240//336 82//336 81//115 86//115
f 240//337 86//340 242//341 241//338
f 242//341 243//342 330//343 241//338
f 242//341 86//340 85//122 91//121
f 242//341 91//121 244//344 243//342
f 244//344 91//121 90//120 291//127
f 331//345 246//346 184//243 245//347
f 331//345 332//348 247//349 246//346
f 247//349 248//350 187//351 246//346
f 247//349 332//348 293//136 102//135
f 247//349 102//135 249//352 248//350
f 249//353 250//353 190//354 248//354
f 249//352 102//135 101//134 105//140
f 249//353 105//355 251//355 250//353
f 251//356 252//357 193//254 250//358
f 251//355 105//355 104//145 110//145
f 251//356 110//359 253//360 252//357
f 253//360 254//361 194//362 252//357
f 253//360 110//359 109//152 115//151
f 253//360 115//151 255//363 254//361
f 255//363 115//151 114//150 296//157
f 257//364 258//365 200//264 256//366
f 257//364 333//367 259//368 258//365
f 259//368 260//369 203//370 258//365
f 259//368 333//367 300//166 124//165
f 259//368 124//165 261//371 260//369
f 261//372 262//372 206//373 260//373
f 261//371 124//165 123//164 127//170
f 261//372 127//374 263//374 262//372
f 263//375 264//376 209//275 262//377
f 263//374 127//374 126//175 132//175
f 263//375 132//378 265//379 264//376
f 265//379 266//380 210//381 264//376
f 265//379 132//378 131//182 137//181
f 265//379 137//181 267//382 266//380
f 267//382 137//181 136//180 142//187
f 269//383 270//384 215//285 268//385
f 269//383 147//386 271//387 270//384
f 271//387 272//388 218//389 270//384
f 271//387 147//386 146//196 149//195
f 271//387 149//195 273//390 272//388
f 273//391 274//391 221//392 272//392
f 273//390 149//195 148//194 152//200
f 273//391 152//393 275//393 274//391
f 275//394 225//300 224//296 274//395
f 275//393 152//393 151//205 156//205
f 275//394 156//304 226//301 225//300
f 274//395 224//296 222//294 221//293
f 272//392 221//392 219//289 218//289
f 270//384 218//389 216//286 215//285
f 268//385 215//285 213//282 319//281
f 264//376 210//381 317//276 209//275
f 262//377 209//275 207//273 206//272
f 260//373 206//373 204//268 203//268
f 258//365 203//370 201//265 200//264
f 256//366 200//264 198//261 197//260
f 252//357 194//362 315//255 193//254
f 250//358 193//254 191//252 190//251
f 248//354 190//354 188//247 187//247
f 246//346 187//351 185//244 184//243
f 245//347 184//243 182//240 181//239
f 241//338 330//343 313//234 178//233
f 239//339 178//233 176//231 175//230
f 237//335 175//335 173//226 172//226
f 235//327 172//332 170//223 169//222
f 234//328 169//222 167//219 312//218
f 225//300 322//299 321//297 224//296
f 163//211 53//72 49//68 284//67
f 52//71 17//15 16//14 48//71
f 42//55 40//55 3//13 20//17
f 40//52 39//51 21//20 3//19
f 340//396 334//397 339//398 338//399
f 344//400 343//401 342//402 341//403
f 346//404 345//405 339//398 334//397
f 340//396 348//406 347//407 334//397
f 350//408 349//409 336//410 335//411
f 335//411 336//410 353//412 352//413
f 352//413 351//414 350//408 335//411
f 349//415 355//416 354//417 336//418
f 356//419 277//25 276//24 337//420
f 343//421 344//422 356//419 337//421
f 276//30 23//30 343//423 337//423
f 357//424 278//31 277//25 356//419
f 344//422 358//425 357//424 356//419
f 360//426 359//427 357//424 358//425
f 362//428 361//429 360//429 358//428
f 344//400 341//403 362//428 358//428
f 364//430 363//431 361//432 362//433
f 341//403 342//402 364//430 362//433
f 279//44 33//43 363//431 364//430
f 342//402 34//45 279//44 364//430
f 342//402 343//401 23//46 34//45
f 359//427 365//434 36//48 35//47
f 278//31 357//424 359//427 35//47
f 366//435 38//50 36//48 365//434
f 368//436 367//437 366//435 365//434
f 359//427 360//426 368//436 365//434
f 370//438 369//439 367//439 368//438
f 360//429 361//429 370//438 368//438
f 372//440 371//441 369//442 370//443
f 361//432 363//431 372//440 370//443
f 281//61 280//60 371//441 372//440
f 363//431 33//43 281//61 372//440
f 354//417 355//416 282//63 46//62
f 38//50 366//435 354//417 46//62
f 355//416 373//444 283//64 282//63
f 355//416 349//415 374//445 373//444
f 375//446 284//67 283//64 373//444
f 374//445 376//447 375//446 373//444
f 374//448 378//448 377//449 376//449
f 380//450 379//451 375//446 376//447
f 377//449 381//452 380//453 376//449
f 377//454 383//455 382//456 381//452
f 346//404 384//457 380//453 381//452
f 382//456 345//405 346//404 381//452
f 385//458 379//451 380//450 384//459
f 387//460 386//461 385//458 384//459
f 346//404 334//397 387//462 384//457
f 389//463 388//464 386//461 387//460
f 334//397 347//407 389//465 387//462
f 391//466 390//467 388//464 389//463
f 347//407 392//468 391//468 389//465
f 347//407 348//406 393//469 392//470
f 395//471 394//471 391//468 392//468
f 393//469 396//472 395//473 392//470
f 393//469 285//97 71//96 396//472
f 398//474 397//475 395//473 396//472
f 71//96 286//100 398//474 396//472
f 287//102 399//476 398//474 286//100
f 76//106 401//477 400//478 77//103
f 400//478 402//479 288//107 77//103
f 400//478 404//480 403//481 402//479
f 405//482 289//111 288//107 402//479
f 403//481 406//483 405//482 402//479
f 403//484 408//484 407//485 406//485
f 410//486 409//487 405//482 406//483
f 407//485 411//488 410//488 406//485
f 407//489 413//490 412//491 411//492
f 415//493 414//493 410//488 411//488
f 412//491 416//494 415//495 411//492
f 412//491 291//127 290//126 416//494
f 418//496 417//497 415//495 416//494
f 290//126 292//130 418//496 416//494
f 98//132 419//498 418//496 292//130
f 293//136 421//499 420//500 100//133
f 420//500 422//501 294//137 100//133
f 420//500 424//502 423//503 422//501
f 425//504 106//141 294//137 422//501
f 423//503 426//505 425//504 422//501
f 423//506 428//506 427//507 426//507
f 430//508 429//509 425//504 426//505
f 427//507 431//510 430//510 426//507
f 427//511 433//512 432//513 431//514
f 435//515 434//515 430//510 431//510
f 432//513 436//516 435//517 431//514
f 432//513 296//157 295//156 436//516
f 438//518 437//519 435//517 436//516
f 295//156 297//160 438//518 436//516
f 298//162 439//520 438//518 297//160
f 300//166 441//521 440//522 299//163
f 440//522 442//523 301//167 299//163
f 440//522 444//524 443//525 442//523
f 445//526 128//171 301//167 442//523
f 443//525 446//527 445//526 442//523
f 443//528 448//528 447//529 446//529
f 450//530 449//531 445//526 446//527
f 447//529 451//532 450//532 446//529
f 447//533 453//534 452//535 451//536
f 455//537 454//537 450//532 451//532
f 452//535 456//538 455//539 451//536
f 452//535 142//187 141//186 456//538
f 458//540 457//541 455//539 456//538
f 141//186 302//190 458//540 456//538
f 303//192 459//542 458//540 302//190
f 146//196 461//543 460//544 304//193
f 460//544 462//545 305//197 304//193
f 460//544 464//546 463//547 462//545
f 465//548 306//201 305//197 462//545
f 463//547 466//549 465//548 462//545
f 463//550 468//550 467//551 466//549
f 352//413 469//552 465//548 466//549
f 467//551 351//414 352//413 466//549
f 307//207 306//201 465//548 469//552
f 470//553 158//208 307//207 469//552
f 352//413 353//412 470//553 469//552
f 371//441 280//60 158//208 470//553
f 353//412 369//442 371//441 470//553
f 163//211 379//451 385//458 164//210
f 385//458 386//461 165//212 164//210
f 386//461 388//464 309//213 165//212
f 388//464 390//467 310//214 309//213
f 390//467 471//554 311//215 310//214
f 390//467 391//466 394//555 471//554
f 472//556 312//218 311//215 471//554
f 394//555 473//557 472//556 471//554
f 394//471 395//471 397//558 473//558
f 475//559 474//560 472//556 473//557
f 397//558 476//561 475//561 473//558
f 397//475 398//474 399//476 476//562
f 478//563 477//563 475//561 476//561
f 399//476 479//564 478//565 476//562
f 399//476 287//102 75//229 479//564
f 481//566 480//567 478//565 479//564
f 75//229 177//232 481//566 479//564
f 313//234 482//568 481//566 177//232
f 289//111 405//482 409//487 179//569
f 409//487 483//570 314//236 179//569
f 409//487 410//486 414//571 483//570
f 484//572 181//239 314//236 483//570
f 414//571 485//573 484//572 483//570
f 414//493 415//493 417//574 485//574
f 487//575 486//576 484//572 485//573
f 417//574 488//577 487//577 485//574
f 417//497 418//496 419//498 488//578
f 490//579 489//579 487//577 488//577
f 419//498 491//580 490//581 488//578
f 419//498 98//132 99//250 491//580
f 493//582 492//583 490//581 491//580
f 99//250 192//253 493//582 491//580
f 315//255 494//584 493//582 192//253
f 106//141 425//504 429//509 195//256
f 429//509 495//585 316//257 195//256
f 429//509 430//508 434//586 495//585
f 496//587 197//260 316//257 495//585
f 434//586 497//588 496//587 495//585
f 434//515 435//515 437//589 497//589
f 499//590 498//591 496//587 497//588
f 437//589 500//592 499//592 497//589
f 437//519 438//518 439//520 500//593
f 502//594 501//594 499//592 500//592
f 439//520 503//595 502//596 500//593
f 439//520 298//162 122//271 503//595
f 505//597 504//598 502//596 503//595
f 122//271 208//274 505//597 503//595
f 317//276 506//599 505//597 208//274
f 128//171 445//526 449//531 211//277
f 449//531 507//600 318//278 211//277
f 449//531 450//530 454//601 507//600
f 508//602 319//281 318//278 507//600
f 454//601 509//603 508//602 507//600
f 454//537 455//537 457//604 509//604
f 511//605 510//606 508//602 509//603
f 457//604 512//607 511//607 509//604
f 457//541 458//540 459//542 512//608
f 514//609 513//609 511//607 512//607
f 459//542 515//610 514//611 512//608
f 459//542 303//192 320//292 515//610
f 517//612 516//613 514//611 515//610
f 320//292 223//295 517//612 515//610
f 321//297 518//614 517//612 223//295
f 520//615 519//616 322//299 323//298
f 308//303 521//617 520//615 323//298
f 467//618 468//619 520//615 521//617
f 522//620 351//621 467//618 521//617
f 308//303 160//308 522//620 521//617
f 523//622 350//623 351//623 522//622
f 160//311 161//311 523//622 522//622
f 524//624 378//625 350//625 523//624
f 161//314 162//314 524//624 523//624
f 383//455 377//454 378//626 524//627
f 162//318 231//317 383//455 524//627
f 324//319 382//456 383//455 231//317
f 345//405 382//456 324//319 232//320
f 233//321 339//398 345//405 232//320
f 325//323 338//399 339//398 233//321
f 326//324 340//396 338//399 325//323
f 327//325 348//406 340//396 326//324
f 285//97 393//469 348//406 327//325
f 234//328 474//560 525//628 328//326
f 525//628 526//629 329//329 328//326
f 525//628 477//630 527//631 526//629
f 401//477 76//106 329//329 526//629
f 527//631 528//632 401//477 526//629
f 527//633 480//633 529//634 528//634
f 404//480 400//478 401//477 528//632
f 529//634 530//635 404//635 528//634
f 529//636 482//568 531//637 530//638
f 408//484 403//484 404//635 530//635
f 531//637 532//639 408//640 530//638
f 531//637 330//343 243//342 532//639
f 413//490 407//489 408//640 532//639
f 243//342 244//344 413//490 532//639
f 291//127 412//491 413//490 244//344
f 245//347 486//576 533//641 331//345
f 533//641 534//642 332//348 331//345
f 533//641 489//643 535//644 534//642
f 421//499 293//136 332//348 534//642
f 535//644 536//645 421//499 534//642
f 535//646 492//646 537//647 536//647
f 424//502 420//500 421//499 536//645
f 537//647 538//648 424//648 536//647
f 537//649 494//584 539//650 538//651
f 428//506 423//506 424//648 538//648
f 539//650 540//652 428//653 538//651
f 539//650 194//362 254//361 540//652
f 433//512 427//511 428//653 540//652
f 254//361 255//363 433//512 540//652
f 296//157 432//513 433//512 255//363
f 256//366 498//591 541//654 257//364
f 541//654 542//655 333//367 257//364
f 541//654 501//656 543//657 542//655
f 441//521 300//166 333//367 542//655
f 543//657 544//658 441//521 542//655
f 543//659 504//659 545//660 544//660
f 444//524 440//522 441//521 544//658
f 545//660 546//661 444//661 544//660
f 545//662 506//599 547//663 546//664
f 448//528 443//528 444//661 546//661
f 547//663 548//665 448//666 546//664
f 547//663 210//381 266//380 548//665
f 453//534 447//533 448//666 548//665
f 266//380 267//382 453//534 548//665
f 142//187 452//535 453//534 267//382
f 268//385 510//606 549//667 269//383
f 549//667 550//668 147//386 269//383
f 549//667 513//669 551//670 550//668
f 461//543 146//196 147//386 550//668
f 551//670 552//671 461//543 550//668
f 551//672 516//672 553//673 552//673
f 464//546 460//544 461//543 552//671
f 553//673 554//674 464//674 552//673
f 553//675 518//614 519//616 554//676
f 468//550 463//550 464//674 554//674
f 519//616 520//615 468//619 554//676
f 516//613 517//612 518//614 553//675
f 513//609 514//609 516//672 551//672
f 510//606 511//605 513//669 549//667
f 319//281 508//602 510//606 268//385
f 506//599 317//276 210//381 547//663
f 504//598 505//597 506//599 545//662
f 501//594 502//594 504//659 543//659
f 498//591 499//590 501//656 541//654
f 197//260 496//587 498//591 256//366
f 494//584 315//255 194//362 539//650
f 492//583 493//582 494//584 537//649
f 489//579 490//579 492//646 535//646
f 486//576 487//575 489//643 533//641
f 181//239 484//572 486//576 245//347
f 482//568 313//234 330//343 531//637
f 480//567 481//566 482//568 529//636
f 477//563 478//563 480//633 527//633
f 474//560 475//559 477//630 525//628
f 312//218 472//556 474//560 234//328
f 518//614 321//297 322//299 519//616
f 284//67 375//446 379//451 163//211
f 374//448 349//409 350//408 378//448
f 353//412 336//410 367//439 369//439
f 336//418 354//417 366//435 367//437
