# pilowlava3D glyph '\' variant 1 — Vincent Wagner / Velvetyne, Free Art License
v 0.04585 4.39987 -0.21265
v 2.16779 0.20179 -0.32635
v 1.86116 0.08434 -0.30914
v 0.17948 4.44272 -0.20362
v 0.01186 4.42607 -0.12306
v 0.07386 4.52745 -0.12689
v 0.09799 4.46893 -0.24063
v 0.16923 4.29351 -0.29216
v 0.10264 4.25859 -0.24311
v 0.06812 4.23139 -0.13229
v 2.14161 0.36788 -0.36740
v 2.25659 0.41367 -0.20024
v 2.23964 0.17511 -0.19059
v 2.06517 0.02233 -0.18322
v 2.03084 0.10895 -0.34606
v 1.95969 0.28905 -0.42903
v 1.83135 0.02320 -0.18447
v 1.68343 0.18935 -0.18952
v 1.77797 0.22213 -0.34747
v 0.18295 4.48185 -0.12051
v 0.27309 4.31841 -0.12988
v 0.23714 4.31370 -0.23295
v 0.37024 4.12720 -0.15091
v 0.32911 4.11715 -0.26295
v 0.25828 4.08969 -0.31912
v 0.42007 3.91716 -0.28133
v 0.34637 3.88552 -0.32831
v 0.27540 3.85148 -0.27957
v 0.18671 4.05387 -0.26880
v 0.23188 3.82733 -0.16152
v 0.14915 4.02864 -0.15442
v 0.21956 3.81958 0.00000
v 0.14011 4.01895 0.00000
v 0.06099 4.22303 0.00000
v 0.00000 4.42239 0.00000
v 0.28628 4.31736 0.00000
v 0.19151 4.48887 0.00000
v 0.06921 4.54082 0.00000
v 0.46803 3.93462 -0.15894
v 0.56607 3.74046 -0.16516
v 0.51300 3.71950 -0.29422
v 0.66451 3.54591 -0.17529
v 0.60687 3.52262 -0.30473
v 0.52759 3.48758 -0.34845
v 0.43651 3.68592 -0.33866
v 0.44991 3.45091 -0.30167
v 0.36317 3.65113 -0.29159
v 0.39641 3.42323 -0.17567
v 0.31328 3.62509 -0.16643
v 0.37982 3.41449 0.00000
v 0.29951 3.61710 0.00000
v 0.68278 3.55208 0.00000
v 0.78310 3.35886 0.00000
v 0.76187 3.35111 -0.18466
v 0.88341 3.16582 0.00000
v 0.70154 2.60536 0.00000
v 0.78020 2.40207 0.00000
v 0.93961 1.99441 0.00000
v 0.80803 2.41399 -0.19581
v 0.88853 2.21035 -0.19721
v 0.96982 2.00726 -0.19852
v 0.96919 2.24621 -0.34269
v 1.05410 2.04466 -0.34729
v 1.13811 1.84233 -0.35194
v 1.05003 1.80351 -0.19888
v 1.01836 1.79189 0.00000
v 1.12988 1.59948 -0.19879
v 1.18429 2.58461 0.00000
v 1.08408 2.77889 0.00000
v 1.05906 2.76727 -0.19383
v 0.95955 2.96251 -0.19364
v 0.86012 3.15677 -0.19096
v 0.89093 2.93138 -0.32886
v 0.79656 3.12881 -0.32102
v 0.70250 3.32619 -0.31161
v 0.71275 3.09097 -0.36741
v 0.62055 3.28964 -0.35816
v 0.62766 3.05078 -0.32256
v 0.53789 3.25097 -0.31181
v 0.56388 3.01984 -0.19042
v 0.48077 3.22215 -0.18520
v 0.64618 2.81815 -0.19249
v 0.72828 2.61649 -0.19415
v 0.71666 2.85126 -0.33039
v 0.80287 2.65042 -0.33447
v 0.88601 2.44844 -0.33826
v 0.89246 2.69123 -0.38060
v 0.98138 2.49110 -0.38708
v 1.07112 2.29190 -0.39431
v 1.07903 2.53543 -0.34091
v 1.17542 2.33955 -0.34479
v 1.27283 2.14399 -0.34840
v 1.16310 2.09359 -0.40141
v 1.37032 1.94792 -0.35220
v 1.25432 1.89482 -0.40839
v 1.46714 1.75189 -0.35642
v 1.34412 1.69546 -0.41527
v 1.22154 1.63976 -0.35653
v 1.43525 1.49720 -0.42190
v 1.30672 1.43806 -0.36016
v 1.21192 1.39612 -0.19889
v 1.39307 1.23763 -0.36325
v 1.29541 1.19431 -0.19910
v 1.26060 1.17995 0.00000
v 1.28563 2.39089 0.00000
v 1.35772 2.18422 -0.19897
v 1.25756 2.37833 -0.19738
v 1.15829 2.57224 -0.19510
v 0.98404 2.73276 -0.33579
v 0.80453 2.89177 -0.37477
v 1.45875 1.99006 -0.19967
v 1.55959 1.79683 -0.20003
v 1.69329 1.61942 0.00000
v 1.66167 1.60374 -0.20038
v 1.56525 1.55739 -0.36066
v 1.76511 1.41007 -0.20230
v 1.66514 1.36282 -0.36575
v 1.52802 1.29969 -0.42936
v 1.76431 1.16527 -0.37041
v 1.61916 1.09999 -0.43706
v 1.47697 1.03712 -0.36645
v 1.70671 0.89586 -0.44331
v 1.55645 0.83387 -0.36899
v 1.45499 0.79309 -0.19969
v 1.37713 0.99358 -0.19949
v 1.34052 0.97946 0.00000
v 1.79736 1.42535 0.00000
v 1.86666 1.21440 -0.20465
v 1.99725 1.03474 0.00000
v 1.96449 1.01781 -0.20457
v 1.86188 0.96533 -0.37271
v 2.06955 0.82491 -0.20536
v 1.96187 0.76742 -0.37531
v 1.79398 0.69110 -0.44633
v 2.06040 0.57091 -0.37806
v 1.88081 0.48890 -0.44622
v 1.70396 0.42301 -0.36858
v 1.63155 0.62767 -0.36962
v 1.59819 0.38874 -0.19773
v 1.52847 0.59168 -0.19944
v 2.10246 0.84235 0.00000
v 2.17599 0.62852 -0.20548
v 2.26071 0.16466 0.00000
v 2.07072 0.00402 0.00000
v 1.81953 0.00000 0.00000
v 0.38450 4.12780 0.00000
v 0.48222 3.93797 0.00000
v 0.58179 3.74511 0.00000
v 0.85970 2.19833 0.00000
v 1.09775 1.58763 0.00000
v 0.98392 2.97287 0.00000
v 0.54087 3.01070 0.00000
v 0.46069 3.21193 0.00000
v 0.62144 2.80757 0.00000
v 1.17900 1.38261 0.00000
v 1.38718 2.19794 0.00000
v 1.48899 2.00525 0.00000
v 1.59091 1.81234 0.00000
v 1.41801 0.77979 0.00000
v 1.89939 1.23042 0.00000
v 1.56335 0.37759 0.00000
v 1.49245 0.57964 0.00000
v 2.20831 0.64406 0.00000
v 2.28840 0.42214 0.00000
v 1.65340 0.17576 0.00000
v 0.04585 4.39987 0.21265
v 2.16779 0.20179 0.32635
v 1.86116 0.08434 0.30914
v 0.17948 4.44272 0.20362
v 0.01186 4.42607 0.12306
v 0.07386 4.52745 0.12689
v 0.09799 4.46893 0.24063
v 0.16923 4.29351 0.29216
v 0.10264 4.25859 0.24311
v 0.06812 4.23139 0.13229
v 2.14161 0.36788 0.36740
v 2.25659 0.41367 0.20024
v 2.23964 0.17511 0.19059
v 2.06517 0.02233 0.18322
v 2.03084 0.10895 0.34606
v 1.95969 0.28905 0.42903
v 1.83135 0.02320 0.18447
v 1.68343 0.18935 0.18952
v 1.77797 0.22213 0.34747
v 0.18295 4.48185 0.12051
v 0.27309 4.31841 0.12988
v 0.23714 4.31370 0.23295
v 0.37024 4.12720 0.15091
v 0.32911 4.11715 0.26295
v 0.25828 4.08969 0.31912
v 0.42007 3.91716 0.28133
v 0.34637 3.88552 0.32831
v 0.27540 3.85148 0.27957
v 0.18671 4.05387 0.26880
v 0.23188 3.82733 0.16152
v 0.14915 4.02864 0.15442
v 0.46803 3.93462 0.15894
v 0.56607 3.74046 0.16516
v 0.51300 3.71950 0.29422
v 0.66451 3.54591 0.17529
v 0.60687 3.52262 0.30473
v 0.52759 3.48758 0.34845
v 0.43651 3.68592 0.33866
v 0.44991 3.45091 0.30167
v 0.36317 3.65113 0.29159
v 0.39641 3.42323 0.17567
v 0.31328 3.62509 0.16643
v 0.76187 3.35111 0.18466
v 0.80803 2.41399 0.19581
v 0.88853 2.21035 0.19721
v 0.96982 2.00726 0.19852
v 0.96919 2.24621 0.34269
v 1.05410 2.04466 0.34729
v 1.13811 1.84233 0.35194
v 1.05003 1.80351 0.19888
v 1.12988 1.59948 0.19879
v 1.05906 2.76727 0.19383
v 0.95955 2.96251 0.19364
v 0.86012 3.15677 0.19096
v 0.89093 2.93138 0.32886
v 0.79656 3.12881 0.32102
v 0.70250 3.32619 0.31161
v 0.71275 3.09097 0.36741
v 0.62055 3.28964 0.35816
v 0.62766 3.05078 0.32256
v 0.53789 3.25097 0.31181
v 0.56388 3.01984 0.19042
v 0.48077 3.22215 0.18520
v 0.64618 2.81815 0.19249
v 0.72828 2.61649 0.19415
v 0.71666 2.85126 0.33039
v 0.80287 2.65042 0.33447
v 0.88601 2.44844 0.33826
v 0.89246 2.69123 0.38060
v 0.98138 2.49110 0.38708
v 1.07112 2.29190 0.39431
v 1.07903 2.53543 0.34091
v 1.17542 2.33955 0.34479
v 1.27283 2.14399 0.34840
v 1.16310 2.09359 0.40141
v 1.37032 1.94792 0.35220
v 1.25432 1.89482 0.40839
v 1.46714 1.75189 0.35642
v 1.34412 1.69546 0.41527
v 1.22154 1.63976 0.35653
v 1.43525 1.49720 0.42190
v 1.30672 1.43806 0.36016
v 1.21192 1.39612 0.19889
v 1.39307 1.23763 0.36325
v 1.29541 1.19431 0.19910
v 1.35772 2.18422 0.19897
v 1.25756 2.37833 0.19738
v 1.15829 2.57224 0.19510
v 0.98404 2.73276 0.33579
v 0.80453 2.89177 0.37477
v 1.45875 1.99006 0.19967
v 1.55959 1.79683 0.20003
v 1.66167 1.60374 0.20038
v 1.56525 1.55739 0.36066
v 1.76511 1.41007 0.20230
v 1.66514 1.36282 0.36575
v 1.52802 1.29969 0.42936
v 1.76431 1.16527 0.37041
v 1.61916 1.09999 0.43706
v 1.47697 1.03712 0.36645
v 1.70671 0.89586 0.44331
v 1.55645 0.83387 0.36899
v 1.45499 0.79309 0.19969
v 1.37713 0.99358 0.19949
v 1.86666 1.21440 0.20465
v 1.96449 1.01781 0.20457
v 1.86188 0.96533 0.37271
v 2.06955 0.82491 0.20536
v 1.96187 0.76742 0.37531
v 1.79398 0.69110 0.44633
v 2.06040 0.57091 0.37806
v 1.88081 0.48890 0.44622
v 1.70396 0.42301 0.36858
v 1.63155 0.62767 0.36962
v 1.59819 0.38874 0.19773
v 1.52847 0.59168 0.19944
v 2.17599 0.62852 0.20548
vn -0.70347 0.23628 -0.67030
vn -0.83709 0.48650 -0.25020
vn -0.53703 -0.06131 -0.84133
vn -0.76101 -0.19048 -0.62014
vn -0.91215 -0.27961 -0.29968
vn -0.92750 -0.31227 -0.20552
vn -0.93955 -0.28245 -0.19357
vn 0.86084 -0.02827 -0.50809
vn 0.60712 0.02189 -0.79431
vn 0.92168 0.12802 -0.36623
vn 0.94307 -0.06055 -0.32703
vn 0.55816 -0.69445 -0.45409
vn 0.61327 -0.73717 -0.28370
vn 0.32999 -0.89474 -0.30092
vn 0.20450 -0.61969 -0.75773
vn 0.33651 -0.21943 -0.91576
vn 0.03754 -0.20928 -0.97713
vn -0.30544 -0.68370 -0.66277
vn -0.71166 -0.62820 -0.31450
vn -0.78954 -0.50892 -0.34296
vn -0.51908 -0.40931 -0.75035
vn 0.01233 -0.95801 -0.28646
vn 0.62138 0.60157 -0.50200
vn 0.66649 0.71275 -0.21858
vn 0.86347 0.46488 -0.19572
vn 0.70576 0.43479 -0.55934
vn 0.51366 0.38000 -0.76925
vn 0.47484 0.64798 -0.59552
vn 0.40396 0.88460 -0.23302
vn 0.86582 0.45025 -0.21822
vn 0.69776 0.38957 -0.60113
vn 0.50520 0.31024 -0.80531
vn 0.67261 0.35765 -0.64782
vn 0.45359 0.25879 -0.85281
vn -0.52046 -0.14868 -0.84084
vn -0.49494 -0.17288 -0.85156
vn -0.70968 -0.27198 -0.64990
vn -0.73118 -0.25266 -0.63367
vn -0.90106 -0.36183 -0.23912
vn -0.90826 -0.35331 -0.22413
vn -0.92838 -0.37163 -0.00002
vn -0.92970 -0.36832 -0.00002
vn -0.94630 -0.32330 -0.00010
vn -0.95905 -0.28325 -0.00020
vn 0.88117 0.47279 -0.00003
vn 0.88871 0.45847 0.00000
vn 0.66875 0.74349 -0.00005
vn 0.39037 0.92066 -0.00004
vn -0.85891 0.51212 0.00064
vn 0.88982 0.45632 0.00000
vn 0.86492 0.44253 -0.23682
vn 0.88905 0.45781 -0.00001
vn 0.85983 0.44262 -0.25452
vn 0.64713 0.34764 -0.67850
vn 0.85494 0.44129 -0.27265
vn 0.63336 0.34029 -0.69503
vn 0.39818 0.22991 -0.88803
vn 0.41175 0.23945 -0.87927
vn -0.47601 -0.16645 -0.86354
vn -0.45228 -0.15991 -0.87742
vn -0.67831 -0.26082 -0.68693
vn -0.69532 -0.26532 -0.66793
vn -0.89270 -0.35947 -0.27178
vn -0.89788 -0.35874 -0.25518
vn -0.92718 -0.37461 -0.00000
vn -0.92862 -0.37102 -0.00000
vn 0.88900 0.45791 -0.00000
vn 0.88949 0.45696 0.00000
vn 0.85107 0.43788 -0.28972
vn -0.93044 -0.36645 -0.00000
vn -0.93136 -0.36410 0.00000
vn -0.87594 -0.34371 -0.33851
vn -0.87292 -0.34530 -0.34465
vn -0.87072 -0.34459 -0.35086
vn -0.93061 -0.36602 -0.00001
vn -0.62089 -0.24105 -0.74591
vn -0.61540 -0.23979 -0.75086
vn -0.61137 -0.23559 -0.75546
vn -0.86982 -0.34153 -0.35603
vn -0.93147 -0.36381 -0.00000
vn -0.86688 -0.34449 -0.36033
vn -0.93009 -0.36732 -0.00000
vn 0.88894 0.45803 0.00000
vn 0.88977 0.45640 0.00000
vn 0.84238 0.42827 -0.32706
vn 0.84478 0.43167 -0.31623
vn 0.84711 0.43592 -0.30394
vn 0.88862 0.45865 -0.00000
vn 0.60838 0.31563 -0.72818
vn 0.61776 0.32798 -0.71470
vn 0.62559 0.33466 -0.70473
vn 0.39196 0.22232 -0.89271
vn 0.39654 0.22777 -0.88931
vn -0.42967 -0.15112 -0.89025
vn -0.40885 -0.14625 -0.90081
vn -0.64431 -0.25282 -0.72176
vn -0.66119 -0.25602 -0.70518
vn -0.88240 -0.35807 -0.30522
vn -0.88730 -0.35944 -0.28897
vn -0.92776 -0.37317 -0.00001
vn -0.92698 -0.37511 -0.00001
vn -0.92807 -0.37241 0.00001
vn -0.87807 -0.35621 -0.31955
vn -0.87672 -0.34921 -0.33078
vn -0.92997 -0.36764 0.00000
vn -0.63194 -0.25145 -0.73309
vn -0.62783 -0.24635 -0.73834
vn -0.62591 -0.24104 -0.74171
vn -0.39636 -0.14801 -0.90608
vn -0.39759 -0.14596 -0.90588
vn -0.39358 -0.14536 -0.90772
vn 0.34937 0.19169 -0.91717
vn 0.35120 0.19029 -0.91676
vn 0.58586 0.30434 -0.75109
vn 0.58022 0.30483 -0.75527
vn 0.57757 0.30464 -0.75737
vn 0.35200 0.19372 -0.91573
vn -0.38734 -0.14384 -0.91065
vn 0.57484 0.30258 -0.76026
vn 0.35322 0.19309 -0.91540
vn -0.38180 -0.13948 -0.91366
vn 0.56954 0.30195 -0.76449
vn 0.34988 0.19233 -0.91684
vn -0.37703 -0.13957 -0.91562
vn -0.60674 -0.23693 -0.75877
vn -0.37584 -0.14358 -0.91549
vn -0.60258 -0.24216 -0.76043
vn -0.86190 -0.35114 -0.36582
vn -0.60316 -0.24177 -0.76010
vn -0.85947 -0.35080 -0.37181
vn -0.92675 -0.37567 0.00000
vn -0.92721 -0.37453 -0.00000
vn 0.88714 0.46149 0.00001
vn 0.88602 0.46364 -0.00000
vn 0.82986 0.43174 -0.35346
vn 0.83343 0.43139 -0.34539
vn 0.83796 0.42958 -0.33659
vn 0.88879 0.45831 0.00000
vn 0.59660 0.30621 -0.74182
vn 0.36324 0.19418 -0.91124
vn 0.38008 0.20704 -0.90148
vn -0.39665 -0.14751 -0.90604
vn 0.88540 0.46483 -0.00000
vn 0.82701 0.43104 -0.36091
vn 0.88446 0.46661 0.00000
vn 0.82365 0.43201 -0.36737
vn 0.88247 0.47037 0.00000
vn 0.81946 0.43617 -0.37180
vn 0.56228 0.30507 -0.76862
vn 0.81907 0.43407 -0.37512
vn 0.55840 0.30349 -0.77207
vn 0.33894 0.19354 -0.92069
vn 0.34320 0.19440 -0.91892
vn 0.56106 0.29153 -0.77474
vn 0.34054 0.18363 -0.92212
vn -0.38094 -0.14447 -0.91324
vn -0.38787 -0.14205 -0.91070
vn -0.60817 -0.23469 -0.75832
vn -0.38716 -0.14191 -0.91103
vn -0.61173 -0.22745 -0.75766
vn -0.86800 -0.32680 -0.37388
vn -0.86205 -0.34096 -0.37500
vn -0.93532 -0.35381 -0.00000
vn -0.92995 -0.36768 0.00000
vn 0.88384 0.46779 0.00000
vn 0.89064 0.45471 -0.00000
vn 0.82455 0.42096 -0.37803
vn 0.88639 0.46294 -0.00000
vn 0.82034 0.42537 -0.38225
vn 0.55698 0.28567 -0.77985
vn 0.81175 0.43537 -0.38925
vn 0.54216 0.28126 -0.79181
vn 0.32036 0.15854 -0.93393
vn 0.33723 0.17210 -0.92556
vn 0.54846 0.22409 -0.80559
vn 0.31172 0.10434 -0.94443
vn -0.37363 -0.14423 -0.91630
vn -0.34668 -0.17954 -0.92064
vn -0.59024 -0.25763 -0.76502
vn -0.60832 -0.22349 -0.76158
vn -0.86440 -0.34301 -0.36765
vn -0.87402 -0.31325 -0.37142
vn -0.93047 -0.36637 -0.00002
vn -0.94142 -0.33724 -0.00000
vn 0.87914 0.47656 0.00001
vn 0.91225 0.40964 -0.00003
vn 0.83998 0.37370 -0.39342
vn 0.99170 0.12855 0.00036
vn 0.99579 -0.09162 0.00076
vn 0.65099 -0.75909 0.00031
vn 0.35024 -0.93666 -0.00007
vn 0.00645 -0.99998 -0.00044
vn -0.73575 -0.67726 -0.00067
vn -0.83645 -0.54804 -0.00036
vn -0.70875 0.23658 0.66460
vn -0.83610 0.48865 0.24933
vn -0.76165 -0.18849 0.61997
vn -0.54278 -0.06352 0.83747
vn -0.93951 -0.27797 0.20013
vn -0.92748 -0.31011 0.20883
vn -0.91075 -0.26959 0.31281
vn 0.93935 -0.06995 0.33576
vn 0.92041 0.12346 0.37096
vn 0.60743 0.01523 0.79423
vn 0.63919 -0.34807 0.68577
vn 0.20514 -0.62199 0.75568
vn 0.32916 -0.89370 0.30488
vn 0.61429 -0.73460 0.28811
vn 0.03974 -0.21550 0.97569
vn -0.51712 -0.41358 0.74936
vn -0.78729 -0.51068 0.34552
vn -0.70669 -0.63135 0.31934
vn -0.30453 -0.68535 0.66148
vn 0.00925 -0.95725 0.28910
vn 0.70468 0.43620 0.55960
vn 0.86216 0.46630 0.19810
vn 0.66252 0.71594 0.22022
vn 0.61735 0.60602 0.50163
vn 0.47307 0.65341 0.59099
vn 0.51657 0.38129 0.76666
vn 0.39862 0.88754 0.23105
vn 0.69767 0.38989 0.60103
vn 0.86564 0.45069 0.21803
vn 0.50524 0.30989 0.80542
vn 0.45386 0.25878 0.85267
vn 0.67269 0.35783 0.64765
vn -0.73120 -0.25266 0.63364
vn -0.70968 -0.27207 0.64987
vn -0.49492 -0.17293 0.85156
vn -0.52040 -0.14878 0.84086
vn -0.90829 -0.35326 0.22407
vn -0.90106 -0.36185 0.23906
vn 0.86485 0.44271 0.23673
vn 0.85981 0.44265 0.25453
vn 0.64716 0.34759 0.67851
vn 0.63335 0.34029 0.69504
vn 0.85491 0.44134 0.27266
vn 0.41176 0.23947 0.87926
vn 0.39822 0.22981 0.88803
vn -0.69529 -0.26537 0.66795
vn -0.67830 -0.26082 0.68694
vn -0.45226 -0.15993 0.87743
vn -0.47604 -0.16638 0.86354
vn -0.89786 -0.35878 0.25520
vn -0.89269 -0.35948 0.27179
vn 0.85108 0.43786 0.28971
vn -0.87293 -0.34527 0.34465
vn -0.87594 -0.34371 0.33851
vn -0.87072 -0.34459 0.35085
vn -0.61543 -0.23971 0.75086
vn -0.62092 -0.24099 0.74591
vn -0.86981 -0.34157 0.35603
vn -0.61138 -0.23557 0.75546
vn -0.86689 -0.34449 0.36033
vn 0.84485 0.43152 0.31625
vn 0.84241 0.42822 0.32707
vn 0.84713 0.43589 0.30393
vn 0.61778 0.32793 0.71470
vn 0.60842 0.31551 0.72820
vn 0.62557 0.33469 0.70473
vn 0.39656 0.22770 0.88932
vn 0.39198 0.22225 0.89272
vn -0.66121 -0.25598 0.70518
vn -0.64431 -0.25280 0.72177
vn -0.40883 -0.14622 0.90082
vn -0.42962 -0.15121 0.89026
vn -0.88732 -0.35941 0.28895
vn -0.88242 -0.35802 0.30521
vn -0.87804 -0.35628 0.31956
vn -0.87672 -0.34920 0.33078
vn -0.62783 -0.24634 0.73834
vn -0.63189 -0.25154 0.73310
vn -0.62590 -0.24106 0.74172
vn -0.39758 -0.14598 0.90588
vn -0.39636 -0.14802 0.90608
vn -0.39360 -0.14533 0.90772
vn 0.58024 0.30477 0.75527
vn 0.58587 0.30432 0.75110
vn 0.35124 0.19021 0.91676
vn 0.34938 0.19166 0.91717
vn 0.35202 0.19367 0.91574
vn 0.57760 0.30457 0.75737
vn -0.38740 -0.14370 0.91065
vn 0.35320 0.19312 0.91540
vn 0.57486 0.30254 0.76027
vn -0.38185 -0.13937 0.91366
vn 0.34984 0.19243 0.91684
vn 0.56954 0.30194 0.76449
vn -0.60675 -0.23691 0.75877
vn -0.37704 -0.13953 0.91562
vn -0.60260 -0.24212 0.76043
vn -0.37587 -0.14351 0.91549
vn -0.86190 -0.35113 0.36582
vn -0.85946 -0.35082 0.37182
vn -0.60314 -0.24178 0.76011
vn 0.83344 0.43136 0.34540
vn 0.82988 0.43170 0.35346
vn 0.83794 0.42960 0.33660
vn 0.59661 0.30618 0.74183
vn 0.36320 0.19423 0.91124
vn 0.38001 0.20713 0.90149
vn -0.39661 -0.14756 0.90605
vn 0.82704 0.43099 0.36091
vn 0.82368 0.43196 0.36738
vn 0.81946 0.43617 0.37180
vn 0.56228 0.30507 0.76862
vn 0.55839 0.30350 0.77207
vn 0.81905 0.43409 0.37512
vn 0.34320 0.19441 0.91892
vn 0.33895 0.19351 0.92069
vn 0.34052 0.18368 0.92212
vn 0.56104 0.29156 0.77474
vn -0.60814 -0.23472 0.75833
vn -0.38784 -0.14209 0.91071
vn -0.38093 -0.14446 0.91325
vn -0.61168 -0.22754 0.75767
vn -0.38705 -0.14206 0.91105
vn -0.86204 -0.34097 0.37501
vn -0.86799 -0.32680 0.37388
vn 0.82455 0.42097 0.37803
vn 0.82031 0.42543 0.38222
vn 0.55704 0.28557 0.77985
vn 0.54206 0.28140 0.79182
vn 0.81167 0.43549 0.38927
vn 0.33736 0.17177 0.92557
vn 0.32033 0.15858 0.93394
vn 0.31145 0.10467 0.94448
vn 0.54827 0.22431 0.80566
vn -0.60837 -0.22341 0.76156
vn -0.59031 -0.25753 0.76499
vn -0.34692 -0.17917 0.92062
vn -0.37371 -0.14407 0.91629
vn -0.87403 -0.31324 0.37141
vn -0.86438 -0.34306 0.36763
vn 0.83993 0.37378 0.39345
f 1//1 5//2 6//2 7//1
f 1//1 7//1 8//3 9//4
f 1//5 9//4 10//6 5//7
f 2//8 11//9 12//10 13//11
f 2//12 13//13 14//14 15//15
f 2//16 15//15 16//17 11//9
f 3//18 17//19 18//20 19//21
f 3//18 15//15 14//14 17//22
f 3//18 19//21 16//17 15//15
f 4//23 20//24 21//25 22//26
f 4//23 22//26 8//27 7//28
f 4//23 7//28 6//29 20//24
f 22//26 21//25 23//30 24//31
f 22//26 24//31 25//32 8//27
f 25//32 24//31 26//33 27//34
f 25//35 27//36 28//37 29//38
f 25//35 29//38 9//4 8//3
f 29//38 28//37 30//39 31//40
f 29//38 31//40 10//6 9//4
f 31//40 30//39 32//41 33//42
f 31//40 33//42 34//43 10//6
f 34//43 35//44 5//7 10//6
f 36//45 146//46 23//30 21//25
f 36//45 21//25 20//24 37//47
f 37//47 20//24 6//29 38//48
f 38//49 6//2 5//2 35//49
f 146//46 147//50 39//51 23//30
f 39//51 147//50 148//52 40//53
f 39//51 40//53 41//54 26//33
f 39//51 26//33 24//31 23//30
f 41//54 40//53 42//55 43//56
f 41//54 43//56 44//57 45//58
f 41//54 45//58 27//34 26//33
f 45//59 44//60 46//61 47//62
f 45//59 47//62 28//37 27//36
f 47//62 46//61 48//63 49//64
f 47//62 49//64 30//39 28//37
f 49//64 48//63 50//65 51//66
f 49//64 51//66 32//41 30//39
f 52//67 53//68 54//69 42//55
f 52//67 42//55 40//53 148//52
f 149//70 57//71 59//72 60//73
f 149//70 60//73 61//74 58//75
f 61//74 60//73 62//76 63//77
f 61//74 63//77 64//78 65//79
f 61//74 65//79 66//80 58//75
f 66//80 65//79 67//81 150//82
f 151//83 69//84 70//85 71//86
f 151//83 71//86 72//87 55//88
f 72//87 54//69 53//68 55//88
f 72//87 71//86 73//89 74//90
f 72//87 74//90 75//91 54//69
f 75//91 43//56 42//55 54//69
f 75//91 74//90 76//92 77//93
f 75//91 77//93 44//57 43//56
f 77//94 76//95 78//96 79//97
f 77//94 79//97 46//61 44//60
f 79//97 78//96 80//98 81//99
f 79//97 81//99 48//63 46//61
f 81//99 80//98 152//100 153//101
f 81//99 153//101 50//65 48//63
f 154//102 152//100 80//98 82//103
f 154//102 82//103 83//104 56//105
f 83//104 82//103 84//106 85//107
f 83//104 85//107 86//108 59//72
f 83//104 59//72 57//71 56//105
f 86//108 85//107 87//109 88//110
f 86//108 88//110 89//111 62//76
f 86//108 62//76 60//73 59//72
f 89//112 88//113 90//114 91//115
f 89//112 91//115 92//116 93//117
f 89//111 93//118 63//77 62//76
f 93//117 92//116 94//119 95//120
f 93//118 95//121 64//78 63//77
f 95//120 94//119 96//122 97//123
f 95//121 97//124 98//125 64//78
f 98//125 97//124 99//126 100//127
f 98//125 100//127 101//128 67//81
f 98//125 67//81 65//79 64//78
f 101//128 100//127 102//129 103//130
f 101//128 103//130 104//131 155//132
f 101//128 155//132 150//82 67//81
f 105//133 156//134 106//135 107//136
f 105//133 107//136 108//137 68//138
f 108//137 70//85 69//84 68//138
f 108//137 107//136 91//115 90//114
f 108//137 90//114 109//139 70//85
f 109//139 73//89 71//86 70//85
f 109//139 90//114 88//113 87//140
f 109//139 87//140 110//141 73//89
f 110//141 76//92 74//90 73//89
f 110//142 87//109 85//107 84//106
f 110//142 84//106 78//96 76//95
f 107//136 106//135 92//116 91//115
f 106//135 156//134 157//143 111//144
f 106//135 111//144 94//119 92//116
f 111//144 157//143 158//145 112//146
f 111//144 112//146 96//122 94//119
f 112//146 158//145 113//147 114//148
f 112//146 114//148 115//149 96//122
f 115//149 114//148 116//150 117//151
f 115//149 117//151 118//152 99//153
f 115//149 99//153 97//123 96//122
f 118//152 117//151 119//154 120//155
f 118//156 120//157 121//158 102//129
f 118//156 102//129 100//127 99//126
f 121//158 120//157 122//159 123//160
f 121//158 123//160 124//161 125//162
f 121//158 125//162 103//130 102//129
f 125//162 124//161 159//163 126//164
f 125//162 126//164 104//131 103//130
f 127//165 160//166 128//167 116//150
f 127//165 116//150 114//148 113//147
f 128//167 160//166 129//168 130//169
f 128//167 130//169 131//170 119//154
f 128//167 119//154 117//151 116//150
f 131//170 130//169 132//171 133//172
f 131//170 133//172 134//173 122//174
f 131//170 122//174 120//155 119//154
f 134//173 133//172 135//175 136//176
f 134//177 136//178 137//179 138//180
f 134//177 138//180 123//160 122//159
f 138//180 137//179 139//181 140//182
f 138//180 140//182 124//161 123//160
f 140//182 139//181 161//183 162//184
f 140//182 162//184 159//163 124//161
f 141//185 163//186 142//187 132//171
f 141//185 132//171 130//169 129//168
f 142//187 163//186 164//188 12//10
f 142//187 12//10 11//9 135//175
f 142//187 135//175 133//172 132//171
f 164//188 143//189 13//11 12//10
f 143//190 144//191 14//14 13//13
f 144//191 145//192 17//22 14//14
f 145//193 165//194 18//20 17//19
f 165//194 161//183 139//181 18//20
f 139//181 137//179 19//21 18//20
f 137//179 136//178 16//17 19//21
f 136//176 135//175 11//9 16//17
f 84//106 82//103 80//98 78//96
f 172//195 171//196 170//196 166//195
f 174//197 173//198 172//195 166//195
f 170//199 175//200 174//197 166//201
f 178//202 177//203 176//204 167//205
f 180//206 179//207 178//208 167//205
f 176//204 181//209 180//206 167//205
f 184//210 183//211 182//212 168//213
f 182//214 179//207 180//206 168//213
f 180//206 181//209 184//210 168//213
f 187//215 186//216 185//217 169//218
f 172//219 173//220 187//215 169//218
f 185//217 171//221 172//219 169//218
f 189//222 188//223 186//216 187//215
f 173//220 190//224 189//222 187//215
f 192//225 191//226 189//222 190//224
f 194//227 193//228 192//229 190//230
f 173//198 174//197 194//227 190//230
f 196//231 195//232 193//228 194//227
f 174//197 175//200 196//231 194//227
f 33//42 32//41 195//232 196//231
f 175//200 34//43 33//42 196//231
f 175//200 170//199 35//44 34//43
f 186//216 188//223 146//46 36//45
f 37//47 185//217 186//216 36//45
f 38//48 171//221 185//217 37//47
f 35//49 170//196 171//196 38//49
f 188//223 197//233 147//50 146//46
f 198//234 148//52 147//50 197//233
f 191//226 199//235 198//234 197//233
f 188//223 189//222 191//226 197//233
f 201//236 200//237 198//234 199//235
f 203//238 202//239 201//236 199//235
f 191//226 192//225 203//238 199//235
f 205//240 204//241 202//242 203//243
f 192//229 193//228 205//240 203//243
f 207//244 206//245 204//241 205//240
f 193//228 195//232 207//244 205//240
f 51//66 50//65 206//245 207//244
f 195//232 32//41 51//66 207//244
f 200//237 208//246 53//68 52//67
f 148//52 198//234 200//237 52//67
f 210//247 209//248 57//71 149//70
f 58//75 211//249 210//247 149//70
f 213//250 212//251 210//247 211//249
f 215//252 214//253 213//250 211//249
f 58//75 66//80 215//252 211//249
f 150//82 216//254 215//252 66//80
f 218//255 217//256 69//84 151//83
f 55//88 219//257 218//255 151//83
f 55//88 53//68 208//246 219//257
f 221//258 220//259 218//255 219//257
f 208//246 222//260 221//258 219//257
f 208//246 200//237 201//236 222//260
f 224//261 223//262 221//258 222//260
f 201//236 202//239 224//261 222//260
f 226//263 225//264 223//265 224//266
f 202//242 204//241 226//263 224//266
f 228//267 227//268 225//264 226//263
f 204//241 206//245 228//267 226//263
f 153//101 152//100 227//268 228//267
f 206//245 50//65 153//101 228//267
f 229//269 227//268 152//100 154//102
f 56//105 230//270 229//269 154//102
f 232//271 231//272 229//269 230//270
f 209//248 233//273 232//271 230//270
f 56//105 57//71 209//248 230//270
f 235//274 234//275 232//271 233//273
f 212//251 236//276 235//274 233//273
f 209//248 210//247 212//251 233//273
f 238//277 237//278 235//279 236//280
f 240//281 239//282 238//277 236//280
f 212//251 213//250 240//283 236//276
f 242//284 241//285 239//282 240//281
f 213//250 214//253 242//286 240//283
f 244//287 243//288 241//285 242//284
f 214//253 245//289 244//290 242//286
f 247//291 246//292 244//290 245//289
f 216//254 248//293 247//291 245//289
f 214//253 215//252 216//254 245//289
f 250//294 249//295 247//291 248//293
f 155//132 104//131 250//294 248//293
f 216//254 150//82 155//132 248//293
f 252//296 251//297 156//134 105//133
f 68//138 253//298 252//296 105//133
f 68//138 69//84 217//256 253//298
f 237//278 238//277 252//296 253//298
f 217//256 254//299 237//278 253//298
f 217//256 218//255 220//259 254//299
f 234//300 235//279 237//278 254//299
f 220//259 255//301 234//300 254//299
f 220//259 221//258 223//262 255//301
f 231//272 232//271 234//275 255//302
f 223//265 225//264 231//272 255//302
f 238//277 239//282 251//297 252//296
f 256//303 157//143 156//134 251//297
f 239//282 241//285 256//303 251//297
f 257//304 158//145 157//143 256//303
f 241//285 243//288 257//304 256//303
f 258//305 113//147 158//145 257//304
f 243//288 259//306 258//305 257//304
f 261//307 260//308 258//305 259//306
f 246//309 262//310 261//307 259//306
f 243//288 244//287 246//309 259//306
f 264//311 263//312 261//307 262//310
f 249//295 265//313 264//314 262//315
f 246//292 247//291 249//295 262//315
f 267//316 266//317 264//314 265//313
f 269//318 268//319 267//316 265//313
f 249//295 250//294 269//318 265//313
f 126//164 159//163 268//319 269//318
f 250//294 104//131 126//164 269//318
f 260//308 270//320 160//166 127//165
f 113//147 258//305 260//308 127//165
f 271//321 129//168 160//166 270//320
f 263//312 272//322 271//321 270//320
f 260//308 261//307 263//312 270//320
f 274//323 273//324 271//321 272//322
f 266//325 275//326 274//323 272//322
f 263//312 264//311 266//325 272//322
f 277//327 276//328 274//323 275//326
f 279//329 278//330 277//331 275//332
f 266//317 267//316 279//329 275//332
f 281//333 280//334 278//330 279//329
f 267//316 268//319 281//333 279//329
f 162//184 161//183 280//334 281//333
f 268//319 159//163 162//184 281//333
f 273//324 282//335 163//186 141//185
f 129//168 271//321 273//324 141//185
f 177//203 164//188 163//186 282//335
f 276//328 176//204 177//203 282//335
f 273//324 274//323 276//328 282//335
f 177//203 178//202 143//189 164//188
f 178//208 179//207 144//191 143//190
f 179//207 182//214 145//192 144//191
f 182//212 183//211 165//194 145//193
f 183//211 280//334 161//183 165//194
f 183//211 184//210 278//330 280//334
f 184//210 181//209 277//331 278//330
f 181//209 176//204 276//328 277//327
f 225//264 227//268 229//269 231//272
