# pilowlava3D glyph '[' variant 1 — Vincent Wagner / Velvetyne, Free Art License
v 1.68332 4.82028 -0.38774
v 1.72851 0.76927 -0.25493
v 1.75313 4.70608 -0.23731
v 1.43010 4.72804 -0.22877
v 1.45994 4.87861 -0.40236
v 1.48252 5.12018 -0.45410
v 1.72901 5.07025 -0.43090
v 1.93465 5.00631 -0.25854
v 1.75084 0.81886 0.00000
v 1.48780 0.81997 0.00000
v 1.85415 0.60698 -0.31439
v 1.58949 0.55395 -0.43300
v 1.51551 0.74736 -0.28613
v 1.88396 5.28737 -0.24336
v 1.68760 5.36425 -0.30107
v 1.82590 0.13688 -0.26015
v 1.60435 0.08471 -0.29287
v 1.62171 0.32240 -0.44066
v 1.90026 0.34539 -0.31645
v 1.86748 0.09467 0.00000
v 1.59512 0.00000 0.00000
v 1.32119 0.03638 0.00000
v 1.34208 0.10874 -0.28070
v 1.07175 0.11527 0.00000
v 0.48813 0.60963 0.00000
v 0.48582 0.79343 0.00000
v 0.62318 0.50279 -0.17347
v 0.47455 0.60145 -0.17196
v 0.45589 0.78550 -0.20383
v 0.44343 0.57540 -0.28590
v 0.37095 0.76681 -0.33855
v 0.36930 1.01460 -0.37935
v 0.49025 1.01149 -0.23590
v 0.53548 1.00643 0.00000
v 0.53212 1.25490 -0.24195
v 0.58305 1.24977 0.00000
v 0.30776 0.47663 0.00000
v 0.54987 0.30484 0.00000
v 0.81998 0.20007 0.00000
v 0.55466 0.32277 -0.18240
v 0.82105 0.23331 -0.21468
v 1.08877 0.16945 -0.25615
v 0.82297 0.31307 -0.33961
v 1.09627 0.30182 -0.39584
v 1.36338 0.30423 -0.43445
v 1.08781 0.45252 -0.39226
v 1.34393 0.49803 -0.42475
v 1.06481 0.58044 -0.24940
v 1.28961 0.66247 -0.26646
v 1.26327 0.72229 0.00000
v 0.83478 0.51263 -0.20852
v 0.82809 0.42698 -0.33821
v 0.60682 0.46211 -0.28607
v 0.57497 0.38311 -0.29777
v 0.38195 0.52296 -0.30460
v 0.32372 0.48279 -0.18258
v 0.16121 0.72568 -0.21007
v 0.25199 0.74324 -0.34331
v 0.08411 0.99898 -0.24051
v 0.20889 1.00641 -0.38502
v 0.06197 1.26819 -0.25223
v 0.20815 1.26580 -0.40504
v 0.38862 1.26056 -0.39971
v 0.21761 1.52051 -0.41592
v 0.40482 1.51362 -0.41267
v 0.55577 1.50839 -0.24768
v 0.41698 1.76987 -0.42008
v 0.57471 1.76321 -0.25089
v 0.63262 1.75822 0.00000
v 0.61096 1.50441 0.00000
v 0.06173 1.52524 -0.25306
v 0.00000 1.77984 0.00000
v 0.06050 1.77992 -0.25348
v 0.22150 1.77672 -0.42213
v 0.06339 2.03314 -0.25316
v 0.22823 2.03025 -0.42458
v 0.43072 2.02497 -0.42425
v 0.23119 2.28203 -0.42652
v 0.43480 2.28113 -0.42658
v 0.59796 2.28117 -0.25413
v 0.59447 2.02063 -0.25342
v 0.06513 2.28439 -0.25404
v 0.00202 2.53963 0.00000
v 0.06446 2.53752 -0.25541
v 0.22892 2.53674 -0.42796
v 0.06600 2.79280 -0.25527
v 0.22842 2.79316 -0.42690
v 0.42934 2.79342 -0.42621
v 0.43117 2.53765 -0.42738
v 0.59109 2.79376 -0.25409
v 0.59377 2.53865 -0.25445
v 0.65260 2.79416 0.00000
v 0.00420 2.79413 0.00000
v 0.06751 3.04701 -0.25405
v 0.00682 3.29971 0.00000
v 0.59216 4.07953 0.00000
v 0.56035 4.32970 0.00000
v 0.55622 3.82312 -0.24690
v 0.53819 4.07667 -0.24246
v 0.51147 4.32516 -0.23740
v 0.39147 4.07270 -0.40354
v 0.37719 4.32131 -0.38868
v 0.36802 4.56848 -0.36194
v 0.47438 4.56171 -0.22608
v 0.51389 4.56105 0.00000
v 0.45418 4.77572 -0.18614
v 0.00253 4.06409 0.00000
v 0.00561 3.55176 0.00000
v 0.06039 3.80672 -0.25172
v 0.06446 3.55103 -0.25357
v 0.06736 3.29910 -0.25389
v 0.22112 3.55574 -0.42143
v 0.22786 3.30180 -0.42431
v 0.22949 3.04849 -0.42579
v 0.42826 3.30663 -0.42363
v 0.43085 3.04968 -0.42535
v 0.58956 3.31035 -0.25330
v 0.59224 3.05063 -0.25436
v 0.65292 3.05067 0.00000
v 0.57490 3.56850 -0.25062
v 0.41629 3.56294 -0.41936
v 0.40356 3.81801 -0.41267
v 0.21438 3.81219 -0.41673
v 0.20779 4.06779 -0.40796
v 0.05834 4.06368 -0.25023
v 0.06671 4.32682 -0.24610
v 0.20470 4.32370 -0.39425
v 0.11386 4.59870 -0.22628
v 0.22560 4.58559 -0.36575
v 0.23063 4.86550 -0.19257
v 0.30178 4.84223 -0.31670
v 0.40242 4.80198 -0.30368
v 0.46578 5.03177 -0.28658
v 0.51425 4.96704 -0.27236
v 0.53800 4.93801 -0.16549
v 0.71001 5.03054 -0.30214
v 0.72858 4.97406 -0.17815
v 0.73534 4.95429 0.00000
v 0.07665 4.60177 0.00000
v 0.01630 4.33005 0.00000
v 0.43502 5.07217 -0.17756
v 0.68681 5.21498 0.00000
v 0.68847 5.18910 -0.19434
v 0.69352 5.12668 -0.31509
v 0.94797 5.25760 -0.24015
v 0.94929 5.15178 -0.37658
v 0.95476 5.02202 -0.35956
v 1.22464 5.14878 -0.42754
v 1.21796 4.97327 -0.39750
v 1.18821 4.83823 -0.23084
v 0.96021 4.92157 -0.21901
v 1.18083 5.38826 0.00000
v 1.20211 5.32011 -0.28004
v 1.42268 5.45035 0.00000
v 1.44537 5.36851 -0.29983
v 1.67500 5.45372 0.00000
v 1.91085 5.32296 0.00000
v 1.77933 4.66691 0.00000
v 1.94080 0.62744 0.00000
v 1.99011 0.34926 0.00000
v 0.62844 0.51663 0.00000
v 1.04817 0.62954 0.00000
v 0.83932 0.54581 0.00000
v 0.03882 0.99939 0.00000
v 0.13123 0.72490 0.00000
v 0.00632 1.26654 0.00000
v 0.00204 1.52460 0.00000
v 0.65900 2.28018 0.00000
v 0.65429 2.01754 0.00000
v 0.00081 2.03440 0.00000
v 0.00155 2.28652 0.00000
v 0.65538 2.53823 0.00000
v 0.00631 3.04732 0.00000
v 0.61419 3.82596 0.00000
v 0.47413 4.76555 0.00000
v 0.00344 3.80597 0.00000
v 0.64996 3.30997 0.00000
v 0.63522 3.57064 0.00000
v 0.54865 4.92861 0.00000
v 0.21077 4.86980 0.00000
v 0.42622 5.08406 0.00000
v 1.17051 4.79098 0.00000
v 0.95690 4.88059 0.00000
v 0.94524 5.30623 0.00000
v 1.98560 4.99060 0.00000
v 1.42211 4.67616 0.00000
v 1.68332 4.82028 0.38774
v 1.72851 0.76927 0.25493
v 1.75313 4.70608 0.23731
v 1.43010 4.72804 0.22877
v 1.45994 4.87861 0.40236
v 1.48252 5.12018 0.45410
v 1.72901 5.07025 0.43090
v 1.93465 5.00631 0.25854
v 1.85415 0.60698 0.31439
v 1.58949 0.55395 0.43300
v 1.51551 0.74736 0.28613
v 1.88396 5.28737 0.24336
v 1.68760 5.36425 0.30107
v 1.82590 0.13688 0.26015
v 1.60435 0.08471 0.29287
v 1.62171 0.32240 0.44066
v 1.90026 0.34539 0.31645
v 1.34208 0.10874 0.28070
v 0.62318 0.50279 0.17347
v 0.47455 0.60145 0.17196
v 0.45589 0.78550 0.20383
v 0.44343 0.57540 0.28590
v 0.37095 0.76681 0.33855
v 0.36930 1.01460 0.37935
v 0.49025 1.01149 0.23590
v 0.53212 1.25490 0.24195
v 0.55466 0.32277 0.18240
v 0.82105 0.23331 0.21468
v 1.08877 0.16945 0.25615
v 0.82297 0.31307 0.33961
v 1.09627 0.30182 0.39584
v 1.36338 0.30423 0.43445
v 1.08781 0.45252 0.39226
v 1.34393 0.49803 0.42475
v 1.06481 0.58044 0.24940
v 1.28961 0.66247 0.26646
v 0.83478 0.51263 0.20852
v 0.82809 0.42698 0.33821
v 0.60682 0.46211 0.28607
v 0.57497 0.38311 0.29777
v 0.38195 0.52296 0.30460
v 0.32372 0.48279 0.18258
v 0.16121 0.72568 0.21007
v 0.25199 0.74324 0.34331
v 0.08411 0.99898 0.24051
v 0.20889 1.00641 0.38502
v 0.06197 1.26819 0.25223
v 0.20815 1.26580 0.40504
v 0.38862 1.26056 0.39971
v 0.21761 1.52051 0.41592
v 0.40482 1.51362 0.41267
v 0.55577 1.50839 0.24768
v 0.41698 1.76987 0.42008
v 0.57471 1.76321 0.25089
v 0.06173 1.52524 0.25306
v 0.06050 1.77992 0.25348
v 0.22150 1.77672 0.42213
v 0.06339 2.03314 0.25316
v 0.22823 2.03025 0.42458
v 0.43072 2.02497 0.42425
v 0.23119 2.28203 0.42652
v 0.43480 2.28113 0.42658
v 0.59796 2.28117 0.25413
v 0.59447 2.02063 0.25342
v 0.06513 2.28439 0.25404
v 0.06446 2.53752 0.25541
v 0.22892 2.53674 0.42796
v 0.06600 2.79280 0.25527
v 0.22842 2.79316 0.42690
v 0.42934 2.79342 0.42621
v 0.43117 2.53765 0.42738
v 0.59109 2.79376 0.25409
v 0.59377 2.53865 0.25445
v 0.06751 3.04701 0.25405
v 0.55622 3.82312 0.24690
v 0.53819 4.07667 0.24246
v 0.51147 4.32516 0.23740
v 0.39147 4.07270 0.40354
v 0.37719 4.32131 0.38868
v 0.36802 4.56848 0.36194
v 0.47438 4.56171 0.22608
v 0.45418 4.77572 0.18614
v 0.06039 3.80672 0.25172
v 0.06446 3.55103 0.25357
v 0.06736 3.29910 0.25389
v 0.22112 3.55574 0.42143
v 0.22786 3.30180 0.42431
v 0.22949 3.04849 0.42579
v 0.42826 3.30663 0.42363
v 0.43085 3.04968 0.42535
v 0.58956 3.31035 0.25330
v 0.59224 3.05063 0.25436
v 0.57490 3.56850 0.25062
v 0.41629 3.56294 0.41936
v 0.40356 3.81801 0.41267
v 0.21438 3.81219 0.41673
v 0.20779 4.06779 0.40796
v 0.05834 4.06368 0.25023
v 0.06671 4.32682 0.24610
v 0.20470 4.32370 0.39425
v 0.11386 4.59870 0.22628
v 0.22560 4.58559 0.36575
v 0.23063 4.86550 0.19257
v 0.30178 4.84223 0.31670
v 0.40242 4.80198 0.30368
v 0.46578 5.03177 0.28658
v 0.51425 4.96704 0.27236
v 0.53800 4.93801 0.16549
v 0.71001 5.03054 0.30214
v 0.72858 4.97406 0.17815
v 0.43502 5.07217 0.17756
v 0.68847 5.18910 0.19434
v 0.69352 5.12668 0.31509
v 0.94797 5.25760 0.24015
v 0.94929 5.15178 0.37658
v 0.95476 5.02202 0.35956
v 1.22464 5.14878 0.42754
v 1.21796 4.97327 0.39750
v 1.18821 4.83823 0.23084
v 0.96021 4.92157 0.21901
v 1.20211 5.32011 0.28004
v 1.44537 5.36851 0.29983
vn -0.12427 -0.78802 -0.60298
vn -0.08892 -0.90851 -0.40829
vn -0.22861 -0.87367 -0.42946
vn -0.13245 -0.49883 -0.85652
vn 0.03387 -0.19359 -0.98050
vn -0.02443 0.18338 -0.98274
vn 0.36155 0.06183 -0.93030
vn 0.67302 -0.31194 -0.67063
vn 0.74934 -0.21669 -0.62573
vn 0.78277 -0.43417 -0.44583
vn 0.14948 0.52878 -0.83549
vn 0.28285 0.31584 -0.90567
vn 0.07808 0.32936 -0.94097
vn -0.13027 0.81357 -0.56669
vn -0.03494 0.97596 -0.21515
vn -0.21182 0.97731 0.00169
vn -0.03290 0.99945 0.00323
vn 0.71625 0.66467 -0.21259
vn 0.73018 0.68324 0.00300
vn 0.89324 0.44957 0.00158
vn 0.86532 0.43337 -0.25182
vn 0.50782 0.25266 -0.82358
vn 0.30645 0.37500 -0.87491
vn 0.30233 -0.42057 -0.85541
vn 0.12317 -0.79196 -0.59801
vn 0.16932 -0.23333 -0.95754
vn 0.36181 -0.17548 -0.91559
vn 0.95735 -0.12315 -0.26136
vn 0.99201 -0.12616 -0.00119
vn 0.91089 -0.41265 -0.00228
vn 0.88550 -0.40438 -0.22884
vn 0.29525 -0.95541 -0.00362
vn 0.09179 -0.99578 -0.00170
vn 0.28989 -0.92865 -0.23147
vn -0.19919 -0.97996 0.00018
vn -0.15475 -0.82448 -0.54432
vn 0.55248 0.83353 0.00000
vn 0.24004 0.97076 0.00008
vn 0.25136 0.93139 -0.26330
vn 0.54343 0.81202 -0.21285
vn 0.99890 0.04680 0.00032
vn 0.95750 0.08774 -0.27475
vn 0.94300 -0.04468 -0.32979
vn 0.99704 -0.07689 -0.00022
vn 0.89454 0.12939 -0.42786
vn 0.86100 -0.01078 -0.50849
vn 0.77507 -0.14025 -0.61612
vn 0.89636 -0.16886 -0.40991
vn 0.98145 -0.19171 -0.00039
vn 0.88385 -0.12755 -0.45005
vn 0.98966 -0.14342 -0.00002
vn -0.31835 -0.94797 0.00048
vn -0.46450 -0.88557 0.00026
vn -0.44684 -0.84173 -0.30303
vn -0.29721 -0.88385 -0.36121
vn -0.24291 -0.85577 -0.45679
vn -0.28400 -0.95882 0.00038
vn -0.26512 -0.78945 -0.55360
vn -0.19043 -0.71476 -0.67294
vn -0.09933 -0.31100 -0.94521
vn -0.16978 0.02120 -0.98525
vn -0.17108 0.34928 -0.92127
vn -0.26253 0.71374 -0.64935
vn -0.31723 0.84165 -0.43703
vn -0.31833 0.79849 -0.51097
vn -0.35946 0.93316 -0.00052
vn -0.38109 0.92454 0.00014
vn -0.19052 0.91963 -0.34349
vn -0.22294 0.97483 -0.00054
vn -0.15196 0.83559 -0.52792
vn 0.25898 0.87358 -0.41205
vn -0.03033 0.13156 -0.99084
vn -0.19037 0.06825 -0.97934
vn 0.15455 0.01173 -0.98792
vn 0.52691 0.77937 -0.33903
vn -0.60325 -0.62193 -0.49929
vn -0.41426 -0.76844 -0.48774
vn -0.66908 -0.67756 -0.30537
vn -0.83273 -0.42210 -0.35831
vn -0.73145 -0.38161 -0.56512
vn 0.12288 -0.13582 -0.98308
vn -0.88614 -0.18794 -0.42359
vn -0.75122 -0.15995 -0.64038
vn 0.04440 -0.11726 -0.99211
vn -0.88494 -0.04845 -0.46318
vn -0.73064 -0.03689 -0.68176
vn 0.02745 -0.06439 -0.99755
vn 0.01740 -0.03755 -0.99914
vn 0.73973 -0.10607 -0.66449
vn 0.73365 -0.07068 -0.67585
vn 0.88284 -0.08318 -0.46224
vn 0.72848 -0.05756 -0.68265
vn 0.87993 -0.07067 -0.46981
vn 0.99671 -0.08102 -0.00001
vn 0.99574 -0.09220 -0.00001
vn -0.89644 -0.44316 0.00007
vn -0.97853 -0.20609 -0.00003
vn -0.70794 -0.70627 0.00024
vn -0.99834 -0.05764 0.00001
vn -0.99997 -0.00786 -0.00001
vn -0.87954 -0.00605 -0.47580
vn -1.00000 0.00041 0.00001
vn -0.87780 0.00166 -0.47903
vn -0.72245 0.00281 -0.69142
vn -0.72273 -0.00400 -0.69112
vn -0.87606 0.00654 -0.48215
vn -0.72125 0.00683 -0.69264
vn 0.00932 -0.02011 -0.99975
vn 0.00311 -0.01079 -0.99994
vn 0.00092 -0.00639 -0.99998
vn 0.72445 -0.03554 -0.68841
vn 0.72575 -0.00257 -0.68796
vn 0.87903 -0.00158 -0.47675
vn 0.87860 -0.04288 -0.47562
vn 1.00000 -0.00051 0.00000
vn 0.99882 -0.04855 -0.00000
vn -0.99998 0.00597 0.00000
vn -1.00000 0.00172 -0.00000
vn -0.87561 -0.00047 -0.48301
vn -0.99999 0.00316 0.00000
vn -0.87702 0.00032 -0.48045
vn -0.72364 -0.00245 -0.69018
vn -0.72136 -0.00258 -0.69255
vn -0.87849 0.00636 -0.47772
vn -0.72601 0.00496 -0.68767
vn 0.00224 -0.00000 -1.00000
vn 0.00299 0.00410 -0.99999
vn 0.72799 0.00902 -0.68553
vn 0.72828 0.00276 -0.68528
vn 0.87956 0.00340 -0.47577
vn 0.87933 0.01116 -0.47608
vn 0.99999 0.00393 -0.00000
vn 0.99992 0.01292 -0.00000
vn -0.99997 0.00754 0.00000
vn -0.99999 0.00425 -0.00000
vn -0.87937 0.00381 -0.47613
vn 0.99501 0.09976 0.00001
vn 0.99679 0.08005 -0.00000
vn 0.88078 0.07148 -0.46811
vn 0.88389 0.08905 -0.45915
vn 0.88914 0.12999 -0.43879
vn 0.98874 0.14966 0.00009
vn 0.73749 0.07480 -0.67120
vn 0.75141 0.10467 -0.65148
vn 0.81204 0.09976 -0.57501
vn 0.91634 0.13541 -0.37680
vn 0.98584 0.16770 -0.00038
vn 0.94047 -0.16667 -0.29621
vn 0.98933 -0.14569 -0.00058
vn -0.99995 -0.00971 -0.00000
vn -0.99997 -0.00825 -0.00000
vn -0.88327 -0.00552 -0.46884
vn -0.88221 -0.00911 -0.47076
vn -0.88050 -0.00439 -0.47402
vn -0.99999 -0.00361 0.00000
vn -0.73018 -0.00814 -0.68321
vn -0.72856 -0.00496 -0.68497
vn -0.72731 0.00324 -0.68630
vn 0.00274 0.00506 -0.99998
vn 0.00460 0.01028 -0.99994
vn 0.72727 0.00406 -0.68634
vn 0.72635 0.02898 -0.68672
vn 0.87899 0.03242 -0.47573
vn 0.87962 0.00421 -0.47566
vn 0.99940 0.03459 -0.00000
vn 0.99999 0.00419 -0.00000
vn 0.87852 0.06186 -0.47368
vn 0.99764 0.06860 -0.00001
vn 0.72794 0.05285 -0.68360
vn 0.73257 0.06023 -0.67802
vn 0.01848 0.02937 -0.99940
vn 0.01089 0.01860 -0.99977
vn 0.02475 0.04674 -0.99860
vn -0.72858 0.01626 -0.68476
vn -0.72975 -0.00260 -0.68371
vn -0.88441 0.01818 -0.46636
vn -0.88687 0.11033 -0.44866
vn -0.73701 0.09296 -0.66946
vn 0.03221 0.08245 -0.99607
vn -0.86934 0.29681 -0.39517
vn -0.74762 0.26144 -0.61050
vn 0.08220 0.14974 -0.98530
vn -0.77064 0.55301 -0.31671
vn -0.69445 0.50675 -0.51083
vn 0.16144 0.10536 -0.98124
vn 0.06633 -0.09312 -0.99344
vn 0.87020 -0.18101 -0.45824
vn 0.82355 -0.42691 -0.37351
vn 0.86879 -0.43329 -0.23970
vn 0.17558 -0.95743 -0.22914
vn 0.18932 -0.91245 -0.36277
vn -0.01354 -0.90425 -0.42679
vn -0.03882 -0.96043 -0.27582
vn -0.06201 -0.99808 0.00017
vn 0.15815 -0.98742 -0.00041
vn 0.90176 -0.43224 -0.00020
vn -0.99247 0.12252 0.00000
vn -0.94789 0.31859 0.00015
vn -0.99982 0.01920 -0.00002
vn -0.81599 0.57807 0.00016
vn -0.57975 0.81480 0.00025
vn -0.55692 0.78450 -0.27277
vn -0.37337 0.92768 0.00027
vn -0.35267 0.88321 -0.30913
vn -0.32512 0.81667 -0.47681
vn -0.51880 0.73214 -0.44138
vn -0.26624 0.87265 -0.40939
vn -0.21976 0.76290 -0.60802
vn -0.14361 -0.17713 -0.97365
vn -0.19833 -0.14929 -0.96870
vn -0.13850 -0.16421 -0.97665
vn -0.22386 -0.47655 -0.85017
vn -0.23968 -0.80917 -0.53646
vn -0.34198 -0.83845 -0.42432
vn -0.28673 -0.88836 -0.35861
vn -0.39196 -0.91998 -0.00022
vn -0.32518 -0.94565 0.00014
vn -0.30417 0.95262 0.00043
vn -0.26687 0.96373 0.00041
vn -0.21420 0.82800 -0.51820
vn -0.11656 0.99318 0.00015
vn -0.06581 0.79824 -0.59874
vn -0.14866 0.64416 -0.75031
vn 0.23504 0.97199 0.00181
vn 0.22548 0.94279 -0.24556
vn 0.45205 0.89199 0.00327
vn 0.43795 0.87538 -0.20471
vn 0.97925 0.20264 -0.00185
vn 0.96667 0.20072 -0.15895
vn 0.84654 -0.53233 0.00040
vn -0.04940 -0.99878 -0.00160
vn -0.23546 -0.97188 -0.00080
vn -0.12975 -0.49436 0.85952
vn -0.22491 -0.87196 0.43486
vn -0.08138 -0.90449 0.41867
vn -0.10968 -0.77391 0.62372
vn 0.35758 0.06469 0.93164
vn -0.01852 0.18338 0.98287
vn 0.34387 -0.28348 0.89521
vn 0.75826 -0.45203 0.46980
vn 0.74570 -0.21362 0.63111
vn -0.12689 0.81973 0.55852
vn 0.07965 0.34045 0.93688
vn 0.28988 0.33643 0.89598
vn 0.16008 0.56566 0.80895
vn -0.02926 0.97473 0.22145
vn 0.86281 0.43641 0.25514
vn 0.70978 0.66969 0.21846
vn 0.32879 0.39611 0.85732
vn 0.54235 0.29307 0.78738
vn 0.37573 -0.19163 0.90670
vn 0.17419 -0.24159 0.95462
vn 0.12605 -0.79860 0.58852
vn 0.32589 -0.45021 0.83133
vn 0.88887 -0.39945 0.22440
vn 0.95837 -0.12048 0.25886
vn 0.28506 -0.93186 0.22443
vn -0.15305 -0.82413 0.54533
vn 0.54331 0.81186 0.21375
vn 0.24869 0.93248 0.26198
vn 0.94376 -0.04762 0.32718
vn 0.96034 0.07967 0.26722
vn 0.86362 -0.01762 0.50383
vn 0.90414 0.10786 0.41341
vn 0.89598 -0.16733 0.41136
vn 0.77353 -0.13522 0.61917
vn 0.88391 -0.12695 0.45009
vn -0.30051 -0.88256 0.36165
vn -0.44778 -0.84111 0.30336
vn -0.24190 -0.85563 0.45758
vn -0.19003 -0.71406 0.67380
vn -0.27307 -0.78685 0.55345
vn -0.09760 -0.31068 0.94549
vn -0.17096 0.34914 0.92134
vn -0.17029 0.02118 0.98517
vn -0.31739 0.79844 0.51162
vn -0.31331 0.84171 0.43972
vn -0.25224 0.71263 0.65463
vn -0.19128 0.91966 0.34299
vn -0.15403 0.83543 0.52756
vn 0.25064 0.87691 0.41013
vn -0.02459 0.12820 0.99144
vn -0.18631 0.06143 0.98057
vn 0.17393 0.01153 0.98469
vn 0.52655 0.77887 0.34075
vn -0.66842 -0.67800 0.30582
vn -0.41495 -0.76794 0.48794
vn -0.60248 -0.62233 0.49972
vn -0.72885 -0.38422 0.56670
vn -0.83167 -0.42331 0.35936
vn 0.14068 -0.14057 0.98002
vn -0.74942 -0.16325 0.64165
vn -0.88560 -0.18891 0.42429
vn 0.04521 -0.11849 0.99193
vn -0.73028 -0.03782 0.68210
vn -0.88482 -0.04872 0.46338
vn 0.02760 -0.06456 0.99753
vn 0.01739 -0.03741 0.99915
vn 0.88285 -0.08314 0.46224
vn 0.73364 -0.07064 0.67586
vn 0.73979 -0.10510 0.66458
vn 0.87995 -0.07060 0.46980
vn 0.72850 -0.05743 0.68263
vn -0.87954 -0.00604 0.47579
vn -0.87780 0.00165 0.47903
vn -0.72273 -0.00401 0.69112
vn -0.72245 0.00278 0.69141
vn -0.72126 0.00682 0.69264
vn -0.87606 0.00653 0.48215
vn 0.00931 -0.02011 0.99975
vn 0.00310 -0.01085 0.99994
vn 0.00093 -0.00638 0.99998
vn 0.87862 -0.04284 0.47559
vn 0.87904 -0.00158 0.47675
vn 0.72576 -0.00256 0.68794
vn 0.72449 -0.03547 0.68837
vn -0.87562 -0.00047 0.48301
vn -0.87702 0.00032 0.48045
vn -0.72137 -0.00258 0.69255
vn -0.72364 -0.00245 0.69017
vn -0.72600 0.00495 0.68767
vn -0.87849 0.00635 0.47772
vn 0.00224 -0.00000 1.00000
vn 0.00299 0.00410 0.99999
vn 0.87933 0.01116 0.47608
vn 0.87957 0.00340 0.47577
vn 0.72828 0.00275 0.68528
vn 0.72798 0.00902 0.68553
vn -0.87937 0.00381 0.47613
vn 0.88389 0.08894 0.45916
vn 0.88078 0.07145 0.46811
vn 0.88918 0.13076 0.43847
vn 0.75171 0.10655 0.65083
vn 0.73751 0.07456 0.67121
vn 0.91702 0.14305 0.37229
vn 0.81553 0.11188 0.56780
vn 0.94223 -0.16021 0.29415
vn -0.88222 -0.00910 0.47075
vn -0.88327 -0.00554 0.46883
vn -0.88051 -0.00438 0.47402
vn -0.72856 -0.00495 0.68496
vn -0.73018 -0.00812 0.68320
vn -0.72731 0.00324 0.68630
vn 0.00275 0.00506 0.99998
vn 0.00462 0.01024 0.99994
vn 0.87962 0.00421 0.47566
vn 0.87899 0.03241 0.47573
vn 0.72635 0.02897 0.68672
vn 0.72727 0.00406 0.68634
vn 0.87853 0.06187 0.47367
vn 0.72795 0.05290 0.68359
vn 0.73257 0.06025 0.67802
vn 0.01847 0.02932 0.99940
vn 0.01090 0.01850 0.99977
vn 0.02468 0.04663 0.99861
vn -0.88444 0.01805 0.46631
vn -0.72976 -0.00266 0.68370
vn -0.72863 0.01609 0.68472
vn -0.73772 0.09146 0.66888
vn -0.88709 0.10989 0.44833
vn 0.03203 0.08216 0.99610
vn -0.75078 0.25698 0.60852
vn -0.87023 0.29551 0.39418
vn 0.07685 0.14579 0.98633
vn -0.69904 0.50345 0.50782
vn -0.77218 0.55176 0.31511
vn 0.16400 0.10009 0.98137
vn 0.07425 -0.08950 0.99322
vn 0.86742 -0.43435 0.24274
vn 0.81887 -0.43046 0.37966
vn 0.87316 -0.17299 0.45570
vn -0.03173 -0.95982 0.27882
vn -0.00259 -0.90177 0.43220
vn 0.19664 -0.90885 0.36787
vn 0.17855 -0.95633 0.23143
vn -0.55784 0.78419 0.27176
vn -0.35717 0.88130 0.30943
vn -0.52045 0.73232 0.43913
vn -0.33068 0.81440 0.47687
vn -0.23591 0.75964 0.60605
vn -0.27468 0.87036 0.40869
vn -0.14447 -0.17245 0.97437
vn -0.20038 -0.15006 0.96816
vn -0.22813 -0.47737 0.84857
vn -0.14217 -0.16468 0.97605
vn -0.28382 -0.88919 0.35887
vn -0.34426 -0.83847 0.42243
vn -0.23720 -0.80980 0.53663
vn -0.21335 0.82860 0.51759
vn -0.05850 0.79861 0.59900
vn -0.14882 0.64554 0.74909
vn 0.22997 0.94072 0.24933
vn 0.44638 0.86959 0.21110
vn 0.96751 0.19953 0.15530
f 1//1 3//2 4//3 5//4
f 1//5 5//4 6//6 7//7
f 1//8 7//7 8//9 3//10
f 2//11 11//12 12//13 13//14
f 2//15 13//14 10//16 9//17
f 2//18 9//19 159//20 11//21
f 14//22 8//9 7//7 15//23
f 16//24 17//25 18//26 19//27
f 19//28 160//29 20//30 16//31
f 19//27 18//26 12//13 11//12
f 19//28 11//21 159//20 160//29
f 20//32 21//33 17//25 16//34
f 21//33 22//35 23//36 17//25
f 25//37 161//38 27//39 28//40
f 25//41 28//42 29//43 26//44
f 29//43 28//42 30//45 31//46
f 29//43 31//46 32//47 33//48
f 29//43 33//48 34//49 26//44
f 34//49 33//48 35//50 36//51
f 39//52 38//53 40//54 41//55
f 39//52 41//55 42//56 24//57
f 42//56 23//36 22//35 24//57
f 42//56 41//55 43//58 44//59
f 42//56 44//59 45//60 23//36
f 45//60 18//26 17//25 23//36
f 45//60 44//61 46//61 47//62
f 45//60 47//62 12//13 18//26
f 47//62 46//63 48//64 49//65
f 47//62 49//65 13//14 12//13
f 49//65 48//64 162//66 50//67
f 49//65 50//67 10//16 13//14
f 162//66 48//64 51//68 163//69
f 51//68 48//64 46//63 52//70
f 51//68 52//70 53//71 27//39
f 51//68 27//39 161//38 163//69
f 53//72 52//73 43//73 54//72
f 53//72 54//72 55//74 30//74
f 53//71 30//75 28//40 27//39
f 55//76 54//77 40//54 56//78
f 55//76 56//78 57//79 58//80
f 55//74 58//81 31//81 30//74
f 58//80 57//79 59//82 60//83
f 58//81 60//84 32//84 31//81
f 60//83 59//82 61//85 62//86
f 60//84 62//87 63//87 32//84
f 63//87 62//87 64//88 65//88
f 63//89 65//90 66//91 35//50
f 63//89 35//50 33//48 32//47
f 66//91 65//90 67//92 68//93
f 66//91 68//93 69//94 70//95
f 66//91 70//95 36//51 35//50
f 165//96 164//97 59//82 57//79
f 165//96 57//79 56//78 37//98
f 164//97 166//99 61//85 59//82
f 166//99 167//100 71//101 61//85
f 71//101 167//100 72//102 73//103
f 71//101 73//103 74//104 64//105
f 71//101 64//105 62//86 61//85
f 74//104 73//103 75//106 76//107
f 74//108 76//109 77//109 67//108
f 74//108 67//108 65//88 64//88
f 77//109 76//109 78//110 79//110
f 77//111 79//112 80//113 81//114
f 77//111 81//114 68//93 67//92
f 81//114 80//113 168//115 169//116
f 81//114 169//116 69//94 68//93
f 170//117 171//118 82//119 75//106
f 170//117 75//106 73//103 72//102
f 82//119 171//118 83//120 84//121
f 82//119 84//121 85//122 78//123
f 82//119 78//123 76//107 75//106
f 85//122 84//121 86//124 87//125
f 85//126 87//127 88//127 89//126
f 85//126 89//126 79//110 78//110
f 89//128 88//129 90//130 91//131
f 89//128 91//131 80//113 79//112
f 91//131 90//130 92//132 172//133
f 91//131 172//133 168//115 80//113
f 93//134 173//135 94//136 86//124
f 93//134 86//124 84//121 83//120
f 96//137 174//138 98//139 99//140
f 96//137 99//140 100//141 97//142
f 100//141 99//140 101//143 102//144
f 100//141 102//144 103//145 104//146
f 100//141 104//146 105//147 97//142
f 105//147 104//146 106//148 175//149
f 108//150 176//151 109//152 110//153
f 108//150 110//153 111//154 95//155
f 111//154 94//136 173//135 95//155
f 111//154 110//153 112//156 113//157
f 111//154 113//157 114//158 94//136
f 114//158 87//125 86//124 94//136
f 114//159 113//160 115//160 116//159
f 114//159 116//159 88//127 87//127
f 116//161 115//162 117//163 118//164
f 116//161 118//164 90//130 88//129
f 118//164 117//163 177//165 119//166
f 118//164 119//166 92//132 90//130
f 177//165 117//163 120//167 178//168
f 120//167 117//163 115//162 121//169
f 120//167 121//169 122//170 98//139
f 120//167 98//139 174//138 178//168
f 122//171 121//172 112//172 123//171
f 122//171 123//171 124//173 101//173
f 122//170 101//143 99//140 98//139
f 124//174 123//175 109//152 125//176
f 124//174 125//176 126//177 127//178
f 124//173 127//179 102//179 101//173
f 127//178 126//177 128//180 129//181
f 127//179 129//182 103//182 102//179
f 129//181 128//180 130//183 131//184
f 129//182 131//185 132//185 103//182
f 132//185 131//185 133//186 134//186
f 132//187 134//188 135//189 106//148
f 132//187 106//148 104//146 103//145
f 135//190 134//191 136//192 137//193
f 135//190 137//193 138//194 179//195
f 135//189 179//196 175//149 106//148
f 140//197 139//198 128//180 126//177
f 140//197 126//177 125//176 107//199
f 139//198 180//200 130//183 128//180
f 180//200 181//201 141//202 130//183
f 141//202 181//201 142//203 143//204
f 141//202 143//204 144//205 133//206
f 141//202 133//206 131//184 130//183
f 144//205 143//204 145//207 146//208
f 144//209 146//210 147//210 136//209
f 144//209 136//209 134//186 133//186
f 147//210 146//210 148//211 149//212
f 147//213 149//212 150//214 151//215
f 147//213 151//215 137//193 136//192
f 151//215 150//214 182//216 183//217
f 151//215 183//217 138//194 137//193
f 184//218 152//219 153//220 145//207
f 184//218 145//207 143//204 142//203
f 153//220 152//219 154//221 155//222
f 153//220 155//222 6//6 148//223
f 153//220 148//223 146//208 145//207
f 155//222 154//221 156//224 15//225
f 155//222 15//23 7//7 6//6
f 156//224 157//226 14//227 15//225
f 157//228 185//228 8//229 14//229
f 185//230 158//230 3//10 8//9
f 158//231 186//232 4//3 3//2
f 186//232 182//216 150//214 4//3
f 150//214 149//212 5//4 4//3
f 149//212 148//211 6//6 5//4
f 125//176 109//152 176//151 107//199
f 123//175 112//156 110//153 109//152
f 121//172 115//160 113//160 112//172
f 56//78 40//54 38//53 37//98
f 54//77 43//58 41//55 40//54
f 52//73 46//61 44//61 43//73
f 191//233 190//234 189//235 187//236
f 193//237 192//238 191//233 187//239
f 189//240 194//241 193//237 187//239
f 197//242 196//243 195//244 188//245
f 9//17 10//16 197//242 188//246
f 195//247 159//20 9//19 188//248
f 199//249 193//237 194//241 198//250
f 203//251 202//252 201//253 200//254
f 200//255 20//30 160//29 203//256
f 195//244 196//243 202//252 203//251
f 160//29 159//20 195//247 203//256
f 200//257 201//253 21//33 20//32
f 201//253 204//258 22//35 21//33
f 206//259 205//260 161//38 25//37
f 26//44 207//261 206//262 25//41
f 209//263 208//264 206//262 207//261
f 211//265 210//266 209//263 207//261
f 26//44 34//49 211//265 207//261
f 36//51 212//267 211//265 34//49
f 214//268 213//269 38//53 39//52
f 24//57 215//270 214//268 39//52
f 24//57 22//35 204//258 215//270
f 217//271 216//272 214//268 215//270
f 204//258 218//273 217//271 215//270
f 204//258 201//253 202//252 218//273
f 220//274 219//275 217//275 218//273
f 202//252 196//243 220//274 218//273
f 222//276 221//277 219//278 220//274
f 196//243 197//242 222//276 220//274
f 50//67 162//66 221//277 222//276
f 197//242 10//16 50//67 222//276
f 163//69 223//279 221//277 162//66
f 224//280 219//278 221//277 223//279
f 205//260 225//281 224//280 223//279
f 163//69 161//38 205//260 223//279
f 226//282 216//283 224//283 225//282
f 208//284 227//284 226//282 225//282
f 205//260 206//259 208//285 225//281
f 228//286 213//269 226//287 227//288
f 230//289 229//290 228//286 227//288
f 208//284 209//291 230//291 227//284
f 232//292 231//293 229//290 230//289
f 209//291 210//294 232//294 230//291
f 234//295 233//296 231//293 232//292
f 210//294 235//297 234//297 232//294
f 237//298 236//298 234//297 235//297
f 212//267 238//299 237//300 235//301
f 210//266 211//265 212//267 235//301
f 240//302 239//303 237//300 238//299
f 70//95 69//94 240//302 238//299
f 212//267 36//51 70//95 238//299
f 229//290 231//293 164//97 165//96
f 37//98 228//286 229//290 165//96
f 231//293 233//296 166//99 164//97
f 233//296 241//304 167//100 166//99
f 242//305 72//102 167//100 241//304
f 236//306 243//307 242//305 241//304
f 233//296 234//295 236//306 241//304
f 245//308 244//309 242//305 243//307
f 239//310 246//311 245//311 243//310
f 236//298 237//298 239//310 243//310
f 248//312 247//312 245//311 246//311
f 250//313 249//314 248//315 246//316
f 239//303 240//302 250//313 246//316
f 169//116 168//115 249//314 250//313
f 240//302 69//94 169//116 250//313
f 244//309 251//317 171//118 170//117
f 72//102 242//305 244//309 170//117
f 252//318 83//120 171//118 251//317
f 247//319 253//320 252//318 251//317
f 244//309 245//308 247//319 251//317
f 255//321 254//322 252//318 253//320
f 257//323 256//324 255//324 253//323
f 247//312 248//312 257//323 253//323
f 259//325 258//326 256//327 257//328
f 248//315 249//314 259//325 257//328
f 172//133 92//132 258//326 259//325
f 249//314 168//115 172//133 259//325
f 254//322 260//329 173//135 93//134
f 83//120 252//318 254//322 93//134
f 262//330 261//331 174//138 96//137
f 97//142 263//332 262//330 96//137
f 265//333 264//334 262//330 263//332
f 267//335 266//336 265//333 263//332
f 97//142 105//147 267//335 263//332
f 175//149 268//337 267//335 105//147
f 270//338 269//339 176//151 108//150
f 95//155 271//340 270//338 108//150
f 95//155 173//135 260//329 271//340
f 273//341 272//342 270//338 271//340
f 260//329 274//343 273//341 271//340
f 260//329 254//322 255//321 274//343
f 276//344 275//345 273//345 274//344
f 255//324 256//324 276//344 274//344
f 278//346 277//347 275//348 276//349
f 256//327 258//326 278//346 276//349
f 119//166 177//165 277//347 278//346
f 258//326 92//132 119//166 278//346
f 178//168 279//350 277//347 177//165
f 280//351 275//348 277//347 279//350
f 261//331 281//352 280//351 279//350
f 178//168 174//138 261//331 279//350
f 282//353 272//354 280//354 281//353
f 264//355 283//355 282//353 281//353
f 261//331 262//330 264//334 281//352
f 284//356 269//339 282//357 283//358
f 286//359 285//360 284//356 283//358
f 264//355 265//361 286//361 283//355
f 288//362 287//363 285//360 286//359
f 265//361 266//364 288//364 286//361
f 290//365 289//366 287//363 288//362
f 266//364 291//367 290//367 288//364
f 293//368 292//368 290//367 291//367
f 268//337 294//369 293//370 291//371
f 266//336 267//335 268//337 291//371
f 296//372 295//373 293//374 294//375
f 179//195 138//194 296//372 294//375
f 268//337 175//149 179//196 294//369
f 285//360 287//363 139//198 140//197
f 107//199 284//356 285//360 140//197
f 287//363 289//366 180//200 139//198
f 289//366 297//376 181//201 180//200
f 298//377 142//203 181//201 297//376
f 292//378 299//379 298//377 297//376
f 289//366 290//365 292//378 297//376
f 301//380 300//381 298//377 299//379
f 295//382 302//383 301//383 299//382
f 292//368 293//368 295//382 299//382
f 304//384 303//385 301//383 302//383
f 306//386 305//387 304//384 302//388
f 295//373 296//372 306//386 302//388
f 183//217 182//216 305//387 306//386
f 296//372 138//194 183//217 306//386
f 300//381 307//389 152//219 184//218
f 142//203 298//377 300//381 184//218
f 308//390 154//221 152//219 307//389
f 303//391 192//238 308//390 307//389
f 300//381 301//380 303//391 307//389
f 199//392 156//224 154//221 308//390
f 192//238 193//237 199//249 308//390
f 199//392 198//393 157//226 156//224
f 198//394 194//394 185//228 157//228
f 194//241 189//240 158//230 185//230
f 189//235 190//234 186//232 158//231
f 190//234 305//387 182//216 186//232
f 190//234 191//233 304//384 305//387
f 191//233 192//238 303//385 304//384
f 107//199 176//151 269//339 284//356
f 269//339 270//338 272//342 282//357
f 272//354 273//345 275//345 280//354
f 37//98 38//53 213//269 228//286
f 213//269 214//268 216//272 226//287
f 216//283 217//275 219//275 224//283
