# pilowlava3D glyph '}' variant 1 — Vincent Wagner / Velvetyne, Free Art License
v 0.05752 0.29648 0.25171
v 0.17305 5.13779 0.37397
v 0.00754 0.27502 0.00000
v 0.19125 0.16824 0.30226
v 0.07697 0.50170 0.28914
v 0.27441 0.39590 0.43372
v 0.53846 5.42568 0.23089
v 0.28684 5.40757 0.25257
v 0.37804 5.24162 0.41336
v 0.67163 5.27748 0.29275
v 0.05064 5.18166 0.24346
v 0.08769 4.88023 0.23395
v 0.23668 4.95228 0.40193
v 0.47696 5.03301 0.44710
v 0.61488 0.10450 0.24396
v 0.71333 0.29166 0.28063
v 0.49612 0.32171 0.42738
v 0.41661 0.08675 0.30806
v 0.74642 0.52744 0.27206
v 0.55930 0.54595 0.43273
v 0.75659 0.76083 0.25228
v 0.61272 0.78369 0.41357
v 0.44632 0.83854 0.41523
v 0.35000 0.61723 0.43519
v 0.77850 0.98748 0.22370
v 0.67184 1.02803 0.37487
v 0.55029 1.07544 0.38010
v 0.44588 1.11285 0.23307
v 0.31820 0.91397 0.25817
v 0.74510 1.25379 0.31800
v 0.64744 1.29936 0.32639
v 0.57790 1.31750 0.18904
v 0.40611 1.12814 0.00000
v 0.76485 1.50217 0.27417
v 0.71889 1.52189 0.15328
v 0.86763 1.72503 0.14700
v 1.00630 1.93560 0.00000
v 1.63226 2.00133 0.00000
v 1.40886 1.87382 0.00000
v 1.88242 2.18215 0.00000
v 1.84417 2.20464 0.23692
v 1.59902 2.02945 0.22266
v 2.02945 2.48343 0.24683
v 1.86951 2.52316 0.41196
v 1.73026 2.27872 0.39329
v 2.10183 2.83107 0.00000
v 2.05885 2.82679 0.24526
v 1.89840 2.81371 0.41357
v 1.65178 2.79453 0.41312
v 1.63461 2.58106 0.41255
v 1.95231 3.15340 0.24268
v 1.81221 3.08768 0.40260
v 1.60241 3.00118 0.40643
v 1.44559 2.95740 0.24002
v 1.47609 2.78371 0.24326
v 1.62884 3.29827 0.38467
v 1.48770 3.19244 0.39307
v 1.36514 3.12597 0.23455
v 1.40211 2.94636 0.00000
v 1.31901 3.36978 0.36563
v 1.24004 3.29598 0.22061
v 1.21548 3.27339 0.00000
v 1.09370 3.47355 0.18643
v 0.94480 3.96503 0.00000
v 0.79266 4.37747 0.21438
v 0.84302 4.16150 0.16454
v 0.76430 4.60348 0.25778
v 0.63818 4.57801 0.39829
v 0.71207 4.34120 0.34962
v 0.75284 4.83450 0.27931
v 0.56046 4.81706 0.42942
v 0.37128 4.74885 0.40165
v 0.49751 4.53104 0.38448
v 0.73818 5.05956 0.29762
v 0.81989 5.05814 0.00000
v 0.75749 5.28576 0.00000
v 0.56963 5.45799 0.00000
v 0.26016 5.45233 0.00000
v 0.00000 5.19728 0.00000
v 0.24781 4.67431 0.23308
v 0.39003 4.48485 0.22537
v 0.48051 4.26498 0.00000
v 0.51544 4.27676 0.20116
v 0.59931 4.30115 0.34276
v 0.64545 4.06558 0.16670
v 0.70443 4.08371 0.29414
v 0.79225 4.12589 0.29490
v 0.83006 3.88241 0.26390
v 0.90269 3.93246 0.26112
v 0.93775 3.95856 0.13926
v 1.05087 3.76336 0.27320
v 1.09093 3.78817 0.14356
v 1.10098 3.79318 0.00000
v 1.27896 3.64934 0.17679
v 1.42712 2.78094 0.00000
v 1.46825 2.60998 0.24067
v 1.41046 2.43886 0.23466
v 1.55289 2.38318 0.39862
v 1.30728 2.27070 0.22696
v 1.40785 2.19898 0.37997
v 1.52013 2.10003 0.37071
v 1.22875 2.02903 0.34708
v 1.31455 1.94585 0.33884
v 1.38148 1.89441 0.19510
v 1.13090 1.79713 0.29271
v 1.18226 1.76389 0.15652
v 1.20093 1.75471 0.00000
v 1.00534 1.61443 0.13545
v 0.27370 0.94616 0.00000
v 0.18186 0.72068 0.27643
v 0.82320 0.97605 0.00000
v 0.81216 1.21034 0.17956
v 0.88152 1.42463 0.14377
v 0.83812 1.45776 0.26792
v 0.96728 1.64098 0.25761
v 0.90372 1.69295 0.26166
v 1.05804 1.86769 0.29787
v 1.01994 1.91729 0.16952
v 1.16992 2.09644 0.20395
v 1.15028 2.11894 0.00000
v 1.27504 2.28731 0.00000
v 1.99233 3.17278 0.00000
v 1.72050 3.37328 0.23289
v 1.48189 3.51775 0.21484
v 1.41467 3.45951 0.35688
v 1.22201 3.61079 0.31412
v 1.14239 3.53393 0.32274
v 0.98048 3.70123 0.27719
v 0.94193 3.65949 0.15546
v 0.78931 3.85773 0.14610
v 0.77490 3.84902 0.00000
v 0.62284 4.05964 0.00000
v 0.15411 0.09257 0.00000
v 0.00790 0.53642 0.00000
v 0.38769 0.00000 0.00000
v 0.63874 0.06873 0.00000
v 0.78626 0.28129 0.00000
v 0.81867 0.52991 0.00000
v 0.81721 0.75546 0.00000
v 0.54875 1.32425 0.00000
v 0.69866 1.53013 0.00000
v 0.85287 1.73724 0.00000
v 2.07314 2.47476 0.00000
v 1.32926 3.11064 0.00000
v 1.07846 3.45029 0.00000
v 0.85689 4.17586 0.00000
v 0.82532 4.39494 0.00000
v 0.81927 4.60882 0.00000
v 0.82074 4.82966 0.00000
v 0.03936 4.86196 0.00000
v 0.20087 4.64109 0.00000
v 0.34486 4.45969 0.00000
v 1.30148 3.66276 0.00000
v 1.42065 2.61592 0.00000
v 1.37084 2.45172 0.00000
v 1.01437 1.60961 0.00000
v 0.12883 0.75933 0.00000
v 0.83752 1.19448 0.00000
v 0.89081 1.41553 0.00000
v 1.75415 3.39980 0.00000
v 1.51102 3.54408 0.00000
v 0.92916 3.64381 0.00000
v 0.05752 0.29648 -0.25171
v 0.17305 5.13779 -0.37397
v 0.19125 0.16824 -0.30226
v 0.07697 0.50170 -0.28914
v 0.27441 0.39590 -0.43372
v 0.53846 5.42568 -0.23089
v 0.28684 5.40757 -0.25257
v 0.37804 5.24162 -0.41336
v 0.67163 5.27748 -0.29275
v 0.05064 5.18166 -0.24346
v 0.08769 4.88023 -0.23395
v 0.23668 4.95228 -0.40193
v 0.47696 5.03301 -0.44710
v 0.61488 0.10450 -0.24396
v 0.71333 0.29166 -0.28063
v 0.49612 0.32171 -0.42738
v 0.41661 0.08675 -0.30806
v 0.74642 0.52744 -0.27206
v 0.55930 0.54595 -0.43273
v 0.75659 0.76083 -0.25228
v 0.61272 0.78369 -0.41357
v 0.44632 0.83854 -0.41523
v 0.35000 0.61723 -0.43519
v 0.77850 0.98748 -0.22370
v 0.67184 1.02803 -0.37487
v 0.55029 1.07544 -0.38010
v 0.44588 1.11285 -0.23307
v 0.31820 0.91397 -0.25817
v 0.74510 1.25379 -0.31800
v 0.64744 1.29936 -0.32639
v 0.57790 1.31750 -0.18904
v 0.76485 1.50217 -0.27417
v 0.71889 1.52189 -0.15328
v 0.86763 1.72503 -0.14700
v 1.84417 2.20464 -0.23692
v 1.59902 2.02945 -0.22266
v 2.02945 2.48343 -0.24683
v 1.86951 2.52316 -0.41196
v 1.73026 2.27872 -0.39329
v 2.05885 2.82679 -0.24526
v 1.89840 2.81371 -0.41357
v 1.65178 2.79453 -0.41312
v 1.63461 2.58106 -0.41255
v 1.95231 3.15340 -0.24268
v 1.81221 3.08768 -0.40260
v 1.60241 3.00118 -0.40643
v 1.44559 2.95740 -0.24002
v 1.47609 2.78371 -0.24326
v 1.62884 3.29827 -0.38467
v 1.48770 3.19244 -0.39307
v 1.36514 3.12597 -0.23455
v 1.31901 3.36978 -0.36563
v 1.24004 3.29598 -0.22061
v 1.09370 3.47355 -0.18643
v 0.79266 4.37747 -0.21438
v 0.84302 4.16150 -0.16454
v 0.76430 4.60348 -0.25778
v 0.63818 4.57801 -0.39829
v 0.71207 4.34120 -0.34962
v 0.75284 4.83450 -0.27931
v 0.56046 4.81706 -0.42942
v 0.37128 4.74885 -0.40165
v 0.49751 4.53104 -0.38448
v 0.73818 5.05956 -0.29762
v 0.24781 4.67431 -0.23308
v 0.39003 4.48485 -0.22537
v 0.51544 4.27676 -0.20116
v 0.59931 4.30115 -0.34276
v 0.64545 4.06558 -0.16670
v 0.70443 4.08371 -0.29414
v 0.79225 4.12589 -0.29490
v 0.83006 3.88241 -0.26390
v 0.90269 3.93246 -0.26112
v 0.93775 3.95856 -0.13926
v 1.05087 3.76336 -0.27320
v 1.09093 3.78817 -0.14356
v 1.27896 3.64934 -0.17679
v 1.46825 2.60998 -0.24067
v 1.41046 2.43886 -0.23466
v 1.55289 2.38318 -0.39862
v 1.30728 2.27070 -0.22696
v 1.40785 2.19898 -0.37997
v 1.52013 2.10003 -0.37071
v 1.22875 2.02903 -0.34708
v 1.31455 1.94585 -0.33884
v 1.38148 1.89441 -0.19510
v 1.13090 1.79713 -0.29271
v 1.18226 1.76389 -0.15652
v 1.00534 1.61443 -0.13545
v 0.18186 0.72068 -0.27643
v 0.81216 1.21034 -0.17956
v 0.88152 1.42463 -0.14377
v 0.83812 1.45776 -0.26792
v 0.96728 1.64098 -0.25761
v 0.90372 1.69295 -0.26166
v 1.05804 1.86769 -0.29787
v 1.01994 1.91729 -0.16952
v 1.16992 2.09644 -0.20395
v 1.72050 3.37328 -0.23289
v 1.48189 3.51775 -0.21484
v 1.41467 3.45951 -0.35688
v 1.22201 3.61079 -0.31412
v 1.14239 3.53393 -0.32274
v 0.98048 3.70123 -0.27719
v 0.94193 3.65949 -0.15546
v 0.78931 3.85773 -0.14610
vn -0.73682 -0.63850 0.22229
vn -0.75833 -0.65187 -0.00267
vn -0.57689 -0.81682 -0.00128
vn -0.55612 -0.79052 0.25654
vn -0.97698 0.02985 0.21122
vn -0.94151 0.24379 0.23267
vn -0.96830 0.24977 -0.00151
vn -0.99960 0.02808 -0.00257
vn -0.55124 -0.15667 0.81950
vn -0.36101 -0.30298 0.88197
vn -0.32622 -0.09789 0.94021
vn -0.55415 0.04264 0.83132
vn 0.11631 0.59062 0.79852
vn -0.38078 0.68350 0.62277
vn -0.04169 0.39569 0.91744
vn 0.26856 0.42424 0.86481
vn -0.50845 0.17527 0.84307
vn -0.88317 -0.13179 0.45017
vn -0.81661 -0.33771 0.46808
vn -0.44581 -0.16328 0.88011
vn -0.59753 0.65565 0.46161
vn 0.16558 0.06807 0.98384
vn 0.37525 -0.43371 0.81920
vn 0.75486 -0.32957 0.56707
vn 0.22283 -0.26765 0.93739
vn 0.11752 -0.44812 0.88622
vn -0.06755 -0.96510 0.25302
vn -0.07401 -0.99725 0.00291
vn 0.21044 -0.97759 0.00533
vn 0.21415 -0.95412 0.20927
vn 0.84575 -0.53356 0.00371
vn 0.94012 -0.34085 0.00191
vn 0.82664 -0.52622 0.19939
vn 0.99764 -0.06870 -0.00011
vn 0.84552 -0.07548 0.52858
vn 0.35625 -0.02691 0.93400
vn 0.99961 -0.02788 -0.00028
vn 0.88420 -0.03353 0.46590
vn 0.73946 -0.03872 0.67209
vn 0.05330 0.09974 0.99358
vn -0.27943 0.17907 0.94332
vn 0.91735 -0.06382 0.39294
vn 0.81616 -0.05906 0.57480
vn 0.10697 0.15648 0.98187
vn -0.66986 0.46264 0.58073
vn -0.75645 0.52693 0.38748
vn -0.72458 0.50821 0.46552
vn -0.60140 0.40265 0.69007
vn 0.15537 0.17244 0.97269
vn -0.71657 0.52396 0.46043
vn -0.77078 0.55695 0.30937
vn -0.81316 0.58204 0.00010
vn -0.81797 0.57526 0.00031
vn -0.73508 0.55321 0.39193
vn -0.77389 0.57443 0.26671
vn -0.80669 0.59098 -0.00001
vn -0.77009 0.58051 0.26452
vn -0.79732 0.60355 -0.00003
vn 0.71914 -0.69487 -0.00006
vn 0.64746 -0.63298 0.42442
vn 0.50157 -0.77929 0.37567
vn 0.54241 -0.84011 0.00007
vn 0.94488 -0.32743 -0.00007
vn 0.83859 -0.29621 0.45719
vn 0.67811 -0.24573 0.69267
vn 0.54499 -0.54078 0.64073
vn 0.99334 0.11518 -0.00002
vn 0.88254 0.10420 0.45855
vn 0.71107 0.08602 0.69784
vn 0.00002 0.01594 0.99987
vn -0.00575 -0.03571 0.99935
vn 0.75404 0.48156 0.44668
vn 0.61881 0.40102 0.67546
vn -0.00284 0.05480 0.99849
vn -0.68242 -0.22473 0.69556
vn -0.84739 -0.26648 0.45926
vn -0.87948 -0.05380 0.47289
vn -0.70273 -0.04420 0.71008
vn -0.01868 0.09987 0.99482
vn -0.64808 -0.39011 0.65407
vn -0.78038 -0.45851 0.42518
vn -0.86629 -0.49955 -0.00001
vn -0.95689 -0.29046 0.00017
vn -0.64887 -0.48469 0.58655
vn -0.74192 -0.55338 0.37858
vn -0.80197 -0.59736 -0.00005
vn -0.74917 -0.57797 0.32356
vn -0.78831 -0.61528 0.00003
vn 0.99337 0.11496 -0.00029
vn 0.92829 0.11217 0.35453
vn 0.92027 0.28162 0.27164
vn 0.95787 0.28720 0.00017
vn 0.99939 0.03490 -0.00037
vn 0.89119 0.04142 0.45173
vn 0.74054 0.04678 0.67038
vn 0.83604 0.10555 0.53842
vn 0.99985 0.01735 0.00022
vn 0.84133 0.03539 0.53935
vn 0.61862 0.05011 0.78409
vn -0.10011 -0.12279 0.98737
vn -0.38408 -0.30347 0.87200
vn -0.04274 -0.16414 0.98551
vn 0.48228 0.15063 0.86297
vn 0.95421 0.14785 0.26004
vn 0.98815 0.15352 -0.00004
vn 0.85200 0.52354 -0.00075
vn 0.82729 0.50698 0.24200
vn 0.68738 0.72630 -0.00123
vn 0.67482 0.70966 0.20246
vn -0.03832 0.99926 0.00236
vn -0.03667 0.98674 0.15811
vn -0.69760 0.71649 -0.00026
vn -0.99247 -0.12251 0.00040
vn -0.92716 -0.37468 0.00041
vn -0.79372 -0.60829 0.00014
vn -0.71630 -0.53409 0.44908
vn -0.81195 -0.58372 -0.00024
vn -0.74856 -0.52265 0.40803
vn -0.67323 -0.45269 0.58467
vn -0.83222 -0.55444 -0.00021
vn -0.78212 -0.51746 0.34716
vn -0.72095 -0.47146 0.50788
vn -0.78614 -0.54726 0.28722
vn -0.73947 -0.51766 0.43037
vn 0.02149 -0.20267 0.97901
vn 0.06651 -0.16292 0.98440
vn 0.03648 -0.02322 0.99906
vn 0.86418 0.26768 0.42607
vn 0.77918 0.51246 0.36092
vn 0.81651 0.53236 0.22338
vn 0.61938 0.69977 0.35593
vn 0.64280 0.73264 0.22371
vn 0.65733 0.75360 0.00006
vn 0.84008 0.54247 -0.00008
vn 0.51883 0.80943 0.27502
vn 0.53649 0.84391 -0.00006
vn -0.99821 -0.05979 0.00010
vn -0.98490 0.17312 -0.00010
vn -0.87036 0.15693 0.46674
vn -0.91245 0.40919 -0.00017
vn -0.81626 0.37248 0.44156
vn -0.67004 0.31299 0.67311
vn -0.70055 0.13075 0.70152
vn -0.75875 0.51604 0.39748
vn -0.64928 0.44971 0.61335
vn -0.01442 -0.08215 0.99652
vn -0.03109 -0.12055 0.99222
vn -0.07243 -0.16565 0.98352
vn 0.44675 -0.69709 0.56079
vn 0.45060 -0.75580 0.47511
vn 0.48323 -0.81546 0.31862
vn 0.53039 -0.74786 0.39924
vn 0.55479 -0.79030 0.26007
vn 0.57129 -0.82075 -0.00018
vn 0.50840 -0.86112 -0.00007
vn 0.72252 -0.64987 0.23586
vn 0.74361 -0.66861 -0.00005
vn -0.80927 0.58743 0.00022
vn -0.84604 0.53312 -0.00018
vn -0.72522 0.43749 0.53165
vn 0.98418 -0.17719 -0.00028
vn 0.93260 -0.17171 0.31745
vn 0.99761 -0.06908 -0.00051
vn 0.91374 -0.40630 0.00008
vn 0.88030 -0.39782 0.25848
vn 0.82974 -0.37984 0.40898
vn 0.86268 -0.16251 0.47893
vn 0.68808 -0.62002 0.37698
vn 0.00580 -0.07260 0.99734
vn 0.12356 0.08188 0.98895
vn -0.08311 -0.16818 0.98225
vn -0.71375 0.54389 0.44130
vn -0.75699 0.58526 0.29059
vn -0.73539 0.55188 0.39323
vn -0.67340 0.51962 0.52586
vn -0.74397 0.57457 0.34114
vn -0.79119 0.61158 0.00008
vn -0.78709 0.61684 -0.00002
vn -0.83075 0.55665 0.00004
vn 0.60193 0.79855 -0.00003
vn 0.55198 0.73257 0.39831
vn 0.84548 0.53400 -0.00009
vn 0.50882 0.86088 -0.00013
vn 0.47884 0.80935 0.34009
vn 0.43966 0.74052 0.50826
vn 0.48067 0.63826 0.60132
vn 0.49508 0.76162 0.41813
vn -0.07885 0.17924 0.98064
vn -0.05279 0.15326 0.98677
vn -0.04498 0.12303 0.99138
vn -0.72105 -0.54856 0.42328
vn -0.76294 -0.58362 0.27804
vn -0.69071 -0.52530 0.49698
vn -0.73616 -0.54888 0.39598
vn -0.77585 -0.57438 0.26105
vn -0.80552 -0.59257 -0.00008
vn -0.79297 -0.60926 -0.00005
vn -0.82244 -0.56885 -0.00007
vn -0.55863 -0.78787 -0.25923
vn -0.74098 -0.63182 -0.22749
vn -0.81184 0.14748 -0.56495
vn -0.97602 0.02500 -0.21625
vn -0.33748 -0.10294 -0.93569
vn -0.37996 -0.31177 -0.87088
vn -0.58571 -0.17215 -0.79203
vn 0.27840 0.45143 -0.84776
vn -0.03834 0.40072 -0.91540
vn -0.37709 0.68913 -0.61879
vn 0.13496 0.63579 -0.75997
vn -0.44447 -0.15972 -0.88144
vn -0.81635 -0.33564 -0.47001
vn -0.88139 -0.12752 -0.45486
vn -0.50397 0.16436 -0.84794
vn -0.60321 0.64015 -0.47576
vn 0.16536 0.06542 -0.98406
vn 0.12642 -0.46246 -0.87758
vn 0.22793 -0.27636 -0.93364
vn 0.75934 -0.33544 -0.55757
vn 0.39150 -0.45927 -0.79737
vn -0.07576 -0.96609 -0.24684
vn 0.19786 -0.95985 -0.19884
vn 0.83213 -0.52025 -0.19212
vn 0.84607 -0.07491 -0.52778
vn 0.35718 -0.02611 -0.93367
vn 0.88368 -0.03369 -0.46688
vn 0.73844 -0.03723 -0.67329
vn -0.27909 0.18092 -0.94307
vn 0.05414 0.10131 -0.99338
vn 0.81229 -0.06534 -0.57959
vn 0.91561 -0.06906 -0.39610
vn 0.10701 0.15698 -0.98179
vn -0.59857 0.41118 -0.68749
vn -0.72265 0.51260 -0.46369
vn -0.75664 0.52757 -0.38622
vn -0.67178 0.46210 -0.57894
vn 0.15424 0.17122 -0.97308
vn -0.77118 0.55604 -0.31000
vn -0.71778 0.52108 -0.46180
vn -0.77338 0.57503 -0.26690
vn -0.73390 0.55454 -0.39226
vn -0.76991 0.58088 -0.26422
vn 0.50123 -0.77920 -0.37631
vn 0.64624 -0.63340 -0.42564
vn 0.83786 -0.29640 -0.45840
vn 0.54219 -0.54122 -0.64274
vn 0.67621 -0.24576 -0.69451
vn 0.88210 0.10426 -0.45938
vn 0.70980 0.08607 -0.69913
vn -0.00628 -0.03570 -0.99934
vn -0.00080 0.01592 -0.99987
vn 0.62030 0.40063 -0.67433
vn 0.75458 0.48126 -0.44609
vn -0.00253 0.05466 -0.99850
vn -0.70266 -0.04401 -0.71016
vn -0.87951 -0.05367 -0.47285
vn -0.84730 -0.26647 -0.45942
vn -0.68185 -0.22482 -0.69609
vn -0.01754 0.09964 -0.99487
vn -0.78078 -0.45825 -0.42472
vn -0.64913 -0.38971 -0.65327
vn -0.74414 -0.55176 -0.37659
vn -0.65391 -0.48224 -0.58297
vn -0.75108 -0.57584 -0.32292
vn 0.92138 0.27880 -0.27080
vn 0.92968 0.10831 -0.35209
vn 0.89108 0.04487 -0.45162
vn 0.83991 0.09910 -0.53361
vn 0.74081 0.05146 -0.66974
vn 0.84050 0.03518 -0.54066
vn 0.61598 0.04967 -0.78620
vn -0.04173 -0.16733 -0.98502
vn -0.38476 -0.30467 -0.87128
vn -0.10049 -0.12291 -0.98732
vn 0.48269 0.14382 -0.86390
vn 0.95408 0.14862 -0.26010
vn 0.82572 0.50877 -0.24359
vn 0.67111 0.71248 -0.20487
vn -0.03902 0.98739 -0.15344
vn -0.71648 -0.53489 -0.44783
vn -0.74802 -0.52424 -0.40698
vn -0.67193 -0.45751 -0.58241
vn -0.78303 -0.51639 -0.34671
vn -0.72145 -0.47201 -0.50668
vn -0.74162 -0.51515 -0.42967
vn -0.78751 -0.54543 -0.28692
vn 0.02060 -0.20245 -0.97908
vn 0.06625 -0.16175 -0.98461
vn 0.03757 -0.02321 -0.99902
vn 0.81640 0.53250 -0.22346
vn 0.77829 0.51387 -0.36084
vn 0.86501 0.26704 -0.42479
vn 0.64448 0.73122 -0.22352
vn 0.62090 0.69853 -0.35572
vn 0.52088 0.80822 -0.27470
vn -0.87020 0.15697 -0.46703
vn -0.81558 0.37287 -0.44249
vn -0.70024 0.13067 -0.70185
vn -0.66857 0.31333 -0.67441
vn -0.64373 0.45137 -0.61796
vn -0.75656 0.51722 -0.40013
vn -0.01366 -0.08182 -0.99655
vn -0.03006 -0.12023 -0.99229
vn -0.07222 -0.16541 -0.98358
vn 0.48357 -0.81520 -0.31877
vn 0.45000 -0.75606 -0.47526
vn 0.44624 -0.69642 -0.56203
vn 0.55383 -0.79095 -0.26013
vn 0.52783 -0.74974 -0.39910
vn 0.72176 -0.65064 -0.23608
vn -0.72458 0.43921 -0.53111
vn 0.93141 -0.17488 -0.31921
vn 0.88033 -0.39760 -0.25871
vn 0.85976 -0.16925 -0.48184
vn 0.82845 -0.38225 -0.40934
vn 0.68744 -0.62055 -0.37728
vn 0.12338 0.08151 -0.98901
vn 0.00611 -0.07243 -0.99735
vn -0.08279 -0.16770 -0.98236
vn -0.73514 0.55264 -0.39262
vn -0.75757 0.58471 -0.29018
vn -0.71531 0.54250 -0.44048
vn -0.74355 0.57439 -0.34237
vn -0.67217 0.51878 -0.52825
vn 0.55390 0.73169 -0.39727
vn 0.48000 0.80881 -0.33975
vn 0.48474 0.63695 -0.59943
vn 0.44052 0.74058 -0.50743
vn 0.49569 0.76161 -0.41742
vn -0.05243 0.15304 -0.98683
vn -0.07850 0.17868 -0.98077
vn -0.04473 0.12263 -0.99144
vn -0.69412 -0.52187 -0.49583
vn -0.76359 -0.58284 -0.27789
vn -0.72205 -0.54753 -0.42291
vn -0.77602 -0.57442 -0.26046
vn -0.73681 -0.54892 -0.39472
f 1//1 3//2 133//3 4//4
f 1//5 5//6 134//7 3//8
f 1//9 4//10 6//11 5//12
f 7//13 8//14 9//15 10//16
f 2//17 11//18 12//19 13//20
f 2//17 9//15 8//14 11//21
f 2//17 13//20 14//22 9//15
f 15//23 16//24 17//25 18//26
f 18//27 4//4 133//3 135//28
f 18//27 135//28 136//29 15//30
f 18//26 17//25 6//11 4//10
f 136//31 137//32 16//24 15//33
f 137//32 138//34 19//35 16//24
f 19//35 20//36 17//25 16//24
f 19//35 138//34 139//37 21//38
f 19//35 21//38 22//39 20//36
f 22//40 23//40 24//41 20//36
f 22//39 21//38 25//42 26//43
f 22//40 26//44 27//44 23//40
f 27//45 28//46 29//47 23//48
f 27//44 26//44 30//49 31//49
f 27//45 31//50 32//51 28//46
f 32//51 140//52 33//53 28//46
f 32//51 31//50 34//54 35//55
f 32//51 35//55 141//56 140//52
f 141//56 35//55 36//57 142//58
f 40//59 41//60 42//61 38//62
f 40//59 143//63 43//64 41//60
f 43//64 44//65 45//66 41//60
f 43//64 143//63 46//67 47//68
f 43//64 47//68 48//69 44//65
f 48//70 49//70 50//71 44//71
f 48//69 47//68 51//72 52//73
f 48//70 52//74 53//74 49//70
f 53//75 54//76 55//77 49//78
f 53//74 52//74 56//79 57//79
f 53//75 57//80 58//81 54//76
f 58//81 144//82 59//83 54//76
f 58//81 57//80 60//84 61//85
f 58//81 61//85 62//86 144//82
f 62//86 61//85 63//87 145//88
f 147//89 65//90 66//91 146//92
f 147//89 148//93 67//94 65//90
f 67//94 68//95 69//96 65//90
f 67//94 148//93 149//97 70//98
f 67//94 70//98 71//99 68//95
f 71//100 72//101 73//102 68//102
f 71//99 70//98 74//103 14//22
f 71//100 14//22 13//20 72//101
f 74//104 70//98 149//97 75//105
f 74//104 75//105 76//106 10//107
f 74//103 10//16 9//15 14//22
f 76//106 77//108 7//109 10//107
f 77//110 78//110 8//111 7//111
f 78//112 79//112 11//21 8//14
f 79//113 150//114 12//19 11//18
f 150//114 151//115 80//116 12//19
f 80//116 151//115 152//117 81//118
f 80//116 81//118 73//119 72//101
f 80//116 72//101 13//20 12//19
f 81//118 152//117 82//120 83//121
f 81//118 83//121 84//122 73//119
f 84//122 83//121 85//123 86//124
f 84//125 86//126 87//126 69//125
f 84//125 69//125 68//102 73//102
f 87//126 86//126 88//127 89//127
f 87//128 89//129 90//130 66//91
f 87//128 66//91 65//90 69//96
f 90//130 89//129 91//131 92//132
f 90//130 92//132 93//133 64//134
f 90//130 64//134 146//92 66//91
f 93//133 92//132 94//135 153//136
f 95//137 154//138 96//139 55//77
f 95//137 55//77 54//76 59//83
f 96//139 154//138 155//140 97//141
f 96//139 97//141 98//142 50//143
f 96//139 50//143 49//78 55//77
f 98//142 97//141 99//144 100//145
f 98//146 100//147 101//147 45//146
f 98//146 45//146 44//71 50//71
f 101//147 100//147 102//148 103//148
f 101//149 103//150 104//151 42//61
f 101//149 42//61 41//60 45//66
f 104//151 103//150 105//152 106//153
f 104//151 106//153 107//154 39//155
f 104//151 39//155 38//62 42//61
f 107//154 106//153 108//156 156//157
f 109//158 157//159 110//160 29//47
f 109//158 29//47 28//46 33//53
f 110//160 157//159 134//7 5//6
f 110//160 5//12 6//11 24//41
f 110//160 24//41 23//48 29//47
f 158//161 112//162 25//42 111//163
f 158//161 159//164 113//165 112//162
f 113//165 114//166 30//167 112//162
f 113//165 159//164 156//157 108//156
f 113//165 108//156 115//168 114//166
f 115//169 116//169 34//170 114//170
f 115//168 108//156 106//153 105//152
f 115//169 105//171 117//171 116//169
f 117//172 118//173 36//57 116//174
f 117//171 105//171 103//148 102//148
f 117//172 102//175 119//176 118//173
f 119//176 120//177 37//178 118//173
f 119//176 102//175 100//145 99//144
f 119//176 99//144 121//179 120//177
f 121//179 99//144 97//141 155//140
f 160//180 123//181 51//72 122//182
f 160//180 161//183 124//184 123//181
f 124//184 125//185 56//186 123//181
f 124//184 161//183 153//136 94//135
f 124//184 94//135 126//187 125//185
f 126//188 127//188 60//189 125//189
f 126//187 94//135 92//132 91//131
f 126//188 91//190 128//190 127//188
f 128//191 129//192 63//87 127//193
f 128//190 91//190 89//127 88//127
f 128//191 88//194 130//195 129//192
f 130//195 131//196 162//197 129//192
f 130//195 88//194 86//124 85//123
f 130//195 85//123 132//198 131//196
f 132//198 85//123 83//121 82//120
f 129//192 162//197 145//88 63//87
f 127//193 63//87 61//85 60//84
f 125//189 60//189 57//79 56//79
f 123//181 56//186 52//73 51//72
f 122//182 51//72 47//68 46//67
f 118//173 37//178 142//58 36//57
f 116//174 36//57 35//55 34//54
f 114//170 34//170 31//49 30//49
f 112//162 30//167 26//43 25//42
f 111//163 25//42 21//38 139//37
f 24//41 6//11 17//25 20//36
f 165//199 133//3 3//2 163//200
f 3//8 134//7 166//201 163//202
f 166//201 167//203 165//204 163//205
f 171//206 170//207 169//208 168//209
f 174//210 173//211 172//212 164//213
f 172//214 169//208 170//207 164//213
f 170//207 175//215 174//210 164//213
f 179//216 178//217 177//218 176//219
f 135//28 133//3 165//199 179//220
f 176//221 136//29 135//28 179//220
f 165//204 167//203 178//217 179//216
f 176//222 177//218 137//32 136//31
f 177//218 180//223 138//34 137//32
f 177//218 178//217 181//224 180//223
f 182//225 139//37 138//34 180//223
f 181//224 183//226 182//225 180//223
f 181//224 185//227 184//228 183//228
f 187//229 186//230 182//225 183//226
f 184//228 188//231 187//231 183//228
f 184//232 190//233 189//234 188//235
f 192//236 191//236 187//231 188//231
f 189//234 193//237 192//238 188//235
f 189//234 33//53 140//52 193//237
f 195//239 194//240 192//238 193//237
f 140//52 141//56 195//239 193//237
f 142//58 196//241 195//239 141//56
f 38//62 198//242 197//243 40//59
f 197//243 199//244 143//63 40//59
f 197//243 201//245 200//246 199//244
f 202//247 46//67 143//63 199//244
f 200//246 203//248 202//247 199//244
f 200//249 205//249 204//250 203//250
f 207//251 206//252 202//247 203//248
f 204//250 208//253 207//253 203//250
f 204//254 210//255 209//256 208//257
f 212//258 211//258 207//253 208//253
f 209//256 213//259 212//260 208//257
f 209//256 59//83 144//82 213//259
f 215//261 214//262 212//260 213//259
f 144//82 62//86 215//261 213//259
f 145//88 216//263 215//261 62//86
f 146//92 218//264 217//265 147//89
f 217//265 219//266 148//93 147//89
f 217//265 221//267 220//268 219//266
f 222//269 149//97 148//93 219//266
f 220//268 223//270 222//269 219//266
f 220//271 225//271 224//272 223//273
f 175//215 226//274 222//269 223//270
f 224//272 174//210 175//215 223//273
f 75//105 149//97 222//269 226//275
f 171//276 76//106 75//105 226//275
f 175//215 170//207 171//206 226//274
f 171//276 168//277 77//108 76//106
f 168//278 169//278 78//110 77//110
f 169//208 172//214 79//112 78//112
f 172//212 173//211 150//114 79//113
f 173//211 227//279 151//115 150//114
f 228//280 152//117 151//115 227//279
f 224//272 225//281 228//280 227//279
f 173//211 174//210 224//272 227//279
f 229//282 82//120 152//117 228//280
f 225//281 230//283 229//282 228//280
f 232//284 231//285 229//282 230//283
f 221//286 233//287 232//287 230//286
f 225//271 220//271 221//286 230//286
f 235//288 234//288 232//287 233//287
f 218//264 236//289 235//290 233//291
f 221//267 217//265 218//264 233//291
f 238//292 237//293 235//290 236//289
f 64//134 93//133 238//292 236//289
f 218//264 146//92 64//134 236//289
f 153//136 239//294 238//292 93//133
f 210//255 240//295 154//138 95//137
f 59//83 209//256 210//255 95//137
f 241//296 155//140 154//138 240//295
f 205//297 242//298 241//296 240//295
f 210//255 204//254 205//297 240//295
f 244//299 243//300 241//296 242//298
f 201//301 245//302 244//302 242//301
f 205//249 200//249 201//301 242//301
f 247//303 246//303 244//302 245//302
f 198//242 248//304 247//305 245//306
f 201//245 197//243 198//242 245//306
f 250//307 249//308 247//305 248//304
f 39//155 107//154 250//307 248//304
f 198//242 38//62 39//155 248//304
f 156//157 251//309 250//307 107//154
f 190//233 252//310 157//159 109//158
f 33//53 189//234 190//233 109//158
f 166//201 134//7 157//159 252//310
f 185//227 167//203 166//201 252//310
f 190//233 184//232 185//227 252//310
f 111//163 186//230 253//311 158//161
f 253//311 254//312 159//164 158//161
f 253//311 191//313 255//314 254//312
f 251//309 156//157 159//164 254//312
f 255//314 256//315 251//309 254//312
f 255//316 194//316 257//317 256//317
f 249//308 250//307 251//309 256//315
f 257//317 258//318 249//318 256//317
f 257//319 196//241 259//320 258//321
f 246//303 247//303 249//318 258//318
f 259//320 260//322 246//323 258//321
f 259//320 37//178 120//177 260//322
f 243//300 244//299 246//323 260//322
f 120//177 121//179 243//300 260//322
f 155//140 241//296 243//300 121//179
f 122//182 206//252 261//324 160//180
f 261//324 262//325 161//183 160//180
f 261//324 211//326 263//327 262//325
f 239//294 153//136 161//183 262//325
f 263//327 264//328 239//294 262//325
f 263//329 214//329 265//330 264//330
f 237//293 238//292 239//294 264//328
f 265//330 266//331 237//331 264//330
f 265//332 216//263 267//333 266//334
f 234//288 235//288 237//331 266//331
f 267//333 268//335 234//336 266//334
f 267//333 162//197 131//196 268//335
f 231//285 232//284 234//336 268//335
f 131//196 132//198 231//285 268//335
f 82//120 229//282 231//285 132//198
f 216//263 145//88 162//197 267//333
f 214//262 215//261 216//263 265//332
f 211//258 212//258 214//329 263//329
f 206//252 207//251 211//326 261//324
f 46//67 202//247 206//252 122//182
f 196//241 142//58 37//178 259//320
f 194//240 195//239 196//241 257//319
f 191//236 192//236 194//316 255//316
f 186//230 187//229 191//313 253//311
f 139//37 182//225 186//230 111//163
f 181//224 178//217 167//203 185//227
