# pilowlava3D glyph 'c' variant 1 — Vincent Wagner / Velvetyne, Free Art License
v 3.90984 1.29122 -0.36384
v 3.62827 1.57757 -0.35875
v 3.16606 2.57968 -0.42700
v 1.89119 2.01449 -0.27735
v 0.83205 1.60964 -0.66296
v 1.92939 1.68357 -0.27209
v 3.61789 2.62235 -0.40684
v 0.96242 1.94042 -0.63183
v 3.82091 1.13919 -0.41950
v 3.65244 1.32419 -0.49790
v 3.79754 1.46138 -0.39452
v 3.89001 1.54598 -0.22356
v 4.00536 1.28652 -0.22604
v 3.93232 1.02663 -0.23474
v 3.47099 1.49796 -0.41077
v 3.37016 1.61492 -0.22705
v 3.63121 1.66863 -0.22005
v 3.08300 2.47729 -0.26049
v 2.89239 2.70793 -0.27975
v 3.09507 2.74408 -0.48031
v 3.38500 2.57931 -0.44950
v 3.39108 2.43175 -0.25262
v 3.38385 2.77241 -0.54309
v 1.94220 1.85320 -0.29796
v 1.76870 1.84775 -0.40398
v 1.74171 2.04855 -0.34538
v 1.72672 2.18047 -0.19798
v 1.93021 2.06921 -0.17060
v 2.04199 1.85611 -0.16993
v 1.13456 1.39946 -0.55765
v 1.00920 1.21101 -0.52083
v 0.74290 1.28136 -0.62054
v 0.46126 1.25992 -0.52379
v 0.43110 1.55217 -0.54746
v 0.36813 1.80592 -0.51493
v 0.67175 1.95323 -0.61811
v 1.98772 1.62834 -0.16790
v 1.79593 1.63019 -0.34518
v 1.82805 1.48205 -0.19601
v 3.67172 2.78628 -0.44977
v 3.83891 2.76880 -0.25271
v 3.68481 2.53762 -0.24882
v 1.02485 2.11856 -0.53094
v 1.26962 2.07689 -0.50618
v 1.22041 1.79956 -0.61891
v 0.82284 2.18398 -0.51522
v 0.47631 2.17486 -0.53429
v 0.62688 2.30526 -0.45900
v 0.73147 2.42862 -0.25535
v 0.91226 2.36260 -0.28183
v 1.09144 2.30661 -0.28991
v 1.28962 2.25988 -0.27594
v 1.12120 2.39090 -0.00000
v 1.30615 2.33992 -0.00000
v 1.50914 2.29378 -0.00000
v 1.50715 2.22612 -0.24369
v 1.52257 2.06304 -0.43301
v 1.55105 1.83120 -0.50799
v 1.60235 1.58788 -0.43953
v 1.36391 1.52368 -0.52686
v 1.64444 1.39649 -0.25679
v 1.46765 1.32184 -0.29763
v 1.30988 1.23558 -0.30393
v 1.19497 1.11386 -0.28703
v 1.25925 1.07175 -0.00000
v 1.18720 0.94659 -0.00000
v 1.13282 0.96231 -0.25850
v 1.16787 0.79672 -0.00000
v 1.20573 0.63500 -0.00000
v 1.18638 0.62380 -0.19684
v 1.13081 0.79421 -0.22747
v 1.10406 0.56971 -0.35486
v 1.00632 0.76103 -0.40044
v 0.96901 0.97962 -0.46249
v 0.83271 0.70850 -0.47577
v 0.74161 0.97885 -0.54996
v 0.66655 0.65765 -0.40895
v 0.53171 0.94857 -0.46889
v 0.55184 0.61364 -0.23483
v 0.37989 0.89864 -0.26561
v 0.26296 1.19238 -0.29026
v 0.31515 0.86370 -0.00000
v 0.09010 1.43105 -0.00000
v 0.18914 1.47168 -0.29974
v 0.03540 1.70577 -0.00000
v 0.13323 1.72924 -0.28352
v 0.00008 1.99524 -0.00000
v 0.08261 1.99768 -0.25659
v 0.28442 2.05285 -0.45644
v 0.06836 2.29257 -0.23670
v 0.20902 2.32180 -0.40365
v 0.34840 2.39079 -0.47111
v 0.17266 2.60649 -0.36437
v 0.27817 2.62684 -0.41798
v 0.38793 2.64269 -0.35685
v 0.47346 2.45990 -0.40085
v 0.48116 2.66044 -0.20414
v 0.57204 2.52567 -0.22324
v 0.50189 2.66770 -0.00000
v 1.30436 0.47958 -0.00000
v 1.45334 0.33814 -0.14589
v 1.29535 0.46823 -0.16852
v 1.43505 0.28977 -0.28262
v 1.25029 0.40945 -0.31760
v 1.40113 0.21266 -0.33827
v 1.18049 0.32546 -0.37288
v 0.98203 0.49216 -0.41492
v 1.10593 0.24615 -0.32456
v 0.86480 0.41853 -0.36221
v 1.04847 0.19842 -0.17583
v 0.78268 0.37178 -0.20384
v 1.02913 0.18727 -0.00000
v 0.75197 0.35808 -0.00000
v 0.50622 0.59117 -0.00000
v 1.87116 0.24780 -0.13968
v 1.65298 0.25892 -0.13501
v 1.86901 0.20204 -0.26274
v 1.64680 0.21769 -0.25733
v 1.87033 0.12715 -0.31642
v 1.63391 0.14320 -0.30931
v 1.87888 0.04851 -0.27309
v 1.61682 0.06659 -0.26332
v 1.36072 0.13575 -0.28785
v 1.60633 0.03007 -0.14208
v 1.32780 0.09178 -0.15165
v 2.23906 0.47253 -0.00000
v 2.07649 0.33360 -0.00000
v 2.25451 0.44073 -0.19330
v 2.07678 0.31396 -0.16210
v 2.28482 0.35677 -0.35097
v 2.08569 0.25132 -0.30121
v 2.32975 0.26280 -0.40620
v 2.10637 0.17050 -0.35744
v 2.38244 0.16400 -0.36038
v 2.13607 0.08723 -0.31542
v 2.42961 0.08693 -0.20045
v 2.16426 0.03315 -0.17241
v 1.88860 0.01071 -0.14898
v 2.70020 0.12846 -0.00000
v 2.53120 0.79758 -0.00000
v 2.38503 0.63292 -0.00000
v 2.57290 0.75551 -0.22705
v 2.41383 0.59254 -0.21461
v 2.64771 0.65989 -0.41095
v 2.47039 0.50099 -0.38807
v 2.74725 0.52076 -0.48672
v 2.54448 0.38732 -0.45094
v 2.85119 0.37486 -0.41468
v 2.62130 0.26360 -0.39117
v 2.92102 0.26775 -0.23029
v 2.67818 0.17066 -0.21847
v 2.94444 0.21671 -0.00000
v 3.14933 0.38396 -0.23718
v 3.37119 0.51626 -0.24479
v 3.40746 0.45829 -0.00000
v 3.07173 0.50220 -0.43336
v 3.28101 0.64380 -0.44806
v 3.47709 0.80030 -0.45659
v 3.57788 0.66565 -0.24956
v 2.94727 0.66589 -0.51579
v 3.13880 0.82176 -0.53356
v 3.32077 0.99018 -0.54030
v 3.48765 1.15967 -0.53238
v 3.65697 0.96664 -0.45100
v 2.98794 0.98601 -0.44719
v 3.14479 1.16125 -0.45137
v 3.29823 1.34059 -0.44372
v 3.02104 1.26383 -0.24288
v 3.16963 1.45421 -0.23973
v 3.12895 1.49310 -0.00000
v 3.35118 1.65519 -0.00000
v 3.76508 0.83434 -0.24594
v 4.03910 1.28958 -0.00000
v 2.67712 0.96532 -0.00000
v 2.87573 1.08839 -0.23989
v 2.72486 0.92234 -0.23540
v 2.82037 0.82106 -0.43304
v 0.00000 2.29526 -0.00000
v 0.01924 2.59944 -0.00000
v 0.06993 2.59725 -0.21899
v 0.07417 2.91424 -0.00000
v 1.14002 3.28465 -0.00000
v 1.32448 3.39882 -0.00000
v 0.92824 3.21363 -0.21410
v 1.10986 3.33145 -0.21958
v 1.29337 3.44818 -0.22172
v 1.03478 3.43392 -0.40680
v 1.22118 3.55780 -0.41312
v 1.41371 3.67459 -0.41582
v 1.48354 3.55905 -0.22375
v 1.51307 3.51007 -0.00000
v 1.67163 3.67437 -0.22034
v 1.70096 3.62513 -0.00000
v 0.47076 3.69445 -0.00000
v 0.31309 3.46754 -0.00000
v 0.17656 3.20880 -0.00000
v 0.34843 3.44402 -0.21337
v 0.20967 3.19262 -0.20848
v 0.10739 2.90629 -0.20698
v 0.29615 3.14834 -0.36426
v 0.19379 2.88852 -0.35266
v 0.39907 3.08530 -0.41523
v 0.29597 2.86491 -0.39674
v 0.50234 3.01542 -0.35842
v 0.39645 2.84036 -0.34084
v 0.59236 2.96050 -0.20235
v 0.48806 2.81577 -0.19732
v 0.50885 2.80933 -0.00000
v 0.75429 3.08491 -0.21277
v 0.67374 3.16385 -0.38274
v 0.85357 3.30240 -0.39419
v 0.55822 3.27395 -0.44293
v 0.72753 3.44278 -0.46699
v 0.90752 3.59936 -0.48405
v 0.59372 3.57899 -0.39923
v 0.77334 3.76223 -0.41049
v 0.97243 3.92231 -0.42031
v 1.09954 3.73859 -0.49466
v 1.18734 4.05616 -0.41888
v 1.30104 3.86334 -0.49583
v 1.41009 4.17385 -0.41705
v 1.50852 3.97784 -0.49013
v 1.60939 3.78819 -0.40957
v 1.72285 4.07848 -0.47822
v 1.80692 3.89463 -0.40007
v 1.86152 3.78761 -0.21580
v 2.01052 3.99550 -0.38605
v 2.05447 3.89621 -0.21236
v 2.07720 3.85134 -0.00000
v 1.88878 3.73949 -0.00000
v 0.85937 4.07955 -0.00000
v 0.65292 3.89825 -0.00000
v 0.89049 4.03625 -0.22952
v 0.68803 3.86042 -0.22447
v 0.50515 3.66354 -0.21900
v 0.43716 3.37601 -0.38290
v 1.11755 4.17502 -0.22690
v 1.35227 4.29827 -0.22704
v 1.58891 4.43140 -0.00000
v 1.60255 4.38250 -0.22154
v 1.64588 4.26704 -0.40476
v 1.85884 4.44023 -0.21705
v 1.88905 4.33401 -0.39028
v 1.94482 4.16247 -0.45716
v 2.13885 4.37697 -0.37521
v 2.17212 4.23390 -0.43219
v 2.21813 4.09345 -0.37146
v 2.40980 4.29187 -0.39951
v 2.43065 4.18394 -0.34959
v 2.44356 4.10202 -0.19993
v 2.24992 4.00278 -0.20978
v 2.44984 4.06457 -0.00000
v 2.26581 3.95985 -0.00000
v 1.84878 4.48574 -0.00000
v 2.11769 4.47288 -0.21228
v 2.37575 4.51711 -0.00000
v 2.38093 4.48514 -0.20424
v 2.39394 4.40340 -0.35257
v 2.66197 4.46525 -0.19512
v 2.65517 4.40047 -0.32161
v 2.64954 4.31190 -0.36366
v 2.91480 4.33650 -0.31920
v 2.87414 4.26174 -0.36242
v 2.83478 4.18288 -0.31032
v 2.64159 4.22487 -0.31563
v 2.80671 4.12881 -0.18491
v 2.63353 4.16415 -0.18592
v 2.79829 4.11803 -0.00000
v 2.66640 4.48799 -0.00000
v 2.94767 4.38686 -0.19530
v 3.24583 4.26998 -0.00000
v 3.22088 4.24950 -0.20629
v 3.15623 4.19832 -0.35134
v 3.46191 4.06289 -0.22730
v 3.35995 3.99979 -0.39818
v 3.22338 3.92592 -0.45905
v 3.07263 4.13139 -0.40290
v 3.07389 3.86669 -0.39924
v 2.98476 4.05711 -0.34847
v 2.95559 3.82083 -0.22378
v 2.91463 3.99676 -0.19712
v 2.88859 3.98512 -0.00000
v 3.69793 3.85524 -0.00000
v 3.64971 3.83009 -0.24409
v 3.84235 3.59176 -0.00000
v 2.82612 2.68077 -0.00000
v 3.05087 2.43462 -0.00000
v 2.86237 2.98083 -0.28319
v 2.89834 3.21298 -0.27158
v 3.09896 3.21465 -0.48766
v 3.08161 2.98687 -0.49586
v 3.38675 3.22708 -0.55914
v 3.38290 2.99536 -0.56015
v 3.66772 3.26111 -0.47433
v 3.67690 3.01533 -0.46911
v 3.85416 3.29462 -0.26141
v 3.86488 3.02848 -0.25387
v 3.89230 2.74910 -0.00000
v 3.70584 2.49682 -0.00000
v 3.39115 2.38695 -0.00000
v 3.78326 3.56940 -0.25602
v 3.61889 3.51743 -0.45984
v 3.51741 3.76580 -0.43418
v 3.36902 3.46181 -0.54240
v 3.31827 3.69394 -0.50567
v 3.10802 3.43219 -0.47156
v 3.10466 3.64915 -0.43975
v 2.92746 3.42690 -0.26295
v 2.94741 3.62976 -0.25104
v 1.84325 1.42743 -0.00000
v 2.02541 1.60215 -0.00000
v 2.08044 1.85716 -0.00000
v 0.94202 2.44423 -0.00000
v 1.72896 2.23043 -0.00000
v 1.50619 1.25087 -0.00000
v 1.36688 1.17141 -0.00000
v 0.17835 1.14853 -0.00000
v 0.60244 2.55729 -0.00000
v 0.76357 2.49446 -0.00000
v 1.45669 0.34741 -0.00000
v 1.87294 0.25721 -0.00000
v 1.65414 0.26553 -0.00000
v 1.60218 0.02063 -0.00000
v 1.31516 0.08070 -0.00000
v 2.17603 0.01427 -0.00000
v 1.89130 0.00000 -0.00000
v 2.44749 0.05736 -0.00000
v 3.18044 0.32729 -0.00000
v 2.97076 1.30823 -0.00000
v 3.64059 1.70194 -0.00000
v 3.80737 0.78720 -0.00000
v 3.97004 1.00149 -0.00000
v 3.91079 1.56519 -0.00000
v 3.62003 0.61173 -0.00000
v 2.82539 1.13368 -0.00000
v 0.95852 3.17170 -0.00000
v 0.61860 2.94091 -0.00000
v 0.78382 3.05454 -0.00000
v 1.09021 4.22411 -0.00000
v 1.33203 4.34676 -0.00000
v 2.10918 4.51443 -0.00000
v 2.63227 4.14353 -0.00000
v 2.96184 4.40597 -0.00000
v 2.90265 3.80998 -0.00000
v 3.49759 4.08550 -0.00000
v 2.78031 2.97476 -0.00000
v 2.80835 3.21802 -0.00000
v 3.92182 3.30833 -0.00000
v 3.93416 3.02980 -0.00000
v 2.84322 3.43137 -0.00000
v 2.87490 3.62594 -0.00000
v 1.65505 1.32264 -0.00000
v 1.95413 2.09662 -0.00000
v 3.90984 1.29122 0.36384
v 3.62827 1.57757 0.35875
v 3.16606 2.57968 0.42700
v 1.89119 2.01449 0.27735
v 0.83205 1.60964 0.66296
v 1.92939 1.68357 0.27209
v 3.61789 2.62235 0.40684
v 0.96242 1.94042 0.63183
v 3.82091 1.13919 0.41950
v 3.65244 1.32419 0.49790
v 3.79754 1.46138 0.39452
v 3.89001 1.54598 0.22356
v 4.00536 1.28652 0.22604
v 3.93232 1.02663 0.23474
v 3.47099 1.49796 0.41077
v 3.37016 1.61492 0.22705
v 3.63121 1.66863 0.22005
v 3.08300 2.47729 0.26049
v 2.89239 2.70793 0.27975
v 3.09507 2.74408 0.48031
v 3.38500 2.57931 0.44950
v 3.39108 2.43175 0.25262
v 3.38385 2.77241 0.54309
v 1.94220 1.85320 0.29796
v 1.76870 1.84775 0.40398
v 1.74171 2.04855 0.34538
v 1.72672 2.18047 0.19798
v 1.93021 2.06921 0.17060
v 2.04199 1.85611 0.16993
v 1.13456 1.39946 0.55765
v 1.00920 1.21101 0.52083
v 0.74290 1.28136 0.62054
v 0.46126 1.25992 0.52379
v 0.43110 1.55217 0.54746
v 0.36813 1.80592 0.51493
v 0.67175 1.95323 0.61811
v 1.98772 1.62834 0.16790
v 1.79593 1.63019 0.34518
v 1.82805 1.48205 0.19601
v 3.67172 2.78628 0.44977
v 3.83891 2.76880 0.25271
v 3.68481 2.53762 0.24882
v 1.02485 2.11856 0.53094
v 1.26962 2.07689 0.50618
v 1.22041 1.79956 0.61891
v 0.82284 2.18398 0.51522
v 0.47631 2.17486 0.53429
v 0.62688 2.30526 0.45900
v 0.73147 2.42862 0.25535
v 0.91226 2.36260 0.28183
v 1.09144 2.30661 0.28991
v 1.28962 2.25988 0.27594
v 1.50715 2.22612 0.24369
v 1.52257 2.06304 0.43301
v 1.55105 1.83120 0.50799
v 1.60235 1.58788 0.43953
v 1.36391 1.52368 0.52686
v 1.64444 1.39649 0.25679
v 1.46765 1.32184 0.29763
v 1.30988 1.23558 0.30393
v 1.19497 1.11386 0.28703
v 1.13282 0.96231 0.25850
v 1.18638 0.62380 0.19684
v 1.13081 0.79421 0.22747
v 1.10406 0.56971 0.35486
v 1.00632 0.76103 0.40044
v 0.96901 0.97962 0.46249
v 0.83271 0.70850 0.47577
v 0.74161 0.97885 0.54996
v 0.66655 0.65765 0.40895
v 0.53171 0.94857 0.46889
v 0.55184 0.61364 0.23483
v 0.37989 0.89864 0.26561
v 0.26296 1.19238 0.29026
v 0.18914 1.47168 0.29974
v 0.13323 1.72924 0.28352
v 0.08261 1.99768 0.25659
v 0.28442 2.05285 0.45644
v 0.06836 2.29257 0.23670
v 0.20902 2.32180 0.40365
v 0.34840 2.39079 0.47111
v 0.17266 2.60649 0.36437
v 0.27817 2.62684 0.41798
v 0.38793 2.64269 0.35685
v 0.47346 2.45990 0.40085
v 0.48116 2.66044 0.20414
v 0.57204 2.52567 0.22324
v 1.45334 0.33814 0.14589
v 1.29535 0.46823 0.16852
v 1.43505 0.28977 0.28262
v 1.25029 0.40945 0.31760
v 1.40113 0.21266 0.33827
v 1.18049 0.32546 0.37288
v 0.98203 0.49216 0.41492
v 1.10593 0.24615 0.32456
v 0.86480 0.41853 0.36221
v 1.04847 0.19842 0.17583
v 0.78268 0.37178 0.20384
v 1.87116 0.24780 0.13968
v 1.65298 0.25892 0.13501
v 1.86901 0.20204 0.26274
v 1.64680 0.21769 0.25733
v 1.87033 0.12715 0.31642
v 1.63391 0.14320 0.30931
v 1.87888 0.04851 0.27309
v 1.61682 0.06659 0.26332
v 1.36072 0.13575 0.28785
v 1.60633 0.03007 0.14208
v 1.32780 0.09178 0.15165
v 2.25451 0.44073 0.19330
v 2.07678 0.31396 0.16210
v 2.28482 0.35677 0.35097
v 2.08569 0.25132 0.30121
v 2.32975 0.26280 0.40620
v 2.10637 0.17050 0.35744
v 2.38244 0.16400 0.36038
v 2.13607 0.08723 0.31542
v 2.42961 0.08693 0.20045
v 2.16426 0.03315 0.17241
v 1.88860 0.01071 0.14898
v 2.57290 0.75551 0.22705
v 2.41383 0.59254 0.21461
v 2.64771 0.65989 0.41095
v 2.47039 0.50099 0.38807
v 2.74725 0.52076 0.48672
v 2.54448 0.38732 0.45094
v 2.85119 0.37486 0.41468
v 2.62130 0.26360 0.39117
v 2.92102 0.26775 0.23029
v 2.67818 0.17066 0.21847
v 3.14933 0.38396 0.23718
v 3.37119 0.51626 0.24479
v 3.07173 0.50220 0.43336
v 3.28101 0.64380 0.44806
v 3.47709 0.80030 0.45659
v 3.57788 0.66565 0.24956
v 2.94727 0.66589 0.51579
v 3.13880 0.82176 0.53356
v 3.32077 0.99018 0.54030
v 3.48765 1.15967 0.53238
v 3.65697 0.96664 0.45100
v 2.98794 0.98601 0.44719
v 3.14479 1.16125 0.45137
v 3.29823 1.34059 0.44372
v 3.02104 1.26383 0.24288
v 3.16963 1.45421 0.23973
v 3.76508 0.83434 0.24594
v 2.87573 1.08839 0.23989
v 2.72486 0.92234 0.23540
v 2.82037 0.82106 0.43304
v 0.06993 2.59725 0.21899
v 0.92824 3.21363 0.21410
v 1.10986 3.33145 0.21958
v 1.29337 3.44818 0.22172
v 1.03478 3.43392 0.40680
v 1.22118 3.55780 0.41312
v 1.41371 3.67459 0.41582
v 1.48354 3.55905 0.22375
v 1.67163 3.67437 0.22034
v 0.34843 3.44402 0.21337
v 0.20967 3.19262 0.20848
v 0.10739 2.90629 0.20698
v 0.29615 3.14834 0.36426
v 0.19379 2.88852 0.35266
v 0.39907 3.08530 0.41523
v 0.29597 2.86491 0.39674
v 0.50234 3.01542 0.35842
v 0.39645 2.84036 0.34084
v 0.59236 2.96050 0.20235
v 0.48806 2.81577 0.19732
v 0.75429 3.08491 0.21277
v 0.67374 3.16385 0.38274
v 0.85357 3.30240 0.39419
v 0.55822 3.27395 0.44293
v 0.72753 3.44278 0.46699
v 0.90752 3.59936 0.48405
v 0.59372 3.57899 0.39923
v 0.77334 3.76223 0.41049
v 0.97243 3.92231 0.42031
v 1.09954 3.73859 0.49466
v 1.18734 4.05616 0.41888
v 1.30104 3.86334 0.49583
v 1.41009 4.17385 0.41705
v 1.50852 3.97784 0.49013
v 1.60939 3.78819 0.40957
v 1.72285 4.07848 0.47822
v 1.80692 3.89463 0.40007
v 1.86152 3.78761 0.21580
v 2.01052 3.99550 0.38605
v 2.05447 3.89621 0.21236
v 0.89049 4.03625 0.22952
v 0.68803 3.86042 0.22447
v 0.50515 3.66354 0.21900
v 0.43716 3.37601 0.38290
v 1.11755 4.17502 0.22690
v 1.35227 4.29827 0.22704
v 1.60255 4.38250 0.22154
v 1.64588 4.26704 0.40476
v 1.85884 4.44023 0.21705
v 1.88905 4.33401 0.39028
v 1.94482 4.16247 0.45716
v 2.13885 4.37697 0.37521
v 2.17212 4.23390 0.43219
v 2.21813 4.09345 0.37146
v 2.40980 4.29187 0.39951
v 2.43065 4.18394 0.34959
v 2.44356 4.10202 0.19993
v 2.24992 4.00278 0.20978
v 2.11769 4.47288 0.21228
v 2.38093 4.48514 0.20424
v 2.39394 4.40340 0.35257
v 2.66197 4.46525 0.19512
v 2.65517 4.40047 0.32161
v 2.64954 4.31190 0.36366
v 2.91480 4.33650 0.31920
v 2.87414 4.26174 0.36242
v 2.83478 4.18288 0.31032
v 2.64159 4.22487 0.31563
v 2.80671 4.12881 0.18491
v 2.63353 4.16415 0.18592
v 2.94767 4.38686 0.19530
v 3.22088 4.24950 0.20629
v 3.15623 4.19832 0.35134
v 3.46191 4.06289 0.22730
v 3.35995 3.99979 0.39818
v 3.22338 3.92592 0.45905
v 3.07263 4.13139 0.40290
v 3.07389 3.86669 0.39924
v 2.98476 4.05711 0.34847
v 2.95559 3.82083 0.22378
v 2.91463 3.99676 0.19712
v 3.64971 3.83009 0.24409
v 2.86237 2.98083 0.28319
v 2.89834 3.21298 0.27158
v 3.09896 3.21465 0.48766
v 3.08161 2.98687 0.49586
v 3.38675 3.22708 0.55914
v 3.38290 2.99536 0.56015
v 3.66772 3.26111 0.47433
v 3.67690 3.01533 0.46911
v 3.85416 3.29462 0.26141
v 3.86488 3.02848 0.25387
v 3.78326 3.56940 0.25602
v 3.61889 3.51743 0.45984
v 3.51741 3.76580 0.43418
v 3.36902 3.46181 0.54240
v 3.31827 3.69394 0.50567
v 3.10802 3.43219 0.47156
v 3.10466 3.64915 0.43975
v 2.92746 3.42690 0.26295
v 2.94741 3.62976 0.25104
vn 0.70346 0.08661 -0.70544
vn 0.56845 -0.18971 -0.80055
vn 0.19414 0.20642 -0.95901
vn 0.45434 0.45817 -0.76397
vn 0.66516 0.65379 -0.36072
vn 0.92090 0.08364 -0.38072
vn 0.81266 -0.40800 -0.41608
vn 0.10009 0.71447 -0.69247
vn -0.17782 0.58584 -0.79068
vn -0.36990 0.83335 -0.41073
vn 0.12011 0.91973 -0.37373
vn -0.28317 -0.60108 -0.74734
vn -0.42103 -0.79718 -0.43270
vn -0.79545 -0.36106 -0.48672
vn -0.42998 -0.27667 -0.85940
vn 0.08593 -0.62417 -0.77655
vn 0.09872 -0.91719 -0.38604
vn 0.06222 -0.23629 -0.96969
vn 0.58364 0.46726 -0.66411
vn 0.67843 0.07820 -0.73050
vn 0.46840 0.06758 -0.88093
vn 0.40679 0.52909 -0.74470
vn 0.37795 0.82635 -0.41748
vn 0.67790 0.62308 -0.39015
vn 0.90709 0.11283 -0.40554
vn -0.03305 -0.11195 -0.99316
vn 0.35228 -0.41184 -0.84041
vn 0.45392 -0.35539 -0.81710
vn -0.01506 -0.21418 -0.97668
vn -0.52057 -0.19982 -0.83011
vn -0.51349 -0.08387 -0.85399
vn -0.52985 -0.01886 -0.84788
vn -0.12979 0.19121 -0.97293
vn 0.65095 -0.29870 -0.69789
vn 0.78970 -0.42576 -0.44170
vn 0.51540 -0.36763 -0.77409
vn 0.56359 -0.67961 -0.46958
vn 0.43605 -0.55297 -0.70999
vn 0.53651 -0.24803 -0.80663
vn 0.84785 -0.30979 -0.43033
vn 0.56520 -0.72305 -0.39718
vn 0.07918 0.27441 -0.95835
vn 0.16470 0.59450 -0.78705
vn 0.23368 0.56787 -0.78925
vn 0.21706 0.06894 -0.97372
vn 0.12793 0.60567 -0.78537
vn -0.15513 0.24570 -0.95685
vn 0.22134 0.59522 -0.77248
vn 0.34060 0.83377 -0.43453
vn 0.24859 0.84878 -0.46666
vn 0.23514 0.84980 -0.47176
vn 0.22098 0.85849 -0.46278
vn 0.28660 0.95805 0.00013
vn 0.27156 0.96242 0.00008
vn 0.23290 0.97250 -0.00009
vn 0.23722 0.97146 -0.00015
vn 0.24568 0.85815 -0.45079
vn 0.39009 0.92078 -0.00018
vn 0.30018 0.54942 -0.77976
vn 0.37556 0.08228 -0.92314
vn 0.43167 -0.37755 -0.81922
vn 0.35474 -0.39856 -0.84576
vn 0.45904 -0.73811 -0.49445
vn 0.43944 -0.74949 -0.49513
vn 0.53287 -0.69173 -0.48740
vn 0.71297 -0.51989 -0.47052
vn 0.46518 -0.88522 -0.00004
vn 0.59762 -0.80178 0.00040
vn 0.80226 -0.59698 -0.00044
vn 0.96078 -0.27732 -0.00011
vn 0.86733 -0.24693 -0.43216
vn 0.99617 0.08744 0.00019
vn 0.91254 0.40899 -0.00033
vn 0.86017 0.39077 -0.32774
vn 0.91984 0.08050 -0.38395
vn 0.61675 0.23932 -0.74989
vn 0.62725 -0.00022 -0.77882
vn 0.56873 -0.21279 -0.79452
vn 0.40140 -0.07051 -0.91318
vn 0.02944 -0.25331 -0.96694
vn -0.24596 -0.35289 -0.90276
vn -0.45943 -0.46211 -0.75853
vn -0.51115 -0.33747 -0.79047
vn -0.70763 -0.59049 -0.38806
vn -0.78220 -0.43201 -0.44892
vn -0.81707 -0.29041 -0.49806
vn -0.87402 -0.48588 0.00001
vn -0.93732 -0.34848 0.00008
vn -0.97126 -0.23800 0.00013
vn -0.82845 -0.18262 -0.52946
vn -0.98630 -0.16499 -0.00022
vn -0.83500 -0.11941 -0.53713
vn -0.99716 -0.07532 -0.00031
vn -0.85367 -0.05840 -0.51753
vn -0.56775 0.00291 -0.82319
vn -0.88256 0.00442 -0.47018
vn -0.61534 0.02236 -0.78794
vn -0.44238 0.04842 -0.89552
vn -0.64749 0.07003 -0.75885
vn -0.44316 0.07652 -0.89317
vn 0.27425 0.38432 -0.88153
vn 0.43454 0.19800 -0.87862
vn 0.63500 0.23393 -0.73624
vn 0.43002 0.51475 -0.74170
vn 0.89152 0.28837 -0.34934
vn 0.59694 0.70545 -0.38209
vn 0.78091 0.62464 0.00193
vn 0.62047 0.78423 -0.00004
vn 0.35777 0.93381 -0.00091
vn 0.74977 0.66170 0.00009
vn 0.51953 0.85445 -0.00004
vn 0.50128 0.83679 -0.22021
vn 0.71801 0.64266 -0.26731
vn 0.41136 0.65055 -0.63842
vn 0.54750 0.46428 -0.69620
vn 0.31018 0.43704 -0.84426
vn 0.37706 0.27897 -0.88318
vn 0.40501 0.10124 -0.90869
vn -0.17969 -0.39185 -0.90231
vn -0.12286 -0.44462 -0.88725
vn -0.27151 -0.67107 -0.68989
vn -0.37474 -0.57083 -0.73056
vn -0.41983 -0.86783 -0.26574
vn -0.58168 -0.74664 -0.32276
vn -0.44217 -0.89693 -0.00004
vn -0.61873 -0.78561 -0.00003
vn -0.76958 -0.63855 0.00004
vn 0.21371 0.97690 0.00001
vn -0.14720 0.98911 -0.00001
vn -0.13627 0.96631 -0.21835
vn 0.21044 0.95672 -0.20101
vn -0.12625 0.77695 -0.61677
vn 0.18082 0.76917 -0.61293
vn -0.11778 0.56050 -0.81973
vn 0.14090 0.54511 -0.82644
vn -0.05770 -0.50576 -0.86074
vn -0.06580 -0.48670 -0.87109
vn -0.17684 -0.74303 -0.64547
vn -0.07372 -0.49891 -0.86351
vn -0.14021 -0.94141 -0.30674
vn -0.14100 -0.97119 -0.19210
vn -0.27146 -0.93653 -0.22185
vn -0.14027 -0.99011 -0.00006
vn -0.27992 -0.96002 -0.00005
vn -0.48473 0.87467 0.00037
vn -0.67398 0.73875 0.00021
vn -0.63017 0.70960 -0.31519
vn -0.45765 0.85032 -0.25983
vn -0.49940 0.53035 -0.68508
vn -0.38591 0.66594 -0.63843
vn -0.37937 0.34464 -0.85866
vn -0.31905 0.46780 -0.82424
vn -0.04351 -0.46071 -0.88649
vn 0.01487 -0.42413 -0.90548
vn 0.12164 -0.67897 -0.72402
vn 0.03992 -0.73634 -0.67544
vn 0.22337 -0.92173 -0.31704
vn 0.11793 -0.96133 -0.24886
vn -0.00425 -0.98032 -0.19735
vn -0.00431 -0.95041 -0.31097
vn 0.11613 -0.99323 0.00010
vn -0.00458 -0.99999 0.00011
vn 0.22990 -0.97322 0.00001
vn -0.72919 0.68431 -0.00002
vn -0.74335 0.66890 0.00013
vn -0.67664 0.61717 -0.40156
vn -0.67173 0.64325 -0.36744
vn -0.49361 0.42823 -0.75694
vn -0.50686 0.45778 -0.73043
vn -0.33338 0.25273 -0.90828
vn -0.35776 0.27664 -0.89190
vn 0.07048 -0.39556 -0.91573
vn 0.11183 -0.37507 -0.92023
vn 0.23317 -0.59085 -0.77235
vn 0.18498 -0.62915 -0.75495
vn 0.36453 -0.83850 -0.40502
vn 0.30193 -0.87861 -0.36997
vn 0.39359 -0.91929 -0.00009
vn 0.31983 -0.94747 0.00000
vn 0.42719 -0.79586 -0.42909
vn 0.46945 -0.88296 -0.00005
vn 0.48862 -0.75002 -0.44578
vn 0.54359 -0.83935 -0.00000
vn 0.27901 -0.55030 -0.78697
vn 0.32126 -0.50127 -0.80344
vn 0.37171 -0.43729 -0.81891
vn 0.56526 -0.68846 -0.45443
vn 0.14947 -0.34534 -0.92650
vn 0.18247 -0.30050 -0.93616
vn -0.01401 -0.00095 -0.99990
vn 0.05295 0.06591 -0.99642
vn 0.43945 -0.35547 -0.82494
vn -0.28011 0.23359 -0.93111
vn -0.46193 0.39764 -0.79278
vn -0.44084 0.38927 -0.80878
vn -0.36373 0.44349 -0.81916
vn -0.68818 0.57315 -0.44486
vn -0.61583 0.65079 -0.44410
vn -0.77183 0.63583 0.00004
vn -0.69268 0.72124 -0.00029
vn -0.40092 0.91611 0.00024
vn 0.13793 0.99044 0.00032
vn 0.89444 -0.44718 0.00008
vn 0.73075 -0.68264 -0.00036
vn 0.65601 -0.60638 -0.44939
vn 0.99608 0.08845 0.00068
vn 0.71672 0.69736 -0.00008
vn 0.63192 -0.77503 0.00002
vn -0.74868 0.66293 -0.00002
vn -0.75893 0.65118 0.00000
vn -0.68029 0.58837 -0.43707
vn -0.67512 0.60418 -0.42329
vn -0.47750 0.41146 -0.77634
vn -0.30952 0.23973 -0.92018
vn -0.99990 0.01402 -0.00006
vn -0.99535 0.09633 0.00021
vn -0.90936 0.07769 -0.40870
vn 0.53206 -0.84671 -0.00002
vn 0.55484 -0.83196 -0.00017
vn 0.51505 -0.76164 -0.39322
vn 0.48906 -0.77159 -0.40678
vn 0.47184 -0.77797 -0.41488
vn 0.51769 -0.85557 0.00001
vn 0.32563 -0.53036 -0.78274
vn 0.31510 -0.52804 -0.78860
vn 0.31778 -0.52364 -0.79046
vn 0.46793 -0.77937 -0.41668
vn 0.51453 -0.85747 0.00001
vn 0.47371 -0.77818 -0.41236
vn 0.52129 -0.85338 -0.00000
vn -0.91481 0.40388 -0.00001
vn -0.85131 0.52467 -0.00008
vn -0.78797 0.48723 -0.37644
vn -0.85233 0.37949 -0.35990
vn -0.90442 0.22156 -0.36460
vn -0.97022 0.24224 0.00024
vn -0.59734 0.24964 -0.76214
vn -0.63854 0.15380 -0.75406
vn -0.36559 0.12826 -0.92190
vn -0.40331 0.09785 -0.90982
vn 0.43223 -0.11608 -0.89426
vn 0.28778 -0.31415 -0.90471
vn 0.45897 -0.46866 -0.75479
vn 0.63172 -0.19096 -0.75131
vn 0.65560 -0.66465 -0.35838
vn 0.88533 -0.30633 -0.34978
vn 0.69409 -0.71988 -0.00019
vn 0.93850 -0.34528 -0.00023
vn 0.99901 -0.04445 0.00015
vn 0.54213 -0.75229 -0.37436
vn 0.58004 -0.81459 -0.00004
vn 0.36256 -0.53029 -0.76638
vn 0.34285 -0.52819 -0.77683
vn 0.19633 -0.33423 -0.92182
vn -0.05871 -0.06831 -0.99594
vn -0.03986 -0.04881 -0.99801
vn -0.49163 0.37032 -0.78814
vn -0.43048 0.42214 -0.79780
vn -0.35514 0.47554 -0.80482
vn -0.01340 -0.02671 -0.99955
vn -0.29036 0.51778 -0.80473
vn 0.01535 -0.00727 -0.99986
vn -0.22797 0.55392 -0.80075
vn 0.04355 0.00559 -0.99904
vn 0.32716 -0.52495 -0.78575
vn 0.07429 0.01728 -0.99709
vn 0.32706 -0.53954 -0.77584
vn 0.46322 -0.79038 -0.40092
vn 0.32490 -0.55664 -0.76458
vn 0.45140 -0.80557 -0.38380
vn 0.49601 -0.86832 -0.00003
vn 0.51029 -0.86000 0.00002
vn -0.70123 0.71293 0.00003
vn -0.59440 0.80417 0.00004
vn -0.53912 0.73234 -0.41597
vn -0.64023 0.65260 -0.40524
vn -0.71868 0.57453 -0.39168
vn -0.78133 0.62412 0.00001
vn -0.54686 0.31615 -0.77524
vn -0.33024 0.16055 -0.93014
vn -0.49226 0.87045 -0.00000
vn -0.44737 0.79102 -0.41730
vn -0.38731 0.92195 -0.00005
vn -0.35549 0.83928 -0.41139
vn -0.26235 0.96497 -0.00002
vn -0.24396 0.88502 -0.39651
vn -0.15160 0.59604 -0.78851
vn -0.15424 0.91269 -0.37842
vn -0.08944 0.62650 -0.77427
vn -0.02552 0.35697 -0.93377
vn -0.02953 0.65002 -0.75934
vn 0.01458 0.37463 -0.92706
vn 0.20957 -0.31352 -0.92617
vn 0.21669 -0.33476 -0.91705
vn 0.32642 -0.57907 -0.74708
vn 0.20884 -0.39082 -0.89646
vn 0.28744 -0.63618 -0.71600
vn 0.38028 -0.86771 -0.32012
vn 0.44440 -0.82073 -0.35903
vn 0.41994 -0.90755 0.00002
vn 0.48463 -0.87472 0.00008
vn -0.16303 0.98662 -0.00001
vn -0.07048 0.99751 -0.00004
vn -0.07087 0.93215 -0.35508
vn 0.03110 0.99952 -0.00020
vn 0.02492 0.94574 -0.32397
vn 0.04762 0.67245 -0.73861
vn 0.16598 0.94127 -0.29406
vn 0.13621 0.68611 -0.71463
vn 0.10743 0.42260 -0.89993
vn 0.07209 0.39775 -0.91466
vn 0.22814 0.67757 -0.69918
vn 0.12207 0.44840 -0.88546
vn 0.04988 -0.46924 -0.88166
vn -0.25766 -0.39578 -0.88146
vn -0.36788 -0.60392 -0.70707
vn 0.05076 -0.71471 -0.69758
vn -0.49475 -0.81865 -0.29159
vn 0.07074 -0.95554 -0.28624
vn -0.17567 -0.98445 0.00057
vn 0.09437 -0.99554 0.00017
vn 0.17753 0.98412 -0.00013
vn 0.35366 0.93538 0.00009
vn 0.33627 0.89696 -0.28704
vn 0.51987 0.85424 0.00012
vn 0.49384 0.80895 -0.31893
vn 0.32673 0.61736 -0.71562
vn 0.63492 0.67603 -0.37398
vn 0.41228 0.49805 -0.76287
vn -0.09226 0.20465 -0.97448
vn 0.16770 0.43350 -0.88541
vn -0.42353 -0.15124 -0.89317
vn -0.63302 -0.01312 -0.77402
vn -0.62029 -0.27899 -0.73307
vn -0.91559 -0.03815 -0.40029
vn -0.85725 -0.38891 -0.33745
vn -0.99991 -0.01373 -0.00014
vn -0.92481 -0.38044 0.00008
vn -0.80379 -0.59491 0.00101
vn 0.68417 0.72932 -0.00002
vn 0.82647 0.56298 -0.00013
vn 0.75011 0.51016 -0.42081
vn -0.90907 -0.41665 0.00012
vn -0.99999 0.00333 -0.00020
vn -0.85991 0.00842 -0.51038
vn -0.47326 -0.88092 0.00050
vn -0.85553 0.12753 -0.50180
vn -0.50476 0.08144 -0.85941
vn -0.47949 -0.00480 -0.87754
vn -0.98900 0.14791 0.00021
vn 0.02488 0.04916 -0.99848
vn 0.04328 -0.03351 -0.99850
vn 0.53718 0.07697 -0.83995
vn 0.54739 -0.03819 -0.83600
vn 0.87374 0.12737 -0.46942
vn 0.88449 -0.03761 -0.46504
vn 0.98846 0.15150 0.00001
vn 0.99907 -0.04316 -0.00057
vn 0.93219 -0.36196 0.00031
vn 0.60454 -0.79657 0.00096
vn 0.10051 -0.99494 0.00008
vn 0.82962 0.32691 -0.45261
vn 0.92902 0.37003 0.00001
vn 0.51418 0.22350 -0.82805
vn 0.47341 0.36172 -0.80315
vn 0.00036 0.12494 -0.99216
vn -0.03774 0.18245 -0.98249
vn -0.53483 0.09816 -0.83924
vn -0.57782 0.09263 -0.81089
vn -0.86561 0.12249 -0.48551
vn -0.88669 0.10266 -0.45082
vn -0.98924 0.14631 -0.00016
vn -0.99200 0.12624 0.00014
vn 0.59878 -0.80091 -0.00022
vn 0.46484 -0.88540 -0.00009
vn 0.87195 -0.48959 0.00021
vn 0.99140 0.13085 0.00053
vn 0.72385 0.68995 -0.00013
vn 0.45456 0.45850 0.76364
vn 0.19874 0.21118 0.95703
vn 0.57087 -0.18641 0.79960
vn 0.70336 0.08702 0.70549
vn 0.91878 0.08411 0.38572
vn 0.66353 0.65212 0.36670
vn 0.81261 -0.40579 0.41833
vn 0.12237 0.91724 0.37907
vn -0.36566 0.83333 0.41455
vn -0.17222 0.58798 0.79033
vn 0.10295 0.71384 0.69270
vn -0.42611 -0.28128 0.85984
vn -0.79199 -0.36333 0.49065
vn -0.41698 -0.79629 0.43823
vn -0.27887 -0.60193 0.74827
vn 0.09890 -0.91520 0.39069
vn 0.08696 -0.62592 0.77502
vn 0.06354 -0.24327 0.96787
vn 0.40953 0.52720 0.74455
vn 0.46893 0.06947 0.88050
vn 0.67220 0.08019 0.73602
vn 0.58040 0.46591 0.66787
vn 0.67549 0.62178 0.39636
vn 0.37971 0.82454 0.41947
vn 0.90279 0.11343 0.41486
vn -0.01938 -0.20463 0.97865
vn 0.45283 -0.35294 0.81876
vn 0.34894 -0.40601 0.84463
vn -0.02830 -0.08220 0.99621
vn -0.51160 -0.08053 0.85544
vn -0.52030 -0.19807 0.83070
vn -0.12344 0.21174 0.96950
vn -0.52609 -0.02138 0.85016
vn 0.78833 -0.42457 0.44529
vn 0.64836 -0.29634 0.70129
vn 0.51684 -0.36393 0.77487
vn 0.56638 -0.67674 0.47036
vn 0.56035 -0.72318 0.40375
vn 0.84402 -0.31279 0.43564
vn 0.53276 -0.25340 0.80744
vn 0.43136 -0.55539 0.71097
vn 0.22007 0.09318 0.97102
vn 0.23061 0.57068 0.78812
vn 0.15812 0.59604 0.78723
vn 0.07887 0.30951 0.94762
vn 0.12482 0.60512 0.78629
vn 0.21931 0.60246 0.76742
vn -0.15491 0.25250 0.95512
vn 0.25008 0.84730 0.46855
vn 0.33830 0.83576 0.43249
vn 0.23522 0.84994 0.47146
vn 0.22168 0.85872 0.46201
vn 0.24533 0.85838 0.45055
vn 0.29956 0.54935 0.78005
vn 0.37592 0.08087 0.92312
vn 0.43313 -0.37820 0.81814
vn 0.35437 -0.39749 0.84642
vn 0.43908 -0.74887 0.49639
vn 0.46037 -0.73754 0.49406
vn 0.53263 -0.69188 0.48745
vn 0.71385 -0.52355 0.46509
vn 0.86750 -0.24777 0.43135
vn 0.91982 0.08108 0.38388
vn 0.86078 0.38981 0.32727
vn 0.63011 -0.00065 0.77651
vn 0.61607 0.23852 0.75071
vn 0.56964 -0.21314 0.79377
vn 0.03080 -0.25376 0.96678
vn 0.40767 -0.07210 0.91028
vn -0.51027 -0.33922 0.79029
vn -0.46010 -0.46180 0.75832
vn -0.24753 -0.35321 0.90221
vn -0.78264 -0.43141 0.44872
vn -0.70777 -0.59008 0.38841
vn -0.81715 -0.29019 0.49806
vn -0.82863 -0.18166 0.52950
vn -0.83504 -0.11987 0.53696
vn -0.85370 -0.06194 0.51707
vn -0.56644 -0.00013 0.82410
vn -0.61603 0.01968 0.78747
vn -0.88286 0.00013 0.46964
vn -0.44282 0.05191 0.89511
vn -0.43958 0.07676 0.89492
vn -0.64698 0.06841 0.75943
vn 0.42626 0.51809 0.74154
vn 0.63256 0.22975 0.73965
vn 0.43179 0.19349 0.88098
vn 0.26980 0.38770 0.88142
vn 0.59464 0.70749 0.38192
vn 0.89121 0.28506 0.35281
vn 0.71772 0.64268 0.26804
vn 0.50229 0.83641 0.21936
vn 0.54684 0.46439 0.69664
vn 0.41390 0.65065 0.63666
vn 0.37634 0.27985 0.88321
vn 0.31343 0.43791 0.84261
vn 0.40244 0.10048 0.90992
vn -0.37583 -0.57066 0.73013
vn -0.27212 -0.67127 0.68945
vn -0.12430 -0.44538 0.88667
vn -0.18241 -0.39146 0.90193
vn -0.58118 -0.74706 0.32271
vn -0.42003 -0.86772 0.26578
vn 0.21002 0.95675 0.20131
vn -0.13794 0.96615 0.21803
vn 0.18020 0.76897 0.61337
vn -0.12756 0.77737 0.61597
vn 0.14043 0.54475 0.82676
vn -0.11835 0.56159 0.81891
vn -0.05804 -0.50571 0.86075
vn -0.06552 -0.48661 0.87116
vn -0.07549 -0.50004 0.86270
vn -0.17784 -0.74345 0.64471
vn -0.27163 -0.93652 0.22168
vn -0.14153 -0.97122 0.19160
vn -0.14114 -0.94155 0.30588
vn -0.45620 0.85092 0.26041
vn -0.62885 0.71059 0.31560
vn -0.38405 0.66636 0.63911
vn -0.49858 0.53025 0.68575
vn -0.31683 0.46787 0.82505
vn -0.37901 0.34338 0.85932
vn 0.03921 -0.73659 0.67520
vn 0.12009 -0.67893 0.72432
vn 0.01374 -0.42408 0.90552
vn -0.04401 -0.46088 0.88637
vn 0.11759 -0.96138 0.24883
vn 0.22345 -0.92160 0.31736
vn -0.00242 -0.95070 0.31010
vn -0.00374 -0.98040 0.19700
vn -0.67250 0.64273 0.36693
vn -0.67652 0.61722 0.40170
vn -0.50824 0.45759 0.72959
vn -0.49374 0.42817 0.75689
vn -0.35946 0.27658 0.89123
vn -0.33358 0.25280 0.90820
vn 0.18486 -0.62915 0.75498
vn 0.23262 -0.59103 0.77238
vn 0.11181 -0.37508 0.92022
vn 0.07014 -0.39565 0.91572
vn 0.30225 -0.87848 0.37002
vn 0.36397 -0.83875 0.40499
vn 0.42735 -0.79583 0.42898
vn 0.48867 -0.75000 0.44576
vn 0.27884 -0.55042 0.78695
vn 0.32135 -0.50123 0.80343
vn 0.56514 -0.68848 0.45455
vn 0.37163 -0.43720 0.81899
vn 0.18252 -0.30045 0.93617
vn 0.14899 -0.34554 0.92650
vn -0.01375 -0.00086 0.99991
vn 0.43918 -0.35579 0.82495
vn 0.05268 0.06578 0.99644
vn -0.44060 0.38939 0.80886
vn -0.46105 0.39793 0.79315
vn -0.27890 0.23393 0.93139
vn -0.36370 0.44355 0.81914
vn -0.61590 0.65093 0.44381
vn -0.68799 0.57336 0.44489
vn 0.65571 -0.60702 0.44897
vn -0.67535 0.60402 0.42316
vn -0.68003 0.58852 0.43727
vn -0.47789 0.41124 0.77621
vn -0.30985 0.23956 0.92011
vn -0.90981 0.07676 0.40786
vn 0.48890 -0.77177 0.40663
vn 0.51483 -0.76196 0.39290
vn 0.47185 -0.77796 0.41490
vn 0.31511 -0.52807 0.78857
vn 0.32561 -0.53034 0.78277
vn 0.46797 -0.77935 0.41668
vn 0.31781 -0.52363 0.79045
vn 0.47364 -0.77822 0.41236
vn -0.85230 0.37984 0.35959
vn -0.78793 0.48744 0.37625
vn -0.90461 0.22179 0.36399
vn -0.63752 0.15377 0.75494
vn -0.59742 0.24921 0.76222
vn -0.39926 0.09771 0.91161
vn -0.36537 0.12669 0.92220
vn 0.63296 -0.19349 0.74962
vn 0.46069 -0.46952 0.75321
vn 0.29103 -0.31429 0.90361
vn 0.43564 -0.11991 0.89210
vn 0.88510 -0.30731 0.34951
vn 0.65558 -0.66533 0.35715
vn 0.54222 -0.75242 0.37397
vn 0.36307 -0.52896 0.76706
vn 0.34283 -0.52820 0.77683
vn -0.05855 -0.06777 0.99598
vn 0.19707 -0.33057 0.92298
vn -0.03978 -0.04866 0.99802
vn -0.43047 0.42226 0.79774
vn -0.49154 0.37056 0.78808
vn -0.01341 -0.02681 0.99955
vn -0.35513 0.47560 0.80479
vn 0.01536 -0.00727 0.99986
vn -0.29031 0.51777 0.80476
vn 0.04346 0.00563 0.99904
vn -0.22789 0.55391 0.80078
vn 0.32714 -0.52498 0.78573
vn 0.32738 -0.53954 0.77571
vn 0.07441 0.01734 0.99708
vn 0.46323 -0.79038 0.40091
vn 0.45180 -0.80545 0.38358
vn 0.32520 -0.55661 0.76448
vn -0.64020 0.65272 0.40510
vn -0.53903 0.73242 0.41594
vn -0.71870 0.57451 0.39168
vn -0.54692 0.31601 0.77526
vn -0.33026 0.15995 0.93024
vn -0.44735 0.79101 0.41734
vn -0.35531 0.83932 0.41146
vn -0.24395 0.88502 0.39653
vn -0.15171 0.59609 0.78845
vn -0.08990 0.62656 0.77417
vn -0.15458 0.91270 0.37827
vn -0.02572 0.35699 0.93375
vn 0.01369 0.37475 0.92703
vn -0.02986 0.65005 0.75930
vn 0.32693 -0.57897 0.74694
vn 0.21828 -0.33494 0.91661
vn 0.20927 -0.31358 0.92621
vn 0.29107 -0.63730 0.71353
vn 0.21392 -0.39359 0.89405
vn 0.44400 -0.82079 0.35940
vn 0.38186 -0.86730 0.31934
vn -0.07088 0.93216 0.35505
vn 0.02459 0.94585 0.32366
vn 0.04767 0.67241 0.73864
vn 0.13628 0.68693 0.71383
vn 0.16547 0.94160 0.29328
vn 0.07214 0.39738 0.91482
vn 0.10819 0.42330 0.89951
vn 0.12385 0.45029 0.88425
vn 0.22934 0.67865 0.69774
vn 0.05418 -0.71574 0.69626
vn -0.36167 -0.60272 0.71128
vn -0.25156 -0.39132 0.88520
vn 0.05318 -0.47053 0.88078
vn 0.07318 -0.95560 0.28544
vn -0.49103 -0.81984 0.29454
vn 0.33642 0.89709 0.28643
vn 0.49263 0.80965 0.31904
vn 0.32739 0.61775 0.71498
vn 0.41170 0.49846 0.76291
vn 0.63431 0.67651 0.37415
vn 0.17095 0.43351 0.88479
vn -0.09408 0.20374 0.97449
vn -0.62131 -0.27608 0.73331
vn -0.63547 -0.01385 0.77201
vn -0.42558 -0.14646 0.89299
vn -0.85789 -0.38725 0.33771
vn -0.91615 -0.03670 0.39916
vn 0.75033 0.50983 0.42080
vn -0.85992 0.00900 0.51035
vn -0.47942 -0.00429 0.87758
vn -0.50439 0.08116 0.85965
vn -0.85531 0.12754 0.50217
vn 0.04317 -0.03319 0.99852
vn 0.02476 0.04927 0.99848
vn 0.54743 -0.03802 0.83598
vn 0.53715 0.07706 0.83996
vn 0.88479 -0.03741 0.46448
vn 0.87387 0.12726 0.46921
vn 0.82952 0.32700 0.45274
vn 0.51372 0.22388 0.82824
vn 0.47281 0.36215 0.80330
vn -0.03699 0.18160 0.98268
vn -0.00026 0.12580 0.99206
vn -0.57521 0.09018 0.81302
vn -0.53527 0.09881 0.83888
vn -0.88593 0.10074 0.45275
vn -0.86573 0.12276 0.48522
f 1//1 9//2 10//3 11//4
f 1//1 11//4 12//5 13//6
f 1//1 13//6 14//7 9//2
f 2//8 15//9 16//10 17//11
f 2//8 17//11 12//5 11//4
f 2//8 11//4 10//3 15//9
f 3//12 18//13 19//14 20//15
f 3//12 21//16 22//17 18//13
f 3//12 20//15 23//18 21//16
f 4//19 24//20 25//21 26//22
f 4//19 26//22 27//23 28//24
f 4//19 28//24 29//25 24//20
f 5//26 30//27 31//28 32//29
f 5//26 32//29 33//30 34//31
f 5//26 34//31 35//32 36//33
f 6//34 24//20 29//25 37//35
f 6//34 38//36 25//21 24//20
f 6//34 37//35 39//37 38//36
f 7//38 40//39 41//40 42//41
f 7//38 42//41 22//17 21//16
f 7//38 21//16 23//18 40//39
f 8//42 43//43 44//44 45//45
f 36//33 46//46 43//43 8//42
f 8//42 45//45 5//26 36//33
f 46//46 36//33 47//47 48//48
f 46//46 48//48 49//49 50//50
f 46//46 50//50 51//51 43//43
f 51//51 52//52 44//44 43//43
f 51//51 50//50 313//53 53//54
f 51//51 53//54 54//55 52//52
f 54//55 55//56 56//57 52//52
f 56//57 55//56 314//58 27//23
f 56//57 27//23 26//22 57//59
f 56//57 57//59 44//44 52//52
f 57//59 26//22 25//21 58//60
f 57//59 58//60 45//45 44//44
f 58//60 25//21 38//36 59//61
f 58//60 59//61 60//62 45//45
f 60//62 30//27 5//26 45//45
f 60//62 59//61 61//63 62//64
f 60//62 62//64 63//65 30//27
f 63//65 64//66 31//28 30//27
f 63//65 62//64 315//67 316//68
f 63//65 316//68 65//69 64//66
f 65//69 66//70 67//71 64//66
f 68//72 69//73 70//74 71//75
f 68//72 71//75 67//71 66//70
f 71//75 70//74 72//76 73//77
f 71//75 73//77 74//78 67//71
f 74//78 73//77 75//79 76//80
f 74//78 76//80 32//29 31//28
f 74//78 31//28 64//66 67//71
f 76//80 75//81 77//82 78//83
f 76//80 78//83 33//30 32//29
f 78//83 77//82 79//84 80//85
f 78//83 80//85 81//86 33//30
f 81//86 80//85 82//87 317//88
f 81//86 317//88 83//89 84//90
f 81//86 84//90 34//31 33//30
f 84//90 83//89 85//91 86//92
f 84//90 86//92 35//32 34//31
f 86//92 85//91 87//93 88//94
f 86//92 88//94 89//95 35//32
f 89//95 88//94 90//96 91//97
f 89//95 91//97 92//98 47//47
f 89//95 47//47 36//33 35//32
f 92//98 91//97 93//99 94//100
f 92//101 94//102 95//103 96//104
f 92//101 96//104 48//48 47//47
f 96//104 95//103 97//105 98//106
f 96//104 98//106 49//49 48//48
f 98//106 97//105 99//107 318//108
f 98//106 318//108 319//109 49//49
f 319//109 313//53 50//50 49//49
f 100//110 320//111 101//112 102//113
f 100//110 102//113 70//74 69//73
f 102//113 101//112 103//114 104//115
f 102//113 104//115 72//76 70//74
f 104//115 103//114 105//116 106//117
f 104//115 106//117 107//118 72//76
f 107//119 106//120 108//121 109//122
f 107//119 109//122 77//82 75//81
f 107//118 75//79 73//77 72//76
f 109//122 108//121 110//123 111//124
f 109//122 111//124 79//84 77//82
f 111//124 110//123 112//125 113//126
f 111//124 113//126 114//127 79//84
f 114//127 82//87 80//85 79//84
f 322//128 321//129 115//130 116//131
f 322//128 116//131 101//112 320//111
f 116//131 115//130 117//132 118//133
f 116//131 118//133 103//114 101//112
f 118//133 117//132 119//134 120//135
f 118//133 120//135 105//116 103//114
f 120//136 119//137 121//137 122//136
f 120//136 122//136 123//138 105//139
f 123//138 122//140 124//141 125//142
f 123//138 125//142 110//123 108//121
f 123//138 108//121 106//120 105//139
f 125//142 124//141 323//143 324//144
f 125//142 324//144 112//125 110//123
f 127//145 126//146 128//147 129//148
f 127//145 129//148 115//130 321//129
f 129//148 128//147 130//149 131//150
f 129//148 131//150 117//132 115//130
f 131//150 130//149 132//151 133//152
f 131//150 133//152 119//134 117//132
f 133//153 132//154 134//155 135//156
f 133//153 135//156 121//137 119//137
f 135//156 134//155 136//157 137//158
f 135//156 137//158 138//159 121//160
f 138//159 137//158 325//161 326//162
f 138//159 326//162 323//143 124//141
f 138//159 124//141 122//140 121//160
f 325//161 137//158 136//157 327//163
f 141//164 140//165 142//166 143//167
f 141//164 143//167 128//147 126//146
f 143//167 142//166 144//168 145//169
f 143//167 145//169 130//149 128//147
f 145//169 144//168 146//170 147//171
f 145//169 147//171 132//151 130//149
f 147//172 146//173 148//174 149//175
f 147//172 149//175 134//155 132//154
f 149//175 148//174 150//176 151//177
f 149//175 151//177 136//157 134//155
f 151//177 150//176 152//178 139//179
f 151//177 139//179 327//163 136//157
f 152//178 150//176 153//180 328//181
f 153//180 154//182 155//183 328//181
f 153//180 150//176 148//174 156//184
f 153//180 156//184 157//185 154//182
f 157//185 158//186 159//187 154//182
f 157//185 156//184 160//188 161//189
f 157//185 161//189 162//190 158//186
f 162//190 163//191 164//192 158//186
f 162//190 161//193 165//194 166//195
f 162//190 166//195 167//196 163//191
f 167//196 15//9 10//3 163//191
f 167//196 166//195 168//197 169//198
f 167//196 169//198 16//10 15//9
f 169//198 168//197 329//199 170//200
f 169//198 170//200 171//201 16//10
f 171//201 330//202 17//11 16//10
f 332//203 331//204 172//205 14//7
f 332//203 14//7 13//6 173//206
f 173//206 13//6 12//5 333//207
f 333//207 12//5 17//11 330//202
f 172//205 331//204 334//208 159//187
f 172//205 159//187 158//186 164//192
f 172//205 164//192 9//2 14//7
f 334//208 155//183 154//182 159//187
f 174//209 335//210 175//211 176//212
f 174//209 176//212 142//166 140//165
f 176//212 175//211 165//194 177//213
f 176//212 177//213 144//168 142//166
f 177//213 165//194 161//193 160//214
f 177//213 160//214 146//170 144//168
f 175//211 168//197 166//195 165//194
f 175//211 335//210 329//199 168//197
f 164//192 163//191 10//3 9//2
f 160//188 156//184 148//174 146//173
f 178//215 179//216 180//217 90//96
f 178//215 90//96 88//94 87//93
f 182//218 336//219 184//220 185//221
f 182//218 185//221 186//222 183//223
f 186//222 185//221 187//224 188//225
f 186//222 188//225 189//226 190//227
f 186//222 190//227 191//228 183//223
f 191//228 190//227 192//229 193//230
f 196//231 195//232 197//233 198//234
f 196//231 198//234 199//235 181//236
f 199//235 180//217 179//216 181//236
f 199//235 198//234 200//237 201//238
f 199//235 201//238 93//99 180//217
f 201//238 200//237 202//239 203//240
f 201//238 203//240 94//100 93//99
f 203//241 202//242 204//243 205//244
f 203//241 205//244 95//103 94//102
f 205//244 204//243 206//245 207//246
f 205//244 207//246 97//105 95//103
f 207//246 206//245 337//247 208//248
f 207//246 208//248 99//249 97//105
f 337//247 206//245 209//250 338//251
f 209//250 206//245 204//243 210//252
f 209//250 210//252 211//253 184//220
f 209//250 184//220 336//219 338//251
f 211//253 210//252 212//254 213//255
f 211//253 213//255 214//256 187//224
f 211//253 187//224 185//221 184//220
f 214//256 213//255 215//257 216//258
f 214//256 216//258 217//259 218//260
f 214//256 218//260 188//225 187//224
f 218//260 217//259 219//261 220//262
f 218//260 220//262 189//226 188//225
f 220//262 219//261 221//263 222//264
f 220//262 222//264 223//265 189//226
f 223//265 222//264 224//266 225//267
f 223//265 225//267 226//268 192//229
f 223//265 192//229 190//227 189//226
f 226//268 225//267 227//269 228//270
f 226//268 228//270 229//271 230//272
f 226//268 230//272 193//230 192//229
f 232//273 231//274 233//275 234//276
f 232//273 234//276 235//277 194//278
f 235//277 197//233 195//232 194//278
f 235//277 234//276 216//258 215//257
f 235//277 215//257 236//279 197//233
f 236//279 200//237 198//234 197//233
f 236//279 215//257 213//255 212//280
f 236//279 212//280 202//239 200//237
f 234//276 233//275 217//259 216//258
f 233//275 231//274 339//281 237//282
f 233//275 237//282 219//261 217//259
f 237//282 339//281 340//283 238//284
f 237//282 238//284 221//263 219//261
f 238//284 340//283 239//285 240//286
f 238//284 240//286 241//287 221//263
f 241//287 240//286 242//288 243//289
f 241//287 243//289 244//290 224//266
f 241//287 224//266 222//264 221//263
f 244//290 243//289 245//291 246//292
f 244//293 246//294 247//295 227//269
f 244//293 227//269 225//267 224//266
f 247//295 246//294 248//296 249//297
f 247//295 249//297 250//298 251//299
f 247//295 251//299 228//270 227//269
f 251//299 250//298 252//300 253//301
f 251//299 253//301 229//271 228//270
f 254//302 341//303 255//304 242//288
f 254//302 242//288 240//286 239//285
f 255//304 341//303 256//305 257//306
f 255//304 257//306 258//307 245//291
f 255//304 245//291 243//289 242//288
f 258//307 257//306 259//308 260//309
f 258//307 260//309 261//310 248//311
f 258//307 248//311 246//292 245//291
f 261//310 260//309 262//312 263//313
f 261//314 263//315 264//316 265//317
f 261//314 265//317 249//297 248//296
f 265//317 264//316 266//318 267//319
f 265//317 267//319 250//298 249//297
f 267//319 266//318 268//320 342//321
f 267//319 342//321 252//300 250//298
f 269//322 343//323 270//324 259//308
f 269//322 259//308 257//306 256//305
f 270//324 343//323 271//325 272//326
f 270//324 272//326 273//327 262//312
f 270//324 262//312 260//309 259//308
f 273//327 272//326 274//328 275//329
f 273//327 275//329 276//330 277//331
f 273//327 277//331 263//313 262//312
f 277//332 276//330 278//333 279//334
f 277//332 279//334 264//316 263//315
f 279//334 278//333 280//335 281//336
f 279//334 281//336 266//318 264//316
f 281//336 280//335 344//337 282//338
f 281//336 282//338 268//339 266//318
f 345//340 283//341 284//342 274//328
f 345//340 274//328 272//326 271//325
f 286//343 346//344 288//345 19//14
f 286//343 19//14 18//13 287//346
f 288//345 289//347 290//348 291//349
f 288//345 291//349 20//15 19//14
f 288//345 346//344 347//350 289//347
f 291//349 290//348 292//351 293//352
f 291//349 293//352 23//18 20//15
f 293//352 292//351 294//353 295//354
f 293//352 295//354 40//39 23//18
f 295//354 294//353 296//355 297//356
f 295//354 297//356 41//40 40//39
f 297//356 296//355 348//357 349//358
f 297//356 349//358 298//359 41//40
f 298//359 299//360 42//41 41//40
f 299//360 300//361 22//17 42//41
f 300//361 287//346 18//13 22//17
f 348//357 296//355 301//362 285//363
f 301//362 284//342 283//341 285//363
f 301//362 296//355 294//353 302//364
f 301//362 302//364 303//365 284//342
f 303//365 275//329 274//328 284//342
f 303//365 302//364 304//366 305//367
f 303//365 305//367 276//330 275//329
f 305//367 304//366 306//368 307//369
f 305//367 307//369 278//333 276//330
f 307//369 306//368 308//370 309//371
f 307//369 309//371 280//335 278//333
f 309//371 308//370 350//372 351//373
f 309//371 351//373 344//337 280//335
f 350//372 308//370 289//347 347//350
f 308//370 306//368 290//348 289//347
f 306//368 304//366 292//351 290//348
f 304//366 302//364 294//353 292//351
f 212//254 210//252 204//243 202//242
f 180//217 93//99 91//97 90//96
f 310//374 352//375 61//63 39//37
f 310//374 39//37 37//35 311//376
f 311//376 37//35 29//25 312//377
f 312//377 29//25 28//24 353//378
f 353//378 28//24 27//23 314//58
f 352//375 315//67 62//64 61//63
f 61//63 59//61 38//36 39//37
f 364//379 363//380 362//381 354//382
f 366//383 365//384 364//379 354//382
f 362//381 367//385 366//383 354//382
f 370//386 369//387 368//388 355//389
f 364//379 365//384 370//386 355//389
f 368//388 363//380 364//379 355//389
f 373//390 372//391 371//392 356//393
f 371//392 375//394 374//395 356//393
f 374//395 376//396 373//390 356//393
f 379//397 378//398 377//399 357//400
f 381//401 380//402 379//397 357//400
f 377//399 382//403 381//401 357//400
f 385//404 384//405 383//406 358//407
f 387//408 386//409 385//404 358//407
f 389//410 388//411 387//408 358//407
f 390//412 382//403 377//399 359//413
f 377//399 378//398 391//414 359//413
f 391//414 392//415 390//412 359//413
f 395//416 394//417 393//418 360//419
f 374//395 375//394 395//416 360//419
f 393//418 376//396 374//395 360//419
f 398//420 397//421 396//422 361//423
f 361//423 396//422 399//424 389//410
f 389//410 358//407 398//420 361//423
f 401//425 400//426 389//410 399//424
f 403//427 402//428 401//425 399//424
f 396//422 404//429 403//427 399//424
f 396//422 397//421 405//430 404//429
f 53//54 313//53 403//427 404//429
f 405//430 54//55 53//54 404//429
f 405//430 406//431 55//56 54//55
f 380//402 314//58 55//56 406//431
f 407//432 379//397 380//402 406//431
f 405//430 397//421 407//432 406//431
f 408//433 378//398 379//397 407//432
f 397//421 398//420 408//433 407//432
f 409//434 391//414 378//398 408//433
f 398//420 410//435 409//434 408//433
f 398//420 358//407 383//406 410//435
f 412//436 411//437 409//434 410//435
f 383//406 413//438 412//436 410//435
f 383//406 384//405 414//439 413//438
f 316//68 315//67 412//436 413//438
f 414//439 65//69 316//68 413//438
f 414//439 415//440 66//70 65//69
f 417//441 416//442 69//73 68//72
f 66//70 415//440 417//441 68//72
f 419//443 418//444 416//442 417//441
f 415//440 420//445 419//443 417//441
f 422//446 421//447 419//443 420//445
f 384//405 385//404 422//446 420//445
f 415//440 414//439 384//405 420//445
f 424//448 423//449 421//450 422//446
f 385//404 386//409 424//448 422//446
f 426//451 425//452 423//449 424//448
f 386//409 427//453 426//451 424//448
f 317//88 82//87 426//451 427//453
f 428//454 83//89 317//88 427//453
f 386//409 387//408 428//454 427//453
f 429//455 85//91 83//89 428//454
f 387//408 388//411 429//455 428//454
f 430//456 87//93 85//91 429//455
f 388//411 431//457 430//456 429//455
f 433//458 432//459 430//456 431//457
f 400//426 434//460 433//458 431//457
f 388//411 389//410 400//426 431//457
f 436//461 435//462 433//458 434//460
f 438//463 437//464 436//465 434//466
f 400//426 401//425 438//463 434//466
f 440//467 439//468 437//464 438//463
f 401//425 402//428 440//467 438//463
f 318//108 99//107 439//468 440//467
f 402//428 319//109 318//108 440//467
f 402//428 403//427 313//53 319//109
f 442//469 441//470 320//111 100//110
f 69//73 416//442 442//469 100//110
f 444//471 443//472 441//470 442//469
f 416//442 418//444 444//471 442//469
f 446//473 445//474 443//472 444//471
f 418//444 447//475 446//473 444//471
f 449//476 448//477 446//478 447//479
f 421//450 423//449 449//476 447//479
f 418//444 419//443 421//447 447//475
f 451//480 450//481 448//477 449//476
f 423//449 425//452 451//480 449//476
f 113//126 112//125 450//481 451//480
f 425//452 114//127 113//126 451//480
f 425//452 426//451 82//87 114//127
f 453//482 452//483 321//129 322//128
f 320//111 441//470 453//482 322//128
f 455//484 454//485 452//483 453//482
f 441//470 443//472 455//484 453//482
f 457//486 456//487 454//485 455//484
f 443//472 445//474 457//486 455//484
f 459//488 458//489 456//489 457//488
f 445//490 460//491 459//488 457//488
f 462//492 461//493 459//494 460//491
f 448//477 450//481 462//492 460//491
f 445//490 446//478 448//477 460//491
f 324//144 323//143 461//493 462//492
f 450//481 112//125 324//144 462//492
f 464//495 463//496 126//146 127//145
f 321//129 452//483 464//495 127//145
f 466//497 465//498 463//496 464//495
f 452//483 454//485 466//497 464//495
f 468//499 467//500 465//498 466//497
f 454//485 456//487 468//499 466//497
f 470//501 469//502 467//503 468//504
f 456//489 458//489 470//501 468//504
f 472//505 471//506 469//502 470//501
f 458//507 473//508 472//505 470//501
f 326//162 325//161 472//505 473//508
f 461//493 323//143 326//162 473//508
f 458//507 459//494 461//493 473//508
f 327//163 471//506 472//505 325//161
f 475//509 474//510 140//165 141//164
f 126//146 463//496 475//509 141//164
f 477//511 476//512 474//510 475//509
f 463//496 465//498 477//511 475//509
f 479//513 478//514 476//512 477//511
f 465//498 467//500 479//513 477//511
f 481//515 480//516 478//517 479//518
f 467//503 469//502 481//515 479//518
f 483//519 482//520 480//516 481//515
f 469//502 471//506 483//519 481//515
f 139//179 152//178 482//520 483//519
f 471//506 327//163 139//179 483//519
f 328//181 484//521 482//520 152//178
f 328//181 155//183 485//522 484//521
f 486//523 480//516 482//520 484//521
f 485//522 487//524 486//523 484//521
f 485//522 489//525 488//526 487//524
f 491//527 490//528 486//523 487//524
f 488//526 492//529 491//527 487//524
f 488//526 494//530 493//531 492//529
f 496//532 495//533 491//534 492//529
f 493//531 497//535 496//532 492//529
f 493//531 363//380 368//388 497//535
f 499//536 498//537 496//532 497//535
f 368//388 369//387 499//536 497//535
f 170//200 329//199 498//537 499//536
f 369//387 171//201 170//200 499//536
f 369//387 370//386 330//202 171//201
f 367//385 500//538 331//204 332//203
f 173//206 366//383 367//385 332//203
f 333//207 365//384 366//383 173//206
f 330//202 370//386 365//384 333//207
f 489//525 334//208 331//204 500//538
f 494//530 488//526 489//525 500//538
f 367//385 362//381 494//530 500//538
f 489//525 485//522 155//183 334//208
f 502//539 501//540 335//210 174//209
f 140//165 474//510 502//539 174//209
f 503//541 495//533 501//540 502//539
f 474//510 476//512 503//541 502//539
f 490//542 491//534 495//533 503//541
f 476//512 478//514 490//542 503//541
f 495//533 496//532 498//537 501//540
f 498//537 329//199 335//210 501//540
f 362//381 363//380 493//531 494//530
f 478//517 480//516 486//523 490//528
f 432//459 504//543 179//216 178//215
f 87//93 430//456 432//459 178//215
f 506//544 505//545 336//219 182//218
f 183//223 507//546 506//544 182//218
f 509//547 508//548 506//544 507//546
f 511//549 510//550 509//547 507//546
f 183//223 191//228 511//549 507//546
f 193//230 512//551 511//549 191//228
f 514//552 513//553 195//232 196//231
f 181//236 515//554 514//552 196//231
f 181//236 179//216 504//543 515//554
f 517//555 516//556 514//552 515//554
f 504//543 435//462 517//555 515//554
f 519//557 518//558 516//556 517//555
f 435//462 436//461 519//557 517//555
f 521//559 520//560 518//561 519//562
f 436//465 437//464 521//559 519//562
f 523//563 522//564 520//560 521//559
f 437//464 439//468 523//563 521//559
f 208//248 337//247 522//564 523//563
f 439//468 99//249 208//248 523//563
f 338//251 524//565 522//564 337//247
f 525//566 520//560 522//564 524//565
f 505//545 526//567 525//566 524//565
f 338//251 336//219 505//545 524//565
f 528//568 527//569 525//566 526//567
f 508//548 529//570 528//568 526//567
f 505//545 506//544 508//548 526//567
f 531//571 530//572 528//568 529//570
f 533//573 532//574 531//571 529//570
f 508//548 509//547 533//573 529//570
f 535//575 534//576 532//574 533//573
f 509//547 510//550 535//575 533//573
f 537//577 536//578 534//576 535//575
f 510//550 538//579 537//577 535//575
f 540//580 539//581 537//577 538//579
f 512//551 541//582 540//580 538//579
f 510//550 511//549 512//551 538//579
f 543//583 542//584 540//580 541//582
f 230//272 229//271 543//583 541//582
f 512//551 193//230 230//272 541//582
f 545//585 544//586 231//274 232//273
f 194//278 546//587 545//585 232//273
f 194//278 195//232 513//553 546//587
f 530//572 531//571 545//585 546//587
f 513//553 547//588 530//572 546//587
f 513//553 514//552 516//556 547//588
f 527//589 528//568 530//572 547//588
f 516//556 518//558 527//589 547//588
f 531//571 532//574 544//586 545//585
f 548//590 339//281 231//274 544//586
f 532//574 534//576 548//590 544//586
f 549//591 340//283 339//281 548//590
f 534//576 536//578 549//591 548//590
f 550//592 239//285 340//283 549//591
f 536//578 551//593 550//592 549//591
f 553//594 552//595 550//592 551//593
f 539//581 554//596 553//594 551//593
f 536//578 537//577 539//581 551//593
f 556//597 555//598 553//594 554//596
f 542//584 557//599 556//600 554//601
f 539//581 540//580 542//584 554//601
f 559//602 558//603 556//600 557//599
f 561//604 560//605 559//602 557//599
f 542//584 543//583 561//604 557//599
f 253//301 252//300 560//605 561//604
f 543//583 229//271 253//301 561//604
f 552//595 562//606 341//303 254//302
f 239//285 550//592 552//595 254//302
f 563//607 256//305 341//303 562//606
f 555//598 564//608 563//607 562//606
f 552//595 553//594 555//598 562//606
f 566//609 565//610 563//607 564//608
f 558//611 567//612 566//609 564//608
f 555//598 556//597 558//611 564//608
f 569//613 568//614 566//609 567//612
f 571//615 570//616 569//617 567//618
f 558//603 559//602 571//615 567//618
f 573//619 572//620 570//616 571//615
f 559//602 560//605 573//619 571//615
f 342//321 268//320 572//620 573//619
f 560//605 252//300 342//321 573//619
f 565//610 574//621 343//323 269//322
f 256//305 563//607 565//610 269//322
f 575//622 271//325 343//323 574//621
f 568//614 576//623 575//622 574//621
f 565//610 566//609 568//614 574//621
f 578//624 577//625 575//622 576//623
f 580//626 579//627 578//624 576//623
f 568//614 569//613 580//626 576//623
f 582//628 581//629 579//627 580//630
f 569//617 570//616 582//628 580//630
f 584//631 583//632 581//629 582//628
f 570//616 572//620 584//631 582//628
f 282//338 344//337 583//632 584//631
f 572//620 268//339 282//338 584//631
f 577//625 585//633 283//341 345//340
f 271//325 575//622 577//625 345//340
f 372//391 586//634 346//344 286//343
f 287//346 371//392 372//391 286//343
f 589//635 588//636 587//637 586//634
f 372//391 373//390 589//635 586//634
f 587//637 347//350 346//344 586//634
f 591//638 590//639 588//636 589//635
f 373//390 376//396 591//638 589//635
f 593//640 592//641 590//639 591//638
f 376//396 393//418 593//640 591//638
f 595//642 594//643 592//641 593//640
f 393//418 394//417 595//642 593//640
f 349//358 348//357 594//643 595//642
f 394//417 298//359 349//358 595//642
f 394//417 395//416 299//360 298//359
f 395//416 375//394 300//361 299//360
f 375//394 371//392 287//346 300//361
f 285//363 596//644 594//643 348//357
f 285//363 283//341 585//633 596//644
f 597//645 592//641 594//643 596//644
f 585//633 598//646 597//645 596//644
f 585//633 577//625 578//624 598//646
f 600//647 599//648 597//645 598//646
f 578//624 579//627 600//647 598//646
f 602//649 601//650 599//648 600//647
f 579//627 581//629 602//649 600//647
f 604//651 603//652 601//650 602//649
f 581//629 583//632 604//651 602//649
f 351//373 350//372 603//652 604//651
f 583//632 344//337 351//373 604//651
f 347//350 587//637 603//652 350//372
f 587//637 588//636 601//650 603//652
f 588//636 590//639 599//648 601//650
f 590//639 592//641 597//645 599//648
f 518//561 520//560 525//566 527//569
f 432//459 433//458 435//462 504//543
f 392//415 411//437 352//375 310//374
f 311//376 390//412 392//415 310//374
f 312//377 382//403 390//412 311//376
f 353//378 381//401 382//403 312//377
f 314//58 380//402 381//401 353//378
f 411//437 412//436 315//67 352//375
f 392//415 391//414 409//434 411//437
