# pilowlava3D glyph ':' variant 1 — Vincent Wagner / Velvetyne, Free Art License
v 1.10093 2.64934 -0.35780
v 0.18372 2.77174 -0.34460
v 1.07494 2.28021 -0.35420
v 0.13193 2.45816 -0.33470
v 0.97095 2.72770 -0.39458
v 1.01944 2.87617 -0.22171
v 1.19278 2.69490 -0.21498
v 1.22840 2.43123 -0.20306
v 1.11132 2.45505 -0.37386
v 0.92857 2.50226 -0.45854
v 0.33605 2.80704 -0.39352
v 0.30764 2.60055 -0.45936
v 0.14190 2.62051 -0.36738
v 0.12046 2.84838 -0.20702
v 0.33778 2.95779 -0.22418
v 0.03864 2.63061 -0.20562
v 1.12234 2.18718 -0.21208
v 0.89214 2.27213 -0.40936
v 0.87108 2.10716 -0.23678
v 0.06355 2.41180 -0.20460
v 0.26981 2.38358 -0.39110
v 0.22540 2.24211 -0.22330
v 0.43817 2.16805 -0.23816
v 0.20396 2.20647 0.00000
v 0.04068 2.38936 0.00000
v 0.47347 2.33546 -0.42424
v 0.68109 2.30458 -0.42883
v 0.64792 2.13748 -0.24216
v 0.51960 2.57232 -0.48714
v 0.72846 2.54617 -0.48523
v 0.55093 2.80667 -0.41842
v 0.76775 2.78519 -0.41722
v 0.56578 2.96961 -0.23580
v 0.79192 2.94948 -0.23539
v 0.80080 2.99105 0.00000
v 1.03715 2.90927 0.00000
v 1.22718 2.70405 0.00000
v 0.87115 2.05313 0.00000
v 1.13280 2.15073 0.00000
v 1.25675 2.42178 0.00000
v 0.10538 2.87952 0.00000
v 0.01130 2.63494 0.00000
v 0.42334 2.11518 0.00000
v 0.57135 3.01511 0.00000
v 0.63579 2.07664 0.00000
v 0.33426 2.99955 0.00000
v 1.10093 2.64934 0.35780
v 0.18372 2.77174 0.34460
v 1.07494 2.28021 0.35420
v 0.13193 2.45816 0.33470
v 0.97095 2.72770 0.39458
v 1.01944 2.87617 0.22171
v 1.19278 2.69490 0.21498
v 1.22840 2.43123 0.20306
v 1.11132 2.45505 0.37386
v 0.92857 2.50226 0.45854
v 0.33605 2.80704 0.39352
v 0.30764 2.60055 0.45936
v 0.14190 2.62051 0.36738
v 0.12046 2.84838 0.20702
v 0.33778 2.95779 0.22418
v 0.03864 2.63061 0.20562
v 1.12234 2.18718 0.21208
v 0.89214 2.27213 0.40936
v 0.87108 2.10716 0.23678
v 0.06355 2.41180 0.20460
v 0.26981 2.38358 0.39110
v 0.22540 2.24211 0.22330
v 0.43817 2.16805 0.23816
v 0.47347 2.33546 0.42424
v 0.68109 2.30458 0.42883
v 0.64792 2.13748 0.24216
v 0.51960 2.57232 0.48714
v 0.72846 2.54617 0.48523
v 0.55093 2.80667 0.41842
v 0.76775 2.78519 0.41722
v 0.56578 2.96961 0.23580
v 0.79192 2.94948 0.23539
v 0.45311 0.13704 -0.35780
v 0.99934 0.88396 -0.34460
v 0.14138 0.33643 -0.35420
v 0.74873 1.07944 -0.33470
v 0.58410 0.21371 -0.39458
v 0.69128 0.10010 -0.22171
v 0.44919 0.03458 -0.21498
v 0.20060 0.12943 -0.20306
v 0.27752 0.22085 -0.37386
v 0.40640 0.35875 -0.45854
v 0.95747 0.73331 -0.39352
v 0.78972 0.85703 -0.45936
v 0.88653 0.99303 -0.36738
v 1.09690 0.90285 -0.20702
v 1.08903 0.65967 -0.22418
v 0.94480 1.07887 -0.20562
v 0.03701 0.33930 -0.21208
v 0.22173 0.50083 -0.40936
v 0.08693 0.59823 -0.23678
v 0.74073 1.16167 -0.20460
v 0.61728 0.99403 -0.39110
v 0.51429 1.10070 -0.22330
v 0.34748 0.94928 -0.23816
v 0.49324 1.13657 0.00000
v 0.73196 1.19249 0.00000
v 0.47761 0.83819 -0.42424
v 0.35118 0.67064 -0.42883
v 0.22030 0.77970 -0.24216
v 0.66354 0.68439 -0.48714
v 0.54067 0.51348 -0.48523
v 0.85436 0.54478 -0.41842
v 0.73178 0.36465 -0.41722
v 0.99035 0.45380 -0.23580
v 0.86450 0.26484 -0.23539
v 0.89676 0.23715 0.00000
v 0.71189 0.06871 0.00000
v 0.44077 0.00000 0.00000
v 0.03944 0.62401 0.00000
v 0.00000 0.34756 0.00000
v 0.17874 0.10905 0.00000
v 1.13145 0.90121 0.00000
v 0.96167 1.10081 0.00000
v 0.30814 0.98759 0.00000
v 1.02764 0.42715 0.00000
v 0.17267 0.81945 0.00000
v 1.12738 0.64280 0.00000
v 0.45311 0.13704 0.35780
v 0.99934 0.88396 0.34460
v 0.14138 0.33643 0.35420
v 0.74873 1.07944 0.33470
v 0.58410 0.21371 0.39458
v 0.69128 0.10010 0.22171
v 0.44919 0.03458 0.21498
v 0.20060 0.12943 0.20306
v 0.27752 0.22085 0.37386
v 0.40640 0.35875 0.45854
v 0.95747 0.73331 0.39352
v 0.78972 0.85703 0.45936
v 0.88653 0.99303 0.36738
v 1.09690 0.90285 0.20702
v 1.08903 0.65967 0.22418
v 0.94480 1.07887 0.20562
v 0.03701 0.33930 0.21208
v 0.22173 0.50083 0.40936
v 0.08693 0.59823 0.23678
v 0.74073 1.16167 0.20460
v 0.61728 0.99403 0.39110
v 0.51429 1.10070 0.22330
v 0.34748 0.94928 0.23816
v 0.47761 0.83819 0.42424
v 0.35118 0.67064 0.42883
v 0.22030 0.77970 0.24216
v 0.66354 0.68439 0.48714
v 0.54067 0.51348 0.48523
v 0.85436 0.54478 0.41842
v 0.73178 0.36465 0.41722
v 0.99035 0.45380 0.23580
v 0.86450 0.26484 0.23539
vn 0.62658 0.28395 -0.72579
vn 0.36708 0.43496 -0.82223
vn 0.49336 0.76373 -0.41632
vn 0.83279 0.39451 -0.38836
vn 0.92786 -0.12354 -0.35188
vn 0.62921 -0.06963 -0.77411
vn 0.24588 -0.01717 -0.96915
vn -0.54768 0.45412 -0.70273
vn -0.24477 0.53608 -0.80790
vn -0.29709 0.04589 -0.95375
vn -0.66781 0.09090 -0.73876
vn -0.69425 0.60840 -0.38453
vn -0.25402 0.87035 -0.42186
vn -0.93389 0.12151 -0.33627
vn 0.50444 -0.44474 -0.74010
vn 0.88116 -0.34373 -0.32466
vn 0.15263 -0.50794 -0.84776
vn 0.29740 -0.85995 -0.41478
vn 0.10586 -0.88498 -0.45344
vn -0.67429 -0.28747 -0.68021
vn -0.84864 -0.38366 -0.36417
vn -0.40009 -0.44246 -0.80260
vn -0.51313 -0.74888 -0.41939
vn -0.23747 -0.85456 -0.46188
vn -0.26511 -0.96422 0.00036
vn -0.56682 -0.82384 0.00020
vn -0.91038 -0.41378 -0.00002
vn -0.16270 -0.49543 -0.85328
vn -0.04144 -0.50212 -0.86381
vn -0.11781 -0.87338 -0.47258
vn -0.07288 0.02554 -0.99701
vn 0.06270 0.01250 -0.99795
vn -0.01575 0.53617 -0.84396
vn 0.14456 0.50773 -0.84930
vn 0.00795 0.89648 -0.44302
vn 0.19653 0.87485 -0.44273
vn 0.01668 0.99986 0.00001
vn 0.21063 0.97757 -0.00004
vn 0.54215 0.84028 0.00013
vn 0.90713 0.42085 -0.00006
vn 0.11457 -0.99341 0.00005
vn -0.13895 -0.99030 -0.00011
vn 0.33531 -0.94211 0.00043
vn 0.91421 -0.40524 -0.00085
vn 0.98863 -0.15038 -0.00070
vn -0.26908 0.96312 0.00002
vn -0.46239 0.88668 0.00007
vn -0.93486 0.35500 -0.00030
vn -0.99242 0.12291 -0.00007
vn 0.83364 0.38870 0.39237
vn 0.49536 0.75949 0.42166
vn 0.37195 0.43151 0.82186
vn 0.63091 0.27931 0.72383
vn 0.62920 -0.06979 0.77410
vn 0.92494 -0.12639 0.35849
vn 0.25368 -0.01497 0.96717
vn -0.67109 0.09078 0.73580
vn -0.30426 0.04828 0.95137
vn -0.25031 0.53575 0.80642
vn -0.55330 0.45269 0.69924
vn -0.25592 0.86865 0.42420
vn -0.69596 0.60548 0.38605
vn -0.93333 0.11941 0.33859
vn 0.87376 -0.34998 0.33774
vn 0.50121 -0.44091 0.74457
vn 0.15862 -0.50508 0.84837
vn 0.10964 -0.88278 0.45681
vn 0.30565 -0.85393 0.42117
vn -0.84844 -0.37879 0.36969
vn -0.67474 -0.28050 0.68268
vn -0.51683 -0.74376 0.42392
vn -0.40470 -0.43587 0.80388
vn -0.23771 -0.85437 0.46211
vn -0.16297 -0.49558 0.85314
vn -0.11827 -0.87345 0.47233
vn -0.04144 -0.50220 0.86376
vn -0.07372 0.02565 0.99695
vn 0.06303 0.01258 0.99793
vn 0.14467 0.50768 0.84931
vn -0.01607 0.53631 0.84387
vn 0.19649 0.87486 0.44273
vn 0.00803 0.89650 0.44297
vn -0.05036 -0.68606 -0.72580
vn 0.20638 -0.53042 -0.82223
vn 0.43469 -0.79857 -0.41632
vn -0.05190 -0.92005 -0.38836
vn -0.55231 -0.75573 -0.35188
vn -0.36212 -0.51925 -0.77411
vn -0.13269 -0.20771 -0.96915
vn 0.66077 0.26374 -0.70273
vn 0.58785 -0.04147 -0.80790
vn 0.18240 0.23895 -0.95375
vn 0.39926 0.54298 -0.73876
vn 0.86637 0.31866 -0.38453
vn 0.88583 -0.19325 -0.42186
vn 0.55342 0.76201 -0.33627
vn -0.63185 -0.23025 -0.74010
vn -0.72334 -0.60940 -0.32466
vn -0.51907 0.10893 -0.84776
vn -0.89745 0.15017 -0.41478
vn -0.82780 0.33036 -0.45344
vn 0.07008 0.72966 -0.68021
vn 0.06901 0.92877 -0.36417
vn -0.19718 0.56299 -0.80260
vn -0.41220 0.80883 -0.41939
vn -0.63687 0.61731 -0.46188
vn -0.71994 0.69404 0.00036
vn -0.45235 0.89184 0.00020
vn 0.07209 0.99740 -0.00002
vn -0.35725 0.37985 -0.85328
vn -0.42112 0.27657 -0.86381
vn -0.71063 0.52122 -0.47259
vn 0.05729 0.05178 -0.99701
vn -0.01901 -0.06104 -0.99795
vn 0.47839 -0.24264 -0.84396
vn 0.37673 -0.36982 -0.84930
vn 0.78346 -0.43580 -0.44302
vn 0.67427 -0.59106 -0.44273
vn 0.87008 -0.49291 0.00001
vn 0.75772 -0.65257 -0.00004
vn 0.47858 -0.87804 0.00013
vn -0.06434 -0.99793 -0.00006
vn -0.92720 0.37457 0.00005
vn -0.80319 0.59572 -0.00011
vn -0.98773 0.15619 0.00043
vn -0.79317 -0.60900 -0.00085
vn -0.60495 -0.79626 -0.00070
vn 0.97450 -0.22440 0.00002
vn 0.99984 -0.01807 0.00007
vn 0.75894 0.65116 -0.00030
vn 0.58264 0.81273 -0.00007
vn -0.05742 -0.91801 0.39237
vn 0.43002 -0.79830 0.42166
vn 0.20103 -0.53304 0.82186
vn -0.05650 -0.68766 0.72383
vn -0.36226 -0.51916 0.77410
vn -0.55342 -0.75181 0.35848
vn -0.13449 -0.21562 0.96717
vn 0.40073 0.54591 0.73580
vn 0.18794 0.24410 0.95137
vn 0.59022 -0.03645 0.80642
vn 0.66220 0.26936 0.69924
vn 0.88525 -0.19077 0.42419
vn 0.86462 0.32155 0.38605
vn 0.55131 0.76251 0.33859
vn -0.72529 -0.59991 0.33774
vn -0.62694 -0.22925 0.74457
vn -0.51942 0.10230 0.84837
vn -0.82768 0.32598 0.45681
vn -0.89611 0.14005 0.42117
vn 0.07318 0.92627 0.36969
vn 0.07642 0.72671 0.68268
vn -0.40594 0.80963 0.42392
vn -0.18919 0.56389 0.80389
vn -0.63659 0.61742 0.46211
vn -0.35725 0.38017 0.85314
vn -0.71048 0.52166 0.47233
vn -0.42120 0.27661 0.86376
vn 0.05778 0.05247 0.99695
vn -0.01910 -0.06137 0.99793
vn 0.37664 -0.36989 0.84931
vn 0.47866 -0.24243 0.84387
vn 0.67429 -0.59103 0.44273
vn 0.78345 -0.43588 0.44297
f 1//1 5//2 6//3 7//4
f 1//1 7//4 8//5 9//6
f 1//1 9//6 10//7 5//2
f 2//8 11//9 12//10 13//11
f 2//8 14//12 15//13 11//9
f 2//8 13//11 16//14 14//12
f 3//15 9//6 8//5 17//16
f 3//15 18//17 10//7 9//6
f 3//15 17//18 19//19 18//17
f 4//20 20//21 16//14 13//11
f 4//20 21//22 22//23 20//21
f 4//20 13//11 12//10 21//22
f 22//23 23//24 43//25 24//26
f 22//23 24//26 25//27 20//21
f 22//23 21//22 26//28 23//24
f 26//28 27//29 28//30 23//24
f 26//28 21//22 12//10 29//31
f 26//28 29//31 30//32 27//29
f 30//32 10//7 18//17 27//29
f 30//32 29//31 31//33 32//34
f 30//32 32//34 5//2 10//7
f 32//34 31//33 33//35 34//36
f 32//34 34//36 6//3 5//2
f 34//36 33//35 44//37 35//38
f 34//36 35//38 36//39 6//3
f 36//39 37//40 7//4 6//3
f 38//41 45//42 28//30 19//19
f 38//41 19//19 17//18 39//43
f 39//44 17//16 8//5 40//45
f 40//45 8//5 7//4 37//40
f 45//42 43//25 23//24 28//30
f 46//46 44//37 33//35 15//13
f 46//46 15//13 14//12 41//47
f 41//48 14//12 16//14 42//49
f 42//49 16//14 20//21 25//27
f 33//35 31//33 11//9 15//13
f 31//33 29//31 12//10 11//9
f 28//30 27//29 18//17 19//19
f 53//50 52//51 51//52 47//53
f 55//54 54//55 53//50 47//53
f 51//52 56//56 55//54 47//53
f 59//57 58//58 57//59 48//60
f 57//59 61//61 60//62 48//60
f 60//62 62//63 59//57 48//60
f 63//64 54//55 55//54 49//65
f 55//54 56//56 64//66 49//65
f 64//66 65//67 63//68 49//65
f 59//57 62//63 66//69 50//70
f 66//69 68//71 67//72 50//70
f 67//72 58//58 59//57 50//70
f 24//26 43//25 69//73 68//71
f 66//69 25//27 24//26 68//71
f 69//73 70//74 67//72 68//71
f 69//73 72//75 71//76 70//74
f 73//77 58//58 67//72 70//74
f 71//76 74//78 73//77 70//74
f 71//76 64//66 56//56 74//78
f 76//79 75//80 73//77 74//78
f 56//56 51//52 76//79 74//78
f 78//81 77//82 75//80 76//79
f 51//52 52//51 78//81 76//79
f 35//38 44//37 77//82 78//81
f 52//51 36//39 35//38 78//81
f 52//51 53//50 37//40 36//39
f 65//67 72//75 45//42 38//41
f 39//43 63//68 65//67 38//41
f 40//45 54//55 63//64 39//44
f 37//40 53//50 54//55 40//45
f 72//75 69//73 43//25 45//42
f 61//61 77//82 44//37 46//46
f 41//47 60//62 61//61 46//46
f 42//49 62//63 60//62 41//48
f 25//27 66//69 62//63 42//49
f 61//61 57//59 75//80 77//82
f 57//59 58//58 73//77 75//80
f 65//67 64//66 71//76 72//75
f 79//83 83//84 84//85 85//86
f 79//83 85//86 86//87 87//88
f 79//83 87//88 88//89 83//84
f 80//90 89//91 90//92 91//93
f 80//90 92//94 93//95 89//91
f 80//90 91//93 94//96 92//94
f 81//97 87//88 86//87 95//98
f 81//97 96//99 88//89 87//88
f 81//97 95//100 97//101 96//99
f 82//102 98//103 94//96 91//93
f 82//102 99//104 100//105 98//103
f 82//102 91//93 90//92 99//104
f 100//105 101//106 121//107 102//108
f 100//105 102//108 103//109 98//103
f 100//105 99//104 104//110 101//106
f 104//110 105//111 106//112 101//106
f 104//110 99//104 90//92 107//113
f 104//110 107//113 108//114 105//111
f 108//114 88//89 96//99 105//111
f 108//114 107//113 109//115 110//116
f 108//114 110//116 83//84 88//89
f 110//116 109//115 111//117 112//118
f 110//116 112//118 84//85 83//84
f 112//118 111//117 122//119 113//120
f 112//118 113//120 114//121 84//85
f 114//121 115//122 85//86 84//85
f 116//123 123//124 106//112 97//101
f 116//123 97//101 95//100 117//125
f 117//126 95//98 86//87 118//127
f 118//127 86//87 85//86 115//122
f 123//124 121//107 101//106 106//112
f 124//128 122//119 111//117 93//95
f 124//128 93//95 92//94 119//129
f 119//130 92//94 94//96 120//131
f 120//131 94//96 98//103 103//109
f 111//117 109//115 89//91 93//95
f 109//115 107//113 90//92 89//91
f 106//112 105//111 96//99 97//101
f 131//132 130//133 129//134 125//135
f 133//136 132//137 131//132 125//135
f 129//134 134//138 133//136 125//135
f 137//139 136//140 135//141 126//142
f 135//141 139//143 138//144 126//142
f 138//144 140//145 137//139 126//142
f 141//146 132//137 133//136 127//147
f 133//136 134//138 142//148 127//147
f 142//148 143//149 141//150 127//147
f 137//139 140//145 144//151 128//152
f 144//151 146//153 145//154 128//152
f 145//154 136//140 137//139 128//152
f 102//108 121//107 147//155 146//153
f 144//151 103//109 102//108 146//153
f 147//155 148//156 145//154 146//153
f 147//155 150//157 149//158 148//156
f 151//159 136//140 145//154 148//156
f 149//158 152//160 151//159 148//156
f 149//158 142//148 134//138 152//160
f 154//161 153//162 151//159 152//160
f 134//138 129//134 154//161 152//160
f 156//163 155//164 153//162 154//161
f 129//134 130//133 156//163 154//161
f 113//120 122//119 155//164 156//163
f 130//133 114//121 113//120 156//163
f 130//133 131//132 115//122 114//121
f 143//149 150//157 123//124 116//123
f 117//125 141//150 143//149 116//123
f 118//127 132//137 141//146 117//126
f 115//122 131//132 132//137 118//127
f 150//157 147//155 121//107 123//124
f 139//143 155//164 122//119 124//128
f 119//129 138//144 139//143 124//128
f 120//131 140//145 138//144 119//130
f 103//109 144//151 140//145 120//131
f 139//143 135//141 153//162 155//164
f 135//141 136//140 151//159 153//162
f 143//149 142//148 149//158 150//157
