# pilowlava3D glyph ',' variant 1 — Vincent Wagner / Velvetyne, Free Art License
v 0.10450 0.44921 0.18294
v 0.26604 1.20422 0.20081
v 0.23112 1.00565 0.19491
v 0.18646 0.81495 0.18937
v 0.14524 0.62797 0.18348
v 0.28101 0.78762 0.35713
v 0.22676 0.59380 0.34109
v 0.31745 0.54043 0.42213
v 0.29189 0.30318 0.37887
v 0.22506 0.35209 0.38455
v 0.16432 0.40383 0.32424
v 0.12537 0.16273 0.32132
v 0.05787 0.03327 0.16732
v 0.35488 0.26160 0.31222
v 0.40294 0.22592 0.17476
v 0.55028 0.35132 0.18840
v 0.69517 0.47785 0.20137
v 0.40833 0.48054 0.42701
v 0.49217 0.41631 0.35086
v 0.62546 0.56657 0.37829
v 0.39926 0.73279 0.45250
v 0.51700 0.65748 0.46335
v 0.62711 0.84521 0.49494
v 0.38804 1.18481 0.37863
v 0.33985 0.98520 0.37183
v 0.48871 0.93406 0.47778
v 0.57614 1.13816 0.48918
v 0.86987 1.20746 0.49477
v 0.74213 1.03855 0.51344
v 1.01673 1.00277 0.44521
v 0.88383 0.86231 0.43732
v 0.75229 0.71726 0.40982
v 0.97194 0.71457 0.24296
v 0.83304 0.60075 0.21865
v 1.11804 0.82271 0.26311
v 1.04774 1.48889 0.22550
v 0.98477 1.35909 0.40718
v 1.24628 1.30273 0.23575
v 0.02406 0.18292 -0.13207
v 0.55668 1.50856 -0.32139
v 0.03274 0.30734 0.00000
v 0.06071 0.28077 -0.17151
v 0.08779 0.21838 -0.27557
v 0.02122 0.10653 -0.16585
v 0.25487 0.13968 -0.25054
v 0.25125 0.09170 -0.14575
v 0.13861 0.01390 -0.15286
v 0.18027 0.12686 -0.30343
v 0.52749 1.57268 -0.19265
v 0.78465 1.58009 -0.20686
v 0.74477 1.48030 -0.37169
v 0.66152 1.32961 -0.46861
v 0.45065 1.38688 -0.36600
v 0.32831 1.42101 -0.20155
v 1.30939 1.12893 -0.19766
v 1.25386 0.98003 -0.25315
v 1.14897 1.15714 -0.40301
v 1.24628 1.30273 -0.23575
v 0.98477 1.35909 -0.40718
v 1.04774 1.48889 -0.22550
v 1.06167 1.52452 0.00000
v 1.27214 1.34354 0.00000
v 1.16028 0.76093 0.00000
v 1.11804 0.82271 -0.26311
v 1.00963 0.65599 0.00000
v 0.83304 0.60075 -0.21865
v 0.97194 0.71457 -0.24296
v 0.75229 0.71726 -0.40982
v 0.88383 0.86231 -0.43732
v 1.01673 1.00277 -0.44521
v 0.74213 1.03855 -0.51344
v 0.86987 1.20746 -0.49477
v 0.57614 1.13816 -0.48918
v 0.48871 0.93406 -0.47778
v 0.33985 0.98520 -0.37183
v 0.38804 1.18481 -0.37863
v 0.62711 0.84521 -0.49494
v 0.51700 0.65748 -0.46335
v 0.39926 0.73279 -0.45250
v 0.62546 0.56657 -0.37829
v 0.49217 0.41631 -0.35086
v 0.40833 0.48054 -0.42701
v 0.69517 0.47785 -0.20137
v 0.55028 0.35132 -0.18840
v 0.40294 0.22592 -0.17476
v 0.35488 0.26160 -0.31222
v 0.26218 0.07812 0.00000
v 0.14409 0.00000 0.00000
v 0.05787 0.03327 -0.16732
v 0.12537 0.16273 -0.32132
v 0.16432 0.40383 -0.32424
v 0.22506 0.35209 -0.38455
v 0.29189 0.30318 -0.37887
v 0.31745 0.54043 -0.42213
v 0.22676 0.59380 -0.34109
v 0.28101 0.78762 -0.35713
v 0.14524 0.62797 -0.18348
v 0.18646 0.81495 -0.18937
v 0.23112 1.00565 -0.19491
v 0.18343 1.01527 0.00000
v 0.26604 1.20422 -0.20081
v 0.51658 1.59736 0.00000
v 0.79315 1.60859 0.00000
v 0.06572 0.46154 0.00000
v 0.10450 0.44921 -0.18294
v 1.14897 1.15714 0.40301
v 1.25386 0.98003 0.25315
v 1.30939 1.12893 0.19766
v 0.32831 1.42101 0.20155
v 0.45065 1.38688 0.36600
v 0.66152 1.32961 0.46861
v 0.74477 1.48030 0.37169
v 0.78465 1.58009 0.20686
v 0.00295 0.17295 0.00000
v 0.00000 0.08670 0.00000
v 1.33851 1.11782 0.00000
v 1.28957 0.91498 0.00000
v 0.86417 0.55066 0.00000
v 0.71790 0.43524 0.00000
v 0.56869 0.31765 0.00000
v 0.41840 0.20143 0.00000
v 0.05066 0.01179 0.00000
v 0.14343 0.82443 0.00000
v 0.21825 1.21642 0.00000
v 0.29081 1.43814 0.00000
v 0.10414 0.63753 0.00000
v 0.52749 1.57268 0.19265
v 0.18027 0.12686 0.30343
v 0.13861 0.01390 0.15286
v 0.25125 0.09170 0.14575
v 0.25487 0.13968 0.25054
v 0.02122 0.10653 0.16585
v 0.08779 0.21838 0.27557
v 0.06071 0.28077 0.17151
v 0.55668 1.50856 0.32139
v 0.02406 0.18292 0.13207
vn 0.12885 0.92720 0.35172
vn 0.04368 0.69251 0.72009
vn 0.33237 0.49287 0.80412
vn 0.46541 0.78153 0.41545
vn 0.52518 -0.70870 0.47109
vn 0.58161 -0.77486 0.24764
vn 0.61608 -0.73803 0.27524
vn 0.51934 -0.64350 0.56230
vn 0.61483 -0.78866 -0.00005
vn 0.55940 -0.70612 0.43412
vn 0.59426 -0.70479 0.38746
vn 0.63332 -0.77389 -0.00009
vn -0.91208 0.20627 0.35434
vn -0.90657 0.19925 0.37206
vn -0.97767 0.21014 0.00001
vn -0.97722 0.21222 0.00002
vn -0.93263 0.22231 0.28422
vn -0.83675 0.07418 0.54254
vn -0.77783 0.17618 0.60328
vn -0.91970 0.22050 0.32485
vn -0.74844 0.16952 0.64117
vn -0.97098 0.23917 0.00177
vn -0.97536 0.22060 -0.00034
vn 0.49723 0.86762 -0.00016
vn 0.13675 0.99061 -0.00009
vn -0.31181 0.88778 0.33856
vn -0.32737 0.94490 0.00045
vn -0.74818 0.53675 0.39004
vn -0.81307 0.58217 0.00033
vn -0.64593 0.19614 0.73777
vn -0.50283 0.45348 0.73587
vn -0.88731 0.21672 0.40709
vn -0.97285 0.23142 -0.00018
vn -0.69765 0.15648 0.69914
vn -0.90223 0.18224 0.39085
vn -0.98162 0.19087 0.00000
vn -0.37875 0.01871 0.92531
vn -0.34945 0.04913 0.93566
vn -0.72804 0.15955 0.66671
vn 0.13369 -0.31891 0.93831
vn 0.09505 -0.25488 0.96229
vn -0.38518 -0.00332 0.92284
vn -0.38814 -0.06992 0.91894
vn 0.20073 -0.66830 0.71629
vn 0.18102 -0.42984 0.88457
vn 0.48957 -0.58139 0.64985
vn -0.10125 -0.55895 0.82300
vn -0.72999 -0.06840 0.68003
vn -0.17124 -0.90199 0.39636
vn -0.93519 -0.12736 0.33045
vn -0.83806 -0.38224 0.38929
vn -0.97335 -0.22932 0.00074
vn -0.86381 -0.50381 0.00166
vn 0.59846 -0.80115 -0.00017
vn 0.53679 -0.80505 0.25250
vn 0.56234 -0.82691 -0.00019
vn -0.17027 -0.98540 -0.00165
vn 0.62935 -0.77712 -0.00002
vn 0.62902 -0.77739 0.00004
vn 0.60495 -0.72184 0.33613
vn 0.45342 -0.53259 0.71467
vn 0.39546 -0.49512 0.77360
vn -0.95960 0.17525 -0.22011
vn -0.93109 0.22726 -0.28533
vn -0.83736 0.08093 -0.54063
vn -0.93798 -0.11965 -0.32540
vn -0.98706 0.16036 0.00200
vn 0.51402 -0.72021 -0.46592
vn 0.57091 -0.78186 -0.25053
vn 0.52175 -0.81542 -0.25073
vn 0.19500 -0.67720 -0.70949
vn -0.26068 0.73450 -0.62655
vn -0.31290 0.88946 -0.33309
vn 0.13311 0.92773 -0.34870
vn 0.04888 0.68998 -0.72218
vn -0.13615 0.35253 -0.92584
vn -0.50489 0.44950 -0.73691
vn -0.75074 0.53550 -0.38682
vn 0.93657 0.03310 -0.34892
vn 0.80648 -0.31848 -0.49815
vn 0.58683 0.09042 -0.80465
vn 0.78424 0.43344 -0.44395
vn 0.33458 0.49189 -0.80380
vn 0.46767 0.78090 -0.41410
vn 0.84097 0.54108 -0.00109
vn 0.99980 0.01978 -0.00209
vn 0.88719 -0.46141 -0.00112
vn 0.67411 -0.73863 0.00001
vn 0.59596 -0.61216 -0.51971
vn 0.58301 -0.81247 0.00002
vn 0.56069 -0.70453 -0.43505
vn 0.51941 -0.70575 -0.48180
vn 0.39700 -0.49256 -0.77445
vn 0.34986 -0.42200 -0.83637
vn 0.40462 -0.25035 -0.87955
vn 0.06682 -0.07991 -0.99456
vn 0.16119 0.14723 -0.97588
vn -0.28565 0.12646 -0.94995
vn -0.35102 0.04739 -0.93517
vn -0.69888 0.15461 -0.69833
vn -0.64642 0.19578 -0.73743
vn 0.06221 -0.19189 -0.97944
vn 0.09608 -0.25446 -0.96230
vn -0.37833 0.01945 -0.92547
vn 0.45377 -0.53280 -0.71429
vn 0.49209 -0.57787 -0.65109
vn 0.13497 -0.31655 -0.93892
vn 0.59417 -0.70480 -0.38757
vn 0.60532 -0.72131 -0.33660
vn 0.61362 -0.73842 -0.27965
vn 0.52077 -0.64403 -0.56038
vn -0.17571 -0.90193 -0.39453
vn -0.84757 -0.37123 -0.37921
vn -0.73753 -0.05715 -0.67289
vn -0.10641 -0.55838 -0.82273
vn -0.77640 0.17664 -0.60498
vn -0.38776 -0.06979 -0.91911
vn 0.18714 -0.43227 -0.88211
vn -0.38603 -0.00378 -0.92248
vn -0.74919 0.16892 -0.64046
vn -0.72812 0.15951 -0.66664
vn -0.91261 0.20544 -0.35346
vn -0.90659 0.19919 -0.37205
vn -0.90222 0.18216 -0.39092
vn -0.88710 0.21672 -0.40755
vn -0.91883 0.22137 -0.32671
vn 0.06196 -0.19270 0.97930
vn 0.34888 -0.42579 0.83486
vn 0.06644 -0.08346 0.99429
vn -0.28433 0.12738 0.95023
vn -0.13675 0.35752 0.92384
vn 0.16247 0.14694 0.97571
vn 0.59768 -0.61048 0.51971
vn 0.81644 -0.32046 0.48035
vn 0.60131 0.09054 0.79387
vn 0.40641 -0.24980 0.87888
vn 0.51930 -0.70588 0.48172
vn 0.94535 0.02918 0.32474
vn 0.79358 0.43210 0.42838
vn -0.26021 0.73535 0.62574
vn -0.96042 0.16825 0.22198
f 113//1 112//2 37//3 36//4
f 131//5 130//6 15//7 14//8
f 118//9 34//10 17//11 119//12
f 5//13 4//14 123//15 126//16
f 134//17 133//18 11//19 1//20
f 11//19 7//21 5//13 1//20
f 41//22 134//17 1//20 104//23
f 1//20 5//13 126//16 104//23
f 113//1 36//4 61//24 103//25
f 127//26 113//1 103//25 102//27
f 109//28 127//26 102//27 125//29
f 24//30 110//31 109//28 2//32
f 109//28 125//29 124//33 2//32
f 25//34 24//30 2//32 3//35
f 2//32 124//33 100//36 3//35
f 100//36 123//15 4//14 3//35
f 21//37 26//38 25//34 6//39
f 25//34 3//35 4//14 6//39
f 4//14 5//13 7//21 6//39
f 18//40 22//41 21//37 8//42
f 21//37 6//39 7//21 8//42
f 7//21 11//19 10//43 8//42
f 128//44 131//5 14//8 9//45
f 14//8 19//46 18//40 9//45
f 18//40 8//42 10//43 9//45
f 128//44 9//45 10//43 12//47
f 10//43 11//19 133//18 12//48
f 129//49 128//44 12//47 13//49
f 12//48 133//18 132//50 13//51
f 132//50 115//52 122//53 13//51
f 87//54 130//6 129//55 88//56
f 129//49 13//49 122//57 88//57
f 15//7 130//6 87//54 121//58
f 15//7 121//58 120//59 16//60
f 120//59 119//12 17//11 16//60
f 19//46 14//8 15//7 16//60
f 19//46 16//60 17//11 20//61
f 17//11 34//10 32//62 20//61
f 39//63 42//64 43//65 44//66
f 39//63 114//67 41//22 42//64
f 39//63 44//66 115//52 114//67
f 45//68 46//69 47//70 48//71
f 40//72 49//73 50//74 51//75
f 40//72 51//75 52//76 53//77
f 40//72 53//77 54//78 49//73
f 55//79 56//80 57//81 58//82
f 58//82 57//81 59//83 60//84
f 58//82 60//84 61//24 62//85
f 58//82 62//85 116//86 55//79
f 116//86 117//87 56//80 55//79
f 117//87 63//88 64//89 56//80
f 65//90 118//9 66//91 67//92
f 65//90 67//92 64//89 63//88
f 67//92 66//91 68//93 69//94
f 67//92 69//94 70//95 64//89
f 70//95 69//94 71//96 72//97
f 70//95 72//97 59//83 57//81
f 70//95 57//81 56//80 64//89
f 72//97 71//96 73//98 52//76
f 72//97 52//76 51//75 59//83
f 73//98 74//99 75//100 76//101
f 73//98 76//101 53//77 52//76
f 73//98 71//96 77//102 74//99
f 77//102 78//103 79//104 74//99
f 77//102 71//96 69//94 68//93
f 77//102 68//93 80//105 78//103
f 80//105 81//106 82//107 78//103
f 80//105 68//93 66//91 83//108
f 80//105 83//108 84//109 81//106
f 84//109 85//110 86//111 81//106
f 84//109 83//108 119//12 120//59
f 84//109 120//59 121//58 85//110
f 121//58 87//54 46//69 85//110
f 88//57 122//57 89//112 47//112
f 88//56 47//70 46//69 87//54
f 89//113 122//53 115//52 44//66
f 89//113 44//66 43//65 90//114
f 89//112 90//115 48//71 47//112
f 90//114 43//65 91//116 92//117
f 90//115 92//117 93//118 48//71
f 93//118 92//117 94//119 82//107
f 93//118 82//107 81//106 86//111
f 93//118 86//111 45//68 48//71
f 94//119 92//117 91//116 95//120
f 94//119 95//120 96//121 79//104
f 94//119 79//104 78//103 82//107
f 96//121 95//120 97//122 98//123
f 96//121 98//123 99//124 75//100
f 96//121 75//100 74//99 79//104
f 99//124 98//123 123//15 100//36
f 99//124 100//36 124//33 101//125
f 99//124 101//125 76//101 75//100
f 101//125 124//33 125//29 54//78
f 101//125 54//78 53//77 76//101
f 125//29 102//27 49//73 54//78
f 102//27 103//25 50//74 49//73
f 103//25 61//24 60//84 50//74
f 104//23 126//16 97//122 105//126
f 104//23 105//126 42//64 41//22
f 105//126 97//122 95//120 91//116
f 105//126 91//116 43//65 42//64
f 126//16 123//15 98//123 97//122
f 119//12 83//108 66//91 118//9
f 86//111 85//110 46//69 45//68
f 60//84 59//83 51//75 50//74
f 22//41 18//40 19//46 20//61
f 22//41 20//61 32//62 23//127
f 32//62 31//128 29//129 23//127
f 26//38 21//37 22//41 23//127
f 26//38 23//127 29//129 27//130
f 111//131 110//31 24//30 27//130
f 24//30 25//34 26//38 27//130
f 37//3 112//2 111//131 28//132
f 111//131 27//130 29//129 28//132
f 35//133 107//134 106//135 30//136
f 106//135 37//3 28//132 30//136
f 28//132 29//129 31//128 30//136
f 35//133 30//136 31//128 33//137
f 31//128 32//62 34//10 33//137
f 63//88 35//133 33//137 65//90
f 33//137 34//10 118//9 65//90
f 107//134 35//133 63//88 117//87
f 108//138 107//134 117//87 116//86
f 108//138 116//86 62//85 38//139
f 62//85 61//24 36//4 38//139
f 36//4 37//3 106//135 38//139
f 38//139 106//135 107//134 108//138
f 127//26 109//28 110//31 135//140
f 110//31 111//131 112//2 135//140
f 112//2 113//1 127//26 135//140
f 128//44 129//55 130//6 131//5
f 114//67 115//52 132//50 136//141
f 134//17 41//22 114//67 136//141
f 132//50 133//18 134//17 136//141
