# pilowlava3D glyph 'd' variant 1 — Vincent Wagner / Velvetyne, Free Art License
v 0.97076 3.55636 -0.45280
v 0.15462 3.67686 -0.35789
v 0.27250 4.18238 -0.34212
v 0.67648 3.57042 -0.49418
v 1.12756 3.42035 -0.23012
v 1.00718 3.26074 -0.19159
v 0.91731 3.27941 -0.32943
v 0.91212 3.90237 -0.53651
v 1.17375 3.93616 -0.52791
v 1.23755 3.68717 -0.44919
v 0.66790 3.92077 -0.54320
v 0.81990 3.28380 -0.36047
v 0.15437 3.82718 -0.38877
v 0.37630 3.72527 -0.49561
v 0.32531 3.55227 -0.40555
v 0.07776 3.62995 -0.21473
v 0.03476 3.85159 -0.21036
v 0.27513 3.41544 -0.22031
v 0.22492 4.25328 -0.20976
v 0.44721 4.33977 -0.22194
v 0.44045 4.19745 -0.40174
v 0.41252 3.97703 -0.49969
v 0.20257 4.03077 -0.38344
v 0.08521 4.07022 -0.20901
v 0.76625 3.26771 -0.30686
v 0.58146 3.43863 -0.39329
v 0.70773 3.23933 -0.17007
v 0.52345 3.32952 -0.20263
v 0.69151 3.22430 -0.00000
v 0.25827 3.37974 -0.00000
v 0.00000 3.85146 -0.00000
v 0.05038 4.08264 -0.00000
v 0.68076 4.32757 -0.22435
v 0.91437 4.38890 -0.00000
v 0.91152 4.31930 -0.22863
v 0.90387 4.15647 -0.42649
v 0.67378 4.17024 -0.42259
v 1.15299 4.32407 -0.23112
v 1.15302 4.16589 -0.42597
v 1.40165 4.33106 -0.22841
v 1.41075 4.18132 -0.41975
v 1.43674 3.96721 -0.51854
v 1.66131 4.20077 -0.41287
v 1.68809 3.99338 -0.50582
v 1.72194 3.78026 -0.43111
v 1.48034 3.74458 -0.44617
v 1.74929 3.63743 -0.23620
v 1.52419 3.59438 -0.24245
v 1.31310 3.52953 -0.24376
v 1.16815 3.38524 -0.00000
v 1.03413 3.24837 -0.00000
v 1.98974 3.61833 -0.00000
v 2.22103 3.66225 -0.00000
v 1.97962 3.67925 -0.22636
v 2.21198 3.71975 -0.21865
v 1.95943 3.81198 -0.41746
v 2.19614 3.84432 -0.40429
v 2.43307 3.87802 -0.39280
v 2.44408 3.75980 -0.21216
v 2.45080 3.70586 -0.00000
v 2.67184 3.79678 -0.20756
v 2.67547 3.74684 -0.00000
v 1.15592 4.39129 -0.00000
v 1.64923 4.40910 -0.00000
v 1.65081 4.34285 -0.22408
v 1.89905 4.41632 -0.00000
v 1.89981 4.35433 -0.22008
v 1.90966 4.22063 -0.40695
v 2.14868 4.35998 -0.21487
v 2.15631 4.23440 -0.39817
v 2.17523 4.04055 -0.48433
v 1.93277 4.01878 -0.49623
v 2.40361 4.24564 -0.39093
v 2.41795 4.06151 -0.47132
v 2.65440 4.25486 -0.38709
v 2.66178 4.08021 -0.45845
v 2.66796 3.90940 -0.38403
v 2.90599 4.08934 -0.44019
v 2.89896 3.93371 -0.37223
v 2.89177 3.82725 -0.20253
v 3.12331 3.93370 -0.35483
v 3.10113 3.83696 -0.19530
v 3.09142 3.80580 -0.00000
v 2.88985 3.78407 -0.00000
v 2.14903 4.41797 -0.00000
v 2.39829 4.36654 -0.21157
v 2.65340 4.37012 -0.21070
v 2.92042 4.35799 -0.21012
v 2.91316 4.24966 -0.38017
v 3.20251 4.30404 -0.20703
v 3.17996 4.20669 -0.36781
v 3.15028 4.06729 -0.41738
v 3.43870 4.10582 -0.35444
v 3.38496 3.99289 -0.39609
v 3.33749 3.88583 -0.33910
v 3.59270 3.85689 -0.38306
v 3.52267 3.77671 -0.32859
v 3.47028 3.71759 -0.18258
v 3.29845 3.80579 -0.18780
v 3.20868 4.34022 -0.00000
v 3.49016 4.21891 -0.00000
v 3.47810 4.18958 -0.20272
v 3.72416 4.01012 -0.19885
v 3.66766 3.94357 -0.34231
v 3.92020 3.77488 -0.19927
v 3.84941 3.73211 -0.33969
v 3.75281 3.67152 -0.37872
v 3.96997 3.48196 -0.35214
v 3.85526 3.44887 -0.39458
v 3.74324 3.41323 -0.33922
v 3.66176 3.61294 -0.32740
v 3.66144 3.38392 -0.18879
v 3.59768 3.56995 -0.18290
v 3.63609 3.37410 -0.00000
v 4.08637 3.51283 -0.00000
v 4.05434 3.50497 -0.20177
v 4.17691 3.22808 -0.00000
v 4.13498 3.22333 -0.20962
v 4.03342 3.21564 -0.37210
v 4.18140 2.94821 -0.22198
v 4.06273 2.95042 -0.39761
v 3.89827 2.95902 -0.46259
v 3.89875 3.20529 -0.42483
v 3.73783 2.96540 -0.39159
v 3.76693 3.19349 -0.36092
v 3.61802 2.97397 -0.21577
v 3.66323 3.18105 -0.20174
v 3.62224 3.17886 -0.00000
v 4.23358 2.95076 -0.00000
v 4.19727 2.68255 -0.23088
v 4.27345 2.42347 -0.00000
v 2.99240 1.55933 -0.00000
v 3.24102 1.92327 -0.26260
v 3.16327 1.71827 -0.26392
v 3.08172 1.51815 -0.26138
v 3.34700 1.63786 -0.48594
v 3.26519 1.43369 -0.48194
v 3.17127 1.23765 -0.47339
v 2.99478 1.32397 -0.25654
v 2.90923 1.36149 -0.00000
v 2.90543 1.13226 -0.24964
v 2.82624 1.16661 -0.00000
v 4.27224 2.16069 -0.00000
v 4.17347 1.90118 -0.25520
v 4.19337 2.16431 -0.24847
v 4.20330 2.42336 -0.24152
v 4.02928 2.18293 -0.45573
v 4.05378 2.43546 -0.44305
v 4.06493 2.69040 -0.42046
v 3.83716 2.47058 -0.52770
v 3.87290 2.71368 -0.49618
v 3.62092 2.51477 -0.44008
v 3.68352 2.74068 -0.41794
v 3.47610 2.55374 -0.24036
v 3.54852 2.76626 -0.22878
v 3.48748 2.78432 -0.00000
v 3.39841 2.34189 -0.25154
v 3.32070 2.13158 -0.25772
v 3.55798 2.28977 -0.45902
v 3.49080 2.06701 -0.47450
v 3.42211 1.84945 -0.48162
v 3.74232 1.99319 -0.56643
v 3.68358 1.76037 -0.57326
v 3.61295 1.53171 -0.57864
v 3.94696 1.68220 -0.47839
v 3.87784 1.43413 -0.48259
v 3.78218 1.18933 -0.48329
v 3.52519 1.31130 -0.57776
v 3.65368 0.95724 -0.47560
v 3.41597 1.10220 -0.56569
v 3.48911 0.74781 -0.46383
v 3.28363 0.90648 -0.55104
v 3.06386 1.04868 -0.45976
v 3.12815 0.72221 -0.52563
v 2.94753 0.86040 -0.44021
v 2.81145 0.94158 -0.24102
v 2.82344 0.67152 -0.41338
v 2.71256 0.75591 -0.23083
v 2.74284 0.97476 -0.00000
v 4.02886 1.05854 -0.00000
v 4.14226 1.33295 -0.00000
v 3.95710 1.09963 -0.26608
v 4.06143 1.36555 -0.26373
v 4.13306 1.63410 -0.26067
v 3.99553 1.93211 -0.46837
v 3.79276 2.23036 -0.54890
v 3.80677 0.85004 -0.26271
v 3.61514 0.63011 -0.25747
v 3.42826 0.40279 -0.00000
v 3.39162 0.45361 -0.24782
v 3.29192 0.56744 -0.44631
v 3.15247 0.31078 -0.23400
v 3.07446 0.41252 -0.41967
v 2.95355 0.54714 -0.48385
v 2.83419 0.28358 -0.38130
v 2.75546 0.38950 -0.43110
v 2.67591 0.49320 -0.37281
v 2.53973 0.26896 -0.38277
v 2.49749 0.35563 -0.32682
v 2.46571 0.42748 -0.17932
v 2.60610 0.58117 -0.20956
v 2.45689 0.45009 -0.00000
v 2.89788 0.20189 -0.21372
v 2.64667 0.08894 -0.00000
v 2.62873 0.11817 -0.19027
v 2.58696 0.18231 -0.33598
v 2.35925 0.05712 -0.17070
v 2.33807 0.11040 -0.29680
v 2.31256 0.18819 -0.33890
v 2.08158 0.07306 -0.28253
v 2.07975 0.15161 -0.32187
v 2.07700 0.22454 -0.27545
v 2.29446 0.26497 -0.28888
v 2.07494 0.26904 -0.15236
v 2.28457 0.31645 -0.15827
v 2.28524 0.32818 -0.00000
v 2.36694 0.03668 -0.00000
v 2.08085 0.02864 -0.16130
v 1.78398 0.00000 -0.00000
v 1.79530 0.02549 -0.17510
v 1.81840 0.07983 -0.30843
v 1.50199 0.04634 -0.20212
v 1.55215 0.12511 -0.35687
v 1.60523 0.22310 -0.40917
v 1.84209 0.16104 -0.35343
v 1.65768 0.32638 -0.35134
v 1.85904 0.24411 -0.30126
v 1.69698 0.41043 -0.19238
v 1.86745 0.30278 -0.16427
v 1.86851 0.31637 -0.00000
v 1.48272 0.01490 -0.00000
v 1.20714 0.11615 -0.22731
v 1.37572 1.30890 -0.00000
v 1.31993 1.51079 -0.00000
v 1.26051 1.71571 -0.00000
v 1.28885 1.28317 -0.25376
v 1.23499 1.48466 -0.25238
v 1.17915 1.69046 -0.24611
v 1.04924 1.43108 -0.46422
v 1.00606 1.64713 -0.45458
v 0.97013 1.86797 -0.44030
v 1.12914 1.90085 -0.24005
v 1.20466 1.92318 -0.00000
v 1.08379 2.11501 -0.23106
v 0.31759 0.97523 -0.00000
v 0.43137 0.67548 -0.00000
v 0.62815 0.40633 -0.00000
v 0.49635 0.70854 -0.26412
v 0.67603 0.44861 -0.25655
v 0.92427 0.24815 -0.24416
v 0.81460 0.55477 -0.45914
v 1.02586 0.35951 -0.43524
v 1.28008 0.21654 -0.40259
v 1.17700 0.50654 -0.50886
v 1.37583 0.33968 -0.46324
v 1.34505 0.63658 -0.42887
v 1.47985 0.46027 -0.39841
v 1.47699 0.71792 -0.23974
v 1.56784 0.55293 -0.22172
v 1.40875 0.90009 -0.24872
v 1.34947 1.08750 -0.25421
v 1.24858 0.82372 -0.45266
v 1.16912 1.01874 -0.46682
v 1.10349 1.22149 -0.47026
v 0.91703 0.90980 -0.55901
v 0.83848 1.13472 -0.56471
v 0.78560 1.36781 -0.55671
v 0.57315 1.05191 -0.47669
v 0.52237 1.31774 -0.47231
v 0.50490 1.58162 -0.46010
v 0.75421 1.60702 -0.54665
v 0.51268 1.84358 -0.44553
v 0.74258 1.84815 -0.52717
v 0.55370 2.09912 -0.42437
v 0.75029 2.09154 -0.50105
v 0.94407 2.09650 -0.42492
v 0.76944 2.33904 -0.46251
v 0.92002 2.33134 -0.39690
v 1.03667 2.33421 -0.22133
v 0.90650 2.57190 -0.35801
v 0.99657 2.56013 -0.20146
v 1.03808 2.55900 -0.00000
v 1.09290 2.34785 -0.00000
v 0.26072 1.57600 -0.00000
v 0.26447 1.27881 -0.00000
v 0.33670 1.57570 -0.25130
v 0.34154 1.28892 -0.26042
v 0.39241 0.99652 -0.26446
v 0.66821 0.79346 -0.47251
v 1.02744 0.69672 -0.54234
v 0.35645 1.85246 -0.24610
v 0.41983 2.11470 -0.23367
v 0.44741 2.37081 -0.00000
v 0.49446 2.36104 -0.22168
v 0.61354 2.34895 -0.40099
v 0.58519 2.59466 -0.20186
v 0.67759 2.59215 -0.36202
v 0.79280 2.58369 -0.41398
v 0.73892 2.82672 -0.30704
v 0.82262 2.81910 -0.35825
v 0.90352 2.80603 -0.30644
v 0.84978 3.04645 -0.31789
v 0.90889 3.03915 -0.27950
v 0.95277 3.03225 -0.16449
v 0.96007 2.79460 -0.17305
v 0.98270 2.78718 -0.00000
v 0.54810 2.60101 -0.00000
v 0.68034 2.82795 -0.17759
v 0.74179 3.04905 -0.00000
v 0.75221 3.05204 -0.16559
v 0.79134 3.05192 -0.27313
v 0.50882 3.29761 -0.00000
v 0.05006 3.60179 -0.00000
v 0.20152 4.28684 -0.00000
v 0.44118 4.39325 -0.00000
v 0.68135 4.39536 -0.00000
v 1.54434 3.53141 -0.00000
v 1.34201 3.47431 -0.00000
v 1.76271 3.57444 -0.00000
v 1.40065 4.39793 -0.00000
v 2.39891 4.42035 -0.00000
v 2.65596 4.41897 -0.00000
v 2.92479 4.40024 -0.00000
v 3.45695 3.70313 -0.00000
v 3.28461 3.78366 -0.00000
v 3.74279 4.03237 -0.00000
v 3.58213 3.55938 -0.00000
v 3.94425 3.78952 -0.00000
v 3.56594 2.98541 -0.00000
v 4.25995 2.68449 -0.00000
v 3.07471 1.75931 -0.00000
v 3.15676 1.96175 -0.00000
v 4.25839 1.89118 -0.00000
v 3.40744 2.58015 -0.00000
v 3.32362 2.37332 -0.00000
v 3.24090 2.16764 -0.00000
v 2.65896 0.78880 -0.00000
v 3.86636 0.80288 -0.00000
v 4.21796 1.61390 -0.00000
v 3.66296 0.58026 -0.00000
v 2.57484 0.61254 -0.00000
v 3.18003 0.26661 -0.00000
v 2.91858 0.16430 -0.00000
v 2.07549 0.27764 -0.00000
v 2.07845 0.00958 -0.00000
v 1.71012 0.43300 -0.00000
v 1.18043 0.07687 -0.00000
v 1.43384 1.11488 -0.00000
v 1.14901 2.13270 -0.00000
v 0.88793 0.20409 -0.00000
v 1.54377 0.74823 -0.00000
v 1.60700 0.58446 -0.00000
v 1.48805 0.92656 -0.00000
v 0.29399 1.86210 -0.00000
v 0.36229 2.12742 -0.00000
v 0.96402 3.02815 -0.00000
v 0.65657 2.82893 -0.00000
v 0.97076 3.55636 0.45280
v 0.15462 3.67686 0.35789
v 0.27250 4.18238 0.34212
v 0.67648 3.57042 0.49418
v 1.12756 3.42035 0.23012
v 1.00718 3.26074 0.19159
v 0.91731 3.27941 0.32943
v 0.91212 3.90237 0.53651
v 1.17375 3.93616 0.52791
v 1.23755 3.68717 0.44919
v 0.66790 3.92077 0.54320
v 0.81990 3.28380 0.36047
v 0.15437 3.82718 0.38877
v 0.37630 3.72527 0.49561
v 0.32531 3.55227 0.40555
v 0.07776 3.62995 0.21473
v 0.03476 3.85159 0.21036
v 0.27513 3.41544 0.22031
v 0.22492 4.25328 0.20976
v 0.44721 4.33977 0.22194
v 0.44045 4.19745 0.40174
v 0.41252 3.97703 0.49969
v 0.20257 4.03077 0.38344
v 0.08521 4.07022 0.20901
v 0.76625 3.26771 0.30686
v 0.58146 3.43863 0.39329
v 0.70773 3.23933 0.17007
v 0.52345 3.32952 0.20263
v 0.68076 4.32757 0.22435
v 0.91152 4.31930 0.22863
v 0.90387 4.15647 0.42649
v 0.67378 4.17024 0.42259
v 1.15299 4.32407 0.23112
v 1.15302 4.16589 0.42597
v 1.40165 4.33106 0.22841
v 1.41075 4.18132 0.41975
v 1.43674 3.96721 0.51854
v 1.66131 4.20077 0.41287
v 1.68809 3.99338 0.50582
v 1.72194 3.78026 0.43111
v 1.48034 3.74458 0.44617
v 1.74929 3.63743 0.23620
v 1.52419 3.59438 0.24245
v 1.31310 3.52953 0.24376
v 1.97962 3.67925 0.22636
v 2.21198 3.71975 0.21865
v 1.95943 3.81198 0.41746
v 2.19614 3.84432 0.40429
v 2.43307 3.87802 0.39280
v 2.44408 3.75980 0.21216
v 2.67184 3.79678 0.20756
v 1.65081 4.34285 0.22408
v 1.89981 4.35433 0.22008
v 1.90966 4.22063 0.40695
v 2.14868 4.35998 0.21487
v 2.15631 4.23440 0.39817
v 2.17523 4.04055 0.48433
v 1.93277 4.01878 0.49623
v 2.40361 4.24564 0.39093
v 2.41795 4.06151 0.47132
v 2.65440 4.25486 0.38709
v 2.66178 4.08021 0.45845
v 2.66796 3.90940 0.38403
v 2.90599 4.08934 0.44019
v 2.89896 3.93371 0.37223
v 2.89177 3.82725 0.20253
v 3.12331 3.93370 0.35483
v 3.10113 3.83696 0.19530
v 2.39829 4.36654 0.21157
v 2.65340 4.37012 0.21070
v 2.92042 4.35799 0.21012
v 2.91316 4.24966 0.38017
v 3.20251 4.30404 0.20703
v 3.17996 4.20669 0.36781
v 3.15028 4.06729 0.41738
v 3.43870 4.10582 0.35444
v 3.38496 3.99289 0.39609
v 3.33749 3.88583 0.33910
v 3.59270 3.85689 0.38306
v 3.52267 3.77671 0.32859
v 3.47028 3.71759 0.18258
v 3.29845 3.80579 0.18780
v 3.47810 4.18958 0.20272
v 3.72416 4.01012 0.19885
v 3.66766 3.94357 0.34231
v 3.92020 3.77488 0.19927
v 3.84941 3.73211 0.33969
v 3.75281 3.67152 0.37872
v 3.96997 3.48196 0.35214
v 3.85526 3.44887 0.39458
v 3.74324 3.41323 0.33922
v 3.66176 3.61294 0.32740
v 3.66144 3.38392 0.18879
v 3.59768 3.56995 0.18290
v 4.05434 3.50497 0.20177
v 4.13498 3.22333 0.20962
v 4.03342 3.21564 0.37210
v 4.18140 2.94821 0.22198
v 4.06273 2.95042 0.39761
v 3.89827 2.95902 0.46259
v 3.89875 3.20529 0.42483
v 3.73783 2.96540 0.39159
v 3.76693 3.19349 0.36092
v 3.61802 2.97397 0.21577
v 3.66323 3.18105 0.20174
v 4.19727 2.68255 0.23088
v 3.24102 1.92327 0.26260
v 3.16327 1.71827 0.26392
v 3.08172 1.51815 0.26138
v 3.34700 1.63786 0.48594
v 3.26519 1.43369 0.48194
v 3.17127 1.23765 0.47339
v 2.99478 1.32397 0.25654
v 2.90543 1.13226 0.24964
v 4.17347 1.90118 0.25520
v 4.19337 2.16431 0.24847
v 4.20330 2.42336 0.24152
v 4.02928 2.18293 0.45573
v 4.05378 2.43546 0.44305
v 4.06493 2.69040 0.42046
v 3.83716 2.47058 0.52770
v 3.87290 2.71368 0.49618
v 3.62092 2.51477 0.44008
v 3.68352 2.74068 0.41794
v 3.47610 2.55374 0.24036
v 3.54852 2.76626 0.22878
v 3.39841 2.34189 0.25154
v 3.32070 2.13158 0.25772
v 3.55798 2.28977 0.45902
v 3.49080 2.06701 0.47450
v 3.42211 1.84945 0.48162
v 3.74232 1.99319 0.56643
v 3.68358 1.76037 0.57326
v 3.61295 1.53171 0.57864
v 3.94696 1.68220 0.47839
v 3.87784 1.43413 0.48259
v 3.78218 1.18933 0.48329
v 3.52519 1.31130 0.57776
v 3.65368 0.95724 0.47560
v 3.41597 1.10220 0.56569
v 3.48911 0.74781 0.46383
v 3.28363 0.90648 0.55104
v 3.06386 1.04868 0.45976
v 3.12815 0.72221 0.52563
v 2.94753 0.86040 0.44021
v 2.81145 0.94158 0.24102
v 2.82344 0.67152 0.41338
v 2.71256 0.75591 0.23083
v 3.95710 1.09963 0.26608
v 4.06143 1.36555 0.26373
v 4.13306 1.63410 0.26067
v 3.99553 1.93211 0.46837
v 3.79276 2.23036 0.54890
v 3.80677 0.85004 0.26271
v 3.61514 0.63011 0.25747
v 3.39162 0.45361 0.24782
v 3.29192 0.56744 0.44631
v 3.15247 0.31078 0.23400
v 3.07446 0.41252 0.41967
v 2.95355 0.54714 0.48385
v 2.83419 0.28358 0.38130
v 2.75546 0.38950 0.43110
v 2.67591 0.49320 0.37281
v 2.53973 0.26896 0.38277
v 2.49749 0.35563 0.32682
v 2.46571 0.42748 0.17932
v 2.60610 0.58117 0.20956
v 2.89788 0.20189 0.21372
v 2.62873 0.11817 0.19027
v 2.58696 0.18231 0.33598
v 2.35925 0.05712 0.17070
v 2.33807 0.11040 0.29680
v 2.31256 0.18819 0.33890
v 2.08158 0.07306 0.28253
v 2.07975 0.15161 0.32187
v 2.07700 0.22454 0.27545
v 2.29446 0.26497 0.28888
v 2.07494 0.26904 0.15236
v 2.28457 0.31645 0.15827
v 2.08085 0.02864 0.16130
v 1.79530 0.02549 0.17510
v 1.81840 0.07983 0.30843
v 1.50199 0.04634 0.20212
v 1.55215 0.12511 0.35687
v 1.60523 0.22310 0.40917
v 1.84209 0.16104 0.35343
v 1.65768 0.32638 0.35134
v 1.85904 0.24411 0.30126
v 1.69698 0.41043 0.19238
v 1.86745 0.30278 0.16427
v 1.20714 0.11615 0.22731
v 1.28885 1.28317 0.25376
v 1.23499 1.48466 0.25238
v 1.17915 1.69046 0.24611
v 1.04924 1.43108 0.46422
v 1.00606 1.64713 0.45458
v 0.97013 1.86797 0.44030
v 1.12914 1.90085 0.24005
v 1.08379 2.11501 0.23106
v 0.49635 0.70854 0.26412
v 0.67603 0.44861 0.25655
v 0.92427 0.24815 0.24416
v 0.81460 0.55477 0.45914
v 1.02586 0.35951 0.43524
v 1.28008 0.21654 0.40259
v 1.17700 0.50654 0.50886
v 1.37583 0.33968 0.46324
v 1.34505 0.63658 0.42887
v 1.47985 0.46027 0.39841
v 1.47699 0.71792 0.23974
v 1.56784 0.55293 0.22172
v 1.40875 0.90009 0.24872
v 1.34947 1.08750 0.25421
v 1.24858 0.82372 0.45266
v 1.16912 1.01874 0.46682
v 1.10349 1.22149 0.47026
v 0.91703 0.90980 0.55901
v 0.83848 1.13472 0.56471
v 0.78560 1.36781 0.55671
v 0.57315 1.05191 0.47669
v 0.52237 1.31774 0.47231
v 0.50490 1.58162 0.46010
v 0.75421 1.60702 0.54665
v 0.51268 1.84358 0.44553
v 0.74258 1.84815 0.52717
v 0.55370 2.09912 0.42437
v 0.75029 2.09154 0.50105
v 0.94407 2.09650 0.42492
v 0.76944 2.33904 0.46251
v 0.92002 2.33134 0.39690
v 1.03667 2.33421 0.22133
v 0.90650 2.57190 0.35801
v 0.99657 2.56013 0.20146
v 0.33670 1.57570 0.25130
v 0.34154 1.28892 0.26042
v 0.39241 0.99652 0.26446
v 0.66821 0.79346 0.47251
v 1.02744 0.69672 0.54234
v 0.35645 1.85246 0.24610
v 0.41983 2.11470 0.23367
v 0.49446 2.36104 0.22168
v 0.61354 2.34895 0.40099
v 0.58519 2.59466 0.20186
v 0.67759 2.59215 0.36202
v 0.79280 2.58369 0.41398
v 0.73892 2.82672 0.30704
v 0.82262 2.81910 0.35825
v 0.90352 2.80603 0.30644
v 0.84978 3.04645 0.31789
v 0.90889 3.03915 0.27950
v 0.95277 3.03225 0.16449
v 0.96007 2.79460 0.17305
v 0.68034 2.82795 0.17759
v 0.75221 3.05204 0.16559
v 0.79134 3.05192 0.27313
vn 0.27994 -0.41588 -0.86527
vn 0.56454 -0.70292 -0.43267
vn 0.83144 -0.42881 -0.35332
vn 0.55727 -0.32869 -0.76250
vn 0.04750 0.10313 -0.99353
vn 0.03725 0.07255 -0.99667
vn 0.18889 -0.51460 -0.83637
vn -0.07150 -0.34643 -0.93535
vn -0.01556 0.15615 -0.98761
vn -0.09193 -0.37481 -0.92253
vn -0.66457 -0.32758 -0.67159
vn -0.66505 -0.01916 -0.74655
vn -0.31010 -0.16986 -0.93541
vn -0.39746 -0.53098 -0.74839
vn -0.83198 -0.41505 -0.36815
vn -0.93008 0.02475 -0.36652
vn -0.49968 -0.77535 -0.38620
vn -0.46153 0.57953 -0.67167
vn -0.56674 0.72692 -0.38779
vn -0.16058 0.88981 -0.42714
vn -0.16981 0.62327 -0.76335
vn -0.24595 0.22032 -0.94391
vn -0.59357 0.30670 -0.74405
vn -0.84169 0.38743 -0.37610
vn -0.60621 -0.49171 -0.62509
vn -0.29647 -0.67645 -0.67418
vn -0.39742 -0.86807 -0.29752
vn -0.34797 -0.87275 -0.34238
vn -0.39560 -0.91842 0.00066
vn -0.35507 -0.93484 0.00033
vn -0.54089 -0.84109 -0.00009
vn -0.89173 -0.45257 -0.00025
vn -0.99991 0.01378 -0.00025
vn -0.90790 0.41920 -0.00029
vn -0.61633 0.78749 -0.00068
vn -0.19006 0.98177 -0.00068
vn 0.02462 0.99970 -0.00020
vn 0.02755 0.88765 -0.45970
vn 0.00628 0.99998 0.00000
vn 0.00334 0.88362 -0.46820
vn 0.00423 0.60887 -0.79326
vn 0.01213 0.61673 -0.78708
vn -0.02266 0.88550 -0.46409
vn -0.01937 0.60892 -0.79299
vn -0.03200 0.88889 -0.45700
vn -0.01820 0.61746 -0.78639
vn -0.00585 0.41254 -0.91092
vn -0.02205 0.62375 -0.78131
vn -0.00535 0.40981 -0.91216
vn 0.08291 -0.29669 -0.95137
vn 0.08829 -0.31776 -0.94405
vn 0.12839 -0.57891 -0.80522
vn 0.13986 -0.55602 -0.81931
vn 0.17415 -0.88286 -0.43615
vn 0.21203 -0.86976 -0.44560
vn 0.33239 -0.82705 -0.45333
vn 0.23913 -0.97099 -0.00013
vn 0.38162 -0.92432 0.00033
vn 0.62044 -0.78426 -0.00007
vn 0.87667 -0.48110 -0.00040
vn 0.18667 -0.98242 -0.00000
vn 0.19203 -0.98139 -0.00001
vn 0.16903 -0.88892 -0.42573
vn 0.16590 -0.89493 -0.41421
vn 0.18264 -0.98318 0.00001
vn 0.12533 -0.59942 -0.79056
vn 0.12562 -0.61711 -0.77678
vn 0.12041 -0.63103 -0.76636
vn 0.15999 -0.90126 -0.40267
vn 0.17704 -0.98420 -0.00001
vn 0.14705 -0.90974 -0.38827
vn 0.16449 -0.98638 -0.00010
vn -0.02121 0.99978 0.00000
vn -0.03477 0.99940 0.00001
vn -0.03934 0.99923 -0.00000
vn -0.03817 0.89335 -0.44773
vn -0.02344 0.99973 -0.00001
vn -0.02533 0.90054 -0.43404
vn -0.01405 0.63092 -0.77572
vn -0.01532 0.90736 -0.42007
vn -0.00340 0.63783 -0.77017
vn 0.01016 0.40506 -0.91423
vn 0.00028 0.40602 -0.91386
vn 0.08691 -0.34386 -0.93499
vn 0.08981 -0.36660 -0.92603
vn -0.00355 0.63927 -0.76897
vn 0.01006 0.39688 -0.91782
vn 0.08646 -0.38391 -0.91931
vn 0.01875 0.63564 -0.77176
vn 0.02620 0.37721 -0.92576
vn 0.08415 -0.39479 -0.91491
vn 0.11198 -0.64238 -0.75816
vn 0.07189 -0.40763 -0.91031
vn 0.08224 -0.65537 -0.75082
vn 0.10235 -0.92394 -0.36859
vn -0.01847 -0.66894 -0.74309
vn -0.03517 -0.93725 -0.34687
vn -0.02661 -0.99965 0.00011
vn 0.11828 -0.99298 0.00017
vn -0.01398 0.99990 -0.00000
vn -0.01004 0.99995 -0.00002
vn -0.01350 0.91318 -0.40733
vn 0.02699 0.99964 -0.00005
vn 0.01826 0.91970 -0.39220
vn 0.12853 0.99171 -0.00006
vn 0.11428 0.91992 -0.37509
vn 0.09181 0.62356 -0.77636
vn 0.27521 0.89212 -0.35830
vn 0.20463 0.59223 -0.77935
vn 0.13765 0.30696 -0.94172
vn 0.07553 0.34646 -0.93502
vn 0.32906 0.53373 -0.77901
vn 0.19509 0.26592 -0.94405
vn 0.00749 -0.42697 -0.90424
vn -0.12149 -0.42216 -0.89834
vn -0.20553 -0.64869 -0.73277
vn -0.26664 -0.35311 -0.89678
vn -0.42447 -0.54262 -0.72483
vn -0.58635 -0.75014 -0.30575
vn -0.28509 -0.90186 -0.32462
vn -0.60959 -0.79272 0.00006
vn -0.28940 -0.95721 -0.00007
vn 0.29628 0.95510 0.00002
vn 0.49506 0.86886 0.00003
vn 0.46586 0.81468 -0.34535
vn 0.68573 0.72786 -0.00004
vn 0.64575 0.68527 -0.33676
vn 0.44036 0.45157 -0.77600
vn 0.78727 0.51915 -0.33269
vn 0.52493 0.35806 -0.77217
vn 0.26915 0.19771 -0.94259
vn 0.24126 0.22664 -0.94362
vn 0.58442 0.26191 -0.76803
vn 0.30144 0.17488 -0.93731
vn -0.37608 -0.21119 -0.90220
vn -0.43238 -0.04311 -0.90066
vn -0.67136 -0.10061 -0.73428
vn -0.59518 -0.34029 -0.72798
vn -0.93324 -0.14371 -0.32926
vn -0.82835 -0.47008 -0.30475
vn -0.99092 -0.13445 0.00024
vn -0.87288 -0.48794 -0.00013
vn 0.83581 0.54901 -0.00008
vn 0.92779 0.37310 0.00001
vn 0.87243 0.34920 -0.34195
vn 0.97070 0.24028 0.00012
vn 0.90376 0.22026 -0.36702
vn 0.61594 0.18219 -0.76643
vn 0.90961 0.12212 -0.39710
vn 0.62443 0.11420 -0.77269
vn 0.36704 0.11027 -0.92364
vn 0.34313 0.14779 -0.92759
vn -0.43244 0.09543 -0.89660
vn -0.39574 0.16785 -0.90289
vn -0.61935 0.20935 -0.75669
vn -0.66280 0.09885 -0.74225
vn -0.87601 0.26805 -0.40095
vn -0.92243 0.12074 -0.36680
vn -0.95367 0.30086 -0.00029
vn -0.98938 0.14533 0.00000
vn 0.99070 0.13609 0.00003
vn 0.99799 0.06336 -0.00004
vn 0.90485 0.05447 -0.42223
vn -0.92841 0.37155 -0.00001
vn -0.92953 0.36874 -0.00001
vn -0.80388 0.31202 -0.50639
vn -0.79685 0.31321 -0.51665
vn -0.78926 0.32665 -0.51997
vn -0.86493 0.36146 -0.34820
vn -0.50933 0.19544 -0.83808
vn -0.50782 0.19871 -0.83823
vn -0.50805 0.21457 -0.83417
vn -0.78569 0.34562 -0.51307
vn -0.91735 0.39809 -0.00001
vn -0.78968 0.36306 -0.49456
vn -0.91290 0.40818 -0.00005
vn 0.99927 -0.03825 0.00000
vn 0.99484 -0.10145 -0.00004
vn 0.86829 -0.09141 -0.48756
vn 0.88223 -0.04050 -0.46906
vn 0.89519 0.00616 -0.44565
vn 0.99992 0.01302 0.00003
vn 0.59395 -0.02041 -0.80424
vn 0.60946 0.02011 -0.79256
vn 0.62073 0.06346 -0.78145
vn 0.37005 0.03904 -0.92819
vn 0.37244 0.07592 -0.92495
vn -0.35977 0.17947 -0.91562
vn -0.33845 0.16756 -0.92594
vn -0.56351 0.23209 -0.79284
vn -0.58494 0.23699 -0.77568
vn -0.83339 0.31645 -0.45313
vn -0.84787 0.31162 -0.42897
vn -0.93331 0.35906 -0.00010
vn -0.93699 0.34934 -0.00001
vn -0.93073 0.36571 -0.00000
vn -0.82141 0.31779 -0.47359
vn -0.81217 0.31443 -0.49144
vn -0.92993 0.36774 0.00002
vn -0.54486 0.22252 -0.80846
vn -0.52929 0.20737 -0.82271
vn -0.51646 0.19720 -0.83330
vn 0.02365 0.05676 -0.99811
vn 0.01723 0.03039 -0.99939
vn 0.00800 0.00836 -0.99993
vn 0.55072 -0.10721 -0.82777
vn 0.52560 -0.16748 -0.83408
vn 0.48914 -0.24665 -0.83660
vn -0.01104 -0.02364 -0.99966
vn 0.43976 -0.33550 -0.83309
vn -0.03254 -0.04896 -0.99827
vn 0.38073 -0.42384 -0.82183
vn -0.05918 -0.07083 -0.99573
vn -0.51929 0.23248 -0.82237
vn -0.10146 -0.10019 -0.98978
vn -0.54061 0.24478 -0.80488
vn -0.79594 0.38330 -0.46857
vn -0.56320 0.27077 -0.78070
vn -0.79917 0.41753 -0.43243
vn -0.89303 0.45000 -0.00030
vn -0.90542 0.42451 0.00011
vn 0.94894 -0.31546 0.00007
vn 0.89203 -0.45197 -0.00001
vn 0.77823 -0.38845 -0.49341
vn 0.82364 -0.26983 -0.49881
vn 0.85010 -0.17317 -0.49733
vn 0.97964 -0.20075 -0.00003
vn 0.57468 -0.05542 -0.81650
vn 0.36506 0.00369 -0.93097
vn -0.32099 0.15212 -0.93479
vn 0.79988 -0.60016 -0.00019
vn 0.70487 -0.52252 -0.47972
vn 0.67902 -0.73412 -0.00013
vn 0.60655 -0.64898 -0.45926
vn 0.55110 -0.83444 -0.00010
vn 0.50061 -0.75082 -0.43089
vn 0.31200 -0.50807 -0.80282
vn 0.39845 -0.82772 -0.39512
vn 0.23713 -0.58138 -0.77831
vn -0.15371 -0.11988 -0.98082
vn 0.16933 -0.64677 -0.74365
vn 0.04353 -0.41164 -0.91031
vn -0.39630 0.21833 -0.89179
vn -0.55988 0.36894 -0.74190
vn -0.36145 0.35563 -0.86190
vn -0.48302 0.54049 -0.68888
vn -0.62878 0.71767 -0.29930
vn -0.76564 0.52352 -0.37379
vn -0.67645 0.73649 0.00041
vn -0.83721 0.54689 0.00011
vn 0.43259 -0.90159 -0.00003
vn 0.32353 -0.94622 0.00004
vn 0.30211 -0.88545 -0.35313
vn 0.23600 -0.97175 -0.00011
vn 0.22416 -0.92397 -0.30988
vn 0.11795 -0.69855 -0.70577
vn 0.14294 -0.95265 -0.26837
vn 0.07645 -0.72895 -0.68029
vn 0.00595 -0.46820 -0.88360
vn 0.01269 -0.45655 -0.88961
vn 0.04959 -0.46649 -0.88313
vn -0.23911 0.47662 -0.84597
vn -0.00321 0.52697 -0.84988
vn -0.01637 0.76738 -0.64098
vn -0.30416 0.69853 -0.64772
vn -0.02803 0.97528 -0.21918
vn -0.37311 0.89693 -0.23729
vn -0.02766 0.99962 -0.00001
vn -0.39785 0.91745 -0.00016
vn 0.14652 -0.98921 -0.00009
vn 0.06036 -0.99818 0.00012
vn 0.05966 -0.96710 -0.24730
vn -0.01401 -0.99990 0.00010
vn -0.01550 -0.96298 -0.26914
vn 0.03321 -0.74325 -0.66819
vn 0.05862 -0.92860 -0.36643
vn -0.12266 -0.93815 -0.32377
vn -0.04322 -0.70602 -0.70687
vn 0.03039 -0.47623 -0.87879
vn 0.07930 -0.48579 -0.87047
vn 0.23817 0.45806 -0.85642
vn 0.35670 0.31537 -0.87938
vn 0.48078 0.51052 -0.71289
vn 0.29188 0.68749 -0.66496
vn 0.63584 0.70286 -0.31889
vn 0.35332 0.90072 -0.25272
vn 0.68965 0.72414 0.00044
vn 0.38049 0.92478 -0.00026
vn -0.13084 -0.99140 0.00000
vn -0.30823 -0.95131 -0.00005
vn -0.28193 -0.88017 -0.38186
vn 0.96306 0.26930 -0.00000
vn 0.96068 0.27766 -0.00001
vn 0.82442 0.24037 -0.51240
vn 0.82933 0.23021 -0.50912
vn 0.83910 0.22185 -0.49667
vn 0.96489 0.26267 0.00001
vn 0.53242 0.15319 -0.83250
vn 0.54982 0.14797 -0.82207
vn 0.57408 0.13932 -0.80686
vn 0.85659 0.20382 -0.47404
vn 0.96973 0.24418 -0.00002
vn 0.87474 0.20032 -0.44126
vn 0.97135 0.23766 -0.00006
vn -0.72245 -0.69143 -0.00012
vn -0.88310 -0.46918 -0.00026
vn -0.77522 -0.40995 -0.48060
vn -0.64177 -0.61337 -0.46033
vn -0.46425 -0.77614 -0.42670
vn -0.51531 -0.85701 0.00000
vn -0.39019 -0.40039 -0.82912
vn -0.27877 -0.52816 -0.80208
vn -0.15850 -0.62834 -0.76162
vn 0.11901 -0.11651 -0.98603
vn -0.05331 -0.41291 -0.90921
vn 0.36876 0.19342 -0.90918
vn 0.55328 0.22564 -0.80185
vn 0.54246 0.34357 -0.76662
vn 0.81891 0.34269 -0.46038
vn 0.77234 0.49442 -0.39881
vn 0.93100 0.36501 -0.00092
vn 0.85801 0.51363 -0.00006
vn 0.95357 0.30119 -0.00015
vn 0.82744 0.27016 -0.49230
vn 0.82403 0.25212 -0.50736
vn 0.95758 0.28817 -0.00001
vn 0.54586 0.16836 -0.82079
vn 0.53107 0.15688 -0.83268
vn 0.52611 0.15687 -0.83582
vn 0.03079 -0.04085 -0.99869
vn 0.00965 0.00798 -0.99992
vn 0.00161 0.04487 -0.99899
vn -0.52385 -0.14098 -0.84006
vn -0.55418 -0.04178 -0.83135
vn -0.57301 0.03306 -0.81888
vn 0.00135 0.07151 -0.99744
vn -0.58418 0.11481 -0.80346
vn 0.00348 0.10221 -0.99476
vn -0.59179 0.19326 -0.78258
vn -0.34885 0.14650 -0.92566
vn 0.36770 0.11252 -0.92311
vn 0.60217 0.14524 -0.78505
vn 0.40283 0.13956 -0.90457
vn 0.63832 0.16007 -0.75295
vn 0.89529 0.19837 -0.39889
vn 0.69351 0.16278 -0.70181
vn 0.92366 0.18289 -0.33675
vn 0.97691 0.21367 0.00015
vn 0.97319 0.23001 0.00037
vn -0.99592 -0.09028 0.00000
vn -0.99907 0.04320 -0.00022
vn -0.88546 0.03532 -0.46336
vn -0.87490 -0.07824 -0.47795
vn -0.84487 -0.22681 -0.48452
vn -0.96565 -0.25986 -0.00008
vn -0.47402 -0.26125 -0.84086
vn 0.07112 -0.08776 -0.99360
vn -0.98499 0.17263 -0.00020
vn -0.88447 0.15083 -0.44154
vn -0.95948 0.28177 -0.00000
vn -0.87458 0.25356 -0.41330
vn -0.93586 0.35237 0.00002
vn -0.86813 0.32202 -0.37768
vn -0.60338 0.25473 -0.75568
vn -0.86987 0.37121 -0.32484
vn -0.63476 0.31242 -0.70674
vn -0.39781 0.25714 -0.88070
vn -0.35940 0.19814 -0.91191
vn -0.70227 0.30193 -0.64471
vn -0.48320 0.25971 -0.83610
vn 0.46357 0.15995 -0.87150
vn 0.52545 0.12613 -0.84143
vn 0.75122 0.11222 -0.65044
vn 0.48436 -0.04071 -0.87392
vn 0.73051 -0.06625 -0.67968
vn 0.95875 -0.09926 -0.26635
vn 0.95720 0.10943 -0.26796
vn 0.99388 -0.11047 0.00002
vn 0.99149 0.13021 -0.00035
vn -0.91664 0.39972 -0.00004
vn -0.92773 0.37326 -0.00004
vn -0.90025 0.34785 -0.26183
vn -0.99910 0.04242 -0.00032
vn -0.96913 0.04523 -0.24235
vn -0.78918 0.03161 -0.61335
vn -0.94504 -0.22421 -0.23798
vn -0.59991 0.01452 -0.79994
vn -0.96707 -0.25450 -0.00064
vn 0.55943 -0.32002 0.76461
vn 0.83562 -0.41399 0.36105
vn 0.56737 -0.69527 0.44124
vn 0.28050 -0.41655 0.86476
vn 0.19155 -0.51370 0.83631
vn 0.03994 0.07387 0.99647
vn 0.04959 0.10191 0.99356
vn -0.01110 0.15016 0.98860
vn -0.07380 -0.35101 0.93346
vn -0.09800 -0.36914 0.92419
vn -0.40357 -0.53271 0.74388
vn -0.31090 -0.17892 0.93345
vn -0.66667 -0.02439 0.74496
vn -0.66735 -0.32797 0.66864
vn -0.92925 0.02300 0.36874
vn -0.83095 -0.41384 0.37183
vn -0.50083 -0.77381 0.38779
vn -0.17359 0.62074 0.76456
vn -0.16376 0.88819 0.42931
vn -0.56687 0.72501 0.39119
vn -0.46194 0.57679 0.67374
vn -0.59027 0.30842 0.74596
vn -0.24112 0.21744 0.94582
vn -0.83985 0.38927 0.37831
vn -0.30524 -0.66062 0.68586
vn -0.61247 -0.47192 0.63417
vn -0.35343 -0.86826 0.34815
vn -0.40884 -0.85827 0.31021
vn 0.02776 0.88773 0.45952
vn 0.00336 0.88361 0.46822
vn 0.01247 0.61620 0.78749
vn 0.00429 0.60866 0.79342
vn -0.01926 0.60894 0.79298
vn -0.02273 0.88545 0.46418
vn -0.01818 0.61744 0.78641
vn -0.03214 0.88884 0.45709
vn -0.00557 0.41267 0.91086
vn -0.00523 0.40983 0.91215
vn -0.02197 0.62374 0.78132
vn 0.14020 -0.55636 0.81903
vn 0.12840 -0.57889 0.80523
vn 0.08821 -0.31776 0.94406
vn 0.08302 -0.29662 0.95138
vn 0.21228 -0.87000 0.44502
vn 0.17422 -0.88285 0.43616
vn 0.33274 -0.82691 0.45332
vn 0.16912 -0.88893 0.42569
vn 0.16586 -0.89494 0.41422
vn 0.12532 -0.61708 0.77686
vn 0.12534 -0.59948 0.79052
vn 0.16012 -0.90127 0.40257
vn 0.12033 -0.63103 0.76637
vn 0.14720 -0.90974 0.38820
vn -0.03819 0.89335 0.44774
vn -0.02540 0.90055 0.43401
vn -0.01402 0.63092 0.77572
vn -0.00346 0.63784 0.77016
vn -0.01543 0.90737 0.42004
vn 0.00033 0.40601 0.91387
vn 0.01026 0.40504 0.91424
vn 0.08930 -0.36648 0.92613
vn 0.08681 -0.34393 0.93497
vn 0.01046 0.39674 0.91787
vn -0.00332 0.63920 0.76903
vn 0.08605 -0.38380 0.91940
vn 0.02711 0.37664 0.92596
vn 0.01932 0.63535 0.77199
vn 0.11195 -0.64236 0.75818
vn 0.08413 -0.39482 0.91490
vn 0.08272 -0.65579 0.75039
vn 0.07272 -0.40850 0.90986
vn 0.10221 -0.92393 0.36866
vn -0.03488 -0.93749 0.34625
vn -0.01797 -0.66934 0.74274
vn -0.01348 0.91318 0.40734
vn 0.01830 0.91969 0.39222
vn 0.11421 0.91996 0.37501
vn 0.09181 0.62374 0.77622
vn 0.20441 0.59230 0.77935
vn 0.27514 0.89216 0.35825
vn 0.07553 0.34683 0.93488
vn 0.13731 0.30689 0.94179
vn 0.19539 0.26519 0.94419
vn 0.32925 0.53347 0.77911
vn -0.20576 -0.64851 0.73287
vn -0.12227 -0.42199 0.89832
vn 0.00767 -0.42652 0.90444
vn -0.42427 -0.54238 0.72513
vn -0.26629 -0.35369 0.89666
vn -0.28488 -0.90189 0.32471
vn -0.58659 -0.74970 0.30637
vn 0.46586 0.81471 0.34529
vn 0.64577 0.68538 0.33651
vn 0.44059 0.45197 0.77563
vn 0.52561 0.35833 0.77158
vn 0.78741 0.51917 0.33234
vn 0.24166 0.22718 0.94339
vn 0.27028 0.19822 0.94216
vn 0.30354 0.17440 0.93672
vn 0.58566 0.26139 0.76726
vn -0.59570 -0.33999 0.72770
vn -0.67111 -0.10126 0.73441
vn -0.43253 -0.04334 0.90058
vn -0.37600 -0.21071 0.90234
vn -0.82879 -0.46975 0.30405
vn -0.93291 -0.14469 0.32977
vn 0.87258 0.34910 0.34166
vn 0.90364 0.22066 0.36707
vn 0.61636 0.18222 0.76609
vn 0.62419 0.11457 0.77283
vn 0.90954 0.12226 0.39723
vn 0.34406 0.14770 0.92726
vn 0.36673 0.11071 0.92372
vn -0.66261 0.09939 0.74234
vn -0.61965 0.20948 0.75641
vn -0.39608 0.16800 0.90271
vn -0.43288 0.09682 0.89624
vn -0.92228 0.12046 0.36729
vn -0.87613 0.26833 0.40049
vn 0.90488 0.05434 0.42220
vn -0.79685 0.31326 0.51662
vn -0.80388 0.31192 0.50643
vn -0.86490 0.36155 0.34818
vn -0.78927 0.32668 0.51993
vn -0.50779 0.19866 0.83826
vn -0.50925 0.19537 0.83815
vn -0.78590 0.34532 0.51296
vn -0.50804 0.21439 0.83422
vn -0.78972 0.36293 0.49459
vn 0.88232 -0.04088 0.46888
vn 0.86830 -0.09157 0.48751
vn 0.89519 0.00623 0.44564
vn 0.60948 0.02020 0.79255
vn 0.59408 -0.02076 0.80414
vn 0.62074 0.06353 0.78144
vn 0.37249 0.07576 0.92494
vn 0.37004 0.03911 0.92819
vn -0.58472 0.23624 0.77607
vn -0.56352 0.23190 0.79288
vn -0.33842 0.16753 0.92596
vn -0.35937 0.17861 0.91594
vn -0.84789 0.31127 0.42917
vn -0.83336 0.31659 0.45308
vn -0.82142 0.31764 0.47368
vn -0.81218 0.31438 0.49145
vn -0.52937 0.20771 0.82257
vn -0.54484 0.22225 0.80855
vn -0.51648 0.19712 0.83330
vn 0.01736 0.03027 0.99939
vn 0.02367 0.05701 0.99809
vn 0.00807 0.00828 0.99993
vn 0.52560 -0.16749 0.83408
vn 0.55080 -0.10732 0.82771
vn -0.01121 -0.02360 0.99966
vn 0.48879 -0.24660 0.83683
vn -0.03235 -0.04887 0.99828
vn 0.43927 -0.33545 0.83338
vn -0.05927 -0.07105 0.99571
vn 0.38021 -0.42384 0.82207
vn -0.51943 0.23233 0.82232
vn -0.54176 0.24417 0.80429
vn -0.10243 -0.10078 0.98962
vn -0.79582 0.38351 0.46860
vn -0.80095 0.41602 0.43059
vn -0.56410 0.27046 0.78016
vn 0.82364 -0.26984 0.49880
vn 0.77816 -0.38843 0.49354
vn 0.85009 -0.17309 0.49738
vn 0.57479 -0.05565 0.81641
vn 0.36502 0.00389 0.93099
vn -0.32093 0.15196 0.93483
vn 0.70471 -0.52255 0.47992
vn 0.60613 -0.64912 0.45962
vn 0.50091 -0.75062 0.43088
vn 0.31234 -0.50783 0.80284
vn 0.23851 -0.58085 0.77828
vn 0.39951 -0.82726 0.39501
vn -0.15229 -0.11936 0.98110
vn 0.04542 -0.41159 0.91024
vn 0.17008 -0.64653 0.74369
vn -0.55951 0.36987 0.74172
vn -0.39744 0.21945 0.89100
vn -0.48524 0.54049 0.68733
vn -0.36761 0.35599 0.85915
vn -0.76453 0.52467 0.37444
vn -0.62750 0.71841 0.30021
vn 0.30197 -0.88541 0.35337
vn 0.22441 -0.92397 0.30972
vn 0.11849 -0.69862 0.70561
vn 0.07717 -0.72916 0.67998
vn 0.14408 -0.95271 0.26754
vn 0.01446 -0.45656 0.88958
vn 0.00570 -0.46764 0.88390
vn 0.04878 -0.46729 0.88276
vn -0.30651 0.69838 0.64677
vn -0.01702 0.76681 0.64165
vn -0.00351 0.52622 0.85034
vn -0.24049 0.47713 0.84529
vn -0.37549 0.89615 0.23649
vn -0.02864 0.97516 0.21964
vn 0.05986 -0.96728 0.24656
vn -0.01405 -0.96293 0.26940
vn 0.05877 -0.92923 0.36479
vn 0.03410 -0.74363 0.66772
vn -0.04195 -0.70574 0.70723
vn -0.12219 -0.93807 0.32420
vn 0.07873 -0.48713 0.86977
vn 0.03165 -0.47620 0.87877
vn 0.29596 0.68755 0.66308
vn 0.48022 0.51068 0.71316
vn 0.35566 0.31662 0.87935
vn 0.24181 0.45909 0.85485
vn 0.35632 0.89992 0.25136
vn 0.63516 0.70308 0.31978
vn -0.28265 -0.87995 0.38184
vn 0.82934 0.23002 0.50920
vn 0.82445 0.24038 0.51235
vn 0.83910 0.22183 0.49669
vn 0.54955 0.14750 0.82234
vn 0.53228 0.15281 0.83266
vn 0.85660 0.20475 0.47363
vn 0.57409 0.13955 0.80681
vn 0.87469 0.20052 0.44126
vn -0.64245 -0.61323 0.45958
vn -0.77573 -0.40987 0.47984
vn -0.46425 -0.77619 0.42661
vn -0.27898 -0.52816 0.80201
vn -0.39096 -0.40044 0.82873
vn -0.15855 -0.62822 0.76171
vn -0.05264 -0.41280 0.90930
vn 0.11938 -0.11648 0.98599
vn 0.54061 0.34325 0.76806
vn 0.55507 0.22570 0.80060
vn 0.36684 0.19239 0.91017
vn 0.77119 0.49541 0.39978
vn 0.82064 0.34140 0.45825
vn 0.82737 0.27027 0.49236
vn 0.82421 0.25197 0.50714
vn 0.53172 0.15661 0.83231
vn 0.54509 0.16895 0.82118
vn 0.52617 0.15691 0.83578
vn 0.00967 0.00797 0.99992
vn 0.03131 -0.04091 0.99867
vn 0.00116 0.04445 0.99901
vn -0.55410 -0.04181 0.83140
vn -0.52392 -0.14102 0.84001
vn 0.00077 0.07075 0.99749
vn -0.57292 0.03307 0.81894
vn 0.00306 0.10116 0.99487
vn -0.58404 0.11488 0.80355
vn -0.34919 0.14576 0.92565
vn -0.59165 0.19352 0.78262
vn 0.60230 0.14575 0.78485
vn 0.36802 0.11395 0.92281
vn 0.63869 0.16251 0.75211
vn 0.40354 0.14348 0.90364
vn 0.89529 0.19820 0.39895
vn 0.92316 0.18681 0.33597
vn 0.69344 0.16550 0.70125
vn -0.87472 -0.07805 0.47831
vn -0.88540 0.03539 0.46347
vn -0.84494 -0.22679 0.48439
vn -0.47450 -0.26130 0.84058
vn 0.07058 -0.08740 0.99367
vn -0.88439 0.15115 0.44159
vn -0.87441 0.25396 0.41341
vn -0.86853 0.32065 0.37795
vn -0.60333 0.25475 0.75571
vn -0.63617 0.30856 0.70716
vn -0.87082 0.36863 0.32523
vn -0.35904 0.19991 0.91166
vn -0.39859 0.25570 0.88076
vn -0.48505 0.25390 0.83682
vn -0.70361 0.29800 0.64508
vn 0.75095 0.11236 0.65073
vn 0.52504 0.12267 0.84219
vn 0.46347 0.15832 0.87185
vn 0.73204 -0.05680 0.67889
vn 0.48703 -0.03154 0.87282
vn 0.95702 0.11228 0.26740
vn 0.95927 -0.09390 0.26643
vn -0.90051 0.34716 0.26183
vn -0.96957 0.04374 0.24088
vn -0.79040 0.02935 0.61189
vn -0.94486 -0.22819 0.23488
vn -0.60166 0.01173 0.79867
f 1//1 5//2 6//3 7//4
f 1//1 8//5 9//6 10//7
f 1//1 4//8 11//9 8//5
f 1//1 7//4 12//10 4//8
f 2//11 13//12 14//13 15//14
f 2//11 16//15 17//16 13//12
f 2//11 15//14 18//17 16//15
f 3//18 19//19 20//20 21//21
f 3//18 21//21 22//22 23//23
f 3//18 23//23 24//24 19//19
f 4//8 12//10 25//25 26//26
f 4//8 26//26 15//14 14//13
f 4//8 14//13 22//22 11//9
f 26//26 25//25 27//27 28//28
f 26//26 28//28 18//17 15//14
f 28//28 27//27 29//29 312//30
f 28//28 312//30 30//31 18//17
f 30//31 313//32 16//15 18//17
f 313//32 31//33 17//16 16//15
f 31//33 32//34 24//24 17//16
f 32//34 314//35 19//19 24//24
f 314//35 315//36 20//20 19//19
f 315//36 316//37 33//38 20//20
f 33//38 316//37 34//39 35//40
f 33//38 35//40 36//41 37//42
f 33//38 37//42 21//21 20//20
f 37//42 36//41 8//5 11//9
f 37//42 11//9 22//22 21//21
f 36//41 35//40 38//43 39//44
f 36//41 39//44 9//6 8//5
f 39//44 38//43 40//45 41//46
f 39//44 41//46 42//47 9//6
f 42//47 41//46 43//48 44//49
f 42//50 44//51 45//52 46//53
f 42//50 46//53 10//7 9//6
f 46//53 45//52 47//54 48//55
f 46//53 48//55 49//56 10//7
f 49//56 5//2 1//1 10//7
f 49//56 48//55 317//57 318//58
f 49//56 318//58 50//59 5//2
f 50//59 51//60 6//3 5//2
f 52//61 319//62 47//54 54//63
f 52//61 54//63 55//64 53//65
f 55//64 54//63 56//66 57//67
f 55//64 57//67 58//68 59//69
f 55//64 59//69 60//70 53//65
f 60//70 59//69 61//71 62//72
f 63//73 320//74 40//45 38//43
f 63//73 38//43 35//40 34//39
f 320//74 64//75 65//76 40//45
f 65//76 64//75 66//77 67//78
f 65//76 67//78 68//79 43//48
f 65//76 43//48 41//46 40//45
f 68//79 67//78 69//80 70//81
f 68//79 70//81 71//82 72//83
f 68//79 72//83 44//49 43//48
f 72//84 71//85 57//67 56//66
f 72//84 56//66 45//52 44//51
f 71//82 70//81 73//86 74//87
f 71//85 74//88 58//68 57//67
f 74//87 73//86 75//89 76//90
f 74//88 76//91 77//92 58//68
f 77//92 76//91 78//93 79//94
f 77//92 79//94 80//95 61//71
f 77//92 61//71 59//69 58//68
f 80//95 79//94 81//96 82//97
f 80//95 82//97 83//98 84//99
f 80//95 84//99 62//72 61//71
f 85//100 321//101 86//102 69//80
f 85//100 69//80 67//78 66//77
f 86//102 321//101 322//103 87//104
f 86//102 87//104 75//89 73//86
f 86//102 73//86 70//81 69//80
f 87//104 322//103 323//105 88//106
f 87//104 88//106 89//107 75//89
f 89//107 88//106 90//108 91//109
f 89//107 91//109 92//110 78//111
f 89//107 78//111 76//90 75//89
f 92//110 91//109 93//112 94//113
f 92//114 94//115 95//116 81//96
f 92//114 81//96 79//94 78//93
f 95//116 94//115 96//117 97//118
f 95//116 97//118 98//119 99//120
f 95//116 99//120 82//97 81//96
f 99//120 98//119 324//121 325//122
f 99//120 325//122 83//98 82//97
f 100//123 101//124 102//125 90//108
f 100//123 90//108 88//106 323//105
f 102//125 101//124 326//126 103//127
f 102//125 103//127 104//128 93//112
f 102//125 93//112 91//109 90//108
f 104//128 103//127 105//129 106//130
f 104//128 106//130 107//131 96//132
f 104//128 96//132 94//113 93//112
f 107//131 106//130 108//133 109//134
f 107//135 109//136 110//137 111//138
f 107//135 111//138 97//118 96//117
f 111//138 110//137 112//139 113//140
f 111//138 113//140 98//119 97//118
f 113//140 112//139 114//141 327//142
f 113//140 327//142 324//121 98//119
f 328//143 115//144 116//145 105//129
f 328//143 105//129 103//127 326//126
f 116//145 115//144 117//146 118//147
f 116//145 118//147 119//148 108//133
f 116//145 108//133 106//130 105//129
f 119//148 118//147 120//149 121//150
f 119//148 121//150 122//151 123//152
f 119//148 123//152 109//134 108//133
f 123//153 122//154 124//155 125//156
f 123//153 125//156 110//137 109//136
f 125//156 124//155 126//157 127//158
f 125//156 127//158 112//139 110//137
f 127//158 126//157 329//159 128//160
f 127//158 128//160 114//141 112//139
f 129//161 330//162 130//163 120//149
f 129//161 120//149 118//147 117//146
f 331//164 332//165 133//166 134//167
f 331//164 134//167 135//168 132//169
f 135//168 134//167 136//170 137//171
f 135//168 137//171 138//172 139//173
f 135//168 139//173 140//174 132//169
f 140//174 139//173 141//175 142//176
f 143//177 333//178 144//179 145//180
f 143//177 145//180 146//181 131//182
f 146//181 130//163 330//162 131//182
f 146//181 145//180 147//183 148//184
f 146//181 148//184 149//185 130//163
f 149//185 121//150 120//149 130//163
f 149//185 148//184 150//186 151//187
f 149//185 151//187 122//151 121//150
f 151//188 150//189 152//190 153//191
f 151//188 153//191 124//155 122//154
f 153//191 152//190 154//192 155//193
f 153//191 155//193 126//157 124//155
f 155//193 154//192 334//194 156//195
f 155//193 156//195 329//159 126//157
f 335//196 334//194 154//192 157//197
f 335//196 157//197 158//198 336//199
f 158//198 157//197 159//200 160//201
f 158//198 160//201 161//202 133//166
f 158//198 133//166 332//165 336//199
f 161//202 160//201 162//203 163//204
f 161//202 163//204 164//205 136//170
f 161//202 136//170 134//167 133//166
f 164//205 163//204 165//206 166//207
f 164//205 166//207 167//208 168//209
f 164//205 168//209 137//171 136//170
f 168//209 167//208 169//210 170//211
f 168//209 170//211 138//172 137//171
f 170//211 169//210 171//212 172//213
f 170//211 172//213 173//214 138//172
f 173//214 172//213 174//215 175//216
f 173//214 175//216 176//217 141//175
f 173//214 141//175 139//173 138//172
f 176//217 175//216 177//218 178//219
f 176//217 178//219 337//220 179//221
f 176//217 179//221 142//176 141//175
f 181//222 180//223 182//224 183//225
f 181//222 183//225 184//226 339//227
f 184//226 144//179 333//178 339//227
f 184//226 183//225 166//207 165//206
f 184//226 165//206 185//228 144//179
f 185//228 147//183 145//180 144//179
f 185//228 165//206 163//204 162//203
f 185//228 162//203 186//229 147//183
f 186//229 150//186 148//184 147//183
f 186//230 162//203 160//201 159//200
f 186//230 159//200 152//190 150//189
f 183//225 182//224 167//208 166//207
f 182//224 180//223 338//231 187//232
f 182//224 187//232 169//210 167//208
f 187//232 338//231 340//233 188//234
f 187//232 188//234 171//212 169//210
f 188//234 340//233 189//235 190//236
f 188//234 190//236 191//237 171//212
f 191//237 190//236 192//238 193//239
f 191//237 193//239 194//240 174//215
f 191//237 174//215 172//213 171//212
f 194//240 193//239 195//241 196//242
f 194//240 196//243 197//244 177//218
f 194//240 177//218 175//216 174//215
f 197//244 196//243 198//245 199//246
f 197//244 199//246 200//247 201//248
f 197//244 201//248 178//219 177//218
f 201//248 200//247 202//249 341//250
f 201//248 341//250 337//220 178//219
f 342//251 343//252 203//253 192//238
f 342//251 192//238 190//236 189//235
f 203//253 343//252 204//254 205//255
f 203//253 205//255 206//256 195//241
f 203//253 195//241 193//239 192//238
f 206//256 205//255 207//257 208//258
f 206//256 208//258 209//259 198//260
f 206//256 198//260 196//242 195//241
f 209//259 208//258 210//261 211//261
f 209//262 211//263 212//264 213//265
f 209//262 213//265 199//246 198//245
f 213//265 212//264 214//266 215//267
f 213//265 215//267 200//247 199//246
f 215//267 214//266 344//268 216//269
f 215//267 216//269 202//249 200//247
f 217//270 345//271 218//272 207//257
f 217//270 207//257 205//255 204//254
f 218//272 345//271 219//273 220//274
f 218//272 220//274 221//275 210//276
f 218//272 210//276 208//258 207//257
f 221//275 220//274 222//277 223//278
f 221//275 223//278 224//279 225//280
f 221//275 225//280 211//261 210//261
f 225//281 224//282 226//283 227//284
f 225//281 227//284 212//264 211//263
f 227//284 226//283 228//285 229//286
f 227//284 229//286 214//266 212//264
f 229//286 228//285 346//287 230//288
f 229//286 230//288 344//268 214//266
f 231//289 347//290 232//291 222//277
f 231//289 222//277 220//274 219//273
f 234//292 233//293 236//294 237//295
f 234//292 237//295 238//296 235//297
f 238//296 237//295 239//298 240//299
f 238//296 240//299 241//300 242//301
f 238//296 242//301 243//302 235//297
f 243//302 242//301 244//303 349//304
f 247//305 246//306 248//307 249//308
f 247//305 249//308 250//309 350//310
f 250//309 232//291 347//290 350//310
f 250//309 249//308 251//311 252//312
f 250//309 252//312 253//313 232//291
f 253//313 223//278 222//277 232//291
f 253//313 252//312 254//314 255//315
f 253//313 255//315 224//279 223//278
f 255//316 254//314 256//317 257//318
f 255//316 257//318 226//283 224//282
f 257//318 256//317 258//319 259//320
f 257//318 259//320 228//285 226//283
f 259//320 258//319 351//321 352//322
f 259//320 352//322 346//287 228//285
f 353//323 351//321 258//319 260//324
f 353//323 260//324 261//325 348//326
f 261//325 260//324 262//327 263//328
f 261//325 263//328 264//329 236//294
f 261//325 236//294 233//293 348//326
f 264//329 263//328 265//330 266//331
f 264//329 266//331 267//332 239//298
f 264//329 239//298 237//295 236//294
f 267//332 266//331 268//333 269//334
f 267//332 269//334 270//335 271//336
f 267//332 271//336 240//299 239//298
f 271//336 270//335 272//337 273//338
f 271//336 273//338 241//300 240//299
f 273//338 272//337 274//339 275//340
f 273//338 275//341 276//342 241//300
f 276//342 275//341 277//343 278//344
f 276//342 278//344 279//345 244//303
f 276//342 244//303 242//301 241//300
f 279//345 278//344 280//346 281//347
f 279//345 281//347 282//348 283//349
f 279//345 283//349 349//304 244//303
f 285//350 284//351 286//352 287//353
f 285//350 287//353 288//354 245//355
f 288//354 248//307 246//306 245//355
f 288//354 287//353 269//334 268//333
f 288//354 268//333 289//356 248//307
f 289//356 251//311 249//308 248//307
f 289//356 268//333 266//331 265//330
f 289//356 265//330 290//357 251//311
f 290//357 254//314 252//312 251//311
f 290//357 265//330 263//328 262//327
f 290//357 262//327 256//317 254//314
f 287//353 286//352 270//335 269//334
f 286//352 284//351 354//358 291//359
f 286//352 291//359 272//337 270//335
f 291//359 354//358 355//360 292//361
f 291//359 292//361 274//339 272//337
f 292//361 355//360 293//362 294//363
f 292//361 294//363 295//364 274//339
f 295//364 294//363 296//365 297//366
f 295//364 297//366 298//367 277//368
f 295//364 277//368 275//340 274//339
f 298//367 297//366 299//369 300//370
f 298//371 300//372 301//373 280//346
f 298//371 280//346 278//344 277//343
f 301//373 300//372 302//374 303//375
f 301//373 303//375 304//376 305//377
f 301//373 305//377 281//347 280//346
f 305//377 304//376 356//378 306//379
f 305//377 306//379 282//348 281//347
f 307//380 357//381 308//382 296//365
f 307//380 296//365 294//363 293//362
f 308//382 357//381 309//383 310//384
f 308//382 310//384 311//385 299//369
f 308//382 299//369 297//366 296//365
f 311//385 310//384 27//386 25//25
f 311//385 25//25 12//10 302//387
f 311//385 302//387 300//370 299//369
f 310//384 309//383 29//388 27//386
f 356//378 304//376 6//3 51//60
f 304//376 303//375 7//4 6//3
f 303//375 302//374 12//10 7//4
f 262//327 260//324 258//319 256//317
f 159//200 157//197 154//192 152//190
f 56//66 54//63 47//54 45//52
f 319//62 317//57 48//55 47//54
f 24//24 23//23 13//12 17//16
f 23//23 22//22 14//13 13//12
f 364//389 363//390 362//391 358//392
f 367//393 366//394 365//395 358//392
f 365//395 368//396 361//397 358//392
f 361//397 369//398 364//389 358//392
f 372//399 371//400 370//401 359//402
f 370//401 374//403 373//404 359//402
f 373//404 375//405 372//399 359//402
f 378//406 377//407 376//408 360//409
f 380//410 379//411 378//406 360//409
f 376//408 381//412 380//410 360//409
f 383//413 382//414 369//398 361//397
f 371//400 372//399 383//413 361//397
f 368//396 379//411 371//400 361//397
f 385//415 384//416 382//414 383//413
f 372//399 375//405 385//415 383//413
f 312//30 29//29 384//416 385//415
f 375//405 30//31 312//30 385//415
f 375//405 373//404 313//32 30//31
f 373//404 374//403 31//33 313//32
f 374//403 381//412 32//34 31//33
f 381//412 376//408 314//35 32//34
f 376//408 377//407 315//36 314//35
f 377//407 386//417 316//37 315//36
f 387//418 34//39 316//37 386//417
f 389//419 388//420 387//418 386//417
f 377//407 378//406 389//419 386//417
f 368//396 365//395 388//420 389//419
f 378//406 379//411 368//396 389//419
f 391//421 390//422 387//418 388//420
f 365//395 366//394 391//421 388//420
f 393//423 392//424 390//422 391//421
f 366//394 394//425 393//423 391//421
f 396//426 395//427 393//423 394//425
f 398//428 397//429 396//430 394//431
f 366//394 367//393 398//428 394//431
f 400//432 399//433 397//429 398//428
f 367//393 401//434 400//432 398//428
f 367//393 358//392 362//391 401//434
f 318//58 317//57 400//432 401//434
f 362//391 50//59 318//58 401//434
f 362//391 363//390 51//60 50//59
f 402//435 399//433 319//62 52//61
f 53//65 403//436 402//435 52//61
f 405//437 404//438 402//435 403//436
f 407//439 406//440 405//437 403//436
f 53//65 60//70 407//439 403//436
f 62//72 408//441 407//439 60//70
f 390//422 392//424 320//74 63//73
f 34//39 387//418 390//422 63//73
f 392//424 409//442 64//75 320//74
f 410//443 66//77 64//75 409//442
f 395//427 411//444 410//443 409//442
f 392//424 393//423 395//427 409//442
f 413//445 412//446 410//443 411//444
f 415//447 414//448 413//445 411//444
f 395//427 396//426 415//447 411//444
f 404//438 405//437 414//449 415//450
f 396//430 397//429 404//438 415//450
f 417//451 416//452 413//445 414//448
f 405//437 406//440 417//453 414//449
f 419//454 418//455 416//452 417//451
f 406//440 420//456 419//457 417//453
f 422//458 421//459 419//457 420//456
f 408//441 423//460 422//458 420//456
f 406//440 407//439 408//441 420//456
f 425//461 424//462 422//458 423//460
f 84//99 83//98 425//461 423//460
f 408//441 62//72 84//99 423//460
f 412//446 426//463 321//101 85//100
f 66//77 410//443 412//446 85//100
f 427//464 322//103 321//101 426//463
f 416//452 418//455 427//464 426//463
f 412//446 413//445 416//452 426//463
f 428//465 323//105 322//103 427//464
f 418//455 429//466 428//465 427//464
f 431//467 430//468 428//465 429//466
f 421//469 432//470 431//467 429//466
f 418//455 419//454 421//469 429//466
f 434//471 433//472 431//467 432//470
f 424//462 435//473 434//474 432//475
f 421//459 422//458 424//462 432//475
f 437//476 436//477 434//474 435//473
f 439//478 438//479 437//476 435//473
f 424//462 425//461 439//478 435//473
f 325//122 324//121 438//479 439//478
f 425//461 83//98 325//122 439//478
f 430//468 440//480 101//124 100//123
f 323//105 428//465 430//468 100//123
f 441//481 326//126 101//124 440//480
f 433//472 442//482 441//481 440//480
f 430//468 431//467 433//472 440//480
f 444//483 443//484 441//481 442//482
f 436//485 445//486 444//483 442//482
f 433//472 434//471 436//485 442//482
f 447//487 446//488 444//483 445//486
f 449//489 448//490 447//491 445//492
f 436//477 437//476 449//489 445//492
f 451//493 450//494 448//490 449//489
f 437//476 438//479 451//493 449//489
f 327//142 114//141 450//494 451//493
f 438//479 324//121 327//142 451//493
f 443//484 452//495 115//144 328//143
f 326//126 441//481 443//484 328//143
f 453//496 117//146 115//144 452//495
f 446//488 454//497 453//496 452//495
f 443//484 444//483 446//488 452//495
f 456//498 455//499 453//496 454//497
f 458//500 457//501 456//498 454//497
f 446//488 447//487 458//500 454//497
f 460//502 459//503 457//504 458//505
f 447//491 448//490 460//502 458//505
f 462//506 461//507 459//503 460//502
f 448//490 450//494 462//506 460//502
f 128//160 329//159 461//507 462//506
f 450//494 114//141 128//160 462//506
f 455//499 463//508 330//162 129//161
f 117//146 453//496 455//499 129//161
f 465//509 464//510 332//165 331//164
f 132//511 466//512 465//509 331//164
f 468//513 467//514 465//509 466//512
f 470//515 469//516 468//513 466//512
f 132//511 140//174 470//515 466//512
f 142//176 471//517 470//515 140//174
f 473//518 472//519 333//178 143//177
f 131//182 474//520 473//518 143//177
f 131//182 330//162 463//508 474//520
f 476//521 475//522 473//518 474//520
f 463//508 477//523 476//521 474//520
f 463//508 455//499 456//498 477//523
f 479//524 478//525 476//521 477//523
f 456//498 457//501 479//524 477//523
f 481//526 480//527 478//528 479//529
f 457//504 459//503 481//526 479//529
f 483//530 482//531 480//527 481//526
f 459//503 461//507 483//530 481//526
f 156//195 334//194 482//531 483//530
f 461//507 329//159 156//195 483//530
f 484//532 482//531 334//194 335//196
f 336//199 485//533 484//532 335//196
f 487//534 486//535 484//532 485//533
f 464//510 488//536 487//534 485//533
f 336//199 332//165 464//510 485//533
f 490//537 489//538 487//534 488//536
f 467//514 491//539 490//537 488//536
f 464//510 465//509 467//514 488//536
f 493//540 492//541 490//537 491//539
f 495//542 494//543 493//540 491//539
f 467//514 468//513 495//542 491//539
f 497//544 496//545 494//543 495//542
f 468//513 469//516 497//544 495//542
f 499//546 498//547 496//545 497//544
f 469//516 500//548 499//546 497//544
f 502//549 501//550 499//546 500//548
f 471//517 503//551 502//549 500//548
f 469//516 470//515 471//517 500//548
f 505//552 504//553 502//549 503//551
f 179//221 337//220 505//552 503//551
f 471//517 142//176 179//221 503//551
f 507//554 506//555 180//223 181//222
f 339//227 508//556 507//554 181//222
f 339//227 333//178 472//519 508//556
f 492//541 493//540 507//554 508//556
f 472//519 509//557 492//541 508//556
f 472//519 473//518 475//522 509//557
f 489//538 490//537 492//541 509//557
f 475//522 510//558 489//538 509//557
f 475//522 476//521 478//525 510//558
f 486//535 487//534 489//538 510//559
f 478//528 480//527 486//535 510//559
f 493//540 494//543 506//555 507//554
f 511//560 338//231 180//223 506//555
f 494//543 496//545 511//560 506//555
f 512//561 340//233 338//231 511//560
f 496//545 498//547 512//561 511//560
f 513//562 189//235 340//233 512//561
f 498//547 514//563 513//562 512//561
f 516//564 515//565 513//562 514//563
f 501//550 517//566 516//564 514//563
f 498//547 499//546 501//550 514//563
f 519//567 518//568 516//564 517//566
f 504//553 520//569 519//570 517//566
f 501//550 502//549 504//553 517//566
f 522//571 521//572 519//570 520//569
f 524//573 523//574 522//571 520//569
f 504//553 505//552 524//573 520//569
f 341//250 202//249 523//574 524//573
f 505//552 337//220 341//250 524//573
f 515//565 525//575 343//252 342//251
f 189//235 513//562 515//565 342//251
f 526//576 204//254 343//252 525//575
f 518//568 527//577 526//576 525//575
f 515//565 516//564 518//568 525//575
f 529//578 528//579 526//576 527//577
f 521//580 530//581 529//578 527//577
f 518//568 519//567 521//580 527//577
f 532//582 531//582 529//578 530//581
f 534//583 533//584 532//585 530//586
f 521//572 522//571 534//583 530//586
f 536//587 535//588 533//584 534//583
f 522//571 523//574 536//587 534//583
f 216//269 344//268 535//588 536//587
f 523//574 202//249 216//269 536//587
f 528//579 537//589 345//271 217//270
f 204//254 526//576 528//579 217//270
f 538//590 219//273 345//271 537//589
f 531//591 539//592 538//590 537//589
f 528//579 529//578 531//591 537//589
f 541//593 540//594 538//590 539//592
f 543//595 542//596 541//593 539//592
f 531//582 532//582 543//595 539//592
f 545//597 544//598 542//599 543//600
f 532//585 533//584 545//597 543//600
f 547//601 546//602 544//598 545//597
f 533//584 535//588 547//601 545//597
f 230//288 346//287 546//602 547//601
f 535//588 344//268 230//288 547//601
f 540//594 548//603 347//290 231//289
f 219//273 538//590 540//594 231//289
f 550//604 549//605 233//293 234//292
f 235//297 551//606 550//604 234//292
f 553//607 552//608 550//604 551//606
f 555//609 554//610 553//607 551//606
f 235//297 243//302 555//609 551//606
f 349//304 556//611 555//609 243//302
f 558//612 557//613 246//306 247//305
f 350//310 559//614 558//612 247//305
f 350//310 347//290 548//603 559//614
f 561//615 560//616 558//612 559//614
f 548//603 562//617 561//615 559//614
f 548//603 540//594 541//593 562//617
f 564//618 563//619 561//615 562//617
f 541//593 542//596 564//618 562//617
f 566//620 565//621 563//619 564//622
f 542//599 544//598 566//620 564//622
f 568//623 567//624 565//621 566//620
f 544//598 546//602 568//623 566//620
f 352//322 351//321 567//624 568//623
f 546//602 346//287 352//322 568//623
f 569//625 567//624 351//321 353//323
f 348//326 570//626 569//625 353//323
f 572//627 571//628 569//625 570//626
f 549//605 573//629 572//627 570//626
f 348//326 233//293 549//605 570//626
f 575//630 574//631 572//627 573//629
f 552//608 576//632 575//630 573//629
f 549//605 550//604 552//608 573//629
f 578//633 577//634 575//630 576//632
f 580//635 579//636 578//633 576//632
f 552//608 553//607 580//635 576//632
f 582//637 581//638 579//636 580//635
f 553//607 554//610 582//637 580//635
f 584//639 583//640 581//638 582//637
f 554//610 585//641 584//642 582//637
f 587//643 586//644 584//642 585//641
f 556//611 588//645 587//643 585//641
f 554//610 555//609 556//611 585//641
f 590//646 589//647 587//643 588//645
f 283//349 282//348 590//646 588//645
f 556//611 349//304 283//349 588//645
f 592//648 591//649 284//351 285//350
f 245//355 593//650 592//648 285//350
f 245//355 246//306 557//613 593//650
f 577//634 578//633 592//648 593//650
f 557//613 594//651 577//634 593//650
f 557//613 558//612 560//616 594//651
f 574//631 575//630 577//634 594//651
f 560//616 595//652 574//631 594//651
f 560//616 561//615 563//619 595//652
f 571//628 572//627 574//631 595//652
f 563//619 565//621 571//628 595//652
f 578//633 579//636 591//649 592//648
f 596//653 354//358 284//351 591//649
f 579//636 581//638 596//653 591//649
f 597//654 355//360 354//358 596//653
f 581//638 583//640 597//654 596//653
f 598//655 293//362 355//360 597//654
f 583//640 599//656 598//655 597//654
f 601//657 600//658 598//655 599//656
f 586//659 602//660 601//657 599//656
f 583//640 584//639 586//659 599//656
f 604//661 603//662 601//657 602//660
f 589//647 605//663 604//664 602//665
f 586//644 587//643 589//647 602//665
f 607//666 606//667 604//664 605//663
f 609//668 608//669 607//666 605//663
f 589//647 590//646 609//668 605//663
f 306//379 356//378 608//669 609//668
f 590//646 282//348 306//379 609//668
f 600//658 610//670 357//381 307//380
f 293//362 598//655 600//658 307//380
f 611//671 309//383 357//381 610//670
f 603//662 612//672 611//671 610//670
f 600//658 601//657 603//662 610//670
f 382//414 384//673 611//671 612//672
f 606//674 369//398 382//414 612//672
f 603//662 604//661 606//674 612//672
f 384//673 29//388 309//383 611//671
f 51//60 363//390 608//669 356//378
f 363//390 364//389 607//666 608//669
f 364//389 369//398 606//667 607//666
f 565//621 567//624 569//625 571//628
f 480//527 482//531 484//532 486//535
f 397//429 399//433 402//435 404//438
f 399//433 400//432 317//57 319//62
f 374//403 370//401 380//410 381//412
f 370//401 371//400 379//411 380//410
