# pilowlava3D glyph '$' variant 1 — Vincent Wagner / Velvetyne, Free Art License
v 1.17902 2.55983 -0.25469
v 2.39848 0.19809 -0.28996
v 1.43155 4.17281 -0.25691
v 0.90657 2.93026 -0.24570
v 2.14783 3.22020 -0.38982
v 2.14922 2.13799 -0.32086
v 2.12828 1.98702 -0.32632
v 3.99355 4.69584 -0.41462
v 2.39352 5.72232 -0.41123
v 1.64319 0.22869 -0.28567
v 1.86296 1.72712 -0.25767
v 2.00618 1.82406 -0.34378
v 1.86171 5.96475 -0.28568
v 4.22263 4.20142 -0.28008
v 1.10315 2.79712 -0.32708
v 1.02792 2.41943 -0.31420
v 0.84608 2.65097 -0.46995
v 2.45621 0.14374 0.00000
v 2.18002 0.00000 0.00000
v 2.44595 0.44672 -0.33985
v 2.17793 0.12121 -0.34593
v 2.17340 0.39541 -0.49626
v 1.52058 3.97199 0.00000
v 1.50060 3.94873 -0.22443
v 1.62051 4.33324 -0.18654
v 1.25020 4.04531 -0.46007
v 1.09648 4.28615 -0.55254
v 1.33911 4.38448 -0.43523
v 1.41075 3.86360 -0.41248
v 1.60225 4.41384 -0.32100
v 0.92229 2.97648 0.00000
v 0.57448 2.93977 0.00000
v 0.65276 2.86392 -0.31812
v 0.13243 4.12444 -0.32059
v 0.19214 4.45022 -0.38991
v 0.44113 4.19598 -0.56782
v 0.27719 3.88833 -0.37645
v 1.82256 3.43981 -0.42695
v 1.89665 3.57657 -0.38438
v 2.20872 3.45063 -0.36772
v 2.52870 3.34319 -0.35213
v 2.50040 3.19682 -0.35270
v 2.48706 3.10815 -0.20622
v 2.28528 3.08007 -0.19913
v 2.19682 2.93620 -0.19755
v 2.10649 2.94493 -0.34126
v 2.12326 2.06873 -0.35039
v 1.97765 2.12386 -0.34290
v 1.99725 2.28492 -0.30993
v 2.11491 2.27767 -0.28569
v 2.33727 2.07364 -0.29579
v 2.34807 1.97735 -0.32013
v 2.32555 1.90452 -0.20981
v 2.12170 1.87264 -0.22046
v 1.95207 1.98506 -0.36815
v 4.08205 4.81418 -0.26955
v 4.24754 4.46956 -0.29807
v 4.04076 4.40860 -0.46374
v 3.75352 4.67142 -0.44364
v 3.72954 4.86232 -0.24937
v 2.35133 5.49366 -0.42302
v 2.07018 5.53234 -0.47555
v 2.11508 5.78216 -0.45464
v 2.18033 6.01159 -0.30862
v 2.52217 5.81314 -0.28113
v 2.52542 5.44473 -0.24497
v 1.58908 0.17861 0.00000
v 1.85344 0.00806 0.00000
v 1.49850 0.50540 0.00000
v 1.60995 0.47870 -0.32267
v 1.86330 0.13174 -0.34657
v 1.87859 0.40759 -0.47955
v 1.95522 1.73533 -0.32418
v 2.02692 1.54419 -0.31503
v 1.95898 1.54219 -0.17723
v 1.71005 1.62562 -0.19107
v 1.66153 1.69269 -0.31022
v 1.83832 1.83088 -0.35129
v 2.04623 1.74419 -0.32725
v 2.11600 1.74896 -0.20025
v 1.80827 6.01427 0.00000
v 1.65829 5.74919 0.00000
v 1.77957 5.75608 -0.32714
v 4.27963 4.15632 0.00000
v 4.03687 4.07005 -0.34236
v 4.32823 4.49416 0.00000
v 4.13002 4.86180 0.00000
v 3.73280 4.93294 0.00000
v 3.43980 4.77246 -0.25561
v 3.14694 4.75865 0.00000
v 2.89438 4.08696 0.00000
v 2.34801 4.24157 0.00000
v 2.34668 4.26159 -0.16796
v 2.62343 4.20924 -0.20928
v 2.08585 4.32897 -0.15198
v 2.08414 4.37468 -0.27028
v 2.34221 4.31568 -0.29528
v 1.85123 4.35774 0.00000
v 1.85625 4.36510 -0.15668
v 1.86951 4.40307 -0.26820
v 1.88438 4.50801 -0.26214
v 1.98871 4.69488 -0.31318
v 2.06606 4.69153 -0.30217
v 2.11172 4.49603 -0.26875
v 1.59904 4.51784 -0.32427
v 1.59998 4.60060 -0.20672
v 1.84918 4.53308 -0.16876
v 1.27954 4.59582 -0.43868
v 1.28738 4.79778 -0.27112
v 1.60875 4.63998 0.00000
v 0.95995 4.61265 -0.53510
v 0.89360 4.90957 -0.34000
v 0.86836 5.04286 0.00000
v 0.45802 4.80053 -0.39873
v 0.05894 4.53412 0.00000
v 0.03302 4.11143 0.00000
v 0.17563 3.77057 0.00000
v 0.51886 3.66241 -0.35040
v 1.09079 3.36907 0.00000
v 0.81482 3.53978 -0.29073
v 1.11961 3.44494 -0.25264
v 0.91542 3.72864 -0.49187
v 1.19312 3.58264 -0.43420
v 1.47105 3.45927 -0.40134
v 1.40553 3.34883 -0.22941
v 1.37579 3.29223 0.00000
v 1.65094 3.25476 -0.20477
v 1.71277 3.83753 0.00000
v 1.94408 3.67726 -0.22572
v 1.69081 3.80416 -0.22611
v 1.62642 3.70541 -0.39755
v 1.54643 3.58140 -0.45233
v 1.28975 3.72590 -0.48307
v 1.06909 3.91226 -0.53352
v 0.88121 4.14570 -0.60807
v 0.68813 3.91972 -0.56284
v 0.65878 4.48355 -0.60955
v 1.73306 3.33789 -0.37060
v 2.23930 3.55124 -0.22143
v 2.55589 3.46392 0.00000
v 2.54556 3.42944 -0.20195
v 2.84903 3.33819 0.00000
v 2.84332 3.31212 -0.17627
v 2.82770 3.24300 -0.32929
v 3.13098 3.19703 -0.15760
v 3.11697 3.13995 -0.30416
v 3.07335 3.01385 -0.31161
v 2.78685 3.11292 -0.33094
v 3.04672 2.95366 -0.16707
v 2.76082 3.03827 -0.18670
v 2.75095 3.01392 0.00000
v 2.48299 3.08101 0.00000
v 2.30400 3.06431 0.00000
v 3.41837 3.07912 -0.14705
v 3.72897 2.94466 0.00000
v 3.67303 2.64682 0.00000
v 3.26797 2.34671 0.00000
v 3.65404 2.47996 -0.22304
v 3.50331 2.31944 -0.26978
v 3.32314 2.22185 -0.29657
v 3.66618 2.13937 -0.47303
v 3.46379 1.96268 -0.51595
v 3.22743 1.87663 -0.51931
v 3.13448 2.15549 -0.30215
v 3.08011 2.27752 0.00000
v 2.92729 2.10075 -0.28788
v 2.88878 2.20790 0.00000
v 4.02556 2.68754 0.00000
v 4.08904 2.28309 -0.25662
v 3.99120 2.68650 -0.20699
v 3.71606 2.93651 -0.15726
v 3.90936 2.68862 -0.34134
v 3.68555 2.90491 -0.27666
v 3.40385 3.03322 -0.27994
v 3.62720 2.82359 -0.28389
v 3.36119 2.92247 -0.29422
v 3.59012 2.77760 -0.16976
v 3.33435 2.86884 -0.16057
v 3.70351 2.63801 -0.19061
v 3.79337 2.65162 -0.32654
v 3.79564 2.39950 -0.40375
v 3.96031 2.33274 -0.41350
v 3.87161 1.96357 -0.48297
v 4.05348 1.82634 -0.30470
v 3.78651 1.40586 -0.34388
v 3.63844 1.65763 -0.53233
v 3.31616 1.24656 -0.34275
v 3.28503 1.54169 -0.52524
v 2.87834 1.42025 -0.29482
v 2.92688 1.63002 -0.47689
v 2.94771 1.88614 -0.47230
v 2.62141 1.81749 -0.39793
v 2.65211 1.96522 -0.38732
v 2.66548 2.07332 -0.23429
v 2.38737 2.10107 -0.18421
v 2.66687 2.13416 0.00000
v 3.32336 1.11875 0.00000
v 3.85661 1.29535 0.00000
v 2.58803 1.68897 -0.25403
v 2.33305 1.85154 0.00000
v 2.17601 1.85660 0.00000
v 2.14334 1.74138 0.00000
v 2.16791 1.54451 -0.20657
v 2.30304 1.28986 0.00000
v 2.24240 1.28438 -0.24491
v 2.14221 1.28688 -0.38100
v 2.11162 1.54491 -0.32497
v 2.00497 1.29173 -0.38087
v 2.15456 0.99146 -0.45232
v 1.97104 0.99730 -0.45353
v 1.79427 1.02753 -0.27435
v 1.88345 1.29980 -0.23315
v 1.83318 1.31739 0.00000
v 2.39864 1.02979 0.00000
v 2.39740 0.73482 -0.32271
v 2.31134 1.00834 -0.28911
v 1.69102 0.76403 -0.30288
v 1.91788 0.69102 -0.48718
v 2.16911 0.68546 -0.49858
v 1.46222 1.46175 -0.18454
v 1.22383 1.29983 -0.17468
v 1.17479 1.37491 -0.29932
v 1.40210 1.53807 -0.30521
v 1.12146 1.46892 -0.18504
v 1.34491 1.61629 -0.18019
v 1.55695 1.76659 -0.18311
v 1.72075 1.90915 -0.19630
v 1.53827 1.78029 0.00000
v 1.69672 1.91653 0.00000
v 1.80254 2.03986 0.00000
v 1.82434 2.03271 -0.19850
v 1.87802 2.16897 0.00000
v 1.93500 2.31731 -0.16291
v 1.89429 2.15925 -0.18466
v 1.94395 2.51320 -0.15061
v 1.99643 2.50795 -0.27886
v 1.90317 2.72009 0.00000
v 1.91980 2.72000 -0.15656
v 1.86494 2.92595 0.00000
v 1.81914 3.12387 -0.18402
v 1.88434 2.93137 -0.17274
v 1.93358 3.16758 -0.35534
v 1.96684 2.94462 -0.32005
v 1.98166 2.71923 -0.29165
v 2.10155 2.71811 -0.30311
v 2.09486 2.50006 -0.28333
v 2.16367 2.72240 -0.17253
v 2.14696 2.49283 -0.15659
v 2.17505 2.26376 -0.16041
v 2.22261 2.93368 0.00000
v 0.89250 1.36394 0.00000
v 0.71217 1.35126 0.00000
v 0.90038 1.34037 -0.18638
v 0.70041 1.32388 -0.20422
v 0.93073 1.24084 -0.28963
v 0.67230 1.22529 -0.30313
v 0.45645 1.36120 -0.35313
v 0.56699 1.43176 -0.23789
v 0.61458 1.44756 0.00000
v 0.54449 1.62095 -0.29000
v 0.63744 1.59884 0.00000
v 0.95705 1.14644 0.00000
v 0.64204 1.15529 -0.19189
v 0.95500 1.15971 -0.17398
v 0.36214 1.31410 -0.23630
v 0.09915 1.60945 0.00000
v 0.17264 1.61493 -0.28986
v 0.35059 1.62530 -0.41715
v 0.09979 1.97012 -0.32290
v 0.36234 1.93336 -0.47296
v 0.63260 1.84589 -0.33537
v 0.44733 2.20635 -0.50503
v 0.74684 2.04800 -0.34594
v 0.74603 1.78337 0.00000
v 0.00000 1.97973 0.00000
v 0.14575 2.34030 -0.35101
v 0.23871 2.74197 0.00000
v 0.34532 2.66051 -0.35747
v 0.61118 2.45192 -0.50992
v 0.87376 2.24025 -0.34275
v 1.93228 4.71117 -0.18662
v 1.83783 4.95387 0.00000
v 1.89307 4.96068 -0.24319
v 2.00247 4.95029 -0.38173
v 1.84741 5.23128 -0.29425
v 2.03427 5.25061 -0.45017
v 2.22528 5.22413 -0.41540
v 2.13504 4.93956 -0.36621
v 2.36290 5.17552 -0.23623
v 2.23309 4.92975 -0.21714
v 2.12668 4.69331 -0.17479
v 2.15279 4.51190 -0.15926
v 2.35092 4.46802 -0.16477
v 2.34724 4.41681 -0.28969
v 2.61516 4.53763 -0.19974
v 2.60847 4.44668 -0.35297
v 2.61417 4.30507 -0.35703
v 2.89336 4.47865 -0.40988
v 2.89813 4.31348 -0.42113
v 2.90196 4.16521 -0.26294
v 3.19882 4.31419 -0.47154
v 3.18118 4.11073 -0.29953
v 3.15453 4.00836 0.00000
v 3.46375 4.04579 -0.31936
v 3.74902 4.01417 -0.34108
v 3.77180 4.34962 -0.50817
v 3.49156 4.31900 -0.49987
v 3.47731 4.58504 -0.45617
v 3.18971 4.52106 -0.44523
v 3.16574 4.68359 -0.25521
v 2.89009 4.61114 -0.23759
v 2.88571 4.66800 0.00000
v 1.76180 5.20458 0.00000
v 1.68805 5.45643 0.00000
v 1.79356 5.49100 -0.31513
v 2.41772 5.14719 0.00000
v 2.58647 5.43329 0.00000
v 2.58028 5.85810 0.00000
v 2.19560 6.10079 0.00000
v 1.22050 2.85397 0.00000
v 1.24879 2.54664 0.00000
v 1.11099 2.33520 0.00000
v 2.57095 0.46249 0.00000
v 1.48531 4.15285 0.00000
v 1.62625 4.31433 0.00000
v 4.05995 3.93802 0.00000
v 3.41647 4.85229 0.00000
v 2.62424 4.16508 0.00000
v 2.08734 4.31725 0.00000
v 1.30444 4.88124 0.00000
v 0.36931 4.93204 0.00000
v 0.45357 3.54985 0.00000
v 0.77777 3.44584 0.00000
v 1.61978 3.22211 0.00000
v 1.96613 3.72197 0.00000
v 2.25711 3.59296 0.00000
v 3.03680 2.93548 0.00000
v 3.42346 3.09352 0.00000
v 3.13615 3.21600 0.00000
v 3.44023 2.41378 0.00000
v 3.60706 2.51751 0.00000
v 4.16202 2.26384 0.00000
v 3.57652 2.76861 0.00000
v 3.32623 2.85550 0.00000
v 2.39679 2.11289 0.00000
v 4.13925 1.76999 0.00000
v 2.84221 1.33242 0.00000
v 2.55258 1.62895 0.00000
v 2.20735 1.54654 0.00000
v 1.71152 1.05469 0.00000
v 1.91818 1.52913 0.00000
v 1.73103 1.60205 0.00000
v 2.50133 0.76722 0.00000
v 1.59369 0.80871 0.00000
v 1.47929 1.44285 0.00000
v 1.23285 1.28349 0.00000
v 1.33310 1.63560 0.00000
v 1.92232 2.32566 0.00000
v 1.93137 2.51577 0.00000
v 1.79550 3.11323 0.00000
v 2.16002 2.48971 0.00000
v 2.19341 2.25829 0.00000
v 2.18338 2.72504 0.00000
v 1.11183 1.49251 0.00000
v 0.63118 1.13860 0.00000
v 0.32066 1.30544 0.00000
v 0.86659 1.97260 0.00000
v 0.02963 2.38690 0.00000
v 0.98767 2.15634 0.00000
v 1.84012 4.54428 0.00000
v 1.90912 4.70812 0.00000
v 2.27780 4.91228 0.00000
v 2.15114 4.68584 0.00000
v 2.16531 4.51702 0.00000
v 2.35179 4.48774 0.00000
v 3.43245 3.93084 0.00000
v 3.73671 3.88409 0.00000
v 2.61852 4.57380 0.00000
v 1.17902 2.55983 0.25469
v 2.39848 0.19809 0.28996
v 1.43155 4.17281 0.25691
v 0.90657 2.93026 0.24570
v 2.14783 3.22020 0.38982
v 2.14922 2.13799 0.32086
v 2.12828 1.98702 0.32632
v 3.99355 4.69584 0.41462
v 2.39352 5.72232 0.41123
v 1.64319 0.22869 0.28567
v 1.86296 1.72712 0.25767
v 2.00618 1.82406 0.34378
v 1.86171 5.96475 0.28568
v 4.22263 4.20142 0.28008
v 1.10315 2.79712 0.32708
v 1.02792 2.41943 0.31420
v 0.84608 2.65097 0.46995
v 2.44595 0.44672 0.33985
v 2.17793 0.12121 0.34593
v 2.17340 0.39541 0.49626
v 1.50060 3.94873 0.22443
v 1.62051 4.33324 0.18654
v 1.25020 4.04531 0.46007
v 1.09648 4.28615 0.55254
v 1.33911 4.38448 0.43523
v 1.41075 3.86360 0.41248
v 1.60225 4.41384 0.32100
v 0.65276 2.86392 0.31812
v 0.13243 4.12444 0.32059
v 0.19214 4.45022 0.38991
v 0.44113 4.19598 0.56782
v 0.27719 3.88833 0.37645
v 1.82256 3.43981 0.42695
v 1.89665 3.57657 0.38438
v 2.20872 3.45063 0.36772
v 2.52870 3.34319 0.35213
v 2.50040 3.19682 0.35270
v 2.48706 3.10815 0.20622
v 2.28528 3.08007 0.19913
v 2.19682 2.93620 0.19755
v 2.10649 2.94493 0.34126
v 2.12326 2.06873 0.35039
v 1.97765 2.12386 0.34290
v 1.99725 2.28492 0.30993
v 2.11491 2.27767 0.28569
v 2.33727 2.07364 0.29579
v 2.34807 1.97735 0.32013
v 2.32555 1.90452 0.20981
v 2.12170 1.87264 0.22046
v 1.95207 1.98506 0.36815
v 4.08205 4.81418 0.26955
v 4.24754 4.46956 0.29807
v 4.04076 4.40860 0.46374
v 3.75352 4.67142 0.44364
v 3.72954 4.86232 0.24937
v 2.35133 5.49366 0.42302
v 2.07018 5.53234 0.47555
v 2.11508 5.78216 0.45464
v 2.18033 6.01159 0.30862
v 2.52217 5.81314 0.28113
v 2.52542 5.44473 0.24497
v 1.60995 0.47870 0.32267
v 1.86330 0.13174 0.34657
v 1.87859 0.40759 0.47955
v 1.95522 1.73533 0.32418
v 2.02692 1.54419 0.31503
v 1.95898 1.54219 0.17723
v 1.71005 1.62562 0.19107
v 1.66153 1.69269 0.31022
v 1.83832 1.83088 0.35129
v 2.04623 1.74419 0.32725
v 2.11600 1.74896 0.20025
v 1.77957 5.75608 0.32714
v 4.03687 4.07005 0.34236
v 3.43980 4.77246 0.25561
v 2.34668 4.26159 0.16796
v 2.62343 4.20924 0.20928
v 2.08585 4.32897 0.15198
v 2.08414 4.37468 0.27028
v 2.34221 4.31568 0.29528
v 1.85625 4.36510 0.15668
v 1.86951 4.40307 0.26820
v 1.88438 4.50801 0.26214
v 1.98871 4.69488 0.31318
v 2.06606 4.69153 0.30217
v 2.11172 4.49603 0.26875
v 1.59904 4.51784 0.32427
v 1.59998 4.60060 0.20672
v 1.84918 4.53308 0.16876
v 1.27954 4.59582 0.43868
v 1.28738 4.79778 0.27112
v 0.95995 4.61265 0.53510
v 0.89360 4.90957 0.34000
v 0.45802 4.80053 0.39873
v 0.51886 3.66241 0.35040
v 0.81482 3.53978 0.29073
v 1.11961 3.44494 0.25264
v 0.91542 3.72864 0.49187
v 1.19312 3.58264 0.43420
v 1.47105 3.45927 0.40134
v 1.40553 3.34883 0.22941
v 1.65094 3.25476 0.20477
v 1.94408 3.67726 0.22572
v 1.69081 3.80416 0.22611
v 1.62642 3.70541 0.39755
v 1.54643 3.58140 0.45233
v 1.28975 3.72590 0.48307
v 1.06909 3.91226 0.53352
v 0.88121 4.14570 0.60807
v 0.68813 3.91972 0.56284
v 0.65878 4.48355 0.60955
v 1.73306 3.33789 0.37060
v 2.23930 3.55124 0.22143
v 2.54556 3.42944 0.20195
v 2.84332 3.31212 0.17627
v 2.82770 3.24300 0.32929
v 3.13098 3.19703 0.15760
v 3.11697 3.13995 0.30416
v 3.07335 3.01385 0.31161
v 2.78685 3.11292 0.33094
v 3.04672 2.95366 0.16707
v 2.76082 3.03827 0.18670
v 3.41837 3.07912 0.14705
v 3.65404 2.47996 0.22304
v 3.50331 2.31944 0.26978
v 3.32314 2.22185 0.29657
v 3.66618 2.13937 0.47303
v 3.46379 1.96268 0.51595
v 3.22743 1.87663 0.51931
v 3.13448 2.15549 0.30215
v 2.92729 2.10075 0.28788
v 4.08904 2.28309 0.25662
v 3.99120 2.68650 0.20699
v 3.71606 2.93651 0.15726
v 3.90936 2.68862 0.34134
v 3.68555 2.90491 0.27666
v 3.40385 3.03322 0.27994
v 3.62720 2.82359 0.28389
v 3.36119 2.92247 0.29422
v 3.59012 2.77760 0.16976
v 3.33435 2.86884 0.16057
v 3.70351 2.63801 0.19061
v 3.79337 2.65162 0.32654
v 3.79564 2.39950 0.40375
v 3.96031 2.33274 0.41350
v 3.87161 1.96357 0.48297
v 4.05348 1.82634 0.30470
v 3.78651 1.40586 0.34388
v 3.63844 1.65763 0.53233
v 3.31616 1.24656 0.34275
v 3.28503 1.54169 0.52524
v 2.87834 1.42025 0.29482
v 2.92688 1.63002 0.47689
v 2.94771 1.88614 0.47230
v 2.62141 1.81749 0.39793
v 2.65211 1.96522 0.38732
v 2.66548 2.07332 0.23429
v 2.38737 2.10107 0.18421
v 2.58803 1.68897 0.25403
v 2.16791 1.54451 0.20657
v 2.24240 1.28438 0.24491
v 2.14221 1.28688 0.38100
v 2.11162 1.54491 0.32497
v 2.00497 1.29173 0.38087
v 2.15456 0.99146 0.45232
v 1.97104 0.99730 0.45353
v 1.79427 1.02753 0.27435
v 1.88345 1.29980 0.23315
v 2.39740 0.73482 0.32271
v 2.31134 1.00834 0.28911
v 1.69102 0.76403 0.30288
v 1.91788 0.69102 0.48718
v 2.16911 0.68546 0.49858
v 1.46222 1.46175 0.18454
v 1.22383 1.29983 0.17468
v 1.17479 1.37491 0.29932
v 1.40210 1.53807 0.30521
v 1.12146 1.46892 0.18504
v 1.34491 1.61629 0.18019
v 1.55695 1.76659 0.18311
v 1.72075 1.90915 0.19630
v 1.82434 2.03271 0.19850
v 1.93500 2.31731 0.16291
v 1.89429 2.15925 0.18466
v 1.94395 2.51320 0.15061
v 1.99643 2.50795 0.27886
v 1.91980 2.72000 0.15656
v 1.81914 3.12387 0.18402
v 1.88434 2.93137 0.17274
v 1.93358 3.16758 0.35534
v 1.96684 2.94462 0.32005
v 1.98166 2.71923 0.29165
v 2.10155 2.71811 0.30311
v 2.09486 2.50006 0.28333
v 2.16367 2.72240 0.17253
v 2.14696 2.49283 0.15659
v 2.17505 2.26376 0.16041
v 0.90038 1.34037 0.18638
v 0.70041 1.32388 0.20422
v 0.93073 1.24084 0.28963
v 0.67230 1.22529 0.30313
v 0.45645 1.36120 0.35313
v 0.56699 1.43176 0.23789
v 0.54449 1.62095 0.29000
v 0.64204 1.15529 0.19189
v 0.95500 1.15971 0.17398
v 0.36214 1.31410 0.23630
v 0.17264 1.61493 0.28986
v 0.35059 1.62530 0.41715
v 0.09979 1.97012 0.32290
v 0.36234 1.93336 0.47296
v 0.63260 1.84589 0.33537
v 0.44733 2.20635 0.50503
v 0.74684 2.04800 0.34594
v 0.14575 2.34030 0.35101
v 0.34532 2.66051 0.35747
v 0.61118 2.45192 0.50992
v 0.87376 2.24025 0.34275
v 1.93228 4.71117 0.18662
v 1.89307 4.96068 0.24319
v 2.00247 4.95029 0.38173
v 1.84741 5.23128 0.29425
v 2.03427 5.25061 0.45017
v 2.22528 5.22413 0.41540
v 2.13504 4.93956 0.36621
v 2.36290 5.17552 0.23623
v 2.23309 4.92975 0.21714
v 2.12668 4.69331 0.17479
v 2.15279 4.51190 0.15926
v 2.35092 4.46802 0.16477
v 2.34724 4.41681 0.28969
v 2.61516 4.53763 0.19974
v 2.60847 4.44668 0.35297
v 2.61417 4.30507 0.35703
v 2.89336 4.47865 0.40988
v 2.89813 4.31348 0.42113
v 2.90196 4.16521 0.26294
v 3.19882 4.31419 0.47154
v 3.18118 4.11073 0.29953
v 3.46375 4.04579 0.31936
v 3.74902 4.01417 0.34108
v 3.77180 4.34962 0.50817
v 3.49156 4.31900 0.49987
v 3.47731 4.58504 0.45617
v 3.18971 4.52106 0.44523
v 3.16574 4.68359 0.25521
v 2.89009 4.61114 0.23759
v 1.79356 5.49100 0.31513
vn 0.94125 0.15659 -0.29921
vn 0.98812 0.15360 0.00582
vn 0.49985 -0.12875 -0.85649
vn 0.45257 -0.18791 -0.87171
vn 0.75195 -0.59268 -0.28862
vn 0.79243 -0.60993 0.00678
vn 0.79921 -0.60104 0.00383
vn 0.75240 -0.57193 -0.32679
vn 0.92192 -0.27492 -0.27292
vn 0.77210 -0.09457 -0.62843
vn 0.99889 -0.04708 0.00348
vn 0.95658 -0.29139 0.00618
vn 0.40756 -0.87202 -0.27106
vn 0.42770 -0.90391 0.00418
vn 0.20746 -0.97824 0.00214
vn 0.19514 -0.93046 -0.31009
vn 0.41909 -0.32926 -0.84614
vn 0.19442 -0.40436 -0.89369
vn 0.23254 -0.19545 -0.95275
vn 0.81392 -0.20267 -0.54448
vn 0.97237 0.23340 0.00423
vn 0.83197 0.55482 0.00216
vn 0.74453 0.53411 -0.40050
vn 0.38933 -0.85289 -0.34785
vn 0.46351 -0.88609 0.00152
vn 0.71702 -0.69704 0.00355
vn 0.53065 0.05909 -0.84553
vn 0.38832 0.01973 -0.92131
vn 0.47849 -0.14262 -0.86643
vn 0.47936 0.34797 -0.80569
vn 0.29383 -0.77693 -0.55682
vn 0.07481 0.61018 -0.78873
vn -0.05848 0.52724 -0.84770
vn 0.14552 0.96082 -0.23589
vn -0.32587 0.90547 -0.27191
vn -0.33522 0.94214 0.00296
vn 0.14788 0.98899 0.00630
vn 0.43349 0.90113 0.00619
vn 0.43110 0.87013 -0.23878
vn -0.84481 -0.14885 -0.51395
vn -0.73496 0.21800 -0.64211
vn -0.38140 -0.08858 -0.92015
vn -0.64177 -0.43508 -0.63154
vn -0.00888 -0.07279 -0.99731
vn 0.03116 -0.07556 -0.99665
vn 0.27689 0.49816 -0.82168
vn 0.11237 0.08538 -0.98999
vn 0.07538 0.01021 -0.99710
vn 0.05551 -0.83076 -0.55385
vn -0.07011 -0.84412 -0.53155
vn -0.06845 -0.93918 -0.33653
vn 0.08682 -0.93589 -0.34143
vn 0.73005 -0.34604 -0.58931
vn 0.81455 -0.44975 -0.36639
vn 0.88840 -0.30955 -0.33900
vn 0.80543 -0.24914 -0.53778
vn 0.19291 0.27550 -0.94174
vn 0.13273 -0.03160 -0.99065
vn 0.08376 0.08821 -0.99257
vn 0.14418 0.20667 -0.96773
vn 0.08816 0.25365 -0.96327
vn 0.02054 0.23321 -0.97221
vn 0.15196 0.18246 -0.97140
vn 0.10541 -0.45756 -0.88291
vn 0.10000 -0.57309 -0.81337
vn 0.11713 -0.78440 -0.60910
vn 0.10749 -0.39308 -0.91320
vn 0.12211 -0.86873 -0.47999
vn 0.28081 0.44050 -0.85270
vn 0.77876 0.37654 -0.50175
vn 0.82159 0.11554 -0.55825
vn 0.38348 -0.02818 -0.92312
vn -0.02349 0.47887 -0.87757
vn -0.07268 0.86798 -0.49125
vn 0.08854 0.88088 -0.46499
vn 0.42925 0.18290 -0.88447
vn 0.45467 -0.13906 -0.87974
vn -0.17448 -0.02987 -0.98421
vn -0.05108 0.28130 -0.95826
vn 0.21482 0.66747 -0.71298
vn 0.42133 0.72618 -0.54327
vn 0.88167 -0.04226 -0.46997
vn 0.84087 -0.25127 -0.47937
vn -0.94457 -0.20770 -0.25427
vn -0.97565 -0.21925 0.00651
vn -0.99929 0.03745 0.00338
vn -0.77835 -0.01631 -0.62762
vn -0.48213 -0.83388 -0.26870
vn -0.26200 -0.91395 -0.30991
vn -0.27822 -0.96052 0.00224
vn -0.50552 -0.86280 0.00436
vn -0.44277 -0.26428 -0.85680
vn -0.28336 -0.15931 -0.94569
vn -0.24842 -0.36936 -0.89547
vn -0.25491 -0.63155 -0.73223
vn -0.21400 -0.38709 -0.89686
vn -0.67378 -0.45571 -0.58168
vn 0.12602 -0.68927 -0.71346
vn -0.01966 -0.46953 -0.88270
vn 0.00612 -0.65538 -0.75528
vn 0.34118 -0.77338 -0.53430
vn 0.01561 -0.23230 -0.97252
vn -0.02837 -0.14381 -0.98920
vn 0.78841 0.10504 -0.60612
vn 0.92820 0.11807 -0.35286
vn 0.84116 0.17337 -0.51224
vn 0.60946 0.23668 -0.75666
vn 0.34708 0.35902 -0.86639
vn -0.22287 0.41357 -0.88277
vn -0.33457 0.23152 -0.91349
vn -0.86062 0.43375 -0.26682
vn -0.93217 0.18345 -0.31209
vn -0.98082 0.19492 0.00294
vn -0.89100 0.45398 0.00493
vn 0.52283 -0.18343 -0.83247
vn 0.34665 -0.29445 -0.89058
vn 0.85455 -0.44387 -0.26966
vn 0.88872 -0.45843 0.00346
vn 0.44604 -0.89501 0.00208
vn 0.41895 -0.84686 -0.32758
vn 0.98441 0.17587 0.00150
vn 0.88665 0.46243 0.00082
vn 0.14912 0.98882 -0.00228
vn -0.05971 0.99821 -0.00168
vn -0.24653 0.83001 -0.50031
vn -0.29371 0.95589 -0.00052
vn -0.25265 -0.96756 -0.00003
vn -0.23835 -0.93327 -0.26871
vn -0.21293 -0.90397 -0.37082
vn -0.23931 -0.97094 0.00017
vn -0.21463 -0.97670 -0.00007
vn -0.20408 -0.95460 -0.21700
vn -0.19047 -0.91634 -0.35219
vn -0.21943 -0.88651 -0.40738
vn 0.00233 -1.00000 -0.00041
vn -0.00689 -0.97264 -0.23220
vn -0.01491 -0.92150 -0.38808
vn 0.07911 -0.05026 -0.99560
vn 0.07709 -0.23116 -0.96986
vn -0.01588 -0.03566 -0.99924
vn 0.09480 0.02055 -0.99528
vn -0.04700 0.04204 -0.99801
vn 0.28321 0.02003 -0.95885
vn 0.33545 0.79682 -0.50254
vn 0.40695 0.84674 -0.34266
vn 0.28072 0.92791 -0.24532
vn 0.22179 0.90239 -0.36946
vn 0.37457 0.37230 -0.84917
vn 0.42110 0.75912 -0.49640
vn 0.47244 0.88136 0.00017
vn 0.46685 0.88434 0.00068
vn 0.20432 0.36075 -0.91001
vn 0.10302 0.78780 -0.60725
vn 0.07075 0.99749 0.00072
vn -0.38520 0.63184 -0.67261
vn -0.49354 0.78207 -0.38052
vn -0.93359 0.35834 0.00179
vn -0.98453 -0.17523 -0.00115
vn -0.79305 -0.60916 -0.00213
vn -0.37524 -0.69520 -0.61310
vn -0.48491 -0.87456 0.00031
vn -0.28093 -0.95973 -0.00008
vn -0.22679 -0.80986 -0.54101
vn -0.23315 -0.84332 -0.48421
vn -0.26373 -0.96460 0.00016
vn -0.06979 -0.48491 -0.87177
vn -0.11677 -0.53992 -0.83358
vn -0.16669 -0.58421 -0.79430
vn -0.27175 -0.86038 -0.43116
vn -0.29281 -0.95617 -0.00029
vn -0.41785 -0.82239 -0.38610
vn -0.44096 -0.89752 -0.00094
vn 0.51270 0.85857 0.00000
vn 0.41606 0.90934 0.00011
vn 0.38754 0.83274 -0.39542
vn 0.48407 0.78909 -0.37819
vn 0.34835 0.49847 -0.79384
vn 0.08027 -0.05474 -0.99527
vn 0.14667 -0.06466 -0.98707
vn 0.19999 -0.13015 -0.97111
vn 0.12845 -0.07692 -0.98873
vn -0.14402 -0.35355 -0.92426
vn -0.09925 0.21957 -0.97053
vn -0.25910 -0.56332 -0.78456
vn 0.39425 0.91900 0.00006
vn 0.36174 0.84855 -0.38615
vn 0.32273 0.76337 -0.55957
vn 0.38737 0.92193 0.00007
vn 0.35962 0.86815 -0.34202
vn 0.32643 0.80235 -0.49967
vn 0.38591 0.92254 0.00001
vn 0.36709 0.88404 -0.28935
vn 0.34435 0.83729 -0.42471
vn 0.37254 0.89354 -0.25061
vn 0.35527 0.85709 -0.37307
vn 0.07643 -0.00043 -0.99707
vn 0.08654 0.03415 -0.99566
vn -0.22014 -0.85288 -0.47343
vn -0.24872 -0.86955 -0.42663
vn -0.26268 -0.92461 -0.27585
vn -0.24044 -0.92063 -0.30762
vn -0.27179 -0.96236 0.00002
vn -0.25535 -0.96685 0.00004
vn -0.06425 -0.99793 -0.00061
vn 0.11350 -0.99354 -0.00123
vn 0.38650 0.92229 -0.00000
vn 0.41086 0.91170 0.00008
vn 0.39616 0.89021 -0.22490
vn -0.50537 0.86290 -0.00155
vn -0.78996 0.61315 -0.00348
vn -0.71545 0.50477 -0.48305
vn -0.43301 0.69238 -0.57716
vn -0.28646 0.73299 -0.61698
vn -0.33185 0.85201 -0.40490
vn -0.15386 0.36934 -0.91647
vn -0.09904 0.33616 -0.93658
vn -0.13222 0.31831 -0.93872
vn -0.24063 0.75116 -0.61470
vn -0.29535 0.86855 -0.39798
vn -0.20297 0.80881 -0.55193
vn -0.27720 0.96081 -0.00216
vn 0.84097 0.54108 -0.00042
vn 0.99258 0.12156 -0.00052
vn 0.89010 0.12157 -0.43925
vn 0.79024 0.52652 -0.31351
vn 0.52853 0.81922 -0.22256
vn 0.55116 0.83440 0.00016
vn 0.73051 0.50434 -0.46043
vn 0.49981 0.79525 -0.34317
vn 0.37754 0.85983 -0.34373
vn 0.07550 0.06778 -0.99484
vn -0.03941 0.10516 -0.99367
vn -0.28114 -0.86485 -0.41593
vn -0.52188 -0.71257 -0.46893
vn -0.56092 -0.77628 -0.28766
vn -0.29583 -0.91929 -0.25961
vn -0.58096 -0.81394 0.00007
vn -0.30360 -0.95280 0.00005
vn -0.75529 -0.58505 -0.29540
vn -0.78345 -0.62146 0.00003
vn -0.69925 -0.52714 -0.48289
vn -0.85135 0.33600 -0.40286
vn -0.76803 0.27448 -0.57861
vn -0.33415 0.33186 -0.88217
vn -0.91785 0.39692 -0.00266
vn -0.09768 0.18369 -0.97812
vn 0.00360 0.21797 -0.97595
vn 0.38350 0.00668 -0.92352
vn 0.77907 0.11848 -0.61563
vn 0.80822 -0.21807 -0.54701
vn 0.49945 -0.59678 -0.62801
vn 0.20740 -0.17450 -0.96257
vn -0.05438 -0.77843 -0.62537
vn -0.07318 -0.27438 -0.95883
vn -0.49257 -0.68867 -0.53208
vn -0.31830 -0.26425 -0.91042
vn -0.17433 0.38001 -0.90841
vn -0.20880 0.12405 -0.97006
vn -0.01082 0.82189 -0.56954
vn -0.06654 0.90999 -0.40926
vn 0.36202 0.84114 -0.40178
vn 0.33804 0.90365 -0.26295
vn 0.31168 0.95019 0.00058
vn -0.12228 0.99250 -0.00092
vn 0.62824 -0.77802 0.00017
vn -0.04807 -0.99884 0.00026
vn 0.95806 -0.28656 0.00002
vn -0.56605 -0.82437 0.00021
vn -0.69630 -0.71775 0.00163
vn -0.62491 -0.64421 -0.44100
vn -0.68469 -0.72883 0.00304
vn -0.62308 -0.67089 -0.40209
vn -0.54687 -0.60239 -0.58142
vn -0.54340 -0.56224 -0.62338
vn 0.06599 -0.99776 -0.01068
vn 0.98437 -0.17613 -0.00059
vn 0.99849 0.05502 -0.00003
vn 0.95262 0.30416 0.00024
vn 0.90150 0.28190 -0.32839
vn 0.94715 0.32079 -0.00032
vn 0.86814 0.28247 -0.40809
vn 0.78669 0.24626 -0.56611
vn 0.84417 0.25858 -0.46958
vn -0.06369 0.08650 -0.99421
vn -0.02170 0.23121 -0.97266
vn -0.00244 0.18540 -0.98266
vn -0.35314 0.24058 -0.90411
vn -0.75157 0.28802 -0.59345
vn -0.79153 0.33195 -0.51312
vn -0.84457 0.33062 -0.42119
vn -0.87002 0.32802 -0.36806
vn -0.80023 0.29479 -0.52223
vn -0.91685 0.39924 -0.00010
vn -0.92874 0.37072 0.00073
vn -0.93410 0.35701 0.00132
vn -0.33771 -0.94124 -0.00450
vn -0.33604 -0.93461 -0.11656
vn 0.94316 0.33233 -0.00023
vn 0.96042 0.27856 0.00033
vn 0.78475 0.21436 -0.58156
vn 0.81851 0.27933 -0.50202
vn -0.93421 0.35672 -0.00020
vn -0.76319 0.27552 -0.58449
vn -0.31998 0.13093 -0.93833
vn 0.29534 0.10887 -0.94917
vn 0.68773 0.22567 -0.69000
vn 0.54166 -0.84060 0.00001
vn 0.54622 -0.83764 -0.00006
vn 0.50150 -0.77720 -0.38008
vn 0.50285 -0.86438 -0.00013
vn 0.47067 -0.80428 -0.36279
vn 0.40845 -0.69257 -0.59457
vn 0.42931 -0.67399 -0.60120
vn -0.42565 0.62819 -0.65131
vn -0.39776 0.62407 -0.67255
vn -0.48112 0.76905 -0.42082
vn -0.51326 0.75634 -0.40560
vn -0.57066 0.70889 -0.41452
vn -0.47318 0.56994 -0.67176
vn -0.67270 0.61665 -0.40893
vn -0.57418 0.47746 -0.66510
vn -0.56196 0.82717 -0.00004
vn -0.61819 0.78603 0.00004
vn -0.71206 0.70211 0.00007
vn -0.81827 0.57483 -0.00003
vn -0.77821 0.50685 -0.37080
vn -0.92260 0.38575 -0.00004
vn -0.98730 0.15889 -0.00001
vn -0.95255 0.15572 -0.26155
vn -0.88218 0.34994 -0.31512
vn -0.89216 0.14855 -0.42659
vn -0.80426 0.29947 -0.51331
vn -0.68609 0.40505 -0.60433
vn -0.96938 -0.03137 -0.24356
vn -0.91913 -0.02263 -0.39329
vn -0.99922 -0.03936 0.00002
vn -0.98824 -0.15293 -0.00000
vn -0.95361 -0.14051 -0.26624
vn -0.96597 -0.25866 0.00002
vn -0.79195 -0.61059 -0.00046
vn -0.74617 -0.55635 -0.36566
vn -0.92020 -0.23452 -0.31343
vn -0.42693 -0.38038 -0.82039
vn -0.84462 -0.20281 -0.49546
vn -0.89705 -0.12492 -0.42390
vn -0.09791 -0.11189 -0.98888
vn -0.12670 -0.15350 -0.97999
vn 0.00427 -0.00296 -0.99999
vn 0.91551 0.01170 -0.40212
vn 0.89029 -0.11359 -0.44100
vn 0.95219 -0.12429 -0.27909
vn 0.96739 0.01723 -0.25269
vn 0.96128 0.11893 -0.24860
vn 0.91211 0.10234 -0.39696
vn 0.99976 0.02213 0.00005
vn 0.99111 0.13304 -0.00008
vn 0.59942 0.77740 -0.19065
vn 0.59276 0.80538 -0.00080
vn 0.59612 0.73804 -0.31613
vn 0.93383 -0.35771 -0.00002
vn 0.99117 -0.13258 0.00003
vn 0.85001 -0.52677 0.00009
vn -0.29479 0.95556 0.00001
vn -0.52502 0.85109 -0.00001
vn -0.25210 0.85848 -0.44660
vn 0.31449 0.82111 -0.47631
vn -0.07042 0.99752 0.00001
vn -0.18568 0.67968 -0.70962
vn 0.27087 0.62604 -0.73124
vn 0.61045 0.23329 -0.75692
vn 0.79114 0.31448 -0.52460
vn 0.67800 0.73506 -0.00241
vn 0.99866 -0.05140 0.00639
vn 0.77990 -0.21097 -0.58928
vn 0.96487 -0.26269 0.00430
vn 0.24350 -0.96990 -0.00011
vn -0.23519 -0.97195 0.00007
vn -0.19357 -0.91755 -0.34731
vn 0.23982 -0.90795 -0.34369
vn -0.14087 -0.80889 -0.57084
vn 0.22077 -0.78876 -0.57368
vn -0.66480 -0.74702 0.00028
vn -0.57803 -0.69931 -0.42054
vn -0.45297 -0.60621 -0.65370
vn -0.90936 -0.41601 0.00038
vn -0.75995 -0.37168 -0.53323
vn -0.55168 -0.29939 -0.77846
vn -0.50988 -0.06726 -0.85761
vn 0.55697 -0.14288 -0.81815
vn 0.40744 -0.24138 -0.88075
vn 0.36491 -0.23989 -0.89961
vn 0.81324 -0.46478 -0.35018
vn 0.78314 -0.49632 -0.37466
vn 0.86898 -0.49485 0.00090
vn -0.99676 -0.08045 -0.00008
vn -0.95160 0.30735 -0.00008
vn -0.89735 0.28960 -0.33301
vn -0.95408 -0.07683 -0.28954
vn -0.70599 0.70822 0.00015
vn -0.66369 0.66618 -0.34016
vn -0.42021 0.11778 -0.89975
vn -0.27785 0.32488 -0.90402
vn 0.38232 -0.24382 -0.89128
vn 0.76280 -0.52879 -0.37218
vn -0.91574 0.40176 0.00076
vn -0.99603 0.08904 0.00048
vn -0.94557 0.09283 -0.31189
vn -0.88810 0.38145 -0.25645
vn 0.33097 0.94364 0.00164
vn -0.96962 -0.24460 -0.00034
vn -0.88598 -0.20450 -0.41620
vn -0.78302 -0.16539 -0.59961
vn -0.87638 0.09190 -0.47278
vn -0.83862 0.35254 -0.41524
vn -0.81684 -0.18706 -0.54569
vn -0.63681 -0.11621 -0.76221
vn 0.11393 -0.24687 -0.96233
vn 0.14353 -0.16491 -0.97581
vn 0.44226 -0.28477 -0.85048
vn 0.76272 -0.38413 -0.52029
vn 0.78158 -0.44137 -0.44082
vn 0.82307 -0.43225 -0.36840
vn 0.93974 -0.16290 -0.30059
vn 0.88478 -0.14142 -0.44404
vn 0.87736 -0.47983 -0.00016
vn 0.98299 -0.18365 0.00045
vn 0.99409 0.10858 0.00098
vn 0.95993 0.11592 -0.25516
vn 0.90920 0.12234 -0.39799
vn 0.21195 0.95855 -0.19039
vn 0.18465 0.98280 -0.00133
vn -0.05329 0.99858 -0.00061
vn -0.02662 0.96911 -0.24519
vn -0.00093 0.92832 -0.37178
vn 0.23667 0.92571 -0.29504
vn -0.27118 0.90383 -0.33098
vn -0.23951 0.84094 -0.48524
vn -0.15563 0.04408 -0.98683
vn -0.22144 0.04111 -0.97431
vn -0.18079 0.06539 -0.98134
vn -0.18048 -0.82806 -0.53080
vn -0.17353 -0.72992 -0.66114
vn -0.21317 -0.85111 -0.47976
vn -0.15605 -0.63228 -0.75886
vn -0.20773 -0.80106 -0.56138
vn -0.25966 -0.96570 -0.00033
vn -0.25069 -0.96807 -0.00012
vn -0.14605 -0.76926 -0.62202
vn -0.20224 -0.97934 0.00011
vn 0.01493 -0.93357 -0.35809
vn 0.03879 -0.74003 -0.67145
vn 0.05040 -0.13753 -0.98921
vn -0.08775 -0.54314 -0.83504
vn -0.05657 0.15873 -0.98570
vn -0.13528 0.45494 -0.88019
vn -0.11572 0.11533 -0.98656
vn -0.17383 0.45380 -0.87398
vn -0.25829 0.84185 -0.47389
vn -0.22580 0.77955 -0.58422
vn -0.26626 0.87049 -0.41394
vn -0.30384 0.95272 -0.00011
vn -0.30882 0.95112 -0.00031
vn -0.29902 0.95425 0.00025
vn -0.96728 -0.25371 -0.00039
vn -0.98530 -0.17084 0.00037
vn -0.76523 -0.09726 -0.63637
vn 0.86249 -0.50608 0.00004
vn 0.96382 -0.26654 0.00084
vn 1.00000 0.00055 0.00132
vn 0.52557 0.85075 -0.00089
vn -0.19020 0.98174 0.00345
vn -0.18361 0.95579 -0.22966
vn 0.94086 0.13597 0.31030
vn 0.51170 -0.13485 0.84852
vn 0.45563 -0.19021 0.86961
vn 0.75627 -0.56264 0.33390
vn 0.76223 -0.57277 0.30157
vn 0.77434 -0.10229 0.62445
vn 0.91532 -0.28473 0.28480
vn 0.19903 -0.92819 0.31441
vn 0.41483 -0.86604 0.27909
vn 0.23926 -0.20168 0.94978
vn 0.20749 -0.41964 0.88366
vn 0.44293 -0.35534 0.82313
vn 0.75017 0.52661 0.39991
vn 0.82171 -0.20111 0.53324
vn 0.41331 -0.84437 0.34091
vn 0.49589 -0.13477 0.85786
vn 0.38369 0.01428 0.92335
vn 0.53810 0.04583 0.84164
vn 0.48833 0.33999 0.80370
vn 0.35525 -0.40612 0.84194
vn -0.05947 0.52986 0.84600
vn 0.25819 0.79339 0.55125
vn 0.12501 0.88287 0.45267
vn -0.31873 0.90618 0.27792
vn -0.64806 -0.44053 0.62125
vn -0.38982 -0.09291 0.91619
vn -0.74073 0.21197 0.63749
vn -0.85064 -0.15701 0.50176
vn 0.12251 0.07743 0.98944
vn 0.27960 0.49426 0.82312
vn 0.02881 -0.08270 0.99616
vn -0.00896 -0.08138 0.99664
vn 0.08084 0.00983 0.99668
vn 0.07969 -0.93235 0.35267
vn -0.07228 -0.93703 0.34170
vn -0.07688 -0.83705 0.54169
vn 0.04175 -0.81669 0.57556
vn 0.79949 -0.22257 0.55792
vn 0.88817 -0.29712 0.35053
vn 0.81519 -0.42930 0.38879
vn 0.71918 -0.30017 0.62664
vn 0.13497 0.21723 0.96674
vn 0.11387 0.11697 0.98659
vn 0.12182 -0.02060 0.99234
vn 0.18285 0.28354 0.94137
vn 0.01249 0.23197 0.97264
vn 0.08219 0.25233 0.96414
vn 0.15228 0.18751 0.97039
vn -0.22438 -0.80044 0.55583
vn -0.29269 -0.62232 0.72598
vn 0.09883 -0.46029 0.88225
vn 0.12462 -0.04456 0.99120
vn 0.16068 -0.67535 0.71978
vn 0.11966 -0.87791 0.46364
vn 0.38641 -0.02989 0.92184
vn 0.82318 0.11415 0.55619
vn 0.76254 0.38851 0.51729
vn 0.26914 0.43867 0.85740
vn 0.09553 0.87708 0.47074
vn -0.06961 0.86662 0.49409
vn -0.01930 0.47510 0.87972
vn -0.05621 0.28125 0.95799
vn -0.17573 -0.03319 0.98388
vn 0.45287 -0.13676 0.88102
vn 0.42815 0.16776 0.88800
vn 0.43225 0.70812 0.55832
vn 0.21023 0.66592 0.71579
vn 0.83946 -0.24957 0.48272
vn 0.87790 -0.03994 0.47717
vn -0.78230 -0.02620 0.62236
vn -0.93930 -0.21565 0.26684
vn -0.26662 -0.91104 0.31452
vn -0.49052 -0.82620 0.27708
vn -0.26191 -0.38333 0.88570
vn -0.29182 -0.16737 0.94171
vn -0.46854 -0.28844 0.83503
vn -0.67554 -0.41417 0.61001
vn 0.09430 -0.73643 0.66991
vn 0.09179 -0.81794 0.56794
vn 0.20519 -0.72840 0.65370
vn 0.36997 -0.76206 0.53141
vn 0.09521 -0.64236 0.76046
vn 0.21009 -0.11610 0.97076
vn -0.03159 -0.13951 0.98972
vn 0.43280 -0.06762 0.89895
vn 0.83458 0.14827 0.53056
vn 0.92635 0.10208 0.36257
vn 0.78131 -0.05242 0.62194
vn 0.39884 -0.00476 0.91701
vn -0.35329 0.25379 0.90043
vn -0.25327 0.44392 0.85953
vn -0.92957 0.18653 0.31796
vn -0.85439 0.44007 0.27631
vn 0.37052 -0.30910 0.87588
vn 0.56855 -0.20678 0.79624
vn 0.42323 -0.84303 0.33192
vn 0.85554 -0.43826 0.27563
vn -0.24738 0.83009 0.49976
vn -0.20914 -0.90508 0.37025
vn -0.23393 -0.93445 0.26850
vn -0.20441 -0.95451 0.21711
vn -0.21343 -0.88813 0.40703
vn -0.19037 -0.91623 0.35252
vn -0.00225 -0.97347 0.22882
vn -0.00769 -0.92393 0.38248
vn -0.01897 -0.05698 0.99819
vn 0.07431 -0.25994 0.96276
vn 0.07684 -0.07198 0.99444
vn -0.04873 0.04128 0.99796
vn 0.09382 0.01933 0.99540
vn 0.29163 0.01744 0.95637
vn 0.19387 0.89595 0.39961
vn 0.26170 0.92867 0.26283
vn 0.40498 0.84461 0.35018
vn 0.34029 0.78619 0.51586
vn 0.38164 0.36735 0.84817
vn 0.42759 0.75671 0.49454
vn 0.10253 0.78798 0.60710
vn 0.19768 0.36098 0.91138
vn -0.49249 0.78196 0.38209
vn -0.38384 0.63053 0.67461
vn -0.38020 -0.69420 0.61117
vn -0.23425 -0.80810 0.54047
vn -0.23474 -0.84283 0.48429
vn -0.11671 -0.54004 0.83351
vn -0.07468 -0.48439 0.87166
vn -0.27079 -0.86052 0.43149
vn -0.16672 -0.58301 0.79517
vn -0.41545 -0.82291 0.38757
vn 0.48421 0.78911 0.37796
vn 0.38740 0.83270 0.39564
vn 0.34870 0.49813 0.79390
vn 0.07971 -0.05427 0.99534
vn 0.15042 -0.06493 0.98649
vn 0.20541 -0.13168 0.96978
vn 0.12974 -0.07768 0.98850
vn -0.14969 -0.35343 0.92341
vn -0.09828 0.21846 0.97088
vn -0.26263 -0.56335 0.78337
vn 0.36170 0.84865 0.38597
vn 0.32316 0.76350 0.55914
vn 0.35956 0.86821 0.34195
vn 0.32727 0.80217 0.49942
vn 0.36661 0.88419 0.28948
vn 0.34428 0.83720 0.42493
vn 0.35525 0.85709 0.37308
vn 0.37243 0.89358 0.25061
vn 0.07647 -0.00060 0.99707
vn 0.08598 0.03447 0.99570
vn -0.24071 -0.92060 0.30750
vn -0.26286 -0.92451 0.27601
vn -0.24892 -0.86937 0.42690
vn -0.22029 -0.85300 0.47314
vn 0.39630 0.89014 0.22494
vn -0.42892 0.70168 0.56892
vn -0.70916 0.51179 0.48494
vn -0.33322 0.85099 0.40593
vn -0.28657 0.73423 0.61545
vn -0.09964 0.34153 0.93457
vn -0.15349 0.37699 0.91341
vn -0.24384 0.75162 0.61287
vn -0.13487 0.31962 0.93790
vn -0.29632 0.86840 0.39759
vn -0.20112 0.80912 0.55216
vn 0.79204 0.52444 0.31246
vn 0.89193 0.11631 0.43695
vn 0.52822 0.81944 0.22250
vn 0.49996 0.79533 0.34277
vn 0.73287 0.50218 0.45903
vn 0.37784 0.85974 0.34363
vn 0.07452 0.06985 0.99477
vn -0.03584 0.10974 0.99331
vn -0.29536 -0.91950 0.25939
vn -0.56161 -0.77663 0.28537
vn -0.52389 -0.71388 0.46467
vn -0.28054 -0.86528 0.41543
vn -0.75687 -0.58509 0.29124
vn -0.70369 -0.52821 0.47519
vn -0.62412 0.40047 0.67089
vn -0.75286 0.25239 0.60786
vn -0.84633 0.33118 0.41720
vn -0.01245 0.21841 0.97578
vn -0.11139 0.19224 0.97501
vn 0.38453 0.00332 0.92311
vn 0.80832 -0.22007 0.54606
vn 0.78249 0.11116 0.61266
vn 0.20601 -0.17025 0.96363
vn 0.49917 -0.59569 0.62927
vn -0.07227 -0.27565 0.95854
vn -0.05382 -0.77921 0.62445
vn -0.31714 -0.26848 0.90958
vn -0.48933 -0.69171 0.53112
vn -0.16931 0.37972 0.90948
vn -0.22202 0.12230 0.96734
vn -0.06147 0.91292 0.40348
vn -0.00231 0.82852 0.55995
vn 0.33515 0.90629 0.25752
vn 0.34915 0.85125 0.39174
vn -0.62324 -0.64466 0.44271
vn -0.54304 -0.56212 0.62380
vn 0.90216 0.27994 0.32824
vn 0.86806 0.28507 0.40645
vn 0.84616 0.25336 0.46886
vn 0.78829 0.24679 0.56365
vn -0.06456 0.09135 0.99372
vn -0.02175 0.23687 0.97130
vn -0.35333 0.24488 0.90288
vn -0.00257 0.18231 0.98324
vn -0.84478 0.32966 0.42151
vn -0.78994 0.33942 0.51067
vn -0.75321 0.28505 0.59281
vn -0.80509 0.27813 0.52390
vn -0.87299 0.31754 0.37022
vn -0.33512 -0.93601 0.10761
vn 0.81846 0.27943 0.50204
vn 0.78437 0.21120 0.58323
vn -0.76403 0.27769 0.58236
vn -0.32165 0.13159 0.93767
vn 0.29465 0.10442 0.94988
vn 0.68788 0.22390 0.69043
vn 0.50175 -0.77703 0.38010
vn 0.47073 -0.80420 0.36287
vn 0.42965 -0.67366 0.60132
vn 0.40821 -0.69241 0.59493
vn -0.51433 0.75668 0.40361
vn -0.48115 0.76920 0.42051
vn -0.39794 0.62447 0.67207
vn -0.42833 0.62971 0.64807
vn -0.47663 0.56979 0.66945
vn -0.57211 0.70853 0.41313
vn -0.57337 0.47492 0.66761
vn -0.67256 0.61570 0.41058
vn -0.78079 0.50203 0.37192
vn -0.88372 0.34649 0.31462
vn -0.95224 0.15743 0.26164
vn -0.80741 0.29274 0.51224
vn -0.89156 0.15151 0.42681
vn -0.68995 0.39535 0.60636
vn -0.91930 -0.02166 0.39297
vn -0.96944 -0.03076 0.24340
vn -0.95363 -0.14128 0.26576
vn -0.92038 -0.23303 0.31402
vn -0.74579 -0.55490 0.36862
vn -0.84471 -0.19995 0.49648
vn -0.43043 -0.38063 0.81845
vn -0.89726 -0.12643 0.42301
vn -0.09759 -0.11196 0.98891
vn -0.12780 -0.15690 0.97931
vn 0.00629 0.00427 0.99997
vn 0.96725 0.01672 0.25326
vn 0.95198 -0.12341 0.28019
vn 0.88967 -0.11071 0.44298
vn 0.91509 0.01132 0.40310
vn 0.91176 0.10250 0.39772
vn 0.96120 0.11889 0.24892
vn 0.59668 0.77828 0.19559
vn 0.59105 0.73729 0.32719
vn -0.25205 0.85865 0.44631
vn 0.31315 0.81953 0.47991
vn 0.26502 0.62061 0.73798
vn -0.18562 0.68021 0.70912
vn 0.77977 0.31781 0.53941
vn 0.58578 0.23003 0.77714
vn 0.77374 -0.20953 0.59784
vn 0.23962 -0.90737 0.34534
vn -0.19390 -0.91691 0.34884
vn 0.22025 -0.78671 0.57669
vn -0.14166 -0.80693 0.57341
vn -0.58067 -0.69815 0.41881
vn -0.46073 -0.60336 0.65092
vn -0.76037 -0.37309 0.53163
vn -0.55557 -0.30008 0.77543
vn -0.50523 -0.07470 0.85975
vn 0.65374 -0.38083 0.65390
vn 0.41239 -0.25256 0.87530
vn 0.54451 -0.15231 0.82481
vn 0.36535 -0.23897 0.89967
vn 0.78301 -0.49661 0.37452
vn -0.95407 -0.07719 0.28947
vn -0.89728 0.29003 0.33281
vn -0.66402 0.66573 0.34041
vn -0.41852 0.11537 0.90085
vn -0.27986 0.32560 0.90314
vn 0.38019 -0.24366 0.89224
vn 0.76180 -0.52968 0.37296
vn -0.88780 0.38176 0.25703
vn -0.94493 0.09453 0.31332
vn -0.88532 -0.21088 0.41441
vn -0.87503 0.10047 0.47353
vn -0.78448 -0.16837 0.59686
vn -0.83898 0.35206 0.41494
vn -0.63806 -0.14027 0.75710
vn -0.81615 -0.20072 0.54185
vn 0.11391 -0.24258 0.96342
vn 0.44297 -0.28619 0.84963
vn 0.14335 -0.16271 0.97621
vn 0.82251 -0.43426 0.36729
vn 0.78134 -0.44379 0.43882
vn 0.76369 -0.38465 0.51848
vn 0.88594 -0.13764 0.44290
vn 0.93985 -0.16196 0.30074
vn 0.96015 0.11538 0.25457
vn 0.91089 0.11913 0.39509
vn -0.02962 0.96801 0.24917
vn 0.21379 0.95673 0.19737
vn 0.24088 0.91935 0.31109
vn -0.00444 0.92471 0.38064
vn -0.24920 0.83871 0.48421
vn -0.27580 0.90256 0.33064
vn -0.15476 0.04322 0.98701
vn -0.21894 0.04075 0.97489
vn -0.17801 0.06535 0.98186
vn -0.21244 -0.85107 0.48015
vn -0.17456 -0.72887 0.66202
vn -0.18097 -0.82878 0.52950
vn -0.20274 -0.80156 0.56249
vn -0.14455 -0.63252 0.76094
vn -0.14538 -0.76890 0.62262
vn 0.03529 -0.74013 0.67154
vn 0.01480 -0.93369 0.35776
vn 0.04821 -0.13710 0.98938
vn -0.07668 -0.20512 0.97573
vn -0.13587 0.45493 0.88010
vn -0.17332 0.45354 0.87422
vn -0.11559 0.11520 0.98659
vn -0.25859 0.84173 0.47394
vn -0.26693 0.87036 0.41379
vn -0.22808 0.77892 0.58418
vn -0.76611 -0.09988 0.63490
vn -0.18631 0.95363 0.23638
f 1//1 15//1 320//2 321//2
f 1//3 16//4 17//4 15//3
f 1//5 321//6 322//7 16//8
f 2//9 20//10 323//11 18//12
f 2//13 18//14 19//15 21//16
f 2//17 21//18 22//19 20//10
f 3//20 324//21 23//22 24//23
f 3//20 25//24 325//25 324//26
f 3//20 26//27 27//28 28//29
f 3//20 24//23 29//30 26//27
f 3//20 28//29 30//31 25//24
f 4//32 15//32 17//33 33//33
f 4//34 33//35 32//36 31//37
f 4//34 31//37 320//38 15//39
f 34//40 35//41 36//42 37//43
f 5//44 38//45 39//46 40//47
f 5//44 40//47 41//48 42//48
f 5//49 42//50 43//51 44//52
f 5//53 44//54 45//55 46//56
f 6//57 47//58 48//59 49//60
f 51//61 52//62 47//58 6//57
f 6//57 49//60 50//63 51//61
f 7//64 47//58 52//65 53//66
f 55//67 48//59 47//58 7//64
f 7//64 53//66 54//68 55//67
f 8//69 56//70 57//71 58//72
f 8//69 59//73 60//74 56//75
f 9//76 61//77 62//78 63//79
f 9//76 63//79 64//80 65//81
f 9//76 65//82 66//83 61//77
f 10//84 67//85 69//86 70//87
f 10//88 71//89 68//90 67//91
f 10//92 70//87 72//93 71//94
f 11//95 73//96 74//97 75//97
f 77//98 78//99 73//96 11//95
f 11//95 75//100 76//101 77//98
f 12//102 79//103 73//96 78//99
f 54//104 80//105 79//106 12//107
f 12//107 78//108 55//108 54//104
f 13//109 64//80 63//79 83//110
f 13//111 83//112 82//113 81//114
f 14//115 85//116 58//72 57//71
f 14//117 84//118 326//119 85//120
f 14//117 57//71 86//121 84//118
f 86//121 57//71 56//70 87//122
f 87//123 56//75 60//74 88//124
f 88//124 60//74 89//125 327//126
f 92//127 93//128 94//129 328//130
f 92//127 329//131 95//132 93//128
f 95//132 96//133 97//134 93//128
f 95//132 329//131 98//135 99//136
f 95//132 99//136 100//137 96//133
f 101//138 102//139 103//139 104//140
f 100//141 101//138 104//140 96//142
f 100//137 99//136 25//24 30//31
f 100//141 30//143 105//143 101//138
f 105//144 106//145 107//146 101//147
f 105//143 30//143 28//29 108//148
f 105//144 108//148 109//149 106//145
f 109//149 330//150 110//151 106//145
f 109//149 108//148 111//152 112//153
f 109//149 112//153 113//154 330//150
f 113//154 112//153 114//155 331//156
f 115//157 331//156 114//155 35//41
f 115//157 35//41 34//40 116//158
f 116//158 34//40 37//43 117//159
f 117//159 37//43 118//160 332//161
f 333//162 332//161 118//160 120//163
f 333//162 120//163 121//164 119//165
f 121//164 120//163 122//166 123//167
f 121//164 123//167 124//168 125//169
f 121//164 125//169 126//170 119//165
f 126//170 125//169 127//171 334//172
f 128//173 335//174 129//175 130//176
f 128//173 130//176 24//23 23//22
f 130//176 129//175 39//46 131//177
f 130//176 131//177 29//30 24//23
f 131//177 39//46 38//45 132//178
f 131//177 132//178 133//179 29//30
f 133//179 134//180 26//27 29//30
f 133//179 132//178 124//168 123//167
f 133//179 123//167 122//166 134//180
f 134//180 135//181 27//28 26//27
f 134//180 122//166 136//182 135//181
f 136//182 36//42 137//183 135//181
f 136//182 122//166 120//163 118//160
f 136//182 118//160 37//43 36//42
f 137//183 114//155 112//153 111//152
f 137//183 111//152 27//28 135//181
f 137//183 36//42 35//41 114//155
f 132//178 38//45 138//184 124//168
f 129//175 335//174 336//185 139//186
f 129//175 139//186 40//187 39//46
f 139//186 336//185 140//188 141//189
f 139//186 141//189 41//190 40//187
f 141//189 140//188 142//191 143//192
f 141//189 143//192 144//193 41//190
f 144//193 143//192 145//194 146//195
f 144//196 146//197 147//197 148//196
f 144//196 148//196 42//48 41//48
f 148//198 147//199 149//200 150//201
f 148//198 150//201 43//51 42//50
f 150//201 149//200 337//202 151//203
f 150//201 151//203 152//204 43//51
f 152//204 153//205 44//52 43//51
f 339//206 338//207 154//208 145//194
f 339//206 145//194 143//192 142//191
f 340//209 341//210 158//211 159//212
f 340//209 159//212 160//213 157//214
f 160//213 159//212 161//215 162//216
f 160//213 162//216 163//217 164//218
f 160//213 164//218 165//219 157//214
f 165//219 164//218 166//220 167//221
f 168//222 342//223 169//224 170//225
f 168//222 170//225 171//226 155//227
f 171//226 154//208 338//207 155//227
f 171//226 170//225 172//228 173//229
f 171//226 173//229 174//230 154//208
f 174//230 146//195 145//194 154//208
f 174//231 173//232 175//232 176//231
f 174//231 176//231 147//197 146//197
f 176//233 175//234 177//235 178//236
f 176//233 178//236 149//200 147//199
f 178//236 177//235 343//237 344//238
f 178//236 344//238 337//202 149//200
f 343//237 177//235 179//239 156//240
f 179//239 177//235 175//234 180//241
f 179//242 180//243 181//244 158//211
f 179//242 158//211 341//210 156//245
f 181//244 180//246 172//246 182//247
f 181//244 182//247 183//248 161//215
f 181//244 161//215 159//212 158//211
f 183//248 182//249 169//224 184//250
f 183//248 184//250 185//251 186//252
f 183//248 186//252 162//216 161//215
f 186//252 185//251 187//253 188//254
f 186//252 188//254 163//217 162//216
f 188//254 187//253 189//255 190//256
f 188//254 190//256 191//257 163//217
f 191//257 190//256 192//258 193//258
f 191//257 193//259 194//260 166//220
f 191//257 166//220 164//218 163//217
f 194//260 193//259 51//261 195//262
f 194//260 195//262 345//263 196//264
f 194//260 196//264 167//221 166//220
f 198//265 197//266 187//253 185//251
f 198//265 185//251 184//250 346//267
f 197//266 347//268 189//255 187//253
f 347//268 348//269 199//270 189//255
f 199//270 348//269 200//271 53//272
f 199//270 53//272 52//273 192//274
f 199//270 192//274 190//256 189//255
f 200//275 201//275 54//68 53//66
f 201//276 202//277 80//105 54//104
f 202//277 349//278 203//279 80//105
f 203//279 349//278 204//280 205//281
f 203//279 205//281 206//282 207//283
f 203//279 207//283 79//106 80//105
f 207//284 206//285 208//285 74//284
f 207//284 74//284 73//96 79//103
f 208//285 206//285 209//286 210//287
f 208//288 210//287 211//289 212//290
f 208//288 212//290 75//291 74//292
f 212//290 211//289 350//293 213//294
f 212//290 213//294 351//295 75//291
f 351//296 352//296 76//297 75//297
f 214//298 353//299 215//300 216//301
f 214//298 216//301 205//281 204//280
f 354//302 350//293 211//289 217//303
f 354//302 217//303 70//87 69//86
f 217//303 211//289 210//287 218//304
f 217//303 218//304 72//93 70//87
f 218//304 210//287 209//286 219//305
f 218//304 219//305 22//19 72//93
f 219//305 209//306 216//301 215//300
f 219//305 215//300 20//10 22//19
f 216//301 209//306 206//282 205//281
f 215//300 353//299 323//11 20//10
f 352//307 355//308 220//309 76//101
f 220//309 355//308 356//310 221//311
f 220//309 221//311 222//312 223//313
f 220//309 223//313 77//98 76//101
f 223//314 222//315 224//316 225//317
f 223//314 225//317 226//318 77//319
f 226//318 227//320 78//321 77//319
f 226//318 225//317 357//322 228//323
f 226//318 228//323 229//324 227//320
f 229//324 230//325 231//326 227//320
f 232//327 358//328 233//329 234//330
f 232//327 234//330 231//326 230//325
f 234//330 233//329 49//331 48//332
f 234//330 48//332 55//333 231//326
f 233//329 235//334 236//335 49//331
f 233//329 358//328 359//336 235//334
f 359//336 237//337 238//338 235//334
f 239//339 360//340 240//341 241//342
f 239//339 241//342 238//338 237//337
f 241//342 240//341 242//343 243//344
f 241//342 243//344 244//345 238//338
f 244//346 243//347 46//347 245//346
f 244//346 245//346 246//348 236//348
f 244//345 236//335 235//334 238//338
f 246//349 245//350 247//351 248//352
f 246//349 248//352 249//353 50//354
f 246//348 50//63 49//60 236//348
f 249//353 248//352 361//355 362//356
f 249//357 362//358 345//263 195//262
f 249//357 195//262 51//261 50//359
f 250//360 363//361 247//351 45//55
f 250//360 45//55 44//54 153//362
f 363//361 361//355 248//352 247//351
f 247//351 245//350 46//56 45//55
f 240//341 127//171 138//184 242//343
f 240//341 360//340 334//172 127//171
f 251//363 364//364 224//316 253//365
f 251//363 253//365 254//366 252//367
f 254//366 253//365 255//368 256//369
f 254//366 256//369 257//370 258//371
f 254//366 258//371 259//372 252//372
f 259//373 258//371 260//374 261//375
f 262//376 365//377 263//378 264//379
f 262//376 264//379 221//311 356//310
f 264//379 263//378 256//380 255//381
f 264//379 255//381 222//312 221//311
f 263//378 365//377 366//382 265//383
f 263//378 265//383 257//384 256//380
f 265//383 366//382 266//385 267//386
f 265//383 267//386 268//387 257//384
f 268//387 267//386 269//388 270//388
f 268//389 270//390 271//390 260//374
f 268//389 260//374 258//371 257//370
f 271//390 270//390 272//391 273//391
f 271//392 273//393 367//393 274//394
f 271//392 274//394 261//375 260//374
f 275//395 368//396 276//397 269//398
f 275//395 269//398 267//386 266//385
f 276//397 368//396 277//399 278//400
f 276//401 278//402 279//402 272//401
f 276//401 272//401 270//388 269//388
f 279//402 278//402 33//33 17//33
f 279//403 17//4 16//4 280//403
f 279//403 280//403 273//391 272//391
f 280//404 16//8 322//7 369//404
f 280//404 369//404 367//393 273//393
f 278//400 277//399 32//36 33//35
f 255//368 253//365 224//316 222//315
f 364//364 357//322 225//317 224//316
f 231//326 55//333 78//321 227//320
f 193//258 192//258 52//62 51//61
f 184//250 169//224 342//223 346//267
f 182//249 172//228 170//225 169//224
f 180//246 175//232 173//232 172//246
f 127//171 125//169 124//168 138//184
f 370//405 371//406 281//407 107//408
f 370//409 107//146 106//145 110//151
f 281//407 371//406 282//410 283//411
f 281//407 283//411 284//412 102//413
f 281//407 102//413 101//414 107//408
f 284//412 283//411 285//415 286//416
f 284//417 286//418 287//419 288//417
f 284//417 288//417 103//139 102//139
f 288//420 287//419 289//421 290//422
f 288//420 290//422 291//423 103//424
f 291//423 290//422 372//425 373//426
f 291//423 373//426 374//427 292//428
f 291//423 292//428 104//429 103//424
f 292//430 374//431 375//432 293//433
f 292//430 293//433 294//434 104//435
f 294//434 293//433 295//436 296//437
f 294//438 296//439 297//439 97//438
f 294//438 97//438 96//142 104//140
f 297//439 296//439 298//440 299//440
f 297//441 299//442 300//443 94//129
f 297//441 94//129 93//128 97//134
f 300//443 299//442 301//444 302//445
f 300//443 302//445 303//446 91//447
f 300//443 91//447 328//130 94//129
f 303//446 302//445 304//448 376//449
f 377//450 305//451 85//120 326//119
f 377//450 376//449 304//448 305//451
f 305//451 306//452 58//72 85//116
f 305//451 304//448 307//453 306//452
f 307//454 308//455 59//73 306//452
f 307//453 304//448 302//445 301//444
f 307//454 301//456 309//457 308//455
f 309//457 310//458 89//125 308//455
f 309//457 301//456 299//440 298//440
f 309//457 298//459 311//460 310//458
f 311//460 312//461 90//462 310//458
f 311//460 298//459 296//437 295//436
f 311//460 295//436 378//463 312//461
f 378//463 295//436 293//433 375//432
f 313//464 314//465 315//466 285//415
f 313//464 285//415 283//411 282//410
f 315//466 314//465 82//113 83//112
f 315//466 83//110 63//79 62//78
f 315//466 62//78 286//416 285//415
f 316//467 289//421 66//83 317//468
f 316//467 372//425 290//422 289//421
f 317//468 66//83 65//82 318//469
f 318//470 65//81 64//80 319//470
f 319//471 64//472 13//472 81//471
f 310//458 90//462 327//126 89//125
f 308//455 89//125 60//74 59//73
f 306//452 59//73 8//69 58//72
f 289//421 287//419 61//77 66//83
f 287//419 286//418 62//78 61//77
f 111//152 108//148 28//29 27//28
f 99//136 98//135 325//25 25//24
f 72//93 22//19 21//18 71//94
f 71//89 21//16 19//15 68//90
f 242//343 138//184 38//45 5//44
f 242//343 5//44 46//347 243//347
f 321//2 320//2 393//473 379//473
f 393//474 395//475 394//475 379//474
f 394//476 322//7 321//6 379//477
f 18//12 323//11 396//478 380//479
f 397//480 19//15 18//14 380//481
f 396//478 398//482 397//483 380//484
f 399//485 23//22 324//21 381//486
f 324//26 325//25 400//487 381//486
f 403//488 402//489 401//490 381//486
f 401//490 404//491 399//485 381//486
f 400//487 405//492 403//488 381//486
f 406//493 395//493 393//494 382//495
f 31//37 32//36 406//496 382//495
f 393//494 320//38 31//37 382//495
f 410//497 409//498 408//499 407//500
f 413//501 412//502 411//503 383//504
f 415//505 414//505 413//501 383//504
f 417//506 416//507 415//508 383//509
f 419//510 418//511 417//512 383//513
f 422//514 421//515 420//516 384//517
f 384//517 420//516 425//518 424//519
f 424//519 423//520 422//514 384//517
f 426//521 425//522 420//516 385//523
f 385//523 420//516 421//515 428//524
f 428//525 427//526 426//521 385//523
f 431//527 430//528 429//529 386//530
f 429//531 433//532 432//533 386//530
f 436//534 435//535 434//536 387//537
f 438//538 437//539 436//534 387//537
f 434//536 439//540 438//541 387//537
f 440//542 69//86 67//85 388//543
f 67//91 68//90 441//544 388//545
f 441//546 442//547 440//542 388//548
f 445//549 444//549 443//549 389//549
f 389//550 443//551 448//551 447//552
f 447//552 446//553 445//554 389//550
f 448//555 443//556 449//556 390//557
f 390//557 449//558 450//559 427//560
f 427//560 428//561 448//555 390//557
f 451//562 436//534 437//539 391//563
f 81//114 82//113 451//564 391//565
f 430//528 431//527 452//566 392//567
f 452//568 326//119 84//118 392//569
f 84//118 86//121 430//528 392//569
f 87//122 429//529 430//528 86//121
f 88//124 433//532 429//531 87//123
f 327//126 453//570 433//532 88//124
f 328//130 455//571 454//572 92//127
f 454//572 456//573 329//131 92//127
f 454//572 458//574 457//575 456//573
f 459//576 98//135 329//131 456//573
f 457//575 460//577 459//576 456//573
f 464//578 463//579 462//579 461//580
f 457//581 464//578 461//580 460//582
f 405//492 400//487 459//576 460//577
f 461//580 465//583 405//492 460//582
f 461//584 467//585 466//586 465//587
f 468//588 403//488 405//492 465//583
f 466//586 469//589 468//588 465//587
f 466//586 110//151 330//150 469//589
f 471//590 470//591 468//588 469//589
f 330//150 113//154 471//590 469//589
f 331//592 472//593 471//590 113//154
f 408//499 472//593 331//592 115//157
f 116//158 407//500 408//499 115//157
f 117//159 410//497 407//500 116//158
f 332//161 473//594 410//497 117//159
f 474//595 473//594 332//161 333//162
f 119//165 475//596 474//595 333//162
f 477//597 476//598 474//595 475//596
f 479//599 478//600 477//597 475//596
f 119//165 126//170 479//599 475//596
f 334//172 480//601 479//599 126//170
f 482//602 481//603 335//174 128//173
f 23//22 399//485 482//602 128//173
f 483//604 412//502 481//603 482//602
f 399//485 404//491 483//604 482//602
f 484//605 411//503 412//502 483//604
f 404//491 485//606 484//605 483//604
f 404//491 401//490 486//607 485//606
f 477//597 478//600 484//605 485//606
f 486//607 476//598 477//597 485//606
f 401//490 402//489 487//608 486//607
f 487//608 488//609 476//598 486//607
f 487//608 489//610 409//498 488//609
f 473//594 474//595 476//598 488//609
f 409//498 410//497 473//594 488//609
f 470//591 471//590 472//593 489//610
f 487//608 402//489 470//591 489//610
f 472//593 408//499 409//498 489//610
f 478//600 490//611 411//503 484//605
f 491//612 336//185 335//174 481//603
f 412//502 413//613 491//612 481//603
f 492//614 140//188 336//185 491//612
f 413//613 414//615 492//614 491//612
f 493//616 142//191 140//188 492//614
f 414//615 494//617 493//616 492//614
f 496//618 495//619 493//616 494//617
f 498//620 497//621 496//621 494//620
f 414//505 415//505 498//620 494//620
f 500//622 499//623 497//624 498//625
f 415//508 416//507 500//622 498//625
f 151//203 337//202 499//623 500//622
f 416//507 152//204 151//203 500//622
f 416//507 417//506 153//205 152//204
f 495//619 501//626 338//207 339//206
f 142//191 493//616 495//619 339//206
f 503//627 502//628 341//210 340//209
f 157//629 504//630 503//627 340//209
f 506//631 505//632 503//627 504//630
f 508//633 507//634 506//631 504//630
f 157//629 165//635 508//633 504//630
f 167//221 509//636 508//633 165//635
f 511//637 510//638 342//223 168//222
f 155//227 512//639 511//637 168//222
f 155//227 338//207 501//626 512//639
f 514//640 513//641 511//637 512//639
f 501//626 515//642 514//640 512//639
f 501//626 495//619 496//618 515//642
f 517//643 516//644 514//644 515//643
f 496//621 497//621 517//643 515//643
f 519//645 518//646 516//647 517//648
f 497//624 499//623 519//645 517//648
f 344//238 343//237 518//646 519//645
f 499//623 337//202 344//238 519//645
f 156//240 520//649 518//646 343//237
f 521//650 516//647 518//646 520//649
f 502//628 522//651 521//652 520//653
f 156//245 341//210 502//628 520//653
f 523//654 513//655 521//655 522//654
f 505//632 524//656 523//654 522//654
f 502//628 503//627 505//632 522//651
f 525//657 510//638 523//658 524//656
f 527//659 526//660 525//657 524//656
f 505//632 506//631 527//659 524//656
f 529//661 528//662 526//660 527//659
f 506//631 507//634 529//661 527//659
f 531//663 530//664 528//662 529//661
f 507//634 532//665 531//663 529//661
f 534//666 533//666 531//663 532//665
f 509//636 535//667 534//668 532//665
f 507//634 508//633 509//636 532//665
f 536//669 424//670 534//668 535//667
f 196//264 345//263 536//669 535//667
f 509//636 167//221 196//264 535//667
f 526//660 528//662 197//266 198//265
f 346//267 525//657 526//660 198//265
f 528//662 530//664 347//268 197//266
f 530//664 537//671 348//269 347//268
f 426//521 200//271 348//269 537//671
f 533//672 425//522 426//521 537//671
f 530//664 531//663 533//672 537//671
f 426//521 427//526 201//275 200//275
f 427//560 450//559 202//277 201//276
f 450//559 538//673 349//278 202//277
f 539//674 204//280 349//278 538//673
f 541//675 540//676 539//674 538//673
f 450//559 449//558 541//675 538//673
f 444//677 542//678 540//678 541//677
f 449//556 443//556 444//677 541//677
f 544//679 543//680 540//678 542//678
f 546//681 545//682 544//679 542//683
f 444//684 445//685 546//681 542//683
f 213//294 350//293 545//682 546//681
f 445//685 351//295 213//294 546//681
f 445//686 446//686 352//296 351//296
f 548//687 547//688 353//299 214//298
f 204//280 539//674 548//687 214//298
f 549//689 545//682 350//293 354//302
f 69//86 440//542 549//689 354//302
f 550//690 544//679 545//682 549//689
f 440//542 442//547 550//690 549//689
f 551//691 543//680 544//679 550//690
f 442//547 398//482 551//691 550//690
f 547//688 548//687 543//692 551//691
f 398//482 396//478 547//688 551//691
f 539//674 540//676 543//692 548//687
f 396//478 323//11 353//299 547//688
f 446//553 552//693 355//308 352//307
f 553//694 356//310 355//308 552//693
f 555//695 554//696 553//694 552//693
f 446//553 447//552 555//695 552//693
f 557//697 556//698 554//699 555//700
f 447//701 558//702 557//697 555//700
f 447//701 448//703 559//704 558//702
f 228//323 357//322 557//697 558//702
f 559//704 229//324 228//323 558//702
f 559//704 560//705 230//325 229//324
f 562//706 561//707 358//328 232//327
f 230//325 560//705 562//706 232//327
f 421//708 422//709 561//707 562//706
f 560//705 428//710 421//708 562//706
f 422//709 564//711 563//712 561//707
f 563//712 359//336 358//328 561//707
f 563//712 565//713 237//337 359//336
f 567//714 566//715 360//340 239//339
f 237//337 565//713 567//714 239//339
f 569//716 568//717 566//715 567//714
f 565//713 570//718 569//716 567//714
f 571//719 419//720 569//720 570//719
f 564//721 572//721 571//719 570//719
f 565//713 563//712 564//711 570//718
f 574//722 573//723 571//724 572//725
f 423//726 575//727 574//722 572//725
f 564//721 422//514 423//520 572//721
f 362//356 361//355 574//722 575//727
f 536//669 345//263 362//358 575//728
f 423//729 424//670 536//669 575//728
f 418//511 573//723 363//361 250//360
f 153//362 417//512 418//511 250//360
f 573//723 574//722 361//355 363//361
f 418//511 419//510 571//724 573//723
f 568//717 490//611 480//601 566//715
f 480//601 334//172 360//340 566//715
f 576//730 556//698 364//364 251//363
f 252//367 577//731 576//730 251//363
f 579//732 578//733 576//730 577//731
f 581//734 580//735 579//732 577//731
f 252//372 259//372 581//734 577//731
f 261//375 582//736 581//734 259//373
f 584//737 583//738 365//377 262//376
f 356//310 553//694 584//737 262//376
f 578//739 579//740 583//738 584//737
f 553//694 554//696 578//739 584//737
f 585//741 366//382 365//377 583//738
f 579//740 580//742 585//741 583//738
f 586//743 266//385 366//382 585//741
f 580//742 587//744 586//743 585//741
f 589//745 588//745 586//743 587//744
f 582//736 590//746 589//747 587//748
f 580//735 581//734 582//736 587//748
f 592//749 591//749 589//747 590//746
f 274//394 367//750 592//750 590//746
f 582//736 261//375 274//394 590//746
f 588//751 593//752 368//396 275//395
f 266//385 586//743 588//751 275//395
f 594//753 277//399 368//396 593//752
f 591//754 595//755 594//755 593//754
f 588//745 589//745 591//754 593//754
f 395//493 406//493 594//755 595//755
f 596//756 394//475 395//475 595//756
f 591//749 592//749 596//756 595//756
f 369//757 322//7 394//476 596//757
f 592//750 367//750 369//757 596//757
f 406//496 32//36 277//399 594//753
f 554//699 556//698 576//730 578//733
f 556//698 557//697 357//322 364//364
f 559//704 448//703 428//710 560//705
f 424//519 425//518 533//666 534//666
f 346//267 342//223 510//638 525//657
f 510//638 511//637 513//641 523//658
f 513//655 514//644 516//644 521//655
f 490//611 478//600 479//599 480//601
f 467//758 597//759 371//406 370//405
f 110//151 466//586 467//585 370//409
f 598//760 282//410 371//406 597//759
f 462//761 599//762 598//760 597//759
f 467//758 461//763 462//761 597//759
f 601//764 600//765 598//760 599//762
f 603//766 602//767 601//768 599//766
f 462//579 463//579 603//766 599//766
f 605//769 604//770 602//767 603//771
f 463//772 606//773 605//769 603//771
f 373//426 372//425 605//769 606//773
f 607//774 374//427 373//426 606//773
f 463//772 464//775 607//774 606//773
f 608//776 375//432 374//431 607//777
f 464//778 609//779 608//776 607//777
f 611//780 610//781 608//776 609//779
f 458//782 612//783 611//783 609//782
f 464//578 457//581 458//782 609//782
f 614//784 613//784 611//783 612//783
f 455//571 615//785 614//786 612//787
f 458//574 454//572 455//571 612//787
f 617//788 616//789 614//786 615//785
f 91//447 303//446 617//788 615//785
f 455//571 328//130 91//447 615//785
f 376//449 618//790 617//788 303//446
f 326//119 452//568 619//791 377//792
f 619//791 618//790 376//449 377//792
f 452//566 431//527 620//793 619//791
f 620//793 621//794 618//790 619//791
f 620//793 432//533 622//795 621//794
f 616//789 617//788 618//790 621//794
f 622//795 623//796 616//797 621//794
f 622//795 453//570 624//798 623//796
f 613//784 614//784 616//797 623//796
f 624//798 625//799 613//800 623//796
f 624//798 90//462 312//461 625//799
f 610//781 611//780 613//800 625//799
f 312//461 378//463 610//781 625//799
f 375//432 608//776 610//781 378//463
f 600//765 626//801 314//465 313//464
f 282//410 598//760 600//765 313//464
f 451//564 82//113 314//465 626//801
f 435//535 436//534 451//562 626//801
f 600//765 601//764 435//535 626//801
f 317//468 439//540 604//770 316//467
f 604//770 605//769 372//425 316//467
f 318//469 438//541 439//540 317//468
f 319//470 437//539 438//538 318//470
f 81//471 391//802 437//802 319//471
f 453//570 327//126 90//462 624//798
f 432//533 433//532 453//570 622//795
f 431//527 386//530 432//533 620//793
f 439//540 434//536 602//767 604//770
f 434//536 435//535 601//768 602//767
f 402//489 403//488 468//588 470//591
f 400//487 325//25 98//135 459//576
f 441//546 397//483 398//482 442//547
f 68//90 19//15 397//480 441//544
f 383//504 411//503 490//611 568//717
f 569//720 419//720 383//504 568//717
