# pilowlava3D glyph '"' variant 1 — Vincent Wagner / Velvetyne, Free Art License
v 0.02023 0.17283 -0.13735
v 1.30193 1.13050 -0.22703
v 0.64355 1.50508 -0.35418
v 0.00000 0.16356 -0.00000
v 0.01201 0.05856 -0.00000
v 0.05931 0.26783 -0.18573
v 0.09024 0.19826 -0.29162
v 0.02667 0.08112 -0.16849
v 0.23822 0.14132 -0.26406
v 0.23680 0.08584 -0.15255
v 0.10730 0.01747 -0.16100
v 0.15437 0.13777 -0.31504
v 1.34055 1.11741 -0.00000
v 1.23927 0.98644 -0.28077
v 1.10883 1.21544 -0.41868
v 1.20421 1.36012 -0.25298
v 0.60915 1.58871 -0.21341
v 0.93196 1.54581 -0.22568
v 0.88408 1.42931 -0.39775
v 0.77199 1.28080 -0.49118
v 0.52066 1.38836 -0.40755
v 0.36064 1.45122 -0.22891
v 0.44299 1.18331 -0.42214
v 0.28206 1.21613 -0.22935
v 0.31825 1.47880 -0.00000
v 0.94534 1.58003 -0.00000
v 1.23866 1.39830 -0.00000
v 1.00066 0.65737 -0.00000
v 0.95709 0.73027 -0.27470
v 1.10072 0.83638 -0.29250
v 0.84491 0.91660 -0.47249
v 0.97464 1.06286 -0.47370
v 0.66296 1.09381 -0.51106
v 0.71268 0.75863 -0.44845
v 0.55994 0.89427 -0.49719
v 0.38777 0.97693 -0.41599
v 0.45586 0.69598 -0.46755
v 0.31830 0.77363 -0.39636
v 0.19862 0.81525 -0.21733
v 0.24571 1.01063 -0.22314
v 0.14442 0.82696 -0.00000
v 0.15433 0.62326 -0.21114
v 0.71088 0.43892 -0.00000
v 0.68121 0.49021 -0.23061
v 0.81903 0.61527 -0.25100
v 0.58604 0.59681 -0.41641
v 0.53763 0.36049 -0.21217
v 0.46082 0.43407 -0.37953
v 0.35817 0.50922 -0.43274
v 0.33173 0.27077 -0.33154
v 0.25235 0.32387 -0.38771
v 0.17917 0.38388 -0.35086
v 0.25421 0.57830 -0.37662
v 0.11087 0.44070 -0.20936
v 0.40979 0.20180 -0.00000
v 0.56161 0.32068 -0.00000
v 0.38901 0.22732 -0.18911
v 0.38901 0.22732 0.18911
v 0.11087 0.44070 0.20936
v 0.25421 0.57830 0.37662
v 0.17917 0.38388 0.35086
v 0.25235 0.32387 0.38771
v 0.33173 0.27077 0.33154
v 0.35817 0.50922 0.43274
v 0.46082 0.43407 0.37953
v 0.53763 0.36049 0.21217
v 0.58604 0.59681 0.41641
v 0.81903 0.61527 0.25100
v 0.68121 0.49021 0.23061
v 0.15433 0.62326 0.21114
v 0.24571 1.01063 0.22314
v 0.19862 0.81525 0.21733
v 0.31830 0.77363 0.39636
v 0.45586 0.69598 0.46755
v 0.38777 0.97693 0.41599
v 0.55994 0.89427 0.49719
v 0.71268 0.75863 0.44845
v 0.66296 1.09381 0.51106
v 0.97464 1.06286 0.47370
v 0.84491 0.91660 0.47249
v 1.10072 0.83638 0.29250
v 0.95709 0.73027 0.27470
v 0.28206 1.21613 0.22935
v 0.44299 1.18331 0.42214
v 0.36064 1.45122 0.22891
v 0.52066 1.38836 0.40755
v 0.77199 1.28080 0.49118
v 0.88408 1.42931 0.39775
v 0.93196 1.54581 0.22568
v 0.60915 1.58871 0.21341
v 1.20421 1.36012 0.25298
v 1.10883 1.21544 0.41868
v 1.23927 0.98644 0.28077
v 0.15437 0.13777 0.31504
v 0.10730 0.01747 0.16100
v 0.23680 0.08584 0.15255
v 0.23822 0.14132 0.26406
v 0.02667 0.08112 0.16849
v 0.09024 0.19826 0.29162
v 0.05931 0.26783 0.18573
v 0.64355 1.50508 0.35418
v 1.30193 1.13050 0.22703
v 0.02023 0.17283 0.13735
v 0.11140 0.00000 -0.00000
v 0.24626 0.07048 -0.00000
v 0.06532 0.45929 -0.00000
v 0.85658 0.55339 -0.00000
v 0.10413 0.63620 -0.00000
v 0.18590 1.02399 -0.00000
v 1.15044 0.76010 -0.00000
v 0.60272 1.62051 -0.00000
v 0.22209 1.23452 -0.00000
v 1.28429 0.90968 -0.00000
v 0.03119 0.30400 -0.00000
v 1.55450 0.17283 -0.13735
v 2.83618 1.13050 -0.22703
v 2.17783 1.50508 -0.35418
v 1.53427 0.16356 -0.00000
v 1.54628 0.05856 -0.00000
v 1.59357 0.26783 -0.18573
v 1.62450 0.19826 -0.29162
v 1.56094 0.08112 -0.16849
v 1.77248 0.14132 -0.26406
v 1.77106 0.08584 -0.15255
v 1.64156 0.01747 -0.16100
v 1.68863 0.13777 -0.31504
v 2.87480 1.11741 -0.00000
v 2.77354 0.98644 -0.28077
v 2.64308 1.21544 -0.41868
v 2.73848 1.36012 -0.25298
v 2.14340 1.58871 -0.21341
v 2.46622 1.54581 -0.22568
v 2.41833 1.42931 -0.39775
v 2.30624 1.28080 -0.49118
v 2.05492 1.38836 -0.40755
v 1.89490 1.45122 -0.22891
v 1.97725 1.18331 -0.42214
v 1.81631 1.21613 -0.22935
v 1.85251 1.47880 -0.00000
v 2.47960 1.58003 -0.00000
v 2.77292 1.39830 -0.00000
v 2.53491 0.65737 -0.00000
v 2.49135 0.73027 -0.27470
v 2.63498 0.83638 -0.29250
v 2.37918 0.91660 -0.47249
v 2.50890 1.06286 -0.47370
v 2.19722 1.09381 -0.51106
v 2.24693 0.75863 -0.44845
v 2.09421 0.89427 -0.49719
v 1.92203 0.97693 -0.41599
v 1.99013 0.69598 -0.46755
v 1.85257 0.77363 -0.39636
v 1.73288 0.81525 -0.21733
v 1.77998 1.01063 -0.22314
v 1.67868 0.82696 -0.00000
v 1.68860 0.62326 -0.21114
v 2.24515 0.43892 -0.00000
v 2.21548 0.49021 -0.23061
v 2.35329 0.61527 -0.25100
v 2.12030 0.59681 -0.41641
v 2.07188 0.36049 -0.21217
v 1.99507 0.43407 -0.37953
v 1.89244 0.50922 -0.43274
v 1.86598 0.27077 -0.33154
v 1.78662 0.32387 -0.38771
v 1.71342 0.38388 -0.35086
v 1.78847 0.57830 -0.37662
v 1.64514 0.44070 -0.20936
v 1.94405 0.20180 -0.00000
v 2.09587 0.32068 -0.00000
v 1.92328 0.22732 -0.18911
v 1.92328 0.22732 0.18911
v 1.64514 0.44070 0.20936
v 1.78847 0.57830 0.37662
v 1.71342 0.38388 0.35086
v 1.78662 0.32387 0.38771
v 1.86598 0.27077 0.33154
v 1.89244 0.50922 0.43274
v 1.99507 0.43407 0.37953
v 2.07188 0.36049 0.21217
v 2.12030 0.59681 0.41641
v 2.35329 0.61527 0.25100
v 2.21548 0.49021 0.23061
v 1.68860 0.62326 0.21114
v 1.77998 1.01063 0.22314
v 1.73288 0.81525 0.21733
v 1.85257 0.77363 0.39636
v 1.99013 0.69598 0.46755
v 1.92203 0.97693 0.41599
v 2.09421 0.89427 0.49719
v 2.24693 0.75863 0.44845
v 2.19722 1.09381 0.51106
v 2.50890 1.06286 0.47370
v 2.37918 0.91660 0.47249
v 2.63498 0.83638 0.29250
v 2.49135 0.73027 0.27470
v 1.81631 1.21613 0.22935
v 1.97725 1.18331 0.42214
v 1.89490 1.45122 0.22891
v 2.05492 1.38836 0.40755
v 2.30624 1.28080 0.49118
v 2.41833 1.42931 0.39775
v 2.46622 1.54581 0.22568
v 2.14340 1.58871 0.21341
v 2.73848 1.36012 0.25298
v 2.64308 1.21544 0.41868
v 2.77354 0.98644 0.28077
v 1.68863 0.13777 0.31504
v 1.64156 0.01747 0.16100
v 1.77106 0.08584 0.15255
v 1.77248 0.14132 0.26406
v 1.56094 0.08112 0.16849
v 1.62450 0.19826 0.29162
v 1.59357 0.26783 0.18573
v 2.17783 1.50508 0.35418
v 2.83618 1.13050 0.22703
v 1.55450 0.17283 0.13735
v 1.64566 0.00000 -0.00000
v 1.78052 0.07048 -0.00000
v 1.59958 0.45929 -0.00000
v 2.39084 0.55339 -0.00000
v 1.63840 0.63620 -0.00000
v 1.72015 1.02399 -0.00000
v 2.68469 0.76010 -0.00000
v 2.13698 1.62051 -0.00000
v 1.75635 1.23452 -0.00000
v 2.81856 0.90968 -0.00000
v 1.56544 0.30400 -0.00000
vn -0.96507 0.10943 -0.23803
vn -0.92471 0.21494 -0.31417
vn -0.74619 -0.07187 -0.66185
vn -0.95998 0.02615 -0.27884
vn -0.99744 -0.07152 -0.00106
vn -0.99527 0.09709 0.00235
vn -0.96815 0.25034 0.00357
vn 0.45789 -0.70661 -0.53948
vn 0.53199 -0.80045 -0.27617
vn 0.42224 -0.86089 -0.28389
vn 0.36612 -0.70285 -0.60989
vn 0.91599 0.06421 -0.39603
vn 0.77396 -0.30038 -0.55745
vn 0.50310 0.19044 -0.84299
vn 0.70467 0.52833 -0.47360
vn 0.99941 0.03415 0.00267
vn 0.87136 -0.49064 0.00162
vn -0.10601 0.72218 -0.68353
vn -0.16116 0.91340 -0.37381
vn 0.32332 0.85998 -0.39484
vn 0.21028 0.58274 -0.78498
vn 0.01991 0.24218 -0.97003
vn -0.37176 0.45329 -0.81014
vn -0.66944 0.59681 -0.44234
vn -0.54023 0.18807 -0.82023
vn -0.85521 0.23592 -0.46148
vn -0.96661 0.25624 0.00039
vn -0.93971 0.34198 0.00079
vn -0.46102 0.88739 -0.00122
vn -0.17718 0.98418 -0.00074
vn 0.33826 0.94105 -0.00033
vn 0.77524 0.63166 0.00077
vn 0.66137 -0.75006 0.00001
vn 0.58249 -0.81284 0.00001
vn 0.50495 -0.67667 -0.53586
vn 0.57366 -0.58133 -0.57704
vn 0.27416 -0.32772 -0.90412
vn 0.33742 -0.14292 -0.93044
vn -0.10537 0.02586 -0.99410
vn 0.30595 -0.41127 -0.85863
vn -0.14280 -0.07041 -0.98724
vn -0.60139 0.12995 -0.78832
vn -0.13984 -0.11657 -0.98329
vn -0.63162 0.13054 -0.76421
vn -0.88526 0.20171 -0.41907
vn -0.87822 0.18175 -0.44237
vn -0.97680 0.21417 -0.00002
vn -0.98136 0.19220 -0.00001
vn -0.89475 0.20977 -0.39423
vn -0.97620 0.21688 -0.00007
vn 0.61592 -0.78781 0.00003
vn 0.63572 -0.77192 0.00006
vn 0.58199 -0.68721 -0.43478
vn 0.54553 -0.68300 -0.48570
vn 0.35903 -0.46005 -0.81207
vn 0.59868 -0.70705 -0.37639
vn 0.40703 -0.52080 -0.75039
vn 0.22183 -0.35960 -0.90636
vn 0.46584 -0.60191 -0.64861
vn 0.30282 -0.48813 -0.81855
vn -0.43769 0.05013 -0.89773
vn -0.44917 -0.02068 -0.89321
vn -0.67876 0.10716 -0.72650
vn -0.65163 0.13152 -0.74705
vn -0.90573 0.22620 -0.35846
vn -0.97335 0.22931 0.00065
vn 0.63552 -0.77208 -0.00012
vn 0.63894 -0.76926 -0.00025
vn 0.61912 -0.72379 -0.30466
vn 0.55904 -0.82914 -0.00005
vn 0.46792 -0.88377 0.00009
vn -0.56147 -0.82749 -0.00257
vn -0.56979 -0.71113 -0.41187
vn -0.50984 -0.31676 -0.79983
vn -0.75442 -0.06780 0.65288
vn -0.57712 -0.70538 0.41154
vn -0.51213 -0.30982 0.80109
vn 0.51727 0.18822 0.83487
vn 0.71678 0.52340 0.46074
vn 0.31726 0.85958 0.40060
vn 0.20304 0.58297 0.78672
vn 0.37180 -0.68674 0.62462
vn 0.45272 -0.69800 0.55484
vn 0.45679 -0.59681 0.65967
vn 0.29427 -0.47647 0.82848
vn -0.44879 -0.02117 0.89338
vn -0.67988 0.10665 0.72553
vn 0.53442 -0.79663 0.28244
vn 0.43843 -0.85156 0.28744
vn 0.60151 -0.70408 0.37744
vn 0.40992 -0.51700 0.75145
vn 0.61548 -0.72461 0.31004
vn 0.58246 -0.68686 0.43470
vn -0.89429 0.21032 0.39499
vn -0.90606 0.22640 0.35748
vn -0.92825 0.21065 0.30656
vn -0.63210 0.12983 0.76394
vn -0.88526 0.20172 0.41908
vn -0.65140 0.13142 0.74726
vn -0.14101 -0.11721 0.98305
vn -0.43898 0.04890 0.89716
vn 0.22206 -0.35905 0.90652
vn 0.30763 -0.40762 0.85977
vn -0.14053 -0.06622 0.98786
vn 0.35905 -0.45982 0.81219
vn 0.50477 -0.67653 0.53621
vn 0.27394 -0.32768 0.90420
vn 0.54523 -0.68296 0.48610
vn -0.85469 0.23564 0.46259
vn -0.87814 0.18187 0.44248
vn -0.53916 0.18757 0.82105
vn -0.60095 0.13060 0.78855
vn 0.01897 0.24244 0.96998
vn -0.36723 0.45437 0.81160
vn -0.10455 0.02572 0.99419
vn 0.33513 -0.14660 0.93070
vn 0.78441 -0.30023 0.54273
vn 0.57109 -0.58349 0.57740
vn 0.92492 0.06142 0.37517
vn -0.16102 0.91101 0.37965
vn -0.66549 0.59801 0.44665
vn -0.10591 0.71926 0.68662
vn -0.96789 0.10187 0.22982
vn -0.96490 0.02540 0.26138
vn -0.96509 0.10937 -0.23800
vn -0.92473 0.21491 -0.31415
vn -0.74621 -0.07187 -0.66182
vn -0.95999 0.02612 -0.27880
vn -0.99528 0.09703 0.00235
vn -0.96816 0.25030 0.00357
vn 0.45789 -0.70661 -0.53948
vn 0.53198 -0.80046 -0.27617
vn 0.36612 -0.70285 -0.60988
vn 0.91600 0.06423 -0.39601
vn 0.77396 -0.30038 -0.55745
vn 0.50309 0.19043 -0.84299
vn 0.70468 0.52833 -0.47360
vn 0.99941 0.03417 0.00267
vn 0.87137 -0.49063 0.00162
vn -0.10599 0.72218 -0.68353
vn -0.16115 0.91340 -0.37381
vn 0.32332 0.85999 -0.39483
vn 0.21028 0.58275 -0.78498
vn 0.01991 0.24219 -0.97003
vn -0.37175 0.45329 -0.81014
vn -0.66943 0.59681 -0.44235
vn -0.54024 0.18806 -0.82023
vn -0.85521 0.23590 -0.46148
vn -0.96662 0.25622 0.00039
vn 0.33826 0.94105 -0.00033
vn 0.77525 0.63165 0.00077
vn 0.66134 -0.75008 0.00001
vn 0.50496 -0.67667 -0.53585
vn 0.57365 -0.58134 -0.57704
vn 0.27416 -0.32773 -0.90412
vn 0.33742 -0.14292 -0.93044
vn -0.10537 0.02586 -0.99410
vn 0.30595 -0.41127 -0.85863
vn -0.14279 -0.07042 -0.98724
vn -0.60139 0.12994 -0.78832
vn -0.13983 -0.11658 -0.98329
vn -0.63161 0.13053 -0.76422
vn -0.88526 0.20171 -0.41908
vn -0.87822 0.18174 -0.44238
vn -0.97680 0.21415 -0.00002
vn -0.98136 0.19220 -0.00001
vn -0.89476 0.20977 -0.39422
vn -0.97620 0.21686 -0.00007
vn 0.61594 -0.78780 0.00003
vn 0.63572 -0.77192 0.00006
vn 0.58199 -0.68721 -0.43479
vn 0.54554 -0.68299 -0.48570
vn 0.35903 -0.46005 -0.81207
vn 0.59867 -0.70705 -0.37639
vn 0.40704 -0.52080 -0.75039
vn 0.22185 -0.35961 -0.90635
vn 0.46584 -0.60191 -0.64861
vn 0.30284 -0.48814 -0.81854
vn -0.43765 0.05012 -0.89775
vn -0.44912 -0.02070 -0.89323
vn -0.67876 0.10717 -0.72650
vn -0.65163 0.13152 -0.74705
vn -0.90572 0.22623 -0.35845
vn -0.97334 0.22935 0.00065
vn 0.63551 -0.77209 -0.00012
vn 0.63894 -0.76926 -0.00025
vn 0.61912 -0.72379 -0.30466
vn 0.55903 -0.82914 -0.00005
vn -0.56153 -0.82745 -0.00257
vn -0.56983 -0.71110 -0.41185
vn -0.50984 -0.31676 -0.79983
vn -0.75443 -0.06781 0.65286
vn -0.57717 -0.70535 0.41152
vn -0.51213 -0.30982 0.80109
vn 0.51726 0.18822 0.83487
vn 0.71678 0.52340 0.46074
vn 0.31725 0.85958 0.40059
vn 0.20303 0.58297 0.78672
vn 0.37180 -0.68675 0.62461
vn 0.45270 -0.69801 0.55484
vn 0.45679 -0.59681 0.65967
vn 0.29429 -0.47648 0.82847
vn -0.44875 -0.02119 0.89341
vn -0.67987 0.10666 0.72553
vn 0.53441 -0.79664 0.28244
vn 0.60150 -0.70408 0.37744
vn 0.40992 -0.51700 0.75145
vn 0.61547 -0.72461 0.31004
vn 0.58246 -0.68686 0.43471
vn -0.89429 0.21031 0.39498
vn -0.90606 0.22643 0.35747
vn -0.92826 0.21063 0.30655
vn -0.63209 0.12982 0.76394
vn -0.88526 0.20171 0.41909
vn -0.65140 0.13142 0.74727
vn -0.14099 -0.11722 0.98305
vn -0.43895 0.04889 0.89718
vn 0.22208 -0.35906 0.90651
vn 0.30764 -0.40762 0.85977
vn -0.14053 -0.06623 0.98786
vn 0.35905 -0.45982 0.81219
vn 0.50477 -0.67653 0.53620
vn 0.27394 -0.32768 0.90420
vn 0.54524 -0.68295 0.48610
vn -0.85469 0.23562 0.46259
vn -0.87814 0.18186 0.44249
vn -0.53917 0.18756 0.82105
vn -0.60095 0.13058 0.78855
vn 0.01897 0.24244 0.96998
vn -0.36722 0.45437 0.81160
vn -0.10455 0.02571 0.99419
vn 0.33513 -0.14660 0.93070
vn 0.78441 -0.30022 0.54274
vn 0.57108 -0.58350 0.57740
vn 0.92493 0.06144 0.37515
vn -0.16101 0.91101 0.37965
vn -0.66549 0.59802 0.44665
vn -0.10591 0.71926 0.68662
vn -0.96790 0.10181 0.22980
vn -0.96491 0.02537 0.26134
f 1//1 6//2 7//3 8//4
f 1//1 8//4 5//5 4//6
f 1//1 4//6 114//7 6//2
f 9//8 10//9 11//10 12//11
f 2//12 14//13 15//14 16//15
f 2//12 13//16 113//17 14//13
f 3//18 17//19 18//20 19//21
f 3//18 19//21 20//22 21//23
f 3//18 21//23 22//24 17//19
f 22//24 21//23 23//25 24//26
f 22//24 24//26 112//27 25//28
f 22//24 25//29 111//30 17//19
f 111//30 26//31 18//20 17//19
f 26//31 27//32 16//15 18//20
f 27//32 13//16 2//12 16//15
f 110//33 28//34 29//35 30//36
f 110//33 30//36 14//13 113//17
f 30//36 29//35 31//37 32//38
f 30//36 32//38 15//14 14//13
f 32//38 31//37 33//39 20//22
f 32//38 20//22 19//21 15//14
f 33//39 31//37 34//40 35//41
f 33//39 35//41 36//42 23//25
f 33//39 23//25 21//23 20//22
f 36//42 35//41 37//43 38//44
f 36//42 38//44 39//45 40//46
f 36//42 40//46 24//26 23//25
f 40//46 39//45 41//47 109//48
f 40//46 109//48 112//27 24//26
f 41//47 39//45 42//49 108//50
f 107//51 43//52 44//53 45//54
f 107//51 45//54 29//35 28//34
f 45//54 44//53 46//55 34//40
f 45//54 34//40 31//37 29//35
f 46//55 44//53 47//56 48//57
f 46//55 48//57 49//58 37//43
f 46//55 37//43 35//41 34//40
f 49//58 48//57 50//59 51//60
f 49//61 51//62 52//63 53//64
f 49//61 53//64 38//44 37//43
f 53//64 52//63 54//65 42//49
f 53//64 42//49 39//45 38//44
f 54//65 52//63 7//3 6//2
f 54//65 6//2 114//7 106//66
f 54//65 106//66 108//50 42//49
f 56//67 55//68 57//69 47//56
f 56//67 47//56 44//53 43//52
f 57//69 55//68 105//70 10//9
f 57//69 10//9 9//8 50//59
f 57//69 50//59 48//57 47//56
f 105//70 104//71 11//10 10//9
f 104//72 5//72 8//73 11//73
f 52//63 51//62 12//74 7//3
f 51//60 50//59 9//8 12//11
f 19//21 18//20 16//15 15//14
f 12//74 11//73 8//73 7//3
f 99//75 98//76 95//76 94//77
f 92//78 91//79 89//80 88//81
f 94//82 97//83 63//84 62//85
f 99//75 94//77 62//86 61//87
f 95//76 98//76 5//72 104//72
f 96//88 95//89 104//71 105//70
f 66//90 65//91 63//84 58//92
f 63//84 97//83 96//88 58//92
f 96//88 105//70 55//68 58//92
f 43//52 69//93 66//90 56//67
f 66//90 58//92 55//68 56//67
f 70//94 108//50 106//66 59//95
f 106//66 114//7 100//96 59//95
f 100//96 99//75 61//87 59//95
f 73//97 72//98 70//94 60//99
f 70//94 59//95 61//87 60//99
f 74//100 73//97 60//99 64//101
f 60//99 61//87 62//86 64//101
f 62//85 63//84 65//91 64//102
f 77//103 76//104 74//100 67//105
f 74//100 64//102 65//91 67//105
f 65//91 66//90 69//93 67//105
f 82//106 80//107 77//103 68//108
f 77//103 67//105 69//93 68//108
f 28//34 82//106 68//108 107//51
f 68//108 69//93 43//52 107//51
f 108//50 70//94 72//98 41//47
f 83//109 112//27 109//48 71//110
f 109//48 41//47 72//98 71//110
f 84//111 83//109 71//110 75//112
f 71//110 72//98 73//97 75//112
f 73//97 74//100 76//104 75//112
f 87//113 86//114 84//111 78//115
f 84//111 75//112 76//104 78//115
f 76//104 77//103 80//107 78//115
f 92//78 88//81 87//113 79//116
f 87//113 78//115 80//107 79//116
f 93//117 92//78 79//116 81//118
f 79//116 80//107 82//106 81//118
f 113//17 93//117 81//118 110//33
f 81//118 82//106 28//34 110//33
f 91//79 102//119 13//16 27//32
f 89//80 91//79 27//32 26//31
f 90//120 89//80 26//31 111//30
f 90//120 111//30 25//29 85//121
f 25//28 112//27 83//109 85//121
f 83//109 84//111 86//114 85//121
f 90//120 85//121 86//114 101//122
f 86//114 87//113 88//81 101//122
f 88//81 89//80 90//120 101//122
f 93//117 113//17 13//16 102//119
f 91//79 92//78 93//117 102//119
f 94//82 95//89 96//88 97//83
f 100//96 114//7 4//6 103//123
f 4//6 5//5 98//124 103//123
f 98//124 99//75 100//96 103//123
f 115//125 120//126 121//127 122//128
f 115//125 122//128 119//5 118//129
f 115//125 118//129 228//130 120//126
f 123//131 124//132 125//10 126//133
f 116//134 128//135 129//136 130//137
f 116//134 127//138 227//139 128//135
f 117//140 131//141 132//142 133//143
f 117//140 133//143 134//144 135//145
f 117//140 135//145 136//146 131//141
f 136//146 135//145 137//147 138//148
f 136//146 138//148 226//149 139//28
f 136//146 139//29 225//30 131//141
f 225//30 140//150 132//142 131//141
f 140//150 141//151 130//137 132//142
f 141//151 127//138 116//134 130//137
f 224//152 142//34 143//153 144//154
f 224//152 144//154 128//135 227//139
f 144//154 143//153 145//155 146//156
f 144//154 146//156 129//136 128//135
f 146//156 145//155 147//157 134//144
f 146//156 134//144 133//143 129//136
f 147//157 145//155 148//158 149//159
f 147//157 149//159 150//160 137//147
f 147//157 137//147 135//145 134//144
f 150//160 149//159 151//161 152//162
f 150//160 152//162 153//163 154//164
f 150//160 154//164 138//148 137//147
f 154//164 153//163 155//165 223//166
f 154//164 223//166 226//149 138//148
f 155//165 153//163 156//167 222//168
f 221//169 157//170 158//171 159//172
f 221//169 159//172 143//153 142//34
f 159//172 158//171 160//173 148//158
f 159//172 148//158 145//155 143//153
f 160//173 158//171 161//174 162//175
f 160//173 162//175 163//176 151//161
f 160//173 151//161 149//159 148//158
f 163//176 162//175 164//177 165//178
f 163//179 165//180 166//181 167//182
f 163//179 167//182 152//162 151//161
f 167//182 166//181 168//183 156//167
f 167//182 156//167 153//163 152//162
f 168//183 166//181 121//127 120//126
f 168//183 120//126 228//130 220//184
f 168//183 220//184 222//168 156//167
f 170//185 169//186 171//187 161//174
f 170//185 161//174 158//171 157//170
f 171//187 169//186 219//188 124//132
f 171//187 124//132 123//131 164//177
f 171//187 164//177 162//175 161//174
f 219//188 218//71 125//10 124//132
f 218//189 119//189 122//190 125//190
f 166//181 165//180 126//191 121//127
f 165//178 164//177 123//131 126//133
f 133//143 132//142 130//137 129//136
f 126//191 125//190 122//190 121//127
f 213//192 212//193 209//193 208//194
f 206//195 205//196 203//197 202//198
f 208//199 211//200 177//201 176//202
f 213//192 208//194 176//203 175//204
f 209//193 212//193 119//189 218//189
f 210//205 209//89 218//71 219//188
f 180//206 179//207 177//201 172//208
f 177//201 211//200 210//205 172//208
f 210//205 219//188 169//186 172//208
f 157//170 183//209 180//206 170//185
f 180//206 172//208 169//186 170//185
f 184//210 222//168 220//184 173//211
f 220//184 228//130 214//212 173//211
f 214//212 213//192 175//204 173//211
f 187//213 186//214 184//210 174//215
f 184//210 173//211 175//204 174//215
f 188//216 187//213 174//215 178//217
f 174//215 175//204 176//203 178//217
f 176//202 177//201 179//207 178//218
f 191//219 190//220 188//216 181//221
f 188//216 178//218 179//207 181//221
f 179//207 180//206 183//209 181//221
f 196//222 194//223 191//219 182//224
f 191//219 181//221 183//209 182//224
f 142//34 196//222 182//224 221//169
f 182//224 183//209 157//170 221//169
f 222//168 184//210 186//214 155//165
f 197//225 226//149 223//166 185//226
f 223//166 155//165 186//214 185//226
f 198//227 197//225 185//226 189//228
f 185//226 186//214 187//213 189//228
f 187//213 188//216 190//220 189//228
f 201//229 200//230 198//227 192//231
f 198//227 189//228 190//220 192//231
f 190//220 191//219 194//223 192//231
f 206//195 202//198 201//229 193//232
f 201//229 192//231 194//223 193//232
f 207//233 206//195 193//232 195//234
f 193//232 194//223 196//222 195//234
f 227//139 207//233 195//234 224//152
f 195//234 196//222 142//34 224//152
f 205//196 216//235 127//138 141//151
f 203//197 205//196 141//151 140//150
f 204//236 203//197 140//150 225//30
f 204//236 225//30 139//29 199//237
f 139//28 226//149 197//225 199//237
f 197//225 198//227 200//230 199//237
f 204//236 199//237 200//230 215//238
f 200//230 201//229 202//198 215//238
f 202//198 203//197 204//236 215//238
f 207//233 227//139 127//138 216//235
f 205//196 206//195 207//233 216//235
f 208//199 209//89 210//205 211//200
f 214//212 228//130 118//129 217//239
f 118//129 119//5 212//240 217//239
f 212//240 213//192 214//212 217//239
