# pilowlava3D glyph 'e' variant 1 — Vincent Wagner / Velvetyne, Free Art License
v 3.07251 1.94225 -0.53165
v 2.52175 1.99180 -0.32908
v 3.78709 3.26956 -0.26938
v 3.92823 0.80475 -0.20229
v 3.91508 0.40622 -0.36288
v 3.50150 1.98349 -0.38524
v 3.52319 2.16665 -0.38394
v 2.84310 2.12056 -0.53896
v 2.98975 2.41819 -0.51140
v 3.19475 2.32760 -0.50945
v 2.82648 1.75807 -0.43929
v 2.69791 1.88962 -0.44188
v 3.40977 2.24570 -0.45310
v 3.36888 1.94369 -0.45856
v 2.56123 1.71764 -0.35397
v 2.49726 1.77308 -0.24423
v 2.28981 2.16133 -0.31341
v 2.41545 2.36829 -0.51160
v 2.65895 2.24065 -0.52428
v 4.02117 3.33949 -0.00000
v 3.56923 3.31953 -0.30984
v 3.65811 3.51059 -0.48242
v 3.91939 3.39209 -0.34223
v 4.00401 3.80634 -0.26800
v 3.99754 3.61165 -0.33247
v 3.75425 3.74324 -0.48695
v 3.85257 3.96518 -0.31942
v 3.73993 0.87637 -0.00000
v 3.76765 0.81114 -0.26095
v 4.05630 0.64293 -0.23364
v 3.87101 0.62388 -0.40541
v 4.00147 0.35462 -0.21836
v 3.73030 0.17401 -0.23158
v 3.68339 0.32005 -0.41422
v 3.58125 1.91330 -0.24845
v 3.40834 1.71429 -0.27634
v 3.61064 2.21231 -0.24598
v 3.49170 2.43119 -0.26768
v 3.28362 2.56759 -0.28915
v 3.32122 2.64772 -0.00000
v 3.53323 2.48761 -0.00000
v 3.66029 2.22025 -0.00000
v 3.62843 1.89269 -0.00000
v 3.15104 1.63381 -0.29178
v 2.91374 1.59764 -0.25688
v 2.68122 1.49901 -0.00000
v 2.66841 1.54529 -0.21534
v 2.40445 1.45750 -0.00000
v 2.13046 1.42443 -0.00000
v 2.13309 1.45862 -0.19523
v 2.40057 1.48691 -0.18876
v 2.14009 1.52464 -0.31916
v 2.38897 1.54281 -0.30293
v 2.62310 1.62931 -0.34631
v 2.37225 1.62723 -0.31516
v 2.14656 1.63113 -0.32038
v 2.14606 1.69960 -0.19879
v 2.35769 1.67727 -0.20909
v 2.14782 1.72140 -0.00000
v 2.35008 1.68763 -0.00000
v 2.46462 1.78239 -0.00000
v 2.42768 1.91764 -0.00000
v 2.22512 2.07848 -0.00000
v 2.07207 2.30025 -0.29442
v 1.85031 2.43844 -0.27524
v 1.93502 2.59913 -0.46119
v 2.17012 2.48349 -0.48763
v 2.04333 2.81772 -0.45033
v 2.28063 2.71515 -0.47061
v 2.52410 2.61172 -0.48906
v 2.35593 2.88355 -0.26768
v 2.59314 2.79570 -0.27577
v 2.82969 2.71694 -0.28317
v 2.76821 2.50937 -0.50106
v 3.06096 2.64656 -0.28960
v 1.38353 2.66536 -0.00000
v 1.41713 2.72438 -0.25301
v 1.63245 2.58172 -0.26141
v 1.48346 2.85263 -0.42269
v 1.70750 2.72287 -0.44078
v 1.56973 3.02552 -0.41754
v 1.80760 2.92052 -0.43520
v 1.62693 3.14762 -0.24756
v 1.87175 3.05949 -0.25146
v 2.11511 2.97282 -0.25863
v 1.89764 3.12133 -0.00000
v 2.14283 3.04191 -0.00000
v 2.38506 2.96184 -0.00000
v 2.62253 2.88333 -0.00000
v 0.95379 2.95649 -0.00000
v 1.16875 2.81158 -0.00000
v 0.97906 3.00153 -0.23815
v 1.19945 2.86334 -0.24732
v 1.02741 3.10009 -0.38739
v 1.25892 2.97743 -0.40435
v 1.09297 3.22671 -0.38359
v 1.33162 3.12584 -0.40097
v 1.14220 3.31774 -0.23470
v 1.38266 3.23413 -0.24288
v 1.65184 3.20160 -0.00000
v 0.49618 3.27950 -0.00000
v 0.51664 3.30458 -0.21623
v 0.75132 3.14357 -0.22741
v 0.56501 3.36715 -0.34522
v 0.79496 3.22203 -0.36746
v 0.64357 3.45943 -0.33321
v 0.86075 3.33585 -0.35826
v 0.69893 3.51064 -0.19751
v 0.90855 3.40705 -0.22021
v 0.25467 3.85823 -0.20208
v 0.31290 3.54288 -0.21068
v 0.33327 3.85339 -0.32384
v 0.38956 3.58185 -0.33544
v 0.46243 3.83969 -0.30392
v 0.49796 3.63302 -0.31143
v 0.52228 3.83267 -0.17556
v 0.55754 3.65822 -0.18107
v 0.58608 3.99691 -0.16879
v 0.64637 4.34222 -0.00000
v 0.37806 4.15811 -0.00000
v 0.65324 4.32485 -0.18519
v 0.39295 4.14778 -0.18830
v 0.67177 4.27038 -0.30871
v 0.44399 4.10964 -0.31016
v 0.71283 4.17114 -0.29521
v 0.53815 4.03504 -0.29432
v 0.74449 4.11458 -0.16970
v 0.94781 4.20023 -0.33587
v 0.96208 4.12283 -0.19642
v 0.97149 4.09495 -0.00000
v 1.19606 4.07414 -0.22881
v 1.19360 4.02872 -0.00000
v 1.21914 4.42740 -0.23031
v 0.94239 4.40332 -0.20459
v 1.20799 4.31979 -0.38074
v 0.94183 4.32230 -0.34017
v 1.19814 4.17338 -0.37547
v 1.47472 4.30408 -0.40641
v 1.45285 4.13334 -0.40206
v 1.43399 4.01032 -0.24306
v 1.70205 4.08114 -0.42200
v 1.67342 3.93827 -0.24791
v 1.65681 3.87530 -0.00000
v 1.42056 3.95509 -0.00000
v 1.75547 4.42920 -0.25176
v 1.48894 4.43385 -0.24582
v 1.73553 4.28093 -0.42536
v 2.02035 4.41090 -0.25539
v 1.99569 4.25186 -0.44077
v 1.95251 4.02286 -0.44049
v 2.25331 4.21482 -0.45550
v 2.20094 3.96320 -0.45523
v 2.15717 3.78622 -0.26155
v 1.91516 3.86212 -0.25414
v 2.13263 3.71100 -0.00000
v 1.89374 3.79360 -0.00000
v 2.28477 4.39052 -0.26416
v 2.56395 4.43609 -0.00000
v 2.55026 4.35437 -0.27258
v 2.50976 4.16727 -0.47291
v 2.81327 4.30845 -0.28139
v 2.76720 4.10877 -0.48958
v 2.69530 3.83690 -0.48818
v 2.44723 3.90300 -0.47131
v 2.63762 3.63762 -0.27963
v 2.39844 3.71299 -0.27006
v 2.82999 4.39947 -0.00000
v 3.07654 4.25809 -0.29028
v 3.34321 4.19811 -0.29952
v 3.27991 3.97310 -0.50503
v 3.02452 4.04500 -0.49920
v 3.18696 3.69349 -0.50073
v 2.94387 3.76663 -0.49719
v 3.10799 3.48218 -0.29370
v 2.87428 3.56012 -0.28797
v 2.83954 3.46602 -0.00000
v 3.64783 4.20722 -0.00000
v 3.90264 4.05362 -0.00000
v 3.60999 4.11236 -0.31226
v 3.52511 3.87718 -0.50703
v 3.42153 3.61139 -0.50090
v 3.33568 3.39998 -0.30294
v 4.06042 3.82553 -0.00000
v 4.09354 3.57892 -0.00000
v 1.61621 1.43528 -0.24922
v 1.87065 1.44390 -0.22209
v 1.62945 1.57241 -0.41150
v 1.88543 1.54422 -0.36923
v 1.64287 1.72677 -0.40777
v 1.90113 1.67923 -0.36985
v 1.64835 1.84843 -0.24506
v 1.90327 1.77494 -0.22115
v 1.65550 1.90598 -0.00000
v 1.90306 1.81449 -0.00000
v 1.14032 1.40809 -0.28383
v 1.37112 1.42526 -0.26990
v 1.09547 1.61113 -0.47505
v 1.36641 1.59361 -0.44635
v 1.07927 1.86215 -0.46676
v 1.37257 1.78346 -0.44122
v 1.08393 2.05266 -0.27321
v 1.38608 1.93507 -0.26075
v 1.39875 2.00613 -0.00000
v 0.69717 2.24418 -0.00000
v 0.76652 1.32779 -0.28338
v 0.93491 1.38116 -0.28787
v 0.62057 1.54340 -0.49064
v 0.83388 1.60956 -0.49395
v 0.43962 1.81785 -0.49460
v 0.75979 1.92044 -0.48875
v 0.28505 2.03916 -0.31554
v 0.71406 2.15947 -0.30132
v 0.23160 2.11385 -0.00000
v 0.00000 1.68162 -0.00000
v 0.05743 1.64010 -0.28205
v 0.10983 1.20964 -0.23410
v 0.06327 1.22520 -0.00000
v 0.24675 1.53993 -0.45510
v 0.24922 1.18196 -0.39713
v 0.35461 0.86963 -0.32217
v 0.27249 0.86429 -0.18343
v 0.47525 1.39401 -0.45976
v 0.40566 1.14435 -0.40000
v 0.45876 0.89557 -0.31558
v 0.59840 0.71119 -0.26753
v 0.54011 0.65158 -0.27302
v 0.54833 1.09274 -0.22924
v 0.53571 0.91856 -0.18645
v 0.63556 0.75074 -0.15423
v 0.84031 0.65171 -0.15531
v 0.80781 0.60034 -0.28461
v 1.08963 0.65506 -0.00000
v 1.07662 0.62475 -0.18730
v 1.32692 0.67122 -0.00000
v 1.56910 0.68972 -0.00000
v 1.56680 0.63293 -0.23962
v 1.32007 0.62542 -0.22226
v 1.55987 0.50150 -0.40492
v 1.29907 0.51460 -0.38094
v 1.04520 0.54493 -0.33669
v 1.27798 0.36823 -0.38352
v 1.01653 0.42189 -0.34193
v 0.76781 0.50790 -0.28918
v 1.00706 0.33583 -0.19436
v 0.74919 0.45123 -0.16290
v 0.49977 0.62146 -0.15748
v 0.63750 1.23848 -0.26044
v 2.07146 0.66336 -0.25379
v 1.81829 0.64611 -0.24684
v 2.07275 0.49859 -0.43699
v 1.81544 0.49869 -0.42308
v 2.06871 0.26669 -0.43325
v 1.80620 0.28938 -0.42398
v 1.54505 0.32262 -0.40618
v 1.79570 0.14300 -0.24762
v 1.52943 0.19168 -0.24322
v 1.26863 0.25617 -0.22718
v 2.05600 0.04328 -0.00000
v 2.57114 0.77225 -0.00000
v 2.32054 0.75121 -0.00000
v 2.57648 0.69513 -0.26577
v 2.32462 0.67765 -0.25857
v 2.58681 0.50920 -0.46076
v 2.32853 0.50265 -0.45083
v 2.59505 0.25208 -0.45251
v 2.33147 0.25392 -0.44512
v 2.59893 0.07841 -0.25455
v 2.33062 0.08403 -0.25415
v 2.06269 0.11268 -0.24855
v 2.32651 0.01294 -0.00000
v 2.87179 0.00000 -0.00000
v 3.07347 0.73027 -0.27565
v 2.82639 0.71100 -0.27046
v 3.10260 0.52698 -0.46897
v 2.84429 0.51786 -0.46725
v 3.12930 0.26092 -0.45376
v 2.86159 0.25373 -0.45739
v 3.14464 0.08492 -0.25393
v 2.87001 0.07397 -0.25767
v 3.15062 0.01325 -0.00000
v 3.44122 0.04633 -0.00000
v 3.43161 0.10626 -0.24901
v 3.74528 0.12937 -0.00000
v 3.40348 0.27560 -0.44168
v 3.35612 0.54250 -0.46496
v 3.60833 0.57208 -0.45569
v 3.31314 0.74893 -0.27614
v 3.54344 0.77966 -0.27838
v 3.52206 0.85811 -0.00000
v 3.81007 3.21104 -0.00000
v 3.94123 0.83436 -0.00000
v 4.08784 0.63766 -0.00000
v 3.43539 1.65102 -0.00000
v 3.17578 1.55641 -0.00000
v 2.93761 1.53110 -0.00000
v 2.01947 2.22372 -0.00000
v 1.80751 2.36991 -0.00000
v 2.85677 2.80939 -0.00000
v 3.09034 2.73720 -0.00000
v 1.59507 2.51870 -0.00000
v 1.16410 3.36117 -0.00000
v 1.40520 3.28259 -0.00000
v 0.73062 3.10590 -0.00000
v 0.72246 3.52527 -0.00000
v 0.93311 3.43916 -0.00000
v 0.23210 3.85828 -0.00000
v 0.28999 3.52985 -0.00000
v 0.53477 3.83135 -0.00000
v 0.57352 3.66265 -0.00000
v 0.59512 3.98637 -0.00000
v 0.75440 4.10077 -0.00000
v 1.22532 4.47292 -0.00000
v 0.94505 4.43380 -0.00000
v 1.76233 4.49054 -0.00000
v 1.49195 4.49055 -0.00000
v 2.29541 4.46570 -0.00000
v 2.02798 4.47954 -0.00000
v 2.60669 3.54817 -0.00000
v 2.37087 3.62919 -0.00000
v 3.09802 4.35585 -0.00000
v 3.37045 4.29632 -0.00000
v 3.07042 3.38460 -0.00000
v 3.53598 3.22818 -0.00000
v 3.29898 3.30177 -0.00000
v 1.61480 1.36817 -0.00000
v 1.86576 1.39468 -0.00000
v 1.16411 1.31803 -0.00000
v 1.37837 1.34256 -0.00000
v 1.09314 2.13288 -0.00000
v 0.81477 1.25373 -0.00000
v 0.97480 1.29419 -0.00000
v 0.55561 0.92093 -0.00000
v 0.64314 0.75726 -0.00000
v 0.85064 0.66402 -0.00000
v 0.74411 0.43715 -0.00000
v 0.48696 0.61619 -0.00000
v 0.24671 0.86791 -0.00000
v 0.58251 1.07877 -0.00000
v 0.68082 1.18930 -0.00000
v 2.06952 0.73144 -0.00000
v 1.81839 0.70895 -0.00000
v 1.51978 0.13729 -0.00000
v 1.26325 0.21086 -0.00000
v 1.00502 0.30659 -0.00000
v 1.78843 0.07970 -0.00000
v 2.59836 0.00402 -0.00000
v 3.06190 0.81584 -0.00000
v 2.81840 0.79332 -0.00000
v 3.29768 0.83482 -0.00000
v 4.02344 0.32970 -0.00000
v 3.07251 1.94225 0.53165
v 2.52175 1.99180 0.32908
v 3.78709 3.26956 0.26938
v 3.92823 0.80475 0.20229
v 3.91508 0.40622 0.36288
v 3.50150 1.98349 0.38524
v 3.52319 2.16665 0.38394
v 2.84310 2.12056 0.53896
v 2.98975 2.41819 0.51140
v 3.19475 2.32760 0.50945
v 2.82648 1.75807 0.43929
v 2.69791 1.88962 0.44188
v 3.40977 2.24570 0.45310
v 3.36888 1.94369 0.45856
v 2.56123 1.71764 0.35397
v 2.49726 1.77308 0.24423
v 2.28981 2.16133 0.31341
v 2.41545 2.36829 0.51160
v 2.65895 2.24065 0.52428
v 3.56923 3.31953 0.30984
v 3.65811 3.51059 0.48242
v 3.91939 3.39209 0.34223
v 4.00401 3.80634 0.26800
v 3.99754 3.61165 0.33247
v 3.75425 3.74324 0.48695
v 3.85257 3.96518 0.31942
v 3.76765 0.81114 0.26095
v 4.05630 0.64293 0.23364
v 3.87101 0.62388 0.40541
v 4.00147 0.35462 0.21836
v 3.73030 0.17401 0.23158
v 3.68339 0.32005 0.41422
v 3.58125 1.91330 0.24845
v 3.40834 1.71429 0.27634
v 3.61064 2.21231 0.24598
v 3.49170 2.43119 0.26768
v 3.28362 2.56759 0.28915
v 3.15104 1.63381 0.29178
v 2.91374 1.59764 0.25688
v 2.66841 1.54529 0.21534
v 2.13309 1.45862 0.19523
v 2.40057 1.48691 0.18876
v 2.14009 1.52464 0.31916
v 2.38897 1.54281 0.30293
v 2.62310 1.62931 0.34631
v 2.37225 1.62723 0.31516
v 2.14656 1.63113 0.32038
v 2.14606 1.69960 0.19879
v 2.35769 1.67727 0.20909
v 2.07207 2.30025 0.29442
v 1.85031 2.43844 0.27524
v 1.93502 2.59913 0.46119
v 2.17012 2.48349 0.48763
v 2.04333 2.81772 0.45033
v 2.28063 2.71515 0.47061
v 2.52410 2.61172 0.48906
v 2.35593 2.88355 0.26768
v 2.59314 2.79570 0.27577
v 2.82969 2.71694 0.28317
v 2.76821 2.50937 0.50106
v 3.06096 2.64656 0.28960
v 1.41713 2.72438 0.25301
v 1.63245 2.58172 0.26141
v 1.48346 2.85263 0.42269
v 1.70750 2.72287 0.44078
v 1.56973 3.02552 0.41754
v 1.80760 2.92052 0.43520
v 1.62693 3.14762 0.24756
v 1.87175 3.05949 0.25146
v 2.11511 2.97282 0.25863
v 0.97906 3.00153 0.23815
v 1.19945 2.86334 0.24732
v 1.02741 3.10009 0.38739
v 1.25892 2.97743 0.40435
v 1.09297 3.22671 0.38359
v 1.33162 3.12584 0.40097
v 1.14220 3.31774 0.23470
v 1.38266 3.23413 0.24288
v 0.51664 3.30458 0.21623
v 0.75132 3.14357 0.22741
v 0.56501 3.36715 0.34522
v 0.79496 3.22203 0.36746
v 0.64357 3.45943 0.33321
v 0.86075 3.33585 0.35826
v 0.69893 3.51064 0.19751
v 0.90855 3.40705 0.22021
v 0.25467 3.85823 0.20208
v 0.31290 3.54288 0.21068
v 0.33327 3.85339 0.32384
v 0.38956 3.58185 0.33544
v 0.46243 3.83969 0.30392
v 0.49796 3.63302 0.31143
v 0.52228 3.83267 0.17556
v 0.55754 3.65822 0.18107
v 0.58608 3.99691 0.16879
v 0.65324 4.32485 0.18519
v 0.39295 4.14778 0.18830
v 0.67177 4.27038 0.30871
v 0.44399 4.10964 0.31016
v 0.71283 4.17114 0.29521
v 0.53815 4.03504 0.29432
v 0.74449 4.11458 0.16970
v 0.94781 4.20023 0.33587
v 0.96208 4.12283 0.19642
v 1.19606 4.07414 0.22881
v 1.21914 4.42740 0.23031
v 0.94239 4.40332 0.20459
v 1.20799 4.31979 0.38074
v 0.94183 4.32230 0.34017
v 1.19814 4.17338 0.37547
v 1.47472 4.30408 0.40641
v 1.45285 4.13334 0.40206
v 1.43399 4.01032 0.24306
v 1.70205 4.08114 0.42200
v 1.67342 3.93827 0.24791
v 1.75547 4.42920 0.25176
v 1.48894 4.43385 0.24582
v 1.73553 4.28093 0.42536
v 2.02035 4.41090 0.25539
v 1.99569 4.25186 0.44077
v 1.95251 4.02286 0.44049
v 2.25331 4.21482 0.45550
v 2.20094 3.96320 0.45523
v 2.15717 3.78622 0.26155
v 1.91516 3.86212 0.25414
v 2.28477 4.39052 0.26416
v 2.55026 4.35437 0.27258
v 2.50976 4.16727 0.47291
v 2.81327 4.30845 0.28139
v 2.76720 4.10877 0.48958
v 2.69530 3.83690 0.48818
v 2.44723 3.90300 0.47131
v 2.63762 3.63762 0.27963
v 2.39844 3.71299 0.27006
v 3.07654 4.25809 0.29028
v 3.34321 4.19811 0.29952
v 3.27991 3.97310 0.50503
v 3.02452 4.04500 0.49920
v 3.18696 3.69349 0.50073
v 2.94387 3.76663 0.49719
v 3.10799 3.48218 0.29370
v 2.87428 3.56012 0.28797
v 3.60999 4.11236 0.31226
v 3.52511 3.87718 0.50703
v 3.42153 3.61139 0.50090
v 3.33568 3.39998 0.30294
v 1.61621 1.43528 0.24922
v 1.87065 1.44390 0.22209
v 1.62945 1.57241 0.41150
v 1.88543 1.54422 0.36923
v 1.64287 1.72677 0.40777
v 1.90113 1.67923 0.36985
v 1.64835 1.84843 0.24506
v 1.90327 1.77494 0.22115
v 1.14032 1.40809 0.28383
v 1.37112 1.42526 0.26990
v 1.09547 1.61113 0.47505
v 1.36641 1.59361 0.44635
v 1.07927 1.86215 0.46676
v 1.37257 1.78346 0.44122
v 1.08393 2.05266 0.27321
v 1.38608 1.93507 0.26075
v 0.76652 1.32779 0.28338
v 0.93491 1.38116 0.28787
v 0.62057 1.54340 0.49064
v 0.83388 1.60956 0.49395
v 0.43962 1.81785 0.49460
v 0.75979 1.92044 0.48875
v 0.28505 2.03916 0.31554
v 0.71406 2.15947 0.30132
v 0.05743 1.64010 0.28205
v 0.10983 1.20964 0.23410
v 0.24675 1.53993 0.45510
v 0.24922 1.18196 0.39713
v 0.35461 0.86963 0.32217
v 0.27249 0.86429 0.18343
v 0.47525 1.39401 0.45976
v 0.40566 1.14435 0.40000
v 0.45876 0.89557 0.31558
v 0.59840 0.71119 0.26753
v 0.54011 0.65158 0.27302
v 0.54833 1.09274 0.22924
v 0.53571 0.91856 0.18645
v 0.63556 0.75074 0.15423
v 0.84031 0.65171 0.15531
v 0.80781 0.60034 0.28461
v 1.07662 0.62475 0.18730
v 1.56680 0.63293 0.23962
v 1.32007 0.62542 0.22226
v 1.55987 0.50150 0.40492
v 1.29907 0.51460 0.38094
v 1.04520 0.54493 0.33669
v 1.27798 0.36823 0.38352
v 1.01653 0.42189 0.34193
v 0.76781 0.50790 0.28918
v 1.00706 0.33583 0.19436
v 0.74919 0.45123 0.16290
v 0.49977 0.62146 0.15748
v 0.63750 1.23848 0.26044
v 2.07146 0.66336 0.25379
v 1.81829 0.64611 0.24684
v 2.07275 0.49859 0.43699
v 1.81544 0.49869 0.42308
v 2.06871 0.26669 0.43325
v 1.80620 0.28938 0.42398
v 1.54505 0.32262 0.40618
v 1.79570 0.14300 0.24762
v 1.52943 0.19168 0.24322
v 1.26863 0.25617 0.22718
v 2.57648 0.69513 0.26577
v 2.32462 0.67765 0.25857
v 2.58681 0.50920 0.46076
v 2.32853 0.50265 0.45083
v 2.59505 0.25208 0.45251
v 2.33147 0.25392 0.44512
v 2.59893 0.07841 0.25455
v 2.33062 0.08403 0.25415
v 2.06269 0.11268 0.24855
v 3.07347 0.73027 0.27565
v 2.82639 0.71100 0.27046
v 3.10260 0.52698 0.46897
v 2.84429 0.51786 0.46725
v 3.12930 0.26092 0.45376
v 2.86159 0.25373 0.45739
v 3.14464 0.08492 0.25393
v 2.87001 0.07397 0.25767
v 3.43161 0.10626 0.24901
v 3.40348 0.27560 0.44168
v 3.35612 0.54250 0.46496
v 3.60833 0.57208 0.45569
v 3.31314 0.74893 0.27614
v 3.54344 0.77966 0.27838
vn 0.08785 -0.30628 -0.94788
vn -0.15510 -0.09126 -0.98368
vn 0.13234 0.37884 -0.91595
vn 0.25393 0.31596 -0.91416
vn -0.05607 -0.50929 -0.85877
vn -0.41615 -0.18890 -0.88946
vn 0.48821 0.22732 -0.84260
vn 0.39905 -0.30721 -0.86393
vn -0.67980 -0.35260 -0.64307
vn -0.38214 -0.13845 -0.91367
vn -0.88092 -0.04922 -0.47070
vn -0.47943 -0.66811 -0.56902
vn -0.36114 -0.51804 -0.77538
vn -0.21348 -0.14683 -0.96585
vn -0.03609 -0.83734 -0.54549
vn -0.15457 -0.81626 -0.55662
vn 0.08992 -0.38197 -0.91979
vn 0.25843 -0.40527 -0.87691
vn 0.54863 -0.79867 -0.24725
vn 0.76621 -0.57364 -0.28958
vn 0.79813 -0.60248 0.00207
vn 0.23399 -0.97223 0.00501
vn 0.82617 0.34135 -0.44824
vn 0.79493 -0.02450 -0.60621
vn 0.37109 0.15003 -0.91640
vn 0.57907 0.58482 -0.56803
vn 0.14696 0.97183 -0.18424
vn 0.12010 0.84263 -0.52492
vn 0.02968 0.99956 0.00211
vn 0.15733 0.98754 0.00384
vn 0.39839 0.56656 -0.72131
vn 0.20193 0.61026 -0.76603
vn 0.78095 0.61337 -0.11791
vn 0.78762 0.61616 -0.00201
vn 0.42704 -0.70231 -0.56956
vn 0.50750 -0.77389 -0.37886
vn 0.37065 -0.82911 -0.41856
vn 0.31187 -0.72337 -0.61602
vn 0.54144 -0.08518 -0.83641
vn 0.91417 -0.12569 -0.38534
vn 0.66439 -0.22938 -0.71132
vn 0.83774 -0.35101 -0.41831
vn 0.49604 -0.70393 -0.50836
vn 0.70966 0.08797 -0.69903
vn 0.89735 0.17033 -0.40713
vn 0.67055 0.56500 -0.48077
vn 0.40703 0.73923 -0.53653
vn 0.47178 0.88172 0.00015
vn 0.76400 0.64522 -0.00050
vn 0.98350 0.18090 -0.00077
vn 0.92501 -0.37994 -0.00039
vn 0.57471 -0.81836 -0.00049
vn 0.21967 -0.97557 -0.00008
vn 0.19539 -0.81697 -0.54257
vn 0.12838 -0.86383 -0.48716
vn 0.12765 -0.99182 0.00011
vn 0.15917 -0.98725 -0.00006
vn 0.15757 -0.90280 -0.40014
vn 0.14309 -0.98971 -0.00020
vn 0.10420 -0.99456 -0.00001
vn 0.09313 -0.93759 -0.33505
vn 0.13901 -0.93226 -0.33402
vn 0.08179 -0.87131 -0.48387
vn 0.13413 -0.86444 -0.48451
vn 0.15324 -0.80533 -0.57269
vn -0.19004 -0.21733 -0.95742
vn -0.03865 -0.12284 -0.99167
vn -0.24208 0.82279 -0.51421
vn 0.16609 0.86125 -0.48028
vn 0.20357 0.93213 -0.29949
vn -0.25499 0.91484 -0.31311
vn -0.57230 0.75728 -0.31464
vn -0.50887 0.68245 -0.52470
vn 0.11811 -0.05134 -0.99167
vn 0.23333 0.97240 -0.00045
vn 0.13302 0.99111 -0.00057
vn -0.60932 0.79292 -0.00139
vn -0.99297 -0.11726 0.01604
vn -0.61352 -0.78968 -0.00040
vn -0.59063 -0.80694 -0.00025
vn -0.56258 -0.82674 -0.00001
vn -0.47523 -0.69893 -0.53447
vn -0.56287 -0.82655 0.00005
vn -0.48623 -0.71325 -0.50483
vn -0.40403 -0.59236 -0.69704
vn -0.38207 -0.56259 -0.73315
vn -0.04892 0.09521 -0.99425
vn -0.05172 0.07553 -0.99580
vn -0.02401 0.09687 -0.99501
vn 0.23526 0.69157 -0.68292
vn 0.24096 0.70141 -0.67079
vn 0.28261 0.82122 -0.49571
vn 0.27338 0.81541 -0.51027
vn 0.25743 0.81074 -0.52576
vn 0.11228 0.40842 -0.90586
vn 0.27551 0.79631 -0.53851
vn 0.29634 0.95508 0.00002
vn 0.31878 0.94783 -0.00011
vn -0.56633 -0.82418 0.00000
vn -0.55879 -0.82931 -0.00002
vn -0.49377 -0.73633 -0.46261
vn -0.49610 -0.72293 -0.48090
vn -0.42298 -0.63467 -0.64675
vn -0.42096 -0.61457 -0.66715
vn -0.04814 0.05806 -0.99715
vn -0.05018 0.05256 -0.99736
vn 0.25857 0.72330 -0.64030
vn 0.26336 0.73908 -0.62000
vn 0.29505 0.84963 -0.43713
vn 0.29106 0.83948 -0.45886
vn 0.28527 0.82981 -0.47961
vn 0.24740 0.71001 -0.65930
vn 0.32052 0.94724 0.00003
vn 0.32198 0.94675 -0.00001
vn 0.32577 0.94545 0.00001
vn 0.31478 0.94916 0.00004
vn -0.55069 -0.83471 -0.00003
vn -0.54740 -0.83687 -0.00001
vn -0.49338 -0.76777 -0.40879
vn -0.48945 -0.75221 -0.44115
vn -0.43029 -0.68425 -0.58878
vn -0.42036 -0.65724 -0.62556
vn -0.04971 0.05106 -0.99746
vn -0.05170 0.06766 -0.99637
vn 0.26331 0.75771 -0.59712
vn 0.27711 0.77852 -0.56313
vn 0.30384 0.87022 -0.38782
vn 0.29370 0.86093 -0.41537
vn 0.32466 0.94583 -0.00011
vn 0.31845 0.94794 0.00001
vn 0.32190 0.94677 0.00002
vn -0.56491 -0.82515 0.00011
vn -0.68058 -0.73267 0.00001
vn -0.63933 -0.68415 -0.35100
vn -0.52100 -0.76810 -0.37227
vn -0.57882 -0.61486 -0.53565
vn -0.46616 -0.69473 -0.54777
vn -0.04249 0.10512 -0.99355
vn 0.02084 0.13488 -0.99064
vn 0.32812 0.79100 -0.51640
vn 0.50728 0.71696 -0.47816
vn 0.54046 0.78270 -0.30866
vn 0.35206 0.86914 -0.34735
vn 0.55998 0.82851 0.00019
vn 0.36924 0.92933 0.00019
vn -0.90617 -0.42290 -0.00006
vn -0.99057 0.13704 0.00001
vn -0.93397 0.13326 -0.33157
vn -0.85109 -0.39219 -0.34905
vn -0.83710 0.12365 -0.53290
vn -0.76040 -0.34522 -0.55011
vn 0.12085 0.10756 -0.98683
vn 0.16129 0.02953 -0.98646
vn 0.78864 0.41577 -0.45298
vn 0.89892 -0.06792 -0.43281
vn 0.96252 -0.07395 -0.26095
vn 0.84414 0.45669 -0.28083
vn 0.99696 -0.07788 0.00011
vn 0.87462 0.48481 -0.00003
vn 0.76941 -0.57902 -0.26972
vn 0.79330 -0.60883 0.00004
vn -0.75726 0.65312 -0.00006
vn -0.42797 0.90379 0.00015
vn -0.40900 0.86796 -0.28173
vn -0.72368 0.62630 -0.28990
vn -0.37995 0.80990 -0.44687
vn -0.66688 0.57932 -0.46868
vn 0.11611 -0.05882 -0.99149
vn -0.02401 -0.11143 -0.99348
vn 0.72131 -0.53112 -0.44455
vn 0.28457 -0.83888 -0.46401
vn 0.30204 -0.90783 -0.29090
vn -0.10283 -0.87183 -0.47889
vn -0.11746 -0.94267 -0.31237
vn -0.12915 -0.99163 0.00028
vn 0.30980 -0.95080 -0.00011
vn -0.24484 -0.89605 -0.37032
vn -0.27267 -0.96211 0.00057
vn -0.20178 0.97943 0.00013
vn -0.08589 0.99630 -0.00012
vn -0.07713 0.91779 -0.38950
vn -0.18856 0.92535 -0.32890
vn -0.06617 0.81627 -0.57387
vn -0.17032 0.84774 -0.50233
vn -0.14082 -0.07504 -0.98719
vn -0.12869 -0.02715 -0.99131
vn -0.09012 -0.01521 -0.99581
vn -0.21072 -0.81223 -0.54395
vn -0.21769 -0.76596 -0.60491
vn -0.26003 -0.86748 -0.42411
vn -0.22694 -0.73530 -0.63862
vn -0.27064 -0.84782 -0.45602
vn -0.31140 -0.95028 0.00002
vn -0.29810 -0.95453 0.00016
vn -0.02258 0.99975 -0.00008
vn 0.02969 0.99956 -0.00002
vn 0.02880 0.88989 -0.45526
vn -0.01669 0.90191 -0.43161
vn 0.02723 0.76254 -0.64637
vn -0.01074 0.78307 -0.62184
vn 0.05293 0.88015 -0.47173
vn 0.04850 0.74969 -0.66001
vn -0.07160 -0.00349 -0.99743
vn -0.06081 0.00635 -0.99813
vn -0.06019 0.01036 -0.99813
vn -0.22786 -0.71398 -0.66205
vn -0.22400 -0.69603 -0.68217
vn -0.26967 -0.82345 -0.49921
vn -0.27320 -0.83431 -0.47885
vn -0.31491 -0.94912 -0.00001
vn -0.31677 -0.94850 0.00002
vn 0.05653 0.99840 -0.00001
vn 0.08864 0.99606 -0.00000
vn 0.07831 0.86866 -0.48918
vn 0.13333 0.99107 0.00003
vn 0.11463 0.85545 -0.50504
vn 0.09541 0.71712 -0.69039
vn 0.06723 0.73352 -0.67634
vn 0.13807 0.84221 -0.52117
vn 0.11761 0.70046 -0.70394
vn -0.06388 0.01055 -0.99790
vn -0.04972 0.00706 -0.99874
vn -0.22849 -0.68081 -0.69591
vn -0.23077 -0.66856 -0.70695
vn -0.27566 -0.80366 -0.52739
vn -0.27152 -0.81289 -0.51525
vn -0.32310 -0.94636 0.00000
vn -0.31573 -0.94885 -0.00001
vn 0.15888 0.98730 -0.00001
vn 0.18981 0.98182 -0.00003
vn 0.16252 0.82646 -0.53903
vn 0.25508 0.96692 -0.00007
vn 0.21337 0.80297 -0.55651
vn 0.17039 0.63428 -0.75409
vn 0.13592 0.67505 -0.72515
vn -0.02800 -0.00066 -0.99961
vn -0.01520 -0.01024 -0.99983
vn -0.22379 -0.65567 -0.72112
vn -0.22815 -0.63545 -0.73767
vn -0.28166 -0.78539 -0.55121
vn -0.27432 -0.79595 -0.53964
vn -0.33740 -0.94136 0.00000
vn -0.32789 -0.94472 0.00000
vn 0.40943 0.91234 -0.00003
vn 0.66698 0.74508 0.00225
vn 0.33928 0.74398 -0.57566
vn 0.15116 0.27914 -0.94828
vn -0.10742 -0.34345 -0.93301
vn -0.27969 -0.78133 -0.55795
vn -0.21828 -0.97588 0.00259
vn -0.33098 -0.94364 -0.00001
vn 0.93147 0.36383 0.00053
vn 0.99416 -0.10787 -0.00190
vn 0.08820 -0.99610 0.00012
vn 0.08443 -0.99643 -0.00006
vn 0.07018 -0.88725 -0.45592
vn 0.07412 -0.91673 -0.39257
vn 0.05530 -0.77083 -0.63463
vn 0.05939 -0.82817 -0.55732
vn 0.17299 -0.01542 -0.98480
vn 0.14159 0.00586 -0.98991
vn 0.26759 0.80701 -0.52643
vn 0.25613 0.77143 -0.58248
vn 0.29618 0.86289 -0.40951
vn 0.30026 0.88611 -0.35305
vn 0.33299 0.94293 -0.00007
vn 0.32629 0.94527 -0.00028
vn 0.09489 -0.99549 -0.00002
vn 0.11700 -0.99313 0.00020
vn 0.09447 -0.84057 -0.53340
vn 0.07737 -0.86103 -0.50264
vn 0.07122 -0.68077 -0.72903
vn 0.06001 -0.72212 -0.68916
vn 0.11564 0.02451 -0.99299
vn 0.08782 0.03353 -0.99557
vn 0.26606 0.72807 -0.63177
vn 0.24073 0.68307 -0.68954
vn 0.28850 0.82128 -0.49220
vn 0.31507 0.83348 -0.45391
vn 0.33108 0.94360 0.00026
vn 0.36163 0.93232 0.00007
vn 0.20083 -0.97963 -0.00019
vn 0.38056 -0.92476 0.00024
vn 0.32225 -0.77195 -0.54795
vn 0.16591 -0.81724 -0.55190
vn 0.10975 -0.33813 -0.93468
vn 0.12773 -0.63907 -0.75847
vn 0.03676 0.02046 -0.99911
vn -0.21479 0.20013 -0.95594
vn 0.03461 0.34055 -0.93959
vn -0.51009 0.62521 -0.59069
vn 0.01984 0.83223 -0.55407
vn -0.26550 0.96411 -0.00023
vn 0.00964 0.99995 0.00012
vn -0.87958 0.47575 0.00016
vn -0.85073 0.12305 -0.51099
vn -0.98461 0.17475 0.00011
vn -0.87337 -0.29362 -0.38860
vn -0.95429 -0.29888 -0.00005
vn -0.39935 -0.03869 -0.91598
vn -0.75443 -0.27481 -0.59608
vn -0.70757 -0.53240 -0.46464
vn -0.77351 -0.56247 -0.29207
vn -0.03663 -0.22753 -0.97308
vn 0.19202 -0.33307 -0.92314
vn 0.08290 -0.20242 -0.97578
vn 0.05650 -0.01933 -0.99822
vn 0.81890 0.16281 -0.55036
vn 0.70088 -0.25819 -0.66491
vn 0.83741 -0.32909 -0.43639
vn 0.92243 0.17941 -0.34195
vn 0.65800 0.69957 -0.27865
vn 0.61225 0.64286 -0.46031
vn 0.24632 0.93022 -0.27205
vn 0.23868 0.86954 -0.43236
vn 0.98271 0.18514 -0.00077
vn 0.68156 0.73176 -0.00022
vn 0.24939 0.96840 0.00011
vn 0.00952 0.99995 -0.00011
vn 0.01589 0.94745 -0.31951
vn -0.05473 0.99850 -0.00014
vn -0.06458 0.99791 0.00006
vn -0.05495 0.90148 -0.42931
vn -0.04542 0.92194 -0.38465
vn -0.04421 0.78920 -0.61255
vn -0.03596 0.82915 -0.55787
vn 0.02249 0.87797 -0.47818
vn -0.16790 0.08146 -0.98243
vn -0.12094 0.04076 -0.99182
vn -0.10354 0.09590 -0.98999
vn -0.45507 -0.78170 -0.42644
vn -0.33505 -0.80196 -0.49457
vn -0.36324 -0.87364 -0.32375
vn -0.48441 -0.83336 -0.26618
vn -0.62460 -0.74123 -0.24586
vn -0.58475 -0.70486 -0.40156
vn -0.50267 -0.86448 0.00022
vn -0.64975 -0.76015 0.00010
vn -0.81753 -0.57589 -0.00005
vn 0.65353 -0.75690 -0.00109
vn 0.92304 -0.38470 -0.00212
vn 0.57190 -0.63960 -0.51366
vn -0.07514 0.99717 -0.00001
vn -0.07610 0.99710 -0.00000
vn -0.06444 0.87847 -0.47344
vn -0.06296 0.88813 -0.45525
vn -0.05197 0.74741 -0.66233
vn -0.04992 0.76471 -0.64243
vn -0.05695 0.00280 -0.99837
vn -0.04753 -0.01191 -0.99880
vn -0.07736 0.01606 -0.99687
vn -0.17544 -0.76678 -0.61747
vn -0.11671 -0.76261 -0.63624
vn -0.13962 -0.88061 -0.45280
vn -0.20508 -0.87924 -0.42999
vn -0.27302 -0.88089 -0.38665
vn -0.24207 -0.78620 -0.56859
vn -0.23060 -0.97305 -0.00008
vn -0.29699 -0.95488 -0.00002
vn -0.38245 -0.92398 0.00017
vn -0.16073 -0.98700 -0.00006
vn -0.07529 0.99716 -0.00001
vn -0.07874 0.99689 -0.00001
vn -0.06654 0.86397 -0.49913
vn -0.06519 0.87095 -0.48703
vn -0.05380 0.72277 -0.68899
vn -0.05439 0.73487 -0.67602
vn -0.04140 -0.02381 -0.99886
vn -0.02701 -0.03197 -0.99912
vn -0.05047 -0.75219 -0.65701
vn -0.01703 -0.74847 -0.66295
vn -0.01964 -0.87615 -0.48163
vn -0.06015 -0.87718 -0.47638
vn -0.10167 -0.87892 -0.46601
vn -0.08469 -0.75906 -0.64549
vn -0.06954 -0.99758 -0.00002
vn -0.11807 -0.99301 -0.00001
vn -0.02214 -0.99975 -0.00001
vn -0.08253 0.99659 -0.00000
vn -0.08370 0.99649 0.00001
vn -0.06497 0.84679 -0.52795
vn -0.06633 0.85565 -0.51329
vn -0.04581 0.68768 -0.72457
vn -0.04978 0.70701 -0.70545
vn -0.00806 -0.04119 -0.99912
vn 0.01924 -0.05669 -0.99821
vn 0.01009 -0.74671 -0.66507
vn 0.05095 -0.74545 -0.66462
vn 0.06118 -0.87676 -0.47702
vn 0.01219 -0.87568 -0.48273
vn 0.07083 -0.99749 0.00007
vn 0.01423 -0.99990 -0.00000
vn 0.15363 -0.87381 -0.46137
vn 0.17308 -0.98491 -0.00006
vn 0.41789 -0.90850 0.00013
vn 0.13010 -0.74056 -0.65927
vn 0.05725 -0.08697 -0.99456
vn 0.15782 -0.11210 -0.98108
vn -0.03718 0.63991 -0.76755
vn -0.05662 0.66425 -0.74537
vn -0.07862 0.83825 -0.53960
vn -0.07458 0.83440 -0.54609
vn -0.09927 0.99506 -0.00009
vn -0.10997 0.99394 0.00006
vn 0.57236 -0.82000 0.00052
vn 0.97999 -0.19906 -0.00028
vn 0.25380 0.31562 0.91431
vn 0.13246 0.37826 0.91617
vn -0.15969 -0.08695 0.98333
vn 0.08399 -0.31101 0.94669
vn -0.42613 -0.20468 0.88120
vn -0.06998 -0.51526 0.85417
vn 0.40469 -0.29381 0.86597
vn 0.48841 0.21802 0.84494
vn -0.87987 -0.07304 0.46957
vn -0.38984 -0.16729 0.90556
vn -0.68400 -0.35544 0.63703
vn -0.22150 -0.14193 0.96478
vn -0.36105 -0.51662 0.77637
vn -0.47983 -0.66745 0.56945
vn 0.26457 -0.42083 0.86770
vn 0.09321 -0.39050 0.91587
vn -0.14862 -0.82078 0.55158
vn 0.17563 -0.87065 0.45947
vn 0.76052 -0.57885 0.29417
vn 0.58363 0.58320 0.56502
vn 0.37662 0.15238 0.91375
vn 0.80017 -0.02634 0.59919
vn 0.83230 0.33449 0.44204
vn 0.12685 0.85162 0.50858
vn 0.49135 0.79636 0.35269
vn 0.20950 0.64097 0.73842
vn 0.63369 0.65295 0.41484
vn 0.31825 -0.71237 0.62550
vn 0.37438 -0.82459 0.42414
vn 0.75763 -0.49446 0.42602
vn 0.51373 -0.32210 0.79519
vn 0.90122 -0.15291 0.40550
vn 0.51713 -0.11104 0.84867
vn 0.50460 -0.69380 0.51383
vn 0.84240 -0.33783 0.41981
vn 0.66988 -0.21173 0.71164
vn 0.89873 0.16112 0.40782
vn 0.71074 0.07521 0.69942
vn 0.67374 0.55764 0.48488
vn 0.40701 0.73936 0.53637
vn 0.18796 -0.82184 0.53782
vn 0.11164 -0.86930 0.48151
vn 0.15290 -0.90457 0.39796
vn 0.14254 -0.93232 0.33235
vn 0.09558 -0.93737 0.33496
vn 0.13957 -0.86512 0.48175
vn 0.08551 -0.87103 0.48372
vn 0.14459 -0.80956 0.56895
vn -0.03600 -0.11962 0.99217
vn -0.19046 -0.21764 0.95727
vn -0.25758 0.91638 0.30644
vn 0.20242 0.93273 0.29839
vn 0.16595 0.86199 0.47899
vn -0.24450 0.82828 0.50415
vn -0.51703 0.68969 0.50695
vn -0.57744 0.75794 0.30347
vn 0.12050 -0.04798 0.99155
vn -0.47487 -0.69896 0.53474
vn -0.48608 -0.71336 0.50483
vn -0.38133 -0.56248 0.73362
vn -0.40426 -0.59229 0.69697
vn -0.04902 0.09524 0.99425
vn -0.05157 0.07549 0.99581
vn -0.02382 0.09662 0.99504
vn 0.27331 0.81553 0.51011
vn 0.28272 0.82114 0.49577
vn 0.24121 0.70123 0.67089
vn 0.23492 0.69200 0.68260
vn 0.11149 0.40877 0.90580
vn 0.25676 0.81105 0.52561
vn 0.27535 0.79653 0.53826
vn -0.49587 -0.72309 0.48088
vn -0.49377 -0.73635 0.46257
vn -0.42060 -0.61487 0.66711
vn -0.42303 -0.63467 0.64671
vn -0.04777 0.05782 0.99718
vn -0.04999 0.05247 0.99737
vn 0.29117 0.83942 0.45890
vn 0.29511 0.84959 0.43716
vn 0.26346 0.73903 0.62002
vn 0.25851 0.72330 0.64032
vn 0.24702 0.71013 0.65932
vn 0.28504 0.82989 0.47961
vn -0.48975 -0.75207 0.44106
vn -0.49331 -0.76793 0.40857
vn -0.42087 -0.65703 0.62544
vn -0.43023 -0.68460 0.58841
vn -0.04941 0.05089 0.99748
vn -0.05189 0.06804 0.99633
vn 0.29384 0.86082 0.41550
vn 0.30354 0.87042 0.38760
vn 0.27684 0.77878 0.56290
vn 0.26355 0.75746 0.59733
vn -0.52066 -0.76830 0.37234
vn -0.63930 -0.68372 0.35188
vn -0.46545 -0.69525 0.54771
vn -0.57830 -0.61395 0.53724
vn -0.04291 0.10446 0.99360
vn 0.02563 0.13789 0.99012
vn 0.35220 0.86885 0.34792
vn 0.54072 0.78262 0.30842
vn 0.50758 0.71719 0.47749
vn 0.32735 0.79085 0.51710
vn -0.85077 -0.39188 0.35018
vn -0.93422 0.13337 0.33082
vn -0.75930 -0.34431 0.55219
vn -0.83792 0.12391 0.53155
vn 0.12739 0.11177 0.98554
vn 0.16329 0.02955 0.98614
vn 0.84372 0.45761 0.28058
vn 0.96226 -0.07416 0.26183
vn 0.89821 -0.06808 0.43426
vn 0.78841 0.41673 0.45248
vn 0.76941 -0.57916 0.26943
vn -0.72412 0.62604 0.28936
vn -0.40999 0.86701 0.28321
vn -0.66780 0.57897 0.46780
vn -0.38112 0.80800 0.44933
vn 0.11673 -0.05916 0.99140
vn -0.02250 -0.10622 0.99409
vn 0.30191 -0.90771 0.29140
vn 0.28602 -0.83790 0.46488
vn 0.72143 -0.53147 0.44393
vn -0.11566 -0.94223 0.31438
vn -0.09976 -0.87035 0.48223
vn -0.24340 -0.89611 0.37113
vn -0.18814 0.92518 0.32963
vn -0.07640 0.91802 0.38910
vn -0.16993 0.84716 0.50343
vn -0.06535 0.81670 0.57335
vn -0.13999 -0.06985 0.98769
vn -0.12870 -0.02729 0.99131
vn -0.08937 -0.01507 0.99588
vn -0.26032 -0.86753 0.42382
vn -0.21879 -0.76624 0.60415
vn -0.21095 -0.81184 0.54444
vn -0.26990 -0.84795 0.45622
vn -0.22544 -0.73548 0.63894
vn -0.01723 0.90193 0.43153
vn 0.02905 0.88991 0.45522
vn -0.01134 0.78308 0.62182
vn 0.02776 0.76256 0.64632
vn 0.04791 0.74964 0.66011
vn 0.05265 0.88015 0.47177
vn -0.07174 -0.00344 0.99742
vn -0.06128 0.00637 0.99810
vn -0.06020 0.01035 0.99813
vn -0.27315 -0.83429 0.47890
vn -0.26976 -0.82344 0.49918
vn -0.22425 -0.69599 0.68214
vn -0.22775 -0.71397 0.66210
vn 0.07812 0.86866 0.48921
vn 0.11442 0.85547 0.50505
vn 0.06685 0.73351 0.67639
vn 0.09536 0.71715 0.69036
vn 0.11707 0.70047 0.70401
vn 0.13774 0.84224 0.52121
vn -0.06395 0.01052 0.99790
vn -0.04976 0.00705 0.99874
vn -0.27141 -0.81294 0.51523
vn -0.27565 -0.80362 0.52746
vn -0.23071 -0.66848 0.70705
vn -0.22838 -0.68087 0.69589
vn 0.16262 0.82651 0.53892
vn 0.21337 0.80283 0.55672
vn 0.13595 0.67519 0.72501
vn 0.17015 0.63384 0.75451
vn -0.02796 -0.00060 0.99961
vn -0.01512 -0.01028 0.99983
vn -0.27426 -0.79596 0.53966
vn -0.28182 -0.78532 0.55122
vn -0.22833 -0.63537 0.73768
vn -0.22370 -0.65566 0.72115
vn 0.33865 0.74424 0.57569
vn 0.15051 0.27935 0.94832
vn -0.10708 -0.34371 0.93295
vn -0.27937 -0.78149 0.55787
vn 0.07436 -0.91648 0.39310
vn 0.06912 -0.88748 0.45563
vn 0.06000 -0.82760 0.55810
vn 0.05370 -0.77130 0.63420
vn 0.17232 -0.01527 0.98492
vn 0.14132 0.00593 0.98995
vn 0.30010 0.88625 0.35284
vn 0.29656 0.86274 0.40954
vn 0.25603 0.77133 0.58267
vn 0.26714 0.80711 0.52651
vn 0.07764 -0.86079 0.50300
vn 0.09390 -0.84036 0.53383
vn 0.05987 -0.72150 0.68982
vn 0.07042 -0.68041 0.72944
vn 0.11518 0.02470 0.99304
vn 0.08690 0.03394 0.99564
vn 0.31471 0.83336 0.45440
vn 0.28893 0.82168 0.49129
vn 0.24111 0.68484 0.68765
vn 0.26580 0.72752 0.63251
vn 0.16635 -0.81776 0.55099
vn 0.32330 -0.76984 0.55030
vn 0.08888 -0.33257 0.93888
vn 0.10896 -0.33576 0.93562
vn 0.03485 0.33964 0.93991
vn -0.21511 0.19965 0.95597
vn 0.01996 0.83233 0.55392
vn -0.51022 0.62476 0.59106
vn -0.85041 0.12229 0.51171
vn -0.87353 -0.29302 0.38869
vn -0.39853 -0.04059 0.91626
vn -0.75439 -0.27443 0.59631
vn -0.77522 -0.56057 0.29119
vn -0.71065 -0.52961 0.46313
vn -0.04489 -0.22879 0.97244
vn 0.19451 -0.33718 0.92113
vn 0.07735 -0.19688 0.97737
vn 0.06125 -0.01912 0.99794
vn 0.92571 0.17294 0.33639
vn 0.84041 -0.34072 0.42144
vn 0.71436 -0.27533 0.64334
vn 0.82598 0.15512 0.54194
vn 0.60905 0.64285 0.46454
vn 0.65721 0.69942 0.28087
vn 0.24160 0.86812 0.43358
vn 0.24921 0.92924 0.27277
vn 0.01677 0.94752 0.31926
vn -0.04666 0.92212 0.38407
vn -0.05445 0.90129 0.42978
vn -0.03732 0.82961 0.55709
vn -0.04369 0.78867 0.61327
vn 0.02303 0.87813 0.47787
vn -0.16795 0.08198 0.98238
vn -0.11981 0.04003 0.99199
vn -0.10432 0.09515 0.98998
vn -0.48578 -0.83254 0.26625
vn -0.36491 -0.87269 0.32444
vn -0.33846 -0.79995 0.49550
vn -0.45656 -0.78097 0.42618
vn -0.58496 -0.70537 0.40033
vn -0.62460 -0.74142 0.24530
vn 0.57305 -0.64227 0.50903
vn -0.06291 0.88813 0.45526
vn -0.06418 0.87845 0.47350
vn -0.04979 0.76471 0.64245
vn -0.05146 0.74735 0.66243
vn -0.05664 0.00271 0.99839
vn -0.04721 -0.01198 0.99881
vn -0.07706 0.01592 0.99690
vn -0.20486 -0.87926 0.43005
vn -0.13963 -0.88062 0.45277
vn -0.11692 -0.76254 0.63629
vn -0.17472 -0.76677 0.61769
vn -0.24284 -0.78563 0.56904
vn -0.27288 -0.88084 0.38687
vn -0.06514 0.87092 0.48708
vn -0.06650 0.86397 0.49913
vn -0.05425 0.73480 0.67612
vn -0.05368 0.72276 0.68901
vn -0.04145 -0.02380 0.99886
vn -0.02697 -0.03197 0.99912
vn -0.05989 -0.87725 0.47628
vn -0.01958 -0.87618 0.48158
vn -0.01692 -0.74852 0.66289
vn -0.05000 -0.75234 0.65687
vn -0.08428 -0.75920 0.64538
vn -0.10143 -0.87899 0.46594
vn -0.06631 0.85559 0.51340
vn -0.06485 0.84677 0.52799
vn -0.04968 0.70683 0.70563
vn -0.04563 0.68764 0.72462
vn -0.00805 -0.04131 0.99911
vn 0.01939 -0.05738 0.99816
vn 0.01220 -0.87571 0.48268
vn 0.06130 -0.87672 0.47707
vn 0.05095 -0.74547 0.66459
vn 0.01013 -0.74679 0.66499
vn 0.15371 -0.87368 0.46157
vn 0.13059 -0.74006 0.65974
vn 0.05763 -0.08548 0.99467
vn 0.15607 -0.10969 0.98164
vn -0.07450 0.83484 0.54543
vn -0.07868 0.83812 0.53978
vn -0.05672 0.66377 0.74578
vn -0.03648 0.64128 0.76644
f 1//1 8//2 9//3 10//4
f 1//1 11//5 12//6 8//2
f 1//1 10//4 13//7 14//8
f 2//9 12//6 15//10 16//11
f 2//9 17//12 18//13 19//14
f 2//9 19//14 8//2 12//6
f 3//15 21//16 22//17 23//18
f 3//19 23//20 20//21 290//22
f 24//23 25//24 26//25 27//26
f 4//27 29//28 28//29 291//30
f 4//31 30//31 31//32 29//28
f 4//33 291//34 292//34 30//33
f 5//35 32//36 33//37 34//38
f 5//39 31//39 30//40 32//40
f 6//41 35//42 36//43 14//8
f 6//41 7//44 37//45 35//42
f 6//41 14//8 13//7 7//44
f 7//44 13//7 38//46 37//45
f 38//46 13//7 10//4 39//47
f 38//46 39//47 40//48 41//49
f 38//46 41//49 42//50 37//45
f 42//50 43//51 35//42 37//45
f 43//51 293//52 36//43 35//42
f 293//52 294//53 44//54 36//43
f 44//54 45//55 11//5 1//1
f 44//54 1//1 14//8 36//43
f 44//54 294//53 295//56 45//55
f 295//56 46//57 47//58 45//55
f 48//59 49//60 50//61 51//62
f 48//59 51//62 47//58 46//57
f 51//62 50//61 52//63 53//64
f 51//62 53//64 54//65 47//58
f 54//66 53//67 55//67 15//10
f 54//66 15//10 12//6 11//5
f 54//65 11//5 45//55 47//58
f 55//68 56//69 57//70 58//71
f 55//68 58//71 16//72 15//73
f 55//67 53//67 52//74 56//74
f 58//71 57//70 59//75 60//76
f 58//71 60//77 61//77 16//72
f 61//78 62//78 2//9 16//11
f 62//79 63//80 17//12 2//9
f 63//80 296//81 64//82 17//12
f 64//82 296//81 297//83 65//84
f 64//82 65//84 66//85 67//86
f 64//82 67//86 18//13 17//12
f 67//87 66//88 68//88 69//87
f 67//87 69//87 70//89 18//89
f 70//90 69//91 71//92 72//93
f 70//90 72//93 73//94 74//95
f 70//89 74//95 19//14 18//89
f 74//95 73//94 75//96 9//3
f 74//95 9//3 8//2 19//14
f 75//96 73//94 298//97 299//98
f 75//96 299//98 40//48 39//47
f 75//96 39//47 10//4 9//3
f 300//99 76//100 77//101 78//102
f 300//99 78//102 65//84 297//83
f 78//102 77//101 79//103 80//104
f 78//102 80//104 66//85 65//84
f 80//105 79//106 81//106 82//105
f 80//105 82//105 68//88 66//88
f 82//107 81//108 83//109 84//110
f 82//107 84//110 85//111 68//112
f 85//111 84//110 86//113 87//114
f 85//111 87//114 88//115 71//92
f 85//111 71//92 69//91 68//112
f 88//115 89//116 72//93 71//92
f 89//116 298//97 73//94 72//93
f 91//117 90//118 92//119 93//120
f 91//117 93//120 77//101 76//100
f 93//120 92//119 94//121 95//122
f 93//120 95//122 79//103 77//101
f 95//123 94//124 96//124 97//123
f 95//123 97//123 81//106 79//106
f 97//125 96//126 98//127 99//128
f 97//125 99//128 83//109 81//108
f 99//128 98//127 301//129 302//130
f 99//128 302//130 100//131 83//109
f 100//131 86//113 84//110 83//109
f 303//132 101//133 102//134 103//135
f 303//132 103//135 92//119 90//118
f 103//135 102//134 104//136 105//137
f 103//135 105//137 94//121 92//119
f 105//138 104//139 106//139 107//138
f 105//138 107//138 96//124 94//124
f 107//140 106//141 108//142 109//143
f 107//140 109//143 98//127 96//126
f 109//143 108//142 304//144 305//145
f 109//143 305//145 301//129 98//127
f 307//146 306//147 110//148 111//149
f 307//146 111//149 102//134 101//133
f 111//149 110//148 112//150 113//151
f 111//149 113//151 104//136 102//134
f 113//152 112//153 114//153 115//152
f 113//152 115//152 106//139 104//139
f 115//154 114//155 116//156 117//157
f 115//154 117//157 108//142 106//141
f 117//157 116//156 308//158 309//159
f 117//157 309//159 304//144 108//142
f 308//158 116//156 118//160 310//161
f 120//162 119//163 121//164 122//165
f 120//162 122//165 110//148 306//147
f 122//165 121//164 123//166 124//167
f 122//165 124//167 112//150 110//148
f 124//168 123//169 125//169 126//168
f 124//168 126//168 114//153 112//153
f 126//170 125//171 127//172 118//160
f 126//170 118//160 116//156 114//155
f 127//172 125//171 128//173 129//174
f 127//172 129//174 130//175 311//176
f 127//172 311//176 310//161 118//160
f 130//175 129//174 131//177 132//178
f 313//179 312//180 133//181 134//182
f 313//179 134//182 121//164 119//163
f 134//182 133//181 135//183 136//184
f 134//182 136//184 123//166 121//164
f 136//185 135//186 137//186 128//185
f 136//185 128//185 125//169 123//169
f 137//186 135//186 138//187 139//187
f 137//188 139//189 140//190 131//177
f 137//188 131//177 129//174 128//173
f 140//190 139//189 141//191 142//192
f 140//190 142//192 143//193 144//194
f 140//190 144//194 132//178 131//177
f 315//195 314//196 145//197 146//198
f 315//195 146//198 133//181 312//180
f 146//198 145//197 147//199 138//200
f 146//198 138//200 135//183 133//181
f 147//199 145//197 148//201 149//202
f 147//203 149//204 150//204 141//203
f 147//203 141//203 139//187 138//187
f 150//204 149//204 151//205 152//205
f 150//206 152//207 153//208 154//209
f 150//206 154//209 142//192 141//191
f 154//209 153//208 155//210 156//211
f 154//209 156//211 143//193 142//192
f 317//212 316//213 157//214 148//201
f 317//212 148//201 145//197 314//196
f 157//214 316//213 158//215 159//216
f 157//214 159//216 160//217 151//218
f 157//214 151//218 149//202 148//201
f 160//217 159//216 161//219 162//220
f 160//221 162//222 163//222 164//221
f 160//221 164//221 152//205 151//205
f 164//223 163//224 165//225 166//226
f 164//223 166//226 153//208 152//207
f 166//226 165//225 318//227 319//228
f 166//226 319//228 155//210 153//208
f 167//229 320//230 168//231 161//219
f 167//229 161//219 159//216 158//215
f 168//231 320//230 321//232 169//233
f 168//231 169//233 170//234 171//235
f 168//231 171//235 162//220 161//219
f 171//236 170//237 172//237 173//236
f 171//236 173//236 163//222 162//222
f 173//238 172//239 174//240 175//241
f 173//238 175//241 165//225 163//224
f 175//241 174//240 322//242 176//243
f 175//241 176//243 318//227 165//225
f 177//244 178//245 27//26 179//246
f 177//244 179//246 169//233 321//232
f 179//246 27//26 26//25 180//247
f 179//246 180//247 170//234 169//233
f 180//247 26//25 22//17 181//248
f 180//247 181//248 172//237 170//237
f 181//248 22//17 21//16 182//249
f 181//248 182//249 174//240 172//239
f 182//249 21//16 323//250 324//251
f 182//249 324//251 322//242 174//240
f 323//250 21//16 3//15 290//22
f 178//245 183//252 24//23 27//26
f 183//252 184//253 25//24 24//23
f 184//253 20//21 23//20 25//24
f 326//254 325//255 185//256 186//257
f 326//254 186//257 50//61 49//60
f 186//257 185//256 187//258 188//259
f 186//257 188//259 52//63 50//61
f 188//260 187//261 189//261 190//260
f 188//260 190//260 56//74 52//74
f 190//262 189//263 191//264 192//265
f 190//262 192//265 57//70 56//69
f 192//265 191//264 193//266 194//267
f 192//265 194//267 59//75 57//70
f 328//268 327//269 195//270 196//271
f 328//268 196//271 185//256 325//255
f 196//271 195//270 197//272 198//273
f 196//271 198//273 187//258 185//256
f 198//274 197//275 199//275 200//274
f 198//274 200//274 189//261 187//261
f 200//276 199//277 201//278 202//279
f 200//276 202//279 191//264 189//263
f 202//279 201//278 329//280 203//281
f 202//279 203//281 193//266 191//264
f 331//282 330//283 205//284 206//285
f 331//282 206//285 195//270 327//269
f 206//285 205//284 207//286 208//287
f 206//285 208//287 197//272 195//270
f 208//288 207//286 209//289 210//290
f 208//288 210//290 199//275 197//275
f 210//290 209//289 211//291 212//292
f 210//290 212//292 201//278 199//277
f 212//292 211//291 213//293 204//294
f 212//292 204//294 329//280 201//278
f 213//295 211//291 215//296 214//297
f 215//296 216//298 217//299 214//297
f 215//296 211//291 209//289 218//300
f 215//296 218//300 219//301 216//298
f 219//301 220//302 221//303 216//298
f 219//304 218//300 222//305 223//304
f 219//304 223//304 224//306 220//306
f 224//306 225//307 226//307 220//306
f 224//308 223//309 227//310 228//311
f 224//308 228//311 229//312 225//313
f 229//312 230//314 231//315 225//313
f 229//312 228//311 332//316 333//317
f 229//312 333//317 334//318 230//314
f 334//318 232//319 233//320 230//314
f 234//321 235//322 236//323 237//324
f 234//321 237//324 233//320 232//319
f 237//324 236//323 238//325 239//326
f 237//324 239//326 240//327 233//320
f 240//328 239//329 241//329 242//328
f 240//328 242//328 243//330 231//330
f 240//327 231//315 230//314 233//320
f 243//331 242//332 244//333 245//334
f 243//331 245//334 246//335 226//336
f 243//330 226//307 225//307 231//330
f 246//335 245//334 335//337 336//338
f 246//335 336//338 337//339 221//303
f 246//335 221//303 220//302 226//336
f 337//339 217//299 216//298 221//303
f 339//340 338//341 227//310 247//342
f 339//340 247//342 205//284 330//283
f 247//342 227//310 223//309 222//305
f 247//342 222//305 207//286 205//284
f 338//341 332//316 228//311 227//310
f 341//343 340//344 248//345 249//346
f 341//343 249//346 236//323 235//322
f 249//346 248//345 250//347 251//348
f 249//346 251//348 238//325 236//323
f 251//349 250//350 252//350 253//349
f 251//349 253//349 254//351 238//351
f 254//352 253//353 255//354 256//355
f 254//352 256//355 257//356 241//357
f 254//351 241//329 239//329 238//351
f 257//356 256//355 342//358 343//359
f 257//356 343//359 344//360 244//333
f 257//356 244//333 242//332 241//357
f 344//360 335//337 245//334 244//333
f 342//358 256//355 255//354 345//361
f 260//362 259//363 261//364 262//365
f 260//362 262//365 248//345 340//344
f 262//365 261//364 263//366 264//367
f 262//365 264//367 250//347 248//345
f 264//368 263//369 265//369 266//368
f 264//368 266//368 252//350 250//350
f 266//370 265//371 267//372 268//373
f 266//370 268//373 269//374 252//375
f 269//374 268//373 270//376 258//377
f 269//374 258//377 345//361 255//354
f 269//374 255//354 253//353 252//375
f 270//376 268//373 267//372 346//378
f 348//379 347//380 272//381 273//382
f 348//379 273//382 261//364 259//363
f 273//382 272//381 274//383 275//384
f 273//382 275//384 263//366 261//364
f 275//385 274//386 276//386 277//385
f 275//385 277//385 265//369 263//369
f 277//387 276//388 278//389 279//390
f 277//387 279//390 267//372 265//371
f 279//390 278//389 280//391 271//392
f 279//390 271//392 346//378 267//372
f 280//391 278//389 282//393 281//394
f 282//393 33//37 283//395 281//394
f 282//393 278//389 276//388 284//396
f 282//393 284//396 34//38 33//37
f 284//397 276//386 274//386 285//397
f 284//397 285//397 286//398 34//398
f 286//398 31//39 5//39 34//398
f 286//399 285//400 287//401 288//402
f 286//399 288//402 29//28 31//32
f 288//402 287//401 349//403 289//404
f 288//402 289//404 28//29 29//28
f 349//403 287//401 272//381 347//380
f 287//401 285//400 274//383 272//381
f 283//395 33//37 32//36 350//405
f 350//406 32//40 30//40 292//406
f 222//305 218//300 209//289 207//286
f 26//25 25//24 23//18 22//17
f 360//407 359//408 358//409 351//410
f 358//409 362//411 361//412 351//410
f 364//413 363//414 360//407 351//410
f 366//415 365//416 362//411 352//417
f 369//418 368//419 367//420 352//417
f 362//411 358//409 369//418 352//417
f 372//421 371//422 370//423 353//424
f 290//22 20//21 372//425 353//424
f 376//426 375//427 374//428 373//429
f 291//30 28//29 377//430 354//431
f 377//430 379//432 378//433 354//431
f 378//433 292//34 291//34 354//431
f 382//434 381//435 380//436 355//437
f 380//436 378//438 379//439 355//437
f 364//413 384//440 383//441 356//442
f 383//441 385//443 357//444 356//442
f 357//444 363//414 364//413 356//442
f 385//443 386//445 363//414 357//444
f 387//446 360//407 363//414 386//445
f 41//49 40//48 387//446 386//445
f 385//443 42//50 41//49 386//445
f 385//443 383//441 43//51 42//50
f 383//441 384//440 293//52 43//51
f 384//440 388//447 294//53 293//52
f 351//410 361//412 389//448 388//447
f 384//440 364//413 351//410 388//447
f 389//448 295//56 294//53 388//447
f 389//448 390//449 46//57 295//56
f 392//450 391//451 49//60 48//59
f 46//57 390//449 392//450 48//59
f 394//452 393//453 391//451 392//450
f 390//449 395//454 394//452 392//450
f 365//416 396//455 394//455 395//456
f 361//412 362//411 365//416 395//456
f 390//449 389//448 361//412 395//454
f 399//457 398//458 397//459 396//460
f 365//461 366//462 399//457 396//460
f 397//463 393//463 394//455 396//455
f 60//76 59//75 398//458 399//457
f 366//462 61//77 60//77 399//457
f 366//415 352//417 62//78 61//78
f 352//417 367//420 63//80 62//79
f 367//420 400//464 296//81 63//80
f 401//465 297//83 296//81 400//464
f 403//466 402//467 401//465 400//464
f 367//420 368//419 403//466 400//464
f 405//468 404//469 402//469 403//468
f 368//470 406//470 405//468 403//468
f 408//471 407//472 405//473 406//474
f 410//475 409//476 408//471 406//474
f 368//470 369//418 410//475 406//470
f 359//408 411//477 409//476 410//475
f 369//418 358//409 359//408 410//475
f 299//98 298//97 409//476 411//477
f 387//446 40//48 299//98 411//477
f 359//408 360//407 387//446 411//477
f 413//478 412//479 76//100 300//99
f 297//83 401//465 413//478 300//99
f 415//480 414//481 412//479 413//478
f 401//465 402//467 415//480 413//478
f 417//482 416//483 414//483 415//482
f 402//469 404//469 417//482 415//482
f 419//484 418//485 416//486 417//487
f 404//488 420//489 419//484 417//487
f 87//114 86//113 419//484 420//489
f 407//472 88//115 87//114 420//489
f 404//488 405//473 407//472 420//489
f 407//472 408//471 89//116 88//115
f 408//471 409//476 298//97 89//116
f 422//490 421//491 90//118 91//117
f 76//100 412//479 422//490 91//117
f 424//492 423//493 421//491 422//490
f 412//479 414//481 424//492 422//490
f 426//494 425//495 423//495 424//494
f 414//483 416//483 426//494 424//494
f 428//496 427//497 425//498 426//499
f 416//486 418//485 428//496 426//499
f 302//130 301//129 427//497 428//496
f 418//485 100//131 302//130 428//496
f 418//485 419//484 86//113 100//131
f 430//500 429//501 101//133 303//132
f 90//118 421//491 430//500 303//132
f 432//502 431//503 429//501 430//500
f 421//491 423//493 432//502 430//500
f 434//504 433//505 431//505 432//504
f 423//495 425//495 434//504 432//504
f 436//506 435//507 433//508 434//509
f 425//498 427//497 436//506 434//509
f 305//145 304//144 435//507 436//506
f 427//497 301//129 305//145 436//506
f 438//510 437//511 306//147 307//146
f 101//133 429//501 438//510 307//146
f 440//512 439//513 437//511 438//510
f 429//501 431//503 440//512 438//510
f 442//514 441//515 439//515 440//514
f 431//505 433//505 442//514 440//514
f 444//516 443//517 441//518 442//519
f 433//508 435//507 444//516 442//519
f 309//159 308//158 443//517 444//516
f 435//507 304//144 309//159 444//516
f 310//161 445//520 443//517 308//158
f 447//521 446//522 119//163 120//162
f 306//147 437//511 447//521 120//162
f 449//523 448//524 446//522 447//521
f 437//511 439//513 449//523 447//521
f 451//525 450//526 448//526 449//525
f 439//515 441//515 451//525 449//525
f 445//520 452//527 450//528 451//529
f 441//518 443//517 445//520 451//529
f 454//530 453//531 450//528 452//527
f 311//176 130//175 454//530 452//527
f 445//520 310//161 311//176 452//527
f 132//178 455//532 454//530 130//175
f 457//533 456//534 312//180 313//179
f 119//163 446//522 457//533 313//179
f 459//535 458//536 456//534 457//533
f 446//522 448//524 459//535 457//533
f 453//537 460//538 458//538 459//537
f 448//526 450//526 453//537 459//537
f 462//539 461//539 458//538 460//538
f 455//532 463//540 462//541 460//542
f 453//531 454//530 455//532 460//542
f 465//543 464//544 462//541 463//540
f 144//194 143//193 465//543 463//540
f 455//532 132//178 144//194 463//540
f 467//545 466//546 314//196 315//195
f 312//180 456//534 467//545 315//195
f 461//547 468//548 466//546 467//545
f 456//534 458//536 461//547 467//545
f 470//549 469//550 466//546 468//548
f 464//551 471//552 470//552 468//551
f 461//539 462//539 464//551 468//551
f 473//553 472//553 470//552 471//552
f 475//554 474//555 473//556 471//557
f 464//544 465//543 475//554 471//557
f 156//211 155//210 474//555 475//554
f 465//543 143//193 156//211 475//554
f 469//550 476//558 316//213 317//212
f 314//196 466//546 469//550 317//212
f 477//559 158//215 316//213 476//558
f 472//560 478//561 477//559 476//558
f 469//550 470//549 472//560 476//558
f 480//562 479//563 477//559 478//561
f 482//564 481//565 480//565 478//564
f 472//553 473//553 482//564 478//564
f 484//566 483//567 481//568 482//569
f 473//556 474//555 484//566 482//569
f 319//228 318//227 483//567 484//566
f 474//555 155//210 319//228 484//566
f 479//563 485//570 320//230 167//229
f 158//215 477//559 479//563 167//229
f 486//571 321//232 320//230 485//570
f 488//572 487//573 486//571 485//570
f 479//563 480//562 488//572 485//570
f 490//574 489//575 487//575 488//574
f 480//565 481//565 490//574 488//574
f 492//576 491//577 489//578 490//579
f 481//568 483//567 492//576 490//579
f 176//243 322//242 491//577 492//576
f 483//567 318//227 176//243 492//576
f 493//580 376//426 178//245 177//244
f 321//232 486//571 493//580 177//244
f 494//581 375//427 376//426 493//580
f 486//571 487//573 494//581 493//580
f 495//582 371//422 375//427 494//581
f 487//575 489//575 495//582 494//581
f 496//583 370//423 371//422 495//582
f 489//578 491//577 496//583 495//582
f 324//251 323//250 370//423 496//583
f 491//577 322//242 324//251 496//583
f 290//22 353//424 370//423 323//250
f 376//426 373//429 183//252 178//245
f 373//429 374//428 184//253 183//252
f 374//428 372//425 20//21 184//253
f 498//584 497//585 325//255 326//254
f 49//60 391//451 498//584 326//254
f 500//586 499//587 497//585 498//584
f 391//451 393//453 500//586 498//584
f 502//588 501//589 499//589 500//588
f 393//463 397//463 502//588 500//588
f 504//590 503//591 501//592 502//593
f 397//459 398//458 504//590 502//593
f 194//267 193//266 503//591 504//590
f 398//458 59//75 194//267 504//590
f 506//594 505//595 327//269 328//268
f 325//255 497//585 506//594 328//268
f 508//596 507//597 505//595 506//594
f 497//585 499//587 508//596 506//594
f 510//598 509//599 507//599 508//598
f 499//589 501//589 510//598 508//598
f 512//600 511//601 509//602 510//603
f 501//592 503//591 512//600 510//603
f 203//281 329//280 511//601 512//600
f 503//591 193//266 203//281 512//600
f 514//604 513//605 330//283 331//282
f 327//269 505//595 514//604 331//282
f 516//606 515//607 513//605 514//604
f 505//595 507//597 516//606 514//604
f 518//608 517//609 515//607 516//606
f 507//599 509//599 518//608 516//606
f 520//610 519//611 517//609 518//608
f 509//602 511//601 520//610 518//608
f 204//294 213//293 519//611 520//610
f 511//601 329//280 204//294 520//610
f 214//297 521//612 519//611 213//295
f 214//297 217//299 522//613 521//612
f 523//614 517//609 519//611 521//612
f 522//613 524//615 523//614 521//612
f 522//613 526//616 525//617 524//615
f 528//618 527//619 523//614 524//618
f 525//620 529//620 528//618 524//618
f 525//620 531//621 530//621 529//620
f 533//622 532//623 528//624 529//625
f 530//626 534//627 533//622 529//625
f 530//626 536//628 535//629 534//627
f 333//317 332//316 533//622 534//627
f 535//629 334//318 333//317 534//627
f 535//629 537//630 232//319 334//318
f 539//631 538//632 235//322 234//321
f 232//319 537//630 539//631 234//321
f 541//633 540//634 538//632 539//631
f 537//630 542//635 541//633 539//631
f 544//636 543//637 541//637 542//636
f 536//638 545//638 544//636 542//636
f 537//630 535//629 536//628 542//635
f 547//639 546//640 544//641 545//642
f 531//643 548//644 547//639 545//642
f 536//638 530//621 531//621 545//638
f 336//338 335//337 547//639 548//644
f 526//616 337//339 336//338 548//644
f 531//643 525//617 526//616 548//644
f 526//616 522//613 217//299 337//339
f 549//645 532//623 338//341 339//340
f 330//283 513//605 549//645 339//340
f 527//619 528//624 532//623 549//645
f 513//605 515//607 527//619 549//645
f 532//623 533//622 332//316 338//341
f 551//646 550//647 340//344 341//343
f 235//322 538//632 551//646 341//343
f 553//648 552//649 550//647 551//646
f 538//632 540//634 553//648 551//646
f 555//650 554//651 552//651 553//650
f 540//652 556//652 555//650 553//650
f 558//653 557//654 555//655 556//656
f 543//657 559//658 558//653 556//656
f 540//652 541//637 543//637 556//652
f 343//359 342//358 558//653 559//658
f 546//640 344//360 343//359 559//658
f 543//657 544//641 546//640 559//658
f 546//640 547//639 335//337 344//360
f 345//361 557//654 558//653 342//358
f 561//659 560//660 259//363 260//362
f 340//344 550//647 561//659 260//362
f 563//661 562//662 560//660 561//659
f 550//647 552//649 563//661 561//659
f 565//663 564//664 562//664 563//663
f 552//651 554//651 565//663 563//663
f 567//665 566//666 564//667 565//668
f 554//669 568//670 567//665 565//668
f 258//377 270//376 567//665 568//670
f 557//654 345//361 258//377 568//670
f 554//669 555//655 557//654 568//670
f 346//378 566//666 567//665 270//376
f 570//671 569//672 347//380 348//379
f 259//363 560//660 570//671 348//379
f 572//673 571//674 569//672 570//671
f 560//660 562//662 572//673 570//671
f 574//675 573//676 571//676 572//675
f 562//664 564//664 574//675 572//675
f 576//677 575//678 573//679 574//680
f 564//667 566//666 576//677 574//680
f 271//392 280//391 575//678 576//677
f 566//666 346//378 271//392 576//677
f 281//394 577//681 575//678 280//391
f 281//394 283//395 381//435 577//681
f 578//682 573//679 575//678 577//681
f 381//435 382//434 578//682 577//681
f 579//683 571//676 573//676 578//683
f 382//684 580//684 579//683 578//683
f 382//684 355//437 379//439 580//684
f 582//685 581//686 579//687 580//688
f 379//432 377//430 582//685 580//688
f 289//404 349//403 581//686 582//685
f 377//430 28//29 289//404 582//685
f 347//380 569//672 581//686 349//403
f 569//672 571//674 579//687 581//686
f 350//405 380//436 381//435 283//395
f 292//406 378//438 380//436 350//406
f 515//607 517//609 523//614 527//619
f 371//422 372//421 374//428 375//427
