# pilowlava3D glyph 'e' variant 3 — Vincent Wagner / Velvetyne, Free Art License
v 3.91003 0.80111 -0.22766
v 3.95051 3.72280 -0.36670
v 3.88947 0.40219 -0.38073
v 3.06318 3.45388 -0.39939
v 2.82417 2.76067 -0.41500
v 3.83604 3.32870 -0.33991
v 2.78202 3.51197 -0.33851
v 2.54026 1.94971 -0.33391
v 2.52488 2.88962 -0.32654
v 3.49886 2.16004 -0.40169
v 3.92713 0.84084 -0.00000
v 3.71827 0.87775 -0.00000
v 3.74460 0.80586 -0.27756
v 4.03842 0.63266 -0.26275
v 3.84919 0.60924 -0.41408
v 3.78584 3.84832 -0.43230
v 3.86806 4.00314 -0.24489
v 4.03938 3.75647 -0.22213
v 4.05211 3.47816 -0.20989
v 3.94059 3.52109 -0.38566
v 3.70691 3.61110 -0.50369
v 3.98526 0.34336 -0.23467
v 3.70315 0.16841 -0.23925
v 3.65361 0.32231 -0.42861
v 3.14044 3.33026 -0.21439
v 2.97440 3.19931 -0.20458
v 2.89162 3.23523 -0.31684
v 3.14334 3.74731 -0.51317
v 3.43394 3.69682 -0.53207
v 3.38160 3.45650 -0.43439
v 2.77705 3.27509 -0.26197
v 2.90566 3.79276 -0.50200
v 2.82306 3.01684 -0.33355
v 2.91190 2.99237 -0.21344
v 2.98303 2.79964 -0.23188
v 2.69491 3.06488 -0.26271
v 3.07931 2.52654 -0.45221
v 2.93221 2.34115 -0.55273
v 2.67542 2.52746 -0.53067
v 3.19054 2.63708 -0.25685
v 2.42858 2.64557 -0.50435
v 3.86879 3.24978 -0.19384
v 3.59443 3.25521 -0.21657
v 3.62909 3.38134 -0.40690
v 2.73676 3.28985 -0.00000
v 2.53543 3.65332 -0.31717
v 2.63369 3.86988 -0.49893
v 2.36905 2.11073 -0.30819
v 2.53280 2.30180 -0.50945
v 2.75217 2.14954 -0.52463
v 2.95485 1.97774 -0.52068
v 2.73763 1.82827 -0.43723
v 2.55159 1.69438 -0.35846
v 2.47230 1.76261 -0.24788
v 2.65292 3.08440 -0.00000
v 2.48132 2.98595 -0.00000
v 3.61700 2.16253 -0.25357
v 3.52466 1.81973 -0.26650
v 3.39139 1.95901 -0.45060
v 3.17181 2.15442 -0.53852
v 3.33249 2.34073 -0.44360
v 3.45004 2.46407 -0.25463
v 3.24068 2.68239 -0.00000
v 3.67006 2.16282 -0.00000
v 3.56841 1.78152 -0.00000
v 3.22364 1.63289 -0.25470
v 2.94921 1.53110 -0.00000
v 2.92881 1.58373 -0.22769
v 2.86378 1.69842 -0.39648
v 3.12488 1.78928 -0.44759
v 2.65896 1.52976 -0.19933
v 2.61658 1.60793 -0.32668
v 2.38492 1.48012 -0.17994
v 2.37498 1.53572 -0.29276
v 2.35583 1.61541 -0.30505
v 2.12678 1.51781 -0.32301
v 2.13330 1.62621 -0.32834
v 2.12994 1.68951 -0.19646
v 2.33833 1.66990 -0.20485
v 2.13139 1.71776 -0.00000
v 2.33325 1.68355 -0.00000
v 2.17306 2.24454 -0.29085
v 1.89857 2.31178 -0.00000
v 1.95086 2.38349 -0.27119
v 2.04368 2.54181 -0.46389
v 2.30227 2.41984 -0.48757
v 2.14474 2.75108 -0.48086
v 1.79448 2.67053 -0.44270
v 1.88803 2.87080 -0.45318
v 1.95573 3.02573 -0.27946
v 2.20647 2.93593 -0.29902
v 1.98275 3.09693 -0.00000
v 2.22396 3.01893 -0.00000
v 1.67868 2.46142 -0.00000
v 1.45550 2.61424 -0.00000
v 1.49165 2.67346 -0.25249
v 1.72127 2.52577 -0.25841
v 1.22972 2.76728 -0.00000
v 0.57872 3.64584 -0.00000
v 0.94933 3.39218 -0.22781
v 0.72353 3.49884 -0.20127
v 0.55981 3.64380 -0.17417
v 0.66508 3.43972 -0.33821
v 0.49223 3.61916 -0.30603
v 0.46152 3.85433 -0.29488
v 0.52148 3.84392 -0.16225
v 0.53566 3.84050 -0.00000
v 0.61829 4.02879 -0.15961
v 0.62959 4.02168 -0.00000
v 1.00391 2.92112 -0.00000
v 0.79092 3.11453 -0.23150
v 1.03013 2.96919 -0.24275
v 1.26090 2.82148 -0.25020
v 1.07817 3.06702 -0.39085
v 1.31841 2.93411 -0.40810
v 1.55642 2.80166 -0.42299
v 1.39433 3.08978 -0.40986
v 1.64146 2.98143 -0.42840
v 1.44728 3.20304 -0.25447
v 1.70226 3.11649 -0.26348
v 1.19538 3.29580 -0.24495
v 1.14573 3.20116 -0.38923
v 0.90018 3.31495 -0.36504
v 0.83349 3.19484 -0.36889
v 0.58590 3.34041 -0.34527
v 0.53450 3.28038 -0.21725
v 0.31242 3.53488 -0.20733
v 0.38058 3.56686 -0.32816
v 0.26074 3.88718 -0.19939
v 0.33646 3.87634 -0.31872
v 0.44090 4.19225 -0.18723
v 0.49037 4.14758 -0.30647
v 0.57305 4.06640 -0.28651
v 0.75601 4.28611 -0.31540
v 0.78798 4.18057 -0.30399
v 0.81692 4.12461 -0.17165
v 1.04443 4.19791 -0.35270
v 1.05392 4.10354 -0.20944
v 0.23748 3.88921 -0.00000
v 0.28976 3.52240 -0.00000
v 0.73869 4.35108 -0.19001
v 1.05025 4.45108 -0.00000
v 1.04731 4.41574 -0.21374
v 1.04295 4.32425 -0.35586
v 1.33942 4.43407 -0.23933
v 1.32616 4.31566 -0.39030
v 1.31062 4.16343 -0.39013
v 1.60551 4.29080 -0.41143
v 1.57333 4.10975 -0.41445
v 1.54596 3.97426 -0.25004
v 1.29684 4.04550 -0.23893
v 1.53080 3.91301 -0.00000
v 1.28852 3.99226 -0.00000
v 1.62331 4.42715 -0.24806
v 1.91071 4.46906 -0.00000
v 1.90334 4.40789 -0.24593
v 1.87907 4.25734 -0.42345
v 2.18157 4.38602 -0.25006
v 2.15039 4.22059 -0.43327
v 2.09463 3.98942 -0.45282
v 1.83433 4.04939 -0.43432
v 2.04653 3.81277 -0.27325
v 1.79556 3.89324 -0.26034
v 1.77707 3.82637 -0.00000
v 2.18967 4.45296 -0.00000
v 2.47028 4.42679 -0.00000
v 2.46033 4.35348 -0.25417
v 2.74909 4.39077 -0.00000
v 2.29463 3.73638 -0.29551
v 2.35828 3.93380 -0.47710
v 2.42577 4.17457 -0.44598
v 2.70856 4.12285 -0.45265
v 2.73861 4.31299 -0.25522
v 3.01817 4.27265 -0.25472
v 2.98408 4.07393 -0.45004
v 3.30247 4.21770 -0.25395
v 3.23698 4.02609 -0.45369
v 3.59193 4.14341 -0.25504
v 3.51659 3.95821 -0.46238
v 3.90244 4.04590 -0.00000
v 4.07278 3.76849 -0.00000
v 4.07701 3.46685 -0.00000
v 3.36800 3.31947 -0.23328
v 2.67262 1.49113 -0.00000
v 2.38731 1.45307 -0.00000
v 2.11833 1.45005 -0.19252
v 1.85072 1.39054 -0.00000
v 1.85779 1.43540 -0.22132
v 1.87376 1.53726 -0.37356
v 1.60256 1.42966 -0.24927
v 1.61446 1.56181 -0.41282
v 1.62826 1.71887 -0.40945
v 1.88726 1.67147 -0.37061
v 1.63892 1.84754 -0.24708
v 1.88779 1.76605 -0.22119
v 1.64806 1.90669 -0.00000
v 1.89066 1.81093 -0.00000
v 1.60067 1.36572 -0.00000
v 1.35753 1.41906 -0.26959
v 1.15123 1.31682 -0.00000
v 1.12698 1.40404 -0.28109
v 1.08422 1.60403 -0.47262
v 1.34888 1.58375 -0.44390
v 1.06783 1.86203 -0.46708
v 1.35889 1.78291 -0.43929
v 1.07331 2.05940 -0.27731
v 1.37772 1.93712 -0.26130
v 0.96427 1.28904 -0.00000
v 0.80628 1.24645 -0.00000
v 0.75796 1.32116 -0.27966
v 0.92336 1.37414 -0.28527
v 0.60759 1.53689 -0.48520
v 0.81964 1.60316 -0.49126
v 0.42164 1.80868 -0.49042
v 0.74207 1.91248 -0.48892
v 0.26534 2.03322 -0.32068
v 0.69756 2.15185 -0.29970
v 0.21339 2.10725 -0.00000
v 0.68107 2.24044 -0.00000
v 0.57364 1.06713 -0.00000
v 0.67030 1.17941 -0.00000
v 0.53992 1.08393 -0.23251
v 0.62808 1.22909 -0.25952
v 0.40642 1.13158 -0.39801
v 0.47057 1.38454 -0.45448
v 0.24642 1.16872 -0.39239
v 0.24011 1.52621 -0.44796
v 0.11168 1.19287 -0.23480
v 0.06149 1.62270 -0.27941
v 0.06477 1.20905 -0.00000
v 0.00000 1.66132 -0.00000
v 0.63477 0.76314 -0.00000
v 0.55534 0.91008 -0.00000
v 0.62662 0.75737 -0.16200
v 0.53463 0.91097 -0.19343
v 0.59206 0.72082 -0.27307
v 0.45762 0.88888 -0.31487
v 0.53256 0.65826 -0.27739
v 0.35397 0.86130 -0.31950
v 0.49294 0.62371 -0.15605
v 0.27351 0.85964 -0.18201
v 0.72304 0.44830 -0.00000
v 0.82112 0.66872 -0.00000
v 1.05029 0.62828 -0.18825
v 0.81422 0.65915 -0.15765
v 1.01890 0.54787 -0.33503
v 0.78710 0.61100 -0.28698
v 0.98911 0.42527 -0.33448
v 0.74610 0.51785 -0.28671
v 0.98094 0.34836 -0.19329
v 0.72741 0.46338 -0.16174
v 0.97941 0.31938 -0.00000
v 1.23962 0.26292 -0.22842
v 1.49129 0.14657 -0.00000
v 1.54174 0.68499 -0.00000
v 1.53839 0.62861 -0.23987
v 1.29239 0.62263 -0.22256
v 1.53117 0.50179 -0.40157
v 1.27241 0.51468 -0.37651
v 1.51792 0.33312 -0.40426
v 1.25019 0.37402 -0.37960
v 1.50119 0.20045 -0.24336
v 1.77831 0.29618 -0.41844
v 1.76437 0.14544 -0.24672
v 1.75684 0.08423 -0.00000
v 2.03190 0.10626 -0.24914
v 2.02596 0.04135 -0.00000
v 2.04152 0.72679 -0.00000
v 1.79097 0.70555 -0.00000
v 2.04312 0.65934 -0.24986
v 1.79038 0.64333 -0.24766
v 2.04353 0.50254 -0.43034
v 1.78904 0.49941 -0.41685
v 2.03939 0.27135 -0.43038
v 2.30034 0.50434 -0.44319
v 2.30178 0.25826 -0.43937
v 2.30048 0.08780 -0.24896
v 2.56551 0.25072 -0.44833
v 2.56944 0.07319 -0.25405
v 2.56968 0.00185 -0.00000
v 2.29778 0.01813 -0.00000
v 2.29369 0.74679 -0.00000
v 2.54915 0.68995 -0.26092
v 2.29646 0.67458 -0.25452
v 2.55811 0.50893 -0.45546
v 2.79941 0.70822 -0.26834
v 2.81541 0.51600 -0.46468
v 2.83153 0.25050 -0.45318
v 3.07172 0.52573 -0.46799
v 3.10046 0.26082 -0.45339
v 3.11941 0.08187 -0.25590
v 2.84164 0.07221 -0.25567
v 3.12621 0.01265 -0.00000
v 2.84512 0.00000 -0.00000
v 3.04608 0.72154 -0.27132
v 3.28631 0.74662 -0.27797
v 3.32736 0.53980 -0.46833
v 3.51921 0.77873 -0.28503
v 3.58214 0.56666 -0.46448
v 3.37420 0.27967 -0.44506
v 3.40334 0.11201 -0.24929
v 3.72128 0.11929 -0.00000
v 3.41502 0.04725 -0.00000
v 3.49967 0.86002 -0.00000
v 4.08691 0.63528 -0.00000
v 2.69174 3.45238 -0.00000
v 3.50136 2.50226 -0.00000
v 3.25725 1.57931 -0.00000
v 2.45286 1.76765 -0.00000
v 2.43851 1.89662 -0.00000
v 2.29731 2.02877 -0.00000
v 2.10848 2.16589 -0.00000
v 0.74832 3.51306 -0.00000
v 0.97392 3.42437 -0.00000
v 0.76992 3.07613 -0.00000
v 1.47246 3.25871 -0.00000
v 1.72889 3.17803 -0.00000
v 1.21999 3.34136 -0.00000
v 1.05850 4.06719 -0.00000
v 0.82835 4.11118 -0.00000
v 0.42727 4.20487 -0.00000
v 0.51521 3.25592 -0.00000
v 0.73388 4.37319 -0.00000
v 1.34776 4.48346 -0.00000
v 1.62923 4.48531 -0.00000
v 2.02353 3.73894 -0.00000
v 2.26475 3.65226 -0.00000
v 2.49079 3.57078 -0.00000
v 3.32804 4.29624 -0.00000
v 3.62415 4.20985 -0.00000
v 3.87761 3.22697 -0.00000
v 3.58642 3.21450 -0.00000
v 3.36493 3.26970 -0.00000
v 3.16143 3.29576 -0.00000
v 3.00243 3.18501 -0.00000
v 2.94319 2.98252 -0.00000
v 3.03091 2.80966 -0.00000
v 3.03381 4.35304 -0.00000
v 2.11435 1.41993 -0.00000
v 1.36593 1.34035 -0.00000
v 1.08115 2.13771 -0.00000
v 1.39074 2.00782 -0.00000
v 0.48077 0.61829 -0.00000
v 0.24871 0.86309 -0.00000
v 1.06320 0.65346 -0.00000
v 1.23552 0.21904 -0.00000
v 1.29790 0.66804 -0.00000
v 2.54442 0.76764 -0.00000
v 3.03584 0.80845 -0.00000
v 2.79243 0.79018 -0.00000
v 3.27131 0.83330 -0.00000
v 4.01147 0.31689 -0.00000
v 3.91003 0.80111 0.22766
v 3.95051 3.72280 0.36670
v 3.88947 0.40219 0.38073
v 3.06318 3.45388 0.39939
v 2.82417 2.76067 0.41500
v 3.83604 3.32870 0.33991
v 2.78202 3.51197 0.33851
v 2.54026 1.94971 0.33391
v 2.52488 2.88962 0.32654
v 3.49886 2.16004 0.40169
v 3.74460 0.80586 0.27756
v 4.03842 0.63266 0.26275
v 3.84919 0.60924 0.41408
v 3.78584 3.84832 0.43230
v 3.86806 4.00314 0.24489
v 4.03938 3.75647 0.22213
v 4.05211 3.47816 0.20989
v 3.94059 3.52109 0.38566
v 3.70691 3.61110 0.50369
v 3.98526 0.34336 0.23467
v 3.70315 0.16841 0.23925
v 3.65361 0.32231 0.42861
v 3.14044 3.33026 0.21439
v 2.97440 3.19931 0.20458
v 2.89162 3.23523 0.31684
v 3.14334 3.74731 0.51317
v 3.43394 3.69682 0.53207
v 3.38160 3.45650 0.43439
v 2.77705 3.27509 0.26197
v 2.90566 3.79276 0.50200
v 2.82306 3.01684 0.33355
v 2.91190 2.99237 0.21344
v 2.98303 2.79964 0.23188
v 2.69491 3.06488 0.26271
v 3.07931 2.52654 0.45221
v 2.93221 2.34115 0.55273
v 2.67542 2.52746 0.53067
v 3.19054 2.63708 0.25685
v 2.42858 2.64557 0.50435
v 3.86879 3.24978 0.19384
v 3.59443 3.25521 0.21657
v 3.62909 3.38134 0.40690
v 2.53543 3.65332 0.31717
v 2.63369 3.86988 0.49893
v 2.36905 2.11073 0.30819
v 2.53280 2.30180 0.50945
v 2.75217 2.14954 0.52463
v 2.95485 1.97774 0.52068
v 2.73763 1.82827 0.43723
v 2.55159 1.69438 0.35846
v 2.47230 1.76261 0.24788
v 3.61700 2.16253 0.25357
v 3.52466 1.81973 0.26650
v 3.39139 1.95901 0.45060
v 3.17181 2.15442 0.53852
v 3.33249 2.34073 0.44360
v 3.45004 2.46407 0.25463
v 3.22364 1.63289 0.25470
v 2.92881 1.58373 0.22769
v 2.86378 1.69842 0.39648
v 3.12488 1.78928 0.44759
v 2.65896 1.52976 0.19933
v 2.61658 1.60793 0.32668
v 2.38492 1.48012 0.17994
v 2.37498 1.53572 0.29276
v 2.35583 1.61541 0.30505
v 2.12678 1.51781 0.32301
v 2.13330 1.62621 0.32834
v 2.12994 1.68951 0.19646
v 2.33833 1.66990 0.20485
v 2.17306 2.24454 0.29085
v 1.95086 2.38349 0.27119
v 2.04368 2.54181 0.46389
v 2.30227 2.41984 0.48757
v 2.14474 2.75108 0.48086
v 1.79448 2.67053 0.44270
v 1.88803 2.87080 0.45318
v 1.95573 3.02573 0.27946
v 2.20647 2.93593 0.29902
v 1.49165 2.67346 0.25249
v 1.72127 2.52577 0.25841
v 0.94933 3.39218 0.22781
v 0.72353 3.49884 0.20127
v 0.55981 3.64380 0.17417
v 0.66508 3.43972 0.33821
v 0.49223 3.61916 0.30603
v 0.46152 3.85433 0.29488
v 0.52148 3.84392 0.16225
v 0.61829 4.02879 0.15961
v 0.79092 3.11453 0.23150
v 1.03013 2.96919 0.24275
v 1.26090 2.82148 0.25020
v 1.07817 3.06702 0.39085
v 1.31841 2.93411 0.40810
v 1.55642 2.80166 0.42299
v 1.39433 3.08978 0.40986
v 1.64146 2.98143 0.42840
v 1.44728 3.20304 0.25447
v 1.70226 3.11649 0.26348
v 1.19538 3.29580 0.24495
v 1.14573 3.20116 0.38923
v 0.90018 3.31495 0.36504
v 0.83349 3.19484 0.36889
v 0.58590 3.34041 0.34527
v 0.53450 3.28038 0.21725
v 0.31242 3.53488 0.20733
v 0.38058 3.56686 0.32816
v 0.26074 3.88718 0.19939
v 0.33646 3.87634 0.31872
v 0.44090 4.19225 0.18723
v 0.49037 4.14758 0.30647
v 0.57305 4.06640 0.28651
v 0.75601 4.28611 0.31540
v 0.78798 4.18057 0.30399
v 0.81692 4.12461 0.17165
v 1.04443 4.19791 0.35270
v 1.05392 4.10354 0.20944
v 0.73869 4.35108 0.19001
v 1.04731 4.41574 0.21374
v 1.04295 4.32425 0.35586
v 1.33942 4.43407 0.23933
v 1.32616 4.31566 0.39030
v 1.31062 4.16343 0.39013
v 1.60551 4.29080 0.41143
v 1.57333 4.10975 0.41445
v 1.54596 3.97426 0.25004
v 1.29684 4.04550 0.23893
v 1.62331 4.42715 0.24806
v 1.90334 4.40789 0.24593
v 1.87907 4.25734 0.42345
v 2.18157 4.38602 0.25006
v 2.15039 4.22059 0.43327
v 2.09463 3.98942 0.45282
v 1.83433 4.04939 0.43432
v 2.04653 3.81277 0.27325
v 1.79556 3.89324 0.26034
v 2.46033 4.35348 0.25417
v 2.29463 3.73638 0.29551
v 2.35828 3.93380 0.47710
v 2.42577 4.17457 0.44598
v 2.70856 4.12285 0.45265
v 2.73861 4.31299 0.25522
v 3.01817 4.27265 0.25472
v 2.98408 4.07393 0.45004
v 3.30247 4.21770 0.25395
v 3.23698 4.02609 0.45369
v 3.59193 4.14341 0.25504
v 3.51659 3.95821 0.46238
v 3.36800 3.31947 0.23328
v 2.11833 1.45005 0.19252
v 1.85779 1.43540 0.22132
v 1.87376 1.53726 0.37356
v 1.60256 1.42966 0.24927
v 1.61446 1.56181 0.41282
v 1.62826 1.71887 0.40945
v 1.88726 1.67147 0.37061
v 1.63892 1.84754 0.24708
v 1.88779 1.76605 0.22119
v 1.35753 1.41906 0.26959
v 1.12698 1.40404 0.28109
v 1.08422 1.60403 0.47262
v 1.34888 1.58375 0.44390
v 1.06783 1.86203 0.46708
v 1.35889 1.78291 0.43929
v 1.07331 2.05940 0.27731
v 1.37772 1.93712 0.26130
v 0.75796 1.32116 0.27966
v 0.92336 1.37414 0.28527
v 0.60759 1.53689 0.48520
v 0.81964 1.60316 0.49126
v 0.42164 1.80868 0.49042
v 0.74207 1.91248 0.48892
v 0.26534 2.03322 0.32068
v 0.69756 2.15185 0.29970
v 0.53992 1.08393 0.23251
v 0.62808 1.22909 0.25952
v 0.40642 1.13158 0.39801
v 0.47057 1.38454 0.45448
v 0.24642 1.16872 0.39239
v 0.24011 1.52621 0.44796
v 0.11168 1.19287 0.23480
v 0.06149 1.62270 0.27941
v 0.62662 0.75737 0.16200
v 0.53463 0.91097 0.19343
v 0.59206 0.72082 0.27307
v 0.45762 0.88888 0.31487
v 0.53256 0.65826 0.27739
v 0.35397 0.86130 0.31950
v 0.49294 0.62371 0.15605
v 0.27351 0.85964 0.18201
v 1.05029 0.62828 0.18825
v 0.81422 0.65915 0.15765
v 1.01890 0.54787 0.33503
v 0.78710 0.61100 0.28698
v 0.98911 0.42527 0.33448
v 0.74610 0.51785 0.28671
v 0.98094 0.34836 0.19329
v 0.72741 0.46338 0.16174
v 1.23962 0.26292 0.22842
v 1.53839 0.62861 0.23987
v 1.29239 0.62263 0.22256
v 1.53117 0.50179 0.40157
v 1.27241 0.51468 0.37651
v 1.51792 0.33312 0.40426
v 1.25019 0.37402 0.37960
v 1.50119 0.20045 0.24336
v 1.77831 0.29618 0.41844
v 1.76437 0.14544 0.24672
v 2.03190 0.10626 0.24914
v 2.04312 0.65934 0.24986
v 1.79038 0.64333 0.24766
v 2.04353 0.50254 0.43034
v 1.78904 0.49941 0.41685
v 2.03939 0.27135 0.43038
v 2.30034 0.50434 0.44319
v 2.30178 0.25826 0.43937
v 2.30048 0.08780 0.24896
v 2.56551 0.25072 0.44833
v 2.56944 0.07319 0.25405
v 2.54915 0.68995 0.26092
v 2.29646 0.67458 0.25452
v 2.55811 0.50893 0.45546
v 2.79941 0.70822 0.26834
v 2.81541 0.51600 0.46468
v 2.83153 0.25050 0.45318
v 3.07172 0.52573 0.46799
v 3.10046 0.26082 0.45339
v 3.11941 0.08187 0.25590
v 2.84164 0.07221 0.25567
v 3.04608 0.72154 0.27132
v 3.28631 0.74662 0.27797
v 3.32736 0.53980 0.46833
v 3.51921 0.77873 0.28503
v 3.58214 0.56666 0.46448
v 3.37420 0.27967 0.44506
v 3.40334 0.11201 0.24929
vn 0.12563 0.97067 -0.20496
vn 0.10459 0.82888 -0.54956
vn 0.02003 0.99980 0.00157
vn 0.13366 0.99102 0.00330
vn 0.77403 0.61312 -0.15796
vn 0.78433 0.62035 -0.00080
vn 0.35442 0.53569 -0.76644
vn 0.18007 0.58021 -0.79431
vn 0.68378 0.20405 -0.70058
vn 0.42862 0.37542 -0.82179
vn 0.60457 0.66012 -0.44580
vn 0.88245 0.28123 -0.37708
vn 0.88948 -0.30268 -0.34235
vn 0.60570 -0.22532 -0.76313
vn 0.22296 -0.12458 -0.96683
vn 0.39100 -0.70460 -0.59217
vn 0.47632 -0.78474 -0.39662
vn 0.33543 -0.83760 -0.43118
vn 0.27588 -0.72883 -0.62666
vn 0.51082 -0.08059 -0.85590
vn 0.89608 -0.13902 -0.42156
vn -0.05582 -0.52494 -0.84931
vn 0.24718 -0.88100 -0.40341
vn 0.75194 -0.51572 -0.41062
vn 0.64815 -0.43354 -0.62605
vn -0.07815 -0.07622 -0.99402
vn 0.01388 -0.07235 -0.99728
vn -0.10002 -0.61804 -0.77976
vn -0.39210 -0.01986 -0.91971
vn -0.26945 -0.36263 -0.89213
vn -0.10254 -0.13197 -0.98594
vn 0.27353 0.47763 -0.83490
vn 0.78191 0.04154 -0.62200
vn 0.91054 0.05565 -0.40966
vn 0.71152 0.57026 -0.41053
vn 0.01997 0.66881 -0.74317
vn -0.30357 0.30327 -0.90326
vn 0.34977 0.49014 -0.79839
vn 0.07607 0.12862 -0.98877
vn 0.00589 0.20784 -0.97815
vn 0.51650 0.74027 -0.43039
vn -0.01332 0.28745 -0.95770
vn 0.32892 -0.64899 -0.68602
vn -0.00219 -0.94221 -0.33500
vn -0.11133 -0.92478 -0.36386
vn 0.00301 -0.64547 -0.76378
vn 0.74393 -0.59200 -0.31001
vn -0.34263 -0.74155 -0.57680
vn -0.23667 -0.53925 -0.80821
vn -0.96520 -0.16670 -0.20148
vn -0.97604 0.10337 -0.19149
vn -0.99374 0.11155 0.00560
vn -0.98731 -0.15845 0.01089
vn -0.55653 -0.32286 -0.76553
vn -0.52606 -0.62126 -0.58077
vn -0.26425 -0.25885 -0.92907
vn -0.23942 -0.19700 -0.95072
vn -0.08608 -0.24595 -0.96545
vn -0.30064 -0.23322 -0.92478
vn -0.57091 0.39081 -0.72204
vn -0.61739 0.57627 -0.53549
vn -0.56540 0.79468 -0.22093
vn -0.58904 0.80806 0.00795
vn -0.79076 0.61211 0.00408
vn -0.77083 0.60410 -0.20218
vn 0.63518 0.10302 -0.76546
vn 0.88580 0.11488 -0.44962
vn 0.70617 -0.52052 -0.47998
vn 0.43452 -0.26908 -0.85953
vn 0.18963 0.00163 -0.98185
vn 0.45675 0.36739 -0.81019
vn 0.66200 0.60379 -0.44406
vn 0.56144 0.82752 0.00121
vn 0.74681 0.66503 -0.00070
vn 0.88554 0.46456 -0.00142
vn 0.96685 -0.25535 0.00017
vn 0.53295 -0.84615 -0.00042
vn 0.34854 -0.93730 -0.00016
vn 0.29977 -0.83201 -0.46679
vn 0.15370 -0.98812 0.00002
vn 0.13501 -0.89821 -0.41833
vn 0.01523 -0.61793 -0.78609
vn 0.14424 -0.52901 -0.83627
vn 0.14400 -0.91710 -0.37175
vn 0.01503 -0.62400 -0.78128
vn -0.10424 -0.34012 -0.93459
vn 0.13535 -0.93653 -0.32340
vn 0.13369 -0.86910 -0.47623
vn 0.00311 -0.18755 -0.98225
vn 0.14440 -0.06038 -0.98768
vn -0.22369 0.80282 -0.55267
vn 0.17922 0.87094 -0.45754
vn 0.20944 0.93052 -0.30045
vn -0.23991 0.91181 -0.33324
vn 0.23466 0.97208 -0.00025
vn 0.12841 0.99172 -0.00041
vn -0.57919 0.81519 0.00017
vn -0.99641 0.08303 0.01639
vn -0.98431 0.05927 -0.16619
vn -0.69767 -0.71642 0.00110
vn -0.64374 -0.76525 0.00055
vn -0.57372 -0.81905 0.00005
vn -0.47733 -0.68574 -0.54946
vn -0.55606 -0.83114 0.00010
vn -0.47227 -0.71483 -0.51573
vn -0.39100 -0.60253 -0.69576
vn -0.25677 -0.30494 -0.91710
vn -0.10072 -0.02163 -0.99468
vn -0.09714 -0.00775 -0.99524
vn 0.15441 0.64839 -0.74549
vn 0.21709 0.68327 -0.69715
vn 0.26831 0.82660 -0.49471
vn 0.19036 0.82713 -0.52879
vn 0.31308 0.94973 0.00003
vn 0.21929 0.97566 0.00021
vn 0.12367 0.99232 0.00030
vn -0.55331 -0.83297 0.00002
vn -0.55353 -0.83283 -0.00004
vn -0.48536 -0.74119 -0.46375
vn -0.48007 -0.73037 -0.48590
vn 0.51789 0.85545 0.00011
vn 0.36333 0.93166 0.00043
vn 0.34006 0.86802 -0.36181
vn 0.49338 0.80947 -0.31834
vn 0.82093 0.48732 -0.29765
vn 0.85542 0.51793 -0.00013
vn 0.45335 0.73818 -0.49956
vn 0.76001 0.44195 -0.47652
vn 0.88757 -0.13110 -0.44163
vn 0.95208 -0.13559 -0.27416
vn 0.99064 -0.13649 0.00008
vn 0.66877 -0.69539 -0.26303
vn 0.69072 -0.72312 0.00005
vn -0.54659 -0.83740 0.00002
vn -0.55139 -0.83425 0.00012
vn -0.50722 -0.77558 -0.37577
vn -0.49265 -0.76680 -0.41149
vn -0.49023 -0.75183 -0.44094
vn -0.55264 -0.83342 -0.00000
vn -0.43094 -0.68360 -0.58906
vn -0.42220 -0.66129 -0.62004
vn -0.41473 -0.64515 -0.64171
vn -0.40761 -0.62879 -0.66218
vn -0.07725 0.00576 -0.99699
vn -0.06322 0.02072 -0.99778
vn 0.23508 0.71028 -0.66351
vn 0.25577 0.73569 -0.62718
vn 0.28884 0.85089 -0.43882
vn 0.27564 0.83952 -0.46822
vn 0.31579 0.94883 -0.00004
vn 0.31012 0.95070 -0.00002
vn 0.30625 0.86164 -0.40471
vn 0.33059 0.94377 0.00007
vn 0.27502 0.75984 -0.58908
vn 0.30829 0.77960 -0.54514
vn -0.06077 0.07172 -0.99557
vn -0.06415 0.04411 -0.99697
vn -0.00930 0.12369 -0.99228
vn -0.56675 -0.63029 -0.53060
vn -0.45226 -0.69933 -0.55354
vn -0.62650 -0.69802 -0.34679
vn -0.85886 -0.38349 -0.33955
vn -0.77416 -0.34051 -0.53360
vn 0.11108 0.11233 -0.98744
vn -0.92395 0.19182 -0.33095
vn -0.83007 0.17839 -0.52835
vn 0.18221 0.00342 -0.98325
vn -0.65643 0.68920 -0.30676
vn -0.59777 0.63208 -0.49311
vn 0.10284 -0.10633 -0.98900
vn -0.06528 -0.12438 -0.99009
vn 0.62935 -0.64927 -0.42705
vn 0.15224 -0.88165 -0.44666
vn 0.15051 -0.94770 -0.28145
vn -0.15886 -0.84247 -0.51480
vn -0.18877 -0.92119 -0.34026
vn -0.21516 -0.97658 -0.00011
vn 0.14284 -0.98975 -0.00040
vn -0.91111 -0.41216 -0.00006
vn -0.98033 0.19737 0.00005
vn -0.66754 -0.74458 0.00004
vn -0.69189 0.72200 -0.00005
vn -0.35517 0.93480 0.00005
vn -0.33869 0.88854 -0.30950
vn -0.16089 0.98697 0.00021
vn -0.15028 0.92218 -0.35638
vn -0.13621 0.83102 -0.53930
vn -0.31267 0.81626 -0.48576
vn -0.03757 0.91101 -0.41068
vn -0.03026 0.79708 -0.60312
vn -0.14263 -0.04951 -0.98854
vn -0.10565 0.00614 -0.99438
vn -0.06727 0.03169 -0.99723
vn -0.22368 -0.76952 -0.59817
vn -0.23138 -0.72973 -0.64340
vn -0.27389 -0.84795 -0.45383
vn -0.26003 -0.87267 -0.41332
vn -0.31149 -0.95025 -0.00005
vn -0.29003 -0.95702 0.00027
vn -0.04419 0.99902 0.00011
vn 0.03472 0.99940 0.00004
vn 0.03576 0.89527 -0.44408
vn 0.06506 0.99788 0.00001
vn 0.06433 0.88463 -0.46183
vn 0.06202 0.75324 -0.65482
vn 0.03590 0.76878 -0.63851
vn 0.07922 0.87378 -0.47983
vn 0.07276 0.73678 -0.67221
vn -0.04565 0.06076 -0.99711
vn -0.04200 0.09760 -0.99434
vn -0.23342 -0.69723 -0.67778
vn -0.23010 -0.66040 -0.71479
vn -0.28199 -0.81210 -0.51086
vn -0.28228 -0.82964 -0.48169
vn -0.32719 -0.94496 0.00001
vn -0.32568 -0.94548 -0.00001
vn 0.08418 0.99645 -0.00001
vn 0.11891 0.99291 -0.00001
vn 0.10749 0.86110 -0.49694
vn -0.43014 -0.90276 -0.00011
vn -0.33634 -0.94174 0.00009
vn -0.28985 -0.79057 -0.53944
vn -0.49130 -0.82465 -0.28032
vn -0.51193 -0.85903 -0.00034
vn -0.23369 -0.61488 -0.75320
vn -0.03193 0.13863 -0.98983
vn 0.03334 0.45542 -0.88965
vn 0.06407 0.45710 -0.88710
vn 0.01006 0.16460 -0.98631
vn 0.12466 0.85013 -0.51160
vn 0.14308 0.84071 -0.52223
vn 0.07554 0.45744 -0.88603
vn 0.18600 0.83491 -0.51801
vn 0.07731 0.47221 -0.87809
vn 0.31847 0.80550 -0.49974
vn 0.17920 0.46514 -0.86691
vn 0.22721 0.97385 0.00014
vn 0.37737 0.92606 -0.00020
vn 0.68457 0.72895 0.00020
vn 0.95583 0.29392 0.00091
vn 0.99964 0.02691 0.00068
vn 0.77241 -0.63512 0.00026
vn 0.01781 -0.99984 -0.00102
vn -0.11691 -0.99314 -0.00046
vn -0.17314 -0.98490 0.00094
vn -0.15184 -0.91191 -0.38127
vn -0.09488 -0.99549 0.00175
vn 0.59261 -0.80549 -0.00110
vn 0.81913 -0.57361 -0.00057
vn 0.99780 0.06630 0.00086
vn 0.76723 0.64137 0.00205
vn 0.16375 0.98650 0.00002
vn 0.13644 0.99065 0.00003
vn 0.15374 -0.98811 0.00016
vn 0.13451 -0.99091 0.00019
vn 0.10658 -0.99430 0.00003
vn 0.10199 -0.94060 -0.32383
vn 0.08325 -0.99653 -0.00012
vn 0.07113 -0.92245 -0.37951
vn 0.05953 -0.83457 -0.54767
vn 0.09659 -0.87364 -0.47689
vn 0.06364 -0.89373 -0.44407
vn 0.04722 -0.77938 -0.62477
vn 0.16380 -0.01033 -0.98644
vn 0.13264 0.01082 -0.99111
vn 0.27259 0.81299 -0.51453
vn 0.26644 0.75697 -0.59667
vn 0.31008 0.85223 -0.42138
vn 0.31025 0.88126 -0.35654
vn 0.35034 0.93662 -0.00006
vn 0.34418 0.93890 -0.00012
vn 0.07989 -0.99680 0.00002
vn 0.09062 -0.99589 0.00001
vn 0.07122 -0.86658 -0.49393
vn 0.12193 -0.99254 -0.00014
vn 0.09499 -0.84317 -0.52920
vn 0.06756 -0.68405 -0.72630
vn 0.05122 -0.72899 -0.68260
vn 0.11053 0.01847 -0.99370
vn 0.08820 0.02410 -0.99581
vn 0.27220 0.70968 -0.64981
vn 0.22914 0.67162 -0.70457
vn 0.27779 0.81972 -0.50088
vn 0.32270 0.82533 -0.46335
vn 0.31960 0.94755 0.00006
vn 0.36866 0.92957 0.00002
vn 0.21405 -0.97682 -0.00013
vn 0.39034 -0.92067 0.00030
vn 0.32924 -0.76578 -0.55243
vn 0.17166 -0.81608 -0.55185
vn 0.10780 -0.33700 -0.93531
vn 0.08349 -0.33580 -0.93822
vn -0.22293 0.18586 -0.95695
vn 0.02411 0.33069 -0.94343
vn -0.52529 0.60687 -0.59647
vn 0.00527 0.82862 -0.55979
vn -0.26292 0.96482 -0.00062
vn -0.00567 0.99998 -0.00027
vn 0.66303 -0.74860 -0.00090
vn 0.93437 -0.35631 -0.00094
vn 0.84884 -0.30859 -0.42924
vn 0.58521 -0.62594 -0.51549
vn 0.71707 -0.24536 -0.65239
vn 0.19849 -0.32276 -0.92544
vn -0.04572 -0.22562 -0.97314
vn -0.40648 -0.04615 -0.91249
vn -0.75712 -0.27813 -0.59111
vn -0.87265 -0.29777 -0.38706
vn -0.85596 0.10089 -0.50710
vn -0.95224 -0.30534 0.00006
vn -0.98882 0.14912 -0.00013
vn -0.90377 0.42801 -0.00018
vn 0.97753 0.21081 0.00019
vn 0.69467 0.71933 -0.00027
vn 0.66877 0.69308 -0.26903
vn 0.92088 0.19557 -0.33725
vn 0.61943 0.64155 -0.45246
vn 0.81913 0.17139 -0.54740
vn 0.06697 -0.20318 -0.97685
vn 0.04570 -0.03912 -0.99819
vn -0.71041 -0.53682 -0.45512
vn -0.58745 -0.70569 -0.39611
vn -0.62673 -0.74039 -0.24296
vn -0.77335 -0.56608 -0.28546
vn -0.65188 -0.75832 -0.00012
vn -0.81458 -0.58005 0.00007
vn 0.27961 0.96011 -0.00009
vn 0.02953 0.99956 -0.00044
vn 0.03777 0.94912 -0.31263
vn 0.27830 0.92564 -0.25640
vn 0.04494 0.87552 -0.48108
vn 0.27078 0.86625 -0.41987
vn -0.10480 0.05191 -0.99314
vn -0.16988 0.04945 -0.98422
vn -0.46347 -0.78195 -0.41683
vn -0.35007 -0.80316 -0.48207
vn -0.37631 -0.87101 -0.31581
vn -0.48954 -0.83175 -0.26179
vn -0.39391 -0.91915 0.00013
vn -0.50531 -0.86294 0.00002
vn -0.27863 -0.87958 -0.38561
vn -0.30424 -0.95259 0.00007
vn -0.04286 0.99908 -0.00034
vn -0.06423 0.99793 0.00002
vn -0.05446 0.90209 -0.42809
vn -0.03463 0.92316 -0.38286
vn -0.04356 0.78953 -0.61216
vn -0.02677 0.82754 -0.56077
vn -0.12548 0.03528 -0.99147
vn -0.07336 0.02260 -0.99705
vn -0.24473 -0.78346 -0.57123
vn -0.17376 -0.75588 -0.63123
vn -0.20886 -0.87555 -0.43566
vn -0.13035 -0.74184 -0.65779
vn -0.15964 -0.87266 -0.46151
vn -0.18531 -0.98268 0.00003
vn -0.23817 -0.97122 0.00010
vn -0.09895 -0.87447 -0.47489
vn -0.11467 -0.99340 -0.00004
vn -0.07449 0.99722 -0.00001
vn -0.07353 0.99729 0.00001
vn -0.06117 0.88051 -0.47006
vn -0.06160 0.88899 -0.45377
vn -0.04819 0.75253 -0.65679
vn -0.04788 0.76582 -0.64127
vn -0.05231 0.01060 -0.99857
vn -0.04568 -0.00087 -0.99896
vn -0.04138 -0.01492 -0.99903
vn -0.08145 -0.73929 -0.66845
vn -0.05188 -0.74062 -0.66991
vn -0.06046 -0.87480 -0.48069
vn -0.02913 -0.74081 -0.67109
vn -0.03119 -0.87471 -0.48364
vn -0.03283 -0.99946 -0.00000
vn -0.06822 -0.99767 -0.00003
vn -0.07377 0.99728 0.00000
vn -0.08079 0.99673 0.00000
vn -0.06865 0.86488 -0.49727
vn -0.06241 0.87307 -0.48358
vn -0.05614 0.72782 -0.68347
vn -0.05060 0.74149 -0.66905
vn -0.06316 0.85758 -0.51046
vn -0.04996 0.71451 -0.69784
vn -0.03368 -0.02941 -0.99900
vn -0.01578 -0.04310 -0.99895
vn 0.00690 -0.05983 -0.99818
vn 0.00840 -0.74057 -0.67193
vn 0.05461 -0.74197 -0.66820
vn 0.06654 -0.87556 -0.47851
vn 0.01267 -0.87525 -0.48350
vn 0.07764 -0.99698 0.00000
vn 0.01689 -0.99986 -0.00002
vn -0.07622 0.99709 0.00001
vn -0.08752 0.99616 0.00004
vn -0.07052 0.84895 -0.52375
vn -0.11987 0.99279 0.00007
vn -0.09820 0.83697 -0.53837
vn -0.07492 0.66688 -0.74139
vn -0.05337 0.69774 -0.71436
vn -0.07931 0.82862 -0.55417
vn -0.04239 0.62693 -0.77792
vn 0.03463 -0.08690 -0.99562
vn 0.13360 -0.10118 -0.98586
vn 0.11972 -0.74302 -0.65847
vn 0.14308 -0.87352 -0.46528
vn 0.38584 -0.92257 0.00022
vn 0.16343 -0.98655 -0.00016
vn -0.11324 0.99357 -0.00005
vn 0.54612 -0.83771 0.00078
vn 0.97706 -0.21295 -0.00122
vn 0.11188 0.83813 0.53388
vn 0.26887 0.82539 0.49643
vn 0.77513 0.61215 0.15637
vn 0.18998 0.61010 0.76921
vn 0.36984 0.58445 0.72225
vn 0.88310 0.27154 0.38262
vn 0.60781 0.65298 0.45187
vn 0.43254 0.36753 0.82330
vn 0.68589 0.19374 0.70144
vn 0.60405 -0.22807 0.76361
vn 0.88653 -0.30503 0.34789
vn 0.22709 -0.12631 0.96565
vn 0.28073 -0.72031 0.63431
vn 0.33818 -0.83411 0.43577
vn 0.72974 -0.50879 0.45674
vn 0.47689 -0.31955 0.81882
vn 0.88034 -0.16435 0.44496
vn 0.48208 -0.10490 0.86983
vn 0.64856 -0.42884 0.62886
vn 0.75244 -0.51392 0.41197
vn 0.24840 -0.88027 0.40426
vn -0.05013 -0.50930 0.85913
vn -0.09967 -0.61912 0.77895
vn 0.01506 -0.07236 0.99727
vn -0.07605 -0.07391 0.99436
vn -0.26664 -0.33528 0.90360
vn -0.38058 0.01368 0.92465
vn -0.10456 -0.12777 0.98628
vn 0.71373 0.56296 0.41674
vn 0.90830 0.04649 0.41574
vn 0.77580 0.02637 0.63042
vn 0.26537 0.45698 0.84897
vn -0.32154 0.26564 0.90887
vn 0.00552 0.65218 0.75804
vn 0.00506 0.20391 0.97898
vn 0.07667 0.12903 0.98867
vn 0.35071 0.49179 0.79696
vn 0.51785 0.74009 0.42907
vn -0.01780 0.28318 0.95890
vn 0.00869 -0.64506 0.76408
vn -0.10755 -0.92398 0.36701
vn 0.00590 -0.94014 0.34073
vn 0.32815 -0.64724 0.68803
vn 0.73688 -0.59633 0.31843
vn -0.24137 -0.53518 0.80952
vn -0.34524 -0.73973 0.57759
vn -0.97260 0.11535 0.20187
vn -0.96433 -0.14297 0.22277
vn -0.24509 -0.18251 0.95217
vn -0.26488 -0.25891 0.92887
vn -0.52620 -0.62132 0.58058
vn -0.69453 -0.25015 0.67458
vn -0.31494 -0.23848 0.91866
vn -0.08953 -0.23066 0.96891
vn -0.76704 0.45222 0.45514
vn -0.60915 0.35780 0.70775
vn -0.77678 0.59389 0.20955
vn -0.58139 0.77852 0.23641
vn 0.43538 -0.26384 0.86072
vn 0.70605 -0.51717 0.48377
vn 0.88236 0.11282 0.45686
vn 0.63137 0.10088 0.76889
vn 0.45801 0.36141 0.81216
vn 0.19263 0.00289 0.98127
vn 0.66292 0.59899 0.44917
vn 0.29794 -0.83284 0.46648
vn 0.13468 -0.89815 0.41855
vn 0.14318 -0.52845 0.83680
vn 0.01505 -0.61697 0.78685
vn 0.02241 -0.62641 0.77917
vn 0.14727 -0.91693 0.37087
vn -0.09668 -0.34542 0.93346
vn 0.13763 -0.86965 0.47409
vn 0.13682 -0.93665 0.32243
vn 0.01400 -0.19020 0.98165
vn 0.14807 -0.05778 0.98729
vn -0.24517 0.91272 0.32684
vn 0.20588 0.93118 0.30086
vn 0.17421 0.87133 0.45873
vn -0.23435 0.80715 0.54184
vn -0.47728 -0.68591 0.54930
vn -0.47240 -0.71500 0.51537
vn -0.25714 -0.30513 0.91694
vn -0.39207 -0.60268 0.69502
vn -0.10127 -0.02161 0.99462
vn -0.09777 -0.00751 0.99518
vn 0.18775 0.82701 0.52991
vn 0.26830 0.82641 0.49503
vn 0.21715 0.68276 0.69763
vn 0.14903 0.64784 0.74706
vn -0.47980 -0.73042 0.48609
vn -0.48547 -0.74115 0.46370
vn 0.49322 0.80868 0.32056
vn 0.34079 0.86743 0.36253
vn 0.82098 0.48723 0.29766
vn 0.76076 0.44062 0.47655
vn 0.45268 0.73587 0.50356
vn 0.95249 -0.13552 0.27277
vn 0.88895 -0.13066 0.43897
vn 0.66879 -0.69551 0.26267
vn -0.49340 -0.76630 0.41152
vn -0.50812 -0.77480 0.37617
vn -0.49029 -0.75181 0.44090
vn -0.42242 -0.66121 0.61998
vn -0.43224 -0.68276 0.58908
vn -0.41472 -0.64516 0.64170
vn -0.40724 -0.62872 0.66247
vn -0.07726 0.00574 0.99699
vn -0.06246 0.02027 0.99784
vn 0.27574 0.83949 0.46822
vn 0.28965 0.85055 0.43895
vn 0.25747 0.73485 0.62746
vn 0.23541 0.71014 0.66354
vn 0.30646 0.86158 0.40468
vn 0.27511 0.75993 0.58891
vn 0.30765 0.77945 0.54572
vn -0.06057 0.07250 0.99553
vn -0.06359 0.04367 0.99702
vn -0.01495 0.11824 0.99287
vn -0.62680 -0.69767 0.34697
vn -0.45317 -0.69833 0.55405
vn -0.56697 -0.62986 0.53087
vn -0.77389 -0.34052 0.53399
vn -0.85875 -0.38359 0.33971
vn 0.10320 0.10577 0.98902
vn -0.83025 0.17861 0.52800
vn -0.92397 0.19196 0.33080
vn 0.17981 0.00335 0.98369
vn -0.59830 0.63231 0.49216
vn -0.65659 0.68930 0.30619
vn 0.09996 -0.10198 0.98975
vn -0.06647 -0.11630 0.99099
vn 0.15077 -0.94726 0.28280
vn 0.15630 -0.87959 0.44932
vn 0.62919 -0.64989 0.42634
vn -0.18686 -0.92042 0.34339
vn -0.15269 -0.83995 0.52074
vn -0.33829 0.88889 0.30893
vn -0.15130 0.92208 0.35620
vn -0.31130 0.81742 0.48468
vn -0.13663 0.83141 0.53861
vn -0.03270 0.79662 0.60359
vn -0.03916 0.91077 0.41105
vn -0.14213 -0.04623 0.98877
vn -0.10593 0.00582 0.99436
vn -0.06558 0.03189 0.99734
vn -0.25865 -0.87256 0.41441
vn -0.27389 -0.84800 0.45373
vn -0.23119 -0.72986 0.64331
vn -0.22250 -0.76872 0.59963
vn 0.03568 0.89525 0.44412
vn 0.06416 0.88462 0.46187
vn 0.03549 0.76878 0.63853
vn 0.06175 0.75321 0.65488
vn 0.07255 0.73672 0.67230
vn 0.07912 0.87376 0.47988
vn -0.04543 0.06081 0.99711
vn -0.04334 0.09742 0.99430
vn -0.28225 -0.82961 0.48174
vn -0.28285 -0.81198 0.51057
vn -0.23200 -0.66026 0.71430
vn -0.23329 -0.69717 0.67789
vn 0.10774 0.86106 0.49696
vn -0.28936 -0.79039 0.53995
vn -0.49161 -0.82469 0.27967
vn -0.23326 -0.61419 0.75390
vn 0.03359 0.45526 0.88973
vn -0.03180 0.13838 0.98987
vn 0.01070 0.16456 0.98631
vn 0.06440 0.45701 0.88713
vn 0.12467 0.85008 0.51168
vn 0.07543 0.45745 0.88603
vn 0.14305 0.84080 0.52210
vn 0.07773 0.47233 0.87799
vn 0.18610 0.83499 0.51785
vn 0.17975 0.46524 0.86674
vn 0.31809 0.80590 0.49935
vn -0.15137 -0.91221 0.38073
vn 0.10069 -0.94074 0.32382
vn 0.07175 -0.92262 0.37898
vn 0.09277 -0.87409 0.47683
vn 0.05786 -0.83520 0.54690
vn 0.05156 -0.78061 0.62289
vn 0.06622 -0.89407 0.44301
vn 0.16541 -0.01006 0.98617
vn 0.13282 0.01078 0.99108
vn 0.30995 0.88150 0.35623
vn 0.31136 0.85192 0.42106
vn 0.26839 0.75664 0.59620
vn 0.27236 0.81331 0.51415
vn 0.07104 -0.86663 0.49388
vn 0.09501 -0.84340 0.52881
vn 0.05141 -0.72905 0.68253
vn 0.06731 -0.68454 0.72586
vn 0.11029 0.01866 0.99372
vn 0.08772 0.02437 0.99585
vn 0.32275 0.82501 0.46389
vn 0.27822 0.81987 0.50040
vn 0.22993 0.67226 0.70370
vn 0.27264 0.70870 0.65070
vn 0.17236 -0.81668 0.55075
vn 0.33068 -0.76351 0.55470
vn 0.08478 -0.33804 0.93730
vn 0.10762 -0.33499 0.93605
vn 0.02489 0.32801 0.94435
vn -0.22100 0.18126 0.95828
vn 0.00548 0.82793 0.56081
vn -0.52446 0.60404 0.60007
vn 0.58682 -0.62884 0.51011
vn 0.84795 -0.31168 0.42875
vn 0.20160 -0.32757 0.92307
vn 0.71543 -0.24981 0.65250
vn -0.40617 -0.04788 0.91254
vn -0.05496 -0.22498 0.97281
vn -0.85590 0.10057 0.50727
vn -0.87224 -0.29889 0.38711
vn -0.75664 -0.27943 0.59111
vn 0.91944 0.19916 0.33906
vn 0.67109 0.69219 0.26554
vn 0.81590 0.17705 0.55042
vn 0.62375 0.64156 0.44648
vn 0.06072 -0.19646 0.97863
vn 0.05071 -0.03391 0.99814
vn -0.77156 -0.56809 0.28630
vn -0.62663 -0.74055 0.24273
vn -0.58723 -0.70599 0.39590
vn -0.70732 -0.53971 0.45652
vn 0.28165 0.92452 0.25677
vn 0.03889 0.94928 0.31200
vn 0.27482 0.86455 0.42074
vn 0.04726 0.87564 0.48064
vn -0.10398 0.05369 0.99313
vn -0.16914 0.04837 0.98440
vn -0.49048 -0.83119 0.26180
vn -0.37513 -0.87140 0.31614
vn -0.34791 -0.80386 0.48246
vn -0.46434 -0.78143 0.41684
vn -0.27664 -0.88031 0.38540
vn -0.03612 0.92343 0.38207
vn -0.05414 0.90198 0.42837
vn -0.02766 0.82807 0.55994
vn -0.04336 0.78919 0.61261
vn -0.12500 0.03493 0.99154
vn -0.07335 0.02248 0.99705
vn -0.20898 -0.87555 0.43560
vn -0.17443 -0.75593 0.63099
vn -0.24272 -0.78445 0.57072
vn -0.15930 -0.87275 0.46145
vn -0.12964 -0.74210 0.65763
vn -0.09876 -0.87454 0.47479
vn -0.06189 0.88903 0.45365
vn -0.06123 0.88052 0.47005
vn -0.04836 0.76595 0.64108
vn -0.04830 0.75255 0.65676
vn -0.05238 0.01058 0.99857
vn -0.04567 -0.00086 0.99896
vn -0.04177 -0.01477 0.99902
vn -0.06037 -0.87485 0.48062
vn -0.05172 -0.74070 0.66984
vn -0.08113 -0.73943 0.66833
vn -0.03117 -0.87472 0.48363
vn -0.02908 -0.74081 0.67108
vn -0.06244 0.87306 0.48359
vn -0.06866 0.86490 0.49723
vn -0.05070 0.74148 0.66905
vn -0.05620 0.72787 0.68340
vn -0.05024 0.71467 0.69766
vn -0.06330 0.85763 0.51036
vn -0.03371 -0.02946 0.99900
vn -0.01566 -0.04308 0.99895
vn 0.00695 -0.05910 0.99823
vn 0.01266 -0.87525 0.48351
vn 0.06665 -0.87548 0.47863
vn 0.05478 -0.74177 0.66841
vn 0.00838 -0.74053 0.67197
vn -0.07037 0.84880 0.52401
vn -0.09799 0.83705 0.53828
vn -0.05316 0.69736 0.71475
vn -0.07471 0.66719 0.74113
vn -0.04058 0.63209 0.77383
vn -0.07810 0.83054 0.55145
vn 0.03434 -0.08771 0.99555
vn 0.13180 -0.10230 0.98598
vn 0.14292 -0.87362 0.46514
vn 0.11979 -0.74300 0.65849
f 1//1 13//2 12//3 11//4
f 1//5 11//6 305//6 14//5
f 1//7 14//7 15//8 13//2
f 2//9 16//10 17//11 18//12
f 2//9 18//12 19//13 20//14
f 2//9 20//14 21//15 16//10
f 3//16 22//17 23//18 24//19
f 3//20 15//20 14//21 22//21
f 4//22 25//23 26//24 27//25
f 4//22 28//26 29//27 30//28
f 4//22 27//29 31//29 7//30
f 4//22 7//30 32//31 28//26
f 5//32 33//33 34//34 35//35
f 5//32 9//36 36//37 33//37
f 5//32 37//38 38//39 39//40
f 5//32 35//35 40//41 37//38
f 5//32 39//40 41//42 9//36
f 6//43 42//44 43//45 44//46
f 6//43 44//46 21//15 20//14
f 6//43 20//14 19//13 42//47
f 7//30 46//48 47//49 32//31
f 7//50 31//51 45//52 306//53
f 8//54 48//55 49//56 50//57
f 8//54 50//57 51//58 52//59
f 8//54 52//59 53//60 54//61
f 9//62 56//63 55//64 36//65
f 10//66 57//67 58//68 59//69
f 10//66 59//69 60//70 61//71
f 10//66 61//71 62//72 57//67
f 62//72 61//71 37//38 40//41
f 62//72 40//41 63//73 307//74
f 62//72 307//74 64//75 57//67
f 64//76 65//76 58//68 57//67
f 65//77 308//78 66//79 58//68
f 66//79 308//78 67//80 68//81
f 66//79 68//81 69//82 70//83
f 66//79 70//83 59//69 58//68
f 70//83 69//82 52//59 51//58
f 70//83 51//58 60//70 59//69
f 69//82 68//81 71//84 72//85
f 69//82 72//85 53//86 52//59
f 72//85 71//84 73//87 74//88
f 72//85 74//89 75//89 53//86
f 75//89 74//89 76//90 77//90
f 75//91 77//92 78//93 79//94
f 75//91 79//94 54//61 53//60
f 79//94 78//93 80//95 81//96
f 79//94 81//97 309//97 54//61
f 309//98 310//98 8//99 54//99
f 310//100 311//101 48//55 8//54
f 311//101 312//102 82//103 48//55
f 82//103 312//102 83//104 84//105
f 82//103 84//105 85//106 86//107
f 82//103 86//107 49//56 48//55
f 86//107 85//108 87//108 41//42
f 86//107 41//42 39//40 49//56
f 87//108 85//108 88//109 89//109
f 87//110 89//111 90//112 91//113
f 87//110 91//113 9//36 41//42
f 91//113 90//112 92//114 93//115
f 91//113 93//115 56//116 9//36
f 94//117 95//118 96//119 97//120
f 94//117 97//120 84//105 83//104
f 313//121 314//122 100//123 101//124
f 313//121 101//124 102//125 99//126
f 102//125 101//124 103//127 104//128
f 102//125 104//128 105//129 106//130
f 102//125 106//130 107//131 99//126
f 107//131 106//130 108//132 109//133
f 110//134 315//135 111//136 112//137
f 110//134 112//137 113//138 98//139
f 113//138 96//119 95//118 98//139
f 113//138 112//137 114//140 115//141
f 113//138 115//141 116//142 96//119
f 116//142 88//143 97//120 96//119
f 116//144 115//145 117//145 118//144
f 116//144 118//144 89//109 88//109
f 118//146 117//147 119//148 120//149
f 118//146 120//149 90//112 89//111
f 120//149 119//148 316//150 317//151
f 120//149 317//151 92//114 90//112
f 316//150 119//148 121//152 318//153
f 121//152 119//148 117//147 122//154
f 121//152 122//154 123//155 100//123
f 121//152 100//123 314//122 318//153
f 123//156 122//157 114//157 124//156
f 123//156 124//156 125//158 103//158
f 123//155 103//127 101//124 100//123
f 125//159 124//160 111//136 126//161
f 125//159 126//161 127//162 128//163
f 125//158 128//164 104//164 103//158
f 128//163 127//162 129//165 130//166
f 128//164 130//167 105//167 104//164
f 130//166 129//165 131//168 132//169
f 130//167 132//170 133//170 105//167
f 133//170 132//170 134//171 135//171
f 133//172 135//173 136//174 108//132
f 133//172 108//132 106//130 105//129
f 136//174 135//173 137//175 138//176
f 136//174 138//176 319//177 320//178
f 136//174 320//178 109//133 108//132
f 140//179 139//180 129//165 127//162
f 140//179 127//162 126//161 322//181
f 139//180 321//182 131//168 129//165
f 321//182 323//183 141//184 131//168
f 141//184 323//183 142//185 143//186
f 141//184 143//186 144//187 134//188
f 141//184 134//188 132//169 131//168
f 144//187 143//186 145//189 146//190
f 144//191 146//192 147//192 137//191
f 144//191 137//191 135//171 134//171
f 147//192 146//192 148//193 149//193
f 147//194 149//195 150//196 151//197
f 147//194 151//197 138//176 137//175
f 151//197 150//196 152//198 153//199
f 151//197 153//199 319//177 138//176
f 324//200 325//201 154//202 145//189
f 324//200 145//189 143//186 142//185
f 154//202 325//201 155//203 156//204
f 154//202 156//204 157//205 148//206
f 154//202 148//206 146//190 145//189
f 157//205 156//204 158//207 159//208
f 157//209 159//210 160//210 161//209
f 157//209 161//209 149//193 148//193
f 161//211 160//212 162//213 163//214
f 161//211 163//214 150//196 149//195
f 163//214 162//213 326//215 164//216
f 163//214 164//216 152//198 150//196
f 165//217 166//218 167//219 158//207
f 165//217 158//207 156//204 155//203
f 328//220 327//221 169//222 46//48
f 328//220 46//48 7//223 306//224
f 169//222 162//213 160//212 170//225
f 169//222 170//225 47//49 46//48
f 169//222 327//221 326//215 162//213
f 170//226 160//210 159//210 171//227
f 170//226 171//227 172//228 47//229
f 172//228 171//227 167//219 173//230
f 172//228 173//230 174//231 175//232
f 172//228 175//232 32//31 47//229
f 175//232 174//231 176//233 177//234
f 175//232 177//234 28//26 32//31
f 177//234 176//233 178//235 179//236
f 177//234 179//236 29//27 28//26
f 179//236 178//235 17//11 16//10
f 179//236 16//10 21//15 29//27
f 178//235 176//233 329//237 330//238
f 178//235 330//238 180//239 17//11
f 180//239 181//240 18//12 17//11
f 181//240 182//241 19//13 18//12
f 182//242 331//242 42//47 19//13
f 331//243 332//244 43//45 42//44
f 332//244 333//245 183//246 43//45
f 183//246 25//23 4//22 30//28
f 183//246 30//28 44//46 43//45
f 183//246 333//245 334//247 25//23
f 334//248 335//249 26//24 25//23
f 335//249 336//250 34//34 26//24
f 336//250 337//251 35//35 34//34
f 337//251 63//73 40//41 35//35
f 338//252 329//237 176//233 174//231
f 338//252 174//231 173//230 168//253
f 173//230 167//219 166//218 168//253
f 171//227 159//208 158//207 167//219
f 126//161 111//136 315//135 322//181
f 124//160 114//140 112//137 111//136
f 122//157 117//145 115//145 114//157
f 97//120 88//143 85//106 84//105
f 184//254 185//255 73//87 71//84
f 184//254 71//84 68//81 67//80
f 185//255 339//256 186//257 73//87
f 186//257 339//256 187//258 188//259
f 186//257 188//259 189//260 76//261
f 186//257 76//261 74//88 73//87
f 189//260 188//259 190//262 191//263
f 189//264 191//265 192//265 193//264
f 189//264 193//264 77//90 76//90
f 193//266 192//267 194//268 195//269
f 193//266 195//269 78//93 77//92
f 195//269 194//268 196//270 197//271
f 195//269 197//271 80//95 78//93
f 198//272 340//273 199//274 190//262
f 198//272 190//262 188//259 187//258
f 199//274 340//273 200//275 201//276
f 199//274 201//276 202//277 203//278
f 199//274 203//278 191//263 190//262
f 203//279 202//280 204//280 205//279
f 203//279 205//279 192//265 191//265
f 205//281 204//282 206//283 207//284
f 205//281 207//284 194//268 192//267
f 207//284 206//283 341//285 342//286
f 207//284 342//286 196//270 194//268
f 208//287 209//288 210//289 211//290
f 208//287 211//290 201//276 200//275
f 211//290 210//289 212//291 213//292
f 211//290 213//292 202//277 201//276
f 213//292 212//291 214//293 215//294
f 213//292 215//294 204//280 202//280
f 215//294 214//293 216//295 217//296
f 215//294 217//296 206//283 204//282
f 217//296 216//295 218//297 219//298
f 217//296 219//298 341//285 206//283
f 221//299 220//300 222//301 223//302
f 221//299 223//302 210//289 209//288
f 223//302 222//301 224//303 225//304
f 223//302 225//304 212//291 210//289
f 225//304 224//305 226//305 227//306
f 225//304 227//306 214//293 212//291
f 227//306 226//307 228//308 229//309
f 227//306 229//309 216//295 214//293
f 229//309 228//308 230//310 231//311
f 229//309 231//311 218//312 216//295
f 233//313 232//314 234//315 235//316
f 233//313 235//316 222//301 220//300
f 235//316 234//315 236//317 237//318
f 235//316 237//318 224//303 222//301
f 237//319 236//320 238//320 239//319
f 237//319 239//319 226//305 224//305
f 239//321 238//322 240//323 241//324
f 239//321 241//324 228//308 226//307
f 241//324 240//323 343//325 344//326
f 241//324 344//326 230//310 228//308
f 243//327 345//328 244//329 245//330
f 243//327 245//330 234//315 232//314
f 245//330 244//329 246//331 247//332
f 245//330 247//332 236//317 234//315
f 247//333 246//334 248//334 249//333
f 247//333 249//333 238//320 236//320
f 249//335 248//336 250//337 251//338
f 249//335 251//338 240//323 238//322
f 251//338 250//337 252//339 242//340
f 251//338 242//340 343//325 240//323
f 252//339 250//337 253//341 346//342
f 347//343 255//344 256//345 257//346
f 347//343 257//346 244//329 345//328
f 257//346 256//345 258//347 259//348
f 257//346 259//348 246//331 244//329
f 259//349 258//350 260//350 261//349
f 259//349 261//349 248//334 246//334
f 261//351 260//352 262//353 253//341
f 261//351 253//341 250//337 248//336
f 262//353 260//352 263//354 264//355
f 262//353 264//355 265//356 254//357
f 262//353 254//357 346//342 253//341
f 265//356 264//355 266//358 267//359
f 269//360 268//361 270//362 271//363
f 269//360 271//363 256//345 255//344
f 271//363 270//362 272//364 273//365
f 271//363 273//365 258//347 256//345
f 273//366 272//367 274//367 263//366
f 273//366 263//366 260//350 258//350
f 274//367 272//367 275//368 276//368
f 274//369 276//370 277//371 266//358
f 274//369 266//358 264//355 263//354
f 277//371 276//370 278//372 279//373
f 277//371 279//373 280//374 281//375
f 277//371 281//375 267//359 266//358
f 282//376 348//377 283//378 284//379
f 282//376 284//379 270//362 268//361
f 284//379 283//378 285//380 275//381
f 284//379 275//381 272//364 270//362
f 285//380 283//378 286//382 287//383
f 285//384 287//385 288//385 278//384
f 285//384 278//384 276//368 275//368
f 288//385 287//385 289//386 290//386
f 288//387 290//388 291//389 292//390
f 288//387 292//390 279//373 278//372
f 292//390 291//389 293//391 294//392
f 292//390 294//392 280//374 279//373
f 350//393 349//394 295//395 286//382
f 350//393 286//382 283//378 348//377
f 295//395 349//394 351//396 296//397
f 295//395 296//397 297//398 289//399
f 295//395 289//399 287//383 286//382
f 297//398 296//397 298//400 299//401
f 297//402 299//403 24//403 300//402
f 297//402 300//402 290//386 289//386
f 300//404 24//19 23//18 301//405
f 300//404 301//405 291//389 290//388
f 301//405 23//18 302//406 303//407
f 301//405 303//407 293//391 291//389
f 304//408 12//3 13//2 298//400
f 304//408 298//400 296//397 351//396
f 302//406 23//18 22//17 352//409
f 352//410 22//21 14//21 305//410
f 299//401 298//400 13//2 15//8
f 299//403 15//20 3//20 24//403
f 61//71 60//70 38//39 37//38
f 60//70 51//58 50//57 38//39
f 55//64 45//52 31//51 36//65
f 50//57 49//56 39//40 38//39
f 44//46 30//28 29//27 21//15
f 36//37 31//29 27//29 33//37
f 34//34 33//33 27//25 26//24
f 11//4 12//3 363//411 353//412
f 364//413 305//6 11//6 353//413
f 363//411 365//414 364//415 353//412
f 368//416 367//417 366//418 354//419
f 370//420 369//421 368//416 354//419
f 366//418 371//422 370//420 354//419
f 374//423 373//424 372//425 355//426
f 372//425 364//427 365//428 355//426
f 377//429 376//430 375//431 356//432
f 380//433 379//434 378//435 356//432
f 359//436 381//437 377//437 356//432
f 378//435 382//438 359//436 356//432
f 385//439 384//440 383//441 357//442
f 383//443 386//443 361//444 357//442
f 389//445 388//446 387//447 357//442
f 387//447 390//448 385//439 357//442
f 361//444 391//449 389//445 357//442
f 394//450 393//451 392//452 358//453
f 370//420 371//422 394//450 358//453
f 392//454 369//421 370//420 358//453
f 382//438 396//455 395//456 359//436
f 306//53 45//52 381//457 359//458
f 399//459 398//460 397//461 360//462
f 401//463 400//464 399//459 360//462
f 403//465 402//466 401//463 360//462
f 386//467 55//64 56//63 361//468
f 406//469 405//470 404//471 362//472
f 408//473 407//474 406//469 362//472
f 404//471 409//475 408//473 362//472
f 390//448 387//447 408//473 409//475
f 307//74 63//73 390//448 409//475
f 404//471 64//75 307//74 409//475
f 404//471 405//470 65//76 64//76
f 405//470 410//476 308//78 65//77
f 411//477 67//80 308//78 410//476
f 413//478 412//479 411//477 410//476
f 405//470 406//469 413//478 410//476
f 400//464 401//463 412//479 413//478
f 406//469 407//474 400//464 413//478
f 415//480 414//481 411//477 412//479
f 401//463 402//482 415//480 412//479
f 417//483 416//484 414//481 415//480
f 402//482 418//485 417//485 415//480
f 420//486 419//486 417//485 418//485
f 422//487 421//488 420//489 418//490
f 402//466 403//465 422//487 418//490
f 81//96 80//95 421//488 422//487
f 403//465 309//97 81//97 422//487
f 403//465 360//462 310//98 309//98
f 360//462 397//461 311//101 310//100
f 397//461 423//491 312//102 311//101
f 424//492 83//104 312//102 423//491
f 426//493 425//494 424//492 423//491
f 397//461 398//460 426//493 423//491
f 391//449 427//495 425//495 426//493
f 398//460 389//445 391//449 426//493
f 429//496 428//496 425//495 427//495
f 431//497 430//498 429//499 427//500
f 391//449 361//444 431//497 427//500
f 93//115 92//114 430//498 431//497
f 361//444 56//116 93//115 431//497
f 433//501 432//502 95//118 94//117
f 83//104 424//492 433//501 94//117
f 435//503 434//504 314//122 313//121
f 99//126 436//505 435//503 313//121
f 438//506 437//507 435//503 436//505
f 440//508 439//509 438//506 436//505
f 99//126 107//131 440//508 436//505
f 109//133 441//510 440//508 107//131
f 443//511 442//512 315//135 110//134
f 98//139 444//513 443//511 110//134
f 98//139 95//118 432//502 444//513
f 446//514 445//515 443//511 444//513
f 432//502 447//516 446//514 444//513
f 432//502 433//501 428//517 447//516
f 449//518 448//519 446//519 447//518
f 428//496 429//496 449//518 447//518
f 451//520 450//521 448//522 449//523
f 429//499 430//498 451//520 449//523
f 317//151 316//150 450//521 451//520
f 430//498 92//114 317//151 451//520
f 318//153 452//524 450//521 316//150
f 453//525 448//522 450//521 452//524
f 434//504 454//526 453//525 452//524
f 318//153 314//122 434//504 452//524
f 455//527 445//528 453//528 454//527
f 437//529 456//529 455//527 454//527
f 434//504 435//503 437//507 454//526
f 457//530 442//512 455//531 456//532
f 459//533 458//534 457//530 456//532
f 437//529 438//535 459//535 456//529
f 461//536 460//537 458//534 459//533
f 438//535 439//538 461//538 459//535
f 463//539 462//540 460//537 461//536
f 439//538 464//541 463//541 461//538
f 466//542 465//542 463//541 464//541
f 441//510 467//543 466//544 464//545
f 439//509 440//508 441//510 464//545
f 469//546 468//547 466//544 467//543
f 320//178 319//177 469//546 467//543
f 441//510 109//133 320//178 467//543
f 458//534 460//537 139//180 140//179
f 322//181 457//530 458//534 140//179
f 460//537 462//540 321//182 139//180
f 462//540 470//548 323//183 321//182
f 471//549 142//185 323//183 470//548
f 465//550 472//551 471//549 470//548
f 462//540 463//539 465//550 470//548
f 474//552 473//553 471//549 472//551
f 468//554 475//555 474//555 472//554
f 465//542 466//542 468//554 472//554
f 477//556 476//556 474//555 475//555
f 479//557 478//558 477//559 475//560
f 468//547 469//546 479//557 475//560
f 153//199 152//198 478//558 479//557
f 469//546 319//177 153//199 479//557
f 473//553 480//561 325//201 324//200
f 142//185 471//549 473//553 324//200
f 481//562 155//203 325//201 480//561
f 476//563 482//564 481//562 480//561
f 473//553 474//552 476//563 480//561
f 484//565 483//566 481//562 482//564
f 486//567 485//568 484//568 482//567
f 476//556 477//556 486//567 482//567
f 488//569 487//570 485//571 486//572
f 477//559 478//558 488//569 486//572
f 164//216 326//215 487//570 488//569
f 478//558 152//198 164//216 488//569
f 483//566 489//573 166//218 165//217
f 155//203 481//562 483//566 165//217
f 395//456 490//574 327//221 328//220
f 306//224 359//575 395//456 328//220
f 491//576 485//571 487//570 490//574
f 395//456 396//455 491//576 490//574
f 487//570 326//215 327//221 490//574
f 492//577 484//568 485//568 491//578
f 396//579 493//580 492//577 491//578
f 494//581 489//573 492//577 493//580
f 496//582 495//583 494//581 493//580
f 396//579 382//438 496//582 493//580
f 498//584 497//585 495//583 496//582
f 382//438 378//435 498//584 496//582
f 500//586 499//587 497//585 498//584
f 378//435 379//434 500//586 498//584
f 366//418 367//417 499//587 500//586
f 379//434 371//422 366//418 500//586
f 330//238 329//237 497//585 499//587
f 367//417 180//239 330//238 499//587
f 367//417 368//416 181//240 180//239
f 368//416 369//421 182//241 181//240
f 369//421 392//454 331//242 182//242
f 392//452 393//451 332//244 331//243
f 393//451 501//588 333//245 332//244
f 380//433 356//432 375//431 501//588
f 393//451 394//450 380//433 501//588
f 375//431 334//247 333//245 501//588
f 375//431 376//430 335//249 334//248
f 376//430 384//440 336//250 335//249
f 384//440 385//439 337//251 336//250
f 385//439 390//448 63//73 337//251
f 495//583 497//585 329//237 338//252
f 168//253 494//581 495//583 338//252
f 168//253 166//218 489//573 494//581
f 489//573 483//566 484//565 492//577
f 322//181 315//135 442//512 457//530
f 442//512 443//511 445//515 455//531
f 445//528 446//519 448//519 453//528
f 424//492 425//494 428//517 433//501
f 414//481 416//484 185//255 184//254
f 67//80 411//477 414//481 184//254
f 416//484 502//589 339//256 185//255
f 503//590 187//258 339//256 502//589
f 419//591 504//592 503//590 502//589
f 416//484 417//483 419//591 502//589
f 506//593 505//594 503//590 504//592
f 508//595 507//596 506//596 504//595
f 419//486 420//486 508//595 504//595
f 510//597 509//598 507//599 508//600
f 420//489 421//488 510//597 508//600
f 197//271 196//270 509//598 510//597
f 421//488 80//95 197//271 510//597
f 505//594 511//601 340//273 198//272
f 187//258 503//590 505//594 198//272
f 512//602 200//275 340//273 511//601
f 514//603 513//604 512//602 511//601
f 505//594 506//593 514//603 511//601
f 516//605 515//606 513//606 514//605
f 506//596 507//596 516//605 514//605
f 518//607 517//608 515//609 516//610
f 507//599 509//598 518//607 516//610
f 342//286 341//285 517//608 518//607
f 509//598 196//270 342//286 518//607
f 520//611 519//612 209//288 208//287
f 200//275 512//602 520//611 208//287
f 522//613 521//614 519//612 520//611
f 512//602 513//604 522//613 520//611
f 524//615 523//616 521//614 522//613
f 513//606 515//606 524//615 522//613
f 526//617 525//618 523//616 524//615
f 515//609 517//608 526//617 524//615
f 219//298 218//297 525//618 526//617
f 517//608 341//285 219//298 526//617
f 528//619 527//620 220//300 221//299
f 209//288 519//612 528//619 221//299
f 530//621 529//622 527//620 528//619
f 519//612 521//614 530//621 528//619
f 532//623 531//624 529//624 530//621
f 521//614 523//616 532//623 530//621
f 534//625 533//626 531//627 532//623
f 523//616 525//618 534//625 532//623
f 231//311 230//310 533//626 534//625
f 525//618 218//312 231//311 534//625
f 536//628 535//629 232//314 233//313
f 220//300 527//620 536//628 233//313
f 538//630 537//631 535//629 536//628
f 527//620 529//622 538//630 536//628
f 540//632 539//633 537//633 538//632
f 529//624 531//624 540//632 538//632
f 542//634 541//635 539//636 540//637
f 531//627 533//626 542//634 540//637
f 344//326 343//325 541//635 542//634
f 533//626 230//310 344//326 542//634
f 544//638 543//639 345//328 243//327
f 232//314 535//629 544//638 243//327
f 546//640 545//641 543//639 544//638
f 535//629 537//631 546//640 544//638
f 548//642 547//643 545//643 546//642
f 537//633 539//633 548//642 546//642
f 550//644 549//645 547//646 548//647
f 539//636 541//635 550//644 548//647
f 242//340 252//339 549//645 550//644
f 541//635 343//325 242//340 550//644
f 346//342 551//648 549//645 252//339
f 553//649 552//650 255//344 347//343
f 345//328 543//639 553//649 347//343
f 555//651 554//652 552//650 553//649
f 543//639 545//641 555//651 553//649
f 557//653 556//654 554//654 555//653
f 545//643 547//643 557//653 555//653
f 551//648 558//655 556//656 557//657
f 547//646 549//645 551//648 557//657
f 560//658 559//659 556//656 558//655
f 254//357 265//356 560//658 558//655
f 551//648 346//342 254//357 558//655
f 267//359 561//660 560//658 265//356
f 563//661 562//662 268//361 269//360
f 255//344 552//650 563//661 269//360
f 565//663 564//664 562//662 563//661
f 552//650 554//652 565//663 563//661
f 559//665 566//666 564//666 565//665
f 554//654 556//654 559//665 565//665
f 568//667 567//667 564//666 566//666
f 561//660 569//668 568//669 566//670
f 559//659 560//658 561//660 566//670
f 571//671 570//672 568//669 569//668
f 281//375 280//374 571//671 569//668
f 561//660 267//359 281//375 569//668
f 573//673 572//674 348//377 282//376
f 268//361 562//662 573//673 282//376
f 567//675 574//676 572//674 573//673
f 562//662 564//664 567//675 573//673
f 576//677 575//678 572//674 574//676
f 570//679 577//680 576//680 574//679
f 567//667 568//667 570//679 574//679
f 579//681 578//681 576//680 577//680
f 581//682 580//683 579//684 577//685
f 570//672 571//671 581//682 577//685
f 294//392 293//391 580//683 581//682
f 571//671 280//374 294//392 581//682
f 575//678 582//686 349//394 350//393
f 348//377 572//674 575//678 350//393
f 583//687 351//396 349//394 582//686
f 578//688 584//689 583//687 582//686
f 575//678 576//677 578//688 582//686
f 586//690 585//691 583//687 584//689
f 587//692 374//693 586//693 584//692
f 578//681 579//681 587//692 584//692
f 588//694 373//424 374//423 587//695
f 579//684 580//683 588//694 587//695
f 303//407 302//406 373//424 588//694
f 580//683 293//391 303//407 588//694
f 585//691 363//411 12//3 304//408
f 351//396 583//687 585//691 304//408
f 352//409 372//425 373//424 302//406
f 305//410 364//427 372//425 352//410
f 365//414 363//411 585//691 586//690
f 374//693 355//426 365//428 586//693
f 387//447 388//446 407//474 408//473
f 388//446 399//459 400//464 407//474
f 386//467 381//457 45//52 55//64
f 388//446 389//445 398//460 399//459
f 371//422 379//434 380//433 394//450
f 383//443 377//437 381//437 386//443
f 376//430 377//429 383//441 384//440
