# pilowlava3D glyph '=' variant 1 — Vincent Wagner / Velvetyne, Free Art License
v 0.16866 1.02750 -0.26368
v 0.08961 1.45930 -0.25844
v 2.80316 1.49108 0.00000
v 2.87859 1.54276 -0.23500
v 3.02957 1.75870 0.00000
v 2.86292 1.75636 0.00000
v 2.80829 1.73392 -0.17096
v 2.88997 1.69193 -0.29452
v 0.00000 1.20920 0.00000
v 0.13995 0.97848 0.00000
v 0.42134 0.94854 0.00000
v 0.07265 1.22779 -0.30243
v 0.32660 1.27145 -0.43320
v 0.39081 1.04346 -0.31475
v 0.05344 1.49337 0.00000
v 0.32013 1.52742 -0.32013
v 0.60649 1.53630 -0.32830
v 0.61821 1.31724 -0.45105
v 0.89116 1.55098 -0.31824
v 0.91267 1.36051 -0.44198
v 0.94279 1.16713 -0.31591
v 0.66470 1.11142 -0.32045
v 0.96333 1.06863 0.00000
v 0.69427 1.00908 0.00000
v 0.88570 1.65264 0.00000
v 1.16722 1.66753 0.00000
v 1.17311 1.57679 -0.30784
v 1.44870 1.68277 0.00000
v 2.06406 1.32132 0.00000
v 2.33478 1.38461 0.00000
v 1.77731 1.32641 -0.29116
v 2.05359 1.38007 -0.27900
v 2.32892 1.43577 -0.26586
v 2.03333 1.52042 -0.38562
v 2.31380 1.56446 -0.36826
v 2.59518 1.61709 -0.34340
v 2.60197 1.49441 -0.26041
v 2.59814 1.44476 0.00000
v 1.72966 1.69778 0.00000
v 2.01556 1.65363 -0.27107
v 1.73473 1.62626 -0.28674
v 1.45363 1.59916 -0.29901
v 1.75398 1.47910 -0.40118
v 1.47499 1.43387 -0.41589
v 1.19392 1.39668 -0.42954
v 1.50021 1.27191 -0.29998
v 1.22151 1.21854 -0.30740
v 2.29684 1.67970 -0.24862
v 2.57549 1.73923 0.00000
v 2.58141 1.70571 -0.22096
v 3.12758 0.31052 -0.25711
v 3.02367 0.73814 -0.26286
v 0.30124 0.24566 0.00000
v 0.36252 0.23807 -0.16799
v 0.29791 0.17862 -0.28536
v 3.16415 0.27966 0.00000
v 3.20461 0.56043 0.00000
v 3.13278 0.54077 -0.30334
v 2.89005 0.23033 -0.32092
v 2.87726 0.48814 -0.43392
v 3.05429 0.78580 0.00000
v 2.80844 0.71667 -0.31357
v 0.17345 0.00000 0.00000
v 0.34341 0.03498 -0.23989
v 0.59856 0.18096 -0.34437
v 0.62724 0.06215 -0.25445
v 0.90590 0.08138 -0.26201
v 0.86307 0.37053 0.00000
v 0.58421 0.30680 0.00000
v 0.86877 0.32453 -0.25090
v 0.58687 0.27168 -0.22257
v 0.88403 0.20971 -0.36778
v 1.14722 0.37781 -0.27237
v 1.16710 0.24514 -0.38523
v 1.18683 0.10493 -0.27693
v 1.44727 0.28369 -0.40092
v 1.46815 0.13109 -0.28930
v 1.47372 0.05938 0.00000
v 1.19231 0.04528 0.00000
v 1.42477 0.43125 -0.28688
v 1.70303 0.48425 -0.29905
v 1.72780 0.32352 -0.41590
v 1.98241 0.53851 -0.30562
v 2.01076 0.36215 -0.42868
v 2.03142 0.18035 -0.30889
v 1.75006 0.15763 -0.29978
v 1.96323 0.62432 0.00000
v 2.24051 0.68838 0.00000
v 2.26099 0.59158 -0.31343
v 2.50902 0.74737 0.00000
v 2.31438 0.20382 -0.31724
v 2.60001 0.21788 -0.32641
v 2.29193 0.39610 -0.44040
v 2.58691 0.43558 -0.44971
v 2.53891 0.64613 -0.31803
v 0.33028 1.63090 0.00000
v 0.61334 1.64048 0.00000
v 1.78952 1.25786 0.00000
v 2.01074 1.71175 0.00000
v 1.51459 1.19497 0.00000
v 1.23965 1.13211 0.00000
v 2.29080 1.72528 0.00000
v 3.04807 1.55409 0.00000
v 0.15858 0.20306 0.00000
v 2.88449 0.12783 0.00000
v 2.77953 0.80857 0.00000
v 0.64186 0.01861 0.00000
v 0.43581 0.00696 0.00000
v 0.91441 0.03180 0.00000
v 1.41383 0.49865 0.00000
v 1.13687 0.43460 0.00000
v 1.68867 0.56151 0.00000
v 2.03714 0.08978 0.00000
v 1.75630 0.07440 0.00000
v 2.32057 0.10463 0.00000
v 2.59499 0.11667 0.00000
v 0.16866 1.02750 0.26368
v 0.08961 1.45930 0.25844
v 2.87859 1.54276 0.23500
v 2.80829 1.73392 0.17096
v 2.88997 1.69193 0.29452
v 0.07265 1.22779 0.30243
v 0.32660 1.27145 0.43320
v 0.39081 1.04346 0.31475
v 0.32013 1.52742 0.32013
v 0.60649 1.53630 0.32830
v 0.61821 1.31724 0.45105
v 0.89116 1.55098 0.31824
v 0.91267 1.36051 0.44198
v 0.94279 1.16713 0.31591
v 0.66470 1.11142 0.32045
v 1.17311 1.57679 0.30784
v 1.77731 1.32641 0.29116
v 2.05359 1.38007 0.27900
v 2.32892 1.43577 0.26586
v 2.03333 1.52042 0.38562
v 2.31380 1.56446 0.36826
v 2.59518 1.61709 0.34340
v 2.60197 1.49441 0.26041
v 2.01556 1.65363 0.27107
v 1.73473 1.62626 0.28674
v 1.45363 1.59916 0.29901
v 1.75398 1.47910 0.40118
v 1.47499 1.43387 0.41589
v 1.19392 1.39668 0.42954
v 1.50021 1.27191 0.29998
v 1.22151 1.21854 0.30740
v 2.29684 1.67970 0.24862
v 2.58141 1.70571 0.22096
v 3.12758 0.31052 0.25711
v 3.02367 0.73814 0.26286
v 0.36252 0.23807 0.16799
v 0.29791 0.17862 0.28536
v 3.13278 0.54077 0.30334
v 2.89005 0.23033 0.32092
v 2.87726 0.48814 0.43392
v 2.80844 0.71667 0.31357
v 0.34341 0.03498 0.23989
v 0.59856 0.18096 0.34437
v 0.62724 0.06215 0.25445
v 0.90590 0.08138 0.26201
v 0.86877 0.32453 0.25090
v 0.58687 0.27168 0.22257
v 0.88403 0.20971 0.36778
v 1.14722 0.37781 0.27237
v 1.16710 0.24514 0.38523
v 1.18683 0.10493 0.27693
v 1.44727 0.28369 0.40092
v 1.46815 0.13109 0.28930
v 1.42477 0.43125 0.28688
v 1.70303 0.48425 0.29905
v 1.72780 0.32352 0.41590
v 1.98241 0.53851 0.30562
v 2.01076 0.36215 0.42868
v 2.03142 0.18035 0.30889
v 1.75006 0.15763 0.29978
v 2.26099 0.59158 0.31343
v 2.31438 0.20382 0.31724
v 2.60001 0.21788 0.32641
v 2.29193 0.39610 0.44040
v 2.58691 0.43558 0.44971
v 2.53891 0.64613 0.31803
vn -0.01520 0.95862 -0.28429
vn -0.00443 0.99998 -0.00414
vn 0.06988 0.99754 -0.00468
vn 0.01487 0.93326 -0.35889
vn -0.26336 -0.39577 -0.87978
vn -0.35028 -0.06451 -0.93442
vn -0.18970 -0.04587 -0.98077
vn -0.10265 -0.44705 -0.88860
vn -0.03626 -0.97258 -0.22971
vn 0.08990 -0.95829 -0.27128
vn 0.08974 -0.99596 0.00310
vn -0.04483 -0.99898 0.00605
vn -0.85328 -0.47935 -0.20527
vn -0.87050 -0.49215 0.00260
vn -0.98334 -0.18176 0.00339
vn -0.96217 -0.17844 -0.20586
vn -0.97254 0.14074 -0.18537
vn -0.98911 0.14715 0.00382
vn -0.39507 0.27451 -0.87668
vn -0.24321 0.36408 -0.89905
vn -0.37590 0.90081 -0.21735
vn -0.39286 0.91958 0.00600
vn -0.22064 0.97535 0.00310
vn -0.20888 0.94139 -0.26487
vn -0.03970 0.99921 -0.00001
vn -0.03786 0.95207 -0.30354
vn -0.05269 0.47978 -0.87580
vn -0.04064 0.79171 -0.60954
vn -0.02420 0.53319 -0.84565
vn 0.08599 -0.50447 -0.85914
vn 0.11310 -0.53128 -0.83961
vn 0.16553 -0.77847 -0.60546
vn 0.15634 -0.76575 -0.62384
vn 0.20798 -0.97813 0.00004
vn 0.21717 -0.97613 0.00006
vn -0.05443 0.99852 -0.00003
vn -0.06432 0.99793 -0.00001
vn -0.04709 0.80453 -0.59204
vn 0.21520 -0.97657 -0.00003
vn 0.21230 -0.97721 0.00000
vn 0.20677 -0.95059 -0.23159
vn 0.21042 -0.95480 -0.20996
vn 0.21373 -0.95788 -0.19179
vn 0.21787 -0.97598 0.00001
vn 0.15526 -0.58518 -0.79590
vn 0.14466 -0.58515 -0.79791
vn 0.18460 -0.52046 -0.83369
vn 0.20740 -0.96233 -0.17579
vn 0.21099 -0.97749 -0.00129
vn 0.22377 -0.96310 -0.14954
vn 0.22664 -0.97398 -0.00133
vn -0.06791 0.99769 0.00000
vn -0.06463 0.99791 0.00002
vn -0.05118 0.86005 -0.50764
vn -0.05395 0.83596 -0.54613
vn -0.05077 0.81767 -0.57345
vn -0.06561 0.99785 0.00001
vn -0.03595 0.61130 -0.79058
vn -0.03257 0.57928 -0.81448
vn -0.02681 0.55816 -0.82930
vn 0.11831 -0.54831 -0.82787
vn 0.12845 -0.56044 -0.81818
vn 0.17690 -0.80197 -0.57056
vn 0.16920 -0.79130 -0.58754
vn 0.21043 -0.97761 0.00002
vn 0.20808 -0.97811 0.00002
vn 0.13726 -0.56984 -0.81021
vn -0.03403 0.65741 -0.75276
vn -0.06209 0.99807 0.00005
vn -0.05307 0.88999 -0.45288
vn -0.04139 0.72479 -0.68772
vn -0.06984 0.99756 -0.00178
vn -0.06409 0.92614 -0.37169
vn -0.05760 0.81591 -0.57531
vn 0.20821 -0.46280 -0.86167
vn 0.86866 -0.07435 -0.48980
vn 0.24915 -0.96847 0.00000
vn -0.24692 0.92530 -0.28783
vn -0.27261 0.89055 -0.36415
vn -0.35022 0.93666 -0.00440
vn -0.27323 0.96195 -0.00048
vn 0.97836 -0.09561 -0.18348
vn 0.95212 0.22529 -0.20668
vn 0.97339 0.22912 0.00299
vn 0.99481 -0.10171 0.00388
vn 0.40184 -0.26457 -0.87666
vn 0.24480 -0.36002 -0.90026
vn 0.40867 -0.88757 -0.21262
vn 0.42602 -0.90469 0.00593
vn 0.24173 -0.97034 0.00306
vn 0.22943 -0.93774 -0.26079
vn 0.01091 0.97465 -0.22345
vn -0.10702 0.95807 -0.26578
vn -0.10722 0.99423 0.00328
vn 0.01908 0.99980 0.00641
vn 0.24981 0.40964 -0.87738
vn 0.08898 0.45180 -0.88767
vn 0.82666 0.52271 -0.20834
vn 0.84413 0.53614 0.00176
vn -0.82512 -0.24119 -0.51088
vn -0.08454 -0.47194 -0.87757
vn -0.03733 -0.54780 -0.83578
vn 0.04876 -0.98851 -0.14306
vn 0.06314 -0.98347 -0.16970
vn 0.06395 -0.99795 -0.00123
vn 0.04909 -0.99879 -0.00127
vn 0.05708 -0.98025 -0.18934
vn 0.05837 -0.99829 0.00010
vn -0.20361 0.97905 0.00173
vn -0.21353 0.97694 -0.00001
vn -0.19388 0.86814 -0.45688
vn -0.19130 0.90674 -0.37581
vn -0.16115 0.70144 -0.69427
vn -0.17178 0.79475 -0.58212
vn -0.18885 0.84010 -0.50849
vn -0.14853 0.63623 -0.75706
vn 0.01526 -0.61996 -0.78449
vn 0.02445 -0.60991 -0.79209
vn 0.02990 -0.58852 -0.80793
vn 0.05073 -0.82838 -0.55787
vn 0.06200 -0.97511 -0.21286
vn 0.06740 -0.99773 -0.00001
vn 0.06344 -0.99799 0.00003
vn -0.21406 0.97682 -0.00005
vn -0.21159 0.97736 -0.00003
vn -0.18296 0.82024 -0.54198
vn -0.21015 0.97767 -0.00005
vn -0.17599 0.80602 -0.56512
vn -0.12836 0.57208 -0.81009
vn -0.13910 0.59576 -0.79103
vn -0.16963 0.79273 -0.58549
vn -0.11739 0.55280 -0.82500
vn 0.03006 -0.56902 -0.82177
vn 0.02709 -0.55085 -0.83416
vn 0.04658 -0.80275 -0.59450
vn 0.04968 -0.81449 -0.57804
vn 0.06301 -0.99801 -0.00001
vn 0.06578 -0.99783 -0.00000
vn -0.21011 0.97768 -0.00004
vn -0.20821 0.97808 0.00004
vn -0.16436 0.77889 -0.60524
vn 0.04260 -0.99909 0.00002
vn 0.05229 -0.99863 0.00002
vn 0.04989 -0.95457 -0.29377
vn 0.04066 -0.95364 -0.29820
vn 0.05008 -0.47930 -0.87622
vn 0.02295 -0.52851 -0.84861
vn -0.09045 0.50090 -0.86077
vn -0.11020 0.53120 -0.84005
vn -0.20976 0.92873 -0.30571
vn -0.22035 0.97542 0.00007
vn 0.02650 -0.99965 0.00000
vn -0.01646 0.94086 0.33839
vn -0.03813 0.96265 0.26804
vn -0.10655 -0.46174 0.88059
vn -0.27372 -0.42304 0.86378
vn 0.08268 -0.95718 0.27744
vn -0.05086 -0.96908 0.24146
vn -0.96090 -0.17701 0.21292
vn -0.84972 -0.48346 0.21035
vn -0.96996 0.14826 0.19287
vn -0.41076 0.28691 0.86543
vn -0.24927 0.37160 0.89431
vn -0.21625 0.93793 0.27115
vn -0.38997 0.89188 0.22905
vn -0.03779 0.95208 0.30352
vn -0.05167 0.47980 0.87585
vn -0.02523 0.53257 0.84601
vn -0.04105 0.79151 0.60978
vn 0.15693 -0.76581 0.62362
vn 0.16568 -0.77835 0.60557
vn 0.11314 -0.53110 0.83972
vn 0.08712 -0.50488 0.85878
vn -0.04694 0.80453 0.59205
vn 0.21039 -0.95482 0.20990
vn 0.20628 -0.95069 0.23159
vn 0.21393 -0.95783 0.19181
vn 0.15387 -0.58489 0.79639
vn 0.14410 -0.58518 0.79800
vn 0.18450 -0.51680 0.83599
vn 0.20810 -0.96264 0.17325
vn 0.22450 -0.96334 0.14691
vn -0.05377 0.83597 0.54613
vn -0.05107 0.86007 0.50762
vn -0.05070 0.81765 0.57347
vn -0.03219 0.57928 0.81449
vn -0.03578 0.61132 0.79058
vn -0.02692 0.55812 0.82932
vn 0.16925 -0.79128 0.58756
vn 0.17655 -0.80204 0.57059
vn 0.12819 -0.56049 0.81818
vn 0.11832 -0.54831 0.82786
vn 0.13701 -0.56986 0.81024
vn -0.03373 0.65749 0.75271
vn -0.05243 0.89004 0.45287
vn -0.03875 0.72503 0.68762
vn -0.06688 0.92970 0.36220
vn -0.05933 0.82521 0.56170
vn 0.21014 -0.45576 0.86494
vn 0.85587 -0.10180 0.50707
vn -0.25222 0.90485 0.34297
vn -0.23479 0.93217 0.27555
vn 0.95134 0.22274 0.21294
vn 0.97602 -0.10421 0.19111
vn 0.41775 -0.27365 0.86637
vn 0.25572 -0.36428 0.89549
vn 0.23689 -0.93412 0.26703
vn 0.42277 -0.87807 0.22418
vn -0.09951 0.95706 0.27229
vn 0.02622 0.97142 0.23593
vn 0.09186 0.46727 0.87933
vn 0.25769 0.43827 0.86111
vn 0.82393 0.52564 0.21178
vn -0.84189 -0.22702 0.48958
vn -0.03656 -0.55261 0.83264
vn -0.08192 -0.48138 0.87268
vn 0.06293 -0.98390 0.16728
vn 0.04843 -0.98889 0.14053
vn 0.05755 -0.98019 0.18953
vn -0.19112 0.90957 0.36899
vn -0.19350 0.86827 0.45679
vn -0.17016 0.80553 0.56759
vn -0.16057 0.70170 0.69414
vn -0.14989 0.63605 0.75695
vn -0.18967 0.83999 0.50837
vn 0.01442 -0.62041 0.78414
vn 0.02445 -0.60998 0.79204
vn 0.05097 -0.82835 0.55788
vn 0.03042 -0.58846 0.80795
vn 0.06196 -0.97510 0.21292
vn -0.18303 0.82024 0.54195
vn -0.17622 0.80600 0.56508
vn -0.13929 0.59572 0.79102
vn -0.12833 0.57210 0.81008
vn -0.11716 0.55287 0.82499
vn -0.16948 0.79280 0.58544
vn 0.04972 -0.81452 0.57801
vn 0.04647 -0.80279 0.59445
vn 0.02686 -0.55095 0.83411
vn 0.02996 -0.56909 0.82173
vn -0.16373 0.77892 0.60538
vn 0.04066 -0.95363 0.29824
vn 0.05008 -0.95455 0.29380
vn 0.05183 -0.47935 0.87609
vn 0.02217 -0.52901 0.84832
vn -0.09122 0.50144 0.86037
vn -0.10931 0.53114 0.84020
vn -0.20982 0.92868 0.30584
f 7//1 6//2 5//3 8//4
f 1//5 12//6 13//7 14//8
f 1//9 14//10 11//11 10//12
f 1//13 10//14 9//15 12//16
f 2//17 12//16 9//15 15//18
f 2//19 16//20 13//7 12//6
f 2//21 15//22 96//23 16//24
f 16//24 96//23 97//25 17//26
f 16//20 17//27 18//27 13//7
f 18//27 17//27 19//28 20//29
f 18//30 20//31 21//32 22//33
f 18//30 22//33 14//8 13//7
f 22//33 21//32 23//34 24//35
f 22//33 24//35 11//11 14//10
f 25//36 26//37 27//38 19//28
f 25//36 19//28 17//26 97//25
f 29//39 98//40 31//41 32//42
f 29//39 32//42 33//43 30//44
f 33//45 32//46 34//46 35//45
f 33//45 35//45 36//47 37//47
f 33//43 37//48 38//49 30//44
f 38//49 37//48 4//50 3//51
f 39//52 99//53 40//54 41//55
f 39//52 41//55 42//56 28//57
f 42//56 27//38 26//37 28//57
f 42//56 41//55 43//58 44//59
f 42//56 44//59 45//60 27//38
f 45//60 20//29 19//28 27//38
f 45//61 44//62 46//63 47//64
f 45//61 47//64 21//32 20//31
f 47//64 46//63 100//65 101//66
f 47//64 101//66 23//34 21//32
f 46//63 44//62 43//67 31//67
f 46//63 31//41 98//40 100//65
f 43//58 41//55 40//54 34//68
f 43//67 34//46 32//46 31//67
f 40//54 99//53 102//69 48//70
f 40//54 48//70 35//71 34//68
f 48//70 102//69 49//72 50//73
f 48//70 50//73 36//74 35//71
f 50//73 49//72 6//2 7//1
f 50//73 7//1 8//4 36//74
f 37//47 36//47 8//75 4//75
f 8//76 5//76 103//76 4//76
f 103//77 3//51 4//50
f 54//78 55//79 104//80 53//81
f 51//82 58//83 57//84 56//85
f 51//86 59//87 60//87 58//86
f 51//88 56//89 105//90 59//91
f 52//92 62//93 106//94 61//95
f 52//96 58//96 60//97 62//97
f 52//98 61//99 57//84 58//83
f 64//100 63//100 104//100 55//100
f 64//101 55//101 65//102 66//102
f 64//103 66//104 107//105 108//106
f 107//105 66//104 67//107 109//108
f 69//109 68//110 70//111 71//112
f 69//109 71//112 54//78 53//81
f 71//112 70//111 72//113 65//114
f 71//112 65//114 55//79 54//78
f 72//113 70//111 73//115 74//116
f 72//117 74//118 75//118 67//117
f 72//117 67//117 66//102 65//102
f 75//118 74//118 76//119 77//120
f 75//121 77//120 78//122 79//123
f 75//121 79//123 109//108 67//107
f 111//124 110//125 80//126 73//115
f 111//124 73//115 70//111 68//110
f 80//126 110//125 112//127 81//128
f 80//126 81//128 82//129 76//130
f 80//126 76//130 74//116 73//115
f 82//129 81//128 83//131 84//132
f 82//133 84//134 85//135 86//136
f 82//133 86//136 77//120 76//119
f 86//136 85//135 113//137 114//138
f 86//136 114//138 78//122 77//120
f 87//139 88//140 89//141 83//131
f 87//139 83//131 81//128 112//127
f 116//142 115//143 91//144 92//145
f 116//142 92//145 59//91 105//90
f 92//146 91//147 93//147 94//146
f 92//146 94//146 60//87 59//87
f 94//148 93//149 89//141 95//148
f 94//148 95//148 62//97 60//97
f 95//150 89//141 88//140 90//151
f 95//150 90//151 106//94 62//93
f 93//149 84//132 83//131 89//141
f 93//147 91//147 85//135 84//134
f 91//144 115//143 113//137 85//135
f 108//106 63//152 64//103
f 121//153 5//3 6//2 120//154
f 124//155 123//155 122//156 117//156
f 10//12 11//11 124//157 117//158
f 122//159 9//15 10//14 117//160
f 15//18 9//15 122//159 118//161
f 122//162 123//163 125//163 118//162
f 125//164 96//23 15//22 118//165
f 126//166 97//25 96//23 125//164
f 123//163 127//167 126//167 125//163
f 129//168 128//169 126//167 127//167
f 131//170 130//171 129//172 127//173
f 123//155 124//155 131//170 127//173
f 24//35 23//34 130//171 131//170
f 124//157 11//11 24//35 131//170
f 128//169 132//174 26//37 25//36
f 97//25 126//166 128//169 25//36
f 134//175 133//176 98//40 29//39
f 30//44 135//177 134//175 29//39
f 137//178 136//179 134//179 135//178
f 139//180 138//180 137//178 135//178
f 30//44 38//49 139//181 135//177
f 3//51 119//182 139//181 38//49
f 141//183 140//184 99//53 39//52
f 28//57 142//185 141//183 39//52
f 28//57 26//37 132//174 142//185
f 144//186 143//187 141//183 142//185
f 132//174 145//188 144//186 142//185
f 132//174 128//169 129//168 145//188
f 147//189 146//190 144//191 145//192
f 129//172 130//171 147//189 145//192
f 101//66 100//65 146//190 147//189
f 130//171 23//34 101//66 147//189
f 133//193 143//193 144//191 146//190
f 100//65 98//40 133//176 146//190
f 136//194 140//184 141//183 143//187
f 133//193 134//179 136//179 143//193
f 148//195 102//69 99//53 140//184
f 136//194 137//196 148//195 140//184
f 149//197 49//72 102//69 148//195
f 137//196 138//198 149//197 148//195
f 120//154 6//2 49//72 149//197
f 138//198 121//153 120//154 149//197
f 119//199 121//199 138//180 139//180
f 119//200 103//200 5//200 121//200
f 119//182 3//51 103//77
f 53//81 104//80 153//201 152//202
f 56//85 57//84 154//203 150//204
f 154//205 156//206 155//206 150//205
f 155//207 105//90 56//89 150//208
f 61//95 106//94 157//209 151//210
f 157//211 156//211 154//212 151//212
f 154//203 57//84 61//99 151//213
f 153//214 104//214 63//214 158//214
f 160//215 159//215 153//216 158//216
f 108//106 107//105 160//217 158//218
f 109//108 161//219 160//217 107//105
f 163//220 162//221 68//110 69//109
f 53//81 152//202 163//220 69//109
f 159//222 164//223 162//221 163//220
f 152//202 153//201 159//222 163//220
f 166//224 165//225 162//221 164//223
f 161//226 167//227 166//227 164//226
f 159//215 160//215 161//226 164//226
f 169//228 168//229 166//227 167//227
f 79//123 78//122 169//228 167//230
f 161//219 109//108 79//123 167//230
f 165//225 170//231 110//125 111//124
f 68//110 162//221 165//225 111//124
f 171//232 112//127 110//125 170//231
f 168//233 172//234 171//232 170//231
f 165//225 166//224 168//233 170//231
f 174//235 173//236 171//232 172//234
f 176//237 175//238 174//239 172//240
f 168//229 169//228 176//237 172//240
f 114//138 113//137 175//238 176//237
f 169//228 78//122 114//138 176//237
f 173//236 177//241 88//140 87//139
f 112//127 171//232 173//236 87//139
f 179//242 178//243 115//143 116//142
f 105//90 155//207 179//242 116//142
f 181//244 180//245 178//245 179//244
f 155//206 156//206 181//244 179//244
f 182//246 177//241 180//247 181//246
f 156//211 157//211 182//246 181//246
f 90//151 88//140 177//241 182//248
f 157//209 106//94 90//151 182//248
f 177//241 173//236 174//235 180//247
f 174//239 175//238 178//245 180//245
f 175//238 113//137 115//143 178//243
f 158//218 63//152 108//106
