# pilowlava3D glyph '!' variant 1 — Vincent Wagner / Velvetyne, Free Art License
v 1.78336 3.77212 0.00000
v 0.99256 4.30881 -0.37846
v 0.59307 1.70110 -0.20884
v 1.75729 3.77648 -0.15029
v 1.59044 4.19335 -0.38616
v 0.79279 1.64386 -0.21061
v 1.77000 3.71363 0.00000
v 1.75510 4.01222 -0.20977
v 0.95803 4.40303 -0.22573
v 1.21156 4.46358 -0.22655
v 1.20072 4.33245 -0.41319
v 1.13390 4.16460 -0.51102
v 0.90067 4.20376 -0.41417
v 0.77250 4.27686 -0.22924
v 0.60453 1.81699 -0.25298
v 0.66836 1.79009 -0.32140
v 0.63566 1.64144 -0.24623
v 0.57785 1.67946 -0.12005
v 0.57132 1.84302 -0.13218
v 0.62211 1.58228 -0.12743
v 1.73006 3.58100 0.00000
v 1.67226 3.59551 -0.21255
v 1.44164 4.29868 -0.41709
v 1.48985 4.42788 -0.23221
v 1.68941 4.24445 -0.23083
v 1.58907 4.02551 -0.42385
v 1.37469 4.10206 -0.51945
v 0.71819 1.61662 -0.24760
v 0.75595 1.76928 -0.32487
v 0.83555 1.76257 -0.25724
v 0.87926 1.77013 -0.13424
v 0.79741 1.61750 -0.12027
v 0.70635 1.55682 -0.12694
v 0.61599 1.57678 0.00000
v 0.94691 1.93945 -0.16026
v 1.11703 2.25769 0.00000
v 1.01675 2.10527 -0.16904
v 1.08875 2.27015 -0.17416
v 0.95251 2.11841 -0.31584
v 1.01808 2.29284 -0.32729
v 1.08223 2.46592 -0.33917
v 1.16051 2.43787 -0.18129
v 1.19331 2.42256 0.00000
v 1.23302 2.60665 -0.19028
v 1.27004 2.58688 0.00000
v 0.55930 1.85620 0.00000
v 0.57843 2.02129 -0.15854
v 0.57062 1.67846 0.00000
v 0.58083 2.19981 -0.16766
v 0.64349 2.18504 -0.31341
v 0.62657 1.99778 -0.29122
v 0.74017 2.16208 -0.39904
v 0.70674 1.97221 -0.36979
v 0.85108 2.13830 -0.40079
v 0.80109 1.95119 -0.37226
v 0.89049 1.93910 -0.29502
v 0.76784 2.34973 -0.42044
v 0.90286 2.32104 -0.42181
v 0.79488 2.53401 -0.44142
v 0.95206 2.50041 -0.44271
v 0.82427 2.71699 -0.46325
v 0.99886 2.67910 -0.46479
v 1.14345 2.64042 -0.35682
v 1.04420 2.86039 -0.48731
v 1.20287 2.81559 -0.37628
v 1.30510 2.77344 -0.20051
v 1.26212 2.98989 -0.39255
v 1.37496 2.94057 -0.20959
v 1.42379 2.91504 0.00000
v 0.55300 2.38026 0.00000
v 0.58437 2.56177 -0.17901
v 0.58253 2.37891 -0.17235
v 0.66460 2.55544 -0.33713
v 0.65395 2.37074 -0.32523
v 0.58720 2.74610 -0.18747
v 0.67892 2.74058 -0.35269
v 0.59039 2.93071 -0.19679
v 0.69447 2.92489 -0.37033
v 0.85444 2.90003 -0.48551
v 0.70907 3.10981 -0.39013
v 0.88335 3.08501 -0.50716
v 1.08787 3.04252 -0.50872
v 0.91171 3.27174 -0.52599
v 1.13206 3.22353 -0.52830
v 1.32266 3.16275 -0.41022
v 1.17450 3.40530 -0.54498
v 1.38291 3.33298 -0.42529
v 1.52263 3.26938 -0.22660
v 1.44812 3.10655 -0.21960
v 0.59100 3.11586 -0.20670
v 0.59333 3.30071 -0.21606
v 0.72238 3.29532 -0.40582
v 0.59467 3.48895 -0.22445
v 0.73351 3.48165 -0.41923
v 0.93832 3.45824 -0.54117
v 0.74240 3.66964 -0.43333
v 0.96371 3.64212 -0.55287
v 1.21402 3.58226 -0.55606
v 0.99740 3.82230 -0.55903
v 1.25485 3.75183 -0.56417
v 1.49959 3.66270 -0.44141
v 1.44100 3.50032 -0.43413
v 1.59480 3.43549 -0.22710
v 0.53115 3.68888 0.00000
v 0.59197 3.68214 -0.23380
v 0.54836 3.89318 0.00000
v 0.60342 3.88344 -0.23786
v 0.76379 3.86160 -0.44175
v 0.65335 4.08751 -0.23444
v 0.81394 4.04661 -0.43633
v 1.05322 3.99628 -0.55087
v 1.30949 3.92046 -0.56074
v 1.56302 3.83293 -0.43443
v 0.60766 4.10949 0.00000
v 0.74028 4.31059 0.00000
v 0.95182 4.44746 0.00000
v 1.21780 4.50459 0.00000
v 1.50974 4.46481 0.00000
v 1.79578 4.02040 0.00000
v 0.70829 1.54877 0.00000
v 0.80299 1.61249 0.00000
v 0.89487 1.77343 0.00000
v 0.96991 1.93858 0.00000
v 1.04159 2.09559 0.00000
v 0.55807 2.03135 0.00000
v 0.55519 2.20224 0.00000
v 1.34781 2.75121 0.00000
v 0.55082 2.56237 0.00000
v 1.58266 3.23983 0.00000
v 1.50190 3.07669 0.00000
v 0.54466 2.92997 0.00000
v 0.54811 2.74575 0.00000
v 0.53982 3.11419 0.00000
v 0.53619 3.30168 0.00000
v 1.65993 3.40817 0.00000
v 0.53282 3.49163 0.00000
v 1.72620 4.26832 0.00000
v 0.99256 4.30881 0.37846
v 0.59307 1.70110 0.20884
v 1.75729 3.77648 0.15029
v 1.59044 4.19335 0.38616
v 0.79279 1.64386 0.21061
v 1.75510 4.01222 0.20977
v 0.95803 4.40303 0.22573
v 1.21156 4.46358 0.22655
v 1.20072 4.33245 0.41319
v 1.13390 4.16460 0.51102
v 0.90067 4.20376 0.41417
v 0.77250 4.27686 0.22924
v 0.60453 1.81699 0.25298
v 0.66836 1.79009 0.32140
v 0.63566 1.64144 0.24623
v 0.57785 1.67946 0.12005
v 0.57132 1.84302 0.13218
v 0.62211 1.58228 0.12743
v 1.67226 3.59551 0.21255
v 1.44164 4.29868 0.41709
v 1.48985 4.42788 0.23221
v 1.68941 4.24445 0.23083
v 1.58907 4.02551 0.42385
v 1.37469 4.10206 0.51945
v 0.71819 1.61662 0.24760
v 0.75595 1.76928 0.32487
v 0.83555 1.76257 0.25724
v 0.87926 1.77013 0.13424
v 0.79741 1.61750 0.12027
v 0.70635 1.55682 0.12694
v 0.94691 1.93945 0.16026
v 1.01675 2.10527 0.16904
v 1.08875 2.27015 0.17416
v 0.95251 2.11841 0.31584
v 1.01808 2.29284 0.32729
v 1.08223 2.46592 0.33917
v 1.16051 2.43787 0.18129
v 1.23302 2.60665 0.19028
v 0.57843 2.02129 0.15854
v 0.58083 2.19981 0.16766
v 0.64349 2.18504 0.31341
v 0.62657 1.99778 0.29122
v 0.74017 2.16208 0.39904
v 0.70674 1.97221 0.36979
v 0.85108 2.13830 0.40079
v 0.80109 1.95119 0.37226
v 0.89049 1.93910 0.29502
v 0.76784 2.34973 0.42044
v 0.90286 2.32104 0.42181
v 0.79488 2.53401 0.44142
v 0.95206 2.50041 0.44271
v 0.82427 2.71699 0.46325
v 0.99886 2.67910 0.46479
v 1.14345 2.64042 0.35682
v 1.04420 2.86039 0.48731
v 1.20287 2.81559 0.37628
v 1.30510 2.77344 0.20051
v 1.26212 2.98989 0.39255
v 1.37496 2.94057 0.20959
v 0.58437 2.56177 0.17901
v 0.58253 2.37891 0.17235
v 0.66460 2.55544 0.33713
v 0.65395 2.37074 0.32523
v 0.58720 2.74610 0.18747
v 0.67892 2.74058 0.35269
v 0.59039 2.93071 0.19679
v 0.69447 2.92489 0.37033
v 0.85444 2.90003 0.48551
v 0.70907 3.10981 0.39013
v 0.88335 3.08501 0.50716
v 1.08787 3.04252 0.50872
v 0.91171 3.27174 0.52599
v 1.13206 3.22353 0.52830
v 1.32266 3.16275 0.41022
v 1.17450 3.40530 0.54498
v 1.38291 3.33298 0.42529
v 1.52263 3.26938 0.22660
v 1.44812 3.10655 0.21960
v 0.59100 3.11586 0.20670
v 0.59333 3.30071 0.21606
v 0.72238 3.29532 0.40582
v 0.59467 3.48895 0.22445
v 0.73351 3.48165 0.41923
v 0.93832 3.45824 0.54117
v 0.74240 3.66964 0.43333
v 0.96371 3.64212 0.55287
v 1.21402 3.58226 0.55606
v 0.99740 3.82230 0.55903
v 1.25485 3.75183 0.56417
v 1.49959 3.66270 0.44141
v 1.44100 3.50032 0.43413
v 1.59480 3.43549 0.22710
v 0.59197 3.68214 0.23380
v 0.60342 3.88344 0.23786
v 0.76379 3.86160 0.44175
v 0.65335 4.08751 0.23444
v 0.81394 4.04661 0.43633
v 1.05322 3.99628 0.55087
v 1.30949 3.92046 0.56074
v 1.56302 3.83293 0.43443
v 1.00059 0.77734 -0.35780
v 0.11623 0.50502 -0.34461
v 1.13132 0.43116 -0.35421
v 0.20030 0.19851 -0.33471
v 0.84975 0.79417 -0.39458
v 0.83173 0.94932 -0.22172
v 1.06498 0.85714 -0.21499
v 1.20759 0.63251 -0.20307
v 1.09127 0.60520 -0.37387
v 0.90552 0.57167 -0.45854
v 0.23984 0.60077 -0.39353
v 0.30038 0.40132 -0.45937
v 0.14147 0.35015 -0.36738
v 0.02672 0.54819 -0.20702
v 0.17839 0.73845 -0.22418
v 0.04345 0.31616 -0.20562
v 1.21328 0.36648 -0.21209
v 0.96865 0.34739 -0.40937
v 1.01850 0.18872 -0.23679
v 0.15757 0.12781 -0.20460
v 0.35674 0.18841 -0.39111
v 0.37555 0.04134 -0.22331
v 0.59978 0.06303 -0.23817
v 0.37097 0.00000 -0.00000
v 0.14617 0.09786 -0.00000
v 0.56186 0.22987 -0.42425
v 0.76337 0.28862 -0.42883
v 0.80311 0.12296 -0.24217
v 0.50473 0.46431 -0.48715
v 0.70538 0.52788 -0.48524
v 0.43520 0.69029 -0.41842
v 0.64113 0.76143 -0.41723
v 0.38055 0.84451 -0.23581
v 0.59439 0.92078 -0.23539
v 0.58508 0.96226 -0.00000
v 0.83397 0.98679 -0.00000
v 1.09240 0.87983 -0.00000
v 1.04115 0.13967 -0.00000
v 1.23802 0.33773 -0.00000
v 1.23728 0.63578 -0.00000
v 0.00000 0.57017 -0.00000
v 0.01681 0.30866 -0.00000
v 0.60842 0.00880 -0.00000
v 0.36658 0.88817 -0.00000
v 0.81753 0.06262 -0.00000
v 0.15772 0.77490 -0.00000
v 1.00059 0.77734 0.35779
v 0.11623 0.50502 0.34460
v 1.13132 0.43116 0.35420
v 0.20030 0.19851 0.33470
v 0.84975 0.79417 0.39458
v 0.83173 0.94932 0.22171
v 1.06498 0.85714 0.21498
v 1.20759 0.63251 0.20306
v 1.09127 0.60520 0.37386
v 0.90552 0.57167 0.45854
v 0.23984 0.60077 0.39352
v 0.30038 0.40132 0.45936
v 0.14147 0.35015 0.36737
v 0.02672 0.54819 0.20701
v 0.17839 0.73845 0.22417
v 0.04345 0.31616 0.20562
v 1.21328 0.36648 0.21208
v 0.96865 0.34739 0.40936
v 1.01850 0.18872 0.23678
v 0.15757 0.12781 0.20459
v 0.35674 0.18841 0.39110
v 0.37555 0.04134 0.22330
v 0.59978 0.06303 0.23816
v 0.56186 0.22987 0.42424
v 0.76337 0.28862 0.42882
v 0.80311 0.12296 0.24216
v 0.50473 0.46431 0.48714
v 0.70538 0.52788 0.48523
v 0.43520 0.69029 0.41842
v 0.64113 0.76143 0.41722
v 0.38055 0.84451 0.23580
v 0.59439 0.92078 0.23538
vn 0.99103 -0.13361 -0.00010
vn 0.91082 -0.18434 -0.36937
vn 0.91477 0.06347 -0.39895
vn 0.99380 0.11115 -0.00022
vn -0.30943 0.68202 -0.66265
vn -0.37507 0.84479 -0.38163
vn -0.04712 0.92165 -0.38515
vn -0.06226 0.67246 -0.73751
vn -0.11615 0.39033 -0.91332
vn -0.43828 0.50408 -0.74419
vn -0.65397 0.63878 -0.40532
vn -0.90115 -0.20192 -0.38361
vn -0.87967 -0.04897 -0.47305
vn -0.74315 -0.10149 -0.66138
vn -0.83588 -0.29445 -0.46325
vn -0.96115 -0.22720 -0.15674
vn -0.98453 -0.00867 -0.17503
vn -0.89480 -0.41393 -0.16731
vn 0.96242 -0.27154 -0.00345
vn 0.93377 -0.35785 -0.00371
vn 0.84027 -0.30342 -0.44931
vn 0.61597 0.34773 -0.70687
vn 0.29886 0.56245 -0.77093
vn 0.38548 0.83242 -0.39810
vn 0.79065 0.46306 -0.40056
vn 0.63400 0.07492 -0.76970
vn 0.23971 0.24155 -0.94031
vn 0.66979 -0.60668 -0.42815
vn 0.53256 -0.66870 -0.51886
vn 0.56364 -0.40832 -0.71804
vn 0.74751 -0.42139 -0.51348
vn 0.88669 -0.42448 -0.18330
vn 0.72661 -0.66578 -0.16965
vn 0.52970 -0.82828 -0.18271
vn -0.28047 -0.92421 -0.25917
vn -0.28972 -0.95711 -0.00002
vn -0.20991 -0.67178 -0.71039
vn 0.73587 -0.67712 -0.00023
vn 0.55795 -0.82987 -0.00001
vn 0.89598 -0.44409 -0.00012
vn 0.89065 -0.38454 -0.24264
vn 0.91541 -0.40253 -0.00003
vn 0.91247 -0.40914 -0.00012
vn 0.87984 -0.38442 -0.27945
vn 0.87058 -0.38410 -0.30749
vn 0.91134 -0.41166 0.00000
vn 0.73468 -0.32338 -0.59637
vn 0.71842 -0.31439 -0.62051
vn 0.70032 -0.31081 -0.64261
vn 0.86172 -0.38192 -0.33402
vn 0.91125 -0.41185 0.00002
vn 0.85086 -0.38186 -0.36085
vn 0.90941 -0.41589 0.00002
vn -0.99973 -0.02319 0.00043
vn -1.00000 0.00146 0.00005
vn -0.97242 0.01014 -0.23301
vn -0.97180 -0.23580 0.00022
vn -0.91249 -0.40910 -0.00003
vn -0.99999 -0.00443 -0.00016
vn -0.96232 0.00483 -0.27189
vn -0.81389 0.00448 -0.58100
vn -0.84293 -0.00379 -0.53802
vn -0.37834 -0.06821 -0.92315
vn -0.70328 -0.02662 -0.71041
vn -0.06876 -0.18791 -0.97978
vn 0.28975 -0.21027 -0.93372
vn -0.11282 -0.32978 -0.93729
vn 0.59238 -0.31092 -0.74325
vn 0.74875 -0.34766 -0.56436
vn -0.35837 -0.05790 -0.93178
vn 0.28651 -0.19324 -0.93839
vn -0.34681 -0.06158 -0.93591
vn 0.27679 -0.19325 -0.94130
vn -0.33597 -0.06558 -0.93959
vn 0.26296 -0.19302 -0.94530
vn 0.67856 -0.30741 -0.66712
vn 0.25024 -0.18532 -0.95028
vn 0.65798 -0.29662 -0.69216
vn 0.84210 -0.37544 -0.38719
vn 0.63613 -0.29025 -0.71491
vn 0.83034 -0.37585 -0.41143
vn 0.90866 -0.41753 0.00001
vn 0.91046 -0.41361 -0.00001
vn -0.99999 -0.00389 -0.00001
vn -0.99999 -0.00423 -0.00000
vn -0.94644 0.00271 -0.32286
vn -0.95426 0.00309 -0.29895
vn -0.77540 0.00173 -0.63147
vn -0.79288 0.00382 -0.60937
vn -0.93724 0.00219 -0.34868
vn -0.75650 -0.00048 -0.65400
vn -0.92752 -0.00578 -0.37373
vn -0.73646 -0.00923 -0.67642
vn -0.32296 -0.06875 -0.94391
vn -0.71590 -0.01251 -0.69809
vn -0.30807 -0.06464 -0.94916
vn 0.23803 -0.17470 -0.95542
vn -0.29416 -0.05374 -0.95424
vn 0.22354 -0.16028 -0.96142
vn 0.61232 -0.28479 -0.73754
vn 0.21178 -0.13513 -0.96793
vn 0.59608 -0.26048 -0.75950
vn 0.81201 -0.36706 -0.45376
vn 0.81600 -0.38216 -0.43371
vn 0.90674 -0.42169 -0.00001
vn 0.90258 -0.43051 0.00005
vn -0.99999 -0.00526 -0.00001
vn -0.99993 -0.01209 0.00001
vn -0.99990 -0.01390 0.00004
vn -0.91842 -0.00919 -0.39551
vn -0.99994 -0.01060 0.00004
vn -0.91032 -0.00717 -0.41384
vn -0.69644 -0.00937 -0.71755
vn -0.90419 -0.01420 -0.42690
vn -0.67650 -0.01396 -0.73631
vn -0.27863 -0.04262 -0.95945
vn -0.65263 0.01134 -0.75759
vn -0.25886 -0.01885 -0.96573
vn 0.20197 -0.11090 -0.97309
vn -0.23401 0.04958 -0.97097
vn 0.19938 -0.07066 -0.97737
vn 0.59396 -0.19896 -0.77950
vn 0.58456 -0.23754 -0.77579
vn 0.81552 -0.34640 -0.46361
vn 0.91580 -0.40164 -0.00025
vn -0.99989 -0.01450 0.00004
vn -0.99968 0.02523 -0.00002
vn -0.90073 0.01858 -0.43397
vn -0.98691 0.16130 0.00012
vn -0.88801 0.14582 -0.43609
vn -0.61908 0.11413 -0.77699
vn -0.82293 0.36976 -0.43136
vn -0.55337 0.29325 -0.77961
vn -0.18828 0.19151 -0.96326
vn 0.21882 0.04045 -0.97493
vn 0.62252 -0.10776 -0.77515
vn -0.91494 0.40359 0.00002
vn -0.71024 0.70396 0.00015
vn -0.39281 0.91962 0.00044
vn -0.04664 0.99891 0.00023
vn 0.42149 0.90683 0.00000
vn 0.85330 0.52143 -0.00021
vn 0.91331 0.06851 0.40146
vn 0.91176 -0.18247 0.36796
vn -0.06479 0.67553 0.73449
vn -0.04751 0.92131 0.38591
vn -0.37106 0.84479 0.38555
vn -0.30684 0.68522 0.66054
vn -0.43589 0.50827 0.74274
vn -0.11862 0.39510 0.91095
vn -0.65021 0.63997 0.40947
vn -0.83636 -0.28815 0.46633
vn -0.74219 -0.10245 0.66231
vn -0.87737 -0.05494 0.47665
vn -0.89793 -0.20362 0.39021
vn -0.98375 -0.01361 0.17901
vn -0.95994 -0.22883 0.16171
vn -0.89717 -0.40802 0.16914
vn 0.84141 -0.30413 0.44669
vn 0.78864 0.46479 0.40251
vn 0.38560 0.83193 0.39902
vn 0.30547 0.56395 0.76723
vn 0.61928 0.35254 0.70157
vn 0.63710 0.08333 0.76627
vn 0.24708 0.24580 0.93730
vn 0.74359 -0.42461 0.51651
vn 0.56505 -0.40903 0.71653
vn 0.54124 -0.66155 0.51905
vn 0.66813 -0.60530 0.43269
vn 0.72596 -0.66509 0.17501
vn 0.88435 -0.42733 0.18791
vn 0.53808 -0.82219 0.18569
vn -0.28045 -0.92423 0.25912
vn -0.20983 -0.67179 0.71040
vn 0.89098 -0.38384 0.24255
vn 0.87973 -0.38517 0.27878
vn 0.87059 -0.38419 0.30737
vn 0.71838 -0.31492 0.62029
vn 0.73467 -0.32464 0.59571
vn 0.86191 -0.38140 0.33413
vn 0.70032 -0.31080 0.64262
vn 0.85096 -0.38168 0.36082
vn -0.97239 0.01052 0.23311
vn -0.96227 0.00500 0.27206
vn -0.84290 -0.00392 0.53806
vn -0.81361 0.00503 0.58139
vn -0.70330 -0.02660 0.71040
vn -0.37821 -0.06802 0.92322
vn -0.06875 -0.18781 0.97980
vn 0.28975 -0.21079 0.93360
vn -0.11282 -0.32989 0.93726
vn 0.74887 -0.34765 0.56421
vn 0.59236 -0.31137 0.74307
vn 0.28642 -0.19385 0.93829
vn -0.35847 -0.05811 0.93173
vn 0.27663 -0.19380 0.94123
vn -0.34673 -0.06106 0.93597
vn 0.26293 -0.19299 0.94532
vn -0.33591 -0.06503 0.93965
vn 0.67854 -0.30748 0.66711
vn 0.65809 -0.29617 0.69225
vn 0.25038 -0.18468 0.95037
vn 0.84205 -0.37559 0.38715
vn 0.83054 -0.37532 0.41151
vn 0.63629 -0.28978 0.71496
vn -0.95430 0.00309 0.29884
vn -0.94644 0.00255 0.32287
vn -0.79300 0.00372 0.60921
vn -0.77533 0.00215 0.63155
vn -0.75648 -0.00056 0.65401
vn -0.93726 0.00163 0.34863
vn -0.73648 -0.00990 0.67638
vn -0.92752 -0.00616 0.37372
vn -0.32298 -0.06875 0.94391
vn -0.30818 -0.06510 0.94910
vn -0.71598 -0.01317 0.69799
vn 0.23801 -0.17473 0.95542
vn 0.22353 -0.16009 0.96146
vn -0.29416 -0.05361 0.95425
vn 0.61228 -0.28475 0.73759
vn 0.59625 -0.25979 0.75960
vn 0.21193 -0.13416 0.96803
vn 0.81597 -0.38216 0.43375
vn 0.81196 -0.36727 0.45368
vn -0.91840 -0.00934 0.39555
vn -0.91029 -0.00730 0.41391
vn -0.69642 -0.00929 0.71757
vn -0.67636 -0.01443 0.73643
vn -0.90412 -0.01470 0.42703
vn -0.27853 -0.04265 0.95948
vn -0.25868 -0.01943 0.96577
vn -0.65249 0.01063 0.75772
vn 0.20191 -0.11076 0.97312
vn 0.19918 -0.07090 0.97740
vn -0.23406 0.04954 0.97096
vn 0.58466 -0.23733 0.77579
vn 0.59273 -0.20096 0.77993
vn 0.81557 -0.34664 0.46333
vn -0.90076 0.01850 0.43393
vn -0.88787 0.14602 0.43631
vn -0.61895 0.11410 0.77710
vn -0.55308 0.29389 0.77957
vn -0.82260 0.36986 0.43190
vn -0.18865 0.19230 0.96303
vn 0.21924 0.04179 0.97478
vn 0.62154 -0.10621 0.77615
vn 0.45045 0.51992 -0.72580
vn 0.15158 0.54860 -0.82223
vn 0.12883 0.90005 -0.41632
vn 0.59154 0.70658 -0.38836
vn 0.89451 0.27574 -0.35188
vn 0.60067 0.19983 -0.77412
vn 0.23053 0.08721 -0.96915
vn -0.68739 0.18352 -0.70272
vn -0.44650 0.38462 -0.80790
vn -0.28906 -0.08254 -0.95375
vn -0.64464 -0.19666 -0.73876
vn -0.88504 0.26238 -0.38453
vn -0.59466 0.68441 -0.42186
vn -0.89914 -0.28011 -0.33628
vn 0.64419 -0.19308 -0.74010
vn 0.94416 0.05619 -0.32465
vn 0.35103 -0.39759 -0.84776
vn 0.62973 -0.65681 -0.41477
vn 0.46620 -0.75964 -0.45344
vn -0.49232 -0.54308 -0.68021
vn -0.61047 -0.70335 -0.36417
vn -0.17843 -0.56921 -0.80260
vn -0.15299 -0.89482 -0.41939
vn 0.14160 -0.87557 -0.46188
vn 0.16234 -0.98674 0.00036
vn -0.17043 -0.98537 0.00020
vn -0.65396 -0.75653 -0.00002
vn 0.05936 -0.51807 -0.85328
vn 0.17230 -0.47345 -0.86381
vn 0.25816 -0.84263 -0.47258
vn -0.07688 -0.00727 -0.99701
vn 0.05173 0.03757 -0.99795
vn -0.23849 0.48047 -0.84396
vn -0.08098 0.52166 -0.84930
vn -0.36761 0.81767 -0.44302
vn -0.18728 0.87688 -0.44273
vn -0.40292 0.91524 0.00001
vn -0.21741 0.97608 -0.00004
vn 0.14114 0.98999 0.00013
vn 0.64806 0.76159 -0.00006
vn 0.51945 -0.85450 0.00005
vn 0.28785 -0.95768 -0.00011
vn 0.69851 -0.71560 0.00043
vn 0.99990 0.01414 -0.00085
vn 0.96094 0.27677 -0.00070
vn -0.64713 0.76238 0.00002
vn -0.79077 0.61211 0.00007
vn -0.99766 -0.06841 -0.00030
vn -0.95289 -0.30331 -0.00007
vn 0.59475 0.70166 0.39237
vn 0.13241 0.89703 0.42166
vn 0.15745 0.54750 0.82186
vn 0.45632 0.51752 0.72384
vn 0.60074 0.19968 0.77411
vn 0.89306 0.27193 0.35848
vn 0.23670 0.09247 0.96717
vn -0.64757 -0.19814 0.73579
vn -0.29657 -0.08336 0.95137
vn -0.45139 0.38201 0.80642
vn -0.69189 0.17987 0.69924
vn -0.59568 0.68207 0.42420
vn -0.88537 0.25901 0.38605
vn -0.89775 -0.28177 0.33859
vn 0.94005 0.04742 0.33773
vn 0.63965 -0.19095 0.74457
vn 0.35528 -0.39248 0.84837
vn 0.46871 -0.75607 0.45681
vn 0.63471 -0.64790 0.42116
vn -0.61232 -0.69884 0.36970
vn -0.49564 -0.53693 0.68268
vn -0.15849 -0.89172 0.42392
vn -0.18538 -0.56516 0.80388
vn 0.14131 -0.87549 0.46211
vn 0.05918 -0.51832 0.85314
vn 0.25778 -0.84289 0.47232
vn 0.17234 -0.47352 0.86376
vn -0.07768 -0.00753 0.99695
vn 0.05199 0.03778 0.99793
vn -0.08086 0.52167 0.84931
vn -0.23884 0.48046 0.84387
vn -0.18731 0.87687 0.44273
vn -0.36756 0.81773 0.44297
f 1//1 4//2 8//3 119//4
f 2//5 9//6 10//7 11//8
f 2//5 11//8 12//9 13//10
f 2//5 13//10 14//11 9//6
f 3//12 15//13 16//14 17//15
f 3//12 18//16 19//17 15//13
f 3//12 17//15 20//18 18//16
f 4//2 7//19 21//20 22//21
f 5//22 23//23 24//24 25//25
f 5//22 25//25 8//3 26//26
f 5//22 26//26 27//27 23//23
f 6//28 28//29 29//30 30//31
f 6//28 30//31 31//32 32//33
f 6//28 32//33 33//34 28//29
f 33//35 120//36 34//36 20//35
f 33//35 20//35 17//37 28//37
f 33//34 32//33 121//38 120//39
f 121//38 32//33 31//32 122//40
f 122//40 31//32 35//41 123//42
f 124//43 123//42 35//41 37//44
f 124//43 37//44 38//45 36//46
f 38//45 37//44 39//47 40//48
f 38//45 40//48 41//49 42//50
f 38//45 42//50 43//51 36//46
f 43//51 42//50 44//52 45//53
f 46//54 125//55 47//56 19//17
f 46//54 19//17 18//16 48//57
f 48//57 18//16 20//18 34//58
f 47//56 125//55 126//59 49//60
f 47//56 49//60 50//61 51//62
f 47//56 51//62 15//13 19//17
f 51//62 50//61 52//63 53//64
f 51//62 53//64 16//14 15//13
f 53//65 52//63 54//66 55//65
f 53//65 55//65 29//67 16//67
f 55//68 54//66 39//47 56//69
f 55//68 56//69 30//31 29//30
f 56//69 39//47 37//44 35//41
f 56//69 35//41 31//32 30//31
f 54//66 52//63 57//70 58//71
f 54//66 58//71 40//48 39//47
f 58//71 57//70 59//72 60//73
f 58//71 60//73 41//49 40//48
f 60//73 59//72 61//74 62//75
f 60//73 62//75 63//76 41//49
f 63//76 62//75 64//77 65//78
f 63//76 65//78 66//79 44//52
f 63//76 44//52 42//50 41//49
f 66//79 65//78 67//80 68//81
f 66//79 68//81 69//82 127//83
f 66//79 127//83 45//53 44//52
f 70//84 128//85 71//86 72//87
f 70//84 72//87 49//60 126//59
f 72//87 71//86 73//88 74//89
f 72//87 74//89 50//61 49//60
f 74//89 73//88 59//72 57//70
f 74//89 57//70 52//63 50//61
f 73//88 71//86 75//90 76//91
f 73//88 76//91 61//74 59//72
f 76//91 75//90 77//92 78//93
f 76//91 78//93 79//94 61//74
f 79//94 78//93 80//95 81//96
f 79//94 81//96 82//97 64//77
f 79//94 64//77 62//75 61//74
f 82//97 81//96 83//98 84//99
f 82//97 84//99 85//100 67//80
f 82//97 67//80 65//78 64//77
f 85//100 84//99 86//101 87//102
f 85//100 87//102 88//103 89//104
f 85//100 89//104 68//81 67//80
f 89//104 88//103 129//105 130//106
f 89//104 130//106 69//82 68//81
f 132//107 131//108 77//92 75//90
f 132//107 75//90 71//86 128//85
f 131//108 133//109 90//110 77//92
f 90//110 133//109 134//111 91//112
f 90//110 91//112 92//113 80//95
f 90//110 80//95 78//93 77//92
f 92//113 91//112 93//114 94//115
f 92//113 94//115 95//116 83//98
f 92//113 83//98 81//96 80//95
f 95//116 94//115 96//117 97//118
f 95//116 97//118 98//119 86//101
f 95//116 86//101 84//99 83//98
f 98//119 97//118 99//120 100//121
f 98//119 100//121 101//122 102//123
f 98//119 102//123 87//102 86//101
f 102//123 101//122 22//21 103//124
f 102//123 103//124 88//103 87//102
f 103//124 22//21 21//20 135//125
f 103//124 135//125 129//105 88//103
f 136//126 104//127 105//128 93//114
f 136//126 93//114 91//112 134//111
f 105//128 104//127 106//129 107//130
f 105//128 107//130 108//131 96//117
f 105//128 96//117 94//115 93//114
f 108//131 107//130 109//132 110//133
f 108//131 110//133 111//134 99//120
f 108//131 99//120 97//118 96//117
f 111//134 110//133 13//10 12//9
f 111//134 12//9 27//27 112//135
f 111//134 112//135 100//121 99//120
f 112//135 27//27 26//26 113//136
f 112//135 113//136 101//122 100//121
f 113//136 26//26 8//3 4//2
f 113//136 4//2 22//21 101//122
f 110//133 109//132 14//11 13//10
f 109//132 107//130 106//129 114//137
f 109//132 114//137 115//138 14//11
f 115//138 116//139 9//6 14//11
f 116//139 117//140 10//7 9//6
f 117//140 118//141 24//24 10//7
f 118//141 137//142 25//25 24//24
f 137//142 119//4 8//3 25//25
f 29//67 28//37 17//37 16//67
f 27//27 12//9 11//8 23//23
f 24//24 23//23 11//8 10//7
f 1//1 7//19 4//2
f 119//4 143//143 140//144 1//1
f 146//145 145//146 144//147 138//148
f 148//149 147//150 146//145 138//148
f 144//147 149//151 148//149 138//148
f 152//152 151//153 150//154 139//155
f 150//154 154//156 153//157 139//155
f 153//157 155//158 152//152 139//155
f 156//159 21//20 7//19 140//144
f 159//160 158//161 157//162 141//163
f 160//164 143//143 159//160 141//163
f 157//162 161//165 160//164 141//163
f 164//166 163//167 162//168 142//169
f 166//170 165//171 164//166 142//169
f 162//168 167//172 166//170 142//169
f 155//173 34//36 120//36 167//173
f 162//174 152//174 155//173 167//173
f 120//39 121//38 166//170 167//172
f 122//40 165//171 166//170 121//38
f 123//42 168//175 165//171 122//40
f 169//176 168//175 123//42 124//43
f 36//46 170//177 169//176 124//43
f 172//178 171//179 169//176 170//177
f 174//180 173//181 172//178 170//177
f 36//46 43//51 174//180 170//177
f 45//53 175//182 174//180 43//51
f 154//156 176//183 125//55 46//54
f 48//57 153//157 154//156 46//54
f 34//58 155//158 153//157 48//57
f 177//184 126//59 125//55 176//183
f 179//185 178//186 177//184 176//183
f 154//156 150//154 179//185 176//183
f 181//187 180//188 178//186 179//185
f 150//154 151//153 181//187 179//185
f 183//189 182//190 180//188 181//189
f 151//191 163//191 183//189 181//189
f 184//192 171//179 182//190 183//193
f 163//167 164//166 184//192 183//193
f 168//175 169//176 171//179 184//192
f 164//166 165//171 168//175 184//192
f 186//194 185//195 180//188 182//190
f 171//179 172//178 186//194 182//190
f 188//196 187//197 185//195 186//194
f 172//178 173//181 188//196 186//194
f 190//198 189//199 187//197 188//196
f 173//181 191//200 190//198 188//196
f 193//201 192//202 190//198 191//200
f 175//182 194//203 193//201 191//200
f 173//181 174//180 175//182 191//200
f 196//204 195//205 193//201 194//203
f 127//83 69//82 196//204 194//203
f 175//182 45//53 127//83 194//203
f 198//206 197//207 128//85 70//84
f 126//59 177//184 198//206 70//84
f 200//208 199//209 197//207 198//206
f 177//184 178//186 200//208 198//206
f 185//195 187//197 199//209 200//208
f 178//186 180//188 185//195 200//208
f 202//210 201//211 197//207 199//209
f 187//197 189//199 202//210 199//209
f 204//212 203//213 201//211 202//210
f 189//199 205//214 204//212 202//210
f 207//215 206//216 204//212 205//214
f 192//202 208//217 207//215 205//214
f 189//199 190//198 192//202 205//214
f 210//218 209//219 207//215 208//217
f 195//205 211//220 210//218 208//217
f 192//202 193//201 195//205 208//217
f 213//221 212//222 210//218 211//220
f 215//223 214//224 213//221 211//220
f 195//205 196//204 215//223 211//220
f 130//106 129//105 214//224 215//223
f 196//204 69//82 130//106 215//223
f 201//211 203//213 131//108 132//107
f 128//85 197//207 201//211 132//107
f 203//213 216//225 133//109 131//108
f 217//226 134//111 133//109 216//225
f 206//216 218//227 217//226 216//225
f 203//213 204//212 206//216 216//225
f 220//228 219//229 217//226 218//227
f 209//219 221//230 220//228 218//227
f 206//216 207//215 209//219 218//227
f 223//231 222//232 220//228 221//230
f 212//222 224//233 223//231 221//230
f 209//219 210//218 212//222 221//230
f 226//234 225//235 223//231 224//233
f 228//236 227//237 226//234 224//233
f 212//222 213//221 228//236 224//233
f 229//238 156//159 227//237 228//236
f 213//221 214//224 229//238 228//236
f 135//125 21//20 156//159 229//238
f 214//224 129//105 135//125 229//238
f 219//229 230//239 104//127 136//126
f 134//111 217//226 219//229 136//126
f 231//240 106//129 104//127 230//239
f 222//232 232//241 231//240 230//239
f 219//229 220//228 222//232 230//239
f 234//242 233//243 231//240 232//241
f 225//235 235//244 234//242 232//241
f 222//232 223//231 225//235 232//241
f 147//150 148//149 234//242 235//244
f 236//245 161//165 147//150 235//244
f 225//235 226//234 236//245 235//244
f 237//246 160//164 161//165 236//245
f 226//234 227//237 237//246 236//245
f 140//144 143//143 160//164 237//246
f 227//237 156//159 140//144 237//246
f 148//149 149//151 233//243 234//242
f 114//137 106//129 231//240 233//243
f 149//151 115//138 114//137 233//243
f 149//151 144//147 116//139 115//138
f 144//147 145//146 117//140 116//139
f 145//146 158//161 118//141 117//140
f 158//161 159//160 137//142 118//141
f 159//160 143//143 119//4 137//142
f 151//191 152//174 162//174 163//191
f 157//162 146//145 147//150 161//165
f 145//146 146//145 157//162 158//161
f 140//144 7//19 1//1
f 238//247 242//248 243//249 244//250
f 238//247 244//250 245//251 246//252
f 238//247 246//252 247//253 242//248
f 239//254 248//255 249//256 250//257
f 239//254 251//258 252//259 248//255
f 239//254 250//257 253//260 251//258
f 240//261 246//252 245//251 254//262
f 240//261 255//263 247//253 246//252
f 240//261 254//264 256//265 255//263
f 241//266 257//267 253//260 250//257
f 241//266 258//268 259//269 257//267
f 241//266 250//257 249//256 258//268
f 259//269 260//270 280//271 261//272
f 259//269 261//272 262//273 257//267
f 259//269 258//268 263//274 260//270
f 263//274 264//275 265//276 260//270
f 263//274 258//268 249//256 266//277
f 263//274 266//277 267//278 264//275
f 267//278 247//253 255//263 264//275
f 267//278 266//277 268//279 269//280
f 267//278 269//280 242//248 247//253
f 269//280 268//279 270//281 271//282
f 269//280 271//282 243//249 242//248
f 271//282 270//281 281//283 272//284
f 271//282 272//284 273//285 243//249
f 273//285 274//286 244//250 243//249
f 275//287 282//288 265//276 256//265
f 275//287 256//265 254//264 276//289
f 276//290 254//262 245//251 277//291
f 277//291 245//251 244//250 274//286
f 282//288 280//271 260//270 265//276
f 283//292 281//283 270//281 252//259
f 283//292 252//259 251//258 278//293
f 278//294 251//258 253//260 279//295
f 279//295 253//260 257//267 262//273
f 270//281 268//279 248//255 252//259
f 268//279 266//277 249//256 248//255
f 265//276 264//275 255//263 256//265
f 290//296 289//297 288//298 284//299
f 292//300 291//301 290//296 284//299
f 288//298 293//302 292//300 284//299
f 296//303 295//304 294//305 285//306
f 294//305 298//307 297//308 285//306
f 297//308 299//309 296//303 285//306
f 300//310 291//301 292//300 286//311
f 292//300 293//302 301//312 286//311
f 301//312 302//313 300//314 286//311
f 296//303 299//309 303//315 287//316
f 303//315 305//317 304//318 287//316
f 304//318 295//304 296//303 287//316
f 261//272 280//271 306//319 305//317
f 303//315 262//273 261//272 305//317
f 306//319 307//320 304//318 305//317
f 306//319 309//321 308//322 307//320
f 310//323 295//304 304//318 307//320
f 308//322 311//324 310//323 307//320
f 308//322 301//312 293//302 311//324
f 313//325 312//326 310//323 311//324
f 293//302 288//298 313//325 311//324
f 315//327 314//328 312//326 313//325
f 288//298 289//297 315//327 313//325
f 272//284 281//283 314//328 315//327
f 289//297 273//285 272//284 315//327
f 289//297 290//296 274//286 273//285
f 302//313 309//321 282//288 275//287
f 276//289 300//314 302//313 275//287
f 277//291 291//301 300//310 276//290
f 274//286 290//296 291//301 277//291
f 309//321 306//319 280//271 282//288
f 298//307 314//328 281//283 283//292
f 278//293 297//308 298//307 283//292
f 279//295 299//309 297//308 278//294
f 262//273 303//315 299//309 279//295
f 298//307 294//305 312//326 314//328
f 294//305 295//304 310//323 312//326
f 302//313 301//312 308//322 309//321
