# pilowlava3D glyph 'f' variant 1 — Vincent Wagner / Velvetyne, Free Art License
v 3.76297 3.96732 -0.41997
v 0.96555 0.40763 -0.41748
v 0.73213 2.81834 -0.53161
v 3.66881 3.51056 -0.42085
v 3.22118 1.85334 -0.28851
v 3.04163 1.53349 -0.26622
v 3.74330 3.73636 -0.44152
v 3.57378 3.76114 -0.52800
v 3.62688 4.04969 -0.46874
v 3.87334 4.02695 -0.26591
v 3.90671 3.71486 -0.25221
v 3.69747 4.23386 -0.27073
v 0.92355 0.58564 -0.44018
v 1.10784 0.64351 -0.25153
v 1.10522 0.34323 -0.26552
v 0.85381 0.10934 -0.27196
v 0.77634 0.29296 -0.45608
v 0.69253 0.49579 -0.52873
v 0.63866 3.12984 -0.48225
v 0.84544 3.23114 -0.42637
v 0.99412 3.07638 -0.46415
v 1.21741 2.94493 -0.46529
v 1.07957 2.72273 -0.54583
v 1.03311 2.50910 -0.44580
v 0.80044 2.54962 -0.42542
v 0.51598 2.59859 -0.43449
v 0.37694 2.67766 -0.37258
v 0.43695 2.89892 -0.40651
v 0.60561 2.48178 -0.37445
v 3.50632 3.48372 -0.45470
v 3.77455 3.39729 -0.25875
v 3.50449 3.27734 -0.26200
v 3.27540 1.86947 -0.15925
v 3.27655 1.62597 -0.16305
v 3.18020 1.66475 -0.33244
v 3.06194 1.94655 -0.34460
v 3.09268 2.03531 -0.17768
v 3.06100 1.48927 -0.14433
v 2.83270 1.52311 -0.16412
v 2.88023 1.59116 -0.32374
v 0.45350 3.12158 -0.39364
v 0.28024 0.11534 -0.24489
v 0.16546 0.27690 -0.31304
v 0.47173 0.26037 -0.46143
v 0.53185 0.07005 -0.28061
v 0.87758 0.05106 -0.00000
v 0.53613 0.00000 -0.00000
v 0.24310 0.07791 -0.00000
v 0.11226 0.49343 -0.32238
v 0.11457 0.69448 -0.29845
v 0.34718 0.67748 -0.50560
v 0.39890 0.47057 -0.51800
v 0.03386 0.90689 -0.00000
v 0.12038 0.89588 -0.27293
v 0.05666 1.10929 -0.00000
v 0.13557 1.31044 -0.23068
v 0.12849 1.10165 -0.25028
v 0.25414 1.32161 -0.40336
v 0.28040 1.10606 -0.43834
v 0.31012 0.89038 -0.47635
v 0.47505 1.13358 -0.48869
v 0.53908 0.91742 -0.51926
v 0.61050 0.70333 -0.53612
v 0.73687 0.98058 -0.42540
v 0.83138 0.78548 -0.44155
v 0.87646 1.05516 -0.23329
v 0.99692 0.87278 -0.24465
v 0.93130 1.09138 -0.00000
v 1.06223 0.90436 -0.00000
v 1.18161 0.65182 -0.00000
v 1.16680 0.30925 -0.00000
v 0.11521 1.74271 -0.00000
v 0.09505 1.52077 -0.00000
v 0.14687 1.74474 -0.19311
v 0.13971 1.52481 -0.21262
v 0.21512 1.75683 -0.33394
v 0.23360 1.53954 -0.37059
v 0.30931 1.77088 -0.37718
v 0.35825 1.56060 -0.41891
v 0.41587 1.35022 -0.45539
v 0.47685 1.58532 -0.35649
v 0.56092 1.38521 -0.38105
v 0.64695 1.18190 -0.40470
v 0.66393 1.41972 -0.21442
v 0.76634 1.23739 -0.22453
v 0.13943 1.98026 -0.00000
v 0.19374 2.22092 -0.17698
v 0.16373 1.97955 -0.17925
v 0.24176 2.20655 -0.29705
v 0.21204 1.97952 -0.30000
v 0.30812 2.18586 -0.33886
v 0.28449 1.97932 -0.34134
v 0.37753 2.16769 -0.28644
v 0.36007 1.97610 -0.29282
v 0.40215 1.78295 -0.32595
v 0.41613 1.96986 -0.17051
v 0.47501 1.78704 -0.18485
v 0.56277 1.60349 -0.20176
v 0.50462 1.78722 -0.00000
v 0.43615 2.15043 -0.00000
v 0.28022 2.70995 -0.20171
v 0.23580 2.46884 -0.18544
v 0.29951 2.43638 -0.32720
v 0.37935 2.39237 -0.37566
v 0.46069 2.34337 -0.31985
v 0.66321 2.38639 -0.20947
v 0.51566 2.30856 -0.18862
v 0.42602 2.15493 -0.17294
v 0.52862 2.29413 -0.00000
v 0.82913 2.33482 -0.00000
v 0.99345 2.27488 -0.00000
v 1.17356 2.19791 -0.00000
v 1.20479 3.27451 -0.00000
v 1.04039 3.38635 -0.00000
v 1.32875 3.08825 -0.25476
v 1.14853 3.21607 -0.25690
v 0.99209 3.33948 -0.24278
v 0.72713 3.42126 -0.38720
v 0.85186 3.46964 -0.22584
v 0.89412 3.49445 -0.00000
v 0.76244 3.61839 -0.20047
v 0.79526 3.62134 -0.00000
v 0.31153 3.36054 -0.00000
v 0.28885 3.13992 -0.00000
v 0.26494 2.93186 -0.00000
v 0.33839 3.13240 -0.21097
v 0.31448 2.92586 -0.21162
v 0.35609 3.35778 -0.20387
v 0.45001 3.36285 -0.36959
v 0.37121 3.61271 -0.19625
v 0.44969 3.61411 -0.34451
v 0.55034 3.61645 -0.39638
v 0.57774 3.38246 -0.43430
v 0.66506 3.61799 -0.34138
v 0.58226 3.83956 -0.36674
v 0.67716 3.81135 -0.31407
v 0.75151 3.78586 -0.18498
v 0.75399 3.98167 -0.29905
v 0.81000 3.93846 -0.17652
v 0.82270 3.92763 -0.00000
v 0.77012 3.77778 -0.00000
v 0.53965 4.13780 -0.00000
v 0.40129 3.88332 -0.00000
v 0.33784 3.61355 -0.00000
v 0.42567 3.87821 -0.18962
v 0.55621 4.12636 -0.18598
v 0.60909 4.08952 -0.31383
v 0.49361 3.86219 -0.32173
v 0.68112 4.03703 -0.35358
v 0.80112 4.25777 -0.31228
v 0.84738 4.18074 -0.35244
v 0.89356 4.10433 -0.29859
v 1.05458 4.24931 -0.35817
v 1.07291 4.15898 -0.30696
v 1.09225 4.09163 -0.17817
v 0.92999 4.04880 -0.17385
v 1.09969 4.07010 -0.00000
v 0.93981 4.03351 -0.00000
v 1.02215 4.42415 -0.00000
v 0.75849 4.32912 -0.00000
v 1.02585 4.40188 -0.18833
v 0.76781 4.31207 -0.18637
v 1.03823 4.33948 -0.31818
v 1.28348 4.41191 -0.19108
v 1.27921 4.34509 -0.33085
v 1.27352 4.24829 -0.37391
v 1.50679 4.32285 -0.34700
v 1.48949 4.20913 -0.39391
v 1.46902 4.09673 -0.34091
v 1.26952 4.15171 -0.32337
v 1.45845 4.01726 -0.19190
v 1.27297 4.07697 -0.18498
v 1.27496 4.04806 -0.00000
v 1.51856 4.40181 -0.19424
v 1.73883 4.39267 -0.19847
v 1.72546 4.30149 -0.35904
v 1.95528 4.38066 -0.20364
v 1.94122 4.27967 -0.37104
v 1.90945 4.11717 -0.43976
v 1.69990 4.16232 -0.41655
v 1.87322 3.96019 -0.37039
v 1.67010 4.02716 -0.35480
v 1.84765 3.86256 -0.20312
v 1.65157 3.94135 -0.19640
v 1.83198 3.82024 -0.00000
v 1.64115 3.90358 -0.00000
v 1.95846 4.42601 -0.00000
v 2.17281 4.42369 -0.00000
v 2.17119 4.37165 -0.21259
v 3.00793 3.30729 -0.00000
v 3.23125 3.22362 -0.00000
v 2.83804 3.46154 -0.25839
v 3.04008 3.38997 -0.25986
v 3.24548 3.31040 -0.26425
v 3.10980 3.58097 -0.46747
v 3.30883 3.52321 -0.46949
v 3.52148 3.20509 -0.00000
v 3.82265 3.36242 -0.00000
v 3.93051 4.04573 -0.00000
v 3.45861 4.31554 -0.27020
v 3.23373 4.32538 -0.26530
v 3.24332 4.41290 -0.00000
v 3.42306 4.10067 -0.48903
v 3.21400 4.12422 -0.48350
v 3.00300 4.14176 -0.46463
v 3.01856 4.32490 -0.25456
v 3.38063 3.80110 -0.55949
v 3.17699 3.84356 -0.56359
v 2.96639 3.88471 -0.54914
v 2.75201 3.92757 -0.53043
v 2.79346 4.16579 -0.44854
v 2.90511 3.63590 -0.46423
v 2.69550 3.70046 -0.44655
v 2.48856 3.76446 -0.42789
v 2.54064 3.97693 -0.51094
v 2.63934 3.54278 -0.24794
v 2.44099 3.62521 -0.23544
v 2.24216 3.70258 -0.22388
v 2.28098 3.82779 -0.40812
v 2.02535 3.73673 -0.00000
v 2.04459 3.78469 -0.21142
v 2.07632 3.89358 -0.38686
v 2.11896 4.07132 -0.46346
v 2.32870 4.02350 -0.48570
v 2.15582 4.25437 -0.38906
v 2.36873 4.22431 -0.40720
v 2.58080 4.19548 -0.42750
v 2.38425 4.35896 -0.22267
v 2.59642 4.34518 -0.23317
v 2.80861 4.33424 -0.24519
v 3.02432 4.41171 -0.00000
v 1.52310 2.96407 -0.24822
v 1.43803 2.82425 -0.45383
v 1.64729 2.71237 -0.44160
v 1.54594 2.51221 -0.52584
v 1.33260 2.61856 -0.53869
v 1.72311 2.84694 -0.24164
v 1.92107 2.72827 -0.23458
v 1.84927 2.60108 -0.42926
v 1.95905 2.78558 -0.00000
v 2.15266 2.66171 -0.00000
v 2.11739 2.60824 -0.22809
v 2.34646 2.53973 -0.00000
v 2.53774 2.41712 -0.00000
v 2.50726 2.37008 -0.21770
v 2.31417 2.48971 -0.22308
v 2.44778 2.26109 -0.40522
v 2.24982 2.37576 -0.41293
v 2.04994 2.49047 -0.42085
v 2.15337 2.19409 -0.49700
v 1.95177 2.30123 -0.50820
v 1.74904 2.40592 -0.51626
v 1.85787 2.11404 -0.41472
v 1.65314 2.21238 -0.42529
v 1.45081 2.31427 -0.43382
v 1.59597 2.08749 -0.22898
v 1.39371 2.17945 -0.23485
v 1.19667 2.26754 -0.23978
v 1.24696 2.41428 -0.44426
v 1.00764 2.34469 -0.23993
v 0.82927 2.39424 -0.23074
v 1.36787 2.11427 -0.00000
v 1.77573 1.93785 -0.00000
v 2.89388 2.14094 -0.20095
v 2.70093 2.25338 -0.21191
v 2.85250 2.03958 -0.38022
v 2.64834 2.14801 -0.39568
v 2.77012 1.86300 -0.45891
v 2.56168 1.97485 -0.47668
v 2.35577 2.08377 -0.48910
v 2.47228 1.80967 -0.38442
v 2.26570 1.91225 -0.39738
v 2.06109 2.01534 -0.40529
v 2.21315 1.80645 -0.21109
v 2.00665 1.90084 -0.21712
v 1.80133 1.99546 -0.22278
v 1.98273 1.84736 -0.00000
v 2.62471 1.61176 -0.19046
v 3.07039 1.47606 -0.00000
v 3.28618 1.62241 -0.00000
v 3.29015 1.87245 -0.00000
v 2.42059 1.71249 -0.20277
v 2.67669 1.69855 -0.36821
v 2.98342 1.75797 -0.42341
v 0.06382 0.26506 -0.00000
v 0.00000 0.49754 -0.00000
v 0.01089 0.70555 -0.00000
v 0.07685 1.31290 -0.00000
v 0.70919 1.44375 -0.00000
v 0.81718 1.26773 -0.00000
v 0.16921 2.22822 -0.00000
v 0.60314 1.61586 -0.00000
v 0.43137 1.96562 -0.00000
v 0.23757 2.71728 -0.00000
v 0.20432 2.47983 -0.00000
v 0.67783 2.35059 -0.00000
v 1.38287 3.15272 -0.00000
v 1.45436 3.98407 -0.00000
v 1.52245 4.43525 -0.00000
v 1.28622 4.44026 -0.00000
v 1.74336 4.43135 -0.00000
v 2.80287 3.38687 -0.00000
v 3.96049 3.70775 -0.00000
v 3.74177 4.28534 -0.00000
v 3.48466 4.39149 -0.00000
v 2.60642 3.47505 -0.00000
v 2.41338 3.56382 -0.00000
v 2.21888 3.64945 -0.00000
v 2.59883 4.41610 -0.00000
v 2.81118 4.41372 -0.00000
v 2.38673 4.42024 -0.00000
v 1.56966 3.03072 -0.00000
v 1.76367 2.90907 -0.00000
v 1.57014 2.02670 -0.00000
v 2.91326 2.17982 -0.00000
v 2.72716 2.29740 -0.00000
v 2.19132 1.75658 -0.00000
v 2.60604 1.57726 -0.00000
v 2.82004 1.50161 -0.00000
v 3.10494 2.06142 -0.00000
v 2.39929 1.66690 -0.00000
v 3.76297 3.96732 0.41997
v 0.96555 0.40763 0.41748
v 0.73213 2.81834 0.53161
v 3.66881 3.51056 0.42085
v 3.22118 1.85334 0.28851
v 3.04163 1.53349 0.26622
v 3.74330 3.73636 0.44152
v 3.57378 3.76114 0.52800
v 3.62688 4.04969 0.46874
v 3.87334 4.02695 0.26591
v 3.90671 3.71486 0.25221
v 3.69747 4.23386 0.27073
v 0.92355 0.58564 0.44018
v 1.10784 0.64351 0.25153
v 1.10522 0.34323 0.26552
v 0.85381 0.10934 0.27196
v 0.77634 0.29296 0.45608
v 0.69253 0.49579 0.52873
v 0.63866 3.12984 0.48225
v 0.84544 3.23114 0.42637
v 0.99412 3.07638 0.46415
v 1.21741 2.94493 0.46529
v 1.07957 2.72273 0.54583
v 1.03311 2.50910 0.44580
v 0.80044 2.54962 0.42542
v 0.51598 2.59859 0.43449
v 0.37694 2.67766 0.37258
v 0.43695 2.89892 0.40651
v 0.60561 2.48178 0.37445
v 3.50632 3.48372 0.45470
v 3.77455 3.39729 0.25875
v 3.50449 3.27734 0.26200
v 3.27540 1.86947 0.15925
v 3.27655 1.62597 0.16305
v 3.18020 1.66475 0.33244
v 3.06194 1.94655 0.34460
v 3.09268 2.03531 0.17768
v 3.06100 1.48927 0.14433
v 2.83270 1.52311 0.16412
v 2.88023 1.59116 0.32374
v 0.45350 3.12158 0.39364
v 0.28024 0.11534 0.24489
v 0.16546 0.27690 0.31304
v 0.47173 0.26037 0.46143
v 0.53185 0.07005 0.28061
v 0.11226 0.49343 0.32238
v 0.11457 0.69448 0.29845
v 0.34718 0.67748 0.50560
v 0.39890 0.47057 0.51800
v 0.12038 0.89588 0.27293
v 0.13557 1.31044 0.23068
v 0.12849 1.10165 0.25028
v 0.25414 1.32161 0.40336
v 0.28040 1.10606 0.43834
v 0.31012 0.89038 0.47635
v 0.47505 1.13358 0.48869
v 0.53908 0.91742 0.51926
v 0.61050 0.70333 0.53612
v 0.73687 0.98058 0.42540
v 0.83138 0.78548 0.44155
v 0.87646 1.05516 0.23329
v 0.99692 0.87278 0.24465
v 0.14687 1.74474 0.19311
v 0.13971 1.52481 0.21262
v 0.21512 1.75683 0.33394
v 0.23360 1.53954 0.37059
v 0.30931 1.77088 0.37718
v 0.35825 1.56060 0.41891
v 0.41587 1.35022 0.45539
v 0.47685 1.58532 0.35649
v 0.56092 1.38521 0.38105
v 0.64695 1.18190 0.40470
v 0.66393 1.41972 0.21442
v 0.76634 1.23739 0.22453
v 0.19374 2.22092 0.17698
v 0.16373 1.97955 0.17925
v 0.24176 2.20655 0.29705
v 0.21204 1.97952 0.30000
v 0.30812 2.18586 0.33886
v 0.28449 1.97932 0.34134
v 0.37753 2.16769 0.28644
v 0.36007 1.97610 0.29282
v 0.40215 1.78295 0.32595
v 0.41613 1.96986 0.17051
v 0.47501 1.78704 0.18485
v 0.56277 1.60349 0.20176
v 0.28022 2.70995 0.20171
v 0.23580 2.46884 0.18544
v 0.29951 2.43638 0.32720
v 0.37935 2.39237 0.37566
v 0.46069 2.34337 0.31985
v 0.66321 2.38639 0.20947
v 0.51566 2.30856 0.18862
v 0.42602 2.15493 0.17294
v 1.32875 3.08825 0.25476
v 1.14853 3.21607 0.25690
v 0.99209 3.33948 0.24278
v 0.72713 3.42126 0.38720
v 0.85186 3.46964 0.22584
v 0.76244 3.61839 0.20047
v 0.33839 3.13240 0.21097
v 0.31448 2.92586 0.21162
v 0.35609 3.35778 0.20387
v 0.45001 3.36285 0.36959
v 0.37121 3.61271 0.19625
v 0.44969 3.61411 0.34451
v 0.55034 3.61645 0.39638
v 0.57774 3.38246 0.43430
v 0.66506 3.61799 0.34138
v 0.58226 3.83956 0.36674
v 0.67716 3.81135 0.31407
v 0.75151 3.78586 0.18498
v 0.75399 3.98167 0.29905
v 0.81000 3.93846 0.17652
v 0.42567 3.87821 0.18962
v 0.55621 4.12636 0.18598
v 0.60909 4.08952 0.31383
v 0.49361 3.86219 0.32173
v 0.68112 4.03703 0.35358
v 0.80112 4.25777 0.31228
v 0.84738 4.18074 0.35244
v 0.89356 4.10433 0.29859
v 1.05458 4.24931 0.35817
v 1.07291 4.15898 0.30696
v 1.09225 4.09163 0.17817
v 0.92999 4.04880 0.17385
v 1.02585 4.40188 0.18833
v 0.76781 4.31207 0.18637
v 1.03823 4.33948 0.31818
v 1.28348 4.41191 0.19108
v 1.27921 4.34509 0.33085
v 1.27352 4.24829 0.37391
v 1.50679 4.32285 0.34700
v 1.48949 4.20913 0.39391
v 1.46902 4.09673 0.34091
v 1.26952 4.15171 0.32337
v 1.45845 4.01726 0.19190
v 1.27297 4.07697 0.18498
v 1.51856 4.40181 0.19424
v 1.73883 4.39267 0.19847
v 1.72546 4.30149 0.35904
v 1.95528 4.38066 0.20364
v 1.94122 4.27967 0.37104
v 1.90945 4.11717 0.43976
v 1.69990 4.16232 0.41655
v 1.87322 3.96019 0.37039
v 1.67010 4.02716 0.35480
v 1.84765 3.86256 0.20312
v 1.65157 3.94135 0.19640
v 2.17119 4.37165 0.21259
v 2.83804 3.46154 0.25839
v 3.04008 3.38997 0.25986
v 3.24548 3.31040 0.26425
v 3.10980 3.58097 0.46747
v 3.30883 3.52321 0.46949
v 3.45861 4.31554 0.27020
v 3.23373 4.32538 0.26530
v 3.42306 4.10067 0.48903
v 3.21400 4.12422 0.48350
v 3.00300 4.14176 0.46463
v 3.01856 4.32490 0.25456
v 3.38063 3.80110 0.55949
v 3.17699 3.84356 0.56359
v 2.96639 3.88471 0.54914
v 2.75201 3.92757 0.53043
v 2.79346 4.16579 0.44854
v 2.90511 3.63590 0.46423
v 2.69550 3.70046 0.44655
v 2.48856 3.76446 0.42789
v 2.54064 3.97693 0.51094
v 2.63934 3.54278 0.24794
v 2.44099 3.62521 0.23544
v 2.24216 3.70258 0.22388
v 2.28098 3.82779 0.40812
v 2.04459 3.78469 0.21142
v 2.07632 3.89358 0.38686
v 2.11896 4.07132 0.46346
v 2.32870 4.02350 0.48570
v 2.15582 4.25437 0.38906
v 2.36873 4.22431 0.40720
v 2.58080 4.19548 0.42750
v 2.38425 4.35896 0.22267
v 2.59642 4.34518 0.23317
v 2.80861 4.33424 0.24519
v 1.52310 2.96407 0.24822
v 1.43803 2.82425 0.45383
v 1.64729 2.71237 0.44160
v 1.54594 2.51221 0.52584
v 1.33260 2.61856 0.53869
v 1.72311 2.84694 0.24164
v 1.92107 2.72827 0.23458
v 1.84927 2.60108 0.42926
v 2.11739 2.60824 0.22809
v 2.50726 2.37008 0.21770
v 2.31417 2.48971 0.22308
v 2.44778 2.26109 0.40522
v 2.24982 2.37576 0.41293
v 2.04994 2.49047 0.42085
v 2.15337 2.19409 0.49700
v 1.95177 2.30123 0.50820
v 1.74904 2.40592 0.51626
v 1.85787 2.11404 0.41472
v 1.65314 2.21238 0.42529
v 1.45081 2.31427 0.43382
v 1.59597 2.08749 0.22898
v 1.39371 2.17945 0.23485
v 1.19667 2.26754 0.23978
v 1.24696 2.41428 0.44426
v 1.00764 2.34469 0.23993
v 0.82927 2.39424 0.23074
v 2.89388 2.14094 0.20095
v 2.70093 2.25338 0.21191
v 2.85250 2.03958 0.38022
v 2.64834 2.14801 0.39568
v 2.77012 1.86300 0.45891
v 2.56168 1.97485 0.47668
v 2.35577 2.08377 0.48910
v 2.47228 1.80967 0.38442
v 2.26570 1.91225 0.39738
v 2.06109 2.01534 0.40529
v 2.21315 1.80645 0.21109
v 2.00665 1.90084 0.21712
v 1.80133 1.99546 0.22278
v 2.62471 1.61176 0.19046
v 2.42059 1.71249 0.20277
v 2.67669 1.69855 0.36821
v 2.98342 1.75797 0.42341
vn 0.62070 0.21457 -0.75412
vn 0.57957 -0.11401 -0.80691
vn 0.24512 -0.07143 -0.96686
vn 0.36653 0.38335 -0.84776
vn 0.82763 0.33334 -0.45157
vn 0.88514 -0.14289 -0.44284
vn 0.50302 0.71733 -0.48208
vn 0.54254 -0.20603 -0.81437
vn 0.52729 0.09930 -0.84386
vn 0.84184 0.20226 -0.50040
vn 0.78895 -0.33637 -0.51422
vn 0.36874 -0.77935 -0.50661
vn 0.24188 -0.42438 -0.87258
vn 0.15471 -0.07596 -0.98504
vn -0.14845 -0.05273 -0.98751
vn -0.15407 0.16717 -0.97382
vn 0.31477 0.42474 -0.84883
vn 0.25758 0.44285 -0.85880
vn 0.27802 0.46497 -0.84054
vn -0.01018 -0.06839 -0.99761
vn -0.20986 -0.58388 -0.78424
vn -0.09131 -0.62304 -0.77685
vn -0.19357 -0.23556 -0.95239
vn -0.67610 0.07047 -0.73343
vn -0.65245 0.06845 -0.75473
vn 0.16563 -0.64051 -0.74988
vn 0.45146 -0.42333 -0.78548
vn 0.14636 -0.49558 -0.85614
vn 0.63209 -0.60479 -0.48445
vn 0.14079 -0.84742 -0.51192
vn 0.70973 0.04974 -0.70271
vn 0.96532 -0.02846 -0.25953
vn 0.59474 0.70109 -0.39339
vn 0.47035 0.50148 -0.72614
vn 0.56630 0.76594 -0.30438
vn 0.65093 0.71412 -0.25751
vn 0.16166 -0.80458 -0.57142
vn 0.20569 -0.94471 -0.25539
vn -0.23934 -0.92884 -0.28280
vn -0.11452 -0.73079 -0.67293
vn 0.32126 -0.69230 -0.64615
vn 0.52997 -0.81233 -0.24342
vn -0.66437 0.07487 -0.74365
vn -0.43873 -0.79207 -0.42443
vn -0.65746 -0.48577 -0.57600
vn -0.17436 -0.48746 -0.85556
vn -0.07475 -0.85636 -0.51094
vn 0.42572 -0.90486 0.00031
vn -0.04828 -0.99883 -0.00140
vn -0.50983 -0.86027 -0.00257
vn -0.87772 -0.47916 -0.00141
vn -0.99451 -0.10462 -0.00008
vn -0.79050 -0.12709 -0.59913
vn -0.82913 0.04338 -0.55737
vn -0.40458 0.02270 -0.91422
vn -0.30737 -0.15471 -0.93893
vn -0.99737 0.07250 0.00003
vn -0.99573 0.09230 0.00006
vn -0.85878 0.07061 -0.50746
vn -0.99632 0.08566 -0.00005
vn -0.99748 0.07100 0.00009
vn -0.90970 0.05326 -0.41184
vn -0.88532 0.06695 -0.46013
vn -0.60151 0.06672 -0.79608
vn -0.54580 0.07655 -0.83441
vn -0.48231 0.07114 -0.87311
vn 0.05855 0.18213 -0.98153
vn 0.08212 0.16414 -0.98301
vn 0.11387 0.10085 -0.98836
vn 0.51575 0.32510 -0.79266
vn 0.49862 0.27076 -0.82345
vn 0.74560 0.47862 -0.46368
vn 0.75412 0.43396 -0.49293
vn 0.83393 0.55187 -0.00008
vn 0.86415 0.50324 -0.00024
vn 0.97712 0.21268 0.00071
vn 0.99980 -0.01986 0.00175
vn 0.67520 -0.73764 0.00097
vn -0.99779 0.06642 0.00021
vn -0.99677 0.08035 0.00000
vn -0.95043 0.06662 -0.30373
vn -0.93215 0.05026 -0.35858
vn -0.70358 0.08510 -0.70551
vn -0.65356 0.06867 -0.75376
vn -0.43089 0.10779 -0.89594
vn -0.37404 0.09578 -0.92245
vn -0.31844 0.09075 -0.94359
vn 0.38795 0.25965 -0.88435
vn 0.40721 0.27475 -0.87103
vn 0.61542 0.35408 -0.70419
vn 0.58246 0.34664 -0.73524
vn 0.55151 0.33491 -0.76398
vn 0.79847 0.45991 -0.38849
vn 0.77623 0.46262 -0.42832
vn 0.85989 0.51048 -0.00013
vn 0.85210 0.52338 0.00001
vn -0.99432 0.10646 -0.00006
vn -0.99071 0.13602 0.00001
vn -0.95236 0.13813 -0.27189
vn -0.95817 0.10173 -0.26752
vn -0.74762 0.09842 -0.65679
vn -0.73964 0.10023 -0.66549
vn -0.51237 0.04786 -0.85743
vn -0.48277 0.09340 -0.87075
vn 0.53439 0.09354 -0.84005
vn 0.51752 -0.19209 -0.83383
vn 0.71704 -0.24168 -0.65379
vn 0.74684 0.10832 -0.65612
vn 0.67084 0.31053 -0.67346
vn 0.45475 0.25344 -0.85380
vn 0.95563 0.13665 -0.26096
vn 0.87793 0.37864 -0.29302
vn 0.82533 0.44923 -0.34207
vn 0.91197 0.41026 0.00026
vn 0.87143 0.49053 0.00013
vn 0.98770 0.15637 -0.00005
vn -0.98841 0.15181 0.00014
vn -0.98942 0.14509 0.00008
vn -0.92323 0.14392 -0.35627
vn -0.93801 0.15422 -0.31042
vn -0.72075 0.08938 -0.68741
vn -0.49054 0.01439 -0.87130
vn 0.32301 -0.39183 -0.86147
vn 0.49031 -0.53007 -0.69183
vn 0.22013 -0.90251 -0.37016
vn 0.64816 -0.70099 -0.29748
vn 0.92313 -0.28674 -0.25615
vn 0.65711 -0.75379 0.00035
vn 0.95629 -0.29243 -0.00018
vn 0.18661 -0.98243 0.00161
vn 0.57785 0.81614 0.00000
vn 0.55976 0.82865 0.00005
vn 0.47940 0.72623 -0.49272
vn 0.49375 0.71017 -0.50188
vn 0.54546 0.68680 -0.48039
vn 0.60687 0.79480 0.00048
vn 0.45133 0.38383 -0.80559
vn 0.68396 0.59188 -0.42646
vn 0.73089 0.68250 -0.00030
vn 0.87622 0.30740 -0.37114
vn 0.93390 0.35753 -0.00139
vn -0.99206 0.12578 -0.00003
vn -0.99453 0.10441 0.00004
vn -0.92014 0.09101 -0.38086
vn -0.91595 0.11945 -0.38311
vn -0.99603 0.08903 0.00007
vn -0.93167 0.07381 -0.35574
vn -0.68808 0.07284 -0.72196
vn -0.93558 0.13875 -0.32471
vn -0.69109 0.13276 -0.71048
vn -0.44743 0.12863 -0.88502
vn -0.10636 0.18145 -0.97763
vn 0.39917 0.16562 -0.90179
vn 0.61328 0.21471 -0.76012
vn 0.47066 -0.04319 -0.88126
vn 0.67969 -0.08459 -0.72861
vn 0.93659 -0.12088 -0.32893
vn 0.58263 -0.39421 -0.71073
vn 0.78847 -0.53150 -0.30954
vn 0.83098 -0.55630 0.00012
vn 0.99330 -0.11558 -0.00047
vn -0.98852 0.15107 0.00012
vn -0.93748 0.34804 0.00002
vn -0.89425 0.33112 -0.30111
vn -0.78273 0.62236 -0.00009
vn -0.75015 0.59578 -0.28692
vn -0.53664 0.43737 -0.72161
vn -0.64817 0.26663 -0.71329
vn -0.31750 0.27386 -0.90785
vn -0.40035 0.19949 -0.89439
vn -0.35113 0.59379 -0.72397
vn -0.21098 0.34923 -0.91297
vn 0.41237 -0.27684 -0.86793
vn 0.23693 -0.44661 -0.86279
vn 0.33849 -0.62925 -0.69962
vn 0.02382 -0.49199 -0.87027
vn 0.05080 -0.71394 -0.69836
vn 0.07152 -0.95056 -0.30221
vn 0.45144 -0.83933 -0.30287
vn 0.06743 -0.99772 0.00005
vn 0.47088 -0.88220 -0.00005
vn -0.50571 0.86270 -0.00006
vn -0.19467 0.98087 0.00004
vn -0.18541 0.94033 -0.28531
vn -0.48487 0.82763 -0.28272
vn -0.14838 0.67636 -0.72147
vn -0.00424 0.95506 -0.29637
vn 0.00142 0.89788 -0.44023
vn -0.03990 0.39924 -0.91598
vn -0.10659 0.39188 -0.91382
vn 0.01438 0.67763 -0.73526
vn -0.01655 0.38975 -0.92077
vn -0.12684 -0.45312 -0.88238
vn -0.18213 -0.40198 -0.89735
vn -0.25505 -0.64896 -0.71680
vn -0.16127 -0.69100 -0.70463
vn -0.32965 -0.88802 -0.32056
vn -0.20026 -0.92987 -0.30861
vn -0.35340 -0.93547 -0.00001
vn -0.21581 -0.97643 0.00006
vn -0.00990 0.99995 0.00008
vn 0.02938 0.99957 -0.00001
vn 0.03674 0.94665 -0.32015
vn 0.03270 0.99947 -0.00002
vn 0.03916 0.93682 -0.34762
vn 0.01623 0.66310 -0.74836
vn 0.03495 0.92658 -0.37448
vn 0.01050 0.65128 -0.75877
vn -0.02014 0.38765 -0.92159
vn -0.01434 0.38582 -0.92246
vn -0.18710 -0.37488 -0.90800
vn -0.18557 -0.36183 -0.91359
vn -0.26491 -0.60824 -0.74824
vn -0.26864 -0.62528 -0.73270
vn -0.35356 -0.85957 -0.36897
vn -0.35542 -0.86970 -0.34250
vn -0.38799 -0.92166 -0.00003
vn -0.38616 -0.92243 0.00003
vn 0.02955 0.99956 -0.00000
vn 0.02652 0.99965 0.00001
vn 0.03259 0.91434 -0.40364
vn -0.35405 -0.93523 0.00021
vn -0.37519 -0.92695 0.00008
vn -0.31465 -0.80676 -0.50014
vn -0.28949 -0.80265 -0.52149
vn -0.19308 -0.82429 -0.53223
vn -0.22802 -0.97366 -0.00067
vn -0.16410 -0.50532 -0.84719
vn -0.08548 -0.49943 -0.86213
vn 0.17963 -0.98373 0.00047
vn 0.43588 -0.90000 0.00246
vn 0.92679 -0.37558 0.00027
vn 0.98935 -0.14558 0.00004
vn 0.92572 0.37821 -0.00062
vn 0.58491 0.81110 -0.00124
vn 0.17516 0.84465 -0.50585
vn 0.21075 0.97754 -0.00034
vn 0.01839 0.86311 -0.50468
vn 0.02543 0.99968 0.00039
vn 0.12487 0.47711 -0.86993
vn 0.00662 0.52266 -0.85252
vn -0.01468 0.55147 -0.83406
vn 0.00283 0.86780 -0.49690
vn 0.04841 -0.04404 -0.99786
vn -0.04725 -0.01853 -0.99871
vn -0.08634 0.00462 -0.99625
vn -0.10040 0.01545 -0.99483
vn -0.00157 0.57310 -0.81948
vn -0.20213 -0.51344 -0.83398
vn -0.23995 -0.52289 -0.81793
vn -0.25065 -0.54468 -0.80031
vn -0.11028 0.02047 -0.99369
vn -0.35094 -0.80670 -0.47547
vn -0.35129 -0.82160 -0.44896
vn -0.35561 -0.83423 -0.42143
vn -0.26188 -0.56422 -0.78299
vn -0.40485 -0.91438 -0.00001
vn -0.39917 -0.91688 -0.00001
vn -0.39699 -0.91783 -0.00000
vn -0.39528 -0.91856 0.00000
vn -0.35840 -0.84588 -0.39501
vn -0.26684 -0.58624 -0.76493
vn -0.18774 -0.34587 -0.91931
vn -0.18658 -0.32833 -0.92595
vn -0.02734 0.36983 -0.92870
vn -0.02269 0.38047 -0.92451
vn 0.00841 0.63327 -0.77388
vn 0.00680 0.61346 -0.78970
vn 0.00047 0.59463 -0.80400
vn 0.03687 0.90047 -0.43336
vn 0.02994 0.88794 -0.45898
vn 0.02219 0.87650 -0.48088
vn 0.02877 0.99959 -0.00001
vn 0.02098 0.99978 0.00003
vn 0.00369 0.99999 0.00004
vn 0.03335 0.99944 -0.00002
vn 0.46662 0.74605 -0.47504
vn 0.30937 0.48955 -0.81525
vn 0.53440 0.84523 -0.00002
vn 0.32143 0.50246 -0.80263
vn 0.20657 0.29162 -0.93396
vn 0.18640 0.27965 -0.94183
vn 0.46445 0.75655 -0.46034
vn 0.47239 0.76020 -0.44604
vn 0.32653 0.51410 -0.79314
vn 0.52517 0.85100 -0.00003
vn 0.53095 0.84740 -0.00000
vn 0.53032 0.84780 0.00000
vn 0.47548 0.76684 -0.43114
vn 0.53136 0.84715 0.00000
vn 0.53186 0.84683 0.00002
vn 0.48386 0.77546 -0.40564
vn 0.48091 0.77067 -0.41809
vn 0.34407 0.53706 -0.77018
vn 0.33952 0.53050 -0.77672
vn 0.33197 0.52499 -0.78370
vn 0.21618 0.31611 -0.92376
vn 0.21140 0.31379 -0.92566
vn 0.20766 0.30552 -0.92926
vn -0.14381 -0.36662 -0.91919
vn -0.14647 -0.37890 -0.91377
vn -0.24861 -0.58937 -0.76866
vn -0.24646 -0.57917 -0.77705
vn -0.24126 -0.57161 -0.78425
vn -0.13733 -0.36424 -0.92112
vn -0.36263 -0.82525 -0.43297
vn -0.36100 -0.81992 -0.44431
vn -0.35074 -0.81959 -0.45304
vn -0.23410 -0.57122 -0.78671
vn -0.13800 -0.37311 -0.91747
vn -0.30405 -0.83958 -0.45017
vn -0.39198 -0.91997 -0.00005
vn -0.34871 -0.93723 0.00031
vn -0.17774 -0.98408 0.00146
vn -0.13036 -0.89491 -0.42678
vn -0.40035 -0.91636 0.00001
vn -0.40064 -0.91624 -0.00001
vn 0.52581 0.85060 -0.00003
vn 0.51487 0.85727 -0.00004
vn 0.47805 0.79928 -0.36417
vn 0.48165 0.78493 -0.38973
vn 0.36796 0.54106 -0.75622
vn 0.35090 0.54164 -0.76387
vn 0.26004 0.28946 -0.92119
vn 0.23081 0.31260 -0.92142
vn 0.21959 0.31899 -0.92197
vn -0.16120 -0.39834 -0.90296
vn -0.15226 -0.41201 -0.89837
vn -0.26484 -0.62131 -0.73745
vn -0.26323 -0.60800 -0.74903
vn -0.26020 -0.59508 -0.76037
vn -0.15865 -0.38624 -0.90865
vn -0.37163 -0.83860 -0.39829
vn -0.37151 -0.83153 -0.41296
vn -0.36470 -0.82921 -0.42356
vn -0.40531 -0.91418 0.00000
vn -0.40282 -0.91528 -0.00000
vn -0.40214 -0.91558 -0.00000
vn -0.23751 -0.97139 0.00063
vn -0.38404 -0.92332 -0.00004
vn -0.36305 -0.86472 -0.34707
vn 0.22746 -0.97379 0.00080
vn 0.54601 -0.83778 0.00028
vn 0.99999 -0.00499 -0.00022
vn 0.69652 0.71753 -0.00131
vn 0.60616 0.79534 -0.00065
vn -0.40742 -0.91324 -0.00006
vn -0.38052 -0.84357 -0.37895
vn -0.23572 -0.65113 -0.72144
vn -0.10907 -0.44096 -0.89088
vn 0.02146 -0.50975 -0.86006
vn 0.36100 0.20969 -0.90869
vn 0.37042 0.37936 0.84786
vn 0.25426 -0.07534 0.96420
vn 0.58487 -0.11479 0.80297
vn 0.61986 0.21215 0.75549
vn 0.88414 -0.14036 0.44564
vn 0.82574 0.33147 0.45637
vn 0.50471 0.71470 0.48423
vn 0.78504 -0.33571 0.52059
vn 0.83949 0.19977 0.50532
vn 0.52790 0.09481 0.84400
vn 0.54234 -0.20720 0.81421
vn 0.24655 -0.42324 0.87182
vn 0.36911 -0.77725 0.50955
vn 0.15930 -0.07654 0.98426
vn 0.25500 0.43612 0.86300
vn 0.31450 0.42595 0.84833
vn -0.15216 0.16032 0.97527
vn -0.14667 -0.05545 0.98763
vn -0.01532 -0.07015 0.99742
vn 0.27482 0.46515 0.84149
vn -0.09254 -0.62312 0.77664
vn -0.21086 -0.58567 0.78264
vn -0.65058 0.06624 0.75654
vn -0.67365 0.07629 0.73510
vn -0.18821 -0.23120 0.95453
vn 0.16217 -0.64954 0.74283
vn 0.15294 -0.49607 0.85471
vn 0.45911 -0.42309 0.78116
vn 0.14227 -0.84487 0.51571
vn 0.63375 -0.60037 0.48777
vn 0.70648 0.06354 0.70487
vn 0.96362 -0.01764 0.26668
vn 0.65698 0.70542 0.26599
vn 0.56852 0.76245 0.30894
vn 0.47344 0.49565 0.72814
vn 0.60696 0.67958 0.41204
vn -0.10793 -0.72945 0.67547
vn -0.23325 -0.92882 0.28791
vn 0.20704 -0.94249 0.26237
vn 0.16284 -0.80089 0.57625
vn 0.52116 -0.81648 0.24849
vn 0.31156 -0.69480 0.64821
vn -0.66314 0.07204 0.74502
vn -0.08018 -0.86385 0.49733
vn -0.18098 -0.49780 0.84820
vn -0.66438 -0.49166 0.56291
vn -0.44627 -0.79847 0.40409
vn -0.79053 -0.12335 0.59987
vn -0.30738 -0.15017 0.93966
vn -0.40502 0.02737 0.91390
vn -0.82925 0.04850 0.55678
vn -0.85876 0.07094 0.50744
vn -0.88535 0.06687 0.46009
vn -0.90970 0.05363 0.41178
vn -0.54624 0.07873 0.83392
vn -0.60176 0.06698 0.79586
vn -0.48239 0.07138 0.87304
vn 0.08223 0.16301 0.98319
vn 0.05799 0.18454 0.98111
vn 0.11385 0.10032 0.98842
vn 0.49876 0.26920 0.82388
vn 0.51618 0.32415 0.79277
vn 0.75455 0.43294 0.49317
vn 0.74580 0.47868 0.46331
vn -0.93198 0.05065 0.35894
vn -0.95051 0.06727 0.30331
vn -0.65333 0.06889 0.75393
vn -0.70426 0.08548 0.70478
vn -0.37390 0.09544 0.92254
vn -0.43188 0.10788 0.89546
vn -0.31883 0.09031 0.94350
vn 0.58266 0.34498 0.73586
vn 0.61569 0.35290 0.70455
vn 0.40738 0.27282 0.87156
vn 0.38791 0.25995 0.88428
vn 0.55132 0.33503 0.76407
vn 0.77614 0.46258 0.42851
vn 0.79896 0.45843 0.38925
vn -0.95843 0.10050 0.26704
vn -0.95246 0.13711 0.27207
vn -0.74024 0.09816 0.66514
vn -0.74739 0.09726 0.65723
vn -0.48321 0.09147 0.87071
vn -0.51171 0.04733 0.85785
vn 0.74666 0.10820 0.65634
vn 0.71573 -0.23920 0.65614
vn 0.51465 -0.18851 0.83642
vn 0.53439 0.09565 0.83981
vn 0.45580 0.25419 0.85302
vn 0.67129 0.31053 0.67301
vn 0.87795 0.37837 0.29332
vn 0.95554 0.13620 0.26151
vn 0.82561 0.44862 0.34221
vn -0.93754 0.15507 0.31139
vn -0.92292 0.14500 0.35664
vn -0.71875 0.09353 0.68895
vn -0.48779 0.02099 0.87271
vn 0.48697 -0.53886 0.68738
vn 0.32155 -0.39984 0.85833
vn 0.64601 -0.70439 0.29413
vn 0.21570 -0.90663 0.36264
vn 0.92303 -0.28650 0.25677
vn 0.49423 0.71035 0.50114
vn 0.48028 0.72650 0.49145
vn 0.54460 0.68924 0.47788
vn 0.68227 0.59900 0.41918
vn 0.45027 0.39245 0.80202
vn 0.87568 0.31246 0.36817
vn -0.91619 0.11870 0.38277
vn -0.92025 0.09164 0.38046
vn -0.93180 0.07386 0.35537
vn -0.68821 0.07231 0.72190
vn -0.69060 0.13273 0.71096
vn -0.93557 0.13843 0.32489
vn -0.10792 0.18027 0.97768
vn -0.44626 0.12896 0.88556
vn 0.61312 0.21402 0.76045
vn 0.39786 0.15863 0.90363
vn 0.68109 -0.08550 0.72719
vn 0.47589 -0.04314 0.87844
vn 0.93633 -0.12119 0.32954
vn 0.78882 -0.53163 0.30843
vn 0.58454 -0.39472 0.70887
vn -0.89412 0.33131 0.30130
vn -0.75013 0.59576 0.28702
vn -0.64815 0.26718 0.71310
vn -0.53724 0.43742 0.72113
vn -0.40082 0.20047 0.89396
vn -0.31915 0.27431 0.90714
vn -0.21084 0.34891 0.91313
vn -0.35102 0.59354 0.72423
vn 0.33853 -0.62911 0.69973
vn 0.23639 -0.44474 0.86390
vn 0.41478 -0.27756 0.86655
vn 0.05084 -0.71288 0.69944
vn 0.02365 -0.48902 0.87195
vn 0.45138 -0.83972 0.30188
vn 0.07173 -0.95059 0.30206
vn -0.48485 0.82760 0.28284
vn -0.18541 0.94031 0.28538
vn -0.14840 0.67613 0.72169
vn 0.00087 0.89785 0.44030
vn -0.00452 0.95503 0.29649
vn -0.10667 0.39136 0.91404
vn -0.04060 0.39869 0.91618
vn -0.01709 0.38954 0.92085
vn 0.01406 0.67747 0.73541
vn -0.16189 -0.69070 0.70479
vn -0.25550 -0.64930 0.71633
vn -0.18303 -0.40271 0.89684
vn -0.12804 -0.45262 0.88246
vn -0.20019 -0.92983 0.30877
vn -0.32968 -0.88804 0.32046
vn 0.03669 0.94662 0.32025
vn 0.03912 0.93683 0.34759
vn 0.01625 0.66311 0.74834
vn 0.01045 0.65129 0.75875
vn 0.03523 0.92656 0.37448
vn -0.01456 0.38585 0.92245
vn -0.02073 0.38771 0.92155
vn -0.26874 -0.62521 0.73273
vn -0.26584 -0.60804 0.74808
vn -0.18621 -0.36169 0.91351
vn -0.18693 -0.37485 0.90805
vn -0.35560 -0.86961 0.34252
vn -0.35412 -0.85941 0.36880
vn 0.03292 0.91433 0.40363
vn -0.29006 -0.80208 0.52204
vn -0.31542 -0.80643 0.50019
vn -0.19361 -0.82430 0.53201
vn -0.08579 -0.49894 0.86238
vn -0.16467 -0.50471 0.84744
vn 0.17477 0.84485 0.50566
vn 0.01835 0.86280 0.50521
vn 0.12522 0.47684 0.87003
vn 0.00668 0.52259 0.85256
vn 0.00319 0.86779 0.49692
vn -0.01450 0.55151 0.83404
vn -0.04735 -0.01838 0.99871
vn 0.04901 -0.04422 0.99782
vn -0.08619 0.00452 0.99627
vn -0.00125 0.57300 0.81956
vn -0.09978 0.01524 0.99489
vn -0.20228 -0.51333 0.83401
vn -0.23974 -0.52301 0.81791
vn -0.11023 0.02047 0.99370
vn -0.25072 -0.54471 0.80027
vn -0.35108 -0.80667 0.47543
vn -0.35109 -0.82171 0.44892
vn -0.26152 -0.56437 0.78300
vn -0.35541 -0.83433 0.42140
vn -0.35821 -0.84596 0.39501
vn -0.26649 -0.58638 0.76494
vn -0.18743 -0.34597 0.91933
vn -0.18611 -0.32846 0.92600
vn 0.00669 0.61348 0.78968
vn 0.00838 0.63329 0.77387
vn -0.02275 0.38046 0.92452
vn -0.02723 0.36983 0.92870
vn 0.00060 0.59461 0.80402
vn 0.02976 0.88796 0.45895
vn 0.03671 0.90049 0.43332
vn 0.02207 0.87651 0.48087
vn 0.30892 0.48964 0.81537
vn 0.46693 0.74606 0.47473
vn 0.18489 0.27942 0.94220
vn 0.20667 0.29154 0.93396
vn 0.32146 0.50240 0.80266
vn 0.46447 0.75654 0.46035
vn 0.32670 0.51397 0.79316
vn 0.47254 0.76009 0.44605
vn 0.47556 0.76677 0.43116
vn 0.48092 0.77066 0.41808
vn 0.48383 0.77546 0.40567
vn 0.33958 0.53048 0.77670
vn 0.34410 0.53704 0.77019
vn 0.33201 0.52495 0.78371
vn 0.21134 0.31384 0.92566
vn 0.21623 0.31611 0.92375
vn 0.20766 0.30551 0.92927
vn -0.24662 -0.57904 0.77710
vn -0.24871 -0.58930 0.76868
vn -0.14662 -0.37878 0.91380
vn -0.14390 -0.36657 0.91920
vn -0.13734 -0.36430 0.92110
vn -0.24130 -0.57164 0.78422
vn -0.36102 -0.81992 0.44429
vn -0.36269 -0.82520 0.43302
vn -0.23437 -0.57195 0.78609
vn -0.35073 -0.81980 0.45268
vn -0.13858 -0.37414 0.91696
vn -0.30418 -0.84026 0.44881
vn -0.13217 -0.89673 0.42238
vn 0.48182 0.78488 0.38963
vn 0.47733 0.79972 0.36415
vn 0.35097 0.54165 0.76383
vn 0.36774 0.54113 0.75627
vn 0.23079 0.31254 0.92144
vn 0.26007 0.28929 0.92124
vn 0.21965 0.31897 0.92196
vn -0.26337 -0.60788 0.74908
vn -0.26504 -0.62112 0.73754
vn -0.15234 -0.41197 0.89837
vn -0.16117 -0.39833 0.90297
vn -0.15862 -0.38625 0.90865
vn -0.26025 -0.59504 0.76039
vn -0.37157 -0.83149 0.41300
vn -0.37171 -0.83854 0.39835
vn -0.36474 -0.82919 0.42357
vn -0.36313 -0.86474 0.34694
vn -0.38036 -0.84361 0.37900
vn -0.23550 -0.65133 0.72132
vn -0.10946 -0.44098 0.89082
vn 0.02088 -0.51115 0.85924
vn 0.36399 0.21208 0.90694
f 1//1 7//2 8//3 9//4
f 1//1 10//5 11//6 7//2
f 1//1 9//4 12//7 10//5
f 2//8 13//9 14//10 15//11
f 2//8 15//11 16//12 17//13
f 2//8 17//13 18//14 13//9
f 3//15 19//16 20//17 21//18
f 3//15 21//18 22//19 23//20
f 3//15 23//20 24//21 25//22
f 3//15 26//23 27//24 28//25
f 3//15 25//22 29//26 26//23
f 4//27 30//28 8//3 7//2
f 4//27 31//29 32//30 30//28
f 4//27 7//2 11//6 31//29
f 5//31 33//32 34//32 35//31
f 5//33 36//34 37//35 33//36
f 6//37 38//38 39//39 40//40
f 6//37 35//41 34//42 38//38
f 3//15 28//25 41//43 19//16
f 42//44 43//45 44//46 45//47
f 45//47 44//46 17//13 16//12
f 45//47 16//12 46//48 47//49
f 45//47 47//49 48//50 42//44
f 48//50 285//51 43//45 42//44
f 285//51 286//52 49//53 43//45
f 49//53 50//54 51//55 52//56
f 49//53 52//56 44//46 43//45
f 49//53 286//52 287//57 50//54
f 287//57 53//58 54//59 50//54
f 55//60 288//61 56//62 57//63
f 55//60 57//63 54//59 53//58
f 57//63 56//62 58//64 59//65
f 57//63 59//65 60//66 54//59
f 60//66 59//65 61//67 62//68
f 60//66 62//68 63//69 51//55
f 60//66 51//55 50//54 54//59
f 63//69 62//68 64//70 65//71
f 63//69 65//71 13//9 18//14
f 63//69 18//14 52//56 51//55
f 65//71 64//70 66//72 67//73
f 65//71 67//73 14//10 13//9
f 67//73 66//72 68//74 69//75
f 67//73 69//75 70//76 14//10
f 70//76 71//77 15//11 14//10
f 71//78 46//48 16//12 15//11
f 73//79 72//80 74//81 75//82
f 73//79 75//82 56//62 288//61
f 75//82 74//81 76//83 77//84
f 75//82 77//84 58//64 56//62
f 77//84 76//83 78//85 79//86
f 77//84 79//86 80//87 58//64
f 80//88 79//89 81//90 82//91
f 80//88 82//91 83//92 61//67
f 80//87 61//67 59//65 58//64
f 83//92 82//91 84//93 85//94
f 83//92 85//94 66//72 64//70
f 83//92 64//70 62//68 61//67
f 85//94 84//93 289//95 290//96
f 85//94 290//96 68//74 66//72
f 86//97 291//98 87//99 88//100
f 86//97 88//100 74//81 72//80
f 88//100 87//99 89//101 90//102
f 88//100 90//102 76//83 74//81
f 90//102 89//101 91//103 92//104
f 90//102 92//104 78//85 76//83
f 92//105 91//106 93//107 94//108
f 92//105 94//108 95//109 78//110
f 95//109 94//108 96//111 97//112
f 95//109 97//112 98//113 81//90
f 95//109 81//90 79//89 78//110
f 98//113 97//112 99//114 292//115
f 98//113 292//115 289//95 84//93
f 98//113 84//93 82//91 81//90
f 99//114 97//112 96//111 293//116
f 295//117 294//118 101//119 102//120
f 295//117 102//120 87//99 291//98
f 102//120 101//119 27//24 103//121
f 102//120 103//121 89//101 87//99
f 103//121 27//24 26//23 104//122
f 103//121 104//122 91//103 89//101
f 104//123 26//23 29//26 105//124
f 104//123 105//124 93//107 91//106
f 105//124 29//26 106//125 107//126
f 105//124 107//126 108//127 93//107
f 108//127 107//126 109//128 100//129
f 108//127 100//129 293//116 96//111
f 108//127 96//111 94//108 93//107
f 109//128 107//126 106//125 296//130
f 113//131 297//132 115//133 116//134
f 113//131 116//134 117//135 114//136
f 117//135 116//134 21//18 20//17
f 117//135 20//17 118//137 119//138
f 117//135 119//138 120//139 114//136
f 120//139 119//138 121//140 122//141
f 125//142 124//143 126//144 127//145
f 125//142 127//145 101//119 294//118
f 127//145 126//144 41//43 28//25
f 127//145 28//25 27//24 101//119
f 126//144 124//143 123//146 128//147
f 126//144 128//147 129//148 41//43
f 129//148 128//147 130//149 131//150
f 129//148 131//150 132//151 133//152
f 129//148 133//152 19//16 41//43
f 133//152 132//153 134//154 118//137
f 133//152 118//137 20//17 19//16
f 134//154 132//153 135//155 136//156
f 134//154 136//156 137//157 121//140
f 134//154 121//140 119//138 118//137
f 137//157 136//156 138//158 139//159
f 137//157 139//159 140//160 141//161
f 137//157 141//161 122//141 121//140
f 144//162 143//163 145//164 130//149
f 144//162 130//149 128//147 123//146
f 145//164 143//163 142//165 146//166
f 145//164 146//166 147//167 148//168
f 145//164 148//168 131//150 130//149
f 148//168 147//167 149//169 135//170
f 148//168 135//170 132//151 131//150
f 149//169 147//167 150//171 151//172
f 149//173 151//174 152//175 138//158
f 149//173 138//158 136//156 135//155
f 152//175 151//174 153//176 154//177
f 152//175 154//177 155//178 156//179
f 152//175 156//179 139//159 138//158
f 156//179 155//178 157//180 158//181
f 156//179 158//181 140//160 139//159
f 160//182 159//183 161//184 162//185
f 160//182 162//185 146//166 142//165
f 162//185 161//184 163//186 150//171
f 162//185 150//171 147//167 146//166
f 163//186 161//184 164//187 165//188
f 163//186 165//189 166//189 153//190
f 163//186 153//190 151//172 150//171
f 166//189 165//189 167//191 168//192
f 166//193 168//194 169//195 170//196
f 166//193 170//196 154//177 153//176
f 170//196 169//195 171//197 172//198
f 170//196 172//198 155//178 154//177
f 172//198 171//197 298//199 173//200
f 172//198 173//200 157//180 155//178
f 300//201 299//202 174//203 164//187
f 300//201 164//187 161//184 159//183
f 174//203 299//202 301//204 175//205
f 174//203 175//205 176//206 167//191
f 174//203 167//191 165//188 164//187
f 176//206 175//205 177//207 178//208
f 176//206 178//208 179//209 180//210
f 176//206 180//210 168//192 167//191
f 180//211 179//212 181//213 182//214
f 180//211 182//214 169//195 168//194
f 182//214 181//213 183//215 184//216
f 182//214 184//216 171//197 169//195
f 184//216 183//215 185//217 186//218
f 184//216 186//218 298//199 171//197
f 187//219 188//220 189//221 177//207
f 187//219 177//207 175//205 301//204
f 190//222 302//223 192//224 193//225
f 190//222 193//225 194//226 191//227
f 194//226 193//225 195//228 196//229
f 194//226 196//229 30//28 32//30
f 194//226 32//30 197//230 191//227
f 197//230 32//30 31//29 198//231
f 198//232 31//29 11//6 303//233
f 303//233 11//6 10//5 199//234
f 199//234 10//5 12//7 304//235
f 304//235 12//7 200//236 305//237
f 200//236 201//238 202//239 305//237
f 200//236 12//7 9//4 203//240
f 200//236 203//240 204//241 201//238
f 204//241 205//242 206//243 201//238
f 204//241 203//240 207//244 208//245
f 204//241 208//245 209//246 205//242
f 209//246 210//247 211//248 205//242
f 209//246 208//245 195//228 212//249
f 209//246 212//249 213//250 210//247
f 213//250 214//251 215//252 210//247
f 213//250 212//249 192//224 216//253
f 213//250 216//253 217//254 214//251
f 217//254 218//255 219//256 214//251
f 217//254 216//253 306//257 307//258
f 217//254 307//258 308//259 218//255
f 308//259 220//260 221//261 218//255
f 221//261 183//215 181//213 222//262
f 221//261 222//262 219//256 218//255
f 221//261 220//260 185//217 183//215
f 222//262 181//213 179//212 223//263
f 222//262 223//263 224//264 219//256
f 224//265 223//266 225//267 226//268
f 224//265 226//268 227//269 215//252
f 224//264 215//252 214//251 219//256
f 227//269 226//268 228//270 229//271
f 227//269 229//271 230//272 211//248
f 227//269 211//248 210//247 215//252
f 230//272 229//271 309//273 310//274
f 230//272 310//274 231//275 206//243
f 230//272 206//243 205//242 211//248
f 231//275 202//239 201//238 206//243
f 309//273 229//271 228//270 311//276
f 228//270 189//221 188//220 311//276
f 228//270 226//268 225//267 189//221
f 225//267 178//208 177//207 189//221
f 225//267 223//266 179//209 178//208
f 216//253 192//224 302//223 306//257
f 212//249 195//228 193//225 192//224
f 208//245 207//244 196//229 195//228
f 207//244 203//240 9//4 8//3
f 207//244 8//3 30//28 196//229
f 116//134 115//133 22//19 21//18
f 115//133 232//277 233//278 22//19
f 115//133 297//132 312//279 232//277
f 233//278 234//280 235//281 236//282
f 233//278 236//282 23//20 22//19
f 233//278 232//277 237//283 234//280
f 237//283 238//284 239//285 234//280
f 237//283 232//277 312//279 313//286
f 237//283 313//286 240//287 238//284
f 240//287 241//288 242//289 238//284
f 243//290 244//291 245//292 246//293
f 243//290 246//293 242//289 241//288
f 246//293 245//292 247//294 248//295
f 246//293 248//295 249//296 242//289
f 249//296 248//295 250//297 251//298
f 249//296 251//298 252//299 239//285
f 249//296 239//285 238//284 242//289
f 252//300 251//301 253//302 254//303
f 252//300 254//303 255//304 235//305
f 252//299 235//281 234//280 239//285
f 255//304 254//303 256//306 257//307
f 255//304 257//307 258//308 259//309
f 255//304 259//309 236//310 235//305
f 259//309 258//308 260//311 24//21
f 259//309 24//21 23//20 236//310
f 260//311 258//308 112//312 111//313
f 260//311 111//313 110//314 261//315
f 260//311 261//315 25//22 24//21
f 261//315 110//314 296//130 106//125
f 261//315 106//125 29//26 25//22
f 258//308 257//307 262//316 112//312
f 262//316 257//307 256//306 314//317
f 316//318 315//319 264//320 265//321
f 316//318 265//321 245//292 244//291
f 265//321 264//320 266//322 267//323
f 265//321 267//323 247//294 245//292
f 267//323 266//322 268//324 269//325
f 267//323 269//325 270//326 247//294
f 270//327 269//328 271//329 272//330
f 270//327 272//330 273//331 250//332
f 270//326 250//297 248//295 247//294
f 273//331 272//330 274//333 275//334
f 273//331 275//334 276//335 253//302
f 273//331 253//302 251//301 250//332
f 276//335 275//334 277//336 263//337
f 276//335 263//337 314//317 256//306
f 276//335 256//306 254//303 253//302
f 277//336 275//334 274//333 317//338
f 319//339 318//340 278//341 39//39
f 319//339 39//39 38//38 279//342
f 279//342 38//38 34//42 280//343
f 280//344 34//32 33//32 281//344
f 281//345 33//36 37//35 320//346
f 320//346 37//35 264//320 315//319
f 278//341 318//340 321//347 282//348
f 278//341 282//348 271//329 283//349
f 278//341 283//349 40//40 39//39
f 283//349 271//329 269//328 268//350
f 283//349 268//350 284//351 40//40
f 284//351 35//41 6//37 40//40
f 284//352 268//324 266//322 36//34
f 284//352 36//34 5//31 35//31
f 282//348 321//347 317//338 274//333
f 282//348 274//333 272//330 271//329
f 266//322 264//320 37//35 36//34
f 52//56 18//14 17//13 44//46
f 330//353 329//354 328//355 322//356
f 328//355 332//357 331//358 322//356
f 331//358 333//359 330//353 322//356
f 336//360 335//361 334//362 323//363
f 338//364 337//365 336//360 323//363
f 334//362 339//366 338//364 323//363
f 342//367 341//368 340//369 324//370
f 344//371 343//372 342//367 324//370
f 346//373 345//374 344//371 324//370
f 349//375 348//376 347//377 324//370
f 347//377 350//378 346//373 324//370
f 328//355 329//354 351//379 325//380
f 351//379 353//381 352//382 325//380
f 352//382 332//357 328//355 325//380
f 356//383 355//384 354//384 326//383
f 354//385 358//386 357//387 326//388
f 361//389 360//390 359//391 327//392
f 359//391 355//393 356//394 327//392
f 340//369 362//395 349//375 324//370
f 366//396 365//397 364//398 363//399
f 337//365 338//364 365//397 366//396
f 47//49 46//48 337//365 366//396
f 363//399 48//50 47//49 366//396
f 363//399 364//398 285//51 48//50
f 364//398 367//400 286//52 285//51
f 370//401 369//402 368//403 367//400
f 364//398 365//397 370//401 367//400
f 368//403 287//57 286//52 367//400
f 368//403 371//404 53//58 287//57
f 373//405 372//406 288//61 55//60
f 53//58 371//404 373//405 55//60
f 375//407 374//408 372//406 373//405
f 371//404 376//409 375//407 373//405
f 378//410 377//411 375//407 376//409
f 369//402 379//412 378//410 376//409
f 371//404 368//403 369//402 376//409
f 381//413 380//414 378//410 379//412
f 339//366 334//362 381//413 379//412
f 369//402 370//401 339//366 379//412
f 383//415 382//416 380//414 381//413
f 334//362 335//361 383//415 381//413
f 69//75 68//74 382//416 383//415
f 335//361 70//76 69//75 383//415
f 335//361 336//360 71//77 70//76
f 336//360 337//365 46//48 71//78
f 385//417 384//418 72//80 73//79
f 288//61 372//406 385//417 73//79
f 387//419 386//420 384//418 385//417
f 372//406 374//408 387//419 385//417
f 389//421 388//422 386//420 387//419
f 374//408 390//423 389//421 387//419
f 392//424 391//425 389//426 390//427
f 377//411 393//428 392//424 390//427
f 374//408 375//407 377//411 390//423
f 395//429 394//430 392//424 393//428
f 380//414 382//416 395//429 393//428
f 377//411 378//410 380//414 393//428
f 290//96 289//95 394//430 395//429
f 382//416 68//74 290//96 395//429
f 397//431 396//432 291//98 86//97
f 72//80 384//418 397//431 86//97
f 399//433 398//434 396//432 397//431
f 384//418 386//420 399//433 397//431
f 401//435 400//436 398//434 399//433
f 386//420 388//422 401//435 399//433
f 403//437 402//438 400//439 401//440
f 388//441 404//442 403//437 401//440
f 406//443 405//444 403//437 404//442
f 391//425 407//445 406//443 404//442
f 388//441 389//426 391//425 404//442
f 292//115 99//114 406//443 407//445
f 394//430 289//95 292//115 407//445
f 391//425 392//424 394//430 407//445
f 293//116 405//444 406//443 99//114
f 409//446 408//447 294//118 295//117
f 291//98 396//432 409//446 295//117
f 410//448 348//376 408//447 409//446
f 396//432 398//434 410//448 409//446
f 411//449 347//377 348//376 410//448
f 398//434 400//436 411//449 410//448
f 412//450 350//378 347//377 411//451
f 400//439 402//438 412//450 411//451
f 414//452 413//453 350//378 412//450
f 402//438 415//454 414//452 412//450
f 100//129 109//128 414//452 415//454
f 405//444 293//116 100//129 415//454
f 402//438 403//437 405//444 415//454
f 296//130 413//453 414//452 109//128
f 417//455 416//456 297//132 113//131
f 114//136 418//457 417//455 113//131
f 341//368 342//367 417//455 418//457
f 420//458 419//459 341//368 418//457
f 114//136 120//139 420//458 418//457
f 122//141 421//460 420//458 120//139
f 423//461 422//462 124//143 125//142
f 294//118 408//447 423//461 125//142
f 349//375 362//395 422//462 423//461
f 408//447 348//376 349//375 423//461
f 424//463 123//146 124//143 422//462
f 362//395 425//464 424//463 422//462
f 427//465 426//466 424//463 425//464
f 429//467 428//468 427//465 425//464
f 362//395 340//369 429//467 425//464
f 419//459 430//469 428//470 429//467
f 340//369 341//368 419//459 429//467
f 432//471 431//472 428//470 430//469
f 421//460 433//473 432//471 430//469
f 419//459 420//458 421//460 430//469
f 435//474 434//475 432//471 433//473
f 141//161 140//160 435//474 433//473
f 421//460 122//141 141//161 433//473
f 426//466 436//476 143//163 144//162
f 123//146 424//463 426//466 144//162
f 437//477 142//165 143//163 436//476
f 439//478 438//479 437//477 436//476
f 426//466 427//465 439//478 436//476
f 431//480 440//481 438//479 439//478
f 427//465 428//468 431//480 439//478
f 442//482 441//483 438//479 440//481
f 434//475 443//484 442//485 440//486
f 431//472 432//471 434//475 440//486
f 445//487 444//488 442//485 443//484
f 447//489 446//490 445//487 443//484
f 434//475 435//474 447//489 443//484
f 158//181 157//180 446//490 447//489
f 435//474 140//160 158//181 447//489
f 449//491 448//492 159//183 160//182
f 142//165 437//477 449//491 160//182
f 441//483 450//493 448//492 449//491
f 437//477 438//479 441//483 449//491
f 452//494 451//495 448//492 450//493
f 444//496 453//497 452//497 450//493
f 441//483 442//482 444//496 450//493
f 455//498 454//499 452//497 453//497
f 457//500 456//501 455//502 453//503
f 444//488 445//487 457//500 453//503
f 459//504 458//505 456//501 457//500
f 445//487 446//490 459//504 457//500
f 173//200 298//199 458//505 459//504
f 446//490 157//180 173//200 459//504
f 451//495 460//506 299//202 300//201
f 159//183 448//492 451//495 300//201
f 461//507 301//204 299//202 460//506
f 454//499 462//508 461//507 460//506
f 451//495 452//494 454//499 460//506
f 464//509 463//510 461//507 462//508
f 466//511 465//512 464//509 462//508
f 454//499 455//498 466//511 462//508
f 468//513 467//514 465//515 466//516
f 455//502 456//501 468//513 466//516
f 470//517 469//518 467//514 468//513
f 456//501 458//505 470//517 468//513
f 186//218 185//217 469//518 470//517
f 458//505 298//199 186//218 470//517
f 463//510 471//519 188//220 187//219
f 301//204 461//507 463//510 187//219
f 473//520 472//521 302//223 190//222
f 191//227 474//522 473//520 190//222
f 476//523 475//524 473//520 474//522
f 353//381 351//379 476//523 474//522
f 191//227 197//230 353//381 474//522
f 198//231 352//382 353//381 197//230
f 303//233 332//357 352//382 198//232
f 199//234 331//358 332//357 303//233
f 304//235 333//359 331//358 199//234
f 305//237 477//525 333//359 304//235
f 305//237 202//239 478//526 477//525
f 479//527 330//353 333//359 477//525
f 478//526 480//528 479//527 477//525
f 478//526 482//529 481//530 480//528
f 484//531 483//532 479//527 480//528
f 481//530 485//533 484//531 480//528
f 481//530 487//534 486//535 485//533
f 488//536 475//524 484//531 485//533
f 486//535 489//537 488//536 485//533
f 486//535 491//538 490//539 489//537
f 492//540 472//521 488//536 489//537
f 490//539 493//541 492//540 489//537
f 490//539 495//542 494//543 493//541
f 307//258 306//257 492//540 493//541
f 494//543 308//259 307//258 493//541
f 494//543 496//544 220//260 308//259
f 497//545 467//514 469//518 496//544
f 494//543 495//542 497//545 496//544
f 469//518 185//217 220//260 496//544
f 498//546 465//515 467//514 497//545
f 495//542 499//547 498//546 497//545
f 501//548 500//549 498//550 499//551
f 491//538 502//552 501//548 499//551
f 495//542 490//539 491//538 499//547
f 504//553 503//554 501//548 502//552
f 487//534 505//555 504//553 502//552
f 491//538 486//535 487//534 502//552
f 310//274 309//273 504//553 505//555
f 482//529 231//275 310//274 505//555
f 487//534 481//530 482//529 505//555
f 482//529 478//526 202//239 231//275
f 311//276 503//554 504//553 309//273
f 311//276 188//220 471//519 503//554
f 471//519 500//549 501//548 503//554
f 471//519 463//510 464//509 500//549
f 464//509 465//512 498//550 500//549
f 306//257 302//223 472//521 492//540
f 472//521 473//520 475//524 488//536
f 475//524 476//523 483//532 484//531
f 329//354 330//353 479//527 483//532
f 476//523 351//379 329//354 483//532
f 342//367 343//372 416//456 417//455
f 343//372 507//556 506//557 416//456
f 506//557 312//279 297//132 416//456
f 510//558 509//559 508//560 507//556
f 343//372 344//371 510//558 507//556
f 508//560 511//561 506//557 507//556
f 508//560 513//562 512//563 511//561
f 313//286 312//279 506//557 511//561
f 512//563 240//287 313//286 511//561
f 512//563 514//564 241//288 240//287
f 516//565 515//566 244//291 243//290
f 241//288 514//564 516//565 243//290
f 518//567 517//568 515//566 516//565
f 514//564 519//569 518//567 516//565
f 521//570 520//571 518//567 519//569
f 513//562 522//572 521//570 519//569
f 514//564 512//563 513//562 519//569
f 524//573 523//574 521//575 522//576
f 509//577 525//578 524//573 522//576
f 513//562 508//560 509//559 522//572
f 527//579 526//580 524//573 525//578
f 529//581 528//582 527//579 525//578
f 509//577 510//583 529//581 525//578
f 345//374 530//584 528//582 529//581
f 510//583 344//371 345//374 529//581
f 111//313 112//312 528//582 530//584
f 531//585 110//314 111//313 530//584
f 345//374 346//373 531//585 530//584
f 413//453 296//130 110//314 531//585
f 346//373 350//378 413//453 531//585
f 112//312 262//316 527//579 528//582
f 314//317 526//580 527//579 262//316
f 533//586 532//587 315//319 316//318
f 244//291 515//566 533//586 316//318
f 535//588 534//589 532//587 533//586
f 515//566 517//568 535//588 533//586
f 537//590 536//591 534//589 535//588
f 517//568 538//592 537//590 535//588
f 540//593 539//594 537//595 538//596
f 520//597 541//598 540//593 538//596
f 517//568 518//567 520//571 538//592
f 543//599 542//600 540//593 541//598
f 523//574 544//601 543//599 541//598
f 520//597 521//575 523//574 541//598
f 263//337 277//336 543//599 544//601
f 526//580 314//317 263//337 544//601
f 523//574 524//573 526//580 544//601
f 317//338 542//600 543//599 277//336
f 360//390 545//602 318//340 319//339
f 279//342 359//391 360//390 319//339
f 280//343 355//393 359//391 279//342
f 281//344 354//384 355//384 280//344
f 320//346 358//386 354//385 281//345
f 315//319 532//587 358//386 320//346
f 546//603 321//347 318//340 545//602
f 547//604 539//594 546//603 545//602
f 360//390 361//389 547//604 545//602
f 536//605 537//595 539//594 547//604
f 361//389 548//606 536//605 547//604
f 361//389 327//392 356//394 548//606
f 357//387 534//589 536//591 548//607
f 356//383 326//383 357//387 548//607
f 542//600 317//338 321//347 546//603
f 539//594 540//593 542//600 546//603
f 357//387 358//386 532//587 534//589
f 365//397 338//364 339//366 370//401
