# pilowlava3D glyph 'g' variant 1 — Vincent Wagner / Velvetyne, Free Art License
v 3.97781 0.22722 -0.41095
v 3.64013 3.10911 -0.40531
v 3.47834 0.37963 -0.42307
v 0.97130 2.98359 -0.63119
v 1.70341 2.81269 -0.24468
v 3.97375 3.39745 -0.40757
v 3.70827 0.25981 -0.44880
v 3.78685 0.47031 -0.53913
v 4.08105 0.39259 -0.45031
v 4.03176 0.10171 -0.25997
v 3.64748 0.06377 -0.27396
v 4.25581 0.33472 -0.25709
v 3.63308 2.99013 -0.25467
v 3.36134 3.10459 -0.25699
v 3.48789 3.22737 -0.44617
v 3.83293 3.22542 -0.43689
v 3.94862 3.08627 -0.25875
v 3.68886 3.40184 -0.51940
v 3.33477 0.30230 -0.28414
v 3.30269 0.62743 -0.26678
v 3.50483 0.57381 -0.45458
v 0.92468 3.32150 -0.59188
v 1.15676 3.33206 -0.50271
v 1.27011 3.09328 -0.52962
v 0.79325 2.73284 -0.64233
v 0.46877 2.88343 -0.55466
v 0.56156 3.12392 -0.55362
v 0.63091 3.38309 -0.50628
v 1.25018 2.66306 -0.53086
v 1.04781 2.51186 -0.53284
v 1.47000 2.83500 -0.48173
v 1.76151 2.81065 -0.00000
v 1.66343 3.05389 -0.00000
v 1.69102 2.54960 -0.00000
v 1.61908 2.63344 -0.30462
v 1.60561 2.99832 -0.29508
v 3.88779 3.57288 -0.43786
v 4.03761 3.67784 -0.25279
v 4.11489 3.37918 -0.26727
v 3.63409 2.93278 -0.00000
v 3.20927 3.31046 -0.24272
v 3.06404 3.49472 -0.23592
v 3.18369 3.60045 -0.43901
v 3.33834 3.42547 -0.44680
v 2.85489 3.63011 -0.00000
v 2.90503 3.66970 -0.23104
v 2.70673 3.81274 -0.00000
v 2.56395 3.99112 -0.00000
v 2.58312 4.02076 -0.19371
v 2.74168 3.84895 -0.21934
v 2.62795 4.10694 -0.36076
v 2.81931 3.94087 -0.39769
v 3.00431 3.76683 -0.42239
v 2.91900 4.07434 -0.45906
v 3.14073 3.93068 -0.49473
v 3.35332 3.77789 -0.51837
v 3.26022 4.10737 -0.42185
v 3.50603 3.97080 -0.44331
v 3.72378 3.78509 -0.45250
v 3.53458 3.59732 -0.52842
v 3.60796 4.11159 -0.24909
v 3.85505 3.92261 -0.25684
v 3.64735 4.16754 -0.00000
v 3.90387 3.97071 -0.00000
v 2.39297 4.14574 -0.00000
v 2.17477 4.25416 -0.12707
v 2.39648 4.16461 -0.15738
v 2.17391 4.29747 -0.25321
v 2.40936 4.22840 -0.30501
v 2.18025 4.37571 -0.32054
v 2.43520 4.31472 -0.37013
v 2.68205 4.21178 -0.41748
v 2.47100 4.40400 -0.31845
v 2.74064 4.32108 -0.36349
v 3.00655 4.22079 -0.39835
v 2.78880 4.41371 -0.20171
v 3.06689 4.34041 -0.22185
v 3.33548 4.23783 -0.23339
v 3.36580 4.29808 -0.00000
v 2.51434 4.49208 -0.00000
v 1.69253 4.23681 -0.00000
v 1.93290 4.27459 -0.00000
v 1.69134 4.24136 -0.11547
v 1.93222 4.27920 -0.11345
v 1.68458 4.27185 -0.22948
v 1.92805 4.31221 -0.22514
v 1.66624 4.34079 -0.29577
v 1.92115 4.38474 -0.28989
v 1.63989 4.41530 -0.24245
v 1.91739 4.46112 -0.23821
v 2.19707 4.45553 -0.26930
v 1.91863 4.49348 -0.12194
v 2.21236 4.49764 -0.13939
v 2.50169 4.46770 -0.17110
v 1.61976 4.45964 -0.00000
v 1.35490 3.95315 -0.00000
v 1.48649 4.12380 -0.00000
v 1.34351 3.96644 -0.16903
v 1.48448 4.13244 -0.13479
v 1.28291 4.02274 -0.31520
v 1.46272 4.17457 -0.26236
v 1.20353 4.09381 -0.38094
v 1.42310 4.24553 -0.33190
v 1.11961 4.16045 -0.33870
v 1.37206 4.31868 -0.28242
v 1.04739 4.20848 -0.18403
v 1.33112 4.35949 -0.14697
v 1.62374 4.45141 -0.12586
v 1.31794 4.36935 -0.00000
v 1.30879 3.76311 -0.00000
v 1.27769 3.57375 -0.24298
v 1.27850 3.77436 -0.20587
v 1.13069 3.58347 -0.43482
v 1.17382 3.81955 -0.37522
v 0.93987 3.61106 -0.50597
v 1.03516 3.87302 -0.43725
v 0.73913 3.66593 -0.44298
v 0.90334 3.93231 -0.38867
v 0.58804 3.73843 -0.25409
v 0.79530 3.99226 -0.22360
v 0.52407 3.78522 -0.00000
v 0.33990 3.52382 -0.00000
v 0.42329 3.47232 -0.28184
v 0.30746 3.21417 -0.30751
v 0.20426 3.25509 -0.00000
v 0.11555 2.98342 -0.00000
v 0.22588 2.95429 -0.30686
v 0.15509 2.69197 -0.29455
v 0.05354 2.71120 -0.00000
v 0.37172 2.62880 -0.52601
v 0.28352 2.36865 -0.48758
v 0.10413 2.42220 -0.27563
v 0.63927 2.50444 -0.61285
v 0.49899 2.26793 -0.56418
v 0.37521 2.02346 -0.50531
v 0.20821 2.09699 -0.43860
v 0.86801 2.33601 -0.51925
v 0.69603 2.14464 -0.48115
v 0.53239 1.94564 -0.43794
v 0.39115 1.73431 -0.37473
v 0.27357 1.77464 -0.43752
v 0.83102 2.01865 -0.27224
v 0.65647 1.86571 -0.25021
v 0.49411 1.70124 -0.21196
v 0.38328 1.50814 -0.17463
v 0.31167 1.51009 -0.31676
v 0.70649 1.81161 -0.00000
v 0.53516 1.68026 -0.00000
v 0.36952 1.28964 -0.00000
v 0.35871 1.28668 -0.15374
v 0.43754 1.07932 -0.00000
v 0.58513 0.93177 -0.00000
v 0.57389 0.91938 -0.17187
v 0.42819 1.07486 -0.15407
v 0.53182 0.86926 -0.31761
v 0.38380 1.05071 -0.28968
v 0.30692 1.27525 -0.28596
v 0.31253 1.01198 -0.34239
v 0.23160 1.26041 -0.33706
v 0.21769 1.51865 -0.37394
v 0.14839 1.24594 -0.29792
v 0.12305 1.53250 -0.33194
v 0.15168 1.81675 -0.38375
v 0.05180 1.54694 -0.18788
v 0.05087 1.84929 -0.22193
v 0.07247 2.14216 -0.25287
v 0.00000 1.86187 -0.00000
v 0.00118 2.15149 -0.00000
v 0.01701 2.43198 -0.00000
v 1.19336 2.32039 -0.29457
v 1.40461 2.45781 -0.30182
v 1.01342 2.17091 -0.28782
v 0.94228 0.86134 -0.22413
v 0.75803 0.84903 -0.19712
v 0.94260 0.72016 -0.40826
v 0.72601 0.75445 -0.35888
v 0.93288 0.51875 -0.49097
v 0.67527 0.61342 -0.43041
v 0.46232 0.78956 -0.37672
v 0.61668 0.46998 -0.38183
v 0.39621 0.70995 -0.33915
v 0.23995 0.96958 -0.29978
v 0.34490 0.63901 -0.18773
v 0.19825 0.93751 -0.16473
v 0.09798 1.23919 -0.16388
v 0.02243 1.55269 -0.00000
v 1.26085 1.09402 -0.00000
v 1.29646 1.01549 -0.25175
v 1.11872 0.92505 -0.24407
v 1.36581 0.83854 -0.45673
v 1.16251 0.75867 -0.44289
v 1.45918 0.57938 -0.55588
v 1.20919 0.51208 -0.53810
v 1.55898 0.30856 -0.48037
v 1.23834 0.25478 -0.46368
v 0.90809 0.30696 -0.42983
v 1.25765 0.07101 -0.26544
v 0.88227 0.14605 -0.24965
v 0.56779 0.35976 -0.21924
v 1.65632 0.04488 -0.00000
v 1.63390 1.31249 -0.00000
v 1.44250 1.19867 -0.00000
v 1.67215 1.23533 -0.24822
v 1.47923 1.11954 -0.25119
v 1.75679 1.07798 -0.45616
v 1.55942 0.94696 -0.46283
v 1.89560 0.86490 -0.55461
v 1.68391 0.69947 -0.56237
v 2.05031 0.66629 -0.47414
v 1.83073 0.46138 -0.48108
v 2.16824 0.53083 -0.26290
v 1.93835 0.30000 -0.27206
v 1.63043 0.11639 -0.27969
v 2.40908 0.70503 -0.00000
v 2.04154 1.56498 -0.00000
v 1.83308 1.43506 -0.00000
v 2.07698 1.50346 -0.23669
v 1.87054 1.36544 -0.24353
v 2.16199 1.38461 -0.42971
v 1.95687 1.22899 -0.44678
v 2.29285 1.22768 -0.51411
v 2.09647 1.04662 -0.53818
v 2.43026 1.07142 -0.43591
v 2.24633 0.87122 -0.45556
v 2.53221 0.96650 -0.23995
v 2.35538 0.75509 -0.25030
v 2.58131 0.92157 -0.00000
v 2.70146 1.17451 -0.22917
v 2.86823 1.38067 -0.22133
v 2.90842 1.34305 -0.00000
v 2.61051 1.27063 -0.41794
v 2.78569 1.46941 -0.39872
v 2.96378 1.66276 -0.38306
v 3.03716 1.58234 -0.21207
v 2.48905 1.40591 -0.48973
v 2.68252 1.58338 -0.46169
v 2.87782 1.75765 -0.43546
v 3.07695 1.93435 -0.40869
v 3.14538 1.85367 -0.36121
v 2.58207 1.69734 -0.39876
v 2.79483 1.85354 -0.38348
v 3.00524 2.01493 -0.36179
v 3.21163 2.18221 -0.32683
v 3.27349 2.11039 -0.37862
v 2.72524 1.93385 -0.21375
v 2.94405 2.07904 -0.20119
v 3.16786 2.22830 -0.18389
v 3.40277 2.38125 -0.16664
v 3.43085 2.34470 -0.29508
v 3.68341 2.52304 -0.00000
v 3.68398 2.50857 -0.16329
v 4.02111 2.53338 -0.00000
v 4.27032 2.30245 -0.19994
v 4.00913 2.51584 -0.18089
v 4.20557 2.26962 -0.31558
v 3.98197 2.45714 -0.29975
v 3.69136 2.46308 -0.28269
v 3.95049 2.37369 -0.33702
v 3.70842 2.38433 -0.32761
v 3.47788 2.27439 -0.34514
v 3.72241 2.31270 -0.26827
v 3.51833 2.20535 -0.28768
v 3.33109 2.03599 -0.32558
v 3.54007 2.15576 -0.15661
v 3.36853 1.97671 -0.17932
v 3.20307 1.78118 -0.19935
v 3.38425 1.95251 -0.00000
v 3.22858 1.75239 -0.00000
v 3.06922 1.54849 -0.00000
v 2.50605 1.78850 -0.22220
v 2.28873 1.64429 -0.22905
v 2.37013 1.54105 -0.41384
v 4.32517 1.68846 -0.21683
v 4.33164 1.98198 -0.20573
v 4.23682 1.70708 -0.36986
v 4.26424 1.98538 -0.33376
v 4.12968 1.72805 -0.41726
v 4.17675 1.99089 -0.37451
v 4.12785 2.22792 -0.34852
v 4.08849 1.98960 -0.31865
v 4.05963 2.18371 -0.28199
v 3.92185 2.30079 -0.27096
v 4.01703 2.15422 -0.16329
v 3.90328 2.26007 -0.15363
v 3.72679 2.26852 -0.14721
v 3.54570 2.13691 -0.00000
v 4.00584 2.14621 -0.00000
v 3.99359 1.97976 -0.00000
v 4.31915 1.15422 -0.23936
v 4.31913 1.41826 -0.22888
v 4.18135 1.17313 -0.42680
v 4.20423 1.43988 -0.40196
v 4.00117 1.21075 -0.49816
v 4.06245 1.47035 -0.46054
v 3.81875 1.26343 -0.42801
v 3.92090 1.51018 -0.39937
v 4.02457 1.75129 -0.36750
v 3.80975 1.54626 -0.22640
v 3.92917 1.77088 -0.20987
v 4.01878 1.98131 -0.18319
v 3.88468 1.78285 -0.00000
v 3.62356 1.35770 -0.00000
v 4.32172 0.61371 -0.25336
v 4.32390 0.88769 -0.24622
v 4.14091 0.64066 -0.46636
v 4.16590 0.90284 -0.45223
v 3.86845 0.70196 -0.55583
v 3.93997 0.94744 -0.53331
v 3.60307 0.80168 -0.46401
v 3.71600 1.02315 -0.45011
v 3.42278 0.88838 -0.25779
v 3.56245 1.10150 -0.24674
v 3.68324 1.32121 -0.24024
v 3.22504 0.63192 -0.00000
v 3.26973 0.25726 -0.00000
v 3.62360 0.00161 -0.00000
v 4.04436 0.04325 -0.00000
v 1.33672 3.37927 -0.27859
v 1.44817 3.19914 -0.30099
v 1.51963 3.23960 -0.00000
v 4.09882 3.70681 -0.00000
v 4.17932 3.36636 -0.00000
v 3.98479 3.04241 -0.00000
v 3.31843 3.04856 -0.00000
v 3.14455 3.25516 -0.00000
v 3.00227 3.44617 -0.00000
v 2.17558 4.24551 -0.00000
v 3.08731 4.39434 -0.00000
v 2.80366 4.45501 -0.00000
v 2.21871 4.51198 -0.00000
v 1.91992 4.50323 -0.00000
v 1.02211 4.22581 -0.00000
v 1.32913 3.57543 -0.00000
v 0.75298 4.02625 -0.00000
v 0.40437 1.50832 -0.00000
v 1.26791 2.21609 -0.00000
v 1.47784 2.35633 -0.00000
v 1.07655 2.07824 -0.00000
v 0.88783 1.94306 -0.00000
v 0.93460 0.91851 -0.00000
v 0.76578 0.88271 -0.00000
v 0.18160 0.92590 -0.00000
v 0.08070 1.23729 -0.00000
v 1.09377 0.99886 -0.00000
v 0.87263 0.08979 -0.00000
v 0.55280 0.31963 -0.00000
v 0.32834 0.61435 -0.00000
v 1.26334 0.00000 -0.00000
v 1.98239 0.23330 -0.00000
v 2.21997 0.47231 -0.00000
v 2.74640 1.13432 -0.00000
v 2.92136 2.10639 -0.00000
v 3.14968 2.24704 -0.00000
v 3.39262 2.39482 -0.00000
v 4.29701 2.31273 -0.00000
v 2.47552 1.83254 -0.00000
v 2.25584 1.69758 -0.00000
v 2.69717 1.96888 -0.00000
v 4.36745 1.67992 -0.00000
v 4.36291 1.97976 -0.00000
v 3.89735 2.24974 -0.00000
v 3.72613 2.25619 -0.00000
v 4.38540 1.15060 -0.00000
v 4.37431 1.41057 -0.00000
v 3.75615 1.57120 -0.00000
v 4.39223 0.60379 -0.00000
v 4.39565 0.88644 -0.00000
v 3.49284 1.14487 -0.00000
v 3.35063 0.92611 -0.00000
v 4.30989 0.29742 -0.00000
v 1.40552 3.40156 -0.00000
v 3.97781 0.22722 0.41095
v 3.64013 3.10911 0.40531
v 3.47834 0.37963 0.42307
v 0.97130 2.98359 0.63119
v 1.70341 2.81269 0.24468
v 3.97375 3.39745 0.40757
v 3.70827 0.25981 0.44880
v 3.78685 0.47031 0.53913
v 4.08105 0.39259 0.45031
v 4.03176 0.10171 0.25997
v 3.64748 0.06377 0.27396
v 4.25581 0.33472 0.25709
v 3.63308 2.99013 0.25467
v 3.36134 3.10459 0.25699
v 3.48789 3.22737 0.44617
v 3.83293 3.22542 0.43689
v 3.94862 3.08627 0.25875
v 3.68886 3.40184 0.51940
v 3.33477 0.30230 0.28414
v 3.30269 0.62743 0.26678
v 3.50483 0.57381 0.45458
v 0.92468 3.32150 0.59188
v 1.15676 3.33206 0.50271
v 1.27011 3.09328 0.52962
v 0.79325 2.73284 0.64233
v 0.46877 2.88343 0.55466
v 0.56156 3.12392 0.55362
v 0.63091 3.38309 0.50628
v 1.25018 2.66306 0.53086
v 1.04781 2.51186 0.53284
v 1.47000 2.83500 0.48173
v 1.61908 2.63344 0.30462
v 1.60561 2.99832 0.29508
v 3.88779 3.57288 0.43786
v 4.03761 3.67784 0.25279
v 4.11489 3.37918 0.26727
v 3.20927 3.31046 0.24272
v 3.06404 3.49472 0.23592
v 3.18369 3.60045 0.43901
v 3.33834 3.42547 0.44680
v 2.90503 3.66970 0.23104
v 2.58312 4.02076 0.19371
v 2.74168 3.84895 0.21934
v 2.62795 4.10694 0.36076
v 2.81931 3.94087 0.39769
v 3.00431 3.76683 0.42239
v 2.91900 4.07434 0.45906
v 3.14073 3.93068 0.49473
v 3.35332 3.77789 0.51837
v 3.26022 4.10737 0.42185
v 3.50603 3.97080 0.44331
v 3.72378 3.78509 0.45250
v 3.53458 3.59732 0.52842
v 3.60796 4.11159 0.24909
v 3.85505 3.92261 0.25684
v 2.17477 4.25416 0.12707
v 2.39648 4.16461 0.15738
v 2.17391 4.29747 0.25321
v 2.40936 4.22840 0.30501
v 2.18025 4.37571 0.32054
v 2.43520 4.31472 0.37013
v 2.68205 4.21178 0.41748
v 2.47100 4.40400 0.31845
v 2.74064 4.32108 0.36349
v 3.00655 4.22079 0.39835
v 2.78880 4.41371 0.20171
v 3.06689 4.34041 0.22185
v 3.33548 4.23783 0.23339
v 1.69134 4.24136 0.11547
v 1.93222 4.27920 0.11345
v 1.68458 4.27185 0.22948
v 1.92805 4.31221 0.22514
v 1.66624 4.34079 0.29577
v 1.92115 4.38474 0.28989
v 1.63989 4.41530 0.24245
v 1.91739 4.46112 0.23821
v 2.19707 4.45553 0.26930
v 1.91863 4.49348 0.12194
v 2.21236 4.49764 0.13939
v 2.50169 4.46770 0.17110
v 1.34351 3.96644 0.16903
v 1.48448 4.13244 0.13479
v 1.28291 4.02274 0.31520
v 1.46272 4.17457 0.26236
v 1.20353 4.09381 0.38094
v 1.42310 4.24553 0.33190
v 1.11961 4.16045 0.33870
v 1.37206 4.31868 0.28242
v 1.04739 4.20848 0.18403
v 1.33112 4.35949 0.14697
v 1.62374 4.45141 0.12586
v 1.27769 3.57375 0.24298
v 1.27850 3.77436 0.20587
v 1.13069 3.58347 0.43482
v 1.17382 3.81955 0.37522
v 0.93987 3.61106 0.50597
v 1.03516 3.87302 0.43725
v 0.73913 3.66593 0.44298
v 0.90334 3.93231 0.38867
v 0.58804 3.73843 0.25409
v 0.79530 3.99226 0.22360
v 0.42329 3.47232 0.28184
v 0.30746 3.21417 0.30751
v 0.22588 2.95429 0.30686
v 0.15509 2.69197 0.29455
v 0.37172 2.62880 0.52601
v 0.28352 2.36865 0.48758
v 0.10413 2.42220 0.27563
v 0.63927 2.50444 0.61285
v 0.49899 2.26793 0.56418
v 0.37521 2.02346 0.50531
v 0.20821 2.09699 0.43860
v 0.86801 2.33601 0.51925
v 0.69603 2.14464 0.48115
v 0.53239 1.94564 0.43794
v 0.39115 1.73431 0.37473
v 0.27357 1.77464 0.43752
v 0.83102 2.01865 0.27224
v 0.65647 1.86571 0.25021
v 0.49411 1.70124 0.21196
v 0.38328 1.50814 0.17463
v 0.31167 1.51009 0.31676
v 0.35871 1.28668 0.15374
v 0.57389 0.91938 0.17187
v 0.42819 1.07486 0.15407
v 0.53182 0.86926 0.31761
v 0.38380 1.05071 0.28968
v 0.30692 1.27525 0.28596
v 0.31253 1.01198 0.34239
v 0.23160 1.26041 0.33706
v 0.21769 1.51865 0.37394
v 0.14839 1.24594 0.29792
v 0.12305 1.53250 0.33194
v 0.15168 1.81675 0.38375
v 0.05180 1.54694 0.18788
v 0.05087 1.84929 0.22193
v 0.07247 2.14216 0.25287
v 1.19336 2.32039 0.29457
v 1.40461 2.45781 0.30182
v 1.01342 2.17091 0.28782
v 0.94228 0.86134 0.22413
v 0.75803 0.84903 0.19712
v 0.94260 0.72016 0.40826
v 0.72601 0.75445 0.35888
v 0.93288 0.51875 0.49097
v 0.67527 0.61342 0.43041
v 0.46232 0.78956 0.37672
v 0.61668 0.46998 0.38183
v 0.39621 0.70995 0.33915
v 0.23995 0.96958 0.29978
v 0.34490 0.63901 0.18773
v 0.19825 0.93751 0.16473
v 0.09798 1.23919 0.16388
v 1.29646 1.01549 0.25175
v 1.11872 0.92505 0.24407
v 1.36581 0.83854 0.45673
v 1.16251 0.75867 0.44289
v 1.45918 0.57938 0.55588
v 1.20919 0.51208 0.53810
v 1.55898 0.30856 0.48037
v 1.23834 0.25478 0.46368
v 0.90809 0.30696 0.42983
v 1.25765 0.07101 0.26544
v 0.88227 0.14605 0.24965
v 0.56779 0.35976 0.21924
v 1.67215 1.23533 0.24822
v 1.47923 1.11954 0.25119
v 1.75679 1.07798 0.45616
v 1.55942 0.94696 0.46283
v 1.89560 0.86490 0.55461
v 1.68391 0.69947 0.56237
v 2.05031 0.66629 0.47414
v 1.83073 0.46138 0.48108
v 2.16824 0.53083 0.26290
v 1.93835 0.30000 0.27206
v 1.63043 0.11639 0.27969
v 2.07698 1.50346 0.23669
v 1.87054 1.36544 0.24353
v 2.16199 1.38461 0.42971
v 1.95687 1.22899 0.44678
v 2.29285 1.22768 0.51411
v 2.09647 1.04662 0.53818
v 2.43026 1.07142 0.43591
v 2.24633 0.87122 0.45556
v 2.53221 0.96650 0.23995
v 2.35538 0.75509 0.25030
v 2.70146 1.17451 0.22917
v 2.86823 1.38067 0.22133
v 2.61051 1.27063 0.41794
v 2.78569 1.46941 0.39872
v 2.96378 1.66276 0.38306
v 3.03716 1.58234 0.21207
v 2.48905 1.40591 0.48973
v 2.68252 1.58338 0.46169
v 2.87782 1.75765 0.43546
v 3.07695 1.93435 0.40869
v 3.14538 1.85367 0.36121
v 2.58207 1.69734 0.39876
v 2.79483 1.85354 0.38348
v 3.00524 2.01493 0.36179
v 3.21163 2.18221 0.32683
v 3.27349 2.11039 0.37862
v 2.72524 1.93385 0.21375
v 2.94405 2.07904 0.20119
v 3.16786 2.22830 0.18389
v 3.40277 2.38125 0.16664
v 3.43085 2.34470 0.29508
v 3.68398 2.50857 0.16329
v 4.27032 2.30245 0.19994
v 4.00913 2.51584 0.18089
v 4.20557 2.26962 0.31558
v 3.98197 2.45714 0.29975
v 3.69136 2.46308 0.28269
v 3.95049 2.37369 0.33702
v 3.70842 2.38433 0.32761
v 3.47788 2.27439 0.34514
v 3.72241 2.31270 0.26827
v 3.51833 2.20535 0.28768
v 3.33109 2.03599 0.32558
v 3.54007 2.15576 0.15661
v 3.36853 1.97671 0.17932
v 3.20307 1.78118 0.19935
v 2.50605 1.78850 0.22220
v 2.28873 1.64429 0.22905
v 2.37013 1.54105 0.41384
v 4.32517 1.68846 0.21683
v 4.33164 1.98198 0.20573
v 4.23682 1.70708 0.36986
v 4.26424 1.98538 0.33376
v 4.12968 1.72805 0.41726
v 4.17675 1.99089 0.37451
v 4.12785 2.22792 0.34852
v 4.08849 1.98960 0.31865
v 4.05963 2.18371 0.28199
v 3.92185 2.30079 0.27096
v 4.01703 2.15422 0.16329
v 3.90328 2.26007 0.15363
v 3.72679 2.26852 0.14721
v 4.31915 1.15422 0.23936
v 4.31913 1.41826 0.22888
v 4.18135 1.17313 0.42680
v 4.20423 1.43988 0.40196
v 4.00117 1.21075 0.49816
v 4.06245 1.47035 0.46054
v 3.81875 1.26343 0.42801
v 3.92090 1.51018 0.39937
v 4.02457 1.75129 0.36750
v 3.80975 1.54626 0.22640
v 3.92917 1.77088 0.20987
v 4.01878 1.98131 0.18319
v 4.32172 0.61371 0.25336
v 4.32390 0.88769 0.24622
v 4.14091 0.64066 0.46636
v 4.16590 0.90284 0.45223
v 3.86845 0.70196 0.55583
v 3.93997 0.94744 0.53331
v 3.60307 0.80168 0.46401
v 3.71600 1.02315 0.45011
v 3.42278 0.88838 0.25779
v 3.56245 1.10150 0.24674
v 3.68324 1.32121 0.24024
v 1.33672 3.37927 0.27859
v 1.44817 3.19914 0.30099
vn 0.25709 -0.56143 -0.78657
vn -0.12825 -0.48606 -0.86447
vn -0.04364 -0.16792 -0.98483
vn 0.44101 -0.31932 -0.83878
vn 0.38089 -0.79011 -0.48026
vn -0.22305 -0.82961 -0.51185
vn 0.76983 -0.43081 -0.47092
vn -0.01422 -0.63413 -0.77309
vn -0.03562 -0.88899 -0.45653
vn -0.54341 -0.69261 -0.47435
vn -0.30340 -0.44685 -0.84159
vn 0.33804 -0.40509 -0.84949
vn 0.55122 -0.68904 -0.47052
vn 0.10670 -0.11832 -0.98723
vn -0.47008 -0.27313 -0.83930
vn -0.73007 -0.41030 -0.54649
vn -0.83768 0.14540 -0.52646
vn -0.48970 0.03087 -0.87134
vn 0.08602 0.06095 -0.99443
vn 0.06527 0.23904 -0.96881
vn 0.52498 0.30359 -0.79513
vn 0.47248 0.26262 -0.84131
vn -0.01466 -0.07769 -0.99687
vn -0.46448 0.13868 -0.87466
vn -0.42301 0.21478 -0.88030
vn -0.41938 0.30652 -0.85449
vn 0.33924 -0.31066 -0.88792
vn 0.31925 -0.40021 -0.85902
vn 0.52816 -0.00543 -0.84913
vn 0.89542 0.04646 -0.44280
vn 0.99879 0.04900 0.00388
vn 0.83582 -0.54900 0.00293
vn 0.71668 -0.38377 -0.58231
vn 0.77364 0.37380 -0.51162
vn 0.86188 0.50712 0.00108
vn 0.58362 -0.07695 -0.80838
vn 0.48988 0.18801 -0.85128
vn 0.78609 0.37911 -0.48820
vn 0.85753 -0.11572 -0.50124
vn 0.90386 0.42783 0.00060
vn 0.96931 0.24584 0.00119
vn 0.86214 -0.50666 -0.00070
vn 0.29367 -0.95591 -0.00034
vn -0.03708 -0.99931 -0.00110
vn -0.59744 -0.80192 -0.00140
vn -0.79355 -0.60850 -0.00051
vn -0.69533 -0.52845 -0.48708
vn -0.67990 -0.56296 -0.46991
vn -0.44210 -0.36588 -0.81895
vn -0.43621 -0.33519 -0.83509
vn -0.77989 -0.62592 -0.00004
vn -0.76237 -0.64714 0.00016
vn -0.67790 -0.59312 -0.43435
vn -0.76379 -0.64546 -0.00003
vn -0.70964 -0.70457 0.00012
vn -0.66134 -0.67493 -0.32726
vn -0.69685 -0.60251 -0.38907
vn -0.50261 -0.49856 -0.70627
vn -0.49219 -0.40618 -0.76991
vn -0.45681 -0.38632 -0.80130
vn -0.13517 0.07911 -0.98766
vn -0.09910 0.06913 -0.99267
vn -0.06113 0.04229 -0.99723
vn 0.19419 0.54556 -0.81526
vn 0.26559 0.47373 -0.83967
vn 0.37694 0.35621 -0.85500
vn -0.00889 0.00141 -0.99996
vn 0.44820 0.75562 -0.47766
vn 0.62221 0.60872 -0.49225
vn 0.51299 0.85839 -0.00002
vn 0.71196 0.70222 0.00003
vn -0.53070 -0.84756 0.00027
vn -0.25946 -0.96575 -0.00006
vn -0.24828 -0.94741 -0.20191
vn -0.50271 -0.82517 -0.25766
vn -0.23241 -0.79103 -0.56591
vn -0.42151 -0.65793 -0.62406
vn -0.21396 -0.61087 -0.76227
vn -0.34516 -0.47699 -0.80830
vn -0.35837 -0.31783 -0.87781
vn 0.02880 0.43021 -0.90227
vn -0.01804 0.49996 -0.86586
vn 0.05157 0.73593 -0.67509
vn 0.10502 0.66183 -0.74226
vn 0.15171 0.59478 -0.78944
vn 0.17961 0.91261 -0.36726
vn 0.25665 0.86801 -0.42507
vn 0.33226 0.82583 -0.45563
vn 0.28054 0.95984 -0.00009
vn 0.37554 0.92681 -0.00014
vn 0.02177 -0.99976 -0.00000
vn 0.31990 -0.94745 0.00001
vn 0.31344 -0.93406 -0.17113
vn 0.02432 -0.98514 -0.17004
vn 0.28123 -0.79386 -0.53917
vn 0.01623 -0.84176 -0.53961
vn 0.23915 -0.62268 -0.74503
vn 0.00454 -0.66342 -0.74823
vn -0.07919 0.55597 -0.82742
vn -0.07855 0.54998 -0.83147
vn -0.14990 0.78177 -0.60529
vn -0.08566 0.80137 -0.59201
vn -0.01664 0.78715 -0.61654
vn -0.06273 0.54189 -0.83810
vn -0.08304 0.97909 -0.18570
vn 0.02899 0.97546 -0.21828
vn 0.11484 0.95059 -0.28842
vn 0.02679 0.99964 -0.00000
vn 0.11225 0.99368 -0.00012
vn 0.18519 0.98270 -0.00011
vn -0.08340 0.99652 0.00006
vn 0.64092 -0.76761 0.00014
vn 0.89012 -0.45573 -0.00030
vn 0.84737 -0.44538 -0.28914
vn 0.61840 -0.75550 -0.21635
vn 0.65434 -0.33210 -0.67937
vn 0.51823 -0.62089 -0.58816
vn 0.48703 -0.22196 -0.84471
vn 0.42086 -0.47430 -0.77325
vn -0.09660 0.50578 -0.85724
vn -0.14370 0.41767 -0.89716
vn -0.32384 0.61458 -0.71932
vn -0.22923 0.72458 -0.64995
vn -0.50457 0.80330 -0.31641
vn -0.35581 0.90354 -0.23876
vn -0.21214 0.95741 -0.19585
vn -0.36984 0.92909 0.00001
vn -0.21684 0.97621 0.00007
vn -0.53281 0.84624 -0.00001
vn 0.99480 -0.10181 0.00018
vn 0.97573 0.21895 0.00120
vn 0.89330 0.19719 -0.40389
vn 0.93031 -0.10090 -0.35261
vn 0.60541 0.18787 -0.77342
vn 0.66447 -0.03618 -0.74643
vn 0.08989 0.26056 -0.96126
vn 0.13582 0.19646 -0.97106
vn -0.41668 0.39669 -0.81793
vn -0.39115 0.48793 -0.78033
vn -0.69034 0.54013 -0.48134
vn -0.62333 0.66635 -0.40919
vn -0.78546 0.61891 -0.00000
vn -0.68014 0.73309 0.00012
vn -0.73143 0.43342 -0.52645
vn -0.86286 0.50544 0.00001
vn -0.77229 0.32278 -0.54716
vn -0.92673 0.37574 0.00004
vn -0.80727 0.23104 -0.54308
vn -0.96310 0.26914 -0.00013
vn -0.83674 0.16421 -0.52240
vn -0.98181 0.18989 -0.00016
vn -0.52117 0.07609 -0.85005
vn -0.56980 0.03013 -0.82123
vn -0.86736 0.09949 -0.48763
vn -0.06220 -0.14672 -0.98722
vn -0.08621 -0.18995 -0.97800
vn -0.08686 -0.23122 -0.96902
vn -0.61997 -0.01085 -0.78455
vn 0.32910 -0.43736 -0.83691
vn 0.34221 -0.47121 -0.81293
vn 0.39324 -0.50044 -0.77131
vn 0.51825 -0.46262 -0.71931
vn 0.33793 -0.35818 -0.87035
vn 0.53624 -0.68117 -0.49845
vn 0.57853 -0.68663 -0.44026
vn 0.70728 -0.60539 -0.36504
vn 0.89930 -0.32463 -0.29306
vn 0.68958 -0.26021 -0.67585
vn 0.62914 -0.77729 -0.00115
vn 0.74344 -0.66880 -0.00025
vn 0.93307 -0.35969 0.00060
vn 0.99610 0.08825 -0.00006
vn 0.96622 0.09568 -0.23931
vn 0.85582 0.51728 0.00010
vn 0.52531 0.85091 -0.00050
vn 0.52297 0.80758 -0.27261
vn 0.83346 0.50357 -0.22750
vn 0.39158 0.61665 -0.68294
vn 0.64873 0.40685 -0.64314
vn 0.76005 0.07450 -0.64558
vn 0.44068 0.29502 -0.84780
vn 0.53759 0.04221 -0.84215
vn 0.48084 -0.21947 -0.84890
vn -0.41834 -0.13606 -0.89804
vn -0.41666 -0.13653 -0.89875
vn -0.69503 -0.11980 -0.70893
vn -0.66461 -0.05569 -0.74512
vn -0.42067 -0.10629 -0.90097
vn -0.94822 -0.10058 -0.30126
vn -0.92644 -0.00689 -0.37638
vn -0.89695 0.04828 -0.43949
vn -0.99993 -0.01188 0.00002
vn -0.99882 0.04865 0.00012
vn -0.99402 0.10920 -0.00011
vn 0.55571 -0.74116 -0.37666
vn 0.53187 -0.75372 -0.38603
vn 0.48655 -0.66928 -0.56155
vn 0.49936 -0.64155 -0.58229
vn 0.52037 -0.66547 -0.53513
vn 0.56308 -0.74234 -0.36314
vn 0.60708 -0.79464 -0.00013
vn 0.07808 0.99695 0.00029
vn -0.28269 0.95921 0.00037
vn -0.22937 0.87676 -0.42271
vn 0.10437 0.93049 -0.35114
vn -0.16112 0.61066 -0.77533
vn 0.07276 0.67292 -0.73613
vn -0.18929 0.07744 -0.97886
vn -0.16656 0.13973 -0.97608
vn 0.23960 0.42924 -0.87083
vn -0.38413 -0.13940 -0.91269
vn -0.47537 -0.40121 -0.78298
vn -0.60537 -0.31893 -0.72926
vn -0.41800 -0.12521 -0.89978
vn -0.85776 -0.34992 -0.37656
vn -0.81229 -0.49657 -0.30594
vn -0.89779 -0.36257 -0.25002
vn -0.94081 -0.23248 -0.24663
vn -0.90191 -0.22160 -0.37075
vn -0.92852 -0.37129 0.00010
vn -0.97040 -0.24152 0.00019
vn -0.99396 -0.10971 0.00002
vn -0.44492 0.89557 -0.00039
vn -0.48824 0.87271 0.00012
vn -0.41776 0.75684 -0.50265
vn -0.37384 0.79546 -0.47695
vn -0.27457 0.49261 -0.82580
vn -0.24725 0.53304 -0.80916
vn -0.06241 0.02283 -0.99779
vn -0.13066 0.03047 -0.99096
vn 0.14543 -0.48346 -0.86320
vn -0.06719 -0.51960 -0.85176
vn -0.28682 -0.48564 -0.82577
vn -0.05368 -0.87433 -0.48234
vn -0.37411 -0.81371 -0.44487
vn -0.64895 -0.65958 -0.37922
vn -0.40613 -0.91381 -0.00009
vn -0.69413 -0.71984 0.00000
vn -0.85284 -0.52218 0.00001
vn -0.05257 -0.99862 -0.00012
vn -0.50376 0.86384 -0.00000
vn -0.52228 0.85277 0.00003
vn -0.46022 0.73803 -0.49347
vn -0.43717 0.74396 -0.50537
vn -0.30916 0.48828 -0.81609
vn -0.29131 0.48201 -0.82632
vn 0.02711 0.05473 -0.99813
vn -0.01061 0.03596 -0.99930
vn 0.42095 -0.36995 -0.82821
vn 0.31993 -0.41565 -0.85140
vn 0.65609 -0.58850 -0.47246
vn 0.53644 -0.68552 -0.49224
vn 0.27245 -0.82093 -0.50185
vn 0.61526 -0.78832 0.00012
vn 0.31714 -0.94838 0.00017
vn 0.74472 -0.66738 -0.00003
vn -0.53618 0.84411 0.00000
vn -0.53762 0.84319 -0.00000
vn -0.48485 0.74918 -0.45127
vn -0.47905 0.73906 -0.47361
vn -0.32493 0.52027 -0.78977
vn -0.32186 0.50238 -0.80251
vn -0.18779 0.33727 -0.92249
vn -0.19032 0.32093 -0.92778
vn 0.28544 -0.19277 -0.93881
vn 0.30488 -0.19856 -0.93146
vn 0.48649 -0.36526 -0.79367
vn 0.46712 -0.35910 -0.80799
vn 0.70320 -0.56082 -0.43702
vn 0.69204 -0.56116 -0.45406
vn 0.78230 -0.62291 -0.00000
vn 0.77711 -0.62937 -0.00000
vn 0.71279 -0.56150 -0.42029
vn 0.78618 -0.61800 0.00001
vn 0.71498 -0.57157 -0.40262
vn 0.78290 -0.62215 0.00004
vn 0.50101 -0.37125 -0.78177
vn 0.50712 -0.38308 -0.77206
vn 0.51531 -0.39942 -0.75824
vn 0.71941 -0.58359 -0.37667
vn 0.31812 -0.20442 -0.92575
vn 0.32352 -0.21203 -0.92216
vn 0.32812 -0.22307 -0.91792
vn 0.36497 -0.24138 -0.89918
vn 0.54574 -0.42008 -0.72505
vn -0.18374 0.34872 -0.91904
vn -0.18575 0.34492 -0.92007
vn -0.33565 0.54311 -0.76965
vn -0.34258 0.55697 -0.75659
vn -0.35772 0.58784 -0.72559
vn -0.19258 0.37940 -0.90497
vn -0.37526 0.63173 -0.67830
vn -0.20952 0.42928 -0.87853
vn -0.50367 0.78137 -0.36847
vn -0.51318 0.79405 -0.32577
vn -0.51894 0.80990 -0.27342
vn -0.45892 0.85765 -0.23200
vn -0.33772 0.68357 -0.64705
vn -0.53478 0.84499 -0.00003
vn -0.53253 0.84641 -0.00008
vn -0.46959 0.88288 0.00001
vn -0.22248 0.97494 0.00009
vn -0.21541 0.94757 -0.23601
vn 0.62599 0.77983 -0.00007
vn 0.85538 0.51800 -0.00001
vn 0.80213 0.49662 -0.33160
vn 0.29786 0.90863 -0.29269
vn -0.02896 0.99958 0.00005
vn 0.53330 0.37063 -0.76041
vn 0.19043 0.65240 -0.73356
vn -0.16129 0.72630 -0.66819
vn 0.09233 0.39458 -0.91421
vn -0.09948 0.46537 -0.87951
vn -0.19328 0.46571 -0.86357
vn 0.38844 -0.43655 -0.81151
vn 0.14180 -0.60175 -0.78599
vn 0.18713 -0.78179 -0.59480
vn 0.50637 -0.60354 -0.61590
vn 0.57508 -0.47048 -0.66927
vn 0.41747 -0.29900 -0.85809
vn 0.61767 -0.74768 -0.24387
vn 0.72452 -0.62626 -0.28787
vn 0.73040 -0.59384 -0.33744
vn 0.76140 -0.64828 0.00020
vn 0.78092 -0.62463 0.00006
vn 0.78041 -0.62526 0.00002
vn -0.53592 0.84427 -0.00002
vn -0.53537 0.84462 0.00000
vn -0.49650 0.77017 -0.40040
vn -0.49031 0.75967 -0.42720
vn -0.33128 0.53285 -0.77867
vn -0.18927 0.34433 -0.91957
vn -0.53471 0.84504 0.00004
vn 0.99531 0.09674 -0.00007
vn 1.00000 0.00311 -0.00014
vn 0.93515 -0.00619 -0.35420
vn 0.93987 0.09432 -0.32824
vn 0.66851 0.02565 -0.74326
vn 0.66493 0.10818 -0.73903
vn 0.41119 0.06403 -0.90930
vn 0.39422 0.11515 -0.91177
vn 0.29176 0.24498 -0.92459
vn -0.55050 -0.24239 -0.79887
vn -0.53250 0.13378 -0.83579
vn -0.73118 0.16095 -0.66292
vn -0.70977 -0.31580 -0.62968
vn -0.32224 -0.73726 -0.59381
vn -0.26041 -0.57923 -0.77245
vn -0.66731 -0.70960 -0.22622
vn -0.38145 -0.89506 -0.23098
vn 0.24017 -0.94420 -0.22539
vn -0.04413 -0.99903 0.00011
vn 0.25762 -0.96625 -0.00003
vn 0.64440 -0.76468 0.00005
vn 0.99987 0.01641 0.00004
vn 0.99957 0.02921 0.00006
vn 0.90227 0.02045 -0.43068
vn 0.91779 0.00417 -0.39705
vn 0.61570 0.03248 -0.78731
vn 0.64105 0.02280 -0.76716
vn 0.03751 0.13956 -0.98950
vn 0.39281 0.05132 -0.91819
vn -0.32953 0.23844 -0.91354
vn -0.51766 0.30855 -0.79802
vn -0.54925 0.33350 -0.76623
vn -0.61031 0.33413 -0.71825
vn -0.39463 0.25560 -0.88258
vn -0.79153 0.45427 -0.40881
vn -0.83125 0.43060 -0.35159
vn -0.93205 0.21342 -0.29280
vn -0.88038 0.47427 -0.00017
vn -0.96898 0.24716 0.00003
vn -0.99929 0.03756 0.00075
vn -0.96656 0.01270 -0.25614
vn -0.86125 0.50819 0.00029
vn 0.99992 0.01283 0.00003
vn 0.99203 -0.12600 -0.00043
vn 0.87535 -0.11428 -0.46978
vn 0.89183 0.00771 -0.45230
vn 0.54488 -0.08852 -0.83383
vn 0.58935 0.01702 -0.80770
vn 0.00806 0.02686 -0.99961
vn 0.03260 0.11693 -0.99260
vn -0.47060 0.23742 -0.84980
vn -0.48407 0.29870 -0.82247
vn -0.75495 0.41201 -0.51019
vn -0.74632 0.45448 -0.48627
vn -0.77324 0.44428 -0.45246
vn -0.84833 0.52947 0.00003
vn -0.85972 0.51076 0.00009
vn -0.87600 0.48231 -0.00048
vn -0.98734 0.15860 0.00021
vn -0.99485 -0.10131 0.00143
vn -0.59351 -0.80483 0.00071
vn 0.10239 -0.99474 -0.00025
vn 0.42949 -0.90307 -0.00107
vn 0.86943 -0.49405 -0.00141
vn -0.68760 -0.72609 -0.00006
vn 0.79409 0.41488 -0.44419
vn 0.72117 0.50186 -0.47756
vn 0.88433 0.46686 0.00038
vn 0.80908 0.58770 -0.00020
vn 0.44013 -0.32268 0.83795
vn -0.04715 -0.17479 0.98348
vn -0.12727 -0.48589 0.86470
vn 0.26162 -0.55817 0.78740
vn -0.21944 -0.82591 0.51935
vn 0.38354 -0.78607 0.48475
vn 0.76864 -0.43186 0.47189
vn -0.29809 -0.44829 0.84272
vn -0.53951 -0.69345 0.47755
vn -0.03725 -0.88474 0.46460
vn -0.01626 -0.62859 0.77756
vn 0.54605 -0.68788 0.47818
vn 0.33561 -0.40470 0.85063
vn 0.11233 -0.12235 0.98611
vn -0.49523 0.02812 0.86831
vn -0.83792 0.14598 0.52591
vn -0.72925 -0.40816 0.54918
vn -0.47524 -0.27403 0.83610
vn 0.46930 0.25750 0.84466
vn 0.52401 0.30103 0.79674
vn 0.06404 0.22972 0.97115
vn 0.08855 0.05763 0.99440
vn -0.42202 0.21004 0.88192
vn -0.46273 0.14105 0.87521
vn -0.01162 -0.07151 0.99737
vn -0.41910 0.30183 0.85630
vn 0.32015 -0.39721 0.86008
vn 0.34118 -0.30724 0.88837
vn 0.54166 -0.00524 0.84058
vn 0.72747 -0.37946 0.57166
vn 0.90344 0.05006 0.42579
vn 0.78203 0.37109 0.50072
vn 0.85668 -0.11508 0.50285
vn 0.78553 0.37850 0.48957
vn 0.49451 0.18636 0.84895
vn 0.58836 -0.07726 0.80490
vn -0.69558 -0.52869 0.48647
vn -0.43678 -0.33495 0.83488
vn -0.44246 -0.36560 0.81888
vn -0.68046 -0.56241 0.46974
vn -0.67778 -0.59309 0.43458
vn -0.69769 -0.60204 0.38829
vn -0.65994 -0.67600 0.32787
vn -0.49612 -0.40502 0.76800
vn -0.50224 -0.49813 0.70684
vn -0.45712 -0.38598 0.80129
vn -0.09889 0.06933 0.99268
vn -0.13986 0.08049 0.98689
vn -0.06082 0.04207 0.99726
vn 0.26664 0.47383 0.83928
vn 0.19504 0.54556 0.81506
vn -0.00924 0.00147 0.99996
vn 0.37707 0.35617 0.85496
vn 0.62240 0.60859 0.49218
vn 0.44902 0.75556 0.47699
vn -0.50149 -0.82562 0.25856
vn -0.25002 -0.94704 0.20148
vn -0.41909 -0.65845 0.62514
vn -0.23378 -0.79122 0.56509
vn -0.34200 -0.47761 0.80928
vn -0.21465 -0.61170 0.76141
vn -0.35954 -0.31599 0.87800
vn 0.10717 0.66181 0.74198
vn 0.05306 0.73593 0.67497
vn -0.01583 0.50049 0.86560
vn 0.02801 0.43102 0.90191
vn 0.15134 0.59486 0.78946
vn 0.25793 0.86763 0.42509
vn 0.18165 0.91229 0.36706
vn 0.33280 0.82581 0.45528
vn 0.02492 -0.98511 0.17009
vn 0.31453 -0.93378 0.17067
vn 0.01675 -0.84168 0.53972
vn 0.28246 -0.79406 0.53822
vn 0.00472 -0.66329 0.74835
vn 0.23984 -0.62349 0.74413
vn -0.08529 0.80132 0.59213
vn -0.15052 0.78189 0.60498
vn -0.07917 0.55075 0.83091
vn -0.07926 0.55598 0.82741
vn -0.06219 0.54216 0.83797
vn -0.01730 0.78721 0.61645
vn 0.02850 0.97545 0.21837
vn -0.08281 0.97907 0.18590
vn 0.11492 0.95058 0.28843
vn 0.61610 -0.75699 0.21768
vn 0.84749 -0.44524 0.28898
vn 0.51479 -0.62132 0.59073
vn 0.65600 -0.33080 0.67840
vn 0.41747 -0.47295 0.77592
vn 0.49149 -0.21913 0.84286
vn -0.22828 0.72469 0.65016
vn -0.32354 0.61398 0.71997
vn -0.14218 0.41681 0.89781
vn -0.09573 0.50558 0.85745
vn -0.35580 0.90352 0.23888
vn -0.50661 0.80200 0.31644
vn -0.21228 0.95734 0.19603
vn 0.93023 -0.10101 0.35281
vn 0.89322 0.19444 0.40540
vn 0.66681 -0.03706 0.74431
vn 0.60410 0.18767 0.77450
vn 0.13892 0.19582 0.97075
vn 0.08868 0.25980 0.96158
vn -0.39140 0.48818 0.78006
vn -0.41472 0.39880 0.81790
vn -0.62361 0.66628 0.40887
vn -0.68808 0.54285 0.48153
vn -0.73124 0.43386 0.52636
vn -0.77276 0.32235 0.54675
vn -0.80746 0.23110 0.54276
vn -0.83660 0.16525 0.52229
vn -0.52083 0.07727 0.85016
vn -0.86697 0.10182 0.48785
vn -0.56929 0.03273 0.82149
vn -0.06216 -0.14674 0.98722
vn -0.08621 -0.18946 0.97810
vn -0.61950 -0.00921 0.78494
vn -0.08698 -0.23153 0.96893
vn 0.34142 -0.47332 0.81204
vn 0.32843 -0.43902 0.83630
vn 0.39301 -0.50093 0.77111
vn 0.33814 -0.36723 0.86649
vn 0.51803 -0.46713 0.71654
vn 0.57704 -0.68796 0.44016
vn 0.53491 -0.68336 0.49688
vn 0.70757 -0.60512 0.36494
vn 0.68987 -0.26543 0.67352
vn 0.89938 -0.32636 0.29089
vn 0.96650 0.09412 0.23879
vn 0.83370 0.50266 0.22864
vn 0.52074 0.80963 0.27079
vn 0.64813 0.40462 0.64515
vn 0.38959 0.61961 0.68140
vn 0.75970 0.07412 0.64603
vn 0.53582 0.04321 0.84323
vn 0.43949 0.29201 0.84946
vn 0.48092 -0.22191 0.84822
vn -0.69595 -0.11750 0.70842
vn -0.41716 -0.13710 0.89843
vn -0.41807 -0.13558 0.89824
vn -0.42085 -0.10433 0.90111
vn -0.66504 -0.05460 0.74481
vn -0.92662 -0.00500 0.37596
vn -0.94881 -0.09791 0.30029
vn -0.89677 0.04879 0.43980
vn 0.49763 -0.64251 0.58270
vn 0.48659 -0.66948 0.56127
vn 0.53240 -0.75340 0.38594
vn 0.55576 -0.74093 0.37703
vn 0.52031 -0.66597 0.53456
vn 0.56411 -0.74152 0.36322
vn 0.10610 0.93019 0.35142
vn -0.22760 0.87640 0.42441
vn 0.07522 0.67269 0.73609
vn -0.16001 0.60865 0.77714
vn -0.16483 0.13841 0.97656
vn -0.18927 0.07595 0.97898
vn 0.23809 0.43163 0.87006
vn -0.60564 -0.31782 0.72951
vn -0.47452 -0.40253 0.78282
vn -0.38492 -0.14199 0.91196
vn -0.42000 -0.12719 0.89857
vn -0.89810 -0.36111 0.25102
vn -0.81292 -0.49467 0.30736
vn -0.85811 -0.34722 0.37827
vn -0.90269 -0.22034 0.36960
vn -0.94098 -0.23224 0.24620
vn -0.37578 0.79562 0.47515
vn -0.41706 0.75680 0.50331
vn -0.24932 0.53462 0.80748
vn -0.27348 0.49206 0.82649
vn -0.13237 0.03234 0.99067
vn -0.06235 0.02330 0.99778
vn -0.06811 -0.51851 0.85236
vn 0.14448 -0.48177 0.86430
vn -0.28648 -0.48666 0.82528
vn -0.37354 -0.81441 0.44408
vn -0.05367 -0.87426 0.48247
vn -0.64885 -0.65964 0.37929
vn -0.43706 0.74405 0.50534
vn -0.46036 0.73786 0.49359
vn -0.29125 0.48253 0.82604
vn -0.30927 0.48834 0.81601
vn -0.01099 0.03673 0.99926
vn 0.02714 0.05493 0.99812
vn 0.31948 -0.41517 0.85180
vn 0.42129 -0.36995 0.82804
vn 0.53633 -0.68531 0.49265
vn 0.65629 -0.58844 0.47224
vn 0.27205 -0.82030 0.50308
vn -0.47903 0.73900 0.47372
vn -0.48489 0.74916 0.45127
vn -0.32178 0.50229 0.80260
vn -0.32492 0.52032 0.78974
vn -0.19019 0.32097 0.92780
vn -0.18772 0.33742 0.92245
vn 0.46720 -0.35873 0.80811
vn 0.48631 -0.36548 0.79368
vn 0.30496 -0.19850 0.93145
vn 0.28543 -0.19244 0.93888
vn 0.69209 -0.56104 0.45414
vn 0.70299 -0.56107 0.43704
vn 0.71272 -0.56157 0.42032
vn 0.71477 -0.57180 0.40267
vn 0.50095 -0.37130 0.78179
vn 0.50693 -0.38329 0.77208
vn 0.71899 -0.58397 0.37686
vn 0.51450 -0.40005 0.75845
vn 0.32328 -0.21228 0.92219
vn 0.31815 -0.20437 0.92575
vn 0.32749 -0.22352 0.91804
vn 0.54555 -0.42015 0.72516
vn 0.36367 -0.24213 0.89951
vn -0.34227 0.55727 0.75651
vn -0.33548 0.54328 0.76961
vn -0.18598 0.34474 0.92009
vn -0.18412 0.34838 0.91909
vn -0.19211 0.37948 0.90504
vn -0.35809 0.58763 0.72558
vn -0.20842 0.42959 0.87864
vn -0.37503 0.63160 0.67855
vn -0.51329 0.79404 0.32562
vn -0.50309 0.78180 0.36836
vn -0.51929 0.80965 0.27351
vn -0.33677 0.68365 0.64747
vn -0.45867 0.85779 0.23197
vn -0.21587 0.94721 0.23706
vn 0.29779 0.90842 0.29343
vn 0.80289 0.49645 0.33000
vn 0.19039 0.65333 0.73274
vn 0.53687 0.37075 0.75783
vn -0.16101 0.72658 0.66795
vn -0.09839 0.46797 0.87825
vn 0.09278 0.39801 0.91267
vn -0.19231 0.46498 0.86418
vn 0.50534 -0.60321 0.61706
vn 0.18609 -0.78076 0.59647
vn 0.14074 -0.59935 0.78802
vn 0.38868 -0.43504 0.81220
vn 0.41825 -0.29934 0.85759
vn 0.57558 -0.47039 0.66891
vn 0.72402 -0.62675 0.28806
vn 0.61644 -0.74840 0.24473
vn 0.73065 -0.59359 0.33734
vn -0.49032 0.75965 0.42723
vn -0.49621 0.77040 0.40033
vn -0.33144 0.53265 0.77873
vn -0.18956 0.34405 0.91962
vn 0.94043 0.09323 0.32695
vn 0.93530 -0.00583 0.35380
vn 0.66799 0.10728 0.73640
vn 0.66879 0.02625 0.74299
vn 0.39916 0.11519 0.90961
vn 0.41134 0.06460 0.90919
vn 0.29679 0.24536 0.92288
vn -0.71503 -0.31514 0.62403
vn -0.73651 0.16036 0.65715
vn -0.54329 0.13410 0.82876
vn -0.55720 -0.24344 0.79389
vn -0.25909 -0.57702 0.77455
vn -0.32210 -0.73697 0.59425
vn -0.38169 -0.89525 0.22986
vn -0.66778 -0.70982 0.22411
vn 0.24000 -0.94414 0.22584
vn 0.91775 0.00461 0.39713
vn 0.90222 0.02000 0.43082
vn 0.64100 0.02330 0.76719
vn 0.61571 0.03260 0.78730
vn 0.39278 0.05157 0.91818
vn 0.03779 0.14035 0.98938
vn -0.54883 0.33515 0.76581
vn -0.51735 0.30946 0.79787
vn -0.32930 0.23822 0.91368
vn -0.39723 0.25648 0.88115
vn -0.61108 0.33289 0.71817
vn -0.83091 0.43032 0.35273
vn -0.79122 0.45521 0.40835
vn -0.93230 0.21329 0.29209
vn -0.96756 0.01365 0.25227
vn 0.89194 0.00756 0.45208
vn 0.87519 -0.11508 0.46990
vn 0.58967 0.01682 0.80747
vn 0.54419 -0.08954 0.83417
vn 0.03277 0.11720 0.99257
vn 0.00799 0.02699 0.99960
vn -0.48363 0.29887 0.82267
vn -0.47093 0.23902 0.84917
vn -0.74591 0.45476 0.48663
vn -0.75521 0.41309 0.50893
vn -0.77305 0.44474 0.45233
vn 0.79431 0.41455 0.44409
vn 0.71895 0.50112 0.48166
f 1//1 7//2 8//3 9//4
f 1//1 10//5 11//6 7//2
f 1//1 9//4 12//7 10//5
f 2//8 13//9 14//10 15//11
f 2//8 16//12 17//13 13//9
f 2//8 15//11 18//14 16//12
f 3//15 19//16 20//17 21//18
f 3//15 7//2 11//6 19//16
f 3//15 21//18 8//3 7//2
f 4//19 22//20 23//21 24//22
f 4//19 25//23 26//24 27//25
f 4//19 27//25 28//26 22//20
f 4//19 29//27 30//28 25//23
f 4//19 24//22 31//29 29//27
f 5//30 32//31 34//32 35//33
f 5//30 36//34 33//35 32//31
f 5//30 35//33 31//29 36//34
f 6//36 37//37 38//38 39//39
f 6//36 39//39 17//13 16//12
f 6//36 16//12 18//14 37//37
f 39//39 38//38 321//40 322//41
f 39//39 322//42 323//42 17//13
f 323//43 40//44 13//9 17//13
f 40//44 324//45 14//10 13//9
f 324//45 325//46 41//47 14//10
f 41//47 42//48 43//49 44//50
f 41//47 44//50 15//11 14//10
f 41//47 325//46 326//51 42//48
f 326//51 45//52 46//53 42//48
f 47//54 48//55 49//56 50//57
f 47//54 50//57 46//53 45//52
f 50//57 49//56 51//58 52//59
f 50//57 52//59 53//60 46//53
f 53//60 52//59 54//61 55//62
f 53//60 55//62 56//63 43//49
f 53//60 43//49 42//48 46//53
f 56//63 55//62 57//64 58//65
f 56//63 58//65 59//66 60//67
f 56//63 60//67 44//50 43//49
f 60//67 59//66 37//37 18//14
f 60//67 18//14 15//11 44//50
f 59//66 58//65 61//68 62//69
f 59//66 62//69 38//38 37//37
f 62//69 61//68 63//70 64//71
f 62//69 64//71 321//40 38//38
f 65//72 327//73 66//74 67//75
f 65//72 67//75 49//56 48//55
f 67//75 66//74 68//76 69//77
f 67//75 69//77 51//58 49//56
f 69//77 68//76 70//78 71//79
f 69//77 71//79 72//80 51//58
f 72//81 71//82 73//83 74//84
f 72//81 74//84 75//85 54//61
f 72//80 54//61 52//59 51//58
f 75//85 74//84 76//86 77//87
f 75//85 77//87 78//88 57//64
f 75//85 57//64 55//62 54//61
f 78//88 77//87 328//89 79//90
f 78//88 79//90 63//70 61//68
f 78//88 61//68 58//65 57//64
f 82//91 81//92 83//93 84//94
f 82//91 84//94 66//74 327//73
f 84//94 83//93 85//95 86//96
f 84//94 86//96 68//76 66//74
f 86//96 85//95 87//97 88//98
f 86//96 88//98 70//78 68//76
f 88//99 87//100 89//101 90//102
f 88//99 90//102 91//103 70//104
f 91//103 90//102 92//105 93//106
f 91//103 93//106 94//107 73//83
f 91//103 73//83 71//82 70//104
f 94//107 93//106 330//108 80//109
f 94//107 80//109 329//110 76//86
f 94//107 76//86 74//84 73//83
f 330//108 93//106 92//105 331//111
f 97//112 96//113 98//114 99//115
f 97//112 99//115 83//93 81//92
f 99//115 98//114 100//116 101//117
f 99//115 101//117 85//95 83//93
f 101//117 100//116 102//118 103//119
f 101//117 103//119 87//97 85//95
f 103//120 102//121 104//122 105//123
f 103//120 105//123 89//101 87//100
f 105//123 104//122 106//124 107//125
f 105//123 107//125 108//126 89//101
f 108//126 107//125 109//127 95//128
f 108//126 95//128 331//111 92//105
f 108//126 92//105 90//102 89//101
f 109//127 107//125 106//124 332//129
f 110//130 333//131 111//132 112//133
f 110//130 112//133 98//114 96//113
f 112//133 111//132 113//134 114//135
f 112//133 114//135 100//116 98//114
f 114//135 113//134 115//136 116//137
f 114//135 116//137 102//118 100//116
f 116//137 115//136 117//138 118//139
f 116//137 118//139 104//122 102//121
f 118//139 117//138 119//140 120//141
f 118//139 120//141 106//124 104//122
f 120//141 119//140 121//142 334//143
f 120//141 334//143 332//129 106//124
f 121//142 119//140 123//144 122//145
f 123//144 124//146 125//147 122//145
f 123//144 119//140 117//138 28//26
f 123//144 28//26 27//25 124//146
f 125//147 124//146 127//148 126//149
f 127//148 128//150 129//151 126//149
f 127//148 124//146 27//25 26//24
f 127//148 26//24 130//152 128//150
f 130//152 131//153 132//154 128//150
f 130//152 26//24 25//23 133//155
f 130//152 133//155 134//156 131//153
f 134//156 135//157 136//158 131//153
f 134//156 133//155 137//159 138//160
f 134//156 138//160 139//161 135//157
f 139//161 140//162 141//163 135//157
f 139//161 138//160 142//164 143//165
f 139//161 143//165 144//166 140//162
f 144//166 145//167 146//168 140//162
f 144//166 143//165 147//169 148//170
f 144//166 148//170 335//171 145//167
f 335//171 149//172 150//173 145//167
f 151//174 152//175 153//176 154//177
f 151//174 154//177 150//173 149//172
f 154//177 153//176 155//178 156//179
f 154//177 156//179 157//180 150//173
f 157//180 156//179 158//181 159//182
f 157//180 159//182 160//183 146//168
f 157//180 146//168 145//167 150//173
f 160//184 159//185 161//185 162//186
f 160//184 162//186 163//187 141//188
f 160//183 141//163 140//162 146//168
f 163//187 162//186 164//189 165//190
f 163//187 165//190 166//191 136//158
f 163//187 136//158 135//157 141//188
f 166//191 165//190 167//192 168//193
f 166//191 168//193 169//194 132//154
f 166//191 132//154 131//153 136//158
f 169//194 129//151 128//150 132//154
f 337//195 336//196 170//197 171//198
f 337//195 171//198 35//33 34//32
f 171//198 170//197 30//28 29//27
f 171//198 29//27 31//29 35//33
f 170//197 172//199 137//159 30//28
f 170//197 336//196 338//200 172//199
f 172//199 142//164 138//160 137//159
f 172//199 338//200 339//201 142//164
f 339//201 147//169 143//165 142//164
f 341//202 340//203 173//204 174//205
f 341//202 174//205 153//176 152//175
f 174//205 173//204 175//206 176//207
f 174//205 176//207 155//178 153//176
f 176//207 175//206 177//208 178//209
f 176//207 178//209 179//210 155//178
f 179//211 178//209 180//212 181//213
f 179//211 181//213 182//214 158//214
f 179//210 158//181 156//179 155//178
f 182//215 181//213 183//216 184//217
f 182//215 184//217 185//218 161//219
f 182//214 161//185 159//185 158//214
f 185//218 184//217 342//220 343//221
f 185//218 343//221 186//222 164//189
f 185//218 164//189 162//186 161//219
f 186//222 167//192 165//190 164//189
f 344//223 187//224 188//225 189//226
f 344//223 189//226 173//204 340//203
f 189//226 188//225 190//227 191//228
f 189//226 191//228 175//206 173//204
f 191//228 190//227 192//229 193//230
f 191//228 193//230 177//208 175//206
f 193//230 192//229 194//231 195//232
f 193//230 195//232 196//233 177//208
f 196//233 195//232 197//234 198//235
f 196//233 198//235 199//236 180//212
f 196//233 180//212 178//209 177//208
f 199//236 198//235 345//237 346//238
f 199//236 346//238 347//239 183//216
f 199//236 183//216 181//213 180//212
f 345//237 198//235 197//234 348//240
f 202//241 201//242 203//243 204//244
f 202//241 204//244 188//225 187//224
f 204//244 203//243 205//245 206//246
f 204//244 206//246 190//227 188//225
f 206//246 205//245 207//247 208//248
f 206//246 208//248 192//229 190//227
f 208//248 207//247 209//249 210//250
f 208//248 210//250 194//231 192//229
f 210//250 209//249 211//251 212//252
f 210//250 212//252 213//253 194//231
f 213//253 212//252 349//254 200//255
f 213//253 200//255 348//240 197//234
f 213//253 197//234 195//232 194//231
f 349//254 212//252 211//251 350//256
f 216//257 215//258 217//259 218//260
f 216//257 218//260 203//243 201//242
f 218//260 217//259 219//261 220//262
f 218//260 220//262 205//245 203//243
f 220//262 219//261 221//263 222//264
f 220//262 222//264 207//247 205//245
f 222//265 221//266 223//267 224//268
f 222//265 224//268 209//249 207//247
f 224//268 223//267 225//269 226//270
f 224//268 226//270 211//251 209//249
f 226//270 225//269 227//271 214//272
f 226//270 214//272 350//256 211//251
f 227//271 225//269 228//273 351//274
f 228//273 229//275 230//276 351//274
f 228//273 225//269 223//267 231//277
f 228//273 231//277 232//278 229//275
f 232//278 233//279 234//280 229//275
f 232//278 231//277 235//281 236//282
f 232//278 236//282 237//283 233//279
f 237//283 238//284 239//285 233//279
f 237//286 236//287 240//288 241//289
f 237//286 241//289 242//290 238//291
f 242//290 243//292 244//293 238//291
f 242//290 241//289 245//294 246//295
f 242//290 246//295 247//296 243//292
f 247//296 248//297 249//298 243//292
f 247//296 246//295 352//299 353//300
f 247//296 353//300 354//301 248//297
f 354//301 250//302 251//303 248//297
f 252//304 355//305 253//306 254//307
f 252//308 254//307 251//303 250//302
f 254//307 253//306 255//309 256//310
f 254//307 256//310 257//311 251//303
f 257//311 256//310 258//312 259//313
f 257//311 259//313 260//314 249//298
f 257//311 249//298 248//297 251//303
f 260//315 259//316 261//317 262//318
f 260//315 262//318 263//319 244//320
f 260//314 244//293 243//292 249//298
f 263//319 262//318 264//321 265//322
f 263//319 265//322 266//323 239//285
f 263//319 239//285 238//284 244//320
f 266//323 265//322 267//324 268//325
f 266//323 268//325 269//326 234//280
f 266//323 234//280 233//279 239//285
f 269//326 230//276 229//275 234//280
f 357//327 356//328 270//329 271//330
f 357//327 271//330 217//259 215//258
f 271//330 270//329 240//288 272//331
f 271//330 272//331 219//261 217//259
f 272//331 240//288 236//287 235//332
f 272//331 235//332 221//263 219//261
f 270//329 245//294 241//289 240//288
f 270//329 356//328 358//333 245//294
f 358//333 352//299 246//295 245//294
f 360//334 359//335 273//336 274//337
f 360//334 274//337 253//306 355//305
f 274//337 273//336 275//338 276//339
f 274//337 276//339 255//309 253//306
f 276//339 275//338 277//340 278//341
f 276//339 278//341 279//342 255//309
f 279//343 278//344 280//345 281//346
f 279//343 281//346 282//347 258//348
f 279//342 258//312 256//310 255//309
f 282//347 281//346 283//349 284//350
f 282//347 284//350 285//351 261//317
f 282//347 261//317 259//316 258//348
f 285//351 284//350 361//352 362//353
f 285//351 362//353 286//354 264//321
f 285//351 264//321 262//318 261//317
f 286//354 267//324 265//322 264//321
f 364//355 363//356 289//357 290//358
f 364//355 290//358 273//336 359//335
f 290//358 289//357 291//359 292//360
f 290//358 292//360 275//338 273//336
f 292//360 291//359 293//361 294//362
f 292//360 294//362 277//340 275//338
f 294//363 293//361 295//364 296//365
f 294//363 296//365 297//366 277//367
f 297//366 296//365 298//368 299//369
f 297//366 299//369 300//370 280//345
f 297//366 280//345 278//344 277//367
f 300//370 299//369 301//371 288//372
f 300//370 288//372 287//373 283//374
f 300//370 283//374 281//346 280//345
f 301//371 299//369 298//368 365//375
f 367//376 366//377 303//378 304//379
f 367//376 304//379 289//357 363//356
f 304//379 303//378 305//380 306//381
f 304//379 306//381 291//359 289//357
f 306//381 305//380 307//382 308//383
f 306//381 308//383 293//361 291//359
f 308//383 307//382 309//384 310//385
f 308//383 310//385 295//364 293//361
f 310//385 309//384 311//386 312//387
f 310//385 312//387 313//388 295//364
f 313//388 312//387 368//389 302//390
f 313//388 302//390 365//375 298//368
f 313//388 298//368 296//365 295//364
f 368//389 312//387 311//386 369//391
f 314//392 369//391 311//386 20//17
f 314//392 20//17 19//16 315//393
f 315//394 19//16 11//6 316//394
f 316//395 11//6 10//5 317//396
f 317//396 10//5 12//7 370//397
f 370//397 12//7 303//378 366//377
f 311//386 309//384 21//18 20//17
f 309//384 307//382 8//3 21//18
f 307//382 305//380 9//4 8//3
f 305//380 303//378 12//7 9//4
f 287//398 361//398 284//350 283//349
f 235//281 231//277 223//267 221//266
f 347//239 342//220 184//217 183//216
f 137//159 133//155 25//23 30//28
f 117//138 115//136 22//20 28//26
f 115//136 113//134 23//21 22//20
f 113//134 111//132 318//399 23//21
f 318//399 319//400 24//22 23//21
f 318//399 111//132 333//131 371//401
f 318//399 371//401 320//402 319//400
f 320//402 33//35 36//34 319//400
f 319//400 36//34 31//29 24//22
f 329//110 328//89 77//87 76//86
f 380//403 379//404 378//405 372//406
f 378//405 382//407 381//408 372//406
f 381//408 383//409 380//403 372//406
f 386//410 385//411 384//412 373//413
f 384//412 388//414 387//415 373//413
f 387//415 389//416 386//410 373//413
f 392//417 391//418 390//419 374//420
f 390//419 382//407 378//405 374//420
f 378//405 379//404 392//417 374//420
f 395//421 394//422 393//423 375//424
f 398//425 397//426 396//427 375//424
f 393//423 399//428 398//425 375//424
f 396//427 401//429 400//430 375//424
f 400//430 402//431 395//421 375//424
f 403//432 34//32 32//31 376//433
f 32//31 33//35 404//434 376//433
f 404//434 402//431 403//432 376//433
f 407//435 406//436 405//437 377//438
f 387//415 388//414 407//435 377//438
f 405//437 389//416 387//415 377//438
f 322//41 321//40 406//436 407//435
f 388//414 323//42 322//42 407//435
f 388//414 384//412 40//44 323//43
f 384//412 385//411 324//45 40//44
f 385//411 408//439 325//46 324//45
f 411//440 410//441 409//442 408//439
f 385//411 386//410 411//440 408//439
f 409//442 326//51 325//46 408//439
f 409//442 412//443 45//52 326//51
f 414//444 413//445 48//55 47//54
f 45//52 412//443 414//444 47//54
f 416//446 415//447 413//445 414//444
f 412//443 417//448 416//446 414//444
f 419//449 418//450 416//446 417//448
f 410//441 420//451 419//449 417//448
f 412//443 409//442 410//441 417//448
f 422//452 421//453 419//449 420//451
f 424//454 423//455 422//452 420//451
f 410//441 411//440 424//454 420//451
f 389//416 405//437 423//455 424//454
f 411//440 386//410 389//416 424//454
f 426//456 425//457 422//452 423//455
f 405//437 406//436 426//456 423//455
f 64//71 63//70 425//457 426//456
f 406//436 321//40 64//71 426//456
f 428//458 427//459 327//73 65//72
f 48//55 413//445 428//458 65//72
f 430//460 429//461 427//459 428//458
f 413//445 415//447 430//460 428//458
f 432//462 431//463 429//461 430//460
f 415//447 433//464 432//462 430//460
f 435//465 434//466 432//467 433//468
f 418//450 436//469 435//465 433//468
f 415//447 416//446 418//450 433//464
f 438//470 437//471 435//465 436//469
f 421//453 439//472 438//470 436//469
f 418//450 419//449 421//453 436//469
f 79//90 328//89 438//470 439//472
f 425//457 63//70 79//90 439//472
f 421//453 422//452 425//457 439//472
f 441//473 440//474 81//92 82//91
f 327//73 427//459 441//473 82//91
f 443//475 442//476 440//474 441//473
f 427//459 429//461 443//475 441//473
f 445//477 444//478 442//476 443//475
f 429//461 431//463 445//477 443//475
f 447//479 446//480 444//481 445//482
f 431//483 448//484 447//479 445//482
f 450//485 449//486 447//479 448//484
f 434//466 451//487 450//485 448//484
f 431//483 432//467 434//466 448//484
f 80//109 330//108 450//485 451//487
f 437//471 329//110 80//109 451//487
f 434//466 435//465 437//471 451//487
f 331//111 449//486 450//485 330//108
f 453//488 452//489 96//113 97//112
f 81//92 440//474 453//488 97//112
f 455//490 454//491 452//489 453//488
f 440//474 442//476 455//490 453//488
f 457//492 456//493 454//491 455//490
f 442//476 444//478 457//492 455//490
f 459//494 458//495 456//496 457//497
f 444//481 446//480 459//494 457//497
f 461//498 460//499 458//495 459//494
f 446//480 462//500 461//498 459//494
f 95//128 109//127 461//498 462//500
f 449//486 331//111 95//128 462//500
f 446//480 447//479 449//486 462//500
f 332//129 460//499 461//498 109//127
f 464//501 463//502 333//131 110//130
f 96//113 452//489 464//501 110//130
f 466//503 465//504 463//502 464//501
f 452//489 454//491 466//503 464//501
f 468//505 467//506 465//504 466//503
f 454//491 456//493 468//505 466//503
f 470//507 469//508 467//506 468//505
f 456//496 458//495 470//507 468//505
f 472//509 471//510 469//508 470//507
f 458//495 460//499 472//509 470//507
f 334//143 121//142 471//510 472//509
f 460//499 332//129 334//143 472//509
f 122//145 473//511 471//510 121//142
f 122//145 125//147 474//512 473//511
f 399//428 469//508 471//510 473//511
f 474//512 398//425 399//428 473//511
f 126//149 475//513 474//512 125//147
f 126//149 129//151 476//514 475//513
f 397//426 398//425 474//512 475//513
f 476//514 477//515 397//426 475//513
f 476//514 479//516 478//517 477//515
f 480//518 396//427 397//426 477//515
f 478//517 481//519 480//518 477//515
f 478//517 483//520 482//521 481//519
f 485//522 484//523 480//518 481//519
f 482//521 486//524 485//522 481//519
f 482//521 488//525 487//526 486//524
f 490//527 489//528 485//522 486//524
f 487//526 491//529 490//527 486//524
f 487//526 493//530 492//531 491//529
f 148//170 147//169 490//527 491//529
f 492//531 335//171 148//170 491//529
f 492//531 494//532 149//172 335//171
f 496//533 495//534 152//175 151//174
f 149//172 494//532 496//533 151//174
f 498//535 497//536 495//534 496//533
f 494//532 499//537 498//535 496//533
f 501//538 500//539 498//535 499//537
f 493//530 502//540 501//538 499//537
f 494//532 492//531 493//530 499//537
f 504//541 503//542 501//542 502//543
f 488//544 505//545 504//541 502//543
f 493//530 487//526 488//525 502//540
f 507//546 506//547 504//541 505//545
f 483//520 508//548 507//546 505//545
f 488//544 482//521 483//520 505//545
f 168//193 167//192 507//546 508//548
f 479//516 169//194 168//193 508//548
f 483//520 478//517 479//516 508//548
f 479//516 476//514 129//151 169//194
f 510//549 509//550 336//551 337//552
f 34//32 403//432 510//549 337//552
f 400//430 401//429 509//550 510//549
f 403//432 402//431 400//430 510//549
f 401//429 484//523 511//553 509//550
f 511//553 338//554 336//551 509//550
f 484//523 485//522 489//528 511//553
f 489//528 339//201 338//554 511//553
f 489//528 490//527 147//169 339//201
f 513//555 512//556 340//203 341//202
f 152//175 495//534 513//555 341//202
f 515//557 514//558 512//556 513//555
f 495//534 497//536 515//557 513//555
f 517//559 516//560 514//558 515//557
f 497//536 518//561 517//559 515//557
f 520//562 519//563 517//559 518//564
f 500//565 521//565 520//562 518//564
f 497//536 498//535 500//539 518//561
f 523//566 522//567 520//562 521//568
f 503//569 524//570 523//566 521//568
f 500//565 501//542 503//542 521//565
f 343//221 342//220 523//566 524//570
f 506//547 186//222 343//221 524//570
f 503//569 504//541 506//547 524//570
f 506//547 507//546 167//192 186//222
f 526//571 525//572 187//224 344//223
f 340//203 512//556 526//571 344//223
f 528//573 527//574 525//572 526//571
f 512//556 514//558 528//573 526//571
f 530//575 529//576 527//574 528//573
f 514//558 516//560 530//575 528//573
f 532//577 531//578 529//576 530//575
f 516//560 533//579 532//577 530//575
f 535//580 534//581 532//577 533//579
f 519//563 536//582 535//580 533//579
f 516//560 517//559 519//563 533//579
f 346//238 345//237 535//580 536//582
f 522//567 347//239 346//238 536//582
f 519//563 520//562 522//567 536//582
f 348//240 534//581 535//580 345//237
f 538//583 537//584 201//242 202//241
f 187//224 525//572 538//583 202//241
f 540//585 539//586 537//584 538//583
f 525//572 527//574 540//585 538//583
f 542//587 541//588 539//586 540//585
f 527//574 529//576 542//587 540//585
f 544//589 543//590 541//588 542//587
f 529//576 531//578 544//589 542//587
f 546//591 545//592 543//590 544//589
f 531//578 547//593 546//591 544//589
f 200//255 349//254 546//591 547//593
f 534//581 348//240 200//255 547//593
f 531//578 532//577 534//581 547//593
f 350//256 545//592 546//591 349//254
f 549//594 548//595 215//258 216//257
f 201//242 537//584 549//594 216//257
f 551//596 550//597 548//595 549//594
f 537//584 539//586 551//596 549//594
f 553//598 552//599 550//597 551//596
f 539//586 541//588 553//598 551//596
f 555//600 554//601 552//602 553//603
f 541//588 543//590 555//600 553//603
f 557//604 556//605 554//601 555//600
f 543//590 545//592 557//604 555//600
f 214//272 227//271 556//605 557//604
f 545//592 350//256 214//272 557//604
f 351//274 558//606 556//605 227//271
f 351//274 230//276 559//607 558//606
f 560//608 554//601 556//605 558//606
f 559//607 561//609 560//608 558//606
f 559//607 563//610 562//611 561//609
f 565//612 564//613 560//608 561//609
f 562//611 566//614 565//612 561//609
f 562//611 568//615 567//616 566//614
f 570//617 569//618 565//619 566//620
f 567//621 571//622 570//617 566//620
f 567//621 573//623 572//624 571//622
f 575//625 574//626 570//617 571//622
f 572//624 576//627 575//625 571//622
f 572//624 578//628 577//629 576//627
f 353//300 352//299 575//625 576//627
f 577//629 354//301 353//300 576//627
f 577//629 579//630 250//302 354//301
f 581//631 580//632 355//305 252//304
f 250//302 579//630 581//631 252//308
f 583//633 582//634 580//632 581//631
f 579//630 584//635 583//633 581//631
f 586//636 585//637 583//633 584//635
f 578//628 587//638 586//636 584//635
f 579//630 577//629 578//628 584//635
f 589//639 588//640 586//641 587//642
f 573//643 590//644 589//639 587//642
f 578//628 572//624 573//623 587//638
f 592//645 591//646 589//639 590//644
f 568//615 593//647 592//645 590//644
f 573//643 567//616 568//615 590//644
f 268//325 267//324 592//645 593//647
f 563//610 269//326 268//325 593//647
f 568//615 562//611 563//610 593//647
f 563//610 559//607 230//276 269//326
f 595//648 594//649 356//328 357//327
f 215//258 548//595 595//648 357//327
f 596//650 569//618 594//649 595//648
f 548//595 550//597 596//650 595//648
f 564//651 565//619 569//618 596//650
f 550//597 552//599 564//651 596//650
f 569//618 570//617 574//626 594//649
f 574//626 358//333 356//328 594//649
f 574//626 575//625 352//299 358//333
f 598//652 597//653 359//335 360//334
f 355//305 580//632 598//652 360//334
f 600//654 599//655 597//653 598//652
f 580//632 582//634 600//654 598//652
f 602//656 601//657 599//655 600//654
f 582//634 603//658 602//656 600//654
f 605//659 604//660 602//661 603//662
f 585//663 606//664 605//659 603//662
f 582//634 583//633 585//637 603//658
f 608//665 607//666 605//659 606//664
f 588//640 609//667 608//665 606//664
f 585//663 586//641 588//640 606//664
f 362//353 361//352 608//665 609//667
f 591//646 286//354 362//353 609//667
f 588//640 589//639 591//646 609//667
f 591//646 592//645 267//324 286//354
f 611//668 610//669 363//356 364//355
f 359//335 597//653 611//668 364//355
f 613//670 612//671 610//669 611//668
f 597//653 599//655 613//670 611//668
f 615//672 614//673 612//671 613//670
f 599//655 601//657 615//672 613//670
f 617//674 616//675 614//673 615//676
f 601//677 618//678 617//674 615//676
f 620//679 619//680 617//674 618//678
f 604//660 621//681 620//679 618//678
f 601//677 602//661 604//660 618//678
f 288//372 301//371 620//679 621//681
f 607//682 287//373 288//372 621//681
f 604//660 605//659 607//682 621//681
f 365//375 619//680 620//679 301//371
f 623//683 622//684 366//377 367//376
f 363//356 610//669 623//683 367//376
f 625//685 624//686 622//684 623//683
f 610//669 612//671 625//685 623//683
f 627//687 626//688 624//686 625//685
f 612//671 614//673 627//687 625//685
f 629//689 628//690 626//688 627//687
f 614//673 616//675 629//689 627//687
f 631//691 630//692 628//690 629//689
f 616//675 632//693 631//691 629//689
f 302//390 368//389 631//691 632//693
f 619//680 365//375 302//390 632//693
f 616//675 617//674 619//680 632//693
f 369//391 630//692 631//691 368//389
f 391//418 630//692 369//391 314//392
f 315//393 390//419 391//418 314//392
f 316//394 382//407 390//419 315//394
f 317//396 381//408 382//407 316//395
f 370//397 383//409 381//408 317//396
f 366//377 622//684 383//409 370//397
f 391//418 392//417 628//690 630//692
f 392//417 379//404 626//688 628//690
f 379//404 380//403 624//686 626//688
f 380//403 383//409 622//684 624//686
f 607//666 608//665 361//398 287//398
f 552//602 554//601 560//608 564//613
f 522//567 523//566 342//220 347//239
f 401//429 396//427 480//518 484//523
f 399//428 393//423 467//506 469//508
f 393//423 394//422 465//504 467//506
f 394//422 633//694 463//502 465//504
f 394//422 395//421 634//695 633//694
f 371//401 333//131 463//502 633//694
f 634//695 320//402 371//401 633//694
f 634//695 404//434 33//35 320//402
f 395//421 402//431 404//434 634//695
f 437//471 438//470 328//89 329//110
