# pilowlava3D glyph 'g' variant 2 — Vincent Wagner / Velvetyne, Free Art License
v 0.94622 2.92035 -0.61417
v 1.70998 2.82582 -0.23533
v 0.91887 3.24947 -0.56631
v 1.17301 3.27669 -0.50665
v 1.28799 3.04289 -0.53568
v 1.47630 2.80579 -0.46766
v 1.21358 2.62203 -0.50962
v 1.01600 2.47897 -0.51049
v 0.76383 2.68203 -0.60373
v 0.45740 2.83145 -0.51877
v 0.54976 3.06172 -0.52181
v 0.61875 3.31543 -0.47918
v 3.39316 0.24265 -0.30562
v 3.35302 0.50650 -0.34360
v 3.64609 0.44513 -0.51382
v 3.61982 0.14428 -0.36671
v 4.11454 0.18315 -0.28071
v 3.90255 0.13178 -0.35429
v 3.94698 0.40054 -0.49257
v 4.21340 0.36637 -0.31852
v 1.76420 2.82451 -0.00000
v 1.67818 3.05362 -0.00000
v 1.62355 2.99511 -0.29164
v 1.61486 2.62531 -0.29913
v 1.37856 2.42956 -0.29283
v 1.24409 2.19321 -0.00000
v 1.17123 2.29290 -0.28402
v 1.05143 2.05844 -0.00000
v 0.86272 1.92183 -0.00000
v 0.81148 1.99375 -0.26087
v 0.99018 2.14421 -0.27240
v 0.68007 2.11511 -0.45422
v 0.84291 2.30152 -0.49006
v 0.48909 2.23903 -0.52425
v 0.61935 2.46484 -0.57229
v 0.27987 2.33327 -0.45534
v 0.36134 2.58609 -0.49298
v 0.09801 2.37962 -0.26179
v 0.14722 2.64493 -0.27827
v 0.21111 2.90337 -0.29431
v 0.04388 2.66252 -0.00000
v 0.09488 2.93065 -0.00000
v 0.17667 3.19621 -0.00000
v 0.29126 3.15557 -0.29227
v 0.29926 3.47108 -0.00000
v 0.38927 3.41800 -0.26993
v 0.53725 3.69325 -0.24891
v 0.71275 3.59223 -0.43212
v 0.74481 3.94319 -0.23300
v 0.86408 3.86238 -0.39162
v 1.00923 3.80472 -0.44664
v 0.92688 3.54183 -0.50299
v 1.15631 3.76297 -0.38429
v 1.12842 3.52989 -0.43846
v 1.27184 3.72816 -0.21766
v 1.28661 3.53373 -0.25450
v 1.36063 3.34721 -0.28789
v 1.47727 3.17638 -0.30714
v 1.43142 3.37890 -0.00000
v 1.54414 3.22710 -0.00000
v 1.44013 4.08190 -0.00000
v 1.31950 3.91966 -0.17780
v 1.43684 4.09281 -0.13939
v 1.24940 3.97330 -0.32554
v 1.40858 4.13652 -0.27115
v 1.61201 4.24972 -0.23233
v 1.62193 4.21649 -0.11735
v 1.62335 4.21076 -0.00000
v 1.84653 4.28093 -0.10973
v 1.84726 4.27560 -0.00000
v 0.51507 1.66960 -0.00000
v 0.47734 1.68576 -0.20047
v 0.63696 1.84590 -0.24013
v 0.38223 1.71934 -0.36015
v 0.52100 1.92470 -0.41040
v 0.27180 1.76374 -0.41468
v 0.36893 2.00431 -0.46988
v 0.15623 1.80038 -0.36386
v 0.21072 2.07123 -0.41026
v 0.05546 1.82660 -0.21306
v 0.07098 2.10981 -0.23992
v 0.00563 1.83387 -0.00000
v 0.39886 1.50125 -0.00000
v 0.36321 1.28848 -0.14395
v 0.37864 1.50108 -0.16387
v 0.30645 1.27559 -0.27173
v 0.30238 1.50233 -0.30495
v 0.23006 1.25957 -0.32879
v 0.21491 1.50904 -0.36117
v 0.15450 1.24655 -0.28475
v 0.12784 1.52237 -0.31770
v 0.10446 1.24024 -0.15918
v 0.05907 1.53394 -0.18228
v 0.08636 1.23867 -0.00000
v 0.03019 1.53855 -0.00000
v 0.58178 0.94620 -0.00000
v 0.57072 0.93767 -0.16101
v 0.43170 1.08784 -0.14289
v 0.52446 0.88839 -0.30673
v 0.38182 1.06104 -0.27526
v 0.45699 0.81229 -0.36326
v 0.31238 1.02352 -0.33146
v 0.39072 0.73796 -0.32222
v 0.24165 0.98319 -0.28889
v 0.33505 0.66765 -0.18380
v 0.19230 0.95121 -0.16108
v 0.92575 0.86040 -0.21235
v 0.74659 0.85966 -0.18759
v 0.92405 0.72273 -0.38373
v 0.71256 0.77117 -0.34341
v 0.90897 0.52125 -0.46060
v 0.65995 0.63607 -0.40801
v 0.87213 0.32510 -0.40888
v 0.59897 0.50713 -0.36522
v 0.83873 0.17651 -0.23767
v 0.54222 0.39898 -0.21033
v 1.20875 0.00499 -0.00000
v 1.20893 0.06891 -0.25707
v 1.58705 0.11000 -0.26807
v 1.60873 0.03798 -0.00000
v 1.19832 0.24976 -0.44332
v 1.51770 0.29900 -0.46360
v 1.78713 0.45129 -0.47085
v 1.89573 0.28051 -0.26898
v 1.17719 0.50320 -0.50265
v 1.41811 0.56783 -0.52849
v 1.63879 0.69008 -0.54189
v 1.84666 0.84835 -0.53175
v 2.00352 0.64171 -0.46116
v 1.32803 0.82469 -0.43869
v 1.51545 0.93290 -0.45018
v 1.70929 1.06181 -0.44412
v 1.90365 1.20617 -0.42827
v 2.04405 1.01797 -0.51436
v 1.43745 1.10616 -0.24506
v 1.62157 1.22114 -0.24362
v 1.81569 1.34532 -0.23603
v 2.01604 1.47922 -0.22668
v 2.09983 1.35812 -0.41167
v 1.98135 1.53925 -0.00000
v 2.19085 1.66818 -0.00000
v 2.22157 1.61628 -0.21777
v 2.40453 1.79826 -0.00000
v 2.61954 1.93032 -0.00000
v 2.64587 1.89199 -0.20301
v 2.43284 1.75269 -0.20943
v 2.71050 1.81061 -0.36448
v 2.50436 1.66223 -0.37657
v 2.30135 1.51070 -0.39334
v 2.61487 1.53254 -0.44367
v 2.42530 1.36265 -0.46557
v 2.23553 1.19187 -0.49194
v 2.55762 1.21612 -0.39593
v 2.38049 1.02901 -0.41808
v 2.19790 0.83669 -0.44211
v 2.48453 0.92138 -0.23081
v 2.31213 0.71546 -0.24485
v 2.12473 0.50048 -0.25796
v 2.17915 0.43616 -0.00000
v 1.94223 0.20743 -0.00000
v 1.26305 1.00254 -0.24226
v 1.09415 0.91484 -0.23119
v 1.13181 0.74881 -0.41547
v 3.06993 2.16900 -0.18225
v 2.85783 2.02952 -0.19638
v 3.12061 2.11392 -0.32746
v 2.91721 1.95907 -0.35059
v 3.18588 2.03943 -0.37456
v 2.99430 1.87022 -0.39732
v 2.80286 1.70137 -0.42090
v 3.07428 1.77998 -0.35137
v 2.90331 1.59332 -0.36558
v 2.73316 1.40413 -0.37921
v 2.97692 1.51869 -0.20407
v 2.81585 1.31916 -0.21124
v 2.65228 1.12112 -0.21922
v 3.01004 1.48499 -0.00000
v 3.16835 1.68423 -0.00000
v 3.47487 2.48110 -0.17114
v 3.28400 2.31172 -0.16956
v 3.51315 2.45965 -0.29291
v 3.32258 2.26947 -0.30159
v 3.60059 2.42628 -0.34792
v 3.37543 2.20696 -0.35171
v 3.63024 2.30022 -0.30169
v 3.42943 2.13926 -0.30504
v 3.25139 1.96290 -0.33060
v 3.46560 2.08863 -0.17374
v 3.30113 1.90144 -0.18473
v 3.13874 1.71188 -0.19726
v 3.64838 2.22454 -0.00000
v 3.40358 2.91580 -0.00000
v 3.50813 2.71078 -0.00000
v 3.44792 2.93899 -0.20270
v 3.52867 2.71375 -0.18099
v 3.54369 2.97516 -0.35406
v 3.58438 2.71834 -0.30428
v 3.66971 3.00317 -0.40992
v 3.67065 2.72305 -0.35169
v 3.78388 3.01657 -0.37037
v 3.74257 2.74305 -0.32164
v 3.85729 2.49916 -0.33557
v 3.83234 2.35413 -0.31058
v 4.11023 2.35336 -0.32612
v 4.02996 2.27498 -0.31219
v 3.98305 2.22874 -0.19029
v 3.82812 2.29112 -0.18631
v 3.64355 2.24423 -0.17858
v 3.82815 2.27322 -0.00000
v 3.95576 1.90035 -0.00000
v 4.04655 2.08498 -0.19703
v 4.00365 1.89443 -0.22456
v 4.12113 2.10497 -0.32143
v 4.10335 1.88291 -0.35595
v 4.02609 1.64539 -0.39295
v 3.90057 1.68162 -0.24677
v 3.84103 1.70850 -0.00000
v 3.78711 1.46348 -0.25858
v 3.71294 1.49826 -0.00000
v 3.95304 2.58679 -0.00000
v 3.83151 2.77652 -0.00000
v 4.15280 3.29279 -0.00000
v 3.16178 3.23945 -0.00000
v 3.22517 3.28275 -0.23125
v 3.33690 3.12465 -0.22443
v 3.37357 3.37207 -0.42243
v 3.46703 3.19997 -0.40484
v 3.60491 3.49356 -0.50946
v 3.67298 3.28113 -0.48486
v 3.84914 3.62807 -0.44639
v 3.89844 3.31341 -0.42444
v 4.02486 3.71817 -0.26044
v 4.06995 3.30502 -0.26045
v 3.88177 3.02356 -0.21867
v 3.80979 2.76895 -0.19411
v 3.93402 2.57379 -0.20150
v 4.18772 2.42427 -0.21513
v 4.34837 2.15051 -0.00000
v 4.31308 2.14233 -0.21229
v 4.23369 2.12871 -0.32885
v 4.32139 1.85253 -0.22329
v 4.22863 1.86418 -0.35540
v 4.31083 1.58952 -0.24444
v 4.18357 1.61216 -0.39277
v 4.29917 1.33660 -0.26054
v 4.13950 1.36196 -0.43041
v 3.94424 1.41059 -0.42999
v 4.09618 1.10839 -0.46077
v 3.85924 1.16656 -0.46327
v 3.66922 1.24334 -0.27760
v 3.77407 0.92432 -0.49012
v 3.54640 1.02022 -0.29490
v 3.44377 1.07581 -0.00000
v 3.58305 1.29157 -0.00000
v 4.37257 1.58000 -0.00000
v 4.36539 1.84724 -0.00000
v 4.28922 1.08845 -0.27278
v 4.39512 0.84104 -0.00000
v 4.28290 0.84245 -0.29000
v 4.04944 0.85840 -0.48309
v 4.27152 0.60058 -0.31218
v 4.00374 0.62527 -0.49957
v 3.69534 0.69309 -0.50675
v 3.41989 0.78871 -0.32424
v 3.22050 0.50794 -0.00000
v 4.39175 0.58878 -0.00000
v 3.88338 0.00000 -0.00000
v 3.59285 0.01732 -0.00000
v 3.32615 0.18993 -0.00000
v 4.08775 3.74342 -0.00000
v 3.83176 4.04958 -0.00000
v 3.77923 3.99805 -0.25798
v 3.49992 4.18022 -0.24479
v 3.53992 4.23818 -0.00000
v 3.64339 3.86796 -0.45089
v 3.40184 4.04608 -0.43338
v 3.14878 4.17670 -0.40920
v 3.21799 4.30394 -0.22973
v 3.44897 3.69426 -0.51157
v 3.25347 3.86643 -0.49539
v 3.04243 4.01703 -0.46473
v 2.81462 4.15939 -0.43016
v 2.88622 4.28232 -0.38133
v 3.09073 3.70685 -0.41260
v 2.92181 3.87376 -0.39463
v 2.74042 4.03947 -0.36819
v 2.53660 4.17863 -0.32450
v 2.57715 4.27633 -0.38709
v 2.82404 3.77857 -0.21522
v 2.67473 3.94607 -0.20090
v 2.50641 4.09958 -0.17320
v 2.30779 4.21511 -0.13685
v 2.31548 4.27254 -0.27348
v 2.63837 3.91461 -0.00000
v 2.49465 4.07270 -0.00000
v 2.08274 4.27989 -0.11519
v 1.23559 4.34287 -0.00000
v 0.95749 4.19038 -0.00000
v 1.25198 4.32691 -0.16341
v 0.98663 4.15810 -0.20714
v 0.70311 3.99232 -0.00000
v 1.30500 4.27427 -0.29748
v 1.06982 4.09659 -0.34847
v 1.36351 4.20243 -0.33971
v 1.16389 4.03383 -0.39080
v 1.55412 4.39372 -0.25089
v 1.58912 4.31708 -0.29934
v 1.81965 4.45749 -0.23130
v 1.83120 4.37928 -0.28209
v 1.84152 4.31164 -0.21711
v 2.08111 4.39065 -0.29806
v 2.08109 4.31887 -0.23216
v 2.33216 4.35580 -0.33868
v 2.09027 4.46815 -0.24700
v 2.35765 4.43840 -0.28930
v 2.62225 4.37315 -0.34098
v 2.38127 4.49562 -0.15297
v 2.66357 4.45547 -0.18885
v 2.94189 4.38955 -0.21328
v 2.67590 4.48746 -0.00000
v 3.04021 3.40179 -0.00000
v 2.97087 3.61022 -0.22372
v 3.10543 3.44445 -0.22879
v 3.24550 3.54124 -0.42323
v 2.09953 4.50860 -0.12711
v 1.81401 4.49326 -0.12076
v 1.53057 4.43540 -0.13263
v 1.69436 2.54765 -0.00000
v 1.45890 2.33555 -0.00000
v 0.47613 3.74733 -0.00000
v 1.34722 3.54199 -0.00000
v 1.33858 3.90507 -0.00000
v 1.31358 3.72054 -0.00000
v 0.68401 1.79530 -0.00000
v 0.00000 2.11552 -0.00000
v 0.01020 2.39080 -0.00000
v 0.37423 1.29115 -0.00000
v 0.44068 1.09171 -0.00000
v 0.31590 0.64450 -0.00000
v 0.17715 0.93991 -0.00000
v 0.91759 0.91585 -0.00000
v 0.75440 0.88725 -0.00000
v 0.82429 0.12300 -0.00000
v 0.52288 0.36056 -0.00000
v 1.58438 1.29755 -0.00000
v 1.77866 1.41503 -0.00000
v 2.36626 0.66192 -0.00000
v 1.22648 1.08273 -0.00000
v 1.06779 0.98892 -0.00000
v 1.39898 1.18519 -0.00000
v 3.05106 2.19237 -0.00000
v 2.83688 2.06285 -0.00000
v 2.85555 1.28476 -0.00000
v 2.69711 1.08198 -0.00000
v 2.53463 0.87502 -0.00000
v 3.46368 2.48922 -0.00000
v 3.26931 2.32737 -0.00000
v 3.32211 1.87717 -0.00000
v 3.47864 2.06806 -0.00000
v 3.96642 2.21404 -0.00000
v 4.01919 2.07784 -0.00000
v 3.93243 3.01980 -0.00000
v 3.28119 3.08410 -0.00000
v 4.22102 2.44812 -0.00000
v 4.37857 1.33113 -0.00000
v 4.38573 1.08687 -0.00000
v 3.29516 0.83015 -0.00000
v 4.32619 0.32977 -0.00000
v 4.15009 0.10871 -0.00000
v 2.30782 4.20186 -0.00000
v 2.08331 4.27288 -0.00000
v 1.52456 4.44511 -0.00000
v 2.95966 4.43722 -0.00000
v 3.24392 4.35989 -0.00000
v 2.91118 3.56926 -0.00000
v 2.77528 3.74081 -0.00000
v 2.10190 4.52077 -0.00000
v 1.81316 4.50133 -0.00000
v 2.39099 4.51465 -0.00000
v 0.94622 2.92035 0.61417
v 1.70998 2.82582 0.23533
v 0.91887 3.24947 0.56631
v 1.17301 3.27669 0.50665
v 1.28799 3.04289 0.53568
v 1.47630 2.80579 0.46766
v 1.21358 2.62203 0.50962
v 1.01600 2.47897 0.51049
v 0.76383 2.68203 0.60373
v 0.45740 2.83145 0.51877
v 0.54976 3.06172 0.52181
v 0.61875 3.31543 0.47918
v 3.39316 0.24265 0.30562
v 3.35302 0.50650 0.34360
v 3.64609 0.44513 0.51382
v 3.61982 0.14428 0.36671
v 4.11454 0.18315 0.28071
v 3.90255 0.13178 0.35429
v 3.94698 0.40054 0.49257
v 4.21340 0.36637 0.31852
v 1.62355 2.99511 0.29164
v 1.61486 2.62531 0.29913
v 1.37856 2.42956 0.29283
v 1.17123 2.29290 0.28402
v 0.81148 1.99375 0.26087
v 0.99018 2.14421 0.27240
v 0.68007 2.11511 0.45422
v 0.84291 2.30152 0.49006
v 0.48909 2.23903 0.52425
v 0.61935 2.46484 0.57229
v 0.27987 2.33327 0.45534
v 0.36134 2.58609 0.49298
v 0.09801 2.37962 0.26179
v 0.14722 2.64493 0.27827
v 0.21111 2.90337 0.29431
v 0.29126 3.15557 0.29227
v 0.38927 3.41800 0.26993
v 0.53725 3.69325 0.24891
v 0.71275 3.59223 0.43212
v 0.74481 3.94319 0.23300
v 0.86408 3.86238 0.39162
v 1.00923 3.80472 0.44664
v 0.92688 3.54183 0.50299
v 1.15631 3.76297 0.38429
v 1.12842 3.52989 0.43846
v 1.27184 3.72816 0.21766
v 1.28661 3.53373 0.25450
v 1.36063 3.34721 0.28789
v 1.47727 3.17638 0.30714
v 1.31950 3.91966 0.17780
v 1.43684 4.09281 0.13939
v 1.24940 3.97330 0.32554
v 1.40858 4.13652 0.27115
v 1.61201 4.24972 0.23233
v 1.62193 4.21649 0.11735
v 1.84653 4.28093 0.10973
v 0.47734 1.68576 0.20047
v 0.63696 1.84590 0.24013
v 0.38223 1.71934 0.36015
v 0.52100 1.92470 0.41040
v 0.27180 1.76374 0.41468
v 0.36893 2.00431 0.46988
v 0.15623 1.80038 0.36386
v 0.21072 2.07123 0.41026
v 0.05546 1.82660 0.21306
v 0.07098 2.10981 0.23992
v 0.36321 1.28848 0.14395
v 0.37864 1.50108 0.16387
v 0.30645 1.27559 0.27173
v 0.30238 1.50233 0.30495
v 0.23006 1.25957 0.32879
v 0.21491 1.50904 0.36117
v 0.15450 1.24655 0.28475
v 0.12784 1.52237 0.31770
v 0.10446 1.24024 0.15918
v 0.05907 1.53394 0.18228
v 0.57072 0.93767 0.16101
v 0.43170 1.08784 0.14289
v 0.52446 0.88839 0.30673
v 0.38182 1.06104 0.27526
v 0.45699 0.81229 0.36326
v 0.31238 1.02352 0.33146
v 0.39072 0.73796 0.32222
v 0.24165 0.98319 0.28889
v 0.33505 0.66765 0.18380
v 0.19230 0.95121 0.16108
v 0.92575 0.86040 0.21235
v 0.74659 0.85966 0.18759
v 0.92405 0.72273 0.38373
v 0.71256 0.77117 0.34341
v 0.90897 0.52125 0.46060
v 0.65995 0.63607 0.40801
v 0.87213 0.32510 0.40888
v 0.59897 0.50713 0.36522
v 0.83873 0.17651 0.23767
v 0.54222 0.39898 0.21033
v 1.20893 0.06891 0.25707
v 1.58705 0.11000 0.26807
v 1.19832 0.24976 0.44332
v 1.51770 0.29900 0.46360
v 1.78713 0.45129 0.47085
v 1.89573 0.28051 0.26898
v 1.17719 0.50320 0.50265
v 1.41811 0.56783 0.52849
v 1.63879 0.69008 0.54189
v 1.84666 0.84835 0.53175
v 2.00352 0.64171 0.46116
v 1.32803 0.82469 0.43869
v 1.51545 0.93290 0.45018
v 1.70929 1.06181 0.44412
v 1.90365 1.20617 0.42827
v 2.04405 1.01797 0.51436
v 1.43745 1.10616 0.24506
v 1.62157 1.22114 0.24362
v 1.81569 1.34532 0.23603
v 2.01604 1.47922 0.22668
v 2.09983 1.35812 0.41167
v 2.22157 1.61628 0.21777
v 2.64587 1.89199 0.20301
v 2.43284 1.75269 0.20943
v 2.71050 1.81061 0.36448
v 2.50436 1.66223 0.37657
v 2.30135 1.51070 0.39334
v 2.61487 1.53254 0.44367
v 2.42530 1.36265 0.46557
v 2.23553 1.19187 0.49194
v 2.55762 1.21612 0.39593
v 2.38049 1.02901 0.41808
v 2.19790 0.83669 0.44211
v 2.48453 0.92138 0.23081
v 2.31213 0.71546 0.24485
v 2.12473 0.50048 0.25796
v 1.26305 1.00254 0.24226
v 1.09415 0.91484 0.23119
v 1.13181 0.74881 0.41547
v 3.06993 2.16900 0.18225
v 2.85783 2.02952 0.19638
v 3.12061 2.11392 0.32746
v 2.91721 1.95907 0.35059
v 3.18588 2.03943 0.37456
v 2.99430 1.87022 0.39732
v 2.80286 1.70137 0.42090
v 3.07428 1.77998 0.35137
v 2.90331 1.59332 0.36558
v 2.73316 1.40413 0.37921
v 2.97692 1.51869 0.20407
v 2.81585 1.31916 0.21124
v 2.65228 1.12112 0.21922
v 3.47487 2.48110 0.17114
v 3.28400 2.31172 0.16956
v 3.51315 2.45965 0.29291
v 3.32258 2.26947 0.30159
v 3.60059 2.42628 0.34792
v 3.37543 2.20696 0.35171
v 3.63024 2.30022 0.30169
v 3.42943 2.13926 0.30504
v 3.25139 1.96290 0.33060
v 3.46560 2.08863 0.17374
v 3.30113 1.90144 0.18473
v 3.13874 1.71188 0.19726
v 3.44792 2.93899 0.20270
v 3.52867 2.71375 0.18099
v 3.54369 2.97516 0.35406
v 3.58438 2.71834 0.30428
v 3.66971 3.00317 0.40992
v 3.67065 2.72305 0.35169
v 3.78388 3.01657 0.37037
v 3.74257 2.74305 0.32164
v 3.85729 2.49916 0.33557
v 3.83234 2.35413 0.31058
v 4.11023 2.35336 0.32612
v 4.02996 2.27498 0.31219
v 3.98305 2.22874 0.19029
v 3.82812 2.29112 0.18631
v 3.64355 2.24423 0.17858
v 4.04655 2.08498 0.19703
v 4.00365 1.89443 0.22456
v 4.12113 2.10497 0.32143
v 4.10335 1.88291 0.35595
v 4.02609 1.64539 0.39295
v 3.90057 1.68162 0.24677
v 3.78711 1.46348 0.25858
v 3.22517 3.28275 0.23125
v 3.33690 3.12465 0.22443
v 3.37357 3.37207 0.42243
v 3.46703 3.19997 0.40484
v 3.60491 3.49356 0.50946
v 3.67298 3.28113 0.48486
v 3.84914 3.62807 0.44639
v 3.89844 3.31341 0.42444
v 4.02486 3.71817 0.26044
v 4.06995 3.30502 0.26045
v 3.88177 3.02356 0.21867
v 3.80979 2.76895 0.19411
v 3.93402 2.57379 0.20150
v 4.18772 2.42427 0.21513
v 4.31308 2.14233 0.21229
v 4.23369 2.12871 0.32885
v 4.32139 1.85253 0.22329
v 4.22863 1.86418 0.35540
v 4.31083 1.58952 0.24444
v 4.18357 1.61216 0.39277
v 4.29917 1.33660 0.26054
v 4.13950 1.36196 0.43041
v 3.94424 1.41059 0.42999
v 4.09618 1.10839 0.46077
v 3.85924 1.16656 0.46327
v 3.66922 1.24334 0.27760
v 3.77407 0.92432 0.49012
v 3.54640 1.02022 0.29490
v 4.28922 1.08845 0.27278
v 4.28290 0.84245 0.29000
v 4.04944 0.85840 0.48309
v 4.27152 0.60058 0.31218
v 4.00374 0.62527 0.49957
v 3.69534 0.69309 0.50675
v 3.41989 0.78871 0.32424
v 3.77923 3.99805 0.25798
v 3.49992 4.18022 0.24479
v 3.64339 3.86796 0.45089
v 3.40184 4.04608 0.43338
v 3.14878 4.17670 0.40920
v 3.21799 4.30394 0.22973
v 3.44897 3.69426 0.51157
v 3.25347 3.86643 0.49539
v 3.04243 4.01703 0.46473
v 2.81462 4.15939 0.43016
v 2.88622 4.28232 0.38133
v 3.09073 3.70685 0.41260
v 2.92181 3.87376 0.39463
v 2.74042 4.03947 0.36819
v 2.53660 4.17863 0.32450
v 2.57715 4.27633 0.38709
v 2.82404 3.77857 0.21522
v 2.67473 3.94607 0.20090
v 2.50641 4.09958 0.17320
v 2.30779 4.21511 0.13685
v 2.31548 4.27254 0.27348
v 2.08274 4.27989 0.11519
v 1.25198 4.32691 0.16341
v 0.98663 4.15810 0.20714
v 1.30500 4.27427 0.29748
v 1.06982 4.09659 0.34847
v 1.36351 4.20243 0.33971
v 1.16389 4.03383 0.39080
v 1.55412 4.39372 0.25089
v 1.58912 4.31708 0.29934
v 1.81965 4.45749 0.23130
v 1.83120 4.37928 0.28209
v 1.84152 4.31164 0.21711
v 2.08111 4.39065 0.29806
v 2.08109 4.31887 0.23216
v 2.33216 4.35580 0.33868
v 2.09027 4.46815 0.24700
v 2.35765 4.43840 0.28930
v 2.62225 4.37315 0.34098
v 2.38127 4.49562 0.15297
v 2.66357 4.45547 0.18885
v 2.94189 4.38955 0.21328
v 2.97087 3.61022 0.22372
v 3.10543 3.44445 0.22879
v 3.24550 3.54124 0.42323
v 2.09953 4.50860 0.12711
v 1.81401 4.49326 0.12076
v 1.53057 4.43540 0.13263
vn 0.03829 0.03009 -0.99881
vn -0.00271 0.21280 -0.97709
vn 0.44361 0.30928 -0.84116
vn 0.42014 0.22030 -0.88031
vn 0.50634 -0.06509 -0.85987
vn 0.30716 -0.34269 -0.88782
vn 0.29244 -0.40097 -0.86816
vn -0.03842 -0.08857 -0.99533
vn -0.45157 0.12426 -0.88354
vn -0.41177 0.19675 -0.88979
vn -0.40523 0.26152 -0.87601
vn -0.43142 -0.26271 -0.86306
vn -0.75421 -0.03777 -0.65555
vn -0.23154 -0.15288 -0.96074
vn -0.21826 -0.36636 -0.90451
vn 0.55424 -0.66724 -0.49760
vn 0.21514 -0.44662 -0.86847
vn 0.26566 -0.26882 -0.92583
vn 0.71034 -0.35606 -0.60716
vn 0.89695 0.02387 -0.44148
vn 0.77880 0.34264 -0.52542
vn 0.86794 0.49667 0.00108
vn 0.99919 0.04005 0.00421
vn 0.70563 -0.40047 -0.58456
vn 0.83723 -0.54685 0.00324
vn 0.48603 -0.64544 -0.58922
vn 0.55426 -0.74012 -0.38082
vn 0.52632 -0.75749 -0.38626
vn 0.47526 -0.66942 -0.57096
vn 0.60248 -0.79814 -0.00003
vn 0.60500 -0.79622 0.00027
vn 0.53095 -0.68125 -0.50398
vn 0.51536 -0.66280 -0.54322
vn 0.32010 -0.45910 -0.82871
vn 0.30781 -0.42565 -0.85093
vn -0.09399 -0.18274 -0.97866
vn -0.07369 -0.14376 -0.98686
vn -0.54464 0.01915 -0.83845
vn -0.50163 0.06311 -0.86278
vn -0.85282 0.08777 -0.51478
vn -0.82256 0.14709 -0.54933
vn -0.78895 0.21431 -0.57587
vn -0.98512 0.17189 -0.00014
vn -0.89844 0.23292 -0.37222
vn -0.86891 0.32216 -0.37579
vn -0.75373 0.29494 -0.58728
vn -0.88959 0.45676 -0.00064
vn -0.72350 0.38116 -0.57556
vn -0.80441 0.59408 -0.00058
vn -0.68041 0.49674 -0.53879
vn -0.40670 0.33149 -0.85130
vn -0.61221 0.63098 -0.47652
vn -0.38278 0.43255 -0.81632
vn 0.10679 0.19125 -0.97571
vn 0.03476 0.22839 -0.97295
vn 0.64296 0.01178 -0.76581
vn 0.54602 0.21413 -0.80995
vn 0.92230 -0.01632 -0.38612
vn 0.85894 0.26433 -0.43858
vn 0.75533 0.45304 -0.47352
vn 0.70519 0.49728 -0.50538
vn 0.95563 0.29457 0.00104
vn 0.85797 0.51370 0.00038
vn 0.79888 0.60149 -0.00012
vn 0.93517 -0.35419 0.00030
vn 0.99993 -0.01184 0.00120
vn 0.88330 -0.34810 -0.31402
vn 0.69722 -0.67733 -0.23476
vn 0.72598 -0.68771 -0.00036
vn 0.67660 -0.26300 -0.68778
vn 0.58321 -0.55509 -0.59308
vn 0.37560 -0.75466 -0.53797
vn 0.41909 -0.88928 -0.18317
vn 0.42840 -0.90359 -0.00001
vn 0.13713 -0.97522 -0.17360
vn 0.13602 -0.99071 0.00000
vn 0.62032 -0.78435 -0.00086
vn 0.75282 -0.65822 -0.00063
vn 0.71458 -0.59718 -0.36434
vn 0.57151 -0.69055 -0.44330
vn 0.51651 -0.44682 -0.73046
vn 0.37586 -0.48300 -0.79085
vn 0.32925 -0.33230 -0.88384
vn -0.09042 -0.20631 -0.97430
vn -0.41981 -0.08040 -0.90404
vn -0.65224 -0.04371 -0.75675
vn -0.59321 -0.01134 -0.80497
vn -0.91932 -0.01497 -0.39323
vn -0.88454 0.03305 -0.46529
vn -0.99964 -0.02678 0.00012
vn -0.99955 0.03005 0.00015
vn -0.99512 0.09862 -0.00000
vn 0.94626 -0.32340 0.00042
vn 0.99360 0.11296 -0.00006
vn 0.95812 0.11610 -0.26179
vn 0.90479 -0.30014 -0.30213
vn 0.75700 0.08965 -0.64723
vn 0.69183 -0.24690 -0.67853
vn 0.56690 0.05793 -0.82175
vn 0.49548 -0.20880 -0.84315
vn -0.45561 -0.12035 -0.88201
vn -0.46630 -0.14564 -0.87256
vn -0.71693 -0.19036 -0.67065
vn -0.70359 -0.11069 -0.70194
vn -0.93839 -0.22539 -0.26195
vn -0.94448 -0.10353 -0.31184
vn -0.97260 -0.23248 -0.00009
vn -0.99323 -0.11618 -0.00007
vn 0.85594 0.51707 0.00005
vn 0.55439 0.83226 -0.00053
vn 0.54209 0.79464 -0.27328
vn 0.82736 0.50497 -0.24595
vn 0.40072 0.60748 -0.68585
vn 0.64345 0.41129 -0.64561
vn 0.25288 0.42599 -0.86867
vn 0.46115 0.31200 -0.83066
vn -0.44466 -0.14664 -0.88362
vn -0.39073 -0.15364 -0.90759
vn -0.59254 -0.31191 -0.74270
vn -0.67762 -0.25420 -0.69009
vn -0.80796 -0.48466 -0.33512
vn -0.89419 -0.35248 -0.27599
vn -0.85663 -0.51592 0.00002
vn -0.93188 -0.36277 0.00009
vn 0.13250 0.99118 0.00067
vn -0.24656 0.96913 0.00059
vn -0.18673 0.88117 -0.43436
vn 0.15650 0.92457 -0.34739
vn -0.11687 0.59714 -0.79358
vn 0.11634 0.65537 -0.74630
vn -0.16805 0.08325 -0.98226
vn -0.14549 0.13162 -0.98057
vn -0.31053 -0.45421 -0.83502
vn -0.47680 -0.37661 -0.79425
vn -0.42525 -0.78683 -0.44727
vn -0.66551 -0.63176 -0.39745
vn -0.46205 -0.88685 0.00002
vn -0.71675 -0.69733 -0.00003
vn -0.09753 -0.86899 -0.48512
vn -0.10280 -0.99470 0.00015
vn 0.24481 -0.82373 -0.51141
vn 0.28431 -0.95873 0.00049
vn -0.09671 -0.49412 -0.86400
vn 0.11607 -0.46722 -0.87649
vn 0.29060 -0.39999 -0.86923
vn 0.50704 -0.69081 -0.51545
vn -0.14103 0.03700 -0.98931
vn -0.09174 0.02018 -0.99558
vn -0.02418 0.03604 -0.99906
vn 0.02861 0.06276 -0.99762
vn 0.39399 -0.34917 -0.85021
vn -0.29510 0.46421 -0.83512
vn -0.29532 0.46006 -0.83733
vn -0.28656 0.47515 -0.83193
vn -0.29654 0.48807 -0.82088
vn 0.05022 0.07456 -0.99595
vn -0.44817 0.72942 -0.51681
vn -0.45362 0.73277 -0.50723
vn -0.46527 0.73700 -0.49026
vn -0.47781 0.74433 -0.46655
vn -0.30593 0.50269 -0.80852
vn -0.52322 0.85220 -0.00002
vn -0.52873 0.84879 0.00002
vn -0.53456 0.84513 0.00003
vn -0.53131 0.84718 0.00000
vn -0.48160 0.75754 -0.44066
vn -0.53015 0.84790 -0.00002
vn -0.53145 0.84709 -0.00005
vn -0.49570 0.77772 -0.38657
vn -0.48806 0.76839 -0.41398
vn -0.33460 0.54363 -0.76975
vn -0.32579 0.53040 -0.78265
vn -0.31266 0.51788 -0.79627
vn -0.17655 0.32421 -0.92936
vn 0.06691 0.07355 -0.99504
vn 0.06476 0.07813 -0.99484
vn 0.47607 -0.35872 -0.80292
vn 0.46737 -0.34205 -0.81521
vn 0.44270 -0.33641 -0.83117
vn 0.69359 -0.55461 -0.45972
vn 0.67945 -0.55565 -0.47917
vn 0.63530 -0.58876 -0.49976
vn 0.77374 -0.63350 -0.00005
vn 0.73310 -0.68012 -0.00007
vn 0.58842 -0.80856 0.00028
vn -0.44141 0.89731 -0.00054
vn -0.50340 0.86405 0.00012
vn -0.43242 0.73881 -0.51689
vn -0.36716 0.78714 -0.49558
vn -0.24444 0.51127 -0.82393
vn -0.51796 0.85541 0.00000
vn -0.52969 0.84819 -0.00009
vn -0.53339 0.84587 -0.00004
vn -0.51413 0.79946 -0.31070
vn -0.50188 0.78924 -0.35385
vn -0.37084 0.59864 -0.71001
vn -0.34483 0.56439 -0.75004
vn -0.21447 0.39148 -0.89484
vn -0.18419 0.34625 -0.91988
vn -0.17873 0.32893 -0.92729
vn 0.29686 -0.20272 -0.93316
vn 0.30949 -0.21258 -0.92684
vn 0.51063 -0.40333 -0.75933
vn 0.49766 -0.38590 -0.77680
vn 0.48601 -0.37356 -0.79009
vn 0.29236 -0.19713 -0.93577
vn 0.71693 -0.57839 -0.38920
vn 0.71059 -0.56849 -0.41458
vn 0.69993 -0.56341 -0.43894
vn 0.78458 -0.62003 0.00003
vn 0.78116 -0.62433 0.00002
vn 0.78048 -0.62518 0.00001
vn -0.59647 0.80263 -0.00003
vn -0.86007 0.51017 -0.00030
vn -0.83652 0.49111 -0.24297
vn -0.58692 0.76637 -0.26116
vn -0.64947 0.37680 -0.66046
vn -0.45790 0.59400 -0.66143
vn -0.43229 0.25062 -0.86621
vn -0.30006 0.40844 -0.86205
vn 0.32790 -0.28683 -0.90012
vn 0.19904 -0.19900 -0.95958
vn 0.18421 -0.28695 -0.94007
vn 0.50909 -0.49519 -0.70400
vn 0.53382 -0.43154 -0.72719
vn 0.34197 -0.24209 -0.90799
vn 0.67940 -0.67653 -0.28411
vn 0.72314 -0.61056 -0.32293
vn 0.71932 -0.59383 -0.36047
vn 0.76921 -0.63900 -0.00000
vn 0.77527 -0.63163 0.00008
vn 0.78188 -0.62343 0.00006
vn 0.71751 -0.69655 -0.00016
vn -0.99493 -0.10058 0.00044
vn -0.87474 -0.48459 0.00038
vn -0.81973 -0.42083 -0.38852
vn -0.95341 -0.07106 -0.29319
vn -0.57978 -0.31007 -0.75347
vn -0.71160 -0.05139 -0.70070
vn -0.00292 -0.25545 -0.96682
vn -0.45730 -0.05784 -0.88743
vn 0.30537 -0.11009 -0.94585
vn 0.58622 -0.31019 -0.74842
vn 0.52003 -0.16539 -0.83799
vn 0.08150 -0.14367 -0.98626
vn 0.00910 -0.20414 -0.97890
vn -0.08023 -0.08490 -0.99315
vn -0.06808 -0.88905 -0.45271
vn -0.60150 -0.63152 -0.48927
vn -0.66444 -0.67884 -0.31255
vn -0.07017 -0.95609 -0.28456
vn 0.44414 -0.85284 -0.27459
vn 0.40701 -0.80743 -0.42709
vn -0.07017 -0.99753 0.00028
vn 0.47261 -0.88127 -0.00005
vn -0.38458 -0.92309 0.00042
vn -0.99880 -0.04891 0.00028
vn -0.92488 -0.38026 -0.00058
vn -0.93243 -0.06699 -0.35508
vn -0.85025 0.34145 -0.40060
vn -0.92126 0.38895 0.00006
vn -0.83870 -0.08397 -0.53807
vn -0.75807 0.28493 -0.58664
vn -0.67239 0.35977 -0.64688
vn -0.77732 0.42794 -0.46113
vn -0.87121 0.49091 -0.00050
vn -0.74633 0.42790 -0.50981
vn -0.86296 0.50527 0.00012
vn -0.81435 -0.58037 -0.00032
vn -0.80242 -0.59676 -0.00002
vn -0.70017 -0.51414 -0.49540
vn -0.73039 -0.49982 -0.46552
vn -0.44841 -0.33569 -0.82839
vn -0.48181 -0.34477 -0.80560
vn -0.01872 -0.08114 -0.99653
vn 0.00483 -0.20559 -0.97863
vn 0.44045 0.16665 -0.88217
vn 0.51882 -0.18410 -0.83483
vn 0.78165 0.34199 -0.52160
vn 0.84414 -0.23288 -0.48290
vn 0.83200 -0.41783 -0.36496
vn 0.79657 -0.60454 -0.00003
vn 0.88028 -0.47445 0.00029
vn 0.94213 -0.33524 0.00059
vn 0.90218 -0.29357 -0.31605
vn 0.79992 0.49462 -0.33981
vn 0.84184 0.53973 0.00001
vn 0.68282 0.73059 0.00016
vn 0.64307 0.66369 -0.38207
vn 0.56499 0.55829 -0.60754
vn 0.72028 0.42631 -0.54723
vn 0.73792 0.67488 0.00005
vn 0.66725 0.61491 -0.42030
vn 0.56158 0.52310 -0.64109
vn 0.97406 0.22629 0.00005
vn 0.89079 0.21766 -0.39889
vn 0.77659 0.20144 -0.59694
vn 0.91419 0.01850 -0.40486
vn 0.80591 0.01195 -0.59192
vn -0.06733 0.05177 -0.99639
vn -0.00069 0.13483 -0.99087
vn 0.89074 -0.00748 -0.45445
vn 0.76641 -0.01584 -0.64215
vn 0.03056 0.14336 -0.98920
vn 0.86519 -0.00699 -0.50140
vn 0.72757 -0.01477 -0.68588
vn 0.03309 0.13127 -0.99079
vn 0.38922 0.04877 -0.91985
vn 0.03662 0.10405 -0.99390
vn -0.62906 0.34969 -0.69426
vn -0.58574 0.33553 -0.73779
vn -0.71715 0.42472 -0.55255
vn -0.25935 0.20576 -0.94361
vn -0.68830 0.41481 -0.59512
vn -0.79695 0.48546 -0.35945
vn -0.85512 0.51843 0.00014
vn 0.99971 0.02420 0.00009
vn 1.00000 0.00018 0.00006
vn 1.00000 0.00031 0.00022
vn 0.99994 0.01091 0.00009
vn 0.84055 -0.00136 -0.54174
vn 0.93532 0.00287 -0.35378
vn 0.81355 -0.00364 -0.58148
vn 0.35718 0.03448 -0.93340
vn 0.78425 -0.10047 -0.61225
vn 0.32279 -0.02608 -0.94611
vn -0.23753 0.13094 -0.96252
vn -0.71007 0.30529 -0.63450
vn -0.99994 -0.01049 -0.00360
vn -0.85819 0.35650 -0.36934
vn 0.92603 -0.11800 -0.35852
vn 0.90981 -0.41501 0.00386
vn 0.61513 -0.78842 0.00284
vn 0.16143 -0.98688 -0.00087
vn 0.15410 -0.93302 -0.32515
vn -0.28463 -0.95864 0.00240
vn -0.26738 -0.90947 -0.31839
vn -0.50428 -0.86353 0.00447
vn -0.47924 -0.83174 -0.28026
vn -0.96689 -0.25513 -0.00612
vn -0.91972 -0.24826 -0.30410
vn 0.91382 0.40612 -0.00096
vn 0.99207 0.12571 -0.00122
vn 0.56739 0.65659 -0.49695
vn 0.65654 0.75429 -0.00027
vn 0.40535 0.78094 -0.47521
vn 0.46406 0.88580 -0.00001
vn 0.31891 0.37876 -0.86881
vn 0.22397 0.48451 -0.84563
vn 0.16177 0.54775 -0.82085
vn 0.29419 0.84517 -0.44625
vn -0.06018 -0.01077 -0.99813
vn -0.10090 0.02890 -0.99448
vn -0.13276 0.04609 -0.99008
vn -0.16744 0.04447 -0.98488
vn 0.11828 0.60678 -0.78602
vn -0.45179 -0.36366 -0.81464
vn -0.47135 -0.38588 -0.79305
vn -0.48882 -0.44590 -0.74982
vn -0.45978 -0.56845 -0.68225
vn -0.35212 -0.39612 -0.84800
vn -0.68499 -0.57788 -0.44367
vn -0.67460 -0.62606 -0.39111
vn -0.58888 -0.74268 -0.31883
vn -0.40032 -0.88256 -0.24664
vn -0.34137 -0.71738 -0.60731
vn -0.74438 -0.66775 -0.00076
vn -0.63374 -0.77355 -0.00043
vn -0.42225 -0.90648 0.00026
vn -0.15200 -0.98838 0.00000
vn -0.14326 -0.97007 -0.19608
vn -0.56687 0.82381 0.00001
vn -0.42220 0.90650 0.00006
vn -0.39964 0.86444 -0.30501
vn -0.52118 0.75720 -0.39373
vn -0.69126 0.72260 -0.00015
vn -0.24627 0.66045 -0.70933
vn -0.32536 0.55180 -0.76789
vn -0.10211 0.45278 -0.88576
vn -0.16126 0.38559 -0.90847
vn 0.50539 -0.17775 -0.84439
vn 0.47807 -0.42678 -0.76766
vn -0.16993 0.73783 -0.65324
vn -0.07343 0.50312 -0.86109
vn 0.32338 -0.59817 -0.73322
vn -0.10220 0.77938 -0.61816
vn -0.07122 0.53406 -0.84244
vn 0.10158 -0.67446 -0.73129
vn 0.12320 -0.83905 -0.52992
vn -0.12681 -0.65508 -0.74484
vn -0.13414 -0.82264 -0.55251
vn -0.29043 -0.54489 -0.78661
vn -0.04970 0.51249 -0.85726
vn -0.07041 0.54266 -0.83700
vn -0.04502 0.78396 -0.61918
vn 0.00667 0.74900 -0.66253
vn 0.06583 0.68070 -0.72960
vn -0.01157 0.44022 -0.89781
vn 0.06560 0.96072 -0.26965
vn 0.14432 0.92917 -0.34030
vn 0.21727 0.88895 -0.40318
vn 0.15101 0.98853 0.00004
vn 0.23314 0.97244 0.00004
vn 0.32911 0.94429 -0.00000
vn -0.79509 -0.60649 -0.00001
vn -0.77972 -0.62612 0.00006
vn -0.68025 -0.55757 -0.47579
vn -0.68803 -0.53063 -0.49502
vn -0.44308 -0.34551 -0.82723
vn -0.77217 -0.63541 0.00000
vn -0.12803 0.99177 -0.00007
vn -0.01649 0.99986 0.00003
vn -0.01559 0.97604 -0.21702
vn -0.12574 0.97120 -0.20240
vn -0.26136 0.93638 -0.23426
vn -0.26934 0.96305 0.00006
vn 0.06837 0.99766 0.00011
vn 0.41582 0.21531 0.88359
vn 0.44452 0.30993 0.84044
vn -0.00215 0.20853 0.97801
vn 0.03944 0.02739 0.99885
vn 0.30965 -0.34036 0.88785
vn 0.51621 -0.06403 0.85407
vn -0.03743 -0.08694 0.99551
vn 0.29319 -0.39899 0.86882
vn -0.41078 0.19446 0.89075
vn -0.45126 0.12373 0.88377
vn -0.40471 0.25789 0.87733
vn -0.23272 -0.38160 0.89455
vn -0.23923 -0.16036 0.95763
vn -0.76259 -0.04277 0.64547
vn -0.45935 -0.28963 0.83971
vn 0.70894 -0.36168 0.60546
vn 0.26896 -0.27365 0.92346
vn 0.20022 -0.74630 0.63478
vn 0.55019 -0.67374 0.49332
vn 0.78433 0.34020 0.51873
vn 0.90240 0.02954 0.42988
vn 0.71625 -0.39280 0.57680
vn 0.48730 -0.64472 0.58896
vn 0.55424 -0.74001 0.38104
vn 0.47601 -0.66880 0.57107
vn 0.52708 -0.75704 0.38611
vn 0.51516 -0.66302 0.54316
vn 0.53141 -0.68027 0.50481
vn 0.30755 -0.42599 0.85085
vn 0.32061 -0.45730 0.82951
vn -0.07383 -0.14410 0.98681
vn -0.09383 -0.18228 0.97876
vn -0.50172 0.06271 0.86275
vn -0.54496 0.01781 0.83827
vn -0.82255 0.14750 0.54923
vn -0.85300 0.08685 0.51463
vn -0.78911 0.21403 0.57576
vn -0.89834 0.23340 0.37217
vn -0.75404 0.29485 0.58692
vn -0.86928 0.32159 0.37542
vn -0.72372 0.38114 0.57530
vn -0.68211 0.49505 0.53819
vn -0.40803 0.32942 0.85147
vn -0.38534 0.43033 0.81629
vn -0.61599 0.62765 0.47604
vn 0.03368 0.22791 0.97310
vn 0.10992 0.19118 0.97538
vn 0.54475 0.21496 0.81058
vn 0.64509 0.01073 0.76403
vn 0.85877 0.26221 0.44018
vn 0.92173 -0.02018 0.38732
vn 0.75564 0.45279 0.47328
vn 0.70273 0.49574 0.51030
vn 0.88309 -0.34880 0.31385
vn 0.69671 -0.67747 0.23586
vn 0.57932 -0.55496 0.59699
vn 0.67839 -0.26093 0.68681
vn 0.41978 -0.88907 0.18256
vn 0.37640 -0.75411 0.53819
vn 0.13698 -0.97526 0.17349
vn 0.57030 -0.69285 0.44127
vn 0.71392 -0.59840 0.36363
vn 0.37561 -0.48543 0.78948
vn 0.51381 -0.44803 0.73162
vn -0.09109 -0.20753 0.97398
vn 0.32459 -0.33220 0.88560
vn -0.59360 -0.01080 0.80469
vn -0.65174 -0.04303 0.75722
vn -0.41950 -0.07933 0.90428
vn -0.88456 0.03382 0.46521
vn -0.91908 -0.01511 0.39378
vn 0.90525 -0.29769 0.30315
vn 0.95843 0.11457 0.26130
vn 0.69123 -0.24349 0.68037
vn 0.75821 0.08853 0.64597
vn 0.49415 -0.20382 0.84515
vn 0.56893 0.05766 0.82036
vn -0.70368 -0.11230 0.70158
vn -0.71815 -0.19003 0.66944
vn -0.46750 -0.14579 0.87189
vn -0.45581 -0.12125 0.88178
vn -0.94438 -0.10531 0.31155
vn -0.93887 -0.22458 0.26094
vn 0.82753 0.50432 0.24669
vn 0.54059 0.79639 0.27116
vn 0.64287 0.40896 0.64766
vn 0.39920 0.61001 0.68449
vn 0.45972 0.30822 0.83286
vn 0.25052 0.42789 0.86842
vn -0.67775 -0.25265 0.69053
vn -0.59185 -0.31166 0.74336
vn -0.38995 -0.15421 0.90783
vn -0.44479 -0.14585 0.88368
vn -0.89452 -0.35117 0.27662
vn -0.80794 -0.48419 0.33584
vn 0.15967 0.92346 0.34890
vn -0.18494 0.88028 0.43693
vn 0.11946 0.65446 0.74660
vn -0.11596 0.59482 0.79545
vn -0.14424 0.13091 0.98085
vn -0.16803 0.08237 0.98233
vn -0.47624 -0.37834 0.79376
vn -0.31073 -0.45381 0.83517
vn -0.66517 -0.63231 0.39715
vn -0.42550 -0.78654 0.44756
vn -0.09759 -0.86894 0.48521
vn 0.24472 -0.82369 0.51151
vn -0.09662 -0.49420 0.86396
vn 0.11623 -0.46730 0.87643
vn 0.50698 -0.69105 0.51519
vn 0.29050 -0.40004 0.86924
vn -0.09107 0.01975 0.99565
vn -0.14176 0.03800 0.98917
vn -0.02450 0.03633 0.99904
vn 0.39414 -0.34966 0.84994
vn 0.02859 0.06243 0.99764
vn -0.29539 0.46001 0.83734
vn -0.29400 0.46356 0.83587
vn -0.28665 0.47509 0.83194
vn 0.05038 0.07486 0.99592
vn -0.29637 0.48838 0.82076
vn -0.45372 0.73266 0.50730
vn -0.44823 0.72948 0.51666
vn -0.46529 0.73696 0.49030
vn -0.30553 0.50318 0.80837
vn -0.47743 0.74468 0.46639
vn -0.48168 0.75751 0.44065
vn -0.48820 0.76828 0.41402
vn -0.49574 0.77770 0.38656
vn -0.32577 0.53040 0.78266
vn -0.33465 0.54355 0.76978
vn -0.31263 0.51795 0.79623
vn 0.06687 0.07346 0.99505
vn -0.17624 0.32448 0.92933
vn 0.06485 0.07836 0.99481
vn 0.46717 -0.34228 0.81523
vn 0.47595 -0.35891 0.80290
vn 0.44273 -0.33633 0.83119
vn 0.67937 -0.55570 0.47922
vn 0.69335 -0.55493 0.45970
vn 0.63544 -0.58886 0.49946
vn -0.36945 0.78735 0.49354
vn -0.43176 0.73887 0.51735
vn -0.24653 0.51312 0.82215
vn -0.50151 0.78954 0.35371
vn -0.51425 0.79944 0.31055
vn -0.34417 0.56491 0.74995
vn -0.37119 0.59861 0.70985
vn -0.18341 0.34686 0.91981
vn -0.21488 0.39147 0.89475
vn -0.17879 0.32887 0.92730
vn 0.49734 -0.38625 0.77683
vn 0.51041 -0.40362 0.75933
vn 0.30863 -0.21328 0.92696
vn 0.29679 -0.20275 0.93317
vn 0.29225 -0.19727 0.93578
vn 0.48600 -0.37364 0.79006
vn 0.71051 -0.56860 0.41457
vn 0.71666 -0.57868 0.38927
vn 0.70001 -0.56333 0.43891
vn -0.58733 0.76627 0.26053
vn -0.83683 0.49152 0.24108
vn -0.45922 0.59407 0.66045
vn -0.65065 0.37806 0.65858
vn -0.30212 0.40831 0.86140
vn -0.43366 0.25161 0.86524
vn 0.50857 -0.49713 0.70301
vn 0.18226 -0.28252 0.94179
vn 0.18947 -0.15956 0.96884
vn 0.32942 -0.29056 0.89836
vn 0.34211 -0.24214 0.90793
vn 0.53376 -0.43175 0.72711
vn 0.72301 -0.61074 0.32289
vn 0.67879 -0.67694 0.28460
vn 0.71938 -0.59379 0.36041
vn -0.95361 -0.06528 0.29388
vn -0.82008 -0.41898 0.38978
vn -0.71161 -0.04478 0.70115
vn -0.57885 -0.31055 0.75398
vn -0.45693 -0.05328 0.88790
vn -0.00146 -0.25587 0.96671
vn 0.51691 -0.13217 0.84577
vn 0.58924 -0.30616 0.74771
vn 0.29469 -0.05778 0.95384
vn 0.00641 -0.19197 0.98138
vn 0.07024 -0.09835 0.99267
vn -0.07529 -0.07922 0.99401
vn -0.07006 -0.95608 0.28462
vn -0.66362 -0.67892 0.31413
vn -0.59923 -0.63141 0.49218
vn -0.06819 -0.88924 0.45233
vn 0.40621 -0.80717 0.42834
vn 0.44381 -0.85282 0.27521
vn -0.93262 -0.06677 0.35464
vn -0.85138 0.34045 0.39906
vn -0.76042 0.28482 0.58364
vn -0.83948 -0.08059 0.53739
vn -0.77791 0.42609 0.46185
vn -0.67309 0.35491 0.64883
vn -0.74660 0.42751 0.50973
vn -0.72938 -0.50259 0.46412
vn -0.70056 -0.51347 0.49555
vn -0.48094 -0.34983 0.80394
vn -0.44850 -0.33415 0.82897
vn 0.00542 -0.20540 0.97866
vn -0.01854 -0.08014 0.99661
vn 0.52130 -0.17586 0.83506
vn 0.44140 0.16737 0.88156
vn 0.84566 -0.22880 0.48219
vn 0.78270 0.34264 0.51959
vn 0.83381 -0.41451 0.36460
vn 0.90292 -0.29379 0.31372
vn 0.64225 0.66294 0.38473
vn 0.79994 0.49106 0.34489
vn 0.71821 0.41810 0.55620
vn 0.56322 0.55536 0.61185
vn 0.66535 0.61475 0.42355
vn 0.55742 0.52104 0.64638
vn 0.88962 0.21642 0.40217
vn 0.77303 0.19836 0.60255
vn 0.80555 0.01549 0.59233
vn 0.91402 0.01983 0.40519
vn -0.06740 0.05616 0.99614
vn -0.00564 0.13694 0.99056
vn 0.76638 -0.01080 0.64229
vn 0.89069 -0.00602 0.45457
vn 0.03056 0.14365 0.98916
vn 0.72813 -0.01166 0.68534
vn 0.86527 -0.00628 0.50126
vn 0.03296 0.13089 0.99085
vn 0.03634 0.10307 0.99401
vn 0.38901 0.04766 0.92000
vn -0.71724 0.42472 0.55243
vn -0.58611 0.33573 0.73740
vn -0.62897 0.35045 0.69396
vn -0.68995 0.41277 0.59463
vn -0.26158 0.20316 0.94356
vn -0.79653 0.48610 0.35950
vn 0.84045 -0.00199 0.54188
vn 0.81323 -0.00353 0.58193
vn 0.93533 0.00347 0.35376
vn 0.35656 0.03394 0.93366
vn 0.32196 -0.02468 0.94643
vn 0.78402 -0.09942 0.61273
vn -0.23884 0.13012 0.96230
vn -0.71112 0.30394 0.63398
vn -0.85863 0.35620 0.36862
vn 0.92595 -0.11795 0.35876
vn -0.27178 -0.90643 0.32329
vn -0.48761 -0.82390 0.28883
vn -0.92600 -0.23878 0.29241
vn 0.56736 0.65689 0.49660
vn 0.40534 0.78087 0.47533
vn 0.31907 0.37900 0.86865
vn 0.22407 0.48452 0.84560
vn 0.29494 0.84505 0.44599
vn 0.16340 0.54743 0.82074
vn -0.10142 0.02912 0.99442
vn -0.06013 -0.01066 0.99813
vn -0.13066 0.04554 0.99038
vn 0.11979 0.60646 0.78604
vn -0.16616 0.04391 0.98512
vn -0.47140 -0.38599 0.79296
vn -0.45308 -0.36333 0.81407
vn -0.48846 -0.44628 0.74982
vn -0.35902 -0.39680 0.84478
vn -0.46281 -0.56833 0.68030
vn -0.67529 -0.62535 0.39105
vn -0.68613 -0.57725 0.44272
vn -0.58845 -0.74301 0.31885
vn -0.34490 -0.71688 0.60591
vn -0.40167 -0.88226 0.24554
vn -0.14505 -0.96988 0.19566
vn -0.52111 0.75696 0.39429
vn -0.39806 0.86521 0.30491
vn -0.32511 0.55127 0.76837
vn -0.24667 0.66082 0.70886
vn -0.16023 0.38594 0.90850
vn -0.10266 0.45350 0.88532
vn 0.47292 -0.42400 0.77238
vn 0.50954 -0.17301 0.84287
vn -0.07436 0.50438 0.86027
vn -0.17125 0.73822 0.65247
vn 0.32258 -0.59724 0.73434
vn -0.07147 0.53494 0.84186
vn -0.10196 0.77956 0.61797
vn 0.12301 -0.83902 0.53001
vn 0.10158 -0.67416 0.73157
vn -0.13509 -0.82218 0.55296
vn -0.12575 -0.65386 0.74609
vn -0.29185 -0.54489 0.78608
vn 0.00829 0.74922 0.66227
vn -0.04398 0.78447 0.61861
vn -0.07014 0.54342 0.83653
vn -0.05105 0.51222 0.85734
vn -0.01121 0.43945 0.89820
vn 0.06648 0.68059 0.72964
vn 0.14610 0.92900 0.34003
vn 0.06819 0.96067 0.26920
vn 0.21729 0.88894 0.40320
vn -0.68829 -0.53041 0.49490
vn -0.68067 -0.55737 0.47542
vn -0.44351 -0.34530 0.82708
vn -0.12541 0.97119 0.20263
vn -0.01501 0.97612 0.21672
vn -0.26170 0.93634 0.23406
f 1//1 3//2 4//3 5//4
f 1//1 5//4 6//5 7//6
f 1//1 7//6 8//7 9//8
f 1//1 9//8 10//9 11//10
f 1//1 11//10 12//11 3//2
f 13//12 14//13 15//14 16//15
f 17//16 18//17 19//18 20//19
f 2//20 23//21 22//22 21//23
f 2//20 24//24 6//5 23//21
f 2//20 21//23 328//25 24//24
f 24//24 25//26 7//6 6//5
f 24//24 328//25 329//27 25//26
f 329//27 26//28 27//29 25//26
f 28//30 29//31 30//32 31//33
f 28//30 31//33 27//29 26//28
f 31//33 30//32 32//34 33//35
f 31//33 33//35 8//7 27//29
f 33//35 32//34 34//36 35//37
f 33//35 35//37 9//8 8//7
f 35//37 34//36 36//38 37//39
f 35//37 37//39 10//9 9//8
f 37//39 36//38 38//40 39//41
f 37//39 39//41 40//42 10//9
f 40//42 39//41 41//43 42//44
f 40//42 42//44 43//45 44//46
f 40//42 44//46 11//10 10//9
f 44//46 43//45 45//47 46//48
f 44//46 46//48 12//11 11//10
f 46//48 45//47 330//49 47//50
f 46//48 47//50 48//51 12//11
f 48//51 47//50 49//52 50//53
f 48//51 50//53 51//54 52//55
f 48//51 52//55 3//2 12//11
f 52//55 51//54 53//56 54//57
f 52//55 54//57 4//3 3//2
f 54//57 53//56 55//58 56//59
f 54//57 56//59 57//60 4//3
f 57//60 58//61 5//4 4//3
f 57//60 56//59 331//62 59//63
f 57//60 59//63 60//64 58//61
f 60//64 22//22 23//21 58//61
f 332//65 333//66 55//58 62//67
f 332//65 62//67 63//68 61//69
f 63//68 62//67 64//70 65//71
f 63//68 65//71 66//72 67//73
f 63//68 67//73 68//74 61//69
f 68//74 67//73 69//75 70//76
f 334//77 71//78 72//79 73//80
f 334//77 73//80 30//32 29//31
f 73//80 72//79 74//81 75//82
f 73//80 75//82 32//34 30//32
f 75//82 74//81 76//83 77//84
f 75//82 77//84 34//36 32//34
f 77//84 76//85 78//86 79//87
f 77//84 79//87 36//38 34//36
f 79//87 78//86 80//88 81//89
f 79//87 81//89 38//40 36//38
f 81//89 80//88 82//90 335//91
f 81//89 335//91 336//92 38//40
f 336//92 41//43 39//41 38//40
f 83//93 337//94 84//95 85//96
f 83//93 85//96 72//79 71//78
f 85//96 84//95 86//97 87//98
f 85//96 87//98 74//81 72//79
f 87//98 86//97 88//99 89//100
f 87//98 89//100 76//83 74//81
f 89//101 88//102 90//103 91//104
f 89//101 91//104 78//86 76//85
f 91//104 90//103 92//105 93//106
f 91//104 93//106 80//88 78//86
f 93//106 92//105 94//107 95//108
f 93//106 95//108 82//90 80//88
f 338//109 96//110 97//111 98//112
f 338//109 98//112 84//95 337//94
f 98//112 97//111 99//113 100//114
f 98//112 100//114 86//97 84//95
f 100//114 99//113 101//115 102//116
f 100//114 102//116 88//99 86//97
f 102//117 101//118 103//119 104//120
f 102//117 104//120 90//103 88//102
f 104//120 103//119 105//121 106//122
f 104//120 106//122 92//105 90//103
f 106//122 105//121 339//123 340//124
f 106//122 340//124 94//107 92//105
f 342//125 341//126 107//127 108//128
f 342//125 108//128 97//111 96//110
f 108//128 107//127 109//129 110//130
f 108//128 110//130 99//113 97//111
f 110//130 109//129 111//131 112//132
f 110//130 112//132 101//115 99//113
f 112//132 111//131 113//133 114//134
f 112//132 114//134 103//119 101//118
f 114//134 113//133 115//135 116//136
f 114//134 116//136 105//121 103//119
f 116//136 115//135 343//137 344//138
f 116//136 344//138 339//123 105//121
f 343//137 115//135 118//139 117//140
f 118//139 119//141 120//142 117//140
f 118//139 115//135 113//133 121//143
f 118//139 121//143 122//144 119//141
f 122//144 123//145 124//146 119//141
f 122//144 121//143 125//147 126//148
f 122//144 126//148 127//149 123//145
f 127//149 128//150 129//151 123//145
f 127//149 126//148 130//152 131//153
f 127//149 131//153 132//154 128//150
f 132//154 133//155 134//156 128//150
f 132//154 131//153 135//157 136//158
f 132//154 136//158 137//159 133//155
f 137//159 138//160 139//161 133//155
f 137//159 136//158 345//162 346//163
f 137//159 346//163 140//164 138//160
f 140//164 141//165 142//166 138//160
f 143//167 144//168 145//169 146//170
f 143//167 146//170 142//166 141//165
f 146//170 145//169 147//171 148//172
f 146//170 148//172 149//173 142//166
f 149//173 148//172 150//174 151//175
f 149//173 151//175 152//176 139//161
f 149//173 139//161 138//160 142//166
f 152//176 151//175 153//177 154//178
f 152//176 154//178 155//179 134//156
f 152//176 134//156 133//155 139//161
f 155//179 154//178 156//180 157//181
f 155//179 157//181 158//182 129//151
f 155//179 129//151 128//150 134//156
f 158//182 157//181 347//183 159//184
f 158//182 159//184 160//185 124//146
f 158//182 124//146 123//145 129//151
f 160//185 120//142 119//141 124//146
f 349//186 348//187 161//188 162//189
f 349//186 162//189 107//127 341//126
f 162//189 161//188 130//152 163//190
f 162//189 163//190 109//129 107//127
f 163//190 130//152 126//148 125//147
f 163//190 125//147 111//131 109//129
f 161//188 135//157 131//153 130//152
f 161//188 348//187 350//191 135//157
f 350//191 345//162 136//158 135//157
f 352//192 351//193 164//194 165//195
f 352//192 165//195 145//169 144//168
f 165//195 164//194 166//196 167//197
f 165//195 167//197 147//171 145//169
f 167//197 166//196 168//198 169//199
f 167//197 169//199 170//200 147//171
f 170//201 169//202 171//203 172//204
f 170//201 172//204 173//205 150//206
f 170//200 150//174 148//172 147//171
f 173//205 172//204 174//207 175//208
f 173//205 175//208 176//209 153//177
f 173//205 153//177 151//175 150//206
f 176//209 175//208 353//210 354//211
f 176//209 354//211 355//212 156//180
f 176//209 156//180 154//178 153//177
f 355//212 347//183 157//181 156//180
f 357//213 356//214 179//215 180//216
f 357//213 180//216 164//194 351//193
f 180//216 179//215 181//217 182//218
f 180//216 182//218 166//196 164//194
f 182//218 181//217 183//219 184//220
f 182//218 184//220 168//198 166//196
f 184//221 183//222 185//223 186//224
f 184//221 186//224 187//225 168//226
f 187//225 186//224 188//227 189//228
f 187//225 189//228 190//229 171//203
f 187//225 171//203 169//202 168//226
f 190//229 189//228 358//230 178//231
f 190//229 178//231 177//232 174//207
f 190//229 174//207 172//204 171//203
f 358//230 189//228 188//227 359//233
f 193//234 192//235 194//236 195//237
f 193//234 195//237 179//215 356//214
f 195//237 194//236 196//238 197//239
f 195//237 197//239 181//217 179//215
f 197//239 196//238 198//240 199//241
f 197//239 199//241 183//219 181//217
f 199//242 198//240 200//243 201//244
f 202//245 203//246 185//223 183//222
f 199//242 201//244 202//245 183//222
f 203//246 202//245 204//247 205//247
f 203//248 205//249 206//250 207//251
f 203//248 207//251 208//252 185//253
f 208//252 207//251 209//254 191//255
f 208//252 191//255 359//233 188//227
f 208//252 188//227 186//224 185//253
f 209//254 207//251 206//250 360//256
f 361//257 360//258 206//250 211//259
f 361//257 211//259 212//260 210//261
f 212//260 211//259 213//262 214//263
f 212//260 214//263 215//264 216//265
f 212//260 216//265 217//266 210//261
f 217//266 216//265 218//267 219//268
f 363//269 223//270 224//271 225//272
f 363//269 225//272 194//236 192//235
f 225//272 224//271 226//273 227//274
f 225//272 227//274 196//238 194//236
f 227//274 226//273 228//275 229//276
f 227//274 229//276 198//240 196//238
f 229//276 228//275 230//277 231//278
f 229//276 231//278 200//243 198//240
f 231//278 230//277 232//279 233//280
f 231//278 233//280 234//281 200//243
f 234//281 233//280 222//282 362//283
f 234//281 362//283 221//284 235//285
f 234//281 235//285 201//244 200//243
f 235//286 221//287 220//288 236//289
f 235//286 236//289 202//290 201//291
f 236//289 220//288 364//292 237//293
f 236//289 237//293 204//294 202//290
f 237//293 364//292 238//295 239//296
f 237//293 239//296 240//297 204//294
f 240//297 239//296 241//298 242//299
f 240//300 242//301 214//301 213//300
f 240//300 213//300 205//247 204//247
f 242//299 241//298 243//302 244//303
f 242//301 244//304 215//304 214//301
f 244//303 243//302 245//305 246//306
f 244//304 246//307 247//307 215//304
f 247//307 246//307 248//308 249//309
f 247//310 249//311 250//312 218//267
f 247//310 218//267 216//265 215//264
f 250//312 249//311 251//313 252//314
f 250//312 252//314 253//315 254//316
f 250//312 254//316 219//268 218//267
f 256//317 255//318 243//302 241//298
f 256//317 241//298 239//296 238//295
f 255//318 365//319 245//305 243//302
f 365//319 366//320 257//321 245//305
f 257//321 366//320 258//322 259//323
f 257//321 259//323 260//324 248//308
f 257//321 248//308 246//306 245//305
f 260//324 259//323 261//325 262//326
f 260//324 262//326 263//327 251//313
f 260//324 251//313 249//309 248//308
f 263//327 262//326 19//18 15//14
f 263//327 15//14 14//13 264//328
f 263//327 264//328 252//314 251//313
f 264//328 14//13 265//329 367//330
f 264//328 367//330 253//315 252//314
f 266//331 368//332 20//19 261//325
f 266//331 261//325 259//323 258//322
f 368//332 369//333 17//16 20//19
f 369//333 267//334 18//335 17//16
f 267//334 268//336 16//337 18//335
f 268//336 269//338 13//339 16//337
f 269//340 265//329 14//13 13//341
f 262//326 261//325 20//19 19//18
f 233//280 232//279 270//342 222//343
f 270//342 232//279 272//344 271//345
f 272//344 273//346 274//347 271//345
f 272//344 232//279 230//277 275//348
f 272//344 275//348 276//349 273//346
f 276//349 277//350 278//351 273//346
f 276//349 275//348 279//352 280//353
f 276//349 280//353 281//354 277//350
f 281//354 282//355 283//356 277//350
f 281//354 280//353 284//357 285//358
f 281//354 285//358 286//359 282//355
f 286//359 287//360 288//361 282//355
f 286//359 285//358 289//362 290//363
f 286//359 290//363 291//364 287//360
f 291//364 292//365 293//366 287//360
f 291//364 290//363 294//367 295//368
f 291//364 295//368 370//369 292//365
f 370//369 371//370 296//371 292//365
f 298//372 297//373 299//374 300//375
f 298//372 300//375 49//52 301//376
f 301//376 49//52 47//50 330//49
f 300//375 299//374 302//377 303//378
f 300//375 303//378 50//53 49//52
f 303//378 302//377 304//379 305//380
f 303//378 305//380 51//54 50//53
f 305//381 304//382 65//71 64//70
f 305//381 64//70 53//56 51//54
f 304//379 302//377 306//383 307//384
f 304//382 307//385 66//72 65//71
f 307//384 306//383 308//386 309//387
f 307//385 309//388 310//389 66//72
f 310//389 309//388 311//390 312//391
f 310//389 312//391 296//371 69//75
f 310//389 69//75 67//73 66//72
f 312//391 311//390 313//392 293//366
f 312//391 293//366 292//365 296//371
f 313//393 311//394 314//395 315//396
f 313//393 315//396 316//397 288//398
f 313//392 288//361 287//360 293//366
f 316//397 315//396 317//399 318//400
f 316//397 318//400 319//401 283//356
f 316//397 283//356 282//355 288//398
f 319//401 318//400 320//402 373//403
f 319//401 373//403 374//404 278//351
f 319//401 278//351 277//350 283//356
f 374//404 274//347 273//346 278//351
f 321//405 375//406 322//407 323//408
f 321//405 323//408 224//271 223//270
f 323//408 322//407 284//357 324//409
f 323//408 324//409 226//273 224//271
f 324//409 284//357 280//353 279//352
f 324//409 279//352 228//275 226//273
f 322//407 289//362 285//358 284//357
f 322//407 375//406 376//410 289//362
f 376//410 294//367 290//363 289//362
f 378//411 377//412 325//413 326//414
f 378//411 326//414 327//415 372//416
f 327//415 299//374 297//373 372//416
f 327//415 326//414 308//386 306//383
f 327//415 306//383 302//377 299//374
f 326//414 325//413 314//395 308//386
f 325//413 377//412 379//417 317//399
f 325//413 317//399 315//396 314//395
f 379//417 320//402 318//400 317//399
f 314//395 311//394 309//387 308//386
f 296//371 371//370 70//76 69//75
f 279//352 275//348 230//277 228//275
f 213//262 211//259 206//250 205//249
f 177//232 353//210 175//208 174//207
f 125//147 121//143 113//133 111//131
f 64//70 62//67 55//58 53//56
f 333//66 331//62 56//59 55//58
f 58//61 23//21 6//5 5//4
f 27//29 8//7 7//6 25//26
f 19//18 18//17 16//15 15//14
f 384//418 383//419 382//420 380//421
f 386//422 385//423 384//418 380//421
f 388//424 387//425 386//422 380//421
f 390//426 389//427 388//424 380//421
f 382//420 391//428 390//426 380//421
f 395//429 394//430 393//431 392//432
f 399//433 398//434 397//435 396//436
f 21//23 22//22 400//437 381//438
f 400//437 385//423 401//439 381//438
f 401//439 328//25 21//23 381//438
f 385//423 386//422 402//440 401//439
f 402//440 329//441 328//25 401//439
f 402//440 403//442 26//443 329//441
f 405//444 404//445 29//31 28//30
f 26//443 403//442 405//444 28//30
f 407//446 406//447 404//445 405//444
f 403//442 387//425 407//446 405//444
f 409//448 408//449 406//447 407//446
f 387//425 388//424 409//448 407//446
f 411//450 410//451 408//449 409//448
f 388//424 389//427 411//450 409//448
f 413//452 412//453 410//451 411//450
f 389//427 414//454 413//452 411//450
f 42//455 41//43 413//452 414//454
f 415//456 43//457 42//455 414//454
f 389//427 390//426 415//456 414//454
f 416//458 45//47 43//457 415//456
f 390//426 391//428 416//458 415//456
f 417//459 330//49 45//47 416//458
f 391//428 418//460 417//459 416//458
f 420//461 419//462 417//459 418//460
f 422//463 421//464 420//461 418//460
f 391//428 382//420 422//463 418//460
f 424//465 423//466 421//464 422//463
f 382//420 383//419 424//465 422//463
f 426//467 425//468 423//466 424//465
f 383//419 427//469 426//467 424//465
f 383//419 384//418 428//470 427//469
f 59//63 331//62 426//467 427//469
f 428//470 60//64 59//63 427//469
f 428//470 400//437 22//22 60//64
f 429//471 425//468 333//66 332//65
f 61//69 430//472 429//471 332//65
f 432//473 431//474 429//471 430//472
f 434//475 433//476 432//473 430//472
f 61//69 68//74 434//475 430//472
f 70//76 435//477 434//475 68//74
f 437//478 436//479 71//78 334//77
f 29//31 404//445 437//478 334//77
f 439//480 438//481 436//479 437//478
f 404//445 406//447 439//480 437//478
f 441//482 440//483 438//481 439//480
f 406//447 408//449 441//482 439//480
f 443//484 442//485 440//486 441//482
f 408//449 410//451 443//484 441//482
f 445//487 444//488 442//485 443//484
f 410//451 412//453 445//487 443//484
f 335//91 82//90 444//488 445//487
f 412//453 336//92 335//91 445//487
f 412//453 413//452 41//43 336//92
f 447//489 446//490 337//94 83//93
f 71//78 436//479 447//489 83//93
f 449//491 448//492 446//490 447//489
f 436//479 438//481 449//491 447//489
f 451//493 450//494 448//492 449//491
f 438//481 440//483 451//493 449//491
f 453//495 452//496 450//497 451//498
f 440//486 442//485 453//495 451//498
f 455//499 454//500 452//496 453//495
f 442//485 444//488 455//499 453//495
f 95//108 94//107 454//500 455//499
f 444//488 82//90 95//108 455//499
f 457//501 456//502 96//110 338//109
f 337//94 446//490 457//501 338//109
f 459//503 458//504 456//502 457//501
f 446//490 448//492 459//503 457//501
f 461//505 460//506 458//504 459//503
f 448//492 450//494 461//505 459//503
f 463//507 462//508 460//509 461//510
f 450//497 452//496 463//507 461//510
f 465//511 464//512 462//508 463//507
f 452//496 454//500 465//511 463//507
f 340//124 339//123 464//512 465//511
f 454//500 94//107 340//124 465//511
f 467//513 466//514 341//126 342//125
f 96//110 456//502 467//513 342//125
f 469//515 468//516 466//514 467//513
f 456//502 458//504 469//515 467//513
f 471//517 470//518 468//516 469//515
f 458//504 460//506 471//517 469//515
f 473//519 472//520 470//518 471//517
f 460//509 462//508 473//519 471//517
f 475//521 474//522 472//520 473//519
f 462//508 464//512 475//521 473//519
f 344//138 343//137 474//522 475//521
f 464//512 339//123 344//138 475//521
f 117//140 476//523 474//522 343//137
f 117//140 120//142 477//524 476//523
f 478//525 472//520 474//522 476//523
f 477//524 479//526 478//525 476//523
f 477//524 481//527 480//528 479//526
f 483//529 482//530 478//525 479//526
f 480//528 484//531 483//529 479//526
f 480//528 486//532 485//533 484//531
f 488//534 487//535 483//529 484//531
f 485//533 489//536 488//534 484//531
f 485//533 491//537 490//538 489//536
f 493//539 492//540 488//534 489//536
f 490//538 494//541 493//539 489//536
f 490//538 496//542 495//543 494//541
f 346//163 345//162 493//539 494//541
f 495//543 140//164 346//163 494//541
f 495//543 497//544 141//165 140//164
f 499//545 498//546 144//168 143//167
f 141//165 497//544 499//545 143//167
f 501//547 500//548 498//546 499//545
f 497//544 502//549 501//547 499//545
f 504//550 503//551 501//547 502//549
f 496//542 505//552 504//550 502//549
f 497//544 495//543 496//542 502//549
f 507//553 506//554 504//550 505//552
f 491//537 508//555 507//553 505//552
f 496//542 490//538 491//537 505//552
f 510//556 509//557 507//553 508//555
f 486//532 511//558 510//556 508//555
f 491//537 485//533 486//532 508//555
f 159//184 347//183 510//556 511//558
f 481//527 160//185 159//184 511//558
f 486//532 480//528 481//527 511//558
f 481//527 477//524 120//142 160//185
f 513//559 512//560 348//187 349//186
f 341//126 466//514 513//559 349//186
f 514//561 487//535 512//560 513//559
f 466//514 468//516 514//561 513//559
f 482//530 483//529 487//535 514//561
f 468//516 470//518 482//530 514//561
f 487//535 488//534 492//540 512//560
f 492//540 350//191 348//187 512//560
f 492//540 493//539 345//162 350//191
f 516//562 515//563 351//193 352//192
f 144//168 498//546 516//562 352//192
f 518//564 517//565 515//563 516//562
f 498//546 500//548 518//564 516//562
f 520//566 519//567 517//565 518//564
f 500//548 521//568 520//566 518//564
f 523//569 522//570 520//571 521//572
f 503//573 524//574 523//569 521//572
f 500//548 501//547 503//551 521//568
f 526//575 525//576 523//569 524//574
f 506//554 527//577 526//575 524//574
f 503//573 504//550 506//554 524//574
f 354//211 353//210 526//575 527//577
f 509//557 355//212 354//211 527//577
f 506//554 507//553 509//557 527//577
f 509//557 510//556 347//183 355//212
f 529//578 528//579 356//214 357//213
f 351//193 515//563 529//578 357//213
f 531//580 530//581 528//579 529//578
f 515//563 517//565 531//580 529//578
f 533//582 532//583 530//581 531//580
f 517//565 519//567 533//582 531//580
f 535//584 534//585 532//586 533//587
f 519//588 536//589 535//584 533//587
f 538//590 537//591 535//584 536//589
f 522//570 539//592 538//590 536//589
f 519//588 520//571 522//570 536//589
f 178//231 358//230 538//590 539//592
f 525//576 177//232 178//231 539//592
f 522//570 523//569 525//576 539//592
f 359//233 537//591 538//590 358//230
f 541//593 540//594 192//235 193//234
f 356//214 528//579 541//593 193//234
f 543//595 542//596 540//594 541//593
f 528//579 530//581 543//595 541//593
f 545//597 544//598 542//596 543//595
f 530//581 532//583 545//597 543//595
f 547//599 546//600 544//598 545//601
f 532//586 534//585 549//602 548//603
f 532//586 548//603 547//599 545//601
f 551//604 550//604 548//603 549//602
f 553//605 552//606 551//607 549//608
f 534//609 554//610 553//605 549//608
f 191//255 209//254 553//605 554//610
f 537//591 359//233 191//255 554//610
f 534//609 535//584 537//591 554//610
f 360//256 552//606 553//605 209//254
f 555//611 552//606 360//258 361//257
f 210//261 556//612 555//611 361//257
f 558//613 557//614 555//611 556//612
f 560//615 559//616 558//613 556//612
f 210//261 217//266 560//615 556//612
f 219//268 561//617 560//615 217//266
f 563//618 562//619 223//270 363//269
f 192//235 540//594 563//618 363//269
f 565//620 564//621 562//619 563//618
f 540//594 542//596 565//620 563//618
f 567//622 566//623 564//621 565//620
f 542//596 544//598 567//622 565//620
f 569//624 568//625 566//623 567//622
f 544//598 546//600 569//624 567//622
f 571//626 570//627 568//625 569//624
f 546//600 572//628 571//626 569//624
f 362//283 222//282 571//626 572//628
f 573//629 221//284 362//283 572//628
f 546//600 547//599 573//629 572//628
f 574//630 220//288 221//287 573//631
f 547//632 548//633 574//630 573//631
f 575//634 364//292 220//288 574//630
f 548//633 550//635 575//634 574//630
f 576//636 238//295 364//292 575//634
f 550//635 577//637 576//636 575//634
f 579//638 578//639 576//636 577//637
f 557//640 558//641 579//641 577//640
f 550//604 551//604 557//640 577//640
f 581//642 580//643 578//639 579//638
f 558//641 559//644 581//644 579//641
f 583//645 582//646 580//643 581//642
f 559//644 584//647 583//647 581//644
f 586//648 585//649 583//647 584//647
f 561//617 587//650 586//651 584//652
f 559//616 560//615 561//617 584//652
f 589//653 588//654 586//651 587//650
f 254//316 253//655 589//653 587//650
f 561//617 219//268 254//316 587//650
f 578//639 580//643 255//318 256//317
f 238//295 576//636 578//639 256//317
f 580//643 582//646 365//319 255//318
f 582//646 590//656 366//320 365//319
f 591//657 258//658 366//320 590//656
f 585//649 592//659 591//657 590//656
f 582//646 583//645 585//649 590//656
f 594//660 593//661 591//657 592//659
f 588//654 595//662 594//660 592//659
f 585//649 586//648 588//654 592//659
f 394//430 398//434 594//660 595//662
f 596//663 393//431 394//430 595//662
f 588//654 589//653 596//663 595//662
f 367//664 265//329 393//431 596//663
f 589//653 253//655 367//664 596//663
f 593//661 399//433 368//332 266//665
f 258//658 591//657 593//661 266//665
f 399//433 396//436 369//333 368//332
f 396//436 397//435 267//334 369//333
f 397//435 395//666 268//336 267//334
f 395//666 392//667 269//338 268//336
f 392//668 393//431 265//329 269//340
f 398//434 399//433 593//661 594//660
f 222//343 270//342 570//627 571//626
f 271//345 597//669 570//627 270//342
f 271//345 274//347 598//670 597//669
f 599//671 568//625 570//627 597//669
f 598//670 600//672 599//671 597//669
f 598//670 602//673 601//674 600//672
f 604//675 603//676 599//671 600//672
f 601//674 605//677 604//675 600//672
f 601//674 607//678 606//679 605//677
f 609//680 608//681 604//675 605//677
f 606//679 610//682 609//680 605//677
f 606//679 612//683 611//684 610//682
f 614//685 613//686 609//680 610//682
f 611//684 615//687 614//685 610//682
f 611//684 617//688 616//689 615//687
f 295//368 294//367 614//685 615//687
f 616//689 370//369 295//368 615//687
f 616//689 618//690 371//370 370//369
f 620//691 619//692 297//373 298//372
f 301//376 419//462 620//691 298//372
f 330//49 417//459 419//462 301//376
f 622//693 621//694 619//692 620//691
f 419//462 420//461 622//693 620//691
f 624//695 623//696 621//694 622//693
f 420//461 421//464 624//695 622//693
f 431//474 432//473 623//697 624//698
f 421//464 423//466 431//474 624//698
f 626//699 625//700 621//694 623//696
f 432//473 433//476 626//701 623//697
f 628//702 627//703 625//700 626//699
f 433//476 629//704 628//705 626//701
f 631//706 630//707 628//705 629//704
f 435//477 618//690 631//706 629//704
f 433//476 434//475 435//477 629//704
f 617//688 632//708 630//707 631//706
f 618//690 616//689 617//688 631//706
f 634//709 633//710 630//711 632//712
f 612//713 635//714 634//709 632//712
f 617//688 611//684 612//683 632//708
f 637//715 636//716 634//709 635//714
f 607//678 638//717 637//715 635//714
f 612//713 606//679 607//678 635//714
f 373//403 320//402 637//715 638//717
f 602//673 374//404 373//403 638//717
f 607//678 601//674 602//673 638//717
f 602//673 598//670 274//347 374//404
f 640//718 639//719 375//406 321//405
f 223//270 562//619 640//718 321//405
f 641//720 608//681 639//719 640//718
f 562//619 564//621 641//720 640//718
f 603//676 604//675 608//681 641//720
f 564//621 566//623 603//676 641//720
f 608//681 609//680 613//686 639//719
f 613//686 376//410 375//406 639//719
f 613//686 614//685 294//367 376//410
f 643//721 642//722 377//412 378//411
f 372//416 644//723 643//721 378//411
f 372//416 297//373 619//692 644//723
f 625//700 627//703 643//721 644//723
f 619//692 621//694 625//700 644//723
f 627//703 633//710 642//722 643//721
f 636//716 379//417 377//412 642//722
f 633//710 634//709 636//716 642//722
f 636//716 637//715 320//402 379//417
f 627//703 628//702 630//711 633//710
f 435//477 70//76 371//370 618//690
f 566//623 568//625 599//671 603//676
f 551//607 552//606 555//611 557//614
f 525//576 526//575 353//210 177//232
f 470//518 472//520 478//525 482//530
f 423//466 425//468 429//471 431//474
f 425//468 426//467 331//62 333//66
f 384//418 385//423 400//437 428//470
f 402//440 386//422 387//425 403//442
f 394//430 395//429 397//435 398//434
