# pilowlava3D glyph 'h' variant 2 — Vincent Wagner / Velvetyne, Free Art License
v 1.16236 0.32009 0.49991
v 3.74538 2.18121 0.43462
v 3.56206 2.00866 0.45039
v 0.45984 2.41711 0.38710
v 0.67027 2.32578 0.35227
v 1.52169 0.47558 0.38381
v 3.06856 0.45917 0.24704
v 0.34547 4.29202 0.40803
v 0.90370 4.16331 0.43094
v 3.96391 0.27423 0.38150
v 1.30862 0.44333 0.50551
v 1.18995 0.61131 0.55046
v 0.99886 0.43226 0.54476
v 0.83405 0.26754 0.42663
v 1.14342 0.18443 0.41159
v 1.40399 0.30969 0.42207
v 3.79737 2.03044 0.44222
v 3.95304 2.03134 0.36354
v 3.90231 2.26318 0.37927
v 3.70087 2.33824 0.39912
v 3.51658 2.26487 0.41237
v 3.45634 1.86639 0.34252
v 3.62189 1.71476 0.33361
v 3.73433 1.75511 0.43376
v 3.86419 1.77937 0.43750
v 0.55852 2.53787 0.31199
v 0.45134 2.71319 0.32225
v 0.35849 2.68648 0.37539
v 0.43530 2.12958 0.39447
v 0.55077 2.11999 0.37907
v 0.72513 2.46232 0.29468
v 0.62741 2.10392 0.29626
v 0.73496 2.25097 0.27207
v 1.48225 0.17647 0.24593
v 1.63162 0.44411 0.23683
v 1.63120 0.68264 0.23314
v 1.47992 0.61936 0.41621
v 3.01941 0.44061 -0.00000
v 3.00870 0.66136 -0.00000
v 3.18664 0.29639 0.29613
v 3.25677 0.48934 0.44894
v 3.08287 0.62854 0.28656
v 0.28014 4.39984 0.25532
v 0.07821 4.15928 0.25668
v 0.27197 4.12311 0.45673
v 0.60486 4.07368 0.52921
v 0.63731 4.27107 0.44697
v 0.66975 4.45724 0.26158
v 0.90928 3.97512 0.45532
v 1.14645 3.94508 0.27028
v 1.04767 4.28095 0.28352
v 2.57245 4.00424 0.24105
v 2.64732 3.84804 0.31351
v 2.78226 4.08548 0.45952
v 2.61844 4.20412 0.27766
v 2.88478 4.28866 0.42728
v 2.83603 4.41528 0.26455
v 4.01839 0.47338 0.40113
v 3.79700 0.49977 0.51637
v 3.75769 0.25344 0.44702
v 4.02670 0.17859 0.24257
v 4.16334 0.44658 0.22099
v 3.73123 0.06155 0.26637
v 3.72765 0.00000 -0.00000
v 4.05358 0.13303 -0.00000
v 3.49120 0.33522 0.48068
v 3.42587 0.12269 0.28923
v 3.14593 0.22330 -0.00000
v 3.48869 1.37869 -0.00000
v 3.26031 1.03278 0.25943
v 3.40249 1.19603 0.23510
v 3.52808 1.35786 0.20320
v 3.51915 1.12089 0.43023
v 3.62423 1.32371 0.38191
v 3.66428 1.52349 0.34812
v 3.59241 1.52311 0.18226
v 3.57076 1.52511 -0.00000
v 3.55151 1.67977 0.17477
v 3.53398 1.67033 -0.00000
v 4.19394 0.98751 -0.00000
v 4.22237 0.72808 -0.00000
v 4.21460 0.42571 -0.00000
v 4.16029 0.72852 0.20867
v 4.13454 0.97920 0.20101
v 4.01031 0.97517 0.37910
v 4.01706 0.72667 0.39458
v 3.85036 0.99511 0.49468
v 3.82117 0.74521 0.51700
v 3.67887 1.04449 0.51883
v 3.60651 0.81065 0.55159
v 3.55370 0.57464 0.55587
v 3.40439 0.92668 0.46614
v 3.32095 0.71196 0.48736
v 3.14483 0.83983 0.28218
v 3.88736 1.25618 0.46428
v 3.75603 1.28658 0.47425
v 3.89852 1.51877 0.43805
v 3.78165 1.52317 0.43887
v 4.02086 1.23885 0.36046
v 4.01714 1.51338 0.34832
v 3.99054 1.78381 0.35411
v 4.10444 1.51211 0.18762
v 4.07951 1.78112 0.18849
v 4.05469 2.02415 0.19497
v 4.09502 2.02572 -0.00000
v 4.07121 2.26469 -0.00000
v 4.03222 2.26093 0.20178
v 4.00993 2.51908 0.20430
v 3.92504 2.52817 0.34690
v 4.01920 2.78532 -0.00000
v 3.98599 2.78110 0.20351
v 3.98658 3.05059 -0.00000
v 3.95304 3.30645 -0.00000
v 3.89874 3.28626 0.23219
v 3.94755 3.03723 0.21267
v 3.79655 3.23674 0.38563
v 3.87653 3.00874 0.34322
v 3.92266 2.77692 0.32700
v 3.77158 2.97198 0.34956
v 3.81902 2.77151 0.32878
v 3.79963 2.55554 0.35988
v 3.72826 2.76937 0.21287
v 3.69279 2.59947 0.21572
v 3.57253 2.47886 0.22396
v 3.66559 2.61542 -0.00000
v 3.40865 2.43574 0.22840
v 3.17498 2.49035 -0.00000
v 3.18529 2.43088 0.22544
v 3.20421 2.28892 0.39765
v 2.95169 2.43885 0.21617
v 2.94924 2.32073 0.38074
v 2.93943 2.16054 0.43252
v 3.21791 2.10958 0.44144
v 2.92433 2.00262 0.35995
v 3.18055 1.95683 0.36113
v 2.91168 1.90760 0.19429
v 3.15612 1.85727 0.19311
v 3.39097 1.78899 0.18331
v 2.66175 1.91230 -0.00000
v 2.42007 1.95921 -0.00000
v 2.66696 1.95301 0.19565
v 2.42470 1.99951 0.19650
v 2.67783 2.04365 0.35648
v 2.43384 2.08456 0.35205
v 2.19103 2.12445 0.34554
v 2.18230 2.04238 0.19489
v 2.17883 2.00470 -0.00000
v 1.94168 2.08554 0.18715
v 1.93822 2.05142 -0.00000
v 3.92139 3.55714 -0.00000
v 3.79912 3.79653 0.26288
v 3.85199 3.53438 0.25187
v 3.62387 3.71217 0.45517
v 3.71094 3.46960 0.42803
v 3.40232 3.54300 0.48607
v 3.54311 3.35808 0.44699
v 3.67390 3.16863 0.39983
v 3.40868 3.23291 0.28240
v 3.55844 3.09701 0.25434
v 3.67637 2.94579 0.22417
v 3.18903 3.25549 -0.00000
v 3.48492 4.32909 0.29196
v 3.69668 4.08054 0.27845
v 3.33983 4.12205 0.48828
v 3.50903 3.93485 0.47464
v 3.12180 3.83027 0.51914
v 3.26225 3.70012 0.50713
v 2.92160 3.55524 0.33539
v 3.08975 3.45962 0.31264
v 3.24959 3.35405 0.29711
v 3.02409 3.34966 -0.00000
v 2.67126 3.58880 -0.00000
v 2.81789 4.47173 -0.00000
v 3.16965 4.45204 0.27343
v 3.10963 4.25158 0.47422
v 2.96191 3.95669 0.51402
v 2.76478 3.68869 0.34133
v 2.55958 3.78799 -0.00000
v 2.52229 3.99735 -0.00000
v 2.56748 4.24625 -0.00000
v 2.71130 2.44346 0.20773
v 2.46994 2.49479 -0.00000
v 2.46811 2.44983 0.20387
v 2.46045 2.35669 0.35710
v 2.70474 2.34035 0.36689
v 2.44845 2.22007 0.40864
v 2.69331 2.19220 0.42098
v 2.21535 2.36847 0.34848
v 2.20439 2.24530 0.39513
v 1.96985 2.38122 0.34039
v 1.95835 2.26926 0.38396
v 1.94775 2.16293 0.33824
v 1.71387 2.29790 0.37096
v 1.70470 2.19813 0.32614
v 1.70039 2.12876 0.17793
v 1.46145 2.22956 0.30976
v 1.45879 2.16967 0.16865
v 1.45836 2.14435 -0.00000
v 1.69830 2.09836 -0.00000
v 2.22579 2.49508 -0.00000
v 1.97917 2.46056 0.18868
v 2.22343 2.45332 0.19803
v 1.73712 2.49859 -0.00000
v 1.73418 2.46845 0.18005
v 1.72417 2.39632 0.32809
v 1.48847 2.47366 0.17005
v 1.47916 2.41300 0.31135
v 1.46919 2.31926 0.35637
v 1.23492 2.42748 0.29260
v 1.22645 2.34155 0.34028
v 1.21968 2.26155 0.28997
v 0.97326 2.35274 0.33101
v 0.97645 2.28688 0.27390
v 0.97394 2.24733 0.15326
v 1.21739 2.21337 0.15768
v 1.21708 2.19295 -0.00000
v 1.49214 2.49931 -0.00000
v 1.24200 2.48276 0.16260
v 0.99651 2.49041 0.16284
v 0.98972 2.43905 0.28283
v 0.76204 2.50917 0.17109
v 0.77318 2.52335 -0.00000
v 0.60905 2.59698 -0.00000
v 0.59767 2.58542 0.17659
v 0.51300 2.73728 0.18458
v 0.53017 2.74522 -0.00000
v 0.54763 2.92659 -0.00000
v 0.51675 2.92587 0.19504
v 0.66229 3.08650 -0.00000
v 0.79610 3.24317 -0.00000
v 0.74081 3.28651 0.23363
v 0.61084 3.10765 0.21760
v 0.61429 3.35324 0.40599
v 0.50425 3.13603 0.37618
v 0.44138 2.92275 0.33866
v 0.37166 3.16520 0.43426
v 0.33279 2.92646 0.39256
v 0.23376 3.18573 0.38014
v 0.22321 2.93018 0.35169
v 0.23628 2.66226 0.33900
v 0.13902 2.93266 0.20649
v 0.16251 2.65376 0.20018
v 0.19328 2.37246 0.19450
v 0.27081 2.38345 0.33381
v 0.22116 2.09685 0.18848
v 0.29776 2.11403 0.33504
v 0.25526 1.81401 0.18651
v 0.32994 1.83494 0.33998
v 0.44199 1.86201 0.40644
v 0.38557 1.56168 0.35433
v 0.50253 1.60360 0.43950
v 0.62116 1.64947 0.43186
v 0.54621 1.88429 0.39381
v 0.72674 1.69409 0.34276
v 0.63386 1.90025 0.31294
v 0.80546 1.72862 0.18453
v 0.70158 1.91299 0.16622
v 0.67908 2.09099 0.15700
v 0.76939 2.22160 0.15184
v 1.13832 1.43346 -0.00000
v 0.94707 1.55643 0.20239
v 1.09473 1.38815 0.21227
v 0.86240 1.49600 0.37302
v 1.00275 1.30373 0.39789
v 1.14374 1.12282 0.41593
v 1.24624 1.22612 0.22057
v 1.29533 1.27889 -0.00000
v 1.40730 1.07319 0.23149
v 0.95251 3.41932 -0.00000
v 1.03736 3.66598 0.25110
v 0.89072 3.46614 0.24284
v 0.83384 3.76525 0.45243
v 0.72819 3.56176 0.43420
v 0.55714 3.85916 0.54042
v 0.50135 3.64169 0.51369
v 0.43887 3.40538 0.47712
v 0.26529 3.67029 0.44148
v 0.25261 3.43360 0.41247
v 0.10168 3.66866 0.24016
v 0.11683 3.43893 0.23206
v 0.12763 3.19430 0.21796
v 0.09732 2.93169 -0.00000
v 0.12585 2.65065 -0.00000
v 0.15700 2.36870 -0.00000
v 0.18751 2.08942 -0.00000
v 0.21979 1.80532 -0.00000
v 0.25366 1.52692 -0.00000
v 0.29768 1.53543 0.19376
v 0.28621 1.26210 -0.00000
v 0.34080 1.27022 0.20497
v 0.44831 1.30005 0.37591
v 0.38049 1.01083 0.21508
v 0.50796 1.04288 0.39940
v 0.67672 1.10770 0.51298
v 0.58853 1.35653 0.47655
v 0.85484 1.19999 0.51160
v 0.73431 1.42469 0.47331
v 0.75923 0.86020 0.53699
v 0.97187 0.98194 0.53812
v 0.85733 0.63259 0.55103
v 1.07945 0.78995 0.55355
v 1.28059 0.95833 0.43470
v 1.39430 0.78846 0.43698
v 1.54679 0.89562 0.23493
v 1.60226 0.92801 -0.00000
v 0.41336 0.72605 0.22587
v 0.48647 0.40948 0.24188
v 0.64363 0.50696 0.43951
v 0.56093 0.77839 0.42148
v 0.75252 0.13267 0.24444
v 1.14514 0.00228 -0.00000
v 1.14047 0.05085 0.23829
v 1.50694 0.13551 -0.00000
v 1.67516 0.41423 -0.00000
v 0.06832 3.89904 0.24886
v 0.67891 4.52228 -0.00000
v 1.10577 4.34043 -0.00000
v 0.25913 3.89725 0.46216
v 4.17132 1.24571 -0.00000
v 4.12070 1.23901 0.19392
v 3.40266 0.05076 -0.00000
v 3.35242 1.23499 -0.00000
v 3.20519 1.07408 -0.00000
v 3.07687 0.88023 -0.00000
v 4.12018 1.78159 -0.00000
v 4.04623 2.51911 -0.00000
v 3.54297 2.52173 -0.00000
v 3.37823 2.49270 -0.00000
v 3.14535 1.81694 -0.00000
v 3.37228 1.76047 -0.00000
v 2.90455 1.86585 -0.00000
v 3.87454 3.83028 -0.00000
v 3.50661 3.06018 -0.00000
v 3.64340 2.93738 -0.00000
v 3.70335 2.76973 -0.00000
v 3.34641 3.15939 -0.00000
v 3.53565 4.40543 -0.00000
v 3.76778 4.13454 -0.00000
v 2.84199 3.44462 -0.00000
v 3.18422 4.52298 -0.00000
v 2.71171 2.49293 -0.00000
v 2.94921 2.49251 -0.00000
v 1.98183 2.49646 -0.00000
v 0.97350 2.23044 -0.00000
v 1.24486 2.50319 -0.00000
v 0.99880 2.50718 -0.00000
v 0.71969 1.91707 -0.00000
v 0.69025 2.08814 -0.00000
v 0.77934 2.21265 -0.00000
v 0.98392 1.58999 -0.00000
v 0.83474 1.74458 -0.00000
v 1.45840 1.12066 -0.00000
v 1.11867 3.63504 -0.00000
v 0.05466 3.43426 -0.00000
v 0.07521 3.19444 -0.00000
v 1.68700 0.69029 -0.00000
v 0.34910 0.70555 -0.00000
v 0.31716 0.99997 -0.00000
v 0.43468 0.37121 -0.00000
v 0.73111 0.07836 -0.00000
v 0.00000 3.90032 -0.00000
v 0.01802 4.18404 -0.00000
v 0.25601 4.45345 -0.00000
v 1.23993 3.95101 -0.00000
v 0.03385 3.66317 -0.00000
v 4.14729 1.51542 -0.00000
v 1.16236 0.32009 -0.49991
v 3.74538 2.18121 -0.43462
v 3.56206 2.00866 -0.45039
v 0.45984 2.41711 -0.38710
v 0.67027 2.32578 -0.35227
v 1.52169 0.47558 -0.38381
v 3.06856 0.45917 -0.24704
v 0.34547 4.29202 -0.40803
v 0.90370 4.16331 -0.43094
v 3.96391 0.27423 -0.38150
v 1.30862 0.44333 -0.50551
v 1.18995 0.61131 -0.55046
v 0.99886 0.43226 -0.54476
v 0.83405 0.26754 -0.42663
v 1.14342 0.18443 -0.41159
v 1.40399 0.30969 -0.42207
v 3.79737 2.03044 -0.44222
v 3.95304 2.03134 -0.36354
v 3.90231 2.26318 -0.37927
v 3.70087 2.33824 -0.39912
v 3.51658 2.26487 -0.41237
v 3.45634 1.86639 -0.34252
v 3.62189 1.71476 -0.33361
v 3.73433 1.75511 -0.43376
v 3.86419 1.77937 -0.43750
v 0.55852 2.53787 -0.31199
v 0.45134 2.71319 -0.32225
v 0.35849 2.68648 -0.37539
v 0.43530 2.12958 -0.39447
v 0.55077 2.11999 -0.37907
v 0.72513 2.46232 -0.29468
v 0.62741 2.10392 -0.29626
v 0.73496 2.25097 -0.27207
v 1.48225 0.17647 -0.24593
v 1.63162 0.44411 -0.23683
v 1.63120 0.68264 -0.23314
v 1.47992 0.61936 -0.41621
v 3.18664 0.29639 -0.29613
v 3.25677 0.48934 -0.44894
v 3.08287 0.62854 -0.28656
v 0.28014 4.39984 -0.25532
v 0.07821 4.15928 -0.25668
v 0.27197 4.12311 -0.45673
v 0.60486 4.07368 -0.52921
v 0.63731 4.27107 -0.44697
v 0.66975 4.45724 -0.26158
v 0.90928 3.97512 -0.45532
v 1.14645 3.94508 -0.27028
v 1.04767 4.28095 -0.28352
v 2.57245 4.00424 -0.24105
v 2.64732 3.84804 -0.31351
v 2.78226 4.08548 -0.45952
v 2.61844 4.20412 -0.27766
v 2.88478 4.28866 -0.42728
v 2.83603 4.41528 -0.26455
v 4.01839 0.47338 -0.40113
v 3.79700 0.49977 -0.51637
v 3.75769 0.25344 -0.44702
v 4.02670 0.17859 -0.24257
v 4.16334 0.44658 -0.22099
v 3.73123 0.06155 -0.26637
v 3.49120 0.33522 -0.48068
v 3.42587 0.12269 -0.28923
v 3.26031 1.03278 -0.25943
v 3.40249 1.19603 -0.23510
v 3.52808 1.35786 -0.20320
v 3.51915 1.12089 -0.43023
v 3.62423 1.32371 -0.38191
v 3.66428 1.52349 -0.34812
v 3.59241 1.52311 -0.18226
v 3.55151 1.67977 -0.17477
v 4.16029 0.72852 -0.20867
v 4.13454 0.97920 -0.20101
v 4.01031 0.97517 -0.37910
v 4.01706 0.72667 -0.39458
v 3.85036 0.99511 -0.49468
v 3.82117 0.74521 -0.51700
v 3.67887 1.04449 -0.51883
v 3.60651 0.81065 -0.55159
v 3.55370 0.57464 -0.55587
v 3.40439 0.92668 -0.46614
v 3.32095 0.71196 -0.48736
v 3.14483 0.83983 -0.28218
v 3.88736 1.25618 -0.46428
v 3.75603 1.28658 -0.47425
v 3.89852 1.51877 -0.43805
v 3.78165 1.52317 -0.43887
v 4.02086 1.23885 -0.36046
v 4.01714 1.51338 -0.34832
v 3.99054 1.78381 -0.35411
v 4.10444 1.51211 -0.18762
v 4.07951 1.78112 -0.18849
v 4.05469 2.02415 -0.19497
v 4.03222 2.26093 -0.20178
v 4.00993 2.51908 -0.20430
v 3.92504 2.52817 -0.34690
v 3.98599 2.78110 -0.20351
v 3.89874 3.28626 -0.23219
v 3.94755 3.03723 -0.21267
v 3.79655 3.23674 -0.38563
v 3.87653 3.00874 -0.34322
v 3.92266 2.77692 -0.32700
v 3.77158 2.97198 -0.34956
v 3.81902 2.77151 -0.32878
v 3.79963 2.55554 -0.35988
v 3.72826 2.76937 -0.21287
v 3.69279 2.59947 -0.21572
v 3.57253 2.47886 -0.22396
v 3.40865 2.43574 -0.22840
v 3.18529 2.43088 -0.22544
v 3.20421 2.28892 -0.39765
v 2.95169 2.43885 -0.21617
v 2.94924 2.32073 -0.38074
v 2.93943 2.16054 -0.43252
v 3.21791 2.10958 -0.44144
v 2.92433 2.00262 -0.35995
v 3.18055 1.95683 -0.36113
v 2.91168 1.90760 -0.19429
v 3.15612 1.85727 -0.19311
v 3.39097 1.78899 -0.18331
v 2.66696 1.95301 -0.19565
v 2.42470 1.99951 -0.19650
v 2.67783 2.04365 -0.35648
v 2.43384 2.08456 -0.35205
v 2.19103 2.12445 -0.34554
v 2.18230 2.04238 -0.19489
v 1.94168 2.08554 -0.18715
v 3.79912 3.79653 -0.26288
v 3.85199 3.53438 -0.25187
v 3.62387 3.71217 -0.45517
v 3.71094 3.46960 -0.42803
v 3.40232 3.54300 -0.48607
v 3.54311 3.35808 -0.44699
v 3.67390 3.16863 -0.39983
v 3.40868 3.23291 -0.28240
v 3.55844 3.09701 -0.25434
v 3.67637 2.94579 -0.22417
v 3.48492 4.32909 -0.29196
v 3.69668 4.08054 -0.27845
v 3.33983 4.12205 -0.48828
v 3.50903 3.93485 -0.47464
v 3.12180 3.83027 -0.51914
v 3.26225 3.70012 -0.50713
v 2.92160 3.55524 -0.33539
v 3.08975 3.45962 -0.31264
v 3.24959 3.35405 -0.29711
v 3.16965 4.45204 -0.27343
v 3.10963 4.25158 -0.47422
v 2.96191 3.95669 -0.51402
v 2.76478 3.68869 -0.34133
v 2.71130 2.44346 -0.20773
v 2.46811 2.44983 -0.20387
v 2.46045 2.35669 -0.35710
v 2.70474 2.34035 -0.36689
v 2.44845 2.22007 -0.40864
v 2.69331 2.19220 -0.42098
v 2.21535 2.36847 -0.34848
v 2.20439 2.24530 -0.39513
v 1.96985 2.38122 -0.34039
v 1.95835 2.26926 -0.38396
v 1.94775 2.16293 -0.33824
v 1.71387 2.29790 -0.37096
v 1.70470 2.19813 -0.32614
v 1.70039 2.12876 -0.17793
v 1.46145 2.22956 -0.30976
v 1.45879 2.16967 -0.16865
v 1.97917 2.46056 -0.18868
v 2.22343 2.45332 -0.19803
v 1.73418 2.46845 -0.18005
v 1.72417 2.39632 -0.32809
v 1.48847 2.47366 -0.17005
v 1.47916 2.41300 -0.31135
v 1.46919 2.31926 -0.35637
v 1.23492 2.42748 -0.29260
v 1.22645 2.34155 -0.34028
v 1.21968 2.26155 -0.28997
v 0.97326 2.35274 -0.33101
v 0.97645 2.28688 -0.27390
v 0.97394 2.24733 -0.15326
v 1.21739 2.21337 -0.15768
v 1.24200 2.48276 -0.16260
v 0.99651 2.49041 -0.16284
v 0.98972 2.43905 -0.28283
v 0.76204 2.50917 -0.17109
v 0.59767 2.58542 -0.17659
v 0.51300 2.73728 -0.18458
v 0.51675 2.92587 -0.19504
v 0.74081 3.28651 -0.23363
v 0.61084 3.10765 -0.21760
v 0.61429 3.35324 -0.40599
v 0.50425 3.13603 -0.37618
v 0.44138 2.92275 -0.33866
v 0.37166 3.16520 -0.43426
v 0.33279 2.92646 -0.39256
v 0.23376 3.18573 -0.38014
v 0.22321 2.93018 -0.35169
v 0.23628 2.66226 -0.33900
v 0.13902 2.93266 -0.20649
v 0.16251 2.65376 -0.20018
v 0.19328 2.37246 -0.19450
v 0.27081 2.38345 -0.33381
v 0.22116 2.09685 -0.18848
v 0.29776 2.11403 -0.33504
v 0.25526 1.81401 -0.18651
v 0.32994 1.83494 -0.33998
v 0.44199 1.86201 -0.40644
v 0.38557 1.56168 -0.35433
v 0.50253 1.60360 -0.43950
v 0.62116 1.64947 -0.43186
v 0.54621 1.88429 -0.39381
v 0.72674 1.69409 -0.34276
v 0.63386 1.90025 -0.31294
v 0.80546 1.72862 -0.18453
v 0.70158 1.91299 -0.16622
v 0.67908 2.09099 -0.15700
v 0.76939 2.22160 -0.15184
v 0.94707 1.55643 -0.20239
v 1.09473 1.38815 -0.21227
v 0.86240 1.49600 -0.37302
v 1.00275 1.30373 -0.39789
v 1.14374 1.12282 -0.41593
v 1.24624 1.22612 -0.22057
v 1.40730 1.07319 -0.23149
v 1.03736 3.66598 -0.25110
v 0.89072 3.46614 -0.24284
v 0.83384 3.76525 -0.45243
v 0.72819 3.56176 -0.43420
v 0.55714 3.85916 -0.54042
v 0.50135 3.64169 -0.51369
v 0.43887 3.40538 -0.47712
v 0.26529 3.67029 -0.44148
v 0.25261 3.43360 -0.41247
v 0.10168 3.66866 -0.24016
v 0.11683 3.43893 -0.23206
v 0.12763 3.19430 -0.21796
v 0.29768 1.53543 -0.19376
v 0.34080 1.27022 -0.20497
v 0.44831 1.30005 -0.37591
v 0.38049 1.01083 -0.21508
v 0.50796 1.04288 -0.39940
v 0.67672 1.10770 -0.51298
v 0.58853 1.35653 -0.47655
v 0.85484 1.19999 -0.51160
v 0.73431 1.42469 -0.47331
v 0.75923 0.86020 -0.53699
v 0.97187 0.98194 -0.53812
v 0.85733 0.63259 -0.55103
v 1.07945 0.78995 -0.55355
v 1.28059 0.95833 -0.43470
v 1.39430 0.78846 -0.43698
v 1.54679 0.89562 -0.23493
v 0.41336 0.72605 -0.22587
v 0.48647 0.40948 -0.24188
v 0.64363 0.50696 -0.43951
v 0.56093 0.77839 -0.42148
v 0.75252 0.13267 -0.24444
v 1.14047 0.05085 -0.23829
v 0.06832 3.89904 -0.24886
v 0.25913 3.89725 -0.46216
v 4.12070 1.23901 -0.19392
vn 0.10864 -0.40991 0.90563
vn 0.34428 -0.18065 0.92132
vn 0.22760 0.02175 0.97351
vn -0.08139 -0.26240 0.96152
vn -0.30308 -0.54037 0.78494
vn 0.08013 -0.65163 0.75429
vn 0.46764 -0.44340 0.76467
vn 0.14733 0.13652 0.97962
vn 0.22058 0.06008 0.97352
vn 0.66678 0.09442 0.73925
vn 0.48630 0.11845 0.86572
vn -0.02398 0.40900 0.91222
vn -0.12212 -0.14099 0.98245
vn -0.14463 0.39783 0.90599
vn -0.34612 -0.63897 0.68696
vn -0.65888 -0.37753 0.65065
vn -0.28315 -0.14758 0.94765
vn 0.28014 0.02988 0.95950
vn 0.05106 0.10865 0.99277
vn 0.51363 0.48220 0.70969
vn 0.69782 0.16214 0.69768
vn 0.45501 0.09009 0.88592
vn -0.13398 0.02586 0.99065
vn 0.43005 -0.04626 0.90162
vn 0.27210 -0.04761 0.96109
vn 0.15950 0.37133 0.91470
vn 0.80537 -0.17961 0.56491
vn 0.45579 -0.67863 0.57595
vn 0.68243 -0.14238 0.71695
vn 0.59074 -0.67921 0.43555
vn 0.87803 -0.21639 0.42689
vn 0.87643 0.16884 0.45096
vn 0.61395 0.07741 0.78554
vn -0.87486 -0.24873 0.41563
vn -0.65515 -0.53822 0.53018
vn -0.52458 -0.18387 0.83127
vn -0.85267 0.06196 0.51876
vn -0.98980 0.14247 -0.00183
vn -0.96129 -0.27553 -0.00274
vn -0.28459 0.56466 0.77471
vn -0.42922 0.77355 0.46626
vn -0.81889 0.31918 0.47701
vn -0.45147 0.24906 0.85682
vn 0.03294 0.15545 0.98729
vn 0.08016 0.51865 0.85122
vn 0.11837 0.86272 0.49162
vn 0.39694 0.34492 0.85057
vn 0.44614 0.01401 0.89486
vn 0.81902 -0.05088 0.57150
vn 0.62155 0.54104 0.56653
vn -0.91385 -0.02281 0.40541
vn -0.77778 -0.25750 0.57336
vn -0.51142 0.12831 0.84970
vn -0.79143 0.37729 0.48093
vn -0.27833 0.51810 0.80877
vn -0.38481 0.79186 0.47421
vn 0.49814 -0.43576 0.74965
vn 0.62279 -0.13501 0.77065
vn 0.27183 -0.14528 0.95132
vn 0.16143 -0.49934 0.85123
vn 0.62351 -0.63998 0.44906
vn 0.88042 -0.18743 0.43559
vn 0.11085 -0.86398 0.49117
vn 0.11224 -0.99368 -0.00028
vn 0.67474 -0.73805 -0.00090
vn -0.19111 -0.42100 0.88670
vn -0.32133 -0.78178 0.53438
vn -0.37693 -0.92624 -0.00001
vn -0.72769 -0.68590 -0.00073
vn -0.74118 0.67131 0.00029
vn -0.79009 0.61300 0.00006
vn -0.70045 0.53739 0.46966
vn -0.68193 0.60265 0.41448
vn -0.79708 0.49316 0.34851
vn -0.83175 0.55516 -0.00048
vn -0.50157 0.43640 0.74698
vn -0.63871 0.36626 0.67668
vn -0.76779 0.06236 0.63766
vn -0.95075 0.08134 0.29909
vn -0.99505 0.09939 -0.00079
vn -0.78568 -0.53598 0.30893
vn -0.96912 -0.24657 0.00004
vn 0.97089 -0.23954 -0.00026
vn 0.99854 0.05403 0.00050
vn 0.89367 0.05369 0.44551
vn 0.99576 0.09202 -0.00002
vn 0.90093 0.07334 0.42771
vn 0.71205 0.04291 0.70082
vn 0.67289 0.03324 0.73899
vn 0.37767 0.06341 0.92377
vn 0.35230 0.02141 0.93564
vn -0.10304 0.21186 0.97185
vn -0.06122 0.12122 0.99074
vn -0.09102 -0.08349 0.99234
vn -0.45672 0.34128 0.82154
vn -0.47738 0.13246 0.86865
vn -0.78592 0.34669 0.51200
vn -0.90638 0.42246 0.00002
vn 0.36592 0.07807 0.92737
vn -0.20305 0.21005 0.95637
vn 0.32435 0.06186 0.94391
vn -0.30418 0.06601 0.95032
vn 0.74258 0.03846 0.66866
vn 0.75028 0.05964 0.65843
vn 0.72756 0.07950 0.68142
vn 0.93019 0.07436 0.35947
vn 0.93206 0.09189 0.35045
vn 0.92535 0.09765 0.36633
vn 0.99520 0.09787 0.00001
vn 0.99532 0.09661 0.00001
vn 0.99572 0.09246 -0.00001
vn 0.92272 0.07879 0.37734
vn 0.93337 0.06952 0.35211
vn 0.85474 0.04452 0.51714
vn 0.99561 0.09361 -0.00005
vn 0.99346 0.11420 -0.00012
vn 0.93835 0.10524 0.32928
vn 0.98979 0.14251 -0.00003
vn 0.98884 0.14901 0.00010
vn 0.89839 0.14716 0.41380
vn 0.92383 0.14112 0.35585
vn 0.80293 0.14427 0.57835
vn 0.85009 0.13884 0.50801
vn 0.87291 0.09505 0.47852
vn 0.06345 0.01568 0.99786
vn 0.10407 -0.11091 0.98837
vn 0.10227 0.10960 0.98870
vn -0.68076 0.31941 0.65920
vn -0.77992 -0.04346 0.62437
vn -0.91771 -0.04702 0.39446
vn -0.79411 0.42866 0.43085
vn -0.42994 0.76122 0.48548
vn -0.85855 0.51273 -0.00145
vn -0.44881 0.89363 -0.00102
vn -0.11541 0.99332 0.00027
vn -0.10610 0.86944 0.48251
vn -0.00079 1.00000 0.00008
vn 0.00778 0.89161 0.45274
vn 0.00593 0.52967 0.84818
vn 0.01692 0.90665 0.42154
vn 0.00635 0.58416 0.81162
vn -0.01006 0.29856 0.95434
vn -0.00478 0.23186 0.97274
vn -0.11466 -0.45691 0.88209
vn -0.09021 -0.41256 0.90645
vn -0.12978 -0.66135 0.73877
vn -0.16106 -0.67205 0.72278
vn -0.17487 -0.91585 0.36144
vn -0.21262 -0.90787 0.36132
vn -0.39309 -0.85458 0.33937
vn -0.22837 -0.97358 0.00023
vn -0.39428 -0.91899 -0.00033
vn -0.52252 -0.85263 -0.00109
vn -0.18689 -0.98238 -0.00001
vn -0.19223 -0.98135 -0.00000
vn -0.17109 -0.91981 0.35310
vn -0.17085 -0.92273 0.34552
vn -0.18477 -0.98278 -0.00000
vn -0.12725 -0.65776 0.74240
vn -0.12872 -0.65578 0.74389
vn -0.12934 -0.65895 0.74099
vn -0.17109 -0.92626 0.33583
vn -0.18344 -0.98303 -0.00001
vn -0.17473 -0.93136 0.31942
vn -0.18698 -0.98236 0.00000
vn 0.98693 0.16116 0.00010
vn 0.96742 0.25317 0.00012
vn 0.82924 0.22219 0.51282
vn 0.86999 0.15262 0.46886
vn 0.44262 0.08116 0.89303
vn 0.49378 0.02922 0.86909
vn 0.15529 -0.03520 0.98724
vn 0.17477 -0.08796 0.98067
vn 0.16730 -0.13122 0.97713
vn -0.51780 -0.53422 0.66820
vn -0.41864 -0.53014 0.73736
vn -0.49575 -0.67957 0.54076
vn -0.59675 -0.65405 0.46488
vn -0.78680 -0.46249 0.40872
vn -0.67632 -0.38884 0.62561
vn -0.65645 -0.75437 -0.00017
vn -0.85701 -0.51530 0.00067
vn -0.99888 -0.04733 -0.00046
vn -0.56957 -0.82194 -0.00148
vn 0.86921 0.49445 -0.00013
vn 0.56781 0.82316 0.00026
vn 0.47894 0.67474 0.56155
vn 0.72898 0.40679 0.55055
vn 0.22924 0.29730 0.92686
vn 0.36565 0.16674 0.91570
vn -0.10736 -0.18091 0.97762
vn -0.08269 -0.24589 0.96576
vn -0.41413 -0.62550 0.66125
vn -0.38286 -0.67302 0.63283
vn -0.44179 -0.67122 0.59521
vn -0.35392 -0.50073 0.78994
vn -0.44913 -0.81168 0.37344
vn -0.53180 -0.84687 -0.00044
vn -0.51261 -0.77164 0.37657
vn 0.10446 0.99453 0.00009
vn -0.42395 0.90569 -0.00081
vn 0.10296 0.85682 0.50524
vn 0.01717 0.44805 0.89384
vn -0.23469 -0.07196 0.96940
vn -0.58047 -0.48114 0.65693
vn -0.92116 -0.38919 -0.00170
vn -0.75879 -0.65134 0.00063
vn -0.99941 -0.03428 -0.00212
vn -0.87580 0.48268 -0.00022
vn 0.01149 0.99993 -0.00004
vn 0.01067 0.99994 0.00000
vn 0.01526 0.91858 0.39495
vn 0.01012 0.99995 -0.00002
vn 0.01421 0.92767 0.37314
vn 0.00270 0.63816 0.76990
vn 0.00351 0.61895 0.78542
vn -0.01313 0.35171 0.93602
vn -0.01302 0.33751 0.94123
vn -0.08609 -0.39092 0.91639
vn -0.08648 -0.37777 0.92185
vn 0.00139 0.65232 0.75794
vn -0.01266 0.35697 0.93403
vn -0.08555 -0.37565 0.92280
vn -0.01197 0.37080 0.92864
vn -0.09087 -0.38554 0.91821
vn -0.13442 -0.67110 0.72908
vn -0.10054 -0.40928 0.90685
vn -0.15910 -0.89245 0.42217
vn -0.17188 -0.93946 0.29645
vn -0.14434 -0.72508 0.67337
vn -0.17358 -0.94769 0.26787
vn -0.18571 -0.98260 -0.00002
vn -0.18401 -0.98293 -0.00001
vn 0.00948 0.99996 0.00000
vn 0.01556 0.99988 -0.00000
vn 0.01822 0.94401 0.32940
vn 0.01246 0.93586 0.35215
vn 0.02076 0.88503 0.46506
vn 0.01305 0.99991 -0.00002
vn 0.01649 0.95262 0.30371
vn 0.01997 0.90038 0.43464
vn 0.01844 0.96011 0.27902
vn -0.00374 0.72044 0.69351
vn -0.01978 0.40040 0.91613
vn -0.02720 0.43998 0.89760
vn 0.00302 0.73807 0.67472
vn -0.02001 0.47452 0.88002
vn -0.11095 -0.45620 0.88294
vn -0.10161 -0.53968 0.83571
vn -0.13102 -0.77228 0.62163
vn 0.00878 -0.63171 0.77516
vn 0.00455 -0.82468 0.56558
vn -0.00967 -0.97822 0.20733
vn -0.15815 -0.95835 0.23782
vn -0.01918 -0.99982 -0.00030
vn -0.16853 -0.98570 0.00000
vn 0.01653 0.99986 -0.00001
vn 0.02397 0.99971 -0.00000
vn 0.02503 0.96467 0.26226
vn 0.05056 0.99872 0.00008
vn 0.05595 0.96661 0.25008
vn 0.04417 0.73194 0.67994
vn 0.25348 0.93318 0.25479
vn 0.25079 0.87856 0.40649
vn 0.02260 0.45760 0.88887
vn 0.25072 0.96806 0.00006
vn 0.68295 0.73047 0.00006
vn 0.66107 0.70045 0.26899
vn 0.93508 0.21991 0.27798
vn 0.97632 0.21634 -0.00026
vn 0.95243 -0.30477 0.00048
vn 0.91131 -0.25497 0.32328
vn 0.81470 -0.57988 0.00031
vn 0.76669 -0.64201 -0.00051
vn 0.69294 -0.55274 0.46293
vn 0.76941 -0.50445 0.39184
vn 0.47236 -0.37201 0.79905
vn 0.55582 -0.35674 0.75086
vn 0.67346 -0.17913 0.71720
vn 0.35072 -0.25809 0.90021
vn 0.43152 -0.13859 0.89140
vn -0.33799 -0.08900 0.93693
vn -0.35967 -0.08944 0.92878
vn -0.62743 -0.06882 0.77562
vn -0.63780 -0.07785 0.76626
vn -0.29076 -0.06794 0.95438
vn -0.87068 -0.09272 0.48304
vn -0.93110 -0.06968 0.35806
vn -0.93577 -0.09811 0.33868
vn -0.93614 -0.10550 0.33542
vn -0.87122 -0.10130 0.48034
vn -0.30248 -0.01829 0.95298
vn -0.93818 -0.10448 0.33000
vn -0.67598 -0.04710 0.73542
vn -0.93465 -0.12210 0.33395
vn -0.71678 -0.07339 0.69343
vn -0.21737 0.04311 0.97514
vn -0.72523 -0.09911 0.68134
vn -0.28546 0.05206 0.95697
vn 0.27156 0.27321 0.92283
vn 0.38179 0.15697 0.91082
vn 0.62949 0.44651 0.63590
vn 0.76974 0.24122 0.59103
vn 0.76486 0.55597 0.32540
vn 0.90979 0.31385 0.27162
vn 0.94371 -0.22771 0.23991
vn 0.80633 -0.55176 0.21305
vn 0.93834 0.34572 0.00042
vn 0.98871 0.14984 0.00037
vn 0.81865 -0.57429 0.00017
vn 0.10773 -0.99418 -0.00061
vn 0.11831 -0.97509 0.18764
vn 0.73454 0.67857 0.00024
vn 0.79843 0.60209 0.00057
vn 0.68962 0.61717 0.37884
vn 0.66128 0.61883 0.42399
vn 0.72014 0.69383 -0.00008
vn 0.55040 0.48632 0.67864
vn 0.51505 0.46791 0.71818
vn 0.47222 0.45286 0.75626
vn 0.62802 0.63102 0.45542
vn 0.69960 0.71453 -0.00005
vn 0.65582 0.58732 0.47430
vn 0.74223 0.67014 -0.00028
vn 0.77532 -0.63157 0.00012
vn 0.87021 -0.49268 0.00056
vn 0.72784 -0.41205 0.54815
vn 0.67528 -0.53016 0.51276
vn 0.42722 -0.23300 0.87361
vn 0.42926 -0.33337 0.83941
vn -0.00078 -0.06538 0.99786
vn -0.02035 -0.15287 0.98804
vn -0.02304 -0.17766 0.98382
vn -0.55920 -0.07924 0.82524
vn -0.59577 -0.06690 0.80037
vn -0.88356 -0.09688 0.45819
vn -0.89929 -0.06219 0.43291
vn -0.91673 -0.05585 0.39558
vn -0.99699 -0.07752 0.00006
vn -0.99753 -0.07028 0.00009
vn -0.99666 -0.08161 0.00001
vn -0.99469 -0.10288 -0.00002
vn -0.99406 -0.10887 -0.00001
vn -0.99373 -0.11178 -0.00000
vn -0.99217 -0.12493 -0.00002
vn -0.99091 -0.13451 0.00001
vn -0.92152 -0.13534 0.36397
vn -0.99118 -0.13249 0.00002
vn -0.90548 -0.13026 0.40389
vn -0.70994 -0.09990 0.69714
vn -0.89380 -0.11111 0.43449
vn -0.68368 -0.08552 0.72476
vn -0.30207 0.02561 0.95294
vn -0.31218 0.04081 0.94915
vn 0.17809 0.24363 0.95338
vn 0.20392 0.27917 0.93834
vn -0.26783 -0.00608 0.96345
vn 0.15930 0.20241 0.96626
vn -0.20826 -0.09277 0.97366
vn 0.16076 0.14118 0.97684
vn 0.46479 0.39479 0.79254
vn 0.52800 0.25976 0.80854
vn 0.76834 0.42576 0.47790
vn 0.98573 0.16834 0.00133
vn 0.87433 0.48533 0.00018
vn -0.99309 -0.11732 -0.00004
vn -0.98572 -0.16842 0.00032
vn -0.87807 -0.14690 0.45543
vn -0.87472 -0.48463 -0.00011
vn -0.77602 -0.41475 0.47515
vn -0.53599 -0.27217 0.79915
vn -0.63812 -0.10616 0.76259
vn -0.42773 -0.77836 0.45956
vn -0.47261 -0.88127 -0.00017
vn 0.07918 -0.99686 0.00034
vn 0.07208 -0.89719 0.43572
vn 0.64347 -0.76547 0.00044
vn 0.96339 -0.26812 0.00132
vn -0.92852 0.37129 -0.00017
vn -0.99873 -0.05029 0.00032
vn -0.87851 -0.04365 0.47572
vn -0.48623 0.87383 -0.00035
vn 0.12733 0.99186 0.00060
vn 0.40117 0.91600 0.00080
vn 0.95435 0.29867 0.00289
vn 0.99932 -0.03671 0.00199
vn -0.99333 -0.11528 -0.00003
vn -0.52118 -0.01938 0.85323
vn 0.99715 0.07549 0.00003
vn 0.99623 0.08671 0.00006
vn 0.91859 0.05753 0.39101
vn -0.07897 -0.26037 -0.96227
vn 0.22609 0.02257 -0.97384
vn 0.33586 -0.17344 -0.92580
vn 0.09424 -0.39630 -0.91327
vn 0.07210 -0.64420 -0.76145
vn -0.30109 -0.53930 -0.78645
vn 0.46368 -0.44027 -0.76887
vn 0.49319 0.13021 -0.86012
vn 0.67211 0.09996 -0.73368
vn 0.22218 0.05864 -0.97324
vn 0.15017 0.14661 -0.97773
vn -0.12170 -0.13819 -0.98290
vn -0.02738 0.41220 -0.91068
vn -0.14339 0.41253 -0.89959
vn -0.27920 -0.14189 -0.94969
vn -0.65840 -0.37214 -0.65423
vn -0.34392 -0.63312 -0.69345
vn 0.27989 0.02790 -0.95963
vn 0.45647 0.08805 -0.88537
vn 0.69717 0.16113 -0.69856
vn 0.51355 0.48221 -0.70975
vn 0.05170 0.10440 -0.99319
vn 0.27000 -0.04729 -0.96170
vn 0.42629 -0.04593 -0.90342
vn -0.13334 0.01952 -0.99088
vn 0.15597 0.37309 -0.91459
vn 0.45494 -0.67648 -0.57914
vn 0.80190 -0.17773 -0.57041
vn 0.87598 -0.22121 -0.42864
vn 0.59196 -0.68061 -0.43170
vn 0.68392 -0.14952 -0.71407
vn 0.61521 0.07232 -0.78504
vn 0.87567 0.16513 -0.45379
vn -0.86179 0.05549 -0.50422
vn -0.54049 -0.18886 -0.81988
vn -0.66515 -0.53895 -0.51682
vn -0.88216 -0.25106 -0.39845
vn -0.44783 0.25280 -0.85764
vn -0.81614 0.32102 -0.48049
vn -0.42837 0.76940 -0.47384
vn -0.28360 0.55948 -0.77881
vn 0.07990 0.52172 -0.84936
vn 0.03665 0.16133 -0.98622
vn 0.11449 0.86195 -0.49390
vn 0.61918 0.54561 -0.56473
vn 0.81702 -0.04853 -0.57456
vn 0.44553 0.01881 -0.89507
vn 0.39855 0.35432 -0.84594
vn -0.78625 0.38080 -0.48662
vn -0.50340 0.13021 -0.85418
vn -0.78073 -0.25266 -0.57151
vn -0.91610 -0.01421 -0.40070
vn -0.37673 0.78878 -0.48569
vn -0.26794 0.51230 -0.81594
vn 0.16662 -0.49884 -0.85052
vn 0.27532 -0.14872 -0.94978
vn 0.62141 -0.14013 -0.77085
vn 0.49771 -0.43511 -0.75031
vn 0.87792 -0.18894 -0.43996
vn 0.62174 -0.63703 -0.45567
vn 0.11343 -0.86209 -0.49391
vn -0.32054 -0.78244 -0.53390
vn -0.19198 -0.42137 -0.88633
vn -0.68285 0.60028 -0.41639
vn -0.70238 0.53451 -0.47006
vn -0.79776 0.49219 -0.34832
vn -0.63827 0.36288 -0.67892
vn -0.50136 0.43281 -0.74921
vn -0.95161 0.08141 -0.29632
vn -0.76795 0.06398 -0.63731
vn -0.78617 -0.53723 -0.30548
vn 0.89395 0.05387 -0.44491
vn 0.90088 0.07286 -0.42790
vn 0.67328 0.03404 -0.73860
vn 0.71204 0.04321 -0.70081
vn 0.35256 0.02132 -0.93555
vn 0.37786 0.06510 -0.92357
vn -0.06113 0.12228 -0.99061
vn -0.10165 0.21308 -0.97173
vn -0.09297 -0.08431 -0.99209
vn -0.48197 0.12872 -0.86668
vn -0.45824 0.33987 -0.82128
vn -0.78822 0.34386 -0.51037
vn -0.20181 0.20855 -0.95696
vn 0.36526 0.07982 -0.92748
vn -0.30312 0.06598 -0.95066
vn 0.32283 0.06199 -0.94443
vn 0.75015 0.05954 -0.65859
vn 0.74257 0.03727 -0.66873
vn 0.72719 0.08038 -0.68171
vn 0.93213 0.09166 -0.35033
vn 0.93019 0.07468 -0.35939
vn 0.92538 0.09864 -0.36597
vn 0.92269 0.08250 -0.37661
vn 0.85456 0.05093 -0.51685
vn 0.93317 0.07280 -0.35199
vn 0.93800 0.10556 -0.33017
vn 0.92339 0.14324 -0.35615
vn 0.89859 0.14747 -0.41327
vn 0.84925 0.14213 -0.50850
vn 0.80343 0.14465 -0.57755
vn 0.87204 0.09589 -0.47995
vn 0.05807 0.01772 -0.99816
vn 0.10153 -0.11480 -0.98819
vn 0.09891 0.11163 -0.98882
vn -0.79291 0.43517 -0.42651
vn -0.91750 -0.04735 -0.39491
vn -0.77978 -0.04463 -0.62447
vn -0.68125 0.33510 -0.65085
vn -0.42863 0.76534 -0.48013
vn -0.10670 0.87003 -0.48132
vn 0.00780 0.89229 -0.45139
vn 0.00806 0.53117 -0.84723
vn 0.00712 0.58411 -0.81165
vn 0.01782 0.90629 -0.42227
vn -0.00066 0.23243 -0.97261
vn -0.01028 0.29999 -0.95389
vn -0.15950 -0.67038 -0.72467
vn -0.12969 -0.66160 -0.73856
vn -0.09017 -0.41336 -0.90609
vn -0.11167 -0.45390 -0.88403
vn -0.21238 -0.90778 -0.36171
vn -0.17483 -0.91582 -0.36155
vn -0.39315 -0.85535 -0.33737
vn -0.17106 -0.91981 -0.35311
vn -0.17079 -0.92274 -0.34553
vn -0.12884 -0.65576 -0.74389
vn -0.12721 -0.65778 -0.74239
vn -0.17115 -0.92625 -0.33581
vn -0.12929 -0.65896 -0.74098
vn -0.17475 -0.93137 -0.31941
vn 0.87032 0.15164 -0.46856
vn 0.82864 0.22226 -0.51376
vn 0.49439 0.02782 -0.86880
vn 0.44204 0.07982 -0.89344
vn 0.17540 -0.08932 -0.98044
vn 0.15615 -0.03738 -0.98703
vn 0.16661 -0.13355 -0.97694
vn -0.59586 -0.65439 -0.46554
vn -0.49479 -0.68178 -0.53884
vn -0.41438 -0.54023 -0.73242
vn -0.51644 -0.53413 -0.66933
vn -0.67659 -0.38333 -0.62872
vn -0.78632 -0.46190 -0.41030
vn 0.72880 0.40566 -0.55163
vn 0.48124 0.67561 -0.55854
vn 0.36511 0.16530 -0.91617
vn 0.23284 0.29968 -0.92519
vn -0.08240 -0.24499 -0.96602
vn -0.10451 -0.18139 -0.97784
vn -0.38249 -0.67246 -0.63364
vn -0.41223 -0.62657 -0.66142
vn -0.35435 -0.50182 -0.78906
vn -0.44208 -0.67124 -0.59498
vn -0.44858 -0.81197 -0.37348
vn -0.51239 -0.77171 -0.37672
vn 0.10094 0.85567 -0.50759
vn 0.01472 0.44662 -0.89460
vn -0.23296 -0.07150 -0.96986
vn -0.57852 -0.48291 -0.65735
vn 0.01541 0.91854 -0.39503
vn 0.01425 0.92766 -0.37315
vn 0.00380 0.61885 -0.78550
vn 0.00261 0.63817 -0.76989
vn -0.01276 0.33743 -0.94126
vn -0.01323 0.35173 -0.93601
vn -0.08680 -0.37772 -0.92184
vn -0.08606 -0.39094 -0.91638
vn -0.01253 0.35695 -0.93404
vn 0.00155 0.65231 -0.75795
vn -0.08539 -0.37565 -0.92282
vn -0.01135 0.37073 -0.92867
vn -0.13424 -0.67113 -0.72908
vn -0.09072 -0.38555 -0.91822
vn -0.10113 -0.40923 -0.90681
vn -0.17191 -0.93945 -0.29645
vn -0.15926 -0.89242 -0.42216
vn -0.17411 -0.94759 -0.26788
vn -0.14486 -0.72500 -0.67334
vn 0.01248 0.93586 -0.35214
vn 0.01811 0.94403 -0.32936
vn 0.02053 0.88508 -0.46498
vn 0.01686 0.95261 -0.30372
vn 0.02031 0.90038 -0.43463
vn -0.00331 0.72044 -0.69351
vn 0.01871 0.96010 -0.27905
vn -0.01940 0.40037 -0.91615
vn -0.02697 0.44002 -0.89758
vn -0.01966 0.47453 -0.88002
vn 0.00324 0.73807 -0.67472
vn -0.13148 -0.77268 -0.62103
vn -0.10233 -0.54085 -0.83487
vn -0.11088 -0.45625 -0.88292
vn 0.00478 -0.82522 -0.56479
vn 0.00879 -0.63433 -0.77301
vn -0.15833 -0.95832 -0.23783
vn -0.00936 -0.97800 -0.20841
vn 0.02497 0.96468 -0.26226
vn 0.05602 0.96654 -0.25031
vn 0.04144 0.73136 -0.68073
vn 0.25112 0.87818 -0.40710
vn 0.25367 0.93306 -0.25504
vn 0.01746 0.45653 -0.88954
vn 0.66093 0.70025 -0.26987
vn 0.93431 0.22061 -0.27998
vn 0.91068 -0.25904 -0.32180
vn 0.76863 -0.50649 -0.39073
vn 0.69231 -0.55221 -0.46451
vn 0.55574 -0.35542 -0.75155
vn 0.47101 -0.37229 -0.79972
vn 0.67385 -0.18084 -0.71640
vn 0.43236 -0.13648 -0.89131
vn 0.34980 -0.25322 -0.90195
vn -0.63686 -0.07765 -0.76706
vn -0.62729 -0.06691 -0.77590
vn -0.35983 -0.08656 -0.92900
vn -0.33635 -0.08694 -0.93771
vn -0.28858 -0.06762 -0.95507
vn -0.93569 -0.09829 -0.33887
vn -0.93095 -0.07035 -0.35830
vn -0.87047 -0.09298 -0.48336
vn -0.87125 -0.10139 -0.48026
vn -0.93615 -0.10555 -0.33539
vn -0.30290 -0.02463 -0.95270
vn -0.67538 -0.05124 -0.73568
vn -0.93820 -0.10462 -0.32991
vn -0.71624 -0.07502 -0.69381
vn -0.93466 -0.12200 -0.33397
vn -0.21670 0.04233 -0.97532
vn -0.28524 0.05146 -0.95707
vn -0.72529 -0.10000 -0.68114
vn 0.38076 0.15929 -0.91085
vn 0.27277 0.27350 -0.92238
vn 0.76839 0.24256 -0.59224
vn 0.63003 0.44670 -0.63524
vn 0.90920 0.31516 -0.27210
vn 0.76403 0.55748 -0.32477
vn 0.94322 -0.22821 -0.24137
vn 0.80622 -0.55185 -0.21325
vn 0.11841 -0.97465 -0.18983
vn 0.68932 0.61746 -0.37893
vn 0.66140 0.61877 -0.42388
vn 0.51438 0.46999 -0.71731
vn 0.55037 0.48579 -0.67905
vn 0.62874 0.63034 -0.45537
vn 0.47172 0.45436 -0.75567
vn 0.65581 0.58693 -0.47479
vn 0.67509 -0.53124 -0.51189
vn 0.72811 -0.41076 -0.54877
vn 0.42916 -0.33555 -0.83859
vn 0.42657 -0.23175 -0.87426
vn -0.02069 -0.15632 -0.98749
vn -0.00096 -0.06605 -0.99782
vn -0.02341 -0.17823 -0.98371
vn -0.59588 -0.06650 -0.80032
vn -0.55934 -0.08303 -0.82477
vn -0.89931 -0.06211 -0.43288
vn -0.88343 -0.09836 -0.45811
vn -0.91667 -0.05546 -0.39578
vn -0.92147 -0.13549 -0.36405
vn -0.90554 -0.12997 -0.40387
vn -0.70982 -0.10026 -0.69721
vn -0.68363 -0.08403 -0.72497
vn -0.89384 -0.10996 -0.43470
vn -0.31201 0.04004 -0.94924
vn -0.30202 0.02614 -0.95294
vn 0.20403 0.27832 -0.93857
vn 0.17747 0.24578 -0.95294
vn 0.15797 0.20439 -0.96606
vn -0.26844 -0.00666 -0.96327
vn 0.15953 0.14209 -0.97691
vn -0.20801 -0.09354 -0.97364
vn 0.46397 0.39546 -0.79268
vn 0.52670 0.25990 -0.80934
vn 0.76799 0.42593 -0.47830
vn -0.87839 -0.14713 -0.45473
vn -0.77702 -0.41533 -0.47300
vn -0.63902 -0.10619 -0.76183
vn -0.53736 -0.27351 -0.79777
vn -0.42864 -0.77801 -0.45932
vn 0.07411 -0.89801 -0.43369
vn -0.87895 -0.04439 -0.47484
vn -0.52187 -0.02073 -0.85277
vn 0.91860 0.05697 -0.39107
f 1//1 11//2 12//3 13//4
f 1//1 13//4 14//5 15//6
f 1//1 15//6 16//7 11//2
f 2//8 17//9 18//10 19//11
f 21//12 3//13 17//9 2//8
f 2//8 19//11 20//14 21//12
f 3//13 22//15 23//16 24//17
f 3//13 24//17 25//18 17//9
f 4//19 26//20 27//21 28//22
f 4//19 29//23 30//24 5//25
f 4//19 5//25 31//26 26//20
f 5//25 30//24 32//27 33//28
f 6//29 16//7 34//30 35//31
f 6//29 35//31 36//32 37//33
f 6//29 37//33 11//2 16//7
f 7//34 40//35 41//36 42//37
f 7//34 42//37 39//38 38//39
f 8//40 43//41 44//42 45//43
f 8//40 45//43 46//44 47//45
f 8//40 47//45 48//46 43//41
f 9//47 49//48 50//49 51//50
f 9//47 51//50 48//46 47//45
f 9//47 47//45 46//44 49//48
f 52//51 53//52 54//53 55//54
f 56//55 57//56 55//54 54//53
f 10//57 58//58 59//59 60//60
f 10//57 61//61 62//62 58//58
f 10//57 60//60 63//63 61//61
f 63//63 64//64 65//65 61//61
f 63//63 60//60 66//66 67//67
f 63//63 67//67 321//68 64//64
f 321//68 67//67 40//35 68//69
f 68//69 40//35 7//34 38//39
f 322//70 323//71 70//72 71//73
f 322//70 71//73 72//74 69//75
f 72//74 71//73 73//76 74//77
f 72//74 74//77 75//78 76//79
f 72//74 76//79 77//80 69//75
f 77//80 76//79 78//81 79//82
f 82//83 81//84 83//85 62//62
f 82//83 62//62 61//61 65//65
f 83//85 81//84 80//86 84//87
f 83//85 84//87 85//88 86//89
f 83//85 86//89 58//58 62//62
f 86//89 85//88 87//90 88//91
f 86//89 88//91 59//59 58//58
f 88//91 87//90 89//92 90//93
f 88//91 90//93 91//94 59//59
f 91//94 66//66 60//60 59//59
f 91//94 90//93 92//95 93//96
f 91//94 93//96 41//36 66//66
f 93//96 92//95 70//72 94//97
f 93//96 94//97 42//37 41//36
f 94//97 70//72 323//71 324//98
f 94//97 324//98 39//38 42//37
f 92//95 90//93 89//92 73//76
f 92//95 73//76 71//73 70//72
f 89//92 87//90 95//99 96//100
f 89//92 96//100 74//77 73//76
f 96//100 95//99 97//101 98//102
f 96//100 98//102 75//78 74//77
f 98//102 97//101 25//18 24//17
f 98//102 24//17 23//16 75//78
f 97//101 95//99 99//103 100//104
f 97//101 100//104 101//105 25//18
f 101//105 100//104 102//106 103//107
f 101//105 103//107 104//108 18//10
f 101//105 18//10 17//9 25//18
f 104//108 103//107 325//109 105//110
f 104//108 105//110 106//111 107//112
f 104//108 107//112 19//11 18//10
f 107//112 108//113 109//114 19//11
f 107//112 106//111 326//115 108//113
f 326//115 110//116 111//117 108//113
f 112//118 113//119 114//120 115//121
f 112//118 115//121 111//117 110//116
f 115//121 114//120 116//122 117//123
f 115//121 117//123 118//124 111//117
f 118//125 117//126 119//126 120//125
f 118//125 120//125 121//127 109//127
f 118//124 109//114 108//113 111//117
f 121//128 120//129 122//130 123//131
f 121//128 123//131 124//132 20//14
f 121//127 20//14 19//11 109//127
f 124//132 123//131 125//133 327//134
f 124//132 327//134 328//135 126//136
f 124//132 126//136 21//12 20//14
f 126//136 328//135 127//137 128//138
f 126//136 128//138 129//139 21//12
f 129//139 128//138 130//140 131//141
f 129//139 131//141 132//142 133//143
f 129//139 133//143 3//13 21//12
f 133//144 132//145 134//146 135//147
f 133//144 135//147 22//15 3//13
f 135//147 134//146 136//148 137//149
f 135//147 137//149 138//150 22//15
f 138//150 78//81 23//16 22//15
f 138//150 137//149 329//151 330//152
f 138//150 330//152 79//153 78//81
f 139//154 331//155 136//148 141//156
f 139//154 141//156 142//157 140//158
f 142//157 141//156 143//159 144//160
f 142//157 144//160 145//161 146//162
f 142//157 146//162 147//163 140//158
f 147//163 146//162 148//164 149//165
f 150//166 332//167 151//168 152//169
f 150//166 152//169 114//120 113//119
f 152//169 151//168 153//170 154//171
f 152//169 154//171 116//122 114//120
f 154//171 153//170 155//172 156//173
f 154//171 156//173 157//174 116//174
f 157//175 156//176 158//177 159//178
f 157//175 159//178 160//179 119//180
f 157//174 119//126 117//126 116//174
f 160//179 159//178 333//181 334//182
f 160//179 334//182 335//183 122//130
f 160//179 122//130 120//129 119//180
f 335//183 125//133 123//131 122//130
f 333//181 159//178 158//177 336//184
f 338//185 337//186 162//187 163//188
f 338//185 163//188 151//168 332//167
f 163//188 162//187 164//189 165//190
f 163//188 165//190 153//170 151//168
f 165//190 164//189 166//191 167//192
f 165//190 167//192 155//172 153//170
f 167//192 166//191 168//193 169//194
f 167//192 169//194 170//195 155//196
f 170//195 169//194 171//197 161//198
f 170//195 161//198 336//184 158//177
f 170//195 158//177 156//176 155//196
f 171//197 169//194 168//193 339//199
f 340//200 173//201 57//56 174//202
f 340//200 174//202 162//187 337//186
f 174//202 57//56 56//55 175//203
f 174//202 175//203 164//189 162//187
f 175//203 56//55 54//53 176//204
f 175//203 176//204 166//191 164//189
f 176//204 54//53 53//52 177//205
f 176//204 177//205 168//193 166//191
f 177//205 53//52 178//206 172//207
f 177//205 172//207 339//199 168//193
f 178//206 53//52 52//51 179//208
f 179//208 52//51 55//54 180//209
f 180//209 55//54 57//56 173//201
f 342//210 341//211 181//212 130//140
f 342//210 130//140 128//138 127//137
f 181//212 341//211 182//213 183//214
f 181//212 183//214 184//215 185//216
f 181//212 185//216 131//141 130//140
f 185//216 184//215 186//217 187//218
f 185//216 187//218 132//142 131//141
f 187//219 186//220 144//160 143//159
f 187//219 143//159 134//146 132//145
f 186//217 184//215 188//221 189//222
f 186//220 189//223 145//161 144//160
f 189//222 188//221 190//224 191//224
f 189//223 191//225 192//226 145//161
f 192//226 191//225 193//227 194//227
f 192//226 194//228 195//229 148//164
f 192//226 148//164 146//162 145//161
f 195//229 194//228 196//230 197//231
f 195//229 197//231 198//232 199//233
f 195//229 199//233 149//165 148//164
f 200//234 343//235 201//236 202//237
f 200//234 202//237 183//214 182//213
f 202//237 201//236 190//238 188//221
f 202//237 188//221 184//215 183//214
f 201//236 343//235 203//239 204//240
f 201//236 204//240 205//241 190//238
f 205//241 204//240 206//242 207//243
f 205//244 207//243 208//245 193//244
f 205//244 193//244 191//224 190//224
f 208//245 207//243 209//246 210//247
f 208//248 210//249 211//250 196//230
f 208//248 196//230 194//227 193//227
f 211//250 210//249 212//251 213//252
f 211//250 213//252 214//253 215//254
f 211//250 215//254 197//231 196//230
f 215//254 214//253 344//255 216//256
f 215//254 216//256 198//232 197//231
f 217//257 345//258 218//259 206//242
f 217//257 206//242 204//240 203//239
f 218//259 345//258 346//260 219//261
f 218//259 219//261 220//262 209//246
f 218//259 209//246 207//243 206//242
f 220//262 219//261 221//263 31//264
f 220//262 31//26 5//25 212//265
f 220//262 212//265 210//247 209//246
f 221//263 219//261 346//260 222//266
f 221//263 222//266 223//267 224//268
f 221//263 224//268 26//20 31//264
f 224//268 225//269 27//21 26//20
f 224//268 223//267 226//270 225//269
f 226//270 227//271 228//272 225//269
f 229//273 230//274 231//275 232//276
f 229//273 232//276 228//272 227//271
f 232//276 231//275 233//277 234//278
f 232//276 234//278 235//279 228//272
f 235//279 234//278 236//280 237//281
f 235//279 237//281 28//22 27//21
f 235//279 27//21 225//269 228//272
f 237//282 236//283 238//284 239//285
f 237//282 239//285 240//286 28//286
f 240//287 239//285 241//288 242//289
f 240//287 242//289 243//290 244//291
f 240//286 244//292 4//19 28//286
f 244//291 243//290 245//293 246//294
f 244//292 246//294 29//23 4//19
f 246//294 245//293 247//295 248//296
f 246//294 248//296 249//297 29//23
f 249//297 248//296 250//298 251//299
f 249//297 251//299 252//300 253//301
f 249//297 253//301 30//24 29//23
f 253//301 252//300 254//302 255//303
f 253//301 255//303 32//27 30//24
f 255//303 254//302 256//304 257//305
f 255//303 257//305 258//306 32//27
f 258//306 259//307 33//28 32//27
f 258//306 257//305 347//308 348//309
f 258//306 348//310 349//310 259//307
f 349//311 344//255 214//253 259//312
f 350//313 351//314 256//304 261//315
f 350//313 261//315 262//316 260//317
f 262//316 261//315 263//318 264//319
f 262//316 264//319 265//320 266//321
f 262//316 266//321 267//322 260//317
f 267//322 266//321 268//323 352//324
f 269//325 353//326 270//327 271//328
f 269//325 271//328 231//275 230//274
f 271//328 270//327 272//329 273//330
f 271//328 273//330 233//277 231//275
f 273//330 272//329 274//331 275//332
f 273//330 275//332 276//333 233//277
f 276//333 275//332 277//334 278//335
f 276//333 278//335 238//284 236//283
f 276//333 236//280 234//278 233//277
f 278//335 277//334 279//336 280//337
f 278//335 280//337 281//338 238//284
f 281//338 280//337 354//339 355//340
f 281//338 355//340 282//341 241//288
f 281//338 241//288 239//285 238//284
f 282//341 283//342 242//289 241//288
f 283//342 284//343 243//290 242//289
f 284//343 285//344 245//293 243//290
f 285//344 286//345 247//295 245//293
f 286//345 287//346 288//347 247//295
f 288//347 287//346 289//348 290//349
f 288//347 290//349 291//350 250//298
f 288//347 250//298 248//296 247//295
f 291//350 290//349 292//351 293//352
f 291//350 293//352 294//353 295//354
f 291//350 295//354 251//299 250//298
f 295//354 294//353 296//355 297//356
f 295//354 297//356 252//300 251//299
f 297//356 296//355 264//319 263//318
f 297//356 263//318 254//302 252//300
f 296//355 294//353 298//357 299//358
f 296//355 299//358 265//320 264//319
f 299//358 298//357 300//359 301//360
f 299//358 301//360 302//361 265//320
f 302//361 301//360 12//3 303//362
f 302//361 303//362 304//363 268//323
f 302//361 268//323 266//321 265//320
f 304//363 303//362 37//33 36//32
f 304//363 36//32 356//364 305//365
f 304//363 305//365 352//324 268//323
f 358//366 357//367 306//368 292//351
f 358//366 292//351 290//349 289//348
f 306//368 357//367 359//369 307//370
f 306//368 307//370 308//371 309//372
f 306//368 309//372 293//352 292//351
f 309//372 308//371 300//359 298//357
f 309//372 298//357 294//353 293//352
f 308//371 307//370 310//373 14//5
f 308//371 14//5 13//4 300//359
f 310//373 307//370 359//369 360//374
f 310//373 360//374 311//375 312//376
f 310//373 312//376 15//6 14//5
f 312//376 311//375 313//377 34//30
f 312//376 34//30 16//7 15//6
f 313//377 314//378 35//31 34//30
f 314//378 356//364 36//32 35//31
f 303//362 12//3 11//2 37//33
f 301//360 300//359 13//4 12//3
f 362//379 361//380 315//381 44//42
f 362//379 44//42 43//41 363//382
f 363//382 43//41 48//46 316//383
f 316//383 48//46 51//50 317//384
f 317//385 51//50 50//49 364//386
f 364//386 50//49 270//327 353//326
f 315//381 361//380 365//387 279//336
f 315//381 279//336 277//334 318//388
f 315//381 318//388 45//43 44//42
f 318//388 277//334 275//332 274//331
f 318//388 274//331 46//44 45//43
f 365//387 354//339 280//337 279//336
f 274//331 272//329 49//48 46//44
f 272//329 270//327 50//49 49//48
f 263//318 261//315 256//304 254//302
f 351//314 347//308 257//305 256//304
f 259//312 214//253 213//252 33//28
f 213//252 212//251 5//25 33//28
f 143//159 141//156 136//148 134//146
f 331//155 329//151 137//149 136//148
f 319//389 366//390 102//106 320//391
f 319//389 320//391 84//87 80//86
f 320//391 102//106 100//104 99//103
f 320//391 99//103 85//88 84//87
f 366//390 325//109 103//107 102//106
f 99//103 95//99 87//90 85//88
f 78//81 76//79 75//78 23//16
f 67//67 66//66 41//36 40//35
f 379//392 378//393 377//394 367//395
f 381//396 380//397 379//392 367//395
f 377//394 382//398 381//396 367//395
f 385//399 384//400 383//401 368//402
f 368//402 383//401 369//403 387//404
f 387//404 386//405 385//399 368//402
f 390//406 389//407 388//408 369//403
f 383//401 391//409 390//406 369//403
f 394//410 393//411 392//412 370//413
f 371//414 396//415 395//416 370//413
f 392//412 397//417 371//414 370//413
f 399//418 398//419 396//415 371//414
f 401//420 400//421 382//398 372//422
f 403//423 402//424 401//420 372//422
f 382//398 377//394 403//423 372//422
f 406//425 405//426 404//427 373//428
f 38//39 39//38 406//425 373//428
f 409//429 408//430 407//431 374//432
f 411//433 410//434 409//429 374//432
f 407//431 412//435 411//433 374//432
f 415//436 414//437 413//438 375//439
f 411//433 412//435 415//436 375//439
f 413//438 410//434 411//433 375//439
f 419//440 418//441 417//442 416//443
f 418//441 419//440 421//444 420//445
f 424//446 423//447 422//448 376//449
f 422//448 426//450 425//451 376//449
f 425//451 427//452 424//446 376//449
f 425//451 65//65 64//64 427//452
f 429//453 428//454 424//446 427//452
f 64//64 321//68 429//453 427//452
f 68//69 404//427 429//453 321//68
f 38//39 373//428 404//427 68//69
f 431//455 430//456 323//71 322//70
f 69//75 432//457 431//455 322//70
f 434//458 433//459 431//455 432//457
f 436//460 435//461 434//458 432//457
f 69//75 77//80 436//460 432//457
f 79//82 437//462 436//460 77//80
f 426//450 438//463 81//84 82//83
f 65//65 425//451 426//450 82//83
f 439//464 80//86 81//84 438//463
f 441//465 440//466 439//464 438//463
f 426//450 422//448 441//465 438//463
f 443//467 442//468 440//466 441//465
f 422//448 423//447 443//467 441//465
f 445//469 444//470 442//468 443//467
f 423//447 446//471 445//469 443//467
f 423//447 424//446 428//454 446//471
f 448//472 447//473 445//469 446//471
f 428//454 405//426 448//472 446//471
f 449//474 430//456 447//473 448//472
f 405//426 406//425 449//474 448//472
f 324//98 323//71 430//456 449//474
f 406//425 39//38 324//98 449//474
f 433//459 444//470 445//469 447//473
f 430//456 431//455 433//459 447//473
f 451//475 450//476 442//468 444//470
f 433//459 434//458 451//475 444//470
f 453//477 452//478 450//476 451//475
f 434//458 435//461 453//477 451//475
f 390//406 391//409 452//478 453//477
f 435//461 389//407 390//406 453//477
f 455//479 454//480 450//476 452//478
f 391//409 456//481 455//479 452//478
f 458//482 457//483 455//479 456//481
f 384//400 459//484 458//482 456//481
f 391//409 383//401 384//400 456//481
f 105//110 325//109 458//482 459//484
f 460//485 106//111 105//110 459//484
f 384//400 385//399 460//485 459//484
f 385//399 462//486 461//487 460//485
f 461//487 326//115 106//111 460//485
f 461//487 463//488 110//116 326//115
f 465//489 464//490 113//119 112//118
f 110//116 463//488 465//489 112//118
f 467//491 466//492 464//490 465//489
f 463//488 468//493 467//491 465//489
f 470//494 469//495 467//495 468//494
f 462//496 471//496 470//494 468//494
f 463//488 461//487 462//486 468//493
f 473//497 472//498 470//499 471//500
f 386//405 474//501 473//497 471//500
f 462//496 385//399 386//405 471//496
f 327//134 125//133 473//497 474//501
f 475//502 328//135 327//134 474//501
f 386//405 387//404 475//502 474//501
f 476//503 127//137 328//135 475//502
f 387//404 477//504 476//503 475//502
f 479//505 478//506 476//503 477//504
f 481//507 480//508 479//505 477//504
f 387//404 369//403 481//507 477//504
f 483//509 482//510 480//511 481//512
f 369//403 388//408 483//509 481//512
f 485//513 484//514 482//510 483//509
f 388//408 486//515 485//513 483//509
f 388//408 389//407 437//462 486//515
f 330//152 329//151 485//513 486//515
f 437//462 79//153 330//152 486//515
f 487//516 484//514 331//155 139//154
f 140//158 488//517 487//516 139//154
f 490//518 489//519 487//516 488//517
f 492//520 491//521 490//518 488//517
f 140//158 147//163 492//520 488//517
f 149//165 493//522 492//520 147//163
f 495//523 494//524 332//167 150//166
f 113//119 464//490 495//523 150//166
f 497//525 496//526 494//524 495//523
f 464//490 466//492 497//525 495//523
f 499//527 498//528 496//526 497//525
f 466//529 500//529 499//527 497//525
f 502//530 501//531 499//532 500//533
f 469//534 503//535 502//530 500//533
f 466//529 467//495 469//495 500//529
f 334//182 333//181 502//530 503//535
f 472//498 335//183 334//182 503//535
f 469//534 470//499 472//498 503//535
f 472//498 473//497 125//133 335//183
f 336//184 501//531 502//530 333//181
f 505//536 504//537 337//186 338//185
f 332//167 494//524 505//536 338//185
f 507//538 506//539 504//537 505//536
f 494//524 496//526 507//538 505//536
f 509//540 508//541 506//539 507//538
f 496//526 498//528 509//540 507//538
f 511//542 510//543 508//541 509//540
f 498//544 512//545 511//542 509//540
f 161//198 171//546 511//542 512//545
f 501//531 336//184 161//198 512//545
f 498//544 499//532 501//531 512//545
f 339//547 510//543 511//542 171//546
f 513//548 421//444 173//201 340//200
f 337//186 504//537 513//548 340//200
f 514//549 420//445 421//444 513//548
f 504//537 506//539 514//549 513//548
f 515//550 418//441 420//445 514//549
f 506//539 508//541 515//550 514//549
f 516//551 417//442 418//441 515//550
f 508//541 510//543 516//551 515//550
f 172//207 178//206 417//442 516//551
f 510//543 339//547 172//207 516//551
f 179//208 416//443 417//442 178//206
f 180//209 419//440 416//443 179//208
f 173//201 421//444 419//440 180//209
f 478//506 517//552 341//211 342//210
f 127//137 476//503 478//506 342//210
f 518//553 182//213 341//211 517//552
f 520//554 519//555 518//553 517//552
f 478//506 479//505 520//554 517//552
f 522//556 521//557 519//555 520//554
f 479//505 480//508 522//556 520//554
f 489//519 490//518 521//558 522//559
f 480//511 482//510 489//519 522//559
f 524//560 523//561 519//555 521//557
f 490//518 491//521 524//562 521//558
f 526//563 525//563 523//561 524//560
f 491//521 527//564 526//565 524//562
f 529//566 528//566 526//565 527//564
f 493//522 530//567 529//568 527//564
f 491//521 492//520 493//522 527//564
f 532//569 531//570 529//568 530//567
f 199//233 198//232 532//569 530//567
f 493//522 149//165 199//233 530//567
f 534//571 533//572 343//235 200//234
f 182//213 518//553 534//571 200//234
f 523//561 525//573 533//572 534//571
f 518//553 519//555 523//561 534//571
f 535//574 203//239 343//235 533//572
f 525//573 536//575 535//574 533//572
f 538//576 537//577 535//574 536//575
f 528//578 539//579 538//576 536//578
f 525//563 526//563 528//578 536//578
f 541//580 540//581 538//576 539//579
f 531//570 542//582 541//583 539//584
f 528//566 529//566 531//570 539//584
f 544//585 543//586 541//583 542//582
f 546//587 545//588 544//585 542//582
f 531//570 532//569 546//587 542//582
f 216//256 344//255 545//588 546//587
f 532//569 198//232 216//256 546//587
f 537//577 547//589 345//258 217//257
f 203//239 535//574 537//577 217//257
f 548//590 346//260 345//258 547//589
f 540//581 549//591 548//590 547//589
f 537//577 538//576 540//581 547//589
f 397//592 550//593 548//590 549//591
f 543//594 371//414 397//417 549//591
f 540//581 541//580 543//594 549//591
f 222//266 346//260 548//590 550//593
f 551//595 223//267 222//266 550//593
f 397//592 392//412 551//595 550//593
f 392//412 393//411 552//596 551//595
f 552//596 226//270 223//267 551//595
f 552//596 553//597 227//271 226//270
f 555//598 554//599 230//274 229//273
f 227//271 553//597 555//598 229//273
f 557//600 556//601 554//599 555//598
f 553//597 558//602 557//600 555//598
f 560//603 559//604 557//600 558//602
f 393//411 394//410 560//603 558//602
f 553//597 552//596 393//411 558//602
f 562//605 561//606 559//607 560//608
f 394//609 563//609 562//605 560//608
f 565//610 564//611 562//605 563//612
f 567//613 566//614 565//610 563//612
f 394//609 370//413 567//615 563//609
f 569//616 568//617 566//614 567//613
f 370//413 395//416 569//616 567//615
f 571//618 570//619 568//617 569//616
f 395//416 572//620 571//618 569//616
f 574//621 573//622 571//618 572//620
f 576//623 575//624 574//621 572//620
f 395//416 396//415 576//623 572//620
f 578//625 577//626 575//624 576//623
f 396//415 398//419 578//625 576//623
f 580//627 579//628 577//626 578//625
f 398//419 581//629 580//627 578//625
f 398//419 399//418 582//630 581//629
f 348//309 347//308 580//627 581//629
f 582//630 349//310 348//310 581//629
f 582//631 545//588 344//255 349//311
f 583//632 579//628 351//314 350//313
f 260//317 584//633 583//632 350//313
f 586//634 585//635 583//632 584//633
f 588//636 587//637 586//634 584//633
f 260//317 267//322 588//636 584//633
f 352//324 589//638 588//636 267//322
f 591//639 590//640 353//326 269//325
f 230//274 554//599 591//639 269//325
f 593//641 592//642 590//640 591//639
f 554//599 556//601 593//641 591//639
f 595//643 594//644 592//642 593//641
f 556//601 596//645 595//643 593//641
f 598//646 597//647 595//643 596//645
f 559//607 561//606 598//646 596//645
f 556//601 557//600 559//604 596//645
f 600//648 599//649 597//647 598//646
f 561//606 601//650 600//648 598//646
f 355//340 354//339 600//648 601//650
f 564//611 282//341 355//340 601//650
f 561//606 562//605 564//611 601//650
f 564//611 565//610 283//342 282//341
f 565//610 566//614 284//343 283//342
f 566//614 568//617 285//344 284//343
f 568//617 570//619 286//345 285//344
f 570//619 602//651 287//346 286//345
f 603//652 289//348 287//346 602//651
f 573//622 604//653 603//652 602//651
f 570//619 571//618 573//622 602//651
f 606//654 605//655 603//652 604//653
f 608//656 607//657 606//654 604//653
f 573//622 574//621 608//656 604//653
f 610//658 609//659 607//657 608//656
f 574//621 575//624 610//658 608//656
f 585//635 586//634 609//659 610//658
f 575//624 577//626 585//635 610//658
f 612//660 611//661 607//657 609//659
f 586//634 587//637 612//660 609//659
f 614//662 613//663 611//661 612//660
f 587//637 615//664 614//662 612//660
f 616//665 378//393 614//662 615//664
f 589//638 617//666 616//665 615//664
f 587//637 588//636 589//638 615//664
f 402//424 403//423 616//665 617//666
f 305//365 356//364 402//424 617//666
f 589//638 352//324 305//365 617//666
f 605//655 618//667 357//367 358//366
f 289//348 603//652 605//655 358//366
f 619//668 359//369 357//367 618//667
f 621//669 620//670 619//668 618//667
f 605//655 606//654 621//669 618//667
f 611//661 613//663 620//670 621//669
f 606//654 607//657 611//661 621//669
f 380//397 622//671 619//668 620//670
f 613//663 379//392 380//397 620//670
f 360//374 359//369 619//668 622//671
f 623//672 311//375 360//374 622//671
f 380//397 381//396 623//672 622//671
f 400//421 313//377 311//375 623//672
f 381//396 382//398 400//421 623//672
f 400//421 401//420 314//378 313//377
f 401//420 402//424 356//364 314//378
f 403//423 377//394 378//393 616//665
f 378//393 379//392 613//663 614//662
f 408//430 624//673 361//380 362//379
f 363//382 407//431 408//430 362//379
f 316//383 412//435 407//431 363//382
f 317//384 415//436 412//435 316//383
f 364//386 414//437 415//436 317//385
f 353//326 590//640 414//437 364//386
f 599//649 365//387 361//380 624//673
f 625//674 597//647 599//649 624//673
f 408//430 409//429 625//674 624//673
f 594//644 595//643 597//647 625//674
f 409//429 410//434 594//644 625//674
f 599//649 600//648 354//339 365//387
f 410//434 413//438 592//642 594//644
f 413//438 414//437 590//640 592//642
f 577//626 579//628 583//632 585//635
f 579//628 580//627 347//308 351//314
f 399//418 544//585 545//588 582//631
f 399//418 371//414 543//586 544//585
f 482//510 484//514 487//516 489//519
f 484//514 485//513 329//151 331//155
f 626//675 457//483 366//390 319//389
f 80//86 439//464 626//675 319//389
f 454//480 455//479 457//483 626//675
f 439//464 440//466 454//480 626//675
f 457//483 458//482 325//109 366//390
f 440//466 442//468 450//476 454//480
f 389//407 435//461 436//460 437//462
f 404//427 405//426 428//454 429//453
