# pilowlava3D glyph '#' variant 1 — Vincent Wagner / Velvetyne, Free Art License
v 4.44947 2.99279 -0.21746
v 4.49097 2.36111 -0.34819
v 2.72063 2.17081 -0.10630
v 2.65722 2.35695 -0.12710
v 4.29910 3.00732 -0.26771
v 4.59591 2.83952 -0.24878
v 4.41523 2.81618 -0.41347
v 4.56306 2.30625 -0.20949
v 4.34166 2.18645 -0.20922
v 4.32713 2.30965 -0.37788
v 4.29465 2.53757 -0.46659
v 4.50410 2.56610 -0.41630
v 4.66605 2.56853 -0.23497
v 2.88139 2.16225 0.00000
v 2.64475 2.17760 -0.15456
v 2.82465 2.22074 -0.27054
v 2.86406 2.18046 -0.15582
v 2.81737 2.44246 0.00000
v 2.63332 2.35773 0.00000
v 2.55639 2.30556 0.00000
v 2.80377 2.41233 -0.17521
v 2.78883 2.35513 -0.28194
v 2.59277 2.30852 -0.17424
v 2.79716 2.28122 -0.30920
v 2.58170 2.21877 -0.19975
v 2.53528 2.20607 0.00000
v 3.18641 2.57357 -0.20368
v 2.99665 2.49247 -0.19969
v 3.21210 2.49866 -0.35437
v 3.00485 2.42773 -0.33367
v 3.24223 2.38149 -0.40309
v 3.02309 2.33474 -0.37659
v 3.26280 2.26473 -0.33940
v 3.04710 2.24656 -0.32107
v 3.27003 2.19045 -0.18687
v 3.06521 2.18739 -0.18393
v 3.26791 2.15742 0.00000
v 3.06989 2.16014 0.00000
v 3.54164 2.77295 0.00000
v 3.35735 2.69076 0.00000
v 3.56799 2.72933 -0.21836
v 3.37750 2.65535 -0.20882
v 3.61404 2.62165 -0.39751
v 3.41165 2.56618 -0.37262
v 3.65939 2.45112 -0.44670
v 3.44894 2.41911 -0.42433
v 3.68255 2.29065 -0.36807
v 3.47202 2.27781 -0.35200
v 3.68523 2.19356 -0.19459
v 3.47784 2.19246 -0.18905
v 3.92490 2.88781 -0.25150
v 3.75031 2.80345 -0.23113
v 4.01453 2.73314 -0.43986
v 3.81676 2.67498 -0.42025
v 4.09298 2.50703 -0.47235
v 3.87836 2.48200 -0.46233
v 4.11008 2.29675 -0.38722
v 3.89674 2.29949 -0.38056
v 4.10686 2.17299 -0.20583
v 3.89311 2.18933 -0.19953
v 4.35237 2.14930 0.00000
v 4.58817 2.28800 0.00000
v 4.20785 2.77938 -0.44596
v 4.10183 2.96678 -0.26960
v 4.06667 3.03139 0.00000
v 3.66127 4.28493 -0.29523
v 3.37900 4.41313 -0.29790
v 3.02757 2.93999 -0.10840
v 3.72353 4.29806 -0.17187
v 3.68497 4.08346 -0.18136
v 3.60593 4.13619 -0.33447
v 3.53616 4.38386 -0.32219
v 3.57388 4.46489 -0.17196
v 3.46082 4.21766 -0.39527
v 3.34974 4.47218 -0.17275
v 3.29829 4.27361 -0.33750
v 3.20092 4.30041 -0.18182
v 3.09898 3.03522 0.00000
v 2.95300 2.86901 0.00000
v 2.95933 2.89241 -0.13749
v 3.01205 3.01505 -0.24823
v 3.07355 3.02843 -0.14828
v 2.90732 3.10903 -0.20762
v 2.93172 3.03551 -0.26777
v 2.86487 2.92248 -0.12684
v 2.87449 3.07231 -0.10968
v 2.93184 3.27864 -0.14850
v 2.96777 3.26011 -0.26454
v 2.85368 2.92013 0.00000
v 2.86617 3.06840 0.00000
v 2.92017 3.28517 0.00000
v 2.96889 3.48689 0.00000
v 2.98795 3.48175 -0.17302
v 3.01872 3.68892 0.00000
v 3.09719 3.88767 -0.18762
v 3.04438 3.68482 -0.18464
v 3.18289 3.86588 -0.33660
v 3.11443 3.66429 -0.32249
v 3.04096 3.46276 -0.29979
v 3.20473 3.62862 -0.37434
v 3.11996 3.43102 -0.35447
v 3.02990 3.23134 -0.32528
v 3.20414 3.39957 -0.31057
v 3.11185 3.20565 -0.28924
v 3.26326 3.37637 -0.18609
v 3.16634 3.19744 -0.17736
v 3.28562 3.36426 0.00000
v 3.18903 3.19497 0.00000
v 3.11356 4.10007 0.00000
v 3.14162 4.09256 -0.18772
v 3.23995 4.07079 -0.34535
v 3.37438 4.02598 -0.40282
v 3.29002 3.82646 -0.38993
v 3.49781 3.96087 -0.34529
v 3.39311 3.77769 -0.33876
v 3.29592 3.58970 -0.32696
v 3.46896 3.73331 -0.19056
v 3.36385 3.55605 -0.18984
v 3.57888 3.90745 -0.18912
v 3.74279 4.30143 0.00000
v 3.58353 4.48331 0.00000
v 4.06830 1.26542 -0.30636
v 2.39443 0.26135 -0.30102
v 3.89380 0.96145 -0.32311
v 2.73824 0.22297 -0.32587
v 4.13084 1.28600 -0.18102
v 4.10098 1.03121 -0.18849
v 4.01507 1.08842 -0.34302
v 3.95125 1.35786 -0.34013
v 3.99258 1.45048 -0.18588
v 3.86186 1.18456 -0.40980
v 2.39761 0.40881 -0.33218
v 2.57656 0.38066 -0.41268
v 2.56487 0.19967 -0.34691
v 2.55695 0.09028 -0.18484
v 2.33691 0.22175 -0.17856
v 2.30832 0.43035 -0.17934
v 3.90176 0.87782 -0.18896
v 3.66252 0.92370 -0.19929
v 3.74555 1.02315 -0.36103
v 2.79427 0.16815 -0.18779
v 2.77138 0.38020 -0.36196
v 2.89619 0.38701 -0.19854
v 2.86096 0.60653 -0.19622
v 2.89490 0.61349 0.00000
v 2.80930 0.14968 0.00000
v 2.74794 0.58568 -0.35842
v 2.71959 0.79767 -0.34535
v 2.81340 0.81049 -0.19461
v 2.58928 0.58088 -0.41297
v 2.59796 0.79624 -0.39513
v 2.60011 1.01155 -0.36838
v 2.69596 1.01003 -0.31978
v 2.44550 0.60045 -0.34413
v 2.48369 0.80307 -0.33752
v 2.50465 1.00941 -0.31546
v 2.51870 1.21965 -0.27667
v 2.59686 1.22321 -0.32810
v 2.39974 0.81469 -0.18764
v 2.43809 1.00922 -0.18291
v 2.47218 1.21193 -0.16332
v 2.50862 1.42330 -0.13868
v 2.54144 1.42440 -0.23795
v 2.41363 1.01425 0.00000
v 2.56407 1.64989 0.00000
v 2.57416 1.64494 -0.13162
v 2.76038 1.81618 0.00000
v 3.00417 1.79813 -0.13810
v 2.76233 1.80448 -0.13362
v 2.99007 1.76801 -0.23595
v 2.77061 1.77552 -0.23264
v 2.59929 1.62958 -0.22973
v 2.78968 1.71169 -0.27322
v 2.64905 1.59838 -0.27490
v 2.60297 1.42107 -0.28612
v 2.69326 1.56626 -0.21590
v 2.66127 1.40928 -0.23596
v 2.67299 1.21678 -0.28003
v 2.69163 1.39740 -0.14055
v 2.72378 1.20738 -0.16637
v 2.76691 1.01224 -0.18681
v 2.74313 1.20342 0.00000
v 2.37196 0.82240 0.00000
v 2.31900 0.19747 0.00000
v 2.35460 0.62339 -0.18618
v 2.55356 0.06520 0.00000
v 3.42454 1.68071 0.00000
v 3.22958 1.74344 0.00000
v 3.41655 1.65736 -0.18048
v 3.21642 1.72921 -0.15971
v 3.38380 1.60095 -0.31275
v 3.19022 1.69461 -0.26977
v 3.33141 1.52393 -0.36565
v 3.15293 1.63490 -0.32193
v 2.97275 1.71017 -0.28445
v 3.12874 1.57459 -0.26518
v 2.96898 1.65803 -0.22716
v 2.80856 1.65733 -0.21548
v 2.97218 1.63104 -0.13550
v 2.82037 1.63109 -0.12969
v 2.71185 1.54793 -0.12999
v 2.82487 1.62161 0.00000
v 2.71799 1.54001 0.00000
v 2.97256 1.61963 0.00000
v 3.11072 1.51986 0.00000
v 3.80289 1.53661 -0.18810
v 3.61024 1.59571 -0.18780
v 3.76989 1.43491 -0.35176
v 3.57680 1.50970 -0.34243
v 3.69633 1.29018 -0.41717
v 3.51664 1.40475 -0.39926
v 3.59198 1.15830 -0.36637
v 3.44481 1.30699 -0.35117
v 3.28644 1.44737 -0.31450
v 3.37528 1.23729 -0.19662
v 3.24992 1.39141 -0.18526
v 3.11823 1.53547 -0.15758
v 3.23022 1.37424 0.00000
v 3.47430 1.05527 0.00000
v 3.64333 0.89756 0.00000
v 3.50103 1.07775 -0.20059
v 4.12234 1.01671 0.00000
v 4.15549 1.28695 0.00000
v 1.20187 0.21205 -0.20412
v 1.90466 1.48112 -0.15274
v 2.07248 1.39297 -0.14542
v 1.56210 0.12589 -0.34087
v 1.16647 0.39382 0.00000
v 1.17155 0.21086 0.00000
v 1.21468 0.35185 -0.24809
v 1.38282 0.20557 -0.37090
v 1.34678 0.05441 -0.22238
v 1.90744 1.50730 0.00000
v 1.80505 1.36668 0.00000
v 1.99670 1.56652 0.00000
v 1.83205 1.36277 -0.19720
v 1.97701 1.52396 -0.21040
v 1.89897 1.34912 -0.30641
v 2.09180 1.41149 0.00000
v 2.09426 1.51199 0.00000
v 2.06786 1.47180 -0.20611
v 2.02953 1.26595 -0.18735
v 1.97829 1.30875 -0.30075
v 1.63848 0.31241 -0.37201
v 1.76002 0.25831 -0.20419
v 1.61359 0.02776 -0.20237
v 1.62720 0.00000 0.00000
v 1.33842 0.01540 0.00000
v 1.81397 0.47958 -0.21024
v 1.94974 0.87118 0.00000
v 1.86073 0.68348 -0.21211
v 1.91342 0.87971 -0.21282
v 1.74882 0.72008 -0.36865
v 1.82027 0.91601 -0.35567
v 1.89935 1.11012 -0.33563
v 1.97159 1.07383 -0.20746
v 2.00099 1.06283 0.00000
v 1.34798 0.73141 0.00000
v 1.38866 0.69289 -0.24562
v 1.28445 0.52954 -0.25365
v 1.52563 0.59710 -0.39943
v 1.44662 0.40951 -0.40773
v 1.68861 0.52054 -0.37624
v 1.61295 0.78323 -0.38453
v 1.50121 0.85539 -0.23849
v 1.61192 1.02307 -0.23047
v 1.70471 0.97131 -0.36568
v 1.72128 1.19319 -0.21902
v 1.79658 1.15939 -0.34124
v 1.69347 1.21040 0.00000
v 1.33741 3.34226 -0.31074
v 1.10930 3.01789 -0.31382
v 2.59367 4.31408 -0.29789
v 2.27496 4.37253 -0.31547
v 1.33617 3.41149 -0.18061
v 1.55072 3.34092 -0.18814
v 1.47717 3.26508 -0.34422
v 1.33905 3.10345 -0.41445
v 1.17876 3.21021 -0.34769
v 1.09392 3.27309 -0.18708
v 1.23570 2.91619 -0.34640
v 1.18974 2.82090 -0.18861
v 1.03954 2.99720 -0.18221
v 2.64620 4.34593 -0.17517
v 2.66746 4.14176 -0.18009
v 2.58189 4.16310 -0.33265
v 2.43675 4.38271 -0.33851
v 2.45419 4.48072 -0.18110
v 2.41039 4.20165 -0.40815
v 2.22977 4.42630 -0.18286
v 2.22210 4.22038 -0.35630
v 2.10167 4.22755 -0.19474
v 2.10062 3.99925 -0.19700
v 2.06884 3.99579 0.00000
v 2.07141 4.23207 0.00000
v 2.21700 4.01069 -0.36119
v 2.23480 3.79516 -0.35270
v 2.13387 3.78702 -0.19774
v 2.38094 4.00354 -0.41642
v 2.36266 3.79006 -0.40430
v 2.35060 3.57559 -0.38701
v 2.24461 3.58054 -0.33788
v 2.52812 3.97404 -0.34838
v 2.48315 3.77626 -0.34438
v 2.45341 3.56900 -0.33303
v 2.43371 3.36065 -0.30857
v 2.34280 3.36056 -0.36048
v 2.57339 3.75834 -0.18993
v 2.53352 3.56252 -0.18966
v 2.49784 3.36349 -0.18016
v 2.46167 3.16211 -0.15791
v 2.41608 3.15364 -0.27043
v 2.43615 2.95701 0.00000
v 2.42355 2.95483 -0.13232
v 2.37905 2.73802 0.00000
v 2.22080 2.55606 0.00000
v 2.22038 2.56936 -0.13832
v 2.37007 2.74326 -0.12549
v 2.21959 2.60148 -0.23551
v 2.34811 2.75490 -0.21505
v 2.39225 2.95236 -0.22872
v 2.30984 2.77225 -0.26714
v 2.33540 2.95230 -0.28138
v 2.33741 3.15075 -0.32443
v 2.27001 2.95973 -0.23773
v 2.25758 3.15854 -0.27744
v 2.25134 3.36638 -0.31308
v 2.20728 3.16933 -0.16328
v 2.18592 3.37308 -0.18536
v 2.16251 3.57862 -0.19690
v 2.10240 3.78150 0.00000
v 2.69482 4.13825 0.00000
v 2.66343 4.36194 0.00000
v 2.62289 3.94803 -0.18710
v 2.45962 4.50492 0.00000
v 1.78221 2.61453 -0.18620
v 1.99494 2.54917 -0.16140
v 1.81472 2.66742 -0.31207
v 2.01682 2.58823 -0.27032
v 1.86279 2.74193 -0.36174
v 2.04175 2.65083 -0.31707
v 2.20628 2.65156 -0.28370
v 2.05679 2.71295 -0.26296
v 2.18541 2.69249 -0.23348
v 2.26473 2.78978 -0.22360
v 2.17324 2.71221 -0.14017
v 2.24318 2.79751 -0.13302
v 2.23422 2.96691 -0.14034
v 2.23396 2.80559 0.00000
v 2.22050 2.97011 0.00000
v 2.17082 2.72153 0.00000
v 2.07014 2.76034 0.00000
v 1.57892 2.65012 0.00000
v 1.38782 2.73485 -0.19176
v 1.58488 2.68083 -0.19422
v 1.42316 2.84228 -0.35718
v 1.61865 2.76615 -0.34633
v 1.50491 2.99312 -0.41782
v 1.68211 2.87097 -0.39906
v 1.61536 3.11977 -0.35433
v 1.75641 2.96406 -0.34321
v 1.90759 2.81711 -0.30753
v 1.82150 3.02500 -0.19103
v 1.94148 2.86851 -0.17926
v 2.06432 2.74729 -0.15368
v 1.72414 3.20522 0.00000
v 1.57039 3.36254 0.00000
v 1.70017 3.18764 -0.19096
v 1.32693 3.43337 0.00000
v 1.07584 3.29070 0.00000
v 1.01354 3.00167 0.00000
v 2.15620 1.85056 -0.10848
v 0.16119 2.47483 -0.22474
v 0.19128 2.00966 -0.35028
v 2.17956 2.04893 -0.11028
v 2.17407 1.84314 0.00000
v 2.23911 1.88284 -0.15607
v 2.02393 1.85496 -0.16197
v 2.06245 1.91265 -0.27439
v 0.34865 2.56402 0.00000
v 0.31786 2.49128 -0.27671
v 0.20706 2.24839 -0.39374
v 0.04122 2.23877 -0.23566
v 0.37303 1.98726 -0.37788
v 0.35896 1.84939 -0.20732
v 0.10728 1.94051 -0.21246
v 0.41348 2.23622 -0.43196
v 2.19822 2.05107 0.00000
v 2.03564 2.09893 0.00000
v 2.25272 1.99400 -0.15733
v 2.07436 2.00848 -0.27408
v 2.05306 2.07598 -0.16253
v 1.85780 2.11582 -0.20023
v 1.85934 2.04148 -0.31938
v 1.65000 2.07403 -0.34544
v 1.66013 2.16345 -0.21527
v 1.84501 1.93365 -0.31806
v 1.63485 1.95339 -0.34288
v 1.42805 1.96976 -0.35838
v 1.44494 2.10417 -0.36341
v 1.82561 1.86139 -0.19725
v 1.62305 1.86379 -0.20961
v 1.41848 1.86707 -0.21649
v 1.21353 1.86839 -0.21980
v 1.22224 1.98241 -0.37087
v 1.21291 1.82675 0.00000
v 1.00793 1.82317 0.00000
v 1.00582 1.86771 -0.22113
v 0.80061 1.81894 0.00000
v 0.58797 1.85963 -0.21146
v 0.79794 1.86510 -0.21682
v 0.59039 2.00535 -0.38844
v 0.80392 2.00298 -0.38842
v 1.01421 1.99412 -0.38211
v 0.83326 2.18899 -0.41388
v 1.03859 2.16029 -0.39759
v 1.24133 2.13106 -0.38080
v 1.06801 2.30182 -0.24215
v 1.26369 2.25449 -0.23299
v 1.46162 2.20965 -0.22453
v 1.27791 2.30216 0.00000
v 0.68488 2.40042 -0.26143
v 0.50359 2.45201 -0.27768
v 0.62279 2.21378 -0.42677
v 0.87487 2.35154 -0.25181
v 1.08571 2.35582 0.00000
v 0.07394 1.92523 0.00000
v 0.00000 2.24483 0.00000
v 4.26286 3.07444 0.00000
v 4.45481 3.02946 0.00000
v 4.63956 2.84941 0.00000
v 2.69720 2.16208 0.00000
v 2.61338 2.16614 0.00000
v 3.17152 2.60505 0.00000
v 2.99261 2.52275 0.00000
v 3.68196 2.15110 0.00000
v 3.47467 2.15489 0.00000
v 3.88937 2.94837 0.00000
v 3.71854 2.85766 0.00000
v 4.10827 2.12794 0.00000
v 3.89026 2.14297 0.00000
v 4.70317 2.56740 0.00000
v 3.02959 2.92372 0.00000
v 3.06857 3.89245 0.00000
v 3.17719 4.31013 0.00000
v 3.49383 3.71682 0.00000
v 3.38757 3.53973 0.00000
v 3.60262 3.89135 0.00000
v 3.70657 4.07113 0.00000
v 3.34198 4.49031 0.00000
v 2.93121 0.38363 0.00000
v 2.45280 1.20769 0.00000
v 2.49555 1.42229 0.00000
v 3.01154 1.81020 0.00000
v 2.79226 1.01563 0.00000
v 2.84365 0.81824 0.00000
v 2.27944 0.43603 0.00000
v 2.32730 0.63336 0.00000
v 2.70297 1.39137 0.00000
v 3.81167 1.56374 0.00000
v 3.61647 1.62367 0.00000
v 3.34729 1.21985 0.00000
v 3.90544 0.85336 0.00000
v 4.00622 1.47423 0.00000
v 2.04905 1.24892 0.00000
v 1.79028 0.23894 0.00000
v 1.85130 0.46702 0.00000
v 1.89938 0.67383 0.00000
v 1.23838 0.57060 0.00000
v 1.58027 1.05009 0.00000
v 1.46651 0.89071 0.00000
v 2.21567 4.44362 0.00000
v 2.56363 3.55628 0.00000
v 2.52258 3.36196 0.00000
v 2.47953 3.16599 0.00000
v 2.16148 3.37750 0.00000
v 2.13307 3.57557 0.00000
v 2.65345 3.93976 0.00000
v 2.60525 3.74896 0.00000
v 1.77077 2.59068 0.00000
v 1.98589 2.53300 0.00000
v 2.18922 3.17591 0.00000
v 1.37834 2.70592 0.00000
v 1.96096 2.88543 0.00000
v 1.84647 3.04042 0.00000
v 1.17412 2.79722 0.00000
v 2.27612 1.87473 0.00000
v 2.00235 1.83694 0.00000
v 0.14368 2.50950 0.00000
v 2.28767 1.99557 0.00000
v 1.85503 2.14400 0.00000
v 1.61939 1.83177 0.00000
v 1.41817 1.82888 0.00000
v 0.58569 1.81399 0.00000
v 1.47287 2.25004 0.00000
v 1.66668 2.19683 0.00000
v 1.81709 1.83638 0.00000
v 0.71151 2.46435 0.00000
v 0.53621 2.52219 0.00000
v 0.89639 2.41072 0.00000
v 0.34628 1.81035 0.00000
v 4.44947 2.99279 0.21746
v 4.49097 2.36111 0.34819
v 2.72063 2.17081 0.10630
v 2.65722 2.35695 0.12710
v 4.29910 3.00732 0.26771
v 4.59591 2.83952 0.24878
v 4.41523 2.81618 0.41347
v 4.56306 2.30625 0.20949
v 4.34166 2.18645 0.20922
v 4.32713 2.30965 0.37788
v 4.29465 2.53757 0.46659
v 4.50410 2.56610 0.41630
v 4.66605 2.56853 0.23497
v 2.64475 2.17760 0.15456
v 2.82465 2.22074 0.27054
v 2.86406 2.18046 0.15582
v 2.80377 2.41233 0.17521
v 2.78883 2.35513 0.28194
v 2.59277 2.30852 0.17424
v 2.79716 2.28122 0.30920
v 2.58170 2.21877 0.19975
v 3.18641 2.57357 0.20368
v 2.99665 2.49247 0.19969
v 3.21210 2.49866 0.35437
v 3.00485 2.42773 0.33367
v 3.24223 2.38149 0.40309
v 3.02309 2.33474 0.37659
v 3.26280 2.26473 0.33940
v 3.04710 2.24656 0.32107
v 3.27003 2.19045 0.18687
v 3.06521 2.18739 0.18393
v 3.56799 2.72933 0.21836
v 3.37750 2.65535 0.20882
v 3.61404 2.62165 0.39751
v 3.41165 2.56618 0.37262
v 3.65939 2.45112 0.44670
v 3.44894 2.41911 0.42433
v 3.68255 2.29065 0.36807
v 3.47202 2.27781 0.35200
v 3.68523 2.19356 0.19459
v 3.47784 2.19246 0.18905
v 3.92490 2.88781 0.25150
v 3.75031 2.80345 0.23113
v 4.01453 2.73314 0.43986
v 3.81676 2.67498 0.42025
v 4.09298 2.50703 0.47235
v 3.87836 2.48200 0.46233
v 4.11008 2.29675 0.38722
v 3.89674 2.29949 0.38056
v 4.10686 2.17299 0.20583
v 3.89311 2.18933 0.19953
v 4.20785 2.77938 0.44596
v 4.10183 2.96678 0.26960
v 3.66127 4.28493 0.29523
v 3.37900 4.41313 0.29790
v 3.02757 2.93999 0.10840
v 3.72353 4.29806 0.17187
v 3.68497 4.08346 0.18136
v 3.60593 4.13619 0.33447
v 3.53616 4.38386 0.32219
v 3.57388 4.46489 0.17196
v 3.46082 4.21766 0.39527
v 3.34974 4.47218 0.17275
v 3.29829 4.27361 0.33750
v 3.20092 4.30041 0.18182
v 2.95933 2.89241 0.13749
v 3.01205 3.01505 0.24823
v 3.07355 3.02843 0.14828
v 2.90732 3.10903 0.20762
v 2.93172 3.03551 0.26777
v 2.86487 2.92248 0.12684
v 2.87449 3.07231 0.10968
v 2.93184 3.27864 0.14850
v 2.96777 3.26011 0.26454
v 2.98795 3.48175 0.17302
v 3.09719 3.88767 0.18762
v 3.04438 3.68482 0.18464
v 3.18289 3.86588 0.33660
v 3.11443 3.66429 0.32249
v 3.04096 3.46276 0.29979
v 3.20473 3.62862 0.37434
v 3.11996 3.43102 0.35447
v 3.02990 3.23134 0.32528
v 3.20414 3.39957 0.31057
v 3.11185 3.20565 0.28924
v 3.26326 3.37637 0.18609
v 3.16634 3.19744 0.17736
v 3.14162 4.09256 0.18772
v 3.23995 4.07079 0.34535
v 3.37438 4.02598 0.40282
v 3.29002 3.82646 0.38993
v 3.49781 3.96087 0.34529
v 3.39311 3.77769 0.33876
v 3.29592 3.58970 0.32696
v 3.46896 3.73331 0.19056
v 3.36385 3.55605 0.18984
v 3.57888 3.90745 0.18912
v 4.06830 1.26542 0.30636
v 2.39443 0.26135 0.30102
v 3.89380 0.96145 0.32311
v 2.73824 0.22297 0.32587
v 4.13084 1.28600 0.18102
v 4.10098 1.03121 0.18849
v 4.01507 1.08842 0.34302
v 3.95125 1.35786 0.34013
v 3.99258 1.45048 0.18588
v 3.86186 1.18456 0.40980
v 2.39761 0.40881 0.33218
v 2.57656 0.38066 0.41268
v 2.56487 0.19967 0.34691
v 2.55695 0.09028 0.18484
v 2.33691 0.22175 0.17856
v 2.30832 0.43035 0.17934
v 3.90176 0.87782 0.18896
v 3.66252 0.92370 0.19929
v 3.74555 1.02315 0.36103
v 2.79427 0.16815 0.18779
v 2.77138 0.38020 0.36196
v 2.89619 0.38701 0.19854
v 2.86096 0.60653 0.19622
v 2.74794 0.58568 0.35842
v 2.71959 0.79767 0.34535
v 2.81340 0.81049 0.19461
v 2.58928 0.58088 0.41297
v 2.59796 0.79624 0.39513
v 2.60011 1.01155 0.36838
v 2.69596 1.01003 0.31978
v 2.44550 0.60045 0.34413
v 2.48369 0.80307 0.33752
v 2.50465 1.00941 0.31546
v 2.51870 1.21965 0.27667
v 2.59686 1.22321 0.32810
v 2.39974 0.81469 0.18764
v 2.43809 1.00922 0.18291
v 2.47218 1.21193 0.16332
v 2.50862 1.42330 0.13868
v 2.54144 1.42440 0.23795
v 2.57416 1.64494 0.13162
v 3.00417 1.79813 0.13810
v 2.76233 1.80448 0.13362
v 2.99007 1.76801 0.23595
v 2.77061 1.77552 0.23264
v 2.59929 1.62958 0.22973
v 2.78968 1.71169 0.27322
v 2.64905 1.59838 0.27490
v 2.60297 1.42107 0.28612
v 2.69326 1.56626 0.21590
v 2.66127 1.40928 0.23596
v 2.67299 1.21678 0.28003
v 2.69163 1.39740 0.14055
v 2.72378 1.20738 0.16637
v 2.76691 1.01224 0.18681
v 2.35460 0.62339 0.18618
v 3.41655 1.65736 0.18048
v 3.21642 1.72921 0.15971
v 3.38380 1.60095 0.31275
v 3.19022 1.69461 0.26977
v 3.33141 1.52393 0.36565
v 3.15293 1.63490 0.32193
v 2.97275 1.71017 0.28445
v 3.12874 1.57459 0.26518
v 2.96898 1.65803 0.22716
v 2.80856 1.65733 0.21548
v 2.97218 1.63104 0.13550
v 2.82037 1.63109 0.12969
v 2.71185 1.54793 0.12999
v 3.80289 1.53661 0.18810
v 3.61024 1.59571 0.18780
v 3.76989 1.43491 0.35176
v 3.57680 1.50970 0.34243
v 3.69633 1.29018 0.41717
v 3.51664 1.40475 0.39926
v 3.59198 1.15830 0.36637
v 3.44481 1.30699 0.35117
v 3.28644 1.44737 0.31450
v 3.37528 1.23729 0.19662
v 3.24992 1.39141 0.18526
v 3.11823 1.53547 0.15758
v 3.50103 1.07775 0.20059
v 1.20187 0.21205 0.20412
v 1.90466 1.48112 0.15274
v 2.07248 1.39297 0.14542
v 1.56210 0.12589 0.34087
v 1.21468 0.35185 0.24809
v 1.38282 0.20557 0.37090
v 1.34678 0.05441 0.22238
v 1.83205 1.36277 0.19720
v 1.97701 1.52396 0.21040
v 1.89897 1.34912 0.30641
v 2.06786 1.47180 0.20611
v 2.02953 1.26595 0.18735
v 1.97829 1.30875 0.30075
v 1.63848 0.31241 0.37201
v 1.76002 0.25831 0.20419
v 1.61359 0.02776 0.20237
v 1.81397 0.47958 0.21024
v 1.86073 0.68348 0.21211
v 1.91342 0.87971 0.21282
v 1.74882 0.72008 0.36865
v 1.82027 0.91601 0.35567
v 1.89935 1.11012 0.33563
v 1.97159 1.07383 0.20746
v 1.38866 0.69289 0.24562
v 1.28445 0.52954 0.25365
v 1.52563 0.59710 0.39943
v 1.44662 0.40951 0.40773
v 1.68861 0.52054 0.37624
v 1.61295 0.78323 0.38453
v 1.50121 0.85539 0.23849
v 1.61192 1.02307 0.23047
v 1.70471 0.97131 0.36568
v 1.72128 1.19319 0.21902
v 1.79658 1.15939 0.34124
v 1.33741 3.34226 0.31074
v 1.10930 3.01789 0.31382
v 2.59367 4.31408 0.29789
v 2.27496 4.37253 0.31547
v 1.33617 3.41149 0.18061
v 1.55072 3.34092 0.18814
v 1.47717 3.26508 0.34422
v 1.33905 3.10345 0.41445
v 1.17876 3.21021 0.34769
v 1.09392 3.27309 0.18708
v 1.23570 2.91619 0.34640
v 1.18974 2.82090 0.18861
v 1.03954 2.99720 0.18221
v 2.64620 4.34593 0.17517
v 2.66746 4.14176 0.18009
v 2.58189 4.16310 0.33265
v 2.43675 4.38271 0.33851
v 2.45419 4.48072 0.18110
v 2.41039 4.20165 0.40815
v 2.22977 4.42630 0.18286
v 2.22210 4.22038 0.35630
v 2.10167 4.22755 0.19474
v 2.10062 3.99925 0.19700
v 2.21700 4.01069 0.36119
v 2.23480 3.79516 0.35270
v 2.13387 3.78702 0.19774
v 2.38094 4.00354 0.41642
v 2.36266 3.79006 0.40430
v 2.35060 3.57559 0.38701
v 2.24461 3.58054 0.33788
v 2.52812 3.97404 0.34838
v 2.48315 3.77626 0.34438
v 2.45341 3.56900 0.33303
v 2.43371 3.36065 0.30857
v 2.34280 3.36056 0.36048
v 2.57339 3.75834 0.18993
v 2.53352 3.56252 0.18966
v 2.49784 3.36349 0.18016
v 2.46167 3.16211 0.15791
v 2.41608 3.15364 0.27043
v 2.42355 2.95483 0.13232
v 2.22038 2.56936 0.13832
v 2.37007 2.74326 0.12549
v 2.21959 2.60148 0.23551
v 2.34811 2.75490 0.21505
v 2.39225 2.95236 0.22872
v 2.30984 2.77225 0.26714
v 2.33540 2.95230 0.28138
v 2.33741 3.15075 0.32443
v 2.27001 2.95973 0.23773
v 2.25758 3.15854 0.27744
v 2.25134 3.36638 0.31308
v 2.20728 3.16933 0.16328
v 2.18592 3.37308 0.18536
v 2.16251 3.57862 0.19690
v 2.62289 3.94803 0.18710
v 1.78221 2.61453 0.18620
v 1.99494 2.54917 0.16140
v 1.81472 2.66742 0.31207
v 2.01682 2.58823 0.27032
v 1.86279 2.74193 0.36174
v 2.04175 2.65083 0.31707
v 2.20628 2.65156 0.28370
v 2.05679 2.71295 0.26296
v 2.18541 2.69249 0.23348
v 2.26473 2.78978 0.22360
v 2.17324 2.71221 0.14017
v 2.24318 2.79751 0.13302
v 2.23422 2.96691 0.14034
v 1.38782 2.73485 0.19176
v 1.58488 2.68083 0.19422
v 1.42316 2.84228 0.35718
v 1.61865 2.76615 0.34633
v 1.50491 2.99312 0.41782
v 1.68211 2.87097 0.39906
v 1.61536 3.11977 0.35433
v 1.75641 2.96406 0.34321
v 1.90759 2.81711 0.30753
v 1.82150 3.02500 0.19103
v 1.94148 2.86851 0.17926
v 2.06432 2.74729 0.15368
v 1.70017 3.18764 0.19096
v 2.15620 1.85056 0.10848
v 0.16119 2.47483 0.22474
v 0.19128 2.00966 0.35028
v 2.17956 2.04893 0.11028
v 2.23911 1.88284 0.15607
v 2.02393 1.85496 0.16197
v 2.06245 1.91265 0.27439
v 0.31786 2.49128 0.27671
v 0.20706 2.24839 0.39374
v 0.04122 2.23877 0.23566
v 0.37303 1.98726 0.37788
v 0.35896 1.84939 0.20732
v 0.10728 1.94051 0.21246
v 0.41348 2.23622 0.43196
v 2.25272 1.99400 0.15733
v 2.07436 2.00848 0.27408
v 2.05306 2.07598 0.16253
v 1.85780 2.11582 0.20023
v 1.85934 2.04148 0.31938
v 1.65000 2.07403 0.34544
v 1.66013 2.16345 0.21527
v 1.84501 1.93365 0.31806
v 1.63485 1.95339 0.34288
v 1.42805 1.96976 0.35838
v 1.44494 2.10417 0.36341
v 1.82561 1.86139 0.19725
v 1.62305 1.86379 0.20961
v 1.41848 1.86707 0.21649
v 1.21353 1.86839 0.21980
v 1.22224 1.98241 0.37087
v 1.00582 1.86771 0.22113
v 0.58797 1.85963 0.21146
v 0.79794 1.86510 0.21682
v 0.59039 2.00535 0.38844
v 0.80392 2.00298 0.38842
v 1.01421 1.99412 0.38211
v 0.83326 2.18899 0.41388
v 1.03859 2.16029 0.39759
v 1.24133 2.13106 0.38080
v 1.06801 2.30182 0.24215
v 1.26369 2.25449 0.23299
v 1.46162 2.20965 0.22453
v 0.68488 2.40042 0.26143
v 0.50359 2.45201 0.27768
v 0.62279 2.21378 0.42677
v 0.87487 2.35154 0.25181
vn 0.45294 0.81035 -0.37172
vn 0.08439 0.84774 -0.52366
vn -0.00436 0.99999 0.00123
vn 0.46985 0.88275 0.00162
vn 0.87139 0.49059 0.00024
vn 0.74669 0.47187 -0.46882
vn 0.32070 0.41174 -0.85301
vn 0.49848 -0.48635 -0.71762
vn 0.68753 -0.61867 -0.38020
vn 0.25465 -0.88952 -0.37936
vn 0.19997 -0.59579 -0.77785
vn 0.12654 -0.11951 -0.98474
vn 0.51295 -0.07953 -0.85473
vn 0.90170 -0.06318 -0.42772
vn -0.00258 -0.98971 -0.14305
vn -0.18057 -0.93431 -0.30734
vn -0.08050 -0.83060 -0.55103
vn 0.00889 -0.97765 -0.21005
vn 0.00991 -0.99995 0.00180
vn -0.01214 -0.99992 0.00162
vn -0.25545 -0.96682 0.00014
vn -0.45866 0.86921 -0.18468
vn -0.40350 0.88043 -0.24906
vn -0.40057 0.83546 -0.37624
vn -0.48857 0.84254 -0.22678
vn -0.48012 0.87720 0.00156
vn -0.40399 0.91476 0.00126
vn -0.55599 0.83119 0.00008
vn -0.50423 0.27192 -0.81964
vn -0.41972 0.29613 -0.85799
vn -0.96054 0.18917 -0.20388
vn -0.98095 0.19425 0.00024
vn -0.45902 -0.88843 -0.00003
vn -0.34421 -0.83089 -0.43720
vn -0.40721 0.91333 -0.00012
vn -0.40757 0.91317 0.00010
vn -0.37621 0.86946 -0.32017
vn -0.38824 0.87501 -0.28917
vn -0.28036 0.61314 -0.73855
vn -0.33687 0.62085 -0.70785
vn -0.18554 0.33509 -0.92374
vn -0.26669 0.33726 -0.90285
vn -0.06426 -0.53571 -0.84195
vn -0.01346 -0.48840 -0.87252
vn 0.00365 -0.72786 -0.68571
vn -0.02667 -0.76288 -0.64599
vn -0.16104 -0.63948 -0.75176
vn 0.00963 -0.95167 -0.30697
vn 0.00690 -0.96263 -0.27074
vn -0.00141 -1.00000 -0.00011
vn 0.00086 -1.00000 0.00020
vn -0.39883 0.91703 -0.00000
vn -0.40056 0.91627 0.00005
vn -0.35387 0.84783 -0.39493
vn -0.36229 0.86212 -0.35424
vn -0.30625 0.77578 -0.55171
vn -0.32298 0.80046 -0.50492
vn -0.16805 0.28799 -0.94277
vn -0.14718 0.23429 -0.96096
vn -0.09261 -0.10917 -0.98970
vn -0.02420 -0.46048 -0.88734
vn -0.01591 -0.68643 -0.72702
vn -0.00723 -0.70578 -0.70839
vn -0.01207 -0.93472 -0.35518
vn 0.00242 -0.94307 -0.33258
vn -0.02080 -0.99978 -0.00000
vn -0.00576 -0.99998 0.00001
vn -0.43851 0.89873 0.00001
vn -0.44633 0.89487 0.00001
vn -0.37693 0.78450 -0.49243
vn -0.37962 0.81223 -0.44291
vn -0.19185 0.41478 -0.88946
vn -0.23196 0.47788 -0.84725
vn -0.01742 -0.13047 -0.99130
vn -0.06985 -0.12280 -0.98997
vn 0.01553 -0.62973 -0.77666
vn -0.02633 -0.66000 -0.75081
vn -0.00044 -0.92005 -0.39179
vn -0.04342 -0.92535 -0.37662
vn -0.00233 -1.00000 0.00015
vn -0.05409 -0.99854 -0.00004
vn 0.28894 -0.95735 0.00066
vn 0.75003 -0.66140 0.00045
vn 0.99694 -0.07815 -0.00016
vn -0.04393 0.38906 -0.92017
vn -0.24561 0.80848 -0.53482
vn -0.31911 0.94772 0.00000
vn 0.87225 -0.17504 -0.45666
vn 0.94108 -0.17163 -0.29138
vn 0.88936 -0.32555 -0.32103
vn 0.62958 -0.15573 -0.76117
vn 0.63903 0.63492 -0.43418
vn 0.37257 0.80498 -0.46173
vn 0.40341 0.86590 -0.29578
vn 0.70229 0.65723 -0.27357
vn 0.38664 0.15399 -0.90928
vn 0.07719 0.14897 -0.98582
vn 0.13826 0.28237 -0.94929
vn 0.06859 0.89400 -0.44279
vn 0.05047 0.95910 -0.27852
vn -0.68474 0.56219 -0.46377
vn -0.52055 0.36479 -0.77198
vn -0.82646 0.45622 -0.32989
vn -0.72446 0.62264 -0.29576
vn -0.12116 0.38822 -0.91357
vn 0.72342 -0.65099 -0.22993
vn 0.74028 -0.67230 0.00091
vn 0.59352 -0.80482 -0.00028
vn 0.64156 -0.71063 -0.28880
vn 0.72028 -0.54532 -0.42873
vn 0.80199 -0.53026 -0.27503
vn 0.86370 -0.50400 0.00096
vn -0.89407 0.13357 -0.42755
vn -0.86358 0.08189 -0.49752
vn -0.97511 0.05432 -0.21496
vn -0.96895 0.14881 -0.19744
vn -0.94850 0.24071 -0.20594
vn -0.82550 0.18443 -0.53342
vn -0.99691 0.07854 -0.00006
vn -0.98647 0.16396 0.00011
vn -0.96914 0.24653 0.00019
vn -0.96887 0.24757 0.00002
vn -0.93432 0.24430 -0.25955
vn -0.96900 0.24708 -0.00004
vn -0.97368 0.22790 0.00000
vn -0.91576 0.22297 -0.33417
vn -0.92077 0.24434 -0.30409
vn -0.65457 0.16120 -0.73861
vn -0.69181 0.17775 -0.69986
vn -0.74780 0.18215 -0.63844
vn -0.47020 0.10380 -0.87643
vn -0.55160 0.11255 -0.82648
vn -0.68604 0.12597 -0.71658
vn 0.27597 -0.30710 -0.91079
vn 0.35256 -0.26168 -0.89846
vn 0.59830 -0.36608 -0.71276
vn 0.56538 -0.41285 -0.71407
vn 0.03578 -0.52950 -0.84755
vn 0.83318 -0.46633 -0.29723
vn 0.83180 -0.48119 -0.27671
vn 0.87033 -0.49247 -0.00008
vn 0.87101 -0.49127 -0.00018
vn -0.96873 0.24813 0.00003
vn -0.87308 0.48757 -0.00024
vn -0.90646 0.23845 -0.34852
vn -0.61540 0.17954 -0.76750
vn -0.35395 0.12002 -0.92753
vn -0.41557 0.09557 -0.90453
vn 0.34559 -0.22223 -0.91169
vn 0.33763 -0.17323 -0.92520
vn 0.56369 -0.31935 -0.76175
vn 0.56999 -0.34705 -0.74476
vn 0.58994 -0.35318 -0.72611
vn 0.36081 -0.24169 -0.90078
vn 0.80658 -0.48626 -0.33614
vn 0.82131 -0.47248 -0.31970
vn 0.85310 -0.52175 0.00000
vn 0.86338 -0.50456 0.00003
vn 0.94034 -0.34022 0.00016
vn 0.85505 -0.51854 -0.00002
vn 0.80600 -0.48301 -0.34215
vn 0.98653 -0.16359 0.00035
vn 0.74838 0.66327 -0.00030
vn 0.03094 0.99952 0.00010
vn -0.74536 0.66667 -0.00052
vn -0.38727 -0.92196 -0.00386
vn -0.38839 -0.91423 -0.11551
vn -0.14276 -0.68126 -0.71799
vn 0.87636 -0.13418 -0.46260
vn 0.94554 -0.12717 -0.29963
vn 0.82371 -0.46323 -0.32697
vn 0.75750 -0.41886 -0.50075
vn 0.65201 0.59837 -0.46566
vn 0.43383 0.47159 -0.76772
vn 0.56956 0.75105 -0.33396
vn 0.72247 0.62325 -0.29932
vn 0.40075 0.10469 -0.91019
vn 0.28069 -0.11665 -0.95268
vn 0.16205 -0.04239 -0.98587
vn -0.61751 -0.40237 -0.67586
vn -0.66953 -0.03123 -0.74212
vn -0.08311 -0.12860 -0.98821
vn -0.11205 -0.60643 -0.78720
vn -0.11053 -0.93533 -0.33606
vn -0.47165 -0.82214 -0.31879
vn -0.94411 -0.12494 -0.30503
vn -0.94382 0.04213 -0.32776
vn -0.17465 -0.82468 -0.53796
vn -0.17811 -0.92202 -0.34375
vn -0.41271 -0.82616 -0.38357
vn -0.18867 -0.53458 -0.82379
vn 0.56545 -0.66307 -0.49052
vn 0.59495 -0.74067 -0.31215
vn 0.14234 -0.33038 -0.93305
vn 0.21519 -0.85113 -0.47883
vn 0.26743 -0.91404 -0.30496
vn 0.79737 -0.32932 -0.50572
vn 0.56530 -0.13421 -0.81389
vn 0.91785 -0.13216 -0.37428
vn 0.85858 -0.39293 -0.32931
vn 0.19318 -0.29889 -0.93453
vn 0.90850 0.17317 -0.38032
vn 0.98040 0.19704 0.00001
vn 0.98846 -0.15146 -0.00054
vn 0.89550 -0.44506 -0.00108
vn 0.59215 0.10170 -0.79939
vn 0.63576 0.14979 -0.75721
vn 0.91338 0.21096 -0.34818
vn 0.31895 0.04959 -0.94647
vn 0.38126 0.10739 -0.91821
vn 0.45284 0.16468 -0.87625
vn 0.68907 0.18899 -0.69961
vn -0.44656 0.11410 -0.88745
vn -0.42373 0.06865 -0.90318
vn -0.66241 0.13159 -0.73750
vn -0.68119 0.14949 -0.71668
vn -0.71782 0.16243 -0.67701
vn -0.48862 0.14888 -0.85970
vn -0.76133 0.18675 -0.62089
vn -0.54363 0.18428 -0.81884
vn -0.92634 0.19641 -0.32144
vn -0.94039 0.18037 -0.28835
vn -0.95292 0.18163 -0.24279
vn -0.95052 0.23430 -0.20398
vn -0.78667 0.22388 -0.57535
vn -0.98055 0.19628 -0.00016
vn -0.98213 0.18820 -0.00017
vn -0.97124 0.23812 -0.00002
vn -0.83675 0.54758 0.00000
vn -0.82201 0.53722 -0.18893
vn 0.02420 0.99971 -0.00001
vn 0.16152 0.98687 0.00001
vn 0.15505 0.96618 -0.20604
vn 0.02422 0.98168 -0.18901
vn -0.64677 0.76269 -0.00002
vn -0.63831 0.74969 -0.17473
vn 0.09772 0.80942 -0.57904
vn -0.27405 0.75311 -0.59810
vn -0.67905 0.44855 -0.58112
vn -0.20065 0.53311 -0.82191
vn -0.49101 0.33049 -0.80603
vn -0.58231 0.19984 -0.78802
vn 0.66259 0.04069 -0.74788
vn 0.60813 -0.34837 -0.71331
vn 0.73595 -0.42247 -0.52905
vn 0.83612 0.03140 -0.54765
vn 0.75679 0.19623 -0.62350
vn 0.54712 0.18730 -0.81583
vn 0.98012 0.03033 -0.19605
vn 0.94744 0.20526 -0.24539
vn 0.92723 0.22112 -0.30223
vn 0.97611 0.21727 0.00021
vn 0.97058 0.24078 0.00008
vn 0.97119 0.23829 -0.00006
vn -0.99914 0.04134 0.00063
vn -0.97308 0.23049 0.00003
vn -0.91809 0.20900 -0.33681
vn -0.98869 -0.14996 0.00119
vn -0.97620 0.21689 -0.00002
vn -0.50365 -0.86391 0.00049
vn 0.31204 -0.95007 0.00009
vn 0.30620 0.95197 0.00015
vn 0.30405 0.95266 0.00011
vn 0.30059 0.90945 -0.28730
vn 0.29621 0.92448 -0.24000
vn 0.21228 0.71167 -0.66968
vn 0.20281 0.77001 -0.60494
vn 0.11477 0.51371 -0.85025
vn 0.10620 0.59164 -0.79917
vn 0.03972 0.60921 -0.79201
vn -0.24200 -0.67738 -0.69469
vn -0.45945 -0.49088 -0.74023
vn -0.55274 -0.62371 -0.55269
vn -0.26759 -0.81735 -0.51023
vn 0.26560 -0.81157 -0.52040
vn 0.21578 -0.67940 -0.70132
vn -0.29229 -0.93682 -0.19217
vn 0.31088 -0.92982 -0.19695
vn 0.59999 -0.77722 -0.18956
vn 0.31679 -0.94850 -0.00005
vn 0.60761 -0.79423 -0.00001
vn 0.97702 -0.12406 -0.17334
vn 0.99343 -0.11443 -0.00018
vn 0.99920 0.04010 -0.00001
vn 0.29245 0.95628 -0.00003
vn 0.35565 0.93462 -0.00001
vn 0.33834 0.87289 -0.35156
vn 0.28782 0.89886 -0.33048
vn 0.25016 0.58934 -0.76818
vn 0.20675 0.65028 -0.73102
vn -0.01699 0.06319 -0.99786
vn 0.11987 0.42551 -0.89698
vn -0.32409 -0.23728 -0.91579
vn -0.41201 -0.41220 -0.81261
vn -0.50983 -0.41042 -0.75606
vn -0.57960 -0.47639 -0.66115
vn -0.43723 -0.32393 -0.83899
vn -0.72882 -0.58777 -0.35121
vn -0.73212 -0.61702 -0.28859
vn -0.64447 -0.73255 -0.21916
vn -0.77542 -0.63144 -0.00013
vn -0.67174 -0.74079 -0.00004
vn -0.30325 -0.95291 0.00013
vn -0.78933 -0.61396 0.00006
vn -0.44833 -0.89387 0.00019
vn -0.73991 -0.67271 -0.00007
vn -0.67411 -0.62891 -0.38736
vn -0.17448 -0.98466 0.00046
vn 0.60593 -0.79552 -0.00029
vn 0.99311 -0.11722 -0.00019
vn 0.77468 0.63236 -0.00077
vn 0.61174 0.79106 -0.00041
vn -0.57707 -0.32121 -0.75088
vn -0.59479 -0.10350 -0.79719
vn -0.48433 -0.36095 -0.79695
vn -0.29755 -0.77294 -0.56039
vn -0.98600 0.00856 -0.16654
vn -0.99999 0.00457 0.00241
vn -0.98209 0.18840 0.00124
vn -0.96161 0.18646 -0.20133
vn -0.70629 0.66888 -0.23186
vn -0.76735 0.56139 -0.30986
vn -0.82172 0.56989 0.00150
vn -0.70564 0.70857 0.00124
vn -0.56586 0.82450 -0.00019
vn -0.63679 0.71203 -0.29583
vn -0.68730 0.53585 -0.49040
vn 0.96174 -0.17170 -0.21348
vn 0.95654 -0.11911 -0.26616
vn 0.99952 -0.03088 -0.00001
vn 0.98832 -0.15237 0.00102
vn 0.96367 -0.26708 0.00086
vn 0.92535 -0.24388 -0.29026
vn 0.86676 -0.21361 -0.45067
vn 0.69968 -0.40989 -0.58517
vn 0.73434 -0.30630 -0.60574
vn 0.84221 -0.36386 -0.39785
vn 0.78460 -0.49075 -0.37889
vn -0.15489 -0.77804 -0.60883
vn -0.11664 -0.91195 -0.39337
vn 0.91388 -0.40599 0.00023
vn 0.83489 -0.55042 0.00063
vn -0.07061 -0.99750 0.00089
vn -0.75216 -0.65898 0.00126
vn -0.74559 -0.65413 -0.12732
vn 0.88525 -0.22180 -0.40882
vn 0.97128 -0.23792 -0.00009
vn 0.97084 -0.23974 0.00001
vn 0.88717 -0.22918 -0.40050
vn 0.89037 -0.25352 -0.37812
vn 0.96503 -0.26214 0.00007
vn 0.77285 -0.21053 -0.59865
vn 0.78766 -0.23683 -0.56878
vn 0.81749 -0.23539 -0.52565
vn 0.90367 -0.25488 -0.34411
vn 0.96378 -0.26671 -0.00010
vn -0.88589 0.46390 0.00002
vn -0.82121 0.57062 -0.00000
vn -0.72234 0.47738 -0.50033
vn -0.76165 0.35783 -0.54022
vn -0.57687 0.35396 -0.73616
vn -0.57287 0.22284 -0.78878
vn 0.11161 -0.11859 -0.98665
vn 0.13806 -0.01503 -0.99031
vn 0.07852 -0.19806 -0.97704
vn 0.12415 0.02015 -0.99206
vn 0.76378 -0.19664 -0.61479
vn -0.61874 0.40027 -0.67598
vn -0.73617 0.50172 -0.45424
vn -0.75832 0.50870 -0.40764
vn -0.65999 0.43011 -0.61597
vn 0.10958 0.05051 -0.99269
vn -0.76906 0.52784 -0.36047
vn -0.68625 0.46998 -0.55514
vn 0.11239 0.09479 -0.98913
vn 0.19112 0.25101 -0.94893
vn -0.82442 0.56598 -0.00004
vn -0.82407 0.56649 0.00008
vn -0.81618 0.57780 0.00005
vn 0.25614 0.37557 -0.89070
vn 0.48462 0.84610 -0.22195
vn 0.49693 0.86779 -0.00017
vn 0.30238 0.82493 -0.47756
vn 0.30286 0.90338 -0.30360
vn 0.49408 0.79950 -0.34160
vn 0.27530 0.55997 -0.78144
vn -0.06040 0.38659 -0.92027
vn -0.10895 0.08513 -0.99040
vn -0.22114 0.16227 -0.96165
vn -0.47330 0.75158 -0.45948
vn -0.70875 0.50514 -0.49245
vn -0.76745 0.55251 -0.32519
vn -0.48895 0.81953 -0.29881
vn -0.64609 -0.59459 -0.47857
vn -0.41200 -0.45765 -0.78792
vn -0.56168 -0.75332 -0.34207
vn -0.72109 -0.62223 -0.30474
vn -0.36466 -0.07468 -0.92814
vn -0.86109 0.19948 -0.46768
vn -0.93124 0.20258 -0.30290
vn 0.89710 0.06133 -0.43755
vn 0.95375 0.09269 -0.28594
vn 0.94696 -0.05435 -0.31673
vn 0.67513 0.01933 -0.73744
vn 0.48212 0.75243 -0.44878
vn 0.17146 0.86136 -0.47819
vn 0.18006 0.93212 -0.31420
vn 0.53427 0.79310 -0.29250
vn 0.38139 0.22814 -0.89582
vn 0.08458 0.15818 -0.98378
vn 0.10403 0.29758 -0.94901
vn -0.15794 0.87618 -0.45537
vn -0.20109 0.93561 -0.29017
vn -0.75318 0.43996 -0.48904
vn -0.55122 0.23256 -0.80129
vn -0.89290 0.27011 -0.36025
vn -0.80378 0.50485 -0.31476
vn -0.18213 0.34185 -0.92194
vn -0.92413 -0.05956 -0.37741
vn -0.99732 -0.07321 0.00002
vn -0.95556 0.29480 -0.00023
vn -0.83164 0.55532 -0.00049
vn -0.59685 -0.01985 -0.80211
vn -0.63235 -0.08295 -0.77023
vn -0.92489 -0.12768 -0.35816
vn -0.31861 0.00603 -0.94787
vn -0.37384 -0.05490 -0.92587
vn -0.42112 -0.08690 -0.90283
vn -0.67100 -0.09814 -0.73493
vn 0.43136 -0.10194 -0.89640
vn 0.41175 -0.06502 -0.90897
vn 0.65345 -0.13626 -0.74460
vn 0.66419 -0.14854 -0.73266
vn 0.68887 -0.14617 -0.71000
vn 0.45897 -0.12022 -0.88028
vn 0.72335 -0.16867 -0.66957
vn 0.49919 -0.15585 -0.85236
vn 0.91617 -0.20647 -0.34351
vn 0.92857 -0.18152 -0.32375
vn 0.94042 -0.18445 -0.28565
vn 0.95189 -0.19322 -0.23784
vn 0.77221 -0.19499 -0.60471
vn 0.97975 -0.20023 -0.00008
vn 0.98008 -0.19861 0.00004
vn 0.97979 -0.20004 0.00011
vn 0.97458 -0.22404 -0.00003
vn 0.95524 -0.21995 -0.19783
vn 0.88606 -0.46358 0.00006
vn 0.75757 -0.65276 0.00019
vn 0.75652 -0.63543 -0.15462
vn 0.87583 -0.45078 -0.17240
vn 0.45201 -0.72267 -0.52292
vn 0.79180 -0.38635 -0.47307
vn 0.82386 -0.20967 -0.52659
vn 0.68338 -0.31825 -0.65705
vn 0.66834 -0.19206 -0.71863
vn 0.57013 -0.19057 -0.79914
vn -0.51212 -0.16744 -0.84244
vn -0.58655 -0.09998 -0.80372
vn -0.80101 -0.09828 -0.59053
vn -0.74655 -0.15835 -0.64621
vn -0.70901 -0.12533 -0.69397
vn -0.46536 -0.12717 -0.87594
vn -0.95835 -0.13667 -0.25075
vn -0.94887 -0.12190 -0.29119
vn -0.93671 -0.12009 -0.32886
vn -0.99165 -0.12898 0.00015
vn -0.99061 -0.13673 0.00009
vn -0.98895 -0.14826 -0.00001
vn 0.99901 -0.04453 0.00044
vn 0.97332 -0.22946 -0.00004
vn 0.91393 -0.21444 -0.34460
vn 0.99243 0.12279 0.00094
vn 0.97401 -0.22651 -0.00002
vn 0.57577 0.81761 0.00007
vn -0.23925 0.97096 0.00026
vn -0.08687 -0.99622 0.00001
vn -0.28708 -0.95791 -0.00007
vn -0.28106 -0.91432 -0.29159
vn -0.07578 -0.96799 -0.23927
vn 0.10759 -0.97275 -0.20540
vn 0.09829 -0.99516 -0.00002
vn -0.18510 -0.71051 -0.67891
vn -0.00633 -0.79818 -0.60238
vn -0.08326 -0.50313 -0.86019
vn 0.05164 -0.60672 -0.79324
vn 0.41116 -0.56954 -0.71173
vn 0.19515 0.70180 -0.68512
vn 0.33449 0.57370 -0.74765
vn 0.41830 0.72607 -0.54575
vn 0.23592 0.84540 -0.47921
vn -0.51435 0.51219 -0.68783
vn -0.65141 0.59115 -0.47561
vn -0.78223 0.30286 -0.54442
vn -0.59509 0.25974 -0.76053
vn -0.76531 0.62548 -0.15192
vn -0.98165 -0.04818 -0.18448
vn -0.97319 -0.09825 -0.20796
vn -0.99762 -0.06892 0.00024
vn -0.99417 -0.10781 0.00013
vn -0.99063 -0.13657 0.00006
vn -0.28586 -0.95827 -0.00008
vn -0.33665 -0.94163 -0.00004
vn -0.32059 -0.87572 -0.36104
vn -0.28438 -0.89745 -0.33721
vn -0.23105 -0.57544 -0.78453
vn -0.20173 -0.63841 -0.74279
vn 0.05479 -0.02491 -0.99819
vn -0.10912 -0.40298 -0.90868
vn 0.36489 0.26524 -0.89247
vn 0.45882 0.43332 -0.77571
vn 0.54521 0.42099 -0.72492
vn 0.58355 0.50141 -0.63880
vn 0.44496 0.35065 -0.82405
vn 0.74885 0.57560 -0.32849
vn 0.72725 0.63085 -0.27045
vn 0.51361 0.83419 -0.20082
vn 0.76892 0.63934 -0.00028
vn 0.55127 0.83433 -0.00003
vn 0.33743 0.94135 0.00056
vn 0.30075 0.94038 -0.15883
vn 0.80194 0.59740 0.00002
vn 0.52000 0.85417 0.00059
vn 0.76028 0.64960 -0.00000
vn 0.70390 0.61451 -0.35625
vn 0.29401 0.95580 0.00114
vn -0.49373 0.86961 0.00001
vn -0.97960 0.20097 -0.00038
vn -0.77500 -0.63196 -0.00141
vn -0.60679 -0.79486 -0.00077
vn -0.78514 0.61932 0.00042
vn 0.14984 -0.96687 -0.20665
vn 0.21636 -0.93968 -0.26494
vn 0.29946 -0.95411 0.00001
vn 0.16080 -0.98699 0.00129
vn 0.00766 -0.99997 0.00109
vn 0.04387 -0.95964 -0.27779
vn 0.08119 -0.89242 -0.44384
vn -0.47782 0.39603 -0.78413
vn -0.25186 0.47073 -0.84556
vn -0.39825 0.17143 -0.90112
vn -0.81246 0.01773 -0.58275
vn -0.20381 0.96010 -0.19151
vn -0.21386 0.97686 0.00406
vn -0.00304 0.99999 0.00209
vn 0.00007 0.97224 -0.23397
vn -0.21966 -0.78773 -0.57552
vn -0.10285 -0.51890 -0.84863
vn -0.13633 -0.90316 -0.40708
vn -0.29729 -0.87750 -0.37631
vn -0.50154 -0.15760 -0.85066
vn -0.09599 -0.18416 -0.97820
vn -0.89313 -0.18008 -0.41217
vn 0.39027 0.89555 -0.21371
vn 0.40491 0.91436 0.00156
vn 0.53866 0.84252 -0.00007
vn 0.45236 0.84749 -0.27773
vn 0.30111 0.83570 -0.45928
vn 0.27729 0.91728 -0.28585
vn 0.24746 0.96890 0.00131
vn 0.24175 0.91228 -0.33060
vn 0.24495 0.96953 -0.00040
vn 0.23143 0.82575 -0.51437
vn 0.20093 0.80075 -0.56429
vn 0.23125 0.90001 -0.36946
vn 0.15723 -0.03078 -0.98708
vn 0.37781 -0.05110 -0.92447
vn 0.09647 -0.03522 -0.99471
vn 0.07132 -0.04953 -0.99622
vn -0.00196 -0.83253 -0.55397
vn 0.01912 -0.86115 -0.50799
vn 0.01121 -0.94572 -0.32479
vn 0.00219 -0.93272 -0.36058
vn -0.00183 -0.92199 -0.38721
vn -0.00630 -0.81196 -0.58367
vn 0.00201 -0.91443 -0.40474
vn -0.00316 -0.79823 -0.60234
vn 0.00598 -0.99998 0.00014
vn 0.00270 -1.00000 0.00005
vn 0.00722 -0.99997 0.00002
vn 0.01266 -0.99992 0.00001
vn 0.00355 -0.90841 -0.41806
vn 0.01805 -0.99984 -0.00001
vn 0.02497 -0.99969 -0.00017
vn 0.01931 -0.90285 -0.42952
vn 0.00626 -0.90365 -0.42823
vn 0.00855 -0.50832 -0.86112
vn -0.00550 -0.77930 -0.62662
vn -0.00554 -0.78758 -0.61619
vn 0.05092 -0.10408 -0.99327
vn 0.03019 -0.14078 -0.98958
vn 0.06308 -0.07398 -0.99526
vn 0.17949 0.74201 -0.64591
vn 0.18125 0.70819 -0.68236
vn 0.22650 0.85283 -0.47051
vn 0.21868 0.87101 -0.43992
vn 0.21844 0.88717 -0.40647
vn 0.18240 0.77286 -0.60780
vn 0.25032 0.96816 -0.00003
vn 0.24662 0.96911 0.00003
vn 0.25348 0.96734 -0.00008
vn 0.00298 -1.00000 -0.00010
vn 0.25847 0.96602 -0.00003
vn 0.28733 0.95783 -0.00005
vn 0.22976 0.80994 -0.53963
vn 0.17184 0.79229 -0.58545
vn 0.15949 0.61470 -0.77247
vn 0.07200 0.54971 -0.83224
vn 0.22609 0.83531 -0.50114
vn 0.17264 0.67064 -0.72142
vn 0.00286 -0.17786 -0.98405
vn 0.26976 0.96293 -0.00001
vn 0.26327 0.96472 -0.00000
vn -0.17166 -0.98516 0.00074
vn -0.36323 -0.93170 0.00175
vn -0.97390 -0.22699 0.00008
vn -0.88376 0.46793 0.00081
vn -0.87374 0.46229 -0.15119
vn 0.54442 -0.07053 -0.83584
vn 0.96865 -0.10684 -0.22426
vn 0.99397 -0.10966 0.00041
vn 0.09049 0.85755 0.50638
vn 0.45508 0.81877 0.35004
vn 0.74831 0.48561 0.45190
vn 0.32765 0.42983 0.84137
vn 0.20145 -0.59211 0.78027
vn 0.25637 -0.88721 0.38358
vn 0.68165 -0.62032 0.38802
vn 0.48927 -0.48705 0.72346
vn 0.50706 -0.08552 0.85766
vn 0.12645 -0.11967 0.98473
vn 0.89883 -0.06928 0.43278
vn 0.00850 -0.97497 0.22219
vn -0.07484 -0.82690 0.55735
vn -0.17622 -0.93288 0.31415
vn -0.00552 -0.98750 0.15752
vn -0.48835 0.84030 0.23539
vn -0.39967 0.83264 0.38337
vn -0.40525 0.87821 0.25401
vn -0.46083 0.86638 0.19241
vn -0.50522 0.26986 0.81971
vn -0.41899 0.29507 0.85871
vn -0.96005 0.19115 0.20436
vn -0.33573 -0.83678 0.43254
vn -0.38836 0.87504 0.28894
vn -0.37616 0.86934 0.32056
vn -0.33538 0.62111 0.70834
vn -0.28047 0.61271 0.73887
vn -0.26395 0.33728 0.90364
vn -0.18591 0.33459 0.92384
vn -0.02708 -0.76247 0.64645
vn 0.00286 -0.72837 0.68518
vn -0.01449 -0.48910 0.87211
vn -0.06544 -0.53606 0.84164
vn -0.15308 -0.64538 0.74837
vn 0.00756 -0.96234 0.27176
vn 0.00936 -0.95181 0.30656
vn -0.36193 0.86226 0.35428
vn -0.35421 0.84779 0.39470
vn -0.32256 0.80058 0.50500
vn -0.30680 0.77591 0.55121
vn -0.16838 0.28775 0.94279
vn -0.09263 -0.10880 0.98974
vn -0.14758 0.23475 0.96079
vn -0.00702 -0.70578 0.70840
vn -0.01567 -0.68629 0.72716
vn -0.02382 -0.46044 0.88737
vn 0.00239 -0.94308 0.33257
vn -0.01207 -0.93469 0.35525
vn -0.37955 0.81223 0.44298
vn -0.37424 0.78550 0.49289
vn -0.23113 0.47832 0.84723
vn -0.18810 0.41580 0.88979
vn -0.06956 -0.12241 0.99004
vn -0.01689 -0.13050 0.99131
vn -0.02646 -0.65982 0.75096
vn 0.01470 -0.63018 0.77631
vn -0.04328 -0.92530 0.37675
vn -0.00088 -0.92012 0.39163
vn -0.04211 0.39075 0.91953
vn -0.24348 0.80982 0.53377
vn 0.63095 -0.15123 0.76094
vn 0.88931 -0.32242 0.32431
vn 0.94035 -0.16492 0.29757
vn 0.86898 -0.16202 0.46756
vn 0.70508 0.65076 0.28174
vn 0.40289 0.86312 0.30446
vn 0.37009 0.79647 0.47820
vn 0.64244 0.62025 0.45006
vn 0.14170 0.28882 0.94684
vn 0.07942 0.15379 0.98491
vn 0.39936 0.15399 0.90377
vn 0.04540 0.95731 0.28548
vn 0.05850 0.88824 0.45564
vn -0.71847 0.62648 0.30219
vn -0.82388 0.45835 0.33338
vn -0.51708 0.36951 0.77207
vn -0.67053 0.56849 0.47666
vn -0.12821 0.39869 0.90808
vn 0.64816 -0.71404 0.26465
vn 0.72509 -0.65427 0.21487
vn 0.80404 -0.53280 0.26392
vn 0.73012 -0.54959 0.40605
vn -0.96794 0.16082 0.19293
vn -0.97394 0.07131 0.21531
vn -0.85504 0.09042 0.51063
vn -0.89064 0.14522 0.43089
vn -0.82358 0.18489 0.53621
vn -0.94822 0.24536 0.20171
vn -0.93421 0.24457 0.25970
vn -0.92090 0.24400 0.30399
vn -0.91569 0.22321 0.33420
vn -0.69157 0.17846 0.69992
vn -0.65461 0.16110 0.73860
vn -0.74797 0.18184 0.63834
vn -0.55217 0.11186 0.82619
vn -0.46950 0.10549 0.87661
vn -0.67699 0.11604 0.72679
vn 0.56556 -0.41384 0.71336
vn 0.59839 -0.36593 0.71276
vn 0.35244 -0.26135 0.89860
vn 0.27658 -0.30846 0.91014
vn 0.02863 -0.53336 0.84540
vn 0.83163 -0.48172 0.27629
vn 0.83324 -0.46637 0.29700
vn -0.90654 0.23824 0.34847
vn -0.61560 0.17953 0.76734
vn -0.35409 0.12052 0.92741
vn -0.41583 0.09497 0.90447
vn 0.56976 -0.34774 0.74461
vn 0.56375 -0.31938 0.76170
vn 0.33779 -0.17299 0.92519
vn 0.34540 -0.22271 0.91164
vn 0.36090 -0.24139 0.90082
vn 0.59002 -0.35295 0.72616
vn 0.82135 -0.47237 0.31976
vn 0.80640 -0.48666 0.33598
vn 0.80591 -0.48321 0.34207
vn -0.38129 -0.91814 0.10785
vn -0.15806 -0.68332 0.71280
vn 0.55101 -0.28175 0.78550
vn 0.82144 -0.46055 0.33636
vn 0.94398 -0.11969 0.30752
vn 0.70482 0.20853 0.67804
vn 0.72574 0.61584 0.30666
vn 0.57149 0.74778 0.33798
vn 0.43585 0.46794 0.76881
vn 0.16527 -0.04402 0.98527
vn -0.11262 -0.60087 0.79137
vn -0.08435 -0.13381 0.98741
vn -0.67038 -0.03423 0.74123
vn -0.61931 -0.39888 0.67628
vn -0.47638 -0.81684 0.32531
vn -0.11041 -0.93172 0.34599
vn -0.94291 0.04038 0.33059
vn -0.94188 -0.12847 0.31041
vn -0.18354 -0.53607 0.82398
vn -0.40958 -0.82610 0.38704
vn -0.17094 -0.92068 0.35090
vn 0.19495 -0.66312 0.72268
vn 0.58926 -0.74160 0.32063
vn 0.27319 -0.90878 0.31541
vn 0.22548 -0.83736 0.49797
vn 0.85156 -0.40004 0.33886
vn 0.91500 -0.13557 0.38000
vn 0.56083 -0.14097 0.81584
vn 0.77906 -0.34254 0.52511
vn 0.20088 -0.30628 0.93051
vn 0.90842 0.17258 0.38076
vn 0.59219 0.10075 0.79947
vn 0.91361 0.20917 0.34867
vn 0.63572 0.14787 0.75762
vn 0.31959 0.04896 0.94629
vn 0.38119 0.10756 0.91822
vn 0.68921 0.18689 0.70005
vn 0.45254 0.16036 0.87721
vn -0.68127 0.15053 0.71639
vn -0.66258 0.13174 0.73731
vn -0.42397 0.06855 0.90308
vn -0.44637 0.11411 0.88754
vn -0.48828 0.14922 0.85983
vn -0.71773 0.16216 0.67718
vn -0.54289 0.18691 0.81874
vn -0.76071 0.18751 0.62142
vn -0.94042 0.18028 0.28829
vn -0.92630 0.19743 0.32093
vn -0.95291 0.18109 0.24326
vn -0.78582 0.22525 0.57598
vn -0.95034 0.23471 0.20436
vn -0.82194 0.53728 0.18905
vn 0.02423 0.98177 0.18854
vn 0.15464 0.96627 0.20593
vn -0.63832 0.74972 0.17452
vn -0.27575 0.75240 0.59821
vn 0.09725 0.80770 0.58152
vn -0.67960 0.45007 0.57930
vn -0.49318 0.33394 0.80328
vn -0.20364 0.53124 0.82239
vn -0.58124 0.20110 0.78849
vn 0.83433 0.03098 0.55039
vn 0.73392 -0.42262 0.53175
vn 0.60478 -0.34740 0.71663
vn 0.65920 0.04464 0.75065
vn 0.54754 0.18760 0.81548
vn 0.75719 0.19592 0.62312
vn 0.94776 0.20379 0.24540
vn 0.97999 0.02755 0.19715
vn 0.92734 0.22097 0.30201
vn -0.91809 0.20914 0.33670
vn 0.29751 0.92390 0.24063
vn 0.30073 0.90946 0.28714
vn 0.20526 0.76899 0.60541
vn 0.21250 0.71227 0.66897
vn 0.10875 0.59101 0.79930
vn 0.11540 0.51472 0.84955
vn 0.03919 0.60417 0.79589
vn -0.27026 -0.81778 0.50813
vn -0.55455 -0.62425 0.55026
vn -0.46583 -0.49126 0.73598
vn -0.24439 -0.67917 0.69210
vn 0.21634 -0.68021 0.70037
vn 0.26583 -0.81172 0.52005
vn 0.31084 -0.92978 0.19718
vn -0.29319 -0.93667 0.19153
vn 0.59996 -0.77715 0.18995
vn 0.97671 -0.12479 0.17454
vn 0.28661 0.89943 0.32997
vn 0.33872 0.87267 0.35172
vn 0.20588 0.65107 0.73056
vn 0.25103 0.58854 0.76851
vn 0.12033 0.42562 0.89687
vn -0.01785 0.06322 0.99784
vn -0.51230 -0.40824 0.75557
vn -0.41439 -0.41143 0.81180
vn -0.32315 -0.23661 0.91629
vn -0.43668 -0.32485 0.83892
vn -0.57892 -0.47707 0.66125
vn -0.73218 -0.61688 0.28875
vn -0.73105 -0.58576 0.34993
vn -0.64349 -0.73330 0.21953
vn -0.67492 -0.62851 0.38660
vn -0.73695 -0.51897 0.43310
vn -0.62854 -0.10794 0.77025
vn -0.96182 0.18253 0.20391
vn -0.98522 0.00044 0.17130
vn -0.76558 0.56124 0.31449
vn -0.70219 0.67141 0.23694
vn -0.63323 0.71307 0.30091
vn -0.68540 0.53285 0.49628
vn 0.95286 -0.11728 0.27983
vn 0.95989 -0.16871 0.22394
vn 0.92381 -0.24131 0.29723
vn 0.86127 -0.21153 0.46202
vn 0.77965 -0.49351 0.38549
vn 0.84005 -0.36521 0.40117
vn 0.72893 -0.30842 0.61118
vn 0.68833 -0.41387 0.59575
vn -0.01597 -0.50391 0.86361
vn -0.09231 -0.90353 0.41846
vn 0.88526 -0.22200 0.40870
vn 0.88693 -0.22988 0.40064
vn 0.89044 -0.25338 0.37803
vn 0.78797 -0.23641 0.56852
vn 0.77230 -0.21186 0.59889
vn 0.90447 -0.25340 0.34311
vn 0.81922 -0.23305 0.52400
vn -0.75971 0.35935 0.54196
vn -0.72086 0.48016 0.49980
vn -0.56834 0.22498 0.79144
vn -0.57438 0.35953 0.73541
vn 0.11210 -0.11719 0.98676
vn 0.13817 -0.01427 0.99031
vn 0.12416 0.01999 0.99206
vn 0.76371 -0.19715 0.61472
vn -0.73600 0.50189 0.45433
vn -0.61816 0.40101 0.67607
vn -0.66158 0.42594 0.61716
vn -0.75927 0.50676 0.40830
vn 0.11015 0.05156 0.99258
vn -0.68717 0.46648 0.55694
vn -0.76976 0.52607 0.36155
vn 0.11234 0.09477 0.98914
vn 0.19086 0.25053 0.94911
vn 0.25613 0.37548 0.89074
vn 0.48449 0.84626 0.22163
vn 0.27033 0.56173 0.78191
vn 0.49057 0.79975 0.34604
vn 0.29512 0.90310 0.31195
vn 0.28734 0.82240 0.49100
vn -0.22588 0.16535 0.96002
vn -0.11135 0.08703 0.98996
vn -0.05824 0.39734 0.91582
vn -0.48067 0.82109 0.30783
vn -0.45552 0.75211 0.47627
vn -0.72379 -0.61571 0.31149
vn -0.56317 -0.75057 0.34566
vn -0.41369 -0.45438 0.78892
vn -0.64914 -0.57882 0.49355
vn -0.37458 -0.08050 0.92370
vn -0.85653 0.18723 0.48094
vn -0.93025 0.19676 0.30970
vn 0.67506 0.02385 0.73738
vn 0.94586 -0.05094 0.32055
vn 0.95086 0.09935 0.29325
vn 0.64899 0.38052 0.65879
vn 0.54009 0.78616 0.30044
vn 0.18066 0.92856 0.32425
vn 0.14944 0.61554 0.77381
vn 0.08632 0.16242 0.98294
vn -0.20676 0.93149 0.29930
vn -0.18945 0.64608 0.73939
vn -0.79520 0.51224 0.32446
vn -0.88936 0.27402 0.36599
vn -0.54582 0.23838 0.80328
vn -0.73277 0.45299 0.50779
vn -0.92403 -0.05916 0.37772
vn -0.59688 -0.01980 0.80208
vn -0.92496 -0.12661 0.35836
vn -0.63228 -0.08242 0.77034
vn -0.31917 0.00536 0.94768
vn -0.37378 -0.05604 0.92582
vn -0.67111 -0.09712 0.73497
vn -0.42106 -0.08495 0.90305
vn 0.66432 -0.14927 0.73239
vn 0.65360 -0.13648 0.74444
vn 0.41203 -0.06569 0.90880
vn 0.43149 -0.10265 0.89626
vn 0.45910 -0.12020 0.88021
vn 0.68891 -0.14573 0.71005
vn 0.49944 -0.15734 0.85194
vn 0.72336 -0.16986 0.66925
vn 0.92859 -0.18129 0.32381
vn 0.91619 -0.20680 0.34328
vn 0.94039 -0.18460 0.28563
vn 0.77235 -0.19576 0.60428
vn 0.95158 -0.19489 0.23772
vn 0.95511 -0.22073 0.19761
vn 0.87609 -0.45004 0.17298
vn 0.75688 -0.63454 0.15650
vn 0.79065 -0.38698 0.47448
vn 0.45273 -0.72152 0.52387
vn 0.82299 -0.20967 0.52794
vn 0.66610 -0.19072 0.72107
vn 0.68070 -0.32062 0.65867
vn 0.57118 -0.18842 0.79890
vn -0.74671 -0.15667 0.64644
vn -0.80009 -0.09626 0.59210
vn -0.58359 -0.09574 0.80639
vn -0.51223 -0.16713 0.84243
vn -0.46543 -0.12713 0.87590
vn -0.70912 -0.12531 0.69387
vn -0.94891 -0.12141 0.29124
vn -0.95851 -0.13505 0.25104
vn -0.93676 -0.11992 0.32879
vn 0.91396 -0.21439 0.34455
vn -0.07701 -0.96789 0.23930
vn -0.28040 -0.91480 0.29073
vn 0.10759 -0.97274 0.20544
vn -0.00771 -0.79765 0.60307
vn -0.18342 -0.71229 0.67749
vn 0.05058 -0.60552 0.79422
vn -0.08188 -0.50525 0.85908
vn 0.41248 -0.56840 0.71188
vn 0.24450 0.85326 0.46062
vn 0.42230 0.73170 0.53505
vn 0.34543 0.58571 0.73323
vn 0.20437 0.72122 0.66187
vn -0.59449 0.26492 0.75921
vn -0.78203 0.30465 0.54371
vn -0.65333 0.59231 0.47152
vn -0.51967 0.51589 0.68104
vn -0.76561 0.62501 0.15236
vn -0.97319 -0.09834 0.20791
vn -0.98160 -0.04967 0.18438
vn -0.28328 -0.89802 0.33661
vn -0.32128 -0.87542 0.36113
vn -0.20081 -0.63905 0.74248
vn -0.23270 -0.57428 0.78489
vn -0.10918 -0.40266 0.90882
vn 0.05487 -0.02467 0.99819
vn 0.54737 0.41887 0.72452
vn 0.46056 0.43236 0.77521
vn 0.36417 0.26403 0.89312
vn 0.44640 0.35337 0.82210
vn 0.58309 0.50300 0.63796
vn 0.72727 0.63068 0.27078
vn 0.75078 0.57382 0.32720
vn 0.51325 0.83472 0.19955
vn 0.30388 0.94017 0.15408
vn 0.70449 0.61402 0.35592
vn 0.21578 -0.93907 0.26756
vn 0.15227 -0.96577 0.21001
vn 0.04665 -0.95909 0.27922
vn 0.08174 -0.89200 0.44458
vn -0.81375 0.02808 0.58053
vn -0.39777 0.17786 0.90008
vn -0.26331 0.49788 0.82631
vn -0.49519 0.45299 0.74135
vn -0.00598 0.97118 0.23828
vn -0.21565 0.95588 0.19948
vn -0.30318 -0.87029 0.38817
vn -0.13907 -0.90001 0.41309
vn -0.10651 -0.51342 0.85150
vn -0.23062 -0.77090 0.59374
vn -0.09789 -0.18440 0.97796
vn -0.48339 -0.17235 0.85827
vn -0.88236 -0.19613 0.42776
vn 0.45011 0.84834 0.27877
vn 0.39181 0.89425 0.21635
vn 0.28002 0.91570 0.28824
vn 0.30064 0.83467 0.46146
vn 0.24293 0.91203 0.33043
vn 0.23227 0.82529 0.51473
vn 0.23247 0.89994 0.36886
vn 0.20325 0.80081 0.56337
vn 0.15734 -0.03078 0.98706
vn 0.37820 -0.05115 0.92431
vn 0.09661 -0.03524 0.99470
vn 0.07210 -0.04963 0.99616
vn 0.00158 -0.93257 0.36098
vn 0.01100 -0.94594 0.32414
vn 0.01848 -0.86175 0.50700
vn -0.00251 -0.83222 0.55444
vn -0.00605 -0.81203 0.58358
vn -0.00178 -0.92199 0.38720
vn -0.00385 -0.79817 0.60242
vn 0.00167 -0.91440 0.40480
vn 0.00343 -0.90841 0.41807
vn 0.00628 -0.90365 0.42822
vn 0.01941 -0.90294 0.42932
vn -0.00543 -0.77930 0.62663
vn 0.00838 -0.50839 0.86108
vn -0.00569 -0.78759 0.61618
vn 0.05141 -0.10416 0.99323
vn 0.03257 -0.14110 0.98946
vn 0.06299 -0.07404 0.99526
vn 0.21893 0.87097 0.43988
vn 0.22775 0.85267 0.47019
vn 0.18365 0.70806 0.68185
vn 0.17942 0.74205 0.64589
vn 0.18237 0.77294 0.60771
vn 0.21840 0.88719 0.40644
vn 0.17259 0.79180 0.58589
vn 0.23053 0.81009 0.53908
vn 0.07300 0.54838 0.83304
vn 0.16061 0.61541 0.77167
vn 0.17214 0.67033 0.72182
vn 0.22584 0.83523 0.50138
vn 0.00254 -0.17791 0.98404
vn -0.87325 0.46270 0.15280
vn 0.54475 -0.07059 0.83563
vn 0.96847 -0.10688 0.22505
f 1//1 5//2 429//3 430//4
f 1//1 430//4 431//5 6//6
f 1//1 6//6 7//7 5//2
f 2//8 8//9 9//10 10//11
f 2//8 10//11 11//12 12//13
f 2//8 12//13 13//14 8//9
f 3//15 15//16 16//17 17//18
f 3//15 17//18 14//19 432//20
f 3//15 432//20 433//21 15//16
f 4//22 21//23 22//24 23//25
f 4//22 19//26 18//27 21//23
f 4//22 23//25 20//28 19//26
f 23//29 22//30 24//30 25//29
f 23//31 25//31 26//32 20//32
f 26//33 25//34 15//16 433//21
f 435//35 434//36 27//37 28//38
f 435//35 28//38 21//23 18//27
f 28//38 27//37 29//39 30//40
f 28//38 30//40 22//24 21//23
f 30//40 29//39 31//41 32//42
f 30//40 32//42 24//30 22//30
f 32//43 31//44 33//45 34//46
f 32//43 34//46 16//17 24//47
f 34//46 33//45 35//48 36//49
f 34//46 36//49 17//18 16//17
f 36//49 35//48 37//50 38//51
f 36//49 38//51 14//19 17//18
f 40//52 39//53 41//54 42//55
f 40//52 42//55 27//37 434//36
f 42//55 41//54 43//56 44//57
f 42//55 44//57 29//39 27//37
f 44//58 43//59 45//60 46//58
f 44//58 46//58 31//41 29//39
f 46//61 45//60 47//62 48//63
f 46//61 48//63 33//45 31//44
f 48//63 47//62 49//64 50//65
f 48//63 50//65 35//48 33//45
f 50//65 49//64 436//66 437//67
f 50//65 437//67 37//50 35//48
f 439//68 438//69 51//70 52//71
f 439//68 52//71 41//54 39//53
f 52//71 51//70 53//72 54//73
f 52//71 54//73 43//56 41//54
f 54//73 53//72 55//74 56//75
f 54//73 56//75 45//60 43//59
f 56//75 55//74 57//76 58//77
f 56//75 58//77 47//62 45//60
f 58//77 57//76 59//78 60//79
f 58//77 60//79 49//64 47//62
f 60//79 59//78 440//80 441//81
f 60//79 441//81 436//66 49//64
f 440//80 59//78 9//10 61//82
f 61//82 9//10 8//9 62//83
f 62//83 8//9 13//14 442//84
f 442//84 13//14 6//6 431//5
f 59//78 57//76 10//11 9//10
f 57//76 55//74 11//12 10//11
f 55//74 53//72 63//85 11//12
f 63//85 7//7 12//13 11//12
f 63//85 53//72 51//70 64//86
f 63//85 64//86 5//2 7//7
f 64//86 51//70 438//69 65//87
f 64//86 65//87 429//3 5//2
f 25//34 24//47 16//17 15//16
f 13//14 12//13 7//7 6//6
f 66//88 69//89 70//90 71//91
f 66//92 72//93 73//94 69//95
f 66//96 71//91 74//97 72//98
f 67//99 75//100 73//94 72//93
f 67//101 76//102 77//103 75//104
f 67//105 72//98 74//97 76//102
f 68//106 443//107 79//108 80//109
f 68//106 80//109 81//110 82//111
f 68//106 82//111 78//112 443//107
f 83//113 84//114 85//115 86//116
f 86//116 87//117 88//118 83//113
f 86//116 85//115 89//119 90//120
f 86//116 90//120 91//121 87//117
f 91//121 92//122 93//123 87//117
f 94//124 444//125 95//126 96//127
f 94//124 96//127 93//123 92//122
f 96//127 95//126 97//128 98//129
f 96//127 98//129 99//130 93//123
f 99//130 98//129 100//131 101//132
f 99//130 101//132 102//133 88//118
f 99//130 88//118 87//117 93//123
f 102//134 101//135 103//136 104//137
f 102//134 104//137 81//138 84//138
f 102//133 84//114 83//113 88//118
f 104//137 103//136 105//139 106//140
f 104//137 106//140 82//111 81//110
f 106//140 105//139 107//141 108//142
f 106//140 108//142 78//112 82//111
f 109//143 445//144 77//103 110//145
f 109//143 110//145 95//126 444//125
f 110//145 77//103 76//102 111//146
f 110//145 111//146 97//128 95//126
f 111//146 76//102 74//97 112//147
f 111//146 112//147 113//148 97//128
f 113//149 112//150 114//151 115//152
f 113//149 115//152 116//153 100//154
f 113//148 100//131 98//129 97//128
f 116//153 115//152 117//155 118//156
f 116//153 118//156 105//139 103//136
f 116//153 103//136 101//135 100//154
f 118//156 117//155 446//157 447//158
f 118//156 447//158 107//141 105//139
f 449//159 448//160 119//161 70//90
f 449//159 70//90 69//89 120//162
f 120//163 69//95 73//94 121//163
f 121//164 73//94 75//100 450//164
f 450//165 75//104 77//103 445//144
f 119//161 448//160 446//157 117//155
f 119//161 117//155 115//152 114//151
f 119//161 114//151 71//91 70//90
f 114//151 112//150 74//97 71//91
f 89//166 85//167 80//167 79//166
f 85//168 84//138 81//138 80//168
f 122//169 126//170 127//171 128//172
f 122//173 129//174 130//175 126//176
f 122//177 128//178 131//179 129//174
f 123//180 132//181 133//182 134//183
f 123//180 134//183 135//184 136//185
f 123//180 136//186 137//187 132//181
f 124//188 138//189 139//190 140//191
f 124//192 128//172 127//171 138//193
f 124//194 140//191 131//179 128//178
f 125//195 141//196 135//184 134//183
f 125//197 142//198 143//199 141//200
f 125//201 134//183 133//182 142//198
f 143//199 144//202 145//203 451//204
f 143//199 451//204 146//205 141//200
f 143//199 142//198 147//206 144//202
f 147//206 148//207 149//208 144//202
f 147//206 142//198 133//182 150//209
f 147//206 150//209 151//210 148//207
f 151//210 152//211 153//212 148//207
f 151//213 150//214 154//215 155//216
f 151//213 155//216 156//217 152//218
f 156//217 157//219 158//220 152//218
f 156//217 155//216 159//221 160//222
f 156//217 160//222 161//223 157//219
f 161//223 162//224 163//225 157//219
f 161//223 160//222 164//226 452//227
f 161//223 452//227 453//228 162//224
f 453//228 165//229 166//230 162//224
f 167//231 454//232 168//233 169//234
f 167//235 169//236 166//230 165//229
f 169//234 168//233 170//237 171//238
f 169//236 171//238 172//239 166//230
f 172//239 171//238 173//240 174//241
f 172//239 174//241 175//242 163//225
f 172//239 163//225 162//224 166//230
f 175//243 174//244 176//245 177//246
f 175//243 177//246 178//247 158//248
f 175//242 158//220 157//219 163//225
f 178//247 177//246 179//249 180//250
f 178//247 180//250 181//251 153//212
f 178//247 153//212 152//211 158//248
f 181//251 180//250 182//252 455//253
f 181//251 455//253 456//254 149//208
f 181//251 149//208 148//207 153//212
f 456//254 145//203 144//202 149//208
f 457//255 458//256 185//257 137//187
f 457//255 137//187 136//186 184//258
f 185//257 159//221 155//216 154//215
f 185//257 154//215 132//181 137//187
f 185//257 458//256 183//259 159//221
f 184//260 136//185 135//184 186//260
f 186//261 135//184 141//196 146//261
f 183//259 164//226 160//222 159//221
f 188//262 187//263 189//264 190//265
f 188//262 190//265 168//233 454//232
f 190//265 189//264 191//266 192//267
f 190//265 192//267 170//237 168//233
f 192//267 191//266 193//268 194//269
f 192//267 194//269 195//270 170//237
f 195//271 194//272 196//273 197//274
f 195//271 197//274 198//275 173//276
f 195//270 173//240 171//238 170//237
f 198//275 197//274 199//277 200//278
f 198//275 200//278 201//279 176//245
f 198//275 176//245 174//244 173//276
f 201//279 200//278 202//280 203//281
f 201//282 203//283 459//284 179//249
f 201//282 179//249 177//246 176//245
f 459//284 182//252 180//250 179//249
f 461//285 460//286 206//287 207//288
f 461//285 207//288 189//264 187//263
f 207//288 206//287 208//289 209//290
f 207//288 209//290 191//266 189//264
f 209//290 208//289 210//291 211//292
f 209//290 211//292 193//268 191//266
f 211//293 210//291 212//294 213//295
f 211//293 213//295 214//296 193//297
f 214//296 213//295 215//298 216//299
f 214//296 216//299 217//300 196//273
f 214//296 196//273 194//272 193//297
f 217//300 216//299 218//301 205//302
f 217//300 205//302 204//303 199//277
f 217//300 199//277 197//274 196//273
f 218//301 216//299 215//298 462//304
f 220//305 219//306 221//307 139//190
f 220//305 139//190 138//189 463//308
f 463//309 138//193 127//171 222//309
f 222//310 127//171 126//170 223//310
f 223//311 126//176 130//175 464//312
f 464//312 130//175 206//287 460//286
f 221//307 219//306 462//304 215//298
f 221//307 215//298 213//295 212//294
f 221//307 212//294 140//191 139//190
f 212//294 210//291 131//179 140//191
f 210//291 208//289 129//174 131//179
f 208//289 206//287 130//175 129//174
f 204//303 202//280 200//278 199//277
f 154//215 150//214 133//182 132//181
f 224//313 230//314 231//315 232//316
f 224//317 229//318 228//319 230//320
f 225//321 236//322 234//323 233//324
f 225//321 233//324 235//325 237//326
f 225//321 237//326 238//327 236//322
f 226//328 241//329 240//330 239//331
f 226//328 239//331 465//332 242//333
f 226//328 242//333 243//334 241//329
f 227//335 244//336 245//337 246//338
f 227//339 246//340 232//316 231//315
f 246//338 245//337 466//341 247//342
f 246//340 247//343 248//343 232//316
f 248//344 229//344 224//345 232//345
f 466//341 245//337 249//346 467//347
f 468//348 467//347 249//346 251//349
f 468//348 251//349 252//350 250//351
f 252//350 251//349 253//352 254//353
f 252//350 254//353 255//354 256//355
f 252//350 256//355 257//356 250//351
f 257//356 256//355 242//333 465//332
f 469//357 258//358 259//359 260//360
f 469//357 260//360 230//320 228//319
f 260//360 259//359 261//361 262//362
f 260//360 262//362 231//315 230//314
f 262//363 261//364 263//364 244//363
f 262//363 244//363 227//365 231//365
f 263//364 261//364 264//366 253//366
f 263//367 253//352 251//349 249//346
f 263//367 249//346 245//337 244//336
f 264//368 261//361 259//359 265//369
f 264//368 265//369 266//370 267//371
f 264//366 267//372 254//372 253//366
f 267//371 266//370 268//373 269//374
f 267//372 269//375 255//375 254//372
f 269//374 268//373 236//322 238//327
f 269//375 238//376 243//376 255//375
f 268//373 266//370 470//377 270//378
f 268//373 270//378 234//323 236//322
f 470//377 266//370 265//369 471//379
f 471//379 265//369 259//359 258//358
f 256//355 255//354 243//334 242//333
f 243//376 238//376 237//380 241//380
f 241//381 237//381 235//382 240//382
f 271//383 275//384 276//385 277//386
f 271//387 277//386 278//388 279//389
f 271//390 279//391 280//392 275//393
f 272//394 281//395 282//396 283//397
f 272//398 279//389 278//388 281//395
f 272//399 283//400 280//392 279//391
f 273//401 284//402 285//403 286//404
f 273//405 287//406 288//407 284//408
f 273//409 286//404 289//410 287//411
f 274//412 290//413 288//407 287//406
f 274//414 291//415 292//416 290//417
f 274//418 287//411 289//410 291//415
f 292//416 293//419 294//420 295//421
f 292//416 295//421 472//422 290//417
f 292//416 291//415 296//423 293//419
f 296//423 297//424 298//425 293//419
f 296//423 291//415 289//410 299//426
f 296//423 299//426 300//427 297//424
f 300//427 301//428 302//429 297//424
f 300//430 299//431 303//432 304//433
f 300//430 304//433 305//434 301//435
f 305//434 306//436 307//437 301//435
f 305//434 304//433 308//438 309//439
f 305//434 309//439 310//440 306//436
f 310//440 311//441 312//442 306//436
f 310//440 309//439 473//443 474//444
f 310//440 474//444 475//445 311//441
f 475//445 313//446 314//447 311//441
f 315//448 316//449 317//450 318//451
f 315//448 318//451 314//447 313//446
f 318//451 317//450 319//452 320//453
f 318//451 320//453 321//454 314//447
f 321//454 320//453 322//455 323//456
f 321//454 323//456 324//457 312//442
f 321//454 312//442 311//441 314//447
f 324//458 323//459 325//460 326//461
f 324//458 326//461 327//462 307//463
f 324//457 307//437 306//436 312//442
f 327//462 326//461 328//464 329//465
f 327//462 329//465 330//466 302//429
f 327//462 302//429 301//428 307//463
f 330//466 329//465 476//467 477//468
f 330//466 477//468 331//469 298//425
f 330//466 298//425 297//424 302//429
f 331//469 294//420 293//419 298//425
f 332//470 478//471 334//472 285//403
f 332//470 285//403 284//402 333//473
f 334//472 308//438 304//433 303//432
f 334//472 303//432 286//404 285//403
f 334//472 478//471 479//474 308//438
f 333//475 284//408 288//407 335//475
f 335//476 288//407 290//413 472//476
f 479//474 473//443 309//439 308//438
f 481//477 480//478 336//479 337//480
f 481//477 337//480 317//481 316//482
f 337//480 336//479 338//483 339//484
f 337//480 339//484 319//452 317//481
f 339//484 338//483 340//485 341//486
f 339//484 341//486 342//487 319//452
f 342//488 341//489 343//490 344//491
f 342//492 344//493 345//494 322//495
f 342//487 322//455 320//453 319//452
f 345//494 344//493 346//496 347//496
f 345//494 347//497 348//498 325//460
f 345//494 325//460 323//459 322//495
f 348//498 347//497 349//499 350//500
f 348//498 350//500 482//501 328//464
f 348//498 328//464 326//461 325//460
f 482//501 476//467 329//465 328//464
f 353//502 483//503 354//504 355//505
f 353//502 355//505 336//479 480//478
f 355//505 354//504 356//506 357//507
f 355//505 357//507 338//483 336//479
f 357//507 356//506 358//508 359//509
f 357//507 359//509 340//485 338//483
f 359//510 358//508 360//511 361//512
f 359//510 361//512 362//513 340//514
f 362//513 361//512 363//515 364//516
f 362//513 364//516 365//517 343//490
f 362//513 343//490 341//489 340//514
f 365//517 364//516 484//518 352//519
f 365//517 352//519 351//520 346//521
f 365//517 346//521 344//491 343//490
f 484//518 364//516 363//515 485//522
f 367//523 366//524 368//525 276//385
f 367//523 276//385 275//384 369//526
f 369//527 275//393 280//392 370//527
f 370//528 280//392 283//400 371//528
f 371//529 283//397 282//396 486//530
f 486//530 282//396 354//504 483//503
f 368//525 366//524 485//522 363//515
f 368//525 363//515 361//512 360//511
f 368//525 360//511 277//386 276//385
f 360//511 358//508 278//388 277//386
f 358//508 356//506 281//395 278//388
f 356//506 354//504 282//396 281//395
f 351//531 349//531 347//496 346//496
f 303//432 299//431 289//410 286//404
f 372//532 377//533 487//534 376//535
f 372//532 376//535 488//536 378//537
f 372//532 378//537 379//538 377//533
f 373//539 381//540 382//541 383//542
f 373//543 489//544 380//545 381//546
f 374//547 384//548 385//549 386//550
f 374//551 382//541 387//552 384//548
f 374//551 386//553 383//542 382//541
f 375//554 388//555 490//556 390//557
f 375//554 390//557 391//558 392//559
f 375//554 392//559 389//560 388//555
f 392//559 393//561 491//562 389//560
f 392//559 391//558 394//563 393//561
f 394//563 395//564 396//565 393//561
f 394//566 391//567 379//567 397//566
f 394//566 397//566 398//568 395//568
f 398//568 399//569 400//569 395//568
f 398//570 397//571 401//572 402//573
f 398//570 402//573 403//574 399//575
f 403//574 404//576 405//577 399//575
f 403//574 402//573 492//578 493//579
f 403//574 493//579 406//580 404//576
f 406//580 407//581 408//582 404//576
f 409//583 494//584 410//585 411//586
f 409//583 411//586 408//582 407//581
f 411//586 410//585 412//587 413//588
f 411//586 413//588 414//589 408//582
f 414//590 413//591 415//591 416//590
f 414//590 416//590 417//592 405//592
f 414//589 405//577 404//576 408//582
f 417//593 416//594 418//595 419//596
f 417//593 419//596 420//597 400//598
f 417//592 400//569 399//569 405//592
f 420//597 419//596 421//599 495//600
f 420//597 495//600 496//601 396//565
f 420//597 396//565 395//564 400//598
f 496//601 491//562 393//561 396//565
f 497//602 492//578 402//573 401//572
f 497//602 401//572 378//537 488//536
f 499//603 498//604 422//605 423//606
f 499//603 423//606 381//546 380//545
f 423//606 422//605 424//607 387//608
f 423//606 387//608 382//541 381//540
f 424//607 422//605 425//609 415//610
f 424//611 415//591 413//591 412//587
f 424//611 412//587 384//548 387//552
f 425//609 422//605 498//604 500//612
f 425//609 500//612 426//613 418//595
f 425//609 418//595 416//594 415//610
f 426//613 421//599 419//596 418//595
f 412//587 410//585 385//549 384//548
f 410//585 494//584 501//614 385//549
f 501//614 427//615 386//550 385//549
f 427//616 428//616 383//542 386//553
f 428//617 489//617 373//618 383//618
f 401//572 397//571 379//538 378//537
f 391//567 390//619 377//619 379//567
f 390//620 490//621 487//621 377//620
f 430//4 429//3 506//622 502//623
f 507//624 431//5 430//4 502//623
f 506//622 508//625 507//624 502//623
f 511//626 510//627 509//628 503//629
f 513//630 512//631 511//626 503//629
f 509//628 514//632 513//630 503//629
f 517//633 516//634 515//635 504//636
f 432//20 14//19 517//633 504//636
f 515//635 433//21 432//20 504//636
f 520//637 519//638 518//639 505//640
f 518//639 18//27 19//26 505//640
f 19//26 20//28 520//637 505//640
f 522//641 521//642 519//642 520//641
f 20//32 26//32 522//643 520//643
f 433//21 515//635 522//644 26//33
f 524//645 523//646 434//36 435//35
f 18//27 518//639 524//645 435//35
f 526//647 525//648 523//646 524//645
f 518//639 519//638 526//647 524//645
f 528//649 527//650 525//648 526//647
f 519//642 521//642 528//649 526//647
f 530//651 529//652 527//653 528//654
f 521//655 516//634 530//651 528//654
f 532//656 531//657 529//652 530//651
f 516//634 517//633 532//656 530//651
f 38//51 37//50 531//657 532//656
f 517//633 14//19 38//51 532//656
f 534//658 533//659 39//53 40//52
f 434//36 523//646 534//658 40//52
f 536//660 535//661 533//659 534//658
f 523//646 525//648 536//660 534//658
f 538//662 537//663 535//664 536//662
f 525//648 527//650 538//662 536//662
f 540//665 539//666 537//663 538//667
f 527//653 529//652 540//665 538//667
f 542//668 541//669 539//666 540//665
f 529//652 531//657 542//668 540//665
f 437//67 436//66 541//669 542//668
f 531//657 37//50 437//67 542//668
f 544//670 543//671 438//69 439//68
f 39//53 533//659 544//670 439//68
f 546//672 545//673 543//671 544//670
f 533//659 535//661 546//672 544//670
f 548//674 547//675 545//673 546//672
f 535//664 537//663 548//674 546//672
f 550//676 549//677 547//675 548//674
f 537//663 539//666 550//676 548//674
f 552//678 551//679 549//677 550//676
f 539//666 541//669 552//678 550//676
f 441//81 440//80 551//679 552//678
f 541//669 436//66 441//81 552//678
f 61//82 510//627 551//679 440//80
f 62//83 509//628 510//627 61//82
f 442//84 514//632 509//628 62//83
f 431//5 507//624 514//632 442//84
f 510//627 511//626 549//677 551//679
f 511//626 512//631 547//675 549//677
f 512//631 553//680 545//673 547//675
f 512//631 513//630 508//625 553//680
f 554//681 543//671 545//673 553//680
f 508//625 506//622 554//681 553//680
f 65//87 438//69 543//671 554//681
f 506//622 429//3 65//87 554//681
f 515//635 516//634 521//655 522//644
f 507//624 508//625 513//630 514//632
f 560//682 559//683 558//684 555//685
f 558//686 562//687 561//688 555//689
f 561//690 563//691 560//682 555//692
f 561//688 562//687 564//693 556//694
f 564//695 566//696 565//697 556//698
f 565//697 563//691 561//690 556//699
f 567//700 79//108 443//107 557//701
f 569//702 568//703 567//700 557//701
f 443//107 78//112 569//702 557//701
f 573//704 572//705 571//706 570//707
f 570//707 575//708 574//709 573//704
f 90//120 89//119 572//705 573//704
f 574//709 91//121 90//120 573//704
f 574//709 576//710 92//122 91//121
f 578//711 577//712 444//125 94//124
f 92//122 576//710 578//711 94//124
f 580//713 579//714 577//712 578//711
f 576//710 581//715 580//713 578//711
f 583//716 582//717 580//713 581//715
f 575//708 584//718 583//716 581//715
f 576//710 574//709 575//708 581//715
f 586//719 585//720 583//721 584//722
f 571//723 568//723 586//719 584//722
f 575//708 570//707 571//706 584//718
f 588//724 587//725 585//720 586//719
f 568//703 569//702 588//724 586//719
f 108//142 107//141 587//725 588//724
f 569//702 78//112 108//142 588//724
f 589//726 566//696 445//144 109//143
f 444//125 577//712 589//726 109//143
f 590//727 565//697 566//696 589//726
f 577//712 579//714 590//727 589//726
f 591//728 563//691 565//697 590//727
f 579//714 592//729 591//728 590//727
f 594//730 593//731 591//732 592//733
f 582//734 595//735 594//730 592//733
f 579//714 580//713 582//717 592//729
f 597//736 596//737 594//730 595//735
f 585//720 587//725 597//736 595//735
f 582//734 583//721 585//720 595//735
f 447//158 446//157 596//737 597//736
f 587//725 107//141 447//158 597//736
f 559//683 598//738 448//160 449//159
f 120//162 558//684 559//683 449//159
f 121//163 562//687 558//686 120//163
f 450//164 564//693 562//687 121//164
f 445//144 566//696 564//695 450//165
f 596//737 446//157 448//160 598//738
f 593//731 594//730 596//737 598//738
f 559//683 560//682 593//731 598//738
f 560//682 563//691 591//732 593//731
f 79//166 567//739 572//739 89//166
f 567//740 568//723 571//723 572//740
f 605//741 604//742 603//743 599//744
f 603//745 607//746 606//747 599//744
f 606//747 608//748 605//741 599//744
f 611//749 610//750 609//751 600//752
f 613//753 612//754 611//749 600//752
f 609//751 614//755 613//756 600//752
f 617//757 616//758 615//759 601//760
f 615//761 604//742 605//741 601//760
f 605//741 608//748 617//757 601//760
f 611//749 612//754 618//762 602//763
f 618//764 620//765 619//766 602//767
f 619//766 610//750 611//749 602//768
f 451//204 145//203 621//769 620//765
f 618//764 146//205 451//204 620//765
f 621//769 622//770 619//766 620//765
f 621//769 624//771 623//772 622//770
f 625//773 610//750 619//766 622//770
f 623//772 626//774 625//773 622//770
f 623//772 628//775 627//776 626//774
f 630//777 629//778 625//779 626//780
f 627//781 631//782 630//777 626//780
f 627//781 633//783 632//784 631//782
f 635//785 634//786 630//777 631//782
f 632//784 636//787 635//785 631//782
f 632//784 638//788 637//789 636//787
f 452//227 164//226 635//785 636//787
f 637//789 453//228 452//227 636//787
f 637//789 639//790 165//229 453//228
f 641//791 640//792 454//232 167//231
f 165//229 639//790 641//793 167//235
f 643//794 642//795 640//792 641//791
f 639//790 644//796 643//794 641//793
f 646//797 645//798 643//794 644//796
f 638//788 647//799 646//797 644//796
f 639//790 637//789 638//788 644//796
f 649//800 648//801 646//802 647//803
f 633//804 650//805 649//800 647//803
f 638//788 632//784 633//783 647//799
f 652//806 651//807 649//800 650//805
f 628//775 653//808 652//806 650//805
f 633//804 627//776 628//775 650//805
f 455//253 182//252 652//806 653//808
f 624//771 456//254 455//253 653//808
f 628//775 623//772 624//771 653//808
f 624//771 621//769 145//203 456//254
f 614//755 654//809 458//256 457//255
f 184//258 613//756 614//755 457//255
f 629//778 630//777 634//786 654//809
f 614//755 609//751 629//778 654//809
f 634//786 183//259 458//256 654//809
f 186//260 612//754 613//753 184//260
f 146//261 618//762 612//754 186//261
f 634//786 635//785 164//226 183//259
f 656//810 655//811 187//263 188//262
f 454//232 640//792 656//810 188//262
f 658//812 657//813 655//811 656//810
f 640//792 642//795 658//812 656//810
f 660//814 659//815 657//813 658//812
f 642//795 661//816 660//814 658//812
f 663//817 662//818 660//819 661//820
f 645//821 664//822 663//817 661//820
f 642//795 643//794 645//798 661//816
f 666//823 665//824 663//817 664//822
f 648//801 667//825 666//823 664//822
f 645//821 646//802 648//801 664//822
f 203//281 202//280 666//823 667//825
f 651//807 459//284 203//283 667//826
f 648//801 649//800 651//807 667//826
f 651//807 652//806 182//252 459//284
f 669//827 668//828 460//286 461//285
f 187//263 655//811 669//827 461//285
f 671//829 670//830 668//828 669//827
f 655//811 657//813 671//829 669//827
f 673//831 672//832 670//830 671//829
f 657//813 659//815 673//831 671//829
f 675//833 674//834 672//832 673//835
f 659//836 676//837 675//833 673//835
f 678//838 677//839 675//833 676//837
f 662//818 679//840 678//838 676//837
f 659//836 660//819 662//818 676//837
f 205//302 218//301 678//838 679//840
f 665//824 204//303 205//302 679//840
f 662//818 663//817 665//824 679//840
f 462//304 677//839 678//838 218//301
f 616//758 680//841 219//306 220//305
f 463//308 615//759 616//758 220//305
f 222//309 604//742 615//761 463//309
f 223//310 603//743 604//742 222//310
f 464//312 607//746 603//745 223//311
f 460//286 668//828 607//746 464//312
f 677//839 462//304 219//306 680//841
f 674//834 675//833 677//839 680//841
f 616//758 617//757 674//834 680//841
f 617//757 608//748 672//832 674//834
f 608//748 606//747 670//830 672//832
f 606//747 607//746 668//828 670//830
f 665//824 666//823 202//280 204//303
f 609//751 610//750 625//779 629//778
f 687//842 686//843 685//843 681//842
f 685//844 228//319 229//318 681//845
f 233//324 234//323 688//846 682//847
f 689//848 235//325 233//324 682//847
f 688//846 690//849 689//848 682//847
f 239//331 240//330 691//850 683//851
f 692//852 465//332 239//331 683//851
f 691//850 693//853 692//852 683//851
f 696//854 695//855 694//856 684//857
f 686//858 687//859 696//859 684//858
f 247//342 466//341 695//855 696//854
f 687//859 248//343 247//343 696//859
f 687//842 681//842 229//344 248//344
f 467//347 697//860 695//855 466//341
f 698//861 697//860 467//347 468//348
f 250//351 699//862 698//861 468//348
f 701//863 700//864 698//861 699//862
f 703//865 702//866 701//863 699//862
f 250//351 257//356 703//865 699//862
f 465//332 692//852 703//865 257//356
f 705//867 704//868 258//358 469//357
f 228//319 685//844 705//867 469//357
f 707//869 706//870 704//868 705//867
f 685//843 686//843 707//869 705//867
f 694//871 708//872 706//872 707//871
f 686//858 684//858 694//871 707//871
f 700//873 709//873 706//872 708//872
f 697//860 698//861 700//864 708//874
f 694//856 695//855 697//860 708//874
f 710//875 704//868 706//870 709//876
f 712//877 711//878 710//875 709//876
f 700//873 701//879 712//879 709//873
f 714//880 713//881 711//878 712//877
f 701//879 702//882 714//882 712//879
f 690//849 688//846 713//881 714//880
f 702//882 693//883 690//883 714//882
f 270//378 470//377 711//878 713//881
f 688//846 234//323 270//378 713//881
f 471//379 710//875 711//878 470//377
f 258//358 704//868 710//875 471//379
f 692//852 693//853 702//866 703//865
f 691//884 689//884 690//883 693//883
f 240//382 235//382 689//885 691//885
f 721//886 720//887 719//888 715//889
f 723//890 722//891 721//886 715//892
f 719//893 724//893 723//894 715//894
f 727//895 726//896 725//897 716//898
f 725//897 722//891 723//890 716//899
f 723//900 724//901 727//901 716//900
f 730//902 729//903 728//904 717//905
f 728//906 732//907 731//908 717//905
f 731//908 733//909 730//902 717//905
f 731//908 732//907 734//910 718//911
f 734//912 736//913 735//914 718//915
f 735//914 733//909 731//908 718//911
f 295//421 294//420 737//916 736//913
f 734//912 472//422 295//421 736//913
f 737//916 738//917 735//914 736//913
f 737//916 740//918 739//919 738//917
f 741//920 733//909 735//914 738//917
f 739//919 742//921 741//920 738//917
f 739//919 744//922 743//923 742//921
f 746//924 745//925 741//926 742//927
f 743//928 747//929 746//924 742//927
f 743//928 749//930 748//931 747//929
f 751//932 750//933 746//924 747//929
f 748//931 752//934 751//932 747//929
f 748//931 754//935 753//936 752//934
f 474//444 473//443 751//932 752//934
f 753//936 475//445 474//444 752//934
f 753//936 755//937 313//446 475//445
f 757//938 756//939 316//449 315//448
f 313//446 755//937 757//938 315//448
f 759//940 758//941 756//939 757//938
f 755//937 760//942 759//940 757//938
f 762//943 761//944 759//940 760//942
f 754//935 763//945 762//943 760//942
f 755//937 753//936 754//935 760//942
f 765//946 764//947 762//948 763//949
f 749//950 766//951 765//946 763//949
f 754//935 748//931 749//930 763//945
f 768//952 767//953 765//946 766//951
f 744//922 769//954 768//952 766//951
f 749//950 743//923 744//922 766//951
f 477//468 476//467 768//952 769//954
f 740//918 331//469 477//468 769//954
f 744//922 739//919 740//918 769//954
f 740//918 737//916 294//420 331//469
f 729//903 770//955 478//471 332//470
f 333//473 728//904 729//903 332//470
f 745//925 746//924 750//933 770//955
f 729//903 730//902 745//925 770//955
f 750//933 479//474 478//471 770//955
f 335//475 732//907 728//906 333//475
f 472//476 734//910 732//907 335//476
f 750//933 751//932 473//443 479//474
f 772//956 771//957 480//478 481//477
f 316//482 756//958 772//956 481//477
f 774//959 773//960 771//957 772//956
f 756//958 758//941 774//959 772//956
f 776//961 775//962 773//960 774//959
f 758//941 777//963 776//961 774//959
f 779//964 778//965 776//966 777//967
f 761//968 780//969 779//970 777//971
f 758//941 759//940 761//944 777//963
f 782//972 781//972 779//970 780//969
f 764//947 783//973 782//974 780//969
f 761//968 762//948 764//947 780//969
f 350//500 349//499 782//974 783//973
f 767//953 482//501 350//500 783//973
f 764//947 765//946 767//953 783//973
f 767//953 768//952 476//467 482//501
f 785//975 784//976 483//503 353//502
f 480//478 771//957 785//975 353//502
f 787//977 786//978 784//976 785//975
f 771//957 773//960 787//977 785//975
f 789//979 788//980 786//978 787//977
f 773//960 775//962 789//979 787//977
f 791//981 790//982 788//980 789//983
f 775//984 792//985 791//981 789//983
f 794//986 793//987 791//981 792//985
f 778//965 795//988 794//986 792//985
f 775//984 776//966 778//965 792//985
f 352//519 484//518 794//986 795//988
f 781//989 351//520 352//519 795//988
f 778//965 779//964 781//989 795//988
f 485//522 793//987 794//986 484//518
f 720//887 796//990 366//524 367//523
f 369//526 719//888 720//887 367//523
f 370//527 724//893 719//893 369//527
f 371//528 727//901 724//901 370//528
f 486//530 726//896 727//895 371//529
f 483//503 784//976 726//896 486//530
f 793//987 485//522 366//524 796//990
f 790//982 791//981 793//987 796//990
f 720//887 721//886 790//982 796//990
f 721//886 722//891 788//980 790//982
f 722//891 725//897 786//978 788//980
f 725//897 726//896 784//976 786//978
f 781//972 782//972 349//531 351//531
f 730//902 733//909 741//926 745//925
f 376//535 487//534 801//991 797//992
f 802//993 488//536 376//535 797//992
f 801//991 803//994 802//993 797//992
f 806//995 805//996 804//997 798//998
f 804//999 380//545 489//544 798//1000
f 809//1001 808//1002 807//1003 799//1004
f 807//1003 810//1005 805//996 799//1006
f 805//996 806//995 809//1007 799//1006
f 811//1008 490//556 388//555 800//1009
f 813//1010 812//1011 811//1008 800//1009
f 388//555 389//560 813//1010 800//1009
f 389//560 491//562 814//1012 813//1010
f 814//1012 815//1013 812//1011 813//1010
f 814//1012 817//1014 816//1015 815//1013
f 818//1016 803//1017 812//1017 815//1016
f 816//1018 819//1018 818//1016 815//1016
f 816//1018 821//1019 820//1019 819//1018
f 823//1020 822//1021 818//1022 819//1023
f 820//1024 824//1025 823//1020 819//1023
f 820//1024 826//1026 825//1027 824//1025
f 493//579 492//578 823//1020 824//1025
f 825//1027 406//580 493//579 824//1025
f 825//1027 827//1028 407//581 406//580
f 829//1029 828//1030 494//584 409//583
f 407//581 827//1028 829//1029 409//583
f 831//1031 830//1032 828//1030 829//1029
f 827//1028 832//1033 831//1031 829//1029
f 834//1034 833//1035 831//1035 832//1034
f 826//1036 835//1036 834//1034 832//1034
f 827//1028 825//1027 826//1026 832//1033
f 837//1037 836//1038 834//1039 835//1040
f 821//1041 838//1042 837//1037 835//1040
f 826//1036 820//1019 821//1019 835//1036
f 495//600 421//599 837//1037 838//1042
f 817//1014 496//601 495//600 838//1042
f 821//1041 816//1015 817//1014 838//1042
f 817//1014 814//1012 491//562 496//601
f 822//1021 823//1020 492//578 497//602
f 488//536 802//993 822//1021 497//602
f 840//1043 839//1044 498//604 499//603
f 380//545 804//999 840//1043 499//603
f 810//1045 841//1046 839//1044 840//1043
f 804//997 805//996 810//1045 840//1043
f 833//1047 842//1048 839//1044 841//1046
f 830//1032 831//1035 833//1035 841//1049
f 810//1005 807//1003 830//1032 841//1049
f 500//612 498//604 839//1044 842//1048
f 836//1038 426//613 500//612 842//1048
f 833//1047 834//1039 836//1038 842//1048
f 836//1038 837//1037 421//599 426//613
f 807//1003 808//1002 828//1030 830//1032
f 808//1002 501//614 494//584 828//1030
f 808//1002 809//1001 427//615 501//614
f 809//1007 806//995 428//616 427//616
f 806//1050 798//1050 489//617 428//617
f 802//993 803//994 818//1022 822//1021
f 803//1017 801//1051 811//1051 812//1017
f 801//1052 487//621 490//621 811//1052
