# pilowlava3D glyph '-' variant 1 — Vincent Wagner / Velvetyne, Free Art License
v 0.21838 0.04801 -0.19545
v 0.12974 0.24043 -0.10626
v 1.97006 0.55808 -0.26538
v 1.98100 0.18369 -0.26702
v 0.34079 0.06127 -0.23633
v 0.35261 0.03587 -0.12068
v 0.18999 0.03294 -0.10877
v 0.16235 0.07229 -0.26365
v 0.33073 0.11289 -0.32207
v 0.07520 0.05339 -0.13473
v 0.22741 0.27660 0.00000
v 0.12254 0.24564 0.00000
v 0.21223 0.25896 -0.13881
v 0.17113 0.21402 -0.24796
v 0.05688 0.19803 -0.14572
v 1.98930 0.59557 -0.15228
v 2.05791 0.45389 -0.14443
v 2.00777 0.45094 -0.28881
v 1.88018 0.45015 -0.38420
v 1.85386 0.59728 -0.31154
v 1.84071 0.68253 -0.16690
v 2.00333 0.14231 -0.15337
v 1.87559 0.04931 -0.16560
v 1.88745 0.14169 -0.30839
v 2.01370 0.29691 -0.29059
v 2.06538 0.29056 -0.14505
v 1.89386 0.28523 -0.38170
v 1.73668 0.11790 -0.32988
v 1.74583 0.26890 -0.41530
v 1.72761 0.44092 -0.41669
v 1.59303 0.25655 -0.42168
v 1.57470 0.42422 -0.42159
v 1.53431 0.56822 -0.32862
v 1.69234 0.59809 -0.32943
v 1.50645 0.64763 -0.17170
v 1.66754 0.68717 -0.17222
v 1.83822 0.70252 0.00000
v 1.99163 0.61134 0.00000
v 1.56638 0.00585 0.00000
v 1.71748 0.00000 0.00000
v 1.72124 0.02669 -0.17310
v 2.06730 0.45692 0.00000
v 1.57104 0.03523 -0.17184
v 1.58426 0.11675 -0.32951
v 1.42366 0.04448 -0.16698
v 1.43196 0.11756 -0.32127
v 1.43436 0.24379 -0.41721
v 1.27876 0.11197 -0.31186
v 1.27438 0.22578 -0.41012
v 1.25490 0.36828 -0.40974
v 1.41531 0.39804 -0.41686
v 1.22795 0.48104 -0.31315
v 1.38037 0.52428 -0.32191
v 1.20817 0.54565 -0.16289
v 1.35582 0.59484 -0.16789
v 1.34649 0.62196 0.00000
v 1.41927 0.01497 0.00000
v 1.27530 0.04737 -0.16179
v 1.12252 0.02219 0.00000
v 1.12456 0.04520 -0.15733
v 1.12425 0.10236 -0.30262
v 0.97206 0.04153 -0.15270
v 0.96900 0.09315 -0.29378
v 0.95860 0.18718 -0.38713
v 1.11530 0.20552 -0.40007
v 0.94215 0.30907 -0.38775
v 1.09650 0.33804 -0.40008
v 0.92635 0.40326 -0.29681
v 1.07664 0.44165 -0.30403
v 0.91357 0.45955 -0.15544
v 1.06130 0.50201 -0.15854
v 0.90734 0.48266 0.00000
v 0.81750 0.02228 0.00000
v 0.81763 0.03932 -0.14783
v 0.48031 0.33198 -0.15418
v 0.34093 0.29184 -0.15423
v 0.47912 0.28514 -0.28438
v 0.32608 0.24534 -0.27674
v 0.48153 0.21965 -0.35177
v 0.32323 0.18555 -0.33748
v 0.14183 0.14792 -0.30145
v 0.02143 0.12077 -0.15453
v 0.06477 0.04260 0.00000
v 0.00000 0.11227 0.00000
v 0.18433 0.02514 0.00000
v 0.50871 0.03985 -0.13649
v 0.66326 0.03935 -0.14273
v 0.50100 0.07433 -0.26320
v 0.65788 0.08074 -0.27647
v 0.81312 0.08557 -0.28531
v 0.64797 0.15774 -0.36169
v 0.80389 0.17249 -0.37487
v 0.63579 0.24956 -0.36512
v 0.78999 0.28066 -0.37624
v 0.62814 0.32436 -0.28925
v 0.77699 0.36383 -0.29278
v 0.62326 0.37368 -0.15332
v 0.76705 0.41632 -0.15381
v 0.49091 0.13740 -0.34420
v 0.03338 0.19660 0.00000
v 1.49846 0.67315 0.00000
v 1.66358 0.71045 0.00000
v 1.87271 0.02602 0.00000
v 2.00799 0.12528 0.00000
v 2.07528 0.28454 0.00000
v 1.20027 0.57264 0.00000
v 1.27165 0.02067 0.00000
v 1.05379 0.52721 0.00000
v 0.97096 0.02191 0.00000
v 0.47980 0.35071 0.00000
v 0.34866 0.31210 0.00000
v 0.35788 0.02579 0.00000
v 0.51008 0.02568 0.00000
v 0.66338 0.02392 0.00000
v 0.61933 0.39232 0.00000
v 0.76218 0.43714 0.00000
v 0.21838 0.04801 0.19545
v 0.12974 0.24043 0.10626
v 1.97006 0.55808 0.26538
v 1.98100 0.18369 0.26702
v 0.34079 0.06127 0.23633
v 0.35261 0.03587 0.12068
v 0.18999 0.03294 0.10877
v 0.16235 0.07229 0.26365
v 0.33073 0.11289 0.32207
v 0.07520 0.05339 0.13473
v 0.21223 0.25896 0.13881
v 0.17113 0.21402 0.24796
v 0.05688 0.19803 0.14572
v 1.98930 0.59557 0.15228
v 2.05791 0.45389 0.14443
v 2.00777 0.45094 0.28881
v 1.88018 0.45015 0.38420
v 1.85386 0.59728 0.31154
v 1.84071 0.68253 0.16690
v 2.00333 0.14231 0.15337
v 1.87559 0.04931 0.16560
v 1.88745 0.14169 0.30839
v 2.01370 0.29691 0.29059
v 2.06538 0.29056 0.14505
v 1.89386 0.28523 0.38170
v 1.73668 0.11790 0.32988
v 1.74583 0.26890 0.41530
v 1.72761 0.44092 0.41669
v 1.59303 0.25655 0.42168
v 1.57470 0.42422 0.42159
v 1.53431 0.56822 0.32862
v 1.69234 0.59809 0.32943
v 1.50645 0.64763 0.17170
v 1.66754 0.68717 0.17222
v 1.72124 0.02669 0.17310
v 1.57104 0.03523 0.17184
v 1.58426 0.11675 0.32951
v 1.42366 0.04448 0.16698
v 1.43196 0.11756 0.32127
v 1.43436 0.24379 0.41721
v 1.27876 0.11197 0.31186
v 1.27438 0.22578 0.41012
v 1.25490 0.36828 0.40974
v 1.41531 0.39804 0.41686
v 1.22795 0.48104 0.31315
v 1.38037 0.52428 0.32191
v 1.20817 0.54565 0.16289
v 1.35582 0.59484 0.16789
v 1.27530 0.04737 0.16179
v 1.12456 0.04520 0.15733
v 1.12425 0.10236 0.30262
v 0.97206 0.04153 0.15270
v 0.96900 0.09315 0.29378
v 0.95860 0.18718 0.38713
v 1.11530 0.20552 0.40007
v 0.94215 0.30907 0.38775
v 1.09650 0.33804 0.40008
v 0.92635 0.40326 0.29681
v 1.07664 0.44165 0.30403
v 0.91357 0.45955 0.15544
v 1.06130 0.50201 0.15854
v 0.81763 0.03932 0.14783
v 0.48031 0.33198 0.15418
v 0.34093 0.29184 0.15423
v 0.47912 0.28514 0.28438
v 0.32608 0.24534 0.27674
v 0.48153 0.21965 0.35177
v 0.32323 0.18555 0.33748
v 0.14183 0.14792 0.30145
v 0.02143 0.12077 0.15453
v 0.50871 0.03985 0.13649
v 0.66326 0.03935 0.14273
v 0.50100 0.07433 0.26320
v 0.65788 0.08074 0.27647
v 0.81312 0.08557 0.28531
v 0.64797 0.15774 0.36169
v 0.80389 0.17249 0.37487
v 0.63579 0.24956 0.36512
v 0.78999 0.28066 0.37624
v 0.62814 0.32436 0.28925
v 0.77699 0.36383 0.29278
v 0.62326 0.37368 0.15332
v 0.76705 0.41632 0.15381
v 0.49091 0.13740 0.34420
vn -0.03334 -0.95954 -0.27958
vn 0.01679 -0.93314 -0.35911
vn 0.01562 -0.98871 -0.14902
vn -0.06320 -0.98777 -0.14252
vn -0.06448 -0.94308 -0.32625
vn 0.00941 -0.86707 -0.49811
vn -0.44560 -0.85468 -0.26638
vn -0.36240 0.92020 -0.14795
vn -0.28291 0.93928 -0.19421
vn -0.39806 0.78483 -0.47497
vn -0.63934 0.71700 -0.27777
vn -0.73703 0.67586 0.00014
vn -0.37447 0.92724 0.00069
vn -0.26812 0.96339 0.00059
vn 0.64699 0.56325 -0.51396
vn 0.72298 0.65526 -0.21894
vn 0.95302 0.23374 -0.19268
vn 0.77665 0.22937 -0.58669
vn 0.37450 0.24077 -0.89542
vn 0.29854 0.67865 -0.67105
vn 0.27446 0.91810 -0.28595
vn 0.69193 -0.50297 -0.51793
vn 0.77029 -0.59355 -0.23313
vn 0.38027 -0.87539 -0.29847
vn 0.39009 -0.63671 -0.66515
vn 0.79272 -0.16272 -0.58746
vn 0.96589 -0.16276 -0.20143
vn 0.41264 -0.20393 -0.88777
vn 0.10779 -0.70608 -0.69988
vn 0.13315 -0.25618 -0.95742
vn 0.08130 0.25720 -0.96293
vn 0.00954 -0.28782 -0.95764
vn -0.05319 0.26987 -0.96143
vn -0.17704 0.70853 -0.68311
vn -0.02013 0.70514 -0.70879
vn -0.25916 0.91229 -0.31712
vn -0.08427 0.94305 -0.32179
vn -0.27849 0.96044 0.00004
vn -0.09650 0.99533 0.00003
vn 0.28394 0.95884 -0.00002
vn 0.73685 0.67605 0.00009
vn 0.38737 -0.92193 -0.00004
vn 0.05554 -0.99846 0.00000
vn 0.06724 -0.94180 -0.32938
vn 0.78661 -0.61745 -0.00010
vn 0.98473 -0.17407 -0.00007
vn 0.96918 0.24637 0.00010
vn -0.05676 -0.99839 0.00001
vn -0.04705 -0.94636 -0.31968
vn -0.01182 -0.74145 -0.67091
vn -0.03994 -0.95225 -0.30271
vn -0.01764 -0.77557 -0.63102
vn -0.02065 -0.31977 -0.94727
vn 0.00734 -0.80488 -0.59339
vn -0.02194 -0.34912 -0.93682
vn -0.12490 0.32050 -0.93898
vn -0.10512 0.29419 -0.94995
vn -0.23442 0.75882 -0.60764
vn -0.23101 0.72961 -0.64367
vn -0.29034 0.91106 -0.29269
vn -0.30485 0.90217 -0.30521
vn -0.30668 0.95181 -0.00000
vn -0.32363 0.94618 -0.00001
vn -0.04858 -0.99882 -0.00000
vn -0.01611 -0.99987 0.00002
vn -0.00646 -0.95967 -0.28106
vn 0.00534 -0.99999 0.00003
vn 0.01315 -0.96603 -0.25809
vn 0.01812 -0.82623 -0.56305
vn 0.01350 -0.97133 -0.23736
vn 0.01389 -0.84135 -0.54032
vn 0.00764 -0.70298 -0.71117
vn 0.01437 -0.68248 -0.73076
vn -0.06987 -0.01033 -0.99750
vn -0.07679 -0.01607 -0.99692
vn -0.18980 0.64335 -0.74167
vn -0.19013 0.66470 -0.72251
vn -0.22783 0.79519 -0.56193
vn -0.22935 0.78086 -0.58108
vn -0.27220 0.92482 -0.26574
vn -0.27373 0.92014 -0.28004
vn -0.28854 0.95747 -0.00000
vn -0.28901 0.95733 0.00001
vn 0.00746 -0.99997 0.00000
vn -0.00162 -1.00000 -0.00001
vn 0.00335 -0.97573 -0.21894
vn -0.27483 0.96149 -0.00015
vn -0.28108 0.95968 0.00002
vn -0.26966 0.93687 -0.22261
vn -0.26630 0.94057 -0.21073
vn -0.23726 0.82161 -0.51833
vn -0.25558 0.82298 -0.50733
vn -0.20674 0.69620 -0.68744
vn -0.24232 0.69203 -0.67999
vn -0.47777 0.61231 -0.62993
vn -0.41864 -0.47367 -0.77484
vn -0.13006 -0.25517 -0.95811
vn -0.69945 -0.62328 -0.34971
vn -0.81251 0.46725 -0.34857
vn -0.47711 -0.87884 -0.00032
vn -0.74801 -0.66369 -0.00064
vn -0.91716 0.39851 0.00045
vn -0.07149 -0.99744 -0.00008
vn 0.00783 -0.99997 -0.00003
vn 0.00435 -0.98365 -0.18005
vn -0.00094 -1.00000 0.00008
vn -0.00375 -0.97945 -0.20165
vn -0.00838 -0.99996 0.00000
vn 0.00833 -0.89755 -0.44083
vn 0.00084 -0.87194 -0.48960
vn 0.00467 -0.85472 -0.51906
vn 0.00079 -0.74808 -0.66361
vn 0.00094 -0.72047 -0.69348
vn -0.07358 -0.02652 -0.99694
vn -0.07973 -0.05461 -0.99532
vn -0.19079 0.67884 -0.70907
vn -0.19651 0.68886 -0.69775
vn -0.23205 0.81523 -0.53062
vn -0.22917 0.80622 -0.54542
vn -0.27276 0.93327 -0.23367
vn -0.27506 0.92860 -0.24910
vn -0.28731 0.95784 -0.00001
vn -0.29196 0.95643 -0.00000
vn -0.08442 -0.11673 -0.98957
vn 0.00647 -0.79567 -0.60570
vn -0.06334 -0.98743 0.14482
vn 0.01402 -0.98834 0.15162
vn 0.01355 -0.92942 0.36878
vn -0.03613 -0.95565 0.29227
vn 0.00695 -0.85935 0.51134
vn -0.06386 -0.93805 0.34055
vn -0.44840 -0.85286 0.26751
vn -0.63623 0.72442 0.26538
vn -0.39657 0.79297 0.46253
vn -0.28480 0.93998 0.18797
vn -0.36456 0.92046 0.14089
vn 0.77900 0.23387 0.58177
vn 0.95244 0.23477 0.19430
vn 0.72430 0.65262 0.22244
vn 0.65202 0.56234 0.50857
vn 0.30703 0.67863 0.66723
vn 0.38055 0.24494 0.89173
vn 0.27798 0.91623 0.28854
vn 0.39448 -0.63754 0.66176
vn 0.38202 -0.87396 0.30043
vn 0.77078 -0.59180 0.23596
vn 0.69484 -0.50357 0.51344
vn 0.96540 -0.16387 0.20285
vn 0.79462 -0.16738 0.58358
vn 0.41660 -0.20810 0.88495
vn 0.13292 -0.25617 0.95745
vn 0.10704 -0.70618 0.69990
vn 0.08224 0.25754 0.96276
vn -0.05370 0.27011 0.96133
vn 0.00937 -0.28810 0.95755
vn -0.01874 0.70548 0.70848
vn -0.17758 0.70879 0.68270
vn -0.08399 0.94308 0.32178
vn -0.25920 0.91232 0.31699
vn 0.06653 -0.94186 0.32935
vn -0.04704 -0.94634 0.31974
vn -0.01190 -0.74161 0.67072
vn -0.01733 -0.77540 0.63123
vn -0.03961 -0.95219 0.30294
vn -0.02077 -0.31975 0.94728
vn -0.02128 -0.34862 0.93702
vn 0.00799 -0.80454 0.59384
vn -0.10533 0.29394 0.95000
vn -0.12458 0.32054 0.93901
vn -0.23128 0.72935 0.64386
vn -0.23410 0.75889 0.60769
vn -0.30489 0.90214 0.30526
vn -0.29032 0.91107 0.29270
vn -0.00640 -0.95965 0.28111
vn 0.01323 -0.96603 0.25809
vn 0.01813 -0.82617 0.56313
vn 0.01383 -0.84137 0.54029
vn 0.01352 -0.97132 0.23738
vn 0.01453 -0.68229 0.73094
vn 0.00752 -0.70305 0.71110
vn -0.06990 -0.01032 0.99750
vn -0.07671 -0.01606 0.99692
vn -0.22947 0.78092 0.58095
vn -0.22784 0.79518 0.56194
vn -0.19017 0.66466 0.72254
vn -0.19000 0.64349 0.74150
vn -0.27374 0.92014 0.28002
vn -0.27219 0.92483 0.26573
vn 0.00325 -0.97574 0.21891
vn -0.26673 0.94065 0.20984
vn -0.26965 0.93685 0.22269
vn -0.25576 0.82305 0.50713
vn -0.23739 0.82157 0.51834
vn -0.24218 0.69131 0.68076
vn -0.20699 0.69619 0.68737
vn -0.47440 0.62543 0.61951
vn -0.41948 -0.46855 0.77750
vn -0.12614 -0.25698 0.95815
vn -0.70685 -0.61450 0.35036
vn -0.80826 0.48213 0.33804
vn 0.00483 -0.98361 0.18027
vn -0.00389 -0.97946 0.20159
vn -0.00027 -0.87207 0.48937
vn 0.00807 -0.89753 0.44089
vn 0.00450 -0.85476 0.51900
vn 0.00062 -0.72056 0.69339
vn -0.00113 -0.74835 0.66330
vn -0.07405 -0.02660 0.99690
vn -0.07955 -0.05477 0.99533
vn -0.22926 0.80616 0.54548
vn -0.23210 0.81522 0.53060
vn -0.19662 0.68887 0.69771
vn -0.19099 0.67875 0.70910
vn -0.27506 0.92859 0.24914
vn -0.27274 0.93328 0.23367
vn -0.08519 -0.11664 0.98951
vn 0.00555 -0.79578 0.60557
f 1//1 5//2 6//3 7//4
f 1//1 8//5 9//6 5//2
f 1//1 7//4 10//7 8//5
f 2//8 13//9 14//10 15//11
f 2//8 15//11 100//12 12//13
f 2//8 12//13 11//14 13//9
f 3//15 16//16 17//17 18//18
f 3//15 18//18 19//19 20//20
f 3//15 20//20 21//21 16//16
f 4//22 22//23 23//24 24//25
f 4//22 25//26 26//27 22//23
f 4//22 24//25 27//28 25//26
f 27//28 24//25 28//29 29//30
f 27//28 29//30 30//31 19//19
f 27//28 19//19 18//18 25//26
f 30//31 29//30 31//32 32//33
f 30//31 32//33 33//34 34//35
f 30//31 34//35 20//20 19//19
f 34//35 33//34 35//36 36//37
f 34//35 36//37 21//21 20//20
f 36//37 35//36 101//38 102//39
f 36//37 102//39 37//40 21//21
f 37//40 38//41 16//16 21//21
f 103//42 40//43 41//44 23//24
f 103//42 23//24 22//23 104//45
f 104//45 22//23 26//27 105//46
f 105//46 26//27 17//17 42//47
f 42//47 17//17 16//16 38//41
f 41//44 40//43 39//48 43//49
f 41//44 43//49 44//50 28//29
f 41//44 28//29 24//25 23//24
f 44//50 43//49 45//51 46//52
f 44//50 46//52 47//53 31//32
f 44//50 31//32 29//30 28//29
f 47//53 46//52 48//54 49//55
f 47//53 49//55 50//56 51//57
f 47//53 51//57 32//33 31//32
f 51//57 50//56 52//58 53//59
f 51//57 53//59 33//34 32//33
f 53//59 52//58 54//60 55//61
f 53//59 55//61 35//36 33//34
f 55//61 54//60 106//62 56//63
f 55//61 56//63 101//38 35//36
f 57//64 107//65 58//66 45//51
f 57//64 45//51 43//49 39//48
f 58//66 107//65 59//67 60//68
f 58//66 60//68 61//69 48//54
f 58//66 48//54 46//52 45//51
f 61//69 60//68 62//70 63//71
f 61//69 63//71 64//72 65//73
f 61//69 65//73 49//55 48//54
f 65//74 64//75 66//75 67//74
f 65//74 67//74 50//56 49//55
f 67//76 66//77 68//78 69//79
f 67//76 69//79 52//58 50//56
f 69//79 68//78 70//80 71//81
f 69//79 71//81 54//60 52//58
f 71//81 70//80 72//82 108//83
f 71//81 108//83 106//62 54//60
f 109//84 73//85 74//86 62//70
f 109//84 62//70 60//68 59//67
f 111//87 110//88 75//89 76//90
f 111//87 76//90 13//9 11//14
f 76//90 75//89 77//91 78//92
f 76//90 78//92 14//10 13//9
f 78//92 77//91 79//93 80//94
f 78//92 80//94 81//95 14//10
f 81//96 80//97 9//97 8//96
f 81//96 8//96 10//7 82//98
f 81//95 82//99 15//11 14//10
f 82//98 10//7 83//100 84//101
f 82//99 84//102 100//12 15//11
f 83//100 10//7 7//4 85//103
f 85//103 7//4 6//3 112//104
f 112//104 6//3 86//105 113//106
f 113//106 86//105 87//107 114//108
f 87//107 74//86 73//85 114//108
f 87//107 86//105 88//109 89//110
f 87//107 89//110 90//111 74//86
f 90//111 63//71 62//70 74//86
f 90//111 89//110 91//112 92//113
f 90//111 92//113 64//72 63//71
f 92//114 91//115 93//115 94//114
f 92//114 94//114 66//75 64//75
f 94//116 93//117 95//118 96//119
f 94//116 96//119 68//78 66//77
f 96//119 95//118 97//120 98//121
f 96//119 98//121 70//80 68//78
f 98//121 97//120 115//122 116//123
f 98//121 116//123 72//82 70//80
f 115//122 97//120 75//89 110//88
f 97//120 95//118 77//91 75//89
f 95//118 93//117 79//93 77//91
f 93//115 91//115 99//124 79//124
f 99//125 91//112 89//110 88//109
f 99//125 88//109 5//2 9//6
f 99//124 9//97 80//97 79//124
f 88//109 86//105 6//3 5//2
f 26//27 25//26 18//18 17//17
f 123//126 122//127 121//128 117//129
f 121//128 125//130 124//131 117//129
f 124//131 126//132 123//126 117//129
f 129//133 128//134 127//135 118//136
f 12//13 100//12 129//133 118//136
f 127//135 11//14 12//13 118//136
f 132//137 131//138 130//139 119//140
f 134//141 133//142 132//137 119//140
f 130//139 135//143 134//141 119//140
f 138//144 137//145 136//146 120//147
f 136//146 140//148 139//149 120//147
f 139//149 141//150 138//144 120//147
f 143//151 142//152 138//144 141//150
f 133//142 144//153 143//151 141//150
f 139//149 132//137 133//142 141//150
f 146//154 145//155 143//151 144//153
f 148//156 147//157 146//154 144//153
f 133//142 134//141 148//156 144//153
f 150//158 149//159 147//157 148//156
f 134//141 135//143 150//158 148//156
f 102//39 101//38 149//159 150//158
f 135//143 37//40 102//39 150//158
f 135//143 130//139 38//41 37//40
f 137//145 151//160 40//43 103//42
f 104//45 136//146 137//145 103//42
f 105//46 140//148 136//146 104//45
f 42//47 131//138 140//148 105//46
f 38//41 130//139 131//138 42//47
f 152//161 39//48 40//43 151//160
f 142//152 153//162 152//161 151//160
f 137//145 138//144 142//152 151//160
f 155//163 154//164 152//161 153//162
f 145//155 156//165 155//163 153//162
f 142//152 143//151 145//155 153//162
f 158//166 157//167 155//163 156//165
f 160//168 159//169 158//166 156//165
f 145//155 146//154 160//168 156//165
f 162//170 161//171 159//169 160//168
f 146//154 147//157 162//170 160//168
f 164//172 163//173 161//171 162//170
f 147//157 149//159 164//172 162//170
f 56//63 106//62 163//173 164//172
f 149//159 101//38 56//63 164//172
f 154//164 165//174 107//65 57//64
f 39//48 152//161 154//164 57//64
f 166//175 59//67 107//65 165//174
f 157//167 167//176 166//175 165//174
f 154//164 155//163 157//167 165//174
f 169//177 168//178 166//175 167//176
f 171//179 170//180 169//177 167//176
f 157//167 158//166 171//179 167//176
f 173//181 172//182 170//182 171//181
f 158//166 159//169 173//181 171//181
f 175//183 174//184 172//185 173//186
f 159//169 161//171 175//183 173//186
f 177//187 176//188 174//184 175//183
f 161//171 163//173 177//187 175//183
f 108//83 72//82 176//188 177//187
f 163//173 106//62 108//83 177//187
f 168//178 178//189 73//85 109//84
f 59//67 166//175 168//178 109//84
f 180//190 179//191 110//88 111//87
f 11//14 127//135 180//190 111//87
f 182//192 181//193 179//191 180//190
f 127//135 128//134 182//192 180//190
f 184//194 183//195 181//193 182//192
f 128//134 185//196 184//194 182//192
f 124//197 125//198 184//198 185//197
f 186//199 126//132 124//197 185//197
f 128//134 129//133 186//200 185//196
f 84//101 83//100 126//132 186//199
f 129//133 100//12 84//102 186//200
f 85//103 123//126 126//132 83//100
f 112//104 122//127 123//126 85//103
f 113//106 187//201 122//127 112//104
f 114//108 188//202 187//201 113//106
f 114//108 73//85 178//189 188//202
f 190//203 189//204 187//201 188//202
f 178//189 191//205 190//203 188//202
f 178//189 168//178 169//177 191//205
f 193//206 192//207 190//203 191//205
f 169//177 170//180 193//206 191//205
f 195//208 194//209 192//209 193//208
f 170//182 172//182 195//208 193//208
f 197//210 196//211 194//212 195//213
f 172//185 174//184 197//210 195//213
f 199//214 198//215 196//211 197//210
f 174//184 176//188 199//214 197//210
f 116//123 115//122 198//215 199//214
f 176//188 72//82 116//123 199//214
f 110//88 179//191 198//215 115//122
f 179//191 181//193 196//211 198//215
f 181//193 183//195 194//212 196//211
f 183//216 200//216 192//209 194//209
f 189//204 190//203 192//207 200//217
f 125//130 121//128 189//204 200//217
f 183//216 184//198 125//198 200//216
f 121//128 122//127 187//201 189//204
f 131//138 132//137 139//149 140//148
