# pilowlava3D glyph 'i' variant 1 — Vincent Wagner / Velvetyne, Free Art License
v 0.83734 2.68700 -0.34703
v 1.50056 4.33235 -0.38815
v 0.11732 3.00602 -0.15094
v 0.09778 3.25947 -0.24846
v 0.59771 3.08731 -0.34313
v 0.45518 3.06586 -0.30993
v 1.63603 2.84718 -0.32110
v 1.79357 3.82431 -0.34102
v 1.79339 0.43338 -0.30509
v 1.66801 0.77857 -0.29970
v 0.73694 2.85214 -0.23616
v 0.77534 2.88366 -0.32125
v 0.95029 2.80353 -0.38817
v 1.12006 2.62407 -0.49048
v 1.01580 2.45140 -0.49030
v 0.77845 2.48142 -0.31344
v 1.18950 2.75682 -0.45512
v 1.53922 4.44470 -0.23330
v 1.76605 4.31070 -0.24013
v 1.63856 4.21055 -0.42524
v 1.47343 4.12042 -0.50064
v 1.34547 4.30699 -0.41407
v 1.28789 4.46061 -0.23077
v 0.11115 2.99029 -0.00000
v 0.27428 2.98287 -0.00000
v 0.00000 3.08843 -0.00000
v 0.02003 3.09129 -0.16499
v 0.12601 3.13789 -0.30688
v 0.22730 3.02279 -0.22621
v 0.22292 3.37102 -0.30739
v 0.30025 3.24271 -0.40117
v 0.04899 3.25981 -0.13842
v 0.18958 3.43160 -0.16032
v 0.66038 3.00061 -0.29081
v 0.63666 2.97846 -0.22705
v 0.57320 3.20730 -0.40904
v 0.68186 3.16459 -0.30398
v 0.69166 3.02107 -0.25912
v 0.44152 3.34700 -0.44200
v 1.45212 2.88619 -0.34780
v 1.44893 2.98187 -0.18559
v 1.69455 2.89893 -0.19241
v 1.81255 2.62564 -0.21396
v 1.68008 2.65601 -0.37239
v 1.45490 2.71886 -0.45283
v 1.87824 3.80384 -0.20624
v 1.73976 3.61509 -0.20636
v 1.67703 3.72357 -0.37727
v 1.76557 4.00062 -0.39646
v 1.89256 4.06473 -0.22619
v 1.59657 3.91561 -0.48945
v 1.85639 0.41165 -0.18049
v 1.72874 0.23149 -0.18785
v 1.67990 0.33323 -0.34358
v 1.59991 0.53052 -0.42138
v 1.77666 0.61726 -0.34153
v 1.85612 0.65672 -0.17749
v 1.68817 0.83367 -0.17300
v 1.51169 0.72912 -0.34341
v 1.47842 0.82575 -0.18134
v 1.47209 0.85657 -0.00000
v 1.69974 0.85210 -0.00000
v 1.34055 0.64422 -0.36397
v 1.29782 0.75177 -0.18943
v 1.13432 0.66827 -0.19241
v 0.35367 0.25620 -0.00000
v 0.57319 0.08868 -0.00000
v 0.22724 0.50070 -0.00000
v 0.24049 0.50827 -0.16953
v 0.36438 0.27383 -0.17970
v 0.21804 0.76082 -0.16885
v 0.25980 0.75909 -0.28275
v 0.28317 0.53199 -0.28765
v 0.26389 0.99363 -0.17843
v 0.31120 0.97394 -0.30471
v 0.38993 0.94385 -0.35103
v 0.32874 0.75185 -0.32809
v 0.33565 1.19719 -0.18919
v 0.39396 1.16757 -0.32997
v 0.48489 1.12313 -0.37797
v 0.57674 1.07648 -0.32647
v 0.46906 0.91425 -0.30628
v 0.47739 1.35563 -0.34951
v 0.59026 1.29980 -0.40209
v 0.69662 1.23852 -0.34040
v 0.76166 1.20085 -0.18882
v 0.63720 1.05017 -0.18536
v 0.69323 1.47368 -0.42117
v 0.81814 1.40143 -0.34951
v 0.88948 1.35583 -0.19072
v 0.91894 1.33200 -0.00000
v 0.78951 1.18235 -0.00000
v 0.93764 1.56596 -0.36160
v 1.01710 1.51438 -0.19508
v 1.14320 1.67525 -0.20250
v 1.85368 2.61775 -0.00000
v 1.71021 2.35170 -0.21861
v 1.71911 2.90996 -0.00000
v 1.21815 2.96504 -0.18833
v 1.01483 2.94474 -0.17446
v 0.82973 2.94946 -0.15949
v 0.99720 2.88874 -0.32444
v 0.81247 2.91962 -0.27567
v 0.72231 3.03234 -0.15691
v 0.73402 3.03421 -0.00000
v 0.74435 3.15335 -0.15956
v 1.03022 3.27901 -0.00000
v 0.85662 3.24369 -0.17366
v 1.01405 3.31884 -0.19086
v 0.80023 3.31065 -0.33356
v 0.96778 3.40739 -0.36477
v 1.14584 3.49235 -0.38167
v 1.18529 3.39069 -0.19915
v 1.20312 3.34087 -0.00000
v 1.36390 3.45492 -0.20340
v 1.38076 3.40293 -0.00000
v 0.43979 3.75018 -0.00000
v 0.32900 3.57056 -0.18533
v 0.03661 3.26816 -0.00000
v 0.47398 3.71537 -0.19529
v 0.53419 3.63861 -0.36461
v 0.37083 3.49308 -0.34557
v 0.61800 3.51676 -0.46837
v 0.69500 3.78807 -0.38718
v 0.79101 3.66494 -0.49724
v 0.89137 3.52488 -0.48287
v 0.71096 3.39582 -0.44906
v 0.96832 3.80569 -0.51874
v 1.07510 3.63947 -0.50807
v 1.13635 3.93521 -0.52896
v 1.25345 3.74173 -0.51936
v 1.32436 3.56844 -0.39291
v 1.42352 3.82917 -0.51640
v 1.50249 3.63764 -0.39514
v 1.55003 3.51557 -0.20467
v 1.76743 3.58649 -0.00000
v 0.75791 4.02097 -0.21413
v 0.61791 3.86898 -0.20608
v 0.85082 3.93787 -0.40415
v 0.89125 4.19181 -0.22223
v 0.99633 4.09486 -0.41595
v 1.05685 4.36468 -0.23179
v 1.15800 4.22877 -0.42453
v 1.30031 4.03894 -0.52587
v 1.03025 4.40953 -0.00000
v 1.28307 4.51035 -0.00000
v 1.91124 3.80055 -0.00000
v 1.21420 2.88155 -0.35447
v 1.54669 2.15690 -0.22058
v 1.43175 2.24440 -0.41170
v 1.58018 2.42444 -0.39753
v 1.25269 2.36209 -0.51345
v 1.38036 2.53595 -0.49480
v 1.29594 2.07628 -0.40784
v 1.12669 2.18036 -0.50342
v 0.91571 2.26621 -0.46769
v 1.00887 2.00019 -0.48546
v 0.81625 2.08456 -0.44064
v 0.65417 2.13307 -0.25247
v 0.71674 2.31085 -0.28046
v 0.62209 2.32827 -0.00000
v 0.66146 2.49697 -0.00000
v 0.70390 2.68374 -0.00000
v 0.71426 2.83434 -0.00000
v 0.62260 2.95844 -0.00000
v 0.66324 1.03765 -0.00000
v 0.52352 0.90060 -0.17582
v 0.44390 0.75242 -0.16399
v 0.39744 0.74942 -0.28118
v 0.45624 0.60635 -0.16208
v 0.41321 0.58700 -0.27953
v 0.34647 0.55935 -0.33045
v 0.50983 0.47331 -0.29836
v 0.45528 0.40009 -0.35597
v 0.40295 0.33001 -0.31181
v 0.63094 0.31240 -0.38667
v 0.60446 0.19855 -0.33821
v 0.58081 0.11423 -0.19095
v 0.83830 0.14528 -0.35829
v 0.82914 0.04287 -0.19898
v 0.82467 0.01030 -0.00000
v 1.07410 0.03999 -0.20119
v 1.74461 0.20594 -0.00000
v 1.88197 0.41208 -0.00000
v 1.52919 0.12247 -0.19748
v 1.49386 0.24287 -0.36640
v 1.30476 0.06652 -0.20044
v 1.28677 0.18339 -0.37163
v 1.24075 0.37747 -0.43928
v 1.42319 0.44589 -0.43689
v 1.06800 0.15034 -0.36839
v 1.04328 0.32784 -0.43022
v 1.00242 0.50123 -0.36132
v 1.17481 0.56690 -0.36532
v 0.84075 0.29901 -0.41344
v 0.82715 0.44471 -0.35208
v 0.81415 0.53919 -0.18814
v 0.97237 0.60010 -0.19435
v 0.65220 0.42693 -0.32709
v 0.66515 0.50301 -0.17526
v 0.80885 0.57548 -0.00000
v 0.54168 0.51757 -0.16644
v 0.46983 0.61280 -0.00000
v 0.36646 1.40323 -0.00000
v 0.30857 1.21045 -0.00000
v 0.42221 1.59346 -0.00000
v 0.46329 1.58036 -0.20414
v 0.40108 1.39025 -0.19727
v 0.52916 1.76763 -0.21506
v 0.63819 1.72331 -0.38426
v 0.55587 1.54211 -0.36432
v 0.59373 1.95144 -0.23252
v 0.72513 1.90294 -0.41215
v 0.89991 1.82046 -0.46598
v 0.79569 1.64503 -0.44158
v 1.05378 1.73531 -0.37749
v 1.17078 1.90636 -0.39193
v 1.27012 1.83556 -0.21036
v 1.40376 1.99493 -0.21787
v 1.87273 0.66810 -0.00000
v 1.28395 0.78882 -0.00000
v 1.11772 0.71060 -0.00000
v 0.20236 0.76164 -0.00000
v 0.24433 1.00330 -0.00000
v 1.05009 1.48683 -0.00000
v 1.18190 1.64230 -0.00000
v 1.75805 2.32636 -0.00000
v 1.45312 3.00823 -0.00000
v 1.21606 2.99775 -0.00000
v 1.01869 2.97337 -0.00000
v 0.83337 2.96364 -0.00000
v 0.75475 3.14235 -0.00000
v 0.87022 3.21922 -0.00000
v 0.30527 3.60196 -0.00000
v 0.17626 3.45395 -0.00000
v 1.57018 3.47015 -0.00000
v 0.71374 4.05982 -0.00000
v 0.57668 3.90550 -0.00000
v 0.85155 4.23122 -0.00000
v 1.55907 4.48621 -0.00000
v 1.79907 4.33962 -0.00000
v 1.92813 4.08145 -0.00000
v 1.59672 2.12045 -0.00000
v 0.57850 2.14981 -0.00000
v 0.44675 2.98455 -0.00000
v 0.54694 0.89513 -0.00000
v 0.46081 0.75289 -0.00000
v 1.07300 0.00000 -0.00000
v 1.53909 0.08801 -0.00000
v 1.30939 0.02580 -0.00000
v 0.66867 0.52702 -0.00000
v 0.54933 0.53186 -0.00000
v 0.47909 1.78283 -0.00000
v 0.53114 1.96781 -0.00000
v 1.31413 1.79813 -0.00000
v 1.45040 1.95525 -0.00000
v 0.95888 0.64129 -0.00000
v 0.83734 2.68700 0.34703
v 1.50056 4.33235 0.38815
v 0.11732 3.00602 0.15094
v 0.09778 3.25947 0.24846
v 0.59771 3.08731 0.34313
v 0.45518 3.06586 0.30993
v 1.63603 2.84718 0.32110
v 1.79357 3.82431 0.34102
v 1.79339 0.43338 0.30509
v 1.66801 0.77857 0.29970
v 0.73694 2.85214 0.23616
v 0.77534 2.88366 0.32125
v 0.95029 2.80353 0.38817
v 1.12006 2.62407 0.49048
v 1.01580 2.45140 0.49030
v 0.77845 2.48142 0.31344
v 1.18950 2.75682 0.45512
v 1.53922 4.44470 0.23330
v 1.76605 4.31070 0.24013
v 1.63856 4.21055 0.42524
v 1.47343 4.12042 0.50064
v 1.34547 4.30699 0.41407
v 1.28789 4.46061 0.23077
v 0.02003 3.09129 0.16499
v 0.12601 3.13789 0.30688
v 0.22730 3.02279 0.22621
v 0.22292 3.37102 0.30739
v 0.30025 3.24271 0.40117
v 0.04899 3.25981 0.13842
v 0.18958 3.43160 0.16032
v 0.66038 3.00061 0.29081
v 0.63666 2.97846 0.22705
v 0.57320 3.20730 0.40904
v 0.68186 3.16459 0.30398
v 0.69166 3.02107 0.25912
v 0.44152 3.34700 0.44200
v 1.45212 2.88619 0.34780
v 1.44893 2.98187 0.18559
v 1.69455 2.89893 0.19241
v 1.81255 2.62564 0.21396
v 1.68008 2.65601 0.37239
v 1.45490 2.71886 0.45283
v 1.87824 3.80384 0.20624
v 1.73976 3.61509 0.20636
v 1.67703 3.72357 0.37727
v 1.76557 4.00062 0.39646
v 1.89256 4.06473 0.22619
v 1.59657 3.91561 0.48945
v 1.85639 0.41165 0.18049
v 1.72874 0.23149 0.18785
v 1.67990 0.33323 0.34358
v 1.59991 0.53052 0.42138
v 1.77666 0.61726 0.34153
v 1.85612 0.65672 0.17749
v 1.68817 0.83367 0.17300
v 1.51169 0.72912 0.34341
v 1.47842 0.82575 0.18134
v 1.34055 0.64422 0.36397
v 1.29782 0.75177 0.18943
v 1.13432 0.66827 0.19241
v 0.24049 0.50827 0.16953
v 0.36438 0.27383 0.17970
v 0.21804 0.76082 0.16885
v 0.25980 0.75909 0.28275
v 0.28317 0.53199 0.28765
v 0.26389 0.99363 0.17843
v 0.31120 0.97394 0.30471
v 0.38993 0.94385 0.35103
v 0.32874 0.75185 0.32809
v 0.33565 1.19719 0.18919
v 0.39396 1.16757 0.32997
v 0.48489 1.12313 0.37797
v 0.57674 1.07648 0.32647
v 0.46906 0.91425 0.30628
v 0.47739 1.35563 0.34951
v 0.59026 1.29980 0.40209
v 0.69662 1.23852 0.34040
v 0.76166 1.20085 0.18882
v 0.63720 1.05017 0.18536
v 0.69323 1.47368 0.42117
v 0.81814 1.40143 0.34951
v 0.88948 1.35583 0.19072
v 0.93764 1.56596 0.36160
v 1.01710 1.51438 0.19508
v 1.14320 1.67525 0.20250
v 1.71021 2.35170 0.21861
v 1.21815 2.96504 0.18833
v 1.01483 2.94474 0.17446
v 0.82973 2.94946 0.15949
v 0.99720 2.88874 0.32444
v 0.81247 2.91962 0.27567
v 0.72231 3.03234 0.15691
v 0.74435 3.15335 0.15956
v 0.85662 3.24369 0.17366
v 1.01405 3.31884 0.19086
v 0.80023 3.31065 0.33356
v 0.96778 3.40739 0.36477
v 1.14584 3.49235 0.38167
v 1.18529 3.39069 0.19915
v 1.36390 3.45492 0.20340
v 0.32900 3.57056 0.18533
v 0.47398 3.71537 0.19529
v 0.53419 3.63861 0.36461
v 0.37083 3.49308 0.34557
v 0.61800 3.51676 0.46837
v 0.69500 3.78807 0.38718
v 0.79101 3.66494 0.49724
v 0.89137 3.52488 0.48287
v 0.71096 3.39582 0.44906
v 0.96832 3.80569 0.51874
v 1.07510 3.63947 0.50807
v 1.13635 3.93521 0.52896
v 1.25345 3.74173 0.51936
v 1.32436 3.56844 0.39291
v 1.42352 3.82917 0.51640
v 1.50249 3.63764 0.39514
v 1.55003 3.51557 0.20467
v 0.75791 4.02097 0.21413
v 0.61791 3.86898 0.20608
v 0.85082 3.93787 0.40415
v 0.89125 4.19181 0.22223
v 0.99633 4.09486 0.41595
v 1.05685 4.36468 0.23179
v 1.15800 4.22877 0.42453
v 1.30031 4.03894 0.52587
v 1.21420 2.88155 0.35447
v 1.54669 2.15690 0.22058
v 1.43175 2.24440 0.41170
v 1.58018 2.42444 0.39753
v 1.25269 2.36209 0.51345
v 1.38036 2.53595 0.49480
v 1.29594 2.07628 0.40784
v 1.12669 2.18036 0.50342
v 0.91571 2.26621 0.46769
v 1.00887 2.00019 0.48546
v 0.81625 2.08456 0.44064
v 0.65417 2.13307 0.25247
v 0.71674 2.31085 0.28046
v 0.52352 0.90060 0.17582
v 0.44390 0.75242 0.16399
v 0.39744 0.74942 0.28118
v 0.45624 0.60635 0.16208
v 0.41321 0.58700 0.27953
v 0.34647 0.55935 0.33045
v 0.50983 0.47331 0.29836
v 0.45528 0.40009 0.35597
v 0.40295 0.33001 0.31181
v 0.63094 0.31240 0.38667
v 0.60446 0.19855 0.33821
v 0.58081 0.11423 0.19095
v 0.83830 0.14528 0.35829
v 0.82914 0.04287 0.19898
v 1.07410 0.03999 0.20119
v 1.52919 0.12247 0.19748
v 1.49386 0.24287 0.36640
v 1.30476 0.06652 0.20044
v 1.28677 0.18339 0.37163
v 1.24075 0.37747 0.43928
v 1.42319 0.44589 0.43689
v 1.06800 0.15034 0.36839
v 1.04328 0.32784 0.43022
v 1.00242 0.50123 0.36132
v 1.17481 0.56690 0.36532
v 0.84075 0.29901 0.41344
v 0.82715 0.44471 0.35208
v 0.81415 0.53919 0.18814
v 0.97237 0.60010 0.19435
v 0.65220 0.42693 0.32709
v 0.66515 0.50301 0.17526
v 0.54168 0.51757 0.16644
v 0.46329 1.58036 0.20414
v 0.40108 1.39025 0.19727
v 0.52916 1.76763 0.21506
v 0.63819 1.72331 0.38426
v 0.55587 1.54211 0.36432
v 0.59373 1.95144 0.23252
v 0.72513 1.90294 0.41215
v 0.89991 1.82046 0.46598
v 0.79569 1.64503 0.44158
v 1.05378 1.73531 0.37749
v 1.17078 1.90636 0.39193
v 1.27012 1.83556 0.21036
v 1.40376 1.99493 0.21787
vn -0.72421 0.02429 -0.68916
vn -0.80074 -0.42699 -0.42011
vn -0.66026 -0.41317 -0.62718
vn -0.28936 0.36289 -0.88577
vn -0.20732 0.17368 -0.96273
vn -0.33455 0.09806 -0.93726
vn -0.77131 0.19889 -0.60458
vn -0.08021 0.42880 -0.89983
vn 0.17995 0.65860 -0.73066
vn 0.26080 0.86853 -0.42147
vn 0.66400 0.61093 -0.43112
vn 0.41956 0.41614 -0.80672
vn 0.13996 0.25916 -0.95564
vn -0.06354 0.60303 -0.79518
vn -0.14830 0.88685 -0.43761
vn -0.55413 -0.73893 -0.38331
vn -0.65647 -0.75435 -0.00041
vn -0.26801 -0.63499 -0.72454
vn 0.01903 -0.99099 -0.13259
vn 0.04008 -0.98305 -0.17893
vn 0.03080 -0.99953 -0.00038
vn 0.00508 -0.99997 0.00499
vn -0.75865 0.32583 -0.56417
vn -0.63162 0.45904 -0.62477
vn -0.52423 0.27704 -0.80525
vn -0.74293 0.17518 -0.64604
vn -0.94285 0.15129 -0.29690
vn -0.87723 0.39099 -0.27858
vn -0.72917 0.62574 -0.27707
vn -0.18116 -0.75451 -0.63079
vn -0.45857 -0.67383 -0.57937
vn -0.51531 -0.76969 -0.37686
vn -0.12365 -0.92652 -0.35536
vn 0.60716 -0.32031 -0.72716
vn 0.81188 -0.08974 -0.57688
vn 0.63488 -0.07476 -0.76898
vn 0.35882 -0.06325 -0.93126
vn -0.05394 -0.35951 -0.93158
vn 0.11718 -0.30171 -0.94617
vn -0.10189 -0.50237 -0.85863
vn -0.03571 -0.29866 -0.95369
vn 0.48218 0.56821 -0.66681
vn 0.15283 0.70829 -0.68918
vn 0.12881 0.94001 -0.31590
vn 0.29860 0.90591 -0.30027
vn 0.85732 0.38313 -0.34383
vn 0.90740 0.04866 -0.41743
vn 0.59017 0.13161 -0.79648
vn 0.20300 0.31058 -0.92862
vn 0.69116 -0.28206 -0.66539
vn 0.87007 -0.32443 -0.37112
vn 0.60759 -0.69480 -0.38483
vn 0.48414 -0.48433 -0.72873
vn 0.63175 0.04929 -0.77361
vn 0.89831 0.17013 -0.40508
vn 0.34399 -0.11427 -0.93199
vn 0.72331 -0.24288 -0.64640
vn 0.90490 -0.28711 -0.31419
vn 0.62709 -0.69227 -0.35709
vn 0.47003 -0.43570 -0.76762
vn 0.20684 0.08213 -0.97492
vn 0.61990 0.23764 -0.74783
vn 0.88857 0.35152 -0.29475
vn 0.68276 0.60182 -0.41432
vn 0.71067 0.65026 -0.26853
vn 0.16966 0.38670 -0.90646
vn -0.08107 0.64238 -0.76208
vn -0.09954 0.89076 -0.44345
vn -0.19616 0.92081 -0.33710
vn -0.05328 0.95405 -0.29487
vn -0.18303 0.98311 -0.00055
vn -0.00634 0.99998 -0.00130
vn -0.22626 0.57663 -0.78505
vn -0.36879 0.84881 -0.37882
vn -0.39733 0.91768 0.00011
vn -0.37880 0.84222 -0.38365
vn -0.41592 0.90940 -0.00003
vn -0.95945 -0.28187 -0.00008
vn -0.93211 -0.27245 -0.23865
vn -0.73404 -0.61789 -0.28179
vn -0.76361 -0.64567 -0.00009
vn -0.99901 0.04455 0.00006
vn -0.97270 0.04507 -0.22765
vn -0.77379 0.02681 -0.63288
vn -0.73787 -0.19564 -0.64596
vn -0.96927 0.24602 0.00011
vn -0.93663 0.24392 -0.25144
vn -0.73229 0.16455 -0.66082
vn -0.48793 0.07178 -0.86993
vn -0.53591 0.00615 -0.84425
vn -0.90678 0.30447 -0.29164
vn -0.68090 0.21047 -0.70148
vn -0.42849 0.09634 -0.89840
vn 0.34091 -0.32521 -0.88206
vn 0.55936 -0.47113 -0.68202
vn 0.62801 -0.42853 -0.64959
vn 0.40940 -0.31153 -0.85752
vn -0.64155 0.20384 -0.73950
vn -0.38151 0.09842 -0.91911
vn 0.33610 -0.31093 -0.88902
vn 0.54455 -0.46201 -0.70001
vn 0.73145 -0.60780 -0.30911
vn 0.74727 -0.60228 -0.28079
vn 0.33649 -0.30387 -0.89131
vn 0.53795 -0.44997 -0.71284
vn 0.72815 -0.59824 -0.33454
vn 0.76652 -0.64222 0.00004
vn 0.76237 -0.64714 0.00010
vn 0.52864 -0.44470 -0.72304
vn 0.72461 -0.58778 -0.35979
vn 0.77099 -0.63685 0.00000
vn 0.71685 -0.57954 -0.38762
vn 0.77125 -0.63654 0.00001
vn 0.94422 -0.32931 -0.00058
vn 0.87412 -0.48570 -0.00017
vn 0.78232 -0.43251 -0.44823
vn 0.91103 0.41234 0.00034
vn 0.33182 0.94334 -0.00098
vn 0.14039 0.99010 -0.00061
vn -0.06854 0.95067 -0.30254
vn -0.08710 0.99620 -0.00006
vn -0.06756 0.99772 0.00003
vn -0.04207 0.96750 -0.24936
vn 0.31704 0.92638 -0.20321
vn 0.30503 0.95234 0.00042
vn -0.03856 0.82684 -0.56112
vn 0.26018 0.79925 -0.54177
vn 0.50113 0.68703 -0.52617
vn 0.59498 0.78522 -0.17153
vn 0.59455 0.80406 0.00083
vn 0.98282 -0.18455 0.00015
vn 0.96685 -0.14282 -0.21168
vn 0.83947 -0.48012 -0.25452
vn 0.48794 -0.87288 -0.00013
vn 0.58611 -0.81023 -0.00060
vn 0.48895 -0.81745 -0.30447
vn 0.35297 -0.86462 -0.35756
vn 0.36958 -0.92920 0.00012
vn 0.43534 -0.67394 -0.59690
vn 0.29835 -0.71421 -0.63316
vn 0.27191 -0.69515 -0.66546
vn 0.32365 -0.86416 -0.38534
vn 0.34417 -0.93891 -0.00005
vn 0.30338 -0.86486 -0.39997
vn 0.32632 -0.94526 0.00009
vn -0.76521 0.64378 0.00030
vn -0.73299 0.68024 -0.00004
vn -0.68577 0.64727 -0.33279
vn -0.91060 0.41329 0.00008
vn -0.98126 0.19269 -0.00029
vn -0.73611 0.67687 -0.00016
vn -0.67898 0.63432 -0.36963
vn -0.55259 0.49362 -0.67156
vn -0.56626 0.49231 -0.66105
vn -0.44867 0.36504 -0.81575
vn -0.45693 0.33737 -0.82304
vn -0.54546 0.48389 -0.68434
vn -0.25774 0.12416 -0.95820
vn -0.01901 -0.17479 -0.98442
vn 0.10668 -0.39072 -0.91431
vn 0.18482 -0.39195 -0.90123
vn -0.22659 0.14006 -0.96387
vn 0.10161 -0.34284 -0.93388
vn -0.16185 0.15248 -0.97496
vn 0.11849 -0.29186 -0.94909
vn 0.25726 -0.66842 -0.69788
vn 0.17998 -0.22761 -0.95697
vn 0.30683 -0.61237 -0.72860
vn 0.37108 -0.83576 -0.40472
vn 0.66977 -0.74257 -0.00105
vn 0.40555 -0.91407 -0.00036
vn -0.74483 0.66726 -0.00004
vn -0.76645 0.64231 -0.00004
vn -0.69646 0.58817 -0.41111
vn -0.68203 0.61637 -0.39360
vn -0.52814 0.45950 -0.71410
vn -0.67716 0.59866 -0.42785
vn -0.47038 0.44976 -0.75925
vn -0.49445 0.74407 -0.44931
vn -0.30305 0.51630 -0.80100
vn -0.04640 0.19041 -0.98061
vn -0.75314 0.65786 0.00017
vn -0.55863 0.82942 0.00006
vn -0.15491 0.98793 0.00019
vn 0.30190 0.95334 0.00053
vn 0.73283 0.68041 0.00020
vn 0.98000 0.19899 -0.00006
vn 0.94354 -0.33127 -0.00068
vn 0.17737 0.64940 -0.73948
vn 0.37296 0.56117 -0.73891
vn -0.03624 0.77328 -0.63303
vn 0.76289 -0.64653 0.00013
vn 0.68793 -0.57630 -0.44118
vn 0.49497 -0.38500 -0.77896
vn 0.54113 -0.24311 -0.80503
vn 0.13597 -0.10762 -0.98485
vn 0.19462 0.02389 -0.98059
vn 0.48790 -0.42717 -0.76123
vn 0.08405 -0.15806 -0.98385
vn -0.42650 0.08941 -0.90006
vn 0.05569 -0.16060 -0.98545
vn -0.49114 0.11194 -0.86386
vn -0.83565 0.23693 -0.49553
vn -0.80818 0.21687 -0.54755
vn -0.96408 0.26561 0.00002
vn -0.96629 0.25744 -0.00003
vn -0.97162 0.23656 -0.00012
vn -0.99972 0.02245 -0.00686
vn -0.91592 -0.40131 -0.00682
vn -0.55839 -0.82958 0.00215
vn -0.10258 -0.99472 -0.00075
vn 0.77252 -0.63500 -0.00003
vn 0.82728 -0.56179 0.00001
vn 0.80778 -0.53373 -0.25027
vn 0.97496 -0.22239 0.00019
vn 0.94832 -0.20592 -0.24143
vn 0.75376 -0.16064 -0.63721
vn 0.88370 0.39948 -0.24390
vn 0.69389 0.32641 -0.64186
vn 0.48969 0.24405 -0.83704
vn 0.53090 -0.12031 -0.83885
vn 0.33793 0.66899 -0.66202
vn 0.22013 0.47331 -0.85295
vn -0.51900 -0.11517 -0.84698
vn -0.40366 -0.25360 -0.87906
vn -0.57147 -0.43404 -0.69644
vn -0.23501 -0.33023 -0.91418
vn -0.32929 -0.57799 -0.74665
vn -0.42816 -0.84249 -0.32693
vn -0.11506 -0.61776 -0.77790
vn -0.14527 -0.92182 -0.35938
vn -0.16001 -0.98712 -0.00001
vn -0.45298 -0.89152 0.00000
vn 0.04551 -0.92448 -0.37850
vn 0.04214 -0.99911 -0.00008
vn 0.67657 -0.73638 0.00037
vn 0.95822 -0.28603 0.00074
vn 0.37567 -0.92676 -0.00001
vn 0.35247 -0.84962 -0.39231
vn 0.25621 -0.53735 -0.80350
vn 0.18281 -0.98315 0.00005
vn 0.17539 -0.90376 -0.39046
vn 0.12641 -0.58650 -0.80002
vn -0.02771 0.00563 -0.99960
vn 0.04136 0.02226 -0.99890
vn 0.02630 -0.61198 -0.79043
vn -0.07398 0.00687 -0.99724
vn -0.23921 0.59942 -0.76386
vn -0.24761 0.57665 -0.77856
vn -0.09137 -0.33983 -0.93604
vn -0.13600 0.38859 -0.91132
vn -0.20636 0.64451 -0.73622
vn -0.29715 0.89319 -0.33751
vn -0.35111 0.85966 -0.37109
vn -0.03671 0.46839 -0.88276
vn -0.03406 0.71644 -0.69682
vn -0.06821 0.95371 -0.29289
vn -0.10791 0.99416 -0.00007
vn -0.33635 0.94174 -0.00019
vn 0.42928 0.86469 -0.26084
vn 0.07484 0.99720 0.00053
vn 0.71587 0.69823 -0.00010
vn 0.91171 0.41084 0.00004
vn -0.95445 0.29837 -0.00001
vn -0.88200 0.28713 -0.37368
vn -0.89579 0.29295 -0.33427
vn -0.95488 0.29699 0.00002
vn -0.95486 0.29705 -0.00004
vn -0.86802 0.27836 -0.41116
vn -0.57881 0.16027 -0.79956
vn -0.60750 0.18726 -0.77193
vn -0.96006 0.27980 -0.00010
vn -0.85484 0.25678 -0.45091
vn -0.54286 0.13241 -0.82932
vn 0.02896 -0.15577 -0.98737
vn -0.31990 0.04574 -0.94635
vn 0.33201 -0.31103 -0.89052
vn -0.34679 0.08076 -0.93446
vn 0.52132 -0.43505 -0.73414
vn 0.50446 -0.43239 -0.74736
vn 0.69969 -0.58306 -0.41288
vn 0.76393 -0.64529 -0.00000
vn 0.68216 -0.59119 -0.43030
vn 0.75284 -0.65820 0.00000
vn -0.95200 0.30609 0.00006
vn -0.38842 0.92148 0.00013
vn 0.99981 0.01928 0.00052
vn 0.72620 0.68748 -0.00008
vn -0.29366 0.38427 0.87527
vn -0.69521 -0.33380 0.63660
vn -0.83052 -0.36685 0.41910
vn -0.73152 0.06346 0.67886
vn -0.77209 0.19345 0.60535
vn -0.33348 0.09459 0.93800
vn -0.20592 0.15579 0.96609
vn -0.07941 0.41490 0.90640
vn 0.41839 0.42062 0.80501
vn 0.66236 0.61139 0.43299
vn 0.26146 0.86580 0.42664
vn 0.18219 0.65841 0.73028
vn -0.05842 0.60376 0.79502
vn 0.14165 0.26404 0.95405
vn -0.14544 0.88510 0.44209
vn -0.55167 -0.74951 0.36591
vn -0.38347 -0.87230 0.30340
vn -0.13467 -0.87254 0.46961
vn -0.27525 -0.65167 0.70680
vn -0.73151 0.19928 0.65206
vn -0.52348 0.27672 0.80585
vn -0.63253 0.45408 0.62747
vn -0.74976 0.33563 0.57027
vn -0.87212 0.39794 0.28470
vn -0.93611 0.17575 0.30464
vn -0.73108 0.62200 0.28044
vn -0.18780 -0.92146 0.34005
vn -0.55202 -0.75150 0.36127
vn -0.52057 -0.65621 0.54625
vn -0.32269 -0.74203 0.58759
vn 0.46511 -0.29272 0.83546
vn 0.64161 -0.14456 0.75328
vn 0.81542 -0.13741 0.56232
vn 0.62746 -0.40403 0.66562
vn 0.16691 -0.40217 0.90022
vn 0.01100 -0.49272 0.87012
vn -0.11484 -0.51514 0.84938
vn -0.04422 -0.31067 0.94949
vn 0.30043 0.90477 0.30190
vn 0.12953 0.93972 0.31646
vn 0.15680 0.71098 0.68550
vn 0.47848 0.57574 0.66301
vn 0.59161 0.13902 0.79415
vn 0.90575 0.05062 0.42078
vn 0.85237 0.38815 0.35043
vn 0.21000 0.31421 0.92584
vn 0.48775 -0.48178 0.72800
vn 0.60876 -0.69240 0.38728
vn 0.86884 -0.32279 0.37540
vn 0.69200 -0.28074 0.66507
vn 0.89781 0.16799 0.40709
vn 0.63379 0.04554 0.77216
vn 0.34794 -0.11583 0.93033
vn 0.47203 -0.43055 0.76930
vn 0.62908 -0.68787 0.36208
vn 0.90552 -0.28058 0.31828
vn 0.72480 -0.23515 0.64759
vn 0.61856 0.24156 0.74768
vn 0.20944 0.08355 0.97425
vn 0.88646 0.35436 0.29767
vn 0.70497 0.65411 0.27414
vn 0.67023 0.60835 0.42509
vn -0.07251 0.64097 0.76413
vn 0.17134 0.39558 0.90231
vn -0.03878 0.95188 0.30401
vn -0.18913 0.92044 0.34209
vn -0.06930 0.88353 0.46323
vn -0.36898 0.84871 0.37886
vn -0.22626 0.57645 0.78518
vn -0.37886 0.84217 0.38369
vn -0.73404 -0.61800 0.28155
vn -0.93213 -0.27297 0.23797
vn -0.97278 0.04518 0.22730
vn -0.73803 -0.19583 0.64573
vn -0.77372 0.02630 0.63298
vn -0.93681 0.24329 0.25138
vn -0.73213 0.16420 0.66108
vn -0.53508 0.00468 0.84479
vn -0.48702 0.07152 0.87046
vn -0.68158 0.20908 0.70124
vn -0.90721 0.30312 0.29168
vn -0.42906 0.09625 0.89813
vn 0.40641 -0.30654 0.86073
vn 0.62717 -0.42674 0.65158
vn 0.55964 -0.46989 0.68265
vn 0.34095 -0.32424 0.88240
vn -0.38256 0.09587 0.91894
vn -0.64220 0.20224 0.73937
vn 0.54455 -0.46191 0.70007
vn 0.33615 -0.31091 0.88901
vn 0.74753 -0.60175 0.28123
vn 0.73151 -0.60763 0.30931
vn 0.53803 -0.44992 0.71281
vn 0.33659 -0.30371 0.89133
vn 0.72812 -0.59828 0.33452
vn 0.72497 -0.58732 0.35984
vn 0.52900 -0.44419 0.72309
vn 0.71703 -0.57935 0.38759
vn 0.78235 -0.43256 0.44813
vn -0.07018 0.95098 0.30120
vn -0.04174 0.96759 0.24905
vn 0.31871 0.92569 0.20376
vn 0.26824 0.79425 0.54517
vn -0.03215 0.82437 0.56514
vn 0.59476 0.78540 0.17150
vn 0.50085 0.68793 0.52527
vn 0.83754 -0.48242 0.25650
vn 0.96641 -0.15398 0.20579
vn 0.48921 -0.81537 0.30960
vn 0.35338 -0.86455 0.35733
vn 0.29790 -0.71613 0.63119
vn 0.43432 -0.67108 0.60084
vn 0.32369 -0.86407 0.38549
vn 0.27120 -0.69604 0.66482
vn 0.30338 -0.86474 0.40022
vn -0.68565 0.64725 0.33309
vn -0.67932 0.63397 0.36960
vn -0.56664 0.49215 0.66084
vn -0.55279 0.49393 0.67115
vn -0.45746 0.33836 0.82234
vn -0.44925 0.36606 0.81497
vn -0.25832 0.12403 0.95806
vn -0.54604 0.48363 0.68407
vn 0.18277 -0.39375 0.90086
vn 0.10647 -0.39288 0.91340
vn -0.02235 -0.17652 0.98404
vn 0.10118 -0.34371 0.93361
vn -0.22555 0.14163 0.96388
vn 0.11871 -0.29212 0.94899
vn -0.16033 0.15516 0.97479
vn 0.25725 -0.66863 0.69768
vn 0.30688 -0.61260 0.72838
vn 0.18049 -0.22740 0.95693
vn 0.37065 -0.83624 0.40414
vn -0.68218 0.61626 0.39352
vn -0.69644 0.58805 0.41130
vn -0.52756 0.46017 0.71409
vn -0.46908 0.45046 0.75964
vn -0.67758 0.59720 0.42923
vn -0.30183 0.51581 0.80177
vn -0.49453 0.74284 0.45125
vn -0.04565 0.19179 0.98037
vn 0.18777 0.64031 0.74481
vn 0.37265 0.56175 0.73862
vn -0.03629 0.77313 0.63321
vn 0.68797 -0.57584 0.44172
vn 0.54274 -0.24433 0.80358
vn 0.49455 -0.38445 0.77950
vn 0.19793 0.02250 0.97996
vn 0.13677 -0.10624 0.98489
vn 0.08427 -0.15753 0.98391
vn 0.48815 -0.42669 0.76134
vn -0.42682 0.09040 0.89981
vn -0.49076 0.11198 0.86407
vn 0.05577 -0.16040 0.98548
vn -0.80841 0.21740 0.54700
vn -0.83537 0.23727 0.49585
vn 0.80784 -0.53384 0.24982
vn 0.94832 -0.20634 0.24107
vn 0.75311 -0.15939 0.63830
vn 0.69548 0.32907 0.63877
vn 0.88360 0.39992 0.24356
vn 0.52876 -0.11610 0.84079
vn 0.49393 0.24885 0.83313
vn 0.22313 0.48700 0.84442
vn 0.33699 0.67788 0.65338
vn -0.57137 -0.43421 0.69642
vn -0.40313 -0.25375 0.87926
vn -0.51872 -0.11445 0.84725
vn -0.32858 -0.57872 0.74640
vn -0.23388 -0.33211 0.91378
vn -0.42817 -0.84243 0.32708
vn -0.14499 -0.92198 0.35906
vn -0.11411 -0.61856 0.77741
vn 0.04574 -0.92459 0.37821
vn 0.35234 -0.84954 0.39260
vn 0.25632 -0.53734 0.80347
vn 0.17544 -0.90365 0.39069
vn 0.12654 -0.58642 0.80007
vn 0.04204 0.02183 0.99888
vn -0.02762 0.00557 0.99960
vn 0.02652 -0.61218 0.79028
vn -0.07333 0.00661 0.99729
vn -0.24765 0.57662 0.77857
vn -0.23884 0.59948 0.76392
vn -0.09019 -0.34095 0.93575
vn -0.20616 0.64539 0.73551
vn -0.13797 0.39238 0.90940
vn -0.35106 0.85977 0.37088
vn -0.29686 0.89290 0.33853
vn -0.03696 0.72308 0.68977
vn -0.04047 0.48203 0.87522
vn -0.06945 0.95408 0.29138
vn 0.42743 0.86659 0.25753
vn -0.89586 0.29275 0.33427
vn -0.88193 0.28725 0.37374
vn -0.86798 0.27838 0.41124
vn -0.60750 0.18709 0.77197
vn -0.57868 0.16058 0.79959
vn -0.85532 0.25577 0.45058
vn -0.54307 0.13224 0.82921
vn -0.31996 0.04601 0.94631
vn 0.02914 -0.15560 0.98739
vn 0.33214 -0.31085 0.89054
vn -0.34690 0.08047 0.93445
vn 0.52139 -0.43499 0.73413
vn 0.50447 -0.43233 0.74740
vn 0.69970 -0.58306 0.41286
vn 0.68234 -0.59093 0.43036
f 1//1 11//2 12//3 13//4
f 1//1 14//5 15//6 16//7
f 1//1 13//4 17//8 14//5
f 2//9 18//10 19//11 20//12
f 2//9 20//12 21//13 22//14
f 2//9 22//14 23//15 18//10
f 3//16 24//17 26//17 27//16
f 3//16 27//16 28//18 29//18
f 3//19 29//20 25//21 24//22
f 4//23 30//24 31//25 28//26
f 4//23 28//26 27//27 32//28
f 4//23 32//28 33//29 30//24
f 5//30 34//31 35//32 6//33
f 37//34 38//35 34//36 5//37
f 5//37 6//38 36//39 37//34
f 6//38 29//18 28//18 31//40
f 6//38 31//40 39//41 36//39
f 7//42 40//43 41//44 42//45
f 7//42 42//46 43//47 44//48
f 7//42 44//48 45//49 40//43
f 8//50 46//51 47//52 48//53
f 8//50 49//54 50//55 46//51
f 8//50 48//53 51//56 49//54
f 9//57 52//58 53//59 54//60
f 9//57 54//60 55//61 56//62
f 9//57 56//62 57//63 52//58
f 10//64 58//65 57//63 56//62
f 10//66 56//62 55//61 59//67
f 10//68 59//67 60//69 58//70
f 60//69 61//71 62//72 58//70
f 60//69 59//67 63//73 64//74
f 60//69 64//74 221//75 61//71
f 221//75 64//74 65//76 222//77
f 68//78 69//79 70//80 66//81
f 68//78 223//82 71//83 69//79
f 71//83 72//84 73//85 69//79
f 71//83 223//82 224//86 74//87
f 71//83 74//87 75//88 72//84
f 75//88 76//89 77//90 72//84
f 75//88 74//87 78//91 79//92
f 75//88 79//92 80//93 76//89
f 80//94 81//95 82//96 76//97
f 80//93 79//92 83//98 84//99
f 80//94 84//100 85//101 81//95
f 85//101 86//102 87//103 81//95
f 85//101 84//100 88//104 89//105
f 85//101 89//105 90//106 86//102
f 90//106 91//107 92//108 86//102
f 90//106 89//105 93//109 94//110
f 90//106 94//110 225//111 91//107
f 225//111 94//110 95//112 226//113
f 96//114 227//115 97//116 43//47
f 96//117 43//47 42//46 98//117
f 98//118 42//45 41//44 228//119
f 228//119 41//44 99//120 229//121
f 230//122 229//121 99//120 100//123
f 230//122 100//123 101//124 231//125
f 101//124 100//123 102//126 103//127
f 101//124 103//127 38//128 104//129
f 101//124 104//129 105//130 231//125
f 105//131 104//132 106//133 232//131
f 233//134 232//135 106//133 108//136
f 233//134 108//136 109//137 107//138
f 109//137 108//136 110//139 111//140
f 109//137 111//140 112//141 113//142
f 109//137 113//142 114//143 107//138
f 114//143 113//142 115//144 116//145
f 235//146 234//147 118//148 33//29
f 235//146 33//29 32//28 119//149
f 119//149 32//28 27//27 26//150
f 118//148 234//147 117//151 120//152
f 118//148 120//152 121//153 122//154
f 118//148 122//154 30//24 33//29
f 122//154 121//153 123//155 39//156
f 122//154 39//156 31//25 30//24
f 123//155 121//153 124//157 125//158
f 123//159 125//158 126//160 127//161
f 123//159 127//161 36//39 39//41
f 127//161 126//160 111//140 110//139
f 127//161 110//139 37//34 36//39
f 126//160 125//158 128//162 129//163
f 126//160 129//163 112//141 111//140
f 129//163 128//162 130//164 131//165
f 129//163 131//165 132//166 112//141
f 132//166 131//165 133//167 134//168
f 132//166 134//168 135//169 115//144
f 132//166 115//144 113//142 112//141
f 135//169 134//168 48//53 47//52
f 135//169 47//52 136//170 236//171
f 135//169 236//171 116//145 115//144
f 238//172 237//173 137//174 138//175
f 238//172 138//175 120//152 117//151
f 138//175 137//174 139//176 124//157
f 138//175 124//157 121//153 120//152
f 139//176 137//174 140//177 141//178
f 139//176 141//178 130//164 128//162
f 139//176 128//162 125//158 124//157
f 141//178 140//177 142//179 143//180
f 141//178 143//180 144//181 130//164
f 144//181 143//180 22//14 21//13
f 144//181 21//13 51//56 133//167
f 144//181 133//167 131//165 130//164
f 143//180 142//179 23//15 22//14
f 142//179 140//177 239//182 145//183
f 142//179 145//183 146//184 23//15
f 146//184 240//185 18//10 23//15
f 240//185 241//186 19//11 18//10
f 241//186 242//187 50//55 19//11
f 242//187 147//188 46//51 50//55
f 147//188 136//170 47//52 46//51
f 239//182 140//177 137//174 237//173
f 134//168 133//167 51//56 48//53
f 110//139 108//136 106//133 37//34
f 106//133 104//132 38//35 37//34
f 103//127 102//126 13//4 12//189
f 103//127 12//189 34//190 38//128
f 102//126 148//191 17//8 13//4
f 102//126 100//123 99//120 148//191
f 148//191 40//43 45//49 17//8
f 148//191 99//120 41//44 40//43
f 97//116 227//115 243//192 149//193
f 97//116 149//193 150//194 151//195
f 97//116 151//195 44//48 43//47
f 151//195 150//194 152//196 153//197
f 151//195 153//197 45//49 44//48
f 153//197 152//196 15//6 14//5
f 153//197 14//5 17//8 45//49
f 152//196 150//194 154//198 155//199
f 152//196 155//199 156//200 15//6
f 156//200 155//199 157//201 158//202
f 156//200 158//202 159//203 160//204
f 156//200 160//204 16//7 15//6
f 160//204 159//203 244//205 161//206
f 160//204 161//206 162//207 16//7
f 162//207 163//208 1//1 16//7
f 163//208 164//209 11//2 1//1
f 164//209 165//210 35//32 11//2
f 165//210 245//211 6//33 35//32
f 245//211 25//21 29//20 6//33
f 166//212 246//213 167//214 87//103
f 166//212 87//103 86//102 92//108
f 167//214 246//213 247//215 168//216
f 167//214 168//216 169//217 82//96
f 167//214 82//96 81//95 87//103
f 169//217 168//216 170//218 171//219
f 169//217 171//219 172//220 77//221
f 169//217 77//221 76//97 82//96
f 172//220 171//219 173//222 174//223
f 172//224 174//225 175//226 73//85
f 172//224 73//85 72//84 77//90
f 175//226 174//225 176//227 177//228
f 175//226 177//228 178//229 70//80
f 175//226 70//80 69//79 73//85
f 178//229 177//228 179//230 180//231
f 178//229 180//231 181//232 67//233
f 178//229 67//233 66//81 70//80
f 181//232 180//231 182//234 248//235
f 183//236 53//59 52//58 184//237
f 183//236 249//238 185//239 53//59
f 185//239 186//240 54//60 53//59
f 185//239 249//238 250//241 187//242
f 185//239 187//242 188//243 186//240
f 188//243 189//244 190//245 186//240
f 188//243 187//242 182//234 191//246
f 188//243 191//246 192//247 189//244
f 192//247 193//248 194//249 189//244
f 192//247 191//246 179//230 195//250
f 192//247 195//251 196//252 193//248
f 196//252 197//253 198//254 193//248
f 196//252 195//251 176//255 199//256
f 196//252 199//256 200//257 197//253
f 200//257 251//258 201//259 197//253
f 200//257 199//256 173//222 202//260
f 200//257 202//260 252//261 251//258
f 252//262 202//260 170//218 203//263
f 206//264 207//265 208//266 204//267
f 206//264 253//268 209//269 207//265
f 209//269 210//270 211//271 207//265
f 209//269 253//268 254//272 212//273
f 209//269 212//273 213//274 210//270
f 213//274 214//275 215//276 210//270
f 213//274 212//273 159//203 158//202
f 213//274 158//202 157//201 214//275
f 215//277 93//109 89//105 88//104
f 215//276 88//278 211//271 210//270
f 215//277 214//275 216//279 93//109
f 216//279 95//112 94//110 93//109
f 216//279 214//275 157//201 217//280
f 216//279 217//280 218//281 95//112
f 218//281 255//282 226//113 95//112
f 218//281 217//280 154//198 219//283
f 218//281 219//283 256//284 255//282
f 256//284 219//283 149//193 243//192
f 219//283 154//198 150//194 149//193
f 217//280 157//201 155//199 154//198
f 212//273 254//272 244//205 159//203
f 211//271 88//278 84//99 83//98
f 211//271 83//98 208//266 207//265
f 208//266 83//98 79//92 78//91
f 208//266 78//91 205//285 204//267
f 205//285 78//91 74//87 224//86
f 203//263 170//218 168//216 247//215
f 202//260 173//222 171//219 170//218
f 201//259 257//286 198//254 197//253
f 199//256 176//255 174//223 173//222
f 198//254 257//286 222//77 65//76
f 198//254 65//76 194//249 193//248
f 195//250 179//230 177//228 176//227
f 194//249 65//76 64//74 63//73
f 194//249 63//73 190//245 189//244
f 191//246 182//234 180//231 179//230
f 190//245 63//73 59//67 55//61
f 190//245 55//61 54//60 186//240
f 187//242 250//241 248//235 182//234
f 184//237 52//58 57//63 220//287
f 220//288 57//63 58//65 62//288
f 51//56 21//13 20//12 49//54
f 50//55 49//54 20//12 19//11
f 35//32 34//31 12//3 11//2
f 270//289 269//290 268//291 258//292
f 273//293 272//294 271//295 258//292
f 271//295 274//296 270//289 258//292
f 277//297 276//298 275//299 259//300
f 279//301 278//302 277//297 259//300
f 275//299 280//303 279//301 259//300
f 281//304 26//17 24//17 260//305
f 283//306 282//307 281//304 260//305
f 24//22 25//21 283//306 260//305
f 282//308 285//309 284//310 261//311
f 286//312 281//313 282//308 261//311
f 284//310 287//314 286//312 261//311
f 263//315 289//316 288//317 262//318
f 262//319 288//320 292//321 291//322
f 291//322 290//323 263//324 262//319
f 285//325 282//307 283//306 263//324
f 290//323 293//326 285//325 263//324
f 296//327 295//328 294//329 264//330
f 298//331 297//332 296//333 264//330
f 294//329 299//334 298//331 264//330
f 302//335 301//336 300//337 265//338
f 300//337 304//339 303//340 265//338
f 303//340 305//341 302//335 265//338
f 308//342 307//343 306//344 266//345
f 310//346 309//347 308//342 266//345
f 306//344 311//348 310//346 266//345
f 310//346 311//348 312//349 267//350
f 313//351 309//347 310//346 267//352
f 312//353 314//354 313//351 267//355
f 312//353 62//72 61//71 314//354
f 316//356 315//357 313//351 314//354
f 61//71 221//75 316//356 314//354
f 222//77 317//358 316//356 221//75
f 66//81 319//359 318//360 68//78
f 318//360 320//361 223//82 68//78
f 318//360 322//362 321//363 320//361
f 323//364 224//86 223//82 320//361
f 321//363 324//365 323//364 320//361
f 321//363 326//366 325//367 324//365
f 328//368 327//369 323//364 324//365
f 325//367 329//370 328//368 324//365
f 325//371 331//372 330//373 329//374
f 333//375 332//376 328//368 329//370
f 330//373 334//377 333//378 329//374
f 330//373 336//379 335//380 334//377
f 338//381 337//382 333//378 334//377
f 335//380 339//383 338//381 334//377
f 335//380 92//108 91//107 339//383
f 341//384 340//385 338//381 339//383
f 91//107 225//111 341//384 339//383
f 226//113 342//386 341//384 225//111
f 297//332 343//387 227//115 96//114
f 98//117 296//333 297//332 96//117
f 228//119 295//328 296//327 98//118
f 229//121 344//388 295//328 228//119
f 345//389 344//388 229//121 230//122
f 231//125 346//390 345//389 230//122
f 348//391 347//392 345//389 346//390
f 349//393 292//394 348//391 346//390
f 231//125 105//130 349//393 346//390
f 232//131 350//395 349//396 105//131
f 351//397 350//395 232//135 233//134
f 107//138 352//398 351//397 233//134
f 354//399 353//400 351//397 352//398
f 356//401 355//402 354//399 352//398
f 107//138 114//143 356//401 352//398
f 116//145 357//403 356//401 114//143
f 287//314 358//404 234//147 235//146
f 119//149 286//312 287//314 235//146
f 26//150 281//313 286//312 119//149
f 359//405 117//151 234//147 358//404
f 361//406 360//407 359//405 358//404
f 287//314 284//310 361//406 358//404
f 293//408 362//409 360//407 361//406
f 284//310 285//309 293//408 361//406
f 364//410 363//411 360//407 362//409
f 366//412 365//413 364//410 362//414
f 293//326 290//323 366//412 362//414
f 353//400 354//399 365//413 366//412
f 290//323 291//322 353//400 366//412
f 368//415 367//416 364//410 365//413
f 354//399 355//402 368//415 365//413
f 370//417 369//418 367//416 368//415
f 355//402 371//419 370//417 368//415
f 373//420 372//421 370//417 371//419
f 357//403 374//422 373//420 371//419
f 355//402 356//401 357//403 371//419
f 301//336 302//335 373//420 374//422
f 236//171 136//170 301//336 374//422
f 357//403 116//145 236//171 374//422
f 376//423 375//424 237//173 238//172
f 117//151 359//405 376//423 238//172
f 363//411 377//425 375//424 376//423
f 359//405 360//407 363//411 376//423
f 379//426 378//427 375//424 377//425
f 367//416 369//418 379//426 377//425
f 363//411 364//410 367//416 377//425
f 381//428 380//429 378//427 379//426
f 369//418 382//430 381//428 379//426
f 278//302 279//301 381//428 382//430
f 372//421 305//341 278//302 382//430
f 369//418 370//417 372//421 382//430
f 279//301 280//303 380//429 381//428
f 145//183 239//182 378//427 380//429
f 280//303 146//184 145//183 380//429
f 280//303 275//299 240//185 146//184
f 275//299 276//298 241//186 240//185
f 276//298 304//339 242//187 241//186
f 304//339 300//337 147//188 242//187
f 300//337 301//336 136//170 147//188
f 237//173 375//424 378//427 239//182
f 302//335 305//341 372//421 373//420
f 291//322 350//395 351//397 353//400
f 291//322 292//321 349//396 350//395
f 269//431 270//289 347//392 348//391
f 292//394 288//432 269//431 348//391
f 270//289 274//296 383//433 347//392
f 383//433 344//388 345//389 347//392
f 274//296 299//334 294//329 383//433
f 294//329 295//328 344//388 383//433
f 384//434 243//192 227//115 343//387
f 386//435 385//436 384//434 343//387
f 297//332 298//331 386//435 343//387
f 388//437 387//438 385//436 386//435
f 298//331 299//334 388//437 386//435
f 271//295 272//294 387//438 388//437
f 299//334 274//296 271//295 388//437
f 390//439 389//440 385//436 387//438
f 272//294 391//441 390//439 387//438
f 393//442 392//443 390//439 391//441
f 395//444 394//445 393//442 391//441
f 272//294 273//293 395//444 391//441
f 161//206 244//205 394//445 395//444
f 273//293 162//207 161//206 395//444
f 273//293 258//292 163//208 162//207
f 258//292 268//291 164//209 163//208
f 268//291 289//316 165//210 164//209
f 289//316 263//315 245//211 165//210
f 263//315 283//306 25//21 245//211
f 336//379 396//446 246//213 166//212
f 92//108 335//380 336//379 166//212
f 397//447 247//215 246//213 396//446
f 331//372 398//448 397//447 396//446
f 336//379 330//373 331//372 396//446
f 400//449 399//450 397//447 398//448
f 326//451 401//452 400//449 398//448
f 331//372 325//371 326//451 398//448
f 403//453 402//454 400//449 401//452
f 322//362 404//455 403//456 401//457
f 326//366 321//363 322//362 401//457
f 406//458 405//459 403//456 404//455
f 319//359 407//460 406//458 404//455
f 322//362 318//360 319//359 404//455
f 409//461 408//462 406//458 407//460
f 67//233 181//232 409//461 407//460
f 319//359 66//81 67//233 407//460
f 248//235 410//463 409//461 181//232
f 184//237 306//344 307//343 183//236
f 307//343 411//464 249//238 183//236
f 307//343 308//342 412//465 411//464
f 413//466 250//241 249//238 411//464
f 412//465 414//467 413//466 411//464
f 412//465 416//468 415//469 414//467
f 417//470 410//463 413//466 414//467
f 415//469 418//471 417//470 414//467
f 415//469 420//472 419//473 418//471
f 421//474 408//462 417//470 418//471
f 419//473 422//475 421//476 418//471
f 419//473 424//477 423//478 422//475
f 425//479 405//480 421//476 422//475
f 423//478 426//481 425//479 422//475
f 423//478 201//259 251//258 426//481
f 427//482 402//454 425//479 426//481
f 251//258 252//261 427//482 426//481
f 203//263 399//450 427//482 252//262
f 204//267 429//483 428//484 206//264
f 428//484 430//485 253//268 206//264
f 428//484 432//486 431//487 430//485
f 433//488 254//272 253//268 430//485
f 431//487 434//489 433//488 430//485
f 431//487 436//490 435//491 434//489
f 393//442 394//445 433//488 434//489
f 435//491 392//443 393//442 434//489
f 337//382 338//381 340//385 436//492
f 431//487 432//486 337//493 436//490
f 340//385 437//494 435//491 436//492
f 340//385 341//384 342//386 437//494
f 438//495 392//443 435//491 437//494
f 342//386 439//496 438//495 437//494
f 342//386 226//113 255//282 439//496
f 440//497 389//440 438//495 439//496
f 255//282 256//284 440//497 439//496
f 243//192 384//434 440//497 256//284
f 384//434 385//436 389//440 440//497
f 389//440 390//439 392//443 438//495
f 394//445 244//205 254//272 433//488
f 332//376 333//375 337//493 432//486
f 428//484 429//483 332//376 432//486
f 327//369 328//368 332//376 429//483
f 204//267 205//285 327//369 429//483
f 224//86 323//364 327//369 205//285
f 247//215 397//447 399//450 203//263
f 399//450 400//449 402//454 427//482
f 423//478 424//477 257//286 201//259
f 402//454 403//453 405//480 425//479
f 317//358 222//77 257//286 424//477
f 419//473 420//472 317//358 424//477
f 405//459 406//458 408//462 421//474
f 315//357 316//356 317//358 420//472
f 415//469 416//468 315//357 420//472
f 408//462 409//461 410//463 417//470
f 309//347 313//351 315//357 416//468
f 412//465 308//342 309//347 416//468
f 410//463 248//235 250//241 413//466
f 220//287 311//348 306//344 184//237
f 62//288 312//349 311//348 220//288
f 303//340 277//297 278//302 305//341
f 276//298 277//297 303//340 304//339
f 268//291 269//290 288//317 289//316
