# pilowlava3D glyph 'j' variant 1 — Vincent Wagner / Velvetyne, Free Art License
v 0.98691 2.51341 -0.30213
v 1.17692 2.25738 -0.28798
v 1.51957 4.22461 -0.42031
v 1.97044 4.29700 -0.42375
v 0.83311 2.46597 -0.35758
v 0.74860 2.56730 -0.19683
v 0.99050 2.58181 -0.18478
v 1.18649 2.45807 -0.17304
v 1.11358 2.41351 -0.32205
v 0.96534 2.31368 -0.42180
v 1.23984 2.24042 -0.17022
v 1.14166 2.06524 -0.18270
v 1.08022 2.15135 -0.33966
v 1.49426 4.07144 -0.45842
v 1.29191 4.08563 -0.26394
v 1.41710 4.31954 -0.26672
v 1.70626 4.46030 -0.26032
v 1.73430 4.29482 -0.45174
v 1.77627 4.11850 -0.53954
v 2.01956 4.42872 -0.25916
v 2.24123 4.26564 -0.26305
v 2.05891 4.16731 -0.45741
v 2.11582 3.98365 -0.47486
v 1.81244 3.93346 -0.56191
v 2.34136 4.03330 -0.26549
v 2.36415 3.81237 -0.26507
v 2.14354 3.79005 -0.47939
v 2.46160 3.82654 -0.00000
v 2.46589 3.60905 -0.00000
v 2.36331 3.60563 -0.25771
v 2.46353 3.40611 -0.00000
v 2.46266 3.20709 -0.00000
v 2.37878 3.21113 -0.24572
v 2.36667 3.40769 -0.25209
v 2.20613 3.19964 -0.44634
v 2.17516 3.39785 -0.46042
v 2.15718 3.59548 -0.47202
v 1.91885 3.35236 -0.55318
v 1.87661 3.55498 -0.56566
v 1.84173 3.74835 -0.56757
v 1.60543 3.47997 -0.47654
v 1.54834 3.67643 -0.48000
v 1.50471 3.87216 -0.47958
v 1.34469 3.61387 -0.26572
v 1.27953 3.83347 -0.26849
v 1.22512 4.11171 -0.00000
v 1.37808 4.36933 -0.00000
v 1.69376 4.51385 -0.00000
v 2.02705 4.48714 -0.00000
v 2.47010 2.81017 -0.00000
v 2.46497 3.00935 -0.00000
v 2.40898 2.81057 -0.22581
v 2.39312 3.01231 -0.23620
v 2.27663 2.79351 -0.40813
v 2.24056 2.99716 -0.42829
v 2.08249 2.74771 -0.48845
v 2.02747 2.94786 -0.51314
v 1.97111 3.15042 -0.53468
v 1.81727 2.88767 -0.42578
v 1.74263 3.08267 -0.44487
v 1.66951 3.28081 -0.46355
v 1.58534 3.01999 -0.24702
v 1.49614 3.21195 -0.25873
v 1.41483 3.40858 -0.26584
v 1.61128 2.80157 -0.00000
v 2.47984 2.40707 -0.00000
v 2.47565 2.60884 -0.00000
v 2.43480 2.40440 -0.20321
v 2.42367 2.60754 -0.21455
v 2.33321 2.38335 -0.36883
v 2.30746 2.58888 -0.38908
v 2.18875 2.34658 -0.43257
v 2.13636 2.54731 -0.46091
v 2.04310 2.30791 -0.36616
v 1.96569 2.50056 -0.38553
v 1.89043 2.69308 -0.40543
v 1.85320 2.45965 -0.21089
v 1.76353 2.64491 -0.22134
v 1.67377 2.83223 -0.23400
v 1.70732 2.61690 -0.00000
v 1.90563 2.25527 -0.00000
v 2.49012 2.00258 -0.00000
v 2.48512 2.20515 -0.00000
v 2.46111 1.99458 -0.17900
v 2.44723 2.19957 -0.19294
v 2.39307 1.96836 -0.32400
v 2.35983 2.17609 -0.34939
v 2.29970 1.94099 -0.37234
v 2.24312 2.14625 -0.40409
v 2.20630 1.91982 -0.32596
v 2.12789 2.11459 -0.34891
v 2.13309 1.91036 -0.17870
v 2.04187 2.09081 -0.19263
v 1.94709 2.27567 -0.20129
v 2.00597 2.07864 -0.00000
v 2.20015 1.73077 -0.00000
v 2.49674 1.57300 -0.00000
v 2.49363 1.79624 -0.00000
v 2.48539 1.56921 -0.13013
v 2.47439 1.78554 -0.15611
v 2.45824 1.55805 -0.23768
v 2.43002 1.76343 -0.28405
v 2.39819 1.54473 -0.28175
v 2.35340 1.74076 -0.33082
v 2.33828 1.54196 -0.23846
v 2.27502 1.72677 -0.28586
v 2.30016 1.54627 -0.12838
v 2.22112 1.72873 -0.15496
v 2.28861 1.54996 -0.00000
v 2.31808 1.35734 -0.00000
v 2.32476 1.35611 -0.12153
v 2.27179 1.18349 -0.13818
v 2.25990 1.18454 -0.00000
v 2.35967 1.35282 -0.21968
v 2.31859 1.17352 -0.25295
v 2.21346 1.02805 -0.32208
v 2.14708 1.07144 -0.18000
v 2.41372 1.34867 -0.25921
v 2.38134 1.15294 -0.30374
v 2.29340 0.96576 -0.37678
v 2.15969 0.77674 -0.43901
v 2.06025 0.89904 -0.37911
v 2.43736 1.12011 -0.26005
v 2.37106 0.89767 -0.32741
v 2.27289 0.66690 -0.37378
v 2.14029 0.45002 -0.39913
v 2.00826 0.62622 -0.48023
v 2.42869 0.84444 -0.18169
v 2.36056 0.59779 -0.20926
v 2.23620 0.34542 -0.22204
v 2.00771 0.15323 -0.23090
v 1.93853 0.30312 -0.41855
v 2.26921 0.31338 -0.00000
v 2.03161 0.10622 -0.00000
v 1.74662 0.02036 -0.00000
v 1.73429 0.08161 -0.23292
v 1.47549 0.00000 -0.00000
v 1.21721 0.01488 -0.00000
v 1.22373 0.07339 -0.22638
v 1.47361 0.06310 -0.23093
v 1.23008 0.21706 -0.41430
v 1.46164 0.21536 -0.42336
v 1.70071 0.23789 -0.42421
v 1.43591 0.44422 -0.50591
v 1.64519 0.47095 -0.50746
v 1.84097 0.52739 -0.49718
v 1.57601 0.70844 -0.42127
v 1.74342 0.75288 -0.41525
v 1.89870 0.81482 -0.40468
v 1.69069 0.91060 -0.22444
v 1.84812 0.95314 -0.21823
v 1.99892 1.00309 -0.21185
v 1.83344 1.01583 -0.00000
v 2.46527 1.09178 -0.14319
v 2.48322 1.33584 -0.12340
v 2.46565 1.34215 -0.22046
v 0.73544 0.14892 -0.00000
v 0.96931 0.06403 -0.00000
v 0.75087 0.19039 -0.21241
v 0.98167 0.11547 -0.21999
v 0.78109 0.30259 -0.38328
v 1.00307 0.24527 -0.40100
v 0.81274 0.47427 -0.44962
v 1.02084 0.44644 -0.47723
v 1.22675 0.43646 -0.49354
v 1.02487 0.64885 -0.39660
v 1.21228 0.65905 -0.40893
v 1.39729 0.67743 -0.41705
v 1.18886 0.80946 -0.21978
v 1.36162 0.83746 -0.22409
v 1.53026 0.87037 -0.22550
v 1.51261 0.94678 -0.00000
v 1.67542 0.98188 -0.00000
v 1.00039 0.84877 -0.00000
v 0.51868 0.27269 -0.00000
v 0.33313 0.45985 -0.18043
v 0.53198 0.30380 -0.19958
v 0.36590 0.52272 -0.31975
v 0.56548 0.39277 -0.35634
v 0.41132 0.60917 -0.36448
v 0.60847 0.52484 -0.41112
v 0.45298 0.68938 -0.31184
v 0.64411 0.64872 -0.35365
v 0.83503 0.64374 -0.37882
v 0.66265 0.74842 -0.20011
v 0.83634 0.76390 -0.20832
v 1.01181 0.78421 -0.21465
v 0.82980 0.81938 -0.00000
v 0.50658 0.77649 -0.00000
v 0.05881 0.89799 -0.16660
v 0.16808 0.66179 -0.16838
v 0.10402 0.90970 -0.27990
v 0.20374 0.69698 -0.28945
v 0.16885 0.92506 -0.31535
v 0.25540 0.74260 -0.32651
v 0.23063 0.94125 -0.26530
v 0.30672 0.78080 -0.27081
v 0.27177 0.95244 -0.15419
v 0.34792 0.81240 -0.15539
v 0.49465 0.75270 -0.17567
v 0.35806 0.82238 -0.00000
v 0.28349 0.95515 -0.00000
v 0.31600 1.11764 -0.00000
v 0.00000 1.15610 -0.00000
v 0.04335 1.39690 -0.18906
v 0.02116 1.15111 -0.17420
v 0.11750 1.36652 -0.33439
v 0.07959 1.14066 -0.30277
v 0.21667 1.32786 -0.38144
v 0.16054 1.12768 -0.34113
v 0.31042 1.29202 -0.32987
v 0.23685 1.11990 -0.28928
v 0.38841 1.26878 -0.18575
v 0.29427 1.11979 -0.16466
v 0.42045 1.25431 -0.00000
v 0.53639 1.38343 -0.00000
v 0.50452 1.41054 -0.19364
v 0.62957 1.55034 -0.19670
v 0.66297 1.51831 -0.00000
v 0.42390 1.45882 -0.35468
v 0.54491 1.61474 -0.36631
v 0.66757 1.76688 -0.37356
v 0.75104 1.68840 -0.19927
v 0.30792 1.51908 -0.41700
v 0.41374 1.70037 -0.43989
v 0.52860 1.87878 -0.45574
v 0.65685 2.04431 -0.46021
v 0.79634 1.90798 -0.37709
v 0.27525 1.78414 -0.37555
v 0.37495 1.98222 -0.38805
v 0.49857 2.17067 -0.39129
v 0.65141 2.33950 -0.38876
v 0.80205 2.18911 -0.45146
v 0.26828 2.04343 -0.21135
v 0.38965 2.24393 -0.21412
v 0.54215 2.43192 -0.21094
v 0.73045 2.59664 -0.00000
v 0.99045 2.60731 -0.00000
v 1.16691 2.04123 -0.00000
v 1.00481 1.94491 -0.19342
v 1.26340 2.23716 -0.00000
v 1.20162 2.46850 -0.00000
v 0.87587 1.82061 -0.19911
v 0.93189 2.03647 -0.36901
v 0.17825 1.83483 -0.20487
v 0.09967 1.62323 -0.20056
v 0.18642 1.58127 -0.35985
v 2.28671 4.31766 -0.00000
v 2.42010 4.06757 -0.00000
v 1.25492 3.58848 -0.00000
v 1.19478 3.83266 -0.00000
v 1.42255 3.17802 -0.00000
v 1.33272 3.37629 -0.00000
v 1.51670 2.98790 -0.00000
v 1.80406 2.43387 -0.00000
v 2.10403 1.90475 -0.00000
v 2.39418 0.57391 -0.00000
v 1.98380 1.05173 -0.00000
v 2.12758 1.09224 -0.00000
v 2.47797 1.08002 -0.00000
v 2.49097 1.33160 -0.00000
v 2.45311 0.82550 -0.00000
v 1.34449 0.91390 -0.00000
v 1.17332 0.88080 -0.00000
v 0.32192 0.43890 -0.00000
v 0.66438 0.79213 -0.00000
v 0.04285 0.89522 -0.00000
v 0.15616 0.64954 -0.00000
v 0.01516 1.40903 -0.00000
v 0.34920 2.27203 -0.00000
v 0.51229 2.45943 -0.00000
v 1.03512 1.90950 -0.00000
v 0.91121 1.78236 -0.00000
v 0.78749 1.65148 -0.00000
v 0.13299 1.85401 -0.00000
v 0.06223 1.63818 -0.00000
v 0.22448 2.06735 -0.00000
v 0.98691 2.51341 0.30213
v 1.17692 2.25738 0.28798
v 1.51957 4.22461 0.42031
v 1.97044 4.29700 0.42375
v 0.83311 2.46597 0.35758
v 0.74860 2.56730 0.19683
v 0.99050 2.58181 0.18478
v 1.18649 2.45807 0.17304
v 1.11358 2.41351 0.32205
v 0.96534 2.31368 0.42180
v 1.23984 2.24042 0.17022
v 1.14166 2.06524 0.18270
v 1.08022 2.15135 0.33966
v 1.49426 4.07144 0.45842
v 1.29191 4.08563 0.26394
v 1.41710 4.31954 0.26672
v 1.70626 4.46030 0.26032
v 1.73430 4.29482 0.45174
v 1.77627 4.11850 0.53954
v 2.01956 4.42872 0.25916
v 2.24123 4.26564 0.26305
v 2.05891 4.16731 0.45741
v 2.11582 3.98365 0.47486
v 1.81244 3.93346 0.56191
v 2.34136 4.03330 0.26549
v 2.36415 3.81237 0.26507
v 2.14354 3.79005 0.47939
v 2.36331 3.60563 0.25771
v 2.37878 3.21113 0.24572
v 2.36667 3.40769 0.25209
v 2.20613 3.19964 0.44634
v 2.17516 3.39785 0.46042
v 2.15718 3.59548 0.47202
v 1.91885 3.35236 0.55318
v 1.87661 3.55498 0.56566
v 1.84173 3.74835 0.56757
v 1.60543 3.47997 0.47654
v 1.54834 3.67643 0.48000
v 1.50471 3.87216 0.47958
v 1.34469 3.61387 0.26572
v 1.27953 3.83347 0.26849
v 2.40898 2.81057 0.22581
v 2.39312 3.01231 0.23620
v 2.27663 2.79351 0.40813
v 2.24056 2.99716 0.42829
v 2.08249 2.74771 0.48845
v 2.02747 2.94786 0.51314
v 1.97111 3.15042 0.53468
v 1.81727 2.88767 0.42578
v 1.74263 3.08267 0.44487
v 1.66951 3.28081 0.46355
v 1.58534 3.01999 0.24702
v 1.49614 3.21195 0.25873
v 1.41483 3.40858 0.26584
v 2.43480 2.40440 0.20321
v 2.42367 2.60754 0.21455
v 2.33321 2.38335 0.36883
v 2.30746 2.58888 0.38908
v 2.18875 2.34658 0.43257
v 2.13636 2.54731 0.46091
v 2.04310 2.30791 0.36616
v 1.96569 2.50056 0.38553
v 1.89043 2.69308 0.40543
v 1.85320 2.45965 0.21089
v 1.76353 2.64491 0.22134
v 1.67377 2.83223 0.23400
v 2.46111 1.99458 0.17900
v 2.44723 2.19957 0.19294
v 2.39307 1.96836 0.32400
v 2.35983 2.17609 0.34939
v 2.29970 1.94099 0.37234
v 2.24312 2.14625 0.40409
v 2.20630 1.91982 0.32596
v 2.12789 2.11459 0.34891
v 2.13309 1.91036 0.17870
v 2.04187 2.09081 0.19263
v 1.94709 2.27567 0.20129
v 2.48539 1.56921 0.13013
v 2.47439 1.78554 0.15611
v 2.45824 1.55805 0.23768
v 2.43002 1.76343 0.28405
v 2.39819 1.54473 0.28175
v 2.35340 1.74076 0.33082
v 2.33828 1.54196 0.23846
v 2.27502 1.72677 0.28586
v 2.30016 1.54627 0.12838
v 2.22112 1.72873 0.15496
v 2.32476 1.35611 0.12153
v 2.27179 1.18349 0.13818
v 2.35967 1.35282 0.21968
v 2.31859 1.17352 0.25295
v 2.21346 1.02805 0.32208
v 2.14708 1.07144 0.18000
v 2.41372 1.34867 0.25921
v 2.38134 1.15294 0.30374
v 2.29340 0.96576 0.37678
v 2.15969 0.77674 0.43901
v 2.06025 0.89904 0.37911
v 2.43736 1.12011 0.26005
v 2.37106 0.89767 0.32741
v 2.27289 0.66690 0.37378
v 2.14029 0.45002 0.39913
v 2.00826 0.62622 0.48023
v 2.42869 0.84444 0.18169
v 2.36056 0.59779 0.20926
v 2.23620 0.34542 0.22204
v 2.00771 0.15323 0.23090
v 1.93853 0.30312 0.41855
v 1.73429 0.08161 0.23292
v 1.22373 0.07339 0.22638
v 1.47361 0.06310 0.23093
v 1.23008 0.21706 0.41430
v 1.46164 0.21536 0.42336
v 1.70071 0.23789 0.42421
v 1.43591 0.44422 0.50591
v 1.64519 0.47095 0.50746
v 1.84097 0.52739 0.49718
v 1.57601 0.70844 0.42127
v 1.74342 0.75288 0.41525
v 1.89870 0.81482 0.40468
v 1.69069 0.91060 0.22444
v 1.84812 0.95314 0.21823
v 1.99892 1.00309 0.21185
v 2.46527 1.09178 0.14319
v 2.48322 1.33584 0.12340
v 2.46565 1.34215 0.22046
v 0.75087 0.19039 0.21241
v 0.98167 0.11547 0.21999
v 0.78109 0.30259 0.38328
v 1.00307 0.24527 0.40100
v 0.81274 0.47427 0.44962
v 1.02084 0.44644 0.47723
v 1.22675 0.43646 0.49354
v 1.02487 0.64885 0.39660
v 1.21228 0.65905 0.40893
v 1.39729 0.67743 0.41705
v 1.18886 0.80946 0.21978
v 1.36162 0.83746 0.22409
v 1.53026 0.87037 0.22550
v 0.33313 0.45985 0.18043
v 0.53198 0.30380 0.19958
v 0.36590 0.52272 0.31975
v 0.56548 0.39277 0.35634
v 0.41132 0.60917 0.36448
v 0.60847 0.52484 0.41112
v 0.45298 0.68938 0.31184
v 0.64411 0.64872 0.35365
v 0.83503 0.64374 0.37882
v 0.66265 0.74842 0.20011
v 0.83634 0.76390 0.20832
v 1.01181 0.78421 0.21465
v 0.05881 0.89799 0.16660
v 0.16808 0.66179 0.16838
v 0.10402 0.90970 0.27990
v 0.20374 0.69698 0.28945
v 0.16885 0.92506 0.31535
v 0.25540 0.74260 0.32651
v 0.23063 0.94125 0.26530
v 0.30672 0.78080 0.27081
v 0.27177 0.95244 0.15419
v 0.34792 0.81240 0.15539
v 0.49465 0.75270 0.17567
v 0.04335 1.39690 0.18906
v 0.02116 1.15111 0.17420
v 0.11750 1.36652 0.33439
v 0.07959 1.14066 0.30277
v 0.21667 1.32786 0.38144
v 0.16054 1.12768 0.34113
v 0.31042 1.29202 0.32987
v 0.23685 1.11990 0.28928
v 0.38841 1.26878 0.18575
v 0.29427 1.11979 0.16466
v 0.50452 1.41054 0.19364
v 0.62957 1.55034 0.19670
v 0.42390 1.45882 0.35468
v 0.54491 1.61474 0.36631
v 0.66757 1.76688 0.37356
v 0.75104 1.68840 0.19927
v 0.30792 1.51908 0.41700
v 0.41374 1.70037 0.43989
v 0.52860 1.87878 0.45574
v 0.65685 2.04431 0.46021
v 0.79634 1.90798 0.37709
v 0.27525 1.78414 0.37555
v 0.37495 1.98222 0.38805
v 0.49857 2.17067 0.39129
v 0.65141 2.33950 0.38876
v 0.80205 2.18911 0.45146
v 0.26828 2.04343 0.21135
v 0.38965 2.24393 0.21412
v 0.54215 2.43192 0.21094
v 1.00481 1.94491 0.19342
v 0.87587 1.82061 0.19911
v 0.93189 2.03647 0.36901
v 0.17825 1.83483 0.20487
v 0.09967 1.62323 0.20056
v 0.18642 1.58127 0.35985
vn 0.22752 0.72759 -0.64718
vn -0.08442 0.62021 -0.77988
vn -0.26776 0.88358 -0.38416
vn 0.25148 0.91092 -0.32709
vn 0.77508 0.55370 -0.30440
vn 0.57174 0.39356 -0.71988
vn 0.26242 0.15380 -0.95262
vn 0.76358 -0.07252 -0.64163
vn 0.93805 -0.10985 -0.32864
vn 0.74180 -0.56394 -0.36290
vn 0.57981 -0.33092 -0.74452
vn -0.44060 0.45762 -0.77230
vn -0.49700 0.19251 -0.84613
vn -0.83245 0.23782 -0.50047
vn -0.60877 0.63567 -0.47468
vn -0.15219 0.87842 -0.45301
vn -0.09914 0.57032 -0.81542
vn -0.04199 0.24745 -0.96799
vn 0.24660 0.59867 -0.76209
vn 0.32302 0.82680 -0.46049
vn 0.67347 0.54552 -0.49885
vn 0.39325 0.36477 -0.84398
vn 0.46930 0.15298 -0.86969
vn -0.00754 0.07056 -0.99748
vn 0.81055 0.23691 -0.53561
vn 0.83781 0.05617 -0.54307
vn 0.50326 0.04356 -0.86304
vn 0.75863 0.65152 -0.00201
vn 0.95698 0.29015 -0.00046
vn 0.99761 0.06906 0.00050
vn 0.93254 -0.00101 -0.36106
vn 0.84244 0.00126 -0.53879
vn 0.99995 0.00999 0.00003
vn 0.99959 0.02848 0.00008
vn 0.86705 0.03810 -0.49675
vn 0.85182 0.01924 -0.52349
vn 0.57361 0.02098 -0.81886
vn 0.55358 0.01169 -0.83271
vn 0.53146 0.00343 -0.84708
vn 0.02340 -0.08673 -0.99596
vn 0.01564 -0.05501 -0.99836
vn 0.00540 -0.00882 -0.99995
vn -0.49525 -0.18529 -0.84876
vn -0.48897 -0.13227 -0.86221
vn -0.49242 -0.02453 -0.87001
vn -0.81221 -0.24825 -0.52791
vn -0.84404 -0.08001 -0.53028
vn -0.95429 -0.29888 0.00057
vn -0.99579 -0.09171 -0.00020
vn -0.95593 0.29358 0.00005
vn -0.68006 0.73315 0.00098
vn -0.17318 0.98489 0.00003
vn 0.34022 0.94034 -0.00107
vn 0.99922 0.03948 -0.00003
vn 0.99904 0.04377 -0.00002
vn 0.89989 0.04804 -0.43346
vn 0.88399 0.04591 -0.46525
vn 0.61801 0.01634 -0.78600
vn 0.59600 0.02011 -0.80274
vn 0.38451 -0.02073 -0.92289
vn 0.37121 -0.01359 -0.92845
vn 0.02475 -0.10500 -0.99416
vn -0.32309 -0.20598 -0.92368
vn -0.52841 -0.28783 -0.79871
vn -0.51035 -0.27331 -0.81538
vn -0.49873 -0.23996 -0.83288
vn -0.78525 -0.39040 -0.48058
vn -0.78726 -0.36284 -0.49857
vn -0.79910 -0.30800 -0.51630
vn -0.90683 -0.42150 -0.00005
vn -0.92967 -0.36840 0.00004
vn 0.99931 0.03701 0.00001
vn 0.99940 0.03470 0.00003
vn 0.92597 0.03703 -0.37578
vn 0.91411 0.03911 -0.40357
vn 0.65941 0.00587 -0.75176
vn 0.63870 0.00679 -0.76942
vn 0.41041 -0.02792 -0.91147
vn 0.39567 -0.02810 -0.91796
vn -0.34279 -0.22341 -0.91246
vn -0.35377 -0.22853 -0.90699
vn -0.58086 -0.32365 -0.74689
vn -0.56303 -0.31119 -0.76561
vn -0.54616 -0.29906 -0.78248
vn -0.33368 -0.21678 -0.91742
vn -0.80897 -0.42011 -0.41119
vn -0.80135 -0.40629 -0.43906
vn -0.79216 -0.39927 -0.46160
vn -0.88986 -0.45623 0.00001
vn -0.89236 -0.45132 0.00000
vn -0.89596 -0.44413 0.00001
vn -0.88334 -0.46874 -0.00001
vn 0.99924 0.03906 -0.00002
vn 0.99935 0.03613 0.00005
vn 0.95441 0.04524 -0.29505
vn 0.93812 0.04522 -0.34335
vn 0.72705 0.00553 -0.68656
vn 0.68509 0.01366 -0.72833
vn 0.47577 -0.04368 -0.87849
vn 0.43327 -0.02481 -0.90092
vn -0.36674 -0.24031 -0.89875
vn -0.38729 -0.27617 -0.87962
vn -0.63149 -0.36057 -0.68645
vn -0.60175 -0.33702 -0.72410
vn -0.84919 -0.44079 -0.29084
vn -0.83104 -0.44068 -0.33938
vn -0.81753 -0.43480 -0.37762
vn -0.87844 -0.47786 0.00002
vn -0.87763 -0.47933 0.00008
vn -0.88165 -0.47191 -0.00025
vn 0.99958 0.02912 0.00021
vn 0.99999 0.00411 -0.00001
vn 0.98507 0.01281 -0.17169
vn 0.97192 0.03789 -0.23226
vn 0.82504 -0.02409 -0.56457
vn 0.78205 -0.01522 -0.62303
vn 0.58365 -0.06623 -0.80930
vn 0.53784 -0.07514 -0.83969
vn -0.44207 -0.32417 -0.83635
vn -0.53625 -0.24461 -0.80784
vn -0.75776 -0.27011 -0.59400
vn -0.67861 -0.38431 -0.62594
vn -0.93824 -0.27969 -0.20369
vn -0.87345 -0.42698 -0.23402
vn -0.95833 -0.28566 0.00009
vn -0.89513 -0.44581 -0.00013
vn -0.97376 0.08336 -0.21175
vn -0.99626 0.08638 0.00008
vn -0.80085 0.54624 -0.24547
vn -0.81751 0.57591 -0.00070
vn -0.79156 0.07607 -0.60634
vn -0.62374 0.47553 -0.62034
vn -0.36383 0.63894 -0.67777
vn -0.48356 0.81813 -0.31117
vn -0.58041 0.06646 -0.81161
vn -0.43735 0.40765 -0.80159
vn -0.22074 0.48888 -0.84396
vn 0.18069 0.16669 -0.96931
vn -0.21369 0.60856 -0.76419
vn 0.54547 0.00193 -0.83813
vn 0.61041 0.05841 -0.78993
vn 0.82672 -0.01989 -0.56226
vn 0.75364 -0.08882 -0.65126
vn 0.64237 -0.19770 -0.74046
vn 0.48997 -0.34303 -0.80141
vn 0.12829 0.08306 -0.98825
vn 0.94446 -0.17477 -0.27831
vn 0.87720 -0.31639 -0.36114
vn 0.72081 -0.55084 -0.42072
vn 0.42234 -0.78456 -0.45398
vn 0.28096 -0.48257 -0.82957
vn 0.94137 -0.33738 0.00001
vn 0.79403 -0.60788 0.00009
vn 0.47423 -0.88040 -0.00017
vn 0.17301 -0.98492 -0.00024
vn 0.15447 -0.87588 -0.45714
vn 0.01004 -0.99995 0.00008
vn -0.11932 -0.99286 -0.00001
vn -0.10488 -0.89354 -0.43657
vn 0.01106 -0.89287 -0.45017
vn -0.08212 -0.58967 -0.80346
vn 0.00378 -0.58226 -0.81299
vn 0.10871 -0.55547 -0.82440
vn -0.03891 0.00229 -0.99924
vn 0.00984 0.00899 -0.99991
vn 0.06322 0.03168 -0.99750
vn -0.11320 0.55459 -0.82439
vn -0.13370 0.55029 -0.82420
vn -0.16220 0.56615 -0.80818
vn -0.20992 0.84841 -0.48593
vn -0.24297 0.85598 -0.45636
vn -0.30454 0.86554 -0.39762
vn -0.24928 0.96843 -0.00020
vn -0.29874 0.95433 0.00096
vn -0.47649 0.87918 0.00042
vn 0.99926 -0.03849 -0.00017
vn 0.99631 -0.08583 -0.00008
vn 0.97789 -0.09152 -0.18804
vn 0.98862 -0.03628 -0.14598
vn 0.84406 -0.01215 -0.53611
vn 0.60904 0.01141 -0.79305
vn 0.98448 -0.17552 0.00001
vn -0.25813 -0.96611 0.00003
vn -0.40705 -0.91340 0.00005
vn -0.37101 -0.84482 -0.38552
vn -0.23059 -0.87958 -0.41614
vn -0.27982 -0.56702 -0.77472
vn -0.17240 -0.58588 -0.79185
vn -0.20516 -0.31977 -0.92502
vn -0.12924 -0.33779 -0.93231
vn -0.06763 -0.34201 -0.93726
vn -0.07040 0.35418 -0.93253
vn -0.07691 0.37174 -0.92515
vn -0.09215 0.60482 -0.79101
vn -0.09564 0.58349 -0.80647
vn -0.10516 0.56653 -0.81730
vn -0.14133 0.86779 -0.47642
vn -0.15807 0.85577 -0.49261
vn -0.18341 0.84839 -0.49658
vn -0.18611 0.98253 0.00001
vn -0.20960 0.97779 -0.00002
vn -0.22790 0.97369 -0.00005
vn -0.56170 -0.82734 0.00001
vn -0.71274 -0.70143 -0.00001
vn -0.68114 -0.67330 -0.28760
vn -0.52506 -0.77990 -0.34069
vn -0.53546 -0.46925 -0.70220
vn -0.40487 -0.53043 -0.74480
vn -0.37745 -0.25683 -0.88970
vn -0.29156 -0.29157 -0.91103
vn -0.06537 0.45825 -0.88641
vn 0.08506 0.53761 -0.83889
vn 0.13728 0.72704 -0.67273
vn -0.05136 0.68137 -0.73013
vn -0.08896 0.63130 -0.77042
vn -0.08534 0.39892 -0.91301
vn -0.06082 0.92808 -0.36738
vn -0.11201 0.90087 -0.41939
vn -0.12739 0.88318 -0.45141
vn -0.13942 0.99023 -0.00017
vn -0.15681 0.98763 0.00004
vn -0.17261 0.98499 -0.00004
vn -0.09027 0.99592 -0.00101
vn -0.85106 -0.52507 -0.00006
vn -0.95689 -0.29044 0.00008
vn -0.92850 -0.27965 -0.24429
vn -0.82480 -0.50789 -0.24850
vn -0.70815 -0.21991 -0.67095
vn -0.64657 -0.36249 -0.67123
vn -0.45083 -0.15036 -0.87986
vn -0.43641 -0.20252 -0.87666
vn 0.39964 0.44595 -0.80089
vn 0.59613 0.10305 -0.79625
vn 0.77581 0.13646 -0.61603
vn 0.52163 0.57145 -0.63352
vn 0.95449 0.16575 -0.24796
vn 0.63668 0.72272 -0.26892
vn 0.16380 0.93705 -0.30840
vn 0.32928 0.94423 0.00044
vn 0.14331 0.98968 -0.00053
vn 0.87507 0.48399 -0.00015
vn 0.98583 0.16776 0.00009
vn -0.99907 -0.04322 -0.00001
vn -0.98957 0.14406 -0.00008
vn -0.93784 0.14067 -0.31729
vn -0.96107 -0.03983 -0.27341
vn -0.68655 0.06444 -0.72422
vn -0.71587 -0.06850 -0.69486
vn -0.42876 -0.01294 -0.90333
vn -0.44373 -0.09342 -0.89128
vn 0.52097 -0.21915 -0.82496
vn 0.38001 -0.33517 -0.86212
vn 0.57551 -0.44484 -0.68623
vn 0.71730 -0.27176 -0.64158
vn 0.75867 -0.56926 -0.31681
vn 0.89852 -0.34504 -0.27130
vn 0.78692 -0.61706 -0.00008
vn 0.92405 -0.38228 -0.00016
vn 0.70462 -0.61319 -0.35710
vn 0.74626 -0.66565 0.00021
vn 0.68825 -0.61574 -0.38364
vn 0.73779 -0.67503 -0.00006
vn 0.51330 -0.45990 -0.72458
vn 0.49720 -0.44527 -0.74467
vn 0.48269 -0.43905 -0.75779
vn 0.67535 -0.61880 -0.40124
vn 0.32183 -0.32144 -0.89056
vn 0.31380 -0.29602 -0.90216
vn 0.30520 -0.28113 -0.90985
vn 0.29822 -0.26192 -0.91786
vn 0.46847 -0.43915 -0.76661
vn -0.31176 0.15243 -0.93785
vn -0.35913 0.11103 -0.92666
vn -0.59815 0.22265 -0.76983
vn -0.54552 0.27859 -0.79044
vn -0.46490 0.35591 -0.81068
vn -0.24157 0.20383 -0.94873
vn -0.33158 0.46374 -0.82158
vn 0.09684 0.02391 -0.99501
vn -0.81183 0.41890 -0.40676
vn -0.73568 0.53408 -0.41657
vn -0.58736 0.69305 -0.41796
vn -0.81242 0.58308 0.00013
vn -0.65768 0.75330 0.00006
vn -0.30083 0.95368 0.00008
vn 0.26178 0.96513 -0.00006
vn 0.79945 -0.60074 0.00040
vn 0.69832 -0.71579 -0.00016
vn 0.64175 -0.65648 -0.39648
vn 0.88730 -0.46118 0.00105
vn 0.96893 0.24735 0.00049
vn 0.54386 0.83918 -0.00037
vn 0.71756 -0.69650 -0.00002
vn 0.65654 -0.63617 -0.40527
vn 0.47090 -0.43237 -0.76897
vn 0.73331 -0.67990 -0.00002
vn -0.96209 0.27272 -0.00003
vn -0.93289 0.36015 -0.00004
vn -0.85795 0.33716 -0.38761
vn -0.89611 0.26177 -0.35843
vn -0.64107 0.16366 -0.74983
vn -0.39675 0.06299 -0.91576
vn -0.88989 0.45618 0.00000
vn 0.25406 0.90931 0.32955
vn -0.26509 0.88347 0.38628
vn -0.08066 0.62259 0.77838
vn 0.23129 0.72839 0.64494
vn 0.57428 0.39389 0.71767
vn 0.77482 0.55218 0.30782
vn 0.26727 0.15708 0.95073
vn 0.58288 -0.32829 0.74329
vn 0.74275 -0.56105 0.36543
vn 0.93671 -0.10814 0.33298
vn 0.76418 -0.07205 0.64097
vn -0.60385 0.63745 0.47856
vn -0.82955 0.24012 0.50417
vn -0.49539 0.19815 0.84577
vn -0.43762 0.46333 0.77059
vn -0.09985 0.57898 0.80920
vn -0.15237 0.87855 0.45270
vn -0.04253 0.25728 0.96540
vn 0.38652 0.36970 0.84494
vn 0.66767 0.54747 0.50448
vn 0.31474 0.82752 0.46491
vn 0.23764 0.60349 0.76113
vn -0.00724 0.07067 0.99747
vn 0.46853 0.15291 0.87011
vn 0.81034 0.23694 0.53592
vn 0.50253 0.04366 0.86345
vn 0.83716 0.05604 0.54409
vn 0.84241 0.00137 0.53883
vn 0.93269 -0.00073 0.36069
vn 0.85184 0.01888 0.52346
vn 0.86697 0.03818 0.49689
vn 0.55386 0.01106 0.83254
vn 0.57353 0.02114 0.81891
vn 0.53133 0.00351 0.84716
vn 0.01538 -0.05431 0.99841
vn 0.02366 -0.08721 0.99591
vn 0.00532 -0.00824 0.99995
vn -0.48966 -0.13203 0.86186
vn -0.49554 -0.18491 0.84868
vn -0.49288 -0.02439 0.86975
vn -0.84458 -0.08016 0.52939
vn -0.81241 -0.24798 0.52773
vn 0.88400 0.04588 0.46523
vn 0.89991 0.04787 0.43343
vn 0.59594 0.02013 0.80278
vn 0.61805 0.01612 0.78597
vn 0.37110 -0.01343 0.92850
vn 0.38454 -0.02088 0.92287
vn 0.02482 -0.10497 0.99417
vn -0.51052 -0.27283 0.81544
vn -0.52846 -0.28757 0.79877
vn -0.32330 -0.20523 0.92377
vn -0.49870 -0.23992 0.83291
vn -0.78732 -0.36269 0.49858
vn -0.78549 -0.38989 0.48062
vn -0.79906 -0.30812 0.51630
vn 0.91411 0.03921 0.40356
vn 0.92594 0.03706 0.37584
vn 0.63876 0.00660 0.76938
vn 0.65938 0.00598 0.75178
vn 0.39578 -0.02853 0.91790
vn 0.41040 -0.02774 0.91148
vn -0.56341 -0.31022 0.76572
vn -0.58096 -0.32350 0.74688
vn -0.35367 -0.22871 0.90698
vn -0.34284 -0.22326 0.91248
vn -0.33371 -0.21674 0.91742
vn -0.54613 -0.29909 0.78249
vn -0.80129 -0.40637 0.43909
vn -0.80917 -0.41959 0.41131
vn -0.79210 -0.39936 0.46161
vn 0.93822 0.04470 0.34314
vn 0.95437 0.04627 0.29503
vn 0.68534 0.01313 0.72811
vn 0.72713 0.00650 0.68647
vn 0.43347 -0.02506 0.90082
vn 0.47592 -0.04342 0.87841
vn -0.60165 -0.33657 0.72439
vn -0.63116 -0.36146 0.68628
vn -0.38724 -0.27668 0.87948
vn -0.36662 -0.24020 0.89883
vn -0.83102 -0.44045 0.33972
vn -0.84851 -0.44231 0.29052
vn -0.81763 -0.43456 0.37767
vn 0.97175 0.03795 0.23293
vn 0.98516 0.01146 0.17123
vn 0.78160 -0.01534 0.62359
vn 0.82518 -0.02596 0.56428
vn 0.53742 -0.07557 0.83992
vn 0.58330 -0.06801 0.80940
vn -0.67860 -0.38387 0.62621
vn -0.75805 -0.26780 0.59468
vn -0.53614 -0.24183 0.80875
vn -0.44175 -0.32248 0.83717
vn -0.87348 -0.42718 0.23355
vn -0.93864 -0.27819 0.20387
vn -0.97376 0.08270 0.21201
vn -0.79755 0.55209 0.24310
vn -0.79167 0.07514 0.60631
vn -0.62256 0.47460 0.62223
vn -0.47784 0.82416 0.30403
vn -0.35775 0.64758 0.67279
vn -0.43656 0.39909 0.80631
vn -0.58064 0.06638 0.81145
vn -0.21628 0.48922 0.84492
vn -0.20924 0.61801 0.75781
vn 0.18452 0.17408 0.96729
vn 0.75295 -0.09454 0.65125
vn 0.82648 -0.02544 0.56239
vn 0.60969 0.05628 0.79064
vn 0.54635 0.00074 0.83756
vn 0.64196 -0.19792 0.74075
vn 0.12932 0.08337 0.98809
vn 0.49001 -0.34369 0.80110
vn 0.87644 -0.31766 0.36187
vn 0.94354 -0.17917 0.27863
vn 0.72097 -0.55056 0.42082
vn 0.28111 -0.48395 0.82871
vn 0.42224 -0.78483 0.45360
vn 0.15441 -0.87594 0.45704
vn 0.01099 -0.89287 0.45017
vn -0.10478 -0.89358 0.43651
vn 0.00374 -0.58228 0.81298
vn -0.08197 -0.58982 0.80336
vn 0.10882 -0.55578 0.82417
vn 0.01016 0.00796 0.99992
vn -0.03881 0.00204 0.99924
vn 0.06336 0.02978 0.99755
vn -0.13338 0.55002 0.82443
vn -0.11307 0.55415 0.82470
vn -0.16151 0.56649 0.80809
vn -0.24279 0.85572 0.45694
vn -0.20928 0.84867 0.48576
vn -0.30487 0.86685 0.39448
vn 0.98879 -0.03689 0.14466
vn 0.97767 -0.09508 0.18739
vn 0.97664 -0.03503 0.21199
vn 0.60815 0.01223 0.79373
vn -0.23073 -0.87952 0.41617
vn -0.37063 -0.84501 0.38548
vn -0.17230 -0.58601 0.79178
vn -0.27960 -0.56719 0.77467
vn -0.12889 -0.33815 0.93223
vn -0.20519 -0.31971 0.92503
vn -0.06747 -0.34225 0.93718
vn -0.09484 0.58314 0.80681
vn -0.09141 0.60446 0.79137
vn -0.07543 0.37070 0.92569
vn -0.06998 0.35390 0.93266
vn -0.10488 0.56617 0.81759
vn -0.15785 0.85573 0.49275
vn -0.14083 0.86770 0.47673
vn -0.18349 0.84838 0.49656
vn -0.52532 -0.77967 0.34082
vn -0.68153 -0.67299 0.28740
vn -0.40557 -0.52964 0.74498
vn -0.53611 -0.46881 0.70200
vn -0.29248 -0.29048 0.91109
vn -0.37808 -0.25614 0.88963
vn -0.04742 0.67765 0.73385
vn 0.14006 0.72855 0.67053
vn 0.09084 0.54263 0.83504
vn -0.06306 0.45552 0.88799
vn -0.08680 0.39986 0.91246
vn -0.08935 0.63148 0.77022
vn -0.11186 0.90082 0.41954
vn -0.06030 0.92709 0.36996
vn -0.12731 0.88322 0.45135
vn -0.82451 -0.50867 0.24788
vn -0.92836 -0.28003 0.24442
vn -0.64684 -0.36360 0.67037
vn -0.70820 -0.22058 0.67067
vn -0.43726 -0.20322 0.87607
vn -0.45137 -0.15107 0.87946
vn 0.52057 0.57800 0.62843
vn 0.77402 0.13810 0.61792
vn 0.59413 0.10493 0.79750
vn 0.40202 0.45622 0.79388
vn 0.63579 0.72382 0.26804
vn 0.95388 0.16696 0.24949
vn 0.16323 0.93698 0.30890
vn -0.96113 -0.03914 0.27331
vn -0.93793 0.14098 0.31689
vn -0.71576 -0.06828 0.69500
vn -0.68672 0.06449 0.72405
vn -0.44324 -0.09399 0.89146
vn -0.42861 -0.01356 0.90339
vn 0.71667 -0.27481 0.64098
vn 0.57605 -0.44915 0.68295
vn 0.38244 -0.33794 0.85996
vn 0.52034 -0.22249 0.82446
vn 0.89800 -0.34690 0.27066
vn 0.75712 -0.57255 0.31457
vn 0.70463 -0.61327 0.35693
vn 0.68831 -0.61564 0.38369
vn 0.51353 -0.45961 0.72460
vn 0.49725 -0.44514 0.74471
vn 0.67529 -0.61899 0.40104
vn 0.48274 -0.43942 0.75755
vn 0.31374 -0.29620 0.90213
vn 0.32203 -0.32015 0.89095
vn 0.30531 -0.28153 0.90968
vn 0.46851 -0.43961 0.76632
vn 0.29840 -0.26288 0.91752
vn -0.54543 0.27907 0.79033
vn -0.59794 0.22370 0.76969
vn -0.35895 0.11208 0.92660
vn -0.31156 0.15256 0.93790
vn -0.24205 0.20441 0.94849
vn -0.46505 0.35598 0.81056
vn 0.09662 0.02434 0.99502
vn -0.33229 0.46394 0.82118
vn -0.73560 0.53396 0.41687
vn -0.81175 0.41926 0.40655
vn -0.58772 0.69272 0.41800
vn 0.64152 -0.65678 0.39635
vn 0.65661 -0.63612 0.40523
vn 0.47096 -0.43255 0.76883
vn -0.89617 0.26148 0.35847
vn -0.85778 0.33778 0.38746
vn -0.64104 0.16357 0.74987
vn -0.39672 0.06315 0.91577
f 1//1 5//2 6//3 7//4
f 1//1 7//4 8//5 9//6
f 1//1 9//6 10//7 5//2
f 2//8 11//9 12//10 13//11
f 2//8 9//6 8//5 11//9
f 2//8 13//11 10//7 9//6
f 3//12 14//13 15//14 16//15
f 3//12 16//15 17//16 18//17
f 3//12 18//17 19//18 14//13
f 4//19 20//20 21//21 22//22
f 4//19 22//22 19//18 18//17
f 22//22 23//23 24//24 19//18
f 22//22 21//21 25//25 23//23
f 25//25 26//26 27//27 23//23
f 25//25 21//21 248//28 249//29
f 25//25 249//29 28//30 26//26
f 28//30 29//31 30//32 26//26
f 31//33 32//34 33//35 34//36
f 31//33 34//36 30//32 29//31
f 34//36 33//35 35//37 36//38
f 34//36 36//38 37//39 30//32
f 37//39 36//38 38//40 39//41
f 37//39 39//41 40//42 27//27
f 37//39 27//27 26//26 30//32
f 40//42 39//41 41//43 42//44
f 40//42 42//44 43//45 24//24
f 40//42 24//24 23//23 27//27
f 43//45 42//44 44//46 45//47
f 43//45 45//47 15//14 14//13
f 43//45 14//13 19//18 24//24
f 45//47 44//46 250//48 251//49
f 45//47 251//49 46//50 15//14
f 46//50 47//51 16//15 15//14
f 47//51 48//52 17//16 16//15
f 48//52 49//53 20//20 17//16
f 49//53 248//28 21//21 20//20
f 51//54 50//55 52//56 53//57
f 51//54 53//57 33//35 32//34
f 53//57 52//56 54//58 55//59
f 53//57 55//59 35//37 33//35
f 55//59 54//58 56//60 57//61
f 55//59 57//61 58//62 35//37
f 58//62 57//63 59//64 60//65
f 58//62 60//65 61//66 38//40
f 58//62 38//40 36//38 35//37
f 61//66 60//65 62//67 63//68
f 61//66 63//68 64//69 41//43
f 61//66 41//43 39//41 38//40
f 64//69 63//68 252//70 253//71
f 64//69 253//71 250//48 44//46
f 64//69 44//46 42//44 41//43
f 67//72 66//73 68//74 69//75
f 67//72 69//75 52//56 50//55
f 69//75 68//74 70//76 71//77
f 69//75 71//77 54//58 52//56
f 71//77 70//76 72//78 73//79
f 71//77 73//79 56//60 54//58
f 73//80 72//81 74//82 75//83
f 73//80 75//83 76//84 56//85
f 76//84 75//83 77//86 78//87
f 76//84 78//87 79//88 59//64
f 76//84 59//64 57//63 56//85
f 79//88 78//87 80//89 65//90
f 79//88 65//90 254//91 62//67
f 79//88 62//67 60//65 59//64
f 80//89 78//87 77//86 255//92
f 83//93 82//94 84//95 85//96
f 83//93 85//96 68//74 66//73
f 85//96 84//95 86//97 87//98
f 85//96 87//98 70//76 68//74
f 87//98 86//97 88//99 89//100
f 87//98 89//100 72//78 70//76
f 89//101 88//102 90//103 91//104
f 89//101 91//104 74//82 72//81
f 91//104 90//103 92//105 93//106
f 91//104 93//106 94//107 74//82
f 94//107 93//106 95//108 81//109
f 94//107 81//109 255//92 77//86
f 94//107 77//86 75//83 74//82
f 95//108 93//106 92//105 256//110
f 98//111 97//112 99//113 100//114
f 98//111 100//114 84//95 82//94
f 100//114 99//113 101//115 102//116
f 100//114 102//116 86//97 84//95
f 102//116 101//115 103//117 104//118
f 102//116 104//118 88//99 86//97
f 104//119 103//120 105//121 106//122
f 104//119 106//122 90//103 88//102
f 106//122 105//121 107//123 108//124
f 106//122 108//124 92//105 90//103
f 108//124 107//123 109//125 96//126
f 108//124 96//126 256//110 92//105
f 109//125 107//123 111//127 110//128
f 111//127 112//129 113//130 110//128
f 111//127 107//123 105//121 114//131
f 111//127 114//131 115//132 112//129
f 115//132 116//133 117//134 112//129
f 115//132 114//131 118//135 119//136
f 115//132 119//136 120//137 116//133
f 120//137 121//138 122//139 116//133
f 120//140 119//141 123//142 124//143
f 120//140 124//143 125//144 121//138
f 125//144 126//145 127//146 121//138
f 125//144 124//143 128//147 129//148
f 125//144 129//148 130//149 126//145
f 130//149 131//150 132//151 126//145
f 130//149 129//148 257//152 133//153
f 130//149 133//153 134//154 131//150
f 134//154 135//155 136//156 131//150
f 137//157 138//158 139//159 140//160
f 137//157 140//160 136//156 135//155
f 140//160 139//159 141//161 142//162
f 140//160 142//162 143//163 136//156
f 143//163 142//162 144//164 145//165
f 143//163 145//165 146//166 132//151
f 143//163 132//151 131//150 136//156
f 146//166 145//165 147//167 148//168
f 146//166 148//168 149//169 127//146
f 146//166 127//146 126//145 132//151
f 149//169 148//168 150//170 151//171
f 149//169 151//171 152//172 122//139
f 149//169 122//139 121//138 127//146
f 152//172 151//171 153//173 258//174
f 152//172 258//174 259//175 117//134
f 152//172 117//134 116//133 122//139
f 259//175 113//130 112//129 117//134
f 261//176 260//177 154//178 155//179
f 261//176 155//179 99//113 97//112
f 155//179 154//178 123//142 156//180
f 155//179 156//180 101//115 99//113
f 156//180 123//142 119//141 118//181
f 156//180 118//181 103//117 101//115
f 154//178 128//147 124//143 123//142
f 154//178 260//177 262//182 128//147
f 262//182 257//152 129//148 128//147
f 158//183 157//184 159//185 160//186
f 158//183 160//186 139//159 138//158
f 160//186 159//185 161//187 162//188
f 160//186 162//188 141//161 139//159
f 162//188 161//187 163//189 164//190
f 162//188 164//190 165//191 141//161
f 165//192 164//193 166//194 167//195
f 165//192 167//195 168//196 144//164
f 165//191 144//164 142//162 141//161
f 168//196 167//195 169//197 170//198
f 168//196 170//198 171//199 147//167
f 168//196 147//167 145//165 144//164
f 171//199 170//198 263//200 172//201
f 171//199 172//201 173//202 150//170
f 171//199 150//170 148//168 147//167
f 173//202 153//173 151//171 150//170
f 175//203 265//204 176//205 177//206
f 175//203 177//206 159//185 157//184
f 177//206 176//205 178//207 179//208
f 177//206 179//208 161//187 159//185
f 179//208 178//207 180//209 181//210
f 179//208 181//210 163//189 161//187
f 181//211 180//212 182//213 183//214
f 181//211 183//214 184//215 163//216
f 184//215 183//214 185//217 186//218
f 184//215 186//218 187//219 166//194
f 184//215 166//194 164//193 163//216
f 187//219 186//218 188//220 174//221
f 187//219 174//221 264//222 169//197
f 187//219 169//197 167//195 166//194
f 188//220 186//218 185//217 266//223
f 268//224 267//225 190//226 191//227
f 268//224 191//227 176//205 265//204
f 191//227 190//226 192//228 193//229
f 191//227 193//229 178//207 176//205
f 193//229 192//228 194//230 195//231
f 193//229 195//231 180//209 178//207
f 195//232 194//233 196//234 197//235
f 195//232 197//235 182//213 180//212
f 197//235 196//234 198//236 199//237
f 197//235 199//237 200//238 182//213
f 200//238 199//237 201//239 189//240
f 200//238 189//240 266//223 185//217
f 200//238 185//217 183//214 182//213
f 201//241 199//237 198//236 202//242
f 204//243 269//244 205//245 206//246
f 204//243 206//246 190//226 267//225
f 206//246 205//245 207//247 208//248
f 206//246 208//248 192//228 190//226
f 208//248 207//247 209//249 210//250
f 208//248 210//250 194//230 192//228
f 210//251 209//252 211//253 212//254
f 210//251 212//254 196//234 194//233
f 212//254 211//253 213//255 214//256
f 212//254 214//256 198//236 196//234
f 214//256 213//255 215//257 203//258
f 214//256 203//258 202//242 198//236
f 215//257 213//255 217//259 216//260
f 217//259 218//261 219//262 216//260
f 217//259 213//255 211//253 220//263
f 217//259 220//263 221//264 218//261
f 221//264 222//265 223//266 218//261
f 221//264 220//263 224//267 225//268
f 221//264 225//268 226//269 222//265
f 226//269 227//270 228//271 222//265
f 226//272 225//273 229//274 230//275
f 226//272 230//275 231//276 227//277
f 231//276 232//278 233//279 227//277
f 231//276 230//275 234//280 235//281
f 231//276 235//281 236//282 232//278
f 236//282 6//3 5//2 232//278
f 236//282 235//281 270//283 271//284
f 236//282 271//284 237//285 6//3
f 237//285 238//286 7//4 6//3
f 239//287 272//288 240//289 12//10
f 239//287 12//10 11//9 241//290
f 241//291 11//9 8//5 242//291
f 242//292 8//5 7//4 238//286
f 240//289 272//288 273//293 243//294
f 240//289 243//294 228//271 244//295
f 240//289 244//295 13//11 12//10
f 244//295 228//271 227//270 233//279
f 244//295 233//279 10//7 13//11
f 243//294 273//293 274//296 223//266
f 243//294 223//266 222//265 228//271
f 274//296 219//262 218//261 223//266
f 276//297 275//298 245//299 246//300
f 276//297 246//300 205//245 269//244
f 246//300 245//299 229//274 247//301
f 246//300 247//301 207//247 205//245
f 247//301 229//274 225//273 224//302
f 247//301 224//302 209//249 207//247
f 245//299 234//280 230//275 229//274
f 245//299 275//298 277//303 234//280
f 277//303 270//283 235//281 234//280
f 233//279 232//278 5//2 10//7
f 224//267 220//263 211//253 209//252
f 264//222 263//200 170//198 169//197
f 118//135 114//131 105//121 103//120
f 254//91 252//70 63//68 62//67
f 20//20 4//19 18//17 17//16
f 284//304 283//305 282//306 278//307
f 286//308 285//309 284//304 278//307
f 282//306 287//310 286//308 278//307
f 290//311 289//312 288//313 279//314
f 288//313 285//309 286//308 279//314
f 286//308 287//310 290//311 279//314
f 293//315 292//316 291//317 280//318
f 295//319 294//320 293//315 280//318
f 291//317 296//321 295//319 280//318
f 299//322 298//323 297//324 281//325
f 295//319 296//321 299//322 281//325
f 296//321 301//326 300//327 299//322
f 300//327 302//328 298//323 299//322
f 300//327 304//329 303//330 302//328
f 249//29 248//28 298//323 302//328
f 303//330 28//30 249//29 302//328
f 303//330 305//331 29//332 28//30
f 307//333 306//334 32//34 31//33
f 29//332 305//331 307//333 31//33
f 309//335 308//336 306//334 307//333
f 305//331 310//337 309//335 307//333
f 312//338 311//339 309//335 310//337
f 304//329 313//340 312//338 310//337
f 305//331 303//330 304//329 310//337
f 315//341 314//342 312//338 313//340
f 301//326 316//343 315//341 313//340
f 304//329 300//327 301//326 313//340
f 318//344 317//345 315//341 316//343
f 291//317 292//316 318//344 316//343
f 301//326 296//321 291//317 316//343
f 251//49 250//48 317//345 318//344
f 292//316 46//50 251//49 318//344
f 292//316 293//315 47//51 46//50
f 293//315 294//320 48//52 47//51
f 294//320 297//324 49//53 48//52
f 297//324 298//323 248//28 49//53
f 320//346 319//347 50//55 51//54
f 32//34 306//334 320//346 51//54
f 322//348 321//349 319//347 320//346
f 306//334 308//336 322//348 320//346
f 324//350 323//351 321//349 322//348
f 308//336 325//352 324//350 322//348
f 327//353 326//354 324//355 325//352
f 311//339 328//356 327//353 325//352
f 308//336 309//335 311//339 325//352
f 330//357 329//358 327//353 328//356
f 314//342 331//359 330//357 328//356
f 311//339 312//338 314//342 328//356
f 253//71 252//70 330//357 331//359
f 317//345 250//48 253//71 331//359
f 314//342 315//341 317//345 331//359
f 333//360 332//361 66//73 67//72
f 50//55 319//347 333//360 67//72
f 335//362 334//363 332//361 333//360
f 319//347 321//349 335//362 333//360
f 337//364 336//365 334//363 335//362
f 321//349 323//351 337//364 335//362
f 339//366 338//367 336//368 337//369
f 323//370 340//371 339//366 337//369
f 342//372 341//373 339//366 340//371
f 326//354 343//374 342//372 340//371
f 323//370 324//355 326//354 340//371
f 65//90 80//89 342//372 343//374
f 329//358 254//91 65//90 343//374
f 326//354 327//353 329//358 343//374
f 255//92 341//373 342//372 80//89
f 345//375 344//376 82//94 83//93
f 66//73 332//361 345//375 83//93
f 347//377 346//378 344//376 345//375
f 332//361 334//363 347//377 345//375
f 349//379 348//380 346//378 347//377
f 334//363 336//365 349//379 347//377
f 351//381 350//382 348//383 349//384
f 336//368 338//367 351//381 349//384
f 353//385 352//386 350//382 351//381
f 338//367 354//387 353//385 351//381
f 81//109 95//108 353//385 354//387
f 341//373 255//92 81//109 354//387
f 338//367 339//366 341//373 354//387
f 256//110 352//386 353//385 95//108
f 356//388 355//389 97//112 98//111
f 82//94 344//376 356//388 98//111
f 358//390 357//391 355//389 356//388
f 344//376 346//378 358//390 356//388
f 360//392 359//393 357//391 358//390
f 346//378 348//380 360//392 358//390
f 362//394 361//395 359//396 360//397
f 348//383 350//382 362//394 360//397
f 364//398 363//399 361//395 362//394
f 350//382 352//386 364//398 362//394
f 96//126 109//125 363//399 364//398
f 352//386 256//110 96//126 364//398
f 110//128 365//400 363//399 109//125
f 110//128 113//130 366//401 365//400
f 367//402 361//395 363//399 365//400
f 366//401 368//403 367//402 365//400
f 366//401 370//404 369//405 368//403
f 372//406 371//407 367//402 368//403
f 369//405 373//408 372//406 368//403
f 369//405 375//409 374//410 373//408
f 377//411 376//412 372//413 373//414
f 374//410 378//415 377//411 373//414
f 374//410 380//416 379//417 378//415
f 382//418 381//419 377//411 378//415
f 379//417 383//420 382//418 378//415
f 379//417 385//421 384//422 383//420
f 133//153 257//152 382//418 383//420
f 384//422 134//154 133//153 383//420
f 384//422 386//423 135//155 134//154
f 388//424 387//425 138//158 137//157
f 135//155 386//423 388//424 137//157
f 390//426 389//427 387//425 388//424
f 386//423 391//428 390//426 388//424
f 393//429 392//430 390//426 391//428
f 385//421 394//431 393//429 391//428
f 386//423 384//422 385//421 391//428
f 396//432 395//433 393//429 394//431
f 380//416 397//434 396//432 394//431
f 385//421 379//417 380//416 394//431
f 399//435 398//436 396//432 397//434
f 375//409 400//437 399//435 397//434
f 380//416 374//410 375//409 397//434
f 258//174 153//173 399//435 400//437
f 370//404 259//175 258//174 400//437
f 375//409 369//405 370//404 400//437
f 370//404 366//401 113//130 259//175
f 402//438 401//439 260//177 261//176
f 97//112 355//389 402//438 261//176
f 403//440 376//412 401//439 402//438
f 355//389 357//391 403//440 402//438
f 371//441 372//413 376//412 403//441
f 357//391 359//393 371//441 403//441
f 376//412 377//411 381//419 401//439
f 381//419 262//182 260//177 401//439
f 381//419 382//418 257//152 262//182
f 405//442 404//443 157//184 158//183
f 138//158 387//425 405//442 158//183
f 407//444 406//445 404//443 405//442
f 387//425 389//427 407//444 405//442
f 409//446 408//447 406//445 407//444
f 389//427 410//448 409//446 407//444
f 412//449 411//450 409//451 410//452
f 392//430 413//453 412//449 410//452
f 389//427 390//426 392//430 410//448
f 415//454 414//455 412//449 413//453
f 395//433 416//456 415//454 413//453
f 392//430 393//429 395//433 413//453
f 172//201 263//200 415//454 416//456
f 398//436 173//202 172//201 416//456
f 395//433 396//432 398//436 416//456
f 398//436 399//435 153//173 173//202
f 418//457 417//458 265//204 175//203
f 157//184 404//443 418//457 175//203
f 420//459 419//460 417//458 418//457
f 404//443 406//445 420//459 418//457
f 422//461 421//462 419//460 420//459
f 406//445 408//447 422//461 420//459
f 424//463 423//464 421//465 422//466
f 408//467 425//468 424//463 422//466
f 427//469 426//470 424//463 425//468
f 411//450 428//471 427//469 425//468
f 408//467 409//451 411//450 425//468
f 174//221 188//220 427//469 428//471
f 414//455 264//222 174//221 428//471
f 411//450 412//449 414//455 428//471
f 266//223 426//470 427//469 188//220
f 430//472 429//473 267//225 268//224
f 265//204 417//458 430//472 268//224
f 432//474 431//475 429//473 430//472
f 417//458 419//460 432//474 430//472
f 434//476 433//477 431//475 432//474
f 419//460 421//462 434//476 432//474
f 436//478 435//479 433//480 434//481
f 421//465 423//464 436//478 434//481
f 438//482 437//483 435//479 436//478
f 423//464 439//484 438//482 436//478
f 189//240 201//239 438//482 439//484
f 426//470 266//223 189//240 439//484
f 423//464 424//463 426//470 439//484
f 202//242 437//483 438//482 201//241
f 441//485 440//486 269//244 204//243
f 267//225 429//473 441//485 204//243
f 443//487 442//488 440//486 441//485
f 429//473 431//475 443//487 441//485
f 445//489 444//490 442//488 443//487
f 431//475 433//477 445//489 443//487
f 447//491 446//492 444//493 445//494
f 433//480 435//479 447//491 445//494
f 449//495 448//496 446//492 447//491
f 435//479 437//483 449//495 447//491
f 203//258 215//257 448//496 449//495
f 437//483 202//242 203//258 449//495
f 216//260 450//497 448//496 215//257
f 216//260 219//262 451//498 450//497
f 452//499 446//492 448//496 450//497
f 451//498 453//500 452//499 450//497
f 451//498 455//501 454//502 453//500
f 457//503 456//504 452//499 453//500
f 454//502 458//505 457//503 453//500
f 454//502 460//506 459//507 458//505
f 462//508 461//509 457//510 458//511
f 459//512 463//513 462//508 458//511
f 459//512 465//514 464//515 463//513
f 467//516 466//517 462//508 463//513
f 464//515 468//518 467//516 463//513
f 464//515 282//306 283//305 468//518
f 271//284 270//283 467//516 468//518
f 283//305 237//285 271//284 468//518
f 283//305 284//304 238//286 237//285
f 289//312 469//519 272//288 239//287
f 241//290 288//313 289//312 239//287
f 242//291 285//309 288//313 241//291
f 238//286 284//304 285//309 242//292
f 470//520 273//293 272//288 469//519
f 471//521 460//506 470//520 469//519
f 289//312 290//311 471//521 469//519
f 465//514 459//507 460//506 471//521
f 290//311 287//310 465//514 471//521
f 455//501 274//296 273//293 470//520
f 460//506 454//502 455//501 470//520
f 455//501 451//498 219//262 274//296
f 473//522 472//523 275//298 276//297
f 269//244 440//486 473//522 276//297
f 474//524 461//509 472//523 473//522
f 440//486 442//488 474//524 473//522
f 456//525 457//510 461//509 474//524
f 442//488 444//490 456//525 474//524
f 461//509 462//508 466//517 472//523
f 466//517 277//303 275//298 472//523
f 466//517 467//516 270//283 277//303
f 287//310 282//306 464//515 465//514
f 444//493 446//492 452//499 456//504
f 414//455 415//454 263//200 264//222
f 359//396 361//395 367//402 371//407
f 329//358 330//357 252//70 254//91
f 294//320 295//319 281//325 297//324
