# pilowlava3D glyph 'j' variant 2 — Vincent Wagner / Velvetyne, Free Art License
v 1.62214 2.82001 -0.37219
v 2.14960 4.21364 -0.36530
v 1.76716 2.62694 -0.29623
v 1.40221 4.12963 -0.36358
v 1.53188 2.85175 -0.29434
v 1.55616 3.09534 -0.36605
v 1.67616 3.09966 -0.47433
v 1.81943 2.88051 -0.46978
v 1.59370 2.63926 -0.19303
v 1.84382 3.13212 -0.54208
v 2.20315 4.07085 -0.39881
v 2.01088 4.07142 -0.50312
v 1.98035 4.27000 -0.41204
v 2.21002 4.29551 -0.22355
v 2.34476 4.09631 -0.21860
v 1.98013 4.41882 -0.23720
v 1.79807 2.40418 -0.00000
v 1.57854 2.60262 -0.00000
v 1.87652 2.44960 -0.28711
v 1.38439 3.95950 -0.39527
v 1.24737 3.95155 -0.21328
v 1.32156 4.18848 -0.22309
v 1.52968 4.20834 -0.41903
v 1.56921 4.00875 -0.51056
v 1.47963 4.35802 -0.24072
v 1.46452 4.40485 -0.00000
v 1.71503 4.48565 -0.00000
v 1.72142 4.43703 -0.24500
v 1.74328 4.27606 -0.43794
v 1.28446 4.21878 -0.00000
v 1.26405 3.71185 -0.21138
v 1.32800 3.26513 -0.00000
v 1.32352 3.49268 -0.20867
v 1.38892 3.28830 -0.20887
v 1.45071 3.53190 -0.39948
v 1.50755 3.32071 -0.39442
v 1.46153 3.09585 -0.19440
v 1.40984 3.08138 -0.00000
v 1.47265 2.88219 -0.16499
v 1.45410 2.89018 -0.00000
v 1.98447 4.46701 -0.00000
v 2.23134 4.33740 -0.00000
v 2.38985 4.12506 -0.00000
v 2.45380 3.88421 -0.00000
v 2.38380 3.87168 -0.21893
v 1.89233 2.24425 -0.00000
v 1.98910 2.07908 -0.00000
v 2.08286 1.91363 -0.00000
v 1.96455 2.27956 -0.26886
v 2.04964 2.10283 -0.24535
v 2.13025 1.92571 -0.21993
v 2.19007 2.14704 -0.39434
v 2.24503 1.94893 -0.36206
v 2.29467 1.75641 -0.32023
v 2.20899 1.74973 -0.18784
v 2.17528 1.74823 -0.00000
v 2.28082 1.57548 -0.15456
v 2.48388 2.21974 -0.00000
v 2.47905 2.42105 -0.00000
v 2.47522 2.62593 -0.00000
v 2.42873 2.41964 -0.20626
v 2.41780 2.62605 -0.20757
v 2.40730 2.83189 -0.21045
v 2.47169 2.83269 -0.00000
v 2.46877 3.03821 -0.00000
v 2.39789 3.03815 -0.21535
v 2.39413 3.24387 -0.21969
v 2.46947 3.24280 -0.00000
v 2.27613 2.81229 -0.38491
v 2.26068 3.01873 -0.39828
v 2.24633 3.22782 -0.41021
v 2.23293 3.43926 -0.41510
v 2.38834 3.44890 -0.21994
v 2.06647 2.96146 -0.50500
v 2.05511 3.18371 -0.53234
v 2.04249 3.41579 -0.54174
v 2.03613 3.64322 -0.54675
v 2.22830 3.65013 -0.41457
v 1.83979 3.38265 -0.57369
v 1.82568 3.61905 -0.58529
v 1.81355 3.84297 -0.57557
v 2.02998 3.86020 -0.53629
v 1.65755 3.34981 -0.51798
v 1.62207 3.57896 -0.53510
v 1.59586 3.79748 -0.53685
v 1.78784 4.05970 -0.54994
v 1.40200 3.74344 -0.40552
v 2.23076 3.86088 -0.41717
v 2.37698 3.65645 -0.21460
v 2.06956 2.74352 -0.47660
v 2.29485 2.60655 -0.37899
v 2.10016 2.54814 -0.45097
v 2.31783 2.39806 -0.37302
v 2.14162 2.34454 -0.42347
v 2.33879 2.18917 -0.36509
v 2.44129 2.21426 -0.20479
v 2.45117 2.01282 -0.19570
v 2.36689 1.98182 -0.34691
v 2.46415 1.80901 -0.17685
v 2.40164 1.78186 -0.31164
v 2.47659 1.60489 -0.15244
v 2.42901 1.58706 -0.26581
v 2.34104 1.57301 -0.27047
v 2.43795 1.39303 -0.23713
v 2.36429 1.39307 -0.23997
v 2.32384 1.39595 -0.13785
v 2.35442 1.21356 -0.25488
v 2.30612 1.21996 -0.14712
v 2.29449 1.22115 -0.00000
v 2.48651 2.02106 -0.00000
v 2.47838 1.39307 -0.13840
v 2.48399 1.16419 -0.00000
v 2.46958 1.17363 -0.14982
v 2.42978 1.19419 -0.25677
v 2.43943 0.94393 -0.18439
v 2.38334 0.99157 -0.31379
v 2.29568 1.04676 -0.31834
v 2.28884 0.78035 -0.37462
v 2.17706 0.88573 -0.38402
v 2.08488 0.99071 -0.23092
v 2.21641 1.08093 -0.18245
v 2.19312 1.09372 -0.00000
v 2.46368 0.92546 -0.00000
v 2.38407 0.70682 -0.22187
v 2.34531 0.42799 -0.00000
v 2.30090 0.45883 -0.23640
v 2.17365 0.56360 -0.40640
v 2.12437 0.22992 -0.25052
v 2.01527 0.40292 -0.43204
v 1.87309 0.66151 -0.45554
v 2.02026 0.75376 -0.42666
v 1.78312 0.87221 -0.26999
v 1.93234 0.92552 -0.25906
v 1.88669 0.03199 -0.00000
v 1.86533 0.10527 -0.26095
v 1.61032 0.00000 -0.00000
v 0.92898 0.80392 -0.00000
v 0.76192 0.77520 -0.00000
v 1.11459 0.74259 -0.25693
v 0.93788 0.72251 -0.24805
v 0.76296 0.70411 -0.24172
v 0.93938 0.54086 -0.42179
v 0.74908 0.54856 -0.40004
v 0.55792 0.58270 -0.36969
v 0.59070 0.70207 -0.22693
v 0.60069 0.74994 -0.00000
v 0.43272 0.72924 -0.20087
v 0.87595 0.07361 -0.00000
v 1.11600 0.02058 -0.00000
v 1.12480 0.09258 -0.24895
v 1.35849 0.08697 -0.25240
v 1.60069 0.08314 -0.25886
v 1.34969 0.27900 -0.44487
v 1.57426 0.28334 -0.45221
v 1.80445 0.30926 -0.45000
v 1.52184 0.56860 -0.46204
v 1.70748 0.59934 -0.46647
v 1.46491 0.79424 -0.27092
v 1.62914 0.82769 -0.27313
v 1.29153 0.76572 -0.26457
v 1.32448 0.55212 -0.45447
v 1.12968 0.54295 -0.43988
v 1.13293 0.27951 -0.43231
v 0.92058 0.29896 -0.41374
v 0.89229 0.13477 -0.24045
v 0.66560 0.21323 -0.23186
v 0.70613 0.34829 -0.39297
v 0.45824 0.33847 -0.21702
v 0.50340 0.43978 -0.36401
v 0.27435 0.49895 -0.19897
v 0.32115 0.56949 -0.32826
v 0.38358 0.66076 -0.33149
v 0.18513 0.73651 -0.30010
v 0.26307 0.78501 -0.29601
v 0.30965 0.81230 -0.18526
v 0.21132 0.94727 -0.30070
v 0.26662 0.95771 -0.18918
v 0.28307 0.96062 -0.00000
v 0.32375 0.82254 -0.00000
v 0.13393 0.70030 -0.18801
v 0.02457 0.92607 -0.00000
v 0.04915 0.92793 -0.18927
v 0.11391 0.93491 -0.30005
v 0.03234 1.16763 -0.20028
v 0.11124 1.14991 -0.32531
v 0.22433 1.12796 -0.32816
v 0.16317 1.35954 -0.35758
v 0.29501 1.30611 -0.35948
v 0.39223 1.26454 -0.21903
v 0.30349 1.11627 -0.20297
v 0.43477 1.24578 -0.00000
v 0.33084 1.11256 -0.00000
v 0.00000 1.17577 -0.00000
v 0.06564 1.39650 -0.21395
v 0.06930 1.62963 -0.00000
v 0.11919 1.61244 -0.22289
v 0.23861 1.56160 -0.37925
v 0.19336 1.82107 -0.22723
v 0.32594 1.75205 -0.39330
v 0.50606 1.63853 -0.39866
v 0.39691 1.47763 -0.38239
v 0.62670 1.54904 -0.23316
v 0.50543 1.40841 -0.22802
v 0.55164 1.37354 -0.00000
v 0.13983 1.84432 -0.00000
v 0.23528 2.05212 -0.00000
v 0.28974 2.02097 -0.23208
v 0.35740 2.25020 -0.00000
v 1.25433 2.24055 -0.00000
v 1.29205 2.41919 -0.00000
v 1.13749 2.07968 -0.23328
v 1.22294 2.25591 -0.20667
v 1.28539 2.43704 -0.17863
v 1.12461 2.33709 -0.35246
v 1.25738 2.48920 -0.29402
v 1.40814 2.62621 -0.28141
v 1.41951 2.56871 -0.16834
v 1.41922 2.55811 -0.00000
v 0.51877 2.43281 -0.00000
v 0.76120 2.52103 -0.22345
v 0.55742 2.39422 -0.23051
v 0.40760 2.21415 -0.23500
v 0.68731 2.27272 -0.40179
v 0.54657 2.11345 -0.40952
v 0.42879 1.93394 -0.40617
v 0.73782 1.95291 -0.41847
v 0.61786 1.79845 -0.41381
v 0.86588 1.82605 -0.23768
v 0.74693 1.69023 -0.23704
v 0.99860 1.94961 -0.23851
v 0.86800 2.08669 -0.41337
v 1.00257 2.20867 -0.39514
v 0.84702 2.39105 -0.38407
v 1.02270 2.47114 -0.35163
v 0.97297 2.56118 -0.20677
v 1.16766 2.60874 -0.17550
v 1.20474 2.56609 -0.28974
v 1.35023 2.69844 -0.15335
v 1.37418 2.66099 -0.25368
v 1.69472 2.55584 -0.00000
v 1.19738 3.96430 -0.00000
v 1.20273 3.70596 -0.00000
v 1.25741 3.47531 -0.00000
v 2.26070 1.57926 -0.00000
v 2.46356 3.66294 -0.00000
v 2.46867 3.45153 -0.00000
v 2.31322 1.39798 -0.00000
v 2.48998 1.82028 -0.00000
v 2.49423 1.61194 -0.00000
v 2.49148 1.39225 -0.00000
v 2.05306 1.03654 -0.00000
v 2.42390 0.68449 -0.00000
v 1.75621 0.96706 -0.00000
v 1.90403 1.00300 -0.00000
v 2.16321 0.17513 -0.00000
v 1.10017 0.83443 -0.00000
v 0.44753 0.75102 -0.00000
v 1.35876 0.00431 -0.00000
v 1.43916 0.89927 -0.00000
v 1.60127 0.93210 -0.00000
v 1.27135 0.86576 -0.00000
v 0.44121 0.30037 -0.00000
v 0.64777 0.16472 -0.00000
v 0.25774 0.47436 -0.00000
v 0.11473 0.68705 -0.00000
v 0.02334 1.41131 -0.00000
v 0.67484 1.50490 -0.00000
v 1.18372 2.03908 -0.00000
v 0.73724 2.56327 -0.00000
v 0.92056 1.77033 -0.00000
v 0.79845 1.63872 -0.00000
v 1.05119 1.89795 -0.00000
v 1.15308 2.62602 -0.00000
v 1.34194 2.71209 -0.00000
v 0.95403 2.59146 -0.00000
v 1.62214 2.82001 0.37219
v 2.14960 4.21364 0.36530
v 1.76716 2.62694 0.29623
v 1.40221 4.12963 0.36358
v 1.53188 2.85175 0.29434
v 1.55616 3.09534 0.36605
v 1.67616 3.09966 0.47433
v 1.81943 2.88051 0.46978
v 1.59370 2.63926 0.19303
v 1.84382 3.13212 0.54208
v 2.20315 4.07085 0.39881
v 2.01088 4.07142 0.50312
v 1.98035 4.27000 0.41204
v 2.21002 4.29551 0.22355
v 2.34476 4.09631 0.21860
v 1.98013 4.41882 0.23720
v 1.87652 2.44960 0.28711
v 1.38439 3.95950 0.39527
v 1.24737 3.95155 0.21328
v 1.32156 4.18848 0.22309
v 1.52968 4.20834 0.41903
v 1.56921 4.00875 0.51056
v 1.47963 4.35802 0.24072
v 1.72142 4.43703 0.24500
v 1.74328 4.27606 0.43794
v 1.26405 3.71185 0.21138
v 1.32352 3.49268 0.20867
v 1.38892 3.28830 0.20887
v 1.45071 3.53190 0.39948
v 1.50755 3.32071 0.39442
v 1.46153 3.09585 0.19440
v 1.47265 2.88219 0.16499
v 2.38380 3.87168 0.21893
v 1.96455 2.27956 0.26886
v 2.04964 2.10283 0.24535
v 2.13025 1.92571 0.21993
v 2.19007 2.14704 0.39434
v 2.24503 1.94893 0.36206
v 2.29467 1.75641 0.32023
v 2.20899 1.74973 0.18784
v 2.28082 1.57548 0.15456
v 2.42873 2.41964 0.20626
v 2.41780 2.62605 0.20757
v 2.40730 2.83189 0.21045
v 2.39789 3.03815 0.21535
v 2.39413 3.24387 0.21969
v 2.27613 2.81229 0.38491
v 2.26068 3.01873 0.39828
v 2.24633 3.22782 0.41021
v 2.23293 3.43926 0.41510
v 2.38834 3.44890 0.21994
v 2.06647 2.96146 0.50500
v 2.05511 3.18371 0.53234
v 2.04249 3.41579 0.54174
v 2.03613 3.64322 0.54675
v 2.22830 3.65013 0.41457
v 1.83979 3.38265 0.57369
v 1.82568 3.61905 0.58529
v 1.81355 3.84297 0.57557
v 2.02998 3.86020 0.53629
v 1.65755 3.34981 0.51798
v 1.62207 3.57896 0.53510
v 1.59586 3.79748 0.53685
v 1.78784 4.05970 0.54994
v 1.40200 3.74344 0.40552
v 2.23076 3.86088 0.41717
v 2.37698 3.65645 0.21460
v 2.06956 2.74352 0.47660
v 2.29485 2.60655 0.37899
v 2.10016 2.54814 0.45097
v 2.31783 2.39806 0.37302
v 2.14162 2.34454 0.42347
v 2.33879 2.18917 0.36509
v 2.44129 2.21426 0.20479
v 2.45117 2.01282 0.19570
v 2.36689 1.98182 0.34691
v 2.46415 1.80901 0.17685
v 2.40164 1.78186 0.31164
v 2.47659 1.60489 0.15244
v 2.42901 1.58706 0.26581
v 2.34104 1.57301 0.27047
v 2.43795 1.39303 0.23713
v 2.36429 1.39307 0.23997
v 2.32384 1.39595 0.13785
v 2.35442 1.21356 0.25488
v 2.30612 1.21996 0.14712
v 2.47838 1.39307 0.13840
v 2.46958 1.17363 0.14982
v 2.42978 1.19419 0.25677
v 2.43943 0.94393 0.18439
v 2.38334 0.99157 0.31379
v 2.29568 1.04676 0.31834
v 2.28884 0.78035 0.37462
v 2.17706 0.88573 0.38402
v 2.08488 0.99071 0.23092
v 2.21641 1.08093 0.18245
v 2.38407 0.70682 0.22187
v 2.30090 0.45883 0.23640
v 2.17365 0.56360 0.40640
v 2.12437 0.22992 0.25052
v 2.01527 0.40292 0.43204
v 1.87309 0.66151 0.45554
v 2.02026 0.75376 0.42666
v 1.78312 0.87221 0.26999
v 1.93234 0.92552 0.25906
v 1.86533 0.10527 0.26095
v 1.11459 0.74259 0.25693
v 0.93788 0.72251 0.24805
v 0.76296 0.70411 0.24172
v 0.93938 0.54086 0.42179
v 0.74908 0.54856 0.40004
v 0.55792 0.58270 0.36969
v 0.59070 0.70207 0.22693
v 0.43272 0.72924 0.20087
v 1.12480 0.09258 0.24895
v 1.35849 0.08697 0.25240
v 1.60069 0.08314 0.25886
v 1.34969 0.27900 0.44487
v 1.57426 0.28334 0.45221
v 1.80445 0.30926 0.45000
v 1.52184 0.56860 0.46204
v 1.70748 0.59934 0.46647
v 1.46491 0.79424 0.27092
v 1.62914 0.82769 0.27313
v 1.29153 0.76572 0.26457
v 1.32448 0.55212 0.45447
v 1.12968 0.54295 0.43988
v 1.13293 0.27951 0.43231
v 0.92058 0.29896 0.41374
v 0.89229 0.13477 0.24045
v 0.66560 0.21323 0.23186
v 0.70613 0.34829 0.39297
v 0.45824 0.33847 0.21702
v 0.50340 0.43978 0.36401
v 0.27435 0.49895 0.19897
v 0.32115 0.56949 0.32826
v 0.38358 0.66076 0.33149
v 0.18513 0.73651 0.30010
v 0.26307 0.78501 0.29601
v 0.30965 0.81230 0.18526
v 0.21132 0.94727 0.30070
v 0.26662 0.95771 0.18918
v 0.13393 0.70030 0.18801
v 0.04915 0.92793 0.18927
v 0.11391 0.93491 0.30005
v 0.03234 1.16763 0.20028
v 0.11124 1.14991 0.32531
v 0.22433 1.12796 0.32816
v 0.16317 1.35954 0.35758
v 0.29501 1.30611 0.35948
v 0.39223 1.26454 0.21903
v 0.30349 1.11627 0.20297
v 0.06564 1.39650 0.21395
v 0.11919 1.61244 0.22289
v 0.23861 1.56160 0.37925
v 0.19336 1.82107 0.22723
v 0.32594 1.75205 0.39330
v 0.50606 1.63853 0.39866
v 0.39691 1.47763 0.38239
v 0.62670 1.54904 0.23316
v 0.50543 1.40841 0.22802
v 0.28974 2.02097 0.23208
v 1.13749 2.07968 0.23328
v 1.22294 2.25591 0.20667
v 1.28539 2.43704 0.17863
v 1.12461 2.33709 0.35246
v 1.25738 2.48920 0.29402
v 1.40814 2.62621 0.28141
v 1.41951 2.56871 0.16834
v 0.76120 2.52103 0.22345
v 0.55742 2.39422 0.23051
v 0.40760 2.21415 0.23500
v 0.68731 2.27272 0.40179
v 0.54657 2.11345 0.40952
v 0.42879 1.93394 0.40617
v 0.73782 1.95291 0.41847
v 0.61786 1.79845 0.41381
v 0.86588 1.82605 0.23768
v 0.74693 1.69023 0.23704
v 0.99860 1.94961 0.23851
v 0.86800 2.08669 0.41337
v 1.00257 2.20867 0.39514
v 0.84702 2.39105 0.38407
v 1.02270 2.47114 0.35163
v 0.97297 2.56118 0.20677
v 1.16766 2.60874 0.17550
v 1.20474 2.56609 0.28974
v 1.35023 2.69844 0.15335
v 1.37418 2.66099 0.25368
vn -0.49225 -0.18881 -0.84973
vn -0.75582 0.14035 -0.63956
vn -0.76377 -0.18202 -0.61929
vn -0.49468 -0.19032 -0.84798
vn -0.21904 -0.34070 -0.91430
vn -0.45768 -0.57202 -0.68068
vn 0.00175 -0.88868 -0.45852
vn -0.13243 -0.17177 -0.97619
vn 0.51490 0.51831 -0.68281
vn 0.60730 0.28592 -0.74124
vn 0.30482 0.29374 -0.90598
vn 0.26074 0.59580 -0.75963
vn 0.62062 0.66892 -0.40912
vn 0.83293 0.34670 -0.43131
vn 0.26665 0.86602 -0.42297
vn -0.69027 -0.40869 -0.59708
vn -0.85198 -0.52358 0.00023
vn -0.59779 -0.80165 0.00260
vn 0.01502 -0.99988 0.00354
vn -0.66094 0.33147 -0.67327
vn -0.68656 0.10236 -0.71983
vn -0.90180 0.10569 -0.41904
vn -0.79659 0.44649 -0.40754
vn -0.42180 0.48569 -0.76563
vn -0.38434 0.18701 -0.90405
vn -0.49889 0.75296 -0.42914
vn -0.53726 0.84341 0.00043
vn -0.12116 0.99263 0.00001
vn -0.10937 0.89057 -0.44151
vn -0.07171 0.60291 -0.79458
vn -0.86140 0.50793 0.00007
vn -0.99105 0.13349 -0.00091
vn -0.88805 -0.13777 -0.43861
vn -0.98910 -0.14725 -0.00032
vn -0.96004 -0.27986 0.00025
vn -0.86269 -0.24870 -0.44036
vn -0.85640 -0.30263 -0.41832
vn -0.93639 -0.35097 0.00017
vn -0.69446 -0.18496 -0.69535
vn -0.71529 -0.22761 -0.66072
vn -0.90540 -0.22452 -0.36033
vn -0.96242 -0.27154 -0.00175
vn -0.92521 0.22070 -0.30868
vn -0.98835 -0.15215 -0.00365
vn 0.27915 0.96025 -0.00013
vn 0.66215 0.74937 -0.00086
vn 0.91417 0.40532 -0.00169
vn 0.99389 0.11037 -0.00128
vn 0.88065 0.08356 -0.46635
vn -0.87922 -0.47642 -0.00006
vn -0.87129 -0.49076 0.00006
vn -0.73089 -0.40620 -0.54846
vn -0.76780 -0.41177 -0.49085
vn -0.80409 -0.41712 -0.42361
vn -0.88511 -0.46538 0.00006
vn -0.63332 -0.33517 -0.69754
vn -0.70173 -0.35755 -0.61622
vn -0.76877 -0.36918 -0.52221
vn -0.84219 -0.41196 -0.34785
vn -0.89546 -0.44514 0.00009
vn -0.90382 -0.32307 -0.28059
vn -0.93864 -0.34490 -0.00007
vn 0.99944 0.03349 -0.00004
vn 0.99926 0.03835 -0.00012
vn 0.91282 0.04747 -0.40559
vn 0.90117 0.04219 -0.43140
vn 0.89178 0.03076 -0.45142
vn 0.99958 0.02907 -0.00000
vn 0.88573 0.01534 -0.46395
vn 0.99989 0.01504 0.00000
vn 0.87934 0.01465 -0.47597
vn 0.99995 0.00984 0.00004
vn 0.63072 -0.00644 -0.77598
vn 0.65718 -0.02054 -0.75346
vn 0.67152 -0.00035 -0.74099
vn 0.67924 0.01994 -0.73365
vn 0.87319 0.03135 -0.48636
vn 0.20889 -0.16661 -0.96364
vn 0.30949 -0.08118 -0.94743
vn 0.35760 -0.02398 -0.93357
vn 0.36894 0.01287 -0.92936
vn 0.68173 0.00946 -0.73155
vn -0.06777 -0.08868 -0.99375
vn -0.02848 -0.01588 -0.99947
vn -0.01242 0.07647 -0.99699
vn 0.35150 0.09752 -0.93109
vn -0.45303 -0.15633 -0.87768
vn -0.41374 -0.09400 -0.90553
vn -0.38769 -0.00156 -0.92179
vn -0.02809 0.28121 -0.95923
vn -0.68863 -0.09154 -0.71931
vn 0.66265 0.07550 -0.74511
vn 0.87515 0.01414 -0.48364
vn 0.99973 0.02338 -0.00034
vn 0.99955 0.03001 -0.00003
vn 0.42149 -0.04548 -0.90569
vn -0.33221 -0.29204 -0.89686
vn 0.60714 0.01366 -0.79447
vn 0.35067 -0.02467 -0.93618
vn -0.49179 -0.27300 -0.82681
vn 0.58883 0.01173 -0.80817
vn 0.28212 -0.03401 -0.95878
vn -0.56262 -0.30600 -0.76800
vn 0.21375 -0.06526 -0.97471
vn 0.84372 0.04905 -0.53454
vn 0.92554 0.04187 -0.37634
vn 0.94049 0.03626 -0.33788
vn 0.87112 0.04199 -0.48927
vn 0.16112 -0.12512 -0.97897
vn 0.95536 0.03180 -0.29373
vn 0.90057 0.02964 -0.43369
vn 0.12487 -0.19390 -0.97304
vn 0.96589 0.00777 -0.25884
vn 0.91893 0.00129 -0.39443
vn 0.08325 -0.18801 -0.97863
vn 0.03875 -0.03083 -0.99877
vn -0.84886 -0.29609 -0.43792
vn -0.91418 -0.06134 -0.40065
vn -0.96623 -0.07052 -0.24784
vn -0.84537 0.31450 -0.43179
vn -0.90018 0.34299 -0.26837
vn -0.93262 0.36085 0.00027
vn -0.99689 -0.07875 0.00008
vn 0.99956 0.02976 -0.00005
vn 0.99946 0.03272 -0.00008
vn 0.99942 0.03419 -0.00003
vn 0.99991 0.01354 0.00011
vn 0.99981 -0.01973 0.00010
vn 0.97087 -0.01653 -0.23902
vn 0.99781 -0.06617 0.00008
vn 0.96778 -0.05728 -0.24520
vn 0.92485 -0.04691 -0.37744
vn 0.92770 -0.01325 -0.37309
vn 0.94329 -0.13623 -0.30272
vn 0.88177 -0.13023 -0.45334
vn 0.07684 0.18103 -0.98047
vn 0.17695 0.23773 -0.95508
vn 0.20175 0.13957 -0.96944
vn -0.58943 0.61260 -0.52658
vn -0.33962 0.68448 -0.64510
vn -0.36175 0.81859 -0.44615
vn -0.62866 0.69731 -0.34430
vn -0.36972 0.92914 -0.00025
vn -0.64640 0.76300 -0.00098
vn 0.99011 -0.14027 0.00017
vn 0.97045 -0.24128 0.00014
vn 0.89154 -0.22929 -0.39063
vn 0.89200 -0.45204 0.00026
vn 0.78826 -0.40162 -0.46620
vn 0.44027 -0.15472 -0.88444
vn 0.78902 -0.21193 -0.57666
vn 0.55794 -0.64841 -0.51794
vn 0.30333 -0.27384 -0.91269
vn 0.12770 -0.01102 -0.99175
vn 0.17439 0.04348 -0.98372
vn -0.22383 0.64326 -0.73219
vn -0.18368 0.61018 -0.77067
vn -0.22244 0.78699 -0.57547
vn -0.25394 0.80867 -0.53063
vn -0.26053 0.96547 -0.00019
vn -0.28032 0.95991 0.00079
vn 0.64662 -0.76281 0.00001
vn 0.28004 -0.95999 -0.00040
vn 0.24055 -0.80956 -0.53549
vn -0.14770 0.98903 -0.00009
vn -0.15777 0.98748 0.00014
vn -0.12761 0.82305 -0.55345
vn -0.11690 0.83960 -0.53047
vn -0.08366 0.86509 -0.49458
vn -0.11831 0.99298 0.00048
vn -0.08662 0.69050 -0.71812
vn -0.04739 0.72181 -0.69047
vn 0.06118 0.77172 -0.63301
vn 0.02753 0.90217 -0.43049
vn -0.00893 0.99996 -0.00010
vn 0.32598 0.87867 -0.34882
vn 0.30981 0.95080 -0.00099
vn -0.03427 -0.99941 0.00020
vn -0.12559 -0.99208 0.00029
vn -0.10687 -0.85360 -0.50984
vn -0.03092 -0.85282 -0.52128
vn 0.03132 -0.84839 -0.52844
vn 0.03882 -0.99925 -0.00016
vn -0.02749 -0.70292 -0.71074
vn 0.02364 -0.69058 -0.72287
vn 0.12623 -0.35838 -0.92500
vn -0.01730 -0.04198 -0.99897
vn 0.04407 -0.03975 -0.99824
vn -0.14823 0.61275 -0.77625
vn -0.11845 0.62917 -0.76819
vn -0.15414 0.79563 -0.58584
vn -0.18442 0.78688 -0.58890
vn -0.18024 0.91257 -0.36706
vn -0.20831 0.90851 -0.36225
vn -0.13811 0.80850 -0.57207
vn -0.16294 0.91957 -0.35755
vn -0.10514 0.64974 -0.75285
vn -0.09896 0.66913 -0.73652
vn -0.07873 -0.03148 -0.99640
vn -0.04955 -0.03715 -0.99808
vn -0.09995 -0.02293 -0.99473
vn -0.19292 -0.69909 -0.68851
vn -0.08687 -0.70241 -0.70645
vn -0.23893 -0.84083 -0.48571
vn -0.39733 -0.80076 -0.44824
vn -0.33353 -0.68205 -0.65082
vn -0.12825 -0.00518 -0.99173
vn -0.56036 -0.72610 -0.39847
vn -0.49208 -0.63580 -0.59466
vn -0.16182 0.03205 -0.98630
vn -0.71129 -0.60996 -0.34931
vn -0.64297 -0.54710 -0.53597
vn -0.14394 0.08701 -0.98575
vn -0.04333 0.05585 -0.99750
vn 0.32696 0.77578 -0.53969
vn 0.71501 0.51241 -0.47559
vn 0.76731 0.56781 -0.29804
vn 0.88245 0.03147 -0.46934
vn 0.95626 0.01970 -0.29185
vn 0.99997 0.00769 0.00019
vn 0.95938 0.28212 0.00001
vn 0.52530 0.85092 -0.00046
vn -0.44851 -0.89378 -0.00006
vn -0.61052 -0.79200 0.00017
vn -0.27875 -0.96036 0.00002
vn -0.75724 -0.65314 0.00020
vn -0.88784 -0.46016 0.00010
vn -0.84278 -0.43388 -0.31855
vn -0.97516 -0.22148 0.00016
vn -0.92235 -0.20887 -0.32503
vn -0.84254 -0.19033 -0.50388
vn -0.77242 -0.39451 -0.49773
vn -0.93348 0.01380 -0.35836
vn -0.84213 0.01332 -0.53912
vn 0.00182 -0.06896 -0.99762
vn -0.04210 -0.13754 -0.98960
vn -0.06050 -0.11754 -0.99122
vn 0.79318 -0.31268 -0.52259
vn 0.66776 -0.45929 -0.58579
vn 0.73951 -0.54245 -0.39859
vn 0.86363 -0.37477 -0.33718
vn 0.79075 -0.61214 0.00001
vn 0.90506 -0.42529 -0.00017
vn -0.99990 0.01407 0.00005
vn -0.98587 0.16750 -0.00009
vn -0.90200 0.15931 -0.40127
vn -0.96275 0.27039 0.00005
vn -0.86160 0.25103 -0.44117
vn -0.74170 0.22572 -0.63162
vn -0.79738 0.14750 -0.58517
vn -0.81748 0.33406 -0.46919
vn -0.68956 0.28803 -0.66449
vn -0.05782 -0.07284 -0.99567
vn -0.05981 -0.04837 -0.99704
vn 0.59952 -0.48857 -0.63394
vn 0.56821 -0.48095 -0.66770
vn 0.65942 -0.57756 -0.48124
vn 0.68059 -0.57981 -0.44791
vn 0.74357 -0.66866 -0.00005
vn 0.75000 -0.66143 0.00026
vn -0.92794 0.37274 0.00000
vn -0.88105 0.47303 -0.00002
vn -0.76957 0.41470 -0.48557
vn 0.94914 -0.31485 -0.00154
vn 0.83688 -0.54738 -0.00081
vn 0.72327 -0.47000 -0.50594
vn 0.86442 -0.31468 -0.39211
vn 0.81776 -0.49753 -0.28937
vn 0.87065 -0.49191 -0.00085
vn 0.74044 -0.29951 -0.60170
vn 0.73794 -0.48427 -0.47004
vn 0.48731 -0.71992 -0.49420
vn 0.52102 -0.79916 -0.29979
vn 0.53435 -0.84526 0.00130
vn -0.64531 0.76392 -0.00003
vn -0.33999 0.94043 0.00010
vn -0.31288 0.83675 -0.44940
vn -0.55791 0.66945 -0.49047
vn -0.69983 0.51606 -0.49388
vn -0.80803 0.58914 -0.00009
vn -0.44635 0.54559 -0.70930
vn -0.56925 0.42613 -0.70311
vn -0.64055 0.34690 -0.68509
vn -0.05171 -0.01902 -0.99848
vn -0.02402 0.02770 -0.99933
vn 0.55256 -0.46882 -0.68911
vn 0.51896 -0.47662 -0.70959
vn 0.61871 -0.58760 -0.52146
vn 0.64961 -0.56912 -0.50409
vn 0.71652 -0.69757 0.00000
vn 0.74424 -0.66791 0.00004
vn 0.60009 -0.59942 -0.52971
vn 0.69961 -0.71452 -0.00008
vn 0.48850 -0.47326 -0.73307
vn 0.57883 -0.37481 -0.72420
vn 0.09072 0.12230 -0.98834
vn 0.01670 0.07474 -0.99706
vn 0.17838 0.16634 -0.96980
vn -0.18161 0.81457 -0.55090
vn -0.27126 0.69665 -0.66415
vn -0.17976 0.91475 -0.36182
vn -0.29818 0.90865 -0.29230
vn -0.28041 0.84766 -0.45038
vn 0.06636 0.23758 -0.96910
vn -0.62458 0.73023 -0.27687
vn -0.47584 0.51197 -0.71516
vn -0.31455 0.26965 -0.91014
vn -0.31039 0.95061 0.00011
vn -0.65746 0.75349 -0.00013
vn -0.84080 0.54135 -0.00033
vn -0.17233 0.98504 0.00008
vn 0.31692 -0.77168 -0.55143
vn -0.49469 -0.19034 0.84797
vn -0.76353 -0.18072 0.61997
vn -0.75821 0.13934 0.63695
vn -0.50178 -0.18822 0.84427
vn 0.01302 -0.88363 0.46800
vn -0.46081 -0.57694 0.67439
vn -0.23117 -0.35417 0.90616
vn -0.13496 -0.17617 0.97506
vn 0.26598 0.59771 0.75631
vn 0.30993 0.29720 0.90312
vn 0.60732 0.29062 0.73940
vn 0.51503 0.52174 0.68009
vn 0.83124 0.34867 0.43297
vn 0.61796 0.66991 0.41151
vn 0.26724 0.86553 0.42360
vn -0.69339 -0.40215 0.59790
vn -0.79584 0.44520 0.41041
vn -0.90101 0.10743 0.42029
vn -0.68709 0.10630 0.71876
vn -0.66172 0.33208 0.67219
vn -0.38783 0.18954 0.90203
vn -0.42566 0.48453 0.76422
vn -0.50045 0.75045 0.43171
vn -0.10932 0.89024 0.44218
vn -0.07153 0.60222 0.79512
vn -0.88815 -0.13758 0.43847
vn -0.86267 -0.24846 0.44052
vn -0.85668 -0.30370 0.41697
vn -0.71566 -0.22758 0.66033
vn -0.69468 -0.18360 0.69549
vn -0.90524 -0.22732 0.35898
vn -0.92626 0.21823 0.30729
vn 0.88119 0.08352 0.46533
vn -0.76880 -0.40837 0.49211
vn -0.73282 -0.40076 0.54988
vn -0.80400 -0.41731 0.42360
vn -0.70130 -0.35853 0.61615
vn -0.63482 -0.32781 0.69968
vn -0.84086 -0.41580 0.34649
vn -0.76688 -0.37672 0.51960
vn -0.90316 -0.32535 0.28010
vn 0.90125 0.04189 0.43126
vn 0.91295 0.04705 0.40534
vn 0.89179 0.03083 0.45140
vn 0.88570 0.01550 0.46400
vn 0.87932 0.01464 0.47600
vn 0.65706 -0.02004 0.75357
vn 0.63114 -0.00703 0.77564
vn 0.67127 -0.00019 0.74121
vn 0.87321 0.03121 0.48635
vn 0.67928 0.01992 0.73361
vn 0.30693 -0.08458 0.94797
vn 0.20450 -0.18307 0.96160
vn 0.35694 -0.02446 0.93381
vn 0.68142 0.00951 0.73183
vn 0.36869 0.01281 0.92946
vn -0.06834 -0.08901 0.99368
vn -0.02840 -0.01582 0.99947
vn 0.35139 0.09772 0.93111
vn -0.01236 0.07589 0.99704
vn -0.41383 -0.09267 0.90563
vn -0.45239 -0.15450 0.87834
vn -0.38788 -0.00094 0.92171
vn -0.02785 0.28091 0.95933
vn -0.68872 -0.09024 0.71939
vn 0.66238 0.07606 0.74530
vn 0.87531 0.01403 0.48336
vn 0.42240 -0.04645 0.90522
vn -0.34386 -0.31027 0.88628
vn 0.35147 -0.02823 0.93577
vn 0.60762 0.01148 0.79415
vn -0.49747 -0.26032 0.82750
vn 0.28356 -0.03927 0.95815
vn 0.58964 0.00861 0.80762
vn -0.56524 -0.29581 0.77006
vn 0.21387 -0.06609 0.97462
vn 0.92540 0.04242 0.37661
vn 0.84332 0.04994 0.53509
vn 0.87036 0.04522 0.49033
vn 0.94025 0.03766 0.33841
vn 0.16049 -0.12179 0.97950
vn 0.90027 0.03305 0.43407
vn 0.95529 0.03264 0.29385
vn 0.12495 -0.19179 0.97345
vn 0.91898 0.00271 0.39430
vn 0.96588 0.00784 0.25887
vn 0.08282 -0.18767 0.97873
vn 0.03716 -0.03150 0.99881
vn -0.96623 -0.06990 0.24802
vn -0.91431 -0.05902 0.40069
vn -0.84890 -0.29706 0.43717
vn -0.90218 0.33611 0.27038
vn -0.84734 0.30464 0.43499
vn 0.97078 -0.01641 0.23940
vn 0.96771 -0.05501 0.24598
vn 0.92750 -0.01270 0.37362
vn 0.92444 -0.04393 0.37878
vn 0.88320 -0.12087 0.45316
vn 0.94390 -0.13167 0.30284
vn 0.07277 0.18677 0.97970
vn 0.17334 0.23929 0.95535
vn 0.19894 0.13164 0.97113
vn -0.62719 0.70083 0.33980
vn -0.35989 0.82142 0.44244
vn -0.34111 0.68889 0.63958
vn -0.59126 0.61686 0.51952
vn 0.89182 -0.22857 0.39041
vn 0.78748 -0.40206 0.46715
vn 0.79013 -0.20900 0.57621
vn 0.43824 -0.15659 0.88511
vn 0.30319 -0.27102 0.91358
vn 0.55804 -0.64731 0.51921
vn 0.17243 0.04133 0.98415
vn 0.12781 -0.00833 0.99176
vn -0.25684 0.80528 0.53438
vn -0.22122 0.78769 0.57498
vn -0.18208 0.61131 0.77016
vn -0.22618 0.63683 0.73709
vn 0.24053 -0.80992 0.53496
vn -0.11584 0.83942 0.53100
vn -0.12708 0.82304 0.55359
vn -0.08359 0.86542 0.49403
vn -0.04924 0.72321 0.68888
vn -0.08455 0.68974 0.71910
vn 0.02201 0.90503 0.42478
vn 0.05254 0.77994 0.62365
vn 0.32246 0.88049 0.34749
vn -0.03104 -0.85270 0.52148
vn -0.10733 -0.85330 0.51026
vn 0.03130 -0.84865 0.52803
vn 0.02364 -0.69105 0.72242
vn -0.02747 -0.70287 0.71079
vn 0.12643 -0.35860 0.92489
vn 0.04435 -0.03985 0.99822
vn -0.01682 -0.04306 0.99893
vn -0.18457 0.78668 0.58913
vn -0.15390 0.79536 0.58628
vn -0.11779 0.62840 0.76893
vn -0.14824 0.61235 0.77656
vn -0.20857 0.90843 0.36230
vn -0.18038 0.91257 0.36699
vn -0.16277 0.91958 0.35760
vn -0.13798 0.80838 0.57227
vn -0.10503 0.64943 0.75313
vn -0.09873 0.66915 0.73654
vn -0.07867 -0.03166 0.99640
vn -0.04936 -0.03751 0.99808
vn -0.09953 -0.02336 0.99476
vn -0.23862 -0.84098 0.48560
vn -0.08727 -0.70210 0.70671
vn -0.19247 -0.69941 0.68831
vn -0.33112 -0.68445 0.64953
vn -0.39602 -0.80184 0.44746
vn -0.12678 -0.00666 0.99191
vn -0.48981 -0.63870 0.59342
vn -0.55951 -0.72705 0.39792
vn -0.15961 0.02839 0.98677
vn -0.64193 -0.54963 0.53463
vn -0.71087 -0.61078 0.34873
vn -0.13943 0.09134 0.98601
vn -0.04312 0.06238 0.99712
vn 0.76828 0.56483 0.30119
vn 0.71656 0.50495 0.48122
vn 0.32526 0.77699 0.53897
vn 0.95548 0.02253 0.29419
vn 0.88022 0.03572 0.47322
vn -0.84279 -0.43439 0.31782
vn -0.92225 -0.20933 0.32501
vn -0.77269 -0.39583 0.49625
vn -0.84259 -0.19094 0.50358
vn -0.84163 0.01135 0.53994
vn -0.93329 0.01296 0.35888
vn 0.00121 -0.07082 0.99749
vn -0.03997 -0.13814 0.98961
vn -0.06085 -0.11603 0.99138
vn 0.86321 -0.37533 0.33762
vn 0.73897 -0.54388 0.39765
vn 0.66798 -0.46106 0.58415
vn 0.79251 -0.31263 0.52363
vn -0.90190 0.15969 0.40134
vn -0.86148 0.25128 0.44126
vn -0.79709 0.14788 0.58548
vn -0.74138 0.22661 0.63167
vn -0.68962 0.28754 0.66463
vn -0.81753 0.33380 0.46927
vn -0.05787 -0.07269 0.99567
vn -0.05988 -0.04863 0.99702
vn 0.68068 -0.57914 0.44863
vn 0.65926 -0.57788 0.48106
vn 0.56795 -0.48157 0.66748
vn 0.59937 -0.48766 0.63478
vn -0.76952 0.41484 0.48554
vn 0.85722 -0.32888 0.39624
vn 0.72027 -0.47636 0.50427
vn 0.81130 -0.50565 0.29345
vn 0.72151 -0.50118 0.47774
vn 0.72183 -0.32621 0.61036
vn 0.53078 -0.79079 0.30483
vn 0.50351 -0.70412 0.50070
vn -0.55784 0.66956 0.49042
vn -0.30825 0.83781 0.45062
vn -0.70002 0.51607 0.49359
vn -0.56952 0.42631 0.70278
vn -0.44613 0.54582 0.70925
vn -0.64046 0.34711 0.68507
vn -0.05169 -0.01882 0.99849
vn -0.02390 0.02740 0.99934
vn 0.64978 -0.56892 0.50410
vn 0.61868 -0.58790 0.52116
vn 0.51904 -0.47727 0.70909
vn 0.55284 -0.46858 0.68906
vn 0.59983 -0.59998 0.52936
vn 0.48839 -0.47407 0.73262
vn 0.57482 -0.38393 0.72262
vn 0.09479 0.12483 0.98764
vn 0.01664 0.07457 0.99708
vn 0.18446 0.16988 0.96805
vn -0.18140 0.91345 0.36429
vn -0.26314 0.69785 0.66616
vn -0.18364 0.81122 0.55515
vn -0.29062 0.84276 0.45310
vn -0.30410 0.90618 0.29389
vn 0.08387 0.25528 0.96322
vn -0.47331 0.51948 0.71141
vn -0.62624 0.72937 0.27540
vn -0.30637 0.28521 0.90818
vn 0.35049 -0.74403 0.56884
f 1//1 5//2 6//3 7//4
f 1//1 8//5 3//6 9//7
f 1//1 7//4 10//8 8//5
f 2//9 11//10 12//11 13//12
f 2//9 14//13 15//14 11//10
f 2//9 13//12 16//15 14//13
f 3//6 19//16 17//17 240//18
f 3//6 240//18 18//19 9//7
f 4//20 20//21 21//22 22//23
f 4//20 23//24 24//25 20//21
f 4//20 22//23 25//26 23//24
f 25//26 26//27 27//28 28//29
f 25//26 28//29 29//30 23//24
f 25//26 22//23 30//31 26//27
f 30//31 22//23 21//22 241//32
f 241//32 21//22 31//33 242//34
f 243//35 242//34 31//33 33//36
f 243//35 33//36 34//37 32//38
f 34//37 33//36 35//39 36//40
f 34//37 36//40 6//3 37//41
f 34//37 37//41 38//42 32//38
f 38//42 37//41 39//43 40//44
f 41//45 42//46 14//13 16//15
f 41//45 16//15 28//29 27//28
f 42//46 43//47 15//14 14//13
f 43//47 44//48 45//49 15//14
f 47//50 46//51 49//52 50//53
f 47//50 50//53 51//54 48//55
f 51//54 50//53 52//56 53//57
f 51//54 53//57 54//58 55//59
f 51//54 55//59 56//60 48//55
f 56//60 55//59 57//61 244//62
f 60//63 59//64 61//65 62//66
f 60//63 62//66 63//67 64//68
f 64//68 63//67 66//69 65//70
f 66//69 67//71 68//72 65//70
f 66//69 63//67 69//73 70//74
f 66//69 70//74 71//75 67//71
f 71//75 72//76 73//77 67//71
f 71//75 70//74 74//78 75//79
f 71//75 75//79 76//80 72//76
f 76//80 77//81 78//82 72//76
f 76//80 75//79 10//8 79//83
f 76//80 79//83 80//84 77//81
f 80//84 81//85 82//86 77//81
f 80//84 79//83 83//87 84//88
f 80//84 84//88 85//89 81//85
f 85//89 24//25 86//90 81//85
f 85//89 84//88 35//39 87//91
f 85//89 87//91 20//21 24//25
f 87//91 35//39 33//36 31//33
f 87//91 31//33 21//22 20//21
f 86//90 29//30 13//12 12//11
f 86//90 12//11 82//86 81//85
f 86//90 24//25 23//24 29//30
f 84//88 83//87 36//40 35//39
f 83//87 79//83 10//8 7//4
f 83//87 7//4 6//3 36//40
f 82//86 12//11 11//10 88//92
f 82//86 88//92 78//82 77//81
f 88//92 11//10 15//14 45//49
f 88//92 45//49 89//93 78//82
f 89//93 45//49 44//48 245//94
f 89//93 245//94 246//95 73//77
f 89//93 73//77 72//76 78//82
f 246//95 68//72 67//71 73//77
f 75//79 74//78 8//5 10//8
f 74//78 70//74 69//73 90//96
f 74//78 90//97 3//6 8//5
f 90//96 69//73 91//98 92//99
f 90//97 92//100 19//16 3//6
f 92//99 91//98 93//101 94//102
f 92//100 94//103 49//52 19//16
f 94//102 93//101 95//104 52//104
f 94//103 52//56 50//53 49//52
f 95//105 93//101 61//65 96//106
f 95//105 96//106 97//107 98//108
f 95//104 98//109 53//109 52//104
f 98//108 97//107 99//110 100//111
f 98//109 100//112 54//112 53//109
f 100//111 99//110 101//113 102//114
f 100//112 102//115 103//115 54//112
f 103//115 102//115 104//116 105//116
f 103//117 105//118 106//119 57//61
f 103//117 57//61 55//59 54//58
f 106//119 105//118 107//120 108//121
f 106//119 108//121 109//122 247//123
f 106//119 247//123 244//62 57//61
f 110//124 248//125 99//110 97//107
f 110//124 97//107 96//106 58//126
f 248//125 249//127 101//113 99//110
f 249//127 250//128 111//129 101//113
f 111//129 250//128 112//130 113//131
f 111//129 113//131 114//132 104//133
f 111//129 104//133 102//114 101//113
f 114//132 113//131 115//134 116//135
f 114//136 116//137 117//137 107//136
f 114//136 107//136 105//116 104//116
f 117//137 116//137 118//138 119//138
f 117//139 119//140 120//141 121//142
f 117//139 121//142 108//121 107//120
f 121//142 120//141 251//143 122//144
f 121//142 122//144 109//122 108//121
f 123//145 252//146 124//147 115//134
f 123//145 115//134 113//131 112//130
f 124//147 252//146 125//148 126//149
f 124//147 126//149 127//150 118//151
f 124//147 118//151 116//135 115//134
f 127//150 126//149 128//152 129//153
f 127//150 129//153 130//154 131//155
f 127//150 131//155 119//138 118//138
f 131//156 130//157 132//158 133//159
f 131//156 133//159 120//141 119//140
f 133//159 132//158 253//160 254//161
f 133//159 254//161 251//143 120//141
f 255//162 134//163 135//164 128//152
f 255//162 128//152 126//149 125//148
f 137//165 256//166 139//167 140//168
f 137//165 140//168 141//169 138//170
f 141//169 140//168 142//171 143//172
f 141//169 143//172 144//173 145//174
f 141//169 145//174 146//175 138//170
f 146//175 145//174 147//176 257//177
f 258//178 149//179 150//180 151//181
f 258//178 151//181 152//182 136//183
f 152//182 135//164 134//163 136//183
f 152//182 151//181 153//184 154//185
f 152//182 154//185 155//186 135//164
f 155//186 129//153 128//152 135//164
f 155//186 154//187 156//187 157//188
f 155//186 157//188 130//154 129//153
f 157//189 156//190 158//191 159//192
f 157//189 159//192 132//158 130//157
f 159//192 158//191 259//193 260//194
f 159//192 260//194 253//160 132//158
f 259//193 158//191 160//195 261//196
f 160//195 158//191 156//190 161//197
f 160//195 161//197 162//198 139//167
f 160//195 139//167 256//166 261//196
f 162//199 161//200 153//200 163//199
f 162//199 163//199 164//201 142//201
f 162//198 142//171 140//168 139//167
f 164//202 163//203 150//180 165//204
f 164//202 165//204 166//205 167//206
f 164//201 167//207 143//207 142//201
f 167//206 166//205 168//208 169//209
f 167//207 169//210 144//210 143//207
f 169//209 168//208 170//211 171//212
f 169//210 171//213 172//213 144//210
f 172//213 171//213 173//214 174//214
f 172//215 174//216 175//217 147//176
f 172//215 147//176 145//174 144//173
f 175//217 174//216 176//218 177//219
f 175//217 177//219 178//220 179//221
f 175//217 179//222 257//177 147//176
f 263//223 262//224 168//208 166//205
f 263//223 166//205 165//204 148//225
f 262//224 264//226 170//211 168//208
f 264//226 265//227 180//228 170//211
f 180//228 265//227 181//229 182//230
f 180//228 182//230 183//231 173//232
f 180//228 173//232 171//212 170//211
f 183//231 182//230 184//233 185//234
f 183//235 185//236 186//236 176//235
f 183//235 176//235 174//214 173//214
f 186//236 185//236 187//237 188//237
f 186//238 188//239 189//240 190//241
f 186//238 190//241 177//219 176//218
f 190//241 189//240 191//242 192//243
f 190//241 192//243 178//220 177//219
f 193//244 266//245 194//246 184//233
f 193//244 184//233 182//230 181//229
f 194//246 266//245 195//247 196//248
f 194//246 196//248 197//249 187//250
f 194//246 187//250 185//234 184//233
f 197//249 196//248 198//251 199//252
f 197//253 199//254 200//254 201//253
f 197//253 201//253 188//237 187//237
f 201//255 200//256 202//257 203//258
f 201//255 203//258 189//240 188//239
f 203//258 202//257 267//259 204//260
f 203//258 204//260 191//242 189//240
f 205//261 206//262 207//263 198//251
f 205//261 198//251 196//248 195//247
f 209//264 268//265 211//266 212//267
f 209//264 212//267 213//268 210//269
f 213//268 212//267 214//270 215//271
f 213//268 215//271 216//272 217//273
f 213//268 217//273 218//274 210//269
f 218//274 217//273 9//7 18//19
f 219//275 269//276 220//277 221//278
f 219//275 221//278 222//279 208//280
f 222//279 207//263 206//262 208//280
f 222//279 221//278 223//281 224//282
f 222//279 224//282 225//283 207//263
f 225//283 199//252 198//251 207//263
f 225//284 224//285 226//285 227//284
f 225//284 227//284 200//254 199//254
f 227//286 226//287 228//288 229//289
f 227//286 229//289 202//257 200//256
f 229//289 228//288 270//290 271//291
f 229//289 271//291 267//259 202//257
f 270//290 228//288 230//292 272//293
f 230//292 228//288 226//287 231//294
f 230//292 231//294 232//295 211//266
f 230//292 211//266 268//265 272//293
f 232//296 231//297 223//297 233//296
f 232//296 233//296 234//298 214//298
f 232//295 214//270 212//267 211//266
f 234//299 233//300 220//277 235//301
f 234//299 235//301 236//302 237//303
f 234//298 237//304 215//304 214//298
f 237//303 236//302 238//305 239//306
f 237//304 239//306 216//307 215//304
f 239//306 238//305 39//43 5//2
f 239//306 5//2 1//1 216//307
f 238//305 236//302 273//308 274//309
f 238//305 274//309 40//310 39//43
f 273//308 236//302 235//301 275//311
f 235//301 220//277 269//276 275//311
f 233//300 223//281 221//278 220//277
f 231//297 226//285 224//285 223//297
f 217//273 216//272 1//312 9//7
f 165//204 150//180 149//179 148//225
f 163//203 153//184 151//181 150//180
f 161//200 156//187 154//187 153//200
f 96//106 61//65 59//64 58//126
f 93//101 91//98 62//66 61//65
f 91//98 69//73 63//67 62//66
f 49//52 46//51 17//17 19//16
f 39//43 37//41 6//3 5//2
f 29//30 28//29 16//15 13//12
f 282//313 281//314 280//315 276//316
f 284//317 278//318 283//319 276//316
f 283//319 285//320 282//313 276//316
f 288//321 287//322 286//323 277//324
f 286//323 290//325 289//326 277//324
f 289//326 291//327 288//321 277//324
f 240//18 17//17 292//328 278//318
f 284//317 18//19 240//18 278//318
f 295//329 294//330 293//331 279//332
f 293//331 297//333 296//334 279//332
f 296//334 298//335 295//329 279//332
f 299//336 27//28 26//27 298//335
f 296//334 300//337 299//336 298//335
f 26//27 30//31 295//329 298//335
f 241//32 294//330 295//329 30//31
f 242//34 301//338 294//330 241//32
f 302//339 301//338 242//34 243//35
f 32//38 303//340 302//339 243//35
f 305//341 304//342 302//339 303//340
f 306//343 281//314 305//341 303//340
f 32//38 38//42 306//343 303//340
f 40//44 307//344 306//343 38//42
f 291//327 289//326 42//46 41//45
f 27//28 299//336 291//327 41//45
f 289//326 290//325 43//47 42//46
f 290//325 308//345 44//48 43//47
f 310//346 309//347 46//51 47//50
f 48//55 311//348 310//346 47//50
f 313//349 312//350 310//346 311//348
f 315//351 314//352 313//349 311//348
f 48//55 56//60 315//351 311//348
f 244//62 316//353 315//351 56//60
f 318//354 317//355 59//64 60//63
f 64//68 319//356 318//354 60//63
f 65//70 320//357 319//356 64//68
f 65//70 68//72 321//358 320//357
f 323//359 322//360 319//356 320//357
f 321//358 324//361 323//359 320//357
f 321//358 326//362 325//363 324//361
f 328//364 327//365 323//359 324//361
f 325//363 329//366 328//364 324//361
f 325//363 331//367 330//368 329//366
f 332//369 285//320 328//364 329//366
f 330//368 333//370 332//369 329//366
f 330//368 335//371 334//372 333//370
f 337//373 336//374 332//369 333//370
f 334//372 338//375 337//373 333//370
f 334//372 339//376 297//333 338//375
f 340//377 304//342 337//373 338//375
f 297//333 293//331 340//377 338//375
f 301//338 302//339 304//342 340//377
f 293//331 294//330 301//338 340//377
f 287//322 288//321 300//337 339//376
f 334//372 335//371 287//322 339//376
f 300//337 296//334 297//333 339//376
f 304//342 305//341 336//374 337//373
f 282//313 285//320 332//369 336//374
f 305//341 281//314 282//313 336//374
f 341//378 286//323 287//322 335//371
f 330//368 331//367 341//378 335//371
f 308//345 290//325 286//323 341//378
f 331//367 342//379 308//345 341//378
f 245//94 44//48 308//345 342//379
f 326//362 246//95 245//94 342//379
f 331//367 325//363 326//362 342//379
f 326//362 321//358 68//72 246//95
f 285//320 283//319 327//365 328//364
f 343//380 322//360 323//359 327//365
f 283//319 278//318 343//381 327//365
f 345//382 344//383 322//360 343//380
f 278//318 292//328 345//384 343//381
f 347//385 346//386 344//383 345//382
f 292//328 309//347 347//387 345//384
f 312//388 348//388 346//386 347//385
f 309//347 310//346 312//350 347//387
f 349//389 317//355 346//386 348//390
f 351//391 350//392 349//389 348//390
f 312//388 313//393 351//393 348//388
f 353//394 352//395 350//392 351//391
f 313//393 314//396 353//396 351//393
f 355//397 354//398 352//395 353//394
f 314//396 356//399 355//399 353//396
f 358//400 357//400 355//399 356//399
f 316//353 359//401 358//402 356//403
f 314//352 315//351 316//353 356//403
f 361//404 360//405 358//402 359//401
f 247//123 109//122 361//404 359//401
f 316//353 244//62 247//123 359//401
f 350//392 352//395 248//125 110//124
f 58//126 349//389 350//392 110//124
f 352//395 354//398 249//127 248//125
f 354//398 362//406 250//128 249//127
f 363//407 112//130 250//128 362//406
f 357//408 364//409 363//407 362//406
f 354//398 355//397 357//408 362//406
f 366//410 365//411 363//407 364//409
f 360//412 367//413 366//413 364//412
f 357//400 358//400 360//412 364//412
f 369//414 368//414 366//413 367//413
f 371//415 370//416 369//417 367//418
f 360//405 361//404 371//415 367//418
f 122//144 251//143 370//416 371//415
f 361//404 109//122 122//144 371//415
f 365//411 372//419 252//146 123//145
f 112//130 363//407 365//411 123//145
f 373//420 125//148 252//146 372//419
f 368//421 374//422 373//420 372//419
f 365//411 366//410 368//421 372//419
f 376//423 375//424 373//420 374//422
f 378//425 377//426 376//423 374//422
f 368//414 369//414 378//425 374//422
f 380//427 379//428 377//429 378//430
f 369//417 370//416 380//427 378//430
f 254//161 253//160 379//428 380//427
f 370//416 251//143 254//161 380//427
f 375//424 381//431 134//163 255//162
f 125//148 373//420 375//424 255//162
f 383//432 382//433 256//166 137//165
f 138//170 384//434 383//432 137//165
f 386//435 385//436 383//432 384//434
f 388//437 387//438 386//435 384//434
f 138//170 146//175 388//437 384//434
f 257//177 389//439 388//437 146//175
f 391//440 390//441 149//179 258//178
f 136//183 392//442 391//440 258//178
f 136//183 134//163 381//431 392//442
f 394//443 393//444 391//440 392//442
f 381//431 395//445 394//443 392//442
f 381//431 375//424 376//423 395//445
f 397//446 396//447 394//447 395//445
f 376//423 377//426 397//446 395//445
f 399//448 398//449 396//450 397//451
f 377//429 379//428 399//448 397//451
f 260//452 259//453 398//449 399//448
f 379//428 253//160 260//452 399//448
f 261//454 400//455 398//449 259//453
f 401//456 396//450 398//449 400//455
f 382//433 402//457 401//456 400//455
f 261//454 256//166 382//433 400//455
f 403//458 393//459 401//459 402//458
f 385//460 404//460 403//458 402//458
f 382//433 383//432 385//436 402//457
f 405//461 390//441 403//462 404//463
f 407//464 406//465 405//461 404//463
f 385//460 386//466 407//466 404//460
f 409//467 408//468 406//465 407//464
f 386//466 387//469 409//469 407//466
f 411//470 410//471 408//468 409//467
f 387//469 412//472 411//472 409//469
f 414//473 413//473 411//472 412//472
f 389//439 415//474 414//475 412//476
f 387//438 388//437 389//439 412//476
f 417//477 416//478 414//475 415//474
f 179//221 178//220 417//477 415//474
f 389//439 257//177 179//222 415//474
f 406//465 408//468 262//224 263//223
f 148//225 405//461 406//465 263//223
f 408//468 410//471 264//226 262//224
f 410//471 418//479 265//227 264//226
f 419//480 181//229 265//227 418//479
f 413//481 420//482 419//480 418//479
f 410//471 411//470 413//481 418//479
f 422//483 421//484 419//480 420//482
f 416//485 423//486 422//486 420//485
f 413//473 414//473 416//485 420//485
f 425//487 424//487 422//486 423//486
f 427//488 426//489 425//490 423//491
f 416//478 417//477 427//488 423//491
f 192//243 191//242 426//489 427//488
f 417//477 178//220 192//243 427//488
f 421//484 428//492 266//245 193//244
f 181//229 419//480 421//484 193//244
f 429//493 195//247 266//245 428//492
f 424//494 430//495 429//493 428//492
f 421//484 422//483 424//494 428//492
f 432//496 431//497 429//493 430//495
f 434//498 433//499 432//499 430//498
f 424//487 425//487 434//498 430//498
f 436//500 435//501 433//502 434//503
f 425//490 426//489 436//500 434//503
f 204//260 267//259 435//501 436//500
f 426//489 191//242 204//260 436//500
f 431//497 437//504 206//262 205//261
f 195//247 429//493 431//497 205//261
f 439//505 438//506 268//265 209//264
f 210//269 440//507 439//505 209//264
f 442//508 441//509 439//505 440//507
f 444//510 443//511 442//508 440//507
f 210//269 218//274 444//510 440//507
f 18//19 284//317 444//510 218//274
f 446//512 445//513 269//276 219//275
f 208//280 447//514 446//512 219//275
f 208//280 206//262 437//504 447//514
f 449//515 448//516 446//512 447//514
f 437//504 450//517 449//515 447//514
f 437//504 431//497 432//496 450//517
f 452//518 451//519 449//519 450//518
f 432//499 433//499 452//518 450//518
f 454//520 453//521 451//522 452//523
f 433//502 435//501 454//520 452//523
f 271//291 270//290 453//521 454//520
f 435//501 267//259 271//291 454//520
f 272//293 455//524 453//521 270//290
f 456//525 451//522 453//521 455//524
f 438//506 457//526 456//525 455//524
f 272//293 268//265 438//506 455//524
f 458//527 448//528 456//528 457//527
f 441//529 459//529 458//527 457//527
f 438//506 439//505 441//509 457//526
f 460//530 445//513 458//531 459//532
f 462//533 461//534 460//530 459//532
f 441//529 442//535 462//535 459//529
f 464//536 463//537 461//534 462//533
f 442//535 443//538 464//536 462//535
f 280//315 307//344 463//537 464//536
f 443//538 276//316 280//315 464//536
f 274//309 273//308 461//534 463//537
f 307//344 40//310 274//309 463//537
f 275//311 460//530 461//534 273//308
f 275//311 269//276 445//513 460//530
f 445//513 446//512 448//516 458//531
f 448//528 449//519 451//519 456//528
f 284//317 276//539 443//511 444//510
f 148//225 149//179 390//441 405//461
f 390//441 391//440 393//444 403//462
f 393//459 394//447 396//447 401//459
f 58//126 59//64 317//355 349//389
f 317//355 318//354 344//383 346//386
f 318//354 319//356 322//360 344//383
f 292//328 17//17 46//51 309//347
f 280//315 281//314 306//343 307//344
f 288//321 291//327 299//336 300//337
