# pilowlava3D glyph 'k' variant 1 — Vincent Wagner / Velvetyne, Free Art License
v 1.07877 2.57495 -0.33389
v 0.93044 0.42341 -0.47899
v 0.50120 2.79741 -0.39917
v 4.20959 3.73383 -0.43088
v 4.15764 4.18283 -0.46088
v 3.96970 2.30101 -0.35051
v 3.55235 2.38030 -0.20996
v 3.48844 0.79985 -0.49650
v 3.40067 0.23159 -0.44634
v 1.17258 4.14766 -0.36984
v 0.88375 4.36416 -0.39622
v 0.18680 0.21233 -0.28093
v 1.14976 2.31176 -0.32878
v 1.06742 2.26033 -0.28480
v 0.92833 2.44616 -0.28207
v 1.21996 2.54149 -0.24500
v 1.20996 2.33738 -0.25968
v 1.07605 2.69387 -0.26489
v 1.33290 2.81056 -0.26711
v 1.35706 2.74618 -0.31584
v 0.79848 2.66688 -0.33248
v 0.84767 2.73269 -0.28537
v 0.75475 2.59537 -0.28711
v 0.96116 0.63473 -0.48762
v 1.19977 0.62310 -0.29109
v 1.07621 0.29127 -0.31487
v 0.76845 0.10841 -0.32767
v 0.70649 0.36020 -0.52235
v 0.67712 0.60889 -0.57068
v 0.30070 2.59127 -0.35486
v 0.19233 2.63505 -0.32638
v 0.26067 2.89056 -0.36811
v 0.32506 3.18526 -0.40545
v 0.50121 3.13808 -0.45990
v 0.52097 2.66296 -0.30809
v 0.35945 2.56314 -0.30316
v 0.66265 3.13376 -0.37610
v 0.69550 2.89688 -0.32393
v 4.06843 3.62811 -0.46902
v 3.98357 3.90668 -0.56910
v 4.20752 3.96392 -0.47757
v 4.33596 3.70050 -0.25836
v 4.17355 3.46769 -0.25944
v 4.36893 4.02105 -0.27414
v 4.22552 4.31841 -0.28848
v 3.91893 4.19946 -0.51303
v 3.89185 4.42110 -0.30946
v 4.04719 2.38920 -0.22118
v 4.09144 2.06115 -0.21376
v 3.96523 2.06663 -0.36959
v 3.76149 2.29946 -0.38705
v 3.75648 2.50364 -0.24519
v 3.52530 2.39887 -0.00000
v 3.51196 2.17945 -0.00000
v 3.56151 2.20860 -0.25118
v 3.34283 0.50102 -0.55323
v 3.09408 0.62404 -0.56967
v 3.20994 0.89243 -0.51832
v 3.69028 1.00594 -0.39330
v 3.80718 0.91118 -0.36671
v 3.69572 0.61401 -0.43458
v 3.54370 0.38114 -0.46858
v 3.68993 0.25004 -0.27064
v 3.42714 0.08745 -0.28379
v 3.20164 0.26881 -0.48178
v 3.10986 0.07847 -0.28281
v 1.10190 3.98583 -0.40974
v 0.91146 4.11304 -0.50185
v 1.05106 4.28242 -0.41395
v 1.13792 4.41152 -0.24310
v 1.27553 4.16753 -0.22934
v 1.23056 3.91677 -0.22874
v 0.70623 4.25420 -0.45076
v 0.55195 4.38440 -0.26447
v 0.86112 4.48143 -0.24255
v 1.39535 2.69672 -0.25756
v 0.13203 0.39808 -0.32437
v 0.39526 0.35631 -0.50411
v 0.42911 0.10145 -0.33111
v 0.43408 0.00000 -0.00000
v 0.79952 0.01865 -0.00000
v 1.13176 0.95989 -0.26522
v 0.88232 1.50568 -0.00000
v 0.97684 1.23468 -0.25111
v 0.82500 1.47074 -0.24295
v 0.81195 1.16213 -0.45443
v 0.68956 1.41266 -0.43211
v 0.57262 1.65642 -0.40403
v 0.68832 1.69492 -0.23013
v 0.74162 1.72132 -0.00000
v 0.56203 1.92265 -0.21435
v 0.60780 1.93676 -0.00000
v 0.01177 0.85772 -0.00000
v 0.12373 0.85151 -0.29547
v 0.11496 0.62956 -0.31707
v 0.35329 0.83679 -0.51845
v 0.36877 0.60698 -0.52987
v 0.64175 0.84977 -0.57326
v 0.32147 1.07624 -0.49043
v 0.57552 1.10274 -0.55387
v 0.91839 0.90514 -0.47138
v 0.27801 1.32381 -0.45614
v 0.49374 1.35917 -0.51889
v 0.24006 1.57947 -0.42036
v 0.41445 1.61477 -0.47763
v 0.20808 1.83762 -0.38416
v 0.34061 1.86504 -0.43568
v 0.46863 1.89802 -0.37351
v 0.27384 2.11396 -0.38804
v 0.37273 2.13432 -0.33456
v 0.44552 2.14709 -0.19438
v 0.31487 2.36179 -0.29973
v 0.36153 2.36034 -0.17541
v 0.47564 2.15028 -0.00000
v 0.03475 1.31991 -0.00000
v 0.02301 1.08464 -0.00000
v 0.11672 1.31504 -0.25710
v 0.12014 1.07722 -0.27667
v 0.11205 1.56291 -0.24160
v 0.10963 1.81917 -0.22428
v 0.10625 2.08316 -0.20453
v 0.17508 2.09597 -0.34443
v 0.11313 2.36243 -0.19165
v 0.16072 2.36271 -0.31361
v 0.24462 2.36243 -0.34993
v 0.13682 2.65047 -0.19883
v 0.17168 2.93120 -0.21635
v 0.20820 3.22049 -0.22904
v 0.24342 3.51616 -0.24164
v 0.38159 3.48564 -0.43225
v 0.27275 3.81385 -0.25461
v 0.44048 3.76989 -0.45828
v 0.65988 3.69086 -0.52186
v 0.56559 3.43413 -0.49541
v 0.86060 3.59530 -0.42869
v 0.73721 3.37646 -0.40495
v 0.98597 3.51829 -0.23414
v 0.85344 3.33320 -0.22019
v 0.76907 3.13476 -0.20002
v 0.76779 2.93354 -0.18085
v 0.80314 3.13269 -0.00000
v 0.88525 2.77615 -0.00000
v 0.87888 2.77197 -0.16764
v 1.09154 2.73966 -0.00000
v 1.31906 2.84504 -0.14739
v 1.08817 2.73081 -0.15416
v 1.54592 2.99763 -0.15612
v 1.56342 2.94818 -0.29551
v 1.76073 3.17428 -0.00000
v 1.77010 3.14727 -0.18156
v 1.97492 3.32748 -0.00000
v 2.18740 3.48041 -0.00000
v 2.21149 3.43819 -0.21454
v 1.99133 3.29180 -0.20245
v 2.26084 3.34152 -0.38510
v 2.03039 3.20822 -0.36710
v 1.79487 3.07755 -0.33778
v 2.08647 3.08847 -0.42140
v 1.83803 2.97800 -0.39160
v 1.59809 2.86884 -0.34987
v 1.88471 2.88080 -0.33918
v 1.63742 2.79195 -0.29464
v 1.92175 2.81556 -0.18205
v 1.66634 2.74606 -0.15561
v 1.41566 2.66687 -0.14116
v 1.67712 2.72925 -0.00000
v 1.42173 2.65835 -0.00000
v 1.25054 2.53500 -0.00000
v 1.24441 2.53654 -0.14047
v 1.23577 2.34304 -0.14466
v 1.24262 2.34343 -0.00000
v 1.36768 2.18003 -0.00000
v 1.35863 2.17505 -0.14875
v 1.58014 2.06267 -0.00000
v 1.80205 1.95556 -0.00000
v 1.77966 1.92813 -0.19254
v 1.56211 2.04812 -0.16960
v 1.72729 1.86902 -0.34684
v 1.52248 2.01062 -0.30984
v 1.33240 2.15617 -0.27397
v 1.46250 1.94191 -0.36674
v 1.27983 2.10935 -0.33393
v 1.40455 1.87048 -0.31605
v 1.22523 2.05347 -0.29008
v 1.37254 1.82541 -0.17738
v 1.19603 2.01735 -0.16490
v 1.02350 2.21263 -0.16610
v 0.87003 2.39515 -0.16796
v 0.71185 2.55899 -0.17489
v 0.53628 2.61191 -0.00000
v 0.53220 2.62476 -0.17654
v 0.39243 2.54167 -0.17384
v 2.24262 1.73170 -0.00000
v 2.02117 1.84096 -0.00000
v 2.21443 1.68649 -0.21849
v 1.99478 1.80419 -0.20799
v 2.15128 1.59420 -0.39113
v 1.93697 1.72730 -0.37211
v 2.05610 1.46224 -0.45256
v 1.85664 1.62084 -0.42478
v 1.65670 1.78321 -0.39873
v 1.77543 1.52126 -0.37074
v 1.59089 1.69917 -0.34961
v 1.71828 1.45048 -0.20837
v 1.54631 1.63603 -0.19528
v 1.69215 1.41896 -0.00000
v 1.52602 1.61064 -0.00000
v 2.46458 1.62363 -0.00000
v 2.65230 1.45482 -0.24519
v 2.43525 1.57047 -0.22972
v 2.57680 1.32492 -0.43714
v 2.36604 1.46161 -0.41132
v 2.45723 1.14730 -0.50818
v 2.25693 1.30687 -0.47966
v 2.33272 0.98161 -0.42424
v 2.14426 1.16140 -0.40269
v 1.95818 1.34000 -0.38591
v 2.06697 1.07029 -0.22223
v 1.89230 1.26115 -0.21520
v 3.06427 1.23017 -0.28268
v 2.86371 1.34191 -0.26407
v 2.98965 1.03041 -0.50128
v 2.78411 1.18238 -0.47059
v 2.87250 0.79910 -0.56186
v 2.65962 0.98122 -0.53866
v 2.72891 0.60656 -0.46654
v 2.52884 0.80121 -0.44904
v 2.61138 0.47842 -0.25227
v 2.42621 0.68368 -0.24420
v 2.24336 0.87789 -0.23284
v 3.08557 0.00748 -0.00000
v 2.81282 0.23751 -0.27294
v 3.83701 0.53197 -0.24693
v 3.61607 1.12047 -0.23185
v 3.44901 1.08374 -0.25986
v 3.25644 1.13616 -0.29528
v 3.73517 1.27765 -0.21182
v 3.79656 1.24932 -0.33982
v 3.82166 1.49730 -0.34084
v 3.93099 1.49409 -0.33350
v 3.88849 1.21417 -0.32974
v 3.74388 1.50206 -0.21796
v 3.69248 1.74718 -0.24738
v 3.80889 1.76456 -0.37591
v 3.64658 1.73821 -0.00000
v 3.57853 1.96076 -0.00000
v 3.63187 1.98687 -0.26177
v 4.04282 1.48410 -0.00000
v 4.08308 1.77381 -0.00000
v 4.13171 2.06642 -0.00000
v 4.04319 1.77695 -0.21620
v 4.00998 1.48885 -0.20569
v 3.93885 1.77484 -0.35915
v 3.79160 2.04547 -0.40172
v 3.96384 1.18378 -0.20518
v 3.90040 0.86029 -0.22122
v 2.93720 0.40096 -0.48062
v 2.60886 3.79247 -0.00000
v 2.39805 3.63511 -0.00000
v 2.64509 3.73710 -0.23852
v 2.42875 3.58653 -0.22487
v 2.71692 3.60952 -0.43223
v 2.48962 3.47526 -0.40583
v 2.81298 3.41315 -0.50845
v 2.57227 3.30322 -0.47861
v 2.32985 3.19617 -0.44888
v 2.64523 3.13124 -0.40221
v 2.39194 3.04863 -0.38268
v 2.13805 2.96712 -0.36510
v 2.43022 2.95049 -0.21209
v 2.17372 2.88303 -0.20173
v 3.03781 4.10828 -0.00000
v 2.82098 3.95194 -0.00000
v 3.08320 4.03618 -0.26690
v 2.86264 3.88829 -0.25527
v 3.18027 3.87307 -0.48732
v 2.94711 3.74079 -0.46192
v 3.29915 3.63213 -0.56567
v 3.05318 3.52244 -0.53938
v 3.38912 3.38773 -0.46698
v 3.14358 3.30313 -0.44940
v 2.89556 3.21681 -0.42446
v 3.19164 3.15128 -0.24489
v 2.94055 3.08563 -0.23290
v 2.68646 3.01936 -0.22065
v 3.45585 3.13842 -0.00000
v 3.57516 4.33646 -0.29477
v 3.30996 4.19251 -0.28105
v 3.64874 4.12304 -0.51269
v 3.41058 4.00593 -0.50148
v 3.76013 3.82549 -0.57844
v 3.53954 3.73413 -0.57603
v 3.86152 3.53541 -0.48145
v 3.63075 3.46029 -0.47427
v 3.93678 3.34098 -0.25992
v 3.68388 3.27698 -0.25506
v 3.43669 3.21820 -0.25158
v 3.70588 3.19559 -0.00000
v 3.96716 3.27174 -0.00000
v 4.22160 3.42541 -0.00000
v 4.39403 3.70219 -0.00000
v 4.41914 4.04777 -0.00000
v 4.25074 4.37966 -0.00000
v 1.12212 3.70216 -0.23693
v 0.98584 3.79100 -0.43213
v 0.77520 3.91917 -0.52582
v 0.53214 4.03784 -0.46895
v 0.34222 4.12223 -0.26876
v 0.19897 3.83086 -0.00000
v 0.27930 4.15354 -0.00000
v 0.51254 4.42570 -0.00000
v 0.84824 4.52190 -0.00000
v 1.15949 4.44666 -0.00000
v 1.31695 4.17780 -0.00000
v 3.76057 2.55399 -0.00000
v 0.13629 0.16508 -0.00000
v 0.02531 0.39518 -0.00000
v 1.13970 0.22504 -0.00000
v 1.29365 0.60547 -0.00000
v 1.21611 0.98180 -0.00000
v 1.04302 1.27040 -0.00000
v 0.00000 0.63173 -0.00000
v 0.37626 2.35855 -0.00000
v 0.04595 1.56321 -0.00000
v 0.05991 1.81249 -0.00000
v 0.07117 2.07821 -0.00000
v 0.08746 2.36256 -0.00000
v 0.10668 2.65579 -0.00000
v 0.13002 2.94430 -0.00000
v 0.15353 3.23424 -0.00000
v 0.17458 3.52695 -0.00000
v 0.90149 3.31229 -0.00000
v 0.78262 2.94113 -0.00000
v 1.31634 2.85555 -0.00000
v 1.54214 3.01485 -0.00000
v 1.18656 2.00350 -0.00000
v 1.01742 2.19823 -0.00000
v 0.85702 2.38598 -0.00000
v 0.69894 2.55266 -0.00000
v 0.40079 2.53193 -0.00000
v 1.35851 1.80495 -0.00000
v 2.68403 1.51794 -0.00000
v 2.02713 1.03213 -0.00000
v 1.85905 1.22607 -0.00000
v 3.09635 1.32058 -0.00000
v 2.89598 1.41806 -0.00000
v 2.37172 0.63213 -0.00000
v 2.19720 0.83425 -0.00000
v 2.55389 0.41869 -0.00000
v 2.76661 0.17213 -0.00000
v 3.43736 0.02269 -0.00000
v 3.72975 0.20313 -0.00000
v 3.88599 0.50482 -0.00000
v 3.60218 1.16657 -0.00000
v 3.44313 1.16314 -0.00000
v 3.27680 1.23931 -0.00000
v 3.71719 1.29283 -0.00000
v 3.71442 1.50718 -0.00000
v 4.07638 2.41177 -0.00000
v 3.99660 1.17137 -0.00000
v 3.94408 0.84134 -0.00000
v 2.44476 2.90583 -0.00000
v 2.18861 2.84769 -0.00000
v 1.93478 2.78914 -0.00000
v 2.95576 3.02294 -0.00000
v 2.70124 2.96605 -0.00000
v 3.20751 3.07979 -0.00000
v 3.54932 4.42651 -0.00000
v 3.26949 4.27478 -0.00000
v 3.88748 4.51073 -0.00000
v 1.03353 3.48414 -0.00000
v 1.17125 3.66988 -0.00000
v 1.27920 3.89696 -0.00000
v 1.07877 2.57495 0.33389
v 0.93044 0.42341 0.47899
v 0.50120 2.79741 0.39917
v 4.20959 3.73383 0.43088
v 4.15764 4.18283 0.46088
v 3.96970 2.30101 0.35051
v 3.55235 2.38030 0.20996
v 3.48844 0.79985 0.49650
v 3.40067 0.23159 0.44634
v 1.17258 4.14766 0.36984
v 0.88375 4.36416 0.39622
v 0.18680 0.21233 0.28093
v 1.14976 2.31176 0.32878
v 1.06742 2.26033 0.28480
v 0.92833 2.44616 0.28207
v 1.21996 2.54149 0.24500
v 1.20996 2.33738 0.25968
v 1.07605 2.69387 0.26489
v 1.33290 2.81056 0.26711
v 1.35706 2.74618 0.31584
v 0.79848 2.66688 0.33248
v 0.84767 2.73269 0.28537
v 0.75475 2.59537 0.28711
v 0.96116 0.63473 0.48762
v 1.19977 0.62310 0.29109
v 1.07621 0.29127 0.31487
v 0.76845 0.10841 0.32767
v 0.70649 0.36020 0.52235
v 0.67712 0.60889 0.57068
v 0.30070 2.59127 0.35486
v 0.19233 2.63505 0.32638
v 0.26067 2.89056 0.36811
v 0.32506 3.18526 0.40545
v 0.50121 3.13808 0.45990
v 0.52097 2.66296 0.30809
v 0.35945 2.56314 0.30316
v 0.66265 3.13376 0.37610
v 0.69550 2.89688 0.32393
v 4.06843 3.62811 0.46902
v 3.98357 3.90668 0.56910
v 4.20752 3.96392 0.47757
v 4.33596 3.70050 0.25836
v 4.17355 3.46769 0.25944
v 4.36893 4.02105 0.27414
v 4.22552 4.31841 0.28848
v 3.91893 4.19946 0.51303
v 3.89185 4.42110 0.30946
v 4.04719 2.38920 0.22118
v 4.09144 2.06115 0.21376
v 3.96523 2.06663 0.36959
v 3.76149 2.29946 0.38705
v 3.75648 2.50364 0.24519
v 3.56151 2.20860 0.25118
v 3.34283 0.50102 0.55323
v 3.09408 0.62404 0.56967
v 3.20994 0.89243 0.51832
v 3.69028 1.00594 0.39330
v 3.80718 0.91118 0.36671
v 3.69572 0.61401 0.43458
v 3.54370 0.38114 0.46858
v 3.68993 0.25004 0.27064
v 3.42714 0.08745 0.28379
v 3.20164 0.26881 0.48178
v 3.10986 0.07847 0.28281
v 1.10190 3.98583 0.40974
v 0.91146 4.11304 0.50185
v 1.05106 4.28242 0.41395
v 1.13792 4.41152 0.24310
v 1.27553 4.16753 0.22934
v 1.23056 3.91677 0.22874
v 0.70623 4.25420 0.45076
v 0.55195 4.38440 0.26447
v 0.86112 4.48143 0.24255
v 1.39535 2.69672 0.25756
v 0.13203 0.39808 0.32437
v 0.39526 0.35631 0.50411
v 0.42911 0.10145 0.33111
v 1.13176 0.95989 0.26522
v 0.97684 1.23468 0.25111
v 0.82500 1.47074 0.24295
v 0.81195 1.16213 0.45443
v 0.68956 1.41266 0.43211
v 0.57262 1.65642 0.40403
v 0.68832 1.69492 0.23013
v 0.56203 1.92265 0.21435
v 0.12373 0.85151 0.29547
v 0.11496 0.62956 0.31707
v 0.35329 0.83679 0.51845
v 0.36877 0.60698 0.52987
v 0.64175 0.84977 0.57326
v 0.32147 1.07624 0.49043
v 0.57552 1.10274 0.55387
v 0.91839 0.90514 0.47138
v 0.27801 1.32381 0.45614
v 0.49374 1.35917 0.51889
v 0.24006 1.57947 0.42036
v 0.41445 1.61477 0.47763
v 0.20808 1.83762 0.38416
v 0.34061 1.86504 0.43568
v 0.46863 1.89802 0.37351
v 0.27384 2.11396 0.38804
v 0.37273 2.13432 0.33456
v 0.44552 2.14709 0.19438
v 0.31487 2.36179 0.29973
v 0.36153 2.36034 0.17541
v 0.11672 1.31504 0.25710
v 0.12014 1.07722 0.27667
v 0.11205 1.56291 0.24160
v 0.10963 1.81917 0.22428
v 0.10625 2.08316 0.20453
v 0.17508 2.09597 0.34443
v 0.11313 2.36243 0.19165
v 0.16072 2.36271 0.31361
v 0.24462 2.36243 0.34993
v 0.13682 2.65047 0.19883
v 0.17168 2.93120 0.21635
v 0.20820 3.22049 0.22904
v 0.24342 3.51616 0.24164
v 0.38159 3.48564 0.43225
v 0.27275 3.81385 0.25461
v 0.44048 3.76989 0.45828
v 0.65988 3.69086 0.52186
v 0.56559 3.43413 0.49541
v 0.86060 3.59530 0.42869
v 0.73721 3.37646 0.40495
v 0.98597 3.51829 0.23414
v 0.85344 3.33320 0.22019
v 0.76907 3.13476 0.20002
v 0.76779 2.93354 0.18085
v 0.87888 2.77197 0.16764
v 1.31906 2.84504 0.14739
v 1.08817 2.73081 0.15416
v 1.54592 2.99763 0.15612
v 1.56342 2.94818 0.29551
v 1.77010 3.14727 0.18156
v 2.21149 3.43819 0.21454
v 1.99133 3.29180 0.20245
v 2.26084 3.34152 0.38510
v 2.03039 3.20822 0.36710
v 1.79487 3.07755 0.33778
v 2.08647 3.08847 0.42140
v 1.83803 2.97800 0.39160
v 1.59809 2.86884 0.34987
v 1.88471 2.88080 0.33918
v 1.63742 2.79195 0.29464
v 1.92175 2.81556 0.18205
v 1.66634 2.74606 0.15561
v 1.41566 2.66687 0.14116
v 1.24441 2.53654 0.14047
v 1.23577 2.34304 0.14466
v 1.35863 2.17505 0.14875
v 1.77966 1.92813 0.19254
v 1.56211 2.04812 0.16960
v 1.72729 1.86902 0.34684
v 1.52248 2.01062 0.30984
v 1.33240 2.15617 0.27397
v 1.46250 1.94191 0.36674
v 1.27983 2.10935 0.33393
v 1.40455 1.87048 0.31605
v 1.22523 2.05347 0.29008
v 1.37254 1.82541 0.17738
v 1.19603 2.01735 0.16490
v 1.02350 2.21263 0.16610
v 0.87003 2.39515 0.16796
v 0.71185 2.55899 0.17489
v 0.53220 2.62476 0.17654
v 0.39243 2.54167 0.17384
v 2.21443 1.68649 0.21849
v 1.99478 1.80419 0.20799
v 2.15128 1.59420 0.39113
v 1.93697 1.72730 0.37211
v 2.05610 1.46224 0.45256
v 1.85664 1.62084 0.42478
v 1.65670 1.78321 0.39873
v 1.77543 1.52126 0.37074
v 1.59089 1.69917 0.34961
v 1.71828 1.45048 0.20837
v 1.54631 1.63603 0.19528
v 2.65230 1.45482 0.24519
v 2.43525 1.57047 0.22972
v 2.57680 1.32492 0.43714
v 2.36604 1.46161 0.41132
v 2.45723 1.14730 0.50818
v 2.25693 1.30687 0.47966
v 2.33272 0.98161 0.42424
v 2.14426 1.16140 0.40269
v 1.95818 1.34000 0.38591
v 2.06697 1.07029 0.22223
v 1.89230 1.26115 0.21520
v 3.06427 1.23017 0.28268
v 2.86371 1.34191 0.26407
v 2.98965 1.03041 0.50128
v 2.78411 1.18238 0.47059
v 2.87250 0.79910 0.56186
v 2.65962 0.98122 0.53866
v 2.72891 0.60656 0.46654
v 2.52884 0.80121 0.44904
v 2.61138 0.47842 0.25227
v 2.42621 0.68368 0.24420
v 2.24336 0.87789 0.23284
v 2.81282 0.23751 0.27294
v 3.83701 0.53197 0.24693
v 3.61607 1.12047 0.23185
v 3.44901 1.08374 0.25986
v 3.25644 1.13616 0.29528
v 3.73517 1.27765 0.21182
v 3.79656 1.24932 0.33982
v 3.82166 1.49730 0.34084
v 3.93099 1.49409 0.33350
v 3.88849 1.21417 0.32974
v 3.74388 1.50206 0.21796
v 3.69248 1.74718 0.24738
v 3.80889 1.76456 0.37591
v 3.63187 1.98687 0.26177
v 4.04319 1.77695 0.21620
v 4.00998 1.48885 0.20569
v 3.93885 1.77484 0.35915
v 3.79160 2.04547 0.40172
v 3.96384 1.18378 0.20518
v 3.90040 0.86029 0.22122
v 2.93720 0.40096 0.48062
v 2.64509 3.73710 0.23852
v 2.42875 3.58653 0.22487
v 2.71692 3.60952 0.43223
v 2.48962 3.47526 0.40583
v 2.81298 3.41315 0.50845
v 2.57227 3.30322 0.47861
v 2.32985 3.19617 0.44888
v 2.64523 3.13124 0.40221
v 2.39194 3.04863 0.38268
v 2.13805 2.96712 0.36510
v 2.43022 2.95049 0.21209
v 2.17372 2.88303 0.20173
v 3.08320 4.03618 0.26690
v 2.86264 3.88829 0.25527
v 3.18027 3.87307 0.48732
v 2.94711 3.74079 0.46192
v 3.29915 3.63213 0.56567
v 3.05318 3.52244 0.53938
v 3.38912 3.38773 0.46698
v 3.14358 3.30313 0.44940
v 2.89556 3.21681 0.42446
v 3.19164 3.15128 0.24489
v 2.94055 3.08563 0.23290
v 2.68646 3.01936 0.22065
v 3.57516 4.33646 0.29477
v 3.30996 4.19251 0.28105
v 3.64874 4.12304 0.51269
v 3.41058 4.00593 0.50148
v 3.76013 3.82549 0.57844
v 3.53954 3.73413 0.57603
v 3.86152 3.53541 0.48145
v 3.63075 3.46029 0.47427
v 3.93678 3.34098 0.25992
v 3.68388 3.27698 0.25506
v 3.43669 3.21820 0.25158
v 1.12212 3.70216 0.23693
v 0.98584 3.79100 0.43213
v 0.77520 3.91917 0.52582
v 0.53214 4.03784 0.46895
v 0.34222 4.12223 0.26876
vn -0.24881 -0.24675 -0.93659
vn -0.34290 -0.20549 -0.91662
vn -0.54783 -0.40321 -0.73301
vn -0.46455 -0.44149 -0.76765
vn 0.55671 -0.23956 -0.79542
vn 0.74999 -0.35283 -0.55949
vn 0.80819 0.27428 -0.52115
vn 0.61821 0.24317 -0.74745
vn -0.04302 0.51016 -0.85900
vn -0.08279 0.76946 -0.63331
vn -0.40862 0.69306 -0.59388
vn -0.30088 0.47631 -0.82619
vn 0.27643 0.35638 -0.89251
vn 0.40730 0.58965 -0.69744
vn -0.30355 -0.64747 -0.69903
vn -0.13303 -0.43505 -0.89053
vn 0.42798 -0.28405 -0.85799
vn 0.48021 -0.00661 -0.87713
vn 0.83432 -0.03228 -0.55034
vn 0.64986 -0.51013 -0.56343
vn 0.22941 -0.78707 -0.57263
vn 0.12421 -0.36886 -0.92115
vn 0.07795 -0.04992 -0.99571
vn -0.23455 -0.09271 -0.96767
vn -0.27453 -0.02060 -0.96136
vn -0.59025 0.00905 -0.80717
vn -0.28485 -0.07401 -0.95571
vn 0.14014 -0.55392 -0.82069
vn 0.13498 -0.77973 -0.61139
vn 0.65322 -0.47353 -0.59083
vn 0.48014 -0.36084 -0.79954
vn 0.41851 0.03059 -0.90770
vn 0.43237 -0.18114 -0.88332
vn 0.66095 -0.18945 -0.72612
vn 0.66129 0.15279 -0.73441
vn 0.62463 -0.28295 -0.72786
vn 0.39367 -0.42531 -0.81495
vn 0.20274 -0.02286 -0.97897
vn 0.59267 0.04094 -0.80441
vn 0.84361 -0.33161 -0.42231
vn 0.58918 -0.66722 -0.45572
vn 0.90234 0.13150 -0.41049
vn 0.45220 0.41521 -0.78938
vn 0.84717 0.35959 -0.39115
vn 0.06607 0.46153 -0.88466
vn 0.02478 0.85601 -0.51636
vn 0.27714 0.83590 -0.47378
vn 0.81437 0.05873 -0.57737
vn 0.91887 0.10318 -0.38084
vn 0.91824 -0.01886 -0.39557
vn 0.80395 -0.02662 -0.59410
vn 0.19412 0.40335 -0.89422
vn 0.30655 0.83422 -0.45838
vn -0.47557 0.33081 -0.81510
vn -0.54398 0.12878 -0.82916
vn -0.53659 0.83019 -0.15117
vn -0.54348 0.83942 0.00073
vn -0.98753 0.01846 -0.15634
vn -0.97257 -0.13492 -0.18948
vn -0.99081 -0.13525 0.00188
vn -0.99973 0.02314 0.00369
vn 0.18975 0.32243 -0.92738
vn 0.12592 -0.12513 -0.98412
vn -0.04036 -0.04888 -0.99799
vn 0.20524 0.40954 -0.88891
vn 0.27307 0.10000 -0.95678
vn 0.57551 -0.01862 -0.81758
vn 0.55542 -0.09601 -0.82601
vn 0.42170 -0.33096 -0.84418
vn 0.21066 -0.57641 -0.78954
vn 0.66947 -0.57889 -0.46552
vn 0.27128 -0.83773 -0.47394
vn -0.07756 -0.50752 -0.85814
vn -0.19933 -0.84258 -0.50033
vn 0.67483 0.09930 -0.73127
vn 0.59243 -0.14866 -0.79178
vn 0.19088 0.13570 -0.97219
vn 0.39040 0.43181 -0.81310
vn 0.56145 0.71544 -0.41584
vn 0.89663 0.15070 -0.41634
vn 0.86086 -0.28150 -0.42387
vn 0.03227 0.65698 -0.75322
vn -0.21362 0.46779 -0.85764
vn -0.47734 0.74059 -0.47294
vn -0.00396 0.90795 -0.41905
vn 0.27877 -0.57417 -0.76981
vn 0.38365 -0.73998 -0.55249
vn -0.71515 -0.64782 -0.26247
vn -0.73860 -0.67414 0.00168
vn -0.97059 -0.24071 0.00255
vn -0.77351 -0.25615 -0.57972
vn -0.43850 -0.42114 -0.79395
vn -0.30456 -0.33094 -0.89315
vn -0.23923 -0.77587 -0.58377
vn -0.22642 -0.97403 -0.00112
vn 0.28767 -0.95773 -0.00028
vn 0.76917 -0.63904 -0.00106
vn 0.99721 -0.07465 -0.00135
vn 0.78921 0.31363 -0.52800
vn 0.93104 0.36493 -0.00042
vn 0.84634 0.53264 -0.00008
vn 0.74507 0.45655 -0.48623
vn 0.75347 0.48164 -0.44757
vn 0.83677 0.54756 0.00008
vn 0.49836 0.30147 -0.81287
vn 0.51925 0.34302 -0.78276
vn 0.54989 0.35173 -0.75757
vn 0.78091 0.47127 -0.40999
vn 0.85056 0.52588 -0.00010
vn 0.81039 0.46154 -0.36091
vn 0.86232 0.50636 -0.00030
vn -0.99994 -0.01076 0.00006
vn -0.93728 0.04541 -0.34559
vn -0.83531 0.03941 -0.54837
vn -0.81958 -0.01542 -0.57276
vn -0.45807 0.03053 -0.88839
vn -0.39935 -0.05072 -0.91539
vn 0.06564 0.07812 -0.99478
vn -0.50943 0.03576 -0.85977
vn 0.04446 0.14002 -0.98915
vn 0.48979 0.19605 -0.84951
vn -0.55556 0.03474 -0.83075
vn 0.02542 0.16890 -0.98531
vn -0.59985 0.03680 -0.79927
vn 0.01109 0.17878 -0.98383
vn -0.64699 0.03834 -0.76153
vn -0.37256 0.07713 -0.92480
vn 0.37125 0.27305 -0.88748
vn 0.58601 0.35877 -0.72655
vn 0.44296 0.25075 -0.86076
vn 0.65875 0.32503 -0.67853
vn 0.86106 0.41452 -0.29455
vn 0.77641 0.05394 -0.62792
vn 0.96748 0.10134 -0.23177
vn 0.99160 0.12934 0.00019
vn 0.89202 0.45200 -0.00014
vn -0.99950 0.03177 -0.00005
vn -0.99963 0.02716 0.00006
vn -0.87955 0.01108 -0.47569
vn -0.85610 0.01962 -0.51644
vn -0.99963 0.02725 0.00027
vn -0.90372 0.01207 -0.42796
vn -0.99964 0.02684 0.00016
vn -0.92792 0.01155 -0.37260
vn -0.99945 0.03331 -0.00009
vn -0.95028 0.02006 -0.31074
vn -0.69002 0.04836 -0.72217
vn -0.96079 0.05408 -0.27195
vn -0.91811 0.04954 -0.39322
vn -0.36758 0.05969 -0.92807
vn -0.40026 0.08464 -0.91248
vn 0.55643 0.03209 -0.83028
vn -0.95126 0.09041 -0.29483
vn -0.89937 0.09556 -0.42661
vn -0.99831 0.05818 -0.00012
vn -0.99645 0.08420 0.00006
vn -0.99525 0.09740 0.00007
vn -0.92932 0.10183 -0.35496
vn -0.85612 0.10459 -0.50608
vn -0.99558 0.09387 -0.00012
vn -0.90978 0.09281 -0.40457
vn -0.99629 0.08610 -0.00008
vn -0.89369 0.08430 -0.44069
vn -0.58154 0.03215 -0.81289
vn -0.86938 0.13995 -0.47392
vn -0.52905 0.08018 -0.84480
vn 0.03461 -0.10302 -0.99408
vn -0.31092 -0.02121 -0.95020
vn 0.38467 -0.23456 -0.89276
vn 0.50888 -0.35543 -0.78403
vn 0.57541 -0.33449 -0.74634
vn 0.73030 -0.53342 -0.42676
vn 0.79281 -0.46965 -0.38842
vn 0.91298 -0.22243 -0.34205
vn 0.91827 0.26261 -0.29633
vn 0.85105 -0.52508 -0.00069
vn 0.96626 -0.25759 -0.00003
vn 0.96685 0.25533 0.00052
vn 0.83803 0.54562 -0.00010
vn 0.53379 0.80999 -0.24286
vn -0.13988 0.99017 0.00001
vn -0.51047 0.85990 0.00010
vn -0.49288 0.85038 -0.18420
vn -0.12775 0.97341 -0.19012
vn 0.18503 0.98273 -0.00011
vn -0.55248 0.80142 -0.22911
vn -0.46212 0.62668 -0.62747
vn -0.57289 0.81964 0.00006
vn -0.57370 0.81906 -0.00002
vn -0.54449 0.78904 -0.28451
vn -0.57150 0.82060 0.00001
vn -0.57738 0.81648 0.00002
vn -0.52708 0.75985 -0.38054
vn -0.53097 0.77719 -0.33771
vn -0.37712 0.52118 -0.76560
vn -0.39354 0.54971 -0.73684
vn -0.43309 0.58372 -0.68681
vn -0.25777 0.31215 -0.91439
vn -0.30867 0.35177 -0.88373
vn -0.34961 0.41229 -0.84131
vn 0.10818 -0.56352 -0.81899
vn 0.06171 -0.46626 -0.88249
vn 0.15169 -0.71113 -0.68650
vn 0.19152 -0.76672 -0.61275
vn 0.23190 -0.92892 -0.28865
vn 0.26004 -0.93627 -0.23617
vn 0.45300 -0.87281 -0.18166
vn 0.25992 -0.96563 -0.00001
vn 0.44559 -0.89524 0.00013
vn 0.59508 -0.80367 0.00019
vn 0.60596 -0.78152 -0.14845
vn 0.99007 -0.03902 -0.13502
vn 0.94598 0.28936 -0.14624
vn 0.99910 -0.04245 -0.00001
vn 0.95529 0.29566 0.00004
vn 0.66522 0.74664 0.00008
vn 0.66776 0.72444 -0.17116
vn 0.47816 0.87827 0.00015
vn 0.46435 0.88565 0.00008
vn 0.45153 0.83757 -0.30757
vn 0.48037 0.84484 -0.23557
vn 0.32444 0.63415 -0.70185
vn 0.38055 0.68484 -0.62143
vn 0.57443 0.61347 -0.54192
vn 0.24344 0.49460 -0.83433
vn 0.43187 0.47368 -0.76754
vn -0.39918 -0.26302 -0.87833
vn -0.39767 -0.27258 -0.87610
vn -0.57595 -0.47444 -0.66572
vn -0.58474 -0.45878 -0.66903
vn -0.72071 -0.64387 -0.25693
vn -0.73157 -0.63615 -0.24520
vn -0.73644 -0.61447 -0.28298
vn -0.75002 -0.66142 0.00000
vn -0.75737 -0.65299 0.00003
vn -0.74246 -0.66989 0.00003
vn -0.70137 -0.64305 -0.30752
vn -0.54617 -0.83767 -0.00003
vn -0.50199 -0.82664 -0.25432
vn -0.34279 -0.93941 -0.00003
vn -0.31467 -0.92901 -0.19475
vn 0.50337 -0.84634 -0.17414
vn 0.50916 -0.86067 0.00001
vn 0.98811 -0.15375 0.00035
vn 0.96692 -0.17004 -0.19014
vn 0.46465 0.88549 0.00000
vn 0.44978 0.89314 0.00001
vn 0.41955 0.81830 -0.39289
vn 0.44104 0.82297 -0.35805
vn 0.27430 0.57050 -0.77414
vn 0.29931 0.59034 -0.74961
vn 0.13144 0.33931 -0.93145
vn 0.15021 0.35837 -0.92142
vn 0.17728 0.41481 -0.89247
vn -0.35729 -0.25704 -0.89793
vn -0.32444 -0.24511 -0.91360
vn -0.51275 -0.44201 -0.73601
vn -0.54199 -0.45812 -0.70454
vn -0.69892 -0.62948 -0.33952
vn -0.70985 -0.63717 -0.30021
vn -0.74796 -0.66375 0.00003
vn -0.74920 -0.66234 0.00002
vn -0.74931 -0.66222 0.00004
vn 0.44541 0.89533 -0.00000
vn 0.44133 0.89734 -0.00003
vn 0.39607 0.79768 -0.45479
vn 0.40777 0.80880 -0.42376
vn 0.23284 0.52985 -0.81550
vn 0.25566 0.55204 -0.79366
vn -0.12160 0.04423 -0.99159
vn 0.11626 0.32808 -0.93747
vn -0.31760 -0.23795 -0.91788
vn -0.48110 -0.40366 -0.77820
vn -0.48865 -0.41890 -0.76534
vn -0.49771 -0.43229 -0.75194
vn -0.31658 -0.24300 -0.91691
vn -0.68271 -0.61164 -0.39976
vn -0.68988 -0.62180 -0.37073
vn -0.75011 -0.66131 -0.00002
vn -0.74853 -0.66310 0.00001
vn 0.44438 0.89584 0.00000
vn 0.43339 0.90121 0.00013
vn 0.37501 0.76823 -0.51883
vn 0.39134 0.78099 -0.48672
vn 0.20572 0.44823 -0.86993
vn 0.21756 0.49467 -0.84141
vn -0.10701 -0.00936 -0.99421
vn -0.12570 0.02396 -0.99178
vn -0.44469 -0.38156 -0.81035
vn -0.46832 -0.39579 -0.78995
vn -0.66730 -0.57238 -0.47654
vn -0.66497 -0.59297 -0.45410
vn -0.67341 -0.60290 -0.42783
vn -0.75074 -0.66060 -0.00003
vn -0.74908 -0.66248 0.00001
vn -0.76170 -0.64793 0.00012
vn -0.22324 -0.97476 0.00002
vn -0.63007 -0.77654 -0.00007
vn -0.54694 -0.66828 -0.50424
vn 0.29298 -0.95612 0.00008
vn 0.73717 -0.67570 -0.00028
vn 0.85552 -0.27334 -0.43975
vn 0.94865 -0.31633 -0.00011
vn 0.13665 0.99062 0.00012
vn -0.09792 0.99519 -0.00180
vn -0.47234 0.75485 -0.45507
vn 0.09367 0.84124 -0.53248
vn 0.34354 0.77399 -0.53191
vn 0.39158 0.92014 0.00110
vn -0.45129 0.59847 -0.66194
vn -0.88273 0.31750 -0.34639
vn -0.79654 0.27554 -0.53815
vn -0.76437 0.64477 0.00201
vn -0.93753 0.34791 0.00139
vn 0.14839 0.03877 -0.98817
vn 0.09189 -0.06481 -0.99366
vn -0.93180 -0.09409 -0.35057
vn -0.83272 -0.06399 -0.54998
vn -0.87160 -0.22425 -0.43591
vn -0.72921 -0.17313 -0.66203
vn -0.99262 -0.12130 -0.00006
vn -0.96463 -0.26360 -0.00012
vn -0.95903 -0.28330 0.00025
vn -0.83042 -0.21152 -0.51542
vn 0.99995 -0.01031 0.00029
vn 0.98913 -0.14706 -0.00003
vn 0.91293 -0.12677 -0.38793
vn 0.98956 0.14410 0.00058
vn 0.39460 0.91885 -0.00126
vn 0.99035 -0.13862 -0.00001
vn 0.92332 -0.12702 -0.36241
vn 0.83182 -0.11197 -0.54363
vn 0.80709 -0.10241 -0.58148
vn 0.13001 -0.08670 -0.98771
vn 0.16699 0.00708 -0.98593
vn -0.63168 -0.12237 -0.76551
vn 0.98726 -0.15914 0.00006
vn 0.91886 -0.14973 -0.36507
vn 0.82907 -0.13652 -0.54222
vn 0.98526 -0.17107 0.00005
vn 0.90558 -0.15476 -0.39495
vn -0.32849 -0.41535 -0.84828
vn -0.58609 0.81024 -0.00002
vn -0.59181 0.80608 0.00001
vn -0.52935 0.72434 -0.44172
vn -0.52941 0.74046 -0.41405
vn -0.37227 0.46533 -0.80305
vn -0.37625 0.49292 -0.78452
vn -0.10436 -0.06909 -0.99214
vn -0.24581 0.27091 -0.93069
vn -0.24227 0.29091 -0.92557
vn 0.06102 -0.38911 -0.91917
vn 0.05517 -0.38344 -0.92191
vn 0.13732 -0.62320 -0.76991
vn 0.14524 -0.63869 -0.75564
vn 0.15042 -0.66365 -0.73276
vn 0.06589 -0.40692 -0.91108
vn 0.22668 -0.90007 -0.37214
vn 0.22762 -0.91417 -0.33539
vn 0.23719 -0.97146 -0.00002
vn 0.23470 -0.97207 -0.00002
vn 0.23657 -0.97162 -0.00001
vn -0.58492 0.81109 -0.00001
vn -0.57941 0.81504 -0.00000
vn -0.50337 0.71261 -0.48868
vn -0.51627 0.71823 -0.46649
vn -0.32154 0.43440 -0.84137
vn -0.35387 0.44681 -0.82167
vn -0.05938 -0.06787 -0.99593
vn -0.09357 -0.07300 -0.99293
vn 0.13746 -0.56630 -0.81266
vn 0.12858 -0.58626 -0.79985
vn 0.12748 -0.60588 -0.78528
vn 0.21560 -0.86282 -0.45723
vn 0.21255 -0.87693 -0.43107
vn 0.22087 -0.88852 -0.40218
vn 0.22974 -0.97325 -0.00001
vn 0.23489 -0.97202 0.00001
vn 0.23640 -0.97166 -0.00000
vn -0.53366 0.84570 0.00010
vn -0.37234 0.92810 -0.00014
vn -0.32627 0.78676 -0.52397
vn -0.46038 0.72730 -0.50900
vn -0.18497 0.43181 -0.88280
vn -0.27316 0.42433 -0.86332
vn 0.02460 -0.05133 -0.99838
vn -0.02405 -0.06060 -0.99787
vn 0.20289 -0.50432 -0.83935
vn 0.14328 -0.54229 -0.82788
vn 0.32515 -0.80901 -0.48967
vn 0.21398 -0.84476 -0.49050
vn 0.21193 -0.85234 -0.47812
vn 0.24247 -0.97016 0.00021
vn 0.23384 -0.97228 -0.00001
vn 0.38112 -0.92452 -0.00047
vn 0.68463 -0.72889 0.00036
vn 0.94371 -0.33078 0.00145
vn 0.98353 0.18074 0.00092
vn 0.89810 0.43978 0.00097
vn 0.32398 0.94606 -0.00090
vn 0.03728 0.99930 -0.00071
vn 0.85494 -0.51873 0.00009
vn 0.80063 -0.59915 -0.00012
vn 0.76907 -0.46019 -0.44357
vn 0.95440 -0.29852 -0.00059
vn 0.51994 -0.28521 -0.80518
vn 0.08409 -0.01468 -0.99635
vn -0.41584 0.23241 -0.87924
vn -0.77328 0.38773 -0.50171
vn -0.98803 0.15426 0.00025
vn -0.89559 0.44489 -0.00007
vn -0.54800 0.83648 -0.00018
vn -0.02100 0.99978 -0.00004
vn 0.23978 0.97083 -0.00035
vn 0.86899 0.49483 -0.00078
vn 0.98349 0.18096 -0.00112
vn -0.45955 -0.43833 0.77245
vn -0.55051 -0.39656 0.73463
vn -0.34616 -0.19171 0.91838
vn -0.23412 -0.23879 0.94243
vn 0.60362 0.26069 0.75345
vn 0.80173 0.28391 0.52596
vn 0.74493 -0.34682 0.56991
vn 0.53901 -0.22225 0.81245
vn -0.30106 0.47507 0.82684
vn -0.40784 0.69269 0.59485
vn -0.08331 0.76856 0.63433
vn -0.04444 0.50913 0.85954
vn 0.39254 0.59432 0.70193
vn 0.25396 0.36347 0.89632
vn -0.11030 -0.44428 0.88907
vn -0.29272 -0.65566 0.69601
vn 0.64740 -0.50841 0.56780
vn 0.83172 -0.03410 0.55414
vn 0.47652 -0.01039 0.87910
vn 0.42564 -0.28314 0.85945
vn 0.12723 -0.36722 0.92139
vn 0.23046 -0.78451 0.57570
vn 0.07919 -0.05230 0.99549
vn -0.22792 -0.08565 0.96991
vn -0.26421 -0.01131 0.96440
vn -0.28347 -0.08125 0.95553
vn -0.58938 0.00624 0.80783
vn 0.47835 -0.34845 0.80608
vn 0.65266 -0.46734 0.59634
vn 0.13685 -0.78006 0.61056
vn 0.14216 -0.54660 0.82524
vn 0.65103 0.15682 0.74268
vn 0.65934 -0.19021 0.72739
vn 0.42815 -0.18132 0.88533
vn 0.39561 0.03692 0.91768
vn 0.59002 0.04376 0.80620
vn 0.20908 -0.02271 0.97763
vn 0.39513 -0.41688 0.81859
vn 0.62493 -0.27194 0.73179
vn 0.59096 -0.66032 0.46341
vn 0.84334 -0.32311 0.42940
vn 0.89800 0.13362 0.41920
vn 0.60164 0.64206 0.47518
vn 0.44840 0.41256 0.79293
vn 0.02708 0.85440 0.51892
vn 0.07301 0.45916 0.88535
vn 0.79727 -0.02112 0.60326
vn 0.91591 -0.01616 0.40106
vn 0.91396 0.10766 0.39126
vn 0.80100 0.06740 0.59485
vn 0.32844 0.81312 0.48059
vn 0.21222 0.37076 0.90416
vn -0.57220 0.12747 0.81015
vn -0.52880 0.33772 0.77866
vn -0.53775 0.82918 0.15262
vn -0.97241 -0.13058 0.19329
vn -0.98615 0.02723 0.16363
vn 0.20454 0.41234 0.88777
vn -0.04169 -0.04793 0.99798
vn 0.12653 -0.12806 0.98366
vn 0.19800 0.33599 0.92082
vn 0.55607 -0.09426 0.82577
vn 0.57710 -0.02189 0.81638
vn 0.27770 0.09876 0.95558
vn 0.41697 -0.33325 0.84562
vn 0.26737 -0.83562 0.47984
vn 0.66523 -0.58023 0.46990
vn 0.20716 -0.57676 0.79021
vn -0.07446 -0.51123 0.85622
vn -0.19800 -0.84217 0.50154
vn 0.38732 0.42660 0.81731
vn 0.19493 0.13892 0.97093
vn 0.59352 -0.14437 0.79177
vn 0.67318 0.09870 0.73286
vn 0.89473 0.15012 0.42062
vn 0.55852 0.71159 0.42625
vn 0.86071 -0.27836 0.42624
vn -0.00426 0.90391 0.42770
vn -0.47298 0.74065 0.47722
vn -0.20741 0.46819 0.85894
vn 0.03192 0.65083 0.75855
vn 0.38291 -0.73952 0.55361
vn 0.27599 -0.57093 0.77322
vn -0.78001 -0.26388 0.56741
vn -0.65779 -0.60509 0.44852
vn -0.25236 -0.78257 0.56912
vn -0.31845 -0.33867 0.88538
vn 0.78978 0.31282 0.52763
vn 0.74655 0.45510 0.48533
vn 0.75366 0.48149 0.44741
vn 0.51977 0.34236 0.78271
vn 0.50055 0.29940 0.81229
vn 0.78021 0.47297 0.40935
vn 0.54964 0.35273 0.75729
vn 0.80990 0.46258 0.36066
vn -0.81901 -0.01434 0.57359
vn -0.83533 0.03877 0.54838
vn -0.93737 0.04443 0.34548
vn -0.39878 -0.04905 0.91574
vn -0.45787 0.03006 0.88851
vn 0.06527 0.07703 0.99489
vn 0.04578 0.13780 0.98940
vn -0.50879 0.03513 0.86017
vn 0.48964 0.19480 0.84989
vn 0.02620 0.16694 0.98562
vn -0.55568 0.03586 0.83062
vn 0.01167 0.17634 0.98426
vn -0.59995 0.03717 0.79917
vn -0.37221 0.07362 0.92522
vn -0.64696 0.03912 0.76152
vn 0.58591 0.35930 0.72637
vn 0.37111 0.27418 0.88719
vn 0.65883 0.32919 0.67644
vn 0.44397 0.25705 0.85838
vn 0.86082 0.41544 0.29392
vn 0.96719 0.10262 0.23241
vn 0.77599 0.05867 0.62801
vn -0.85617 0.02044 0.51629
vn -0.87985 0.01337 0.47506
vn -0.90385 0.01320 0.42765
vn -0.92794 0.01305 0.37251
vn -0.95045 0.01976 0.31025
vn -0.69040 0.04782 0.72185
vn -0.91830 0.04707 0.39307
vn -0.96092 0.05267 0.27176
vn -0.40051 0.08276 0.91255
vn -0.36330 0.05392 0.93011
vn 0.55691 0.03694 0.82975
vn -0.89918 0.10026 0.42594
vn -0.95115 0.09247 0.29454
vn -0.92913 0.10441 0.35472
vn -0.85567 0.11098 0.50549
vn -0.90957 0.09324 0.40495
vn -0.89366 0.08350 0.44090
vn -0.58135 0.03269 0.81300
vn -0.53009 0.08246 0.84392
vn -0.86974 0.13986 0.47329
vn -0.31106 -0.01918 0.95020
vn 0.03452 -0.10328 0.99405
vn 0.57385 -0.33538 0.74714
vn 0.50905 -0.35882 0.78238
vn 0.38308 -0.23637 0.89296
vn 0.79195 -0.47093 0.38864
vn 0.73005 -0.53463 0.42567
vn 0.91295 -0.22281 0.34188
vn 0.91781 0.26345 0.29700
vn 0.53186 0.81065 0.24489
vn -0.12739 0.97328 0.19107
vn -0.49228 0.85057 0.18489
vn -0.46114 0.62734 0.62753
vn -0.55088 0.80252 0.22911
vn -0.54409 0.78942 0.28423
vn -0.53130 0.77703 0.33757
vn -0.52707 0.75984 0.38057
vn -0.39289 0.55010 0.73691
vn -0.37718 0.52114 0.76560
vn -0.43297 0.58392 0.68671
vn -0.30878 0.35135 0.88386
vn -0.25608 0.31283 0.91463
vn -0.35010 0.41165 0.84141
vn 0.19185 -0.76590 0.61367
vn 0.14972 -0.71173 0.68631
vn 0.05896 -0.46758 0.88198
vn 0.10859 -0.56146 0.82035
vn 0.25926 -0.93649 0.23614
vn 0.23127 -0.92903 0.28883
vn 0.45285 -0.87314 0.18043
vn 0.60474 -0.78293 0.14595
vn 0.94604 0.28906 0.14648
vn 0.99010 -0.03886 0.13485
vn 0.66639 0.72562 0.17146
vn 0.48013 0.84493 0.23574
vn 0.45247 0.83703 0.30765
vn 0.38188 0.68331 0.62230
vn 0.32536 0.63366 0.70186
vn 0.57501 0.61319 0.54162
vn 0.43501 0.47213 0.76672
vn 0.24601 0.49117 0.83560
vn -0.58360 -0.45908 0.66981
vn -0.57510 -0.47548 0.66572
vn -0.39713 -0.27332 0.87612
vn -0.39671 -0.26341 0.87934
vn -0.73173 -0.63594 0.24526
vn -0.72014 -0.64449 0.25696
vn -0.73651 -0.61451 0.28272
vn -0.70221 -0.64229 0.30719
vn -0.50247 -0.82775 0.24971
vn -0.31373 -0.93120 0.18559
vn 0.50340 -0.84646 0.17346
vn 0.96644 -0.16985 0.19271
vn 0.44081 0.82313 0.35796
vn 0.41956 0.81829 0.39291
vn 0.29893 0.59078 0.74941
vn 0.27432 0.57046 0.77416
vn 0.14970 0.35900 0.92125
vn 0.13150 0.33923 0.93147
vn 0.17780 0.41458 0.89247
vn -0.54164 -0.45881 0.70436
vn -0.51314 -0.44177 0.73589
vn -0.32492 -0.24478 0.91352
vn -0.35735 -0.25730 0.89783
vn -0.70942 -0.63771 0.30008
vn -0.69908 -0.62933 0.33945
vn 0.40793 0.80870 0.42379
vn 0.39589 0.79785 0.45465
vn 0.25583 0.55187 0.79372
vn 0.23269 0.53014 0.81536
vn 0.11641 0.32790 0.93751
vn -0.12170 0.04445 0.99157
vn -0.48919 -0.41836 0.76529
vn -0.48119 -0.40356 0.77820
vn -0.31767 -0.23788 0.91788
vn -0.31637 -0.24320 0.91693
vn -0.49771 -0.43228 0.75195
vn -0.68997 -0.62169 0.37074
vn -0.68317 -0.61117 0.39969
vn 0.39135 0.78080 0.48703
vn 0.37567 0.76810 0.51856
vn 0.21731 0.49414 0.84178
vn 0.20582 0.44851 0.86976
vn -0.12597 0.02371 0.99175
vn -0.10789 -0.00864 0.99413
vn -0.46835 -0.39582 0.78992
vn -0.44538 -0.37990 0.81075
vn -0.66504 -0.59293 0.45404
vn -0.66775 -0.57131 0.47720
vn -0.67346 -0.60283 0.42783
vn -0.54739 -0.66787 0.50430
vn 0.85488 -0.27624 0.43916
vn 0.10318 0.84781 0.52016
vn -0.45987 0.77053 0.44136
vn 0.34129 0.77556 0.53106
vn -0.43486 0.63352 0.63996
vn -0.79997 0.28682 0.52705
vn -0.88313 0.32216 0.34103
vn 0.14850 0.03239 0.98838
vn 0.09144 -0.06365 0.99377
vn -0.83296 -0.05910 0.55016
vn -0.93192 -0.09239 0.35071
vn -0.72674 -0.16246 0.66743
vn -0.87117 -0.21969 0.43909
vn -0.82991 -0.21078 0.51655
vn 0.91275 -0.12696 0.38828
vn 0.92319 -0.12776 0.36248
vn 0.80653 -0.10296 0.58215
vn 0.83151 -0.11365 0.54377
vn 0.13068 -0.08753 0.98755
vn 0.16694 0.00479 0.98595
vn -0.63036 -0.12146 0.76675
vn 0.91891 -0.14990 0.36489
vn 0.82920 -0.13742 0.54180
vn 0.90515 -0.15692 0.39506
vn -0.32950 -0.41473 0.84819
vn -0.52946 0.74046 0.41400
vn -0.52945 0.72426 0.44173
vn -0.37612 0.49301 0.78452
vn -0.37226 0.46528 0.80308
vn -0.24550 0.27107 0.93073
vn -0.10427 -0.06907 0.99215
vn -0.24231 0.29089 0.92557
vn 0.14485 -0.63884 0.75558
vn 0.13731 -0.62320 0.76991
vn 0.05478 -0.38360 0.92188
vn 0.06123 -0.38903 0.91919
vn 0.06521 -0.40742 0.91091
vn 0.15016 -0.66368 0.73279
vn 0.22786 -0.91404 0.33558
vn 0.22616 -0.90024 0.37204
vn -0.51650 0.71806 0.46649
vn -0.50332 0.71250 0.48889
vn -0.35404 0.44664 0.82169
vn -0.32174 0.43393 0.84154
vn -0.09342 -0.07298 0.99295
vn -0.05934 -0.06791 0.99593
vn 0.12812 -0.58647 0.79977
vn 0.13771 -0.56622 0.81267
vn 0.12751 -0.60587 0.78528
vn 0.21255 -0.87693 0.43106
vn 0.21527 -0.86297 0.45711
vn 0.22103 -0.88847 0.40221
vn -0.46071 0.72717 0.50890
vn -0.32608 0.78693 0.52385
vn -0.27389 0.42451 0.86300
vn -0.18444 0.43206 0.88278
vn -0.02452 -0.06023 0.99788
vn 0.02497 -0.05126 0.99837
vn 0.14315 -0.54193 0.82815
vn 0.20259 -0.50396 0.83963
vn 0.21382 -0.84456 0.49092
vn 0.32494 -0.80902 0.48980
vn 0.21202 -0.85237 0.47803
vn 0.76902 -0.46021 0.44364
vn 0.52016 -0.28576 0.80485
vn 0.08457 -0.01407 0.99632
vn -0.41557 0.23425 0.87888
vn -0.77321 0.38822 0.50143
f 1//1 13//2 14//3 15//4
f 1//5 16//6 17//7 13//8
f 1//9 18//10 19//11 20//12
f 1//9 21//13 22//14 18//10
f 1//1 15//4 23//15 21//16
f 2//17 24//18 25//19 26//20
f 2//17 26//20 27//21 28//22
f 2//17 28//22 29//23 24//18
f 3//24 30//25 31//25 32//24
f 3//24 32//24 33//26 34//27
f 3//28 35//29 36//30 30//31
f 3//32 34//33 37//34 38//35
f 4//36 39//37 40//38 41//39
f 4//36 42//40 43//41 39//37
f 4//36 41//39 44//42 42//40
f 3//28 21//16 23//15 35//29
f 3//32 38//35 22//14 21//13
f 5//43 45//44 44//42 41//39
f 5//43 46//45 47//46 45//47
f 5//43 41//39 40//38 46//45
f 6//48 48//49 49//50 50//51
f 6//52 51//52 52//53 48//53
f 7//54 52//54 51//55 55//55
f 7//56 53//57 315//57 52//56
f 7//58 55//59 54//60 53//61
f 8//62 56//63 57//64 58//65
f 8//62 59//66 60//67 61//68
f 8//62 61//68 62//69 56//63
f 9//70 62//69 63//71 64//72
f 9//70 65//73 56//63 62//69
f 9//70 64//72 66//74 65//73
f 10//75 67//76 68//77 69//78
f 10//75 69//78 70//79 71//80
f 10//75 71//80 72//81 67//76
f 11//82 73//83 74//84 75//85
f 11//82 69//78 68//77 73//83
f 11//82 75//85 70//79 69//78
f 1//5 20//86 76//87 16//6
f 12//88 316//89 317//90 77//91
f 12//92 77//91 78//93 79//94
f 79//94 80//95 316//89 12//88
f 79//94 78//93 28//22 27//21
f 79//94 27//21 81//96 80//95
f 81//96 27//21 26//20 318//97
f 318//97 26//20 25//19 319//98
f 319//98 25//19 82//99 320//100
f 321//101 320//100 82//99 84//102
f 321//101 84//102 85//103 83//104
f 85//103 84//102 86//105 87//106
f 85//103 87//106 88//107 89//108
f 85//103 89//108 90//109 83//104
f 90//109 89//108 91//110 92//111
f 322//112 93//113 94//114 95//115
f 322//112 95//115 77//91 317//90
f 95//115 94//114 96//116 97//117
f 95//115 97//117 78//93 77//91
f 97//117 96//116 98//118 29//23
f 97//117 29//23 28//22 78//93
f 98//118 96//116 99//119 100//120
f 98//118 100//120 86//105 101//121
f 98//118 101//121 24//18 29//23
f 101//121 86//105 84//102 82//99
f 101//121 82//99 25//19 24//18
f 100//120 99//119 102//122 103//123
f 100//120 103//123 87//106 86//105
f 103//123 102//122 104//124 105//125
f 103//123 105//125 88//107 87//106
f 105//125 104//124 106//126 107//127
f 105//125 107//128 108//129 88//107
f 108//129 107//128 109//130 110//131
f 108//129 110//131 111//132 91//110
f 108//129 91//110 89//108 88//107
f 111//132 110//131 112//133 113//134
f 111//132 113//134 323//135 114//136
f 111//132 114//136 92//111 91//110
f 116//137 115//138 117//139 118//140
f 116//137 118//140 94//114 93//113
f 118//140 117//139 102//122 99//119
f 118//140 99//119 96//116 94//114
f 117//139 115//138 324//141 119//142
f 117//139 119//142 104//124 102//122
f 119//142 324//141 325//143 120//144
f 119//142 120//144 106//126 104//124
f 120//144 325//143 326//145 121//146
f 120//144 121//146 122//147 106//126
f 122//147 121//146 123//148 124//149
f 122//147 124//150 125//150 109//151
f 122//147 109//151 107//127 106//126
f 125//150 124//150 31//25 30//25
f 125//152 30//31 36//30 112//133
f 125//152 112//133 110//131 109//130
f 124//149 123//148 126//153 31//154
f 126//153 123//148 327//155 328//156
f 126//153 328//156 329//157 127//158
f 126//153 127//158 32//159 31//154
f 127//158 329//157 330//160 128//161
f 127//158 128//161 33//26 32//159
f 128//161 330//160 331//162 129//163
f 128//161 129//163 130//164 33//26
f 130//164 129//163 131//165 132//166
f 130//164 132//166 133//167 134//168
f 130//164 134//168 34//27 33//26
f 134//169 133//167 135//170 136//171
f 134//169 136//171 37//34 34//33
f 136//171 135//170 137//172 138//173
f 136//171 138//173 139//174 37//34
f 139//174 140//175 38//35 37//34
f 139//174 138//173 332//176 141//177
f 139//174 141//177 333//178 140//175
f 333//178 142//179 143//180 140//175
f 144//181 334//182 145//183 146//184
f 144//181 146//184 143//180 142//185
f 146//184 145//183 19//11 18//10
f 146//184 18//10 22//14 143//180
f 145//183 147//186 148//187 19//11
f 145//183 334//182 335//188 147//186
f 335//188 149//189 150//190 147//186
f 151//191 152//192 153//193 154//194
f 151//191 154//194 150//190 149//189
f 154//194 153//193 155//195 156//196
f 154//194 156//196 157//197 150//190
f 157//197 156//196 158//198 159//199
f 157//197 159//199 160//200 148//187
f 157//197 148//187 147//186 150//190
f 160//201 159//202 161//203 162//204
f 160//201 162//204 76//87 20//86
f 160//200 20//12 19//11 148//187
f 162//204 161//203 163//205 164//206
f 162//204 164//206 165//207 76//87
f 165//207 164//206 166//208 167//209
f 165//207 167//209 168//210 169//211
f 165//207 169//211 16//6 76//87
f 169//212 170//213 17//7 16//6
f 169//212 168//214 171//215 170//213
f 171//215 172//216 173//217 170//213
f 174//218 175//219 176//220 177//221
f 174//218 177//221 173//217 172//216
f 177//221 176//220 178//222 179//223
f 177//221 179//223 180//224 173//217
f 180//224 179//223 181//225 182//226
f 180//224 182//226 13//8 17//7
f 180//224 17//7 170//213 173//217
f 182//227 181//228 183//229 184//230
f 182//227 184//230 14//3 13//2
f 184//230 183//229 185//231 186//232
f 184//230 186//232 187//233 14//3
f 187//233 186//232 336//234 337//235
f 187//233 337//235 338//236 188//237
f 187//233 188//237 15//4 14//3
f 188//237 338//236 339//238 189//239
f 188//237 189//239 23//15 15//4
f 189//239 339//238 190//240 191//241
f 189//239 191//241 35//29 23//15
f 191//242 192//242 36//30 35//29
f 191//242 190//243 340//243 192//242
f 340//244 323//135 113//134 192//245
f 194//246 193//247 195//248 196//249
f 194//246 196//249 176//220 175//219
f 196//249 195//248 197//250 198//251
f 196//249 198//251 178//222 176//220
f 198//251 197//250 199//252 200//253
f 198//251 200//253 201//254 178//222
f 201//255 200//256 202//257 203//258
f 201//255 203//258 183//229 181//228
f 201//254 181//225 179//223 178//222
f 203//258 202//257 204//259 205//260
f 203//258 205//260 185//231 183//229
f 205//260 204//259 206//261 207//262
f 205//260 207//262 341//263 185//231
f 341//263 336//234 186//232 185//231
f 208//264 342//265 209//266 210//267
f 208//264 210//267 195//248 193//247
f 210//267 209//266 211//268 212//269
f 210//267 212//269 197//250 195//248
f 212//269 211//268 213//270 214//271
f 212//269 214//271 199//252 197//250
f 214//272 213//270 215//273 216//274
f 214//272 216//274 217//275 199//276
f 217//275 216//274 218//277 219//278
f 217//275 219//278 204//259 202//257
f 217//275 202//257 200//256 199//276
f 219//278 218//277 343//279 344//280
f 219//278 344//280 206//261 204//259
f 346//281 345//282 220//283 221//284
f 346//281 221//284 209//266 342//265
f 221//284 220//283 222//285 223//286
f 221//284 223//286 211//268 209//266
f 223//286 222//285 224//287 225//288
f 223//286 225//288 213//270 211//268
f 225//288 224//287 226//289 227//290
f 225//288 227//290 215//273 213//270
f 227//290 226//289 228//291 229//292
f 227//290 229//292 230//293 215//273
f 230//293 229//292 347//294 348//295
f 230//293 348//295 343//279 218//277
f 230//293 218//277 216//274 215//273
f 347//294 229//292 228//291 349//296
f 231//297 350//298 232//299 66//74
f 231//297 66//74 64//72 351//300
f 351//300 64//72 63//71 352//301
f 352//301 63//71 233//302 353//303
f 355//304 354//305 234//306 235//307
f 355//304 235//307 236//308 356//309
f 236//308 235//307 8//62 58//65
f 236//308 58//65 222//285 220//283
f 236//308 220//283 345//282 356//309
f 235//307 234//306 59//310 8//62
f 234//306 237//311 238//312 59//310
f 234//306 354//313 357//314 237//311
f 238//315 239//316 240//316 241//315
f 238//315 241//315 60//67 59//66
f 238//312 237//311 242//317 239//318
f 242//317 243//319 244//320 239//318
f 242//317 237//311 357//314 358//321
f 242//317 358//321 245//322 243//319
f 245//322 246//323 247//324 243//319
f 250//325 249//326 251//327 49//50
f 250//325 49//50 48//49 359//328
f 359//329 48//53 52//53 315//329
f 251//327 249//326 248//330 252//331
f 251//327 252//331 240//332 253//333
f 251//327 253//333 50//51 49//50
f 253//334 240//316 239//316 244//334
f 253//334 244//334 254//335 50//335
f 254//335 51//52 6//52 50//335
f 254//336 244//320 243//319 247//324
f 254//336 247//324 55//55 51//55
f 252//331 248//330 360//337 255//338
f 252//331 255//338 241//339 240//332
f 255//338 360//337 361//340 256//341
f 255//338 256//341 60//67 241//339
f 256//341 361//340 353//303 233//302
f 256//341 233//302 61//68 60//67
f 247//324 246//323 54//60 55//59
f 233//302 63//71 62//69 61//68
f 232//299 350//298 349//296 228//291
f 232//299 228//291 226//289 257//342
f 232//299 257//342 65//73 66//74
f 257//342 226//289 224//287 57//64
f 257//342 57//64 56//63 65//73
f 224//287 222//285 58//65 57//64
f 192//245 113//134 112//133 36//30
f 259//343 258//344 260//345 261//346
f 259//343 261//346 153//193 152//192
f 261//346 260//345 262//347 263//348
f 261//346 263//348 155//195 153//193
f 263//348 262//347 264//349 265//350
f 263//348 265//350 266//351 155//195
f 266//352 265//353 267//354 268//355
f 266//352 268//355 269//356 158//357
f 266//351 158//198 156//196 155//195
f 269//356 268//355 270//358 271//359
f 269//356 271//359 163//205 161//203
f 269//356 161//203 159//202 158//357
f 271//359 270//358 362//360 363//361
f 271//359 363//361 364//362 163//205
f 364//362 166//208 164//206 163//205
f 273//363 272//364 274//365 275//366
f 273//363 275//366 260//345 258//344
f 275//366 274//365 276//367 277//368
f 275//366 277//368 262//347 260//345
f 277//368 276//367 278//369 279//370
f 277//368 279//370 264//349 262//347
f 279//370 278//369 280//371 281//372
f 279//370 281//372 282//373 264//349
f 282//373 281//372 283//374 284//375
f 282//373 284//375 285//376 267//354
f 282//373 267//354 265//353 264//349
f 285//376 284//375 365//377 366//378
f 285//376 366//378 362//360 270//358
f 285//376 270//358 268//355 267//354
f 365//377 284//375 283//374 367//379
f 369//380 368//381 287//382 288//383
f 369//380 288//383 274//365 272//364
f 288//383 287//382 289//384 290//385
f 288//383 290//385 276//367 274//365
f 290//385 289//384 291//386 292//387
f 290//385 292//387 278//369 276//367
f 292//387 291//386 293//388 294//389
f 292//387 294//389 280//371 278//369
f 294//389 293//388 295//390 296//391
f 294//389 296//391 297//392 280//371
f 297//392 296//391 298//393 286//394
f 297//392 286//394 367//379 283//374
f 297//392 283//374 281//372 280//371
f 298//393 296//391 295//390 299//395
f 300//396 299//395 295//390 43//41
f 300//396 43//41 42//40 301//397
f 301//397 42//40 44//42 302//398
f 302//398 44//42 45//44 303//399
f 303//400 45//47 47//46 370//401
f 370//401 47//46 287//382 368//381
f 295//390 293//388 39//37 43//41
f 293//388 291//386 40//38 39//37
f 291//386 289//384 46//45 40//38
f 289//384 287//382 47//46 46//45
f 372//402 371//403 137//172 304//404
f 372//402 304//404 72//81 373//405
f 304//404 137//172 135//170 305//406
f 304//404 305//406 67//76 72//81
f 305//406 135//170 133//167 306//407
f 305//406 306//407 68//77 67//76
f 306//407 133//167 132//166 307//408
f 306//407 307//408 73//83 68//77
f 307//408 132//166 131//165 308//409
f 307//408 308//409 74//84 73//83
f 308//409 131//165 309//410 310//411
f 308//409 310//411 311//412 74//84
f 311//412 312//413 75//85 74//84
f 312//413 313//414 70//79 75//85
f 313//415 314//416 71//80 70//79
f 314//416 373//405 72//81 71//80
f 309//410 131//165 129//163 331//162
f 371//403 332//176 138//173 137//172
f 143//180 22//14 38//35 140//175
f 327//155 123//148 121//146 326//145
f 388//417 387//418 386//419 374//420
f 386//421 390//422 389//423 374//424
f 393//425 392//426 391//427 374//428
f 391//427 395//429 394//430 374//428
f 394//431 396//432 388//417 374//420
f 399//433 398//434 397//435 375//436
f 401//437 400//438 399//433 375//436
f 397//435 402//439 401//437 375//436
f 405//440 404//441 403//441 376//440
f 407//442 406//443 405//440 376//440
f 403//444 409//445 408//446 376//447
f 411//448 410//449 407//450 376//451
f 414//452 413//453 412//454 377//455
f 412//454 416//456 415//457 377//455
f 415//457 417//458 414//452 377//455
f 408//446 396//432 394//431 376//447
f 394//430 395//429 411//448 376//451
f 414//452 417//458 418//459 378//460
f 418//459 420//461 419//462 378//460
f 419//462 413//453 414//452 378//460
f 423//463 422//464 421//465 379//466
f 421//467 425//467 424//468 379//468
f 426//469 424//469 425//470 380//470
f 425//471 315//57 53//57 380//471
f 53//61 54//60 426//472 380//473
f 429//474 428//475 427//476 381//477
f 432//478 431//479 430//480 381//477
f 427//476 433//481 432//478 381//477
f 435//482 434//483 433//481 382//484
f 433//481 427//476 436//485 382//484
f 436//485 437//486 435//482 382//484
f 440//487 439//488 438//489 383//490
f 442//491 441//492 440//487 383//490
f 438//489 443//493 442//491 383//490
f 446//494 445//495 444//496 384//497
f 444//496 439//488 440//487 384//497
f 440//487 441//492 446//494 384//497
f 389//423 447//498 393//499 374//424
f 448//500 317//90 316//89 385//501
f 450//502 449//503 448//500 385//501
f 385//501 316//89 80//95 450//502
f 400//438 401//437 449//503 450//502
f 80//95 81//96 400//438 450//502
f 318//97 399//433 400//438 81//96
f 319//98 398//434 399//433 318//97
f 320//100 451//504 398//434 319//98
f 452//505 451//504 320//100 321//101
f 83//104 453//506 452//505 321//101
f 455//507 454//508 452//505 453//506
f 457//509 456//510 455//507 453//506
f 83//104 90//109 457//509 453//506
f 92//111 458//511 457//509 90//109
f 460//512 459//513 93//514 322//112
f 317//90 448//500 460//512 322//112
f 462//515 461//516 459//513 460//512
f 448//500 449//503 462//515 460//512
f 402//439 463//517 461//516 462//515
f 449//503 401//437 402//439 462//515
f 465//518 464//519 461//516 463//517
f 466//520 454//508 465//518 463//517
f 402//439 397//435 466//520 463//517
f 451//504 452//505 454//508 466//520
f 397//435 398//434 451//504 466//520
f 468//521 467//522 464//519 465//518
f 454//508 455//507 468//521 465//518
f 470//523 469//524 467//522 468//521
f 455//507 456//510 470//523 468//521
f 472//525 471//526 469//524 470//523
f 456//510 473//527 472//528 470//523
f 475//529 474//530 472//528 473//527
f 458//511 476//531 475//529 473//527
f 456//510 457//509 458//511 473//527
f 478//532 477//533 475//529 476//531
f 114//136 323//135 478//532 476//531
f 458//511 92//111 114//136 476//531
f 480//534 479//535 115//138 116//137
f 93//514 459//513 480//534 116//137
f 464//519 467//522 479//535 480//534
f 459//513 461//516 464//519 480//534
f 481//536 324//141 115//138 479//535
f 467//522 469//524 481//536 479//535
f 482//537 325//143 324//141 481//536
f 469//524 471//526 482//537 481//536
f 483//538 326//145 325//143 482//537
f 471//526 484//539 483//538 482//537
f 486//540 485//541 483//538 484//539
f 474//542 487//543 486//543 484//539
f 471//526 472//525 474//542 484//539
f 403//441 404//441 486//543 487//543
f 477//533 409//445 403//444 487//544
f 474//530 475//529 477//533 487//544
f 404//545 488//546 485//541 486//540
f 328//156 327//155 485//541 488//546
f 489//547 329//157 328//156 488//546
f 404//545 405//548 489//547 488//546
f 490//549 330//160 329//157 489//547
f 405//548 406//443 490//549 489//547
f 491//550 331//162 330//160 490//549
f 406//443 492//551 491//550 490//549
f 494//552 493//553 491//550 492//551
f 496//554 495//555 494//552 492//551
f 406//443 407//442 496//554 492//551
f 498//556 497//557 495//555 496//558
f 407//450 410//449 498//556 496//558
f 500//559 499//560 497//557 498//556
f 410//449 501//561 500//559 498//556
f 410//449 411//448 502//562 501//561
f 141//177 332//176 500//559 501//561
f 502//562 333//178 141//177 501//561
f 502//562 503//563 142//179 333//178
f 505//564 504//565 334//182 144//181
f 142//185 503//563 505//564 144//181
f 391//427 392//426 504//565 505//564
f 503//563 395//429 391//427 505//564
f 392//426 507//566 506//567 504//565
f 506//567 335//188 334//182 504//565
f 506//567 508//568 149//189 335//188
f 510//569 509//570 152//192 151//191
f 149//189 508//568 510//569 151//191
f 512//571 511//572 509//570 510//569
f 508//568 513//573 512//571 510//569
f 515//574 514//575 512//571 513//573
f 507//566 516//576 515//574 513//573
f 508//568 506//567 507//566 513//573
f 518//577 517//578 515//579 516//580
f 393//499 447//498 518//577 516//580
f 507//566 392//426 393//425 516//576
f 520//581 519//582 517//578 518//577
f 447//498 521//583 520//581 518//577
f 167//209 166//208 520//581 521//583
f 522//584 168//210 167//209 521//583
f 447//498 389//423 522//584 521//583
f 389//423 390//422 523//585 522//586
f 523//585 171//215 168//214 522//586
f 523//585 524//587 172//216 171//215
f 526//588 525//589 175//219 174//218
f 172//216 524//587 526//588 174//218
f 528//590 527//591 525//589 526//588
f 524//587 529//592 528//590 526//588
f 531//593 530//594 528//590 529//592
f 390//422 386//421 531//593 529//592
f 524//587 523//585 390//422 529//592
f 533//595 532//596 530//597 531//598
f 386//419 387//418 533//595 531//598
f 535//599 534//600 532//596 533//595
f 387//418 536//601 535//599 533//595
f 337//235 336//234 535//599 536//601
f 537//602 338//236 337//235 536//601
f 387//418 388//417 537//602 536//601
f 538//603 339//238 338//236 537//602
f 388//417 396//432 538//603 537//602
f 539//604 190//240 339//238 538//603
f 396//432 408//446 539//604 538//603
f 408//446 409//445 540//605 539//605
f 540//605 340//243 190//243 539//605
f 540//606 478//532 323//135 340//244
f 542//607 541//608 193//247 194//246
f 175//219 525//589 542//607 194//246
f 544//609 543//610 541//608 542//607
f 525//589 527//591 544//609 542//607
f 546//611 545//612 543//610 544//609
f 527//591 547//613 546//611 544//609
f 549//614 548//615 546//616 547//617
f 530//597 532//596 549//614 547//617
f 527//591 528//590 530//594 547//613
f 551//618 550//619 548//615 549//614
f 532//596 534//600 551//618 549//614
f 207//262 206//261 550//619 551//618
f 534//600 341//263 207//262 551//618
f 534//600 535//599 336//234 341//263
f 553//620 552//621 342//265 208//264
f 193//247 541//608 553//620 208//264
f 555//622 554//623 552//621 553//620
f 541//608 543//610 555//622 553//620
f 557//624 556//625 554//623 555//622
f 543//610 545//612 557//624 555//622
f 559//626 558//627 556//625 557//628
f 545//629 560//630 559//626 557//628
f 562//631 561//632 559//626 560//630
f 548//615 550//619 562//631 560//630
f 545//629 546//616 548//615 560//630
f 344//280 343//279 561//632 562//631
f 550//619 206//261 344//280 562//631
f 564//633 563//634 345//282 346//281
f 342//265 552//621 564//633 346//281
f 566//635 565//636 563//634 564//633
f 552//621 554//623 566//635 564//633
f 568//637 567//638 565//636 566//635
f 554//623 556//625 568//637 566//635
f 570//639 569//640 567//638 568//637
f 556//625 558//627 570//639 568//637
f 572//641 571//642 569//640 570//639
f 558//627 573//643 572//641 570//639
f 348//295 347//294 572//641 573//643
f 561//632 343//279 348//295 573//643
f 558//627 559//626 561//632 573//643
f 349//296 571//642 572//641 347//294
f 437//486 574//644 350//298 231//297
f 351//300 435//482 437//486 231//297
f 352//301 434//483 435//482 351//300
f 353//303 575//645 434//483 352//301
f 577//646 576//647 354//305 355//304
f 356//309 578//648 577//646 355//304
f 429//474 381//477 577//646 578//648
f 563//634 565//636 429//474 578//648
f 356//309 345//282 563//634 578//648
f 381//477 430//649 576//647 577//646
f 430//649 580//650 579//651 576//647
f 579//651 357//314 354//313 576//647
f 583//652 582//653 581//653 580//652
f 430//480 431//479 583//652 580//652
f 581//654 584//655 579//651 580//650
f 581//654 586//656 585//657 584//655
f 358//321 357//314 579//651 584//655
f 585//657 245//322 358//321 584//655
f 585//657 587//658 246//323 245//322
f 422//464 588//659 249//326 250//325
f 359//328 421//465 422//464 250//325
f 315//329 425//467 421//467 359//329
f 589//660 248//330 249//326 588//659
f 590//661 582//662 589//660 588//659
f 422//464 423//463 590//661 588//659
f 586//663 581//653 582//653 590//663
f 423//664 591//664 586//663 590//663
f 423//664 379//468 424//468 591//664
f 587//658 585//657 586//656 591//665
f 424//469 426//469 587//658 591//665
f 592//666 360//337 248//330 589//660
f 582//662 583//667 592//666 589//660
f 593//668 361//340 360//337 592//666
f 583//667 431//479 593//668 592//666
f 575//645 353//303 361//340 593//668
f 431//479 432//478 575//645 593//668
f 426//472 54//60 246//323 587//658
f 432//478 433//481 434//483 575//645
f 571//642 349//296 350//298 574//644
f 594//669 569//640 571//642 574//644
f 437//486 436//485 594//669 574//644
f 428//475 567//638 569//640 594//669
f 436//485 427//476 428//475 594//669
f 428//475 429//474 565//636 567//638
f 409//445 477//533 478//532 540//606
f 596//670 595//671 258//344 259//343
f 152//192 509//570 596//670 259//343
f 598//672 597//673 595//671 596//670
f 509//570 511//572 598//672 596//670
f 600//674 599//675 597//673 598//672
f 511//572 601//676 600//674 598//672
f 603//677 602//678 600//679 601//680
f 514//681 604//682 603//677 601//680
f 511//572 512//571 514//575 601//676
f 606//683 605//684 603//677 604//682
f 517//578 519//582 606//683 604//682
f 514//681 515//579 517//578 604//682
f 363//361 362//360 605//684 606//683
f 519//582 364//362 363//361 606//683
f 519//582 520//581 166//208 364//362
f 608//685 607//686 272//364 273//363
f 258//344 595//671 608//685 273//363
f 610//687 609//688 607//686 608//685
f 595//671 597//673 610//687 608//685
f 612//689 611//690 609//688 610//687
f 597//673 599//675 612//689 610//687
f 614//691 613//692 611//690 612//689
f 599//675 615//693 614//691 612//689
f 617//694 616//695 614//691 615//693
f 602//678 618//696 617//694 615//693
f 599//675 600//679 602//678 615//693
f 366//378 365//377 617//694 618//696
f 605//684 362//360 366//378 618//696
f 602//678 603//677 605//684 618//696
f 367//379 616//695 617//694 365//377
f 620//697 619//698 368//381 369//380
f 272//364 607//686 620//697 369//380
f 622//699 621//700 619//698 620//697
f 607//686 609//688 622//699 620//697
f 624//701 623//702 621//700 622//699
f 609//688 611//690 624//701 622//699
f 626//703 625//704 623//702 624//701
f 611//690 613//692 626//703 624//701
f 628//705 627//706 625//704 626//703
f 613//692 629//707 628//705 626//703
f 286//394 298//393 628//705 629//707
f 616//695 367//379 286//394 629//707
f 613//692 614//691 616//695 629//707
f 299//395 627//706 628//705 298//393
f 416//456 627//706 299//395 300//396
f 301//397 415//457 416//456 300//396
f 302//398 417//458 415//457 301//397
f 303//399 418//459 417//458 302//398
f 370//401 420//461 418//459 303//400
f 368//381 619//698 420//461 370//401
f 416//456 412//454 625//704 627//706
f 412//454 413//453 623//702 625//704
f 413//453 419//462 621//700 623//702
f 419//462 420//461 619//698 621//700
f 630//708 499//560 371//403 372//402
f 373//405 443//493 630//708 372//402
f 631//709 497//557 499//560 630//708
f 443//493 438//489 631//709 630//708
f 632//710 495//555 497//557 631//709
f 438//489 439//488 632//710 631//709
f 633//711 494//552 495//555 632//710
f 439//488 444//496 633//711 632//710
f 634//712 493//553 494//552 633//711
f 444//496 445//495 634//712 633//711
f 310//411 309//410 493//553 634//712
f 445//495 311//412 310//411 634//712
f 445//495 446//494 312//413 311//412
f 446//494 441//492 313//414 312//413
f 441//492 442//491 314//416 313//415
f 442//491 443//493 373//405 314//416
f 331//162 491//550 493//553 309//410
f 499//560 500//559 332//176 371//403
f 502//562 411//448 395//429 503//563
f 326//145 483//538 485//541 327//155
