# pilowlava3D glyph 'l' variant 1 — Vincent Wagner / Velvetyne, Free Art License
v 2.33868 1.09162 -0.38331
v 0.86613 4.22858 -0.38083
v 1.54016 4.00664 -0.39904
v 2.57037 0.43887 -0.38001
v 2.48483 0.91349 -0.43790
v 2.28688 0.86225 -0.52212
v 2.18323 1.08947 -0.40497
v 2.17358 1.23767 -0.21515
v 2.42022 1.17689 -0.23027
v 0.78463 4.10155 -0.41563
v 0.64452 4.16325 -0.22994
v 0.83045 4.33677 -0.22833
v 1.13660 4.38414 -0.24674
v 1.09887 4.23369 -0.43762
v 1.03046 4.06104 -0.52581
v 1.64013 4.07385 -0.24242
v 1.68626 3.82490 -0.24073
v 1.52469 3.85114 -0.43389
v 1.36692 4.14764 -0.44465
v 1.43005 4.29174 -0.25171
v 1.30138 3.96785 -0.53511
v 2.66938 0.39883 -0.23445
v 2.50047 0.21895 -0.22484
v 2.43607 0.36149 -0.41041
v 2.38048 0.59962 -0.52364
v 2.57764 0.65761 -0.43442
v 2.73077 0.68288 -0.24645
v 2.63591 0.97299 -0.24798
v 2.68240 0.98694 -0.00000
v 2.77740 0.68994 -0.00000
v 2.72001 0.39139 -0.00000
v 2.54093 0.18075 -0.00000
v 2.31181 0.08226 -0.00000
v 2.28660 0.14840 -0.22359
v 2.08792 0.12892 -0.21760
v 2.06444 0.29024 -0.41293
v 2.24649 0.31551 -0.42050
v 1.90080 0.03404 -0.00000
v 1.89788 0.10440 -0.21507
v 1.70755 0.02368 -0.00000
v 1.52167 0.07261 -0.20157
v 1.71046 0.08607 -0.20899
v 1.51155 0.18746 -0.37756
v 1.70082 0.22332 -0.39423
v 1.88493 0.25760 -0.40591
v 1.65794 0.40459 -0.51178
v 1.84201 0.46440 -0.52844
v 2.02070 0.51795 -0.53664
v 1.76221 0.68669 -0.52562
v 1.93680 0.76190 -0.53444
v 2.10961 0.81958 -0.53919
v 2.19508 0.55674 -0.53968
v 1.83402 0.96471 -0.41553
v 2.00895 1.04398 -0.41523
v 1.75656 1.09632 -0.22082
v 1.94659 1.18988 -0.21700
v 2.46381 1.20367 -0.00000
v 1.13755 0.00552 -0.00000
v 1.32929 0.00941 -0.00000
v 1.13885 0.04589 -0.18411
v 1.33102 0.05766 -0.19319
v 1.12352 0.12529 -0.33891
v 1.31845 0.15407 -0.35829
v 1.09005 0.23861 -0.42904
v 1.28044 0.28904 -0.45961
v 1.47025 0.34437 -0.48891
v 1.22791 0.44229 -0.45653
v 1.40563 0.52062 -0.48523
v 1.58491 0.60329 -0.50992
v 1.34135 0.66469 -0.37248
v 1.50519 0.76271 -0.39184
v 1.67025 0.86455 -0.40294
v 1.43835 0.86525 -0.20603
v 1.59624 0.97611 -0.21140
v 1.40489 0.91160 -0.00000
v 0.73087 0.02377 -0.16532
v 0.94040 0.03464 -0.17516
v 0.71751 0.07977 -0.30079
v 0.92307 0.09967 -0.32010
v 0.70444 0.15354 -0.36458
v 0.89841 0.19259 -0.39814
v 0.69023 0.23527 -0.35910
v 0.87210 0.29362 -0.39442
v 1.05047 0.36491 -0.42634
v 0.84946 0.38427 -0.31466
v 1.01304 0.47526 -0.33124
v 1.17670 0.56993 -0.34934
v 0.98100 0.54713 -0.17652
v 1.13445 0.64916 -0.18626
v 1.28608 0.75714 -0.19694
v 1.25478 0.79765 -0.00000
v 0.81744 0.47921 -0.00000
v 0.26783 0.08607 -0.00000
v 0.27006 0.09932 -0.14974
v 0.50318 0.02976 -0.15641
v 0.28445 0.14066 -0.26138
v 0.50147 0.07915 -0.28069
v 0.30773 0.19325 -0.30849
v 0.50255 0.14000 -0.33286
v 0.34103 0.25241 -0.29423
v 0.50761 0.20996 -0.32356
v 0.36440 0.28642 -0.23123
v 0.51763 0.26173 -0.25573
v 0.68208 0.30488 -0.28971
v 0.53129 0.30501 -0.13933
v 0.68022 0.36533 -0.15595
v 0.83012 0.45165 -0.16751
v 0.38520 0.31806 -0.00000
v 0.01700 0.50332 -0.00000
v 0.09003 0.26771 -0.00000
v 0.02700 0.50507 -0.13646
v 0.09682 0.27559 -0.14087
v 0.05257 0.51069 -0.23313
v 0.12245 0.29997 -0.24462
v 0.09618 0.51788 -0.28368
v 0.16274 0.33075 -0.29034
v 0.15393 0.52840 -0.27620
v 0.21516 0.36730 -0.27881
v 0.19122 0.53855 -0.22313
v 0.24728 0.38938 -0.21962
v 0.21771 0.54995 -0.12388
v 0.26714 0.40397 -0.12491
v 0.38140 0.31084 -0.12952
v 0.27283 0.40798 -0.00000
v 0.25634 0.71568 -0.00000
v 0.02578 0.93628 -0.15255
v 0.01415 0.72901 -0.14275
v 0.06728 0.91889 -0.27959
v 0.04655 0.72056 -0.24945
v 0.12669 0.90278 -0.33682
v 0.09545 0.71255 -0.30406
v 0.19982 0.88761 -0.33356
v 0.16037 0.70683 -0.30100
v 0.25832 0.87870 -0.27437
v 0.20780 0.70657 -0.24712
v 0.30387 0.87799 -0.14722
v 0.24431 0.71232 -0.13386
v 0.32213 0.87803 -0.00000
v 0.40031 1.03775 -0.00000
v 0.37844 1.04237 -0.15653
v 0.46069 1.20917 -0.16347
v 0.48507 1.19943 -0.00000
v 0.32501 1.05120 -0.29544
v 0.40025 1.22495 -0.30808
v 0.48239 1.39953 -0.31605
v 0.54468 1.37594 -0.16614
v 0.25328 1.06903 -0.36211
v 0.31602 1.25023 -0.38336
v 0.38463 1.43129 -0.40215
v 0.45576 1.60883 -0.41861
v 0.56520 1.57136 -0.32285
v 0.22676 1.27844 -0.38460
v 0.27962 1.46530 -0.40264
v 0.33041 1.65119 -0.41861
v 0.38102 1.83650 -0.43426
v 0.52604 1.78849 -0.43447
v 0.18362 1.49666 -0.31899
v 0.22143 1.68553 -0.32383
v 0.25997 1.87378 -0.33060
v 0.30163 2.06105 -0.34112
v 0.43359 2.02155 -0.45064
v 0.15151 1.70350 -0.17087
v 0.18458 1.89094 -0.17511
v 0.21780 2.07917 -0.18061
v 0.25159 2.26641 -0.18696
v 0.34607 2.24793 -0.35282
v 0.17811 2.08515 -0.00000
v 0.20657 2.27248 -0.00000
v 0.23462 2.46047 -0.00000
v 0.28505 2.45417 -0.19373
v 0.26172 2.64921 -0.00000
v 0.28891 2.83885 -0.00000
v 0.35071 2.83025 -0.20751
v 0.31770 2.64229 -0.20067
v 0.47425 2.80785 -0.38948
v 0.43147 2.62110 -0.37798
v 0.38828 2.43457 -0.36523
v 0.59506 2.57519 -0.49646
v 0.54099 2.39061 -0.48298
v 0.48789 2.20620 -0.46604
v 0.72585 2.33028 -0.48458
v 0.66122 2.14902 -0.46765
v 0.59428 1.96788 -0.45114
v 0.80112 2.09816 -0.35597
v 0.72427 1.92104 -0.34249
v 0.64565 1.74625 -0.33145
v 0.80229 1.88737 -0.18120
v 0.71655 1.71554 -0.17485
v 0.63169 1.54594 -0.16948
v 0.74855 1.69915 -0.00000
v 0.08701 1.32593 -0.16576
v 0.05441 1.13388 -0.16076
v 0.14487 1.30528 -0.31199
v 0.10303 1.11369 -0.30087
v 0.17286 1.09133 -0.36411
v 0.11855 1.51578 -0.16806
v 0.34277 3.22065 -0.00000
v 0.31626 3.02888 -0.00000
v 0.41369 3.20930 -0.22364
v 0.38311 3.01957 -0.21451
v 0.55514 3.18256 -0.41566
v 0.51496 2.99481 -0.40194
v 0.75064 3.13204 -0.54034
v 0.69965 2.94587 -0.52733
v 0.64840 2.76032 -0.51179
v 0.91349 2.87879 -0.52948
v 0.85179 2.69541 -0.51493
v 0.78911 2.51334 -0.49763
v 1.02325 2.63212 -0.39465
v 0.95004 2.45401 -0.38199
v 0.87632 2.27559 -0.36910
v 1.05418 2.40345 -0.20387
v 0.97041 2.23150 -0.19602
v 0.88720 2.05828 -0.18878
v 1.01365 2.20593 -0.00000
v 0.92574 2.03640 -0.00000
v 0.83672 1.86758 -0.00000
v 0.40258 3.60494 -0.00000
v 0.37158 3.41273 -0.00000
v 0.48154 3.58716 -0.23556
v 0.44788 3.39866 -0.22994
v 0.63868 3.55751 -0.44103
v 0.59738 3.36987 -0.42897
v 0.85486 3.50983 -0.56743
v 0.80250 3.31955 -0.55564
v 1.09674 3.43139 -0.57100
v 1.03577 3.24611 -0.55910
v 0.97477 3.06165 -0.54368
v 1.23936 3.16388 -0.43439
v 1.16844 2.98730 -0.42249
v 1.09528 2.81042 -0.40754
v 1.30221 2.92090 -0.22750
v 1.21977 2.74915 -0.21933
v 1.13608 2.57708 -0.21090
v 1.10277 2.37489 -0.00000
v 1.45669 3.05192 -0.00000
v 0.55927 3.96767 -0.23789
v 0.51421 3.77602 -0.24065
v 0.72303 3.93110 -0.44162
v 0.67673 3.74522 -0.44872
v 0.96727 3.88379 -0.56240
v 0.90898 3.69891 -0.57355
v 1.23009 3.79126 -0.57383
v 1.16116 3.61249 -0.57757
v 1.46404 3.67567 -0.45501
v 1.38910 3.50554 -0.45390
v 1.31195 3.33768 -0.44418
v 1.55850 3.42910 -0.24417
v 1.46515 3.26212 -0.23574
v 1.38257 3.09211 -0.23269
v 1.54593 3.22181 -0.00000
v 1.74323 3.83805 -0.00000
v 1.64143 3.60986 -0.24616
v 1.67399 4.10809 -0.00000
v 1.44608 4.33494 -0.00000
v 1.14898 4.43026 -0.00000
v 0.82519 4.38529 -0.00000
v 2.09949 0.05308 -0.00000
v 1.51838 0.01640 -0.00000
v 1.72792 1.14629 -0.00000
v 1.93584 1.24245 -0.00000
v 2.18691 1.28263 -0.00000
v 1.56046 1.02662 -0.00000
v 0.73664 0.00000 -0.00000
v 0.94318 0.00262 -0.00000
v 1.10832 0.68654 -0.00000
v 0.96227 0.58004 -0.00000
v 0.50404 0.01251 -0.00000
v 0.67655 0.38759 -0.00000
v 0.53514 0.31908 -0.00000
v 0.22417 0.55421 -0.00000
v 0.00974 0.94497 -0.00000
v 0.00000 0.73573 -0.00000
v 0.14922 1.89703 -0.00000
v 0.66028 1.53152 -0.00000
v 0.57058 1.36252 -0.00000
v 0.06286 1.33251 -0.00000
v 0.03491 1.14298 -0.00000
v 0.09090 1.52089 -0.00000
v 0.11998 1.70922 -0.00000
v 1.27979 2.71347 -0.00000
v 1.19073 2.54483 -0.00000
v 1.36826 2.88242 -0.00000
v 0.49735 3.99235 -0.00000
v 0.43953 3.79891 -0.00000
v 1.63810 3.39827 -0.00000
v 1.71304 3.59622 -0.00000
v 0.60692 4.20190 -0.00000
v 2.33868 1.09162 0.38331
v 0.86613 4.22858 0.38083
v 1.54016 4.00664 0.39904
v 2.57037 0.43887 0.38001
v 2.48483 0.91349 0.43790
v 2.28688 0.86225 0.52212
v 2.18323 1.08947 0.40497
v 2.17358 1.23767 0.21515
v 2.42022 1.17689 0.23027
v 0.78463 4.10155 0.41563
v 0.64452 4.16325 0.22994
v 0.83045 4.33677 0.22833
v 1.13660 4.38414 0.24674
v 1.09887 4.23369 0.43762
v 1.03046 4.06104 0.52581
v 1.64013 4.07385 0.24242
v 1.68626 3.82490 0.24073
v 1.52469 3.85114 0.43389
v 1.36692 4.14764 0.44465
v 1.43005 4.29174 0.25171
v 1.30138 3.96785 0.53511
v 2.66938 0.39883 0.23445
v 2.50047 0.21895 0.22484
v 2.43607 0.36149 0.41041
v 2.38048 0.59962 0.52364
v 2.57764 0.65761 0.43442
v 2.73077 0.68288 0.24645
v 2.63591 0.97299 0.24798
v 2.28660 0.14840 0.22359
v 2.08792 0.12892 0.21760
v 2.06444 0.29024 0.41293
v 2.24649 0.31551 0.42050
v 1.89788 0.10440 0.21507
v 1.52167 0.07261 0.20157
v 1.71046 0.08607 0.20899
v 1.51155 0.18746 0.37756
v 1.70082 0.22332 0.39423
v 1.88493 0.25760 0.40591
v 1.65794 0.40459 0.51178
v 1.84201 0.46440 0.52844
v 2.02070 0.51795 0.53664
v 1.76221 0.68669 0.52562
v 1.93680 0.76190 0.53444
v 2.10961 0.81958 0.53919
v 2.19508 0.55674 0.53968
v 1.83402 0.96471 0.41553
v 2.00895 1.04398 0.41523
v 1.75656 1.09632 0.22082
v 1.94659 1.18988 0.21700
v 1.13885 0.04589 0.18411
v 1.33102 0.05766 0.19319
v 1.12352 0.12529 0.33891
v 1.31845 0.15407 0.35829
v 1.09005 0.23861 0.42904
v 1.28044 0.28904 0.45961
v 1.47025 0.34437 0.48891
v 1.22791 0.44229 0.45653
v 1.40563 0.52062 0.48523
v 1.58491 0.60329 0.50992
v 1.34135 0.66469 0.37248
v 1.50519 0.76271 0.39184
v 1.67025 0.86455 0.40294
v 1.43835 0.86525 0.20603
v 1.59624 0.97611 0.21140
v 0.73087 0.02377 0.16532
v 0.94040 0.03464 0.17516
v 0.71751 0.07977 0.30079
v 0.92307 0.09967 0.32010
v 0.70444 0.15354 0.36458
v 0.89841 0.19259 0.39814
v 0.69023 0.23527 0.35910
v 0.87210 0.29362 0.39442
v 1.05047 0.36491 0.42634
v 0.84946 0.38427 0.31466
v 1.01304 0.47526 0.33124
v 1.17670 0.56993 0.34934
v 0.98100 0.54713 0.17652
v 1.13445 0.64916 0.18626
v 1.28608 0.75714 0.19694
v 0.27006 0.09932 0.14974
v 0.50318 0.02976 0.15641
v 0.28445 0.14066 0.26138
v 0.50147 0.07915 0.28069
v 0.30773 0.19325 0.30849
v 0.50255 0.14000 0.33286
v 0.34103 0.25241 0.29423
v 0.50761 0.20996 0.32356
v 0.36440 0.28642 0.23123
v 0.51763 0.26173 0.25573
v 0.68208 0.30488 0.28971
v 0.53129 0.30501 0.13933
v 0.68022 0.36533 0.15595
v 0.83012 0.45165 0.16751
v 0.02700 0.50507 0.13646
v 0.09682 0.27559 0.14087
v 0.05257 0.51069 0.23313
v 0.12245 0.29997 0.24462
v 0.09618 0.51788 0.28368
v 0.16274 0.33075 0.29034
v 0.15393 0.52840 0.27620
v 0.21516 0.36730 0.27881
v 0.19122 0.53855 0.22313
v 0.24728 0.38938 0.21962
v 0.21771 0.54995 0.12388
v 0.26714 0.40397 0.12491
v 0.38140 0.31084 0.12952
v 0.02578 0.93628 0.15255
v 0.01415 0.72901 0.14275
v 0.06728 0.91889 0.27959
v 0.04655 0.72056 0.24945
v 0.12669 0.90278 0.33682
v 0.09545 0.71255 0.30406
v 0.19982 0.88761 0.33356
v 0.16037 0.70683 0.30100
v 0.25832 0.87870 0.27437
v 0.20780 0.70657 0.24712
v 0.30387 0.87799 0.14722
v 0.24431 0.71232 0.13386
v 0.37844 1.04237 0.15653
v 0.46069 1.20917 0.16347
v 0.32501 1.05120 0.29544
v 0.40025 1.22495 0.30808
v 0.48239 1.39953 0.31605
v 0.54468 1.37594 0.16614
v 0.25328 1.06903 0.36211
v 0.31602 1.25023 0.38336
v 0.38463 1.43129 0.40215
v 0.45576 1.60883 0.41861
v 0.56520 1.57136 0.32285
v 0.22676 1.27844 0.38460
v 0.27962 1.46530 0.40264
v 0.33041 1.65119 0.41861
v 0.38102 1.83650 0.43426
v 0.52604 1.78849 0.43447
v 0.18362 1.49666 0.31899
v 0.22143 1.68553 0.32383
v 0.25997 1.87378 0.33060
v 0.30163 2.06105 0.34112
v 0.43359 2.02155 0.45064
v 0.15151 1.70350 0.17087
v 0.18458 1.89094 0.17511
v 0.21780 2.07917 0.18061
v 0.25159 2.26641 0.18696
v 0.34607 2.24793 0.35282
v 0.28505 2.45417 0.19373
v 0.35071 2.83025 0.20751
v 0.31770 2.64229 0.20067
v 0.47425 2.80785 0.38948
v 0.43147 2.62110 0.37798
v 0.38828 2.43457 0.36523
v 0.59506 2.57519 0.49646
v 0.54099 2.39061 0.48298
v 0.48789 2.20620 0.46604
v 0.72585 2.33028 0.48458
v 0.66122 2.14902 0.46765
v 0.59428 1.96788 0.45114
v 0.80112 2.09816 0.35597
v 0.72427 1.92104 0.34249
v 0.64565 1.74625 0.33145
v 0.80229 1.88737 0.18120
v 0.71655 1.71554 0.17485
v 0.63169 1.54594 0.16948
v 0.08701 1.32593 0.16576
v 0.05441 1.13388 0.16076
v 0.14487 1.30528 0.31199
v 0.10303 1.11369 0.30087
v 0.17286 1.09133 0.36411
v 0.11855 1.51578 0.16806
v 0.41369 3.20930 0.22364
v 0.38311 3.01957 0.21451
v 0.55514 3.18256 0.41566
v 0.51496 2.99481 0.40194
v 0.75064 3.13204 0.54034
v 0.69965 2.94587 0.52733
v 0.64840 2.76032 0.51179
v 0.91349 2.87879 0.52948
v 0.85179 2.69541 0.51493
v 0.78911 2.51334 0.49763
v 1.02325 2.63212 0.39465
v 0.95004 2.45401 0.38199
v 0.87632 2.27559 0.36910
v 1.05418 2.40345 0.20387
v 0.97041 2.23150 0.19602
v 0.88720 2.05828 0.18878
v 0.48154 3.58716 0.23556
v 0.44788 3.39866 0.22994
v 0.63868 3.55751 0.44103
v 0.59738 3.36987 0.42897
v 0.85486 3.50983 0.56743
v 0.80250 3.31955 0.55564
v 1.09674 3.43139 0.57100
v 1.03577 3.24611 0.55910
v 0.97477 3.06165 0.54368
v 1.23936 3.16388 0.43439
v 1.16844 2.98730 0.42249
v 1.09528 2.81042 0.40754
v 1.30221 2.92090 0.22750
v 1.21977 2.74915 0.21933
v 1.13608 2.57708 0.21090
v 0.55927 3.96767 0.23789
v 0.51421 3.77602 0.24065
v 0.72303 3.93110 0.44162
v 0.67673 3.74522 0.44872
v 0.96727 3.88379 0.56240
v 0.90898 3.69891 0.57355
v 1.23009 3.79126 0.57383
v 1.16116 3.61249 0.57757
v 1.46404 3.67567 0.45501
v 1.38910 3.50554 0.45390
v 1.31195 3.33768 0.44418
v 1.55850 3.42910 0.24417
v 1.46515 3.26212 0.23574
v 1.38257 3.09211 0.23269
v 1.64143 3.60986 0.24616
vn 0.27492 0.65209 -0.70654
vn 0.46808 0.37644 -0.79949
vn 0.14876 0.27607 -0.94956
vn 0.01849 0.64854 -0.76095
vn 0.00463 0.91228 -0.40953
vn 0.41012 0.81642 -0.40652
vn -0.34553 0.62751 -0.69774
vn -0.49111 0.42746 -0.75901
vn -0.72801 0.53596 -0.42750
vn -0.41006 0.81265 -0.41406
vn 0.05535 0.90526 -0.42125
vn -0.02048 0.62805 -0.77790
vn -0.12200 0.34885 -0.92920
vn 0.63596 0.28739 -0.71621
vn 0.81303 0.40599 -0.41732
vn 0.89757 -0.00332 -0.44085
vn 0.62348 0.03271 -0.78116
vn 0.35799 0.49829 -0.78965
vn 0.47976 0.76917 -0.42216
vn 0.26053 0.20793 -0.94281
vn 0.59789 -0.36947 -0.71136
vn 0.79568 -0.43820 -0.41818
vn 0.47694 -0.75846 -0.44416
vn 0.34301 -0.52262 -0.78052
vn 0.26256 -0.13071 -0.95602
vn 0.60137 -0.01927 -0.79874
vn 0.90221 0.04350 -0.42909
vn 0.75649 0.49249 -0.43031
vn 0.84736 0.53102 0.00017
vn 0.99856 0.05356 0.00022
vn 0.89201 -0.45202 -0.00069
vn 0.56545 -0.82478 -0.00205
vn 0.23569 -0.97183 -0.00080
vn 0.18962 -0.85646 -0.48013
vn 0.09670 -0.86812 -0.48685
vn 0.07711 -0.62632 -0.77574
vn 0.12890 -0.59903 -0.79028
vn 0.11073 -0.99385 0.00048
vn 0.08989 -0.99595 0.00002
vn 0.09021 -0.87596 -0.47386
vn 0.05978 -0.99821 -0.00009
vn 0.05049 -0.99872 0.00003
vn 0.05972 -0.90881 -0.41291
vn 0.06785 -0.89227 -0.44637
vn 0.05714 -0.71290 -0.69894
vn 0.06967 -0.67921 -0.73063
vn 0.08354 -0.64851 -0.75661
vn -0.02035 -0.28966 -0.95691
vn 0.00418 -0.26408 -0.96449
vn 0.01677 -0.24200 -0.97013
vn -0.18258 0.21633 -0.95910
vn -0.13311 0.21336 -0.96786
vn -0.04133 0.23323 -0.97154
vn 0.07088 -0.21160 -0.97478
vn -0.32212 0.56233 -0.76159
vn -0.18319 0.60587 -0.77418
vn -0.46055 0.77042 -0.44084
vn -0.27919 0.85531 -0.43646
vn -0.51452 0.85748 0.00009
vn -0.30718 0.95165 -0.00041
vn 0.03663 0.99933 0.00023
vn 0.48708 0.87336 0.00099
vn 0.04349 -0.99905 0.00002
vn 0.03322 -0.99945 0.00009
vn 0.04366 -0.93961 -0.33944
vn 0.05267 -0.92455 -0.37741
vn 0.03755 -0.76967 -0.63734
vn 0.04547 -0.74293 -0.66783
vn -0.07291 -0.33976 -0.93768
vn -0.06411 -0.32919 -0.94208
vn -0.04621 -0.31250 -0.94879
vn -0.27200 0.24814 -0.92975
vn -0.25558 0.23163 -0.93863
vn -0.22196 0.22311 -0.94919
vn -0.43710 0.59486 -0.67460
vn -0.41444 0.57799 -0.70297
vn -0.39116 0.55807 -0.73181
vn -0.53462 0.73751 -0.41263
vn -0.53129 0.72989 -0.43010
vn -0.59249 0.80558 0.00001
vn -0.59189 0.80602 -0.00010
vn 0.02982 -0.99956 0.00001
vn -0.00713 -0.99997 -0.00016
vn -0.00233 -0.96360 -0.26735
vn 0.03795 -0.95284 -0.30111
vn -0.01813 -0.80884 -0.58775
vn 0.02653 -0.79319 -0.60839
vn -0.03764 -0.65214 -0.75716
vn -0.08913 -0.34282 -0.93516
vn -0.18208 0.04923 -0.98205
vn -0.26657 0.38115 -0.88525
vn -0.28544 0.30252 -0.90940
vn -0.27750 0.26859 -0.92242
vn -0.42816 0.68924 -0.58448
vn -0.43920 0.65286 -0.61715
vn -0.44318 0.62298 -0.64458
vn -0.52726 0.78268 -0.33079
vn -0.54047 0.75974 -0.36151
vn -0.54468 0.74285 -0.38923
vn -0.58734 0.80934 -0.00005
vn -0.59761 0.80179 0.00004
vn -0.56693 0.82376 -0.00013
vn -0.16926 -0.98557 -0.00005
vn -0.52020 -0.85404 0.00003
vn -0.51096 -0.83048 -0.22186
vn -0.16526 -0.95601 -0.24235
vn -0.45272 -0.68173 -0.57471
vn -0.16500 -0.79714 -0.58081
vn -0.38348 -0.52778 -0.75789
vn -0.16103 -0.63218 -0.75791
vn -0.13557 0.14946 -0.97943
vn -0.01180 0.20754 -0.97815
vn -0.09750 0.79072 -0.60437
vn 0.31137 0.76491 -0.56388
vn 0.33495 0.83600 -0.43465
vn -0.12466 0.87318 -0.47118
vn -0.36758 0.76373 -0.53066
vn -0.17627 0.96112 -0.21256
vn -0.43880 0.86241 -0.25240
vn -0.50787 0.80889 -0.29625
vn -0.46981 0.88277 -0.00005
vn -0.54209 0.84032 0.00013
vn -0.20341 0.97909 -0.00027
vn -0.85985 -0.51055 -0.00004
vn -0.98350 -0.18093 0.00006
vn -0.96834 -0.17602 -0.17702
vn -0.84520 -0.49867 -0.19225
vn -0.85809 -0.15955 -0.48809
vn -0.73667 -0.41616 -0.53304
vn -0.72510 -0.14078 -0.67410
vn -0.60954 -0.32722 -0.72207
vn 0.10188 0.13927 -0.98500
vn 0.11608 -0.02397 -0.99295
vn 0.66677 0.48452 -0.56627
vn 0.79804 0.07716 -0.59765
vn 0.89290 0.08361 -0.44243
vn 0.73706 0.52553 -0.42492
vn 0.98255 0.07954 -0.16813
vn 0.80827 0.56479 -0.16648
vn 0.34729 0.91945 -0.18441
vn 0.82069 0.57138 0.00003
vn 0.33933 0.94067 0.00000
vn 0.99746 0.07129 0.00002
vn -0.99996 -0.00882 0.00010
vn -0.99589 0.09059 -0.00001
vn -0.97220 0.08907 -0.21654
vn -0.98128 -0.00690 -0.19247
vn -0.84483 0.05378 -0.53233
vn -0.86859 -0.02529 -0.49489
vn -0.69832 0.01745 -0.71558
vn -0.73574 -0.04428 -0.67582
vn 0.05714 -0.14995 -0.98704
vn 0.00866 -0.16296 -0.98660
vn 0.74044 -0.21411 -0.63710
vn 0.65899 -0.30121 -0.68921
vn 0.78779 -0.33810 -0.51485
vn 0.85156 -0.23248 -0.46990
vn 0.90090 -0.37770 -0.21381
vn 0.94887 -0.25739 -0.18277
vn 0.91864 -0.39511 0.00000
vn 0.96243 -0.27154 -0.00004
vn 0.87316 -0.42134 -0.24509
vn 0.89672 -0.44260 0.00001
vn 0.85915 -0.43358 -0.27178
vn 0.88948 -0.45698 -0.00008
vn 0.74896 -0.36307 -0.55430
vn 0.72608 -0.36551 -0.58242
vn 0.71287 -0.36700 -0.59760
vn 0.85132 -0.43693 -0.29042
vn 0.61186 -0.30836 -0.72838
vn 0.30318 -0.21416 -0.92856
vn 0.29307 -0.20665 -0.93349
vn 0.28817 -0.20012 -0.93643
vn 0.70564 -0.36266 -0.60872
vn -0.01670 -0.10053 -0.99479
vn -0.34980 0.00986 -0.93677
vn -0.34915 0.01420 -0.93696
vn -0.34717 0.01275 -0.93772
vn 0.28283 -0.19706 -0.93871
vn -0.78772 0.13536 -0.60098
vn -0.77978 0.13500 -0.61132
vn -0.77090 0.13224 -0.62308
vn -0.75727 0.13188 -0.63965
vn -0.34177 0.01281 -0.93969
vn -0.93812 0.15963 -0.30733
vn -0.93194 0.15786 -0.32645
vn -0.92411 0.15730 -0.34823
vn -0.91570 0.15371 -0.37130
vn -0.74254 0.12627 -0.65779
vn -0.98700 0.16071 0.00001
vn -0.98713 0.15994 -0.00000
vn -0.98734 0.15859 -0.00000
vn -0.98801 0.15440 0.00000
vn -0.90775 0.14768 -0.39267
vn -0.98838 0.15202 -0.00001
vn -0.98851 0.15119 -0.00001
vn -0.89107 0.14049 -0.43157
vn -0.89916 0.14459 -0.41304
vn -0.69767 0.10830 -0.70819
vn -0.71106 0.11682 -0.69336
vn -0.72751 0.11982 -0.67555
vn -0.31521 0.01029 -0.94897
vn -0.32568 0.01074 -0.94542
vn -0.33575 0.00994 -0.94190
vn 0.25778 -0.17649 -0.94995
vn 0.26507 -0.18843 -0.94564
vn 0.27463 -0.19378 -0.94182
vn 0.67206 -0.33968 -0.65799
vn 0.68480 -0.34979 -0.63930
vn 0.69729 -0.35571 -0.62230
vn 0.83670 -0.42640 -0.34369
vn 0.84297 -0.42942 -0.32405
vn 0.84682 -0.43499 -0.30606
vn 0.88857 -0.45875 -0.00002
vn 0.88718 -0.46143 -0.00000
vn 0.88745 -0.46091 -0.00003
vn -0.98964 0.14357 0.00004
vn -0.98796 0.15474 0.00007
vn -0.95121 0.15752 -0.26531
vn -0.95994 0.14485 -0.23986
vn -0.79883 0.13454 -0.58631
vn -0.81746 0.11390 -0.56461
vn -0.64160 0.10175 -0.76026
vn -0.66012 0.07557 -0.74735
vn -0.00726 -0.12884 -0.99164
vn -0.94439 0.15844 -0.28815
vn -0.98743 0.15806 0.00002
vn -0.98686 0.16157 0.00000
vn -0.98939 0.14531 -0.00001
vn -0.98882 0.14912 0.00001
vn -0.87860 0.13327 -0.45859
vn -0.88520 0.13135 -0.44629
vn -0.67155 0.09600 -0.73472
vn -0.68553 0.09808 -0.72141
vn -0.29144 0.00016 -0.95659
vn -0.30077 0.00263 -0.95369
vn -0.30943 0.00315 -0.95092
vn 0.22890 -0.16122 -0.96001
vn 0.23768 -0.16889 -0.95655
vn 0.24792 -0.17033 -0.95369
vn 0.62709 -0.31099 -0.71417
vn 0.64295 -0.31737 -0.69706
vn 0.65870 -0.32686 -0.67770
vn 0.81690 -0.40639 -0.40928
vn 0.82487 -0.41260 -0.38645
vn 0.83162 -0.41908 -0.36439
vn 0.89101 -0.45399 -0.00001
vn 0.89034 -0.45529 -0.00001
vn 0.88843 -0.45900 -0.00002
vn -0.98709 0.16016 0.00001
vn -0.98570 0.16854 -0.00008
vn -0.86886 0.14484 -0.47339
vn -0.87196 0.14172 -0.46861
vn -0.64582 0.10336 -0.75646
vn -0.65903 0.09930 -0.74553
vn -0.26615 0.01902 -0.96374
vn -0.28182 0.00268 -0.95946
vn 0.20336 -0.12983 -0.97046
vn 0.21017 -0.14679 -0.96658
vn 0.21729 -0.15697 -0.96340
vn 0.58406 -0.28578 -0.75974
vn 0.59416 -0.29750 -0.74730
vn 0.60913 -0.30661 -0.73141
vn 0.78987 -0.39372 -0.47020
vn 0.79585 -0.40262 -0.45225
vn 0.80722 -0.40257 -0.43165
vn 0.88974 -0.45648 -0.00001
vn 0.89145 -0.45311 0.00000
vn 0.89173 -0.45256 0.00000
vn 0.89234 -0.45137 -0.00004
vn -0.97606 0.21751 0.00007
vn -0.93676 0.34996 -0.00061
vn -0.83257 0.31003 -0.45903
vn -0.86199 0.18764 -0.47093
vn -0.57488 0.25402 -0.77781
vn -0.62087 0.14602 -0.77019
vn -0.19890 0.17872 -0.96359
vn -0.24132 0.06870 -0.96801
vn 0.21794 0.02007 -0.97576
vn 0.19809 -0.08929 -0.97611
vn 0.57519 -0.16228 -0.80176
vn 0.54832 -0.26762 -0.79229
vn 0.56293 -0.28932 -0.77421
vn 0.77640 -0.38394 -0.49979
vn 0.76701 -0.40350 -0.49888
vn 0.78314 -0.38701 -0.48674
vn 0.82924 -0.43920 -0.34563
vn 0.89258 -0.45088 -0.00000
vn 0.90035 -0.43517 0.00058
vn 0.99959 0.02853 -0.00000
vn 0.96141 -0.27512 -0.00049
vn 0.83690 -0.25555 -0.48405
vn 0.87943 0.47604 0.00116
vn 0.52382 0.85183 0.00022
vn 0.07742 0.99700 -0.00024
vn -0.42378 0.90576 -0.00109
vn -0.79620 0.60503 -0.00160
vn 0.02426 0.64895 0.76044
vn 0.15131 0.28298 0.94712
vn 0.47080 0.38294 0.79480
vn 0.28175 0.65109 0.70477
vn 0.41326 0.81156 0.41301
vn 0.00758 0.90934 0.41599
vn -0.40507 0.81364 0.41702
vn -0.72488 0.53745 0.43093
vn -0.48803 0.43119 0.75888
vn -0.34132 0.63106 0.69661
vn -0.02298 0.63179 0.77480
vn 0.05580 0.90543 0.42082
vn -0.12492 0.35293 0.92727
vn 0.62235 0.03881 0.78178
vn 0.89472 0.00115 0.44662
vn 0.80813 0.41029 0.42259
vn 0.63418 0.29441 0.71494
vn 0.47968 0.76931 0.42199
vn 0.36273 0.50023 0.78625
vn 0.26524 0.20945 0.94116
vn 0.34797 -0.51800 0.78141
vn 0.47994 -0.75392 0.44862
vn 0.79619 -0.43254 0.42308
vn 0.60102 -0.36443 0.71131
vn 0.60477 -0.02319 0.79606
vn 0.26691 -0.13399 0.95436
vn 0.90191 0.04261 0.42982
vn 0.75661 0.49264 0.42995
vn 0.18959 -0.85657 0.47995
vn 0.12869 -0.59845 0.79075
vn 0.07699 -0.62593 0.77607
vn 0.09629 -0.86779 0.48751
vn 0.09056 -0.87589 0.47393
vn 0.06752 -0.89240 0.44616
vn 0.05958 -0.90879 0.41299
vn 0.06815 -0.67972 0.73030
vn 0.05673 -0.71295 0.69891
vn 0.08367 -0.64851 0.75659
vn 0.00403 -0.26417 0.96447
vn -0.02172 -0.29018 0.95673
vn 0.01684 -0.24179 0.97018
vn -0.13218 0.21410 0.96783
vn -0.18224 0.21669 0.95908
vn 0.07053 -0.21154 0.97482
vn -0.04125 0.23341 0.97150
vn -0.18313 0.60634 0.77383
vn -0.32144 0.56274 0.76158
vn -0.27934 0.85561 0.43577
vn -0.46068 0.77023 0.44104
vn 0.05265 -0.92455 0.37739
vn 0.04358 -0.93960 0.33950
vn 0.04544 -0.74295 0.66780
vn 0.03746 -0.76974 0.63725
vn -0.06400 -0.32915 0.94211
vn -0.07323 -0.33987 0.93762
vn -0.04652 -0.31265 0.94873
vn -0.25461 0.23186 0.93884
vn -0.27175 0.24823 0.92980
vn -0.22211 0.22292 0.94919
vn -0.41389 0.57816 0.70315
vn -0.43634 0.59508 0.67490
vn -0.39091 0.55808 0.73194
vn -0.53130 0.72978 0.43027
vn -0.53418 0.73776 0.41275
vn 0.03815 -0.95277 0.30130
vn -0.00255 -0.96365 0.26715
vn 0.02695 -0.79303 0.60858
vn -0.01870 -0.80878 0.58781
vn -0.08869 -0.34286 0.93519
vn -0.03845 -0.65192 0.75731
vn -0.28292 0.30265 0.91014
vn -0.26702 0.38350 0.88410
vn -0.18278 0.05138 0.98181
vn -0.27763 0.26856 0.92239
vn -0.43844 0.65299 0.61756
vn -0.42648 0.68971 0.58516
vn -0.44336 0.62284 0.64459
vn -0.54085 0.75950 0.36145
vn -0.52714 0.78264 0.33105
vn -0.54491 0.74269 0.38921
vn -0.16495 -0.95612 0.24212
vn -0.51088 -0.83057 0.22169
vn -0.16487 -0.79769 0.58010
vn -0.45248 -0.68248 0.57400
vn -0.16118 -0.63322 0.75700
vn -0.38332 -0.52910 0.75705
vn -0.13868 0.14647 0.97945
vn -0.01279 0.20266 0.97917
vn -0.12218 0.87254 0.47302
vn 0.33701 0.83424 0.43643
vn 0.31250 0.76248 0.56653
vn -0.09944 0.79052 0.60431
vn -0.36646 0.76467 0.53008
vn -0.43820 0.86253 0.25304
vn -0.17410 0.96109 0.21448
vn -0.50802 0.80888 0.29603
vn -0.84521 -0.49858 0.19244
vn -0.96821 -0.17615 0.17759
vn -0.73595 -0.41575 0.53434
vn -0.85727 -0.15927 0.48962
vn -0.60785 -0.32648 0.72383
vn -0.72350 -0.14015 0.67595
vn 0.10350 0.14037 0.98468
vn 0.11505 -0.02213 0.99311
vn 0.73732 0.52602 0.42386
vn 0.89255 0.08501 0.44287
vn 0.79739 0.07882 0.59830
vn 0.66726 0.48532 0.56500
vn 0.80831 0.56485 0.16607
vn 0.98246 0.08038 0.16828
vn 0.34842 0.91891 0.18492
vn -0.98123 -0.00681 0.19274
vn -0.97221 0.08919 0.21645
vn -0.86861 -0.02461 0.49489
vn -0.84496 0.05422 0.53208
vn -0.73604 -0.04323 0.67555
vn -0.69861 0.01798 0.71527
vn 0.05491 -0.14924 0.98728
vn 0.00876 -0.16293 0.98660
vn 0.85119 -0.23252 0.47054
vn 0.78775 -0.33905 0.51429
vn 0.65926 -0.30125 0.68893
vn 0.73960 -0.21445 0.63797
vn 0.94886 -0.25733 0.18287
vn 0.90056 -0.37878 0.21336
vn 0.87314 -0.42143 0.24502
vn 0.85917 -0.43356 0.27176
vn 0.74895 -0.36290 0.55441
vn 0.72609 -0.36551 0.58240
vn 0.85129 -0.43706 0.29032
vn 0.71288 -0.36706 0.59756
vn 0.30313 -0.21456 0.92848
vn 0.61184 -0.30768 0.72869
vn 0.29308 -0.20659 0.93350
vn 0.70558 -0.36277 0.60874
vn 0.28814 -0.20021 0.93643
vn -0.34978 0.00994 0.93678
vn -0.01675 -0.10092 0.99475
vn -0.34915 0.01420 0.93696
vn 0.28284 -0.19705 0.93871
vn -0.34716 0.01276 0.93772
vn -0.77975 0.13504 0.61136
vn -0.78772 0.13539 0.60097
vn -0.77090 0.13219 0.62309
vn -0.34169 0.01308 0.93972
vn -0.75717 0.13218 0.63970
vn -0.93193 0.15788 0.32647
vn -0.93808 0.15974 0.30739
vn -0.92410 0.15734 0.34826
vn -0.74245 0.12663 0.65782
vn -0.91562 0.15407 0.37135
vn -0.90775 0.14763 0.39267
vn -0.89917 0.14456 0.41303
vn -0.89106 0.14057 0.43158
vn -0.71099 0.11705 0.69339
vn -0.69765 0.10834 0.70820
vn -0.72751 0.11982 0.67556
vn -0.32565 0.01082 0.94543
vn -0.31510 0.01063 0.94900
vn -0.33573 0.00999 0.94191
vn 0.26497 -0.18865 0.94562
vn 0.25780 -0.17641 0.94996
vn 0.27463 -0.19378 0.94182
vn 0.68466 -0.35013 0.63926
vn 0.67194 -0.34000 0.65794
vn 0.69726 -0.35569 0.62235
vn 0.84288 -0.42956 0.32408
vn 0.83658 -0.42668 0.34363
vn 0.84681 -0.43498 0.30610
vn -0.95991 0.14489 0.23995
vn -0.95116 0.15773 0.26538
vn -0.81741 0.11379 0.56470
vn -0.79877 0.13486 0.58633
vn -0.66008 0.07524 0.74741
vn -0.64151 0.10216 0.76028
vn -0.00736 -0.12868 0.99166
vn -0.94440 0.15835 0.28814
vn -0.88520 0.13135 0.44629
vn -0.87859 0.13330 0.45860
vn -0.68551 0.09816 0.72142
vn -0.67152 0.09615 0.73472
vn -0.30075 0.00269 0.95370
vn -0.29144 0.00021 0.95659
vn -0.30940 0.00324 0.95093
vn 0.23763 -0.16902 0.95654
vn 0.22893 -0.16114 0.96001
vn 0.24798 -0.17015 0.95370
vn 0.64284 -0.31763 0.69704
vn 0.62705 -0.31111 0.71415
vn 0.65869 -0.32689 0.67769
vn 0.82475 -0.41289 0.38641
vn 0.81675 -0.40674 0.40925
vn 0.83161 -0.41916 0.36434
vn -0.87197 0.14165 0.46862
vn -0.86888 0.14493 0.47333
vn -0.65899 0.09932 0.74557
vn -0.64587 0.10322 0.75644
vn -0.28177 0.00271 0.95948
vn -0.26621 0.01888 0.96373
vn 0.21015 -0.14711 0.96654
vn 0.20335 -0.12964 0.97049
vn 0.21734 -0.15688 0.96341
vn 0.59410 -0.29764 0.74730
vn 0.58403 -0.28611 0.75964
vn 0.60921 -0.30642 0.73142
vn 0.79591 -0.40250 0.45224
vn 0.78987 -0.39378 0.47015
vn 0.80728 -0.40245 0.43166
vn -0.86195 0.18778 0.47094
vn -0.83275 0.31009 0.45866
vn -0.62099 0.14589 0.77012
vn -0.57468 0.25445 0.77782
vn -0.24142 0.06843 0.96800
vn -0.19901 0.17879 0.96355
vn 0.19810 -0.08925 0.97611
vn 0.21758 0.01938 0.97585
vn 0.54806 -0.26756 0.79249
vn 0.57451 -0.16202 0.80230
vn 0.56276 -0.28924 0.77436
vn 0.76670 -0.40373 0.49917
vn 0.77588 -0.38407 0.50050
vn 0.78317 -0.38698 0.48672
vn 0.82895 -0.43947 0.34598
vn 0.83689 -0.25523 0.48422
f 1//1 5//2 6//3 7//4
f 1//1 7//4 8//5 9//6
f 2//7 10//8 11//9 12//10
f 2//7 12//10 13//11 14//12
f 2//7 14//12 15//13 10//8
f 3//14 16//15 17//16 18//17
f 3//14 19//18 20//19 16//15
f 3//14 18//17 21//20 19//18
f 4//21 22//22 23//23 24//24
f 4//21 24//24 25//25 26//26
f 4//21 26//26 27//27 22//22
f 27//27 26//26 5//2 28//28
f 27//27 28//28 29//29 30//30
f 27//27 30//30 31//31 22//22
f 31//31 32//32 23//23 22//22
f 32//32 33//33 34//34 23//23
f 34//34 35//35 36//36 37//37
f 34//34 37//37 24//24 23//23
f 34//34 33//33 258//38 35//35
f 258//38 38//39 39//40 35//35
f 40//41 259//42 41//43 42//44
f 40//41 42//44 39//40 38//39
f 42//44 41//43 43//45 44//46
f 42//44 44//46 45//47 39//40
f 45//47 44//46 46//48 47//49
f 45//47 47//49 48//50 36//36
f 45//47 36//36 35//35 39//40
f 48//50 47//49 49//51 50//52
f 48//50 50//52 51//53 52//54
f 48//50 52//54 37//37 36//36
f 52//54 51//53 6//3 25//25
f 52//54 25//25 24//24 37//37
f 51//53 50//52 53//55 54//56
f 51//53 54//56 7//4 6//3
f 54//56 53//55 55//57 56//58
f 54//56 56//58 8//5 7//4
f 56//58 55//57 260//59 261//60
f 56//58 261//60 262//61 8//5
f 262//61 57//62 9//6 8//5
f 57//62 29//29 28//28 9//6
f 59//63 58//64 60//65 61//66
f 59//63 61//66 41//43 259//42
f 61//66 60//65 62//67 63//68
f 61//66 63//68 43//45 41//43
f 63//68 62//67 64//69 65//70
f 63//68 65//70 66//71 43//45
f 66//71 65//70 67//72 68//73
f 66//71 68//73 69//74 46//48
f 66//71 46//48 44//46 43//45
f 69//74 68//73 70//75 71//76
f 69//74 71//76 72//77 49//51
f 69//74 49//51 47//49 46//48
f 72//77 71//76 73//78 74//79
f 72//77 74//79 55//57 53//55
f 72//77 53//55 50//52 49//51
f 74//79 73//78 75//80 263//81
f 74//79 263//81 260//59 55//57
f 265//82 264//83 76//84 77//85
f 265//82 77//85 60//65 58//64
f 77//85 76//84 78//86 79//87
f 77//85 79//87 62//67 60//65
f 79//87 78//86 80//88 81//89
f 79//87 81//89 64//69 62//67
f 81//89 80//90 82//91 83//92
f 81//89 83//92 84//93 64//69
f 84//93 83//92 85//94 86//95
f 84//93 86//95 87//96 67//72
f 84//93 67//72 65//70 64//69
f 87//96 86//95 88//97 89//98
f 87//96 89//98 90//99 70//75
f 87//96 70//75 68//73 67//72
f 90//99 89//98 266//100 91//101
f 90//99 91//101 75//80 73//78
f 90//99 73//78 71//76 70//75
f 266//100 89//98 88//97 267//102
f 268//103 93//104 94//105 95//106
f 268//103 95//106 76//84 264//83
f 95//106 94//105 96//107 97//108
f 95//106 97//108 78//86 76//84
f 97//108 96//107 98//109 99//110
f 97//108 99//110 80//88 78//86
f 99//111 98//112 100//112 101//111
f 99//111 101//111 82//91 80//90
f 101//113 100//114 102//115 103//116
f 101//113 103//116 104//117 82//91
f 104//117 103//116 105//118 106//119
f 104//117 106//119 107//120 85//94
f 104//117 85//94 83//92 82//91
f 107//120 106//119 269//121 92//122
f 107//120 92//122 267//102 88//97
f 107//120 88//97 86//95 85//94
f 269//121 106//119 105//118 270//123
f 110//124 109//125 111//126 112//127
f 110//124 112//127 94//105 93//104
f 112//127 111//126 113//128 114//129
f 112//127 114//129 96//107 94//105
f 114//129 113//128 115//130 116//131
f 114//129 116//131 98//109 96//107
f 116//132 115//133 117//133 118//132
f 116//132 118//132 100//112 98//112
f 118//134 117//135 119//136 120//137
f 118//134 120//137 102//115 100//114
f 120//137 119//136 121//138 122//139
f 120//137 122//139 123//140 102//115
f 123//140 122//139 124//141 108//142
f 123//140 108//142 270//123 105//118
f 123//140 105//118 103//116 102//115
f 124//141 122//139 121//138 271//143
f 273//144 272//145 126//146 127//147
f 273//144 127//147 111//126 109//125
f 127//147 126//146 128//148 129//149
f 127//147 129//149 113//128 111//126
f 129//149 128//148 130//150 131//151
f 129//149 131//151 115//130 113//128
f 131//152 130//153 132//153 133//152
f 131//152 133//152 117//133 115//133
f 133//154 132//155 134//156 135//157
f 133//154 135//157 119//136 117//135
f 135//157 134//156 136//158 137//159
f 135//157 137//159 121//138 119//136
f 137//159 136//158 138//160 125//161
f 137//159 125//161 271//143 121//138
f 138//160 136//158 140//162 139//163
f 140//162 141//164 142//165 139//163
f 140//162 136//158 134//156 143//166
f 140//162 143//166 144//167 141//164
f 144//167 145//168 146//169 141//164
f 144//167 143//166 147//170 148//171
f 144//167 148//171 149//172 145//168
f 149//172 150//173 151//174 145//168
f 149//172 148//171 152//175 153//176
f 149//172 153//176 154//177 150//173
f 154//177 155//178 156//179 150//173
f 154//177 153//176 157//180 158//181
f 154//177 158//181 159//182 155//178
f 159//182 160//183 161//184 155//178
f 159//182 158//181 162//185 163//186
f 159//182 163//186 164//187 160//183
f 164//187 165//188 166//189 160//183
f 164//187 163//186 274//190 167//191
f 164//187 167//191 168//192 165//188
f 168//192 169//193 170//194 165//188
f 171//195 172//196 173//197 174//198
f 171//195 174//198 170//194 169//193
f 174//198 173//197 175//199 176//200
f 174//198 176//200 177//201 170//194
f 177//201 176//200 178//202 179//203
f 177//201 179//203 180//204 166//189
f 177//201 166//189 165//188 170//194
f 180//204 179//203 181//205 182//206
f 180//204 182//206 183//207 161//184
f 180//204 161//184 160//183 166//189
f 183//207 182//206 184//208 185//209
f 183//207 185//209 186//210 156//179
f 183//207 156//179 155//178 161//184
f 186//210 185//209 187//211 188//212
f 186//210 188//212 189//213 151//174
f 186//210 151//174 150//173 156//179
f 189//213 188//212 190//214 275//215
f 189//213 275//215 276//216 146//169
f 189//213 146//169 145//168 151//174
f 276//216 142//165 141//164 146//169
f 278//217 277//218 191//219 192//220
f 278//217 192//220 126//146 272//145
f 192//220 191//219 193//221 194//222
f 192//220 194//222 128//148 126//146
f 194//222 193//221 152//223 195//224
f 194//222 195//224 130//150 128//148
f 195//225 152//175 148//171 147//225
f 195//225 147//225 132//153 130//153
f 193//221 157//180 153//176 152//223
f 193//221 191//219 196//226 157//180
f 196//226 162//185 158//181 157//180
f 196//226 191//219 277//218 279//227
f 196//226 279//227 280//228 162//185
f 280//228 274//190 163//186 162//185
f 198//229 197//230 199//231 200//232
f 198//229 200//232 173//197 172//196
f 200//232 199//231 201//233 202//234
f 200//232 202//234 175//199 173//197
f 202//234 201//233 203//235 204//236
f 202//234 204//236 205//237 175//199
f 205//237 204//236 206//238 207//239
f 205//237 207//239 208//240 178//202
f 205//237 178//202 176//200 175//199
f 208//240 207//239 209//241 210//242
f 208//240 210//242 211//243 181//205
f 208//240 181//205 179//203 178//202
f 211//243 210//242 212//244 213//245
f 211//243 213//245 214//246 184//208
f 211//243 184//208 182//206 181//205
f 214//246 213//245 215//247 216//248
f 214//246 216//248 217//249 187//211
f 214//246 187//211 185//209 184//208
f 217//249 190//214 188//212 187//211
f 219//250 218//251 220//252 221//253
f 219//250 221//253 199//231 197//230
f 221//253 220//252 222//254 223//255
f 221//253 223//255 201//233 199//231
f 223//255 222//254 224//256 225//257
f 223//255 225//257 203//235 201//233
f 225//257 224//256 226//258 227//259
f 225//257 227//259 228//260 203//235
f 228//260 227//259 229//261 230//262
f 228//260 230//262 231//263 206//238
f 228//260 206//238 204//236 203//235
f 231//263 230//262 232//264 233//265
f 231//263 233//265 234//266 209//241
f 231//263 209//241 207//239 206//238
f 234//266 233//265 281//267 282//268
f 234//266 282//268 235//269 212//244
f 234//266 212//244 210//242 209//241
f 235//269 215//247 213//245 212//244
f 281//267 233//265 232//264 283//270
f 285//271 284//272 237//273 238//274
f 285//271 238//274 220//252 218//251
f 238//274 237//273 239//275 240//276
f 238//274 240//276 222//254 220//252
f 240//276 239//275 241//277 242//278
f 240//276 242//278 224//256 222//254
f 242//278 241//277 243//279 244//280
f 242//278 244//280 226//258 224//256
f 244//280 243//279 245//281 246//282
f 244//280 246//282 247//283 226//258
f 247//283 246//282 248//284 249//285
f 247//283 249//285 250//286 229//261
f 247//283 229//261 227//259 226//258
f 250//286 249//285 251//287 236//288
f 250//286 236//288 283//270 232//264
f 250//286 232//264 230//262 229//261
f 251//287 249//285 248//284 286//289
f 252//290 287//291 253//292 17//16
f 252//290 17//16 16//15 254//293
f 254//293 16//15 20//19 255//294
f 255//294 20//19 13//11 256//295
f 256//295 13//11 12//10 257//296
f 257//296 12//10 11//9 288//297
f 288//297 11//9 237//273 284//272
f 253//292 287//291 286//289 248//284
f 253//292 248//284 246//282 245//281
f 253//292 245//281 18//17 17//16
f 245//281 243//279 21//20 18//17
f 243//279 241//277 15//13 21//20
f 241//277 239//275 10//8 15//13
f 239//275 237//273 11//9 10//8
f 147//170 143//166 134//156 132//155
f 28//28 5//2 1//1 9//6
f 26//26 25//25 6//3 5//2
f 21//20 15//13 14//12 19//18
f 20//19 19//18 14//12 13//11
f 295//298 294//299 293//300 289//301
f 297//302 296//303 295//298 289//301
f 300//304 299//305 298//306 290//307
f 302//308 301//309 300//304 290//307
f 298//306 303//310 302//308 290//307
f 306//311 305//312 304//313 291//314
f 304//313 308//315 307//316 291//314
f 307//316 309//317 306//311 291//314
f 312//318 311//319 310//320 292//321
f 314//322 313//323 312//318 292//321
f 310//320 315//324 314//322 292//321
f 316//325 293//300 314//322 315//324
f 30//30 29//29 316//325 315//324
f 310//320 31//31 30//30 315//324
f 310//320 311//319 32//32 31//31
f 311//319 317//326 33//33 32//32
f 320//327 319//328 318//329 317//326
f 311//319 312//318 320//327 317//326
f 318//329 258//38 33//33 317//326
f 318//329 321//330 38//39 258//38
f 323//331 322//332 259//42 40//41
f 38//39 321//330 323//331 40//41
f 325//333 324//334 322//332 323//331
f 321//330 326//335 325//333 323//331
f 328//336 327//337 325//333 326//335
f 319//328 329//338 328//336 326//335
f 321//330 318//329 319//328 326//335
f 331//339 330//340 328//336 329//338
f 333//341 332//342 331//339 329//338
f 319//328 320//327 333//341 329//338
f 313//323 294//299 332//342 333//341
f 320//327 312//318 313//323 333//341
f 335//343 334//344 331//339 332//342
f 294//299 295//298 335//343 332//342
f 337//345 336//346 334//344 335//343
f 295//298 296//303 337//345 335//343
f 261//60 260//59 336//346 337//345
f 296//303 262//61 261//60 337//345
f 296//303 297//302 57//62 262//61
f 297//302 316//325 29//29 57//62
f 339//347 338//348 58//64 59//63
f 259//42 322//332 339//347 59//63
f 341//349 340//350 338//348 339//347
f 322//332 324//334 341//349 339//347
f 343//351 342//352 340//350 341//349
f 324//334 344//353 343//351 341//349
f 346//354 345//355 343//351 344//353
f 327//337 347//356 346//354 344//353
f 324//334 325//333 327//337 344//353
f 349//357 348//358 346//354 347//356
f 330//340 350//359 349//357 347//356
f 327//337 328//336 330//340 347//356
f 352//360 351//361 349//357 350//359
f 334//344 336//346 352//360 350//359
f 330//340 331//339 334//344 350//359
f 263//81 75//80 351//361 352//360
f 336//346 260//59 263//81 352//360
f 354//362 353//363 264//83 265//82
f 58//64 338//348 354//362 265//82
f 356//364 355//365 353//363 354//362
f 338//348 340//350 356//364 354//362
f 358//366 357//367 355//365 356//364
f 340//350 342//352 358//366 356//364
f 360//368 359//369 357//370 358//366
f 342//352 361//371 360//368 358//366
f 363//372 362//373 360//368 361//371
f 345//355 364//374 363//372 361//371
f 342//352 343//351 345//355 361//371
f 366//375 365//376 363//372 364//374
f 348//358 367//377 366//375 364//374
f 345//355 346//354 348//358 364//374
f 91//101 266//100 366//375 367//377
f 351//361 75//80 91//101 367//377
f 348//358 349//357 351//361 367//377
f 267//102 365//376 366//375 266//100
f 369//378 368//379 93//104 268//103
f 264//83 353//363 369//378 268//103
f 371//380 370//381 368//379 369//378
f 353//363 355//365 371//380 369//378
f 373//382 372//383 370//381 371//380
f 355//365 357//367 373//382 371//380
f 375//384 374//385 372//385 373//384
f 357//370 359//369 375//384 373//384
f 377//386 376//387 374//388 375//389
f 359//369 378//390 377//386 375//389
f 380//391 379//392 377//386 378//390
f 362//373 381//393 380//391 378//390
f 359//369 360//368 362//373 378//390
f 92//122 269//121 380//391 381//393
f 365//376 267//102 92//122 381//393
f 362//373 363//372 365//376 381//393
f 270//123 379//392 380//391 269//121
f 383//394 382//395 109//125 110//124
f 93//104 368//379 383//394 110//124
f 385//396 384//397 382//395 383//394
f 368//379 370//381 385//396 383//394
f 387//398 386//399 384//397 385//396
f 370//381 372//383 387//398 385//396
f 389//400 388//401 386//401 387//400
f 372//385 374//385 389//400 387//400
f 391//402 390//403 388//404 389//405
f 374//388 376//387 391//402 389//405
f 393//406 392//407 390//403 391//402
f 376//387 394//408 393//406 391//402
f 108//142 124//141 393//406 394//408
f 379//392 270//123 108//142 394//408
f 376//387 377//386 379//392 394//408
f 271//143 392//407 393//406 124//141
f 396//409 395//410 272//145 273//144
f 109//125 382//395 396//409 273//144
f 398//411 397//412 395//410 396//409
f 382//395 384//397 398//411 396//409
f 400//413 399//414 397//412 398//411
f 384//397 386//399 400//413 398//411
f 402//415 401//416 399//416 400//415
f 386//401 388//401 402//415 400//415
f 404//417 403//418 401//419 402//420
f 388//404 390//403 404//417 402//420
f 406//421 405//422 403//418 404//417
f 390//403 392//407 406//421 404//417
f 125//161 138//160 405//422 406//421
f 392//407 271//143 125//161 406//421
f 139//163 407//423 405//422 138//160
f 139//163 142//165 408//424 407//423
f 409//425 403//418 405//422 407//423
f 408//424 410//426 409//425 407//423
f 408//424 412//427 411//428 410//426
f 414//429 413//430 409//425 410//426
f 411//428 415//431 414//429 410//426
f 411//428 417//432 416//433 415//431
f 419//434 418//435 414//429 415//431
f 416//433 420//436 419//434 415//431
f 416//433 422//437 421//438 420//436
f 424//439 423//440 419//434 420//436
f 421//438 425//441 424//439 420//436
f 421//438 427//442 426//443 425//441
f 429//444 428//445 424//439 425//441
f 426//443 430//446 429//444 425//441
f 426//443 432//447 431//448 430//446
f 167//191 274//190 429//444 430//446
f 431//448 168//192 167//191 430//446
f 431//448 433//449 169//193 168//192
f 435//450 434//451 172//196 171//195
f 169//193 433//449 435//450 171//195
f 437//452 436//453 434//451 435//450
f 433//449 438//454 437//452 435//450
f 440//455 439//456 437//452 438//454
f 432//447 441//457 440//455 438//454
f 433//449 431//448 432//447 438//454
f 443//458 442//459 440//455 441//457
f 427//442 444//460 443//458 441//457
f 432//447 426//443 427//442 441//457
f 446//461 445//462 443//458 444//460
f 422//437 447//463 446//461 444//460
f 427//442 421//438 422//437 444//460
f 449//464 448//465 446//461 447//463
f 417//432 450//466 449//464 447//463
f 422//437 416//433 417//432 447//463
f 275//215 190//214 449//464 450//466
f 412//427 276//216 275//215 450//466
f 417//432 411//428 412//427 450//466
f 412//427 408//424 142//165 276//216
f 452//467 451//468 277//218 278//217
f 272//145 395//410 452//467 278//217
f 454//469 453//470 451//468 452//467
f 395//410 397//412 454//469 452//467
f 455//471 418//472 453//470 454//469
f 397//412 399//414 455//471 454//469
f 413//473 414//429 418//435 455//473
f 399//416 401//416 413//473 455//473
f 418//472 419//434 423//440 453//470
f 423//440 456//474 451//468 453//470
f 423//440 424//439 428//445 456//474
f 279//227 277//218 451//468 456//474
f 428//445 280//228 279//227 456//474
f 428//445 429//444 274//190 280//228
f 458//475 457//476 197//230 198//229
f 172//196 434//451 458//475 198//229
f 460//477 459//478 457//476 458//475
f 434//451 436//453 460//477 458//475
f 462//479 461//480 459//478 460//477
f 436//453 463//481 462//479 460//477
f 465//482 464//483 462//479 463//481
f 439//456 466//484 465//482 463//481
f 436//453 437//452 439//456 463//481
f 468//485 467//486 465//482 466//484
f 442//459 469//487 468//485 466//484
f 439//456 440//455 442//459 466//484
f 471//488 470//489 468//485 469//487
f 445//462 472//490 471//488 469//487
f 442//459 443//458 445//462 469//487
f 216//248 215//247 471//488 472//490
f 448//465 217//249 216//248 472//490
f 445//462 446//461 448//465 472//490
f 448//465 449//464 190//214 217//249
f 474//491 473//492 218//251 219//250
f 197//230 457//476 474//491 219//250
f 476//493 475//494 473//492 474//491
f 457//476 459//478 476//493 474//491
f 478//495 477//496 475//494 476//493
f 459//478 461//480 478//495 476//493
f 480//497 479//498 477//496 478//495
f 461//480 481//499 480//497 478//495
f 483//500 482//501 480//497 481//499
f 464//483 484//502 483//500 481//499
f 461//480 462//479 464//483 481//499
f 486//503 485//504 483//500 484//502
f 467//486 487//505 486//503 484//502
f 464//483 465//482 467//486 484//502
f 282//268 281//267 486//503 487//505
f 470//489 235//269 282//268 487//505
f 467//486 468//485 470//489 487//505
f 470//489 471//488 215//247 235//269
f 283//270 485//504 486//503 281//267
f 489//506 488//507 284//272 285//271
f 218//251 473//492 489//506 285//271
f 491//508 490//509 488//507 489//506
f 473//492 475//494 491//508 489//506
f 493//510 492//511 490//509 491//508
f 475//494 477//496 493//510 491//508
f 495//512 494//513 492//511 493//510
f 477//496 479//498 495//512 493//510
f 497//514 496//515 494//513 495//512
f 479//498 498//516 497//514 495//512
f 500//517 499//518 497//514 498//516
f 482//501 501//519 500//517 498//516
f 479//498 480//497 482//501 498//516
f 236//288 251//520 500//517 501//519
f 485//504 283//270 236//288 501//519
f 482//501 483//500 485//504 501//519
f 286//289 499//518 500//517 251//520
f 305//312 502//521 287//291 252//290
f 254//293 304//313 305//312 252//290
f 255//294 308//315 304//313 254//293
f 256//295 301//309 308//315 255//294
f 257//296 300//304 301//309 256//295
f 288//297 299//305 300//304 257//296
f 284//272 488//507 299//305 288//297
f 499//518 286//289 287//291 502//521
f 496//515 497//514 499//518 502//521
f 305//312 306//311 496//515 502//521
f 306//311 309//317 494//513 496//515
f 309//317 303//310 492//511 494//513
f 303//310 298//306 490//509 492//511
f 298//306 299//305 488//507 490//509
f 401//419 403//418 409//425 413//430
f 297//302 289//301 293//300 316//325
f 293//300 294//299 313//323 314//322
f 307//316 302//308 303//310 309//317
f 301//309 302//308 307//316 308//315
