# pilowlava3D glyph 'm' variant 1 — Vincent Wagner / Velvetyne, Free Art License
v 0.68838 0.20670 -0.43785
v 1.16831 0.39271 -0.43586
v 3.15891 1.06340 -0.37918
v 2.94061 0.07763 -0.27774
v 0.64439 0.08121 -0.27688
v 0.35242 0.26593 -0.28552
v 0.54013 0.36600 -0.49323
v 0.95268 0.25374 -0.47226
v 1.01421 0.08473 -0.28105
v 0.83530 0.47725 -0.58262
v 1.12727 0.59741 -0.48310
v 1.33343 0.64541 -0.26980
v 1.29317 0.32893 -0.28372
v 5.20094 0.45941 -0.55371
v 5.33829 0.30700 -0.44216
v 4.97488 0.25124 -0.48304
v 4.91511 0.51321 -0.55661
v 4.73596 0.14042 -0.25961
v 4.63619 0.33244 -0.33829
v 5.02546 0.06589 -0.28455
v 3.20297 1.17728 -0.19155
v 3.41152 1.16717 -0.17389
v 3.44028 1.12709 -0.30236
v 3.30389 0.87000 -0.44619
v 3.07693 0.69433 -0.53407
v 2.89604 0.88314 -0.54335
v 3.51680 1.04072 -0.37675
v 3.24626 0.07183 -0.00000
v 3.18529 0.14368 -0.31495
v 2.75557 0.21229 -0.32899
v 3.01267 0.32670 -0.48099
v 2.83885 0.53664 -0.51959
v 3.25357 0.50927 -0.47992
v 3.42012 0.37487 -0.29897
v 2.58627 0.42661 -0.31919
v 2.44190 0.66366 -0.29845
v 2.65555 0.75631 -0.51154
v 2.34075 0.61631 -0.00000
v 2.20169 0.87494 -0.00000
v 2.29284 0.91999 -0.28302
v 2.06746 1.14268 -0.00000
v 1.93399 1.40575 -0.00000
v 2.01922 1.44688 -0.26783
v 2.15404 1.18574 -0.27162
v 2.18698 1.52857 -0.47935
v 2.32659 1.27140 -0.47927
v 2.47690 1.01059 -0.49244
v 2.55225 1.38430 -0.54983
v 2.70208 1.12893 -0.54292
v 2.75802 1.49662 -0.44446
v 2.90838 1.27025 -0.41023
v 2.89420 1.57654 -0.23987
v 3.01981 1.35215 -0.21799
v 2.95280 1.60814 -0.00000
v 3.21519 1.20486 -0.00000
v 3.40872 1.18296 -0.00000
v 3.54833 1.32582 -0.00000
v 3.55328 1.31877 -0.16007
v 3.58344 1.56046 -0.00000
v 3.59668 1.55654 -0.15704
v 3.64364 1.54635 -0.28895
v 3.58539 1.30266 -0.28023
v 3.72611 1.52979 -0.34850
v 3.65502 1.27266 -0.34152
v 3.81409 1.51303 -0.30242
v 3.72988 1.24065 -0.30301
v 3.60540 0.97453 -0.34904
v 3.78088 1.21721 -0.17252
v 3.67288 0.93072 -0.21080
v 3.55470 0.64220 -0.26249
v 3.43455 0.72346 -0.42282
v 3.60967 0.61453 -0.00000
v 3.48522 0.32753 -0.00000
v 3.56677 1.83439 -0.00000
v 3.57516 2.10410 -0.20702
v 3.59389 1.82826 -0.18022
v 3.66837 2.09705 -0.36516
v 3.66089 1.81595 -0.32572
v 3.78558 2.08545 -0.41649
v 3.76086 1.80378 -0.38245
v 3.90781 2.07448 -0.37018
v 3.86645 1.79263 -0.33499
v 4.01196 2.06417 -0.20558
v 3.94489 1.78537 -0.18464
v 3.87101 1.50203 -0.16640
v 3.89379 1.49721 -0.00000
v 3.51102 2.67110 -0.22573
v 3.54330 2.38082 -0.21808
v 3.63982 2.66886 -0.40701
v 3.65674 2.38101 -0.38910
v 3.83018 2.65446 -0.47405
v 3.80535 2.37333 -0.44619
v 4.01817 2.62632 -0.40369
v 3.95779 2.35449 -0.39182
v 4.14764 2.59879 -0.22304
v 4.07946 2.33349 -0.21643
v 4.20884 2.58177 -0.00000
v 4.13345 2.32072 -0.00000
v 3.41586 3.30117 -0.00000
v 3.41953 2.97341 -0.00000
v 3.48460 3.28943 -0.25198
v 3.48438 2.97306 -0.23890
v 3.65446 3.26020 -0.44949
v 3.63528 2.96028 -0.42892
v 3.89906 3.21111 -0.51438
v 3.85917 2.93239 -0.49776
v 4.13235 3.15190 -0.42902
v 4.07573 2.89341 -0.41932
v 4.28530 3.10515 -0.23340
v 4.21914 2.85775 -0.23001
v 4.35577 3.08113 -0.00000
v 4.28403 2.83535 -0.00000
v 3.63158 3.98137 -0.00000
v 3.48058 3.64682 -0.00000
v 3.68743 3.94659 -0.25957
v 3.54834 3.62157 -0.25813
v 3.84335 3.85665 -0.45199
v 3.71841 3.56316 -0.45721
v 4.06856 3.73542 -0.50764
v 3.96581 3.48117 -0.52161
v 4.28535 3.63063 -0.42307
v 4.20246 3.39744 -0.43326
v 4.42960 3.56851 -0.23229
v 4.35591 3.34214 -0.23460
v 4.42630 3.31598 -0.00000
v 4.24244 4.40102 -0.22752
v 3.92747 4.21930 -0.25045
v 4.32135 4.29580 -0.39706
v 4.04664 4.10441 -0.43525
v 4.41705 4.17628 -0.44149
v 4.21465 3.96757 -0.48505
v 4.52435 4.07137 -0.37202
v 4.38790 3.85418 -0.40667
v 4.60555 3.98581 -0.20449
v 4.50906 3.78625 -0.22491
v 4.63769 3.95462 -0.00000
v 4.74230 4.14747 -0.16747
v 4.94601 4.52220 -0.00000
v 4.57510 4.52230 -0.00000
v 4.94827 4.50706 -0.16208
v 4.59112 4.49722 -0.19122
v 4.95510 4.45430 -0.28866
v 4.63104 4.42120 -0.34146
v 4.95656 4.36533 -0.32886
v 4.67702 4.32289 -0.38387
v 4.94969 4.28164 -0.25629
v 4.71767 4.22555 -0.31558
v 4.94241 4.23778 -0.13590
v 5.17680 4.22086 -0.23377
v 5.15828 4.19363 -0.12275
v 5.15417 4.18846 -0.00000
v 5.28837 4.01216 -0.13029
v 5.29002 4.39907 -0.00000
v 5.51662 4.12908 -0.15571
v 5.28399 4.39010 -0.15090
v 5.47364 4.11137 -0.27615
v 5.26154 4.35209 -0.26881
v 5.39219 4.07509 -0.32401
v 5.21648 4.28212 -0.30862
v 5.32273 4.03673 -0.25374
v 5.45606 3.80096 -0.36256
v 5.35947 3.78990 -0.30273
v 5.29876 3.77657 -0.16230
v 5.33428 3.52088 -0.34371
v 5.25327 3.52433 -0.19705
v 5.21622 3.53007 -0.00000
v 5.65841 3.50882 -0.20462
v 5.62440 3.81432 -0.17778
v 5.57552 3.51239 -0.35126
v 5.56068 3.81090 -0.31370
v 5.45428 3.51528 -0.39943
v 5.56785 3.22232 -0.37691
v 5.43102 3.23299 -0.42543
v 5.29046 3.24799 -0.36955
v 5.40292 2.95193 -0.44788
v 5.23801 2.97457 -0.38700
v 5.12503 2.99262 -0.21677
v 5.19306 3.26187 -0.21012
v 5.07359 3.00401 -0.00000
v 5.14738 3.27247 -0.00000
v 5.67645 2.92923 -0.21908
v 5.67165 3.21469 -0.21868
v 5.56199 2.93666 -0.38877
v 5.67600 2.64204 -0.22065
v 5.55251 2.65255 -0.39842
v 5.36973 2.67305 -0.46902
v 5.53812 2.36936 -0.40864
v 5.33605 2.39319 -0.48976
v 5.12740 2.42348 -0.41736
v 5.18085 2.70016 -0.40011
v 4.98804 2.44875 -0.23122
v 5.05742 2.72176 -0.22180
v 5.66981 2.35839 -0.22396
v 5.66589 2.07432 -0.23122
v 5.52218 2.08563 -0.42196
v 5.65897 1.78911 -0.23740
v 5.50597 1.80094 -0.43353
v 5.27685 1.82917 -0.52906
v 5.30514 2.11125 -0.50905
v 5.03387 1.86775 -0.45752
v 5.07940 2.14536 -0.43562
v 4.86005 1.90365 -0.25648
v 4.92439 2.17609 -0.24210
v 4.77882 1.92605 -0.00000
v 5.72822 1.78674 -0.00000
v 5.65545 1.50105 -0.24337
v 5.64962 1.21040 -0.24107
v 5.48150 1.22283 -0.44652
v 5.49206 1.51310 -0.44420
v 5.23385 1.25578 -0.56261
v 5.25484 1.54453 -0.54517
v 4.95577 1.31243 -0.50895
v 4.99678 1.58936 -0.48084
v 4.73674 1.36872 -0.28994
v 4.80025 1.63356 -0.27227
v 4.70546 1.65985 -0.00000
v 5.73347 0.89145 -0.00000
v 5.63596 0.54511 -0.24609
v 5.65647 0.90347 -0.23990
v 5.48022 0.61177 -0.44113
v 5.48397 0.92983 -0.44300
v 5.23537 0.68337 -0.56894
v 5.22877 0.96820 -0.56722
v 4.90394 0.77221 -0.55334
v 4.92226 1.03611 -0.53261
v 4.61668 0.84752 -0.33641
v 4.67041 1.10670 -0.31087
v 5.03674 0.00000 -0.00000
v 5.41947 0.18268 -0.26667
v 4.69093 0.10725 -0.00000
v 4.59187 0.59108 -0.35108
v 1.66749 1.93189 -0.00000
v 1.80097 1.66702 -0.00000
v 1.75014 1.96981 -0.26602
v 1.88350 1.70671 -0.26750
v 1.91674 2.04707 -0.48133
v 2.04991 1.78623 -0.48122
v 2.15615 2.15449 -0.56452
v 2.28280 1.89735 -0.56262
v 2.41608 1.64176 -0.55900
v 2.50829 2.00197 -0.46304
v 2.63058 1.74912 -0.45714
v 2.66549 2.06999 -0.25264
v 2.77746 1.82000 -0.24906
v 2.74317 2.10060 -0.00000
v 2.84827 1.85076 -0.00000
v 1.42146 2.50371 -0.00000
v 1.53648 2.20773 -0.00000
v 1.50327 2.52840 -0.26405
v 1.62090 2.24261 -0.26349
v 1.68079 2.58573 -0.47364
v 1.79175 2.31257 -0.47664
v 1.93416 2.67151 -0.55957
v 2.03941 2.41188 -0.56411
v 2.18059 2.75648 -0.46679
v 2.28378 2.50680 -0.46818
v 2.39195 2.25439 -0.46526
v 2.45278 2.57201 -0.25579
v 2.55692 2.32073 -0.25457
v 1.39895 3.13714 -0.24461
v 1.43086 2.83360 -0.25598
v 1.56234 3.16327 -0.44536
v 1.60352 2.87253 -0.46413
v 1.78636 3.21226 -0.53197
v 1.85016 2.93673 -0.55321
v 2.00792 3.26851 -0.45129
v 2.09008 3.00874 -0.46150
v 2.15977 3.31748 -0.24969
v 2.25344 3.06638 -0.25360
v 2.35165 2.82001 -0.25602
v 2.13016 3.60563 -0.00000
v 1.42117 3.69819 -0.21609
v 1.39731 3.42883 -0.23289
v 1.53858 3.72903 -0.39039
v 1.54505 3.44999 -0.42196
v 1.68663 3.77551 -0.46095
v 1.73898 3.49182 -0.50027
v 1.83894 3.82580 -0.41201
v 1.92847 3.53868 -0.43356
v 1.95980 3.86841 -0.23754
v 2.06620 3.58120 -0.24415
v 2.01107 3.88829 -0.00000
v 1.81947 4.18683 -0.00000
v 1.78550 4.16973 -0.22205
v 1.51164 4.40427 -0.18987
v 1.53120 4.41996 -0.00000
v 1.69096 4.11062 -0.37666
v 1.44833 4.33167 -0.34327
v 1.14782 4.45113 -0.30817
v 1.17258 4.51854 -0.16282
v 1.57945 4.04478 -0.41150
v 1.38401 4.24617 -0.37048
v 1.12242 4.35109 -0.34339
v 0.84062 4.36090 -0.32562
v 0.82665 4.45934 -0.28306
v 1.32678 4.16676 -0.29936
v 1.10411 4.26552 -0.27190
v 0.85510 4.27900 -0.25143
v 0.62385 4.19577 -0.23975
v 0.58368 4.25701 -0.31870
v 1.09569 4.22221 -0.13085
v 0.86359 4.24113 -0.11866
v 0.63988 4.17073 -0.11380
v 0.47856 3.99646 -0.11782
v 0.45438 4.01651 -0.24474
v 0.64303 4.16564 -0.00000
v 0.40973 3.75754 -0.00000
v 0.40102 3.76306 -0.13058
v 0.41856 3.50397 -0.00000
v 0.44529 3.25161 -0.18949
v 0.39799 3.50906 -0.15742
v 0.35912 3.24790 -0.34827
v 0.33289 3.51911 -0.30180
v 0.35918 3.78022 -0.26121
v 0.24124 3.52693 -0.37139
v 0.27846 3.80601 -0.33609
v 0.38911 4.06156 -0.31943
v 0.18446 3.82803 -0.28981
v 0.30338 4.11603 -0.27607
v 0.52609 4.34459 -0.27725
v 0.26359 4.13986 -0.14655
v 0.49923 4.38845 -0.14683
v 0.82281 4.51167 -0.15114
v 0.49465 4.39741 -0.00000
v 1.18085 4.53230 -0.00000
v 1.29635 4.11818 -0.15325
v 1.40527 3.92836 -0.18674
v 1.47650 3.98259 -0.34459
v 0.66375 2.74791 -0.00000
v 0.56310 3.00687 -0.00000
v 0.61351 2.73430 -0.22097
v 0.52244 2.99501 -0.20872
v 0.49278 2.70571 -0.40465
v 0.41410 2.97628 -0.38328
v 0.34161 2.67540 -0.46426
v 0.29084 2.95767 -0.43585
v 0.25302 3.24222 -0.40679
v 0.16506 2.93886 -0.38971
v 0.14124 3.23161 -0.36302
v 0.14110 3.52840 -0.32308
v 0.04870 3.21962 -0.20132
v 0.06966 3.52560 -0.17497
v 0.13323 3.83551 -0.15494
v 0.25478 4.14665 -0.00000
v 0.00146 2.91813 -0.00000
v 0.86795 2.22439 -0.00000
v 0.76559 2.48541 -0.00000
v 0.80038 2.20035 -0.24347
v 0.70667 2.46612 -0.23232
v 0.65411 2.16064 -0.43935
v 0.57484 2.43450 -0.41971
v 0.44698 2.11757 -0.51926
v 0.39412 2.39813 -0.49230
v 0.23808 2.07911 -0.43928
v 0.21123 2.36465 -0.42188
v 0.18820 2.65018 -0.40665
v 0.07095 2.34426 -0.23470
v 0.06066 2.63184 -0.22754
v 0.05242 2.92149 -0.21780
v 0.00000 2.62786 -0.00000
v 1.07205 1.70883 -0.00000
v 0.96973 1.96441 -0.00000
v 0.98543 1.67455 -0.26523
v 0.89160 1.93579 -0.25408
v 0.80605 1.61537 -0.47903
v 0.73143 1.88731 -0.45947
v 0.55189 1.55495 -0.57067
v 0.49922 1.83502 -0.54761
v 0.29210 1.50620 -0.48060
v 0.26355 1.79261 -0.46017
v 0.10381 1.48221 -0.26522
v 0.09392 1.77371 -0.25356
v 0.08315 2.05888 -0.24365
v 1.17127 1.16214 -0.27459
v 1.07860 1.41756 -0.27232
v 0.95721 1.08527 -0.50674
v 0.88318 1.34636 -0.49756
v 0.66033 0.99806 -0.60609
v 0.60558 1.27336 -0.59170
v 0.36343 0.92894 -0.51655
v 0.32595 1.21941 -0.49844
v 0.14919 0.88462 -0.28785
v 0.12273 1.18850 -0.27574
v 0.12041 0.54044 -0.00000
v 0.20221 0.57043 -0.29259
v 0.29606 0.21765 -0.00000
v 0.42569 0.63639 -0.52269
v 0.73109 0.72895 -0.60854
v 1.03684 0.83735 -0.50742
v 1.26257 0.91148 -0.27519
v 1.03145 0.02595 -0.00000
v 0.62984 0.02157 -0.00000
v 2.91965 0.01095 -0.00000
v 2.65801 0.14828 -0.00000
v 2.47980 0.37476 -0.00000
v 3.06049 1.37962 -0.00000
v 3.70872 0.90848 -0.00000
v 3.53325 2.10233 -0.00000
v 3.97682 1.77968 -0.00000
v 3.80482 1.20648 -0.00000
v 3.45332 2.66881 -0.00000
v 3.49295 2.37794 -0.00000
v 4.05628 2.05363 -0.00000
v 4.49690 3.54242 -0.00000
v 4.21389 4.43905 -0.00000
v 3.88567 4.26028 -0.00000
v 4.56697 3.75827 -0.00000
v 4.74821 4.12528 -0.00000
v 4.93942 4.22916 -0.00000
v 5.28123 4.00611 -0.00000
v 5.52871 4.13297 -0.00000
v 5.27673 3.76879 -0.00000
v 5.69509 3.50656 -0.00000
v 5.64649 3.81283 -0.00000
v 5.72797 2.92718 -0.00000
v 5.71859 3.21471 -0.00000
v 4.92475 2.46516 -0.00000
v 5.00006 2.73546 -0.00000
v 5.72866 2.35554 -0.00000
v 5.73055 2.63942 -0.00000
v 5.72932 2.07162 -0.00000
v 4.85217 2.19462 -0.00000
v 5.72935 1.49919 -0.00000
v 5.72700 1.20741 -0.00000
v 4.63083 1.39932 -0.00000
v 5.70129 0.51564 -0.00000
v 4.48325 0.87592 -0.00000
v 4.55347 1.13911 -0.00000
v 5.45547 0.12582 -0.00000
v 4.51955 0.32740 -0.00000
v 4.45730 0.60850 -0.00000
v 2.53362 2.60253 -0.00000
v 2.63789 2.35188 -0.00000
v 1.32265 3.13034 -0.00000
v 1.35069 2.81825 -0.00000
v 2.33115 3.09720 -0.00000
v 2.43153 2.85130 -0.00000
v 2.23132 3.34582 -0.00000
v 1.37129 3.69231 -0.00000
v 1.33290 3.42782 -0.00000
v 0.86465 4.23550 -0.00000
v 0.48212 3.99247 -0.00000
v 0.47641 3.25744 -0.00000
v 0.82327 4.52336 -0.00000
v 1.29023 4.10819 -0.00000
v 1.38050 3.91362 -0.00000
v 1.09467 4.21489 -0.00000
v 0.04361 3.52386 -0.00000
v 0.11735 3.83827 -0.00000
v 0.01059 3.21664 -0.00000
v 0.00323 2.34063 -0.00000
v 0.00929 1.77041 -0.00000
v 0.00662 2.05539 -0.00000
v 0.01156 1.47683 -0.00000
v 1.27403 1.19976 -0.00000
v 1.17352 1.45497 -0.00000
v 0.05133 0.86617 -0.00000
v 0.02332 1.17657 -0.00000
v 1.36596 0.93713 -0.00000
v 1.41967 0.64001 -0.00000
v 1.35066 0.28114 -0.00000
v 0.68838 0.20670 0.43785
v 1.16831 0.39271 0.43586
v 3.15891 1.06340 0.37918
v 2.94061 0.07763 0.27774
v 0.64439 0.08121 0.27688
v 0.35242 0.26593 0.28552
v 0.54013 0.36600 0.49323
v 0.95268 0.25374 0.47226
v 1.01421 0.08473 0.28105
v 0.83530 0.47725 0.58262
v 1.12727 0.59741 0.48310
v 1.33343 0.64541 0.26980
v 1.29317 0.32893 0.28372
v 5.20094 0.45941 0.55371
v 5.33829 0.30700 0.44216
v 4.97488 0.25124 0.48304
v 4.91511 0.51321 0.55661
v 4.73596 0.14042 0.25961
v 4.63619 0.33244 0.33829
v 5.02546 0.06589 0.28455
v 3.20297 1.17728 0.19155
v 3.41152 1.16717 0.17389
v 3.44028 1.12709 0.30236
v 3.30389 0.87000 0.44619
v 3.07693 0.69433 0.53407
v 2.89604 0.88314 0.54335
v 3.51680 1.04072 0.37675
v 3.18529 0.14368 0.31495
v 2.75557 0.21229 0.32899
v 3.01267 0.32670 0.48099
v 2.83885 0.53664 0.51959
v 3.25357 0.50927 0.47992
v 3.42012 0.37487 0.29897
v 2.58627 0.42661 0.31919
v 2.44190 0.66366 0.29845
v 2.65555 0.75631 0.51154
v 2.29284 0.91999 0.28302
v 2.01922 1.44688 0.26783
v 2.15404 1.18574 0.27162
v 2.18698 1.52857 0.47935
v 2.32659 1.27140 0.47927
v 2.47690 1.01059 0.49244
v 2.55225 1.38430 0.54983
v 2.70208 1.12893 0.54292
v 2.75802 1.49662 0.44446
v 2.90838 1.27025 0.41023
v 2.89420 1.57654 0.23987
v 3.01981 1.35215 0.21799
v 3.55328 1.31877 0.16007
v 3.59668 1.55654 0.15704
v 3.64364 1.54635 0.28895
v 3.58539 1.30266 0.28023
v 3.72611 1.52979 0.34850
v 3.65502 1.27266 0.34152
v 3.81409 1.51303 0.30242
v 3.72988 1.24065 0.30301
v 3.60540 0.97453 0.34904
v 3.78088 1.21721 0.17252
v 3.67288 0.93072 0.21080
v 3.55470 0.64220 0.26249
v 3.43455 0.72346 0.42282
v 3.57516 2.10410 0.20702
v 3.59389 1.82826 0.18022
v 3.66837 2.09705 0.36516
v 3.66089 1.81595 0.32572
v 3.78558 2.08545 0.41649
v 3.76086 1.80378 0.38245
v 3.90781 2.07448 0.37018
v 3.86645 1.79263 0.33499
v 4.01196 2.06417 0.20558
v 3.94489 1.78537 0.18464
v 3.87101 1.50203 0.16640
v 3.51102 2.67110 0.22573
v 3.54330 2.38082 0.21808
v 3.63982 2.66886 0.40701
v 3.65674 2.38101 0.38910
v 3.83018 2.65446 0.47405
v 3.80535 2.37333 0.44619
v 4.01817 2.62632 0.40369
v 3.95779 2.35449 0.39182
v 4.14764 2.59879 0.22304
v 4.07946 2.33349 0.21643
v 3.48460 3.28943 0.25198
v 3.48438 2.97306 0.23890
v 3.65446 3.26020 0.44949
v 3.63528 2.96028 0.42892
v 3.89906 3.21111 0.51438
v 3.85917 2.93239 0.49776
v 4.13235 3.15190 0.42902
v 4.07573 2.89341 0.41932
v 4.28530 3.10515 0.23340
v 4.21914 2.85775 0.23001
v 3.68743 3.94659 0.25957
v 3.54834 3.62157 0.25813
v 3.84335 3.85665 0.45199
v 3.71841 3.56316 0.45721
v 4.06856 3.73542 0.50764
v 3.96581 3.48117 0.52161
v 4.28535 3.63063 0.42307
v 4.20246 3.39744 0.43326
v 4.42960 3.56851 0.23229
v 4.35591 3.34214 0.23460
v 4.24244 4.40102 0.22752
v 3.92747 4.21930 0.25045
v 4.32135 4.29580 0.39706
v 4.04664 4.10441 0.43525
v 4.41705 4.17628 0.44149
v 4.21465 3.96757 0.48505
v 4.52435 4.07137 0.37202
v 4.38790 3.85418 0.40667
v 4.60555 3.98581 0.20449
v 4.50906 3.78625 0.22491
v 4.74230 4.14747 0.16747
v 4.94827 4.50706 0.16208
v 4.59112 4.49722 0.19122
v 4.95510 4.45430 0.28866
v 4.63104 4.42120 0.34146
v 4.95656 4.36533 0.32886
v 4.67702 4.32289 0.38387
v 4.94969 4.28164 0.25629
v 4.71767 4.22555 0.31558
v 4.94241 4.23778 0.13590
v 5.17680 4.22086 0.23377
v 5.15828 4.19363 0.12275
v 5.28837 4.01216 0.13029
v 5.51662 4.12908 0.15571
v 5.28399 4.39010 0.15090
v 5.47364 4.11137 0.27615
v 5.26154 4.35209 0.26881
v 5.39219 4.07509 0.32401
v 5.21648 4.28212 0.30862
v 5.32273 4.03673 0.25374
v 5.45606 3.80096 0.36256
v 5.35947 3.78990 0.30273
v 5.29876 3.77657 0.16230
v 5.33428 3.52088 0.34371
v 5.25327 3.52433 0.19705
v 5.65841 3.50882 0.20462
v 5.62440 3.81432 0.17778
v 5.57552 3.51239 0.35126
v 5.56068 3.81090 0.31370
v 5.45428 3.51528 0.39943
v 5.56785 3.22232 0.37691
v 5.43102 3.23299 0.42543
v 5.29046 3.24799 0.36955
v 5.40292 2.95193 0.44788
v 5.23801 2.97457 0.38700
v 5.12503 2.99262 0.21677
v 5.19306 3.26187 0.21012
v 5.67645 2.92923 0.21908
v 5.67165 3.21469 0.21868
v 5.56199 2.93666 0.38877
v 5.67600 2.64204 0.22065
v 5.55251 2.65255 0.39842
v 5.36973 2.67305 0.46902
v 5.53812 2.36936 0.40864
v 5.33605 2.39319 0.48976
v 5.12740 2.42348 0.41736
v 5.18085 2.70016 0.40011
v 4.98804 2.44875 0.23122
v 5.05742 2.72176 0.22180
v 5.66981 2.35839 0.22396
v 5.66589 2.07432 0.23122
v 5.52218 2.08563 0.42196
v 5.65897 1.78911 0.23740
v 5.50597 1.80094 0.43353
v 5.27685 1.82917 0.52906
v 5.30514 2.11125 0.50905
v 5.03387 1.86775 0.45752
v 5.07940 2.14536 0.43562
v 4.86005 1.90365 0.25648
v 4.92439 2.17609 0.24210
v 5.65545 1.50105 0.24337
v 5.64962 1.21040 0.24107
v 5.48150 1.22283 0.44652
v 5.49206 1.51310 0.44420
v 5.23385 1.25578 0.56261
v 5.25484 1.54453 0.54517
v 4.95577 1.31243 0.50895
v 4.99678 1.58936 0.48084
v 4.73674 1.36872 0.28994
v 4.80025 1.63356 0.27227
v 5.63596 0.54511 0.24609
v 5.65647 0.90347 0.23990
v 5.48022 0.61177 0.44113
v 5.48397 0.92983 0.44300
v 5.23537 0.68337 0.56894
v 5.22877 0.96820 0.56722
v 4.90394 0.77221 0.55334
v 4.92226 1.03611 0.53261
v 4.61668 0.84752 0.33641
v 4.67041 1.10670 0.31087
v 5.41947 0.18268 0.26667
v 4.59187 0.59108 0.35108
v 1.75014 1.96981 0.26602
v 1.88350 1.70671 0.26750
v 1.91674 2.04707 0.48133
v 2.04991 1.78623 0.48122
v 2.15615 2.15449 0.56452
v 2.28280 1.89735 0.56262
v 2.41608 1.64176 0.55900
v 2.50829 2.00197 0.46304
v 2.63058 1.74912 0.45714
v 2.66549 2.06999 0.25264
v 2.77746 1.82000 0.24906
v 1.50327 2.52840 0.26405
v 1.62090 2.24261 0.26349
v 1.68079 2.58573 0.47364
v 1.79175 2.31257 0.47664
v 1.93416 2.67151 0.55957
v 2.03941 2.41188 0.56411
v 2.18059 2.75648 0.46679
v 2.28378 2.50680 0.46818
v 2.39195 2.25439 0.46526
v 2.45278 2.57201 0.25579
v 2.55692 2.32073 0.25457
v 1.39895 3.13714 0.24461
v 1.43086 2.83360 0.25598
v 1.56234 3.16327 0.44536
v 1.60352 2.87253 0.46413
v 1.78636 3.21226 0.53197
v 1.85016 2.93673 0.55321
v 2.00792 3.26851 0.45129
v 2.09008 3.00874 0.46150
v 2.15977 3.31748 0.24969
v 2.25344 3.06638 0.25360
v 2.35165 2.82001 0.25602
v 1.42117 3.69819 0.21609
v 1.39731 3.42883 0.23289
v 1.53858 3.72903 0.39039
v 1.54505 3.44999 0.42196
v 1.68663 3.77551 0.46095
v 1.73898 3.49182 0.50027
v 1.83894 3.82580 0.41201
v 1.92847 3.53868 0.43356
v 1.95980 3.86841 0.23754
v 2.06620 3.58120 0.24415
v 1.78550 4.16973 0.22205
v 1.51164 4.40427 0.18987
v 1.69096 4.11062 0.37666
v 1.44833 4.33167 0.34327
v 1.14782 4.45113 0.30817
v 1.17258 4.51854 0.16282
v 1.57945 4.04478 0.41150
v 1.38401 4.24617 0.37048
v 1.12242 4.35109 0.34339
v 0.84062 4.36090 0.32562
v 0.82665 4.45934 0.28306
v 1.32678 4.16676 0.29936
v 1.10411 4.26552 0.27190
v 0.85510 4.27900 0.25143
v 0.62385 4.19577 0.23975
v 0.58368 4.25701 0.31870
v 1.09569 4.22221 0.13085
v 0.86359 4.24113 0.11866
v 0.63988 4.17073 0.11380
v 0.47856 3.99646 0.11782
v 0.45438 4.01651 0.24474
v 0.40102 3.76306 0.13058
v 0.44529 3.25161 0.18949
v 0.39799 3.50906 0.15742
v 0.35912 3.24790 0.34827
v 0.33289 3.51911 0.30180
v 0.35918 3.78022 0.26121
v 0.24124 3.52693 0.37139
v 0.27846 3.80601 0.33609
v 0.38911 4.06156 0.31943
v 0.18446 3.82803 0.28981
v 0.30338 4.11603 0.27607
v 0.52609 4.34459 0.27725
v 0.26359 4.13986 0.14655
v 0.49923 4.38845 0.14683
v 0.82281 4.51167 0.15114
v 1.29635 4.11818 0.15325
v 1.40527 3.92836 0.18674
v 1.47650 3.98259 0.34459
v 0.61351 2.73430 0.22097
v 0.52244 2.99501 0.20872
v 0.49278 2.70571 0.40465
v 0.41410 2.97628 0.38328
v 0.34161 2.67540 0.46426
v 0.29084 2.95767 0.43585
v 0.25302 3.24222 0.40679
v 0.16506 2.93886 0.38971
v 0.14124 3.23161 0.36302
v 0.14110 3.52840 0.32308
v 0.04870 3.21962 0.20132
v 0.06966 3.52560 0.17497
v 0.13323 3.83551 0.15494
v 0.80038 2.20035 0.24347
v 0.70667 2.46612 0.23232
v 0.65411 2.16064 0.43935
v 0.57484 2.43450 0.41971
v 0.44698 2.11757 0.51926
v 0.39412 2.39813 0.49230
v 0.23808 2.07911 0.43928
v 0.21123 2.36465 0.42188
v 0.18820 2.65018 0.40665
v 0.07095 2.34426 0.23470
v 0.06066 2.63184 0.22754
v 0.05242 2.92149 0.21780
v 0.98543 1.67455 0.26523
v 0.89160 1.93579 0.25408
v 0.80605 1.61537 0.47903
v 0.73143 1.88731 0.45947
v 0.55189 1.55495 0.57067
v 0.49922 1.83502 0.54761
v 0.29210 1.50620 0.48060
v 0.26355 1.79261 0.46017
v 0.10381 1.48221 0.26522
v 0.09392 1.77371 0.25356
v 0.08315 2.05888 0.24365
v 1.17127 1.16214 0.27459
v 1.07860 1.41756 0.27232
v 0.95721 1.08527 0.50674
v 0.88318 1.34636 0.49756
v 0.66033 0.99806 0.60609
v 0.60558 1.27336 0.59170
v 0.36343 0.92894 0.51655
v 0.32595 1.21941 0.49844
v 0.14919 0.88462 0.28785
v 0.12273 1.18850 0.27574
v 0.20221 0.57043 0.29259
v 0.42569 0.63639 0.52269
v 0.73109 0.72895 0.60854
v 1.03684 0.83735 0.50742
v 1.26257 0.91148 0.27519
vn -0.15913 -0.63731 -0.75400
vn -0.23576 -0.85903 -0.45441
vn -0.63645 -0.59732 -0.48800
vn -0.34707 -0.41611 -0.84047
vn 0.20814 -0.52424 -0.82575
vn 0.31143 -0.82989 -0.46291
vn 0.09349 -0.20615 -0.97404
vn 0.55230 -0.28167 -0.78462
vn 0.53926 -0.00615 -0.84212
vn 0.85941 0.05298 -0.50854
vn 0.76968 -0.40925 -0.49001
vn 0.15249 -0.22934 -0.96133
vn 0.36523 -0.45180 -0.81393
vn -0.15395 -0.53573 -0.83024
vn -0.28413 -0.18180 -0.94139
vn -0.49399 -0.76073 -0.42102
vn -0.68535 -0.43387 -0.58485
vn -0.02357 -0.86859 -0.49498
vn 0.25603 0.56686 -0.78302
vn 0.04600 0.96391 -0.26222
vn -0.31292 0.68507 -0.65784
vn 0.20430 0.23835 -0.94945
vn 0.13792 0.03975 -0.98965
vn 0.10090 0.12824 -0.98660
vn 0.05856 0.25307 -0.96567
vn 0.20108 -0.95182 -0.23152
vn 0.34494 -0.72909 -0.59114
vn 0.48311 -0.87556 0.00122
vn 0.20482 -0.97880 0.00275
vn -0.06355 -0.56614 -0.82185
vn -0.46101 -0.64153 -0.61311
vn 0.00688 -0.41071 -0.91174
vn -0.48681 -0.83192 -0.26632
vn -0.50088 -0.86551 0.00385
vn -0.65554 -0.75515 0.00192
vn -0.24079 -0.24706 -0.93861
vn 0.37112 -0.21983 -0.90219
vn 0.69695 -0.47611 -0.53627
vn -0.65365 -0.46304 -0.59861
vn -0.71700 -0.41203 -0.56227
vn -0.35341 -0.21124 -0.91130
vn -0.83030 -0.55731 -0.00006
vn -0.81846 -0.45863 -0.34610
vn -0.88544 -0.46474 -0.00001
vn -0.74747 -0.39392 -0.53489
vn -0.89225 -0.45155 0.00000
vn -0.89004 -0.45587 0.00000
vn -0.76514 -0.39662 -0.50720
vn -0.76226 -0.38729 -0.51862
vn -0.47463 -0.25749 -0.84168
vn -0.45652 -0.23993 -0.85675
vn -0.41887 -0.21919 -0.88120
vn 0.08776 0.01883 -0.99596
vn 0.11129 0.07753 -0.99076
vn 0.57060 0.26227 -0.77822
vn 0.53965 0.36860 -0.75691
vn 0.80951 0.38726 -0.44127
vn 0.74583 0.53163 -0.40139
vn 0.67017 0.64478 -0.36761
vn 0.90328 0.42906 -0.00005
vn 0.81859 0.57438 0.00066
vn 0.72692 0.68672 0.00155
vn 0.08548 0.99634 -0.00098
vn -0.72140 0.69252 -0.00018
vn -0.89384 0.44838 -0.00021
vn -0.87413 0.44422 -0.19639
vn -0.71360 0.67435 -0.18981
vn -0.99805 0.06242 -0.00008
vn -0.97274 0.07644 -0.21892
vn -0.78964 0.06546 -0.61007
vn -0.71241 0.37267 -0.59464
vn -0.57251 0.03623 -0.81910
vn -0.52022 0.27851 -0.80734
vn 0.39478 -0.09107 -0.91425
vn 0.41637 -0.15407 -0.89604
vn 0.68732 -0.21640 -0.69337
vn 0.33039 0.00796 -0.94381
vn 0.80874 -0.28811 -0.51278
vn 0.86456 -0.27945 -0.41766
vn 0.91070 -0.29409 -0.29008
vn 0.88204 -0.30812 -0.35646
vn 0.82848 -0.33577 -0.44820
vn 0.52322 -0.12321 -0.84324
vn 0.94532 -0.32614 -0.00001
vn 0.92841 -0.37155 0.00020
vn 0.82907 -0.55914 -0.00009
vn -0.99738 -0.07236 0.00023
vn -0.99289 -0.11906 0.00020
vn -0.93236 -0.10318 -0.34650
vn -0.95720 -0.05894 -0.28336
vn -0.67431 -0.09005 -0.73294
vn -0.73835 -0.06213 -0.67155
vn -0.41917 -0.08536 -0.90389
vn -0.50033 -0.07340 -0.86272
vn 0.38734 -0.16374 -0.90728
vn 0.34784 -0.14034 -0.92699
vn 0.61761 -0.18377 -0.76472
vn 0.65885 -0.20466 -0.72390
vn 0.89651 -0.23659 -0.37457
vn 0.91431 -0.24587 -0.32183
vn 0.92099 -0.26924 -0.28157
vn 0.96352 -0.26762 -0.00002
vn 0.95886 -0.28387 0.00004
vn 0.95148 -0.30771 -0.00005
vn -0.99153 -0.12987 -0.00002
vn -0.99332 -0.11537 0.00000
vn -0.90207 -0.10046 -0.41973
vn -0.91370 -0.11318 -0.39032
vn -0.59912 -0.07945 -0.79671
vn -0.62880 -0.09012 -0.77233
vn -0.00384 -0.09804 -0.99518
vn -0.01995 -0.10533 -0.99424
vn 0.57602 -0.17256 -0.79902
vn 0.58989 -0.17263 -0.78881
vn 0.86578 -0.24086 -0.43865
vn 0.87922 -0.23609 -0.41381
vn 0.96213 -0.27259 -0.00000
vn 0.96408 -0.26562 -0.00003
vn 0.96450 -0.26409 -0.00004
vn -0.99832 -0.05793 0.00001
vn -0.99622 0.08682 -0.00001
vn -0.87964 0.07459 -0.46975
vn -0.89314 -0.05067 -0.44691
vn -0.53319 0.03180 -0.84540
vn -0.56763 -0.04734 -0.82192
vn 0.02899 -0.05519 -0.99805
vn 0.01263 -0.08360 -0.99642
vn 0.55409 -0.16400 -0.81614
vn 0.56470 -0.16601 -0.80843
vn 0.84716 -0.24317 -0.47242
vn 0.85604 -0.23943 -0.45811
vn 0.96021 -0.27928 0.00000
vn 0.96143 -0.27507 0.00002
vn -0.95552 0.29494 0.00012
vn -0.83977 0.54295 0.00006
vn -0.73726 0.47709 -0.47837
vn -0.83875 0.25656 -0.48029
vn -0.41031 0.28714 -0.86556
vn -0.48701 0.15100 -0.86025
vn 0.08456 0.03100 -0.99594
vn 0.05262 -0.00907 -0.99857
vn 0.55437 -0.17780 -0.81306
vn 0.55064 -0.16608 -0.81805
vn 0.83798 -0.28037 -0.46816
vn 0.84002 -0.25941 -0.47651
vn 0.95015 -0.31179 -0.00007
vn 0.95557 -0.29475 0.00001
vn -0.62126 0.78360 -0.00003
vn -0.36273 0.93190 -0.00002
vn -0.32890 0.85658 -0.39762
vn -0.55011 0.70067 -0.45436
vn -0.16816 0.57043 -0.80395
vn -0.29818 0.43366 -0.85031
vn 0.19566 0.06125 -0.97876
vn 0.13329 0.05935 -0.98930
vn 0.57559 -0.34127 -0.74312
vn 0.57300 -0.21897 -0.78976
vn 0.79784 -0.46909 -0.37868
vn 0.83848 -0.32602 -0.43665
vn 0.87452 -0.48499 -0.00015
vn 0.93691 -0.34958 0.00062
vn 0.59637 -0.74530 -0.29812
vn 0.64878 -0.76097 -0.00106
vn -0.12340 0.99236 0.00008
vn 0.16536 0.98623 0.00009
vn 0.16215 0.95593 -0.24476
vn -0.11550 0.94200 -0.31511
vn 0.15632 0.90818 -0.38830
vn -0.02520 0.67264 -0.73954
vn 0.15153 0.41084 -0.89903
vn 0.05728 0.39969 -0.91486
vn 0.35284 -0.43434 -0.82877
vn 0.07690 -0.63930 -0.76510
vn 0.08875 -0.80674 -0.58420
vn 0.45764 -0.59034 -0.66488
vn 0.11609 -0.96776 -0.22354
vn -0.45539 -0.69889 -0.55151
vn -0.19522 -0.96343 -0.18357
vn -0.19160 -0.98147 0.00005
vn 0.13645 -0.99065 -0.00020
vn -0.81724 -0.57630 0.00003
vn -0.80048 -0.57174 -0.17985
vn -0.92781 -0.30930 -0.20859
vn -0.95218 -0.30554 0.00008
vn 0.55699 0.83052 -0.00006
vn 0.85900 0.51197 0.00007
vn 0.83565 0.49904 -0.22948
vn 0.54456 0.81013 -0.21712
vn 0.79780 0.47776 -0.36779
vn 0.52281 0.77598 -0.35288
vn 0.26425 0.36714 -0.89184
vn 0.37060 0.27912 -0.88586
vn -0.36737 -0.56233 -0.74083
vn -0.61426 -0.19985 -0.76337
vn -0.77894 -0.26394 -0.56884
vn -0.55459 0.08145 -0.82813
vn -0.76911 0.08140 -0.63391
vn -0.96169 0.09197 -0.25827
vn -0.67988 0.17470 -0.71221
vn -0.92138 0.21358 -0.32470
vn -0.97226 0.23390 -0.00039
vn -0.99411 0.10833 -0.00037
vn 0.97065 0.24049 0.00006
vn 0.99458 0.10396 -0.00005
vn 0.93802 0.09353 -0.33373
vn 0.93306 0.23085 -0.27588
vn 0.65734 0.09352 -0.74777
vn 0.67932 0.20824 -0.70368
vn 0.37192 0.09497 -0.92339
vn 0.39848 0.17468 -0.90039
vn 0.62896 0.04053 -0.77638
vn 0.34906 0.05053 -0.93574
vn -0.42951 0.13955 -0.89222
vn -0.36322 0.12421 -0.92339
vn -0.62748 0.17212 -0.75937
vn -0.33576 0.11470 -0.93494
vn -0.60106 0.16712 -0.78153
vn -0.88697 0.22977 -0.40061
vn -0.89974 0.22764 -0.37235
vn -0.96653 0.25655 0.00001
vn -0.96779 0.25174 0.00005
vn 0.99893 0.04615 -0.00005
vn 0.99989 0.01463 -0.00002
vn 0.91660 0.00905 -0.39970
vn 0.92542 0.03621 -0.37720
vn 0.61905 0.01771 -0.78515
vn 0.91093 -0.00700 -0.41251
vn 0.61883 0.00635 -0.78550
vn 0.36236 0.02187 -0.93178
vn 0.35012 0.03017 -0.93622
vn 0.61630 0.00516 -0.78750
vn 0.03245 0.06992 -0.99702
vn -0.32349 0.11281 -0.93948
vn -0.56593 0.15964 -0.80885
vn -0.58401 0.16521 -0.79476
vn -0.86615 0.22438 -0.44658
vn -0.87645 0.22989 -0.42308
vn -0.96685 0.25533 -0.00001
vn -0.96599 0.25857 -0.00000
vn 0.99999 -0.00418 0.00000
vn 0.99997 -0.00755 -0.00000
vn 0.90481 -0.00945 -0.42571
vn 0.99998 -0.00664 -0.00001
vn 0.89759 -0.00835 -0.44076
vn 0.61092 0.00622 -0.79167
vn 0.89007 -0.00785 -0.45575
vn 0.60628 0.00541 -0.79523
vn 0.06495 0.06403 -0.99583
vn 0.04619 0.06856 -0.99658
vn -0.51489 0.14759 -0.84446
vn -0.54300 0.15427 -0.82544
vn -0.83948 0.21560 -0.49879
vn -0.85411 0.21881 -0.47183
vn -0.96758 0.25257 -0.00001
vn -0.96781 0.25170 -0.00001
vn 0.99998 -0.00603 -0.00000
vn 0.99997 -0.00816 0.00001
vn 0.88339 -0.01099 -0.46850
vn 1.00000 0.00273 0.00000
vn 0.87848 -0.00251 -0.47778
vn 0.61092 -0.00173 -0.79169
vn 0.60628 -0.00017 -0.79525
vn 0.13241 0.04427 -0.99021
vn 0.09382 0.05810 -0.99389
vn -0.43384 0.13949 -0.89013
vn -0.47870 0.14574 -0.86580
vn -0.80210 0.22672 -0.55249
vn -0.82188 0.21799 -0.52630
vn -0.89995 0.25509 -0.35358
vn -0.96608 0.25823 -0.00001
vn 0.99971 -0.02411 0.00028
vn 0.95301 -0.30294 -0.00036
vn 0.84781 -0.24553 -0.47003
vn 0.87904 -0.01580 -0.47649
vn 0.60810 -0.13934 -0.78153
vn 0.61884 -0.00333 -0.78551
vn 0.20916 -0.03987 -0.97707
vn 0.17590 0.02754 -0.98402
vn -0.32820 0.05356 -0.94309
vn -0.38003 0.11405 -0.91792
vn -0.77902 0.13623 -0.61202
vn -0.78498 0.21297 -0.58177
vn -0.91445 0.16591 -0.36913
vn -0.89807 0.24614 -0.36453
vn 0.29095 -0.95674 0.00015
vn 0.00401 -0.99999 0.00106
vn 0.55075 -0.68043 -0.48342
vn 0.85550 -0.51781 -0.00125
vn -0.57855 -0.81564 -0.00076
vn -0.91610 -0.40095 -0.00195
vn -0.99883 -0.04837 -0.00015
vn -0.77451 -0.07588 -0.62799
vn -0.89088 -0.45424 0.00000
vn -0.89857 -0.43883 0.00001
vn -0.78062 -0.37925 -0.49679
vn -0.77087 -0.39584 -0.49907
vn -0.49808 -0.23883 -0.83359
vn -0.48654 -0.25512 -0.83558
vn 0.02866 0.00808 -0.99956
vn 0.04039 0.00612 -0.99917
vn 0.05725 0.00400 -0.99835
vn 0.54189 0.24241 -0.80473
vn 0.55526 0.24708 -0.79412
vn 0.80466 0.35039 -0.47932
vn 0.80932 0.36054 -0.46369
vn 0.91928 0.39360 -0.00002
vn 0.91520 0.40300 0.00006
vn -0.91667 -0.39965 0.00008
vn -0.95481 -0.29721 0.00006
vn -0.82914 -0.25877 -0.49554
vn -0.79553 -0.34541 -0.49782
vn -0.52822 -0.16014 -0.83387
vn -0.50833 -0.21393 -0.83416
vn 0.00622 0.02569 -0.99965
vn 0.01664 0.01345 -0.99977
vn 0.52680 0.21554 -0.82221
vn 0.52739 0.22155 -0.82023
vn 0.53394 0.23014 -0.81360
vn 0.80404 0.33157 -0.49354
vn 0.80321 0.33947 -0.48951
vn 0.92473 0.38063 0.00000
vn 0.92217 0.38679 0.00000
vn -0.98769 -0.15646 -0.00000
vn -0.99938 -0.03532 -0.00006
vn -0.88191 -0.02976 -0.47047
vn -0.86372 -0.13448 -0.48571
vn -0.58875 -0.00040 -0.80832
vn -0.56129 -0.07581 -0.82414
vn -0.03084 0.09090 -0.99538
vn -0.00941 0.05409 -0.99849
vn 0.54156 0.21577 -0.81250
vn 0.53510 0.21103 -0.81801
vn 0.82899 0.31013 -0.46540
vn 0.81593 0.31806 -0.48280
vn 0.80675 0.32676 -0.49232
vn 0.92927 0.36940 -0.00000
vn 0.92621 0.37701 0.00000
vn 0.93399 0.35730 -0.00001
vn -0.99738 0.07240 -0.00018
vn -0.99817 0.06055 0.00055
vn -0.92414 0.03620 -0.38035
vn -0.89613 0.05788 -0.44001
vn -0.67183 0.02484 -0.74029
vn -0.61724 0.05285 -0.78500
vn -0.45428 0.03714 -0.89008
vn -0.05908 0.11657 -0.99142
vn 0.23215 0.20252 -0.95136
vn 0.50164 0.29521 -0.81315
vn 0.53915 0.22842 -0.81064
vn 0.81311 0.40678 -0.41640
vn 0.83798 0.31799 -0.44348
vn 0.89325 0.44955 0.00010
vn 0.93257 0.36099 -0.00002
vn 0.69154 0.61435 -0.37994
vn 0.75294 0.65809 0.00005
vn 0.44405 0.83411 -0.32721
vn 0.47968 0.87744 -0.00010
vn 0.39982 0.42741 -0.81084
vn 0.39350 0.76151 -0.51504
vn 0.12226 0.89058 -0.43808
vn 0.13513 0.95333 -0.26999
vn 0.06064 0.29276 -0.95426
vn 0.14708 0.25553 -0.95555
vn -0.01748 0.33895 -0.94064
vn -0.10810 0.36126 -0.92618
vn -0.20039 -0.59884 -0.77539
vn -0.40845 -0.39823 -0.82133
vn -0.54217 -0.55530 -0.63063
vn -0.24309 -0.78677 -0.56736
vn 0.09541 -0.84466 -0.52674
vn 0.07298 -0.66937 -0.73934
vn 0.46791 -0.72821 -0.50077
vn 0.37992 -0.58950 -0.71285
vn -0.27797 -0.94226 -0.18679
vn 0.11033 -0.98048 -0.16274
vn 0.53103 -0.83393 -0.15025
vn 0.84962 -0.50335 -0.15744
vn 0.73493 -0.44602 -0.51082
vn 0.10874 -0.99407 -0.00001
vn 0.53459 -0.84511 0.00001
vn 0.86386 -0.50372 0.00002
vn 0.98935 -0.14558 -0.00006
vn 0.96688 -0.15589 -0.20208
vn 0.99333 0.11527 0.00016
vn 0.96459 0.26375 0.00018
vn 0.91585 0.24521 -0.31794
vn 0.95942 0.10392 -0.26214
vn 0.69487 0.20258 -0.69001
vn 0.78004 0.09704 -0.61817
vn 0.81931 -0.13365 -0.55756
vn 0.59645 0.09632 -0.79685
vn 0.65064 -0.09470 -0.75346
vn 0.58902 -0.36105 -0.72298
vn -0.32116 0.23909 -0.91634
vn -0.38998 0.18473 -0.90210
vn -0.21976 0.31488 -0.92334
vn -0.51844 0.77631 -0.35856
vn -0.78061 0.51991 -0.34691
vn -0.81286 0.54117 -0.21540
vn -0.54156 0.81200 -0.21763
vn -0.18937 0.95417 -0.23173
vn -0.18126 0.90636 -0.38165
vn -0.55438 0.83226 0.00001
vn -0.19335 0.98113 0.00001
vn 0.14437 0.98952 -0.00002
vn -0.97209 -0.23462 0.00035
vn -0.71471 -0.69942 -0.00027
vn -0.68034 -0.69199 -0.24145
vn -0.91673 -0.25075 -0.31101
vn -0.69596 -0.20039 -0.68955
vn -0.49581 -0.12449 -0.85946
vn -0.28528 -0.95844 0.00004
vn 0.94320 0.33221 -0.00007
vn 0.93669 0.35016 -0.00005
vn 0.86050 0.31708 -0.39874
vn 0.88038 0.30353 -0.36443
vn 0.58824 0.23215 -0.77465
vn 0.62363 0.23062 -0.74693
vn 0.34377 0.16099 -0.92515
vn 0.38335 0.16874 -0.90806
vn 0.47999 0.16613 -0.86140
vn -0.38046 0.08064 -0.92127
vn -0.35577 0.04014 -0.93371
vn -0.62856 0.01563 -0.77761
vn -0.66094 0.06305 -0.74778
vn -0.69193 0.14548 -0.70716
vn -0.40817 0.13706 -0.90256
vn -0.93787 0.04690 -0.34380
vn -0.94602 0.14729 -0.28871
vn -0.92349 0.30028 -0.23874
vn -0.88501 0.28542 -0.36783
vn -0.98758 0.15713 0.00010
vn -0.95022 0.31157 0.00002
vn -0.83255 0.55395 -0.00005
vn 0.93605 0.35186 -0.00002
vn 0.93583 0.35246 0.00001
vn 0.83544 0.30978 -0.45396
vn 0.84786 0.31391 -0.42731
vn 0.55746 0.22244 -0.79985
vn 0.57244 0.22632 -0.78809
vn 0.32840 0.15727 -0.93135
vn 0.33582 0.15702 -0.92875
vn -0.36039 0.02267 -0.93253
vn -0.35977 0.02710 -0.93265
vn -0.59307 0.00335 -0.80514
vn -0.60266 -0.00127 -0.79800
vn -0.61203 0.00264 -0.79083
vn -0.35536 0.02617 -0.93436
vn -0.89407 -0.02307 -0.44732
vn -0.90566 -0.01752 -0.42365
vn -0.92064 -0.00336 -0.39040
vn -0.99991 -0.01374 0.00001
vn -0.99999 0.00375 0.00000
vn -0.99848 0.05504 0.00001
vn -0.99977 -0.02131 0.00001
vn 0.93447 0.35605 0.00001
vn 0.93262 0.36085 0.00002
vn 0.80759 0.30631 -0.50396
vn 0.82185 0.30722 -0.47977
vn 0.52234 0.20801 -0.82698
vn 0.54113 0.21548 -0.81286
vn -0.01485 0.08476 -0.99629
vn -0.01652 0.09480 -0.99536
vn -0.56135 -0.00323 -0.82757
vn -0.57948 0.00632 -0.81496
vn -0.86416 -0.02695 -0.50249
vn -0.87436 -0.01548 -0.48502
vn -0.88393 -0.02033 -0.46718
vn -0.99987 -0.01597 -0.00001
vn -0.99979 -0.02027 0.00000
vn -0.99956 -0.02965 -0.00004
vn 0.93377 0.35788 -0.00002
vn 0.87434 0.32253 -0.36265
vn 0.79134 0.28390 -0.54147
vn 0.79751 0.29678 -0.52525
vn 0.49725 0.17232 -0.85032
vn 0.50737 0.19194 -0.84008
vn 0.00161 0.04093 -0.99916
vn -0.01128 0.07062 -0.99744
vn -0.51885 -0.05456 -0.85312
vn -0.54305 -0.01539 -0.83956
vn -0.84875 -0.10729 -0.51780
vn -0.85573 -0.05052 -0.51495
vn -0.99106 -0.13342 0.00022
vn -0.99799 -0.06336 -0.00007
vn -0.81032 -0.27991 -0.51481
vn -0.94462 -0.32816 -0.00014
vn -0.72821 -0.68535 -0.00090
vn -0.46907 -0.18028 -0.86456
vn 0.03019 -0.03280 -0.99901
vn 0.50139 0.13426 -0.85474
vn 0.80713 0.23624 -0.54105
vn 0.96123 0.27573 -0.00079
vn 0.99955 0.02995 0.00062
vn 0.98841 -0.15175 0.00287
vn 0.64107 -0.76748 0.00138
vn 0.34461 -0.93875 0.00068
vn -0.26419 -0.96447 -0.00055
vn -0.34473 -0.41912 0.83994
vn -0.63444 -0.59799 0.48979
vn -0.23474 -0.85708 0.45860
vn -0.15851 -0.63667 0.75467
vn 0.30936 -0.82811 0.46747
vn 0.20896 -0.52646 0.82412
vn 0.09695 -0.21213 0.97242
vn 0.76496 -0.41154 0.49545
vn 0.85716 0.05015 0.51260
vn 0.53987 -0.01190 0.84167
vn 0.55169 -0.28732 0.78299
vn -0.26913 -0.15658 0.95029
vn -0.15139 -0.53011 0.83431
vn 0.38496 -0.43056 0.81635
vn 0.17630 -0.19680 0.96446
vn -0.03471 -0.87687 0.47948
vn -0.69485 -0.43864 0.56989
vn -0.50672 -0.76411 0.39921
vn -0.30512 0.68313 0.66350
vn 0.03372 0.95985 0.27849
vn 0.25514 0.56812 0.78239
vn 0.09651 0.13077 0.98670
vn 0.13554 0.04430 0.98978
vn 0.21447 0.24737 0.94489
vn 0.07125 0.25671 0.96386
vn 0.33894 -0.74219 0.57816
vn 0.19717 -0.95133 0.23686
vn 0.00331 -0.42569 0.90486
vn -0.46025 -0.65206 0.60249
vn -0.07532 -0.61727 0.78314
vn -0.47772 -0.83478 0.27373
vn 0.37440 -0.21620 0.90171
vn -0.24218 -0.24484 0.93883
vn 0.69852 -0.47429 0.53583
vn -0.65489 -0.46067 0.59909
vn -0.35457 -0.21137 0.91083
vn -0.71804 -0.41053 0.56204
vn -0.81858 -0.45842 0.34609
vn -0.74778 -0.39362 0.53469
vn -0.76220 -0.38738 0.51864
vn -0.76514 -0.39661 0.50721
vn -0.45626 -0.24008 0.85685
vn -0.47460 -0.25754 0.84168
vn -0.41883 -0.21943 0.88116
vn 0.11161 0.07859 0.99064
vn 0.08805 0.01994 0.99592
vn 0.53834 0.36849 0.75789
vn 0.57088 0.26314 0.77772
vn 0.74492 0.53079 0.40418
vn 0.80996 0.38660 0.44102
vn 0.66689 0.64464 0.37376
vn -0.71368 0.67381 0.19144
vn -0.87380 0.44441 0.19743
vn -0.97276 0.07544 0.21921
vn -0.71119 0.36940 0.59812
vn -0.78929 0.06458 0.61061
vn -0.51797 0.27222 0.81093
vn -0.57211 0.03522 0.81942
vn 0.39414 -0.08614 0.91501
vn 0.68814 -0.21522 0.69292
vn 0.41742 -0.15328 0.89570
vn 0.32698 0.00702 0.94501
vn 0.88298 -0.30589 0.35605
vn 0.91035 -0.29568 0.28955
vn 0.86438 -0.28135 0.41676
vn 0.81170 -0.28096 0.51206
vn 0.52622 -0.11641 0.84234
vn 0.83127 -0.32787 0.44888
vn -0.95707 -0.05877 0.28385
vn -0.93235 -0.10213 0.34683
vn -0.73836 -0.06192 0.67156
vn -0.67431 -0.08961 0.73299
vn -0.50078 -0.07340 0.86246
vn -0.41931 -0.08551 0.90381
vn 0.65906 -0.20495 0.72363
vn 0.61725 -0.18430 0.76488
vn 0.34762 -0.14043 0.92706
vn 0.38756 -0.16387 0.90716
vn 0.91415 -0.24679 0.32158
vn 0.89626 -0.23732 0.37469
vn 0.92118 -0.26878 0.28139
vn -0.91375 -0.11356 0.39009
vn -0.90198 -0.10067 0.41988
vn -0.62907 -0.09061 0.77205
vn -0.59888 -0.07972 0.79686
vn -0.02011 -0.10492 0.99428
vn -0.00373 -0.09765 0.99521
vn 0.58991 -0.17169 0.78900
vn 0.57607 -0.17198 0.79910
vn 0.87928 -0.23566 0.41392
vn 0.86579 -0.24077 0.43867
vn -0.89312 -0.05088 0.44692
vn -0.87967 0.07486 0.46966
vn -0.56770 -0.04767 0.82185
vn -0.53337 0.03239 0.84526
vn 0.01255 -0.08364 0.99642
vn 0.02885 -0.05490 0.99808
vn 0.56476 -0.16576 0.80843
vn 0.55411 -0.16416 0.81610
vn 0.85607 -0.23933 0.45812
vn 0.84715 -0.24335 0.47235
vn -0.83874 0.25652 0.48033
vn -0.73746 0.47704 0.47810
vn -0.48754 0.15103 0.85994
vn -0.41114 0.28732 0.86511
vn 0.05200 -0.00897 0.99861
vn 0.08458 0.03141 0.99592
vn 0.55055 -0.16606 0.81812
vn 0.55526 -0.17723 0.81257
vn 0.84001 -0.25942 0.47653
vn 0.83832 -0.27997 0.46780
vn -0.54954 0.70095 0.45462
vn -0.33037 0.85620 0.39721
vn -0.29680 0.43396 0.85064
vn -0.16942 0.57062 0.80355
vn 0.13223 0.05864 0.98948
vn 0.19772 0.05906 0.97848
vn 0.57046 -0.21978 0.79137
vn 0.57937 -0.34346 0.73917
vn 0.83731 -0.32689 0.43824
vn 0.80013 -0.46735 0.37600
vn 0.59939 -0.74349 0.29656
vn -0.11646 0.94181 0.31531
vn 0.16354 0.95554 0.24533
vn -0.02717 0.67280 0.73932
vn 0.15836 0.90743 0.38921
vn 0.05503 0.40075 0.91453
vn 0.15086 0.41087 0.89912
vn 0.46019 -0.58890 0.66439
vn 0.08368 -0.80545 0.58672
vn 0.07426 -0.63662 0.76759
vn 0.35875 -0.43064 0.82816
vn 0.11386 -0.96764 0.22517
vn -0.19455 -0.96382 0.18219
vn -0.45564 -0.70170 0.54774
vn -0.92781 -0.30978 0.20788
vn -0.79975 -0.57250 0.18066
vn 0.54453 0.81020 0.21694
vn 0.83516 0.49968 0.22983
vn 0.52283 0.77607 0.35264
vn 0.79708 0.47855 0.36832
vn 0.26183 0.36518 0.89336
vn 0.36766 0.27815 0.88739
vn -0.77836 -0.26416 0.56953
vn -0.61136 -0.20180 0.76519
vn -0.37025 -0.56761 0.73534
vn -0.76663 0.08097 0.63696
vn -0.54760 0.07916 0.83299
vn -0.96184 0.09237 0.25756
vn -0.92119 0.21343 0.32535
vn -0.67887 0.17292 0.71360
vn 0.93308 0.23041 0.27617
vn 0.93812 0.09317 0.33353
vn 0.67914 0.20791 0.70395
vn 0.65760 0.09348 0.74755
vn 0.39836 0.17429 0.90052
vn 0.37226 0.09484 0.92327
vn 0.34888 0.05066 0.93580
vn 0.62879 0.04113 0.77649
vn -0.62746 0.17219 0.75937
vn -0.36345 0.12470 0.92323
vn -0.42817 0.13845 0.89303
vn -0.60104 0.16694 0.78159
vn -0.33576 0.11397 0.93503
vn -0.89973 0.22732 0.37257
vn -0.88692 0.22996 0.40060
vn 0.92538 0.03695 0.37724
vn 0.91660 0.00904 0.39970
vn 0.61904 0.01768 0.78516
vn 0.61882 0.00651 0.78551
vn 0.91092 -0.00688 0.41252
vn 0.35013 0.03014 0.93622
vn 0.36235 0.02192 0.93178
vn 0.03245 0.06978 0.99703
vn 0.61629 0.00494 0.78751
vn -0.58395 0.16545 0.79475
vn -0.56590 0.15965 0.80887
vn -0.32346 0.11299 0.93947
vn -0.87640 0.23004 0.42308
vn -0.86615 0.22434 0.44659
vn 0.90481 -0.00952 0.42572
vn 0.89759 -0.00833 0.44076
vn 0.61092 0.00625 0.79167
vn 0.60630 0.00563 0.79522
vn 0.89008 -0.00766 0.45574
vn 0.04620 0.06871 0.99657
vn 0.06499 0.06404 0.99583
vn -0.54296 0.15440 0.82544
vn -0.51486 0.14741 0.84451
vn -0.85409 0.21888 0.47183
vn -0.83952 0.21537 0.49882
vn 0.88339 -0.01095 0.46851
vn 0.87843 -0.00252 0.47787
vn 0.60631 0.00013 0.79523
vn 0.61088 -0.00156 0.79172
vn 0.09379 0.05854 0.99387
vn 0.13235 0.04399 0.99023
vn -0.47879 0.14589 0.86572
vn -0.43405 0.13857 0.89017
vn -0.82194 0.21783 0.52627
vn -0.80218 0.22633 0.55252
vn -0.89993 0.25521 0.35355
vn 0.87864 -0.01589 0.47721
vn 0.84901 -0.24578 0.46773
vn 0.61808 -0.00363 0.78611
vn 0.61487 -0.13771 0.77651
vn 0.17520 0.02720 0.98416
vn 0.21453 -0.03608 0.97605
vn -0.38000 0.11388 0.91795
vn -0.32806 0.05766 0.94289
vn -0.78474 0.21309 0.58205
vn -0.77831 0.13834 0.61245
vn -0.89800 0.24630 0.36460
vn -0.91426 0.16645 0.36937
vn 0.55153 -0.68257 0.47949
vn -0.77330 -0.07310 0.62981
vn -0.77087 -0.39585 0.49907
vn -0.78061 -0.37924 0.49682
vn -0.48654 -0.25512 0.83558
vn -0.49810 -0.23881 0.83359
vn 0.04053 0.00607 0.99916
vn 0.02859 0.00808 0.99956
vn 0.05729 0.00390 0.99835
vn 0.55528 0.24702 0.79413
vn 0.54203 0.24235 0.80466
vn 0.80926 0.36061 0.46375
vn 0.80471 0.35034 0.47928
vn -0.79552 -0.34539 0.49785
vn -0.82919 -0.25887 0.49541
vn -0.50844 -0.21396 0.83409
vn -0.52851 -0.16044 0.83363
vn 0.01651 0.01347 0.99977
vn 0.00609 0.02559 0.99965
vn 0.52736 0.22158 0.82024
vn 0.52684 0.21570 0.82214
vn 0.53388 0.23015 0.81363
vn 0.80318 0.33950 0.48954
vn 0.80405 0.33156 0.49352
vn -0.86375 -0.13449 0.48563
vn -0.88192 -0.03004 0.47044
vn -0.56146 -0.07574 0.82403
vn -0.58866 -0.00045 0.80838
vn -0.00948 0.05436 0.99848
vn -0.03072 0.09091 0.99539
vn 0.53513 0.21111 0.81797
vn 0.54157 0.21573 0.81250
vn 0.81593 0.31802 0.48282
vn 0.82893 0.31027 0.46542
vn 0.80674 0.32683 0.49229
vn -0.89638 0.05891 0.43935
vn -0.92302 0.03402 0.38325
vn -0.61811 0.05468 0.78418
vn -0.66883 0.02392 0.74303
vn -0.06009 0.11808 0.99118
vn -0.45162 0.03718 0.89143
vn 0.53885 0.22892 0.81070
vn 0.50222 0.29510 0.81283
vn 0.23340 0.20267 0.95103
vn 0.83804 0.31792 0.44342
vn 0.81303 0.40681 0.41651
vn 0.69127 0.61440 0.38034
vn 0.44474 0.83392 0.32678
vn 0.39937 0.42649 0.81155
vn 0.39410 0.76164 0.51438
vn 0.13624 0.95351 0.26879
vn 0.12428 0.89138 0.43588
vn 0.05764 0.29083 0.95504
vn 0.14668 0.25380 0.95607
vn -0.01783 0.33939 0.94048
vn -0.10737 0.36158 0.92614
vn -0.24415 -0.78731 0.56616
vn -0.54755 -0.55648 0.62491
vn -0.41476 -0.40286 0.81589
vn -0.20140 -0.59927 0.77480
vn 0.07358 -0.67016 0.73856
vn 0.09581 -0.84487 0.52633
vn 0.37939 -0.59069 0.71214
vn 0.46768 -0.72842 0.50068
vn 0.11037 -0.98046 0.16284
vn -0.27819 -0.94239 0.18579
vn 0.53121 -0.83373 0.15069
vn 0.73441 -0.44586 0.51172
vn 0.84921 -0.50387 0.15801
vn 0.96711 -0.15457 0.20200
vn 0.95937 0.10424 0.26218
vn 0.91582 0.24488 0.31828
vn 0.77910 0.09692 0.61936
vn 0.69443 0.20296 0.69034
vn 0.81927 -0.13295 0.55779
vn 0.65021 -0.09475 0.75383
vn 0.59389 0.09566 0.79884
vn 0.58869 -0.36025 0.72365
vn -0.32189 0.23910 0.91609
vn -0.39171 0.18533 0.90123
vn -0.21852 0.31301 0.92427
vn -0.54158 0.81207 0.21732
vn -0.81290 0.54119 0.21521
vn -0.78060 0.52012 0.34662
vn -0.51854 0.77652 0.35796
vn -0.18044 0.90695 0.38062
vn -0.18896 0.95438 0.23118
vn -0.91635 -0.25123 0.31176
vn -0.68351 -0.68982 0.23866
vn -0.69590 -0.20336 0.68874
vn -0.49717 -0.12933 0.85796
vn 0.88027 0.30428 0.36405
vn 0.86052 0.31696 0.39880
vn 0.62392 0.23153 0.74640
vn 0.58825 0.23146 0.77484
vn 0.38400 0.16931 0.90768
vn 0.34383 0.15990 0.92532
vn 0.47932 0.16680 0.86165
vn -0.66089 0.06406 0.74774
vn -0.62845 0.01593 0.77769
vn -0.35568 0.04018 0.93374
vn -0.38102 0.08031 0.92107
vn -0.40923 0.13641 0.90218
vn -0.69248 0.14517 0.70668
vn -0.94591 0.14809 0.28864
vn -0.93771 0.04816 0.34407
vn -0.88552 0.28434 0.36744
vn -0.92365 0.29994 0.23854
vn 0.84787 0.31383 0.42735
vn 0.83543 0.30976 0.45398
vn 0.57250 0.22594 0.78816
vn 0.55749 0.22231 0.79986
vn 0.33593 0.15650 0.92880
vn 0.32845 0.15711 0.93137
vn -0.60271 -0.00078 0.79796
vn -0.59306 0.00329 0.80515
vn -0.35973 0.02690 0.93267
vn -0.36041 0.02296 0.93251
vn -0.35536 0.02621 0.93436
vn -0.61202 0.00257 0.79084
vn -0.90564 -0.01753 0.42368
vn -0.89409 -0.02294 0.44730
vn -0.92060 -0.00327 0.39049
vn 0.82187 0.30710 0.47980
vn 0.80764 0.30612 0.50399
vn 0.54119 0.21523 0.81289
vn 0.52239 0.20792 0.82697
vn -0.01650 0.09481 0.99536
vn -0.01483 0.08496 0.99627
vn -0.57943 0.00656 0.81500
vn -0.56137 -0.00299 0.82756
vn -0.87435 -0.01533 0.48506
vn -0.86419 -0.02698 0.50245
vn -0.88393 -0.02030 0.46718
vn 0.79756 0.29680 0.52517
vn 0.79149 0.28354 0.54143
vn 0.87434 0.32243 0.36271
vn 0.50743 0.19209 0.84001
vn 0.49739 0.17188 0.85033
vn -0.01118 0.07094 0.99742
vn 0.00182 0.04119 0.99915
vn -0.54293 -0.01531 0.83964
vn -0.51845 -0.05393 0.85341
vn -0.85574 -0.05073 0.51491
vn -0.84852 -0.10712 0.51821
vn -0.81057 -0.27955 0.51461
vn -0.46906 -0.17988 0.86465
vn 0.03029 -0.03269 0.99901
vn 0.50143 0.13440 0.85470
vn 0.80749 0.23692 0.54021
f 1//1 5//2 6//3 7//4
f 1//1 8//5 9//6 5//2
f 1//1 7//4 10//7 8//5
f 2//8 11//9 12//10 13//11
f 2//8 13//11 9//6 8//5
f 2//8 8//5 10//7 11//9
f 14//12 15//13 16//14 17//15
f 18//16 19//17 16//14 20//18
f 3//19 21//20 22//20 23//21
f 3//19 24//22 25//23 26//24
f 3//19 23//21 27//25 24//22
f 4//26 29//27 28//28 393//29
f 4//30 30//31 31//32 29//27
f 4//33 393//34 394//35 30//31
f 31//32 32//36 25//23 33//37
f 31//32 33//37 34//38 29//27
f 31//32 30//31 35//39 32//36
f 35//39 36//40 37//41 32//36
f 35//39 30//31 394//35 395//42
f 35//39 395//42 38//43 36//40
f 38//43 39//44 40//45 36//40
f 41//46 42//47 43//48 44//49
f 41//46 44//49 40//45 39//44
f 44//49 43//48 45//50 46//51
f 44//49 46//51 47//52 40//45
f 47//52 46//51 48//53 49//54
f 47//52 49//54 26//24 37//41
f 47//52 37//41 36//40 40//45
f 49//54 48//53 50//55 51//56
f 49//54 51//56 3//19 26//24
f 51//56 50//55 52//57 53//58
f 51//56 53//58 21//59 3//19
f 53//58 52//57 54//60 396//61
f 53//58 396//61 55//62 21//59
f 55//63 56//63 22//20 21//20
f 56//64 57//65 58//66 22//67
f 58//66 57//65 59//68 60//69
f 58//66 60//69 61//70 62//71
f 58//66 62//71 23//21 22//67
f 62//71 61//70 63//72 64//73
f 62//71 64//73 27//25 23//21
f 64//74 63//75 65//76 66//74
f 64//74 66//74 67//77 27//25
f 67//78 66//79 68//80 69//81
f 67//78 69//81 70//82 71//83
f 67//77 71//83 24//22 27//25
f 71//83 70//82 34//38 33//37
f 71//83 33//37 25//23 24//22
f 70//82 69//81 397//84 72//85
f 70//82 72//85 73//86 34//38
f 73//86 28//28 29//27 34//38
f 74//87 398//88 75//89 76//90
f 74//87 76//90 60//69 59//68
f 76//90 75//89 77//91 78//92
f 76//90 78//92 61//70 60//69
f 78//92 77//91 79//93 80//94
f 78//92 80//94 63//72 61//70
f 80//95 79//96 81//97 82//98
f 80//95 82//98 65//76 63//75
f 82//98 81//97 83//99 84//100
f 82//98 84//100 85//101 65//76
f 85//101 84//100 399//102 86//103
f 85//101 86//103 400//104 68//80
f 85//101 68//80 66//79 65//76
f 400//104 397//84 69//81 68//80
f 402//105 401//106 87//107 88//108
f 402//105 88//108 75//89 398//88
f 88//108 87//107 89//109 90//110
f 88//108 90//110 77//91 75//89
f 90//110 89//109 91//111 92//112
f 90//110 92//112 79//93 77//91
f 92//112 91//111 93//113 94//114
f 92//112 94//114 81//97 79//96
f 94//114 93//113 95//115 96//116
f 94//114 96//116 83//99 81//97
f 96//116 95//115 97//117 98//118
f 96//116 98//118 403//119 83//99
f 403//119 399//102 84//100 83//99
f 100//120 99//121 101//122 102//123
f 100//120 102//123 87//107 401//106
f 102//123 101//122 103//124 104//125
f 102//123 104//125 89//109 87//107
f 104//125 103//124 105//126 106//127
f 104//125 106//127 91//111 89//109
f 106//127 105//126 107//128 108//129
f 106//127 108//129 93//113 91//111
f 108//129 107//128 109//130 110//131
f 108//129 110//131 95//115 93//113
f 110//131 109//130 111//132 112//133
f 110//131 112//133 97//117 95//115
f 114//134 113//135 115//136 116//137
f 114//134 116//137 101//122 99//121
f 116//137 115//136 117//138 118//139
f 116//137 118//139 103//124 101//122
f 118//139 117//138 119//140 120//141
f 118//139 120//141 105//126 103//124
f 120//141 119//140 121//142 122//143
f 120//141 122//143 107//128 105//126
f 122//143 121//142 123//144 124//145
f 122//143 124//145 109//130 107//128
f 124//145 123//144 404//146 125//147
f 124//145 125//147 111//132 109//130
f 406//148 405//149 126//150 127//151
f 406//148 127//151 115//136 113//135
f 127//151 126//150 128//152 129//153
f 127//151 129//153 117//138 115//136
f 129//153 128//152 130//154 131//155
f 129//153 131//155 119//140 117//138
f 131//155 130//154 132//156 133//157
f 131//155 133//157 121//142 119//140
f 133//157 132//156 134//158 135//159
f 133//157 135//159 123//144 121//142
f 135//159 134//158 136//160 407//161
f 135//159 407//161 404//146 123//144
f 136//160 134//158 137//162 408//163
f 139//164 138//165 140//166 141//167
f 139//164 141//167 126//150 405//149
f 141//167 140//166 142//168 143//169
f 141//167 143//169 128//152 126//150
f 143//169 142//170 144//170 145//171
f 143//169 145//171 130//154 128//152
f 145//172 144//173 146//174 147//175
f 145//172 147//175 132//156 130//154
f 147//175 146//174 148//176 137//162
f 147//175 137//162 134//158 132//156
f 148//176 146//174 149//177 150//178
f 148//176 150//178 151//179 409//180
f 148//176 409//180 408//163 137//162
f 151//181 150//182 152//183 410//184
f 153//185 411//186 154//187 155//188
f 153//185 155//188 140//166 138//165
f 155//188 154//187 156//189 157//190
f 155//188 157//190 142//168 140//166
f 157//191 156//192 158//192 159//191
f 157//191 159//191 144//170 142//170
f 159//193 158//194 160//195 149//177
f 159//193 149//177 146//174 144//173
f 160//195 158//194 161//196 162//197
f 160//195 162//197 163//198 152//183
f 160//195 152//183 150//182 149//177
f 163//198 162//197 164//199 165//200
f 163//198 165//200 166//201 412//202
f 163//198 412//202 410//184 152//183
f 414//203 413//204 167//205 168//206
f 414//203 168//206 154//187 411//186
f 168//206 167//205 169//207 170//208
f 168//206 170//208 156//189 154//187
f 170//208 169//207 171//209 161//210
f 170//208 161//210 158//192 156//192
f 171//209 169//207 172//211 173//212
f 171//213 173//214 174//215 164//199
f 171//213 164//199 162//197 161//196
f 174//215 173//214 175//216 176//217
f 174//215 176//217 177//218 178//219
f 174//215 178//219 165//200 164//199
f 178//219 177//218 179//220 180//221
f 178//219 180//221 166//201 165//200
f 416//222 415//223 181//224 182//225
f 416//222 182//225 167//205 413//204
f 182//225 181//224 183//226 172//211
f 182//225 172//211 169//207 167//205
f 183//226 181//224 184//227 185//228
f 183//226 185//228 186//229 175//230
f 183//226 175//230 173//212 172//211
f 186//229 185//228 187//231 188//232
f 186//233 188//232 189//234 190//235
f 186//233 190//235 176//217 175//216
f 190//235 189//234 191//236 192//237
f 190//235 192//237 177//218 176//217
f 192//237 191//236 417//238 418//239
f 192//237 418//239 179//220 177//218
f 420//240 419//241 193//242 184//227
f 420//240 184//227 181//224 415//223
f 193//242 419//241 421//243 194//244
f 193//242 194//244 195//245 187//231
f 193//242 187//231 185//228 184//227
f 195//245 194//244 196//246 197//247
f 195//245 197//247 198//248 199//249
f 195//245 199//249 188//232 187//231
f 199//249 198//248 200//250 201//251
f 199//249 201//251 189//234 188//232
f 201//251 200//250 202//252 203//253
f 201//251 203//253 191//236 189//234
f 203//253 202//252 204//254 422//255
f 203//253 422//255 417//238 191//236
f 205//256 423//257 206//258 196//246
f 205//256 196//246 194//244 421//243
f 206//258 423//257 424//259 207//260
f 206//258 207//260 208//261 209//262
f 206//258 209//262 197//247 196//246
f 209//262 208//261 210//263 211//264
f 209//262 211//264 198//248 197//247
f 211//264 210//263 212//265 213//266
f 211//264 213//266 200//250 198//248
f 213//266 212//265 214//267 215//268
f 213//266 215//268 202//252 200//250
f 215//268 214//267 425//269 216//270
f 215//268 216//270 204//254 202//252
f 217//271 426//272 218//273 219//274
f 217//271 219//274 207//260 424//259
f 219//274 218//273 220//275 221//276
f 219//274 221//276 208//261 207//260
f 221//276 220//275 222//277 223//278
f 221//276 223//278 210//263 208//261
f 223//278 222//277 224//279 225//280
f 223//278 225//280 212//265 210//263
f 225//280 224//279 226//281 227//282
f 225//280 227//282 214//267 212//265
f 227//282 226//281 427//283 428//284
f 227//282 428//284 425//269 214//267
f 429//285 228//286 20//18 229//287
f 429//288 229//287 218//273 426//272
f 229//287 20//18 16//14 15//13
f 229//287 15//13 220//275 218//273
f 228//286 230//289 18//16 20//18
f 230//289 430//290 19//17 18//16
f 430//290 431//291 231//292 19//17
f 231//292 17//15 16//14 19//17
f 231//292 431//291 427//283 226//281
f 231//292 226//281 224//279 17//15
f 224//279 222//277 14//12 17//15
f 222//277 220//275 15//13 14//12
f 233//293 232//294 234//295 235//296
f 233//293 235//296 43//48 42//47
f 235//296 234//295 236//297 237//298
f 235//296 237//298 45//50 43//48
f 237//298 236//297 238//299 239//300
f 237//298 239//300 240//301 45//50
f 240//301 239//300 241//302 242//303
f 240//301 242//303 50//55 48//53
f 240//301 48//53 46//51 45//50
f 242//303 241//302 243//304 244//305
f 242//303 244//305 52//57 50//55
f 244//305 243//304 245//306 246//307
f 244//305 246//307 54//60 52//57
f 248//308 247//309 249//310 250//311
f 248//308 250//311 234//295 232//294
f 250//311 249//310 251//312 252//313
f 250//311 252//313 236//297 234//295
f 252//313 251//312 253//314 254//315
f 252//313 254//315 238//299 236//297
f 254//315 253//314 255//316 256//317
f 254//315 256//317 257//318 238//299
f 257//318 256//317 258//319 259//320
f 257//318 259//320 243//304 241//302
f 257//318 241//302 239//300 238//299
f 259//320 258//319 432//321 433//322
f 259//320 433//322 245//306 243//304
f 435//323 434//324 260//325 261//326
f 435//323 261//326 249//310 247//309
f 261//326 260//325 262//327 263//328
f 261//326 263//328 251//312 249//310
f 263//328 262//327 264//329 265//330
f 263//328 265//330 253//314 251//312
f 265//330 264//329 266//331 267//332
f 265//330 267//332 255//316 253//314
f 267//332 266//331 268//333 269//334
f 267//332 269//334 270//335 255//316
f 270//335 269//334 436//336 437//337
f 270//335 437//337 432//321 258//319
f 270//335 258//319 256//317 255//316
f 436//336 269//334 268//333 438//338
f 440//339 439//340 272//341 273//342
f 440//339 273//342 260//325 434//324
f 273//342 272//341 274//343 275//344
f 273//342 275//344 262//327 260//325
f 275//344 274//343 276//345 277//346
f 275//344 277//346 264//329 262//327
f 277//346 276//347 278//348 279//349
f 277//346 279//349 266//331 264//329
f 279//349 278//348 280//350 281//351
f 279//349 281//351 268//333 266//331
f 281//351 280//350 282//352 271//353
f 281//351 271//353 438//338 268//333
f 282//352 280//350 284//354 283//355
f 284//354 285//356 286//357 283//355
f 284//354 280//350 278//348 287//358
f 284//354 287//358 288//359 285//356
f 288//359 289//360 290//361 285//356
f 288//362 287//358 291//363 292//362
f 288//362 292//362 293//364 289//364
f 293//364 294//365 295//365 289//364
f 293//366 292//367 296//368 297//369
f 293//366 297//369 298//370 294//371
f 298//370 299//372 300//373 294//371
f 298//370 297//369 301//374 302//375
f 298//370 302//375 303//376 299//372
f 303//376 304//377 305//378 299//372
f 303//376 302//375 441//379 306//380
f 303//376 306//380 442//381 304//377
f 442//381 307//382 308//383 304//377
f 309//384 443//385 310//386 311//387
f 309//384 311//387 308//383 307//382
f 311//387 310//386 312//388 313//389
f 311//387 313//389 314//390 308//383
f 314//390 313//389 315//391 316//392
f 314//390 316//392 317//393 305//378
f 314//390 305//378 304//377 308//383
f 317//394 316//395 318//395 319//394
f 317//394 319//394 320//396 300//396
f 317//393 300//373 299//372 305//378
f 320//397 319//398 321//399 322//400
f 320//397 322//400 323//401 295//402
f 320//396 295//365 294//365 300//396
f 323//401 322//400 324//403 444//404
f 323//401 444//404 325//405 290//361
f 323//401 290//361 289//360 295//402
f 325//405 286//357 285//356 290//361
f 446//406 445//407 326//408 327//409
f 446//406 327//409 272//341 439//340
f 327//409 326//408 296//368 328//410
f 327//409 328//410 274//343 272//341
f 328//410 296//368 292//367 291//411
f 328//410 291//411 276//345 274//343
f 326//408 301//374 297//369 296//368
f 326//408 445//407 447//412 301//374
f 447//412 441//379 302//375 301//374
f 330//413 329//414 331//415 332//416
f 330//413 332//416 310//386 443//385
f 332//416 331//415 333//417 334//418
f 332//416 334//418 312//388 310//386
f 334//418 333//417 335//419 336//420
f 334//418 336//420 337//421 312//388
f 337//422 336//423 338//424 339//425
f 337//422 339//425 340//426 315//427
f 337//421 315//391 313//389 312//388
f 340//426 339//425 341//428 342//429
f 340//426 342//429 343//430 318//431
f 340//426 318//395 316//395 315//427
f 343//430 342//429 448//432 449//433
f 343//430 449//433 344//434 321//399
f 343//430 321//399 319//398 318//431
f 344//434 324//403 322//400 321//399
f 347//435 346//436 348//437 349//438
f 347//435 349//438 331//415 329//414
f 349//438 348//437 350//439 351//440
f 349//438 351//440 333//417 331//415
f 351//440 350//439 352//441 353//442
f 351//440 353//442 335//419 333//417
f 353//443 352//444 354//445 355//446
f 353//443 355//446 356//447 335//448
f 356//447 355//446 357//449 358//450
f 356//447 358//450 359//451 338//424
f 356//447 338//424 336//423 335//448
f 359//451 358//450 360//452 345//453
f 359//451 345//453 450//454 341//428
f 359//451 341//428 339//425 338//424
f 360//452 358//450 357//449 451//455
f 362//456 361//457 363//458 364//459
f 362//456 364//459 348//437 346//436
f 364//459 363//458 365//460 366//461
f 364//459 366//461 350//439 348//437
f 366//461 365//460 367//462 368//463
f 366//461 368//463 352//441 350//439
f 368//463 367//462 369//464 370//465
f 368//463 370//465 354//445 352//444
f 370//465 369//464 371//466 372//467
f 370//465 372//467 373//468 354//445
f 373//468 372//467 452//469 453//470
f 373//468 453//470 451//455 357//449
f 373//468 357//449 355//446 354//445
f 452//469 372//467 371//466 454//471
f 456//472 455//473 374//474 375//475
f 456//472 375//475 363//458 361//457
f 375//475 374//474 376//476 377//477
f 375//475 377//477 365//460 363//458
f 377//477 376//476 378//478 379//479
f 377//477 379//479 367//462 365//460
f 379//479 378//478 380//480 381//481
f 379//479 381//481 369//464 367//462
f 381//481 380//480 382//482 383//483
f 381//481 383//483 371//466 369//464
f 383//483 382//482 457//484 458//485
f 383//483 458//485 454//471 371//466
f 457//484 382//482 385//486 384//487
f 385//486 6//3 386//488 384//487
f 385//486 382//482 380//480 387//489
f 385//486 387//489 7//4 6//3
f 387//489 380//480 378//478 388//490
f 387//489 388//490 10//7 7//4
f 388//490 378//478 376//476 389//491
f 388//490 389//491 11//9 10//7
f 389//491 376//476 374//474 390//492
f 389//491 390//492 12//10 11//9
f 390//492 374//474 455//473 459//493
f 390//492 459//493 460//494 12//10
f 460//494 461//495 13//11 12//10
f 461//496 391//497 9//6 13//11
f 391//497 392//498 5//2 9//6
f 392//498 386//488 6//3 5//2
f 450//454 448//432 342//429 341//428
f 291//363 287//358 278//348 276//347
f 37//41 26//24 25//23 32//36
f 468//499 467//500 466//501 462//502
f 466//501 470//503 469//504 462//502
f 469//504 471//505 468//499 462//502
f 474//506 473//507 472//508 463//509
f 469//504 470//503 474//506 463//509
f 472//508 471//505 469//504 463//509
f 478//510 477//511 476//512 475//513
f 481//514 477//511 480//515 479//516
f 484//517 483//518 482//518 464//519
f 487//520 486//521 485//522 464//519
f 485//522 488//523 484//517 464//519
f 393//29 28//28 489//524 465//525
f 489//524 491//526 490//527 465//528
f 490//527 394//35 393//34 465//529
f 493//530 486//521 492//531 491//526
f 489//524 494//532 493//530 491//526
f 492//531 495//533 490//527 491//526
f 492//531 497//534 496//535 495//533
f 395//42 394//35 490//527 495//533
f 496//535 38//536 395//42 495//533
f 496//535 498//537 39//44 38//536
f 500//538 499//539 42//47 41//46
f 39//44 498//537 500//538 41//46
f 502//540 501//541 499//539 500//538
f 498//537 503//542 502//540 500//538
f 505//543 504//544 502//540 503//542
f 497//534 487//520 505//543 503//542
f 498//537 496//535 497//534 503//542
f 507//545 506//546 504//544 505//543
f 487//520 464//519 507//545 505//543
f 509//547 508//548 506//546 507//545
f 464//519 482//549 509//547 507//545
f 396//61 54//60 508//548 509//547
f 482//549 55//62 396//61 509//547
f 482//518 483//518 56//63 55//63
f 483//550 510//551 57//65 56//64
f 511//552 59//68 57//65 510//551
f 513//553 512//554 511//552 510//551
f 483//550 484//517 513//553 510//551
f 515//555 514//556 512//554 513//553
f 484//517 488//523 515//555 513//553
f 517//557 516//558 514//559 515//557
f 488//523 518//560 517//557 515//557
f 520//561 519//562 517//563 518//564
f 522//565 521//566 520//561 518//564
f 488//523 485//522 522//565 518//560
f 493//530 494//532 521//566 522//565
f 485//522 486//521 493//530 522//565
f 72//85 397//84 520//561 521//566
f 494//532 73//86 72//85 521//566
f 494//532 489//524 28//28 73//86
f 524//567 523//568 398//88 74//87
f 59//68 511//552 524//567 74//87
f 526//569 525//570 523//568 524//567
f 511//552 512//554 526//569 524//567
f 528//571 527//572 525//570 526//569
f 512//554 514//556 528//571 526//569
f 530//573 529//574 527//575 528//576
f 514//559 516//558 530//573 528//576
f 532//577 531//578 529//574 530//573
f 516//558 533//579 532//577 530//573
f 86//103 399//102 532//577 533//579
f 519//562 400//104 86//103 533//579
f 516//558 517//563 519//562 533//579
f 519//562 520//561 397//84 400//104
f 535//580 534//581 401//106 402//105
f 398//88 523//568 535//580 402//105
f 537//582 536//583 534//581 535//580
f 523//568 525//570 537//582 535//580
f 539//584 538//585 536//583 537//582
f 525//570 527//572 539//584 537//582
f 541//586 540//587 538//585 539//584
f 527//575 529//574 541//586 539//584
f 543//588 542//589 540//587 541//586
f 529//574 531//578 543//588 541//586
f 98//118 97//117 542//589 543//588
f 531//578 403//119 98//118 543//588
f 531//578 532//577 399//102 403//119
f 545//590 544//591 99//121 100//120
f 401//106 534//581 545//590 100//120
f 547//592 546//593 544//591 545//590
f 534//581 536//583 547//592 545//590
f 549//594 548//595 546//593 547//592
f 536//583 538//585 549//594 547//592
f 551//596 550//597 548//595 549//594
f 538//585 540//587 551//596 549//594
f 553//598 552//599 550//597 551//596
f 540//587 542//589 553//598 551//596
f 112//133 111//132 552//599 553//598
f 542//589 97//117 112//133 553//598
f 555//600 554//601 113//135 114//134
f 99//121 544//591 555//600 114//134
f 557//602 556//603 554//601 555//600
f 544//591 546//593 557//602 555//600
f 559//604 558//605 556//603 557//602
f 546//593 548//595 559//604 557//602
f 561//606 560//607 558//605 559//604
f 548//595 550//597 561//606 559//604
f 563//608 562//609 560//607 561//606
f 550//597 552//599 563//608 561//606
f 125//147 404//146 562//609 563//608
f 552//599 111//132 125//147 563//608
f 565//610 564//611 405//149 406//148
f 113//135 554//601 565//610 406//148
f 567//612 566//613 564//611 565//610
f 554//601 556//603 567//612 565//610
f 569//614 568//615 566//613 567//612
f 556//603 558//605 569//614 567//612
f 571//616 570//617 568//615 569//614
f 558//605 560//607 571//616 569//614
f 573//618 572//619 570//617 571//616
f 560//607 562//609 573//618 571//616
f 407//161 136//160 572//619 573//618
f 562//609 404//146 407//161 573//618
f 408//163 574//620 572//619 136//160
f 576//621 575//622 138//165 139//164
f 405//149 564//611 576//621 139//164
f 578//623 577//624 575//622 576//621
f 564//611 566//613 578//623 576//621
f 580//625 579//626 577//626 578//623
f 566//613 568//615 580//625 578//623
f 582//627 581//628 579//629 580//630
f 568//615 570//617 582//627 580//630
f 574//620 583//631 581//628 582//627
f 570//617 572//619 574//620 582//627
f 585//632 584//633 581//628 583//631
f 409//180 151//179 585//632 583//631
f 574//620 408//163 409//180 583//631
f 410//184 586//634 585//635 151//181
f 588//636 587//637 411//186 153//185
f 138//165 575//622 588//636 153//185
f 590//638 589//639 587//637 588//636
f 575//622 577//624 590//638 588//636
f 592//640 591//641 589//641 590//640
f 577//626 579//626 592//640 590//640
f 584//633 593//642 591//643 592//644
f 579//629 581//628 584//633 592//644
f 595//645 594//646 591//643 593//642
f 586//634 596//647 595//645 593//642
f 584//633 585//635 586//634 593//642
f 598//648 597//649 595//645 596//647
f 412//202 166//201 598//648 596//647
f 586//634 410//184 412//202 596//647
f 600//650 599//651 413//204 414//203
f 411//186 587//637 600//650 414//203
f 602//652 601//653 599//651 600//650
f 587//637 589//639 602//652 600//650
f 594//654 603//655 601//653 602//652
f 589//641 591//641 594//654 602//652
f 605//656 604//657 601//653 603//655
f 597//649 606//658 605//659 603//660
f 594//646 595//645 597//649 603//660
f 608//661 607//662 605//659 606//658
f 610//663 609//664 608//661 606//658
f 597//649 598//648 610//663 606//658
f 180//221 179//220 609//664 610//663
f 598//648 166//201 180//221 610//663
f 612//665 611//666 415//223 416//222
f 413//204 599//651 612//665 416//222
f 604//657 613//667 611//666 612//665
f 599//651 601//653 604//657 612//665
f 615//668 614//669 611//666 613//667
f 607//670 616//671 615//668 613//667
f 604//657 605//656 607//670 613//667
f 618//672 617//673 615//668 616//671
f 620//674 619//675 618//672 616//676
f 607//662 608//661 620//674 616//676
f 622//677 621//678 619//675 620//674
f 608//661 609//664 622//677 620//674
f 418//239 417//238 621//678 622//677
f 609//664 179//220 418//239 622//677
f 614//669 623//679 419//241 420//240
f 415//223 611//666 614//669 420//240
f 624//680 421//243 419//241 623//679
f 617//673 625//681 624//680 623//679
f 614//669 615//668 617//673 623//679
f 627//682 626//683 624//680 625//681
f 629//684 628//685 627//682 625//681
f 617//673 618//672 629//684 625//681
f 631//686 630//687 628//685 629//684
f 618//672 619//675 631//686 629//684
f 633//688 632//689 630//687 631//686
f 619//675 621//678 633//688 631//686
f 422//255 204//254 632//689 633//688
f 621//678 417//238 422//255 633//688
f 626//683 634//690 423//257 205//256
f 421//243 624//680 626//683 205//256
f 635//691 424//259 423//257 634//690
f 637//692 636//693 635//691 634//690
f 626//683 627//682 637//692 634//690
f 639//694 638//695 636//693 637//692
f 627//682 628//685 639//694 637//692
f 641//696 640//697 638//695 639//694
f 628//685 630//687 641//696 639//694
f 643//698 642//699 640//697 641//696
f 630//687 632//689 643//698 641//696
f 216//270 425//700 642//699 643//698
f 632//689 204//254 216//270 643//698
f 645//701 644//702 426//272 217//271
f 424//259 635//691 645//701 217//271
f 647//703 646//704 644//702 645//701
f 635//691 636//693 647//703 645//701
f 649//705 648//706 646//704 647//703
f 636//693 638//695 649//705 647//703
f 651//707 650//708 648//706 649//705
f 638//695 640//697 651//707 649//705
f 653//709 652//710 650//708 651//707
f 640//697 642//699 653//709 651//707
f 428//711 427//712 652//710 653//709
f 642//699 425//700 428//711 653//709
f 654//713 481//514 228//286 429//285
f 426//272 644//702 654//713 429//288
f 476//512 477//511 481//514 654//713
f 644//702 646//704 476//512 654//713
f 481//514 479//516 230//289 228//286
f 479//516 480//515 430//290 230//289
f 480//515 655//714 431//291 430//290
f 480//515 477//511 478//510 655//714
f 652//710 427//712 431//291 655//714
f 478//510 650//708 652//710 655//714
f 478//510 475//513 648//706 650//708
f 475//513 476//512 646//704 648//706
f 657//715 656//716 232//294 233//293
f 42//47 499//539 657//715 233//293
f 659//717 658//718 656//716 657//715
f 499//539 501//541 659//717 657//715
f 661//719 660//720 658//718 659//717
f 501//541 662//721 661//719 659//717
f 664//722 663//723 661//719 662//721
f 504//544 506//546 664//722 662//721
f 501//541 502//540 504//544 662//721
f 666//724 665//725 663//723 664//722
f 506//546 508//548 666//724 664//722
f 246//307 245//306 665//725 666//724
f 508//548 54//60 246//307 666//724
f 668//726 667//727 247//309 248//308
f 232//294 656//716 668//726 248//308
f 670//728 669//729 667//727 668//726
f 656//716 658//718 670//728 668//726
f 672//730 671//731 669//729 670//728
f 658//718 660//720 672//730 670//728
f 674//732 673//733 671//731 672//730
f 660//720 675//734 674//732 672//730
f 677//735 676//736 674//732 675//734
f 663//723 665//725 677//735 675//734
f 660//720 661//719 663//723 675//734
f 433//322 432//321 676//736 677//735
f 665//725 245//306 433//322 677//735
f 679//737 678//738 434//324 435//323
f 247//309 667//727 679//737 435//323
f 681//739 680//740 678//738 679//737
f 667//727 669//729 681//739 679//737
f 683//741 682//742 680//740 681//739
f 669//729 671//731 683//741 681//739
f 685//743 684//744 682//742 683//741
f 671//731 673//733 685//743 683//741
f 687//745 686//746 684//744 685//743
f 673//733 688//747 687//745 685//743
f 437//337 436//336 687//745 688//747
f 676//736 432//321 437//337 688//747
f 673//733 674//732 676//736 688//747
f 438//338 686//746 687//745 436//336
f 690//748 689//749 439//340 440//339
f 434//324 678//738 690//748 440//339
f 692//750 691//751 689//749 690//748
f 678//738 680//740 692//750 690//748
f 694//752 693//753 691//751 692//750
f 680//740 682//742 694//752 692//750
f 696//754 695//755 693//756 694//752
f 682//742 684//744 696//754 694//752
f 698//757 697//758 695//755 696//754
f 684//744 686//746 698//757 696//754
f 271//353 282//352 697//758 698//757
f 686//746 438//338 271//353 698//757
f 283//355 699//759 697//758 282//352
f 283//355 286//357 700//760 699//759
f 701//761 695//755 697//758 699//759
f 700//760 702//762 701//761 699//759
f 700//760 704//763 703//764 702//762
f 706//765 705//766 701//761 702//765
f 703//767 707//767 706//765 702//765
f 703//767 709//768 708//768 707//767
f 711//769 710//770 706//771 707//772
f 708//773 712//774 711//769 707//772
f 708//773 714//775 713//776 712//774
f 716//777 715//778 711//769 712//774
f 713//776 717//779 716//777 712//774
f 713//776 719//780 718//781 717//779
f 306//380 441//379 716//777 717//779
f 718//781 442//381 306//380 717//779
f 718//781 720//782 307//382 442//381
f 722//783 721//784 443//385 309//384
f 307//382 720//782 722//783 309//384
f 724//785 723//786 721//784 722//783
f 720//782 725//787 724//785 722//783
f 727//788 726//789 724//785 725//787
f 719//780 728//790 727//788 725//787
f 720//782 718//781 719//780 725//787
f 730//791 729//792 727//792 728//791
f 714//793 731//793 730//791 728//791
f 719//780 713//776 714//775 728//790
f 733//794 732//795 730//796 731//797
f 709//798 734//799 733//794 731//797
f 714//793 708//768 709//768 731//793
f 444//404 324//403 733//794 734//799
f 704//763 325//405 444//404 734//799
f 709//798 703//764 704//763 734//799
f 704//763 700//760 286//357 325//405
f 736//800 735//801 445//407 446//406
f 439//340 689//749 736//800 446//406
f 737//802 710//770 735//801 736//800
f 689//749 691//751 737//802 736//800
f 705//803 706//771 710//770 737//802
f 691//751 693//753 705//803 737//802
f 710//770 711//769 715//778 735//801
f 715//778 447//412 445//407 735//801
f 715//778 716//777 441//379 447//412
f 739//804 738//805 329//414 330//413
f 443//385 721//784 739//804 330//413
f 741//806 740//807 738//805 739//804
f 721//784 723//786 741//806 739//804
f 743//808 742//809 740//807 741//806
f 723//786 744//810 743//808 741//806
f 746//811 745//812 743//813 744//814
f 726//815 747//816 746//811 744//814
f 723//786 724//785 726//789 744//810
f 749//817 748//818 746//811 747//816
f 729//819 750//820 749//817 747//816
f 726//815 727//792 729//792 747//816
f 449//433 448//432 749//817 750//820
f 732//795 344//434 449//433 750//820
f 729//819 730//796 732//795 750//820
f 732//795 733//794 324//403 344//434
f 752//821 751//822 346//436 347//435
f 329//414 738//805 752//821 347//435
f 754//823 753//824 751//822 752//821
f 738//805 740//807 754//823 752//821
f 756//825 755//826 753//824 754//823
f 740//807 742//809 756//825 754//823
f 758//827 757//828 755//829 756//830
f 742//831 759//832 758//827 756//830
f 761//833 760//834 758//827 759//832
f 745//812 762//835 761//833 759//832
f 742//831 743//813 745//812 759//832
f 345//453 360//452 761//833 762//835
f 748//818 450//454 345//453 762//835
f 745//812 746//811 748//818 762//835
f 451//455 760//834 761//833 360//452
f 764//836 763//837 361//457 362//456
f 346//436 751//822 764//836 362//456
f 766//838 765//839 763//837 764//836
f 751//822 753//824 766//838 764//836
f 768//840 767//841 765//839 766//838
f 753//824 755//826 768//840 766//838
f 770//842 769//843 767//841 768//840
f 755//829 757//828 770//842 768//840
f 772//844 771//845 769//843 770//842
f 757//828 773//846 772//844 770//842
f 453//470 452//469 772//844 773//846
f 760//834 451//455 453//470 773//846
f 757//828 758//827 760//834 773//846
f 454//471 771//845 772//844 452//469
f 775//847 774//848 455//849 456//472
f 361//457 763//837 775//847 456//472
f 777//850 776//851 774//848 775//847
f 763//837 765//839 777//850 775//847
f 779//852 778//853 776//851 777//850
f 765//839 767//841 779//852 777//850
f 781//854 780//855 778//853 779//852
f 767//841 769//843 781//854 779//852
f 783//856 782//857 780//855 781//854
f 769//843 771//845 783//856 781//854
f 458//485 457//484 782//857 783//856
f 771//845 454//471 458//485 783//856
f 384//487 784//858 782//857 457//484
f 384//487 386//488 467//500 784//858
f 785//859 780//855 782//857 784//858
f 467//500 468//499 785//859 784//858
f 786//860 778//853 780//855 785//859
f 468//499 471//505 786//860 785//859
f 787//861 776//851 778//853 786//860
f 471//505 472//508 787//861 786//860
f 788//862 774//848 776//851 787//861
f 472//508 473//507 788//862 787//861
f 459//493 455//849 774//848 788//862
f 473//507 460//494 459//493 788//862
f 473//507 474//506 461//495 460//494
f 474//506 470//503 391//497 461//496
f 470//503 466//501 392//498 391//497
f 466//501 467//500 386//488 392//498
f 748//818 749//817 448//432 450//454
f 693//756 695//755 701//761 705//766
f 492//531 486//521 487//520 497//534
