# pilowlava3D glyph 'm' variant 3 — Vincent Wagner / Velvetyne, Free Art License
v 5.29391 0.29557 -0.44365
v 4.83069 0.26308 -0.43824
v 0.94725 0.09600 -0.30693
v 3.86801 1.32320 -0.34396
v 2.18015 1.02617 -0.39112
v 1.18126 1.01548 -0.46464
v 4.64590 0.94152 -0.45685
v 4.68069 1.28885 -0.35359
v 3.13705 1.01712 -0.40968
v 2.05153 1.33289 -0.38945
v 5.06354 0.25150 -0.46096
v 5.03069 0.53870 -0.56917
v 5.34804 0.52085 -0.49826
v 5.39195 0.18105 -0.29214
v 5.08159 0.07023 -0.27431
v 5.58328 0.46804 -0.29043
v 4.74982 0.14639 -0.28385
v 4.55914 0.45833 -0.28445
v 4.74524 0.52731 -0.47961
v 0.96600 0.00524 -0.00000
v 1.26262 0.15612 -0.00000
v 1.13306 0.23062 -0.35678
v 0.57370 0.17737 -0.35666
v 0.78784 0.36671 -0.52070
v 3.67172 1.36552 -0.33309
v 3.71558 1.65565 -0.35642
v 3.84866 1.66318 -0.35326
v 3.94064 1.68015 -0.21787
v 3.99657 1.45543 -0.19312
v 4.18088 1.31737 -0.20604
v 4.15034 1.24097 -0.30101
v 4.12590 1.16358 -0.18874
v 3.87892 1.14815 -0.19932
v 3.57462 1.01215 -0.38512
v 3.47278 1.10536 -0.34087
v 3.64745 0.91184 -0.27016
v 2.13341 0.94365 -0.26737
v 1.86447 0.97007 -0.20484
v 1.92934 1.08899 -0.34277
v 2.26854 1.26836 -0.50231
v 2.48048 1.01110 -0.52567
v 2.33850 0.81320 -0.33683
v 0.96819 1.22710 -0.48410
v 1.13225 1.35526 -0.26390
v 1.28976 1.19377 -0.23974
v 1.28227 0.78221 -0.46041
v 1.03392 0.58320 -0.55271
v 0.85376 0.81309 -0.61021
v 1.52989 1.09025 -0.18016
v 1.53119 1.01675 -0.31354
v 0.71611 1.07277 -0.60365
v 4.39151 1.12886 -0.33766
v 4.42212 1.26070 -0.24710
v 4.49458 0.79209 -0.25058
v 4.35240 1.02707 -0.20961
v 5.02191 1.17101 -0.54900
v 5.00645 0.88995 -0.57651
v 4.42918 1.30731 -0.00000
v 4.80730 1.56735 -0.33749
v 5.07903 1.46629 -0.54113
v 3.31256 0.77611 -0.45490
v 2.82780 1.22694 -0.46059
v 2.98450 1.33485 -0.25195
v 3.18976 1.15779 -0.21609
v 3.42809 1.16432 -0.20036
v 3.18430 0.03939 -0.00000
v 2.95848 0.15708 -0.38340
v 1.98521 1.34426 -0.31730
v 1.99840 1.60814 -0.39303
v 2.19403 1.59502 -0.51687
v 1.81648 1.11517 -0.27743
v 1.78087 1.15075 -0.15462
v 1.89696 1.36893 -0.17266
v 1.56477 0.93488 -0.32698
v 1.59509 0.86818 -0.21310
v 1.40546 0.64802 -0.29957
v 1.28622 0.44304 -0.34119
v 1.60783 0.84025 -0.00000
v 1.47829 0.61299 -0.00000
v 1.39696 0.39637 -0.00000
v 2.25478 0.72317 -0.00000
v 2.53349 0.60637 -0.38041
v 2.37891 0.51564 -0.00000
v 3.42404 0.24919 -0.00000
v 3.57605 0.55528 -0.00000
v 3.69681 0.87036 -0.00000
v 3.47639 0.61151 -0.33366
v 3.86925 1.11080 -0.00000
v 4.33916 0.99556 -0.00000
v 4.43938 0.73428 -0.00000
v 4.48061 0.42444 -0.00000
v 4.70232 0.09494 -0.00000
v 5.08153 0.00000 -0.00000
v 5.44186 0.11437 -0.00000
v 5.67415 0.42535 -0.00000
v 5.61606 0.79307 -0.28801
v 5.72386 1.39173 -0.00000
v 5.61507 1.09702 -0.28924
v 5.61287 1.39526 -0.28481
v 5.36708 1.11000 -0.50829
v 5.38216 1.41042 -0.50232
v 5.40546 1.71202 -0.48945
v 5.62321 1.68844 -0.28122
v 5.72488 1.68437 -0.00000
v 5.63152 1.98051 -0.27224
v 5.72459 1.97631 -0.00000
v 4.82408 2.11906 -0.00000
v 4.75471 1.86140 -0.00000
v 4.68642 1.62474 -0.00000
v 4.87740 1.82475 -0.31847
v 4.93018 2.09181 -0.29544
v 5.15524 2.04667 -0.48569
v 5.12071 1.76525 -0.51385
v 5.43031 2.00281 -0.47032
v 5.19246 2.32478 -0.46671
v 5.45200 2.28645 -0.45650
v 5.63760 2.26752 -0.26346
v 5.47498 2.56896 -0.44305
v 5.64693 2.55152 -0.25792
v 4.97159 2.65148 -0.00000
v 4.89723 2.38501 -0.00000
v 5.05475 2.63233 -0.26302
v 4.98955 2.36241 -0.27759
v 5.23833 2.60162 -0.44714
v 5.12103 2.90056 -0.25458
v 5.28342 2.87414 -0.42606
v 5.49077 2.84931 -0.42631
v 5.32458 3.14824 -0.40591
v 5.50476 3.13125 -0.40952
v 5.64822 3.11908 -0.25352
v 5.65099 2.83566 -0.25738
v 5.71544 3.11776 -0.00000
v 5.18620 3.16741 -0.25185
v 5.24539 3.43276 -0.23798
v 5.36171 3.42363 -0.38392
v 5.29379 3.68756 -0.20352
v 5.38950 3.69623 -0.35203
v 5.52873 3.69993 -0.35488
v 5.52084 3.41300 -0.38929
v 5.62489 3.70084 -0.21300
v 5.64305 3.40670 -0.23948
v 5.66147 3.69836 -0.00000
v 5.69835 3.40416 -0.00000
v 5.29054 3.91407 -0.00000
v 5.30855 3.92462 -0.16220
v 5.21756 4.12232 -0.00000
v 4.38234 4.48485 -0.00000
v 4.03621 4.35851 -0.00000
v 4.75565 4.50077 -0.19662
v 4.41125 4.43853 -0.23691
v 4.08638 4.30189 -0.27249
v 4.48772 4.32580 -0.39305
v 4.21332 4.15924 -0.44453
v 3.99423 3.93731 -0.47502
v 3.80862 4.07251 -0.29200
v 3.73975 4.12542 -0.00000
v 3.61961 3.76978 -0.29905
v 3.53236 3.81134 -0.00000
v 4.82295 4.18433 -0.00000
v 5.03241 4.22711 -0.00000
v 4.82425 4.20781 -0.17978
v 5.03818 4.23732 -0.15193
v 5.22449 4.13029 -0.14517
v 5.05588 4.29032 -0.27840
v 5.26256 4.17105 -0.26788
v 5.37181 3.95656 -0.30019
v 5.34410 4.24939 -0.28799
v 5.48804 3.99231 -0.31306
v 5.38823 4.28980 -0.16873
v 5.55746 4.00522 -0.18312
v 5.57899 4.00767 -0.00000
v 5.09567 4.46567 -0.17198
v 5.08511 4.40071 -0.29308
v 4.78470 4.41787 -0.33348
v 4.81273 4.29193 -0.31973
v 4.57584 4.19357 -0.38820
v 4.65140 4.07555 -0.22634
v 4.52800 3.89774 -0.25934
v 4.37843 4.00438 -0.44219
v 4.43643 3.68493 -0.27537
v 4.24222 3.78271 -0.46668
v 4.36128 3.46109 -0.28161
v 4.14197 3.55026 -0.48363
v 3.84567 3.67315 -0.48892
v 4.06442 3.30200 -0.48919
v 3.76025 3.38555 -0.49435
v 3.52814 3.43989 -0.29373
v 3.71907 3.09149 -0.48216
v 3.49977 3.11707 -0.28623
v 3.43073 3.46355 -0.00000
v 4.52876 3.64636 -0.00000
v 4.28775 3.22907 -0.28055
v 4.31912 2.95522 -0.00000
v 4.21965 2.98736 -0.27565
v 4.00653 3.04122 -0.47569
v 4.15764 2.73309 -0.26930
v 3.96510 2.77167 -0.45832
v 3.71086 2.80064 -0.46007
v 3.92523 2.49534 -0.43669
v 3.71057 2.51420 -0.43765
v 3.54707 2.51953 -0.26404
v 3.52097 2.81089 -0.27105
v 3.46794 2.51808 -0.00000
v 3.43105 2.81066 -0.00000
v 4.24805 2.70713 -0.00000
v 4.09343 2.46991 -0.25992
v 4.09958 2.18781 -0.00000
v 4.02878 2.20644 -0.25577
v 3.88864 2.22208 -0.40956
v 3.97205 1.93969 -0.24258
v 3.86104 1.94163 -0.38127
v 3.71384 1.94626 -0.38463
v 3.71066 2.23126 -0.41007
v 3.59825 1.95040 -0.23985
v 3.57336 2.23484 -0.25686
v 3.50533 2.23468 -0.00000
v 3.97218 1.69031 -0.00000
v 4.01279 1.47218 -0.00000
v 4.19182 1.33193 -0.00000
v 3.42088 1.18225 -0.00000
v 3.61391 1.66019 -0.22157
v 3.58318 1.37601 -0.20663
v 3.20622 1.19788 -0.00000
v 3.04602 1.37745 -0.00000
v 2.84781 1.58187 -0.27145
v 1.45607 2.36998 -0.00000
v 1.58099 2.08080 -0.00000
v 1.44560 2.70499 -0.24683
v 1.52998 2.39365 -0.25083
v 1.39517 3.02312 -0.23862
v 1.55653 3.05117 -0.43411
v 1.61224 2.74805 -0.44787
v 1.38393 3.33579 -0.22786
v 1.53035 3.35419 -0.41472
v 1.73944 3.39415 -0.49413
v 1.78952 3.10333 -0.51856
v 1.41243 3.62722 -0.21145
v 1.53098 3.65029 -0.38312
v 1.69995 3.69189 -0.45562
v 1.86815 3.74084 -0.40520
v 1.95059 3.44485 -0.42911
v 1.48933 3.92574 -0.34243
v 1.61176 3.98375 -0.40893
v 1.73042 4.04926 -0.37331
v 1.82330 4.10668 -0.22405
v 1.99017 3.78619 -0.23723
v 1.41653 4.21833 -0.37056
v 1.48734 4.30189 -0.33765
v 1.55289 4.37264 -0.19158
v 1.86020 4.12496 -0.00000
v 1.17210 4.44412 -0.29868
v 1.19766 4.50897 -0.16038
v 0.82503 4.50832 -0.14661
v 0.42293 3.44077 -0.00000
v 0.39966 3.71068 -0.00000
v 0.45898 3.16997 -0.19529
v 0.40274 3.44366 -0.16043
v 0.54547 2.89551 -0.21202
v 0.44748 2.87245 -0.37086
v 0.37755 3.15913 -0.34253
v 0.69992 2.63997 -0.00000
v 0.64931 2.62002 -0.21890
v 0.53099 2.58857 -0.39104
v 0.36301 2.55326 -0.45739
v 0.30997 2.84685 -0.42829
v 0.74867 2.34376 -0.22795
v 0.61453 2.30445 -0.41274
v 0.41702 2.26156 -0.49071
v 0.21385 2.22384 -0.41972
v 0.19067 2.52390 -0.39881
v 0.69077 2.02209 -0.43511
v 0.47151 1.96807 -0.51996
v 0.24455 1.92060 -0.44728
v 0.08072 1.89389 -0.25175
v 0.07095 2.20240 -0.23483
v 0.52849 1.66941 -0.55479
v 0.28130 1.60952 -0.47882
v 0.09668 1.57646 -0.27086
v 0.00909 1.56879 -0.00000
v 0.00571 1.88855 -0.00000
v 0.33369 1.28328 -0.51173
v 0.11722 1.23666 -0.29489
v 0.01456 1.22413 -0.00000
v 0.16942 0.87626 -0.31168
v 0.28468 0.50283 -0.33027
v 0.42081 0.94986 -0.53967
v 0.54622 0.64059 -0.54807
v 0.59958 1.36574 -0.57782
v 0.76521 1.74203 -0.46053
v 0.84521 1.46991 -0.47597
v 0.93237 1.81021 -0.25469
v 1.02286 1.56747 -0.26389
v 1.10933 1.61590 -0.00000
v 1.20714 1.41216 -0.00000
v 1.76932 1.16949 -0.00000
v 1.86726 1.60003 -0.20860
v 1.77779 1.84879 -0.23047
v 1.92490 1.89458 -0.42700
v 2.14510 1.96765 -0.54877
v 1.65358 2.10910 -0.24382
v 1.81364 2.16847 -0.44570
v 2.04655 2.25874 -0.55144
v 2.30344 2.35591 -0.48511
v 2.41344 2.06832 -0.49255
v 1.69843 2.45127 -0.45562
v 1.94287 2.53733 -0.55033
v 2.20137 2.62708 -0.47399
v 2.38989 2.69355 -0.26615
v 2.49707 2.42571 -0.27319
v 1.85704 2.81762 -0.54079
v 2.11154 2.89543 -0.46550
v 2.29041 2.95665 -0.25932
v 2.37553 2.98873 -0.00000
v 2.48265 2.72765 -0.00000
v 2.02834 3.16664 -0.44911
v 2.19414 3.22110 -0.25141
v 2.27052 3.25103 -0.00000
v 2.09619 3.49138 -0.24369
v 2.04388 3.80800 -0.00000
v 1.10695 4.20400 -0.00000
v 1.30302 4.07530 -0.00000
v 0.86339 4.23198 -0.00000
v 0.86270 4.23823 -0.11792
v 1.10912 4.21127 -0.13081
v 0.62520 4.15913 -0.11286
v 0.60881 4.18358 -0.22887
v 0.85600 4.27313 -0.24074
v 0.45772 3.96923 -0.11768
v 0.43550 3.98609 -0.23497
v 0.36612 4.02963 -0.31663
v 0.56682 4.24697 -0.31238
v 0.38887 3.71519 -0.13068
v 0.35004 3.72906 -0.26164
v 0.26587 3.75002 -0.33649
v 0.16631 3.76782 -0.29004
v 0.28070 4.07945 -0.26909
v 0.34195 3.44854 -0.30430
v 0.24303 3.44929 -0.36747
v 0.13432 3.44832 -0.32516
v 0.05978 3.44538 -0.17993
v 0.10922 3.77563 -0.15627
v 0.26457 3.14607 -0.39737
v 0.14484 3.13331 -0.35698
v 0.05058 3.12327 -0.20736
v 0.00658 3.12162 -0.00000
v 0.03069 3.44501 -0.00000
v 0.16846 2.82435 -0.38133
v 0.05280 2.81078 -0.22047
v 0.00000 2.81350 -0.00000
v 0.05984 2.50722 -0.22380
v 0.80861 2.36621 -0.00000
v 0.09245 3.77927 -0.00000
v 0.23801 4.10518 -0.14439
v 0.48228 4.37442 -0.14268
v 0.51012 4.33163 -0.26884
v 0.82918 4.45625 -0.27422
v 0.84212 4.35916 -0.31927
v 1.14229 4.34110 -0.33689
v 1.12045 4.25690 -0.26332
v 1.34991 4.13706 -0.30129
v 1.31068 4.08566 -0.15215
v 1.40892 3.87904 -0.18457
v 1.38055 3.86370 -0.00000
v 1.35979 3.62614 -0.00000
v 2.59271 2.46033 -0.00000
v 2.61029 2.14749 -0.27746
v 2.72800 1.86257 -0.27806
v 2.52576 1.76247 -0.49225
v 2.63437 1.46340 -0.48869
v 0.84277 2.07165 -0.24160
v 5.36197 0.82866 -0.51684
v 3.28467 0.35509 -0.39822
v 3.03387 0.56938 -0.53005
v 2.71103 0.39426 -0.42159
v 2.80847 0.77953 -0.55150
v 4.59146 1.39952 -0.00000
v 1.85915 0.94377 -0.00000
v 2.10651 0.89077 -0.00000
v 4.12164 1.14584 -0.00000
v 5.72745 0.77781 -0.00000
v 5.72853 1.09256 -0.00000
v 5.72173 2.54713 -0.00000
v 5.72189 2.26332 -0.00000
v 5.72148 2.83435 -0.00000
v 5.11763 3.18470 -0.00000
v 5.04596 2.92115 -0.00000
v 5.18756 3.44017 -0.00000
v 5.25409 3.68212 -0.00000
v 4.74341 4.52950 -0.00000
v 4.67807 4.03680 -0.00000
v 5.39986 4.29997 -0.00000
v 5.09708 4.48324 -0.00000
v 3.40511 3.12390 -0.00000
v 4.46098 3.42442 -0.00000
v 4.59380 3.85416 -0.00000
v 4.38985 3.19371 -0.00000
v 4.17392 2.45040 -0.00000
v 3.54440 1.95235 -0.00000
v 4.02814 1.93643 -0.00000
v 3.55974 1.38010 -0.00000
v 3.57581 1.66412 -0.00000
v 2.93604 1.62658 -0.00000
v 1.36879 2.68808 -0.00000
v 1.32329 3.01475 -0.00000
v 1.32143 3.33701 -0.00000
v 1.57367 4.38935 -0.00000
v 1.20578 4.52297 -0.00000
v 0.82489 4.52032 -0.00000
v 0.49246 3.17748 -0.00000
v 0.58931 2.91240 -0.00000
v 0.05157 0.84898 -0.00000
v 0.16180 0.43492 -0.00000
v 0.50090 0.05249 -0.00000
v 1.01318 1.84723 -0.00000
v 1.33180 1.24545 -0.00000
v 1.53226 1.12203 -0.00000
v 1.85587 1.37580 -0.00000
v 1.81033 1.59326 -0.00000
v 1.70895 1.82574 -0.00000
v 2.16389 3.51890 -0.00000
v 0.62735 4.15472 -0.00000
v 0.46194 3.96485 -0.00000
v 0.00142 2.50396 -0.00000
v 0.91351 2.10027 -0.00000
v 0.22795 4.11143 -0.00000
v 0.47649 4.38375 -0.00000
v 2.70610 2.18621 -0.00000
v 2.82301 1.90469 -0.00000
v 0.00514 2.19793 -0.00000
v 2.70035 0.09870 -0.00000
v 2.50990 0.29603 -0.00000
v 5.29391 0.29557 0.44365
v 4.83069 0.26308 0.43824
v 0.94725 0.09600 0.30693
v 3.86801 1.32320 0.34396
v 2.18015 1.02617 0.39112
v 1.18126 1.01548 0.46464
v 4.64590 0.94152 0.45685
v 4.68069 1.28885 0.35359
v 3.13705 1.01712 0.40968
v 2.05153 1.33289 0.38945
v 5.06354 0.25150 0.46096
v 5.03069 0.53870 0.56917
v 5.34804 0.52085 0.49826
v 5.39195 0.18105 0.29214
v 5.08159 0.07023 0.27431
v 5.58328 0.46804 0.29043
v 4.74982 0.14639 0.28385
v 4.55914 0.45833 0.28445
v 4.74524 0.52731 0.47961
v 1.13306 0.23062 0.35678
v 0.57370 0.17737 0.35666
v 0.78784 0.36671 0.52070
v 3.67172 1.36552 0.33309
v 3.71558 1.65565 0.35642
v 3.84866 1.66318 0.35326
v 3.94064 1.68015 0.21787
v 3.99657 1.45543 0.19312
v 4.18088 1.31737 0.20604
v 4.15034 1.24097 0.30101
v 4.12590 1.16358 0.18874
v 3.87892 1.14815 0.19932
v 3.57462 1.01215 0.38512
v 3.47278 1.10536 0.34087
v 3.64745 0.91184 0.27016
v 2.13341 0.94365 0.26737
v 1.86447 0.97007 0.20484
v 1.92934 1.08899 0.34277
v 2.26854 1.26836 0.50231
v 2.48048 1.01110 0.52567
v 2.33850 0.81320 0.33683
v 0.96819 1.22710 0.48410
v 1.13225 1.35526 0.26390
v 1.28976 1.19377 0.23974
v 1.28227 0.78221 0.46041
v 1.03392 0.58320 0.55271
v 0.85376 0.81309 0.61021
v 1.52989 1.09025 0.18016
v 1.53119 1.01675 0.31354
v 0.71611 1.07277 0.60365
v 4.39151 1.12886 0.33766
v 4.42212 1.26070 0.24710
v 4.49458 0.79209 0.25058
v 4.35240 1.02707 0.20961
v 5.02191 1.17101 0.54900
v 5.00645 0.88995 0.57651
v 4.80730 1.56735 0.33749
v 5.07903 1.46629 0.54113
v 3.31256 0.77611 0.45490
v 2.82780 1.22694 0.46059
v 2.98450 1.33485 0.25195
v 3.18976 1.15779 0.21609
v 3.42809 1.16432 0.20036
v 2.95848 0.15708 0.38340
v 1.98521 1.34426 0.31730
v 1.99840 1.60814 0.39303
v 2.19403 1.59502 0.51687
v 1.81648 1.11517 0.27743
v 1.78087 1.15075 0.15462
v 1.89696 1.36893 0.17266
v 1.56477 0.93488 0.32698
v 1.59509 0.86818 0.21310
v 1.40546 0.64802 0.29957
v 1.28622 0.44304 0.34119
v 2.53349 0.60637 0.38041
v 3.47639 0.61151 0.33366
v 5.61606 0.79307 0.28801
v 5.61507 1.09702 0.28924
v 5.61287 1.39526 0.28481
v 5.36708 1.11000 0.50829
v 5.38216 1.41042 0.50232
v 5.40546 1.71202 0.48945
v 5.62321 1.68844 0.28122
v 5.63152 1.98051 0.27224
v 4.87740 1.82475 0.31847
v 4.93018 2.09181 0.29544
v 5.15524 2.04667 0.48569
v 5.12071 1.76525 0.51385
v 5.43031 2.00281 0.47032
v 5.19246 2.32478 0.46671
v 5.45200 2.28645 0.45650
v 5.63760 2.26752 0.26346
v 5.47498 2.56896 0.44305
v 5.64693 2.55152 0.25792
v 5.05475 2.63233 0.26302
v 4.98955 2.36241 0.27759
v 5.23833 2.60162 0.44714
v 5.12103 2.90056 0.25458
v 5.28342 2.87414 0.42606
v 5.49077 2.84931 0.42631
v 5.32458 3.14824 0.40591
v 5.50476 3.13125 0.40952
v 5.64822 3.11908 0.25352
v 5.65099 2.83566 0.25738
v 5.18620 3.16741 0.25185
v 5.24539 3.43276 0.23798
v 5.36171 3.42363 0.38392
v 5.29379 3.68756 0.20352
v 5.38950 3.69623 0.35203
v 5.52873 3.69993 0.35488
v 5.52084 3.41300 0.38929
v 5.62489 3.70084 0.21300
v 5.64305 3.40670 0.23948
v 5.30855 3.92462 0.16220
v 4.75565 4.50077 0.19662
v 4.41125 4.43853 0.23691
v 4.08638 4.30189 0.27249
v 4.48772 4.32580 0.39305
v 4.21332 4.15924 0.44453
v 3.99423 3.93731 0.47502
v 3.80862 4.07251 0.29200
v 3.61961 3.76978 0.29905
v 4.82425 4.20781 0.17978
v 5.03818 4.23732 0.15193
v 5.22449 4.13029 0.14517
v 5.05588 4.29032 0.27840
v 5.26256 4.17105 0.26788
v 5.37181 3.95656 0.30019
v 5.34410 4.24939 0.28799
v 5.48804 3.99231 0.31306
v 5.38823 4.28980 0.16873
v 5.55746 4.00522 0.18312
v 5.09567 4.46567 0.17198
v 5.08511 4.40071 0.29308
v 4.78470 4.41787 0.33348
v 4.81273 4.29193 0.31973
v 4.57584 4.19357 0.38820
v 4.65140 4.07555 0.22634
v 4.52800 3.89774 0.25934
v 4.37843 4.00438 0.44219
v 4.43643 3.68493 0.27537
v 4.24222 3.78271 0.46668
v 4.36128 3.46109 0.28161
v 4.14197 3.55026 0.48363
v 3.84567 3.67315 0.48892
v 4.06442 3.30200 0.48919
v 3.76025 3.38555 0.49435
v 3.52814 3.43989 0.29373
v 3.71907 3.09149 0.48216
v 3.49977 3.11707 0.28623
v 4.28775 3.22907 0.28055
v 4.21965 2.98736 0.27565
v 4.00653 3.04122 0.47569
v 4.15764 2.73309 0.26930
v 3.96510 2.77167 0.45832
v 3.71086 2.80064 0.46007
v 3.92523 2.49534 0.43669
v 3.71057 2.51420 0.43765
v 3.54707 2.51953 0.26404
v 3.52097 2.81089 0.27105
v 4.09343 2.46991 0.25992
v 4.02878 2.20644 0.25577
v 3.88864 2.22208 0.40956
v 3.97205 1.93969 0.24258
v 3.86104 1.94163 0.38127
v 3.71384 1.94626 0.38463
v 3.71066 2.23126 0.41007
v 3.59825 1.95040 0.23985
v 3.57336 2.23484 0.25686
v 3.61391 1.66019 0.22157
v 3.58318 1.37601 0.20663
v 2.84781 1.58187 0.27145
v 1.44560 2.70499 0.24683
v 1.52998 2.39365 0.25083
v 1.39517 3.02312 0.23862
v 1.55653 3.05117 0.43411
v 1.61224 2.74805 0.44787
v 1.38393 3.33579 0.22786
v 1.53035 3.35419 0.41472
v 1.73944 3.39415 0.49413
v 1.78952 3.10333 0.51856
v 1.41243 3.62722 0.21145
v 1.53098 3.65029 0.38312
v 1.69995 3.69189 0.45562
v 1.86815 3.74084 0.40520
v 1.95059 3.44485 0.42911
v 1.48933 3.92574 0.34243
v 1.61176 3.98375 0.40893
v 1.73042 4.04926 0.37331
v 1.82330 4.10668 0.22405
v 1.99017 3.78619 0.23723
v 1.41653 4.21833 0.37056
v 1.48734 4.30189 0.33765
v 1.55289 4.37264 0.19158
v 1.17210 4.44412 0.29868
v 1.19766 4.50897 0.16038
v 0.82503 4.50832 0.14661
v 0.45898 3.16997 0.19529
v 0.40274 3.44366 0.16043
v 0.54547 2.89551 0.21202
v 0.44748 2.87245 0.37086
v 0.37755 3.15913 0.34253
v 0.64931 2.62002 0.21890
v 0.53099 2.58857 0.39104
v 0.36301 2.55326 0.45739
v 0.30997 2.84685 0.42829
v 0.74867 2.34376 0.22795
v 0.61453 2.30445 0.41274
v 0.41702 2.26156 0.49071
v 0.21385 2.22384 0.41972
v 0.19067 2.52390 0.39881
v 0.69077 2.02209 0.43511
v 0.47151 1.96807 0.51996
v 0.24455 1.92060 0.44728
v 0.08072 1.89389 0.25175
v 0.07095 2.20240 0.23483
v 0.52849 1.66941 0.55479
v 0.28130 1.60952 0.47882
v 0.09668 1.57646 0.27086
v 0.33369 1.28328 0.51173
v 0.11722 1.23666 0.29489
v 0.16942 0.87626 0.31168
v 0.28468 0.50283 0.33027
v 0.42081 0.94986 0.53967
v 0.54622 0.64059 0.54807
v 0.59958 1.36574 0.57782
v 0.76521 1.74203 0.46053
v 0.84521 1.46991 0.47597
v 0.93237 1.81021 0.25469
v 1.02286 1.56747 0.26389
v 1.86726 1.60003 0.20860
v 1.77779 1.84879 0.23047
v 1.92490 1.89458 0.42700
v 2.14510 1.96765 0.54877
v 1.65358 2.10910 0.24382
v 1.81364 2.16847 0.44570
v 2.04655 2.25874 0.55144
v 2.30344 2.35591 0.48511
v 2.41344 2.06832 0.49255
v 1.69843 2.45127 0.45562
v 1.94287 2.53733 0.55033
v 2.20137 2.62708 0.47399
v 2.38989 2.69355 0.26615
v 2.49707 2.42571 0.27319
v 1.85704 2.81762 0.54079
v 2.11154 2.89543 0.46550
v 2.29041 2.95665 0.25932
v 2.02834 3.16664 0.44911
v 2.19414 3.22110 0.25141
v 2.09619 3.49138 0.24369
v 0.86270 4.23823 0.11792
v 1.10912 4.21127 0.13081
v 0.62520 4.15913 0.11286
v 0.60881 4.18358 0.22887
v 0.85600 4.27313 0.24074
v 0.45772 3.96923 0.11768
v 0.43550 3.98609 0.23497
v 0.36612 4.02963 0.31663
v 0.56682 4.24697 0.31238
v 0.38887 3.71519 0.13068
v 0.35004 3.72906 0.26164
v 0.26587 3.75002 0.33649
v 0.16631 3.76782 0.29004
v 0.28070 4.07945 0.26909
v 0.34195 3.44854 0.30430
v 0.24303 3.44929 0.36747
v 0.13432 3.44832 0.32516
v 0.05978 3.44538 0.17993
v 0.10922 3.77563 0.15627
v 0.26457 3.14607 0.39737
v 0.14484 3.13331 0.35698
v 0.05058 3.12327 0.20736
v 0.16846 2.82435 0.38133
v 0.05280 2.81078 0.22047
v 0.05984 2.50722 0.22380
v 0.23801 4.10518 0.14439
v 0.48228 4.37442 0.14268
v 0.51012 4.33163 0.26884
v 0.82918 4.45625 0.27422
v 0.84212 4.35916 0.31927
v 1.14229 4.34110 0.33689
v 1.12045 4.25690 0.26332
v 1.34991 4.13706 0.30129
v 1.31068 4.08566 0.15215
v 1.40892 3.87904 0.18457
v 2.61029 2.14749 0.27746
v 2.72800 1.86257 0.27806
v 2.52576 1.76247 0.49225
v 2.63437 1.46340 0.48869
v 0.84277 2.07165 0.24160
v 5.36197 0.82866 0.51684
v 3.28467 0.35509 0.39822
v 3.03387 0.56938 0.53005
v 2.71103 0.39426 0.42159
v 2.80847 0.77953 0.55150
vn 0.33889 -0.47189 -0.81393
vn 0.01160 -0.53169 -0.84686
vn -0.03984 -0.16523 -0.98545
vn 0.42273 -0.19548 -0.88492
vn 0.51268 -0.68238 -0.52107
vn 0.04065 -0.87667 -0.47937
vn 0.78557 -0.28483 -0.54932
vn -0.34350 -0.48643 -0.80336
vn -0.50184 -0.70679 -0.49860
vn -0.82519 -0.29220 -0.48341
vn -0.49518 -0.20065 -0.84530
vn 0.14196 -0.84097 -0.52213
vn 0.46521 -0.61145 -0.64008
vn 0.69018 -0.72363 0.00249
vn 0.18767 -0.98222 0.00507
vn -0.32892 -0.68456 -0.65053
vn 0.00217 -0.38964 -0.92096
vn -0.07188 0.06082 -0.99556
vn 0.00389 -0.07833 -0.99692
vn 0.78300 0.08218 -0.61657
vn 0.79719 -0.02131 -0.60335
vn 0.91965 -0.00292 -0.39272
vn 0.91065 0.14938 -0.38524
vn 0.35864 0.61183 -0.70501
vn 0.51057 0.74494 -0.42940
vn 0.33285 0.82393 -0.45865
vn 0.23900 0.63704 -0.73285
vn 0.32188 -0.62370 -0.71231
vn -0.21776 -0.72399 -0.65454
vn -0.23587 -0.87756 -0.41743
vn 0.41345 -0.78503 -0.46129
vn -0.05081 0.24864 -0.96726
vn 0.73765 -0.45138 -0.50212
vn 0.57770 -0.35099 -0.73693
vn -0.36291 -0.58631 -0.72425
vn -0.41968 -0.77281 -0.47607
vn 0.06376 -0.91446 -0.39963
vn -0.10262 -0.70454 -0.70221
vn -0.41776 -0.46441 -0.78090
vn -0.60896 -0.55226 -0.56937
vn -0.33573 -0.49770 -0.79974
vn 0.40150 0.35722 -0.84332
vn 0.46776 0.31144 -0.82717
vn 0.71456 0.47387 -0.51463
vn 0.55433 0.69708 -0.45475
vn 0.50063 -0.11348 -0.85819
vn 0.33661 -0.19368 -0.92151
vn 0.11373 0.00625 -0.99349
vn 0.11194 0.92682 -0.35843
vn 0.09639 0.64066 -0.76175
vn 0.05416 0.09029 -0.99444
vn -0.51403 0.03157 -0.85719
vn -0.09216 0.56626 -0.81906
vn -0.53146 0.32465 -0.78240
vn -0.84885 -0.26739 -0.45602
vn -0.67840 -0.60673 -0.41432
vn -0.56951 -0.53103 -0.62742
vn -0.15366 0.12060 -0.98074
vn -0.08821 0.05144 -0.99477
vn -0.73539 0.26686 -0.62288
vn -0.21877 0.11549 -0.96892
vn -0.36942 0.89509 -0.24970
vn -0.11443 0.97349 -0.19803
vn -0.10228 0.99472 0.00815
vn -0.35986 0.93289 0.01472
vn 0.18762 0.46342 -0.86605
vn 0.31174 0.02822 -0.94975
vn 0.37122 0.30041 -0.87861
vn 0.70177 0.51838 -0.48868
vn 0.33173 0.85223 -0.40454
vn -0.01056 0.94981 -0.31265
vn -0.04951 0.87574 -0.48024
vn -0.66930 0.11259 -0.73441
vn -0.73915 0.11630 -0.66342
vn -0.68966 -0.17642 -0.70232
vn -0.36673 -0.02120 -0.93009
vn -0.52055 0.30838 -0.79620
vn -0.47097 0.55415 -0.68637
vn -0.75632 0.17914 -0.62919
vn -0.21261 0.93526 -0.28299
vn -0.84324 0.43329 -0.31811
vn -0.91628 0.14024 -0.37519
vn 0.09947 0.35808 -0.92838
vn 0.48134 -0.63852 -0.60050
vn 0.56869 -0.72111 -0.39571
vn 0.76020 -0.42756 -0.48917
vn 0.69694 -0.39697 -0.59723
vn 0.62883 -0.77754 0.00230
vn 0.87674 -0.48096 0.00179
vn 0.88463 -0.46629 -0.00064
vn 0.10266 -0.99472 0.00075
vn -0.44161 -0.89720 0.00213
vn -0.75098 -0.66031 0.00354
vn -0.59425 -0.42610 -0.68214
vn -0.75492 -0.51027 -0.41196
vn 0.85255 -0.52265 -0.00240
vn 0.89469 -0.44669 0.00111
vn 0.71007 -0.33595 -0.61882
vn 0.77699 -0.62949 -0.00572
vn 0.10295 -0.99469 0.00054
vn -0.23567 -0.97183 0.00033
vn -0.75341 -0.65755 0.00044
vn -0.95692 -0.29034 0.00089
vn -0.93608 -0.35178 0.00109
vn -0.84153 -0.54021 0.00112
vn -0.23016 -0.97315 -0.00111
vn 0.04217 -0.99911 -0.00103
vn 0.59349 -0.80484 -0.00144
vn 0.93197 -0.36254 -0.00159
vn 0.82234 -0.04640 -0.56710
vn 0.99803 -0.06268 -0.00058
vn 0.93159 0.00629 -0.36346
vn 0.82288 0.00419 -0.56821
vn 0.82876 -0.00578 -0.55958
vn 0.93377 -0.00123 -0.35788
vn 0.42231 0.01811 -0.90627
vn 0.42112 0.01125 -0.90693
vn 0.41891 0.02745 -0.90761
vn 0.83761 -0.01229 -0.54614
vn 0.99992 -0.01268 0.00000
vn 0.84741 -0.00530 -0.53092
vn 0.99999 -0.00456 -0.00001
vn -0.87379 0.32423 -0.36244
vn -0.89824 0.24559 -0.36448
vn -0.76996 0.21890 -0.59936
vn -0.85276 0.38338 -0.35472
vn -0.96902 0.24697 0.00007
vn -0.79086 0.20601 -0.57629
vn -0.62069 0.16618 -0.76624
vn -0.58597 0.17637 -0.79090
vn 0.09965 0.06389 -0.99297
vn 0.06936 0.06304 -0.99560
vn 0.41243 0.03053 -0.91048
vn 0.04578 0.05383 -0.99750
vn 0.71840 -0.01250 -0.69552
vn 0.85842 -0.00985 -0.51285
vn 0.72738 -0.01153 -0.68614
vn 0.86734 -0.01071 -0.49760
vn 0.99995 -0.00978 0.00003
vn 0.99998 -0.00701 0.00000
vn -0.96677 0.25565 0.00000
vn -0.96590 0.25891 -0.00004
vn -0.82232 0.21969 -0.52491
vn -0.80808 0.21346 -0.54904
vn -0.67896 0.18061 -0.71162
vn -0.65229 0.17192 -0.73822
vn -0.83619 0.21527 -0.50442
vn -0.70173 0.17543 -0.69051
vn 0.02633 0.06047 -0.99782
vn 0.00654 0.06657 -0.99776
vn -0.01206 0.07253 -0.99729
vn 0.73010 0.00310 -0.68334
vn 0.74400 0.01718 -0.66796
vn 0.88099 0.02424 -0.47252
vn 0.87241 0.00432 -0.48876
vn 0.99952 0.03113 -0.00002
vn 0.99998 0.00548 0.00002
vn -0.96710 0.25440 -0.00004
vn -0.96842 0.24933 0.00011
vn -0.85265 0.21172 -0.47766
vn -0.96986 0.24365 0.00046
vn -0.87718 0.21498 -0.42936
vn -0.77179 0.18200 -0.60927
vn -0.72820 0.17204 -0.66342
vn -0.92048 0.15955 -0.35673
vn -0.84056 0.13651 -0.52423
vn -0.02259 0.09854 -0.99488
vn -0.05928 0.14000 -0.98838
vn 0.77905 0.05077 -0.62490
vn 0.81885 0.14438 -0.55555
vn 0.91506 0.16137 -0.36962
vn 0.89943 0.06316 -0.43248
vn 0.98482 0.17356 0.00011
vn 0.99729 0.07357 -0.00002
vn -0.98353 0.18075 -0.00003
vn -0.99290 -0.11893 -0.00046
vn -0.94713 -0.12714 -0.29457
vn -0.24777 0.96882 0.00004
vn -0.00918 0.99996 0.00032
vn -0.00298 0.93698 -0.34937
vn -0.21926 0.87502 -0.43158
vn -0.41717 0.75218 -0.51010
vn -0.49291 0.87008 -0.00007
vn -0.18364 0.75410 -0.63057
vn -0.32734 0.60743 -0.72380
vn -0.21217 0.25690 -0.94286
vn -0.61154 0.56253 -0.55640
vn -0.74008 0.67252 -0.00009
vn -0.74733 0.33928 -0.57130
vn -0.91111 0.41217 -0.00029
vn -0.17030 -0.98539 0.00017
vn 0.44104 -0.89748 0.00128
vn 0.40042 -0.85626 -0.32631
vn -0.16950 -0.94771 -0.27039
vn -0.72814 -0.63216 -0.26492
vn -0.76056 -0.64927 -0.00010
vn -0.16479 -0.88272 -0.44006
vn -0.67683 -0.59770 -0.42971
vn -0.88070 -0.12978 -0.45554
vn -0.13509 0.09429 -0.98634
vn -0.11579 -0.06380 -0.99122
vn 0.80405 0.34436 -0.48469
vn 0.62510 0.63458 -0.45448
vn 0.67573 0.68147 -0.28104
vn 0.87629 0.37030 -0.30821
vn 0.70628 0.70793 -0.00009
vn 0.92259 0.38577 0.00004
vn 0.31589 0.90174 -0.29508
vn 0.32625 0.94528 0.00014
vn 0.29610 0.83047 -0.47185
vn 0.00444 0.84563 -0.53375
vn 0.18533 -0.04838 -0.98149
vn 0.04605 -0.14093 -0.98895
vn 0.18729 0.06442 -0.98019
vn 0.58965 -0.52006 -0.61793
vn 0.34245 -0.78716 -0.51294
vn 0.69961 -0.57934 -0.41821
vn 0.77878 -0.37372 -0.50381
vn 0.63415 -0.32853 -0.69995
vn 0.11269 0.08166 -0.99027
vn 0.78709 -0.27538 -0.55196
vn 0.36755 -0.09640 -0.92500
vn 0.78415 -0.24618 -0.56965
vn 0.35194 -0.09017 -0.93167
vn -0.28069 0.15091 -0.94786
vn 0.01561 -0.01724 -0.99973
vn -0.32787 0.05088 -0.94335
vn -0.81299 0.14499 -0.56393
vn -0.67251 -0.00399 -0.74008
vn -0.83789 -0.00368 -0.54583
vn -0.99999 -0.00327 -0.00004
vn -0.98450 0.17538 -0.00017
vn 0.91192 -0.41036 -0.00076
vn 0.94783 -0.31878 0.00056
vn 0.78559 -0.61874 -0.00018
vn 0.89324 -0.28072 -0.35116
vn 0.89412 -0.27123 -0.35634
vn 0.78749 -0.23729 -0.56881
vn 0.96261 -0.27090 0.00005
vn 0.79941 -0.22141 -0.55851
vn 0.65266 -0.17661 -0.73678
vn 0.63545 -0.18967 -0.74848
vn 0.81523 -0.21414 -0.53810
vn 0.67519 -0.16969 -0.71786
vn 0.00686 -0.05961 -0.99820
vn 0.00118 -0.07435 -0.99723
vn -0.00270 -0.08780 -0.99613
vn -0.70243 -0.06325 -0.70893
vn -0.72602 -0.07138 -0.68396
vn -0.86234 -0.09228 -0.49784
vn -0.84895 -0.08036 -0.52232
vn -0.99360 -0.11293 -0.00003
vn -0.99524 -0.09747 -0.00003
vn 0.96516 -0.26167 -0.00000
vn 0.96555 -0.26023 -0.00007
vn 0.83117 -0.21648 -0.51215
vn 0.96767 -0.25222 0.00029
vn 0.85193 -0.21205 -0.47879
vn 0.72805 -0.16972 -0.66418
vn 0.69847 -0.17365 -0.69425
vn 0.88681 -0.18103 -0.42520
vn 0.77489 -0.14565 -0.61508
vn 0.00283 -0.09609 -0.99537
vn 0.01668 -0.09667 -0.99518
vn -0.74869 -0.08058 -0.65800
vn -0.77556 -0.07967 -0.62623
vn -0.89729 -0.09265 -0.43161
vn -0.87813 -0.09971 -0.46792
vn -0.99465 -0.10326 -0.00001
vn -0.99312 -0.11714 0.00002
vn 0.97702 -0.21314 -0.00022
vn 0.99990 0.01409 -0.00086
vn 0.97861 0.20573 -0.00065
vn 0.60582 0.79560 -0.00010
vn 0.39289 0.91959 0.00057
vn -0.93920 0.34338 -0.00020
vn -0.99999 -0.00416 -0.00000
vn -0.91835 -0.00415 -0.39574
vn -0.87693 0.33020 -0.34922
vn -0.77084 0.56295 -0.29814
vn -0.81329 0.58186 -0.00046
vn -0.79926 -0.00400 -0.60097
vn -0.77436 0.30207 -0.55599
vn -0.69804 0.52165 -0.49054
vn 0.02717 0.99963 0.00241
vn 0.71235 0.70182 0.00309
vn 0.81646 0.57740 0.00190
vn 0.76612 0.34748 -0.54066
vn 0.91303 0.40789 0.00034
vn -0.97926 -0.20263 0.00006
vn -0.85743 -0.17520 -0.48385
vn -0.82406 -0.29058 -0.48629
vn -0.94332 -0.33188 0.00000
vn -0.99683 -0.07960 -0.00005
vn -0.87900 -0.07040 -0.47159
vn -0.57819 -0.02961 -0.81536
vn -0.56157 -0.09997 -0.82137
vn -0.99858 0.05326 -0.00007
vn -0.89498 0.04480 -0.44386
vn -0.60393 0.04625 -0.79569
vn -0.06244 0.10264 -0.99276
vn -0.05230 0.07177 -0.99605
vn -0.91797 0.06480 -0.39132
vn -0.65206 0.05427 -0.75622
vn -0.10125 0.12586 -0.98687
vn 0.49831 0.26387 -0.82587
vn 0.51050 0.21225 -0.83327
vn -0.68967 -0.14451 -0.70955
vn -0.15957 0.08210 -0.98377
vn 0.42336 0.39048 -0.81749
vn 0.72185 0.56852 -0.39462
vn 0.81801 0.37759 -0.43392
vn 0.08569 0.30314 -0.94908
vn 0.27243 0.54988 -0.78957
vn 0.48515 0.80550 -0.34028
vn 0.52535 0.85089 0.00003
vn 0.78864 0.61486 0.00017
vn 0.14620 0.88238 -0.44726
vn 0.16148 0.94706 -0.27751
vn 0.17242 0.98502 -0.00004
vn -0.18479 0.95343 -0.23836
vn -0.18859 0.98206 0.00001
vn 0.95927 0.28248 -0.00011
vn 0.90958 0.25925 -0.32473
vn 0.95608 0.14196 -0.25643
vn 0.98776 0.15600 -0.00028
vn 0.93779 0.34721 0.00011
vn 0.87121 0.31398 -0.37737
vn 0.60923 0.23132 -0.75850
vn 0.67149 0.20475 -0.71217
vn 0.93205 0.36233 0.00001
vn 0.85075 0.32316 -0.41448
vn 0.57713 0.23372 -0.78249
vn 0.00518 0.10716 -0.99423
vn 0.02199 0.10893 -0.99381
vn 0.83856 0.31311 -0.44584
vn 0.55938 0.22620 -0.79745
vn 0.00029 0.10907 -0.99403
vn -0.58156 0.01760 -0.81332
vn -0.59015 0.01148 -0.80721
vn 0.54300 0.22168 -0.80994
vn 0.00304 0.11263 -0.99363
vn -0.56415 0.02135 -0.82539
vn -0.88057 -0.01136 -0.47378
vn -0.89201 -0.01154 -0.45187
vn 0.01564 0.10656 -0.99418
vn -0.53655 0.01459 -0.84375
vn -0.86548 -0.01946 -0.50057
vn -0.99972 -0.02363 0.00001
vn -0.99989 -0.01491 -0.00001
vn -0.49395 -0.01773 -0.86931
vn -0.84247 -0.06101 -0.53527
vn -0.99761 -0.06914 -0.00010
vn -0.80202 -0.16167 -0.57500
vn -0.91609 -0.17672 -0.35994
vn -0.47283 -0.88115 0.00156
vn -0.81540 -0.43655 -0.38020
vn -0.68815 -0.37260 -0.62259
vn -0.43619 -0.08382 -0.89594
vn -0.31309 -0.20909 -0.92642
vn 0.03447 0.10069 -0.99432
vn 0.52826 0.21729 -0.82081
vn 0.50619 0.24358 -0.82731
vn 0.80716 0.30868 -0.50320
vn 0.77867 0.35047 -0.52042
vn 0.93193 0.36265 0.00003
vn 0.91238 0.40935 0.00023
vn 0.83807 0.54556 -0.00065
vn 0.63648 0.77129 -0.00228
vn 0.48316 0.87553 -0.00288
vn -0.20801 0.97813 -0.00057
vn -0.99188 0.12720 -0.00109
vn -0.90616 0.42293 -0.00275
vn -0.95885 -0.28392 0.00007
vn -0.87196 -0.25145 -0.42007
vn -0.91054 -0.41341 -0.00027
vn -0.81215 -0.36334 -0.45651
vn -0.59405 -0.25519 -0.76288
vn -0.13923 -0.07795 -0.98719
vn -0.79483 -0.37314 -0.47855
vn -0.54460 -0.25249 -0.79979
vn -0.07909 -0.03676 -0.99619
vn 0.45559 0.19318 -0.86897
vn 0.43466 0.15580 -0.88702
vn -0.54251 -0.18651 -0.81908
vn -0.05183 0.00016 -0.99866
vn 0.47252 0.19766 -0.85887
vn 0.78741 0.31869 -0.52767
vn 0.78065 0.32445 -0.53415
vn -0.04976 0.04113 -0.99791
vn 0.48535 0.19985 -0.85117
vn 0.79968 0.31054 -0.51388
vn 0.93060 0.36604 -0.00000
vn 0.92681 0.37553 0.00001
vn 0.49690 0.20568 -0.84308
vn 0.81255 0.30896 -0.49428
vn 0.93284 0.36029 -0.00000
vn 0.82675 0.31193 -0.46817
vn 0.93240 0.36144 0.00001
vn 0.10252 -0.99473 -0.00000
vn 0.10476 -0.98001 -0.16914
vn -0.32465 -0.92386 -0.20269
vn -0.33588 -0.94190 0.00006
vn 0.55219 -0.83372 -0.00002
vn 0.54810 -0.82248 -0.15200
vn 0.48518 -0.71930 -0.49720
vn 0.09158 -0.84454 -0.52760
vn 0.88459 -0.46638 0.00004
vn 0.87133 -0.46526 -0.15594
vn 0.76200 -0.40888 -0.50217
vn 0.61899 -0.32818 -0.71354
vn 0.39961 -0.58788 -0.70336
vn 0.97630 -0.09698 -0.19346
vn 0.82790 -0.08023 -0.55510
vn 0.64218 -0.04991 -0.76493
vn -0.38274 0.16631 -0.90876
vn -0.34641 0.24683 -0.90502
vn 0.76155 0.12362 -0.63621
vn 0.54288 0.10850 -0.83277
vn -0.36261 0.10334 -0.92620
vn -0.88318 0.09702 -0.45890
vn -0.94383 0.10708 -0.31260
vn -0.92877 0.26324 -0.26096
vn -0.88113 0.24936 -0.40178
vn -0.33340 0.06251 -0.94071
vn -0.62711 0.04455 -0.77766
vn -0.92869 0.02891 -0.36974
vn -0.99936 0.03573 -0.00007
vn -0.99338 0.11489 -0.00012
vn -0.59980 0.01669 -0.79997
vn -0.91161 -0.00498 -0.41102
vn -1.00000 -0.00030 -0.00010
vn -0.90087 -0.01601 -0.43378
vn -0.99987 -0.01595 -0.00004
vn -0.96210 0.27271 -0.00005
vn -0.84719 0.53130 0.00004
vn -0.82352 0.51673 -0.23412
vn -0.56700 0.82372 -0.00001
vn -0.55273 0.80121 -0.22924
vn -0.52749 0.76281 -0.37401
vn -0.78479 0.49284 -0.37580
vn -0.17698 0.90407 -0.38901
vn -0.23990 0.33658 -0.91058
vn -0.10603 0.38544 -0.91662
vn -0.00229 0.36448 -0.93121
vn 0.07110 -0.67713 -0.73242
vn -0.22829 -0.58718 -0.77660
vn -0.27792 -0.76600 -0.57966
vn -0.42642 -0.35648 -0.83132
vn -0.57492 -0.49953 -0.64802
vn -0.73174 -0.63025 -0.25949
vn -0.92704 -0.18529 -0.32597
vn -0.98525 -0.17115 0.00050
vn -0.76841 -0.63996 -0.00026
vn -0.99644 0.08433 0.00082
vn 0.86653 0.35727 -0.34854
vn 0.86579 0.35845 -0.34917
vn 0.77890 0.31903 -0.53995
vn 0.86657 0.35809 -0.34761
vn 0.77566 0.31032 -0.54960
vn 0.39601 0.12386 -0.90985
vn 0.36996 0.16517 -0.91425
vn 0.06949 0.01985 -0.99738
vn 0.12419 0.11350 -0.98575
vn 0.93464 0.35559 0.00004
vn 0.93555 0.35319 -0.00002
vn 0.82441 0.30650 -0.47583
vn -0.99990 -0.01411 0.00000
vn 0.43160 0.15689 -0.88832
vn 0.99608 -0.08849 -0.00002
vn 0.90484 0.42575 0.00009
vn -0.90588 -0.42354 -0.00001
vn 0.43198 -0.01082 -0.90182
vn 0.67806 -0.60572 -0.41634
vn 0.22570 -0.24721 -0.94231
vn 0.08573 -0.13560 -0.98705
vn 0.01564 -0.33332 -0.94268
vn -0.14528 -0.28824 -0.94647
vn -0.10251 -0.05577 -0.99317
vn -0.68066 -0.56823 -0.46240
vn -0.38076 -0.84759 -0.36961
vn -0.40963 -0.91225 -0.00190
vn 0.51773 -0.72479 -0.45457
vn -0.12164 -0.99257 -0.00000
vn 0.41946 -0.20187 0.88505
vn -0.03891 -0.17533 0.98374
vn 0.01046 -0.53535 0.84457
vn 0.33370 -0.47567 0.81387
vn 0.03988 -0.87481 0.48282
vn 0.50771 -0.68394 0.52388
vn 0.78205 -0.28864 0.55235
vn -0.49774 -0.70573 0.50418
vn -0.34016 -0.49030 0.80243
vn -0.48997 -0.20799 0.84657
vn -0.81997 -0.29477 0.49067
vn 0.46037 -0.62079 0.63457
vn 0.14589 -0.84614 0.51260
vn -0.00325 -0.40189 0.91568
vn -0.32421 -0.69512 0.64164
vn 0.00093 -0.07324 0.99731
vn -0.06237 0.06163 0.99615
vn 0.90829 0.14024 0.39414
vn 0.91767 -0.00852 0.39725
vn 0.79018 -0.02816 0.61223
vn 0.77177 0.06637 0.63242
vn 0.21453 0.64418 0.73418
vn 0.32665 0.61828 0.71486
vn 0.03515 -0.90095 0.43250
vn -0.24640 -0.87249 0.42195
vn -0.23936 -0.71185 0.66029
vn -0.03638 -0.72629 0.68642
vn -0.03986 0.49449 0.86827
vn -0.02268 0.26380 0.96431
vn 0.59228 -0.34423 0.72850
vn 0.74590 -0.44656 0.49418
vn 0.71772 -0.55170 0.42485
vn 0.60340 -0.44255 0.66337
vn -0.29018 -0.24215 0.92583
vn 0.06832 -0.91402 0.39988
vn -0.39264 -0.78531 0.47867
vn -0.34334 -0.53762 0.77012
vn -0.58283 -0.56721 0.58188
vn -0.19691 -0.20862 0.95797
vn -0.17226 -0.07740 0.98201
vn 0.54739 0.69882 0.46046
vn 0.71582 0.47355 0.51317
vn 0.46766 0.31267 0.82676
vn 0.39414 0.36134 0.84504
vn 0.10818 0.00788 0.99410
vn 0.32089 -0.19511 0.92680
vn 0.51001 -0.10447 0.85380
vn 0.09889 0.62791 0.77197
vn 0.10201 0.92705 0.36079
vn 0.05384 0.09168 0.99433
vn -0.50224 0.32863 0.79985
vn -0.04521 0.56304 0.82519
vn -0.48120 0.02604 0.87622
vn -0.55359 -0.53784 0.63582
vn -0.66787 -0.61457 0.41982
vn -0.84025 -0.27683 0.46620
vn -0.08224 0.04979 0.99537
vn -0.14744 0.12247 0.98146
vn -0.21709 0.11668 0.96915
vn -0.73443 0.26896 0.62312
vn -0.08580 0.97325 0.21314
vn -0.32460 0.90405 0.27810
vn 0.32236 0.04544 0.94552
vn 0.18973 0.47156 0.86118
vn 0.32672 0.85041 0.41238
vn 0.69952 0.52269 0.48731
vn 0.37312 0.30796 0.87518
vn -0.02105 0.94318 0.33162
vn -0.29752 -0.08103 0.95127
vn -0.69176 -0.19484 0.69534
vn -0.74650 0.09140 0.65908
vn -0.57618 0.00808 0.81728
vn -0.53195 0.37566 0.75889
vn -0.21066 0.93762 0.27659
vn -0.21292 0.89197 0.39881
vn -0.91929 0.13612 0.36929
vn -0.84890 0.42806 0.31006
vn 0.12989 0.32892 0.93538
vn 0.57488 -0.71735 0.39360
vn 0.50340 -0.62611 0.59546
vn 0.76165 -0.42459 0.48950
vn 0.68961 -0.39921 0.60421
vn -0.74926 -0.51526 0.41607
vn -0.58437 -0.42575 0.69084
vn 0.71338 -0.33146 0.61743
vn 0.82264 -0.04657 0.56665
vn 0.82289 0.00395 0.56819
vn 0.93157 0.00629 0.36350
vn 0.93376 -0.00136 0.35790
vn 0.82874 -0.00599 0.55960
vn 0.42099 0.01057 0.90701
vn 0.42242 0.01797 0.90622
vn 0.83763 -0.01212 0.54611
vn 0.41880 0.02744 0.90766
vn 0.84742 -0.00518 0.53089
vn -0.76980 0.21795 0.59992
vn -0.89837 0.24475 0.36474
vn -0.87428 0.32459 0.36093
vn -0.85369 0.38440 0.35135
vn -0.79105 0.20526 0.57629
vn -0.58538 0.17533 0.79158
vn -0.62086 0.16590 0.76616
vn 0.41239 0.03050 0.91050
vn 0.06923 0.06311 0.99560
vn 0.09935 0.06355 0.99302
vn 0.04577 0.05312 0.99754
vn 0.85843 -0.00992 0.51284
vn 0.71842 -0.01263 0.69549
vn 0.86733 -0.01077 0.49761
vn 0.72740 -0.01148 0.68612
vn -0.80813 0.21324 0.54905
vn -0.82234 0.21977 0.52484
vn -0.65232 0.17174 0.73823
vn -0.67901 0.18067 0.71155
vn -0.70194 0.17409 0.69064
vn -0.83635 0.21456 0.50447
vn 0.02630 0.06053 0.99782
vn 0.00657 0.06659 0.99776
vn -0.01199 0.07171 0.99735
vn 0.87240 0.00407 0.48878
vn 0.88092 0.02483 0.47261
vn 0.74383 0.01788 0.66813
vn 0.73010 0.00263 0.68334
vn -0.85269 0.21173 0.47759
vn -0.87701 0.21378 0.43030
vn -0.72832 0.17252 0.66316
vn -0.77100 0.18223 0.61021
vn -0.84169 0.13806 0.52201
vn -0.92070 0.16123 0.35541
vn -0.02253 0.09820 0.99491
vn -0.05513 0.13828 0.98886
vn 0.89957 0.06231 0.43231
vn 0.91491 0.16124 0.37005
vn 0.81847 0.14438 0.55611
vn 0.77930 0.05006 0.62465
vn -0.94797 -0.12385 0.29330
vn -0.21501 0.87535 0.43305
vn -0.00004 0.93669 0.35015
vn -0.41647 0.75253 0.51015
vn -0.32524 0.60821 0.72409
vn -0.17604 0.75397 0.63288
vn -0.61236 0.56241 0.55562
vn -0.21381 0.25692 0.94249
vn -0.74800 0.33936 0.57037
vn -0.17255 -0.94645 0.27285
vn 0.38949 -0.85806 0.33470
vn -0.72775 -0.63227 0.26572
vn -0.67508 -0.59863 0.43117
vn -0.16848 -0.87989 0.44432
vn -0.88173 -0.12845 0.45392
vn -0.13686 0.09057 0.98644
vn -0.11974 -0.06265 0.99083
vn 0.87566 0.37156 0.30850
vn 0.67590 0.68128 0.28111
vn 0.62522 0.63426 0.45477
vn 0.80310 0.34590 0.48517
vn 0.31594 0.90168 0.29523
vn 0.29560 0.83061 0.47192
vn 0.00781 0.84508 0.53459
vn 0.18965 -0.04847 0.98066
vn 0.04712 -0.13283 0.99002
vn 0.18884 0.05919 0.98022
vn 0.69763 -0.58034 0.42014
vn 0.32781 -0.78483 0.52591
vn 0.58587 -0.52068 0.62101
vn 0.64275 -0.32721 0.69268
vn 0.78335 -0.37109 0.49865
vn 0.10886 0.08126 0.99073
vn 0.36862 -0.09573 0.92464
vn 0.78765 -0.27518 0.55126
vn 0.35154 -0.09008 0.93183
vn 0.78419 -0.24606 0.56964
vn -0.28195 0.15100 0.94747
vn 0.01548 -0.01703 0.99974
vn -0.81333 0.14498 0.56344
vn -0.63129 0.11259 0.76733
vn -0.83764 -0.00440 0.54620
vn -0.67180 -0.00545 0.74072
vn 0.89319 -0.28081 0.35123
vn 0.78742 -0.23738 0.56887
vn 0.89412 -0.27120 0.35636
vn 0.79945 -0.22104 0.55859
vn 0.63530 -0.18988 0.74856
vn 0.65270 -0.17616 0.73685
vn 0.67514 -0.16805 0.71830
vn 0.81526 -0.21335 0.53836
vn 0.00653 -0.05901 0.99824
vn 0.00106 -0.07400 0.99726
vn -0.00271 -0.08775 0.99614
vn -0.84885 -0.08040 0.52248
vn -0.86238 -0.09226 0.49778
vn -0.72607 -0.07129 0.68391
vn -0.70210 -0.06360 0.70923
vn 0.83116 -0.21650 0.51215
vn 0.85190 -0.21091 0.47935
vn 0.69839 -0.17353 0.69436
vn 0.72785 -0.16854 0.66470
vn 0.77392 -0.14251 0.61705
vn 0.88650 -0.18033 0.42614
vn 0.00285 -0.09661 0.99532
vn 0.01661 -0.09714 0.99513
vn -0.87815 -0.09934 0.46796
vn -0.89733 -0.09206 0.43166
vn -0.77562 -0.07826 0.62633
vn -0.74869 -0.08025 0.65805
vn 0.60225 0.79158 0.10344
vn 0.39202 0.91178 0.12239
vn -0.87731 0.33164 0.34691
vn -0.91830 -0.00381 0.39587
vn -0.77171 0.56424 0.29342
vn -0.77600 0.30445 0.55239
vn -0.79912 -0.00325 0.60116
vn -0.70078 0.52527 0.48270
vn 0.76435 0.34972 0.54172
vn -0.82411 -0.29053 0.48625
vn -0.85744 -0.17519 0.48384
vn -0.87902 -0.07033 0.47157
vn -0.56160 -0.09992 0.82136
vn -0.57814 -0.02950 0.81541
vn -0.89491 0.04389 0.44409
vn -0.60398 0.04623 0.79566
vn -0.05229 0.07196 0.99604
vn -0.06263 0.10323 0.99268
vn -0.64947 0.05154 0.75864
vn -0.91697 0.06099 0.39426
vn -0.10079 0.12559 0.98695
vn 0.51051 0.21219 0.83328
vn 0.49716 0.26471 0.82629
vn -0.15471 0.08212 0.98454
vn -0.68186 -0.14712 0.71653
vn 0.42256 0.39130 0.81751
vn 0.81756 0.37818 0.43425
vn 0.72127 0.56920 0.39469
vn 0.27196 0.54964 0.78990
vn 0.08599 0.30323 0.94903
vn 0.48455 0.80561 0.34088
vn 0.16062 0.94684 0.27873
vn 0.14408 0.88155 0.44956
vn -0.18514 0.95326 0.23879
vn 0.95599 0.14318 0.25609
vn 0.90948 0.26085 0.32374
vn 0.87134 0.31368 0.37732
vn 0.67144 0.20619 0.71179
vn 0.60933 0.23235 0.75811
vn 0.85074 0.32312 0.41452
vn 0.57715 0.23375 0.78247
vn 0.02201 0.11015 0.99367
vn 0.00512 0.10771 0.99417
vn 0.55925 0.22693 0.79733
vn 0.83842 0.31363 0.44575
vn 0.00029 0.10958 0.99398
vn -0.59018 0.01178 0.80718
vn -0.58158 0.01752 0.81330
vn 0.00303 0.11292 0.99360
vn 0.54291 0.22185 0.80996
vn -0.56416 0.02143 0.82539
vn -0.89201 -0.01204 0.45185
vn -0.88057 -0.01178 0.47376
vn -0.53686 0.01361 0.84356
vn 0.01535 0.10599 0.99425
vn -0.86551 -0.01984 0.50049
vn -0.84263 -0.06249 0.53485
vn -0.49431 -0.01919 0.86907
vn -0.91619 -0.17756 0.35925
vn -0.80156 -0.16207 0.57553
vn -0.68960 -0.37256 0.62101
vn -0.81555 -0.43756 0.37871
vn -0.31709 -0.20910 0.92506
vn -0.43502 -0.08285 0.89660
vn 0.03420 0.10042 0.99436
vn 0.50573 0.24281 0.82782
vn 0.52803 0.21659 0.82114
vn 0.77844 0.34992 0.52114
vn 0.80705 0.30816 0.50370
vn -0.87205 -0.25248 0.41925
vn -0.81180 -0.36344 0.45705
vn -0.59584 -0.25583 0.76127
vn -0.14186 -0.07571 0.98699
vn -0.54429 -0.25238 0.80003
vn -0.79485 -0.37331 0.47839
vn -0.07884 -0.03620 0.99623
vn 0.43455 0.15923 0.88646
vn 0.45543 0.19337 0.86902
vn -0.05175 0.00012 0.99866
vn -0.54241 -0.18656 0.81914
vn 0.47245 0.19760 0.85892
vn 0.78065 0.32450 0.53412
vn 0.78739 0.31868 0.52769
vn 0.48535 0.19991 0.85116
vn -0.04971 0.04126 0.99791
vn 0.79968 0.31055 0.51388
vn 0.81262 0.30877 0.49428
vn 0.49694 0.20571 0.84305
vn 0.82674 0.31181 0.46827
vn -0.32478 -0.92387 0.20245
vn 0.10527 -0.97981 0.16994
vn 0.54823 -0.82237 0.15219
vn 0.09187 -0.84363 0.52901
vn 0.48558 -0.71848 0.49800
vn 0.87157 -0.46492 0.15558
vn 0.76236 -0.40839 0.50202
vn 0.40003 -0.58637 0.70438
vn 0.61868 -0.32822 0.71380
vn 0.82806 -0.08012 0.55489
vn 0.97628 -0.09694 0.19361
vn 0.64279 -0.04915 0.76447
vn -0.34533 0.24583 0.90571
vn -0.38208 0.16649 0.90901
vn 0.54428 0.10757 0.83198
vn 0.76221 0.12279 0.63558
vn -0.36229 0.10315 0.92634
vn -0.88174 0.24841 0.40104
vn -0.92912 0.26241 0.26053
vn -0.94399 0.10615 0.31242
vn -0.88323 0.09718 0.45877
vn -0.62708 0.04434 0.77769
vn -0.33372 0.06220 0.94062
vn -0.92865 0.02847 0.36986
vn -0.91166 -0.00525 0.41091
vn -0.59983 0.01643 0.79996
vn -0.90090 -0.01590 0.43373
vn -0.82354 0.51675 0.23400
vn -0.55273 0.80122 0.22920
vn -0.78499 0.49272 0.37552
vn -0.52749 0.76284 0.37394
vn -0.17760 0.90362 0.38978
vn -0.23827 0.33445 0.91180
vn -0.10591 0.38239 0.91791
vn -0.00270 0.36259 0.93195
vn -0.27723 -0.76522 0.58102
vn -0.22570 -0.58500 0.77900
vn 0.07070 -0.67597 0.73353
vn -0.56975 -0.49789 0.65382
vn -0.41664 -0.35106 0.83855
vn -0.73194 -0.62959 0.26053
vn -0.92512 -0.18719 0.33031
vn 0.77884 0.31892 0.54010
vn 0.86579 0.35845 0.34917
vn 0.86653 0.35728 0.34854
vn 0.77557 0.31040 0.54968
vn 0.86653 0.35814 0.34764
vn 0.39622 0.12687 0.90935
vn 0.36933 0.16718 0.91414
vn 0.82436 0.30656 0.47587
vn 0.43074 0.15731 0.88866
vn 0.43274 -0.01151 0.90144
vn 0.68346 -0.60228 0.41249
vn 0.08173 -0.13514 0.98745
vn 0.21864 -0.25391 0.94219
vn -0.14236 -0.28848 0.94684
vn 0.01348 -0.33729 0.94131
vn -0.09632 -0.04520 0.99432
vn -0.67961 -0.57181 0.45952
vn -0.38110 -0.84907 0.36584
vn 0.52329 -0.72705 0.44449
f 1//1 11//2 12//3 13//4
f 1//1 14//5 15//6 11//2
f 1//1 13//4 16//7 14//5
f 2//8 11//2 15//6 17//9
f 2//8 17//9 18//10 19//11
f 2//8 19//11 12//3 11//2
f 3//12 22//13 21//14 20//15
f 3//12 23//16 24//17 22//13
f 4//18 25//18 26//19 27//19
f 4//20 27//21 28//22 29//23
f 4//24 29//25 30//26 31//27
f 4//28 31//29 32//30 33//31
f 4//18 34//32 35//32 25//18
f 4//28 33//31 36//33 34//34
f 5//35 37//36 38//37 39//38
f 41//39 42//40 37//36 5//35
f 5//35 39//38 40//41 41//39
f 6//42 43//43 44//44 45//45
f 6//42 46//46 47//47 48//48
f 6//42 45//45 49//49 50//50
f 6//42 48//48 51//51 43//43
f 7//52 52//53 53//53 8//54
f 7//52 54//55 55//56 52//57
f 7//52 8//54 56//58 57//59
f 8//54 59//60 60//61 56//58
f 8//62 53//63 58//64 376//65
f 9//66 35//32 34//32 61//67
f 9//66 62//68 63//69 64//70
f 9//66 64//70 65//71 35//72
f 10//73 68//74 69//75 70//76
f 39//77 71//78 68//74 10//73
f 10//73 70//76 40//79 39//77
f 71//78 50//50 49//49 72//80
f 71//78 72//81 73//82 68//74
f 71//78 39//77 74//83 50//50
f 74//83 46//46 6//42 50//50
f 74//84 39//38 38//37 75//85
f 74//84 75//85 76//86 46//46
f 76//86 77//87 47//47 46//46
f 76//86 75//85 78//88 79//89
f 76//86 79//89 80//90 77//87
f 80//90 21//14 22//13 77//87
f 377//91 78//88 75//85 38//37
f 377//91 38//37 37//36 378//92
f 378//92 37//36 42//40 81//93
f 81//93 42//40 82//94 83//95
f 86//96 85//97 87//98 36//33
f 86//96 36//33 33//31 88//99
f 88//100 33//31 32//30 379//101
f 379//101 32//30 55//56 89//102
f 89//102 55//56 54//55 90//103
f 90//103 54//55 18//10 91//104
f 91//104 18//10 17//9 92//105
f 92//106 17//9 15//6 93//107
f 93//107 15//6 14//5 94//108
f 94//108 14//5 16//7 95//109
f 95//109 16//7 96//110 380//111
f 381//112 380//111 96//110 98//113
f 381//112 98//113 99//114 97//115
f 99//114 98//113 100//116 101//117
f 99//114 101//117 102//118 103//119
f 99//114 103//119 104//120 97//115
f 104//120 103//119 105//121 106//122
f 109//123 108//124 110//125 59//60
f 109//123 59//60 8//54 376//126
f 110//125 108//124 107//127 111//128
f 110//125 111//128 112//129 113//130
f 110//125 113//130 60//61 59//60
f 113//131 112//132 114//133 102//118
f 113//131 102//118 101//117 60//61
f 114//133 112//132 115//134 116//134
f 114//133 116//135 117//136 105//121
f 114//133 105//121 103//119 102//118
f 117//136 116//135 118//137 119//138
f 117//136 119//138 382//139 383//140
f 117//136 383//140 106//122 105//121
f 121//141 120//142 122//143 123//144
f 121//141 123//144 111//128 107//127
f 123//144 122//143 124//145 115//146
f 123//144 115//146 112//129 111//128
f 124//145 122//143 125//147 126//148
f 124//149 126//150 127//150 118//149
f 124//149 118//149 116//134 115//134
f 127//150 126//150 128//151 129//151
f 127//152 129//153 130//154 131//155
f 127//152 131//155 119//138 118//137
f 131//155 130//154 132//156 384//157
f 131//155 384//157 382//139 119//138
f 386//158 385//159 133//160 125//147
f 386//158 125//147 122//143 120//142
f 133//160 385//159 387//161 134//162
f 133//160 134//162 135//163 128//164
f 133//160 128//164 126//148 125//147
f 135//163 134//162 136//165 137//166
f 135//167 137//168 138//168 139//167
f 135//167 139//167 129//151 128//151
f 139//169 138//170 140//171 141//172
f 139//169 141//172 130//154 129//153
f 141//172 140//171 142//173 143//174
f 141//172 143//174 132//156 130//154
f 388//175 144//176 145//177 136//165
f 388//175 136//165 134//162 387//161
f 147//178 389//179 149//180 150//181
f 147//178 150//181 151//182 148//183
f 151//182 150//181 152//184 153//185
f 151//182 153//185 154//186 155//187
f 151//182 155//187 156//188 148//183
f 156//188 155//187 157//189 158//190
f 160//191 159//192 161//193 162//194
f 160//191 162//194 163//195 146//196
f 163//195 145//177 144//176 146//196
f 163//195 162//194 164//197 165//198
f 163//195 165//198 166//199 145//177
f 166//199 137//166 136//165 145//177
f 166//200 165//201 167//201 168//200
f 166//200 168//200 138//168 137//168
f 168//202 167//203 169//204 170//205
f 168//202 170//205 140//171 138//170
f 170//205 169//204 391//206 171//207
f 170//205 171//207 142//173 140//171
f 391//206 169//204 172//208 392//209
f 172//208 169//204 167//203 173//210
f 172//208 173//210 174//211 149//180
f 172//208 149//180 389//179 392//209
f 174//212 173//213 164//213 175//212
f 174//212 175//212 176//214 152//214
f 174//211 152//184 150//181 149//180
f 176//215 175//216 161//193 177//217
f 176//215 177//217 178//218 179//219
f 176//214 179//220 153//220 152//214
f 179//219 178//218 180//221 181//222
f 179//220 181//222 154//186 153//220
f 181//222 180//221 182//223 183//224
f 181//222 183//224 184//225 154//186
f 184//225 183//224 185//226 186//227
f 184//225 186//227 187//228 157//189
f 184//225 157//189 155//187 154//186
f 187//228 186//227 188//229 189//230
f 187//228 189//230 393//231 190//232
f 187//228 190//232 158//190 157//189
f 395//233 191//234 180//221 178//218
f 395//233 178//218 177//217 390//235
f 191//234 394//236 182//223 180//221
f 394//236 396//237 192//238 182//223
f 192//238 396//237 193//239 194//240
f 192//238 194//240 195//241 185//242
f 192//238 185//242 183//224 182//223
f 195//241 194//240 196//243 197//244
f 195//245 197//246 198//246 188//245
f 195//245 188//245 186//227 185//226
f 198//246 197//246 199//247 200//247
f 198//248 200//249 201//250 202//251
f 198//248 202//251 189//230 188//229
f 202//251 201//250 203//252 204//253
f 202//251 204//253 393//231 189//230
f 205//254 397//255 206//256 196//243
f 205//254 196//243 194//240 193//239
f 206//256 397//255 207//257 208//258
f 206//256 208//258 209//259 199//260
f 206//256 199//260 197//244 196//243
f 209//259 208//258 210//261 211//262
f 209//263 211//264 212//264 213//263
f 209//263 213//263 200//247 199//247
f 213//265 212//266 214//267 215//268
f 213//265 215//268 201//250 200//249
f 215//268 214//267 398//269 216//270
f 215//268 216//270 203//252 201//250
f 399//271 217//272 28//22 210//261
f 399//271 210//261 208//258 207//257
f 217//272 218//273 29//23 28//22
f 218//274 219//275 30//26 29//25
f 219//275 58//64 53//63 30//26
f 400//276 401//277 221//278 222//279
f 400//276 222//279 65//280 220//281
f 222//279 221//278 26//282 25//283
f 222//279 25//283 35//284 65//280
f 221//278 214//267 212//266 26//282
f 221//278 401//277 398//269 214//267
f 220//285 65//71 64//70 223//285
f 223//286 64//70 63//69 224//287
f 224//287 63//69 225//288 402//289
f 403//290 228//291 229//292 226//293
f 403//290 404//294 230//295 228//291
f 230//295 231//296 232//297 228//291
f 230//295 404//294 405//298 233//299
f 230//295 233//299 234//300 231//296
f 234//300 235//301 236//302 231//296
f 234//300 233//299 237//303 238//304
f 234//300 238//304 239//305 235//301
f 239//305 240//306 241//307 235//301
f 239//305 238//304 242//308 243//309
f 239//305 243//309 244//310 240//306
f 244//310 245//311 246//312 240//306
f 244//310 243//309 247//313 248//314
f 244//310 248//314 249//315 245//311
f 249//315 406//316 250//317 245//311
f 249//315 248//314 251//318 252//319
f 249//315 252//319 407//320 406//316
f 407//320 252//319 253//321 408//322
f 409//323 256//324 257//325 254//326
f 409//323 410//327 258//328 256//324
f 258//328 259//329 260//330 256//324
f 258//328 410//327 261//331 262//332
f 258//328 262//332 263//333 259//329
f 263//333 264//334 265//335 259//329
f 263//333 262//332 266//336 267//337
f 263//333 267//337 268//338 264//334
f 268//338 269//339 270//340 264//334
f 268//338 267//337 271//341 272//342
f 268//338 272//342 273//343 269//339
f 273//343 274//344 275//345 269//339
f 273//343 272//342 276//346 277//347
f 273//343 277//347 278//348 274//344
f 278//348 279//349 280//350 274//344
f 278//348 277//347 281//351 282//352
f 278//348 282//352 283//353 279//349
f 283//353 282//352 284//354 411//355
f 413//356 412//357 285//358 23//16
f 413//356 23//16 3//12 20//15
f 285//358 412//357 411//355 284//354
f 285//358 284//354 286//359 287//360
f 285//358 287//360 24//17 23//16
f 287//360 286//359 51//51 48//48
f 287//360 48//48 47//47 24//17
f 286//359 284//354 282//352 281//351
f 286//359 281//351 288//361 51//51
f 288//361 281//351 277//347 276//346
f 288//361 276//346 289//362 290//363
f 288//361 290//363 43//43 51//51
f 290//363 289//362 291//364 292//365
f 290//363 292//365 44//44 43//43
f 292//365 291//364 414//366 293//367
f 292//365 293//367 294//368 44//44
f 294//368 415//369 45//45 44//44
f 415//369 416//370 49//49 45//45
f 416//371 295//371 72//80 49//49
f 417//372 73//82 72//81 295//373
f 417//372 418//374 296//375 73//82
f 296//375 69//75 68//74 73//82
f 296//375 418//374 419//376 297//377
f 296//375 297//377 298//378 69//75
f 298//378 299//379 70//76 69//75
f 298//378 297//377 300//380 301//381
f 298//378 301//381 302//382 299//379
f 302//382 303//383 304//384 299//379
f 302//382 301//381 305//385 306//386
f 302//382 306//386 307//387 303//383
f 307//387 308//388 309//389 303//383
f 307//387 306//386 310//390 311//391
f 307//387 311//391 312//392 308//388
f 312//392 313//393 314//394 308//388
f 312//392 311//391 315//395 316//396
f 312//392 316//396 317//397 313//393
f 317//397 316//396 318//398 420//399
f 322//400 323//401 324//402 320//403
f 322//400 421//404 325//405 323//401
f 325//405 326//406 327//407 323//401
f 325//405 421//404 422//408 328//409
f 325//405 328//409 329//410 326//406
f 329//410 330//411 331//412 326//406
f 329//410 328//409 332//413 333//414
f 329//410 333//414 334//415 330//411
f 334//416 335//416 336//417 330//417
f 334//415 333//414 337//418 338//419
f 334//416 338//420 339//420 335//416
f 339//421 340//422 341//423 335//424
f 339//420 338//420 342//425 343//426
f 339//421 343//426 344//427 340//422
f 344//427 345//428 346//429 340//422
f 344//427 343//426 347//430 348//431
f 344//427 348//431 349//432 345//428
f 349//432 348//431 350//433 423//434
f 352//435 425//436 353//437 341//423
f 352//435 341//423 340//422 346//429
f 353//437 425//436 426//438 354//439
f 353//437 354//439 355//440 336//441
f 353//437 336//441 335//424 341//423
f 355//440 354//439 253//321 356//442
f 355//443 356//444 357//444 331//443
f 355//443 331//443 330//417 336//417
f 357//444 356//444 251//445 358//445
f 357//446 358//447 359//448 327//407
f 357//446 327//407 326//406 331//412
f 359//448 358//447 247//449 360//450
f 359//448 360//450 361//451 324//402
f 359//448 324//402 323//401 327//407
f 361//451 360//450 242//308 362//452
f 361//451 362//452 363//453 321//454
f 361//451 321//454 320//403 324//402
f 363//453 362//452 237//303 364//455
f 365//456 427//457 366//458 309//389
f 365//456 309//389 308//388 314//394
f 366//458 427//457 428//459 367//460
f 366//458 367//460 368//461 304//384
f 366//458 304//384 303//383 309//389
f 368//461 367//460 225//288 369//462
f 368//461 369//462 40//463 70//76
f 368//461 70//76 299//379 304//384
f 369//462 225//288 63//69 62//68
f 369//462 62//68 41//464 40//463
f 367//460 428//459 402//289 225//288
f 364//455 237//303 233//299 405//298
f 362//452 242//308 238//304 237//303
f 360//450 247//449 243//309 242//308
f 358//445 251//445 248//314 247//313
f 356//442 253//321 252//319 251//318
f 354//439 426//438 408//322 253//321
f 351//465 266//336 262//332 261//331
f 351//465 424//466 370//467 266//336
f 370//467 271//341 267//337 266//336
f 370//467 424//466 414//366 291//364
f 370//467 291//364 289//362 271//341
f 429//468 423//434 350//433 275//345
f 429//468 275//345 274//344 280//350
f 350//433 348//431 347//430 270//340
f 350//433 270//340 269//339 275//345
f 347//430 343//426 342//425 265//335
f 347//430 265//335 264//334 270//340
f 342//469 338//419 337//418 260//330
f 342//469 260//330 259//329 265//335
f 337//418 333//414 332//413 257//325
f 337//418 257//325 256//324 260//330
f 332//413 328//409 422//408 255//470
f 332//413 255//470 254//326 257//325
f 319//471 420//399 318//398 246//312
f 319//471 246//312 245//311 250//317
f 318//398 316//396 315//395 241//307
f 318//398 241//307 240//306 246//312
f 315//395 311//391 310//390 236//302
f 315//395 236//302 235//301 241//307
f 310//390 306//386 305//385 232//297
f 310//390 232//297 231//296 236//302
f 305//385 301//381 300//380 229//292
f 305//385 229//292 228//291 232//297
f 300//380 297//377 419//376 227//472
f 300//380 227//472 226//293 229//292
f 289//362 276//346 272//342 271//341
f 212//264 211//264 27//19 26//19
f 211//262 210//261 28//22 27//21
f 177//217 161//193 159//192 390//235
f 175//216 164//197 162//194 161//193
f 173//213 167//201 165//201 164//213
f 101//117 100//116 56//58 60//61
f 100//116 371//473 57//59 56//58
f 100//116 98//113 96//110 371//473
f 371//473 13//4 12//3 57//59
f 371//473 96//110 16//7 13//4
f 87//98 85//97 84//474 372//474
f 87//98 372//475 373//476 61//67
f 87//98 61//67 34//34 36//33
f 373//476 372//475 67//477 374//478
f 373//476 374//478 82//94 375//479
f 373//476 375//479 9//66 61//67
f 375//479 82//94 42//40 41//39
f 375//479 41//464 62//68 9//66
f 374//480 67//481 430//482 431//480
f 374//480 431//480 83//95 82//94
f 372//474 84//474 66//483 67//483
f 77//87 22//13 24//17 47//47
f 57//59 12//3 19//11 7//52
f 55//56 32//30 31//29 52//57
f 54//55 7//52 19//11 18//10
f 53//53 52//53 31//27 30//26
f 66//484 430//482 67//481
f 444//485 443//486 442//487 432//488
f 442//487 446//489 445//490 432//488
f 445//490 447//491 444//485 432//488
f 448//492 446//489 442//487 433//493
f 450//494 449//495 448//492 433//493
f 442//487 443//486 450//494 433//493
f 20//15 21//14 451//496 434//497
f 451//496 453//498 452//499 434//497
f 456//500 455//500 454//501 435//501
f 458//502 457//503 456//504 435//505
f 460//506 459//506 458//507 435//507
f 462//508 461//509 460//510 435//511
f 454//501 464//512 463//513 435//501
f 463//514 465//515 462//516 435//517
f 468//518 467//519 466//520 436//521
f 436//521 466//520 471//522 470//523
f 470//523 469//524 468//518 436//521
f 474//525 473//526 472//527 437//528
f 477//529 476//530 475//531 437//528
f 479//532 478//533 474//525 437//528
f 472//527 480//534 477//529 437//528
f 439//535 482//536 481//536 438//537
f 481//538 484//539 483//540 438//537
f 486//541 485//542 439//535 438//537
f 485//542 488//543 487//544 439//535
f 376//65 58//64 482//545 439//546
f 489//547 463//513 464//512 440//548
f 492//549 491//550 490//551 440//548
f 464//512 493//552 492//549 440//548
f 497//553 496//554 495//555 441//556
f 441//556 495//555 498//557 468//518
f 468//518 469//524 497//553 441//556
f 499//558 478//533 479//532 498//559
f 495//555 500//560 499//561 498//557
f 479//532 501//562 468//518 498//557
f 479//532 437//528 475//531 501//562
f 502//563 467//519 468//518 501//564
f 475//531 503//565 502//563 501//564
f 475//531 476//530 504//566 503//565
f 79//89 78//88 502//563 503//565
f 504//566 80//90 79//89 503//565
f 504//566 451//496 21//14 80//90
f 467//519 502//563 78//88 377//91
f 378//92 466//520 467//519 377//91
f 81//93 471//522 466//520 378//92
f 83//567 505//568 471//522 81//93
f 465//515 506//569 85//97 86//96
f 88//99 462//516 465//515 86//96
f 379//101 461//509 462//508 88//100
f 89//102 484//539 461//509 379//101
f 90//103 483//540 484//539 89//102
f 91//104 449//495 483//540 90//103
f 92//105 448//492 449//495 91//104
f 93//107 446//489 448//492 92//106
f 94//108 445//490 446//489 93//107
f 95//109 447//491 445//490 94//108
f 380//111 507//570 447//491 95//109
f 508//571 507//570 380//111 381//572
f 97//573 509//574 508//571 381//572
f 511//575 510//576 508//571 509//574
f 513//577 512//578 511//575 509//574
f 97//573 104//120 513//577 509//574
f 106//122 514//579 513//577 104//120
f 487//544 515//580 108//581 109//582
f 376//583 439//535 487//544 109//582
f 516//584 107//127 108//581 515//580
f 518//585 517//586 516//584 515//580
f 487//544 488//543 518//585 515//580
f 512//578 519//587 517//588 518//589
f 488//543 511//575 512//578 518//589
f 521//590 520//590 517//588 519//587
f 514//579 522//591 521//592 519//587
f 512//578 513//577 514//579 519//587
f 524//593 523//594 521//592 522//591
f 383//140 382//139 524//593 522//591
f 514//579 106//122 383//140 522//591
f 526//595 525//596 120//142 121//141
f 107//127 516//584 526//595 121//141
f 520//597 527//598 525//596 526//595
f 516//584 517//586 520//597 526//595
f 529//599 528//600 525//596 527//598
f 523//601 530//602 529//602 527//601
f 520//590 521//590 523//601 527//601
f 532//603 531//603 529//602 530//602
f 534//604 533//605 532//606 530//607
f 523//594 524//593 534//604 530//607
f 384//157 132//156 533//605 534//604
f 524//593 382//139 384//157 534//604
f 528//600 535//608 385//159 386//158
f 120//142 525//596 528//600 386//158
f 536//609 387//161 385//159 535//608
f 531//610 537//611 536//609 535//608
f 528//600 529//599 531//610 535//608
f 539//612 538//613 536//609 537//611
f 541//614 540//615 539//615 537//614
f 531//603 532//603 541//614 537//614
f 543//616 542//617 540//618 541//619
f 532//606 533//605 543//616 541//619
f 143//174 142//173 542//617 543//616
f 533//605 132//156 143//174 543//616
f 538//613 544//620 144//176 388//175
f 387//161 536//609 538//613 388//175
f 546//621 545//622 389//179 147//178
f 148//183 547//623 546//621 147//178
f 549//624 548//625 546//621 547//623
f 551//626 550//627 549//624 547//623
f 148//183 156//188 551//626 547//623
f 158//190 552//628 551//626 156//188
f 554//629 553//630 159//192 160//191
f 146//196 555//631 554//629 160//191
f 146//196 144//176 544//620 555//631
f 557//632 556//633 554//629 555//631
f 544//620 558//634 557//632 555//631
f 544//620 538//613 539//612 558//634
f 560//635 559//636 557//636 558//635
f 539//615 540//615 560//635 558//635
f 562//637 561//638 559//639 560//640
f 540//618 542//617 562//637 560//640
f 171//207 391//206 561//638 562//637
f 542//617 142//173 171//207 562//637
f 392//209 563//641 561//638 391//206
f 564//642 559//639 561//638 563//641
f 545//622 565//643 564//642 563//641
f 392//209 389//179 545//622 563//641
f 566//644 556//645 564//645 565//644
f 548//646 567//646 566//644 565//644
f 545//622 546//621 548//625 565//643
f 568//647 553//630 566//648 567//649
f 570//650 569//651 568//647 567//649
f 548//646 549//652 570//652 567//646
f 572//653 571//654 569//651 570//650
f 549//652 550//627 572//653 570//652
f 574//655 573//656 571//654 572//653
f 550//627 575//657 574//655 572//653
f 577//658 576//658 574//655 575//657
f 552//628 578//659 577//660 575//657
f 550//627 551//626 552//628 575//657
f 580//661 579//662 577//660 578//659
f 190//232 393//231 580//661 578//659
f 552//628 158//190 190//232 578//659
f 569//651 571//654 191//234 395//233
f 390//235 568//647 569//651 395//233
f 571//654 573//656 394//663 191//234
f 573//656 581//664 396//665 394//663
f 582//666 193//239 396//665 581//664
f 576//667 583//668 582//666 581//664
f 573//656 574//655 576//667 581//664
f 585//669 584//670 582//666 583//668
f 579//671 586//672 585//672 583//671
f 576//658 577//658 579//671 583//671
f 588//673 587//673 585//672 586//672
f 590//674 589//675 588//676 586//677
f 579//662 580//661 590//674 586//677
f 204//253 203//252 589//675 590//674
f 580//661 393//231 204//253 590//674
f 584//670 591//678 397//255 205//254
f 193//239 582//666 584//670 205//254
f 592//679 207//257 397//255 591//678
f 587//680 593//681 592//679 591//678
f 584//670 585//669 587//680 591//678
f 595//682 594//683 592//679 593//681
f 597//684 596//685 595//685 593//684
f 587//673 588//673 597//684 593//684
f 599//686 598//687 596//688 597//689
f 588//676 589//675 599//686 597//689
f 216//270 398//269 598//687 599//686
f 589//675 203//252 216//270 599//686
f 594//683 457//503 217//272 399//271
f 207//257 592//679 594//683 399//271
f 457//503 458//502 218//273 217//272
f 458//690 459//691 219//275 218//274
f 459//691 482//545 58//64 219//275
f 601//692 600//693 401//277 400//276
f 220//281 493//694 601//692 400//276
f 454//695 455//696 600//693 601//692
f 493//694 464//697 454//695 601//692
f 455//696 596//688 598//687 600//693
f 598//687 398//269 401//277 600//693
f 223//285 492//549 493//552 220//285
f 224//287 491//550 492//549 223//286
f 402//289 602//698 491//550 224//287
f 226//293 604//699 603//700 403//290
f 603//700 605//701 404//294 403//290
f 603//700 607//702 606//703 605//701
f 608//704 405//298 404//294 605//701
f 606//703 609//705 608//704 605//701
f 606//703 611//706 610//707 609//705
f 613//708 612//709 608//704 609//705
f 610//707 614//710 613//708 609//705
f 610//707 616//711 615//712 614//710
f 618//713 617//714 613//708 614//710
f 615//712 619//715 618//713 614//710
f 615//712 621//716 620//717 619//715
f 623//718 622//719 618//713 619//715
f 620//717 624//720 623//718 619//715
f 620//717 250//317 406//316 624//720
f 626//721 625//722 623//718 624//720
f 406//316 407//320 626//721 624//720
f 408//322 627//723 626//721 407//320
f 254//326 629//724 628//725 409//323
f 628//725 630//726 410//327 409//323
f 628//725 632//727 631//728 630//726
f 633//729 261//331 410//327 630//726
f 631//728 634//730 633//729 630//726
f 631//728 636//731 635//732 634//730
f 638//733 637//734 633//729 634//730
f 635//732 639//735 638//733 634//730
f 635//732 641//736 640//737 639//735
f 643//738 642//739 638//733 639//735
f 640//737 644//740 643//738 639//735
f 640//737 646//741 645//742 644//740
f 648//743 647//744 643//738 644//740
f 645//742 649//745 648//743 644//740
f 645//742 280//350 279//349 649//745
f 651//746 650//747 648//743 649//745
f 279//349 283//353 651//746 649//745
f 411//748 652//749 651//746 283//353
f 452//499 653//750 412//751 413//356
f 20//15 434//497 452//499 413//356
f 652//749 411//748 412//751 653//750
f 655//752 654//753 652//749 653//750
f 452//499 453//498 655//752 653//750
f 477//529 480//534 654//753 655//752
f 453//498 476//530 477//529 655//752
f 650//747 651//746 652//749 654//753
f 480//534 656//754 650//747 654//753
f 647//744 648//743 650//747 656//754
f 658//755 657//756 647//744 656//754
f 480//534 472//527 658//755 656//754
f 660//757 659//758 657//756 658//755
f 472//527 473//526 660//757 658//755
f 293//367 414//366 659//758 660//757
f 473//526 294//368 293//367 660//757
f 473//526 474//525 415//369 294//368
f 474//525 478//533 416//370 415//369
f 478//533 499//558 295//371 416//371
f 295//373 499//561 500//560 417//372
f 500//560 661//759 418//374 417//372
f 500//560 495//555 496//554 661//759
f 662//760 419//376 418//374 661//759
f 496//554 663//761 662//760 661//759
f 496//554 497//553 664//762 663//761
f 666//763 665//764 662//760 663//761
f 664//762 667//765 666//763 663//761
f 664//762 669//766 668//767 667//765
f 671//768 670//769 666//763 667//765
f 668//767 672//770 671//768 667//765
f 668//767 674//771 673//772 672//770
f 676//773 675//774 671//768 672//770
f 673//772 677//775 676//773 672//770
f 673//772 314//394 313//393 677//775
f 679//776 678//777 676//773 677//775
f 313//393 317//397 679//776 677//775
f 420//399 680//778 679//776 317//397
f 320//403 682//779 681//780 322//400
f 681//780 683//781 421//404 322//400
f 681//780 685//782 684//783 683//781
f 686//784 422//408 421//404 683//781
f 684//783 687//785 686//784 683//781
f 684//783 689//786 688//787 687//785
f 691//788 690//789 686//784 687//785
f 688//787 692//790 691//788 687//785
f 688//791 694//791 693//792 692//792
f 696//793 695//794 691//788 692//790
f 693//792 697//795 696//795 692//792
f 693//796 699//797 698//798 697//799
f 701//800 700//801 696//795 697//795
f 698//798 702//802 701//800 697//799
f 698//798 346//429 345//428 702//802
f 704//803 703//804 701//800 702//802
f 345//428 349//432 704//803 702//802
f 423//434 705//805 704//803 349//432
f 699//797 706//806 425//436 352//435
f 346//429 698//798 699//797 352//435
f 707//807 426//438 425//436 706//806
f 694//808 708//809 707//807 706//806
f 699//797 693//796 694//808 706//806
f 709//810 627//723 707//807 708//809
f 689//811 710//812 709//812 708//811
f 694//791 688//791 689//811 708//811
f 711//813 625//813 709//812 710//812
f 685//782 712//814 711//815 710//816
f 689//786 684//783 685//782 710//816
f 713//817 622//818 711//815 712//814
f 682//779 714//819 713//817 712//814
f 685//782 681//780 682//779 712//814
f 715//820 617//714 713//817 714//819
f 321//454 363//453 715//820 714//819
f 682//779 320//403 321//454 714//819
f 364//455 612//709 715//820 363//453
f 674//771 716//821 427//822 365//823
f 314//394 673//772 674//771 365//823
f 717//824 428//825 427//822 716//821
f 669//766 718//826 717//824 716//821
f 674//771 668//767 669//766 716//821
f 719//827 602//698 717//824 718//826
f 497//553 469//524 719//827 718//826
f 669//766 664//762 497//553 718//826
f 490//551 491//550 602//698 719//827
f 469//524 470//523 490//551 719//827
f 602//698 402//289 428//825 717//824
f 405//298 608//704 612//709 364//455
f 612//709 613//708 617//714 715//820
f 617//714 618//713 622//818 713//817
f 622//719 623//718 625//813 711//813
f 625//722 626//721 627//723 709//810
f 627//723 408//322 426//438 707//807
f 261//331 633//729 637//734 351//465
f 637//734 720//828 424//466 351//465
f 637//734 638//733 642//739 720//828
f 659//758 414//366 424//466 720//828
f 642//739 657//756 659//758 720//828
f 646//741 705//805 423//434 429//468
f 280//350 645//742 646//741 429//468
f 641//736 703//804 704//803 705//805
f 646//741 640//737 641//736 705//805
f 636//731 700//801 701//800 703//804
f 641//736 635//732 636//731 703//804
f 632//727 695//794 696//793 700//829
f 636//731 631//728 632//727 700//829
f 629//724 690//789 691//788 695//794
f 632//727 628//725 629//724 695//794
f 255//470 422//408 686//784 690//789
f 629//724 254//326 255//470 690//789
f 621//716 680//778 420//399 319//471
f 250//317 620//717 621//716 319//471
f 616//711 678//777 679//776 680//778
f 621//716 615//712 616//711 680//778
f 611//706 675//774 676//773 678//777
f 616//711 610//707 611//706 678//777
f 607//702 670//769 671//768 675//774
f 611//706 606//703 607//702 675//774
f 604//699 665//764 666//763 670//769
f 607//702 603//700 604//699 670//769
f 227//472 419//376 662//760 665//764
f 604//699 226//293 227//472 665//764
f 642//739 643//738 647//744 657//756
f 455//500 456//500 595//685 596//685
f 456//504 457//503 594//683 595//682
f 390//235 159//192 553//630 568//647
f 553//630 554//629 556//633 566//648
f 556//645 557//636 559//636 564//645
f 488//543 485//542 510//576 511//575
f 485//542 486//541 721//830 510//576
f 721//830 507//570 508//571 510//576
f 486//541 443//486 444//485 721//830
f 444//485 447//491 507//570 721//830
f 722//831 84//831 85//97 506//569
f 489//547 723//832 722//833 506//569
f 465//515 463//514 489//547 506//569
f 724//834 494//835 722//833 723//832
f 725//836 505//568 724//834 723//832
f 489//547 440//548 725//836 723//832
f 470//523 471//522 505//568 725//836
f 440//548 490//551 470//523 725//836
f 431//837 430//482 494//838 724//837
f 505//568 83//567 431//837 724//837
f 494//839 66//839 84//831 722//831
f 476//530 453//498 451//496 504//566
f 438//537 450//494 443//486 486//541
f 481//538 460//510 461//509 484//539
f 449//495 450//494 438//537 483//540
f 459//506 460//506 481//536 482//536
f 494//838 430//482 66//484
