# pilowlava3D glyph 'n' variant 1 — Vincent Wagner / Velvetyne, Free Art License
v 3.54196 4.27258 -0.47408
v 3.58057 0.89448 -0.46028
v 1.09036 0.36209 -0.43429
v 0.58220 0.23269 -0.44703
v 3.80118 4.27578 -0.46841
v 3.86209 4.42288 -0.29918
v 4.13441 4.18397 -0.29105
v 3.88165 4.09400 -0.50963
v 3.48978 4.08170 -0.52188
v 3.45058 4.41227 -0.31147
v 3.21140 4.13857 -0.31640
v 3.78003 0.73044 -0.45178
v 3.63161 0.49411 -0.49866
v 3.40955 0.63512 -0.53850
v 3.16289 0.83227 -0.54007
v 3.30380 1.02394 -0.46520
v 3.79823 1.08205 -0.37951
v 3.90639 1.00576 -0.37840
v 3.44241 0.05824 -0.26064
v 3.22742 0.14777 -0.30672
v 3.43246 0.30239 -0.47618
v 3.65727 0.15166 -0.31476
v 1.20850 0.29178 -0.28064
v 0.90718 0.07667 -0.27822
v 0.84650 0.25810 -0.47215
v 0.75674 0.47164 -0.56710
v 1.05800 0.56139 -0.47915
v 1.25700 0.59700 -0.26860
v 0.53535 0.07889 -0.28170
v 0.45311 0.38915 -0.48102
v 0.24261 0.27373 -0.28285
v 0.17676 0.21061 -0.00000
v 0.04669 0.55496 -0.00000
v 0.14240 0.58591 -0.27327
v 0.38176 0.63426 -0.48815
v 0.11961 0.86824 -0.27155
v 0.34436 0.89273 -0.48882
v 0.62943 0.95082 -0.58024
v 0.68356 0.70237 -0.58766
v 0.91318 1.03256 -0.49454
v 0.98347 0.79416 -0.50008
v 1.11595 1.09834 -0.27022
v 1.19678 0.85547 -0.27286
v 1.29230 0.87702 -0.00000
v 0.00848 1.13350 -0.00000
v 0.10559 1.13507 -0.26657
v 0.00685 1.39926 -0.00000
v 0.63495 2.56271 -0.00000
v 0.54082 2.79916 -0.00000
v 0.67218 2.30513 -0.21829
v 0.58340 2.54861 -0.21212
v 0.49573 2.78982 -0.20519
v 0.47649 2.52260 -0.37735
v 0.40227 2.77073 -0.36309
v 0.33777 3.01929 -0.34083
v 0.41766 3.02843 -0.19025
v 0.45116 3.03182 -0.00000
v 0.35947 3.26899 -0.16881
v 0.00557 1.66286 -0.00000
v 0.07265 1.92518 -0.23042
v 0.08026 1.66290 -0.24361
v 0.09404 1.39950 -0.25510
v 0.24104 1.68043 -0.43679
v 0.27411 1.41696 -0.45811
v 0.30972 1.15501 -0.47540
v 0.52122 1.46376 -0.54427
v 0.57448 1.20755 -0.56417
v 0.76633 1.52488 -0.45730
v 0.84071 1.27715 -0.48032
v 0.93556 1.57729 -0.25206
v 1.02785 1.33722 -0.26414
v 0.85013 1.81859 -0.24046
v 0.76190 2.06077 -0.22822
v 0.69511 1.77272 -0.43588
v 0.62611 2.02306 -0.41476
v 0.55263 2.27353 -0.39390
v 0.41937 1.97795 -0.49296
v 0.36870 2.23445 -0.46696
v 0.31834 2.48895 -0.43976
v 0.18709 2.20175 -0.39705
v 0.16324 2.46368 -0.38036
v 0.14334 2.72473 -0.36782
v 0.27142 2.74480 -0.41635
v 0.12241 2.99038 -0.34936
v 0.22946 3.00497 -0.39055
v 0.10158 3.25531 -0.32418
v 0.20232 3.26326 -0.36753
v 0.29811 3.26896 -0.31190
v 0.19405 3.52091 -0.34667
v 0.28290 3.51623 -0.28541
v 0.33086 3.51006 -0.15072
v 0.29932 3.75693 -0.26538
v 0.33936 3.74390 -0.14025
v 0.04547 2.71218 -0.21156
v 0.05290 2.44812 -0.21430
v 0.06273 2.18556 -0.22155
v 0.21335 1.94180 -0.41519
v 0.46852 1.72107 -0.51631
v 0.03999 2.97741 -0.20208
v 0.03488 3.24755 -0.18721
v 0.01869 3.52359 -0.00000
v 0.04083 3.52341 -0.17266
v 0.09694 3.52338 -0.30195
v 0.07838 3.80829 -0.16301
v 0.12766 3.79669 -0.28995
v 0.21910 3.77610 -0.33570
v 0.21553 4.06932 -0.29989
v 0.30157 4.02004 -0.33762
v 0.37263 3.97817 -0.26278
v 0.46671 4.21541 -0.34297
v 0.51593 4.14954 -0.26877
v 0.54486 4.10882 -0.13463
v 0.41064 3.95240 -0.13717
v 0.55054 4.09968 -0.00000
v 0.41858 3.94507 -0.00000
v 0.16270 4.10340 -0.16787
v 0.34697 4.37769 -0.00000
v 0.35803 4.36048 -0.17863
v 0.40240 4.30016 -0.31021
v 0.66228 4.48828 -0.17698
v 0.67574 4.42734 -0.30258
v 0.69812 4.32916 -0.34143
v 0.97806 4.42756 -0.30661
v 0.95653 4.32951 -0.34115
v 0.94055 4.25185 -0.27284
v 0.71663 4.24682 -0.27219
v 0.93001 4.19785 -0.14039
v 0.72878 4.19282 -0.13516
v 0.99397 4.49283 -0.17995
v 1.31377 4.37845 -0.00000
v 1.29625 4.36099 -0.19168
v 1.25072 4.30414 -0.31503
v 1.51645 4.12490 -0.20501
v 1.44820 4.08496 -0.34037
v 1.36182 4.03427 -0.37892
v 1.19080 4.22674 -0.35358
v 1.28119 3.98123 -0.31487
v 1.14067 4.15603 -0.28200
v 1.21916 3.93276 -0.17729
v 1.11067 4.10843 -0.15393
v 1.20020 3.91745 -0.00000
v 1.54680 4.14318 -0.00000
v 1.72108 3.89669 -0.00000
v 1.67511 3.87247 -0.21905
v 1.86456 3.67435 -0.00000
v 1.30779 2.57595 -0.00000
v 1.44838 2.31623 -0.00000
v 1.60289 2.07868 -0.00000
v 1.38071 2.60757 -0.25725
v 1.52303 2.35787 -0.25874
v 1.67551 2.12503 -0.26058
v 1.68193 2.45133 -0.46854
v 1.83015 2.22614 -0.47160
v 1.98369 2.00729 -0.46896
v 1.83456 1.90533 -0.25863
v 1.76299 1.85630 -0.00000
v 1.98915 1.68646 -0.25849
v 1.91954 1.63774 -0.00000
v 2.24872 3.05987 -0.00000
v 2.12131 3.26177 -0.00000
v 1.99493 3.46600 -0.00000
v 2.05022 3.22127 -0.24675
v 1.93159 3.42821 -0.23942
v 1.80865 3.64097 -0.23125
v 1.78926 3.35677 -0.42703
v 1.68768 3.58390 -0.40472
v 1.58141 3.82922 -0.37536
v 1.51903 3.52118 -0.46657
v 1.46191 3.78301 -0.42313
v 1.34425 3.47994 -0.40055
v 1.34282 3.74789 -0.36694
v 1.21918 3.46085 -0.22786
v 1.24297 3.71468 -0.20616
v 1.20160 3.70051 -0.00000
v 1.21248 3.17486 -0.24071
v 1.27130 2.88246 -0.25028
v 1.36282 3.20845 -0.42647
v 1.43213 2.94082 -0.44900
v 1.54410 2.68711 -0.46401
v 1.66597 3.03796 -0.53033
v 1.77895 2.80925 -0.54703
v 1.91069 2.58697 -0.55452
v 2.01218 2.93068 -0.46098
v 2.14078 2.71915 -0.46961
v 2.27507 2.50521 -0.46923
v 2.05147 2.36828 -0.55760
v 2.41347 2.28971 -0.46991
v 2.19693 2.14973 -0.55653
v 2.55498 2.07401 -0.46520
v 2.34520 1.93168 -0.55318
v 2.13568 1.78849 -0.46653
v 2.49281 1.71496 -0.54819
v 2.28845 1.57058 -0.46166
v 2.14645 1.46885 -0.25603
v 2.44348 1.35221 -0.45893
v 2.30423 1.24750 -0.25630
v 2.23630 1.19854 -0.00000
v 2.07745 1.42018 -0.00000
v 2.43526 2.60101 -0.26038
v 2.30547 2.81286 -0.26131
v 2.17485 3.01764 -0.25500
v 1.89540 3.14220 -0.44660
v 1.58040 3.27368 -0.50035
v 2.57069 2.38880 -0.26148
v 2.70668 2.17520 -0.25925
v 2.91634 2.00873 -0.00000
v 2.84732 1.96302 -0.25996
v 2.69838 1.85942 -0.46336
v 2.98322 1.75113 -0.25864
v 2.83760 1.64427 -0.45924
v 2.63997 1.49806 -0.54184
v 2.97693 1.43103 -0.46124
v 2.79138 1.27989 -0.54380
v 2.60667 1.13216 -0.46030
v 2.95879 1.05622 -0.54071
v 2.78549 0.90796 -0.46551
v 2.64326 0.79692 -0.26281
v 2.47072 1.02527 -0.25738
v 2.40105 0.97362 -0.00000
v 3.05151 1.79910 -0.00000
v 3.11697 1.54514 -0.26121
v 3.31116 1.41427 -0.00000
v 3.25151 1.35493 -0.26275
v 3.12294 1.21634 -0.46559
v 3.39555 1.19367 -0.25367
v 3.56981 1.11485 -0.24332
v 3.72191 1.21371 -0.00000
v 3.73180 1.17061 -0.22188
v 3.80318 1.33507 -0.00000
v 3.81834 1.32215 -0.20920
v 3.89030 1.30159 -0.32962
v 3.81746 1.53784 -0.20795
v 3.90123 1.53538 -0.32965
v 4.01804 1.53477 -0.33290
v 3.99121 1.27480 -0.33239
v 4.08858 1.53562 -0.20594
v 4.05402 1.25373 -0.20620
v 4.00328 0.95914 -0.23288
v 3.95024 0.65290 -0.27666
v 3.85570 0.38153 -0.30814
v 3.44130 0.00000 -0.00000
v 3.01611 0.33781 -0.29327
v 2.82472 0.56159 -0.27469
v 2.98566 0.67748 -0.48018
v 3.20891 0.46836 -0.49246
v 3.79259 1.54060 -0.00000
v 3.76343 1.77724 -0.22603
v 3.69255 2.02422 -0.24416
v 3.81703 2.03826 -0.39652
v 3.86214 1.78335 -0.36709
v 3.97887 2.05951 -0.39716
v 3.99937 1.79787 -0.36593
v 4.11629 2.07221 -0.23980
v 4.10338 1.80804 -0.22494
v 4.17888 2.06814 -0.00000
v 4.15367 1.80961 -0.00000
v 4.12563 1.53398 -0.00000
v 3.54619 2.25371 -0.00000
v 3.45474 2.49572 -0.00000
v 3.53548 2.51742 -0.26828
v 3.61548 2.27070 -0.25639
v 3.71281 2.55241 -0.45285
v 3.76781 2.29605 -0.42657
v 3.95430 2.58315 -0.45142
v 3.96631 2.32070 -0.42488
v 4.14198 2.59339 -0.26464
v 4.12952 2.33300 -0.25005
v 3.26878 2.98587 -0.00000
v 3.36185 2.73916 -0.00000
v 3.37665 3.02004 -0.30097
v 3.45459 2.76673 -0.28440
v 3.61380 3.07156 -0.51204
v 3.65961 2.80965 -0.48027
v 3.92384 3.10416 -0.50450
v 3.93707 2.84480 -0.47647
v 4.16571 3.10663 -0.29102
v 4.15384 2.85231 -0.27868
v 4.28214 3.09770 -0.00000
v 3.09390 3.51008 -0.00000
v 3.17953 3.23793 -0.00000
v 3.22624 3.53511 -0.32134
v 3.30348 3.27415 -0.31010
v 3.53018 3.58653 -0.53910
v 3.56909 3.33443 -0.53244
v 3.92249 3.61582 -0.53044
v 3.91949 3.36474 -0.52516
v 4.20743 3.61844 -0.30650
v 4.18640 3.35960 -0.30251
v 4.31105 3.35254 -0.00000
v 3.11333 4.18526 -0.00000
v 3.05733 3.82583 -0.00000
v 3.18480 3.81620 -0.31671
v 3.50000 3.82984 -0.53934
v 3.91280 3.85806 -0.52767
v 4.21124 3.88998 -0.30490
v 3.87874 4.49780 -0.00000
v 3.41637 4.48734 -0.00000
v 0.52414 0.00900 -0.00000
v 1.20952 1.12794 -0.00000
v 1.33949 0.58915 -0.00000
v 1.26936 0.24402 -0.00000
v 0.02072 0.86089 -0.00000
v 0.72928 2.32373 -0.00000
v 0.38187 3.26712 -0.00000
v 0.00717 1.92454 -0.00000
v 1.01633 1.60739 -0.00000
v 1.11426 1.37034 -0.00000
v 0.92134 1.84568 -0.00000
v 0.82466 2.08473 -0.00000
v 0.34991 3.73896 -0.00000
v 0.34511 3.50651 -0.00000
v 0.00000 2.70940 -0.00000
v 0.00333 2.44384 -0.00000
v 0.00609 2.18323 -0.00000
v 0.00198 2.97242 -0.00000
v 0.00616 3.24421 -0.00000
v 0.06013 3.81300 -0.00000
v 0.14806 4.11540 -0.00000
v 0.92761 4.18715 -0.00000
v 0.73022 4.18235 -0.00000
v 0.65912 4.50737 -0.00000
v 1.00067 4.51188 -0.00000
v 1.10397 4.09664 -0.00000
v 1.16339 3.45461 -0.00000
v 1.15033 3.16583 -0.00000
v 1.20149 2.86149 -0.00000
v 2.50900 2.64463 -0.00000
v 2.37914 2.85460 -0.00000
v 2.64325 2.43356 -0.00000
v 2.77879 2.22009 -0.00000
v 2.56938 0.74220 -0.00000
v 3.18527 1.59738 -0.00000
v 3.43480 1.25877 -0.00000
v 3.57152 1.18582 -0.00000
v 4.09268 1.24426 -0.00000
v 4.05849 0.93928 -0.00000
v 4.02487 0.62936 -0.00000
v 3.93571 0.33864 -0.00000
v 3.72578 0.09012 -0.00000
v 3.15739 0.07464 -0.00000
v 2.93230 0.27299 -0.00000
v 2.74571 0.50417 -0.00000
v 3.72075 1.77836 -0.00000
v 3.63504 2.01556 -0.00000
v 4.22957 2.58906 -0.00000
v 4.20363 2.33063 -0.00000
v 4.25613 2.84454 -0.00000
v 4.32974 3.62059 -0.00000
v 4.20192 4.23667 -0.00000
v 4.31801 3.91120 -0.00000
v 0.92850 0.00769 -0.00000
v 3.54196 4.27258 0.47408
v 3.58057 0.89448 0.46028
v 1.09036 0.36209 0.43429
v 0.58220 0.23269 0.44703
v 3.80118 4.27578 0.46841
v 3.86209 4.42288 0.29918
v 4.13441 4.18397 0.29105
v 3.88165 4.09400 0.50963
v 3.48978 4.08170 0.52188
v 3.45058 4.41227 0.31147
v 3.21140 4.13857 0.31640
v 3.78003 0.73044 0.45178
v 3.63161 0.49411 0.49866
v 3.40955 0.63512 0.53850
v 3.16289 0.83227 0.54007
v 3.30380 1.02394 0.46520
v 3.79823 1.08205 0.37951
v 3.90639 1.00576 0.37840
v 3.44241 0.05824 0.26064
v 3.22742 0.14777 0.30672
v 3.43246 0.30239 0.47618
v 3.65727 0.15166 0.31476
v 1.20850 0.29178 0.28064
v 0.90718 0.07667 0.27822
v 0.84650 0.25810 0.47215
v 0.75674 0.47164 0.56710
v 1.05800 0.56139 0.47915
v 1.25700 0.59700 0.26860
v 0.53535 0.07889 0.28170
v 0.45311 0.38915 0.48102
v 0.24261 0.27373 0.28285
v 0.14240 0.58591 0.27327
v 0.38176 0.63426 0.48815
v 0.11961 0.86824 0.27155
v 0.34436 0.89273 0.48882
v 0.62943 0.95082 0.58024
v 0.68356 0.70237 0.58766
v 0.91318 1.03256 0.49454
v 0.98347 0.79416 0.50008
v 1.11595 1.09834 0.27022
v 1.19678 0.85547 0.27286
v 0.10559 1.13507 0.26657
v 0.67218 2.30513 0.21829
v 0.58340 2.54861 0.21212
v 0.49573 2.78982 0.20519
v 0.47649 2.52260 0.37735
v 0.40227 2.77073 0.36309
v 0.33777 3.01929 0.34083
v 0.41766 3.02843 0.19025
v 0.35947 3.26899 0.16881
v 0.07265 1.92518 0.23042
v 0.08026 1.66290 0.24361
v 0.09404 1.39950 0.25510
v 0.24104 1.68043 0.43679
v 0.27411 1.41696 0.45811
v 0.30972 1.15501 0.47540
v 0.52122 1.46376 0.54427
v 0.57448 1.20755 0.56417
v 0.76633 1.52488 0.45730
v 0.84071 1.27715 0.48032
v 0.93556 1.57729 0.25206
v 1.02785 1.33722 0.26414
v 0.85013 1.81859 0.24046
v 0.76190 2.06077 0.22822
v 0.69511 1.77272 0.43588
v 0.62611 2.02306 0.41476
v 0.55263 2.27353 0.39390
v 0.41937 1.97795 0.49296
v 0.36870 2.23445 0.46696
v 0.31834 2.48895 0.43976
v 0.18709 2.20175 0.39705
v 0.16324 2.46368 0.38036
v 0.14334 2.72473 0.36782
v 0.27142 2.74480 0.41635
v 0.12241 2.99038 0.34936
v 0.22946 3.00497 0.39055
v 0.10158 3.25531 0.32418
v 0.20232 3.26326 0.36753
v 0.29811 3.26896 0.31190
v 0.19405 3.52091 0.34667
v 0.28290 3.51623 0.28541
v 0.33086 3.51006 0.15072
v 0.29932 3.75693 0.26538
v 0.33936 3.74390 0.14025
v 0.04547 2.71218 0.21156
v 0.05290 2.44812 0.21430
v 0.06273 2.18556 0.22155
v 0.21335 1.94180 0.41519
v 0.46852 1.72107 0.51631
v 0.03999 2.97741 0.20208
v 0.03488 3.24755 0.18721
v 0.04083 3.52341 0.17266
v 0.09694 3.52338 0.30195
v 0.07838 3.80829 0.16301
v 0.12766 3.79669 0.28995
v 0.21910 3.77610 0.33570
v 0.21553 4.06932 0.29989
v 0.30157 4.02004 0.33762
v 0.37263 3.97817 0.26278
v 0.46671 4.21541 0.34297
v 0.51593 4.14954 0.26877
v 0.54486 4.10882 0.13463
v 0.41064 3.95240 0.13717
v 0.16270 4.10340 0.16787
v 0.35803 4.36048 0.17863
v 0.40240 4.30016 0.31021
v 0.66228 4.48828 0.17698
v 0.67574 4.42734 0.30258
v 0.69812 4.32916 0.34143
v 0.97806 4.42756 0.30661
v 0.95653 4.32951 0.34115
v 0.94055 4.25185 0.27284
v 0.71663 4.24682 0.27219
v 0.93001 4.19785 0.14039
v 0.72878 4.19282 0.13516
v 0.99397 4.49283 0.17995
v 1.29625 4.36099 0.19168
v 1.25072 4.30414 0.31503
v 1.51645 4.12490 0.20501
v 1.44820 4.08496 0.34037
v 1.36182 4.03427 0.37892
v 1.19080 4.22674 0.35358
v 1.28119 3.98123 0.31487
v 1.14067 4.15603 0.28200
v 1.21916 3.93276 0.17729
v 1.11067 4.10843 0.15393
v 1.67511 3.87247 0.21905
v 1.38071 2.60757 0.25725
v 1.52303 2.35787 0.25874
v 1.67551 2.12503 0.26058
v 1.68193 2.45133 0.46854
v 1.83015 2.22614 0.47160
v 1.98369 2.00729 0.46896
v 1.83456 1.90533 0.25863
v 1.98915 1.68646 0.25849
v 2.05022 3.22127 0.24675
v 1.93159 3.42821 0.23942
v 1.80865 3.64097 0.23125
v 1.78926 3.35677 0.42703
v 1.68768 3.58390 0.40472
v 1.58141 3.82922 0.37536
v 1.51903 3.52118 0.46657
v 1.46191 3.78301 0.42313
v 1.34425 3.47994 0.40055
v 1.34282 3.74789 0.36694
v 1.21918 3.46085 0.22786
v 1.24297 3.71468 0.20616
v 1.21248 3.17486 0.24071
v 1.27130 2.88246 0.25028
v 1.36282 3.20845 0.42647
v 1.43213 2.94082 0.44900
v 1.54410 2.68711 0.46401
v 1.66597 3.03796 0.53033
v 1.77895 2.80925 0.54703
v 1.91069 2.58697 0.55452
v 2.01218 2.93068 0.46098
v 2.14078 2.71915 0.46961
v 2.27507 2.50521 0.46923
v 2.05147 2.36828 0.55760
v 2.41347 2.28971 0.46991
v 2.19693 2.14973 0.55653
v 2.55498 2.07401 0.46520
v 2.34520 1.93168 0.55318
v 2.13568 1.78849 0.46653
v 2.49281 1.71496 0.54819
v 2.28845 1.57058 0.46166
v 2.14645 1.46885 0.25603
v 2.44348 1.35221 0.45893
v 2.30423 1.24750 0.25630
v 2.43526 2.60101 0.26038
v 2.30547 2.81286 0.26131
v 2.17485 3.01764 0.25500
v 1.89540 3.14220 0.44660
v 1.58040 3.27368 0.50035
v 2.57069 2.38880 0.26148
v 2.70668 2.17520 0.25925
v 2.84732 1.96302 0.25996
v 2.69838 1.85942 0.46336
v 2.98322 1.75113 0.25864
v 2.83760 1.64427 0.45924
v 2.63997 1.49806 0.54184
v 2.97693 1.43103 0.46124
v 2.79138 1.27989 0.54380
v 2.60667 1.13216 0.46030
v 2.95879 1.05622 0.54071
v 2.78549 0.90796 0.46551
v 2.64326 0.79692 0.26281
v 2.47072 1.02527 0.25738
v 3.11697 1.54514 0.26121
v 3.25151 1.35493 0.26275
v 3.12294 1.21634 0.46559
v 3.39555 1.19367 0.25367
v 3.56981 1.11485 0.24332
v 3.73180 1.17061 0.22188
v 3.81834 1.32215 0.20920
v 3.89030 1.30159 0.32962
v 3.81746 1.53784 0.20795
v 3.90123 1.53538 0.32965
v 4.01804 1.53477 0.33290
v 3.99121 1.27480 0.33239
v 4.08858 1.53562 0.20594
v 4.05402 1.25373 0.20620
v 4.00328 0.95914 0.23288
v 3.95024 0.65290 0.27666
v 3.85570 0.38153 0.30814
v 3.01611 0.33781 0.29327
v 2.82472 0.56159 0.27469
v 2.98566 0.67748 0.48018
v 3.20891 0.46836 0.49246
v 3.76343 1.77724 0.22603
v 3.69255 2.02422 0.24416
v 3.81703 2.03826 0.39652
v 3.86214 1.78335 0.36709
v 3.97887 2.05951 0.39716
v 3.99937 1.79787 0.36593
v 4.11629 2.07221 0.23980
v 4.10338 1.80804 0.22494
v 3.53548 2.51742 0.26828
v 3.61548 2.27070 0.25639
v 3.71281 2.55241 0.45285
v 3.76781 2.29605 0.42657
v 3.95430 2.58315 0.45142
v 3.96631 2.32070 0.42488
v 4.14198 2.59339 0.26464
v 4.12952 2.33300 0.25005
v 3.37665 3.02004 0.30097
v 3.45459 2.76673 0.28440
v 3.61380 3.07156 0.51204
v 3.65961 2.80965 0.48027
v 3.92384 3.10416 0.50450
v 3.93707 2.84480 0.47647
v 4.16571 3.10663 0.29102
v 4.15384 2.85231 0.27868
v 3.22624 3.53511 0.32134
v 3.30348 3.27415 0.31010
v 3.53018 3.58653 0.53910
v 3.56909 3.33443 0.53244
v 3.92249 3.61582 0.53044
v 3.91949 3.36474 0.52516
v 4.20743 3.61844 0.30650
v 4.18640 3.35960 0.30251
v 3.18480 3.81620 0.31671
v 3.50000 3.82984 0.53934
v 3.91280 3.85806 0.52767
v 4.21124 3.88998 0.30490
vn 0.21053 0.52322 -0.82578
vn 0.32157 0.80492 -0.49869
vn 0.71725 0.44309 -0.53780
vn 0.31994 0.25095 -0.91360
vn -0.19724 0.49786 -0.84453
vn -0.29574 0.19785 -0.93456
vn -0.35794 0.77190 -0.52541
vn -0.74950 0.32286 -0.57794
vn 0.12388 0.40814 -0.90448
vn 0.46355 0.00959 -0.88602
vn 0.32096 -0.17279 -0.93120
vn 0.05131 0.00171 -0.99868
vn 0.00242 0.02954 -0.99956
vn 0.33251 0.41495 -0.84691
vn 0.11905 0.18163 -0.97613
vn 0.01039 -0.88988 -0.45608
vn -0.35384 -0.73385 -0.57987
vn 0.00000 -0.44723 -0.89442
vn 0.39794 -0.70878 -0.58248
vn 0.51582 -0.32402 -0.79306
vn 0.49375 -0.73709 -0.46142
vn 0.25632 -0.83598 -0.48522
vn 0.15667 -0.51462 -0.84299
vn 0.05351 -0.18416 -0.98144
vn 0.53083 -0.02860 -0.84699
vn 0.86738 0.03157 -0.49664
vn 0.87788 -0.11110 -0.46582
vn -0.18494 -0.57241 -0.79884
vn -0.25366 -0.82551 -0.50418
vn -0.37088 -0.32526 -0.86986
vn -0.66615 -0.50739 -0.54663
vn -0.27536 -0.96134 -0.00130
vn -0.78024 -0.62548 -0.00032
vn -0.97867 -0.20544 0.00104
vn -0.81366 -0.16882 -0.55629
vn -0.47657 -0.11312 -0.87183
vn -0.83509 -0.06001 -0.54683
vn -0.51002 -0.03991 -0.85924
vn -0.02432 0.04571 -0.99866
vn -0.00576 -0.02127 -0.99976
vn 0.48950 0.18096 -0.85302
vn 0.49835 0.12393 -0.85807
vn 0.80267 0.28594 -0.52340
vn 0.82311 0.22118 -0.52304
vn 0.94107 0.33820 0.00005
vn 0.96712 0.25431 -0.00068
vn 0.99996 0.00837 0.00028
vn 0.98495 -0.17283 0.00191
vn -0.99799 -0.06336 0.00006
vn -0.99951 -0.03124 0.00001
vn -0.84788 -0.03245 -0.52919
vn 0.93361 0.35829 -0.00001
vn 0.93284 0.36028 0.00005
vn 0.84567 0.32160 -0.42592
vn 0.85797 0.32168 -0.40051
vn 0.87505 0.31677 -0.36599
vn 0.93682 0.34982 0.00004
vn 0.58867 0.23317 -0.77401
vn 0.61418 0.23239 -0.75418
vn 0.66424 0.21417 -0.71618
vn 0.90664 0.27682 -0.31840
vn 0.95295 0.30313 -0.00002
vn 0.94644 0.18554 -0.26424
vn 0.97932 0.20231 -0.00013
vn -0.99992 -0.01273 -0.00001
vn -0.99995 -0.01030 -0.00003
vn -0.89377 -0.01451 -0.44829
vn -0.87919 -0.01616 -0.47620
vn -0.86307 -0.02322 -0.50454
vn -0.99981 -0.01939 0.00001
vn -0.57532 0.00653 -0.81790
vn -0.55461 -0.00225 -0.83211
vn -0.53266 -0.01431 -0.84621
vn -0.02294 0.09544 -0.99517
vn -0.02556 0.07563 -0.99681
vn 0.51327 0.22629 -0.82785
vn 0.49731 0.21179 -0.84132
vn 0.80738 0.31989 -0.49580
vn 0.79930 0.31563 -0.51137
vn 0.92964 0.36847 -0.00000
vn 0.92946 0.36892 0.00003
vn 0.93208 0.36226 -0.00001
vn 0.82110 0.31561 -0.47558
vn 0.83325 0.32061 -0.45044
vn 0.93136 0.36409 0.00003
vn 0.53291 0.22539 -0.81560
vn 0.55344 0.23008 -0.80048
vn 0.57185 0.23552 -0.78582
vn -0.01906 0.10036 -0.99477
vn 0.32897 0.16521 -0.92978
vn 0.33676 0.15798 -0.92824
vn -0.36043 0.02283 -0.93251
vn -0.36122 0.02654 -0.93210
vn -0.61350 0.00030 -0.78969
vn -0.62499 -0.00262 -0.78063
vn -0.63782 0.00238 -0.77018
vn -0.35975 0.02692 -0.93266
vn 0.35496 0.15837 -0.92137
vn -0.66025 0.01584 -0.75088
vn -0.37115 0.04277 -0.92759
vn 0.40698 0.15764 -0.89973
vn -0.39430 0.05742 -0.91719
vn 0.48848 0.12699 -0.86328
vn 0.73296 0.15526 -0.66232
vn 0.57346 0.05143 -0.81762
vn 0.79249 0.05003 -0.60782
vn 0.97383 0.05027 -0.22165
vn 0.80838 -0.14090 -0.57155
vn 0.96346 -0.17100 -0.20616
vn 0.98458 -0.17493 0.00000
vn 0.99842 0.05626 -0.00001
vn -0.99980 -0.01990 0.00003
vn -0.99994 -0.01104 0.00004
vn -0.92763 -0.01680 -0.37311
vn -0.91712 -0.02395 -0.39790
vn -0.90646 -0.02239 -0.42169
vn -0.99983 -0.01859 0.00000
vn -0.59619 0.00514 -0.80283
vn -0.02034 0.10148 -0.99463
vn -1.00000 0.00000 0.00002
vn -0.94056 -0.00635 -0.33957
vn -0.99980 0.01995 -0.00005
vn -0.95367 0.01536 -0.30046
vn -0.89773 0.01024 -0.44043
vn -0.99614 0.08774 -0.00006
vn -0.95990 0.08361 -0.26759
vn -0.91312 0.07835 -0.40009
vn -0.94594 0.20175 -0.25395
vn -0.90123 0.19301 -0.38798
vn -0.41522 0.07418 -0.90669
vn -0.40664 0.09612 -0.90852
vn -0.33269 0.15095 -0.93088
vn 0.62599 -0.10626 -0.77256
vn 0.57516 -0.33302 -0.74719
vn 0.71945 -0.40960 -0.56091
vn 0.40103 -0.52765 -0.74884
vn 0.49797 -0.65393 -0.56957
vn 0.58965 -0.77732 -0.21931
vn 0.85112 -0.48094 -0.21046
vn 0.60246 -0.79815 -0.00001
vn 0.86972 -0.49355 -0.00002
vn -0.97818 0.20774 0.00001
vn -0.89445 0.44717 0.00003
vn -0.86025 0.42982 -0.27426
vn -0.61263 0.79037 -0.00003
vn -0.58723 0.75248 -0.29821
vn -0.54518 0.69336 -0.47120
vn -0.80794 0.40342 -0.42951
vn -0.19658 0.93633 -0.29094
vn -0.18446 0.86751 -0.46196
vn -0.20371 0.25221 -0.94599
vn -0.06928 0.33131 -0.94097
vn 0.05223 0.34421 -0.93744
vn 0.14876 -0.63097 -0.76141
vn -0.15018 -0.62442 -0.76652
vn -0.18423 -0.78189 -0.59558
vn 0.18457 -0.79045 -0.58406
vn -0.21714 -0.94656 -0.23848
vn 0.21942 -0.94881 -0.22718
vn -0.22110 -0.97525 0.00003
vn 0.22475 -0.97442 -0.00001
vn -0.20323 0.97913 -0.00001
vn 0.19419 0.98096 0.00004
vn 0.18387 0.93675 -0.29781
vn 0.56722 0.82356 0.00015
vn 0.53425 0.78175 -0.32163
vn 0.34431 0.55146 -0.75983
vn 0.16829 0.86584 -0.47117
vn 0.72847 0.58871 -0.35036
vn 0.47933 0.43564 -0.76187
vn 0.24046 0.28788 -0.92699
vn 0.16442 0.32305 -0.93199
vn -0.41845 -0.45353 -0.78690
vn -0.53140 -0.15890 -0.83208
vn -0.70519 -0.22577 -0.67212
vn -0.52911 -0.57563 -0.62345
vn -0.90896 -0.28214 -0.30690
vn -0.65845 -0.70441 -0.26505
vn -0.96027 -0.27907 0.00018
vn -0.68992 -0.72388 -0.00015
vn 0.77675 0.62981 0.00003
vn 0.83990 0.54275 -0.00003
vn 0.77714 0.48928 -0.39579
vn -0.85686 -0.51555 0.00007
vn -0.90689 -0.42138 0.00013
vn -0.79094 -0.36904 -0.48807
vn -0.74442 -0.44877 -0.49441
vn -0.71635 -0.49109 -0.49566
vn -0.82431 -0.56614 0.00000
vn -0.47305 -0.27800 -0.83603
vn -0.45814 -0.30974 -0.83317
vn -0.45362 -0.32577 -0.82952
vn -0.70692 -0.50652 -0.49366
vn -0.81247 -0.58300 0.00001
vn -0.70726 -0.50826 -0.49139
vn -0.81191 -0.58378 0.00000
vn 0.85547 0.51785 -0.00002
vn 0.85147 0.52440 -0.00002
vn 0.74072 0.45678 -0.49263
vn 0.75511 0.45095 -0.47587
vn 0.77008 0.45867 -0.44340
vn 0.85238 0.52292 0.00006
vn 0.47679 0.30922 -0.82283
vn 0.49995 0.31802 -0.80555
vn 0.51440 0.35624 -0.78005
vn -0.05888 0.14943 -0.98702
vn 0.26823 0.24496 -0.93169
vn -0.46940 0.04158 -0.88201
vn -0.62128 0.06691 -0.78073
vn -0.68763 0.02705 -0.72556
vn -0.90956 0.07290 -0.40913
vn -0.93431 0.02712 -0.35544
vn -0.99625 0.08654 -0.00021
vn -0.99910 0.04249 0.00012
vn -0.99764 -0.06871 -0.00010
vn -0.89039 -0.06217 -0.45093
vn -0.84805 -0.23517 -0.47488
vn -0.96356 -0.26748 -0.00005
vn -0.57915 -0.01465 -0.81509
vn -0.54169 -0.12532 -0.83118
vn -0.50156 -0.22069 -0.83650
vn -0.03213 0.08695 -0.99569
vn -0.01827 0.04514 -0.99881
vn -0.00702 0.01642 -0.99984
vn 0.45398 0.31001 -0.83534
vn 0.45613 0.29942 -0.83803
vn 0.46238 0.29486 -0.83622
vn 0.00142 0.00052 -1.00000
vn 0.46646 0.29574 -0.83364
vn 0.00677 -0.00917 -0.99994
vn 0.46744 0.29714 -0.83259
vn 0.00914 -0.01389 -0.99986
vn -0.45395 -0.33092 -0.82730
vn 0.01031 -0.01725 -0.99980
vn -0.45246 -0.33396 -0.82689
vn -0.70674 -0.51017 -0.49015
vn -0.45456 -0.33136 -0.82679
vn -0.70445 -0.51258 -0.49093
vn -0.80882 -0.58806 -0.00001
vn -0.81132 -0.58460 -0.00000
vn 0.84663 0.53218 0.00000
vn 0.84748 0.53083 0.00001
vn 0.73333 0.46073 -0.49996
vn 0.73120 0.46297 -0.50101
vn 0.72899 0.46807 -0.49948
vn 0.84379 0.53668 -0.00000
vn 0.46250 0.31134 -0.83016
vn -0.04317 0.12255 -0.99152
vn 0.84382 0.53662 0.00000
vn 0.73136 0.46545 -0.49846
vn 0.84015 0.54235 0.00001
vn 0.72892 0.47068 -0.49714
vn 0.83858 0.54477 0.00001
vn 0.72829 0.47218 -0.49663
vn 0.46695 0.29534 -0.83350
vn 0.72730 0.47185 -0.49838
vn 0.46292 0.29871 -0.83455
vn 0.00404 -0.00975 -0.99994
vn 0.45122 0.31369 -0.83546
vn -0.00113 -0.00176 -1.00000
vn -0.45079 -0.33296 -0.82821
vn 0.00138 0.00839 -0.99996
vn -0.43300 -0.32616 -0.84032
vn -0.69041 -0.51461 -0.50844
vn -0.69761 -0.51711 -0.49591
vn -0.80362 -0.59514 -0.00000
vn -0.80458 -0.59385 -0.00000
vn 0.83835 0.54513 0.00001
vn 0.82746 0.56152 0.00008
vn 0.71546 0.48784 -0.50012
vn 0.79478 0.60690 -0.00030
vn 0.68658 0.53303 -0.49446
vn 0.42750 0.34166 -0.83696
vn 0.53647 0.68533 -0.49247
vn 0.62128 0.78359 0.00051
vn 0.10917 0.99402 0.00195
vn 0.06982 0.86610 -0.49498
vn -0.24025 0.97071 0.00192
vn -0.56427 0.71344 -0.41545
vn -0.51914 0.59623 -0.61237
vn -0.84796 0.53005 0.00190
vn -0.96504 0.26212 0.00070
vn -0.90449 0.25494 -0.34192
vn -0.80081 0.23488 -0.55094
vn -0.92946 -0.12490 -0.34713
vn -0.82625 -0.09890 -0.55455
vn 0.02003 0.08735 -0.99598
vn -0.01488 -0.06769 -0.99760
vn 0.86085 -0.12048 -0.49439
vn 0.85993 -0.07434 -0.50497
vn 0.93168 -0.08823 -0.35239
vn 0.92846 -0.12226 -0.35074
vn 0.90076 -0.12219 -0.41678
vn 0.80276 -0.11735 -0.58465
vn 0.99227 -0.12407 -0.00016
vn 0.99203 -0.12598 -0.00017
vn 0.97788 -0.20917 -0.00001
vn 0.84678 -0.17469 -0.50244
vn 0.87660 -0.48122 0.00007
vn 0.71639 -0.40020 -0.57152
vn 0.56253 -0.82678 0.00133
vn 0.01632 -0.99987 -0.00083
vn -0.49284 -0.87012 -0.00228
vn -0.72565 -0.68806 -0.00017
vn -0.59001 -0.57673 -0.56505
vn -0.66488 -0.52427 -0.53206
vn -0.38437 -0.31347 -0.86833
vn -0.27552 -0.32761 -0.90375
vn -0.78934 -0.61395 -0.00001
vn -0.98951 -0.14446 -0.00032
vn -0.95777 -0.28752 -0.00022
vn -0.88523 -0.26108 -0.38497
vn -0.94661 -0.32238 -0.00028
vn -0.85565 -0.28126 -0.43446
vn -0.74638 -0.23531 -0.62253
vn -0.78440 -0.22622 -0.57754
vn 0.00681 -0.12524 -0.99210
vn 0.01597 -0.11134 -0.99365
vn 0.81161 -0.04507 -0.58245
vn 0.76219 -0.04561 -0.64574
vn 0.88556 -0.06241 -0.46031
vn 0.91093 -0.06405 -0.40755
vn 0.99690 -0.07874 -0.00013
vn 0.99661 -0.08225 -0.00016
vn 0.99488 -0.10104 -0.00011
vn -0.94271 -0.33362 -0.00008
vn -0.94052 -0.33974 -0.00001
vn -0.81014 -0.28873 -0.51021
vn -0.83059 -0.28665 -0.47744
vn -0.67696 -0.23696 -0.69683
vn -0.70833 -0.23655 -0.66506
vn 0.01784 -0.10349 -0.99447
vn 0.02085 -0.09801 -0.99497
vn 0.73115 -0.05243 -0.68020
vn 0.70473 -0.05139 -0.70761
vn 0.84826 -0.06707 -0.52531
vn 0.86628 -0.06636 -0.49514
vn 0.99652 -0.08334 0.00002
vn 0.99678 -0.08017 -0.00006
vn -0.94108 -0.33819 -0.00000
vn -0.94635 -0.32315 0.00007
vn -0.77961 -0.26085 -0.56935
vn -0.79259 -0.28290 -0.54015
vn -0.62681 -0.20354 -0.75211
vn -0.64843 -0.22921 -0.72595
vn 0.02694 -0.10395 -0.99422
vn 0.03077 -0.09310 -0.99518
vn 0.36616 -0.08271 -0.92687
vn 0.67896 -0.05232 -0.73231
vn 0.81465 -0.07752 -0.57475
vn 0.83005 -0.06742 -0.55360
vn 0.92570 -0.08814 -0.36785
vn 0.99648 -0.08389 0.00004
vn -0.88215 -0.28335 -0.37619
vn -0.90264 -0.19807 -0.38212
vn -0.76927 -0.16299 -0.61778
vn -0.76657 -0.23529 -0.59750
vn -0.29295 -0.06505 -0.95391
vn -0.30542 -0.11735 -0.94496
vn 0.33829 -0.01141 -0.94097
vn 0.35237 -0.05552 -0.93421
vn 0.80293 -0.02286 -0.59563
vn 0.80486 -0.07300 -0.58896
vn 0.93120 -0.02982 -0.36327
vn 0.92262 -0.08564 -0.37609
vn -0.99999 -0.00358 0.00076
vn -0.90461 0.42625 -0.00057
vn -0.78877 -0.00997 -0.61461
vn -0.29187 0.01351 -0.95636
vn 0.32890 0.06917 -0.94183
vn 0.79949 0.12662 -0.58719
vn 0.83131 0.55581 -0.00022
vn 0.98697 0.16090 -0.00085
vn 0.64632 0.76306 0.00194
vn -0.02053 0.99979 0.00016
vn -0.72859 0.68495 -0.00307
vn 0.57475 -0.81833 0.00046
vn 0.29947 -0.95411 0.00023
vn 0.30581 0.25162 0.91824
vn 0.70759 0.44617 0.54795
vn 0.30626 0.80496 0.50818
vn 0.19008 0.52153 0.83179
vn -0.28123 0.20101 0.93835
vn -0.17828 0.49863 0.84828
vn -0.34423 0.77445 0.53078
vn -0.73928 0.32902 0.58754
vn 0.04821 0.00263 0.99883
vn 0.31993 -0.17747 0.93067
vn 0.46188 0.00366 0.88693
vn 0.12610 0.41900 0.89919
vn 0.33086 0.41615 0.84697
vn 0.00052 0.03122 0.99951
vn 0.12398 0.18203 0.97544
vn 0.39552 -0.72013 0.57006
vn 0.00072 -0.46380 0.88594
vn -0.35547 -0.74437 0.56529
vn 0.00464 -0.89921 0.43749
vn 0.15797 -0.51787 0.84075
vn 0.25791 -0.83281 0.48980
vn 0.73322 -0.45434 0.50594
vn 0.51290 -0.32448 0.79476
vn 0.52931 -0.03482 0.84771
vn 0.05374 -0.19325 0.97968
vn 0.86493 0.02800 0.50110
vn -0.24724 -0.82505 0.50809
vn -0.17844 -0.57664 0.79727
vn -0.36547 -0.33029 0.87025
vn -0.66033 -0.50786 0.55321
vn -0.81289 -0.16882 0.55741
vn -0.47647 -0.11355 0.87183
vn -0.51034 -0.04008 0.85904
vn -0.83527 -0.05996 0.54657
vn -0.00604 -0.02156 0.99975
vn -0.02430 0.04555 0.99867
vn 0.49846 0.12393 0.85801
vn 0.48950 0.18116 0.85298
vn 0.82344 0.22159 0.52234
vn 0.80261 0.28612 0.52340
vn -0.84786 -0.03251 0.52922
vn 0.85810 0.32121 0.40061
vn 0.84568 0.32151 0.42597
vn 0.87516 0.31656 0.36590
vn 0.61428 0.23168 0.75431
vn 0.58882 0.23241 0.77413
vn 0.90646 0.27801 0.31787
vn 0.66414 0.21422 0.71626
vn 0.94626 0.18673 0.26404
vn -0.87924 -0.01554 0.47613
vn -0.89379 -0.01410 0.44826
vn -0.86308 -0.02350 0.50452
vn -0.55464 -0.00233 0.83209
vn -0.57536 0.00699 0.81787
vn -0.53263 -0.01453 0.84622
vn -0.02548 0.07538 0.99683
vn -0.02288 0.09521 0.99519
vn 0.49740 0.21149 0.84135
vn 0.51338 0.22589 0.82790
vn 0.79930 0.31554 0.51141
vn 0.80749 0.31961 0.49580
vn 0.82118 0.31537 0.47561
vn 0.83326 0.32053 0.45049
vn 0.55355 0.22955 0.80055
vn 0.53301 0.22497 0.81565
vn 0.57187 0.23539 0.78585
vn 0.32907 0.16478 0.92982
vn -0.01896 0.09977 0.99483
vn 0.33684 0.15757 0.92828
vn -0.62501 -0.00216 0.78061
vn -0.61351 0.00029 0.78969
vn -0.36124 0.02664 0.93209
vn -0.36043 0.02287 0.93250
vn -0.35976 0.02692 0.93266
vn -0.63787 0.00296 0.77014
vn 0.35494 0.15680 0.92165
vn -0.37133 0.04246 0.92753
vn -0.66031 0.01653 0.75081
vn 0.40646 0.15547 0.90034
vn -0.39466 0.05713 0.91705
vn 0.73306 0.15515 0.66223
vn 0.48875 0.12628 0.86323
vn 0.79324 0.04976 0.60687
vn 0.57549 0.05145 0.81619
vn 0.97382 0.05029 0.22171
vn 0.96349 -0.17090 0.20612
vn 0.80864 -0.14063 0.57125
vn -0.91712 -0.02360 0.39792
vn -0.92765 -0.01635 0.37310
vn -0.90646 -0.02240 0.42170
vn -0.59618 0.00509 0.80284
vn -0.02028 0.10105 0.99467
vn -0.94055 -0.00592 0.33960
vn -0.95362 0.01564 0.30062
vn -0.89752 0.01163 0.44082
vn -0.95992 0.08357 0.26751
vn -0.91311 0.07872 0.40005
vn -0.90116 0.19242 0.38844
vn -0.94595 0.20138 0.25420
vn -0.41511 0.07414 0.90675
vn -0.40453 0.09548 0.90952
vn -0.32955 0.14893 0.93232
vn 0.71913 -0.40943 0.56144
vn 0.57444 -0.33268 0.74789
vn 0.62656 -0.10614 0.77211
vn 0.49769 -0.65332 0.57051
vn 0.40037 -0.52660 0.74993
vn 0.85112 -0.48090 0.21056
vn 0.58967 -0.77721 0.21962
vn -0.86028 0.42984 0.27414
vn -0.58754 0.75272 0.29701
vn -0.80805 0.40349 0.42924
vn -0.54607 0.69414 0.46902
vn -0.18520 0.86765 0.46139
vn -0.19696 0.93635 0.29062
vn -0.20115 0.24876 0.94745
vn -0.06795 0.32789 0.94227
vn 0.05318 0.34500 0.93710
vn 0.18427 -0.78967 0.58521
vn -0.18399 -0.78111 0.59667
vn -0.14967 -0.62289 0.76786
vn 0.14800 -0.62924 0.76299
vn 0.21947 -0.94876 0.22736
vn -0.21704 -0.94651 0.23878
vn 0.18389 0.93679 0.29769
vn 0.53419 0.78197 0.32120
vn 0.16842 0.86597 0.47087
vn 0.34468 0.55248 0.75892
vn 0.47989 0.43490 0.76195
vn 0.72918 0.58798 0.35011
vn 0.16469 0.32469 0.93137
vn 0.24008 0.28730 0.92727
vn -0.53170 -0.57563 0.62125
vn -0.70370 -0.22901 0.67258
vn -0.52872 -0.16332 0.83293
vn -0.42074 -0.45515 0.78474
vn -0.66041 -0.70303 0.26383
vn -0.90842 -0.28375 0.30702
vn 0.77741 0.48905 0.39554
vn -0.74441 -0.44872 0.49447
vn -0.79093 -0.36899 0.48814
vn -0.71633 -0.49110 0.49567
vn -0.45818 -0.30973 0.83315
vn -0.47302 -0.27797 0.83605
vn -0.70690 -0.50653 0.49368
vn -0.45364 -0.32575 0.82951
vn -0.70726 -0.50825 0.49139
vn 0.75546 0.45028 0.47595
vn 0.74081 0.45666 0.49260
vn 0.76990 0.45888 0.44349
vn 0.50009 0.31743 0.80570
vn 0.47726 0.30809 0.82298
vn 0.51474 0.35604 0.77992
vn 0.26899 0.24371 0.93180
vn -0.05914 0.14989 0.98693
vn -0.68468 0.02725 0.72834
vn -0.62251 0.06848 0.77961
vn -0.46473 0.04366 0.88437
vn -0.93381 0.02518 0.35689
vn -0.90995 0.07372 0.40811
vn -0.89045 -0.06276 0.45073
vn -0.84805 -0.23519 0.47487
vn -0.54169 -0.12535 0.83118
vn -0.57929 -0.01599 0.81496
vn -0.50153 -0.22069 0.83652
vn -0.01826 0.04511 0.99882
vn -0.03218 0.08677 0.99571
vn -0.00707 0.01641 0.99984
vn 0.45607 0.29935 0.83809
vn 0.45390 0.30998 0.83539
vn 0.00131 0.00051 1.00000
vn 0.46235 0.29485 0.83624
vn 0.00670 -0.00915 0.99994
vn 0.46645 0.29574 0.83364
vn 0.00913 -0.01390 0.99986
vn 0.46744 0.29714 0.83259
vn -0.45395 -0.33092 0.82730
vn -0.45250 -0.33394 0.82688
vn 0.01031 -0.01724 0.99980
vn -0.70675 -0.51016 0.49013
vn -0.70445 -0.51258 0.49092
vn -0.45466 -0.33133 0.82674
vn 0.73122 0.46292 0.50102
vn 0.73334 0.46073 0.49994
vn 0.72898 0.46810 0.49948
vn 0.46251 0.31124 0.83019
vn -0.04313 0.12134 0.99167
vn 0.73137 0.46544 0.49846
vn 0.72892 0.47067 0.49714
vn 0.72829 0.47218 0.49663
vn 0.46697 0.29534 0.83349
vn 0.46287 0.29871 0.83458
vn 0.72731 0.47184 0.49838
vn 0.00388 -0.00973 0.99995
vn -0.00122 -0.00171 1.00000
vn 0.45127 0.31363 0.83546
vn -0.45099 -0.33287 0.82814
vn -0.43293 -0.32610 0.84038
vn 0.00136 0.00847 0.99996
vn -0.69766 -0.51706 0.49591
vn -0.69029 -0.51467 0.50854
vn 0.71541 0.48777 0.50026
vn 0.68653 0.53251 0.49510
vn 0.42700 0.34094 0.83752
vn 0.53608 0.68515 0.49314
vn 0.07175 0.87071 0.48654
vn -0.56123 0.72029 0.40769
vn -0.51391 0.61593 0.59710
vn -0.90492 0.25510 0.34066
vn -0.80254 0.23640 0.54776
vn -0.82700 -0.09985 0.55326
vn -0.92989 -0.12465 0.34607
vn 0.02267 0.08395 0.99621
vn -0.01550 -0.06885 0.99751
vn 0.92843 -0.12052 0.35142
vn 0.93196 -0.08600 0.35221
vn 0.86033 -0.07072 0.50481
vn 0.86062 -0.11571 0.49593
vn 0.80044 -0.12327 0.58660
vn 0.89988 -0.12532 0.41775
vn 0.84496 -0.18230 0.50281
vn 0.71577 -0.40358 0.56991
vn -0.59062 -0.57673 0.56440
vn -0.27677 -0.32839 0.90308
vn -0.38536 -0.31266 0.86818
vn -0.66526 -0.52392 0.53191
vn -0.88551 -0.26022 0.38490
vn -0.85553 -0.28199 0.43422
vn -0.78466 -0.22477 0.57775
vn -0.74646 -0.23503 0.62255
vn 0.00620 -0.12662 0.99193
vn 0.01602 -0.11196 0.99358
vn 0.91125 -0.06341 0.40694
vn 0.88556 -0.06338 0.46019
vn 0.76210 -0.04728 0.64573
vn 0.81226 -0.04401 0.58163
vn -0.83057 -0.28701 0.47727
vn -0.81009 -0.28880 0.51025
vn -0.70831 -0.23711 0.66489
vn -0.67685 -0.23704 0.69691
vn 0.01791 -0.10398 0.99442
vn 0.02090 -0.09836 0.99493
vn 0.86631 -0.06641 0.49508
vn 0.84826 -0.06691 0.52534
vn 0.70472 -0.05111 0.70765
vn 0.73117 -0.05236 0.68018
vn -0.79262 -0.28284 0.54014
vn -0.77965 -0.26061 0.56941
vn -0.64844 -0.22922 0.72593
vn -0.62691 -0.20325 0.75211
vn 0.02690 -0.10397 0.99422
vn 0.36606 -0.08237 0.92694
vn 0.03064 -0.09268 0.99522
vn 0.83003 -0.06700 0.55368
vn 0.81462 -0.07759 0.57478
vn 0.67893 -0.05162 0.73238
vn 0.92567 -0.08848 0.36783
vn -0.76691 -0.23519 0.59711
vn -0.76994 -0.16231 0.61713
vn -0.90282 -0.19823 0.38160
vn -0.88197 -0.28379 0.37628
vn -0.30607 -0.11695 0.94480
vn -0.29364 -0.06434 0.95375
vn 0.35216 -0.05523 0.93431
vn 0.33853 -0.01152 0.94089
vn 0.80479 -0.07277 0.58909
vn 0.80289 -0.02277 0.59569
vn 0.92268 -0.08548 0.37597
vn 0.93098 -0.02954 0.36386
vn -0.78805 -0.00964 0.61554
vn -0.29150 0.01361 0.95647
vn 0.33050 0.06876 0.94130
vn 0.80111 0.12587 0.58514
f 5//1 6//2 7//3 8//4
f 1//5 5//1 8//4 9//6
f 1//5 10//7 6//2 5//1
f 1//5 9//6 11//8 10//7
f 2//9 12//10 13//11 14//12
f 2//9 14//12 15//13 16//14
f 2//9 17//15 18//15 12//10
f 19//16 20//17 21//18 22//19
f 3//20 23//21 24//22 25//23
f 3//20 25//23 26//24 27//25
f 3//20 27//25 28//26 23//27
f 4//28 25//23 24//22 29//29
f 4//28 30//30 26//24 25//23
f 4//28 29//29 31//31 30//30
f 31//31 29//29 298//32 32//33
f 31//31 32//33 33//34 34//35
f 31//31 34//35 35//36 30//30
f 35//36 34//35 36//37 37//38
f 35//36 37//38 38//39 39//40
f 35//36 39//40 26//24 30//30
f 39//40 38//39 40//41 41//42
f 39//40 41//42 27//25 26//24
f 41//42 40//41 42//43 43//44
f 41//42 43//44 28//26 27//25
f 43//44 42//43 299//45 44//46
f 43//44 44//46 300//47 28//26
f 300//47 301//48 23//27 28//26
f 302//49 45//50 46//51 36//37
f 302//49 36//37 34//35 33//34
f 48//52 303//53 50//54 51//55
f 48//52 51//55 52//56 49//57
f 52//56 51//55 53//58 54//59
f 52//56 54//59 55//60 56//61
f 52//56 56//61 57//62 49//57
f 57//62 56//61 58//63 304//64
f 59//65 305//66 60//67 61//68
f 59//65 61//68 62//69 47//70
f 62//69 46//51 45//50 47//70
f 62//69 61//68 63//71 64//72
f 62//69 64//72 65//73 46//51
f 65//73 37//38 36//37 46//51
f 65//73 64//72 66//74 67//75
f 65//73 67//75 38//39 37//38
f 67//75 66//74 68//76 69//77
f 67//75 69//77 40//41 38//39
f 69//77 68//76 70//78 71//79
f 69//77 71//79 42//43 40//41
f 71//79 70//78 306//80 307//81
f 71//79 307//81 299//45 42//43
f 308//82 306//80 70//78 72//83
f 308//82 72//83 73//84 309//85
f 73//84 72//83 74//86 75//87
f 73//84 75//87 76//88 50//54
f 73//84 50//54 303//53 309//85
f 76//88 75//87 77//89 78//90
f 76//88 78//90 79//91 53//58
f 76//88 53//58 51//55 50//54
f 79//92 78//93 80//94 81//95
f 79//92 81//95 82//96 83//97
f 79//91 83//98 54//59 53//58
f 83//97 82//96 84//99 85//100
f 83//98 85//101 55//60 54//59
f 85//100 84//99 86//102 87//102
f 85//101 87//103 88//104 55//60
f 88//104 87//103 89//105 90//106
f 88//104 90//106 91//107 58//63
f 88//104 58//63 56//61 55//60
f 91//107 90//106 92//108 93//109
f 91//107 93//109 310//110 311//111
f 91//107 311//111 304//64 58//63
f 313//112 312//113 94//114 95//115
f 313//112 95//115 96//116 314//117
f 96//116 60//67 305//66 314//117
f 96//116 95//115 81//95 80//94
f 96//116 80//94 97//118 60//67
f 97//118 63//71 61//68 60//67
f 97//118 80//94 78//93 77//89
f 97//118 77//89 98//119 63//71
f 98//119 66//74 64//72 63//71
f 98//119 77//89 75//87 74//86
f 98//119 74//86 68//76 66//74
f 95//115 94//114 82//96 81//95
f 94//114 312//113 315//120 99//121
f 94//114 99//121 84//99 82//96
f 99//121 315//120 316//122 100//123
f 99//121 100//123 86//124 84//99
f 100//123 316//122 101//125 102//126
f 100//123 102//126 103//127 86//124
f 103//127 102//126 104//128 105//129
f 103//130 105//131 106//131 89//130
f 103//130 89//130 87//102 86//102
f 106//131 105//131 107//132 108//132
f 106//133 108//134 109//135 92//108
f 106//133 92//108 90//106 89//105
f 109//135 108//134 110//136 111//137
f 109//135 111//137 112//138 113//139
f 109//135 113//139 93//109 92//108
f 113//139 112//138 114//140 115//141
f 113//139 115//141 310//110 93//109
f 317//142 318//143 116//144 104//128
f 317//142 104//128 102//126 101//125
f 116//144 318//143 117//145 118//146
f 116//144 118//146 119//147 107//148
f 116//144 107//148 105//129 104//128
f 119//147 118//146 120//149 121//150
f 119//151 121//152 122//152 110//151
f 119//151 110//151 108//132 107//132
f 122//152 121//152 123//153 124//153
f 122//154 124//155 125//156 126//157
f 122//154 126//157 111//137 110//136
f 126//157 125//156 127//158 128//159
f 126//157 128//159 112//138 111//137
f 128//159 127//158 319//160 320//161
f 128//159 320//161 114//140 112//138
f 321//162 322//163 129//164 120//149
f 321//162 120//149 118//146 117//145
f 129//164 322//163 130//165 131//166
f 129//164 131//166 132//167 123//168
f 129//164 123//168 121//150 120//149
f 132//167 131//166 133//169 134//170
f 132//167 134//170 135//171 136//172
f 132//167 136//172 124//153 123//153
f 136//173 135//174 137//175 138//176
f 136//173 138//176 125//156 124//155
f 138//176 137//175 139//177 140//178
f 138//176 140//178 127//158 125//156
f 140//178 139//177 141//179 323//180
f 140//178 323//180 319//160 127//158
f 142//181 143//182 144//183 133//169
f 142//181 133//169 131//166 130//165
f 147//184 146//185 149//186 150//187
f 147//184 150//187 151//188 148//189
f 151//188 150//187 152//190 153//191
f 151//188 153//191 154//192 155//193
f 151//188 155//193 156//194 148//189
f 156//194 155//193 157//195 158//196
f 161//197 160//198 162//199 163//200
f 161//197 163//200 164//201 145//202
f 164//201 144//183 143//182 145//202
f 164//201 163//200 165//203 166//204
f 164//201 166//204 167//205 144//183
f 167//205 134//170 133//169 144//183
f 167//205 166//204 168//206 169//207
f 167//205 169//207 135//171 134//170
f 169//208 168//206 170//209 171//210
f 169//208 171//210 137//175 135//174
f 171//210 170//209 172//211 173//212
f 171//210 173//212 139//177 137//175
f 173//212 172//211 324//213 174//214
f 173//212 174//214 141//179 139//177
f 325//215 324//213 172//211 175//216
f 325//215 175//216 176//217 326//218
f 176//217 175//216 177//219 178//220
f 176//217 178//220 179//221 149//186
f 176//217 149//186 146//185 326//218
f 179//221 178//220 180//222 181//223
f 179//221 181//223 182//224 152//190
f 179//221 152//190 150//187 149//186
f 182//224 181//223 183//225 184//226
f 182//224 184//226 185//227 186//228
f 182//224 186//228 153//191 152//190
f 186//228 185//227 187//229 188//230
f 186//228 188//230 154//192 153//191
f 188//230 187//229 189//231 190//232
f 188//230 190//232 191//233 154//192
f 191//233 190//232 192//234 193//235
f 191//233 193//235 194//236 157//195
f 191//233 157//195 155//193 154//192
f 194//236 193//235 195//237 196//238
f 194//236 196//238 197//239 198//240
f 194//236 198//240 158//196 157//195
f 328//241 327//242 199//243 200//244
f 328//241 200//244 201//245 159//246
f 201//245 162//199 160//198 159//246
f 201//245 200//244 184//226 183//225
f 201//245 183//225 202//247 162//199
f 202//247 165//203 163//200 162//199
f 202//247 183//225 181//223 180//222
f 202//247 180//222 203//248 165//203
f 203//248 168//206 166//204 165//203
f 203//248 180//222 178//220 177//219
f 203//248 177//219 170//209 168//206
f 200//244 199//243 185//227 184//226
f 199//243 327//242 329//249 204//250
f 199//243 204//250 187//229 185//227
f 204//250 329//249 330//251 205//252
f 204//250 205//252 189//231 187//229
f 205//252 330//251 206//253 207//254
f 205//252 207//254 208//255 189//231
f 208//255 207//254 209//256 210//257
f 208//255 210//257 211//258 192//234
f 208//255 192//234 190//232 189//231
f 211//258 210//257 212//259 213//260
f 211//258 213//260 214//261 195//237
f 211//258 195//237 193//235 192//234
f 214//261 213//260 215//262 216//263
f 214//261 216//263 217//264 218//265
f 214//261 218//265 196//238 195//237
f 218//265 217//264 331//266 219//267
f 218//265 219//267 197//239 196//238
f 220//268 332//269 221//270 209//256
f 220//268 209//256 207//254 206//253
f 221//270 332//269 222//271 223//272
f 221//270 223//272 224//273 212//259
f 221//270 212//259 210//257 209//256
f 224//273 223//272 225//274 16//14
f 224//273 16//14 15//13 215//262
f 224//273 215//262 213//260 212//259
f 225//274 223//272 222//271 333//275
f 225//274 333//275 334//276 226//277
f 225//274 226//277 2//9 16//14
f 226//277 334//276 227//278 228//279
f 226//277 228//279 17//280 2//9
f 228//279 227//281 229//282 230//283
f 228//279 230//283 231//284 17//280
f 231//284 230//283 232//285 233//286
f 231//287 233//288 234//288 235//287
f 231//287 235//287 18//15 17//15
f 235//289 234//290 236//291 237//292
f 235//289 237//292 238//293 18//294
f 238//293 237//292 335//295 336//296
f 238//293 336//296 337//297 239//298
f 238//293 239//298 12//10 18//294
f 239//298 337//297 338//299 240//300
f 239//298 240//300 13//11 12//10
f 240//300 338//299 339//301 22//19
f 240//300 22//19 21//18 13//11
f 339//301 241//302 19//16 22//19
f 241//302 340//303 20//17 19//16
f 340//303 341//304 242//305 20//17
f 242//305 243//306 244//307 245//308
f 242//305 245//308 21//18 20//17
f 242//305 341//304 342//309 243//306
f 342//309 331//266 217//264 243//306
f 245//308 244//307 15//13 14//12
f 245//308 14//12 13//11 21//18
f 244//307 216//263 215//262 15//13
f 244//307 243//306 217//264 216//263
f 246//310 343//311 247//312 232//285
f 246//310 232//285 230//283 229//282
f 247//312 343//311 344//313 248//314
f 247//312 248//314 249//315 250//316
f 247//312 250//316 233//286 232//285
f 250//317 249//318 251//318 252//317
f 250//317 252//317 234//288 233//288
f 252//319 251//320 253//321 254//322
f 252//319 254//322 236//291 234//290
f 254//322 253//321 255//323 256//324
f 254//322 256//324 257//325 236//291
f 257//325 335//295 237//292 236//291
f 258//326 259//327 260//328 261//329
f 258//326 261//329 248//314 344//313
f 261//329 260//328 262//330 263//331
f 261//329 263//331 249//315 248//314
f 263//332 262//333 264//333 265//332
f 263//332 265//332 251//318 249//318
f 265//334 264//335 266//336 267//337
f 265//334 267//337 253//321 251//320
f 267//337 266//336 345//338 346//339
f 267//337 346//339 255//323 253//321
f 269//340 268//341 270//342 271//343
f 269//340 271//343 260//328 259//327
f 271//343 270//342 272//344 273//345
f 271//343 273//345 262//330 260//328
f 273//346 272//347 274//348 275//346
f 273//346 275//346 264//333 262//333
f 275//349 274//348 276//350 277//351
f 275//349 277//351 266//336 264//335
f 277//351 276//350 278//352 347//353
f 277//351 347//353 345//338 266//336
f 280//354 279//355 281//356 282//357
f 280//354 282//357 270//342 268//341
f 282//357 281//356 283//358 284//359
f 282//357 284//359 272//344 270//342
f 284//359 283//358 285//360 286//361
f 284//359 286//361 274//348 272//347
f 286//361 285//360 287//362 288//363
f 286//361 288//363 276//350 274//348
f 288//363 287//362 348//364 289//365
f 288//363 289//365 278//352 276//350
f 291//366 290//367 11//8 292//368
f 291//366 292//368 281//356 279//355
f 292//368 11//8 9//6 293//369
f 292//368 293//369 283//358 281//356
f 293//369 9//6 8//4 294//370
f 293//369 294//370 285//360 283//358
f 294//370 8//4 7//3 295//371
f 294//370 295//371 287//362 285//360
f 295//371 7//3 349//372 350//373
f 295//371 350//373 348//364 287//362
f 349//372 7//3 6//2 296//374
f 296//375 6//2 10//7 297//375
f 297//376 10//7 11//8 290//367
f 177//219 175//216 172//211 170//209
f 74//86 72//83 70//78 68//76
f 301//377 351//378 24//22 23//21
f 351//378 298//32 29//29 24//22
f 359//379 358//380 357//381 356//382
f 360//383 359//379 356//382 352//384
f 356//382 357//381 361//385 352//384
f 361//385 362//386 360//383 352//384
f 365//387 364//388 363//389 353//390
f 367//391 366//392 365//387 353//390
f 363//389 369//393 368//393 353//390
f 373//394 372//395 371//396 370//397
f 376//398 375//399 374//400 354//401
f 378//402 377//403 376//398 354//401
f 374//400 379//404 378//402 354//401
f 380//405 375//399 376//398 355//406
f 376//398 377//403 381//407 355//406
f 381//407 382//408 380//405 355//406
f 32//33 298//32 380//405 382//408
f 383//409 33//34 32//33 382//408
f 381//407 384//410 383//409 382//408
f 386//411 385//412 383//409 384//410
f 388//413 387//414 386//411 384//410
f 381//407 377//403 388//413 384//410
f 390//415 389//416 387//414 388//413
f 377//403 378//402 390//415 388//413
f 392//417 391//418 389//416 390//415
f 378//402 379//404 392//417 390//415
f 44//46 299//45 391//418 392//417
f 379//404 300//47 44//46 392//417
f 379//404 374//400 301//48 300//47
f 385//412 393//419 45//50 302//49
f 33//34 383//409 385//412 302//49
f 395//420 394//421 303//53 48//52
f 49//57 396//422 395//420 48//52
f 398//423 397//424 395//420 396//422
f 400//425 399//426 398//423 396//422
f 49//57 57//62 400//425 396//422
f 304//64 401//427 400//425 57//62
f 403//428 402//429 305//66 59//65
f 47//70 404//430 403//428 59//65
f 47//70 45//50 393//419 404//430
f 406//431 405//432 403//428 404//430
f 393//419 407//433 406//431 404//430
f 393//419 385//412 386//411 407//433
f 409//434 408//435 406//431 407//433
f 386//411 387//414 409//434 407//433
f 411//436 410//437 408//435 409//434
f 387//414 389//416 411//436 409//434
f 413//438 412//439 410//437 411//436
f 389//416 391//418 413//438 411//436
f 307//81 306//80 412//439 413//438
f 391//418 299//45 307//81 413//438
f 414//440 412//439 306//80 308//82
f 309//85 415//441 414//440 308//82
f 417//442 416//443 414//440 415//441
f 394//421 418//444 417//442 415//441
f 309//85 303//53 394//421 415//441
f 420//445 419//446 417//442 418//444
f 397//424 421//447 420//445 418//444
f 394//421 395//420 397//424 418//444
f 423//448 422//449 420//450 421//451
f 425//452 424//453 423//448 421//451
f 397//424 398//423 425//454 421//447
f 427//455 426//456 424//453 425//452
f 398//423 399//426 427//457 425//454
f 429//458 428//458 426//456 427//455
f 399//426 430//459 429//460 427//457
f 432//461 431//462 429//460 430//459
f 401//427 433//463 432//461 430//459
f 399//426 400//425 401//427 430//459
f 435//464 434//465 432//461 433//463
f 311//111 310//110 435//464 433//463
f 401//427 304//64 311//111 433//463
f 437//466 436//467 312//113 313//112
f 314//117 438//468 437//466 313//112
f 314//117 305//66 402//429 438//468
f 422//449 423//448 437//466 438//468
f 402//429 439//469 422//449 438//468
f 402//429 403//428 405//432 439//469
f 419//446 420//450 422//449 439//469
f 405//432 440//470 419//446 439//469
f 405//432 406//431 408//435 440//470
f 416//443 417//442 419//446 440//470
f 408//435 410//437 416//443 440//470
f 423//448 424//453 436//467 437//466
f 441//471 315//120 312//113 436//467
f 424//453 426//456 441//471 436//467
f 442//472 316//122 315//120 441//471
f 426//456 428//473 442//472 441//471
f 443//474 101//125 316//122 442//472
f 428//473 444//475 443//474 442//472
f 446//476 445//477 443//474 444//475
f 431//478 447//479 446//479 444//478
f 428//458 429//458 431//478 444//478
f 449//480 448//480 446//479 447//479
f 434//465 450//481 449//482 447//483
f 431//462 432//461 434//465 447//483
f 452//484 451//485 449//482 450//481
f 454//486 453//487 452//484 450//481
f 434//465 435//464 454//486 450//481
f 115//141 114//140 453//487 454//486
f 435//464 310//110 115//141 454//486
f 445//477 455//488 318//143 317//142
f 101//125 443//474 445//477 317//142
f 456//489 117//145 318//143 455//488
f 448//490 457//491 456//489 455//488
f 445//477 446//476 448//490 455//488
f 459//492 458//493 456//489 457//491
f 451//494 460//495 459//495 457//494
f 448//480 449//480 451//494 457//494
f 462//496 461//496 459//495 460//495
f 464//497 463//498 462//499 460//500
f 451//485 452//484 464//497 460//500
f 466//501 465//502 463//498 464//497
f 452//484 453//487 466//501 464//497
f 320//161 319//160 465//502 466//501
f 453//487 114//140 320//161 466//501
f 458//493 467//503 322//163 321//162
f 117//145 456//489 458//493 321//162
f 468//504 130//165 322//163 467//503
f 461//505 469//506 468//504 467//503
f 458//493 459//492 461//505 467//503
f 471//507 470//508 468//504 469//506
f 473//509 472//510 471//507 469//506
f 461//496 462//496 473//509 469//506
f 475//511 474//512 472//513 473//514
f 462//499 463//498 475//511 473//514
f 477//515 476//516 474//512 475//511
f 463//498 465//502 477//515 475//511
f 323//180 141//179 476//516 477//515
f 465//502 319//160 323//180 477//515
f 470//508 478//517 143//182 142//181
f 130//165 468//504 470//508 142//181
f 480//518 479//519 146//185 147//184
f 148//189 481//520 480//518 147//184
f 483//521 482//522 480//518 481//520
f 485//523 484//524 483//521 481//520
f 148//189 156//194 485//523 481//520
f 158//196 486//525 485//523 156//194
f 488//526 487//527 160//198 161//197
f 145//202 489//528 488//526 161//197
f 145//202 143//182 478//517 489//528
f 491//529 490//530 488//526 489//528
f 478//517 492//531 491//529 489//528
f 478//517 470//508 471//507 492//531
f 494//532 493//533 491//529 492//531
f 471//507 472//510 494//532 492//531
f 496//534 495//535 493//533 494//536
f 472//513 474//512 496//534 494//536
f 498//537 497//538 495//535 496//534
f 474//512 476//516 498//537 496//534
f 174//214 324//213 497//538 498//537
f 476//516 141//179 174//214 498//537
f 499//539 497//538 324//213 325//215
f 326//218 500//540 499//539 325//215
f 502//541 501//542 499//539 500//540
f 479//519 503//543 502//541 500//540
f 326//218 146//185 479//519 500//540
f 505//544 504//545 502//541 503//543
f 482//522 506//546 505//544 503//543
f 479//519 480//518 482//522 503//543
f 508//547 507//548 505//544 506//546
f 510//549 509//550 508//547 506//546
f 482//522 483//521 510//549 506//546
f 512//551 511//552 509//550 510//549
f 483//521 484//524 512//551 510//549
f 514//553 513//554 511//552 512//551
f 484//524 515//555 514//553 512//551
f 517//556 516//557 514//553 515//555
f 486//525 518//558 517//556 515//555
f 484//524 485//523 486//525 515//555
f 520//559 519//560 517//556 518//558
f 198//240 197//239 520//559 518//558
f 486//525 158//196 198//240 518//558
f 522//561 521//562 327//242 328//241
f 159//246 523//563 522//561 328//241
f 159//246 160//198 487//527 523//563
f 507//548 508//547 522//561 523//563
f 487//527 524//564 507//548 523//563
f 487//527 488//526 490//530 524//564
f 504//545 505//544 507//548 524//564
f 490//530 525//565 504//545 524//564
f 490//530 491//529 493//533 525//565
f 501//542 502//541 504//545 525//565
f 493//533 495//535 501//542 525//565
f 508//547 509//550 521//562 522//561
f 526//566 329//249 327//242 521//562
f 509//550 511//552 526//566 521//562
f 527//567 330//251 329//249 526//566
f 511//552 513//554 527//567 526//566
f 528//568 206//253 330//251 527//567
f 513//554 529//569 528//568 527//567
f 531//570 530//571 528//568 529//569
f 516//557 532//572 531//570 529//569
f 513//554 514//553 516//557 529//569
f 534//573 533//574 531//570 532//572
f 519//560 535//575 534//573 532//572
f 516//557 517//556 519//560 532//572
f 537//576 536//577 534//573 535//575
f 539//578 538//579 537//576 535//575
f 519//560 520//559 539//578 535//575
f 219//267 331//266 538//579 539//578
f 520//559 197//239 219//267 539//578
f 530//571 540//580 332//269 220//268
f 206//253 528//568 530//571 220//268
f 541//581 222//271 332//269 540//580
f 533//574 542//582 541//581 540//580
f 530//571 531//570 533//574 540//580
f 367//391 543//583 541//581 542//582
f 536//577 366//392 367//391 542//582
f 533//574 534//573 536//577 542//582
f 333//275 222//271 541//581 543//583
f 544//584 334//276 333//275 543//583
f 367//391 353//390 544//584 543//583
f 545//585 227//278 334//276 544//584
f 353//390 368//586 545//585 544//584
f 546//587 229//282 227//281 545//585
f 368//586 547//588 546//587 545//585
f 549//589 548//590 546//587 547//588
f 551//591 550//592 549//592 547//591
f 368//393 369//393 551//591 547//591
f 553//593 552//594 550//595 551//596
f 369//597 554//598 553//593 551//596
f 336//296 335//295 553//593 554//598
f 555//599 337//297 336//296 554//598
f 369//597 363//389 555//599 554//598
f 556//600 338//299 337//297 555//599
f 363//389 364//388 556//600 555//599
f 373//394 339//301 338//299 556//600
f 364//388 372//395 373//394 556//600
f 373//394 370//397 241//302 339//301
f 370//397 371//396 340//303 241//302
f 371//396 557//601 341//304 340//303
f 560//602 559//603 558//604 557//601
f 371//396 372//395 560//602 557//601
f 558//604 342//309 341//304 557//601
f 558//604 538//579 331//266 342//309
f 365//387 366//392 559//603 560//602
f 372//395 364//388 365//387 560//602
f 366//392 536//577 537//576 559//603
f 537//576 538//579 558//604 559//603
f 548//590 561//605 343//311 246//310
f 229//282 546//587 548//590 246//310
f 562//606 344//313 343//311 561//605
f 564//607 563//608 562//606 561//605
f 548//590 549//589 564//607 561//605
f 566//609 565//610 563//610 564//609
f 549//592 550//592 566//609 564//609
f 568//611 567//612 565//613 566//614
f 550//595 552//594 568//611 566//614
f 256//324 255//323 567//612 568//611
f 552//594 257//325 256//324 568//611
f 552//594 553//593 335//295 257//325
f 570//615 569//616 259//327 258//326
f 344//313 562//606 570//615 258//326
f 572//617 571//618 569//616 570//615
f 562//606 563//608 572//617 570//615
f 574//619 573//620 571//620 572//619
f 563//610 565//610 574//619 572//619
f 576//621 575//622 573//623 574//624
f 565//613 567//612 576//621 574//624
f 346//339 345//338 575//622 576//621
f 567//612 255//323 346//339 576//621
f 578//625 577//626 268//341 269//340
f 259//327 569//616 578//625 269//340
f 580//627 579//628 577//626 578//625
f 569//616 571//618 580//627 578//625
f 582//629 581//630 579//631 580//629
f 571//620 573//620 582//629 580//629
f 584//632 583//633 581//630 582//634
f 573//623 575//622 584//632 582//634
f 347//353 278//635 583//633 584//632
f 575//622 345//338 347//353 584//632
f 586//636 585//637 279//638 280//639
f 268//341 577//626 586//636 280//639
f 588//640 587//641 585//637 586//636
f 577//626 579//628 588//640 586//636
f 590//642 589//643 587//641 588//640
f 579//631 581//630 590//642 588//640
f 592//644 591//645 589//643 590//642
f 581//630 583//633 592//644 590//642
f 289//646 348//647 591//645 592//644
f 583//633 278//635 289//646 592//644
f 593//648 362//386 290//367 291//366
f 279//638 585//637 593//648 291//366
f 594//649 360//383 362//386 593//648
f 585//637 587//641 594//649 593//648
f 595//650 359//379 360//383 594//649
f 587//641 589//643 595//650 594//649
f 596//651 358//380 359//379 595//650
f 589//643 591//645 596//651 595//650
f 350//373 349//372 358//380 596//651
f 591//645 348//647 350//373 596//651
f 296//374 357//381 358//380 349//372
f 297//375 361//385 357//381 296//375
f 290//367 362//386 361//385 297//376
f 495//535 497//538 499//539 501//542
f 410//437 412//439 414//440 416//443
f 374//400 375//399 351//378 301//377
f 375//399 380//405 298//32 351//378
