# pilowlava3D glyph 'n' variant 2 — Vincent Wagner / Velvetyne, Free Art License
v 0.92937 0.36980 -0.45714
v 0.42690 0.29412 -0.43521
v 3.45346 4.37349 -0.39841
v 3.13805 4.19519 -0.36955
v 0.60397 4.33584 -0.40542
v 0.57936 3.50454 -0.38693
v 1.04147 0.25428 -0.29101
v 0.72290 0.08175 -0.30130
v 0.68867 0.29030 -0.49945
v 0.96407 0.56533 -0.48412
v 1.18355 0.54757 -0.27824
v 0.65694 0.53251 -0.56168
v 0.36632 0.16403 -0.27558
v 0.16786 0.41346 -0.25807
v 0.35335 0.47757 -0.46310
v 3.64110 4.26864 -0.46391
v 3.40961 4.13518 -0.52014
v 3.27467 4.31314 -0.41061
v 3.20325 4.43577 -0.23808
v 3.48058 4.48709 -0.24509
v 3.80687 4.40782 -0.27379
v 3.04230 4.22466 -0.23572
v 3.19292 4.02229 -0.42398
v 3.03984 3.98042 -0.23545
v 0.59491 4.46322 -0.26158
v 0.92830 4.36529 -0.25584
v 0.79938 4.21609 -0.44674
v 0.39366 4.15561 -0.44372
v 0.24390 4.26993 -0.25928
v 0.59073 3.98922 -0.52992
v 0.36284 3.39698 -0.30568
v 0.27313 3.49473 -0.38536
v 0.40694 3.71368 -0.46457
v 0.81647 3.38149 -0.41424
v 0.72324 3.25671 -0.21479
v 0.55145 3.36029 -0.18802
v 0.38623 3.34960 -0.16982
v 0.27467 3.22940 -0.15754
v 0.24356 3.24250 -0.27123
v 0.27884 3.22182 -0.00000
v 0.27869 3.02911 -0.00000
v 0.27000 3.02923 -0.14653
v 0.35333 2.79432 -0.00000
v 0.46140 2.56916 -0.00000
v 0.42859 2.56338 -0.18230
v 0.33545 2.79442 -0.15518
v 0.34909 2.54912 -0.33535
v 0.27580 2.78938 -0.29458
v 0.22954 3.02712 -0.26369
v 0.18756 2.77749 -0.34924
v 0.15871 3.02522 -0.32183
v 0.17572 3.26120 -0.33261
v 0.08853 3.02363 -0.26879
v 0.11067 3.28418 -0.28166
v 0.16992 3.55955 -0.34713
v 0.06529 3.30256 -0.16324
v 0.09033 3.59931 -0.20504
v 0.12019 3.92634 -0.24286
v 0.25569 3.85376 -0.41586
v 0.06599 3.95012 -0.00000
v 0.19804 4.31180 -0.00000
v 0.58641 4.52582 -0.00000
v 0.96718 4.42921 -0.00000
v 1.13976 4.12518 -0.25189
v 0.98982 4.00375 -0.46023
v 1.39783 3.94266 -0.00000
v 1.32602 3.88803 -0.25523
v 1.18188 3.77319 -0.46155
v 0.99786 3.60614 -0.54021
v 0.78871 3.79748 -0.54241
v 1.50529 3.65510 -0.25597
v 1.36745 3.54384 -0.46306
v 1.17648 3.38554 -0.54735
v 0.99339 3.21583 -0.44709
v 1.53682 3.32064 -0.46218
v 1.34219 3.16578 -0.54944
v 1.15370 3.01166 -0.45572
v 1.02470 2.90397 -0.24768
v 0.87782 3.09550 -0.23565
v 1.50270 2.95103 -0.55145
v 1.30774 2.80163 -0.45847
v 1.17250 2.70013 -0.25043
v 1.10440 2.65105 -0.00000
v 0.96118 2.85517 -0.00000
v 1.46049 2.59001 -0.46154
v 1.31993 2.48873 -0.25367
v 1.24908 2.44010 -0.00000
v 1.47043 2.27777 -0.25469
v 1.54265 2.01607 -0.00000
v 2.89157 1.91120 -0.00000
v 2.73300 2.16748 -0.00000
v 2.93260 1.59757 -0.25099
v 2.81972 1.87634 -0.26068
v 3.00383 1.30599 -0.24216
v 2.84433 1.26323 -0.43282
v 2.77226 1.53389 -0.45096
v 3.05588 1.02172 -0.00000
v 2.99773 1.02249 -0.22669
v 2.87000 0.99250 -0.40084
v 2.70372 0.94007 -0.47083
v 2.63898 1.19397 -0.50642
v 2.97350 0.76294 -0.19904
v 2.88371 0.72434 -0.35702
v 2.77048 0.68306 -0.41871
v 2.65488 0.63340 -0.37204
v 2.54015 0.88034 -0.40736
v 2.95668 0.49202 -0.31128
v 2.88124 0.43809 -0.37006
v 2.79913 0.38480 -0.33021
v 2.74115 0.34940 -0.19473
v 2.56660 0.59191 -0.21655
v 3.06425 0.24993 -0.33725
v 3.01003 0.17373 -0.29871
v 2.97644 0.13022 -0.17410
v 2.96358 0.11839 -0.00000
v 2.71654 0.33576 -0.00000
v 3.29433 0.06842 -0.29101
v 3.28587 0.01323 -0.16250
v 3.61923 0.04097 -0.16049
v 3.81400 1.08382 -0.00000
v 3.83560 0.84022 -0.00000
v 3.75900 1.32828 -0.00000
v 3.78976 1.32885 -0.18299
v 3.83537 1.08030 -0.15796
v 3.72809 1.57806 -0.20071
v 3.82677 1.58751 -0.36631
v 3.86836 1.33022 -0.33642
v 3.65797 1.82678 -0.21248
v 3.77011 1.84481 -0.38486
v 3.90694 1.86441 -0.44194
v 3.93921 1.59957 -0.41560
v 3.58553 2.08047 -0.22030
v 3.70691 2.10118 -0.39925
v 3.87027 2.12392 -0.46829
v 4.03575 2.14546 -0.40407
v 4.04605 1.88049 -0.38768
v 3.64626 2.35865 -0.41537
v 3.83435 2.38659 -0.49358
v 4.02536 2.41208 -0.41938
v 4.16545 2.42431 -0.23131
v 4.16483 2.15945 -0.22371
v 3.79665 2.64959 -0.51869
v 4.01260 2.67785 -0.43818
v 4.16705 2.69092 -0.24209
v 4.23416 2.42385 -0.00000
v 3.99664 2.94527 -0.45844
v 4.16689 2.95772 -0.25350
v 4.16968 3.23235 -0.26788
v 4.26517 3.52124 -0.00000
v 3.07211 3.50754 -0.00000
v 3.14357 3.27697 -0.00000
v 3.01180 3.73720 -0.00000
v 3.09406 3.75579 -0.24514
v 3.16190 3.53592 -0.25100
v 2.97488 3.97910 -0.00000
v 2.99443 4.24398 -0.00000
v 3.18253 4.47466 -0.00000
v 4.06081 4.14624 -0.29165
v 4.24464 3.84201 -0.00000
v 4.14342 3.82101 -0.28657
v 3.91628 3.77385 -0.50790
v 3.82503 4.05159 -0.50208
v 3.62550 3.69906 -0.57550
v 3.53821 3.93225 -0.56568
v 3.35153 3.60430 -0.46919
v 3.27745 3.81668 -0.45791
v 3.67789 3.44246 -0.57618
v 3.41315 3.37162 -0.47146
v 3.23198 3.30933 -0.25302
v 3.47362 3.12605 -0.46233
v 3.30257 3.07325 -0.25128
v 3.21869 3.04366 -0.00000
v 3.37080 2.83120 -0.24574
v 3.29427 2.80493 -0.00000
v 4.22592 2.16054 -0.00000
v 4.21541 1.89470 -0.00000
v 4.16301 1.89190 -0.21591
v 4.15855 1.62580 -0.20606
v 4.05592 1.61278 -0.37000
v 4.14952 1.35562 -0.19113
v 4.06880 1.34563 -0.34178
v 3.96605 1.33617 -0.38900
v 4.07953 1.07625 -0.31306
v 3.98343 1.07249 -0.36083
v 3.89450 1.07407 -0.30071
v 3.97362 0.81109 -0.33497
v 3.89218 0.82439 -0.26913
v 3.84784 0.83548 -0.13823
v 3.84506 0.58627 -0.25235
v 3.81154 0.60387 -0.12856
v 3.80411 0.61008 -0.00000
v 3.70372 0.41513 -0.12402
v 2.52548 0.57274 -0.00000
v 2.42671 0.82581 -0.23149
v 2.29759 1.04000 -0.24123
v 2.43620 1.11250 -0.43067
v 2.17278 1.24397 -0.24613
v 2.32333 1.32863 -0.44925
v 2.54744 1.43485 -0.53429
v 2.20204 1.53921 -0.45758
v 2.42888 1.66396 -0.54906
v 2.65717 1.79043 -0.46433
v 2.28912 1.88314 -0.55715
v 2.50758 2.02443 -0.46829
v 2.65961 2.12227 -0.25878
v 2.34532 2.24525 -0.47099
v 2.49547 2.35001 -0.26019
v 2.56799 2.39929 -0.00000
v 2.32964 2.56680 -0.25796
v 0.82657 3.04696 -0.00000
v 0.69138 3.21811 -0.00000
v 1.74599 3.48444 -0.00000
v 1.57576 3.70943 -0.00000
v 1.84320 3.21336 -0.25699
v 1.67525 3.43029 -0.25531
v 2.00533 2.99650 -0.25644
v 1.86400 2.89005 -0.46574
v 1.70189 3.10406 -0.46409
v 2.16846 2.78272 -0.25894
v 2.02336 2.67524 -0.46780
v 1.81810 2.52476 -0.55736
v 1.66096 2.73840 -0.55513
v 2.18465 2.46196 -0.46844
v 1.97784 2.31293 -0.55930
v 1.76840 2.16618 -0.46697
v 1.61414 2.37781 -0.46410
v 2.13377 2.09840 -0.55935
v 1.91985 1.95548 -0.46606
v 1.76659 1.85668 -0.25572
v 1.61839 2.06510 -0.25711
v 2.06552 1.74668 -0.46507
v 1.90804 1.64977 -0.25457
v 1.83040 1.60109 -0.00000
v 1.68839 1.80712 -0.00000
v 2.04483 1.44765 -0.25018
v 3.01631 0.77702 -0.00000
v 3.12897 0.36763 -0.00000
v 3.12640 0.35954 -0.13959
v 3.00737 0.53871 -0.16399
v 3.32112 0.27797 -0.12748
v 3.31758 0.23825 -0.25751
v 3.10709 0.31901 -0.27334
v 3.52936 0.30008 -0.12319
v 3.54213 0.26327 -0.25199
v 3.56393 0.20000 -0.32618
v 3.30853 0.16751 -0.32369
v 3.72755 0.38881 -0.24886
v 3.78011 0.33724 -0.32762
v 3.85216 0.26786 -0.29869
v 3.59726 0.10421 -0.29783
v 3.91519 0.55710 -0.32547
v 4.00487 0.52231 -0.28444
v 4.04970 0.50260 -0.15451
v 3.90094 0.21666 -0.16076
v 4.06554 0.80081 -0.28998
v 4.11227 0.79801 -0.15821
v 4.13100 0.79626 -0.00000
v 4.06279 0.49519 -0.00000
v 4.14246 1.08111 -0.17373
v 3.44984 2.31457 -0.00000
v 3.52966 2.06636 -0.00000
v 3.37183 2.56146 -0.00000
v 3.44133 2.58226 -0.23714
v 3.51180 2.33260 -0.22905
v 3.58559 2.61586 -0.43175
v 3.52925 2.87240 -0.44814
v 3.75945 2.91358 -0.54201
v 3.72137 3.17798 -0.56264
v 3.97879 3.21570 -0.48175
v 3.95401 3.49177 -0.49760
v 4.16327 3.51391 -0.27813
v 0.69920 2.12206 -0.00000
v 0.57889 2.34593 -0.00000
v 0.64368 2.09783 -0.21931
v 0.53242 2.33152 -0.20494
v 0.52582 2.06048 -0.38974
v 0.43483 2.30476 -0.36569
v 0.35895 2.01657 -0.45476
v 0.30275 2.27024 -0.42239
v 0.24240 2.52679 -0.38854
v 0.16765 2.24366 -0.37068
v 0.13560 2.50395 -0.34057
v 0.10112 2.76243 -0.29920
v 0.05547 2.48431 -0.18583
v 0.04607 2.75085 -0.15944
v 0.04713 3.02312 -0.14731
v 0.01666 2.21945 -0.00000
v 0.94496 1.66746 -0.00000
v 0.82034 1.89574 -0.00000
v 0.87062 1.63232 -0.24502
v 0.75526 1.86559 -0.23153
v 0.71375 1.56987 -0.44480
v 0.61780 1.81607 -0.41836
v 0.48494 1.50282 -0.52299
v 0.42006 1.76212 -0.49161
v 0.25266 1.46263 -0.43682
v 0.22021 1.72048 -0.41592
v 0.19026 1.98167 -0.39091
v 0.07921 1.70414 -0.23019
v 0.07004 1.96391 -0.21952
v 0.06375 2.22502 -0.20722
v 0.01338 1.96159 -0.00000
v 0.00920 1.45060 -0.00000
v 1.20547 1.16772 -0.00000
v 1.11337 1.13813 -0.27345
v 0.99466 1.39470 -0.25930
v 0.90123 1.07729 -0.48614
v 0.81271 1.32544 -0.46500
v 0.60072 1.00711 -0.56720
v 0.54755 1.25087 -0.54700
v 0.30109 0.96208 -0.47300
v 0.27768 1.20806 -0.46023
v 0.09952 0.94236 -0.25557
v 0.08818 1.19500 -0.25263
v 0.08980 1.45004 -0.23938
v 1.27925 0.85611 -0.00000
v 1.18779 0.85245 -0.27820
v 0.95305 0.81994 -0.49665
v 0.63492 0.77068 -0.57299
v 0.32368 0.72181 -0.47696
v 0.11476 0.68337 -0.25776
v 0.10538 0.36575 -0.00000
v 0.34824 0.09321 -0.00000
v 0.73619 0.00804 -0.00000
v 1.09001 0.19141 -0.00000
v 0.54143 3.33148 -0.00000
v 0.38606 3.33093 -0.00000
v 0.04657 3.61664 -0.00000
v 1.20396 4.18438 -0.00000
v 1.39688 2.22845 -0.00000
v 3.00476 1.62172 -0.00000
v 3.06700 1.31744 -0.00000
v 3.28197 0.00000 -0.00000
v 3.62325 0.02737 -0.00000
v 3.68777 1.57296 -0.00000
v 3.60858 1.81837 -0.00000
v 4.24454 2.68908 -0.00000
v 4.25436 2.95741 -0.00000
v 4.26360 3.23326 -0.00000
v 3.50040 4.53543 -0.00000
v 3.85159 4.46440 -0.00000
v 4.14243 4.18798 -0.00000
v 4.20226 1.62847 -0.00000
v 3.69955 0.42142 -0.00000
v 2.37386 0.79402 -0.00000
v 2.23573 0.99897 -0.00000
v 2.40149 2.61840 -0.00000
v 1.91347 3.26608 -0.00000
v 2.07643 3.04880 -0.00000
v 2.23975 2.83451 -0.00000
v 1.96869 1.39973 -0.00000
v 2.10310 1.19982 -0.00000
v 3.02187 0.55283 -0.00000
v 3.32198 0.28685 -0.00000
v 3.52654 0.30914 -0.00000
v 4.16830 1.08316 -0.00000
v 4.18538 1.35896 -0.00000
v 3.91061 0.20499 -0.00000
v 0.02412 2.74595 -0.00000
v 0.02795 3.02335 -0.00000
v 0.03827 3.31078 -0.00000
v 0.02182 2.47843 -0.00000
v 0.01079 1.70446 -0.00000
v 1.07779 1.43040 -0.00000
v 0.00000 1.19516 -0.00000
v 0.00822 0.93556 -0.00000
v 1.26100 0.51863 -0.00000
v 0.02698 0.66755 -0.00000
v 0.92937 0.36980 0.45714
v 0.42690 0.29412 0.43521
v 3.45346 4.37349 0.39841
v 3.13805 4.19519 0.36955
v 0.60397 4.33584 0.40542
v 0.57936 3.50454 0.38693
v 1.04147 0.25428 0.29101
v 0.72290 0.08175 0.30130
v 0.68867 0.29030 0.49945
v 0.96407 0.56533 0.48412
v 1.18355 0.54757 0.27824
v 0.65694 0.53251 0.56168
v 0.36632 0.16403 0.27558
v 0.16786 0.41346 0.25807
v 0.35335 0.47757 0.46310
v 3.64110 4.26864 0.46391
v 3.40961 4.13518 0.52014
v 3.27467 4.31314 0.41061
v 3.20325 4.43577 0.23808
v 3.48058 4.48709 0.24509
v 3.80687 4.40782 0.27379
v 3.04230 4.22466 0.23572
v 3.19292 4.02229 0.42398
v 3.03984 3.98042 0.23545
v 0.59491 4.46322 0.26158
v 0.92830 4.36529 0.25584
v 0.79938 4.21609 0.44674
v 0.39366 4.15561 0.44372
v 0.24390 4.26993 0.25928
v 0.59073 3.98922 0.52992
v 0.36284 3.39698 0.30568
v 0.27313 3.49473 0.38536
v 0.40694 3.71368 0.46457
v 0.81647 3.38149 0.41424
v 0.72324 3.25671 0.21479
v 0.55145 3.36029 0.18802
v 0.38623 3.34960 0.16982
v 0.27467 3.22940 0.15754
v 0.24356 3.24250 0.27123
v 0.27000 3.02923 0.14653
v 0.42859 2.56338 0.18230
v 0.33545 2.79442 0.15518
v 0.34909 2.54912 0.33535
v 0.27580 2.78938 0.29458
v 0.22954 3.02712 0.26369
v 0.18756 2.77749 0.34924
v 0.15871 3.02522 0.32183
v 0.17572 3.26120 0.33261
v 0.08853 3.02363 0.26879
v 0.11067 3.28418 0.28166
v 0.16992 3.55955 0.34713
v 0.06529 3.30256 0.16324
v 0.09033 3.59931 0.20504
v 0.12019 3.92634 0.24286
v 0.25569 3.85376 0.41586
v 1.13976 4.12518 0.25189
v 0.98982 4.00375 0.46023
v 1.32602 3.88803 0.25523
v 1.18188 3.77319 0.46155
v 0.99786 3.60614 0.54021
v 0.78871 3.79748 0.54241
v 1.50529 3.65510 0.25597
v 1.36745 3.54384 0.46306
v 1.17648 3.38554 0.54735
v 0.99339 3.21583 0.44709
v 1.53682 3.32064 0.46218
v 1.34219 3.16578 0.54944
v 1.15370 3.01166 0.45572
v 1.02470 2.90397 0.24768
v 0.87782 3.09550 0.23565
v 1.50270 2.95103 0.55145
v 1.30774 2.80163 0.45847
v 1.17250 2.70013 0.25043
v 1.46049 2.59001 0.46154
v 1.31993 2.48873 0.25367
v 1.47043 2.27777 0.25469
v 2.93260 1.59757 0.25099
v 2.81972 1.87634 0.26068
v 3.00383 1.30599 0.24216
v 2.84433 1.26323 0.43282
v 2.77226 1.53389 0.45096
v 2.99773 1.02249 0.22669
v 2.87000 0.99250 0.40084
v 2.70372 0.94007 0.47083
v 2.63898 1.19397 0.50642
v 2.97350 0.76294 0.19904
v 2.88371 0.72434 0.35702
v 2.77048 0.68306 0.41871
v 2.65488 0.63340 0.37204
v 2.54015 0.88034 0.40736
v 2.95668 0.49202 0.31128
v 2.88124 0.43809 0.37006
v 2.79913 0.38480 0.33021
v 2.74115 0.34940 0.19473
v 2.56660 0.59191 0.21655
v 3.06425 0.24993 0.33725
v 3.01003 0.17373 0.29871
v 2.97644 0.13022 0.17410
v 3.29433 0.06842 0.29101
v 3.28587 0.01323 0.16250
v 3.61923 0.04097 0.16049
v 3.78976 1.32885 0.18299
v 3.83537 1.08030 0.15796
v 3.72809 1.57806 0.20071
v 3.82677 1.58751 0.36631
v 3.86836 1.33022 0.33642
v 3.65797 1.82678 0.21248
v 3.77011 1.84481 0.38486
v 3.90694 1.86441 0.44194
v 3.93921 1.59957 0.41560
v 3.58553 2.08047 0.22030
v 3.70691 2.10118 0.39925
v 3.87027 2.12392 0.46829
v 4.03575 2.14546 0.40407
v 4.04605 1.88049 0.38768
v 3.64626 2.35865 0.41537
v 3.83435 2.38659 0.49358
v 4.02536 2.41208 0.41938
v 4.16545 2.42431 0.23131
v 4.16483 2.15945 0.22371
v 3.79665 2.64959 0.51869
v 4.01260 2.67785 0.43818
v 4.16705 2.69092 0.24209
v 3.99664 2.94527 0.45844
v 4.16689 2.95772 0.25350
v 4.16968 3.23235 0.26788
v 3.09406 3.75579 0.24514
v 3.16190 3.53592 0.25100
v 4.06081 4.14624 0.29165
v 4.14342 3.82101 0.28657
v 3.91628 3.77385 0.50790
v 3.82503 4.05159 0.50208
v 3.62550 3.69906 0.57550
v 3.53821 3.93225 0.56568
v 3.35153 3.60430 0.46919
v 3.27745 3.81668 0.45791
v 3.67789 3.44246 0.57618
v 3.41315 3.37162 0.47146
v 3.23198 3.30933 0.25302
v 3.47362 3.12605 0.46233
v 3.30257 3.07325 0.25128
v 3.37080 2.83120 0.24574
v 4.16301 1.89190 0.21591
v 4.15855 1.62580 0.20606
v 4.05592 1.61278 0.37000
v 4.14952 1.35562 0.19113
v 4.06880 1.34563 0.34178
v 3.96605 1.33617 0.38900
v 4.07953 1.07625 0.31306
v 3.98343 1.07249 0.36083
v 3.89450 1.07407 0.30071
v 3.97362 0.81109 0.33497
v 3.89218 0.82439 0.26913
v 3.84784 0.83548 0.13823
v 3.84506 0.58627 0.25235
v 3.81154 0.60387 0.12856
v 3.70372 0.41513 0.12402
v 2.42671 0.82581 0.23149
v 2.29759 1.04000 0.24123
v 2.43620 1.11250 0.43067
v 2.17278 1.24397 0.24613
v 2.32333 1.32863 0.44925
v 2.54744 1.43485 0.53429
v 2.20204 1.53921 0.45758
v 2.42888 1.66396 0.54906
v 2.65717 1.79043 0.46433
v 2.28912 1.88314 0.55715
v 2.50758 2.02443 0.46829
v 2.65961 2.12227 0.25878
v 2.34532 2.24525 0.47099
v 2.49547 2.35001 0.26019
v 2.32964 2.56680 0.25796
v 1.84320 3.21336 0.25699
v 1.67525 3.43029 0.25531
v 2.00533 2.99650 0.25644
v 1.86400 2.89005 0.46574
v 1.70189 3.10406 0.46409
v 2.16846 2.78272 0.25894
v 2.02336 2.67524 0.46780
v 1.81810 2.52476 0.55736
v 1.66096 2.73840 0.55513
v 2.18465 2.46196 0.46844
v 1.97784 2.31293 0.55930
v 1.76840 2.16618 0.46697
v 1.61414 2.37781 0.46410
v 2.13377 2.09840 0.55935
v 1.91985 1.95548 0.46606
v 1.76659 1.85668 0.25572
v 1.61839 2.06510 0.25711
v 2.06552 1.74668 0.46507
v 1.90804 1.64977 0.25457
v 2.04483 1.44765 0.25018
v 3.12640 0.35954 0.13959
v 3.00737 0.53871 0.16399
v 3.32112 0.27797 0.12748
v 3.31758 0.23825 0.25751
v 3.10709 0.31901 0.27334
v 3.52936 0.30008 0.12319
v 3.54213 0.26327 0.25199
v 3.56393 0.20000 0.32618
v 3.30853 0.16751 0.32369
v 3.72755 0.38881 0.24886
v 3.78011 0.33724 0.32762
v 3.85216 0.26786 0.29869
v 3.59726 0.10421 0.29783
v 3.91519 0.55710 0.32547
v 4.00487 0.52231 0.28444
v 4.04970 0.50260 0.15451
v 3.90094 0.21666 0.16076
v 4.06554 0.80081 0.28998
v 4.11227 0.79801 0.15821
v 4.14246 1.08111 0.17373
v 3.44133 2.58226 0.23714
v 3.51180 2.33260 0.22905
v 3.58559 2.61586 0.43175
v 3.52925 2.87240 0.44814
v 3.75945 2.91358 0.54201
v 3.72137 3.17798 0.56264
v 3.97879 3.21570 0.48175
v 3.95401 3.49177 0.49760
v 4.16327 3.51391 0.27813
v 0.64368 2.09783 0.21931
v 0.53242 2.33152 0.20494
v 0.52582 2.06048 0.38974
v 0.43483 2.30476 0.36569
v 0.35895 2.01657 0.45476
v 0.30275 2.27024 0.42239
v 0.24240 2.52679 0.38854
v 0.16765 2.24366 0.37068
v 0.13560 2.50395 0.34057
v 0.10112 2.76243 0.29920
v 0.05547 2.48431 0.18583
v 0.04607 2.75085 0.15944
v 0.04713 3.02312 0.14731
v 0.87062 1.63232 0.24502
v 0.75526 1.86559 0.23153
v 0.71375 1.56987 0.44480
v 0.61780 1.81607 0.41836
v 0.48494 1.50282 0.52299
v 0.42006 1.76212 0.49161
v 0.25266 1.46263 0.43682
v 0.22021 1.72048 0.41592
v 0.19026 1.98167 0.39091
v 0.07921 1.70414 0.23019
v 0.07004 1.96391 0.21952
v 0.06375 2.22502 0.20722
v 1.11337 1.13813 0.27345
v 0.99466 1.39470 0.25930
v 0.90123 1.07729 0.48614
v 0.81271 1.32544 0.46500
v 0.60072 1.00711 0.56720
v 0.54755 1.25087 0.54700
v 0.30109 0.96208 0.47300
v 0.27768 1.20806 0.46023
v 0.09952 0.94236 0.25557
v 0.08818 1.19500 0.25263
v 0.08980 1.45004 0.23938
v 1.18779 0.85245 0.27820
v 0.95305 0.81994 0.49665
v 0.63492 0.77068 0.57299
v 0.32368 0.72181 0.47696
v 0.11476 0.68337 0.25776
vn 0.44639 -0.37526 -0.81235
vn 0.63448 -0.58369 -0.50670
vn 0.10621 -0.85651 -0.50508
vn 0.04116 -0.48104 -0.87573
vn 0.48333 -0.12460 -0.86653
vn 0.83657 -0.18857 -0.51438
vn -0.01198 -0.14431 -0.98946
vn -0.38514 -0.48114 -0.78751
vn -0.49117 -0.72391 -0.48447
vn -0.79597 -0.35755 -0.48846
vn -0.49645 -0.22743 -0.83774
vn -0.03433 0.68830 -0.72462
vn 0.16617 0.51459 -0.84118
vn -0.21008 0.22382 -0.95172
vn -0.35754 0.50865 -0.78322
vn -0.48141 0.77329 -0.41265
vn -0.00192 0.90717 -0.42075
vn 0.39745 0.77224 -0.49566
vn -0.65439 0.22109 -0.72312
vn -0.85175 0.29940 -0.42997
vn -0.61008 -0.01602 -0.79218
vn -0.88459 -0.08861 -0.45787
vn -0.06957 0.59871 -0.79794
vn -0.09741 0.86757 -0.48767
vn 0.46182 0.73186 -0.50110
vn 0.23531 0.45732 -0.85761
vn -0.39535 0.33273 -0.85615
vn -0.67495 0.56029 -0.48013
vn -0.08813 0.07856 -0.99301
vn -0.14101 -0.55664 -0.81870
vn 0.35673 -0.65318 -0.66790
vn -0.11193 -0.27388 -0.95523
vn -0.19859 -0.20595 -0.95820
vn -0.42982 -0.43937 -0.78880
vn -0.60536 -0.67265 -0.42552
vn -0.23489 -0.90006 -0.36705
vn 0.42192 -0.86909 -0.25819
vn 0.90642 -0.37667 -0.19109
vn 0.74164 -0.32190 -0.58852
vn -0.28488 -0.95856 -0.00095
vn 0.02690 -0.99964 -0.00058
vn 0.72154 -0.69238 0.00036
vn 0.99991 -0.01325 0.00029
vn 0.99038 0.13838 0.00020
vn 0.97310 0.11699 -0.19847
vn 0.93696 0.34944 0.00013
vn 0.90373 0.42811 -0.00004
vn 0.86161 0.39706 -0.31618
vn 0.91067 0.32738 -0.25200
vn 0.63770 0.31590 -0.70253
vn 0.71811 0.27308 -0.64011
vn 0.80763 0.07834 -0.58446
vn 0.50116 0.22206 -0.83637
vn 0.60966 0.05613 -0.79068
vn 0.54935 -0.24930 -0.79754
vn -0.56142 -0.00901 -0.82748
vn -0.58353 0.02841 -0.81159
vn -0.79601 0.03054 -0.60452
vn -0.77274 0.02121 -0.63436
vn -0.68751 -0.00342 -0.72617
vn -0.95881 0.04658 -0.28019
vn -0.93268 0.05358 -0.35669
vn -0.88187 0.17830 -0.43647
vn -0.58365 0.06274 -0.80958
vn -0.99865 0.05187 -0.00006
vn -0.97966 0.20067 -0.00013
vn -0.94188 0.33595 -0.00026
vn -0.48307 0.87558 0.00004
vn 0.26593 0.96399 -0.00170
vn 0.51922 0.85464 -0.00137
vn 0.75946 0.65055 -0.00045
vn 0.65030 0.56050 -0.51279
vn 0.38081 0.35467 -0.85393
vn 0.78781 0.61592 0.00002
vn 0.67504 0.53535 -0.50766
vn 0.41619 0.34806 -0.84002
vn 0.22164 0.20210 -0.95396
vn -0.00207 -0.04362 -0.99905
vn 0.68691 0.52675 -0.50069
vn 0.43780 0.34523 -0.83015
vn 0.24622 0.20298 -0.94772
vn -0.31968 -0.21195 -0.92352
vn -0.48565 -0.36089 -0.79618
vn -0.30015 -0.25802 -0.91833
vn 0.44665 0.34346 -0.82616
vn 0.25909 0.20139 -0.94462
vn -0.29744 -0.20732 -0.93196
vn -0.48208 -0.34368 -0.80591
vn -0.71600 -0.51406 -0.47232
vn -0.70063 -0.54996 -0.45460
vn -0.01756 0.00147 -0.99984
vn -0.47883 -0.33588 -0.81111
vn -0.71710 -0.50345 -0.48198
vn -0.81943 -0.57319 0.00001
vn -0.81296 -0.58233 0.00011
vn -0.47580 -0.33192 -0.81452
vn -0.71532 -0.50010 -0.48808
vn -0.82054 -0.57160 0.00000
vn -0.71227 -0.49879 -0.49385
vn -0.82050 -0.57164 0.00001
vn 0.95681 0.29070 0.00013
vn 0.83965 0.25250 -0.48086
vn 0.77655 0.39388 -0.49175
vn 0.89155 0.45292 -0.00010
vn 0.99599 0.08943 0.00013
vn 0.88468 0.07901 -0.45946
vn 0.58243 0.02656 -0.81244
vn 0.54007 0.14073 -0.82977
vn 0.99614 -0.08781 0.00038
vn 0.90885 -0.07317 -0.41066
vn 0.64015 -0.06701 -0.76532
vn 0.07777 -0.16287 -0.98358
vn 0.04613 -0.12053 -0.99164
vn 0.93984 -0.00644 -0.34156
vn 0.71185 -0.00560 -0.70230
vn 0.49709 -0.02680 -0.86728
vn -0.25728 -0.27739 -0.92567
vn -0.50964 -0.39710 -0.76327
vn -0.50623 -0.34052 -0.79232
vn 0.71798 0.26534 -0.64351
vn 0.53019 0.17567 -0.82948
vn -0.22364 -0.32115 -0.92024
vn -0.46979 -0.49124 -0.73347
vn -0.70122 -0.64523 -0.30326
vn -0.76548 -0.52909 -0.36620
vn -0.14114 -0.34478 -0.92801
vn -0.46534 -0.78429 -0.41029
vn -0.49658 -0.82798 -0.26051
vn -0.51782 -0.85549 0.00007
vn -0.73268 -0.68057 0.00019
vn -0.11439 -0.90589 -0.40777
vn -0.12729 -0.95958 -0.25102
vn -0.13724 -0.99054 -0.00004
vn 0.30607 -0.91419 -0.26566
vn 0.31325 -0.94967 -0.00004
vn -0.97161 -0.23659 -0.00002
vn -0.92659 -0.21737 -0.30689
vn -0.95807 -0.12859 -0.25604
vn -0.99004 -0.14075 -0.00012
vn -0.96001 -0.27997 0.00003
vn -0.90003 -0.25442 -0.35387
vn -0.64575 -0.19598 -0.73797
vn -0.70162 -0.18122 -0.68912
vn -0.95604 -0.29323 -0.00007
vn -0.88214 -0.26482 -0.38950
vn -0.61523 -0.19821 -0.76302
vn -0.37000 -0.14265 -0.91801
vn -0.39842 -0.14684 -0.90537
vn -0.87052 -0.26435 -0.41511
vn -0.60178 -0.19644 -0.77413
vn -0.36566 -0.14212 -0.91983
vn 0.36649 -0.04111 -0.92951
vn 0.61572 -0.02770 -0.78747
vn 0.62635 -0.03219 -0.77888
vn 0.36741 -0.04529 -0.92896
vn -0.59087 -0.19327 -0.78327
vn -0.36264 -0.14121 -0.92117
vn 0.36327 -0.04130 -0.93077
vn 0.60561 -0.02864 -0.79524
vn 0.89367 -0.01920 -0.44831
vn 0.90369 -0.01781 -0.42782
vn 0.35294 -0.04299 -0.93466
vn 0.59127 -0.03034 -0.80590
vn 0.88299 -0.02089 -0.46892
vn 0.99964 -0.02695 0.00003
vn 0.99969 -0.02484 0.00003
vn 0.57121 -0.03239 -0.82016
vn 0.87190 -0.02330 -0.48913
vn 0.99961 -0.02800 0.00002
vn 0.86094 -0.01072 -0.50860
vn 0.99990 -0.01442 -0.00004
vn -0.97361 -0.22823 0.00039
vn -0.84003 -0.20650 -0.50170
vn -0.82195 -0.23821 -0.51736
vn -0.95937 -0.28216 -0.00010
vn -0.99741 -0.07194 0.00119
vn -0.93730 0.34852 0.00131
vn -0.78575 0.61855 0.00113
vn -0.18705 0.98235 -0.00006
vn 0.00974 0.99995 -0.00020
vn 0.47006 0.88263 -0.00056
vn 0.86099 0.50862 0.00004
vn 0.71265 0.43293 -0.55199
vn 0.98677 0.16211 0.00038
vn 0.82705 0.13955 -0.54453
vn 0.46232 0.09272 -0.88185
vn 0.35760 0.27313 -0.89304
vn -0.06589 -0.00844 -0.99779
vn -0.11639 0.06797 -0.99087
vn -0.54332 -0.14397 -0.82709
vn -0.55843 -0.12204 -0.82052
vn -0.04114 -0.04689 -0.99805
vn -0.54940 -0.15412 -0.82122
vn -0.82318 -0.24611 -0.51167
vn -0.55834 -0.17028 -0.81195
vn -0.83148 -0.24840 -0.49693
vn -0.95582 -0.29395 0.00000
vn -0.95519 -0.29598 0.00002
vn -0.84204 -0.25012 -0.47793
vn -0.95652 -0.29168 0.00002
vn 0.99971 -0.02392 -0.00001
vn 0.99948 -0.03210 -0.00002
vn 0.91469 -0.02409 -0.40344
vn 0.99897 -0.04537 0.00001
vn 0.92799 -0.03650 -0.37082
vn 0.64864 -0.04374 -0.75984
vn 0.94331 -0.04287 -0.32912
vn 0.68438 -0.05408 -0.72712
vn 0.41510 -0.06867 -0.90718
vn 0.38200 -0.05597 -0.92247
vn 0.71636 -0.08130 -0.69298
vn 0.43580 -0.08696 -0.89583
vn -0.46684 -0.14972 -0.87158
vn -0.55436 -0.11190 -0.82472
vn -0.76816 -0.11911 -0.62908
vn -0.62904 0.01205 -0.77728
vn -0.81771 0.03073 -0.57480
vn -0.97628 0.04150 -0.21248
vn -0.79727 0.28781 -0.53058
vn -0.92827 0.32263 -0.18498
vn -0.94666 0.32223 0.00002
vn -0.99938 0.03516 -0.00001
vn -0.71867 0.67251 -0.17677
vn -0.73066 0.68274 -0.00000
vn -0.81549 -0.57877 0.00023
vn -0.83926 -0.54372 0.00007
vn -0.76739 -0.48040 -0.42465
vn -0.84108 -0.54091 -0.00004
vn -0.74975 -0.46929 -0.46653
vn -0.48658 -0.31969 -0.81304
vn -0.73443 -0.46834 -0.49119
vn -0.47180 -0.31540 -0.82336
vn 0.02915 -0.07767 -0.99655
vn -0.46287 -0.31986 -0.82671
vn 0.01328 -0.04160 -0.99905
vn 0.49681 0.23827 -0.83451
vn 0.00227 -0.01850 -0.99983
vn 0.46381 0.30589 -0.83145
vn 0.72005 0.48707 -0.49426
vn 0.45243 0.33268 -0.82742
vn 0.69818 0.51684 -0.49540
vn 0.80404 0.59458 0.00000
vn 0.82893 0.55935 -0.00008
vn 0.69261 0.52396 -0.49574
vn 0.79788 0.60282 -0.00001
vn -0.78693 -0.61704 -0.00014
vn -0.67157 -0.74094 -0.00086
vn 0.79608 0.60519 -0.00000
vn 0.69007 0.52643 -0.49667
vn 0.68902 0.52682 -0.49770
vn 0.79465 0.60707 -0.00000
vn 0.79745 0.60339 -0.00000
vn 0.69217 0.52464 -0.49563
vn 0.44848 0.34416 -0.82487
vn 0.44630 0.34543 -0.82552
vn 0.79779 0.60294 -0.00000
vn 0.69264 0.52391 -0.49576
vn 0.44975 0.34307 -0.82464
vn -0.01116 0.00306 -0.99993
vn -0.01532 0.00305 -0.99988
vn 0.44959 0.34182 -0.82525
vn -0.00764 0.00150 -0.99997
vn -0.46392 -0.33030 -0.82200
vn -0.47042 -0.33057 -0.81819
vn -0.00426 -0.00464 -0.99998
vn -0.45970 -0.32905 -0.82487
vn -0.70647 -0.49583 -0.50503
vn -0.70853 -0.49798 -0.50000
vn -0.45772 -0.32731 -0.82666
vn -0.70886 -0.49023 -0.50714
vn -0.82420 -0.56630 -0.00000
vn -0.82053 -0.57161 -0.00001
vn -0.71856 -0.47972 -0.50354
vn -0.83069 -0.55674 0.00000
vn -0.83947 -0.54341 0.00002
vn 0.65112 0.75898 0.00013
vn 0.62728 0.74989 -0.21021
vn 0.90736 0.32512 -0.26645
vn 0.95115 0.30872 -0.00038
vn 0.14553 0.98935 -0.00001
vn 0.14462 0.97170 -0.18676
vn 0.12185 0.83450 -0.53736
vn 0.51483 0.62173 -0.59026
vn -0.33635 0.94174 0.00001
vn -0.33172 0.92582 -0.18114
vn -0.29342 0.81281 -0.50323
vn -0.24756 0.68196 -0.68822
vn 0.09373 0.67127 -0.73526
vn -0.62620 0.59637 -0.50221
vn -0.51840 0.50429 -0.69061
vn 0.22632 -0.19691 -0.95394
vn 0.08477 -0.26954 -0.95925
vn -0.64178 0.23688 -0.72939
vn 0.35339 -0.13488 -0.92570
vn 0.87106 -0.32343 -0.36965
vn 0.91203 -0.33492 -0.23673
vn 0.70642 -0.65617 -0.26535
vn 0.66188 -0.61567 -0.42762
vn 0.42014 -0.10856 -0.90094
vn 0.92223 -0.15130 -0.35580
vn 0.95774 -0.16027 -0.23883
vn 0.98576 -0.16817 -0.00002
vn 0.93988 -0.34150 -0.00005
vn 0.95701 -0.07584 -0.27996
vn 0.99636 -0.08522 0.00003
vn 0.99869 -0.05125 -0.00000
vn -0.95641 -0.29201 0.00003
vn -0.85191 -0.25564 -0.45705
vn -0.86096 -0.26121 -0.43648
vn -0.95570 -0.29433 0.00001
vn -0.95547 -0.29510 -0.00003
vn -0.58005 -0.18745 -0.79272
vn -0.35801 -0.13808 -0.92345
vn -0.56944 -0.17840 -0.80244
vn -0.01110 -0.09242 -0.99566
vn -0.02331 -0.07868 -0.99663
vn 0.54520 -0.01915 -0.83809
vn 0.51191 0.01684 -0.85888
vn 0.84903 0.02921 -0.52754
vn 0.99953 0.03067 -0.00009
vn 0.73315 -0.68007 0.00000
vn 0.29026 -0.85312 -0.43352
vn -0.03119 -0.32192 -0.94625
vn 0.39677 0.46580 -0.79095
vn 0.99951 -0.03125 -0.00010
vn -0.82034 -0.57187 -0.00000
vn 0.79567 0.60574 0.00000
vn 0.89209 0.45185 -0.00000
vn 0.88874 0.45842 0.00009
vn 0.80748 0.40730 -0.42670
vn 0.83060 0.40827 -0.37870
vn 0.54469 0.29592 -0.78469
vn 0.58422 0.30235 -0.75317
vn -0.02740 0.13375 -0.99064
vn 0.34597 0.21164 -0.91407
vn 0.40220 0.23916 -0.88377
vn -0.42782 0.05135 -0.90240
vn -0.37661 0.04099 -0.92546
vn -0.64427 0.01379 -0.76467
vn -0.69514 0.01545 -0.71871
vn -0.75736 0.02365 -0.65257
vn -0.51152 0.05351 -0.85761
vn -0.94665 -0.01195 -0.32203
vn -0.96436 -0.00303 -0.26457
vn -0.96947 0.02962 -0.24342
vn -0.99999 0.00323 0.00000
vn -0.99958 0.02897 0.00013
vn -0.99903 0.04412 0.00005
vn 0.88598 0.46373 -0.00001
vn 0.87931 0.47625 0.00002
vn 0.76916 0.41095 -0.48941
vn 0.78851 0.40699 -0.46110
vn 0.49052 0.27890 -0.82559
vn 0.51583 0.29239 -0.80525
vn -0.03880 0.11219 -0.99293
vn -0.03767 0.12864 -0.99098
vn -0.57646 0.01132 -0.81705
vn -0.59971 0.00632 -0.80020
vn -0.61743 0.01457 -0.78649
vn -0.89130 -0.01726 -0.45309
vn -0.90779 -0.00964 -0.41931
vn -0.92553 -0.00673 -0.37862
vn -0.99999 -0.00341 -0.00000
vn -1.00000 0.00124 -0.00002
vn -1.00000 -0.00151 0.00002
vn -0.99996 -0.00943 0.00005
vn 0.88775 0.46033 0.00001
vn 0.93978 0.34179 -0.00029
vn 0.79269 0.29126 -0.53555
vn 0.76168 0.39211 -0.51584
vn 0.46034 0.18326 -0.86862
vn 0.46603 0.25416 -0.84748
vn -0.03331 0.05778 -0.99777
vn -0.03591 0.09597 -0.99474
vn -0.53245 -0.01967 -0.84623
vn -0.55024 0.00838 -0.83496
vn -0.85396 -0.04344 -0.51851
vn -0.86156 -0.00565 -0.50763
vn -0.87484 0.00028 -0.48440
vn -1.00000 -0.00301 -0.00003
vn -0.99996 0.00897 0.00001
vn -0.99877 -0.04951 0.00003
vn 0.99444 0.10534 0.00028
vn 0.96929 -0.24593 -0.00017
vn 0.83794 0.09489 -0.53745
vn 0.47264 0.05380 -0.87961
vn -0.02778 -0.01422 -0.99951
vn -0.52159 -0.07115 -0.85023
vn -0.84880 -0.11566 -0.51590
vn -0.89601 -0.44404 0.00039
vn -0.98966 -0.14341 -0.00094
vn -0.52565 -0.85070 0.00178
vn -0.22806 -0.97365 0.00066
vn 0.47137 -0.88194 -0.00072
vn 0.71708 -0.69699 -0.00112
vn 0.04074 -0.47939 0.87665
vn 0.10500 -0.85456 0.50863
vn 0.63009 -0.58463 0.51107
vn 0.44045 -0.37591 0.81529
vn 0.83293 -0.19141 0.51922
vn 0.47876 -0.12779 0.86859
vn -0.01148 -0.14655 0.98914
vn -0.48948 -0.22946 0.84129
vn -0.79098 -0.35909 0.49538
vn -0.48538 -0.72212 0.49290
vn -0.37692 -0.47985 0.79226
vn -0.35776 0.50745 0.78390
vn -0.21225 0.22767 0.95032
vn 0.16230 0.51602 0.84106
vn -0.03764 0.68558 0.72702
vn -0.00418 0.90458 0.42629
vn -0.48042 0.77034 0.41925
vn 0.39441 0.77231 0.49798
vn -0.84842 0.30136 0.43516
vn -0.65260 0.22461 0.72364
vn -0.88299 -0.08409 0.46179
vn -0.60976 -0.01142 0.79250
vn 0.23038 0.45807 0.85855
vn 0.45835 0.73215 0.50386
vn -0.09777 0.86404 0.49384
vn -0.06998 0.59498 0.80069
vn -0.67154 0.56002 0.48518
vn -0.39204 0.33247 0.85777
vn -0.09526 0.08281 0.99200
vn -0.21944 -0.21275 0.95215
vn -0.12468 -0.29802 0.94638
vn 0.35109 -0.66221 0.66198
vn -0.14896 -0.55593 0.81778
vn -0.22794 -0.89874 0.37457
vn -0.60779 -0.67237 0.42250
vn -0.43119 -0.43986 0.78778
vn 0.43107 -0.86257 0.26485
vn 0.74243 -0.33161 0.58210
vn 0.90613 -0.37769 0.19044
vn 0.97279 0.11827 0.19921
vn 0.91083 0.32676 0.25224
vn 0.86187 0.39655 0.31612
vn 0.71794 0.27136 0.64103
vn 0.63773 0.31564 0.70262
vn 0.80718 0.07812 0.58511
vn 0.60960 0.05416 0.79085
vn 0.50064 0.21840 0.83765
vn 0.55334 -0.26563 0.78947
vn -0.77231 0.01782 0.63500
vn -0.79586 0.03096 0.60469
vn -0.58214 0.03014 0.81253
vn -0.55879 -0.02087 0.82904
vn -0.68682 -0.01042 0.72676
vn -0.93288 0.05344 0.35619
vn -0.95885 0.04985 0.27951
vn -0.58507 0.05723 0.80896
vn -0.88253 0.17410 0.43684
vn 0.65096 0.56067 0.51177
vn 0.38134 0.35521 0.85347
vn 0.67503 0.53533 0.50770
vn 0.41589 0.34847 0.84000
vn -0.00766 -0.04043 0.99915
vn 0.22108 0.20295 0.95390
vn 0.43772 0.34522 0.83020
vn 0.68688 0.52677 0.50070
vn 0.24609 0.20290 0.94777
vn -0.30056 -0.25563 0.91887
vn -0.48598 -0.35979 0.79647
vn -0.32005 -0.20989 0.92386
vn 0.25912 0.20140 0.94461
vn 0.44667 0.34346 0.82615
vn -0.48202 -0.34369 0.80594
vn -0.29750 -0.20753 0.93189
vn -0.70122 -0.54932 0.45445
vn -0.71580 -0.51413 0.47254
vn -0.47880 -0.33588 0.81113
vn -0.01754 0.00147 0.99985
vn -0.71708 -0.50347 0.48199
vn -0.71530 -0.50011 0.48810
vn -0.47578 -0.33192 0.81453
vn -0.71228 -0.49878 0.49384
vn 0.77667 0.39410 0.49140
vn 0.83965 0.25241 0.48091
vn 0.88464 0.07782 0.45973
vn 0.54006 0.14059 0.82980
vn 0.58216 0.02635 0.81265
vn 0.90835 -0.07161 0.41203
vn 0.63989 -0.06751 0.76549
vn 0.04608 -0.11994 0.99171
vn 0.07844 -0.16470 0.98322
vn 0.70868 -0.00355 0.70552
vn 0.93885 -0.00496 0.34429
vn 0.49453 -0.02951 0.86866
vn -0.50607 -0.34075 0.79233
vn -0.50827 -0.39873 0.76334
vn -0.25756 -0.27719 0.92565
vn 0.52271 0.17501 0.83435
vn 0.71470 0.26573 0.64698
vn -0.46955 -0.49220 0.73298
vn -0.22475 -0.32158 0.91982
vn -0.76399 -0.53092 0.36667
vn -0.69984 -0.64666 0.30340
vn -0.14291 -0.34902 0.92615
vn -0.49659 -0.82806 0.26024
vn -0.46592 -0.78427 0.40968
vn -0.12706 -0.95976 0.25044
vn -0.11391 -0.90640 0.40676
vn 0.30621 -0.91423 0.26536
vn -0.95796 -0.12977 0.25587
vn -0.92640 -0.21892 0.30635
vn -0.89997 -0.25468 0.35382
vn -0.70147 -0.18307 0.68879
vn -0.64571 -0.19719 0.73768
vn -0.88207 -0.26494 0.38956
vn -0.61515 -0.19835 0.76305
vn -0.39855 -0.14841 0.90506
vn -0.36997 -0.14335 0.91792
vn -0.60170 -0.19693 0.77407
vn -0.87046 -0.26469 0.41503
vn -0.36561 -0.14243 0.91981
vn 0.36740 -0.04524 0.92896
vn 0.62640 -0.03227 0.77883
vn 0.61571 -0.02740 0.78749
vn 0.36649 -0.04107 0.92951
vn -0.36260 -0.14150 0.92114
vn -0.59082 -0.19352 0.78325
vn 0.60558 -0.02854 0.79527
vn 0.36323 -0.04096 0.93080
vn 0.90369 -0.01757 0.42783
vn 0.89365 -0.01905 0.44835
vn 0.59123 -0.02998 0.80595
vn 0.35288 -0.04231 0.93471
vn 0.88297 -0.02089 0.46897
vn 0.87190 -0.02287 0.48915
vn 0.57120 -0.03196 0.82019
vn 0.86095 -0.01053 0.50858
vn -0.82197 -0.23821 0.51732
vn -0.83981 -0.20687 0.50192
vn 0.71254 0.43236 0.55259
vn 0.82644 0.13937 0.54550
vn 0.35724 0.27224 0.89346
vn 0.46166 0.09271 0.88220
vn -0.11617 0.06717 0.99096
vn -0.06616 -0.00840 0.99777
vn -0.55818 -0.12327 0.82051
vn -0.54353 -0.14396 0.82696
vn -0.54951 -0.15439 0.82109
vn -0.04079 -0.04646 0.99809
vn -0.82318 -0.24610 0.51168
vn -0.83144 -0.24876 0.49682
vn -0.55840 -0.17080 0.81180
vn -0.84198 -0.25051 0.47782
vn 0.91473 -0.02417 0.40335
vn 0.92804 -0.03571 0.37077
vn 0.64867 -0.04362 0.75982
vn 0.68454 -0.05300 0.72704
vn 0.94343 -0.04107 0.32901
vn 0.38190 -0.05663 0.92247
vn 0.41512 -0.06918 0.90713
vn 0.43569 -0.08688 0.89590
vn 0.71668 -0.08017 0.69277
vn -0.76830 -0.11916 0.62890
vn -0.55474 -0.11159 0.82451
vn -0.46648 -0.15033 0.87166
vn -0.81857 0.03117 0.57356
vn -0.63125 0.01231 0.77548
vn -0.97630 0.04146 0.21244
vn -0.92840 0.32253 0.18452
vn -0.79846 0.28809 0.52865
vn -0.71875 0.67246 0.17664
vn -0.76748 -0.48009 0.42483
vn -0.74997 -0.46883 0.46663
vn -0.48683 -0.31915 0.81311
vn -0.47171 -0.31544 0.82340
vn -0.73423 -0.46870 0.49115
vn 0.02908 -0.07770 0.99655
vn 0.01313 -0.04173 0.99904
vn -0.46284 -0.31990 0.82671
vn 0.49685 0.23834 0.83446
vn 0.46381 0.30592 0.83144
vn 0.00219 -0.01858 0.99982
vn 0.72013 0.48715 0.49406
vn 0.69817 0.51685 0.49541
vn 0.45239 0.33269 0.82744
vn 0.69260 0.52397 0.49574
vn 0.68903 0.52682 0.49770
vn 0.69008 0.52643 0.49665
vn 0.69219 0.52464 0.49561
vn 0.44630 0.34544 0.82552
vn 0.44849 0.34416 0.82487
vn 0.69265 0.52390 0.49575
vn 0.44976 0.34307 0.82463
vn -0.01533 0.00305 0.99988
vn -0.01115 0.00305 0.99993
vn 0.44955 0.34182 0.82527
vn -0.00765 0.00149 0.99997
vn -0.47044 -0.33056 0.81818
vn -0.46392 -0.33029 0.82200
vn -0.00424 -0.00464 0.99998
vn -0.45966 -0.32904 0.82489
vn -0.70855 -0.49797 0.49998
vn -0.70647 -0.49583 0.50502
vn -0.45770 -0.32732 0.82666
vn -0.70887 -0.49023 0.50712
vn -0.71848 -0.47985 0.50351
vn 0.90767 0.32413 0.26661
vn 0.62783 0.74970 0.20924
vn 0.14448 0.97167 0.18702
vn 0.51556 0.62116 0.59022
vn 0.12259 0.83435 0.53743
vn -0.33171 0.92582 0.18118
vn -0.29305 0.81196 0.50482
vn 0.09543 0.67135 0.73497
vn -0.24658 0.67970 0.69080
vn -0.62650 0.59654 0.50163
vn -0.51899 0.50474 0.68985
vn 0.08427 -0.26752 0.95986
vn 0.22930 -0.19840 0.95292
vn -0.64419 0.23796 0.72691
vn 0.35542 -0.13642 0.92470
vn 0.66182 -0.61414 0.42991
vn 0.70657 -0.65552 0.26657
vn 0.91213 -0.33413 0.23743
vn 0.87101 -0.32193 0.37108
vn 0.41885 -0.10839 0.90156
vn 0.95790 -0.15994 0.23842
vn 0.92267 -0.15036 0.35507
vn 0.95720 -0.07465 0.27963
vn -0.86092 -0.26132 0.43649
vn -0.85187 -0.25575 0.45706
vn -0.58002 -0.18756 0.79271
vn -0.35800 -0.13808 0.92345
vn -0.56944 -0.17883 0.80234
vn -0.01114 -0.09254 0.99565
vn -0.02332 -0.07897 0.99660
vn 0.54524 -0.01912 0.83806
vn 0.51259 0.01759 0.85845
vn 0.84923 0.02937 0.52720
vn 0.29057 -0.85326 0.43303
vn -0.03235 -0.32404 0.94549
vn 0.39481 0.46571 0.79198
vn 0.83049 0.40863 0.37856
vn 0.80757 0.40703 0.42681
vn 0.58438 0.30265 0.75293
vn 0.54487 0.29546 0.78474
vn 0.34614 0.21218 0.91388
vn -0.02730 0.13352 0.99067
vn 0.40196 0.23905 0.88390
vn -0.69537 0.01737 0.71844
vn -0.64451 0.01507 0.76445
vn -0.37691 0.04253 0.92527
vn -0.42832 0.05095 0.90219
vn -0.51055 0.05338 0.85819
vn -0.75701 0.02437 0.65295
vn -0.96438 -0.00169 0.26452
vn -0.94669 -0.00985 0.32199
vn -0.96960 0.02889 0.24298
vn 0.78848 0.40706 0.46108
vn 0.76906 0.41092 0.48958
vn 0.51585 0.29227 0.80528
vn 0.49025 0.27894 0.82574
vn -0.03770 0.12860 0.99098
vn -0.03877 0.11152 0.99301
vn -0.59992 0.00731 0.80002
vn -0.57644 0.01047 0.81708
vn -0.61745 0.01472 0.78647
vn -0.90780 -0.00959 0.41930
vn -0.89138 -0.01687 0.45295
vn -0.92559 -0.00658 0.37847
vn 0.76170 0.39232 0.51565
vn 0.79298 0.29102 0.53525
vn 0.46626 0.25439 0.84728
vn 0.46053 0.18273 0.86863
vn -0.03564 0.09536 0.99480
vn -0.03331 0.05755 0.99779
vn -0.55007 0.00715 0.83509
vn -0.53258 -0.01961 0.84616
vn -0.86154 -0.00614 0.50766
vn -0.85401 -0.04345 0.51843
vn -0.87488 -0.00006 0.48434
vn 0.83761 0.09490 0.53797
vn 0.47200 0.05390 0.87995
vn -0.02820 -0.01420 0.99950
vn -0.52193 -0.07110 0.85002
vn -0.84948 -0.11556 0.51481
f 1//1 7//2 8//3 9//4
f 1//1 10//5 11//6 7//2
f 1//1 9//4 12//7 10//5
f 2//8 13//9 14//10 15//11
f 2//8 15//11 12//7 9//4
f 2//8 9//4 8//3 13//9
f 3//12 16//13 17//14 18//15
f 3//12 18//15 19//16 20//17
f 3//12 20//17 21//18 16//13
f 4//19 22//20 19//16 18//15
f 4//19 23//21 24//22 22//20
f 4//19 18//15 17//14 23//21
f 5//23 25//24 26//25 27//26
f 5//23 28//27 29//28 25//24
f 5//23 27//26 30//29 28//27
f 6//30 31//31 32//32 33//33
f 6//30 34//34 35//35 36//36
f 6//30 36//36 37//37 31//31
f 37//37 38//38 39//39 31//31
f 37//37 36//36 326//40 327//41
f 37//37 327//42 40//42 38//38
f 40//43 41//44 42//45 38//38
f 43//46 44//47 45//48 46//49
f 43//46 46//49 42//45 41//44
f 46//49 45//48 47//50 48//51
f 46//49 48//51 49//52 42//45
f 49//52 48//51 50//53 51//54
f 49//52 51//54 52//55 39//39
f 49//52 39//39 38//38 42//45
f 52//56 51//57 53//58 54//59
f 52//56 54//59 55//60 32//32
f 52//55 32//32 31//31 39//39
f 55//60 54//59 56//61 57//62
f 55//60 57//62 58//63 59//64
f 55//60 59//64 33//33 32//32
f 59//64 58//63 29//28 28//27
f 59//64 28//27 30//29 33//33
f 58//63 57//62 328//65 60//66
f 58//63 60//66 61//67 29//28
f 61//68 62//68 25//24 29//28
f 62//69 63//70 26//25 25//24
f 63//70 329//71 64//72 26//25
f 64//72 65//73 27//26 26//25
f 64//72 329//71 66//74 67//75
f 64//72 67//75 68//76 65//73
f 68//76 69//77 70//78 65//73
f 68//76 67//75 71//79 72//80
f 68//76 72//80 73//81 69//77
f 73//82 74//83 34//34 69//84
f 73//81 72//80 75//85 76//86
f 73//82 76//87 77//88 74//83
f 77//88 78//89 79//90 74//83
f 77//88 76//87 80//91 81//92
f 77//88 81//92 82//93 78//89
f 82//93 83//94 84//95 78//89
f 82//93 81//92 85//96 86//97
f 82//93 86//97 87//98 83//94
f 87//98 86//97 88//99 330//100
f 331//101 92//102 93//103 90//104
f 331//101 332//105 94//106 92//102
f 94//106 95//107 96//108 92//102
f 94//106 332//105 97//109 98//110
f 94//106 98//110 99//111 95//107
f 99//111 100//112 101//113 95//107
f 99//111 98//110 102//114 103//115
f 99//111 103//115 104//116 100//112
f 104//117 105//118 106//119 100//112
f 104//116 103//115 107//120 108//121
f 104//117 108//122 109//123 105//118
f 109//123 110//124 111//125 105//118
f 109//123 108//122 112//126 113//126
f 109//123 113//127 114//128 110//124
f 114//128 115//129 116//130 110//124
f 114//128 113//127 117//131 118//132
f 114//128 118//132 333//133 115//129
f 333//133 118//132 119//134 334//135
f 122//136 123//137 124//138 120//139
f 122//136 335//140 125//141 123//137
f 125//141 126//142 127//143 123//137
f 125//141 335//140 336//144 128//145
f 125//141 128//145 129//146 126//142
f 129//146 130//147 131//148 126//142
f 129//146 128//145 132//149 133//150
f 129//146 133//150 134//151 130//147
f 134//152 135//153 136//154 130//155
f 134//151 133//150 137//156 138//157
f 134//152 138//158 139//159 135//153
f 139//159 140//160 141//161 135//153
f 139//159 138//158 142//162 143//163
f 139//159 143//163 144//164 140//160
f 144//164 337//165 145//166 140//160
f 144//164 143//163 146//167 147//168
f 144//164 147//168 338//169 337//165
f 338//169 147//168 148//170 339//171
f 152//172 153//173 154//174 150//175
f 152//172 155//176 24//22 153//173
f 155//176 156//177 22//20 24//22
f 156//177 157//178 19//16 22//20
f 157//179 340//180 20//17 19//16
f 340//180 341//181 21//18 20//17
f 341//181 342//182 158//183 21//18
f 158//183 342//182 159//184 160//185
f 158//183 160//185 161//186 162//187
f 158//183 162//187 16//13 21//18
f 162//187 161//186 163//188 164//189
f 162//187 164//189 17//14 16//13
f 164//189 163//188 165//190 166//191
f 164//189 166//191 23//21 17//14
f 166//191 165//190 154//174 153//173
f 166//191 153//173 24//22 23//21
f 165//190 163//188 167//192 168//193
f 165//190 168//193 169//194 154//174
f 169//194 168//193 170//195 171//196
f 169//194 171//196 172//197 151//198
f 169//194 151//198 150//175 154//174
f 172//197 171//196 173//199 174//200
f 175//201 176//202 177//203 141//161
f 175//201 141//161 140//160 145//166
f 177//203 176//202 343//204 178//205
f 177//203 178//205 179//206 136//154
f 177//203 136//154 135//153 141//161
f 179//206 178//205 180//207 181//208
f 179//206 181//208 182//209 131//210
f 179//206 131//210 130//155 136//154
f 182//209 181//208 183//211 184//212
f 182//213 184//214 185//215 127//143
f 182//213 127//143 126//142 131//148
f 185//215 184//214 186//216 187//217
f 185//215 187//217 188//218 124//138
f 185//215 124//138 123//137 127//143
f 188//218 187//217 189//219 190//220
f 188//218 190//220 191//221 121//222
f 188//218 121//222 120//139 124//138
f 191//221 190//220 192//223 344//224
f 193//225 345//226 194//227 111//125
f 193//225 111//125 110//124 116//130
f 194//227 345//226 346//228 195//229
f 194//227 195//229 196//230 106//119
f 194//227 106//119 105//118 111//125
f 196//230 195//229 197//231 198//232
f 196//230 198//232 199//233 101//113
f 196//230 101//113 100//112 106//119
f 199//233 198//232 200//234 201//235
f 199//233 201//235 202//236 96//108
f 199//233 96//108 95//107 101//113
f 202//236 201//235 203//237 204//238
f 202//236 204//238 205//239 93//103
f 202//236 93//103 92//102 96//108
f 205//239 204//238 206//240 207//241
f 205//239 207//241 208//242 91//243
f 205//239 91//243 90//104 93//103
f 208//242 207//241 209//244 347//245
f 210//246 211//247 35//35 79//90
f 210//246 79//90 78//89 84//95
f 211//247 326//40 36//36 35//35
f 348//248 214//249 215//250 212//251
f 348//248 349//252 216//253 214//249
f 216//253 217//254 218//255 214//249
f 216//253 349//252 350//256 219//257
f 216//253 219//257 220//258 217//254
f 220//258 221//259 222//260 217//254
f 220//258 219//257 209//244 223//261
f 220//258 223//261 224//262 221//259
f 224//262 225//263 226//264 221//259
f 224//262 223//261 206//240 227//265
f 224//262 227//265 228//266 225//263
f 228//266 229//267 230//268 225//263
f 228//266 227//265 203//237 231//269
f 228//266 231//269 232//270 229//267
f 232//270 233//271 234//272 229//267
f 232//270 231//269 200//234 235//273
f 232//270 235//273 351//274 233//271
f 351//274 235//273 197//231 352//275
f 237//276 238//277 239//278 353//279
f 237//276 354//280 240//281 238//277
f 240//281 241//282 242//283 238//277
f 240//281 354//280 355//284 243//285
f 240//281 243//285 244//286 241//282
f 244//286 245//287 246//288 241//282
f 244//286 243//285 192//223 247//289
f 244//286 247//289 248//290 245//287
f 248//291 249//291 250//292 245//292
f 248//290 247//289 189//219 251//293
f 248//291 251//294 252//294 249//291
f 252//295 253//296 254//297 249//298
f 252//294 251//294 186//299 255//299
f 252//295 255//300 256//301 253//296
f 256//301 257//302 258//303 253//296
f 256//301 255//300 183//211 259//304
f 256//301 259//304 356//305 257//302
f 356//305 259//304 180//207 357//306
f 262//307 263//308 264//309 260//310
f 262//307 174//200 173//199 263//308
f 264//309 137//156 133//150 132//149
f 264//309 132//149 261//311 260//310
f 264//309 263//308 265//312 137//156
f 265//312 142//313 138//157 137//156
f 265//312 263//308 173//199 266//314
f 265//312 266//314 267//315 142//313
f 267//315 146//167 143//163 142//162
f 267//315 266//314 170//195 268//316
f 267//315 268//316 269//317 146//167
f 269//317 148//170 147//168 146//167
f 269//317 268//316 167//192 270//318
f 269//317 270//318 271//319 148//170
f 271//319 149//320 339//171 148//170
f 271//319 270//318 161//186 160//185
f 271//319 160//185 159//184 149//320
f 270//318 167//192 163//188 161//186
f 268//316 170//195 168//193 167//192
f 266//314 173//199 171//196 170//195
f 261//311 132//149 128//145 336//144
f 357//306 180//207 178//205 343//204
f 259//304 183//211 181//208 180//207
f 258//303 358//321 254//297 253//296
f 255//299 186//299 184//212 183//211
f 254//297 358//321 334//135 119//134
f 254//297 119//134 250//322 249//298
f 251//293 189//219 187//217 186//216
f 250//322 119//134 118//132 117//131
f 250//292 117//323 246//323 245//292
f 247//289 192//223 190//220 189//219
f 246//323 117//323 113//126 112//126
f 246//288 112//324 242//283 241//282
f 243//285 355//284 344//224 192//223
f 242//283 112//324 108//121 107//120
f 242//283 107//120 239//278 238//277
f 239//278 107//120 103//115 102//114
f 239//278 102//114 236//325 353//279
f 236//325 102//114 98//110 97//109
f 352//275 197//231 195//229 346//228
f 235//273 200//234 198//232 197//231
f 234//272 89//326 230//268 229//267
f 231//269 203//237 201//235 200//234
f 230//268 89//326 330//100 88//99
f 230//268 88//99 226//264 225//263
f 227//265 206//240 204//238 203//237
f 226//264 88//99 86//97 85//96
f 226//264 85//96 222//260 221//259
f 223//261 209//244 207//241 206//240
f 222//260 85//96 81//92 80//91
f 222//260 80//91 218//255 217//254
f 219//257 350//256 347//245 209//244
f 218//255 80//91 76//86 75//85
f 218//255 75//85 215//250 214//249
f 215//250 75//85 72//80 71//79
f 215//250 71//79 213//327 212//251
f 213//327 71//79 67//75 66//74
f 79//90 35//35 34//34 74//83
f 70//78 6//30 33//33 30//29
f 70//78 30//29 27//26 65//73
f 70//78 69//84 34//34 6//30
f 273//328 272//329 274//330 275//331
f 273//328 275//331 45//48 44//47
f 275//331 274//330 276//332 277//333
f 275//331 277//333 47//50 45//48
f 277//333 276//332 278//334 279//335
f 277//333 279//335 280//336 47//50
f 280//337 279//338 281//339 282//340
f 280//337 282//340 283//341 50//342
f 280//336 50//53 48//51 47//50
f 283//341 282//340 284//343 285//344
f 283//341 285//344 286//345 53//58
f 283//341 53//58 51//57 50//342
f 286//345 285//344 359//346 360//347
f 286//345 360//347 361//348 56//61
f 286//345 56//61 54//59 53//58
f 361//348 328//65 57//62 56//61
f 289//349 288//350 290//351 291//352
f 289//349 291//352 274//330 272//329
f 291//352 290//351 292//353 293//354
f 291//352 293//354 276//332 274//330
f 293//354 292//353 294//355 295//356
f 293//354 295//356 278//334 276//332
f 295//356 294//355 296//357 297//358
f 295//356 297//358 298//359 278//334
f 298//359 297//358 299//360 300//361
f 298//359 300//361 301//362 281//339
f 298//359 281//339 279//338 278//334
f 301//362 300//361 302//363 287//364
f 301//362 287//364 362//365 284//343
f 301//362 284//343 282//340 281//339
f 302//363 300//361 299//360 363//366
f 364//367 304//368 305//369 306//370
f 364//367 306//370 290//351 288//350
f 306//370 305//369 307//371 308//372
f 306//370 308//372 292//353 290//351
f 308//372 307//371 309//373 310//374
f 308//372 310//374 294//355 292//353
f 310//374 309//373 311//375 312//376
f 310//374 312//376 296//357 294//355
f 312//376 311//375 313//377 314//378
f 312//376 314//378 315//379 296//357
f 315//379 314//378 365//380 303//381
f 315//379 303//381 363//366 299//360
f 315//379 299//360 297//358 296//357
f 365//380 314//378 313//377 366//382
f 316//383 367//384 11//6 317//385
f 316//383 317//385 305//369 304//368
f 317//385 11//6 10//5 318//386
f 317//385 318//386 307//371 305//369
f 318//386 10//5 12//7 319//387
f 318//386 319//387 309//373 307//371
f 319//387 12//7 15//11 320//388
f 319//387 320//388 311//375 309//373
f 320//388 15//11 14//10 321//389
f 320//388 321//389 313//377 311//375
f 321//389 14//10 322//390 368//391
f 321//389 368//391 366//382 313//377
f 322//390 14//10 13//9 323//392
f 323//392 13//9 8//3 324//393
f 324//394 8//3 7//2 325//395
f 325//395 7//2 11//6 367//384
f 362//365 359//346 285//344 284//343
f 377//396 376//397 375//398 369//399
f 375//398 379//400 378//401 369//399
f 378//401 380//402 377//396 369//399
f 383//403 382//404 381//405 370//406
f 377//396 380//402 383//403 370//406
f 381//405 376//397 377//396 370//406
f 386//407 385//408 384//409 371//410
f 388//411 387//412 386//407 371//410
f 384//409 389//413 388//411 371//410
f 386//407 387//412 390//414 372//415
f 390//414 392//416 391//417 372//415
f 391//417 385//408 386//407 372//415
f 395//418 394//419 393//420 373//421
f 393//420 397//422 396//423 373//421
f 396//423 398//424 395//418 373//421
f 401//425 400//426 399//427 374//428
f 404//429 403//430 402//431 374//428
f 399//427 405//432 404//429 374//428
f 399//427 407//433 406//434 405//432
f 327//41 326//40 404//429 405//432
f 406//434 40//42 327//42 405//432
f 406//434 408//435 41//44 40//43
f 410//436 409//437 44//47 43//46
f 41//44 408//435 410//436 43//46
f 412//438 411//439 409//437 410//436
f 408//435 413//440 412//438 410//436
f 415//441 414//442 412//438 413//440
f 407//433 416//443 415//441 413//440
f 408//435 406//434 407//433 413//440
f 418//444 417//445 415//446 416//447
f 400//426 419//448 418//444 416//447
f 407//433 399//427 400//426 416//443
f 421//449 420//450 418//444 419//448
f 423//451 422//452 421//449 419//448
f 400//426 401//425 423//451 419//448
f 396//423 397//422 422//452 423//451
f 401//425 398//424 396//423 423//451
f 60//66 328//65 421//449 422//452
f 397//422 61//67 60//66 422//452
f 397//422 393//420 62//68 61//68
f 393//420 394//419 63//70 62//69
f 394//419 424//453 329//71 63//70
f 394//419 395//418 425//454 424//453
f 426//455 66//74 329//71 424//453
f 425//454 427//456 426//455 424//453
f 425//454 429//457 428//458 427//456
f 431//459 430//460 426//455 427//456
f 428//458 432//461 431//459 427//456
f 428//462 402//431 433//463 432//464
f 435//465 434//466 431//459 432//461
f 433//463 436//467 435//468 432//464
f 433//463 438//469 437//470 436//467
f 440//471 439//472 435//468 436//467
f 437//470 441//473 440//471 436//467
f 437//470 84//95 83//94 441//473
f 443//474 442//475 440//471 441//473
f 83//94 87//98 443//474 441//473
f 330//100 444//476 443//474 87//98
f 90//104 446//477 445//478 331//101
f 445//478 447//479 332//105 331//101
f 445//478 449//480 448//481 447//479
f 450//482 97//109 332//105 447//479
f 448//481 451//483 450//482 447//479
f 448//481 453//484 452//485 451//483
f 455//486 454//487 450//482 451//483
f 452//485 456//488 455//486 451//483
f 452//485 458//489 457//490 456//491
f 460//492 459//493 455//486 456//488
f 457//490 461//494 460//495 456//491
f 457//490 463//496 462//497 461//494
f 465//498 464//498 460//495 461//494
f 462//497 466//499 465//500 461//494
f 462//497 116//130 115//129 466//499
f 468//501 467//502 465//500 466//499
f 115//129 333//133 468//501 466//499
f 334//135 469//503 468//501 333//133
f 120//139 471//504 470//505 122//136
f 470//505 472//506 335//140 122//136
f 470//505 474//507 473//508 472//506
f 475//509 336//144 335//140 472//506
f 473//508 476//510 475//509 472//506
f 473//508 478//511 477//512 476//510
f 480//513 479//514 475//509 476//510
f 477//512 481//515 480//513 476//510
f 477//516 483//517 482//518 481//519
f 485//520 484//521 480//513 481//515
f 482//518 486//522 485//523 481//519
f 482//518 488//524 487//525 486//522
f 490//526 489//527 485//523 486//522
f 487//525 491//528 490//526 486//522
f 487//525 145//166 337//165 491//528
f 493//529 492//530 490//526 491//528
f 337//165 338//169 493//529 491//528
f 339//171 494//531 493//529 338//169
f 150//175 496//532 495//533 152//172
f 495//533 392//416 155//176 152//172
f 392//416 390//414 156//177 155//176
f 390//414 387//412 157//178 156//177
f 387//412 388//411 340//180 157//179
f 388//411 389//413 341//181 340//180
f 389//413 497//534 342//182 341//181
f 498//535 159//184 342//182 497//534
f 500//536 499//537 498//535 497//534
f 389//413 384//409 500//536 497//534
f 502//538 501//539 499//537 500//536
f 384//409 385//408 502//538 500//536
f 504//540 503//541 501//539 502//538
f 385//408 391//417 504//540 502//538
f 495//533 496//532 503//541 504//540
f 391//417 392//416 495//533 504//540
f 506//542 505//543 501//539 503//541
f 496//532 507//544 506//542 503//541
f 509//545 508//546 506//542 507//544
f 151//198 172//197 509//545 507//544
f 496//532 150//175 151//198 507//544
f 174//200 510//547 509//545 172//197
f 488//524 511//548 176//202 175//201
f 145//166 487//525 488//524 175//201
f 512//549 343//204 176//202 511//548
f 483//517 513//550 512//549 511//548
f 488//524 482//518 483//517 511//548
f 515//551 514//552 512//549 513//550
f 478//553 516//554 515//551 513//550
f 483//517 477//516 478//553 513//550
f 518//555 517//556 515//551 516//554
f 474//507 519//557 518//558 516//559
f 478//511 473//508 474//507 516//559
f 521//560 520//561 518//558 519//557
f 471//504 522//562 521//560 519//557
f 474//507 470//505 471//504 519//557
f 524//563 523//564 521//560 522//562
f 121//222 191//221 524//563 522//562
f 471//504 120//139 121//222 522//562
f 344//224 525//565 524//563 191//221
f 463//496 526//566 345//226 193//225
f 116//130 462//497 463//496 193//225
f 527//567 346//228 345//226 526//566
f 458//489 528//568 527//567 526//566
f 463//496 457//490 458//489 526//566
f 530//569 529//570 527//567 528//568
f 453//484 531//571 530//569 528//568
f 458//489 452//485 453//484 528//568
f 533//572 532//573 530//569 531//571
f 449//480 534//574 533//572 531//571
f 453//484 448//481 449//480 531//571
f 536//575 535//576 533//572 534//574
f 446//477 537//577 536//575 534//574
f 449//480 445//478 446//477 534//574
f 539//578 538//579 536//575 537//577
f 91//243 208//242 539//578 537//577
f 446//477 90//104 91//243 537//577
f 347//245 540//580 539//578 208//242
f 438//469 403//430 211//247 210//246
f 84//95 437//470 438//469 210//246
f 403//430 404//429 326//40 211//247
f 212//251 542//581 541//582 348//248
f 541//582 543//583 349//252 348//248
f 541//582 545//584 544//585 543//583
f 546//586 350//256 349//252 543//583
f 544//585 547//587 546//586 543//583
f 544//585 549//588 548//589 547//587
f 550//590 540//580 546//586 547//587
f 548//589 551//591 550//590 547//587
f 548//589 553//592 552//593 551//591
f 554//594 538//579 550//590 551//591
f 552//593 555//595 554//594 551//591
f 552//593 557//596 556//597 555//595
f 558//598 535//576 554//594 555//595
f 556//597 559//599 558//598 555//595
f 556//597 234//272 233//271 559//599
f 560//600 532//573 558//598 559//599
f 233//271 351//274 560//600 559//599
f 352//275 529//570 560//600 351//274
f 353//279 562//601 561//602 237//276
f 561//602 563//603 354//280 237//276
f 561//602 565//604 564//605 563//603
f 566//606 355//284 354//280 563//603
f 564//605 567//607 566//606 563//603
f 564//605 569//608 568//609 567//607
f 570//610 525//565 566//606 567//607
f 568//609 571//611 570//610 567//607
f 568//612 573//612 572//613 571//613
f 574//614 523//564 570//610 571//611
f 572//613 575//615 574//615 571//613
f 572//616 577//617 576//618 575//619
f 578//620 520//620 574//615 575//615
f 576//618 579//621 578//622 575//619
f 576//618 258//303 257//302 579//621
f 580//623 517//556 578//622 579//621
f 257//302 356//305 580//623 579//621
f 357//306 514//552 580//623 356//305
f 260//310 582//624 581//625 262//307
f 581//625 510//547 174//200 262//307
f 479//514 480//513 484//521 582//624
f 260//310 261//311 479//514 582//624
f 484//521 583//626 581//625 582//624
f 484//521 485//520 489//627 583//626
f 584//628 510//547 581//625 583//626
f 489//627 585//629 584//628 583//626
f 489//527 490//526 492//530 585//629
f 586//630 508//546 584//628 585//629
f 492//530 587//631 586//630 585//629
f 492//530 493//529 494//531 587//631
f 588//632 505//543 586//630 587//631
f 494//531 589//633 588//632 587//631
f 494//531 339//171 149//320 589//633
f 498//535 499//537 588//632 589//633
f 149//320 159//184 498//535 589//633
f 499//537 501//539 505//543 588//632
f 505//543 506//542 508//546 586//630
f 508//546 509//545 510//547 584//628
f 336//144 475//509 479//514 261//311
f 343//204 512//549 514//552 357//306
f 514//552 515//551 517//556 580//623
f 576//618 577//617 358//321 258//303
f 517//556 518//555 520//620 578//620
f 469//503 334//135 358//321 577//617
f 572//616 573//634 469//503 577//617
f 520//561 521//560 523//564 574//614
f 467//502 468//501 469//503 573//634
f 568//612 569//635 467//635 573//612
f 523//564 524//563 525//565 570//610
f 464//498 465//498 467//635 569//635
f 564//605 565//604 464//636 569//608
f 525//565 344//224 355//284 566//606
f 459//493 460//492 464//636 565//604
f 561//602 562//601 459//493 565//604
f 454//487 455//486 459//493 562//601
f 353//279 236//325 454//487 562//601
f 97//109 450//482 454//487 236//325
f 346//228 527//567 529//570 352//275
f 529//570 530//569 532//573 560//600
f 556//597 557//596 89//326 234//272
f 532//573 533//572 535//576 558//598
f 444//476 330//100 89//326 557//596
f 552//593 553//592 444//476 557//596
f 535//576 536//575 538//579 554//594
f 442//475 443//474 444//476 553//592
f 548//589 549//588 442//475 553//592
f 538//579 539//578 540//580 550//590
f 439//472 440//471 442//475 549//588
f 544//585 545//584 439//472 549//588
f 540//580 347//245 350//256 546//586
f 434//466 435//465 439//472 545//584
f 541//582 542//581 434//466 545//584
f 430//460 431//459 434//466 542//581
f 212//251 213//327 430//460 542//581
f 66//74 426//455 430//460 213//327
f 433//463 402//431 403//430 438//469
f 398//424 401//425 374//428 429//457
f 425//454 395//418 398//424 429//457
f 374//428 402//431 428//462 429//457
f 591//637 590//638 272//329 273//328
f 44//47 409//437 591//637 273//328
f 593//639 592//640 590//638 591//637
f 409//437 411//439 593//639 591//637
f 595//641 594//642 592//640 593//639
f 411//439 596//643 595//641 593//639
f 598//644 597//645 595//646 596//647
f 414//648 599//649 598//644 596//647
f 411//439 412//438 414//442 596//643
f 601//650 600//651 598//644 599//649
f 417//445 602//652 601//650 599//649
f 414//648 415//446 417//445 599//649
f 360//347 359//346 601//650 602//652
f 420//450 361//348 360//347 602//652
f 417//445 418//444 420//450 602//652
f 420//450 421//449 328//65 361//348
f 604//653 603//654 288//350 289//349
f 272//329 590//638 604//653 289//349
f 606//655 605//656 603//654 604//653
f 590//638 592//640 606//655 604//653
f 608//657 607//658 605//656 606//655
f 592//640 594//642 608//657 606//655
f 610//659 609//660 607//658 608//657
f 594//642 611//661 610//659 608//657
f 613//662 612//663 610//659 611//661
f 597//645 614//664 613//662 611//661
f 594//642 595//646 597//645 611//661
f 287//364 302//363 613//662 614//664
f 600//651 362//365 287//364 614//664
f 597//645 598//644 600//651 614//664
f 363//366 612//663 613//662 302//363
f 616//665 615//666 304//368 364//367
f 288//350 603//654 616//665 364//367
f 618//667 617//668 615//666 616//665
f 603//654 605//656 618//667 616//665
f 620//669 619//670 617//668 618//667
f 605//656 607//658 620//669 618//667
f 622//671 621//672 619//670 620//669
f 607//658 609//660 622//671 620//669
f 624//673 623//674 621//672 622//671
f 609//660 625//675 624//673 622//671
f 303//381 365//380 624//673 625//675
f 612//663 363//366 303//381 625//675
f 609//660 610//659 612//663 625//675
f 366//382 623//674 624//673 365//380
f 626//676 379//400 367//384 316//383
f 304//368 615//666 626//676 316//383
f 627//677 378//401 379//400 626//676
f 615//666 617//668 627//677 626//676
f 628//678 380//402 378//401 627//677
f 617//668 619//670 628//678 627//677
f 629//679 383//403 380//402 628//678
f 619//670 621//672 629//679 628//678
f 630//680 382//404 383//403 629//679
f 621//672 623//674 630//680 629//679
f 368//391 322//390 382//404 630//680
f 623//674 366//382 368//391 630//680
f 323//392 381//405 382//404 322//390
f 324//393 376//397 381//405 323//392
f 325//395 375//398 376//397 324//394
f 367//384 379//400 375//398 325//395
f 600//651 601//650 359//346 362//365
