# pilowlava3D glyph 'o' variant 1 — Vincent Wagner / Velvetyne, Free Art License
v 4.04550 2.40776 -0.00000
v 4.01770 2.41218 -0.17746
v 4.00548 2.67186 -0.17161
v 3.98933 2.94508 -0.00000
v 3.96280 2.93411 -0.17690
v 4.04198 2.15134 -0.00000
v 4.02289 1.90721 -0.00000
v 3.97687 1.91926 -0.20016
v 4.00478 2.16116 -0.18917
v 3.87726 1.95045 -0.35291
v 3.92415 2.18345 -0.33023
v 3.95665 2.42043 -0.30371
v 3.82300 2.21309 -0.37338
v 3.87524 2.43128 -0.33901
v 3.88176 2.65577 -0.32438
v 3.95409 2.66499 -0.29188
v 3.82796 2.87465 -0.34218
v 3.90361 2.90761 -0.30761
v 3.71695 3.07464 -0.38370
v 3.81319 3.14053 -0.33781
v 3.88686 3.19000 -0.19251
v 3.69441 3.36260 -0.36915
v 3.79048 3.43472 -0.21065
v 3.83714 3.45892 -0.00000
v 3.92409 3.20795 -0.00000
v 3.93439 1.42360 -0.00000
v 3.98883 1.66518 -0.00000
v 3.87180 1.44419 -0.21493
v 3.93428 1.67886 -0.20842
v 3.74272 1.49552 -0.39151
v 3.81847 1.71941 -0.37318
v 3.56494 1.58294 -0.46276
v 3.66142 1.78709 -0.43618
v 3.74788 1.99677 -0.40727
v 3.50916 1.86134 -0.36915
v 3.62379 2.04926 -0.35181
v 3.72418 2.24401 -0.32439
v 3.52394 2.09563 -0.19803
v 3.64146 2.26709 -0.18354
v 3.73134 2.44733 -0.16430
v 3.79517 2.44229 -0.29226
v 3.75659 2.63854 -0.15380
v 3.81255 2.64693 -0.27920
v 3.68913 2.81579 -0.16326
v 3.75240 2.84063 -0.29565
v 3.55710 2.94903 -0.18771
v 3.62943 3.00474 -0.32972
v 3.38791 3.04882 -0.21132
v 3.46545 3.14497 -0.36578
v 3.57599 3.25463 -0.42592
v 3.29169 3.26096 -0.39281
v 3.41425 3.41658 -0.46532
v 3.54982 3.56368 -0.39770
v 3.24049 3.56051 -0.49187
v 3.37939 3.74243 -0.41311
v 3.48618 3.85869 -0.22735
v 3.65723 3.66021 -0.22211
v 3.52615 2.92163 -0.00000
v 3.66907 2.80890 -0.00000
v 3.60664 2.28102 -0.00000
v 3.48038 2.12397 -0.00000
v 3.35219 1.96452 -0.00000
v 3.75203 0.93846 -0.00000
v 3.85802 1.18205 -0.00000
v 3.68971 0.97451 -0.23138
v 3.79210 1.21070 -0.22227
v 3.54916 1.05978 -0.41482
v 3.65523 1.27553 -0.40319
v 3.35066 1.18961 -0.49209
v 3.46103 1.38142 -0.47995
v 3.15642 1.32569 -0.40801
v 3.27420 1.49957 -0.40019
v 3.39084 1.68059 -0.38674
v 3.14787 1.59365 -0.21967
v 3.27492 1.75893 -0.21251
v 3.40184 1.92662 -0.20516
v 3.22102 1.80386 -0.00000
v 2.96115 1.48332 -0.00000
v 3.42999 0.49577 -0.00000
v 3.60455 0.70941 -0.00000
v 3.37732 0.54965 -0.23443
v 3.54428 0.75666 -0.23174
v 3.25505 0.66941 -0.42243
v 3.41275 0.85766 -0.42003
v 3.07889 0.83815 -0.50013
v 3.22284 1.00774 -0.49955
v 2.90004 1.00378 -0.41383
v 3.03212 1.16101 -0.41404
v 2.77014 1.11689 -0.22511
v 2.89778 1.27122 -0.22543
v 3.02478 1.42932 -0.22245
v 2.83269 1.32640 -0.00000
v 2.57632 1.01944 -0.00000
v 3.21428 0.31632 -0.00000
v 2.94160 0.24611 -0.22281
v 3.17278 0.37674 -0.22995
v 2.86510 0.37440 -0.40173
v 3.07231 0.50601 -0.41439
v 2.74269 0.54849 -0.47462
v 2.91943 0.68480 -0.49192
v 2.61038 0.71279 -0.39665
v 2.75970 0.85544 -0.40842
v 2.50543 0.82025 -0.21851
v 2.63806 0.96768 -0.22353
v 2.32126 0.71952 -0.00000
v 2.36864 0.67472 -0.21371
v 2.23012 0.53285 -0.20188
v 2.19771 0.57419 -0.00000
v 2.45374 0.57278 -0.37969
v 2.28410 0.43857 -0.35379
v 2.10352 0.32861 -0.32334
v 2.07861 0.41007 -0.18290
v 2.55139 0.42608 -0.44623
v 2.34889 0.31783 -0.41203
v 2.13837 0.23053 -0.37411
v 1.91226 0.18465 -0.34507
v 1.90759 0.27000 -0.29897
v 2.41182 0.18627 -0.35745
v 2.16985 0.12889 -0.33105
v 1.91963 0.09639 -0.31051
v 1.66898 0.11451 -0.30908
v 1.68747 0.20047 -0.34099
v 2.19389 0.04452 -0.19131
v 1.92659 0.03097 -0.18386
v 1.65436 0.04995 -0.18167
v 1.38676 0.10380 -0.18916
v 1.42455 0.18276 -0.32421
v 1.92799 0.00000 -0.00000
v 1.10704 0.15666 -0.00000
v 1.12955 0.19643 -0.19897
v 0.85725 0.28570 -0.00000
v 0.63245 0.45356 -0.00000
v 0.67729 0.49994 -0.22142
v 0.89037 0.32986 -0.20957
v 0.78613 0.59774 -0.39542
v 0.97359 0.42660 -0.37448
v 1.18893 0.28713 -0.34839
v 1.10214 0.55005 -0.43506
v 1.27528 0.39688 -0.39645
v 1.47058 0.27617 -0.36180
v 1.35640 0.49115 -0.33872
v 1.51750 0.36633 -0.31410
v 1.70557 0.28677 -0.29657
v 1.55215 0.43535 -0.17772
v 1.71902 0.35281 -0.16943
v 1.90460 0.34168 -0.16935
v 1.72343 0.37215 -0.00000
v 1.90445 0.36304 -0.00000
v 2.06804 0.44312 -0.00000
v 2.45244 0.08603 -0.20237
v 2.70193 0.15230 -0.21344
v 2.64384 0.27002 -0.38163
v 0.44206 0.66025 -0.00000
v 0.36060 0.93163 -0.23481
v 0.49992 0.70415 -0.22930
v 0.51511 1.00941 -0.42361
v 0.63533 0.79525 -0.41072
v 0.73643 1.11015 -0.50170
v 0.83549 0.91258 -0.48384
v 0.95523 0.72427 -0.46425
v 1.03807 1.02124 -0.40377
v 1.12654 0.83702 -0.38877
v 1.22908 0.65761 -0.36741
v 1.26035 0.90755 -0.21807
v 1.33148 0.73048 -0.20759
v 1.42215 0.56701 -0.19178
v 1.45311 0.59540 -0.00000
v 0.18059 1.41396 -0.23676
v 0.25856 1.17080 -0.23647
v 0.34982 1.46320 -0.42908
v 0.42200 1.23365 -0.42946
v 0.58635 1.53365 -0.51002
v 0.65410 1.31933 -0.51030
v 0.82280 1.60707 -0.42454
v 0.88618 1.40582 -0.42353
v 0.95822 1.21010 -0.41619
v 1.05508 1.46791 -0.23187
v 1.11984 1.27635 -0.22753
v 1.19057 1.08965 -0.22331
v 1.20349 1.30618 -0.00000
v 1.14188 1.49751 -0.00000
v 0.09467 1.90427 -0.23017
v 0.12564 1.65816 -0.23548
v 0.25731 1.92775 -0.41861
v 0.29477 1.69441 -0.42597
v 0.48715 1.97040 -0.49945
v 0.53127 1.75087 -0.50631
v 0.71642 2.02115 -0.41584
v 0.76651 1.81218 -0.42142
v 0.87819 2.06656 -0.22888
v 0.93457 1.86348 -0.23163
v 0.99423 1.66358 -0.23328
v 0.89696 2.29433 -0.00000
v 0.00148 2.38553 -0.00000
v 0.07216 2.38494 -0.21710
v 0.07596 2.14505 -0.22509
v 0.21587 2.39338 -0.39604
v 0.23138 2.16094 -0.40934
v 0.42201 2.41725 -0.47305
v 0.45125 2.19322 -0.48836
v 0.62668 2.44805 -0.39459
v 0.66989 2.23329 -0.40642
v 0.76891 2.47933 -0.21707
v 0.82211 2.27230 -0.22331
v 0.83713 2.49878 -0.00000
v 0.77591 2.70287 -0.00000
v 0.71442 2.68680 -0.20905
v 0.66185 2.89308 -0.20116
v 0.71608 2.90448 -0.00000
v 0.58504 2.66319 -0.37969
v 0.54251 2.87874 -0.36535
v 0.50531 3.09199 -0.34657
v 0.61072 3.09363 -0.19429
v 0.39775 2.64248 -0.45374
v 0.37968 2.86716 -0.43107
v 0.37119 3.09353 -0.40493
v 0.38719 3.32015 -0.37479
v 0.49222 3.30586 -0.32316
v 0.21104 2.85997 -0.36689
v 0.23120 3.09849 -0.35275
v 0.27713 3.33839 -0.33337
v 0.35359 3.57309 -0.31334
v 0.44081 3.54145 -0.34835
v 0.12437 3.10696 -0.19896
v 0.18704 3.35373 -0.19186
v 0.28474 3.59700 -0.18538
v 0.42059 3.82732 -0.17878
v 0.47473 3.79083 -0.29965
v 0.25520 3.60800 -0.00000
v 0.39909 3.84224 -0.00000
v 0.58551 4.05089 -0.00000
v 0.60045 4.03013 -0.17646
v 0.80807 4.22256 -0.00000
v 1.06386 4.31223 -0.19220
v 0.81944 4.19429 -0.18288
v 1.08397 4.21783 -0.33647
v 0.85027 4.12047 -0.31672
v 0.64218 3.97700 -0.30127
v 0.88927 4.03033 -0.35133
v 0.69099 3.91538 -0.33567
v 0.54007 3.74658 -0.33349
v 0.74232 3.85182 -0.28892
v 0.60777 3.69976 -0.29038
v 0.52467 3.51136 -0.30471
v 0.65869 3.66232 -0.15955
v 0.59123 3.48526 -0.17092
v 0.57928 3.29251 -0.18407
v 0.61407 3.47487 -0.00000
v 0.65791 3.10103 -0.00000
v 0.09389 2.86198 -0.20328
v 0.07593 2.62207 -0.21058
v 0.20821 2.62621 -0.38195
v 1.57156 4.42578 -0.21147
v 1.31793 4.38697 -0.20186
v 1.57234 4.29537 -0.38009
v 1.32802 4.27362 -0.35768
v 1.56119 4.11048 -0.44626
v 1.33356 4.11593 -0.41317
v 1.10829 4.09294 -0.38017
v 1.33524 3.96897 -0.34941
v 1.12556 3.97841 -0.32603
v 0.92386 3.94313 -0.30640
v 1.14091 3.88958 -0.18275
v 0.95428 3.87340 -0.16859
v 0.78445 3.80088 -0.15690
v 1.32443 3.81025 -0.00000
v 2.07242 4.51124 -0.00000
v 1.81964 4.50723 -0.00000
v 2.06851 4.43377 -0.22798
v 1.82082 4.43760 -0.22013
v 2.05217 4.27662 -0.41343
v 1.81346 4.29277 -0.39998
v 2.01408 4.05239 -0.49304
v 1.78853 4.08697 -0.47433
v 1.96248 3.83068 -0.41002
v 1.75430 3.88375 -0.39485
v 1.54535 3.93195 -0.37540
v 1.71791 3.74271 -0.21729
v 1.52382 3.80418 -0.20933
v 1.33220 3.85923 -0.19707
v 1.88150 3.59791 -0.00000
v 2.59247 4.45261 -0.00000
v 2.33162 4.49704 -0.00000
v 2.57213 4.36709 -0.23957
v 2.32062 4.41700 -0.23738
v 2.52536 4.19447 -0.43440
v 2.28987 4.24659 -0.42678
v 2.44975 3.95202 -0.51798
v 2.23305 4.00879 -0.50756
v 2.36708 3.70955 -0.43162
v 2.16685 3.77356 -0.42205
v 2.29990 3.53519 -0.23622
v 2.10840 3.60767 -0.23075
v 1.91283 3.67516 -0.22563
v 2.07301 3.52424 -0.00000
v 2.45139 3.37346 -0.00000
v 3.06841 4.19139 -0.24140
v 2.82437 4.29986 -0.24442
v 2.98248 4.02706 -0.43751
v 2.75754 4.12428 -0.44064
v 2.86580 3.79438 -0.52135
v 2.66176 3.88151 -0.52328
v 2.75169 3.55885 -0.43471
v 2.56274 3.63902 -0.43545
v 2.67413 3.38471 -0.23757
v 2.48965 3.46305 -0.23722
v 2.63704 3.29694 -0.00000
v 2.82195 3.22341 -0.00000
v 2.85703 3.30718 -0.23224
v 3.03639 3.22192 -0.22672
v 2.93456 3.46938 -0.42542
v 3.11359 3.36798 -0.41127
v 3.21645 3.13622 -0.21721
v 3.05914 3.68770 -0.51133
v 3.19298 3.90126 -0.43109
v 3.29814 4.04861 -0.24014
v 3.36073 2.99479 -0.00000
v 4.02846 2.67512 -0.00000
v 3.54581 3.91413 -0.00000
v 3.71165 3.69822 -0.00000
v 3.08934 1.64371 -0.00000
v 2.70531 1.17127 -0.00000
v 2.97125 0.18584 -0.00000
v 2.44899 0.86753 -0.00000
v 1.64870 0.02144 -0.00000
v 1.37198 0.07073 -0.00000
v 2.46593 0.03776 -0.00000
v 2.72063 0.09513 -0.00000
v 2.20334 0.00663 -0.00000
v 0.29056 0.89295 -0.00000
v 1.38629 0.75741 -0.00000
v 1.56505 0.45806 -0.00000
v 0.09875 1.39182 -0.00000
v 0.17848 1.14078 -0.00000
v 1.26779 1.11779 -0.00000
v 1.33041 0.93381 -0.00000
v 0.01393 1.89578 -0.00000
v 0.04469 1.64530 -0.00000
v 1.01886 1.89105 -0.00000
v 1.08066 1.69267 -0.00000
v 0.95825 2.09168 -0.00000
v 0.00000 2.14246 -0.00000
v 0.14893 3.36100 -0.00000
v 1.05429 4.35041 -0.00000
v 0.61633 3.28667 -0.00000
v 0.03671 2.86789 -0.00000
v 0.01196 2.62662 -0.00000
v 0.07751 3.11367 -0.00000
v 1.56543 4.48516 -0.00000
v 1.30878 4.43537 -0.00000
v 0.96423 3.85164 -0.00000
v 0.79605 3.78618 -0.00000
v 0.67253 3.65075 -0.00000
v 1.14555 3.85457 -0.00000
v 1.50510 3.74340 -0.00000
v 1.69157 3.67274 -0.00000
v 2.26280 3.44775 -0.00000
v 3.11192 4.26871 -0.00000
v 2.85635 4.38189 -0.00000
v 3.00389 3.14669 -0.00000
v 3.35002 4.11277 -0.00000
v 3.18552 3.07160 -0.00000
v 3.70828 2.44852 -0.00000
v 3.74071 2.63624 -0.00000
v 4.01770 2.41218 0.17746
v 4.00548 2.67186 0.17161
v 3.96280 2.93411 0.17690
v 3.97687 1.91926 0.20016
v 4.00478 2.16116 0.18917
v 3.87726 1.95045 0.35291
v 3.92415 2.18345 0.33023
v 3.95665 2.42043 0.30371
v 3.82300 2.21309 0.37338
v 3.87524 2.43128 0.33901
v 3.88176 2.65577 0.32438
v 3.95409 2.66499 0.29188
v 3.82796 2.87465 0.34218
v 3.90361 2.90761 0.30761
v 3.71695 3.07464 0.38370
v 3.81319 3.14053 0.33781
v 3.88686 3.19000 0.19251
v 3.69441 3.36260 0.36915
v 3.79048 3.43472 0.21065
v 3.87180 1.44419 0.21493
v 3.93428 1.67886 0.20842
v 3.74272 1.49552 0.39151
v 3.81847 1.71941 0.37318
v 3.56494 1.58294 0.46276
v 3.66142 1.78709 0.43618
v 3.74788 1.99677 0.40727
v 3.50916 1.86134 0.36915
v 3.62379 2.04926 0.35181
v 3.72418 2.24401 0.32439
v 3.52394 2.09563 0.19803
v 3.64146 2.26709 0.18354
v 3.73134 2.44733 0.16430
v 3.79517 2.44229 0.29226
v 3.75659 2.63854 0.15380
v 3.81255 2.64693 0.27920
v 3.68913 2.81579 0.16326
v 3.75240 2.84063 0.29565
v 3.55710 2.94903 0.18771
v 3.62943 3.00474 0.32972
v 3.38791 3.04882 0.21132
v 3.46545 3.14497 0.36578
v 3.57599 3.25463 0.42592
v 3.29169 3.26096 0.39281
v 3.41425 3.41658 0.46532
v 3.54982 3.56368 0.39770
v 3.24049 3.56051 0.49187
v 3.37939 3.74243 0.41311
v 3.48618 3.85869 0.22735
v 3.65723 3.66021 0.22211
v 3.68971 0.97451 0.23138
v 3.79210 1.21070 0.22227
v 3.54916 1.05978 0.41482
v 3.65523 1.27553 0.40319
v 3.35066 1.18961 0.49209
v 3.46103 1.38142 0.47995
v 3.15642 1.32569 0.40801
v 3.27420 1.49957 0.40019
v 3.39084 1.68059 0.38674
v 3.14787 1.59365 0.21967
v 3.27492 1.75893 0.21251
v 3.40184 1.92662 0.20516
v 3.37732 0.54965 0.23443
v 3.54428 0.75666 0.23174
v 3.25505 0.66941 0.42243
v 3.41275 0.85766 0.42003
v 3.07889 0.83815 0.50013
v 3.22284 1.00774 0.49955
v 2.90004 1.00378 0.41383
v 3.03212 1.16101 0.41404
v 2.77014 1.11689 0.22511
v 2.89778 1.27122 0.22543
v 3.02478 1.42932 0.22245
v 2.94160 0.24611 0.22281
v 3.17278 0.37674 0.22995
v 2.86510 0.37440 0.40173
v 3.07231 0.50601 0.41439
v 2.74269 0.54849 0.47462
v 2.91943 0.68480 0.49192
v 2.61038 0.71279 0.39665
v 2.75970 0.85544 0.40842
v 2.50543 0.82025 0.21851
v 2.63806 0.96768 0.22353
v 2.36864 0.67472 0.21371
v 2.23012 0.53285 0.20188
v 2.45374 0.57278 0.37969
v 2.28410 0.43857 0.35379
v 2.10352 0.32861 0.32334
v 2.07861 0.41007 0.18290
v 2.55139 0.42608 0.44623
v 2.34889 0.31783 0.41203
v 2.13837 0.23053 0.37411
v 1.91226 0.18465 0.34507
v 1.90759 0.27000 0.29897
v 2.41182 0.18627 0.35745
v 2.16985 0.12889 0.33105
v 1.91963 0.09639 0.31051
v 1.66898 0.11451 0.30908
v 1.68747 0.20047 0.34099
v 2.19389 0.04452 0.19131
v 1.92659 0.03097 0.18386
v 1.65436 0.04995 0.18167
v 1.38676 0.10380 0.18916
v 1.42455 0.18276 0.32421
v 1.12955 0.19643 0.19897
v 0.67729 0.49994 0.22142
v 0.89037 0.32986 0.20957
v 0.78613 0.59774 0.39542
v 0.97359 0.42660 0.37448
v 1.18893 0.28713 0.34839
v 1.10214 0.55005 0.43506
v 1.27528 0.39688 0.39645
v 1.47058 0.27617 0.36180
v 1.35640 0.49115 0.33872
v 1.51750 0.36633 0.31410
v 1.70557 0.28677 0.29657
v 1.55215 0.43535 0.17772
v 1.71902 0.35281 0.16943
v 1.90460 0.34168 0.16935
v 2.45244 0.08603 0.20237
v 2.70193 0.15230 0.21344
v 2.64384 0.27002 0.38163
v 0.36060 0.93163 0.23481
v 0.49992 0.70415 0.22930
v 0.51511 1.00941 0.42361
v 0.63533 0.79525 0.41072
v 0.73643 1.11015 0.50170
v 0.83549 0.91258 0.48384
v 0.95523 0.72427 0.46425
v 1.03807 1.02124 0.40377
v 1.12654 0.83702 0.38877
v 1.22908 0.65761 0.36741
v 1.26035 0.90755 0.21807
v 1.33148 0.73048 0.20759
v 1.42215 0.56701 0.19178
v 0.18059 1.41396 0.23676
v 0.25856 1.17080 0.23647
v 0.34982 1.46320 0.42908
v 0.42200 1.23365 0.42946
v 0.58635 1.53365 0.51002
v 0.65410 1.31933 0.51030
v 0.82280 1.60707 0.42454
v 0.88618 1.40582 0.42353
v 0.95822 1.21010 0.41619
v 1.05508 1.46791 0.23187
v 1.11984 1.27635 0.22753
v 1.19057 1.08965 0.22331
v 0.09467 1.90427 0.23017
v 0.12564 1.65816 0.23548
v 0.25731 1.92775 0.41861
v 0.29477 1.69441 0.42597
v 0.48715 1.97040 0.49945
v 0.53127 1.75087 0.50631
v 0.71642 2.02115 0.41584
v 0.76651 1.81218 0.42142
v 0.87819 2.06656 0.22888
v 0.93457 1.86348 0.23163
v 0.99423 1.66358 0.23328
v 0.07216 2.38494 0.21710
v 0.07596 2.14505 0.22509
v 0.21587 2.39338 0.39604
v 0.23138 2.16094 0.40934
v 0.42201 2.41725 0.47305
v 0.45125 2.19322 0.48836
v 0.62668 2.44805 0.39459
v 0.66989 2.23329 0.40642
v 0.76891 2.47933 0.21707
v 0.82211 2.27230 0.22331
v 0.71442 2.68680 0.20905
v 0.66185 2.89308 0.20116
v 0.58504 2.66319 0.37969
v 0.54251 2.87874 0.36535
v 0.50531 3.09199 0.34657
v 0.61072 3.09363 0.19429
v 0.39775 2.64248 0.45374
v 0.37968 2.86716 0.43107
v 0.37119 3.09353 0.40493
v 0.38719 3.32015 0.37479
v 0.49222 3.30586 0.32316
v 0.21104 2.85997 0.36689
v 0.23120 3.09849 0.35275
v 0.27713 3.33839 0.33337
v 0.35359 3.57309 0.31334
v 0.44081 3.54145 0.34835
v 0.12437 3.10696 0.19896
v 0.18704 3.35373 0.19186
v 0.28474 3.59700 0.18538
v 0.42059 3.82732 0.17878
v 0.47473 3.79083 0.29965
v 0.60045 4.03013 0.17646
v 1.06386 4.31223 0.19220
v 0.81944 4.19429 0.18288
v 1.08397 4.21783 0.33647
v 0.85027 4.12047 0.31672
v 0.64218 3.97700 0.30127
v 0.88927 4.03033 0.35133
v 0.69099 3.91538 0.33567
v 0.54007 3.74658 0.33349
v 0.74232 3.85182 0.28892
v 0.60777 3.69976 0.29038
v 0.52467 3.51136 0.30471
v 0.65869 3.66232 0.15955
v 0.59123 3.48526 0.17092
v 0.57928 3.29251 0.18407
v 0.09389 2.86198 0.20328
v 0.07593 2.62207 0.21058
v 0.20821 2.62621 0.38195
v 1.57156 4.42578 0.21147
v 1.31793 4.38697 0.20186
v 1.57234 4.29537 0.38009
v 1.32802 4.27362 0.35768
v 1.56119 4.11048 0.44626
v 1.33356 4.11593 0.41317
v 1.10829 4.09294 0.38017
v 1.33524 3.96897 0.34941
v 1.12556 3.97841 0.32603
v 0.92386 3.94313 0.30640
v 1.14091 3.88958 0.18275
v 0.95428 3.87340 0.16859
v 0.78445 3.80088 0.15690
v 2.06851 4.43377 0.22798
v 1.82082 4.43760 0.22013
v 2.05217 4.27662 0.41343
v 1.81346 4.29277 0.39998
v 2.01408 4.05239 0.49304
v 1.78853 4.08697 0.47433
v 1.96248 3.83068 0.41002
v 1.75430 3.88375 0.39485
v 1.54535 3.93195 0.37540
v 1.71791 3.74271 0.21729
v 1.52382 3.80418 0.20933
v 1.33220 3.85923 0.19707
v 2.57213 4.36709 0.23957
v 2.32062 4.41700 0.23738
v 2.52536 4.19447 0.43440
v 2.28987 4.24659 0.42678
v 2.44975 3.95202 0.51798
v 2.23305 4.00879 0.50756
v 2.36708 3.70955 0.43162
v 2.16685 3.77356 0.42205
v 2.29990 3.53519 0.23622
v 2.10840 3.60767 0.23075
v 1.91283 3.67516 0.22563
v 3.06841 4.19139 0.24140
v 2.82437 4.29986 0.24442
v 2.98248 4.02706 0.43751
v 2.75754 4.12428 0.44064
v 2.86580 3.79438 0.52135
v 2.66176 3.88151 0.52328
v 2.75169 3.55885 0.43471
v 2.56274 3.63902 0.43545
v 2.67413 3.38471 0.23757
v 2.48965 3.46305 0.23722
v 2.85703 3.30718 0.23224
v 3.03639 3.22192 0.22672
v 2.93456 3.46938 0.42542
v 3.11359 3.36798 0.41127
v 3.21645 3.13622 0.21721
v 3.05914 3.68770 0.51133
v 3.19298 3.90126 0.43109
v 3.29814 4.04861 0.24014
vn 0.99459 0.10388 -0.00014
vn 0.99990 0.01438 0.00001
vn 0.95263 0.00546 -0.30409
vn 0.95409 0.10014 -0.28229
vn 0.93005 0.20185 -0.30703
vn 0.97893 0.20419 -0.00014
vn 0.99821 -0.05983 0.00007
vn 0.99253 -0.12198 -0.00001
vn 0.90960 -0.11954 -0.39791
vn 0.93370 -0.06565 -0.35197
vn 0.63112 -0.06380 -0.77306
vn 0.66423 -0.02238 -0.74720
vn 0.69174 0.02366 -0.72176
vn 0.39788 0.02828 -0.91700
vn 0.40338 0.04763 -0.91379
vn 0.40515 0.03683 -0.91351
vn 0.90498 0.09550 -0.41460
vn 0.40602 0.03153 -0.91332
vn 0.68093 0.12223 -0.72207
vn 0.39276 0.05694 -0.91788
vn 0.63507 0.17351 -0.75271
vn 0.88663 0.28655 -0.36300
vn 0.57110 0.22922 -0.78823
vn 0.82382 0.37845 -0.42202
vn 0.91146 0.41139 -0.00014
vn 0.95438 0.29859 -0.00004
vn 0.98105 -0.19377 -0.00008
vn 0.96246 -0.27141 -0.00003
vn 0.85285 -0.24555 -0.46082
vn 0.88270 -0.18124 -0.43359
vn 0.56988 -0.14960 -0.80799
vn 0.60002 -0.10499 -0.79307
vn 0.03863 0.09508 -0.99472
vn 0.36369 -0.03234 -0.93096
vn 0.38288 -0.00543 -0.92378
vn -0.30922 0.26570 -0.91312
vn -0.28219 0.25602 -0.92456
vn -0.47698 0.38067 -0.79220
vn -0.51113 0.38428 -0.76881
vn -0.57951 0.36863 -0.72683
vn -0.36873 0.26831 -0.88997
vn -0.73387 0.53887 -0.41359
vn -0.79392 0.49426 -0.35411
vn -0.90625 0.29761 -0.30023
vn -0.68966 0.22853 -0.68712
vn -0.46923 0.17245 -0.86608
vn -0.95267 -0.10853 -0.28398
vn -0.73000 -0.08496 -0.67815
vn -0.50824 -0.06188 -0.85899
vn -0.78626 -0.53455 -0.30992
vn -0.59307 -0.40396 -0.69648
vn -0.39762 -0.29673 -0.86824
vn -0.53954 -0.75480 -0.37307
vn -0.39269 -0.54971 -0.73730
vn -0.24057 -0.38939 -0.88910
vn -0.40749 -0.79981 -0.44074
vn -0.27287 -0.55942 -0.78268
vn 0.11471 -0.15066 -0.98191
vn -0.23298 -0.53616 -0.81133
vn 0.10418 -0.10464 -0.98904
vn 0.49413 0.30717 -0.81332
vn 0.08254 -0.06833 -0.99424
vn 0.43074 0.36262 -0.82642
vn 0.64738 0.57881 -0.49586
vn 0.73060 0.49785 -0.46731
vn 0.74834 0.66332 0.00033
vn 0.83068 0.55675 0.00009
vn 0.93642 -0.35087 0.00009
vn 0.88136 -0.47245 0.00013
vn 0.76779 -0.40991 -0.49242
vn 0.82145 -0.30800 -0.47995
vn 0.49321 -0.25051 -0.83306
vn 0.53770 -0.18992 -0.82147
vn 0.01729 0.04519 -0.99883
vn 0.02845 0.06656 -0.99738
vn -0.43465 0.34740 -0.83090
vn -0.44865 0.35076 -0.82200
vn -0.45813 0.37175 -0.80741
vn -0.68390 0.53044 -0.50092
vn -0.69021 0.54297 -0.47832
vn -0.70734 0.54297 -0.45261
vn -0.78090 0.62466 -0.00003
vn -0.78754 0.61627 0.00006
vn -0.79511 0.60647 -0.00018
vn -0.78423 0.62047 0.00001
vn 0.80794 -0.58926 0.00013
vn 0.71230 -0.70188 0.00003
vn 0.61709 -0.60814 -0.49936
vn 0.70111 -0.51128 -0.49703
vn 0.38405 -0.38485 -0.83929
vn 0.44467 -0.31823 -0.83726
vn -0.02309 -0.00354 -0.99973
vn 0.00177 0.02240 -0.99975
vn -0.42115 0.35909 -0.83288
vn -0.42384 0.35338 -0.83396
vn -0.65032 0.55315 -0.52068
vn -0.65886 0.54053 -0.52320
vn -0.67214 0.52999 -0.51705
vn -0.72372 0.59312 -0.35277
vn -0.78222 0.62300 -0.00000
vn -0.71609 0.60437 -0.34922
vn 0.56228 -0.82695 0.00005
vn 0.41410 -0.91023 -0.00000
vn 0.36669 -0.80140 -0.47254
vn 0.49041 -0.71979 -0.49133
vn 0.22196 -0.52825 -0.81956
vn 0.30215 -0.46278 -0.83339
vn -0.09186 -0.05309 -0.99436
vn -0.05536 -0.03041 -0.99800
vn -0.43491 0.38090 -0.81594
vn -0.42442 0.36896 -0.82689
vn -0.64930 0.58207 -0.48950
vn -0.64711 0.56729 -0.50935
vn -0.75176 0.65944 -0.00008
vn -0.75718 0.65321 -0.00000
vn -0.65295 0.60235 -0.45916
vn -0.74518 0.66687 0.00016
vn -0.63622 0.65425 -0.40888
vn -0.71245 0.70172 0.00094
vn -0.44973 0.40277 -0.79719
vn -0.45165 0.45894 -0.76510
vn -0.36684 0.57385 -0.73221
vn -0.49840 0.79115 -0.35452
vn -0.12908 -0.06410 -0.98956
vn -0.31130 0.27722 -0.90898
vn -0.26570 0.36752 -0.89125
vn -0.09901 0.44728 -0.88890
vn -0.12340 0.68117 -0.72165
vn -0.01946 -0.38602 -0.92228
vn 0.01533 -0.37748 -0.92589
vn 0.09348 -0.61888 -0.77990
vn 0.03644 -0.65072 -0.75844
vn -0.02192 -0.66424 -0.74720
vn -0.03454 -0.36824 -0.92909
vn -0.08501 -0.65094 -0.75435
vn -0.03630 -0.35136 -0.93554
vn 0.08675 -0.92711 -0.36460
vn -0.01306 -0.94494 -0.32699
vn -0.12698 -0.93662 -0.32653
vn -0.24167 -0.89907 -0.36506
vn -0.14447 -0.61697 -0.77361
vn -0.01958 -0.99981 0.00013
vn -0.12899 -0.99165 0.00012
vn -0.25249 -0.96760 0.00002
vn -0.39558 -0.91843 0.00002
vn -0.36336 -0.83776 -0.40758
vn -0.53920 -0.84218 0.00001
vn -0.67704 -0.73595 0.00003
vn -0.59937 -0.64763 -0.47045
vn -0.48478 -0.75546 -0.44076
vn -0.36866 -0.42845 -0.82494
vn -0.29200 -0.51233 -0.80763
vn -0.21255 -0.57313 -0.79142
vn 0.12796 -0.09155 -0.98755
vn -0.07938 -0.34786 -0.93418
vn -0.04666 -0.35203 -0.93482
vn 0.28771 0.33185 -0.89838
vn 0.36267 0.22558 -0.90420
vn 0.53323 0.37710 -0.75727
vn 0.41274 0.54008 -0.73346
vn 0.18794 0.66555 -0.72230
vn 0.12865 0.42696 -0.89507
vn 0.56532 0.75353 -0.33556
vn 0.25084 0.91681 -0.31070
vn -0.16086 0.93320 -0.32135
vn 0.26478 0.96431 -0.00011
vn -0.18113 0.98346 -0.00026
vn -0.55013 0.83508 0.00041
vn 0.29045 -0.95689 -0.00003
vn 0.18311 -0.98309 0.00000
vn 0.17362 -0.89596 -0.40880
vn 0.26410 -0.85553 -0.44533
vn 0.15373 -0.57802 -0.80141
vn 0.08402 -0.99646 0.00007
vn -0.79563 -0.60578 -0.00000
vn -0.88178 -0.47166 -0.00000
vn -0.75983 -0.40515 -0.50843
vn -0.69346 -0.52465 -0.49383
vn -0.47055 -0.26769 -0.84079
vn -0.42619 -0.34439 -0.83651
vn 0.03648 -0.04669 -0.99824
vn 0.05570 -0.06717 -0.99619
vn 0.08457 -0.08211 -0.99303
vn 0.52701 0.17699 -0.83122
vn 0.54156 0.19896 -0.81678
vn 0.56302 0.25164 -0.78720
vn 0.81441 0.30215 -0.49542
vn 0.81820 0.35948 -0.44869
vn 0.75385 0.52897 -0.38974
vn 0.92592 0.37771 -0.00091
vn 0.83513 0.55005 -0.00024
vn 0.61544 0.78818 0.00032
vn -0.93513 -0.35431 0.00012
vn -0.96590 -0.25893 -0.00003
vn -0.82784 -0.22244 -0.51497
vn -0.80217 -0.30296 -0.51452
vn -0.52510 -0.13905 -0.83961
vn -0.50549 -0.19538 -0.84042
vn 0.00591 0.01103 -0.99992
vn 0.01712 -0.01377 -0.99976
vn 0.52103 0.15898 -0.83860
vn 0.52239 0.16018 -0.83753
vn 0.52504 0.16395 -0.83514
vn 0.80600 0.25539 -0.53398
vn 0.80300 0.27339 -0.52958
vn 0.80376 0.29037 -0.51929
vn 0.88314 0.30065 -0.36010
vn 0.94213 0.33524 0.00000
vn 0.94311 0.33247 -0.00018
vn 0.88694 0.28211 -0.36571
vn -0.98603 -0.16659 -0.00005
vn -0.99581 -0.09150 -0.00005
vn -0.86100 -0.07974 -0.50231
vn -0.84779 -0.14379 -0.51046
vn -0.55761 -0.04451 -0.82891
vn -0.54126 -0.08771 -0.83627
vn -0.00304 0.04552 -0.99896
vn 0.00080 0.02798 -0.99961
vn 0.53651 0.15542 -0.82946
vn 0.52661 0.15504 -0.83585
vn 0.82437 0.23574 -0.51462
vn 0.81551 0.24001 -0.52663
vn 0.80891 0.24749 -0.53330
vn 0.89528 0.26814 -0.35578
vn 0.89021 0.27487 -0.36327
vn 0.95979 0.28073 -0.00002
vn -0.99951 -0.03128 -0.00002
vn -0.99985 0.01736 -0.00003
vn -0.87983 0.01283 -0.47512
vn -0.87088 -0.02906 -0.49064
vn -0.58595 0.02209 -0.81005
vn -0.57232 -0.00873 -0.81998
vn -0.35125 0.03391 -0.93567
vn -0.00532 0.06399 -0.99794
vn 0.34073 0.11868 -0.93264
vn 0.56334 0.16579 -0.80942
vn 0.54897 0.15960 -0.82046
vn 0.84567 0.23464 -0.47936
vn 0.83470 0.23369 -0.49866
vn 0.96200 0.27304 -0.00001
vn 0.96139 0.27520 -0.00001
vn 0.85698 0.23797 -0.45712
vn 0.96183 0.27365 0.00003
vn 0.87016 0.23729 -0.43188
vn 0.96278 0.27028 0.00008
vn 0.57905 0.17199 -0.79694
vn 0.59857 0.17438 -0.78186
vn 0.63122 0.15153 -0.76065
vn 0.89368 0.20110 -0.40111
vn 0.35194 0.12565 -0.92755
vn 0.36878 0.12980 -0.92041
vn 0.40237 0.12053 -0.90751
vn 0.43930 0.05619 -0.89658
vn 0.67255 0.04984 -0.73837
vn -0.34311 0.11660 -0.93203
vn -0.35453 0.07748 -0.93183
vn -0.60542 0.08455 -0.79140
vn -0.60362 0.14390 -0.78418
vn -0.59325 0.22568 -0.77274
vn -0.32415 0.16388 -0.93170
vn -0.57512 0.31250 -0.75603
vn -0.31115 0.20366 -0.92828
vn -0.89553 0.18228 -0.40595
vn -0.87920 0.29708 -0.37250
vn -0.84023 0.42328 -0.33888
vn -0.76268 0.56316 -0.31808
vn -0.53625 0.40465 -0.74074
vn -0.94527 0.32630 0.00012
vn -0.89145 0.45312 0.00001
vn -0.80450 0.59396 -0.00005
vn -0.67978 0.73342 0.00006
vn -0.64321 0.69596 -0.31926
vn -0.53110 0.84731 -0.00003
vn -0.37845 0.92562 -0.00003
vn -0.34599 0.85716 -0.38155
vn -0.49639 0.79700 -0.34407
vn -0.25785 0.56470 -0.78398
vn -0.35825 0.53567 -0.76466
vn -0.46073 0.48457 -0.74358
vn -0.22472 0.28076 -0.93310
vn -0.27655 0.27094 -0.92202
vn -0.30633 0.24257 -0.92050
vn 0.40216 -0.23138 -0.88585
vn 0.26426 -0.38555 -0.88404
vn 0.40917 -0.57995 -0.70444
vn 0.61286 -0.36311 -0.70182
vn 0.68410 -0.13279 -0.71720
vn 0.44647 -0.06703 -0.89228
vn 0.82108 -0.49173 -0.28988
vn 0.93075 -0.18394 -0.31601
vn 0.93020 0.06349 -0.36151
vn 0.98395 -0.17845 0.00039
vn 0.99622 0.08686 -0.00013
vn 0.97289 0.23126 -0.00036
vn -0.99798 0.06351 -0.00002
vn -0.99283 0.11951 -0.00003
vn -0.89566 0.10152 -0.43299
vn -0.88834 0.05203 -0.45623
vn -0.59785 0.04977 -0.80006
vn -0.35671 0.05409 -0.93265
vn -0.97855 0.20599 -0.00001
vn -0.24036 0.97068 -0.00003
vn -0.12434 0.99224 0.00001
vn -0.10813 0.88764 -0.44766
vn -0.21471 0.88280 -0.41782
vn -0.09979 0.58641 -0.80385
vn -0.17227 0.58141 -0.79517
vn -0.09908 0.33860 -0.93570
vn -0.14138 0.32174 -0.93621
vn -0.18087 0.29602 -0.93790
vn -0.05233 -0.43061 -0.90102
vn -0.13086 -0.39487 -0.90937
vn -0.16361 -0.61958 -0.76769
vn -0.04363 -0.66641 -0.74430
vn 0.15153 -0.67711 -0.72011
vn 0.08111 -0.44456 -0.89207
vn -0.05636 -0.92996 -0.36332
vn 0.21361 -0.92312 -0.31972
vn 0.55112 -0.78041 -0.29536
vn 0.21300 -0.97705 -0.00037
vn 0.57167 -0.82049 -0.00008
vn 0.85865 -0.51256 0.00014
vn -0.03892 0.99924 0.00003
vn 0.02437 0.99970 -0.00006
vn 0.02331 0.87041 -0.49178
vn -0.03073 0.88116 -0.47182
vn 0.00349 0.56719 -0.82358
vn -0.03933 0.58128 -0.81276
vn -0.08095 0.00736 -0.99669
vn -0.10711 0.00273 -0.99424
vn -0.19937 -0.53144 -0.82330
vn -0.20517 -0.55163 -0.80846
vn -0.20609 -0.57760 -0.78988
vn -0.15836 -0.35868 -0.91993
vn -0.29202 -0.82338 -0.48659
vn -0.28107 -0.84533 -0.45434
vn -0.22406 -0.88330 -0.41179
vn -0.32699 -0.94503 -0.00015
vn -0.26333 -0.96471 0.00022
vn -0.08080 -0.99673 0.00018
vn -0.34401 -0.93897 0.00012
vn 0.11712 0.99312 -0.00010
vn 0.21748 0.97606 -0.00014
vn 0.18705 0.83431 -0.51860
vn 0.10240 0.85515 -0.50817
vn 0.11169 0.52875 -0.84140
vn 0.05532 0.54788 -0.83473
vn -0.03855 0.00580 -0.99924
vn -0.06132 0.00838 -0.99808
vn -0.19996 -0.50152 -0.84172
vn -0.20005 -0.51328 -0.83458
vn -0.30531 -0.78438 -0.53994
vn -0.29961 -0.79403 -0.52891
vn -0.29434 -0.80760 -0.51103
vn -0.33355 -0.87022 -0.36257
vn -0.35048 -0.93657 0.00001
vn -0.33908 -0.86375 -0.37278
vn 0.33227 0.94318 -0.00008
vn 0.47442 0.88030 0.00011
vn 0.40354 0.74958 -0.52467
vn 0.28322 0.80232 -0.52542
vn 0.25760 0.46479 -0.84712
vn 0.17692 0.50249 -0.84629
vn 0.02203 -0.01906 -0.99958
vn -0.01083 -0.00288 -0.99994
vn -0.20249 -0.49677 -0.84393
vn -0.20096 -0.49551 -0.84503
vn -0.32224 -0.77658 -0.54137
vn -0.31372 -0.77792 -0.54445
vn -0.35334 -0.85828 -0.37215
vn -0.34664 -0.85924 -0.37623
vn -0.33536 -0.77874 -0.53019
vn -0.36347 -0.85916 -0.36017
vn -0.35249 -0.78458 -0.51008
vn -0.40136 -0.91592 0.00007
vn -0.20876 -0.50436 -0.83788
vn -0.22114 -0.51684 -0.82703
vn -0.36907 -0.79375 -0.48348
vn 0.05705 -0.04355 -0.99742
vn 0.35240 0.41042 -0.84105
vn 0.54109 0.66331 -0.51696
vn 0.63221 0.77480 0.00022
vn -0.43387 -0.90097 -0.00087
vn -0.41123 -0.91153 0.00008
vn -0.55630 -0.83098 -0.00034
vn -0.83698 0.54723 -0.00062
vn -0.94519 0.32651 -0.00042
vn -0.99356 -0.11329 -0.00002
vn -0.81604 -0.57799 0.00061
vn 0.95418 0.09961 0.28217
vn 0.95262 0.00637 0.30411
vn 0.93002 0.20110 0.30761
vn 0.93360 -0.06537 0.35231
vn 0.90958 -0.11986 0.39786
vn 0.66401 -0.02220 0.74739
vn 0.63114 -0.06383 0.77304
vn 0.69171 0.02443 0.72176
vn 0.40334 0.04768 0.91381
vn 0.39786 0.02813 0.91702
vn 0.40513 0.03686 0.91351
vn 0.90508 0.09442 0.41462
vn 0.68068 0.12075 0.72256
vn 0.40603 0.03124 0.91332
vn 0.63469 0.17403 0.75292
vn 0.39265 0.05717 0.91791
vn 0.88640 0.28705 0.36318
vn 0.82326 0.38018 0.42155
vn 0.57059 0.23128 0.78800
vn 0.88276 -0.18109 0.43353
vn 0.85279 -0.24571 0.46084
vn 0.60006 -0.10454 0.79309
vn 0.56982 -0.14959 0.80804
vn 0.36373 -0.03179 0.93096
vn 0.03869 0.09522 0.99470
vn 0.38291 -0.00498 0.92377
vn -0.51097 0.38540 0.76836
vn -0.47682 0.38159 0.79185
vn -0.28184 0.25743 0.92428
vn -0.30923 0.26423 0.91354
vn -0.36966 0.26879 0.88944
vn -0.57984 0.36876 0.72650
vn -0.79321 0.49575 0.35361
vn -0.73313 0.54082 0.41236
vn -0.69011 0.22860 0.68665
vn -0.90605 0.29735 0.30108
vn -0.47129 0.17604 0.86423
vn -0.72992 -0.08446 0.67830
vn -0.95267 -0.10870 0.28392
vn -0.50809 -0.05966 0.85923
vn -0.59268 -0.40389 0.69685
vn -0.78685 -0.53459 0.30835
vn -0.39587 -0.29169 0.87075
vn -0.39281 -0.55024 0.73684
vn -0.53810 -0.75755 0.36956
vn -0.24260 -0.38187 0.89181
vn -0.27229 -0.56108 0.78169
vn -0.40496 -0.80266 0.43788
vn 0.11388 -0.14920 0.98223
vn 0.10496 -0.10626 0.98878
vn -0.23230 -0.53743 0.81068
vn 0.49411 0.30723 0.81331
vn 0.43075 0.36310 0.82620
vn 0.08275 -0.06863 0.99420
vn 0.73038 0.49819 0.46729
vn 0.64736 0.57886 0.49584
vn 0.82150 -0.30789 0.47995
vn 0.76782 -0.41005 0.49225
vn 0.53783 -0.19000 0.82136
vn 0.49344 -0.25100 0.83277
vn 0.02850 0.06631 0.99739
vn 0.01743 0.04500 0.99883
vn -0.44852 0.35108 0.82193
vn -0.43460 0.34749 0.83089
vn -0.45805 0.37197 0.80736
vn -0.69014 0.54313 0.47824
vn -0.68378 0.53076 0.50074
vn -0.70738 0.54304 0.45246
vn 0.70114 -0.51133 0.49694
vn 0.61719 -0.60820 0.49917
vn 0.44489 -0.31848 0.83705
vn 0.38435 -0.38507 0.83904
vn 0.00195 0.02221 0.99975
vn -0.02296 -0.00367 0.99973
vn -0.42379 0.35326 0.83403
vn -0.42121 0.35905 0.83287
vn -0.65886 0.54049 0.52323
vn -0.65037 0.55311 0.52067
vn -0.67215 0.53000 0.51703
vn -0.72371 0.59312 0.35277
vn -0.71613 0.60433 0.34922
vn 0.49022 -0.71981 0.49149
vn 0.36679 -0.80132 0.47260
vn 0.30200 -0.46278 0.83345
vn 0.22201 -0.52816 0.81961
vn -0.05517 -0.03040 0.99801
vn -0.09198 -0.05313 0.99434
vn -0.42400 0.36911 0.82703
vn -0.43437 0.38112 0.81613
vn -0.64686 0.56747 0.50947
vn -0.64880 0.58241 0.48975
vn -0.65337 0.60228 0.45866
vn -0.63451 0.65511 0.41015
vn -0.44981 0.40297 0.79705
vn -0.45152 0.45904 0.76512
vn -0.49597 0.79167 0.35677
vn -0.36506 0.57284 0.73388
vn -0.31190 0.27777 0.90861
vn -0.12824 -0.06385 0.98969
vn -0.26678 0.36594 0.89158
vn -0.12171 0.68051 0.72256
vn -0.09705 0.44624 0.88964
vn 0.03451 -0.65014 0.75903
vn 0.09212 -0.61882 0.78011
vn 0.01488 -0.37748 0.92590
vn -0.02056 -0.38545 0.92250
vn -0.03536 -0.36839 0.92900
vn -0.02320 -0.66396 0.74740
vn -0.03590 -0.35179 0.93539
vn -0.08562 -0.65149 0.75381
vn -0.01400 -0.94474 0.32753
vn 0.08560 -0.92697 0.36524
vn -0.12764 -0.93670 0.32603
vn -0.14593 -0.61724 0.77312
vn -0.24298 -0.89905 0.36423
vn -0.36358 -0.83771 0.40749
vn -0.48487 -0.75544 0.44068
vn -0.59942 -0.64758 0.47047
vn -0.29172 -0.51246 0.80764
vn -0.36864 -0.42845 0.82495
vn -0.21270 -0.57323 0.79131
vn -0.07921 -0.34804 0.93413
vn 0.12902 -0.09179 0.98739
vn -0.04682 -0.35180 0.93490
vn 0.41493 0.53982 0.73241
vn 0.53517 0.37666 0.75612
vn 0.36700 0.22450 0.90272
vn 0.28770 0.33111 0.89866
vn 0.12762 0.42655 0.89542
vn 0.18783 0.66579 0.72211
vn 0.25138 0.91693 0.30993
vn 0.56641 0.75341 0.33400
vn -0.16097 0.93306 0.32169
vn 0.26371 -0.85563 0.44537
vn 0.17259 -0.89601 0.40911
vn 0.15339 -0.57805 0.80146
vn -0.69323 -0.52475 0.49404
vn -0.75993 -0.40509 0.50833
vn -0.42573 -0.34444 0.83673
vn -0.47057 -0.26770 0.84077
vn 0.05635 -0.06738 0.99614
vn 0.03658 -0.04671 0.99824
vn 0.08396 -0.08175 0.99311
vn 0.54222 0.19842 0.81647
vn 0.52762 0.17658 0.83093
vn 0.56289 0.25137 0.78738
vn 0.81877 0.35826 0.44862
vn 0.81552 0.30086 0.49438
vn 0.75388 0.52904 0.38960
vn -0.80215 -0.30296 0.51456
vn -0.82788 -0.22247 0.51489
vn -0.50561 -0.19539 0.84034
vn -0.52515 -0.13907 0.83957
vn 0.01706 -0.01377 0.99976
vn 0.00596 0.01106 0.99992
vn 0.52243 0.16017 0.83750
vn 0.52110 0.15904 0.83855
vn 0.52506 0.16392 0.83513
vn 0.80304 0.27331 0.52955
vn 0.80603 0.25538 0.53394
vn 0.80392 0.29017 0.51915
vn 0.88318 0.30054 0.36009
vn 0.88693 0.28214 0.36572
vn -0.84778 -0.14375 0.51049
vn -0.86099 -0.07978 0.50232
vn -0.54115 -0.08757 0.83636
vn -0.55753 -0.04447 0.82896
vn 0.00086 0.02802 0.99961
vn -0.00298 0.04561 0.99896
vn 0.52661 0.15498 0.83586
vn 0.53651 0.15555 0.82943
vn 0.81551 0.24000 0.52664
vn 0.82434 0.23592 0.51459
vn 0.80892 0.24750 0.53328
vn 0.89022 0.27484 0.36328
vn 0.89527 0.26819 0.35577
vn -0.87087 -0.02896 0.49066
vn -0.87982 0.01283 0.47513
vn -0.57229 -0.00858 0.82001
vn -0.58590 0.02218 0.81008
vn -0.00529 0.06404 0.99793
vn -0.35120 0.03404 0.93568
vn 0.54897 0.15958 0.82047
vn 0.56334 0.16543 0.80950
vn 0.34076 0.11881 0.93261
vn 0.83470 0.23364 0.49868
vn 0.84570 0.23425 0.47950
vn 0.85701 0.23787 0.45711
vn 0.87020 0.23679 0.43208
vn 0.57911 0.17191 0.79692
vn 0.59864 0.17462 0.78175
vn 0.89366 0.20028 0.40157
vn 0.63061 0.15007 0.76145
vn 0.36909 0.13071 0.92016
vn 0.35197 0.12562 0.92754
vn 0.40187 0.12000 0.90780
vn 0.67229 0.04863 0.73869
vn 0.43786 0.05403 0.89742
vn -0.60337 0.14424 0.78431
vn -0.60535 0.08466 0.79145
vn -0.35471 0.07701 0.93180
vn -0.34300 0.11659 0.93207
vn -0.32413 0.16412 0.93167
vn -0.59345 0.22567 0.77259
vn -0.31065 0.20359 0.92847
vn -0.57521 0.31213 0.75611
vn -0.87921 0.29713 0.37244
vn -0.89539 0.18263 0.40610
vn -0.84047 0.42293 0.33874
vn -0.53585 0.40483 0.74093
vn -0.76265 0.56315 0.31816
vn -0.64333 0.69570 0.31958
vn -0.49617 0.79715 0.34405
vn -0.34605 0.85719 0.38140
vn -0.35807 0.53628 0.76432
vn -0.25765 0.56491 0.78389
vn -0.46063 0.48513 0.74328
vn -0.27651 0.27279 0.92148
vn -0.22479 0.28196 0.93272
vn -0.30574 0.24285 0.92062
vn 0.61263 -0.36290 0.70213
vn 0.40899 -0.58035 0.70422
vn 0.26395 -0.38758 0.88324
vn 0.40253 -0.23088 0.88581
vn 0.44696 -0.06754 0.89200
vn 0.68459 -0.13248 0.71678
vn 0.93066 -0.18430 0.31607
vn 0.82062 -0.49215 0.29045
vn 0.93041 0.06316 0.36103
vn -0.88831 0.05219 0.45627
vn -0.89558 0.10183 0.43308
vn -0.59779 0.04986 0.80010
vn -0.35673 0.05400 0.93265
vn -0.21476 0.88275 0.41789
vn -0.10804 0.88767 0.44762
vn -0.17215 0.58148 0.79514
vn -0.09989 0.58638 0.80385
vn -0.14108 0.32215 0.93612
vn -0.09939 0.33841 0.93573
vn -0.18040 0.29626 0.93792
vn -0.04560 -0.66773 0.74300
vn -0.16550 -0.62049 0.76655
vn -0.13413 -0.39629 0.90828
vn -0.05325 -0.43052 0.90101
vn 0.08211 -0.44622 0.89115
vn 0.15169 -0.67795 0.71928
vn 0.21247 -0.92356 0.31921
vn -0.05765 -0.93054 0.36162
vn 0.55113 -0.78020 0.29586
vn -0.03080 0.88115 0.47183
vn 0.02336 0.87039 0.49181
vn -0.03917 0.58134 0.81271
vn 0.00334 0.56706 0.82367
vn -0.10697 0.00278 0.99426
vn -0.08118 0.00724 0.99667
vn -0.20595 -0.55172 0.80820
vn -0.19975 -0.53151 0.82316
vn -0.15952 -0.35909 0.91957
vn -0.20626 -0.57761 0.78983
vn -0.28097 -0.84527 0.45451
vn -0.29234 -0.82342 0.48633
vn -0.22402 -0.88343 0.41155
vn 0.10224 0.85511 0.50826
vn 0.18704 0.83430 0.51862
vn 0.05493 0.54765 0.83490
vn 0.11153 0.52856 0.84154
vn -0.06142 0.00826 0.99808
vn -0.03872 0.00565 0.99923
vn -0.19997 -0.51332 0.83458
vn -0.20017 -0.50157 0.84164
vn -0.29964 -0.79403 0.52889
vn -0.30539 -0.78438 0.53990
vn -0.29452 -0.80761 0.51091
vn -0.33366 -0.87019 0.36254
vn -0.33901 -0.86378 0.37278
vn 0.28315 0.80226 0.52555
vn 0.40353 0.74949 0.52481
vn 0.17673 0.50221 0.84649
vn 0.25758 0.46480 0.84712
vn -0.01090 -0.00302 0.99994
vn 0.02202 -0.01919 0.99957
vn -0.20095 -0.49553 0.84503
vn -0.20258 -0.49684 0.84387
vn -0.31371 -0.77792 0.54445
vn -0.32231 -0.77652 0.54142
vn -0.34663 -0.85924 0.37623
vn -0.35328 -0.85831 0.37215
vn -0.36365 -0.85907 0.36021
vn -0.33539 -0.77873 0.53018
vn -0.35302 -0.78423 0.51025
vn -0.20877 -0.50440 0.83785
vn -0.22117 -0.51688 0.82699
vn -0.36947 -0.79359 0.48344
vn 0.05697 -0.04320 0.99744
vn 0.35227 0.41138 0.84064
vn 0.54093 0.66364 0.51671
f 318//1 1//2 2//3 3//4
f 318//1 3//4 5//5 4//6
f 6//7 7//8 8//9 9//10
f 6//7 9//10 2//3 1//2
f 9//10 8//9 10//11 11//12
f 9//10 11//12 12//13 2//3
f 12//13 11//12 13//14 14//15
f 12//13 14//15 15//16 16//16
f 12//13 16//17 3//4 2//3
f 16//16 15//16 17//18 18//19
f 16//17 18//19 5//5 3//4
f 18//19 17//18 19//20 20//21
f 18//19 20//21 21//22 5//5
f 21//22 20//21 22//23 23//24
f 21//22 23//24 24//25 25//26
f 21//22 25//26 4//6 5//5
f 27//27 26//28 28//29 29//30
f 27//27 29//30 8//9 7//8
f 29//30 28//29 30//31 31//32
f 29//30 31//32 10//11 8//9
f 31//32 30//31 32//33 33//34
f 31//32 33//34 34//35 10//11
f 34//36 33//37 35//38 36//39
f 34//36 36//39 37//40 13//41
f 34//35 13//14 11//12 10//11
f 37//40 36//39 38//42 39//43
f 37//40 39//43 40//44 41//45
f 37//40 41//45 14//46 13//41
f 41//45 40//44 42//47 43//48
f 41//45 43//48 15//49 14//46
f 43//48 42//47 44//50 45//51
f 43//48 45//51 17//52 15//49
f 45//51 44//50 46//53 47//54
f 45//51 47//54 19//55 17//52
f 47//54 46//53 48//56 49//57
f 47//54 49//57 50//58 19//55
f 50//58 49//57 51//59 52//60
f 50//58 52//60 53//61 22//23
f 50//58 22//23 20//21 19//20
f 53//61 52//60 54//62 55//63
f 53//61 55//63 56//64 57//65
f 53//61 57//65 23//24 22//23
f 57//65 56//64 319//66 320//67
f 57//65 320//67 24//25 23//24
f 64//68 63//69 65//70 66//71
f 64//68 66//71 28//29 26//28
f 66//71 65//70 67//72 68//73
f 66//71 68//73 30//31 28//29
f 68//73 67//72 69//74 70//75
f 68//73 70//75 32//33 30//31
f 70//75 69//74 71//76 72//77
f 70//75 72//77 73//78 32//33
f 73//78 72//77 74//79 75//80
f 73//78 75//80 76//81 35//38
f 73//78 35//38 33//37 32//33
f 76//81 75//80 77//82 62//83
f 76//81 62//83 61//84 38//42
f 76//81 38//42 36//39 35//38
f 77//82 75//80 74//79 321//85
f 80//86 79//87 81//88 82//89
f 80//86 82//89 65//70 63//69
f 82//89 81//88 83//90 84//91
f 82//89 84//91 67//72 65//70
f 84//91 83//90 85//92 86//93
f 84//91 86//93 69//74 67//72
f 86//93 85//92 87//94 88//95
f 86//93 88//95 71//76 69//74
f 88//95 87//94 89//96 90//97
f 88//95 90//97 91//98 71//76
f 91//98 90//97 92//99 78//100
f 91//98 78//100 321//85 74//79
f 91//98 74//79 72//77 71//76
f 92//99 90//97 89//96 322//101
f 94//102 323//103 95//104 96//105
f 94//102 96//105 81//88 79//87
f 96//105 95//104 97//106 98//107
f 96//105 98//107 83//90 81//88
f 98//107 97//106 99//108 100//109
f 98//107 100//109 85//92 83//90
f 100//109 99//108 101//110 102//111
f 100//109 102//111 87//94 85//92
f 102//111 101//110 103//112 104//113
f 102//111 104//113 89//96 87//94
f 104//113 103//112 324//114 93//115
f 104//113 93//115 322//101 89//96
f 324//114 103//112 106//116 105//117
f 106//116 107//118 108//119 105//117
f 106//116 103//112 101//110 109//120
f 106//116 109//120 110//121 107//118
f 110//121 111//122 112//123 107//118
f 110//121 109//120 113//124 114//125
f 110//121 114//125 115//126 111//122
f 115//126 116//127 117//128 111//122
f 115//129 114//130 118//131 119//132
f 115//129 119//132 120//133 116//134
f 120//133 121//135 122//136 116//134
f 120//133 119//132 123//137 124//138
f 120//133 124//138 125//139 121//135
f 125//139 126//140 127//141 121//135
f 125//139 124//138 128//142 325//143
f 125//139 325//143 326//144 126//140
f 326//144 129//145 130//146 126//140
f 131//147 132//148 133//149 134//150
f 131//147 134//150 130//146 129//145
f 134//150 133//149 135//151 136//152
f 134//150 136//152 137//153 130//146
f 137//153 136//152 138//154 139//155
f 137//153 139//155 140//156 127//141
f 137//153 127//141 126//140 130//146
f 140//157 139//158 141//159 142//160
f 140//157 142//160 143//161 122//162
f 140//156 122//136 121//135 127//141
f 143//161 142//160 144//163 145//164
f 143//161 145//164 146//165 117//128
f 143//161 117//128 116//127 122//162
f 146//165 145//164 147//166 148//167
f 146//165 148//167 149//168 112//123
f 146//165 112//123 111//122 117//128
f 149//168 108//119 107//118 112//123
f 328//169 327//170 150//171 151//172
f 328//169 151//172 95//104 323//103
f 151//172 150//171 118//131 152//173
f 151//172 152//173 97//106 95//104
f 152//173 118//131 114//130 113//124
f 152//173 113//124 99//108 97//106
f 150//171 123//137 119//132 118//131
f 150//171 327//170 329//174 123//137
f 329//174 128//142 124//138 123//137
f 153//175 330//176 154//177 155//178
f 153//175 155//178 133//149 132//148
f 155//178 154//177 156//179 157//180
f 155//178 157//180 135//151 133//149
f 157//180 156//179 158//181 159//182
f 157//180 159//182 160//183 135//151
f 160//183 159//182 161//184 162//185
f 160//183 162//185 163//186 138//154
f 160//183 138//154 136//152 135//151
f 163//186 162//185 164//187 165//188
f 163//186 165//188 166//189 141//159
f 163//186 141//159 139//158 138//154
f 166//189 165//188 331//190 167//191
f 166//189 167//191 332//192 144//163
f 166//189 144//163 142//160 141//159
f 332//192 147//166 145//164 144//163
f 334//193 333//194 168//195 169//196
f 334//193 169//196 154//177 330//176
f 169//196 168//195 170//197 171//198
f 169//196 171//198 156//179 154//177
f 171//198 170//197 172//199 173//200
f 171//198 173//200 158//181 156//179
f 173//200 172//199 174//201 175//202
f 173//200 175//202 176//203 158//181
f 176//203 175//202 177//204 178//205
f 176//203 178//205 179//206 161//184
f 176//203 161//184 159//182 158//181
f 179//206 178//205 180//207 335//208
f 179//206 335//208 336//209 164//187
f 179//206 164//187 162//185 161//184
f 180//207 178//205 177//204 181//210
f 338//211 337//212 182//213 183//214
f 338//211 183//214 168//195 333//194
f 183//214 182//213 184//215 185//216
f 183//214 185//216 170//197 168//195
f 185//216 184//215 186//217 187//218
f 185//216 187//218 172//199 170//197
f 187//218 186//217 188//219 189//220
f 187//218 189//220 174//201 172//199
f 189//220 188//219 190//221 191//222
f 189//220 191//222 192//223 174//201
f 192//223 191//222 339//224 340//225
f 192//223 340//225 181//210 177//204
f 192//223 177//204 175//202 174//201
f 339//224 191//222 190//221 341//226
f 342//227 194//228 195//229 196//230
f 342//227 196//230 182//213 337//212
f 196//230 195//229 197//231 198//232
f 196//230 198//232 184//215 182//213
f 198//232 197//231 199//233 200//234
f 198//232 200//234 186//217 184//215
f 200//234 199//235 201//236 202//237
f 200//234 202//237 188//219 186//217
f 202//237 201//236 203//238 204//239
f 202//237 204//239 190//221 188//219
f 204//239 203//238 205//240 193//241
f 204//239 193//241 341//226 190//221
f 205//240 203//238 207//242 206//243
f 207//242 208//244 209//245 206//243
f 207//242 203//238 201//236 210//246
f 207//242 210//246 211//247 208//244
f 211//247 212//248 213//249 208//244
f 211//247 210//246 214//250 215//251
f 211//247 215//251 216//252 212//248
f 216//252 217//253 218//254 212//248
f 216//255 215//256 219//257 220//258
f 216//255 220//258 221//259 217//260
f 221//259 222//261 223//262 217//260
f 221//259 220//258 224//263 225//264
f 221//259 225//264 226//265 222//261
f 226//265 227//266 228//267 222//261
f 226//265 225//264 343//268 229//269
f 226//265 229//269 230//270 227//266
f 230//270 231//271 232//272 227//266
f 233//273 344//274 234//275 235//276
f 233//273 235//276 232//272 231//271
f 235//276 234//275 236//277 237//278
f 235//276 237//278 238//279 232//272
f 238//279 237//278 239//280 240//281
f 238//279 240//281 241//282 228//267
f 238//279 228//267 227//266 232//272
f 241//283 240//284 242//285 243//286
f 241//283 243//286 244//287 223//288
f 241//282 223//262 222//261 228//267
f 244//287 243//286 245//289 246//290
f 244//287 246//290 247//291 218//254
f 244//287 218//254 217//253 223//288
f 247//291 246//290 248//292 345//293
f 247//291 345//293 249//294 213//249
f 247//291 213//249 212//248 218//254
f 249//294 209//245 208//244 213//249
f 347//295 346//296 250//297 251//298
f 347//295 251//298 195//229 194//228
f 251//298 250//297 219//257 252//299
f 251//298 252//299 197//231 195//229
f 252//299 219//257 215//256 214//300
f 252//299 214//300 199//233 197//231
f 250//297 224//263 220//258 219//257
f 250//297 346//296 348//301 224//263
f 348//301 343//268 225//264 224//263
f 350//302 349//303 253//304 254//305
f 350//302 254//305 234//275 344//274
f 254//305 253//304 255//306 256//307
f 254//305 256//307 236//277 234//275
f 256//307 255//306 257//308 258//309
f 256//307 258//309 259//310 236//277
f 259//311 258//312 260//313 261//314
f 259//311 261//314 262//315 239//316
f 259//310 239//280 237//278 236//277
f 262//315 261//314 263//317 264//318
f 262//315 264//318 265//319 242//285
f 262//315 242//285 240//284 239//316
f 265//319 264//318 351//320 352//321
f 265//319 352//321 353//322 245//289
f 265//319 245//289 243//286 242//285
f 353//322 248//292 246//290 245//289
f 268//323 267//324 269//325 270//326
f 268//323 270//326 253//304 349//303
f 270//326 269//325 271//327 272//328
f 270//326 272//328 255//306 253//304
f 272//328 271//327 273//329 274//330
f 272//328 274//330 257//308 255//306
f 274//330 273//329 275//331 276//332
f 274//330 276//332 277//333 257//334
f 277//333 276//332 278//335 279//336
f 277//333 279//336 280//337 260//313
f 277//333 260//313 258//312 257//334
f 280//337 279//336 355//338 266//339
f 280//337 266//339 354//340 263//317
f 280//337 263//317 261//314 260//313
f 355//338 279//336 278//335 356//341
f 283//342 282//343 284//344 285//345
f 283//342 285//345 269//325 267//324
f 285//345 284//344 286//346 287//347
f 285//345 287//347 271//327 269//325
f 287//347 286//346 288//348 289//349
f 287//347 289//349 273//329 271//327
f 289//349 288//348 290//350 291//351
f 289//349 291//351 275//331 273//329
f 291//351 290//350 292//352 293//353
f 291//351 293//353 294//354 275//331
f 294//354 293//353 295//355 281//356
f 294//354 281//356 356//341 278//335
f 294//354 278//335 276//332 275//331
f 295//355 293//353 292//352 357//357
f 359//358 358//359 297//360 298//361
f 359//358 298//361 284//344 282//343
f 298//361 297//360 299//362 300//363
f 298//361 300//363 286//346 284//344
f 300//363 299//362 301//364 302//365
f 300//363 302//365 288//348 286//346
f 302//365 301//364 303//366 304//367
f 302//365 304//367 290//350 288//348
f 304//367 303//366 305//368 306//369
f 304//367 306//369 292//352 290//350
f 306//369 305//368 307//370 296//371
f 306//369 296//371 357//357 292//352
f 307//370 305//368 309//372 308//373
f 309//372 310//374 360//375 308//373
f 309//372 305//368 303//366 311//376
f 309//372 311//376 312//377 310//374
f 312//377 51//59 313//378 310//374
f 312//377 311//376 314//379 54//62
f 312//377 54//62 52//60 51//59
f 314//379 311//376 303//366 301//364
f 314//379 301//364 299//362 315//380
f 314//379 315//380 55//63 54//62
f 315//380 299//362 297//360 316//381
f 315//380 316//381 56//64 55//63
f 316//381 297//360 358//359 361//382
f 316//381 361//382 319//66 56//64
f 317//383 362//384 313//378 48//56
f 317//383 48//56 46//53 58//385
f 362//384 360//375 310//374 313//378
f 313//378 51//59 49//57 48//56
f 354//340 351//320 264//318 263//317
f 214//250 210//246 201//236 199//235
f 336//209 331//190 165//188 164//187
f 113//124 109//120 101//110 99//108
f 61//84 60//386 39//43 38//42
f 60//386 363//387 40//44 39//43
f 363//387 364//388 42//47 40//44
f 364//388 59//389 44//50 42//47
f 59//389 58//385 46//53 44//50
f 366//390 365//391 1//2 318//1
f 4//6 367//392 366//390 318//1
f 369//393 368//394 7//8 6//7
f 1//2 365//391 369//393 6//7
f 371//395 370//396 368//394 369//393
f 365//391 372//397 371//395 369//393
f 374//398 373//399 371//395 372//397
f 376//400 375//400 374//398 372//397
f 365//391 366//390 376//401 372//397
f 378//402 377//403 375//400 376//400
f 366//390 367//392 378//402 376//401
f 380//404 379//405 377//403 378//402
f 367//392 381//406 380//404 378//402
f 383//407 382//408 380//404 381//406
f 25//26 24//25 383//407 381//406
f 367//392 4//6 25//26 381//406
f 385//409 384//410 26//28 27//27
f 7//8 368//394 385//409 27//27
f 387//411 386//412 384//410 385//409
f 368//394 370//396 387//411 385//409
f 389//413 388//414 386//412 387//411
f 370//396 390//415 389//413 387//411
f 392//416 391//417 389//418 390//419
f 373//420 393//421 392//416 390//419
f 370//396 371//395 373//399 390//415
f 395//422 394//423 392//416 393//421
f 397//424 396//425 395//422 393//421
f 373//420 374//426 397//424 393//421
f 399//427 398//428 396//425 397//424
f 374//426 375//429 399//427 397//424
f 401//430 400//431 398//428 399//427
f 375//429 377//432 401//430 399//427
f 403//433 402//434 400//431 401//430
f 377//432 379//435 403//433 401//430
f 405//436 404//437 402//434 403//433
f 379//435 406//438 405//436 403//433
f 408//439 407//440 405//436 406//438
f 382//408 409//441 408//439 406//438
f 379//405 380//404 382//408 406//438
f 411//442 410//443 408//439 409//441
f 413//444 412//445 411//442 409//441
f 382//408 383//407 413//444 409//441
f 320//67 319//66 412//445 413//444
f 383//407 24//25 320//67 413//444
f 415//446 414//447 63//69 64//68
f 26//28 384//410 415//446 64//68
f 417//448 416//449 414//447 415//446
f 384//410 386//412 417//448 415//446
f 419//450 418//451 416//449 417//448
f 386//412 388//414 419//450 417//448
f 421//452 420//453 418//451 419//450
f 388//414 422//454 421//452 419//450
f 424//455 423//456 421//452 422//454
f 391//417 425//457 424//455 422//454
f 388//414 389//418 391//417 422//454
f 62//83 77//82 424//455 425//457
f 394//423 61//84 62//83 425//457
f 391//417 392//416 394//423 425//457
f 321//85 423//456 424//455 77//82
f 427//458 426//459 79//87 80//86
f 63//69 414//447 427//458 80//86
f 429//460 428//461 426//459 427//458
f 414//447 416//449 429//460 427//458
f 431//462 430//463 428//461 429//460
f 416//449 418//451 431//462 429//460
f 433//464 432//465 430//463 431//462
f 418//451 420//453 433//464 431//462
f 435//466 434//467 432//465 433//464
f 420//453 436//468 435//466 433//464
f 78//100 92//469 435//466 436//468
f 423//456 321//85 78//100 436//468
f 420//453 421//452 423//456 436//468
f 322//470 434//467 435//466 92//469
f 438//471 437//472 323//103 94//102
f 79//87 426//459 438//471 94//102
f 440//473 439//474 437//472 438//471
f 426//459 428//461 440//473 438//471
f 442//475 441//476 439//474 440//473
f 428//461 430//463 442//475 440//473
f 444//477 443//478 441//476 442//475
f 430//463 432//465 444//477 442//475
f 446//479 445//480 443//478 444//477
f 432//465 434//467 446//479 444//477
f 93//115 324//114 445//480 446//479
f 434//467 322//470 93//115 446//479
f 105//117 447//481 445//480 324//114
f 105//117 108//119 448//482 447//481
f 449//483 443//478 445//480 447//481
f 448//482 450//484 449//483 447//481
f 448//482 452//485 451//486 450//484
f 454//487 453//488 449//483 450//484
f 451//486 455//489 454//487 450//484
f 451//486 457//490 456//491 455//489
f 459//492 458//493 454//494 455//495
f 456//496 460//497 459//492 455//495
f 456//496 462//498 461//499 460//497
f 464//500 463//501 459//492 460//497
f 461//499 465//502 464//500 460//497
f 461//499 467//503 466//504 465//502
f 325//143 128//142 464//500 465//502
f 466//504 326//144 325//143 465//502
f 466//504 468//505 129//145 326//144
f 470//506 469//507 132//148 131//147
f 129//145 468//505 470//506 131//147
f 472//508 471//509 469//507 470//506
f 468//505 473//510 472//508 470//506
f 475//511 474//512 472//508 473//510
f 467//503 476//513 475//511 473//510
f 468//505 466//504 467//503 473//510
f 478//514 477//515 475//516 476//517
f 462//518 479//519 478//514 476//517
f 467//503 461//499 462//498 476//513
f 481//520 480//521 478//514 479//519
f 457//490 482//522 481//520 479//519
f 462//518 456//491 457//490 479//519
f 148//167 147//166 481//520 482//522
f 452//485 149//168 148//167 482//522
f 457//490 451//486 452//485 482//522
f 452//485 448//482 108//119 149//168
f 484//523 483//524 327//170 328//169
f 323//103 437//472 484//523 328//169
f 485//525 458//493 483//524 484//523
f 437//472 439//474 485//525 484//523
f 453//488 454//494 458//493 485//525
f 439//474 441//476 453//488 485//525
f 458//493 459//492 463//501 483//524
f 463//501 329//174 327//170 483//524
f 463//501 464//500 128//142 329//174
f 487//526 486//527 330//176 153//175
f 132//148 469//507 487//526 153//175
f 489//528 488//529 486//527 487//526
f 469//507 471//509 489//528 487//526
f 491//530 490//531 488//529 489//528
f 471//509 492//532 491//530 489//528
f 494//533 493//534 491//530 492//532
f 474//512 495//535 494//533 492//532
f 471//509 472//508 474//512 492//532
f 497//536 496//537 494//533 495//535
f 477//515 498//538 497//536 495//535
f 474//512 475//516 477//515 495//535
f 167//191 331//190 497//536 498//538
f 480//521 332//192 167//191 498//538
f 477//515 478//514 480//521 498//538
f 480//521 481//520 147//166 332//192
f 500//539 499//540 333//194 334//193
f 330//176 486//527 500//539 334//193
f 502//541 501//542 499//540 500//539
f 486//527 488//529 502//541 500//539
f 504//543 503//544 501//542 502//541
f 488//529 490//531 504//543 502//541
f 506//545 505//546 503//544 504//543
f 490//531 507//547 506//545 504//543
f 509//548 508//549 506//545 507//547
f 493//534 510//550 509//548 507//547
f 490//531 491//530 493//534 507//547
f 335//208 180//551 509//548 510//550
f 496//537 336//209 335//208 510//550
f 493//534 494//533 496//537 510//550
f 181//552 508//549 509//548 180//551
f 512//553 511//554 337//212 338//211
f 333//194 499//540 512//553 338//211
f 514//555 513//556 511//554 512//553
f 499//540 501//542 514//555 512//553
f 516//557 515//558 513//556 514//555
f 501//542 503//544 516//557 514//555
f 518//559 517//560 515//558 516//557
f 503//544 505//546 518//559 516//557
f 520//561 519//562 517//560 518//559
f 505//546 521//563 520//561 518//559
f 340//564 339//565 520//561 521//563
f 508//549 181//552 340//564 521//563
f 505//546 506//545 508//549 521//563
f 341//226 519//562 520//561 339//565
f 523//566 522//567 194//228 342//227
f 337//212 511//554 523//566 342//227
f 525//568 524//569 522//567 523//566
f 511//554 513//556 525//568 523//566
f 527//570 526//571 524//569 525//568
f 513//556 515//558 527//570 525//568
f 529//572 528//573 526//574 527//570
f 515//558 517//560 529//572 527//570
f 531//575 530//576 528//573 529//572
f 517//560 519//562 531//575 529//572
f 193//241 205//240 530//576 531//575
f 519//562 341//226 193//241 531//575
f 206//243 532//577 530//576 205//240
f 206//243 209//245 533//578 532//577
f 534//579 528//573 530//576 532//577
f 533//578 535//580 534//579 532//577
f 533//578 537//581 536//582 535//580
f 539//583 538//584 534//579 535//580
f 536//582 540//585 539//583 535//580
f 536//582 542//586 541//587 540//585
f 544//588 543//589 539//590 540//591
f 541//592 545//593 544//588 540//591
f 541//592 547//594 546//595 545//593
f 549//596 548//597 544//588 545//593
f 546//595 550//598 549//596 545//593
f 546//595 552//599 551//600 550//598
f 229//269 343//268 549//596 550//598
f 551//600 230//270 229//269 550//598
f 551//600 553//601 231//271 230//270
f 555//602 554//603 344//274 233//273
f 231//271 553//601 555//602 233//273
f 557//604 556//605 554//603 555//602
f 553//601 558//606 557//604 555//602
f 560//607 559//608 557//604 558//606
f 552//599 561//609 560//607 558//606
f 553//601 551//600 552//599 558//606
f 563//610 562//611 560//612 561//613
f 547//614 564//615 563//610 561//613
f 552//599 546//595 547//594 561//609
f 566//616 565//617 563//610 564//615
f 542//586 567//618 566//616 564//615
f 547//614 541//587 542//586 564//615
f 345//293 248//292 566//616 567//618
f 537//581 249//294 345//293 567//618
f 542//586 536//582 537//581 567//618
f 537//581 533//578 209//245 249//294
f 569//619 568//620 346//296 347//295
f 194//228 522//567 569//619 347//295
f 570//621 543//589 568//620 569//619
f 522//567 524//569 570//621 569//619
f 538//622 539//590 543//589 570//621
f 524//569 526//571 538//622 570//621
f 543//589 544//588 548//597 568//620
f 548//597 348//301 346//296 568//620
f 548//597 549//596 343//268 348//301
f 572//623 571//624 349//303 350//302
f 344//274 554//603 572//623 350//302
f 574//625 573//626 571//624 572//623
f 554//603 556//605 574//625 572//623
f 576//627 575//628 573//626 574//625
f 556//605 577//629 576//627 574//625
f 579//630 578//631 576//632 577//633
f 559//634 580//635 579//630 577//633
f 556//605 557//604 559//608 577//629
f 582//636 581//637 579//630 580//635
f 562//611 583//638 582//636 580//635
f 559//634 560//612 562//611 580//635
f 352//321 351//320 582//636 583//638
f 565//617 353//322 352//321 583//638
f 562//611 563//610 565//617 583//638
f 565//617 566//616 248//292 353//322
f 585//639 584//640 267//324 268//323
f 349//303 571//624 585//639 268//323
f 587//641 586//642 584//640 585//639
f 571//624 573//626 587//641 585//639
f 589//643 588//644 586//642 587//641
f 573//626 575//628 589//643 587//641
f 591//645 590//646 588//644 589//643
f 575//647 592//648 591//645 589//643
f 594//649 593//650 591//645 592//648
f 578//631 595//651 594//649 592//648
f 575//647 576//632 578//631 592//648
f 266//339 355//338 594//649 595//651
f 581//637 354//340 266//339 595//651
f 578//631 579//630 581//637 595//651
f 356//341 593//650 594//649 355//338
f 597//652 596//653 282//343 283//342
f 267//324 584//640 597//652 283//342
f 599//654 598//655 596//653 597//652
f 584//640 586//642 599//654 597//652
f 601//656 600//657 598//655 599//654
f 586//642 588//644 601//656 599//654
f 603//658 602//659 600//657 601//656
f 588//644 590//646 603//658 601//656
f 605//660 604//661 602//659 603//658
f 590//646 606//662 605//660 603//658
f 281//356 295//663 605//660 606//662
f 593//650 356//341 281//356 606//662
f 590//646 591//645 593//650 606//662
f 357//664 604//661 605//660 295//663
f 608//665 607//666 358//359 359//358
f 282//343 596//653 608//665 359//358
f 610//667 609//668 607//666 608//665
f 596//653 598//655 610//667 608//665
f 612//669 611//670 609//668 610//667
f 598//655 600//657 612//669 610//667
f 614//671 613//672 611//670 612//669
f 600//657 602//659 614//671 612//669
f 616//673 615//674 613//672 614//671
f 602//659 604//661 616//673 614//671
f 296//675 307//676 615//674 616//673
f 604//661 357//664 296//675 616//673
f 308//677 617//678 615//674 307//676
f 308//677 360//375 618//679 617//678
f 619//680 613//672 615//674 617//678
f 618//679 620//681 619//680 617//678
f 618//679 621//682 407//440 620//681
f 410//443 622//683 619//680 620//681
f 407//440 408//439 410//443 620//681
f 611//670 613//672 619//680 622//683
f 623//684 609//668 611//670 622//683
f 410//443 411//442 623//684 622//683
f 624//685 607//666 609//668 623//684
f 411//442 412//445 624//685 623//684
f 361//382 358//359 607//666 624//685
f 412//445 319//66 361//382 624//685
f 404//437 621//682 362//384 317//383
f 58//385 402//434 404//437 317//383
f 621//682 618//679 360//375 362//384
f 404//437 405//436 407//440 621//682
f 581//637 582//636 351//320 354//340
f 526//574 528//573 534//579 538//584
f 496//537 497//536 331//190 336//209
f 441//476 443//478 449//483 453//488
f 394//423 395//422 60//386 61//84
f 395//422 396//425 363//387 60//386
f 396//425 398//428 364//388 363//387
f 398//428 400//431 59//389 364//388
f 400//431 402//434 58//385 59//389
