# pilowlava3D glyph 'p' variant 1 — Vincent Wagner / Velvetyne, Free Art License
v 0.49837 0.27587 -0.45888
v 0.74699 0.28724 -0.50575
v 0.76056 0.08034 -0.29894
v 0.42004 0.13650 -0.28826
v 0.40382 0.43798 -0.49266
v 0.68628 0.51398 -0.58434
v 0.19084 0.36023 -0.28728
v 1.33353 0.35857 -0.28104
v 1.10518 0.14974 -0.32125
v 1.04697 0.40267 -0.51143
v 1.30728 0.59630 -0.33514
v 0.97083 0.64759 -0.55648
v 1.23654 0.82437 -0.34199
v 0.11754 0.31490 -0.00000
v 0.03818 0.62269 -0.00000
v 0.12903 0.64180 -0.27981
v 0.03282 0.88238 -0.00000
v 0.37383 2.15610 -0.00000
v 0.60216 1.78555 -0.23489
v 0.46887 1.96875 -0.21258
v 0.34489 2.15335 -0.18124
v 0.37000 1.93942 -0.37216
v 0.27126 2.14312 -0.32123
v 0.21567 2.35066 -0.28508
v 0.27382 2.35099 -0.16016
v 0.28792 2.34895 -0.00000
v 0.27965 2.55727 -0.16059
v 0.02475 1.35055 -0.00000
v 0.03018 1.11959 -0.00000
v 0.09839 1.35428 -0.23790
v 0.11423 1.12097 -0.25102
v 0.12556 0.88890 -0.26276
v 0.28539 1.14555 -0.45673
v 0.32115 0.90839 -0.47818
v 0.34918 0.67399 -0.49572
v 0.56581 0.97218 -0.58105
v 0.62782 0.74090 -0.59441
v 0.81783 1.09426 -0.52546
v 0.90123 0.87441 -0.55289
v 1.01283 1.22507 -0.30349
v 1.13751 1.03292 -0.33005
v 1.24677 1.10877 -0.00000
v 0.87465 1.41178 -0.27740
v 0.74026 1.59879 -0.25730
v 0.71355 1.30824 -0.48834
v 0.60284 1.52385 -0.45052
v 0.48596 1.73239 -0.41223
v 0.41902 1.44487 -0.51428
v 0.33931 1.67473 -0.46889
v 0.25690 1.89997 -0.42232
v 0.19318 1.62074 -0.40002
v 0.14246 1.85869 -0.36666
v 0.09471 2.09590 -0.32486
v 0.18126 2.12212 -0.37276
v 0.06219 2.34140 -0.29370
v 0.13972 2.34793 -0.33100
v 0.07657 2.59226 -0.29978
v 0.15536 2.57484 -0.33894
v 0.23184 2.56280 -0.28621
v 0.23300 2.80399 -0.37895
v 0.31618 2.76332 -0.30766
v 0.36368 2.73770 -0.17020
v 0.47418 2.91436 -0.31927
v 0.51038 2.85312 -0.17190
v 0.52115 2.83336 -0.00000
v 0.37860 2.72820 -0.00000
v 0.00375 2.06736 -0.00000
v 0.03342 2.07502 -0.18691
v 0.05428 1.82672 -0.20718
v 0.07626 1.58646 -0.22533
v 0.23932 1.38183 -0.42808
v 0.49760 1.21116 -0.55246
v 0.01959 2.33610 -0.17420
v 0.02554 2.60452 -0.17787
v 0.00456 2.88248 -0.00000
v 0.04091 2.87392 -0.19600
v 0.12526 2.84606 -0.34407
v 0.05785 3.13788 -0.21331
v 0.18132 3.11242 -0.38174
v 0.39821 3.01947 -0.42004
v 0.07962 3.40842 -0.22558
v 0.21112 3.34732 -0.40747
v 0.44684 3.26164 -0.47315
v 0.12779 3.72244 -0.23903
v 0.26662 3.64644 -0.42309
v 0.46156 3.53332 -0.49562
v 0.29117 4.04454 -0.24645
v 0.41469 3.92779 -0.43424
v 0.58714 3.76333 -0.50891
v 0.66617 4.11947 -0.44019
v 0.79022 3.91422 -0.52027
v 0.93527 3.70970 -0.43823
v 0.77193 3.59686 -0.41995
v 0.66832 3.37824 -0.39239
v 1.04520 3.57131 -0.23802
v 0.89777 3.47866 -0.23084
v 0.80525 3.35054 -0.21970
v 0.83694 3.15141 -0.19345
v 0.75980 3.11068 -0.33761
v 0.93695 3.43845 -0.00000
v 0.86151 3.15530 -0.00000
v 1.03268 3.00231 -0.00000
v 1.02141 2.98984 -0.17405
v 1.25586 2.87908 -0.00000
v 1.47469 2.76186 -0.00000
v 1.45255 2.73622 -0.19338
v 1.23965 2.86174 -0.17725
v 1.39964 2.67940 -0.34443
v 1.20244 2.81833 -0.31080
v 0.99338 2.94810 -0.29499
v 1.15001 2.75298 -0.35477
v 0.95622 2.89274 -0.32978
v 0.68179 3.02766 -0.37678
v 1.10182 2.68774 -0.30417
v 0.92636 2.84191 -0.27511
v 0.69283 2.93610 -0.30058
v 1.07156 2.63884 -0.17053
v 0.90509 2.80357 -0.15795
v 0.69476 2.88136 -0.16716
v 0.90021 2.79215 -0.00000
v 0.69667 2.86560 -0.00000
v 1.86710 2.49677 -0.21617
v 1.66135 2.61473 -0.20765
v 1.79868 2.40208 -0.39082
v 1.59695 2.53704 -0.37140
v 1.70584 2.28553 -0.45327
v 1.51999 2.44395 -0.42290
v 1.33397 2.60108 -0.39190
v 1.44701 2.35380 -0.36892
v 1.27307 2.52299 -0.34112
v 1.38739 2.27600 -0.20578
v 1.22935 2.45928 -0.19114
v 1.35629 2.24387 -0.00000
v 1.20699 2.43187 -0.00000
v 1.05881 2.61970 -0.00000
v 2.29771 2.33537 -0.00000
v 2.09856 2.43830 -0.00000
v 2.26730 2.27561 -0.22623
v 2.07130 2.38410 -0.22172
v 2.19972 2.14875 -0.41649
v 2.00174 2.27358 -0.40594
v 2.08514 1.97446 -0.50133
v 1.89452 2.12982 -0.47993
v 1.96292 1.80788 -0.42343
v 1.78653 1.99214 -0.40631
v 1.61563 2.17470 -0.39040
v 1.70622 1.89731 -0.22328
v 1.54547 2.08937 -0.21587
v 1.50684 2.05208 -0.00000
v 2.64606 2.07567 -0.23049
v 2.45941 2.17236 -0.22939
v 2.58391 1.93386 -0.42735
v 2.39261 2.03606 -0.42552
v 2.48607 1.71591 -0.52088
v 2.27974 1.83389 -0.51734
v 2.38541 1.49525 -0.43980
v 2.15877 1.63762 -0.43551
v 2.31554 1.34494 -0.24365
v 2.07153 1.50717 -0.24022
v 1.87373 1.69886 -0.23127
v 2.58832 1.18960 -0.00000
v 3.02887 1.96790 -0.00000
v 2.85574 2.05075 -0.00000
v 3.01128 1.90976 -0.22264
v 2.83014 1.98722 -0.22917
v 2.98041 1.77456 -0.40683
v 2.77859 1.84610 -0.42098
v 2.94441 1.57139 -0.49466
v 2.70612 1.62778 -0.51455
v 2.91753 1.36262 -0.42380
v 2.63881 1.40242 -0.43706
v 2.90657 1.22099 -0.23717
v 2.60152 1.24902 -0.24105
v 2.90366 1.16444 -0.00000
v 3.22177 1.20599 -0.00000
v 3.21838 1.25309 -0.22847
v 3.51747 1.37071 -0.21192
v 3.52429 1.33612 -0.00000
v 3.20874 1.38209 -0.40263
v 3.48625 1.47935 -0.37434
v 3.71611 1.65587 -0.33337
v 3.75888 1.58124 -0.18602
v 3.19655 1.56045 -0.46230
v 3.44415 1.61432 -0.42187
v 3.65910 1.73767 -0.37276
v 3.81779 1.92208 -0.33464
v 3.87434 1.88349 -0.29478
v 3.40639 1.74601 -0.35501
v 3.60017 1.82422 -0.31766
v 3.74962 1.96409 -0.28241
v 3.81433 2.15865 -0.28058
v 3.89128 2.14477 -0.32628
v 3.55382 1.88366 -0.17018
v 3.70294 1.99148 -0.14836
v 3.76070 2.17024 -0.14963
v 3.73067 2.37549 -0.17132
v 3.79935 2.37580 -0.30893
v 3.70717 2.37739 -0.00000
v 3.60388 2.56270 -0.00000
v 3.64172 2.57547 -0.19783
v 3.48705 2.73888 -0.00000
v 3.41078 2.95203 -0.21231
v 3.52919 2.76456 -0.20799
v 3.52065 3.01261 -0.39295
v 3.63068 2.80771 -0.38018
v 3.73055 2.59401 -0.35090
v 3.76495 2.85854 -0.44217
v 3.83852 2.62052 -0.40576
v 3.88710 2.38279 -0.36007
v 3.94460 2.64959 -0.35642
v 3.97414 2.39580 -0.31317
v 3.96176 2.13485 -0.28433
v 4.03554 2.40823 -0.18117
v 4.00549 2.12771 -0.16391
v 3.91769 1.84623 -0.16465
v 3.76793 1.55833 -0.00000
v 3.37471 1.84268 -0.19442
v 3.19231 1.85731 -0.21249
v 3.19173 1.73319 -0.38490
v 3.12065 3.27232 -0.00000
v 3.24222 3.09708 -0.00000
v 3.17186 3.30909 -0.21752
v 3.29347 3.13325 -0.21604
v 3.28442 3.39006 -0.40749
v 3.40596 3.20701 -0.40150
v 3.46179 3.51348 -0.49688
v 3.58163 3.30873 -0.48891
v 3.68079 3.08663 -0.46751
v 3.76552 3.40406 -0.41498
v 3.84622 3.15661 -0.40095
v 3.90082 2.90468 -0.38412
v 3.96384 3.19897 -0.22182
v 4.00452 2.93723 -0.21602
v 4.02959 2.67705 -0.20178
v 4.06163 2.41362 -0.00000
v 3.93988 3.48260 -0.00000
v 2.87938 3.61262 -0.00000
v 2.99960 3.44383 -0.00000
v 2.92574 3.64671 -0.21575
v 3.04922 3.47946 -0.21719
v 3.01938 3.73144 -0.39578
v 3.15739 3.56639 -0.40452
v 3.15152 3.87232 -0.47920
v 3.31921 3.70363 -0.49166
v 3.28035 4.02262 -0.40882
v 3.48354 3.84870 -0.41817
v 3.64552 3.63808 -0.41904
v 3.59099 3.94763 -0.23148
v 3.76781 3.71833 -0.23208
v 3.89030 3.46173 -0.22748
v 3.81477 3.74737 -0.00000
v 3.39371 4.16793 -0.00000
v 2.64517 3.94150 -0.19682
v 2.79308 3.80502 -0.21023
v 2.68423 4.02978 -0.35348
v 2.86307 3.89268 -0.37936
v 2.73836 4.14150 -0.41102
v 2.95522 4.02152 -0.45052
v 2.79195 4.26032 -0.36361
v 3.04539 4.15759 -0.38872
v 2.82884 4.34691 -0.20540
v 3.10561 4.25707 -0.21750
v 3.36250 4.12832 -0.22561
v 3.12822 4.29748 -0.00000
v 2.54393 4.42291 -0.00000
v 2.46153 4.00391 -0.00000
v 2.26083 4.01835 -0.19615
v 2.46730 4.02678 -0.18755
v 2.26276 4.10742 -0.34682
v 2.48355 4.10804 -0.33517
v 2.25829 4.21179 -0.39549
v 2.50261 4.20797 -0.38640
v 2.25331 4.31778 -0.35186
v 2.52199 4.31348 -0.34623
v 2.24982 4.39873 -0.20126
v 2.53793 4.39185 -0.19892
v 1.98328 4.39416 -0.20714
v 1.72829 4.38143 -0.21285
v 1.72281 4.42775 -0.00000
v 1.99693 4.29967 -0.36883
v 1.74886 4.27479 -0.38460
v 1.49834 4.25145 -0.40130
v 1.47417 4.37097 -0.22028
v 2.01454 4.17789 -0.41992
v 1.77693 4.13357 -0.44652
v 1.53616 4.08731 -0.47301
v 1.28787 4.04435 -0.49547
v 1.23891 4.23008 -0.41440
v 1.80595 3.99100 -0.38558
v 1.57629 3.92379 -0.40178
v 1.34952 3.85798 -0.41760
v 1.13023 3.79330 -0.42940
v 1.03531 3.99724 -0.50934
v 1.61339 3.80761 -0.22118
v 1.40543 3.73059 -0.22916
v 1.21404 3.65249 -0.23557
v 1.25008 3.59413 -0.00000
v 1.08220 3.51831 -0.00000
v 0.00801 3.14721 -0.00000
v 0.02086 3.42860 -0.00000
v 0.07294 3.75097 -0.00000
v 0.58548 4.26637 -0.24656
v 0.91100 4.34870 -0.23952
v 0.95830 4.20443 -0.43248
v 1.21054 4.35453 -0.22489
v 1.46815 4.42428 -0.00000
v 2.05629 3.91508 -0.00000
v 1.83002 3.88198 -0.21409
v 2.04796 3.95516 -0.20571
v 2.03354 4.05614 -0.36853
v 0.55975 3.23241 -0.40925
v 1.36209 0.88946 -0.00000
v 1.42618 0.62927 -0.00000
v 1.13802 0.06749 -0.00000
v 1.39761 0.33202 -0.00000
v 0.76250 0.00000 -0.00000
v 0.38892 0.06244 -0.00000
v 0.51152 1.98785 -0.00000
v 0.65424 1.81788 -0.00000
v 0.28999 2.55550 -0.00000
v 0.01585 1.58188 -0.00000
v 1.10207 1.29802 -0.00000
v 0.95033 1.47455 -0.00000
v 0.80180 1.64710 -0.00000
v 0.00000 2.33457 -0.00000
v 0.00949 1.81685 -0.00000
v 0.00137 2.61000 -0.00000
v 0.84476 3.32833 -0.00000
v 1.89426 2.54358 -0.00000
v 1.68774 2.65105 -0.00000
v 1.66110 1.85795 -0.00000
v 2.67551 2.14022 -0.00000
v 2.49008 2.23560 -0.00000
v 2.03313 1.45399 -0.00000
v 1.82977 1.65570 -0.00000
v 2.28711 1.28814 -0.00000
v 3.69592 1.99773 -0.00000
v 3.75056 2.17383 -0.00000
v 3.36375 2.92002 -0.00000
v 4.02124 2.12423 -0.00000
v 3.92891 1.83386 -0.00000
v 3.36958 1.87577 -0.00000
v 3.19699 1.90620 -0.00000
v 3.54276 1.89850 -0.00000
v 4.05334 2.94853 -0.00000
v 4.06683 2.68806 -0.00000
v 4.01305 3.21116 -0.00000
v 3.62982 3.98223 -0.00000
v 2.63136 3.91316 -0.00000
v 2.76094 3.77015 -0.00000
v 2.84290 4.38025 -0.00000
v 2.26001 3.98603 -0.00000
v 2.25061 4.43285 -0.00000
v 1.97890 4.43320 -0.00000
v 1.43500 3.67194 -0.00000
v 0.24886 4.08466 -0.00000
v 0.55893 4.31812 -0.00000
v 0.89630 4.40823 -0.00000
v 1.20171 4.41830 -0.00000
v 1.84331 3.83370 -0.00000
v 1.63472 3.75281 -0.00000
v 0.49837 0.27587 0.45888
v 0.74699 0.28724 0.50575
v 0.76056 0.08034 0.29894
v 0.42004 0.13650 0.28826
v 0.40382 0.43798 0.49266
v 0.68628 0.51398 0.58434
v 0.19084 0.36023 0.28728
v 1.33353 0.35857 0.28104
v 1.10518 0.14974 0.32125
v 1.04697 0.40267 0.51143
v 1.30728 0.59630 0.33514
v 0.97083 0.64759 0.55648
v 1.23654 0.82437 0.34199
v 0.12903 0.64180 0.27981
v 0.60216 1.78555 0.23489
v 0.46887 1.96875 0.21258
v 0.34489 2.15335 0.18124
v 0.37000 1.93942 0.37216
v 0.27126 2.14312 0.32123
v 0.21567 2.35066 0.28508
v 0.27382 2.35099 0.16016
v 0.27965 2.55727 0.16059
v 0.09839 1.35428 0.23790
v 0.11423 1.12097 0.25102
v 0.12556 0.88890 0.26276
v 0.28539 1.14555 0.45673
v 0.32115 0.90839 0.47818
v 0.34918 0.67399 0.49572
v 0.56581 0.97218 0.58105
v 0.62782 0.74090 0.59441
v 0.81783 1.09426 0.52546
v 0.90123 0.87441 0.55289
v 1.01283 1.22507 0.30349
v 1.13751 1.03292 0.33005
v 0.87465 1.41178 0.27740
v 0.74026 1.59879 0.25730
v 0.71355 1.30824 0.48834
v 0.60284 1.52385 0.45052
v 0.48596 1.73239 0.41223
v 0.41902 1.44487 0.51428
v 0.33931 1.67473 0.46889
v 0.25690 1.89997 0.42232
v 0.19318 1.62074 0.40002
v 0.14246 1.85869 0.36666
v 0.09471 2.09590 0.32486
v 0.18126 2.12212 0.37276
v 0.06219 2.34140 0.29370
v 0.13972 2.34793 0.33100
v 0.07657 2.59226 0.29978
v 0.15536 2.57484 0.33894
v 0.23184 2.56280 0.28621
v 0.23300 2.80399 0.37895
v 0.31618 2.76332 0.30766
v 0.36368 2.73770 0.17020
v 0.47418 2.91436 0.31927
v 0.51038 2.85312 0.17190
v 0.03342 2.07502 0.18691
v 0.05428 1.82672 0.20718
v 0.07626 1.58646 0.22533
v 0.23932 1.38183 0.42808
v 0.49760 1.21116 0.55246
v 0.01959 2.33610 0.17420
v 0.02554 2.60452 0.17787
v 0.04091 2.87392 0.19600
v 0.12526 2.84606 0.34407
v 0.05785 3.13788 0.21331
v 0.18132 3.11242 0.38174
v 0.39821 3.01947 0.42004
v 0.07962 3.40842 0.22558
v 0.21112 3.34732 0.40747
v 0.44684 3.26164 0.47315
v 0.12779 3.72244 0.23903
v 0.26662 3.64644 0.42309
v 0.46156 3.53332 0.49562
v 0.29117 4.04454 0.24645
v 0.41469 3.92779 0.43424
v 0.58714 3.76333 0.50891
v 0.66617 4.11947 0.44019
v 0.79022 3.91422 0.52027
v 0.93527 3.70970 0.43823
v 0.77193 3.59686 0.41995
v 0.66832 3.37824 0.39239
v 1.04520 3.57131 0.23802
v 0.89777 3.47866 0.23084
v 0.80525 3.35054 0.21970
v 0.83694 3.15141 0.19345
v 0.75980 3.11068 0.33761
v 1.02141 2.98984 0.17405
v 1.45255 2.73622 0.19338
v 1.23965 2.86174 0.17725
v 1.39964 2.67940 0.34443
v 1.20244 2.81833 0.31080
v 0.99338 2.94810 0.29499
v 1.15001 2.75298 0.35477
v 0.95622 2.89274 0.32978
v 0.68179 3.02766 0.37678
v 1.10182 2.68774 0.30417
v 0.92636 2.84191 0.27511
v 0.69283 2.93610 0.30058
v 1.07156 2.63884 0.17053
v 0.90509 2.80357 0.15795
v 0.69476 2.88136 0.16716
v 1.86710 2.49677 0.21617
v 1.66135 2.61473 0.20765
v 1.79868 2.40208 0.39082
v 1.59695 2.53704 0.37140
v 1.70584 2.28553 0.45327
v 1.51999 2.44395 0.42290
v 1.33397 2.60108 0.39190
v 1.44701 2.35380 0.36892
v 1.27307 2.52299 0.34112
v 1.38739 2.27600 0.20578
v 1.22935 2.45928 0.19114
v 2.26730 2.27561 0.22623
v 2.07130 2.38410 0.22172
v 2.19972 2.14875 0.41649
v 2.00174 2.27358 0.40594
v 2.08514 1.97446 0.50133
v 1.89452 2.12982 0.47993
v 1.96292 1.80788 0.42343
v 1.78653 1.99214 0.40631
v 1.61563 2.17470 0.39040
v 1.70622 1.89731 0.22328
v 1.54547 2.08937 0.21587
v 2.64606 2.07567 0.23049
v 2.45941 2.17236 0.22939
v 2.58391 1.93386 0.42735
v 2.39261 2.03606 0.42552
v 2.48607 1.71591 0.52088
v 2.27974 1.83389 0.51734
v 2.38541 1.49525 0.43980
v 2.15877 1.63762 0.43551
v 2.31554 1.34494 0.24365
v 2.07153 1.50717 0.24022
v 1.87373 1.69886 0.23127
v 3.01128 1.90976 0.22264
v 2.83014 1.98722 0.22917
v 2.98041 1.77456 0.40683
v 2.77859 1.84610 0.42098
v 2.94441 1.57139 0.49466
v 2.70612 1.62778 0.51455
v 2.91753 1.36262 0.42380
v 2.63881 1.40242 0.43706
v 2.90657 1.22099 0.23717
v 2.60152 1.24902 0.24105
v 3.21838 1.25309 0.22847
v 3.51747 1.37071 0.21192
v 3.20874 1.38209 0.40263
v 3.48625 1.47935 0.37434
v 3.71611 1.65587 0.33337
v 3.75888 1.58124 0.18602
v 3.19655 1.56045 0.46230
v 3.44415 1.61432 0.42187
v 3.65910 1.73767 0.37276
v 3.81779 1.92208 0.33464
v 3.87434 1.88349 0.29478
v 3.40639 1.74601 0.35501
v 3.60017 1.82422 0.31766
v 3.74962 1.96409 0.28241
v 3.81433 2.15865 0.28058
v 3.89128 2.14477 0.32628
v 3.55382 1.88366 0.17018
v 3.70294 1.99148 0.14836
v 3.76070 2.17024 0.14963
v 3.73067 2.37549 0.17132
v 3.79935 2.37580 0.30893
v 3.64172 2.57547 0.19783
v 3.41078 2.95203 0.21231
v 3.52919 2.76456 0.20799
v 3.52065 3.01261 0.39295
v 3.63068 2.80771 0.38018
v 3.73055 2.59401 0.35090
v 3.76495 2.85854 0.44217
v 3.83852 2.62052 0.40576
v 3.88710 2.38279 0.36007
v 3.94460 2.64959 0.35642
v 3.97414 2.39580 0.31317
v 3.96176 2.13485 0.28433
v 4.03554 2.40823 0.18117
v 4.00549 2.12771 0.16391
v 3.91769 1.84623 0.16465
v 3.37471 1.84268 0.19442
v 3.19231 1.85731 0.21249
v 3.19173 1.73319 0.38490
v 3.17186 3.30909 0.21752
v 3.29347 3.13325 0.21604
v 3.28442 3.39006 0.40749
v 3.40596 3.20701 0.40150
v 3.46179 3.51348 0.49688
v 3.58163 3.30873 0.48891
v 3.68079 3.08663 0.46751
v 3.76552 3.40406 0.41498
v 3.84622 3.15661 0.40095
v 3.90082 2.90468 0.38412
v 3.96384 3.19897 0.22182
v 4.00452 2.93723 0.21602
v 4.02959 2.67705 0.20178
v 2.92574 3.64671 0.21575
v 3.04922 3.47946 0.21719
v 3.01938 3.73144 0.39578
v 3.15739 3.56639 0.40452
v 3.15152 3.87232 0.47920
v 3.31921 3.70363 0.49166
v 3.28035 4.02262 0.40882
v 3.48354 3.84870 0.41817
v 3.64552 3.63808 0.41904
v 3.59099 3.94763 0.23148
v 3.76781 3.71833 0.23208
v 3.89030 3.46173 0.22748
v 2.64517 3.94150 0.19682
v 2.79308 3.80502 0.21023
v 2.68423 4.02978 0.35348
v 2.86307 3.89268 0.37936
v 2.73836 4.14150 0.41102
v 2.95522 4.02152 0.45052
v 2.79195 4.26032 0.36361
v 3.04539 4.15759 0.38872
v 2.82884 4.34691 0.20540
v 3.10561 4.25707 0.21750
v 3.36250 4.12832 0.22561
v 2.26083 4.01835 0.19615
v 2.46730 4.02678 0.18755
v 2.26276 4.10742 0.34682
v 2.48355 4.10804 0.33517
v 2.25829 4.21179 0.39549
v 2.50261 4.20797 0.38640
v 2.25331 4.31778 0.35186
v 2.52199 4.31348 0.34623
v 2.24982 4.39873 0.20126
v 2.53793 4.39185 0.19892
v 1.98328 4.39416 0.20714
v 1.72829 4.38143 0.21285
v 1.99693 4.29967 0.36883
v 1.74886 4.27479 0.38460
v 1.49834 4.25145 0.40130
v 1.47417 4.37097 0.22028
v 2.01454 4.17789 0.41992
v 1.77693 4.13357 0.44652
v 1.53616 4.08731 0.47301
v 1.28787 4.04435 0.49547
v 1.23891 4.23008 0.41440
v 1.80595 3.99100 0.38558
v 1.57629 3.92379 0.40178
v 1.34952 3.85798 0.41760
v 1.13023 3.79330 0.42940
v 1.03531 3.99724 0.50934
v 1.61339 3.80761 0.22118
v 1.40543 3.73059 0.22916
v 1.21404 3.65249 0.23557
v 0.58548 4.26637 0.24656
v 0.91100 4.34870 0.23952
v 0.95830 4.20443 0.43248
v 1.21054 4.35453 0.22489
v 1.83002 3.88198 0.21409
v 2.04796 3.95516 0.20571
v 2.03354 4.05614 0.36853
v 0.55975 3.23241 0.40925
vn -0.28929 -0.53752 -0.79208
vn -0.00449 -0.49745 -0.86748
vn 0.01191 -0.85809 -0.51336
vn -0.39625 -0.76763 -0.50372
vn -0.43919 -0.27774 -0.85438
vn -0.05981 -0.16168 -0.98503
vn -0.74552 -0.41259 -0.52342
vn 0.52018 -0.26071 -0.81329
vn 0.42349 -0.70182 -0.57281
vn 0.35753 -0.27199 -0.89342
vn 0.78839 0.00993 -0.61510
vn 0.34901 0.03206 -0.93657
vn 0.73927 0.25982 -0.62127
vn 0.86644 0.33569 -0.36958
vn 0.99306 0.11757 -0.00278
vn 0.70571 -0.70850 -0.00109
vn 0.46410 -0.88578 -0.00053
vn 0.68660 -0.68802 -0.23495
vn 0.99965 -0.02560 -0.00626
vn 0.95822 -0.03300 -0.28411
vn 0.00554 -0.99998 -0.00004
vn -0.44834 -0.89386 -0.00061
vn -0.86734 -0.49772 -0.00107
vn -0.99299 -0.11818 -0.00066
vn -0.84491 -0.09464 -0.52648
vn 0.78804 0.61563 -0.00024
vn 0.77645 0.63018 0.00033
vn 0.70980 0.56712 -0.41779
vn 0.74112 0.56654 -0.36025
vn 0.83294 0.46238 -0.30400
vn 0.86832 0.49601 -0.00035
vn 0.51895 0.43972 -0.73303
vn 0.61966 0.37909 -0.68725
vn 0.73528 0.12621 -0.66591
vn 0.95131 0.16341 -0.26135
vn 0.98312 0.18297 0.00004
vn 0.94362 -0.23524 -0.23292
vn 0.97180 -0.23579 0.00013
vn -0.99958 -0.02896 -0.00007
vn -0.99886 -0.04780 -0.00007
vn -0.88944 -0.05261 -0.45402
vn -0.87308 -0.03407 -0.48639
vn -0.85976 -0.01315 -0.51052
vn -0.99991 -0.01345 -0.00018
vn -0.60605 -0.01390 -0.79530
vn -0.57208 -0.00704 -0.82017
vn -0.52563 -0.06468 -0.84825
vn -0.12532 0.08480 -0.98849
vn -0.10800 0.00987 -0.99410
vn 0.35659 0.29781 -0.88552
vn 0.34134 0.19687 -0.91909
vn 0.65846 0.50715 -0.55609
vn 0.68783 0.41213 -0.59753
vn 0.73497 0.57798 -0.35463
vn 0.78860 0.49005 -0.37143
vn 0.77271 0.63476 -0.00007
vn 0.66977 0.53829 -0.51152
vn 0.69105 0.55250 -0.46605
vn 0.77455 0.63251 0.00011
vn 0.39500 0.35197 -0.84858
vn 0.43132 0.38734 -0.81482
vn 0.46570 0.41624 -0.78094
vn -0.11692 0.15120 -0.98156
vn 0.24650 0.29258 -0.92392
vn 0.30452 0.32711 -0.89458
vn -0.45666 0.03865 -0.88880
vn -0.43816 0.02599 -0.89852
vn -0.65636 -0.02259 -0.75411
vn -0.69187 -0.01753 -0.72181
vn -0.72877 -0.00377 -0.68475
vn -0.47059 0.05573 -0.88059
vn 0.40458 0.30507 -0.86212
vn -0.45376 0.03161 -0.89056
vn 0.50935 0.10226 -0.85446
vn -0.41700 -0.02528 -0.90856
vn 0.53271 -0.18372 -0.82612
vn 0.74598 -0.21587 -0.63001
vn 0.46595 -0.39472 -0.79189
vn 0.62069 -0.49674 -0.60662
vn 0.75896 -0.60483 -0.24116
vn 0.33560 -0.71725 -0.61067
vn 0.39105 -0.88286 -0.26009
vn 0.39801 -0.91738 -0.00037
vn 0.77237 -0.63517 -0.00008
vn -0.99886 -0.04778 0.00017
vn -0.99928 -0.03785 -0.00012
vn -0.95569 -0.05075 -0.28997
vn -0.93265 -0.06022 -0.35573
vn -0.90897 -0.06183 -0.41225
vn -0.99852 -0.05441 0.00014
vn -0.63236 -0.01912 -0.77444
vn -0.12445 0.12328 -0.98454
vn -0.99996 -0.00870 -0.00004
vn -0.96798 -0.01049 -0.25079
vn -0.92950 -0.01255 -0.36860
vn -0.99978 0.02079 0.00011
vn -0.96066 0.03126 -0.27595
vn -0.91322 0.04086 -0.40542
vn -0.99954 0.03025 0.00001
vn -0.93702 0.04411 -0.34647
vn -0.86405 0.05633 -0.50024
vn -0.91255 0.04711 -0.40624
vn -0.57509 -0.01773 -0.81790
vn -0.32858 -0.05215 -0.94304
vn 0.06685 -0.31065 -0.94817
vn -0.89639 0.08717 -0.43460
vn -0.57149 0.00007 -0.82061
vn 0.03095 -0.11604 -0.99276
vn -0.85055 0.26545 -0.45398
vn -0.54475 0.13584 -0.82752
vn 0.01750 -0.07123 -0.99731
vn -0.68090 0.56487 -0.46615
vn -0.43042 0.33147 -0.83956
vn -0.02412 -0.05043 -0.99844
vn -0.24280 0.49780 -0.83261
vn 0.00340 -0.01006 -0.99994
vn 0.25882 -0.49930 -0.82687
vn 0.37267 -0.42557 -0.82462
vn 0.52283 -0.14677 -0.83971
vn 0.41190 -0.78233 -0.46722
vn 0.59224 -0.66396 -0.45652
vn 0.87690 -0.22523 -0.42465
vn 0.82791 0.44743 -0.33818
vn 0.55981 0.28171 -0.77927
vn 0.65550 -0.75520 -0.00065
vn 0.78441 -0.62024 -0.00085
vn 0.99309 0.11738 0.00123
vn 0.66556 0.74634 -0.00004
vn 0.58320 0.81233 0.00001
vn 0.56164 0.78419 -0.26383
vn 0.49003 0.87170 0.00003
vn 0.48159 0.87640 -0.00005
vn 0.46708 0.82659 -0.31399
vn 0.47731 0.83660 -0.26885
vn 0.32410 0.62302 -0.71190
vn 0.33937 0.64790 -0.68195
vn 0.41909 0.57632 -0.70158
vn 0.18079 0.43026 -0.88442
vn 0.25857 0.34241 -0.90327
vn 0.19349 -0.26590 -0.94438
vn -0.32394 -0.54581 -0.77276
vn -0.44175 -0.35387 -0.82440
vn -0.58295 -0.51097 -0.63173
vn -0.42374 -0.68856 -0.58850
vn -0.06163 -0.80592 -0.58881
vn -0.71561 -0.64824 -0.26014
vn -0.52490 -0.81894 -0.23197
vn -0.09145 -0.96565 -0.24323
vn -0.54578 -0.83793 0.00000
vn -0.09044 -0.99590 -0.00013
vn 0.47662 0.87911 0.00003
vn 0.47192 0.88164 0.00005
vn 0.43959 0.80361 -0.40123
vn 0.45446 0.81299 -0.36403
vn 0.29728 0.56930 -0.76650
vn 0.31149 0.58857 -0.74603
vn 0.16135 0.36309 -0.91767
vn 0.16345 0.37771 -0.91139
vn 0.16517 0.40981 -0.89709
vn -0.40468 -0.26932 -0.87390
vn -0.36696 -0.24668 -0.89693
vn -0.53929 -0.42144 -0.72907
vn -0.56863 -0.44622 -0.69105
vn -0.71986 -0.59484 -0.35772
vn -0.72864 -0.60936 -0.31266
vn -0.77609 -0.63063 -0.00003
vn -0.77344 -0.63387 -0.00001
vn -0.74772 -0.66402 0.00001
vn 0.46855 0.88344 -0.00004
vn 0.46712 0.88420 -0.00001
vn 0.42281 0.78824 -0.44712
vn 0.43080 0.79485 -0.42735
vn 0.28532 0.54131 -0.79094
vn 0.29271 0.55319 -0.77994
vn 0.16592 0.34037 -0.92554
vn 0.16636 0.35040 -0.92171
vn -0.31979 -0.23341 -0.91829
vn -0.28280 -0.23440 -0.93010
vn -0.45601 -0.40823 -0.79082
vn -0.49897 -0.39985 -0.76886
vn -0.52085 -0.40663 -0.75058
vn -0.34455 -0.23723 -0.90830
vn -0.70217 -0.58162 -0.41071
vn -0.71325 -0.58345 -0.38841
vn -0.77305 -0.63435 -0.00002
vn -0.77766 -0.62868 -0.00001
vn 0.46151 0.88714 -0.00001
vn 0.44889 0.89359 0.00002
vn 0.39790 0.79301 -0.46131
vn 0.41190 0.78750 -0.45846
vn 0.27042 0.53554 -0.80004
vn 0.27644 0.53527 -0.79816
vn 0.16900 0.32925 -0.92900
vn 0.16453 0.33213 -0.92877
vn -0.21964 -0.25668 -0.94121
vn -0.13884 -0.28744 -0.94768
vn -0.24903 -0.50867 -0.82416
vn -0.37045 -0.45000 -0.81257
vn -0.39027 -0.79964 -0.45635
vn -0.56258 -0.69382 -0.44958
vn -0.66354 -0.61167 -0.43078
vn -0.63035 -0.77631 0.00007
vn -0.73682 -0.67609 0.00002
vn -0.43615 -0.89988 0.00010
vn 0.42828 0.90364 -0.00008
vn 0.36770 0.92995 0.00022
vn 0.32185 0.84134 -0.43422
vn 0.37677 0.80722 -0.45435
vn 0.22768 0.58179 -0.78082
vn 0.25949 0.54913 -0.79443
vn 0.16349 0.37071 -0.91424
vn 0.17174 0.34168 -0.92399
vn -0.04805 -0.31249 -0.94871
vn 0.04989 -0.32199 -0.94543
vn 0.03250 -0.58271 -0.81203
vn -0.10967 -0.55949 -0.82155
vn 0.01513 -0.90385 -0.42758
vn -0.18245 -0.87625 -0.44597
vn 0.01788 -0.99984 0.00003
vn -0.19994 -0.97981 -0.00000
vn 0.23680 -0.88425 -0.40253
vn 0.25490 -0.96697 -0.00000
vn 0.50658 -0.78332 -0.36026
vn 0.53542 -0.84459 -0.00012
vn 0.19094 -0.56663 -0.80154
vn 0.38361 -0.49801 -0.77771
vn 0.56811 -0.38891 -0.72526
vn 0.74433 -0.59647 -0.30033
vn 0.15182 -0.30253 -0.94097
vn 0.26864 -0.25070 -0.93005
vn 0.38611 -0.19411 -0.90180
vn 0.46982 -0.15382 -0.86926
vn 0.69164 -0.27681 -0.66710
vn -0.16080 0.46822 -0.86886
vn 0.01276 0.45510 -0.89035
vn -0.02532 0.67887 -0.73382
vn -0.27761 0.66749 -0.69093
vn -0.59141 0.45180 -0.66792
vn -0.39250 0.32719 -0.85959
vn -0.74748 0.05103 -0.66232
vn -0.51103 0.02411 -0.85922
vn -0.37722 0.88075 -0.28632
vn -0.78040 0.57399 -0.24800
vn -0.96711 0.06902 -0.24483
vn -0.91187 -0.29648 -0.28390
vn -0.69427 -0.24704 -0.67599
vn -0.80169 0.59774 -0.00003
vn -0.99807 0.06212 -0.00000
vn -0.94687 -0.32161 0.00040
vn -0.86809 -0.49641 0.00023
vn -0.82310 -0.45567 -0.33894
vn -0.83944 -0.54345 -0.00017
vn -0.83279 -0.55359 0.00003
vn -0.76223 -0.49492 -0.41720
vn -0.78125 -0.49050 -0.38607
vn -0.53213 -0.34881 -0.77147
vn -0.55494 -0.35838 -0.75073
vn -0.60520 -0.35562 -0.71223
vn -0.34068 -0.24879 -0.90667
vn -0.38860 -0.27132 -0.88056
vn -0.46767 -0.20662 -0.85941
vn 0.47602 -0.10086 -0.87363
vn 0.43756 -0.05213 -0.89768
vn 0.68905 -0.00647 -0.72468
vn 0.72935 -0.07812 -0.67967
vn 0.74109 -0.16946 -0.64967
vn 0.49502 -0.12607 -0.85969
vn 0.95813 -0.05680 -0.28064
vn 0.94891 -0.20564 -0.23935
vn 0.88585 -0.39213 -0.24801
vn 0.97681 -0.21411 0.00021
vn 0.91395 -0.40583 0.00007
vn 0.77526 -0.63165 -0.00002
vn 0.22783 0.97370 -0.00009
vn -0.01664 0.99986 0.00014
vn -0.03964 0.93623 -0.34916
vn 0.19156 0.89596 -0.40071
vn 0.13852 0.63258 -0.76201
vn 0.11333 0.41354 -0.90340
vn -0.37341 0.92767 0.00047
vn -0.82613 -0.56348 -0.00001
vn -0.81797 -0.57526 -0.00000
vn -0.73439 -0.51666 -0.44015
vn -0.74574 -0.50456 -0.43508
vn -0.50679 -0.35607 -0.78510
vn -0.51550 -0.35441 -0.78016
vn -0.31629 -0.22140 -0.92247
vn -0.31848 -0.23060 -0.91945
vn -0.32534 -0.23003 -0.91719
vn 0.36076 0.04434 -0.93160
vn 0.32621 0.10179 -0.93980
vn 0.56483 0.20015 -0.80057
vn 0.61060 0.11358 -0.78375
vn 0.64669 0.05450 -0.76080
vn 0.39358 0.00351 -0.91929
vn 0.89542 0.19038 -0.40246
vn 0.91944 0.10528 -0.37889
vn 0.94076 0.03584 -0.33719
vn 0.99403 0.10915 -0.00003
vn 0.99950 0.03159 -0.00010
vn 0.99784 -0.06566 0.00010
vn -0.81226 -0.58329 -0.00001
vn -0.79776 -0.60298 0.00024
vn -0.71787 -0.55680 -0.41789
vn -0.72837 -0.52880 -0.43571
vn -0.50163 -0.38980 -0.77228
vn -0.50257 -0.36387 -0.78423
vn -0.32528 -0.23818 -0.91513
vn -0.31655 -0.22174 -0.92229
vn 0.22208 0.23736 -0.94570
vn 0.15604 0.30473 -0.93957
vn 0.30651 0.51711 -0.79915
vn 0.40891 0.41471 -0.81290
vn 0.49657 0.30707 -0.81187
vn 0.27819 0.17347 -0.94473
vn 0.64110 0.63784 -0.42679
vn 0.76885 0.47359 -0.42963
vn 0.85143 0.31560 -0.41889
vn 0.85152 0.52433 0.00005
vn 0.93815 0.34622 -0.00002
vn 0.97841 0.20668 -0.00002
vn 0.70821 0.70601 0.00004
vn -0.75082 -0.66050 -0.00018
vn -0.59208 -0.80588 -0.00030
vn -0.54294 -0.76401 -0.34858
vn -0.68247 -0.62157 -0.38456
vn -0.39545 -0.54278 -0.74095
vn -0.48984 -0.43711 -0.75432
vn -0.27597 -0.33638 -0.90038
vn -0.33299 -0.26388 -0.90525
vn 0.08364 0.35491 -0.93115
vn 0.02773 0.36497 -0.93060
vn 0.11708 0.63603 -0.76273
vn 0.20654 0.59237 -0.77874
vn 0.20762 0.91393 -0.34875
vn 0.34075 0.85851 -0.38320
vn 0.48515 0.77211 -0.41046
vn 0.36627 0.93051 0.00005
vn 0.53187 0.84683 -0.00003
vn 0.21798 0.97595 0.00011
vn -0.20093 -0.97960 0.00026
vn 0.19013 -0.98176 -0.00004
vn 0.17003 -0.92606 -0.33691
vn -0.18808 -0.92359 -0.33409
vn 0.12794 -0.66302 -0.73759
vn -0.13675 -0.65898 -0.73962
vn 0.09784 -0.41563 -0.90425
vn -0.09160 -0.41918 -0.90327
vn 0.02013 0.36306 -0.93155
vn 0.03443 0.37600 -0.92598
vn 0.02018 0.66484 -0.74671
vn 0.05206 0.65769 -0.75149
vn 0.00775 0.94417 -0.32936
vn 0.08325 0.94170 -0.32600
vn 0.01181 0.99993 -0.00002
vn 0.08749 0.99617 0.00006
vn -0.02466 0.93600 -0.35114
vn -0.01960 0.99981 -0.00003
vn -0.03264 0.92572 -0.37680
vn -0.02866 0.99959 0.00001
vn 0.00032 0.66127 -0.75015
vn -0.00663 0.65342 -0.75697
vn -0.00942 0.64668 -0.76270
vn -0.03404 0.91612 -0.39945
vn 0.02991 0.39201 -0.91947
vn 0.02343 0.40123 -0.91568
vn 0.01803 0.40394 -0.91461
vn 0.00763 0.38945 -0.92102
vn -0.00986 0.63265 -0.77437
vn 0.16189 -0.35386 -0.92118
vn 0.17018 -0.35861 -0.91784
vn 0.23476 -0.60192 -0.76327
vn 0.23131 -0.58936 -0.77405
vn 0.22150 -0.56613 -0.79400
vn 0.14227 -0.33891 -0.93000
vn 0.23250 -0.52755 -0.81709
vn 0.05720 0.02329 -0.99809
vn 0.31786 -0.85261 -0.41475
vn 0.32868 -0.83497 -0.44135
vn 0.35632 -0.81188 -0.46248
vn 0.37646 -0.92643 0.00007
vn 0.40566 -0.91403 0.00005
vn 0.46396 -0.88586 -0.00018
vn -0.99901 0.04439 -0.00013
vn -0.99460 0.10379 -0.00004
vn -0.95140 0.30797 0.00023
vn -0.76470 0.64438 0.00017
vn -0.43403 0.90090 0.00012
vn -0.38588 0.80127 -0.45723
vn -0.13567 0.99075 0.00005
vn -0.11865 0.89213 -0.43591
vn -0.07003 0.59278 -0.80232
vn -0.02796 0.90855 -0.41684
vn -0.02988 0.99955 -0.00010
vn -0.03200 0.99949 -0.00004
vn 0.32590 -0.94541 -0.00012
vn 0.34410 -0.93893 -0.00005
vn 0.31166 -0.86651 -0.38992
vn 0.29656 -0.88358 -0.36241
vn 0.22430 -0.62057 -0.75139
vn 0.16417 -0.37316 -0.91313
vn 0.35638 -0.93434 -0.00003
vn 0.34547 -0.10301 -0.93276
vn -0.39360 -0.76596 0.50832
vn 0.01255 -0.85771 0.51399
vn -0.00426 -0.49910 0.86653
vn -0.28645 -0.53618 0.79402
vn -0.06058 -0.16420 0.98456
vn -0.43505 -0.28010 0.85573
vn -0.74210 -0.41393 0.52721
vn 0.80215 0.00989 0.59704
vn 0.37867 -0.27859 0.88261
vn 0.43983 -0.70487 0.55651
vn 0.81809 -0.15480 0.55387
vn 0.73962 0.25994 0.62080
vn 0.35070 0.03249 0.93592
vn 0.86612 0.33538 0.37062
vn 0.68566 -0.68968 0.23283
vn -0.84497 -0.09555 0.52621
vn 0.74190 0.56479 0.36137
vn 0.71037 0.56600 0.41835
vn 0.83322 0.46183 0.30407
vn 0.62007 0.37579 0.68869
vn 0.51969 0.43630 0.73455
vn 0.95149 0.16331 0.26077
vn 0.73486 0.12668 0.66628
vn 0.94377 -0.23505 0.23249
vn -0.87339 -0.03266 0.48593
vn -0.88949 -0.05180 0.45401
vn -0.86010 -0.01359 0.50995
vn -0.57293 -0.00591 0.81959
vn -0.60649 -0.01254 0.79499
vn -0.52566 -0.06444 0.84825
vn -0.10829 0.01021 0.99407
vn -0.12602 0.08682 0.98822
vn 0.34213 0.19556 0.91908
vn 0.35674 0.29829 0.88530
vn 0.68857 0.41101 0.59745
vn 0.65927 0.50633 0.55588
vn 0.78887 0.48963 0.37141
vn 0.73592 0.57690 0.35441
vn 0.66923 0.53882 0.51167
vn 0.69103 0.55238 0.46620
vn 0.43202 0.38560 0.81527
vn 0.39433 0.35282 0.84854
vn 0.46548 0.41631 0.78104
vn 0.24640 0.29301 0.92382
vn -0.11604 0.14904 0.98200
vn 0.30408 0.32585 0.89519
vn -0.69218 -0.01542 0.72156
vn -0.65640 -0.02187 0.75410
vn -0.43818 0.02618 0.89851
vn -0.45668 0.03746 0.88884
vn -0.46963 0.05553 0.88112
vn -0.72816 -0.00119 0.68541
vn 0.40414 0.30040 0.86396
vn -0.45315 0.03308 0.89082
vn 0.50782 0.10124 0.85549
vn -0.41624 -0.02987 0.90876
vn 0.74617 -0.21621 0.62967
vn 0.53240 -0.18410 0.82623
vn 0.62066 -0.49481 0.60823
vn 0.46605 -0.39329 0.79254
vn 0.75934 -0.60378 0.24262
vn 0.39125 -0.88211 0.26231
vn 0.33549 -0.71493 0.61345
vn -0.93285 -0.05745 0.35565
vn -0.95574 -0.04786 0.29030
vn -0.90894 -0.06142 0.41238
vn -0.63214 -0.01929 0.77462
vn -0.12465 0.12393 0.98443
vn -0.96802 -0.00960 0.25070
vn -0.92958 -0.01006 0.36849
vn -0.96078 0.03338 0.27531
vn -0.91360 0.04606 0.40399
vn -0.93737 0.04380 0.34557
vn -0.86497 0.05749 0.49852
vn -0.57490 -0.01330 0.81811
vn -0.91299 0.04499 0.40549
vn -0.32361 -0.04329 0.94520
vn 0.08148 -0.27766 0.95722
vn -0.57069 0.00016 0.82117
vn -0.89638 0.08715 0.43464
vn 0.04833 -0.08878 0.99488
vn -0.54268 0.13659 0.82876
vn -0.85047 0.26512 0.45433
vn 0.01946 -0.07991 0.99661
vn -0.43068 0.33212 0.83917
vn -0.68095 0.56496 0.46597
vn -0.02410 -0.05137 0.99839
vn 0.00425 -0.01114 0.99993
vn -0.24305 0.49831 0.83224
vn 0.37013 -0.42319 0.82699
vn 0.25971 -0.50052 0.82585
vn 0.52419 -0.15676 0.83705
vn 0.59070 -0.66246 0.46067
vn 0.41164 -0.78248 0.46721
vn 0.87760 -0.22306 0.42433
vn 0.56618 0.27743 0.77619
vn 0.83152 0.44566 0.33160
vn 0.56318 0.78370 0.26200
vn 0.47827 0.83606 0.26881
vn 0.46707 0.82671 0.31367
vn 0.34044 0.64734 0.68194
vn 0.32427 0.62321 0.71166
vn 0.41831 0.57769 0.70092
vn 0.25298 0.34460 0.90402
vn 0.18135 0.42991 0.88447
vn 0.20698 -0.24064 0.94829
vn -0.42565 -0.68830 0.58742
vn -0.58356 -0.51088 0.63123
vn -0.44357 -0.35342 0.82361
vn -0.32694 -0.54597 0.77138
vn -0.06162 -0.80627 0.58832
vn -0.52571 -0.81847 0.23181
vn -0.71528 -0.64860 0.26017
vn -0.09164 -0.96554 0.24358
vn 0.45383 0.81334 0.36402
vn 0.43978 0.80346 0.40130
vn 0.31084 0.58899 0.74597
vn 0.29737 0.56923 0.76652
vn 0.16315 0.37792 0.91135
vn 0.16134 0.36312 0.91767
vn 0.16545 0.40978 0.89706
vn -0.56830 -0.44658 0.69109
vn -0.54021 -0.42061 0.72888
vn -0.36794 -0.24586 0.89675
vn -0.40413 -0.26979 0.87401
vn -0.72838 -0.60970 0.31261
vn -0.72031 -0.59437 0.35759
vn 0.43076 0.79487 0.42734
vn 0.42296 0.78809 0.44723
vn 0.29265 0.55317 0.77997
vn 0.28540 0.54118 0.79099
vn 0.16633 0.35038 0.92172
vn 0.16594 0.34044 0.92551
vn -0.49949 -0.39918 0.76887
vn -0.45646 -0.40805 0.79066
vn -0.28335 -0.23393 0.93005
vn -0.32011 -0.23293 0.91830
vn -0.34467 -0.23717 0.90827
vn -0.52091 -0.40656 0.75057
vn -0.71319 -0.58351 0.38842
vn -0.70257 -0.58115 0.41068
vn 0.41184 0.78753 0.45845
vn 0.39787 0.79299 0.46138
vn 0.27631 0.53540 0.79812
vn 0.27025 0.53534 0.80024
vn 0.16437 0.33234 0.92873
vn 0.16868 0.32884 0.92920
vn -0.37027 -0.45011 0.81259
vn -0.24887 -0.50815 0.82453
vn -0.13888 -0.28718 0.94776
vn -0.21944 -0.25662 0.94127
vn -0.56248 -0.69389 0.44959
vn -0.39015 -0.79938 0.45692
vn -0.66366 -0.61167 0.43061
vn 0.37712 0.80723 0.45404
vn 0.32138 0.84121 0.43483
vn 0.26004 0.54937 0.79408
vn 0.22707 0.58122 0.78142
vn 0.17234 0.34199 0.92376
vn 0.16278 0.37000 0.91466
vn -0.10973 -0.55944 0.82158
vn 0.03198 -0.58316 0.81172
vn 0.04930 -0.32262 0.94524
vn -0.04805 -0.31254 0.94869
vn -0.18253 -0.87620 0.44604
vn 0.01501 -0.90394 0.42740
vn 0.23673 -0.88425 0.40257
vn 0.50601 -0.78387 0.35987
vn 0.19103 -0.56640 0.80168
vn 0.38384 -0.49798 0.77761
vn 0.74373 -0.59768 0.29940
vn 0.56781 -0.39205 0.72380
vn 0.26929 -0.24980 0.93010
vn 0.15192 -0.30211 0.94109
vn 0.38640 -0.19775 0.90088
vn 0.69128 -0.27903 0.66655
vn 0.46981 -0.15703 0.86869
vn -0.27481 0.67041 0.68923
vn -0.02146 0.68466 0.72854
vn 0.01552 0.46089 0.88732
vn -0.15818 0.46620 0.87042
vn -0.38920 0.32110 0.86338
vn -0.59028 0.45088 0.66954
vn -0.50885 0.02392 0.86052
vn -0.74636 0.05157 0.66354
vn -0.77947 0.57602 0.24621
vn -0.37560 0.88259 0.28278
vn -0.96703 0.06867 0.24524
vn -0.69391 -0.24605 0.67672
vn -0.91204 -0.29437 0.28554
vn -0.82365 -0.45432 0.33939
vn -0.78112 -0.49109 0.38559
vn -0.76231 -0.49465 0.41737
vn -0.55507 -0.35748 0.75107
vn -0.53222 -0.34826 0.77166
vn -0.60553 -0.35515 0.71219
vn -0.38925 -0.27131 0.88027
vn -0.34068 -0.24597 0.90743
vn -0.46765 -0.20848 0.85898
vn 0.72857 -0.08037 0.68024
vn 0.68871 -0.00817 0.72499
vn 0.43717 -0.05425 0.89774
vn 0.47588 -0.10173 0.87361
vn 0.49486 -0.12574 0.85983
vn 0.74029 -0.16963 0.65054
vn 0.94844 -0.20636 0.24057
vn 0.95776 -0.05846 0.28157
vn 0.88565 -0.39261 0.24794
vn 0.19263 0.89636 0.39928
vn -0.03760 0.93777 0.34521
vn 0.13932 0.63405 0.76063
vn 0.11360 0.41472 0.90283
vn -0.74570 -0.50472 0.43497
vn -0.73441 -0.51665 0.44014
vn -0.51548 -0.35435 0.78020
vn -0.50677 -0.35590 0.78518
vn -0.31835 -0.23021 0.91960
vn -0.31617 -0.22108 0.92258
vn -0.32541 -0.22948 0.91731
vn 0.61053 0.11350 0.78382
vn 0.56495 0.20005 0.80051
vn 0.32618 0.10159 0.93983
vn 0.36073 0.04501 0.93158
vn 0.39360 0.00334 0.91927
vn 0.64663 0.05466 0.76084
vn 0.91942 0.10521 0.37894
vn 0.89545 0.19000 0.40258
vn 0.94071 0.03538 0.33735
vn -0.72857 -0.52865 0.43556
vn -0.71753 -0.55688 0.41836
vn -0.50314 -0.36374 0.78393
vn -0.50119 -0.38988 0.77253
vn -0.31728 -0.22176 0.92204
vn -0.32484 -0.23842 0.91522
vn 0.40950 0.41488 0.81252
vn 0.30651 0.51726 0.79906
vn 0.15614 0.30482 0.93952
vn 0.22281 0.23761 0.94546
vn 0.27852 0.17361 0.94461
vn 0.49687 0.30728 0.81160
vn 0.76890 0.47369 0.42943
vn 0.64125 0.63784 0.42657
vn 0.85151 0.31560 0.41872
vn -0.68315 -0.62123 0.38389
vn -0.54364 -0.76371 0.34815
vn -0.49039 -0.43731 0.75384
vn -0.39574 -0.54229 0.74116
vn -0.33327 -0.26405 0.90510
vn -0.27587 -0.33535 0.90080
vn 0.20601 0.59245 0.77882
vn 0.11693 0.63608 0.76271
vn 0.02675 0.36510 0.93058
vn 0.08200 0.35483 0.93133
vn 0.34086 0.85852 0.38310
vn 0.20774 0.91390 0.34876
vn 0.48513 0.77218 0.41035
vn -0.18766 -0.92329 0.33514
vn 0.17035 -0.92602 0.33684
vn -0.13552 -0.65757 0.74110
vn 0.12881 -0.66274 0.73769
vn -0.09009 -0.41704 0.90441
vn 0.09885 -0.41506 0.90441
vn 0.05201 0.65796 0.75126
vn 0.02058 0.66498 0.74658
vn 0.03458 0.37666 0.92570
vn 0.02046 0.36406 0.93115
vn 0.08303 0.94163 0.32625
vn 0.00801 0.94412 0.32950
vn -0.02453 0.93598 0.35120
vn -0.03245 0.92574 0.37676
vn 0.00029 0.66119 0.75022
vn -0.00687 0.65347 0.75692
vn -0.03387 0.91614 0.39942
vn -0.00922 0.64668 0.76270
vn 0.02299 0.40128 0.91567
vn 0.02969 0.39198 0.91950
vn 0.01801 0.40394 0.91461
vn -0.00968 0.63264 0.77439
vn 0.00887 0.38874 0.92131
vn 0.23113 -0.58925 0.77418
vn 0.23440 -0.60186 0.76343
vn 0.17012 -0.35861 0.91786
vn 0.16267 -0.35399 0.92099
vn 0.14202 -0.33853 0.93018
vn 0.22171 -0.56614 0.79394
vn 0.05773 0.02276 0.99807
vn 0.23296 -0.52784 0.81677
vn 0.32884 -0.83504 0.44111
vn 0.31741 -0.85260 0.41511
vn 0.35682 -0.81189 0.46207
vn -0.38578 0.80127 0.45731
vn -0.11905 0.89207 0.43592
vn -0.06966 0.59247 0.80258
vn -0.02873 0.90872 0.41641
vn 0.29688 -0.88362 0.36204
vn 0.31134 -0.86655 0.39008
vn 0.22510 -0.62085 0.75092
vn 0.16519 -0.37360 0.91276
vn 0.36731 -0.07452 0.92711
f 1//1 2//2 3//3 4//4
f 1//1 5//5 6//6 2//2
f 1//1 4//4 7//7 5//5
f 8//8 9//9 10//10 11//11
f 11//11 10//10 12//12 13//13
f 11//11 13//13 312//14 313//15
f 315//16 314//17 9//9 8//18
f 315//19 8//20 11//11 313//15
f 314//17 316//21 3//3 9//9
f 316//21 317//22 4//4 3//3
f 317//22 14//23 7//7 4//4
f 14//23 15//24 16//25 7//7
f 318//26 319//27 19//28 20//29
f 318//26 20//29 21//30 18//31
f 21//30 20//29 22//32 23//33
f 21//30 23//33 24//34 25//35
f 21//30 25//35 26//36 18//31
f 26//36 25//35 27//37 320//38
f 29//39 28//40 30//41 31//42
f 29//39 31//42 32//43 17//44
f 32//43 16//25 15//24 17//44
f 32//43 31//42 33//45 34//46
f 32//43 34//46 35//47 16//25
f 35//47 5//5 7//7 16//25
f 35//47 34//46 36//48 37//49
f 35//47 37//49 6//6 5//5
f 37//49 36//48 38//50 39//51
f 37//49 39//51 12//12 6//6
f 39//51 38//50 40//52 41//53
f 39//51 41//53 13//13 12//12
f 41//53 40//52 322//54 42//55
f 41//53 42//55 312//14 13//13
f 323//56 322//54 40//52 43//57
f 323//56 43//57 44//58 324//59
f 44//58 43//57 45//60 46//61
f 44//58 46//61 47//62 19//28
f 44//58 19//28 319//27 324//59
f 47//62 46//61 48//63 49//64
f 47//62 49//64 50//65 22//32
f 47//62 22//32 20//29 19//28
f 50//66 49//67 51//68 52//69
f 50//66 52//69 53//70 54//71
f 50//65 54//72 23//33 22//32
f 54//71 53//70 55//73 56//73
f 54//72 56//74 24//34 23//33
f 56//73 55//73 57//75 58//75
f 56//74 58//76 59//77 24//34
f 59//77 58//76 60//78 61//79
f 59//77 61//79 62//80 27//37
f 59//77 27//37 25//35 24//34
f 62//80 61//79 63//81 64//82
f 62//80 64//82 65//83 66//84
f 62//80 66//84 320//38 27//37
f 326//85 67//86 68//87 69//88
f 326//85 69//88 70//89 321//90
f 70//89 30//41 28//40 321//90
f 70//89 69//88 52//69 51//68
f 70//89 51//68 71//91 30//41
f 71//91 33//45 31//42 30//41
f 71//91 51//68 49//67 48//63
f 71//91 48//63 72//92 33//45
f 72//92 36//48 34//46 33//45
f 72//92 48//63 46//61 45//60
f 72//92 45//60 38//50 36//48
f 69//88 68//87 53//70 52//69
f 68//87 67//86 325//93 73//94
f 68//87 73//94 55//95 53//70
f 73//94 325//93 327//96 74//97
f 73//94 74//97 57//98 55//95
f 74//97 327//96 75//99 76//100
f 74//97 76//100 77//101 57//98
f 77//101 76//100 78//102 79//103
f 77//104 79//103 80//105 60//104
f 77//104 60//104 58//75 57//75
f 79//103 78//102 81//106 82//107
f 79//103 82//107 83//108 80//105
f 82//107 81//106 84//109 85//110
f 82//107 85//110 86//111 83//108
f 85//110 84//109 87//112 88//113
f 85//110 88//113 89//114 86//111
f 89//114 88//113 90//115 91//116
f 89//114 91//116 92//117 93//118
f 89//114 93//118 94//119 86//111
f 93//118 92//117 95//120 96//121
f 93//118 96//121 97//122 94//119
f 97//122 98//123 99//124 94//119
f 97//122 96//121 100//125 328//126
f 97//122 328//127 101//127 98//123
f 101//128 102//129 103//130 98//123
f 104//131 105//132 106//133 107//134
f 104//131 107//134 103//130 102//129
f 107//134 106//133 108//135 109//136
f 107//134 109//136 110//137 103//130
f 110//137 109//136 111//138 112//139
f 110//137 112//139 113//140 99//124
f 110//137 99//124 98//123 103//130
f 112//141 111//142 114//143 115//144
f 112//141 115//144 116//145 113//140
f 115//144 114//143 117//146 118//147
f 115//144 118//147 119//148 116//145
f 119//148 118//147 120//149 121//150
f 119//148 121//150 65//83 64//82
f 119//148 64//82 63//81 116//145
f 330//151 329//152 122//153 123//154
f 330//151 123//154 106//133 105//132
f 123//154 122//153 124//155 125//156
f 123//154 125//156 108//135 106//133
f 125//156 124//155 126//157 127//158
f 125//156 127//158 128//159 108//135
f 128//160 127//161 129//162 130//163
f 128//160 130//163 114//143 111//142
f 128//159 111//138 109//136 108//135
f 130//163 129//162 131//164 132//165
f 130//163 132//165 117//146 114//143
f 132//165 131//164 133//166 134//167
f 132//165 134//167 135//168 117//146
f 135//168 120//149 118//147 117//146
f 137//169 136//170 138//171 139//172
f 137//169 139//172 122//153 329//152
f 139//172 138//171 140//173 141//174
f 139//172 141//174 124//155 122//153
f 141//174 140//173 142//175 143//176
f 141//174 143//176 126//157 124//155
f 143//177 142//178 144//179 145//180
f 143//177 145//180 146//181 126//182
f 146//181 145//180 147//183 148//184
f 146//181 148//184 131//164 129//162
f 146//181 129//162 127//161 126//182
f 148//184 147//183 331//185 149//186
f 148//184 149//186 133//166 131//164
f 333//187 332//188 150//189 151//190
f 333//187 151//190 138//171 136//170
f 151//190 150//189 152//191 153//192
f 151//190 153//192 140//173 138//171
f 153//192 152//191 154//193 155//194
f 153//192 155//194 142//175 140//173
f 155//195 154//196 156//197 157//198
f 155//195 157//198 144//179 142//178
f 157//198 156//197 158//199 159//200
f 157//198 159//200 160//201 144//179
f 160//201 159//200 334//202 335//203
f 160//201 335//203 331//185 147//183
f 160//201 147//183 145//180 144//179
f 334//202 159//200 158//199 336//204
f 163//205 162//206 164//207 165//208
f 163//205 165//208 150//189 332//188
f 165//208 164//207 166//209 167//210
f 165//208 167//210 152//191 150//189
f 167//210 166//209 168//211 169//212
f 167//210 169//212 154//193 152//191
f 169//213 168//214 170//215 171//216
f 169//213 171//216 156//197 154//196
f 171//216 170//215 172//217 173//218
f 171//216 173//218 158//199 156//197
f 173//218 172//217 174//219 161//220
f 173//218 161//220 336//204 158//199
f 174//219 172//217 176//221 175//222
f 176//221 177//223 178//224 175//222
f 176//221 172//217 170//215 179//225
f 176//221 179//225 180//226 177//223
f 180//226 181//227 182//228 177//223
f 180//226 179//225 183//229 184//230
f 180//226 184//230 185//231 181//227
f 185//231 186//232 187//233 181//227
f 185//234 184//235 188//236 189//237
f 185//234 189//237 190//238 186//239
f 190//238 191//240 192//241 186//239
f 190//238 189//237 193//242 194//243
f 190//238 194//243 195//244 191//240
f 195//244 196//245 197//246 191//240
f 195//244 194//243 337//247 338//248
f 195//244 338//248 198//249 196//245
f 198//249 199//250 200//251 196//245
f 201//252 339//253 202//254 203//255
f 201//252 203//255 200//251 199//250
f 203//255 202//254 204//256 205//257
f 203//255 205//257 206//258 200//251
f 206//258 205//257 207//259 208//260
f 206//258 208//260 209//261 197//246
f 206//258 197//246 196//245 200//251
f 209//262 208//263 210//264 211//265
f 209//262 211//265 212//266 192//267
f 209//261 192//241 191//240 197//246
f 212//266 211//265 213//268 214//269
f 212//266 214//269 215//270 187//233
f 212//266 187//233 186//232 192//267
f 215//270 214//269 340//271 341//272
f 215//270 341//272 216//273 182//228
f 215//270 182//228 181//227 187//233
f 216//273 178//224 177//223 182//228
f 343//274 342//275 217//276 218//277
f 343//274 218//277 164//207 162//206
f 218//277 217//276 188//236 219//278
f 218//277 219//278 166//209 164//207
f 219//278 188//236 184//235 183//279
f 219//278 183//279 168//211 166//209
f 217//276 193//242 189//237 188//236
f 217//276 342//275 344//280 193//242
f 344//280 337//247 194//243 193//242
f 221//281 220//282 222//283 223//284
f 221//281 223//284 202//254 339//253
f 223//284 222//283 224//285 225//286
f 223//284 225//286 204//256 202//254
f 225//286 224//285 226//287 227//288
f 225//286 227//288 228//289 204//256
f 228//290 227//291 229//292 230//293
f 228//290 230//293 231//294 207//295
f 228//289 207//259 205//257 204//256
f 231//294 230//293 232//296 233//297
f 231//294 233//297 234//298 210//264
f 231//294 210//264 208//263 207//295
f 234//298 233//297 345//299 346//300
f 234//298 346//300 235//301 213//268
f 234//298 213//268 211//265 210//264
f 235//301 340//271 214//269 213//268
f 238//302 237//303 239//304 240//305
f 238//302 240//305 222//283 220//282
f 240//305 239//304 241//306 242//307
f 240//305 242//307 224//285 222//283
f 242//307 241//306 243//308 244//309
f 242//307 244//309 226//287 224//285
f 244//310 243//311 245//312 246//313
f 244//310 246//313 247//314 226//315
f 247//314 246//313 248//316 249//317
f 247//314 249//317 250//318 229//292
f 247//314 229//292 227//291 226//315
f 250//318 249//317 251//319 236//320
f 250//318 236//320 347//321 232//296
f 250//318 232//296 230//293 229//292
f 251//319 249//317 248//316 348//322
f 350//323 349//324 253//325 254//326
f 350//323 254//326 239//304 237//303
f 254//326 253//325 255//327 256//328
f 254//326 256//328 241//306 239//304
f 256//328 255//327 257//329 258//330
f 256//328 258//330 243//308 241//306
f 258//331 257//332 259//333 260//334
f 258//331 260//334 245//312 243//311
f 260//334 259//333 261//335 262//336
f 260//334 262//336 263//337 245//312
f 263//337 262//336 264//338 252//339
f 263//337 252//339 348//322 248//316
f 263//337 248//316 246//313 245//312
f 264//338 262//336 261//335 351//340
f 266//341 352//342 267//343 268//344
f 266//341 268//344 253//325 349//324
f 268//344 267//343 269//345 270//346
f 268//344 270//346 255//327 253//325
f 270//346 269//345 271//347 272//348
f 270//346 272//348 257//329 255//327
f 272//349 271//350 273//351 274//352
f 272//349 274//352 259//333 257//332
f 274//352 273//351 275//353 276//354
f 274//352 276//354 261//335 259//333
f 276//354 275//353 353//355 265//356
f 276//354 265//356 351//340 261//335
f 353//355 275//353 277//357 354//358
f 277//357 278//359 279//360 354//358
f 277//357 275//353 273//351 280//361
f 277//357 280//361 281//362 278//359
f 281//362 282//363 283//364 278//359
f 281//362 280//361 284//365 285//366
f 281//362 285//366 286//367 282//363
f 286//367 287//368 288//369 282//363
f 286//370 285//371 289//372 290//373
f 286//370 290//373 291//374 287//375
f 291//374 292//376 293//377 287//375
f 291//374 290//373 294//378 295//379
f 291//374 295//379 296//380 292//376
f 296//380 95//120 92//117 292//376
f 296//380 295//379 355//381 297//382
f 296//380 297//382 298//383 95//120
f 298//383 100//125 96//121 95//120
f 299//384 300//385 81//106 78//102
f 299//384 78//102 76//100 75//99
f 300//385 301//386 84//109 81//106
f 301//386 356//387 87//112 84//109
f 356//387 357//388 302//389 87//112
f 302//389 357//388 358//390 303//391
f 302//389 303//391 304//392 90//115
f 302//389 90//115 88//113 87//112
f 304//392 303//391 305//393 288//369
f 304//392 288//369 287//368 293//377
f 304//392 293//377 91//116 90//115
f 305//393 303//391 358//390 359//394
f 305//393 359//394 306//395 283//364
f 305//393 283//364 282//363 288//369
f 306//395 279//360 278//359 283//364
f 307//396 360//397 308//398 309//399
f 307//396 309//399 267//343 352//342
f 309//399 308//398 289//372 310//400
f 309//399 310//400 269//345 267//343
f 310//400 289//372 285//371 284//401
f 310//400 284//401 271//347 269//345
f 308//398 294//378 290//373 289//372
f 308//398 360//397 361//402 294//378
f 361//402 355//381 295//379 294//378
f 293//377 292//376 92//117 91//116
f 284//365 280//361 273//351 271//350
f 347//321 345//299 233//297 232//296
f 183//229 179//225 170//215 168//214
f 61//79 60//78 80//105 63//81
f 45//60 43//57 40//52 38//50
f 12//12 10//10 2//2 6//6
f 10//10 9//9 3//3 2//2
f 80//105 113//140 116//145 63//81
f 94//119 99//124 113//140 311//403
f 113//140 80//105 83//108 311//403
f 83//108 86//111 94//119 311//403
f 365//404 364//405 363//406 362//407
f 363//406 367//408 366//409 362//407
f 366//409 368//410 365//404 362//407
f 372//411 371//412 370//413 369//414
f 374//415 373//416 371//412 372//411
f 313//15 312//417 374//415 372//411
f 369//418 370//413 314//17 315//16
f 313//15 372//411 369//414 315//19
f 370//413 364//405 316//21 314//17
f 364//405 365//404 317//22 316//21
f 365//404 368//410 14//23 317//22
f 368//410 375//419 15//24 14//23
f 377//420 376//421 319//27 318//26
f 18//31 378//422 377//420 318//26
f 380//423 379//424 377//420 378//422
f 382//425 381//426 380//423 378//422
f 18//31 26//36 382//425 378//422
f 320//38 383//427 382//425 26//36
f 385//428 384//429 28//40 29//39
f 17//44 386//430 385//428 29//39
f 17//44 15//24 375//419 386//430
f 388//431 387//432 385//428 386//430
f 375//419 389//433 388//431 386//430
f 375//419 368//410 366//409 389//433
f 391//434 390//435 388//431 389//433
f 366//409 367//408 391//434 389//433
f 393//436 392//437 390//435 391//434
f 367//408 373//416 393//436 391//434
f 395//438 394//439 392//437 393//436
f 373//416 374//415 395//438 393//436
f 42//440 322//441 394//439 395//438
f 374//415 312//417 42//440 395//438
f 396//442 394//439 322//441 323//56
f 324//59 397//443 396//442 323//56
f 399//444 398//445 396//442 397//443
f 376//421 400//446 399//444 397//443
f 324//59 319//27 376//421 397//443
f 402//447 401//448 399//444 400//446
f 379//424 403//449 402//447 400//446
f 376//421 377//420 379//424 400//446
f 405//450 404//451 402//452 403//453
f 407//454 406//455 405//450 403//453
f 379//424 380//423 407//456 403//449
f 409//457 408//457 406//455 407//454
f 380//423 381//426 409//458 407//456
f 411//459 410//459 408//457 409//457
f 381//426 412//460 411//461 409//458
f 414//462 413//463 411//461 412//460
f 383//427 415//464 414//462 412//460
f 381//426 382//425 383//427 412//460
f 417//465 416//466 414//462 415//464
f 66//84 65//83 417//465 415//464
f 383//427 320//38 66//84 415//464
f 419//467 418//468 67//86 326//85
f 321//90 420//469 419//467 326//85
f 321//90 28//40 384//429 420//469
f 404//451 405//450 419//467 420//469
f 384//429 421//470 404//451 420//469
f 384//429 385//428 387//432 421//470
f 401//448 402//452 404//451 421//470
f 387//432 422//471 401//448 421//470
f 387//432 388//431 390//435 422//471
f 398//445 399//444 401//448 422//471
f 390//435 392//437 398//445 422//471
f 405//450 406//455 418//468 419//467
f 423//472 325//93 67//86 418//468
f 406//455 408//473 423//472 418//468
f 424//474 327//96 325//93 423//472
f 408//473 410//475 424//474 423//472
f 425//476 75//99 327//96 424//474
f 410//475 426//477 425//476 424//474
f 428//478 427//479 425//476 426//477
f 413//480 429//481 428//478 426//480
f 410//459 411//459 413//480 426//480
f 431//482 430//483 427//479 428//478
f 429//481 432//484 431//482 428//478
f 434//485 433//486 430//483 431//482
f 432//484 435//487 434//485 431//482
f 437//488 436//489 433//486 434//485
f 435//487 438//490 437//488 434//485
f 440//491 439//492 437//488 438//490
f 442//493 441//494 440//491 438//490
f 435//487 443//495 442//493 438//490
f 445//496 444//497 441//494 442//493
f 443//495 446//498 445//496 442//493
f 443//495 448//499 447//500 446//498
f 328//126 100//125 445//496 446//498
f 447//500 101//127 328//127 446//498
f 447//500 449//501 102//129 101//128
f 451//502 450//503 105//132 104//131
f 102//129 449//501 451//502 104//131
f 453//504 452//505 450//503 451//502
f 449//501 454//506 453//504 451//502
f 456//507 455//508 453//504 454//506
f 448//499 457//509 456//507 454//506
f 449//501 447//500 448//499 454//506
f 459//510 458//511 455//512 456//513
f 457//509 460//514 459//510 456//513
f 462//515 461//516 458//511 459//510
f 460//514 463//517 462//515 459//510
f 121//150 120//149 462//515 463//517
f 417//465 65//83 121//150 463//517
f 460//514 416//466 417//465 463//517
f 465//518 464//519 329//152 330//151
f 105//132 450//503 465//518 330//151
f 467//520 466//521 464//519 465//518
f 450//503 452//505 467//520 465//518
f 469//522 468//523 466//521 467//520
f 452//505 470//524 469//522 467//520
f 472//525 471//526 469//527 470//528
f 455//512 458//511 472//525 470//528
f 452//505 453//504 455//508 470//524
f 474//529 473//530 471//526 472//525
f 458//511 461//516 474//529 472//525
f 134//167 133//166 473//530 474//529
f 461//516 135//168 134//167 474//529
f 461//516 462//515 120//149 135//168
f 476//531 475//532 136//170 137//169
f 329//152 464//519 476//531 137//169
f 478//533 477//534 475//532 476//531
f 464//519 466//521 478//533 476//531
f 480//535 479//536 477//534 478//533
f 466//521 468//523 480//535 478//533
f 482//537 481//538 479//539 480//540
f 468//541 483//542 482//537 480//540
f 485//543 484//544 482//537 483//542
f 471//526 473//530 485//543 483//542
f 468//541 469//527 471//526 483//542
f 149//186 331//185 484//544 485//543
f 473//530 133//166 149//186 485//543
f 487//545 486//546 332//188 333//187
f 136//170 475//532 487//545 333//187
f 489//547 488//548 486//546 487//545
f 475//532 477//534 489//547 487//545
f 491//549 490//550 488//548 489//547
f 477//534 479//536 491//549 489//547
f 493//551 492//552 490//553 491//554
f 479//539 481//538 493//551 491//554
f 495//555 494//556 492//552 493//551
f 481//538 496//557 495//555 493//551
f 335//203 334//202 495//555 496//557
f 484//544 331//185 335//203 496//557
f 481//538 482//537 484//544 496//557
f 336//204 494//556 495//555 334//202
f 498//558 497//559 162//206 163//205
f 332//188 486//546 498//558 163//205
f 500//560 499//561 497//559 498//558
f 486//546 488//548 500//560 498//558
f 502//562 501//563 499//561 500//560
f 488//548 490//550 502//562 500//560
f 504//564 503//565 501//566 502//567
f 490//553 492//552 504//564 502//567
f 506//568 505//569 503//565 504//564
f 492//552 494//556 506//568 504//564
f 161//220 174//219 505//569 506//568
f 494//556 336//204 161//220 506//568
f 175//222 507//570 505//569 174//219
f 175//222 178//224 508//571 507//570
f 509//572 503//565 505//569 507//570
f 508//571 510//573 509//572 507//570
f 508//571 512//574 511//575 510//573
f 514//576 513//577 509//572 510//573
f 511//575 515//578 514//576 510//573
f 511//575 517//579 516//580 515//578
f 519//581 518//582 514//583 515//584
f 516//585 520//586 519//581 515//584
f 516//585 522//587 521//588 520//586
f 524//589 523//590 519//581 520//586
f 521//588 525//591 524//589 520//586
f 521//588 527//592 526//593 525//591
f 338//248 337//247 524//589 525//591
f 526//593 198//249 338//248 525//591
f 526//593 528//594 199//250 198//249
f 530//595 529//596 339//253 201//252
f 199//250 528//594 530//595 201//252
f 532//597 531//598 529//596 530//595
f 528//594 533//599 532//597 530//595
f 535//600 534//601 532//597 533//599
f 527//592 536//602 535//600 533//599
f 528//594 526//593 527//592 533//599
f 538//603 537//604 535//605 536//606
f 522//607 539//608 538//603 536//606
f 527//592 521//588 522//587 536//602
f 541//609 540//610 538//603 539//608
f 517//579 542//611 541//609 539//608
f 522//607 516//580 517//579 539//608
f 341//272 340//271 541//609 542//611
f 512//574 216//273 341//272 542//611
f 517//579 511//575 512//574 542//611
f 512//574 508//571 178//224 216//273
f 544//612 543//613 342//275 343//274
f 162//206 497//559 544//612 343//274
f 545//614 518//582 543//613 544//612
f 497//559 499//561 545//614 544//612
f 513//615 514//583 518//582 545//614
f 499//561 501//563 513//615 545//614
f 518//582 519//581 523//590 543//613
f 523//590 344//280 342//275 543//613
f 523//590 524//589 337//247 344//280
f 547//616 546//617 220//282 221//281
f 339//253 529//596 547//616 221//281
f 549//618 548//619 546//617 547//616
f 529//596 531//598 549//618 547//616
f 551//620 550//621 548//619 549//618
f 531//598 552//622 551//620 549//618
f 554//623 553//624 551//625 552//626
f 534//627 555//628 554//623 552//626
f 531//598 532//597 534//601 552//622
f 557//629 556//630 554//623 555//628
f 537//604 558//631 557//629 555//628
f 534//627 535//605 537//604 555//628
f 346//300 345//299 557//629 558//631
f 540//610 235//301 346//300 558//631
f 537//604 538//603 540//610 558//631
f 540//610 541//609 340//271 235//301
f 560//632 559//633 237//303 238//302
f 220//282 546//617 560//632 238//302
f 562//634 561//635 559//633 560//632
f 546//617 548//619 562//634 560//632
f 564//636 563//637 561//635 562//634
f 548//619 550//621 564//636 562//634
f 566//638 565//639 563//640 564//641
f 550//642 567//643 566//638 564//641
f 569//644 568//645 566//638 567//643
f 553//624 570//646 569//644 567//643
f 550//642 551//625 553//624 567//643
f 236//320 251//319 569//644 570//646
f 556//630 347//321 236//320 570//646
f 553//624 554//623 556//630 570//646
f 348//322 568//645 569//644 251//319
f 572//647 571//648 349//324 350//323
f 237//303 559//633 572//647 350//323
f 574//649 573//650 571//648 572//647
f 559//633 561//635 574//649 572//647
f 576//651 575//652 573//650 574//649
f 561//635 563//637 576//651 574//649
f 578//653 577//654 575//655 576//656
f 563//640 565//639 578//653 576//656
f 580//657 579//658 577//654 578//653
f 565//639 581//659 580//657 578//653
f 252//339 264//338 580//657 581//659
f 568//645 348//322 252//339 581//659
f 565//639 566//638 568//645 581//659
f 351//340 579//658 580//657 264//338
f 583//660 582//661 352//342 266//341
f 349//324 571//648 583//660 266//341
f 585//662 584//663 582//661 583//660
f 571//648 573//650 585//662 583//660
f 587//664 586//665 584//663 585//662
f 573//650 575//652 587//664 585//662
f 589//666 588//667 586//668 587//669
f 575//655 577//654 589//666 587//669
f 591//670 590//671 588//667 589//666
f 577//654 579//658 591//670 589//666
f 265//356 353//355 590//671 591//670
f 579//658 351//340 265//356 591//670
f 354//358 592//672 590//671 353//355
f 354//358 279//360 593//673 592//672
f 594//674 588//667 590//671 592//672
f 593//673 595//675 594//674 592//672
f 593//673 597//676 596//677 595//675
f 599//678 598//679 594//674 595//675
f 596//677 600//680 599//678 595//675
f 596//677 602//681 601//682 600//680
f 604//683 603//684 599//685 600//686
f 601//687 605//688 604//683 600//686
f 601//687 607//689 606//690 605//688
f 609//691 608//692 604//683 605//688
f 606//690 610//693 609//691 605//688
f 606//690 441//494 444//497 610//693
f 297//382 355//381 609//691 610//693
f 444//497 298//383 297//382 610//693
f 444//497 445//496 100//125 298//383
f 427//479 430//483 300//385 299//384
f 75//99 425//476 427//479 299//384
f 430//483 433//486 301//386 300//385
f 433//486 436//489 356//387 301//386
f 436//489 611//694 357//388 356//387
f 612//695 358//390 357//388 611//694
f 439//492 613//696 612//695 611//694
f 436//489 437//488 439//492 611//694
f 602//681 614//697 612//695 613//696
f 607//689 601//682 602//681 613//696
f 439//492 440//491 607//689 613//696
f 359//394 358//390 612//695 614//697
f 597//676 306//395 359//394 614//697
f 602//681 596//677 597//676 614//697
f 597//676 593//673 279//360 306//395
f 616//698 615//699 360//397 307//396
f 352//342 582//661 616//698 307//396
f 617//700 603//684 615//699 616//698
f 582//661 584//663 617//700 616//698
f 598//701 599//685 603//684 617//700
f 584//663 586//665 598//701 617//700
f 603//684 604//683 608//692 615//699
f 608//692 361//402 360//397 615//699
f 608//692 609//691 355//381 361//402
f 440//491 441//494 606//690 607//689
f 586//668 588//667 594//674 598//679
f 556//630 557//629 345//299 347//321
f 501//566 503//565 509//572 513//577
f 416//466 429//481 413//463 414//462
f 392//437 394//439 396//442 398//445
f 367//408 363//406 371//412 373//416
f 363//406 364//405 370//413 371//412
f 416//466 460//514 457//509 429//481
f 618//702 457//509 448//499 443//495
f 618//702 432//484 429//481 457//509
f 618//702 443//495 435//487 432//484
