# pilowlava3D glyph '(' variant 1 — Vincent Wagner / Velvetyne, Free Art License
v 1.47336 5.25608 -0.34771
v 1.32454 5.36000 -0.34769
v 1.47382 0.21914 -0.34729
v 1.33543 0.11135 -0.34113
v 1.31996 5.44571 -0.20927
v 1.55816 5.27503 -0.20983
v 1.57133 5.01182 -0.23515
v 1.41743 5.10491 -0.40559
v 1.19476 5.26960 -0.40255
v 1.06137 5.38743 -0.23298
v 1.20564 0.20621 -0.40313
v 1.42251 0.36991 -0.40231
v 1.55965 0.19770 -0.20702
v 1.32487 0.02745 -0.20604
v 1.57745 0.46626 -0.23458
v 1.07078 0.08920 -0.23526
v 1.32395 0.00000 0.00000
v 1.03663 0.05026 0.00000
v 0.84669 0.22957 0.00000
v 0.89891 0.26378 -0.24863
v 1.06492 0.37709 -0.43424
v 0.76214 0.46278 -0.25536
v 0.92972 0.56098 -0.43993
v 1.15346 0.72407 -0.44066
v 1.29554 0.55070 -0.43416
v 1.29590 0.84986 -0.25249
v 1.45581 0.68222 -0.25040
v 1.58153 0.18766 0.00000
v 0.59211 0.64421 0.00000
v 0.64903 0.67373 -0.25056
v 0.48377 0.85429 0.00000
v 0.76769 1.56918 0.00000
v 0.63399 1.74293 0.00000
v 0.51035 1.92006 0.00000
v 0.72401 1.54041 -0.22777
v 0.59542 1.71996 -0.22002
v 0.47611 1.90475 -0.20839
v 0.49175 1.66348 -0.38321
v 0.38171 1.86929 -0.36682
v 0.28860 2.08063 -0.33854
v 0.37008 2.09834 -0.18881
v 0.39934 2.10365 0.00000
v 0.28366 2.30099 -0.16240
v 0.30536 2.29900 0.00000
v 0.19811 1.52238 0.00000
v 0.28068 1.29312 0.00000
v 0.32566 1.31387 -0.22965
v 0.42589 1.09220 -0.23686
v 0.53904 0.88204 -0.24353
v 0.55434 1.16394 -0.41235
v 0.68090 0.96308 -0.42600
v 0.80421 0.76187 -0.43495
v 0.87491 1.09349 -0.42614
v 1.01216 0.90445 -0.43605
v 1.00275 1.19089 -0.24399
v 1.14639 1.01673 -0.24988
v 0.86035 1.36410 -0.23484
v 0.73942 1.28075 -0.41255
v 0.61080 1.46746 -0.39701
v 0.44202 1.37138 -0.39658
v 0.34265 1.58861 -0.38386
v 0.23942 1.53964 -0.22274
v 0.16437 1.76977 -0.21236
v 0.25394 1.81435 -0.36749
v 0.10188 2.00460 -0.19635
v 0.17624 2.04128 -0.33959
v 0.05659 2.24374 -0.17192
v 0.11534 2.26983 -0.30310
v 0.21953 2.29583 -0.29880
v 0.07761 2.50112 -0.26934
v 0.17510 2.51403 -0.26496
v 0.22337 2.51342 -0.14027
v 0.15710 2.73470 -0.25120
v 0.19961 2.73450 -0.13144
v 0.07522 1.99004 0.00000
v 0.12984 1.75359 0.00000
v 0.02669 2.48685 -0.14794
v 0.00000 2.73489 0.00000
v 0.01546 2.73449 -0.13822
v 0.06245 2.73471 -0.25606
v 0.02545 2.98303 -0.14823
v 0.07521 2.96926 -0.27030
v 0.17415 2.95497 -0.26618
v 0.11726 3.19970 -0.30189
v 0.22330 3.17211 -0.30013
v 0.28584 3.16710 -0.16316
v 0.22394 2.95502 -0.13950
v 0.30520 3.16821 0.00000
v 0.00887 2.98903 0.00000
v 0.05591 3.22638 -0.17242
v 0.10406 3.46405 -0.19636
v 0.18035 3.42741 -0.33694
v 0.16718 3.69876 -0.21404
v 0.25971 3.65364 -0.36566
v 0.38737 3.59844 -0.36195
v 0.29408 3.38772 -0.33477
v 0.47739 3.56415 -0.21059
v 0.37228 3.37033 -0.18939
v 0.39874 3.36543 0.00000
v 0.20299 3.94530 0.00000
v 0.24249 3.92685 -0.22388
v 0.28198 4.17467 0.00000
v 1.18703 4.41856 0.00000
v 1.33784 4.58169 0.00000
v 1.00189 4.28525 -0.24495
v 1.14031 4.46053 -0.24976
v 1.29018 4.62628 -0.25271
v 1.00378 4.57137 -0.43433
v 1.14731 4.75178 -0.43822
v 1.29024 4.92305 -0.43619
v 1.45155 4.79396 -0.25066
v 1.49741 4.75669 0.00000
v 1.61816 4.99273 0.00000
v 0.53478 4.58708 -0.24246
v 0.42525 4.37427 -0.23536
v 0.32547 4.15373 -0.23084
v 0.55415 4.30512 -0.40832
v 0.44387 4.09721 -0.39595
v 0.34753 3.88047 -0.38259
v 0.61723 3.99987 -0.39639
v 0.49842 3.80466 -0.38081
v 0.72764 3.92892 -0.23073
v 0.59817 3.74742 -0.22418
v 0.86308 4.10727 -0.23728
v 0.74150 4.19037 -0.41019
v 0.87064 4.38059 -0.42381
v 0.67506 4.50660 -0.42260
v 0.79903 4.71057 -0.43246
v 0.64664 4.79629 -0.24856
v 0.76179 5.00586 -0.25169
v 0.92475 4.91216 -0.43502
v 0.88882 5.21189 -0.24758
v 1.05648 5.09708 -0.43169
v 1.03405 5.42251 0.00000
v 1.32517 5.46912 0.00000
v 1.34489 0.89439 0.00000
v 1.50215 0.71870 0.00000
v 1.62531 0.47972 0.00000
v 0.70625 0.43223 0.00000
v 0.37663 1.06762 0.00000
v 1.05135 1.22970 0.00000
v 1.19682 1.06033 0.00000
v 0.90682 1.39776 0.00000
v 0.21144 2.73442 0.00000
v 0.23824 2.51187 0.00000
v 0.03374 2.23196 0.00000
v 0.00807 2.48101 0.00000
v 0.23685 2.95576 0.00000
v 0.03355 3.23854 0.00000
v 0.07412 3.48006 0.00000
v 0.50960 3.55062 0.00000
v 0.13187 3.71510 0.00000
v 1.04470 4.24951 0.00000
v 0.48038 4.61585 0.00000
v 0.37672 4.39941 0.00000
v 0.76489 3.90405 0.00000
v 0.63327 3.72733 0.00000
v 0.90291 4.07807 0.00000
v 0.70606 5.03731 0.00000
v 0.84297 5.24337 0.00000
v 1.58322 5.28334 0.00000
v 0.58968 4.82803 0.00000
v 1.47336 5.25608 0.34771
v 1.32454 5.36000 0.34769
v 1.47382 0.21914 0.34729
v 1.33543 0.11135 0.34113
v 1.31996 5.44571 0.20927
v 1.55816 5.27503 0.20983
v 1.57133 5.01182 0.23515
v 1.41743 5.10491 0.40559
v 1.19476 5.26960 0.40255
v 1.06137 5.38743 0.23298
v 1.20564 0.20621 0.40313
v 1.42251 0.36991 0.40231
v 1.55965 0.19770 0.20702
v 1.32487 0.02745 0.20604
v 1.57745 0.46626 0.23458
v 1.07078 0.08920 0.23526
v 0.89891 0.26378 0.24863
v 1.06492 0.37709 0.43424
v 0.76214 0.46278 0.25536
v 0.92972 0.56098 0.43993
v 1.15346 0.72407 0.44066
v 1.29554 0.55070 0.43416
v 1.29590 0.84986 0.25249
v 1.45581 0.68222 0.25040
v 0.64903 0.67373 0.25056
v 0.72401 1.54041 0.22777
v 0.59542 1.71996 0.22002
v 0.47611 1.90475 0.20839
v 0.49175 1.66348 0.38321
v 0.38171 1.86929 0.36682
v 0.28860 2.08063 0.33854
v 0.37008 2.09834 0.18881
v 0.28366 2.30099 0.16240
v 0.32566 1.31387 0.22965
v 0.42589 1.09220 0.23686
v 0.53904 0.88204 0.24353
v 0.55434 1.16394 0.41235
v 0.68090 0.96308 0.42600
v 0.80421 0.76187 0.43495
v 0.87491 1.09349 0.42614
v 1.01216 0.90445 0.43605
v 1.00275 1.19089 0.24399
v 1.14639 1.01673 0.24988
v 0.86035 1.36410 0.23484
v 0.73942 1.28075 0.41255
v 0.61080 1.46746 0.39701
v 0.44202 1.37138 0.39658
v 0.34265 1.58861 0.38386
v 0.23942 1.53964 0.22274
v 0.16437 1.76977 0.21236
v 0.25394 1.81435 0.36749
v 0.10188 2.00460 0.19635
v 0.17624 2.04128 0.33959
v 0.05659 2.24374 0.17192
v 0.11534 2.26983 0.30310
v 0.21953 2.29583 0.29880
v 0.07761 2.50112 0.26934
v 0.17510 2.51403 0.26496
v 0.22337 2.51342 0.14027
v 0.15710 2.73470 0.25120
v 0.19961 2.73450 0.13144
v 0.02669 2.48685 0.14794
v 0.01546 2.73449 0.13822
v 0.06245 2.73471 0.25606
v 0.02545 2.98303 0.14823
v 0.07521 2.96926 0.27030
v 0.17415 2.95497 0.26618
v 0.11726 3.19970 0.30189
v 0.22330 3.17211 0.30013
v 0.28584 3.16710 0.16316
v 0.22394 2.95502 0.13950
v 0.05591 3.22638 0.17242
v 0.10406 3.46405 0.19636
v 0.18035 3.42741 0.33694
v 0.16718 3.69876 0.21404
v 0.25971 3.65364 0.36566
v 0.38737 3.59844 0.36195
v 0.29408 3.38772 0.33477
v 0.47739 3.56415 0.21059
v 0.37228 3.37033 0.18939
v 0.24249 3.92685 0.22388
v 1.00189 4.28525 0.24495
v 1.14031 4.46053 0.24976
v 1.29018 4.62628 0.25271
v 1.00378 4.57137 0.43433
v 1.14731 4.75178 0.43822
v 1.29024 4.92305 0.43619
v 1.45155 4.79396 0.25066
v 0.53478 4.58708 0.24246
v 0.42525 4.37427 0.23536
v 0.32547 4.15373 0.23084
v 0.55415 4.30512 0.40832
v 0.44387 4.09721 0.39595
v 0.34753 3.88047 0.38259
v 0.61723 3.99987 0.39639
v 0.49842 3.80466 0.38081
v 0.72764 3.92892 0.23073
v 0.59817 3.74742 0.22418
v 0.86308 4.10727 0.23728
v 0.74150 4.19037 0.41019
v 0.87064 4.38059 0.42381
v 0.67506 4.50660 0.42260
v 0.79903 4.71057 0.43246
v 0.64664 4.79629 0.24856
v 0.76179 5.00586 0.25169
v 0.92475 4.91216 0.43502
v 0.88882 5.21189 0.24758
v 1.05648 5.09708 0.43169
vn 0.52135 0.73781 -0.42874
vn 0.55882 0.78419 -0.26976
vn 0.81638 -0.01091 -0.57741
vn 0.92521 0.04218 -0.37711
vn 0.87584 -0.17812 -0.44852
vn 0.72947 -0.15709 -0.66573
vn 0.19853 0.28514 -0.93770
vn 0.13469 0.20142 -0.97020
vn -0.23030 0.78896 -0.56965
vn -0.35422 0.66064 -0.66188
vn -0.41710 0.79671 -0.43736
vn -0.21271 0.90743 -0.36238
vn 0.20280 -0.28963 -0.93541
vn 0.14539 -0.20188 -0.96856
vn 0.53618 -0.72751 -0.42807
vn 0.56860 -0.77729 -0.26930
vn 0.81627 -0.00501 -0.57765
vn 0.72724 0.14708 -0.67044
vn 0.87679 0.16993 -0.44984
vn 0.92548 -0.05987 -0.37403
vn -0.22437 -0.78549 -0.57677
vn -0.21340 -0.90068 -0.37847
vn -0.41456 -0.79077 -0.45035
vn -0.34961 -0.66097 -0.66400
vn -0.19549 -0.98070 -0.00143
vn -0.46239 -0.88668 -0.00056
vn -0.76156 -0.64810 0.00018
vn -0.64971 -0.56985 -0.50313
vn -0.50516 -0.46255 -0.72860
vn -0.73308 -0.45935 -0.50158
vn -0.58220 -0.37704 -0.72034
vn 0.05075 -0.06718 -0.99645
vn 0.00017 -0.00381 -0.99999
vn 0.56716 0.36944 -0.73610
vn 0.53146 0.45554 -0.71416
vn 0.64795 0.57488 -0.49968
vn 0.71207 0.48699 -0.50576
vn 0.73982 0.67280 0.00006
vn 0.81636 0.57754 -0.00018
vn 0.98309 0.18314 0.00072
vn 0.99335 -0.11508 0.00184
vn -0.85301 -0.52189 -0.00001
vn -0.88521 -0.46518 -0.00000
vn -0.77099 -0.40995 -0.48735
vn 0.81424 0.58053 -0.00004
vn 0.79116 0.61162 0.00005
vn 0.71787 0.54863 -0.42856
vn 0.75229 0.52497 -0.39808
vn 0.79342 0.49202 -0.35833
vn 0.84567 0.53371 0.00007
vn 0.67382 0.45820 -0.57967
vn 0.72515 0.44033 -0.52940
vn 0.78469 0.40074 -0.47294
vn 0.84317 0.43586 -0.31480
vn 0.88622 0.46327 0.00000
vn 0.90022 0.34079 -0.27106
vn 0.93408 0.35706 -0.00012
vn -0.90341 -0.42877 0.00001
vn -0.92823 -0.37201 0.00003
vn -0.83966 -0.34240 -0.42157
vn -0.80608 -0.38843 -0.44649
vn -0.78276 -0.40940 -0.46870
vn -0.88850 -0.45887 -0.00000
vn -0.68871 -0.33828 -0.64128
vn -0.65699 -0.34937 -0.66806
vn -0.63189 -0.34133 -0.69585
vn -0.01972 0.02338 -0.99953
vn -0.02851 0.04010 -0.99879
vn 0.55618 0.46970 -0.68560
vn 0.57634 0.48100 -0.66067
vn 0.67636 0.56976 -0.46681
vn 0.66310 0.57032 -0.48480
vn 0.76249 0.64700 -0.00000
vn 0.75374 0.65718 0.00002
vn 0.69070 0.56707 -0.44874
vn 0.77188 0.63576 0.00000
vn 0.59583 0.48717 -0.63847
vn 0.62939 0.47396 -0.61581
vn -0.03105 0.05367 -0.99808
vn -0.03425 0.05276 -0.99802
vn -0.02554 0.05724 -0.99803
vn -0.77161 -0.27014 -0.57588
vn -0.73063 -0.30417 -0.61128
vn -0.86956 -0.29797 -0.39380
vn -0.89886 -0.24877 -0.36077
vn -0.81379 -0.22760 -0.53474
vn -0.03094 0.08887 -0.99556
vn -0.92712 -0.18930 -0.32343
vn -0.85757 -0.17155 -0.48492
vn -0.03001 0.13842 -0.98992
vn -0.94929 -0.12475 -0.28859
vn -0.89511 -0.10956 -0.43218
vn -0.00482 0.15728 -0.98754
vn 0.02869 0.10693 -0.99385
vn 0.85227 0.32015 -0.41370
vn 0.91191 0.18677 -0.36544
vn 0.95143 0.19673 -0.23680
vn 0.93717 -0.00019 -0.34888
vn 0.97475 0.00033 -0.22331
vn 1.00000 0.00078 -0.00001
vn 0.97887 0.20446 -0.00001
vn -0.96441 -0.26440 -0.00000
vn -0.97913 -0.20323 -0.00002
vn -0.94776 -0.31899 0.00003
vn -0.99041 -0.13813 0.00002
vn -0.99748 -0.07099 -0.00003
vn -0.96283 -0.06404 -0.26240
vn -1.00000 -0.00046 -0.00004
vn -0.96858 -0.00217 -0.24870
vn -0.92602 -0.00393 -0.37746
vn -0.91751 -0.05638 -0.39370
vn -0.96374 0.06450 -0.25892
vn -0.91725 0.05823 -0.39404
vn 0.04257 -0.00211 -0.99909
vn 0.02069 -0.10627 -0.99412
vn -0.01352 -0.14649 -0.98912
vn 0.91060 -0.19294 -0.36550
vn 0.85261 -0.32626 -0.40817
vn 0.90114 -0.34535 -0.26206
vn 0.95158 -0.20121 -0.23238
vn 0.93367 -0.35813 0.00010
vn 0.97838 -0.20680 0.00001
vn -0.99753 0.07020 -0.00003
vn -0.99016 0.13996 -0.00004
vn -0.94659 0.13050 -0.29484
vn -0.97792 0.20897 -0.00001
vn -0.92116 0.19379 -0.33751
vn -0.84640 0.17446 -0.50316
vn -0.88797 0.11895 -0.44425
vn -0.89373 0.25133 -0.37158
vn -0.80380 0.22466 -0.55084
vn -0.02472 -0.13281 -0.99083
vn -0.01866 -0.09729 -0.99508
vn 0.78714 -0.40122 -0.46844
vn 0.72204 -0.44464 -0.53005
vn 0.79425 -0.49585 -0.35114
vn 0.84677 -0.43511 -0.30604
vn 0.84534 -0.53424 -0.00006
vn 0.88816 -0.45953 -0.00001
vn -0.96230 0.27197 -0.00001
vn -0.94866 0.31630 -0.00001
vn -0.86939 0.29285 -0.39800
vn 0.75545 -0.65520 -0.00002
vn 0.77534 -0.63154 -0.00006
vn 0.69112 -0.55624 -0.46146
vn 0.66690 -0.56788 -0.48245
vn 0.64249 -0.58155 -0.49900
vn 0.73373 -0.67945 -0.00004
vn 0.55515 -0.46124 -0.69214
vn 0.52431 -0.45977 -0.71674
vn 0.56670 -0.37617 -0.73305
vn 0.71104 -0.49024 -0.50407
vn 0.81625 -0.57769 0.00008
vn 0.98154 -0.19126 -0.00072
vn -0.90747 0.42011 0.00001
vn -0.89216 0.45171 -0.00001
vn -0.78643 0.40185 -0.46908
vn -0.80908 0.38032 -0.44805
vn -0.84099 0.33665 -0.42355
vn -0.93088 0.36532 0.00001
vn -0.68884 0.33012 -0.64539
vn -0.72688 0.29812 -0.61869
vn -0.76623 0.26142 -0.58699
vn -0.02021 -0.06638 -0.99759
vn -0.02932 -0.05114 -0.99826
vn 0.66940 -0.46125 -0.58237
vn 0.63195 -0.46506 -0.61997
vn 0.72807 -0.54416 -0.41690
vn 0.75463 -0.52858 -0.38876
vn 0.79743 -0.60341 -0.00001
vn 0.81545 -0.57883 0.00002
vn 0.70598 -0.55547 -0.43936
vn 0.78279 -0.62229 -0.00002
vn 0.60232 -0.46772 -0.64688
vn 0.58161 -0.46099 -0.67024
vn -0.03345 -0.03986 -0.99865
vn -0.03543 -0.04647 -0.99829
vn -0.02249 -0.01915 -0.99956
vn -0.63374 0.34843 -0.69063
vn -0.66122 0.34203 -0.66768
vn -0.76851 0.41619 -0.48598
vn -0.74097 0.45118 -0.49740
vn -0.59180 0.37122 -0.71552
vn -0.00971 0.00614 -0.99993
vn -0.66421 0.55889 -0.49646
vn -0.51592 0.44875 -0.72969
vn 0.03282 0.06671 -0.99723
vn -0.85901 0.51197 0.00007
vn -0.77263 0.63486 -0.00015
vn -0.45653 0.88971 0.00062
vn -0.18302 0.98311 0.00161
vn 0.58328 0.81227 0.00007
vn 0.99573 0.09225 -0.00163
vn -0.88156 0.47208 -0.00001
vn 0.58780 -0.80901 -0.00009
vn 0.55854 0.78375 0.27161
vn 0.52047 0.73648 0.43209
vn 0.71968 -0.13105 0.68182
vn 0.87369 -0.16581 0.45735
vn 0.91774 0.06643 0.39158
vn 0.79450 0.03941 0.60598
vn 0.19843 0.28497 0.93777
vn 0.13460 0.20128 0.97024
vn -0.18544 0.90621 0.37999
vn -0.40473 0.79754 0.44735
vn -0.32941 0.65758 0.67756
vn -0.17941 0.78089 0.59835
vn 0.14822 -0.20507 0.96746
vn 0.20836 -0.29585 0.93223
vn 0.53843 -0.72936 0.42205
vn 0.56944 -0.77780 0.26601
vn 0.91526 -0.08808 0.39311
vn 0.87361 0.15644 0.46079
vn 0.71596 0.12236 0.68734
vn 0.79163 -0.05444 0.60857
vn -0.32508 -0.65963 0.67765
vn -0.40359 -0.79217 0.45780
vn -0.19055 -0.90064 0.39056
vn -0.17503 -0.78008 0.60069
vn -0.64952 -0.57002 0.50319
vn -0.50519 -0.46275 0.72845
vn -0.58248 -0.37675 0.72026
vn -0.73322 -0.45920 0.50152
vn 0.05070 -0.06709 0.99646
vn 0.00017 -0.00380 0.99999
vn 0.71229 0.48714 0.50531
vn 0.64812 0.57487 0.49946
vn 0.53186 0.45576 0.71373
vn 0.56773 0.36946 0.73565
vn -0.77097 -0.40993 0.48740
vn 0.75250 0.52413 0.39880
vn 0.71805 0.54822 0.42879
vn 0.79342 0.49195 0.35843
vn 0.72501 0.44049 0.52946
vn 0.67401 0.45626 0.58098
vn 0.84266 0.43747 0.31391
vn 0.78415 0.40371 0.47131
vn 0.89993 0.34178 0.27076
vn -0.80628 -0.38786 0.44663
vn -0.83989 -0.34164 0.42174
vn -0.78273 -0.40943 0.46873
vn -0.65699 -0.34929 0.66811
vn -0.68907 -0.33711 0.64151
vn -0.63183 -0.34127 0.69594
vn -0.01967 0.02328 0.99954
vn -0.02847 0.04001 0.99879
vn 0.66309 0.57029 0.48486
vn 0.67653 0.56936 0.46705
vn 0.57661 0.48011 0.66107
vn 0.55610 0.46970 0.68566
vn 0.69072 0.56698 0.44881
vn 0.59583 0.48700 0.63860
vn 0.62946 0.47344 0.61614
vn -0.03109 0.05390 0.99806
vn -0.03423 0.05269 0.99802
vn -0.02557 0.05736 0.99803
vn -0.86950 -0.29801 0.39390
vn -0.73094 -0.30289 0.61154
vn -0.77154 -0.27008 0.57601
vn -0.81332 -0.22905 0.53483
vn -0.89866 -0.24942 0.36082
vn -0.03094 0.08843 0.99560
vn -0.85721 -0.17374 0.48477
vn -0.92699 -0.19014 0.32332
vn -0.03032 0.13748 0.99004
vn -0.89508 -0.11132 0.43180
vn -0.94925 -0.12547 0.28840
vn -0.00490 0.15686 0.98761
vn 0.02911 0.10725 0.99381
vn 0.95147 0.19635 0.23698
vn 0.91203 0.18552 0.36576
vn 0.85230 0.32047 0.41337
vn 0.97475 0.00054 0.22330
vn 0.93717 0.00036 0.34887
vn -0.96282 -0.06416 0.26240
vn -0.96853 -0.00222 0.24888
vn -0.91747 -0.05670 0.39375
vn -0.92585 -0.00386 0.37786
vn -0.91703 0.05719 0.39469
vn -0.96368 0.06424 0.25923
vn 0.04305 -0.00216 0.99907
vn 0.02057 -0.10590 0.99416
vn -0.01398 -0.14584 0.98921
vn 0.95148 -0.20184 0.23227
vn 0.90120 -0.34497 0.26238
vn 0.85258 -0.32580 0.40862
vn 0.91055 -0.19358 0.36528
vn -0.94653 0.13057 0.29500
vn -0.92127 0.19345 0.33741
vn -0.88774 0.11916 0.44465
vn -0.84648 0.17458 0.50299
vn -0.80389 0.22401 0.55099
vn -0.89381 0.25097 0.37165
vn -0.02478 -0.13267 0.99085
vn -0.01856 -0.09664 0.99515
vn 0.84691 -0.43488 0.30597
vn 0.79414 -0.49596 0.35123
vn 0.72199 -0.44440 0.53032
vn 0.78733 -0.40097 0.46833
vn -0.86934 0.29280 0.39813
vn 0.66670 -0.56833 0.48219
vn 0.69110 -0.55635 0.46137
vn 0.64265 -0.58167 0.49866
vn 0.52475 -0.46003 0.71625
vn 0.55494 -0.46208 0.69175
vn 0.71136 -0.48970 0.50415
vn 0.56727 -0.37532 0.73303
vn -0.80891 0.38083 0.44792
vn -0.78620 0.40235 0.46904
vn -0.84103 0.33655 0.42355
vn -0.72695 0.29794 0.61868
vn -0.68860 0.33110 0.64514
vn -0.76616 0.26109 0.58723
vn -0.02022 -0.06624 0.99760
vn -0.02947 -0.05185 0.99822
vn 0.75462 -0.52821 0.38928
vn 0.72774 -0.54477 0.41669
vn 0.63138 -0.46629 0.61962
vn 0.66911 -0.46055 0.58326
vn 0.70593 -0.55556 0.43934
vn 0.60225 -0.46783 0.64687
vn 0.58174 -0.46091 0.67017
vn -0.03344 -0.03977 0.99865
vn -0.03546 -0.04664 0.99828
vn -0.02252 -0.01922 0.99956
vn -0.76847 0.41622 0.48603
vn -0.66089 0.34280 0.66762
vn -0.63368 0.34839 0.69071
vn -0.59183 0.37025 0.71600
vn -0.74096 0.45078 0.49776
vn -0.00978 0.00595 0.99993
vn -0.51633 0.44794 0.72990
vn -0.66461 0.55842 0.49645
vn 0.03276 0.06659 0.99724
f 1//1 2//1 5//2 6//2
f 1//3 6//4 7//5 8//6
f 1//7 8//8 9//8 2//7
f 2//9 9//10 10//11 5//12
f 3//13 4//13 11//14 12//14
f 3//15 13//16 14//16 4//15
f 3//17 12//18 15//19 13//20
f 4//21 14//22 16//23 11//24
f 16//23 14//22 17//25 18//26
f 16//23 18//26 19//27 20//28
f 16//23 20//28 21//29 11//24
f 21//29 20//28 22//30 23//31
f 21//32 23//33 24//33 25//32
f 21//32 25//32 12//14 11//14
f 25//34 24//35 26//36 27//37
f 25//34 27//37 15//19 12//18
f 27//37 26//36 136//38 137//39
f 27//37 137//39 138//40 15//19
f 138//40 28//41 13//20 15//19
f 139//42 29//43 30//44 22//30
f 139//42 22//30 20//28 19//27
f 33//45 32//46 35//47 36//48
f 33//45 36//48 37//49 34//50
f 37//49 36//48 38//51 39//52
f 37//49 39//52 40//53 41//54
f 37//49 41//54 42//55 34//50
f 42//55 41//54 43//56 44//57
f 140//58 46//59 47//60 48//61
f 140//58 48//61 49//62 31//63
f 49//62 30//44 29//43 31//63
f 49//62 48//61 50//64 51//65
f 49//62 51//65 52//66 30//44
f 52//66 23//31 22//30 30//44
f 52//67 51//68 53//68 54//67
f 52//67 54//67 24//33 23//33
f 54//69 53//70 55//71 56//72
f 54//69 56//72 26//36 24//35
f 56//72 55//71 141//73 142//74
f 56//72 142//74 136//38 26//36
f 141//73 55//71 57//75 143//76
f 57//75 55//71 53//70 58//77
f 57//75 58//77 59//78 35//47
f 57//75 35//47 32//46 143//76
f 59//79 58//80 50//80 60//79
f 59//79 60//79 61//81 38//81
f 59//78 38//51 36//48 35//47
f 61//82 60//83 47//60 62//84
f 61//82 62//84 63//85 64//86
f 61//81 64//87 39//87 38//81
f 64//86 63//85 65//88 66//89
f 64//87 66//90 40//90 39//87
f 66//89 65//88 67//91 68//92
f 66//90 68//93 69//93 40//90
f 69//93 68//93 70//94 71//94
f 69//95 71//96 72//97 43//56
f 69//95 43//56 41//54 40//53
f 72//97 71//96 73//98 74//99
f 72//97 74//99 144//100 145//101
f 72//97 145//101 44//57 43//56
f 76//102 75//103 65//88 63//85
f 76//102 63//85 62//84 45//104
f 75//103 146//105 67//91 65//88
f 146//105 147//106 77//107 67//91
f 77//107 147//106 78//108 79//109
f 77//107 79//109 80//110 70//111
f 77//107 70//111 68//92 67//91
f 80//110 79//109 81//112 82//113
f 80//114 82//115 83//115 73//114
f 80//114 73//114 71//94 70//94
f 83//115 82//115 84//116 85//116
f 83//117 85//118 86//119 87//120
f 83//117 87//120 74//99 73//98
f 87//120 86//119 88//121 148//122
f 87//120 148//122 144//100 74//99
f 89//123 149//124 90//125 81//112
f 89//123 81//112 79//109 78//108
f 90//125 149//124 150//126 91//127
f 90//125 91//127 92//128 84//129
f 90//125 84//129 82//113 81//112
f 92//128 91//127 93//130 94//131
f 92//132 94//133 95//133 96//132
f 92//132 96//132 85//116 84//116
f 96//134 95//135 97//136 98//137
f 96//134 98//137 86//119 85//118
f 98//137 97//136 151//138 99//139
f 98//137 99//139 88//121 86//119
f 152//140 100//141 101//142 93//130
f 152//140 93//130 91//127 150//126
f 103//143 153//144 105//145 106//146
f 103//143 106//146 107//147 104//148
f 107//147 106//146 108//149 109//150
f 107//147 109//150 110//151 111//152
f 107//147 111//152 112//153 104//148
f 112//153 111//152 7//5 113//154
f 155//155 154//156 114//157 115//158
f 155//155 115//158 116//159 102//160
f 116//159 101//142 100//141 102//160
f 116//159 115//158 117//161 118//162
f 116//159 118//162 119//163 101//142
f 119//163 94//131 93//130 101//142
f 119//164 118//165 120//165 121//164
f 119//164 121//164 95//133 94//133
f 121//166 120//167 122//168 123//169
f 121//166 123//169 97//136 95//135
f 123//169 122//168 156//170 157//171
f 123//169 157//171 151//138 97//136
f 156//170 122//168 124//172 158//173
f 124//172 122//168 120//167 125//174
f 124//172 125//174 126//175 105//145
f 124//172 105//145 153//144 158//173
f 126//176 125//177 117//177 127//176
f 126//176 127//176 128//178 108//178
f 126//175 108//149 106//146 105//145
f 128//179 127//180 114//157 129//181
f 128//179 129//181 130//182 131//183
f 128//178 131//184 109//184 108//178
f 131//183 130//182 132//185 133//186
f 131//184 133//187 110//187 109//184
f 133//186 132//185 10//11 9//10
f 133//187 9//8 8//8 110//187
f 132//185 130//182 159//188 160//189
f 132//185 160//189 134//190 10//11
f 134//190 135//191 5//12 10//11
f 135//192 161//192 6//2 5//2
f 161//193 113//154 7//5 6//4
f 159//188 130//182 129//181 162//194
f 129//181 114//157 154//156 162//194
f 127//180 117//161 115//158 114//157
f 125//177 120//165 118//165 117//177
f 111//152 110//151 8//6 7//5
f 62//84 47//60 46//59 45//104
f 60//83 50//64 48//61 47//60
f 58//80 53//68 51//68 50//80
f 28//195 17//195 14//16 13//16
f 168//196 167//196 164//197 163//197
f 170//198 169//199 168//200 163//201
f 164//202 171//203 170//203 163//202
f 167//204 172//205 171//206 164//207
f 174//208 173//208 166//209 165//209
f 166//210 176//211 175//211 165//210
f 175//212 177//213 174//214 165//215
f 173//216 178//217 176//218 166//219
f 18//26 17//25 176//218 178//217
f 179//220 19//27 18//26 178//217
f 173//216 180//221 179//220 178//217
f 182//222 181//223 179//220 180//221
f 184//224 183//225 182//225 180//224
f 173//208 174//208 184//224 180//224
f 186//226 185//227 183//228 184//229
f 174//214 177//213 186//226 184//229
f 137//39 136//38 185//227 186//226
f 177//213 138//40 137//39 186//226
f 177//213 175//212 28//41 138//40
f 181//223 187//230 29//43 139//42
f 19//27 179//220 181//223 139//42
f 189//231 188//232 32//46 33//45
f 34//50 190//233 189//231 33//45
f 192//234 191//235 189//231 190//233
f 194//236 193//237 192//234 190//233
f 34//50 42//55 194//236 190//233
f 44//57 195//238 194//236 42//55
f 197//239 196//240 46//59 140//58
f 31//63 198//241 197//239 140//58
f 31//63 29//43 187//230 198//241
f 200//242 199//243 197//239 198//241
f 187//230 201//244 200//242 198//241
f 187//230 181//223 182//222 201//244
f 203//245 202//246 200//246 201//245
f 182//225 183//225 203//245 201//245
f 205//247 204//248 202//249 203//250
f 183//228 185//227 205//247 203//250
f 142//74 141//73 204//248 205//247
f 185//227 136//38 142//74 205//247
f 143//76 206//251 204//248 141//73
f 207//252 202//249 204//248 206//251
f 188//232 208//253 207//252 206//251
f 143//76 32//46 188//232 206//251
f 209//254 199//255 207//255 208//254
f 191//256 210//256 209//254 208//254
f 188//232 189//231 191//235 208//253
f 211//257 196//240 209//258 210//259
f 213//260 212//261 211//257 210//259
f 191//256 192//262 213//262 210//256
f 215//263 214//264 212//261 213//260
f 192//262 193//265 215//265 213//262
f 217//266 216//267 214//264 215//263
f 193//265 218//268 217//268 215//265
f 220//269 219//269 217//268 218//268
f 195//238 221//270 220//271 218//272
f 193//237 194//236 195//238 218//272
f 223//273 222//274 220//271 221//270
f 145//101 144//100 223//273 221//270
f 195//238 44//57 145//101 221//270
f 212//261 214//264 75//103 76//102
f 45//104 211//257 212//261 76//102
f 214//264 216//267 146//105 75//103
f 216//267 224//275 147//106 146//105
f 225//276 78//108 147//106 224//275
f 219//277 226//278 225//276 224//275
f 216//267 217//266 219//277 224//275
f 228//279 227//280 225//276 226//278
f 222//281 229//282 228//282 226//281
f 219//269 220//269 222//281 226//281
f 231//283 230//283 228//282 229//282
f 233//284 232//285 231//286 229//287
f 222//274 223//273 233//284 229//287
f 148//122 88//121 232//285 233//284
f 223//273 144//100 148//122 233//284
f 227//280 234//288 149//124 89//123
f 78//108 225//276 227//280 89//123
f 235//289 150//126 149//124 234//288
f 230//290 236//291 235//289 234//288
f 227//280 228//279 230//290 234//288
f 238//292 237//293 235//289 236//291
f 240//294 239//295 238//295 236//294
f 230//283 231//283 240//294 236//294
f 242//296 241//297 239//298 240//299
f 231//286 232//285 242//296 240//299
f 99//139 151//138 241//297 242//296
f 232//285 88//121 99//139 242//296
f 237//293 243//300 100//141 152//140
f 150//126 235//289 237//293 152//140
f 245//301 244//302 153//144 103//143
f 104//148 246//303 245//301 103//143
f 248//304 247//305 245//301 246//303
f 250//306 249//307 248//304 246//303
f 104//148 112//153 250//306 246//303
f 113//154 169//199 250//306 112//153
f 252//308 251//309 154//156 155//155
f 102//160 253//310 252//308 155//155
f 102//160 100//141 243//300 253//310
f 255//311 254//312 252//308 253//310
f 243//300 256//313 255//311 253//310
f 243//300 237//293 238//292 256//313
f 258//314 257//315 255//315 256//314
f 238//295 239//295 258//314 256//314
f 260//316 259//317 257//318 258//319
f 239//298 241//297 260//316 258//319
f 157//171 156//170 259//317 260//316
f 241//297 151//138 157//171 260//316
f 158//173 261//320 259//317 156//170
f 262//321 257//318 259//317 261//320
f 244//302 263//322 262//321 261//320
f 158//173 153//144 244//302 261//320
f 264//323 254//324 262//324 263//323
f 247//325 265//325 264//323 263//323
f 244//302 245//301 247//305 263//322
f 266//326 251//309 264//327 265//328
f 268//329 267//330 266//326 265//328
f 247//325 248//331 268//331 265//325
f 270//332 269//333 267//330 268//329
f 248//331 249//334 270//334 268//331
f 171//206 172//205 269//333 270//332
f 249//334 170//203 171//203 270//334
f 160//189 159//188 267//330 269//333
f 172//205 134//190 160//189 269//333
f 172//205 167//204 135//191 134//190
f 167//196 168//196 161//192 135//192
f 168//200 169//199 113//154 161//193
f 162//194 266//326 267//330 159//188
f 162//194 154//156 251//309 266//326
f 251//309 252//308 254//312 264//327
f 254//324 255//315 257//315 262//324
f 169//199 170//198 249//307 250//306
f 45//104 46//59 196//240 211//257
f 196//240 197//239 199//243 209//258
f 199//255 200//246 202//246 207//255
f 175//211 176//211 17//195 28//195
