# pilowlava3D glyph ')' variant 1 — Vincent Wagner / Velvetyne, Free Art License
v 0.15195 5.25608 0.34771
v 0.30077 5.36000 0.34769
v 0.15150 0.21914 0.34729
v 0.28988 0.11135 0.34113
v 0.30534 5.44571 0.20927
v 0.06715 5.27503 0.20983
v 0.05399 5.01182 0.23515
v 0.20788 5.10491 0.40559
v 0.43055 5.26960 0.40255
v 0.56393 5.38743 0.23298
v 0.41967 0.20621 0.40313
v 0.20280 0.36991 0.40231
v 0.06566 0.19770 0.20702
v 0.30045 0.02745 0.20604
v 0.04785 0.46626 0.23458
v 0.55453 0.08920 0.23526
v 0.30136 0.00000 -0.00000
v 0.58868 0.05026 -0.00000
v 0.77861 0.22957 -0.00000
v 0.72639 0.26378 0.24863
v 0.56039 0.37709 0.43424
v 0.86317 0.46278 0.25536
v 0.69559 0.56098 0.43993
v 0.47185 0.72407 0.44066
v 0.32977 0.55070 0.43416
v 0.32941 0.84986 0.25249
v 0.16949 0.68222 0.25040
v 0.04379 0.18766 -0.00000
v 1.03320 0.64421 -0.00000
v 0.97628 0.67373 0.25056
v 1.14153 0.85429 -0.00000
v 0.85761 1.56918 -0.00000
v 0.99133 1.74293 -0.00000
v 1.11496 1.92006 -0.00000
v 0.90130 1.54041 0.22777
v 1.02988 1.71996 0.22002
v 1.14919 1.90475 0.20839
v 1.13355 1.66348 0.38321
v 1.24360 1.86929 0.36682
v 1.33670 2.08063 0.33854
v 1.25523 2.09834 0.18881
v 1.22597 2.10365 -0.00000
v 1.34164 2.30099 0.16240
v 1.31995 2.29900 -0.00000
v 1.42719 1.52238 -0.00000
v 1.34463 1.29312 -0.00000
v 1.29964 1.31387 0.22965
v 1.19942 1.09220 0.23686
v 1.08627 0.88204 0.24353
v 1.07096 1.16394 0.41235
v 0.94441 0.96308 0.42600
v 0.82111 0.76187 0.43495
v 0.75040 1.09349 0.42614
v 0.61314 0.90445 0.43605
v 0.62256 1.19089 0.24399
v 0.47893 1.01673 0.24988
v 0.76496 1.36410 0.23484
v 0.88589 1.28075 0.41255
v 1.01450 1.46746 0.39701
v 1.18329 1.37138 0.39658
v 1.28265 1.58861 0.38386
v 1.38589 1.53964 0.22274
v 1.46094 1.76977 0.21236
v 1.37137 1.81435 0.36749
v 1.52342 2.00460 0.19635
v 1.44907 2.04128 0.33959
v 1.56871 2.24374 0.17192
v 1.50996 2.26983 0.30310
v 1.40578 2.29583 0.29880
v 1.54770 2.50112 0.26934
v 1.45020 2.51403 0.26496
v 1.40195 2.51342 0.14027
v 1.46822 2.73470 0.25120
v 1.42570 2.73450 0.13144
v 1.55009 1.99004 -0.00000
v 1.49546 1.75359 -0.00000
v 1.59863 2.48685 0.14794
v 1.62531 2.73489 -0.00000
v 1.60985 2.73449 0.13822
v 1.56286 2.73471 0.25606
v 1.59985 2.98303 0.14823
v 1.55009 2.96926 0.27030
v 1.45116 2.95497 0.26618
v 1.50805 3.19970 0.30189
v 1.40201 3.17211 0.30013
v 1.33946 3.16710 0.16316
v 1.40137 2.95502 0.13950
v 1.32011 3.16821 -0.00000
v 1.61645 2.98903 -0.00000
v 1.56940 3.22638 0.17242
v 1.52124 3.46405 0.19636
v 1.44495 3.42741 0.33694
v 1.45812 3.69876 0.21404
v 1.36559 3.65364 0.36566
v 1.23795 3.59844 0.36195
v 1.33123 3.38772 0.33477
v 1.14792 3.56415 0.21059
v 1.25303 3.37033 0.18939
v 1.22658 3.36543 -0.00000
v 1.42233 3.94530 -0.00000
v 1.38282 3.92685 0.22388
v 1.34333 4.17467 -0.00000
v 0.43828 4.41856 -0.00000
v 0.28747 4.58169 -0.00000
v 0.62341 4.28525 0.24495
v 0.48499 4.46053 0.24976
v 0.33513 4.62628 0.25271
v 0.62153 4.57137 0.43433
v 0.47800 4.75178 0.43822
v 0.33508 4.92305 0.43619
v 0.17376 4.79396 0.25066
v 0.12790 4.75669 -0.00000
v 0.00714 4.99273 -0.00000
v 1.09053 4.58708 0.24246
v 1.20007 4.37427 0.23536
v 1.29984 4.15373 0.23084
v 1.07117 4.30512 0.40832
v 1.18143 4.09721 0.39595
v 1.27779 3.88047 0.38259
v 1.00808 3.99987 0.39639
v 1.12688 3.80466 0.38081
v 0.89767 3.92892 0.23073
v 1.02714 3.74742 0.22418
v 0.76222 4.10727 0.23728
v 0.88381 4.19037 0.41019
v 0.75468 4.38059 0.42381
v 0.95025 4.50660 0.42260
v 0.82629 4.71057 0.43246
v 0.97867 4.79629 0.24856
v 0.86352 5.00586 0.25169
v 0.70055 4.91216 0.43502
v 0.73650 5.21189 0.24758
v 0.56883 5.09708 0.43169
v 0.59126 5.42251 -0.00000
v 0.30014 5.46912 -0.00000
v 0.28041 0.89439 -0.00000
v 0.12316 0.71870 -0.00000
v 0.00000 0.47972 -0.00000
v 0.91906 0.43223 -0.00000
v 1.24869 1.06762 -0.00000
v 0.57395 1.22970 -0.00000
v 0.42848 1.06033 -0.00000
v 0.71848 1.39776 -0.00000
v 1.41386 2.73442 -0.00000
v 1.38706 2.51187 -0.00000
v 1.59157 2.23196 -0.00000
v 1.61723 2.48101 -0.00000
v 1.38846 2.95576 -0.00000
v 1.59176 3.23854 -0.00000
v 1.55119 3.48006 -0.00000
v 1.11571 3.55062 -0.00000
v 1.49344 3.71510 -0.00000
v 0.58061 4.24951 -0.00000
v 1.14492 4.61585 -0.00000
v 1.24860 4.39941 -0.00000
v 0.86041 3.90405 -0.00000
v 0.99203 3.72733 -0.00000
v 0.72240 4.07807 -0.00000
v 0.91924 5.03731 -0.00000
v 0.78234 5.24337 -0.00000
v 0.04208 5.28334 -0.00000
v 1.03564 4.82803 -0.00000
v 0.15195 5.25608 -0.34771
v 0.30077 5.36000 -0.34769
v 0.15150 0.21914 -0.34729
v 0.28988 0.11135 -0.34113
v 0.30534 5.44571 -0.20927
v 0.06715 5.27503 -0.20983
v 0.05399 5.01182 -0.23515
v 0.20788 5.10491 -0.40559
v 0.43055 5.26960 -0.40255
v 0.56393 5.38743 -0.23298
v 0.41967 0.20621 -0.40313
v 0.20280 0.36991 -0.40231
v 0.06566 0.19770 -0.20702
v 0.30045 0.02745 -0.20604
v 0.04785 0.46626 -0.23458
v 0.55453 0.08920 -0.23526
v 0.72639 0.26378 -0.24863
v 0.56039 0.37709 -0.43424
v 0.86317 0.46278 -0.25536
v 0.69559 0.56098 -0.43993
v 0.47185 0.72407 -0.44066
v 0.32977 0.55070 -0.43416
v 0.32941 0.84986 -0.25249
v 0.16949 0.68222 -0.25040
v 0.97628 0.67373 -0.25056
v 0.90130 1.54041 -0.22777
v 1.02988 1.71996 -0.22002
v 1.14919 1.90475 -0.20839
v 1.13355 1.66348 -0.38321
v 1.24360 1.86929 -0.36682
v 1.33670 2.08063 -0.33854
v 1.25523 2.09834 -0.18881
v 1.34164 2.30099 -0.16240
v 1.29964 1.31387 -0.22965
v 1.19942 1.09220 -0.23686
v 1.08627 0.88204 -0.24353
v 1.07096 1.16394 -0.41235
v 0.94441 0.96308 -0.42600
v 0.82111 0.76187 -0.43495
v 0.75040 1.09349 -0.42614
v 0.61314 0.90445 -0.43605
v 0.62256 1.19089 -0.24399
v 0.47893 1.01673 -0.24988
v 0.76496 1.36410 -0.23484
v 0.88589 1.28075 -0.41255
v 1.01450 1.46746 -0.39701
v 1.18329 1.37138 -0.39658
v 1.28265 1.58861 -0.38386
v 1.38589 1.53964 -0.22274
v 1.46094 1.76977 -0.21236
v 1.37137 1.81435 -0.36749
v 1.52342 2.00460 -0.19635
v 1.44907 2.04128 -0.33959
v 1.56871 2.24374 -0.17192
v 1.50996 2.26983 -0.30310
v 1.40578 2.29583 -0.29880
v 1.54770 2.50112 -0.26934
v 1.45020 2.51403 -0.26496
v 1.40195 2.51342 -0.14027
v 1.46822 2.73470 -0.25120
v 1.42570 2.73450 -0.13144
v 1.59863 2.48685 -0.14794
v 1.60985 2.73449 -0.13822
v 1.56286 2.73471 -0.25606
v 1.59985 2.98303 -0.14823
v 1.55009 2.96926 -0.27030
v 1.45116 2.95497 -0.26618
v 1.50805 3.19970 -0.30189
v 1.40201 3.17211 -0.30013
v 1.33946 3.16710 -0.16316
v 1.40137 2.95502 -0.13950
v 1.56940 3.22638 -0.17242
v 1.52124 3.46405 -0.19636
v 1.44495 3.42741 -0.33694
v 1.45812 3.69876 -0.21404
v 1.36559 3.65364 -0.36566
v 1.23795 3.59844 -0.36195
v 1.33123 3.38772 -0.33477
v 1.14792 3.56415 -0.21059
v 1.25303 3.37033 -0.18939
v 1.38282 3.92685 -0.22388
v 0.62341 4.28525 -0.24495
v 0.48499 4.46053 -0.24976
v 0.33513 4.62628 -0.25271
v 0.62153 4.57137 -0.43433
v 0.47800 4.75178 -0.43822
v 0.33508 4.92305 -0.43619
v 0.17376 4.79396 -0.25066
v 1.09053 4.58708 -0.24246
v 1.20007 4.37427 -0.23536
v 1.29984 4.15373 -0.23084
v 1.07117 4.30512 -0.40832
v 1.18143 4.09721 -0.39595
v 1.27779 3.88047 -0.38259
v 1.00808 3.99987 -0.39639
v 1.12688 3.80466 -0.38081
v 0.89767 3.92892 -0.23073
v 1.02714 3.74742 -0.22418
v 0.76222 4.10727 -0.23728
v 0.88381 4.19037 -0.41019
v 0.75468 4.38059 -0.42381
v 0.95025 4.50660 -0.42260
v 0.82629 4.71057 -0.43246
v 0.97867 4.79629 -0.24856
v 0.86352 5.00586 -0.25169
v 0.70055 4.91216 -0.43502
v 0.73650 5.21189 -0.24758
v 0.56883 5.09708 -0.43169
vn -0.52136 0.73781 0.42875
vn -0.55883 0.78418 0.26976
vn -0.81639 -0.01088 0.57740
vn -0.92520 0.04219 0.37712
vn -0.87584 -0.17811 0.44853
vn -0.72948 -0.15708 0.66573
vn -0.19854 0.28515 0.93769
vn -0.13469 0.20142 0.97020
vn 0.23031 0.78897 0.56964
vn 0.35423 0.66065 0.66187
vn 0.41709 0.79671 0.43736
vn 0.21272 0.90743 0.36238
vn -0.20280 -0.28963 0.93541
vn -0.14539 -0.20188 0.96856
vn -0.53619 -0.72751 0.42806
vn -0.56860 -0.77728 0.26929
vn -0.81627 -0.00504 0.57765
vn -0.72724 0.14706 0.67045
vn -0.87680 0.16992 0.44984
vn -0.92548 -0.05990 0.37402
vn 0.22435 -0.78549 0.57677
vn 0.21339 -0.90068 0.37848
vn 0.41456 -0.79077 0.45035
vn 0.34961 -0.66097 0.66400
vn 0.19550 -0.98070 0.00143
vn 0.46239 -0.88668 0.00056
vn 0.76155 -0.64810 -0.00018
vn 0.64971 -0.56986 0.50313
vn 0.50516 -0.46255 0.72860
vn 0.73308 -0.45936 0.50158
vn 0.58220 -0.37704 0.72034
vn -0.05075 -0.06718 0.99645
vn -0.00017 -0.00381 0.99999
vn -0.56715 0.36944 0.73611
vn -0.53146 0.45555 0.71416
vn -0.64795 0.57488 0.49968
vn -0.71207 0.48700 0.50576
vn -0.73982 0.67280 -0.00006
vn -0.81636 0.57754 0.00018
vn -0.98309 0.18313 -0.00072
vn -0.99335 -0.11511 -0.00184
vn 0.85301 -0.52190 0.00001
vn 0.88522 -0.46518 0.00000
vn 0.77100 -0.40995 0.48734
vn -0.81424 0.58052 0.00004
vn -0.79116 0.61162 -0.00005
vn -0.71787 0.54863 0.42856
vn -0.75229 0.52497 0.39808
vn -0.79342 0.49202 0.35834
vn -0.84567 0.53371 -0.00007
vn -0.67382 0.45820 0.57967
vn -0.72514 0.44034 0.52941
vn -0.78469 0.40074 0.47294
vn -0.84316 0.43586 0.31480
vn -0.88621 0.46328 -0.00000
vn -0.90022 0.34079 0.27106
vn -0.93408 0.35706 0.00012
vn 0.90341 -0.42877 -0.00001
vn 0.92823 -0.37200 -0.00003
vn 0.83967 -0.34239 0.42158
vn 0.80608 -0.38843 0.44649
vn 0.78276 -0.40940 0.46869
vn 0.88850 -0.45887 0.00000
vn 0.68871 -0.33828 0.64129
vn 0.65700 -0.34936 0.66806
vn 0.63190 -0.34133 0.69584
vn 0.01972 0.02338 0.99953
vn 0.02851 0.04010 0.99879
vn -0.55618 0.46970 0.68560
vn -0.57634 0.48100 0.66066
vn -0.67635 0.56976 0.46681
vn -0.66310 0.57032 0.48481
vn -0.76249 0.64700 0.00000
vn -0.75374 0.65717 -0.00002
vn -0.69070 0.56707 0.44874
vn -0.77188 0.63577 -0.00000
vn -0.59583 0.48718 0.63847
vn -0.62941 0.47396 0.61580
vn 0.03105 0.05367 0.99808
vn 0.03425 0.05276 0.99802
vn 0.02554 0.05724 0.99803
vn 0.77161 -0.27015 0.57588
vn 0.73063 -0.30416 0.61129
vn 0.86956 -0.29797 0.39380
vn 0.89887 -0.24878 0.36076
vn 0.81380 -0.22761 0.53472
vn 0.03094 0.08887 0.99556
vn 0.92713 -0.18930 0.32342
vn 0.85758 -0.17155 0.48490
vn 0.03001 0.13843 0.98992
vn 0.94929 -0.12476 0.28858
vn 0.89511 -0.10957 0.43217
vn 0.00482 0.15728 0.98754
vn -0.02869 0.10693 0.99385
vn -0.85227 0.32015 0.41370
vn -0.91191 0.18677 0.36543
vn -0.95143 0.19673 0.23681
vn -0.93718 -0.00019 0.34885
vn -0.97474 0.00034 0.22332
vn -1.00000 0.00079 0.00001
vn -0.97887 0.20446 0.00001
vn 0.96441 -0.26440 0.00000
vn 0.97913 -0.20323 0.00002
vn 0.94776 -0.31899 -0.00003
vn 0.99041 -0.13814 -0.00002
vn 0.99748 -0.07100 0.00003
vn 0.96283 -0.06405 0.26239
vn 1.00000 -0.00046 0.00004
vn 0.96858 -0.00216 0.24870
vn 0.92601 -0.00392 0.37748
vn 0.91750 -0.05639 0.39371
vn 0.96374 0.06450 0.25893
vn 0.91724 0.05822 0.39406
vn -0.04258 -0.00211 0.99909
vn -0.02069 -0.10627 0.99412
vn 0.01352 -0.14649 0.98912
vn -0.91060 -0.19296 0.36547
vn -0.85262 -0.32626 0.40815
vn -0.90115 -0.34535 0.26204
vn -0.95159 -0.20121 0.23237
vn -0.93367 -0.35813 -0.00010
vn -0.97838 -0.20680 -0.00001
vn 0.99753 0.07020 0.00003
vn 0.99016 0.13997 0.00004
vn 0.94659 0.13051 0.29483
vn 0.97792 0.20897 0.00001
vn 0.92116 0.19380 0.33751
vn 0.84639 0.17447 0.50317
vn 0.88797 0.11895 0.44425
vn 0.89374 0.25131 0.37159
vn 0.80381 0.22465 0.55084
vn 0.02472 -0.13281 0.99083
vn 0.01866 -0.09729 0.99508
vn -0.78715 -0.40121 0.46843
vn -0.72204 -0.44464 0.53006
vn -0.79424 -0.49586 0.35115
vn -0.84677 -0.43511 0.30603
vn -0.84533 -0.53425 0.00006
vn -0.88816 -0.45954 0.00001
vn 0.96231 0.27196 0.00001
vn 0.94866 0.31629 0.00001
vn 0.86939 0.29284 0.39801
vn -0.75545 -0.65521 0.00002
vn -0.77534 -0.63154 0.00006
vn -0.69112 -0.55624 0.46146
vn -0.66690 -0.56788 0.48245
vn -0.64249 -0.58155 0.49900
vn -0.73372 -0.67945 0.00004
vn -0.55514 -0.46124 0.69215
vn -0.52431 -0.45976 0.71675
vn -0.56669 -0.37616 0.73305
vn -0.71104 -0.49024 0.50408
vn -0.81626 -0.57769 -0.00008
vn -0.98154 -0.19126 0.00072
vn 0.90747 0.42012 -0.00001
vn 0.89216 0.45172 0.00001
vn 0.78643 0.40185 0.46908
vn 0.80907 0.38032 0.44806
vn 0.84099 0.33665 0.42355
vn 0.93088 0.36532 -0.00001
vn 0.68883 0.33012 0.64540
vn 0.72687 0.29812 0.61870
vn 0.76622 0.26141 0.58700
vn 0.02021 -0.06638 0.99759
vn 0.02932 -0.05114 0.99826
vn -0.66940 -0.46125 0.58237
vn -0.63195 -0.46505 0.61997
vn -0.72807 -0.54416 0.41690
vn -0.75463 -0.52858 0.38876
vn -0.79744 -0.60340 0.00001
vn -0.81545 -0.57882 -0.00002
vn -0.70598 -0.55547 0.43936
vn -0.78279 -0.62229 0.00002
vn -0.60232 -0.46771 0.64688
vn -0.58160 -0.46098 0.67025
vn 0.03345 -0.03986 0.99865
vn 0.03544 -0.04647 0.99829
vn 0.02249 -0.01915 0.99956
vn 0.63374 0.34843 0.69063
vn 0.66122 0.34204 0.66768
vn 0.76850 0.41620 0.48599
vn 0.74097 0.45117 0.49740
vn 0.59181 0.37122 0.71551
vn 0.00971 0.00614 0.99993
vn 0.66421 0.55889 0.49646
vn 0.51592 0.44875 0.72969
vn -0.03282 0.06671 0.99723
vn 0.85901 0.51196 -0.00007
vn 0.77263 0.63486 0.00015
vn 0.45652 0.88971 -0.00062
vn 0.18302 0.98311 -0.00161
vn -0.58328 0.81227 -0.00007
vn -0.99573 0.09225 0.00163
vn 0.88155 0.47208 0.00001
vn -0.58780 -0.80901 0.00009
vn -0.55854 0.78374 -0.27162
vn -0.52048 0.73647 -0.43210
vn -0.71969 -0.13104 -0.68182
vn -0.87369 -0.16580 -0.45736
vn -0.91774 0.06644 -0.39158
vn -0.79451 0.03942 -0.60597
vn -0.19843 0.28498 -0.93777
vn -0.13460 0.20128 -0.97024
vn 0.18545 0.90621 -0.37999
vn 0.40472 0.79755 -0.44735
vn 0.32940 0.65758 -0.67756
vn 0.17942 0.78089 -0.59834
vn -0.14822 -0.20507 -0.96746
vn -0.20836 -0.29585 -0.93223
vn -0.53845 -0.72936 -0.42203
vn -0.56945 -0.77780 -0.26600
vn -0.91526 -0.08810 -0.39311
vn -0.87361 0.15643 -0.46079
vn -0.71596 0.12235 -0.68734
vn -0.79163 -0.05446 -0.60856
vn 0.32509 -0.65963 -0.67765
vn 0.40360 -0.79217 -0.45780
vn 0.19055 -0.90064 -0.39056
vn 0.17502 -0.78009 -0.60069
vn 0.64952 -0.57002 -0.50319
vn 0.50519 -0.46276 -0.72845
vn 0.58247 -0.37676 -0.72026
vn 0.73322 -0.45921 -0.50151
vn -0.05070 -0.06709 -0.99646
vn -0.00017 -0.00380 -0.99999
vn -0.71229 0.48715 -0.50531
vn -0.64812 0.57487 -0.49946
vn -0.53187 0.45576 -0.71372
vn -0.56772 0.36947 -0.73565
vn 0.77098 -0.40993 -0.48739
vn -0.75250 0.52412 -0.39879
vn -0.71805 0.54822 -0.42879
vn -0.79342 0.49195 -0.35843
vn -0.72500 0.44050 -0.52946
vn -0.67401 0.45626 -0.58099
vn -0.84266 0.43747 -0.31391
vn -0.78415 0.40371 -0.47131
vn -0.89993 0.34178 -0.27076
vn 0.80628 -0.38785 -0.44663
vn 0.83989 -0.34163 -0.42175
vn 0.78273 -0.40943 -0.46872
vn 0.65699 -0.34929 -0.66810
vn 0.68907 -0.33711 -0.64151
vn 0.63183 -0.34127 -0.69593
vn 0.01967 0.02328 -0.99954
vn 0.02847 0.04001 -0.99879
vn -0.66309 0.57028 -0.48486
vn -0.67653 0.56936 -0.46705
vn -0.57661 0.48011 -0.66107
vn -0.55611 0.46970 -0.68566
vn -0.69072 0.56698 -0.44881
vn -0.59584 0.48701 -0.63859
vn -0.62947 0.47345 -0.61613
vn 0.03109 0.05390 -0.99806
vn 0.03423 0.05269 -0.99802
vn 0.02557 0.05736 -0.99803
vn 0.86950 -0.29801 -0.39390
vn 0.73094 -0.30288 -0.61155
vn 0.77154 -0.27008 -0.57601
vn 0.81333 -0.22906 -0.53481
vn 0.89867 -0.24942 -0.36081
vn 0.03093 0.08843 -0.99560
vn 0.85723 -0.17374 -0.48474
vn 0.92699 -0.19014 -0.32331
vn 0.03031 0.13748 -0.99004
vn 0.89508 -0.11133 -0.43179
vn 0.94926 -0.12547 -0.28839
vn 0.00490 0.15686 -0.98761
vn -0.02911 0.10725 -0.99381
vn -0.95146 0.19635 -0.23699
vn -0.91204 0.18552 -0.36574
vn -0.85231 0.32046 -0.41337
vn -0.97475 0.00054 -0.22331
vn -0.93718 0.00036 -0.34885
vn 0.96283 -0.06417 -0.26239
vn 0.96853 -0.00221 -0.24888
vn 0.91746 -0.05671 -0.39376
vn 0.92584 -0.00385 -0.37789
vn 0.91703 0.05718 -0.39470
vn 0.96367 0.06423 -0.25924
vn -0.04306 -0.00217 -0.99907
vn -0.02057 -0.10590 -0.99416
vn 0.01398 -0.14584 -0.98921
vn -0.95148 -0.20185 -0.23226
vn -0.90120 -0.34497 -0.26236
vn -0.85258 -0.32580 -0.40860
vn -0.91056 -0.19359 -0.36525
vn 0.94653 0.13057 -0.29500
vn 0.92126 0.19346 -0.33741
vn 0.88774 0.11916 -0.44465
vn 0.84647 0.17459 -0.50299
vn 0.80389 0.22400 -0.55099
vn 0.89381 0.25095 -0.37165
vn 0.02478 -0.13267 -0.99085
vn 0.01856 -0.09664 -0.99515
vn -0.84692 -0.43488 -0.30596
vn -0.79413 -0.49597 -0.35123
vn -0.72198 -0.44441 -0.53033
vn -0.78734 -0.40097 -0.46832
vn 0.86934 0.29280 -0.39814
vn -0.66670 -0.56833 -0.48219
vn -0.69110 -0.55635 -0.46137
vn -0.64265 -0.58167 -0.49867
vn -0.52474 -0.46002 -0.71626
vn -0.55493 -0.46207 -0.69176
vn -0.71136 -0.48969 -0.50415
vn -0.56727 -0.37532 -0.73303
vn 0.80891 0.38083 -0.44793
vn 0.78620 0.40236 -0.46904
vn 0.84103 0.33655 -0.42356
vn 0.72695 0.29794 -0.61869
vn 0.68859 0.33110 -0.64515
vn 0.76616 0.26108 -0.58723
vn 0.02022 -0.06624 -0.99760
vn 0.02947 -0.05185 -0.99822
vn -0.75462 -0.52821 -0.38929
vn -0.72774 -0.54476 -0.41669
vn -0.63139 -0.46628 -0.61962
vn -0.66911 -0.46055 -0.58326
vn -0.70593 -0.55556 -0.43934
vn -0.60224 -0.46782 -0.64687
vn -0.58173 -0.46090 -0.67019
vn 0.03344 -0.03977 -0.99865
vn 0.03546 -0.04664 -0.99828
vn 0.02252 -0.01922 -0.99956
vn 0.76846 0.41622 -0.48603
vn 0.66088 0.34281 -0.66762
vn 0.63368 0.34839 -0.69070
vn 0.59183 0.37025 -0.71600
vn 0.74097 0.45078 -0.49776
vn 0.00978 0.00595 -0.99993
vn 0.51633 0.44794 -0.72990
vn 0.66462 0.55841 -0.49645
vn -0.03276 0.06659 -0.99724
f 1//1 2//1 5//2 6//2
f 1//3 6//4 7//5 8//6
f 1//7 8//8 9//8 2//7
f 2//9 9//10 10//11 5//12
f 3//13 4//13 11//14 12//14
f 3//15 13//16 14//16 4//15
f 3//17 12//18 15//19 13//20
f 4//21 14//22 16//23 11//24
f 16//23 14//22 17//25 18//26
f 16//23 18//26 19//27 20//28
f 16//23 20//28 21//29 11//24
f 21//29 20//28 22//30 23//31
f 21//32 23//33 24//33 25//32
f 21//32 25//32 12//14 11//14
f 25//34 24//35 26//36 27//37
f 25//34 27//37 15//19 12//18
f 27//37 26//36 136//38 137//39
f 27//37 137//39 138//40 15//19
f 138//40 28//41 13//20 15//19
f 139//42 29//43 30//44 22//30
f 139//42 22//30 20//28 19//27
f 33//45 32//46 35//47 36//48
f 33//45 36//48 37//49 34//50
f 37//49 36//48 38//51 39//52
f 37//49 39//52 40//53 41//54
f 37//49 41//54 42//55 34//50
f 42//55 41//54 43//56 44//57
f 140//58 46//59 47//60 48//61
f 140//58 48//61 49//62 31//63
f 49//62 30//44 29//43 31//63
f 49//62 48//61 50//64 51//65
f 49//62 51//65 52//66 30//44
f 52//66 23//31 22//30 30//44
f 52//67 51//68 53//68 54//67
f 52//67 54//67 24//33 23//33
f 54//69 53//70 55//71 56//72
f 54//69 56//72 26//36 24//35
f 56//72 55//71 141//73 142//74
f 56//72 142//74 136//38 26//36
f 141//73 55//71 57//75 143//76
f 57//75 55//71 53//70 58//77
f 57//75 58//77 59//78 35//47
f 57//75 35//47 32//46 143//76
f 59//79 58//80 50//80 60//79
f 59//79 60//79 61//81 38//81
f 59//78 38//51 36//48 35//47
f 61//82 60//83 47//60 62//84
f 61//82 62//84 63//85 64//86
f 61//81 64//87 39//87 38//81
f 64//86 63//85 65//88 66//89
f 64//87 66//90 40//90 39//87
f 66//89 65//88 67//91 68//92
f 66//90 68//93 69//93 40//90
f 69//93 68//93 70//94 71//94
f 69//95 71//96 72//97 43//56
f 69//95 43//56 41//54 40//53
f 72//97 71//96 73//98 74//99
f 72//97 74//99 144//100 145//101
f 72//97 145//101 44//57 43//56
f 76//102 75//103 65//88 63//85
f 76//102 63//85 62//84 45//104
f 75//103 146//105 67//91 65//88
f 146//105 147//106 77//107 67//91
f 77//107 147//106 78//108 79//109
f 77//107 79//109 80//110 70//111
f 77//107 70//111 68//92 67//91
f 80//110 79//109 81//112 82//113
f 80//114 82//115 83//115 73//114
f 80//114 73//114 71//94 70//94
f 83//115 82//115 84//116 85//116
f 83//117 85//118 86//119 87//120
f 83//117 87//120 74//99 73//98
f 87//120 86//119 88//121 148//122
f 87//120 148//122 144//100 74//99
f 89//123 149//124 90//125 81//112
f 89//123 81//112 79//109 78//108
f 90//125 149//124 150//126 91//127
f 90//125 91//127 92//128 84//129
f 90//125 84//129 82//113 81//112
f 92//128 91//127 93//130 94//131
f 92//132 94//133 95//133 96//132
f 92//132 96//132 85//116 84//116
f 96//134 95//135 97//136 98//137
f 96//134 98//137 86//119 85//118
f 98//137 97//136 151//138 99//139
f 98//137 99//139 88//121 86//119
f 152//140 100//141 101//142 93//130
f 152//140 93//130 91//127 150//126
f 103//143 153//144 105//145 106//146
f 103//143 106//146 107//147 104//148
f 107//147 106//146 108//149 109//150
f 107//147 109//150 110//151 111//152
f 107//147 111//152 112//153 104//148
f 112//153 111//152 7//5 113//154
f 155//155 154//156 114//157 115//158
f 155//155 115//158 116//159 102//160
f 116//159 101//142 100//141 102//160
f 116//159 115//158 117//161 118//162
f 116//159 118//162 119//163 101//142
f 119//163 94//131 93//130 101//142
f 119//164 118//165 120//165 121//164
f 119//164 121//164 95//133 94//133
f 121//166 120//167 122//168 123//169
f 121//166 123//169 97//136 95//135
f 123//169 122//168 156//170 157//171
f 123//169 157//171 151//138 97//136
f 156//170 122//168 124//172 158//173
f 124//172 122//168 120//167 125//174
f 124//172 125//174 126//175 105//145
f 124//172 105//145 153//144 158//173
f 126//176 125//177 117//177 127//176
f 126//176 127//176 128//178 108//178
f 126//175 108//149 106//146 105//145
f 128//179 127//180 114//157 129//181
f 128//179 129//181 130//182 131//183
f 128//178 131//184 109//184 108//178
f 131//183 130//182 132//185 133//186
f 131//184 133//187 110//187 109//184
f 133//186 132//185 10//11 9//10
f 133//187 9//8 8//8 110//187
f 132//185 130//182 159//188 160//189
f 132//185 160//189 134//190 10//11
f 134//190 135//191 5//12 10//11
f 135//192 161//192 6//2 5//2
f 161//193 113//154 7//5 6//4
f 159//188 130//182 129//181 162//194
f 129//181 114//157 154//156 162//194
f 127//180 117//161 115//158 114//157
f 125//177 120//165 118//165 117//177
f 111//152 110//151 8//6 7//5
f 62//84 47//60 46//59 45//104
f 60//83 50//64 48//61 47//60
f 58//80 53//68 51//68 50//80
f 28//195 17//195 14//16 13//16
f 168//196 167//196 164//197 163//197
f 170//198 169//199 168//200 163//201
f 164//202 171//203 170//203 163//202
f 167//204 172//205 171//206 164//207
f 174//208 173//208 166//209 165//209
f 166//210 176//211 175//211 165//210
f 175//212 177//213 174//214 165//215
f 173//216 178//217 176//218 166//219
f 18//26 17//25 176//218 178//217
f 179//220 19//27 18//26 178//217
f 173//216 180//221 179//220 178//217
f 182//222 181//223 179//220 180//221
f 184//224 183//225 182//225 180//224
f 173//208 174//208 184//224 180//224
f 186//226 185//227 183//228 184//229
f 174//214 177//213 186//226 184//229
f 137//39 136//38 185//227 186//226
f 177//213 138//40 137//39 186//226
f 177//213 175//212 28//41 138//40
f 181//223 187//230 29//43 139//42
f 19//27 179//220 181//223 139//42
f 189//231 188//232 32//46 33//45
f 34//50 190//233 189//231 33//45
f 192//234 191//235 189//231 190//233
f 194//236 193//237 192//234 190//233
f 34//50 42//55 194//236 190//233
f 44//57 195//238 194//236 42//55
f 197//239 196//240 46//59 140//58
f 31//63 198//241 197//239 140//58
f 31//63 29//43 187//230 198//241
f 200//242 199//243 197//239 198//241
f 187//230 201//244 200//242 198//241
f 187//230 181//223 182//222 201//244
f 203//245 202//246 200//246 201//245
f 182//225 183//225 203//245 201//245
f 205//247 204//248 202//249 203//250
f 183//228 185//227 205//247 203//250
f 142//74 141//73 204//248 205//247
f 185//227 136//38 142//74 205//247
f 143//76 206//251 204//248 141//73
f 207//252 202//249 204//248 206//251
f 188//232 208//253 207//252 206//251
f 143//76 32//46 188//232 206//251
f 209//254 199//255 207//255 208//254
f 191//256 210//256 209//254 208//254
f 188//232 189//231 191//235 208//253
f 211//257 196//240 209//258 210//259
f 213//260 212//261 211//257 210//259
f 191//256 192//262 213//262 210//256
f 215//263 214//264 212//261 213//260
f 192//262 193//265 215//265 213//262
f 217//266 216//267 214//264 215//263
f 193//265 218//268 217//268 215//265
f 220//269 219//269 217//268 218//268
f 195//238 221//270 220//271 218//272
f 193//237 194//236 195//238 218//272
f 223//273 222//274 220//271 221//270
f 145//101 144//100 223//273 221//270
f 195//238 44//57 145//101 221//270
f 212//261 214//264 75//103 76//102
f 45//104 211//257 212//261 76//102
f 214//264 216//267 146//105 75//103
f 216//267 224//275 147//106 146//105
f 225//276 78//108 147//106 224//275
f 219//277 226//278 225//276 224//275
f 216//267 217//266 219//277 224//275
f 228//279 227//280 225//276 226//278
f 222//281 229//282 228//282 226//281
f 219//269 220//269 222//281 226//281
f 231//283 230//283 228//282 229//282
f 233//284 232//285 231//286 229//287
f 222//274 223//273 233//284 229//287
f 148//122 88//121 232//285 233//284
f 223//273 144//100 148//122 233//284
f 227//280 234//288 149//124 89//123
f 78//108 225//276 227//280 89//123
f 235//289 150//126 149//124 234//288
f 230//290 236//291 235//289 234//288
f 227//280 228//279 230//290 234//288
f 238//292 237//293 235//289 236//291
f 240//294 239//295 238//295 236//294
f 230//283 231//283 240//294 236//294
f 242//296 241//297 239//298 240//299
f 231//286 232//285 242//296 240//299
f 99//139 151//138 241//297 242//296
f 232//285 88//121 99//139 242//296
f 237//293 243//300 100//141 152//140
f 150//126 235//289 237//293 152//140
f 245//301 244//302 153//144 103//143
f 104//148 246//303 245//301 103//143
f 248//304 247//305 245//301 246//303
f 250//306 249//307 248//304 246//303
f 104//148 112//153 250//306 246//303
f 113//154 169//199 250//306 112//153
f 252//308 251//309 154//156 155//155
f 102//160 253//310 252//308 155//155
f 102//160 100//141 243//300 253//310
f 255//311 254//312 252//308 253//310
f 243//300 256//313 255//311 253//310
f 243//300 237//293 238//292 256//313
f 258//314 257//315 255//315 256//314
f 238//295 239//295 258//314 256//314
f 260//316 259//317 257//318 258//319
f 239//298 241//297 260//316 258//319
f 157//171 156//170 259//317 260//316
f 241//297 151//138 157//171 260//316
f 158//173 261//320 259//317 156//170
f 262//321 257//318 259//317 261//320
f 244//302 263//322 262//321 261//320
f 158//173 153//144 244//302 261//320
f 264//323 254//324 262//324 263//323
f 247//325 265//325 264//323 263//323
f 244//302 245//301 247//305 263//322
f 266//326 251//309 264//327 265//328
f 268//329 267//330 266//326 265//328
f 247//325 248//331 268//331 265//325
f 270//332 269//333 267//330 268//329
f 248//331 249//334 270//334 268//331
f 171//206 172//205 269//333 270//332
f 249//334 170//203 171//203 270//334
f 160//189 159//188 267//330 269//333
f 172//205 134//190 160//189 269//333
f 172//205 167//204 135//191 134//190
f 167//196 168//196 161//192 135//192
f 168//200 169//199 113//154 161//193
f 162//194 266//326 267//330 159//188
f 162//194 154//156 251//309 266//326
f 251//309 252//308 254//312 264//327
f 254//324 255//315 257//315 262//324
f 169//199 170//198 249//307 250//306
f 45//104 46//59 196//240 211//257
f 196//240 197//239 199//243 209//258
f 199//255 200//246 202//246 207//255
f 175//211 176//211 17//195 28//195
