# pilowlava3D glyph '%' variant 1 — Vincent Wagner / Velvetyne, Free Art License
v 3.27679 4.21427 -0.42445
v 1.21477 3.65539 -0.21523
v 3.87230 4.14541 -0.27566
v 1.67136 3.62029 -0.23718
v 0.50868 0.20440 -0.14286
v 0.67497 0.07436 -0.14085
v 3.08484 4.39065 -0.32776
v 3.15634 4.49015 -0.22233
v 3.42909 4.45426 -0.29118
v 3.71870 4.32644 -0.31879
v 3.58289 4.07073 -0.46761
v 3.42215 3.81782 -0.48689
v 3.20195 3.93282 -0.46264
v 3.01514 3.98807 -0.26588
v 3.07361 4.17655 -0.24361
v 3.03502 4.31687 -0.21864
v 1.19000 3.68032 0.00000
v 1.12296 3.43052 0.00000
v 1.44437 3.72580 -0.28250
v 1.19432 3.44314 -0.27168
v 1.43021 3.46141 -0.40478
v 3.85492 3.82103 0.00000
v 3.94032 4.14771 0.00000
v 3.76686 4.40602 0.00000
v 3.77501 3.89455 -0.31589
v 1.68007 3.40218 -0.28805
v 0.59938 0.36473 0.00000
v 0.48050 0.18859 0.00000
v 0.48987 0.11185 -0.20867
v 0.61072 0.34466 -0.17300
v 0.64432 0.30021 -0.29922
v 0.80351 0.21260 0.00000
v 0.78230 0.21610 -0.17301
v 0.58253 0.03528 -0.20657
v 0.72679 0.23744 -0.30363
v 0.79839 0.51843 -0.31860
v 0.89032 0.45129 -0.31886
v 0.94504 0.41895 -0.18432
v 1.04607 0.66068 -0.33560
v 1.10825 0.62053 -0.18920
v 1.13217 0.60478 0.00000
v 0.89363 0.77771 -0.18647
v 0.75163 0.56042 -0.18217
v 0.94794 0.73271 -0.33303
v 1.03632 0.99487 -0.19313
v 1.09657 0.94666 -0.34411
v 1.20689 0.86554 -0.34555
v 1.24701 1.15894 -0.35563
v 1.36295 1.07336 -0.35873
v 1.43716 1.02111 -0.20458
v 1.27316 0.82068 -0.19438
v 1.01472 1.01229 0.00000
v 1.18001 1.21065 -0.20502
v 1.32608 1.42536 -0.22097
v 1.40564 1.36519 -0.37071
v 1.47176 1.64064 -0.23370
v 1.56282 1.57246 -0.38561
v 1.67029 1.49295 -0.38503
v 1.51469 1.28440 -0.37376
v 1.76277 1.42502 -0.23330
v 1.59998 1.22291 -0.21990
v 1.63293 1.19767 0.00000
v 1.57581 1.88740 0.00000
v 1.61781 1.85490 -0.24283
v 1.71597 2.10547 0.00000
v 2.80811 2.58593 0.00000
v 2.42332 2.22861 -0.25457
v 2.58748 2.43046 -0.25674
v 2.75279 2.63180 -0.25774
v 2.46332 2.52242 -0.43213
v 2.62282 2.72825 -0.43882
v 2.78143 2.93430 -0.44643
v 2.91768 2.83338 -0.26009
v 2.97682 2.78559 0.00000
v 3.08365 3.03612 -0.26373
v 3.14517 2.98564 0.00000
v 2.05106 2.50258 -0.25318
v 1.90712 2.28708 -0.25044
v 1.76207 2.07148 -0.24703
v 2.01981 2.20394 -0.41345
v 1.86842 1.99267 -0.40476
v 1.71645 1.78204 -0.39478
v 1.98663 1.90460 -0.40415
v 1.82843 1.69857 -0.39453
v 2.09048 1.82724 -0.24835
v 1.92625 1.62587 -0.24310
v 2.25754 2.02616 -0.25154
v 2.14793 2.10845 -0.41392
v 2.30635 2.31410 -0.42319
v 2.16934 2.41487 -0.42279
v 2.31822 2.62857 -0.43033
v 2.19360 2.71895 -0.25451
v 2.33543 2.93597 -0.25585
v 2.46671 2.84192 -0.43714
v 2.47719 3.15322 -0.25666
v 2.61310 3.05653 -0.44502
v 2.62027 3.36807 -0.25927
v 2.76071 3.26999 -0.45147
v 2.94165 3.14066 -0.45547
v 2.91014 3.48321 -0.45808
v 3.09856 3.35175 -0.46273
v 3.24818 3.24320 -0.27177
v 3.25708 3.57082 -0.47877
v 3.41606 3.45400 -0.28750
v 2.27570 2.97671 0.00000
v 2.76047 3.58062 -0.26423
v 2.89954 3.78647 -0.26856
v 3.06274 3.69757 -0.46607
v 2.94328 4.01313 0.00000
v 3.01990 4.17541 0.00000
v 3.00569 4.30477 0.00000
v 2.86694 4.37124 0.00000
v 2.87140 4.38218 -0.18424
v 2.64241 4.35451 -0.16766
v 2.63895 4.44188 -0.26264
v 2.87086 4.45358 -0.26556
v 2.62907 4.51431 -0.15373
v 2.88757 4.51154 -0.16290
v 3.47159 4.52741 0.00000
v 2.38417 4.29231 0.00000
v 1.85104 4.52448 0.00000
v 1.59306 4.52245 0.00000
v 2.11499 4.49725 -0.19768
v 1.85739 4.48747 -0.21698
v 1.59926 4.47659 -0.23624
v 1.87479 4.36677 -0.35336
v 1.61600 4.34204 -0.36982
v 1.35637 4.32069 -0.38335
v 1.33841 4.46458 -0.25525
v 1.33350 4.52003 0.00000
v 1.07324 4.45363 -0.27109
v 1.88068 4.20282 0.00000
v 1.88066 4.24394 -0.21744
v 2.13530 4.27990 -0.20001
v 2.38878 4.31741 -0.17999
v 2.13387 4.39254 -0.33175
v 2.39098 4.41649 -0.30061
v 2.37202 4.50714 -0.17437
v 1.62650 4.20805 -0.23682
v 1.37270 4.17372 -0.25557
v 1.13681 4.06702 0.00000
v 1.12338 4.13905 -0.26951
v 1.09679 4.29685 -0.38986
v 0.88203 4.10063 -0.27692
v 0.83983 4.26113 -0.39201
v 0.79985 4.41555 -0.27427
v 0.58189 4.19134 -0.38227
v 0.51981 4.32162 -0.26604
v 0.49271 4.37185 0.00000
v 0.78391 4.47836 0.00000
v 0.90266 4.02233 0.00000
v 0.65228 4.04754 -0.27263
v 0.49782 3.91461 0.00000
v 0.45869 3.94878 -0.25288
v 0.35216 4.04945 -0.36384
v 0.35565 3.78185 -0.25232
v 0.21292 3.82450 -0.36262
v 0.09935 3.85406 -0.25205
v 0.26527 4.13398 -0.25348
v 0.40315 3.76652 0.00000
v 0.43810 3.58797 0.00000
v 0.36864 3.57661 -0.27112
v 0.54082 3.40748 0.00000
v 0.71201 2.59017 0.00000
v 0.26157 2.95766 -0.28113
v 0.47562 2.75154 -0.26653
v 0.73825 2.61882 -0.23475
v 0.59819 2.87833 -0.38893
v 0.80388 2.71600 -0.34936
v 1.03011 2.64374 -0.30817
v 1.02289 2.57758 -0.20306
v 1.01683 2.55310 0.00000
v 1.28824 2.67622 -0.21042
v 0.71686 2.98995 -0.27292
v 0.58948 3.18206 -0.28218
v 0.46538 3.37369 -0.28441
v 0.42918 3.07702 -0.40110
v 0.29373 3.29733 -0.40143
v 0.20654 3.55378 -0.38572
v 0.11633 3.22449 -0.27956
v 0.05711 3.53386 -0.26745
v 0.86751 2.82071 -0.23736
v 1.02782 2.76502 0.00000
v 1.02895 2.73551 -0.21727
v 1.15001 2.81552 0.00000
v 1.17058 2.79061 -0.22270
v 1.23289 2.72041 -0.31666
v 1.22153 2.96748 -0.25068
v 1.35295 2.93052 -0.36600
v 1.47612 2.88728 -0.25438
v 1.40738 3.19528 -0.40471
v 1.60182 3.13909 -0.28853
v 1.17647 2.97290 0.00000
v 1.22411 3.20514 -0.27953
v 3.58965 3.67340 -0.30291
v 3.07339 1.31920 0.00000
v 2.92131 1.22981 0.00000
v 2.89633 1.26365 -0.21726
v 3.07202 1.34732 -0.20044
v 3.21927 1.26457 0.00000
v 3.23936 1.28622 -0.21033
v 2.76749 1.06460 0.00000
v 2.60258 0.91925 -0.21540
v 2.73213 1.09674 -0.23059
v 2.51837 0.94829 -0.33909
v 2.65367 1.16202 -0.36142
v 2.84566 1.33598 -0.34525
v 2.54321 1.25425 -0.36928
v 2.77376 1.44654 -0.35373
v 3.06650 1.53108 -0.33555
v 3.06979 1.42529 -0.31139
v 3.36235 1.46113 -0.35213
v 3.29041 1.35538 -0.33603
v 3.58652 1.24932 -0.37881
v 3.44890 1.16704 -0.36581
v 3.35121 1.11597 -0.23184
v 3.53548 0.93155 -0.37231
v 3.43182 0.89553 -0.23706
v 3.38422 0.87947 0.00000
v 3.31001 1.09477 0.00000
v 2.70247 0.60576 -0.22838
v 2.58618 0.74287 -0.21099
v 2.63989 0.52743 -0.36305
v 2.50838 0.71901 -0.33111
v 2.54597 0.42177 -0.37261
v 2.39824 0.68624 -0.35256
v 2.40070 0.98527 -0.35453
v 2.30937 0.65886 -0.22898
v 2.31361 1.01019 -0.23041
v 2.44936 1.32911 -0.24592
v 2.71364 1.56098 0.00000
v 2.72720 1.53029 -0.23041
v 3.06631 1.61540 0.00000
v 3.06577 1.59276 -0.21256
v 3.42906 1.56835 0.00000
v 3.41315 1.54042 -0.22744
v 3.74155 1.35877 0.00000
v 3.70090 1.33072 -0.24952
v 3.88222 1.01713 0.00000
v 3.83371 1.00854 -0.25023
v 3.70341 0.97997 -0.38248
v 3.84534 0.66446 -0.24699
v 3.73531 0.67735 -0.36970
v 3.59340 0.67970 -0.36200
v 3.64188 0.38077 -0.35123
v 3.54462 0.44973 -0.33010
v 3.47017 0.49837 -0.20769
v 3.49220 0.67348 -0.22578
v 3.44070 0.51424 0.00000
v 3.44820 0.66684 0.00000
v 3.88826 0.65915 0.00000
v 3.71994 0.33027 -0.23573
v 3.14035 0.45525 0.00000
v 2.92406 0.54725 0.00000
v 3.12845 0.41534 -0.22846
v 2.90277 0.50212 -0.23893
v 3.11099 0.31997 -0.35333
v 2.85684 0.40358 -0.37088
v 3.09245 0.19221 -0.35863
v 2.79654 0.26068 -0.37656
v 3.08368 0.10728 -0.23271
v 2.75429 0.15188 -0.25021
v 2.45717 0.33516 -0.25021
v 2.27296 0.64980 0.00000
v 3.42540 0.12815 -0.22789
v 3.39778 0.20564 -0.34002
v 3.36055 0.32268 -0.33096
v 3.33414 0.39841 -0.21139
v 3.32536 0.42758 0.00000
v 1.44836 3.78450 0.00000
v 1.70387 3.64065 0.00000
v 1.75835 3.37200 0.00000
v 0.45374 0.07833 0.00000
v 0.66541 0.05011 0.00000
v 0.55627 0.00000 0.00000
v 0.96700 0.40776 0.00000
v 0.87535 0.79457 0.00000
v 0.73660 0.57772 0.00000
v 1.46518 1.00009 0.00000
v 1.29831 0.80189 0.00000
v 1.15465 1.23094 0.00000
v 1.29446 1.44970 0.00000
v 1.79961 1.39483 0.00000
v 1.43492 1.66793 0.00000
v 2.64021 2.38749 0.00000
v 2.47264 2.18881 0.00000
v 1.99704 2.54121 0.00000
v 1.85674 2.32431 0.00000
v 2.13568 1.79149 0.00000
v 1.96899 1.59413 0.00000
v 2.30403 1.98971 0.00000
v 3.49037 3.39340 0.00000
v 3.31657 3.18838 0.00000
v 2.41678 3.19495 0.00000
v 2.13660 2.75902 0.00000
v 2.55754 3.40938 0.00000
v 2.69411 3.62097 0.00000
v 2.82510 3.82469 0.00000
v 2.64311 4.33730 0.00000
v 2.62766 4.53275 0.00000
v 2.89636 4.53331 0.00000
v 3.18449 4.53299 0.00000
v 2.10695 4.52709 0.00000
v 1.06508 4.51710 0.00000
v 1.62929 4.15675 0.00000
v 2.13132 4.24733 0.00000
v 2.36449 4.53006 0.00000
v 1.38127 4.11140 0.00000
v 0.68312 3.98204 0.00000
v 0.05585 3.86698 0.00000
v 0.23193 4.16575 0.00000
v 0.43510 2.71470 0.00000
v 0.20764 2.92297 0.00000
v 1.31050 2.65919 0.00000
v 0.77037 3.03201 0.00000
v 0.65591 3.21932 0.00000
v 0.05562 3.20333 0.00000
v 0.00000 3.52848 0.00000
v 0.89151 2.85548 0.00000
v 1.67166 3.10670 0.00000
v 1.52538 2.86870 0.00000
v 1.15399 3.19505 0.00000
v 3.66261 3.59993 0.00000
v 2.63463 0.90317 0.00000
v 2.72678 0.64079 0.00000
v 2.61696 0.75371 0.00000
v 2.27687 1.01945 0.00000
v 2.41504 1.35764 0.00000
v 3.75169 0.30918 0.00000
v 2.73355 0.09895 0.00000
v 2.41948 0.30075 0.00000
v 3.07874 0.05659 0.00000
v 3.43549 0.09465 0.00000
v 3.27679 4.21427 0.42445
v 1.21477 3.65539 0.21523
v 3.87230 4.14541 0.27566
v 1.67136 3.62029 0.23718
v 0.50868 0.20440 0.14286
v 0.67497 0.07436 0.14085
v 3.08484 4.39065 0.32776
v 3.15634 4.49015 0.22233
v 3.42909 4.45426 0.29118
v 3.71870 4.32644 0.31879
v 3.58289 4.07073 0.46761
v 3.42215 3.81782 0.48689
v 3.20195 3.93282 0.46264
v 3.01514 3.98807 0.26588
v 3.07361 4.17655 0.24361
v 3.03502 4.31687 0.21864
v 1.44437 3.72580 0.28250
v 1.19432 3.44314 0.27168
v 1.43021 3.46141 0.40478
v 3.77501 3.89455 0.31589
v 1.68007 3.40218 0.28805
v 0.48987 0.11185 0.20867
v 0.61072 0.34466 0.17300
v 0.64432 0.30021 0.29922
v 0.78230 0.21610 0.17301
v 0.58253 0.03528 0.20657
v 0.72679 0.23744 0.30363
v 0.79839 0.51843 0.31860
v 0.89032 0.45129 0.31886
v 0.94504 0.41895 0.18432
v 1.04607 0.66068 0.33560
v 1.10825 0.62053 0.18920
v 0.89363 0.77771 0.18647
v 0.75163 0.56042 0.18217
v 0.94794 0.73271 0.33303
v 1.03632 0.99487 0.19313
v 1.09657 0.94666 0.34411
v 1.20689 0.86554 0.34555
v 1.24701 1.15894 0.35563
v 1.36295 1.07336 0.35873
v 1.43716 1.02111 0.20458
v 1.27316 0.82068 0.19438
v 1.18001 1.21065 0.20502
v 1.32608 1.42536 0.22097
v 1.40564 1.36519 0.37071
v 1.47176 1.64064 0.23370
v 1.56282 1.57246 0.38561
v 1.67029 1.49295 0.38503
v 1.51469 1.28440 0.37376
v 1.76277 1.42502 0.23330
v 1.59998 1.22291 0.21990
v 1.61781 1.85490 0.24283
v 2.42332 2.22861 0.25457
v 2.58748 2.43046 0.25674
v 2.75279 2.63180 0.25774
v 2.46332 2.52242 0.43213
v 2.62282 2.72825 0.43882
v 2.78143 2.93430 0.44643
v 2.91768 2.83338 0.26009
v 3.08365 3.03612 0.26373
v 2.05106 2.50258 0.25318
v 1.90712 2.28708 0.25044
v 1.76207 2.07148 0.24703
v 2.01981 2.20394 0.41345
v 1.86842 1.99267 0.40476
v 1.71645 1.78204 0.39478
v 1.98663 1.90460 0.40415
v 1.82843 1.69857 0.39453
v 2.09048 1.82724 0.24835
v 1.92625 1.62587 0.24310
v 2.25754 2.02616 0.25154
v 2.14793 2.10845 0.41392
v 2.30635 2.31410 0.42319
v 2.16934 2.41487 0.42279
v 2.31822 2.62857 0.43033
v 2.19360 2.71895 0.25451
v 2.33543 2.93597 0.25585
v 2.46671 2.84192 0.43714
v 2.47719 3.15322 0.25666
v 2.61310 3.05653 0.44502
v 2.62027 3.36807 0.25927
v 2.76071 3.26999 0.45147
v 2.94165 3.14066 0.45547
v 2.91014 3.48321 0.45808
v 3.09856 3.35175 0.46273
v 3.24818 3.24320 0.27177
v 3.25708 3.57082 0.47877
v 3.41606 3.45400 0.28750
v 2.76047 3.58062 0.26423
v 2.89954 3.78647 0.26856
v 3.06274 3.69757 0.46607
v 2.87140 4.38218 0.18424
v 2.64241 4.35451 0.16766
v 2.63895 4.44188 0.26264
v 2.87086 4.45358 0.26556
v 2.62907 4.51431 0.15373
v 2.88757 4.51154 0.16290
v 2.11499 4.49725 0.19768
v 1.85739 4.48747 0.21698
v 1.59926 4.47659 0.23624
v 1.87479 4.36677 0.35336
v 1.61600 4.34204 0.36982
v 1.35637 4.32069 0.38335
v 1.33841 4.46458 0.25525
v 1.07324 4.45363 0.27109
v 1.88066 4.24394 0.21744
v 2.13530 4.27990 0.20001
v 2.38878 4.31741 0.17999
v 2.13387 4.39254 0.33175
v 2.39098 4.41649 0.30061
v 2.37202 4.50714 0.17437
v 1.62650 4.20805 0.23682
v 1.37270 4.17372 0.25557
v 1.12338 4.13905 0.26951
v 1.09679 4.29685 0.38986
v 0.88203 4.10063 0.27692
v 0.83983 4.26113 0.39201
v 0.79985 4.41555 0.27427
v 0.58189 4.19134 0.38227
v 0.51981 4.32162 0.26604
v 0.65228 4.04754 0.27263
v 0.45869 3.94878 0.25288
v 0.35216 4.04945 0.36384
v 0.35565 3.78185 0.25232
v 0.21292 3.82450 0.36262
v 0.09935 3.85406 0.25205
v 0.26527 4.13398 0.25348
v 0.36864 3.57661 0.27112
v 0.26157 2.95766 0.28113
v 0.47562 2.75154 0.26653
v 0.73825 2.61882 0.23475
v 0.59819 2.87833 0.38893
v 0.80388 2.71600 0.34936
v 1.03011 2.64374 0.30817
v 1.02289 2.57758 0.20306
v 1.28824 2.67622 0.21042
v 0.71686 2.98995 0.27292
v 0.58948 3.18206 0.28218
v 0.46538 3.37369 0.28441
v 0.42918 3.07702 0.40110
v 0.29373 3.29733 0.40143
v 0.20654 3.55378 0.38572
v 0.11633 3.22449 0.27956
v 0.05711 3.53386 0.26745
v 0.86751 2.82071 0.23736
v 1.02895 2.73551 0.21727
v 1.17058 2.79061 0.22270
v 1.23289 2.72041 0.31666
v 1.22153 2.96748 0.25068
v 1.35295 2.93052 0.36600
v 1.47612 2.88728 0.25438
v 1.40738 3.19528 0.40471
v 1.60182 3.13909 0.28853
v 1.22411 3.20514 0.27953
v 3.58965 3.67340 0.30291
v 2.89633 1.26365 0.21726
v 3.07202 1.34732 0.20044
v 3.23936 1.28622 0.21033
v 2.60258 0.91925 0.21540
v 2.73213 1.09674 0.23059
v 2.51837 0.94829 0.33909
v 2.65367 1.16202 0.36142
v 2.84566 1.33598 0.34525
v 2.54321 1.25425 0.36928
v 2.77376 1.44654 0.35373
v 3.06650 1.53108 0.33555
v 3.06979 1.42529 0.31139
v 3.36235 1.46113 0.35213
v 3.29041 1.35538 0.33603
v 3.58652 1.24932 0.37881
v 3.44890 1.16704 0.36581
v 3.35121 1.11597 0.23184
v 3.53548 0.93155 0.37231
v 3.43182 0.89553 0.23706
v 2.70247 0.60576 0.22838
v 2.58618 0.74287 0.21099
v 2.63989 0.52743 0.36305
v 2.50838 0.71901 0.33111
v 2.54597 0.42177 0.37261
v 2.39824 0.68624 0.35256
v 2.40070 0.98527 0.35453
v 2.30937 0.65886 0.22898
v 2.31361 1.01019 0.23041
v 2.44936 1.32911 0.24592
v 2.72720 1.53029 0.23041
v 3.06577 1.59276 0.21256
v 3.41315 1.54042 0.22744
v 3.70090 1.33072 0.24952
v 3.83371 1.00854 0.25023
v 3.70341 0.97997 0.38248
v 3.84534 0.66446 0.24699
v 3.73531 0.67735 0.36970
v 3.59340 0.67970 0.36200
v 3.64188 0.38077 0.35123
v 3.54462 0.44973 0.33010
v 3.47017 0.49837 0.20769
v 3.49220 0.67348 0.22578
v 3.71994 0.33027 0.23573
v 3.12845 0.41534 0.22846
v 2.90277 0.50212 0.23893
v 3.11099 0.31997 0.35333
v 2.85684 0.40358 0.37088
v 3.09245 0.19221 0.35863
v 2.79654 0.26068 0.37656
v 3.08368 0.10728 0.23271
v 2.75429 0.15188 0.25021
v 2.45717 0.33516 0.25021
v 3.42540 0.12815 0.22789
v 3.39778 0.20564 0.34002
v 3.36055 0.32268 0.33096
v 3.33414 0.39841 0.21139
vn 0.00207 0.41277 -0.91083
vn -0.01093 0.72600 -0.68761
vn 0.01169 0.88942 -0.45695
vn 0.12854 0.79804 -0.58874
vn 0.30935 0.26396 -0.91358
vn 0.27018 0.08134 -0.95937
vn -0.06368 0.08242 -0.99456
vn -0.72784 0.03647 -0.68478
vn -0.64221 0.32574 -0.69387
vn -0.77738 0.39000 -0.49354
vn -0.88074 0.06969 -0.46844
vn -0.71134 -0.55814 -0.42718
vn -0.59744 -0.46624 -0.65244
vn -0.34840 0.92269 -0.16513
vn -0.35611 0.93444 0.00140
vn -0.96453 0.19107 -0.18214
vn -0.97490 0.03633 -0.21964
vn -0.99913 0.04158 0.00266
vn -0.97920 0.20285 0.00524
vn -0.41306 0.33293 -0.84767
vn -0.47919 0.16877 -0.86133
vn 0.78736 0.57369 -0.22573
vn 0.59774 0.75817 -0.26056
vn 0.62042 0.78427 0.00219
vn 0.81030 0.58600 0.00419
vn 0.49538 0.05875 -0.86669
vn 0.71389 -0.32319 -0.62122
vn 0.92419 -0.28182 -0.25779
vn 0.95752 -0.28836 0.00380
vn 0.87694 -0.48059 0.00196
vn 0.38024 0.29199 -0.87759
vn 0.42192 0.10376 -0.90067
vn 0.97260 0.13315 -0.19060
vn 0.98972 0.14294 0.00536
vn 0.99700 -0.07733 0.00272
vn 0.96892 -0.07867 -0.23454
vn 0.46129 0.87257 -0.16072
vn 0.46961 0.88287 0.00193
vn -0.86888 0.44191 -0.22305
vn -0.88413 0.37477 -0.27904
vn -0.96446 0.26422 0.00040
vn -0.90688 0.42138 0.00077
vn -0.81113 0.52331 -0.26118
vn -0.77704 0.48343 -0.40311
vn -0.83228 0.55436 0.00055
vn 0.63742 -0.73785 -0.22197
vn 0.73286 -0.62467 -0.26964
vn 0.77353 -0.63376 0.00139
vn 0.62050 -0.78421 0.00141
vn 0.43572 -0.90008 0.00013
vn 0.55396 -0.77990 -0.29133
vn 0.67258 -0.60032 -0.43274
vn -0.14523 -0.15722 -0.97683
vn -0.23096 -0.27277 -0.93394
vn -0.05050 -0.03974 -0.99793
vn 0.70234 -0.57234 -0.42326
vn 0.74240 -0.60900 -0.27923
vn 0.69193 -0.56706 -0.44685
vn 0.73554 -0.60722 -0.30044
vn 0.76908 -0.63916 -0.00002
vn 0.77132 -0.63645 0.00005
vn -0.84020 0.54228 0.00000
vn -0.84012 0.54239 0.00000
vn -0.80425 0.52144 -0.28511
vn -0.80860 0.52306 -0.26941
vn -0.75545 0.49207 -0.43263
vn -0.76493 0.49604 -0.41089
vn -0.79907 0.51889 -0.30372
vn -0.74510 0.48587 -0.45690
vn -0.04074 -0.03230 -0.99865
vn -0.03891 -0.02603 -0.99890
vn -0.04655 -0.03107 -0.99843
vn 0.67934 -0.56190 -0.47198
vn 0.66339 -0.54662 -0.51100
vn 0.72165 -0.59935 -0.34642
vn 0.72847 -0.60584 -0.31983
vn 0.76717 -0.64145 0.00000
vn 0.76730 -0.64129 0.00001
vn -0.83959 0.54322 -0.00001
vn -0.83843 0.54501 -0.00001
vn -0.78895 0.51671 -0.33252
vn -0.83738 0.54662 -0.00001
vn -0.77579 0.51112 -0.37002
vn -0.69559 0.46295 -0.54939
vn -0.72424 0.47828 -0.49672
vn -0.76371 0.50339 -0.40417
vn -0.66946 0.44473 -0.59501
vn -0.04455 -0.03411 -0.99842
vn -0.02802 -0.03281 -0.99907
vn 0.63877 -0.52829 -0.55935
vn 0.61462 -0.51342 -0.59887
vn 0.70012 -0.58513 -0.40921
vn 0.71125 -0.59142 -0.37992
vn 0.76715 -0.64146 -0.00003
vn 0.76750 -0.64105 -0.00001
vn -0.83656 0.54788 -0.00002
vn -0.83688 0.54739 -0.00001
vn -0.75454 0.49669 -0.42892
vn 0.76865 -0.63967 0.00000
vn 0.76849 -0.63986 -0.00001
vn 0.68445 -0.56617 -0.45933
vn 0.68079 -0.56173 -0.47010
vn 0.67570 -0.55960 -0.47987
vn 0.76798 -0.64048 0.00001
vn 0.58229 -0.47520 -0.65964
vn 0.57642 -0.47309 -0.66628
vn 0.57048 -0.47249 -0.67179
vn 0.67115 -0.55787 -0.48820
vn 0.76814 -0.64028 0.00001
vn 0.66789 -0.55275 -0.49839
vn 0.76927 -0.63893 -0.00001
vn -0.83633 0.54823 0.00001
vn -0.83764 0.54622 0.00001
vn -0.74024 0.48442 -0.46625
vn -0.74259 0.48895 -0.45770
vn -0.74780 0.49197 -0.44583
vn -0.83703 0.54716 0.00001
vn -0.63368 0.41958 -0.64992
vn -0.63974 0.42429 -0.64087
vn -0.65094 0.43208 -0.62417
vn -0.01954 -0.03137 -0.99932
vn -0.02040 -0.03041 -0.99933
vn 0.60012 -0.50104 -0.62355
vn 0.59023 -0.49583 -0.63701
vn 0.68672 -0.57699 -0.44216
vn 0.69291 -0.57903 -0.42966
vn 0.76556 -0.64336 -0.00001
vn 0.76714 -0.64148 -0.00003
vn 0.68370 -0.57443 -0.45010
vn 0.76530 -0.64367 -0.00001
vn 0.58565 -0.49141 -0.64462
vn 0.58625 -0.48097 -0.65190
vn -0.02360 -0.02461 -0.99942
vn -0.02207 -0.02805 -0.99936
vn -0.02327 -0.01869 -0.99955
vn -0.62899 0.41224 -0.65912
vn -0.63149 0.41519 -0.65486
vn -0.73836 0.48042 -0.47330
vn -0.73664 0.47769 -0.47871
vn -0.62787 0.40832 -0.66261
vn -0.02330 -0.01752 -0.99957
vn -0.73399 0.47907 -0.48140
vn -0.62677 0.40808 -0.66380
vn -0.02552 -0.01813 -0.99951
vn -0.73191 0.47843 -0.48520
vn -0.62314 0.40727 -0.66771
vn -0.02902 -0.01358 -0.99949
vn -0.04324 -0.01285 -0.99898
vn 0.56594 -0.46607 -0.68007
vn 0.55146 -0.46008 -0.69586
vn 0.65902 -0.54924 -0.51384
vn 0.53008 -0.43906 -0.72543
vn 0.64912 -0.53930 -0.53647
vn 0.76839 -0.63998 -0.00003
vn 0.76845 -0.63991 -0.00001
vn -0.83959 0.54323 -0.00000
vn -0.83693 0.54731 0.00000
vn -0.83960 0.54321 -0.00000
vn -0.83700 0.54720 0.00001
vn -0.83771 0.54612 -0.00004
vn -0.72827 0.47606 -0.49294
vn -0.84666 0.53214 0.00012
vn -0.73365 0.46142 -0.49884
vn -0.61673 0.38809 -0.68486
vn -0.61612 0.40413 -0.67607
vn -0.06140 0.00949 -0.99807
vn -0.89472 0.44662 -0.00090
vn -0.99461 0.10365 -0.00213
vn -0.98499 -0.17262 -0.00201
vn -0.40910 -0.91249 -0.00119
vn -0.14389 -0.98959 -0.00071
vn -0.17107 -0.90307 -0.39396
vn 0.14645 -0.98922 -0.00018
vn 0.12829 -0.90845 -0.39781
vn 0.09786 -0.74499 -0.65985
vn -0.18250 -0.73019 -0.65843
vn -0.00969 0.83386 -0.55189
vn -0.00846 0.83891 -0.54421
vn -0.00734 0.93914 -0.34345
vn 0.00194 0.93427 -0.35656
vn -0.00596 0.99998 -0.00009
vn 0.01196 0.99993 0.00015
vn 0.03396 0.99942 0.00034
vn 0.21526 0.97656 0.00014
vn -0.01810 0.99984 -0.00001
vn -0.01828 0.99983 -0.00004
vn -0.00766 0.91739 -0.39792
vn -0.01077 0.90126 -0.43314
vn -0.01017 0.88262 -0.46997
vn -0.01916 0.99982 -0.00001
vn -0.00291 0.74805 -0.66364
vn -0.00063 0.70626 -0.70795
vn -0.00364 0.65987 -0.75137
vn -0.01212 0.86201 -0.50675
vn -0.01974 0.99981 -0.00004
vn -0.06226 0.84096 -0.53750
vn -0.07768 0.99698 -0.00001
vn 0.16476 -0.98633 0.00004
vn 0.16535 -0.98624 0.00003
vn 0.15507 -0.88216 -0.44468
vn 0.16079 -0.89494 -0.41621
vn 0.16640 -0.90039 -0.40200
vn 0.16358 -0.98653 -0.00010
vn 0.14698 -0.74978 -0.64515
vn 0.15738 -0.75084 -0.64146
vn 0.01186 0.81224 -0.58321
vn 0.00368 0.78504 -0.61943
vn -0.00225 0.92941 -0.36903
vn -0.01627 0.99987 -0.00004
vn 0.13582 -0.72769 -0.67232
vn 0.16647 -0.98605 -0.00009
vn 0.15039 -0.86378 -0.48091
vn 0.12613 -0.69186 -0.71093
vn 0.16531 -0.98624 -0.00010
vn 0.14245 -0.84137 -0.52135
vn 0.11136 -0.64529 -0.75578
vn 0.17091 -0.98529 -0.00009
vn 0.14113 -0.81830 -0.55720
vn 0.10257 -0.59861 -0.79445
vn 0.15455 -0.80377 -0.57452
vn 0.10974 -0.56932 -0.81476
vn -0.04184 0.61431 -0.78795
vn -0.13824 0.58781 -0.79710
vn -0.19588 0.81590 -0.54400
vn -0.30274 0.55405 -0.77548
vn -0.40820 0.74882 -0.52215
vn -0.47814 0.87828 0.00006
vn -0.23615 0.97172 -0.00013
vn 0.18852 -0.98207 -0.00028
vn 0.29693 -0.95490 0.00081
vn 0.24728 -0.78922 -0.56212
vn 0.64856 -0.76116 0.00123
vn 0.63256 -0.74412 -0.21483
vn 0.38306 -0.44285 -0.81065
vn 0.17731 -0.55589 -0.81213
vn 0.57120 -0.12254 -0.81161
vn -0.50091 0.44248 -0.74385
vn -0.62717 0.23086 -0.74388
vn -0.81889 0.29619 -0.49162
vn -0.65233 0.57655 -0.49199
vn -0.94176 0.33630 -0.00023
vn -0.74929 0.66224 0.00018
vn 0.97757 -0.21060 0.00150
vn 0.95150 0.30764 0.00174
vn 0.92374 0.30016 -0.23793
vn 0.95502 -0.20457 -0.21469
vn -0.55778 -0.82999 0.00000
vn -0.79010 -0.61298 -0.00006
vn -0.77109 -0.59836 -0.21767
vn -0.46140 -0.70640 -0.53676
vn -0.23822 -0.86623 -0.43920
vn -0.27642 -0.96104 -0.00001
vn -0.31227 -0.50211 -0.80646
vn -0.18130 -0.70390 -0.68677
vn 0.09598 -0.82431 -0.55794
vn 0.10673 -0.93068 -0.34992
vn 0.11235 -0.99367 -0.00019
vn 0.49890 -0.78466 -0.36799
vn 0.54124 -0.84087 -0.00043
vn 0.84665 0.53215 -0.00005
vn 0.82246 0.56883 0.00051
vn 0.68841 0.47658 -0.54678
vn 0.81758 0.51399 -0.25957
vn 0.83476 0.48361 -0.26325
vn 0.86546 0.50099 0.00051
vn 0.47468 0.26619 -0.83894
vn 0.45947 0.29197 -0.83883
vn 0.55209 0.16919 -0.81644
vn -0.61646 -0.00571 -0.78736
vn -0.51517 -0.18757 -0.83631
vn -0.84844 -0.00875 -0.52922
vn -0.92073 -0.32156 -0.22105
vn -0.94410 -0.32965 0.00008
vn -0.99994 -0.01110 -0.00014
vn -0.40931 -0.33046 -0.85045
vn 0.49182 0.34290 -0.80033
vn 0.66860 0.74362 0.00157
vn 0.58214 0.65056 -0.48773
vn 0.44171 0.50096 -0.74426
vn 0.51741 0.85573 0.00182
vn 0.06271 0.87604 -0.47814
vn 0.03992 0.67787 -0.73409
vn -0.37445 0.92725 -0.00036
vn -0.66616 0.56660 -0.48496
vn -0.51138 0.43898 -0.73877
vn -0.86470 0.07388 -0.49683
vn -0.65146 0.06291 -0.75607
vn 0.43424 -0.69098 -0.57791
vn 0.53689 -0.41979 -0.73180
vn 0.69257 -0.53221 -0.48694
vn 0.47848 -0.19486 -0.85620
vn 0.88758 -0.38717 -0.24958
vn 0.91618 -0.40076 -0.00015
vn 0.79655 -0.60457 -0.00042
vn -0.99697 0.07780 -0.00070
vn -0.99590 -0.09050 0.00054
vn -0.96895 -0.08933 -0.23055
vn -0.97757 0.21061 -0.00248
vn -0.57203 -0.01769 -0.82004
vn 0.76293 -0.64648 -0.00003
vn 0.63525 -0.51554 -0.57504
vn 0.49622 -0.37682 -0.78216
vn -0.60586 -0.76529 -0.21741
vn -0.62060 -0.78413 0.00034
vn 0.47487 -0.88005 0.00159
vn 0.60785 -0.79405 0.00073
vn 0.55833 -0.73493 -0.38489
vn 0.44084 -0.82234 -0.35975
vn -0.35023 -0.93666 0.00003
vn -0.33792 -0.87496 -0.34678
vn -0.59138 -0.70817 -0.38569
vn -0.64402 -0.76501 0.00051
vn 0.75718 -0.65321 -0.00034
vn 0.92656 -0.37615 0.00006
vn 0.85641 -0.33865 -0.38972
vn 0.69498 -0.59769 -0.39972
vn 0.75619 -0.28992 -0.58662
vn 0.61239 -0.52505 -0.59102
vn 0.49216 -0.65477 -0.57363
vn 0.10840 -0.05452 -0.99261
vn 0.06302 -0.05485 -0.99650
vn 0.00250 -0.13237 -0.99120
vn 0.39157 -0.73928 -0.54785
vn -0.14078 -0.08033 -0.98678
vn -0.31136 -0.77664 -0.54762
vn -0.51417 -0.62313 -0.58936
vn -0.11294 -0.00361 -0.99360
vn -0.71139 -0.34205 -0.61394
vn -0.82536 -0.38805 -0.41012
vn -0.74784 -0.23589 -0.62056
vn -0.86375 -0.27551 -0.42193
vn -0.95190 -0.30641 -0.00012
vn -0.90754 -0.41996 0.00042
vn 0.73489 0.67819 0.00131
vn 0.59805 0.80146 0.00057
vn 0.55467 0.73197 -0.39569
vn 0.87409 0.28985 -0.38981
vn 0.99428 -0.10684 0.00065
vn 0.49308 0.63819 -0.59126
vn 0.76903 0.25612 -0.58566
vn 0.11522 0.06855 -0.99097
vn 0.03582 0.10865 -0.99343
vn 0.10468 -0.06359 -0.99247
vn -0.77310 0.15860 -0.61413
vn -0.76993 -0.15573 -0.61884
vn -0.89527 -0.18012 -0.40750
vn -0.89707 0.18333 -0.40207
vn -0.70410 0.56614 -0.42864
vn -0.59004 0.47456 -0.65318
vn -0.97986 0.19969 -0.00008
vn -0.77948 0.62643 -0.00028
vn -0.37655 0.92640 -0.00036
vn -0.35328 0.85532 -0.37897
vn -0.31355 0.74345 -0.59073
vn -0.01389 0.99990 -0.00004
vn -0.01582 0.94466 -0.32768
vn -0.01754 0.85421 -0.51963
vn 0.36185 0.93224 0.00041
vn 0.33588 0.85986 -0.38447
vn 0.29231 0.74393 -0.60094
vn 0.77817 0.62806 0.00028
vn 0.68661 0.55802 -0.46603
vn 0.54934 0.45112 -0.70336
vn 0.97853 0.20609 -0.00011
vn 0.86303 0.18728 -0.46916
vn 0.69009 0.15588 -0.70674
vn 0.88439 -0.15267 -0.44108
vn 0.73036 -0.12490 -0.67155
vn -0.06245 -0.02941 -0.99761
vn -0.09208 -0.05549 -0.99420
vn -0.11329 0.02151 -0.99333
vn -0.80148 -0.07542 -0.59324
vn -0.82351 0.06960 -0.56301
vn -0.92482 0.07458 -0.37303
vn -0.91210 -0.09027 -0.39991
vn -0.99693 0.07832 0.00158
vn -0.99478 -0.10200 0.00073
vn 0.98522 -0.17130 -0.00003
vn 0.78304 -0.62197 0.00011
vn 0.71016 -0.57053 -0.41252
vn 0.40975 0.91220 -0.00019
vn 0.25211 0.96770 -0.00068
vn 0.22337 0.88930 -0.39907
vn 0.37412 0.82846 -0.41676
vn 0.18696 0.77702 -0.60107
vn 0.32539 0.71576 -0.61791
vn 0.03898 0.03789 -0.99852
vn 0.07129 0.04107 -0.99661
vn -0.25211 -0.70635 -0.66145
vn -0.02068 -0.80387 -0.59444
vn -0.01994 -0.91373 -0.40584
vn -0.29942 -0.83947 -0.45347
vn -0.67682 -0.57595 -0.45848
vn -0.56004 -0.47403 -0.67945
vn -0.33580 -0.94193 0.00021
vn -0.76013 -0.64977 -0.00001
vn -0.98047 -0.19669 -0.00024
vn -0.01845 -0.99983 0.00036
vn 0.30446 -0.86891 -0.39025
vn 0.33514 -0.94217 0.00041
vn 0.26291 -0.76374 -0.58957
vn 0.60065 -0.48955 -0.63211
vn -0.01004 0.08290 -0.99651
vn -0.20923 0.78256 -0.58637
vn -0.23712 0.89149 -0.38604
vn -0.54715 0.75825 -0.35453
vn -0.47791 0.68343 -0.55184
vn 0.12146 0.99260 -0.00117
vn -0.59519 0.80358 -0.00039
vn 0.06844 0.52661 0.84735
vn 0.02390 0.88405 0.46677
vn 0.01217 0.71059 0.70350
vn 0.02703 0.40424 0.91425
vn 0.28366 0.08622 0.95504
vn 0.33353 0.26954 0.90339
vn -0.06323 0.08456 0.99441
vn -0.87184 0.06553 0.48539
vn -0.77767 0.39148 0.49192
vn -0.64344 0.32617 0.69253
vn -0.69820 0.02125 0.71559
vn -0.55857 -0.47690 0.67865
vn -0.69581 -0.56488 0.44357
vn -0.35387 0.92010 0.16789
vn -0.97331 0.04476 0.22508
vn -0.95914 0.20744 0.19242
vn -0.48599 0.17576 0.85611
vn -0.43111 0.33851 0.83639
vn 0.59949 0.75524 0.26498
vn 0.78986 0.56695 0.23387
vn 0.72329 -0.31628 0.61386
vn 0.53912 0.06829 0.83946
vn 0.92422 -0.27483 0.26513
vn 0.40303 0.30026 0.86453
vn 0.43533 0.11213 0.89326
vn 0.96810 -0.07156 0.24014
vn 0.96845 0.14718 0.20112
vn 0.46542 0.86966 0.16452
vn -0.88791 0.36989 0.27348
vn -0.87162 0.43801 0.22008
vn -0.77984 0.48402 0.39696
vn -0.81230 0.52285 0.25847
vn 0.73284 -0.62729 0.26355
vn 0.63493 -0.74235 0.21397
vn 0.55323 -0.78567 0.27687
vn 0.67653 -0.60576 0.41878
vn -0.14533 -0.15682 0.97688
vn -0.23062 -0.27150 0.93440
vn -0.05071 -0.03989 0.99792
vn 0.74255 -0.60884 0.27919
vn 0.70258 -0.57218 0.42309
vn 0.73569 -0.60702 0.30049
vn 0.69224 -0.56661 0.44695
vn -0.80867 0.52302 0.26925
vn -0.80423 0.52145 0.28513
vn -0.76513 0.49598 0.41060
vn -0.75540 0.49212 0.43265
vn -0.74528 0.48565 0.45684
vn -0.79913 0.51882 0.30368
vn -0.04057 -0.03206 0.99866
vn -0.03877 -0.02585 0.99891
vn -0.04651 -0.03101 0.99844
vn 0.72839 -0.60594 0.31982
vn 0.72175 -0.59923 0.34642
vn 0.66348 -0.54652 0.51099
vn 0.67922 -0.56207 0.47196
vn -0.78889 0.51680 0.33251
vn -0.77594 0.51088 0.37001
vn -0.72402 0.47861 0.49671
vn -0.69558 0.46295 0.54940
vn -0.66964 0.44446 0.59501
vn -0.76380 0.50325 0.40416
vn -0.04459 -0.03416 0.99842
vn -0.02805 -0.03284 0.99907
vn 0.71137 -0.59128 0.37992
vn 0.70009 -0.58519 0.40918
vn 0.61459 -0.51347 0.59886
vn 0.63896 -0.52806 0.55937
vn -0.75446 0.49680 0.42893
vn 0.68072 -0.56182 0.47009
vn 0.68440 -0.56624 0.45931
vn 0.67570 -0.55960 0.47988
vn 0.57643 -0.47308 0.66628
vn 0.58217 -0.47536 0.65962
vn 0.67118 -0.55782 0.48821
vn 0.57056 -0.47240 0.67179
vn 0.66793 -0.55270 0.49839
vn -0.74256 0.48899 0.45771
vn -0.74019 0.48448 0.46626
vn -0.74782 0.49192 0.44584
vn -0.63979 0.42420 0.64088
vn -0.63360 0.41970 0.64993
vn -0.65093 0.43207 0.62418
vn -0.01952 -0.03135 0.99932
vn -0.02044 -0.03046 0.99933
vn 0.69293 -0.57901 0.42964
vn 0.68664 -0.57709 0.44215
vn 0.59011 -0.49599 0.63700
vn 0.60011 -0.50104 0.62356
vn 0.68369 -0.57445 0.45009
vn 0.58566 -0.49142 0.64460
vn 0.58623 -0.48102 0.65188
vn -0.02355 -0.02455 0.99942
vn -0.02211 -0.02811 0.99936
vn -0.02322 -0.01862 0.99956
vn -0.73837 0.48041 0.47330
vn -0.63144 0.41526 0.65486
vn -0.62901 0.41221 0.65911
vn -0.62790 0.40828 0.66261
vn -0.73666 0.47767 0.47871
vn -0.02328 -0.01748 0.99958
vn -0.62677 0.40809 0.66380
vn -0.73399 0.47908 0.48140
vn -0.02560 -0.01822 0.99951
vn -0.62325 0.40721 0.66763
vn -0.73195 0.47840 0.48517
vn -0.02911 -0.01368 0.99948
vn -0.04299 -0.01291 0.99899
vn 0.65906 -0.54917 0.51386
vn 0.55151 -0.45995 0.69590
vn 0.56587 -0.46612 0.68009
vn 0.64912 -0.53976 0.53600
vn 0.53038 -0.43988 0.72470
vn -0.72831 0.47602 0.49292
vn -0.73372 0.46133 0.49883
vn -0.61613 0.40409 0.67609
vn -0.61688 0.38820 0.68466
vn -0.06221 0.00934 0.99802
vn -0.17231 -0.90267 0.39432
vn 0.12653 -0.90878 0.39764
vn -0.18196 -0.72898 0.65990
vn 0.09568 -0.74530 0.65982
vn -0.00547 0.93262 0.36083
vn -0.00736 0.93882 0.34433
vn -0.00837 0.83779 0.54592
vn -0.02087 0.82875 0.55922
vn 0.21007 0.94435 0.25313
vn -0.01023 0.90135 0.43297
vn -0.00660 0.91749 0.39771
vn -0.01003 0.88267 0.46990
vn -0.00035 0.70637 0.70784
vn -0.00179 0.74828 0.66338
vn -0.01231 0.86212 0.50655
vn -0.00417 0.66014 0.75113
vn -0.06259 0.84103 0.53736
vn 0.16072 -0.89494 0.41624
vn 0.15509 -0.88214 0.44473
vn 0.16540 -0.90061 0.40192
vn 0.15538 -0.75122 0.64151
vn 0.14689 -0.74981 0.64514
vn -0.00233 0.92948 0.36887
vn 0.00491 0.78526 0.61914
vn 0.01150 0.81240 0.58299
vn 0.13580 -0.72766 0.67236
vn 0.15062 -0.86367 0.48103
vn 0.12540 -0.69165 0.71126
vn 0.14259 -0.84118 0.52162
vn 0.11061 -0.64476 0.75634
vn 0.14130 -0.81831 0.55714
vn 0.10233 -0.59863 0.79446
vn 0.10985 -0.56952 0.81460
vn 0.15460 -0.80400 0.57417
vn -0.19601 0.81561 0.54440
vn -0.13854 0.58673 0.79784
vn -0.04220 0.61453 0.78776
vn -0.40867 0.74751 0.52365
vn -0.30307 0.55092 0.77759
vn 0.24846 -0.78972 0.56089
vn 0.63395 -0.74228 0.21708
vn 0.17845 -0.55948 0.80940
vn 0.38442 -0.44691 0.80777
vn 0.56714 -0.12359 0.81429
vn -0.65284 0.57558 0.49245
vn -0.82043 0.29518 0.48966
vn -0.63074 0.22961 0.74124
vn -0.50161 0.44089 0.74431
vn 0.95394 -0.20669 0.21744
vn 0.92381 0.29719 0.24134
vn -0.46567 -0.70520 0.53465
vn -0.77124 -0.59821 0.21754
vn -0.23772 -0.86513 0.44164
vn -0.18044 -0.70005 0.69092
vn -0.32174 -0.50100 0.80342
vn 0.11086 -0.92915 0.35269
vn 0.10407 -0.81999 0.56284
vn 0.49412 -0.78659 0.37031
vn 0.81770 0.51386 0.25946
vn 0.68873 0.47757 0.54551
vn 0.83486 0.48289 0.26424
vn 0.47689 0.26893 0.83681
vn 0.45686 0.29217 0.84019
vn 0.55044 0.17106 0.81716
vn -0.84864 -0.00797 0.52891
vn -0.51420 -0.18509 0.83746
vn -0.61687 -0.00401 0.78705
vn -0.92074 -0.32143 0.22120
vn -0.41262 -0.33168 0.84837
vn 0.49552 0.34315 0.79794
vn 0.58471 0.65215 0.48252
vn 0.45396 0.50453 0.73442
vn 0.06508 0.87745 0.47524
vn 0.04638 0.68247 0.72944
vn -0.67369 0.56348 0.47816
vn -0.52473 0.43630 0.73095
vn -0.66658 0.05483 0.74342
vn -0.87029 0.06941 0.48763
vn 0.69128 -0.53123 0.48983
vn 0.53196 -0.41645 0.73728
vn 0.42225 -0.69488 0.58210
vn 0.48568 -0.18170 0.85504
vn 0.88685 -0.38900 0.24934
vn -0.82544 -0.05606 0.56170
vn -0.57387 -0.01797 0.81875
vn 0.63555 -0.51509 0.57512
vn 0.49670 -0.37582 0.78233
vn -0.60556 -0.76533 0.21809
vn 0.43844 -0.82211 0.36318
vn 0.55776 -0.73487 0.38584
vn -0.59244 -0.70873 0.38302
vn -0.33812 -0.87516 0.34608
vn 0.69547 -0.59855 0.39757
vn 0.85580 -0.33950 0.39032
vn 0.61411 -0.52665 0.58780
vn 0.75516 -0.29081 0.58751
vn 0.49229 -0.65431 0.57404
vn 0.11586 -0.06416 0.99119
vn 0.06524 -0.05812 0.99618
vn 0.01562 -0.13368 0.99090
vn 0.38965 -0.73769 0.55134
vn -0.13065 -0.06981 0.98897
vn -0.51864 -0.62424 0.58425
vn -0.31191 -0.77734 0.54631
vn -0.10652 -0.00195 0.99431
vn -0.82618 -0.38870 0.40785
vn -0.71520 -0.34242 0.60930
vn -0.86408 -0.27574 0.42112
vn -0.74872 -0.23628 0.61934
vn 0.87246 0.28811 0.39472
vn 0.55441 0.73087 0.39806
vn 0.76476 0.25334 0.59242
vn 0.49188 0.63617 0.59442
vn 0.10261 0.06044 0.99288
vn 0.02875 0.10158 0.99441
vn 0.10272 -0.06669 0.99247
vn -0.89651 0.18195 0.40394
vn -0.89462 -0.17887 0.40946
vn -0.76762 -0.15259 0.62248
vn -0.77110 0.15562 0.61741
vn -0.58642 0.47098 0.65901
vn -0.70318 0.56486 0.43183
vn -0.35112 0.85458 0.38262
vn -0.30771 0.74037 0.59763
vn -0.01310 0.94468 0.32774
vn -0.01144 0.85422 0.51978
vn 0.33934 0.86038 0.38025
vn 0.30084 0.74677 0.59315
vn 0.68810 0.55750 0.46446
vn 0.55373 0.45050 0.70031
vn 0.86308 0.18765 0.46892
vn 0.69019 0.15652 0.70650
vn 0.73293 -0.12345 0.66901
vn 0.88531 -0.15186 0.43950
vn -0.06092 -0.02903 0.99772
vn -0.10542 -0.05563 0.99287
vn -0.12309 0.01506 0.99228
vn -0.91116 -0.08986 0.40214
vn -0.92232 0.07611 0.37886
vn -0.81808 0.07023 0.57079
vn -0.79951 -0.07548 0.59589
vn 0.71087 -0.57042 0.41145
vn 0.37452 0.82894 0.41544
vn 0.22495 0.89051 0.39547
vn 0.32629 0.71705 0.61594
vn 0.18894 0.78049 0.59593
vn 0.04006 0.04012 0.99839
vn 0.07233 0.04509 0.99636
vn -0.30033 -0.83941 0.45298
vn -0.02091 -0.91395 0.40529
vn -0.02291 -0.80495 0.59290
vn -0.25402 -0.70674 0.66029
vn -0.55756 -0.46995 0.68430
vn -0.67603 -0.57453 0.46140
vn 0.30495 -0.86858 0.39060
vn 0.26362 -0.76350 0.58956
vn 0.60257 -0.48963 0.63021
vn -0.00578 0.08038 0.99675
vn -0.23613 0.89341 0.38217
vn -0.20858 0.78673 0.58099
vn -0.47908 0.68448 0.54952
vn -0.54761 0.75869 0.35287
f 1//1 7//2 8//3 9//4
f 1//1 9//4 10//5 11//6
f 1//1 11//6 12//7 13//7
f 1//8 13//9 14//10 15//11
f 1//8 15//11 16//12 7//13
f 2//14 17//15 270//15 19//14
f 2//16 20//17 18//18 17//19
f 2//20 19//20 21//21 20//21
f 3//22 10//23 24//24 23//25
f 3//26 25//27 11//6 10//5
f 3//28 23//29 22//30 25//27
f 4//31 26//32 21//32 19//31
f 4//33 271//34 272//35 26//36
f 4//37 19//37 270//38 271//38
f 5//39 29//40 273//41 28//42
f 5//39 30//43 31//44 29//40
f 5//39 28//42 27//45 30//43
f 6//46 33//47 32//48 274//49
f 6//46 274//49 275//50 34//51
f 6//46 34//51 35//52 33//47
f 35//53 34//54 29//54 31//53
f 35//53 31//53 36//55 37//55
f 35//52 37//56 38//57 33//47
f 38//57 37//56 39//58 40//59
f 38//57 40//59 41//60 276//61
f 38//57 276//61 32//48 33//47
f 278//62 277//63 42//64 43//65
f 278//62 43//65 30//43 27//45
f 43//65 42//64 44//66 36//67
f 43//65 36//67 31//44 30//43
f 44//66 42//64 45//68 46//69
f 44//70 46//71 47//71 39//70
f 44//70 39//70 37//55 36//55
f 47//71 46//71 48//72 49//72
f 47//73 49//74 50//75 51//76
f 47//73 51//76 40//59 39//58
f 51//76 50//75 279//77 280//78
f 51//76 280//78 41//60 40//59
f 52//79 281//80 53//81 45//68
f 52//79 45//68 42//64 277//63
f 53//81 281//80 282//82 54//83
f 53//81 54//83 55//84 48//85
f 53//81 48//85 46//69 45//68
f 55//84 54//83 56//86 57//87
f 55//88 57//89 58//89 59//88
f 55//88 59//88 49//72 48//72
f 59//90 58//91 60//92 61//93
f 59//90 61//93 50//75 49//74
f 61//93 60//92 283//94 62//95
f 61//93 62//95 279//77 50//75
f 284//96 63//97 64//98 56//86
f 284//96 56//86 54//83 282//82
f 285//99 286//100 67//101 68//102
f 285//99 68//102 69//103 66//104
f 69//103 68//102 70//105 71//106
f 69//103 71//106 72//107 73//108
f 69//103 73//108 74//109 66//104
f 74//109 73//108 75//110 76//111
f 288//112 287//113 77//114 78//115
f 288//112 78//115 79//116 65//117
f 79//116 64//98 63//97 65//117
f 79//116 78//115 80//118 81//119
f 79//116 81//119 82//120 64//98
f 82//120 57//87 56//86 64//98
f 82//121 81//122 83//122 84//121
f 82//121 84//121 58//89 57//89
f 84//123 83//124 85//125 86//126
f 84//123 86//126 60//92 58//91
f 86//126 85//125 289//127 290//128
f 86//126 290//128 283//94 60//92
f 289//127 85//125 87//129 291//130
f 87//129 85//125 83//124 88//131
f 87//129 88//131 89//132 67//101
f 87//129 67//101 286//100 291//130
f 89//133 88//134 80//134 90//133
f 89//133 90//133 91//135 70//135
f 89//132 70//105 68//102 67//101
f 91//136 90//137 77//114 92//138
f 91//136 92//138 93//139 94//140
f 91//135 94//141 71//141 70//135
f 94//140 93//139 95//142 96//143
f 94//141 96//144 72//144 71//141
f 96//143 95//142 97//145 98//146
f 96//144 98//147 99//147 72//144
f 99//147 98//147 100//148 101//148
f 99//149 101//150 102//151 75//110
f 99//149 75//110 73//108 72//107
f 102//151 101//150 103//152 104//153
f 102//151 104//153 292//154 293//155
f 102//151 293//155 76//111 75//110
f 105//156 294//157 95//142 93//139
f 105//156 93//139 92//138 295//158
f 294//157 296//159 97//145 95//142
f 296//159 297//160 106//161 97//145
f 106//161 297//160 298//162 107//163
f 106//161 107//163 108//164 100//165
f 106//161 100//165 98//146 97//145
f 108//164 107//163 14//10 13//9
f 108//166 13//7 12//7 103//166
f 108//166 103//166 101//148 100//148
f 107//163 298//162 109//167 14//10
f 109//167 110//168 15//11 14//10
f 110//168 111//169 16//12 15//11
f 111//170 112//171 113//172 16//12
f 113//172 112//171 299//173 114//174
f 113//172 114//174 115//175 116//176
f 113//172 116//176 7//13 16//12
f 116//177 115//178 117//179 118//180
f 116//177 118//180 8//3 7//2
f 118//180 117//179 300//181 301//182
f 118//180 301//182 302//183 8//3
f 302//183 119//184 9//4 8//3
f 121//185 303//186 123//187 124//188
f 121//185 124//188 125//189 122//190
f 125//189 124//188 126//191 127//192
f 125//189 127//192 128//193 129//194
f 125//189 129//194 130//195 122//190
f 130//195 129//194 131//196 304//197
f 306//198 132//199 133//200 134//201
f 306//198 134//201 135//202 120//203
f 135//202 114//174 299//173 120//203
f 135//202 134//201 136//204 137//205
f 135//202 137//205 115//175 114//174
f 137//206 136//207 123//187 138//208
f 137//206 138//208 117//179 115//178
f 138//208 123//187 303//186 307//209
f 138//208 307//209 300//181 117//179
f 136//204 134//201 133//200 126//210
f 136//207 126//191 124//188 123//187
f 133//200 132//199 305//211 139//212
f 133//200 139//212 127//213 126//210
f 139//212 305//211 308//214 140//215
f 139//212 140//215 128//216 127//213
f 140//215 308//214 141//217 142//218
f 140//215 142//218 143//219 128//216
f 143//219 142//218 144//220 145//221
f 143//222 145//223 146//224 131//196
f 143//222 131//196 129//194 128//193
f 146//224 145//223 147//225 148//226
f 146//224 148//226 149//227 150//228
f 146//224 150//228 304//197 131//196
f 151//229 309//230 152//231 144//220
f 151//229 144//220 142//218 141//217
f 152//231 309//230 153//232 154//233
f 152//231 154//234 155//234 147//235
f 152//231 147//235 145//221 144//220
f 155//234 154//234 156//236 157//236
f 155//237 157//238 158//239 159//240
f 155//237 159//240 148//226 147//225
f 159//240 158//239 310//241 311//242
f 159//240 311//242 149//227 148//226
f 160//243 161//244 162//245 156//246
f 160//243 156//246 154//233 153//232
f 312//247 313//248 165//249 166//250
f 312//247 166//250 167//251 164//252
f 167//251 166//250 168//253 169//254
f 167//251 169//254 170//255 171//256
f 167//251 171//256 172//257 164//252
f 172//257 171//256 173//258 314//259
f 316//260 315//261 174//262 175//263
f 316//260 175//263 176//264 163//265
f 176//264 162//245 161//244 163//265
f 176//266 175//267 177//267 178//266
f 176//266 178//266 179//268 162//268
f 179//268 157//236 156//236 162//268
f 179//269 178//270 180//270 181//271
f 179//269 181//271 158//239 157//238
f 181//271 180//272 317//273 318//274
f 181//271 318//274 310//241 158//239
f 180//270 178//270 177//275 165//275
f 180//272 165//249 313//248 317//273
f 177//267 175//267 174//262 168//276
f 177//275 168//253 166//250 165//275
f 174//262 315//261 319//277 182//278
f 174//262 182//278 169//279 168//276
f 182//278 319//277 183//280 184//281
f 182//278 184//281 170//282 169//279
f 184//281 183//283 185//283 186//284
f 184//281 186//284 187//285 170//282
f 187//285 186//284 188//286 189//287
f 187//288 189//289 190//290 173//258
f 187//288 173//258 171//256 170//255
f 190//290 189//289 191//291 192//291
f 190//290 192//292 320//293 321//294
f 190//290 321//294 314//259 173//258
f 193//295 322//296 194//297 188//286
f 193//295 188//286 186//284 185//298
f 194//297 322//296 18//18 20//17
f 194//299 20//21 21//21 191//299
f 194//299 191//299 189//287 188//286
f 320//293 192//292 26//36 272//35
f 192//291 191//291 21//32 26//32
f 119//184 24//24 10//23 9//4
f 323//300 292//154 104//153 195//301
f 323//300 195//301 25//27 22//30
f 195//301 104//153 103//152 12//302
f 195//301 12//302 11//6 25//27
f 92//138 77//114 287//113 295//158
f 90//137 80//118 78//115 77//114
f 88//134 83//122 81//122 80//134
f 34//303 275//304 273//304 29//303
f 196//305 197//306 198//307 199//308
f 196//309 199//310 201//311 200//312
f 202//313 324//314 203//315 204//316
f 202//313 204//316 198//307 197//306
f 204//316 203//315 205//317 206//318
f 204//316 206//318 207//319 198//307
f 207//320 206//321 208//321 209//320
f 207//320 209//320 210//322 211//322
f 207//319 211//323 199//308 198//307
f 211//322 210//322 212//324 213//324
f 211//325 213//326 201//311 199//310
f 213//324 212//324 214//327 215//327
f 213//326 215//328 216//329 201//311
f 216//329 215//328 217//330 218//331
f 216//329 218//331 219//332 220//333
f 216//329 220//333 200//312 201//311
f 326//334 325//335 221//336 222//337
f 326//338 222//337 203//315 324//314
f 222//337 221//336 223//339 224//340
f 222//337 224//340 205//317 203//315
f 224//341 223//342 225//342 226//341
f 224//341 226//341 227//343 205//343
f 227//344 226//345 228//346 229//347
f 227//344 229//347 230//348 208//349
f 227//343 208//321 206//321 205//343
f 230//348 229//347 327//350 328//351
f 230//348 328//351 231//352 232//353
f 230//348 232//353 209//354 208//349
f 232//353 231//352 233//355 234//356
f 232//353 234//356 210//357 209//354
f 234//356 233//355 235//358 236//359
f 234//356 236//359 212//360 210//357
f 236//359 235//358 237//361 238//362
f 236//359 238//362 214//363 212//360
f 238//362 237//361 239//364 240//365
f 238//362 240//365 241//366 214//363
f 241//366 240//365 242//367 243//368
f 241//369 243//370 244//370 217//369
f 241//369 217//369 215//327 214//327
f 244//370 243//370 245//371 246//371
f 244//372 246//373 247//374 248//375
f 244//372 248//375 218//331 217//330
f 248//375 247//374 249//376 250//377
f 248//375 250//377 219//332 218//331
f 251//378 329//379 252//380 242//367
f 251//378 242//367 240//365 239//364
f 254//381 253//382 255//383 256//384
f 254//381 256//384 221//336 325//335
f 256//384 255//383 257//385 258//386
f 256//384 258//386 223//339 221//336
f 258//387 257//388 259//388 260//387
f 258//387 260//387 225//342 223//342
f 260//389 259//390 261//391 262//392
f 260//389 262//392 263//393 225//394
f 263//393 262//392 330//395 331//396
f 263//393 331//396 264//397 228//346
f 263//393 228//346 226//345 225//394
f 264//397 327//350 229//347 228//346
f 332//398 330//395 262//392 261//391
f 332//398 261//391 265//399 333//400
f 265//399 252//380 329//379 333//400
f 265//399 261//391 259//390 266//401
f 265//399 266//401 245//402 252//380
f 266//403 259//388 257//388 267//403
f 266//403 267//403 246//371 245//371
f 267//404 257//385 255//383 268//405
f 267//404 268//405 247//406 246//407
f 268//405 255//383 253//382 269//408
f 268//405 269//409 249//409 247//406
f 252//380 245//402 243//368 242//367
f 342//410 341//411 340//412 334//413
f 344//414 343//415 342//410 334//413
f 346//416 345//416 344//414 334//413
f 348//417 347//418 346//419 334//420
f 340//421 349//422 348//417 334//420
f 350//423 270//15 17//15 335//423
f 17//19 18//18 351//424 335//425
f 351//426 352//426 350//427 335//427
f 23//25 24//24 343//428 336//429
f 343//415 344//414 353//430 336//431
f 353//430 22//30 23//29 336//432
f 350//433 352//434 354//434 337//433
f 354//435 272//35 271//34 337//436
f 271//38 270//38 350//437 337//437
f 28//42 273//41 355//438 338//439
f 355//438 357//440 356//441 338//439
f 356//441 27//45 28//42 338//439
f 274//49 32//48 358//442 339//443
f 359//444 275//50 274//49 339//443
f 358//442 360//445 359//444 339//443
f 357//446 355//447 359//447 360//446
f 362//448 361//448 357//446 360//446
f 358//442 363//449 362//450 360//445
f 365//451 364//452 362//450 363//449
f 276//61 41//60 365//451 363//449
f 358//442 32//48 276//61 363//449
f 367//453 366//454 277//63 278//62
f 27//45 356//441 367//453 278//62
f 361//455 368//456 366//454 367//453
f 356//441 357//440 361//455 367//453
f 370//457 369//458 366//454 368//456
f 364//459 371//460 370//460 368//459
f 361//448 362//448 364//459 368//459
f 373//461 372//461 370//460 371//460
f 375//462 374//463 373//464 371//465
f 364//452 365//451 375//462 371//465
f 280//78 279//77 374//463 375//462
f 365//451 41//60 280//78 375//462
f 369//458 376//466 281//80 52//79
f 277//63 366//454 369//458 52//79
f 377//467 282//82 281//80 376//466
f 372//468 378//469 377//467 376//466
f 369//458 370//457 372//468 376//466
f 380//470 379//471 377//467 378//469
f 382//472 381//473 380//473 378//472
f 372//461 373//461 382//472 378//472
f 384//474 383//475 381//476 382//477
f 373//464 374//463 384//474 382//477
f 62//95 283//94 383//475 384//474
f 374//463 279//77 62//95 384//474
f 379//471 385//478 63//97 284//96
f 282//82 377//467 379//471 284//96
f 387//479 386//480 286//100 285//99
f 66//104 388//481 387//479 285//99
f 390//482 389//483 387//479 388//481
f 392//484 391//485 390//482 388//481
f 66//104 74//109 392//484 388//481
f 76//111 393//486 392//484 74//109
f 395//487 394//488 287//113 288//112
f 65//117 396//489 395//487 288//112
f 65//117 63//97 385//478 396//489
f 398//490 397//491 395//487 396//489
f 385//478 399//492 398//490 396//489
f 385//478 379//471 380//470 399//492
f 401//493 400//494 398//494 399//493
f 380//473 381//473 401//493 399//493
f 403//495 402//496 400//497 401//498
f 381//476 383//475 403//495 401//498
f 290//128 289//127 402//496 403//495
f 383//475 283//94 290//128 403//495
f 291//130 404//499 402//496 289//127
f 405//500 400//497 402//496 404//499
f 386//480 406//501 405//500 404//499
f 291//130 286//100 386//480 404//499
f 407//502 397//503 405//503 406//502
f 389//504 408//504 407//502 406//502
f 386//480 387//479 389//483 406//501
f 409//505 394//488 407//506 408//507
f 411//508 410//509 409//505 408//507
f 389//504 390//510 411//510 408//504
f 413//511 412//512 410//509 411//508
f 390//510 391//513 413//513 411//510
f 415//514 414//515 412//512 413//511
f 391//513 416//516 415//516 413//513
f 418//517 417//517 415//516 416//516
f 393//486 419//518 418//519 416//520
f 391//485 392//484 393//486 416//520
f 421//521 420//522 418//519 419//518
f 293//155 292//154 421//521 419//518
f 393//486 76//111 293//155 419//518
f 410//509 412//512 294//157 105//156
f 295//158 409//505 410//509 105//156
f 412//512 414//515 296//159 294//157
f 414//515 422//523 297//160 296//159
f 423//524 298//162 297//160 422//523
f 417//525 424//526 423//524 422//523
f 414//515 415//514 417//525 422//523
f 346//419 347//418 423//524 424//526
f 420//527 345//416 346//416 424//527
f 417//517 418//517 420//527 424//527
f 347//418 109//167 298//162 423//524
f 347//418 348//417 110//168 109//167
f 348//417 349//422 111//169 110//168
f 349//422 425//528 112//171 111//170
f 426//529 299//173 112//171 425//528
f 428//530 427//531 426//529 425//528
f 349//422 340//421 428//530 425//528
f 430//532 429//533 427//534 428//535
f 340//412 341//411 430//532 428//535
f 301//182 300//181 429//533 430//532
f 341//411 302//183 301//182 430//532
f 341//411 342//536 119//184 302//183
f 432//537 431//538 303//186 121//185
f 122//190 433//539 432//537 121//185
f 435//540 434//541 432//537 433//539
f 437//542 436//543 435//540 433//539
f 122//190 130//195 437//542 433//539
f 304//197 438//544 437//542 130//195
f 440//545 439//546 132//199 306//198
f 120//203 441//547 440//545 306//198
f 120//203 299//173 426//529 441//547
f 443//548 442//549 440//545 441//547
f 426//529 427//531 443//548 441//547
f 444//550 431//538 442//551 443//552
f 427//534 429//533 444//550 443//552
f 307//209 303//186 431//538 444//550
f 429//533 300//181 307//209 444//550
f 434//553 439//546 440//545 442//549
f 431//538 432//537 434//541 442//551
f 445//554 305//211 132//199 439//546
f 434//553 435//555 445//554 439//546
f 446//556 308//214 305//211 445//554
f 435//555 436//557 446//556 445//554
f 447//558 141//217 308//214 446//556
f 436//557 448//559 447//558 446//556
f 450//560 449//561 447//558 448//559
f 438//544 451//562 450//563 448//564
f 436//543 437//542 438//544 448//564
f 453//565 452//566 450//563 451//562
f 150//228 149//227 453//565 451//562
f 438//544 304//197 150//228 451//562
f 449//561 454//567 309//230 151//229
f 141//217 447//558 449//561 151//229
f 455//568 153//232 309//230 454//567
f 452//569 456//570 455//570 454//567
f 449//561 450//560 452//569 454//567
f 458//571 457//571 455//570 456//570
f 460//572 459//573 458//574 456//575
f 452//566 453//565 460//572 456//575
f 311//242 310//241 459//573 460//572
f 453//565 149//227 311//242 460//572
f 457//576 461//577 161//244 160//243
f 153//232 455//568 457//576 160//243
f 463//578 462//579 313//248 312//247
f 164//252 464//580 463//578 312//247
f 466//581 465//582 463//578 464//580
f 468//583 467//584 466//581 464//580
f 164//252 172//257 468//583 464//580
f 314//259 469//585 468//583 172//257
f 471//586 470//587 315//261 316//260
f 163//265 472//588 471//586 316//260
f 163//265 161//244 461//577 472//588
f 474//589 473//590 471//590 472//589
f 461//591 475//591 474//589 472//589
f 461//591 457//571 458//571 475//591
f 477//592 476//593 474//593 475//594
f 458//574 459//573 477//592 475//594
f 318//274 317//273 476//595 477//592
f 459//573 310//241 318//274 477//592
f 462//596 473//596 474//593 476//593
f 317//273 313//248 462//579 476//595
f 465//597 470//587 471//590 473//590
f 462//596 463//578 465//582 473//596
f 478//598 319//277 315//261 470//587
f 465//597 466//599 478//598 470//587
f 479//600 183//280 319//277 478//598
f 466//599 467//601 479//600 478//598
f 480//602 185//283 183//283 479//600
f 467//601 481//603 480//602 479//600
f 483//604 482//605 480//602 481//603
f 469//585 484//606 483//607 481//608
f 467//584 468//583 469//585 481//608
f 486//609 485//609 483//607 484//606
f 321//294 320//293 486//610 484//606
f 469//585 314//259 321//294 484//606
f 482//605 487//611 322//296 193//295
f 185//298 480//602 482//605 193//295
f 351//424 18//18 322//296 487//611
f 485//612 352//426 351//426 487//611
f 482//605 483//604 485//612 487//611
f 272//35 354//435 486//610 320//293
f 354//434 352//434 485//609 486//609
f 342//536 343//428 24//24 119//184
f 488//613 421//521 292//154 323//300
f 22//30 353//430 488//613 323//300
f 345//614 420//522 421//521 488//613
f 353//430 344//414 345//614 488//613
f 295//158 287//113 394//488 409//505
f 394//488 395//487 397//491 407//506
f 397//503 398//494 400//494 405//503
f 355//615 273//304 275//304 359//615
f 490//616 489//617 197//306 196//305
f 200//312 491//618 490//619 196//309
f 493//620 492//621 324//314 202//313
f 197//306 489//617 493//620 202//313
f 495//622 494//623 492//621 493//620
f 489//617 496//624 495//622 493//620
f 498//625 497//626 495//626 496//625
f 500//627 499//627 498//625 496//625
f 489//617 490//616 500//628 496//624
f 502//629 501//629 499//627 500//627
f 490//619 491//618 502//630 500//631
f 504//632 503//632 501//629 502//629
f 491//618 505//633 504//634 502//630
f 507//635 506//636 504//634 505//633
f 220//333 219//332 507//635 505//633
f 491//618 200//312 220//333 505//633
f 509//637 508//638 325//335 326//334
f 324//314 492//621 509//637 326//338
f 511//639 510//640 508//638 509//637
f 492//621 494//623 511//639 509//637
f 513//641 512//642 510//642 511//641
f 494//643 514//643 513//641 511//641
f 516//644 515//645 513//646 514//647
f 497//648 517//649 516//644 514//647
f 494//643 495//626 497//626 514//643
f 328//351 327//350 516//644 517//649
f 518//650 231//352 328//351 517//649
f 497//648 498//651 518//650 517//649
f 519//652 233//355 231//352 518//650
f 498//651 499//653 519//652 518//650
f 520//654 235//358 233//355 519//652
f 499//653 501//655 520//654 519//652
f 521//656 237//361 235//358 520//654
f 501//655 503//657 521//656 520//654
f 522//658 239//364 237//361 521//656
f 503//657 523//659 522//658 521//656
f 525//660 524//661 522//658 523//659
f 506//662 526//663 525//663 523//662
f 503//632 504//632 506//662 523//662
f 528//664 527//664 525//663 526//663
f 530//665 529//666 528//667 526//668
f 506//636 507//635 530//665 526//668
f 250//377 249//376 529//666 530//665
f 507//635 219//332 250//377 530//665
f 524//661 531//669 329//379 251//378
f 239//364 522//658 524//661 251//378
f 533//670 532//671 253//382 254//381
f 325//335 508//638 533//670 254//381
f 535//672 534//673 532//671 533//670
f 508//638 510//640 535//672 533//670
f 537//674 536//675 534//675 535//674
f 510//642 512//642 537//674 535//674
f 539//676 538//677 536//678 537//679
f 512//680 540//681 539//676 537//679
f 331//396 330//395 539//676 540//681
f 515//645 264//397 331//396 540//681
f 512//680 513//646 515//645 540//681
f 515//645 516//644 327//350 264//397
f 538//677 539//676 330//395 332//398
f 333//400 541//682 538//677 332//398
f 333//400 329//379 531//669 541//682
f 542//683 536//678 538//677 541//682
f 531//669 527//684 542//683 541//682
f 543//685 534//675 536//675 542//685
f 527//664 528//664 543//685 542//685
f 544//686 532//671 534//673 543//687
f 528//688 529//689 544//686 543//687
f 269//408 253//382 532//671 544//686
f 529//689 249//409 269//409 544//686
f 524//661 525//660 527//684 531//669
