# pilowlava3D glyph '.' variant 1 — Vincent Wagner / Velvetyne, Free Art License
v 1.08940 0.59869 -0.35780
v 0.17091 0.71106 -0.34460
v 1.06745 0.22930 -0.35420
v 0.12255 0.39693 -0.33470
v 0.95857 0.67562 -0.39458
v 1.00544 0.82461 -0.22171
v 1.18075 0.64525 -0.21498
v 1.21925 0.38198 -0.20306
v 1.10192 0.40452 -0.37386
v 0.91866 0.44974 -0.45854
v 0.32284 0.74802 -0.39352
v 0.29669 0.54123 -0.45936
v 0.13074 0.55938 -0.36738
v 0.10682 0.78700 -0.20702
v 0.32293 0.89878 -0.22418
v 0.02739 0.56835 -0.20562
v 1.11586 0.13679 -0.21208
v 0.88475 0.21922 -0.40936
v 0.86549 0.05403 -0.23678
v 0.05468 0.34983 -0.20460
v 0.26124 0.32386 -0.39110
v 0.21838 0.18192 -0.22330
v 0.43194 0.11019 -0.23816
v 0.19733 0.14604 0.00000
v 0.03205 0.32714 0.00000
v 0.46542 0.27797 -0.42424
v 0.67336 0.24936 -0.42883
v 0.64202 0.08191 -0.24216
v 0.50895 0.51532 -0.48714
v 0.71809 0.49145 -0.48523
v 0.53772 0.75000 -0.41842
v 0.75475 0.73089 -0.41722
v 0.55079 0.91309 -0.23580
v 0.77713 0.89543 -0.23539
v 0.78556 0.93710 0.00000
v 1.02279 0.85791 0.00000
v 1.21505 0.65478 0.00000
v 0.86616 0.00000 0.00000
v 1.12672 0.10045 0.00000
v 1.24770 0.37285 0.00000
v 0.09140 0.81797 0.00000
v 0.00000 0.57238 0.00000
v 0.41769 0.05715 0.00000
v 0.55585 0.95864 0.00000
v 0.63055 0.02094 0.00000
v 0.31895 0.94050 0.00000
v 1.08940 0.59869 0.35780
v 0.17091 0.71106 0.34460
v 1.06745 0.22930 0.35420
v 0.12255 0.39693 0.33470
v 0.95857 0.67562 0.39458
v 1.00544 0.82461 0.22171
v 1.18075 0.64525 0.21498
v 1.21925 0.38198 0.20306
v 1.10192 0.40452 0.37386
v 0.91866 0.44974 0.45854
v 0.32284 0.74802 0.39352
v 0.29669 0.54123 0.45936
v 0.13074 0.55938 0.36738
v 0.10682 0.78700 0.20702
v 0.32293 0.89878 0.22418
v 0.02739 0.56835 0.20562
v 1.11586 0.13679 0.21208
v 0.88475 0.21922 0.40936
v 0.86549 0.05403 0.23678
v 0.05468 0.34983 0.20460
v 0.26124 0.32386 0.39110
v 0.21838 0.18192 0.22330
v 0.43194 0.11019 0.23816
v 0.46542 0.27797 0.42424
v 0.67336 0.24936 0.42883
v 0.64202 0.08191 0.24216
v 0.50895 0.51532 0.48714
v 0.71809 0.49145 0.48523
v 0.53772 0.75000 0.41842
v 0.75475 0.73089 0.41722
v 0.55079 0.91309 0.23580
v 0.77713 0.89543 0.23539
vn 0.62343 0.29078 -0.72580
vn 0.36230 0.43895 -0.82223
vn 0.48498 0.76907 -0.41631
vn 0.82843 0.40359 -0.38836
vn 0.92915 -0.11339 -0.35188
vn 0.62993 -0.06276 -0.77412
vn 0.24605 -0.01448 -0.96915
vn -0.55261 0.44810 -0.70273
vn -0.25062 0.53337 -0.80790
vn -0.29758 0.04263 -0.95375
vn -0.66877 0.08359 -0.73876
vn -0.70086 0.60077 -0.38453
vn -0.26351 0.86752 -0.42186
vn -0.93517 0.11129 -0.33627
vn 0.50927 -0.43920 -0.74010
vn 0.88486 -0.33408 -0.32466
vn 0.15817 -0.50624 -0.84776
vn 0.30679 -0.85664 -0.41478
vn 0.11552 -0.88377 -0.45344
vn -0.67111 -0.29483 -0.68021
vn -0.84439 -0.39291 -0.36417
vn -0.39523 -0.44680 -0.80259
vn -0.50491 -0.75444 -0.41939
vn -0.22811 -0.85710 -0.46188
vn -0.25456 -0.96706 0.00036
vn -0.55779 -0.82998 0.00020
vn -0.90580 -0.42370 -0.00002
vn -0.15727 -0.49717 -0.85328
vn -0.03595 -0.50254 -0.86381
vn -0.10826 -0.87461 -0.47258
vn -0.07315 0.02474 -0.99701
vn 0.06256 0.01319 -0.99795
vn -0.02161 0.53597 -0.84396
vn 0.13900 0.50928 -0.84930
vn -0.00185 0.89651 -0.44302
vn 0.18695 0.87695 -0.44273
vn 0.00575 0.99998 0.00001
vn 0.19993 0.97981 -0.00004
vn 0.53294 0.84615 0.00013
vn 0.90248 0.43074 -0.00006
vn 0.12542 -0.99210 0.00005
vn -0.12812 -0.99176 -0.00011
vn 0.34559 -0.93839 0.00043
vn 0.91858 -0.39523 -0.00085
vn 0.99021 -0.13956 -0.00070
vn -0.27959 0.96012 0.00002
vn -0.47206 0.88157 0.00007
vn -0.93869 0.34476 -0.00030
vn -0.99370 0.11205 -0.00007
vn 0.82935 0.39779 0.39237
vn 0.48702 0.76486 0.42166
vn 0.36721 0.43555 0.82186
vn 0.62782 0.28619 0.72383
vn 0.62992 -0.06291 0.77411
vn 0.92627 -0.11627 0.35849
vn 0.25383 -0.01220 0.96717
vn -0.67204 0.08344 0.73580
vn -0.30477 0.04495 0.95136
vn -0.25615 0.53298 0.80642
vn -0.55821 0.44661 0.69924
vn -0.26540 0.86581 0.42420
vn -0.70254 0.59783 0.38605
vn -0.93458 0.10920 0.33859
vn 0.87753 -0.34041 0.33774
vn 0.50600 -0.43541 0.74457
vn 0.16413 -0.50332 0.84837
vn 0.11928 -0.88153 0.45681
vn 0.31497 -0.85053 0.42117
vn -0.84424 -0.38804 0.36969
vn -0.67163 -0.28786 0.68268
vn -0.50867 -0.74936 0.42392
vn -0.39992 -0.44027 0.80388
vn -0.22835 -0.85692 0.46211
vn -0.15754 -0.49733 0.85314
vn -0.10871 -0.87469 0.47233
vn -0.03595 -0.50263 0.86376
vn -0.07399 0.02484 0.99695
vn 0.06289 0.01327 0.99793
vn 0.13911 0.50924 0.84931
vn -0.02193 0.53610 0.84387
vn 0.18692 0.87696 0.44273
vn -0.00177 0.89653 0.44297
f 1//1 5//2 6//3 7//4
f 1//1 7//4 8//5 9//6
f 1//1 9//6 10//7 5//2
f 2//8 11//9 12//10 13//11
f 2//8 14//12 15//13 11//9
f 2//8 13//11 16//14 14//12
f 3//15 9//6 8//5 17//16
f 3//15 18//17 10//7 9//6
f 3//15 17//18 19//19 18//17
f 4//20 20//21 16//14 13//11
f 4//20 21//22 22//23 20//21
f 4//20 13//11 12//10 21//22
f 22//23 23//24 43//25 24//26
f 22//23 24//26 25//27 20//21
f 22//23 21//22 26//28 23//24
f 26//28 27//29 28//30 23//24
f 26//28 21//22 12//10 29//31
f 26//28 29//31 30//32 27//29
f 30//32 10//7 18//17 27//29
f 30//32 29//31 31//33 32//34
f 30//32 32//34 5//2 10//7
f 32//34 31//33 33//35 34//36
f 32//34 34//36 6//3 5//2
f 34//36 33//35 44//37 35//38
f 34//36 35//38 36//39 6//3
f 36//39 37//40 7//4 6//3
f 38//41 45//42 28//30 19//19
f 38//41 19//19 17//18 39//43
f 39//44 17//16 8//5 40//45
f 40//45 8//5 7//4 37//40
f 45//42 43//25 23//24 28//30
f 46//46 44//37 33//35 15//13
f 46//46 15//13 14//12 41//47
f 41//48 14//12 16//14 42//49
f 42//49 16//14 20//21 25//27
f 33//35 31//33 11//9 15//13
f 31//33 29//31 12//10 11//9
f 28//30 27//29 18//17 19//19
f 53//50 52//51 51//52 47//53
f 55//54 54//55 53//50 47//53
f 51//52 56//56 55//54 47//53
f 59//57 58//58 57//59 48//60
f 57//59 61//61 60//62 48//60
f 60//62 62//63 59//57 48//60
f 63//64 54//55 55//54 49//65
f 55//54 56//56 64//66 49//65
f 64//66 65//67 63//68 49//65
f 59//57 62//63 66//69 50//70
f 66//69 68//71 67//72 50//70
f 67//72 58//58 59//57 50//70
f 24//26 43//25 69//73 68//71
f 66//69 25//27 24//26 68//71
f 69//73 70//74 67//72 68//71
f 69//73 72//75 71//76 70//74
f 73//77 58//58 67//72 70//74
f 71//76 74//78 73//77 70//74
f 71//76 64//66 56//56 74//78
f 76//79 75//80 73//77 74//78
f 56//56 51//52 76//79 74//78
f 78//81 77//82 75//80 76//79
f 51//52 52//51 78//81 76//79
f 35//38 44//37 77//82 78//81
f 52//51 36//39 35//38 78//81
f 52//51 53//50 37//40 36//39
f 65//67 72//75 45//42 38//41
f 39//43 63//68 65//67 38//41
f 40//45 54//55 63//64 39//44
f 37//40 53//50 54//55 40//45
f 72//75 69//73 43//25 45//42
f 61//61 77//82 44//37 46//46
f 41//47 60//62 61//61 46//46
f 42//49 62//63 60//62 41//48
f 25//27 66//69 62//63 42//49
f 61//61 57//59 75//80 77//82
f 57//59 58//58 73//77 75//80
f 65//67 64//66 71//76 72//75
