# pilowlava3D glyph 'q' variant 1 — Vincent Wagner / Velvetyne, Free Art License
v 4.40312 0.71473 -0.43966
v 2.00983 1.64314 -0.33979
v 2.23825 1.68729 -0.34867
v 4.21051 0.22861 -0.43560
v 4.23050 0.82363 -0.47358
v 4.32259 1.03163 -0.27543
v 4.55949 0.77160 -0.28059
v 4.55847 0.37779 -0.29442
v 4.35809 0.45570 -0.47320
v 4.13426 0.54106 -0.55471
v 1.83005 1.60612 -0.31566
v 1.80986 1.68275 -0.27123
v 2.06021 1.80385 -0.30367
v 2.09978 1.53667 -0.29130
v 1.84248 1.55405 -0.25855
v 2.32771 1.69436 -0.28846
v 2.45314 1.47746 -0.30729
v 2.41081 1.43031 -0.35744
v 2.28264 1.99915 -0.28420
v 2.34586 1.93797 -0.32897
v 2.38718 1.89919 -0.27224
v 4.27419 0.09636 -0.28446
v 3.93822 0.07694 -0.26752
v 4.00722 0.26549 -0.46593
v 3.66052 0.20319 -0.26307
v 3.76141 0.37725 -0.47259
v 3.88780 0.63417 -0.55764
v 3.52074 0.52142 -0.45596
v 3.64272 0.74334 -0.53519
v 3.73567 0.97923 -0.45158
v 3.98334 0.90299 -0.47229
v 3.78465 1.16073 -0.25047
v 4.04372 1.11138 -0.26372
v 3.80264 1.24751 -0.00000
v 4.06882 1.20119 -0.00000
v 3.61862 0.13002 -0.00000
v 3.92746 0.00000 -0.00000
v 4.31358 0.02786 -0.00000
v 3.42265 0.37436 -0.25270
v 3.20578 0.56136 -0.23669
v 3.29013 0.68673 -0.42687
v 2.99158 0.74199 -0.22399
v 3.05873 0.84871 -0.40206
v 3.14572 1.00864 -0.46969
v 3.39476 0.87438 -0.50270
v 3.22185 1.16995 -0.40038
v 3.48129 1.07165 -0.42756
v 3.26782 1.28998 -0.22594
v 3.52942 1.22234 -0.23870
v 3.28555 1.35520 -0.00000
v 3.54593 1.29913 -0.00000
v 2.95277 0.69190 -0.00000
v 2.74167 0.87530 -0.00000
v 2.77151 0.91825 -0.21444
v 2.52603 1.06525 -0.00000
v 2.51746 1.54100 -0.00000
v 2.39905 1.69927 -0.00000
v 2.43399 1.86403 -0.00000
v 2.50021 1.52263 -0.17785
v 2.38437 1.69744 -0.16605
v 2.42303 1.87140 -0.15946
v 2.57442 2.01587 -0.29022
v 2.60287 1.96279 -0.16812
v 2.61264 1.94304 -0.00000
v 2.85194 1.97663 -0.19925
v 2.85808 1.93684 -0.00000
v 2.25044 2.04514 -0.00000
v 2.02467 1.88105 -0.00000
v 1.79697 1.73613 -0.00000
v 1.84750 1.49338 -0.00000
v 2.08510 1.46010 -0.00000
v 1.84850 1.50698 -0.14292
v 2.08690 1.47815 -0.15847
v 2.31224 1.28928 -0.18431
v 2.29715 1.26705 -0.00000
v 2.54877 1.09844 -0.19952
v 2.34348 1.33943 -0.31623
v 2.59131 1.17000 -0.34793
v 2.82770 1.01126 -0.37752
v 2.64734 1.26581 -0.39562
v 2.89896 1.13807 -0.43022
v 2.69888 1.35806 -0.34528
v 2.96021 1.26668 -0.37330
v 2.73845 1.43279 -0.20317
v 3.00211 1.36366 -0.21457
v 1.58769 1.35031 -0.16345
v 1.59282 1.41708 -0.29491
v 1.28503 1.26853 -0.36582
v 1.29976 1.40698 -0.41399
v 1.58571 1.50055 -0.34366
v 1.27118 1.14986 -0.21602
v 0.82674 1.11115 -0.25102
v 0.90564 1.25702 -0.41746
v 0.80077 1.05927 -0.00000
v 0.37482 1.27795 -0.00000
v 0.43010 1.32687 -0.27154
v 0.13280 1.64608 -0.00000
v 0.11774 2.03819 -0.27574
v 0.21474 1.68174 -0.27798
v 0.31479 2.08410 -0.48193
v 0.40356 1.75954 -0.47806
v 0.58691 1.45127 -0.45432
v 0.64598 1.86597 -0.54015
v 0.78040 1.61029 -0.50666
v 1.00220 1.44139 -0.46638
v 0.97501 1.77655 -0.42078
v 1.12245 1.63403 -0.38621
v 1.32944 1.56917 -0.34189
v 1.20227 1.74686 -0.21161
v 1.35132 1.65925 -0.18677
v 1.55891 1.65022 -0.16152
v 1.56548 1.59567 -0.28599
v 1.79803 1.72718 -0.15294
v 2.03120 1.86614 -0.16101
v 2.25824 2.03171 -0.15974
v 2.49625 2.19386 -0.16833
v 2.51300 2.15122 -0.29534
v 2.73363 2.33958 -0.19423
v 2.75993 2.26536 -0.34285
v 2.79247 2.16404 -0.39811
v 2.54112 2.08238 -0.34596
v 2.82460 2.06163 -0.34923
v 3.05489 2.23012 -0.44751
v 3.09312 2.08640 -0.39179
v 3.11894 1.97297 -0.22121
v 3.37682 2.10657 -0.42759
v 3.40260 1.96089 -0.24180
v 3.40604 1.88588 -0.00000
v 3.12607 1.91341 -0.00000
v 2.96021 2.47687 -0.22147
v 3.17027 2.60731 -0.23709
v 3.24738 2.47695 -0.42195
v 3.00545 2.36744 -0.38801
v 3.32350 2.29579 -0.49227
v 3.47614 2.58508 -0.44533
v 3.60141 2.35839 -0.53315
v 3.68376 2.12190 -0.46245
v 3.86389 2.44426 -0.55287
v 4.01485 2.16671 -0.47734
v 4.10361 1.97157 -0.27869
v 3.72604 1.94280 -0.26098
v 4.13808 1.89287 -0.00000
v 3.73906 1.85909 -0.00000
v 3.54350 2.85253 -0.25037
v 3.36760 2.73110 -0.24466
v 3.67935 2.69407 -0.45967
v 3.70233 2.96931 -0.25090
v 3.83624 2.81208 -0.46008
v 4.04921 2.57903 -0.55498
v 3.98264 2.96909 -0.43883
v 4.18823 2.81116 -0.52622
v 4.40706 2.69341 -0.45987
v 4.29059 2.36807 -0.47870
v 4.57980 2.62629 -0.26130
v 4.46767 2.22692 -0.27971
v 3.64574 3.04245 -0.00000
v 3.85579 3.09396 -0.24396
v 3.99507 3.24566 -0.22943
v 4.11414 3.16975 -0.40845
v 4.10303 3.43161 -0.20988
v 4.21332 3.40369 -0.37220
v 4.33876 3.37054 -0.42655
v 4.28067 3.08758 -0.47706
v 4.46718 3.34587 -0.37850
v 4.45416 3.02549 -0.42121
v 4.57626 3.32674 -0.22311
v 4.59138 2.99030 -0.24160
v 4.62910 3.32229 -0.00000
v 4.05974 3.44579 -0.00000
v 4.15964 3.64322 -0.19056
v 4.11983 3.85786 -0.00000
v 4.21461 4.56164 -0.00000
v 4.03410 4.81246 -0.00000
v 3.81717 5.04082 -0.00000
v 3.57050 5.23829 -0.00000
v 3.99106 4.77753 -0.22373
v 3.77473 4.99168 -0.23205
v 3.53056 5.17584 -0.24426
v 3.68558 4.86873 -0.41964
v 3.44788 5.02618 -0.43716
v 3.19115 5.15269 -0.45163
v 3.25836 5.32158 -0.25139
v 3.28903 5.39454 -0.00000
v 2.96355 5.42346 -0.25444
v 2.98360 5.50082 -0.00000
v 3.62238 4.23656 -0.00000
v 3.83110 4.16453 -0.00000
v 4.01129 4.04723 -0.00000
v 3.85843 4.19435 -0.20145
v 4.03320 4.05886 -0.18418
v 4.13927 3.86376 -0.18099
v 4.10732 4.10527 -0.32095
v 4.21455 3.88730 -0.30838
v 4.25130 3.64802 -0.32878
v 4.30536 3.91506 -0.36177
v 4.35306 3.64934 -0.38066
v 4.39449 3.94252 -0.32284
v 4.45346 3.64937 -0.34127
v 4.46202 3.96313 -0.19997
v 4.53827 3.64877 -0.20772
v 4.57698 3.65028 -0.00000
v 4.33731 4.25882 -0.20482
v 4.17653 4.53468 -0.21643
v 4.27290 4.21443 -0.33651
v 4.10127 4.46130 -0.36734
v 3.90181 4.68073 -0.39631
v 4.01485 4.37103 -0.41051
v 3.79851 4.53913 -0.45273
v 3.57275 4.68196 -0.48830
v 3.70609 4.39285 -0.38663
v 3.47765 4.49397 -0.41013
v 3.24706 4.58633 -0.42895
v 3.34032 4.80536 -0.51153
v 3.01620 4.67035 -0.43869
v 3.09918 4.90952 -0.52752
v 2.78304 4.74230 -0.43951
v 2.84996 4.98923 -0.52893
v 2.91780 5.24439 -0.45611
v 2.59225 5.04361 -0.52300
v 2.63466 5.29606 -0.44946
v 2.65758 5.47443 -0.25148
v 2.34744 5.31581 -0.43751
v 2.34906 5.48030 -0.24370
v 2.34695 5.55058 -0.00000
v 2.66502 5.55067 -0.00000
v 3.39948 4.30030 -0.00000
v 3.19330 4.43396 -0.23617
v 3.42128 4.36355 -0.22779
v 3.64618 4.28744 -0.21668
v 3.92941 4.27392 -0.35565
v 4.19099 4.15985 -0.37528
v 2.96620 4.50573 -0.23934
v 2.73764 4.57038 -0.24020
v 2.48717 4.55003 -0.00000
v 2.50786 4.62788 -0.23810
v 2.54530 4.79753 -0.43578
v 2.27689 4.68541 -0.23106
v 2.30396 4.84318 -0.42123
v 2.33086 5.07595 -0.50821
v 2.06128 4.87793 -0.40188
v 2.06589 5.08472 -0.48028
v 2.05746 5.29861 -0.41889
v 1.79970 5.06364 -0.44963
v 1.77409 5.23384 -0.39303
v 1.74403 5.35722 -0.22356
v 2.04137 5.44913 -0.23443
v 1.72754 5.40624 -0.00000
v 2.03181 5.50645 -0.00000
v 2.25874 4.61056 -0.00000
v 2.04753 4.73562 -0.22278
v 1.81430 4.72073 -0.00000
v 1.81775 4.77518 -0.21081
v 1.81438 4.89467 -0.38030
v 1.58875 4.78169 -0.19372
v 1.56236 4.88618 -0.35259
v 1.53252 5.00736 -0.40709
v 1.32744 4.81527 -0.31471
v 1.27992 4.89953 -0.37110
v 1.23367 4.98420 -0.33517
v 1.49519 5.12846 -0.36645
v 1.19319 5.05851 -0.19223
v 1.46124 5.23299 -0.21260
v 1.44519 5.27040 -0.00000
v 1.59891 4.74511 -0.00000
v 1.37219 4.74147 -0.16984
v 1.19131 4.61154 -0.00000
v 1.18163 4.62286 -0.16082
v 1.13249 4.67243 -0.29088
v 1.05649 4.43101 -0.17138
v 0.99471 4.47106 -0.30745
v 0.91592 4.51937 -0.36282
v 1.06995 4.73446 -0.35192
v 0.83281 4.56446 -0.32197
v 1.00682 4.79625 -0.31370
v 0.77020 4.59720 -0.19076
v 0.95984 4.84365 -0.18272
v 0.99683 4.20395 -0.19429
v 1.02542 3.95054 -0.00000
v 0.07741 3.00327 -0.00000
v 0.02797 2.70037 -0.00000
v 0.21884 3.27233 -0.23730
v 0.15782 2.99045 -0.24775
v 0.11403 2.69661 -0.25653
v 0.33298 2.97271 -0.44616
v 0.29851 2.69106 -0.46095
v 0.28427 2.39630 -0.47520
v 0.08733 2.37728 -0.27045
v 0.00000 2.37114 -0.00000
v 1.04918 3.45457 -0.00000
v 1.03897 3.70557 -0.00000
v 0.98473 3.45348 -0.22480
v 0.98209 3.70654 -0.21965
v 0.97771 3.95911 -0.21009
v 0.86258 3.71966 -0.38712
v 0.88205 3.97861 -0.36771
v 0.91936 4.23308 -0.34458
v 0.74352 4.00699 -0.42776
v 0.81317 4.26735 -0.39421
v 0.59753 4.04644 -0.37535
v 0.70297 4.30658 -0.35100
v 0.49127 4.07918 -0.21412
v 0.61375 4.34056 -0.20749
v 0.57539 4.35867 -0.00000
v 0.38374 3.81473 -0.22026
v 0.29378 3.54752 -0.22789
v 0.50848 3.78393 -0.39275
v 0.43456 3.51733 -0.41080
v 0.37593 3.24765 -0.42949
v 0.64240 3.48364 -0.48221
v 0.60614 3.22148 -0.50449
v 0.57907 2.95601 -0.52352
v 0.83192 3.20344 -0.42249
v 0.82204 2.94735 -0.43870
v 0.81454 2.69488 -0.44839
v 0.55875 2.68784 -0.54021
v 0.81369 2.44870 -0.45253
v 0.55377 2.41963 -0.54395
v 0.83327 2.20949 -0.45600
v 0.57762 2.14609 -0.54868
v 0.88202 1.97728 -0.44680
v 1.01848 2.25633 -0.25147
v 1.04826 2.05537 -0.24394
v 1.10466 1.88132 -0.22964
v 1.12480 2.08179 -0.00000
v 1.15930 1.91378 -0.00000
v 1.23561 1.77993 -0.00000
v 1.36197 1.68517 -0.00000
v 0.99522 2.70787 -0.24639
v 0.99297 2.95123 -0.24177
v 0.98759 3.20018 -0.23307
v 0.84662 3.45992 -0.40603
v 0.68774 3.74669 -0.45588
v 1.00317 2.47470 -0.25049
v 4.37794 1.10529 -0.00000
v 4.63419 0.78595 -0.00000
v 4.63716 0.34550 -0.00000
v 3.37360 0.30939 -0.00000
v 3.15871 0.50381 -0.00000
v 2.48773 2.21500 -0.00000
v 2.75391 1.47141 -0.00000
v 3.02084 1.41439 -0.00000
v 1.58568 1.32176 -0.00000
v 1.26247 1.10515 -0.00000
v 0.02916 2.01862 -0.00000
v 1.55948 1.66035 -0.00000
v 2.92981 2.52743 -0.00000
v 2.71689 2.37584 -0.00000
v 3.12567 2.66643 -0.00000
v 3.48315 2.92212 -0.00000
v 3.31212 2.79742 -0.00000
v 4.65147 2.60397 -0.00000
v 4.52910 2.17357 -0.00000
v 3.79892 3.15909 -0.00000
v 3.94032 3.28670 -0.00000
v 4.65431 2.98193 -0.00000
v 4.13258 3.64179 -0.00000
v 4.49174 3.97099 -0.00000
v 4.36945 4.27657 -0.00000
v 3.17203 4.36331 -0.00000
v 2.94383 4.42784 -0.00000
v 2.71590 4.48989 -0.00000
v 2.03400 4.66837 -0.00000
v 1.17934 5.08477 -0.00000
v 1.38414 4.72233 -0.00000
v 0.74240 4.61233 -0.00000
v 0.94321 4.86247 -0.00000
v 1.07321 4.41773 -0.00000
v 1.03009 4.18892 -0.00000
v 0.14676 3.28961 -0.00000
v 1.06102 3.20332 -0.00000
v 0.44250 4.09865 -0.00000
v 0.32698 3.83510 -0.00000
v 0.22894 3.56660 -0.00000
v 1.08281 2.71449 -0.00000
v 1.07251 2.95559 -0.00000
v 1.09464 2.48509 -0.00000
v 1.10637 2.27211 -0.00000
v 4.40312 0.71473 0.43966
v 2.00983 1.64314 0.33979
v 2.23825 1.68729 0.34867
v 4.21051 0.22861 0.43560
v 4.23050 0.82363 0.47358
v 4.32259 1.03163 0.27543
v 4.55949 0.77160 0.28059
v 4.55847 0.37779 0.29442
v 4.35809 0.45570 0.47320
v 4.13426 0.54106 0.55471
v 1.83005 1.60612 0.31566
v 1.80986 1.68275 0.27123
v 2.06021 1.80385 0.30367
v 2.09978 1.53667 0.29130
v 1.84248 1.55405 0.25855
v 2.32771 1.69436 0.28846
v 2.45314 1.47746 0.30729
v 2.41081 1.43031 0.35744
v 2.28264 1.99915 0.28420
v 2.34586 1.93797 0.32897
v 2.38718 1.89919 0.27224
v 4.27419 0.09636 0.28446
v 3.93822 0.07694 0.26752
v 4.00722 0.26549 0.46593
v 3.66052 0.20319 0.26307
v 3.76141 0.37725 0.47259
v 3.88780 0.63417 0.55764
v 3.52074 0.52142 0.45596
v 3.64272 0.74334 0.53519
v 3.73567 0.97923 0.45158
v 3.98334 0.90299 0.47229
v 3.78465 1.16073 0.25047
v 4.04372 1.11138 0.26372
v 3.42265 0.37436 0.25270
v 3.20578 0.56136 0.23669
v 3.29013 0.68673 0.42687
v 2.99158 0.74199 0.22399
v 3.05873 0.84871 0.40206
v 3.14572 1.00864 0.46969
v 3.39476 0.87438 0.50270
v 3.22185 1.16995 0.40038
v 3.48129 1.07165 0.42756
v 3.26782 1.28998 0.22594
v 3.52942 1.22234 0.23870
v 2.77151 0.91825 0.21444
v 2.50021 1.52263 0.17785
v 2.38437 1.69744 0.16605
v 2.42303 1.87140 0.15946
v 2.57442 2.01587 0.29022
v 2.60287 1.96279 0.16812
v 2.85194 1.97663 0.19925
v 1.84850 1.50698 0.14292
v 2.08690 1.47815 0.15847
v 2.31224 1.28928 0.18431
v 2.54877 1.09844 0.19952
v 2.34348 1.33943 0.31623
v 2.59131 1.17000 0.34793
v 2.82770 1.01126 0.37752
v 2.64734 1.26581 0.39562
v 2.89896 1.13807 0.43022
v 2.69888 1.35806 0.34528
v 2.96021 1.26668 0.37330
v 2.73845 1.43279 0.20317
v 3.00211 1.36366 0.21457
v 1.58769 1.35031 0.16345
v 1.59282 1.41708 0.29491
v 1.28503 1.26853 0.36582
v 1.29976 1.40698 0.41399
v 1.58571 1.50055 0.34366
v 1.27118 1.14986 0.21602
v 0.82674 1.11115 0.25102
v 0.90564 1.25702 0.41746
v 0.43010 1.32687 0.27154
v 0.11774 2.03819 0.27574
v 0.21474 1.68174 0.27798
v 0.31479 2.08410 0.48193
v 0.40356 1.75954 0.47806
v 0.58691 1.45127 0.45432
v 0.64598 1.86597 0.54015
v 0.78040 1.61029 0.50666
v 1.00220 1.44139 0.46638
v 0.97501 1.77655 0.42078
v 1.12245 1.63403 0.38621
v 1.32944 1.56917 0.34189
v 1.20227 1.74686 0.21161
v 1.35132 1.65925 0.18677
v 1.55891 1.65022 0.16152
v 1.56548 1.59567 0.28599
v 1.79803 1.72718 0.15294
v 2.03120 1.86614 0.16101
v 2.25824 2.03171 0.15974
v 2.49625 2.19386 0.16833
v 2.51300 2.15122 0.29534
v 2.73363 2.33958 0.19423
v 2.75993 2.26536 0.34285
v 2.79247 2.16404 0.39811
v 2.54112 2.08238 0.34596
v 2.82460 2.06163 0.34923
v 3.05489 2.23012 0.44751
v 3.09312 2.08640 0.39179
v 3.11894 1.97297 0.22121
v 3.37682 2.10657 0.42759
v 3.40260 1.96089 0.24180
v 2.96021 2.47687 0.22147
v 3.17027 2.60731 0.23709
v 3.24738 2.47695 0.42195
v 3.00545 2.36744 0.38801
v 3.32350 2.29579 0.49227
v 3.47614 2.58508 0.44533
v 3.60141 2.35839 0.53315
v 3.68376 2.12190 0.46245
v 3.86389 2.44426 0.55287
v 4.01485 2.16671 0.47734
v 4.10361 1.97157 0.27869
v 3.72604 1.94280 0.26098
v 3.54350 2.85253 0.25037
v 3.36760 2.73110 0.24466
v 3.67935 2.69407 0.45967
v 3.70233 2.96931 0.25090
v 3.83624 2.81208 0.46008
v 4.04921 2.57903 0.55498
v 3.98264 2.96909 0.43883
v 4.18823 2.81116 0.52622
v 4.40706 2.69341 0.45987
v 4.29059 2.36807 0.47870
v 4.57980 2.62629 0.26130
v 4.46767 2.22692 0.27971
v 3.85579 3.09396 0.24396
v 3.99507 3.24566 0.22943
v 4.11414 3.16975 0.40845
v 4.10303 3.43161 0.20988
v 4.21332 3.40369 0.37220
v 4.33876 3.37054 0.42655
v 4.28067 3.08758 0.47706
v 4.46718 3.34587 0.37850
v 4.45416 3.02549 0.42121
v 4.57626 3.32674 0.22311
v 4.59138 2.99030 0.24160
v 4.15964 3.64322 0.19056
v 3.99106 4.77753 0.22373
v 3.77473 4.99168 0.23205
v 3.53056 5.17584 0.24426
v 3.68558 4.86873 0.41964
v 3.44788 5.02618 0.43716
v 3.19115 5.15269 0.45163
v 3.25836 5.32158 0.25139
v 2.96355 5.42346 0.25444
v 3.85843 4.19435 0.20145
v 4.03320 4.05886 0.18418
v 4.13927 3.86376 0.18099
v 4.10732 4.10527 0.32095
v 4.21455 3.88730 0.30838
v 4.25130 3.64802 0.32878
v 4.30536 3.91506 0.36177
v 4.35306 3.64934 0.38066
v 4.39449 3.94252 0.32284
v 4.45346 3.64937 0.34127
v 4.46202 3.96313 0.19997
v 4.53827 3.64877 0.20772
v 4.33731 4.25882 0.20482
v 4.17653 4.53468 0.21643
v 4.27290 4.21443 0.33651
v 4.10127 4.46130 0.36734
v 3.90181 4.68073 0.39631
v 4.01485 4.37103 0.41051
v 3.79851 4.53913 0.45273
v 3.57275 4.68196 0.48830
v 3.70609 4.39285 0.38663
v 3.47765 4.49397 0.41013
v 3.24706 4.58633 0.42895
v 3.34032 4.80536 0.51153
v 3.01620 4.67035 0.43869
v 3.09918 4.90952 0.52752
v 2.78304 4.74230 0.43951
v 2.84996 4.98923 0.52893
v 2.91780 5.24439 0.45611
v 2.59225 5.04361 0.52300
v 2.63466 5.29606 0.44946
v 2.65758 5.47443 0.25148
v 2.34744 5.31581 0.43751
v 2.34906 5.48030 0.24370
v 3.19330 4.43396 0.23617
v 3.42128 4.36355 0.22779
v 3.64618 4.28744 0.21668
v 3.92941 4.27392 0.35565
v 4.19099 4.15985 0.37528
v 2.96620 4.50573 0.23934
v 2.73764 4.57038 0.24020
v 2.50786 4.62788 0.23810
v 2.54530 4.79753 0.43578
v 2.27689 4.68541 0.23106
v 2.30396 4.84318 0.42123
v 2.33086 5.07595 0.50821
v 2.06128 4.87793 0.40188
v 2.06589 5.08472 0.48028
v 2.05746 5.29861 0.41889
v 1.79970 5.06364 0.44963
v 1.77409 5.23384 0.39303
v 1.74403 5.35722 0.22356
v 2.04137 5.44913 0.23443
v 2.04753 4.73562 0.22278
v 1.81775 4.77518 0.21081
v 1.81438 4.89467 0.38030
v 1.58875 4.78169 0.19372
v 1.56236 4.88618 0.35259
v 1.53252 5.00736 0.40709
v 1.32744 4.81527 0.31471
v 1.27992 4.89953 0.37110
v 1.23367 4.98420 0.33517
v 1.49519 5.12846 0.36645
v 1.19319 5.05851 0.19223
v 1.46124 5.23299 0.21260
v 1.37219 4.74147 0.16984
v 1.18163 4.62286 0.16082
v 1.13249 4.67243 0.29088
v 1.05649 4.43101 0.17138
v 0.99471 4.47106 0.30745
v 0.91592 4.51937 0.36282
v 1.06995 4.73446 0.35192
v 0.83281 4.56446 0.32197
v 1.00682 4.79625 0.31370
v 0.77020 4.59720 0.19076
v 0.95984 4.84365 0.18272
v 0.99683 4.20395 0.19429
v 0.21884 3.27233 0.23730
v 0.15782 2.99045 0.24775
v 0.11403 2.69661 0.25653
v 0.33298 2.97271 0.44616
v 0.29851 2.69106 0.46095
v 0.28427 2.39630 0.47520
v 0.08733 2.37728 0.27045
v 0.98473 3.45348 0.22480
v 0.98209 3.70654 0.21965
v 0.97771 3.95911 0.21009
v 0.86258 3.71966 0.38712
v 0.88205 3.97861 0.36771
v 0.91936 4.23308 0.34458
v 0.74352 4.00699 0.42776
v 0.81317 4.26735 0.39421
v 0.59753 4.04644 0.37535
v 0.70297 4.30658 0.35100
v 0.49127 4.07918 0.21412
v 0.61375 4.34056 0.20749
v 0.38374 3.81473 0.22026
v 0.29378 3.54752 0.22789
v 0.50848 3.78393 0.39275
v 0.43456 3.51733 0.41080
v 0.37593 3.24765 0.42949
v 0.64240 3.48364 0.48221
v 0.60614 3.22148 0.50449
v 0.57907 2.95601 0.52352
v 0.83192 3.20344 0.42249
v 0.82204 2.94735 0.43870
v 0.81454 2.69488 0.44839
v 0.55875 2.68784 0.54021
v 0.81369 2.44870 0.45253
v 0.55377 2.41963 0.54395
v 0.83327 2.20949 0.45600
v 0.57762 2.14609 0.54868
v 0.88202 1.97728 0.44680
v 1.01848 2.25633 0.25147
v 1.04826 2.05537 0.24394
v 1.10466 1.88132 0.22964
v 0.99522 2.70787 0.24639
v 0.99297 2.95123 0.24177
v 0.98759 3.20018 0.23307
v 0.84662 3.45992 0.40603
v 0.68774 3.74669 0.45588
v 1.00317 2.47470 0.25049
vn 0.52387 0.21511 -0.82419
vn 0.28209 0.40019 -0.87193
vn 0.44308 0.71837 -0.53630
vn 0.78785 0.31218 -0.53089
vn 0.78360 -0.32320 -0.53059
vn 0.44428 -0.18335 -0.87692
vn 0.11971 -0.05392 -0.99134
vn -0.06532 -0.11635 -0.99106
vn -0.18272 0.41713 -0.89029
vn -0.29624 0.67048 -0.68022
vn -0.11718 0.19867 -0.97304
vn -0.21207 -0.55965 -0.80114
vn 0.18544 -0.77060 -0.60974
vn 0.16432 -0.60375 -0.78006
vn -0.12269 0.01990 -0.99225
vn 0.60487 0.10022 -0.78999
vn 0.76960 0.13293 -0.62453
vn 0.46457 0.58886 -0.66137
vn 0.34831 0.44612 -0.82441
vn -0.27110 0.33115 -0.90379
vn 0.50774 -0.39041 -0.76797
vn 0.62839 -0.48248 -0.61020
vn 0.22727 -0.53939 -0.81080
vn 0.33719 -0.78860 -0.51421
vn -0.16736 -0.84866 -0.50176
vn -0.06705 -0.51436 -0.85495
vn -0.43169 -0.74591 -0.50721
vn -0.26255 -0.45222 -0.85239
vn -0.04265 0.01843 -0.99892
vn -0.36329 -0.41945 -0.83192
vn -0.09941 0.05100 -0.99374
vn 0.09628 0.53347 -0.84032
vn 0.11115 0.49467 -0.86194
vn 0.16853 0.83981 -0.51606
vn 0.18847 0.82247 -0.53668
vn 0.18958 0.98186 -0.00000
vn 0.22541 0.97426 -0.00048
vn 0.54323 0.83959 0.00118
vn 0.93676 0.34996 0.00170
vn -0.17634 -0.98433 0.00017
vn -0.50018 -0.86592 -0.00044
vn 0.40458 -0.91450 0.00067
vn 0.69966 -0.71448 0.00010
vn 0.99998 0.00676 -0.00000
vn -0.63109 -0.77571 -0.00002
vn -0.54923 -0.67707 -0.48982
vn -0.66667 -0.74535 0.00001
vn -0.58770 -0.66357 -0.46290
vn -0.40425 -0.42754 -0.80857
vn -0.58479 -0.68697 -0.43139
vn -0.41196 -0.45292 -0.79066
vn -0.11548 0.06709 -0.99104
vn -0.11264 0.05971 -0.99184
vn 0.13220 0.59600 -0.79203
vn 0.11918 0.56378 -0.81728
vn 0.21618 0.86916 -0.44479
vn 0.19827 0.85231 -0.48400
vn 0.23031 0.97312 -0.00005
vn 0.21588 0.97642 0.00004
vn -0.65438 -0.75616 -0.00002
vn -0.64679 -0.76267 -0.00004
vn -0.58839 -0.70637 -0.39349
vn 0.81571 0.57846 0.00089
vn 0.59383 0.80459 0.00086
vn 0.57834 0.75775 -0.30221
vn 0.79603 0.54691 -0.25927
vn 0.97754 -0.21077 -0.00010
vn 0.95009 -0.21182 -0.22905
vn 0.43220 -0.86665 -0.24922
vn 0.19313 -0.74631 -0.63696
vn 0.22746 -0.93128 -0.28456
vn 0.22206 -0.97503 0.00001
vn 0.42692 -0.90429 -0.00051
vn -0.01618 -0.93933 -0.34264
vn -0.02722 -0.99963 0.00027
vn -0.41505 -0.90980 0.00021
vn 0.21383 -0.97687 0.00014
vn 0.20630 -0.94370 -0.25859
vn -0.40117 -0.87759 -0.26248
vn -0.62385 -0.72862 -0.28272
vn -0.65503 -0.75560 0.00019
vn -0.60106 -0.72233 -0.34201
vn -0.64880 -0.76096 -0.00001
vn -0.58609 -0.69535 -0.41591
vn -0.44479 -0.49533 -0.74620
vn -0.42300 -0.47483 -0.77176
vn -0.28747 -0.25310 -0.92374
vn -0.27313 -0.25249 -0.92825
vn 0.05604 0.39745 -0.91591
vn 0.12107 0.46573 -0.87661
vn 0.19625 0.67381 -0.71237
vn 0.14059 0.62947 -0.76420
vn 0.26296 0.89991 -0.34787
vn 0.22231 0.88862 -0.40115
vn 0.26879 0.96320 0.00038
vn 0.23197 0.97272 -0.00009
vn -0.28157 -0.21019 -0.93624
vn 0.52400 -0.80857 -0.26764
vn 0.44602 -0.64228 -0.62333
vn 0.54462 -0.83868 0.00013
vn 0.29240 -0.59206 -0.75098
vn 0.23086 0.01067 -0.97293
vn 0.36525 -0.47356 -0.80146
vn 0.32952 -0.87015 -0.36640
vn -0.14656 -0.87101 -0.46890
vn -0.02506 -0.52704 -0.84947
vn 0.33849 -0.94097 -0.00002
vn -0.18748 -0.98227 -0.00017
vn -0.67515 -0.73768 0.00019
vn -0.57079 -0.63765 -0.51730
vn -0.91418 -0.40530 0.00029
vn -0.98464 -0.17462 -0.00006
vn -0.84130 -0.14773 -0.51999
vn -0.77705 -0.34731 -0.52494
vn -0.48610 -0.08444 -0.86981
vn -0.42408 -0.21623 -0.87943
vn -0.27809 -0.38161 -0.88150
vn 0.08495 -0.04254 -0.99548
vn 0.12886 -0.06115 -0.98978
vn 0.17537 -0.03336 -0.98394
vn 0.53071 0.22376 -0.81749
vn 0.42528 0.42179 -0.80077
vn 0.21901 0.62556 -0.74880
vn 0.63473 0.64732 -0.42200
vn 0.29177 0.89338 -0.34166
vn -0.11405 0.95981 -0.25643
vn -0.06236 0.72241 -0.68865
vn -0.00451 0.47173 -0.88173
vn -0.40074 0.88657 -0.23110
vn -0.10949 0.99399 -0.00038
vn -0.41789 0.90850 -0.00004
vn -0.55730 0.83031 -0.00004
vn -0.54345 0.80533 -0.23688
vn -0.51929 0.76474 -0.38145
vn -0.58122 0.81374 0.00005
vn -0.57096 0.78889 -0.22728
vn -0.55530 0.75638 -0.34574
vn -0.56487 0.82518 0.00005
vn -0.53631 0.80573 -0.25132
vn -0.44386 0.62720 -0.64001
vn -0.50917 0.79438 -0.33123
vn -0.40139 0.59504 -0.69629
vn -0.30669 0.37985 -0.87273
vn -0.33344 0.40457 -0.85155
vn 0.14473 -0.57562 -0.80481
vn -0.06472 -0.48394 -0.87271
vn -0.03526 -0.70683 -0.70651
vn -0.18535 -0.03967 -0.98187
vn -0.06405 -0.63851 -0.76694
vn -0.05384 -0.91209 -0.40644
vn -0.06900 -0.59132 -0.80348
vn -0.06554 -0.88822 -0.45471
vn -0.07894 -0.99688 -0.00010
vn -0.07025 -0.99753 -0.00007
vn -0.55756 0.83014 0.00013
vn -0.56024 0.82833 -0.00001
vn -0.49689 0.76307 -0.41330
vn -0.55939 0.82890 -0.00024
vn -0.48197 0.73895 -0.47080
vn -0.33088 0.48419 -0.80999
vn -0.36277 0.52924 -0.76701
vn -0.16059 -0.03624 -0.98636
vn -0.30612 0.45507 -0.83618
vn -0.11875 -0.02246 -0.99267
vn -0.02252 -0.54408 -0.83873
vn -0.05500 0.00262 -0.99848
vn 0.15077 -0.45613 -0.87705
vn 0.28230 -0.79988 -0.52962
vn -0.00458 -0.87131 -0.49072
vn 0.33868 -0.94090 -0.00001
vn -0.00205 -1.00000 -0.00021
vn -0.57019 0.82151 -0.00007
vn -0.58831 0.80863 0.00002
vn -0.49510 0.68827 -0.53024
vn -0.47992 0.71477 -0.50870
vn -0.30459 0.42574 -0.85204
vn -0.51638 0.67219 -0.53057
vn -0.31956 0.41756 -0.85060
vn 0.01289 0.06526 -0.99778
vn -0.36876 0.41453 -0.83198
vn 0.04889 0.14271 -0.98856
vn 0.53448 -0.04582 -0.84394
vn 0.38981 -0.25526 -0.88481
vn 0.86841 -0.12048 -0.48099
vn 0.69428 -0.48048 -0.53583
vn 0.99011 -0.14027 0.00025
vn 0.81917 -0.57355 0.00040
vn -0.60369 0.79722 -0.00004
vn -0.65577 0.75496 0.00049
vn -0.57785 0.64013 -0.50628
vn -0.76623 0.64257 0.00140
vn -0.69502 0.55551 -0.45647
vn -0.46140 0.37669 -0.80325
vn -0.82937 0.38998 -0.40008
vn -0.56893 0.28783 -0.77037
vn 0.00544 0.18073 -0.98352
vn 0.03981 0.17799 -0.98323
vn 0.61643 0.10618 -0.78021
vn 0.58885 0.05427 -0.80642
vn 0.91118 0.09532 -0.40084
vn 0.89856 0.02438 -0.43817
vn 0.99455 0.10430 0.00009
vn 0.99964 0.02700 0.00003
vn -0.89813 0.43973 0.00033
vn -0.99268 0.12077 -0.00063
vn -0.92690 0.10517 -0.36027
vn 0.66918 0.74310 0.00005
vn 0.76282 0.64661 0.00017
vn 0.68591 0.58762 -0.42922
vn 0.59225 0.66266 -0.45839
vn 0.48309 0.73044 -0.48279
vn 0.55201 0.83384 -0.00003
vn 0.39303 0.40858 -0.82377
vn 0.31540 0.44604 -0.83760
vn 0.22693 0.47965 -0.84761
vn 0.35506 0.79239 -0.49604
vn 0.40694 0.91345 0.00005
vn 0.21262 0.84051 -0.49832
vn 0.24444 0.96967 0.00004
vn -0.74259 -0.66975 0.00029
vn -0.47012 -0.88260 0.00082
vn -0.44351 -0.81247 -0.37841
vn -0.70023 -0.62144 -0.35141
vn -0.90015 -0.26960 -0.34212
vn -0.95782 -0.28738 -0.00015
vn -0.49860 -0.44975 -0.74103
vn -0.64992 -0.19252 -0.73521
vn -0.65757 0.09363 -0.74755
vn -0.45263 -0.13208 -0.88186
vn -0.44153 0.09344 -0.89237
vn 0.36397 0.13111 -0.92213
vn 0.36290 0.12409 -0.92353
vn 0.62290 0.20771 -0.75422
vn 0.62844 0.15330 -0.76260
vn 0.89246 0.29501 -0.34129
vn 0.91407 0.17950 -0.36367
vn 0.94930 0.31436 -0.00001
vn 0.98068 0.19561 0.00003
vn 0.90102 0.43378 0.00002
vn 0.84098 0.40928 -0.35390
vn 0.77018 0.50290 -0.39232
vn 0.84086 0.54125 -0.00002
vn 0.59113 0.26405 -0.76213
vn 0.53267 0.31476 -0.78561
vn 0.46479 0.36286 -0.80766
vn 0.08425 -0.13178 -0.98769
vn 0.10572 -0.10907 -0.98840
vn 0.08791 -0.07773 -0.99309
vn -0.19151 -0.59420 -0.78118
vn -0.16191 -0.57437 -0.80243
vn -0.15678 -0.55299 -0.81831
vn 0.06094 -0.05365 -0.99670
vn -0.15838 -0.54030 -0.82644
vn 0.02379 -0.03811 -0.99899
vn -0.14939 -0.53804 -0.82958
vn -0.01524 -0.02792 -0.99949
vn 0.12717 0.50907 -0.85128
vn -0.04801 -0.02336 -0.99857
vn 0.03615 0.53051 -0.84691
vn 0.07286 0.86867 -0.49000
vn -0.04805 0.54281 -0.83848
vn -0.04969 0.88047 -0.47150
vn -0.05941 0.99823 0.00008
vn 0.08193 0.99664 -0.00001
vn -0.28386 -0.95887 -0.00009
vn -0.28031 -0.95991 0.00001
vn -0.25214 -0.84173 -0.47741
vn -0.26056 -0.85326 -0.45172
vn -0.30403 -0.85663 -0.41683
vn -0.32492 -0.94574 0.00036
vn -0.29980 -0.57812 -0.75888
vn -0.33110 -0.31928 -0.88794
vn 0.35392 0.12270 -0.92719
vn -0.27579 -0.96122 -0.00002
vn -0.24537 -0.83375 -0.49463
vn -0.25842 -0.96603 -0.00000
vn -0.22512 -0.83484 -0.50236
vn -0.25187 -0.96776 0.00001
vn -0.21691 -0.83926 -0.49859
vn -0.14684 -0.54364 -0.82637
vn -0.21148 -0.84832 -0.48541
vn -0.15178 -0.55813 -0.81575
vn -0.08587 -0.02774 -0.99592
vn -0.13438 -0.58513 -0.79973
vn -0.11459 -0.03979 -0.99262
vn -0.14603 0.54360 -0.82654
vn -0.13399 -0.05886 -0.98923
vn -0.24172 0.53425 -0.81003
vn -0.33122 0.84541 -0.41901
vn -0.19322 0.87323 -0.44737
vn -0.36553 0.93080 0.00002
vn -0.21717 0.97613 0.00008
vn -0.24536 -0.96943 -0.00003
vn -0.22244 -0.97495 0.00017
vn -0.18705 -0.86836 -0.45930
vn -0.14321 -0.98969 0.00075
vn -0.11833 -0.90059 -0.41826
vn -0.09087 -0.62152 -0.77811
vn 0.03582 -0.92789 -0.37112
vn 0.01192 -0.66402 -0.74762
vn -0.01834 -0.43970 -0.89796
vn 0.23471 -0.66162 -0.71216
vn 0.15366 -0.47778 -0.86494
vn -0.22293 0.25931 -0.93971
vn -0.26763 0.25139 -0.93015
vn -0.42526 0.48952 -0.76127
vn -0.33155 0.51435 -0.79090
vn -0.58745 0.73546 -0.33764
vn -0.45608 0.80305 -0.38354
vn -0.62525 0.78042 -0.00001
vn -0.49438 0.86925 0.00002
vn 0.02922 -0.99957 0.00029
vn 0.33072 -0.94373 -0.00020
vn 0.32127 -0.88712 -0.33136
vn 0.69887 -0.71525 0.00000
vn 0.66878 -0.67707 -0.30710
vn 0.51173 -0.51304 -0.68915
vn 0.88170 -0.35951 -0.30554
vn 0.67222 -0.25850 -0.69376
vn 0.47915 -0.16521 -0.86204
vn 0.37621 -0.37931 -0.84533
vn -0.29651 0.25746 -0.91967
vn -0.29978 0.25361 -0.91968
vn -0.53694 0.39893 -0.74334
vn -0.50162 0.45383 -0.73649
vn -0.77089 0.54481 -0.33002
vn -0.69923 0.64357 -0.31127
vn -0.81436 0.58035 0.00007
vn -0.73607 0.67690 0.00014
vn 0.92578 -0.37807 0.00011
vn 0.99173 -0.12833 0.00039
vn 0.93493 -0.12679 -0.33140
vn -0.98094 0.19430 0.00002
vn -0.96722 0.25393 0.00006
vn -0.85060 0.22172 -0.47679
vn -0.85317 0.16995 -0.49318
vn -0.85656 0.11366 -0.50337
vn -0.99214 0.12513 -0.00007
vn -0.53602 0.12491 -0.83491
vn -0.52685 0.08543 -0.84565
vn -0.51084 0.01566 -0.85953
vn -0.85861 0.00841 -0.51255
vn -0.99999 0.00384 -0.00006
vn 0.99940 0.03461 -0.00010
vn 0.99951 0.03120 0.00005
vn 0.89328 0.02026 -0.44904
vn 0.90872 0.02110 -0.41687
vn 0.92696 -0.01325 -0.37492
vn 1.00000 -0.00086 0.00011
vn 0.62338 0.02184 -0.78162
vn 0.65630 -0.00161 -0.75450
vn 0.68837 -0.07507 -0.72147
vn 0.40034 0.02251 -0.91609
vn 0.44617 -0.01817 -0.89476
vn -0.29253 0.22299 -0.92989
vn -0.29223 0.18229 -0.93881
vn -0.54776 0.27090 -0.79156
vn -0.54340 0.33154 -0.77124
vn -0.83152 0.37589 -0.40901
vn -0.80990 0.45193 -0.37394
vn -0.90884 0.41714 0.00008
vn -0.87070 0.49181 0.00001
vn -0.93162 0.36344 -0.00001
vn -0.84049 0.32270 -0.43526
vn -0.84691 0.27089 -0.45755
vn -0.95178 0.30677 -0.00001
vn -0.55008 0.22959 -0.80293
vn -0.54786 0.19510 -0.81350
vn -0.54247 0.15933 -0.82483
vn 0.02920 0.09178 -0.99535
vn 0.02420 0.08001 -0.99650
vn 0.02232 0.06702 -0.99750
vn 0.57910 0.02929 -0.81473
vn 0.56504 0.02764 -0.82460
vn 0.55569 0.01940 -0.83116
vn 0.02754 0.04284 -0.99870
vn 0.54805 0.03566 -0.83568
vn 0.03814 0.02317 -0.99900
vn 0.54961 0.06570 -0.83284
vn 0.05267 0.00134 -0.99861
vn 0.55795 0.10860 -0.82274
vn 0.85370 0.08605 -0.51361
vn 0.85374 0.17088 -0.49187
vn 0.80690 0.36386 -0.46532
vn 0.98362 0.18027 -0.00078
vn 0.91952 0.39303 0.00001
vn 0.72047 0.69349 -0.00020
vn 0.33729 0.94140 -0.00116
vn 0.99941 0.03442 0.00002
vn 0.99929 0.03757 0.00001
vn 0.85957 0.02690 -0.51031
vn 0.86923 0.02610 -0.49372
vn 0.88019 0.02737 -0.47383
vn 0.99932 0.03684 0.00002
vn 0.59785 0.02417 -0.80124
vn 0.04043 0.10053 -0.99411
vn 0.99851 0.05462 0.00002
vn 0.85295 0.04785 -0.51980
vn 0.99600 0.08939 -0.00018
vn 0.78414 0.30868 0.53837
vn 0.44335 0.71376 0.54221
vn 0.28485 0.39602 0.87294
vn 0.52236 0.21252 0.82582
vn 0.44109 -0.18350 0.87850
vn 0.77829 -0.32232 0.53887
vn 0.12505 -0.05628 0.99055
vn -0.17485 0.17916 0.96816
vn -0.29103 0.67591 0.67709
vn -0.17625 0.42948 0.88571
vn -0.12575 -0.11353 0.98554
vn 0.14605 -0.59017 0.79396
vn 0.17578 -0.76647 0.61776
vn -0.25239 -0.55448 0.79300
vn -0.18774 -0.00558 0.98220
vn 0.34261 0.45300 0.82305
vn 0.46037 0.59253 0.66103
vn 0.76258 0.13146 0.63340
vn 0.59257 0.09915 0.79940
vn -0.29703 0.31645 0.90090
vn -0.45955 0.58105 0.67171
vn 0.62179 -0.48003 0.61883
vn 0.49523 -0.38671 0.77795
vn -0.06336 -0.51581 0.85436
vn -0.16574 -0.84738 0.50445
vn 0.33368 -0.78577 0.52080
vn 0.22428 -0.53896 0.81192
vn -0.26242 -0.45303 0.85200
vn -0.43159 -0.74662 0.50624
vn -0.04228 0.01815 0.99894
vn -0.09871 0.05045 0.99384
vn -0.36280 -0.42003 0.83183
vn 0.11193 0.49394 0.86226
vn 0.09634 0.53369 0.84017
vn 0.18924 0.82227 0.53671
vn 0.16833 0.84001 0.51579
vn -0.54929 -0.67718 0.48961
vn -0.58739 -0.66376 0.46302
vn -0.40384 -0.42775 0.80866
vn -0.41203 -0.45287 0.79066
vn -0.58452 -0.68717 0.43144
vn -0.11214 0.05938 0.99192
vn -0.11547 0.06708 0.99104
vn 0.11952 0.56362 0.81734
vn 0.13285 0.59562 0.79221
vn 0.19842 0.85223 0.48408
vn 0.21633 0.86909 0.44485
vn -0.58835 -0.70643 0.39345
vn 0.79591 0.54502 0.26360
vn 0.57840 0.75710 0.30373
vn 0.94925 -0.21243 0.23195
vn 0.23084 -0.92988 0.28643
vn 0.19297 -0.74456 0.63905
vn 0.43283 -0.86575 0.25127
vn -0.01325 -0.93913 0.34330
vn -0.40109 -0.87762 0.26250
vn 0.20600 -0.94386 0.25823
vn -0.62376 -0.72849 0.28325
vn -0.60105 -0.72231 0.34208
vn -0.44543 -0.49446 0.74639
vn -0.58739 -0.69386 0.41657
vn -0.42340 -0.47460 0.77168
vn -0.27475 -0.25129 0.92810
vn -0.28852 -0.25155 0.92384
vn 0.14150 0.62884 0.76455
vn 0.19438 0.67675 0.71009
vn 0.11772 0.47075 0.87438
vn 0.05767 0.39626 0.91632
vn 0.22237 0.88861 0.40115
vn 0.26406 0.89980 0.34732
vn -0.28692 -0.20607 0.93553
vn 0.44718 -0.64041 0.62443
vn 0.52592 -0.80719 0.26806
vn 0.36424 -0.47225 0.80269
vn 0.22907 0.00910 0.97337
vn 0.29190 -0.59246 0.75086
vn 0.33110 -0.86940 0.36676
vn -0.02655 -0.52803 0.84881
vn -0.14689 -0.87113 0.46858
vn -0.57122 -0.63760 0.51689
vn -0.77719 -0.34738 0.52469
vn -0.84124 -0.14774 0.52009
vn -0.42325 -0.21614 0.87986
vn -0.48570 -0.08442 0.87004
vn -0.27831 -0.38202 0.88125
vn 0.13174 -0.06014 0.98946
vn 0.08659 -0.04208 0.99535
vn 0.17289 -0.03611 0.98428
vn 0.43049 0.42144 0.79817
vn 0.53357 0.22506 0.81526
vn 0.22043 0.62664 0.74748
vn 0.29555 0.89319 0.33891
vn 0.63946 0.64667 0.41582
vn -0.06206 0.72373 0.68729
vn -0.11535 0.95927 0.25788
vn 0.00088 0.47814 0.87829
vn -0.39986 0.88684 0.23157
vn -0.54149 0.80673 0.23661
vn -0.51514 0.76777 0.38101
vn -0.57002 0.78977 0.22659
vn -0.53888 0.80399 0.25141
vn -0.44558 0.62786 0.63817
vn -0.40547 0.59298 0.69568
vn -0.51286 0.79199 0.33124
vn -0.33403 0.40919 0.84911
vn -0.30728 0.38074 0.87214
vn -0.03557 -0.70746 0.70586
vn -0.06688 -0.48615 0.87131
vn 0.13992 -0.57541 0.80581
vn -0.06182 -0.63816 0.76742
vn -0.18356 -0.03940 0.98222
vn -0.05343 -0.91219 0.40627
vn -0.06401 -0.88833 0.45473
vn -0.06698 -0.59128 0.80368
vn -0.49734 0.76259 0.41365
vn -0.48212 0.73882 0.47085
vn -0.36403 0.52810 0.76720
vn -0.32997 0.48447 0.81019
vn -0.16009 -0.03586 0.98645
vn -0.12056 -0.02257 0.99245
vn -0.30790 0.45507 0.83553
vn -0.02213 -0.54382 0.83891
vn 0.15113 -0.45586 0.87712
vn -0.05550 0.00278 0.99845
vn -0.00389 -0.87112 0.49105
vn 0.28235 -0.79969 0.52988
vn -0.48023 0.71468 0.50854
vn -0.49450 0.68847 0.53054
vn -0.30489 0.42595 0.85183
vn -0.31989 0.41545 0.85151
vn -0.51675 0.67163 0.53092
vn 0.01285 0.06389 0.99787
vn 0.04896 0.13949 0.98901
vn -0.36917 0.41261 0.83275
vn 0.39084 -0.25626 0.88407
vn 0.53509 -0.04542 0.84357
vn 0.69482 -0.48106 0.53462
vn 0.86871 -0.11992 0.48058
vn -0.57812 0.64033 0.50572
vn -0.69518 0.55406 0.45796
vn -0.46101 0.37703 0.80332
vn -0.56776 0.28786 0.77122
vn -0.82928 0.38933 0.40090
vn 0.03974 0.17753 0.98331
vn 0.00672 0.18041 0.98357
vn 0.58875 0.05422 0.80650
vn 0.61654 0.10532 0.78025
vn 0.89843 0.02478 0.43842
vn 0.91108 0.09538 0.40104
vn -0.92702 0.10701 0.35942
vn 0.59251 0.66211 0.45885
vn 0.68581 0.58759 0.42943
vn 0.48315 0.73027 0.48298
vn 0.31551 0.44562 0.83778
vn 0.39326 0.40780 0.82404
vn 0.35506 0.79241 0.49600
vn 0.22691 0.47956 0.84766
vn 0.21262 0.84052 0.49831
vn -0.70106 -0.61974 0.35276
vn -0.44488 -0.81112 0.37968
vn -0.89993 -0.26962 0.34267
vn -0.64975 -0.19241 0.73539
vn -0.49837 -0.45040 0.74079
vn -0.65726 0.09292 0.74791
vn -0.44048 0.09092 0.89315
vn -0.45346 -0.13179 0.88148
vn 0.62854 0.15348 0.76248
vn 0.62326 0.20764 0.75394
vn 0.36304 0.12418 0.92346
vn 0.36412 0.13090 0.92211
vn 0.91401 0.17998 0.36359
vn 0.89268 0.29472 0.34096
vn 0.84117 0.40868 0.35414
vn 0.77016 0.50273 0.39257
vn 0.53263 0.31410 0.78590
vn 0.59137 0.26306 0.76229
vn 0.46466 0.36293 0.80770
vn 0.10479 -0.10765 0.98865
vn 0.08345 -0.13330 0.98756
vn 0.08796 -0.07783 0.99308
vn -0.16269 -0.57362 0.80280
vn -0.19275 -0.59291 0.78186
vn 0.06122 -0.05406 0.99666
vn -0.15693 -0.55290 0.81833
vn 0.02376 -0.03834 0.99898
vn -0.15847 -0.54018 0.82650
vn -0.01532 -0.02818 0.99949
vn -0.14943 -0.53802 0.82958
vn 0.12711 0.50891 0.85138
vn 0.03591 0.53024 0.84709
vn -0.04828 -0.02363 0.99855
vn 0.07272 0.86857 0.49020
vn -0.05009 0.88024 0.47188
vn -0.04855 0.54234 0.83875
vn -0.26123 -0.85281 0.45218
vn -0.25258 -0.84145 0.47766
vn -0.30459 -0.85633 0.41704
vn -0.30055 -0.57840 0.75837
vn -0.33093 -0.32335 0.88653
vn 0.35402 0.12227 0.92721
vn -0.24540 -0.83369 0.49471
vn -0.22514 -0.83482 0.50238
vn -0.21673 -0.83927 0.49865
vn -0.14688 -0.54377 0.82628
vn -0.15127 -0.55807 0.81589
vn -0.21113 -0.84829 0.48562
vn -0.08607 -0.02798 0.99590
vn -0.11433 -0.03982 0.99264
vn -0.13401 -0.58501 0.79987
vn -0.14645 0.54340 0.82660
vn -0.24149 0.53453 0.80992
vn -0.13422 -0.05899 0.98919
vn -0.19305 0.87331 0.44728
vn -0.33112 0.84552 0.41887
vn -0.18722 -0.86844 0.45908
vn -0.11759 -0.90039 0.41889
vn -0.09162 -0.62165 0.77792
vn 0.01293 -0.66123 0.75007
vn 0.03663 -0.92707 0.37309
vn -0.01844 -0.43652 0.89950
vn 0.15427 -0.47174 0.86814
vn 0.23555 -0.65841 0.71485
vn -0.33059 0.51561 0.79048
vn -0.42472 0.48972 0.76143
vn -0.26701 0.25133 0.93034
vn -0.22167 0.26066 0.93964
vn -0.45564 0.80350 0.38311
vn -0.58702 0.73582 0.33761
vn 0.32089 -0.88705 0.33193
vn 0.66883 -0.67730 0.30649
vn 0.51073 -0.51268 0.69016
vn 0.67304 -0.25777 0.69323
vn 0.88129 -0.36036 0.30572
vn 0.37405 -0.37682 0.84740
vn 0.48132 -0.16361 0.86114
vn -0.50158 0.45295 0.73706
vn -0.53804 0.39797 0.74306
vn -0.30078 0.25318 0.91948
vn -0.29638 0.25685 0.91988
vn -0.69931 0.64316 0.31195
vn -0.77153 0.54395 0.32993
vn 0.93469 -0.12797 0.33164
vn -0.85302 0.17024 0.49333
vn -0.85050 0.22191 0.47688
vn -0.85673 0.11350 0.50313
vn -0.52659 0.08550 0.84581
vn -0.53585 0.12513 0.83499
vn -0.85879 0.00824 0.51227
vn -0.51062 0.01566 0.85966
vn 0.90858 0.02011 0.41724
vn 0.89324 0.02001 0.44914
vn 0.92695 -0.01390 0.37493
vn 0.65599 -0.00296 0.75476
vn 0.62292 0.02039 0.78202
vn 0.68965 -0.07478 0.72027
vn 0.44899 -0.01809 0.89335
vn 0.39945 0.02061 0.91652
vn -0.54429 0.33089 0.77088
vn -0.54772 0.27100 0.79156
vn -0.29193 0.18273 0.93882
vn -0.29313 0.22284 0.92974
vn -0.81044 0.45121 0.37363
vn -0.83147 0.37597 0.40903
vn -0.84054 0.32263 0.43520
vn -0.84693 0.27091 0.45751
vn -0.54780 0.19525 0.81351
vn -0.55012 0.22960 0.80290
vn -0.54239 0.15945 0.82486
vn 0.02411 0.07985 0.99651
vn 0.02932 0.09206 0.99532
vn 0.02219 0.06685 0.99752
vn 0.56481 0.02720 0.82477
vn 0.57898 0.02919 0.81482
vn 0.02810 0.04292 0.99868
vn 0.55553 0.01921 0.83127
vn 0.03867 0.02326 0.99898
vn 0.54805 0.03560 0.83569
vn 0.05242 0.00131 0.99862
vn 0.54988 0.06561 0.83266
vn 0.55742 0.10889 0.82306
vn 0.85392 0.17021 0.49178
vn 0.85426 0.08581 0.51272
vn 0.80731 0.36389 0.46459
vn 0.86915 0.02579 0.49388
vn 0.85946 0.02668 0.51051
vn 0.88017 0.02740 0.47386
vn 0.59784 0.02430 0.80125
vn 0.04035 0.10025 0.99414
vn 0.85293 0.04780 0.51983
f 1//1 5//2 6//3 7//4
f 1//1 7//4 8//5 9//6
f 1//1 9//6 10//7 5//2
f 2//8 11//9 12//10 13//11
f 14//12 15//13 11//14 2//8
f 2//8 13//11 3//15 14//12
f 3//16 16//17 17//18 18//19
f 3//15 13//11 19//20 20//20
f 3//16 20//21 21//22 16//17
f 4//23 22//24 23//25 24//26
f 4//23 9//6 8//5 22//24
f 4//23 24//26 10//7 9//6
f 24//26 23//25 25//27 26//28
f 24//26 26//28 27//29 10//7
f 27//29 26//28 28//30 29//31
f 27//29 29//31 30//32 31//33
f 27//29 31//33 5//2 10//7
f 31//33 30//32 32//34 33//35
f 31//33 33//35 6//3 5//2
f 33//35 32//34 34//36 35//37
f 33//35 35//37 334//38 6//3
f 334//38 335//39 7//4 6//3
f 37//40 36//41 25//27 23//25
f 37//40 23//25 22//24 38//42
f 38//42 22//24 8//5 336//43
f 336//44 8//5 7//4 335//39
f 36//41 337//45 39//46 25//27
f 39//46 337//45 338//47 40//48
f 39//46 40//48 41//49 28//30
f 39//46 28//30 26//28 25//27
f 41//49 40//48 42//50 43//51
f 41//49 43//51 44//52 45//53
f 41//49 45//53 29//31 28//30
f 45//53 44//52 46//54 47//55
f 45//53 47//55 30//32 29//31
f 47//55 46//54 48//56 49//57
f 47//55 49//57 32//34 30//32
f 49//57 48//56 50//58 51//59
f 49//57 51//59 34//36 32//34
f 52//60 53//61 54//62 42//50
f 52//60 42//50 40//48 338//47
f 57//63 56//64 59//65 60//66
f 57//67 60//68 61//68 58//67
f 61//68 60//68 16//17 21//22
f 61//69 21//22 62//70 63//71
f 61//69 63//71 64//72 58//73
f 64//72 63//71 65//74 66//75
f 71//76 70//77 72//78 73//79
f 71//76 73//79 74//80 75//81
f 75//81 74//80 76//82 55//83
f 76//82 54//62 53//61 55//83
f 76//82 74//80 77//84 78//85
f 76//82 78//85 79//86 54//62
f 79//86 43//51 42//50 54//62
f 79//86 78//85 80//87 81//88
f 79//86 81//88 44//52 43//51
f 81//89 80//90 82//91 83//92
f 81//89 83//92 46//54 44//52
f 83//92 82//91 84//93 85//94
f 83//92 85//94 48//56 46//54
f 85//94 84//93 340//95 341//96
f 85//94 341//96 50//58 48//56
f 84//93 82//91 17//18 59//65
f 84//93 59//65 56//64 340//95
f 82//91 80//90 18//19 17//18
f 80//87 78//85 77//97 18//97
f 77//84 74//80 73//79 14//12
f 77//97 14//12 3//15 18//97
f 73//79 72//78 15//13 14//12
f 72//78 86//98 87//99 15//13
f 72//78 70//77 342//100 86//98
f 87//99 88//101 89//102 90//103
f 87//99 90//103 11//14 15//13
f 87//99 86//98 91//104 88//101
f 91//104 92//105 93//106 88//101
f 91//104 86//98 342//100 343//107
f 91//104 343//107 94//108 92//105
f 94//108 95//109 96//110 92//105
f 97//111 344//112 98//113 99//114
f 97//111 99//114 96//110 95//109
f 99//114 98//113 100//115 101//116
f 99//114 101//116 102//117 96//110
f 102//117 101//116 103//118 104//119
f 102//117 104//119 105//120 93//106
f 102//117 93//106 92//105 96//110
f 105//120 104//119 106//121 107//122
f 105//120 107//122 108//123 89//102
f 105//120 89//102 88//101 93//106
f 108//123 107//122 109//124 110//125
f 108//123 110//125 111//126 112//127
f 108//123 112//127 90//128 89//102
f 112//127 111//126 113//129 12//10
f 112//127 12//10 11//9 90//128
f 113//129 111//126 345//130 69//131
f 113//129 69//131 68//132 114//133
f 113//129 114//133 13//134 12//10
f 114//133 68//132 67//135 115//136
f 114//133 115//136 19//137 13//134
f 115//136 67//135 339//138 116//139
f 115//136 116//139 117//140 19//137
f 117//140 116//139 118//141 119//142
f 117//140 119//142 120//143 121//144
f 117//140 121//144 20//20 19//20
f 121//145 120//146 122//147 62//70
f 121//145 62//70 21//22 20//21
f 122//147 120//146 123//148 124//149
f 122//147 124//149 125//150 65//74
f 122//147 65//74 63//71 62//70
f 125//150 124//149 126//151 127//152
f 125//150 127//152 128//153 129//154
f 125//150 129//154 66//75 65//74
f 347//155 346//156 130//157 118//141
f 347//155 118//141 116//139 339//138
f 130//157 346//156 348//158 131//159
f 130//157 131//159 132//160 133//161
f 130//157 133//161 119//142 118//141
f 133//161 132//160 134//162 123//148
f 133//161 123//148 120//143 119//142
f 134//162 132//160 135//163 136//164
f 134//162 136//164 137//165 126//151
f 134//162 126//151 124//149 123//148
f 137//165 136//164 138//166 139//167
f 137//165 139//167 140//168 141//169
f 137//165 141//169 127//152 126//151
f 141//169 140//168 142//170 143//171
f 141//169 143//171 128//153 127//152
f 350//172 349//173 144//174 145//175
f 350//172 145//175 131//159 348//158
f 145//175 144//174 146//176 135//163
f 145//175 135//163 132//160 131//159
f 146//176 144//174 147//177 148//178
f 146//176 148//178 149//179 138//166
f 146//176 138//166 136//164 135//163
f 149//179 148//178 150//180 151//181
f 149//179 151//181 152//182 153//183
f 149//179 153//183 139//167 138//166
f 153//183 152//182 154//184 155//185
f 153//183 155//185 140//168 139//167
f 155//185 154//184 351//186 352//187
f 155//185 352//187 142//170 140//168
f 156//188 353//189 157//190 147//177
f 156//188 147//177 144//174 349//173
f 157//190 353//189 354//191 158//192
f 157//190 158//192 159//193 150//180
f 157//190 150//180 148//178 147//177
f 159//193 158//192 160//194 161//195
f 159//193 161//195 162//196 163//197
f 159//193 163//197 151//181 150//180
f 163//197 162//196 164//198 165//199
f 163//197 165//199 152//182 151//181
f 165//199 164//198 166//200 167//201
f 165//199 167//201 154//184 152//182
f 167//201 166//200 168//202 355//203
f 167//201 355//203 351//186 154//184
f 169//204 356//205 170//206 160//194
f 169//204 160//194 158//192 354//191
f 174//207 173//208 176//209 177//210
f 174//207 177//210 178//211 175//212
f 178//211 177//210 179//213 180//214
f 178//211 180//214 181//215 182//216
f 178//211 182//216 183//217 175//212
f 183//217 182//216 184//218 185//219
f 188//220 187//221 189//222 190//223
f 188//220 190//223 191//224 171//225
f 191//224 170//206 356//205 171//225
f 191//224 190//223 192//226 193//227
f 191//224 193//227 194//228 170//206
f 194//228 161//195 160//194 170//206
f 194//228 193//227 195//229 196//230
f 194//228 196//230 162//196 161//195
f 196//231 195//232 197//233 198//234
f 196//231 198//234 164//198 162//196
f 198//234 197//233 199//235 200//236
f 198//234 200//236 166//200 164//198
f 200//236 199//235 357//237 201//238
f 200//236 201//238 168//202 166//200
f 358//239 357//237 199//235 202//240
f 358//239 202//240 203//241 172//242
f 203//241 202//240 204//243 205//244
f 203//241 205//244 206//245 176//209
f 203//241 176//209 173//208 172//242
f 206//245 205//244 207//246 208//247
f 206//245 208//247 209//248 179//213
f 206//245 179//213 177//210 176//209
f 209//248 208//247 210//249 211//250
f 209//248 211//250 212//251 213//252
f 209//248 213//252 180//214 179//213
f 213//252 212//251 214//253 215//254
f 213//252 215//254 181//215 180//214
f 215//254 214//253 216//255 217//256
f 215//254 217//256 218//257 181//215
f 218//257 217//256 219//258 220//259
f 218//257 220//259 221//260 184//218
f 218//257 184//218 182//216 181//215
f 221//260 220//259 222//261 223//262
f 221//260 223//262 224//263 225//264
f 221//260 225//264 185//219 184//218
f 226//265 359//266 227//267 228//268
f 226//265 228//268 229//269 186//270
f 229//269 189//222 187//221 186//270
f 229//269 228//268 211//250 210//249
f 229//269 210//249 230//271 189//222
f 230//271 192//226 190//223 189//222
f 230//271 210//249 208//247 207//246
f 230//271 207//246 231//272 192//226
f 231//272 195//229 193//227 192//226
f 231//273 207//246 205//244 204//243
f 231//273 204//243 197//233 195//232
f 228//268 227//267 212//251 211//250
f 227//267 359//266 360//274 232//275
f 227//267 232//275 214//253 212//251
f 232//275 360//274 361//276 233//277
f 232//275 233//277 216//255 214//253
f 233//277 361//276 234//278 235//279
f 233//277 235//279 236//280 216//255
f 236//280 235//279 237//281 238//282
f 236//280 238//282 239//283 219//258
f 236//280 219//258 217//256 216//255
f 239//283 238//282 240//284 241//285
f 239//283 241//285 242//286 222//261
f 239//283 222//261 220//259 219//258
f 242//286 241//285 243//287 244//288
f 242//286 244//288 245//289 246//290
f 242//286 246//290 223//262 222//261
f 246//290 245//289 247//291 248//292
f 246//290 248//292 224//263 223//262
f 249//293 362//294 250//295 237//281
f 249//293 237//281 235//279 234//278
f 250//295 362//294 251//296 252//297
f 250//295 252//297 253//298 240//284
f 250//295 240//284 238//282 237//281
f 253//298 252//297 254//299 255//300
f 253//298 255//300 256//301 243//287
f 253//298 243//287 241//285 240//284
f 256//301 255//300 257//302 258//303
f 256//304 258//305 259//306 260//307
f 256//304 260//307 244//288 243//287
f 260//307 259//306 261//308 262//309
f 260//307 262//309 245//289 244//288
f 262//309 261//308 363//310 263//311
f 262//309 263//311 247//291 245//289
f 264//312 364//313 265//314 254//299
f 264//312 254//299 252//297 251//296
f 265//314 364//313 266//315 267//316
f 265//314 267//316 268//317 257//302
f 265//314 257//302 255//300 254//299
f 268//317 267//316 269//318 270//319
f 268//317 270//319 271//320 272//321
f 268//317 272//321 258//303 257//302
f 272//322 271//323 273//324 274//325
f 272//322 274//325 259//306 258//305
f 274//325 273//324 275//326 276//327
f 274//325 276//327 261//308 259//306
f 276//327 275//326 365//328 366//329
f 276//327 366//329 363//310 261//308
f 367//330 368//331 277//332 269//318
f 367//330 269//318 267//316 266//315
f 279//333 369//334 281//335 282//336
f 279//333 282//336 283//337 280//338
f 283//337 282//336 284//339 285//340
f 283//337 285//340 286//341 287//342
f 283//337 287//342 288//343 280//338
f 288//343 287//342 98//113 344//112
f 290//344 289//345 291//346 292//347
f 290//344 292//347 293//348 278//349
f 293//348 277//332 368//331 278//349
f 293//348 292//347 294//350 295//351
f 293//348 295//351 296//352 277//332
f 296//352 270//319 269//318 277//332
f 296//352 295//351 297//353 298//354
f 296//352 298//354 271//320 270//319
f 298//355 297//356 299//357 300//358
f 298//355 300//358 273//324 271//323
f 300//358 299//357 301//359 302//360
f 300//358 302//360 275//326 273//324
f 302//360 301//359 371//361 303//362
f 302//360 303//362 365//328 275//326
f 372//363 371//361 301//359 304//364
f 372//363 304//364 305//365 373//366
f 305//365 304//364 306//367 307//368
f 305//365 307//368 308//369 281//335
f 305//365 281//335 369//334 373//366
f 308//369 307//368 309//370 310//371
f 308//369 310//371 311//372 284//339
f 308//369 284//339 282//336 281//335
f 311//372 310//371 312//373 313//374
f 311//372 313//374 314//375 315//376
f 311//372 315//376 285//340 284//339
f 315//376 314//375 316//377 317//378
f 315//376 317//378 286//341 285//340
f 317//378 316//377 318//379 319//380
f 317//378 319//380 100//115 286//341
f 319//380 318//379 320//381 103//118
f 319//380 103//118 101//116 100//115
f 320//381 318//379 321//382 322//383
f 320//381 322//383 323//384 106//121
f 320//381 106//121 104//119 103//118
f 323//384 322//383 324//385 325//386
f 323//384 325//386 326//387 109//124
f 323//384 109//124 107//122 106//121
f 326//387 327//388 110//125 109//124
f 327//388 345//130 111//126 110//125
f 375//389 374//390 328//391 329//392
f 375//389 329//392 330//393 370//394
f 330//393 291//346 289//345 370//394
f 330//393 329//392 313//374 312//373
f 330//393 312//373 331//395 291//346
f 331//395 294//350 292//347 291//346
f 331//395 312//373 310//371 309//370
f 331//395 309//370 332//396 294//350
f 332//396 297//353 295//351 294//350
f 332//396 309//370 307//368 306//367
f 332//396 306//367 299//357 297//356
f 329//392 328//391 314//375 313//374
f 328//391 374//390 376//397 333//398
f 328//391 333//398 316//377 314//375
f 333//398 376//397 377//399 321//382
f 333//398 321//382 318//379 316//377
f 377//399 324//385 322//383 321//382
f 306//367 304//364 301//359 299//357
f 287//342 286//341 100//115 98//113
f 204//243 202//240 199//235 197//233
f 60//66 59//65 17//18 16//17
f 384//400 383//401 382//402 378//403
f 386//404 385//405 384//400 378//403
f 382//402 387//406 386//404 378//403
f 390//407 389//408 388//409 379//410
f 379//410 388//411 392//412 391//413
f 391//413 380//414 390//407 379//410
f 395//415 394//416 393//417 380//418
f 397//419 396//420 390//407 380//414
f 393//417 398//421 397//422 380//418
f 401//423 400//424 399//425 381//426
f 399//425 385//405 386//404 381//426
f 386//404 387//406 401//423 381//426
f 403//427 402//428 400//424 401//423
f 387//406 404//429 403//427 401//423
f 406//430 405//431 403//427 404//429
f 408//432 407//433 406//430 404//429
f 387//406 382//402 408//432 404//429
f 410//434 409//435 407//433 408//432
f 382//402 383//401 410//434 408//432
f 35//37 34//36 409//435 410//434
f 383//401 334//38 35//37 410//434
f 383//401 384//400 335//39 334//38
f 400//424 402//428 36//41 37//40
f 38//42 399//425 400//424 37//40
f 336//43 385//405 399//425 38//42
f 335//39 384//400 385//405 336//44
f 402//428 411//436 337//45 36//41
f 412//437 338//47 337//45 411//436
f 405//431 413//438 412//437 411//436
f 402//428 403//427 405//431 411//436
f 415//439 414//440 412//437 413//438
f 417//441 416//442 415//439 413//438
f 405//431 406//430 417//441 413//438
f 419//443 418//444 416//442 417//441
f 406//430 407//433 419//443 417//441
f 421//445 420//446 418//444 419//443
f 407//433 409//435 421//445 419//443
f 51//59 50//58 420//446 421//445
f 409//435 34//36 51//59 421//445
f 414//440 422//447 53//61 52//60
f 338//47 412//437 414//440 52//60
f 424//448 423//449 56//64 57//63
f 58//67 425//450 424//450 57//67
f 398//421 393//417 424//450 425//450
f 427//451 426//452 398//421 425//453
f 58//73 64//72 427//451 425//453
f 66//75 428//454 427//451 64//72
f 430//455 429//456 70//77 71//76
f 75//81 431//457 430//455 71//76
f 55//83 432//458 431//457 75//81
f 55//83 53//61 422//447 432//458
f 434//459 433//460 431//457 432//458
f 422//447 435//461 434//459 432//458
f 422//447 414//440 415//439 435//461
f 437//462 436//463 434//459 435//461
f 415//439 416//442 437//462 435//461
f 439//464 438//465 436//466 437//467
f 416//442 418//444 439//464 437//467
f 441//468 440//469 438//465 439//464
f 418//444 420//446 441//468 439//464
f 341//96 340//95 440//469 441//468
f 420//446 50//58 341//96 441//468
f 423//449 394//416 438//465 440//469
f 340//95 56//64 423//449 440//469
f 394//416 395//415 436//466 438//465
f 395//470 433//470 434//459 436//463
f 391//413 430//455 431//457 433//460
f 395//470 380//414 391//413 433//470
f 391//413 392//412 429//456 430//455
f 392//412 443//471 442//472 429//456
f 442//472 342//100 70//77 429//456
f 446//473 445//474 444//475 443//471
f 392//412 388//411 446//473 443//471
f 444//475 447//476 442//472 443//471
f 444//475 449//477 448//478 447//476
f 343//107 342//100 442//472 447//476
f 448//478 94//108 343//107 447//476
f 448//478 450//479 95//109 94//108
f 452//480 451//481 344//112 97//111
f 95//109 450//479 452//480 97//111
f 454//482 453//483 451//481 452//480
f 450//479 455//484 454//482 452//480
f 457//485 456//486 454//482 455//484
f 449//477 458//487 457//485 455//484
f 450//479 448//478 449//477 455//484
f 460//488 459//489 457//485 458//487
f 445//474 461//490 460//488 458//487
f 449//477 444//475 445//474 458//487
f 463//491 462//492 460//488 461//490
f 465//493 464//494 463//491 461//490
f 445//474 446//495 465//493 461//490
f 389//408 466//496 464//494 465//493
f 446//495 388//409 389//408 465//493
f 69//131 345//130 464//494 466//496
f 467//497 68//132 69//131 466//496
f 389//408 390//498 467//497 466//496
f 468//499 67//135 68//132 467//497
f 390//498 396//420 468//499 467//497
f 469//500 339//138 67//135 468//499
f 396//420 470//501 469//500 468//499
f 472//502 471//503 469//500 470//501
f 474//504 473//505 472//502 470//501
f 396//420 397//419 474//504 470//501
f 426//452 475//506 473//507 474//508
f 397//422 398//421 426//452 474//508
f 477//509 476//510 473//507 475//506
f 428//454 478//511 477//509 475//506
f 426//452 427//451 428//454 475//506
f 480//512 479//513 477//509 478//511
f 129//154 128//153 480//512 478//511
f 428//454 66//75 129//154 478//511
f 471//503 481//514 346//156 347//155
f 339//138 469//500 471//503 347//155
f 482//515 348//158 346//156 481//514
f 484//516 483//517 482//515 481//514
f 471//503 472//502 484//516 481//514
f 476//510 485//518 483//517 484//516
f 472//502 473//505 476//510 484//516
f 487//519 486//520 483//517 485//518
f 479//513 488//521 487//519 485//518
f 476//510 477//509 479//513 485//518
f 490//522 489//523 487//519 488//521
f 492//524 491//525 490//522 488//521
f 479//513 480//512 492//524 488//521
f 143//171 142//170 491//525 492//524
f 480//512 128//153 143//171 492//524
f 494//526 493//527 349//173 350//172
f 348//158 482//515 494//526 350//172
f 486//520 495//528 493//527 494//526
f 482//515 483//517 486//520 494//526
f 497//529 496//530 493//527 495//528
f 489//523 498//531 497//529 495//528
f 486//520 487//519 489//523 495//528
f 500//532 499//533 497//529 498//531
f 502//534 501//535 500//532 498//531
f 489//523 490//522 502//534 498//531
f 504//536 503//537 501//535 502//534
f 490//522 491//525 504//536 502//534
f 352//187 351//186 503//537 504//536
f 491//525 142//170 352//187 504//536
f 496//530 505//538 353//189 156//188
f 349//173 493//527 496//530 156//188
f 506//539 354//191 353//189 505//538
f 499//533 507//540 506//539 505//538
f 496//530 497//529 499//533 505//538
f 509//541 508//542 506//539 507//540
f 511//543 510//544 509//541 507//540
f 499//533 500//532 511//543 507//540
f 513//545 512//546 510//544 511//543
f 500//532 501//535 513//545 511//543
f 515//547 514//548 512//546 513//545
f 501//535 503//537 515//547 513//545
f 355//203 168//202 514//548 515//547
f 503//537 351//186 355//203 515//547
f 508//542 516//549 356//205 169//204
f 354//191 506//539 508//542 169//204
f 518//550 517//551 173//208 174//207
f 175//212 519//552 518//550 174//207
f 521//553 520//554 518//550 519//552
f 523//555 522//556 521//553 519//552
f 175//212 183//217 523//555 519//552
f 185//219 524//557 523//555 183//217
f 526//558 525//559 187//221 188//220
f 171//225 527//560 526//558 188//220
f 171//225 356//205 516//549 527//560
f 529//561 528//562 526//558 527//560
f 516//549 530//563 529//561 527//560
f 516//549 508//542 509//541 530//563
f 532//564 531//565 529//561 530//563
f 509//541 510//544 532//564 530//563
f 534//566 533//567 531//568 532//569
f 510//544 512//546 534//566 532//569
f 536//570 535//571 533//567 534//566
f 512//546 514//548 536//570 534//566
f 201//238 357//237 535//571 536//570
f 514//548 168//202 201//238 536//570
f 537//572 535//571 357//237 358//239
f 172//242 538//573 537//572 358//239
f 540//574 539//575 537//572 538//573
f 517//551 541//576 540//574 538//573
f 172//242 173//208 517//551 538//573
f 543//577 542//578 540//574 541//576
f 520//554 544//579 543//577 541//576
f 517//551 518//550 520//554 541//576
f 546//580 545//581 543//577 544//579
f 548//582 547//583 546//580 544//579
f 520//554 521//553 548//582 544//579
f 550//584 549//585 547//583 548//582
f 521//553 522//556 550//584 548//582
f 552//586 551//587 549//585 550//584
f 522//556 553//588 552//586 550//584
f 555//589 554//590 552//586 553//588
f 524//557 556//591 555//589 553//588
f 522//556 523//555 524//557 553//588
f 558//592 557//593 555//589 556//591
f 225//264 224//263 558//592 556//591
f 524//557 185//219 225//264 556//591
f 560//594 559//595 359//266 226//265
f 186//270 561//596 560//594 226//265
f 186//270 187//221 525//559 561//596
f 545//581 546//580 560//594 561//596
f 525//559 562//597 545//581 561//596
f 525//559 526//558 528//562 562//597
f 542//578 543//577 545//581 562//597
f 528//562 563//598 542//578 562//597
f 528//562 529//561 531//565 563//598
f 539//575 540//574 542//578 563//599
f 531//568 533//567 539//575 563//599
f 546//580 547//583 559//595 560//594
f 564//600 360//274 359//266 559//595
f 547//583 549//585 564//600 559//595
f 565//601 361//276 360//274 564//600
f 549//585 551//587 565//601 564//600
f 566//602 234//278 361//276 565//601
f 551//587 567//603 566//602 565//601
f 569//604 568//605 566//602 567//603
f 554//590 570//606 569//604 567//603
f 551//587 552//586 554//590 567//603
f 572//607 571//608 569//604 570//606
f 557//593 573//609 572//607 570//606
f 554//590 555//589 557//593 570//606
f 575//610 574//611 572//607 573//609
f 577//612 576//613 575//610 573//609
f 557//593 558//592 577//612 573//609
f 248//292 247//291 576//613 577//612
f 558//592 224//263 248//292 577//612
f 568//605 578//614 362//294 249//293
f 234//278 566//602 568//605 249//293
f 579//615 251//296 362//294 578//614
f 571//608 580//616 579//615 578//614
f 568//605 569//604 571//608 578//614
f 582//617 581//618 579//615 580//616
f 574//611 583//619 582//617 580//616
f 571//608 572//607 574//611 580//616
f 585//620 584//621 582//617 583//619
f 587//622 586//623 585//624 583//625
f 574//611 575//610 587//622 583//625
f 589//626 588//627 586//623 587//622
f 575//610 576//613 589//626 587//622
f 263//311 363//310 588//627 589//626
f 576//613 247//291 263//311 589//626
f 581//618 590//628 364//313 264//312
f 251//296 579//615 581//618 264//312
f 591//629 266//315 364//313 590//628
f 584//621 592//630 591//629 590//628
f 581//618 582//617 584//621 590//628
f 594//631 593//632 591//629 592//630
f 596//633 595//634 594//631 592//630
f 584//621 585//620 596//633 592//630
f 598//635 597//636 595//637 596//638
f 585//624 586//623 598//635 596//638
f 600//639 599//640 597//636 598//635
f 586//623 588//627 600//639 598//635
f 366//329 365//328 599//640 600//639
f 588//627 363//310 366//329 600//639
f 593//632 601//641 368//331 367//330
f 266//315 591//629 593//632 367//330
f 603//642 602//643 369//334 279//333
f 280//338 604//644 603//642 279//333
f 606//645 605//646 603//642 604//644
f 608//647 607//648 606//645 604//644
f 280//338 288//343 608//647 604//644
f 344//112 451//481 608//647 288//343
f 610//649 609//650 289//345 290//344
f 278//349 611//651 610//649 290//344
f 278//349 368//331 601//641 611//651
f 613//652 612//653 610//649 611//651
f 601//641 614//654 613//652 611//651
f 601//641 593//632 594//631 614//654
f 616//655 615//656 613//652 614//654
f 594//631 595//634 616//655 614//654
f 618//657 617//658 615//659 616//660
f 595//637 597//636 618//657 616//660
f 620//661 619//662 617//658 618//657
f 597//636 599//640 620//661 618//657
f 303//362 371//361 619//662 620//661
f 599//640 365//328 303//362 620//661
f 621//663 619//662 371//361 372//363
f 373//366 622//664 621//663 372//363
f 624//665 623//666 621//663 622//664
f 602//643 625//667 624//665 622//664
f 373//366 369//334 602//643 622//664
f 627//668 626//669 624//665 625//667
f 605//646 628//670 627//668 625//667
f 602//643 603//642 605//646 625//667
f 630//671 629//672 627//668 628//670
f 632//673 631//674 630//671 628//670
f 605//646 606//645 632//673 628//670
f 634//675 633//676 631//674 632//673
f 606//645 607//648 634//675 632//673
f 636//677 635//678 633//676 634//675
f 607//648 453//483 636//677 634//675
f 456//486 637//679 635//678 636//677
f 453//483 454//482 456//486 636//677
f 639//680 638//681 635//678 637//679
f 459//489 640//682 639//680 637//679
f 456//486 457//485 459//489 637//679
f 325//386 324//385 639//680 640//682
f 462//492 326//387 325//386 640//682
f 459//489 460//488 462//492 640//682
f 462//492 463//491 327//388 326//387
f 463//491 464//494 345//130 327//388
f 642//683 641//684 374//390 375//389
f 370//394 643//685 642//683 375//389
f 370//394 289//345 609//650 643//685
f 629//672 630//671 642//683 643//685
f 609//650 644//686 629//672 643//685
f 609//650 610//649 612//653 644//686
f 626//669 627//668 629//672 644//686
f 612//653 645//687 626//669 644//686
f 612//653 613//652 615//656 645//687
f 623//666 624//665 626//669 645//687
f 615//659 617//658 623//666 645//687
f 630//671 631//674 641//684 642//683
f 646//688 376//397 374//390 641//684
f 631//674 633//676 646//688 641//684
f 638//681 377//399 376//397 646//688
f 633//676 635//678 638//681 646//688
f 638//681 639//680 324//385 377//399
f 617//658 619//662 621//663 623//666
f 451//481 453//483 607//648 608//647
f 533//567 535//571 537//572 539//575
f 393//417 394//416 423//449 424//448
