# pilowlava3D glyph '?' variant 1 — Vincent Wagner / Velvetyne, Free Art License
v 0.15356 3.53323 -0.36496
v 1.03159 1.63802 -0.13249
v 0.34060 3.31266 -0.37129
v 0.21014 3.69413 -0.41539
v 0.35452 3.52670 -0.47072
v 0.23561 3.41033 -0.38709
v 0.04628 3.53332 -0.22562
v 0.07491 3.79637 -0.24404
v 0.10826 3.31517 -0.22674
v 1.26987 1.51427 -0.26652
v 1.25493 1.45259 -0.15201
v 1.08231 1.43292 -0.16229
v 1.17766 1.54490 -0.31045
v 1.01622 1.63337 0.00000
v 1.00325 1.50990 0.00000
v 1.10827 1.72415 -0.17514
v 1.12394 1.63737 -0.29218
v 1.01973 1.53459 -0.16572
v 0.47187 3.36592 -0.41511
v 0.32098 3.19089 -0.23525
v 0.54860 3.20943 -0.24034
v 0.74283 3.29446 -0.25330
v 0.77728 3.22340 0.00000
v 0.31073 3.13799 0.00000
v 0.64247 3.45568 -0.44859
v 0.80869 3.56103 -0.45854
v 0.91300 3.39731 -0.25600
v 0.49332 3.65819 -0.53397
v 0.66328 3.78360 -0.54641
v 0.84875 3.89016 -0.54201
v 0.97881 3.66210 -0.45446
v 0.33871 3.87324 -0.45668
v 0.52346 4.01561 -0.46843
v 0.73196 4.12664 -0.46239
v 0.94782 4.21087 -0.44996
v 1.04620 3.98061 -0.53131
v 0.42626 4.18972 -0.26481
v 0.65489 4.29977 -0.26006
v 0.88846 4.37766 -0.24943
v 1.12312 4.43059 -0.23856
v 1.16769 4.27842 -0.43497
v 0.86705 4.45192 0.00000
v 1.10712 4.50271 0.00000
v 1.34186 4.54064 0.00000
v 1.35249 4.47743 -0.23050
v 1.57603 4.56393 0.00000
v 1.80725 4.57688 0.00000
v 1.81036 4.52770 -0.21233
v 1.58265 4.50899 -0.22059
v 1.83318 4.41508 -0.38192
v 1.61047 4.38144 -0.39912
v 1.38834 4.33672 -0.41926
v 1.66322 4.20063 -0.47148
v 1.45596 4.13412 -0.49678
v 1.24943 4.06041 -0.51812
v 1.53352 3.93623 -0.41414
v 1.34370 3.84774 -0.43197
v 1.15762 3.75711 -0.44611
v 1.42245 3.70352 -0.23774
v 1.24846 3.60281 -0.24556
v 1.07880 3.50089 -0.25215
v 1.29301 3.53438 0.00000
v 0.02454 3.82684 0.00000
v 0.00000 3.54325 0.00000
v 0.21593 4.02949 -0.26102
v 0.07862 3.28876 0.00000
v 2.03703 4.57656 0.00000
v 2.27988 4.53106 -0.19076
v 2.04105 4.53663 -0.20306
v 2.28996 4.45594 -0.33631
v 2.05982 4.44146 -0.36264
v 2.30080 4.35916 -0.38109
v 2.08528 4.31676 -0.41637
v 1.87412 4.26093 -0.44594
v 2.11472 4.19131 -0.35907
v 1.91959 4.10674 -0.37851
v 1.72459 4.02167 -0.39737
v 1.96021 3.99759 -0.20956
v 1.77975 3.89989 -0.21958
v 1.60036 3.80258 -0.22891
v 1.63491 3.74352 0.00000
v 1.46339 3.63968 0.00000
v 2.15603 4.05334 0.00000
v 2.52942 4.52270 0.00000
v 2.78235 4.43113 -0.17654
v 2.52765 4.50000 -0.18042
v 2.75906 4.38915 -0.29693
v 2.52512 4.44501 -0.30826
v 2.73069 4.32281 -0.33377
v 2.52003 4.36679 -0.34808
v 2.70112 4.25485 -0.28334
v 2.51205 4.28947 -0.29998
v 2.31289 4.26269 -0.33219
v 2.50065 4.22151 -0.17262
v 2.32021 4.17563 -0.18892
v 2.14070 4.09394 -0.20100
v 2.49714 4.19591 0.00000
v 2.67085 4.18830 0.00000
v 3.26995 4.12123 -0.19798
v 3.03761 4.31195 -0.17979
v 3.17791 4.08498 -0.35209
v 2.98141 4.27081 -0.31748
v 3.06303 4.04015 -0.39728
v 2.91752 4.21487 -0.35216
v 2.94936 3.99934 -0.33702
v 2.85595 4.15424 -0.29881
v 2.86648 3.96864 -0.18662
v 2.81363 4.11198 -0.17189
v 2.67918 4.20530 -0.16723
v 2.79808 4.10268 0.00000
v 3.54980 3.53313 0.00000
v 3.47607 3.85582 0.00000
v 3.49911 3.53819 -0.23227
v 3.43560 3.85107 -0.21781
v 3.35401 3.55490 -0.41156
v 3.31246 3.83621 -0.38404
v 3.14455 3.58521 -0.48178
v 3.14370 3.82001 -0.44228
v 2.93951 3.63209 -0.40514
v 2.97723 3.81507 -0.37422
v 2.79569 3.67448 -0.22453
v 2.85363 3.81753 -0.20694
v 2.73943 3.69927 0.00000
v 2.64637 3.57412 0.00000
v 2.70711 3.53839 -0.23618
v 2.60496 3.40122 -0.23942
v 2.54246 3.44338 0.00000
v 2.86010 3.46416 -0.42698
v 2.75546 3.30801 -0.43656
v 2.63485 3.16060 -0.43524
v 2.49032 3.25991 -0.23792
v 3.08144 3.36823 -0.50812
v 2.97487 3.17551 -0.52194
v 2.83755 3.00829 -0.52062
v 2.67809 2.85709 -0.51309
v 2.49814 3.01418 -0.42905
v 3.19337 3.04205 -0.44045
v 3.03032 2.84552 -0.44035
v 2.84251 2.68930 -0.43069
v 2.65594 2.55064 -0.42029
v 2.51021 2.71044 -0.50276
v 3.15913 2.73339 -0.24691
v 2.94794 2.57150 -0.23789
v 2.74918 2.43769 -0.22845
v 2.56041 2.30678 -0.22116
v 2.47565 2.41287 -0.40536
v 2.99326 2.51909 0.00000
v 2.78812 2.38423 0.00000
v 2.59377 2.25908 0.00000
v 2.40129 2.14087 0.00000
v 2.37207 2.18390 -0.21229
v 2.21240 2.02621 0.00000
v 2.02651 1.91124 0.00000
v 2.00241 1.94554 -0.19905
v 2.18647 2.06522 -0.20445
v 1.93819 2.02644 -0.36410
v 2.11696 2.15409 -0.37552
v 2.29523 2.28192 -0.38872
v 2.00681 2.28452 -0.44943
v 2.17359 2.42513 -0.46658
v 2.34170 2.56569 -0.48524
v 2.04663 2.56652 -0.39031
v 2.20133 2.71527 -0.40449
v 2.35179 2.86560 -0.41857
v 2.09753 2.81095 -0.22214
v 2.23498 2.96375 -0.22901
v 2.36665 3.11515 -0.23466
v 2.18095 3.00548 0.00000
v 2.42939 3.30398 0.00000
v 3.34325 2.95157 -0.24608
v 3.46414 3.22756 -0.24195
v 3.30691 3.28232 -0.42894
v 1.65572 1.68360 0.00000
v 1.84039 1.79662 0.00000
v 1.63371 1.70796 -0.18902
v 1.81788 1.82645 -0.19417
v 1.57864 1.77121 -0.34000
v 1.75802 1.90006 -0.35254
v 1.50848 1.85708 -0.39222
v 1.67590 2.00078 -0.41171
v 1.84091 2.14194 -0.43085
v 1.58982 2.10179 -0.35833
v 1.74130 2.25790 -0.36757
v 1.89268 2.41393 -0.37828
v 1.66791 2.33798 -0.20219
v 1.81158 2.49701 -0.20719
v 1.95580 2.65591 -0.21420
v 2.04953 2.85137 0.00000
v 1.49600 2.20917 0.00000
v 1.46924 1.56760 0.00000
v 1.44936 1.58344 -0.17199
v 1.39840 1.63227 -0.31564
v 1.33839 1.70570 -0.36755
v 1.28175 1.78695 -0.33273
v 1.43851 1.94475 -0.34969
v 1.24344 1.86529 -0.19505
v 1.38165 2.01965 -0.19818
v 1.52367 2.17857 -0.19943
v 1.35928 2.04992 0.00000
v 1.10629 1.75832 0.00000
v 0.56583 3.14815 0.00000
v 0.62311 4.37441 0.00000
v 1.12495 3.42783 0.00000
v 0.95543 3.32133 0.00000
v 0.16693 4.08097 0.00000
v 0.38503 4.25885 0.00000
v 2.27825 4.56138 0.00000
v 1.80927 3.84800 0.00000
v 1.98338 3.95185 0.00000
v 2.79267 4.44723 0.00000
v 2.32272 4.13955 0.00000
v 3.29861 4.12944 0.00000
v 3.05560 4.32329 0.00000
v 2.83621 3.96525 0.00000
v 2.80651 3.82853 0.00000
v 2.30813 3.15770 0.00000
v 3.39854 2.91610 0.00000
v 3.52233 3.20794 0.00000
v 3.20830 2.68720 0.00000
v 1.77539 2.53102 0.00000
v 1.91396 2.69240 0.00000
v 1.63563 2.37027 0.00000
v 1.25708 1.43564 0.00000
v 1.22907 1.89942 0.00000
v 1.07692 1.41434 0.00000
v 0.15356 3.53323 0.36496
v 1.03159 1.63802 0.13249
v 0.34060 3.31266 0.37129
v 0.21014 3.69413 0.41539
v 0.35452 3.52670 0.47072
v 0.23561 3.41033 0.38709
v 0.04628 3.53332 0.22562
v 0.07491 3.79637 0.24404
v 0.10826 3.31517 0.22674
v 1.26987 1.51427 0.26652
v 1.25493 1.45259 0.15201
v 1.08231 1.43292 0.16229
v 1.17766 1.54490 0.31045
v 1.10827 1.72415 0.17514
v 1.12394 1.63737 0.29218
v 1.01973 1.53459 0.16572
v 0.47187 3.36592 0.41511
v 0.32098 3.19089 0.23525
v 0.54860 3.20943 0.24034
v 0.74283 3.29446 0.25330
v 0.64247 3.45568 0.44859
v 0.80869 3.56103 0.45854
v 0.91300 3.39731 0.25600
v 0.49332 3.65819 0.53397
v 0.66328 3.78360 0.54641
v 0.84875 3.89016 0.54201
v 0.97881 3.66210 0.45446
v 0.33871 3.87324 0.45668
v 0.52346 4.01561 0.46843
v 0.73196 4.12664 0.46239
v 0.94782 4.21087 0.44996
v 1.04620 3.98061 0.53131
v 0.42626 4.18972 0.26481
v 0.65489 4.29977 0.26006
v 0.88846 4.37766 0.24943
v 1.12312 4.43059 0.23856
v 1.16769 4.27842 0.43497
v 1.35249 4.47743 0.23050
v 1.81036 4.52770 0.21233
v 1.58265 4.50899 0.22059
v 1.83318 4.41508 0.38192
v 1.61047 4.38144 0.39912
v 1.38834 4.33672 0.41926
v 1.66322 4.20063 0.47148
v 1.45596 4.13412 0.49678
v 1.24943 4.06041 0.51812
v 1.53352 3.93623 0.41414
v 1.34370 3.84774 0.43197
v 1.15762 3.75711 0.44611
v 1.42245 3.70352 0.23774
v 1.24846 3.60281 0.24556
v 1.07880 3.50089 0.25215
v 0.21593 4.02949 0.26102
v 2.27988 4.53106 0.19076
v 2.04105 4.53663 0.20306
v 2.28996 4.45594 0.33631
v 2.05982 4.44146 0.36264
v 2.30080 4.35916 0.38109
v 2.08528 4.31676 0.41637
v 1.87412 4.26093 0.44594
v 2.11472 4.19131 0.35907
v 1.91959 4.10674 0.37851
v 1.72459 4.02167 0.39737
v 1.96021 3.99759 0.20956
v 1.77975 3.89989 0.21958
v 1.60036 3.80258 0.22891
v 2.78235 4.43113 0.17654
v 2.52765 4.50000 0.18042
v 2.75906 4.38915 0.29693
v 2.52512 4.44501 0.30826
v 2.73069 4.32281 0.33377
v 2.52003 4.36679 0.34808
v 2.70112 4.25485 0.28334
v 2.51205 4.28947 0.29998
v 2.31289 4.26269 0.33219
v 2.50065 4.22151 0.17262
v 2.32021 4.17563 0.18892
v 2.14070 4.09394 0.20100
v 3.26995 4.12123 0.19798
v 3.03761 4.31195 0.17979
v 3.17791 4.08498 0.35209
v 2.98141 4.27081 0.31748
v 3.06303 4.04015 0.39728
v 2.91752 4.21487 0.35216
v 2.94936 3.99934 0.33702
v 2.85595 4.15424 0.29881
v 2.86648 3.96864 0.18662
v 2.81363 4.11198 0.17189
v 2.67918 4.20530 0.16723
v 3.49911 3.53819 0.23227
v 3.43560 3.85107 0.21781
v 3.35401 3.55490 0.41156
v 3.31246 3.83621 0.38404
v 3.14455 3.58521 0.48178
v 3.14370 3.82001 0.44228
v 2.93951 3.63209 0.40514
v 2.97723 3.81507 0.37422
v 2.79569 3.67448 0.22453
v 2.85363 3.81753 0.20694
v 2.70711 3.53839 0.23618
v 2.60496 3.40122 0.23942
v 2.86010 3.46416 0.42698
v 2.75546 3.30801 0.43656
v 2.63485 3.16060 0.43524
v 2.49032 3.25991 0.23792
v 3.08144 3.36823 0.50812
v 2.97487 3.17551 0.52194
v 2.83755 3.00829 0.52062
v 2.67809 2.85709 0.51309
v 2.49814 3.01418 0.42905
v 3.19337 3.04205 0.44045
v 3.03032 2.84552 0.44035
v 2.84251 2.68930 0.43069
v 2.65594 2.55064 0.42029
v 2.51021 2.71044 0.50276
v 3.15913 2.73339 0.24691
v 2.94794 2.57150 0.23789
v 2.74918 2.43769 0.22845
v 2.56041 2.30678 0.22116
v 2.47565 2.41287 0.40536
v 2.37207 2.18390 0.21229
v 2.00241 1.94554 0.19905
v 2.18647 2.06522 0.20445
v 1.93819 2.02644 0.36410
v 2.11696 2.15409 0.37552
v 2.29523 2.28192 0.38872
v 2.00681 2.28452 0.44943
v 2.17359 2.42513 0.46658
v 2.34170 2.56569 0.48524
v 2.04663 2.56652 0.39031
v 2.20133 2.71527 0.40449
v 2.35179 2.86560 0.41857
v 2.09753 2.81095 0.22214
v 2.23498 2.96375 0.22901
v 2.36665 3.11515 0.23466
v 3.34325 2.95157 0.24608
v 3.46414 3.22756 0.24195
v 3.30691 3.28232 0.42894
v 1.63371 1.70796 0.18902
v 1.81788 1.82645 0.19417
v 1.57864 1.77121 0.34000
v 1.75802 1.90006 0.35254
v 1.50848 1.85708 0.39222
v 1.67590 2.00078 0.41171
v 1.84091 2.14194 0.43085
v 1.58982 2.10179 0.35833
v 1.74130 2.25790 0.36757
v 1.89268 2.41393 0.37828
v 1.66791 2.33798 0.20219
v 1.81158 2.49701 0.20719
v 1.95580 2.65591 0.21420
v 1.44936 1.58344 0.17199
v 1.39840 1.63227 0.31564
v 1.33839 1.70570 0.36755
v 1.28175 1.78695 0.33273
v 1.43851 1.94475 0.34969
v 1.24344 1.86529 0.19505
v 1.38165 2.01965 0.19818
v 1.52367 2.17857 0.19943
v 2.04471 0.62342 -0.37782
v 1.07962 0.77654 -0.36389
v 2.00766 0.23442 -0.37403
v 1.01678 0.44685 -0.35344
v 1.90954 0.70953 -0.41667
v 1.96460 0.86500 -0.23412
v 2.14287 0.66913 -0.22701
v 2.17360 0.38984 -0.21443
v 2.05062 0.41804 -0.39479
v 1.85892 0.47265 -0.48421
v 1.24136 0.80983 -0.41555
v 1.20599 0.59258 -0.48508
v 1.03153 0.61797 -0.38794
v 1.01485 0.85910 -0.21860
v 1.24712 0.96893 -0.23672
v 0.92279 0.63133 -0.21713
v 2.05527 0.13497 -0.22395
v 1.81447 0.23065 -0.43228
v 1.78794 0.05704 -0.25004
v 0.94338 0.39969 -0.21605
v 1.16039 0.36452 -0.41300
v 1.10983 0.21633 -0.23580
v 1.33251 0.13261 -0.25149
v 1.08627 0.17927 0.00001
v 0.91866 0.37660 0.00001
v 1.37415 0.30842 -0.44799
v 1.59251 0.27041 -0.45283
v 1.55315 0.09487 -0.25572
v 1.42902 0.55726 -0.51441
v 1.64882 0.52421 -0.51240
v 1.46819 0.80384 -0.44184
v 1.69652 0.77551 -0.44058
v 1.48811 0.97547 -0.24900
v 1.72631 0.94832 -0.24856
v 1.73678 0.99198 0.00001
v 1.98415 0.89949 0.00001
v 2.17942 0.67789 0.00001
v 1.78661 0.00000 0.00001
v 2.06536 0.09622 0.00001
v 2.20328 0.37913 0.00001
v 0.99973 0.89235 0.00001
v 0.89404 0.63661 0.00001
v 1.31548 0.07718 0.00001
v 1.49517 1.02335 0.00001
v 1.53876 0.03095 0.00001
v 1.24448 1.01311 0.00001
v 2.04471 0.62342 0.37784
v 1.07962 0.77654 0.36391
v 2.00766 0.23442 0.37405
v 1.01678 0.44685 0.35345
v 1.90954 0.70953 0.41669
v 1.96460 0.86500 0.23414
v 2.14287 0.66913 0.22703
v 2.17360 0.38984 0.21444
v 2.05062 0.41804 0.39481
v 1.85892 0.47265 0.48423
v 1.24136 0.80983 0.41557
v 1.20599 0.59258 0.48510
v 1.03153 0.61797 0.38796
v 1.01485 0.85910 0.21862
v 1.24712 0.96893 0.23674
v 0.92279 0.63133 0.21714
v 2.05527 0.13497 0.22397
v 1.81447 0.23065 0.43230
v 1.78794 0.05704 0.25005
v 0.94338 0.39969 0.21607
v 1.16039 0.36452 0.41302
v 1.10983 0.21633 0.23582
v 1.33251 0.13261 0.25151
v 1.37415 0.30842 0.44801
v 1.59251 0.27041 0.45285
v 1.55315 0.09487 0.25573
v 1.42902 0.55726 0.51443
v 1.64882 0.52421 0.51242
v 1.46819 0.80384 0.44186
v 1.69652 0.77551 0.44060
v 1.48811 0.97547 0.24902
v 1.72631 0.94832 0.24858
vn -0.67320 -0.12325 -0.72911
vn -0.58831 0.07064 -0.80554
vn -0.27020 -0.22628 -0.93584
vn -0.46975 -0.37419 -0.79957
vn -0.89829 -0.11077 -0.42522
vn -0.85098 0.25086 -0.46141
vn -0.70978 -0.54874 -0.44170
vn 0.25667 -0.74830 -0.61170
vn 0.31609 -0.90170 -0.29501
vn 0.07698 -0.94419 -0.32028
vn 0.10808 -0.70474 -0.70118
vn -0.89147 0.37639 -0.25223
vn -0.76078 0.55888 -0.32995
vn -0.72414 0.45187 -0.52100
vn -0.91478 0.23984 -0.32503
vn -0.92451 0.38115 0.00159
vn -0.76823 0.64017 0.00169
vn -0.99227 0.12406 -0.00083
vn -0.19153 -0.60729 -0.77105
vn 0.02432 -0.56422 -0.82527
vn -0.22495 -0.85366 -0.46974
vn 0.18293 -0.85416 -0.48677
vn 0.36526 -0.77938 -0.50907
vn 0.42983 -0.90291 0.00039
vn 0.21069 -0.97755 -0.00018
vn -0.24791 -0.96878 -0.00118
vn 0.18221 -0.50783 -0.84197
vn 0.27338 -0.46093 -0.84428
vn 0.44273 -0.73315 -0.51621
vn -0.12748 -0.12042 -0.98450
vn -0.00434 -0.02678 -0.99963
vn 0.04347 0.00662 -0.99903
vn 0.29132 -0.45667 -0.84059
vn -0.44149 0.28182 -0.85186
vn -0.28311 0.42857 -0.85801
vn -0.18748 0.49543 -0.84818
vn -0.13163 0.53857 -0.83224
vn 0.06447 0.01976 -0.99772
vn -0.45893 0.72913 -0.50770
vn -0.31789 0.80449 -0.50174
vn -0.22276 0.84420 -0.48754
vn -0.17251 0.86656 -0.46831
vn -0.10109 0.57000 -0.81541
vn -0.36882 0.92950 -0.00004
vn -0.25526 0.96687 0.00000
vn -0.19076 0.98164 0.00006
vn -0.14330 0.98968 0.00002
vn -0.13209 0.88502 -0.44642
vn -0.08816 0.99611 -0.00001
vn -0.03939 0.99922 0.00005
vn -0.04344 0.91783 -0.39459
vn -0.08362 0.90245 -0.42259
vn -0.01495 0.63657 -0.77108
vn -0.03803 0.61440 -0.78808
vn -0.06912 0.59363 -0.80176
vn 0.00585 0.37259 -0.92798
vn -0.01158 0.35708 -0.93400
vn 0.08599 0.02648 -0.99594
vn 0.21423 -0.30053 -0.92940
vn 0.31018 -0.50668 -0.80441
vn 0.30365 -0.48878 -0.81786
vn 0.29413 -0.47154 -0.83135
vn 0.44660 -0.75274 -0.48367
vn 0.45088 -0.73907 -0.50049
vn 0.45553 -0.72764 -0.51287
vn 0.52442 -0.85146 -0.00000
vn 0.53189 -0.84682 -0.00002
vn 0.51579 -0.85672 0.00007
vn -0.95420 0.29918 -0.00008
vn -0.75869 0.65145 0.00007
vn -0.66563 0.55340 -0.50069
vn -0.99504 -0.09948 0.00058
vn -0.53019 0.84788 0.00018
vn -0.95887 -0.28384 0.00101
vn -0.52754 -0.84953 -0.00128
vn 0.01676 0.99986 0.00007
vn 0.09465 0.99551 -0.00002
vn 0.08131 0.94748 -0.30931
vn 0.00591 0.93443 -0.35610
vn 0.08689 0.69404 -0.71468
vn 0.02376 0.66461 -0.74681
vn 0.09731 0.42626 -0.89935
vn 0.04999 0.40590 -0.91255
vn 0.01854 0.38740 -0.92173
vn 0.22318 -0.33456 -0.91557
vn 0.23676 -0.36597 -0.90001
vn 0.32235 -0.58457 -0.74456
vn 0.32186 -0.55150 -0.76958
vn 0.31321 -0.52734 -0.78981
vn 0.21545 -0.31493 -0.92434
vn 0.44610 -0.79731 -0.40656
vn 0.44355 -0.78214 -0.43763
vn 0.44277 -0.76746 -0.46363
vn 0.50046 -0.86576 0.00005
vn 0.50461 -0.86335 -0.00002
vn 0.51342 -0.85814 -0.00003
vn 0.20571 0.97861 0.00003
vn 0.34788 0.93754 0.00006
vn 0.33582 0.90883 -0.24751
vn 0.19237 0.94472 -0.26553
vn 0.31912 0.86739 -0.38183
vn 0.16623 0.70920 -0.68513
vn 0.14769 0.42634 -0.89242
vn 0.13623 0.43563 -0.88976
vn 0.06472 -0.52058 -0.85136
vn -0.19837 -0.49975 -0.84315
vn -0.26801 -0.69409 -0.66814
vn 0.06853 -0.72707 -0.68313
vn 0.26296 -0.64843 -0.71441
vn 0.20795 -0.43337 -0.87690
vn 0.08935 -0.94666 -0.30961
vn 0.33308 -0.87866 -0.34206
vn 0.42659 -0.82324 -0.37457
vn 0.36421 -0.93132 0.00010
vn 0.46784 -0.88381 0.00017
vn 0.49643 -0.86808 -0.00005
vn 0.11067 -0.99386 -0.00034
vn 0.52891 0.84868 -0.00007
vn 0.74435 0.66779 0.00003
vn 0.69913 0.63444 -0.32972
vn 0.50814 0.81685 -0.27306
vn 0.45439 0.47964 -0.75065
vn 0.34196 0.61889 -0.70714
vn 0.23113 0.32936 -0.91548
vn 0.16778 0.39819 -0.90183
vn -0.42181 -0.28600 -0.86040
vn -0.46372 -0.02927 -0.88550
vn -0.68441 -0.08332 -0.72432
vn -0.58284 -0.43479 -0.68648
vn -0.93479 -0.10244 -0.34010
vn -0.75982 -0.57967 -0.29437
vn -0.32655 -0.90130 -0.28463
vn -0.80314 -0.59579 0.00064
vn -0.32733 -0.94491 -0.00005
vn -0.99735 -0.07270 0.00127
vn 0.92381 0.38285 -0.00003
vn 0.99809 0.06171 0.00005
vn 0.89990 0.05724 -0.43232
vn 0.84910 0.35865 -0.38782
vn 0.57236 0.06833 -0.81715
vn 0.54576 0.28033 -0.78966
vn 0.00948 0.15056 -0.98856
vn -0.04833 0.18350 -0.98183
vn -0.51424 0.29569 -0.80506
vn -0.61500 0.16599 -0.77086
vn -0.77693 0.43775 -0.45250
vn -0.88135 0.24556 -0.40363
vn -0.86184 0.50718 -0.00019
vn -0.95431 0.29881 0.00043
vn -0.71018 0.51664 -0.47825
vn -0.80299 0.59599 0.00010
vn -0.68514 0.53834 -0.49068
vn -0.78416 0.62056 -0.00006
vn -0.45429 0.33927 -0.82372
vn -0.43388 0.34393 -0.83274
vn -0.42936 0.35279 -0.83138
vn -0.67219 0.55514 -0.48988
vn 0.02676 0.09323 -0.99529
vn 0.00869 0.03123 -0.99947
vn -0.02180 -0.01478 -0.99965
vn -0.03912 -0.03625 -0.99858
vn -0.43373 0.36765 -0.82263
vn 0.46606 -0.27659 -0.84041
vn 0.37799 -0.40360 -0.83320
vn 0.32831 -0.47532 -0.81626
vn 0.32279 -0.50472 -0.80066
vn 0.18101 -0.31090 -0.93305
vn 0.60797 -0.63790 -0.47271
vn 0.51207 -0.72440 -0.46156
vn 0.49384 -0.74528 -0.44798
vn 0.49048 -0.75746 -0.43092
vn 0.32005 -0.52489 -0.78871
vn 0.57918 -0.81520 -0.00006
vn 0.55061 -0.83476 -0.00002
vn 0.54140 -0.84077 -0.00001
vn 0.52798 -0.84926 0.00000
vn 0.48322 -0.77235 -0.41228
vn 0.52931 -0.84843 -0.00002
vn 0.53237 -0.84651 0.00000
vn 0.49763 -0.78291 -0.37339
vn 0.49057 -0.77787 -0.39276
vn 0.34431 -0.56060 -0.75311
vn 0.33589 -0.55023 -0.76448
vn 0.32222 -0.54082 -0.77697
vn 0.19477 -0.35155 -0.91568
vn 0.18188 -0.34548 -0.92063
vn 0.17499 -0.33372 -0.92629
vn -0.29541 0.22197 -0.92923
vn -0.29911 0.23154 -0.92570
vn -0.46866 0.40239 -0.78641
vn -0.46073 0.38837 -0.79806
vn -0.44877 0.37730 -0.81009
vn -0.28018 0.21713 -0.93507
vn -0.67167 0.59025 -0.44773
vn -0.67005 0.57840 -0.46528
vn -0.66838 0.56834 -0.47984
vn -0.75961 0.65038 0.00004
vn -0.76531 0.64367 0.00001
vn -0.77216 0.63543 -0.00000
vn 0.96905 -0.24688 0.00008
vn 0.85210 -0.52339 -0.00002
vn 0.74964 -0.45955 -0.47630
vn 0.85878 -0.21920 -0.46308
vn 0.53954 -0.11812 -0.83363
vn 0.69194 -0.72195 -0.00002
vn 0.53060 -0.84762 -0.00002
vn 0.53442 -0.84522 0.00004
vn 0.50974 -0.79620 -0.32594
vn 0.50110 -0.78994 -0.35339
vn 0.36185 -0.59135 -0.72068
vn 0.35127 -0.57155 -0.74158
vn 0.21079 -0.38986 -0.89643
vn 0.20450 -0.36732 -0.90733
vn 0.19984 -0.35931 -0.91157
vn -0.30584 0.23626 -0.92230
vn -0.29944 0.23118 -0.92568
vn -0.48661 0.41885 -0.76666
vn -0.48572 0.41600 -0.76878
vn -0.47951 0.41086 -0.77541
vn -0.30406 0.23647 -0.92284
vn -0.68831 0.61215 -0.38923
vn -0.68404 0.60631 -0.40555
vn -0.67688 0.60006 -0.42633
vn -0.75126 0.66001 0.00003
vn -0.75266 0.65841 0.00001
vn -0.75420 0.65665 0.00001
vn 0.53902 -0.84229 0.00038
vn 0.33719 -0.94144 0.00032
vn 0.52460 -0.80361 -0.28108
vn 0.36751 -0.63850 -0.67621
vn 0.19531 -0.45914 -0.86663
vn -0.32726 0.13053 -0.93587
vn -0.50592 -0.13405 -0.85210
vn -0.52078 0.37117 -0.76878
vn -0.49387 0.41277 -0.76532
vn -0.30025 0.21187 -0.93003
vn -0.70538 0.62088 -0.34196
vn -0.69890 0.61925 -0.35786
vn -0.69278 0.61665 -0.37390
vn -0.75207 0.65909 -0.00004
vn -0.75109 0.66020 0.00002
vn -0.74987 0.66159 -0.00001
vn -0.74772 0.66402 -0.00034
vn 0.11858 -0.99295 0.00003
vn -0.82192 -0.56960 -0.00031
vn -0.76373 -0.46968 -0.44285
vn -0.46541 -0.36889 0.80456
vn -0.27143 -0.22873 0.93489
vn -0.58849 0.06998 0.80547
vn -0.66840 -0.11612 0.73468
vn -0.85065 0.24973 0.46263
vn -0.89493 -0.10490 0.43371
vn -0.70663 -0.54227 0.45455
vn 0.13206 -0.69946 0.70237
vn 0.09772 -0.93962 0.32796
vn 0.32125 -0.89738 0.30249
vn 0.26574 -0.74197 0.61551
vn -0.92458 0.24738 0.28974
vn -0.73896 0.46317 0.48929
vn -0.76712 0.55932 0.31414
vn -0.89746 0.37604 0.23058
vn 0.02233 -0.56565 0.82434
vn -0.18976 -0.60713 0.77161
vn -0.22257 -0.85203 0.47383
vn 0.18039 -0.85389 0.48820
vn 0.36434 -0.77947 0.50959
vn 0.18352 -0.50646 0.84251
vn 0.44265 -0.73316 0.51627
vn 0.27341 -0.46077 0.84436
vn -0.12492 -0.11750 0.98518
vn -0.00443 -0.02654 0.99964
vn 0.29133 -0.45660 0.84062
vn 0.04342 0.00670 0.99903
vn -0.28289 0.42821 0.85826
vn -0.44050 0.28375 0.85173
vn -0.18745 0.49545 0.84817
vn 0.06514 0.01960 0.99768
vn -0.13100 0.53849 0.83239
vn -0.31794 0.80449 0.50170
vn -0.45878 0.72876 0.50837
vn -0.22257 0.84424 0.48757
vn -0.10027 0.56984 0.81562
vn -0.17179 0.86655 0.46859
vn -0.13213 0.88501 0.44644
vn -0.08359 0.90247 0.42257
vn -0.04372 0.91779 0.39465
vn -0.03748 0.61445 0.78807
vn -0.01513 0.63658 0.77106
vn -0.06895 0.59363 0.80178
vn -0.01119 0.35707 0.93401
vn 0.00670 0.37262 0.92796
vn 0.08630 0.02637 0.99592
vn 0.30322 -0.48892 0.81793
vn 0.30994 -0.50668 0.80449
vn 0.21357 -0.30054 0.92955
vn 0.29423 -0.47157 0.83129
vn 0.45068 -0.73917 0.50051
vn 0.44620 -0.75289 0.48380
vn 0.45559 -0.72764 0.51281
vn -0.66541 0.55380 0.50053
vn 0.00624 0.93434 0.35632
vn 0.08135 0.94755 0.30908
vn 0.02419 0.66443 0.74696
vn 0.08701 0.69427 0.71444
vn 0.05027 0.40579 0.91258
vn 0.09764 0.42640 0.89925
vn 0.01851 0.38745 0.92170
vn 0.32079 -0.55160 0.76996
vn 0.32067 -0.58482 0.74509
vn 0.23327 -0.36596 0.90092
vn 0.22303 -0.33455 0.91561
vn 0.21620 -0.31483 0.92420
vn 0.31344 -0.52725 0.78979
vn 0.44309 -0.78231 0.43779
vn 0.44522 -0.79758 0.40700
vn 0.44281 -0.76747 0.46358
vn 0.19157 0.94487 0.26557
vn 0.33552 0.90871 0.24833
vn 0.16528 0.70958 0.68497
vn 0.31837 0.86703 0.38327
vn 0.13580 0.43622 0.88954
vn 0.14684 0.42584 0.89280
vn 0.06782 -0.72619 0.68414
vn -0.26792 -0.69214 0.67020
vn -0.19667 -0.49678 0.84530
vn 0.06735 -0.52103 0.85088
vn 0.20793 -0.43525 0.87597
vn 0.26217 -0.64897 0.71422
vn 0.33273 -0.87853 0.34274
vn 0.08817 -0.94629 0.31106
vn 0.42647 -0.82330 0.37456
vn 0.50845 0.81666 0.27302
vn 0.69932 0.63433 0.32951
vn 0.34094 0.61863 0.70785
vn 0.45476 0.47930 0.75065
vn 0.16524 0.39760 0.90256
vn 0.23101 0.32880 0.91571
vn -0.58856 -0.43273 0.68290
vn -0.68454 -0.08612 0.72387
vn -0.46517 -0.03309 0.88460
vn -0.42780 -0.28517 0.85771
vn -0.76154 -0.57842 0.29240
vn -0.93381 -0.10536 0.34190
vn -0.32705 -0.90088 0.28539
vn 0.84900 0.35875 0.38795
vn 0.89979 0.05740 0.43253
vn 0.54579 0.28034 0.78964
vn 0.57205 0.06863 0.81735
vn -0.04665 0.18356 0.98190
vn 0.00829 0.15150 0.98842
vn -0.61249 0.16511 0.77304
vn -0.51649 0.29931 0.80228
vn -0.88073 0.24401 0.40592
vn -0.77724 0.44052 0.44927
vn -0.71028 0.51715 0.47755
vn -0.68511 0.53830 0.49077
vn -0.45407 0.33935 0.82381
vn -0.43395 0.34402 0.83267
vn -0.67210 0.55516 0.48998
vn -0.42908 0.35280 0.83152
vn 0.00860 0.03144 0.99947
vn 0.02770 0.09188 0.99538
vn -0.02126 -0.01492 0.99966
vn -0.43339 0.36762 0.82282
vn -0.03858 -0.03640 0.99859
vn 0.37806 -0.40355 0.83319
vn 0.46610 -0.27664 0.84037
vn 0.32831 -0.47534 0.81625
vn 0.18041 -0.31109 0.93310
vn 0.32255 -0.50488 0.80066
vn 0.51212 -0.72430 0.46165
vn 0.60784 -0.63781 0.47299
vn 0.49399 -0.74523 0.44788
vn 0.31988 -0.52497 0.78872
vn 0.49028 -0.75758 0.43094
vn 0.48325 -0.77233 0.41229
vn 0.49063 -0.77785 0.39273
vn 0.49760 -0.78292 0.37339
vn 0.33574 -0.55035 0.76445
vn 0.34433 -0.56060 0.75311
vn 0.32227 -0.54081 0.77696
vn 0.18189 -0.34553 0.92061
vn 0.19438 -0.35184 0.91565
vn 0.17513 -0.33364 0.92629
vn -0.46044 0.38857 0.79813
vn -0.46844 0.40253 0.78647
vn -0.29882 0.23174 0.92574
vn -0.29557 0.22195 0.92918
vn -0.27991 0.21710 0.93516
vn -0.44871 0.37727 0.81014
vn -0.67002 0.57844 0.46528
vn -0.67140 0.59044 0.44789
vn -0.66844 0.56828 0.47984
vn 0.85863 -0.21884 0.46353
vn 0.74963 -0.45956 0.47630
vn 0.53951 -0.11818 0.83364
vn 0.50101 -0.79003 0.35333
vn 0.51004 -0.79594 0.32611
vn 0.35117 -0.57166 0.74154
vn 0.36221 -0.59098 0.72079
vn 0.20448 -0.36736 0.90732
vn 0.21134 -0.38948 0.89646
vn 0.19991 -0.35928 0.91157
vn -0.48569 0.41599 0.76880
vn -0.48694 0.41863 0.76658
vn -0.30003 0.23077 0.92560
vn -0.30608 0.23606 0.92228
vn -0.30394 0.23657 0.92285
vn -0.47953 0.41084 0.77541
vn -0.68401 0.60633 0.40557
vn -0.68818 0.61227 0.38928
vn -0.67685 0.60006 0.42637
vn 0.52093 -0.80433 0.28582
vn 0.36500 -0.63873 0.67734
vn 0.19986 -0.46218 0.86397
vn -0.52076 0.37198 0.76840
vn -0.50744 -0.12929 0.85193
vn -0.32801 0.13226 0.93537
vn -0.30035 0.21171 0.93004
vn -0.49381 0.41266 0.76541
vn -0.69885 0.61926 0.35795
vn -0.70561 0.62069 0.34184
vn -0.69281 0.61662 0.37389
vn -0.76539 -0.46627 0.44359
vn 0.63339 0.26839 -0.72580
vn 0.37770 0.42577 -0.82223
vn 0.51205 0.75132 -0.41632
vn 0.84227 0.37384 -0.38836
vn 0.92453 -0.14640 -0.35188
vn 0.62729 -0.08514 -0.77411
vn 0.24538 -0.02323 -0.96915
vn -0.53631 0.46749 -0.70273
vn -0.23147 0.54195 -0.80790
vn -0.29586 0.05320 -0.95375
vn -0.66537 0.10734 -0.73876
vn -0.67903 0.62535 -0.38453
vn -0.23246 0.87635 -0.42186
vn -0.93061 0.14451 -0.33627
vn 0.49331 -0.45705 -0.74010
vn 0.87242 -0.36536 -0.32465
vn 0.14005 -0.51155 -0.84776
vn 0.27610 -0.86702 -0.41478
vn 0.08399 -0.88732 -0.45344
vn -0.68118 -0.27075 -0.68021
vn -0.85784 -0.36261 -0.36417
vn -0.41088 -0.43245 -0.80260
vn -0.53145 -0.73599 -0.41939
vn -0.25848 -0.84844 -0.46188
vn -0.28882 -0.95738 0.00036
vn -0.58698 -0.80960 0.00020
vn -0.92031 -0.39119 -0.00002
vn -0.17487 -0.49126 -0.85328
vn -0.05382 -0.50094 -0.86381
vn -0.13933 -0.87020 -0.47258
vn -0.07222 0.02733 -0.99701
vn 0.06299 0.01095 -0.99795
vn -0.00251 0.53640 -0.84396
vn 0.15705 0.50401 -0.84930
vn 0.03007 0.89601 -0.44302
vn 0.21805 0.86974 -0.44273
vn 0.04134 0.99914 0.00001
vn 0.23469 0.97207 -0.00004
vn 0.56272 0.82665 0.00013
vn 0.91724 0.39833 -0.00006
vn 0.09003 -0.99594 0.00005
vn -0.16335 -0.98657 -0.00011
vn 0.31196 -0.95010 0.00043
vn 0.90393 -0.42767 -0.00085
vn 0.98462 -0.17473 -0.00070
vn -0.24523 0.96946 0.00002
vn -0.44038 0.89781 0.00007
vn -0.92581 0.37798 -0.00030
vn -0.98908 0.14736 -0.00007
vn 0.84298 0.36801 0.39237
vn 0.51394 0.74704 0.42166
vn 0.38248 0.42220 0.82186
vn 0.63761 0.26366 0.72383
vn 0.62728 -0.08530 0.77411
vn 0.92154 -0.14918 0.35848
vn 0.25324 -0.02123 0.96717
vn -0.66864 0.10731 0.73580
vn -0.30297 0.05577 0.95137
vn -0.23701 0.54177 0.80642
vn -0.54196 0.46621 0.69924
vn -0.23441 0.87471 0.42420
vn -0.68081 0.62247 0.38605
vn -0.93010 0.14241 0.33859
vn 0.86486 -0.37143 0.33773
vn 0.49018 -0.45314 0.74457
vn 0.14611 -0.50884 0.84837
vn 0.08783 -0.88522 0.45681
vn 0.28449 -0.86121 0.42117
vn -0.85752 -0.35775 0.36969
vn -0.68145 -0.26376 0.68268
vn -0.53502 -0.73078 0.42392
vn -0.41533 -0.42575 0.80389
vn -0.25871 -0.84825 0.46211
vn -0.17515 -0.49141 0.85314
vn -0.13978 -0.87027 0.47233
vn -0.05382 -0.50103 0.86376
vn -0.07306 0.02746 0.99695
vn 0.06332 0.01102 0.99793
vn 0.15715 0.50396 0.84931
vn -0.00283 0.53654 0.84387
vn 0.21802 0.86975 0.44273
vn 0.03014 0.89603 0.44297
f 1//1 4//2 5//3 6//4
f 1//1 7//5 8//6 4//2
f 1//1 6//4 9//7 7//5
f 10//8 11//9 12//10 13//11
f 2//12 16//13 17//14 18//15
f 2//12 14//16 200//17 16//13
f 2//12 18//15 15//18 14//16
f 3//19 6//4 5//3 19//20
f 3//19 20//21 9//7 6//4
f 3//19 19//20 21//22 20//21
f 21//22 22//23 23//24 201//25
f 21//22 201//25 24//26 20//21
f 21//22 19//20 25//27 22//23
f 25//27 26//28 27//29 22//23
f 25//27 19//20 5//3 28//30
f 25//27 28//30 29//31 26//28
f 29//31 30//32 31//33 26//28
f 29//31 28//30 32//34 33//35
f 29//31 33//35 34//36 30//32
f 34//36 35//37 36//38 30//32
f 34//36 33//35 37//39 38//40
f 34//36 38//40 39//41 35//37
f 39//41 40//42 41//43 35//37
f 39//41 38//40 202//44 42//45
f 39//41 42//45 43//46 40//42
f 43//46 44//47 45//48 40//42
f 46//49 47//50 48//51 49//52
f 46//49 49//52 45//48 44//47
f 49//52 48//51 50//53 51//54
f 49//52 51//54 52//55 45//48
f 52//55 51//54 53//56 54//57
f 52//55 54//57 55//58 41//43
f 52//55 41//43 40//42 45//48
f 55//58 54//59 56//60 57//61
f 55//58 57//61 58//62 36//38
f 55//58 36//38 35//37 41//43
f 58//62 57//61 59//63 60//64
f 58//62 60//64 61//65 31//33
f 58//62 31//33 30//32 36//38
f 61//65 60//64 62//66 203//67
f 61//65 203//67 204//68 27//29
f 61//65 27//29 26//28 31//33
f 204//68 23//24 22//23 27//29
f 63//69 205//70 65//71 8//6
f 63//69 8//6 7//5 64//72
f 65//71 37//39 33//35 32//34
f 65//71 32//34 4//2 8//6
f 65//71 205//70 206//73 37//39
f 64//72 7//5 9//7 66//74
f 66//75 9//7 20//21 24//26
f 206//73 202//44 38//40 37//39
f 67//76 207//77 68//78 69//79
f 67//76 69//79 48//51 47//50
f 69//79 68//78 70//80 71//81
f 69//79 71//81 50//53 48//51
f 71//81 70//80 72//82 73//83
f 71//81 73//83 74//84 50//53
f 74//85 73//86 75//87 76//88
f 74//85 76//88 77//89 53//90
f 74//84 53//56 51//54 50//53
f 77//89 76//88 78//91 79//92
f 77//89 79//92 80//93 56//60
f 77//89 56//60 54//59 53//90
f 80//93 79//92 208//94 81//95
f 80//93 81//95 82//96 59//63
f 80//93 59//63 57//61 56//60
f 82//96 62//66 60//64 59//63
f 84//97 210//98 85//99 86//100
f 84//97 86//100 68//78 207//77
f 86//100 85//99 87//101 88//102
f 86//100 88//102 70//80 68//78
f 88//102 87//103 89//103 90//104
f 88//102 90//104 72//82 70//80
f 90//105 89//106 91//107 92//108
f 90//105 92//108 93//109 72//110
f 93//109 92//108 94//111 95//112
f 93//109 95//112 96//113 75//87
f 93//109 75//87 73//86 72//110
f 96//113 95//112 211//114 83//115
f 96//113 83//115 209//116 78//91
f 96//113 78//91 76//88 75//87
f 211//114 95//112 94//111 97//117
f 213//118 212//119 99//120 100//121
f 213//118 100//121 85//99 210//98
f 100//121 99//120 101//122 102//123
f 100//121 102//123 87//101 85//99
f 102//123 101//122 103//124 104//125
f 102//123 104//125 89//103 87//103
f 104//126 103//127 105//128 106//129
f 104//126 106//129 91//107 89//106
f 106//129 105//128 107//130 108//131
f 106//129 108//131 109//132 91//107
f 109//132 108//131 110//133 98//134
f 109//132 98//134 97//117 94//111
f 109//132 94//111 92//108 91//107
f 110//133 108//131 107//130 214//135
f 112//136 111//137 113//138 114//139
f 112//136 114//139 99//120 212//119
f 114//139 113//138 115//140 116//141
f 114//139 116//141 101//122 99//120
f 116//141 115//140 117//142 118//143
f 116//141 118//143 103//124 101//122
f 118//143 117//142 119//144 120//145
f 118//143 120//145 105//128 103//127
f 120//145 119//144 121//146 122//147
f 120//145 122//147 107//130 105//128
f 122//147 121//146 123//148 215//149
f 122//147 215//149 214//135 107//130
f 123//148 121//146 125//150 124//151
f 125//150 126//152 127//153 124//151
f 125//150 121//146 119//144 128//154
f 125//150 128//154 129//155 126//152
f 129//155 130//156 131//157 126//152
f 129//155 128//154 132//158 133//159
f 129//155 133//159 134//160 130//156
f 134//160 135//161 136//162 130//156
f 134//160 133//159 137//163 138//164
f 134//160 138//164 139//165 135//161
f 139//165 140//166 141//167 135//161
f 139//165 138//164 142//168 143//169
f 139//165 143//169 144//170 140//166
f 144//170 145//171 146//172 140//166
f 144//170 143//169 147//173 148//174
f 144//170 148//174 149//175 145//171
f 149//175 150//176 151//177 145//171
f 152//178 153//179 154//180 155//181
f 152//178 155//181 151//177 150//176
f 155//181 154//180 156//182 157//183
f 155//181 157//183 158//184 151//177
f 158//184 157//183 159//185 160//186
f 158//184 160//186 161//187 146//172
f 158//184 146//172 145//171 151//177
f 161//188 160//189 162//190 163//191
f 161//188 163//191 164//192 141//193
f 161//187 141//167 140//166 146//172
f 164//192 163//191 165//194 166//195
f 164//192 166//195 167//196 136//162
f 164//192 136//162 135//161 141//193
f 167//196 166//195 168//197 216//198
f 167//196 216//198 169//199 131//157
f 167//196 131//157 130//156 136//162
f 169//199 127//153 126//152 131//157
f 218//200 217//201 170//202 171//203
f 218//200 171//203 113//138 111//137
f 171//203 170//202 137//163 172//204
f 171//203 172//204 115//140 113//138
f 172//204 137//163 133//159 132//158
f 172//204 132//158 117//142 115//140
f 170//202 142//168 138//164 137//163
f 170//202 217//201 219//205 142//168
f 219//205 147//173 143//169 142//168
f 174//206 173//207 175//208 176//209
f 174//206 176//209 154//180 153//179
f 176//209 175//208 177//210 178//211
f 176//209 178//211 156//182 154//180
f 178//211 177//210 179//212 180//213
f 178//211 180//213 181//214 156//182
f 181//215 180//216 182//217 183//218
f 181//215 183//218 184//219 159//220
f 181//214 159//185 157//183 156//182
f 184//219 183//218 185//221 186//222
f 184//219 186//222 187//223 162//190
f 184//219 162//190 160//189 159//220
f 187//223 186//222 220//224 221//225
f 187//223 221//225 188//226 165//194
f 187//223 165//194 163//191 162//190
f 188//226 168//197 166//195 165//194
f 190//227 223//228 11//9 191//229
f 190//227 191//229 175//208 173//207
f 191//229 11//9 10//8 192//230
f 191//229 192//230 177//210 175//208
f 192//230 10//8 13//11 193//231
f 192//230 193//231 179//212 177//210
f 193//232 13//233 17//233 194//234
f 193//232 194//234 195//235 179//236
f 195//235 194//234 196//237 197//238
f 195//235 197//238 198//239 182//217
f 195//235 182//217 180//216 179//236
f 198//239 197//238 199//240 189//241
f 198//239 189//241 222//242 185//221
f 198//239 185//221 183//218 182//217
f 199//240 197//238 196//237 224//243
f 224//243 196//237 16//13 200//17
f 196//237 194//234 17//14 16//13
f 223//228 225//244 12//10 11//9
f 225//245 15//245 18//246 12//246
f 222//242 220//224 186//222 185//221
f 132//158 128//154 119//144 117//142
f 209//116 208//94 79//92 78//91
f 32//34 28//30 5//3 4//2
f 18//246 17//233 13//233 12//246
f 231//247 230//248 229//249 226//250
f 229//249 233//251 232//252 226//250
f 232//252 234//253 231//247 226//250
f 238//254 237//255 236//256 235//257
f 241//258 240//259 239//260 227//261
f 239//260 200//17 14//16 227//261
f 14//16 15//18 241//258 227//261
f 242//262 230//248 231//247 228//263
f 231//247 234//253 243//264 228//263
f 243//264 244//265 242//262 228//263
f 201//25 23//24 245//266 244//265
f 243//264 24//26 201//25 244//265
f 245//266 246//267 242//262 244//265
f 245//266 248//268 247//269 246//267
f 249//270 230//248 242//262 246//267
f 247//269 250//271 249//270 246//267
f 247//269 252//272 251//273 250//271
f 254//274 253//275 249//270 250//271
f 251//273 255//276 254//274 250//271
f 251//273 257//277 256//278 255//276
f 259//279 258//280 254//274 255//276
f 256//278 260//281 259//279 255//276
f 256//278 262//282 261//283 260//281
f 42//45 202//44 259//279 260//281
f 261//283 43//46 42//45 260//281
f 261//283 263//284 44//47 43//46
f 265//285 264//286 47//50 46//49
f 44//47 263//284 265//285 46//49
f 267//287 266//288 264//286 265//285
f 263//284 268//289 267//287 265//285
f 270//290 269//291 267//287 268//289
f 262//282 271//292 270//290 268//289
f 263//284 261//283 262//282 268//289
f 273//293 272//294 270//295 271//292
f 257//277 274//296 273//293 271//292
f 262//282 256//278 257//277 271//292
f 276//297 275//298 273//293 274//296
f 252//272 277//299 276//297 274//296
f 257//277 251//273 252//272 274//296
f 203//67 62//66 276//297 277//299
f 248//268 204//68 203//67 277//299
f 252//272 247//269 248//268 277//299
f 248//268 245//266 23//24 204//68
f 233//251 278//300 205//70 63//69
f 64//72 232//252 233//251 63//69
f 253//275 254//274 258//280 278//300
f 233//251 229//249 253//275 278//300
f 258//280 206//73 205//70 278//300
f 66//74 234//253 232//252 64//72
f 24//26 243//264 234//253 66//75
f 258//280 259//279 202//44 206//73
f 280//301 279//302 207//77 67//76
f 47//50 264//286 280//301 67//76
f 282//303 281//304 279//302 280//301
f 264//286 266//288 282//303 280//301
f 284//305 283//306 281//304 282//303
f 266//288 285//307 284//305 282//303
f 287//308 286//309 284//310 285//311
f 269//312 288//313 287//308 285//311
f 266//288 267//287 269//291 285//307
f 290//314 289//315 287//308 288//313
f 272//294 291//316 290//314 288//313
f 269//312 270//295 272//294 288//313
f 81//95 208//94 290//314 291//316
f 275//298 82//96 81//95 291//316
f 272//294 273//293 275//298 291//316
f 275//298 276//297 62//66 82//96
f 293//317 292//318 210//98 84//97
f 207//77 279//302 293//317 84//97
f 295//319 294//320 292//318 293//317
f 279//302 281//304 295//319 293//317
f 297//321 296//322 294//322 295//319
f 281//304 283//306 297//321 295//319
f 299//323 298//324 296//325 297//326
f 283//327 300//328 299//323 297//326
f 302//329 301//330 299//323 300//328
f 286//309 303//331 302//329 300//328
f 283//327 284//310 286//309 300//328
f 83//115 211//114 302//329 303//331
f 289//315 209//116 83//115 303//331
f 286//309 287//308 289//315 303//331
f 97//117 301//330 302//329 211//114
f 305//332 304//333 212//119 213//118
f 210//98 292//318 305//332 213//118
f 307//334 306//335 304//333 305//332
f 292//318 294//320 307//334 305//332
f 309//336 308//337 306//335 307//334
f 294//322 296//322 309//336 307//334
f 311//338 310//339 308//340 309//341
f 296//325 298//324 311//338 309//341
f 313//342 312//343 310//339 311//338
f 298//324 314//344 313//342 311//338
f 98//134 110//133 313//342 314//344
f 301//330 97//117 98//134 314//344
f 298//324 299//323 301//330 314//344
f 214//135 312//343 313//342 110//133
f 316//345 315//346 111//137 112//136
f 212//119 304//333 316//345 112//136
f 318//347 317//348 315//346 316//345
f 304//333 306//335 318//347 316//345
f 320//349 319//350 317//348 318//347
f 306//335 308//337 320//349 318//347
f 322//351 321//352 319//350 320//349
f 308//340 310//339 322//351 320//349
f 324//353 323//354 321//352 322//351
f 310//339 312//343 324//353 322//351
f 215//149 123//148 323//354 324//353
f 312//343 214//135 215//149 324//353
f 124//151 325//355 323//354 123//148
f 124//151 127//153 326//356 325//355
f 327//357 321//352 323//354 325//355
f 326//356 328//358 327//357 325//355
f 326//356 330//359 329//360 328//358
f 332//361 331//362 327//357 328//358
f 329//360 333//363 332//361 328//358
f 329//360 335//364 334//365 333//363
f 337//366 336//367 332//361 333//363
f 334//365 338//368 337//366 333//363
f 334//365 340//369 339//370 338//368
f 342//371 341//372 337//366 338//368
f 339//370 343//373 342//371 338//368
f 339//370 345//374 344//375 343//373
f 148//174 147//173 342//371 343//373
f 344//375 149//175 148//174 343//373
f 344//375 346//376 150//176 149//175
f 348//377 347//378 153//179 152//178
f 150//176 346//376 348//377 152//178
f 350//379 349//380 347//378 348//377
f 346//376 351//381 350//379 348//377
f 353//382 352//383 350//379 351//381
f 345//374 354//384 353//382 351//381
f 346//376 344//375 345//374 351//381
f 356//385 355//386 353//387 354//388
f 340//389 357//390 356//385 354//388
f 345//374 339//370 340//369 354//384
f 359//391 358//392 356//385 357//390
f 335//364 360//393 359//391 357//390
f 340//389 334//365 335//364 357//390
f 216//198 168//197 359//391 360//393
f 330//359 169//199 216//198 360//393
f 335//364 329//360 330//359 360//393
f 330//359 326//356 127//153 169//199
f 362//394 361//395 217//201 218//200
f 111//137 315//346 362//394 218//200
f 363//396 336//367 361//395 362//394
f 315//346 317//348 363//396 362//394
f 331//362 332//361 336//367 363//396
f 317//348 319//350 331//362 363//396
f 336//367 337//366 341//372 361//395
f 341//372 219//205 217//201 361//395
f 341//372 342//371 147//173 219//205
f 365//397 364//398 173//207 174//206
f 153//179 347//378 365//397 174//206
f 367//399 366//400 364//398 365//397
f 347//378 349//380 367//399 365//397
f 369//401 368//402 366//400 367//399
f 349//380 370//403 369//401 367//399
f 372//404 371//405 369//406 370//407
f 352//408 373//409 372//404 370//407
f 349//380 350//379 352//383 370//403
f 375//410 374//411 372//404 373//409
f 355//386 376//412 375//410 373//409
f 352//408 353//387 355//386 373//409
f 221//225 220//224 375//410 376//412
f 358//392 188//226 221//225 376//412
f 355//386 356//385 358//392 376//412
f 358//392 359//391 168//197 188//226
f 377//413 236//256 223//228 190//227
f 173//207 364//398 377//413 190//227
f 378//414 235//257 236//256 377//413
f 364//398 366//400 378//414 377//413
f 379//415 238//254 235//257 378//414
f 366//400 368//402 379//415 378//414
f 380//416 240//417 238//417 379//418
f 368//419 381//420 380//416 379//418
f 383//421 382//422 380//416 381//420
f 371//405 384//423 383//421 381//420
f 368//419 369//406 371//405 381//420
f 189//241 199//240 383//421 384//423
f 374//411 222//242 189//241 384//423
f 371//405 372//404 374//411 384//423
f 224//243 382//422 383//421 199//240
f 200//17 239//260 382//422 224//243
f 239//260 240//259 380//416 382//422
f 236//256 237//255 225//244 223//228
f 237//424 241//424 15//245 225//245
f 374//411 375//410 220//224 222//242
f 319//350 321//352 327//357 331//362
f 289//315 290//314 208//94 209//116
f 229//249 230//248 249//270 253//275
f 237//424 238//417 240//417 241//424
f 385//425 389//426 390//427 391//428
f 385//425 391//428 392//429 393//430
f 385//425 393//430 394//431 389//426
f 386//432 395//433 396//434 397//435
f 386//432 398//436 399//437 395//433
f 386//432 397//435 400//438 398//436
f 387//439 393//430 392//429 401//440
f 387//439 402//441 394//431 393//430
f 387//439 401//442 403//443 402//441
f 388//444 404//445 400//438 397//435
f 388//444 405//446 406//447 404//445
f 388//444 397//435 396//434 405//446
f 406//447 407//448 427//449 408//450
f 406//447 408//450 409//451 404//445
f 406//447 405//446 410//452 407//448
f 410//452 411//453 412//454 407//448
f 410//452 405//446 396//434 413//455
f 410//452 413//455 414//456 411//453
f 414//456 394//431 402//441 411//453
f 414//456 413//455 415//457 416//458
f 414//456 416//458 389//426 394//431
f 416//458 415//457 417//459 418//460
f 416//458 418//460 390//427 389//426
f 418//460 417//459 428//461 419//462
f 418//460 419//462 420//463 390//427
f 420//463 421//464 391//428 390//427
f 422//465 429//466 412//454 403//443
f 422//465 403//443 401//442 423//467
f 423//468 401//440 392//429 424//469
f 424//469 392//429 391//428 421//464
f 429//466 427//449 407//448 412//454
f 430//470 428//461 417//459 399//437
f 430//470 399//437 398//436 425//471
f 425//472 398//436 400//438 426//473
f 426//473 400//438 404//445 409//451
f 417//459 415//457 395//433 399//437
f 415//457 413//455 396//434 395//433
f 412//454 411//453 402//441 403//443
f 437//474 436//475 435//476 431//477
f 439//478 438//479 437//474 431//477
f 435//476 440//480 439//478 431//477
f 443//481 442//482 441//483 432//484
f 441//483 445//485 444//486 432//484
f 444//486 446//487 443//481 432//484
f 447//488 438//479 439//478 433//489
f 439//478 440//480 448//490 433//489
f 448//490 449//491 447//492 433//489
f 443//481 446//487 450//493 434//494
f 450//493 452//495 451//496 434//494
f 451//496 442//482 443//481 434//494
f 408//450 427//449 453//497 452//495
f 450//493 409//451 408//450 452//495
f 453//497 454//498 451//496 452//495
f 453//497 456//499 455//500 454//498
f 457//501 442//482 451//496 454//498
f 455//500 458//502 457//501 454//498
f 455//500 448//490 440//480 458//502
f 460//503 459//504 457//501 458//502
f 440//480 435//476 460//503 458//502
f 462//505 461//506 459//504 460//503
f 435//476 436//475 462//505 460//503
f 419//462 428//461 461//506 462//505
f 436//475 420//463 419//462 462//505
f 436//475 437//474 421//464 420//463
f 449//491 456//499 429//466 422//465
f 423//467 447//492 449//491 422//465
f 424//469 438//479 447//488 423//468
f 421//464 437//474 438//479 424//469
f 456//499 453//497 427//449 429//466
f 445//485 461//506 428//461 430//470
f 425//471 444//486 445//485 430//470
f 426//473 446//487 444//486 425//472
f 409//451 450//493 446//487 426//473
f 445//485 441//483 459//504 461//506
f 441//483 442//482 457//501 459//504
f 449//491 448//490 455//500 456//499
