# pilowlava3D glyph '?' variant 2 — Vincent Wagner / Velvetyne, Free Art License
v 2.21077 0.78740 -0.18271
v 0.20567 3.05902 -0.39422
v 0.45185 2.84865 -0.37014
v 2.09173 0.87112 0.00000
v 2.28682 0.68961 -0.22143
v 2.13364 0.67702 -0.35249
v 2.09622 0.81179 -0.23069
v 2.15166 0.35434 -0.33613
v 2.17097 0.50434 -0.37014
v 2.31572 0.51320 -0.20232
v 2.21200 0.29753 -0.19933
v 0.31722 2.93521 -0.40706
v 0.24216 2.82807 -0.22544
v 0.09986 3.03509 -0.23373
v 0.21626 3.23161 -0.44568
v 0.40652 3.08438 -0.50735
v 0.05444 3.29595 -0.25348
v 0.45458 2.75596 -0.23397
v 0.57405 2.92956 -0.43075
v 0.66047 2.79232 -0.24308
v 0.70882 3.05413 -0.47508
v 0.83135 2.89338 -0.26104
v 0.67545 2.73454 0.00000
v 0.45148 2.70961 0.00000
v 0.21588 2.79936 0.00000
v 0.05819 3.02671 0.00000
v 0.10580 3.56804 -0.27539
v 0.26273 3.80156 -0.28534
v 0.41913 3.63426 -0.50752
v 0.28246 3.44465 -0.48746
v 0.63113 3.40363 -0.59258
v 0.50465 3.24819 -0.57115
v 0.84035 3.17909 -0.49428
v 0.78490 3.53830 -0.59773
v 0.97986 3.29740 -0.50132
v 1.11974 3.12673 -0.27532
v 0.97730 3.01072 -0.27050
v 1.02908 2.93303 0.00000
v 0.42151 4.03433 0.00000
v 1.62824 3.39358 0.00000
v 1.93800 3.62395 0.00000
v 1.57495 3.46254 -0.26659
v 1.73582 3.57149 -0.25666
v 1.89818 3.68193 -0.24295
v 1.64262 3.72144 -0.46129
v 1.81847 3.82091 -0.43768
v 1.99326 3.91823 -0.41217
v 2.06133 3.79232 -0.22939
v 2.09525 3.73964 0.00000
v 2.22324 3.90074 -0.21766
v 1.11300 4.34547 0.00000
v 0.88219 4.26888 0.00000
v 0.64994 4.16646 0.00000
v 0.91873 4.18763 -0.27415
v 0.69777 4.08659 -0.28094
v 0.47516 3.96360 -0.28697
v 0.80289 3.90633 -0.50300
v 0.60251 3.78550 -0.50958
v 0.95905 3.65564 -0.59556
v 1.00758 4.00757 -0.49353
v 1.14403 3.75872 -0.58529
v 1.29647 3.51699 -0.49200
v 1.13323 3.40937 -0.50111
v 1.41816 3.35212 -0.27327
v 1.26765 3.23890 -0.27735
v 1.46664 3.62015 -0.47851
v 1.33385 3.85395 -0.56802
v 1.52625 3.94496 -0.54753
v 1.21455 4.09275 -0.47520
v 1.42012 4.17085 -0.45653
v 1.62721 4.24446 -0.43637
v 1.71867 4.03147 -0.52106
v 1.83958 4.30497 -0.41115
v 1.91042 4.10894 -0.49005
v 2.05690 4.34846 -0.39015
v 2.10918 4.17849 -0.45933
v 2.17107 4.01379 -0.38991
v 2.31429 4.23953 -0.42561
v 2.35278 4.10545 -0.36617
v 2.38464 4.00485 -0.20630
v 2.54169 4.18078 -0.33889
v 2.55260 4.09445 -0.19001
v 2.55694 4.05957 0.00000
v 2.40349 3.96296 0.00000
v 1.58015 4.39139 -0.23944
v 1.36023 4.33029 -0.25032
v 1.14023 4.26407 -0.26211
v 1.80573 4.43536 -0.22711
v 2.03300 4.46267 -0.21543
v 2.25880 4.51488 0.00000
v 2.26215 4.47648 -0.20486
v 2.28088 4.37773 -0.36911
v 2.49635 4.47203 -0.19308
v 2.50912 4.39023 -0.34321
v 2.52392 4.28489 -0.39071
v 2.74029 4.38480 -0.31370
v 2.73865 4.30075 -0.35692
v 2.73412 4.21576 -0.31005
v 2.94865 4.26950 -0.33728
v 2.92405 4.19538 -0.29204
v 2.90387 4.14126 -0.16968
v 2.72651 4.14544 -0.17555
v 2.89519 4.12281 0.00000
v 2.72446 4.12067 0.00000
v 2.49415 4.50194 0.00000
v 2.74001 4.44406 -0.18169
v 2.99753 4.40068 0.00000
v 2.99049 4.38422 -0.17571
v 2.97267 4.34164 -0.29732
v 3.24062 4.27881 -0.17628
v 3.19903 4.24026 -0.30491
v 3.14514 4.17915 -0.34565
v 3.40381 4.07521 -0.33444
v 3.30962 4.02880 -0.37877
v 3.21600 3.97790 -0.32202
v 3.09358 4.11540 -0.29622
v 3.15115 3.94305 -0.18389
v 3.06000 4.07381 -0.17186
v 3.48111 4.11076 -0.18640
v 3.70628 3.86763 0.00000
v 3.67403 3.86417 -0.20635
v 3.56358 3.84635 -0.36909
v 3.76988 3.56013 -0.22571
v 3.63831 3.57077 -0.40283
v 3.44890 3.58982 -0.46867
v 3.41900 3.82347 -0.42325
v 3.25521 3.62503 -0.39888
v 3.27053 3.80523 -0.36149
v 3.11477 3.65757 -0.22444
v 3.16031 3.79714 -0.20223
v 3.06115 3.68110 0.00000
v 3.81033 3.55719 0.00000
v 3.81231 3.23095 0.00000
v 3.76405 3.24451 -0.23956
v 3.72137 2.92386 0.00000
v 2.62077 3.24035 0.00000
v 2.48103 3.12083 0.00000
v 2.18322 2.86939 0.00000
v 2.53693 3.06585 -0.25275
v 2.38560 2.94465 -0.24707
v 2.22787 2.82122 -0.24026
v 2.49799 2.81976 -0.44639
v 2.32864 2.70181 -0.43523
v 2.15749 2.58060 -0.42076
v 2.06788 2.69049 -0.23144
v 2.02840 2.73378 0.00000
v 1.90794 2.55453 -0.22142
v 3.33232 2.48608 0.00000
v 3.54687 2.66915 0.00000
v 3.28912 2.53723 -0.25472
v 3.50144 2.71067 -0.25630
v 3.67044 2.95187 -0.24971
v 3.36728 2.82786 -0.45706
v 3.52332 3.03632 -0.44624
v 3.62029 3.28971 -0.42829
v 3.30624 3.16494 -0.53016
v 3.40551 3.36283 -0.50667
v 3.08613 3.30654 -0.44876
v 3.18700 3.45518 -0.42869
v 2.93074 3.41502 -0.25173
v 3.03481 3.53142 -0.24056
v 2.81204 3.29917 -0.25599
v 2.67934 3.18320 -0.25599
v 2.96130 3.17512 -0.45791
v 2.81831 3.05355 -0.45972
v 2.66177 2.93633 -0.45511
v 3.00377 2.86127 -0.54294
v 2.82648 2.73928 -0.53932
v 2.64463 2.62546 -0.53040
v 2.97531 2.53785 -0.45148
v 2.77802 2.42645 -0.44257
v 2.58490 2.32397 -0.42843
v 2.46189 2.51466 -0.51706
v 2.39681 2.22356 -0.41433
v 2.28175 2.40380 -0.50120
v 2.21080 2.12365 -0.39841
v 2.10340 2.28988 -0.48178
v 1.98816 2.45378 -0.40409
v 1.92722 2.17229 -0.46151
v 1.82143 2.32178 -0.38767
v 1.74989 2.41385 -0.21143
v 1.65747 2.18668 -0.37380
v 1.59127 2.27163 -0.20362
v 1.56525 2.30310 0.00000
v 1.72003 2.44783 0.00000
v 2.69075 2.14005 0.00000
v 2.66145 2.19625 -0.23312
v 2.86414 2.29197 -0.24186
v 3.07146 2.40303 -0.24868
v 3.17444 2.66577 -0.45707
v 3.16836 3.00019 -0.54069
v 2.46564 2.10381 -0.22520
v 2.27369 2.01445 -0.21626
v 2.10522 1.88112 0.00000
v 2.08493 1.92383 -0.20785
v 2.02686 2.02178 -0.38334
v 1.89774 1.83075 -0.20161
v 1.84203 1.92042 -0.37072
v 1.75208 2.05333 -0.44097
v 1.65773 1.81920 -0.35663
v 1.57752 1.93255 -0.41938
v 1.49496 2.04617 -0.36178
v 1.40751 1.80862 -0.39408
v 1.33636 1.90000 -0.34429
v 1.28578 1.96967 -0.18930
v 1.43406 2.12625 -0.19855
v 1.26675 1.99357 0.00000
v 1.91703 1.79413 0.00000
v 1.71175 1.74039 -0.19625
v 1.54384 1.62679 0.00000
v 1.52532 1.65336 -0.18970
v 1.47570 1.71794 -0.34014
v 1.34396 1.56787 -0.17363
v 1.29675 1.61472 -0.31145
v 1.23867 1.68163 -0.35609
v 1.14392 1.50766 -0.26590
v 1.09518 1.54001 -0.30731
v 1.04989 1.57861 -0.26378
v 1.18220 1.74882 -0.30722
v 1.02367 1.60487 -0.15090
v 1.14653 1.79867 -0.17051
v 1.13419 1.81943 0.00000
v 1.36314 1.54963 0.00000
v 1.17763 1.48367 -0.15369
v 1.08504 1.37114 -0.15096
v 1.05557 1.37474 -0.25089
v 1.11401 1.23074 -0.16308
v 1.06779 1.21649 -0.28639
v 0.99835 1.19804 -0.33251
v 1.01294 1.38384 -0.29163
v 0.93408 1.17000 -0.28366
v 0.96214 1.39020 -0.24635
v 0.88699 1.14587 -0.16433
v 0.93296 1.39052 -0.14694
v 1.12526 1.24146 0.00000
v 1.24867 1.14978 0.00000
v 1.22401 1.12132 -0.19213
v 1.38957 1.08814 0.00000
v 1.65566 0.00000 0.00000
v 1.97781 0.07630 0.00000
v 1.66182 0.05102 -0.24241
v 1.97214 0.11936 -0.22525
v 1.68610 0.22126 -0.43372
v 1.95878 0.25818 -0.39529
v 1.72429 0.45867 -0.50986
v 1.95808 0.46851 -0.46609
v 1.75865 0.69486 -0.44001
v 1.94506 0.67485 -0.41694
v 1.78963 0.86917 -0.24816
v 1.93849 0.83938 -0.24733
v 1.94518 0.90986 0.00000
v 1.64632 0.91400 -0.24386
v 1.50566 0.96979 -0.23537
v 1.36260 1.03366 -0.22350
v 1.44080 0.81844 -0.42001
v 1.29500 0.92501 -0.39125
v 1.15458 1.06385 -0.34890
v 1.17615 0.78943 -0.45315
v 1.06294 0.99260 -0.39795
v 1.03938 0.67507 -0.38951
v 0.96566 0.93025 -0.34421
v 0.93352 0.60189 -0.22093
v 0.88483 0.88075 -0.19290
v 1.07582 0.32126 -0.23794
v 1.33790 0.11435 -0.24642
v 1.18048 0.43527 -0.41770
v 1.41085 0.27595 -0.43733
v 1.31973 0.61934 -0.49030
v 1.50216 0.50646 -0.51102
v 1.58974 0.74225 -0.43744
v 2.22891 0.81265 0.00000
v 2.33412 0.69430 0.00000
v 0.86847 2.82341 0.00000
v 0.00000 3.30547 0.00000
v 0.04275 3.59991 0.00000
v 0.20521 3.85623 0.00000
v 1.17973 3.04770 0.00000
v 1.78292 3.50845 0.00000
v 2.25165 3.85363 0.00000
v 1.47725 3.27892 0.00000
v 1.32882 3.16212 0.00000
v 1.56797 4.45679 0.00000
v 1.34071 4.40690 0.00000
v 1.79829 4.49103 0.00000
v 2.02902 4.51056 0.00000
v 2.74161 4.46659 0.00000
v 3.12428 3.93499 0.00000
v 3.04577 4.06016 0.00000
v 3.25561 4.29113 0.00000
v 3.50500 4.11963 0.00000
v 3.11659 3.80097 0.00000
v 2.33551 2.99749 0.00000
v 1.87387 2.59303 0.00000
v 3.11093 2.34679 0.00000
v 2.86989 3.46361 0.00000
v 2.97681 3.56964 0.00000
v 2.75088 3.35424 0.00000
v 2.89767 2.23469 0.00000
v 2.49094 2.05147 0.00000
v 2.29623 1.96643 0.00000
v 1.41089 2.15479 0.00000
v 1.72954 1.70833 0.00000
v 1.01295 1.61792 0.00000
v 1.18707 1.47225 0.00000
v 1.09723 1.37241 0.00000
v 0.86124 1.13577 0.00000
v 0.91673 1.39097 0.00000
v 1.31391 0.06680 0.00000
v 2.22624 0.26553 0.00000
v 1.80862 0.94355 0.00000
v 1.66866 0.98694 0.00000
v 1.52851 1.03642 0.00000
v 0.89671 0.57719 0.00000
v 0.85124 0.86367 0.00000
v 1.04102 0.28726 0.00000
v 2.34776 0.51183 0.00000
v 2.21077 0.78740 0.18271
v 0.20567 3.05902 0.39422
v 0.45185 2.84865 0.37014
v 2.28682 0.68961 0.22143
v 2.13364 0.67702 0.35249
v 2.09622 0.81179 0.23069
v 2.15166 0.35434 0.33613
v 2.17097 0.50434 0.37014
v 2.31572 0.51320 0.20232
v 2.21200 0.29753 0.19933
v 0.31722 2.93521 0.40706
v 0.24216 2.82807 0.22544
v 0.09986 3.03509 0.23373
v 0.21626 3.23161 0.44568
v 0.40652 3.08438 0.50735
v 0.05444 3.29595 0.25348
v 0.45458 2.75596 0.23397
v 0.57405 2.92956 0.43075
v 0.66047 2.79232 0.24308
v 0.70882 3.05413 0.47508
v 0.83135 2.89338 0.26104
v 0.10580 3.56804 0.27539
v 0.26273 3.80156 0.28534
v 0.41913 3.63426 0.50752
v 0.28246 3.44465 0.48746
v 0.63113 3.40363 0.59258
v 0.50465 3.24819 0.57115
v 0.84035 3.17909 0.49428
v 0.78490 3.53830 0.59773
v 0.97986 3.29740 0.50132
v 1.11974 3.12673 0.27532
v 0.97730 3.01072 0.27050
v 1.57495 3.46254 0.26659
v 1.73582 3.57149 0.25666
v 1.89818 3.68193 0.24295
v 1.64262 3.72144 0.46129
v 1.81847 3.82091 0.43768
v 1.99326 3.91823 0.41217
v 2.06133 3.79232 0.22939
v 2.22324 3.90074 0.21766
v 0.91873 4.18763 0.27415
v 0.69777 4.08659 0.28094
v 0.47516 3.96360 0.28697
v 0.80289 3.90633 0.50300
v 0.60251 3.78550 0.50958
v 0.95905 3.65564 0.59556
v 1.00758 4.00757 0.49353
v 1.14403 3.75872 0.58529
v 1.29647 3.51699 0.49200
v 1.13323 3.40937 0.50111
v 1.41816 3.35212 0.27327
v 1.26765 3.23890 0.27735
v 1.46664 3.62015 0.47851
v 1.33385 3.85395 0.56802
v 1.52625 3.94496 0.54753
v 1.21455 4.09275 0.47520
v 1.42012 4.17085 0.45653
v 1.62721 4.24446 0.43637
v 1.71867 4.03147 0.52106
v 1.83958 4.30497 0.41115
v 1.91042 4.10894 0.49005
v 2.05690 4.34846 0.39015
v 2.10918 4.17849 0.45933
v 2.17107 4.01379 0.38991
v 2.31429 4.23953 0.42561
v 2.35278 4.10545 0.36617
v 2.38464 4.00485 0.20630
v 2.54169 4.18078 0.33889
v 2.55260 4.09445 0.19001
v 1.58015 4.39139 0.23944
v 1.36023 4.33029 0.25032
v 1.14023 4.26407 0.26211
v 1.80573 4.43536 0.22711
v 2.03300 4.46267 0.21543
v 2.26215 4.47648 0.20486
v 2.28088 4.37773 0.36911
v 2.49635 4.47203 0.19308
v 2.50912 4.39023 0.34321
v 2.52392 4.28489 0.39071
v 2.74029 4.38480 0.31370
v 2.73865 4.30075 0.35692
v 2.73412 4.21576 0.31005
v 2.94865 4.26950 0.33728
v 2.92405 4.19538 0.29204
v 2.90387 4.14126 0.16968
v 2.72651 4.14544 0.17555
v 2.74001 4.44406 0.18169
v 2.99049 4.38422 0.17571
v 2.97267 4.34164 0.29732
v 3.24062 4.27881 0.17628
v 3.19903 4.24026 0.30491
v 3.14514 4.17915 0.34565
v 3.40381 4.07521 0.33444
v 3.30962 4.02880 0.37877
v 3.21600 3.97790 0.32202
v 3.09358 4.11540 0.29622
v 3.15115 3.94305 0.18389
v 3.06000 4.07381 0.17186
v 3.48111 4.11076 0.18640
v 3.67403 3.86417 0.20635
v 3.56358 3.84635 0.36909
v 3.76988 3.56013 0.22571
v 3.63831 3.57077 0.40283
v 3.44890 3.58982 0.46867
v 3.41900 3.82347 0.42325
v 3.25521 3.62503 0.39888
v 3.27053 3.80523 0.36149
v 3.11477 3.65757 0.22444
v 3.16031 3.79714 0.20223
v 3.76405 3.24451 0.23956
v 2.53693 3.06585 0.25275
v 2.38560 2.94465 0.24707
v 2.22787 2.82122 0.24026
v 2.49799 2.81976 0.44639
v 2.32864 2.70181 0.43523
v 2.15749 2.58060 0.42076
v 2.06788 2.69049 0.23144
v 1.90794 2.55453 0.22142
v 3.28912 2.53723 0.25472
v 3.50144 2.71067 0.25630
v 3.67044 2.95187 0.24971
v 3.36728 2.82786 0.45706
v 3.52332 3.03632 0.44624
v 3.62029 3.28971 0.42829
v 3.30624 3.16494 0.53016
v 3.40551 3.36283 0.50667
v 3.08613 3.30654 0.44876
v 3.18700 3.45518 0.42869
v 2.93074 3.41502 0.25173
v 3.03481 3.53142 0.24056
v 2.81204 3.29917 0.25599
v 2.67934 3.18320 0.25599
v 2.96130 3.17512 0.45791
v 2.81831 3.05355 0.45972
v 2.66177 2.93633 0.45511
v 3.00377 2.86127 0.54294
v 2.82648 2.73928 0.53932
v 2.64463 2.62546 0.53040
v 2.97531 2.53785 0.45148
v 2.77802 2.42645 0.44257
v 2.58490 2.32397 0.42843
v 2.46189 2.51466 0.51706
v 2.39681 2.22356 0.41433
v 2.28175 2.40380 0.50120
v 2.21080 2.12365 0.39841
v 2.10340 2.28988 0.48178
v 1.98816 2.45378 0.40409
v 1.92722 2.17229 0.46151
v 1.82143 2.32178 0.38767
v 1.74989 2.41385 0.21143
v 1.65747 2.18668 0.37380
v 1.59127 2.27163 0.20362
v 2.66145 2.19625 0.23312
v 2.86414 2.29197 0.24186
v 3.07146 2.40303 0.24868
v 3.17444 2.66577 0.45707
v 3.16836 3.00019 0.54069
v 2.46564 2.10381 0.22520
v 2.27369 2.01445 0.21626
v 2.08493 1.92383 0.20785
v 2.02686 2.02178 0.38334
v 1.89774 1.83075 0.20161
v 1.84203 1.92042 0.37072
v 1.75208 2.05333 0.44097
v 1.65773 1.81920 0.35663
v 1.57752 1.93255 0.41938
v 1.49496 2.04617 0.36178
v 1.40751 1.80862 0.39408
v 1.33636 1.90000 0.34429
v 1.28578 1.96967 0.18930
v 1.43406 2.12625 0.19855
v 1.71175 1.74039 0.19625
v 1.52532 1.65336 0.18970
v 1.47570 1.71794 0.34014
v 1.34396 1.56787 0.17363
v 1.29675 1.61472 0.31145
v 1.23867 1.68163 0.35609
v 1.14392 1.50766 0.26590
v 1.09518 1.54001 0.30731
v 1.04989 1.57861 0.26378
v 1.18220 1.74882 0.30722
v 1.02367 1.60487 0.15090
v 1.14653 1.79867 0.17051
v 1.17763 1.48367 0.15369
v 1.08504 1.37114 0.15096
v 1.05557 1.37474 0.25089
v 1.11401 1.23074 0.16308
v 1.06779 1.21649 0.28639
v 0.99835 1.19804 0.33251
v 1.01294 1.38384 0.29163
v 0.93408 1.17000 0.28366
v 0.96214 1.39020 0.24635
v 0.88699 1.14587 0.16433
v 0.93296 1.39052 0.14694
v 1.22401 1.12132 0.19213
v 1.66182 0.05102 0.24241
v 1.97214 0.11936 0.22525
v 1.68610 0.22126 0.43372
v 1.95878 0.25818 0.39529
v 1.72429 0.45867 0.50986
v 1.95808 0.46851 0.46609
v 1.75865 0.69486 0.44001
v 1.94506 0.67485 0.41694
v 1.78963 0.86917 0.24816
v 1.93849 0.83938 0.24733
v 1.64632 0.91400 0.24386
v 1.50566 0.96979 0.23537
v 1.36260 1.03366 0.22350
v 1.44080 0.81844 0.42001
v 1.29500 0.92501 0.39125
v 1.15458 1.06385 0.34890
v 1.17615 0.78943 0.45315
v 1.06294 0.99260 0.39795
v 1.03938 0.67507 0.38951
v 0.96566 0.93025 0.34421
v 0.93352 0.60189 0.22093
v 0.88483 0.88075 0.19290
v 1.07582 0.32126 0.23794
v 1.33790 0.11435 0.24642
v 1.18048 0.43527 0.41770
v 1.41085 0.27595 0.43733
v 1.31973 0.61934 0.49030
v 1.50216 0.50646 0.51102
v 1.58974 0.74225 0.43744
vn 0.52719 0.77384 -0.35106
vn 0.56418 0.82565 0.00221
vn 0.91513 0.40316 0.00004
vn 0.78086 0.41621 -0.46586
vn 0.44409 0.43888 -0.78113
vn 0.30987 0.83085 -0.46225
vn 0.28487 0.95856 0.00222
vn 0.60277 -0.42583 -0.67479
vn 0.59542 -0.05917 -0.80124
vn 0.89846 -0.12943 -0.41955
vn 0.73637 -0.57103 -0.36289
vn -0.65507 -0.31806 -0.68536
vn -0.39697 -0.54266 -0.74023
vn -0.56456 -0.73440 -0.37675
vn -0.84588 -0.36971 -0.38446
vn -0.61285 -0.10443 -0.78327
vn -0.22067 -0.32408 -0.91993
vn -0.90210 -0.02494 -0.43081
vn -0.07874 -0.72023 -0.68926
vn -0.08960 -0.91188 -0.40057
vn 0.12948 -0.60850 -0.78292
vn 0.28583 -0.84745 -0.44736
vn 0.25745 -0.49270 -0.83124
vn 0.45830 -0.73748 -0.49607
vn 0.52242 -0.85269 0.00035
vn 0.29866 -0.95436 0.00010
vn -0.10628 -0.99434 -0.00000
vn -0.61036 -0.79212 0.00048
vn -0.92023 -0.39138 -0.00016
vn -0.99979 -0.02073 -0.00038
vn -0.93444 0.35611 -0.00005
vn -0.82048 0.29915 -0.48716
vn -0.74112 0.67137 -0.00003
vn -0.64121 0.57305 -0.51037
vn -0.39128 0.31316 -0.86535
vn -0.52388 0.12175 -0.84305
vn -0.03437 -0.06281 -0.99743
vn -0.11854 -0.17472 -0.97746
vn 0.31066 -0.43141 -0.84698
vn 0.00599 -0.01080 -0.99992
vn 0.31333 -0.42069 -0.85138
vn 0.51590 -0.67463 -0.52794
vn 0.51614 -0.68080 -0.51972
vn 0.61004 -0.79237 0.00007
vn 0.60208 -0.79844 -0.00016
vn 0.58683 -0.80971 -0.00001
vn 0.59012 -0.80731 0.00004
vn 0.50839 -0.70085 -0.50035
vn 0.51390 -0.70898 -0.48297
vn 0.52096 -0.71585 -0.46492
vn 0.58648 -0.80996 -0.00001
vn 0.35281 -0.44292 -0.82422
vn 0.37051 -0.45198 -0.81144
vn 0.37234 -0.47395 -0.79796
vn 0.51957 -0.72946 -0.44489
vn 0.58188 -0.81327 -0.00000
vn 0.51510 -0.74875 -0.41719
vn 0.57420 -0.81872 -0.00014
vn -0.44773 0.89417 0.00012
vn -0.35953 0.93313 0.00000
vn -0.30690 0.80846 -0.50220
vn -0.38248 0.77126 -0.50879
vn -0.47759 0.71381 -0.51223
vn -0.55742 0.83023 -0.00009
vn -0.22861 0.47860 -0.84775
vn -0.28840 0.42214 -0.85943
vn 0.03348 0.01755 -0.99929
vn -0.17670 0.51757 -0.83720
vn 0.06350 0.03719 -0.99729
vn 0.32933 -0.42510 -0.84311
vn 0.31813 -0.42078 -0.84955
vn 0.51411 -0.68585 -0.51508
vn 0.51416 -0.67812 -0.52516
vn 0.60395 -0.79702 0.00002
vn 0.60891 -0.79324 0.00001
vn 0.33641 -0.43584 -0.83479
vn 0.08378 0.05007 -0.99523
vn 0.10166 0.05789 -0.99313
vn -0.14061 0.54781 -0.82470
vn -0.12617 0.56823 -0.81314
vn -0.09442 0.59028 -0.80165
vn 0.12830 0.06213 -0.98979
vn -0.05529 0.61341 -0.78783
vn 0.14238 0.05749 -0.98814
vn -0.02210 0.63472 -0.77243
vn 0.02432 0.38236 -0.92369
vn 0.25592 -0.29567 -0.92037
vn 0.36996 -0.50571 -0.77935
vn 0.25269 -0.33745 -0.90679
vn 0.35760 -0.55347 -0.75220
vn 0.48817 -0.78607 -0.37920
vn 0.28904 -0.63101 -0.71992
vn 0.37690 -0.86219 -0.33848
vn 0.41570 -0.90950 0.00021
vn 0.53944 -0.84203 0.00024
vn -0.25033 0.96816 0.00006
vn -0.19825 0.98015 0.00004
vn -0.18174 0.87445 -0.44979
vn -0.22344 0.85163 -0.47413
vn -0.24938 0.83466 -0.49108
vn -0.28962 0.95714 -0.00005
vn -0.12905 0.99164 -0.00008
vn -0.12132 0.89876 -0.42133
vn -0.06525 0.99787 -0.00003
vn -0.06608 0.91825 -0.39045
vn 0.00336 0.99999 -0.00002
vn -0.00263 0.93464 -0.35560
vn 0.02367 0.65826 -0.75242
vn 0.07574 0.94624 -0.31446
vn 0.08347 0.68677 -0.72206
vn 0.09427 0.42145 -0.90194
vn 0.05393 0.39600 -0.91666
vn 0.15240 0.71074 -0.68675
vn 0.13196 0.44144 -0.88754
vn 0.22097 -0.40695 -0.88632
vn 0.10536 -0.47768 -0.87219
vn 0.11412 -0.70962 -0.69528
vn -0.11296 -0.48299 -0.86831
vn -0.16884 -0.71312 -0.68041
vn -0.20735 -0.93792 -0.27804
vn 0.13702 -0.94291 -0.30354
vn -0.20137 -0.97952 0.00009
vn 0.15913 -0.98726 0.00001
vn 0.08628 0.99627 0.00004
vn 0.18693 0.98237 -0.00001
vn 0.17236 0.94767 -0.26872
vn 0.31680 0.94849 -0.00009
vn 0.30452 0.92175 -0.24008
vn 0.28824 0.88306 -0.37031
vn 0.46749 0.84741 -0.25168
vn 0.33473 0.65333 -0.67906
vn 0.15617 0.44229 -0.88317
vn 0.18534 0.42769 -0.88472
vn 0.44096 0.54170 -0.71562
vn 0.23913 0.37621 -0.89514
vn -0.33978 -0.35782 -0.86978
vn -0.44914 -0.12239 -0.88504
vn -0.66317 -0.22182 -0.71484
vn -0.47855 -0.55124 -0.68347
vn -0.89835 -0.29557 -0.32497
vn -0.61289 -0.73797 -0.28244
vn -0.95920 -0.28273 0.00046
vn -0.64128 -0.76731 -0.00040
vn 0.48127 0.87657 -0.00004
vn 0.68221 0.73116 -0.00001
vn 0.64876 0.70087 -0.29645
vn 0.87924 0.47638 0.00004
vn 0.81860 0.45625 -0.34889
vn 0.53960 0.36326 -0.75952
vn 0.90745 0.15463 -0.39067
vn 0.59179 0.15104 -0.79182
vn 0.01700 0.18545 -0.98251
vn -0.05469 0.19637 -0.97900
vn -0.52359 0.28596 -0.80255
vn -0.63833 0.09904 -0.76337
vn -0.79397 0.41644 -0.44294
vn -0.90941 0.14865 -0.38843
vn -0.87467 0.48473 -0.00045
vn -0.98019 0.19807 0.00003
vn 0.98738 0.15837 -0.00005
vn 0.98904 -0.14762 -0.00017
vn 0.89621 -0.13092 -0.42387
vn -0.63656 0.77123 0.00001
vn -0.64220 0.76654 0.00003
vn -0.55549 0.67245 -0.48912
vn -0.55668 0.68332 -0.47242
vn -0.56812 0.68711 -0.45290
vn -0.64206 0.76665 -0.00000
vn -0.36086 0.43578 -0.82454
vn -0.37832 0.44274 -0.81293
vn -0.40338 0.44484 -0.79963
vn -0.58989 0.68279 -0.43108
vn -0.65763 0.75334 -0.00000
vn -0.61139 0.67770 -0.40857
vn -0.67231 0.74027 -0.00001
vn 0.73893 -0.67379 -0.00005
vn 0.58475 -0.81122 -0.00012
vn 0.51611 -0.72231 -0.46032
vn 0.65513 -0.59795 -0.46180
vn 0.80502 -0.38657 -0.45000
vn 0.90091 -0.43401 -0.00005
vn 0.41028 -0.36450 -0.83595
vn 0.51065 -0.22552 -0.82969
vn 0.57930 -0.05182 -0.81346
vn 0.05027 0.06974 -0.99630
vn 0.05198 0.13300 -0.98975
vn -0.37336 0.38931 -0.84205
vn -0.42982 0.36554 -0.82562
vn -0.61153 0.61381 -0.49926
vn -0.68195 0.55441 -0.47705
vn -0.70147 0.71270 -0.00016
vn -0.76780 0.64069 0.00017
vn -0.67166 0.74086 -0.00005
vn -0.57778 0.64010 -0.50640
vn -0.55976 0.65969 -0.50147
vn -0.65174 0.75845 0.00000
vn -0.34874 0.40105 -0.84708
vn -0.34183 0.41368 -0.84381
vn -0.34876 0.42503 -0.83530
vn -0.00287 -0.01198 -0.99992
vn -0.02539 -0.03093 -0.99920
vn -0.04450 -0.04419 -0.99803
vn 0.27579 -0.50622 -0.81711
vn 0.24673 -0.53694 -0.80673
vn 0.23693 -0.55753 -0.79563
vn -0.05752 -0.05459 -0.99685
vn 0.24026 -0.57183 -0.78440
vn 0.12817 -0.36301 -0.92293
vn -0.25537 0.24566 -0.93511
vn 0.24892 -0.58398 -0.77267
vn 0.13351 -0.37339 -0.91802
vn -0.27390 0.24775 -0.92930
vn -0.42778 0.44734 -0.78542
vn -0.28362 0.25384 -0.92473
vn -0.44309 0.45423 -0.77288
vn -0.62433 0.67794 -0.38809
vn -0.45283 0.45943 -0.76411
vn -0.63296 0.67915 -0.37165
vn -0.68287 0.73054 0.00001
vn -0.67884 0.73428 0.00001
vn 0.44111 -0.89745 0.00000
vn 0.41419 -0.91019 -0.00001
vn 0.37174 -0.81767 -0.43958
vn 0.39153 -0.80275 -0.44977
vn 0.43777 -0.77471 -0.45627
vn 0.49595 -0.86835 -0.00004
vn 0.32420 -0.45744 -0.82804
vn 0.02462 0.02052 -0.99949
vn 0.40902 -0.91253 -0.00002
vn 0.37157 -0.82500 -0.42581
vn 0.41119 -0.91155 -0.00000
vn 0.37823 -0.83074 -0.40842
vn 0.42281 -0.90622 0.00002
vn 0.39320 -0.83307 -0.38908
vn 0.26380 -0.59171 -0.76177
vn 0.40043 -0.83843 -0.36972
vn 0.27152 -0.60096 -0.75175
vn 0.14882 -0.38392 -0.91130
vn 0.14370 -0.37789 -0.91463
vn 0.27414 -0.61705 -0.73763
vn 0.15076 -0.39744 -0.90516
vn -0.28864 0.25714 -0.92226
vn -0.30457 0.24973 -0.91917
vn -0.47896 0.45032 -0.75353
vn -0.36105 0.23877 -0.90146
vn -0.54132 0.43185 -0.72144
vn -0.72052 0.61720 -0.31610
vn -0.66495 0.65868 -0.35212
vn -0.76456 0.64455 -0.00005
vn -0.71348 0.70067 -0.00000
vn 0.42692 -0.90429 0.00001
vn 0.41714 -0.90884 0.00003
vn 0.39707 -0.84927 -0.34795
vn 0.40696 -0.91344 0.00013
vn 0.39199 -0.86354 -0.31724
vn 0.27011 -0.64769 -0.71241
vn 0.40635 -0.87280 -0.27039
vn 0.29041 -0.69527 -0.65746
vn 0.15799 -0.49892 -0.85213
vn 0.14114 -0.42866 -0.89237
vn 0.50166 -0.62656 -0.59646
vn 0.35944 -0.47788 -0.80152
vn -0.46610 0.22771 -0.85493
vn -0.56694 0.22407 -0.79270
vn -0.73829 0.34689 -0.57845
vn -0.64031 0.40012 -0.65567
vn -0.86857 0.44850 -0.21078
vn -0.79060 0.55328 -0.26235
vn -0.88973 0.45648 -0.00007
vn -0.82278 0.56836 -0.00008
vn 0.41273 -0.91085 0.00022
vn 0.60334 -0.79749 0.00055
vn 0.60629 -0.76416 -0.22018
vn 0.75750 -0.65284 0.00081
vn 0.76194 -0.61963 -0.18844
vn 0.78419 -0.17186 -0.59625
vn 0.95987 0.19420 -0.20230
vn 0.84241 0.47570 -0.25309
vn 0.66793 0.38455 -0.63718
vn 0.46085 0.30653 -0.83286
vn 0.59302 -0.11314 -0.79720
vn -0.62376 0.21894 -0.75033
vn -0.61313 0.15851 -0.77391
vn -0.79753 0.13596 -0.58777
vn -0.79935 0.26018 -0.54161
vn -0.96106 0.11089 -0.25312
vn -0.93548 0.28975 -0.20229
vn -0.99305 0.11773 0.00014
vn -0.95469 0.29761 0.00013
vn 0.85728 0.51485 0.00013
vn 0.55013 0.83508 0.00081
vn 0.54681 0.76554 -0.33903
vn 0.97791 0.20901 -0.00001
vn 0.42738 -0.90407 -0.00005
vn 0.01937 -0.99981 -0.00001
vn 0.02561 -0.89389 -0.44755
vn 0.40151 -0.82410 -0.39956
vn 0.77388 -0.63333 -0.00020
vn 0.04949 -0.54795 -0.83505
vn 0.34499 -0.52583 -0.77749
vn 0.09165 -0.02301 -0.99552
vn 0.28732 -0.03670 -0.95713
vn 0.14794 0.50565 -0.84996
vn 0.22470 0.48533 -0.84496
vn 0.21522 0.83980 -0.49841
vn 0.20428 0.84661 -0.49144
vn 0.25602 0.96667 -0.00021
vn 0.22320 0.97477 0.00007
vn 0.35569 0.93460 -0.00015
vn 0.31807 0.94807 0.00004
vn 0.27090 0.82385 -0.49787
vn 0.32122 0.81674 -0.47933
vn 0.39306 0.81327 -0.42907
vn 0.40954 0.91229 0.00051
vn 0.18439 0.52257 -0.83242
vn 0.25300 0.55178 -0.79469
vn 0.39457 0.56876 -0.72168
vn -0.15706 0.15900 -0.97471
vn 0.21193 0.39931 -0.89198
vn -0.52195 0.05526 -0.85118
vn -0.61721 -0.14405 -0.77350
vn -0.72575 0.00324 -0.68795
vn -0.87928 -0.27040 -0.39212
vn -0.94307 -0.05575 -0.32790
vn -0.95295 -0.30312 -0.00002
vn -0.99806 -0.06218 -0.00002
vn -0.77943 -0.62649 -0.00006
vn -0.70452 -0.55781 -0.43875
vn -0.37280 -0.80578 -0.46015
vn -0.42071 -0.90720 -0.00003
vn -0.46366 -0.32101 -0.82582
vn -0.23310 -0.47597 -0.84801
vn -0.11702 0.08075 -0.98984
vn -0.04300 0.01783 -0.99892
vn 0.14692 0.51057 -0.84719
vn 0.98493 -0.17295 -0.00039
vn 0.78253 0.41951 0.46007
vn 0.53182 0.77348 0.34482
vn 0.31518 0.83170 0.45709
vn 0.44907 0.44387 0.77544
vn 0.72929 -0.57429 0.37193
vn 0.89320 -0.13748 0.42814
vn 0.58616 -0.06536 0.80755
vn 0.58913 -0.42793 0.68542
vn -0.84365 -0.37034 0.38872
vn -0.56186 -0.73340 0.38266
vn -0.39751 -0.54240 0.74013
vn -0.65539 -0.32078 0.68379
vn -0.22552 -0.32602 0.91807
vn -0.61436 -0.10817 0.78157
vn -0.90097 -0.02737 0.43302
vn -0.09423 -0.90917 0.40563
vn -0.08509 -0.71589 0.69301
vn 0.27883 -0.84777 0.45116
vn 0.12233 -0.60728 0.78501
vn 0.45919 -0.73695 0.49603
vn 0.25884 -0.49266 0.83084
vn -0.82037 0.29889 0.48750
vn -0.64132 0.57300 0.51026
vn -0.52299 0.12257 0.84348
vn -0.39160 0.31328 0.86516
vn -0.11812 -0.17385 0.97766
vn -0.03474 -0.06297 0.99741
vn 0.31066 -0.43165 0.84686
vn 0.31327 -0.42060 0.85144
vn 0.00595 -0.01067 0.99993
vn 0.51658 -0.68061 0.51954
vn 0.51582 -0.67465 0.52799
vn 0.51346 -0.70917 0.48316
vn 0.50815 -0.70097 0.50042
vn 0.52100 -0.71582 0.46494
vn 0.37004 -0.45205 0.81162
vn 0.35222 -0.44308 0.82439
vn 0.52034 -0.72909 0.44461
vn 0.37242 -0.47385 0.79798
vn 0.51529 -0.74854 0.41733
vn -0.38222 0.77117 0.50913
vn -0.30701 0.80843 0.50219
vn -0.47759 0.71395 0.51204
vn -0.28846 0.42224 0.85936
vn -0.22820 0.47832 0.84802
vn 0.03353 0.01742 0.99929
vn 0.06296 0.03730 0.99732
vn -0.17705 0.51758 0.83711
vn 0.31785 -0.42079 0.84965
vn 0.32910 -0.42506 0.84322
vn 0.51401 -0.67819 0.52522
vn 0.51403 -0.68590 0.51508
vn 0.33637 -0.43582 0.83481
vn 0.08373 0.05012 0.99523
vn 0.10174 0.05788 0.99313
vn -0.12546 0.56819 0.81328
vn -0.14057 0.54784 0.82469
vn 0.12775 0.06205 0.98986
vn -0.09377 0.59024 0.80176
vn 0.14146 0.05734 0.98828
vn -0.05457 0.61332 0.78795
vn 0.02423 0.38236 0.92369
vn -0.02132 0.63465 0.77251
vn 0.37008 -0.50561 0.77936
vn 0.25671 -0.29569 0.92015
vn 0.36010 -0.55339 0.75106
vn 0.25725 -0.33738 0.90554
vn 0.48802 -0.78620 0.37912
vn 0.37862 -0.86201 0.33703
vn 0.29164 -0.63084 0.71902
vn -0.22273 0.85168 0.47438
vn -0.18105 0.87447 0.45002
vn -0.24939 0.83466 0.49107
vn -0.12091 0.89874 0.42148
vn -0.06567 0.91823 0.39056
vn -0.00319 0.93465 0.35555
vn 0.02420 0.65822 0.75244
vn 0.08209 0.68735 0.72167
vn 0.07420 0.94649 0.31410
vn 0.05516 0.39579 0.91668
vn 0.09457 0.42176 0.90176
vn 0.13115 0.44173 0.88751
vn 0.15132 0.71082 0.68691
vn 0.11353 -0.70946 0.69554
vn 0.10358 -0.47731 0.87261
vn 0.22186 -0.40562 0.88671
vn -0.16958 -0.71361 0.67971
vn -0.11309 -0.48468 0.86735
vn 0.13775 -0.94283 0.30347
vn -0.20822 -0.93768 0.27819
vn 0.17187 0.94770 0.26893
vn 0.30475 0.92150 0.24074
vn 0.28876 0.88229 0.37173
vn 0.33389 0.65328 0.67952
vn 0.46672 0.84764 0.25233
vn 0.15613 0.44186 0.88339
vn 0.18559 0.42763 0.88470
vn 0.24047 0.37600 0.89487
vn 0.44118 0.54158 0.71558
vn -0.48205 -0.55197 0.68041
vn -0.65887 -0.22578 0.71757
vn -0.44437 -0.12542 0.88702
vn -0.34350 -0.35932 0.86770
vn -0.61454 -0.73754 0.27996
vn -0.89641 -0.29881 0.32735
vn 0.64846 0.70105 0.29670
vn 0.81875 0.45617 0.34865
vn 0.53980 0.36342 0.75930
vn 0.59193 0.15075 0.79176
vn 0.90753 0.15450 0.39054
vn -0.05319 0.19758 0.97884
vn 0.01539 0.18598 0.98243
vn -0.63585 0.09976 0.76534
vn -0.52586 0.28743 0.80054
vn -0.90886 0.14829 0.38985
vn -0.79429 0.41776 0.44112
vn 0.89619 -0.13096 0.42391
vn -0.55643 0.68341 0.47258
vn -0.55538 0.67255 0.48911
vn -0.56819 0.68704 0.45292
vn -0.37820 0.44273 0.81299
vn -0.36059 0.43590 0.82460
vn -0.59029 0.68248 0.43101
vn -0.40359 0.44471 0.79959
vn -0.61159 0.67753 0.40855
vn 0.65514 -0.59799 0.46173
vn 0.51617 -0.72232 0.46023
vn 0.80498 -0.38650 0.45014
vn 0.51055 -0.22538 0.82978
vn 0.41047 -0.36483 0.83571
vn 0.57955 -0.05218 0.81327
vn 0.05301 0.13178 0.98986
vn 0.04996 0.07033 0.99627
vn -0.42882 0.36404 0.82679
vn -0.37378 0.39074 0.84120
vn -0.68181 0.55352 0.47829
vn -0.61131 0.61475 0.49838
vn -0.57773 0.64007 0.50650
vn -0.55983 0.65967 0.50143
vn -0.34179 0.41358 0.84388
vn -0.34852 0.40066 0.84735
vn -0.34876 0.42504 0.83529
vn -0.02563 -0.03085 0.99920
vn -0.00274 -0.01212 0.99992
vn -0.04451 -0.04409 0.99804
vn 0.24661 -0.53689 0.80680
vn 0.27562 -0.50619 0.81719
vn -0.05708 -0.05443 0.99688
vn 0.23690 -0.55751 0.79565
vn 0.12855 -0.36279 0.92296
vn 0.24014 -0.57184 0.78443
vn -0.25498 0.24593 0.93515
vn 0.13390 -0.37312 0.91807
vn 0.24875 -0.58404 0.77267
vn -0.42780 0.44733 0.78542
vn -0.27391 0.24773 0.92930
vn -0.44317 0.45414 0.77289
vn -0.28395 0.25357 0.92470
vn -0.62428 0.67796 0.38813
vn -0.63309 0.67903 0.37164
vn -0.45306 0.45924 0.76409
vn 0.39137 -0.80278 0.44985
vn 0.37155 -0.81772 0.43964
vn 0.43783 -0.77474 0.45616
vn 0.32417 -0.45745 0.82804
vn 0.02504 0.01989 0.99949
vn 0.37139 -0.82508 0.42581
vn 0.37801 -0.83086 0.40839
vn 0.39327 -0.83303 0.38910
vn 0.26375 -0.59172 0.76178
vn 0.27185 -0.60069 0.75184
vn 0.40069 -0.83826 0.36982
vn 0.14379 -0.37782 0.91464
vn 0.14901 -0.38376 0.91133
vn 0.15159 -0.39675 0.90532
vn 0.27437 -0.61686 0.73770
vn -0.47887 0.45037 0.75356
vn -0.30488 0.24939 0.91916
vn -0.28880 0.25701 0.92225
vn -0.54301 0.42968 0.72147
vn -0.36307 0.23610 0.90136
vn -0.66465 0.65896 0.35216
vn -0.72122 0.61637 0.31611
vn 0.39686 -0.84939 0.34792
vn 0.39246 -0.86320 0.31758
vn 0.27015 -0.64761 0.71247
vn 0.29432 -0.69069 0.66054
vn 0.40861 -0.87137 0.27156
vn 0.14096 -0.42900 0.89224
vn 0.16002 -0.49280 0.85530
vn 0.36038 -0.46606 0.80803
vn 0.50442 -0.62099 0.59994
vn -0.64068 0.40081 0.65489
vn -0.73642 0.34877 0.57969
vn -0.56411 0.22533 0.79436
vn -0.46676 0.22853 0.85434
vn -0.79064 0.55347 0.26185
vn -0.86790 0.44978 0.21082
vn 0.60693 -0.76374 0.21984
vn 0.76080 -0.62159 0.18658
vn 0.78137 -0.17229 0.59981
vn 0.66822 0.38358 0.63745
vn 0.84526 0.46985 0.25450
vn 0.95961 0.19802 0.19986
vn 0.58356 -0.11437 0.80397
vn 0.45834 0.31186 0.83227
vn -0.79834 0.25945 0.54345
vn -0.79801 0.13129 0.58817
vn -0.61437 0.15318 0.77401
vn -0.62248 0.21670 0.75203
vn -0.93503 0.29046 0.20337
vn -0.96111 0.10913 0.25370
vn 0.55284 0.76076 0.34003
vn 0.40289 -0.82243 0.40162
vn 0.02540 -0.89396 0.44743
vn 0.34450 -0.52241 0.78000
vn 0.04961 -0.54761 0.83526
vn 0.28647 -0.03488 0.95745
vn 0.09147 -0.02299 0.99554
vn 0.22607 0.48665 0.84384
vn 0.14727 0.50489 0.85053
vn 0.20447 0.84689 0.49090
vn 0.21507 0.83973 0.49860
vn 0.32273 0.81536 0.48065
vn 0.27116 0.82352 0.49828
vn 0.39514 0.81307 0.42753
vn 0.25601 0.54877 0.79581
vn 0.18637 0.51829 0.83465
vn 0.39942 0.56880 0.71897
vn 0.21766 0.40465 0.88819
vn -0.15535 0.15560 0.97553
vn -0.72620 0.00081 0.68748
vn -0.61788 -0.14145 0.77344
vn -0.52290 0.05348 0.85071
vn -0.94302 -0.05750 0.32774
vn -0.87954 -0.26970 0.39201
vn -0.70452 -0.55780 0.43875
vn -0.37283 -0.80550 0.46061
vn -0.23307 -0.47547 0.84830
vn -0.46376 -0.32113 0.82571
vn -0.04315 0.01717 0.99892
vn -0.11667 0.07797 0.99011
vn 0.14693 0.50960 0.84778
f 1//1 271//2 272//3 5//4
f 1//1 5//4 6//5 7//6
f 1//1 7//6 4//7 271//2
f 8//8 9//9 10//10 11//11
f 2//12 12//13 13//14 14//15
f 2//12 15//16 16//17 12//13
f 2//12 14//15 17//18 15//16
f 3//19 18//20 13//14 12//13
f 3//19 19//21 20//22 18//20
f 3//19 12//13 16//17 19//21
f 20//22 19//21 21//23 22//24
f 20//22 22//24 273//25 23//26
f 20//22 23//26 24//27 18//20
f 24//27 25//28 13//14 18//20
f 25//28 26//29 14//15 13//14
f 26//29 274//30 17//18 14//15
f 274//30 275//31 27//32 17//18
f 27//32 275//31 276//33 28//34
f 27//32 28//34 29//35 30//36
f 27//32 30//36 15//16 17//18
f 30//36 29//35 31//37 32//38
f 30//36 32//38 16//17 15//16
f 32//38 31//37 33//39 21//23
f 32//38 21//23 19//21 16//17
f 33//39 31//37 34//40 35//41
f 33//39 35//41 36//42 37//43
f 33//39 37//43 22//24 21//23
f 37//43 36//42 277//44 38//45
f 37//43 38//45 273//25 22//24
f 278//46 40//47 42//48 43//49
f 278//46 43//49 44//50 41//51
f 44//50 43//49 45//52 46//53
f 44//50 46//53 47//54 48//55
f 44//50 48//55 49//56 41//51
f 49//56 48//55 50//57 279//58
f 53//59 52//60 54//61 55//62
f 53//59 55//62 56//63 39//64
f 56//63 28//34 276//33 39//64
f 56//63 55//62 57//65 58//66
f 56//63 58//66 29//35 28//34
f 58//66 57//65 59//67 34//40
f 58//66 34//40 31//37 29//35
f 59//67 57//65 60//68 61//69
f 59//67 61//69 62//70 63//71
f 59//67 63//71 35//41 34//40
f 63//71 62//70 64//72 65//73
f 63//71 65//73 36//42 35//41
f 65//73 64//72 280//74 281//75
f 65//73 281//75 277//44 36//42
f 64//72 62//70 66//76 42//48
f 64//72 42//48 40//47 280//74
f 66//76 62//70 61//69 67//77
f 66//76 67//77 68//78 45//52
f 66//76 45//52 43//49 42//48
f 68//78 67//77 69//79 70//80
f 68//78 70//80 71//81 72//82
f 68//78 72//82 46//53 45//52
f 72//82 71//81 73//83 74//84
f 72//82 74//84 47//54 46//53
f 74//84 73//83 75//85 76//86
f 74//84 76//87 77//88 47//54
f 77//88 76//87 78//89 79//90
f 77//88 79//90 80//91 50//57
f 77//88 50//57 48//55 47//54
f 80//91 79//90 81//92 82//93
f 80//91 82//93 83//94 84//95
f 80//91 84//95 279//58 50//57
f 283//96 282//97 85//98 86//99
f 283//96 86//99 87//100 51//101
f 87//100 54//61 52//60 51//101
f 87//100 86//99 70//80 69//79
f 87//100 69//79 60//68 54//61
f 86//99 85//98 71//81 70//80
f 85//98 282//97 284//102 88//103
f 85//98 88//103 73//83 71//81
f 88//103 284//102 285//104 89//105
f 88//103 89//105 75//85 73//83
f 89//105 285//104 90//106 91//107
f 89//105 91//107 92//108 75//85
f 92//108 91//107 93//109 94//110
f 92//108 94//110 95//111 78//112
f 92//108 78//112 76//86 75//85
f 95//111 94//110 96//113 97//114
f 95//115 97//116 98//117 81//92
f 95//115 81//92 79//90 78//89
f 98//117 97//116 99//118 100//119
f 98//117 100//119 101//120 102//121
f 98//117 102//121 82//93 81//92
f 102//121 101//120 103//122 104//123
f 102//121 104//123 83//94 82//93
f 105//124 286//125 106//126 93//109
f 105//124 93//109 91//107 90//106
f 106//126 286//125 107//127 108//128
f 106//126 108//128 109//129 96//113
f 106//126 96//113 94//110 93//109
f 109//129 108//128 110//130 111//131
f 109//132 111//131 112//133 99//132
f 109//132 99//132 97//114 96//113
f 112//133 111//131 113//134 114//135
f 112//136 114//137 115//138 116//139
f 112//136 116//139 100//119 99//118
f 116//139 115//138 117//140 118//141
f 116//139 118//141 101//120 100//119
f 118//141 117//140 287//142 288//143
f 118//141 288//143 103//122 101//120
f 289//144 290//145 119//146 110//130
f 289//144 110//130 108//128 107//127
f 119//146 290//145 120//147 121//148
f 119//146 121//148 122//149 113//134
f 119//146 113//134 111//131 110//130
f 122//149 121//148 123//150 124//151
f 122//149 124//151 125//152 126//153
f 122//149 126//153 114//135 113//134
f 126//153 125//152 127//154 128//155
f 126//153 128//155 115//138 114//137
f 128//155 127//154 129//156 130//157
f 128//155 130//157 117//140 115//138
f 130//157 129//156 131//158 291//159
f 130//157 291//159 287//142 117//140
f 132//160 133//161 134//162 123//150
f 132//160 123//150 121//148 120//147
f 292//163 137//164 139//165 140//166
f 292//163 140//166 141//167 138//168
f 141//167 140//166 142//169 143//170
f 141//167 143//170 144//171 145//172
f 141//167 145//172 146//173 138//168
f 146//173 145//172 147//174 293//175
f 149//176 148//177 150//178 151//179
f 149//176 151//179 152//180 135//181
f 152//180 134//162 133//161 135//181
f 152//180 151//179 153//182 154//183
f 152//180 154//183 155//184 134//162
f 155//184 124//151 123//150 134//162
f 155//184 154//183 156//185 157//186
f 155//184 157//186 125//152 124//151
f 157//186 156//185 158//187 159//188
f 157//186 159//188 127//154 125//152
f 159//188 158//187 160//189 161//190
f 159//188 161//190 129//156 127//154
f 161//190 160//189 295//191 296//192
f 161//190 296//192 131//158 129//156
f 297//193 295//191 160//189 162//194
f 297//193 162//194 163//195 136//196
f 163//195 162//194 164//197 165//198
f 163//195 165//198 166//199 139//165
f 163//195 139//165 137//164 136//196
f 166//199 165//198 167//200 168//201
f 166//199 168//201 169//202 142//169
f 166//199 142//169 140//166 139//165
f 169//202 168//201 170//203 171//204
f 169//202 171//204 172//205 173//206
f 169//202 173//206 143//170 142//169
f 173//206 172//205 174//207 175//208
f 173//206 175//209 144//171 143//170
f 175//208 174//207 176//210 177//211
f 175//209 177//212 178//213 144//171
f 178//213 177//212 179//214 180//215
f 178//213 180//215 181//216 147//174
f 178//213 147//174 145//172 144//171
f 181//216 180//215 182//217 183//218
f 181//216 183//218 184//219 185//220
f 181//216 185//220 293//175 147//174
f 298//221 186//222 187//223 188//224
f 298//221 188//224 189//225 294//226
f 189//225 150//178 148//177 294//226
f 189//225 188//224 171//204 170//203
f 189//225 170//203 190//227 150//178
f 190//227 153//182 151//179 150//178
f 190//227 170//203 168//201 167//200
f 190//227 167//200 191//228 153//182
f 191//228 156//185 154//183 153//182
f 191//228 167//200 165//198 164//197
f 191//228 164//197 158//187 156//185
f 188//224 187//223 172//205 171//204
f 187//223 186//222 299//229 192//230
f 187//223 192//230 174//207 172//205
f 192//230 299//229 300//231 193//232
f 192//230 193//232 176//210 174//207
f 193//232 300//231 194//233 195//234
f 193//232 195//234 196//235 176//210
f 196//235 195//234 197//236 198//237
f 196//235 198//237 199//238 179//239
f 196//235 179//239 177//211 176//210
f 199//238 198//237 200//240 201//241
f 199//242 201//243 202//244 182//217
f 199//242 182//217 180//215 179//214
f 202//244 201//243 203//245 204//246
f 202//244 204//246 205//247 206//248
f 202//244 206//248 183//218 182//217
f 206//248 205//247 207//249 301//250
f 206//248 301//250 184//219 183//218
f 208//251 302//252 209//253 197//236
f 208//251 197//236 195//234 194//233
f 209//253 302//252 210//254 211//255
f 209//253 211//255 212//256 200//240
f 209//253 200//240 198//237 197//236
f 212//256 211//255 213//257 214//258
f 212//256 214//258 215//259 203//260
f 212//256 203//260 201//241 200//240
f 215//259 214//258 216//261 217//262
f 215//263 217//264 218//265 219//266
f 215//263 219//266 204//246 203//245
f 219//266 218//265 220//267 221//268
f 219//266 221//268 205//247 204//246
f 221//268 220//267 303//269 222//270
f 221//268 222//270 207//249 205//247
f 223//271 304//272 224//273 213//257
f 223//271 213//257 211//255 210//254
f 224//273 304//272 305//274 225//275
f 224//273 225//275 226//276 216//261
f 224//273 216//261 214//258 213//257
f 226//276 225//277 227//278 228//279
f 226//276 228//279 229//280 230//281
f 226//276 230//281 217//262 216//261
f 230//282 229//283 231//284 232//285
f 230//282 232//285 218//265 217//264
f 232//285 231//284 233//286 234//287
f 232//285 234//287 220//267 218//265
f 234//287 233//286 306//288 307//289
f 234//287 307//289 303//269 220//267
f 235//290 236//291 237//292 227//278
f 235//290 227//278 225//277 305//293
f 240//294 239//295 241//296 242//297
f 240//294 242//297 11//11 309//298
f 242//297 241//296 243//299 244//300
f 242//297 244//300 8//8 11//11
f 244//300 243//299 245//301 246//302
f 244//300 246//302 9//9 8//8
f 246//302 245//301 247//303 248//304
f 246//302 248//304 6//5 9//9
f 248//304 247//303 249//305 250//306
f 248//304 250//306 7//6 6//5
f 250//306 249//305 310//307 251//308
f 250//306 251//308 4//7 7//6
f 312//309 311//310 252//311 253//312
f 312//309 253//312 254//313 238//314
f 254//313 237//292 236//291 238//314
f 254//313 253//312 255//315 256//316
f 254//313 256//316 257//317 237//292
f 257//317 228//279 227//278 237//292
f 257//317 256//316 258//318 259//319
f 257//317 259//319 229//280 228//279
f 259//320 258//318 260//321 261//322
f 259//320 261//322 231//284 229//283
f 261//322 260//321 262//323 263//324
f 261//322 263//324 233//286 231//284
f 263//324 262//323 313//325 314//326
f 263//324 314//326 306//288 233//286
f 315//327 313//325 262//323 264//328
f 315//327 264//328 265//329 308//330
f 265//329 264//328 266//331 267//332
f 265//329 267//332 243//299 241//296
f 265//329 241//296 239//295 308//330
f 267//332 266//331 268//333 269//334
f 267//332 269//334 245//301 243//299
f 269//334 268//333 255//315 270//335
f 269//334 270//335 247//303 245//301
f 270//335 255//315 253//312 252//311
f 270//335 252//311 249//305 247//303
f 268//333 258//318 256//316 255//315
f 268//333 266//331 260//321 258//318
f 266//331 264//328 262//323 260//321
f 252//311 311//310 310//307 249//305
f 309//298 11//11 10//10 316//336
f 316//336 10//10 5//4 272//3
f 164//197 162//194 160//189 158//187
f 69//79 67//77 61//69 60//68
f 60//68 57//65 55//62 54//61
f 10//10 9//9 6//5 5//4
f 320//337 272//3 271//2 317//338
f 322//339 321//340 320//337 317//338
f 271//2 4//7 322//339 317//338
f 326//341 325//342 324//343 323//344
f 329//345 328//346 327//347 318//348
f 327//347 331//349 330//350 318//348
f 330//350 332//351 329//345 318//348
f 327//347 328//346 333//352 319//353
f 333//352 335//354 334//355 319//353
f 334//355 331//349 327//347 319//353
f 337//356 336//357 334//355 335//354
f 23//26 273//25 337//356 335//354
f 333//352 24//27 23//26 335//354
f 333//352 328//346 25//28 24//27
f 328//346 329//345 26//29 25//28
f 329//345 332//351 274//30 26//29
f 332//351 338//358 275//31 274//30
f 339//359 276//33 275//31 338//358
f 341//360 340//361 339//359 338//358
f 332//351 330//350 341//360 338//358
f 343//362 342//363 340//361 341//360
f 330//350 331//349 343//362 341//360
f 336//357 344//364 342//363 343//362
f 331//349 334//355 336//357 343//362
f 346//365 345//366 342//363 344//364
f 348//367 347//368 346//365 344//364
f 336//357 337//356 348//367 344//364
f 38//45 277//44 347//368 348//367
f 337//356 273//25 38//45 348//367
f 350//369 349//370 40//47 278//46
f 41//51 351//371 350//369 278//46
f 353//372 352//373 350//369 351//371
f 355//374 354//375 353//372 351//371
f 41//51 49//56 355//374 351//371
f 279//58 356//376 355//374 49//56
f 358//377 357//378 52//60 53//59
f 39//64 359//379 358//377 53//59
f 39//64 276//33 339//359 359//379
f 361//380 360//381 358//377 359//379
f 339//359 340//361 361//380 359//379
f 345//366 362//382 360//381 361//380
f 340//361 342//363 345//366 361//380
f 364//383 363//384 360//381 362//382
f 366//385 365//386 364//383 362//382
f 345//366 346//365 366//385 362//382
f 368//387 367//388 365//386 366//385
f 346//365 347//368 368//387 366//385
f 281//75 280//74 367//388 368//387
f 347//368 277//44 281//75 368//387
f 349//370 369//389 365//386 367//388
f 280//74 40//47 349//370 367//388
f 370//390 364//383 365//386 369//389
f 352//373 371//391 370//390 369//389
f 349//370 350//369 352//373 369//389
f 373//392 372//393 370//390 371//391
f 375//394 374//395 373//392 371//391
f 352//373 353//372 375//394 371//391
f 377//396 376//397 374//395 375//394
f 353//372 354//375 377//396 375//394
f 379//398 378//399 376//397 377//396
f 354//375 380//400 379//401 377//396
f 382//402 381//403 379//401 380//400
f 356//376 383//404 382//402 380//400
f 354//375 355//374 356//376 380//400
f 385//405 384//406 382//402 383//404
f 84//95 83//94 385//405 383//404
f 356//376 279//58 84//95 383//404
f 387//407 386//408 282//97 283//96
f 51//101 388//409 387//407 283//96
f 51//101 52//60 357//378 388//409
f 372//393 373//392 387//407 388//409
f 357//378 363//384 372//393 388//409
f 373//392 374//395 386//408 387//407
f 389//410 284//102 282//97 386//408
f 374//395 376//397 389//410 386//408
f 390//411 285//104 284//102 389//410
f 376//397 378//399 390//411 389//410
f 391//412 90//106 285//104 390//411
f 378//399 392//413 391//412 390//411
f 394//414 393//415 391//412 392//413
f 381//416 395//417 394//414 392//413
f 378//399 379//398 381//416 392//413
f 397//418 396//419 394//414 395//417
f 384//406 398//420 397//421 395//422
f 381//403 382//402 384//406 395//422
f 400//423 399//424 397//421 398//420
f 402//425 401//426 400//423 398//420
f 384//406 385//405 402//425 398//420
f 104//123 103//122 401//426 402//425
f 385//405 83//94 104//123 402//425
f 393//415 403//427 286//125 105//124
f 90//106 391//412 393//415 105//124
f 404//428 107//127 286//125 403//427
f 396//419 405//429 404//428 403//427
f 393//415 394//414 396//419 403//427
f 407//430 406//431 404//428 405//429
f 399//432 408//433 407//430 405//432
f 396//419 397//418 399//432 405//432
f 410//434 409//435 407//430 408//433
f 412//436 411//437 410//438 408//439
f 399//424 400//423 412//436 408//439
f 414//440 413//441 411//437 412//436
f 400//423 401//426 414//440 412//436
f 288//143 287//142 413//441 414//440
f 401//426 103//122 288//143 414//440
f 406//431 415//442 290//145 289//144
f 107//127 404//428 406//431 289//144
f 416//443 120//147 290//145 415//442
f 409//435 417//444 416//443 415//442
f 406//431 407//430 409//435 415//442
f 419//445 418//446 416//443 417//444
f 421//447 420//448 419//445 417//444
f 409//435 410//434 421//447 417//444
f 423//449 422//450 420//448 421//447
f 410//438 411//437 423//449 421//447
f 425//451 424//452 422//450 423//449
f 411//437 413//441 425//451 423//449
f 291//159 131//158 424//452 425//451
f 413//441 287//142 291//159 425//451
f 418//446 426//453 133//161 132//160
f 120//147 416//443 418//446 132//160
f 428//454 427//455 137//164 292//163
f 138//168 429//456 428//454 292//163
f 431//457 430//458 428//454 429//456
f 433//459 432//460 431//457 429//456
f 138//168 146//173 433//459 429//456
f 293//175 434//461 433//459 146//173
f 436//462 435//463 148//177 149//176
f 135//181 437//464 436//462 149//176
f 135//181 133//161 426//453 437//464
f 439//465 438//466 436//462 437//464
f 426//453 440//467 439//465 437//464
f 426//453 418//446 419//445 440//467
f 442//468 441//469 439//465 440//467
f 419//445 420//448 442//468 440//467
f 444//470 443//471 441//469 442//468
f 420//448 422//450 444//470 442//468
f 446//472 445//473 443//471 444//470
f 422//450 424//452 446//472 444//470
f 296//192 295//191 445//473 446//472
f 424//452 131//158 296//192 446//472
f 447//474 445//473 295//191 297//193
f 136//196 448//475 447//474 297//193
f 450//476 449//477 447//474 448//475
f 427//455 451//478 450//476 448//475
f 136//196 137//164 427//455 448//475
f 453//479 452//480 450//476 451//478
f 430//458 454//481 453//479 451//478
f 427//455 428//454 430//458 451//478
f 456//482 455//483 453//479 454//481
f 458//484 457//485 456//482 454//481
f 430//458 431//457 458//484 454//481
f 460//486 459//487 457//485 458//484
f 431//457 432//460 460//488 458//484
f 462//489 461//490 459//487 460//486
f 432//460 463//491 462//492 460//488
f 465//493 464//494 462//492 463//491
f 434//461 466//495 465//493 463//491
f 432//460 433//459 434//461 463//491
f 468//496 467//497 465//493 466//495
f 185//220 184//219 468//496 466//495
f 434//461 293//175 185//220 466//495
f 470//498 469//499 186//222 298//221
f 294//226 471//500 470//498 298//221
f 294//226 148//177 435//463 471//500
f 455//483 456//482 470//498 471//500
f 435//463 472//501 455//483 471//500
f 435//463 436//462 438//466 472//501
f 452//480 453//479 455//483 472//501
f 438//466 473//502 452//480 472//501
f 438//466 439//465 441//469 473//502
f 449//477 450//476 452//480 473//502
f 441//469 443//471 449//477 473//502
f 456//482 457//485 469//499 470//498
f 474//503 299//229 186//222 469//499
f 457//485 459//487 474//503 469//499
f 475//504 300//231 299//229 474//503
f 459//487 461//490 475//504 474//503
f 476//505 194//233 300//231 475//504
f 461//490 477//506 476//505 475//504
f 479//507 478//508 476//505 477//506
f 464//509 480//510 479//507 477//506
f 461//490 462//489 464//509 477//506
f 482//511 481//512 479//507 480//510
f 467//497 483//513 482//514 480//515
f 464//494 465//493 467//497 480//515
f 485//516 484//517 482//514 483//513
f 487//518 486//519 485//516 483//513
f 467//497 468//496 487//518 483//513
f 301//250 207//249 486//519 487//518
f 468//496 184//219 301//250 487//518
f 478//508 488//520 302//252 208//251
f 194//233 476//505 478//508 208//251
f 489//521 210//254 302//252 488//520
f 481//512 490//522 489//521 488//520
f 478//508 479//507 481//512 488//520
f 492//523 491//524 489//521 490//522
f 484//525 493//526 492//523 490//522
f 481//512 482//511 484//525 490//522
f 495//527 494//528 492//523 493//526
f 497//529 496//530 495//531 493//532
f 484//517 485//516 497//529 493//532
f 499//533 498//534 496//530 497//529
f 485//516 486//519 499//533 497//529
f 222//270 303//269 498//534 499//533
f 486//519 207//249 222//270 499//533
f 491//524 500//535 304//272 223//271
f 210//254 489//521 491//524 223//271
f 501//536 305//274 304//272 500//535
f 494//528 502//537 501//536 500//535
f 491//524 492//523 494//528 500//535
f 504//538 503//539 501//540 502//537
f 506//541 505//542 504//538 502//537
f 494//528 495//527 506//541 502//537
f 508//543 507//544 505//545 506//546
f 495//531 496//530 508//543 506//546
f 510//547 509//548 507//544 508//543
f 496//530 498//534 510//547 508//543
f 307//289 306//288 509//548 510//547
f 498//534 303//269 307//289 510//547
f 503//539 511//549 236//291 235//290
f 305//293 501//540 503//539 235//290
f 513//550 512//551 239//295 240//294
f 309//298 326//341 513//550 240//294
f 515//552 514//553 512//551 513//550
f 326//341 323//344 515//552 513//550
f 517//554 516//555 514//553 515//552
f 323//344 324//343 517//554 515//552
f 519//556 518//557 516//555 517//554
f 324//343 321//340 519//556 517//554
f 521//558 520//559 518//557 519//556
f 321//340 322//339 521//558 519//556
f 251//308 310//307 520//559 521//558
f 322//339 4//7 251//308 521//558
f 523//560 522//561 311//310 312//309
f 238//314 524//562 523//560 312//309
f 238//314 236//291 511//549 524//562
f 526//563 525//564 523//560 524//562
f 511//549 527//565 526//563 524//562
f 511//549 503//539 504//538 527//565
f 529//566 528//567 526//563 527//565
f 504//538 505//542 529//566 527//565
f 531//568 530//569 528//567 529//570
f 505//545 507//544 531//568 529//570
f 533//571 532//572 530//569 531//568
f 507//544 509//548 533//571 531//568
f 314//326 313//325 532//572 533//571
f 509//548 306//288 314//326 533//571
f 534//573 532//572 313//325 315//327
f 308//330 535//574 534//573 315//327
f 537//575 536//576 534//573 535//574
f 512//551 514//553 537//575 535//574
f 308//330 239//295 512//551 535//574
f 539//577 538//578 536//576 537//575
f 514//553 516//555 539//577 537//575
f 540//579 525//564 538//578 539//577
f 516//555 518//557 540//579 539//577
f 522//561 523//560 525//564 540//579
f 518//557 520//559 522//561 540//579
f 525//564 526//563 528//567 538//578
f 528//567 530//569 536//576 538//578
f 530//569 532//572 534//573 536//576
f 520//559 310//307 311//310 522//561
f 316//336 325//342 326//341 309//298
f 272//3 320//337 325//342 316//336
f 443//471 445//473 447//474 449//477
f 363//384 364//383 370//390 372//393
f 357//378 358//377 360//381 363//384
f 320//337 321//340 324//343 325//342
