# pilowlava3D glyph ''' variant 1 — Vincent Wagner / Velvetyne, Free Art License
v 0.02023 0.17283 -0.13735
v 1.30191 1.13050 -0.22703
v 0.64355 1.50508 -0.35418
v 0.00000 0.16356 -0.00000
v 0.01201 0.05856 -0.00000
v 0.05930 0.26783 -0.18573
v 0.09023 0.19826 -0.29162
v 0.02667 0.08112 -0.16849
v 0.23820 0.14132 -0.26406
v 0.23679 0.08584 -0.15255
v 0.10728 0.01747 -0.16100
v 0.15437 0.13777 -0.31504
v 1.34053 1.11741 -0.00000
v 1.23927 0.98644 -0.28077
v 1.10881 1.21544 -0.41868
v 1.20421 1.36012 -0.25298
v 0.60913 1.58871 -0.21341
v 0.93195 1.54581 -0.22568
v 0.88406 1.42931 -0.39775
v 0.77197 1.28080 -0.49118
v 0.52065 1.38836 -0.40755
v 0.36063 1.45122 -0.22891
v 0.44298 1.18331 -0.42214
v 0.28206 1.21613 -0.22935
v 0.31824 1.47880 -0.00000
v 0.94534 1.58003 -0.00000
v 1.23865 1.39830 -0.00000
v 1.00066 0.65737 -0.00000
v 0.95708 0.73027 -0.27470
v 1.10071 0.83638 -0.29250
v 0.84491 0.91660 -0.47249
v 0.97464 1.06286 -0.47370
v 0.66295 1.09381 -0.51106
v 0.71268 0.75863 -0.44845
v 0.55994 0.89427 -0.49719
v 0.38777 0.97693 -0.41599
v 0.45586 0.69598 -0.46755
v 0.31830 0.77363 -0.39636
v 0.19861 0.81525 -0.21733
v 0.24571 1.01063 -0.22314
v 0.14441 0.82696 -0.00000
v 0.15433 0.62326 -0.21114
v 0.71088 0.43892 -0.00000
v 0.68121 0.49021 -0.23061
v 0.81902 0.61527 -0.25100
v 0.58603 0.59681 -0.41641
v 0.53761 0.36049 -0.21217
v 0.46080 0.43407 -0.37953
v 0.35817 0.50922 -0.43274
v 0.33173 0.27077 -0.33154
v 0.25235 0.32387 -0.38771
v 0.17915 0.38388 -0.35086
v 0.25421 0.57830 -0.37662
v 0.11087 0.44070 -0.20936
v 0.40979 0.20180 -0.00000
v 0.56160 0.32068 -0.00000
v 0.38901 0.22732 -0.18911
v 0.38901 0.22732 0.18911
v 0.11087 0.44070 0.20936
v 0.25421 0.57830 0.37662
v 0.17915 0.38388 0.35086
v 0.25235 0.32387 0.38771
v 0.33173 0.27077 0.33154
v 0.35817 0.50922 0.43274
v 0.46080 0.43407 0.37953
v 0.53761 0.36049 0.21217
v 0.58603 0.59681 0.41641
v 0.81902 0.61527 0.25100
v 0.68121 0.49021 0.23061
v 0.15433 0.62326 0.21114
v 0.24571 1.01063 0.22314
v 0.19861 0.81525 0.21733
v 0.31830 0.77363 0.39636
v 0.45586 0.69598 0.46755
v 0.38777 0.97693 0.41599
v 0.55994 0.89427 0.49719
v 0.71268 0.75863 0.44845
v 0.66295 1.09381 0.51106
v 0.97464 1.06286 0.47370
v 0.84491 0.91660 0.47249
v 1.10071 0.83638 0.29250
v 0.95708 0.73027 0.27470
v 0.28206 1.21613 0.22935
v 0.44298 1.18331 0.42214
v 0.36063 1.45122 0.22891
v 0.52065 1.38836 0.40755
v 0.77197 1.28080 0.49118
v 0.88406 1.42931 0.39775
v 0.93195 1.54581 0.22568
v 0.60913 1.58871 0.21341
v 1.20421 1.36012 0.25298
v 1.10881 1.21544 0.41868
v 1.23927 0.98644 0.28077
v 0.15437 0.13777 0.31504
v 0.10728 0.01747 0.16100
v 0.23679 0.08584 0.15255
v 0.23820 0.14132 0.26406
v 0.02667 0.08112 0.16849
v 0.09023 0.19826 0.29162
v 0.05930 0.26783 0.18573
v 0.64355 1.50508 0.35418
v 1.30191 1.13050 0.22703
v 0.02023 0.17283 0.13735
v 0.11139 0.00000 -0.00000
v 0.24625 0.07048 -0.00000
v 0.06531 0.45929 -0.00000
v 0.85658 0.55339 -0.00000
v 0.10413 0.63620 -0.00000
v 0.18588 1.02399 -0.00000
v 1.15042 0.76010 -0.00000
v 0.60272 1.62051 -0.00000
v 0.22208 1.23452 -0.00000
v 1.28429 0.90968 -0.00000
v 0.03119 0.30400 -0.00000
vn -0.96509 0.10939 -0.23799
vn -0.92473 0.21491 -0.31413
vn -0.74619 -0.07189 -0.66184
vn -0.95999 0.02612 -0.27880
vn -0.99744 -0.07152 -0.00106
vn -0.99528 0.09706 0.00235
vn -0.96816 0.25031 0.00357
vn 0.45789 -0.70663 -0.53946
vn 0.53197 -0.80046 -0.27616
vn 0.42225 -0.86088 -0.28388
vn 0.36614 -0.70286 -0.60986
vn 0.91600 0.06423 -0.39601
vn 0.77397 -0.30037 -0.55745
vn 0.50310 0.19044 -0.84299
vn 0.70468 0.52833 -0.47360
vn 0.99941 0.03417 0.00267
vn 0.87137 -0.49063 0.00162
vn -0.10599 0.72218 -0.68353
vn -0.16115 0.91340 -0.37381
vn 0.32332 0.85998 -0.39484
vn 0.21028 0.58275 -0.78498
vn 0.01991 0.24219 -0.97003
vn -0.37175 0.45329 -0.81014
vn -0.66944 0.59680 -0.44235
vn -0.54025 0.18805 -0.82023
vn -0.85521 0.23590 -0.46149
vn -0.96662 0.25622 0.00039
vn -0.93972 0.34195 0.00079
vn -0.46101 0.88740 -0.00122
vn -0.17718 0.98418 -0.00074
vn 0.33826 0.94105 -0.00033
vn 0.77525 0.63165 0.00077
vn 0.66135 -0.75007 0.00001
vn 0.58250 -0.81283 0.00001
vn 0.50496 -0.67666 -0.53586
vn 0.57365 -0.58134 -0.57703
vn 0.27416 -0.32773 -0.90412
vn 0.33743 -0.14292 -0.93044
vn -0.10538 0.02586 -0.99410
vn 0.30596 -0.41127 -0.85863
vn -0.14280 -0.07041 -0.98724
vn -0.60139 0.12994 -0.78832
vn -0.13984 -0.11658 -0.98329
vn -0.63161 0.13053 -0.76422
vn -0.88526 0.20170 -0.41909
vn -0.87821 0.18176 -0.44239
vn -0.97680 0.21415 -0.00002
vn -0.98135 0.19221 -0.00001
vn -0.89475 0.20976 -0.39423
vn -0.97620 0.21686 -0.00007
vn 0.61592 -0.78780 0.00003
vn 0.63571 -0.77192 0.00006
vn 0.58198 -0.68721 -0.43479
vn 0.54553 -0.68299 -0.48571
vn 0.35902 -0.46005 -0.81207
vn 0.59868 -0.70705 -0.37639
vn 0.40704 -0.52080 -0.75039
vn 0.22184 -0.35960 -0.90635
vn 0.46585 -0.60192 -0.64860
vn 0.30284 -0.48814 -0.81854
vn -0.43767 0.05013 -0.89774
vn -0.44912 -0.02070 -0.89323
vn -0.67875 0.10718 -0.72651
vn -0.65162 0.13152 -0.74705
vn -0.90572 0.22623 -0.35845
vn -0.97335 0.22933 0.00065
vn 0.63552 -0.77208 -0.00012
vn 0.63894 -0.76926 -0.00025
vn 0.61912 -0.72379 -0.30466
vn 0.55902 -0.82915 -0.00005
vn 0.46792 -0.88377 0.00009
vn -0.56153 -0.82745 -0.00257
vn -0.56981 -0.71111 -0.41187
vn -0.50980 -0.31678 -0.79985
vn -0.75442 -0.06782 0.65288
vn -0.57715 -0.70537 0.41153
vn -0.51209 -0.30985 0.80110
vn 0.51727 0.18822 0.83487
vn 0.71678 0.52340 0.46074
vn 0.31726 0.85957 0.40060
vn 0.20303 0.58297 0.78672
vn 0.37182 -0.68675 0.62460
vn 0.45271 -0.69801 0.55482
vn 0.45680 -0.59681 0.65966
vn 0.29429 -0.47647 0.82847
vn -0.44875 -0.02119 0.89341
vn -0.67987 0.10666 0.72554
vn 0.53440 -0.79665 0.28243
vn 0.43844 -0.85156 0.28743
vn 0.60151 -0.70407 0.37744
vn 0.40993 -0.51699 0.75145
vn 0.61548 -0.72461 0.31004
vn 0.58245 -0.68686 0.43471
vn -0.89428 0.21031 0.39500
vn -0.90606 0.22643 0.35747
vn -0.92826 0.21063 0.30653
vn -0.63209 0.12982 0.76395
vn -0.88525 0.20170 0.41910
vn -0.65140 0.13142 0.74727
vn -0.14100 -0.11722 0.98305
vn -0.43897 0.04890 0.89717
vn 0.22207 -0.35905 0.90651
vn 0.30764 -0.40763 0.85977
vn -0.14053 -0.06622 0.98786
vn 0.35905 -0.45982 0.81219
vn 0.50478 -0.67652 0.53621
vn 0.27394 -0.32768 0.90420
vn 0.54523 -0.68296 0.48610
vn -0.85468 0.23562 0.46260
vn -0.87813 0.18188 0.44250
vn -0.53918 0.18755 0.82104
vn -0.60095 0.13059 0.78855
vn 0.01897 0.24244 0.96998
vn -0.36723 0.45436 0.81160
vn -0.10456 0.02571 0.99419
vn 0.33513 -0.14660 0.93070
vn 0.78442 -0.30022 0.54273
vn 0.57109 -0.58350 0.57740
vn 0.92493 0.06144 0.37515
vn -0.16101 0.91101 0.37965
vn -0.66550 0.59801 0.44665
vn -0.10591 0.71926 0.68662
vn -0.96790 0.10183 0.22978
vn -0.96491 0.02537 0.26134
f 1//1 6//2 7//3 8//4
f 1//1 8//4 5//5 4//6
f 1//1 4//6 114//7 6//2
f 9//8 10//9 11//10 12//11
f 2//12 14//13 15//14 16//15
f 2//12 13//16 113//17 14//13
f 3//18 17//19 18//20 19//21
f 3//18 19//21 20//22 21//23
f 3//18 21//23 22//24 17//19
f 22//24 21//23 23//25 24//26
f 22//24 24//26 112//27 25//28
f 22//24 25//29 111//30 17//19
f 111//30 26//31 18//20 17//19
f 26//31 27//32 16//15 18//20
f 27//32 13//16 2//12 16//15
f 110//33 28//34 29//35 30//36
f 110//33 30//36 14//13 113//17
f 30//36 29//35 31//37 32//38
f 30//36 32//38 15//14 14//13
f 32//38 31//37 33//39 20//22
f 32//38 20//22 19//21 15//14
f 33//39 31//37 34//40 35//41
f 33//39 35//41 36//42 23//25
f 33//39 23//25 21//23 20//22
f 36//42 35//41 37//43 38//44
f 36//42 38//44 39//45 40//46
f 36//42 40//46 24//26 23//25
f 40//46 39//45 41//47 109//48
f 40//46 109//48 112//27 24//26
f 41//47 39//45 42//49 108//50
f 107//51 43//52 44//53 45//54
f 107//51 45//54 29//35 28//34
f 45//54 44//53 46//55 34//40
f 45//54 34//40 31//37 29//35
f 46//55 44//53 47//56 48//57
f 46//55 48//57 49//58 37//43
f 46//55 37//43 35//41 34//40
f 49//58 48//57 50//59 51//60
f 49//61 51//62 52//63 53//64
f 49//61 53//64 38//44 37//43
f 53//64 52//63 54//65 42//49
f 53//64 42//49 39//45 38//44
f 54//65 52//63 7//3 6//2
f 54//65 6//2 114//7 106//66
f 54//65 106//66 108//50 42//49
f 56//67 55//68 57//69 47//56
f 56//67 47//56 44//53 43//52
f 57//69 55//68 105//70 10//9
f 57//69 10//9 9//8 50//59
f 57//69 50//59 48//57 47//56
f 105//70 104//71 11//10 10//9
f 104//72 5//72 8//73 11//73
f 52//63 51//62 12//74 7//3
f 51//60 50//59 9//8 12//11
f 19//21 18//20 16//15 15//14
f 12//74 11//73 8//73 7//3
f 99//75 98//76 95//76 94//77
f 92//78 91//79 89//80 88//81
f 94//82 97//83 63//84 62//85
f 99//75 94//77 62//86 61//87
f 95//76 98//76 5//72 104//72
f 96//88 95//89 104//71 105//70
f 66//90 65//91 63//84 58//92
f 63//84 97//83 96//88 58//92
f 96//88 105//70 55//68 58//92
f 43//52 69//93 66//90 56//67
f 66//90 58//92 55//68 56//67
f 70//94 108//50 106//66 59//95
f 106//66 114//7 100//96 59//95
f 100//96 99//75 61//87 59//95
f 73//97 72//98 70//94 60//99
f 70//94 59//95 61//87 60//99
f 74//100 73//97 60//99 64//101
f 60//99 61//87 62//86 64//101
f 62//85 63//84 65//91 64//102
f 77//103 76//104 74//100 67//105
f 74//100 64//102 65//91 67//105
f 65//91 66//90 69//93 67//105
f 82//106 80//107 77//103 68//108
f 77//103 67//105 69//93 68//108
f 28//34 82//106 68//108 107//51
f 68//108 69//93 43//52 107//51
f 108//50 70//94 72//98 41//47
f 83//109 112//27 109//48 71//110
f 109//48 41//47 72//98 71//110
f 84//111 83//109 71//110 75//112
f 71//110 72//98 73//97 75//112
f 73//97 74//100 76//104 75//112
f 87//113 86//114 84//111 78//115
f 84//111 75//112 76//104 78//115
f 76//104 77//103 80//107 78//115
f 92//78 88//81 87//113 79//116
f 87//113 78//115 80//107 79//116
f 93//117 92//78 79//116 81//118
f 79//116 80//107 82//106 81//118
f 113//17 93//117 81//118 110//33
f 81//118 82//106 28//34 110//33
f 91//79 102//119 13//16 27//32
f 89//80 91//79 27//32 26//31
f 90//120 89//80 26//31 111//30
f 90//120 111//30 25//29 85//121
f 25//28 112//27 83//109 85//121
f 83//109 84//111 86//114 85//121
f 90//120 85//121 86//114 101//122
f 86//114 87//113 88//81 101//122
f 88//81 89//80 90//120 101//122
f 93//117 113//17 13//16 102//119
f 91//79 92//78 93//117 102//119
f 94//82 95//89 96//88 97//83
f 100//96 114//7 4//6 103//123
f 4//6 5//5 98//124 103//123
f 98//124 99//75 100//96 103//123
