# pilowlava3D glyph 'r' variant 1 — Vincent Wagner / Velvetyne, Free Art License
v 1.91081 2.11381 -0.50231
v 2.01695 1.81857 -0.44318
v 4.00935 0.76159 -0.46696
v 3.87512 0.37329 -0.48089
v 1.05284 0.30104 -0.43154
v 0.55939 0.18473 -0.42481
v 1.11623 2.68929 -0.17016
v 1.24434 2.65796 -0.23368
v 1.16104 2.56215 -0.34521
v 1.01549 2.61724 -0.19079
v 1.12865 2.43807 -0.32104
v 1.05147 2.43418 -0.18435
v 1.79568 1.72224 -0.40032
v 1.69138 1.91712 -0.43648
v 1.50670 2.13260 -0.43361
v 1.63808 2.29728 -0.47558
v 2.22021 2.23807 -0.47990
v 2.26479 2.02223 -0.46494
v 2.13451 1.74433 -0.34388
v 2.05898 1.53265 -0.30815
v 1.99089 1.51919 -0.36588
v 2.32410 1.89418 -0.36572
v 3.85016 0.87643 -0.50823
v 3.95847 1.07759 -0.29910
v 4.15158 0.81952 -0.29502
v 4.14345 0.51072 -0.29544
v 3.95340 0.56763 -0.50154
v 3.75412 0.61763 -0.57808
v 3.70284 0.33406 -0.51303
v 3.98854 0.25058 -0.29996
v 3.73174 0.10883 -0.29286
v 1.17294 0.24899 -0.26584
v 0.87491 0.04839 -0.26156
v 0.82466 0.19930 -0.46157
v 0.71817 0.42601 -0.56351
v 1.00623 0.51715 -0.48628
v 1.20357 0.56374 -0.27843
v 0.53003 0.06885 -0.26069
v 0.26900 0.23761 -0.26136
v 0.42680 0.33154 -0.46613
v 0.32779 0.56844 -0.48883
v 0.62308 0.64795 -0.57918
v 0.12975 0.51913 -0.26514
v 0.08768 0.80659 -0.26833
v 0.27972 0.83310 -0.48875
v 0.00000 1.07704 -0.00000
v 0.07318 1.08158 -0.26343
v 0.00558 1.34708 -0.00000
v 0.00441 1.61517 -0.00000
v 0.06754 1.61512 -0.24095
v 0.07591 1.34873 -0.24966
v 0.21361 1.62868 -0.43507
v 0.23810 1.36479 -0.45517
v 0.25500 1.09960 -0.48023
v 0.46997 1.40380 -0.54211
v 0.51454 1.14260 -0.56803
v 0.56032 0.88776 -0.58157
v 0.77267 1.21232 -0.48377
v 0.84601 0.97484 -0.50240
v 0.91763 0.74650 -0.50239
v 1.04422 1.04770 -0.27510
v 1.12396 0.81419 -0.27550
v 1.21622 0.83731 -0.00000
v 1.28708 0.56530 -0.00000
v 0.89453 0.00000 -0.00000
v 0.52461 0.01194 -0.00000
v 0.05916 2.15767 -0.00000
v 0.02483 1.88711 -0.00000
v 0.10814 2.15793 -0.21982
v 0.08034 1.88472 -0.22908
v 0.21219 2.16290 -0.38396
v 0.20421 1.89496 -0.40664
v 0.35846 2.17005 -0.44290
v 0.38606 1.91467 -0.47577
v 0.42503 1.66150 -0.51262
v 0.57214 1.94382 -0.40443
v 0.63751 1.70208 -0.43172
v 0.70447 1.45679 -0.46173
v 0.77823 1.73795 -0.23851
v 0.86589 1.50567 -0.25395
v 0.95050 1.27503 -0.26437
v 0.75171 1.98936 -0.00000
v 0.11162 2.43006 -0.00000
v 0.21184 2.70439 -0.17934
v 0.14883 2.43006 -0.20473
v 0.26987 2.70257 -0.31642
v 0.23267 2.43330 -0.35483
v 0.36299 2.69206 -0.36257
v 0.34697 2.43293 -0.40381
v 0.45518 2.67795 -0.30965
v 0.46176 2.43486 -0.35068
v 0.50700 2.18893 -0.38235
v 0.54401 2.43313 -0.19565
v 0.61099 2.20386 -0.21562
v 0.69493 1.97188 -0.22718
v 0.53145 2.65853 -0.00000
v 0.40569 3.24777 -0.00000
v 0.41670 3.23943 -0.15503
v 0.29773 2.97707 -0.15756
v 0.45245 3.21587 -0.28245
v 0.34019 2.96681 -0.28594
v 0.52390 3.17349 -0.32891
v 0.42014 2.94151 -0.33300
v 0.59689 3.13212 -0.27707
v 0.49922 2.91379 -0.28025
v 0.63411 3.11183 -0.14004
v 0.53995 2.89715 -0.14439
v 0.51454 2.66490 -0.16680
v 0.79306 3.28418 -0.00000
v 0.74001 3.73519 -0.00000
v 0.55740 3.50119 -0.00000
v 0.75409 3.71034 -0.19494
v 0.56810 3.48540 -0.17043
v 0.79507 3.64606 -0.34371
v 0.60490 3.44440 -0.30738
v 0.85643 3.56398 -0.38497
v 0.67067 3.38321 -0.35235
v 0.92111 3.48015 -0.33283
v 0.74072 3.32311 -0.29929
v 0.97015 3.42099 -0.17829
v 0.78371 3.29022 -0.15373
v 0.98352 3.40446 -0.00000
v 1.19133 3.47391 -0.00000
v 1.17618 3.50578 -0.19957
v 1.39778 3.54873 -0.21271
v 1.40701 3.50256 -0.00000
v 1.13481 3.59157 -0.36425
v 1.37047 3.65638 -0.38500
v 1.60909 3.69318 -0.40271
v 1.62808 3.56834 -0.22078
v 1.07750 3.71204 -0.42094
v 1.32082 3.81944 -0.45369
v 1.56691 3.89143 -0.48131
v 1.81796 3.93901 -0.50214
v 1.84863 3.71713 -0.42129
v 1.25769 3.97550 -0.39374
v 1.51207 4.09028 -0.41462
v 1.77887 4.16272 -0.42842
v 2.04572 4.21357 -0.44259
v 2.07251 3.97131 -0.52213
v 1.46873 4.21884 -0.23166
v 1.74449 4.30906 -0.23576
v 2.02356 4.37388 -0.24317
v 2.30830 4.41184 -0.24864
v 2.31740 4.23991 -0.45088
v 1.72710 4.37295 -0.00000
v 2.01135 4.44482 -0.00000
v 2.30432 4.48638 -0.00000
v 2.59837 4.48402 -0.00000
v 2.59460 4.40556 -0.24464
v 2.89319 4.46668 -0.00000
v 3.20180 4.40753 -0.00000
v 3.18141 4.34623 -0.24435
v 2.88120 4.39429 -0.24680
v 3.14375 4.19429 -0.43803
v 2.86264 4.22783 -0.44945
v 2.58896 4.23757 -0.44941
v 2.84499 3.98235 -0.52561
v 2.58395 3.98938 -0.53024
v 2.32671 3.98860 -0.52793
v 2.57990 3.74764 -0.44295
v 2.33513 3.74648 -0.44014
v 2.09248 3.73486 -0.43399
v 2.33899 3.58588 -0.23998
v 2.10095 3.58271 -0.23571
v 1.86331 3.57473 -0.22999
v 2.10121 3.51357 -0.00000
v 1.86520 3.51129 -0.00000
v 1.63234 3.51079 -0.00000
v 1.20952 4.07786 -0.22377
v 0.96912 3.91070 -0.21573
v 1.01558 3.82401 -0.37423
v 3.76497 4.07594 -0.23048
v 3.48210 4.24358 -0.23836
v 3.69321 3.96519 -0.40880
v 3.42577 4.11107 -0.42552
v 3.59511 3.79812 -0.46105
v 3.35254 3.90138 -0.48814
v 3.10095 3.95828 -0.50747
v 3.29208 3.69811 -0.40428
v 3.06151 3.73131 -0.42062
v 2.82480 3.74459 -0.43551
v 3.03859 3.58357 -0.23125
v 2.81142 3.58877 -0.23677
v 2.57637 3.58730 -0.24050
v 2.33759 3.51322 -0.00000
v 3.24373 3.51083 -0.00000
v 4.15517 3.53346 -0.21609
v 3.99702 3.83278 -0.22149
v 4.07565 3.48322 -0.36099
v 3.91499 3.74982 -0.38667
v 3.97392 3.42330 -0.40126
v 3.81113 3.63911 -0.42951
v 3.86984 3.36209 -0.33741
v 3.71500 3.52591 -0.36148
v 3.51170 3.63563 -0.38446
v 3.64162 3.44803 -0.19848
v 3.45950 3.52961 -0.20980
v 3.25662 3.56893 -0.22118
v 3.44054 3.48708 -0.00000
v 3.76744 3.30522 -0.00000
v 4.24286 2.88068 -0.00000
v 4.25838 3.21812 -0.00000
v 4.21951 2.88218 -0.19645
v 4.23036 3.20925 -0.20802
v 4.15137 2.88953 -0.32277
v 4.15651 3.18882 -0.33816
v 4.05119 2.90496 -0.35871
v 4.05415 3.16912 -0.37566
v 3.95959 2.92003 -0.29779
v 3.95319 3.14946 -0.31583
v 3.89796 2.93196 -0.16165
v 3.87968 3.13608 -0.17608
v 3.78970 3.31763 -0.18669
v 3.82883 2.74157 -0.00000
v 3.87186 2.35459 -0.00000
v 4.10791 2.57568 -0.00000
v 3.86072 2.36829 -0.17288
v 4.09215 2.58396 -0.18164
v 3.82993 2.40704 -0.29829
v 4.03685 2.61397 -0.31124
v 3.77388 2.48202 -0.34003
v 3.95242 2.66660 -0.34493
v 3.72159 2.54987 -0.27672
v 3.88077 2.71027 -0.28138
v 3.69537 2.57814 -0.15159
v 3.83763 2.73558 -0.15127
v 3.68828 2.58339 -0.00000
v 3.49001 2.48446 -0.16451
v 3.25748 2.44531 -0.18903
v 3.24725 2.47015 -0.00000
v 3.51248 2.44369 -0.29307
v 3.27573 2.38712 -0.32619
v 3.02495 2.35989 -0.36163
v 3.00999 2.44072 -0.21607
v 3.54701 2.36305 -0.35028
v 3.29755 2.29134 -0.37714
v 3.04251 2.24299 -0.40555
v 2.78554 2.19337 -0.43587
v 2.76573 2.33755 -0.39798
v 3.31918 2.19460 -0.32740
v 3.06215 2.13226 -0.35186
v 2.81000 2.06285 -0.36533
v 2.56129 1.98479 -0.37100
v 2.52406 2.12984 -0.46126
v 3.07411 2.05356 -0.20069
v 2.82794 1.97523 -0.20315
v 2.59151 1.89265 -0.20118
v 2.37355 1.81083 -0.19275
v 2.60706 1.85080 -0.00000
v 2.39160 1.77487 -0.00000
v 2.21066 1.67914 -0.00000
v 2.19424 1.69875 -0.18161
v 2.12776 1.52920 -0.00000
v 2.15848 1.39016 -0.00000
v 2.14841 1.38615 -0.17403
v 2.11337 1.53345 -0.17537
v 2.30992 1.31584 -0.00000
v 2.83362 0.25787 -0.00000
v 3.10034 0.07963 -0.00000
v 2.68298 0.51596 -0.25602
v 2.87769 0.31978 -0.27305
v 3.13200 0.15181 -0.28403
v 2.98143 0.47784 -0.47945
v 3.21880 0.35935 -0.50638
v 3.47093 0.31863 -0.51525
v 3.43457 0.08480 -0.28772
v 3.42508 0.00028 -0.00000
v 2.75563 1.28403 -0.00000
v 2.53328 1.29398 -0.00000
v 2.74599 1.21867 -0.23670
v 2.51698 1.25155 -0.21159
v 2.30118 1.29789 -0.18393
v 2.47545 1.16547 -0.36431
v 2.26860 1.24741 -0.31419
v 2.11296 1.36136 -0.28696
v 2.22275 1.18018 -0.36536
v 2.06664 1.32414 -0.33904
v 2.18001 1.11490 -0.31478
v 2.01353 1.28333 -0.29638
v 1.88713 1.48882 -0.33471
v 1.98164 1.25896 -0.17978
v 1.82794 1.46497 -0.20075
v 1.69073 1.66784 -0.22927
v 1.56203 1.84737 -0.24548
v 1.64702 1.64321 -0.00000
v 1.36049 1.99453 -0.00000
v 1.40643 2.03538 -0.24474
v 1.03113 2.42126 -0.00000
v 1.22328 2.22487 -0.21680
v 1.28917 2.31615 -0.38726
v 1.38608 2.45383 -0.42136
v 1.47719 2.58598 -0.27202
v 1.72917 2.52631 -0.29153
v 1.75237 2.62899 -0.00000
v 1.99168 2.59973 -0.00000
v 1.97202 2.48780 -0.30549
v 2.24255 2.56720 -0.00000
v 2.22755 2.48062 -0.27699
v 2.49332 2.46029 -0.25504
v 2.49913 2.30745 -0.43494
v 2.75320 2.44615 -0.23649
v 2.75185 2.50478 -0.00000
v 3.00253 2.48206 -0.00000
v 3.33131 2.13331 -0.19076
v 3.59583 2.22968 -0.17733
v 3.57950 2.27691 -0.30513
v 1.00072 2.61769 -0.00000
v 2.30389 0.84846 -0.00000
v 2.14917 1.06810 -0.18824
v 2.32832 0.88444 -0.21186
v 2.36931 0.96183 -0.36540
v 2.57089 0.80993 -0.41659
v 2.50922 0.70506 -0.23586
v 2.77350 0.64329 -0.45352
v 2.64197 0.94489 -0.47552
v 2.87378 0.82888 -0.52594
v 3.09959 0.72663 -0.55768
v 2.94164 1.03929 -0.45315
v 3.16811 0.99444 -0.47803
v 3.38509 0.96518 -0.49414
v 3.31726 0.66214 -0.58003
v 3.60934 0.94408 -0.50929
v 3.53632 0.63726 -0.58601
v 3.41951 1.17339 -0.27015
v 3.67294 1.17496 -0.28913
v 4.21407 0.84644 -0.00000
v 4.21036 0.49816 -0.00000
v 4.04358 0.20034 -0.00000
v 3.19209 1.18159 -0.26214
v 2.96933 1.19943 -0.25231
v 2.70511 1.09564 -0.41365
v 2.42281 1.06052 -0.42236
v 0.22343 0.19461 -0.00000
v 0.06186 0.49356 -0.00000
v 0.01070 0.79632 -0.00000
v 1.13155 1.07928 -0.00000
v 1.22527 0.22472 -0.00000
v 0.93903 1.53376 -0.00000
v 1.03325 1.30735 -0.00000
v 0.84358 1.76055 -0.00000
v 0.18617 2.70531 -0.00000
v 0.65948 2.21217 -0.00000
v 0.57849 2.43018 -0.00000
v 0.28181 2.98017 -0.00000
v 0.54761 2.89224 -0.00000
v 0.63931 3.10858 -0.00000
v 1.18739 4.12186 -0.00000
v 0.95172 3.94698 -0.00000
v 1.44780 4.27003 -0.00000
v 3.78957 4.11272 -0.00000
v 3.50569 4.29280 -0.00000
v 2.80676 3.51631 -0.00000
v 2.57425 3.51402 -0.00000
v 3.03105 3.51587 -0.00000
v 4.18326 3.55211 -0.00000
v 4.02371 3.85969 -0.00000
v 3.61890 3.42211 -0.00000
v 3.86121 3.13450 -0.00000
v 3.88383 2.93672 -0.00000
v 3.48186 2.49542 -0.00000
v 2.83800 1.93122 -0.00000
v 2.63412 0.46097 -0.00000
v 3.75494 0.03309 -0.00000
v 2.97571 1.27866 -0.00000
v 1.79941 1.45114 -0.00000
v 1.50758 1.81667 -0.00000
v 1.19460 2.19014 -0.00000
v 1.51938 2.66298 -0.00000
v 2.49878 2.53412 -0.00000
v 3.33647 2.10303 -0.00000
v 3.60185 2.20752 -0.00000
v 3.08151 2.01430 -0.00000
v 1.28099 2.70445 -0.00000
v 1.11075 2.70792 -0.00000
v 1.96468 1.24668 -0.00000
v 2.13335 1.04493 -0.00000
v 2.46988 0.65950 -0.00000
v 3.43256 1.26758 -0.00000
v 3.70441 1.26185 -0.00000
v 4.01442 1.13857 -0.00000
v 3.19923 1.26986 -0.00000
v 1.91081 2.11381 0.50231
v 2.01695 1.81857 0.44318
v 4.00935 0.76159 0.46696
v 3.87512 0.37329 0.48089
v 1.05284 0.30104 0.43154
v 0.55939 0.18473 0.42481
v 1.11623 2.68929 0.17016
v 1.24434 2.65796 0.23368
v 1.16104 2.56215 0.34521
v 1.01549 2.61724 0.19079
v 1.12865 2.43807 0.32104
v 1.05147 2.43418 0.18435
v 1.79568 1.72224 0.40032
v 1.69138 1.91712 0.43648
v 1.50670 2.13260 0.43361
v 1.63808 2.29728 0.47558
v 2.22021 2.23807 0.47990
v 2.26479 2.02223 0.46494
v 2.13451 1.74433 0.34388
v 2.05898 1.53265 0.30815
v 1.99089 1.51919 0.36588
v 2.32410 1.89418 0.36572
v 3.85016 0.87643 0.50823
v 3.95847 1.07759 0.29910
v 4.15158 0.81952 0.29502
v 4.14345 0.51072 0.29544
v 3.95340 0.56763 0.50154
v 3.75412 0.61763 0.57808
v 3.70284 0.33406 0.51303
v 3.98854 0.25058 0.29996
v 3.73174 0.10883 0.29286
v 1.17294 0.24899 0.26584
v 0.87491 0.04839 0.26156
v 0.82466 0.19930 0.46157
v 0.71817 0.42601 0.56351
v 1.00623 0.51715 0.48628
v 1.20357 0.56374 0.27843
v 0.53003 0.06885 0.26069
v 0.26900 0.23761 0.26136
v 0.42680 0.33154 0.46613
v 0.32779 0.56844 0.48883
v 0.62308 0.64795 0.57918
v 0.12975 0.51913 0.26514
v 0.08768 0.80659 0.26833
v 0.27972 0.83310 0.48875
v 0.07318 1.08158 0.26343
v 0.06754 1.61512 0.24095
v 0.07591 1.34873 0.24966
v 0.21361 1.62868 0.43507
v 0.23810 1.36479 0.45517
v 0.25500 1.09960 0.48023
v 0.46997 1.40380 0.54211
v 0.51454 1.14260 0.56803
v 0.56032 0.88776 0.58157
v 0.77267 1.21232 0.48377
v 0.84601 0.97484 0.50240
v 0.91763 0.74650 0.50239
v 1.04422 1.04770 0.27510
v 1.12396 0.81419 0.27550
v 0.10814 2.15793 0.21982
v 0.08034 1.88472 0.22908
v 0.21219 2.16290 0.38396
v 0.20421 1.89496 0.40664
v 0.35846 2.17005 0.44290
v 0.38606 1.91467 0.47577
v 0.42503 1.66150 0.51262
v 0.57214 1.94382 0.40443
v 0.63751 1.70208 0.43172
v 0.70447 1.45679 0.46173
v 0.77823 1.73795 0.23851
v 0.86589 1.50567 0.25395
v 0.95050 1.27503 0.26437
v 0.21184 2.70439 0.17934
v 0.14883 2.43006 0.20473
v 0.26987 2.70257 0.31642
v 0.23267 2.43330 0.35483
v 0.36299 2.69206 0.36257
v 0.34697 2.43293 0.40381
v 0.45518 2.67795 0.30965
v 0.46176 2.43486 0.35068
v 0.50700 2.18893 0.38235
v 0.54401 2.43313 0.19565
v 0.61099 2.20386 0.21562
v 0.69493 1.97188 0.22718
v 0.41670 3.23943 0.15503
v 0.29773 2.97707 0.15756
v 0.45245 3.21587 0.28245
v 0.34019 2.96681 0.28594
v 0.52390 3.17349 0.32891
v 0.42014 2.94151 0.33300
v 0.59689 3.13212 0.27707
v 0.49922 2.91379 0.28025
v 0.63411 3.11183 0.14004
v 0.53995 2.89715 0.14439
v 0.51454 2.66490 0.16680
v 0.75409 3.71034 0.19494
v 0.56810 3.48540 0.17043
v 0.79507 3.64606 0.34371
v 0.60490 3.44440 0.30738
v 0.85643 3.56398 0.38497
v 0.67067 3.38321 0.35235
v 0.92111 3.48015 0.33283
v 0.74072 3.32311 0.29929
v 0.97015 3.42099 0.17829
v 0.78371 3.29022 0.15373
v 1.17618 3.50578 0.19957
v 1.39778 3.54873 0.21271
v 1.13481 3.59157 0.36425
v 1.37047 3.65638 0.38500
v 1.60909 3.69318 0.40271
v 1.62808 3.56834 0.22078
v 1.07750 3.71204 0.42094
v 1.32082 3.81944 0.45369
v 1.56691 3.89143 0.48131
v 1.81796 3.93901 0.50214
v 1.84863 3.71713 0.42129
v 1.25769 3.97550 0.39374
v 1.51207 4.09028 0.41462
v 1.77887 4.16272 0.42842
v 2.04572 4.21357 0.44259
v 2.07251 3.97131 0.52213
v 1.46873 4.21884 0.23166
v 1.74449 4.30906 0.23576
v 2.02356 4.37388 0.24317
v 2.30830 4.41184 0.24864
v 2.31740 4.23991 0.45088
v 2.59460 4.40556 0.24464
v 3.18141 4.34623 0.24435
v 2.88120 4.39429 0.24680
v 3.14375 4.19429 0.43803
v 2.86264 4.22783 0.44945
v 2.58896 4.23757 0.44941
v 2.84499 3.98235 0.52561
v 2.58395 3.98938 0.53024
v 2.32671 3.98860 0.52793
v 2.57990 3.74764 0.44295
v 2.33513 3.74648 0.44014
v 2.09248 3.73486 0.43399
v 2.33899 3.58588 0.23998
v 2.10095 3.58271 0.23571
v 1.86331 3.57473 0.22999
v 1.20952 4.07786 0.22377
v 0.96912 3.91070 0.21573
v 1.01558 3.82401 0.37423
v 3.76497 4.07594 0.23048
v 3.48210 4.24358 0.23836
v 3.69321 3.96519 0.40880
v 3.42577 4.11107 0.42552
v 3.59511 3.79812 0.46105
v 3.35254 3.90138 0.48814
v 3.10095 3.95828 0.50747
v 3.29208 3.69811 0.40428
v 3.06151 3.73131 0.42062
v 2.82480 3.74459 0.43551
v 3.03859 3.58357 0.23125
v 2.81142 3.58877 0.23677
v 2.57637 3.58730 0.24050
v 4.15517 3.53346 0.21609
v 3.99702 3.83278 0.22149
v 4.07565 3.48322 0.36099
v 3.91499 3.74982 0.38667
v 3.97392 3.42330 0.40126
v 3.81113 3.63911 0.42951
v 3.86984 3.36209 0.33741
v 3.71500 3.52591 0.36148
v 3.51170 3.63563 0.38446
v 3.64162 3.44803 0.19848
v 3.45950 3.52961 0.20980
v 3.25662 3.56893 0.22118
v 4.21951 2.88218 0.19645
v 4.23036 3.20925 0.20802
v 4.15137 2.88953 0.32277
v 4.15651 3.18882 0.33816
v 4.05119 2.90496 0.35871
v 4.05415 3.16912 0.37566
v 3.95959 2.92003 0.29779
v 3.95319 3.14946 0.31583
v 3.89796 2.93196 0.16165
v 3.87968 3.13608 0.17608
v 3.78970 3.31763 0.18669
v 3.86072 2.36829 0.17288
v 4.09215 2.58396 0.18164
v 3.82993 2.40704 0.29829
v 4.03685 2.61397 0.31124
v 3.77388 2.48202 0.34003
v 3.95242 2.66660 0.34493
v 3.72159 2.54987 0.27672
v 3.88077 2.71027 0.28138
v 3.69537 2.57814 0.15159
v 3.83763 2.73558 0.15127
v 3.49001 2.48446 0.16451
v 3.25748 2.44531 0.18903
v 3.51248 2.44369 0.29307
v 3.27573 2.38712 0.32619
v 3.02495 2.35989 0.36163
v 3.00999 2.44072 0.21607
v 3.54701 2.36305 0.35028
v 3.29755 2.29134 0.37714
v 3.04251 2.24299 0.40555
v 2.78554 2.19337 0.43587
v 2.76573 2.33755 0.39798
v 3.31918 2.19460 0.32740
v 3.06215 2.13226 0.35186
v 2.81000 2.06285 0.36533
v 2.56129 1.98479 0.37100
v 2.52406 2.12984 0.46126
v 3.07411 2.05356 0.20069
v 2.82794 1.97523 0.20315
v 2.59151 1.89265 0.20118
v 2.37355 1.81083 0.19275
v 2.19424 1.69875 0.18161
v 2.14841 1.38615 0.17403
v 2.11337 1.53345 0.17537
v 2.68298 0.51596 0.25602
v 2.87769 0.31978 0.27305
v 3.13200 0.15181 0.28403
v 2.98143 0.47784 0.47945
v 3.21880 0.35935 0.50638
v 3.47093 0.31863 0.51525
v 3.43457 0.08480 0.28772
v 2.74599 1.21867 0.23670
v 2.51698 1.25155 0.21159
v 2.30118 1.29789 0.18393
v 2.47545 1.16547 0.36431
v 2.26860 1.24741 0.31419
v 2.11296 1.36136 0.28696
v 2.22275 1.18018 0.36536
v 2.06664 1.32414 0.33904
v 2.18001 1.11490 0.31478
v 2.01353 1.28333 0.29638
v 1.88713 1.48882 0.33471
v 1.98164 1.25896 0.17978
v 1.82794 1.46497 0.20075
v 1.69073 1.66784 0.22927
v 1.56203 1.84737 0.24548
v 1.40643 2.03538 0.24474
v 1.22328 2.22487 0.21680
v 1.28917 2.31615 0.38726
v 1.38608 2.45383 0.42136
v 1.47719 2.58598 0.27202
v 1.72917 2.52631 0.29153
v 1.97202 2.48780 0.30549
v 2.22755 2.48062 0.27699
v 2.49332 2.46029 0.25504
v 2.49913 2.30745 0.43494
v 2.75320 2.44615 0.23649
v 3.33131 2.13331 0.19076
v 3.59583 2.22968 0.17733
v 3.57950 2.27691 0.30513
v 2.14917 1.06810 0.18824
v 2.32832 0.88444 0.21186
v 2.36931 0.96183 0.36540
v 2.57089 0.80993 0.41659
v 2.50922 0.70506 0.23586
v 2.77350 0.64329 0.45352
v 2.64197 0.94489 0.47552
v 2.87378 0.82888 0.52594
v 3.09959 0.72663 0.55768
v 2.94164 1.03929 0.45315
v 3.16811 0.99444 0.47803
v 3.38509 0.96518 0.49414
v 3.31726 0.66214 0.58003
v 3.60934 0.94408 0.50929
v 3.53632 0.63726 0.58601
v 3.41951 1.17339 0.27015
v 3.67294 1.17496 0.28913
v 3.19209 1.18159 0.26214
v 2.96933 1.19943 0.25231
v 2.70511 1.09564 0.41365
v 2.42281 1.06052 0.42236
vn -0.07706 0.89844 -0.43227
vn 0.04339 0.88369 -0.46605
vn -0.07263 0.72091 -0.68921
vn -0.24980 0.70616 -0.66253
vn -0.66933 -0.22429 -0.70830
vn -0.86699 -0.36050 -0.34405
vn -0.93208 -0.10024 -0.34811
vn -0.61686 -0.02634 -0.78663
vn -0.06888 -0.15532 -0.98546
vn 0.15644 -0.30118 -0.94065
vn -0.11025 -0.25736 -0.96001
vn -0.12928 -0.17591 -0.97588
vn -0.20937 -0.09054 -0.97364
vn 0.06605 -0.03090 -0.99734
vn 0.17038 -0.27976 -0.94483
vn 0.58876 -0.51345 -0.62428
vn 0.79962 -0.08970 -0.59377
vn 0.63955 -0.08615 -0.76391
vn 0.33746 -0.66754 -0.66371
vn 0.58568 0.17745 -0.79088
vn 0.30605 0.38381 -0.87122
vn 0.50192 0.69533 -0.51439
vn 0.83804 0.25935 -0.48003
vn 0.85254 -0.24375 -0.46235
vn 0.52768 -0.14544 -0.83690
vn 0.17542 -0.03203 -0.98397
vn 0.42316 -0.43526 -0.79466
vn 0.16508 -0.47567 -0.86399
vn 0.60880 -0.62868 -0.48385
vn 0.24021 -0.83289 -0.49859
vn 0.53046 -0.35023 -0.77198
vn 0.49591 -0.77746 -0.38683
vn 0.23502 -0.88113 -0.41033
vn 0.14012 -0.57784 -0.80404
vn 0.03653 -0.20565 -0.97794
vn 0.52221 -0.00236 -0.85281
vn 0.86953 0.08205 -0.48702
vn 0.89025 -0.08834 -0.44683
vn -0.22650 -0.65115 -0.72437
vn -0.28705 -0.86200 -0.41780
vn -0.66480 -0.59634 -0.44992
vn -0.39969 -0.41633 -0.81665
vn -0.50445 -0.18678 -0.84300
vn -0.01355 -0.04097 -0.99907
vn -0.83354 -0.27574 -0.47872
vn -0.87412 -0.09137 -0.47703
vn -0.54479 -0.06098 -0.83635
vn -0.73419 -0.67894 -0.00096
vn -0.94956 -0.31358 -0.00025
vn -0.99496 -0.10024 0.00016
vn -0.99995 -0.01009 0.00003
vn -0.88461 -0.00837 -0.46625
vn -0.99999 0.00458 0.00002
vn -0.99964 0.02673 -0.00001
vn -0.90077 0.02174 -0.43375
vn -0.89192 0.00463 -0.45217
vn -0.60256 0.04150 -0.79699
vn -0.58792 0.02637 -0.80849
vn -0.56930 0.00887 -0.82208
vn -0.03043 0.11163 -0.99328
vn -0.03321 0.08563 -0.99577
vn -0.02919 0.03082 -0.99910
vn 0.50383 0.21919 -0.83553
vn 0.48732 0.18400 -0.85362
vn 0.48448 0.14155 -0.86327
vn 0.80375 0.30712 -0.50957
vn 0.81658 0.26241 -0.51413
vn 0.93242 0.36138 -0.00003
vn 0.95294 0.30316 -0.00045
vn 0.99769 0.06799 0.00055
vn 0.98975 -0.14277 0.00190
vn 0.55925 -0.82900 -0.00024
vn 0.27061 -0.96269 -0.00046
vn -0.29773 -0.95465 -0.00088
vn -0.99574 0.09215 -0.00004
vn -0.98931 0.14585 -0.00004
vn -0.91825 0.12948 -0.37424
vn -0.90960 0.08020 -0.40768
vn -0.63979 0.11355 -0.76011
vn -0.61921 0.07938 -0.78120
vn -0.37626 0.10389 -0.92067
vn -0.36369 0.08373 -0.92775
vn -0.02344 0.13060 -0.99116
vn 0.33209 0.17724 -0.92645
vn 0.57611 0.24097 -0.78104
vn 0.55014 0.24670 -0.79780
vn 0.52810 0.23435 -0.81621
vn 0.83288 0.32855 -0.44538
vn 0.81955 0.32773 -0.47004
vn 0.80550 0.32942 -0.49260
vn 0.92703 0.37498 0.00003
vn 0.92375 0.38300 0.00001
vn -0.97726 0.21206 0.00001
vn -0.95867 0.28453 -0.00003
vn -0.92571 0.26917 -0.26572
vn -0.92559 0.19376 -0.32518
vn -0.69367 0.23651 -0.68035
vn -0.66615 0.17111 -0.72593
vn -0.41740 0.19235 -0.88813
vn -0.39410 0.14964 -0.90680
vn 0.42327 0.15255 -0.89307
vn 0.49527 0.06599 -0.86623
vn 0.74920 0.04325 -0.66092
vn 0.68061 0.18214 -0.70965
vn 0.61530 0.22831 -0.75450
vn 0.36240 0.16673 -0.91699
vn 0.92428 0.22057 -0.31155
vn 0.87615 0.30657 -0.37199
vn 0.84989 0.32310 -0.41629
vn 0.93879 0.34450 -0.00016
vn 0.93165 0.36337 0.00009
vn 0.92921 0.36956 -0.00001
vn 0.96886 0.24762 -0.00041
vn -0.92963 0.36849 -0.00002
vn -0.88395 0.46758 0.00007
vn -0.86386 0.45679 -0.21234
vn -0.90720 0.35787 -0.22115
vn -0.83532 0.44146 -0.32765
vn -0.87781 0.34416 -0.33318
vn -0.43641 0.21104 -0.87465
vn -0.43891 0.20653 -0.87447
vn 0.50942 -0.10614 -0.85395
vn 0.43150 -0.28705 -0.85523
vn 0.75559 -0.18595 -0.62810
vn 0.80742 -0.50010 -0.31300
vn 0.83420 -0.51912 -0.18609
vn 0.94885 -0.24545 -0.19857
vn 0.96846 0.02951 -0.24743
vn 0.96988 -0.24357 0.00002
vn 0.99905 0.04359 -0.00012
vn 0.84810 -0.52983 -0.00000
vn -0.82121 0.57062 -0.00000
vn -0.74229 0.67008 0.00002
vn -0.70748 0.64223 -0.29498
vn -0.79647 0.55412 -0.24203
vn -0.53437 0.43751 -0.72321
vn -0.76157 0.53081 -0.37182
vn -0.40649 0.20451 -0.89047
vn -0.34199 0.21751 -0.91418
vn 0.30163 -0.39564 -0.86746
vn 0.17093 -0.42341 -0.88967
vn 0.31745 -0.64173 -0.69815
vn 0.49585 -0.57413 -0.65154
vn 0.44460 -0.85129 -0.27861
vn 0.65300 -0.72491 -0.21930
vn 0.44963 -0.89321 0.00007
vn 0.66067 -0.75067 -0.00011
vn 0.24870 -0.90885 -0.33488
vn 0.25050 -0.96812 -0.00008
vn 0.11109 -0.91849 -0.37952
vn 0.10633 -0.99433 -0.00038
vn 0.16695 -0.65409 -0.73776
vn 0.06962 -0.64160 -0.76387
vn 0.01647 -0.62206 -0.78280
vn 0.03870 -0.90946 -0.41399
vn 0.07420 -0.40771 -0.91009
vn -0.10553 -0.06375 -0.99237
vn -0.09242 -0.04741 -0.99459
vn -0.07631 -0.03280 -0.99654
vn -0.00301 -0.60398 -0.79700
vn -0.34524 0.51182 -0.78667
vn -0.25271 0.53495 -0.80621
vn -0.17571 0.54930 -0.81694
vn -0.11711 0.55278 -0.82506
vn -0.04987 -0.02607 -0.99842
vn -0.36687 0.82897 -0.42216
vn -0.25061 0.85841 -0.44758
vn -0.16661 0.86940 -0.46517
vn -0.05185 0.87803 -0.47579
vn -0.03568 0.55536 -0.83084
vn -0.28522 0.95846 -0.00016
vn -0.18952 0.98188 -0.00003
vn -0.06131 0.99812 -0.00005
vn 0.03250 0.99947 -0.00015
vn 0.02715 0.87911 -0.47584
vn 0.11153 0.99376 0.00005
vn 0.25862 0.96598 0.00004
vn 0.22486 0.86390 -0.45067
vn 0.09252 0.87904 -0.46768
vn 0.15363 0.53490 -0.83083
vn 0.06527 0.55342 -0.83034
vn 0.01601 0.55841 -0.82941
vn 0.04020 -0.03362 -0.99863
vn 0.00647 -0.02246 -0.99973
vn -0.01633 -0.02269 -0.99961
vn 0.00498 -0.58594 -0.81034
vn -0.00003 -0.58565 -0.81057
vn 0.00025 -0.59245 -0.80560
vn 0.00461 -0.88662 -0.46248
vn 0.01294 -0.89141 -0.45301
vn 0.01627 -0.89927 -0.43709
vn 0.01074 -0.99994 -0.00002
vn 0.01377 -0.99991 0.00001
vn 0.03304 -0.99945 -0.00011
vn -0.64413 0.76492 0.00005
vn -0.53830 0.84275 0.00003
vn -0.49168 0.77884 -0.38944
vn -0.60009 0.71969 -0.34920
vn -0.43384 0.47978 -0.76262
vn -0.27278 0.24347 -0.93076
vn -0.41133 0.91149 -0.00010
vn 0.43532 0.90028 -0.00000
vn 0.63355 0.77370 0.00005
vn 0.58007 0.70788 -0.40303
vn 0.38992 0.81564 -0.42742
vn 0.38298 0.42226 -0.82160
vn 0.25881 0.49736 -0.82804
vn 0.06696 -0.11242 -0.99140
vn 0.07008 -0.07930 -0.99438
vn 0.06408 -0.05251 -0.99656
vn -0.06344 -0.61585 -0.78531
vn -0.00430 -0.60129 -0.79902
vn 0.01523 -0.59191 -0.80586
vn -0.02512 -0.89223 -0.45088
vn 0.00237 -0.88718 -0.46142
vn 0.00659 -0.88569 -0.46424
vn 0.00083 -1.00000 0.00002
vn 0.00739 -0.99997 -0.00000
vn 0.00380 -0.99999 -0.00001
vn 0.81605 0.57799 -0.00003
vn 0.93876 0.34456 0.00000
vn 0.87957 0.32123 -0.35094
vn 0.75659 0.53387 -0.37757
vn 0.59288 0.18379 -0.78404
vn 0.50093 0.31551 -0.80593
vn 0.32689 0.05943 -0.94319
vn 0.03618 -0.13525 -0.99015
vn -0.35695 -0.30232 -0.88385
vn -0.53810 -0.42747 -0.72644
vn -0.34165 -0.56805 -0.74873
vn -0.17282 -0.61669 -0.76800
vn -0.48602 -0.79594 -0.36093
vn -0.25422 -0.88387 -0.39261
vn -0.09734 -0.89955 -0.42584
vn -0.26191 -0.96509 -0.00008
vn -0.09412 -0.99556 0.00020
vn -0.02387 -0.99971 -0.00008
vn -0.51014 -0.86009 -0.00065
vn 0.99592 0.09025 0.00003
vn 0.97426 -0.22541 0.00000
vn 0.92865 -0.21899 -0.29941
vn 0.94236 0.08217 -0.32435
vn 0.85751 -0.20649 -0.47121
vn 0.64146 0.02757 -0.76666
vn 0.31782 -0.11418 -0.94125
vn 0.34522 -0.01966 -0.93831
vn -0.48359 -0.15287 -0.86184
vn -0.54870 0.05043 -0.83450
vn -0.75414 0.07642 -0.65226
vn -0.69224 -0.20297 -0.69254
vn -0.96175 0.09464 -0.25706
vn -0.91743 -0.26818 -0.29394
vn -0.74012 -0.58517 -0.33136
vn -0.95698 -0.29016 0.00012
vn -0.77621 -0.63048 -0.00006
vn -0.99597 0.08973 -0.00013
vn 0.81580 -0.57834 -0.00007
vn 0.58167 -0.81343 0.00006
vn 0.56353 -0.78900 -0.24476
vn 0.78439 -0.55899 -0.26881
vn 0.53744 -0.75329 -0.37910
vn 0.73516 -0.52679 -0.42665
vn 0.27028 -0.22609 -0.93586
vn 0.23437 -0.32350 -0.91674
vn -0.50530 0.29144 -0.81224
vn -0.33663 0.47617 -0.81237
vn -0.46596 0.65333 -0.59669
vn -0.68160 0.39807 -0.61397
vn -0.57329 0.79557 -0.19599
vn -0.84676 0.48429 -0.22015
vn -0.58659 0.80988 0.00004
vn -0.87389 0.48613 -0.00004
vn -0.27220 0.93802 -0.21453
vn -0.26940 0.96303 -0.00003
vn -0.06482 0.96077 -0.26965
vn -0.05409 0.99854 -0.00021
vn -0.21038 0.75312 -0.62334
vn -0.03232 0.73157 -0.68100
vn 0.04098 0.66130 -0.74900
vn 0.02777 0.94101 -0.33724
vn -0.12807 0.52660 -0.84041
vn 0.01194 0.46859 -0.88334
vn 0.06528 0.36669 -0.92805
vn 0.07552 0.26171 -0.96219
vn 0.17875 -0.41663 -0.89133
vn 0.19417 -0.40575 -0.89312
vn 0.25920 -0.67240 -0.69332
vn 0.23404 -0.66621 -0.70808
vn 0.23433 -0.66616 -0.70805
vn 0.17820 -0.44336 -0.87845
vn 0.24641 -0.67772 -0.69280
vn 0.14119 -0.18877 -0.97182
vn 0.29042 -0.89979 -0.32564
vn 0.29575 -0.88934 -0.34873
vn 0.30958 -0.88224 -0.35471
vn 0.40732 -0.85031 -0.33326
vn 0.32125 -0.94700 0.00002
vn 0.33339 -0.94279 0.00004
vn 0.41861 -0.90817 -0.00025
vn 0.72073 -0.69322 0.00013
vn 0.70703 -0.64625 -0.28717
vn 0.97476 0.22326 -0.00020
vn 0.94986 0.22792 -0.21404
vn 0.96402 -0.10879 -0.24255
vn 0.88615 -0.46340 0.00080
vn -0.64101 -0.76753 -0.00001
vn -0.73950 -0.67316 -0.00005
vn -0.65822 -0.60731 -0.44489
vn -0.56156 -0.67337 -0.48086
vn -0.34172 -0.79106 -0.50740
vn -0.39963 -0.91667 0.00021
vn -0.35982 -0.40100 -0.84245
vn -0.20603 -0.44315 -0.87245
vn -0.03618 -0.47347 -0.88007
vn -0.06134 -0.85592 -0.51346
vn -0.07131 -0.99745 0.00050
vn 0.29586 -0.95523 -0.00012
vn 0.11256 0.99364 0.00049
vn 0.06272 0.99803 0.00049
vn 0.06885 0.90310 -0.42388
vn 0.12435 0.92726 -0.35318
vn 0.32456 0.90542 -0.27363
vn 0.31173 0.95017 0.00045
vn 0.47748 0.84803 -0.22993
vn 0.46872 0.88334 0.00071
vn 0.07356 0.69577 -0.71449
vn 0.25857 0.71690 -0.64745
vn 0.63856 0.46112 -0.61613
vn 0.16919 0.53893 -0.82518
vn 0.49868 0.34800 -0.79386
vn -0.38391 -0.31503 -0.86797
vn -0.44264 -0.31603 -0.83916
vn -0.58385 -0.49091 -0.64663
vn -0.58443 -0.48063 -0.65379
vn -0.23049 -0.29322 -0.92785
vn -0.73449 -0.51963 -0.43648
vn -0.74809 -0.61451 -0.25050
vn -0.76676 -0.56720 -0.30060
vn -0.74563 -0.54747 -0.37988
vn -0.68784 -0.48301 -0.54183
vn -0.70958 -0.56461 -0.42156
vn -0.63235 -0.50073 -0.59110
vn -0.79318 -0.60899 -0.00005
vn -0.79559 -0.60584 0.00005
vn -0.78106 -0.62446 0.00001
vn -0.76010 -0.64980 0.00017
vn -0.69096 -0.59163 -0.41539
vn -0.77606 -0.63066 0.00051
vn -0.91812 -0.39630 -0.00001
vn -0.71577 -0.59873 -0.35943
vn -0.64864 -0.56007 -0.51536
vn -0.61648 -0.52969 -0.58256
vn -0.30555 -0.04388 -0.95116
vn 0.13603 0.67145 -0.72846
vn 0.16561 0.83453 -0.52549
vn 0.15181 0.79136 -0.59220
vn 0.14689 0.57815 -0.80260
vn 0.19423 0.98096 0.00103
vn 0.15210 0.98837 0.00062
vn 0.11305 0.99359 -0.00002
vn 0.07898 0.78056 -0.62007
vn 0.04190 0.54028 -0.84044
vn 0.10608 0.99436 0.00010
vn 0.04528 0.82353 -0.56546
vn -0.01565 0.63004 -0.77641
vn 0.10442 0.99453 -0.00003
vn 0.06635 0.87597 -0.47778
vn 0.02911 0.75248 -0.65797
vn 0.05745 0.91245 -0.40514
vn 0.03578 0.82672 -0.56148
vn 0.07706 0.13093 -0.98839
vn 0.07928 0.99685 0.00006
vn 0.04403 0.99903 0.00002
vn 0.41558 -0.90956 0.00005
vn 0.33672 -0.94160 -0.00004
vn 0.31622 -0.90371 -0.28865
vn 0.39942 -0.88102 -0.25349
vn 0.37994 -0.84542 -0.37537
vn 0.21502 -0.38272 -0.89849
vn 0.31482 -0.94915 0.00002
vn 0.15182 0.98840 0.00319
vn 0.09152 0.99579 0.00555
vn -0.60310 0.79766 0.00195
vn -0.60336 0.79388 -0.07556
vn -0.98463 -0.17464 -0.00072
vn -0.75113 -0.66016 0.00007
vn -0.77375 -0.63349 0.00002
vn -0.71456 -0.64305 -0.27549
vn -0.68770 -0.64243 -0.33815
vn -0.73834 -0.67443 -0.00017
vn -0.54598 -0.46097 -0.69958
vn -0.50214 -0.41820 -0.75695
vn -0.67959 -0.61668 -0.39732
vn -0.74808 -0.66361 -0.00014
vn -0.45046 -0.38994 -0.80314
vn -0.20392 0.09250 -0.97461
vn -0.16831 0.06993 -0.98325
vn -0.12404 0.05061 -0.99099
vn 0.01225 0.58238 -0.81282
vn 0.00965 0.54657 -0.83736
vn -0.00927 0.51890 -0.85479
vn -0.07258 0.03516 -0.99674
vn 0.05621 0.48222 -0.87425
vn 0.00140 0.01516 -0.99988
vn 0.00466 0.85831 -0.51311
vn 0.12951 0.83990 -0.52707
vn 0.00608 0.99998 0.00030
vn 0.17217 0.98507 -0.00041
vn 0.60650 0.79509 -0.00024
vn 0.95550 0.29500 0.00026
vn 0.96380 -0.26663 -0.00062
vn 0.70389 -0.71030 -0.00081
vn 0.03469 0.99940 -0.00003
vn 0.03752 0.86727 -0.49643
vn 0.05270 0.88194 -0.46841
vn 0.04861 0.99882 0.00009
vn 0.02253 0.63285 -0.77395
vn 0.00759 0.48589 -0.87399
vn -0.41140 -0.27513 -0.86893
vn -0.44475 0.81841 0.36386
vn -0.06936 0.74552 0.66287
vn 0.03896 0.89076 0.45280
vn -0.27570 0.91130 0.30582
vn -0.60776 -0.05385 0.79230
vn -0.92365 -0.12522 0.36221
vn -0.86115 -0.36273 0.35617
vn -0.66025 -0.22948 0.71513
vn -0.13046 -0.17546 0.97580
vn -0.11383 -0.24321 0.96327
vn 0.15765 -0.29101 0.94364
vn -0.06209 -0.15546 0.98589
vn -0.21016 -0.09033 0.97349
vn 0.17267 -0.27966 0.94445
vn 0.06894 -0.02978 0.99718
vn 0.62900 -0.07396 0.77388
vn 0.79508 -0.08238 0.60089
vn 0.58702 -0.50606 0.63192
vn 0.33842 -0.66652 0.66425
vn 0.83416 0.25683 0.48807
vn 0.50338 0.69068 0.51919
vn 0.30843 0.37744 0.87316
vn 0.58142 0.17324 0.79494
vn 0.52738 -0.14446 0.83726
vn 0.85012 -0.24065 0.46839
vn 0.18122 -0.03503 0.98282
vn 0.16952 -0.47467 0.86368
vn 0.42564 -0.43311 0.79451
vn 0.60908 -0.62573 0.48732
vn 0.24212 -0.83052 0.50161
vn 0.14092 -0.57843 0.80347
vn 0.23597 -0.87863 0.41512
vn 0.49868 -0.77152 0.39507
vn 0.52462 -0.35290 0.77475
vn 0.51951 -0.01072 0.85440
vn 0.03705 -0.21202 0.97656
vn 0.88291 -0.10209 0.45831
vn 0.86676 0.07524 0.49302
vn -0.39526 -0.41965 0.81711
vn -0.66062 -0.59766 0.45429
vn -0.28171 -0.86182 0.42179
vn -0.22095 -0.65300 0.72441
vn -0.01342 -0.04067 0.99908
vn -0.50434 -0.18646 0.84313
vn -0.83367 -0.27564 0.47856
vn -0.54445 -0.06058 0.83660
vn -0.87395 -0.09121 0.47737
vn -0.88457 -0.00853 0.46634
vn -0.89191 0.00465 0.45219
vn -0.90078 0.02148 0.43374
vn -0.58796 0.02660 0.80845
vn -0.60260 0.04104 0.79698
vn -0.56931 0.00899 0.82208
vn -0.03330 0.08497 0.99583
vn -0.03049 0.11213 0.99323
vn -0.02894 0.03044 0.99912
vn 0.48755 0.18299 0.85371
vn 0.50396 0.21815 0.83572
vn 0.48454 0.14148 0.86325
vn 0.81683 0.26238 0.51376
vn 0.80393 0.30670 0.50954
vn -0.90959 0.08018 0.40771
vn -0.91830 0.12915 0.37424
vn -0.61912 0.07953 0.78126
vn -0.63978 0.11344 0.76014
vn -0.36362 0.08403 0.92775
vn -0.37625 0.10395 0.92067
vn -0.02344 0.13071 0.99114
vn 0.55030 0.24615 0.79786
vn 0.57625 0.24067 0.78103
vn 0.33217 0.17603 0.92665
vn 0.52814 0.23432 0.81619
vn 0.81972 0.32724 0.47009
vn 0.83309 0.32776 0.44557
vn 0.80564 0.32917 0.49254
vn -0.92536 0.19438 0.32546
vn -0.92551 0.26993 0.26565
vn -0.66567 0.17171 0.72623
vn -0.69350 0.23749 0.68018
vn -0.39376 0.14983 0.90692
vn -0.41750 0.19285 0.88798
vn 0.67976 0.18022 0.71095
vn 0.74891 0.04198 0.66134
vn 0.49475 0.06444 0.86664
vn 0.42230 0.15287 0.89347
vn 0.36296 0.16787 0.91656
vn 0.61533 0.22850 0.75442
vn 0.87601 0.30673 0.37220
vn 0.92398 0.22062 0.31240
vn 0.84987 0.32331 0.41616
vn -0.90753 0.35722 0.22087
vn -0.86396 0.45645 0.21266
vn -0.87826 0.34349 0.33268
vn -0.83543 0.44089 0.32813
vn -0.43703 0.21089 0.87437
vn -0.43872 0.20619 0.87465
vn 0.75632 -0.18522 0.62744
vn 0.43120 -0.28644 0.85558
vn 0.51045 -0.10592 0.85336
vn 0.94893 -0.24540 0.19826
vn 0.83450 -0.51855 0.18633
vn 0.80769 -0.49939 0.31346
vn 0.96841 0.02975 0.24759
vn -0.79612 0.55467 0.24193
vn -0.70750 0.64228 0.29481
vn -0.76115 0.53154 0.37163
vn -0.53458 0.43792 0.72280
vn -0.40645 0.20517 0.89034
vn -0.34238 0.21817 0.91388
vn 0.49548 -0.57523 0.65085
vn 0.31713 -0.64312 0.69701
vn 0.17210 -0.42260 0.88982
vn 0.30165 -0.39660 0.86701
vn 0.65223 -0.72578 0.21871
vn 0.44347 -0.85241 0.27702
vn 0.24896 -0.90887 0.33461
vn 0.11052 -0.91854 0.37957
vn 0.16684 -0.65375 0.73809
vn 0.06948 -0.64149 0.76398
vn 0.03789 -0.90970 0.41354
vn 0.01583 -0.62240 0.78254
vn -0.10550 -0.06382 0.99237
vn 0.07406 -0.40634 0.91071
vn -0.09206 -0.04704 0.99464
vn -0.00352 -0.60423 0.79681
vn -0.07654 -0.03298 0.99652
vn -0.25188 0.53587 0.80585
vn -0.34454 0.51265 0.78644
vn -0.17562 0.54938 0.81690
vn -0.04981 -0.02588 0.99842
vn -0.11711 0.55288 0.82499
vn -0.25041 0.85856 0.44741
vn -0.36630 0.82945 0.42171
vn -0.16657 0.86943 0.46512
vn -0.03556 0.55561 0.83068
vn -0.05179 0.87807 0.47572
vn 0.02714 0.87913 0.47581
vn 0.09265 0.87895 0.46784
vn 0.22479 0.86396 0.45060
vn 0.06523 0.55362 0.83021
vn 0.15362 0.53503 0.83075
vn 0.01598 0.55848 0.82936
vn 0.00642 -0.02213 0.99973
vn 0.04011 -0.03317 0.99864
vn -0.01629 -0.02238 0.99962
vn -0.00008 -0.58564 0.81057
vn 0.00499 -0.58584 0.81041
vn 0.00031 -0.59238 0.80566
vn 0.01286 -0.89142 0.45299
vn 0.00452 -0.88663 0.46245
vn 0.01602 -0.89931 0.43702
vn -0.60050 0.71923 0.34943
vn -0.49108 0.77935 0.38918
vn -0.43423 0.47914 0.76281
vn -0.27306 0.24297 0.93081
vn 0.38987 0.81570 0.42735
vn 0.58014 0.70777 0.40311
vn 0.25868 0.49771 0.82787
vn 0.38289 0.42251 0.82151
vn 0.06950 -0.07777 0.99455
vn 0.06683 -0.11261 0.99139
vn 0.06392 -0.05220 0.99659
vn -0.00479 -0.60070 0.79946
vn -0.06393 -0.61514 0.78582
vn 0.01524 -0.59186 0.80589
vn 0.00233 -0.88717 0.46143
vn -0.02531 -0.89207 0.45119
vn 0.00661 -0.88569 0.46423
vn 0.75662 0.53378 0.37764
vn 0.87961 0.32115 0.35092
vn 0.50095 0.31464 0.80626
vn 0.59269 0.18309 0.78434
vn 0.03704 -0.13535 0.99011
vn 0.32620 0.05818 0.94351
vn -0.34081 -0.56595 0.75070
vn -0.53855 -0.42632 0.72679
vn -0.35725 -0.30014 0.88447
vn -0.17261 -0.61702 0.76778
vn -0.25400 -0.88393 0.39262
vn -0.48576 -0.79554 0.36216
vn -0.09755 -0.89958 0.42572
vn 0.94234 0.08225 0.32439
vn 0.92868 -0.21905 0.29928
vn 0.64156 0.02755 0.76657
vn 0.85760 -0.20666 0.47098
vn 0.34552 -0.01993 0.93820
vn 0.31742 -0.11371 0.94144
vn -0.69181 -0.20408 0.69264
vn -0.75407 0.07697 0.65227
vn -0.54887 0.05145 0.83432
vn -0.48309 -0.15392 0.86193
vn -0.91727 -0.26864 0.29403
vn -0.96176 0.09431 0.25716
vn -0.74019 -0.58514 0.33126
vn 0.78432 -0.55899 0.26902
vn 0.56331 -0.78899 0.24533
vn 0.73478 -0.52689 0.42717
vn 0.53679 -0.75327 0.38006
vn 0.26727 -0.22409 0.93720
vn 0.23295 -0.32278 0.91736
vn -0.68279 0.39830 0.61250
vn -0.46532 0.65327 0.59725
vn -0.33614 0.47539 0.81303
vn -0.50776 0.29240 0.81036
vn -0.84699 0.48402 0.21983
vn -0.57305 0.79570 0.19616
vn -0.27195 0.93808 0.21461
vn -0.06273 0.96095 0.26953
vn -0.21027 0.75319 0.62329
vn -0.03282 0.73177 0.68076
vn 0.02998 0.94115 0.33665
vn 0.04337 0.66140 0.74877
vn 0.01032 0.46930 0.88298
vn -0.12715 0.52708 0.84025
vn 0.06584 0.36597 0.92829
vn 0.08097 0.26208 0.96164
vn 0.23275 -0.66660 0.70814
vn 0.25838 -0.67281 0.69323
vn 0.19408 -0.40560 0.89321
vn 0.17756 -0.41691 0.89143
vn 0.17840 -0.44363 0.87827
vn 0.23437 -0.66631 0.70788
vn 0.13875 -0.18726 0.97246
vn 0.24701 -0.67729 0.69301
vn 0.29567 -0.88938 0.34870
vn 0.28992 -0.89995 0.32564
vn 0.30979 -0.88225 0.35450
vn 0.40743 -0.84976 0.33452
vn 0.70739 -0.64418 0.29092
vn 0.96385 -0.10747 0.24379
vn 0.95048 0.22696 0.21232
vn -0.56256 -0.67203 0.48156
vn -0.65786 -0.60726 0.44547
vn -0.34208 -0.79068 0.50775
vn -0.20691 -0.44163 0.87301
vn -0.36005 -0.39937 0.84313
vn -0.06132 -0.85607 0.51321
vn -0.03628 -0.47394 0.87981
vn 0.12790 0.92608 0.35499
vn 0.07081 0.90273 0.42435
vn 0.32478 0.90540 0.27344
vn 0.47622 0.84920 0.22819
vn 0.26264 0.71350 0.64957
vn 0.07764 0.69384 0.71593
vn 0.63785 0.45989 0.61778
vn 0.49584 0.34260 0.79798
vn 0.17321 0.53107 0.82943
vn -0.58017 -0.48279 0.65599
vn -0.58398 -0.49041 0.64689
vn -0.44081 -0.31950 0.83881
vn -0.37183 -0.32105 0.87102
vn -0.22137 -0.28358 0.93305
vn -0.76593 -0.56911 0.29911
vn -0.74973 -0.61252 0.25045
vn -0.73163 -0.52590 0.43377
vn -0.68404 -0.48969 0.54064
vn -0.74391 -0.55024 0.37926
vn -0.63322 -0.49902 0.59162
vn -0.70984 -0.56406 0.42186
vn -0.68972 -0.59242 0.41633
vn -0.71807 -0.59139 0.36693
vn -0.65103 -0.54517 0.52816
vn -0.61475 -0.53017 0.58395
vn -0.31154 -0.04669 0.94909
vn 0.16358 0.83619 0.52348
vn 0.12808 0.67817 0.72366
vn 0.15110 0.57438 0.80452
vn 0.15455 0.78956 0.59389
vn 0.09279 0.77822 0.62110
vn 0.06985 0.53501 0.84195
vn 0.05852 0.82551 0.56134
vn 0.01230 0.63726 0.77055
vn 0.07040 0.87596 0.47723
vn 0.03677 0.75290 0.65711
vn 0.03375 0.82649 0.56194
vn 0.05621 0.91239 0.40545
vn 0.07163 0.13260 0.98858
vn 0.39902 -0.88124 0.25337
vn 0.31546 -0.90406 0.28837
vn 0.37940 -0.84582 0.37503
vn 0.21550 -0.38329 0.89814
vn -0.71559 -0.64152 0.27637
vn -0.68777 -0.64219 0.33847
vn -0.54620 -0.46060 0.69965
vn -0.67812 -0.61790 0.39794
vn -0.50204 -0.41821 0.75700
vn -0.44959 -0.39034 0.80343
vn -0.16561 0.06804 0.98384
vn -0.20708 0.09458 0.97374
vn -0.12251 0.05013 0.99120
vn 0.01158 0.54604 0.83768
vn 0.01426 0.58159 0.81335
vn -0.07337 0.03647 0.99664
vn -0.00856 0.51968 0.85432
vn 0.00099 0.01561 0.99988
vn 0.05651 0.48322 0.87367
vn 0.12988 0.84057 0.52590
vn 0.00534 0.85860 0.51262
vn 0.03847 0.86721 0.49645
vn 0.05240 0.88219 0.46797
vn 0.02236 0.63306 0.77378
vn 0.00703 0.48517 0.87439
vn -0.41217 -0.27532 0.86851
f 7//1 8//2 9//3 10//4
f 11//5 12//6 10//7 9//8
f 1//9 2//10 13//11 14//12
f 1//9 14//12 15//13 16//13
f 1//9 17//14 18//15 2//10
f 2//10 19//16 20//17 21//18
f 2//10 18//15 22//19 19//16
f 3//20 23//21 24//22 25//23
f 3//20 25//23 26//24 27//25
f 3//20 27//25 28//26 23//21
f 4//27 29//28 28//26 27//25
f 4//27 27//25 26//24 30//29
f 4//27 30//29 31//30 29//28
f 5//31 32//32 33//33 34//34
f 5//31 34//34 35//35 36//36
f 5//31 36//36 37//37 32//38
f 6//39 38//40 39//41 40//42
f 6//39 40//42 35//35 34//34
f 6//39 34//34 33//33 38//40
f 40//42 41//43 42//44 35//35
f 40//42 39//41 43//45 41//43
f 43//45 44//46 45//47 41//43
f 43//45 39//41 334//48 335//49
f 43//45 335//49 336//50 44//46
f 336//50 46//51 47//52 44//46
f 48//53 49//54 50//55 51//56
f 48//53 51//56 47//52 46//51
f 51//56 50//55 52//57 53//58
f 51//56 53//58 54//59 47//52
f 54//59 53//58 55//60 56//61
f 54//59 56//61 57//62 45//47
f 54//59 45//47 44//46 47//52
f 57//62 56//61 58//63 59//64
f 57//62 59//64 60//65 42//44
f 57//62 42//44 41//43 45//47
f 60//65 59//64 61//66 62//67
f 60//65 62//67 37//37 36//36
f 60//65 36//36 35//35 42//44
f 62//67 61//66 337//68 63//69
f 62//67 63//69 64//70 37//37
f 64//70 338//71 32//38 37//37
f 338//72 65//73 33//33 32//32
f 65//73 66//74 38//40 33//33
f 66//74 334//48 39//41 38//40
f 68//75 67//76 69//77 70//78
f 68//75 70//78 50//55 49//54
f 70//78 69//77 71//79 72//80
f 70//78 72//80 52//57 50//55
f 72//80 71//79 73//81 74//82
f 72//80 74//82 75//83 52//57
f 75//83 74//84 76//85 77//86
f 75//83 77//86 78//87 55//60
f 75//83 55//60 53//58 52//57
f 78//87 77//86 79//88 80//89
f 78//87 58//63 56//61 55//60
f 81//90 80//89 339//91 340//92
f 81//90 340//92 337//68 61//66
f 81//90 61//66 59//64 58//63
f 81//90 58//63 78//87 80//89
f 83//93 342//94 84//95 85//96
f 83//93 85//96 69//77 67//76
f 85//96 84//95 86//97 87//98
f 85//96 87//98 71//79 69//77
f 87//98 86//97 88//99 89//100
f 87//98 89//100 73//81 71//79
f 89//101 88//102 90//103 91//104
f 89//101 91//104 92//105 73//106
f 92//105 91//104 93//107 94//108
f 92//105 94//108 95//109 76//85
f 92//105 76//85 74//84 73//106
f 95//109 94//108 343//110 82//111
f 95//109 82//111 341//112 79//88
f 95//109 79//88 77//86 76//85
f 343//110 94//108 93//107 344//113
f 345//114 97//115 98//116 99//117
f 345//114 99//117 84//95 342//94
f 99//117 98//116 100//118 101//119
f 99//117 101//119 86//97 84//95
f 101//120 100//121 102//121 103//120
f 101//120 103//120 88//99 86//97
f 103//122 102//123 104//123 105//124
f 103//122 105//124 90//103 88//102
f 105//124 104//125 106//126 107//127
f 105//124 107//127 108//128 90//103
f 108//128 107//127 346//129 96//130
f 108//128 96//130 344//113 93//107
f 108//128 93//107 91//104 90//103
f 346//129 107//127 106//126 347//131
f 111//132 110//133 112//134 113//135
f 111//132 113//135 98//116 97//115
f 113//135 112//134 114//136 115//137
f 113//135 115//137 100//118 98//116
f 115//138 114//136 116//139 117//138
f 115//138 117//138 102//121 100//121
f 117//140 116//141 118//142 119//143
f 117//140 119//143 104//123 102//123
f 119//143 118//142 120//144 121//145
f 119//143 121//145 106//126 104//125
f 121//145 120//144 122//146 109//147
f 121//145 109//147 347//131 106//126
f 122//146 120//144 124//148 123//149
f 124//148 125//150 126//151 123//149
f 124//148 120//144 118//142 127//152
f 124//148 127//152 128//153 125//150
f 128//153 129//154 130//155 125//150
f 128//153 127//152 131//156 132//157
f 128//153 132//157 133//158 129//154
f 133//158 134//159 135//160 129//154
f 133//158 132//157 136//161 137//162
f 133//158 137//162 138//163 134//159
f 138//163 139//164 140//165 134//159
f 138//163 137//162 141//166 142//167
f 138//163 142//167 143//168 139//164
f 143//168 144//169 145//170 139//164
f 143//168 142//167 146//171 147//172
f 143//168 147//172 148//173 144//169
f 148//173 149//174 150//175 144//169
f 151//176 152//177 153//178 154//179
f 151//176 154//179 150//175 149//174
f 154//179 153//178 155//180 156//181
f 154//179 156//181 157//182 150//175
f 157//182 156//181 158//183 159//184
f 157//182 159//184 160//185 145//170
f 157//182 145//170 144//169 150//175
f 160//185 159//184 161//186 162//187
f 160//185 162//187 163//188 140//165
f 160//185 140//165 139//164 145//170
f 163//188 162//187 164//189 165//190
f 163//188 165//190 166//191 135//160
f 163//188 135//160 134//159 140//165
f 166//191 165//190 167//192 168//193
f 166//191 168//193 169//194 130//155
f 166//191 130//155 129//154 135//160
f 169//194 126//151 125//150 130//155
f 349//195 348//196 170//197 171//198
f 349//195 171//198 112//134 110//133
f 171//198 170//197 136//161 172//199
f 171//198 172//199 114//136 112//134
f 172//199 136//161 132//157 131//200
f 172//199 131//200 116//139 114//136
f 170//197 141//166 137//162 136//161
f 170//197 348//196 350//201 141//166
f 350//201 146//171 142//167 141//166
f 352//202 351//203 173//204 174//205
f 352//202 174//205 153//178 152//177
f 174//205 173//204 175//206 176//207
f 174//205 176//207 155//180 153//178
f 176//207 175//206 177//208 178//209
f 176//207 178//209 179//210 155//180
f 179//210 178//209 180//211 181//212
f 179//210 181//212 182//213 158//183
f 179//210 158//183 156//181 155//180
f 182//213 181//212 183//214 184//215
f 182//213 184//215 185//216 161//186
f 182//213 161//186 159//184 158//183
f 185//216 184//215 353//217 354//218
f 185//216 354//218 186//219 164//189
f 185//216 164//189 162//187 161//186
f 186//219 167//192 165//190 164//189
f 357//220 356//221 188//222 189//223
f 357//220 189//223 173//204 351//203
f 189//223 188//222 190//224 191//225
f 189//223 191//225 175//206 173//204
f 191//225 190//224 192//226 193//227
f 191//225 193//227 177//208 175//206
f 193//227 192//228 194//229 195//230
f 193//227 195//230 196//231 177//208
f 196//231 195//230 197//232 198//233
f 196//231 198//233 199//234 180//211
f 196//231 180//211 178//209 177//208
f 199//234 198//233 200//235 187//236
f 199//234 187//236 355//237 183//214
f 199//234 183//214 181//212 180//211
f 200//235 198//233 197//232 358//238
f 203//239 202//240 204//241 205//242
f 203//239 205//242 188//222 356//221
f 205//242 204//241 206//243 207//244
f 205//242 207//244 190//224 188//222
f 207//244 206//245 208//245 209//246
f 207//244 209//246 192//226 190//224
f 209//247 208//248 210//249 211//250
f 209//247 211//250 194//229 192//228
f 211//250 210//249 212//251 213//252
f 211//250 213//252 214//253 194//229
f 214//253 213//252 359//254 201//255
f 214//253 201//255 358//238 197//232
f 214//253 197//232 195//230 194//229
f 359//254 213//252 212//251 360//256
f 217//257 216//258 218//259 219//260
f 217//257 219//260 204//241 202//240
f 219//260 218//259 220//261 221//262
f 219//260 221//262 206//243 204//241
f 221//263 220//264 222//264 223//263
f 221//263 223//263 208//245 206//245
f 223//265 222//266 224//267 225//268
f 223//265 225//268 210//249 208//248
f 225//268 224//267 226//269 227//270
f 225//268 227//270 212//251 210//249
f 227//270 226//269 228//271 215//272
f 227//270 215//272 360//256 212//251
f 228//271 226//269 229//273 361//274
f 229//273 230//275 231//276 361//274
f 229//273 226//269 224//267 232//277
f 229//273 232//277 233//278 230//275
f 233//278 234//279 235//280 230//275
f 233//278 232//277 236//281 237//282
f 233//278 237//282 238//283 234//279
f 238//283 239//284 240//284 234//279
f 238//285 237//286 241//287 242//288
f 238//285 242//288 243//289 239//290
f 243//289 244//291 245//292 239//290
f 243//289 242//288 246//293 247//294
f 243//289 247//294 248//295 244//291
f 248//295 249//296 22//19 244//291
f 248//295 247//294 362//297 250//298
f 248//295 250//298 251//299 249//296
f 251//299 252//300 253//301 249//296
f 254//302 255//302 256//303 257//304
f 254//305 257//304 253//301 252//300
f 259//306 363//307 261//308 262//309
f 259//306 262//309 263//310 260//311
f 263//310 262//309 264//312 265//313
f 263//310 265//313 266//314 267//315
f 263//310 267//315 268//316 260//311
f 268//316 267//315 31//30 364//317
f 270//318 269//319 271//320 272//321
f 270//318 272//321 273//322 258//323
f 273//322 256//324 255//325 258//323
f 273//322 272//321 274//326 275//327
f 273//322 275//327 276//328 256//324
f 276//328 20//17 257//304 256//303
f 276//328 275//327 277//329 278//330
f 276//328 278//330 21//18 20//17
f 278//331 277//332 279//333 280//334
f 278//331 280//334 281//335 21//335
f 281//335 13//11 2//10 21//335
f 281//336 280//334 282//337 283//338
f 281//336 283//338 284//339 13//340
f 284//339 285//341 14//342 13//340
f 284//339 283//338 366//343 286//344
f 284//339 286//344 367//345 285//341
f 367//345 287//346 288//347 285//341
f 368//348 289//349 12//6 290//350
f 368//348 290//350 288//347 287//346
f 290//350 12//6 11//5 291//351
f 290//350 291//351 15//352 288//347
f 291//353 11//5 9//8 292//353
f 291//353 292//353 16//13 15//13
f 292//354 9//3 8//2 293//355
f 292//354 293//355 294//356 16//357
f 294//356 293//355 369//358 295//359
f 294//356 295//359 296//360 297//361
f 294//356 297//361 1//362 16//357
f 297//361 296//360 298//363 299//364
f 297//361 299//364 17//365 1//362
f 299//364 298//363 370//366 300//367
f 299//364 300//367 301//368 17//365
f 301//368 300//367 302//369 240//370
f 301//371 240//284 239//284 245//292
f 301//371 245//292 18//15 17//14
f 302//369 300//367 370//366 303//372
f 302//369 303//372 304//373 235//280
f 302//369 235//280 234//279 240//370
f 304//373 231//276 230//275 235//280
f 372//374 371//375 305//376 306//377
f 372//374 306//377 218//259 216//258
f 306//377 305//376 241//287 307//378
f 306//377 307//378 220//261 218//259
f 307//379 241//287 237//286 236//379
f 307//379 236//379 222//264 220//264
f 305//376 246//293 242//288 241//287
f 305//376 371//375 373//380 246//293
f 373//380 362//297 247//294 246//293
f 374//381 369//358 293//355 8//2
f 374//381 8//2 7//1 375//382
f 375//383 7//384 10//384 308//383
f 308//385 10//7 12//6 289//349
f 377//386 376//387 282//337 310//388
f 377//386 310//388 311//389 309//390
f 311//389 310//388 279//333 312//391
f 311//389 312//391 313//392 314//393
f 311//389 314//393 378//394 309//390
f 314//393 313//392 315//395 261//308
f 314//393 261//308 363//307 378//394
f 315//395 313//392 316//396 317//397
f 315//395 317//397 318//398 264//312
f 315//395 264//312 262//309 261//308
f 318//398 317//397 319//399 320//400
f 318//398 320//400 321//401 322//402
f 318//398 322//402 265//313 264//312
f 322//402 321//401 323//403 324//404
f 322//402 324//404 266//314 265//313
f 324//404 323//403 23//21 28//26
f 324//404 28//26 29//28 266//314
f 323//403 321//401 325//405 326//406
f 323//403 326//406 24//22 23//21
f 326//406 325//405 379//407 380//408
f 326//406 380//408 381//409 24//22
f 381//409 327//410 25//23 24//22
f 327//410 328//411 26//24 25//23
f 328//411 329//412 30//29 26//24
f 329//412 364//317 31//30 30//29
f 382//413 379//407 325//405 330//414
f 382//413 330//414 331//415 365//416
f 331//415 271//320 269//319 365//416
f 331//415 330//414 320//400 319//399
f 331//415 319//399 332//417 271//320
f 332//417 274//326 272//321 271//320
f 332//417 319//399 317//397 316//396
f 332//417 316//396 333//418 274//326
f 333//418 277//329 275//327 274//326
f 333//419 316//396 313//392 312//391
f 333//419 312//391 279//333 277//332
f 330//414 325//405 321//401 320//400
f 310//388 282//337 280//334 279//333
f 376//387 366//343 283//338 282//337
f 288//347 15//352 14//342 285//341
f 267//315 266//314 29//28 31//30
f 257//304 20//17 19//16 253//301
f 253//301 19//16 22//19 249//296
f 245//292 244//291 22//19 18//15
f 236//281 232//277 224//267 222//266
f 355//237 353//217 184//215 183//214
f 131//156 127//152 118//142 116//141
f 341//112 339//91 80//89 79//88
f 392//420 391//421 390//422 389//423
f 391//424 392//425 394//426 393//427
f 396//428 395//429 384//430 383//431
f 398//432 397//432 396//428 383//431
f 384//430 400//433 399//434 383//431
f 403//435 402//436 401//437 384//430
f 401//437 404//438 400//433 384//430
f 407//439 406//440 405//441 385//442
f 409//443 408//444 407//439 385//442
f 405//441 410//445 409//443 385//442
f 409//443 410//445 411//446 386//447
f 412//448 408//444 409//443 386//447
f 411//446 413//449 412//448 386//447
f 416//450 415//451 414//452 387//453
f 418//454 417//455 416//450 387//453
f 414//456 419//457 418//454 387//453
f 422//458 421//459 420//460 388//461
f 416//450 417//455 422//458 388//461
f 420//460 415//451 416//450 388//461
f 417//455 424//462 423//463 422//458
f 423//463 425//464 421//459 422//458
f 423//463 427//465 426//466 425//464
f 335//49 334//48 421//459 425//464
f 426//466 336//50 335//49 425//464
f 426//466 428//467 46//51 336//50
f 430//468 429//469 49//54 48//53
f 46//51 428//467 430//468 48//53
f 432//470 431//471 429//469 430//468
f 428//467 433//472 432//470 430//468
f 435//473 434//474 432//470 433//472
f 427//465 436//475 435//473 433//472
f 428//467 426//466 427//465 433//472
f 438//476 437//477 435//473 436//475
f 424//462 439//478 438//476 436//475
f 427//465 423//463 424//462 436//475
f 441//479 440//480 438//476 439//478
f 418//454 419//457 441//479 439//478
f 424//462 417//455 418//454 439//478
f 63//69 337//68 440//480 441//479
f 419//457 64//70 63//69 441//479
f 419//457 414//456 338//71 64//70
f 414//452 415//451 65//73 338//72
f 415//451 420//460 66//74 65//73
f 420//460 421//459 334//48 66//74
f 443//481 442//482 67//76 68//75
f 49//54 429//469 443//481 68//75
f 445//483 444//484 442//482 443//481
f 429//469 431//471 445//483 443//481
f 447//485 446//486 444//484 445//483
f 431//471 448//487 447//485 445//483
f 450//488 449//489 447//490 448//487
f 434//474 451//491 450//488 448//487
f 431//471 432//470 434//474 448//487
f 453//492 452//493 450//488 451//491
f 434//474 435//473 437//477 451//491
f 340//92 339//91 453//492 454//494
f 440//480 337//68 340//92 454//494
f 437//477 438//476 440//480 454//494
f 453//492 451//491 437//477 454//494
f 456//495 455//496 342//94 83//93
f 67//76 442//482 456//495 83//93
f 458//497 457//498 455//496 456//495
f 442//482 444//484 458//497 456//495
f 460//499 459//500 457//498 458//497
f 444//484 446//486 460//499 458//497
f 462//501 461//502 459//503 460//504
f 446//505 463//506 462//501 460//504
f 465//507 464//508 462//501 463//506
f 449//489 466//509 465//507 463//506
f 446//505 447//490 449//489 463//506
f 82//111 343//110 465//507 466//509
f 452//493 341//112 82//111 466//509
f 449//489 450//488 452//493 466//509
f 344//113 464//508 465//507 343//110
f 468//510 467//511 97//115 345//114
f 342//94 455//496 468//510 345//114
f 470//512 469//513 467//511 468//510
f 455//496 457//498 470//512 468//510
f 472//514 471//515 469//515 470//514
f 457//498 459//500 472//514 470//514
f 474//516 473//517 471//517 472//518
f 459//503 461//502 474//516 472//518
f 476//519 475//520 473//521 474//516
f 461//502 477//522 476//519 474//516
f 96//130 346//129 476//519 477//522
f 464//508 344//113 96//130 477//522
f 461//502 462//501 464//508 477//522
f 347//131 475//520 476//519 346//129
f 479//523 478//524 110//133 111//132
f 97//115 467//511 479//523 111//132
f 481//525 480//526 478//524 479//523
f 467//511 469//513 481//525 479//523
f 483//527 482//528 480//526 481//527
f 469//515 471//515 483//527 481//527
f 485//529 484//530 482//531 483//532
f 471//517 473//517 485//529 483//532
f 487//533 486//534 484//530 485//529
f 473//521 475//520 487//533 485//529
f 109//147 122//146 486//534 487//533
f 475//520 347//131 109//147 487//533
f 123//149 488//535 486//534 122//146
f 123//149 126//151 489//536 488//535
f 490//537 484//530 486//534 488//535
f 489//536 491//538 490//537 488//535
f 489//536 493//539 492//540 491//538
f 495//541 494//542 490//537 491//538
f 492//540 496//543 495//541 491//538
f 492//540 498//544 497//545 496//543
f 500//546 499//547 495//541 496//543
f 497//545 501//548 500//546 496//543
f 497//545 503//549 502//550 501//548
f 505//551 504//552 500//546 501//548
f 502//550 506//553 505//551 501//548
f 502//550 508//554 507//555 506//553
f 147//172 146//171 505//551 506//553
f 507//555 148//173 147//172 506//553
f 507//555 509//556 149//174 148//173
f 511//557 510//558 152//177 151//176
f 149//174 509//556 511//557 151//176
f 513//559 512//560 510//558 511//557
f 509//556 514//561 513//559 511//557
f 516//562 515//563 513//559 514//561
f 508//554 517//564 516//562 514//561
f 509//556 507//555 508//554 514//561
f 519//565 518//566 516//562 517//564
f 503//549 520//567 519//565 517//564
f 508//554 502//550 503//549 517//564
f 522//568 521//569 519//565 520//567
f 498//544 523//570 522//568 520//567
f 503//549 497//545 498//544 520//567
f 168//193 167//192 522//568 523//570
f 493//539 169//194 168//193 523//570
f 498//544 492//540 493//539 523//570
f 493//539 489//536 126//151 169//194
f 525//571 524//572 348//196 349//195
f 110//133 478//524 525//571 349//195
f 526//573 499//547 524//572 525//571
f 478//524 480//526 526//573 525//571
f 494//574 495//541 499//547 526//573
f 480//526 482//528 494//574 526//573
f 499//547 500//546 504//552 524//572
f 504//552 350//201 348//196 524//572
f 504//552 505//551 146//171 350//201
f 528//575 527//576 351//203 352//202
f 152//177 510//558 528//575 352//202
f 530//577 529//578 527//576 528//575
f 510//558 512//560 530//577 528//575
f 532//579 531//580 529//578 530//577
f 512//560 533//581 532//579 530//577
f 535//582 534//583 532//579 533//581
f 515//563 536//584 535//582 533//581
f 512//560 513//559 515//563 533//581
f 538//585 537//586 535//582 536//584
f 518//566 539//587 538//585 536//584
f 515//563 516//562 518//566 536//584
f 354//218 353//217 538//585 539//587
f 521//569 186//219 354//218 539//587
f 518//566 519//565 521//569 539//587
f 521//569 522//568 167//192 186//219
f 541//588 540//589 356//221 357//220
f 351//203 527//576 541//588 357//220
f 543//590 542//591 540//589 541//588
f 527//576 529//578 543//590 541//588
f 545//592 544//593 542//591 543//590
f 529//578 531//580 545//592 543//590
f 547//594 546//595 544//596 545//592
f 531//580 548//597 547//594 545//592
f 550//598 549//599 547//594 548//597
f 534//583 551//600 550//598 548//597
f 531//580 532//579 534//583 548//597
f 187//236 200//235 550//598 551//600
f 537//586 355//237 187//236 551//600
f 534//583 535//582 537//586 551//600
f 358//238 549//599 550//598 200//235
f 553//601 552//602 202//240 203//239
f 356//221 540//589 553//601 203//239
f 555//603 554//604 552//602 553//601
f 540//589 542//591 555//603 553//601
f 557//605 556//606 554//606 555//603
f 542//591 544//593 557//605 555//603
f 559//607 558//608 556//609 557//610
f 544//596 546//595 559//607 557//610
f 561//611 560//612 558//608 559//607
f 546//595 562//613 561//611 559//607
f 201//255 359//254 561//611 562//613
f 549//599 358//238 201//255 562//613
f 546//595 547//594 549//599 562//613
f 360//256 560//612 561//611 359//254
f 564//614 563//615 216//258 217//257
f 202//240 552//602 564//614 217//257
f 566//616 565//617 563//615 564//614
f 552//602 554//604 566//616 564//614
f 568//618 567//619 565//619 566//618
f 554//606 556//606 568//618 566//618
f 570//620 569//621 567//622 568//623
f 556//609 558//608 570//620 568//623
f 572//624 571//625 569//621 570//620
f 558//608 560//612 572//624 570//620
f 215//272 228//271 571//625 572//624
f 560//612 360//256 215//272 572//624
f 361//274 573//626 571//625 228//271
f 361//274 231//276 574//627 573//626
f 575//628 569//621 571//625 573//626
f 574//627 576//629 575//628 573//626
f 574//627 578//630 577//631 576//629
f 580//632 579//633 575//628 576//629
f 577//631 581//634 580//632 576//629
f 577//631 583//635 582//635 581//634
f 585//636 584//637 580//638 581//639
f 582//640 586//641 585//636 581//639
f 582//640 588//642 587//643 586//641
f 590//644 589//645 585//636 586//641
f 587//643 591//646 590//644 586//641
f 587//643 404//438 592//647 591//646
f 250//298 362//297 590//644 591//646
f 592//647 251//299 250//298 591//646
f 592//647 593//648 252//300 251//299
f 595//649 594//650 255//302 254//302
f 252//300 593//648 595//649 254//305
f 597//651 596//652 363//307 259//306
f 260//311 598//653 597//651 259//306
f 600//654 599//655 597//651 598//653
f 602//656 601//657 600//654 598//653
f 260//311 268//316 602//656 598//653
f 364//317 413//449 602//656 268//316
f 604//658 603//659 269//319 270//318
f 258//323 605//660 604//658 270//318
f 258//323 255//325 594//661 605//660
f 607//662 606//663 604//658 605//660
f 594//661 608//664 607//662 605//660
f 594//650 595//649 402//436 608//664
f 610//665 609//666 607//662 608//664
f 402//436 403//435 610//665 608//664
f 612//667 611//668 609//669 610//670
f 403//671 613//671 612//667 610//670
f 403//671 384//430 395//429 613//671
f 615//672 614//673 612//667 613//674
f 395//675 616//676 615//672 613//674
f 395//675 396//677 617//678 616//676
f 286//344 366//343 615//672 616//676
f 617//678 367//345 286//344 616//676
f 617//678 618//679 287//346 367//345
f 619//680 394//426 289//349 368//348
f 287//346 618//679 619//680 368//348
f 620//681 393//427 394//426 619//680
f 618//679 397//682 620//681 619//680
f 621//683 391//424 393//427 620//683
f 397//432 398//432 621//683 620//683
f 622//684 390//422 391//421 621//685
f 398//686 623//687 622//684 621//685
f 295//359 369//358 622//684 623//687
f 624//688 296//360 295//359 623//687
f 398//686 383//689 624//688 623//687
f 625//690 298//363 296//360 624//688
f 383//689 399//691 625//690 624//688
f 626//692 370//366 298//363 625//690
f 399//691 627//693 626//692 625//690
f 583//694 628//695 626//692 627//693
f 588//642 582//635 583//635 627//696
f 399//434 400//433 588//642 627//696
f 303//372 370//366 626//692 628//695
f 578//630 304//373 303//372 628//695
f 583//694 577//631 578//630 628//695
f 578//630 574//627 231//276 304//373
f 630//697 629//698 371//375 372//374
f 216//258 563//615 630//697 372//374
f 631//699 584//637 629//698 630//697
f 563//615 565//617 631//699 630//697
f 579//700 580//638 584//637 631//700
f 565//619 567//619 579//700 631//700
f 584//637 585//636 589//645 629//698
f 589//645 373//380 371//375 629//698
f 589//645 590//644 362//297 373//380
f 390//422 622//684 369//358 374//381
f 375//382 389//423 390//422 374//381
f 308//383 392//420 389//423 375//383
f 289//349 394//426 392//425 308//385
f 632//701 614//673 376//387 377//386
f 309//390 633//702 632//701 377//386
f 634//703 611//668 632//701 633//702
f 636//704 635//705 634//703 633//702
f 309//390 378//394 636//704 633//702
f 596//652 637//706 635//705 636//704
f 378//394 363//307 596//652 636//704
f 639//707 638//708 635//705 637//706
f 599//655 640//709 639//707 637//706
f 596//652 597//651 599//655 637//706
f 642//710 641//711 639//707 640//709
f 644//712 643//713 642//710 640//709
f 599//655 600//654 644//712 640//709
f 646//714 645//715 643//713 644//712
f 600//654 601//657 646//714 644//712
f 410//445 405//441 645//715 646//714
f 601//657 411//446 410//445 646//714
f 648//716 647//717 643//713 645//715
f 405//441 406//440 648//716 645//715
f 380//408 379//407 647//717 648//716
f 406//440 381//409 380//408 648//716
f 406//440 407//439 327//410 381//409
f 407//439 408//444 328//411 327//410
f 408//444 412//448 329//412 328//411
f 412//448 413//449 364//317 329//412
f 649//718 647//717 379//407 382//413
f 365//416 650//719 649//718 382//413
f 365//416 269//319 603//659 650//719
f 641//711 642//710 649//718 650//719
f 603//659 651//720 641//711 650//719
f 603//659 604//658 606//663 651//720
f 638//708 639//707 641//711 651//720
f 606//663 652//721 638//708 651//720
f 606//663 607//662 609//666 652//721
f 634//703 635//705 638//708 652//722
f 609//669 611//668 634//703 652//722
f 642//710 643//713 647//717 649//718
f 611//668 612//667 614//673 632//701
f 614//673 615//672 366//343 376//387
f 617//678 396//677 397//682 618//679
f 413//449 411//446 601//657 602//656
f 593//648 401//437 402//436 595//649
f 592//647 404//438 401//437 593//648
f 400//433 404//438 587//643 588//642
f 567//622 569//621 575//628 579//633
f 537//586 538//585 353//217 355//237
f 482//531 484//530 490//537 494//542
f 452//493 453//492 339//91 341//112
