# pilowlava3D glyph 's' variant 1 — Vincent Wagner / Velvetyne, Free Art License
v 3.85141 2.47270 -0.25476
v 3.36156 2.71391 -0.24809
v 1.79811 1.93864 -0.51894
v 0.35141 1.86614 -0.37765
v 3.64081 2.38690 -0.00000
v 3.86906 2.42123 -0.00000
v 3.66570 2.47626 -0.30620
v 3.78865 2.71953 -0.41808
v 4.00005 2.66303 -0.28896
v 3.40231 2.48421 -0.00000
v 3.44684 2.91134 -0.27535
v 3.60086 2.80569 -0.40841
v 3.46411 2.57002 -0.30536
v 1.90024 1.62561 -0.48537
v 1.68176 1.57469 -0.45184
v 1.57416 1.79708 -0.47172
v 1.45375 2.07731 -0.42239
v 1.57208 2.17922 -0.44850
v 2.11775 1.98284 -0.51473
v 2.16646 1.70809 -0.48641
v 1.57422 1.37986 -0.24811
v 1.44882 1.53424 -0.30381
v 1.77423 1.36237 -0.29648
v 0.57292 1.86026 -0.37357
v 0.66966 1.94711 -0.24407
v 0.81145 1.68404 -0.24911
v 0.60767 1.68019 -0.43088
v 0.29688 1.68515 -0.43035
v 0.10315 1.69847 -0.25029
v 0.27162 1.95547 -0.24934
v 0.68434 1.99594 -0.00000
v 0.87640 1.69949 -0.00000
v 0.80519 1.43128 -0.25509
v 0.79222 1.19616 -0.25347
v 0.59489 1.18258 -0.44733
v 0.59412 1.42856 -0.45146
v 0.88051 0.97341 -0.00000
v 0.80270 0.96754 -0.24954
v 0.88496 0.75084 -0.00000
v 0.90170 0.54874 -0.00000
v 0.87285 0.52725 -0.20049
v 0.82219 0.74132 -0.23788
v 0.78368 0.46465 -0.35595
v 0.68047 0.70159 -0.40532
v 0.62440 0.94116 -0.43212
v 0.50380 0.62364 -0.40796
v 0.37988 0.87827 -0.43610
v 0.31310 1.14722 -0.45170
v 0.20615 0.81399 -0.26116
v 0.10921 1.10894 -0.26607
v 0.07811 1.40752 -0.26314
v 0.29295 1.42024 -0.45313
v 0.03398 1.09201 -0.00000
v 0.00000 1.40302 -0.00000
v 0.97765 0.36132 -0.00000
v 1.15541 0.27656 -0.14469
v 0.96988 0.35153 -0.15325
v 1.14371 0.21538 -0.27141
v 0.93852 0.29515 -0.29091
v 1.12828 0.12739 -0.27247
v 0.88368 0.22012 -0.29410
v 0.67574 0.39345 -0.35607
v 0.84259 0.17552 -0.16705
v 0.58392 0.33465 -0.20548
v 0.36732 0.55101 -0.24608
v 0.31528 0.52659 -0.00000
v 0.13980 0.78961 -0.00000
v 1.11852 0.06759 -0.00000
v 1.61865 0.38764 -0.21456
v 1.38773 0.31105 -0.17333
v 1.63283 0.28233 -0.36150
v 1.38373 0.22723 -0.31313
v 1.65880 0.14586 -0.36323
v 1.39365 0.11137 -0.31412
v 1.68457 0.04214 -0.21701
v 1.40787 0.04298 -0.17762
v 1.12093 0.08035 -0.15715
v 1.96220 0.00518 -0.00000
v 2.05574 0.64186 -0.00000
v 2.07954 0.58016 -0.23972
v 1.84918 0.47852 -0.23498
v 2.13013 0.44115 -0.40761
v 1.88687 0.35744 -0.39045
v 2.19012 0.24149 -0.41082
v 1.92935 0.19159 -0.39389
v 2.22708 0.09304 -0.24313
v 1.95551 0.06231 -0.23763
v 2.24001 0.02944 -0.00000
v 2.49850 0.14831 -0.24837
v 2.76463 0.22643 -0.25196
v 2.78964 0.15739 -0.00000
v 2.44620 0.30805 -0.42618
v 2.70058 0.39332 -0.43787
v 2.94815 0.49561 -0.44176
v 3.02571 0.32792 -0.25446
v 2.36876 0.52834 -0.42263
v 2.60661 0.62442 -0.43410
v 2.83759 0.72985 -0.43743
v 3.06541 0.84175 -0.43661
v 3.18709 0.61420 -0.44160
v 2.53606 0.78428 -0.24700
v 2.75902 0.89275 -0.24994
v 2.98184 0.99950 -0.24858
v 3.19914 1.10732 -0.24591
v 3.28696 0.96128 -0.42868
v 3.37372 1.27538 -0.00000
v 3.41040 1.21826 -0.24002
v 3.57297 1.37971 -0.00000
v 3.73872 1.48881 -0.00000
v 3.77704 1.47265 -0.21119
v 3.60995 1.33707 -0.23565
v 3.87146 1.43006 -0.35236
v 3.69916 1.24144 -0.39084
v 3.50029 1.09369 -0.41367
v 3.82988 1.11792 -0.40070
v 3.63577 0.91938 -0.42249
v 3.41870 0.75465 -0.43570
v 3.74606 0.79264 -0.25204
v 3.51903 0.60677 -0.25365
v 3.27820 0.45304 -0.25527
v 3.05577 0.25858 -0.00000
v 2.28159 0.74702 -0.00000
v 2.31010 0.68122 -0.24387
v 3.80785 1.83178 -0.15424
v 3.85490 1.64941 -0.17718
v 3.86092 1.86637 -0.27846
v 3.93665 1.65468 -0.30979
v 3.95621 1.93138 -0.30142
v 4.06033 1.65675 -0.33268
v 3.99306 1.36469 -0.36927
v 4.15329 1.65022 -0.21425
v 4.09776 1.31294 -0.23657
v 3.94420 1.02513 -0.24892
v 3.98964 0.98999 -0.00000
v 3.78848 0.74532 -0.00000
v 4.05217 1.97568 -0.00000
v 3.44695 1.92326 -0.00000
v 3.66124 1.93791 -0.00000
v 3.45206 1.94297 -0.16058
v 3.66898 1.94683 -0.14316
v 3.46370 2.00973 -0.29190
v 3.69139 1.99095 -0.25936
v 3.46425 2.11443 -0.29687
v 3.72546 2.07704 -0.27314
v 3.45630 2.17064 -0.16989
v 3.74545 2.12190 -0.16092
v 4.02858 1.96726 -0.18692
v 3.17917 2.23423 -0.00000
v 2.97583 1.78970 -0.23479
v 3.21474 1.87072 -0.20098
v 2.95668 1.92039 -0.39650
v 3.21362 1.97660 -0.35131
v 2.93629 2.07789 -0.39993
v 3.20145 2.10302 -0.35219
v 2.92133 2.21144 -0.24387
v 3.18521 2.19548 -0.20562
v 2.91896 2.27583 -0.00000
v 2.66748 2.31594 -0.00000
v 2.66037 2.22834 -0.26942
v 2.40147 2.25046 -0.28995
v 2.41899 2.35795 -0.00000
v 2.66930 2.05814 -0.44115
v 2.39868 2.03003 -0.47779
v 2.14754 2.27413 -0.30909
v 2.69716 1.85544 -0.43183
v 2.43414 1.78831 -0.46247
v 2.73079 1.70283 -0.25540
v 2.48717 1.61009 -0.27032
v 2.25066 1.50791 -0.28503
v 2.01466 1.41092 -0.29733
v 1.94327 2.44592 -0.00000
v 1.43184 2.54343 -0.00000
v 1.26845 1.74555 -0.00000
v 1.36182 1.50428 -0.00000
v 1.32491 2.01093 -0.26406
v 1.35695 1.75741 -0.29806
v 1.24806 2.22578 -0.20343
v 1.29120 2.29843 -0.34096
v 1.07025 2.40794 -0.29769
v 1.10574 2.50883 -0.31056
v 1.35240 2.39110 -0.36652
v 1.05220 2.35373 -0.16742
v 0.80266 2.41965 -0.15879
v 0.81799 2.46914 -0.28484
v 0.50549 2.47803 -0.00000
v 0.51917 2.49016 -0.16830
v 0.24362 2.69184 -0.00000
v 0.16188 3.03959 -0.00000
v 0.19298 3.03051 -0.21108
v 0.26743 2.69779 -0.19324
v 0.27585 3.01396 -0.33378
v 0.33597 2.72657 -0.31055
v 0.55489 2.54136 -0.29406
v 0.44444 2.78483 -0.29993
v 0.60683 2.64296 -0.29164
v 0.84979 2.57551 -0.29082
v 0.63988 2.69418 -0.16551
v 0.87169 2.63061 -0.16643
v 1.13533 2.56835 -0.18718
v 1.15120 2.59991 -0.00000
v 1.41042 2.48283 -0.23025
v 1.67931 2.38069 -0.28019
v 1.90372 2.30961 -0.32104
v 0.22510 3.39138 -0.00000
v 0.42537 3.65488 -0.25572
v 0.26375 3.36440 -0.23288
v 0.54297 3.53980 -0.41576
v 0.36687 3.29900 -0.37316
v 0.67290 3.38245 -0.41452
v 0.48546 3.21416 -0.36815
v 0.39919 2.99862 -0.32584
v 0.58264 3.14796 -0.22540
v 0.48442 2.98937 -0.19810
v 0.50502 2.81486 -0.17866
v 0.50818 2.98487 -0.00000
v 0.52266 2.82072 -0.00000
v 0.61520 3.11973 -0.00000
v 0.80022 3.19243 -0.00000
v 0.89787 4.06512 -0.28162
v 0.64702 3.88537 -0.26908
v 0.99777 3.87275 -0.47787
v 0.75821 3.72696 -0.45190
v 1.11844 3.60449 -0.47634
v 0.89143 3.50364 -0.45268
v 1.19864 3.39636 -0.27930
v 0.97772 3.33050 -0.27039
v 0.76253 3.25312 -0.25545
v 1.00685 3.24457 -0.00000
v 1.45337 3.34721 -0.00000
v 1.44936 4.29138 -0.29376
v 1.16862 4.19843 -0.29011
v 1.51387 4.05802 -0.50437
v 1.25139 3.97918 -0.49268
v 1.59505 3.74880 -0.50312
v 1.35318 3.68549 -0.49145
v 1.65756 3.51368 -0.29181
v 1.42581 3.45678 -0.28650
v 1.68503 3.39863 -0.00000
v 1.91928 3.44759 -0.00000
v 1.89427 3.56325 -0.29573
v 2.13281 3.61122 -0.28953
v 2.15541 3.49897 -0.00000
v 1.84309 3.80498 -0.50581
v 2.09125 3.84698 -0.49877
v 2.34184 3.88054 -0.48932
v 2.37373 3.65219 -0.28425
v 1.77901 4.11878 -0.50486
v 2.04622 4.16083 -0.50076
v 2.31606 4.18163 -0.48754
v 2.58620 4.18018 -0.47236
v 2.59734 3.89890 -0.47045
v 2.01802 4.40030 -0.29367
v 2.30531 4.40306 -0.28160
v 2.58798 4.39014 -0.27480
v 2.86954 4.35381 -0.26167
v 2.85527 4.16640 -0.44951
v 2.59567 4.48041 -0.00000
v 2.88185 4.43308 -0.00000
v 3.16963 4.35649 -0.00000
v 3.15053 4.29241 -0.25435
v 3.44185 4.24146 -0.00000
v 3.70847 4.06782 -0.00000
v 3.69263 4.03611 -0.21843
v 3.42569 4.19095 -0.24157
v 3.64397 3.94362 -0.35450
v 3.39182 4.06609 -0.38853
v 3.12212 4.13127 -0.42272
v 3.35973 3.91638 -0.38223
v 3.10645 3.92422 -0.41908
v 2.85179 3.91583 -0.44775
v 3.10309 3.76666 -0.25067
v 2.86087 3.72972 -0.26315
v 2.61722 3.69258 -0.27335
v 2.63231 3.59774 -0.00000
v 2.39304 3.54742 -0.00000
v 1.73184 4.35615 -0.29350
v 4.07768 3.55466 -0.00000
v 3.92871 3.83769 -0.00000
v 4.03593 3.54858 -0.22549
v 3.90231 3.82011 -0.21123
v 3.93524 3.53586 -0.35706
v 3.82770 3.76720 -0.33764
v 3.82593 3.52258 -0.33801
v 3.75218 3.71403 -0.31578
v 3.59215 3.84541 -0.33733
v 3.70680 3.68221 -0.19316
v 3.55504 3.76941 -0.20473
v 3.33998 3.79030 -0.23480
v 3.69115 3.67138 -0.00000
v 3.71313 3.51642 -0.00000
v 4.08234 2.94309 -0.27152
v 4.08929 3.24349 -0.25436
v 3.89702 2.96910 -0.41749
v 3.95094 3.24969 -0.39442
v 3.71375 3.03045 -0.40928
v 3.80579 3.27367 -0.39030
v 3.57564 3.10889 -0.25705
v 3.68559 3.31211 -0.24320
v 3.74611 3.51429 -0.21007
v 1.54492 1.33406 -0.00000
v 3.30272 2.70425 -0.00000
v 3.37686 2.96090 -0.00000
v 0.04437 1.71808 -0.00000
v 0.25897 2.01187 -0.00000
v 0.88519 1.43184 -0.00000
v 0.87650 1.19768 -0.00000
v 1.15762 0.28668 -0.00000
v 0.55147 0.31761 -0.00000
v 0.82910 0.16291 -0.00000
v 1.61174 0.43326 -0.00000
v 1.39076 0.33737 -0.00000
v 1.41245 0.01879 -0.00000
v 1.69450 0.00000 -0.00000
v 1.82812 0.53394 -0.00000
v 2.51799 0.08056 -0.00000
v 2.72600 0.96104 -0.00000
v 2.94698 1.06732 -0.00000
v 3.16441 1.17218 -0.00000
v 3.56017 0.54980 -0.00000
v 3.31387 0.38820 -0.00000
v 2.50572 0.85303 -0.00000
v 3.79387 1.82647 -0.00000
v 3.83237 1.64659 -0.00000
v 4.13794 1.28999 -0.00000
v 4.18675 1.64385 -0.00000
v 3.75499 2.13445 -0.00000
v 3.45409 2.19099 -0.00000
v 2.98630 1.73010 -0.00000
v 3.21530 1.83047 -0.00000
v 2.52229 1.52574 -0.00000
v 2.29315 1.41709 -0.00000
v 2.05832 1.31333 -0.00000
v 1.78978 1.26744 -0.00000
v 2.75333 1.62792 -0.00000
v 2.17851 2.39884 -0.00000
v 1.70879 2.49018 -0.00000
v 1.25661 1.99100 -0.00000
v 1.22839 2.19756 -0.00000
v 1.04642 2.33960 -0.00000
v 0.79710 2.40537 -0.00000
v 0.88097 2.65165 -0.00000
v 0.38008 3.70055 -0.00000
v 0.65091 2.70846 -0.00000
v 0.85147 4.14284 -0.00000
v 0.59756 3.94776 -0.00000
v 1.22678 3.29588 -0.00000
v 1.41977 4.39493 -0.00000
v 1.13058 4.29114 -0.00000
v 2.30652 4.50264 -0.00000
v 2.87073 3.64555 -0.00000
v 2.01019 4.50344 -0.00000
v 1.71281 4.46377 -0.00000
v 3.54390 3.73890 -0.00000
v 3.33546 3.73417 -0.00000
v 3.10582 3.69321 -0.00000
v 4.15436 2.94013 -0.00000
v 4.15068 3.24368 -0.00000
v 3.62791 3.34005 -0.00000
v 3.51022 3.15707 -0.00000
v 4.08134 2.63769 -0.00000
v 3.85141 2.47270 0.25476
v 3.36156 2.71391 0.24809
v 1.79811 1.93864 0.51894
v 0.35141 1.86614 0.37765
v 3.66570 2.47626 0.30620
v 3.78865 2.71953 0.41808
v 4.00005 2.66303 0.28896
v 3.44684 2.91134 0.27535
v 3.60086 2.80569 0.40841
v 3.46411 2.57002 0.30536
v 1.90024 1.62561 0.48537
v 1.68176 1.57469 0.45184
v 1.57416 1.79708 0.47172
v 1.45375 2.07731 0.42239
v 1.57208 2.17922 0.44850
v 2.11775 1.98284 0.51473
v 2.16646 1.70809 0.48641
v 1.57422 1.37986 0.24811
v 1.44882 1.53424 0.30381
v 1.77423 1.36237 0.29648
v 0.57292 1.86026 0.37357
v 0.66966 1.94711 0.24407
v 0.81145 1.68404 0.24911
v 0.60767 1.68019 0.43088
v 0.29688 1.68515 0.43035
v 0.10315 1.69847 0.25029
v 0.27162 1.95547 0.24934
v 0.80519 1.43128 0.25509
v 0.79222 1.19616 0.25347
v 0.59489 1.18258 0.44733
v 0.59412 1.42856 0.45146
v 0.80270 0.96754 0.24954
v 0.87285 0.52725 0.20049
v 0.82219 0.74132 0.23788
v 0.78368 0.46465 0.35595
v 0.68047 0.70159 0.40532
v 0.62440 0.94116 0.43212
v 0.50380 0.62364 0.40796
v 0.37988 0.87827 0.43610
v 0.31310 1.14722 0.45170
v 0.20615 0.81399 0.26116
v 0.10921 1.10894 0.26607
v 0.07811 1.40752 0.26314
v 0.29295 1.42024 0.45313
v 1.15541 0.27656 0.14469
v 0.96988 0.35153 0.15325
v 1.14371 0.21538 0.27141
v 0.93852 0.29515 0.29091
v 1.12828 0.12739 0.27247
v 0.88368 0.22012 0.29410
v 0.67574 0.39345 0.35607
v 0.84259 0.17552 0.16705
v 0.58392 0.33465 0.20548
v 0.36732 0.55101 0.24608
v 1.61865 0.38764 0.21456
v 1.38773 0.31105 0.17333
v 1.63283 0.28233 0.36150
v 1.38373 0.22723 0.31313
v 1.65880 0.14586 0.36323
v 1.39365 0.11137 0.31412
v 1.68457 0.04214 0.21701
v 1.40787 0.04298 0.17762
v 1.12093 0.08035 0.15715
v 2.07954 0.58016 0.23972
v 1.84918 0.47852 0.23498
v 2.13013 0.44115 0.40761
v 1.88687 0.35744 0.39045
v 2.19012 0.24149 0.41082
v 1.92935 0.19159 0.39389
v 2.22708 0.09304 0.24313
v 1.95551 0.06231 0.23763
v 2.49850 0.14831 0.24837
v 2.76463 0.22643 0.25196
v 2.44620 0.30805 0.42618
v 2.70058 0.39332 0.43787
v 2.94815 0.49561 0.44176
v 3.02571 0.32792 0.25446
v 2.36876 0.52834 0.42263
v 2.60661 0.62442 0.43410
v 2.83759 0.72985 0.43743
v 3.06541 0.84175 0.43661
v 3.18709 0.61420 0.44160
v 2.53606 0.78428 0.24700
v 2.75902 0.89275 0.24994
v 2.98184 0.99950 0.24858
v 3.19914 1.10732 0.24591
v 3.28696 0.96128 0.42868
v 3.41040 1.21826 0.24002
v 3.77704 1.47265 0.21119
v 3.60995 1.33707 0.23565
v 3.87146 1.43006 0.35236
v 3.69916 1.24144 0.39084
v 3.50029 1.09369 0.41367
v 3.82988 1.11792 0.40070
v 3.63577 0.91938 0.42249
v 3.41870 0.75465 0.43570
v 3.74606 0.79264 0.25204
v 3.51903 0.60677 0.25365
v 3.27820 0.45304 0.25527
v 2.31010 0.68122 0.24387
v 3.80785 1.83178 0.15424
v 3.85490 1.64941 0.17718
v 3.86092 1.86637 0.27846
v 3.93665 1.65468 0.30979
v 3.95621 1.93138 0.30142
v 4.06033 1.65675 0.33268
v 3.99306 1.36469 0.36927
v 4.15329 1.65022 0.21425
v 4.09776 1.31294 0.23657
v 3.94420 1.02513 0.24892
v 3.45206 1.94297 0.16058
v 3.66898 1.94683 0.14316
v 3.46370 2.00973 0.29190
v 3.69139 1.99095 0.25936
v 3.46425 2.11443 0.29687
v 3.72546 2.07704 0.27314
v 3.45630 2.17064 0.16989
v 3.74545 2.12190 0.16092
v 4.02858 1.96726 0.18692
v 2.97583 1.78970 0.23479
v 3.21474 1.87072 0.20098
v 2.95668 1.92039 0.39650
v 3.21362 1.97660 0.35131
v 2.93629 2.07789 0.39993
v 3.20145 2.10302 0.35219
v 2.92133 2.21144 0.24387
v 3.18521 2.19548 0.20562
v 2.66037 2.22834 0.26942
v 2.40147 2.25046 0.28995
v 2.66930 2.05814 0.44115
v 2.39868 2.03003 0.47779
v 2.14754 2.27413 0.30909
v 2.69716 1.85544 0.43183
v 2.43414 1.78831 0.46247
v 2.73079 1.70283 0.25540
v 2.48717 1.61009 0.27032
v 2.25066 1.50791 0.28503
v 2.01466 1.41092 0.29733
v 1.32491 2.01093 0.26406
v 1.35695 1.75741 0.29806
v 1.24806 2.22578 0.20343
v 1.29120 2.29843 0.34096
v 1.07025 2.40794 0.29769
v 1.10574 2.50883 0.31056
v 1.35240 2.39110 0.36652
v 1.05220 2.35373 0.16742
v 0.80266 2.41965 0.15879
v 0.81799 2.46914 0.28484
v 0.51917 2.49016 0.16830
v 0.19298 3.03051 0.21108
v 0.26743 2.69779 0.19324
v 0.27585 3.01396 0.33378
v 0.33597 2.72657 0.31055
v 0.55489 2.54136 0.29406
v 0.44444 2.78483 0.29993
v 0.60683 2.64296 0.29164
v 0.84979 2.57551 0.29082
v 0.63988 2.69418 0.16551
v 0.87169 2.63061 0.16643
v 1.13533 2.56835 0.18718
v 1.41042 2.48283 0.23025
v 1.67931 2.38069 0.28019
v 1.90372 2.30961 0.32104
v 0.42537 3.65488 0.25572
v 0.26375 3.36440 0.23288
v 0.54297 3.53980 0.41576
v 0.36687 3.29900 0.37316
v 0.67290 3.38245 0.41452
v 0.48546 3.21416 0.36815
v 0.39919 2.99862 0.32584
v 0.58264 3.14796 0.22540
v 0.48442 2.98937 0.19810
v 0.50502 2.81486 0.17866
v 0.89787 4.06512 0.28162
v 0.64702 3.88537 0.26908
v 0.99777 3.87275 0.47787
v 0.75821 3.72696 0.45190
v 1.11844 3.60449 0.47634
v 0.89143 3.50364 0.45268
v 1.19864 3.39636 0.27930
v 0.97772 3.33050 0.27039
v 0.76253 3.25312 0.25545
v 1.44936 4.29138 0.29376
v 1.16862 4.19843 0.29011
v 1.51387 4.05802 0.50437
v 1.25139 3.97918 0.49268
v 1.59505 3.74880 0.50312
v 1.35318 3.68549 0.49145
v 1.65756 3.51368 0.29181
v 1.42581 3.45678 0.28650
v 1.89427 3.56325 0.29573
v 2.13281 3.61122 0.28953
v 1.84309 3.80498 0.50581
v 2.09125 3.84698 0.49877
v 2.34184 3.88054 0.48932
v 2.37373 3.65219 0.28425
v 1.77901 4.11878 0.50486
v 2.04622 4.16083 0.50076
v 2.31606 4.18163 0.48754
v 2.58620 4.18018 0.47236
v 2.59734 3.89890 0.47045
v 2.01802 4.40030 0.29367
v 2.30531 4.40306 0.28160
v 2.58798 4.39014 0.27480
v 2.86954 4.35381 0.26167
v 2.85527 4.16640 0.44951
v 3.15053 4.29241 0.25435
v 3.69263 4.03611 0.21843
v 3.42569 4.19095 0.24157
v 3.64397 3.94362 0.35450
v 3.39182 4.06609 0.38853
v 3.12212 4.13127 0.42272
v 3.35973 3.91638 0.38223
v 3.10645 3.92422 0.41908
v 2.85179 3.91583 0.44775
v 3.10309 3.76666 0.25067
v 2.86087 3.72972 0.26315
v 2.61722 3.69258 0.27335
v 1.73184 4.35615 0.29350
v 4.03593 3.54858 0.22549
v 3.90231 3.82011 0.21123
v 3.93524 3.53586 0.35706
v 3.82770 3.76720 0.33764
v 3.82593 3.52258 0.33801
v 3.75218 3.71403 0.31578
v 3.59215 3.84541 0.33733
v 3.70680 3.68221 0.19316
v 3.55504 3.76941 0.20473
v 3.33998 3.79030 0.23480
v 4.08234 2.94309 0.27152
v 4.08929 3.24349 0.25436
v 3.89702 2.96910 0.41749
v 3.95094 3.24969 0.39442
v 3.71375 3.03045 0.40928
v 3.80579 3.27367 0.39030
v 3.57564 3.10889 0.25705
v 3.68559 3.31211 0.24320
v 3.74611 3.51429 0.21007
vn 0.09020 -0.96807 -0.23390
vn 0.09885 -0.99510 0.00358
vn -0.15333 -0.98817 0.00121
vn -0.15001 -0.94882 -0.27791
vn 0.29139 -0.44341 -0.84763
vn 0.06003 -0.39518 -0.91664
vn 0.16390 -0.24431 -0.95575
vn 0.42380 -0.31311 -0.84992
vn -0.53581 0.04701 -0.84303
vn -0.74523 0.33391 -0.57718
vn -0.34240 0.02291 -0.93927
vn -0.36826 -0.14299 -0.91866
vn -0.91724 0.31620 -0.24226
vn -0.94654 0.32256 0.00452
vn -0.89473 0.44659 0.00230
vn -0.85516 -0.45236 -0.25313
vn -0.65198 -0.69872 -0.29445
vn -0.68496 -0.72857 0.00223
vn -0.88764 -0.46050 0.00545
vn -0.04364 0.18176 -0.98237
vn 0.05570 -0.37889 -0.92377
vn -0.22777 -0.41655 -0.88012
vn -0.40988 -0.11253 -0.90517
vn -0.54185 -0.05910 -0.83840
vn -0.07471 0.35359 -0.93241
vn 0.05952 0.25604 -0.96483
vn 0.17753 -0.37009 -0.91187
vn -0.42286 -0.78882 -0.44603
vn -0.64965 -0.50791 -0.56568
vn -0.06761 -0.81873 -0.57019
vn 0.24318 0.53255 -0.81071
vn 0.76343 0.44120 -0.47171
vn 0.82687 0.23133 -0.51261
vn 0.35363 0.19676 -0.91446
vn -0.62358 0.39391 -0.67527
vn -0.65476 0.24117 -0.71633
vn -0.81229 0.30535 -0.49693
vn -0.74210 0.49420 -0.45283
vn 0.02260 0.59069 -0.80658
vn 0.02985 0.91881 -0.39356
vn 0.00777 0.18693 -0.98234
vn -0.93445 0.35609 0.00090
vn -0.82201 0.56947 0.00273
vn 0.03062 0.99953 -0.00036
vn 0.85959 0.51096 -0.00412
vn 0.96257 0.27103 -0.00253
vn 0.99980 -0.01977 -0.00037
vn 0.84818 -0.01312 -0.52954
vn 0.85009 -0.00309 -0.52663
vn 0.69884 0.00258 -0.71527
vn 0.68237 -0.00667 -0.73098
vn 0.99996 -0.00907 -0.00006
vn 0.99930 0.03734 0.00007
vn 0.86143 0.04152 -0.50617
vn 0.99569 0.09270 -0.00114
vn 0.95947 0.28182 -0.00114
vn 0.88758 0.28443 -0.36235
vn 0.88475 0.10091 -0.45500
vn 0.79246 0.27988 -0.54191
vn 0.75878 0.10467 -0.64288
vn 0.71997 0.04536 -0.69252
vn 0.03699 -0.07435 -0.99655
vn 0.07039 -0.12515 -0.98964
vn 0.01888 -0.03308 -0.99927
vn -0.65534 -0.13576 -0.74303
vn -0.62187 -0.30147 -0.72277
vn -0.77430 -0.37600 -0.50901
vn -0.82866 -0.17831 -0.53059
vn -0.84831 0.01036 -0.52939
vn -0.66759 0.01251 -0.74443
vn 0.00620 0.03662 -0.99931
vn -0.97649 -0.21557 -0.00011
vn -0.99997 0.00731 -0.00055
vn 0.38034 0.92485 -0.00005
vn 0.10170 0.99482 0.00004
vn 0.10662 0.95319 -0.28296
vn 0.65728 0.69356 -0.29489
vn 0.90897 0.41687 0.00023
vn 0.10680 0.88113 -0.46065
vn 0.60125 0.64722 -0.46861
vn 0.13846 -0.09012 -0.98626
vn -0.03787 0.00213 -0.99928
vn 0.14138 -0.16249 -0.97653
vn -0.48410 -0.67559 -0.55608
vn -0.36405 -0.82170 -0.43850
vn -0.39173 -0.87721 -0.27757
vn -0.54598 -0.75379 -0.36565
vn -0.67655 -0.57794 -0.45636
vn -0.56466 -0.48685 -0.66644
vn -0.59015 -0.80730 0.00011
vn -0.76302 -0.64638 0.00002
vn -0.89927 -0.43740 0.00001
vn -0.40944 -0.91234 0.00023
vn -0.27920 0.96023 0.00034
vn -0.38680 0.92216 0.00005
vn -0.35503 0.85022 -0.38868
vn -0.26137 0.90950 -0.32325
vn -0.31540 0.76234 -0.56512
vn -0.23636 0.83493 -0.49703
vn -0.17304 0.00077 -0.98491
vn -0.14770 -0.01147 -0.98897
vn -0.07998 -0.88389 -0.46080
vn 0.00558 -0.82674 -0.56255
vn -0.00003 -0.92380 -0.38288
vn -0.09053 -0.94913 -0.30159
vn -0.22578 -0.94107 -0.25182
vn -0.21311 -0.89154 -0.39969
vn -0.09866 -0.99512 0.00009
vn -0.23442 -0.97214 0.00022
vn -0.00419 -0.99999 0.00004
vn -0.41075 0.91175 -0.00023
vn -0.41615 0.90929 -0.00002
vn -0.36112 0.80411 -0.47222
vn -0.36211 0.82064 -0.44207
vn -0.30274 0.69095 -0.65646
vn -0.30895 0.71772 -0.62404
vn -0.08939 -0.00431 -0.99599
vn -0.06391 -0.00198 -0.99795
vn 0.06162 -0.77003 -0.63502
vn 0.11357 -0.73516 -0.66831
vn 0.12926 -0.87028 -0.47530
vn 0.06528 -0.89373 -0.44383
vn 0.14246 -0.98980 0.00002
vn 0.06776 -0.99770 0.00016
vn 0.20196 -0.84704 -0.49166
vn 0.23155 -0.97282 -0.00002
vn 0.27448 -0.82072 -0.50108
vn 0.31663 -0.94855 0.00002
vn 0.16951 -0.70922 -0.68431
vn 0.22897 -0.68298 -0.69362
vn 0.28733 -0.65318 -0.70057
vn 0.34702 -0.78934 -0.50648
vn -0.03278 0.00382 -0.99946
vn -0.05335 -0.00249 -0.99857
vn -0.01263 0.01304 -0.99984
vn 0.00239 0.02553 -0.99967
vn -0.31492 0.65199 -0.68974
vn -0.31257 0.65973 -0.68341
vn -0.37279 0.78224 -0.49913
vn -0.37627 0.77739 -0.50407
vn -0.37688 0.77791 -0.50281
vn -0.31744 0.65267 -0.68793
vn -0.38961 0.77745 -0.49373
vn -0.33312 0.65569 -0.67757
vn -0.43623 0.89983 0.00000
vn -0.43497 0.90045 0.00001
vn -0.44420 0.89593 -0.00004
vn -0.46825 0.88360 0.00014
vn -0.42031 0.77372 -0.47403
vn -0.53464 0.84508 -0.00063
vn -0.75274 0.65832 -0.00006
vn -0.70463 0.59532 -0.38614
vn -0.49409 0.75204 -0.43624
vn -0.63656 0.51476 -0.57429
vn -0.44179 0.64351 -0.62507
vn -0.36763 0.65563 -0.65954
vn 0.02829 0.07574 -0.99673
vn 0.01857 0.12203 -0.99235
vn 0.01797 0.04697 -0.99873
vn 0.42082 -0.57459 -0.70197
vn 0.50435 -0.50553 -0.70005
vn 0.61663 -0.61632 -0.48981
vn 0.51373 -0.69759 -0.49945
vn 0.42641 -0.74977 -0.50599
vn 0.34998 -0.61881 -0.70327
vn 0.59452 -0.80408 -0.00011
vn 0.49588 -0.86839 -0.00002
vn 0.40230 -0.91551 0.00003
vn -0.41847 0.90823 -0.00002
vn -0.43176 0.90199 0.00000
vn -0.36221 0.79337 -0.48925
vn -0.30411 0.67408 -0.67315
vn -0.97482 -0.22299 -0.00018
vn -0.85286 -0.52213 -0.00009
vn -0.81427 -0.50297 -0.28980
vn -0.93244 0.11532 -0.34243
vn -0.88294 0.46949 0.00149
vn -0.75148 -0.46824 -0.46478
vn -0.84382 0.09499 -0.52816
vn -0.16884 0.11791 -0.97856
vn -0.19534 -0.01979 -0.98054
vn -0.05855 0.16979 -0.98374
vn 0.72181 -0.21612 -0.65749
vn 0.77752 0.12968 -0.61534
vn 0.90772 0.12860 -0.39939
vn 0.85830 -0.26550 -0.43913
vn 0.73621 -0.48535 -0.47162
vn 0.60600 -0.39971 -0.68774
vn 0.95325 -0.30217 0.00002
vn 0.83492 -0.55038 -0.00001
vn 0.70803 -0.70618 0.00001
vn 0.99267 0.12087 0.00011
vn 0.04666 -0.99891 0.00027
vn 0.19674 -0.98046 -0.00004
vn 0.17347 -0.94160 -0.28863
vn -0.31372 -0.91157 -0.26575
vn -0.64260 -0.76620 0.00002
vn 0.14749 -0.88103 -0.44948
vn -0.30001 -0.85259 -0.42789
vn -0.03651 -0.10814 -0.99347
vn 0.16138 -0.07132 -0.98431
vn 0.29515 0.85723 -0.42196
vn 0.13509 0.89422 -0.42675
vn 0.14697 0.94892 -0.27918
vn 0.31540 0.91117 -0.26513
vn 0.68795 0.64333 -0.33594
vn 0.60688 0.59247 -0.52978
vn 0.32844 0.94452 -0.00017
vn 0.74306 0.66922 -0.00001
vn 0.15517 0.98789 -0.00024
vn 0.35928 -0.93323 0.00003
vn 0.37689 -0.92626 0.00003
vn 0.33780 -0.83386 -0.43655
vn 0.32744 -0.87134 -0.36546
vn 0.29468 -0.73294 -0.61316
vn 0.28973 -0.79170 -0.53784
vn 0.19641 -0.00526 -0.98051
vn 0.16057 -0.00420 -0.98701
vn 0.09131 0.84583 -0.52557
vn 0.07819 0.77214 -0.63062
vn 0.10189 0.88715 -0.45010
vn 0.11094 0.92631 -0.36007
vn 0.12538 0.99211 0.00008
vn 0.12927 0.99161 -0.00024
vn 0.10484 0.84898 -0.51792
vn 0.13254 0.99118 0.00007
vn 0.10173 0.81261 -0.57387
vn 0.14232 0.98982 -0.00033
vn 0.07746 0.70817 -0.70178
vn 0.06443 0.64486 -0.76158
vn 0.09739 0.77087 -0.62950
vn 0.12795 -0.04893 -0.99057
vn 0.13883 -0.02475 -0.99001
vn 0.21872 -0.37885 -0.89924
vn 0.28155 -0.69816 -0.65825
vn 0.33189 -0.80991 -0.48364
vn 0.34194 -0.78387 -0.51829
vn 0.33460 -0.76465 -0.55078
vn 0.22313 -0.78514 -0.57773
vn 0.40514 -0.91425 0.00015
vn 0.41083 -0.91171 0.00003
vn 0.29293 -0.95613 0.00030
vn -0.01387 -0.99990 -0.00240
vn 0.38355 -0.92352 -0.00005
vn -0.97547 -0.22014 -0.00030
vn -0.99004 -0.14075 0.00197
vn -0.87714 -0.15557 -0.45434
vn -0.80874 -0.20225 -0.55230
vn -0.83500 -0.55025 0.00136
vn -0.76441 -0.53456 -0.36044
vn -0.52023 -0.27701 -0.80785
vn -0.97743 -0.21124 0.00429
vn -0.16072 -0.06953 -0.98455
vn -0.29656 -0.00995 -0.95496
vn -0.40828 -0.87065 -0.27437
vn -0.37947 -0.82007 -0.42836
vn -0.24179 -0.93833 -0.24712
vn -0.23026 -0.88906 -0.39567
vn -0.58967 -0.80764 -0.00033
vn -0.43027 -0.90270 -0.00017
vn -0.24843 -0.96865 0.00002
vn -0.44638 -0.89485 0.00000
vn -0.42295 -0.86347 -0.27483
vn -0.84791 -0.53014 -0.00006
vn -0.99978 -0.02108 0.00012
vn -0.92788 -0.02696 -0.37189
vn -0.79360 -0.51220 -0.32841
vn -0.81923 -0.03186 -0.57258
vn -0.71170 -0.47598 -0.51664
vn -0.38868 -0.80973 -0.43962
vn 0.04289 -0.00622 -0.99906
vn 0.08076 -0.03523 -0.99611
vn -0.03371 -0.04473 -0.99843
vn 0.21221 0.87575 -0.43363
vn 0.43613 0.78155 -0.44607
vn 0.45958 0.84170 -0.28342
vn 0.22125 0.93145 -0.28886
vn 0.20865 0.91487 -0.34566
vn 0.19776 0.84801 -0.49169
vn 0.22759 0.97376 0.00001
vn 0.21674 0.97623 -0.00024
vn 0.23741 0.97141 -0.00049
vn 0.22704 0.85831 -0.46018
vn 0.21167 0.74833 -0.62864
vn 0.22667 0.97397 -0.00028
vn 0.19652 0.78414 -0.58865
vn 0.17990 0.90264 -0.39099
vn 0.12998 0.74781 -0.65106
vn 0.15016 0.91265 -0.38017
vn -0.94520 0.32648 0.00001
vn -0.82106 0.57085 -0.00003
vn -0.71960 0.49359 -0.48840
vn -0.85410 0.29071 -0.43128
vn -0.59157 0.39849 -0.70090
vn -0.72713 0.24295 -0.64207
vn -0.04982 -0.14639 -0.98797
vn -0.10444 -0.10534 -0.98894
vn 0.04208 -0.12360 -0.99144
vn 0.80222 -0.18924 -0.56624
vn 0.52939 -0.56653 -0.63149
vn 0.59487 -0.68250 -0.42465
vn 0.90268 -0.22959 -0.36395
vn 0.84768 0.42729 -0.31443
vn 0.77469 0.38684 -0.50022
vn 0.99533 0.09655 -0.00024
vn 0.66547 0.74642 -0.00026
vn 0.47206 0.88157 -0.00007
vn 0.81170 -0.58407 0.00164
vn 0.63877 -0.76940 0.00165
vn -0.67370 0.73901 0.00003
vn -0.53242 0.84648 0.00002
vn -0.44876 0.71053 -0.54200
vn -0.57863 0.62764 -0.52083
vn -0.36004 0.56679 -0.74103
vn -0.47029 0.50205 -0.72579
vn -0.09806 -0.06365 -0.99314
vn -0.06711 -0.03489 -0.99714
vn 0.20378 -0.66248 -0.72083
vn 0.17366 -0.64444 -0.74467
vn 0.20612 -0.80113 -0.56188
vn 0.23558 -0.81316 -0.53223
vn 0.32499 -0.81304 -0.48306
vn 0.28973 -0.67195 -0.68157
vn 0.26631 -0.96389 -0.00049
vn 0.35359 -0.93540 0.00021
vn 0.24167 -0.97036 0.00012
vn -0.39517 0.91861 0.00003
vn -0.27755 0.96071 -0.00007
vn -0.22891 0.79190 -0.56613
vn -0.32777 0.76248 -0.55784
vn -0.18223 0.63008 -0.75485
vn -0.26010 0.60555 -0.75210
vn -0.04665 -0.02115 -0.99869
vn -0.02377 -0.00933 -0.99967
vn 0.14683 -0.63913 -0.75496
vn 0.13211 -0.63942 -0.75743
vn 0.16946 -0.79575 -0.58143
vn 0.18502 -0.79585 -0.57653
vn 0.19719 -0.90688 -0.37239
vn 0.21251 -0.90653 -0.36476
vn 0.16717 -0.79634 -0.58129
vn 0.19101 -0.90854 -0.37157
vn 0.16226 -0.80146 -0.57562
vn 0.18523 -0.91259 -0.36450
vn 0.13378 -0.63863 -0.75780
vn 0.12996 -0.64429 -0.75366
vn 0.12238 -0.65858 -0.74249
vn 0.15466 -0.81225 -0.56243
vn 0.03228 0.00320 -0.99947
vn 0.00784 -0.00006 -0.99997
vn 0.05401 0.00399 -0.99853
vn 0.07599 -0.00119 -0.99711
vn 0.02559 0.67578 -0.73666
vn -0.04553 0.65896 -0.75080
vn -0.05721 0.82525 -0.56187
vn 0.03005 0.83534 -0.54891
vn 0.09359 0.84045 -0.53374
vn 0.07776 0.68702 -0.72247
vn 0.16765 0.84155 -0.51351
vn 0.13724 0.69312 -0.70763
vn 0.03468 0.99940 0.00006
vn 0.10932 0.99401 0.00001
vn 0.19627 0.98055 0.00012
vn 0.30686 0.95176 0.00014
vn 0.26568 0.83241 -0.48632
vn 0.45343 0.89129 0.00013
vn 0.63066 0.77606 0.00012
vn 0.58129 0.70869 -0.39981
vn 0.40681 0.79809 -0.44448
vn 0.50724 0.61056 -0.60821
vn 0.34531 0.67520 -0.65182
vn 0.21786 0.69220 -0.68804
vn 0.11745 -0.03293 -0.99253
vn 0.12041 -0.09850 -0.98783
vn 0.09567 -0.01124 -0.99535
vn 0.12284 -0.69957 -0.70392
vn 0.11087 -0.72897 -0.67551
vn 0.13800 -0.86216 -0.48748
vn 0.15223 -0.84114 -0.51895
vn 0.15368 -0.82557 -0.54297
vn 0.12255 -0.67724 -0.72548
vn 0.18151 -0.98339 0.00014
vn 0.18657 -0.98244 0.00002
vn 0.19024 -0.98174 -0.00001
vn -0.18432 0.98287 0.00011
vn -0.06933 0.99759 0.00007
vn -0.15204 0.80943 -0.56719
vn -0.12132 0.64446 -0.75495
vn 0.81381 0.58114 -0.00022
vn 0.94147 0.33708 -0.00003
vn 0.85513 0.30988 -0.41561
vn 0.75088 0.53776 -0.38339
vn 0.73532 0.27095 -0.62121
vn 0.65692 0.47192 -0.58800
vn -0.14158 -0.09636 -0.98523
vn -0.15896 0.08966 -0.98321
vn 0.02252 -0.17237 -0.98477
vn -0.27563 -0.79855 -0.53511
vn -0.70343 -0.51582 -0.48899
vn -0.76208 -0.56189 -0.32174
vn -0.26443 -0.89651 -0.35546
vn 0.03836 -0.89907 -0.43613
vn 0.01417 -0.77885 -0.62705
vn -0.24628 -0.96920 -0.00023
vn 0.06100 -0.99814 0.00030
vn 0.16428 -0.98641 -0.00009
vn -0.45438 -0.89081 -0.00138
vn 0.99426 0.10700 0.00012
vn 0.99216 -0.12498 0.00024
vn 0.82551 -0.11331 -0.55290
vn 0.87099 0.09069 -0.48287
vn 0.30687 -0.02246 -0.95149
vn 0.70827 0.07080 -0.70238
vn -0.05806 0.12932 -0.98990
vn -0.32999 0.21002 -0.92033
vn -0.71325 0.30235 -0.63234
vn -0.72375 0.44596 -0.52659
vn -0.81108 0.37669 -0.44751
vn -0.93103 0.06165 -0.35969
vn -0.84403 0.02280 -0.53581
vn -0.89436 0.44734 -0.00072
vn -0.99484 0.10146 -0.00031
vn -0.98393 -0.17854 0.00150
vn -0.84142 0.54039 0.00036
vn 0.87964 -0.47563 0.00251
vn 0.85275 -0.45958 -0.24821
vn 0.74159 -0.67084 0.00431
vn 0.72628 -0.65235 -0.21669
vn -0.47603 -0.87943 -0.00125
vn -0.14444 -0.94889 0.28060
vn 0.10184 -0.96520 0.24085
vn 0.42814 -0.32477 0.84334
vn 0.16617 -0.25035 0.95379
vn 0.06559 -0.41033 0.90958
vn 0.30169 -0.47157 0.82862
vn -0.38638 -0.14341 0.91112
vn -0.35116 0.02207 0.93605
vn -0.75076 0.32961 0.57246
vn -0.56815 0.04622 0.82162
vn -0.91734 0.30898 0.25102
vn -0.65616 -0.69269 0.29939
vn -0.85979 -0.43732 0.26365
vn -0.41377 -0.10868 0.90387
vn -0.23095 -0.42486 0.87530
vn 0.05635 -0.37836 0.92394
vn -0.03395 0.17762 0.98351
vn -0.05121 0.33937 0.93926
vn -0.55020 -0.05281 0.83336
vn 0.17719 -0.36965 0.91212
vn 0.06571 0.25969 0.96345
vn -0.06687 -0.82634 0.55919
vn -0.64997 -0.51545 0.55843
vn -0.41883 -0.79861 0.43220
vn 0.35329 0.19818 0.91428
vn 0.82801 0.23123 0.51082
vn 0.76487 0.44200 0.46863
vn 0.24233 0.53310 0.81061
vn -0.73800 0.49576 0.45780
vn -0.81086 0.30574 0.49902
vn -0.65190 0.24256 0.71847
vn -0.61686 0.39719 0.67951
vn 0.02978 0.91813 0.39517
vn 0.02265 0.59111 0.80627
vn 0.00790 0.18948 0.98185
vn 0.84847 -0.01371 0.52907
vn 0.68263 -0.00734 0.73073
vn 0.69931 0.00185 0.71482
vn 0.85029 -0.00352 0.52630
vn 0.86102 0.04269 0.50678
vn 0.88671 0.09852 0.45171
vn 0.88686 0.28605 0.36286
vn 0.76208 0.10419 0.63905
vn 0.79028 0.28149 0.54426
vn 0.71900 0.04702 0.69342
vn 0.03745 -0.07477 0.99650
vn 0.07202 -0.12644 0.98936
vn 0.01890 -0.03307 0.99927
vn -0.82888 -0.17814 0.53031
vn -0.77489 -0.37554 0.50844
vn -0.62348 -0.30044 0.72181
vn -0.65575 -0.13549 0.74272
vn -0.66773 0.01211 0.74430
vn -0.84867 0.00980 0.52883
vn 0.00656 0.03640 0.99932
vn 0.65122 0.69768 0.29861
vn 0.10420 0.95349 0.28285
vn 0.59282 0.64999 0.47547
vn 0.10450 0.88162 0.46025
vn 0.13298 -0.08982 0.98704
vn -0.03882 0.00401 0.99924
vn 0.13650 -0.16347 0.97706
vn -0.54688 -0.75349 0.36494
vn -0.39402 -0.87655 0.27642
vn -0.37025 -0.82023 0.43604
vn -0.48603 -0.67555 0.55444
vn -0.56254 -0.48865 0.66691
vn -0.67595 -0.57847 0.45657
vn -0.26113 0.90939 0.32375
vn -0.35373 0.85068 0.38888
vn -0.23659 0.83460 0.49746
vn -0.31494 0.76235 0.56537
vn -0.17390 0.00186 0.98476
vn -0.14733 -0.01160 0.98902
vn -0.09116 -0.94910 0.30150
vn 0.00022 -0.92356 0.38344
vn 0.00305 -0.82608 0.56355
vn -0.08245 -0.88388 0.46039
vn -0.21204 -0.89245 0.39822
vn -0.22557 -0.94127 0.25123
vn -0.36277 0.82073 0.44137
vn -0.36083 0.80420 0.47230
vn -0.30949 0.71823 0.62318
vn -0.30220 0.69103 0.65662
vn -0.08910 -0.00429 0.99601
vn -0.06372 -0.00196 0.99797
vn 0.06606 -0.89349 0.44420
vn 0.12871 -0.87027 0.47546
vn 0.11254 -0.73509 0.66856
vn 0.06236 -0.76965 0.63542
vn 0.20191 -0.84704 0.49169
vn 0.27446 -0.82069 0.50113
vn 0.16934 -0.70918 0.68439
vn 0.22897 -0.68293 0.69368
vn 0.34697 -0.78930 0.50658
vn 0.28723 -0.65309 0.70069
vn -0.03273 0.00381 0.99946
vn -0.05338 -0.00249 0.99857
vn -0.01263 0.01306 0.99983
vn 0.00239 0.02581 0.99966
vn -0.37623 0.77736 0.50414
vn -0.37266 0.78225 0.49921
vn -0.31232 0.65971 0.68355
vn -0.31482 0.65192 0.68985
vn -0.31738 0.65274 0.68790
vn -0.37685 0.77793 0.50280
vn -0.33272 0.65631 0.67717
vn -0.38935 0.77776 0.49345
vn -0.42053 0.77345 0.47427
vn -0.49353 0.75414 0.43325
vn -0.70399 0.59553 0.38696
vn -0.44246 0.64709 0.62089
vn -0.63404 0.51656 0.57547
vn -0.36789 0.65528 0.65974
vn 0.02845 0.07659 0.99666
vn 0.01820 0.12864 0.99152
vn 0.01787 0.04672 0.99875
vn 0.51375 -0.69760 0.49942
vn 0.61663 -0.61630 0.48984
vn 0.50435 -0.50550 0.70007
vn 0.42084 -0.57444 0.70208
vn 0.34997 -0.61872 0.70336
vn 0.42640 -0.74975 0.50601
vn -0.36234 0.79332 0.48924
vn -0.30430 0.67397 0.67317
vn -0.93229 0.11239 0.34381
vn -0.81512 -0.50217 0.28881
vn -0.84298 0.09244 0.52994
vn -0.75292 -0.46764 0.46306
vn -0.16616 0.11293 0.97961
vn -0.20019 -0.02148 0.97952
vn -0.05161 0.17155 0.98382
vn 0.85842 -0.26514 0.43911
vn 0.90777 0.12843 0.39932
vn 0.77781 0.12900 0.61512
vn 0.72211 -0.21551 0.65735
vn 0.60607 -0.39852 0.68837
vn 0.73627 -0.48491 0.47198
vn -0.31496 -0.91053 0.26785
vn 0.17620 -0.94105 0.28876
vn -0.30108 -0.85042 0.43144
vn 0.15063 -0.88036 0.44976
vn -0.03785 -0.10263 0.99400
vn 0.16140 -0.06636 0.98466
vn 0.31418 0.91107 0.26691
vn 0.14334 0.94960 0.27876
vn 0.13036 0.89508 0.42641
vn 0.29268 0.85629 0.42557
vn 0.60412 0.59162 0.53389
vn 0.68692 0.64323 0.33823
vn 0.32971 -0.87065 0.36504
vn 0.33682 -0.83404 0.43697
vn 0.29307 -0.79099 0.53707
vn 0.29377 -0.73274 0.61384
vn 0.19801 -0.00581 0.98018
vn 0.15989 -0.00430 0.98712
vn 0.11106 0.92661 0.35925
vn 0.10592 0.88701 0.44943
vn 0.08494 0.77247 0.62935
vn 0.09083 0.84657 0.52448
vn 0.10384 0.84895 0.51817
vn 0.10365 0.81281 0.57323
vn 0.07618 0.70800 0.70209
vn 0.06623 0.64540 0.76097
vn 0.10408 0.77290 0.62593
vn 0.21855 -0.37903 0.89921
vn 0.13845 -0.02479 0.99006
vn 0.12737 -0.04880 0.99065
vn 0.34164 -0.78407 0.51818
vn 0.33207 -0.80983 0.48363
vn 0.28129 -0.69820 0.65833
vn 0.33484 -0.76436 0.55104
vn 0.22372 -0.78451 0.57835
vn -0.81250 -0.19700 0.54867
vn -0.88263 -0.15188 0.44486
vn -0.52317 -0.27488 0.80668
vn -0.76686 -0.53426 0.35566
vn -0.28925 -0.00960 0.95720
vn -0.15993 -0.06778 0.98480
vn -0.37691 -0.82040 0.42998
vn -0.40854 -0.87027 0.27519
vn -0.23060 -0.88928 0.39497
vn -0.24195 -0.93839 0.24677
vn -0.42291 -0.86338 0.27518
vn -0.79348 -0.51190 0.32917
vn -0.92741 -0.02858 0.37295
vn -0.71106 -0.47538 0.51808
vn -0.81799 -0.03455 0.57420
vn -0.38850 -0.80947 0.44026
vn 0.04133 -0.00690 0.99912
vn 0.08471 -0.03586 0.99576
vn -0.03343 -0.04297 0.99852
vn 0.22168 0.93130 0.28904
vn 0.45980 0.84186 0.28261
vn 0.43634 0.78224 0.44464
vn 0.21206 0.87562 0.43395
vn 0.20304 0.84728 0.49081
vn 0.20995 0.91484 0.34495
vn 0.23633 0.85515 0.46138
vn 0.23913 0.73775 0.63131
vn 0.21211 0.77508 0.59520
vn 0.14044 0.74405 0.65320
vn 0.17796 0.90296 0.39114
vn 0.15061 0.91266 0.37997
vn -0.85378 0.29080 0.43185
vn -0.71922 0.49481 0.48775
vn -0.72630 0.24284 0.64305
vn -0.59118 0.40082 0.69989
vn -0.05563 -0.14694 0.98758
vn -0.10411 -0.10812 0.98867
vn 0.04256 -0.11838 0.99206
vn 0.90263 -0.23094 0.36321
vn 0.59672 -0.68467 0.41852
vn 0.53077 -0.57904 0.61887
vn 0.80230 -0.19460 0.56431
vn 0.77196 0.38801 0.50351
vn 0.84685 0.42777 0.31601
vn -0.57862 0.62770 0.52077
vn -0.44873 0.71050 0.54206
vn -0.47018 0.50240 0.72563
vn -0.36003 0.56670 0.74110
vn -0.09738 -0.06207 0.99331
vn -0.06711 -0.03482 0.99714
vn 0.23556 -0.81323 0.53213
vn 0.20607 -0.80124 0.56173
vn 0.17297 -0.64508 0.74428
vn 0.20437 -0.66175 0.72134
vn 0.28994 -0.67674 0.67672
vn 0.32611 -0.81417 0.48039
vn -0.32792 0.76223 0.55809
vn -0.22889 0.79193 0.56609
vn -0.26027 0.60504 0.75245
vn -0.18226 0.63003 0.75488
vn -0.04662 -0.02105 0.99869
vn -0.02380 -0.00930 0.99967
vn 0.18525 -0.79567 0.57671
vn 0.16943 -0.79578 0.58139
vn 0.13213 -0.63946 0.75738
vn 0.14714 -0.63876 0.75521
vn 0.21262 -0.90648 0.36480
vn 0.19711 -0.90691 0.37237
vn 0.19096 -0.90855 0.37157
vn 0.16720 -0.79641 0.58118
vn 0.18506 -0.91261 0.36454
vn 0.16217 -0.80148 0.57562
vn 0.13388 -0.63881 0.75763
vn 0.12997 -0.64432 0.75363
vn 0.15430 -0.81220 0.56260
vn 0.12152 -0.65842 0.74277
vn 0.03207 0.00353 0.99948
vn 0.00776 0.00025 0.99997
vn 0.05355 0.00431 0.99856
vn 0.07554 -0.00095 0.99714
vn 0.03037 0.83518 0.54914
vn -0.05696 0.82512 0.56208
vn -0.04505 0.65870 0.75105
vn 0.02607 0.67543 0.73696
vn 0.07823 0.68677 0.72265
vn 0.09379 0.84036 0.53386
vn 0.13800 0.69268 0.70792
vn 0.16809 0.84129 0.51379
vn 0.26501 0.83264 0.48630
vn 0.40670 0.79790 0.44492
vn 0.58201 0.70790 0.40017
vn 0.34464 0.67503 0.65235
vn 0.50781 0.60964 0.60866
vn 0.21679 0.69278 0.68780
vn 0.11616 -0.03198 0.99272
vn 0.11495 -0.09099 0.98919
vn 0.09620 -0.01143 0.99530
vn 0.15140 -0.84111 0.51923
vn 0.13674 -0.86196 0.48820
vn 0.10767 -0.72821 0.67684
vn 0.12202 -0.69945 0.70419
vn 0.12232 -0.67721 0.72555
vn 0.15353 -0.82556 0.54304
vn -0.15204 0.80942 0.56721
vn -0.12137 0.64459 0.75484
vn 0.75107 0.53774 0.38305
vn 0.85415 0.31178 0.41619
vn 0.65703 0.47211 0.58773
vn 0.73340 0.27369 0.62227
vn -0.14958 -0.10289 0.98338
vn -0.15894 0.08306 0.98379
vn 0.01661 -0.17181 0.98499
vn -0.26372 -0.89639 0.35630
vn -0.76375 -0.55947 0.32198
vn -0.70834 -0.50883 0.48923
vn -0.27204 -0.79815 0.53754
vn 0.01775 -0.78188 0.62317
vn 0.03904 -0.89995 0.43423
vn 0.87078 0.09021 0.48332
vn 0.82509 -0.11395 0.55340
vn 0.70787 0.06899 0.70297
vn 0.30648 -0.02325 0.95159
vn -0.05255 0.12330 0.99098
vn -0.33009 0.21076 0.92012
vn -0.81004 0.37678 0.44930
vn -0.72378 0.44614 0.52641
vn -0.71126 0.29819 0.63655
vn -0.84405 0.01667 0.53601
vn -0.93102 0.06022 0.35998
vn 0.85034 -0.46128 0.25327
vn 0.72026 -0.65617 0.22510
f 1//1 6//2 5//3 7//4
f 1//5 7//6 8//7 9//8
f 2//9 11//10 12//11 13//12
f 2//13 301//14 302//15 11//10
f 2//16 13//17 10//18 301//19
f 3//20 14//21 15//22 16//23
f 3//20 16//23 17//24 18//25
f 3//20 19//26 20//27 14//21
f 21//28 22//29 15//22 23//30
f 24//31 25//32 26//33 27//34
f 4//35 28//36 29//37 30//38
f 4//39 30//40 25//40 24//31
f 4//39 24//31 27//34 28//41
f 30//38 29//37 303//42 304//43
f 30//40 304//44 31//44 25//40
f 31//45 32//46 26//33 25//32
f 32//46 305//47 33//48 26//33
f 33//48 34//49 35//50 36//51
f 33//48 36//51 27//34 26//33
f 33//48 305//47 306//52 34//49
f 306//52 37//53 38//54 34//49
f 39//55 40//56 41//57 42//58
f 39//55 42//58 38//54 37//53
f 42//58 41//57 43//59 44//60
f 42//58 44//60 45//61 38//54
f 45//62 44//63 46//63 47//62
f 45//62 47//62 48//64 35//64
f 45//61 35//50 34//49 38//54
f 48//65 47//66 49//67 50//68
f 48//65 50//68 51//69 52//70
f 48//64 52//71 36//71 35//64
f 52//70 51//69 29//37 28//36
f 52//71 28//41 27//34 36//71
f 51//69 50//68 53//72 54//73
f 51//69 54//73 303//42 29//37
f 55//74 307//75 56//76 57//77
f 55//78 57//77 41//57 40//56
f 57//77 56//76 58//79 59//80
f 57//77 59//80 43//59 41//57
f 59//81 58//82 60//82 61//81
f 59//81 61//81 62//83 43//83
f 62//84 61//85 63//86 64//87
f 62//84 64//87 65//88 46//89
f 62//83 46//63 44//63 43//83
f 65//88 64//87 308//90 66//91
f 65//88 66//91 67//92 49//67
f 65//88 49//67 47//66 46//89
f 67//92 53//72 50//68 49//67
f 308//90 64//87 63//86 309//93
f 311//94 310//95 69//96 70//97
f 311//94 70//97 56//76 307//75
f 70//97 69//96 71//98 72//99
f 70//97 72//99 58//79 56//76
f 72//100 71//101 73//101 74//100
f 72//100 74//100 60//82 58//82
f 74//102 73//103 75//104 76//105
f 74//102 76//105 77//106 60//107
f 77//106 76//105 312//108 68//109
f 77//106 68//109 309//93 63//86
f 77//106 63//86 61//85 60//107
f 312//108 76//105 75//104 313//110
f 314//111 79//112 80//113 81//114
f 314//111 81//114 69//96 310//95
f 81//114 80//113 82//115 83//116
f 81//114 83//116 71//98 69//96
f 83//117 82//118 84//118 85//117
f 83//117 85//117 73//101 71//101
f 85//119 84//120 86//121 87//122
f 85//119 87//122 75//104 73//103
f 87//122 86//121 88//123 78//124
f 87//122 78//124 313//110 75//104
f 88//123 86//121 89//125 315//126
f 89//125 90//127 91//128 315//126
f 89//125 86//121 84//120 92//129
f 89//125 92//129 93//130 90//127
f 93//130 94//131 95//132 90//127
f 93//133 92//134 96//134 97//133
f 93//133 97//133 98//135 94//135
f 98//135 99//136 100//136 94//135
f 98//137 97//138 101//139 102//140
f 98//137 102//140 103//141 99//142
f 103//141 104//143 105//144 99//142
f 103//141 102//140 316//145 317//146
f 103//141 317//146 318//147 104//143
f 318//147 106//148 107//149 104//143
f 108//150 109//151 110//152 111//153
f 108//150 111//153 107//149 106//148
f 111//153 110//152 112//154 113//155
f 111//153 113//155 114//156 107//149
f 114//157 113//158 115//158 116//157
f 114//157 116//157 117//159 105//159
f 114//156 105//144 104//143 107//149
f 117//160 116//161 118//162 119//163
f 117//160 119//163 120//164 100//165
f 117//159 100//136 99//136 105//159
f 120//164 119//163 319//166 320//167
f 120//164 320//167 121//168 95//132
f 120//164 95//132 94//131 100//165
f 121//168 91//128 90//127 95//132
f 122//169 321//170 101//139 123//171
f 122//169 123//171 80//113 79//112
f 123//171 101//139 97//138 96//172
f 123//171 96//172 82//115 80//113
f 321//170 316//145 102//140 101//139
f 323//173 322//174 124//175 125//176
f 323//177 125//176 110//152 109//151
f 125//176 124//175 126//178 127//179
f 125//176 127//179 112//154 110//152
f 127//180 126//181 128//181 129//180
f 127//180 129//180 130//182 112//182
f 130//183 129//184 131//185 132//186
f 130//183 132//186 133//187 115//188
f 130//182 115//158 113//158 112//182
f 133//187 132//186 324//189 134//190
f 133//187 134//190 135//191 118//162
f 133//187 118//162 116//161 115//188
f 135//191 319//166 119//163 118//162
f 324//189 132//186 131//185 325//192
f 138//193 137//194 139//195 140//196
f 138//197 140//196 124//175 322//174
f 140//196 139//195 141//198 142//199
f 140//196 142//199 126//178 124//175
f 142//200 141//201 143//201 144//200
f 142//200 144//200 128//181 126//181
f 144//202 143//203 145//204 146//205
f 144//202 146//205 147//206 128//207
f 147//206 146//205 326//208 136//209
f 147//206 136//209 325//192 131//185
f 147//206 131//185 129//184 128//207
f 326//208 146//205 145//204 327//210
f 329//211 328//212 149//213 150//214
f 329//211 150//214 139//195 137//194
f 150//214 149//213 151//215 152//216
f 150//214 152//216 141//198 139//195
f 152//217 151//218 153//218 154//217
f 152//217 154//217 143//201 141//201
f 154//219 153//220 155//221 156//222
f 154//219 156//222 145//204 143//203
f 156//222 155//221 157//223 148//224
f 156//222 148//224 327//210 145//204
f 157//223 155//221 159//225 158//226
f 159//225 160//227 161//228 158//226
f 159//225 155//221 153//220 162//229
f 159//225 162//229 163//230 160//227
f 163//230 19//26 164//231 160//227
f 163//232 162//233 165//233 166//234
f 163//232 166//234 20//27 19//26
f 166//234 165//235 167//236 168//237
f 166//234 168//237 169//238 20//27
f 169//238 170//239 14//21 20//27
f 169//238 168//237 330//240 331//241
f 169//238 331//241 332//242 170//239
f 332//242 333//243 23//30 170//239
f 334//244 330//240 168//237 167//236
f 334//244 167//236 149//213 328//212
f 173//245 337//246 175//247 176//248
f 173//245 176//248 22//29 174//249
f 176//248 175//247 17//24 16//23
f 176//248 16//23 15//22 22//29
f 175//247 177//250 178//251 17//24
f 175//247 337//246 338//252 177//250
f 178//251 179//253 180//253 181//254
f 178//251 181//254 18//25 17//24
f 178//251 177//250 182//255 179//256
f 182//255 183//257 184//258 179//256
f 182//255 177//250 338//259 339//260
f 182//255 339//260 340//261 183//257
f 340//261 185//262 186//263 183//257
f 187//264 188//265 189//266 190//267
f 187//264 190//267 186//263 185//262
f 190//267 189//266 191//268 192//269
f 190//267 192//269 193//270 186//263
f 193//271 192//272 194//272 195//271
f 193//271 195//271 196//273 184//273
f 193//270 184//258 183//257 186//263
f 196//274 195//275 197//276 198//277
f 196//274 198//277 199//278 180//279
f 196//273 180//253 179//253 184//273
f 199//278 198//277 341//280 200//281
f 199//278 200//281 172//282 201//283
f 199//278 201//283 181//284 180//279
f 201//283 172//282 336//285 202//286
f 201//283 202//286 18//25 181//284
f 202//286 336//285 171//287 203//288
f 202//286 203//288 3//20 18//25
f 203//288 171//287 335//289 164//231
f 203//288 164//231 19//26 3//20
f 204//290 342//291 205//292 206//293
f 204//290 206//293 189//266 188//265
f 206//293 205//292 207//294 208//295
f 206//293 208//295 191//268 189//266
f 208//296 207//297 209//297 210//296
f 208//296 210//296 211//298 191//298
f 211//299 210//300 212//301 213//302
f 211//299 213//302 214//303 194//304
f 211//298 194//272 192//272 191//298
f 214//303 213//302 215//305 216//305
f 214//303 216//306 343//307 197//276
f 214//303 197//276 195//275 194//304
f 215//308 213//302 212//301 217//309
f 345//310 344//311 219//312 220//313
f 345//310 220//313 205//292 342//291
f 220//313 219//312 221//314 222//315
f 220//313 222//315 207//294 205//292
f 222//316 221//317 223//317 224//316
f 222//316 224//316 209//297 207//297
f 224//318 223//319 225//320 226//321
f 224//318 226//321 227//322 209//323
f 227//322 226//321 228//324 218//325
f 227//322 218//325 217//309 212//301
f 227//322 212//301 210//300 209//323
f 228//324 226//321 225//320 346//326
f 348//327 347//328 230//329 231//330
f 348//327 231//330 219//312 344//311
f 231//330 230//329 232//331 233//332
f 231//330 233//332 221//314 219//312
f 233//333 232//334 234//334 235//333
f 233//333 235//333 223//317 221//317
f 235//335 234//336 236//337 237//338
f 235//335 237//338 225//320 223//319
f 237//338 236//337 238//339 229//340
f 237//338 229//340 346//326 225//320
f 238//339 236//337 240//341 239//342
f 240//341 241//343 242//344 239//342
f 240//341 236//337 234//336 243//345
f 240//341 243//345 244//346 241//343
f 244//346 245//347 246//348 241//343
f 244//349 243//350 247//350 248//349
f 244//349 248//349 249//351 245//351
f 249//351 250//352 251//352 245//351
f 249//353 248//354 252//355 253//356
f 249//353 253//356 254//357 250//358
f 254//357 255//359 256//360 250//358
f 254//357 253//356 349//361 257//362
f 254//357 257//362 258//363 255//359
f 258//363 259//364 260//365 255//359
f 261//366 262//367 263//368 264//369
f 261//366 264//369 260//365 259//364
f 264//369 263//368 265//370 266//371
f 264//369 266//371 267//372 260//365
f 267//373 266//374 268//374 269//373
f 267//373 269//373 270//375 256//375
f 267//372 256//360 255//359 260//365
f 270//376 269//377 271//378 272//379
f 270//376 272//379 273//380 251//381
f 270//375 251//352 250//352 256//375
f 273//380 272//379 350//382 274//383
f 273//380 274//383 275//384 246//348
f 273//380 246//348 245//347 251//381
f 275//384 242//344 241//343 246//348
f 352//385 351//386 252//355 276//387
f 352//385 276//387 230//329 347//328
f 276//387 252//355 248//354 247//388
f 276//387 247//388 232//331 230//329
f 351//386 349//361 253//356 252//355
f 278//389 277//390 279//391 280//392
f 278//389 280//392 263//368 262//367
f 280//392 279//391 281//393 282//394
f 280//392 282//394 265//370 263//368
f 282//395 281//396 283//396 284//395
f 282//395 284//395 285//397 265//397
f 285//398 284//399 286//400 287//401
f 285//398 287//401 288//402 268//403
f 285//397 268//374 266//374 265//397
f 288//402 287//401 353//404 354//405
f 288//402 354//405 355//406 271//378
f 288//402 271//378 269//377 268//403
f 355//406 350//382 272//379 271//378
f 353//404 287//401 286//400 289//407
f 357//408 356//409 291//410 292//411
f 357//408 292//411 279//391 277//390
f 292//411 291//410 293//412 294//413
f 292//411 294//413 281//393 279//391
f 294//414 293//412 295//415 296//414
f 294//414 296//414 283//396 281//396
f 296//416 295//415 297//417 298//418
f 296//416 298//418 299//419 283//420
f 299//419 298//418 358//421 290//422
f 299//419 290//422 289//423 286//400
f 299//419 286//400 284//399 283//420
f 358//421 298//418 297//417 359//424
f 359//424 297//417 11//10 302//15
f 297//417 295//415 12//11 11//10
f 295//415 293//412 8//7 12//11
f 293//412 291//410 9//8 8//7
f 291//410 356//409 360//425 9//426
f 360//425 6//427 1//428 9//426
f 247//350 243//350 234//334 232//334
f 343//307 341//280 198//277 197//276
f 174//249 22//29 21//28 300//429
f 300//429 21//28 23//30 333//243
f 335//289 161//228 160//227 164//231
f 170//239 23//30 15//22 14//21
f 167//236 165//235 151//215 149//213
f 165//233 162//233 153//218 151//218
f 96//134 92//134 84//118 82//118
f 13//12 12//11 8//7 7//6
f 13//17 7//4 5//3 10//18
f 365//430 5//3 6//2 361//431
f 367//432 366//433 365//434 361//435
f 370//436 369//437 368//438 362//439
f 368//438 302//15 301//14 362//440
f 301//19 10//18 370//441 362//442
f 373//443 372//444 371//445 363//446
f 375//447 374//448 373//443 363//446
f 371//445 377//449 376//450 363//446
f 380//451 372//444 379//452 378//453
f 384//454 383//455 382//456 381//457
f 387//458 386//459 385//460 364//461
f 381//457 382//462 387//462 364//463
f 385//464 384//454 381//457 364//463
f 304//43 303//42 386//459 387//458
f 382//462 31//44 304//44 387//462
f 382//456 383//455 32//46 31//45
f 383//455 388//465 305//47 32//46
f 391//466 390//467 389//468 388//465
f 383//455 384//454 391//466 388//465
f 389//468 306//52 305//47 388//465
f 389//468 392//469 37//53 306//52
f 394//470 393//471 40//56 39//55
f 37//53 392//469 394//470 39//55
f 396//472 395//473 393//471 394//470
f 392//469 397//474 396//472 394//470
f 399//475 398//476 396//476 397//475
f 390//477 400//477 399//475 397//475
f 392//469 389//468 390//467 397//474
f 402//478 401//479 399//480 400//481
f 404//482 403//483 402//478 400//481
f 390//477 391//484 404//484 400//477
f 385//460 386//459 403//483 404//482
f 391//484 384//454 385//464 404//484
f 54//73 53//72 402//478 403//483
f 386//459 303//42 54//73 403//483
f 406//485 405//486 307//75 55//74
f 40//56 393//471 406//485 55//78
f 408//487 407//488 405//486 406//485
f 393//471 395//473 408//487 406//485
f 410//489 409//490 407//490 408//489
f 395//491 411//491 410//489 408//489
f 413//492 412//493 410//494 411//495
f 398//496 414//497 413//492 411//495
f 395//491 396//476 398//476 411//491
f 66//91 308//90 413//492 414//497
f 401//479 67//92 66//91 414//497
f 398//496 399//480 401//479 414//497
f 401//479 402//478 53//72 67//92
f 309//93 412//493 413//492 308//90
f 416//498 415//499 310//95 311//94
f 307//75 405//486 416//498 311//94
f 418//500 417//501 415//499 416//498
f 405//486 407//488 418//500 416//498
f 420//502 419//503 417//503 418//502
f 407//490 409//490 420//502 418//502
f 422//504 421//505 419//506 420//507
f 409//508 423//509 422//504 420//507
f 68//109 312//108 422//504 423//509
f 412//493 309//93 68//109 423//509
f 409//508 410//494 412//493 423//509
f 313//110 421//505 422//504 312//108
f 425//510 424//511 79//112 314//111
f 310//95 415//499 425//510 314//111
f 427//512 426//513 424//511 425//510
f 415//499 417//501 427//512 425//510
f 429//514 428//515 426//515 427//514
f 417//503 419//503 429//514 427//514
f 431//516 430//517 428//518 429//519
f 419//506 421//505 431//516 429//519
f 78//124 88//123 430//517 431//516
f 421//505 313//110 78//124 431//516
f 315//126 432//520 430//517 88//123
f 315//126 91//128 433//521 432//520
f 434//522 428//518 430//517 432//520
f 433//521 435//523 434//522 432//520
f 433//521 437//524 436//525 435//523
f 439//526 438//527 434//527 435//526
f 436//528 440//528 439//526 435//526
f 436//528 442//529 441//529 440//528
f 444//530 443//531 439//532 440//533
f 441//534 445//535 444//530 440//533
f 441//534 447//536 446//537 445//535
f 317//146 316//145 444//530 445//535
f 446//537 318//147 317//146 445//535
f 446//537 448//538 106//148 318//147
f 450//539 449//540 109//151 108//150
f 106//148 448//538 450//539 108//150
f 452//541 451//542 449//540 450//539
f 448//538 453//543 452//541 450//539
f 455//544 454//545 452//545 453//544
f 447//546 456//546 455//544 453//544
f 448//538 446//537 447//536 453//543
f 458//547 457//548 455//549 456//550
f 442//551 459//552 458//547 456//550
f 447//546 441//529 442//529 456//546
f 320//167 319//166 458//547 459//552
f 437//524 121//168 320//167 459//552
f 442//551 436//525 437//524 459//552
f 437//524 433//521 91//128 121//168
f 460//553 443//531 321//170 122//169
f 79//112 424//511 460//553 122//169
f 438//554 439//532 443//531 460//553
f 424//511 426//513 438//554 460//553
f 443//531 444//530 316//145 321//170
f 462//555 461//556 322//174 323//173
f 109//151 449//540 462//555 323//177
f 464//557 463//558 461//556 462//555
f 449//540 451//542 464//557 462//555
f 466//559 465//560 463//560 464//559
f 451//561 467//561 466//559 464//559
f 469//562 468//563 466//564 467//565
f 454//566 470//567 469//562 467//565
f 451//561 452//545 454//545 467//561
f 134//190 324//189 469//562 470//567
f 457//548 135//191 134//190 470//567
f 454//566 455//549 457//548 470//567
f 457//548 458//547 319//166 135//191
f 325//192 468//563 469//562 324//189
f 472//568 471//569 137//194 138//193
f 322//174 461//556 472//568 138//197
f 474//570 473//571 471//569 472//568
f 461//556 463//558 474//570 472//568
f 476//572 475//573 473//573 474//572
f 463//560 465//560 476//572 474//572
f 478//574 477//575 475//576 476//577
f 465//578 479//579 478//574 476//577
f 136//209 326//208 478//574 479//579
f 468//563 325//192 136//209 479//579
f 465//578 466//564 468//563 479//579
f 327//210 477//575 478//574 326//208
f 481//580 480//581 328//212 329//211
f 137//194 471//569 481//580 329//211
f 483//582 482//583 480//581 481//580
f 471//569 473//571 483//582 481//580
f 485//584 484//585 482//585 483//584
f 473//573 475//573 485//584 483//584
f 487//586 486//587 484//588 485//589
f 475//576 477//575 487//586 485//589
f 148//224 157//223 486//587 487//586
f 477//575 327//210 148//224 487//586
f 158//226 488//590 486//587 157//223
f 158//226 161//228 489//591 488//590
f 490//592 484//588 486//587 488//590
f 489//591 491//593 490//592 488//590
f 489//591 492//594 376//450 491//593
f 494//595 493//596 490//596 491//597
f 376//450 377//449 494//595 491//597
f 496//598 495//599 493//600 494//595
f 377//449 497//601 496//598 494//595
f 377//449 371//445 498//602 497//601
f 331//241 330//240 496//598 497//601
f 498//602 332//242 331//241 497//601
f 498//602 380//451 333//243 332//242
f 495//599 496//598 330//240 334//244
f 328//212 480//581 495//599 334//244
f 500//603 499//604 337//246 173//245
f 174//249 379//452 500//603 173//245
f 373//443 374//448 499//604 500//603
f 379//452 372//444 373//443 500//603
f 374//448 502//605 501//606 499//604
f 501//606 338//252 337//246 499//604
f 505//607 504//608 503//608 502//605
f 374//448 375//447 505//607 502//605
f 503//609 506//610 501//606 502//605
f 503//609 508//611 507//612 506//610
f 339//260 338//259 501//606 506//610
f 507//612 340//261 339//260 506//610
f 507//612 509//613 185//262 340//261
f 511//614 510//615 188//265 187//264
f 185//262 509//613 511//614 187//264
f 513//616 512//617 510//615 511//614
f 509//613 514//618 513//616 511//614
f 516//619 515//620 513//620 514//619
f 508//621 517//621 516//619 514//619
f 509//613 507//612 508//611 514//618
f 519//622 518//623 516//624 517//625
f 504//626 520//627 519//622 517//625
f 508//621 503//608 504//608 517//621
f 200//281 341//280 519//622 520//627
f 521//628 172//282 200//281 520//627
f 504//626 505//629 521//628 520//627
f 522//630 336//285 172//282 521//628
f 505//629 375//447 522//630 521//628
f 523//631 171//632 336//285 522//630
f 375//447 363//446 523//631 522//630
f 492//594 335//633 171//632 523//631
f 363//446 376//450 492//594 523//631
f 525//634 524//635 342//291 204//290
f 188//265 510//615 525//634 204//290
f 527//636 526//637 524//635 525//634
f 510//615 512//617 527//636 525//634
f 529//638 528//639 526//639 527//638
f 512//640 530//640 529//638 527//638
f 532//641 531//642 529//643 530//644
f 515//645 533//646 532//641 530//644
f 512//640 513//620 515//620 530//640
f 216//305 215//305 532//641 533//646
f 518//623 343//307 216//306 533//646
f 515//645 516//624 518//623 533//646
f 217//309 531//642 532//641 215//308
f 535//647 534//648 344//311 345//310
f 342//291 524//635 535//647 345//310
f 537//649 536//650 534//648 535//647
f 524//635 526//637 537//649 535//647
f 539//651 538//652 536//652 537//651
f 526//639 528//639 539//651 537//651
f 541//653 540//654 538//655 539//656
f 528//657 542//658 541//653 539//656
f 218//325 228//324 541//653 542//658
f 531//642 217//309 218//325 542//658
f 528//657 529//643 531//642 542//658
f 346//326 540//654 541//653 228//324
f 544//659 543//660 347//328 348//327
f 344//311 534//648 544//659 348//327
f 546//661 545//662 543//660 544//659
f 534//648 536//650 546//661 544//659
f 548//663 547//664 545//664 546//663
f 536//652 538//652 548//663 546//663
f 550//665 549//666 547//667 548//668
f 538//655 540//654 550//665 548//668
f 229//669 238//670 549//666 550//665
f 540//654 346//326 229//669 550//665
f 239//671 551//672 549//666 238//670
f 239//671 242//673 552//674 551//672
f 553//675 547//667 549//666 551//672
f 552//674 554//676 553//675 551//672
f 552//674 556//677 555//678 554//676
f 558//679 557//680 553//680 554//679
f 555//681 559//681 558//679 554//679
f 555//681 561//682 560//682 559//681
f 563//683 562//684 558//685 559//686
f 560//687 564//688 563//683 559//686
f 560//687 566//689 565//690 564//688
f 257//362 349//361 563//683 564//688
f 565//690 258//363 257//362 564//688
f 565//690 567//691 259//364 258//363
f 569//692 568//693 262//367 261//366
f 259//364 567//691 569//692 261//366
f 571//694 570//695 568//693 569//692
f 567//691 572//696 571//694 569//692
f 574//697 573//698 571//698 572//697
f 566//699 575//699 574//697 572//697
f 567//691 565//690 566//689 572//696
f 577//700 576//701 574//702 575//703
f 561//704 578//705 577//700 575//703
f 566//699 560//682 561//682 575//699
f 274//383 350//382 577//700 578//705
f 556//677 275//384 274//383 578//705
f 561//704 555//678 556//677 578//705
f 556//677 552//674 242//673 275//384
f 579//706 562//684 351//386 352//385
f 347//328 543//660 579//706 352//385
f 557//707 558//685 562//684 579//706
f 543//660 545//662 557//707 579//706
f 562//684 563//683 349//361 351//386
f 581//708 580//709 277//390 278//389
f 262//367 568//693 581//708 278//389
f 583//710 582//711 580//709 581//708
f 568//693 570//695 583//710 581//708
f 585//712 584//713 582//713 583//712
f 570//714 586//714 585//712 583//712
f 588//715 587//716 585//717 586//718
f 573//719 589//720 588//715 586//718
f 570//714 571//698 573//698 586//714
f 354//405 353//404 588//715 589//720
f 576//701 355//406 354//405 589//720
f 573//719 574//702 576//701 589//720
f 576//701 577//700 350//382 355//406
f 289//407 587//716 588//715 353//404
f 591//721 590//722 356//409 357//408
f 277//390 580//709 591//721 357//408
f 593//723 592//724 590//722 591//721
f 580//709 582//711 593//723 591//721
f 595//725 594//726 592//724 593//725
f 582//713 584//713 595//725 593//725
f 597//727 596//728 594//726 595//729
f 584//730 598//731 597//727 595//729
f 290//422 358//421 597//727 598//731
f 587//716 289//423 290//422 598//731
f 584//730 585//717 587//716 598//731
f 359//424 596//728 597//727 358//421
f 302//15 368//438 596//728 359//424
f 368//438 369//437 594//726 596//728
f 369//437 366//433 592//724 594//726
f 366//433 367//432 590//722 592//724
f 367//732 360//425 356//409 590//722
f 367//732 361//733 6//427 360//425
f 545//664 547//664 553//680 557//680
f 518//623 519//622 341//280 343//307
f 300//429 378//453 379//452 174//249
f 333//243 380//451 378//453 300//429
f 492//594 489//591 161//228 335//633
f 371//445 372//444 380//451 498//602
f 480//581 482//583 493//600 495//599
f 482//585 484//585 490//596 493//596
f 426//515 428//515 434//527 438//527
f 365//434 366//433 369//437 370//436
f 10//18 5//3 365//430 370//441
