# pilowlava3D glyph 's' variant 3 — Vincent Wagner / Velvetyne, Free Art License
v 0.62108 1.76388 -0.36925
v 1.76564 1.92068 -0.48156
v 3.47192 2.55185 -0.31453
v 3.34578 2.67602 -0.20694
v 1.59421 1.52921 -0.36539
v 0.72433 1.85455 -0.25232
v 0.80142 1.56437 -0.23021
v 0.62781 1.54432 -0.39807
v 0.36774 1.52491 -0.44158
v 0.41824 1.78250 -0.40661
v 0.46696 1.98231 -0.27469
v 1.82700 1.55777 -0.41601
v 1.50194 1.74712 -0.39995
v 2.08594 1.96544 -0.48172
v 2.11699 1.65666 -0.43051
v 1.43716 2.01966 -0.38789
v 1.57692 2.14716 -0.42885
v 3.68159 2.51161 -0.35311
v 3.60219 2.29215 -0.31399
v 3.50096 2.32751 -0.23059
v 3.57588 2.80325 -0.38420
v 3.79518 2.71219 -0.38814
v 3.40131 2.88405 -0.23202
v 3.30029 2.63982 -0.00000
v 3.40900 2.47450 -0.00000
v 1.53026 1.41781 -0.22923
v 1.34344 1.67292 -0.23002
v 1.86073 1.35827 -0.24112
v 0.25299 1.94638 -0.23710
v 0.16245 1.76639 -0.28600
v 0.11285 1.51266 -0.28401
v 0.00000 1.51620 -0.00000
v 0.05598 1.77968 -0.00000
v 0.21193 1.99316 -0.00000
v 0.49245 2.06766 -0.00000
v 0.86522 1.31673 -0.00000
v 0.78410 1.31168 -0.22385
v 0.86244 1.08464 -0.00000
v 0.44124 0.40212 -0.00000
v 0.70454 0.22408 -0.00000
v 0.99471 0.10246 -0.00000
v 0.48158 0.43556 -0.21306
v 0.72346 0.24037 -0.16974
v 1.00064 0.11449 -0.14824
v 0.78499 0.30096 -0.29130
v 1.02167 0.16569 -0.25972
v 1.28912 0.11904 -0.27252
v 1.29124 0.05290 -0.15664
v 1.29048 0.03539 -0.00000
v 1.57271 0.04149 -0.18883
v 0.91971 0.45221 -0.00000
v 0.83215 0.63250 -0.19693
v 0.80280 0.85375 -0.21645
v 0.79286 1.07969 -0.22293
v 0.65053 0.82037 -0.36160
v 0.61372 1.05206 -0.38798
v 0.60347 1.29234 -0.39767
v 0.37080 1.00152 -0.40964
v 0.34396 1.26374 -0.43383
v 0.16446 0.94717 -0.25298
v 0.10815 1.23613 -0.27078
v 0.29303 0.67253 -0.23665
v 0.45351 0.75093 -0.37900
v 0.59274 0.51119 -0.34176
v 0.72412 0.58451 -0.33125
v 0.85921 0.38108 -0.28110
v 0.90498 0.43474 -0.15199
v 1.07004 0.29662 -0.12996
v 1.05339 0.25261 -0.24352
v 1.29353 0.29917 -0.14814
v 1.28967 0.22542 -0.26640
v 1.51852 0.36833 -0.18572
v 1.53741 0.26774 -0.30799
v 1.55818 0.14157 -0.31109
v 1.78644 0.33004 -0.33728
v 1.81927 0.18221 -0.34182
v 1.84219 0.05395 -0.21788
v 2.07954 0.23156 -0.36181
v 2.11211 0.08134 -0.22784
v 1.07458 0.30791 -0.00000
v 1.75108 0.45309 -0.21162
v 1.95116 0.60863 -0.00000
v 1.97911 0.54663 -0.21962
v 2.02985 0.40403 -0.35720
v 2.20407 0.64939 -0.22354
v 2.26759 0.48998 -0.37144
v 2.33334 0.29408 -0.37601
v 2.50070 0.58431 -0.38214
v 2.58405 0.37029 -0.38696
v 2.64529 0.19380 -0.23203
v 2.38023 0.12534 -0.22942
v 2.66623 0.12101 -0.00000
v 2.39340 0.05535 -0.00000
v 2.17274 0.71577 -0.00000
v 2.42732 0.75363 -0.22728
v 2.61595 0.92964 -0.00000
v 2.64943 0.85793 -0.22946
v 2.72983 0.68509 -0.38753
v 2.86870 0.96606 -0.23137
v 2.95506 0.79391 -0.39036
v 3.06638 0.57570 -0.39442
v 2.82915 0.46404 -0.39354
v 3.15758 0.40071 -0.23458
v 2.90627 0.28400 -0.23469
v 3.19507 0.32928 -0.00000
v 2.93446 0.21044 -0.00000
v 2.83508 1.03739 -0.00000
v 3.08705 1.07217 -0.22794
v 3.26593 1.24539 -0.00000
v 4.17403 1.47343 -0.00000
v 4.13588 1.83596 -0.00000
v 4.02011 1.17393 -0.22597
v 4.13133 1.48468 -0.20964
v 4.10565 1.82736 -0.18732
v 4.02397 1.50952 -0.31567
v 4.01802 1.80308 -0.29141
v 3.84596 2.02048 -0.27838
v 3.89014 2.07048 -0.17715
v 3.90359 2.08521 -0.00000
v 3.69102 2.18605 -0.18330
v 3.71356 2.18902 -0.00000
v 3.68753 1.41063 -0.20708
v 3.50407 1.28635 -0.22132
v 3.29868 1.18099 -0.22453
v 3.59387 1.16777 -0.35877
v 3.39172 1.03169 -0.37666
v 3.17685 0.90833 -0.38607
v 3.51744 0.85185 -0.38383
v 3.29698 0.70276 -0.39378
v 3.63043 0.70796 -0.23498
v 3.40091 0.53883 -0.23620
v 3.44473 0.47430 -0.00000
v 3.84328 0.91376 -0.23344
v 3.72227 1.02789 -0.36908
v 3.89824 1.24536 -0.34428
v 3.77754 1.33533 -0.33632
v 3.89838 1.54481 -0.30372
v 3.81824 1.56391 -0.17695
v 3.83876 1.75414 -0.15798
v 3.90030 1.76727 -0.27567
v 3.73358 1.92491 -0.15576
v 3.77672 1.95514 -0.27361
v 3.50284 1.94812 -0.00000
v 3.50977 1.97420 -0.17438
v 3.52023 2.04734 -0.29515
v 3.24576 1.84918 -0.00000
v 3.23399 1.88937 -0.20586
v 3.21394 1.98884 -0.33714
v 2.96498 1.79352 -0.22353
v 2.93944 1.91762 -0.37108
v 2.91537 2.07523 -0.37956
v 3.18996 2.10337 -0.34229
v 3.45766 2.17005 -0.31328
v 2.90874 2.21669 -0.24035
v 3.18210 2.19641 -0.22657
v 3.40808 2.21860 -0.21242
v 3.46011 2.33557 -0.00000
v 2.65115 2.32747 -0.00000
v 2.39815 2.36541 -0.00000
v 2.64008 2.23531 -0.25655
v 2.37738 2.24849 -0.27747
v 2.64253 2.05039 -0.41720
v 2.36563 2.01300 -0.44996
v 2.12700 2.26340 -0.29708
v 2.16293 2.40267 -0.00000
v 1.89479 2.28998 -0.30235
v 1.94388 2.44336 -0.00000
v 2.98328 1.73433 -0.00000
v 2.70403 1.69649 -0.23421
v 2.44220 1.58626 -0.24010
v 2.39519 1.76121 -0.42201
v 2.66866 1.84540 -0.39936
v 2.17075 1.46151 -0.24079
v 1.86636 1.27538 -0.00000
v 1.49980 1.36561 -0.00000
v 1.24658 1.94169 -0.00000
v 1.30518 1.94947 -0.22314
v 1.25783 2.18784 -0.18776
v 1.31386 2.26535 -0.32355
v 1.10510 2.34687 -0.15561
v 1.12816 2.40050 -0.28180
v 1.16809 2.49929 -0.30767
v 1.39223 2.36427 -0.36361
v 1.19887 2.56260 -0.19300
v 1.46068 2.46632 -0.23500
v 1.69830 2.35631 -0.27159
v 1.73273 2.48528 -0.00000
v 0.95386 2.64582 -0.00000
v 0.72272 2.69293 -0.00000
v 0.94313 2.62151 -0.16118
v 0.71048 2.67766 -0.14883
v 0.91994 2.56447 -0.27726
v 0.68187 2.62643 -0.26984
v 0.48421 2.73899 -0.27143
v 0.53253 2.77645 -0.14853
v 0.54674 2.78414 -0.00000
v 0.46875 2.94708 -0.16452
v 1.09720 2.33043 -0.00000
v 0.87611 2.41109 -0.14865
v 0.60910 2.46967 -0.15399
v 0.63907 2.52404 -0.27258
v 0.88959 2.46080 -0.27420
v 0.32913 2.62112 -0.18000
v 0.39572 2.66371 -0.29001
v 0.18855 2.92687 -0.20341
v 0.27257 2.92850 -0.31402
v 0.39272 2.93909 -0.29268
v 0.32010 3.22012 -0.34543
v 0.43858 3.16086 -0.32740
v 0.53357 3.11810 -0.19420
v 0.59683 3.34672 -0.38041
v 0.68918 3.23439 -0.23010
v 0.72636 3.17999 -0.00000
v 0.56853 3.10314 -0.00000
v 0.30557 2.60850 -0.00000
v 0.22537 3.26474 -0.22184
v 0.30807 3.60505 -0.00000
v 0.36066 3.56418 -0.24434
v 0.47600 3.47156 -0.38413
v 0.55719 3.81082 -0.25437
v 0.67708 3.67267 -0.41714
v 0.80634 3.47573 -0.41281
v 0.90266 3.82153 -0.44062
v 1.02383 3.57468 -0.43740
v 1.10054 3.37858 -0.25821
v 0.88910 3.31313 -0.25057
v 1.12823 3.27807 -0.00000
v 0.91920 3.22822 -0.00000
v 0.49632 3.86713 -0.00000
v 0.79080 4.00527 -0.26162
v 1.00021 4.24309 -0.00000
v 1.04922 4.14621 -0.26709
v 1.14421 3.93348 -0.45310
v 1.31497 4.25383 -0.27208
v 1.39218 4.02491 -0.46519
v 1.48199 3.72975 -0.46516
v 1.24907 3.65807 -0.45374
v 1.54529 3.49429 -0.27184
v 1.32060 3.43691 -0.26713
v 1.57114 3.37679 -0.00000
v 1.34731 3.32677 -0.00000
v 1.27621 4.36257 -0.00000
v 1.56189 4.44693 -0.00000
v 1.58862 4.33355 -0.27450
v 1.85249 4.49700 -0.00000
v 2.72495 3.62519 -0.00000
v 2.95435 3.67177 -0.00000
v 2.47334 3.68521 -0.26041
v 2.70772 3.72382 -0.25131
v 2.94278 3.75799 -0.24107
v 2.68985 3.92618 -0.42796
v 2.93491 3.93563 -0.40833
v 3.17807 3.93888 -0.38320
v 3.17523 3.78963 -0.23689
v 3.18394 3.71600 -0.00000
v 3.40143 3.80407 -0.21708
v 3.39175 3.75089 -0.00000
v 2.70825 4.47574 -0.00000
v 2.42570 4.50577 -0.00000
v 2.14082 4.51434 -0.00000
v 2.41956 4.40429 -0.26136
v 2.14326 4.40206 -0.26753
v 1.86679 4.38025 -0.27165
v 2.16188 4.16993 -0.45815
v 1.90242 4.13909 -0.46233
v 1.64606 4.09338 -0.46534
v 1.95592 3.83616 -0.46481
v 1.71739 3.78904 -0.46496
v 2.00554 3.59495 -0.27296
v 1.77380 3.54561 -0.27487
v 2.23909 3.64286 -0.26760
v 2.19948 3.87582 -0.45832
v 2.44426 3.90681 -0.44269
v 2.42339 4.18601 -0.44468
v 2.68509 4.18569 -0.42923
v 2.69530 4.38611 -0.25176
v 2.97066 4.34309 -0.24344
v 2.94482 4.16546 -0.41144
v 3.23883 4.26590 -0.23847
v 3.20197 4.12039 -0.38647
v 3.50392 4.15352 -0.22488
v 3.46422 4.04501 -0.35400
v 3.42783 3.91732 -0.35223
v 3.70308 3.92097 -0.31973
v 3.64381 3.83025 -0.31499
v 3.59872 3.76116 -0.18994
v 3.78969 3.68787 -0.29760
v 3.72443 3.65415 -0.17999
v 2.99139 4.41921 -0.00000
v 3.74802 3.99014 -0.20322
v 3.96692 3.77947 -0.00000
v 3.94054 3.76784 -0.19952
v 3.87691 3.73509 -0.31805
v 4.04816 3.48609 -0.21657
v 3.95164 3.48259 -0.33709
v 3.83235 3.48296 -0.33385
v 3.93675 3.19832 -0.37332
v 3.78050 3.23706 -0.37327
v 3.65504 3.28790 -0.23273
v 3.73265 3.48171 -0.20440
v 3.59796 3.31578 -0.00000
v 3.69104 3.48681 -0.00000
v 4.09584 3.49111 -0.00000
v 4.08493 3.18963 -0.23425
v 4.13832 2.89686 -0.00000
v 4.06528 2.90553 -0.23733
v 3.88181 2.94101 -0.39052
v 3.97765 2.63620 -0.23869
v 3.67099 3.01566 -0.38752
v 3.52216 3.09617 -0.23650
v 4.04382 2.60507 -0.00000
v 3.77837 2.44700 -0.21570
v 3.64667 2.30415 -0.19253
v 3.63344 2.17070 -0.30604
v 3.34079 2.91404 -0.00000
v 0.78819 1.90026 -0.00000
v 0.87411 1.57781 -0.00000
v 0.22881 0.63446 -0.00000
v 1.57565 0.00693 -0.00000
v 0.87738 0.65201 -0.00000
v 0.86502 0.85741 -0.00000
v 0.07823 0.91853 -0.00000
v 0.00357 1.22317 -0.00000
v 2.11873 0.01592 -0.00000
v 1.84863 0.00000 -0.00000
v 1.29662 0.31927 -0.00000
v 1.51190 0.40525 -0.00000
v 1.73163 0.50669 -0.00000
v 2.39474 0.82349 -0.00000
v 3.05295 1.14087 -0.00000
v 4.07118 1.14480 -0.00000
v 3.64920 1.44262 -0.00000
v 3.47134 1.34433 -0.00000
v 3.67865 0.65204 -0.00000
v 3.89507 0.87154 -0.00000
v 3.81972 1.75129 -0.00000
v 3.71825 1.91645 -0.00000
v 3.18672 2.24261 -0.00000
v 3.38155 2.24166 -0.00000
v 2.92081 2.28727 -0.00000
v 2.72838 1.62265 -0.00000
v 2.47386 1.50647 -0.00000
v 2.19696 1.37547 -0.00000
v 1.28674 1.64487 -0.00000
v 1.22783 2.16170 -0.00000
v 1.48425 2.54052 -0.00000
v 1.21509 2.59849 -0.00000
v 0.49051 2.94996 -0.00000
v 0.87074 2.39390 -0.00000
v 0.59723 2.45560 -0.00000
v 0.15454 2.92832 -0.00000
v 0.18454 3.28503 -0.00000
v 0.73376 4.08133 -0.00000
v 2.49359 3.57607 -0.00000
v 2.03036 3.47548 -0.00000
v 1.79964 3.42402 -0.00000
v 2.26218 3.52629 -0.00000
v 3.70102 3.64441 -0.00000
v 3.58434 3.73706 -0.00000
v 3.26604 4.32926 -0.00000
v 3.52600 4.20106 -0.00000
v 3.76807 4.01969 -0.00000
v 4.14864 3.19560 -0.00000
v 3.46735 3.13637 -0.00000
v 3.80870 2.40809 -0.00000
v 3.67052 2.30442 -0.00000
v 3.78992 1.56955 -0.00000
v 0.62108 1.76388 0.36925
v 1.76564 1.92068 0.48156
v 3.47192 2.55185 0.31453
v 3.34578 2.67602 0.20694
v 1.59421 1.52921 0.36539
v 0.72433 1.85455 0.25232
v 0.80142 1.56437 0.23021
v 0.62781 1.54432 0.39807
v 0.36774 1.52491 0.44158
v 0.41824 1.78250 0.40661
v 0.46696 1.98231 0.27469
v 1.82700 1.55777 0.41601
v 1.50194 1.74712 0.39995
v 2.08594 1.96544 0.48172
v 2.11699 1.65666 0.43051
v 1.43716 2.01966 0.38789
v 1.57692 2.14716 0.42885
v 3.68159 2.51161 0.35311
v 3.60219 2.29215 0.31399
v 3.50096 2.32751 0.23059
v 3.57588 2.80325 0.38420
v 3.79518 2.71219 0.38814
v 3.40131 2.88405 0.23202
v 1.53026 1.41781 0.22923
v 1.34344 1.67292 0.23002
v 1.86073 1.35827 0.24112
v 0.25299 1.94638 0.23710
v 0.16245 1.76639 0.28600
v 0.11285 1.51266 0.28401
v 0.78410 1.31168 0.22385
v 0.48158 0.43556 0.21306
v 0.72346 0.24037 0.16974
v 1.00064 0.11449 0.14824
v 0.78499 0.30096 0.29130
v 1.02167 0.16569 0.25972
v 1.28912 0.11904 0.27252
v 1.29124 0.05290 0.15664
v 1.57271 0.04149 0.18883
v 0.83215 0.63250 0.19693
v 0.80280 0.85375 0.21645
v 0.79286 1.07969 0.22293
v 0.65053 0.82037 0.36160
v 0.61372 1.05206 0.38798
v 0.60347 1.29234 0.39767
v 0.37080 1.00152 0.40964
v 0.34396 1.26374 0.43383
v 0.16446 0.94717 0.25298
v 0.10815 1.23613 0.27078
v 0.29303 0.67253 0.23665
v 0.45351 0.75093 0.37900
v 0.59274 0.51119 0.34176
v 0.72412 0.58451 0.33125
v 0.85921 0.38108 0.28110
v 0.90498 0.43474 0.15199
v 1.07004 0.29662 0.12996
v 1.05339 0.25261 0.24352
v 1.29353 0.29917 0.14814
v 1.28967 0.22542 0.26640
v 1.51852 0.36833 0.18572
v 1.53741 0.26774 0.30799
v 1.55818 0.14157 0.31109
v 1.78644 0.33004 0.33728
v 1.81927 0.18221 0.34182
v 1.84219 0.05395 0.21788
v 2.07954 0.23156 0.36181
v 2.11211 0.08134 0.22784
v 1.75108 0.45309 0.21162
v 1.97911 0.54663 0.21962
v 2.02985 0.40403 0.35720
v 2.20407 0.64939 0.22354
v 2.26759 0.48998 0.37144
v 2.33334 0.29408 0.37601
v 2.50070 0.58431 0.38214
v 2.58405 0.37029 0.38696
v 2.64529 0.19380 0.23203
v 2.38023 0.12534 0.22942
v 2.42732 0.75363 0.22728
v 2.64943 0.85793 0.22946
v 2.72983 0.68509 0.38753
v 2.86870 0.96606 0.23137
v 2.95506 0.79391 0.39036
v 3.06638 0.57570 0.39442
v 2.82915 0.46404 0.39354
v 3.15758 0.40071 0.23458
v 2.90627 0.28400 0.23469
v 3.08705 1.07217 0.22794
v 4.02011 1.17393 0.22597
v 4.13133 1.48468 0.20964
v 4.10565 1.82736 0.18732
v 4.02397 1.50952 0.31567
v 4.01802 1.80308 0.29141
v 3.84596 2.02048 0.27838
v 3.89014 2.07048 0.17715
v 3.69102 2.18605 0.18330
v 3.68753 1.41063 0.20708
v 3.50407 1.28635 0.22132
v 3.29868 1.18099 0.22453
v 3.59387 1.16777 0.35877
v 3.39172 1.03169 0.37666
v 3.17685 0.90833 0.38607
v 3.51744 0.85185 0.38383
v 3.29698 0.70276 0.39378
v 3.63043 0.70796 0.23498
v 3.40091 0.53883 0.23620
v 3.84328 0.91376 0.23344
v 3.72227 1.02789 0.36908
v 3.89824 1.24536 0.34428
v 3.77754 1.33533 0.33632
v 3.89838 1.54481 0.30372
v 3.81824 1.56391 0.17695
v 3.83876 1.75414 0.15798
v 3.90030 1.76727 0.27567
v 3.73358 1.92491 0.15576
v 3.77672 1.95514 0.27361
v 3.50977 1.97420 0.17438
v 3.52023 2.04734 0.29515
v 3.23399 1.88937 0.20586
v 3.21394 1.98884 0.33714
v 2.96498 1.79352 0.22353
v 2.93944 1.91762 0.37108
v 2.91537 2.07523 0.37956
v 3.18996 2.10337 0.34229
v 3.45766 2.17005 0.31328
v 2.90874 2.21669 0.24035
v 3.18210 2.19641 0.22657
v 3.40808 2.21860 0.21242
v 2.64008 2.23531 0.25655
v 2.37738 2.24849 0.27747
v 2.64253 2.05039 0.41720
v 2.36563 2.01300 0.44996
v 2.12700 2.26340 0.29708
v 1.89479 2.28998 0.30235
v 2.70403 1.69649 0.23421
v 2.44220 1.58626 0.24010
v 2.39519 1.76121 0.42201
v 2.66866 1.84540 0.39936
v 2.17075 1.46151 0.24079
v 1.30518 1.94947 0.22314
v 1.25783 2.18784 0.18776
v 1.31386 2.26535 0.32355
v 1.10510 2.34687 0.15561
v 1.12816 2.40050 0.28180
v 1.16809 2.49929 0.30767
v 1.39223 2.36427 0.36361
v 1.19887 2.56260 0.19300
v 1.46068 2.46632 0.23500
v 1.69830 2.35631 0.27159
v 0.94313 2.62151 0.16118
v 0.71048 2.67766 0.14883
v 0.91994 2.56447 0.27726
v 0.68187 2.62643 0.26984
v 0.48421 2.73899 0.27143
v 0.53253 2.77645 0.14853
v 0.46875 2.94708 0.16452
v 0.87611 2.41109 0.14865
v 0.60910 2.46967 0.15399
v 0.63907 2.52404 0.27258
v 0.88959 2.46080 0.27420
v 0.32913 2.62112 0.18000
v 0.39572 2.66371 0.29001
v 0.18855 2.92687 0.20341
v 0.27257 2.92850 0.31402
v 0.39272 2.93909 0.29268
v 0.32010 3.22012 0.34543
v 0.43858 3.16086 0.32740
v 0.53357 3.11810 0.19420
v 0.59683 3.34672 0.38041
v 0.68918 3.23439 0.23010
v 0.22537 3.26474 0.22184
v 0.36066 3.56418 0.24434
v 0.47600 3.47156 0.38413
v 0.55719 3.81082 0.25437
v 0.67708 3.67267 0.41714
v 0.80634 3.47573 0.41281
v 0.90266 3.82153 0.44062
v 1.02383 3.57468 0.43740
v 1.10054 3.37858 0.25821
v 0.88910 3.31313 0.25057
v 0.79080 4.00527 0.26162
v 1.04922 4.14621 0.26709
v 1.14421 3.93348 0.45310
v 1.31497 4.25383 0.27208
v 1.39218 4.02491 0.46519
v 1.48199 3.72975 0.46516
v 1.24907 3.65807 0.45374
v 1.54529 3.49429 0.27184
v 1.32060 3.43691 0.26713
v 1.58862 4.33355 0.27450
v 2.47334 3.68521 0.26041
v 2.70772 3.72382 0.25131
v 2.94278 3.75799 0.24107
v 2.68985 3.92618 0.42796
v 2.93491 3.93563 0.40833
v 3.17807 3.93888 0.38320
v 3.17523 3.78963 0.23689
v 3.40143 3.80407 0.21708
v 2.41956 4.40429 0.26136
v 2.14326 4.40206 0.26753
v 1.86679 4.38025 0.27165
v 2.16188 4.16993 0.45815
v 1.90242 4.13909 0.46233
v 1.64606 4.09338 0.46534
v 1.95592 3.83616 0.46481
v 1.71739 3.78904 0.46496
v 2.00554 3.59495 0.27296
v 1.77380 3.54561 0.27487
v 2.23909 3.64286 0.26760
v 2.19948 3.87582 0.45832
v 2.44426 3.90681 0.44269
v 2.42339 4.18601 0.44468
v 2.68509 4.18569 0.42923
v 2.69530 4.38611 0.25176
v 2.97066 4.34309 0.24344
v 2.94482 4.16546 0.41144
v 3.23883 4.26590 0.23847
v 3.20197 4.12039 0.38647
v 3.50392 4.15352 0.22488
v 3.46422 4.04501 0.35400
v 3.42783 3.91732 0.35223
v 3.70308 3.92097 0.31973
v 3.64381 3.83025 0.31499
v 3.59872 3.76116 0.18994
v 3.78969 3.68787 0.29760
v 3.72443 3.65415 0.17999
v 3.74802 3.99014 0.20322
v 3.94054 3.76784 0.19952
v 3.87691 3.73509 0.31805
v 4.04816 3.48609 0.21657
v 3.95164 3.48259 0.33709
v 3.83235 3.48296 0.33385
v 3.93675 3.19832 0.37332
v 3.78050 3.23706 0.37327
v 3.65504 3.28790 0.23273
v 3.73265 3.48171 0.20440
v 4.08493 3.18963 0.23425
v 4.06528 2.90553 0.23733
v 3.88181 2.94101 0.39052
v 3.97765 2.63620 0.23869
v 3.67099 3.01566 0.38752
v 3.52216 3.09617 0.23650
v 3.77837 2.44700 0.21570
v 3.64667 2.30415 0.19253
v 3.63344 2.17070 0.30604
vn 0.39495 0.29106 -0.87138
vn 0.64948 0.49708 -0.57540
vn 0.84627 0.06111 -0.52924
vn 0.45083 0.03717 -0.89184
vn -0.18634 0.06211 -0.98052
vn -0.09573 0.35609 -0.92953
vn 0.15037 0.70135 -0.69677
vn -0.06498 0.11767 -0.99092
vn -0.01509 -0.45781 -0.88892
vn -0.31552 -0.47226 -0.82305
vn -0.47207 -0.19615 -0.85946
vn 0.04443 0.19670 -0.97946
vn 0.15553 -0.41266 -0.89751
vn -0.57028 -0.07433 -0.81808
vn -0.06557 0.28405 -0.95656
vn -0.41831 -0.08419 -0.90439
vn -0.29828 -0.15426 -0.94193
vn -0.44673 -0.14881 -0.88221
vn -0.36270 0.04693 -0.93072
vn 0.24727 -0.23680 -0.93957
vn -0.84035 0.13115 -0.52593
vn -0.79815 0.26577 -0.54067
vn -0.79137 -0.54355 -0.27981
vn -0.87665 -0.41598 -0.24177
vn -0.90597 -0.42332 0.00468
vn -0.82642 -0.56306 0.00033
vn -0.98188 0.18938 0.00633
vn -0.93880 0.34444 0.00326
vn -0.46362 -0.72032 -0.51594
vn -0.81160 -0.32161 -0.48772
vn 0.04794 -0.84135 -0.53836
vn -0.30318 0.47096 -0.82842
vn -0.67906 0.36409 -0.63743
vn -0.76116 0.08562 -0.64288
vn -0.92752 0.08988 -0.36280
vn -0.92313 0.38448 -0.00238
vn -0.83408 0.55162 -0.00476
vn -0.79591 0.53346 -0.28625
vn -0.23299 0.97247 -0.00322
vn -0.22792 0.94076 -0.25104
vn 0.47900 0.87781 0.00148
vn 0.96920 0.24626 -0.00069
vn 0.99526 0.09722 -0.00051
vn 0.99977 -0.02163 -0.00016
vn 0.84366 -0.02483 -0.53631
vn -0.49246 -0.87034 0.00004
vn -0.67234 -0.74024 -0.00036
vn -0.58590 -0.65251 -0.48057
vn -0.45455 -0.80943 -0.37176
vn -0.29317 -0.90763 -0.30043
vn -0.30737 -0.95159 0.00020
vn -0.39921 -0.71463 -0.57440
vn -0.26867 -0.83281 -0.48400
vn -0.12259 -0.84815 -0.51537
vn -0.13800 -0.93534 -0.32573
vn -0.14750 -0.98906 -0.00006
vn -0.03646 -0.91027 -0.41240
vn -0.04001 -0.99920 -0.00017
vn 0.99854 0.05404 -0.00053
vn 0.98501 0.17248 -0.00137
vn 0.88119 0.18239 -0.43616
vn 0.85935 0.05445 -0.50849
vn 0.84524 0.01628 -0.53414
vn 0.99984 0.01781 -0.00002
vn 0.43286 -0.01835 -0.90127
vn 0.42192 -0.03088 -0.90611
vn 0.43584 -0.03747 -0.89924
vn 0.11789 -0.07317 -0.99033
vn 0.13869 -0.04356 -0.98938
vn -0.55626 -0.07455 -0.82765
vn -0.55235 -0.21794 -0.80462
vn -0.75108 -0.28288 -0.59653
vn -0.77694 -0.09655 -0.62212
vn -0.93925 -0.34324 0.00005
vn -0.92689 -0.10974 -0.35892
vn -0.68577 -0.46939 -0.55623
vn -0.82791 -0.56086 -0.00000
vn -0.52386 -0.36366 -0.77027
vn -0.47682 -0.53564 -0.69695
vn 0.15290 -0.09206 -0.98394
vn 0.11703 -0.08736 -0.98928
vn 0.18341 -0.02936 -0.98260
vn 0.70570 0.49745 -0.50452
vn 0.75515 0.18290 -0.62953
vn 0.78590 0.51802 -0.33767
vn 0.33069 0.89583 -0.29687
vn 0.31388 0.83177 -0.45787
vn 0.06439 0.08706 -0.99412
vn -0.16749 0.92759 -0.33396
vn -0.13538 0.84383 -0.51925
vn -0.10668 0.08131 -0.99096
vn -0.33207 0.84439 -0.42040
vn -0.28072 0.72833 -0.62508
vn -0.13816 0.01694 -0.99027
vn -0.09927 0.00630 -0.99504
vn -0.02937 -0.78220 -0.62234
vn 0.02763 -0.70566 -0.70801
vn 0.03250 -0.87115 -0.48993
vn 0.08141 -0.65781 -0.74877
vn 0.09914 -0.84059 -0.53252
vn 0.11301 -0.99359 -0.00007
vn 0.03668 -0.99933 -0.00007
vn -0.03573 0.99936 0.00013
vn -0.19213 0.98137 0.00037
vn 0.66652 0.74549 0.00031
vn 0.85123 0.52479 -0.00072
vn -0.36852 0.92962 0.00054
vn -0.39853 0.91715 0.00016
vn -0.34323 0.79964 -0.49272
vn -0.41620 0.90927 -0.00010
vn -0.34744 0.77171 -0.53268
vn -0.18272 0.33379 -0.92477
vn -0.27690 0.65813 -0.70014
vn -0.35568 0.75380 -0.55251
vn -0.17541 0.31912 -0.93134
vn -0.05332 0.00614 -0.99856
vn -0.07031 0.00715 -0.99750
vn -0.16733 0.31319 -0.93483
vn -0.03848 0.00904 -0.99922
vn 0.13108 -0.63207 -0.76375
vn 0.17942 -0.61170 -0.77048
vn 0.23230 -0.79385 -0.56200
vn 0.16583 -0.81736 -0.55175
vn 0.28044 -0.95987 0.00002
vn 0.19596 -0.98061 -0.00001
vn -0.42990 0.90288 -0.00001
vn -0.43117 0.90227 -0.00000
vn -0.35598 0.74581 -0.56307
vn -0.43661 0.89965 0.00000
vn -0.36048 0.74014 -0.56766
vn -0.16094 0.31129 -0.93659
vn -0.36101 0.74054 -0.56681
vn -0.15391 0.31526 -0.93644
vn -0.00925 0.02107 -0.99974
vn -0.02290 0.01386 -0.99964
vn 0.23518 -0.58633 -0.77518
vn 0.28620 -0.56109 -0.77670
vn 0.37484 -0.73033 -0.57106
vn 0.30473 -0.76372 -0.56910
vn 0.45809 -0.88891 0.00008
vn 0.36950 -0.92923 0.00001
vn -0.43695 0.89949 -0.00000
vn -0.43890 0.89854 -0.00001
vn -0.36412 0.74371 -0.56064
vn 0.99396 -0.10973 0.00001
vn 0.90088 -0.43407 -0.00031
vn 0.76748 -0.36526 -0.52684
vn 0.87035 -0.08766 -0.48457
vn 0.82475 0.37494 -0.42333
vn 0.91349 0.40687 0.00001
vn 0.69339 -0.06056 -0.71801
vn 0.69021 0.32204 -0.64800
vn 0.56208 0.64185 -0.52163
vn 0.60471 0.72694 -0.32541
vn 0.62275 0.78242 -0.00047
vn 0.75542 0.58988 -0.28528
vn 0.49181 0.87070 -0.00051
vn -0.48003 0.87725 -0.00075
vn -0.61655 0.78732 -0.00177
vn -0.57204 0.68443 -0.45202
vn -0.42425 0.74307 -0.51755
vn -0.37711 0.74672 -0.54790
vn -0.44505 0.89551 0.00003
vn -0.17844 0.36195 -0.91496
vn -0.15059 0.34294 -0.92721
vn -0.14785 0.32695 -0.93340
vn 0.01890 0.06064 -0.99798
vn 0.00578 0.03721 -0.99929
vn 0.34217 -0.52892 -0.77664
vn 0.41060 -0.47941 -0.77561
vn 0.54036 -0.62773 -0.56032
vn 0.45023 -0.68901 -0.56794
vn 0.65367 -0.75678 0.00008
vn 0.54954 -0.83547 -0.00001
vn 0.64743 -0.52791 -0.54968
vn 0.77434 -0.63277 0.00004
vn 0.49225 -0.40010 -0.77305
vn 0.59171 -0.27691 -0.75710
vn 0.00223 0.12140 -0.99260
vn 0.02206 0.08784 -0.99589
vn -0.06193 0.12136 -0.99067
vn -0.75789 0.32686 -0.56459
vn -0.50671 0.56224 -0.65356
vn -0.83906 0.39114 -0.37814
vn -0.92750 -0.20213 -0.31446
vn -0.85326 -0.19608 -0.48323
vn -0.10016 0.03591 -0.99432
vn -0.54874 -0.78344 -0.29174
vn -0.52228 -0.72590 -0.44755
vn -0.02576 -0.07568 -0.99680
vn -0.97905 -0.20364 0.00024
vn -0.85208 -0.52342 0.00000
vn -0.17580 -0.98442 -0.00123
vn 0.08159 -0.99667 -0.00118
vn 0.05379 -0.94413 -0.32516
vn 0.02686 -0.86814 -0.49560
vn 0.35529 -0.93476 -0.00052
vn 0.31842 -0.85892 -0.40107
vn 0.27579 -0.76214 -0.58573
vn 0.32791 -0.82305 -0.46375
vn 0.27589 -0.71346 -0.64410
vn 0.13279 -0.03671 -0.99046
vn 0.13168 -0.03821 -0.99056
vn 0.08263 -0.06790 -0.99426
vn 0.06882 -0.08553 -0.99396
vn -0.02271 0.79202 -0.61007
vn 0.05723 0.71105 -0.70080
vn 0.08938 0.85852 -0.50493
vn 0.00855 0.90889 -0.41695
vn -0.40140 0.81369 -0.42046
vn -0.34083 0.69774 -0.63007
vn -0.68731 0.58788 -0.42662
vn -0.56004 0.50069 -0.66005
vn 0.04174 0.99913 -0.00192
vn -0.04149 0.99913 -0.00346
vn -0.77055 0.63738 0.00024
vn -0.96124 -0.27557 0.00884
vn -0.94002 -0.27801 -0.19769
vn 0.11655 0.99318 0.00027
vn 0.12224 0.99250 -0.00007
vn 0.08652 0.81924 -0.56689
vn 0.08340 0.77988 -0.62034
vn 0.11084 0.91409 -0.39008
vn 0.05757 0.65073 -0.75713
vn 0.04995 0.58959 -0.80616
vn 0.07846 0.73653 -0.67184
vn 0.12556 0.89324 -0.43170
vn 0.12156 0.70879 -0.69487
vn 0.16816 0.87585 -0.45234
vn 0.37789 -0.92585 0.00002
vn 0.39267 -0.91968 -0.00003
vn 0.33227 -0.79784 -0.50304
vn 0.41396 -0.91029 -0.00008
vn 0.34330 -0.77534 -0.53008
vn 0.20592 -0.40140 -0.89246
vn 0.21361 -0.40194 -0.89040
vn 0.10991 -0.10462 -0.98842
vn 0.12400 -0.06751 -0.98998
vn 0.29857 -0.78074 -0.54891
vn 0.36370 -0.93152 -0.00028
vn 0.04399 -0.99903 0.00087
vn -0.54246 -0.84008 0.00078
vn -0.92579 -0.37805 -0.00039
vn -0.99175 -0.12817 0.00117
vn -0.88728 -0.13556 -0.44087
vn -0.91552 -0.40226 0.00177
vn -0.83513 -0.40189 -0.37556
vn -0.57232 -0.23799 -0.78474
vn -0.50352 -0.80899 -0.30333
vn -0.45663 -0.76555 -0.45324
vn -0.20727 -0.11648 -0.97132
vn -0.34714 -0.05695 -0.93608
vn 0.26246 0.67314 -0.69137
vn 0.19477 0.81559 -0.54486
vn 0.20885 0.89824 -0.38670
vn 0.26564 0.81385 -0.51680
vn 0.22897 0.73037 -0.64353
vn 0.27594 0.96117 0.00061
vn 0.23180 0.87892 -0.41686
vn 0.20224 0.97934 -0.00011
vn 0.22480 0.97441 0.00027
vn 0.19059 0.92981 -0.31484
vn 0.33930 0.89622 -0.28578
vn 0.34676 0.93795 0.00002
vn 0.17676 0.86813 -0.46379
vn 0.32514 0.83776 -0.43868
vn 0.67336 0.57224 -0.46811
vn 0.72548 0.61872 -0.30145
vn 0.47274 0.88120 0.00026
vn 0.94371 0.33076 0.00022
vn 0.93666 -0.02700 -0.34921
vn -0.54125 -0.84086 0.00054
vn -0.24396 -0.96979 -0.00004
vn -0.23749 -0.93479 -0.26414
vn -0.34392 -0.93900 -0.00003
vn -0.32661 -0.89894 -0.29194
vn -0.30124 -0.83671 -0.45735
vn -0.22718 -0.88469 -0.40708
vn -0.06015 -0.04904 -0.99698
vn 0.03090 0.03707 -0.99883
vn -0.66243 -0.65891 -0.35639
vn -0.57851 -0.60070 -0.55180
vn 0.13444 0.02987 -0.99047
vn -0.89965 -0.17467 -0.40016
vn -0.77677 -0.16670 -0.60733
vn 0.16465 -0.08279 -0.98287
vn 0.05190 -0.17499 -0.98320
vn 0.84568 -0.00661 -0.53365
vn 0.62157 -0.49850 -0.60428
vn 0.69285 -0.59235 -0.41120
vn 0.33730 -0.66384 -0.66749
vn 0.37300 -0.79542 -0.47768
vn 0.40055 -0.91628 -0.00111
vn 0.74191 -0.67050 -0.00123
vn 0.90924 -0.41626 0.00149
vn -0.72179 -0.69211 0.00002
vn -0.98462 -0.17471 -0.00015
vn -0.97156 0.23677 0.00011
vn -0.87252 0.20784 -0.44218
vn -0.87044 0.49227 0.00038
vn -0.75216 0.42662 -0.50224
vn -0.61186 0.34750 -0.71055
vn -0.73909 0.17044 -0.65168
vn -0.61212 0.57207 -0.54594
vn -0.48348 0.45744 -0.74632
vn -0.05981 -0.14227 -0.98802
vn -0.07955 -0.07608 -0.99392
vn 0.07079 -0.38681 -0.91944
vn -0.22821 0.25701 -0.93908
vn 0.05648 -0.35639 -0.93263
vn 0.20393 -0.78729 -0.58188
vn 0.24243 -0.80259 -0.54505
vn 0.22626 -0.90132 -0.36935
vn 0.27437 -0.96162 0.00072
vn -0.73361 0.67958 -0.00009
vn -0.58324 0.81230 0.00006
vn -0.47287 0.66812 -0.57447
vn -0.41502 0.83087 -0.37069
vn -0.35805 0.72048 -0.59389
vn -0.17250 0.28751 -0.94211
vn -0.26857 0.74983 -0.60468
vn -0.12246 0.30534 -0.94434
vn 0.06281 -0.32279 -0.94438
vn 0.05338 -0.33670 -0.94010
vn 0.17541 -0.77084 -0.61241
vn 0.18481 -0.77825 -0.60014
vn 0.19979 -0.89310 -0.40305
vn 0.21049 -0.89643 -0.39001
vn -0.31074 0.86815 -0.38698
vn -0.20677 0.89623 -0.39245
vn -0.17565 0.77295 -0.60967
vn 0.17305 -0.91359 -0.36797
vn 0.18139 -0.90276 -0.39003
vn 0.15692 -0.78676 -0.59697
vn 0.14649 -0.80414 -0.57610
vn 0.13533 -0.82513 -0.54849
vn 0.17224 -0.98506 -0.00004
vn 0.09515 -0.34963 -0.93204
vn 0.10098 -0.67660 -0.72939
vn 0.07715 -0.71194 -0.69799
vn 0.11103 -0.85311 -0.50979
vn 0.14577 -0.98932 -0.00069
vn -0.02616 -0.89547 -0.44436
vn -0.00256 -1.00000 -0.00145
vn -0.02336 0.92328 -0.38341
vn 0.05015 0.93064 -0.36248
vn 0.04212 0.81311 -0.58059
vn -0.02331 0.80168 -0.59730
vn -0.09269 0.78860 -0.60788
vn -0.10662 0.91327 -0.39315
vn 0.00909 0.33761 -0.94124
vn -0.03183 0.32857 -0.94394
vn -0.06906 0.31864 -0.94536
vn 0.07489 -0.31551 -0.94596
vn 0.07109 -0.31470 -0.94653
vn 0.16673 -0.76966 -0.61630
vn 0.16730 -0.76767 -0.61862
vn 0.19495 -0.89169 -0.40852
vn 0.19282 -0.89183 -0.40922
vn 0.16492 -0.77607 -0.60871
vn 0.18905 -0.89548 -0.40297
vn 0.09025 -0.32185 -0.94248
vn 0.09658 -0.33235 -0.93820
vn 0.04793 0.34355 -0.93791
vn 0.06689 -0.00677 -0.99774
vn 0.08587 0.65831 -0.74783
vn 0.11067 0.82112 -0.55992
vn 0.19786 0.82072 -0.53597
vn 0.15571 0.66579 -0.72971
vn 0.08633 -0.01741 -0.99611
vn 0.30655 0.80708 -0.50463
vn 0.24733 0.66547 -0.70425
vn 0.10729 -0.03238 -0.99370
vn 0.44799 0.77030 -0.45382
vn 0.37773 0.65472 -0.65472
vn 0.11662 -0.06111 -0.99129
vn 0.03159 -0.09848 -0.99464
vn -0.04536 -0.77110 -0.63509
vn -0.35538 -0.74191 -0.56857
vn -0.38330 -0.84245 -0.37864
vn -0.54449 -0.65290 -0.52655
vn -0.59848 -0.72662 -0.33741
vn -0.63196 -0.77500 0.00057
vn -0.39702 -0.91781 -0.00046
vn 0.23908 0.97100 0.00000
vn 0.36049 0.93276 0.00019
vn 0.13654 0.99063 -0.00006
vn 0.50589 0.86260 0.00021
vn 0.67948 0.73370 -0.00006
vn 0.62253 0.68030 -0.38685
vn 0.85255 0.52265 0.00013
vn 0.79373 0.48580 -0.36606
vn 0.71192 0.43562 -0.55083
vn 0.54682 0.60552 -0.57821
vn 0.87333 0.23687 -0.42567
vn 0.76025 0.19258 -0.62044
vn -0.09238 -0.01335 -0.99563
vn -0.06390 0.11629 -0.99116
vn 0.00675 0.10280 -0.99468
vn -0.78268 0.14784 -0.60461
vn -0.64609 0.34399 -0.68135
vn -0.76306 0.43266 -0.48015
vn -0.88983 0.19322 -0.41337
vn -0.93204 0.00339 -0.36235
vn -0.83727 -0.01546 -0.54658
vn -0.85909 0.51182 -0.00063
vn -0.97224 0.23397 0.00013
vn -0.99981 0.01960 0.00170
vn 0.96150 0.27482 0.00033
vn 0.99853 0.05412 0.00020
vn 0.86170 0.03310 -0.50633
vn 0.98359 -0.18044 0.00022
vn 0.81775 -0.16102 -0.55259
vn 0.32971 -0.05709 -0.94235
vn 0.69783 0.01126 -0.71617
vn 0.70039 -0.46412 -0.54226
vn -0.31374 0.19105 -0.93009
vn -0.72610 0.44083 -0.52768
vn -0.84322 0.53757 0.00014
vn 0.83377 -0.55211 0.00064
vn 0.66059 -0.75074 0.00290
vn 0.64929 -0.64031 -0.41041
vn 0.93806 0.34646 0.00002
vn 0.91786 0.29996 -0.25990
vn 0.66345 -0.74821 0.00454
vn 0.70542 -0.63223 -0.32043
vn 0.72669 -0.49279 -0.47862
vn 0.61588 -0.50612 -0.60377
vn -0.89491 0.44625 -0.00079
vn 0.73001 0.51672 -0.44731
vn 0.88375 0.24926 -0.39604
vn 0.03655 -0.10396 -0.99391
vn 0.03194 -0.08728 -0.99567
vn 0.44935 0.03677 0.89260
vn 0.84593 0.06209 0.52967
vn 0.65380 0.48365 0.58192
vn 0.39862 0.27273 0.87562
vn -0.09613 0.35333 0.93055
vn -0.18697 0.06181 0.98042
vn 0.15259 0.69827 0.69938
vn -0.46655 -0.19647 0.86240
vn -0.31348 -0.46346 0.82881
vn -0.01899 -0.45149 0.89207
vn -0.05644 0.11488 0.99177
vn 0.15790 -0.41256 0.89714
vn 0.04694 0.19915 0.97884
vn -0.06592 0.28076 0.95751
vn -0.57322 -0.07211 0.81622
vn -0.45386 -0.22945 0.86103
vn -0.30712 -0.18899 0.93272
vn -0.42315 -0.10737 0.89967
vn 0.25083 -0.22971 0.94038
vn -0.36295 0.05081 0.93042
vn -0.79578 0.26428 0.54487
vn -0.83617 0.12743 0.53346
vn -0.87942 -0.40455 0.25093
vn -0.79528 -0.53747 0.28045
vn -0.80806 -0.32436 0.49176
vn -0.46399 -0.71468 0.52340
vn 0.04240 -0.83783 0.54428
vn -0.68595 0.37095 0.62599
vn -0.32322 0.50312 0.80150
vn -0.76115 0.08625 0.64282
vn -0.92742 0.08974 0.36309
vn -0.80467 0.52508 0.27712
vn -0.22352 0.94346 0.24481
vn 0.84380 -0.02496 0.53607
vn -0.46013 -0.80737 0.36938
vn -0.58917 -0.65044 0.47938
vn -0.29429 -0.90784 0.29868
vn -0.27171 -0.83384 0.48051
vn -0.40827 -0.71298 0.57006
vn -0.13477 -0.93623 0.32451
vn -0.11824 -0.85005 0.51326
vn -0.03359 -0.91070 0.41170
vn 0.86079 0.05189 0.50631
vn 0.88658 0.17433 0.42847
vn 0.84538 0.01592 0.53393
vn 0.42181 -0.03111 0.90615
vn 0.43516 -0.02084 0.90011
vn 0.43552 -0.03730 0.89940
vn 0.13776 -0.04304 0.98953
vn 0.11716 -0.07292 0.99043
vn -0.77707 -0.09647 0.62198
vn -0.75178 -0.28224 0.59597
vn -0.55416 -0.21680 0.80368
vn -0.55630 -0.07472 0.82762
vn -0.92704 -0.10942 0.35865
vn -0.68534 -0.46977 0.55645
vn -0.52238 -0.36484 0.77072
vn -0.47955 -0.53506 0.69552
vn 0.14911 -0.09186 0.98454
vn 0.11791 -0.08805 0.98911
vn 0.18346 -0.02556 0.98270
vn 0.78982 0.51427 0.33423
vn 0.76584 0.17547 0.61862
vn 0.71131 0.49504 0.49897
vn 0.30774 0.83427 0.45748
vn 0.32722 0.89716 0.29672
vn 0.06975 0.08547 0.99390
vn -0.14157 0.84608 0.51391
vn -0.16837 0.92839 0.33128
vn -0.10419 0.07548 0.99169
vn -0.28593 0.72912 0.62180
vn -0.33198 0.84514 0.41897
vn -0.13683 0.01600 0.99047
vn -0.09954 0.00633 0.99501
vn 0.03250 -0.87112 0.48999
vn 0.02619 -0.70547 0.70826
vn -0.02775 -0.78299 0.62142
vn 0.09966 -0.84064 0.53235
vn 0.08278 -0.65787 0.74857
vn -0.34291 0.79988 0.49254
vn -0.34749 0.77168 0.53269
vn -0.27791 0.65825 0.69963
vn -0.18253 0.33379 0.92480
vn -0.17580 0.31906 0.93129
vn -0.35611 0.75369 0.55239
vn -0.07041 0.00717 0.99749
vn -0.05323 0.00615 0.99856
vn -0.03851 0.00903 0.99922
vn -0.16744 0.31317 0.93482
vn 0.16602 -0.81736 0.55169
vn 0.23232 -0.79386 0.56198
vn 0.17949 -0.61175 0.77042
vn 0.13147 -0.63208 0.76367
vn -0.35605 0.74579 0.56305
vn -0.36047 0.74015 0.56767
vn -0.16087 0.31125 0.93661
vn -0.15388 0.31516 0.93648
vn -0.36099 0.74059 0.56676
vn -0.02280 0.01377 0.99965
vn -0.00918 0.02074 0.99974
vn 0.30479 -0.76373 0.56905
vn 0.37481 -0.73028 0.57114
vn 0.28620 -0.56106 0.77672
vn 0.23528 -0.58639 0.77511
vn -0.36412 0.74370 0.56065
vn 0.87115 -0.08921 0.48284
vn 0.76755 -0.36658 0.52582
vn 0.82469 0.37451 0.42383
vn 0.68988 0.32083 0.64895
vn 0.69599 -0.06352 0.71524
vn 0.60523 0.72745 0.32328
vn 0.56295 0.64346 0.51869
vn 0.75606 0.59080 0.28167
vn -0.42269 0.74567 0.51508
vn -0.57009 0.69108 0.44431
vn -0.37672 0.74707 0.54769
vn -0.15008 0.34402 0.92689
vn -0.17742 0.36557 0.91372
vn -0.14787 0.32683 0.93344
vn 0.00581 0.03704 0.99930
vn 0.01913 0.06190 0.99790
vn 0.45021 -0.68901 0.56795
vn 0.54035 -0.62766 0.56041
vn 0.41060 -0.47937 0.77564
vn 0.34216 -0.52890 0.77665
vn 0.64741 -0.52783 0.54978
vn 0.49225 -0.39988 0.77317
vn 0.59230 -0.27878 0.75595
vn 0.00499 0.11901 0.99288
vn 0.02232 0.08976 0.99571
vn -0.06580 0.11874 0.99074
vn -0.83852 0.39510 0.37522
vn -0.50812 0.57264 0.64335
vn -0.75880 0.33208 0.56030
vn -0.85036 -0.19748 0.48775
vn -0.92628 -0.20353 0.31715
vn -0.10307 0.03705 0.99398
vn -0.52200 -0.71985 0.45752
vn -0.54848 -0.78172 0.29678
vn -0.02177 -0.07539 0.99692
vn 0.05371 -0.94225 0.33058
vn 0.02264 -0.86149 0.50727
vn 0.31930 -0.85806 0.40221
vn 0.27390 -0.76064 0.58856
vn 0.27817 -0.71280 0.64384
vn 0.32937 -0.82254 0.46362
vn 0.13222 -0.03509 0.99060
vn 0.13078 -0.03834 0.99067
vn 0.07141 -0.08578 0.99375
vn 0.08618 -0.06788 0.99396
vn 0.01097 0.90750 0.41991
vn 0.09211 0.85834 0.50475
vn 0.05982 0.71105 0.70059
vn -0.02114 0.78577 0.61816
vn -0.33475 0.68114 0.65115
vn -0.39897 0.80880 0.43205
vn -0.54262 0.48459 0.68610
vn -0.68159 0.58263 0.44269
vn -0.94102 -0.26126 0.21498
vn 0.08675 0.81925 0.56683
vn 0.11051 0.91417 0.38997
vn 0.08292 0.77979 0.62053
vn 0.04934 0.58915 0.80652
vn 0.05842 0.65117 0.75668
vn 0.07941 0.73793 0.67019
vn 0.12631 0.89317 0.43161
vn 0.16618 0.87595 0.45287
vn 0.13070 0.70475 0.69732
vn 0.33207 -0.79794 0.50301
vn 0.34317 -0.77540 0.53009
vn 0.21337 -0.40202 0.89042
vn 0.20765 -0.40102 0.89222
vn 0.12352 -0.06768 0.99003
vn 0.11367 -0.10396 0.98806
vn 0.29916 -0.78088 0.54839
vn -0.88980 -0.13329 0.43645
vn -0.83581 -0.40242 0.37346
vn -0.57245 -0.23777 0.78471
vn -0.45102 -0.76754 0.45549
vn -0.49895 -0.81119 0.30498
vn -0.33969 -0.06075 0.93857
vn -0.20748 -0.11859 0.97102
vn 0.26547 0.81563 0.51408
vn 0.21640 0.89664 0.38627
vn 0.20329 0.81435 0.54360
vn 0.25076 0.68301 0.68602
vn 0.22867 0.72845 0.64582
vn 0.23716 0.87704 0.41781
vn 0.19069 0.92973 0.31501
vn 0.33902 0.89636 0.28567
vn 0.32512 0.83791 0.43842
vn 0.17636 0.86794 0.46431
vn 0.72449 0.61899 0.30326
vn 0.67141 0.57215 0.47102
vn 0.93736 -0.02700 0.34732
vn -0.23737 -0.93493 0.26373
vn -0.32629 -0.89889 0.29245
vn -0.22695 -0.88508 0.40636
vn -0.30059 -0.83638 0.45838
vn -0.06110 -0.05198 0.99678
vn 0.02729 0.03069 0.99916
vn -0.57833 -0.59975 0.55303
vn -0.66238 -0.65857 0.35712
vn 0.13325 0.02509 0.99076
vn -0.77681 -0.16731 0.60710
vn -0.89973 -0.17481 0.39992
vn 0.16001 -0.07974 0.98389
vn 0.04260 -0.16373 0.98558
vn 0.69402 -0.59111 0.41100
vn 0.62534 -0.49330 0.60466
vn 0.84840 -0.01058 0.52926
vn 0.37318 -0.79192 0.48332
vn 0.33917 -0.65142 0.67869
vn -0.87241 0.20907 0.44181
vn -0.75218 0.42710 0.50181
vn -0.73891 0.17363 0.65105
vn -0.61181 0.35025 0.70923
vn -0.48399 0.45564 0.74709
vn -0.61258 0.57117 0.54636
vn -0.06284 -0.13481 0.98888
vn 0.07126 -0.38537 0.92001
vn -0.07980 -0.07692 0.99384
vn 0.05667 -0.35581 0.93284
vn -0.22800 0.25744 0.93901
vn 0.24399 -0.80071 0.54710
vn 0.20369 -0.78749 0.58169
vn 0.22598 -0.90149 0.36913
vn -0.47303 0.66785 0.57465
vn -0.35805 0.72040 0.59399
vn -0.41528 0.83042 0.37140
vn -0.17235 0.28811 0.94196
vn -0.12248 0.30550 0.94428
vn -0.26859 0.74988 0.60460
vn 0.05373 -0.33617 0.94027
vn 0.06278 -0.32278 0.94439
vn 0.18513 -0.77805 0.60031
vn 0.17535 -0.77083 0.61243
vn 0.21059 -0.89640 0.39003
vn 0.19972 -0.89314 0.40302
vn -0.17568 0.77310 0.60947
vn -0.20679 0.89626 0.39237
vn -0.31080 0.86805 0.38715
vn 0.14572 -0.80410 0.57636
vn 0.15639 -0.78677 0.59711
vn 0.18092 -0.90283 0.39008
vn 0.17323 -0.91360 0.36787
vn 0.13531 -0.82514 0.54848
vn 0.10082 -0.67659 0.72942
vn 0.09404 -0.34937 0.93225
vn 0.11387 -0.85401 0.50765
vn 0.08117 -0.71398 0.69544
vn -0.02300 -0.89545 0.44456
vn -0.02304 0.80152 0.59752
vn 0.04268 0.81284 0.58092
vn 0.05069 0.93047 0.36285
vn -0.02319 0.92325 0.38351
vn -0.10670 0.91334 0.39297
vn -0.09265 0.78860 0.60789
vn -0.03176 0.32846 0.94398
vn 0.00912 0.33752 0.94127
vn -0.06906 0.31876 0.94532
vn 0.07112 -0.31465 0.94654
vn 0.07476 -0.31544 0.94600
vn 0.16731 -0.76759 0.61872
vn 0.16663 -0.76961 0.61639
vn 0.19285 -0.89182 0.40923
vn 0.19495 -0.89169 0.40852
vn 0.18892 -0.89550 0.40298
vn 0.16482 -0.77605 0.60875
vn 0.09006 -0.32170 0.94255
vn 0.09619 -0.33222 0.93828
vn 0.04813 0.34339 0.93796
vn 0.06654 -0.00659 0.99776
vn 0.11060 0.82120 0.55982
vn 0.08576 0.65842 0.74775
vn 0.15459 0.66657 0.72924
vn 0.19720 0.82107 0.53569
vn 0.08537 -0.01693 0.99621
vn 0.24504 0.66701 0.70360
vn 0.30579 0.80750 0.50441
vn 0.10613 -0.03168 0.99385
vn 0.37434 0.65847 0.65291
vn 0.44689 0.77145 0.45294
vn 0.11654 -0.06372 0.99114
vn 0.02589 -0.10989 0.99361
vn -0.38342 -0.84195 0.37962
vn -0.35889 -0.73875 0.57047
vn -0.04530 -0.76892 0.63774
vn -0.59884 -0.72742 0.33503
vn -0.54571 -0.65611 0.52128
vn 0.62170 0.68085 0.38722
vn 0.79201 0.48644 0.36890
vn 0.54430 0.60704 0.57900
vn 0.70834 0.43529 0.55567
vn 0.75583 0.19923 0.62372
vn 0.87123 0.24044 0.42796
vn -0.11208 -0.02092 0.99348
vn -0.07574 0.11465 0.99051
vn 0.00828 0.10072 0.99488
vn -0.88929 0.19461 0.41387
vn -0.76388 0.43492 0.47679
vn -0.64967 0.34632 0.67675
vn -0.78190 0.15036 0.60499
vn -0.82927 -0.02088 0.55846
vn -0.92880 -0.00220 0.37057
vn 0.86149 0.03449 0.50659
vn 0.81741 -0.16181 0.55286
vn 0.69745 0.01461 0.71648
vn 0.32950 -0.05780 0.94238
vn 0.70432 -0.45965 0.54097
vn -0.31332 0.19005 0.93044
vn -0.72599 0.43976 0.52873
vn 0.65173 -0.64515 0.39879
vn 0.91746 0.30113 0.25996
vn 0.69943 -0.64850 0.30040
vn 0.62427 -0.52446 0.57899
vn 0.71906 -0.54197 0.43500
vn 0.73203 0.51929 0.44099
vn 0.88308 0.25147 0.39614
vn 0.04158 -0.10575 0.99352
vn 0.04137 -0.09007 0.99508
f 1//1 6//2 7//3 8//4
f 1//1 8//4 9//5 10//6
f 1//1 10//6 11//7 6//2
f 2//8 12//9 5//10 13//11
f 2//8 14//12 15//13 12//9
f 2//8 13//11 16//14 17//15
f 3//16 18//17 19//18 20//18
f 3//16 21//19 22//20 18//17
f 3//16 4//21 23//22 21//19
f 4//23 3//24 25//25 24//26
f 4//21 24//27 315//28 23//22
f 5//10 26//29 27//30 13//11
f 5//10 12//9 28//31 26//29
f 29//32 11//7 10//6 30//33
f 30//33 10//6 9//5 31//34
f 30//33 31//34 32//35 33//36
f 30//33 33//36 34//37 29//38
f 34//39 35//39 11//40 29//40
f 35//41 316//41 6//2 11//7
f 316//42 317//43 7//3 6//2
f 317//43 36//44 37//45 7//3
f 40//46 39//47 42//48 43//49
f 40//46 43//49 44//50 41//51
f 44//50 43//49 45//52 46//53
f 44//50 46//53 47//54 48//55
f 44//50 48//55 49//56 41//51
f 49//56 48//55 50//57 319//58
f 321//59 320//60 52//61 53//62
f 321//59 53//62 54//63 38//64
f 54//63 37//45 36//44 38//64
f 54//63 53//62 55//65 56//66
f 54//63 56//66 57//67 37//45
f 57//67 8//4 7//3 37//45
f 57//67 56//66 58//68 59//69
f 57//67 59//69 9//5 8//4
f 59//70 58//71 60//72 61//73
f 59//70 61//73 31//34 9//5
f 61//73 60//72 322//74 323//75
f 61//73 323//75 32//35 31//34
f 322//74 60//72 62//76 318//77
f 62//76 60//72 58//71 63//78
f 62//76 63//78 64//79 42//48
f 62//76 42//48 39//47 318//77
f 64//80 63//81 55//65 65//80
f 64//80 65//80 66//82 45//82
f 64//79 45//52 43//49 42//48
f 66//83 65//84 52//61 67//85
f 66//83 67//85 68//86 69//87
f 66//82 69//88 46//88 45//82
f 69//87 68//86 70//89 71//90
f 69//88 71//91 47//91 46//88
f 71//90 70//89 72//92 73//93
f 71//91 73//94 74//94 47//91
f 74//94 73//94 75//95 76//95
f 74//96 76//97 77//98 50//57
f 74//96 50//57 48//55 47//54
f 77//98 76//97 78//99 79//100
f 77//98 79//100 324//101 325//102
f 77//98 325//102 319//58 50//57
f 80//103 326//104 70//89 68//86
f 80//105 68//86 67//85 51//106
f 326//104 327//107 72//92 70//89
f 327//107 328//108 81//109 72//92
f 81//109 328//108 82//110 83//111
f 81//109 83//111 84//112 75//113
f 81//109 75//113 73//93 72//92
f 84//112 83//111 85//114 86//115
f 84//112 86//115 87//116 78//117
f 84//112 78//117 76//95 75//95
f 87//116 86//115 88//118 89//119
f 87//120 89//121 90//122 91//123
f 87//120 91//123 79//100 78//99
f 91//123 90//122 92//124 93//125
f 91//123 93//125 324//101 79//100
f 94//126 329//127 95//128 85//114
f 94//126 85//114 83//111 82//110
f 95//128 329//127 96//129 97//130
f 95//128 97//130 98//131 88//118
f 95//128 88//118 86//115 85//114
f 98//131 97//130 99//132 100//133
f 98//131 100//133 101//134 102//135
f 98//131 102//135 89//119 88//118
f 102//136 101//137 103//138 104//139
f 102//136 104//139 90//122 89//121
f 104//139 103//138 105//140 106//141
f 104//139 106//141 92//124 90//122
f 107//142 330//143 108//144 99//132
f 107//142 99//132 97//130 96//129
f 110//145 331//146 112//147 113//148
f 110//145 113//148 114//149 111//150
f 114//149 113//148 115//151 116//152
f 114//149 116//152 117//153 118//154
f 114//149 118//154 119//155 111//150
f 119//155 118//154 120//156 121//157
f 333//158 332//159 122//160 123//161
f 333//158 123//161 124//162 109//163
f 124//162 108//144 330//143 109//163
f 124//162 123//161 125//164 126//165
f 124//162 126//165 127//166 108//144
f 127//166 100//133 99//132 108//144
f 127//166 126//165 128//167 129//168
f 127//166 129//168 101//134 100//133
f 129//169 128//170 130//171 131//172
f 129//169 131//172 103//138 101//137
f 131//172 130//171 334//173 132//174
f 131//172 132//174 105//140 103//138
f 334//173 130//171 133//175 335//176
f 133//175 130//171 128//170 134//177
f 133//175 134//177 135//178 112//147
f 133//175 112//147 331//146 335//176
f 135//179 134//180 125//164 136//179
f 135//179 136//179 137//181 115//181
f 135//178 115//151 113//148 112//147
f 137//182 136//183 122//160 138//184
f 137//182 138//184 139//185 140//186
f 137//181 140//187 116//187 115//181
f 140//186 139//185 141//188 142//189
f 140//187 142//190 117//190 116//187
f 141//188 139//185 336//191 337//192
f 141//188 337//193 143//194 144//195
f 141//188 144//195 145//196 142//189
f 144//195 143//194 146//197 147//198
f 144//195 147//198 148//199 145//196
f 148//199 147//198 149//200 150//201
f 148//202 150//203 151//203 152//202
f 148//202 152//202 153//204 145//205
f 152//206 151//207 154//208 155//209
f 152//206 155//209 156//210 153//211
f 156//210 20//212 19//213 153//211
f 156//210 155//209 338//214 339//215
f 156//210 339//216 157//216 20//212
f 157//217 25//25 3//24 20//218
f 158//219 340//220 154//208 160//221
f 158//219 160//221 161//222 159//223
f 161//222 160//221 162//224 163//225
f 161//222 163//225 14//12 164//226
f 161//222 164//226 165//227 159//223
f 165//227 164//226 166//228 167//229
f 168//230 341//231 169//232 149//200
f 168//230 149//200 147//198 146//197
f 169//232 341//231 342//233 170//234
f 169//232 170//234 171//235 172//236
f 169//232 172//236 150//201 149//200
f 172//236 171//235 163//237 162//238
f 172//236 162//238 151//203 150//203
f 171//235 170//234 173//239 15//13
f 171//235 15//13 14//12 163//237
f 173//239 170//234 342//233 343//240
f 173//239 343//240 174//241 28//31
f 173//239 28//31 12//9 15//13
f 174//241 175//242 26//29 28//31
f 175//242 344//243 27//30 26//29
f 344//243 176//244 177//245 27//30
f 177//245 176//244 345//246 178//247
f 177//245 178//247 179//248 16//14
f 177//245 16//14 13//11 27//30
f 179//248 178//247 180//249 181//250
f 179//248 181//251 182//251 183//252
f 179//248 183//252 17//15 16//14
f 183//253 182//254 184//255 185//256
f 183//253 185//256 186//257 17//15
f 186//257 166//228 2//8 17//15
f 186//257 185//256 346//258 187//259
f 186//257 187//259 167//229 166//228
f 188//260 347//261 184//255 190//262
f 188//260 190//262 191//263 189//264
f 191//263 190//262 192//265 193//266
f 191//263 193//266 194//267 195//268
f 191//263 195//268 196//269 189//264
f 196//270 195//268 197//271 348//270
f 198//272 349//273 199//274 180//249
f 198//272 180//249 178//247 345//246
f 199//274 349//273 350//275 200//276
f 199//274 200//276 201//277 202//278
f 199//274 202//278 181//250 180//249
f 202//279 201//280 193//280 192//279
f 202//279 192//279 182//251 181//251
f 201//277 200//276 203//281 204//282
f 201//280 204//283 194//283 193//280
f 204//282 203//281 205//284 206//285
f 204//283 206//286 207//286 194//283
f 207//286 206//286 208//287 209//287
f 207//288 209//289 210//290 197//271
f 207//288 197//271 195//268 194//267
f 210//290 209//289 211//291 212//292
f 210//290 212//292 213//293 214//294
f 210//290 214//294 348//295 197//271
f 215//296 351//297 205//284 203//281
f 215//296 203//281 200//276 350//275
f 351//297 352//298 216//299 205//284
f 216//299 352//298 217//300 218//301
f 216//299 218//301 219//302 208//303
f 216//299 208//303 206//285 205//284
f 219//302 218//301 220//304 221//305
f 219//306 221//307 222//308 211//306
f 219//306 211//306 209//287 208//287
f 222//308 221//307 223//309 224//310
f 222//308 224//310 225//311 226//312
f 222//308 226//312 212//292 211//291
f 226//312 225//311 227//313 228//314
f 226//312 228//314 213//293 212//292
f 229//315 353//316 230//317 220//304
f 229//315 220//304 218//301 217//300
f 230//317 353//316 231//318 232//319
f 230//317 232//319 233//320 223//309
f 230//317 223//309 221//305 220//304
f 233//320 232//319 234//321 235//322
f 233//320 235//322 236//323 237//324
f 233//320 237//324 224//310 223//309
f 237//324 236//323 238//325 239//326
f 237//324 239//326 225//311 224//310
f 239//326 238//325 240//327 241//328
f 239//326 241//328 227//313 225//311
f 242//329 243//330 244//331 234//321
f 242//329 234//321 232//319 231//318
f 246//332 354//333 248//334 249//335
f 246//332 249//335 250//336 247//337
f 250//336 249//335 251//338 252//339
f 250//336 252//339 253//340 254//341
f 250//336 254//341 255//342 247//337
f 255//342 254//341 256//343 257//344
f 260//345 259//346 261//347 262//348
f 260//345 262//348 263//349 245//350
f 263//349 244//331 243//330 245//350
f 263//349 262//348 264//351 265//352
f 263//349 265//352 266//353 244//331
f 266//353 235//322 234//321 244//331
f 266//353 265//352 267//354 268//355
f 266//353 268//355 236//323 235//322
f 268//355 267//354 269//356 270//357
f 268//355 270//357 238//325 236//323
f 270//357 269//356 355//358 356//359
f 270//357 356//359 240//327 238//325
f 355//358 269//356 271//360 357//361
f 271//360 269//356 267//354 272//362
f 271//360 272//362 273//363 248//334
f 271//360 248//334 354//333 357//361
f 273//363 272//362 264//351 274//364
f 273//363 274//364 275//365 251//338
f 273//363 251//338 249//335 248//334
f 275//366 274//364 261//347 276//367
f 275//366 276//367 277//368 278//369
f 275//365 278//370 252//370 251//338
f 278//369 277//368 279//371 280//372
f 278//370 280//373 253//373 252//370
f 280//372 279//371 281//374 282//375
f 280//373 282//376 283//376 253//373
f 283//376 282//376 284//377 285//377
f 283//378 285//379 286//380 256//343
f 283//378 256//343 254//341 253//340
f 286//380 285//379 287//381 288//382
f 286//380 288//382 358//383 359//384
f 286//380 359//384 257//344 256//343
f 289//385 360//386 279//371 277//368
f 289//385 277//368 276//367 258//387
f 360//386 361//388 281//374 279//371
f 361//388 362//389 290//390 281//374
f 290//390 362//389 291//391 292//392
f 290//390 292//392 293//393 284//394
f 290//390 284//394 282//375 281//374
f 293//393 292//392 294//395 295//396
f 293//397 295//398 296//398 287//397
f 293//397 287//397 285//377 284//377
f 296//398 295//398 297//399 298//399
f 296//400 298//401 299//402 300//403
f 296//400 300//403 288//404 287//405
f 300//403 299//402 301//406 302//407
f 300//403 302//407 358//408 288//404
f 303//409 363//410 304//411 294//395
f 303//409 294//395 292//392 291//391
f 304//411 363//410 305//412 306//413
f 304//411 306//413 307//414 297//415
f 304//411 297//415 295//396 294//395
f 307//414 306//413 308//416 22//20
f 307//414 22//20 21//19 309//417
f 307//414 309//417 298//399 297//399
f 309//417 21//19 23//22 310//418
f 309//417 310//418 299//402 298//401
f 310//418 23//22 315//28 364//419
f 310//418 364//419 301//406 299//402
f 311//420 365//421 312//422 308//416
f 311//420 308//416 306//413 305//412
f 366//423 121//423 120//156 313//424
f 366//425 313//426 312//422 365//421
f 312//422 313//426 19//427 18//428
f 312//422 18//428 22//20 308//416
f 276//367 261//347 259//346 258//387
f 274//364 264//351 262//348 261//347
f 272//362 267//354 265//352 264//351
f 192//265 190//262 184//255 182//254
f 347//261 346//258 185//256 184//255
f 166//228 164//226 14//12 2//8
f 162//224 160//221 154//208 151//207
f 340//220 338//214 155//209 154//208
f 336//191 139//185 138//184 367//429
f 138//184 122//160 332//159 367//429
f 136//183 125//164 123//161 122//160
f 134//180 128//167 126//165 125//164
f 118//154 117//153 314//430 120//156
f 67//85 52//61 320//60 51//106
f 65//84 55//65 53//62 52//61
f 63//81 58//68 56//66 55//65
f 19//431 313//424 120//156 314//430
f 314//432 117//190 142//190 145//205
f 314//432 145//205 153//204 19//433
f 375//434 374//435 373//436 368//437
f 377//438 376//439 375//434 368//437
f 373//436 378//440 377//438 368//437
f 380//441 372//442 379//443 369//444
f 379//443 382//445 381//446 369//444
f 384//447 383//448 380//441 369//444
f 387//449 386//449 385//450 370//451
f 385//450 389//452 388//453 370//451
f 388//453 390//454 371//455 370//451
f 24//26 25//25 370//456 371//457
f 390//454 315//28 24//27 371//455
f 380//441 392//458 391//459 372//442
f 391//459 393//460 379//443 372//442
f 395//461 377//438 378//440 394//462
f 396//463 376//439 377//438 395//461
f 33//36 32//464 396//463 395//461
f 394//465 34//37 33//36 395//461
f 394//466 378//466 35//39 34//39
f 378//440 373//436 316//41 35//41
f 373//436 374//435 317//43 316//42
f 374//435 397//467 36//44 317//43
f 399//468 398//469 39//47 40//46
f 41//51 400//470 399//468 40//46
f 402//471 401//472 399//468 400//470
f 404//473 403//474 402//471 400//470
f 41//51 49//56 404//473 400//470
f 319//58 405//475 404//473 49//56
f 407//476 406//477 320//60 321//59
f 38//64 408//478 407//476 321//59
f 38//64 36//44 397//467 408//478
f 410//479 409//480 407//476 408//478
f 397//467 411//481 410//479 408//478
f 397//467 374//435 375//434 411//481
f 413//482 412//483 410//479 411//481
f 375//434 376//439 413//482 411//481
f 415//484 414//485 412//486 413//487
f 376//439 396//463 415//484 413//487
f 323//488 322//74 414//485 415//484
f 396//463 32//464 323//488 415//484
f 318//77 416//489 414//485 322//74
f 417//490 412//486 414//485 416//489
f 398//469 418//491 417//490 416//489
f 318//77 39//47 398//469 416//489
f 419//492 409//480 417//493 418//492
f 401//494 420//494 419//492 418//492
f 398//469 399//468 401//472 418//491
f 421//495 406//477 419//496 420//497
f 423//498 422//499 421//495 420//497
f 401//494 402//500 423//500 420//494
f 425//501 424//502 422//499 423//498
f 402//500 403//503 425//503 423//500
f 427//504 426//505 424//502 425//501
f 403//503 428//506 427//506 425//503
f 430//507 429//507 427//506 428//506
f 405//475 431//508 430//509 428//510
f 403//474 404//473 405//475 428//510
f 433//511 432//512 430//509 431//508
f 325//102 324//101 433//511 431//508
f 405//475 319//58 325//102 431//508
f 422//499 424//502 326//104 80//103
f 51//106 421//495 422//499 80//105
f 424//502 426//505 327//107 326//104
f 426//505 434//513 328//108 327//107
f 435//514 82//110 328//108 434//513
f 429//515 436//516 435//514 434//513
f 426//505 427//504 429//515 434//513
f 438//517 437//518 435//514 436//516
f 432//519 439//520 438//517 436//516
f 429//507 430//507 432//519 436//516
f 441//521 440//522 438//517 439//520
f 443//523 442//524 441//525 439//526
f 432//512 433//511 443//523 439//526
f 93//125 92//124 442//524 443//523
f 433//511 324//101 93//125 443//523
f 437//518 444//527 329//127 94//126
f 82//110 435//514 437//518 94//126
f 445//528 96//129 329//127 444//527
f 440//522 446//529 445//528 444//527
f 437//518 438//517 440//522 444//527
f 448//530 447//531 445//528 446//529
f 450//532 449//533 448//530 446//529
f 440//522 441//521 450//532 446//529
f 452//534 451//535 449//536 450//537
f 441//525 442//524 452//534 450//537
f 106//141 105//140 451//535 452//534
f 442//524 92//124 106//141 452//534
f 447//531 453//538 330//143 107//142
f 96//129 445//528 447//531 107//142
f 455//539 454//540 331//146 110//145
f 111//150 456//541 455//539 110//145
f 458//542 457//543 455//539 456//541
f 460//544 459//545 458//542 456//541
f 111//150 119//155 460//544 456//541
f 121//157 461//546 460//544 119//155
f 463//547 462//548 332//159 333//158
f 109//163 464//549 463//547 333//158
f 109//163 330//143 453//538 464//549
f 466//550 465//551 463//547 464//549
f 453//538 467//552 466//550 464//549
f 453//538 447//531 448//530 467//552
f 469//553 468//554 466//550 467//552
f 448//530 449//533 469//553 467//552
f 471//555 470//556 468//557 469//558
f 449//536 451//535 471//555 469//558
f 132//174 334//173 470//556 471//555
f 451//535 105//140 132//174 471//555
f 335//176 472//559 470//556 334//173
f 473//560 468//557 470//556 472//559
f 454//540 474//561 473//560 472//559
f 335//176 331//146 454//540 472//559
f 475//562 465//551 473//563 474//562
f 457//564 476//564 475//562 474//562
f 454//540 455//539 457//543 474//561
f 477//565 462//548 475//566 476//567
f 479//568 478//569 477//565 476//567
f 457//564 458//570 479//570 476//564
f 481//571 480//572 478//569 479//568
f 458//570 459//573 481//573 479//570
f 337//192 336//191 478//569 480//572
f 482//574 143//194 337//193 480//572
f 481//571 483//575 482//574 480//572
f 484//576 146//197 143//194 482//574
f 483//575 485//577 484//576 482//574
f 487//578 486//579 484//576 485//577
f 489//580 488//581 487//581 485//580
f 483//582 490//583 489//580 485//580
f 492//584 491//585 488//586 489//587
f 490//588 493//589 492//584 489//587
f 490//588 386//590 387//591 493//589
f 339//215 338//214 492//584 493//589
f 387//591 157//216 339//216 493//589
f 387//592 370//456 25//25 157//217
f 494//593 491//585 340//220 158//219
f 159//594 495//595 494//593 158//219
f 497//596 496//597 494//593 495//595
f 498//598 381//446 497//596 495//595
f 159//594 165//599 498//598 495//595
f 167//600 499//601 498//598 165//599
f 486//579 500//602 341//231 168//230
f 146//197 484//576 486//579 168//230
f 501//603 342//233 341//231 500//602
f 503//604 502//605 501//603 500//602
f 486//579 487//578 503//604 500//602
f 496//606 497//607 502//605 503//604
f 487//581 488//581 496//606 503//604
f 382//445 504//608 501//603 502//605
f 497//607 381//446 382//445 502//605
f 343//240 342//233 501//603 504//608
f 393//460 174//241 343//240 504//608
f 382//445 379//443 393//460 504//608
f 393//460 391//459 175//242 174//241
f 391//459 392//458 344//243 175//242
f 392//458 505//609 176//244 344//243
f 506//610 345//246 176//244 505//609
f 383//448 507//611 506//610 505//609
f 392//458 380//441 383//448 505//609
f 509//612 508//613 506//610 507//611
f 511//614 510//615 509//615 507//611
f 383//448 384//447 511//614 507//611
f 513//616 512//617 510//618 511//619
f 384//447 514//620 513//616 511//619
f 384//447 369//444 499//601 514//620
f 187//621 346//258 513//616 514//620
f 499//601 167//600 187//621 514//620
f 515//622 512//617 347//261 188//260
f 189//264 516//623 515//622 188//260
f 518//624 517//625 515//622 516//623
f 520//626 519//627 518//624 516//623
f 189//264 196//269 520//626 516//623
f 348//270 521//628 520//626 196//270
f 508//613 522//629 349//273 198//272
f 345//246 506//610 508//613 198//272
f 523//630 350//275 349//273 522//629
f 525//631 524//632 523//630 522//629
f 508//613 509//612 525//631 522//629
f 517//633 518//634 524//634 525//633
f 509//615 510//615 517//633 525//633
f 527//635 526//636 523//630 524//632
f 518//634 519//637 527//637 524//634
f 529//638 528//639 526//636 527//635
f 519//637 530//640 529//640 527//637
f 532//641 531//641 529//640 530//640
f 521//628 533//642 532//643 530//644
f 519//627 520//626 521//628 530//644
f 535//645 534//646 532//643 533//642
f 214//294 213//293 535//645 533//642
f 521//628 348//295 214//294 533//642
f 526//636 528//639 351//297 215//296
f 350//275 523//630 526//636 215//296
f 528//639 536//647 352//298 351//297
f 537//648 217//300 352//298 536//647
f 531//649 538//650 537//648 536//647
f 528//639 529//638 531//649 536//647
f 540//651 539//652 537//648 538//650
f 534//653 541//654 540//655 538//653
f 531//641 532//641 534//653 538//653
f 543//656 542//657 540//655 541//654
f 545//658 544//659 543//656 541//654
f 534//646 535//645 545//658 541//654
f 228//314 227//660 544//659 545//658
f 535//645 213//293 228//314 545//658
f 539//652 546//661 353//316 229//315
f 217//300 537//648 539//652 229//315
f 547//662 231//663 353//316 546//661
f 542//657 548//664 547//662 546//661
f 539//652 540//651 542//657 546//661
f 550//665 549//666 547//662 548//664
f 552//667 551//668 550//665 548//664
f 542//657 543//656 552//667 548//664
f 554//669 553//670 551//668 552//667
f 543//656 544//659 554//669 552//667
f 241//671 240//672 553//670 554//669
f 544//659 227//660 241//671 554//669
f 549//666 555//673 243//674 242//675
f 231//663 547//662 549//666 242//675
f 557//676 556//677 354//678 246//679
f 247//337 558//680 557//676 246//679
f 560//681 559//682 557//676 558//680
f 562//683 561//684 560//681 558//680
f 247//337 255//342 562//683 558//680
f 257//344 563//685 562//683 255//342
f 565//686 564//687 259//688 260//689
f 245//690 566//691 565//686 260//689
f 245//690 243//674 555//673 566//691
f 568//692 567//693 565//686 566//691
f 555//673 569//694 568//692 566//691
f 555//673 549//666 550//665 569//694
f 571//695 570//696 568//692 569//694
f 550//665 551//668 571//695 569//694
f 573//697 572//698 570//696 571//695
f 551//668 553//670 573//697 571//695
f 356//699 355//700 572//698 573//697
f 553//670 240//672 356//699 573//697
f 357//701 574//702 572//698 355//700
f 575//703 570//696 572//698 574//702
f 556//677 576//704 575//703 574//702
f 357//701 354//678 556//677 574//702
f 577//705 567//693 575//703 576//704
f 559//682 578//706 577//705 576//704
f 556//677 557//676 559//682 576//704
f 579//707 564//687 577//705 578//708
f 581//709 580//710 579//707 578//708
f 559//682 560//711 581//711 578//706
f 583//712 582//713 580//710 581//709
f 560//711 561//714 583//714 581//711
f 585//715 584//716 582//713 583//712
f 561//714 586//717 585//717 583//714
f 588//718 587//718 585//717 586//717
f 563//685 589//719 588//720 586//721
f 561//684 562//683 563//685 586//721
f 591//722 590//723 588//720 589//719
f 359//384 358//383 591//722 589//719
f 563//685 257//344 359//384 589//719
f 580//710 582//713 360//386 289//385
f 258//387 579//707 580//710 289//385
f 582//713 584//716 361//388 360//386
f 584//716 592//724 362//389 361//388
f 593//725 291//391 362//389 592//724
f 587//726 594//727 593//725 592//724
f 584//716 585//715 587//726 592//724
f 596//728 595//729 593//725 594//727
f 590//730 597//731 596//731 594//730
f 587//718 588//718 590//730 594//730
f 599//732 598//732 596//731 597//731
f 601//733 600//734 599//735 597//736
f 590//737 591//738 601//733 597//736
f 302//407 301//406 600//734 601//733
f 591//738 358//408 302//407 601//733
f 595//729 602//739 363//410 303//409
f 291//391 593//725 595//729 303//409
f 603//740 305//412 363//410 602//739
f 598//741 604//742 603//740 602//739
f 595//729 596//728 598//741 602//739
f 389//452 605//743 603//740 604//742
f 606//744 388//453 389//452 604//742
f 598//732 599//732 606//744 604//742
f 607//745 390//454 388//453 606//744
f 599//735 600//734 607//745 606//744
f 364//419 315//28 390//454 607//745
f 600//734 301//406 364//419 607//745
f 605//743 608//746 365//421 311//420
f 305//412 603//740 605//743 311//420
f 609//747 461//546 121//423 366//423
f 365//421 608//746 609//748 366//425
f 385//749 386//750 609//748 608//746
f 605//743 389//452 385//749 608//746
f 258//387 259//688 564//687 579//707
f 564//687 565//686 567//693 577//705
f 567//693 568//692 570//696 575//703
f 510//618 512//617 515//622 517//625
f 512//617 513//616 346//258 347//261
f 369//444 381//446 498//598 499//601
f 488//586 491//585 494//593 496//597
f 491//585 492//584 338//214 340//220
f 367//429 477//565 478//569 336//191
f 367//429 332//159 462//548 477//565
f 462//548 463//547 465//551 475//566
f 465//551 466//550 468//554 473//563
f 461//546 610//751 459//545 460//544
f 51//106 320//60 406//477 421//495
f 406//477 407//476 409//480 419//496
f 409//480 410//479 412//483 417//493
f 610//751 461//546 609//747 386//752
f 483//582 481//573 459//573 610//753
f 386//754 490//583 483//582 610//753
