# pilowlava3D glyph 's' variant 4 — Vincent Wagner / Velvetyne, Free Art License
v 0.80695 2.17295 -0.30370
v 1.01234 1.93337 -0.29190
v 2.90332 3.63764 -0.33438
v 2.71066 3.40252 -0.33771
v 0.64624 2.09518 -0.36113
v 0.56403 2.17751 -0.19274
v 0.81508 2.23682 -0.17798
v 1.01831 2.14244 -0.18268
v 0.94110 2.08412 -0.33695
v 0.78651 1.95415 -0.43188
v 0.91379 1.81313 -0.33906
v 1.07477 1.93100 -0.17149
v 0.98004 1.74656 -0.17869
v 2.82907 3.50138 -0.36622
v 2.67120 3.60688 -0.43867
v 2.79265 3.76950 -0.37753
v 2.87659 3.87233 -0.20718
v 2.98524 3.64882 -0.20005
v 2.91760 3.43787 -0.19969
v 2.55635 3.43913 -0.37426
v 2.73505 3.32274 -0.20240
v 2.49457 3.31319 -0.20827
v 2.27255 3.42858 -0.21330
v 2.36966 3.54330 -0.39185
v 2.74312 3.29674 -0.00000
v 2.08160 3.56535 -0.00000
v 2.12070 3.60091 -0.21067
v 1.94113 3.71986 -0.00000
v 1.79805 3.86714 -0.00000
v 1.82988 3.90123 -0.20689
v 1.97910 3.75576 -0.20899
v 1.88583 3.97599 -0.36763
v 2.05223 3.83817 -0.38376
v 2.21088 3.68901 -0.39029
v 2.15411 3.97681 -0.45184
v 2.33919 3.84306 -0.46203
v 2.50607 3.71910 -0.45817
v 2.44550 4.02174 -0.39524
v 2.62889 3.90459 -0.39395
v 2.50554 4.13867 -0.21523
v 2.70204 4.02408 -0.21539
v 2.90543 3.89702 -0.00000
v 3.01202 3.65741 -0.00000
v 1.52603 4.16976 -0.18422
v 1.68076 4.04373 -0.19937
v 1.54066 4.22560 -0.31665
v 1.71625 4.11141 -0.34693
v 1.57010 4.30772 -0.36590
v 1.77164 4.21055 -0.40249
v 1.96735 4.09644 -0.42986
v 1.82559 4.32039 -0.35226
v 2.04231 4.23481 -0.37297
v 2.24983 4.13372 -0.38693
v 2.08786 4.33028 -0.20705
v 2.30168 4.23813 -0.21029
v 1.18292 4.23412 -0.00000
v 1.35609 4.23908 -0.00000
v 1.17534 4.24296 -0.17967
v 1.35410 4.25164 -0.17499
v 1.15723 4.28706 -0.28963
v 1.35222 4.29382 -0.28560
v 1.13084 4.36106 -0.33786
v 1.35518 4.36527 -0.33250
v 1.09927 4.42407 -0.29694
v 1.36163 4.43483 -0.29236
v 1.60167 4.39431 -0.31946
v 1.36131 4.47863 -0.17795
v 1.62302 4.45167 -0.18679
v 1.86372 4.39711 -0.19828
v 1.63188 4.48031 -0.00000
v 1.36151 4.50141 -0.00000
v 1.06598 4.48909 -0.00000
v 1.04739 4.02605 -0.00000
v 1.07681 4.14974 -0.00000
v 1.01236 4.02836 -0.20683
v 1.05623 4.15493 -0.18853
v 0.88957 4.05005 -0.38112
v 0.99402 4.19641 -0.32844
v 0.69518 4.10306 -0.43821
v 0.89867 4.27467 -0.38179
v 0.52528 4.17903 -0.38472
v 0.81783 4.34447 -0.34190
v 0.41525 4.24569 -0.22396
v 0.75551 4.40516 -0.19627
v 1.07631 4.46656 -0.17857
v 1.13756 3.79252 -0.00000
v 1.07640 3.90804 -0.00000
v 1.07050 3.76875 -0.23896
v 1.02272 3.89896 -0.22571
v 0.89313 3.73217 -0.44478
v 0.85881 3.88931 -0.42783
v 0.62865 3.67497 -0.53503
v 0.59990 3.89677 -0.50621
v 0.37546 3.59480 -0.45363
v 0.34233 3.90877 -0.42955
v 0.19945 3.54179 -0.25374
v 0.17638 3.93129 -0.24882
v 0.13997 3.53161 -0.00000
v 0.40311 3.24174 -0.25130
v 0.63315 3.04477 -0.23907
v 0.57407 2.98964 -0.00000
v 0.54567 3.33497 -0.45726
v 0.75290 3.14416 -0.44722
v 0.94264 2.97699 -0.43223
v 0.83917 2.87269 -0.23449
v 0.75902 3.46528 -0.53643
v 0.93343 3.28442 -0.53336
v 1.10353 3.12602 -0.51918
v 1.27060 2.97718 -0.50048
v 1.12791 2.83209 -0.41482
v 1.12660 3.41984 -0.44619
v 1.26996 3.26792 -0.43067
v 1.41849 3.11669 -0.41570
v 1.56842 2.95983 -0.40268
v 1.43654 2.82782 -0.48424
v 1.39154 3.35488 -0.23294
v 1.52374 3.20215 -0.22582
v 1.65987 3.04052 -0.21785
v 1.79842 2.87706 -0.21194
v 1.71518 2.79761 -0.38981
v 1.84039 2.91023 -0.00000
v 1.97665 2.74148 -0.00000
v 1.93956 2.71146 -0.20675
v 2.11409 2.57113 -0.00000
v 2.25218 2.40043 -0.00000
v 2.22446 2.37403 -0.19854
v 2.08156 2.54245 -0.20280
v 2.16670 2.30912 -0.35623
v 2.01505 2.47146 -0.36952
v 1.86574 2.63543 -0.37919
v 1.92740 2.37795 -0.42805
v 1.76512 2.52715 -0.44667
v 1.60037 2.67678 -0.46494
v 1.66351 2.41832 -0.37942
v 1.48529 2.55477 -0.39015
v 1.30783 2.69233 -0.40243
v 1.41266 2.47037 -0.21075
v 1.22914 2.60215 -0.21656
v 1.04068 2.73471 -0.22446
v 0.79544 2.82416 -0.00000
v 1.22859 3.67241 -0.00000
v 1.26982 3.50359 -0.24105
v 1.15875 3.64008 -0.24386
v 0.99030 3.57319 -0.44841
v 2.54034 2.04179 -0.00000
v 2.52095 2.02449 -0.18589
v 2.37076 2.20269 -0.19259
v 2.47990 1.98607 -0.31858
v 2.32320 2.14975 -0.33843
v 2.41783 1.92788 -0.36238
v 2.25581 2.07910 -0.38617
v 2.09122 2.22810 -0.40801
v 2.18803 2.00957 -0.34137
v 2.01552 2.14680 -0.35706
v 1.83971 2.28269 -0.36950
v 1.95605 2.08539 -0.19876
v 1.77589 2.21300 -0.20306
v 1.59418 2.34155 -0.20688
v 1.75029 2.18276 -0.00000
v 1.93132 2.06075 -0.00000
v 2.11037 1.93854 -0.00000
v 2.85069 1.60453 -0.18137
v 2.68141 1.82974 -0.18054
v 2.78212 1.59011 -0.32099
v 2.63451 1.80538 -0.30854
v 2.68221 1.56707 -0.36331
v 2.56673 1.76241 -0.35127
v 2.59100 1.54447 -0.30831
v 2.49898 1.72020 -0.30085
v 2.35468 1.87102 -0.31860
v 2.45166 1.69625 -0.17589
v 2.30367 1.83272 -0.18482
v 2.13274 1.95742 -0.19303
v 2.99883 0.99297 -0.21474
v 2.97722 1.32242 -0.19538
v 2.88567 1.03551 -0.38177
v 2.88165 1.32952 -0.34900
v 2.71832 1.10198 -0.44298
v 2.74478 1.33940 -0.39724
v 2.55882 1.17832 -0.37220
v 2.61179 1.35514 -0.33596
v 2.45361 1.23161 -0.20689
v 2.52480 1.36618 -0.18855
v 2.53024 1.53162 -0.17639
v 2.42302 1.25489 -0.00000
v 2.30714 1.17094 -0.00000
v 2.74309 0.37877 -0.00000
v 2.70723 0.41949 -0.24238
v 2.90126 0.67513 -0.23168
v 2.60486 0.54073 -0.43481
v 2.78464 0.76033 -0.41428
v 2.44943 0.72584 -0.51544
v 2.60962 0.88984 -0.48573
v 2.29768 0.91582 -0.42854
v 2.44501 1.02963 -0.40738
v 2.20232 1.04415 -0.23156
v 2.34128 1.12874 -0.22301
v 2.04761 0.97084 -0.23550
v 1.88013 0.90474 -0.23514
v 1.84767 0.97517 -0.00000
v 2.13347 0.82454 -0.43768
v 1.95312 0.75442 -0.43743
v 1.75943 0.69558 -0.43343
v 1.70107 0.84175 -0.23298
v 2.25929 0.60834 -0.52831
v 2.04970 0.53052 -0.52994
v 1.82961 0.47379 -0.52162
v 1.61259 0.42845 -0.50869
v 1.56187 0.64201 -0.42199
v 2.13039 0.30156 -0.44424
v 1.89064 0.25075 -0.43571
v 1.65594 0.21092 -0.42542
v 1.42041 0.19737 -0.41034
v 1.39703 0.39544 -0.49246
v 1.92763 0.09962 -0.23481
v 1.67676 0.06261 -0.23244
v 1.42749 0.06538 -0.22358
v 1.18707 0.08495 -0.21713
v 1.18553 0.20410 -0.39368
v 1.68079 0.00000 -0.00000
v 1.17969 0.03221 -0.00000
v 0.93851 0.08241 -0.00000
v 0.94357 0.12418 -0.20887
v 0.69139 0.16941 -0.00000
v 0.45111 0.31113 -0.00000
v 0.45860 0.32879 -0.17961
v 0.69633 0.19834 -0.19458
v 0.48019 0.37554 -0.30459
v 0.70869 0.27546 -0.34046
v 0.94705 0.22458 -0.37135
v 0.72670 0.38055 -0.38658
v 0.94937 0.36544 -0.43145
v 1.17270 0.37493 -0.46460
v 0.94760 0.50204 -0.36837
v 1.15675 0.54426 -0.39284
v 1.36165 0.59173 -0.41012
v 1.13582 0.65840 -0.21652
v 1.32591 0.71848 -0.22256
v 1.51546 0.78018 -0.22924
v 1.67230 0.90866 -0.00000
v 2.48946 0.18610 -0.00000
v 2.18829 0.15003 -0.24365
v 2.45946 0.24089 -0.25001
v 2.37944 0.38853 -0.44615
v 0.09166 0.76153 -0.00000
v 0.23785 0.50928 -0.00000
v 0.11288 0.76277 -0.18398
v 0.25153 0.51806 -0.17778
v 0.17468 0.77223 -0.31359
v 0.28986 0.54451 -0.29174
v 0.26039 0.78607 -0.35095
v 0.34923 0.58750 -0.32837
v 0.51361 0.44563 -0.34306
v 0.40074 0.62634 -0.27677
v 0.54880 0.50831 -0.29202
v 0.74068 0.47777 -0.33485
v 0.58014 0.55468 -0.16783
v 0.75890 0.55311 -0.18796
v 0.94490 0.59943 -0.20847
v 0.94118 0.64607 -0.00000
v 1.11917 0.70948 -0.00000
v 0.58876 0.56821 -0.00000
v 0.44566 0.66223 -0.00000
v 0.03967 1.29953 -0.21260
v 0.04822 1.03024 -0.19867
v 0.14915 1.27403 -0.37792
v 0.13469 1.02229 -0.34866
v 0.30048 1.22953 -0.43435
v 0.25351 1.00964 -0.39831
v 0.43959 1.18370 -0.36731
v 0.35869 0.99169 -0.33595
v 0.33871 0.80235 -0.29898
v 0.43851 0.98397 -0.18948
v 0.38855 0.81837 -0.17042
v 0.43539 0.65410 -0.16331
v 0.57143 1.11792 -0.00000
v 0.15196 1.83079 -0.00000
v 0.18787 1.80974 -0.22086
v 0.08609 1.56091 -0.21858
v 0.30557 1.74363 -0.39916
v 0.20523 1.51605 -0.39409
v 0.48509 1.63290 -0.46691
v 0.37924 1.44139 -0.46015
v 0.64909 1.52063 -0.37709
v 0.53944 1.35856 -0.37930
v 0.74309 1.45179 -0.19860
v 0.63617 1.29840 -0.20037
v 0.53491 1.14400 -0.20343
v 0.67599 1.27003 -0.00000
v 0.89368 1.56993 -0.00000
v 0.32283 2.04561 -0.00000
v 0.35069 2.02367 -0.21450
v 0.45862 1.94010 -0.39265
v 0.62003 1.80213 -0.45866
v 0.77263 1.67044 -0.37112
v 0.85875 1.59865 -0.19276
v 1.00786 1.72481 -0.00000
v 1.09825 1.93518 -0.00000
v 2.48260 3.27728 -0.00000
v 2.24336 3.39378 -0.00000
v 2.52998 4.18493 -0.00000
v 2.72728 4.06268 -0.00000
v 2.93414 3.42534 -0.00000
v 1.51878 4.14519 -0.00000
v 1.65987 4.01043 -0.00000
v 2.10477 4.37255 -0.00000
v 2.32301 4.28562 -0.00000
v 1.87703 4.43480 -0.00000
v 0.73204 4.42832 -0.00000
v 0.38026 4.26554 -0.00000
v 0.12695 3.94214 -0.00000
v 0.33952 3.20322 -0.00000
v 1.57646 3.23888 -0.00000
v 1.70702 3.07542 -0.00000
v 1.19542 2.55817 -0.00000
v 1.00368 2.68695 -0.00000
v 1.33643 3.54048 -0.00000
v 1.45107 3.39403 -0.00000
v 2.39319 2.22526 -0.00000
v 1.56706 2.30600 -0.00000
v 1.38394 2.43028 -0.00000
v 2.87366 1.60856 -0.00000
v 2.70273 1.83959 -0.00000
v 2.28462 1.82004 -0.00000
v 2.43567 1.69146 -0.00000
v 3.03197 0.97939 -0.00000
v 3.00482 1.31757 -0.00000
v 2.50122 1.37294 -0.00000
v 2.51439 1.53225 -0.00000
v 2.93791 0.64917 -0.00000
v 2.16669 1.10492 -0.00000
v 2.01321 1.04051 -0.00000
v 1.42548 0.00579 -0.00000
v 1.30490 0.77578 -0.00000
v 1.49022 0.84273 -0.00000
v 2.21196 0.08134 -0.00000
v 1.94283 0.02954 -0.00000
v 0.76559 0.58389 -0.00000
v 0.00000 1.30883 -0.00000
v 0.01677 1.03550 -0.00000
v 0.40511 0.82006 -0.00000
v 0.47397 0.97627 -0.00000
v 0.04521 1.57644 -0.00000
v 0.78299 1.42053 -0.00000
v 0.54710 2.19929 -0.00000
v 1.03564 2.15447 -0.00000
v 0.81871 2.25660 -0.00000
v 0.80695 2.17295 0.30370
v 1.01234 1.93337 0.29190
v 2.90332 3.63764 0.33438
v 2.71066 3.40252 0.33771
v 0.64624 2.09518 0.36113
v 0.56403 2.17751 0.19274
v 0.81508 2.23682 0.17798
v 1.01831 2.14244 0.18268
v 0.94110 2.08412 0.33695
v 0.78651 1.95415 0.43188
v 0.91379 1.81313 0.33906
v 1.07477 1.93100 0.17149
v 0.98004 1.74656 0.17869
v 2.82907 3.50138 0.36622
v 2.67120 3.60688 0.43867
v 2.79265 3.76950 0.37753
v 2.87659 3.87233 0.20718
v 2.98524 3.64882 0.20005
v 2.91760 3.43787 0.19969
v 2.55635 3.43913 0.37426
v 2.73505 3.32274 0.20240
v 2.49457 3.31319 0.20827
v 2.27255 3.42858 0.21330
v 2.36966 3.54330 0.39185
v 2.12070 3.60091 0.21067
v 1.82988 3.90123 0.20689
v 1.97910 3.75576 0.20899
v 1.88583 3.97599 0.36763
v 2.05223 3.83817 0.38376
v 2.21088 3.68901 0.39029
v 2.15411 3.97681 0.45184
v 2.33919 3.84306 0.46203
v 2.50607 3.71910 0.45817
v 2.44550 4.02174 0.39524
v 2.62889 3.90459 0.39395
v 2.50554 4.13867 0.21523
v 2.70204 4.02408 0.21539
v 1.52603 4.16976 0.18422
v 1.68076 4.04373 0.19937
v 1.54066 4.22560 0.31665
v 1.71625 4.11141 0.34693
v 1.57010 4.30772 0.36590
v 1.77164 4.21055 0.40249
v 1.96735 4.09644 0.42986
v 1.82559 4.32039 0.35226
v 2.04231 4.23481 0.37297
v 2.24983 4.13372 0.38693
v 2.08786 4.33028 0.20705
v 2.30168 4.23813 0.21029
v 1.17534 4.24296 0.17967
v 1.35410 4.25164 0.17499
v 1.15723 4.28706 0.28963
v 1.35222 4.29382 0.28560
v 1.13084 4.36106 0.33786
v 1.35518 4.36527 0.33250
v 1.09927 4.42407 0.29694
v 1.36163 4.43483 0.29236
v 1.60167 4.39431 0.31946
v 1.36131 4.47863 0.17795
v 1.62302 4.45167 0.18679
v 1.86372 4.39711 0.19828
v 1.01236 4.02836 0.20683
v 1.05623 4.15493 0.18853
v 0.88957 4.05005 0.38112
v 0.99402 4.19641 0.32844
v 0.69518 4.10306 0.43821
v 0.89867 4.27467 0.38179
v 0.52528 4.17903 0.38472
v 0.81783 4.34447 0.34190
v 0.41525 4.24569 0.22396
v 0.75551 4.40516 0.19627
v 1.07631 4.46656 0.17857
v 1.07050 3.76875 0.23896
v 1.02272 3.89896 0.22571
v 0.89313 3.73217 0.44478
v 0.85881 3.88931 0.42783
v 0.62865 3.67497 0.53503
v 0.59990 3.89677 0.50621
v 0.37546 3.59480 0.45363
v 0.34233 3.90877 0.42955
v 0.19945 3.54179 0.25374
v 0.17638 3.93129 0.24882
v 0.40311 3.24174 0.25130
v 0.63315 3.04477 0.23907
v 0.54567 3.33497 0.45726
v 0.75290 3.14416 0.44722
v 0.94264 2.97699 0.43223
v 0.83917 2.87269 0.23449
v 0.75902 3.46528 0.53643
v 0.93343 3.28442 0.53336
v 1.10353 3.12602 0.51918
v 1.27060 2.97718 0.50048
v 1.12791 2.83209 0.41482
v 1.12660 3.41984 0.44619
v 1.26996 3.26792 0.43067
v 1.41849 3.11669 0.41570
v 1.56842 2.95983 0.40268
v 1.43654 2.82782 0.48424
v 1.39154 3.35488 0.23294
v 1.52374 3.20215 0.22582
v 1.65987 3.04052 0.21785
v 1.79842 2.87706 0.21194
v 1.71518 2.79761 0.38981
v 1.93956 2.71146 0.20675
v 2.22446 2.37403 0.19854
v 2.08156 2.54245 0.20280
v 2.16670 2.30912 0.35623
v 2.01505 2.47146 0.36952
v 1.86574 2.63543 0.37919
v 1.92740 2.37795 0.42805
v 1.76512 2.52715 0.44667
v 1.60037 2.67678 0.46494
v 1.66351 2.41832 0.37942
v 1.48529 2.55477 0.39015
v 1.30783 2.69233 0.40243
v 1.41266 2.47037 0.21075
v 1.22914 2.60215 0.21656
v 1.04068 2.73471 0.22446
v 1.26982 3.50359 0.24105
v 1.15875 3.64008 0.24386
v 0.99030 3.57319 0.44841
v 2.52095 2.02449 0.18589
v 2.37076 2.20269 0.19259
v 2.47990 1.98607 0.31858
v 2.32320 2.14975 0.33843
v 2.41783 1.92788 0.36238
v 2.25581 2.07910 0.38617
v 2.09122 2.22810 0.40801
v 2.18803 2.00957 0.34137
v 2.01552 2.14680 0.35706
v 1.83971 2.28269 0.36950
v 1.95605 2.08539 0.19876
v 1.77589 2.21300 0.20306
v 1.59418 2.34155 0.20688
v 2.85069 1.60453 0.18137
v 2.68141 1.82974 0.18054
v 2.78212 1.59011 0.32099
v 2.63451 1.80538 0.30854
v 2.68221 1.56707 0.36331
v 2.56673 1.76241 0.35127
v 2.59100 1.54447 0.30831
v 2.49898 1.72020 0.30085
v 2.35468 1.87102 0.31860
v 2.45166 1.69625 0.17589
v 2.30367 1.83272 0.18482
v 2.13274 1.95742 0.19303
v 2.99883 0.99297 0.21474
v 2.97722 1.32242 0.19538
v 2.88567 1.03551 0.38177
v 2.88165 1.32952 0.34900
v 2.71832 1.10198 0.44298
v 2.74478 1.33940 0.39724
v 2.55882 1.17832 0.37220
v 2.61179 1.35514 0.33596
v 2.45361 1.23161 0.20689
v 2.52480 1.36618 0.18855
v 2.53024 1.53162 0.17639
v 2.70723 0.41949 0.24238
v 2.90126 0.67513 0.23168
v 2.60486 0.54073 0.43481
v 2.78464 0.76033 0.41428
v 2.44943 0.72584 0.51544
v 2.60962 0.88984 0.48573
v 2.29768 0.91582 0.42854
v 2.44501 1.02963 0.40738
v 2.20232 1.04415 0.23156
v 2.34128 1.12874 0.22301
v 2.04761 0.97084 0.23550
v 1.88013 0.90474 0.23514
v 2.13347 0.82454 0.43768
v 1.95312 0.75442 0.43743
v 1.75943 0.69558 0.43343
v 1.70107 0.84175 0.23298
v 2.25929 0.60834 0.52831
v 2.04970 0.53052 0.52994
v 1.82961 0.47379 0.52162
v 1.61259 0.42845 0.50869
v 1.56187 0.64201 0.42199
v 2.13039 0.30156 0.44424
v 1.89064 0.25075 0.43571
v 1.65594 0.21092 0.42542
v 1.42041 0.19737 0.41034
v 1.39703 0.39544 0.49246
v 1.92763 0.09962 0.23481
v 1.67676 0.06261 0.23244
v 1.42749 0.06538 0.22358
v 1.18707 0.08495 0.21713
v 1.18553 0.20410 0.39368
v 0.94357 0.12418 0.20887
v 0.45860 0.32879 0.17961
v 0.69633 0.19834 0.19458
v 0.48019 0.37554 0.30459
v 0.70869 0.27546 0.34046
v 0.94705 0.22458 0.37135
v 0.72670 0.38055 0.38658
v 0.94937 0.36544 0.43145
v 1.17270 0.37493 0.46460
v 0.94760 0.50204 0.36837
v 1.15675 0.54426 0.39284
v 1.36165 0.59173 0.41012
v 1.13582 0.65840 0.21652
v 1.32591 0.71848 0.22256
v 1.51546 0.78018 0.22924
v 2.18829 0.15003 0.24365
v 2.45946 0.24089 0.25001
v 2.37944 0.38853 0.44615
v 0.11288 0.76277 0.18398
v 0.25153 0.51806 0.17778
v 0.17468 0.77223 0.31359
v 0.28986 0.54451 0.29174
v 0.26039 0.78607 0.35095
v 0.34923 0.58750 0.32837
v 0.51361 0.44563 0.34306
v 0.40074 0.62634 0.27677
v 0.54880 0.50831 0.29202
v 0.74068 0.47777 0.33485
v 0.58014 0.55468 0.16783
v 0.75890 0.55311 0.18796
v 0.94490 0.59943 0.20847
v 0.03967 1.29953 0.21260
v 0.04822 1.03024 0.19867
v 0.14915 1.27403 0.37792
v 0.13469 1.02229 0.34866
v 0.30048 1.22953 0.43435
v 0.25351 1.00964 0.39831
v 0.43959 1.18370 0.36731
v 0.35869 0.99169 0.33595
v 0.33871 0.80235 0.29898
v 0.43851 0.98397 0.18948
v 0.38855 0.81837 0.17042
v 0.43539 0.65410 0.16331
v 0.18787 1.80974 0.22086
v 0.08609 1.56091 0.21858
v 0.30557 1.74363 0.39916
v 0.20523 1.51605 0.39409
v 0.48509 1.63290 0.46691
v 0.37924 1.44139 0.46015
v 0.64909 1.52063 0.37709
v 0.53944 1.35856 0.37930
v 0.74309 1.45179 0.19860
v 0.63617 1.29840 0.20037
v 0.53491 1.14400 0.20343
v 0.35069 2.02367 0.21450
v 0.45862 1.94010 0.39265
v 0.62003 1.80213 0.45866
v 0.77263 1.67044 0.37112
v 0.85875 1.59865 0.19276
vn 0.09266 0.76576 -0.63641
vn -0.18882 0.62723 -0.75560
vn -0.37603 0.86299 -0.33742
vn 0.10129 0.94673 -0.30569
vn 0.41252 0.86496 -0.28577
vn 0.51901 0.41698 -0.74616
vn 0.23001 0.15049 -0.96148
vn 0.76774 -0.08554 -0.63502
vn 0.61858 -0.31958 -0.71779
vn 0.94215 -0.09520 -0.32138
vn 0.79668 -0.50135 -0.33756
vn 0.91952 0.25329 -0.30054
vn 0.70831 0.04384 -0.70454
vn 0.49549 -0.38873 -0.77678
vn 0.17725 -0.13700 -0.97458
vn 0.51024 0.31275 -0.80115
vn 0.73735 0.55273 -0.38832
vn 0.83770 0.41784 -0.35166
vn 0.89874 -0.31081 -0.30929
vn 0.74434 -0.57990 -0.33118
vn 0.20059 -0.69480 -0.69067
vn -0.08443 -0.59284 -0.80088
vn 0.27814 -0.89440 -0.35027
vn -0.19469 -0.89504 -0.40126
vn -0.53825 -0.72339 -0.43243
vn -0.31134 -0.46937 -0.82629
vn 0.31386 -0.94947 -0.00065
vn -0.20033 -0.97973 -0.00019
vn -0.60354 -0.79734 0.00008
vn -0.73978 -0.67285 -0.00012
vn -0.66486 -0.62107 -0.41500
vn -0.72425 -0.68953 -0.00004
vn -0.70837 -0.70584 0.00011
vn -0.65111 -0.66801 -0.36031
vn -0.65785 -0.64347 -0.39137
vn -0.47360 -0.47736 -0.74016
vn -0.45416 -0.44958 -0.76917
vn -0.42423 -0.42568 -0.79926
vn -0.07998 0.02868 -0.99638
vn -0.03460 0.00791 -0.99937
vn 0.03497 -0.03434 -0.99880
vn 0.28989 0.50967 -0.81006
vn 0.35963 0.44001 -0.82284
vn 0.43689 0.79699 -0.41706
vn 0.54419 0.72647 -0.41964
vn 0.47594 0.87948 0.00006
vn 0.59629 0.80277 -0.00011
vn 0.80601 0.59191 0.00006
vn 0.90759 0.41985 0.00047
vn 0.95013 -0.31184 0.00038
vn 0.79326 -0.60889 -0.00006
vn -0.68740 -0.72628 -0.00010
vn -0.57061 -0.82122 -0.00008
vn -0.53117 -0.80629 -0.26031
vn -0.63817 -0.70233 -0.31539
vn -0.42219 -0.62730 -0.65441
vn -0.48504 -0.52336 -0.70059
vn -0.31609 -0.41007 -0.85553
vn -0.33335 -0.31813 -0.88751
vn -0.30417 -0.27523 -0.91199
vn 0.08381 0.34875 -0.93346
vn 0.04739 0.40153 -0.91462
vn 0.14447 0.66151 -0.73589
vn 0.19775 0.60577 -0.77067
vn 0.24778 0.55970 -0.79078
vn 0.30923 0.87312 -0.37687
vn 0.38006 0.83329 -0.40148
vn 0.32661 0.94516 -0.00001
vn 0.40865 0.91269 -0.00004
vn -0.22124 -0.97522 0.00009
vn 0.34077 -0.94015 -0.00035
vn 0.32542 -0.91310 -0.24567
vn -0.20223 -0.95200 -0.22979
vn 0.25637 -0.68594 -0.68100
vn -0.16083 -0.74874 -0.64306
vn 0.18546 -0.44291 -0.87717
vn -0.12703 -0.51469 -0.84791
vn -0.00386 0.50491 -0.86316
vn -0.00706 0.51598 -0.85657
vn -0.05723 0.75702 -0.65087
vn 0.01382 0.75859 -0.65142
vn 0.08312 0.71970 -0.68929
vn 0.00844 0.46229 -0.88669
vn 0.02664 0.96717 -0.25274
vn 0.14610 0.94593 -0.28959
vn 0.23055 0.91247 -0.33800
vn 0.14281 0.98975 0.00007
vn 0.23440 0.97214 -0.00002
vn 0.02295 0.99974 0.00010
vn 0.82794 -0.56082 0.00005
vn 0.99872 -0.05060 -0.00035
vn 0.92153 -0.07845 -0.38030
vn 0.77507 -0.55246 -0.30668
vn 0.60909 -0.00826 -0.79306
vn 0.55672 -0.36863 -0.74443
vn 0.09828 0.24164 -0.96538
vn 0.16243 0.15733 -0.97410
vn -0.32987 0.53647 -0.77678
vn -0.16559 0.68710 -0.70744
vn -0.56093 0.73368 -0.38350
vn -0.28248 0.90880 -0.30705
vn -0.10676 0.96066 -0.25639
vn -0.30071 0.95372 0.00004
vn -0.11109 0.99381 0.00001
vn -0.61987 0.78471 0.00000
vn 0.95451 0.29819 -0.00015
vn 0.86262 0.50586 0.00040
vn 0.77248 0.43103 -0.46636
vn 0.86693 0.24118 -0.43619
vn 0.49942 0.27417 -0.82183
vn 0.55112 0.18582 -0.81347
vn 0.00226 0.06727 -0.99773
vn 0.02191 0.19747 -0.98006
vn -0.50855 -0.14285 -0.84910
vn -0.49183 0.23381 -0.83871
vn -0.83919 -0.27001 -0.47207
vn -0.84332 0.28301 -0.45686
vn -0.95330 -0.30203 -0.00029
vn -0.95215 0.30564 0.00023
vn -0.66554 -0.58514 -0.46332
vn -0.75714 -0.65326 -0.00027
vn -0.56772 -0.68714 -0.45336
vn -0.63785 -0.77016 0.00009
vn -0.42360 -0.37681 -0.82376
vn -0.37572 -0.46956 -0.79896
vn -0.35378 -0.50933 -0.78449
vn -0.52985 -0.72634 -0.43782
vn 0.01557 -0.00057 -0.99988
vn 0.03422 -0.03608 -0.99876
vn -0.19903 -0.32700 -0.92383
vn -0.20095 -0.34276 -0.91768
vn -0.34719 -0.53349 -0.77126
vn 0.30276 0.21526 -0.92844
vn 0.45714 0.36856 -0.80944
vn 0.47612 0.37592 -0.79498
vn 0.48659 0.39350 -0.77999
vn 0.31312 0.23028 -0.92137
vn 0.50202 0.40105 -0.76625
vn 0.32518 0.23836 -0.91512
vn 0.69031 0.56441 -0.45268
vn 0.69319 0.57644 -0.43268
vn 0.70285 0.57899 -0.41325
vn 0.70623 0.58644 -0.39665
vn 0.51048 0.41021 -0.75573
vn 0.77342 0.63389 -0.00004
vn 0.77463 0.63241 0.00000
vn 0.77212 0.63548 0.00001
vn 0.77236 0.63519 0.00001
vn 0.71089 0.59257 -0.37881
vn 0.77227 0.63529 0.00000
vn 0.77130 0.63647 -0.00001
vn 0.72130 0.60642 -0.33464
vn 0.71675 0.59785 -0.35895
vn 0.53555 0.43481 -0.72397
vn 0.52442 0.42532 -0.73762
vn 0.51514 0.41996 -0.74717
vn 0.34008 0.25190 -0.90603
vn 0.33475 0.25260 -0.90782
vn 0.33397 0.24560 -0.91002
vn -0.21614 -0.35328 -0.91021
vn -0.22012 -0.35439 -0.90882
vn -0.37600 -0.55329 -0.74330
vn -0.36972 -0.54777 -0.75050
vn -0.36254 -0.54036 -0.75933
vn -0.21217 -0.34755 -0.91334
vn -0.52951 -0.75740 -0.38206
vn -0.52260 -0.75345 -0.39901
vn -0.50972 -0.75264 -0.41679
vn -0.56629 -0.82421 -0.00002
vn -0.55788 -0.82992 0.00001
vn -0.58584 -0.81043 -0.00016
vn 0.79269 0.60962 -0.00009
vn 0.78063 0.62499 0.00004
vn 0.68747 0.55551 -0.46775
vn 0.70034 0.53345 -0.47430
vn 0.45700 0.34570 -0.81954
vn 0.77756 0.62881 -0.00000
vn 0.77257 0.63494 0.00003
vn 0.77522 0.63169 -0.00002
vn 0.74249 0.61231 -0.27163
vn 0.73009 0.61292 -0.30217
vn 0.57321 0.45353 -0.68245
vn 0.55427 0.44541 -0.70313
vn 0.37538 0.26596 -0.88789
vn 0.36574 0.25590 -0.89485
vn 0.35000 0.25304 -0.90193
vn -0.21569 -0.36597 -0.90528
vn -0.21819 -0.38360 -0.89735
vn -0.39205 -0.58544 -0.70962
vn -0.38391 -0.57148 -0.72528
vn -0.38029 -0.56139 -0.73500
vn -0.21956 -0.35790 -0.90758
vn -0.54432 -0.77379 -0.32397
vn -0.53713 -0.76960 -0.34528
vn -0.53316 -0.76333 -0.36480
vn -0.56671 -0.82392 0.00005
vn -0.56749 -0.82338 0.00001
vn -0.56920 -0.82220 -0.00003
vn 0.78925 0.61407 -0.00002
vn 0.86122 0.50823 0.00001
vn 0.82678 0.48832 -0.27924
vn 0.76240 0.59240 -0.26038
vn 0.59402 0.37773 -0.71025
vn 0.57928 0.44700 -0.68164
vn 0.34165 0.25186 -0.90545
vn 0.36109 0.27546 -0.89092
vn -0.40419 -0.30421 -0.86261
vn -0.47807 -0.08937 -0.87376
vn -0.70719 -0.14897 -0.69115
vn -0.59665 -0.44584 -0.66726
vn -0.45009 -0.57648 -0.68197
vn -0.27596 -0.39091 -0.87808
vn -0.77290 -0.58143 -0.25410
vn -0.60364 -0.75069 -0.26848
vn -0.55298 -0.77772 -0.29894
vn -0.61871 -0.78562 -0.00006
vn -0.57367 -0.81908 0.00000
vn -0.57027 -0.82146 0.00001
vn -0.79612 -0.60514 -0.00014
vn 0.96856 0.24877 -0.00005
vn 0.99474 -0.10248 0.00003
vn 0.92345 -0.08636 -0.37387
vn 0.91442 0.24172 -0.32468
vn 0.61685 -0.00486 -0.78707
vn 0.62368 0.21214 -0.75235
vn 0.04668 0.18485 -0.98166
vn 0.34984 0.17459 -0.92040
vn -0.40632 0.14513 -0.90213
vn -0.47846 0.41567 -0.77349
vn -0.64648 0.18574 -0.73998
vn -0.70879 0.59236 -0.38306
vn -0.90791 0.25842 -0.33004
vn -0.94034 -0.19792 -0.27674
vn -0.95454 0.29807 0.00039
vn -0.98095 -0.19428 -0.00020
vn -0.75140 0.65984 0.00105
vn 0.89704 -0.44194 -0.00005
vn 0.70979 -0.70441 0.00001
vn 0.63853 -0.63178 -0.43947
vn 0.81973 -0.39707 -0.41276
vn 0.41854 -0.38038 -0.82470
vn 0.54347 -0.21492 -0.81145
vn 0.06274 0.07175 -0.99545
vn 0.08059 0.13694 -0.98730
vn -0.26238 0.52569 -0.80920
vn -0.33627 0.50838 -0.79276
vn -0.40177 0.79067 -0.46198
vn -0.51289 0.74513 -0.42630
vn -0.43615 0.89988 -0.00030
vn -0.54808 0.83643 0.00013
vn -0.34384 0.80741 -0.47943
vn -0.38603 0.92249 0.00009
vn -0.30831 0.82236 -0.47819
vn -0.35622 0.93440 0.00002
vn -0.22498 0.53502 -0.81434
vn -0.20134 0.54854 -0.81152
vn -0.19704 0.56047 -0.80440
vn -0.29174 0.83571 -0.46528
vn 0.01795 0.02815 -0.99944
vn -0.02311 0.00389 -0.99973
vn -0.12842 0.33545 -0.93326
vn -0.13501 0.34568 -0.92859
vn -0.19982 0.57450 -0.79374
vn 0.03242 -0.34846 -0.93676
vn 0.13863 -0.56105 -0.81609
vn 0.08020 -0.58636 -0.80607
vn 0.02355 -0.60268 -0.79764
vn -0.00295 -0.36443 -0.93123
vn -0.04844 -0.62169 -0.78177
vn -0.05108 -0.38139 -0.92300
vn 0.13834 -0.87923 -0.45587
vn 0.05061 -0.89480 -0.44358
vn -0.05072 -0.90448 -0.42349
vn -0.12285 -0.90884 -0.39865
vn -0.10572 -0.63406 -0.76603
vn 0.05297 -0.99860 0.00016
vn -0.05963 -0.99822 -0.00005
vn -0.14157 -0.98993 -0.00007
vn -0.25062 -0.96809 -0.00008
vn -0.22577 -0.90503 -0.36049
vn -0.40836 -0.91282 0.00004
vn -0.59159 -0.80624 0.00005
vn -0.56857 -0.78244 -0.25400
vn -0.38214 -0.87231 -0.30503
vn -0.45337 -0.57148 -0.68401
vn -0.31537 -0.62260 -0.71617
vn -0.18877 -0.63647 -0.74785
vn -0.24665 -0.35995 -0.89978
vn -0.16121 -0.38066 -0.91055
vn -0.09825 -0.38838 -0.91625
vn -0.16185 0.37880 -0.91121
vn -0.17190 0.42016 -0.89102
vn -0.21203 0.65499 -0.72528
vn -0.21476 0.61535 -0.75843
vn -0.20466 0.59293 -0.77881
vn -0.14418 0.35996 -0.92176
vn -0.28486 0.87245 -0.39711
vn -0.28615 0.85867 -0.42522
vn -0.28769 0.84664 -0.44770
vn -0.32588 0.94541 0.00006
vn -0.32981 0.94405 0.00001
vn -0.33768 0.94126 0.00000
vn 0.47085 -0.88221 -0.00010
vn 0.25964 -0.96571 -0.00018
vn 0.22350 -0.85887 -0.46087
vn 0.41390 -0.78693 -0.45764
vn 0.26561 -0.49438 -0.82767
vn 0.15611 -0.98774 0.00019
vn -0.78153 -0.62387 -0.00011
vn -0.92540 -0.37900 0.00006
vn -0.89082 -0.36178 -0.27489
vn -0.75844 -0.60446 -0.24371
vn -0.63947 -0.30126 -0.70734
vn -0.72219 -0.57454 -0.38516
vn -0.34791 -0.28683 -0.89258
vn -0.36726 -0.23001 -0.90123
vn -0.31555 -0.32867 -0.89017
vn 0.15361 0.54187 -0.82630
vn 0.47474 0.33129 -0.81540
vn 0.63633 0.44725 -0.62853
vn 0.22443 0.73191 -0.64337
vn -0.11330 0.72730 -0.67691
vn -0.10962 0.50277 -0.85744
vn 0.27633 0.92478 -0.26157
vn -0.14208 0.94388 -0.29816
vn -0.27217 0.89432 -0.35512
vn -0.17294 0.98493 0.00058
vn -0.30866 0.95117 0.00018
vn -0.32122 0.94700 -0.00018
vn -0.98824 -0.15291 0.00007
vn -0.99826 0.05897 -0.00003
vn -0.92629 0.05658 -0.37254
vn -0.93482 -0.14095 -0.32595
vn -0.62841 0.01135 -0.77780
vn -0.65502 -0.13934 -0.74266
vn -0.36373 -0.03134 -0.93098
vn -0.38026 -0.13790 -0.91454
vn 0.46579 -0.22862 -0.85485
vn 0.37258 -0.25658 -0.89182
vn 0.57616 -0.36622 -0.73070
vn 0.67047 -0.29611 -0.68028
vn 0.77008 -0.00914 -0.63789
vn 0.56181 -0.02732 -0.82682
vn 0.86160 -0.39968 -0.31288
vn 0.96566 -0.01969 -0.25906
vn 0.79031 0.56222 -0.24355
vn 0.99882 -0.04850 0.00014
vn 0.96564 0.25987 -0.00027
vn 0.55676 0.83068 -0.00012
vn 0.26909 0.96311 0.00013
vn 0.89143 -0.45316 0.00070
vn -0.96086 0.27702 0.00005
vn -0.86388 0.50370 -0.00001
vn -0.78932 0.46242 -0.40391
vn -0.88178 0.25401 -0.39741
vn -0.49552 0.29912 -0.81547
vn -0.57733 0.15303 -0.80204
vn -0.25833 0.16588 -0.95171
vn -0.32204 0.06772 -0.94430
vn 0.34443 -0.23556 -0.90878
vn 0.34023 -0.22668 -0.91261
vn 0.53290 -0.37566 -0.75822
vn 0.54760 -0.36352 -0.75365
vn 0.74276 -0.54017 -0.39564
vn 0.76444 -0.51270 -0.39087
vn 0.78493 -0.50000 -0.36591
vn 0.82489 -0.56529 0.00001
vn 0.83391 -0.55191 0.00044
vn 0.80780 -0.58945 0.00000
vn -0.68651 0.72712 0.00000
vn -0.39966 0.91667 -0.00018
vn -0.62674 0.67515 -0.38907
vn -0.37489 0.45300 -0.80886
vn -0.17388 0.26847 -0.94746
vn 0.35627 -0.22125 -0.90781
vn 0.53630 -0.38744 -0.74984
vn 0.73306 -0.56308 -0.38152
vn 0.85528 -0.51816 0.00096
vn 0.79558 -0.60585 -0.00004
vn 0.99640 -0.08475 0.00119
vn 0.96474 0.26322 0.00029
vn 0.42257 0.90633 -0.00016
vn 0.10982 0.99395 -0.00032
vn 0.10378 0.94484 0.31067
vn -0.37119 0.86356 0.34129
vn -0.18251 0.62721 0.75716
vn 0.09614 0.76298 0.63924
vn 0.24653 0.67664 0.69382
vn 0.40842 0.86554 0.28989
vn -0.01809 0.41444 0.90990
vn 0.71584 0.09190 0.69219
vn 0.45207 -0.13008 0.88244
vn 0.61995 -0.31567 0.71834
vn 0.76733 -0.08474 0.63563
vn 0.79720 -0.49769 0.34173
vn 0.94040 -0.09352 0.32696
vn 0.91970 0.24710 0.30513
vn 0.51104 0.30636 0.80311
vn 0.17913 -0.13833 0.97405
vn 0.49564 -0.38641 0.77784
vn 0.70501 0.03973 0.70808
vn 0.93058 0.05478 0.36196
vn 0.73847 0.54795 0.39294
vn 0.74428 -0.57778 0.33498
vn -0.07767 -0.58925 0.80421
vn 0.20768 -0.68879 0.69457
vn 0.28351 -0.89078 0.35515
vn -0.18872 -0.89354 0.40740
vn -0.31097 -0.46888 0.82671
vn -0.53827 -0.72277 0.43344
vn -0.66482 -0.62065 0.41570
vn -0.65794 -0.64338 0.39136
vn -0.65076 -0.66814 0.36068
vn -0.45518 -0.44902 0.76889
vn -0.47270 -0.47755 0.74061
vn -0.42412 -0.42530 0.79953
vn -0.03421 0.00732 0.99939
vn -0.08077 0.02889 0.99631
vn 0.03546 -0.03482 0.99876
vn 0.36005 0.44010 0.82260
vn 0.29039 0.50965 0.80990
vn 0.54424 0.72658 0.41939
vn 0.43675 0.79711 0.41698
vn -0.63899 -0.70177 0.31497
vn -0.53130 -0.80619 0.26033
vn -0.48580 -0.52350 0.69996
vn -0.42240 -0.62638 0.65515
vn -0.33402 -0.31878 0.88703
vn -0.31639 -0.40811 0.85636
vn -0.30294 -0.27549 0.91232
vn 0.19923 0.60526 0.77070
vn 0.14589 0.66109 0.73599
vn 0.05103 0.40115 0.91459
vn 0.08513 0.34835 0.93349
vn 0.24788 0.55957 0.79085
vn 0.37997 0.83333 0.40147
vn 0.30996 0.87286 0.37689
vn -0.20032 -0.95216 0.23080
vn 0.32733 -0.91288 0.24393
vn -0.15823 -0.74753 0.64510
vn 0.26225 -0.68835 0.67632
vn -0.12462 -0.51217 0.84979
vn 0.19379 -0.44896 0.87229
vn 0.01419 0.75954 0.65031
vn -0.05953 0.75842 0.64904
vn -0.00860 0.51885 0.85482
vn -0.00458 0.50635 0.86232
vn 0.00979 0.46192 0.88687
vn 0.08350 0.71981 0.68913
vn 0.14587 0.94604 0.28936
vn 0.02722 0.96729 0.25221
vn 0.23029 0.91244 0.33827
vn 0.77204 -0.55559 0.30866
vn 0.92055 -0.07855 0.38265
vn 0.55068 -0.37445 0.74602
vn 0.60140 -0.00824 0.79891
vn 0.15813 0.15472 0.97522
vn 0.09609 0.24261 0.96535
vn -0.16714 0.68740 0.70679
vn -0.32452 0.53774 0.77815
vn -0.28281 0.90873 0.30697
vn -0.56000 0.73399 0.38426
vn -0.10817 0.96069 0.25567
vn 0.86710 0.24328 0.43469
vn 0.77265 0.42986 0.46716
vn 0.55287 0.18799 0.81179
vn 0.49932 0.27378 0.82202
vn 0.02585 0.19873 0.97971
vn 0.00064 0.06693 0.99776
vn -0.48976 0.23465 0.83969
vn -0.51072 -0.14367 0.84766
vn -0.84334 0.28291 0.45689
vn -0.83967 -0.27039 0.47100
vn -0.66557 -0.58549 0.46284
vn -0.56752 -0.68706 0.45373
vn -0.42425 -0.37710 0.82329
vn -0.37591 -0.46953 0.79890
vn -0.53025 -0.72619 0.43759
vn -0.35410 -0.50918 0.78444
vn 0.03437 -0.03601 0.99876
vn 0.01550 -0.00047 0.99988
vn -0.19917 -0.32687 0.92384
vn -0.34758 -0.53338 0.77116
vn -0.20145 -0.34259 0.91763
vn 0.47688 0.37585 0.79456
vn 0.45834 0.36886 0.80862
vn 0.30331 0.21548 0.92821
vn 0.31319 0.23017 0.92138
vn 0.48661 0.39348 0.77999
vn 0.32573 0.23802 0.91501
vn 0.50212 0.40097 0.76623
vn 0.69329 0.57635 0.43263
vn 0.69076 0.56413 0.45233
vn 0.70270 0.57911 0.41333
vn 0.51073 0.41006 0.75565
vn 0.70638 0.58631 0.39658
vn 0.71092 0.59255 0.37879
vn 0.71680 0.59779 0.35894
vn 0.72109 0.60670 0.33459
vn 0.52454 0.42520 0.73760
vn 0.53536 0.43510 0.72393
vn 0.51511 0.42001 0.74716
vn 0.33465 0.25269 0.90783
vn 0.34022 0.25177 0.90602
vn 0.33413 0.24550 0.90999
vn -0.36984 -0.54767 0.75052
vn -0.37600 -0.55327 0.74332
vn -0.22020 -0.35433 0.90882
vn -0.21610 -0.35331 0.91020
vn -0.21226 -0.34752 0.91333
vn -0.36252 -0.54037 0.75933
vn -0.52266 -0.75340 0.39901
vn -0.52969 -0.75727 0.38205
vn -0.50985 -0.75259 0.41672
vn 0.70075 0.53391 0.47317
vn 0.68788 0.55552 0.46714
vn 0.45819 0.34650 0.81853
vn 0.73005 0.61287 0.30233
vn 0.74282 0.61191 0.27164
vn 0.55419 0.44531 0.70326
vn 0.57359 0.45310 0.68241
vn 0.36569 0.25586 0.89488
vn 0.37557 0.26590 0.88783
vn 0.34998 0.25310 0.90192
vn -0.38414 -0.57124 0.72534
vn -0.39211 -0.58532 0.70968
vn -0.21852 -0.38290 0.89757
vn -0.21565 -0.36600 0.90528
vn -0.21946 -0.35799 0.90757
vn -0.38024 -0.56141 0.73501
vn -0.53722 -0.76950 0.34535
vn -0.54455 -0.77360 0.32407
vn -0.53313 -0.76334 0.36482
vn 0.76263 0.59231 0.25994
vn 0.82668 0.48843 0.27933
vn 0.58055 0.44692 0.68060
vn 0.59480 0.37772 0.70961
vn 0.36313 0.27569 0.89002
vn 0.34375 0.25185 0.90466
vn -0.59774 -0.44573 0.66636
vn -0.70404 -0.15211 0.69368
vn -0.47354 -0.09253 0.87590
vn -0.40599 -0.30539 0.86134
vn -0.27718 -0.39137 0.87750
vn -0.45057 -0.57649 0.68165
vn -0.60358 -0.75070 0.26859
vn -0.77316 -0.58111 0.25405
vn -0.55287 -0.77785 0.29881
vn 0.91437 0.24173 0.32481
vn 0.92350 -0.08640 0.37373
vn 0.62273 0.21324 0.75282
vn 0.61665 -0.00476 0.78722
vn 0.34819 0.17641 0.92068
vn 0.04510 0.18510 0.98168
vn -0.64594 0.18739 0.74003
vn -0.47997 0.41623 0.77226
vn -0.40485 0.14623 0.90262
vn -0.90797 0.25879 0.32958
vn -0.70990 0.59098 0.38311
vn -0.93975 -0.19904 0.27795
vn 0.81974 -0.39701 0.41282
vn 0.63851 -0.63172 0.43958
vn 0.54350 -0.21483 0.81146
vn 0.41835 -0.37964 0.82514
vn 0.08141 0.13547 0.98743
vn 0.06237 0.07321 0.99536
vn -0.33547 0.50592 0.79467
vn -0.26225 0.52731 0.80819
vn -0.51323 0.74402 0.42782
vn -0.40108 0.79169 0.46083
vn -0.34384 0.80754 0.47922
vn -0.30817 0.82233 0.47833
vn -0.22484 0.53508 0.81433
vn -0.20114 0.54832 0.81172
vn -0.29151 0.83566 0.46550
vn -0.19661 0.56025 0.80465
vn -0.02327 0.00416 0.99972
vn 0.01792 0.02814 0.99944
vn -0.12813 0.33521 0.93339
vn -0.19959 0.57437 0.79389
vn -0.13427 0.34533 0.92882
vn 0.08008 -0.58621 0.80619
vn 0.13831 -0.56044 0.81657
vn 0.03223 -0.34828 0.93684
vn -0.00359 -0.36405 0.93137
vn 0.02358 -0.60274 0.79759
vn -0.05163 -0.38104 0.92312
vn -0.04856 -0.62169 0.78176
vn 0.05087 -0.89484 0.44348
vn 0.13819 -0.87912 0.45613
vn -0.05049 -0.90459 0.42328
vn -0.10626 -0.63387 0.76610
vn -0.12357 -0.90871 0.39871
vn -0.22542 -0.90522 0.36022
vn -0.38243 -0.87202 0.30550
vn -0.56970 -0.78140 0.25467
vn -0.31543 -0.62216 0.71653
vn -0.45413 -0.56991 0.68482
vn -0.18820 -0.63689 0.74763
vn -0.16053 -0.38110 0.91049
vn -0.24615 -0.36013 0.89984
vn -0.09818 -0.38839 0.91625
vn -0.21303 0.61509 0.75914
vn -0.21007 0.65492 0.72591
vn -0.16676 0.41857 0.89274
vn -0.16071 0.37862 0.91149
vn -0.14430 0.35999 0.92173
vn -0.20461 0.59291 0.77884
vn -0.28585 0.85870 0.42535
vn -0.28389 0.87252 0.39763
vn -0.28778 0.84664 0.44765
vn 0.41403 -0.78669 0.45793
vn 0.22349 -0.85879 0.46101
vn 0.26540 -0.49378 0.82809
vn -0.75882 -0.60416 0.24329
vn -0.89057 -0.36237 0.27489
vn -0.72294 -0.57400 0.38456
vn -0.64000 -0.30105 0.70694
vn -0.34789 -0.28609 0.89282
vn -0.36871 -0.22889 0.90092
vn -0.31526 -0.32761 0.89066
vn 0.22434 0.73185 0.64348
vn 0.63764 0.44568 0.62832
vn 0.47829 0.32946 0.81406
vn 0.14944 0.54644 0.82406
vn -0.10926 0.50775 0.85455
vn -0.11230 0.72894 0.67530
vn -0.13907 0.94399 0.29923
vn 0.27988 0.92306 0.26389
vn -0.27182 0.89469 0.35447
vn -0.93476 -0.14093 0.32613
vn -0.92634 0.05734 0.37229
vn -0.65551 -0.13806 0.74246
vn -0.62878 0.01258 0.77748
vn -0.38171 -0.13568 0.91427
vn -0.36422 -0.03013 0.93083
vn 0.67011 -0.30246 0.67784
vn 0.57630 -0.37000 0.72868
vn 0.37280 -0.26079 0.89051
vn 0.46276 -0.23086 0.85589
vn 0.56283 -0.02427 0.82622
vn 0.77141 -0.01023 0.63626
vn 0.96613 -0.02092 0.25719
vn 0.86175 -0.40204 0.30944
vn 0.79026 0.56190 0.24446
vn -0.88180 0.25387 0.39747
vn -0.78937 0.46239 0.40384
vn -0.57749 0.15334 0.80187
vn -0.49550 0.29935 0.81540
vn -0.32243 0.06856 0.94411
vn -0.25828 0.16623 0.95166
vn 0.54760 -0.36285 0.75398
vn 0.53290 -0.37559 0.75825
vn 0.34000 -0.22640 0.91277
vn 0.34426 -0.23444 0.90913
vn 0.76449 -0.51256 0.39094
vn 0.74286 -0.54012 0.39551
vn 0.78481 -0.50093 0.36488
vn -0.62633 0.67532 0.38943
vn -0.37399 0.45281 0.80938
vn -0.17292 0.26798 0.94778
vn 0.53533 -0.38736 0.75058
vn 0.35485 -0.22025 0.90861
vn 0.73256 -0.56366 0.38162
f 1//1 5//2 6//3 7//4
f 1//1 7//4 8//5 9//6
f 1//1 9//6 10//7 5//2
f 2//8 11//9 10//7 9//6
f 2//8 12//10 13//11 11//9
f 2//8 9//6 8//12 12//10
f 3//13 14//14 15//15 16//16
f 3//13 16//16 17//17 18//18
f 3//13 18//19 19//20 14//14
f 4//21 20//22 15//15 14//14
f 4//21 14//14 19//20 21//23
f 4//21 21//23 22//24 20//22
f 22//24 23//25 24//26 20//22
f 22//24 21//23 25//27 299//28
f 22//24 299//28 300//29 23//25
f 300//29 26//30 27//31 23//25
f 28//32 29//33 30//34 31//35
f 28//32 31//35 27//31 26//30
f 31//35 30//34 32//36 33//37
f 31//35 33//37 34//38 27//31
f 34//38 33//37 35//39 36//40
f 34//38 36//40 37//41 24//26
f 34//38 24//26 23//25 27//31
f 37//41 36//40 38//42 39//43
f 37//41 39//43 16//16 15//15
f 37//41 15//15 20//22 24//26
f 39//43 38//42 40//44 41//45
f 39//43 41//45 17//17 16//16
f 41//45 40//44 301//46 302//47
f 41//45 302//47 42//48 17//17
f 42//48 43//49 18//18 17//17
f 43//50 303//51 19//20 18//19
f 303//51 25//27 21//23 19//20
f 305//52 304//53 44//54 45//55
f 305//52 45//55 30//34 29//33
f 45//55 44//54 46//56 47//57
f 45//55 47//57 32//36 30//34
f 47//57 46//56 48//58 49//59
f 47//57 49//59 50//60 32//36
f 50//61 49//62 51//63 52//64
f 50//61 52//64 53//65 35//39
f 50//60 35//39 33//37 32//36
f 53//65 52//64 54//66 55//67
f 53//65 55//67 40//44 38//42
f 53//65 38//42 36//40 35//39
f 55//67 54//66 306//68 307//69
f 55//67 307//69 301//46 40//44
f 57//70 56//71 58//72 59//73
f 57//70 59//73 44//54 304//53
f 59//73 58//72 60//74 61//75
f 59//73 61//75 46//56 44//54
f 61//75 60//74 62//76 63//77
f 61//75 63//77 48//58 46//56
f 63//78 62//79 64//80 65//81
f 63//78 65//81 66//82 48//83
f 66//82 65//81 67//84 68//85
f 66//82 68//85 69//86 51//63
f 66//82 51//63 49//62 48//83
f 69//86 68//85 70//87 308//88
f 69//86 308//88 306//68 54//66
f 69//86 54//66 52//64 51//63
f 70//87 68//85 67//84 71//89
f 74//90 73//91 75//92 76//93
f 74//90 76//93 58//72 56//71
f 76//93 75//92 77//94 78//95
f 76//93 78//95 60//74 58//72
f 78//95 77//94 79//96 80//97
f 78//95 80//97 62//76 60//74
f 80//97 79//96 81//98 82//99
f 80//97 82//99 64//80 62//79
f 82//99 81//98 83//100 84//101
f 82//99 84//101 85//102 64//80
f 85//102 84//101 309//103 72//104
f 85//102 72//104 71//89 67//84
f 85//102 67//84 65//81 64//80
f 309//103 84//101 83//100 310//105
f 87//106 86//107 88//108 89//109
f 87//106 89//109 75//92 73//91
f 89//109 88//108 90//110 91//111
f 89//109 91//111 77//94 75//92
f 91//111 90//110 92//112 93//113
f 91//111 93//113 79//96 77//94
f 93//113 92//112 94//114 95//115
f 93//113 95//115 81//98 79//96
f 95//115 94//114 96//116 97//117
f 95//115 97//117 83//100 81//98
f 97//117 96//116 98//118 311//119
f 97//117 311//119 310//105 83//100
f 98//118 96//116 99//120 312//121
f 99//120 100//122 101//123 312//121
f 99//120 96//116 94//114 102//124
f 99//120 102//124 103//125 100//122
f 103//125 104//126 105//127 100//122
f 103//125 102//124 106//128 107//129
f 103//125 107//129 108//130 104//126
f 108//130 109//131 110//132 104//126
f 108//133 107//129 111//134 112//135
f 108//133 112//135 113//136 109//137
f 113//136 114//138 115//139 109//137
f 113//136 112//135 116//140 117//141
f 113//136 117//141 118//142 114//138
f 118//142 119//143 120//144 114//138
f 118//142 117//141 313//145 314//146
f 118//142 314//146 121//147 119//143
f 121//147 122//148 123//149 119//143
f 124//150 125//151 126//152 127//153
f 124//150 127//153 123//149 122//148
f 127//153 126//152 128//154 129//155
f 127//153 129//155 130//156 123//149
f 130//156 129//155 131//157 132//158
f 130//156 132//158 133//159 120//144
f 130//156 120//144 119//143 123//149
f 133//160 132//161 134//162 135//163
f 133//160 135//163 136//164 115//165
f 133//159 115//139 114//138 120//144
f 136//164 135//163 137//166 138//167
f 136//164 138//167 139//168 110//132
f 136//164 110//132 109//131 115//165
f 139//168 138//167 315//169 316//170
f 139//168 316//170 140//171 105//127
f 139//168 105//127 104//126 110//132
f 140//171 101//123 100//122 105//127
f 141//172 317//173 142//174 143//175
f 141//172 143//175 88//108 86//107
f 143//175 142//174 111//134 144//176
f 143//175 144//176 90//110 88//108
f 144//176 111//134 107//129 106//128
f 144//176 106//128 92//112 90//110
f 142//174 116//140 112//135 111//134
f 142//174 317//173 318//177 116//140
f 318//177 313//145 117//141 116//140
f 319//178 145//179 146//180 147//181
f 319//178 147//181 126//152 125//151
f 147//181 146//180 148//182 149//183
f 147//181 149//183 128//154 126//152
f 149//183 148//182 150//184 151//185
f 149//183 151//185 152//186 128//154
f 152//187 151//188 153//189 154//190
f 152//187 154//190 155//191 131//192
f 152//186 131//157 129//155 128//154
f 155//191 154//190 156//193 157//194
f 155//191 157//194 158//195 134//162
f 155//191 134//162 132//161 131//192
f 158//195 157//194 159//196 320//197
f 158//195 320//197 321//198 137//166
f 158//195 137//166 135//163 134//162
f 321//198 315//169 138//167 137//166
f 323//199 322//200 162//201 163//202
f 323//199 163//202 146//180 145//179
f 163//202 162//201 164//203 165//204
f 163//202 165//204 148//182 146//180
f 165//204 164//203 166//205 167//206
f 165//204 167//206 150//184 148//182
f 167//207 166//208 168//209 169//210
f 167//207 169//210 170//211 150//212
f 170//211 169//210 171//213 172//214
f 170//211 172//214 173//215 153//189
f 170//211 153//189 151//188 150//212
f 173//215 172//214 324//216 161//217
f 173//215 161//217 160//218 156//193
f 173//215 156//193 154//190 153//189
f 324//216 172//214 171//213 325//219
f 327//220 326//221 174//222 175//223
f 327//220 175//223 162//201 322//200
f 175//223 174//222 176//224 177//225
f 175//223 177//225 164//203 162//201
f 177//225 176//224 178//226 179//227
f 177//225 179//227 166//205 164//203
f 179//228 178//226 180//229 181//230
f 179//228 181//230 168//209 166//208
f 181//230 180//229 182//231 183//232
f 181//230 183//232 184//233 168//209
f 184//233 183//232 328//234 329//235
f 184//233 329//235 325//219 171//213
f 184//233 171//213 169//210 168//209
f 328//234 183//232 182//231 185//236
f 330//237 187//238 188//239 189//240
f 330//237 189//240 174//222 326//221
f 189//240 188//239 190//241 191//242
f 189//240 191//242 176//224 174//222
f 191//242 190//241 192//243 193//244
f 191//242 193//244 178//226 176//224
f 193//244 192//243 194//245 195//246
f 193//244 195//246 180//229 178//226
f 195//246 194//245 196//247 197//248
f 195//246 197//248 182//231 180//229
f 197//248 196//247 331//249 186//250
f 197//248 186//250 185//236 182//231
f 331//249 196//247 198//251 332//252
f 198//251 199//253 200//254 332//252
f 198//251 196//247 194//245 201//255
f 198//251 201//255 202//256 199//253
f 202//256 203//257 204//258 199//253
f 202//256 201//255 205//259 206//260
f 202//256 206//260 207//261 203//257
f 207//261 208//262 209//263 203//257
f 207//264 206//260 210//265 211//266
f 207//264 211//266 212//267 208//268
f 212//267 213//269 214//270 208//268
f 212//267 211//266 215//271 216//272
f 212//267 216//272 217//273 213//269
f 217//273 218//274 219//275 213//269
f 217//273 216//272 220//276 333//277
f 217//273 333//277 221//278 218//274
f 221//278 222//279 223//280 218//274
f 224//281 225//282 226//283 227//284
f 224//281 227//284 223//280 222//279
f 227//284 226//283 228//285 229//286
f 227//284 229//286 230//287 223//280
f 230//287 229//286 231//288 232//289
f 230//287 232//289 233//290 219//275
f 230//287 219//275 218//274 223//280
f 233//291 232//292 234//293 235//294
f 233//291 235//294 236//295 214//296
f 233//290 214//270 213//269 219//275
f 236//295 235//294 237//297 238//298
f 236//295 238//298 239//299 209//263
f 236//295 209//263 208//262 214//296
f 239//299 238//298 334//300 335//301
f 239//299 335//301 240//302 204//258
f 239//299 204//258 203//257 209//263
f 240//302 200//254 199//253 204//258
f 241//303 336//304 242//305 243//306
f 241//303 243//306 188//239 187//238
f 243//306 242//305 210//265 244//307
f 243//306 244//307 190//241 188//239
f 244//307 210//265 206//260 205//259
f 244//307 205//259 192//243 190//241
f 242//305 215//271 211//266 210//265
f 242//305 336//304 337//308 215//271
f 337//308 220//276 216//272 215//271
f 246//309 245//310 247//311 248//312
f 246//309 248//312 226//283 225//282
f 248//312 247//311 249//313 250//314
f 248//312 250//314 228//285 226//283
f 250//315 249//313 251//316 252//315
f 250//315 252//315 253//317 228//285
f 253//318 252//319 254//320 255//321
f 253//318 255//321 256//322 231//323
f 253//317 231//288 229//286 228//285
f 256//322 255//321 257//324 258//325
f 256//322 258//325 259//326 234//293
f 256//322 234//293 232//292 231//323
f 259//326 258//325 338//327 260//328
f 259//326 260//328 261//329 237//297
f 259//326 237//297 235//294 234//293
f 261//329 334//300 238//298 237//297
f 340//330 339//331 264//332 265//333
f 340//330 265//333 247//311 245//310
f 265//333 264//332 266//334 267//335
f 265//333 267//335 249//313 247//311
f 267//335 266//334 268//336 269//337
f 267//335 269//337 251//316 249//313
f 269//338 268//339 270//340 271//341
f 269//338 271//341 272//342 251//343
f 272//342 271//341 273//344 274//345
f 272//342 274//345 275//346 254//320
f 272//342 254//320 252//319 251//343
f 275//346 274//345 341//347 263//348
f 275//346 263//349 262//350 257//324
f 275//346 257//324 255//321 254//320
f 341//347 274//345 273//344 342//351
f 343//352 277//353 278//354 279//355
f 343//352 279//355 264//332 339//331
f 279//355 278//354 280//356 281//357
f 279//355 281//357 266//334 264//332
f 281//357 280//356 282//358 283//359
f 281//357 283//359 268//336 266//334
f 283//360 282//361 284//362 285//363
f 283//360 285//363 270//340 268//339
f 285//363 284//362 286//364 287//365
f 285//363 287//365 288//366 270//340
f 288//366 287//365 289//367 276//368
f 288//366 276//368 342//351 273//344
f 288//366 273//344 271//341 270//340
f 289//367 287//365 286//364 344//369
f 291//370 345//371 6//3 292//372
f 291//370 292//372 278//354 277//353
f 292//372 6//3 5//2 293//373
f 292//372 293//373 280//356 278//354
f 293//373 5//2 10//7 294//374
f 293//373 294//374 282//358 280//356
f 294//375 10//7 11//9 295//376
f 294//375 295//376 284//362 282//361
f 295//376 11//9 13//11 296//377
f 295//376 296//377 286//364 284//362
f 296//377 13//11 297//378 290//379
f 296//377 290//379 344//369 286//364
f 297//378 13//11 12//10 298//380
f 298//380 12//10 8//12 346//381
f 346//382 8//5 7//4 347//383
f 347//383 7//4 6//3 345//371
f 262//350 338//327 258//325 257//324
f 205//259 201//255 194//245 192//243
f 160//218 159//196 157//194 156//193
f 106//128 102//124 94//114 92//112
f 354//384 353//385 352//386 348//387
f 356//388 355//389 354//384 348//387
f 352//386 357//390 356//388 348//387
f 356//391 357//392 358//393 349//394
f 358//393 360//395 359//396 349//394
f 359//396 355//397 356//391 349//394
f 363//398 362//399 361//400 350//401
f 365//402 364//403 363//398 350//401
f 361//400 366//404 365//402 350//401
f 361//400 362//399 367//405 351//406
f 368//407 366//404 361//400 351//406
f 367//405 369//408 368//407 351//406
f 367//405 371//409 370//410 369//408
f 299//28 25//27 368//407 369//408
f 370//410 300//29 299//28 369//408
f 370//410 372//411 26//30 300//29
f 374//412 373//413 29//33 28//32
f 26//30 372//411 374//412 28//32
f 376//414 375//415 373//413 374//412
f 372//411 377//416 376//414 374//412
f 379//417 378//418 376//414 377//416
f 371//409 380//419 379//417 377//416
f 372//411 370//410 371//409 377//416
f 382//420 381//421 379//417 380//419
f 362//399 363//398 382//420 380//419
f 371//409 367//405 362//399 380//419
f 384//422 383//423 381//421 382//420
f 363//398 364//403 384//422 382//420
f 302//47 301//46 383//423 384//422
f 364//403 42//48 302//47 384//422
f 364//403 365//402 43//49 42//48
f 365//402 366//404 303//51 43//50
f 366//404 368//407 25//27 303//51
f 386//424 385//425 304//53 305//52
f 29//33 373//413 386//424 305//52
f 388//426 387//427 385//425 386//424
f 373//413 375//415 388//426 386//424
f 390//428 389//429 387//427 388//426
f 375//415 391//430 390//428 388//426
f 393//431 392//432 390//433 391//434
f 378//418 394//435 393//431 391//434
f 375//415 376//414 378//418 391//430
f 396//436 395//437 393//431 394//435
f 381//421 383//423 396//436 394//435
f 378//418 379//417 381//421 394//435
f 307//69 306//68 395//437 396//436
f 383//423 301//46 307//69 396//436
f 398//438 397//439 56//71 57//70
f 304//53 385//425 398//438 57//70
f 400//440 399//441 397//439 398//438
f 385//425 387//427 400//440 398//438
f 402//442 401//443 399//441 400//440
f 387//427 389//429 402//442 400//440
f 404//444 403//445 401//446 402//447
f 389//448 405//449 404//444 402//447
f 407//450 406//451 404//444 405//449
f 392//432 408//452 407//450 405//449
f 389//448 390//433 392//432 405//449
f 308//88 70//87 407//450 408//452
f 395//437 306//68 308//88 408//452
f 392//432 393//431 395//437 408//452
f 71//89 406//451 407//450 70//87
f 410//453 409//454 73//91 74//90
f 56//71 397//439 410//453 74//90
f 412//455 411//456 409//454 410//453
f 397//439 399//441 412//455 410//453
f 414//457 413//458 411//456 412//455
f 399//441 401//443 414//457 412//455
f 416//459 415//460 413//458 414//457
f 401//446 403//445 416//459 414//457
f 418//461 417//462 415//460 416//459
f 403//445 419//463 418//461 416//459
f 72//104 309//103 418//461 419//463
f 406//451 71//89 72//104 419//463
f 403//445 404//444 406//451 419//463
f 310//105 417//462 418//461 309//103
f 421//464 420//465 86//107 87//106
f 73//91 409//454 421//464 87//106
f 423//466 422//467 420//465 421//464
f 409//454 411//456 423//466 421//464
f 425//468 424//469 422//467 423//466
f 411//456 413//458 425//468 423//466
f 427//470 426//471 424//469 425//468
f 413//458 415//460 427//470 425//468
f 429//472 428//473 426//471 427//470
f 415//460 417//462 429//472 427//470
f 311//119 98//118 428//473 429//472
f 417//462 310//105 311//119 429//472
f 312//121 430//474 428//473 98//118
f 312//121 101//123 431//475 430//474
f 432//476 426//471 428//473 430//474
f 431//475 433//477 432//476 430//474
f 431//475 435//478 434//479 433//477
f 437//480 436//481 432//476 433//477
f 434//479 438//482 437//480 433//477
f 434//479 440//483 439//484 438//482
f 442//485 441//486 437//480 438//487
f 439//488 443//489 442//485 438//487
f 439//488 445//490 444//491 443//489
f 447//492 446//493 442//485 443//489
f 444//491 448//494 447//492 443//489
f 444//491 450//495 449//496 448//494
f 314//146 313//145 447//492 448//494
f 449//496 121//147 314//146 448//494
f 449//496 451//497 122//148 121//147
f 453//498 452//499 125//151 124//150
f 122//148 451//497 453//498 124//150
f 455//500 454//501 452//499 453//498
f 451//497 456//502 455//500 453//498
f 458//503 457//504 455//500 456//502
f 450//495 459//505 458//503 456//502
f 451//497 449//496 450//495 456//502
f 461//506 460//507 458//508 459//509
f 445//510 462//511 461//506 459//509
f 450//495 444//491 445//490 459//505
f 464//512 463//513 461//506 462//511
f 440//483 465//514 464//512 462//511
f 445//510 439//484 440//483 462//511
f 316//170 315//169 464//512 465//514
f 435//478 140//171 316//170 465//514
f 440//483 434//479 435//478 465//514
f 435//478 431//475 101//123 140//171
f 467//515 466//516 317//173 141//172
f 86//107 420//465 467//515 141//172
f 468//517 441//486 466//516 467//515
f 420//465 422//467 468//517 467//515
f 436//481 437//480 441//486 468//517
f 422//467 424//469 436//481 468//517
f 441//486 442//485 446//493 466//516
f 446//493 318//177 317//173 466//516
f 446//493 447//492 313//145 318//177
f 470//518 469//519 145//179 319//178
f 125//151 452//499 470//518 319//178
f 472//520 471//521 469//519 470//518
f 452//499 454//501 472//520 470//518
f 474//522 473//523 471//521 472//520
f 454//501 475//524 474//522 472//520
f 477//525 476//526 474//527 475//528
f 457//529 478//530 477//525 475//528
f 454//501 455//500 457//504 475//524
f 480//531 479//532 477//525 478//530
f 460//507 481//533 480//531 478//530
f 457//529 458//508 460//507 478//530
f 320//197 159//196 480//531 481//533
f 463//513 321//198 320//197 481//533
f 460//507 461//506 463//513 481//533
f 463//513 464//512 315//169 321//198
f 483//534 482//535 322//200 323//199
f 145//179 469//519 483//534 323//199
f 485//536 484//537 482//535 483//534
f 469//519 471//521 485//536 483//534
f 487//538 486//539 484//537 485//536
f 471//521 473//523 487//538 485//536
f 489//540 488//541 486//542 487//543
f 473//544 490//545 489//540 487//543
f 492//546 491//547 489//540 490//545
f 476//526 493//548 492//546 490//545
f 473//544 474//527 476//526 490//545
f 161//217 324//216 492//546 493//548
f 479//532 160//218 161//217 493//548
f 476//526 477//525 479//532 493//548
f 325//219 491//547 492//546 324//216
f 495//549 494//550 326//221 327//220
f 322//200 482//535 495//549 327//220
f 497//551 496//552 494//550 495//549
f 482//535 484//537 497//551 495//549
f 499//553 498//554 496//552 497//551
f 484//537 486//539 499//553 497//551
f 501//555 500//556 498//554 499//557
f 486//542 488//541 501//555 499//557
f 503//558 502//559 500//556 501//555
f 488//541 504//560 503//558 501//555
f 329//235 328//234 503//558 504//560
f 491//547 325//219 329//235 504//560
f 488//541 489//540 491//547 504//560
f 185//236 502//559 503//558 328//234
f 506//561 505//562 187//238 330//237
f 326//221 494//550 506//561 330//237
f 508//563 507//564 505//562 506//561
f 494//550 496//552 508//563 506//561
f 510//565 509//566 507//564 508//563
f 496//552 498//554 510//565 508//563
f 512//567 511//568 509//566 510//565
f 498//554 500//556 512//567 510//565
f 514//569 513//570 511//568 512//567
f 500//556 502//559 514//569 512//567
f 186//250 331//249 513//570 514//569
f 502//559 185//236 186//250 514//569
f 332//252 515//571 513//570 331//249
f 332//252 200//254 516//572 515//571
f 517//573 511//568 513//570 515//571
f 516//572 518//574 517//573 515//571
f 516//572 520//575 519//576 518//574
f 522//577 521//578 517//573 518//574
f 519//576 523//579 522//577 518//574
f 519//576 525//580 524//581 523//579
f 527//582 526//583 522//577 523//584
f 524//585 528//586 527//582 523//584
f 524//585 530//587 529//588 528//586
f 532//589 531//590 527//582 528//586
f 529//588 533//591 532//589 528//586
f 529//588 535//592 534//593 533//591
f 333//277 220//276 532//589 533//591
f 534//593 221//278 333//277 533//591
f 534//593 536//594 222//279 221//278
f 538//595 537//596 225//282 224//281
f 222//279 536//594 538//595 224//281
f 540//597 539//598 537//596 538//595
f 536//594 541//599 540//597 538//595
f 543//600 542//601 540//597 541//599
f 535//592 544//602 543//600 541//599
f 536//594 534//593 535//592 541//599
f 546//603 545//604 543//605 544//606
f 530//607 547//608 546//603 544//606
f 535//592 529//588 530//587 544//602
f 549//609 548//610 546//603 547//608
f 525//580 550//611 549//609 547//608
f 530//607 524//581 525//580 547//608
f 335//301 334//300 549//609 550//611
f 520//575 240//302 335//301 550//611
f 525//580 519//576 520//575 550//611
f 520//575 516//572 200//254 240//302
f 552//612 551//613 336//304 241//303
f 187//238 505//562 552//612 241//303
f 553//614 526//583 551//613 552//612
f 505//562 507//564 553//614 552//612
f 521//578 522//577 526//583 553//614
f 507//564 509//566 521//578 553//614
f 526//583 527//582 531//590 551//613
f 531//590 337//308 336//304 551//613
f 531//590 532//589 220//276 337//308
f 555//615 554//616 245//310 246//309
f 225//282 537//596 555//615 246//309
f 557//617 556//618 554//616 555//615
f 537//596 539//598 557//617 555//615
f 559//619 558//620 556//618 557//619
f 539//598 560//621 559//619 557//619
f 562//622 561//623 559//624 560//625
f 542//626 563//627 562//622 560//625
f 539//598 540//597 542//601 560//621
f 565//628 564//629 562//622 563//627
f 545//604 566//630 565//628 563//627
f 542//626 543//605 545//604 563//627
f 260//328 338//327 565//628 566//630
f 548//610 261//329 260//328 566//630
f 545//604 546//603 548//610 566//630
f 548//610 549//609 334//300 261//329
f 568//631 567//632 339//331 340//330
f 245//310 554//616 568//631 340//330
f 570//633 569//634 567//632 568//631
f 554//616 556//618 570//633 568//631
f 572//635 571//636 569//634 570//633
f 556//618 558//620 572//635 570//633
f 574//637 573//638 571//639 572//640
f 558//641 575//642 574//637 572//640
f 577//643 576//644 574//637 575//642
f 561//623 578//645 577//643 575//642
f 558//641 559//624 561//623 575//642
f 263//348 341//347 577//643 578//645
f 564//629 262//350 263//349 578//645
f 561//623 562//622 564//629 578//645
f 342//351 576//644 577//643 341//347
f 580//646 579//647 277//353 343//352
f 339//331 567//632 580//646 343//352
f 582//648 581//649 579//647 580//646
f 567//632 569//634 582//648 580//646
f 584//650 583//651 581//649 582//648
f 569//634 571//636 584//650 582//648
f 586//652 585//653 583//654 584//655
f 571//639 573//638 586//652 584//655
f 588//656 587//657 585//653 586//652
f 573//638 589//658 588//656 586//652
f 276//368 289//367 588//656 589//658
f 576//644 342//351 276//368 589//658
f 573//638 574//637 576//644 589//658
f 344//369 587//657 588//656 289//367
f 590//659 353//385 345//371 291//370
f 277//353 579//647 590//659 291//370
f 591//660 352//386 353//385 590//659
f 579//647 581//649 591//660 590//659
f 592//661 357//390 352//386 591//660
f 581//649 583//651 592//661 591//660
f 593//662 358//393 357//392 592//663
f 583//654 585//653 593//662 592//663
f 594//664 360//395 358//393 593//662
f 585//653 587//657 594//664 593//662
f 290//379 297//378 360//395 594//664
f 587//657 344//369 290//379 594//664
f 298//380 359//396 360//395 297//378
f 346//381 355//397 359//396 298//380
f 347//383 354//384 355//389 346//382
f 345//371 353//385 354//384 347//383
f 564//629 565//628 338//327 262//350
f 509//566 511//568 517//573 521//578
f 479//532 480//531 159//196 160//218
f 424//469 426//471 432//476 436//481
