# pilowlava3D glyph ';' variant 1 — Vincent Wagner / Velvetyne, Free Art License
v 0.53529 3.02482 -0.35780
v 1.08151 3.77174 -0.34461
v 0.22356 3.22421 -0.35421
v 0.83091 3.96722 -0.33471
v 0.66628 3.10149 -0.39458
v 0.77346 2.98788 -0.22172
v 0.53136 2.92236 -0.21499
v 0.28277 3.01720 -0.20307
v 0.35970 3.10863 -0.37387
v 0.48857 3.24653 -0.45854
v 1.03964 3.62109 -0.39353
v 0.87190 3.74481 -0.45937
v 0.96870 3.88081 -0.36738
v 1.17907 3.79063 -0.20702
v 1.17120 3.54745 -0.22418
v 1.02697 3.96665 -0.20562
v 0.11919 3.22708 -0.21209
v 0.30390 3.38861 -0.40937
v 0.16910 3.48601 -0.23679
v 0.82290 4.04944 -0.20460
v 0.69945 3.88181 -0.39111
v 0.59646 3.98848 -0.22331
v 0.42966 3.83706 -0.23817
v 0.57542 4.02435 -0.00000
v 0.81414 4.08026 -0.00000
v 0.55978 3.72597 -0.42425
v 0.43335 3.55842 -0.42883
v 0.30247 3.66748 -0.24217
v 0.74572 3.57217 -0.48715
v 0.62285 3.40126 -0.48524
v 0.93653 3.43256 -0.41842
v 0.81396 3.25243 -0.41723
v 1.07253 3.34158 -0.23581
v 0.94667 3.15262 -0.23539
v 0.97893 3.12493 -0.00000
v 0.79406 2.95649 -0.00000
v 0.52295 2.88778 -0.00000
v 0.12162 3.51179 -0.00000
v 0.08218 3.23533 -0.00000
v 0.26092 2.99683 -0.00000
v 1.21363 3.78899 -0.00000
v 1.04385 3.98859 -0.00000
v 0.39032 3.87537 -0.00000
v 1.10981 3.31493 -0.00000
v 0.25484 3.70723 -0.00000
v 1.20956 3.53057 -0.00000
v 0.53529 3.02482 0.35779
v 1.08151 3.77174 0.34460
v 0.22356 3.22421 0.35420
v 0.83091 3.96722 0.33470
v 0.66628 3.10149 0.39458
v 0.77346 2.98788 0.22171
v 0.53136 2.92236 0.21498
v 0.28277 3.01720 0.20306
v 0.35970 3.10863 0.37386
v 0.48857 3.24653 0.45854
v 1.03964 3.62109 0.39352
v 0.87190 3.74481 0.45936
v 0.96870 3.88081 0.36737
v 1.17907 3.79063 0.20701
v 1.17120 3.54745 0.22417
v 1.02697 3.96665 0.20562
v 0.11919 3.22708 0.21208
v 0.30390 3.38861 0.40936
v 0.16910 3.48601 0.23678
v 0.82290 4.04944 0.20459
v 0.69945 3.88181 0.39110
v 0.59646 3.98848 0.22330
v 0.42966 3.83706 0.23816
v 0.55978 3.72597 0.42424
v 0.43335 3.55842 0.42882
v 0.30247 3.66748 0.24216
v 0.74572 3.57217 0.48714
v 0.62285 3.40126 0.48523
v 0.93653 3.43256 0.41842
v 0.81396 3.25243 0.41722
v 1.07253 3.34158 0.23580
v 0.94667 3.15262 0.23538
v 0.10450 0.44921 0.18294
v 0.26604 1.20422 0.20081
v 0.23112 1.00565 0.19491
v 0.18646 0.81495 0.18937
v 0.14524 0.62797 0.18348
v 0.28100 0.78762 0.35713
v 0.22676 0.59380 0.34109
v 0.31745 0.54043 0.42213
v 0.29188 0.30318 0.37887
v 0.22506 0.35209 0.38455
v 0.16432 0.40383 0.32424
v 0.12537 0.16273 0.32132
v 0.05787 0.03327 0.16732
v 0.35488 0.26160 0.31222
v 0.40293 0.22592 0.17476
v 0.55028 0.35132 0.18840
v 0.69516 0.47785 0.20137
v 0.40833 0.48054 0.42701
v 0.49217 0.41631 0.35086
v 0.62546 0.56657 0.37829
v 0.39926 0.73279 0.45250
v 0.51699 0.65748 0.46335
v 0.62711 0.84521 0.49494
v 0.38804 1.18481 0.37863
v 0.33985 0.98520 0.37183
v 0.48871 0.93406 0.47778
v 0.57614 1.13816 0.48918
v 0.86987 1.20746 0.49477
v 0.74212 1.03855 0.51344
v 1.01672 1.00277 0.44521
v 0.88383 0.86231 0.43732
v 0.75229 0.71726 0.40982
v 0.97194 0.71457 0.24296
v 0.83303 0.60075 0.21865
v 1.11804 0.82271 0.26311
v 1.04773 1.48889 0.22550
v 0.98477 1.35909 0.40718
v 1.24628 1.30273 0.23575
v 0.02406 0.18292 -0.13207
v 0.55668 1.50856 -0.32139
v 0.03273 0.30734 0.00000
v 0.06071 0.28077 -0.17151
v 0.08778 0.21838 -0.27557
v 0.02122 0.10653 -0.16585
v 0.25487 0.13968 -0.25054
v 0.25125 0.09170 -0.14575
v 0.13860 0.01390 -0.15286
v 0.18027 0.12686 -0.30343
v 0.52748 1.57268 -0.19265
v 0.78465 1.58009 -0.20686
v 0.74477 1.48030 -0.37169
v 0.66152 1.32961 -0.46861
v 0.45065 1.38688 -0.36600
v 0.32830 1.42101 -0.20155
v 1.30939 1.12893 -0.19766
v 1.25386 0.98003 -0.25315
v 1.14897 1.15714 -0.40301
v 1.24628 1.30273 -0.23575
v 0.98477 1.35909 -0.40718
v 1.04773 1.48889 -0.22550
v 1.06167 1.52452 0.00000
v 1.27213 1.34354 0.00000
v 1.16028 0.76093 0.00000
v 1.11804 0.82271 -0.26311
v 1.00963 0.65599 0.00000
v 0.83303 0.60075 -0.21865
v 0.97194 0.71457 -0.24296
v 0.75229 0.71726 -0.40982
v 0.88383 0.86231 -0.43732
v 1.01672 1.00277 -0.44521
v 0.74212 1.03855 -0.51344
v 0.86987 1.20746 -0.49477
v 0.57614 1.13816 -0.48918
v 0.48871 0.93406 -0.47778
v 0.33985 0.98520 -0.37183
v 0.38804 1.18481 -0.37863
v 0.62711 0.84521 -0.49494
v 0.51699 0.65748 -0.46335
v 0.39926 0.73279 -0.45250
v 0.62546 0.56657 -0.37829
v 0.49217 0.41631 -0.35086
v 0.40833 0.48054 -0.42701
v 0.69516 0.47785 -0.20137
v 0.55028 0.35132 -0.18840
v 0.40293 0.22592 -0.17476
v 0.35488 0.26160 -0.31222
v 0.26218 0.07812 0.00000
v 0.14408 0.00000 0.00000
v 0.05787 0.03327 -0.16732
v 0.12537 0.16273 -0.32132
v 0.16432 0.40383 -0.32424
v 0.22506 0.35209 -0.38455
v 0.29188 0.30318 -0.37887
v 0.31745 0.54043 -0.42213
v 0.22676 0.59380 -0.34109
v 0.28100 0.78762 -0.35713
v 0.14524 0.62797 -0.18348
v 0.18646 0.81495 -0.18937
v 0.23112 1.00565 -0.19491
v 0.18343 1.01527 0.00000
v 0.26604 1.20422 -0.20081
v 0.51658 1.59736 0.00000
v 0.79315 1.60859 0.00000
v 0.06572 0.46154 0.00000
v 0.10450 0.44921 -0.18294
v 1.14897 1.15714 0.40301
v 1.25386 0.98003 0.25315
v 1.30939 1.12893 0.19766
v 0.32830 1.42101 0.20155
v 0.45065 1.38688 0.36600
v 0.66152 1.32961 0.46861
v 0.74477 1.48030 0.37169
v 0.78465 1.58009 0.20686
v 0.00294 0.17295 0.00000
v 0.00000 0.08670 0.00000
v 1.33851 1.11782 0.00000
v 1.28957 0.91498 0.00000
v 0.86417 0.55066 0.00000
v 0.71790 0.43524 0.00000
v 0.56868 0.31765 0.00000
v 0.41840 0.20143 0.00000
v 0.05066 0.01179 0.00000
v 0.14343 0.82443 0.00000
v 0.21825 1.21642 0.00000
v 0.29081 1.43814 0.00000
v 0.10414 0.63753 0.00000
v 0.52748 1.57268 0.19265
v 0.18027 0.12686 0.30343
v 0.13860 0.01390 0.15286
v 0.25125 0.09170 0.14575
v 0.25487 0.13968 0.25054
v 0.02122 0.10653 0.16585
v 0.08778 0.21838 0.27557
v 0.06071 0.28077 0.17151
v 0.55668 1.50856 0.32139
v 0.02406 0.18292 0.13207
vn -0.05036 -0.68606 -0.72580
vn 0.20639 -0.53042 -0.82223
vn 0.43470 -0.79857 -0.41632
vn -0.05190 -0.92005 -0.38836
vn -0.55232 -0.75573 -0.35188
vn -0.36212 -0.51924 -0.77412
vn -0.13269 -0.20771 -0.96915
vn 0.66077 0.26374 -0.70273
vn 0.58785 -0.04147 -0.80790
vn 0.18241 0.23895 -0.95375
vn 0.39926 0.54298 -0.73876
vn 0.86636 0.31866 -0.38454
vn 0.88583 -0.19324 -0.42186
vn 0.55342 0.76200 -0.33628
vn -0.63186 -0.23025 -0.74010
vn -0.72335 -0.60940 -0.32466
vn -0.51907 0.10893 -0.84776
vn -0.89745 0.15017 -0.41478
vn -0.82780 0.33035 -0.45344
vn 0.07009 0.72966 -0.68021
vn 0.06901 0.92877 -0.36417
vn -0.19718 0.56299 -0.80260
vn -0.41220 0.80883 -0.41938
vn -0.63687 0.61731 -0.46188
vn -0.71994 0.69404 0.00036
vn -0.45235 0.89184 0.00020
vn 0.07209 0.99740 -0.00002
vn -0.35725 0.37986 -0.85328
vn -0.42112 0.27658 -0.86381
vn -0.71063 0.52123 -0.47258
vn 0.05729 0.05178 -0.99701
vn -0.01901 -0.06104 -0.99795
vn 0.47839 -0.24264 -0.84396
vn 0.37673 -0.36982 -0.84930
vn 0.78346 -0.43580 -0.44302
vn 0.67427 -0.59106 -0.44273
vn 0.87008 -0.49292 0.00001
vn 0.75772 -0.65258 -0.00004
vn 0.47859 -0.87804 0.00013
vn -0.06434 -0.99793 -0.00006
vn -0.92720 0.37457 0.00005
vn -0.80319 0.59572 -0.00011
vn -0.98773 0.15618 0.00043
vn -0.79317 -0.60899 -0.00085
vn -0.60495 -0.79626 -0.00070
vn 0.97450 -0.22439 0.00002
vn 0.99984 -0.01806 0.00007
vn 0.75894 0.65116 -0.00030
vn 0.58264 0.81273 -0.00007
vn -0.05742 -0.91801 0.39237
vn 0.43002 -0.79830 0.42166
vn 0.20103 -0.53304 0.82186
vn -0.05650 -0.68766 0.72383
vn -0.36226 -0.51916 0.77411
vn -0.55343 -0.75181 0.35848
vn -0.13449 -0.21562 0.96717
vn 0.40073 0.54591 0.73580
vn 0.18794 0.24410 0.95137
vn 0.59022 -0.03645 0.80642
vn 0.66220 0.26936 0.69924
vn 0.88525 -0.19076 0.42420
vn 0.86462 0.32156 0.38605
vn 0.55131 0.76251 0.33859
vn -0.72529 -0.59990 0.33774
vn -0.62694 -0.22925 0.74457
vn -0.51943 0.10230 0.84837
vn -0.82769 0.32598 0.45681
vn -0.89611 0.14004 0.42117
vn 0.07319 0.92627 0.36969
vn 0.07643 0.72671 0.68268
vn -0.40594 0.80963 0.42392
vn -0.18919 0.56389 0.80388
vn -0.63659 0.61743 0.46211
vn -0.35725 0.38017 0.85314
vn -0.71048 0.52166 0.47232
vn -0.42120 0.27661 0.86376
vn 0.05778 0.05247 0.99695
vn -0.01910 -0.06137 0.99793
vn 0.37664 -0.36989 0.84931
vn 0.47866 -0.24243 0.84387
vn 0.67429 -0.59103 0.44273
vn 0.78344 -0.43588 0.44297
vn 0.12885 0.92720 0.35172
vn 0.04368 0.69251 0.72009
vn 0.33237 0.49287 0.80412
vn 0.46541 0.78154 0.41545
vn 0.52518 -0.70870 0.47109
vn 0.58161 -0.77486 0.24764
vn 0.61608 -0.73803 0.27524
vn 0.51934 -0.64351 0.56230
vn 0.61483 -0.78866 -0.00005
vn 0.55940 -0.70612 0.43413
vn 0.59427 -0.70479 0.38746
vn 0.63332 -0.77389 -0.00009
vn -0.91208 0.20627 0.35434
vn -0.90657 0.19925 0.37206
vn -0.97767 0.21014 0.00001
vn -0.97722 0.21222 0.00002
vn -0.93263 0.22232 0.28422
vn -0.83675 0.07418 0.54254
vn -0.77783 0.17618 0.60328
vn -0.91970 0.22050 0.32485
vn -0.74844 0.16952 0.64117
vn -0.97098 0.23917 0.00177
vn -0.97536 0.22060 -0.00034
vn 0.49723 0.86762 -0.00016
vn 0.13675 0.99061 -0.00009
vn -0.31181 0.88778 0.33856
vn -0.32737 0.94490 0.00045
vn -0.74818 0.53674 0.39004
vn -0.81307 0.58217 0.00033
vn -0.64593 0.19614 0.73777
vn -0.50283 0.45348 0.73588
vn -0.88731 0.21672 0.40708
vn -0.97285 0.23142 -0.00018
vn -0.69764 0.15648 0.69915
vn -0.90223 0.18224 0.39085
vn -0.98162 0.19086 0.00000
vn -0.37875 0.01871 0.92531
vn -0.34945 0.04913 0.93566
vn -0.72804 0.15955 0.66671
vn 0.13369 -0.31891 0.93831
vn 0.09505 -0.25488 0.96229
vn -0.38518 -0.00332 0.92283
vn -0.38815 -0.06992 0.91894
vn 0.20073 -0.66830 0.71629
vn 0.18102 -0.42984 0.88458
vn 0.48957 -0.58139 0.64985
vn -0.10126 -0.55894 0.82300
vn -0.72998 -0.06842 0.68004
vn -0.17124 -0.90198 0.39636
vn -0.93519 -0.12737 0.33045
vn -0.83805 -0.38226 0.38930
vn -0.97335 -0.22932 0.00074
vn -0.86381 -0.50381 0.00166
vn 0.59846 -0.80115 -0.00017
vn 0.53679 -0.80505 0.25250
vn 0.56234 -0.82691 -0.00019
vn -0.17028 -0.98540 -0.00165
vn 0.62935 -0.77712 -0.00002
vn 0.62901 -0.77739 0.00004
vn 0.60495 -0.72184 0.33613
vn 0.45343 -0.53259 0.71467
vn 0.39546 -0.49513 0.77360
vn -0.95960 0.17526 -0.22011
vn -0.93109 0.22727 -0.28533
vn -0.83736 0.08093 -0.54063
vn -0.93798 -0.11965 -0.32539
vn -0.98706 0.16036 0.00199
vn 0.51402 -0.72021 -0.46592
vn 0.57090 -0.78186 -0.25053
vn 0.52175 -0.81542 -0.25073
vn 0.19500 -0.67720 -0.70949
vn -0.26068 0.73450 -0.62655
vn -0.31290 0.88946 -0.33309
vn 0.13311 0.92773 -0.34870
vn 0.04888 0.68998 -0.72218
vn -0.13615 0.35253 -0.92584
vn -0.50489 0.44950 -0.73691
vn -0.75075 0.53550 -0.38681
vn 0.93657 0.03309 -0.34892
vn 0.80648 -0.31849 -0.49815
vn 0.58682 0.09042 -0.80465
vn 0.78424 0.43344 -0.44395
vn 0.33458 0.49189 -0.80381
vn 0.46767 0.78090 -0.41410
vn 0.84097 0.54109 -0.00109
vn 0.99980 0.01978 -0.00209
vn 0.88718 -0.46142 -0.00112
vn 0.67412 -0.73863 0.00001
vn 0.59596 -0.61216 -0.51971
vn 0.58301 -0.81247 0.00002
vn 0.56069 -0.70453 -0.43505
vn 0.51940 -0.70575 -0.48180
vn 0.39700 -0.49256 -0.77445
vn 0.34986 -0.42200 -0.83637
vn 0.40462 -0.25035 -0.87955
vn 0.06682 -0.07991 -0.99456
vn 0.16118 0.14722 -0.97588
vn -0.28565 0.12646 -0.94995
vn -0.35102 0.04739 -0.93517
vn -0.69888 0.15461 -0.69833
vn -0.64642 0.19578 -0.73744
vn 0.06221 -0.19189 -0.97944
vn 0.09608 -0.25445 -0.96230
vn -0.37833 0.01945 -0.92547
vn 0.45377 -0.53280 -0.71429
vn 0.49209 -0.57787 -0.65108
vn 0.13497 -0.31655 -0.93892
vn 0.59417 -0.70480 -0.38757
vn 0.60532 -0.72131 -0.33660
vn 0.61362 -0.73842 -0.27965
vn 0.52077 -0.64403 -0.56038
vn -0.17572 -0.90193 -0.39453
vn -0.84756 -0.37125 -0.37922
vn -0.73752 -0.05717 -0.67290
vn -0.10642 -0.55838 -0.82273
vn -0.77640 0.17664 -0.60498
vn -0.38777 -0.06979 -0.91911
vn 0.18713 -0.43227 -0.88211
vn -0.38604 -0.00378 -0.92247
vn -0.74919 0.16892 -0.64045
vn -0.72812 0.15951 -0.66664
vn -0.91261 0.20543 -0.35347
vn -0.90659 0.19919 -0.37205
vn -0.90222 0.18215 -0.39093
vn -0.88710 0.21672 -0.40754
vn -0.91883 0.22137 -0.32671
vn 0.06196 -0.19270 0.97930
vn 0.34888 -0.42579 0.83486
vn 0.06644 -0.08345 0.99429
vn -0.28433 0.12738 0.95023
vn -0.13675 0.35752 0.92384
vn 0.16246 0.14694 0.97571
vn 0.59768 -0.61048 0.51971
vn 0.81644 -0.32046 0.48035
vn 0.60131 0.09053 0.79387
vn 0.40641 -0.24980 0.87888
vn 0.51930 -0.70588 0.48172
vn 0.94535 0.02917 0.32474
vn 0.79358 0.43210 0.42838
vn -0.26021 0.73535 0.62574
vn -0.96042 0.16825 0.22199
f 1//1 5//2 6//3 7//4
f 1//1 7//4 8//5 9//6
f 1//1 9//6 10//7 5//2
f 2//8 11//9 12//10 13//11
f 2//8 14//12 15//13 11//9
f 2//8 13//11 16//14 14//12
f 3//15 9//6 8//5 17//16
f 3//15 18//17 10//7 9//6
f 3//15 17//18 19//19 18//17
f 4//20 20//21 16//14 13//11
f 4//20 21//22 22//23 20//21
f 4//20 13//11 12//10 21//22
f 22//23 23//24 43//25 24//26
f 22//23 24//26 25//27 20//21
f 22//23 21//22 26//28 23//24
f 26//28 27//29 28//30 23//24
f 26//28 21//22 12//10 29//31
f 26//28 29//31 30//32 27//29
f 30//32 10//7 18//17 27//29
f 30//32 29//31 31//33 32//34
f 30//32 32//34 5//2 10//7
f 32//34 31//33 33//35 34//36
f 32//34 34//36 6//3 5//2
f 34//36 33//35 44//37 35//38
f 34//36 35//38 36//39 6//3
f 36//39 37//40 7//4 6//3
f 38//41 45//42 28//30 19//19
f 38//41 19//19 17//18 39//43
f 39//44 17//16 8//5 40//45
f 40//45 8//5 7//4 37//40
f 45//42 43//25 23//24 28//30
f 46//46 44//37 33//35 15//13
f 46//46 15//13 14//12 41//47
f 41//48 14//12 16//14 42//49
f 42//49 16//14 20//21 25//27
f 33//35 31//33 11//9 15//13
f 31//33 29//31 12//10 11//9
f 28//30 27//29 18//17 19//19
f 53//50 52//51 51//52 47//53
f 55//54 54//55 53//50 47//53
f 51//52 56//56 55//54 47//53
f 59//57 58//58 57//59 48//60
f 57//59 61//61 60//62 48//60
f 60//62 62//63 59//57 48//60
f 63//64 54//55 55//54 49//65
f 55//54 56//56 64//66 49//65
f 64//66 65//67 63//68 49//65
f 59//57 62//63 66//69 50//70
f 66//69 68//71 67//72 50//70
f 67//72 58//58 59//57 50//70
f 24//26 43//25 69//73 68//71
f 66//69 25//27 24//26 68//71
f 69//73 70//74 67//72 68//71
f 69//73 72//75 71//76 70//74
f 73//77 58//58 67//72 70//74
f 71//76 74//78 73//77 70//74
f 71//76 64//66 56//56 74//78
f 76//79 75//80 73//77 74//78
f 56//56 51//52 76//79 74//78
f 78//81 77//82 75//80 76//79
f 51//52 52//51 78//81 76//79
f 35//38 44//37 77//82 78//81
f 52//51 36//39 35//38 78//81
f 52//51 53//50 37//40 36//39
f 65//67 72//75 45//42 38//41
f 39//43 63//68 65//67 38//41
f 40//45 54//55 63//64 39//44
f 37//40 53//50 54//55 40//45
f 72//75 69//73 43//25 45//42
f 61//61 77//82 44//37 46//46
f 41//47 60//62 61//61 46//46
f 42//49 62//63 60//62 41//48
f 25//27 66//69 62//63 42//49
f 61//61 57//59 75//80 77//82
f 57//59 58//58 73//77 75//80
f 65//67 64//66 71//76 72//75
f 191//83 190//84 115//85 114//86
f 209//87 208//88 93//89 92//90
f 196//91 112//92 95//93 197//94
f 83//95 82//96 201//97 204//98
f 212//99 211//100 89//101 79//102
f 89//101 85//103 83//95 79//102
f 119//104 212//99 79//102 182//105
f 79//102 83//95 204//98 182//105
f 191//83 114//86 139//106 181//107
f 205//108 191//83 181//107 180//109
f 187//110 205//108 180//109 203//111
f 102//112 188//113 187//110 80//114
f 187//110 203//111 202//115 80//114
f 103//116 102//112 80//114 81//117
f 80//114 202//115 178//118 81//117
f 178//118 201//97 82//96 81//117
f 99//119 104//120 103//116 84//121
f 103//116 81//117 82//96 84//121
f 82//96 83//95 85//103 84//121
f 96//122 100//123 99//119 86//124
f 99//119 84//121 85//103 86//124
f 85//103 89//101 88//125 86//124
f 206//126 209//87 92//90 87//127
f 92//90 97//128 96//122 87//127
f 96//122 86//124 88//125 87//127
f 206//126 87//127 88//125 90//129
f 88//125 89//101 211//100 90//130
f 207//131 206//126 90//129 91//131
f 90//130 211//100 210//132 91//133
f 210//132 193//134 200//135 91//133
f 165//136 208//88 207//137 166//138
f 207//131 91//131 200//139 166//139
f 93//89 208//88 165//136 199//140
f 93//89 199//140 198//141 94//142
f 198//141 197//94 95//93 94//142
f 97//128 92//90 93//89 94//142
f 97//128 94//142 95//93 98//143
f 95//93 112//92 110//144 98//143
f 117//145 120//146 121//147 122//148
f 117//145 192//149 119//104 120//146
f 117//145 122//148 193//134 192//149
f 123//150 124//151 125//152 126//153
f 118//154 127//155 128//156 129//157
f 118//154 129//157 130//158 131//159
f 118//154 131//159 132//160 127//155
f 133//161 134//162 135//163 136//164
f 136//164 135//163 137//165 138//166
f 136//164 138//166 139//106 140//167
f 136//164 140//167 194//168 133//161
f 194//168 195//169 134//162 133//161
f 195//169 141//170 142//171 134//162
f 143//172 196//91 144//173 145//174
f 143//172 145//174 142//171 141//170
f 145//174 144//173 146//175 147//176
f 145//174 147//176 148//177 142//171
f 148//177 147//176 149//178 150//179
f 148//177 150//179 137//165 135//163
f 148//177 135//163 134//162 142//171
f 150//179 149//178 151//180 130//158
f 150//179 130//158 129//157 137//165
f 151//180 152//181 153//182 154//183
f 151//180 154//183 131//159 130//158
f 151//180 149//178 155//184 152//181
f 155//184 156//185 157//186 152//181
f 155//184 149//178 147//176 146//175
f 155//184 146//175 158//187 156//185
f 158//187 159//188 160//189 156//185
f 158//187 146//175 144//173 161//190
f 158//187 161//190 162//191 159//188
f 162//191 163//192 164//193 159//188
f 162//191 161//190 197//94 198//141
f 162//191 198//141 199//140 163//192
f 199//140 165//136 124//151 163//192
f 166//139 200//139 167//194 125//194
f 166//138 125//152 124//151 165//136
f 167//195 200//135 193//134 122//148
f 167//195 122//148 121//147 168//196
f 167//194 168//197 126//153 125//194
f 168//196 121//147 169//198 170//199
f 168//197 170//199 171//200 126//153
f 171//200 170//199 172//201 160//189
f 171//200 160//189 159//188 164//193
f 171//200 164//193 123//150 126//153
f 172//201 170//199 169//198 173//202
f 172//201 173//202 174//203 157//186
f 172//201 157//186 156//185 160//189
f 174//203 173//202 175//204 176//205
f 174//203 176//205 177//206 153//182
f 174//203 153//182 152//181 157//186
f 177//206 176//205 201//97 178//118
f 177//206 178//118 202//115 179//207
f 177//206 179//207 154//183 153//182
f 179//207 202//115 203//111 132//160
f 179//207 132//160 131//159 154//183
f 203//111 180//109 127//155 132//160
f 180//109 181//107 128//156 127//155
f 181//107 139//106 138//166 128//156
f 182//105 204//98 175//204 183//208
f 182//105 183//208 120//146 119//104
f 183//208 175//204 173//202 169//198
f 183//208 169//198 121//147 120//146
f 204//98 201//97 176//205 175//204
f 197//94 161//190 144//173 196//91
f 164//193 163//192 124//151 123//150
f 138//166 137//165 129//157 128//156
f 100//123 96//122 97//128 98//143
f 100//123 98//143 110//144 101//209
f 110//144 109//210 107//211 101//209
f 104//120 99//119 100//123 101//209
f 104//120 101//209 107//211 105//212
f 189//213 188//113 102//112 105//212
f 102//112 103//116 104//120 105//212
f 115//85 190//84 189//213 106//214
f 189//213 105//212 107//211 106//214
f 113//215 185//216 184//217 108//218
f 184//217 115//85 106//214 108//218
f 106//214 107//211 109//210 108//218
f 113//215 108//218 109//210 111//219
f 109//210 110//144 112//92 111//219
f 141//170 113//215 111//219 143//172
f 111//219 112//92 196//91 143//172
f 185//216 113//215 141//170 195//169
f 186//220 185//216 195//169 194//168
f 186//220 194//168 140//167 116//221
f 140//167 139//106 114//86 116//221
f 114//86 115//85 184//217 116//221
f 116//221 184//217 185//216 186//220
f 205//108 187//110 188//113 213//222
f 188//113 189//213 190//84 213//222
f 190//84 191//83 205//108 213//222
f 206//126 207//137 208//88 209//87
f 192//149 193//134 210//132 214//223
f 212//99 119//104 192//149 214//223
f 210//132 211//100 212//99 214//223
