# pilowlava3D glyph '/' variant 1 — Vincent Wagner / Velvetyne, Free Art License
v 0.16272 0.07482 -0.21265
v 1.93961 4.43018 -0.32635
v 2.22939 4.27577 -0.30914
v 0.04272 0.14758 -0.20362
v 0.16524 0.03198 -0.12306
v 0.04804 0.01228 -0.12689
v 0.07639 0.06888 -0.24063
v 0.16207 0.23772 -0.29216
v 0.23211 0.21036 -0.24311
v 0.27528 0.20214 -0.13229
v 1.83141 4.30148 -0.36740
v 1.72143 4.35822 -0.20024
v 1.91262 4.50192 -0.19059
v 2.14238 4.47043 -0.18322
v 2.09952 4.38771 -0.34606
v 2.01025 4.21587 -0.42903
v 2.29510 4.29338 -0.18447
v 2.26671 4.07274 -0.18952
v 2.17995 4.12260 -0.34747
v 0.01092 0.12453 -0.12051
v 0.07515 0.29977 -0.12988
v 0.10229 0.27573 -0.23295
v 0.15575 0.49854 -0.15091
v 0.19032 0.47408 -0.26295
v 0.25751 0.43862 -0.31912
v 0.28161 0.67391 -0.28133
v 0.35384 0.63904 -0.32831
v 0.42609 0.60780 -0.27957
v 0.33148 0.40810 -0.26880
v 0.47285 0.59079 -0.16152
v 0.37516 0.39630 -0.15442
v 0.48679 0.58657 0.00000
v 0.38842 0.39583 0.00000
v 0.28627 0.20225 0.00000
v 0.17580 0.02544 0.00000
v 0.06729 0.31042 0.00000
v 0.00000 0.12638 0.00000
v 0.04101 0.00000 0.00000
v 0.23697 0.69866 -0.15894
v 0.31921 0.90002 -0.16516
v 0.36985 0.87371 -0.29422
v 0.40150 1.10193 -0.17529
v 0.45688 1.07371 -0.30473
v 0.53534 1.03685 -0.34845
v 0.44537 0.83801 -0.33866
v 0.61396 1.00227 -0.30167
v 0.51973 0.80547 -0.29159
v 0.66996 0.98005 -0.17567
v 0.57212 0.78489 -0.16643
v 0.68742 0.97326 0.00000
v 0.58718 0.77974 0.00000
v 0.38486 1.11168 0.00000
v 0.46489 1.31415 0.00000
v 0.48466 1.30321 -0.18466
v 0.54481 1.51648 0.00000
v 1.08714 1.74684 0.00000
v 1.18900 1.93955 0.00000
v 1.39213 2.32729 0.00000
v 1.16174 1.95274 -0.19581
v 1.26265 2.14709 -0.19721
v 1.36262 2.34166 -0.19852
v 1.18266 2.18445 -0.34269
v 1.27911 2.38074 -0.34729
v 1.37672 2.57686 -0.35194
v 1.46380 2.53584 -0.19888
v 1.49334 2.51956 0.00000
v 1.56542 2.72996 -0.19879
v 0.78615 2.12483 0.00000
v 0.70523 1.92176 0.00000
v 0.73042 1.91049 -0.19383
v 0.64832 1.70732 -0.19364
v 0.56691 1.50484 -0.19096
v 0.71683 1.67594 -0.32886
v 0.62971 1.47521 -0.32102
v 0.54242 1.27474 -0.31161
v 0.71324 1.43677 -0.36741
v 0.62376 1.23685 -0.35816
v 0.79939 1.39890 -0.32256
v 0.70718 1.19983 -0.31181
v 0.86459 1.37105 -0.19042
v 0.76640 1.17562 -0.18520
v 0.96284 1.56547 -0.19249
v 1.06120 1.75972 -0.19415
v 0.89162 1.59695 -0.33039
v 0.98666 1.79376 -0.33447
v 1.08459 1.98901 -0.33826
v 0.89709 1.83461 -0.38060
v 0.98982 2.03301 -0.38708
v 1.08132 2.23141 -0.39431
v 0.89232 2.07764 -0.34091
v 0.97694 2.27888 -0.34479
v 1.06066 2.48068 -0.34840
v 1.17068 2.43092 -0.40141
v 1.14470 2.68289 -0.35220
v 1.26088 2.63016 -0.40839
v 1.22916 2.88455 -0.35642
v 1.35246 2.82870 -0.41527
v 1.47489 2.77271 -0.35653
v 1.44233 3.02754 -0.42190
v 1.57127 2.96932 -0.36016
v 1.66511 2.92527 -0.19889
v 1.66592 3.16597 -0.36325
v 1.76267 3.12066 -0.19910
v 1.79634 3.10381 0.00000
v 0.86590 2.32840 0.00000
v 0.97461 2.51837 -0.19897
v 0.89379 2.31545 -0.19738
v 0.81255 2.11332 -0.19510
v 0.80567 1.87650 -0.33579
v 0.80340 1.63671 -0.37477
v 1.05489 2.72199 -0.19967
v 1.13460 2.92485 -0.20003
v 1.18081 3.14214 0.00000
v 1.21339 3.12856 -0.20038
v 1.31161 3.08618 -0.36066
v 1.29172 3.33368 -0.20230
v 1.39296 3.28921 -0.36575
v 1.53056 3.22712 -0.42936
v 1.47703 3.49364 -0.37041
v 1.62151 3.42690 -0.43706
v 1.76224 3.36081 -0.36645
v 1.71815 3.62688 -0.44331
v 1.86351 3.55413 -0.36899
v 1.96084 3.50429 -0.19969
v 1.86058 3.31401 -0.19949
v 1.89526 3.29564 0.00000
v 1.25903 3.34800 0.00000
v 1.37281 3.53867 -0.20465
v 1.42275 3.75508 0.00000
v 1.45702 3.74146 -0.20457
v 1.56394 3.69843 -0.37271
v 1.53371 3.94729 -0.20536
v 1.64774 3.90373 -0.37531
v 1.81546 3.82707 -0.44633
v 1.73143 4.10701 -0.37806
v 1.91113 4.02524 -0.44622
v 2.07687 3.93497 -0.36858
v 1.96989 3.74607 -0.36962
v 2.17212 3.87761 -0.19773
v 2.06467 3.69187 -0.19944
v 1.49896 3.96070 0.00000
v 1.61213 4.15647 -0.20548
v 1.90668 4.52467 0.00000
v 2.15256 4.48664 0.00000
v 2.32036 4.29967 0.00000
v 0.14594 0.50890 0.00000
v 0.22514 0.70718 0.00000
v 0.30539 0.90884 0.00000
v 1.29063 2.13320 0.00000
v 1.59544 2.71347 0.00000
v 0.62451 1.71892 0.00000
v 0.88657 1.35968 0.00000
v 0.78728 1.16716 0.00000
v 0.98705 1.55374 0.00000
v 1.69690 2.90928 0.00000
v 0.94493 2.53160 0.00000
v 1.02359 2.73485 0.00000
v 1.10235 2.93833 0.00000
v 1.99514 3.48511 0.00000
v 1.33924 3.55287 0.00000
v 2.20339 3.85863 0.00000
v 2.09738 3.67258 0.00000
v 1.57919 4.17067 0.00000
v 1.69418 4.37668 0.00000
v 2.29667 4.05899 0.00000
v 0.16272 0.07482 0.21265
v 1.93961 4.43018 0.32635
v 2.22939 4.27577 0.30914
v 0.04272 0.14758 0.20362
v 0.16524 0.03198 0.12306
v 0.04804 0.01228 0.12689
v 0.07639 0.06888 0.24063
v 0.16207 0.23772 0.29216
v 0.23211 0.21036 0.24311
v 0.27528 0.20214 0.13229
v 1.83141 4.30148 0.36740
v 1.72143 4.35822 0.20024
v 1.91262 4.50192 0.19059
v 2.14238 4.47043 0.18322
v 2.09952 4.38771 0.34606
v 2.01025 4.21587 0.42903
v 2.29510 4.29338 0.18447
v 2.26671 4.07274 0.18952
v 2.17995 4.12260 0.34747
v 0.01092 0.12453 0.12051
v 0.07515 0.29977 0.12988
v 0.10229 0.27573 0.23295
v 0.15575 0.49854 0.15091
v 0.19032 0.47408 0.26295
v 0.25751 0.43862 0.31912
v 0.28161 0.67391 0.28133
v 0.35384 0.63904 0.32831
v 0.42609 0.60780 0.27957
v 0.33148 0.40810 0.26880
v 0.47285 0.59079 0.16152
v 0.37516 0.39630 0.15442
v 0.23697 0.69866 0.15894
v 0.31921 0.90002 0.16516
v 0.36985 0.87371 0.29422
v 0.40150 1.10193 0.17529
v 0.45688 1.07371 0.30473
v 0.53534 1.03685 0.34845
v 0.44537 0.83801 0.33866
v 0.61396 1.00227 0.30167
v 0.51973 0.80547 0.29159
v 0.66996 0.98005 0.17567
v 0.57212 0.78489 0.16643
v 0.48466 1.30321 0.18466
v 1.16174 1.95274 0.19581
v 1.26265 2.14709 0.19721
v 1.36262 2.34166 0.19852
v 1.18266 2.18445 0.34269
v 1.27911 2.38074 0.34729
v 1.37672 2.57686 0.35194
v 1.46380 2.53584 0.19888
v 1.56542 2.72996 0.19879
v 0.73042 1.91049 0.19383
v 0.64832 1.70732 0.19364
v 0.56691 1.50484 0.19096
v 0.71683 1.67594 0.32886
v 0.62971 1.47521 0.32102
v 0.54242 1.27474 0.31161
v 0.71324 1.43677 0.36741
v 0.62376 1.23685 0.35816
v 0.79939 1.39890 0.32256
v 0.70718 1.19983 0.31181
v 0.86459 1.37105 0.19042
v 0.76640 1.17562 0.18520
v 0.96284 1.56547 0.19249
v 1.06120 1.75972 0.19415
v 0.89162 1.59695 0.33039
v 0.98666 1.79376 0.33447
v 1.08459 1.98901 0.33826
v 0.89709 1.83461 0.38060
v 0.98982 2.03301 0.38708
v 1.08132 2.23141 0.39431
v 0.89232 2.07764 0.34091
v 0.97694 2.27888 0.34479
v 1.06066 2.48068 0.34840
v 1.17068 2.43092 0.40141
v 1.14470 2.68289 0.35220
v 1.26088 2.63016 0.40839
v 1.22916 2.88455 0.35642
v 1.35246 2.82870 0.41527
v 1.47489 2.77271 0.35653
v 1.44233 3.02754 0.42190
v 1.57127 2.96932 0.36016
v 1.66511 2.92527 0.19889
v 1.66592 3.16597 0.36325
v 1.76267 3.12066 0.19910
v 0.97461 2.51837 0.19897
v 0.89379 2.31545 0.19738
v 0.81255 2.11332 0.19510
v 0.80567 1.87650 0.33579
v 0.80340 1.63671 0.37477
v 1.05489 2.72199 0.19967
v 1.13460 2.92485 0.20003
v 1.21339 3.12856 0.20038
v 1.31161 3.08618 0.36066
v 1.29172 3.33368 0.20230
v 1.39296 3.28921 0.36575
v 1.53056 3.22712 0.42936
v 1.47703 3.49364 0.37041
v 1.62151 3.42690 0.43706
v 1.76224 3.36081 0.36645
v 1.71815 3.62688 0.44331
v 1.86351 3.55413 0.36899
v 1.96084 3.50429 0.19969
v 1.86058 3.31401 0.19949
v 1.37281 3.53867 0.20465
v 1.45702 3.74146 0.20457
v 1.56394 3.69843 0.37271
v 1.53371 3.94729 0.20536
v 1.64774 3.90373 0.37531
v 1.81546 3.82707 0.44633
v 1.73143 4.10701 0.37806
v 1.91113 4.02524 0.44622
v 2.07687 3.93497 0.36858
v 1.96989 3.74607 0.36962
v 2.17212 3.87761 0.19773
v 2.06467 3.69187 0.19944
v 1.61213 4.15647 0.20548
vn 0.28306 -0.68598 -0.67030
vn 0.18184 -0.95097 -0.25019
vn 0.39853 -0.36513 -0.84134
vn 0.64296 -0.44947 -0.62014
vn 0.80939 -0.50508 -0.29963
vn 0.84409 -0.49525 -0.20551
vn 0.82949 -0.52391 -0.19355
vn -0.54331 0.66832 -0.50810
vn -0.41475 0.44390 -0.79431
vn -0.70119 0.61173 -0.36622
vn -0.57290 0.75156 -0.32702
vn 0.15806 0.87682 -0.45409
vn 0.15416 0.94644 -0.28370
vn 0.45890 0.83598 -0.30092
vn 0.33361 0.56084 -0.75774
vn -0.05510 0.39794 -0.91576
vn 0.13334 0.16561 -0.97714
vn 0.71641 0.21791 -0.66277
vn 0.94098 -0.12513 -0.31450
vn 0.90203 -0.26214 -0.34296
vn 0.64944 -0.12333 -0.75035
vn 0.71503 0.63771 -0.28646
vn -0.86166 0.07444 -0.50199
vn -0.97517 0.03556 -0.21858
vn -0.91729 0.34681 -0.19573
vn -0.79112 0.24752 -0.55934
vn -0.62377 0.13847 -0.76924
vn -0.80058 -0.06661 -0.59551
vn -0.93269 -0.27530 -0.23302
vn -0.90779 0.35819 -0.21823
vn -0.75174 0.27113 -0.60114
vn -0.56555 0.17783 -0.80531
vn -0.71115 0.27310 -0.64783
vn -0.49287 0.17262 -0.85281
vn 0.45362 -0.29532 -0.84084
vn 0.45513 -0.26018 -0.85156
vn 0.67081 -0.35728 -0.64990
vn 0.67033 -0.38618 -0.63366
vn 0.86415 -0.44280 -0.23912
vn 0.86244 -0.45382 -0.22414
vn 0.88947 -0.45699 -0.00002
vn 0.88784 -0.46016 -0.00002
vn 0.86474 -0.50221 -0.00010
vn 0.84288 -0.53810 -0.00020
vn -0.93487 0.35498 -0.00003
vn -0.92900 0.37008 0.00000
vn -0.99985 0.01710 -0.00005
vn -0.95099 -0.30922 -0.00004
vn 0.17683 -0.98424 0.00064
vn -0.92810 0.37233 0.00000
vn -0.90136 0.36259 -0.23683
vn -0.92872 0.37078 -0.00001
vn -0.89809 0.35868 -0.25453
vn -0.68689 0.26044 -0.67850
vn -0.89389 0.35585 -0.27265
vn -0.67230 0.25485 -0.69503
vn -0.43472 0.14974 -0.88803
vn -0.45083 0.15374 -0.87927
vn 0.43787 -0.25011 -0.86355
vn 0.41737 -0.23650 -0.87742
vn 0.64179 -0.34091 -0.68694
vn 0.65635 -0.35080 -0.66794
vn 0.85689 -0.43803 -0.27178
vn 0.85974 -0.44242 -0.25519
vn 0.89094 -0.45412 -0.00000
vn 0.88918 -0.45757 -0.00000
vn -0.92877 0.37066 -0.00000
vn -0.92837 0.37165 0.00000
vn -0.88878 0.35517 -0.28971
vn 0.88692 -0.46192 -0.00000
vn 0.88574 -0.46417 0.00000
vn 0.83400 -0.43571 -0.33851
vn 0.83323 -0.43238 -0.34465
vn 0.83124 -0.43120 -0.35085
vn 0.88670 -0.46235 -0.00000
vn 0.58922 -0.31054 -0.74591
vn 0.58466 -0.30723 -0.75085
vn 0.57885 -0.30694 -0.75546
vn 0.82835 -0.43253 -0.35602
vn 0.88560 -0.46445 -0.00000
vn 0.82865 -0.42836 -0.36033
vn 0.88735 -0.46110 -0.00000
vn -0.92882 0.37054 0.00000
vn -0.92814 0.37224 0.00000
vn -0.87582 0.35492 -0.32706
vn -0.87996 0.35450 -0.31622
vn -0.88469 0.35348 -0.30393
vn -0.92907 0.36990 -0.00000
vn -0.63731 0.25217 -0.72818
vn -0.65278 0.25115 -0.71470
vn -0.66295 0.25268 -0.70474
vn -0.42491 0.15002 -0.89272
vn -0.43201 0.14990 -0.88932
vn 0.39592 -0.22520 -0.89025
vn 0.37856 -0.21266 -0.90081
vn 0.61346 -0.32050 -0.72177
vn 0.62695 -0.33114 -0.70518
vn 0.84908 -0.43117 -0.30521
vn 0.85333 -0.43397 -0.28897
vn 0.89023 -0.45550 -0.00001
vn 0.89118 -0.45364 -0.00001
vn 0.88986 -0.45623 0.00001
vn 0.84484 -0.42912 -0.31954
vn 0.83866 -0.43270 -0.33078
vn 0.88750 -0.46081 0.00000
vn 0.60431 -0.31206 -0.73309
vn 0.59777 -0.31230 -0.73834
vn 0.59250 -0.31433 -0.74172
vn 0.37170 -0.20208 -0.90609
vn 0.37096 -0.20436 -0.90589
vn 0.36789 -0.20173 -0.90772
vn -0.37386 0.13797 -0.91716
vn -0.37401 0.14028 -0.91675
vn -0.61402 0.24259 -0.75109
vn -0.61068 0.23801 -0.75527
vn -0.60881 0.23613 -0.75736
vn -0.37712 0.13862 -0.91573
vn 0.36264 -0.19802 -0.91065
vn -0.60546 0.23542 -0.76026
vn -0.37743 0.13995 -0.91540
vn 0.35572 -0.19670 -0.91366
vn -0.60150 0.23184 -0.76450
vn -0.37466 0.13793 -0.91685
vn 0.35267 -0.19304 -0.91562
vn 0.57683 -0.30256 -0.75876
vn 0.35491 -0.18951 -0.91549
vn 0.57805 -0.29599 -0.76043
vn 0.83040 -0.42025 -0.36583
vn 0.57812 -0.29669 -0.76010
vn 0.82855 -0.41864 -0.37182
vn 0.89146 -0.45311 0.00000
vn 0.89090 -0.45420 -0.00000
vn -0.93025 0.36692 0.00001
vn -0.93114 0.36466 -0.00000
vn -0.87022 0.34319 -0.35346
vn -0.87230 0.34612 -0.34540
vn -0.87390 0.35072 -0.33659
vn -0.92894 0.37024 0.00000
vn -0.62247 0.24947 -0.74182
vn -0.38484 0.14681 -0.91123
vn -0.40559 0.15108 -0.90148
vn 0.37151 -0.20263 -0.90605
vn -0.93163 0.36341 -0.00000
vn -0.86783 0.34150 -0.36090
vn -0.93236 0.36153 0.00000
vn -0.86636 0.33833 -0.36737
vn -0.93389 0.35757 0.00000
vn -0.86675 0.33244 -0.37180
vn -0.59909 0.22431 -0.76862
vn -0.86489 0.33353 -0.37512
vn -0.59535 0.22242 -0.77206
vn -0.36841 0.12888 -0.92069
vn -0.37185 0.13153 -0.91893
vn -0.58807 0.23227 -0.77474
vn -0.36199 0.13660 -0.92212
vn 0.35892 -0.19278 -0.91324
vn 0.36164 -0.19959 -0.91070
vn 0.57607 -0.30511 -0.75832
vn 0.36106 -0.19914 -0.91103
vn 0.57294 -0.31255 -0.75766
vn 0.81602 -0.44081 -0.37389
vn 0.82281 -0.42704 -0.37500
vn 0.88058 -0.47390 -0.00000
vn 0.88752 -0.46077 0.00000
vn -0.93284 0.36030 0.00000
vn -0.92743 0.37400 -0.00000
vn -0.85860 0.34626 -0.37803
vn -0.93085 0.36540 -0.00000
vn -0.85916 0.34018 -0.38225
vn -0.58098 0.23303 -0.77985
vn -0.86109 0.32713 -0.38925
vn -0.56792 0.22473 -0.79181
vn -0.32981 0.13782 -0.93393
vn -0.35112 0.14166 -0.92555
vn -0.52891 0.26699 -0.80558
vn -0.28323 0.16684 -0.94443
vn 0.35394 -0.18741 -0.91630
vn 0.36292 -0.14391 -0.92064
vn 0.58162 -0.27652 -0.76502
vn 0.56772 -0.31256 -0.76158
vn 0.82590 -0.42746 -0.36765
vn 0.80976 -0.45425 -0.37142
vn 0.88687 -0.46202 -0.00002
vn 0.87207 -0.48938 -0.00000
vn -0.93638 0.35099 0.00000
vn -0.90758 0.41987 -0.00003
vn -0.83306 0.38890 -0.39342
vn -0.74752 0.66423 0.00036
vn -0.58404 0.81173 0.00076
vn 0.14597 0.98929 0.00031
vn 0.47726 0.87876 -0.00007
vn 0.75056 0.66080 -0.00044
vn 0.99381 -0.11112 -0.00067
vn 0.96233 -0.27188 -0.00036
vn 0.28631 -0.69016 0.66461
vn 0.17957 -0.95162 0.24933
vn 0.64188 -0.45126 0.61996
vn 0.40397 -0.36803 0.83747
vn 0.82608 -0.52682 0.20012
vn 0.84245 -0.49666 0.20883
vn 0.80091 -0.51061 0.31277
vn -0.56337 0.75491 0.33575
vn -0.69692 0.61376 0.37095
vn -0.40993 0.44851 0.79423
vn -0.15654 0.71078 0.68577
vn 0.33492 0.56283 0.75568
vn 0.45867 0.83467 0.30488
vn 0.15155 0.94553 0.28811
vn 0.13660 0.17135 0.97569
vn 0.65137 -0.11905 0.74936
vn 0.90188 -0.25929 0.34552
vn 0.94010 -0.11931 0.31934
vn 0.71706 0.21968 0.66149
vn 0.71647 0.63489 0.28910
vn -0.79148 0.24577 0.55960
vn -0.91750 0.34490 0.19811
vn -0.97497 0.03047 0.22023
vn -0.86237 0.06848 0.50162
vn -0.80351 -0.07150 0.59098
vn -0.62666 0.13982 0.76665
vn -0.93140 -0.28126 0.23105
vn -0.75192 0.27085 0.60104
vn -0.90800 0.35776 0.21804
vn -0.56532 0.17809 0.80542
vn -0.49304 0.17283 0.85267
vn -0.71133 0.27305 0.64765
vn 0.67034 -0.38619 0.63364
vn 0.67087 -0.35721 0.64987
vn 0.45516 -0.26013 0.85156
vn 0.45366 -0.29522 0.84086
vn 0.86243 -0.45388 0.22407
vn 0.86417 -0.44279 0.23906
vn -0.90145 0.36241 0.23673
vn -0.89810 0.35865 0.25454
vn -0.68686 0.26049 0.67850
vn -0.67229 0.25485 0.69504
vn -0.89391 0.35580 0.27265
vn -0.45085 0.15373 0.87926
vn -0.43467 0.14984 0.88804
vn 0.65637 -0.35074 0.66795
vn 0.64179 -0.34090 0.68694
vn 0.41738 -0.23647 0.87743
vn 0.43783 -0.25018 0.86355
vn 0.85976 -0.44237 0.25520
vn 0.85690 -0.43801 0.27179
vn -0.88877 0.35519 0.28971
vn 0.83321 -0.43241 0.34465
vn 0.83400 -0.43571 0.33852
vn 0.83125 -0.43120 0.35085
vn 0.58462 -0.30731 0.75085
vn 0.58919 -0.31060 0.74591
vn 0.82837 -0.43250 0.35602
vn 0.57884 -0.30696 0.75546
vn 0.82866 -0.42836 0.36033
vn -0.87989 0.35466 0.31624
vn -0.87580 0.35498 0.32707
vn -0.88468 0.35351 0.30392
vn -0.65276 0.25120 0.71470
vn -0.63724 0.25229 0.72820
vn -0.66296 0.25264 0.70474
vn -0.43198 0.14997 0.88933
vn -0.42487 0.15009 0.89273
vn 0.62693 -0.33118 0.70518
vn 0.61344 -0.32051 0.72177
vn 0.37853 -0.21267 0.90082
vn 0.39594 -0.22510 0.89026
vn 0.85332 -0.43400 0.28895
vn 0.84906 -0.43122 0.30521
vn 0.84487 -0.42905 0.31955
vn 0.83866 -0.43271 0.33078
vn 0.59776 -0.31231 0.73834
vn 0.60435 -0.31196 0.73310
vn 0.59250 -0.31431 0.74172
vn 0.37097 -0.20433 0.90589
vn 0.37171 -0.20207 0.90609
vn 0.36788 -0.20176 0.90772
vn -0.61065 0.23806 0.75527
vn -0.61400 0.24261 0.75109
vn -0.37398 0.14036 0.91676
vn -0.37385 0.13801 0.91716
vn -0.37709 0.13867 0.91573
vn -0.60877 0.23620 0.75737
vn 0.36257 -0.19816 0.91064
vn -0.37745 0.13992 0.91540
vn -0.60543 0.23546 0.76027
vn 0.35566 -0.19681 0.91366
vn -0.37470 0.13783 0.91684
vn -0.60149 0.23185 0.76450
vn 0.57682 -0.30258 0.75876
vn 0.35265 -0.19308 0.91562
vn 0.57803 -0.29603 0.76043
vn 0.35488 -0.18957 0.91549
vn 0.83040 -0.42025 0.36582
vn 0.82856 -0.41862 0.37182
vn 0.57813 -0.29667 0.76010
vn -0.87228 0.34615 0.34541
vn -0.87021 0.34323 0.35346
vn -0.87391 0.35069 0.33660
vn -0.62245 0.24949 0.74182
vn -0.38485 0.14675 0.91124
vn -0.40561 0.15097 0.90149
vn 0.37152 -0.20257 0.90606
vn -0.86781 0.34155 0.36091
vn -0.86634 0.33838 0.36737
vn -0.86674 0.33244 0.37180
vn -0.59909 0.22431 0.76862
vn -0.59536 0.22240 0.77207
vn -0.86490 0.33350 0.37512
vn -0.37186 0.13152 0.91892
vn -0.36840 0.12891 0.92069
vn -0.36201 0.13655 0.92212
vn -0.58809 0.23224 0.77474
vn 0.57608 -0.30507 0.75833
vn 0.36165 -0.19954 0.91071
vn 0.35890 -0.19277 0.91325
vn 0.57297 -0.31245 0.75768
vn 0.36111 -0.19897 0.91105
vn 0.82281 -0.42702 0.37501
vn 0.81603 -0.44081 0.37388
vn -0.85861 0.34625 0.37803
vn -0.85920 0.34012 0.38222
vn -0.58094 0.23314 0.77984
vn -0.56797 0.22457 0.79182
vn -0.86113 0.32700 0.38927
vn -0.35095 0.14197 0.92557
vn -0.32982 0.13777 0.93394
vn -0.28330 0.16643 0.94448
vn -0.52895 0.26671 0.80565
vn 0.56769 -0.31266 0.76156
vn 0.58159 -0.27664 0.76500
vn 0.36279 -0.14433 0.92063
vn 0.35387 -0.18758 0.91629
vn 0.80976 -0.45426 0.37141
vn 0.82593 -0.42742 0.36763
vn -0.83309 0.38881 0.39344
f 1//1 5//2 6//2 7//1
f 1//1 7//1 8//3 9//4
f 1//5 9//4 10//6 5//7
f 2//8 11//9 12//10 13//11
f 2//12 13//13 14//14 15//15
f 2//16 15//15 16//17 11//9
f 3//18 17//19 18//20 19//21
f 3//18 15//15 14//14 17//22
f 3//18 19//21 16//17 15//15
f 4//23 20//24 21//25 22//26
f 4//23 22//26 8//27 7//28
f 4//23 7//28 6//29 20//24
f 22//26 21//25 23//30 24//31
f 22//26 24//31 25//32 8//27
f 25//32 24//31 26//33 27//34
f 25//35 27//36 28//37 29//38
f 25//35 29//38 9//4 8//3
f 29//38 28//37 30//39 31//40
f 29//38 31//40 10//6 9//4
f 31//40 30//39 32//41 33//42
f 31//40 33//42 34//43 10//6
f 34//43 35//44 5//7 10//6
f 36//45 146//46 23//30 21//25
f 36//45 21//25 20//24 37//47
f 37//47 20//24 6//29 38//48
f 38//49 6//2 5//2 35//49
f 146//46 147//50 39//51 23//30
f 39//51 147//50 148//52 40//53
f 39//51 40//53 41//54 26//33
f 39//51 26//33 24//31 23//30
f 41//54 40//53 42//55 43//56
f 41//54 43//56 44//57 45//58
f 41//54 45//58 27//34 26//33
f 45//59 44//60 46//61 47//62
f 45//59 47//62 28//37 27//36
f 47//62 46//61 48//63 49//64
f 47//62 49//64 30//39 28//37
f 49//64 48//63 50//65 51//66
f 49//64 51//66 32//41 30//39
f 52//67 53//68 54//69 42//55
f 52//67 42//55 40//53 148//52
f 149//70 57//71 59//72 60//73
f 149//70 60//73 61//74 58//75
f 61//74 60//73 62//76 63//77
f 61//74 63//77 64//78 65//79
f 61//74 65//79 66//80 58//75
f 66//80 65//79 67//81 150//82
f 151//83 69//84 70//85 71//86
f 151//83 71//86 72//87 55//88
f 72//87 54//69 53//68 55//88
f 72//87 71//86 73//89 74//90
f 72//87 74//90 75//91 54//69
f 75//91 43//56 42//55 54//69
f 75//91 74//90 76//92 77//93
f 75//91 77//93 44//57 43//56
f 77//94 76//95 78//96 79//97
f 77//94 79//97 46//61 44//60
f 79//97 78//96 80//98 81//99
f 79//97 81//99 48//63 46//61
f 81//99 80//98 152//100 153//101
f 81//99 153//101 50//65 48//63
f 154//102 152//100 80//98 82//103
f 154//102 82//103 83//104 56//105
f 83//104 82//103 84//106 85//107
f 83//104 85//107 86//108 59//72
f 83//104 59//72 57//71 56//105
f 86//108 85//107 87//109 88//110
f 86//108 88//110 89//111 62//76
f 86//108 62//76 60//73 59//72
f 89//112 88//113 90//114 91//115
f 89//112 91//115 92//116 93//117
f 89//111 93//118 63//77 62//76
f 93//117 92//116 94//119 95//120
f 93//118 95//121 64//78 63//77
f 95//120 94//119 96//122 97//123
f 95//121 97//124 98//125 64//78
f 98//125 97//124 99//126 100//127
f 98//125 100//127 101//128 67//81
f 98//125 67//81 65//79 64//78
f 101//128 100//127 102//129 103//130
f 101//128 103//130 104//131 155//132
f 101//128 155//132 150//82 67//81
f 105//133 156//134 106//135 107//136
f 105//133 107//136 108//137 68//138
f 108//137 70//85 69//84 68//138
f 108//137 107//136 91//115 90//114
f 108//137 90//114 109//139 70//85
f 109//139 73//89 71//86 70//85
f 109//139 90//114 88//113 87//140
f 109//139 87//140 110//141 73//89
f 110//141 76//92 74//90 73//89
f 110//142 87//109 85//107 84//106
f 110//142 84//106 78//96 76//95
f 107//136 106//135 92//116 91//115
f 106//135 156//134 157//143 111//144
f 106//135 111//144 94//119 92//116
f 111//144 157//143 158//145 112//146
f 111//144 112//146 96//122 94//119
f 112//146 158//145 113//147 114//148
f 112//146 114//148 115//149 96//122
f 115//149 114//148 116//150 117//151
f 115//149 117//151 118//152 99//153
f 115//149 99//153 97//123 96//122
f 118//152 117//151 119//154 120//155
f 118//156 120//157 121//158 102//129
f 118//156 102//129 100//127 99//126
f 121//158 120//157 122//159 123//160
f 121//158 123//160 124//161 125//162
f 121//158 125//162 103//130 102//129
f 125//162 124//161 159//163 126//164
f 125//162 126//164 104//131 103//130
f 127//165 160//166 128//167 116//150
f 127//165 116//150 114//148 113//147
f 128//167 160//166 129//168 130//169
f 128//167 130//169 131//170 119//154
f 128//167 119//154 117//151 116//150
f 131//170 130//169 132//171 133//172
f 131//170 133//172 134//173 122//174
f 131//170 122//174 120//155 119//154
f 134//173 133//172 135//175 136//176
f 134//177 136//178 137//179 138//180
f 134//177 138//180 123//160 122//159
f 138//180 137//179 139//181 140//182
f 138//180 140//182 124//161 123//160
f 140//182 139//181 161//183 162//184
f 140//182 162//184 159//163 124//161
f 141//185 163//186 142//187 132//171
f 141//185 132//171 130//169 129//168
f 142//187 163//186 164//188 12//10
f 142//187 12//10 11//9 135//175
f 142//187 135//175 133//172 132//171
f 164//188 143//189 13//11 12//10
f 143//190 144//191 14//14 13//13
f 144//191 145//192 17//22 14//14
f 145//193 165//194 18//20 17//19
f 165//194 161//183 139//181 18//20
f 139//181 137//179 19//21 18//20
f 137//179 136//178 16//17 19//21
f 136//176 135//175 11//9 16//17
f 84//106 82//103 80//98 78//96
f 172//195 171//196 170//196 166//195
f 174//197 173//198 172//195 166//195
f 170//199 175//200 174//197 166//201
f 178//202 177//203 176//204 167//205
f 180//206 179//207 178//208 167//205
f 176//204 181//209 180//206 167//205
f 184//210 183//211 182//212 168//213
f 182//214 179//207 180//206 168//213
f 180//206 181//209 184//210 168//213
f 187//215 186//216 185//217 169//218
f 172//219 173//220 187//215 169//218
f 185//217 171//221 172//219 169//218
f 189//222 188//223 186//216 187//215
f 173//220 190//224 189//222 187//215
f 192//225 191//226 189//222 190//224
f 194//227 193//228 192//229 190//230
f 173//198 174//197 194//227 190//230
f 196//231 195//232 193//228 194//227
f 174//197 175//200 196//231 194//227
f 33//42 32//41 195//232 196//231
f 175//200 34//43 33//42 196//231
f 175//200 170//199 35//44 34//43
f 186//216 188//223 146//46 36//45
f 37//47 185//217 186//216 36//45
f 38//48 171//221 185//217 37//47
f 35//49 170//196 171//196 38//49
f 188//223 197//233 147//50 146//46
f 198//234 148//52 147//50 197//233
f 191//226 199//235 198//234 197//233
f 188//223 189//222 191//226 197//233
f 201//236 200//237 198//234 199//235
f 203//238 202//239 201//236 199//235
f 191//226 192//225 203//238 199//235
f 205//240 204//241 202//242 203//243
f 192//229 193//228 205//240 203//243
f 207//244 206//245 204//241 205//240
f 193//228 195//232 207//244 205//240
f 51//66 50//65 206//245 207//244
f 195//232 32//41 51//66 207//244
f 200//237 208//246 53//68 52//67
f 148//52 198//234 200//237 52//67
f 210//247 209//248 57//71 149//70
f 58//75 211//249 210//247 149//70
f 213//250 212//251 210//247 211//249
f 215//252 214//253 213//250 211//249
f 58//75 66//80 215//252 211//249
f 150//82 216//254 215//252 66//80
f 218//255 217//256 69//84 151//83
f 55//88 219//257 218//255 151//83
f 55//88 53//68 208//246 219//257
f 221//258 220//259 218//255 219//257
f 208//246 222//260 221//258 219//257
f 208//246 200//237 201//236 222//260
f 224//261 223//262 221//258 222//260
f 201//236 202//239 224//261 222//260
f 226//263 225//264 223//265 224//266
f 202//242 204//241 226//263 224//266
f 228//267 227//268 225//264 226//263
f 204//241 206//245 228//267 226//263
f 153//101 152//100 227//268 228//267
f 206//245 50//65 153//101 228//267
f 229//269 227//268 152//100 154//102
f 56//105 230//270 229//269 154//102
f 232//271 231//272 229//269 230//270
f 209//248 233//273 232//271 230//270
f 56//105 57//71 209//248 230//270
f 235//274 234//275 232//271 233//273
f 212//251 236//276 235//274 233//273
f 209//248 210//247 212//251 233//273
f 238//277 237//278 235//279 236//280
f 240//281 239//282 238//277 236//280
f 212//251 213//250 240//283 236//276
f 242//284 241//285 239//282 240//281
f 213//250 214//253 242//286 240//283
f 244//287 243//288 241//285 242//284
f 214//253 245//289 244//290 242//286
f 247//291 246//292 244//290 245//289
f 216//254 248//293 247//291 245//289
f 214//253 215//252 216//254 245//289
f 250//294 249//295 247//291 248//293
f 155//132 104//131 250//294 248//293
f 216//254 150//82 155//132 248//293
f 252//296 251//297 156//134 105//133
f 68//138 253//298 252//296 105//133
f 68//138 69//84 217//256 253//298
f 237//278 238//277 252//296 253//298
f 217//256 254//299 237//278 253//298
f 217//256 218//255 220//259 254//299
f 234//300 235//279 237//278 254//299
f 220//259 255//301 234//300 254//299
f 220//259 221//258 223//262 255//301
f 231//272 232//271 234//275 255//302
f 223//265 225//264 231//272 255//302
f 238//277 239//282 251//297 252//296
f 256//303 157//143 156//134 251//297
f 239//282 241//285 256//303 251//297
f 257//304 158//145 157//143 256//303
f 241//285 243//288 257//304 256//303
f 258//305 113//147 158//145 257//304
f 243//288 259//306 258//305 257//304
f 261//307 260//308 258//305 259//306
f 246//309 262//310 261//307 259//306
f 243//288 244//287 246//309 259//306
f 264//311 263//312 261//307 262//310
f 249//295 265//313 264//314 262//315
f 246//292 247//291 249//295 262//315
f 267//316 266//317 264//314 265//313
f 269//318 268//319 267//316 265//313
f 249//295 250//294 269//318 265//313
f 126//164 159//163 268//319 269//318
f 250//294 104//131 126//164 269//318
f 260//308 270//320 160//166 127//165
f 113//147 258//305 260//308 127//165
f 271//321 129//168 160//166 270//320
f 263//312 272//322 271//321 270//320
f 260//308 261//307 263//312 270//320
f 274//323 273//324 271//321 272//322
f 266//325 275//326 274//323 272//322
f 263//312 264//311 266//325 272//322
f 277//327 276//328 274//323 275//326
f 279//329 278//330 277//331 275//332
f 266//317 267//316 279//329 275//332
f 281//333 280//334 278//330 279//329
f 267//316 268//319 281//333 279//329
f 162//184 161//183 280//334 281//333
f 268//319 159//163 162//184 281//333
f 273//324 282//335 163//186 141//185
f 129//168 271//321 273//324 141//185
f 177//203 164//188 163//186 282//335
f 276//328 176//204 177//203 282//335
f 273//324 274//323 276//328 282//335
f 177//203 178//202 143//189 164//188
f 178//208 179//207 144//191 143//190
f 179//207 182//214 145//192 144//191
f 182//212 183//211 165//194 145//193
f 183//211 280//334 161//183 165//194
f 183//211 184//210 278//330 280//334
f 184//210 181//209 277//331 278//330
f 181//209 176//204 276//328 277//327
f 225//264 227//268 229//269 231//272
