# pilowlava3D glyph 't' variant 2 — Vincent Wagner / Velvetyne, Free Art License
v 0.36130 3.42701 0.41824
v 4.10326 2.75005 0.41355
v 3.46396 2.65374 0.38354
v 0.26157 4.10573 0.37864
v 2.42560 4.18914 0.34371
v 2.57120 4.20562 0.34353
v 2.14291 0.24644 0.41017
v 0.52626 3.38459 0.44924
v 0.47943 3.63276 0.54812
v 0.27103 3.61784 0.45882
v 0.09685 3.57175 0.26388
v 0.27086 3.32883 0.25628
v 0.51443 3.19803 0.25692
v 3.92558 2.66344 0.46550
v 3.96890 2.49732 0.26833
v 4.19232 2.66883 0.25974
v 4.12723 2.91893 0.44405
v 3.89468 2.87702 0.55432
v 4.29248 2.91005 0.24735
v 3.40463 2.80661 0.41438
v 3.26515 2.76125 0.22924
v 3.40900 2.55496 0.23884
v 3.67709 2.44755 0.25836
v 3.65768 2.62162 0.44846
v 3.63301 2.83681 0.53482
v 0.41762 4.15619 0.41210
v 0.38374 4.30057 0.22460
v 0.16823 4.15984 0.23199
v 0.05255 3.88124 0.25438
v 0.22301 3.89534 0.44840
v 0.43275 3.91082 0.53474
v 2.37538 4.14987 0.27813
v 2.40533 3.96081 0.28762
v 2.48203 3.99489 0.33726
v 2.50963 4.32071 0.34585
v 2.26967 4.34428 0.32162
v 2.25760 4.28027 0.32034
v 2.24919 4.24190 0.26770
v 2.63359 4.14922 0.27740
v 2.77710 4.26503 0.25102
v 2.77206 4.30256 0.30028
v 2.56050 3.94204 0.28762
v 2.76247 4.36173 0.30087
v 1.40291 0.23576 0.25243
v 1.60933 0.10633 0.28437
v 1.63374 0.31233 0.46615
v 1.37999 0.42410 0.30887
v 2.20432 0.41085 0.44488
v 1.94374 0.45096 0.53811
v 1.91647 0.24241 0.45700
v 1.91197 0.05839 0.26502
v 2.22136 0.13201 0.26196
v 2.38251 0.36656 0.25597
v 2.24924 0.08206 -0.00000
v 2.44504 0.33813 -0.00000
v 2.49638 0.60556 -0.00000
v 2.41548 0.62033 0.25309
v 2.22882 0.63655 0.45603
v 1.96806 0.66640 0.56203
v 2.42245 0.84951 0.25136
v 2.24043 0.85874 0.45819
v 1.99146 0.88988 0.56640
v 1.72275 0.96201 0.51043
v 1.68542 0.74915 0.52231
v 2.25859 1.08219 0.45714
v 2.01938 1.11604 0.56175
v 1.76370 1.17687 0.49390
v 1.57259 1.24015 0.27826
v 1.51089 1.03948 0.29243
v 2.04939 1.34164 0.55044
v 1.80363 1.39349 0.47590
v 1.62650 1.44504 0.26656
v 1.47232 1.27561 -0.00000
v 1.84689 1.60861 0.45731
v 1.68356 1.65212 0.25351
v 1.74286 1.86209 0.24184
v 2.55666 2.38544 -0.00000
v 2.52733 2.82531 0.19971
v 2.51764 2.60596 0.20435
v 2.54079 3.04570 0.19671
v 2.45222 3.06108 0.35748
v 2.43219 2.84133 0.36692
v 2.58676 3.25938 -0.00000
v 2.55423 3.26534 0.19206
v 2.47395 3.28124 0.34478
v 2.37352 3.29937 0.39240
v 2.33507 3.08101 0.41143
v 2.56557 3.48485 0.18387
v 2.50148 3.49996 0.32727
v 2.41232 3.51630 0.37121
v 2.32251 3.53069 0.32694
v 2.27293 3.31680 0.34608
v 2.52896 3.71783 0.30225
v 2.44922 3.73093 0.34804
v 2.37195 3.74194 0.30371
v 2.31816 3.74798 0.17430
v 2.25301 3.53879 0.18368
v 2.36330 3.95756 0.16513
v 2.29384 3.75107 -0.00000
v 2.34727 4.12690 0.15623
v 2.33647 4.11791 -0.00000
v 2.23747 4.21400 0.15124
v 2.23354 4.20623 -0.00000
v 2.08185 4.17671 -0.00000
v 3.10997 3.74295 -0.00000
v 3.09761 3.90779 -0.00000
v 3.18004 3.57106 0.21176
v 3.16467 3.75157 0.20379
v 3.18985 3.38375 0.21941
v 3.33620 3.40784 0.41500
v 3.31004 3.59513 0.39908
v 3.20801 3.18717 0.22160
v 3.35744 3.21166 0.42223
v 3.58264 3.25408 0.55149
v 3.54756 3.45785 0.53685
v 3.21947 2.97913 0.22641
v 3.37360 3.00981 0.42916
v 3.60915 3.04793 0.55517
v 3.87154 3.09723 0.56312
v 3.83963 3.31533 0.55878
v 4.06839 3.37495 0.43685
v 4.00294 3.61285 0.43082
v 3.78769 3.53320 0.54490
v 4.10808 3.14314 0.44082
v 4.27675 3.16474 0.23539
v 4.22774 3.41886 0.23419
v 4.29640 3.43786 -0.00000
v 4.20726 3.70553 -0.00000
v 4.14948 3.67763 0.23616
v 4.23000 2.62237 -0.00000
v 3.98775 2.44292 -0.00000
v 3.68968 2.39218 -0.00000
v 3.38968 2.50253 -0.00000
v 4.04744 3.94910 -0.00000
v 3.79430 4.10910 0.20681
v 4.00081 3.91500 0.22469
v 3.70985 4.03661 0.38133
v 3.88193 3.83919 0.40788
v 3.57607 3.93840 0.48517
v 3.70319 3.74394 0.52160
v 3.41579 3.84676 0.47986
v 3.49333 3.65448 0.51797
v 3.27567 3.78331 0.37693
v 3.30257 4.03548 0.42579
v 3.21231 3.97120 0.34050
v 3.13527 3.92226 0.18614
v 3.10750 4.13571 0.28672
v 3.07271 4.08844 0.16029
v 3.05704 4.07185 -0.00000
v 2.94850 4.21998 0.14424
v 2.94385 4.21121 -0.00000
v 2.78075 4.23160 -0.00000
v 2.66187 4.12079 -0.00000
v 2.60011 3.70276 -0.00000
v 2.22334 3.54302 -0.00000
v 2.18900 3.32917 0.19235
v 2.12527 3.12007 0.19770
v 2.21797 3.10214 0.35893
v 2.05962 2.91017 0.20061
v 2.15929 2.89084 0.36974
v 2.29649 2.86584 0.43018
v 2.10211 2.67737 0.37844
v 2.25793 2.64858 0.44683
v 2.41205 2.62102 0.37561
v 2.22026 2.43117 0.46501
v 2.39381 2.40024 0.38525
v 2.50517 2.38701 0.20800
v 2.36913 2.18209 0.39544
v 2.49141 2.16761 0.21370
v 2.54988 2.16658 -0.00000
v 2.47813 1.94963 0.22071
v 1.40266 1.07917 -0.00000
v 1.44443 0.84261 0.31207
v 1.39706 0.63553 0.32092
v 1.65645 0.53578 0.52013
v 1.27432 0.43781 -0.00000
v 2.52179 1.29161 -0.00000
v 2.51674 1.07147 -0.00000
v 2.45322 1.51199 0.23750
v 2.44049 1.29243 0.24415
v 2.46329 1.73113 0.22799
v 2.32108 1.74687 0.42068
v 2.29971 1.52734 0.43559
v 2.34448 1.96440 0.40833
v 2.14334 1.99910 0.49935
v 2.11023 1.78159 0.51669
v 2.18079 2.21585 0.48155
v 1.98909 2.25361 0.40407
v 1.93816 2.03900 0.42013
v 2.04390 2.46521 0.39005
v 1.93051 2.49229 0.21128
v 1.86469 2.28311 0.22056
v 1.99419 2.70115 0.20620
v 1.94780 2.71377 -0.00000
v 1.88072 2.50705 -0.00000
v 2.59270 3.47977 -0.00000
v 2.57852 3.70723 0.17486
v 2.60043 3.92934 0.17060
v 2.65506 4.12668 0.16048
v 2.78044 4.23996 0.14903
v 2.95958 4.25311 0.24734
v 2.97244 4.29561 0.30422
v 3.15227 4.19388 0.36227
v 3.20808 4.25814 0.36389
v 2.99225 4.35113 0.30371
v 3.40433 4.11449 0.42932
v 3.49580 4.19624 0.34569
v 3.25891 4.31790 0.29570
v 3.29535 4.35688 0.16358
v 3.02379 4.41524 0.14466
v 3.00821 4.38959 0.25084
v 3.55571 4.25556 0.18955
v 3.31082 4.37352 -0.00000
v 3.03093 4.42670 -0.00000
v 2.75444 4.42859 0.14383
v 2.50960 4.42124 0.15273
v 2.51041 4.38856 0.26660
v 2.75586 4.40389 0.24281
v 2.27779 4.42275 0.15260
v 2.27545 4.39358 0.26168
v 2.03877 4.41968 0.15549
v 2.04778 4.38517 0.27117
v 2.05876 4.33973 0.32988
v 1.82434 4.35307 0.30752
v 1.85136 4.28967 0.38080
v 1.88171 4.20948 0.38207
v 2.06786 4.27944 0.32702
v 1.90259 4.13541 0.31154
v 2.07323 4.23099 0.27138
v 1.91919 4.07095 0.17186
v 2.07751 4.19119 0.15475
v 1.93472 4.04491 -0.00000
v 1.76279 3.92799 0.19165
v 1.65009 3.73859 -0.00000
v 1.79736 4.43558 -0.00000
v 2.03339 4.43936 -0.00000
v 1.80397 4.40544 0.17032
v 2.27782 4.44001 -0.00000
v 1.58363 4.38666 0.19054
v 1.60925 4.30858 0.34772
v 1.37697 4.36821 0.20410
v 1.39568 4.26240 0.38200
v 1.44089 4.13497 0.48773
v 1.65044 4.21258 0.43815
v 1.49506 3.99749 0.48919
v 1.69171 4.11039 0.43971
v 1.55011 3.87119 0.38548
v 1.72809 4.00892 0.35228
v 1.60875 3.77886 0.20810
v 1.37105 3.72395 0.40854
v 1.44971 3.62418 0.21585
v 1.49744 3.57809 -0.00000
v 1.28766 3.43848 0.23126
v 1.32877 3.38596 -0.00000
v 1.18114 4.35628 0.21325
v 0.98714 4.34481 0.21760
v 0.98926 4.19910 0.41981
v 1.18686 4.22587 0.40714
v 1.01688 3.99154 0.55404
v 1.22430 4.05867 0.52870
v 1.09326 3.75676 0.55511
v 1.29091 3.87693 0.52904
v 1.19717 3.56702 0.42879
v 0.89915 3.67385 0.56809
v 0.99355 3.43654 0.44960
v 1.06981 3.26902 0.24797
v 0.75876 3.37480 0.45972
v 0.79800 3.17875 0.25771
v 0.59552 4.33677 0.22607
v 0.79419 4.34730 0.22549
v 0.61327 4.17162 0.43416
v 0.80122 4.18329 0.43554
v 0.63747 3.92320 0.57058
v 0.82957 3.94535 0.56638
v 0.69434 3.63643 0.57850
v 0.35471 4.34825 -0.00000
v 0.12215 4.17587 -0.00000
v 0.04588 3.55205 -0.00000
v 0.23134 3.29088 -0.00000
v 0.50066 3.14010 -0.00000
v 1.80989 2.29877 -0.00000
v 1.80438 2.07214 0.23016
v 1.89087 1.82390 0.43809
v 2.07939 1.56343 0.53406
v 2.27776 1.30599 0.44804
v 2.43205 1.07235 0.25058
v 2.51042 0.84518 -0.00000
v 1.59404 0.03821 -0.00000
v 1.91310 0.00000 -0.00000
v 1.53775 1.47547 -0.00000
v 1.60475 1.67939 -0.00000
v 1.67360 1.88428 -0.00000
v 2.56371 2.60402 -0.00000
v 2.56972 2.82164 -0.00000
v 2.57869 3.04027 -0.00000
v 2.34505 3.95711 -0.00000
v 3.11609 3.56530 -0.00000
v 3.12173 3.37472 -0.00000
v 3.13812 3.17493 -0.00000
v 4.34903 3.16947 -0.00000
v 4.35242 2.89052 -0.00000
v 3.21938 2.73062 -0.00000
v 3.15898 2.96310 -0.00000
v 3.82710 4.14269 -0.00000
v 2.15356 3.33477 -0.00000
v 2.08575 3.12940 -0.00000
v 2.54216 1.94820 -0.00000
v 1.33134 0.87946 -0.00000
v 1.28088 0.66693 -0.00000
v 1.35336 0.20913 -0.00000
v 2.52914 1.51037 -0.00000
v 2.53505 1.72922 -0.00000
v 2.01788 2.92100 -0.00000
v 2.61687 3.92583 -0.00000
v 3.57677 4.28170 -0.00000
v 2.75400 4.44156 -0.00000
v 2.50768 4.43951 -0.00000
v 1.79245 3.89257 -0.00000
v 1.58038 4.43058 -0.00000
v 1.18251 4.42199 -0.00000
v 1.37891 4.42540 -0.00000
v 0.98820 4.41765 -0.00000
v 0.80859 3.11491 -0.00000
v 1.09851 3.20790 -0.00000
v 0.58089 4.40443 -0.00000
v 0.78935 4.41826 -0.00000
v 0.00000 3.87326 -0.00000
v 1.74289 2.09075 -0.00000
v 0.36130 3.42701 -0.41824
v 4.10326 2.75005 -0.41355
v 3.46396 2.65374 -0.38354
v 0.26157 4.10573 -0.37864
v 2.42560 4.18914 -0.34371
v 2.57120 4.20562 -0.34353
v 2.14291 0.24644 -0.41017
v 0.52626 3.38459 -0.44924
v 0.47943 3.63276 -0.54812
v 0.27103 3.61784 -0.45882
v 0.09685 3.57175 -0.26388
v 0.27086 3.32883 -0.25628
v 0.51443 3.19803 -0.25692
v 3.92558 2.66344 -0.46550
v 3.96890 2.49732 -0.26833
v 4.19232 2.66883 -0.25974
v 4.12723 2.91893 -0.44405
v 3.89468 2.87702 -0.55432
v 4.29248 2.91005 -0.24735
v 3.40463 2.80661 -0.41438
v 3.26515 2.76125 -0.22924
v 3.40900 2.55496 -0.23884
v 3.67709 2.44755 -0.25836
v 3.65768 2.62162 -0.44846
v 3.63301 2.83681 -0.53482
v 0.41762 4.15619 -0.41210
v 0.38374 4.30057 -0.22460
v 0.16823 4.15984 -0.23199
v 0.05255 3.88124 -0.25438
v 0.22301 3.89534 -0.44840
v 0.43275 3.91082 -0.53474
v 2.37538 4.14987 -0.27813
v 2.40533 3.96081 -0.28762
v 2.48203 3.99489 -0.33726
v 2.50963 4.32071 -0.34585
v 2.26967 4.34428 -0.32162
v 2.25760 4.28027 -0.32034
v 2.24919 4.24190 -0.26770
v 2.63359 4.14922 -0.27740
v 2.77710 4.26503 -0.25102
v 2.77206 4.30256 -0.30028
v 2.56050 3.94204 -0.28762
v 2.76247 4.36173 -0.30087
v 1.40291 0.23576 -0.25243
v 1.60933 0.10633 -0.28437
v 1.63374 0.31233 -0.46615
v 1.37999 0.42410 -0.30887
v 2.20432 0.41085 -0.44488
v 1.94374 0.45096 -0.53811
v 1.91647 0.24241 -0.45700
v 1.91197 0.05839 -0.26502
v 2.22136 0.13201 -0.26196
v 2.38251 0.36656 -0.25597
v 2.41548 0.62033 -0.25309
v 2.22882 0.63655 -0.45603
v 1.96806 0.66640 -0.56203
v 2.42245 0.84951 -0.25136
v 2.24043 0.85874 -0.45819
v 1.99146 0.88988 -0.56640
v 1.72275 0.96201 -0.51043
v 1.68542 0.74915 -0.52231
v 2.25859 1.08219 -0.45714
v 2.01938 1.11604 -0.56175
v 1.76370 1.17687 -0.49390
v 1.57259 1.24015 -0.27826
v 1.51089 1.03948 -0.29243
v 2.04939 1.34164 -0.55044
v 1.80363 1.39349 -0.47590
v 1.62650 1.44504 -0.26656
v 1.84689 1.60861 -0.45731
v 1.68356 1.65212 -0.25351
v 1.74286 1.86209 -0.24184
v 2.52733 2.82531 -0.19971
v 2.51764 2.60596 -0.20435
v 2.54079 3.04570 -0.19671
v 2.45222 3.06108 -0.35748
v 2.43219 2.84133 -0.36692
v 2.55423 3.26534 -0.19206
v 2.47395 3.28124 -0.34478
v 2.37352 3.29937 -0.39240
v 2.33507 3.08101 -0.41143
v 2.56557 3.48485 -0.18387
v 2.50148 3.49996 -0.32727
v 2.41232 3.51630 -0.37121
v 2.32251 3.53069 -0.32694
v 2.27293 3.31680 -0.34608
v 2.52896 3.71783 -0.30225
v 2.44922 3.73093 -0.34804
v 2.37195 3.74194 -0.30371
v 2.31816 3.74798 -0.17430
v 2.25301 3.53879 -0.18368
v 2.36330 3.95756 -0.16513
v 2.34727 4.12690 -0.15623
v 2.23747 4.21400 -0.15124
v 3.18004 3.57106 -0.21176
v 3.16467 3.75157 -0.20379
v 3.18985 3.38375 -0.21941
v 3.33620 3.40784 -0.41500
v 3.31004 3.59513 -0.39908
v 3.20801 3.18717 -0.22160
v 3.35744 3.21166 -0.42223
v 3.58264 3.25408 -0.55149
v 3.54756 3.45785 -0.53685
v 3.21947 2.97913 -0.22641
v 3.37360 3.00981 -0.42916
v 3.60915 3.04793 -0.55517
v 3.87154 3.09723 -0.56312
v 3.83963 3.31533 -0.55878
v 4.06839 3.37495 -0.43685
v 4.00294 3.61285 -0.43082
v 3.78769 3.53320 -0.54490
v 4.10808 3.14314 -0.44082
v 4.27675 3.16474 -0.23539
v 4.22774 3.41886 -0.23419
v 4.14948 3.67763 -0.23616
v 3.79430 4.10910 -0.20681
v 4.00081 3.91500 -0.22469
v 3.70985 4.03661 -0.38133
v 3.88193 3.83919 -0.40788
v 3.57607 3.93840 -0.48517
v 3.70319 3.74394 -0.52160
v 3.41579 3.84676 -0.47986
v 3.49333 3.65448 -0.51797
v 3.27567 3.78331 -0.37693
v 3.30257 4.03548 -0.42579
v 3.21231 3.97120 -0.34050
v 3.13527 3.92226 -0.18614
v 3.10750 4.13571 -0.28672
v 3.07271 4.08844 -0.16029
v 2.94850 4.21998 -0.14424
v 2.18900 3.32917 -0.19235
v 2.12527 3.12007 -0.19770
v 2.21797 3.10214 -0.35893
v 2.05962 2.91017 -0.20061
v 2.15929 2.89084 -0.36974
v 2.29649 2.86584 -0.43018
v 2.10211 2.67737 -0.37844
v 2.25793 2.64858 -0.44683
v 2.41205 2.62102 -0.37561
v 2.22026 2.43117 -0.46501
v 2.39381 2.40024 -0.38525
v 2.50517 2.38701 -0.20800
v 2.36913 2.18209 -0.39544
v 2.49141 2.16761 -0.21370
v 2.47813 1.94963 -0.22071
v 1.44443 0.84261 -0.31207
v 1.39706 0.63553 -0.32092
v 1.65645 0.53578 -0.52013
v 2.45322 1.51199 -0.23750
v 2.44049 1.29243 -0.24415
v 2.46329 1.73113 -0.22799
v 2.32108 1.74687 -0.42068
v 2.29971 1.52734 -0.43559
v 2.34448 1.96440 -0.40833
v 2.14334 1.99910 -0.49935
v 2.11023 1.78159 -0.51669
v 2.18079 2.21585 -0.48155
v 1.98909 2.25361 -0.40407
v 1.93816 2.03900 -0.42013
v 2.04390 2.46521 -0.39005
v 1.93051 2.49229 -0.21128
v 1.86469 2.28311 -0.22056
v 1.99419 2.70115 -0.20620
v 2.57852 3.70723 -0.17486
v 2.60043 3.92934 -0.17060
v 2.65506 4.12668 -0.16048
v 2.78044 4.23996 -0.14903
v 2.95958 4.25311 -0.24734
v 2.97244 4.29561 -0.30422
v 3.15227 4.19388 -0.36227
v 3.20808 4.25814 -0.36389
v 2.99225 4.35113 -0.30371
v 3.40433 4.11449 -0.42932
v 3.49580 4.19624 -0.34569
v 3.25891 4.31790 -0.29570
v 3.29535 4.35688 -0.16358
v 3.02379 4.41524 -0.14466
v 3.00821 4.38959 -0.25084
v 3.55571 4.25556 -0.18955
v 2.75444 4.42859 -0.14383
v 2.50960 4.42124 -0.15273
v 2.51041 4.38856 -0.26660
v 2.75586 4.40389 -0.24281
v 2.27779 4.42275 -0.15260
v 2.27545 4.39358 -0.26168
v 2.03877 4.41968 -0.15549
v 2.04778 4.38517 -0.27117
v 2.05876 4.33973 -0.32988
v 1.82434 4.35307 -0.30752
v 1.85136 4.28967 -0.38080
v 1.88171 4.20948 -0.38207
v 2.06786 4.27944 -0.32702
v 1.90259 4.13541 -0.31154
v 2.07323 4.23099 -0.27138
v 1.91919 4.07095 -0.17186
v 2.07751 4.19119 -0.15475
v 1.76279 3.92799 -0.19165
v 1.80397 4.40544 -0.17032
v 1.58363 4.38666 -0.19054
v 1.60925 4.30858 -0.34772
v 1.37697 4.36821 -0.20410
v 1.39568 4.26240 -0.38200
v 1.44089 4.13497 -0.48773
v 1.65044 4.21258 -0.43815
v 1.49506 3.99749 -0.48919
v 1.69171 4.11039 -0.43971
v 1.55011 3.87119 -0.38548
v 1.72809 4.00892 -0.35228
v 1.60875 3.77886 -0.20810
v 1.37105 3.72395 -0.40854
v 1.44971 3.62418 -0.21585
v 1.28766 3.43848 -0.23126
v 1.18114 4.35628 -0.21325
v 0.98714 4.34481 -0.21760
v 0.98926 4.19910 -0.41981
v 1.18686 4.22587 -0.40714
v 1.01688 3.99154 -0.55404
v 1.22430 4.05867 -0.52870
v 1.09326 3.75676 -0.55511
v 1.29091 3.87693 -0.52904
v 1.19717 3.56702 -0.42879
v 0.89915 3.67385 -0.56809
v 0.99355 3.43654 -0.44960
v 1.06981 3.26902 -0.24797
v 0.75876 3.37480 -0.45972
v 0.79800 3.17875 -0.25771
v 0.59552 4.33677 -0.22607
v 0.79419 4.34730 -0.22549
v 0.61327 4.17162 -0.43416
v 0.80122 4.18329 -0.43554
v 0.63747 3.92320 -0.57058
v 0.82957 3.94535 -0.56638
v 0.69434 3.63643 -0.57850
v 1.80438 2.07214 -0.23016
v 1.89087 1.82390 -0.43809
v 2.07939 1.56343 -0.53406
v 2.27776 1.30599 -0.44804
v 2.43205 1.07235 -0.25058
vn -0.42938 -0.51543 0.74160
vn -0.19791 -0.56081 0.80394
vn -0.23749 -0.20105 0.95036
vn -0.53279 -0.24134 0.81111
vn -0.82849 -0.33015 0.45233
vn -0.58573 -0.67758 0.44476
vn -0.24402 -0.85102 0.46500
vn 0.57406 -0.38455 0.72289
vn 0.25866 -0.52350 0.81182
vn 0.35127 -0.82049 0.45100
vn 0.72338 -0.53535 0.43603
vn 0.61658 -0.10084 0.78081
vn 0.20976 -0.17492 0.96198
vn 0.88351 -0.13344 0.44901
vn -0.48323 -0.51117 0.71077
vn -0.59167 -0.27263 0.75868
vn -0.83210 -0.35294 0.42783
vn -0.57931 -0.69342 0.42845
vn -0.11607 -0.88497 0.45095
vn -0.16111 -0.57194 0.80432
vn -0.22267 -0.24033 0.94481
vn -0.50679 0.50059 0.70183
vn -0.26435 0.59988 0.75516
vn -0.33227 0.84157 0.42585
vn -0.68696 0.59862 0.41200
vn -0.88837 0.12944 0.44050
vn -0.57590 0.15557 0.80258
vn -0.26758 0.20715 0.94100
vn -0.32593 -0.20784 0.92227
vn -0.72224 -0.44500 0.52947
vn -0.80213 0.01841 0.59686
vn -0.02544 -0.06030 0.99786
vn 0.02457 0.01538 0.99958
vn -0.03369 -0.00386 0.99942
vn -0.22161 -0.73186 0.64441
vn -0.24752 -0.84283 0.47788
vn 0.32171 -0.19444 0.92666
vn 0.69830 -0.47024 0.53967
vn 0.28139 -0.82856 0.48405
vn 0.24237 -0.70689 0.66450
vn 0.76969 -0.15743 0.61870
vn 0.07940 0.02322 0.99657
vn -0.47852 -0.40541 0.77888
vn -0.34373 -0.77775 0.52627
vn -0.33219 -0.38110 0.86279
vn -0.79042 -0.18119 0.58516
vn 0.35999 -0.50637 0.78358
vn 0.50146 -0.24238 0.83054
vn 0.09376 -0.19915 0.97547
vn 0.05136 -0.52784 0.84779
vn 0.04265 -0.87653 0.47946
vn 0.49737 -0.72198 0.48101
vn 0.81353 -0.31877 0.48637
vn 0.55719 -0.83038 0.00097
vn 0.92370 -0.38312 0.00051
vn 0.99492 -0.10070 -0.00063
vn 0.86152 -0.08256 0.50097
vn 0.56121 -0.07356 0.82440
vn 0.11622 -0.04235 0.99232
vn 0.86449 -0.03812 0.50120
vn 0.58394 -0.03802 0.81090
vn 0.10670 0.01237 0.99421
vn -0.43669 0.14434 0.88796
vn -0.39126 0.08609 0.91625
vn 0.59831 -0.02611 0.80084
vn 0.08978 0.04033 0.99514
vn -0.48192 0.15877 0.86171
vn -0.80828 0.25605 0.53021
vn -0.78490 0.27175 0.55686
vn 0.07648 0.06234 0.99512
vn -0.51150 0.17004 0.84229
vn -0.82508 0.25092 0.50624
vn -0.95526 0.29576 0.00002
vn -0.88972 0.28928 0.35316
vn -0.53340 0.18256 0.82593
vn -0.83620 0.25946 0.48317
vn -0.95360 0.30108 0.00003
vn -0.84752 0.26637 0.45908
vn -0.95230 0.30516 0.00004
vn 0.99913 -0.04159 0.00001
vn 0.93234 -0.04450 0.35883
vn 0.92546 -0.04038 0.37668
vn 0.99928 -0.03806 -0.00002
vn 0.99883 -0.04831 0.00001
vn 0.93868 -0.05024 0.34112
vn 0.68147 -0.02476 0.73143
vn 0.67334 -0.02525 0.73890
vn 0.99913 -0.04165 -0.00001
vn 0.94711 -0.04700 0.31745
vn 0.69527 -0.02199 0.71842
vn 0.43079 0.01032 0.90239
vn 0.42255 0.00474 0.90633
vn 0.95784 -0.04651 0.28351
vn 0.72237 -0.01710 0.69130
vn 0.45555 0.02060 0.88997
vn -0.42083 0.17612 0.88988
vn -0.67774 0.23181 0.69781
vn -0.65149 0.21836 0.72655
vn -0.39421 0.15829 0.90529
vn 0.75230 -0.03840 0.65771
vn 0.49222 0.00292 0.87047
vn -0.48389 0.15351 0.86156
vn -0.72868 0.20213 0.65434
vn -0.93284 0.25062 0.25885
vn -0.91011 0.28756 0.29834
vn -0.97447 0.06108 0.21607
vn -0.99686 0.07922 -0.00022
vn -0.96271 0.27053 0.00005
vn -0.97781 -0.08869 0.18980
vn -0.99745 -0.07133 -0.00053
vn -0.63742 -0.77051 0.00026
vn -0.61834 -0.76795 0.16704
vn -0.99903 -0.04404 0.00009
vn -0.89894 -0.04859 0.43537
vn -0.91138 -0.09159 0.40124
vn -0.99664 -0.08195 0.00047
vn -0.99820 -0.05990 0.00000
vn -0.88995 -0.05602 0.45260
vn -0.66693 -0.04062 0.74401
vn -0.69038 -0.04263 0.72219
vn -0.99687 -0.07911 0.00010
vn -0.88837 -0.06427 0.45461
vn -0.65599 -0.03861 0.75379
vn -0.27153 0.00599 0.96241
vn -0.28675 0.02302 0.95773
vn -0.88635 -0.12382 0.44614
vn -0.64000 -0.09119 0.76295
vn -0.25748 -0.05629 0.96464
vn 0.21046 0.01544 0.97748
vn 0.20535 0.07984 0.97543
vn 0.60770 0.15391 0.77911
vn 0.56784 0.27503 0.77584
vn 0.18351 0.14615 0.97209
vn 0.61670 0.08660 0.78242
vn 0.87694 0.11400 0.46688
vn 0.85738 0.21416 0.46801
vn 0.96896 0.24721 0.00016
vn 0.90414 0.42723 0.00023
vn 0.80467 0.37688 0.45877
vn 0.99308 0.11745 -0.00071
vn 0.98343 -0.18129 -0.00142
vn 0.78768 -0.61608 -0.00093
vn 0.39608 -0.91822 -0.00020
vn -0.10433 -0.99454 0.00062
vn -0.61429 -0.78908 0.00130
vn -0.91076 -0.41292 0.00115
vn -0.98855 -0.15088 0.00057
vn 0.75935 0.65068 -0.00003
vn 0.58583 0.81043 -0.00018
vn 0.54790 0.74623 0.37809
vn 0.68745 0.58575 0.42932
vn 0.41541 0.58335 0.69795
vn 0.50042 0.43717 0.74730
vn 0.09465 0.32189 0.94204
vn 0.15047 0.23292 0.96079
vn -0.36551 0.04989 0.92947
vn -0.31747 0.04274 0.94731
vn -0.72230 -0.08301 0.68658
vn -0.42035 0.00219 0.90736
vn -0.74879 -0.20601 0.62998
vn -0.91429 -0.21470 0.34348
vn -0.69723 -0.45646 0.55273
vn -0.82585 -0.49272 0.27422
vn -0.87625 -0.48185 -0.00060
vn -0.98003 -0.19887 -0.00032
vn -0.43467 -0.87519 0.21240
vn -0.75519 -0.65551 0.00021
vn -0.95067 0.31019 -0.00000
vn -0.95187 0.30649 0.00003
vn -0.90034 0.28230 0.33119
vn -0.95231 0.30512 0.00003
vn -0.89210 0.28164 0.35334
vn -0.63600 0.21387 0.74146
vn -0.88527 0.28286 0.36918
vn -0.62669 0.20973 0.75051
vn -0.37807 0.14380 0.91454
vn -0.38281 0.15003 0.91157
vn -0.61738 0.20675 0.75901
vn -0.37319 0.14173 0.91687
vn 0.42055 -0.00096 0.90727
vn 0.41978 0.00015 0.90762
vn 0.66476 -0.02223 0.74673
vn 0.41751 -0.00062 0.90867
vn 0.65588 -0.02542 0.75443
vn 0.91743 -0.04557 0.39529
vn 0.64570 -0.02561 0.76317
vn 0.90815 -0.04614 0.41609
vn 0.99905 -0.04348 0.00001
vn 0.99908 -0.04299 0.00000
vn 0.89874 -0.04414 0.43626
vn 0.99902 -0.04433 0.00001
vn -0.87823 0.31299 0.36159
vn -0.89362 0.27106 0.35773
vn -0.77976 0.22754 0.58327
vn -0.99017 0.13986 0.00019
vn -0.79562 0.08395 0.59995
vn -0.36392 -0.07231 0.92862
vn -0.99360 -0.11289 -0.00252
vn -0.81406 -0.58077 -0.00204
vn -0.79222 -0.55872 0.24538
vn 0.99938 -0.03518 -0.00001
vn 0.88419 -0.03165 0.46605
vn 0.87774 -0.03142 0.47811
vn 0.99945 -0.03328 -0.00001
vn 0.99930 -0.03736 0.00000
vn 0.89095 -0.03520 0.45274
vn 0.62796 -0.01071 0.77817
vn 0.61963 -0.00738 0.78486
vn 0.63589 -0.01973 0.77153
vn 0.41460 0.00659 0.90998
vn 0.41404 0.01306 0.91016
vn 0.41530 -0.00025 0.90968
vn -0.34712 0.14355 0.92677
vn -0.59082 0.20424 0.78052
vn -0.57498 0.19677 0.79416
vn -0.33092 0.13914 0.93334
vn -0.36186 0.14525 0.92085
vn -0.60469 0.20925 0.76849
vn -0.87209 0.28191 0.39998
vn -0.86615 0.27629 0.41646
vn -0.87925 0.28048 0.38504
vn -0.95153 0.30755 0.00000
vn -0.95091 0.30947 0.00000
vn -0.95111 0.30885 0.00000
vn 0.99922 -0.03962 0.00000
vn 0.99793 -0.06426 0.00001
vn 0.96613 -0.07014 0.24834
vn 0.98622 -0.16547 -0.00014
vn 0.96228 -0.17688 0.20669
vn 0.85932 -0.51143 -0.00022
vn 0.83968 -0.51690 0.16656
vn 0.67736 -0.73566 -0.00013
vn 0.66584 -0.73277 0.14038
vn -0.10165 -0.98066 0.16727
vn -0.12021 -0.99275 0.00007
vn -0.35993 -0.78907 0.49782
vn -0.31225 -0.69828 0.64413
vn -0.44130 -0.13108 0.88774
vn -0.03248 0.45180 0.89153
vn -0.12103 0.06450 0.99055
vn 0.02445 0.39592 0.91796
vn 0.31404 0.70975 0.63059
vn 0.21328 0.81557 0.53791
vn 0.26563 0.93463 0.23642
vn 0.12297 0.97565 0.18162
vn 0.10077 0.88512 0.45432
vn 0.07571 0.77906 0.62236
vn 0.40575 0.85942 0.31107
vn 0.41995 0.90755 -0.00011
vn 0.26706 0.96368 -0.00009
vn 0.12345 0.99235 -0.00004
vn 0.01712 0.99985 0.00001
vn 0.01363 0.98479 0.17324
vn -0.00649 0.99998 -0.00003
vn -0.00740 0.98230 0.18716
vn -0.00251 0.88939 0.45715
vn 0.01235 0.89985 0.43603
vn 0.00325 0.77557 0.63125
vn 0.01396 0.79646 0.60453
vn -0.00230 0.98099 0.19406
vn 0.00079 0.88726 0.46127
vn 0.00476 0.77392 0.63327
vn -0.02957 0.97550 0.21801
vn -0.02457 0.88075 0.47295
vn -0.00896 0.77689 0.62957
vn -0.05148 0.84829 0.52702
vn -0.03435 0.74239 0.66908
vn 0.14121 0.00757 0.98995
vn 0.23956 0.07820 0.96773
vn 0.25346 -0.70957 0.65747
vn 0.47552 -0.54578 0.68993
vn 0.54056 -0.63959 0.54655
vn 0.30173 -0.81289 0.49816
vn 0.63134 -0.72423 0.27729
vn 0.37903 -0.90052 0.21308
vn 0.13622 -0.97563 0.17204
vn 0.67607 -0.73684 -0.00006
vn 0.41769 -0.90859 -0.00016
vn 0.16693 -0.98597 -0.00057
vn 0.66223 -0.66635 0.34268
vn 0.71610 -0.69799 -0.00029
vn -0.02021 0.99980 -0.00004
vn -0.03902 0.99924 0.00013
vn -0.05307 0.96041 0.27350
vn -0.00136 1.00000 -0.00004
vn -0.04683 0.99890 0.00029
vn -0.06190 0.93887 0.33865
vn -0.06083 0.79926 0.59790
vn -0.05422 0.91835 0.39203
vn -0.05413 0.75448 0.65409
vn 0.07278 0.37272 0.92509
vn 0.09174 0.41604 0.90471
vn 0.33027 -0.19090 0.92438
vn 0.37151 -0.19727 0.90723
vn 0.53440 -0.53662 0.65303
vn 0.55884 -0.56614 0.60596
vn 0.65287 -0.64871 0.39107
vn 0.51591 -0.50019 0.69545
vn 0.66221 -0.61791 0.42386
vn 0.73694 -0.67596 -0.00008
vn 0.71838 -0.69565 -0.00010
vn 0.61733 -0.64380 0.45212
vn 0.69204 -0.72186 -0.00022
vn -0.04068 0.99917 0.00017
vn -0.03467 0.99940 0.00001
vn -0.04451 0.90237 0.42865
vn -0.01125 0.99994 0.00006
vn -0.01716 0.89179 0.45212
vn -0.02982 0.68501 0.72792
vn -0.05012 0.71805 0.69418
vn 0.02478 0.29429 0.95539
vn 0.04660 0.33252 0.94194
vn 0.21617 -0.18306 0.95904
vn 0.28475 -0.18699 0.94019
vn 0.44939 -0.48678 0.74906
vn 0.12798 -0.18559 0.97426
vn 0.28674 -0.52665 0.80026
vn 0.41954 -0.77035 0.48016
vn 0.05594 -0.56624 0.82234
vn 0.10702 -0.86551 0.48932
vn 0.12159 -0.99258 0.00031
vn 0.47380 -0.88063 0.00003
vn -0.02234 0.99975 -0.00000
vn -0.13320 0.99109 0.00063
vn -0.11121 0.88147 0.45896
vn -0.02053 0.88605 0.46314
vn -0.09557 0.63473 0.76681
vn -0.02462 0.65617 0.75421
vn -0.08198 0.24741 0.96544
vn 0.00849 0.26709 0.96364
vn -0.02125 -0.19709 0.98015
vn -0.39644 0.91806 -0.00040
vn -0.77740 0.62901 -0.00140
vn -0.99173 0.12838 -0.00031
vn -0.92847 -0.37140 0.00006
vn -0.66344 -0.74823 0.00036
vn -0.28498 -0.95853 0.00041
vn -0.95193 0.30630 -0.00001
vn -0.95340 0.30170 0.00000
vn -0.85876 0.26868 0.43628
vn -0.55519 0.19061 0.80959
vn -0.28831 0.12715 0.94906
vn -0.31101 0.13391 0.94093
vn 0.41184 0.01457 0.91114
vn 0.61006 -0.01337 0.79224
vn 0.87055 -0.03244 0.49100
vn 0.99924 -0.03903 -0.00017
vn 0.99954 -0.03029 -0.00002
vn -0.35905 -0.93332 0.00055
vn 0.05369 -0.99856 -0.00021
vn -0.53411 -0.24567 -0.80893
vn -0.24150 -0.20515 -0.94847
vn -0.20307 -0.56049 -0.80288
vn -0.43225 -0.51476 -0.74039
vn -0.58605 -0.67467 -0.44873
vn -0.82741 -0.33073 -0.45389
vn -0.24588 -0.84878 -0.46809
vn 0.72021 -0.53617 -0.44025
vn 0.35182 -0.82001 -0.45145
vn 0.26270 -0.52553 -0.80920
vn 0.57313 -0.38855 -0.72149
vn 0.21350 -0.17767 -0.96065
vn 0.61640 -0.10531 -0.78036
vn 0.88081 -0.13515 -0.45377
vn -0.57565 -0.69508 -0.43069
vn -0.82975 -0.35516 -0.43056
vn -0.58947 -0.27610 -0.75914
vn -0.48022 -0.51417 -0.71065
vn -0.16338 -0.57422 -0.80223
vn -0.11587 -0.88531 -0.45033
vn -0.22514 -0.24294 -0.94355
vn -0.68739 0.59359 -0.41850
vn -0.33461 0.83770 -0.43161
vn -0.26853 0.59596 -0.75678
vn -0.50952 0.49526 -0.70363
vn -0.57685 0.15849 -0.80132
vn -0.88756 0.13066 -0.44178
vn -0.26993 0.20942 -0.93983
vn -0.59032 -0.00455 -0.80716
vn -0.80613 0.01950 -0.59142
vn -0.72255 -0.44334 -0.53044
vn -0.56744 -0.39186 -0.72420
vn -0.03907 -0.00471 -0.99923
vn 0.02375 0.01535 -0.99960
vn -0.05581 0.00016 -0.99844
vn -0.24474 -0.84055 -0.48329
vn -0.21601 -0.72783 -0.65085
vn 0.22393 -0.70402 -0.67395
vn 0.27298 -0.82770 -0.49030
vn 0.69326 -0.47144 -0.54509
vn 0.31503 -0.19386 -0.92907
vn 0.77084 -0.15702 -0.61737
vn 0.36055 -0.08406 -0.92894
vn 0.08346 0.02376 -0.99623
vn -0.79909 -0.19252 -0.56956
vn -0.34966 -0.39079 -0.85148
vn -0.35676 -0.78292 -0.50966
vn -0.72358 -0.53954 -0.43050
vn 0.05389 -0.52911 -0.84684
vn 0.09588 -0.20152 -0.97478
vn 0.50050 -0.24580 -0.83011
vn 0.35987 -0.50753 -0.78288
vn 0.49619 -0.72132 -0.48321
vn 0.04357 -0.87585 -0.48062
vn 0.81166 -0.32022 -0.48854
vn 0.86105 -0.08274 -0.50175
vn 0.56122 -0.07350 -0.82440
vn 0.11635 -0.04153 -0.99234
vn 0.58403 -0.03799 -0.81084
vn 0.86444 -0.03819 -0.50128
vn 0.10676 0.01259 -0.99421
vn -0.39139 0.08737 -0.91607
vn -0.43655 0.14597 -0.88776
vn 0.08981 0.04007 -0.99515
vn 0.59832 -0.02613 -0.80083
vn -0.48186 0.15888 -0.86172
vn -0.78456 0.27344 -0.55651
vn -0.80814 0.25666 -0.53013
vn -0.51153 0.17042 -0.84220
vn 0.07636 0.06269 -0.99511
vn -0.82506 0.25096 -0.50626
vn -0.88952 0.28993 -0.35312
vn -0.83609 0.25999 -0.48306
vn -0.53335 0.18311 -0.82584
vn -0.84742 0.26673 -0.45905
vn 0.92543 -0.04062 -0.37673
vn 0.93231 -0.04474 -0.35887
vn 0.93869 -0.05022 -0.34109
vn 0.67330 -0.02540 -0.73893
vn 0.68147 -0.02477 -0.73143
vn 0.94706 -0.04761 -0.31751
vn 0.69520 -0.02246 -0.71847
vn 0.42252 0.00464 -0.90634
vn 0.43077 0.01030 -0.90240
vn 0.72231 -0.01850 -0.69132
vn 0.95777 -0.04764 -0.28356
vn 0.45565 0.02022 -0.88993
vn -0.39413 0.15885 -0.90522
vn -0.65135 0.21894 -0.72651
vn -0.67748 0.23268 -0.69777
vn -0.42090 0.17563 -0.88994
vn 0.49127 0.00272 -0.87100
vn 0.75200 -0.03885 -0.65802
vn -0.73022 0.20200 -0.65267
vn -0.48850 0.15333 -0.85898
vn -0.90980 0.28863 -0.29826
vn -0.93263 0.25110 -0.25915
vn -0.97465 0.06060 -0.21535
vn -0.97816 -0.08905 -0.18780
vn -0.61825 -0.76787 -0.16777
vn -0.91100 -0.09130 -0.40217
vn -0.89919 -0.04762 -0.43496
vn -0.89001 -0.05567 -0.45253
vn -0.69043 -0.04234 -0.72216
vn -0.66750 -0.03962 -0.74356
vn -0.88840 -0.06428 -0.45455
vn -0.65588 -0.03867 -0.75388
vn -0.28714 0.02353 -0.95760
vn -0.27130 0.00583 -0.96248
vn -0.63980 -0.09137 -0.76309
vn -0.88653 -0.12398 -0.44574
vn -0.25757 -0.05647 -0.96461
vn 0.20519 0.07985 -0.97546
vn 0.21022 0.01558 -0.97753
vn 0.18429 0.14585 -0.97199
vn 0.56863 0.27465 -0.77539
vn 0.60755 0.15398 -0.77921
vn 0.61670 0.08676 -0.78240
vn 0.85751 0.21416 -0.46778
vn 0.87662 0.11422 -0.46744
vn 0.80504 0.37667 -0.45830
vn 0.68686 0.58614 -0.42973
vn 0.54722 0.74646 -0.37861
vn 0.49997 0.43736 -0.74749
vn 0.41424 0.58370 -0.69836
vn 0.15147 0.23232 -0.96077
vn 0.09359 0.32231 -0.94200
vn -0.31636 0.04165 -0.94773
vn -0.36675 0.05059 -0.92894
vn -0.72210 -0.08307 -0.68678
vn -0.75440 -0.20089 -0.62492
vn -0.42589 0.00586 -0.90475
vn -0.91473 -0.21392 -0.34280
vn -0.82929 -0.48875 -0.27093
vn -0.70292 -0.45179 -0.54935
vn -0.43781 -0.87368 -0.21214
vn -0.90028 0.28253 -0.33116
vn -0.89209 0.28161 -0.35336
vn -0.63599 0.21377 -0.74150
vn -0.62668 0.20987 -0.75049
vn -0.88524 0.28300 -0.36913
vn -0.38280 0.15008 -0.91156
vn -0.37809 0.14367 -0.91455
vn -0.37313 0.14208 -0.91684
vn -0.61734 0.20703 -0.75897
vn 0.66473 -0.02236 -0.74675
vn 0.41979 0.00017 -0.90762
vn 0.42057 -0.00077 -0.90726
vn 0.65588 -0.02561 -0.75443
vn 0.41750 -0.00071 -0.90868
vn 0.91743 -0.04566 -0.39527
vn 0.90813 -0.04646 -0.41610
vn 0.64567 -0.02595 -0.76318
vn 0.89872 -0.04442 -0.43627
vn -0.77964 0.22830 -0.58312
vn -0.89354 0.27128 -0.35776
vn -0.87806 0.31344 -0.36163
vn -0.79683 0.08260 -0.59853
vn -0.36560 -0.07323 -0.92789
vn 0.87775 -0.03146 -0.47808
vn 0.88416 -0.03191 -0.46610
vn 0.89094 -0.03535 -0.45275
vn 0.61958 -0.00765 -0.78490
vn 0.62794 -0.01079 -0.77818
vn 0.63588 -0.01977 -0.77153
vn 0.41404 0.01302 -0.91017
vn 0.41462 0.00668 -0.90997
vn 0.41531 -0.00023 -0.90968
vn -0.33076 0.13970 -0.93332
vn -0.57493 0.19691 -0.79415
vn -0.59074 0.20449 -0.78052
vn -0.34712 0.14346 -0.92678
vn -0.60463 0.20938 -0.76849
vn -0.36187 0.14525 -0.92085
vn -0.86608 0.27653 -0.41646
vn -0.87201 0.28215 -0.39999
vn -0.87924 0.28055 -0.38501
vn 0.96615 -0.07040 -0.24821
vn 0.96250 -0.17686 -0.20571
vn 0.84010 -0.51675 -0.16497
vn 0.66660 -0.73231 -0.13913
vn -0.10108 -0.98046 -0.16874
vn -0.35907 -0.78834 -0.49959
vn -0.30589 -0.69864 -0.64678
vn -0.44203 -0.13106 -0.88737
vn -0.12357 0.06455 -0.99023
vn -0.03358 0.45042 -0.89219
vn 0.02602 0.39579 -0.91797
vn 0.21213 0.81557 -0.53838
vn 0.31460 0.70956 -0.63051
vn 0.09939 0.88517 -0.45454
vn 0.12381 0.97559 -0.18140
vn 0.26536 0.93474 -0.23632
vn 0.07076 0.77898 -0.62305
vn 0.40516 0.85966 -0.31118
vn 0.01348 0.98479 -0.17325
vn -0.00749 0.98229 -0.18723
vn 0.01084 0.89974 -0.43630
vn -0.00422 0.88921 -0.45748
vn 0.01157 0.79616 -0.60498
vn 0.00038 0.77516 -0.63176
vn 0.00068 0.88706 -0.46165
vn -0.00209 0.98094 -0.19430
vn 0.00418 0.77364 -0.63361
vn -0.02234 0.88040 -0.47370
vn -0.02864 0.97543 -0.21844
vn -0.00724 0.77634 -0.63027
vn -0.02840 0.74290 -0.66880
vn -0.04881 0.84831 -0.52725
vn 0.14490 0.00623 -0.98943
vn 0.24311 0.07722 -0.96692
vn 0.30585 -0.81073 -0.49918
vn 0.54251 -0.63852 -0.54588
vn 0.47771 -0.54544 -0.68868
vn 0.25756 -0.70786 -0.65772
vn 0.38188 -0.89904 -0.21422
vn 0.63231 -0.72335 -0.27739
vn 0.13535 -0.97523 -0.17495
vn 0.66106 -0.66740 -0.34290
vn -0.05321 0.96032 -0.27376
vn -0.06123 0.93915 -0.33801
vn -0.06013 0.79949 -0.59766
vn -0.05218 0.75553 -0.65303
vn -0.05208 0.91897 -0.39088
vn 0.09271 0.41588 -0.90468
vn 0.07300 0.37310 -0.92491
vn 0.37084 -0.19761 -0.90743
vn 0.33035 -0.19083 -0.92437
vn 0.55820 -0.56664 -0.60608
vn 0.53487 -0.53647 -0.65277
vn 0.65313 -0.64861 -0.39081
vn 0.66149 -0.61870 -0.42384
vn 0.51557 -0.50064 -0.69538
vn 0.61717 -0.64359 -0.45264
vn -0.04417 0.90257 -0.42826
vn -0.01699 0.89173 -0.45224
vn -0.04965 0.71851 -0.69375
vn -0.02957 0.68456 -0.72835
vn 0.04687 0.33278 -0.94184
vn 0.02487 0.29390 -0.95551
vn 0.28555 -0.18624 -0.94009
vn 0.21705 -0.18403 -0.95866
vn 0.44970 -0.48761 -0.74834
vn 0.28588 -0.52857 -0.79930
vn 0.12737 -0.18766 -0.97394
vn 0.41969 -0.77023 -0.48022
vn 0.10689 -0.86623 -0.48809
vn 0.05521 -0.56734 -0.82163
vn -0.02016 0.88603 -0.46318
vn -0.11096 0.88185 -0.45830
vn -0.02304 0.65633 -0.75412
vn -0.09568 0.63497 -0.76659
vn 0.00978 0.26755 -0.96349
vn -0.08191 0.24772 -0.96536
vn -0.02169 -0.19713 -0.98014
vn -0.85879 0.26856 -0.43629
vn -0.55518 0.19062 -0.80959
vn -0.31099 0.13392 -0.94093
vn -0.28840 0.12719 -0.94903
vn 0.61007 -0.01339 -0.79224
vn 0.41183 0.01448 -0.91115
vn 0.87057 -0.03240 -0.49098
f 1//1 8//2 9//3 10//4
f 1//1 10//4 11//5 12//6
f 1//1 12//6 13//7 8//2
f 2//8 14//9 15//10 16//11
f 2//8 17//12 18//13 14//9
f 2//8 16//11 19//14 17//12
f 3//15 20//16 21//17 22//18
f 3//15 22//18 23//19 24//20
f 3//15 24//20 25//21 20//16
f 4//22 26//23 27//24 28//25
f 4//22 28//25 29//26 30//27
f 4//22 30//27 31//28 26//23
f 5//29 32//30 33//31 34//32
f 5//29 35//33 36//34 37//34
f 5//29 37//35 38//36 32//30
f 6//37 39//38 40//39 41//40
f 6//37 34//32 42//41 39//38
f 6//37 41//42 43//42 35//33
f 44//43 45//44 46//45 47//46
f 7//47 48//48 49//49 50//50
f 7//47 50//50 51//51 52//52
f 7//47 52//52 53//53 48//48
f 53//53 52//52 54//54 55//55
f 53//53 55//55 56//56 57//57
f 53//53 57//57 58//58 48//48
f 58//58 59//59 49//49 48//48
f 58//58 57//57 60//60 61//61
f 58//58 61//61 62//62 59//59
f 62//62 63//63 64//64 59//59
f 62//62 61//61 65//65 66//66
f 62//62 66//66 67//67 63//63
f 67//67 68//68 69//69 63//63
f 67//67 66//66 70//70 71//71
f 67//67 71//71 72//72 68//68
f 72//72 290//73 73//74 68//68
f 72//72 71//71 74//75 75//76
f 72//72 75//76 291//77 290//73
f 291//77 75//76 76//78 292//79
f 294//80 78//81 79//82 293//83
f 294//80 295//84 80//85 78//81
f 80//85 81//86 82//87 78//81
f 80//85 295//84 83//88 84//89
f 80//85 84//89 85//90 81//86
f 85//90 86//91 87//92 81//86
f 85//90 84//89 88//93 89//94
f 85//90 89//94 90//95 86//91
f 90//96 91//97 92//98 86//99
f 90//95 89//94 93//100 94//101
f 90//96 94//102 95//103 91//97
f 95//103 96//104 97//105 91//97
f 95//103 94//102 34//32 33//31
f 95//103 33//31 98//106 96//104
f 98//106 296//107 99//108 96//104
f 98//106 33//31 32//30 100//109
f 98//106 100//109 101//110 296//107
f 101//111 100//112 102//112 103//111
f 297//113 107//114 108//115 105//116
f 297//113 298//117 109//118 107//114
f 109//118 110//119 111//120 107//114
f 109//118 298//117 299//121 112//122
f 109//118 112//122 113//123 110//119
f 113//123 114//124 115//125 110//119
f 113//123 112//122 116//126 117//127
f 113//123 117//127 118//128 114//124
f 118//128 119//129 120//130 114//124
f 118//128 117//127 20//16 25//21
f 118//128 25//21 18//13 119//129
f 120//130 121//131 122//132 123//133
f 120//130 123//133 115//125 114//124
f 120//130 119//129 124//134 121//131
f 124//134 125//135 126//136 121//131
f 124//134 119//129 18//13 17//12
f 124//134 17//12 19//14 125//135
f 126//136 127//137 128//138 129//139
f 126//136 129//139 122//132 121//131
f 126//136 125//135 300//140 127//137
f 300//140 125//135 19//14 301//141
f 301//141 19//14 16//11 130//142
f 130//142 16//11 15//10 131//143
f 131//143 15//10 23//19 132//144
f 132//144 23//19 22//18 133//145
f 133//145 22//18 21//17 302//146
f 302//146 21//17 116//126 303//147
f 134//148 304//149 135//150 136//151
f 134//148 136//151 129//139 128//138
f 136//151 135//150 137//152 138//153
f 136//151 138//153 122//132 129//139
f 138//153 137//152 139//154 140//155
f 138//153 140//155 123//133 122//132
f 140//155 139//154 141//156 142//157
f 140//155 142//157 115//125 123//133
f 142//157 141//156 143//158 111//120
f 142//157 111//120 110//119 115//125
f 143//158 141//156 144//159 145//160
f 143//158 145//160 146//161 108//115
f 143//158 108//115 107//114 111//120
f 146//161 145//160 147//162 148//163
f 146//161 148//163 149//164 106//165
f 146//161 106//165 105//116 108//115
f 149//164 148//163 150//166 151//167
f 155//168 305//169 156//170 97//105
f 155//168 97//105 96//104 99//108
f 156//170 305//169 306//171 157//172
f 156//170 157//172 158//173 92//98
f 156//170 92//98 91//97 97//105
f 158//173 157//172 159//174 160//175
f 158//173 160//175 161//176 87//177
f 158//173 87//177 86//99 92//98
f 161//176 160//175 162//178 163//179
f 161//180 163//181 164//182 82//87
f 161//180 82//87 81//86 87//92
f 164//182 163//181 165//183 166//184
f 164//182 166//184 167//185 79//82
f 164//182 79//82 78//81 82//87
f 167//185 166//184 168//186 169//187
f 167//185 169//187 170//188 77//189
f 167//185 77//189 293//83 79//82
f 170//188 169//187 171//190 307//191
f 172//192 308//193 173//194 69//69
f 172//192 69//69 68//68 73//74
f 173//194 308//193 309//195 174//196
f 173//194 174//196 175//197 64//64
f 173//194 64//64 63//63 69//69
f 175//197 174//196 47//46 46//45
f 175//197 46//45 50//50 49//49
f 175//197 49//49 59//59 64//64
f 174//196 309//195 176//198 47//46
f 176//198 310//199 44//200 47//46
f 311//201 179//202 180//203 177//204
f 311//201 312//205 181//206 179//202
f 181//206 182//207 183//208 179//202
f 181//206 312//205 307//191 171//190
f 181//206 171//190 184//209 182//207
f 184//209 185//210 186//211 182//207
f 184//209 171//190 169//187 168//186
f 184//209 168//186 187//212 185//210
f 187//213 188//214 189//215 185//216
f 187//212 168//186 166//184 165//183
f 187//213 165//217 190//218 188//214
f 190//218 191//219 192//220 188//214
f 190//218 165//217 163//179 162//178
f 190//218 162//178 193//221 191//219
f 193//221 194//222 195//223 191//219
f 193//221 162//178 160//175 159//174
f 193//221 159//174 313//224 194//222
f 313//224 159//174 157//172 306//171
f 196//225 88//93 84//89 83//88
f 196//225 154//226 197//227 88//93
f 197//227 93//100 89//94 88//93
f 197//227 154//226 314//228 198//229
f 197//227 198//229 42//41 93//100
f 198//229 314//228 153//230 199//231
f 198//229 199//231 39//38 42//41
f 199//231 153//230 152//232 200//233
f 199//231 200//233 40//39 39//38
f 200//234 152//235 151//235 150//166
f 200//234 150//166 201//236 40//39
f 201//236 202//237 41//40 40//39
f 201//236 150//166 148//163 147//162
f 201//236 147//162 203//238 202//237
f 203//238 204//239 205//240 202//240
f 203//238 147//162 145//160 144//159
f 203//238 144//159 206//241 204//239
f 206//241 207//242 208//243 204//239
f 206//241 144//159 141//156 139//154
f 206//241 139//154 137//152 207//242
f 208//243 209//244 210//245 211//246
f 208//243 211//246 205//247 204//239
f 208//243 207//242 212//248 209//244
f 212//248 315//249 213//250 209//244
f 212//248 207//242 137//152 135//150
f 212//248 135//150 304//149 315//249
f 213//250 214//251 210//245 209//244
f 214//251 316//252 215//253 210//245
f 215//253 316//252 317//254 216//255
f 215//253 216//255 217//256 218//257
f 215//253 218//257 211//246 210//245
f 218//257 217//256 35//258 43//259
f 218//257 43//259 205//247 211//246
f 217//256 216//255 219//260 220//261
f 217//256 220//261 36//262 35//258
f 220//261 219//260 221//263 222//264
f 220//261 222//264 223//265 36//262
f 223//265 222//264 224//266 225//267
f 223//268 225//269 226//269 227//268
f 223//268 227//268 37//34 36//34
f 227//270 226//271 228//272 229//273
f 227//270 229//273 38//36 37//35
f 229//273 228//272 230//274 231//275
f 229//273 231//275 102//276 38//36
f 231//275 230//274 232//277 104//278
f 231//275 104//278 103//279 102//276
f 232//277 230//274 233//280 318//281
f 236//282 235//283 237//284 221//263
f 236//282 221//263 219//260 238//285
f 238//285 219//260 216//255 317//254
f 237//284 235//283 319//286 239//287
f 237//284 239//287 240//288 224//266
f 237//284 224//266 222//264 221//263
f 240//288 239//287 241//289 242//290
f 240//288 242//290 243//291 244//292
f 240//288 244//292 225//267 224//266
f 244//292 243//291 245//293 246//294
f 244//292 246//294 226//269 225//269
f 246//294 245//293 247//295 248//296
f 246//294 248//296 228//272 226//271
f 248//296 247//295 249//297 233//280
f 248//296 233//280 230//274 228//272
f 249//297 247//295 250//298 251//299
f 249//297 251//299 252//300 234//301
f 249//297 234//301 318//281 233//280
f 252//300 251//299 253//302 254//303
f 321//304 320//305 255//306 241//289
f 321//304 241//289 239//287 319//286
f 255//306 320//305 322//307 256//308
f 255//306 256//308 257//309 258//310
f 255//306 258//310 242//290 241//289
f 258//310 257//309 259//311 260//312
f 258//310 260//312 243//291 242//290
f 260//312 259//311 261//313 262//314
f 260//312 262//314 245//293 243//291
f 262//314 261//313 263//315 250//298
f 262//314 250//298 247//295 245//293
f 263//315 261//313 264//316 265//317
f 263//315 265//317 266//318 253//302
f 263//315 253//302 251//299 250//298
f 266//318 265//317 267//319 268//320
f 266//318 268//320 323//321 324//322
f 266//318 324//322 254//303 253//302
f 326//323 325//324 269//325 270//326
f 326//323 270//326 256//308 322//307
f 270//326 269//325 271//327 272//328
f 270//326 272//328 257//309 256//308
f 272//328 271//327 273//329 274//330
f 272//328 274//330 259//311 257//309
f 274//330 273//329 275//331 264//316
f 274//330 264//316 261//313 259//311
f 275//331 273//329 31//28 9//3
f 275//331 9//3 8//2 267//319
f 275//331 267//319 265//317 264//316
f 273//329 271//327 26//23 31//28
f 271//327 269//325 27//24 26//23
f 269//325 325//324 276//332 27//24
f 276//332 277//333 28//25 27//24
f 277//333 327//334 29//26 28//25
f 327//334 278//335 11//5 29//26
f 278//335 279//336 12//6 11//5
f 279//336 280//337 13//7 12//6
f 280//337 323//321 268//320 13//7
f 268//320 267//319 8//2 13//7
f 205//240 43//42 41//42 202//240
f 281//338 328//339 282//340 192//220
f 281//338 192//220 191//219 195//223
f 282//340 328//339 292//79 76//78
f 282//340 76//78 283//341 189//215
f 282//340 189//215 188//214 192//220
f 283//341 76//78 75//76 74//75
f 283//341 74//75 284//342 186//343
f 283//341 186//343 185//216 189//215
f 284//342 74//75 71//71 70//70
f 284//344 70//70 285//345 183//208
f 284//344 183//208 182//207 186//211
f 285//345 70//70 66//66 65//65
f 285//345 65//65 286//346 180//203
f 285//345 180//203 179//202 183//208
f 286//346 65//65 61//61 60//60
f 286//346 60//60 287//347 178//348
f 286//346 178//348 177//204 180//203
f 287//347 60//60 57//57 56//56
f 310//199 288//349 45//44 44//200
f 288//349 289//350 51//51 45//44
f 289//350 54//54 52//52 51//51
f 303//147 116//126 112//122 299//121
f 117//127 116//126 21//17 20//16
f 102//112 100//112 32//30 38//36
f 94//101 93//100 42//41 34//32
f 51//51 50//50 46//45 45//44
f 31//28 30//27 10//4 9//3
f 30//27 29//26 11//5 10//4
f 25//21 24//20 14//9 18//13
f 24//20 23//19 15//10 14//9
f 6//37 35//33 5//29 34//32
f 338//351 337//352 336//353 329//354
f 340//355 339//356 338//351 329//354
f 336//353 341//357 340//355 329//354
f 344//358 343//359 342//360 330//361
f 342//360 346//362 345//363 330//361
f 345//363 347//364 344//358 330//361
f 350//365 349//366 348//367 331//368
f 352//369 351//370 350//365 331//368
f 348//367 353//371 352//369 331//368
f 356//372 355//373 354//374 332//375
f 358//376 357//377 356//372 332//375
f 354//374 359//378 358//376 332//375
f 362//379 361//380 360//381 333//382
f 365//383 364//383 363//384 333//385
f 360//381 366//386 365//387 333//382
f 369//388 368//389 367//390 334//391
f 367//390 370//392 362//393 334//391
f 363//384 371//394 369//394 334//391
f 375//395 374//396 373//397 372//398
f 378//399 377//400 376//401 335//402
f 380//403 379//404 378//399 335//402
f 376//401 381//405 380//403 335//402
f 55//55 54//54 380//403 381//405
f 382//406 56//56 55//55 381//405
f 376//401 383//407 382//406 381//405
f 376//401 377//400 384//408 383//407
f 386//409 385//410 382//406 383//407
f 384//408 387//411 386//409 383//407
f 384//408 389//412 388//413 387//411
f 391//414 390//415 386//409 387//411
f 388//413 392//416 391//414 387//411
f 388//413 394//417 393//418 392//416
f 396//419 395//420 391//414 392//416
f 393//418 397//421 396//419 392//416
f 393//418 73//422 290//73 397//421
f 399//423 398//424 396//419 397//421
f 290//73 291//77 399//423 397//421
f 292//79 400//425 399//423 291//77
f 293//83 402//426 401//427 294//80
f 401//427 403//428 295//84 294//80
f 401//427 405//429 404//430 403//428
f 406//431 83//88 295//84 403//428
f 404//430 407//432 406//431 403//428
f 404//430 409//433 408//434 407//432
f 411//435 410//436 406//431 407//432
f 408//434 412//437 411//435 407//432
f 408//438 414//439 413//440 412//441
f 416//442 415//443 411//435 412//437
f 413//440 417//444 416//445 412//441
f 413//440 419//446 418//447 417//444
f 361//380 362//379 416//445 417//444
f 418//447 420//448 361//380 417//444
f 418//447 99//108 296//107 420//448
f 421//449 360//381 361//380 420//448
f 296//107 101//110 421//449 420//448
f 103//111 422//450 421//450 101//111
f 105//116 424//451 423//452 297//113
f 423//452 425//453 298//117 297//113
f 423//452 427//454 426//455 425//453
f 428//456 299//121 298//117 425//453
f 426//455 429//457 428//456 425//453
f 426//455 431//458 430//459 429//457
f 433//460 432//461 428//456 429//457
f 430//459 434//462 433//460 429//457
f 430//459 436//463 435//464 434//462
f 353//371 348//367 433//460 434//462
f 435//464 346//362 353//371 434//462
f 439//465 438//466 437//467 436//463
f 430//459 431//458 439//465 436//463
f 437//467 440//468 435//464 436//463
f 437//467 442//469 441//470 440//468
f 345//363 346//362 435//464 440//468
f 441//470 347//364 345//363 440//468
f 443//471 128//138 127//137 442//469
f 437//467 438//466 443//471 442//469
f 127//137 300//140 441//470 442//469
f 301//141 347//364 441//470 300//140
f 130//142 344//358 347//364 301//141
f 131//143 343//359 344//358 130//142
f 132//144 351//370 343//359 131//143
f 133//145 350//365 351//370 132//144
f 302//146 349//366 350//365 133//145
f 303//147 432//461 349//366 302//146
f 445//472 444//473 304//149 134//148
f 128//138 443//471 445//472 134//148
f 447//474 446//475 444//473 445//472
f 443//471 438//466 447//474 445//472
f 449//476 448//477 446//475 447//474
f 438//466 439//465 449//476 447//474
f 451//478 450//479 448//477 449//476
f 439//465 431//458 451//478 449//476
f 427//454 452//480 450//479 451//478
f 431//458 426//455 427//454 451//478
f 454//481 453//482 450//479 452//480
f 424//451 455//483 454//481 452//480
f 427//454 423//452 424//451 452//480
f 457//484 456//485 454//481 455//483
f 106//165 149//164 457//484 455//483
f 424//451 105//116 106//165 455//483
f 151//167 458//486 457//484 149//164
f 419//446 459//487 305//169 155//168
f 99//108 418//447 419//446 155//168
f 460//488 306//171 305//169 459//487
f 414//439 461//489 460//488 459//487
f 419//446 413//440 414//439 459//487
f 463//490 462//491 460//488 461//489
f 409//492 464//493 463//490 461//489
f 414//439 408//438 409//492 461//489
f 466//494 465//495 463//490 464//493
f 405//429 467//496 466//497 464//498
f 409//433 404//430 405//429 464//498
f 469//499 468//500 466//497 467//496
f 402//426 470//501 469//499 467//496
f 405//429 401//427 402//426 467//496
f 472//502 471//503 469//499 470//501
f 77//189 170//188 472//502 470//501
f 402//426 293//83 77//189 470//501
f 307//191 473//504 472//502 170//188
f 394//417 474//505 308//506 172//507
f 73//422 393//418 394//417 172//507
f 475//508 309//195 308//506 474//505
f 389//412 476//509 475//508 474//505
f 394//417 388//413 389//412 474//505
f 374//396 375//395 475//508 476//509
f 377//400 378//399 374//396 476//509
f 389//412 384//408 377//400 476//509
f 375//395 176//198 309//195 475//508
f 375//395 372//398 310//199 176//198
f 177//204 478//510 477//511 311//201
f 477//511 479//512 312//205 311//201
f 477//511 481//513 480//514 479//512
f 473//504 307//191 312//205 479//512
f 480//514 482//515 473//504 479//512
f 480//514 484//516 483//517 482//515
f 471//503 472//502 473//504 482//515
f 483//517 485//518 471//503 482//515
f 483//519 487//520 486//521 485//522
f 468//500 469//499 471//503 485//518
f 486//521 488//523 468//524 485//522
f 486//521 490//525 489//526 488//523
f 465//495 466//494 468//524 488//523
f 489//526 491//527 465//495 488//523
f 489//526 195//223 194//222 491//527
f 462//491 463//490 465//495 491//527
f 194//222 313//224 462//491 491//527
f 306//171 460//488 462//491 313//224
f 83//88 406//431 410//436 196//225
f 410//436 492//528 154//226 196//225
f 410//436 411//435 415//443 492//528
f 493//529 314//228 154//226 492//528
f 415//443 370//392 493//529 492//528
f 494//530 153//230 314//228 493//529
f 370//392 367//390 494//530 493//529
f 495//531 152//232 153//230 494//530
f 367//390 368//389 495//531 494//530
f 458//486 151//235 152//235 495//532
f 368//389 496//533 458//486 495//532
f 368//389 369//388 497//534 496//533
f 456//485 457//484 458//486 496//533
f 497//534 498//535 456//485 496//533
f 497//536 500//536 499//537 498//535
f 453//482 454//481 456//485 498//535
f 499//537 501//538 453//482 498//535
f 499//537 503//539 502//540 501//538
f 448//477 450//479 453//482 501//538
f 502//540 446//475 448//477 501//538
f 506//541 505//542 504//543 503//539
f 499//537 500//544 506//541 503//539
f 504//543 507//545 502//540 503//539
f 504//543 213//250 315//249 507//545
f 444//473 446//475 502//540 507//545
f 315//249 304//149 444//473 507//545
f 504//543 505//542 214//251 213//250
f 505//542 508//546 316//252 214//251
f 509//547 317//254 316//252 508//546
f 511//548 510//549 509//547 508//546
f 505//542 506//541 511//548 508//546
f 371//550 363//551 510//549 511//548
f 506//541 500//544 371//550 511//548
f 513//552 512//553 509//547 510//549
f 363//551 364//554 513//552 510//549
f 515//555 514//556 512//553 513//552
f 364//554 516//557 515//555 513//552
f 518//558 517//559 515//555 516//557
f 520//560 519//561 518//561 516//560
f 364//383 365//383 520//560 516//560
f 522//562 521//563 519//564 520//565
f 365//387 366//386 522//562 520//565
f 524//566 523//567 521//563 522//562
f 366//386 422//568 524//566 522//562
f 104//278 232//277 523//567 524//566
f 422//568 103//279 104//278 524//566
f 318//281 525//569 523//567 232//277
f 514//556 526//570 235//283 236//282
f 238//285 512//553 514//556 236//282
f 317//254 509//547 512//553 238//285
f 527//571 319//286 235//283 526//570
f 517//559 528//572 527//571 526//570
f 514//556 515//555 517//559 526//570
f 530//573 529//574 527//571 528//572
f 532//575 531//576 530//573 528//572
f 517//559 518//558 532//575 528//572
f 534//577 533//578 531//576 532//575
f 518//561 519//561 534//577 532//575
f 536//579 535//580 533//578 534//577
f 519//564 521//563 536//579 534//577
f 525//569 537//581 535//580 536//579
f 521//563 523//567 525//569 536//579
f 539//582 538//583 535//580 537//581
f 234//301 252//300 539//582 537//581
f 525//569 318//281 234//301 537//581
f 254//303 540//584 539//582 252//300
f 529//574 541//585 320//305 321//304
f 319//286 527//571 529//574 321//304
f 542//586 322//307 320//305 541//585
f 544//587 543//588 542//586 541//585
f 529//574 530//573 544//587 541//585
f 546//589 545//590 543//588 544//587
f 530//573 531//576 546//589 544//587
f 548//591 547//592 545//590 546//589
f 531//576 533//578 548//591 546//589
f 538//583 549//593 547//592 548//591
f 533//578 535//580 538//583 548//591
f 551//594 550//595 547//592 549//593
f 540//584 552//596 551//594 549//593
f 538//583 539//582 540//584 549//593
f 554//597 553//598 551//594 552//596
f 324//322 323//321 554//597 552//596
f 540//584 254//303 324//322 552//596
f 556//599 555//600 325//324 326//323
f 322//307 542//586 556//599 326//323
f 558//601 557//602 555//600 556//599
f 542//586 543//588 558//601 556//599
f 560//603 559//604 557//602 558//601
f 543//588 545//590 560//603 558//601
f 550//595 561//605 559//604 560//603
f 545//590 547//592 550//595 560//603
f 337//352 359//378 559//604 561//605
f 553//598 336//353 337//352 561//605
f 550//595 551//594 553//598 561//605
f 359//378 354//374 557//602 559//604
f 354//374 355//373 555//600 557//602
f 355//373 276//332 325//324 555//600
f 355//373 356//372 277//333 276//332
f 356//372 357//377 327//334 277//333
f 357//377 339//356 278//335 327//334
f 339//356 340//355 279//336 278//335
f 340//355 341//357 280//337 279//336
f 341//357 554//597 323//321 280//337
f 341//357 336//353 553//598 554//597
f 497//536 369//394 371//394 500//536
f 490//525 562//606 328//339 281//338
f 195//223 489//526 490//525 281//338
f 400//425 292//79 328//339 562//606
f 487//520 563//607 400//425 562//606
f 490//525 486//521 487//520 562//606
f 398//424 399//423 400//425 563//607
f 484//608 564//609 398//424 563//607
f 487//520 483//519 484//608 563//607
f 395//420 396//419 398//424 564//609
f 481//513 565//610 395//420 564//611
f 484//516 480//514 481//513 564//611
f 390//415 391//414 395//420 565//610
f 478//510 566//612 390//415 565//610
f 481//513 477//511 478//510 565//610
f 385//410 386//409 390//415 566//612
f 178//348 287//347 385//410 566//612
f 478//510 177//204 178//348 566//612
f 56//56 382//406 385//410 287//347
f 372//398 373//397 288//349 310//199
f 373//397 379//404 289//350 288//349
f 379//404 380//403 54//54 289//350
f 299//121 428//456 432//461 303//147
f 348//367 349//366 432//461 433//460
f 366//386 360//381 421//450 422//450
f 362//393 370//392 415//443 416//442
f 373//397 374//396 378//399 379//404
f 337//352 338//351 358//376 359//378
f 338//351 339//356 357//377 358//376
f 346//362 342//360 352//369 353//371
f 342//360 343//359 351//370 352//369
f 362//393 333//385 363//384 334//391
