# pilowlava3D glyph 't' variant 3 — Vincent Wagner / Velvetyne, Free Art License
v 1.78123 3.06214 -0.37616
v 2.24269 0.18445 -0.38567
v 4.04817 4.08932 -0.40502
v 1.92131 4.20132 -0.33581
v 0.62733 2.53639 -0.35357
v 3.98148 3.45907 -0.42711
v 0.99846 3.23324 -0.45643
v 1.88751 3.28627 -0.37665
v 2.06012 3.29243 -0.34904
v 2.09828 3.08986 -0.36467
v 1.68127 2.91545 -0.30113
v 1.40759 2.98111 -0.26794
v 1.41670 3.05159 -0.31829
v 1.69041 3.14279 -0.29260
v 1.79512 3.29888 -0.31500
v 1.41058 3.09402 -0.30632
v 2.41867 0.20042 -0.43385
v 2.41248 0.05018 -0.24899
v 2.17953 0.09800 -0.24415
v 1.98907 0.28838 -0.25917
v 2.15820 0.33555 -0.43563
v 2.40408 0.38590 -0.52452
v 3.89691 4.13450 -0.43648
v 3.94260 4.29664 -0.24290
v 4.14709 4.16698 -0.25559
v 4.27284 3.91193 -0.26452
v 4.09039 3.90102 -0.45723
v 3.87724 3.89967 -0.54364
v 1.98744 4.17321 -0.26252
v 1.94435 3.98413 -0.27817
v 1.88220 3.97952 -0.32821
v 1.79076 3.96997 -0.30283
v 1.71381 4.18466 -0.31390
v 1.74683 4.32328 -0.33830
v 1.91167 4.33483 -0.33676
v 2.17169 2.86037 -0.37695
v 1.96388 2.81420 -0.42769
v 1.84235 2.74413 -0.34454
v 0.79454 2.59837 -0.37482
v 0.87340 2.49955 -0.20857
v 0.61433 2.44768 -0.21741
v 0.29195 2.56735 -0.24001
v 0.40956 2.66340 -0.41601
v 0.63063 2.76192 -0.49371
v 4.08449 3.36583 -0.26311
v 3.84616 3.21885 -0.25699
v 3.81514 3.40126 -0.45412
v 4.06085 3.64533 -0.46181
v 4.24194 3.61145 -0.26390
v 3.84451 3.64209 -0.55080
v 0.79982 3.20871 -0.54009
v 0.82736 3.40211 -0.52857
v 1.09087 3.39363 -0.34474
v 1.20570 3.25124 -0.28425
v 1.09874 3.10945 -0.42301
v 0.81186 3.02938 -0.53272
v 2.83565 0.11478 -0.23071
v 2.64391 0.06978 -0.26319
v 2.67322 0.25273 -0.44805
v 2.93427 0.28534 -0.30277
v 2.68597 0.45330 -0.50290
v 2.95297 0.52737 -0.31047
v 3.02885 0.28143 -0.00000
v 2.86507 0.08729 -0.00000
v 2.63980 0.01299 -0.00000
v 2.13959 0.06205 -0.00000
v 1.93031 0.53941 -0.25834
v 1.92664 0.77475 -0.25307
v 2.10721 0.78506 -0.46289
v 2.11646 0.55947 -0.45839
v 2.36282 0.81066 -0.56802
v 2.38046 0.59221 -0.55895
v 2.63965 0.87722 -0.51324
v 2.66899 0.66370 -0.51715
v 2.86333 0.95180 -0.29654
v 2.91626 0.74463 -0.30687
v 2.97334 0.98859 -0.00000
v 1.82974 0.99144 -0.00000
v 1.82344 1.21208 -0.00000
v 1.91086 1.21375 -0.24179
v 1.92032 0.99569 -0.24940
v 2.08009 1.22839 -0.44642
v 2.09729 1.00728 -0.45842
v 2.31284 1.26570 -0.54976
v 2.34148 1.03925 -0.56201
v 2.56152 1.31778 -0.47814
v 2.60277 1.09697 -0.49603
v 2.74506 1.36916 -0.26957
v 2.80249 1.15945 -0.28210
v 2.90472 1.19373 -0.00000
v 1.80867 1.65160 -0.00000
v 1.81630 1.43159 -0.00000
v 1.87953 1.65147 -0.23082
v 1.89491 1.43320 -0.23668
v 2.02628 1.66721 -0.42338
v 2.05228 1.44756 -0.43724
v 2.24117 1.70616 -0.51715
v 2.27855 1.48659 -0.53415
v 2.46634 1.75255 -0.44071
v 2.51447 1.53574 -0.45820
v 2.62332 1.79310 -0.24456
v 2.68437 1.58065 -0.25579
v 2.69768 1.81784 -0.00000
v 1.84929 2.08785 -0.21534
v 1.86726 1.87073 -0.22194
v 1.97144 2.10584 -0.39733
v 1.99867 1.88690 -0.41043
v 2.16225 2.14315 -0.48407
v 2.20221 1.92365 -0.50251
v 2.36105 2.18510 -0.40871
v 2.41483 1.96812 -0.42429
v 2.49461 2.22037 -0.22500
v 2.55815 2.00624 -0.23347
v 2.55615 2.23928 -0.00000
v 2.62553 2.02884 -0.00000
v 1.77208 2.49424 -0.00000
v 1.78279 2.29397 -0.00000
v 1.81059 2.50502 -0.19846
v 1.83385 2.30012 -0.20821
v 1.90796 2.53728 -0.36809
v 1.94452 2.32279 -0.38242
v 2.06313 2.58464 -0.45057
v 2.12038 2.36337 -0.46846
v 2.24234 2.63079 -0.38610
v 2.30687 2.40562 -0.39578
v 2.35895 2.65799 -0.21080
v 2.42838 2.43711 -0.21677
v 2.26421 3.10855 -0.00000
v 2.19240 3.32675 -0.00000
v 2.12263 3.54527 -0.00000
v 1.64699 3.16798 -0.00000
v 1.44696 3.16267 -0.00000
v 1.27290 3.29502 -0.00000
v 1.43423 3.14637 -0.20055
v 1.65802 3.16324 -0.17610
v 1.74162 3.30921 -0.17686
v 1.76915 3.51110 -0.18147
v 1.82500 3.51396 -0.31508
v 1.76198 3.73081 -0.18225
v 1.81255 3.73957 -0.30249
v 1.89511 3.75127 -0.34350
v 1.91415 3.52079 -0.36601
v 1.97525 3.76049 -0.29829
v 2.01654 3.53040 -0.32924
v 2.02687 3.76380 -0.17937
v 2.09004 3.53952 -0.19149
v 2.15323 3.31743 -0.19713
v 2.21947 3.09916 -0.20120
v 2.28979 2.87955 -0.20568
v 2.05145 3.76406 -0.00000
v 1.98660 3.98160 -0.16438
v 2.13655 4.21366 -0.00000
v 2.28175 4.17008 -0.00000
v 2.01726 4.15057 -0.15005
v 2.13428 4.22507 -0.14623
v 2.28535 4.18471 -0.15333
v 2.12949 4.26114 -0.25392
v 2.29324 4.22716 -0.26909
v 2.45544 4.12707 -0.30915
v 2.43767 4.06472 -0.17224
v 2.42508 4.03950 -0.00000
v 2.58763 3.92496 -0.18887
v 2.56396 3.89471 -0.00000
v 1.52914 4.23688 -0.00000
v 1.65555 4.14570 -0.00000
v 1.71422 3.95366 -0.00000
v 1.66681 4.15459 -0.18080
v 1.73468 3.95810 -0.18335
v 1.73824 3.72694 -0.00000
v 1.52724 4.24607 -0.17636
v 1.52472 4.28401 -0.28023
v 1.34845 4.24607 -0.29474
v 1.31801 4.31205 -0.32320
v 1.52011 4.34509 -0.30385
v 1.36858 4.20291 -0.18325
v 1.25516 4.07459 -0.21149
v 1.19464 4.13957 -0.35290
v 1.37643 4.19496 -0.00000
v 1.28055 4.05280 -0.00000
v 1.24561 3.89615 -0.00000
v 1.18303 3.91783 -0.25578
v 1.23305 3.74621 -0.00000
v 1.10579 3.58885 -0.31364
v 1.13930 3.75240 -0.28556
v 0.87529 3.60364 -0.50932
v 0.95567 3.79952 -0.47310
v 1.06345 3.98343 -0.42041
v 0.77325 3.88314 -0.50571
v 0.93645 4.06725 -0.45615
v 1.12128 4.21615 -0.38896
v 0.81877 4.15057 -0.37423
v 1.05054 4.28445 -0.32603
v 1.28656 4.36681 -0.27263
v 0.99570 4.33449 -0.18456
v 1.25928 4.40332 -0.16019
v 1.51270 4.42939 -0.15041
v 1.51633 4.39678 -0.25300
v 1.73550 4.43069 -0.15559
v 1.74014 4.39454 -0.27162
v 1.92450 4.43011 -0.15736
v 1.91762 4.39737 -0.27235
v 2.12979 4.43001 -0.15431
v 2.12671 4.40531 -0.25988
v 2.12488 4.36292 -0.31604
v 2.33600 4.38859 -0.27340
v 2.32021 4.33954 -0.33110
v 2.30174 4.27378 -0.32916
v 2.12695 4.29764 -0.30706
v 2.51424 4.27942 -0.37952
v 2.48132 4.19902 -0.37945
v 2.71016 4.20518 -0.42776
v 2.66524 4.09876 -0.42854
v 2.62384 4.00168 -0.34762
v 2.85449 3.98657 -0.47155
v 2.79372 3.86339 -0.37292
v 2.73836 3.78012 -0.20070
v 2.96489 3.71589 -0.39530
v 2.89464 3.61947 -0.21254
v 2.85425 3.57862 -0.00000
v 2.70557 3.74379 -0.00000
v 2.13216 4.44571 -0.00000
v 2.34717 4.42278 -0.15739
v 1.73549 4.44633 -0.00000
v 1.51093 4.44365 -0.00000
v 1.62555 2.84705 -0.00000
v 1.73866 2.68252 -0.00000
v 1.63841 2.85730 -0.16679
v 1.76320 2.69617 -0.18341
v 1.40508 2.93992 -0.15976
v 1.18018 2.83173 -0.17666
v 1.14433 2.89587 -0.32204
v 1.05286 2.65179 -0.19670
v 0.96753 2.73872 -0.37186
v 0.86516 2.87302 -0.48411
v 1.10370 2.99543 -0.40862
v 0.53522 2.97197 -0.54570
v 0.27417 2.93342 -0.44351
v 0.26772 3.22183 -0.45338
v 0.52666 3.20608 -0.56960
v 0.31941 3.49909 -0.45082
v 0.55869 3.44107 -0.55925
v 0.43550 3.75698 -0.43207
v 0.64096 3.67169 -0.53841
v 0.60780 3.97587 -0.40783
v 0.28674 3.83217 -0.24160
v 0.49300 4.05970 -0.22465
v 0.73608 4.22403 -0.20771
v 0.70929 4.25781 -0.00000
v 0.22739 3.86719 -0.00000
v 0.25284 2.52741 -0.00000
v 0.08929 2.88112 -0.24959
v 0.60490 2.40708 -0.00000
v 0.88824 2.46371 -0.00000
v 1.07611 2.62865 -0.00000
v 0.08585 3.22911 -0.24393
v 0.14420 3.54986 -0.25076
v 2.56470 4.40714 -0.17127
v 2.54330 4.35256 -0.30782
v 2.77388 4.38724 -0.18926
v 2.74950 4.30612 -0.34321
v 2.97198 4.37133 -0.20119
v 2.95695 4.26474 -0.37306
v 2.91342 4.12993 -0.47098
v 3.15729 4.22521 -0.39546
v 3.11678 4.05124 -0.50570
v 3.04601 3.86843 -0.50690
v 3.31334 3.98242 -0.53775
v 3.23717 3.75237 -0.54042
v 3.14301 3.56193 -0.41944
v 3.43178 3.67093 -0.56024
v 3.35074 3.43659 -0.44320
v 3.28284 3.27001 -0.24280
v 3.06424 3.44017 -0.22511
v 3.25778 3.21060 -0.00000
v 2.97218 4.42694 -0.00000
v 2.77742 4.43212 -0.00000
v 3.16504 4.35794 -0.21114
v 3.35313 4.34454 -0.21761
v 3.34763 4.19615 -0.41400
v 3.54315 4.35003 -0.23247
v 3.52818 4.17781 -0.43716
v 3.49399 3.93523 -0.55640
v 3.70883 4.16114 -0.44619
v 3.67902 3.91099 -0.56559
v 3.63394 3.63781 -0.57010
v 3.58543 3.38302 -0.45886
v 3.56070 3.18569 -0.25618
v 3.55511 3.12091 -0.00000
v 3.73779 4.34008 -0.24042
v 3.97557 4.35339 -0.00000
v 4.20197 4.19676 -0.00000
v 4.33052 3.91697 -0.00000
v 4.29837 3.59750 -0.00000
v 3.06657 0.54271 -0.00000
v 2.40387 0.00000 -0.00000
v 1.92775 0.26178 -0.00000
v 1.85106 0.52498 -0.00000
v 1.83510 0.76622 -0.00000
v 3.03400 0.77321 -0.00000
v 2.83685 1.39962 -0.00000
v 2.76727 1.60798 -0.00000
v 1.79131 2.08359 -0.00000
v 1.80276 1.86893 -0.00000
v 2.41179 2.67213 -0.00000
v 2.48439 2.45435 -0.00000
v 2.33858 2.89023 -0.00000
v 1.23486 3.43528 -0.00000
v 1.72435 3.30871 -0.00000
v 1.74544 3.50974 -0.00000
v 2.00301 3.97945 -0.00000
v 2.02614 4.14137 -0.00000
v 1.23009 3.59335 -0.00000
v 2.35335 4.44296 -0.00000
v 1.92725 4.44599 -0.00000
v 1.24631 4.41917 -0.00000
v 1.40431 2.92968 -0.00000
v 1.19302 2.81542 -0.00000
v 0.45134 4.09716 -0.00000
v 0.97527 4.35819 -0.00000
v 0.02071 2.85038 -0.00000
v 0.00000 3.23106 -0.00000
v 0.06827 3.57336 -0.00000
v 2.57211 4.43757 -0.00000
v 3.02611 3.38941 -0.00000
v 3.16519 4.42309 -0.00000
v 3.35466 4.41681 -0.00000
v 3.86761 3.16118 -0.00000
v 3.75510 4.41014 -0.00000
v 3.54942 4.42237 -0.00000
v 4.13327 3.32865 -0.00000
v 1.78123 3.06214 0.37616
v 2.24269 0.18445 0.38567
v 4.04817 4.08932 0.40502
v 1.92131 4.20132 0.33581
v 0.62733 2.53639 0.35357
v 3.98148 3.45907 0.42711
v 0.99846 3.23324 0.45643
v 1.88751 3.28627 0.37665
v 2.06012 3.29243 0.34904
v 2.09828 3.08986 0.36467
v 1.68127 2.91545 0.30113
v 1.40759 2.98111 0.26794
v 1.41670 3.05159 0.31829
v 1.69041 3.14279 0.29260
v 1.79512 3.29888 0.31500
v 1.41058 3.09402 0.30632
v 2.41867 0.20042 0.43385
v 2.41248 0.05018 0.24899
v 2.17953 0.09800 0.24415
v 1.98907 0.28838 0.25917
v 2.15820 0.33555 0.43563
v 2.40408 0.38590 0.52452
v 3.89691 4.13450 0.43648
v 3.94260 4.29664 0.24290
v 4.14709 4.16698 0.25559
v 4.27284 3.91193 0.26452
v 4.09039 3.90102 0.45723
v 3.87724 3.89967 0.54364
v 1.98744 4.17321 0.26252
v 1.94435 3.98413 0.27817
v 1.88220 3.97952 0.32821
v 1.79076 3.96997 0.30283
v 1.71381 4.18466 0.31390
v 1.74683 4.32328 0.33830
v 1.91167 4.33483 0.33676
v 2.17169 2.86037 0.37695
v 1.96388 2.81420 0.42769
v 1.84235 2.74413 0.34454
v 0.79454 2.59837 0.37482
v 0.87340 2.49955 0.20857
v 0.61433 2.44768 0.21741
v 0.29195 2.56735 0.24001
v 0.40956 2.66340 0.41601
v 0.63063 2.76192 0.49371
v 4.08449 3.36583 0.26311
v 3.84616 3.21885 0.25699
v 3.81514 3.40126 0.45412
v 4.06085 3.64533 0.46181
v 4.24194 3.61145 0.26390
v 3.84451 3.64209 0.55080
v 0.79982 3.20871 0.54009
v 0.82736 3.40211 0.52857
v 1.09087 3.39363 0.34474
v 1.20570 3.25124 0.28425
v 1.09874 3.10945 0.42301
v 0.81186 3.02938 0.53272
v 2.83565 0.11478 0.23071
v 2.64391 0.06978 0.26319
v 2.67322 0.25273 0.44805
v 2.93427 0.28534 0.30277
v 2.68597 0.45330 0.50290
v 2.95297 0.52737 0.31047
v 1.93031 0.53941 0.25834
v 1.92664 0.77475 0.25307
v 2.10721 0.78506 0.46289
v 2.11646 0.55947 0.45839
v 2.36282 0.81066 0.56802
v 2.38046 0.59221 0.55895
v 2.63965 0.87722 0.51324
v 2.66899 0.66370 0.51715
v 2.86333 0.95180 0.29654
v 2.91626 0.74463 0.30687
v 1.91086 1.21375 0.24179
v 1.92032 0.99569 0.24940
v 2.08009 1.22839 0.44642
v 2.09729 1.00728 0.45842
v 2.31284 1.26570 0.54976
v 2.34148 1.03925 0.56201
v 2.56152 1.31778 0.47814
v 2.60277 1.09697 0.49603
v 2.74506 1.36916 0.26957
v 2.80249 1.15945 0.28210
v 1.87953 1.65147 0.23082
v 1.89491 1.43320 0.23668
v 2.02628 1.66721 0.42338
v 2.05228 1.44756 0.43724
v 2.24117 1.70616 0.51715
v 2.27855 1.48659 0.53415
v 2.46634 1.75255 0.44071
v 2.51447 1.53574 0.45820
v 2.62332 1.79310 0.24456
v 2.68437 1.58065 0.25579
v 1.84929 2.08785 0.21534
v 1.86726 1.87073 0.22194
v 1.97144 2.10584 0.39733
v 1.99867 1.88690 0.41043
v 2.16225 2.14315 0.48407
v 2.20221 1.92365 0.50251
v 2.36105 2.18510 0.40871
v 2.41483 1.96812 0.42429
v 2.49461 2.22037 0.22500
v 2.55815 2.00624 0.23347
v 1.81059 2.50502 0.19846
v 1.83385 2.30012 0.20821
v 1.90796 2.53728 0.36809
v 1.94452 2.32279 0.38242
v 2.06313 2.58464 0.45057
v 2.12038 2.36337 0.46846
v 2.24234 2.63079 0.38610
v 2.30687 2.40562 0.39578
v 2.35895 2.65799 0.21080
v 2.42838 2.43711 0.21677
v 1.43423 3.14637 0.20055
v 1.65802 3.16324 0.17610
v 1.74162 3.30921 0.17686
v 1.76915 3.51110 0.18147
v 1.82500 3.51396 0.31508
v 1.76198 3.73081 0.18225
v 1.81255 3.73957 0.30249
v 1.89511 3.75127 0.34350
v 1.91415 3.52079 0.36601
v 1.97525 3.76049 0.29829
v 2.01654 3.53040 0.32924
v 2.02687 3.76380 0.17937
v 2.09004 3.53952 0.19149
v 2.15323 3.31743 0.19713
v 2.21947 3.09916 0.20120
v 2.28979 2.87955 0.20568
v 1.98660 3.98160 0.16438
v 2.01726 4.15057 0.15005
v 2.13428 4.22507 0.14623
v 2.28535 4.18471 0.15333
v 2.12949 4.26114 0.25392
v 2.29324 4.22716 0.26909
v 2.45544 4.12707 0.30915
v 2.43767 4.06472 0.17224
v 2.58763 3.92496 0.18887
v 1.66681 4.15459 0.18080
v 1.73468 3.95810 0.18335
v 1.52724 4.24607 0.17636
v 1.52472 4.28401 0.28023
v 1.34845 4.24607 0.29474
v 1.31801 4.31205 0.32320
v 1.52011 4.34509 0.30385
v 1.36858 4.20291 0.18325
v 1.25516 4.07459 0.21149
v 1.19464 4.13957 0.35290
v 1.18303 3.91783 0.25578
v 1.10579 3.58885 0.31364
v 1.13930 3.75240 0.28556
v 0.87529 3.60364 0.50932
v 0.95567 3.79952 0.47310
v 1.06345 3.98343 0.42041
v 0.77325 3.88314 0.50571
v 0.93645 4.06725 0.45615
v 1.12128 4.21615 0.38896
v 0.81877 4.15057 0.37423
v 1.05054 4.28445 0.32603
v 1.28656 4.36681 0.27263
v 0.99570 4.33449 0.18456
v 1.25928 4.40332 0.16019
v 1.51270 4.42939 0.15041
v 1.51633 4.39678 0.25300
v 1.73550 4.43069 0.15559
v 1.74014 4.39454 0.27162
v 1.92450 4.43011 0.15736
v 1.91762 4.39737 0.27235
v 2.12979 4.43001 0.15431
v 2.12671 4.40531 0.25988
v 2.12488 4.36292 0.31604
v 2.33600 4.38859 0.27340
v 2.32021 4.33954 0.33110
v 2.30174 4.27378 0.32916
v 2.12695 4.29764 0.30706
v 2.51424 4.27942 0.37952
v 2.48132 4.19902 0.37945
v 2.71016 4.20518 0.42776
v 2.66524 4.09876 0.42854
v 2.62384 4.00168 0.34762
v 2.85449 3.98657 0.47155
v 2.79372 3.86339 0.37292
v 2.73836 3.78012 0.20070
v 2.96489 3.71589 0.39530
v 2.89464 3.61947 0.21254
v 2.34717 4.42278 0.15739
v 1.63841 2.85730 0.16679
v 1.76320 2.69617 0.18341
v 1.40508 2.93992 0.15976
v 1.18018 2.83173 0.17666
v 1.14433 2.89587 0.32204
v 1.05286 2.65179 0.19670
v 0.96753 2.73872 0.37186
v 0.86516 2.87302 0.48411
v 1.10370 2.99543 0.40862
v 0.53522 2.97197 0.54570
v 0.27417 2.93342 0.44351
v 0.26772 3.22183 0.45338
v 0.52666 3.20608 0.56960
v 0.31941 3.49909 0.45082
v 0.55869 3.44107 0.55925
v 0.43550 3.75698 0.43207
v 0.64096 3.67169 0.53841
v 0.60780 3.97587 0.40783
v 0.28674 3.83217 0.24160
v 0.49300 4.05970 0.22465
v 0.73608 4.22403 0.20771
v 0.08929 2.88112 0.24959
v 0.08585 3.22911 0.24393
v 0.14420 3.54986 0.25076
v 2.56470 4.40714 0.17127
v 2.54330 4.35256 0.30782
v 2.77388 4.38724 0.18926
v 2.74950 4.30612 0.34321
v 2.97198 4.37133 0.20119
v 2.95695 4.26474 0.37306
v 2.91342 4.12993 0.47098
v 3.15729 4.22521 0.39546
v 3.11678 4.05124 0.50570
v 3.04601 3.86843 0.50690
v 3.31334 3.98242 0.53775
v 3.23717 3.75237 0.54042
v 3.14301 3.56193 0.41944
v 3.43178 3.67093 0.56024
v 3.35074 3.43659 0.44320
v 3.28284 3.27001 0.24280
v 3.06424 3.44017 0.22511
v 3.16504 4.35794 0.21114
v 3.35313 4.34454 0.21761
v 3.34763 4.19615 0.41400
v 3.54315 4.35003 0.23247
v 3.52818 4.17781 0.43716
v 3.49399 3.93523 0.55640
v 3.70883 4.16114 0.44619
v 3.67902 3.91099 0.56559
v 3.63394 3.63781 0.57010
v 3.58543 3.38302 0.45886
v 3.56070 3.18569 0.25618
v 3.73779 4.34008 0.24042
vn -0.18535 0.04829 -0.98148
vn -0.18842 0.11369 -0.97549
vn 0.17196 0.05006 -0.98383
vn 0.10532 0.10553 -0.98882
vn -0.44052 -0.55079 -0.70892
vn 0.06986 -0.74655 -0.66165
vn 0.11414 -0.13123 -0.98476
vn -0.51388 0.43134 -0.74153
vn -0.73729 0.24558 -0.62936
vn 0.16477 0.59984 -0.78297
vn -0.31068 -0.61662 -0.72336
vn -0.04667 -0.60533 -0.79460
vn -0.05292 -0.90384 -0.42458
vn -0.41663 -0.80113 -0.42966
vn -0.75711 -0.44448 -0.47878
vn -0.46586 -0.34682 -0.81406
vn -0.07952 -0.27153 -0.95914
vn 0.46974 0.47535 -0.74390
vn 0.24049 0.56232 -0.79117
vn 0.32518 0.82487 -0.46243
vn 0.65294 0.60389 -0.45715
vn 0.86958 0.15774 -0.46791
vn 0.55060 0.15279 -0.82067
vn 0.23355 0.18854 -0.95389
vn 0.57887 -0.42469 -0.69609
vn 0.69757 -0.48488 -0.52754
vn 0.80700 0.00379 -0.59053
vn 0.61482 0.00103 -0.78867
vn -0.03165 -0.08051 -0.99625
vn -0.26984 -0.03718 -0.96219
vn -0.15965 -0.14282 -0.97679
vn -0.14996 -0.17529 -0.97303
vn 0.04221 -0.08111 -0.99581
vn 0.51559 0.22909 -0.82564
vn -0.15576 0.01465 -0.98769
vn -0.65438 -0.25730 -0.71105
vn -0.01952 -0.72881 -0.68443
vn 0.26905 -0.61187 -0.74379
vn 0.41621 -0.82308 -0.38641
vn -0.05051 -0.91971 -0.38934
vn -0.54111 -0.71036 -0.45010
vn -0.30673 -0.51998 -0.79721
vn 0.03732 -0.36776 -0.92917
vn 0.45138 -0.48602 -0.74836
vn 0.61972 -0.64026 -0.45388
vn 0.28154 -0.83786 -0.46768
vn 0.21008 -0.54891 -0.80905
vn 0.53386 -0.21725 -0.81719
vn 0.83756 -0.28953 -0.46333
vn 0.21869 -0.19131 -0.95686
vn 0.48256 0.14697 -0.86344
vn 0.26143 0.04538 -0.96416
vn 0.33712 0.07527 -0.93845
vn 0.73168 0.16973 -0.66018
vn 0.43924 0.17810 -0.88054
vn 0.23992 -0.10298 -0.96532
vn 0.65103 0.55742 -0.51522
vn 0.50151 -0.76725 -0.39977
vn 0.19985 -0.86182 -0.46618
vn 0.27840 -0.48895 -0.82669
vn 0.71764 -0.40133 -0.56914
vn 0.36143 -0.14562 -0.92096
vn 0.79817 -0.01698 -0.60219
vn 0.99981 0.01969 0.00027
vn 0.92562 -0.37845 -0.00163
vn 0.56684 -0.82382 -0.00328
vn 0.17565 -0.98445 -0.00116
vn -0.07764 -0.99698 0.00045
vn -0.47089 -0.88219 0.00027
vn -0.86115 -0.50835 -0.00057
vn -0.98914 -0.14697 -0.00024
vn -0.85550 -0.12397 -0.50274
vn -0.99955 -0.03016 0.00016
vn -0.86385 -0.02369 -0.50319
vn -0.57907 -0.02362 -0.81494
vn -0.54650 -0.10981 -0.83023
vn -0.09880 0.00720 -0.99508
vn -0.09798 -0.08242 -0.99177
vn 0.43440 0.11414 -0.89346
vn 0.40135 0.02903 -0.91546
vn 0.79224 0.23009 -0.56516
vn 0.79331 0.15594 -0.58851
vn 0.89167 0.27025 -0.36317
vn 0.91102 0.19832 -0.36154
vn -0.99965 -0.02640 0.00000
vn -0.99924 -0.03908 0.00001
vn -0.86956 -0.03755 -0.49240
vn -0.86499 -0.02118 -0.50135
vn -0.60174 -0.01813 -0.79848
vn -0.59366 -0.00770 -0.80468
vn -0.07796 0.06174 -0.99504
vn -0.09034 0.04815 -0.99475
vn 0.49650 0.17365 -0.85049
vn 0.46839 0.15406 -0.86998
vn 0.81606 0.25735 -0.51750
vn 0.80314 0.25162 -0.54005
vn 0.95303 0.30287 0.00000
vn 0.89058 0.28555 -0.35402
vn -0.99883 -0.04835 0.00002
vn -0.99912 -0.04183 0.00004
vn -0.88918 -0.04318 -0.45551
vn -0.87820 -0.04959 -0.47572
vn -0.61959 -0.02250 -0.78460
vn -0.60858 -0.02616 -0.79306
vn -0.40166 0.00155 -0.91579
vn -0.06527 0.06913 -0.99547
vn 0.29642 0.13130 -0.94599
vn 0.53644 0.19057 -0.82214
vn 0.51716 0.18616 -0.83540
vn 0.83517 0.26976 -0.47928
vn 0.82592 0.26413 -0.49809
vn 0.95090 0.30949 -0.00000
vn 0.95230 0.30517 -0.00000
vn -0.99877 -0.04962 -0.00001
vn -0.99832 -0.05792 0.00000
vn -0.90803 -0.05702 -0.41501
vn -0.89913 -0.05024 -0.43478
vn -0.64756 -0.02968 -0.76143
vn -0.63379 -0.02709 -0.77303
vn -0.41980 -0.00059 -0.90762
vn -0.40940 -0.00088 -0.91235
vn 0.31312 0.13657 -0.93984
vn 0.32515 0.13713 -0.93567
vn 0.56832 0.19685 -0.79891
vn 0.55324 0.19645 -0.80953
vn 0.85395 0.27211 -0.44354
vn 0.84423 0.27330 -0.46108
vn 0.95181 0.30670 0.00002
vn 0.95081 0.30976 0.00002
vn -0.99788 -0.06509 -0.00015
vn -0.99013 -0.14015 0.00005
vn -0.92287 -0.14104 -0.35835
vn -0.91767 -0.06867 -0.39136
vn -0.68283 -0.10380 -0.72317
vn -0.66324 -0.04616 -0.74698
vn -0.46844 -0.05935 -0.88150
vn -0.43686 -0.01692 -0.89937
vn 0.32345 0.13825 -0.93609
vn 0.28388 0.15032 -0.94700
vn 0.56261 0.21523 -0.79822
vn 0.57612 0.20206 -0.79199
vn 0.86476 0.28379 -0.41430
vn 0.86080 0.27795 -0.42634
vn 0.95040 0.31102 -0.00001
vn 0.95065 0.31028 0.00001
vn 0.75559 0.65504 0.00172
vn 0.97732 0.21175 0.00304
vn 0.25545 0.96682 -0.00099
vn 0.21698 0.92048 -0.32501
vn -0.04793 0.99885 0.00137
vn -0.06874 0.97876 -0.19313
vn -0.08946 0.93985 -0.32966
vn -0.84870 0.48779 -0.20438
vn -0.87215 0.48924 -0.00018
vn -0.95070 0.31012 -0.00012
vn -0.92263 0.31039 -0.22894
vn -0.99908 0.04288 -0.00003
vn -0.96623 0.04479 -0.25375
vn -0.75022 0.05599 -0.65881
vn -0.96161 -0.06911 -0.26559
vn -0.71318 -0.02397 -0.70058
vn -0.41706 0.01977 -0.90866
vn -0.49778 0.05990 -0.86523
vn 0.32314 0.10898 -0.94006
vn 0.47484 0.13829 -0.86914
vn 0.72075 0.18387 -0.66837
vn 0.63075 0.18288 -0.75413
vn 0.93518 0.23109 -0.26841
vn 0.90940 0.26385 -0.32153
vn 0.89069 0.26127 -0.37202
vn 0.81544 0.22232 -0.53444
vn 0.95623 0.29261 0.00011
vn 0.95481 0.29722 0.00005
vn 0.95086 0.30961 0.00001
vn 0.87210 0.27932 -0.40177
vn 0.78393 0.24624 -0.56993
vn 0.94965 0.31331 -0.00002
vn 0.86510 0.28934 -0.40973
vn 0.96839 0.24944 0.00004
vn 0.97419 0.01491 -0.22525
vn 0.99971 0.02411 -0.00025
vn 0.54333 -0.83952 0.00012
vn 0.53300 -0.82491 -0.18824
vn -0.27466 -0.96154 0.00022
vn -0.25844 -0.94383 -0.20590
vn -0.44788 -0.86439 -0.22855
vn -0.47349 -0.88080 0.00004
vn 0.13766 -0.86425 -0.48386
vn -0.38371 -0.78043 -0.49366
vn -0.55061 -0.62706 -0.55101
vn -0.64311 -0.71622 -0.27102
vn -0.67955 -0.73363 0.00008
vn -0.66456 -0.67306 -0.32457
vn -0.71145 -0.70274 0.00022
vn -0.97728 -0.21194 -0.00016
vn -0.80137 -0.59817 0.00017
vn -0.76697 -0.59736 -0.23436
vn -0.94159 -0.21065 -0.26275
vn -0.99734 -0.07293 0.00001
vn -0.71600 -0.58351 -0.38322
vn -0.88835 -0.20531 -0.41071
vn -0.54002 -0.81949 -0.19187
vn -0.50290 -0.80112 -0.32449
vn -0.56736 -0.82347 0.00067
vn -0.05544 -0.30217 -0.95164
vn 0.27967 -0.24042 -0.92951
vn 0.24114 -0.89956 -0.36420
vn 0.25598 -0.94330 -0.21135
vn 0.52422 -0.81146 -0.25830
vn 0.47725 -0.77138 -0.42096
vn 0.82366 -0.45472 -0.33884
vn 0.59484 -0.26143 -0.76014
vn 0.26466 -0.96434 0.00000
vn 0.55948 -0.82884 -0.00001
vn 0.88902 -0.45787 0.00119
vn 0.97520 -0.22133 0.00012
vn 0.87055 -0.22227 -0.43903
vn 0.99357 -0.11318 -0.00059
vn 0.99935 -0.03600 0.00007
vn 0.81407 -0.03488 -0.57972
vn 0.84570 -0.11414 -0.52132
vn 0.41487 0.01606 -0.90974
vn 0.48232 -0.01845 -0.87580
vn 0.56129 -0.08800 -0.82293
vn -0.03462 0.25338 -0.96675
vn 0.05686 0.30466 -0.95076
vn 0.38579 -0.05332 -0.92105
vn -0.11143 0.61128 -0.78353
vn -0.31102 0.65147 -0.69199
vn -0.20125 0.75734 -0.62124
vn -0.10368 0.82123 -0.56110
vn -0.04711 0.66810 -0.74258
vn -0.29032 0.91130 -0.29197
vn -0.15935 0.95944 -0.23254
vn -0.05257 0.97734 -0.20503
vn -0.04861 0.84438 -0.53353
vn -0.04204 0.68716 -0.72529
vn -0.00756 0.98038 -0.19699
vn -0.02584 0.85252 -0.52205
vn -0.03898 0.69518 -0.71778
vn -0.00317 0.98273 -0.18503
vn -0.01581 0.87205 -0.48917
vn -0.02260 0.73075 -0.68228
vn 0.01518 0.98330 -0.18137
vn 0.01401 0.88919 -0.45732
vn 0.00877 0.76909 -0.63908
vn 0.04818 0.87182 -0.48746
vn 0.03483 0.75277 -0.65737
vn 0.00827 -0.06613 -0.99778
vn -0.17241 -0.00084 -0.98503
vn 0.12127 -0.77851 -0.61581
vn -0.33905 -0.70200 -0.62629
vn -0.09829 0.41344 -0.90521
vn -0.37488 -0.24611 -0.89381
vn -0.08351 0.37965 -0.92135
vn -0.34868 -0.19441 -0.91686
vn -0.55429 -0.56047 -0.61534
vn -0.31398 -0.18094 -0.93203
vn -0.53751 -0.52581 -0.65925
vn -0.66664 -0.64816 -0.36807
vn -0.52111 -0.49279 -0.69685
vn -0.66862 -0.62471 -0.40334
vn -0.73643 -0.67651 -0.00006
vn -0.72528 -0.68845 0.00003
vn 0.01183 0.99993 -0.00005
vn 0.03260 0.99947 -0.00006
vn 0.04623 0.97532 -0.21589
vn 0.00182 1.00000 0.00000
vn -0.00402 0.99999 0.00001
vn -0.05269 0.99861 -0.00005
vn -0.16306 0.98662 -0.00002
vn -0.91517 -0.40306 0.00010
vn -0.60265 -0.79801 0.00000
vn -0.56706 -0.77214 -0.28679
vn -0.86147 -0.38665 -0.32919
vn -0.34282 -0.93940 0.00026
vn 0.06113 -0.96415 -0.25823
vn 0.45730 -0.88931 -0.00058
vn 0.66798 -0.74418 -0.00035
vn 0.61885 -0.73063 -0.28846
vn 0.49737 -0.59712 -0.62934
vn 0.69384 -0.62464 -0.35835
vn 0.51443 -0.49649 -0.69919
vn 0.32526 -0.29271 -0.89918
vn 0.39638 -0.25018 -0.88334
vn -0.11288 -0.16721 -0.97944
vn -0.52381 -0.20251 -0.82741
vn -0.57959 0.03304 -0.81424
vn -0.14966 -0.00422 -0.98873
vn -0.55524 0.20343 -0.80642
vn -0.13497 0.10357 -0.98542
vn -0.49072 0.37220 -0.78782
vn -0.09821 0.18152 -0.97847
vn -0.40870 0.52109 -0.74929
vn -0.71543 0.51595 -0.47112
vn -0.57626 0.69707 -0.42665
vn -0.42787 0.82700 -0.36470
vn -0.63554 0.77207 0.00026
vn -0.45405 0.89097 0.00013
vn -0.29843 0.95443 0.00004
vn -0.60538 -0.79594 -0.00033
vn -0.94996 -0.31237 0.00026
vn -0.82467 -0.26324 -0.50063
vn -0.06707 -0.99775 0.00009
vn 0.44264 -0.89670 -0.00002
vn 0.75345 -0.65751 0.00003
vn -0.99700 0.07735 0.00051
vn -0.86340 0.06683 -0.50007
vn -0.94398 0.33002 -0.00042
vn -0.81988 0.28500 -0.49657
vn -0.81124 0.58472 -0.00003
vn 0.04747 0.99887 -0.00019
vn 0.06555 0.95705 -0.28240
vn 0.06161 0.82465 -0.56228
vn 0.06506 0.93461 -0.34968
vn 0.05906 0.77333 -0.63125
vn 0.05462 0.91391 -0.40223
vn 0.05396 0.72629 -0.68527
vn -0.06450 0.34000 -0.93821
vn 0.04625 0.68742 -0.72479
vn -0.05654 0.30772 -0.94979
vn -0.28790 -0.16896 -0.94264
vn -0.05852 0.27947 -0.95837
vn -0.23606 -0.16722 -0.95724
vn -0.45261 -0.49211 -0.74362
vn -0.14173 -0.18046 -0.97332
vn -0.28849 -0.53308 -0.79536
vn -0.41372 -0.77883 -0.47144
vn -0.61093 -0.66047 -0.43651
vn -0.46491 -0.88536 -0.00003
vn -0.68095 -0.73233 -0.00018
vn 0.04870 0.99881 -0.00010
vn 0.04138 0.99914 0.00009
vn 0.04185 0.99912 0.00002
vn 0.04973 0.89657 -0.44010
vn 0.00269 1.00000 -0.00003
vn 0.00532 0.88596 -0.46373
vn 0.00427 0.65702 -0.75386
vn -0.00047 0.87926 -0.47635
vn -0.00612 0.62585 -0.77992
vn -0.03825 0.24914 -0.96771
vn 0.07325 0.59979 -0.79680
vn 0.04439 0.22503 -0.97334
vn -0.00092 -0.19340 -0.98112
vn -0.05321 -0.56672 -0.82219
vn -0.08299 -0.86966 -0.48663
vn 0.33224 -0.94320 -0.00041
vn -0.08856 -0.99607 -0.00004
vn 0.00401 0.99999 0.00006
vn 0.13879 0.99032 -0.00030
vn 0.11139 0.87040 -0.47957
vn 0.39368 0.91925 0.00041
vn 0.75222 0.65892 0.00121
vn 0.98509 0.17205 0.00035
vn 0.94570 -0.32504 -0.00024
vn 0.70522 -0.70899 -0.00046
vn 0.96624 -0.16182 -0.20049
vn 0.98768 -0.15650 -0.00043
vn 0.09594 0.09628 0.99072
vn 0.16886 0.04245 0.98473
vn -0.11020 -0.11658 0.98705
vn 0.09099 -0.52581 0.84572
vn 0.07338 -0.74497 0.66305
vn -0.43662 -0.54893 0.71277
vn -0.52517 0.16424 0.83500
vn -0.73725 0.24701 0.62885
vn -0.52790 0.43278 0.73077
vn -0.33298 0.36766 0.86830
vn 0.12057 0.61190 0.78169
vn 0.08479 0.29750 0.95095
vn -0.41665 -0.79771 0.43596
vn -0.05719 -0.90090 0.43025
vn -0.05164 -0.59955 0.79867
vn -0.30970 -0.61250 0.72728
vn -0.46227 -0.34879 0.81526
vn -0.75458 -0.44602 0.48132
vn -0.08083 -0.27069 0.95927
vn 0.65216 0.60140 0.46153
vn 0.32663 0.82247 0.46569
vn 0.24430 0.56109 0.79088
vn 0.47153 0.47424 0.74348
vn 0.55155 0.15613 0.81940
vn 0.86859 0.15880 0.46940
vn 0.23613 0.19112 0.95274
vn 0.61813 -0.00072 0.78607
vn 0.80766 0.00264 0.58964
vn 0.70024 -0.48745 0.52159
vn 0.58724 -0.43152 0.68479
vn -0.14442 -0.12014 0.98220
vn -0.27201 -0.01657 0.96215
vn -0.02645 -0.06034 0.99783
vn 0.05302 -0.07195 0.99600
vn -0.12393 -0.16207 0.97897
vn -0.15860 0.02322 0.98707
vn 0.51096 0.23635 0.82647
vn -0.65287 -0.25558 0.71305
vn -0.04996 -0.91796 0.39351
vn 0.41425 -0.82260 0.38953
vn 0.27037 -0.61562 0.74021
vn -0.01746 -0.73224 0.68083
vn -0.29820 -0.52650 0.79616
vn -0.53796 -0.71093 0.45296
vn 0.04279 -0.37426 0.92634
vn 0.21581 -0.55052 0.80645
vn 0.28277 -0.83616 0.46997
vn 0.62011 -0.63795 0.45659
vn 0.45610 -0.48770 0.74439
vn 0.83715 -0.28996 0.46380
vn 0.53754 -0.22261 0.81333
vn 0.22399 -0.19657 0.95456
vn 0.73391 0.15859 0.66047
vn 0.34304 0.05466 0.93773
vn 0.26618 0.02737 0.96354
vn 0.49280 0.12404 0.86126
vn 0.23869 -0.10081 0.96585
vn 0.42226 0.18568 0.88726
vn 0.63888 0.56713 0.51980
vn 0.72406 -0.41071 0.55413
vn 0.28360 -0.49964 0.81849
vn 0.20507 -0.86839 0.45150
vn 0.51018 -0.77333 0.37640
vn 0.79668 -0.01967 0.60408
vn 0.35816 -0.14586 0.92220
vn -0.85586 -0.12354 0.50223
vn -0.86366 -0.02373 0.50352
vn -0.54713 -0.10906 0.82991
vn -0.57878 -0.02365 0.81514
vn -0.09821 -0.08269 0.99172
vn -0.09864 0.00737 0.99510
vn 0.40118 0.02795 0.91557
vn 0.43453 0.11437 0.89336
vn 0.79326 0.15553 0.58868
vn 0.79230 0.23024 0.56503
vn 0.91115 0.19827 0.36123
vn 0.89165 0.27035 0.36314
vn -0.86499 -0.02113 0.50134
vn -0.86955 -0.03776 0.49240
vn -0.59369 -0.00763 0.80466
vn -0.60183 -0.01809 0.79842
vn -0.09031 0.04838 0.99474
vn -0.07811 0.06187 0.99502
vn 0.46833 0.15456 0.86993
vn 0.49643 0.17352 0.85056
vn 0.80308 0.25181 0.54005
vn 0.81607 0.25721 0.51757
vn 0.89064 0.28534 0.35403
vn -0.87819 -0.04966 0.47573
vn -0.88914 -0.04335 0.45557
vn -0.60862 -0.02612 0.79304
vn -0.61956 -0.02274 0.78462
vn -0.06534 0.06934 0.99545
vn -0.40166 0.00147 0.91579
vn 0.51715 0.18628 0.83538
vn 0.53637 0.19066 0.82216
vn 0.29636 0.13142 0.94599
vn 0.82593 0.26416 0.49806
vn 0.83516 0.26975 0.47931
vn -0.89912 -0.05043 0.43479
vn -0.90800 -0.05710 0.41507
vn -0.63376 -0.02736 0.77305
vn -0.64742 -0.02993 0.76155
vn -0.40939 -0.00102 0.91236
vn -0.41957 -0.00093 0.90772
vn 0.55316 0.19663 0.80954
vn 0.56829 0.19693 0.79891
vn 0.32515 0.13708 0.93568
vn 0.31306 0.13672 0.93984
vn 0.84417 0.27341 0.46111
vn 0.85392 0.27219 0.44354
vn -0.91783 -0.06841 0.39104
vn -0.92271 -0.14128 0.35868
vn -0.66350 -0.04605 0.74676
vn -0.68154 -0.10385 0.72437
vn -0.43711 -0.01678 0.89925
vn -0.46587 -0.05937 0.88286
vn 0.57594 0.20239 0.79204
vn 0.56190 0.21633 0.79842
vn 0.28232 0.15240 0.94714
vn 0.32319 0.13856 0.93614
vn 0.86073 0.27814 0.42636
vn 0.86477 0.28378 0.41429
vn 0.20489 0.92477 0.32066
vn -0.07306 0.98079 0.18089
vn -0.09578 0.94803 0.30342
vn -0.92238 0.31076 0.22942
vn -0.84798 0.48875 0.20508
vn -0.96622 0.04467 0.25383
vn -0.75040 0.05604 0.65860
vn -0.71287 -0.02454 0.70086
vn -0.96162 -0.06912 0.26553
vn -0.49842 0.06006 0.86485
vn -0.41619 0.01873 0.90908
vn 0.62998 0.18777 0.75357
vn 0.72129 0.18195 0.66831
vn 0.47580 0.13770 0.86871
vn 0.32135 0.11867 0.93949
vn 0.90966 0.26317 0.32134
vn 0.93542 0.22968 0.26877
vn 0.81670 0.22263 0.53239
vn 0.89113 0.26131 0.37094
vn 0.87266 0.27867 0.40100
vn 0.78537 0.24487 0.56853
vn 0.86512 0.28952 0.40957
vn 0.97397 0.01537 0.22615
vn 0.53299 -0.82496 0.18805
vn -0.44739 -0.86470 0.22833
vn -0.25888 -0.94387 0.20515
vn -0.38633 -0.78041 0.49163
vn 0.13957 -0.86666 0.47898
vn -0.64115 -0.71763 0.27191
vn -0.55231 -0.62647 0.54999
vn -0.66343 -0.67400 0.32494
vn -0.94173 -0.21102 0.26193
vn -0.76793 -0.59728 0.23139
vn -0.88871 -0.20623 0.40947
vn -0.71885 -0.58396 0.37716
vn -0.50865 -0.80101 0.31570
vn -0.54225 -0.81892 0.18796
vn -0.02952 -0.29644 0.95459
vn 0.27434 -0.23905 0.93145
vn 0.46822 -0.77567 0.42320
vn 0.52148 -0.81270 0.25995
vn 0.25669 -0.94337 0.21016
vn 0.24265 -0.90007 0.36194
vn 0.58708 -0.26533 0.76481
vn 0.81642 -0.46253 0.34571
vn 0.86945 -0.22454 0.44005
vn 0.84691 -0.11245 0.51972
vn 0.81293 -0.03587 0.58126
vn 0.48043 -0.01892 0.87683
vn 0.41168 0.01538 0.91120
vn 0.56164 -0.08832 0.82265
vn 0.05857 0.30492 0.95057
vn -0.03801 0.25134 0.96715
vn 0.38713 -0.05027 0.92065
vn -0.19887 0.75802 0.62117
vn -0.30982 0.65216 0.69188
vn -0.11193 0.61139 0.78337
vn -0.04736 0.66727 0.74331
vn -0.10300 0.82107 0.56145
vn -0.15820 0.95966 0.23245
vn -0.28777 0.91204 0.29218
vn -0.04812 0.84421 0.53385
vn -0.05278 0.97739 0.20474
vn -0.04079 0.68633 0.72615
vn -0.02513 0.85239 0.52230
vn -0.00757 0.98041 0.19680
vn -0.03762 0.69454 0.71847
vn -0.01442 0.87198 0.48932
vn -0.00351 0.98275 0.18492
vn -0.01921 0.73041 0.68274
vn 0.01428 0.88891 0.45785
vn 0.01447 0.98326 0.18161
vn 0.01085 0.76870 0.63951
vn 0.03088 0.75231 0.65808
vn 0.04730 0.87160 0.48792
vn 0.01816 -0.06946 0.99742
vn -0.17196 -0.00427 0.98510
vn -0.34658 -0.70084 0.62347
vn 0.12586 -0.78362 0.60835
vn -0.37872 -0.24420 0.89271
vn -0.09773 0.41313 0.90541
vn -0.34935 -0.19398 0.91669
vn -0.08080 0.37886 0.92192
vn -0.55445 -0.56039 0.61526
vn -0.53597 -0.52694 0.65960
vn -0.31230 -0.18182 0.93242
vn -0.66657 -0.64836 0.36785
vn -0.66786 -0.62559 0.40324
vn -0.52010 -0.49361 0.69703
vn 0.04697 0.97529 0.21587
vn -0.86167 -0.38647 0.32889
vn -0.56977 -0.77111 0.28416
vn 0.05660 -0.96438 0.25838
vn 0.62124 -0.72858 0.28851
vn 0.49525 -0.59680 0.63131
vn 0.51692 -0.49409 0.69905
vn 0.69769 -0.62131 0.35665
vn 0.38442 -0.25279 0.88787
vn 0.32372 -0.29367 0.89942
vn -0.11461 -0.16728 0.97922
vn -0.51998 -0.20277 0.82976
vn -0.15282 -0.00426 0.98824
vn -0.58009 0.03299 0.81388
vn -0.13571 0.10345 0.98533
vn -0.55557 0.20345 0.80619
vn -0.10050 0.18046 0.97844
vn -0.49057 0.37211 0.78796
vn -0.40886 0.52092 0.74932
vn -0.57607 0.69702 0.42698
vn -0.71489 0.51624 0.47163
vn -0.42725 0.82735 0.36462
vn -0.82306 -0.26363 0.50306
vn -0.86278 0.06676 0.50115
vn -0.82026 0.28503 0.49591
vn 0.06443 0.95733 0.28173
vn 0.06128 0.82481 0.56208
vn 0.05905 0.77344 0.63111
vn 0.06213 0.93516 0.34874
vn 0.05212 0.72720 0.68445
vn 0.05326 0.91436 0.40139
vn -0.06451 0.34018 0.93814
vn -0.05858 0.30883 0.94931
vn 0.04361 0.68862 0.72381
vn -0.28775 -0.16872 0.94273
vn -0.23652 -0.16774 0.95704
vn -0.05844 0.27979 0.95828
vn -0.45273 -0.49202 0.74361
vn -0.28803 -0.53444 0.79461
vn -0.14123 -0.18248 0.97301
vn -0.61085 -0.66019 0.43705
vn -0.41399 -0.77855 0.47168
vn 0.04918 0.89676 0.43978
vn 0.00485 0.88583 0.46398
vn 0.00393 0.65690 0.75396
vn -0.00603 0.62534 0.78033
vn -0.00126 0.87903 0.47677
vn -0.03732 0.24902 0.96778
vn 0.04438 0.22504 0.97334
vn 0.07337 0.59966 0.79688
vn -0.00062 -0.19394 0.98101
vn -0.05264 -0.56811 0.82127
vn -0.08291 -0.87026 0.48557
vn 0.11134 0.87043 0.47954
vn 0.96604 -0.16110 0.20204
f 1//1 8//2 9//3 10//4
f 1//1 11//5 12//6 13//7
f 1//1 14//8 15//9 8//2
f 1//1 13//7 16//10 14//8
f 2//11 17//12 18//13 19//14
f 2//11 19//14 20//15 21//16
f 2//11 21//16 22//17 17//12
f 3//18 23//19 24//20 25//21
f 3//18 25//21 26//22 27//23
f 3//18 27//23 28//24 23//19
f 4//25 29//26 30//27 31//28
f 4//29 31//30 32//30 33//31
f 4//29 33//31 34//32 35//33
f 1//1 10//4 36//34 37//35
f 1//1 37//35 38//36 11//5
f 5//37 39//38 40//39 41//40
f 5//37 41//40 42//41 43//42
f 5//37 43//42 44//43 39//38
f 6//44 45//45 46//46 47//47
f 6//44 48//48 49//49 45//45
f 6//44 47//47 50//50 48//48
f 7//51 51//52 52//53 53//54
f 55//55 56//56 51//52 7//51
f 7//51 53//54 54//57 55//55
f 57//58 58//59 59//60 60//61
f 60//61 59//60 61//62 62//63
f 60//61 62//63 294//64 63//65
f 60//61 63//65 64//66 57//58
f 64//66 65//67 58//59 57//58
f 65//67 295//68 18//13 58//59
f 295//68 66//69 19//14 18//13
f 66//69 296//70 20//15 19//14
f 296//70 297//71 67//72 20//15
f 67//72 297//71 298//73 68//74
f 67//72 68//74 69//75 70//76
f 67//72 70//76 21//16 20//15
f 70//76 69//75 71//77 72//78
f 70//76 72//78 22//17 21//16
f 72//78 71//77 73//79 74//80
f 72//78 74//80 61//62 22//17
f 74//80 73//79 75//81 76//82
f 74//80 76//82 62//63 61//62
f 76//82 75//81 77//83 299//84
f 76//82 299//84 294//64 62//63
f 78//85 79//86 80//87 81//88
f 78//85 81//88 68//74 298//73
f 81//88 80//87 82//89 83//90
f 81//88 83//90 69//75 68//74
f 83//90 82//89 84//91 85//92
f 83//90 85//92 71//77 69//75
f 85//92 84//91 86//93 87//94
f 85//92 87//94 73//79 71//77
f 87//94 86//93 88//95 89//96
f 87//94 89//96 75//81 73//79
f 89//96 88//95 300//97 90//98
f 89//96 90//98 77//83 75//81
f 92//99 91//100 93//101 94//102
f 92//99 94//102 80//87 79//86
f 94//102 93//101 95//103 96//104
f 94//102 96//104 82//89 80//87
f 96//104 95//103 97//105 98//106
f 96//104 98//106 84//91 82//89
f 98//106 97//107 99//108 100//109
f 98//106 100//109 86//93 84//91
f 100//109 99//108 101//110 102//111
f 100//109 102//111 88//95 86//93
f 102//111 101//110 103//112 301//113
f 102//111 301//113 300//97 88//95
f 303//114 302//115 104//116 105//117
f 303//114 105//117 93//101 91//100
f 105//117 104//116 106//118 107//119
f 105//117 107//119 95//103 93//101
f 107//119 106//118 108//120 109//121
f 107//119 109//121 97//105 95//103
f 109//122 108//123 110//124 111//125
f 109//122 111//125 99//108 97//107
f 111//125 110//124 112//126 113//127
f 111//125 113//127 101//110 99//108
f 113//127 112//126 114//128 115//129
f 113//127 115//129 103//112 101//110
f 117//130 116//131 118//132 119//133
f 117//130 119//133 104//116 302//115
f 119//133 118//132 120//134 121//135
f 119//133 121//135 106//118 104//116
f 121//135 120//134 122//136 123//137
f 121//135 123//137 108//120 106//118
f 123//138 122//139 124//140 125//141
f 123//138 125//141 110//124 108//123
f 125//141 124//140 126//142 127//143
f 125//141 127//143 112//126 110//124
f 127//143 126//142 304//144 305//145
f 127//143 305//145 114//128 112//126
f 133//146 54//57 53//54 307//147
f 133//146 132//148 134//149 54//57
f 134//149 16//10 55//55 54//57
f 134//149 132//148 131//150 135//151
f 134//149 135//151 14//152 16//10
f 135//153 131//154 308//155 136//156
f 135//153 136//156 15//9 14//8
f 136//156 308//155 309//157 137//158
f 136//156 137//158 138//159 15//9
f 138//159 137//158 139//160 140//161
f 138//159 140//161 141//162 142//163
f 138//159 142//163 8//2 15//9
f 142//164 141//165 143//166 144//167
f 142//164 144//167 9//3 8//2
f 144//167 143//166 145//168 146//169
f 144//167 146//169 147//170 9//171
f 147//170 146//169 130//172 129//173
f 147//170 129//173 128//174 148//175
f 147//170 148//175 10//176 9//171
f 148//175 128//174 306//177 149//178
f 148//175 149//178 36//34 10//176
f 149//178 306//177 304//144 126//142
f 149//178 126//142 124//140 36//34
f 146//169 145//168 150//179 130//172
f 150//179 145//168 151//180 310//181
f 152//182 311//182 154//183 155//183
f 152//184 155//185 156//186 153//187
f 156//186 155//185 157//188 158//189
f 156//186 158//189 159//190 160//191
f 156//186 160//191 161//192 153//187
f 161//192 160//191 162//193 163//194
f 166//195 165//196 167//197 168//198
f 166//195 168//198 139//160 169//199
f 169//199 139//160 137//158 309//157
f 168//198 167//197 33//200 32//201
f 168//198 32//201 140//161 139//160
f 167//197 170//202 171//203 33//200
f 167//197 165//196 164//204 170//202
f 171//205 172//206 173//206 174//205
f 171//205 174//205 34//32 33//31
f 171//207 170//208 175//209 172//210
f 175//209 176//211 177//212 172//210
f 175//209 170//208 164//213 178//214
f 175//209 178//214 179//215 176//211
f 179//215 180//216 181//217 176//211
f 182//218 312//219 183//220 184//221
f 182//218 184//221 181//217 180//216
f 184//221 183//220 185//222 186//223
f 184//221 186//223 187//224 181//217
f 187//224 186//223 188//225 189//226
f 187//224 189//226 190//227 177//212
f 187//224 177//212 176//211 181//217
f 190//228 189//226 191//229 192//230
f 190//228 192//230 193//231 173//232
f 190//227 173//206 172//206 177//212
f 193//231 192//230 194//233 195//234
f 193//231 195//234 196//235 197//236
f 193//231 197//236 174//237 173//232
f 197//236 196//235 198//238 199//239
f 197//236 199//239 34//240 174//237
f 199//239 198//238 200//241 201//242
f 199//239 201//242 35//243 34//240
f 201//242 200//241 202//244 203//245
f 201//242 203//245 204//246 35//243
f 204//246 203//245 205//247 206//248
f 204//249 206//250 207//250 208//249
f 204//249 208//249 4//29 35//33
f 208//251 207//252 158//189 157//188
f 208//251 157//188 29//26 4//25
f 207//250 206//250 209//253 210//254
f 207//252 210//254 159//190 158//189
f 210//254 209//253 211//255 212//256
f 210//254 212//256 213//257 159//190
f 213//257 212//256 214//258 215//259
f 213//257 215//259 216//260 162//193
f 213//257 162//193 160//191 159//190
f 216//260 215//259 217//261 218//262
f 216//260 218//262 219//263 220//264
f 216//260 220//264 163//194 162//193
f 221//265 313//266 222//267 202//244
f 221//265 202//244 200//241 314//268
f 314//268 200//241 198//238 223//269
f 223//269 198//238 196//235 224//270
f 224//270 196//235 195//234 315//271
f 226//272 225//273 227//274 228//275
f 226//272 228//275 118//132 116//131
f 228//275 227//274 11//5 38//36
f 228//275 38//36 120//134 118//132
f 227//274 225//273 316//276 229//277
f 227//274 229//277 12//6 11//5
f 229//277 316//278 317//279 230//280
f 229//277 230//280 231//281 12//6
f 231//281 230//280 232//282 233//283
f 231//281 233//283 234//284 235//285
f 231//281 235//285 13//7 12//6
f 235//285 234//284 56//56 55//55
f 235//285 55//55 16//10 13//7
f 234//284 233//283 39//38 44//43
f 234//284 44//43 236//286 56//56
f 236//286 44//43 43//42 237//287
f 236//286 237//287 238//288 239//289
f 236//286 239//289 51//52 56//56
f 239//289 238//288 240//290 241//291
f 239//289 241//291 52//53 51//52
f 241//291 240//290 242//292 243//293
f 241//291 243//293 185//222 52//53
f 243//293 242//292 244//294 188//225
f 243//293 188//225 186//223 185//222
f 244//294 242//292 245//295 246//296
f 244//294 246//296 247//297 191//229
f 244//294 191//229 189//226 188//225
f 247//297 246//296 318//298 248//299
f 247//297 248//299 319//300 194//233
f 247//297 194//233 192//230 191//229
f 250//301 320//302 251//303 42//41
f 250//301 42//41 41//40 252//304
f 252//304 41//40 40//39 253//305
f 253//305 40//39 232//282 254//306
f 254//306 232//282 230//280 317//279
f 251//303 320//302 321//307 255//308
f 251//303 255//308 238//288 237//287
f 251//303 237//287 43//42 42//41
f 255//308 321//307 322//309 256//310
f 255//308 256//310 240//290 238//288
f 256//310 322//309 249//311 245//295
f 256//310 245//295 242//292 240//290
f 249//311 318//298 246//296 245//295
f 233//283 232//282 40//39 39//38
f 319//300 315//271 195//234 194//233
f 222//267 313//266 323//312 257//313
f 222//267 257//313 258//314 205//247
f 222//267 205//247 203//245 202//244
f 258//314 257//313 259//315 260//316
f 258//314 260//316 211//255 209//253
f 258//314 209//253 206//248 205//247
f 260//316 259//315 261//317 262//318
f 260//316 262//318 263//319 211//255
f 263//319 262//318 264//320 265//321
f 263//319 265//321 266//322 214//258
f 263//319 214//258 212//256 211//255
f 266//322 265//321 267//323 268//324
f 266//322 268//324 269//325 217//261
f 266//322 217//261 215//259 214//258
f 269//325 268//324 270//326 271//327
f 269//325 271//327 272//328 273//329
f 269//325 273//329 218//262 217//261
f 273//329 272//328 274//330 324//331
f 273//329 324//331 219//263 218//262
f 276//332 275//333 261//317 259//315
f 276//332 259//315 257//313 323//312
f 275//333 325//334 277//335 261//317
f 277//335 325//334 326//336 278//337
f 277//335 278//337 279//338 264//320
f 277//335 264//320 262//318 261//317
f 279//338 278//337 280//339 281//340
f 279//338 281//340 282//341 267//323
f 279//338 267//323 265//321 264//320
f 282//341 281//340 283//342 284//343
f 282//341 284//343 285//344 270//326
f 282//341 270//326 268//324 267//323
f 285//344 284//343 28//24 50//50
f 285//344 50//50 47//47 286//345
f 285//344 286//345 271//327 270//326
f 286//345 47//47 46//46 287//346
f 286//345 287//346 272//328 271//327
f 287//346 46//46 327//347 288//348
f 287//346 288//348 274//330 272//328
f 329//349 328//350 289//351 280//339
f 329//349 280//339 278//337 326//336
f 289//351 328//350 290//352 24//20
f 289//351 24//20 23//19 283//342
f 289//351 283//342 281//340 280//339
f 290//352 291//353 25//21 24//20
f 291//353 292//354 26//22 25//21
f 292//354 293//355 49//49 26//22
f 293//355 330//356 45//45 49//49
f 330//356 327//347 46//46 45//45
f 284//343 283//342 23//19 28//24
f 185//222 183//220 53//54 52//53
f 183//220 312//219 307//147 53//54
f 157//188 155//183 154//183 29//26
f 154//357 151//180 30//27 29//26
f 154//357 311//358 310//181 151//180
f 151//180 145//168 143//166 30//27
f 143//166 141//165 31//28 30//27
f 141//162 140//161 32//30 31//30
f 124//140 122//139 37//35 36//34
f 122//136 120//134 38//36 37//35
f 61//62 59//60 17//12 22//17
f 59//60 58//59 18//13 17//12
f 50//50 28//24 27//23 48//48
f 49//49 48//48 27//23 26//22
f 340//359 339//360 338//360 331//361
f 343//362 342//363 341//364 331//361
f 338//365 345//366 344//367 331//368
f 344//367 346//369 343//370 331//368
f 349//371 348//372 347//373 332//374
f 351//375 350//376 349//371 332//374
f 347//373 352//377 351//375 332//374
f 355//378 354//379 353//380 333//381
f 357//382 356//383 355//378 333//381
f 353//380 358//384 357//382 333//381
f 361//385 360//386 359//387 334//388
f 363//389 362//390 361//390 334//391
f 365//392 364//393 363//389 334//391
f 367//394 366//395 340//359 331//361
f 341//364 368//396 367//394 331//361
f 371//397 370//398 369//399 335//400
f 373//401 372//402 371//397 335//400
f 369//399 374//403 373//401 335//400
f 377//404 376//405 375//406 336//407
f 375//406 379//408 378//409 336//407
f 378//409 380//410 377//404 336//407
f 383//411 382//412 381//413 337//414
f 337//414 381//413 386//415 385//416
f 385//416 384//417 383//411 337//414
f 390//418 389//419 388//420 387//421
f 392//422 391//423 389//419 390//418
f 63//65 294//64 392//422 390//418
f 387//421 64//66 63//65 390//418
f 387//421 388//420 65//67 64//66
f 388//420 348//372 295//68 65//67
f 348//372 349//371 66//69 295//68
f 349//371 350//376 296//70 66//69
f 350//376 393//424 297//71 296//70
f 394//425 298//73 297//71 393//424
f 396//426 395//427 394//425 393//424
f 350//376 351//375 396//426 393//424
f 398//428 397//429 395//427 396//426
f 351//375 352//377 398//428 396//426
f 400//430 399//431 397//429 398//428
f 352//377 391//423 400//430 398//428
f 402//432 401//433 399//431 400//430
f 391//423 392//422 402//432 400//430
f 299//434 77//435 401//433 402//432
f 392//422 294//64 299//434 402//432
f 404//436 403//437 79//86 78//85
f 298//73 394//425 404//436 78//85
f 406//438 405//439 403//437 404//436
f 394//425 395//427 406//438 404//436
f 408//440 407//441 405//439 406//438
f 395//427 397//429 408//440 406//438
f 410//442 409//443 407//441 408//440
f 397//429 399//431 410//442 408//440
f 412//444 411//445 409//443 410//442
f 399//431 401//433 412//444 410//442
f 90//446 300//97 411//445 412//444
f 401//433 77//435 90//446 412//444
f 414//447 413//448 91//100 92//99
f 79//86 403//437 414//447 92//99
f 416//449 415//450 413//448 414//447
f 403//437 405//439 416//449 414//447
f 418//451 417//452 415//450 416//449
f 405//439 407//441 418//451 416//449
f 420//453 419//454 417//455 418//451
f 407//441 409//443 420//453 418//451
f 422//456 421//457 419//454 420//453
f 409//443 411//445 422//456 420//453
f 301//113 103//112 421//457 422//456
f 411//445 300//97 301//113 422//456
f 424//458 423//459 302//115 303//114
f 91//100 413//448 424//458 303//114
f 426//460 425//461 423//459 424//458
f 413//448 415//450 426//460 424//458
f 428//462 427//463 425//461 426//460
f 415//450 417//452 428//462 426//460
f 430//464 429//465 427//466 428//467
f 417//455 419//454 430//464 428//467
f 432//468 431//469 429//465 430//464
f 419//454 421//457 432//468 430//464
f 115//129 114//128 431//469 432//468
f 421//457 103//112 115//129 432//468
f 434//470 433//471 116//131 117//130
f 302//115 423//459 434//470 117//130
f 436//472 435//473 433//471 434//470
f 423//459 425//461 436//472 434//470
f 438//474 437//475 435//473 436//472
f 425//461 427//463 438//474 436//472
f 440//476 439//477 437//478 438//479
f 427//466 429//465 440//476 438//479
f 442//480 441//481 439//477 440//476
f 429//465 431//469 442//480 440//476
f 305//145 304//144 441//481 442//480
f 431//469 114//128 305//145 442//480
f 307//147 383//411 384//417 133//146
f 384//417 443//482 132//148 133//146
f 384//417 385//416 346//369 443//482
f 444//483 131//150 132//148 443//482
f 346//369 344//484 444//483 443//482
f 445//485 308//155 131//154 444//486
f 344//367 345//366 445//485 444//486
f 446//487 309//157 308//155 445//485
f 345//366 447//488 446//487 445//485
f 449//489 448//490 446//487 447//488
f 451//491 450//492 449//489 447//488
f 345//366 338//365 451//491 447//488
f 453//493 452//494 450//495 451//496
f 338//360 339//360 453//493 451//496
f 455//497 454//498 452//494 453//493
f 339//499 456//500 455//497 453//493
f 129//173 130//172 455//497 456//500
f 457//501 128//174 129//173 456//500
f 339//499 340//502 457//501 456//500
f 458//503 306//177 128//174 457//501
f 340//502 366//395 458//503 457//501
f 441//481 304//144 306//177 458//503
f 366//395 439//477 441//481 458//503
f 130//172 150//179 454//498 455//497
f 310//181 459//504 454//498 150//179
f 461//505 460//505 311//182 152//182
f 153//187 462//506 461//507 152//184
f 464//508 463//509 461//507 462//506
f 466//510 465//511 464//508 462//506
f 153//187 161//192 466//510 462//506
f 163//194 467//512 466//510 161//192
f 469//513 468//514 165//196 166//195
f 169//199 448//490 469//513 166//195
f 309//157 446//487 448//490 169//199
f 362//515 363//516 468//514 469//513
f 448//490 449//489 362//515 469//513
f 363//516 471//517 470//518 468//514
f 470//518 164//204 165//196 468//514
f 474//519 473//520 472//520 471//519
f 363//389 364//393 474//519 471//519
f 472//521 475//522 470//523 471//524
f 472//521 477//525 476//526 475//522
f 178//214 164//213 470//523 475//522
f 476//526 179//215 178//214 475//522
f 476//526 478//527 180//216 179//215
f 480//528 479//529 312//219 182//218
f 180//216 478//527 480//528 182//218
f 482//530 481//531 479//529 480//528
f 478//527 483//532 482//530 480//528
f 485//533 484//534 482//530 483//532
f 477//525 486//535 485//533 483//532
f 478//527 476//526 477//525 483//532
f 488//536 487//537 485//533 486//538
f 473//539 489//540 488//536 486//538
f 477//525 472//520 473//520 486//535
f 491//541 490//542 488//536 489//540
f 493//543 492//544 491//541 489//540
f 473//539 474//545 493//543 489//540
f 495//546 494//547 492//544 493//543
f 474//545 364//548 495//546 493//543
f 497//549 496//550 494//547 495//546
f 364//548 365//551 497//549 495//546
f 499//552 498//553 496//550 497//549
f 365//551 500//554 499//552 497//549
f 502//555 501//556 499//552 500//554
f 504//557 503//558 502//558 500//557
f 365//392 334//391 504//557 500//557
f 463//509 464//508 503//559 504//560
f 334//388 359//387 463//509 504//560
f 506//561 505//562 502//558 503//558
f 464//508 465//511 506//561 503//559
f 508//563 507//564 505//562 506//561
f 465//511 509//565 508//563 506//561
f 511//566 510//567 508//563 509//565
f 467//512 512//568 511//566 509//565
f 465//511 466//510 467//512 509//565
f 514//569 513//570 511//566 512//568
f 220//264 219//263 514//569 512//568
f 467//512 163//194 220//264 512//568
f 498//553 515//571 313//266 221//265
f 314//268 496//550 498//553 221//265
f 223//269 494//547 496//550 314//268
f 224//270 492//544 494//547 223//269
f 315//271 491//541 492//544 224//270
f 517//572 516//573 225//273 226//272
f 116//131 433//471 517//572 226//272
f 368//396 341//364 516//573 517//572
f 433//471 435//473 368//396 517//572
f 518//574 316//276 225//273 516//573
f 341//364 342//363 518//574 516//573
f 519//575 317//279 316//278 518//574
f 342//363 520//576 519//575 518//574
f 522//577 521//578 519//575 520//576
f 524//579 523//580 522//577 520//576
f 342//363 343//362 524//579 520//576
f 385//416 386//415 523//580 524//579
f 343//370 346//369 385//416 524//579
f 374//403 369//399 522//577 523//580
f 386//415 525//581 374//403 523//580
f 526//582 373//401 374//403 525//581
f 528//583 527//584 526//582 525//581
f 386//415 381//413 528//583 525//581
f 530//585 529//586 527//584 528//583
f 381//413 382//412 530//585 528//583
f 532//587 531//588 529//586 530//585
f 382//412 481//531 532//587 530//585
f 484//534 533//589 531//588 532//587
f 481//531 482//530 484//534 532//587
f 535//590 534//591 531//588 533//589
f 487//537 536//592 535//590 533//589
f 484//534 485//533 487//537 533//589
f 248//299 318//298 535//590 536//592
f 490//542 319//300 248//299 536//592
f 487//537 488//536 490//542 536//592
f 372//402 537//593 320//302 250//301
f 252//304 371//397 372//402 250//301
f 253//305 370//398 371//397 252//304
f 254//306 521//578 370//398 253//305
f 317//279 519//575 521//578 254//306
f 538//594 321//307 320//302 537//593
f 526//582 527//584 538//594 537//593
f 372//402 373//401 526//582 537//593
f 539//595 322//309 321//307 538//594
f 527//584 529//586 539//595 538//594
f 534//591 249//311 322//309 539//595
f 529//586 531//588 534//591 539//595
f 534//591 535//590 318//298 249//311
f 369//399 370//398 521//578 522//577
f 490//542 491//541 315//271 319//300
f 540//596 323//312 313//266 515//571
f 501//556 541//597 540//596 515//571
f 498//553 499//552 501//556 515//571
f 543//598 542//599 540//596 541//597
f 505//562 507//564 543//598 541//597
f 501//556 502//555 505//562 541//597
f 545//600 544//601 542//599 543//598
f 507//564 546//602 545//600 543//598
f 548//603 547//604 545//600 546//602
f 510//567 549//605 548//603 546//602
f 507//564 508//563 510//567 546//602
f 551//606 550//607 548//603 549//605
f 513//570 552//608 551//606 549//605
f 510//567 511//566 513//570 549//605
f 554//609 553//610 551//606 552//608
f 556//611 555//612 554//609 552//608
f 513//570 514//569 556//611 552//608
f 324//331 274//330 555//612 556//611
f 514//569 219//263 324//331 556//611
f 542//599 544//601 275//333 276//332
f 323//312 540//596 542//599 276//332
f 544//601 557//613 325//334 275//333
f 558//614 326//336 325//334 557//613
f 547//604 559//615 558//614 557//613
f 544//601 545//600 547//604 557//613
f 561//616 560//617 558//614 559//615
f 550//607 562//618 561//616 559//615
f 547//604 548//603 550//607 559//615
f 564//619 563//620 561//616 562//618
f 553//610 565//621 564//619 562//618
f 550//607 551//606 553//610 562//618
f 380//410 358//384 564//619 565//621
f 566//622 377//404 380//410 565//621
f 553//610 554//609 566//622 565//621
f 567//623 376//405 377//404 566//622
f 554//609 555//612 567//623 566//622
f 288//348 327//347 376//405 567//623
f 555//612 274//330 288//348 567//623
f 560//617 568//624 328//350 329//349
f 326//336 558//614 560//617 329//349
f 354//379 290//352 328//350 568//624
f 563//620 353//380 354//379 568//624
f 560//617 561//616 563//620 568//624
f 354//379 355//378 291//353 290//352
f 355//378 356//383 292//354 291//353
f 356//383 379//408 293//355 292//354
f 379//408 375//406 330//356 293//355
f 375//406 376//405 327//347 330//356
f 358//384 353//380 563//620 564//619
f 382//412 383//411 479//529 481//531
f 383//411 307//147 312//219 479//529
f 359//387 460//505 461//505 463//509
f 359//387 360//386 459//504 460//625
f 459//504 310//181 311//358 460//625
f 360//386 452//494 454//498 459//504
f 360//386 361//385 450//495 452//494
f 361//390 362//390 449//489 450//492
f 366//395 367//394 437//478 439//477
f 367//394 368//396 435//473 437//475
f 352//377 347//373 389//419 391//423
f 347//373 348//372 388//420 389//419
f 378//409 357//382 358//384 380//410
f 356//383 357//382 378//409 379//408
