# pilowlava3D glyph 'u' variant 2 — Vincent Wagner / Velvetyne, Free Art License
v 0.45496 2.09999 0.52220
v 1.76897 3.38770 0.21237
v 1.93059 3.05185 0.34535
v 2.82402 4.07599 0.43634
v 0.28963 4.38568 0.26861
v 0.53171 2.53171 0.33559
v 0.34062 2.38006 0.45034
v 0.18437 2.30478 0.39767
v 0.20857 2.07744 0.42212
v 0.68611 2.28287 0.51698
v 0.39528 1.79538 0.51168
v 0.61507 1.69972 0.44462
v 0.73112 1.90057 0.46353
v 0.88351 2.06656 0.46802
v 0.20695 1.82081 0.42287
v 1.76537 3.41992 -0.00000
v 1.62199 3.33920 0.27485
v 1.80620 3.21414 0.39870
v 1.94228 3.29991 0.23553
v 2.02219 3.04743 0.20647
v 1.79274 2.89412 0.40298
v 1.89600 2.79351 0.22017
v 0.99570 4.09727 0.27819
v 0.84035 4.29687 0.33821
v 0.70497 4.05950 0.47274
v 0.92516 3.89142 0.31490
v 3.49118 4.37933 0.25725
v 3.25540 4.43217 0.30361
v 3.33153 4.21016 0.47681
v 3.60060 4.21977 0.31623
v 3.02525 4.17139 0.49516
v 2.93396 4.38774 0.31033
v 2.69322 4.16185 0.28358
v 2.84056 3.87533 0.45477
v 3.10687 3.93541 0.55132
v 2.64603 3.85344 0.26084
v 0.26242 4.44444 -0.00000
v 0.17963 4.22030 0.30464
v 0.43272 4.18196 0.47291
v 0.54800 4.41250 0.32439
v 0.70001 2.74680 -0.00000
v 0.38327 2.68491 -0.00000
v 0.88814 2.43691 0.51270
v 0.75233 2.64810 0.32493
v 0.34792 2.65152 0.26010
v 0.24930 2.58542 0.39016
v 0.27264 2.80277 0.23012
v 0.20305 2.79242 0.35347
v 0.10806 2.78192 0.33943
v 0.14021 2.54384 0.36093
v 0.03867 2.77660 0.20774
v 0.05013 2.52495 0.21160
v 0.06361 2.28093 0.22341
v 0.00360 2.51822 -0.00000
v 0.06981 2.05418 0.23124
v 0.00714 1.81610 -0.00000
v 0.07004 1.81921 0.22807
v 0.00652 1.56916 -0.00000
v 0.06296 1.56849 0.21905
v 0.17932 1.55556 0.39790
v 0.34116 1.52175 0.47075
v 0.06039 1.29150 0.20893
v 0.16019 1.28467 0.36954
v 0.30193 1.27167 0.42479
v 0.43655 1.25731 0.36702
v 0.50760 1.47711 0.40960
v 0.19104 1.01032 0.34507
v 0.30959 1.02628 0.38659
v 0.41936 1.03990 0.33626
v 0.50096 1.05363 0.19224
v 0.53963 1.24765 0.20821
v 0.38490 0.79233 0.36489
v 0.46991 0.83147 0.31565
v 0.53148 0.86149 0.18203
v 0.52592 1.05946 -0.00000
v 0.58780 0.65180 0.30745
v 0.63248 0.69267 0.17867
v 0.79239 0.57567 0.18148
v 1.71997 0.00000 -0.00000
v 1.44945 0.01389 -0.00000
v 1.98166 0.06905 0.23365
v 1.71715 0.05673 0.22497
v 2.24274 0.09855 0.24128
v 2.20863 0.25307 0.44230
v 1.95729 0.20851 0.42651
v 2.50656 0.15587 0.24564
v 2.45654 0.31472 0.45115
v 2.37117 0.54879 0.53953
v 2.14348 0.47516 0.53013
v 2.77161 0.23965 0.25140
v 2.69945 0.39949 0.45722
v 2.59219 0.63565 0.54775
v 2.47942 0.86839 0.45310
v 2.27654 0.77775 0.44758
v 2.93417 0.51599 0.45929
v 2.80386 0.74079 0.54644
v 2.67484 0.96561 0.44936
v 2.58768 1.12046 0.24314
v 2.39751 1.02321 0.24387
v 3.00325 0.86873 0.53477
v 2.86185 1.07527 0.44173
v 2.77313 1.21991 0.23931
v 2.73347 1.29077 -0.00000
v 2.54648 1.19418 -0.00000
v 3.04167 1.19614 0.42864
v 2.95441 1.32324 0.23365
v 3.12950 1.43201 0.22633
v 3.83810 2.09607 -0.00000
v 3.83847 1.81261 -0.00000
v 3.80446 2.35981 0.19596
v 3.81346 2.09416 0.18848
v 3.78773 2.61547 0.20974
v 3.69609 2.59134 0.36329
v 3.73796 2.34563 0.33062
v 3.76837 2.85871 0.22409
v 3.65334 2.83238 0.39166
v 3.50995 2.79341 0.44726
v 3.58484 2.56289 0.41025
v 3.75114 3.09687 0.23897
v 3.61252 3.07158 0.42064
v 3.43324 3.02518 0.48366
v 3.26291 2.97317 0.40572
v 3.37076 2.75032 0.38137
v 3.56644 3.30907 0.45400
v 3.35214 3.26037 0.51542
v 3.15678 3.19574 0.42424
v 3.02641 3.13253 0.23271
v 3.14624 2.92376 0.22435
v 3.26468 3.49663 0.54065
v 3.03958 3.41733 0.43859
v 2.89639 3.34412 0.23564
v 2.83211 3.30322 -0.00000
v 2.96881 3.09745 -0.00000
v 2.92168 3.63637 0.45206
v 2.73988 3.56667 0.25021
v 2.66682 3.54104 -0.00000
v 2.57373 3.85431 -0.00000
v 2.63310 4.20380 -0.00000
v 2.89774 4.46142 -0.00000
v 3.23706 4.51466 -0.00000
v 3.52388 4.42689 -0.00000
v 3.67458 4.00313 0.31462
v 3.09811 2.89555 -0.00000
v 3.26724 2.71537 0.21363
v 3.38657 2.50966 0.20089
v 3.47607 2.53266 0.35603
v 3.48634 2.30525 0.18482
v 3.55884 2.31299 0.32302
v 3.64716 2.32745 0.37186
v 3.59496 2.08982 0.29967
v 3.67633 2.09005 0.34582
v 3.75938 2.09210 0.30899
v 3.66373 1.85177 0.35592
v 3.75002 1.83469 0.31698
v 3.81105 1.81956 0.19011
v 3.70930 1.57277 0.35153
v 3.79178 1.53595 0.20132
v 3.82303 1.52240 -0.00000
v 3.72890 1.25426 0.21773
v 2.35733 1.09637 -0.00000
v 2.20224 0.93059 0.24336
v 2.00336 0.83685 0.23834
v 2.06615 0.69415 0.43873
v 1.80327 0.74724 0.23177
v 1.85141 0.61195 0.42326
v 1.90756 0.41175 0.50771
v 1.63428 0.53751 0.40333
v 1.66977 0.35968 0.48043
v 1.70215 0.17865 0.40772
v 1.42784 0.32595 0.44718
v 1.44095 0.17378 0.38770
v 1.44829 0.06281 0.21736
v 1.17842 0.19421 0.36790
v 1.17566 0.09721 0.20970
v 1.17563 0.05875 -0.00000
v 0.89984 0.17042 0.20287
v 0.58058 1.24190 -0.00000
v 0.63301 1.43289 0.22962
v 0.75597 1.60725 0.24580
v 0.89594 1.77337 0.25420
v 1.11406 1.88529 -0.00000
v 1.04318 1.93844 0.25720
v 1.26973 2.05747 -0.00000
v 1.20258 2.11372 0.25706
v 1.06572 2.23892 0.46596
v 1.36957 2.28420 0.25439
v 1.24693 2.41086 0.45946
v 1.07603 2.60322 0.50214
v 1.42543 2.57658 0.44730
v 1.25305 2.76440 0.49175
v 1.09863 2.93303 0.30508
v 0.92995 2.78324 0.31399
v 1.03011 3.01033 -0.00000
v 0.86427 2.87244 -0.00000
v 0.19844 0.71221 -0.00000
v 0.07825 0.99753 -0.00000
v 0.38333 0.46237 -0.00000
v 0.39912 0.47776 0.19215
v 0.22191 0.72124 0.19297
v 0.63339 0.29345 0.19834
v 0.66443 0.35312 0.32513
v 0.44974 0.52344 0.31879
v 0.91566 0.24749 0.34360
v 0.93904 0.34878 0.38260
v 0.71329 0.44024 0.35968
v 1.18373 0.31737 0.41546
v 1.18658 0.43894 0.35803
v 0.96422 0.44763 0.33337
v 1.41252 0.47446 0.38156
v 1.39862 0.58597 0.21247
v 1.19211 0.53571 0.20105
v 1.60251 0.65929 0.22168
v 1.58197 0.71286 -0.00000
v 1.38876 0.63194 -0.00000
v 3.30342 0.48780 -0.00000
v 3.06670 0.30725 -0.00000
v 3.45930 0.74380 0.24533
v 3.25792 0.53722 0.25084
v 3.61566 0.98644 0.23313
v 3.50847 1.06511 0.41669
v 3.34543 0.84984 0.44049
v 3.63290 1.30954 0.38586
v 3.50299 1.39184 0.43948
v 3.35669 1.19275 0.48531
v 3.60811 1.61549 0.39273
v 3.51157 1.65640 0.33902
v 3.38528 1.47542 0.37777
v 3.58070 1.86604 0.30672
v 3.52086 1.87654 0.17593
v 3.43179 1.68982 0.18981
v 3.53896 2.09088 0.17459
v 3.50313 1.87865 -0.00000
v 3.45862 2.30263 -0.00000
v 3.81129 3.56009 -0.00000
v 3.81654 3.33192 -0.00000
v 3.73473 3.33011 0.25487
v 3.82008 3.10014 -0.00000
v 3.71297 3.55742 0.26997
v 3.51500 3.54272 0.47944
v 3.69919 3.78086 0.29146
v 3.46959 3.76468 0.50361
v 3.18021 3.71850 0.55338
v 3.40956 3.97967 0.51951
v 3.40465 1.70233 -0.00000
v 3.29137 1.54754 0.21187
v 3.21861 1.32601 0.40883
v 3.18761 1.01906 0.51814
v 3.15173 0.66672 0.45320
v 3.02591 0.36639 0.25300
v 2.80426 0.17194 -0.00000
v 1.19437 0.57196 -0.00000
v 0.98708 0.52675 0.18981
v 0.75864 0.51961 0.31447
v 0.52461 0.59320 0.35641
v 0.28909 0.74907 0.32741
v 0.10918 1.00033 0.19877
v 0.01845 1.29231 -0.00000
v 0.34874 2.97087 -0.00000
v 0.30243 2.81073 -0.00000
v 0.30904 2.98135 0.23334
v 0.47501 3.13754 -0.00000
v 0.41772 3.16145 0.25483
v 0.29759 3.20613 0.40143
v 0.22345 2.99551 0.35995
v 0.16505 3.24506 0.39304
v 0.11998 3.01460 0.35355
v 0.05365 3.27473 0.23667
v 0.04004 3.02801 0.21677
v 0.00052 2.77471 -0.00000
v 0.61049 3.30519 -0.00000
v 0.74234 3.47142 -0.00000
v 0.66679 3.53165 0.28770
v 0.53964 3.34743 0.27434
v 0.48833 3.63879 0.47121
v 0.39279 3.41730 0.44169
v 0.27277 3.71360 0.46567
v 0.21976 3.47556 0.43446
v 0.09090 3.74677 0.27702
v 0.07191 3.51060 0.26019
v 0.88168 3.63577 -0.00000
v 0.79588 3.70432 0.30523
v 0.59018 3.84756 0.49113
v 0.33527 3.94741 0.48868
v 0.10982 3.98473 0.29430
v 1.06961 4.11341 -0.00000
v 0.90923 4.40085 -0.00000
v 0.57828 4.51129 -0.00000
v 1.43057 2.22906 -0.00000
v 1.54083 2.45313 0.24793
v 1.71405 2.62061 0.23664
v 1.60667 2.73688 0.43348
v 1.61636 3.06931 0.46291
v 1.43182 2.92114 0.48397
v 1.43779 3.22550 0.29638
v 1.26787 3.08069 0.29966
v 1.19835 3.14997 -0.00000
v 1.93394 2.76469 -0.00000
v 2.05388 3.03981 -0.00000
v 1.97087 3.31738 -0.00000
v 1.55849 3.39435 -0.00000
v 0.08546 4.24640 -0.00000
v 0.52509 2.65289 -0.00000
v 0.00575 2.27484 -0.00000
v 0.00645 2.04745 -0.00000
v 0.54678 0.87022 -0.00000
v 0.64453 0.70421 -0.00000
v 0.80270 0.59133 -0.00000
v 1.98723 0.00426 -0.00000
v 2.25557 0.02777 -0.00000
v 2.52882 0.08341 -0.00000
v 2.91641 1.38728 -0.00000
v 3.09282 1.48313 -0.00000
v 3.83470 2.36753 -0.00000
v 3.82974 2.62387 -0.00000
v 3.82414 2.86596 -0.00000
v 3.70277 4.24497 -0.00000
v 3.78172 4.01914 -0.00000
v 3.22574 2.69529 -0.00000
v 3.35074 2.49840 -0.00000
v 3.76543 1.23342 -0.00000
v 2.16394 1.00057 -0.00000
v 1.96927 0.90301 -0.00000
v 0.89572 0.14034 -0.00000
v 0.68654 1.40574 -0.00000
v 0.81776 1.55949 -0.00000
v 0.96161 1.71798 -0.00000
v 0.62427 0.27094 -0.00000
v 1.77478 0.80692 -0.00000
v 3.50581 0.70552 -0.00000
v 3.65923 0.95856 -0.00000
v 3.52113 2.09153 -0.00000
v 3.80684 3.78779 -0.00000
v 3.25760 1.57979 -0.00000
v 0.99535 0.55213 -0.00000
v 0.00169 3.28352 -0.00000
v 0.00000 3.03233 -0.00000
v 0.00641 3.75353 -0.00000
v 0.00290 3.52075 -0.00000
v 1.02039 3.83269 -0.00000
v 0.01807 3.99457 -0.00000
v 1.59477 2.40217 -0.00000
v 1.76114 2.57600 -0.00000
v 1.36848 3.28717 -0.00000
v 0.45496 2.09999 -0.52220
v 1.76897 3.38770 -0.21237
v 1.93059 3.05185 -0.34535
v 2.82402 4.07599 -0.43634
v 0.28963 4.38568 -0.26861
v 0.53171 2.53171 -0.33559
v 0.34062 2.38006 -0.45034
v 0.18437 2.30478 -0.39767
v 0.20857 2.07744 -0.42212
v 0.68611 2.28287 -0.51698
v 0.39528 1.79538 -0.51168
v 0.61507 1.69972 -0.44462
v 0.73112 1.90057 -0.46353
v 0.88351 2.06656 -0.46802
v 0.20695 1.82081 -0.42287
v 1.62199 3.33920 -0.27485
v 1.80620 3.21414 -0.39870
v 1.94228 3.29991 -0.23553
v 2.02219 3.04743 -0.20647
v 1.79274 2.89412 -0.40298
v 1.89600 2.79351 -0.22017
v 0.99570 4.09727 -0.27819
v 0.84035 4.29687 -0.33821
v 0.70497 4.05950 -0.47274
v 0.92516 3.89142 -0.31490
v 3.49118 4.37933 -0.25725
v 3.25540 4.43217 -0.30361
v 3.33153 4.21016 -0.47681
v 3.60060 4.21977 -0.31623
v 3.02525 4.17139 -0.49516
v 2.93396 4.38774 -0.31033
v 2.69322 4.16185 -0.28358
v 2.84056 3.87533 -0.45477
v 3.10687 3.93541 -0.55132
v 2.64603 3.85344 -0.26084
v 0.17963 4.22030 -0.30464
v 0.43272 4.18196 -0.47291
v 0.54800 4.41250 -0.32439
v 0.88814 2.43691 -0.51270
v 0.75233 2.64810 -0.32493
v 0.34792 2.65152 -0.26010
v 0.24930 2.58542 -0.39016
v 0.27264 2.80277 -0.23012
v 0.20305 2.79242 -0.35347
v 0.10806 2.78192 -0.33943
v 0.14021 2.54384 -0.36093
v 0.03867 2.77660 -0.20774
v 0.05013 2.52495 -0.21160
v 0.06361 2.28093 -0.22341
v 0.06981 2.05418 -0.23124
v 0.07004 1.81921 -0.22807
v 0.06296 1.56849 -0.21905
v 0.17932 1.55556 -0.39790
v 0.34116 1.52175 -0.47075
v 0.06039 1.29150 -0.20893
v 0.16019 1.28467 -0.36954
v 0.30193 1.27167 -0.42479
v 0.43655 1.25731 -0.36702
v 0.50760 1.47711 -0.40960
v 0.19104 1.01032 -0.34507
v 0.30959 1.02628 -0.38659
v 0.41936 1.03990 -0.33626
v 0.50096 1.05363 -0.19224
v 0.53963 1.24765 -0.20821
v 0.38490 0.79233 -0.36489
v 0.46991 0.83147 -0.31565
v 0.53148 0.86149 -0.18203
v 0.58780 0.65180 -0.30745
v 0.63248 0.69267 -0.17867
v 0.79239 0.57567 -0.18148
v 1.98166 0.06905 -0.23365
v 1.71715 0.05673 -0.22497
v 2.24274 0.09855 -0.24128
v 2.20863 0.25307 -0.44230
v 1.95729 0.20851 -0.42651
v 2.50656 0.15587 -0.24564
v 2.45654 0.31472 -0.45115
v 2.37117 0.54879 -0.53953
v 2.14348 0.47516 -0.53013
v 2.77161 0.23965 -0.25140
v 2.69945 0.39949 -0.45722
v 2.59219 0.63565 -0.54775
v 2.47942 0.86839 -0.45310
v 2.27654 0.77775 -0.44758
v 2.93417 0.51599 -0.45929
v 2.80386 0.74079 -0.54644
v 2.67484 0.96561 -0.44936
v 2.58768 1.12046 -0.24314
v 2.39751 1.02321 -0.24387
v 3.00325 0.86873 -0.53477
v 2.86185 1.07527 -0.44173
v 2.77313 1.21991 -0.23931
v 3.04167 1.19614 -0.42864
v 2.95441 1.32324 -0.23365
v 3.12950 1.43201 -0.22633
v 3.80446 2.35981 -0.19596
v 3.81346 2.09416 -0.18848
v 3.78773 2.61547 -0.20974
v 3.69609 2.59134 -0.36329
v 3.73796 2.34563 -0.33062
v 3.76837 2.85871 -0.22409
v 3.65334 2.83238 -0.39166
v 3.50995 2.79341 -0.44726
v 3.58484 2.56289 -0.41025
v 3.75114 3.09687 -0.23897
v 3.61252 3.07158 -0.42064
v 3.43324 3.02518 -0.48366
v 3.26291 2.97317 -0.40572
v 3.37076 2.75032 -0.38137
v 3.56644 3.30907 -0.45400
v 3.35214 3.26037 -0.51542
v 3.15678 3.19574 -0.42424
v 3.02641 3.13253 -0.23271
v 3.14624 2.92376 -0.22435
v 3.26468 3.49663 -0.54065
v 3.03958 3.41733 -0.43859
v 2.89639 3.34412 -0.23564
v 2.92168 3.63637 -0.45206
v 2.73988 3.56667 -0.25021
v 3.67458 4.00313 -0.31462
v 3.26724 2.71537 -0.21363
v 3.38657 2.50966 -0.20089
v 3.47607 2.53266 -0.35603
v 3.48634 2.30525 -0.18482
v 3.55884 2.31299 -0.32302
v 3.64716 2.32745 -0.37186
v 3.59496 2.08982 -0.29967
v 3.67633 2.09005 -0.34582
v 3.75938 2.09210 -0.30899
v 3.66373 1.85177 -0.35592
v 3.75002 1.83469 -0.31698
v 3.81105 1.81956 -0.19011
v 3.70930 1.57277 -0.35153
v 3.79178 1.53595 -0.20132
v 3.72890 1.25426 -0.21773
v 2.20224 0.93059 -0.24336
v 2.00336 0.83685 -0.23834
v 2.06615 0.69415 -0.43873
v 1.80327 0.74724 -0.23177
v 1.85141 0.61195 -0.42326
v 1.90756 0.41175 -0.50771
v 1.63428 0.53751 -0.40333
v 1.66977 0.35968 -0.48043
v 1.70215 0.17865 -0.40772
v 1.42784 0.32595 -0.44718
v 1.44095 0.17378 -0.38770
v 1.44829 0.06281 -0.21736
v 1.17842 0.19421 -0.36790
v 1.17566 0.09721 -0.20970
v 0.89984 0.17042 -0.20287
v 0.63301 1.43289 -0.22962
v 0.75597 1.60725 -0.24580
v 0.89594 1.77337 -0.25420
v 1.04318 1.93844 -0.25720
v 1.20258 2.11372 -0.25706
v 1.06572 2.23892 -0.46596
v 1.36957 2.28420 -0.25439
v 1.24693 2.41086 -0.45946
v 1.07603 2.60322 -0.50214
v 1.42543 2.57658 -0.44730
v 1.25305 2.76440 -0.49175
v 1.09863 2.93303 -0.30508
v 0.92995 2.78324 -0.31399
v 0.39912 0.47776 -0.19215
v 0.22191 0.72124 -0.19297
v 0.63339 0.29345 -0.19834
v 0.66443 0.35312 -0.32513
v 0.44974 0.52344 -0.31879
v 0.91566 0.24749 -0.34360
v 0.93904 0.34878 -0.38260
v 0.71329 0.44024 -0.35968
v 1.18373 0.31737 -0.41546
v 1.18658 0.43894 -0.35803
v 0.96422 0.44763 -0.33337
v 1.41252 0.47446 -0.38156
v 1.39862 0.58597 -0.21247
v 1.19211 0.53571 -0.20105
v 1.60251 0.65929 -0.22168
v 3.45930 0.74380 -0.24533
v 3.25792 0.53722 -0.25084
v 3.61566 0.98644 -0.23313
v 3.50847 1.06511 -0.41669
v 3.34543 0.84984 -0.44049
v 3.63290 1.30954 -0.38586
v 3.50299 1.39184 -0.43948
v 3.35669 1.19275 -0.48531
v 3.60811 1.61549 -0.39273
v 3.51157 1.65640 -0.33902
v 3.38528 1.47542 -0.37777
v 3.58070 1.86604 -0.30672
v 3.52086 1.87654 -0.17593
v 3.43179 1.68982 -0.18981
v 3.53896 2.09088 -0.17459
v 3.73473 3.33011 -0.25487
v 3.71297 3.55742 -0.26997
v 3.51500 3.54272 -0.47944
v 3.69919 3.78086 -0.29146
v 3.46959 3.76468 -0.50361
v 3.18021 3.71850 -0.55338
v 3.40956 3.97967 -0.51951
v 3.29137 1.54754 -0.21187
v 3.21861 1.32601 -0.40883
v 3.18761 1.01906 -0.51814
v 3.15173 0.66672 -0.45320
v 3.02591 0.36639 -0.25300
v 0.98708 0.52675 -0.18981
v 0.75864 0.51961 -0.31447
v 0.52461 0.59320 -0.35641
v 0.28909 0.74907 -0.32741
v 0.10918 1.00033 -0.19877
v 0.30904 2.98135 -0.23334
v 0.41772 3.16145 -0.25483
v 0.29759 3.20613 -0.40143
v 0.22345 2.99551 -0.35995
v 0.16505 3.24506 -0.39304
v 0.11998 3.01460 -0.35355
v 0.05365 3.27473 -0.23667
v 0.04004 3.02801 -0.21677
v 0.66679 3.53165 -0.28770
v 0.53964 3.34743 -0.27434
v 0.48833 3.63879 -0.47121
v 0.39279 3.41730 -0.44169
v 0.27277 3.71360 -0.46567
v 0.21976 3.47556 -0.43446
v 0.09090 3.74677 -0.27702
v 0.07191 3.51060 -0.26019
v 0.79588 3.70432 -0.30523
v 0.59018 3.84756 -0.49113
v 0.33527 3.94741 -0.48868
v 0.10982 3.98473 -0.29430
v 1.54083 2.45313 -0.24793
v 1.71405 2.62061 -0.23664
v 1.60667 2.73688 -0.43348
v 1.61636 3.06931 -0.46291
v 1.43182 2.92114 -0.48397
v 1.43779 3.22550 -0.29638
v 1.26787 3.08069 -0.29966
vn -0.11210 0.05055 0.99241
vn -0.11495 0.29923 0.94723
vn -0.61612 0.03196 0.78701
vn -0.62304 0.02146 0.78190
vn -0.03023 0.17160 0.98470
vn -0.03036 0.72016 0.69315
vn -0.10732 -0.10283 0.98889
vn 0.43000 -0.33640 0.83782
vn 0.36627 -0.31704 0.87483
vn 0.33703 -0.32780 0.88259
vn -0.64012 -0.00097 0.76827
vn 0.15285 0.91799 0.36596
vn -0.18838 0.82466 0.53333
vn -0.01751 0.63924 0.76880
vn 0.32365 0.83797 0.43938
vn 0.14018 0.99012 -0.00228
vn -0.34085 0.94011 -0.00240
vn 0.66327 -0.03910 0.74736
vn 0.87787 0.29678 0.37585
vn 0.58023 0.15106 0.80032
vn 0.49844 -0.27585 0.82187
vn 0.74719 -0.52287 0.41026
vn 0.83136 -0.41306 0.37179
vn 0.51269 0.05799 0.85662
vn 0.35144 0.25950 0.89953
vn 0.31226 0.07718 0.94686
vn 0.73246 -0.26781 0.62593
vn 0.46718 0.76933 0.43575
vn 0.10939 0.83284 0.54260
vn 0.22527 0.43715 0.87072
vn 0.66518 0.47895 0.57284
vn -0.53841 0.20768 0.81669
vn -0.21394 0.37243 0.90307
vn -0.36607 0.75194 0.54826
vn -0.77394 0.36876 0.51481
vn -0.53505 -0.06374 0.84241
vn -0.12158 0.05179 0.99123
vn -0.86247 -0.09435 0.49724
vn -0.49458 0.82943 0.25967
vn -0.51140 0.85933 -0.00401
vn -0.88868 0.45853 -0.00278
vn -0.69158 0.42592 0.58336
vn -0.30331 0.49786 0.81249
vn -0.18182 0.32435 0.92830
vn -0.07062 0.48457 0.87190
vn -0.32348 0.49171 0.80845
vn -0.43400 0.67726 0.59411
vn -0.53323 0.84597 0.00026
vn -0.46343 0.88613 0.00073
vn 0.35030 0.93653 -0.01407
vn 0.64611 0.76320 -0.00822
vn 0.61005 0.63610 0.47246
vn 0.54358 0.46960 0.69570
vn 0.91640 0.13504 0.37681
vn 0.81429 0.12169 0.56756
vn -0.27708 0.09769 0.95587
vn -0.16438 0.02348 0.98612
vn -0.60731 0.02621 0.79403
vn -0.87104 -0.02483 0.49059
vn -0.93854 -0.01968 0.34461
vn -0.92682 -0.03781 0.37359
vn -0.91136 -0.02418 0.41091
vn -0.99964 -0.02671 0.00005
vn -0.99983 -0.01843 -0.00003
vn -0.99997 -0.00721 0.00000
vn -0.90381 -0.00703 0.42788
vn -0.99999 0.00339 -0.00003
vn -0.90626 0.00621 0.42268
vn -0.99999 -0.00532 -0.00003
vn -0.91635 0.00083 0.40037
vn -0.64928 -0.03117 0.75991
vn -0.41014 -0.06702 0.90956
vn -0.92614 -0.09132 0.36597
vn -0.64142 -0.10037 0.76060
vn -0.36937 -0.11263 0.92243
vn 0.36105 -0.19563 0.91180
vn 0.60337 -0.24879 0.75766
vn 0.50579 -0.34504 0.79065
vn 0.27838 -0.23774 0.93058
vn -0.61386 -0.21431 0.75977
vn -0.31976 -0.15767 0.93429
vn 0.42670 -0.05225 0.90288
vn 0.67810 -0.03645 0.73407
vn 0.94589 -0.03792 0.32225
vn 0.86728 -0.33338 0.36970
vn 0.43395 0.14390 0.88937
vn 0.66400 0.23650 0.70934
vn 0.90203 0.32200 0.28748
vn 0.94508 0.32684 0.00012
vn 0.99825 -0.05918 0.00057
vn 0.53016 0.48372 0.69638
vn 0.70949 0.64947 0.27352
vn 0.73830 0.67447 -0.00004
vn 0.40387 0.86884 0.28638
vn 0.41072 0.91176 -0.00015
vn 0.06119 -0.99813 0.00003
vn 0.06173 -0.89858 0.43445
vn -0.00158 -0.91264 0.40876
vn -0.00683 -0.99998 -0.00005
vn 0.14969 -0.98873 0.00002
vn 0.13655 -0.87908 0.45670
vn 0.08317 -0.58899 0.80385
vn 0.02848 -0.61314 0.78946
vn 0.25244 -0.96761 0.00002
vn 0.22296 -0.85449 0.46919
vn 0.14111 -0.56179 0.81516
vn -0.04337 -0.00888 0.99902
vn 0.03534 -0.35505 0.93418
vn 0.32933 -0.81648 0.47424
vn 0.20730 -0.52768 0.82376
vn -0.01898 0.00294 0.99982
vn -0.25118 0.51757 0.81794
vn -0.25145 0.52582 0.81258
vn 0.29515 -0.47746 0.82760
vn 0.01367 0.02687 0.99955
vn -0.25574 0.51470 0.81834
vn -0.39816 0.77250 0.49469
vn -0.38477 0.78148 0.49116
vn 0.03721 0.05235 0.99794
vn -0.27293 0.51364 0.81344
vn -0.41568 0.76810 0.48707
vn -0.47007 0.88263 -0.00002
vn -0.45990 0.88797 -0.00000
vn -0.29063 0.52247 0.80160
vn -0.43951 0.76692 0.46762
vn -0.48770 0.87301 0.00011
vn -0.47596 0.76338 0.43670
vn -0.51757 0.85564 0.00047
vn 0.99957 0.02932 -0.00008
vn 0.94978 0.03734 0.31067
vn 0.95854 0.00883 0.28482
vn 0.99996 0.00892 -0.00001
vn 0.99916 0.04104 0.00004
vn 0.93107 0.05031 0.36137
vn 0.65813 0.01075 0.75283
vn 0.68970 -0.00020 0.72410
vn 0.99918 0.04051 0.00016
vn 0.91054 0.04638 0.41082
vn 0.62258 0.00753 0.78252
vn 0.36924 -0.03680 0.92861
vn 0.39602 -0.03841 0.91744
vn 0.89175 0.03835 0.45089
vn 0.58741 -0.00091 0.80929
vn 0.33459 -0.04338 0.94136
vn -0.34205 -0.24986 0.90585
vn -0.54458 -0.34489 0.76451
vn -0.55893 -0.36171 0.74617
vn -0.34843 -0.26416 0.89934
vn 0.54574 0.00720 0.83792
vn -0.02906 -0.14372 0.98919
vn -0.53234 -0.33230 0.77858
vn -0.76423 -0.46704 0.44478
vn -0.78046 -0.46944 0.41293
vn -0.05108 -0.12579 0.99074
vn -0.50543 -0.32812 0.79805
vn -0.73490 -0.48670 0.47228
vn -0.82845 -0.56006 0.00015
vn -0.84714 -0.53137 -0.00004
vn -0.50070 -0.25362 0.82764
vn -0.77418 -0.39199 0.49698
vn -0.89494 -0.44618 -0.00025
vn -0.99700 -0.07733 -0.00106
vn -0.88960 0.45675 -0.00068
vn -0.44292 0.89656 0.00014
vn 0.06930 0.99760 -0.00062
vn 0.53181 0.84686 0.00150
vn 0.86177 0.50729 0.00232
vn 0.79006 0.18406 0.58474
vn 0.97771 0.20995 0.00015
vn -0.85203 -0.52349 0.00004
vn -0.85178 -0.52390 -0.00003
vn -0.79187 -0.47926 0.37849
vn -0.86897 -0.49487 -0.00022
vn -0.82054 -0.45873 0.34099
vn -0.59509 -0.35617 0.72043
vn -0.89094 -0.33927 0.30187
vn -0.66633 -0.27127 0.69456
vn -0.43803 -0.21274 0.87342
vn -0.37902 -0.26658 0.88616
vn -0.72882 -0.06278 0.68182
vn -0.48777 -0.05003 0.87154
vn 0.41154 -0.04541 0.91026
vn 0.41166 -0.01523 0.91121
vn 0.40842 0.03367 0.91218
vn 0.69307 -0.00063 0.72087
vn 0.90543 0.00852 0.42440
vn 0.95420 -0.03290 0.29737
vn 0.66500 -0.04221 0.74565
vn 0.93524 -0.12170 0.33243
vn 0.99153 -0.12986 0.00000
vn 0.99954 -0.03038 0.00002
vn 0.89038 -0.26429 0.37063
vn 0.95801 -0.28675 0.00006
vn -0.44671 0.89468 0.00000
vn -0.43856 0.89870 -0.00001
vn -0.37904 0.79078 0.48063
vn -0.43522 0.90032 -0.00005
vn -0.37916 0.80077 0.46369
vn -0.25888 0.53953 0.80118
vn -0.37775 0.81412 0.44104
vn -0.27005 0.55573 0.78628
vn -0.18850 0.33837 0.92194
vn -0.16990 0.32652 0.92980
vn -0.26015 0.58195 0.77049
vn -0.18961 0.35870 0.91399
vn -0.00773 -0.37184 0.92827
vn -0.04691 -0.37578 0.92552
vn -0.02281 -0.62901 0.77706
vn -0.08657 -0.36860 0.92555
vn -0.08311 -0.63359 0.76919
vn -0.08292 -0.91986 0.38339
vn -0.15881 -0.62780 0.76200
vn -0.19030 -0.91599 0.35319
vn -0.20879 -0.97796 -0.00003
vn -0.09361 -0.99561 0.00002
vn -0.32844 -0.88781 0.32235
vn -0.35010 -0.93671 -0.00013
vn 0.92477 -0.38052 -0.00021
vn 0.82470 -0.56557 -0.00025
vn 0.75881 -0.49497 0.42334
vn 0.76616 -0.64264 0.00045
vn 0.68615 -0.54801 0.47841
vn 0.74488 -0.66720 0.00002
vn 0.64366 -0.56674 0.51431
vn 0.74102 -0.67148 -0.00002
vn 0.62713 -0.58132 0.51843
vn 0.73214 -0.68115 -0.00003
vn 0.62559 -0.59512 0.50445
vn 0.34932 -0.33393 0.87548
vn 0.62555 -0.60757 0.48944
vn 0.36311 -0.33314 0.87016
vn 0.14315 -0.09708 0.98493
vn 0.12883 -0.11104 0.98543
vn 0.37015 -0.33917 0.86484
vn 0.15043 -0.09995 0.98355
vn -0.37994 0.49360 0.78230
vn -0.39840 0.49008 0.77530
vn -0.52554 0.63127 0.57035
vn -0.50458 0.64182 0.57747
vn -0.64580 0.76350 -0.00003
vn -0.62345 0.78186 -0.00017
vn -0.72001 -0.69396 0.00006
vn -0.68859 -0.66047 0.29936
vn -0.82885 -0.46732 0.30760
vn -0.87122 -0.49090 0.00011
vn -0.52777 -0.84939 -0.00005
vn -0.50418 -0.80865 0.30313
vn -0.46773 -0.74725 0.47206
vn -0.63864 -0.60924 0.47007
vn -0.25566 -0.60196 0.75649
vn -0.18057 -0.31177 0.93284
vn -0.21344 -0.27060 0.93873
vn -0.13192 -0.34941 0.92764
vn -0.10833 0.42541 0.89849
vn -0.12261 0.66359 0.73798
vn 0.05011 0.68745 0.72450
vn 0.00372 0.44497 0.89554
vn -0.16498 0.38843 0.90659
vn -0.21563 0.61969 0.75464
vn -0.28555 0.87827 0.38355
vn -0.15151 0.92425 0.35043
vn -0.35325 0.83869 0.41451
vn -0.39650 0.91804 -0.00010
vn -0.31923 0.94768 -0.00046
vn -0.42778 0.90388 0.00004
vn 0.79256 -0.60979 0.00002
vn 0.71105 -0.55003 0.43804
vn 0.58923 -0.66566 0.45793
vn 0.66575 -0.74618 0.00014
vn 0.89332 -0.44942 -0.00003
vn 0.81562 -0.41145 0.40678
vn 0.55617 -0.24227 0.79497
vn 0.47102 -0.33868 0.81452
vn 0.61974 -0.13741 0.77269
vn 0.37188 -0.02401 0.92797
vn 0.08714 0.13867 0.98650
vn 0.39568 0.03156 0.91785
vn -0.35598 0.30330 0.88391
vn -0.55619 0.41276 0.72131
vn -0.39833 0.51569 0.75855
vn -0.23515 0.35754 0.90381
vn -0.46356 0.15936 0.87162
vn -0.69657 0.20221 0.68841
vn -0.92442 0.25547 0.28316
vn -0.76049 0.55733 0.33322
vn -0.95833 -0.08088 0.27399
vn -0.99586 -0.09093 0.00003
vn -0.96029 0.27902 0.00021
vn -0.93029 -0.36682 -0.00010
vn 0.99920 0.04010 0.00004
vn 0.87177 0.04445 0.48790
vn 0.99941 0.03439 0.00012
vn 0.99937 0.03547 -0.00000
vn 0.85092 0.03694 0.52400
vn 0.49839 0.00876 0.86691
vn 0.99838 0.05687 0.00010
vn 0.83000 0.04741 0.55574
vn 0.43968 0.01768 0.89798
vn -0.07883 -0.08400 0.99334
vn 0.35547 0.14101 0.92399
vn -0.79074 0.61215 -0.00027
vn -0.60539 0.79593 -0.00014
vn -0.57269 0.72073 0.39061
vn -0.31552 0.53438 0.78415
vn 0.06383 0.08909 0.99398
vn 0.38203 -0.41672 0.82486
vn 0.46222 -0.75184 0.47020
vn 0.37746 -0.92603 -0.00002
vn 0.52817 -0.84914 -0.00001
vn -0.17378 0.98479 -0.00011
vn 0.07291 0.99734 0.00006
vn 0.08375 0.94470 0.31705
vn 0.29742 0.63985 0.70861
vn 0.34883 0.31496 0.88268
vn 0.17966 0.41475 0.89202
vn -0.24515 -0.23956 0.93942
vn -0.28035 -0.20151 0.93851
vn -0.76640 -0.43235 0.47508
vn -0.90518 -0.26788 0.32998
vn -0.99459 -0.10384 -0.00008
vn -0.95834 -0.28563 -0.00002
vn 0.97072 -0.24021 -0.00130
vn 0.91166 -0.41094 -0.00051
vn 0.85530 -0.35315 0.37913
vn 0.86269 0.50573 -0.00154
vn 0.81166 -0.58413 0.00045
vn 0.73760 -0.51084 0.44157
vn 0.64592 -0.42816 0.63203
vn 0.77275 -0.28607 0.56658
vn -0.10093 -0.09706 0.99015
vn -0.09839 -0.15192 0.98348
vn -0.85624 0.02010 0.51618
vn -0.81226 0.03649 0.58215
vn -0.91246 0.03139 0.40797
vn -0.93341 0.01566 0.35848
vn -0.99966 0.02588 -0.00007
vn -0.99994 0.01056 -0.00005
vn -0.99990 -0.01437 0.00008
vn 0.79953 -0.60063 0.00007
vn 0.78587 -0.61839 -0.00023
vn 0.66423 -0.50463 0.55150
vn 0.69849 -0.50938 0.50263
vn 0.25537 -0.25702 0.93206
vn 0.58828 -0.41274 0.69540
vn -0.08450 -0.12840 0.98812
vn -0.05861 -0.09363 0.99388
vn -0.76150 0.03930 0.64698
vn -0.70947 0.04837 0.70307
vn -0.85921 0.04733 0.50943
vn -0.88573 0.03650 0.46276
vn -0.99899 0.04501 0.00010
vn -0.99945 0.03323 0.00007
vn 0.79500 -0.60660 -0.00003
vn 0.91301 -0.40792 -0.00297
vn 0.64928 -0.47134 0.59689
vn 0.25174 -0.17644 0.95157
vn -0.33976 0.06639 0.93817
vn -0.81820 0.14814 0.55552
vn -0.98718 0.15963 -0.00007
vn 0.97422 -0.22552 -0.00572
vn 0.93608 -0.22164 0.27317
vn 0.85245 0.52279 0.00446
vn 0.63150 0.77537 0.00191
vn 0.60040 0.73294 0.31987
vn 0.81944 0.49624 0.28682
vn 0.07606 0.99710 -0.00165
vn 0.07442 0.95334 0.29258
vn 0.72010 -0.69387 -0.00001
vn 0.71526 -0.69886 0.00002
vn 0.62849 -0.61645 0.47434
vn 0.71642 -0.69767 0.00015
vn 0.63875 -0.62185 0.45311
vn 0.39250 -0.34147 0.85401
vn 0.28454 -0.04792 0.95746
vn 0.18244 -0.10026 0.97809
vn -0.37736 0.49180 0.78469
vn -0.28141 0.52988 0.80002
vn -0.43406 0.69326 0.57531
vn -0.51556 0.63847 0.57144
vn -0.56794 0.82307 -0.00003
vn -0.64074 0.76776 -0.00001
vn 0.82596 -0.56373 -0.00024
vn 0.90824 -0.41846 -0.00077
vn 0.95795 0.28694 0.00003
vn 0.44254 0.89675 0.00034
vn -0.62336 0.02316 -0.78160
vn -0.61689 0.03163 -0.78641
vn -0.12249 0.30960 -0.94295
vn -0.10463 0.05504 -0.99299
vn -0.02961 0.72196 -0.69130
vn -0.01878 0.17093 -0.98510
vn 0.36674 -0.31085 -0.87685
vn 0.43009 -0.32552 -0.84206
vn -0.10713 -0.09383 -0.98981
vn 0.33763 -0.32786 -0.88233
vn -0.63972 -0.00041 -0.76861
vn 0.31855 0.85541 -0.40841
vn -0.02045 0.66302 -0.74832
vn -0.18374 0.83325 -0.52147
vn 0.15671 0.92480 -0.34668
vn 0.57140 0.12308 -0.81139
vn 0.87891 0.27160 -0.39210
vn 0.90906 -0.07086 -0.41059
vn 0.65289 -0.04847 -0.75590
vn 0.74824 -0.51746 -0.41517
vn 0.49639 -0.26905 -0.82535
vn 0.73888 -0.26242 -0.62063
vn 0.32270 0.07901 -0.94320
vn 0.37243 0.26259 -0.89014
vn 0.54960 0.06117 -0.83318
vn 0.67319 0.48443 -0.55870
vn 0.23275 0.44768 -0.86337
vn 0.11625 0.83817 -0.53288
vn 0.47809 0.77154 -0.41971
vn -0.77162 0.36469 -0.52115
vn -0.36845 0.74802 -0.55201
vn -0.21707 0.36777 -0.90423
vn -0.53579 0.20378 -0.81939
vn -0.12344 0.05322 -0.99092
vn -0.53320 -0.06037 -0.84384
vn -0.86009 -0.09275 -0.50163
vn -0.69530 0.43540 -0.57183
vn -0.45786 0.75995 -0.46135
vn -0.00912 0.78557 -0.61870
vn -0.19201 0.33656 -0.92188
vn -0.43294 0.67863 -0.59332
vn -0.32151 0.49437 -0.80761
vn 0.59783 0.64000 -0.48270
vn 0.51142 0.49124 -0.70508
vn 0.81102 0.11095 -0.57440
vn 0.91517 0.12850 -0.38203
vn -0.60615 0.02652 -0.79491
vn -0.16396 0.02851 -0.98606
vn -0.27348 0.09751 -0.95692
vn -0.92699 -0.03781 -0.37317
vn -0.93880 -0.02038 -0.34386
vn -0.87170 -0.02602 -0.48935
vn -0.91138 -0.02344 -0.41090
vn -0.90385 -0.00723 -0.42778
vn -0.90643 0.00594 -0.42231
vn -0.91646 0.00111 -0.40013
vn -0.64985 -0.03058 -0.75945
vn -0.41102 -0.06563 -0.90926
vn -0.64129 -0.09976 -0.76078
vn -0.92626 -0.09066 -0.36582
vn -0.36839 -0.11244 -0.92285
vn 0.27924 -0.23562 -0.93087
vn 0.50627 -0.34385 -0.79086
vn 0.60414 -0.25291 -0.75568
vn 0.36071 -0.19760 -0.91151
vn -0.31749 -0.15924 -0.93480
vn -0.61309 -0.21495 -0.76021
vn 0.67864 -0.03663 -0.73356
vn 0.42787 -0.05134 -0.90238
vn 0.86737 -0.33581 -0.36729
vn 0.94607 -0.03980 -0.32152
vn 0.66516 0.23676 -0.70817
vn 0.43763 0.14387 -0.88757
vn 0.90189 0.32217 -0.28775
vn 0.70973 0.64926 -0.27339
vn 0.53125 0.48429 -0.69515
vn 0.40346 0.86917 -0.28595
vn -0.00210 -0.91259 -0.40888
vn 0.06105 -0.89854 -0.43462
vn 0.13640 -0.87910 -0.45671
vn 0.02778 -0.61300 -0.78959
vn 0.08271 -0.58892 -0.80394
vn 0.22294 -0.85445 -0.46927
vn 0.14089 -0.56165 -0.81529
vn 0.03486 -0.35486 -0.93427
vn -0.04329 -0.00890 -0.99902
vn 0.20716 -0.52746 -0.82394
vn 0.32927 -0.81641 -0.47441
vn -0.01893 0.00296 -0.99982
vn -0.25144 0.52575 -0.81263
vn -0.25108 0.51746 -0.81804
vn 0.01362 0.02713 -0.99954
vn 0.29507 -0.47709 -0.82784
vn -0.25573 0.51454 -0.81844
vn -0.38477 0.78146 -0.49120
vn -0.39818 0.77243 -0.49477
vn -0.27272 0.51411 -0.81322
vn 0.03722 0.05293 -0.99790
vn -0.41558 0.76819 -0.48700
vn -0.43902 0.76746 -0.46719
vn -0.29042 0.52288 -0.80141
vn -0.47542 0.76362 -0.43687
vn 0.95843 0.00848 -0.28521
vn 0.94971 0.03599 -0.31105
vn 0.93101 0.04980 -0.36157
vn 0.68943 -0.00230 -0.72435
vn 0.65801 0.00946 -0.75295
vn 0.91064 0.04580 -0.41065
vn 0.62253 0.00777 -0.78255
vn 0.39613 -0.03997 -0.91733
vn 0.36909 -0.03665 -0.92867
vn 0.58794 -0.00267 -0.80890
vn 0.89208 0.03631 -0.45041
vn 0.33493 -0.04404 -0.94121
vn -0.34883 -0.26287 -0.89956
vn -0.55912 -0.36113 -0.74630
vn -0.54486 -0.34386 -0.76478
vn -0.34221 -0.24944 -0.90591
vn -0.02850 -0.14500 -0.98902
vn 0.54681 0.00413 -0.83725
vn -0.53244 -0.33183 -0.77871
vn -0.78076 -0.46870 -0.41320
vn -0.76442 -0.46660 -0.44491
vn -0.50690 -0.32711 -0.79752
vn -0.05086 -0.12687 -0.99061
vn -0.73582 -0.48619 -0.47138
vn -0.77495 -0.39145 -0.49621
vn -0.50216 -0.25265 -0.82705
vn 0.79070 0.18487 -0.58362
vn -0.79184 -0.47930 -0.37850
vn -0.82089 -0.45775 -0.34147
vn -0.59522 -0.35610 -0.72035
vn -0.66631 -0.27023 -0.69499
vn -0.89131 -0.33757 -0.30269
vn -0.37940 -0.26735 -0.88577
vn -0.43782 -0.21413 -0.87319
vn -0.48725 -0.04975 -0.87184
vn -0.72848 -0.06186 -0.68227
vn 0.41129 -0.01538 -0.91137
vn 0.41129 -0.04620 -0.91033
vn 0.69317 -0.00177 -0.72077
vn 0.40860 0.03313 -0.91211
vn 0.95420 -0.03366 -0.29726
vn 0.90510 0.00803 -0.42513
vn 0.93521 -0.12304 -0.33203
vn 0.66532 -0.04401 -0.74526
vn 0.89032 -0.26452 -0.37062
vn -0.37920 0.79075 -0.48054
vn -0.37905 0.80079 -0.46374
vn -0.25897 0.53948 -0.80119
vn -0.26926 0.55567 -0.78660
vn -0.37722 0.81419 -0.44137
vn -0.16997 0.32647 -0.92980
vn -0.18822 0.33831 -0.92202
vn -0.18803 0.35839 -0.91444
vn -0.25923 0.58192 -0.77083
vn -0.02283 -0.62901 -0.77706
vn -0.04638 -0.37594 -0.92548
vn -0.00781 -0.37183 -0.92827
vn -0.08266 -0.63371 -0.76914
vn -0.08553 -0.36904 -0.92547
vn -0.08296 -0.91984 -0.38343
vn -0.19070 -0.91580 -0.35348
vn -0.15930 -0.62734 -0.76228
vn -0.32879 -0.88761 -0.32255
vn 0.75894 -0.49446 -0.42369
vn 0.68670 -0.54581 -0.48013
vn 0.64431 -0.56548 -0.51487
vn 0.62744 -0.58120 -0.51819
vn 0.62578 -0.59503 -0.50432
vn 0.34948 -0.33397 -0.87540
vn 0.36294 -0.33320 -0.87020
vn 0.62548 -0.60756 -0.48953
vn 0.12858 -0.11122 -0.98544
vn 0.14309 -0.09717 -0.98493
vn 0.15051 -0.10006 -0.98353
vn 0.37024 -0.33915 -0.86481
vn -0.50462 0.64204 -0.57719
vn -0.52554 0.63121 -0.57042
vn -0.39836 0.49001 -0.77537
vn -0.38007 0.49454 -0.78165
vn -0.82886 -0.46731 -0.30759
vn -0.68857 -0.66053 -0.29929
vn -0.50416 -0.80871 -0.30299
vn -0.63859 -0.60932 -0.47004
vn -0.46768 -0.74750 -0.47173
vn -0.25623 -0.60205 -0.75623
vn -0.21338 -0.27161 -0.93845
vn -0.18128 -0.31239 -0.93250
vn -0.13193 -0.34906 -0.92777
vn 0.00441 0.44320 -0.89641
vn 0.05041 0.68700 -0.72491
vn -0.12175 0.66274 -0.73888
vn -0.10894 0.42507 -0.89858
vn -0.21557 0.61967 -0.75468
vn -0.16538 0.38878 -0.90636
vn -0.15040 0.92397 -0.35164
vn -0.28467 0.87824 -0.38425
vn -0.35303 0.83873 -0.41461
vn 0.58919 -0.66580 -0.45778
vn 0.71092 -0.55051 -0.43764
vn 0.81559 -0.41156 -0.40674
vn 0.47101 -0.33920 -0.81431
vn 0.55629 -0.24178 -0.79503
vn 0.61980 -0.13699 -0.77271
vn 0.08747 0.14009 -0.98627
vn 0.37199 -0.02338 -0.92794
vn 0.39604 0.03068 -0.91772
vn -0.23438 0.36437 -0.90128
vn -0.39729 0.52030 -0.75595
vn -0.55513 0.41824 -0.71896
vn -0.35504 0.30594 -0.88337
vn -0.69613 0.20300 -0.68862
vn -0.46235 0.15750 -0.87260
vn -0.75943 0.56027 -0.33071
vn -0.92411 0.25764 -0.28220
vn -0.95827 -0.08047 -0.27431
vn 0.87211 0.04308 -0.48741
vn 0.85102 0.03752 -0.52379
vn 0.49925 0.00709 -0.86643
vn 0.82994 0.04735 -0.55584
vn 0.43974 0.01643 -0.89797
vn -0.07885 -0.08431 -0.99332
vn 0.35601 0.14188 -0.92365
vn -0.57236 0.72145 -0.38977
vn -0.31527 0.53449 -0.78417
vn 0.06372 0.08909 -0.99398
vn 0.38199 -0.41656 -0.82496
vn 0.46221 -0.75179 -0.47030
vn 0.08353 0.94483 -0.31672
vn 0.29729 0.64071 -0.70789
vn 0.18059 0.41528 -0.89159
vn 0.35078 0.31677 -0.88125
vn -0.24495 -0.23933 -0.93953
vn -0.27990 -0.20161 -0.93862
vn -0.90528 -0.26775 -0.32980
vn -0.76628 -0.43237 -0.47525
vn 0.85581 -0.35139 -0.37961
vn 0.73723 -0.51068 -0.44238
vn 0.77478 -0.28127 -0.56622
vn 0.64649 -0.42426 -0.63408
vn -0.10347 -0.09533 -0.99005
vn -0.09838 -0.15059 -0.98369
vn -0.93344 0.01374 -0.35847
vn -0.91217 0.03144 -0.40860
vn -0.81155 0.03610 -0.58316
vn -0.85637 0.01706 -0.51609
vn 0.69845 -0.50922 -0.50286
vn 0.66425 -0.50425 -0.55182
vn 0.58857 -0.41151 -0.69588
vn 0.25538 -0.25677 -0.93212
vn -0.08458 -0.12836 -0.98811
vn -0.05871 -0.09368 -0.99387
vn -0.88578 0.03733 -0.46261
vn -0.85930 0.04769 -0.50924
vn -0.70954 0.04971 -0.70291
vn -0.76157 0.04048 -0.64682
vn 0.64830 -0.47257 -0.59697
vn 0.25093 -0.17730 -0.95163
vn -0.33984 0.06806 -0.93802
vn -0.81809 0.14964 -0.55528
vn 0.93515 -0.21152 -0.28417
vn 0.81597 0.50673 -0.27826
vn 0.59710 0.73738 -0.31581
vn 0.62850 -0.61644 -0.47433
vn 0.63831 -0.62243 -0.45293
vn 0.39256 -0.34134 -0.85404
vn 0.18243 -0.09997 -0.97812
vn 0.28172 -0.04802 -0.95830
vn -0.51562 0.63877 -0.57106
vn -0.43462 0.69201 -0.57639
vn -0.28231 0.52705 -0.80157
vn -0.37761 0.49255 -0.78410
f 1//1 7//2 8//3 9//4
f 1//1 10//5 6//6 7//2
f 1//1 11//7 12//8 13//9
f 1//1 13//9 14//10 10//5
f 1//1 9//4 15//11 11//7
f 2//12 17//13 18//14 19//15
f 2//12 16//16 300//17 17//13
f 3//18 20//19 19//19 18//20
f 3//18 21//21 22//22 20//23
f 23//24 24//25 25//26 26//27
f 27//28 28//29 29//30 30//31
f 4//32 31//33 32//34 33//35
f 4//32 34//36 35//37 31//33
f 4//32 33//35 36//38 34//36
f 5//39 37//40 301//41 38//42
f 5//43 38//42 39//44 40//45
f 6//6 10//5 43//46 44//47
f 6//6 44//47 41//48 302//49
f 6//6 302//50 42//51 45//52
f 6//6 45//52 46//53 7//2
f 46//53 45//52 47//54 48//55
f 46//56 48//57 49//57 50//58
f 46//56 50//58 8//3 7//2
f 50//58 49//59 51//60 52//61
f 50//58 52//61 53//62 8//3
f 53//62 52//61 54//63 303//64
f 53//62 303//64 304//65 55//66
f 53//62 55//66 9//4 8//3
f 55//66 304//65 56//67 57//68
f 55//66 57//68 15//11 9//4
f 57//68 56//67 58//69 59//70
f 57//68 59//70 60//71 15//11
f 60//71 61//72 11//7 15//11
f 60//71 59//70 62//73 63//74
f 60//71 63//74 64//75 61//72
f 64//76 65//77 66//78 61//79
f 64//75 63//74 67//80 68//81
f 64//76 68//82 69//83 65//77
f 69//83 70//84 71//85 65//77
f 69//83 68//82 72//86 73//87
f 69//83 73//87 74//88 70//84
f 74//88 305//89 75//90 70//84
f 74//88 73//87 76//91 77//92
f 74//88 77//92 306//93 305//89
f 306//93 77//92 78//94 307//95
f 308//96 81//97 82//98 79//99
f 308//96 309//100 83//101 81//97
f 83//101 84//102 85//103 81//97
f 83//101 309//100 310//104 86//105
f 83//101 86//105 87//106 84//102
f 87//106 88//107 89//108 84//102
f 87//106 86//105 90//109 91//110
f 87//106 91//110 92//111 88//107
f 92//111 93//112 94//113 88//107
f 92//111 91//110 95//114 96//115
f 92//111 96//115 97//116 93//112
f 97//116 98//117 99//118 93//112
f 97//116 96//115 100//119 101//120
f 97//116 101//120 102//121 98//117
f 102//121 103//122 104//123 98//117
f 102//121 101//120 105//124 106//125
f 102//121 106//125 311//126 103//122
f 311//126 106//125 107//127 312//128
f 313//129 110//130 111//131 108//132
f 313//129 314//133 112//134 110//130
f 112//134 113//135 114//136 110//130
f 112//134 314//133 315//137 115//138
f 112//134 115//138 116//139 113//135
f 116//139 117//140 118//141 113//135
f 116//139 115//138 119//142 120//143
f 116//139 120//143 121//144 117//140
f 121//145 122//146 123//147 117//148
f 121//144 120//143 124//149 125//150
f 121//145 125//150 126//151 122//146
f 126//151 127//152 128//153 122//146
f 126//151 125//150 129//154 130//155
f 126//151 130//155 131//156 127//152
f 131//156 132//157 133//158 127//152
f 131//156 130//155 134//159 135//160
f 131//156 135//160 136//161 132//157
f 136//161 135//160 36//38 137//162
f 137//162 36//38 33//35 138//163
f 138//163 33//35 32//34 139//164
f 139//164 32//34 28//29 140//165
f 140//165 28//29 27//28 141//166
f 141//166 27//28 30//31 316//167
f 316//167 30//31 142//168 317//169
f 143//170 318//171 144//172 128//153
f 143//170 128//153 127//152 133//158
f 144//172 318//171 319//173 145//174
f 144//172 145//174 146//175 123//147
f 144//172 123//147 122//146 128//153
f 146//175 145//174 147//176 148//177
f 146//175 148//177 149//178 118//179
f 146//175 118//179 117//148 123//147
f 149//178 148//177 150//180 151//181
f 149//182 151//183 152//183 114//136
f 149//182 114//136 113//135 118//141
f 152//183 151//183 153//184 154//185
f 152//186 154//185 155//187 111//131
f 152//186 111//131 110//130 114//136
f 155//187 154//185 156//188 157//189
f 155//187 157//189 158//190 109//191
f 155//187 109//191 108//132 111//131
f 158//190 157//189 159//192 320//193
f 160//194 321//195 161//196 99//118
f 160//194 99//118 98//117 104//123
f 161//196 321//195 322//197 162//198
f 161//196 162//198 163//199 94//113
f 161//196 94//113 93//112 99//118
f 163//199 162//198 164//200 165//201
f 163//199 165//201 166//202 89//203
f 163//199 89//203 88//107 94//113
f 166//202 165//201 167//204 168//205
f 166//206 168//207 169//208 85//103
f 166//206 85//103 84//102 89//108
f 169//208 168//207 170//209 171//210
f 169//208 171//210 172//211 82//98
f 169//208 82//98 81//97 85//103
f 172//211 171//210 173//212 174//213
f 172//211 174//213 175//214 80//215
f 172//211 80//215 79//99 82//98
f 175//214 174//213 176//216 323//217
f 177//218 324//219 178//220 71//85
f 177//218 71//85 70//84 75//90
f 178//220 324//219 325//221 179//222
f 178//220 179//222 12//8 66//78
f 178//220 66//78 65//77 71//85
f 179//222 325//221 326//223 180//224
f 179//222 180//224 13//9 12//8
f 180//224 326//223 181//225 182//226
f 180//224 182//226 14//10 13//9
f 182//226 181//225 183//227 184//228
f 182//226 184//228 185//229 14//10
f 185//229 184//228 186//230 187//231
f 185//229 187//231 188//232 43//233
f 185//229 43//233 10//5 14//10
f 188//232 187//231 189//234 190//235
f 188//236 190//237 191//238 192//239
f 188//236 192//239 44//47 43//46
f 192//239 191//238 193//240 194//241
f 192//239 194//241 41//48 44//47
f 197//242 198//243 199//244 195//245
f 197//242 327//246 200//247 198//243
f 200//247 201//248 202//249 198//243
f 200//247 327//246 323//217 176//216
f 200//247 176//216 203//250 201//248
f 203//250 204//251 205//252 201//252
f 203//250 176//216 174//213 173//212
f 203//250 173//212 206//253 204//251
f 206//254 207//255 208//256 204//257
f 206//253 173//212 171//210 170//209
f 206//254 170//258 209//259 207//255
f 209//259 210//260 211//261 207//255
f 209//259 170//258 168//205 167//204
f 209//259 167//204 212//262 210//260
f 212//262 213//263 214//264 210//260
f 212//262 167//204 165//201 164//200
f 212//262 164//200 328//265 213//263
f 328//265 164//200 162//198 322//197
f 329//266 217//267 218//268 215//269
f 329//266 330//270 219//271 217//267
f 219//271 220//272 221//273 217//267
f 219//271 330//270 320//193 159//192
f 219//271 159//192 222//274 220//272
f 222//274 223//275 224//276 220//272
f 222//274 159//192 157//189 156//188
f 222//274 156//188 225//277 223//275
f 225//278 226//279 227//280 223//281
f 225//277 156//188 154//185 153//184
f 225//278 153//282 228//283 226//279
f 228//283 229//284 230//285 226//279
f 228//283 153//282 151//181 150//180
f 228//283 150//180 231//286 229//284
f 231//286 331//287 232//288 229//284
f 231//286 150//180 148//177 147//176
f 231//286 147//176 233//289 331//287
f 233//289 147//176 145//174 319//173
f 235//290 236//291 119//142 237//292
f 235//290 234//293 238//294 236//291
f 238//294 239//295 124//149 236//291
f 238//294 234//293 332//296 240//297
f 238//294 240//297 241//298 239//295
f 241//298 242//299 129//154 239//295
f 241//298 240//297 142//168 243//300
f 241//298 243//300 35//37 242//299
f 243//300 142//168 30//31 29//30
f 243//300 29//30 31//33 35//37
f 242//299 134//159 130//155 129//154
f 242//299 35//37 34//36 134//159
f 240//297 332//296 317//169 142//168
f 239//295 129//154 125//150 124//149
f 237//292 119//142 115//138 315//137
f 244//301 333//302 245//303 230//285
f 244//301 230//285 229//284 232//288
f 245//303 333//302 312//128 107//127
f 245//303 107//127 246//304 227//280
f 245//303 227//280 226//279 230//285
f 246//304 107//127 106//125 105//124
f 246//304 105//124 247//305 224//276
f 246//304 224//276 223//281 227//280
f 247//305 105//124 101//120 100//119
f 247//305 100//119 248//306 221//273
f 247//305 221//273 220//272 224//276
f 248//306 100//119 96//115 95//114
f 248//306 95//114 249//307 218//268
f 248//306 218//268 217//267 221//273
f 249//307 95//114 91//110 90//109
f 249//307 90//109 250//308 216//309
f 249//307 216//309 215//269 218//268
f 250//308 90//109 86//105 310//104
f 251//310 334//311 252//312 211//261
f 251//310 211//261 210//260 214//264
f 252//312 334//311 307//95 78//94
f 252//312 78//94 253//313 208//256
f 252//312 208//256 207//255 211//261
f 253//313 78//94 77//92 76//91
f 253//313 76//91 254//314 205//315
f 253//313 205//315 204//257 208//256
f 254//314 76//91 73//87 72//86
f 254//316 72//317 255//317 202//316
f 254//316 202//316 201//252 205//252
f 255//317 72//317 68//81 67//80
f 255//318 67//80 256//319 199//244
f 255//318 199//244 198//243 202//249
f 256//319 67//80 63//74 62//73
f 256//319 62//73 257//320 196//321
f 256//319 196//321 195//245 199//244
f 257//320 62//73 59//70 58//69
f 259//322 258//323 260//324 47//54
f 259//325 47//54 45//52 42//51
f 260//324 258//323 261//326 262//327
f 260//324 262//327 263//328 264//329
f 260//324 264//329 48//55 47//54
f 264//330 263//331 265//331 266//330
f 264//330 266//330 49//57 48//57
f 266//332 265//333 267//334 268//335
f 266//332 268//335 51//60 49//59
f 268//335 267//334 335//336 336//337
f 268//335 336//337 269//338 51//60
f 269//338 54//63 52//61 51//60
f 270//339 271//340 272//341 273//342
f 270//339 273//342 262//327 261//326
f 273//342 272//341 274//343 275//344
f 273//342 275//344 263//328 262//327
f 275//345 274//343 276//346 277//345
f 275//345 277//345 265//331 263//331
f 277//347 276//348 278//349 279//350
f 277//347 279//350 267//334 265//333
f 279//350 278//349 337//351 338//352
f 279//350 338//352 335//336 267//334
f 280//353 339//354 26//27 281//355
f 280//353 281//355 272//341 271//340
f 281//355 26//27 25//26 282//356
f 281//355 282//356 274//343 272//341
f 282//356 25//26 39//44 283//357
f 282//356 283//357 276//346 274//343
f 283//357 39//44 38//42 284//358
f 283//357 284//358 278//349 276//348
f 284//358 38//42 301//41 340//359
f 284//358 340//359 337//351 278//349
f 339//354 285//360 23//361 26//27
f 285//362 286//363 24//364 23//365
f 286//363 287//366 40//367 24//364
f 287//366 37//40 5//39 40//367
f 236//291 124//149 120//143 119//142
f 288//368 341//369 289//370 186//230
f 288//368 186//230 184//228 183//227
f 289//370 341//369 342//371 290//372
f 289//370 290//372 291//373 189//234
f 289//370 189//234 187//231 186//230
f 291//373 290//372 22//22 21//21
f 291//373 21//21 292//374 293//375
f 291//373 293//375 190//235 189//234
f 293//376 292//377 294//378 295//379
f 293//376 295//379 191//238 190//237
f 295//379 294//378 343//380 296//381
f 295//379 296//381 193//240 191//238
f 297//382 298//383 20//23 22//22
f 297//382 22//22 290//372 342//371
f 298//384 299//384 19//19 20//19
f 299//385 16//16 2//12 19//15
f 343//380 294//378 17//13 300//17
f 294//378 292//377 18//14 17//13
f 292//374 21//21 3//18 18//20
f 135//160 134//159 34//36 36//38
f 66//78 12//8 11//7 61//79
f 40//45 39//44 25//26 24//25
f 32//34 31//33 29//30 28//29
f 352//386 351//387 350//388 344//389
f 350//388 349//390 353//391 344//389
f 356//392 355//393 354//394 344//389
f 353//391 357//395 356//392 344//389
f 354//394 358//396 352//386 344//389
f 361//397 360//398 359//399 345//400
f 359//399 300//17 16//16 345//400
f 360//401 361//402 362//403 346//404
f 362//403 364//405 363//406 346//404
f 368//407 367//408 366//409 365//410
f 372//411 371//412 370//413 369//414
f 375//415 374//416 373//417 347//418
f 373//417 377//419 376//420 347//418
f 376//420 378//421 375//415 347//418
f 379//422 301//41 37//40 348//423
f 381//424 380//425 379//422 348//423
f 383//426 382//427 353//391 349//390
f 302//49 41//48 383//426 349//390
f 384//428 42//51 302//50 349//390
f 350//388 385//429 384//428 349//390
f 387//430 386//431 384//428 385//429
f 389//432 388//433 387//433 385//434
f 350//388 351//387 389//432 385//434
f 391//435 390//436 388//437 389//432
f 351//387 392//438 391//435 389//432
f 303//64 54//63 391//435 392//438
f 393//439 304//65 303//64 392//438
f 351//387 352//386 393//439 392//438
f 394//440 56//67 304//65 393//439
f 352//386 358//396 394//440 393//439
f 395//441 58//69 56//67 394//440
f 358//396 396//442 395//441 394//440
f 358//396 354//394 397//443 396//442
f 399//444 398//445 395//441 396//442
f 397//443 400//446 399//444 396//442
f 397//447 402//448 401//449 400//450
f 404//451 403//452 399//444 400//446
f 401//449 405//453 404//454 400//450
f 401//449 407//455 406//456 405//453
f 409//457 408//458 404//454 405//453
f 406//456 410//459 409//457 405//453
f 406//456 75//90 305//89 410//459
f 412//460 411//461 409//457 410//459
f 305//89 306//93 412//460 410//459
f 307//95 413//462 412//460 306//93
f 79//99 415//463 414//464 308//96
f 414//464 416//465 309//100 308//96
f 414//464 418//466 417//467 416//465
f 419//468 310//104 309//100 416//465
f 417//467 420//469 419//468 416//465
f 417//467 422//470 421//471 420//469
f 424//472 423//473 419//468 420//469
f 421//471 425//474 424//472 420//469
f 421//471 427//475 426//476 425//474
f 429//477 428//478 424//472 425//474
f 426//476 430//479 429//477 425//474
f 426//476 432//480 431//481 430//479
f 434//482 433//483 429//477 430//479
f 431//481 435//484 434//482 430//479
f 431//481 104//123 103//122 435//484
f 437//485 436//486 434//482 435//484
f 103//122 311//126 437//485 435//484
f 312//128 438//487 437//485 311//126
f 108//132 440//488 439//489 313//129
f 439//489 441//490 314//133 313//129
f 439//489 443//491 442//492 441//490
f 444//493 315//137 314//133 441//490
f 442//492 445//494 444//493 441//490
f 442//492 447//495 446//496 445//494
f 449//497 448//498 444//493 445//494
f 446//496 450//499 449//497 445//494
f 446//500 452//501 451//502 450//503
f 454//504 453//505 449//497 450//499
f 451//502 455//506 454//504 450//503
f 451//502 457//507 456//508 455//506
f 459//509 458//510 454//504 455//506
f 456//508 460//511 459//509 455//506
f 456//508 133//158 132//157 460//511
f 462//512 461//513 459//509 460//511
f 132//157 136//161 462//512 460//511
f 137//162 378//421 462//512 136//161
f 138//163 375//415 378//421 137//162
f 139//164 374//416 375//415 138//163
f 140//165 370//413 374//416 139//164
f 141//166 369//414 370//413 140//165
f 316//167 372//411 369//414 141//166
f 317//169 463//514 372//411 316//167
f 457//507 464//515 318//171 143//170
f 133//158 456//508 457//507 143//170
f 465//516 319//173 318//171 464//515
f 452//501 466//517 465//516 464//515
f 457//507 451//502 452//501 464//515
f 468//518 467//519 465//516 466//517
f 447//520 469//521 468//518 466//517
f 452//501 446//500 447//520 466//517
f 471//522 470//523 468//518 469//521
f 443//491 472//524 471//524 469//525
f 447//495 442//492 443//491 469//525
f 474//526 473//527 471//524 472//524
f 440//488 475//528 474//526 472//529
f 443//491 439//489 440//488 472//529
f 477//530 476//531 474//526 475//528
f 109//191 158//190 477//530 475//528
f 440//488 108//132 109//191 475//528
f 320//193 478//532 477//530 158//190
f 432//480 479//533 321//195 160//194
f 104//123 431//481 432//480 160//194
f 480//534 322//197 321//195 479//533
f 427//475 481//535 480//534 479//533
f 432//480 426//476 427//475 479//533
f 483//536 482//537 480//534 481//535
f 422//538 484//539 483//536 481//535
f 427//475 421//471 422//538 481//535
f 486//540 485//541 483//536 484//539
f 418//466 487//542 486//543 484//544
f 422//470 417//467 418//466 484//544
f 489//545 488//546 486//543 487//542
f 415//463 490//547 489//545 487//542
f 418//466 414//464 415//463 487//542
f 492//548 491//549 489//545 490//547
f 80//215 175//214 492//548 490//547
f 415//463 79//99 80//215 490//547
f 323//217 493//550 492//548 175//214
f 407//455 494//551 324//219 177//218
f 75//90 406//456 407//455 177//218
f 495//552 325//221 324//219 494//551
f 402//448 355//393 495//552 494//551
f 407//455 401//449 402//448 494//551
f 496//553 326//223 325//221 495//552
f 355//393 356//392 496//553 495//552
f 497//554 181//225 326//223 496//553
f 356//392 357//395 497//554 496//553
f 498//555 183//227 181//225 497//554
f 357//395 499//556 498//555 497//554
f 501//557 500//558 498//555 499//556
f 382//559 502//560 501//557 499//556
f 357//395 353//391 382//559 499//556
f 504//561 503//562 501//557 502//560
f 506//563 505//564 504//565 502//566
f 382//427 383//426 506//563 502//566
f 194//241 193//240 505//564 506//563
f 383//426 41//48 194//241 506//563
f 195//245 508//567 507//568 197//242
f 507//568 509//569 327//246 197//242
f 507//568 511//570 510//571 509//569
f 493//550 323//217 327//246 509//569
f 510//571 512//572 493//550 509//569
f 510//573 514//573 513//574 512//572
f 491//549 492//548 493//550 512//572
f 513//574 515//575 491//549 512//572
f 513//576 517//577 516//578 515//579
f 488//546 489//545 491//549 515//575
f 516//578 518//580 488//581 515//579
f 516//578 520//582 519//583 518//580
f 485//541 486//540 488//581 518//580
f 519//583 521//584 485//541 518//580
f 519//583 214//264 213//263 521//584
f 482//537 483//536 485//541 521//584
f 213//263 328//265 482//537 521//584
f 322//197 480//534 482//537 328//265
f 215//269 523//585 522//586 329//266
f 522//586 524//587 330//270 329//266
f 522//586 526//588 525//589 524//587
f 478//532 320//193 330//270 524//587
f 525//589 527//590 478//532 524//587
f 525//589 529//591 528//592 527//590
f 476//531 477//530 478//532 527//590
f 528//592 530//593 476//531 527//590
f 528//594 532//595 531//596 530//597
f 473//527 474//526 476//531 530//593
f 531//596 533//598 473//599 530//597
f 531//596 535//600 534//601 533//598
f 470//523 471//522 473//599 533//598
f 534//601 536//602 470//523 533//598
f 534//601 232//288 331//287 536//602
f 467//519 468//518 470//523 536//602
f 331//287 233//289 467//519 536//602
f 319//173 465//516 467//519 233//289
f 237//292 448//498 537//603 235//290
f 537//603 538//604 234//293 235//290
f 537//603 453//505 539//605 538//604
f 540//606 332//296 234//293 538//604
f 539//605 541//607 540//606 538//604
f 539//605 458//510 542//608 541//607
f 543//609 463//514 540//606 541//607
f 542//608 377//419 543//609 541//607
f 371//412 372//411 463//514 543//609
f 377//419 373//417 371//412 543//609
f 458//510 459//509 461//513 542//608
f 461//513 376//420 377//419 542//608
f 463//514 317//169 332//296 540//606
f 453//505 454//504 458//510 539//605
f 315//137 444//493 448//498 237//292
f 535//600 544//610 333//302 244//301
f 232//288 534//601 535//600 244//301
f 438//487 312//128 333//302 544//610
f 532//595 545//611 438//487 544//610
f 535//600 531//596 532//595 544//610
f 436//486 437//485 438//487 545//611
f 529//591 546//612 436//486 545//611
f 532//595 528//594 529//591 545//611
f 433//483 434//482 436//486 546//612
f 526//588 547//613 433//483 546//612
f 529//591 525//589 526//588 546//612
f 428//478 429//477 433//483 547//613
f 523//585 548//614 428//478 547//613
f 526//588 522//586 523//585 547//613
f 423//473 424//472 428//478 548//614
f 216//309 250//308 423//473 548//614
f 523//585 215//269 216//309 548//614
f 310//104 419//468 423//473 250//308
f 520//582 549//615 334//311 251//310
f 214//264 519//583 520//582 251//310
f 413//462 307//95 334//311 549//615
f 517//577 550//616 413//462 549//615
f 520//582 516//578 517//577 549//615
f 411//461 412//460 413//462 550//616
f 514//617 551//618 411//461 550//616
f 517//577 513//576 514//617 550//616
f 408//458 409//457 411//461 551//618
f 511//619 552//620 408//620 551//619
f 514//573 510//573 511//619 551//619
f 403//452 404//451 408//620 552//620
f 508//567 553//621 403//452 552//622
f 511//570 507//568 508//567 552//622
f 398//445 399//444 403//452 553//621
f 196//321 257//320 398//445 553//621
f 508//567 195//245 196//321 553//621
f 58//69 395//441 398//445 257//320
f 386//431 554//623 258//323 259//322
f 42//51 384//428 386//431 259//325
f 555//624 261//326 258//323 554//623
f 557//625 556//626 555//624 554//623
f 386//431 387//430 557//625 554//623
f 559//627 558//628 556//628 557//627
f 387//433 388//433 559//627 557//627
f 561//629 560//630 558//631 559//632
f 388//437 390//436 561//629 559//632
f 336//337 335//336 560//630 561//629
f 390//436 269//338 336//337 561//629
f 390//436 391//435 54//63 269//338
f 563//633 562//634 271//340 270//339
f 261//326 555//624 563//633 270//339
f 565//635 564//636 562//634 563//633
f 555//624 556//626 565//635 563//633
f 567//637 566//638 564//636 565//637
f 556//628 558//628 567//637 565//637
f 569//639 568//640 566//641 567//642
f 558//631 560//630 569//639 567//642
f 338//352 337//351 568//640 569//639
f 560//630 335//336 338//352 569//639
f 570//643 368//407 339//354 280//353
f 271//340 562//634 570//643 280//353
f 571//644 367//408 368//407 570//643
f 562//634 564//636 571//644 570//643
f 572//645 380//425 367//408 571//644
f 564//636 566//638 572//645 571//644
f 573//646 379//422 380//425 572//645
f 566//641 568//640 573//646 572//645
f 340//359 301//41 379//422 573//646
f 568//640 337//351 340//359 573//646
f 368//407 365//647 285//360 339//354
f 365//648 366//649 286//363 285//362
f 366//649 381//424 287//366 286//363
f 381//424 348//423 37//40 287//366
f 448//498 449//497 453//505 537//603
f 500//558 574//650 341//369 288//368
f 183//227 498//555 500//558 288//368
f 575//651 342//371 341//369 574//650
f 503//562 576//652 575//651 574//650
f 500//558 501//557 503//562 574//650
f 363//406 364//405 575//651 576//652
f 578//653 577//654 363//406 576//652
f 503//562 504//561 578//653 576//652
f 580//655 579//656 577//657 578//658
f 504//565 505//564 580//655 578//658
f 296//381 343//380 579//656 580//655
f 505//564 193//240 296//381 580//655
f 364//405 362//403 298//383 297//382
f 342//371 575//651 364//405 297//382
f 362//403 361//402 299//384 298//384
f 361//397 345//400 16//16 299//385
f 300//17 359//399 579//656 343//380
f 359//399 360//398 577//657 579//656
f 360//401 346//404 363//406 577//654
f 378//421 376//420 461//513 462//512
f 397//447 354//394 355//393 402//448
f 366//409 367//408 380//425 381//424
f 370//413 371//412 373//417 374//416
