# pilowlava3D glyph 'u' variant 3 — Vincent Wagner / Velvetyne, Free Art License
v 0.74763 3.76298 -0.58237
v 0.87852 4.32234 -0.38190
v 0.39664 4.26445 -0.39215
v 0.88727 3.30303 -0.40599
v 3.29210 2.50227 -0.36176
v 2.97345 4.12668 -0.39177
v 3.35840 2.07954 -0.50334
v 3.42317 4.32633 -0.38787
v 0.60077 3.46765 -0.55170
v 0.31212 3.57228 -0.47749
v 0.34921 3.82071 -0.49403
v 0.35626 4.07911 -0.45621
v 0.67731 4.09658 -0.54013
v 0.96553 4.15152 -0.44862
v 1.03317 3.89513 -0.46705
v 1.12202 3.67616 -0.41544
v 1.00478 3.54393 -0.48482
v 0.64217 4.31861 -0.41824
v 0.62778 4.46096 -0.23413
v 0.93518 4.40848 -0.23750
v 1.13481 4.21666 -0.25403
v 0.31993 4.35896 -0.24525
v 0.15262 4.11454 -0.24944
v 0.94633 3.16086 -0.20537
v 0.78612 3.03607 -0.21143
v 0.68147 3.12580 -0.38703
v 0.48019 3.23758 -0.50104
v 1.18387 3.28285 -0.33504
v 1.16304 3.19156 -0.19627
v 1.22972 3.39333 -0.39971
v 3.49794 2.63072 -0.31324
v 3.60016 2.56403 -0.37816
v 3.49196 2.36116 -0.43647
v 3.29491 2.62267 -0.18323
v 3.45619 2.66678 -0.17714
v 3.04166 2.60447 -0.38766
v 3.10393 2.71409 -0.20528
v 2.84634 4.18704 -0.25456
v 3.10959 4.43139 -0.25372
v 3.18022 4.26600 -0.42245
v 3.26743 4.07948 -0.49198
v 3.01907 3.95472 -0.41058
v 2.85699 3.88850 -0.23502
v 3.09917 1.88834 -0.42303
v 2.92986 2.05485 -0.42907
v 3.11867 2.25937 -0.49864
v 3.62810 2.05663 -0.41652
v 3.62898 1.79562 -0.41401
v 3.43292 1.77201 -0.48910
v 3.22659 1.68678 -0.41301
v 3.65866 2.28702 -0.39024
v 3.45345 4.44008 -0.24408
v 3.68858 4.24793 -0.24286
v 3.53465 4.18152 -0.41906
v 3.59828 3.96125 -0.42033
v 3.35460 3.88812 -0.49515
v 3.75558 3.99250 -0.23218
v 3.76904 3.74902 -0.22397
v 3.63524 3.72709 -0.40674
v 3.81685 4.00525 -0.00000
v 3.83469 3.51613 -0.00000
v 3.78300 3.50990 -0.21645
v 3.83865 3.27775 -0.00000
v 3.84319 3.02423 -0.00000
v 3.81009 3.02085 -0.19353
v 3.79666 3.27127 -0.20421
v 3.74660 3.01060 -0.32228
v 3.71111 3.24940 -0.35447
v 3.67262 3.48710 -0.38491
v 3.60458 3.22024 -0.40161
v 3.52481 3.44489 -0.44066
v 3.44191 3.67289 -0.47361
v 3.38719 3.38847 -0.38034
v 3.26561 3.58759 -0.40193
v 3.13666 3.76990 -0.41365
v 3.14731 3.50714 -0.22189
v 2.99747 3.67441 -0.22722
v 2.94519 3.64050 -0.00000
v 2.79478 3.87985 -0.00000
v 2.79593 4.22335 -0.00000
v 3.79709 2.50726 -0.20253
v 3.81059 2.76330 -0.19163
v 3.70970 2.52592 -0.34329
v 3.74571 2.76915 -0.31589
v 3.67073 2.77855 -0.34938
v 3.66733 2.99586 -0.36419
v 3.59550 2.79287 -0.29499
v 3.58807 2.98605 -0.31148
v 3.50020 3.18462 -0.35370
v 3.52109 2.97864 -0.18131
v 3.41103 3.15291 -0.20235
v 3.28540 3.33626 -0.21525
v 3.23633 3.30271 -0.00000
v 3.44724 2.67953 -0.00000
v 3.54671 2.80329 -0.17499
v 3.29646 2.65405 -0.00000
v 3.12682 2.75384 -0.00000
v 2.91844 2.84863 -0.21948
v 2.56554 3.20667 -0.00000
v 2.72812 2.99699 -0.21982
v 2.53041 3.16312 -0.21794
v 2.64606 2.89335 -0.40526
v 2.45094 3.05690 -0.39810
v 2.23274 3.19975 -0.38772
v 2.30191 3.32617 -0.21852
v 2.32474 3.36892 -0.00000
v 2.01440 3.36958 -0.20135
v 3.16609 1.38726 -0.00000
v 3.82988 1.79052 -0.00000
v 3.83133 2.02649 -0.00000
v 3.76765 1.79420 -0.22629
v 3.77025 2.03298 -0.22827
v 3.77892 2.26127 -0.21901
v 3.76892 1.53650 -0.21680
v 3.65283 1.52554 -0.38637
v 3.66614 1.24866 -0.35954
v 3.53967 1.24153 -0.40747
v 3.49556 1.49960 -0.45003
v 3.76668 1.25156 -0.20919
v 3.71230 0.95450 -0.20103
v 3.63092 0.96766 -0.33653
v 3.74658 0.94943 -0.00000
v 3.61058 0.65970 -0.00000
v 3.58461 0.67181 -0.19559
v 3.40588 0.41341 -0.00000
v 3.13652 0.25944 -0.19864
v 3.38754 0.43346 -0.19600
v 3.10916 0.32315 -0.31884
v 3.34119 0.48212 -0.31049
v 3.52162 0.70186 -0.31791
v 3.27850 0.55019 -0.34635
v 3.43939 0.74513 -0.35162
v 3.52911 0.98458 -0.37465
v 3.35808 0.78893 -0.30148
v 3.42264 1.00156 -0.32464
v 3.40958 1.22917 -0.35228
v 3.33905 1.01907 -0.18556
v 3.30786 1.22016 -0.20084
v 3.21506 1.41263 -0.21880
v 3.33450 1.45943 -0.38458
v 3.08499 1.59600 -0.23111
v 2.93919 1.76056 -0.23580
v 2.78273 1.93119 -0.23811
v 2.61751 2.11049 -0.23622
v 2.74292 2.22769 -0.42666
v 2.44861 2.28422 -0.23290
v 2.56001 2.39970 -0.41951
v 2.70622 2.56841 -0.49232
v 2.90358 2.40494 -0.49950
v 2.83902 2.73718 -0.40541
v 2.51486 2.73089 -0.48400
v 2.38097 2.56656 -0.40834
v 2.20531 2.72368 -0.39767
v 2.32693 2.89095 -0.47043
v 2.03404 2.86613 -0.38090
v 2.13446 3.02892 -0.44766
v 1.85567 2.98899 -0.36224
v 1.92480 3.12315 -0.41563
v 1.98320 3.26875 -0.35430
v 1.69113 3.19718 -0.37516
v 1.72626 3.29127 -0.32609
v 1.75069 3.35519 -0.19136
v 1.49202 3.35607 -0.31457
v 1.51996 3.41193 -0.18442
v 2.07938 2.57029 -0.00000
v 2.23450 2.40536 -0.00000
v 2.28325 2.45440 -0.22605
v 2.12170 2.61517 -0.21920
v 1.96381 2.76435 -0.21172
v 1.79788 2.90094 -0.20100
v 1.60947 3.02431 -0.19276
v 1.64810 3.10074 -0.33660
v 1.39429 3.13288 -0.18902
v 1.42220 3.20148 -0.32316
v 1.45901 3.28445 -0.36678
v 1.28400 3.48476 -0.34599
v 1.24075 3.76025 -0.22954
v 1.34114 3.55818 -0.19968
v 1.20515 3.97644 -0.25177
v 0.95454 4.44890 -0.00000
v 0.62611 4.50716 -0.00000
v 0.29315 4.40855 -0.00000
v 0.09212 4.14668 -0.00000
v 0.11943 3.85022 -0.26035
v 0.01843 3.34299 -0.00000
v 0.11075 3.59877 -0.25416
v 0.09378 3.33893 -0.24210
v 0.25822 3.31041 -0.43639
v 0.21388 3.04519 -0.40091
v 0.08067 3.07254 -0.22517
v 0.01712 3.07897 -0.00000
v 0.06424 2.81219 -0.21262
v 0.58420 2.63777 -0.00000
v 0.82474 2.99580 -0.00000
v 0.66455 2.85743 -0.21404
v 0.96548 3.11822 -0.00000
v 1.16089 3.15463 -0.00000
v 1.38469 3.10963 -0.00000
v 0.54410 2.66030 -0.20594
v 0.44833 2.69860 -0.36491
v 0.55597 2.92222 -0.38650
v 0.31853 2.74611 -0.42729
v 0.39365 2.98961 -0.46384
v 0.17790 2.78672 -0.37643
v 0.23944 2.50556 -0.39402
v 0.13620 2.53280 -0.34859
v 0.05028 2.55461 -0.19860
v 0.09645 2.27554 -0.31623
v 0.03725 2.28643 -0.18433
v 0.00629 2.29234 -0.00000
v 0.00972 2.56094 -0.00000
v 0.33400 2.24317 -0.17198
v 0.42693 2.45429 -0.19055
v 0.26445 2.25009 -0.30571
v 0.34520 2.47634 -0.33957
v 0.17911 2.26114 -0.35864
v 0.23943 2.01687 -0.28961
v 0.16075 2.01359 -0.34220
v 0.08299 2.01087 -0.30327
v 0.18533 1.76554 -0.36002
v 0.09999 1.74228 -0.32451
v 0.02744 1.71788 -0.18623
v 0.02444 2.00795 -0.17713
v 0.36005 1.81033 -0.00000
v 0.31450 2.02146 -0.00000
v 0.34178 1.80645 -0.17091
v 0.29887 2.02049 -0.16379
v 0.27084 1.78768 -0.30788
v 0.45209 1.63261 -0.18988
v 0.36800 1.58431 -0.34533
v 0.26189 1.52149 -0.40277
v 0.52658 1.41532 -0.37800
v 0.40170 1.30296 -0.44343
v 0.26706 1.20301 -0.38683
v 0.15742 1.46776 -0.35728
v 0.15736 1.14326 -0.22027
v 0.07097 1.42526 -0.20837
v 0.11105 1.12448 -0.00000
v 0.60989 1.50208 -0.21152
v 0.79005 1.38508 -0.22431
v 0.70515 1.27158 -0.40247
v 0.97296 1.27307 -0.23076
v 0.88580 1.13818 -0.42183
v 0.73990 0.94886 -0.50487
v 0.56433 1.11672 -0.47669
v 0.58183 0.76612 -0.43111
v 0.40849 0.97207 -0.40941
v 0.47005 0.64674 -0.24016
v 0.29059 0.88063 -0.22740
v 0.42242 0.60099 -0.00000
v 0.24261 0.84852 -0.00000
v 1.00943 1.33699 -0.00000
v 1.15926 1.16538 -0.23612
v 1.38731 1.13440 -0.00000
v 1.74449 0.00687 -0.00000
v 2.02295 0.00000 -0.00000
v 2.29836 0.01325 -0.00000
v 1.75317 0.07084 -0.22852
v 2.02603 0.05846 -0.21836
v 2.29710 0.06477 -0.21051
v 2.04028 0.18920 -0.39531
v 2.30301 0.18100 -0.37642
v 2.57100 0.19252 -0.35958
v 2.57210 0.09058 -0.20660
v 2.57445 0.04703 -0.00000
v 2.85701 0.15024 -0.20231
v 1.98042 0.83719 -0.00000
v 1.78033 0.93745 -0.00000
v 1.58119 1.03506 -0.00000
v 1.74655 0.87288 -0.23248
v 1.54379 0.96547 -0.23634
v 1.34827 1.06303 -0.23785
v 1.46785 0.81110 -0.43417
v 1.26302 0.90713 -0.43737
v 1.06978 1.01511 -0.43193
v 1.14207 0.68065 -0.52409
v 0.93190 0.80227 -0.51844
v 1.02432 0.45141 -0.44907
v 0.78900 0.58927 -0.44601
v 0.94203 0.29600 -0.24988
v 0.68896 0.44678 -0.24925
v 0.64680 0.39123 -0.00000
v 1.20793 0.18736 -0.24531
v 1.47914 0.11366 -0.23765
v 1.27156 0.34798 -0.44344
v 1.52309 0.27118 -0.42957
v 1.77957 0.21728 -0.41386
v 1.59756 0.50096 -0.50534
v 1.83182 0.43370 -0.48652
v 2.07285 0.38192 -0.46405
v 1.89719 0.64204 -0.40629
v 2.11816 0.56807 -0.38848
v 2.34648 0.50164 -0.36911
v 2.32054 0.34356 -0.43393
v 2.57875 0.44772 -0.35024
v 2.57156 0.32182 -0.40526
v 2.81172 0.43373 -0.32636
v 2.82750 0.33249 -0.37759
v 2.84340 0.23072 -0.33835
v 3.07024 0.40814 -0.35444
v 3.03085 0.48968 -0.30490
v 3.21834 0.61427 -0.29594
v 2.99963 0.55161 -0.17767
v 3.17584 0.65829 -0.17306
v 3.29442 0.82389 -0.17565
v 3.31468 1.02606 -0.00000
v 3.27037 1.21700 -0.00000
v 2.17987 0.73730 -0.00000
v 2.36880 0.60627 -0.20658
v 2.15730 0.68644 -0.21424
v 1.95065 0.77851 -0.22454
v 1.68042 0.72384 -0.42367
v 1.36720 0.58242 -0.52003
v 2.58372 0.54202 -0.19815
v 2.79501 0.51636 -0.18749
v 3.73424 4.28190 -0.00000
v 3.83057 3.75406 -0.00000
v 3.09669 3.46602 -0.00000
v 3.08920 4.48421 -0.00000
v 3.46243 4.49036 -0.00000
v 3.83897 2.49934 -0.00000
v 3.84338 2.76003 -0.00000
v 3.36972 3.13718 -0.00000
v 3.53323 2.80591 -0.00000
v 2.95135 2.89387 -0.00000
v 2.76413 3.04260 -0.00000
v 2.02249 3.40532 -0.00000
v 3.03030 1.54902 -0.00000
v 3.83354 2.25494 -0.00000
v 3.82678 1.53744 -0.00000
v 3.81203 1.25145 -0.00000
v 3.14716 0.23180 -0.00000
v 2.87958 1.70948 -0.00000
v 2.71968 1.88191 -0.00000
v 2.55804 2.05932 -0.00000
v 1.53107 3.43059 -0.00000
v 1.76347 3.38042 -0.00000
v 1.92786 2.72413 -0.00000
v 2.39438 2.23401 -0.00000
v 1.77315 2.86766 -0.00000
v 1.59462 3.00157 -0.00000
v 1.29347 3.78653 -0.00000
v 1.36842 3.58319 -0.00000
v 1.26584 4.00129 -0.00000
v 1.18637 4.24447 -0.00000
v 0.03108 3.86193 -0.00000
v 0.02191 3.60179 -0.00000
v 0.01274 2.81966 -0.00000
v 0.70653 2.82454 -0.00000
v 0.35629 2.24238 -0.00000
v 0.46005 2.44377 -0.00000
v 0.00008 1.70957 -0.00000
v 0.00000 2.00719 -0.00000
v 0.03297 1.41050 -0.00000
v 0.64275 1.53983 -0.00000
v 0.48061 1.64837 -0.00000
v 0.82339 1.43910 -0.00000
v 1.19753 1.23575 -0.00000
v 1.46181 0.04489 -0.00000
v 2.86298 0.11498 -0.00000
v 0.90523 0.23211 -0.00000
v 1.17950 0.11814 -0.00000
v 3.16357 0.67154 -0.00000
v 3.27779 0.83449 -0.00000
v 2.38182 0.64905 -0.00000
v 2.58415 0.57916 -0.00000
v 2.78806 0.54632 -0.00000
v 2.98889 0.57126 -0.00000
v 3.49551 2.97353 -0.00000
v 0.74763 3.76298 0.58237
v 0.87852 4.32234 0.38190
v 0.39664 4.26445 0.39215
v 0.88727 3.30303 0.40599
v 3.29210 2.50227 0.36176
v 2.97345 4.12668 0.39177
v 3.35840 2.07954 0.50334
v 3.42317 4.32633 0.38787
v 0.60077 3.46765 0.55170
v 0.31212 3.57228 0.47749
v 0.34921 3.82071 0.49403
v 0.35626 4.07911 0.45621
v 0.67731 4.09658 0.54013
v 0.96553 4.15152 0.44862
v 1.03317 3.89513 0.46705
v 1.12202 3.67616 0.41544
v 1.00478 3.54393 0.48482
v 0.64217 4.31861 0.41824
v 0.62778 4.46096 0.23413
v 0.93518 4.40848 0.23750
v 1.13481 4.21666 0.25403
v 0.31993 4.35896 0.24525
v 0.15262 4.11454 0.24944
v 0.94633 3.16086 0.20537
v 0.78612 3.03607 0.21143
v 0.68147 3.12580 0.38703
v 0.48019 3.23758 0.50104
v 1.18387 3.28285 0.33504
v 1.16304 3.19156 0.19627
v 1.22972 3.39333 0.39971
v 3.49794 2.63072 0.31324
v 3.60016 2.56403 0.37816
v 3.49196 2.36116 0.43647
v 3.29491 2.62267 0.18323
v 3.45619 2.66678 0.17714
v 3.04166 2.60447 0.38766
v 3.10393 2.71409 0.20528
v 2.84634 4.18704 0.25456
v 3.10959 4.43139 0.25372
v 3.18022 4.26600 0.42245
v 3.26743 4.07948 0.49198
v 3.01907 3.95472 0.41058
v 2.85699 3.88850 0.23502
v 3.09917 1.88834 0.42303
v 2.92986 2.05485 0.42907
v 3.11867 2.25937 0.49864
v 3.62810 2.05663 0.41652
v 3.62898 1.79562 0.41401
v 3.43292 1.77201 0.48910
v 3.22659 1.68678 0.41301
v 3.65866 2.28702 0.39024
v 3.45345 4.44008 0.24408
v 3.68858 4.24793 0.24286
v 3.53465 4.18152 0.41906
v 3.59828 3.96125 0.42033
v 3.35460 3.88812 0.49515
v 3.75558 3.99250 0.23218
v 3.76904 3.74902 0.22397
v 3.63524 3.72709 0.40674
v 3.78300 3.50990 0.21645
v 3.81009 3.02085 0.19353
v 3.79666 3.27127 0.20421
v 3.74660 3.01060 0.32228
v 3.71111 3.24940 0.35447
v 3.67262 3.48710 0.38491
v 3.60458 3.22024 0.40161
v 3.52481 3.44489 0.44066
v 3.44191 3.67289 0.47361
v 3.38719 3.38847 0.38034
v 3.26561 3.58759 0.40193
v 3.13666 3.76990 0.41365
v 3.14731 3.50714 0.22189
v 2.99747 3.67441 0.22722
v 3.79709 2.50726 0.20253
v 3.81059 2.76330 0.19163
v 3.70970 2.52592 0.34329
v 3.74571 2.76915 0.31589
v 3.67073 2.77855 0.34938
v 3.66733 2.99586 0.36419
v 3.59550 2.79287 0.29499
v 3.58807 2.98605 0.31148
v 3.50020 3.18462 0.35370
v 3.52109 2.97864 0.18131
v 3.41103 3.15291 0.20235
v 3.28540 3.33626 0.21525
v 3.54671 2.80329 0.17499
v 2.91844 2.84863 0.21948
v 2.72812 2.99699 0.21982
v 2.53041 3.16312 0.21794
v 2.64606 2.89335 0.40526
v 2.45094 3.05690 0.39810
v 2.23274 3.19975 0.38772
v 2.30191 3.32617 0.21852
v 2.01440 3.36958 0.20135
v 3.76765 1.79420 0.22629
v 3.77025 2.03298 0.22827
v 3.77892 2.26127 0.21901
v 3.76892 1.53650 0.21680
v 3.65283 1.52554 0.38637
v 3.66614 1.24866 0.35954
v 3.53967 1.24153 0.40747
v 3.49556 1.49960 0.45003
v 3.76668 1.25156 0.20919
v 3.71230 0.95450 0.20103
v 3.63092 0.96766 0.33653
v 3.58461 0.67181 0.19559
v 3.13652 0.25944 0.19864
v 3.38754 0.43346 0.19600
v 3.10916 0.32315 0.31884
v 3.34119 0.48212 0.31049
v 3.52162 0.70186 0.31791
v 3.27850 0.55019 0.34635
v 3.43939 0.74513 0.35162
v 3.52911 0.98458 0.37465
v 3.35808 0.78893 0.30148
v 3.42264 1.00156 0.32464
v 3.40958 1.22917 0.35228
v 3.33905 1.01907 0.18556
v 3.30786 1.22016 0.20084
v 3.21506 1.41263 0.21880
v 3.33450 1.45943 0.38458
v 3.08499 1.59600 0.23111
v 2.93919 1.76056 0.23580
v 2.78273 1.93119 0.23811
v 2.61751 2.11049 0.23622
v 2.74292 2.22769 0.42666
v 2.44861 2.28422 0.23290
v 2.56001 2.39970 0.41951
v 2.70622 2.56841 0.49232
v 2.90358 2.40494 0.49950
v 2.83902 2.73718 0.40541
v 2.51486 2.73089 0.48400
v 2.38097 2.56656 0.40834
v 2.20531 2.72368 0.39767
v 2.32693 2.89095 0.47043
v 2.03404 2.86613 0.38090
v 2.13446 3.02892 0.44766
v 1.85567 2.98899 0.36224
v 1.92480 3.12315 0.41563
v 1.98320 3.26875 0.35430
v 1.69113 3.19718 0.37516
v 1.72626 3.29127 0.32609
v 1.75069 3.35519 0.19136
v 1.49202 3.35607 0.31457
v 1.51996 3.41193 0.18442
v 2.28325 2.45440 0.22605
v 2.12170 2.61517 0.21920
v 1.96381 2.76435 0.21172
v 1.79788 2.90094 0.20100
v 1.60947 3.02431 0.19276
v 1.64810 3.10074 0.33660
v 1.39429 3.13288 0.18902
v 1.42220 3.20148 0.32316
v 1.45901 3.28445 0.36678
v 1.28400 3.48476 0.34599
v 1.24075 3.76025 0.22954
v 1.34114 3.55818 0.19968
v 1.20515 3.97644 0.25177
v 0.11943 3.85022 0.26035
v 0.11075 3.59877 0.25416
v 0.09378 3.33893 0.24210
v 0.25822 3.31041 0.43639
v 0.21388 3.04519 0.40091
v 0.08067 3.07254 0.22517
v 0.06424 2.81219 0.21262
v 0.66455 2.85743 0.21404
v 0.54410 2.66030 0.20594
v 0.44833 2.69860 0.36491
v 0.55597 2.92222 0.38650
v 0.31853 2.74611 0.42729
v 0.39365 2.98961 0.46384
v 0.17790 2.78672 0.37643
v 0.23944 2.50556 0.39402
v 0.13620 2.53280 0.34859
v 0.05028 2.55461 0.19860
v 0.09645 2.27554 0.31623
v 0.03725 2.28643 0.18433
v 0.33400 2.24317 0.17198
v 0.42693 2.45429 0.19055
v 0.26445 2.25009 0.30571
v 0.34520 2.47634 0.33957
v 0.17911 2.26114 0.35864
v 0.23943 2.01687 0.28961
v 0.16075 2.01359 0.34220
v 0.08299 2.01087 0.30327
v 0.18533 1.76554 0.36002
v 0.09999 1.74228 0.32451
v 0.02744 1.71788 0.18623
v 0.02444 2.00795 0.17713
v 0.34178 1.80645 0.17091
v 0.29887 2.02049 0.16379
v 0.27084 1.78768 0.30788
v 0.45209 1.63261 0.18988
v 0.36800 1.58431 0.34533
v 0.26189 1.52149 0.40277
v 0.52658 1.41532 0.37800
v 0.40170 1.30296 0.44343
v 0.26706 1.20301 0.38683
v 0.15742 1.46776 0.35728
v 0.15736 1.14326 0.22027
v 0.07097 1.42526 0.20837
v 0.60989 1.50208 0.21152
v 0.79005 1.38508 0.22431
v 0.70515 1.27158 0.40247
v 0.97296 1.27307 0.23076
v 0.88580 1.13818 0.42183
v 0.73990 0.94886 0.50487
v 0.56433 1.11672 0.47669
v 0.58183 0.76612 0.43111
v 0.40849 0.97207 0.40941
v 0.47005 0.64674 0.24016
v 0.29059 0.88063 0.22740
v 1.15926 1.16538 0.23612
v 1.75317 0.07084 0.22852
v 2.02603 0.05846 0.21836
v 2.29710 0.06477 0.21051
v 2.04028 0.18920 0.39531
v 2.30301 0.18100 0.37642
v 2.57100 0.19252 0.35958
v 2.57210 0.09058 0.20660
v 2.85701 0.15024 0.20231
v 1.74655 0.87288 0.23248
v 1.54379 0.96547 0.23634
v 1.34827 1.06303 0.23785
v 1.46785 0.81110 0.43417
v 1.26302 0.90713 0.43737
v 1.06978 1.01511 0.43193
v 1.14207 0.68065 0.52409
v 0.93190 0.80227 0.51844
v 1.02432 0.45141 0.44907
v 0.78900 0.58927 0.44601
v 0.94203 0.29600 0.24988
v 0.68896 0.44678 0.24925
v 1.20793 0.18736 0.24531
v 1.47914 0.11366 0.23765
v 1.27156 0.34798 0.44344
v 1.52309 0.27118 0.42957
v 1.77957 0.21728 0.41386
v 1.59756 0.50096 0.50534
v 1.83182 0.43370 0.48652
v 2.07285 0.38192 0.46405
v 1.89719 0.64204 0.40629
v 2.11816 0.56807 0.38848
v 2.34648 0.50164 0.36911
v 2.32054 0.34356 0.43393
v 2.57875 0.44772 0.35024
v 2.57156 0.32182 0.40526
v 2.81172 0.43373 0.32636
v 2.82750 0.33249 0.37759
v 2.84340 0.23072 0.33835
v 3.07024 0.40814 0.35444
v 3.03085 0.48968 0.30490
v 3.21834 0.61427 0.29594
v 2.99963 0.55161 0.17767
v 3.17584 0.65829 0.17306
v 3.29442 0.82389 0.17565
v 2.36880 0.60627 0.20658
v 2.15730 0.68644 0.21424
v 1.95065 0.77851 0.22454
v 1.68042 0.72384 0.42367
v 1.36720 0.58242 0.52003
v 2.58372 0.54202 0.19815
v 2.79501 0.51636 0.18749
vn 0.09851 -0.00539 -0.99512
vn -0.01097 -0.19689 -0.98036
vn -0.52159 -0.00532 -0.85318
vn -0.49289 0.06707 -0.86751
vn -0.47238 0.26875 -0.83942
vn -0.00144 0.29306 -0.95609
vn 0.45105 0.36789 -0.81315
vn 0.57292 0.13248 -0.80884
vn 0.63130 0.16238 -0.75835
vn 0.31826 -0.15738 -0.93485
vn 0.24721 -0.53357 -0.80882
vn 0.28552 0.64054 -0.71287
vn -0.05027 0.63608 -0.76999
vn -0.06656 0.91030 -0.40856
vn 0.39802 0.81940 -0.41251
vn 0.75719 0.47373 -0.44971
vn -0.38539 0.54177 -0.74697
vn -0.52921 0.71702 -0.45368
vn -0.80792 0.32859 -0.48918
vn 0.36614 -0.83021 -0.42034
vn 0.66674 -0.60563 -0.43436
vn 0.46374 -0.42872 -0.77534
vn 0.00495 -0.19392 -0.98100
vn -0.03050 -0.66402 -0.74710
vn -0.04291 -0.92672 -0.37329
vn -0.00310 -0.45160 -0.89222
vn 0.04735 0.58622 -0.80876
vn -0.45899 0.56896 -0.68236
vn 0.01882 0.23562 -0.97166
vn 0.13501 0.24022 -0.96128
vn -0.26080 0.92554 -0.27452
vn -0.56916 0.77842 -0.26479
vn 0.35720 0.53117 -0.76829
vn 0.49844 0.77232 -0.39380
vn 0.43847 0.81785 -0.37264
vn -0.53307 0.19436 -0.82345
vn -0.58884 0.65415 -0.47472
vn -0.32757 0.81328 -0.48090
vn -0.19460 0.46143 -0.86557
vn -0.05688 0.10678 -0.99265
vn -0.49856 -0.13670 -0.85601
vn -0.83023 -0.27804 -0.48313
vn -0.88575 -0.06343 -0.45980
vn 0.06332 0.01575 -0.99787
vn -0.37183 -0.33080 -0.86736
vn -0.34475 -0.36107 -0.86647
vn -0.00665 0.07496 -0.99716
vn 0.58864 0.01428 -0.80827
vn 0.60595 -0.01399 -0.79538
vn 0.04639 -0.11315 -0.99249
vn -0.44251 -0.32491 -0.83583
vn 0.59743 0.02956 -0.80137
vn 0.20104 0.58979 -0.78213
vn 0.29203 0.84095 -0.45554
vn 0.74794 0.47910 -0.45941
vn 0.42279 0.31908 -0.84820
vn 0.53767 0.09374 -0.83793
vn 0.00778 -0.06039 -0.99814
vn 0.87650 0.14128 -0.46020
vn 0.89956 0.04873 -0.43407
vn 0.58970 0.02618 -0.80719
vn 0.83321 0.55295 -0.00118
vn 0.98727 0.15907 -0.00049
vn 0.99912 0.04202 -0.00000
vn 0.99947 0.03247 -0.00001
vn 0.91666 0.04076 -0.39759
vn 0.99951 0.03144 0.00006
vn 0.99987 0.01618 0.00004
vn 0.94610 0.01843 -0.32336
vn 0.93412 0.03911 -0.35480
vn 0.69910 -0.00962 -0.71496
vn 0.67316 0.00477 -0.73948
vn 0.62999 0.01008 -0.77653
vn 0.41598 -0.03738 -0.90861
vn 0.04008 -0.15793 -0.98664
vn 0.03109 -0.12668 -0.99146
vn -0.49708 -0.39268 -0.77377
vn -0.45458 -0.37965 -0.80575
vn -0.44396 -0.32229 -0.83608
vn -0.68173 -0.57349 -0.45426
vn -0.70073 -0.53094 -0.47653
vn -0.75707 -0.65333 0.00002
vn -0.79595 -0.60536 -0.00029
vn -0.95584 -0.29389 0.00079
vn -0.99972 -0.02364 0.00223
vn -0.67231 0.74027 0.00065
vn -0.01796 0.99984 0.00008
vn 0.32040 0.94728 -0.00060
vn 0.99989 -0.01500 -0.00006
vn 0.99937 -0.03551 -0.00000
vn 0.92742 -0.04135 -0.37173
vn 0.94349 -0.02113 -0.33073
vn 0.63115 0.01275 -0.77555
vn 0.67733 -0.01589 -0.73551
vn 0.40166 -0.00286 -0.91578
vn 0.44199 -0.03857 -0.89619
vn -0.49407 -0.19253 -0.84784
vn -0.52047 0.12260 -0.84504
vn -0.73155 0.17443 -0.65910
vn -0.69199 -0.25614 -0.67494
vn -0.55856 -0.40153 -0.72580
vn -0.35642 -0.29113 -0.88781
vn -0.88788 -0.34878 -0.30004
vn -0.76308 -0.53744 -0.35899
vn -0.72078 -0.55358 -0.41716
vn -0.80668 -0.59098 0.00049
vn -0.78253 -0.62261 0.00034
vn -0.82983 0.55802 -0.00017
vn -0.94231 0.21026 -0.26047
vn -0.21331 0.97698 0.00184
vn 0.47852 0.87807 0.00133
vn 0.54639 0.83753 0.00076
vn 0.55822 0.71591 -0.41936
vn 0.61502 0.78851 0.00008
vn 0.62904 0.77738 -0.00001
vn 0.56840 0.70363 -0.42641
vn 0.54119 0.72138 -0.43212
vn 0.60521 0.79606 -0.00015
vn 0.37241 0.47943 -0.79464
vn 0.32899 0.48586 -0.80976
vn 0.17495 0.55373 -0.81411
vn 0.32184 0.84436 -0.42835
vn 0.35858 0.93350 -0.00002
vn 0.03558 0.93088 -0.36359
vn 0.02514 0.99968 0.00001
vn 0.99990 -0.01410 0.00001
vn 0.99996 -0.00914 0.00003
vn 0.90145 -0.00701 -0.43283
vn 0.90116 -0.01473 -0.43324
vn 0.91055 -0.03238 -0.41212
vn 0.99957 -0.02947 0.00006
vn 0.90941 -0.01516 -0.41562
vn 0.62318 -0.04085 -0.78101
vn 0.99978 -0.02084 0.00004
vn 0.62389 -0.10071 -0.77499
vn 0.35704 -0.10419 -0.92826
vn 0.03077 -0.15790 -0.98698
vn 0.91648 -0.10244 -0.38673
vn 0.89022 -0.28874 -0.35234
vn 0.59980 -0.22289 -0.76848
vn 0.99319 -0.11654 -0.00008
vn 0.95026 -0.31147 -0.00003
vn 0.84585 -0.53343 0.00005
vn 0.79830 -0.50398 -0.32971
vn 0.67741 -0.73560 -0.00005
vn 0.47603 -0.87943 0.00004
vn 0.44898 -0.82948 -0.33223
vn 0.64071 -0.69546 -0.32531
vn 0.32699 -0.56152 -0.76011
vn 0.44119 -0.47742 -0.75988
vn 0.53700 -0.36178 -0.76207
vn 0.24508 -0.26357 -0.93299
vn 0.28117 -0.21966 -0.93418
vn 0.32201 -0.16123 -0.93291
vn -0.43438 -0.02584 -0.90036
vn -0.42986 0.18051 -0.88467
vn -0.63457 0.28162 -0.71973
vn -0.67024 -0.00277 -0.74214
vn -0.60691 -0.22041 -0.76360
vn -0.37459 -0.17053 -0.91137
vn -0.94122 0.01258 -0.33755
vn -0.87577 -0.30302 -0.37576
vn -0.76389 -0.47769 -0.43392
vn -0.51709 -0.32210 -0.79301
vn -0.67861 -0.54297 -0.49465
vn -0.83304 -0.55321 0.00121
vn -0.76230 -0.64722 0.00048
vn -0.73523 -0.67782 0.00001
vn -0.62712 -0.57226 -0.52843
vn -0.73610 -0.67687 0.00001
vn -0.61681 -0.58621 -0.52526
vn -0.73159 -0.68175 0.00002
vn -0.62469 -0.59550 -0.50511
vn -0.37408 -0.37568 -0.84790
vn -0.63128 -0.60384 -0.48669
vn -0.40283 -0.38446 -0.83061
vn -0.23085 -0.21251 -0.94950
vn -0.19439 -0.20717 -0.95880
vn 0.24475 0.32527 -0.91340
vn 0.23678 0.29796 -0.92475
vn 0.38299 0.48857 -0.78397
vn -0.02399 0.03589 -0.99907
vn -0.41813 -0.39661 -0.81723
vn -0.42677 -0.40989 -0.80613
vn -0.05653 0.03653 -0.99773
vn -0.42036 -0.43585 -0.79583
vn -0.10736 0.05340 -0.99279
vn -0.39361 -0.48306 -0.78213
vn -0.14465 0.08236 -0.98605
vn 0.01257 0.64693 -0.76244
vn 0.04419 0.46254 -0.88549
vn 0.07184 0.70274 -0.70781
vn 0.08435 0.94792 -0.30714
vn 0.32137 0.64099 -0.69703
vn 0.42648 0.84967 -0.31011
vn 0.45678 0.88958 0.00031
vn 0.07365 0.99728 -0.00011
vn -0.72612 -0.68757 0.00000
vn -0.72369 -0.69012 0.00000
vn -0.63574 -0.61343 -0.46856
vn -0.71158 -0.70261 0.00004
vn -0.63204 -0.63312 -0.44686
vn -0.68290 -0.73051 0.00013
vn -0.61304 -0.66974 -0.41908
vn -0.62031 -0.78435 0.00018
vn -0.56269 -0.73413 -0.38005
vn -0.51705 -0.85596 0.00009
vn -0.47830 -0.80981 -0.33976
vn -0.34003 -0.55099 -0.76209
vn -0.32829 -0.88286 -0.33583
vn -0.23453 -0.62827 -0.74181
vn -0.14061 -0.39831 -0.90641
vn -0.21610 -0.29914 -0.92942
vn 0.23017 0.43908 -0.86847
vn 0.41157 0.26394 -0.87232
vn 0.55297 0.41100 -0.72478
vn 0.87219 0.25470 -0.41762
vn 0.74244 0.56260 -0.36369
vn 0.96552 0.26033 -0.00053
vn 0.81338 0.58174 -0.00020
vn 0.97672 0.21450 0.00006
vn 0.87021 0.19470 -0.45258
vn 0.84340 0.53729 0.00059
vn 0.43893 0.89852 0.00040
vn -0.06402 0.99795 -0.00039
vn -0.58094 0.81394 -0.00119
vn -0.91970 0.39261 -0.00175
vn -0.85150 0.08995 -0.51659
vn -0.99471 0.10267 -0.00084
vn -0.99951 0.03115 0.00001
vn -0.86091 0.03239 -0.50772
vn -0.87634 0.02652 -0.48096
vn -0.99970 0.02461 0.00001
vn -0.55664 -0.01844 -0.83055
vn -0.58687 -0.00635 -0.80966
vn -0.89376 0.02886 -0.44761
vn -0.99967 0.02566 0.00000
vn -0.91253 0.03689 -0.40734
vn -0.99954 0.03020 -0.00004
vn 0.73911 -0.67358 -0.00050
vn 0.83439 -0.55118 0.00006
vn 0.76421 -0.49059 -0.41869
vn 0.41544 -0.90962 -0.00090
vn -0.02794 -0.99961 -0.00072
vn -0.34000 -0.94042 -0.00027
vn 0.84780 -0.53032 0.00028
vn 0.78936 -0.48092 -0.38161
vn 0.55997 -0.35346 -0.74933
vn 0.53545 -0.34580 -0.77053
vn 0.35113 -0.25166 -0.90187
vn 0.34646 -0.24164 -0.90641
vn -0.33233 -0.04409 -0.94213
vn -0.36093 -0.02889 -0.93215
vn -0.62060 0.00721 -0.78409
vn -0.40666 -0.02638 -0.91320
vn -0.66943 0.01168 -0.74279
vn -0.93443 0.03764 -0.35415
vn -0.71015 0.00642 -0.70402
vn -0.95168 0.03456 -0.30515
vn -0.99958 0.02886 0.00010
vn -0.99966 0.02625 0.00001
vn 0.87745 -0.47967 -0.00001
vn 0.95168 -0.30710 -0.00017
vn 0.91066 -0.28595 -0.29820
vn 0.83077 -0.44428 -0.33533
vn 0.69511 -0.22900 -0.68146
vn 0.61106 -0.34413 -0.71287
vn 0.48776 -0.18142 -0.85392
vn 0.39984 -0.25710 -0.87979
vn 0.73876 0.01364 -0.67383
vn 0.53130 0.00970 -0.84713
vn -0.44484 -0.02797 -0.89517
vn -0.43679 0.00595 -0.89954
vn -0.70998 0.00821 -0.70418
vn -0.41052 0.03203 -0.91129
vn -0.68186 -0.01310 -0.73137
vn -0.94624 -0.05998 -0.31787
vn -0.95663 0.01210 -0.29105
vn -0.99805 -0.06247 -0.00003
vn -0.99990 0.01447 0.00011
vn 0.99986 0.01664 0.00004
vn 0.91812 0.39630 -0.00020
vn 0.87880 0.36709 -0.30487
vn 0.95876 0.01678 -0.28372
vn 0.65717 0.28410 -0.69815
vn 0.68170 0.64126 -0.35223
vn 0.48635 0.46609 -0.73907
vn 0.30351 0.32813 -0.89455
vn 0.45158 0.21868 -0.86502
vn 0.34922 0.52185 -0.77828
vn -0.07732 0.13689 -0.98756
vn -0.38340 -0.01269 -0.92350
vn -0.56871 -0.19754 -0.79846
vn -0.63555 -0.09781 -0.76584
vn -0.84775 -0.33109 -0.41437
vn -0.91104 -0.18747 -0.36723
vn -0.93388 -0.35759 -0.00010
vn -0.98014 -0.19833 -0.00004
vn 0.71510 0.69903 0.00035
vn 0.55025 0.83500 0.00033
vn 0.51600 0.75482 -0.40495
vn 0.50377 0.86384 -0.00029
vn 0.45908 0.76533 -0.45114
vn 0.29359 0.51461 -0.80560
vn 0.43811 0.75923 -0.48127
vn 0.27755 0.49807 -0.82152
vn -0.05594 0.07411 -0.99568
vn -0.07847 0.10569 -0.99130
vn -0.42958 -0.34495 -0.83455
vn -0.50268 -0.27304 -0.82022
vn -0.66318 -0.58551 -0.46623
vn -0.76521 -0.46384 -0.44644
vn -0.74653 -0.66536 0.00007
vn -0.85528 -0.51816 -0.00003
vn 0.49085 0.87124 -0.00003
vn 0.47806 0.87833 0.00002
vn 0.41730 0.75980 -0.49857
vn 0.00482 -0.99999 0.00001
vn -0.08454 -0.99642 -0.00007
vn -0.07649 -0.88649 -0.45638
vn 0.00224 -0.90083 -0.43417
vn 0.06331 -0.90951 -0.41084
vn 0.07438 -0.99723 0.00002
vn 0.02143 -0.59531 -0.80321
vn 0.06256 -0.60675 -0.79243
vn 0.11590 -0.61312 -0.78144
vn 0.14456 -0.91246 -0.38276
vn 0.16422 -0.98642 0.00004
vn 0.27302 -0.89517 -0.35231
vn 0.29692 -0.95490 0.00013
vn 0.44132 0.89735 -0.00001
vn 0.43454 0.90065 -0.00002
vn 0.37730 0.79103 -0.48157
vn 0.38023 0.78125 -0.49504
vn 0.39763 0.76800 -0.50207
vn 0.46236 0.88669 0.00000
vn 0.24886 0.50009 -0.82945
vn 0.25060 0.49418 -0.83246
vn 0.26365 0.49061 -0.83054
vn 0.00967 0.02082 -0.99974
vn -0.02170 0.04374 -0.99881
vn -0.23728 -0.48041 -0.84434
vn -0.33367 -0.41952 -0.84419
vn -0.39091 -0.78355 -0.48294
vn -0.53071 -0.69970 -0.47830
vn -0.45005 -0.89300 0.00011
vn -0.60335 -0.79748 0.00004
vn -0.31647 -0.94860 0.00006
vn -0.27316 -0.83228 -0.48239
vn -0.17158 -0.86380 -0.47373
vn -0.19619 -0.98057 -0.00003
vn -0.15582 -0.52164 -0.83881
vn -0.09038 -0.54958 -0.83053
vn -0.03237 -0.57412 -0.81813
vn 0.07445 -0.00847 -0.99719
vn 0.09359 -0.00776 -0.99558
vn 0.11243 -0.00255 -0.99366
vn 0.25772 0.52943 -0.80826
vn 0.24844 0.56379 -0.78767
vn 0.22481 0.60012 -0.76767
vn 0.16109 0.35709 -0.92007
vn 0.06714 -0.33883 -0.93845
vn 0.16020 0.64401 -0.74805
vn 0.12524 0.40099 -0.90748
vn 0.09664 -0.33622 -0.93681
vn 0.00487 0.68379 -0.72966
vn 0.02576 0.45138 -0.89196
vn 0.15071 -0.32705 -0.93291
vn 0.20890 -0.60594 -0.76759
vn 0.20607 -0.30058 -0.93123
vn -0.15013 0.45124 -0.87968
vn -0.23990 0.66135 -0.71068
vn -0.47822 0.52784 -0.70192
vn -0.32383 0.36283 -0.87378
vn -0.32537 0.89292 -0.31117
vn -0.64509 0.70372 -0.29770
vn -0.86792 0.38648 -0.31199
vn -0.67677 0.73619 -0.00004
vn -0.91701 0.39886 -0.00008
vn -0.99999 0.00433 0.00024
vn -0.93876 -0.34456 0.00109
vn 0.40726 0.91331 -0.00008
vn 0.34577 0.93832 0.00009
vn 0.30868 0.86877 -0.38725
vn 0.35690 0.83231 -0.42412
vn 0.37969 0.80361 -0.45832
vn 0.43593 0.89998 0.00004
vn 0.25520 0.50811 -0.82261
vn 0.04500 0.00131 -0.99899
vn 0.22766 0.97374 0.00036
vn 0.20641 0.91039 -0.35860
vn 0.00009 1.00000 0.00030
vn -0.00811 0.94156 -0.33676
vn -0.33153 0.94345 0.00009
vn -0.98291 -0.18409 -0.00056
vn -0.92078 -0.39008 -0.00018
vn -0.49021 0.06713 0.86901
vn -0.52010 -0.00205 0.85410
vn -0.01497 -0.19638 0.98041
vn 0.09216 -0.00293 0.99574
vn 0.00001 0.29816 0.95451
vn -0.46649 0.27386 0.84107
vn 0.56884 0.13343 0.81155
vn 0.44652 0.37295 0.81335
vn 0.31406 -0.15386 0.93685
vn 0.62660 0.16272 0.76216
vn 0.24989 -0.53483 0.80716
vn -0.04876 0.63873 0.76788
vn 0.28083 0.64105 0.71428
vn 0.39327 0.81880 0.41821
vn -0.06423 0.90928 0.41121
vn 0.75203 0.47727 0.45460
vn -0.52253 0.72047 0.45594
vn -0.37835 0.54846 0.74568
vn -0.80418 0.33272 0.49254
vn 0.46220 -0.43225 0.77430
vn 0.66700 -0.60590 0.43358
vn 0.36456 -0.83028 0.42159
vn 0.00343 -0.19733 0.98033
vn -0.04437 -0.92621 0.37438
vn -0.02132 -0.66490 0.74663
vn 0.23244 -0.10404 0.96703
vn 0.13899 0.24568 0.95934
vn 0.02898 0.23616 0.97128
vn -0.45325 0.56495 0.68949
vn 0.04650 0.58449 0.81007
vn -0.57427 0.77117 0.27478
vn -0.27196 0.91618 0.29437
vn 0.43711 0.81957 0.37047
vn 0.49735 0.77341 0.39303
vn 0.35701 0.53310 0.76704
vn -0.19372 0.46066 0.86618
vn -0.32360 0.81060 0.48806
vn -0.79670 0.31981 0.51283
vn -0.53353 0.19711 0.82249
vn -0.49995 -0.13124 0.85605
vn -0.06169 0.11152 0.99185
vn -0.82798 -0.27587 0.48820
vn -0.01083 0.07125 0.99740
vn -0.34480 -0.36155 0.86626
vn -0.37211 -0.32539 0.86928
vn 0.05949 0.01812 0.99806
vn 0.04595 -0.10511 0.99340
vn 0.60528 -0.01265 0.79591
vn 0.58823 0.01567 0.80854
vn -0.44249 -0.31998 0.83774
vn 0.59777 0.02989 0.80111
vn 0.41834 0.32088 0.84972
vn 0.74497 0.48030 0.46296
vn 0.29139 0.83689 0.46336
vn 0.20004 0.58496 0.78601
vn 0.00774 -0.06281 0.99800
vn 0.53840 0.09132 0.83773
vn 0.87711 0.14083 0.45917
vn 0.58977 0.02446 0.80720
vn 0.89964 0.04718 0.43408
vn 0.91664 0.04107 0.39761
vn 0.93398 0.03904 0.35519
vn 0.94599 0.01718 0.32374
vn 0.67303 0.00231 0.73961
vn 0.69808 -0.01220 0.71592
vn 0.63003 0.00976 0.77651
vn 0.03965 -0.15673 0.98685
vn 0.41616 -0.04187 0.90833
vn 0.03117 -0.12703 0.99141
vn -0.45531 -0.37780 0.80620
vn -0.49782 -0.39056 0.77436
vn -0.44399 -0.32181 0.83625
vn -0.70110 -0.53006 0.47697
vn -0.68262 -0.57192 0.45491
vn 0.94352 -0.02248 0.33054
vn 0.92756 -0.04176 0.37134
vn 0.67709 -0.01998 0.73563
vn 0.63186 0.00949 0.77503
vn 0.40105 -0.00836 0.91602
vn 0.44000 -0.04143 0.89704
vn -0.69135 -0.25580 0.67573
vn -0.72884 0.17002 0.66324
vn -0.51597 0.11232 0.84921
vn -0.49398 -0.19852 0.84650
vn -0.35796 -0.29582 0.88564
vn -0.55928 -0.40239 0.72477
vn -0.76438 -0.53478 0.36018
vn -0.88862 -0.34507 0.30212
vn -0.72120 -0.55269 0.41761
vn -0.94187 0.21091 0.26153
vn 0.55781 0.71603 0.41970
vn 0.56837 0.70362 0.42647
vn 0.54142 0.72161 0.43144
vn 0.32865 0.48605 0.80978
vn 0.37234 0.47928 0.79477
vn 0.32069 0.84467 0.42859
vn 0.17448 0.55372 0.81422
vn 0.03607 0.93051 0.36450
vn 0.90114 -0.01512 0.43326
vn 0.90159 -0.00742 0.43253
vn 0.91052 -0.03185 0.41223
vn 0.62342 -0.04026 0.78085
vn 0.90949 -0.01567 0.41542
vn 0.03124 -0.15404 0.98757
vn 0.35808 -0.10243 0.92806
vn 0.62414 -0.09996 0.77489
vn 0.91641 -0.10269 0.38685
vn 0.59938 -0.22290 0.76880
vn 0.89002 -0.28900 0.35261
vn 0.79808 -0.50409 0.33008
vn 0.64060 -0.69542 0.32561
vn 0.44896 -0.82945 0.33233
vn 0.44085 -0.47715 0.76025
vn 0.32685 -0.56170 0.76004
vn 0.53618 -0.36175 0.76266
vn 0.28001 -0.21945 0.93458
vn 0.24480 -0.26329 0.93314
vn 0.32181 -0.16056 0.93309
vn -0.66847 -0.00229 0.74373
vn -0.63309 0.28193 0.72091
vn -0.42637 0.18020 0.88642
vn -0.43325 -0.02716 0.90086
vn -0.37579 -0.17012 0.91096
vn -0.60744 -0.22096 0.76302
vn -0.87586 -0.30206 0.37633
vn -0.94053 0.01420 0.33941
vn -0.51754 -0.32339 0.79219
vn -0.76390 -0.47937 0.43205
vn -0.67878 -0.54295 0.49444
vn -0.62773 -0.57091 0.52916
vn -0.61731 -0.58597 0.52495
vn -0.62490 -0.59538 0.50499
vn -0.37379 -0.37611 0.84783
vn -0.40281 -0.38442 0.83064
vn -0.63103 -0.60395 0.48688
vn -0.19327 -0.20816 0.95881
vn -0.23147 -0.21233 0.94939
vn 0.38225 0.48914 0.78398
vn 0.23587 0.29933 0.92454
vn 0.24363 0.32685 0.91313
vn -0.02421 0.03579 0.99907
vn -0.41834 -0.39657 0.81714
vn -0.05720 0.03622 0.99771
vn -0.42717 -0.40975 0.80600
vn -0.10637 0.05334 0.99289
vn -0.42072 -0.43553 0.79581
vn -0.14491 0.08290 0.98597
vn -0.39403 -0.48283 0.78206
vn 0.01264 0.64688 0.76248
vn 0.07087 0.70359 0.70706
vn 0.03806 0.46494 0.88452
vn 0.08643 0.94772 0.30716
vn 0.42407 0.85052 0.31109
vn 0.31987 0.64195 0.69684
vn -0.63572 -0.61346 0.46853
vn -0.63223 -0.63308 0.44666
vn -0.61326 -0.66959 0.41901
vn -0.56301 -0.73397 0.37988
vn -0.47827 -0.80985 0.33971
vn -0.34055 -0.55075 0.76204
vn -0.23508 -0.62833 0.74158
vn -0.32726 -0.88352 0.33511
vn -0.21640 -0.29889 0.92943
vn -0.14308 -0.39713 0.90654
vn 0.55223 0.41092 0.72539
vn 0.23126 0.44007 0.86767
vn 0.74483 0.56021 0.36247
vn 0.87635 0.24801 0.41291
vn 0.87145 0.19210 0.45131
vn -0.85195 0.08988 0.51585
vn -0.86078 0.03334 0.50788
vn -0.87635 0.02631 0.48096
vn -0.55663 -0.01870 0.83055
vn -0.89390 0.02757 0.44741
vn -0.58720 -0.00850 0.80940
vn -0.91251 0.03702 0.40737
vn 0.76403 -0.49103 0.41851
vn 0.78955 -0.48056 0.38168
vn 0.53493 -0.34793 0.76993
vn 0.56006 -0.35324 0.74937
vn 0.34594 -0.24468 0.90579
vn 0.35110 -0.25080 0.90213
vn -0.62065 0.00684 0.78406
vn -0.36117 -0.03097 0.93198
vn -0.33258 -0.04574 0.94197
vn -0.66924 0.00937 0.74299
vn -0.40673 -0.03012 0.91305
vn -0.93431 0.03729 0.35450
vn -0.95164 0.03330 0.30540
vn -0.70992 0.00420 0.70427
vn 0.83070 -0.44441 0.33531
vn 0.91049 -0.28670 0.29801
vn 0.61133 -0.34458 0.71242
vn 0.69498 -0.23040 0.68112
vn 0.40043 -0.25825 0.87918
vn 0.48774 -0.18362 0.85346
vn 0.53165 0.01056 0.84690
vn 0.73852 0.01392 0.67408
vn -0.71004 0.00834 0.70411
vn -0.43759 0.00526 0.89916
vn -0.44442 -0.02938 0.89534
vn -0.68205 -0.01307 0.73119
vn -0.41133 0.03213 0.91092
vn -0.95649 0.01249 0.29148
vn -0.94616 -0.06035 0.31802
vn 0.95858 0.01674 0.28434
vn 0.87836 0.36876 0.30413
vn 0.65704 0.28297 0.69873
vn 0.48543 0.46912 0.73776
vn 0.68108 0.64324 0.34982
vn 0.45099 0.21449 0.86637
vn 0.30153 0.32783 0.89532
vn -0.07811 0.14056 0.98699
vn 0.34859 0.52560 0.77604
vn -0.63581 -0.09650 0.76579
vn -0.56901 -0.19679 0.79843
vn -0.38328 -0.01097 0.92357
vn -0.91118 -0.18726 0.36700
vn -0.84803 -0.33066 0.41413
vn 0.51659 0.75484 0.40416
vn 0.45877 0.76548 0.45119
vn 0.29335 0.51485 0.80553
vn 0.27757 0.49807 0.82151
vn 0.43794 0.75939 0.48118
vn -0.07876 0.10620 0.99122
vn -0.05590 0.07375 0.99571
vn -0.50262 -0.27358 0.82008
vn -0.42960 -0.34514 0.83446
vn -0.76515 -0.46414 0.44623
vn -0.66322 -0.58539 0.46632
vn 0.41754 0.75959 0.49868
vn 0.00177 -0.90092 0.43399
vn -0.07671 -0.88650 0.45632
vn 0.06329 -0.90951 0.41084
vn 0.06278 -0.60670 0.79245
vn 0.02127 -0.59541 0.80314
vn 0.14516 -0.91224 0.38308
vn 0.11651 -0.61283 0.78158
vn 0.27349 -0.89492 0.35258
vn 0.38037 0.78124 0.49496
vn 0.37724 0.79103 0.48162
vn 0.39766 0.76801 0.50203
vn 0.25067 0.49419 0.83243
vn 0.24899 0.50014 0.82938
vn 0.26377 0.49047 0.83058
vn -0.02184 0.04346 0.99882
vn 0.00968 0.02076 0.99974
vn -0.33377 -0.41995 0.84395
vn -0.23728 -0.48044 0.84432
vn -0.53069 -0.69976 0.47823
vn -0.39087 -0.78350 0.48306
vn -0.27315 -0.83226 0.48242
vn -0.17148 -0.86377 0.47380
vn -0.09034 -0.54957 0.83055
vn -0.15586 -0.52163 0.83882
vn -0.03229 -0.57408 0.81816
vn 0.09448 -0.00760 0.99550
vn 0.07460 -0.00851 0.99718
vn 0.11292 -0.00243 0.99360
vn 0.24973 0.56378 0.78727
vn 0.25874 0.52944 0.80793
vn 0.15917 0.35672 0.92055
vn 0.22473 0.60022 0.76761
vn 0.06761 -0.33869 0.93846
vn 0.12217 0.39909 0.90874
vn 0.15938 0.64370 0.74850
vn 0.09666 -0.33632 0.93678
vn 0.02422 0.45144 0.89197
vn 0.00494 0.68471 0.72880
vn 0.20907 -0.60604 0.76747
vn 0.15041 -0.32781 0.93270
vn 0.20597 -0.30106 0.93110
vn -0.23912 0.66291 0.70948
vn -0.14960 0.45230 0.87923
vn -0.32287 0.36181 0.87455
vn -0.47847 0.52797 0.70165
vn -0.64536 0.70399 0.29649
vn -0.32495 0.89347 0.31003
vn -0.86795 0.38660 0.31178
vn 0.35798 0.83214 0.42354
vn 0.30949 0.86871 0.38674
vn 0.37990 0.80355 0.45823
vn 0.25522 0.50818 0.82257
vn 0.04502 0.00138 0.99899
vn 0.20659 0.91050 0.35821
vn -0.00779 0.94187 0.33588
f 1//1 9//2 10//3 11//4
f 1//1 11//4 12//5 13//6
f 1//1 13//6 14//7 15//8
f 1//1 15//8 16//9 17//10
f 1//1 17//10 4//11 9//2
f 2//12 14//7 13//6 18//13
f 2//12 18//13 19//14 20//15
f 2//12 20//15 21//16 14//7
f 3//17 22//18 19//14 18//13
f 3//17 18//13 13//6 12//5
f 3//17 12//5 23//19 22//18
f 4//11 24//20 25//21 26//22
f 4//11 26//22 27//23 9//2
f 4//11 28//24 29//25 24//20
f 4//11 17//10 30//26 28//24
f 5//27 31//28 32//29 33//30
f 5//27 34//31 35//32 31//28
f 5//27 36//33 37//34 34//35
f 6//36 38//37 39//38 40//39
f 6//36 40//39 41//40 42//41
f 6//36 42//41 43//42 38//43
f 7//44 44//45 45//46 46//47
f 7//44 47//48 48//49 49//50
f 7//44 49//50 50//51 44//45
f 7//44 33//30 51//52 47//48
f 7//44 46//47 5//27 33//30
f 8//53 52//54 53//55 54//56
f 8//53 40//39 39//38 52//54
f 8//53 54//56 41//40 40//39
f 54//56 55//57 56//58 41//40
f 54//56 53//55 57//59 55//57
f 57//59 58//60 59//61 55//57
f 57//59 53//55 316//62 60//63
f 57//59 60//63 317//64 58//60
f 317//64 61//65 62//66 58//60
f 63//67 64//68 65//69 66//70
f 63//67 66//70 62//66 61//65
f 66//70 65//69 67//71 68//72
f 66//70 68//72 69//73 62//66
f 69//73 68//72 70//74 71//75
f 69//73 71//75 72//76 59//61
f 69//73 59//61 58//60 62//66
f 72//76 71//75 73//77 74//78
f 72//76 74//78 75//79 56//58
f 72//76 56//58 55//57 59//61
f 75//79 74//78 76//80 77//81
f 75//79 77//81 43//42 42//41
f 75//79 42//41 41//40 56//58
f 77//81 76//80 318//82 78//83
f 77//81 78//83 79//84 43//42
f 79//84 80//85 38//43 43//42
f 80//86 319//86 39//38 38//37
f 319//87 320//88 52//54 39//38
f 320//88 316//62 53//55 52//54
f 322//89 321//90 81//91 82//92
f 322//89 82//92 65//69 64//68
f 82//92 81//91 83//93 84//94
f 82//92 84//94 67//71 65//69
f 84//94 83//93 32//29 85//95
f 84//94 85//95 86//96 67//71
f 86//97 85//98 87//99 88//100
f 86//97 88//100 89//101 70//102
f 86//96 70//74 68//72 67//71
f 89//101 88//100 90//103 91//104
f 89//101 91//104 92//105 73//77
f 89//101 73//77 71//75 70//102
f 92//105 91//104 323//106 93//107
f 92//105 93//107 318//82 76//80
f 92//105 76//80 74//78 73//77
f 94//108 324//108 95//109 35//32
f 94//110 35//32 34//31 96//110
f 96//111 34//35 37//34 97//112
f 97//112 37//34 98//113 325//114
f 326//115 325//114 98//113 100//116
f 326//115 100//116 101//117 99//118
f 101//117 100//116 102//119 103//120
f 101//117 103//120 104//121 105//122
f 101//117 105//122 106//123 99//118
f 106//123 105//122 107//124 327//125
f 110//126 109//127 111//128 112//129
f 110//126 112//129 113//130 329//131
f 113//130 112//129 47//48 51//52
f 113//130 51//52 83//93 81//91
f 113//130 81//91 321//90 329//131
f 112//129 111//128 48//49 47//48
f 111//128 114//132 115//133 48//49
f 111//128 109//127 330//134 114//132
f 115//133 116//135 117//136 118//137
f 115//133 118//137 49//50 48//49
f 115//133 114//132 119//138 116//135
f 119//138 120//139 121//140 116//135
f 119//138 114//132 330//134 331//141
f 119//138 331//141 122//142 120//139
f 122//142 123//143 124//144 120//139
f 125//145 332//146 126//147 127//148
f 125//145 127//148 124//144 123//143
f 127//148 126//147 128//149 129//150
f 127//148 129//150 130//151 124//144
f 130//151 129//150 131//152 132//153
f 130//151 132//153 133//154 121//140
f 130//151 121//140 120//139 124//144
f 133//155 132//156 134//157 135//158
f 133//155 135//158 136//159 117//160
f 133//154 117//136 116//135 121//140
f 136//159 135//158 137//161 138//162
f 136//159 138//162 139//163 140//164
f 136//159 140//164 118//137 117//160
f 140//164 139//163 141//165 50//51
f 140//164 50//51 49//50 118//137
f 141//165 139//163 108//166 328//167
f 141//165 328//167 333//168 142//169
f 141//165 142//169 44//45 50//51
f 142//169 333//168 334//170 143//171
f 142//169 143//171 45//46 44//45
f 143//171 334//170 335//172 144//173
f 143//171 144//173 145//174 45//46
f 145//174 144//173 146//175 147//176
f 145//174 147//176 148//177 149//178
f 145//174 149//178 46//47 45//46
f 149//179 148//180 150//181 36//33
f 149//179 36//33 5//27 46//47
f 150//181 148//180 151//182 102//119
f 150//181 102//119 100//116 98//113
f 150//181 98//113 37//34 36//33
f 151//182 148//177 147//176 152//183
f 151//182 152//183 153//184 154//185
f 151//182 154//185 103//120 102//119
f 154//185 153//184 155//186 156//187
f 154//185 156//187 104//121 103//120
f 156//187 155//186 157//188 158//189
f 156//187 158//189 159//190 104//121
f 159//190 158//189 160//191 161//192
f 159//190 161//192 162//193 107//124
f 159//190 107//124 105//122 104//121
f 162//193 161//192 163//194 164//195
f 162//193 164//195 336//196 337//197
f 162//193 337//197 327//125 107//124
f 339//198 166//199 167//200 146//175
f 339//198 146//175 144//173 335//172
f 167//200 166//199 165//201 168//202
f 167//200 168//202 153//184 152//183
f 167//200 152//183 147//176 146//175
f 168//202 165//201 338//203 169//204
f 168//202 169//204 155//186 153//184
f 169//204 338//203 340//205 170//206
f 169//204 170//206 157//188 155//186
f 170//206 340//205 341//207 171//208
f 170//206 171//208 172//209 157//188
f 172//209 171//208 173//210 174//211
f 172//209 174//211 175//212 160//213
f 172//209 160//213 158//189 157//188
f 175//212 174//211 28//24 30//26
f 175//214 30//215 176//216 163//194
f 175//214 163//194 161//192 160//191
f 176//216 30//215 17//10 16//9
f 176//216 16//9 177//217 178//218
f 176//216 178//218 164//195 163//194
f 178//218 177//217 342//219 343//220
f 178//218 343//220 336//196 164//195
f 344//221 342//219 177//217 179//222
f 344//221 179//222 21//16 345//223
f 179//222 177//217 16//9 15//8
f 179//222 15//8 14//7 21//16
f 345//223 21//16 20//15 180//224
f 180//224 20//15 19//14 181//225
f 181//225 19//14 22//18 182//226
f 182//226 22//18 23//19 183//227
f 183//227 23//19 184//228 346//229
f 347//230 346//229 184//228 186//231
f 347//230 186//231 187//232 185//233
f 187//232 186//231 10//3 188//234
f 187//232 188//234 189//235 190//236
f 187//232 190//236 191//237 185//233
f 191//237 190//236 192//238 348//239
f 194//240 349//241 195//242 25//21
f 194//240 25//21 24//20 196//243
f 196//243 24//20 29//25 197//244
f 197//244 29//25 173//210 198//245
f 198//245 173//210 171//208 341//207
f 195//242 349//241 193//246 199//247
f 195//242 199//247 200//248 201//249
f 195//242 201//249 26//22 25//21
f 201//249 200//248 202//250 203//251
f 201//249 203//251 27//23 26//22
f 203//252 202//253 204//254 189//235
f 203//252 189//235 188//234 27//23
f 204//254 202//253 205//255 206//256
f 204//254 206//256 207//257 192//238
f 204//254 192//238 190//236 189//235
f 207//257 206//256 208//258 209//259
f 207//257 209//259 210//260 211//261
f 207//257 211//261 348//239 192//238
f 351//262 350//263 212//264 213//265
f 351//262 213//265 199//247 193//246
f 213//265 212//264 214//266 215//267
f 213//265 215//267 200//248 199//247
f 215//267 214//266 216//268 205//269
f 215//267 205//269 202//250 200//248
f 216//268 214//266 217//270 218//271
f 216//272 218//273 219//274 208//258
f 216//272 208//258 206//256 205//255
f 219//274 218//273 220//275 221//276
f 219//274 221//276 222//277 223//278
f 219//274 223//278 209//259 208//258
f 223//278 222//277 352//279 353//280
f 223//278 353//280 210//260 209//259
f 225//281 224//282 226//283 227//284
f 225//281 227//284 212//264 350//263
f 227//284 226//283 228//285 217//270
f 227//284 217//270 214//266 212//264
f 228//285 226//283 229//286 230//287
f 228//285 230//287 231//288 220//289
f 228//285 220//289 218//271 217//270
f 231//288 230//287 232//290 233//291
f 231//292 233//291 234//293 235//294
f 231//292 235//294 221//276 220//275
f 235//294 234//293 236//295 237//296
f 235//294 237//296 222//277 221//276
f 237//296 236//295 238//297 354//298
f 237//296 354//298 352//279 222//277
f 356//299 355//300 239//301 229//286
f 356//299 229//286 226//283 224//282
f 239//301 355//300 357//302 240//303
f 239//301 240//303 241//304 232//290
f 239//301 232//290 230//287 229//286
f 241//304 240//303 242//305 243//306
f 241//304 243//306 244//307 245//308
f 241//304 245//308 233//291 232//290
f 245//308 244//307 246//309 247//310
f 245//308 247//310 234//293 233//291
f 247//310 246//309 248//311 249//312
f 247//310 249//312 236//295 234//293
f 249//312 248//311 250//313 251//314
f 249//312 251//314 238//297 236//295
f 252//315 358//316 253//317 242//305
f 252//315 242//305 240//303 357//302
f 256//318 255//319 258//320 259//321
f 256//318 259//321 260//322 257//323
f 260//322 259//321 261//324 262//325
f 260//322 262//325 263//326 264//327
f 260//322 264//327 265//328 257//323
f 265//328 264//327 266//329 360//330
f 269//331 268//332 270//333 271//334
f 269//331 271//334 272//335 254//336
f 272//335 253//317 358//316 254//336
f 272//335 271//334 273//337 274//338
f 272//335 274//338 275//339 253//317
f 275//339 243//306 242//305 253//317
f 275//339 274//338 276//340 277//341
f 275//339 277//341 244//307 243//306
f 277//341 276//340 278//342 279//343
f 277//341 279//343 246//309 244//307
f 279//343 278//342 280//344 281//345
f 279//343 281//345 248//311 246//309
f 281//345 280//344 361//346 282//347
f 281//345 282//347 250//313 248//311
f 362//348 361//346 280//344 283//349
f 362//348 283//349 284//350 359//351
f 284//350 283//349 285//352 286//353
f 284//350 286//353 287//354 258//320
f 284//350 258//320 255//319 359//351
f 287//354 286//353 288//355 289//356
f 287//354 289//356 290//357 261//324
f 287//354 261//324 259//321 258//320
f 290//357 289//356 291//358 292//359
f 290//357 292//359 293//360 294//361
f 290//357 294//362 262//325 261//324
f 294//361 293//360 295//363 296//364
f 294//362 296//365 263//326 262//325
f 296//364 295//363 297//366 298//367
f 296//365 298//368 299//369 263//326
f 299//369 298//368 300//370 128//149
f 299//369 128//149 126//147 266//329
f 299//369 266//329 264//327 263//326
f 300//371 298//367 297//366 301//372
f 300//371 301//372 302//373 131//374
f 300//370 131//152 129//150 128//149
f 302//373 301//372 303//375 304//376
f 302//373 304//376 305//377 134//157
f 302//373 134//157 132//156 131//374
f 305//377 304//376 363//378 364//379
f 305//377 364//379 306//380 137//161
f 305//377 137//161 135//158 134//157
f 306//380 307//381 138//162 137//161
f 307//381 108//166 139//163 138//162
f 308//382 365//383 309//384 310//385
f 308//382 310//385 311//386 267//387
f 311//386 270//333 268//332 267//387
f 311//386 310//385 292//359 291//358
f 311//386 291//358 312//388 270//333
f 312//388 273//337 271//334 270//333
f 312//388 291//358 289//356 288//355
f 312//388 288//355 313//389 273//337
f 313//389 276//340 274//338 273//337
f 313//389 288//355 286//353 285//352
f 313//389 285//352 278//342 276//340
f 310//385 309//384 293//360 292//359
f 309//384 365//383 366//390 314//391
f 309//384 314//391 295//363 293//360
f 314//391 366//390 367//392 315//393
f 314//391 315//393 297//366 295//363
f 315//393 367//392 368//394 303//375
f 315//393 303//375 301//372 297//366
f 368//394 363//378 304//376 303//375
f 285//352 283//349 280//344 278//342
f 360//330 266//329 126//147 332//146
f 188//234 10//3 9//2 27//23
f 186//231 184//228 11//4 10//3
f 184//228 23//19 12//5 11//4
f 174//211 173//210 29//25 28//24
f 95//109 324//395 369//396 90//103
f 95//109 90//103 88//100 87//99
f 95//109 87//99 31//28 35//32
f 369//396 323//106 91//104 90//103
f 87//99 85//98 32//29 31//28
f 83//93 51//52 33//30 32//29
f 380//397 379//398 378//399 370//400
f 382//401 381//402 380//397 370//400
f 384//403 383//404 382//401 370//400
f 386//405 385//406 384//403 370//400
f 378//399 373//407 386//405 370//400
f 387//408 382//401 383//404 371//409
f 389//410 388//411 387//408 371//409
f 383//404 390//412 389//410 371//409
f 387//408 388//411 391//413 372//414
f 381//402 382//401 387//408 372//414
f 391//413 392//415 381//402 372//414
f 395//416 394//417 393//418 373//407
f 378//399 396//419 395//416 373//407
f 393//418 398//420 397//421 373//407
f 397//421 399//422 386//405 373//407
f 402//423 401//424 400//425 374//426
f 400//425 404//427 403//428 374//426
f 403//429 406//430 405//431 374//426
f 409//432 408//433 407//434 375//435
f 411//436 410//437 409//432 375//435
f 407//434 412//438 411//436 375//435
f 415//439 414//440 413//441 376//442
f 418//443 417//444 416//445 376//442
f 413//441 419//446 418//443 376//442
f 416//445 420//447 402//423 376//442
f 402//423 374//426 415//439 376//442
f 423//448 422//449 421//450 377//451
f 421//450 408//433 409//432 377//451
f 409//432 410//437 423//448 377//451
f 410//437 425//452 424//453 423//448
f 424//453 426//454 422//449 423//448
f 424//453 428//455 427//456 426//454
f 60//63 316//62 422//449 426//454
f 427//456 317//64 60//63 426//454
f 427//456 429//457 61//65 317//64
f 431//458 430//459 64//68 63//67
f 61//65 429//457 431//458 63//67
f 433//460 432//461 430//459 431//458
f 429//457 434//462 433//460 431//458
f 436//463 435//464 433//460 434//462
f 428//455 437//465 436//463 434//462
f 429//457 427//456 428//455 434//462
f 439//466 438//467 436//463 437//465
f 425//452 440//468 439//466 437//465
f 428//455 424//453 425//452 437//465
f 442//469 441//470 439//466 440//468
f 411//436 412//438 442//469 440//468
f 425//452 410//437 411//436 440//468
f 78//83 318//82 441//470 442//469
f 412//438 79//84 78//83 442//469
f 412//438 407//434 80//85 79//84
f 407//434 408//433 319//86 80//86
f 408//433 421//450 320//88 319//87
f 421//450 422//449 316//62 320//88
f 444//471 443//472 321//90 322//89
f 64//68 430//459 444//471 322//89
f 446//473 445//474 443//472 444//471
f 430//459 432//461 446//473 444//471
f 447//475 401//424 445//474 446//473
f 432//461 448//476 447//475 446//473
f 450//477 449//478 447//479 448//480
f 435//481 451//482 450//477 448//480
f 432//461 433//460 435//464 448//476
f 453//483 452//484 450//477 451//482
f 438//467 454//485 453//483 451//482
f 435//481 436//463 438//467 451//482
f 93//107 323//106 453//483 454//485
f 441//470 318//82 93//107 454//485
f 438//467 439//466 441//470 454//485
f 404//427 455//486 324//108 94//108
f 96//110 403//428 404//427 94//110
f 97//112 406//430 403//429 96//111
f 325//114 456//487 406//430 97//112
f 457//488 456//487 325//114 326//115
f 99//118 458//489 457//488 326//115
f 460//490 459//491 457//488 458//489
f 462//492 461//493 460//490 458//489
f 99//118 106//123 462//492 458//489
f 327//125 463//494 462//492 106//123
f 465//495 464//496 109//127 110//126
f 329//131 466//497 465//495 110//126
f 420//447 416//445 465//495 466//497
f 443//472 445//474 420//447 466//497
f 329//131 321//90 443//472 466//497
f 416//445 417//444 464//496 465//495
f 417//444 468//498 467//499 464//496
f 467//499 330//134 109//127 464//496
f 471//500 470//501 469//502 468//498
f 417//444 418//443 471//500 468//498
f 469//502 472//503 467//499 468//498
f 469//502 474//504 473//505 472//503
f 331//141 330//134 467//499 472//503
f 473//505 122//142 331//141 472//503
f 473//505 475//506 123//143 122//142
f 477//507 476//508 332//146 125//145
f 123//143 475//506 477//507 125//145
f 479//509 478//510 476//508 477//507
f 475//506 480//511 479//509 477//507
f 482//512 481//513 479//509 480//511
f 474//504 483//514 482//512 480//511
f 475//506 473//505 474//504 480//511
f 485//515 484//516 482//517 483//518
f 470//519 486//520 485//515 483//518
f 474//504 469//502 470//501 483//514
f 488//521 487//522 485//515 486//520
f 490//523 489//524 488//521 486//520
f 470//519 471//500 490//523 486//520
f 419//446 491//525 489//524 490//523
f 471//500 418//443 419//446 490//523
f 328//167 108//166 489//524 491//525
f 492//526 333//168 328//167 491//525
f 419//446 413//441 492//526 491//525
f 493//527 334//170 333//168 492//526
f 413//441 414//440 493//527 492//526
f 494//528 335//172 334//170 493//527
f 414//440 495//529 494//528 493//527
f 497//530 496//531 494//528 495//529
f 499//532 498//533 497//530 495//529
f 414//440 415//439 499//532 495//529
f 405//431 500//534 498//535 499//536
f 415//439 374//426 405//431 499//536
f 459//491 501//537 498//535 500//534
f 456//487 457//488 459//491 500//534
f 405//431 406//430 456//487 500//534
f 502//538 497//530 498//533 501//537
f 504//539 503//540 502//538 501//537
f 459//491 460//490 504//539 501//537
f 506//541 505//542 503//540 504//539
f 460//490 461//493 506//541 504//539
f 508//543 507//544 505//542 506//541
f 461//493 509//545 508//543 506//541
f 511//546 510//547 508//543 509//545
f 463//494 512//548 511//546 509//545
f 461//493 462//492 463//494 509//545
f 514//549 513//550 511//546 512//548
f 337//197 336//196 514//549 512//548
f 463//494 327//125 337//197 512//548
f 496//531 515//551 166//199 339//198
f 335//172 494//528 496//531 339//198
f 516//552 165//201 166//199 515//551
f 502//538 503//540 516//552 515//551
f 496//531 497//530 502//538 515//551
f 517//553 338//203 165//201 516//552
f 503//540 505//542 517//553 516//552
f 518//554 340//205 338//203 517//553
f 505//542 507//544 518//554 517//553
f 519//555 341//207 340//205 518//554
f 507//544 520//556 519//555 518//554
f 522//557 521//558 519//555 520//556
f 510//559 523//560 522//557 520//556
f 507//544 508//543 510//559 520//556
f 399//422 397//421 522//557 523//560
f 513//550 524//561 399//422 523//562
f 510//547 511//546 513//550 523//562
f 385//406 386//405 399//422 524//561
f 526//563 525//564 385//406 524//561
f 513//550 514//549 526//563 524//561
f 343//220 342//219 525//564 526//563
f 514//549 336//196 343//220 526//563
f 527//565 525//564 342//219 344//221
f 345//223 390//412 527//565 344//221
f 384//403 385//406 525//564 527//565
f 390//412 383//404 384//403 527//565
f 180//224 389//410 390//412 345//223
f 181//225 388//411 389//410 180//224
f 182//226 391//413 388//411 181//225
f 183//227 392//415 391//413 182//226
f 346//229 528//566 392//415 183//227
f 529//567 528//566 346//229 347//230
f 185//233 530//568 529//567 347//230
f 531//569 379//398 529//567 530//568
f 533//570 532//571 531//569 530//568
f 185//233 191//237 533//570 530//568
f 348//239 534//572 533//570 191//237
f 394//417 535//573 349//241 194//240
f 196//243 393//418 394//417 194//240
f 197//244 398//420 393//418 196//243
f 198//245 521//558 398//420 197//244
f 341//207 519//555 521//558 198//245
f 536//574 193//246 349//241 535//573
f 538//575 537//576 536//574 535//573
f 394//417 395//416 538//575 535//573
f 540//577 539//578 537//576 538//575
f 395//416 396//419 540//577 538//575
f 532//571 541//579 539//580 540//581
f 396//419 531//569 532//571 540//581
f 543//582 542//583 539//580 541//579
f 534//572 544//584 543//582 541//579
f 532//571 533//570 534//572 541//579
f 546//585 545//586 543//582 544//584
f 211//261 210//260 546//585 544//584
f 534//572 348//239 211//261 544//584
f 548//587 547//588 350//263 351//262
f 193//246 536//574 548//587 351//262
f 550//589 549//590 547//588 548//587
f 536//574 537//576 550//589 548//587
f 542//591 551//592 549//590 550//589
f 537//576 539//578 542//591 550//589
f 553//593 552//594 549//590 551//592
f 545//586 554//595 553//596 551//597
f 542//583 543//582 545//586 551//597
f 556//598 555//599 553//596 554//595
f 558//600 557//601 556//598 554//595
f 545//586 546//585 558//600 554//595
f 353//280 352//279 557//601 558//600
f 546//585 210//260 353//280 558//600
f 560//602 559//603 224//282 225//281
f 350//263 547//588 560//602 225//281
f 552//594 561//604 559//603 560//602
f 547//588 549//590 552//594 560//602
f 563//605 562//606 559//603 561//604
f 555//607 564//608 563//605 561//604
f 552//594 553//593 555//607 561//604
f 566//609 565//610 563//605 564//608
f 568//611 567//612 566//609 564//613
f 555//599 556//598 568//611 564//613
f 570//614 569//615 567//612 568//611
f 556//598 557//601 570//614 568//611
f 354//298 238//297 569//615 570//614
f 557//601 352//279 354//298 570//614
f 562//606 571//616 355//300 356//299
f 224//282 559//603 562//606 356//299
f 572//617 357//302 355//300 571//616
f 565//610 573//618 572//617 571//616
f 562//606 563//605 565//610 571//616
f 575//619 574//620 572//617 573//618
f 577//621 576//622 575//619 573//618
f 565//610 566//609 577//621 573//618
f 579//623 578//624 576//622 577//621
f 566//609 567//612 579//623 577//621
f 581//625 580//626 578//624 579//623
f 567//612 569//615 581//625 579//623
f 251//314 250//313 580//626 581//625
f 569//615 238//297 251//314 581//625
f 574//620 582//627 358//316 252//315
f 357//302 572//617 574//620 252//315
f 584//628 583//629 255//319 256//318
f 257//323 585//630 584//628 256//318
f 587//631 586//632 584//628 585//630
f 589//633 588//634 587//631 585//630
f 257//323 265//328 589//633 585//630
f 360//330 590//635 589//633 265//328
f 592//636 591//637 268//332 269//331
f 254//336 593//638 592//636 269//331
f 254//336 358//316 582//627 593//638
f 595//639 594//640 592//636 593//638
f 582//627 596//641 595//639 593//638
f 582//627 574//620 575//619 596//641
f 598//642 597//643 595//639 596//641
f 575//619 576//622 598//642 596//641
f 600//644 599//645 597//643 598//642
f 576//622 578//624 600//644 598//642
f 602//646 601//647 599//645 600//644
f 578//624 580//626 602//646 600//644
f 282//347 361//346 601//647 602//646
f 580//626 250//313 282//347 602//646
f 603//648 601//647 361//346 362//348
f 359//351 604//649 603//648 362//348
f 606//650 605//651 603//648 604//649
f 583//629 607//652 606//650 604//649
f 359//351 255//319 583//629 604//649
f 609//653 608//654 606//650 607//652
f 586//632 610//655 609//653 607//652
f 583//629 584//628 586//632 607//652
f 612//656 611//657 609//653 610//655
f 614//658 613//659 612//656 610//655
f 586//632 587//631 614//660 610//655
f 616//661 615//662 613//659 614//658
f 587//631 588//634 616//663 614//660
f 618//664 617//665 615//662 616//661
f 588//634 619//666 618//667 616//663
f 478//510 620//668 618//667 619//666
f 590//635 476//508 478//510 619//666
f 588//634 589//633 590//635 619//666
f 621//669 617//665 618//664 620//670
f 481//671 622//672 621//669 620//670
f 478//510 479//509 481//513 620//668
f 624//673 623//674 621//669 622//672
f 484//516 625//675 624//673 622//672
f 481//671 482//517 484//516 622//672
f 364//379 363//378 624//673 625//675
f 487//522 306//380 364//379 625//675
f 484//516 485//515 487//522 625//675
f 487//522 488//521 307//381 306//380
f 488//521 489//524 108//166 307//381
f 627//676 626//677 365//383 308//382
f 267//387 628//678 627//676 308//382
f 267//387 268//332 591//637 628//678
f 611//657 612//656 627//676 628//678
f 591//637 629//679 611//657 628//678
f 591//637 592//636 594//640 629//679
f 608//654 609//653 611//657 629//679
f 594//640 630//680 608//654 629//679
f 594//640 595//639 597//643 630//680
f 605//651 606//650 608//654 630//680
f 597//643 599//645 605//651 630//680
f 612//656 613//659 626//677 627//676
f 631//681 366//390 365//383 626//677
f 613//659 615//662 631//681 626//677
f 632//682 367//392 366//390 631//681
f 615//662 617//665 632//682 631//681
f 623//674 368//394 367//392 632//682
f 617//665 621//669 623//674 632//682
f 623//674 624//673 363//378 368//394
f 599//645 601//647 603//648 605//651
f 332//146 476//508 590//635 360//330
f 396//419 378//399 379//398 531//569
f 379//398 380//397 528//566 529//567
f 380//397 381//402 392//415 528//566
f 397//421 398//420 521//558 522//557
f 452//484 369//396 324//395 455//486
f 449//478 450//477 452//484 455//486
f 404//427 400//425 449//478 455//486
f 452//484 453//483 323//106 369//396
f 400//425 401//424 447//479 449//478
f 401//424 402//423 420//447 445//474
