# pilowlava3D glyph '_' variant 1 — Vincent Wagner / Velvetyne, Free Art License
v 0.16168 0.24197 -0.12635
v 0.19333 0.03495 -0.10847
v 3.89182 0.20921 -0.29064
v 3.87312 0.51666 -0.29103
v 0.13968 0.25131 0.00000
v 0.04398 0.21599 0.00000
v 0.29944 0.27277 0.00000
v 0.28630 0.25388 -0.16067
v 0.27353 0.21285 -0.27076
v 0.09036 0.20803 -0.18034
v 0.07297 0.03724 0.00000
v 0.17599 0.02542 0.00000
v 0.32744 0.02859 0.00000
v 0.31181 0.04364 -0.14386
v 0.11440 0.05571 -0.16713
v 0.28879 0.08238 -0.26116
v 3.92555 0.16991 -0.16724
v 3.76302 0.04770 -0.18554
v 3.76834 0.15729 -0.34196
v 3.91090 0.36468 -0.31739
v 3.97189 0.36704 -0.16375
v 3.76483 0.35666 -0.40503
v 3.90596 0.56028 -0.16837
v 3.74532 0.54882 -0.33828
v 3.72900 0.64842 -0.18269
v 3.56458 0.53979 -0.36619
v 3.54166 0.64337 -0.19210
v 3.53586 0.67492 0.00000
v 3.91756 0.57197 0.00000
v 3.98302 0.36651 0.00000
v 3.93483 0.15731 0.00000
v 3.57472 0.03489 -0.19602
v 3.39043 0.00671 0.00000
v 2.82079 0.58115 0.00000
v 2.63965 0.55799 0.00000
v 2.45862 0.53536 0.00000
v 2.82434 0.54882 -0.18672
v 2.64270 0.52763 -0.18343
v 2.46170 0.50672 -0.18108
v 2.64929 0.44792 -0.34673
v 2.46765 0.43002 -0.34266
v 2.28601 0.41150 -0.33876
v 2.28001 0.48561 -0.17956
v 2.27797 0.51290 0.00000
v 2.09872 0.46350 -0.17793
v 2.85094 0.01837 0.00000
v 3.03175 0.01597 0.00000
v 3.21117 0.01140 0.00000
v 3.03275 0.05332 -0.19142
v 3.21361 0.04951 -0.19600
v 3.39427 0.04464 -0.19827
v 3.21735 0.14635 -0.36756
v 3.40323 0.14797 -0.37212
v 3.58681 0.14666 -0.36917
v 3.40269 0.33292 -0.43692
v 3.58774 0.34510 -0.43394
v 3.38135 0.51530 -0.37014
v 3.21471 0.32055 -0.43463
v 3.19859 0.49220 -0.36560
v 3.18488 0.58479 -0.19273
v 3.36209 0.61302 -0.19556
v 3.35620 0.64998 0.00000
v 3.00562 0.56695 -0.19025
v 3.01520 0.47821 -0.35996
v 2.83179 0.46486 -0.35214
v 3.02718 0.31220 -0.43182
v 2.84271 0.30167 -0.42547
v 2.66010 0.29103 -0.41956
v 2.85020 0.13792 -0.35341
v 2.66783 0.13257 -0.34823
v 2.48508 0.12872 -0.34371
v 2.47737 0.27880 -0.41298
v 2.30254 0.12492 -0.33836
v 2.29549 0.26750 -0.40551
v 2.12039 0.12119 -0.33378
v 2.11403 0.25704 -0.39925
v 2.10452 0.39310 -0.33483
v 1.93234 0.24633 -0.39325
v 1.92303 0.37475 -0.33090
v 1.91747 0.44252 -0.17726
v 1.74123 0.35492 -0.32797
v 1.73611 0.42013 -0.17703
v 1.91548 0.46774 0.00000
v 2.66942 0.01993 0.00000
v 2.48824 0.05144 -0.18192
v 2.67027 0.05150 -0.18424
v 2.85211 0.05284 -0.18730
v 3.03291 0.14441 -0.36176
v 2.30591 0.05102 -0.17967
v 2.12315 0.04999 -0.17807
v 1.94081 0.02374 0.00000
v 1.94080 0.05047 -0.17695
v 1.93819 0.11889 -0.33039
v 1.75858 0.05053 -0.17675
v 1.75587 0.11652 -0.32716
v 1.75000 0.23545 -0.38749
v 1.57288 0.11457 -0.32471
v 1.56703 0.22392 -0.38145
v 1.55994 0.33466 -0.32584
v 1.38426 0.21298 -0.37437
v 1.37819 0.31511 -0.32341
v 1.37552 0.37687 -0.17851
v 1.55597 0.39816 -0.17769
v 1.37538 0.40064 0.00000
v 1.57683 0.05091 -0.17713
v 1.39607 0.02719 0.00000
v 1.39438 0.05175 -0.17756
v 1.38963 0.11230 -0.32135
v 1.21223 0.05183 -0.17697
v 1.20656 0.10969 -0.31620
v 1.20120 0.20225 -0.36576
v 1.02379 0.10658 -0.30839
v 1.01817 0.19179 -0.35593
v 1.01471 0.28104 -0.31224
v 1.19652 0.29721 -0.31875
v 1.01526 0.33444 -0.17568
v 1.19572 0.35488 -0.17779
v 1.01616 0.35518 0.00000
v 1.03056 0.05266 -0.17441
v 0.85266 0.03104 0.00000
v 0.84850 0.05280 -0.17093
v 0.84140 0.10212 -0.29826
v 0.66760 0.05217 -0.16633
v 0.65952 0.09752 -0.28709
v 0.65297 0.17426 -0.33312
v 0.83563 0.18232 -0.34536
v 0.65010 0.25380 -0.29217
v 0.83258 0.26543 -0.30492
v 0.65314 0.29527 -0.17156
v 0.83449 0.31401 -0.17333
v 0.83719 0.33302 0.00000
v 0.48856 0.05097 -0.16000
v 0.46977 0.27743 -0.17052
v 0.46655 0.23957 -0.27992
v 0.47032 0.16263 -0.31992
v 0.27324 0.14576 -0.30980
v 0.47845 0.09148 -0.27207
v 0.05701 0.12280 -0.20768
v 0.00000 0.11676 0.00000
v 3.72925 0.67375 0.00000
v 3.76405 0.02064 0.00000
v 3.57129 0.00000 0.00000
v 3.00174 0.60237 0.00000
v 2.09692 0.48976 0.00000
v 3.17993 0.62273 0.00000
v 1.73524 0.44494 0.00000
v 2.48778 0.02145 0.00000
v 2.30611 0.02224 0.00000
v 2.12354 0.02254 0.00000
v 1.55444 0.42247 0.00000
v 1.75935 0.02464 0.00000
v 1.57712 0.02576 0.00000
v 1.19582 0.37752 0.00000
v 1.21432 0.02815 0.00000
v 1.03310 0.02975 0.00000
v 0.65697 0.31200 0.00000
v 0.67233 0.03158 0.00000
v 0.49461 0.03118 0.00000
v 0.47504 0.29277 0.00000
v 0.16168 0.24197 0.12635
v 0.19333 0.03495 0.10847
v 3.89182 0.20921 0.29064
v 3.87312 0.51666 0.29103
v 0.28630 0.25388 0.16067
v 0.27353 0.21285 0.27076
v 0.09036 0.20803 0.18034
v 0.31181 0.04364 0.14386
v 0.11440 0.05571 0.16713
v 0.28879 0.08238 0.26116
v 3.92555 0.16991 0.16724
v 3.76302 0.04770 0.18554
v 3.76834 0.15729 0.34196
v 3.91090 0.36468 0.31739
v 3.97189 0.36704 0.16375
v 3.76483 0.35666 0.40503
v 3.90596 0.56028 0.16837
v 3.74532 0.54882 0.33828
v 3.72900 0.64842 0.18269
v 3.56458 0.53979 0.36619
v 3.54166 0.64337 0.19210
v 3.57472 0.03489 0.19602
v 2.82434 0.54882 0.18672
v 2.64270 0.52763 0.18343
v 2.46170 0.50672 0.18108
v 2.64929 0.44792 0.34673
v 2.46765 0.43002 0.34266
v 2.28601 0.41150 0.33876
v 2.28001 0.48561 0.17956
v 2.09872 0.46350 0.17793
v 3.03275 0.05332 0.19142
v 3.21361 0.04951 0.19600
v 3.39427 0.04464 0.19827
v 3.21735 0.14635 0.36756
v 3.40323 0.14797 0.37212
v 3.58681 0.14666 0.36917
v 3.40269 0.33292 0.43692
v 3.58774 0.34510 0.43394
v 3.38135 0.51530 0.37014
v 3.21471 0.32055 0.43463
v 3.19859 0.49220 0.36560
v 3.18488 0.58479 0.19273
v 3.36209 0.61302 0.19556
v 3.00562 0.56695 0.19025
v 3.01520 0.47821 0.35996
v 2.83179 0.46486 0.35214
v 3.02718 0.31220 0.43182
v 2.84271 0.30167 0.42547
v 2.66010 0.29103 0.41956
v 2.85020 0.13792 0.35341
v 2.66783 0.13257 0.34823
v 2.48508 0.12872 0.34371
v 2.47737 0.27880 0.41298
v 2.30254 0.12492 0.33836
v 2.29549 0.26750 0.40551
v 2.12039 0.12119 0.33378
v 2.11403 0.25704 0.39925
v 2.10452 0.39310 0.33483
v 1.93234 0.24633 0.39325
v 1.92303 0.37475 0.33090
v 1.91747 0.44252 0.17726
v 1.74123 0.35492 0.32797
v 1.73611 0.42013 0.17703
v 2.48824 0.05144 0.18192
v 2.67027 0.05150 0.18424
v 2.85211 0.05284 0.18730
v 3.03291 0.14441 0.36176
v 2.30591 0.05102 0.17967
v 2.12315 0.04999 0.17807
v 1.94080 0.05047 0.17695
v 1.93819 0.11889 0.33039
v 1.75858 0.05053 0.17675
v 1.75587 0.11652 0.32716
v 1.75000 0.23545 0.38749
v 1.57288 0.11457 0.32471
v 1.56703 0.22392 0.38145
v 1.55994 0.33466 0.32584
v 1.38426 0.21298 0.37437
v 1.37819 0.31511 0.32341
v 1.37552 0.37687 0.17851
v 1.55597 0.39816 0.17769
v 1.57683 0.05091 0.17713
v 1.39438 0.05175 0.17756
v 1.38963 0.11230 0.32135
v 1.21223 0.05183 0.17697
v 1.20656 0.10969 0.31620
v 1.20120 0.20225 0.36576
v 1.02379 0.10658 0.30839
v 1.01817 0.19179 0.35593
v 1.01471 0.28104 0.31224
v 1.19652 0.29721 0.31875
v 1.01526 0.33444 0.17568
v 1.19572 0.35488 0.17779
v 1.03056 0.05266 0.17441
v 0.84850 0.05280 0.17093
v 0.84140 0.10212 0.29826
v 0.66760 0.05217 0.16633
v 0.65952 0.09752 0.28709
v 0.65297 0.17426 0.33312
v 0.83563 0.18232 0.34536
v 0.65010 0.25380 0.29217
v 0.83258 0.26543 0.30492
v 0.65314 0.29527 0.17156
v 0.83449 0.31401 0.17333
v 0.48856 0.05097 0.16000
v 0.46977 0.27743 0.17052
v 0.46655 0.23957 0.27992
v 0.47032 0.16263 0.31992
v 0.27324 0.14576 0.30980
v 0.47845 0.09148 0.27207
v 0.05701 0.12280 0.20768
vn -0.22010 0.95703 -0.18882
vn -0.23871 0.97109 0.00036
vn -0.12529 0.99212 0.00050
vn -0.14436 0.96594 -0.21474
vn -0.16220 0.93032 -0.32893
vn -0.26590 0.93552 -0.23258
vn -0.34693 0.93789 0.00001
vn -0.04357 -0.98328 -0.17683
vn 0.01355 -0.97706 -0.21254
vn 0.02809 -0.99961 0.00098
vn -0.05268 -0.99861 0.00080
vn -0.30645 -0.87684 -0.37045
vn -0.07496 -0.81967 -0.56791
vn -0.44618 -0.89494 0.00036
vn 0.69899 -0.41715 -0.58087
vn 0.81696 -0.51948 -0.25043
vn 0.35336 -0.87682 -0.32607
vn 0.34684 -0.56659 -0.74744
vn 0.75206 0.04510 -0.65755
vn 0.97524 0.04863 -0.21574
vn 0.31945 0.02678 -0.94722
vn 0.62521 0.50760 -0.59284
vn 0.92875 0.30287 -0.21375
vn 0.26306 0.62032 -0.73892
vn 0.22636 0.92172 -0.31496
vn 0.43364 0.85927 -0.27132
vn 0.00370 0.63349 -0.77375
vn -0.06473 0.93594 -0.34616
vn -0.07857 0.99691 0.00011
vn 0.23647 0.97164 -0.00020
vn 0.46420 0.88573 -0.00057
vn 0.94994 0.31245 0.00032
vn 0.99900 0.04478 0.00013
vn 0.84375 -0.53673 -0.00024
vn 0.37020 -0.92895 -0.00030
vn 0.02383 -0.99972 -0.00009
vn 0.03496 -0.93121 -0.36279
vn -0.12166 0.99257 0.00000
vn -0.11631 0.99321 0.00000
vn -0.10706 0.94251 -0.31655
vn -0.11303 0.94539 -0.30571
vn -0.11249 0.94826 -0.29689
vn -0.12026 0.99274 0.00001
vn -0.08688 0.69295 -0.71573
vn -0.08804 0.69807 -0.71060
vn -0.08858 0.70210 -0.70654
vn -0.11446 0.95042 -0.28915
vn -0.12232 0.99249 0.00000
vn -0.11376 0.95273 -0.28173
vn -0.12128 0.99262 0.00000
vn -0.02676 -0.99964 -0.00000
vn -0.01659 -0.99986 0.00000
vn -0.01259 -0.94227 -0.33461
vn -0.02222 -0.93810 -0.34565
vn -0.02705 -0.93416 -0.35584
vn -0.03607 -0.99935 -0.00000
vn -0.01345 -0.65312 -0.75713
vn -0.00390 -0.63241 -0.77462
vn 0.07446 -0.61102 -0.78811
vn -0.01213 0.00595 -0.99991
vn 0.08040 0.01372 -0.99667
vn -0.03332 0.34395 -0.93840
vn -0.04739 0.36745 -0.92884
vn -0.08399 0.65841 -0.74796
vn -0.12606 0.85888 -0.49642
vn -0.12157 0.93316 -0.33829
vn -0.14039 0.92807 -0.34493
vn -0.13211 0.99123 -0.00001
vn -0.15349 0.98815 0.00001
vn -0.09908 0.93944 -0.32806
vn -0.10867 0.99408 -0.00001
vn -0.07520 0.67447 -0.73447
vn -0.08342 0.68472 -0.72401
vn -0.05260 0.39046 -0.91912
vn -0.06019 0.40534 -0.91218
vn -0.06009 0.41431 -0.90815
vn -0.00968 -0.41108 -0.91155
vn -0.01417 -0.40077 -0.91607
vn -0.00562 -0.68491 -0.72860
vn -0.00307 -0.69437 -0.71961
vn -0.00551 -0.70212 -0.71204
vn -0.01195 -0.41916 -0.90784
vn -0.06177 0.41707 -0.90677
vn -0.00483 -0.70867 -0.70553
vn -0.01230 -0.42682 -0.90425
vn -0.06073 0.41856 -0.90616
vn -0.00359 -0.71458 -0.69955
vn -0.00890 -0.43451 -0.90063
vn -0.05887 0.42420 -0.90365
vn -0.05849 0.43268 -0.89965
vn -0.10535 0.90506 -0.41202
vn -0.10640 0.90847 -0.40419
vn -0.11418 0.95449 -0.27553
vn -0.10868 0.91078 -0.39833
vn -0.11633 0.95558 -0.27082
vn -0.12302 0.99240 0.00000
vn -0.12106 0.99265 0.00000
vn -0.00360 -0.99999 0.00000
vn -0.00354 -0.99999 0.00000
vn -0.00097 -0.95378 -0.30050
vn 0.00017 -0.95071 -0.31009
vn -0.00057 -0.94671 -0.32208
vn -0.00479 -0.99999 0.00000
vn -0.01253 -0.67132 -0.74106
vn -0.01497 -0.38362 -0.92337
vn -0.00773 -0.35885 -0.93336
vn -0.00036 -1.00000 0.00000
vn 0.00143 -0.95606 -0.29318
vn -0.00190 -1.00000 -0.00000
vn 0.00013 -0.95797 -0.28688
vn -0.00389 -0.99999 0.00000
vn -0.00157 -0.95968 -0.28108
vn -0.00314 -0.72065 -0.69329
vn -0.00077 -0.96121 -0.27581
vn -0.00160 -0.72652 -0.68714
vn -0.00481 -0.45212 -0.89195
vn -0.00664 -0.44303 -0.89648
vn -0.00276 -0.73193 -0.68137
vn -0.00627 -0.46016 -0.88781
vn -0.05848 0.44026 -0.89596
vn -0.05963 0.44361 -0.89424
vn -0.06385 0.44252 -0.89448
vn -0.10647 0.91279 -0.39431
vn -0.10581 0.91531 -0.38859
vn -0.11431 0.95826 -0.26205
vn -0.11390 0.95689 -0.26717
vn -0.12180 0.99255 0.00000
vn -0.12036 0.99273 0.00001
vn -0.00335 -0.99999 0.00000
vn -0.00502 -0.99999 0.00000
vn -0.00197 -0.96271 -0.27053
vn -0.00458 -0.99999 0.00000
vn -0.00209 -0.96420 -0.26518
vn -0.00631 -0.73683 -0.67605
vn -0.00389 -0.96566 -0.25977
vn -0.01205 -0.74260 -0.66963
vn -0.02031 -0.47517 -0.87966
vn -0.01229 -0.46665 -0.88436
vn -0.01658 -0.75139 -0.65965
vn -0.02745 -0.48946 -0.87159
vn -0.06965 0.43956 -0.89551
vn -0.07301 0.43652 -0.89673
vn -0.10454 0.92032 -0.37693
vn -0.10195 0.92694 -0.36108
vn -0.11072 0.96434 -0.24041
vn -0.11365 0.96081 -0.25283
vn -0.11850 0.99295 -0.00001
vn -0.12174 0.99256 0.00000
vn -0.00536 -0.99999 0.00000
vn -0.00641 -0.99998 0.00000
vn -0.00513 -0.96739 -0.25325
vn -0.00328 -0.99999 0.00001
vn -0.00283 -0.96931 -0.24584
vn -0.01913 -0.76125 -0.64818
vn -0.00069 -0.97103 -0.23897
vn -0.02123 -0.77260 -0.63454
vn -0.03836 -0.52561 -0.84986
vn -0.03378 -0.50523 -0.86232
vn -0.07952 0.43931 -0.89481
vn -0.08937 0.44891 -0.88910
vn -0.09685 0.93446 -0.34265
vn -0.09301 0.94026 -0.32751
vn -0.09974 0.97197 -0.21290
vn -0.10592 0.96838 -0.22589
vn -0.10552 0.99442 0.00002
vn -0.11406 0.99347 -0.00000
vn 0.00047 -1.00000 0.00000
vn 0.01273 -0.99992 0.00015
vn 0.01041 -0.97326 -0.22947
vn -0.11200 0.99371 0.00015
vn -0.11544 0.97089 -0.20986
vn -0.11761 0.93870 -0.32404
vn -0.09487 0.46627 -0.87954
vn -0.25899 0.46508 -0.84654
vn -0.14242 -0.62017 -0.77143
vn -0.02214 -0.56153 -0.82716
vn -0.00731 -0.79054 -0.61237
vn -0.51393 -0.69887 -0.49745
vn -0.41483 0.43924 -0.79686
vn -0.71226 -0.70191 0.00077
vn -0.88288 0.40525 -0.23727
vn -0.90836 0.41819 0.00039
vn -0.14467 0.96597 0.21443
vn -0.22055 0.95706 0.18813
vn -0.26580 0.93598 0.23086
vn -0.16231 0.93084 0.32740
vn 0.01253 -0.97679 0.21383
vn -0.04112 -0.98317 0.17798
vn -0.07592 -0.81923 0.56842
vn -0.30230 -0.87794 0.37126
vn 0.35288 -0.56181 0.74823
vn 0.35771 -0.87355 0.33007
vn 0.81821 -0.51517 0.25523
vn 0.70140 -0.41132 0.58212
vn 0.97471 0.04765 0.21832
vn 0.75474 0.04529 0.65446
vn 0.32541 0.02802 0.94516
vn 0.92820 0.30352 0.21521
vn 0.62946 0.50455 0.59095
vn 0.26921 0.61861 0.73813
vn 0.43955 0.85459 0.27654
vn 0.23002 0.91977 0.31798
vn -0.06426 0.93593 0.34628
vn 0.00423 0.63347 0.77376
vn 0.03526 -0.93117 0.36287
vn -0.11296 0.94540 0.30572
vn -0.10702 0.94252 0.31654
vn -0.11249 0.94826 0.29690
vn -0.08804 0.69807 0.71060
vn -0.08687 0.69294 0.71574
vn -0.11451 0.95041 0.28915
vn -0.08860 0.70210 0.70654
vn -0.11378 0.95272 0.28173
vn -0.02236 -0.93814 0.34553
vn -0.01261 -0.94228 0.33458
vn -0.02706 -0.93416 0.35583
vn -0.00427 -0.63247 0.77457
vn -0.01371 -0.65320 0.75706
vn 0.07483 -0.61088 0.78818
vn 0.08035 0.01366 0.99667
vn -0.01261 0.00596 0.99990
vn -0.03349 0.34409 0.93834
vn -0.08418 0.65844 0.74791
vn -0.04798 0.36767 0.92872
vn -0.14046 0.92805 0.34495
vn -0.12150 0.93314 0.33837
vn -0.12605 0.85886 0.49645
vn -0.09909 0.93944 0.32807
vn -0.07528 0.67449 0.73443
vn -0.08347 0.68472 0.72401
vn -0.06024 0.40532 0.91219
vn -0.05272 0.39055 0.91907
vn -0.06018 0.41430 0.90815
vn -0.00312 -0.69438 0.71960
vn -0.00565 -0.68492 0.72860
vn -0.01430 -0.40082 0.91604
vn -0.00963 -0.41108 0.91155
vn -0.01176 -0.41915 0.90784
vn -0.00548 -0.70212 0.71203
vn -0.06177 0.41706 0.90677
vn -0.01213 -0.42682 0.90425
vn -0.00480 -0.70867 0.70553
vn -0.06065 0.41857 0.90615
vn -0.00871 -0.43451 0.90063
vn -0.00353 -0.71458 0.69955
vn -0.05889 0.42420 0.90365
vn -0.05872 0.43265 0.89965
vn -0.11419 0.95449 0.27553
vn -0.10640 0.90847 0.40419
vn -0.10538 0.90506 0.41203
vn -0.11635 0.95557 0.27082
vn -0.10873 0.91078 0.39832
vn 0.00012 -0.95071 0.31008
vn -0.00103 -0.95378 0.30049
vn -0.00053 -0.94670 0.32211
vn -0.01246 -0.67132 0.74107
vn -0.01487 -0.38355 0.92340
vn -0.00793 -0.35882 0.93337
vn 0.00140 -0.95606 0.29318
vn 0.00010 -0.95796 0.28689
vn -0.00157 -0.95968 0.28109
vn -0.00316 -0.72066 0.69329
vn -0.00158 -0.72652 0.68714
vn -0.00074 -0.96121 0.27582
vn -0.00667 -0.44304 0.89648
vn -0.00482 -0.45212 0.89195
vn -0.00606 -0.46015 0.88782
vn -0.00266 -0.73193 0.68138
vn -0.05856 0.44025 0.89596
vn -0.05955 0.44361 0.89424
vn -0.06379 0.44252 0.89449
vn -0.11390 0.95689 0.26717
vn -0.11436 0.95826 0.26203
vn -0.10591 0.91531 0.38856
vn -0.10647 0.91279 0.39431
vn -0.00198 -0.96271 0.27053
vn -0.00210 -0.96420 0.26518
vn -0.00632 -0.73683 0.67605
vn -0.01193 -0.74258 0.66965
vn -0.00382 -0.96566 0.25979
vn -0.01229 -0.46665 0.88436
vn -0.02022 -0.47516 0.87967
vn -0.02714 -0.48943 0.87162
vn -0.01643 -0.75138 0.65967
vn -0.06966 0.43956 0.89551
vn -0.07302 0.43652 0.89673
vn -0.11363 0.96081 0.25283
vn -0.11074 0.96434 0.24040
vn -0.10200 0.92694 0.36107
vn -0.10453 0.92033 0.37692
vn -0.00515 -0.96738 0.25326
vn -0.00283 -0.96930 0.24585
vn -0.01910 -0.76124 0.64818
vn -0.02116 -0.77257 0.63458
vn -0.00071 -0.97103 0.23896
vn -0.03369 -0.50523 0.86233
vn -0.03816 -0.52550 0.84994
vn -0.07940 0.43932 0.89482
vn -0.08927 0.44892 0.88910
vn -0.10581 0.96839 0.22589
vn -0.09953 0.97198 0.21294
vn -0.09264 0.94028 0.32756
vn -0.09662 0.93448 0.34267
vn 0.01041 -0.97319 0.22978
vn -0.11533 0.97086 0.21007
vn -0.11766 0.93865 0.32418
vn -0.09549 0.46644 0.87939
vn -0.25861 0.46668 0.84577
vn -0.00757 -0.79061 0.61227
vn -0.02225 -0.56200 0.82683
vn -0.14402 -0.61947 0.77170
vn -0.51152 -0.69989 0.49850
vn -0.41295 0.44232 0.79613
vn -0.88179 0.40717 0.23803
f 1//1 5//2 7//3 8//4
f 1//1 8//4 9//5 10//6
f 1//1 10//6 6//7 5//2
f 2//8 14//9 13//10 12//11
f 2//8 15//12 16//13 14//9
f 2//8 12//11 11//14 15//12
f 3//15 17//16 18//17 19//18
f 3//15 20//19 21//20 17//16
f 3//15 19//18 22//21 20//19
f 4//22 23//23 21//20 20//19
f 4//22 20//19 22//21 24//24
f 4//22 24//24 25//25 23//26
f 25//25 24//24 26//27 27//28
f 25//25 27//28 28//29 140//30
f 25//25 140//30 29//31 23//26
f 29//32 30//33 21//20 23//23
f 30//33 31//34 17//16 21//20
f 31//34 141//35 18//17 17//16
f 141//35 142//36 32//37 18//17
f 35//38 34//39 37//40 38//41
f 35//38 38//41 39//42 36//43
f 39//42 38//41 40//44 41//45
f 39//42 41//45 42//46 43//47
f 39//42 43//47 44//48 36//43
f 44//48 43//47 45//49 144//50
f 48//51 47//52 49//53 50//54
f 48//51 50//54 51//55 33//56
f 51//55 32//37 142//36 33//56
f 51//55 50//54 52//57 53//58
f 51//55 53//58 54//59 32//37
f 54//59 19//18 18//17 32//37
f 54//59 53//58 55//60 56//61
f 54//59 56//61 22//21 19//18
f 56//61 55//60 57//62 26//27
f 56//61 26//27 24//24 22//21
f 57//62 55//60 58//63 59//64
f 57//65 59//64 60//66 61//67
f 57//65 61//67 27//28 26//27
f 61//67 60//66 145//68 62//69
f 61//67 62//69 28//29 27//28
f 145//68 60//66 63//70 143//71
f 63//70 60//66 59//64 64//72
f 63//70 64//72 65//73 37//40
f 63//70 37//40 34//39 143//71
f 65//73 64//72 66//74 67//75
f 65//73 67//75 68//76 40//44
f 65//73 40//44 38//41 37//40
f 68//77 67//78 69//79 70//80
f 68//77 70//80 71//81 72//82
f 68//76 72//83 41//45 40//44
f 72//82 71//81 73//84 74//85
f 72//83 74//86 42//46 41//45
f 74//85 73//84 75//87 76//88
f 74//86 76//89 77//89 42//46
f 77//89 76//89 78//90 79//90
f 77//91 79//92 80//93 45//49
f 77//91 45//49 43//47 42//46
f 80//93 79//92 81//94 82//95
f 80//93 82//95 146//96 83//97
f 80//93 83//97 144//50 45//49
f 84//98 147//99 85//100 86//101
f 84//98 86//101 87//102 46//103
f 87//102 49//53 47//52 46//103
f 87//102 86//101 70//80 69//79
f 87//102 69//79 88//104 49//53
f 88//104 52//57 50//54 49//53
f 88//104 69//79 67//78 66//105
f 88//104 66//105 58//106 52//57
f 86//101 85//100 71//81 70//80
f 85//100 147//99 148//107 89//108
f 85//100 89//108 73//84 71//81
f 89//108 148//107 149//109 90//110
f 89//108 90//110 75//87 73//84
f 90//110 149//109 91//111 92//112
f 90//110 92//112 93//113 75//87
f 93//113 92//112 94//114 95//115
f 93//113 95//115 96//116 78//117
f 93//113 78//117 76//88 75//87
f 96//116 95//115 97//118 98//119
f 96//120 98//121 99//121 81//120
f 96//120 81//120 79//90 78//90
f 99//121 98//121 100//122 101//122
f 99//123 101//124 102//125 103//126
f 99//123 103//126 82//95 81//94
f 103//126 102//125 104//127 150//128
f 103//126 150//128 146//96 82//95
f 151//129 152//130 105//131 94//114
f 151//129 94//114 92//112 91//111
f 105//131 152//130 106//132 107//133
f 105//131 107//133 108//134 97//118
f 105//131 97//118 95//115 94//114
f 108//134 107//133 109//135 110//136
f 108//134 110//136 111//137 100//138
f 108//134 100//138 98//119 97//118
f 111//137 110//136 112//139 113//140
f 111//141 113//142 114//142 115//141
f 111//141 115//141 101//122 100//122
f 115//143 114//144 116//145 117//146
f 115//143 117//146 102//125 101//124
f 117//146 116//145 118//147 153//148
f 117//146 153//148 104//127 102//125
f 154//149 155//150 119//151 109//135
f 154//149 109//135 107//133 106//132
f 119//151 155//150 120//152 121//153
f 119//151 121//153 122//154 112//139
f 119//151 112//139 110//136 109//135
f 122//154 121//153 123//155 124//156
f 122//154 124//156 125//157 126//158
f 122//154 126//158 113//140 112//139
f 126//159 125//160 127//160 128//159
f 126//159 128//159 114//142 113//142
f 128//161 127//162 129//163 130//164
f 128//161 130//164 116//145 114//144
f 130//164 129//163 156//165 131//166
f 130//164 131//166 118//147 116//145
f 157//167 158//168 132//169 123//155
f 157//167 123//155 121//153 120//152
f 159//170 156//165 129//163 133//171
f 159//170 133//171 8//4 7//3
f 133//171 129//163 127//162 134//172
f 133//171 134//172 9//5 8//4
f 134//173 127//160 125//160 135//173
f 134//173 135//173 136//174 9//174
f 136//175 135//176 137//177 16//13
f 136//175 16//13 15//12 138//178
f 136//174 138//179 10//179 9//174
f 138//178 15//12 11//14 139//180
f 138//181 139//182 6//182 10//181
f 137//177 124//156 123//155 132//169
f 137//177 132//169 14//9 16//13
f 137//177 135//176 125//157 124//156
f 132//169 158//168 13//10 14//9
f 66//74 64//72 59//64 58//63
f 58//106 55//60 53//58 52//57
f 164//183 7//3 5//2 160//184
f 166//185 165//186 164//183 160//184
f 5//2 6//7 166//185 160//184
f 12//11 13//10 167//187 161//188
f 167//187 169//189 168//190 161//188
f 168//190 11//14 12//11 161//188
f 172//191 171//192 170//193 162//194
f 170//193 174//195 173//196 162//194
f 173//196 175//197 172//191 162//194
f 173//196 174//195 176//198 163//199
f 177//200 175//197 173//196 163//199
f 176//201 178//202 177//200 163//199
f 180//203 179//204 177//200 178//202
f 140//30 28//29 180//203 178//202
f 176//201 29//31 140//30 178//202
f 176//198 174//195 30//33 29//32
f 174//195 170//193 31//34 30//33
f 170//193 171//192 141//35 31//34
f 171//192 181//205 142//36 141//35
f 183//206 182//207 34//39 35//38
f 36//43 184//208 183//206 35//38
f 186//209 185//210 183//206 184//208
f 188//211 187//212 186//209 184//208
f 36//43 44//48 188//211 184//208
f 144//50 189//213 188//211 44//48
f 191//214 190//215 47//52 48//51
f 33//56 192//216 191//214 48//51
f 33//56 142//36 181//205 192//216
f 194//217 193//218 191//214 192//216
f 181//205 195//219 194//217 192//216
f 181//205 171//192 172//191 195//219
f 197//220 196//221 194//217 195//219
f 172//191 175//197 197//220 195//219
f 179//204 198//222 196//221 197//220
f 175//197 177//200 179//204 197//220
f 200//223 199//224 196//221 198//222
f 202//225 201//226 200//223 198//227
f 179//204 180//203 202//225 198//227
f 62//69 145//68 201//226 202//225
f 180//203 28//29 62//69 202//225
f 143//71 203//228 201//226 145//68
f 204//229 200//223 201//226 203//228
f 182//207 205//230 204//229 203//228
f 143//71 34//39 182//207 203//228
f 207//231 206//232 204//229 205//230
f 185//210 208//233 207//231 205//230
f 182//207 183//206 185//210 205//230
f 210//234 209//235 207//236 208//237
f 212//238 211//239 210//234 208//237
f 185//210 186//209 212//240 208//233
f 214//241 213//242 211//239 212//238
f 186//209 187//212 214//243 212//240
f 216//244 215//245 213//242 214//241
f 187//212 217//246 216//246 214//243
f 219//247 218//247 216//246 217//246
f 189//213 220//248 219//249 217//250
f 187//212 188//211 189//213 217//250
f 222//251 221//252 219//249 220//248
f 83//97 146//96 222//251 220//248
f 189//213 144//50 83//97 220//248
f 224//253 223//254 147//99 84//98
f 46//103 225//255 224//253 84//98
f 46//103 47//52 190//215 225//255
f 209//235 210//234 224//253 225//255
f 190//215 226//256 209//235 225//255
f 190//215 191//214 193//218 226//256
f 206//257 207//236 209//235 226//256
f 193//218 199//258 206//257 226//256
f 210//234 211//239 223//254 224//253
f 227//259 148//107 147//99 223//254
f 211//239 213//242 227//259 223//254
f 228//260 149//109 148//107 227//259
f 213//242 215//245 228//260 227//259
f 229//261 91//111 149//109 228//260
f 215//245 230//262 229//261 228//260
f 232//263 231//264 229//261 230//262
f 218//265 233//266 232//263 230//262
f 215//245 216//244 218//265 230//262
f 235//267 234//268 232//263 233//266
f 221//269 236//270 235//270 233//269
f 218//247 219//247 221//269 233//269
f 238//271 237//271 235//270 236//270
f 240//272 239//273 238//274 236//275
f 221//252 222//251 240//272 236//275
f 150//128 104//127 239//273 240//272
f 222//251 146//96 150//128 240//272
f 231//264 241//276 152//130 151//129
f 91//111 229//261 231//264 151//129
f 242//277 106//132 152//130 241//276
f 234//268 243//278 242//277 241//276
f 231//264 232//263 234//268 241//276
f 245//279 244//280 242//277 243//278
f 237//281 246//282 245//279 243//278
f 234//268 235//267 237//281 243//278
f 248//283 247//284 245//279 246//282
f 250//285 249//286 248//286 246//285
f 237//271 238//271 250//285 246//285
f 252//287 251//288 249//289 250//290
f 238//274 239//273 252//287 250//290
f 153//148 118//147 251//288 252//287
f 239//273 104//127 153//148 252//287
f 244//280 253//291 155//150 154//149
f 106//132 242//277 244//280 154//149
f 254//292 120//152 155//150 253//291
f 247//284 255//293 254//292 253//291
f 244//280 245//279 247//284 253//291
f 257//294 256//295 254//292 255//293
f 259//296 258//297 257//294 255//293
f 247//284 248//283 259//296 255//293
f 261//298 260//299 258//299 259//298
f 248//286 249//286 261//298 259//298
f 263//300 262//301 260//302 261//303
f 249//289 251//288 263//300 261//303
f 131//166 156//165 262//301 263//300
f 251//288 118//147 131//166 263//300
f 256//295 264//304 158//168 157//167
f 120//152 254//292 256//295 157//167
f 265//305 262//301 156//165 159//170
f 7//3 164//183 265//305 159//170
f 266//306 260//302 262//301 265//305
f 164//183 165//186 266//306 265//305
f 267//307 258//299 260//299 266//307
f 165//308 268//308 267//307 266//307
f 169//189 269//309 267//310 268//311
f 270//312 168//190 169//189 268//311
f 165//308 166//313 270//313 268//308
f 139//180 11//14 168//190 270//312
f 166//314 6//182 139//182 270//314
f 264//304 256//295 257//294 269//309
f 169//189 167//187 264//304 269//309
f 257//294 258//297 267//310 269//309
f 167//187 13//10 158//168 264//304
f 199//224 200//223 204//229 206//232
f 193//218 194//217 196//221 199//258
