# pilowlava3D glyph 'v' variant 1 — Vincent Wagner / Velvetyne, Free Art License
v 4.02354 4.13671 -0.40440
v 1.84210 3.47223 -0.29151
v 2.10875 3.25236 -0.29242
v 1.01477 4.07324 -0.37420
v 0.70128 4.32978 -0.40875
v 3.64134 4.35769 -0.40149
v 0.92540 2.59831 -0.45577
v 0.94762 2.21352 -0.55767
v 3.99866 3.97551 -0.44993
v 3.75362 4.11620 -0.53232
v 3.84622 4.27850 -0.43941
v 3.92377 4.41954 -0.25761
v 4.12798 4.18731 -0.25529
v 4.17711 3.93016 -0.25046
v 1.70053 3.33872 -0.35400
v 1.62375 3.39537 -0.18290
v 1.84341 3.53306 -0.16215
v 2.08162 3.48467 -0.17449
v 2.01292 3.40970 -0.34111
v 1.85425 3.22406 -0.44560
v 2.17831 3.26132 -0.16484
v 2.07426 3.02705 -0.18211
v 1.99866 3.09139 -0.35276
v 0.93478 3.93608 -0.41620
v 0.73267 4.09118 -0.50777
v 0.88115 4.22838 -0.41370
v 0.99211 4.35883 -0.24052
v 1.13023 4.08623 -0.23528
v 1.07584 3.84798 -0.23524
v 0.69092 4.47777 -0.24924
v 0.51416 4.24845 -0.45451
v 0.36526 4.39547 -0.26594
v 3.51224 4.25481 -0.44874
v 3.36691 4.37835 -0.25703
v 3.62555 4.47539 -0.25016
v 0.75308 2.41661 -0.48896
v 0.59036 2.60290 -0.41883
v 0.68581 2.69886 -0.38212
v 1.17703 2.76247 -0.45399
v 1.34464 2.61124 -0.54488
v 1.14809 2.41382 -0.55574
v 0.97679 1.92641 -0.55302
v 0.73866 1.90148 -0.44647
v 0.67299 2.12540 -0.43805
v 0.58467 2.31142 -0.40644
v 0.47391 2.53084 -0.36335
v 0.52596 2.06304 -0.23294
v 0.46086 2.26355 -0.22226
v 0.38397 2.49115 -0.20504
v 0.30286 2.74233 -0.19468
v 0.37805 2.76610 -0.34146
v 0.26669 2.73303 -0.00000
v 0.19293 3.00131 -0.00000
v 0.23103 3.00577 -0.20003
v 0.12738 3.26893 -0.00000
v 0.06572 3.52647 -0.00000
v 0.13467 3.53388 -0.23805
v 0.17934 3.27056 -0.21999
v 0.27466 3.53235 -0.42725
v 0.28879 3.26622 -0.38629
v 0.31657 3.01385 -0.35072
v 0.41760 3.25400 -0.43632
v 0.41660 3.02244 -0.39373
v 0.47153 2.80269 -0.38488
v 0.51689 3.03055 -0.34591
v 0.56082 2.84658 -0.34622
v 0.59593 3.03142 -0.19867
v 0.62340 2.87748 -0.20378
v 0.74229 2.78622 -0.21924
v 0.74626 2.81555 -0.00000
v 0.88455 2.85145 -0.00000
v 0.89531 2.79539 -0.24096
v 1.08815 2.91310 -0.24204
v 1.23100 3.11417 -0.00000
v 1.26855 3.06285 -0.23436
v 1.41296 3.26210 -0.00000
v 1.44849 3.22255 -0.21361
v 1.53764 3.14538 -0.40192
v 1.36668 2.95558 -0.43727
v 1.69008 3.02197 -0.48661
v 1.52405 2.81949 -0.51962
v 1.84520 2.89508 -0.40157
v 1.69812 2.68952 -0.43226
v 1.55690 2.47796 -0.45819
v 1.82669 2.61380 -0.23378
v 1.71970 2.40358 -0.24744
v 1.61555 2.19826 -0.25662
v 1.41954 2.27062 -0.47510
v 1.52812 2.00157 -0.26179
v 1.31677 2.08659 -0.48599
v 1.45154 1.80116 -0.25864
v 1.26303 1.87406 -0.47391
v 1.37943 1.59670 -0.24862
v 1.21602 1.64289 -0.45094
v 0.98531 1.66913 -0.52591
v 1.16779 1.41548 -0.42162
v 0.97762 1.43167 -0.49191
v 0.79594 1.43614 -0.40940
v 0.77325 1.66874 -0.43185
v 0.67163 1.42632 -0.22509
v 0.62671 1.64609 -0.23354
v 0.57961 1.85888 -0.23629
v 0.51198 1.83911 -0.00000
v 0.06544 4.17070 -0.00000
v 0.00000 3.81927 -0.00000
v 0.12659 4.14076 -0.27147
v 0.06999 3.81389 -0.25741
v 0.33176 4.05867 -0.47084
v 0.25983 3.80052 -0.45914
v 0.59175 3.93109 -0.53640
v 0.50316 3.74209 -0.52200
v 0.44991 3.50126 -0.48595
v 0.71344 3.63531 -0.43272
v 0.62111 3.44803 -0.41465
v 0.54674 3.23654 -0.37391
v 0.75076 3.38414 -0.22907
v 0.65112 3.21510 -0.21254
v 0.62270 3.02523 -0.00000
v 1.13025 3.82487 -0.00000
v 0.95770 3.69086 -0.23446
v 1.17682 4.10284 -0.00000
v 1.01656 4.39275 -0.00000
v 0.68640 4.52847 -0.00000
v 0.32771 4.44494 -0.00000
v 0.84749 3.54416 -0.23146
v 0.81523 3.78851 -0.43651
v 0.66676 1.19250 -0.00000
v 0.72139 0.96114 -0.00000
v 0.71416 1.19900 -0.21460
v 0.75932 0.96267 -0.20373
v 0.81897 1.20070 -0.38339
v 0.84492 0.96444 -0.35824
v 0.87791 0.72298 -0.33593
v 0.81027 0.71450 -0.19769
v 0.78114 0.71076 -0.00000
v 0.88373 0.44514 -0.19705
v 0.85991 0.43700 -0.00000
v 1.99515 2.79425 -0.00000
v 2.10373 3.00740 -0.00000
v 1.94701 2.82146 -0.21415
v 2.20059 3.26200 -0.00000
v 1.70607 2.16596 -0.00000
v 1.61865 1.96260 -0.00000
v 1.45197 1.56196 -0.00000
v 1.36879 1.36366 -0.00000
v 1.30481 1.38784 -0.23476
v 1.23853 1.18103 -0.22126
v 1.12018 1.19176 -0.39002
v 1.18112 0.97242 -0.20499
v 1.08493 0.97012 -0.35875
v 0.96402 0.96819 -0.41128
v 0.96739 1.19707 -0.45081
v 1.07399 0.75378 -0.33011
v 0.97540 0.73739 -0.37618
v 1.11292 0.55119 -0.30939
v 1.03046 0.51266 -0.35761
v 0.94466 0.47388 -0.32362
v 1.15794 0.32077 -0.35418
v 1.09280 0.25161 -0.32402
v 1.03946 0.19388 -0.19815
v 1.32997 0.11605 -0.32372
v 1.30664 0.03917 -0.19679
v 1.22159 0.97255 -0.00000
v 1.14824 0.77113 -0.19102
v 1.16515 0.58104 -0.18237
v 1.25117 0.42692 -0.17766
v 1.21651 0.38487 -0.30084
v 1.39671 0.33898 -0.17568
v 1.38089 0.28591 -0.29885
v 1.35635 0.20368 -0.35295
v 1.57411 0.27828 -0.30017
v 1.58856 0.19220 -0.35236
v 1.60397 0.10022 -0.32111
v 1.79839 0.28404 -0.35453
v 1.85136 0.20435 -0.32239
v 1.89140 0.13998 -0.19806
v 1.61476 0.02383 -0.19666
v 1.61760 0.00000 -0.00000
v 1.56740 0.33260 -0.17585
v 1.71674 0.42966 -0.00000
v 1.72350 0.41225 -0.18014
v 1.75095 0.36058 -0.30599
v 1.85037 0.55225 -0.18498
v 1.89478 0.50590 -0.31285
v 1.95975 0.44660 -0.36108
v 2.00786 0.69039 -0.32601
v 2.08269 0.64313 -0.37360
v 2.16214 0.59599 -0.33258
v 2.03180 0.38818 -0.32476
v 2.22206 0.56185 -0.19811
v 2.08414 0.34637 -0.19736
v 1.95155 0.73039 -0.19061
v 2.00726 0.94839 -0.00000
v 2.03595 0.93034 -0.19493
v 2.10214 0.89129 -0.34105
v 2.11211 1.13923 -0.19970
v 2.19020 1.09911 -0.35518
v 2.28452 1.05311 -0.40347
v 2.18626 0.84680 -0.38790
v 2.38274 1.00575 -0.35710
v 2.27452 0.80187 -0.34532
v 2.46411 0.96709 -0.20092
v 2.34651 0.76674 -0.19882
v 2.49812 0.95086 -0.00000
v 2.07840 1.15754 -0.00000
v 2.18959 1.35098 -0.20260
v 2.22594 1.58268 -0.00000
v 3.32977 2.30599 -0.00000
v 3.04411 1.94714 -0.21336
v 3.16199 2.14265 -0.21888
v 3.27734 2.33875 -0.22552
v 3.04971 2.20194 -0.40344
v 3.15749 2.40343 -0.41415
v 3.26529 2.60264 -0.42746
v 3.39218 2.53526 -0.23328
v 3.44922 2.49929 -0.00000
v 3.50731 2.73178 -0.24108
v 3.56851 2.69176 -0.00000
v 2.29892 1.79584 -0.00000
v 2.41747 1.99372 -0.20965
v 2.34315 1.77933 -0.20742
v 2.26724 1.56441 -0.20518
v 2.44011 1.73607 -0.38054
v 2.35736 1.52282 -0.37311
v 2.27403 1.31023 -0.36528
v 2.47621 1.46732 -0.43361
v 2.37981 1.26072 -0.41905
v 2.60092 1.40784 -0.37453
v 2.49094 1.20769 -0.36685
v 2.69539 1.36145 -0.20504
v 2.57954 1.16532 -0.20304
v 2.73468 1.33993 -0.00000
v 2.61639 1.14677 -0.00000
v 2.85381 1.53313 -0.00000
v 2.81293 1.55687 -0.20679
v 2.92870 1.75252 -0.20935
v 2.71361 1.60704 -0.38103
v 2.82538 1.80637 -0.38675
v 2.93752 2.00348 -0.39480
v 2.67189 1.87945 -0.46103
v 2.77037 2.08521 -0.47560
v 2.87242 2.28878 -0.48846
v 2.60370 2.16328 -0.39612
v 2.69183 2.37354 -0.40541
v 2.77788 2.58424 -0.41687
v 2.96959 2.49563 -0.50152
v 2.86684 2.79432 -0.42833
v 3.06812 2.69970 -0.51577
v 2.95786 3.00229 -0.44166
v 3.16856 2.90478 -0.53091
v 3.37375 2.80486 -0.44137
v 3.26498 3.11285 -0.54405
v 3.47894 3.00924 -0.45209
v 3.62288 2.92775 -0.24770
v 3.58281 3.21221 -0.46140
v 3.73526 3.12233 -0.25141
v 2.66541 2.87227 -0.00000
v 2.59198 2.65591 -0.00000
v 2.65187 2.63539 -0.22562
v 2.57455 2.42210 -0.21911
v 2.49620 2.20853 -0.21356
v 2.52063 1.95001 -0.38794
v 2.57477 1.67288 -0.44792
v 2.73172 2.84962 -0.23268
v 2.73999 3.08688 -0.00000
v 2.81209 3.06192 -0.24041
v 2.81435 3.30153 -0.00000
v 2.89145 3.27420 -0.24823
v 3.04614 3.21116 -0.45461
v 2.96645 3.48867 -0.25755
v 3.13304 3.42441 -0.46829
v 3.36053 3.32374 -0.55646
v 3.21687 3.64046 -0.47594
v 3.45880 3.53566 -0.56731
v 3.69177 3.41045 -0.47191
v 3.55470 3.74168 -0.56933
v 3.80124 3.60180 -0.47586
v 3.97127 3.50062 -0.25812
v 3.84993 3.31363 -0.25562
v 3.04300 3.70260 -0.26214
v 3.02727 3.95944 -0.00000
v 3.10602 3.92870 -0.26992
v 3.29439 3.85739 -0.48331
v 3.18700 4.16463 -0.27110
v 3.38261 4.06873 -0.48133
v 3.65070 3.93322 -0.56759
v 3.91174 3.78539 -0.47492
v 4.09744 3.69142 -0.25686
v 3.12637 4.20497 -0.00000
v 3.33151 4.42548 -0.00000
v 3.62856 4.52524 -0.00000
v 3.94930 4.46043 -0.00000
v 4.16826 4.22545 -0.00000
v 0.40265 2.24925 -0.00000
v 0.33957 2.47720 -0.00000
v 0.63782 2.88413 -0.00000
v 1.05405 2.96989 -0.00000
v 1.59962 3.41798 -0.00000
v 0.56238 1.62941 -0.00000
v 0.45975 2.04391 -0.00000
v 0.80351 3.34677 -0.00000
v 0.69632 3.19384 -0.00000
v 1.01859 3.65116 -0.00000
v 0.90910 3.49930 -0.00000
v 0.61446 1.41460 -0.00000
v 1.89268 2.58500 -0.00000
v 2.09566 3.49619 -0.00000
v 1.84341 3.55036 -0.00000
v 1.79897 2.37358 -0.00000
v 1.53493 1.76091 -0.00000
v 1.29266 1.16764 -0.00000
v 1.29884 0.01649 -0.00000
v 1.02122 0.17668 -0.00000
v 1.17424 0.77829 -0.00000
v 1.18176 0.59292 -0.00000
v 1.26222 0.44101 -0.00000
v 1.90430 0.11815 -0.00000
v 1.56636 0.35114 -0.00000
v 1.40266 0.35733 -0.00000
v 2.24895 0.54712 -0.00000
v 2.10370 0.32864 -0.00000
v 1.83543 0.57087 -0.00000
v 1.92766 0.74889 -0.00000
v 2.37703 0.75204 -0.00000
v 2.15193 1.36941 -0.00000
v 3.21021 2.11207 -0.00000
v 3.09067 1.91977 -0.00000
v 2.37216 2.01096 -0.00000
v 2.97231 1.72699 -0.00000
v 3.80640 3.07454 -0.00000
v 3.68810 2.88323 -0.00000
v 2.51958 2.44068 -0.00000
v 2.44632 2.22613 -0.00000
v 4.04913 3.45555 -0.00000
v 3.92587 3.26391 -0.00000
v 2.95947 3.73280 -0.00000
v 2.88600 3.51676 -0.00000
v 4.23578 3.94076 -0.00000
v 4.16978 3.66513 -0.00000
v 4.02354 4.13671 0.40440
v 1.84210 3.47223 0.29151
v 2.10875 3.25236 0.29242
v 1.01477 4.07324 0.37420
v 0.70128 4.32978 0.40875
v 3.64134 4.35769 0.40149
v 0.92540 2.59831 0.45577
v 0.94762 2.21352 0.55767
v 3.99866 3.97551 0.44993
v 3.75362 4.11620 0.53232
v 3.84622 4.27850 0.43941
v 3.92377 4.41954 0.25761
v 4.12798 4.18731 0.25529
v 4.17711 3.93016 0.25046
v 1.70053 3.33872 0.35400
v 1.62375 3.39537 0.18290
v 1.84341 3.53306 0.16215
v 2.08162 3.48467 0.17449
v 2.01292 3.40970 0.34111
v 1.85425 3.22406 0.44560
v 2.17831 3.26132 0.16484
v 2.07426 3.02705 0.18211
v 1.99866 3.09139 0.35276
v 0.93478 3.93608 0.41620
v 0.73267 4.09118 0.50777
v 0.88115 4.22838 0.41370
v 0.99211 4.35883 0.24052
v 1.13023 4.08623 0.23528
v 1.07584 3.84798 0.23524
v 0.69092 4.47777 0.24924
v 0.51416 4.24845 0.45451
v 0.36526 4.39547 0.26594
v 3.51224 4.25481 0.44874
v 3.36691 4.37835 0.25703
v 3.62555 4.47539 0.25016
v 0.75308 2.41661 0.48896
v 0.59036 2.60290 0.41883
v 0.68581 2.69886 0.38212
v 1.17703 2.76247 0.45399
v 1.34464 2.61124 0.54488
v 1.14809 2.41382 0.55574
v 0.97679 1.92641 0.55302
v 0.73866 1.90148 0.44647
v 0.67299 2.12540 0.43805
v 0.58467 2.31142 0.40644
v 0.47391 2.53084 0.36335
v 0.52596 2.06304 0.23294
v 0.46086 2.26355 0.22226
v 0.38397 2.49115 0.20504
v 0.30286 2.74233 0.19468
v 0.37805 2.76610 0.34146
v 0.23103 3.00577 0.20003
v 0.13467 3.53388 0.23805
v 0.17934 3.27056 0.21999
v 0.27466 3.53235 0.42725
v 0.28879 3.26622 0.38629
v 0.31657 3.01385 0.35072
v 0.41760 3.25400 0.43632
v 0.41660 3.02244 0.39373
v 0.47153 2.80269 0.38488
v 0.51689 3.03055 0.34591
v 0.56082 2.84658 0.34622
v 0.59593 3.03142 0.19867
v 0.62340 2.87748 0.20378
v 0.74229 2.78622 0.21924
v 0.89531 2.79539 0.24096
v 1.08815 2.91310 0.24204
v 1.26855 3.06285 0.23436
v 1.44849 3.22255 0.21361
v 1.53764 3.14538 0.40192
v 1.36668 2.95558 0.43727
v 1.69008 3.02197 0.48661
v 1.52405 2.81949 0.51962
v 1.84520 2.89508 0.40157
v 1.69812 2.68952 0.43226
v 1.55690 2.47796 0.45819
v 1.82669 2.61380 0.23378
v 1.71970 2.40358 0.24744
v 1.61555 2.19826 0.25662
v 1.41954 2.27062 0.47510
v 1.52812 2.00157 0.26179
v 1.31677 2.08659 0.48599
v 1.45154 1.80116 0.25864
v 1.26303 1.87406 0.47391
v 1.37943 1.59670 0.24862
v 1.21602 1.64289 0.45094
v 0.98531 1.66913 0.52591
v 1.16779 1.41548 0.42162
v 0.97762 1.43167 0.49191
v 0.79594 1.43614 0.40940
v 0.77325 1.66874 0.43185
v 0.67163 1.42632 0.22509
v 0.62671 1.64609 0.23354
v 0.57961 1.85888 0.23629
v 0.12659 4.14076 0.27147
v 0.06999 3.81389 0.25741
v 0.33176 4.05867 0.47084
v 0.25983 3.80052 0.45914
v 0.59175 3.93109 0.53640
v 0.50316 3.74209 0.52200
v 0.44991 3.50126 0.48595
v 0.71344 3.63531 0.43272
v 0.62111 3.44803 0.41465
v 0.54674 3.23654 0.37391
v 0.75076 3.38414 0.22907
v 0.65112 3.21510 0.21254
v 0.95770 3.69086 0.23446
v 0.84749 3.54416 0.23146
v 0.81523 3.78851 0.43651
v 0.71416 1.19900 0.21460
v 0.75932 0.96267 0.20373
v 0.81897 1.20070 0.38339
v 0.84492 0.96444 0.35824
v 0.87791 0.72298 0.33593
v 0.81027 0.71450 0.19769
v 0.88373 0.44514 0.19705
v 1.94701 2.82146 0.21415
v 1.30481 1.38784 0.23476
v 1.23853 1.18103 0.22126
v 1.12018 1.19176 0.39002
v 1.18112 0.97242 0.20499
v 1.08493 0.97012 0.35875
v 0.96402 0.96819 0.41128
v 0.96739 1.19707 0.45081
v 1.07399 0.75378 0.33011
v 0.97540 0.73739 0.37618
v 1.11292 0.55119 0.30939
v 1.03046 0.51266 0.35761
v 0.94466 0.47388 0.32362
v 1.15794 0.32077 0.35418
v 1.09280 0.25161 0.32402
v 1.03946 0.19388 0.19815
v 1.32997 0.11605 0.32372
v 1.30664 0.03917 0.19679
v 1.14824 0.77113 0.19102
v 1.16515 0.58104 0.18237
v 1.25117 0.42692 0.17766
v 1.21651 0.38487 0.30084
v 1.39671 0.33898 0.17568
v 1.38089 0.28591 0.29885
v 1.35635 0.20368 0.35295
v 1.57411 0.27828 0.30017
v 1.58856 0.19220 0.35236
v 1.60397 0.10022 0.32111
v 1.79839 0.28404 0.35453
v 1.85136 0.20435 0.32239
v 1.89140 0.13998 0.19806
v 1.61476 0.02383 0.19666
v 1.56740 0.33260 0.17585
v 1.72350 0.41225 0.18014
v 1.75095 0.36058 0.30599
v 1.85037 0.55225 0.18498
v 1.89478 0.50590 0.31285
v 1.95975 0.44660 0.36108
v 2.00786 0.69039 0.32601
v 2.08269 0.64313 0.37360
v 2.16214 0.59599 0.33258
v 2.03180 0.38818 0.32476
v 2.22206 0.56185 0.19811
v 2.08414 0.34637 0.19736
v 1.95155 0.73039 0.19061
v 2.03595 0.93034 0.19493
v 2.10214 0.89129 0.34105
v 2.11211 1.13923 0.19970
v 2.19020 1.09911 0.35518
v 2.28452 1.05311 0.40347
v 2.18626 0.84680 0.38790
v 2.38274 1.00575 0.35710
v 2.27452 0.80187 0.34532
v 2.46411 0.96709 0.20092
v 2.34651 0.76674 0.19882
v 2.18959 1.35098 0.20260
v 3.04411 1.94714 0.21336
v 3.16199 2.14265 0.21888
v 3.27734 2.33875 0.22552
v 3.04971 2.20194 0.40344
v 3.15749 2.40343 0.41415
v 3.26529 2.60264 0.42746
v 3.39218 2.53526 0.23328
v 3.50731 2.73178 0.24108
v 2.41747 1.99372 0.20965
v 2.34315 1.77933 0.20742
v 2.26724 1.56441 0.20518
v 2.44011 1.73607 0.38054
v 2.35736 1.52282 0.37311
v 2.27403 1.31023 0.36528
v 2.47621 1.46732 0.43361
v 2.37981 1.26072 0.41905
v 2.60092 1.40784 0.37453
v 2.49094 1.20769 0.36685
v 2.69539 1.36145 0.20504
v 2.57954 1.16532 0.20304
v 2.81293 1.55687 0.20679
v 2.92870 1.75252 0.20935
v 2.71361 1.60704 0.38103
v 2.82538 1.80637 0.38675
v 2.93752 2.00348 0.39480
v 2.67189 1.87945 0.46103
v 2.77037 2.08521 0.47560
v 2.87242 2.28878 0.48846
v 2.60370 2.16328 0.39612
v 2.69183 2.37354 0.40541
v 2.77788 2.58424 0.41687
v 2.96959 2.49563 0.50152
v 2.86684 2.79432 0.42833
v 3.06812 2.69970 0.51577
v 2.95786 3.00229 0.44166
v 3.16856 2.90478 0.53091
v 3.37375 2.80486 0.44137
v 3.26498 3.11285 0.54405
v 3.47894 3.00924 0.45209
v 3.62288 2.92775 0.24770
v 3.58281 3.21221 0.46140
v 3.73526 3.12233 0.25141
v 2.65187 2.63539 0.22562
v 2.57455 2.42210 0.21911
v 2.49620 2.20853 0.21356
v 2.52063 1.95001 0.38794
v 2.57477 1.67288 0.44792
v 2.73172 2.84962 0.23268
v 2.81209 3.06192 0.24041
v 2.89145 3.27420 0.24823
v 3.04614 3.21116 0.45461
v 2.96645 3.48867 0.25755
v 3.13304 3.42441 0.46829
v 3.36053 3.32374 0.55646
v 3.21687 3.64046 0.47594
v 3.45880 3.53566 0.56731
v 3.69177 3.41045 0.47191
v 3.55470 3.74168 0.56933
v 3.80124 3.60180 0.47586
v 3.97127 3.50062 0.25812
v 3.84993 3.31363 0.25562
v 3.04300 3.70260 0.26214
v 3.10602 3.92870 0.26992
v 3.29439 3.85739 0.48331
v 3.18700 4.16463 0.27110
v 3.38261 4.06873 0.48133
v 3.65070 3.93322 0.56759
v 3.91174 3.78539 0.47492
v 4.09744 3.69142 0.25686
vn 0.60795 0.29492 -0.73717
vn 0.57291 0.02112 -0.81934
vn 0.14021 0.24972 -0.95811
vn 0.29567 0.52807 -0.79606
vn 0.44244 0.78602 -0.43176
vn 0.80980 0.39423 -0.43451
vn 0.88580 -0.05128 -0.46123
vn -0.14572 0.77904 -0.60980
vn -0.36531 0.61031 -0.70291
vn -0.56477 0.76173 -0.31749
vn -0.50256 0.82113 -0.27052
vn 0.19290 0.94340 -0.26980
vn 0.05055 0.73369 -0.67760
vn -0.15136 0.45203 -0.87907
vn 0.76655 -0.00543 -0.64216
vn 0.87598 -0.37295 -0.30588
vn 0.84536 -0.40990 -0.34257
vn 0.65300 -0.23692 -0.71935
vn 0.69027 0.18269 -0.70011
vn 0.87694 0.37632 -0.29893
vn 0.46467 -0.06141 -0.88335
vn 0.64256 0.08726 -0.76125
vn 0.54808 -0.18005 -0.81682
vn 0.19773 0.14209 -0.96990
vn 0.40612 0.39816 -0.82252
vn 0.60723 0.65848 -0.44460
vn 0.88511 0.11833 -0.45008
vn 0.81051 -0.36118 -0.46112
vn 0.10571 0.61394 -0.78224
vn 0.08819 0.88280 -0.46139
vn -0.16079 0.47478 -0.86529
vn -0.41882 0.76241 -0.49327
vn -0.05245 0.67520 -0.73577
vn -0.25923 0.50572 -0.82283
vn -0.49488 0.73342 -0.46602
vn -0.07559 0.89919 -0.43097
vn -0.18136 0.49530 -0.84958
vn -0.27114 0.12944 -0.95380
vn -0.19098 0.13938 -0.97165
vn 0.17339 0.58235 -0.79423
vn -0.35242 0.47715 -0.80506
vn 0.03947 0.08405 -0.99568
vn 0.02099 0.07551 -0.99692
vn -0.11400 -0.00451 -0.99347
vn -0.08145 -0.08988 -0.99262
vn -0.60172 -0.14013 -0.78632
vn -0.60027 -0.14327 -0.78686
vn -0.61735 -0.14882 -0.77249
vn -0.63625 -0.16459 -0.75372
vn -0.86016 -0.24049 -0.44977
vn -0.86643 -0.26494 -0.42322
vn -0.88339 -0.27390 -0.38027
vn -0.89964 -0.26426 -0.34757
vn -0.64365 -0.18693 -0.74214
vn -0.95904 -0.28327 -0.00004
vn -0.95827 -0.28587 -0.00011
vn -0.96107 -0.27631 -0.00003
vn -0.96971 -0.24428 0.00008
vn -0.90808 -0.22658 -0.35220
vn -0.97646 -0.21568 0.00017
vn -0.97552 -0.21991 -0.00003
vn -0.88016 -0.18965 -0.43514
vn -0.90056 -0.19210 -0.38999
vn -0.58186 -0.14849 -0.79962
vn -0.62271 -0.17211 -0.76329
vn -0.64129 -0.18808 -0.74389
vn -0.36384 -0.15991 -0.91763
vn -0.37633 -0.14904 -0.91442
vn -0.05755 0.04664 -0.99725
vn 0.41300 -0.04718 -0.90951
vn 0.67469 -0.03852 -0.73709
vn 0.54600 0.34190 -0.76484
vn 0.94396 -0.06690 -0.32320
vn 0.81132 0.49788 -0.30639
vn 0.26003 0.89685 -0.35784
vn 0.56830 0.82282 0.00201
vn -0.16909 0.98560 -0.00193
vn -0.36477 0.93109 -0.00158
vn -0.29079 0.85632 -0.42680
vn -0.52934 0.71986 -0.44899
vn -0.59045 0.80707 -0.00058
vn -0.63539 0.77219 0.00006
vn -0.58066 0.69391 -0.42582
vn -0.65067 0.75936 -0.00005
vn -0.58336 0.81222 -0.00079
vn -0.60453 0.69736 -0.38501
vn -0.40436 0.52238 -0.75075
vn -0.38776 0.48890 -0.78142
vn -0.21456 0.36168 -0.90728
vn -0.21750 0.32180 -0.92149
vn 0.34989 -0.13932 -0.92637
vn 0.39543 -0.13617 -0.90835
vn 0.58599 -0.28083 -0.76010
vn 0.54939 -0.26480 -0.79250
vn 0.50444 -0.25195 -0.82587
vn 0.79574 -0.40272 -0.45235
vn 0.78268 -0.38003 -0.49293
vn 0.77116 -0.35989 -0.52516
vn 0.45777 -0.23056 -0.85866
vn 0.78088 -0.32130 -0.53572
vn 0.45174 -0.17872 -0.87406
vn 0.80041 -0.30211 -0.51776
vn 0.48557 -0.16831 -0.85784
vn 0.81875 -0.31045 -0.48299
vn 0.52567 -0.20861 -0.82471
vn -0.06111 -0.13832 -0.98850
vn 0.56125 -0.23226 -0.79439
vn 0.32540 -0.17881 -0.92852
vn -0.41004 -0.13095 -0.90262
vn -0.63445 -0.15084 -0.75810
vn -0.61548 -0.14506 -0.77469
vn -0.89261 -0.18824 -0.40966
vn -0.87749 -0.19322 -0.43895
vn -0.86628 -0.20812 -0.45414
vn -0.97440 -0.22483 0.00006
vn -0.97138 -0.23754 0.00002
vn -0.96424 -0.26503 0.00004
vn -0.99955 -0.02991 0.00014
vn -0.89299 0.45008 0.00018
vn -0.76221 0.39144 -0.51557
vn -0.87438 -0.02550 -0.48456
vn -0.39830 0.22930 -0.88813
vn -0.52096 -0.02896 -0.85309
vn 0.07131 -0.02216 -0.99721
vn 0.01253 -0.13053 -0.99137
vn -0.00220 -0.19453 -0.98089
vn 0.48689 -0.33239 -0.80774
vn 0.52484 -0.33506 -0.78248
vn 0.60121 -0.28319 -0.74723
vn 0.38557 -0.21908 -0.89629
vn 0.76105 -0.47461 -0.44221
vn 0.83553 -0.39094 -0.38607
vn 0.83662 -0.54778 -0.00026
vn 0.89166 -0.45271 0.00019
vn 0.99438 -0.10588 -0.00019
vn 0.98975 0.14283 -0.00131
vn 0.92093 -0.38973 0.00077
vn 0.81228 -0.58327 -0.00033
vn 0.71295 -0.51206 -0.47906
vn 0.98934 0.14562 0.00172
vn 0.67073 0.74170 0.00038
vn 0.07709 0.99702 -0.00028
vn -0.49785 0.86726 -0.00022
vn 0.82150 -0.57021 0.00008
vn 0.72899 -0.49538 -0.47240
vn 0.47781 -0.31673 -0.81938
vn -0.97713 -0.21263 -0.00001
vn -0.97607 -0.21744 0.00010
vn -0.90839 -0.18784 -0.37356
vn -0.92201 -0.19405 -0.33502
vn -0.97641 -0.21594 -0.00013
vn -0.65092 -0.15933 -0.74224
vn -0.66052 -0.16672 -0.73206
vn -0.65123 -0.18964 -0.73480
vn -0.92385 -0.22859 -0.30700
vn -0.96967 -0.24441 -0.00002
vn -0.86945 -0.38592 -0.30843
vn -0.91548 -0.40235 0.00005
vn 0.90422 -0.42707 0.00061
vn 0.88314 -0.46910 -0.00006
vn 0.80451 -0.43483 -0.40459
vn 0.92662 -0.37601 0.00101
vn 0.91605 0.40106 0.00034
vn 0.20223 0.97934 -0.00034
vn -0.49981 0.86614 -0.00135
vn 0.89747 -0.44107 -0.00009
vn 0.90633 -0.42257 0.00010
vn 0.91193 -0.41034 0.00002
vn 0.86549 -0.36053 -0.34776
vn 0.92925 -0.36944 0.00003
vn 0.92965 -0.36844 -0.00011
vn 0.93443 -0.35616 0.00005
vn 0.83969 -0.31017 -0.44577
vn 0.94510 -0.32678 0.00052
vn 0.86728 -0.28889 -0.40543
vn 0.59837 -0.22537 -0.76887
vn 0.90694 -0.22560 -0.35576
vn 0.64525 -0.17889 -0.74273
vn 0.39745 -0.15175 -0.90499
vn 0.35935 -0.18243 -0.91520
vn -0.40898 -0.14226 -0.90139
vn -0.39258 -0.14533 -0.90816
vn 0.69583 -0.04232 -0.71695
vn 0.44087 -0.05585 -0.89583
vn -0.35725 -0.14643 -0.92246
vn 0.68935 0.21792 -0.69088
vn 0.45436 0.13670 -0.88027
vn -0.30124 -0.16633 -0.93893
vn -0.21089 -0.22855 -0.95041
vn -0.80254 -0.36019 -0.47560
vn -0.59131 -0.61820 -0.51786
vn -0.65508 -0.67991 -0.32954
vn -0.23832 -0.81205 -0.53270
vn -0.26607 -0.90340 -0.33627
vn -0.28331 -0.95903 -0.00002
vn -0.69612 -0.71793 -0.00001
vn 0.96605 -0.25836 0.00013
vn 0.99744 -0.07157 -0.00005
vn 0.95041 -0.04827 -0.30723
vn 0.96119 0.27590 0.00024
vn 0.91968 0.28007 -0.27523
vn 0.72262 0.69125 0.00003
vn 0.69450 0.66929 -0.26404
vn 0.53141 0.51912 -0.66941
vn 0.27650 0.92448 -0.26247
vn 0.21677 0.71652 -0.66303
vn 0.15277 0.49967 -0.85264
vn 0.36408 0.35903 -0.85938
vn -0.15416 0.72529 -0.67096
vn -0.10057 0.49465 -0.86326
vn -0.08269 -0.29507 -0.95189
vn 0.05534 -0.31010 -0.94909
vn 0.17804 -0.27864 -0.94375
vn 0.14598 -0.83671 -0.52783
vn 0.48785 -0.70967 -0.50829
vn 0.53689 -0.77858 -0.32490
vn 0.16145 -0.92879 -0.33358
vn 0.56874 -0.82252 0.00000
vn 0.17072 -0.98532 0.00003
vn 0.28530 0.95844 -0.00004
vn -0.21841 0.97586 -0.00003
vn -0.20816 0.94235 -0.26201
vn -0.61790 0.78626 -0.00014
vn -0.58778 0.76387 -0.26650
vn -0.44090 0.58453 -0.68112
vn -0.78217 0.55460 -0.28396
vn -0.59200 0.41771 -0.68925
vn -0.40128 0.26753 -0.87601
vn -0.29380 0.38747 -0.87381
vn -0.65091 0.30064 -0.69709
vn -0.43851 0.18136 -0.88024
vn 0.26912 -0.24665 -0.93099
vn 0.31622 -0.23551 -0.91899
vn 0.56731 -0.37332 -0.73402
vn 0.69059 -0.54594 -0.47437
vn 0.80459 -0.50558 -0.31149
vn 0.74668 -0.58871 -0.30966
vn 0.84439 -0.53574 0.00005
vn 0.78598 -0.61825 0.00003
vn -0.82194 0.56957 -0.00000
vn -0.90401 0.42751 0.00008
vn -0.85928 0.41255 -0.30240
vn -0.93505 0.35451 -0.00005
vn -0.88378 0.34113 -0.32025
vn -0.65816 0.24233 -0.71281
vn -0.88558 0.31770 -0.33885
vn -0.64825 0.22127 -0.72857
vn -0.41208 0.12066 -0.90312
vn -0.42889 0.13705 -0.89290
vn 0.32728 -0.22949 -0.91664
vn 0.32693 -0.22251 -0.91848
vn 0.56807 -0.34674 -0.74637
vn 0.57326 -0.35699 -0.73752
vn 0.80881 -0.47615 -0.34511
vn 0.81069 -0.48542 -0.32734
vn 0.85877 -0.51236 0.00001
vn 0.85455 -0.51936 -0.00001
vn -0.94310 0.33251 -0.00001
vn -0.94252 0.33415 0.00002
vn -0.88048 0.31555 -0.35381
vn 0.85291 -0.52205 -0.00001
vn 0.85315 -0.52167 -0.00001
vn 0.78032 -0.47602 -0.40558
vn 0.77647 -0.47256 -0.41686
vn 0.77222 -0.46737 -0.43040
vn 0.85461 -0.51928 -0.00000
vn 0.53783 -0.33685 -0.77283
vn 0.52791 -0.33233 -0.78158
vn 0.51620 -0.33225 -0.78940
vn 0.76588 -0.46608 -0.44295
vn 0.85424 -0.51989 0.00001
vn 0.76079 -0.46114 -0.45668
vn 0.85317 -0.52163 0.00002
vn -0.94549 0.32565 -0.00001
vn -0.94452 0.32845 0.00001
vn -0.87127 0.30500 -0.38452
vn -0.87542 0.30432 -0.37554
vn -0.87735 0.31107 -0.36537
vn -0.94377 0.33060 -0.00000
vn -0.62839 0.21263 -0.74828
vn -0.63453 0.21801 -0.74152
vn -0.63989 0.21879 -0.73666
vn -0.40127 0.12503 -0.90739
vn -0.40449 0.12125 -0.90647
vn 0.32852 -0.21854 -0.91886
vn 0.33127 -0.21914 -0.91773
vn 0.55717 -0.34224 -0.75659
vn 0.56259 -0.34221 -0.75258
vn 0.79515 -0.47715 -0.37425
vn 0.80283 -0.47465 -0.36080
vn 0.85505 -0.51854 -0.00002
vn 0.85809 -0.51351 -0.00001
vn 0.85495 -0.51871 -0.00001
vn 0.79055 -0.47545 -0.38599
vn 0.78667 -0.47337 -0.39632
vn 0.85566 -0.51754 0.00000
vn 0.55439 -0.33988 -0.75969
vn 0.55032 -0.33971 -0.76272
vn 0.54340 -0.34283 -0.76628
vn 0.33633 -0.22137 -0.91536
vn 0.33230 -0.22559 -0.91580
vn 0.32919 -0.22156 -0.91790
vn -0.37011 0.11448 -0.92191
vn -0.37914 0.11954 -0.91759
vn -0.61060 0.21236 -0.76293
vn -0.59938 0.20632 -0.77342
vn -0.58805 0.19826 -0.78415
vn -0.36227 0.10563 -0.92607
vn 0.31981 -0.22019 -0.92154
vn -0.57600 0.19590 -0.79363
vn -0.35526 0.10197 -0.92919
vn 0.30702 -0.22176 -0.92550
vn -0.56590 0.18944 -0.80242
vn -0.34904 0.09705 -0.93207
vn 0.30326 -0.21184 -0.92906
vn 0.51042 -0.32162 -0.79752
vn 0.30408 -0.19905 -0.93162
vn 0.50564 -0.30610 -0.80661
vn 0.75630 -0.45104 -0.47389
vn 0.49408 -0.30313 -0.81486
vn 0.74662 -0.45012 -0.48985
vn 0.85352 -0.52105 -0.00000
vn 0.85471 -0.51910 0.00002
vn -0.94450 0.32851 -0.00001
vn -0.94446 0.32862 -0.00000
vn -0.85055 0.30014 -0.43183
vn -0.85814 0.30361 -0.41404
vn -0.86433 0.30879 -0.39697
vn -0.94329 0.33197 0.00000
vn -0.62103 0.20974 -0.75520
vn -0.38830 0.11911 -0.91380
vn -0.39563 0.12347 -0.91007
vn 0.33596 -0.21885 -0.91610
vn -0.94269 0.33367 0.00000
vn -0.84074 0.30196 -0.44941
vn -0.94226 0.33488 0.00001
vn -0.83322 0.29847 -0.46547
vn -0.94569 0.32507 0.00000
vn -0.83050 0.28564 -0.47821
vn -0.55684 0.17781 -0.81136
vn -0.82637 0.28052 -0.48828
vn -0.54463 0.17437 -0.82035
vn -0.01602 -0.05571 -0.99832
vn -0.34022 0.09044 -0.93599
vn -0.52923 0.16773 -0.83173
vn -0.01002 -0.04283 -0.99903
vn 0.48054 -0.29802 -0.82478
vn 0.00175 -0.02065 -0.99979
vn 0.46771 -0.28179 -0.83776
vn 0.73009 -0.45980 -0.50553
vn 0.73290 -0.45995 -0.50130
vn 0.84516 -0.53452 0.00034
vn 0.84453 -0.53551 -0.00002
vn -0.94694 0.32142 -0.00000
vn -0.95413 0.29940 -0.00002
vn -0.82795 0.26060 -0.49658
vn -0.95037 0.31112 -0.00038
vn -0.82105 0.27042 -0.50274
vn -0.49827 0.17667 -0.84883
vn -0.73652 0.45156 -0.50362
vn -0.41619 0.29639 -0.85962
vn 0.04487 0.06561 -0.99684
vn 0.49493 -0.19762 -0.84616
vn 0.79216 -0.35502 -0.49643
vn 0.99949 -0.03200 -0.00197
vn 0.91605 -0.40107 -0.00089
vn -0.85536 0.51804 0.00001
vn -0.55499 0.83186 0.00092
vn -0.07406 0.99725 0.00076
vn 0.49038 0.87151 0.00004
vn 0.89054 0.45491 -0.00089
vn 0.29603 0.52819 0.79585
vn 0.14353 0.25466 0.95632
vn 0.57184 0.02744 0.81991
vn 0.60455 0.29878 0.73841
vn 0.80613 0.39670 0.43906
vn 0.44097 0.78400 0.43691
vn 0.88463 -0.04717 0.46391
vn -0.16340 0.94199 0.29317
vn -0.55927 0.76440 0.32078
vn -0.35925 0.61229 0.70430
vn -0.14121 0.77793 0.61228
vn 0.04466 0.73485 0.67676
vn 0.18947 0.94339 0.27224
vn -0.15295 0.45502 0.87725
vn 0.65487 -0.23300 0.71893
vn 0.84594 -0.40618 0.34555
vn 0.87713 -0.36495 0.31216
vn 0.76661 -0.00258 0.64210
vn 0.87718 0.37460 0.30039
vn 0.69367 0.17932 0.69761
vn 0.46927 -0.06314 0.88080
vn 0.40685 0.39732 0.82256
vn 0.20449 0.14963 0.96737
vn 0.54958 -0.17545 0.81681
vn 0.64083 0.08645 0.76280
vn 0.88116 0.11760 0.45796
vn 0.60581 0.65313 0.45433
vn 0.80972 -0.35762 0.46526
vn 0.08536 0.88101 0.46533
vn 0.10360 0.61778 0.77950
vn -0.15709 0.48061 0.86275
vn -0.41811 0.76206 0.49442
vn -0.25345 0.50711 0.82378
vn -0.04836 0.67318 0.73790
vn -0.07239 0.89642 0.43725
vn -0.48946 0.73377 0.47118
vn 0.17540 0.58144 0.79446
vn -0.19587 0.14798 0.96940
vn -0.27383 0.13260 0.95259
vn -0.17641 0.48954 0.85395
vn 0.01935 0.07362 0.99710
vn 0.03978 0.08412 0.99566
vn -0.35161 0.47933 0.80412
vn -0.11248 -0.00868 0.99362
vn -0.59914 -0.14253 0.78785
vn -0.60164 -0.13986 0.78642
vn -0.07959 -0.09472 0.99232
vn -0.61576 -0.15040 0.77345
vn -0.63550 -0.16547 0.75416
vn -0.86628 -0.26500 0.42347
vn -0.86042 -0.23956 0.44976
vn -0.88306 -0.27444 0.38064
vn -0.64385 -0.18612 0.74217
vn -0.89975 -0.26378 0.34766
vn -0.90775 -0.22759 0.35240
vn -0.90040 -0.19165 0.39058
vn -0.87984 -0.18998 0.43564
vn -0.62265 -0.17081 0.76363
vn -0.58109 -0.15088 0.79973
vn -0.64117 -0.18859 0.74387
vn -0.37667 -0.14888 0.91430
vn -0.36432 -0.15810 0.91776
vn -0.05818 0.05076 0.99701
vn 0.54690 0.35020 0.76044
vn 0.67399 -0.03761 0.73779
vn 0.41100 -0.04847 0.91035
vn 0.81154 0.50067 0.30121
vn 0.94419 -0.06406 0.32310
vn 0.26659 0.89108 0.36730
vn -0.28653 0.85114 0.43984
vn -0.52949 0.72094 0.44709
vn -0.58114 0.69374 0.42545
vn -0.60390 0.69780 0.38521
vn -0.40422 0.52222 0.75093
vn -0.38812 0.48925 0.78102
vn -0.21738 0.32221 0.92137
vn -0.21431 0.36186 0.90726
vn 0.54865 -0.26541 0.79281
vn 0.58607 -0.28074 0.76007
vn 0.39541 -0.13662 0.90829
vn 0.35103 -0.13876 0.92603
vn 0.50368 -0.25279 0.82608
vn 0.78235 -0.38051 0.49310
vn 0.79492 -0.40352 0.45307
vn 0.45459 -0.23213 0.85992
vn 0.77164 -0.35923 0.52491
vn 0.45041 -0.18260 0.87395
vn 0.78109 -0.32048 0.53590
vn 0.48656 -0.17188 0.85657
vn 0.80049 -0.30093 0.51832
vn 0.52571 -0.20710 0.82507
vn 0.81883 -0.30906 0.48374
vn -0.06095 -0.13882 0.98844
vn 0.32537 -0.17558 0.92914
vn 0.56141 -0.23018 0.79488
vn -0.61556 -0.14453 0.77472
vn -0.63439 -0.15050 0.75822
vn -0.41000 -0.13056 0.90269
vn -0.87756 -0.19262 0.43907
vn -0.89263 -0.18773 0.40985
vn -0.86638 -0.20831 0.45386
vn -0.87489 -0.02645 0.48360
vn -0.76232 0.39157 0.51531
vn -0.52201 -0.03180 0.85234
vn -0.39783 0.22964 0.88825
vn 0.01254 -0.13357 0.99096
vn 0.07206 -0.02234 0.99715
vn -0.00252 -0.19443 0.98091
vn 0.52487 -0.33669 0.78176
vn 0.48691 -0.33394 0.80710
vn 0.38533 -0.21536 0.89730
vn 0.60113 -0.28216 0.74768
vn 0.83550 -0.39123 0.38583
vn 0.76051 -0.47753 0.43999
vn 0.71269 -0.51284 0.47860
vn 0.72893 -0.49562 0.47226
vn 0.47747 -0.31745 0.81930
vn -0.90846 -0.18782 0.37339
vn -0.92199 -0.19409 0.33505
vn -0.66008 -0.16747 0.73229
vn -0.65099 -0.15958 0.74212
vn -0.92385 -0.22881 0.30685
vn -0.65038 -0.19070 0.73528
vn -0.86945 -0.38554 0.30889
vn 0.80439 -0.43506 0.40458
vn 0.86543 -0.36063 0.34782
vn 0.83981 -0.30967 0.44589
vn 0.86745 -0.28747 0.40606
vn 0.59837 -0.22500 0.76898
vn 0.64450 -0.17693 0.74385
vn 0.90690 -0.22358 0.35714
vn 0.35939 -0.18243 0.91518
vn 0.39687 -0.15210 0.90518
vn -0.39180 -0.14690 0.90825
vn -0.40885 -0.14277 0.90137
vn 0.43784 -0.05464 0.89739
vn 0.69489 -0.04151 0.71792
vn -0.35516 -0.14760 0.92308
vn 0.44944 0.13541 0.88299
vn 0.68883 0.21660 0.69181
vn -0.30091 -0.16711 0.93890
vn -0.21203 -0.22921 0.95000
vn -0.65494 -0.67975 0.33015
vn -0.59084 -0.61771 0.51898
vn -0.80244 -0.35939 0.47636
vn -0.26608 -0.90342 0.33621
vn -0.17006 -0.58684 0.79164
vn 0.95049 -0.04846 0.30694
vn 0.92032 0.27937 0.27378
vn 0.69476 0.66925 0.26345
vn 0.53096 0.51897 0.66989
vn 0.21691 0.71719 0.66226
vn 0.27651 0.92447 0.26248
vn 0.36191 0.35821 0.86064
vn 0.15320 0.50143 0.85153
vn -0.10156 0.49771 0.86138
vn -0.15436 0.72615 0.66998
vn 0.10666 -0.60767 0.78700
vn 0.05535 -0.31053 0.94895
vn -0.08267 -0.29546 0.95177
vn 0.17706 -0.27771 0.94421
vn 0.16144 -0.92876 0.33368
vn 0.53673 -0.77844 0.32549
vn 0.48742 -0.70921 0.50935
vn -0.20801 0.94223 0.26255
vn -0.58803 0.76370 0.26643
vn -0.44128 0.58512 0.68037
vn -0.59259 0.41776 0.68871
vn -0.78246 0.55454 0.28328
vn -0.29463 0.38921 0.87276
vn -0.40140 0.26751 0.87597
vn -0.43919 0.18142 0.87989
vn -0.65125 0.30070 0.69675
vn 0.51049 -0.42134 0.74958
vn 0.56780 -0.37319 0.73371
vn 0.31690 -0.23570 0.91871
vn 0.26875 -0.24596 0.93128
vn 0.74657 -0.58856 0.31021
vn 0.80473 -0.50538 0.31144
vn -0.85922 0.41267 0.30239
vn -0.88388 0.34093 0.32019
vn -0.65828 0.24228 0.71272
vn -0.64828 0.22122 0.72855
vn -0.88568 0.31749 0.33876
vn -0.42906 0.13717 0.89280
vn -0.41188 0.12088 0.90318
vn 0.57335 -0.35696 0.73746
vn 0.56802 -0.34680 0.74638
vn 0.32692 -0.22252 0.91848
vn 0.32734 -0.22948 0.91661
vn 0.81072 -0.48540 0.32728
vn 0.80877 -0.47620 0.34513
vn -0.88045 0.31561 0.35383
vn 0.77641 -0.47268 0.41684
vn 0.78028 -0.47610 0.40558
vn 0.77219 -0.46743 0.43038
vn 0.52782 -0.33252 0.78156
vn 0.53773 -0.33705 0.77282
vn 0.76593 -0.46596 0.44297
vn 0.51620 -0.33224 0.78940
vn 0.76079 -0.46113 0.45667
vn -0.87538 0.30442 0.37556
vn -0.87124 0.30506 0.38454
vn -0.87733 0.31111 0.36537
vn -0.63449 0.21810 0.74152
vn -0.62835 0.21269 0.74829
vn -0.63990 0.21878 0.73666
vn -0.40450 0.12123 0.90647
vn -0.40122 0.12515 0.90739
vn 0.56263 -0.34216 0.75258
vn 0.55714 -0.34229 0.75659
vn 0.33124 -0.21920 0.91773
vn 0.32855 -0.21848 0.91887
vn 0.80284 -0.47463 0.36079
vn 0.79513 -0.47720 0.37424
vn 0.79056 -0.47543 0.38598
vn 0.78666 -0.47340 0.39631
vn 0.55030 -0.33975 0.76272
vn 0.55437 -0.33992 0.75969
vn 0.54338 -0.34287 0.76628
vn 0.33230 -0.22561 0.91580
vn 0.33632 -0.22140 0.91535
vn 0.32914 -0.22166 0.91790
vn -0.59927 0.20659 0.77343
vn -0.61049 0.21263 0.76295
vn -0.37901 0.11984 0.91760
vn -0.37010 0.11454 0.92190
vn -0.36237 0.10541 0.92605
vn -0.58802 0.19836 0.78415
vn 0.31968 -0.22045 0.92152
vn -0.35532 0.10182 0.92918
vn -0.57594 0.19609 0.79362
vn 0.30691 -0.22196 0.92549
vn -0.34915 0.09691 0.93204
vn -0.56586 0.18959 0.80241
vn 0.51037 -0.32174 0.79750
vn 0.30325 -0.21186 0.92906
vn 0.50563 -0.30611 0.80662
vn 0.30412 -0.19895 0.93163
vn 0.75626 -0.45109 0.47390
vn 0.74668 -0.44998 0.48989
vn 0.49412 -0.30310 0.81485
vn -0.85805 0.30384 0.41405
vn -0.85049 0.30032 0.43183
vn -0.86429 0.30888 0.39698
vn -0.62105 0.20968 0.75520
vn -0.38837 0.11896 0.91379
vn -0.39568 0.12336 0.91006
vn 0.33591 -0.21894 0.91609
vn -0.84071 0.30205 0.44941
vn -0.83318 0.29857 0.46548
vn -0.83055 0.28555 0.47817
vn -0.55688 0.17781 0.81134
vn -0.54473 0.17423 0.82031
vn -0.82645 0.28039 0.48822
vn -0.34020 0.09049 0.93599
vn -0.01602 -0.05586 0.99831
vn -0.01012 -0.04320 0.99902
vn -0.52940 0.16752 0.83167
vn 0.48049 -0.29798 0.82483
vn 0.46793 -0.28149 0.83774
vn 0.00173 -0.02047 0.99979
vn 0.73286 -0.46000 0.50133
vn 0.73005 -0.45967 0.50570
vn -0.82792 0.26093 0.49645
vn -0.82104 0.27048 0.50273
vn -0.49812 0.17636 0.84898
vn -0.41595 0.29616 0.85981
vn -0.73624 0.45149 0.50409
vn 0.04496 0.06605 0.99680
vn 0.49542 -0.19760 0.84588
vn 0.79260 -0.35567 0.49526
f 1//1 9//2 10//3 11//4
f 1//1 11//4 12//5 13//6
f 1//1 13//6 14//7 9//2
f 2//8 15//9 16//10 17//11
f 2//8 17//12 18//12 19//13
f 2//8 19//13 20//14 15//9
f 3//15 21//16 22//17 23//18
f 3//15 19//19 18//20 21//20
f 3//15 23//18 20//21 19//19
f 4//22 24//23 25//24 26//25
f 4//22 26//25 27//26 28//27
f 4//22 28//27 29//28 24//23
f 5//29 30//30 27//26 26//25
f 5//29 26//25 25//24 31//31
f 5//29 31//31 32//32 30//30
f 6//33 11//4 10//3 33//34
f 6//33 33//34 34//35 35//36
f 6//33 35//36 12//5 11//4
f 7//37 36//38 37//39 38//40
f 7//37 39//41 40//42 41//43
f 7//37 41//43 8//44 36//38
f 8//44 42//45 43//46 44//47
f 8//44 44//47 45//48 36//38
f 45//48 46//49 37//39 36//38
f 45//48 44//47 47//50 48//51
f 45//48 48//51 49//52 46//49
f 49//52 50//53 51//54 46//49
f 49//52 48//51 294//55 295//56
f 49//52 295//56 52//57 50//53
f 52//57 53//58 54//59 50//53
f 55//60 56//61 57//62 58//63
f 55//60 58//63 54//59 53//58
f 58//63 57//62 59//64 60//65
f 58//63 60//65 61//66 54//59
f 61//66 60//65 62//67 63//68
f 61//66 63//68 64//69 51//54
f 61//66 51//54 50//53 54//59
f 64//69 63//70 65//71 66//72
f 64//69 66//72 38//40 37//39
f 64//69 37//39 46//49 51//54
f 66//72 65//71 67//73 68//74
f 66//72 68//74 69//75 38//40
f 69//75 68//74 296//76 70//76
f 69//75 70//77 71//78 72//79
f 69//75 72//79 7//37 38//40
f 72//79 73//80 39//41 7//37
f 72//79 71//78 297//81 73//80
f 297//81 74//82 75//83 73//80
f 76//84 298//85 16//10 77//86
f 76//84 77//86 75//83 74//82
f 77//86 16//10 15//9 78//87
f 77//86 78//87 79//88 75//83
f 79//88 78//87 80//89 81//90
f 79//88 81//90 40//42 39//41
f 79//88 39//41 73//80 75//83
f 81//91 80//92 82//93 83//94
f 81//91 83//94 84//95 40//42
f 84//95 83//94 85//96 86//97
f 84//95 86//97 87//98 88//99
f 84//95 88//99 41//43 40//42
f 88//99 87//98 89//100 90//101
f 88//99 90//101 8//44 41//43
f 90//101 89//100 91//102 92//103
f 90//101 92//103 42//45 8//44
f 92//103 91//102 93//104 94//105
f 92//103 94//105 95//106 42//45
f 95//106 94//105 96//107 97//108
f 95//106 97//109 98//110 99//111
f 95//106 99//111 43//46 42//45
f 99//111 98//110 100//112 101//113
f 99//111 101//113 102//114 43//46
f 102//114 47//50 44//47 43//46
f 102//114 101//113 299//115 103//116
f 102//114 103//116 300//117 47//50
f 300//117 294//55 48//51 47//50
f 105//118 104//119 106//120 107//121
f 105//118 107//121 57//62 56//61
f 107//121 106//120 108//122 109//123
f 107//121 109//123 59//64 57//62
f 109//123 108//122 110//124 111//125
f 109//123 111//125 112//126 59//64
f 112//126 111//125 113//127 114//128
f 112//126 114//128 115//129 62//130
f 112//126 62//67 60//65 59//64
f 115//129 114//128 116//131 117//132
f 115//129 117//132 67//73 65//71
f 115//129 65//71 63//70 62//130
f 117//132 116//131 301//133 302//134
f 117//132 302//134 118//135 67//73
f 118//135 296//136 68//74 67//73
f 119//137 303//138 120//139 29//28
f 119//137 29//28 28//27 121//140
f 121//140 28//27 27//26 122//141
f 122//141 27//26 30//30 123//142
f 123//142 30//30 32//32 124//143
f 124//143 32//32 106//120 104//119
f 120//139 303//138 304//144 125//145
f 120//139 125//145 113//127 126//146
f 120//139 126//146 24//23 29//28
f 126//146 113//127 111//125 110//124
f 126//146 110//124 25//24 24//23
f 125//145 304//144 301//133 116//131
f 125//145 116//131 114//128 113//127
f 110//124 108//122 31//31 25//24
f 108//122 106//120 32//32 31//31
f 127//147 305//148 100//112 129//149
f 127//147 129//149 130//150 128//151
f 130//150 129//149 131//152 132//153
f 130//150 132//153 133//154 134//155
f 130//150 134//155 135//156 128//151
f 135//156 134//155 136//157 137//158
f 139//159 138//160 140//161 22//17
f 139//159 22//17 21//16 141//162
f 141//163 21//20 18//20 307//163
f 307//164 18//12 17//12 308//164
f 308//165 17//11 16//10 298//85
f 140//161 138//160 306//166 85//96
f 140//161 85//96 83//94 82//93
f 140//161 82//93 23//18 22//17
f 306//166 309//167 86//97 85//96
f 309//167 142//168 87//98 86//97
f 142//168 143//169 89//100 87//98
f 143//169 310//170 91//102 89//100
f 310//170 144//171 93//104 91//102
f 144//171 145//172 146//173 93//104
f 146//173 145//172 311//174 147//175
f 146//173 147//175 148//176 96//107
f 146//173 96//107 94//105 93//104
f 148//176 147//175 149//177 150//178
f 148//176 150//178 151//179 152//180
f 148//176 152//180 97//108 96//107
f 152//181 151//182 132//153 131//152
f 152//181 131//152 98//110 97//109
f 151//179 150//178 153//183 154//184
f 151//182 154//185 133//154 132//153
f 154//184 153//183 155//186 156//187
f 154//185 156//188 157//188 133//154
f 157//188 156//188 158//189 159//189
f 157//190 159//191 160//192 136//157
f 157//190 136//157 134//155 133//154
f 160//192 159//191 161//193 162//194
f 160//192 162//194 312//195 313//196
f 160//192 313//196 137//158 136//157
f 163//197 314//198 164//199 149//177
f 163//197 149//177 147//175 311//174
f 164//199 314//198 315//200 165//201
f 164//199 165//201 155//186 153//183
f 164//199 153//183 150//178 149//177
f 165//201 315//200 316//202 166//203
f 165//201 166//203 167//204 155//186
f 167//204 166//203 168//205 169//206
f 167//204 169//206 170//207 158//208
f 167//204 158//208 156//187 155//186
f 170//207 169//206 171//209 172//210
f 170//211 172//212 173//212 161//211
f 170//211 161//211 159//189 158//189
f 173//212 172//212 174//213 175//213
f 173//214 175//215 176//216 177//217
f 173//214 177//217 162//194 161//193
f 177//217 176//216 317//218 178//219
f 177//217 178//219 312//195 162//194
f 319//220 318//221 179//222 168//205
f 319//220 168//205 166//203 316//202
f 179//222 318//221 180//223 181//224
f 179//222 181//224 182//225 171//209
f 179//222 171//209 169//206 168//205
f 182//225 181//224 183//226 184//227
f 182//225 184//227 185//228 174//229
f 182//225 174//229 172//210 171//209
f 185//228 184//227 186//230 187//231
f 185//232 187//233 188//234 189//232
f 185//232 189//232 175//213 174//213
f 189//235 188//234 190//236 191//237
f 189//235 191//237 176//216 175//215
f 191//237 190//236 320//238 321//239
f 191//237 321//239 317//218 176//216
f 322//240 323//241 192//242 183//226
f 322//240 183//226 181//224 180//223
f 192//242 323//241 193//243 194//244
f 192//242 194//244 195//245 186//230
f 192//242 186//230 184//227 183//226
f 195//245 194//244 196//246 197//247
f 195//245 197//247 198//248 199//249
f 195//245 199//249 187//231 186//230
f 199//250 198//251 200//252 201//253
f 199//250 201//253 188//234 187//233
f 201//253 200//252 202//254 203//255
f 201//253 203//255 190//236 188//234
f 203//255 202//254 204//256 324//257
f 203//255 324//257 320//238 190//236
f 205//258 325//259 206//260 196//246
f 205//258 196//246 194//244 193//243
f 326//261 327//262 209//263 210//264
f 326//261 210//264 211//265 208//266
f 211//265 210//264 212//267 213//268
f 211//265 213//268 214//269 215//270
f 211//265 215//270 216//271 208//266
f 216//271 215//270 217//272 218//273
f 219//274 328//275 220//276 221//277
f 219//274 221//277 222//278 207//279
f 222//278 206//260 325//259 207//279
f 222//278 221//277 223//280 224//281
f 222//278 224//281 225//282 206//260
f 225//282 197//247 196//246 206//260
f 225//282 224//281 226//283 227//284
f 225//282 227//284 198//248 197//247
f 227//285 226//286 228//287 229//288
f 227//285 229//288 200//252 198//251
f 229//288 228//287 230//289 231//290
f 229//288 231//290 202//254 200//252
f 231//290 230//289 232//291 233//292
f 231//290 233//292 204//256 202//254
f 234//293 232//291 230//289 235//294
f 234//293 235//294 236//295 329//296
f 236//295 235//294 237//297 238//298
f 236//295 238//298 239//299 209//263
f 236//295 209//263 327//262 329//296
f 239//299 238//298 240//300 241//301
f 239//299 241//301 242//302 212//267
f 239//299 212//267 210//264 209//263
f 242//303 241//304 243//305 244//306
f 242//303 244//306 245//307 246//308
f 242//302 246//309 213//268 212//267
f 246//308 245//307 247//310 248//311
f 246//309 248//312 214//269 213//268
f 248//311 247//310 249//313 250//314
f 248//312 250//315 251//316 214//269
f 251//316 250//315 252//317 253//318
f 251//316 253//318 254//319 217//272
f 251//316 217//272 215//270 214//269
f 254//319 253//318 255//320 256//321
f 254//319 256//321 330//322 331//323
f 254//319 331//323 218//273 217//272
f 332//324 258//325 259//326 260//327
f 332//324 260//327 261//328 333//329
f 261//328 220//276 328//275 333//329
f 261//328 260//327 244//306 243//305
f 261//328 243//305 262//330 220//276
f 262//330 223//280 221//277 220//276
f 262//330 243//305 241//304 240//331
f 262//330 240//331 263//332 223//280
f 263//332 226//283 224//281 223//280
f 263//333 240//300 238//298 237//297
f 263//333 237//297 228//287 226//286
f 260//327 259//326 245//307 244//306
f 259//326 258//325 257//334 264//335
f 259//326 264//335 247//310 245//307
f 264//335 257//334 265//336 266//337
f 264//335 266//337 249//313 247//310
f 266//337 265//336 267//338 268//339
f 266//337 268//339 269//340 249//313
f 269//340 268//339 270//341 271//342
f 269//340 271//342 272//343 252//344
f 269//340 252//344 250//314 249//313
f 272//343 271//342 273//345 274//346
f 272//343 274//346 275//347 255//320
f 272//343 255//320 253//318 252//317
f 275//347 274//346 276//348 277//349
f 275//347 277//349 278//350 279//351
f 275//347 279//351 256//321 255//320
f 279//351 278//350 334//352 335//353
f 279//351 335//353 330//322 256//321
f 337//354 336//355 280//356 270//341
f 337//354 270//341 268//339 267//338
f 280//356 336//355 281//357 282//358
f 280//356 282//358 283//359 273//345
f 280//356 273//345 271//342 270//341
f 283//359 282//358 284//360 285//361
f 283//359 285//361 286//362 276//348
f 283//359 276//348 274//346 273//345
f 286//362 285//361 33//34 10//3
f 286//362 10//3 9//2 287//363
f 286//362 287//363 277//349 276//348
f 287//363 9//2 14//7 288//364
f 287//363 288//364 278//350 277//349
f 288//364 14//7 338//365 339//366
f 288//364 339//366 334//352 278//350
f 289//367 290//368 34//35 284//360
f 289//367 284//360 282//358 281//357
f 290//368 291//369 35//36 34//35
f 291//369 292//370 12//5 35//36
f 292//370 293//371 13//6 12//5
f 293//371 338//365 14//7 13//6
f 285//361 284//360 34//35 33//34
f 237//297 235//294 230//289 228//287
f 131//152 129//149 100//112 98//110
f 305//148 299//115 101//113 100//112
f 82//93 80//92 20//21 23//18
f 80//89 78//87 15//9 20//14
f 350//372 349//373 348//374 340//375
f 352//376 351//377 350//372 340//375
f 348//374 353//378 352//376 340//375
f 356//379 355//380 354//381 341//382
f 358//383 357//384 356//379 341//382
f 354//381 359//385 358//383 341//382
f 362//386 361//387 360//388 342//389
f 360//390 357//390 358//391 342//389
f 358//391 359//392 362//386 342//389
f 365//393 364//394 363//395 343//396
f 367//397 366//398 365//393 343//396
f 363//395 368//399 367//397 343//396
f 365//393 366//398 369//400 344//401
f 370//402 364//394 365//393 344//401
f 369//400 371//403 370//402 344//401
f 372//404 349//373 350//372 345//405
f 374//406 373//407 372//404 345//405
f 350//372 351//377 374//406 345//405
f 377//408 376//409 375//410 346//411
f 380//412 379//413 378//414 346//411
f 375//410 347//415 380//412 346//411
f 383//416 382//417 381//418 347//415
f 375//410 384//419 383//416 347//415
f 375//410 376//409 385//420 384//419
f 387//421 386//422 383//416 384//419
f 385//420 388//423 387//421 384//419
f 385//420 390//424 389//425 388//423
f 295//56 294//55 387//421 388//423
f 389//425 52//57 295//56 388//423
f 389//425 391//426 53//58 52//57
f 393//427 392//428 56//61 55//60
f 53//58 391//426 393//427 55//60
f 395//429 394//430 392//428 393//427
f 391//426 396//431 395//429 393//427
f 398//432 397//433 395//429 396//431
f 390//424 399//434 398//432 396//431
f 391//426 389//425 390//424 396//431
f 401//435 400//436 398//437 399//434
f 376//409 377//408 401//435 399//434
f 390//424 385//420 376//409 399//434
f 403//438 402//439 400//436 401//435
f 377//408 404//440 403//438 401//435
f 70//76 296//76 403//438 404//440
f 405//441 71//78 70//77 404//440
f 377//408 346//411 405//441 404//440
f 346//411 378//414 406//442 405//441
f 406//442 297//81 71//78 405//441
f 406//442 407//443 74//82 297//81
f 408//444 355//380 298//85 76//84
f 74//82 407//443 408//444 76//84
f 409//445 354//381 355//380 408//444
f 407//443 410//446 409//445 408//444
f 412//447 411//448 409//445 410//446
f 378//414 379//413 412//447 410//446
f 407//443 406//442 378//414 410//446
f 414//449 413//450 411//451 412//452
f 379//413 415//453 414//449 412//452
f 417//454 416//455 414//449 415//453
f 419//456 418//457 417//454 415//453
f 379//413 380//412 419//456 415//453
f 421//458 420//459 418//457 419//456
f 380//412 347//415 421//458 419//456
f 423//460 422//461 420//459 421//458
f 347//415 381//418 423//460 421//458
f 425//462 424//463 422//461 423//460
f 381//418 426//464 425//462 423//460
f 428//465 427//466 425//462 426//464
f 430//467 429//468 428//469 426//464
f 381//418 382//417 430//467 426//464
f 432//470 431//471 429//468 430//467
f 382//417 433//472 432//470 430//467
f 382//417 383//416 386//422 433//472
f 103//116 299//115 432//470 433//472
f 386//422 300//117 103//116 433//472
f 386//422 387//421 294//55 300//117
f 435//473 434//474 104//119 105//118
f 56//61 392//428 435//473 105//118
f 437//475 436//476 434//474 435//473
f 392//428 394//430 437//475 435//473
f 439//477 438//478 436//476 437//475
f 394//430 440//479 439//477 437//475
f 442//480 441//481 439//477 440//479
f 397//482 443//483 442//480 440//479
f 394//430 395//429 397//433 440//479
f 445//484 444//485 442//480 443//483
f 400//436 402//439 445//484 443//483
f 397//482 398//437 400//436 443//483
f 302//134 301//133 444//485 445//484
f 402//439 118//135 302//134 445//484
f 402//439 403//438 296//136 118//135
f 368//399 446//486 303//138 119//137
f 121//140 367//397 368//399 119//137
f 122//141 366//398 367//397 121//140
f 123//142 369//400 366//398 122//141
f 124//143 371//403 369//400 123//142
f 104//119 434//474 371//403 124//143
f 447//487 304//144 303//138 446//486
f 448//488 441//481 447//487 446//486
f 368//399 363//395 448//488 446//486
f 438//478 439//477 441//481 448//488
f 363//395 364//394 438//478 448//488
f 444//485 301//133 304//144 447//487
f 441//481 442//480 444//485 447//487
f 364//394 370//402 436//476 438//478
f 370//402 371//403 434//474 436//476
f 449//489 431//471 305//148 127//147
f 128//151 450//490 449//489 127//147
f 452//491 451//492 449//489 450//490
f 454//493 453//494 452//491 450//490
f 128//151 135//156 454//493 450//490
f 137//158 455//495 454//493 135//156
f 361//387 456//496 138//160 139//159
f 141//162 360//388 361//387 139//159
f 307//163 357//390 360//390 141//163
f 308//164 356//379 357//384 307//164
f 298//85 355//380 356//379 308//165
f 416//455 306//166 138//160 456//496
f 413//450 414//449 416//455 456//496
f 361//387 362//386 413//450 456//496
f 416//455 417//454 309//167 306//166
f 417//454 418//457 142//168 309//167
f 418//457 420//459 143//497 142//168
f 420//459 422//461 310//170 143//497
f 422//461 424//463 144//171 310//170
f 424//463 457//498 145//172 144//171
f 458//499 311//174 145//172 457//498
f 427//466 459//500 458//499 457//498
f 424//463 425//462 427//466 457//498
f 461//501 460//502 458//499 459//500
f 463//503 462//504 461//501 459//500
f 427//466 428//465 463//503 459//500
f 451//492 452//491 462//505 463//506
f 428//469 429//468 451//492 463//506
f 465//507 464//508 461//501 462//504
f 452//491 453//494 465//509 462//505
f 467//510 466//511 464//508 465//507
f 453//494 468//512 467//512 465//509
f 470//513 469//513 467//512 468//512
f 455//495 471//514 470//515 468//516
f 453//494 454//493 455//495 468//516
f 473//517 472//518 470//515 471//514
f 313//196 312//195 473//517 471//514
f 455//495 137//158 313//196 471//514
f 460//502 474//519 314//198 163//197
f 311//174 458//499 460//502 163//197
f 475//520 315//200 314//198 474//519
f 464//508 466//511 475//520 474//519
f 460//502 461//501 464//508 474//519
f 476//521 316//202 315//200 475//520
f 466//511 477//522 476//521 475//520
f 479//523 478//524 476//521 477//522
f 469//525 480//526 479//523 477//522
f 466//511 467//510 469//525 477//522
f 482//527 481//528 479//523 480//526
f 472//518 483//529 482//530 480//531
f 469//513 470//513 472//518 480//531
f 485//532 484//532 482//530 483//529
f 487//533 486//534 485//535 483//529
f 472//518 473//517 487//533 483//529
f 178//219 317//218 486//534 487//533
f 473//517 312//195 178//219 487//533
f 478//524 488//536 318//221 319//220
f 316//202 476//521 478//524 319//220
f 489//537 180//223 318//221 488//536
f 481//528 490//538 489//537 488//536
f 478//524 479//523 481//528 488//536
f 492//539 491//540 489//537 490//538
f 484//541 493//542 492//539 490//538
f 481//528 482//527 484//541 490//538
f 495//543 494//544 492//539 493//542
f 497//545 496//546 495//547 493//548
f 484//532 485//532 497//545 493//548
f 499//549 498//550 496//546 497//545
f 485//535 486//534 499//549 497//545
f 321//239 320//238 498//550 499//549
f 486//534 317//218 321//239 499//549
f 491//540 500//551 323//241 322//240
f 180//223 489//537 491//540 322//240
f 501//552 193//243 323//241 500//551
f 494//544 502//553 501//552 500//551
f 491//540 492//539 494//544 500//551
f 504//554 503//555 501//552 502//553
f 506//556 505//557 504//554 502//553
f 494//544 495//543 506//556 502//553
f 508//558 507//559 505//560 506//561
f 495//547 496//546 508//558 506//561
f 510//562 509//563 507//559 508//558
f 496//546 498//550 510//562 508//558
f 324//257 204//256 509//563 510//562
f 498//550 320//238 324//257 510//562
f 503//555 511//564 325//259 205//258
f 193//243 501//552 503//555 205//258
f 513//565 512//566 327//262 326//261
f 208//266 514//567 513//565 326//261
f 516//568 515//569 513//565 514//567
f 518//570 517//571 516//568 514//567
f 208//266 216//271 518//570 514//567
f 218//273 519//572 518//570 216//271
f 521//573 520//574 328//275 219//274
f 207//279 522//575 521//573 219//274
f 207//279 325//259 511//564 522//575
f 524//576 523//577 521//573 522//575
f 511//564 525//578 524//576 522//575
f 511//564 503//555 504//554 525//578
f 527//579 526//580 524//576 525//578
f 504//554 505//557 527//579 525//578
f 529//581 528//582 526//583 527//584
f 505//560 507//559 529//581 527//584
f 531//585 530//586 528//582 529//581
f 507//559 509//563 531//585 529//581
f 233//292 232//291 530//586 531//585
f 509//563 204//256 233//292 531//585
f 532//587 530//586 232//291 234//293
f 329//296 533//588 532//587 234//293
f 535//589 534//590 532//587 533//588
f 512//566 536//591 535//589 533//588
f 329//296 327//262 512//566 533//588
f 538//592 537//593 535//589 536//591
f 515//569 539//594 538//592 536//591
f 512//566 513//565 515//569 536//591
f 541//595 540//596 538//597 539//598
f 543//599 542//600 541//595 539//598
f 515//569 516//568 543//601 539//594
f 545//602 544//603 542//600 543//599
f 516//568 517//571 545//604 543//601
f 547//605 546//606 544//603 545//602
f 517//571 548//607 547//608 545//604
f 550//609 549//610 547//608 548//607
f 519//572 551//611 550//609 548//607
f 517//571 518//570 519//572 548//607
f 553//612 552//613 550//609 551//611
f 331//323 330//322 553//612 551//611
f 519//572 218//273 331//323 551//611
f 555//614 554//615 258//325 332//324
f 333//329 556//616 555//614 332//324
f 333//329 328//275 520//574 556//616
f 540//596 541//595 555//614 556//616
f 520//574 557//617 540//596 556//616
f 520//574 521//573 523//577 557//617
f 537//618 538//597 540//596 557//617
f 523//577 558//619 537//618 557//617
f 523//577 524//576 526//580 558//619
f 534//590 535//589 537//593 558//620
f 526//583 528//582 534//590 558//620
f 541//595 542//600 554//615 555//614
f 559//621 257//334 258//325 554//615
f 542//600 544//603 559//621 554//615
f 560//622 265//336 257//334 559//621
f 544//603 546//606 560//622 559//621
f 561//623 267//338 265//336 560//622
f 546//606 562//624 561//623 560//622
f 564//625 563//626 561//623 562//624
f 549//627 565//628 564//625 562//624
f 546//606 547//605 549//627 562//624
f 567//629 566//630 564//625 565//628
f 552//613 568//631 567//629 565//628
f 549//610 550//609 552//613 565//628
f 570//632 569//633 567//629 568//631
f 572//634 571//635 570//632 568//631
f 552//613 553//612 572//634 568//631
f 335//353 334//352 571//635 572//634
f 553//612 330//322 335//353 572//634
f 563//626 573//636 336//355 337//354
f 267//338 561//623 563//626 337//354
f 574//637 281//357 336//355 573//636
f 566//630 575//638 574//637 573//636
f 563//626 564//625 566//630 573//636
f 577//639 576//640 574//637 575//638
f 569//633 578//641 577//639 575//638
f 566//630 567//629 569//633 575//638
f 349//373 372//404 577//639 578//641
f 579//642 348//374 349//373 578//641
f 569//633 570//632 579//642 578//641
f 580//643 353//378 348//374 579//642
f 570//632 571//635 580//643 579//642
f 339//366 338//365 353//378 580//643
f 571//635 334//352 339//366 580//643
f 576//640 373//407 290//368 289//367
f 281//357 574//637 576//640 289//367
f 373//407 374//406 291//369 290//368
f 374//406 351//377 292//370 291//369
f 351//377 352//376 293//371 292//370
f 352//376 353//378 338//365 293//371
f 372//404 373//407 576//640 577//639
f 528//582 530//586 532//587 534//590
f 429//468 431//471 449//489 451//492
f 431//471 432//470 299//115 305//148
f 362//386 359//392 411//451 413//450
f 359//385 354//381 409//445 411//448
