# pilowlava3D glyph 'v' variant 2 — Vincent Wagner / Velvetyne, Free Art License
v 0.21223 4.13671 0.40440
v 2.39368 3.47223 0.29151
v 2.12703 3.25236 0.29242
v 3.22099 4.07324 0.37420
v 3.53448 4.32978 0.40875
v 0.59442 4.35769 0.40149
v 3.31036 2.59831 0.45577
v 3.28815 2.21352 0.55767
v 0.23712 3.97551 0.44993
v 0.48216 4.11620 0.53232
v 0.38954 4.27850 0.43941
v 0.31201 4.41954 0.25761
v 0.10780 4.18731 0.25529
v 0.05867 3.93016 0.25046
v 2.53523 3.33872 0.35400
v 2.61201 3.39537 0.18290
v 2.39235 3.53306 0.16215
v 2.15416 3.48467 0.17449
v 2.22285 3.40970 0.34111
v 2.38153 3.22406 0.44560
v 2.05746 3.26132 0.16484
v 2.16150 3.02705 0.18211
v 2.23712 3.09139 0.35276
v 3.30099 3.93608 0.41620
v 3.50311 4.09118 0.50777
v 3.35463 4.22838 0.41370
v 3.24365 4.35883 0.24052
v 3.10555 4.08623 0.23528
v 3.15994 3.84798 0.23524
v 3.54486 4.47777 0.24924
v 3.72162 4.24845 0.45451
v 3.87051 4.39547 0.26594
v 0.72354 4.25481 0.44874
v 0.86885 4.37835 0.25703
v 0.61023 4.47539 0.25016
v 3.48270 2.41661 0.48896
v 3.64540 2.60290 0.41883
v 3.54997 2.69886 0.38212
v 3.05875 2.76247 0.45399
v 2.89113 2.61124 0.54488
v 3.08768 2.41382 0.55574
v 3.25899 1.92641 0.55302
v 3.49710 1.90148 0.44647
v 3.56279 2.12540 0.43805
v 3.65109 2.31142 0.40644
v 3.76187 2.53084 0.36335
v 3.70981 2.06304 0.23294
v 3.77492 2.26355 0.22226
v 3.85181 2.49115 0.20504
v 3.93292 2.74233 0.19468
v 3.85773 2.76610 0.34146
v 3.96909 2.73303 -0.00000
v 4.04285 3.00131 -0.00000
v 4.00475 3.00577 0.20003
v 4.10840 3.26893 -0.00000
v 4.17006 3.52647 -0.00000
v 4.10110 3.53388 0.23805
v 4.05643 3.27056 0.21999
v 3.96112 3.53235 0.42725
v 3.94699 3.26622 0.38629
v 3.91919 3.01385 0.35072
v 3.81818 3.25400 0.43632
v 3.81917 3.02244 0.39373
v 3.76425 2.80269 0.38488
v 3.71887 3.03055 0.34591
v 3.67496 2.84658 0.34622
v 3.63985 3.03142 0.19867
v 3.61238 2.87748 0.20378
v 3.49348 2.78622 0.21924
v 3.48952 2.81555 -0.00000
v 3.35123 2.85145 -0.00000
v 3.34047 2.79539 0.24096
v 3.14763 2.91310 0.24204
v 3.00478 3.11417 -0.00000
v 2.96721 3.06285 0.23436
v 2.82281 3.26210 -0.00000
v 2.78729 3.22255 0.21361
v 2.69812 3.14538 0.40192
v 2.86909 2.95558 0.43727
v 2.54570 3.02197 0.48661
v 2.71173 2.81949 0.51962
v 2.39058 2.89508 0.40157
v 2.53766 2.68952 0.43226
v 2.67888 2.47796 0.45819
v 2.40909 2.61380 0.23378
v 2.51608 2.40358 0.24744
v 2.62022 2.19826 0.25662
v 2.81624 2.27062 0.47510
v 2.70766 2.00157 0.26179
v 2.91901 2.08659 0.48599
v 2.78424 1.80116 0.25864
v 2.97275 1.87406 0.47391
v 2.85635 1.59670 0.24862
v 3.01976 1.64289 0.45094
v 3.25046 1.66913 0.52591
v 3.06799 1.41548 0.42162
v 3.25815 1.43167 0.49191
v 3.43982 1.43614 0.40940
v 3.46252 1.66874 0.43185
v 3.56413 1.42632 0.22509
v 3.60907 1.64609 0.23354
v 3.65616 1.85888 0.23629
v 3.72379 1.83911 -0.00000
v 4.17033 4.17070 -0.00000
v 4.23578 3.81927 -0.00000
v 4.10918 4.14076 0.27147
v 4.16579 3.81389 0.25741
v 3.90401 4.05867 0.47084
v 3.97595 3.80052 0.45914
v 3.64401 3.93109 0.53640
v 3.73262 3.74209 0.52200
v 3.78587 3.50126 0.48595
v 3.52232 3.63531 0.43272
v 3.61465 3.44803 0.41465
v 3.68904 3.23654 0.37391
v 3.48502 3.38414 0.22907
v 3.58466 3.21510 0.21254
v 3.61308 3.02523 -0.00000
v 3.10553 3.82487 -0.00000
v 3.27806 3.69086 0.23446
v 3.05896 4.10284 -0.00000
v 3.21922 4.39275 -0.00000
v 3.54938 4.52847 -0.00000
v 3.90807 4.44494 -0.00000
v 3.38829 3.54416 0.23146
v 3.42055 3.78851 0.43651
v 3.56902 1.19250 -0.00000
v 3.51439 0.96114 -0.00000
v 3.52161 1.19900 0.21460
v 3.47646 0.96267 0.20373
v 3.41681 1.20070 0.38339
v 3.39085 0.96444 0.35824
v 3.35786 0.72298 0.33593
v 3.42551 0.71450 0.19769
v 3.45464 0.71076 -0.00000
v 3.35204 0.44514 0.19705
v 3.37585 0.43700 -0.00000
v 2.24062 2.79425 -0.00000
v 2.13205 3.00740 -0.00000
v 2.28877 2.82146 0.21415
v 2.03519 3.26200 -0.00000
v 2.52969 2.16596 -0.00000
v 2.61713 1.96260 -0.00000
v 2.78380 1.56196 -0.00000
v 2.86699 1.36366 -0.00000
v 2.93095 1.38784 0.23476
v 2.99725 1.18103 0.22126
v 3.11559 1.19176 0.39002
v 3.05464 0.97242 0.20499
v 3.15085 0.97012 0.35875
v 3.27176 0.96819 0.41128
v 3.26839 1.19707 0.45081
v 3.16177 0.75378 0.33011
v 3.26038 0.73739 0.37618
v 3.12285 0.55119 0.30939
v 3.20532 0.51266 0.35761
v 3.29111 0.47388 0.32362
v 3.07782 0.32077 0.35418
v 3.14297 0.25161 0.32402
v 3.19632 0.19388 0.19815
v 2.90581 0.11605 0.32372
v 2.92912 0.03917 0.19679
v 3.01419 0.97255 -0.00000
v 3.08754 0.77113 0.19102
v 3.07063 0.58104 0.18237
v 2.98459 0.42692 0.17766
v 3.01926 0.38487 0.30084
v 2.83905 0.33898 0.17568
v 2.85489 0.28591 0.29885
v 2.87943 0.20368 0.35295
v 2.66167 0.27828 0.30017
v 2.64722 0.19220 0.35236
v 2.63179 0.10022 0.32111
v 2.43739 0.28404 0.35453
v 2.38440 0.20435 0.32239
v 2.34438 0.13998 0.19806
v 2.62102 0.02383 0.19666
v 2.61816 0.00000 -0.00000
v 2.66838 0.33260 0.17585
v 2.51903 0.42966 -0.00000
v 2.51227 0.41225 0.18014
v 2.48483 0.36058 0.30599
v 2.38539 0.55225 0.18498
v 2.34100 0.50590 0.31285
v 2.27603 0.44660 0.36108
v 2.22792 0.69039 0.32601
v 2.15309 0.64313 0.37360
v 2.07362 0.59599 0.33258
v 2.20398 0.38818 0.32476
v 2.01372 0.56185 0.19811
v 2.15164 0.34637 0.19736
v 2.28423 0.73039 0.19061
v 2.22852 0.94839 -0.00000
v 2.19983 0.93034 0.19493
v 2.13364 0.89129 0.34105
v 2.12367 1.13923 0.19970
v 2.04558 1.09911 0.35518
v 1.95125 1.05311 0.40347
v 2.04951 0.84680 0.38790
v 1.85304 1.00575 0.35710
v 1.96124 0.80187 0.34532
v 1.77167 0.96709 0.20092
v 1.88927 0.76674 0.19882
v 1.73766 0.95086 -0.00000
v 2.15738 1.15754 -0.00000
v 2.04619 1.35098 0.20260
v 2.00984 1.58268 -0.00000
v 0.90599 2.30599 -0.00000
v 1.19167 1.94714 0.21336
v 1.07379 2.14265 0.21888
v 0.95844 2.33875 0.22552
v 1.18607 2.20194 0.40344
v 1.07829 2.40343 0.41415
v 0.97049 2.60264 0.42746
v 0.84360 2.53526 0.23328
v 0.78656 2.49929 -0.00000
v 0.72847 2.73178 0.24108
v 0.66727 2.69176 -0.00000
v 1.93684 1.79584 -0.00000
v 1.81830 1.99372 0.20965
v 1.89262 1.77933 0.20742
v 1.96852 1.56441 0.20518
v 1.79567 1.73607 0.38054
v 1.87842 1.52282 0.37311
v 1.96175 1.31023 0.36528
v 1.75955 1.46732 0.43361
v 1.85596 1.26072 0.41905
v 1.63484 1.40784 0.37453
v 1.74484 1.20769 0.36685
v 1.54039 1.36145 0.20504
v 1.65622 1.16532 0.20304
v 1.50110 1.33993 -0.00000
v 1.61938 1.14677 -0.00000
v 1.38197 1.53313 -0.00000
v 1.42285 1.55687 0.20679
v 1.30708 1.75252 0.20935
v 1.52216 1.60704 0.38103
v 1.41039 1.80637 0.38675
v 1.29826 2.00348 0.39480
v 1.56387 1.87945 0.46103
v 1.46539 2.08521 0.47560
v 1.36336 2.28878 0.48846
v 1.63206 2.16328 0.39612
v 1.54395 2.37354 0.40541
v 1.45790 2.58424 0.41687
v 1.26619 2.49563 0.50152
v 1.36894 2.79432 0.42833
v 1.16766 2.69970 0.51577
v 1.27792 3.00229 0.44166
v 1.06721 2.90478 0.53091
v 0.86203 2.80486 0.44137
v 0.97079 3.11285 0.54405
v 0.75682 3.00924 0.45209
v 0.61290 2.92775 0.24770
v 0.65297 3.21221 0.46140
v 0.50052 3.12233 0.25141
v 1.57037 2.87227 -0.00000
v 1.64378 2.65591 -0.00000
v 1.58389 2.63539 0.22562
v 1.66122 2.42210 0.21911
v 1.73958 2.20853 0.21356
v 1.71513 1.95001 0.38794
v 1.66101 1.67288 0.44792
v 1.50406 2.84962 0.23268
v 1.49577 3.08688 -0.00000
v 1.42369 3.06192 0.24041
v 1.42143 3.30153 -0.00000
v 1.34433 3.27420 0.24823
v 1.18964 3.21116 0.45461
v 1.26932 3.48867 0.25755
v 1.10272 3.42441 0.46829
v 0.87523 3.32374 0.55646
v 1.01889 3.64046 0.47594
v 0.77698 3.53566 0.56731
v 0.54401 3.41045 0.47191
v 0.68108 3.74168 0.56933
v 0.43452 3.60180 0.47586
v 0.26450 3.50062 0.25812
v 0.38585 3.31363 0.25562
v 1.19278 3.70260 0.26214
v 1.20850 3.95944 -0.00000
v 1.12976 3.92870 0.26992
v 0.94139 3.85739 0.48331
v 1.04877 4.16463 0.27110
v 0.85316 4.06873 0.48133
v 0.58508 3.93322 0.56759
v 0.32404 3.78539 0.47492
v 0.13834 3.69142 0.25686
v 1.10941 4.20497 -0.00000
v 0.90427 4.42548 -0.00000
v 0.60721 4.52524 -0.00000
v 0.28648 4.46043 -0.00000
v 0.06752 4.22545 -0.00000
v 3.83311 2.24925 -0.00000
v 3.89619 2.47720 -0.00000
v 3.59795 2.88413 -0.00000
v 3.18172 2.96989 -0.00000
v 2.63615 3.41798 -0.00000
v 3.67340 1.62941 -0.00000
v 3.77603 2.04391 -0.00000
v 3.43227 3.34677 -0.00000
v 3.53944 3.19384 -0.00000
v 3.21718 3.65116 -0.00000
v 3.32666 3.49930 -0.00000
v 3.62132 1.41460 -0.00000
v 2.34309 2.58500 -0.00000
v 2.14011 3.49619 -0.00000
v 2.39236 3.55036 -0.00000
v 2.43681 2.37358 -0.00000
v 2.70085 1.76091 -0.00000
v 2.94312 1.16764 -0.00000
v 2.93694 0.01649 -0.00000
v 3.21455 0.17668 -0.00000
v 3.06154 0.77829 -0.00000
v 3.05402 0.59292 -0.00000
v 2.97356 0.44101 -0.00000
v 2.33147 0.11815 -0.00000
v 2.66940 0.35114 -0.00000
v 2.83310 0.35733 -0.00000
v 1.98682 0.54712 -0.00000
v 2.13206 0.32864 -0.00000
v 2.40034 0.57087 -0.00000
v 2.30812 0.74889 -0.00000
v 1.85875 0.75204 -0.00000
v 2.08385 1.36941 -0.00000
v 1.02557 2.11207 -0.00000
v 1.14511 1.91977 -0.00000
v 1.86360 2.01096 -0.00000
v 1.26346 1.72699 -0.00000
v 0.42938 3.07454 -0.00000
v 0.54768 2.88323 -0.00000
v 1.71620 2.44068 -0.00000
v 1.78944 2.22613 -0.00000
v 0.18665 3.45555 -0.00000
v 0.30991 3.26391 -0.00000
v 1.27631 3.73280 -0.00000
v 1.34978 3.51676 -0.00000
v 0.00000 3.94076 -0.00000
v 0.06598 3.66513 -0.00000
v 0.21223 4.13671 -0.40440
v 2.39368 3.47223 -0.29151
v 2.12703 3.25236 -0.29242
v 3.22099 4.07324 -0.37420
v 3.53448 4.32978 -0.40875
v 0.59442 4.35769 -0.40149
v 3.31036 2.59831 -0.45577
v 3.28815 2.21352 -0.55767
v 0.23712 3.97551 -0.44993
v 0.48216 4.11620 -0.53232
v 0.38954 4.27850 -0.43941
v 0.31201 4.41954 -0.25761
v 0.10780 4.18731 -0.25529
v 0.05867 3.93016 -0.25046
v 2.53523 3.33872 -0.35400
v 2.61201 3.39537 -0.18290
v 2.39235 3.53306 -0.16215
v 2.15416 3.48467 -0.17449
v 2.22285 3.40970 -0.34111
v 2.38153 3.22406 -0.44560
v 2.05746 3.26132 -0.16484
v 2.16150 3.02705 -0.18211
v 2.23712 3.09139 -0.35276
v 3.30099 3.93608 -0.41620
v 3.50311 4.09118 -0.50777
v 3.35463 4.22838 -0.41370
v 3.24365 4.35883 -0.24052
v 3.10555 4.08623 -0.23528
v 3.15994 3.84798 -0.23524
v 3.54486 4.47777 -0.24924
v 3.72162 4.24845 -0.45451
v 3.87051 4.39547 -0.26594
v 0.72354 4.25481 -0.44874
v 0.86885 4.37835 -0.25703
v 0.61023 4.47539 -0.25016
v 3.48270 2.41661 -0.48896
v 3.64540 2.60290 -0.41883
v 3.54997 2.69886 -0.38212
v 3.05875 2.76247 -0.45399
v 2.89113 2.61124 -0.54488
v 3.08768 2.41382 -0.55574
v 3.25899 1.92641 -0.55302
v 3.49710 1.90148 -0.44647
v 3.56279 2.12540 -0.43805
v 3.65109 2.31142 -0.40644
v 3.76187 2.53084 -0.36335
v 3.70981 2.06304 -0.23294
v 3.77492 2.26355 -0.22226
v 3.85181 2.49115 -0.20504
v 3.93292 2.74233 -0.19468
v 3.85773 2.76610 -0.34146
v 4.00475 3.00577 -0.20003
v 4.10110 3.53388 -0.23805
v 4.05643 3.27056 -0.21999
v 3.96112 3.53235 -0.42725
v 3.94699 3.26622 -0.38629
v 3.91919 3.01385 -0.35072
v 3.81818 3.25400 -0.43632
v 3.81917 3.02244 -0.39373
v 3.76425 2.80269 -0.38488
v 3.71887 3.03055 -0.34591
v 3.67496 2.84658 -0.34622
v 3.63985 3.03142 -0.19867
v 3.61238 2.87748 -0.20378
v 3.49348 2.78622 -0.21924
v 3.34047 2.79539 -0.24096
v 3.14763 2.91310 -0.24204
v 2.96721 3.06285 -0.23436
v 2.78729 3.22255 -0.21361
v 2.69812 3.14538 -0.40192
v 2.86909 2.95558 -0.43727
v 2.54570 3.02197 -0.48661
v 2.71173 2.81949 -0.51962
v 2.39058 2.89508 -0.40157
v 2.53766 2.68952 -0.43226
v 2.67888 2.47796 -0.45819
v 2.40909 2.61380 -0.23378
v 2.51608 2.40358 -0.24744
v 2.62022 2.19826 -0.25662
v 2.81624 2.27062 -0.47510
v 2.70766 2.00157 -0.26179
v 2.91901 2.08659 -0.48599
v 2.78424 1.80116 -0.25864
v 2.97275 1.87406 -0.47391
v 2.85635 1.59670 -0.24862
v 3.01976 1.64289 -0.45094
v 3.25046 1.66913 -0.52591
v 3.06799 1.41548 -0.42162
v 3.25815 1.43167 -0.49191
v 3.43982 1.43614 -0.40940
v 3.46252 1.66874 -0.43185
v 3.56413 1.42632 -0.22509
v 3.60907 1.64609 -0.23354
v 3.65616 1.85888 -0.23629
v 4.10918 4.14076 -0.27147
v 4.16579 3.81389 -0.25741
v 3.90401 4.05867 -0.47084
v 3.97595 3.80052 -0.45914
v 3.64401 3.93109 -0.53640
v 3.73262 3.74209 -0.52200
v 3.78587 3.50126 -0.48595
v 3.52232 3.63531 -0.43272
v 3.61465 3.44803 -0.41465
v 3.68904 3.23654 -0.37391
v 3.48502 3.38414 -0.22907
v 3.58466 3.21510 -0.21254
v 3.27806 3.69086 -0.23446
v 3.38829 3.54416 -0.23146
v 3.42055 3.78851 -0.43651
v 3.52161 1.19900 -0.21460
v 3.47646 0.96267 -0.20373
v 3.41681 1.20070 -0.38339
v 3.39085 0.96444 -0.35824
v 3.35786 0.72298 -0.33593
v 3.42551 0.71450 -0.19769
v 3.35204 0.44514 -0.19705
v 2.28877 2.82146 -0.21415
v 2.93095 1.38784 -0.23476
v 2.99725 1.18103 -0.22126
v 3.11559 1.19176 -0.39002
v 3.05464 0.97242 -0.20499
v 3.15085 0.97012 -0.35875
v 3.27176 0.96819 -0.41128
v 3.26839 1.19707 -0.45081
v 3.16177 0.75378 -0.33011
v 3.26038 0.73739 -0.37618
v 3.12285 0.55119 -0.30939
v 3.20532 0.51266 -0.35761
v 3.29111 0.47388 -0.32362
v 3.07782 0.32077 -0.35418
v 3.14297 0.25161 -0.32402
v 3.19632 0.19388 -0.19815
v 2.90581 0.11605 -0.32372
v 2.92912 0.03917 -0.19679
v 3.08754 0.77113 -0.19102
v 3.07063 0.58104 -0.18237
v 2.98459 0.42692 -0.17766
v 3.01926 0.38487 -0.30084
v 2.83905 0.33898 -0.17568
v 2.85489 0.28591 -0.29885
v 2.87943 0.20368 -0.35295
v 2.66167 0.27828 -0.30017
v 2.64722 0.19220 -0.35236
v 2.63179 0.10022 -0.32111
v 2.43739 0.28404 -0.35453
v 2.38440 0.20435 -0.32239
v 2.34438 0.13998 -0.19806
v 2.62102 0.02383 -0.19666
v 2.66838 0.33260 -0.17585
v 2.51227 0.41225 -0.18014
v 2.48483 0.36058 -0.30599
v 2.38539 0.55225 -0.18498
v 2.34100 0.50590 -0.31285
v 2.27603 0.44660 -0.36108
v 2.22792 0.69039 -0.32601
v 2.15309 0.64313 -0.37360
v 2.07362 0.59599 -0.33258
v 2.20398 0.38818 -0.32476
v 2.01372 0.56185 -0.19811
v 2.15164 0.34637 -0.19736
v 2.28423 0.73039 -0.19061
v 2.19983 0.93034 -0.19493
v 2.13364 0.89129 -0.34105
v 2.12367 1.13923 -0.19970
v 2.04558 1.09911 -0.35518
v 1.95125 1.05311 -0.40347
v 2.04951 0.84680 -0.38790
v 1.85304 1.00575 -0.35710
v 1.96124 0.80187 -0.34532
v 1.77167 0.96709 -0.20092
v 1.88927 0.76674 -0.19882
v 2.04619 1.35098 -0.20260
v 1.19167 1.94714 -0.21336
v 1.07379 2.14265 -0.21888
v 0.95844 2.33875 -0.22552
v 1.18607 2.20194 -0.40344
v 1.07829 2.40343 -0.41415
v 0.97049 2.60264 -0.42746
v 0.84360 2.53526 -0.23328
v 0.72847 2.73178 -0.24108
v 1.81830 1.99372 -0.20965
v 1.89262 1.77933 -0.20742
v 1.96852 1.56441 -0.20518
v 1.79567 1.73607 -0.38054
v 1.87842 1.52282 -0.37311
v 1.96175 1.31023 -0.36528
v 1.75955 1.46732 -0.43361
v 1.85596 1.26072 -0.41905
v 1.63484 1.40784 -0.37453
v 1.74484 1.20769 -0.36685
v 1.54039 1.36145 -0.20504
v 1.65622 1.16532 -0.20304
v 1.42285 1.55687 -0.20679
v 1.30708 1.75252 -0.20935
v 1.52216 1.60704 -0.38103
v 1.41039 1.80637 -0.38675
v 1.29826 2.00348 -0.39480
v 1.56387 1.87945 -0.46103
v 1.46539 2.08521 -0.47560
v 1.36336 2.28878 -0.48846
v 1.63206 2.16328 -0.39612
v 1.54395 2.37354 -0.40541
v 1.45790 2.58424 -0.41687
v 1.26619 2.49563 -0.50152
v 1.36894 2.79432 -0.42833
v 1.16766 2.69970 -0.51577
v 1.27792 3.00229 -0.44166
v 1.06721 2.90478 -0.53091
v 0.86203 2.80486 -0.44137
v 0.97079 3.11285 -0.54405
v 0.75682 3.00924 -0.45209
v 0.61290 2.92775 -0.24770
v 0.65297 3.21221 -0.46140
v 0.50052 3.12233 -0.25141
v 1.58389 2.63539 -0.22562
v 1.66122 2.42210 -0.21911
v 1.73958 2.20853 -0.21356
v 1.71513 1.95001 -0.38794
v 1.66101 1.67288 -0.44792
v 1.50406 2.84962 -0.23268
v 1.42369 3.06192 -0.24041
v 1.34433 3.27420 -0.24823
v 1.18964 3.21116 -0.45461
v 1.26932 3.48867 -0.25755
v 1.10272 3.42441 -0.46829
v 0.87523 3.32374 -0.55646
v 1.01889 3.64046 -0.47594
v 0.77698 3.53566 -0.56731
v 0.54401 3.41045 -0.47191
v 0.68108 3.74168 -0.56933
v 0.43452 3.60180 -0.47586
v 0.26450 3.50062 -0.25812
v 0.38585 3.31363 -0.25562
v 1.19278 3.70260 -0.26214
v 1.12976 3.92870 -0.26992
v 0.94139 3.85739 -0.48331
v 1.04877 4.16463 -0.27110
v 0.85316 4.06873 -0.48133
v 0.58508 3.93322 -0.56759
v 0.32404 3.78539 -0.47492
v 0.13834 3.69142 -0.25686
vn -0.60796 0.29492 0.73716
vn -0.57292 0.02112 0.81934
vn -0.14022 0.24972 0.95811
vn -0.29568 0.52807 0.79606
vn -0.44244 0.78602 0.43176
vn -0.80981 0.39423 0.43451
vn -0.88579 -0.05127 0.46124
vn 0.14573 0.77905 0.60980
vn 0.36532 0.61031 0.70290
vn 0.56476 0.76173 0.31750
vn 0.50257 0.82112 0.27052
vn -0.19290 0.94339 0.26981
vn -0.05055 0.73369 0.67760
vn 0.15136 0.45204 0.87906
vn -0.76655 -0.00542 0.64217
vn -0.87599 -0.37293 0.30588
vn -0.84536 -0.40989 0.34257
vn -0.65299 -0.23691 0.71936
vn -0.69027 0.18269 0.70011
vn -0.87694 0.37630 0.29895
vn -0.46467 -0.06141 0.88335
vn -0.64257 0.08724 0.76125
vn -0.54808 -0.18006 0.81681
vn -0.19773 0.14208 0.96990
vn -0.40612 0.39816 0.82252
vn -0.60724 0.65849 0.44458
vn -0.88513 0.11831 0.45006
vn -0.81051 -0.36117 0.46111
vn -0.10572 0.61394 0.78224
vn -0.08819 0.88281 0.46139
vn 0.16079 0.47477 0.86530
vn 0.41883 0.76241 0.49328
vn 0.05244 0.67520 0.73577
vn 0.25923 0.50573 0.82282
vn 0.49488 0.73342 0.46603
vn 0.07559 0.89919 0.43097
vn 0.18136 0.49529 0.84959
vn 0.27114 0.12944 0.95380
vn 0.19097 0.13938 0.97165
vn -0.17339 0.58236 0.79423
vn 0.35242 0.47715 0.80506
vn -0.03947 0.08405 0.99568
vn -0.02100 0.07550 0.99692
vn 0.11400 -0.00451 0.99347
vn 0.08145 -0.08988 0.99262
vn 0.60173 -0.14013 0.78631
vn 0.60027 -0.14328 0.78686
vn 0.61734 -0.14882 0.77249
vn 0.63624 -0.16459 0.75373
vn 0.86016 -0.24050 0.44977
vn 0.86643 -0.26494 0.42321
vn 0.88339 -0.27392 0.38025
vn 0.89964 -0.26426 0.34758
vn 0.64364 -0.18692 0.74215
vn 0.95904 -0.28328 0.00004
vn 0.95826 -0.28588 0.00011
vn 0.96107 -0.27632 0.00003
vn 0.96971 -0.24426 -0.00008
vn 0.90808 -0.22657 0.35222
vn 0.97646 -0.21569 -0.00017
vn 0.97552 -0.21992 0.00003
vn 0.88016 -0.18967 0.43514
vn 0.90055 -0.19210 0.39000
vn 0.58187 -0.14849 0.79961
vn 0.62271 -0.17212 0.76328
vn 0.64128 -0.18807 0.74390
vn 0.36384 -0.15992 0.91763
vn 0.37633 -0.14904 0.91442
vn 0.05755 0.04664 0.99725
vn -0.41301 -0.04718 0.90950
vn -0.67471 -0.03852 0.73707
vn -0.54602 0.34189 0.76484
vn -0.94396 -0.06690 0.32320
vn -0.81132 0.49788 0.30639
vn -0.26004 0.89684 0.35785
vn -0.56833 0.82280 -0.00201
vn 0.16909 0.98560 0.00193
vn 0.36477 0.93110 0.00158
vn 0.29079 0.85632 0.42680
vn 0.52934 0.71987 0.44899
vn 0.59044 0.80708 0.00058
vn 0.63540 0.77218 -0.00006
vn 0.58066 0.69391 0.42582
vn 0.65067 0.75936 0.00005
vn 0.58335 0.81222 0.00079
vn 0.60452 0.69736 0.38503
vn 0.40435 0.52238 0.75074
vn 0.38776 0.48890 0.78142
vn 0.21457 0.36169 0.90727
vn 0.21750 0.32180 0.92149
vn -0.34989 -0.13932 0.92637
vn -0.39543 -0.13617 0.90835
vn -0.58598 -0.28083 0.76011
vn -0.54939 -0.26480 0.79250
vn -0.50444 -0.25195 0.82587
vn -0.79573 -0.40272 0.45236
vn -0.78268 -0.38002 0.49294
vn -0.77115 -0.35989 0.52517
vn -0.45777 -0.23057 0.85865
vn -0.78087 -0.32131 0.53572
vn -0.45174 -0.17872 0.87406
vn -0.80041 -0.30211 0.51776
vn -0.48557 -0.16831 0.85784
vn -0.81875 -0.31043 0.48300
vn -0.52568 -0.20860 0.82471
vn 0.06110 -0.13832 0.98850
vn -0.56125 -0.23225 0.79439
vn -0.32541 -0.17881 0.92851
vn 0.41003 -0.13094 0.90262
vn 0.63446 -0.15084 0.75810
vn 0.61548 -0.14506 0.77469
vn 0.89260 -0.18825 0.40968
vn 0.87749 -0.19321 0.43895
vn 0.86629 -0.20810 0.45414
vn 0.97440 -0.22482 -0.00006
vn 0.97138 -0.23753 -0.00002
vn 0.96424 -0.26504 -0.00004
vn 0.99955 -0.02990 -0.00014
vn 0.89299 0.45008 -0.00018
vn 0.76220 0.39145 0.51557
vn 0.87438 -0.02548 0.48457
vn 0.39830 0.22930 0.88813
vn 0.52096 -0.02895 0.85309
vn -0.07131 -0.02215 0.99721
vn -0.01253 -0.13052 0.99137
vn 0.00221 -0.19453 0.98089
vn -0.48690 -0.33239 0.80774
vn -0.52484 -0.33508 0.78247
vn -0.60122 -0.28319 0.74722
vn -0.38556 -0.21907 0.89630
vn -0.76104 -0.47462 0.44221
vn -0.83553 -0.39094 0.38607
vn -0.83662 -0.54778 0.00026
vn -0.89165 -0.45272 -0.00019
vn -0.99438 -0.10587 0.00019
vn -0.98974 0.14288 0.00131
vn -0.92094 -0.38970 -0.00077
vn -0.81229 -0.58326 0.00033
vn -0.71295 -0.51204 0.47907
vn -0.98934 0.14561 -0.00172
vn -0.67073 0.74170 -0.00038
vn -0.07709 0.99702 0.00028
vn 0.49786 0.86726 0.00022
vn -0.82148 -0.57024 -0.00008
vn -0.72898 -0.49540 0.47240
vn -0.47781 -0.31672 0.81938
vn 0.97714 -0.21261 0.00001
vn 0.97607 -0.21746 -0.00010
vn 0.90839 -0.18781 0.37357
vn 0.92202 -0.19403 0.33502
vn 0.97641 -0.21593 0.00013
vn 0.65093 -0.15930 0.74223
vn 0.66053 -0.16672 0.73206
vn 0.65123 -0.18966 0.73479
vn 0.92384 -0.22861 0.30700
vn 0.96967 -0.24443 0.00002
vn 0.86945 -0.38592 0.30843
vn 0.91548 -0.40236 -0.00005
vn -0.90422 -0.42706 -0.00061
vn -0.88314 -0.46911 0.00006
vn -0.80450 -0.43483 0.40460
vn -0.92663 -0.37598 -0.00101
vn -0.91606 0.40103 -0.00033
vn -0.20223 0.97934 0.00034
vn 0.49981 0.86614 0.00135
vn -0.89747 -0.44108 0.00009
vn -0.90633 -0.42256 -0.00010
vn -0.91193 -0.41034 -0.00002
vn -0.86548 -0.36055 0.34777
vn -0.92926 -0.36943 -0.00003
vn -0.92966 -0.36842 0.00012
vn -0.93442 -0.35617 -0.00005
vn -0.83969 -0.31017 0.44577
vn -0.94510 -0.32678 -0.00052
vn -0.86728 -0.28888 0.40542
vn -0.59837 -0.22537 0.76887
vn -0.90695 -0.22560 0.35574
vn -0.64524 -0.17889 0.74274
vn -0.39743 -0.15175 0.90500
vn -0.35934 -0.18243 0.91520
vn 0.40898 -0.14224 0.90139
vn 0.39258 -0.14533 0.90816
vn -0.69583 -0.04232 0.71695
vn -0.44082 -0.05585 0.89585
vn 0.35726 -0.14643 0.92245
vn -0.68935 0.21794 0.69087
vn -0.45432 0.13669 0.88029
vn 0.30125 -0.16634 0.93893
vn 0.21089 -0.22854 0.95042
vn 0.80254 -0.36019 0.47560
vn 0.59132 -0.61820 0.51785
vn 0.65509 -0.67990 0.32954
vn 0.23832 -0.81206 0.53269
vn 0.26606 -0.90340 0.33626
vn 0.28331 -0.95903 0.00002
vn 0.69613 -0.71792 0.00000
vn -0.96605 -0.25836 -0.00013
vn -0.99743 -0.07159 0.00005
vn -0.95042 -0.04827 0.30720
vn -0.96118 0.27592 -0.00024
vn -0.91968 0.28010 0.27519
vn -0.72259 0.69127 -0.00003
vn -0.69449 0.66931 0.26403
vn -0.53141 0.51912 0.66941
vn -0.27650 0.92448 0.26247
vn -0.21678 0.71651 0.66304
vn -0.15278 0.49966 0.85264
vn -0.36408 0.35903 0.85939
vn 0.15415 0.72530 0.67096
vn 0.10057 0.49465 0.86326
vn 0.08269 -0.29506 0.95189
vn -0.05534 -0.31009 0.94910
vn -0.17804 -0.27863 0.94375
vn -0.14598 -0.83672 0.52781
vn -0.48787 -0.70968 0.50826
vn -0.53690 -0.77857 0.32491
vn -0.16145 -0.92879 0.33358
vn -0.56874 -0.82252 -0.00000
vn -0.17072 -0.98532 -0.00003
vn -0.28529 0.95844 0.00004
vn 0.21840 0.97586 0.00003
vn 0.20815 0.94235 0.26200
vn 0.61790 0.78625 0.00014
vn 0.58778 0.76387 0.26648
vn 0.44091 0.58455 0.68111
vn 0.78219 0.55458 0.28395
vn 0.59202 0.41771 0.68923
vn 0.40128 0.26753 0.87601
vn 0.29380 0.38747 0.87381
vn 0.65092 0.30064 0.69708
vn 0.43851 0.18136 0.88024
vn -0.26911 -0.24665 0.93099
vn -0.31619 -0.23550 0.91900
vn -0.56731 -0.37333 0.73401
vn -0.69061 -0.54596 0.47434
vn -0.80459 -0.50558 0.31149
vn -0.74668 -0.58871 0.30967
vn -0.84439 -0.53573 -0.00005
vn -0.78598 -0.61825 -0.00003
vn 0.82196 0.56954 0.00000
vn 0.90402 0.42749 -0.00008
vn 0.85928 0.41254 0.30240
vn 0.93505 0.35451 0.00005
vn 0.88378 0.34113 0.32025
vn 0.65816 0.24233 0.71281
vn 0.88558 0.31770 0.33885
vn 0.64824 0.22127 0.72858
vn 0.41204 0.12065 0.90314
vn 0.42888 0.13705 0.89291
vn -0.32726 -0.22948 0.91665
vn -0.32694 -0.22252 0.91847
vn -0.56808 -0.34675 0.74636
vn -0.57327 -0.35699 0.73751
vn -0.80881 -0.47616 0.34510
vn -0.81070 -0.48541 0.32732
vn -0.85876 -0.51237 -0.00001
vn -0.85456 -0.51935 0.00001
vn 0.94310 0.33251 0.00001
vn 0.94251 0.33417 -0.00002
vn 0.88047 0.31557 0.35381
vn -0.85291 -0.52206 0.00001
vn -0.85315 -0.52166 0.00001
vn -0.78033 -0.47601 0.40558
vn -0.77647 -0.47257 0.41687
vn -0.77222 -0.46736 0.43041
vn -0.85461 -0.51928 0.00000
vn -0.53783 -0.33685 0.77283
vn -0.52791 -0.33233 0.78158
vn -0.51620 -0.33225 0.78940
vn -0.76588 -0.46607 0.44296
vn -0.85424 -0.51987 -0.00001
vn -0.76079 -0.46115 0.45667
vn -0.85317 -0.52163 -0.00002
vn 0.94549 0.32566 0.00001
vn 0.94452 0.32845 -0.00001
vn 0.87127 0.30501 0.38451
vn 0.87542 0.30433 0.37553
vn 0.87735 0.31108 0.36536
vn 0.94377 0.33062 0.00000
vn 0.62839 0.21264 0.74827
vn 0.63453 0.21801 0.74152
vn 0.63988 0.21879 0.73667
vn 0.40124 0.12501 0.90740
vn 0.40445 0.12123 0.90649
vn -0.32854 -0.21856 0.91885
vn -0.33128 -0.21914 0.91773
vn -0.55718 -0.34225 0.75658
vn -0.56259 -0.34222 0.75258
vn -0.79516 -0.47714 0.37423
vn -0.80283 -0.47466 0.36080
vn -0.85506 -0.51853 0.00002
vn -0.85809 -0.51351 0.00001
vn -0.85494 -0.51872 0.00001
vn -0.79055 -0.47546 0.38597
vn -0.78668 -0.47337 0.39631
vn -0.85566 -0.51754 -0.00000
vn -0.55440 -0.33989 0.75968
vn -0.55033 -0.33971 0.76271
vn -0.54342 -0.34282 0.76627
vn -0.33633 -0.22137 0.91536
vn -0.33231 -0.22559 0.91579
vn -0.32920 -0.22156 0.91790
vn 0.37011 0.11447 0.92191
vn 0.37914 0.11953 0.91759
vn 0.61060 0.21234 0.76294
vn 0.59938 0.20632 0.77342
vn 0.58806 0.19826 0.78414
vn 0.36227 0.10563 0.92607
vn -0.31981 -0.22019 0.92154
vn 0.57601 0.19590 0.79362
vn 0.35526 0.10197 0.92919
vn -0.30702 -0.22176 0.92550
vn 0.56590 0.18944 0.80242
vn 0.34904 0.09705 0.93207
vn -0.30325 -0.21185 0.92906
vn -0.51042 -0.32163 0.79751
vn -0.30407 -0.19906 0.93162
vn -0.50565 -0.30611 0.80661
vn -0.75631 -0.45104 0.47388
vn -0.49409 -0.30312 0.81486
vn -0.74662 -0.45012 0.48984
vn -0.85352 -0.52105 0.00000
vn -0.85471 -0.51910 -0.00002
vn 0.94450 0.32852 0.00001
vn 0.94446 0.32862 0.00000
vn 0.85056 0.30014 0.43182
vn 0.85814 0.30362 0.41403
vn 0.86434 0.30876 0.39697
vn 0.94330 0.33194 -0.00000
vn 0.62102 0.20975 0.75521
vn 0.38830 0.11912 0.91380
vn 0.39562 0.12348 0.91008
vn -0.33595 -0.21884 0.91610
vn 0.94270 0.33365 -0.00000
vn 0.84075 0.30195 0.44940
vn 0.94226 0.33488 -0.00001
vn 0.83322 0.29848 0.46546
vn 0.94569 0.32507 -0.00000
vn 0.83050 0.28565 0.47821
vn 0.55683 0.17782 0.81137
vn 0.82636 0.28052 0.48829
vn 0.54463 0.17438 0.82035
vn 0.01602 -0.05571 0.99832
vn 0.34021 0.09045 0.93599
vn 0.52924 0.16772 0.83173
vn 0.01002 -0.04283 0.99903
vn -0.48053 -0.29803 0.82478
vn -0.00174 -0.02065 0.99979
vn -0.46771 -0.28179 0.83776
vn -0.73009 -0.45980 0.50552
vn -0.73289 -0.45997 0.50129
vn -0.84515 -0.53453 -0.00034
vn -0.84452 -0.53553 0.00002
vn 0.94694 0.32142 0.00000
vn 0.95413 0.29940 0.00002
vn 0.82795 0.26058 0.49658
vn 0.95037 0.31113 0.00038
vn 0.82105 0.27042 0.50274
vn 0.49828 0.17667 0.84883
vn 0.73652 0.45157 0.50361
vn 0.41619 0.29640 0.85961
vn -0.04487 0.06562 0.99684
vn -0.49494 -0.19760 0.84616
vn -0.79216 -0.35500 0.49644
vn -0.99949 -0.03199 0.00197
vn -0.91605 -0.40105 0.00089
vn 0.85536 0.51804 -0.00001
vn 0.55499 0.83186 -0.00092
vn 0.07405 0.99725 -0.00077
vn -0.49038 0.87151 -0.00004
vn -0.89054 0.45491 0.00089
vn -0.29604 0.52819 -0.79585
vn -0.14353 0.25466 -0.95632
vn -0.57184 0.02743 -0.81991
vn -0.60456 0.29877 -0.73841
vn -0.80614 0.39670 -0.43906
vn -0.44098 0.78400 -0.43691
vn -0.88463 -0.04717 -0.46391
vn 0.16340 0.94199 -0.29318
vn 0.55926 0.76440 -0.32080
vn 0.35925 0.61229 -0.70430
vn 0.14122 0.77793 -0.61228
vn -0.04466 0.73484 -0.67677
vn -0.18947 0.94339 -0.27224
vn 0.15295 0.45502 -0.87725
vn -0.65486 -0.23299 -0.71894
vn -0.84594 -0.40617 -0.34556
vn -0.87715 -0.36493 -0.31216
vn -0.76661 -0.00257 -0.64211
vn -0.87718 0.37458 -0.30041
vn -0.69367 0.17932 -0.69761
vn -0.46927 -0.06314 -0.88080
vn -0.40684 0.39732 -0.82257
vn -0.20449 0.14963 -0.96737
vn -0.54958 -0.17545 -0.81681
vn -0.64084 0.08644 -0.76280
vn -0.88117 0.11758 -0.45794
vn -0.60581 0.65313 -0.45433
vn -0.80972 -0.35761 -0.46526
vn -0.08536 0.88101 -0.46533
vn -0.10360 0.61777 -0.77950
vn 0.15709 0.48060 -0.86275
vn 0.41812 0.76205 -0.49442
vn 0.25346 0.50711 -0.82377
vn 0.04836 0.67318 -0.73790
vn 0.07239 0.89642 -0.43724
vn 0.48946 0.73377 -0.47118
vn -0.17540 0.58144 -0.79446
vn 0.19586 0.14798 -0.96940
vn 0.27383 0.13260 -0.95259
vn 0.17641 0.48954 -0.85395
vn -0.01935 0.07362 -0.99710
vn -0.03978 0.08411 -0.99566
vn 0.35161 0.47933 -0.80412
vn 0.11248 -0.00868 -0.99362
vn 0.59914 -0.14254 -0.78785
vn 0.60165 -0.13986 -0.78642
vn 0.07959 -0.09472 -0.99232
vn 0.61575 -0.15041 -0.77345
vn 0.63549 -0.16548 -0.75417
vn 0.86629 -0.26501 -0.42346
vn 0.86042 -0.23958 -0.44976
vn 0.88306 -0.27445 -0.38062
vn 0.64385 -0.18610 -0.74218
vn 0.89975 -0.26378 -0.34766
vn 0.90775 -0.22757 -0.35242
vn 0.90040 -0.19166 -0.39058
vn 0.87984 -0.18999 -0.43564
vn 0.62265 -0.17082 -0.76363
vn 0.58109 -0.15089 -0.79973
vn 0.64116 -0.18858 -0.74387
vn 0.37668 -0.14888 -0.91430
vn 0.36432 -0.15811 -0.91775
vn 0.05817 0.05076 -0.99702
vn -0.54691 0.35019 -0.76043
vn -0.67400 -0.03761 -0.73777
vn -0.41100 -0.04847 -0.91035
vn -0.81154 0.50067 -0.30121
vn -0.94419 -0.06405 -0.32310
vn -0.26659 0.89107 -0.36731
vn 0.28653 0.85114 -0.43984
vn 0.52949 0.72094 -0.44708
vn 0.58114 0.69374 -0.42545
vn 0.60389 0.69780 -0.38522
vn 0.40421 0.52222 -0.75093
vn 0.38812 0.48925 -0.78102
vn 0.21738 0.32221 -0.92137
vn 0.21431 0.36186 -0.90726
vn -0.54865 -0.26541 -0.79280
vn -0.58606 -0.28074 -0.76008
vn -0.39541 -0.13662 -0.90829
vn -0.35103 -0.13876 -0.92602
vn -0.50368 -0.25279 -0.82608
vn -0.78235 -0.38050 -0.49311
vn -0.79492 -0.40352 -0.45308
vn -0.45460 -0.23213 -0.85992
vn -0.77163 -0.35923 -0.52492
vn -0.45041 -0.18260 -0.87395
vn -0.78108 -0.32049 -0.53591
vn -0.48656 -0.17188 -0.85657
vn -0.80049 -0.30092 -0.51832
vn -0.52571 -0.20710 -0.82507
vn -0.81882 -0.30905 -0.48375
vn 0.06093 -0.13882 -0.98844
vn -0.32538 -0.17558 -0.92914
vn -0.56141 -0.23017 -0.79488
vn 0.61556 -0.14453 -0.77472
vn 0.63439 -0.15050 -0.75822
vn 0.40999 -0.13055 -0.90270
vn 0.87756 -0.19261 -0.43908
vn 0.89262 -0.18774 -0.40986
vn 0.86638 -0.20830 -0.45386
vn 0.87488 -0.02644 -0.48361
vn 0.76231 0.39157 -0.51532
vn 0.52201 -0.03179 -0.85235
vn 0.39783 0.22965 -0.88825
vn -0.01253 -0.13356 -0.99096
vn -0.07206 -0.02233 -0.99715
vn 0.00253 -0.19443 -0.98091
vn -0.52487 -0.33670 -0.78175
vn -0.48691 -0.33394 -0.80709
vn -0.38532 -0.21535 -0.89730
vn -0.60114 -0.28215 -0.74767
vn -0.83551 -0.39123 -0.38583
vn -0.76051 -0.47754 -0.43998
vn -0.71270 -0.51283 -0.47861
vn -0.72892 -0.49563 -0.47226
vn -0.47748 -0.31744 -0.81930
vn 0.90846 -0.18780 -0.37340
vn 0.92199 -0.19408 -0.33505
vn 0.66009 -0.16746 -0.73229
vn 0.65101 -0.15957 -0.74211
vn 0.92384 -0.22883 -0.30685
vn 0.65038 -0.19072 -0.73527
vn 0.86945 -0.38555 -0.30889
vn -0.80437 -0.43507 -0.40460
vn -0.86542 -0.36065 -0.34783
vn -0.83981 -0.30967 -0.44589
vn -0.86746 -0.28748 -0.40605
vn -0.59836 -0.22500 -0.76898
vn -0.64450 -0.17693 -0.74385
vn -0.90690 -0.22358 -0.35713
vn -0.35938 -0.18244 -0.91518
vn -0.39685 -0.15210 -0.90519
vn 0.39180 -0.14690 -0.90825
vn 0.40885 -0.14275 -0.90137
vn -0.43780 -0.05464 -0.89741
vn -0.69489 -0.04151 -0.71792
vn 0.35517 -0.14761 -0.92307
vn -0.44940 0.13540 -0.88301
vn -0.68883 0.21661 -0.69181
vn 0.30092 -0.16711 -0.93889
vn 0.21203 -0.22921 -0.95000
vn 0.65495 -0.67974 -0.33016
vn 0.59086 -0.61770 -0.51898
vn 0.80244 -0.35939 -0.47636
vn 0.26608 -0.90342 -0.33621
vn 0.17006 -0.58685 -0.79164
vn -0.95050 -0.04847 -0.30691
vn -0.92033 0.27940 -0.27374
vn -0.69475 0.66927 -0.26343
vn -0.53096 0.51897 -0.66989
vn -0.21692 0.71718 -0.66226
vn -0.27651 0.92447 -0.26248
vn -0.36190 0.35821 -0.86065
vn -0.15321 0.50142 -0.85153
vn 0.10156 0.49771 -0.86138
vn 0.15436 0.72616 -0.66998
vn -0.10666 -0.60767 -0.78699
vn -0.05535 -0.31052 -0.94895
vn 0.08266 -0.29546 -0.95177
vn -0.17705 -0.27770 -0.94421
vn -0.16144 -0.92876 -0.33368
vn -0.53674 -0.77844 -0.32550
vn -0.48744 -0.70922 -0.50932
vn 0.20800 0.94224 -0.26254
vn 0.58803 0.76371 -0.26641
vn 0.44129 0.58513 -0.68036
vn 0.59261 0.41777 -0.68869
vn 0.78248 0.55452 -0.28326
vn 0.29463 0.38921 -0.87276
vn 0.40140 0.26751 -0.87597
vn 0.43919 0.18142 -0.87989
vn 0.65126 0.30070 -0.69674
vn -0.51050 -0.42134 -0.74958
vn -0.56780 -0.37320 -0.73370
vn -0.31687 -0.23568 -0.91872
vn -0.26873 -0.24595 -0.93129
vn -0.74657 -0.58856 -0.31022
vn -0.80473 -0.50538 -0.31144
vn 0.85923 0.41265 -0.30239
vn 0.88388 0.34093 -0.32019
vn 0.65828 0.24228 -0.71272
vn 0.64827 0.22122 -0.72857
vn 0.88568 0.31749 -0.33876
vn 0.42905 0.13717 -0.89281
vn 0.41185 0.12087 -0.90320
vn -0.57336 -0.35696 -0.73745
vn -0.56803 -0.34680 -0.74637
vn -0.32693 -0.22253 -0.91848
vn -0.32732 -0.22947 -0.91662
vn -0.81074 -0.48539 -0.32726
vn -0.80877 -0.47621 -0.34512
vn 0.88045 0.31562 -0.35383
vn -0.77641 -0.47269 -0.41685
vn -0.78029 -0.47609 -0.40558
vn -0.77219 -0.46743 -0.43039
vn -0.52782 -0.33252 -0.78156
vn -0.53773 -0.33705 -0.77282
vn -0.76594 -0.46596 -0.44297
vn -0.51620 -0.33224 -0.78940
vn -0.76079 -0.46114 -0.45667
vn 0.87538 0.30444 -0.37554
vn 0.87124 0.30507 -0.38454
vn 0.87733 0.31112 -0.36536
vn 0.63449 0.21810 -0.74152
vn 0.62835 0.21270 -0.74829
vn 0.63988 0.21878 -0.73667
vn 0.40446 0.12121 -0.90649
vn 0.40120 0.12513 -0.90741
vn -0.56263 -0.34217 -0.75258
vn -0.55715 -0.34230 -0.75658
vn -0.33124 -0.21920 -0.91773
vn -0.32858 -0.21850 -0.91886
vn -0.80284 -0.47463 -0.36078
vn -0.79514 -0.47720 -0.37422
vn -0.79056 -0.47544 -0.38596
vn -0.78666 -0.47340 -0.39630
vn -0.55032 -0.33975 -0.76270
vn -0.55438 -0.33993 -0.75968
vn -0.54340 -0.34286 -0.76627
vn -0.33231 -0.22560 -0.91579
vn -0.33632 -0.22140 -0.91535
vn -0.32915 -0.22165 -0.91790
vn 0.59927 0.20658 -0.77343
vn 0.61049 0.21261 -0.76296
vn 0.37902 0.11983 -0.91760
vn 0.37010 0.11453 -0.92190
vn 0.36237 0.10541 -0.92605
vn 0.58803 0.19836 -0.78414
vn -0.31968 -0.22045 -0.92152
vn 0.35532 0.10182 -0.92918
vn 0.57595 0.19608 -0.79362
vn -0.30691 -0.22196 -0.92549
vn 0.34915 0.09691 -0.93204
vn 0.56586 0.18959 -0.80241
vn -0.51037 -0.32175 -0.79750
vn -0.30324 -0.21186 -0.92906
vn -0.50564 -0.30611 -0.80661
vn -0.30411 -0.19896 -0.93163
vn -0.75627 -0.45110 -0.47389
vn -0.74668 -0.44998 -0.48988
vn -0.49413 -0.30309 -0.81484
vn 0.85805 0.30385 -0.41404
vn 0.85049 0.30032 -0.43182
vn 0.86430 0.30885 -0.39698
vn 0.62104 0.20969 -0.75521
vn 0.38837 0.11897 -0.91379
vn 0.39567 0.12336 -0.91007
vn -0.33590 -0.21893 -0.91610
vn 0.84072 0.30204 -0.44940
vn 0.83318 0.29857 -0.46547
vn 0.83055 0.28556 -0.47817
vn 0.55687 0.17782 -0.81134
vn 0.54473 0.17424 -0.82031
vn 0.82644 0.28039 -0.48823
vn 0.34020 0.09050 -0.93599
vn 0.01602 -0.05585 -0.99831
vn 0.01013 -0.04320 -0.99902
vn 0.52940 0.16750 -0.83167
vn -0.48048 -0.29799 -0.82483
vn -0.46792 -0.28149 -0.83774
vn -0.00172 -0.02047 -0.99979
vn -0.73285 -0.46001 -0.50132
vn -0.73005 -0.45967 -0.50570
vn 0.82792 0.26092 -0.49646
vn 0.82104 0.27049 -0.50272
vn 0.49812 0.17635 -0.84898
vn 0.41596 0.29617 -0.85980
vn 0.73623 0.45150 -0.50409
vn -0.04496 0.06606 -0.99680
vn -0.49542 -0.19759 -0.84588
vn -0.79261 -0.35565 -0.49526
f 1//1 9//2 10//3 11//4
f 1//1 11//4 12//5 13//6
f 1//1 13//6 14//7 9//2
f 2//8 15//9 16//10 17//11
f 2//8 17//12 18//12 19//13
f 2//8 19//13 20//14 15//9
f 3//15 21//16 22//17 23//18
f 3//15 19//19 18//20 21//20
f 3//15 23//18 20//21 19//19
f 4//22 24//23 25//24 26//25
f 4//22 26//25 27//26 28//27
f 4//22 28//27 29//28 24//23
f 5//29 30//30 27//26 26//25
f 5//29 26//25 25//24 31//31
f 5//29 31//31 32//32 30//30
f 6//33 11//4 10//3 33//34
f 6//33 33//34 34//35 35//36
f 6//33 35//36 12//5 11//4
f 7//37 36//38 37//39 38//40
f 7//37 39//41 40//42 41//43
f 7//37 41//43 8//44 36//38
f 8//44 42//45 43//46 44//47
f 8//44 44//47 45//48 36//38
f 45//48 46//49 37//39 36//38
f 45//48 44//47 47//50 48//51
f 45//48 48//51 49//52 46//49
f 49//52 50//53 51//54 46//49
f 49//52 48//51 294//55 295//56
f 49//52 295//56 52//57 50//53
f 52//57 53//58 54//59 50//53
f 55//60 56//61 57//62 58//63
f 55//60 58//63 54//59 53//58
f 58//63 57//62 59//64 60//65
f 58//63 60//65 61//66 54//59
f 61//66 60//65 62//67 63//68
f 61//66 63//68 64//69 51//54
f 61//66 51//54 50//53 54//59
f 64//69 63//70 65//71 66//72
f 64//69 66//72 38//40 37//39
f 64//69 37//39 46//49 51//54
f 66//72 65//71 67//73 68//74
f 66//72 68//74 69//75 38//40
f 69//75 68//74 296//76 70//76
f 69//75 70//77 71//78 72//79
f 69//75 72//79 7//37 38//40
f 72//79 73//80 39//41 7//37
f 72//79 71//78 297//81 73//80
f 297//81 74//82 75//83 73//80
f 76//84 298//85 16//10 77//86
f 76//84 77//86 75//83 74//82
f 77//86 16//10 15//9 78//87
f 77//86 78//87 79//88 75//83
f 79//88 78//87 80//89 81//90
f 79//88 81//90 40//42 39//41
f 79//88 39//41 73//80 75//83
f 81//91 80//92 82//93 83//94
f 81//91 83//94 84//95 40//42
f 84//95 83//94 85//96 86//97
f 84//95 86//97 87//98 88//99
f 84//95 88//99 41//43 40//42
f 88//99 87//98 89//100 90//101
f 88//99 90//101 8//44 41//43
f 90//101 89//100 91//102 92//103
f 90//101 92//103 42//45 8//44
f 92//103 91//102 93//104 94//105
f 92//103 94//105 95//106 42//45
f 95//106 94//105 96//107 97//108
f 95//106 97//109 98//110 99//111
f 95//106 99//111 43//46 42//45
f 99//111 98//110 100//112 101//113
f 99//111 101//113 102//114 43//46
f 102//114 47//50 44//47 43//46
f 102//114 101//113 299//115 103//116
f 102//114 103//116 300//117 47//50
f 300//117 294//55 48//51 47//50
f 105//118 104//119 106//120 107//121
f 105//118 107//121 57//62 56//61
f 107//121 106//120 108//122 109//123
f 107//121 109//123 59//64 57//62
f 109//123 108//122 110//124 111//125
f 109//123 111//125 112//126 59//64
f 112//126 111//125 113//127 114//128
f 112//126 114//128 115//129 62//130
f 112//126 62//67 60//65 59//64
f 115//129 114//128 116//131 117//132
f 115//129 117//132 67//73 65//71
f 115//129 65//71 63//70 62//130
f 117//132 116//131 301//133 302//134
f 117//132 302//134 118//135 67//73
f 118//135 296//136 68//74 67//73
f 119//137 303//138 120//139 29//28
f 119//137 29//28 28//27 121//140
f 121//140 28//27 27//26 122//141
f 122//141 27//26 30//30 123//142
f 123//142 30//30 32//32 124//143
f 124//143 32//32 106//120 104//119
f 120//139 303//138 304//144 125//145
f 120//139 125//145 113//127 126//146
f 120//139 126//146 24//23 29//28
f 126//146 113//127 111//125 110//124
f 126//146 110//124 25//24 24//23
f 125//145 304//144 301//133 116//131
f 125//145 116//131 114//128 113//127
f 110//124 108//122 31//31 25//24
f 108//122 106//120 32//32 31//31
f 127//147 305//148 100//112 129//149
f 127//147 129//149 130//150 128//151
f 130//150 129//149 131//152 132//153
f 130//150 132//153 133//154 134//155
f 130//150 134//155 135//156 128//151
f 135//156 134//155 136//157 137//158
f 139//159 138//160 140//161 22//17
f 139//159 22//17 21//16 141//162
f 141//163 21//20 18//20 307//163
f 307//164 18//12 17//12 308//164
f 308//165 17//11 16//10 298//85
f 140//161 138//160 306//166 85//96
f 140//161 85//96 83//94 82//93
f 140//161 82//93 23//18 22//17
f 306//166 309//167 86//97 85//96
f 309//167 142//168 87//98 86//97
f 142//168 143//169 89//100 87//98
f 143//169 310//170 91//102 89//100
f 310//170 144//171 93//104 91//102
f 144//171 145//172 146//173 93//104
f 146//173 145//172 311//174 147//175
f 146//173 147//175 148//176 96//107
f 146//173 96//107 94//105 93//104
f 148//176 147//175 149//177 150//178
f 148//176 150//178 151//179 152//180
f 148//176 152//180 97//108 96//107
f 152//181 151//182 132//153 131//152
f 152//181 131//152 98//110 97//109
f 151//179 150//178 153//183 154//184
f 151//182 154//185 133//154 132//153
f 154//184 153//183 155//186 156//187
f 154//185 156//188 157//188 133//154
f 157//188 156//188 158//189 159//189
f 157//190 159//191 160//192 136//157
f 157//190 136//157 134//155 133//154
f 160//192 159//191 161//193 162//194
f 160//192 162//194 312//195 313//196
f 160//192 313//196 137//158 136//157
f 163//197 314//198 164//199 149//177
f 163//197 149//177 147//175 311//174
f 164//199 314//198 315//200 165//201
f 164//199 165//201 155//186 153//183
f 164//199 153//183 150//178 149//177
f 165//201 315//200 316//202 166//203
f 165//201 166//203 167//204 155//186
f 167//204 166//203 168//205 169//206
f 167//204 169//206 170//207 158//208
f 167//204 158//208 156//187 155//186
f 170//207 169//206 171//209 172//210
f 170//211 172//212 173//212 161//211
f 170//211 161//211 159//189 158//189
f 173//212 172//212 174//213 175//213
f 173//214 175//215 176//216 177//217
f 173//214 177//217 162//194 161//193
f 177//217 176//216 317//218 178//219
f 177//217 178//219 312//195 162//194
f 319//220 318//221 179//222 168//205
f 319//220 168//205 166//203 316//202
f 179//222 318//221 180//223 181//224
f 179//222 181//224 182//225 171//209
f 179//222 171//209 169//206 168//205
f 182//225 181//224 183//226 184//227
f 182//225 184//227 185//228 174//229
f 182//225 174//229 172//210 171//209
f 185//228 184//227 186//230 187//231
f 185//232 187//233 188//234 189//232
f 185//232 189//232 175//213 174//213
f 189//235 188//234 190//236 191//237
f 189//235 191//237 176//216 175//215
f 191//237 190//236 320//238 321//239
f 191//237 321//239 317//218 176//216
f 322//240 323//241 192//242 183//226
f 322//240 183//226 181//224 180//223
f 192//242 323//241 193//243 194//244
f 192//242 194//244 195//245 186//230
f 192//242 186//230 184//227 183//226
f 195//245 194//244 196//246 197//247
f 195//245 197//247 198//248 199//249
f 195//245 199//249 187//231 186//230
f 199//250 198//251 200//252 201//253
f 199//250 201//253 188//234 187//233
f 201//253 200//252 202//254 203//255
f 201//253 203//255 190//236 188//234
f 203//255 202//254 204//256 324//257
f 203//255 324//257 320//238 190//236
f 205//258 325//259 206//260 196//246
f 205//258 196//246 194//244 193//243
f 326//261 327//262 209//263 210//264
f 326//261 210//264 211//265 208//266
f 211//265 210//264 212//267 213//268
f 211//265 213//268 214//269 215//270
f 211//265 215//270 216//271 208//266
f 216//271 215//270 217//272 218//273
f 219//274 328//275 220//276 221//277
f 219//274 221//277 222//278 207//279
f 222//278 206//260 325//259 207//279
f 222//278 221//277 223//280 224//281
f 222//278 224//281 225//282 206//260
f 225//282 197//247 196//246 206//260
f 225//282 224//281 226//283 227//284
f 225//282 227//284 198//248 197//247
f 227//285 226//286 228//287 229//288
f 227//285 229//288 200//252 198//251
f 229//288 228//287 230//289 231//290
f 229//288 231//290 202//254 200//252
f 231//290 230//289 232//291 233//292
f 231//290 233//292 204//256 202//254
f 234//293 232//291 230//289 235//294
f 234//293 235//294 236//295 329//296
f 236//295 235//294 237//297 238//298
f 236//295 238//298 239//299 209//263
f 236//295 209//263 327//262 329//296
f 239//299 238//298 240//300 241//301
f 239//299 241//301 242//302 212//267
f 239//299 212//267 210//264 209//263
f 242//303 241//304 243//305 244//306
f 242//303 244//306 245//307 246//308
f 242//302 246//309 213//268 212//267
f 246//308 245//307 247//310 248//311
f 246//309 248//312 214//269 213//268
f 248//311 247//310 249//313 250//314
f 248//312 250//315 251//316 214//269
f 251//316 250//315 252//317 253//318
f 251//316 253//318 254//319 217//272
f 251//316 217//272 215//270 214//269
f 254//319 253//318 255//320 256//321
f 254//319 256//321 330//322 331//323
f 254//319 331//323 218//273 217//272
f 332//324 258//325 259//326 260//327
f 332//324 260//327 261//328 333//329
f 261//328 220//276 328//275 333//329
f 261//328 260//327 244//306 243//305
f 261//328 243//305 262//330 220//276
f 262//330 223//280 221//277 220//276
f 262//330 243//305 241//304 240//331
f 262//330 240//331 263//332 223//280
f 263//332 226//283 224//281 223//280
f 263//333 240//300 238//298 237//297
f 263//333 237//297 228//287 226//286
f 260//327 259//326 245//307 244//306
f 259//326 258//325 257//334 264//335
f 259//326 264//335 247//310 245//307
f 264//335 257//334 265//336 266//337
f 264//335 266//337 249//313 247//310
f 266//337 265//336 267//338 268//339
f 266//337 268//339 269//340 249//313
f 269//340 268//339 270//341 271//342
f 269//340 271//342 272//343 252//344
f 269//340 252//344 250//314 249//313
f 272//343 271//342 273//345 274//346
f 272//343 274//346 275//347 255//320
f 272//343 255//320 253//318 252//317
f 275//347 274//346 276//348 277//349
f 275//347 277//349 278//350 279//351
f 275//347 279//351 256//321 255//320
f 279//351 278//350 334//352 335//353
f 279//351 335//353 330//322 256//321
f 337//354 336//355 280//356 270//341
f 337//354 270//341 268//339 267//338
f 280//356 336//355 281//357 282//358
f 280//356 282//358 283//359 273//345
f 280//356 273//345 271//342 270//341
f 283//359 282//358 284//360 285//361
f 283//359 285//361 286//362 276//348
f 283//359 276//348 274//346 273//345
f 286//362 285//361 33//34 10//3
f 286//362 10//3 9//2 287//363
f 286//362 287//363 277//349 276//348
f 287//363 9//2 14//7 288//364
f 287//363 288//364 278//350 277//349
f 288//364 14//7 338//365 339//366
f 288//364 339//366 334//352 278//350
f 289//367 290//368 34//35 284//360
f 289//367 284//360 282//358 281//357
f 290//368 291//369 35//36 34//35
f 291//369 292//370 12//5 35//36
f 292//370 293//371 13//6 12//5
f 293//371 338//365 14//7 13//6
f 285//361 284//360 34//35 33//34
f 237//297 235//294 230//289 228//287
f 131//152 129//149 100//112 98//110
f 305//148 299//115 101//113 100//112
f 82//93 80//92 20//21 23//18
f 80//89 78//87 15//9 20//14
f 350//372 349//373 348//374 340//375
f 352//376 351//377 350//372 340//375
f 348//374 353//378 352//376 340//375
f 356//379 355//380 354//381 341//382
f 358//383 357//384 356//379 341//382
f 354//381 359//385 358//383 341//382
f 362//386 361//387 360//388 342//389
f 360//390 357//390 358//391 342//389
f 358//391 359//392 362//386 342//389
f 365//393 364//394 363//395 343//396
f 367//397 366//398 365//393 343//396
f 363//395 368//399 367//397 343//396
f 365//393 366//398 369//400 344//401
f 370//402 364//394 365//393 344//401
f 369//400 371//403 370//402 344//401
f 372//404 349//373 350//372 345//405
f 374//406 373//407 372//404 345//405
f 350//372 351//377 374//406 345//405
f 377//408 376//409 375//410 346//411
f 380//412 379//413 378//414 346//411
f 375//410 347//415 380//412 346//411
f 383//416 382//417 381//418 347//415
f 375//410 384//419 383//416 347//415
f 375//410 376//409 385//420 384//419
f 387//421 386//422 383//416 384//419
f 385//420 388//423 387//421 384//419
f 385//420 390//424 389//425 388//423
f 295//56 294//55 387//421 388//423
f 389//425 52//57 295//56 388//423
f 389//425 391//426 53//58 52//57
f 393//427 392//428 56//61 55//60
f 53//58 391//426 393//427 55//60
f 395//429 394//430 392//428 393//427
f 391//426 396//431 395//429 393//427
f 398//432 397//433 395//429 396//431
f 390//424 399//434 398//432 396//431
f 391//426 389//425 390//424 396//431
f 401//435 400//436 398//437 399//434
f 376//409 377//408 401//435 399//434
f 390//424 385//420 376//409 399//434
f 403//438 402//439 400//436 401//435
f 377//408 404//440 403//438 401//435
f 70//76 296//76 403//438 404//440
f 405//441 71//78 70//77 404//440
f 377//408 346//411 405//441 404//440
f 346//411 378//414 406//442 405//441
f 406//442 297//81 71//78 405//441
f 406//442 407//443 74//82 297//81
f 408//444 355//380 298//85 76//84
f 74//82 407//443 408//444 76//84
f 409//445 354//381 355//380 408//444
f 407//443 410//446 409//445 408//444
f 412//447 411//448 409//445 410//446
f 378//414 379//413 412//447 410//446
f 407//443 406//442 378//414 410//446
f 414//449 413//450 411//451 412//452
f 379//413 415//453 414//449 412//452
f 417//454 416//455 414//449 415//453
f 419//456 418//457 417//454 415//453
f 379//413 380//412 419//456 415//453
f 421//458 420//459 418//457 419//456
f 380//412 347//415 421//458 419//456
f 423//460 422//461 420//459 421//458
f 347//415 381//418 423//460 421//458
f 425//462 424//463 422//461 423//460
f 381//418 426//464 425//462 423//460
f 428//465 427//466 425//462 426//464
f 430//467 429//468 428//469 426//464
f 381//418 382//417 430//467 426//464
f 432//470 431//471 429//468 430//467
f 382//417 433//472 432//470 430//467
f 382//417 383//416 386//422 433//472
f 103//116 299//115 432//470 433//472
f 386//422 300//117 103//116 433//472
f 386//422 387//421 294//55 300//117
f 435//473 434//474 104//119 105//118
f 56//61 392//428 435//473 105//118
f 437//475 436//476 434//474 435//473
f 392//428 394//430 437//475 435//473
f 439//477 438//478 436//476 437//475
f 394//430 440//479 439//477 437//475
f 442//480 441//481 439//477 440//479
f 397//482 443//483 442//480 440//479
f 394//430 395//429 397//433 440//479
f 445//484 444//485 442//480 443//483
f 400//436 402//439 445//484 443//483
f 397//482 398//437 400//436 443//483
f 302//134 301//133 444//485 445//484
f 402//439 118//135 302//134 445//484
f 402//439 403//438 296//136 118//135
f 368//399 446//486 303//138 119//137
f 121//140 367//397 368//399 119//137
f 122//141 366//398 367//397 121//140
f 123//142 369//400 366//398 122//141
f 124//143 371//403 369//400 123//142
f 104//119 434//474 371//403 124//143
f 447//487 304//144 303//138 446//486
f 448//488 441//481 447//487 446//486
f 368//399 363//395 448//488 446//486
f 438//478 439//477 441//481 448//488
f 363//395 364//394 438//478 448//488
f 444//485 301//133 304//144 447//487
f 441//481 442//480 444//485 447//487
f 364//394 370//402 436//476 438//478
f 370//402 371//403 434//474 436//476
f 449//489 431//471 305//148 127//147
f 128//151 450//490 449//489 127//147
f 452//491 451//492 449//489 450//490
f 454//493 453//494 452//491 450//490
f 128//151 135//156 454//493 450//490
f 137//158 455//495 454//493 135//156
f 361//387 456//496 138//160 139//159
f 141//162 360//388 361//387 139//159
f 307//163 357//390 360//390 141//163
f 308//164 356//379 357//384 307//164
f 298//85 355//380 356//379 308//165
f 416//455 306//166 138//160 456//496
f 413//450 414//449 416//455 456//496
f 361//387 362//386 413//450 456//496
f 416//455 417//454 309//167 306//166
f 417//454 418//457 142//168 309//167
f 418//457 420//459 143//497 142//168
f 420//459 422//461 310//170 143//497
f 422//461 424//463 144//171 310//170
f 424//463 457//498 145//172 144//171
f 458//499 311//174 145//172 457//498
f 427//466 459//500 458//499 457//498
f 424//463 425//462 427//466 457//498
f 461//501 460//502 458//499 459//500
f 463//503 462//504 461//501 459//500
f 427//466 428//465 463//503 459//500
f 451//492 452//491 462//505 463//506
f 428//469 429//468 451//492 463//506
f 465//507 464//508 461//501 462//504
f 452//491 453//494 465//509 462//505
f 467//510 466//511 464//508 465//507
f 453//494 468//512 467//512 465//509
f 470//513 469//513 467//512 468//512
f 455//495 471//514 470//515 468//516
f 453//494 454//493 455//495 468//516
f 473//517 472//518 470//515 471//514
f 313//196 312//195 473//517 471//514
f 455//495 137//158 313//196 471//514
f 460//502 474//519 314//198 163//197
f 311//174 458//499 460//502 163//197
f 475//520 315//200 314//198 474//519
f 464//508 466//511 475//520 474//519
f 460//502 461//501 464//508 474//519
f 476//521 316//202 315//200 475//520
f 466//511 477//522 476//521 475//520
f 479//523 478//524 476//521 477//522
f 469//525 480//526 479//523 477//522
f 466//511 467//510 469//525 477//522
f 482//527 481//528 479//523 480//526
f 472//518 483//529 482//530 480//531
f 469//513 470//513 472//518 480//531
f 485//532 484//532 482//530 483//529
f 487//533 486//534 485//535 483//529
f 472//518 473//517 487//533 483//529
f 178//219 317//218 486//534 487//533
f 473//517 312//195 178//219 487//533
f 478//524 488//536 318//221 319//220
f 316//202 476//521 478//524 319//220
f 489//537 180//223 318//221 488//536
f 481//528 490//538 489//537 488//536
f 478//524 479//523 481//528 488//536
f 492//539 491//540 489//537 490//538
f 484//541 493//542 492//539 490//538
f 481//528 482//527 484//541 490//538
f 495//543 494//544 492//539 493//542
f 497//545 496//546 495//547 493//548
f 484//532 485//532 497//545 493//548
f 499//549 498//550 496//546 497//545
f 485//535 486//534 499//549 497//545
f 321//239 320//238 498//550 499//549
f 486//534 317//218 321//239 499//549
f 491//540 500//551 323//241 322//240
f 180//223 489//537 491//540 322//240
f 501//552 193//243 323//241 500//551
f 494//544 502//553 501//552 500//551
f 491//540 492//539 494//544 500//551
f 504//554 503//555 501//552 502//553
f 506//556 505//557 504//554 502//553
f 494//544 495//543 506//556 502//553
f 508//558 507//559 505//560 506//561
f 495//547 496//546 508//558 506//561
f 510//562 509//563 507//559 508//558
f 496//546 498//550 510//562 508//558
f 324//257 204//256 509//563 510//562
f 498//550 320//238 324//257 510//562
f 503//555 511//564 325//259 205//258
f 193//243 501//552 503//555 205//258
f 513//565 512//566 327//262 326//261
f 208//266 514//567 513//565 326//261
f 516//568 515//569 513//565 514//567
f 518//570 517//571 516//568 514//567
f 208//266 216//271 518//570 514//567
f 218//273 519//572 518//570 216//271
f 521//573 520//574 328//275 219//274
f 207//279 522//575 521//573 219//274
f 207//279 325//259 511//564 522//575
f 524//576 523//577 521//573 522//575
f 511//564 525//578 524//576 522//575
f 511//564 503//555 504//554 525//578
f 527//579 526//580 524//576 525//578
f 504//554 505//557 527//579 525//578
f 529//581 528//582 526//583 527//584
f 505//560 507//559 529//581 527//584
f 531//585 530//586 528//582 529//581
f 507//559 509//563 531//585 529//581
f 233//292 232//291 530//586 531//585
f 509//563 204//256 233//292 531//585
f 532//587 530//586 232//291 234//293
f 329//296 533//588 532//587 234//293
f 535//589 534//590 532//587 533//588
f 512//566 536//591 535//589 533//588
f 329//296 327//262 512//566 533//588
f 538//592 537//593 535//589 536//591
f 515//569 539//594 538//592 536//591
f 512//566 513//565 515//569 536//591
f 541//595 540//596 538//597 539//598
f 543//599 542//600 541//595 539//598
f 515//569 516//568 543//601 539//594
f 545//602 544//603 542//600 543//599
f 516//568 517//571 545//604 543//601
f 547//605 546//606 544//603 545//602
f 517//571 548//607 547//608 545//604
f 550//609 549//610 547//608 548//607
f 519//572 551//611 550//609 548//607
f 517//571 518//570 519//572 548//607
f 553//612 552//613 550//609 551//611
f 331//323 330//322 553//612 551//611
f 519//572 218//273 331//323 551//611
f 555//614 554//615 258//325 332//324
f 333//329 556//616 555//614 332//324
f 333//329 328//275 520//574 556//616
f 540//596 541//595 555//614 556//616
f 520//574 557//617 540//596 556//616
f 520//574 521//573 523//577 557//617
f 537//618 538//597 540//596 557//617
f 523//577 558//619 537//618 557//617
f 523//577 524//576 526//580 558//619
f 534//590 535//589 537//593 558//620
f 526//583 528//582 534//590 558//620
f 541//595 542//600 554//615 555//614
f 559//621 257//334 258//325 554//615
f 542//600 544//603 559//621 554//615
f 560//622 265//336 257//334 559//621
f 544//603 546//606 560//622 559//621
f 561//623 267//338 265//336 560//622
f 546//606 562//624 561//623 560//622
f 564//625 563//626 561//623 562//624
f 549//627 565//628 564//625 562//624
f 546//606 547//605 549//627 562//624
f 567//629 566//630 564//625 565//628
f 552//613 568//631 567//629 565//628
f 549//610 550//609 552//613 565//628
f 570//632 569//633 567//629 568//631
f 572//634 571//635 570//632 568//631
f 552//613 553//612 572//634 568//631
f 335//353 334//352 571//635 572//634
f 553//612 330//322 335//353 572//634
f 563//626 573//636 336//355 337//354
f 267//338 561//623 563//626 337//354
f 574//637 281//357 336//355 573//636
f 566//630 575//638 574//637 573//636
f 563//626 564//625 566//630 573//636
f 577//639 576//640 574//637 575//638
f 569//633 578//641 577//639 575//638
f 566//630 567//629 569//633 575//638
f 349//373 372//404 577//639 578//641
f 579//642 348//374 349//373 578//641
f 569//633 570//632 579//642 578//641
f 580//643 353//378 348//374 579//642
f 570//632 571//635 580//643 579//642
f 339//366 338//365 353//378 580//643
f 571//635 334//352 339//366 580//643
f 576//640 373//407 290//368 289//367
f 281//357 574//637 576//640 289//367
f 373//407 374//406 291//369 290//368
f 374//406 351//377 292//370 291//369
f 351//377 352//376 293//371 292//370
f 352//376 353//378 338//365 293//371
f 372//404 373//407 576//640 577//639
f 528//582 530//586 532//587 534//590
f 429//468 431//471 449//489 451//492
f 431//471 432//470 299//115 305//148
f 362//386 359//392 411//451 413//450
f 359//385 354//381 409//445 411//448
