# pilowlava3D glyph 'v' variant 3 — Vincent Wagner / Velvetyne, Free Art License
v 2.81621 3.97504 -0.30097
v 2.84714 1.98734 -0.41891
v 2.48453 2.29636 -0.48798
v 0.39044 3.44984 -0.45598
v 3.47704 4.40334 -0.31719
v 3.70540 4.26949 -0.37814
v 3.41164 4.09757 -0.54251
v 3.22960 4.32516 -0.36989
v 2.73042 3.99908 -0.00000
v 2.74544 3.72706 -0.00000
v 2.95595 4.16533 -0.37395
v 3.11154 3.92399 -0.53992
v 2.86966 3.77365 -0.34679
v 2.97083 1.89412 -0.27331
v 2.61842 1.69763 -0.26613
v 2.58459 1.92139 -0.45742
v 2.82503 2.29171 -0.44042
v 3.01624 2.29782 -0.26132
v 2.50864 2.59617 -0.44441
v 2.71973 2.60484 -0.41961
v 2.25589 1.93095 -0.44323
v 2.19611 2.18490 -0.46961
v 0.09361 3.89979 -0.28517
v 0.24515 4.09100 -0.37219
v 0.33736 3.72658 -0.50935
v 0.10442 3.60695 -0.31980
v 0.58160 3.86108 -0.59343
v 0.61038 3.48499 -0.50301
v 0.59891 3.23360 -0.28263
v 0.28061 3.30408 -0.30203
v 0.00000 3.58097 -0.00000
v 0.01558 3.94080 -0.00000
v 0.47095 4.44340 -0.00000
v 0.51253 4.27316 -0.39440
v 0.82301 4.49659 -0.00000
v 1.17709 4.43642 -0.00000
v 1.14474 4.30437 -0.34849
v 0.82539 4.33677 -0.37395
v 1.08653 3.97833 -0.55869
v 0.82935 3.95869 -0.58604
v 1.05641 3.60153 -0.52537
v 0.83951 3.55943 -0.52499
v 1.07234 3.33926 -0.29794
v 0.85783 3.28970 -0.29420
v 1.08871 3.22385 -0.00000
v 0.86772 3.17445 -0.00000
v 1.48502 4.27290 -0.00000
v 1.67461 3.99054 -0.29263
v 1.43524 4.17288 -0.31793
v 1.59254 3.81291 -0.47854
v 1.34042 3.92609 -0.52464
v 1.52368 3.58458 -0.46748
v 1.27985 3.60746 -0.50943
v 1.49716 3.39529 -0.27734
v 1.28355 3.37416 -0.29185
v 1.49825 3.30061 -0.00000
v 2.10403 3.59850 -0.22962
v 1.89601 3.79667 -0.26186
v 2.05679 3.51765 -0.36646
v 1.83614 3.67493 -0.42205
v 1.98782 3.41378 -0.36827
v 1.76762 3.52284 -0.41618
v 1.92873 3.33079 -0.21650
v 1.71660 3.38623 -0.24823
v 2.10315 3.20700 -0.00000
v 2.51726 3.18428 -0.00000
v 2.48444 3.16864 -0.21206
v 2.30063 3.39228 -0.21116
v 2.41772 3.13555 -0.33696
v 2.25076 3.34113 -0.33026
v 2.31866 3.08090 -0.33773
v 2.17305 3.26548 -0.33175
v 2.24992 3.04151 -0.21016
v 2.11592 3.21411 -0.20041
v 2.31424 2.83924 -0.24056
v 2.30811 2.63845 -0.27017
v 2.43581 2.85949 -0.39005
v 2.57176 2.89319 -0.37674
v 2.67192 2.92014 -0.23322
v 2.86810 2.64001 -0.25052
v 2.72255 2.93847 -0.00000
v 2.92537 2.66484 -0.00000
v 3.08075 2.30402 -0.00000
v 2.15338 2.54300 -0.00000
v 2.02135 2.43879 -0.00000
v 1.84425 2.36826 -0.00000
v 2.24884 1.67621 -0.00000
v 2.25595 1.75148 -0.25459
v 1.93340 1.83380 -0.24609
v 1.92886 1.97418 -0.41549
v 1.63202 2.01223 -0.38384
v 1.63077 2.15522 -0.39389
v 1.90297 2.14882 -0.42869
v 1.63460 1.89923 -0.23079
v 1.36407 1.95568 -0.20590
v 1.35886 2.04571 -0.35145
v 1.11095 1.98416 -0.00000
v 1.10582 2.00735 -0.17135
v 0.86395 2.02818 -0.00000
v 0.63809 1.97213 -0.00000
v 0.63290 1.97932 -0.13416
v 0.85863 2.03960 -0.14255
v 0.60716 2.02141 -0.26006
v 0.84238 2.08733 -0.27001
v 1.09636 2.07515 -0.31012
v 0.82658 2.19097 -0.27951
v 1.09927 2.19585 -0.31858
v 1.36366 2.17435 -0.36176
v 1.10799 2.26712 -0.18414
v 1.37291 2.27391 -0.21827
v 1.62683 2.28167 -0.24843
v 1.62395 2.33482 -0.00000
v 1.86494 2.30588 -0.26846
v 2.07518 2.37623 -0.28528
v 2.23274 2.48839 -0.29209
v 0.48120 1.81395 -0.00000
v 0.39839 1.61777 -0.15825
v 0.47488 1.82413 -0.13995
v 0.32561 1.63795 -0.30683
v 0.42749 1.86134 -0.27796
v 0.20755 1.66384 -0.30742
v 0.33148 1.93028 -0.29010
v 0.55653 2.11320 -0.27256
v 0.27527 1.96357 -0.16341
v 0.52679 2.16085 -0.15095
v 0.82469 2.24480 -0.15766
v 0.82481 2.25996 -0.00000
v 0.11316 1.67240 -0.00000
v 0.51620 1.22970 -0.00000
v 0.48621 1.21341 -0.20835
v 0.40039 1.40172 -0.18131
v 0.38675 1.15385 -0.35286
v 0.30855 1.38894 -0.32521
v 0.27141 1.08184 -0.36549
v 0.18472 1.36796 -0.33137
v 0.18672 1.01927 -0.22926
v 0.09798 1.34468 -0.20532
v 0.13300 1.67243 -0.18058
v 0.32846 0.69000 -0.00000
v 0.68663 1.14432 -0.00000
v 0.85664 1.03230 -0.26739
v 0.65150 1.09573 -0.24078
v 0.79340 0.85962 -0.44668
v 0.56104 0.97147 -0.40441
v 0.69225 0.64624 -0.44550
v 0.45844 0.83790 -0.40649
v 0.59492 0.49622 -0.26749
v 0.36667 0.73237 -0.25344
v 0.55367 0.44096 -0.00000
v 0.86407 0.31888 -0.28007
v 1.15659 0.20771 -0.29115
v 1.12468 0.11570 -0.00000
v 0.94690 0.51492 -0.47617
v 1.21443 0.43507 -0.50000
v 1.48590 0.38725 -0.51685
v 1.45155 0.13992 -0.30178
v 1.03204 0.79130 -0.47816
v 1.27631 0.74692 -0.50406
v 1.52303 0.71739 -0.51943
v 1.77309 0.70131 -0.52628
v 1.76048 0.36299 -0.52297
v 1.31003 0.99189 -0.30011
v 1.54411 0.97781 -0.30723
v 1.77945 0.97064 -0.31136
v 2.01653 0.96880 -0.30944
v 2.02481 0.70034 -0.52472
v 2.01595 1.09258 -0.00000
v 2.24913 1.09383 -0.00000
v 2.25156 0.97555 -0.30438
v 2.47908 1.09595 -0.00000
v 2.71419 1.01011 -0.28033
v 2.48451 0.98715 -0.29350
v 2.76320 0.79506 -0.47445
v 2.52049 0.74511 -0.49881
v 2.27399 0.71389 -0.51360
v 2.58403 0.43609 -0.49636
v 2.31169 0.38566 -0.51155
v 2.03624 0.36202 -0.52177
v 2.34645 0.14406 -0.29836
v 2.04732 0.11125 -0.30335
v 1.75024 0.11115 -0.30426
v 2.05313 0.00172 -0.00000
v 1.74292 0.00000 -0.00000
v 1.43205 0.03497 -0.00000
v 1.09479 1.10272 -0.00000
v 1.08046 1.00535 -0.28726
v 2.92345 1.11749 -0.00000
v 3.15791 1.10742 -0.23946
v 2.94020 1.04269 -0.26309
v 3.23013 0.97870 -0.40559
v 2.99921 0.86873 -0.43937
v 3.32539 0.82885 -0.40705
v 3.09872 0.65142 -0.43717
v 2.84949 0.52256 -0.46898
v 3.18915 0.50099 -0.25851
v 2.92815 0.32927 -0.27335
v 2.64261 0.21109 -0.28931
v 3.44919 0.67559 -0.00000
v 3.52231 1.37215 -0.00000
v 3.33318 1.23852 -0.00000
v 3.53819 1.36533 -0.16448
v 3.35709 1.21613 -0.20539
v 3.60631 1.32696 -0.31011
v 3.43961 1.13610 -0.36230
v 3.69930 1.25887 -0.31408
v 3.53085 1.03912 -0.36604
v 3.75610 1.20414 -0.17506
v 3.60027 0.95309 -0.21911
v 3.41118 0.71800 -0.24796
v 3.88516 1.46649 -0.00000
v 3.67108 1.56417 -0.00000
v 3.75677 1.79585 -0.13745
v 3.68025 1.56035 -0.14012
v 3.80550 1.78302 -0.26470
v 3.73349 1.54149 -0.26796
v 3.90636 1.76238 -0.26575
v 3.82747 1.50028 -0.27171
v 3.95531 1.75589 -0.14470
v 3.87357 1.47413 -0.14680
v 3.96942 1.75399 -0.00000
v 4.03049 2.04458 -0.00000
v 4.00900 2.04067 -0.16889
v 4.02991 2.32377 -0.20790
v 4.06837 2.33239 -0.00000
v 3.93936 2.03143 -0.30242
v 3.93112 2.30137 -0.35361
v 3.89996 2.57569 -0.40381
v 4.03615 2.60491 -0.24640
v 3.82619 2.03281 -0.29748
v 3.80424 2.28446 -0.35126
v 3.74072 2.54084 -0.40257
v 3.64946 2.78468 -0.44631
v 3.85831 2.84707 -0.44559
v 3.70636 2.28139 -0.20326
v 3.61194 2.50492 -0.24023
v 3.49182 2.72337 -0.26402
v 3.36584 2.94044 -0.28848
v 3.55782 3.02955 -0.48702
v 3.42067 2.68967 -0.00000
v 3.27974 2.88778 -0.00000
v 3.14111 3.08205 -0.00000
v 3.23970 3.14702 -0.30706
v 2.99693 3.27583 -0.00000
v 2.97127 3.54759 -0.34672
v 3.10329 3.34407 -0.32807
v 3.23535 3.70245 -0.56242
v 3.34587 3.49159 -0.55041
v 3.45692 3.26927 -0.52520
v 3.67494 3.63880 -0.54842
v 3.75476 3.38679 -0.52551
v 3.81088 3.11496 -0.48801
v 4.01134 3.43650 -0.31469
v 4.02203 3.15779 -0.29458
v 4.02733 2.87993 -0.26953
v 3.74568 2.04819 -0.00000
v 3.75941 2.04310 -0.15895
v 4.04387 4.08637 -0.00000
v 3.82169 4.39004 -0.00000
v 3.89314 4.01000 -0.35752
v 3.48410 4.49682 -0.00000
v 3.97791 3.72192 -0.33401
v 3.56909 3.86874 -0.56738
v 2.87798 4.27877 -0.00000
v 0.58182 3.12818 -0.00000
v 0.20161 3.22842 -0.00000
v 0.17270 4.24319 -0.00000
v 1.72676 4.06578 -0.00000
v 1.29668 3.26498 -0.00000
v 2.12923 3.63722 -0.00000
v 1.93271 3.85491 -0.00000
v 1.90768 3.30108 -0.00000
v 1.69783 3.32029 -0.00000
v 2.32321 3.41540 -0.00000
v 2.23416 3.03448 -0.00000
v 2.27286 2.83799 -0.00000
v 2.23882 2.66840 -0.00000
v 3.03024 1.86010 -0.00000
v 1.92769 1.76864 -0.00000
v 2.63289 1.62572 -0.00000
v 1.63388 1.84508 -0.00000
v 1.36623 1.91652 -0.00000
v 1.37920 2.31230 -0.00000
v 0.41182 1.61184 -0.00000
v 0.51976 2.17104 -0.00000
v 1.11348 2.29090 -0.00000
v 0.26151 1.97013 -0.00000
v 0.42030 1.40289 -0.00000
v 0.07126 1.33446 -0.00000
v 0.15503 0.99420 -0.00000
v 0.88293 1.11090 -0.00000
v 0.82692 0.24619 -0.00000
v 1.54857 1.09525 -0.00000
v 1.78236 1.09414 -0.00000
v 2.70348 1.10336 -0.00000
v 1.31749 1.09955 -0.00000
v 3.13118 1.15729 -0.00000
v 2.96396 0.25749 -0.00000
v 2.67081 0.12282 -0.00000
v 2.36377 0.04164 -0.00000
v 3.22891 0.44703 -0.00000
v 3.62546 0.91935 -0.00000
v 3.77113 1.18531 -0.00000
v 3.74925 1.79850 -0.00000
v 3.55952 2.48614 -0.00000
v 2.85454 3.48121 -0.00000
v 4.12112 3.15921 -0.00000
v 4.10710 2.88609 -0.00000
v 4.09735 2.61287 -0.00000
v 3.67337 2.28404 -0.00000
v 4.12274 3.75207 -0.00000
v 3.16301 4.44320 -0.00000
v 4.13268 3.43983 -0.00000
v 2.81621 3.97504 0.30097
v 2.84714 1.98734 0.41891
v 2.48453 2.29636 0.48798
v 0.39044 3.44984 0.45598
v 3.47704 4.40334 0.31719
v 3.70540 4.26949 0.37814
v 3.41164 4.09757 0.54251
v 3.22960 4.32516 0.36989
v 2.95595 4.16533 0.37395
v 3.11154 3.92399 0.53992
v 2.86966 3.77365 0.34679
v 2.97083 1.89412 0.27331
v 2.61842 1.69763 0.26613
v 2.58459 1.92139 0.45742
v 2.82503 2.29171 0.44042
v 3.01624 2.29782 0.26132
v 2.50864 2.59617 0.44441
v 2.71973 2.60484 0.41961
v 2.25589 1.93095 0.44323
v 2.19611 2.18490 0.46961
v 0.09361 3.89979 0.28517
v 0.24515 4.09100 0.37219
v 0.33736 3.72658 0.50935
v 0.10442 3.60695 0.31980
v 0.58160 3.86108 0.59343
v 0.61038 3.48499 0.50301
v 0.59891 3.23360 0.28263
v 0.28061 3.30408 0.30203
v 0.51253 4.27316 0.39440
v 1.14474 4.30437 0.34849
v 0.82539 4.33677 0.37395
v 1.08653 3.97833 0.55869
v 0.82935 3.95869 0.58604
v 1.05641 3.60153 0.52537
v 0.83951 3.55943 0.52499
v 1.07234 3.33926 0.29794
v 0.85783 3.28970 0.29420
v 1.67461 3.99054 0.29263
v 1.43524 4.17288 0.31793
v 1.59254 3.81291 0.47854
v 1.34042 3.92609 0.52464
v 1.52368 3.58458 0.46748
v 1.27985 3.60746 0.50943
v 1.49716 3.39529 0.27734
v 1.28355 3.37416 0.29185
v 2.10403 3.59850 0.22962
v 1.89601 3.79667 0.26186
v 2.05679 3.51765 0.36646
v 1.83614 3.67493 0.42205
v 1.98782 3.41378 0.36827
v 1.76762 3.52284 0.41618
v 1.92873 3.33079 0.21650
v 1.71660 3.38623 0.24823
v 2.48444 3.16864 0.21206
v 2.30063 3.39228 0.21116
v 2.41772 3.13555 0.33696
v 2.25076 3.34113 0.33026
v 2.31866 3.08090 0.33773
v 2.17305 3.26548 0.33175
v 2.24992 3.04151 0.21016
v 2.11592 3.21411 0.20041
v 2.31424 2.83924 0.24056
v 2.30811 2.63845 0.27017
v 2.43581 2.85949 0.39005
v 2.57176 2.89319 0.37674
v 2.67192 2.92014 0.23322
v 2.86810 2.64001 0.25052
v 2.25595 1.75148 0.25459
v 1.93340 1.83380 0.24609
v 1.92886 1.97418 0.41549
v 1.63202 2.01223 0.38384
v 1.63077 2.15522 0.39389
v 1.90297 2.14882 0.42869
v 1.63460 1.89923 0.23079
v 1.36407 1.95568 0.20590
v 1.35886 2.04571 0.35145
v 1.10582 2.00735 0.17135
v 0.63290 1.97932 0.13416
v 0.85863 2.03960 0.14255
v 0.60716 2.02141 0.26006
v 0.84238 2.08733 0.27001
v 1.09636 2.07515 0.31012
v 0.82658 2.19097 0.27951
v 1.09927 2.19585 0.31858
v 1.36366 2.17435 0.36176
v 1.10799 2.26712 0.18414
v 1.37291 2.27391 0.21827
v 1.62683 2.28167 0.24843
v 1.86494 2.30588 0.26846
v 2.07518 2.37623 0.28528
v 2.23274 2.48839 0.29209
v 0.39839 1.61777 0.15825
v 0.47488 1.82413 0.13995
v 0.32561 1.63795 0.30683
v 0.42749 1.86134 0.27796
v 0.20755 1.66384 0.30742
v 0.33148 1.93028 0.29010
v 0.55653 2.11320 0.27256
v 0.27527 1.96357 0.16341
v 0.52679 2.16085 0.15095
v 0.82469 2.24480 0.15766
v 0.48621 1.21341 0.20835
v 0.40039 1.40172 0.18131
v 0.38675 1.15385 0.35286
v 0.30855 1.38894 0.32521
v 0.27141 1.08184 0.36549
v 0.18472 1.36796 0.33137
v 0.18672 1.01927 0.22926
v 0.09798 1.34468 0.20532
v 0.13300 1.67243 0.18058
v 0.85664 1.03230 0.26739
v 0.65150 1.09573 0.24078
v 0.79340 0.85962 0.44668
v 0.56104 0.97147 0.40441
v 0.69225 0.64624 0.44550
v 0.45844 0.83790 0.40649
v 0.59492 0.49622 0.26749
v 0.36667 0.73237 0.25344
v 0.86407 0.31888 0.28007
v 1.15659 0.20771 0.29115
v 0.94690 0.51492 0.47617
v 1.21443 0.43507 0.50000
v 1.48590 0.38725 0.51685
v 1.45155 0.13992 0.30178
v 1.03204 0.79130 0.47816
v 1.27631 0.74692 0.50406
v 1.52303 0.71739 0.51943
v 1.77309 0.70131 0.52628
v 1.76048 0.36299 0.52297
v 1.31003 0.99189 0.30011
v 1.54411 0.97781 0.30723
v 1.77945 0.97064 0.31136
v 2.01653 0.96880 0.30944
v 2.02481 0.70034 0.52472
v 2.25156 0.97555 0.30438
v 2.71419 1.01011 0.28033
v 2.48451 0.98715 0.29350
v 2.76320 0.79506 0.47445
v 2.52049 0.74511 0.49881
v 2.27399 0.71389 0.51360
v 2.58403 0.43609 0.49636
v 2.31169 0.38566 0.51155
v 2.03624 0.36202 0.52177
v 2.34645 0.14406 0.29836
v 2.04732 0.11125 0.30335
v 1.75024 0.11115 0.30426
v 1.08046 1.00535 0.28726
v 3.15791 1.10742 0.23946
v 2.94020 1.04269 0.26309
v 3.23013 0.97870 0.40559
v 2.99921 0.86873 0.43937
v 3.32539 0.82885 0.40705
v 3.09872 0.65142 0.43717
v 2.84949 0.52256 0.46898
v 3.18915 0.50099 0.25851
v 2.92815 0.32927 0.27335
v 2.64261 0.21109 0.28931
v 3.53819 1.36533 0.16448
v 3.35709 1.21613 0.20539
v 3.60631 1.32696 0.31011
v 3.43961 1.13610 0.36230
v 3.69930 1.25887 0.31408
v 3.53085 1.03912 0.36604
v 3.75610 1.20414 0.17506
v 3.60027 0.95309 0.21911
v 3.41118 0.71800 0.24796
v 3.75677 1.79585 0.13745
v 3.68025 1.56035 0.14012
v 3.80550 1.78302 0.26470
v 3.73349 1.54149 0.26796
v 3.90636 1.76238 0.26575
v 3.82747 1.50028 0.27171
v 3.95531 1.75589 0.14470
v 3.87357 1.47413 0.14680
v 4.00900 2.04067 0.16889
v 4.02991 2.32377 0.20790
v 3.93936 2.03143 0.30242
v 3.93112 2.30137 0.35361
v 3.89996 2.57569 0.40381
v 4.03615 2.60491 0.24640
v 3.82619 2.03281 0.29748
v 3.80424 2.28446 0.35126
v 3.74072 2.54084 0.40257
v 3.64946 2.78468 0.44631
v 3.85831 2.84707 0.44559
v 3.70636 2.28139 0.20326
v 3.61194 2.50492 0.24023
v 3.49182 2.72337 0.26402
v 3.36584 2.94044 0.28848
v 3.55782 3.02955 0.48702
v 3.23970 3.14702 0.30706
v 2.97127 3.54759 0.34672
v 3.10329 3.34407 0.32807
v 3.23535 3.70245 0.56242
v 3.34587 3.49159 0.55041
v 3.45692 3.26927 0.52520
v 3.67494 3.63880 0.54842
v 3.75476 3.38679 0.52551
v 3.81088 3.11496 0.48801
v 4.01134 3.43650 0.31469
v 4.02203 3.15779 0.29458
v 4.02733 2.87993 0.26953
v 3.75941 2.04310 0.15895
v 3.89314 4.01000 0.35752
v 3.97791 3.72192 0.33401
v 3.56909 3.86874 0.56738
vn 0.07919 0.84946 -0.52167
vn 0.42056 0.61388 -0.66804
vn 0.03357 0.35429 -0.93453
vn -0.23235 0.73962 -0.63165
vn -0.85154 0.15196 -0.50178
vn -0.98098 0.19404 0.00467
vn -0.71303 0.70113 0.00136
vn -0.59188 0.49637 -0.63506
vn -0.37617 0.09600 -0.92156
vn -0.77546 -0.17403 -0.60694
vn -0.96385 -0.26643 0.00318
vn 0.42464 -0.25974 -0.86730
vn 0.40361 -0.77301 -0.48944
vn 0.14738 -0.84165 -0.51952
vn 0.08404 -0.39656 -0.91415
vn 0.44429 0.08929 -0.89142
vn 0.86124 0.14592 -0.48680
vn 0.87742 -0.06672 -0.47506
vn 0.07936 -0.01177 -0.99678
vn 0.10011 0.16215 -0.98167
vn 0.40665 0.28599 -0.86767
vn -0.11002 -0.43557 -0.89341
vn -0.07316 -0.10579 -0.99169
vn -0.84728 0.20190 -0.49127
vn -0.63246 0.43285 -0.64237
vn -0.45822 -0.03637 -0.88809
vn -0.79583 -0.17898 -0.57846
vn -0.28807 -0.42534 -0.85796
vn -0.16213 0.08618 -0.98300
vn -0.02390 -0.45710 -0.88909
vn 0.00153 -0.82851 -0.55997
vn -0.46296 -0.66118 -0.59035
vn -0.02560 -0.99967 0.00113
vn -0.22582 -0.97416 0.00296
vn -0.86193 -0.50703 -0.00098
vn -0.96794 -0.25118 0.00073
vn -0.96488 0.26269 -0.00052
vn -0.74251 0.66984 -0.00146
vn -0.34350 0.84746 -0.40473
vn -0.30792 0.65186 -0.69301
vn -0.00432 0.92073 -0.39017
vn 0.28731 0.88625 -0.36333
vn 0.24390 0.73610 -0.63140
vn -0.00373 0.74211 -0.67027
vn 0.13636 0.21936 -0.96607
vn 0.02540 0.17284 -0.98462
vn 0.10240 -0.39496 -0.91298
vn 0.09174 -0.41648 -0.90450
vn 0.15538 -0.80612 -0.57099
vn 0.16001 -0.80436 -0.57219
vn 0.18757 -0.91364 -0.36067
vn 0.18481 -0.91560 -0.35709
vn 0.55176 0.83401 -0.00009
vn 0.66948 0.74283 0.00022
vn 0.57040 0.64013 -0.51466
vn 0.44986 0.68141 -0.57733
vn 0.46587 0.53154 -0.70741
vn 0.24875 0.23267 -0.94021
vn 0.16271 -0.09607 -0.98199
vn 0.11139 -0.43489 -0.89357
vn 0.11594 -0.40385 -0.90745
vn 0.07087 -0.85360 -0.51609
vn 0.12868 -0.82407 -0.55168
vn 0.09820 -0.99517 -0.00074
vn 0.16607 -0.98611 0.00020
vn 0.71205 0.70213 0.00011
vn 0.73388 0.67928 -0.00010
vn 0.67623 0.62835 -0.38457
vn 0.63428 0.63060 -0.44725
vn 0.60660 0.56554 -0.55874
vn 0.54905 0.55125 -0.62823
vn 0.16939 -0.10499 -0.97994
vn 0.14368 -0.09200 -0.98534
vn -0.08967 -0.76832 -0.63376
vn -0.31553 -0.76443 -0.56221
vn -0.32452 -0.86976 -0.37175
vn -0.07302 -0.88886 -0.45233
vn -0.32371 -0.94616 0.00054
vn -0.05567 -0.99845 -0.00011
vn 0.75582 0.65478 -0.00022
vn 0.77406 0.63311 0.00005
vn 0.72552 0.59165 -0.35153
vn 0.70911 0.61335 -0.34780
vn 0.66354 0.53987 -0.51792
vn 0.64688 0.55899 -0.51872
vn 0.05692 -0.02700 -0.99801
vn -0.01035 0.10671 -0.99424
vn -0.57277 -0.62831 -0.52646
vn -0.74328 -0.37328 -0.55516
vn -0.84490 -0.41357 -0.33927
vn -0.62685 -0.70994 -0.32101
vn -0.90122 -0.43336 0.00058
vn -0.65077 -0.75928 -0.00029
vn -0.90291 -0.07647 -0.42297
vn -0.99835 -0.05746 -0.00105
vn -0.80807 0.24492 -0.53576
vn -0.94318 0.33229 -0.00106
vn -0.76088 -0.09052 -0.64254
vn -0.63154 0.14800 -0.76109
vn 0.03051 0.19638 -0.98005
vn 0.66042 0.49282 -0.56655
vn 0.73262 0.55457 -0.39461
vn 0.77498 0.44163 -0.45206
vn 0.79361 0.60842 0.00015
vn 0.86741 0.49759 -0.00005
vn 0.98865 0.15021 0.00007
vn 0.99405 -0.10895 0.00029
vn 0.18811 -0.98215 0.00053
vn -0.20459 -0.97885 -0.00023
vn -0.17057 -0.85344 -0.49249
vn 0.49572 -0.86848 0.00144
vn -0.21689 -0.86601 -0.45054
vn -0.18024 -0.75689 -0.62819
vn -0.25211 -0.96770 -0.00005
vn -0.11566 -0.09571 -0.98867
vn -0.12394 -0.07701 -0.98930
vn -0.21481 -0.88858 -0.40531
vn -0.18741 -0.79611 -0.57541
vn -0.21842 -0.91214 -0.34684
vn -0.19599 -0.83962 -0.50659
vn -0.23954 -0.97089 -0.00001
vn -0.23815 -0.97123 -0.00005
vn -0.19722 -0.98036 -0.00005
vn -0.18414 -0.94274 -0.27808
vn 0.04615 -0.99893 0.00002
vn 0.49456 -0.86915 -0.00001
vn 0.47858 -0.84698 -0.23147
vn 0.04797 -0.97072 -0.23539
vn 0.45249 -0.80696 -0.37957
vn 0.04962 -0.92531 -0.37596
vn -0.16834 -0.89017 -0.42339
vn -0.15667 -0.07857 -0.98452
vn -0.07575 -0.10001 -0.99210
vn -0.14482 -0.07074 -0.98693
vn -0.05486 0.82246 -0.56617
vn -0.07508 0.87645 -0.47560
vn -0.07885 0.94829 -0.30746
vn -0.06292 0.92436 -0.37629
vn -0.09330 0.89296 -0.44036
vn -0.07896 0.75768 -0.64783
vn -0.06764 0.99771 0.00021
vn -0.10379 0.99460 -0.00003
vn -0.24516 0.96948 -0.00068
vn -0.20983 0.84438 -0.49294
vn -0.16641 0.68387 -0.71037
vn -0.48283 0.87571 -0.00084
vn -0.38738 0.74187 -0.54733
vn -0.27587 0.57428 -0.77078
vn -0.74057 0.67198 0.00025
vn -0.60015 0.54222 -0.58806
vn -0.42823 0.38275 -0.81861
vn 0.84552 -0.53394 0.00012
vn 0.98804 -0.15422 -0.00001
vn 0.94749 -0.15285 -0.28089
vn 0.81700 -0.52150 -0.24607
vn 0.87515 -0.14623 -0.46123
vn 0.76760 -0.49595 -0.40598
vn 0.10599 0.00747 -0.99434
vn 0.06019 0.06505 -0.99607
vn 0.05974 -0.07584 -0.99533
vn -0.40986 0.81073 -0.41800
vn -0.68033 0.57345 -0.45640
vn -0.73907 0.61299 -0.27932
vn -0.43741 0.86213 -0.25573
vn -0.18520 0.94723 -0.26165
vn -0.17850 0.89062 -0.41825
vn -0.45361 0.89120 -0.00005
vn -0.18796 0.98218 0.00001
vn -0.08025 0.99678 0.00008
vn -0.77427 0.63286 -0.00002
vn 0.96835 0.24959 0.00027
vn 0.72571 0.68800 -0.00067
vn 0.67276 0.61665 -0.40884
vn 0.91299 0.22770 -0.33853
vn 0.58787 0.51847 -0.62096
vn 0.81756 0.19518 -0.54176
vn 0.02928 0.10078 -0.99448
vn -0.02303 0.13866 -0.99007
vn -0.82787 -0.02769 -0.56024
vn -0.74043 -0.28202 -0.61011
vn -0.85072 -0.33775 -0.40273
vn -0.93289 -0.04679 -0.35712
vn -0.90719 0.28050 -0.31357
vn -0.82141 0.26402 -0.50555
vn -0.99794 -0.06416 -0.00004
vn -0.95816 0.28623 0.00003
vn -0.92498 -0.38002 -0.00022
vn 0.36430 0.93128 -0.00020
vn 0.14128 0.98997 0.00053
vn 0.12901 0.84991 -0.51090
vn 0.33492 0.82094 -0.46247
vn 0.11532 0.69728 -0.70746
vn 0.29339 0.68433 -0.66755
vn -0.09938 0.11640 -0.98822
vn -0.11719 0.05903 -0.99135
vn -0.60589 -0.44242 -0.66119
vn -0.46657 -0.53600 -0.70357
vn -0.57068 -0.65606 -0.49388
vn -0.71812 -0.52938 -0.45173
vn -0.65610 -0.75467 -0.00008
vn -0.80272 -0.59635 -0.00006
vn -0.40823 -0.74657 -0.52534
vn -0.47987 -0.87734 0.00005
vn -0.26493 -0.79351 -0.54787
vn -0.31538 -0.94897 0.00030
vn -0.32748 -0.59898 -0.73074
vn -0.21241 -0.63098 -0.74615
vn -0.11912 -0.64549 -0.75442
vn -0.14727 -0.81396 -0.56195
vn -0.07824 0.00672 -0.99691
vn -0.10231 0.02501 -0.99444
vn -0.03187 0.34571 -0.93780
vn -0.01440 0.33309 -0.94279
vn -0.04378 -0.00378 -0.99903
vn 0.00037 0.32797 -0.94469
vn -0.01006 -0.00805 -0.99992
vn 0.02406 0.81994 -0.57194
vn 0.02015 0.81034 -0.58562
vn 0.01108 0.80509 -0.59305
vn 0.00138 0.80411 -0.59448
vn 0.01472 0.32794 -0.94459
vn 0.02226 0.93446 -0.35537
vn 0.01067 0.93034 -0.36653
vn -0.00188 0.92963 -0.36849
vn -0.01552 0.93245 -0.36096
vn -0.01176 0.80842 -0.58849
vn -0.03851 0.99926 -0.00009
vn -0.07410 0.99725 0.00009
vn -0.06502 0.83433 -0.54742
vn -0.03307 0.81864 -0.57335
vn -0.05556 0.66664 -0.74331
vn 0.02675 0.34663 -0.93762
vn 0.02235 0.33386 -0.94236
vn 0.07782 0.00689 -0.99694
vn 0.04930 -0.00112 -0.99878
vn 0.02321 -0.00678 -0.99971
vn 0.04292 -0.65489 -0.75450
vn 0.12433 -0.64759 -0.75178
vn 0.15361 -0.81588 -0.55744
vn 0.05260 -0.82363 -0.56469
vn -0.04286 -0.82301 -0.56640
vn -0.03498 -0.65382 -0.75584
vn 0.06253 -0.99804 -0.00008
vn -0.05101 -0.99870 -0.00008
vn -0.17571 -0.98444 0.00005
vn 0.04588 0.99895 -0.00026
vn 0.03016 0.99955 0.00011
vn 0.04222 0.83457 -0.54928
vn 0.03779 0.66681 -0.74427
vn -0.15852 0.98736 -0.00038
vn -0.32098 0.94709 -0.00001
vn -0.29674 0.84179 -0.45092
vn -0.14501 0.84788 -0.50998
vn -0.26344 0.70927 -0.65386
vn -0.12778 0.69134 -0.71114
vn 0.11388 0.04411 -0.99252
vn 0.10569 0.08139 -0.99106
vn 0.11142 0.02277 -0.99351
vn 0.34553 -0.59655 -0.72438
vn 0.46389 -0.55019 -0.69433
vn 0.56228 -0.66687 -0.48899
vn 0.42334 -0.74171 -0.52025
vn 0.27784 -0.79215 -0.54342
vn 0.22534 -0.62963 -0.74349
vn 0.49175 -0.87074 0.00003
vn 0.32670 -0.94513 0.00002
vn 0.18265 -0.98318 0.00008
vn 0.64488 -0.76428 0.00021
vn -0.50933 0.86057 0.00034
vn -0.70467 0.70954 -0.00023
vn -0.67709 0.67298 -0.29774
vn -0.48061 0.79383 -0.37263
vn -0.62660 0.61518 -0.47846
vn -0.43418 0.69747 -0.57011
vn 0.10636 0.13582 -0.98501
vn 0.07655 0.15997 -0.98415
vn 0.69224 -0.43747 -0.57395
vn 0.79366 -0.37661 -0.47778
vn 0.85666 -0.41368 -0.30822
vn 0.77630 -0.50012 -0.38371
vn 0.67942 -0.58256 -0.44611
vn 0.57866 -0.49568 -0.64765
vn 0.83694 -0.54730 0.00010
vn 0.75865 -0.65150 0.00013
vn 0.89842 -0.43913 0.00012
vn -0.88541 0.46481 -0.00001
vn -0.98773 0.15617 0.00002
vn -0.96015 0.15080 -0.23530
vn -0.85922 0.44750 -0.24796
vn -0.90764 0.14120 -0.39528
vn -0.80962 0.41755 -0.41251
vn 0.01548 0.09023 -0.99580
vn -0.02942 -0.05267 -0.99818
vn 0.86413 -0.30186 -0.40269
vn 0.89223 -0.22022 -0.39424
vn 0.93982 -0.23230 -0.25055
vn 0.91262 -0.32001 -0.25438
vn 0.97077 -0.24001 -0.00004
vn 0.94342 -0.33160 0.00009
vn 0.94267 -0.15123 -0.29748
vn 0.98768 -0.15651 0.00001
vn 0.92346 -0.08756 -0.37357
vn 0.99548 -0.09496 -0.00003
vn 0.87779 -0.14351 -0.45705
vn 0.82935 -0.08020 -0.55294
vn 0.76943 -0.03330 -0.63786
vn 0.89311 -0.03945 -0.44811
vn 0.00014 -0.19164 -0.98147
vn -0.03015 -0.16404 -0.98599
vn 0.02866 -0.16968 -0.98508
vn 0.04220 -0.15149 -0.98756
vn -0.69644 -0.37383 -0.61256
vn -0.79771 -0.29377 -0.52665
vn -0.87757 -0.33392 -0.34405
vn -0.79127 -0.43990 -0.42471
vn -0.73542 -0.46794 -0.49010
vn -0.62709 -0.38880 -0.67498
vn -0.70137 -0.46858 -0.53713
vn -0.57980 -0.38333 -0.71895
vn -0.86954 -0.49386 0.00086
vn -0.83896 -0.54420 -0.00006
vn -0.82931 -0.55879 -0.00017
vn -0.76243 -0.54326 -0.35151
vn -0.66888 -0.47755 -0.56969
vn -0.75820 -0.54421 -0.35911
vn -0.81283 -0.45772 -0.36028
vn -0.68909 -0.38773 -0.61223
vn -0.65224 -0.47159 -0.59345
vn -0.27382 -0.14588 -0.95065
vn -0.24739 -0.23087 -0.94101
vn -0.26191 -0.26166 -0.92894
vn 0.31005 0.01429 -0.95061
vn 0.35281 -0.03888 -0.93489
vn 0.38620 -0.07985 -0.91895
vn 0.04633 -0.13974 -0.98910
vn 0.80712 0.02930 -0.58966
vn 0.83875 -0.01562 -0.54429
vn 0.86480 -0.01918 -0.50175
vn 0.72063 -0.01632 -0.69313
vn 0.99975 -0.02244 -0.00006
vn 0.99976 -0.02176 -0.00003
vn 0.99897 -0.04545 -0.00003
vn -0.99069 -0.13613 0.00011
vn -0.93264 -0.36081 0.00078
vn -0.95418 -0.12817 -0.27038
vn -0.89090 -0.11516 -0.43935
vn 0.61465 0.78879 0.00363
vn 0.82667 0.37653 -0.41813
vn 0.67228 0.30674 -0.67375
vn 0.08607 0.99629 0.00237
vn -0.35448 0.93506 -0.00168
vn 0.90712 0.13648 -0.39813
vn 0.76360 0.12265 -0.63394
vn 0.22934 0.11214 -0.96687
vn 0.99974 0.02265 -0.00042
vn -0.23375 0.74652 0.62295
vn 0.03565 0.36320 0.93103
vn 0.41642 0.62166 0.66342
vn 0.06922 0.85541 0.51330
vn -0.59930 0.49459 0.62946
vn -0.85459 0.15456 0.49577
vn -0.78025 -0.16850 0.60234
vn -0.38466 0.09739 0.91791
vn 0.08763 -0.39083 0.91628
vn 0.15085 -0.83822 0.52406
vn 0.40846 -0.76382 0.49974
vn 0.41910 -0.25367 0.87179
vn 0.87249 -0.07199 0.48329
vn 0.85959 0.14306 0.49054
vn 0.44020 0.08805 0.89357
vn -0.13116 0.16041 0.97830
vn 0.40711 0.28730 0.86702
vn 0.10185 0.16240 0.98145
vn -0.18077 0.24783 0.95179
vn -0.11033 -0.43640 0.89296
vn -0.79429 -0.18061 0.58007
vn -0.45499 -0.03754 0.88970
vn -0.63385 0.43902 0.63678
vn -0.84981 0.20898 0.48389
vn -0.02792 -0.45306 0.89104
vn -0.16271 0.08986 0.98257
vn -0.28208 -0.42352 0.86085
vn -0.45722 -0.65915 0.59706
vn -0.00093 -0.82557 0.56429
vn -0.30742 0.65395 0.69126
vn -0.34411 0.84715 0.40488
vn -0.00444 0.74224 0.67012
vn 0.24336 0.73678 0.63083
vn 0.28738 0.88615 0.36352
vn -0.00401 0.92059 0.39052
vn 0.02581 0.17271 0.98463
vn 0.13624 0.21990 0.96596
vn 0.09334 -0.41708 0.90406
vn 0.10333 -0.39562 0.91258
vn 0.16065 -0.80467 0.57157
vn 0.15606 -0.80617 0.57074
vn 0.18533 -0.91578 0.35638
vn 0.18769 -0.91363 0.36063
vn 0.45018 0.68202 0.57636
vn 0.56983 0.64033 0.51505
vn 0.24774 0.23458 0.94000
vn 0.46543 0.53152 0.70772
vn 0.11395 -0.40231 0.90838
vn 0.11207 -0.43589 0.89299
vn 0.16228 -0.09597 0.98207
vn 0.12785 -0.82370 0.55242
vn 0.07281 -0.85447 0.51437
vn 0.63363 0.63095 0.44767
vn 0.67756 0.62707 0.38432
vn 0.54750 0.55214 0.62880
vn 0.60850 0.56379 0.55845
vn 0.17052 -0.10631 0.97960
vn 0.14392 -0.09355 0.98516
vn -0.07433 -0.88838 0.45306
vn -0.32733 -0.86801 0.37338
vn -0.31815 -0.76170 0.56444
vn -0.09014 -0.76720 0.63504
vn 0.70860 0.61415 0.34743
vn 0.72574 0.59148 0.35137
vn 0.64630 0.55995 0.51841
vn 0.66466 0.53887 0.51754
vn 0.05680 -0.02790 0.99800
vn -0.01472 0.10748 0.99410
vn -0.62532 -0.71182 0.31983
vn -0.84605 -0.41305 0.33704
vn -0.74824 -0.37007 0.55062
vn -0.57157 -0.63081 0.52477
vn -0.90197 -0.07909 0.42449
vn -0.80918 0.24869 0.53233
vn -0.75715 -0.09623 0.64612
vn -0.63439 0.15336 0.75765
vn 0.02833 0.19458 0.98048
vn 0.73185 0.55577 0.39435
vn 0.65956 0.49482 0.56581
vn 0.77473 0.44265 0.45151
vn -0.17035 -0.85417 0.49130
vn -0.18111 -0.75695 0.62788
vn -0.21744 -0.86599 0.45031
vn -0.11750 -0.09600 0.98842
vn -0.12342 -0.07738 0.98933
vn -0.18754 -0.79618 0.57526
vn -0.21456 -0.88869 0.40522
vn -0.19896 -0.83924 0.50605
vn -0.22034 -0.91181 0.34650
vn -0.18424 -0.94266 0.27831
vn 0.04954 -0.97057 0.23567
vn 0.47890 -0.84695 0.23095
vn 0.05132 -0.92499 0.37651
vn 0.45328 -0.80698 0.37859
vn -0.16821 -0.88995 0.42389
vn -0.15747 -0.07947 0.98432
vn -0.07615 -0.10234 0.99183
vn -0.14493 -0.07073 0.98691
vn -0.06105 0.92464 0.37592
vn -0.07655 0.94851 0.30737
vn -0.07139 0.87693 0.47528
vn -0.05401 0.82321 0.56516
vn -0.07855 0.75730 0.64833
vn -0.09276 0.89289 0.44062
vn -0.20722 0.84349 0.49556
vn -0.15972 0.68008 0.71553
vn -0.38227 0.74046 0.55281
vn -0.60086 0.54594 0.58389
vn 0.81658 -0.52184 0.24672
vn 0.94771 -0.15309 0.28001
vn 0.76691 -0.49621 0.40697
vn 0.87592 -0.14692 0.45954
vn 0.10236 0.00855 0.99471
vn 0.05416 0.06739 0.99626
vn 0.06180 -0.07854 0.99499
vn -0.43731 0.86220 0.25568
vn -0.73888 0.61298 0.27983
vn -0.67975 0.57338 0.45736
vn -0.40970 0.81082 0.41799
vn -0.17735 0.89122 0.41747
vn -0.18491 0.94740 0.26123
vn 0.91314 0.22596 0.33928
vn 0.67045 0.61979 0.40787
vn 0.81729 0.19313 0.54289
vn 0.58532 0.52270 0.61983
vn 0.02868 0.10083 0.99449
vn -0.02056 0.14540 0.98916
vn -0.93312 -0.04703 0.35649
vn -0.85043 -0.33929 0.40206
vn -0.74035 -0.28395 0.60931
vn -0.82859 -0.02803 0.55915
vn -0.82170 0.26375 0.50521
vn -0.90727 0.28045 0.31340
vn 0.33439 0.82240 0.46027
vn 0.12940 0.84899 0.51233
vn 0.29422 0.68698 0.66445
vn 0.11441 0.69587 0.70899
vn -0.09557 0.12016 0.98814
vn -0.11634 0.05697 0.99157
vn -0.71807 -0.52979 0.45132
vn -0.57137 -0.65509 0.49437
vn -0.46769 -0.53387 0.70445
vn -0.60613 -0.44295 0.66061
vn -0.40849 -0.74627 0.52556
vn -0.26519 -0.79326 0.54810
vn -0.32781 -0.59839 0.73108
vn -0.21237 -0.63104 0.74611
vn -0.14741 -0.81384 0.56208
vn -0.11925 -0.64530 0.75456
vn -0.03114 0.34501 0.93808
vn -0.10261 0.02540 0.99440
vn -0.07793 0.00617 0.99694
vn -0.04376 -0.00387 0.99903
vn -0.01435 0.33305 0.94280
vn -0.01005 -0.00811 0.99992
vn 0.00034 0.32803 0.94467
vn 0.02034 0.81031 0.58565
vn 0.02486 0.81959 0.57241
vn 0.01109 0.80514 0.59298
vn 0.01469 0.32789 0.94460
vn 0.00141 0.80412 0.59446
vn 0.01075 0.93034 0.36654
vn 0.02255 0.93442 0.35546
vn -0.00180 0.92964 0.36846
vn -0.01206 0.80825 0.58871
vn -0.01567 0.93244 0.36099
vn -0.03275 0.81874 0.57323
vn -0.06580 0.83401 0.54781
vn 0.02688 0.34671 0.93759
vn -0.05670 0.66598 0.74381
vn 0.02211 0.33360 0.94246
vn 0.04930 -0.00117 0.99878
vn 0.07783 0.00695 0.99694
vn 0.02317 -0.00690 0.99971
vn 0.05257 -0.82367 0.56463
vn 0.15366 -0.81587 0.55744
vn 0.12428 -0.64772 0.75167
vn 0.04293 -0.65487 0.75452
vn -0.03496 -0.65388 0.75579
vn -0.04284 -0.82308 0.56630
vn 0.04127 0.83514 0.54848
vn 0.03666 0.66789 0.74336
vn -0.14452 0.84868 0.50878
vn -0.29702 0.84122 0.45181
vn -0.12763 0.69279 0.70976
vn -0.26231 0.70842 0.65523
vn 0.11430 0.04462 0.99244
vn 0.10622 0.08097 0.99104
vn 0.11066 0.02163 0.99362
vn 0.42318 -0.74187 0.52015
vn 0.56173 -0.66760 0.48864
vn 0.46261 -0.55238 0.69345
vn 0.34526 -0.59700 0.72415
vn 0.22557 -0.62932 0.74369
vn 0.27792 -0.79203 0.54355
vn -0.48026 0.79383 0.37308
vn -0.67586 0.67476 0.29650
vn -0.43298 0.69785 0.57056
vn -0.62588 0.61742 0.47652
vn 0.10552 0.13483 0.98523
vn 0.07682 0.16022 0.98409
vn 0.77650 -0.50016 0.38327
vn 0.85705 -0.41272 0.30842
vn 0.79335 -0.37700 0.47799
vn 0.69248 -0.43844 0.57293
vn 0.57901 -0.49560 0.64740
vn 0.67929 -0.58276 0.44604
vn -0.85983 0.44614 0.24829
vn -0.96036 0.14984 0.23505
vn -0.81033 0.41554 0.41315
vn -0.90804 0.13996 0.39480
vn 0.01645 0.08934 0.99587
vn -0.02879 -0.05273 0.99819
vn 0.91293 -0.31866 0.25499
vn 0.93959 -0.23280 0.25094
vn 0.89152 -0.22164 0.39506
vn 0.86439 -0.29979 0.40367
vn 0.94261 -0.15131 0.29763
vn 0.92343 -0.09004 0.37305
vn 0.87784 -0.14218 0.45735
vn 0.82988 -0.08086 0.55205
vn 0.89307 -0.04265 0.44789
vn 0.76950 -0.03834 0.63749
vn 0.00079 -0.19172 0.98145
vn -0.02921 -0.16321 0.98616
vn 0.02853 -0.16936 0.98514
vn 0.04220 -0.15038 0.98773
vn -0.79209 -0.43656 0.42662
vn -0.87897 -0.32684 0.34725
vn -0.79738 -0.28652 0.53112
vn -0.69554 -0.37223 0.61454
vn -0.62743 -0.38851 0.67483
vn -0.73571 -0.46762 0.48996
vn -0.58101 -0.37906 0.72023
vn -0.70203 -0.46686 0.53777
vn -0.66895 -0.47725 0.56985
vn -0.76282 -0.54264 0.35162
vn -0.65218 -0.47208 0.59313
vn -0.68954 -0.38724 0.61202
vn -0.81286 -0.45772 0.36021
vn -0.75821 -0.54421 0.35911
vn -0.24750 -0.23136 0.94086
vn -0.27440 -0.14557 0.95053
vn -0.26173 -0.26169 0.92899
vn 0.35247 -0.04182 0.93489
vn 0.30866 0.01130 0.95111
vn 0.04638 -0.14028 0.98902
vn 0.38635 -0.07998 0.91888
vn 0.83882 -0.01650 0.54416
vn 0.80720 0.02647 0.58969
vn 0.72076 -0.01548 0.69301
vn 0.86486 -0.01869 0.50166
vn -0.95434 -0.12576 0.27096
vn -0.89067 -0.11330 0.44030
vn 0.67344 0.30576 0.67304
vn 0.82692 0.37756 0.41671
vn 0.76323 0.12048 0.63480
vn 0.90745 0.13800 0.39684
vn 0.23023 0.11047 0.96685
f 5//1 6//2 7//3 8//4
f 1//5 9//6 263//7 11//8
f 1//5 11//8 12//9 13//10
f 1//5 13//10 10//11 9//6
f 2//12 14//13 15//14 16//15
f 2//12 17//16 18//17 14//18
f 2//12 16//15 3//19 17//16
f 3//19 19//20 20//21 17//16
f 3//19 16//15 21//22 22//23
f 23//24 24//25 25//26 26//27
f 4//28 25//26 27//29 28//30
f 4//28 28//30 29//31 30//32
f 4//28 30//32 26//27 25//26
f 30//32 29//31 264//33 265//34
f 30//32 265//35 31//36 26//27
f 31//36 32//37 23//24 26//27
f 32//37 266//38 24//25 23//24
f 266//38 33//39 34//40 24//25
f 35//41 36//42 37//43 38//44
f 35//41 38//44 34//40 33//39
f 38//44 37//43 39//45 40//46
f 38//44 40//46 27//29 34//40
f 40//46 39//45 41//47 42//48
f 40//46 42//48 28//30 27//29
f 42//48 41//47 43//49 44//50
f 42//48 44//50 29//31 28//30
f 44//50 43//49 45//51 46//52
f 44//50 46//52 264//33 29//31
f 47//53 267//54 48//55 49//56
f 47//53 49//56 37//43 36//42
f 49//56 48//55 50//57 51//58
f 49//56 51//58 39//45 37//43
f 51//58 50//59 52//60 53//61
f 51//58 53//61 41//47 39//45
f 53//61 52//60 54//62 55//63
f 53//61 55//63 43//49 41//47
f 55//63 54//62 56//64 268//65
f 55//63 268//65 45//51 43//49
f 270//66 269//67 57//68 58//69
f 270//66 58//69 48//55 267//54
f 58//69 57//68 59//70 60//71
f 58//69 60//71 50//57 48//55
f 60//72 59//73 61//73 62//72
f 60//72 62//72 52//60 50//59
f 62//74 61//75 63//76 64//77
f 62//74 64//77 54//62 52//60
f 64//77 63//76 271//78 272//79
f 64//77 272//79 56//64 54//62
f 273//80 66//81 67//82 68//83
f 273//80 68//83 57//68 269//67
f 68//83 67//82 69//84 70//85
f 68//83 70//85 59//70 57//68
f 70//86 69//87 71//87 72//86
f 70//86 72//86 61//73 59//73
f 72//88 71//89 73//90 74//91
f 72//88 74//91 63//76 61//75
f 74//91 73//90 274//92 65//93
f 74//91 65//93 271//78 63//76
f 274//92 73//90 75//94 275//95
f 75//94 76//96 276//97 275//95
f 75//94 73//90 71//89 77//98
f 75//94 77//98 19//99 76//96
f 77//100 71//87 69//87 78//100
f 77//100 78//100 20//21 19//20
f 78//101 69//84 67//82 79//102
f 78//101 79//102 80//103 20//21
f 80//103 18//17 17//16 20//21
f 80//103 79//102 81//104 82//105
f 80//103 82//105 83//106 18//17
f 83//106 277//107 14//18 18//17
f 279//108 87//109 88//110 15//14
f 279//108 15//14 14//13 277//111
f 88//110 89//112 90//113 21//22
f 88//110 21//22 16//15 15//14
f 88//110 87//109 278//114 89//112
f 90//115 91//116 92//116 93//115
f 90//115 93//115 22//23 21//22
f 90//113 89//112 94//117 91//118
f 94//117 95//119 96//120 91//118
f 94//117 89//112 278//114 280//121
f 94//117 280//121 281//122 95//119
f 281//122 97//123 98//124 95//119
f 99//125 100//126 101//127 102//128
f 99//125 102//128 98//124 97//123
f 102//128 101//127 103//129 104//130
f 102//128 104//130 105//131 98//124
f 105//132 104//133 106//133 107//132
f 105//132 107//132 108//134 96//134
f 105//131 96//120 95//119 98//124
f 108//135 107//136 109//137 110//138
f 108//135 110//138 111//139 92//140
f 108//134 92//116 91//116 96//134
f 111//139 110//138 282//141 112//142
f 111//139 112//142 86//143 113//144
f 111//139 113//144 93//145 92//140
f 113//144 86//143 85//146 114//147
f 113//144 114//147 22//148 93//145
f 114//147 85//146 84//149 115//150
f 114//147 115//150 3//151 22//148
f 115//150 84//149 276//97 76//96
f 115//150 76//96 19//99 3//151
f 116//152 283//153 117//154 118//155
f 116//152 118//155 101//127 100//126
f 118//155 117//154 119//156 120//157
f 118//155 120//157 103//129 101//127
f 120//158 119//159 121//159 122//158
f 120//158 122//158 123//160 103//160
f 123//161 122//162 124//163 125//164
f 123//161 125//164 126//165 106//166
f 123//160 106//133 104//133 103//160
f 126//165 125//164 284//167 127//168
f 126//165 127//168 285//169 109//137
f 126//165 109//137 107//136 106//166
f 284//167 125//164 124//163 286//170
f 287//171 129//172 130//173 131//174
f 287//171 131//174 117//154 283//153
f 131//174 130//173 132//175 133//176
f 131//174 133//176 119//156 117//154
f 133//177 132//178 134//178 135//177
f 133//177 135//177 121//159 119//159
f 135//179 134//180 136//181 137//182
f 135//179 137//182 138//183 121//184
f 138//183 137//182 288//185 128//186
f 138//183 128//186 286//170 124//163
f 138//183 124//163 122//162 121//184
f 288//185 137//182 136//181 289//187
f 140//188 290//189 141//190 142//191
f 140//188 142//191 130//173 129//172
f 142//191 141//190 143//192 144//193
f 142//191 144//193 132//175 130//173
f 144//194 143//195 145//195 146//194
f 144//194 146//194 134//178 132//178
f 146//196 145//197 147//198 148//199
f 146//196 148//199 136//181 134//180
f 148//199 147//198 149//200 139//201
f 148//199 139//201 289//187 136//181
f 149//200 147//198 150//202 291//203
f 150//202 151//204 152//205 291//203
f 150//202 147//198 145//197 153//206
f 150//202 153//206 154//207 151//204
f 154//207 155//208 156//209 151//204
f 154//210 153//211 157//211 158//212
f 154//210 158//212 159//213 155//214
f 159//213 160//215 161//216 155//214
f 159//213 158//212 162//217 163//218
f 159//213 163//218 164//219 160//215
f 164//219 165//220 166//221 160//215
f 164//219 163//218 292//222 293//223
f 164//219 293//223 167//224 165//220
f 167//224 168//225 169//226 165//220
f 170//227 294//228 171//229 172//230
f 170//227 172//230 169//226 168//225
f 172//230 171//229 173//231 174//232
f 172//230 174//232 175//233 169//226
f 175//233 174//232 176//234 177//235
f 175//233 177//235 178//236 166//221
f 175//233 166//221 165//220 169//226
f 178//237 177//238 179//239 180//240
f 178//237 180//240 181//241 161//242
f 178//236 161//216 160//215 166//221
f 181//241 180//240 182//243 183//244
f 181//241 183//244 184//245 156//209
f 181//241 156//209 155//208 161//242
f 184//245 152//205 151//204 156//209
f 185//246 295//247 162//217 186//248
f 185//246 186//248 141//190 290//189
f 186//248 162//217 158//212 157//249
f 186//248 157//249 143//192 141//190
f 295//247 292//222 163//218 162//217
f 187//250 296//251 188//252 189//253
f 187//250 189//253 171//229 294//228
f 189//253 188//252 190//254 191//255
f 189//253 191//255 173//231 171//229
f 191//256 190//257 192//257 193//256
f 191//256 193//256 194//258 173//258
f 194//259 193//260 195//261 196//262
f 194//259 196//262 197//263 176//264
f 194//258 176//234 174//232 173//258
f 197//263 196//262 297//265 298//266
f 197//263 298//266 299//267 179//239
f 197//263 179//239 177//238 176//264
f 299//267 182//243 180//240 179//239
f 297//265 196//262 195//261 300//268
f 200//269 199//270 201//271 202//272
f 200//269 202//272 188//252 296//251
f 202//272 201//271 203//273 204//274
f 202//272 204//274 190//254 188//252
f 204//275 203//276 205//276 206//275
f 204//275 206//275 192//257 190//257
f 206//277 205//278 207//279 208//280
f 206//277 208//280 209//281 192//282
f 209//281 208//280 301//283 198//284
f 209//281 198//284 300//268 195//261
f 209//281 195//261 193//260 192//282
f 301//283 208//280 207//279 302//285
f 211//286 303//287 212//288 213//289
f 211//286 213//289 201//271 199//270
f 213//289 212//288 214//290 215//291
f 213//289 215//291 203//273 201//271
f 215//292 214//293 216//293 217//292
f 215//292 217//292 205//276 203//276
f 217//294 216//295 218//296 219//297
f 217//294 219//297 207//279 205//278
f 219//297 218//296 220//298 210//299
f 219//297 210//299 302//285 207//279
f 220//298 218//296 222//300 221//301
f 222//300 223//302 224//303 221//301
f 222//300 218//296 216//295 225//304
f 222//300 225//304 226//305 223//302
f 226//305 227//306 228//307 223//302
f 226//308 225//309 229//309 230//308
f 226//308 230//308 231//310 227//310
f 231//310 232//311 233//311 227//310
f 231//312 230//313 234//314 235//315
f 231//312 235//315 236//316 232//317
f 236//316 237//318 238//319 232//317
f 236//316 235//315 304//320 239//321
f 236//316 239//321 240//322 237//318
f 240//322 241//323 242//324 237//318
f 243//325 305//326 244//327 245//328
f 243//325 245//328 242//324 241//323
f 245//328 244//327 246//329 247//330
f 245//328 247//330 248//331 242//324
f 248//331 247//330 249//332 250//333
f 248//331 250//333 251//334 238//335
f 248//331 238//319 237//318 242//324
f 251//334 250//333 252//336 253//337
f 251//334 253//337 254//338 233//339
f 251//334 233//311 232//311 238//335
f 254//338 253//337 306//340 307//341
f 254//338 307//341 308//342 228//307
f 254//338 228//307 227//306 233//339
f 308//342 224//303 223//302 228//307
f 255//343 309//344 234//314 256//345
f 255//343 256//345 212//288 303//287
f 256//345 234//314 230//313 229//346
f 256//345 229//346 214//290 212//288
f 309//344 304//320 235//315 234//314
f 258//347 257//348 259//349 6//2
f 258//347 6//2 5//1 260//350
f 260//350 5//1 8//4 311//351
f 311//351 8//4 11//8 263//7
f 259//349 257//348 310//352 261//353
f 259//349 261//353 249//332 262//354
f 259//349 262//354 7//3 6//2
f 262//354 249//332 247//330 246//329
f 262//354 246//329 12//9 7//3
f 261//353 310//352 312//355 252//336
f 261//353 252//336 250//333 249//332
f 312//355 306//340 253//337 252//336
f 246//329 244//327 13//10 12//9
f 244//327 305//326 10//11 13//10
f 229//309 225//309 216//293 214//293
f 157//211 153//211 145//195 143//195
f 285//169 282//141 110//138 109//137
f 81//104 79//102 67//82 66//81
f 34//40 27//29 25//26 24//25
f 12//9 11//8 8//4 7//3
f 320//356 319//357 318//358 317//359
f 321//360 263//7 9//6 313//361
f 323//362 322//363 321//360 313//361
f 9//6 10//11 323//362 313//361
f 326//364 325//365 324//366 314//367
f 324//368 328//369 327//370 314//367
f 327//370 315//371 326//364 314//367
f 327//370 330//372 329//373 315//371
f 332//374 331//375 326//364 315//371
f 336//376 335//377 334//378 333//379
f 338//380 337//381 335//377 316//382
f 340//383 339//384 338//380 316//382
f 335//377 336//376 340//383 316//382
f 265//34 264//33 339//384 340//383
f 336//376 31//36 265//35 340//383
f 336//376 333//379 32//37 31//36
f 333//379 334//378 266//38 32//37
f 334//378 341//385 33//386 266//38
f 343//387 342//388 36//389 35//390
f 33//386 341//385 343//387 35//390
f 345//391 344//392 342//388 343//387
f 341//385 337//381 345//391 343//387
f 347//393 346//394 344//392 345//391
f 337//381 338//380 347//393 345//391
f 349//395 348//396 346//394 347//393
f 338//380 339//384 349//395 347//393
f 46//397 45//398 348//396 349//395
f 339//384 264//33 46//397 349//395
f 351//399 350//400 267//54 47//53
f 36//389 342//388 351//399 47//53
f 353//401 352//402 350//400 351//399
f 342//388 344//392 353//401 351//399
f 355//403 354//404 352//405 353//401
f 344//392 346//394 355//403 353//401
f 357//406 356//407 354//404 355//403
f 346//394 348//396 357//406 355//403
f 268//65 56//64 356//407 357//406
f 348//396 45//398 268//65 357//406
f 359//408 358//409 269//67 270//66
f 267//54 350//400 359//408 270//66
f 361//410 360//411 358//409 359//408
f 350//400 352//402 361//410 359//408
f 363//412 362//413 360//413 361//412
f 352//405 354//404 363//412 361//412
f 365//414 364//415 362//416 363//417
f 354//404 356//407 365//414 363//417
f 272//79 271//78 364//415 365//414
f 356//407 56//64 272//79 365//414
f 367//418 366//419 66//81 273//80
f 269//67 358//409 367//418 273//80
f 369//420 368//421 366//419 367//418
f 358//409 360//411 369//420 367//418
f 371//422 370//423 368//423 369//422
f 360//413 362//413 371//422 369//422
f 373//424 372//425 370//426 371//427
f 362//416 364//415 373//424 371//427
f 65//93 274//92 372//425 373//424
f 364//415 271//78 65//93 373//424
f 275//95 374//428 372//425 274//92
f 275//95 276//97 375//429 374//428
f 376//430 370//426 372//425 374//428
f 375//429 329//431 376//430 374//428
f 377//432 368//423 370//423 376//432
f 329//373 330//372 377//432 376//432
f 378//433 366//419 368//421 377//434
f 330//372 379//435 378//433 377//434
f 330//372 327//370 328//369 379//435
f 82//105 81//104 378//433 379//435
f 328//369 83//106 82//105 379//435
f 328//369 324//368 277//107 83//106
f 325//365 380//436 87//109 279//108
f 277//111 324//366 325//365 279//108
f 331//375 382//437 381//438 380//436
f 325//365 326//364 331//375 380//436
f 381//438 278//114 87//109 380//436
f 385//439 384//440 383//440 382//439
f 331//375 332//374 385//439 382//439
f 383//441 386//442 381//438 382//437
f 383//441 388//443 387//444 386//442
f 280//121 278//114 381//438 386//442
f 387//444 281//122 280//121 386//442
f 387//444 389//445 97//123 281//122
f 391//446 390//447 100//126 99//125
f 97//123 389//445 391//446 99//125
f 393//448 392//449 390//447 391//446
f 389//445 394//450 393//448 391//446
f 396//451 395//452 393//452 394//451
f 388//453 397//453 396//451 394//451
f 389//445 387//444 388//443 394//450
f 399//454 398//455 396//456 397//457
f 384//458 400//459 399//454 397//457
f 388//453 383//440 384//440 397//453
f 112//142 282//141 399//454 400//459
f 401//460 86//143 112//142 400//459
f 384//458 385//461 401//460 400//459
f 402//462 85//146 86//143 401//460
f 385//461 332//374 402//462 401//460
f 403//463 84//149 85//146 402//462
f 332//374 315//371 403//463 402//462
f 375//429 276//97 84//149 403//463
f 315//371 329//431 375//429 403//463
f 405//464 404//465 283//153 116//152
f 100//126 390//447 405//464 116//152
f 407//466 406//467 404//465 405//464
f 390//447 392//449 407//466 405//464
f 409//468 408//469 406//469 407//468
f 392//470 410//470 409//468 407//468
f 412//471 411//472 409//473 410//474
f 395//475 413//476 412//471 410//474
f 392//470 393//452 395//452 410//470
f 127//168 284//167 412//471 413//476
f 398//455 285//169 127//168 413//476
f 395//475 396//456 398//455 413//476
f 286//170 411//472 412//471 284//167
f 415//477 414//478 129//172 287//171
f 283//153 404//465 415//477 287//171
f 417//479 416//480 414//478 415//477
f 404//465 406//467 417//479 415//477
f 419//481 418//482 416//482 417//481
f 406//469 408//469 419//481 417//481
f 421//483 420//484 418//485 419//486
f 408//487 422//488 421//483 419//486
f 128//186 288//185 421//483 422//488
f 411//472 286//170 128//186 422//488
f 408//487 409//473 411//472 422//488
f 289//187 420//484 421//483 288//185
f 424//489 423//490 290//189 140//188
f 129//172 414//478 424//489 140//188
f 426//491 425//492 423//490 424//489
f 414//478 416//480 426//491 424//489
f 428//493 427//494 425//494 426//493
f 416//482 418//482 428//493 426//493
f 430//495 429//496 427//497 428//498
f 418//485 420//484 430//495 428//498
f 139//201 149//200 429//496 430//495
f 420//484 289//187 139//201 430//495
f 291//203 431//499 429//496 149//200
f 291//203 152//205 432//500 431//499
f 433//501 427//497 429//496 431//499
f 432//500 434//502 433//501 431//499
f 432//500 436//503 435//504 434//502
f 438//505 437//506 433//506 434//507
f 435//508 439//509 438//505 434//507
f 435//508 441//510 440//511 439//509
f 443//512 442//513 438//505 439//509
f 440//511 444//514 443//512 439//509
f 440//511 446//515 445//516 444//514
f 293//517 292//518 443//512 444//514
f 445//516 167//519 293//517 444//514
f 445//516 447//520 168//521 167//519
f 449//522 448//523 294//228 170//227
f 168//521 447//520 449//522 170//227
f 451//524 450//525 448//523 449//522
f 447//520 452//526 451//524 449//522
f 454//527 453//528 451//524 452//526
f 446//515 455//529 454//527 452//526
f 447//520 445//516 446//515 452//526
f 457//530 456//531 454//532 455//533
f 441//534 458//535 457//530 455//533
f 446//515 440//511 441//510 455//529
f 183//244 182//243 457//530 458//535
f 436//503 184//245 183//244 458//535
f 441//534 435//504 436//503 458//535
f 436//503 432//500 152//205 184//245
f 459//536 442//513 295//247 185//246
f 290//189 423//490 459//536 185//246
f 437//537 438//505 442//513 459//536
f 423//490 425//492 437//537 459//536
f 442//513 443//512 292//518 295//247
f 461//538 460//539 296//251 187//250
f 294//228 448//523 461//538 187//250
f 463//540 462//541 460//539 461//538
f 448//523 450//525 463//540 461//538
f 465//542 464//543 462//543 463//542
f 450//544 466//544 465//542 463//542
f 468//545 467//546 465//547 466//548
f 453//549 469//550 468//545 466//548
f 450//544 451//524 453//528 466//544
f 298//266 297//265 468//545 469//550
f 456//531 299//267 298//266 469//550
f 453//549 454//532 456//531 469//550
f 456//531 457//530 182//243 299//267
f 300//268 467//546 468//545 297//265
f 471//551 470//552 199//270 200//269
f 296//251 460//539 471//551 200//269
f 473//553 472//554 470//552 471//551
f 460//539 462//541 473//553 471//551
f 475//555 474//556 472//556 473//555
f 462//543 464//543 475//555 473//555
f 477//557 476//558 474//559 475//560
f 464//561 478//562 477//557 475//560
f 198//284 301//283 477//557 478//562
f 467//546 300//268 198//284 478//562
f 464//561 465//547 467//546 478//562
f 302//285 476//558 477//557 301//283
f 480//563 479//564 303//287 211//286
f 199//270 470//552 480//563 211//286
f 482//565 481//566 479//564 480//563
f 470//552 472//554 482//565 480//563
f 484//567 483//568 481//568 482//567
f 472//556 474//556 484//567 482//567
f 486//569 485//570 483//571 484//572
f 474//559 476//558 486//569 484//572
f 210//299 220//298 485//570 486//569
f 476//558 302//285 210//299 486//569
f 221//301 487//573 485//570 220//298
f 221//301 224//303 488//574 487//573
f 489//575 483//571 485//570 487//573
f 488//574 490//576 489//575 487//573
f 488//574 492//577 491//578 490//576
f 494//579 493//580 489//580 490//579
f 491//581 495//581 494//579 490//579
f 491//581 497//582 496//582 495//581
f 499//583 498//584 494//585 495//586
f 496//587 500//588 499//583 495//586
f 496//587 502//589 501//590 500//588
f 239//321 304//320 499//583 500//588
f 501//590 240//322 239//321 500//588
f 501//590 503//591 241//592 240//322
f 505//593 504//594 305//595 243//596
f 241//592 503//591 505//593 243//596
f 507//597 506//598 504//594 505//593
f 503//591 508//599 507//597 505//593
f 510//600 509//601 507//597 508//599
f 502//602 511//603 510//600 508//599
f 503//591 501//590 502//589 508//599
f 513//604 512//605 510//600 511//603
f 497//606 514//607 513//604 511//603
f 502//602 496//582 497//582 511//603
f 307//341 306//340 513//604 514//607
f 492//577 308//342 307//341 514//607
f 497//606 491//578 492//577 514//607
f 492//577 488//574 224//303 308//342
f 515//608 498//584 309//344 255//343
f 303//287 479//564 515//608 255//343
f 493//609 494//585 498//584 515//608
f 479//564 481//566 493//609 515//608
f 498//584 499//583 304//320 309//344
f 318//358 516//610 257//611 258//347
f 260//350 317//359 318//358 258//347
f 311//351 320//356 317//359 260//350
f 263//7 321//360 320//356 311//351
f 517//612 310//613 257//611 516//610
f 518//614 509//601 517//612 516//610
f 318//358 319//357 518//614 516//610
f 506//598 507//597 509//601 518//614
f 319//357 322//363 506//598 518//614
f 512//605 312//355 310//613 517//612
f 509//601 510//600 512//605 517//612
f 512//605 513//604 306//340 312//355
f 322//363 323//362 504//594 506//598
f 323//362 10//11 305//595 504//594
f 481//568 483//568 489//580 493//580
f 425//494 427//494 433//506 437//506
f 398//455 399//454 282//141 285//169
f 66//81 366//419 378//433 81//104
f 334//378 335//377 337//381 341//385
f 319//357 320//356 321//360 322//363
