# pilowlava3D glyph 'v' variant 4 — Vincent Wagner / Velvetyne, Free Art License
v 1.00732 0.58646 -0.39454
v 1.19952 0.22989 -0.40216
v 1.82721 0.92675 -0.55755
v 4.29338 4.13226 -0.41270
v 3.64825 4.26743 -0.37626
v 2.09250 1.14472 -0.36944
v 0.55856 2.36530 -0.17491
v 1.11848 0.70070 -0.43511
v 1.21249 0.55687 -0.51300
v 1.04265 0.46161 -0.42578
v 0.88989 0.62922 -0.24582
v 1.00706 0.82488 -0.24691
v 0.87492 0.41444 -0.24467
v 1.11420 0.33284 -0.42887
v 1.29388 0.40453 -0.51762
v 1.35916 0.23588 -0.44272
v 1.38580 0.06400 -0.24847
v 1.15848 0.10791 -0.24155
v 0.98080 0.22487 -0.24317
v 1.93033 0.62195 -0.57167
v 1.70602 0.54931 -0.58377
v 1.58830 0.77606 -0.58436
v 2.11618 0.90587 -0.51091
v 2.15176 0.66398 -0.52523
v 1.59932 1.08591 -0.44020
v 1.70943 1.24414 -0.38683
v 1.86967 1.18340 -0.45345
v 1.44658 0.95529 -0.46607
v 4.12180 4.23505 -0.46353
v 4.19734 4.41301 -0.27652
v 4.40118 4.20532 -0.26208
v 4.29272 3.95824 -0.43923
v 4.05836 4.02065 -0.54855
v 4.45937 3.95130 -0.24682
v 3.56723 4.11914 -0.40822
v 3.42819 4.17098 -0.22561
v 3.60492 4.36705 -0.23534
v 3.89412 4.45919 -0.25464
v 3.85442 4.28901 -0.43896
v 3.80081 4.08017 -0.52883
v 2.15462 1.22815 -0.17815
v 2.33519 1.16223 -0.18732
v 2.32762 1.06409 -0.35675
v 2.33992 0.90455 -0.47040
v 0.62921 2.53632 -0.00000
v 0.44281 2.27479 -0.20377
v 0.44119 2.44744 -0.34937
v 0.58214 2.51481 -0.22043
v 0.11290 2.42897 -0.28938
v 0.25267 2.39803 -0.35259
v 0.24924 2.24208 -0.18159
v 0.06129 2.36727 -0.16069
v 0.04507 2.35619 -0.00000
v 0.00000 2.63115 -0.00000
v 0.02808 2.62942 -0.16744
v 0.11224 2.62225 -0.31905
v 0.04477 2.86429 -0.18089
v 0.12814 2.86148 -0.33251
v 0.25075 2.86990 -0.39124
v 0.25679 2.62794 -0.39372
v 0.37993 2.89609 -0.35887
v 0.42229 2.66883 -0.37001
v 0.47069 2.92564 -0.21459
v 0.54015 2.72222 -0.22023
v 0.51468 2.94204 -0.00000
v 0.58504 2.74386 -0.00000
v 0.01161 2.86763 -0.00000
v 0.02434 3.09770 -0.00000
v 0.05743 3.09729 -0.18334
v 0.04620 3.33948 -0.00000
v 0.53345 3.79392 -0.00000
v 0.67920 3.81009 -0.00000
v 0.80098 3.75659 -0.00000
v 0.52805 3.81007 -0.17413
v 0.68011 3.83730 -0.18743
v 0.82111 3.79703 -0.20389
v 0.68098 3.93227 -0.34560
v 0.87184 3.91479 -0.38104
v 1.04445 3.83605 -0.40995
v 0.93497 3.70532 -0.22322
v 0.89175 3.65723 -0.00000
v 1.02278 3.58553 -0.23478
v 0.96565 3.53448 -0.00000
v 0.34717 4.17566 -0.00000
v 0.17502 3.89075 -0.00000
v 0.08516 3.60486 -0.00000
v 0.18840 3.87566 -0.16814
v 0.10428 3.59814 -0.16833
v 0.07344 3.33948 -0.17635
v 0.15161 3.58555 -0.28440
v 0.12956 3.34029 -0.30286
v 0.13016 3.10268 -0.32560
v 0.21564 3.34181 -0.35220
v 0.23279 3.11047 -0.37569
v 0.30304 3.34367 -0.31222
v 0.33836 3.12258 -0.33742
v 0.36560 3.34027 -0.18334
v 0.41156 3.13299 -0.20340
v 0.44963 3.13789 -0.00000
v 0.34546 3.53823 -0.16357
v 0.39783 3.71048 -0.16090
v 0.29347 3.55540 -0.28305
v 0.35652 3.74413 -0.28036
v 0.49829 3.87485 -0.31052
v 0.29822 3.78467 -0.33479
v 0.45039 3.96911 -0.36602
v 0.67169 4.08201 -0.41093
v 0.40161 4.06295 -0.33010
v 0.65605 4.23279 -0.36764
v 0.97527 4.29900 -0.40060
v 0.93349 4.10772 -0.46215
v 1.31116 4.28359 -0.43253
v 1.19487 4.05310 -0.50421
v 1.58624 4.10977 -0.46867
v 1.37372 3.92452 -0.52194
v 1.16635 3.72533 -0.42797
v 1.47577 3.70587 -0.52140
v 1.24857 3.55948 -0.43352
v 1.10216 3.44062 -0.23631
v 1.32204 3.35814 -0.42574
v 1.18053 3.27121 -0.23269
v 1.11919 3.23194 -0.00000
v 1.04005 3.39346 -0.00000
v 0.99844 4.43876 -0.22696
v 0.63918 4.35552 -0.21016
v 0.35696 4.14832 -0.18538
v 0.23448 3.83200 -0.29610
v 0.22252 3.57162 -0.33039
v 1.38422 4.43808 -0.25042
v 1.79962 4.31266 -0.00000
v 1.74356 4.25832 -0.27922
v 1.95293 3.93547 -0.00000
v 1.88292 3.90476 -0.24785
v 1.71146 3.82241 -0.44026
v 1.90714 3.58655 -0.23184
v 1.75105 3.53776 -0.42515
v 1.53169 3.45832 -0.50672
v 1.78847 3.28514 -0.40944
v 1.58925 3.22451 -0.48406
v 1.39534 3.15193 -0.40471
v 1.64261 2.99818 -0.45899
v 1.46617 2.94423 -0.38435
v 1.35155 2.89783 -0.21202
v 1.26581 3.09055 -0.22256
v 1.29776 2.87190 -0.00000
v 1.20663 3.05747 -0.00000
v 1.98206 3.60254 -0.00000
v 1.92642 3.31375 -0.22336
v 1.94267 3.06738 -0.21465
v 1.82262 3.04354 -0.38860
v 1.94951 2.82820 -0.20510
v 1.84708 2.80859 -0.36852
v 1.69049 2.77317 -0.43293
v 1.86647 2.57647 -0.35461
v 1.73749 2.54944 -0.40650
v 1.61328 2.51709 -0.35132
v 1.53793 2.73180 -0.36771
v 1.52542 2.49294 -0.19787
v 1.43610 2.69818 -0.20509
v 1.99745 2.83352 -0.00000
v 1.95859 2.59585 -0.19864
v 1.97102 2.36886 -0.18821
v 1.89275 2.34727 -0.33435
v 1.98524 2.13780 -0.17112
v 1.92792 2.12187 -0.30063
v 1.83995 2.10281 -0.34634
v 1.78854 2.32284 -0.37914
v 1.75308 2.08711 -0.29727
v 1.68710 2.30058 -0.33062
v 1.69737 2.08262 -0.16548
v 1.61241 2.28845 -0.18675
v 1.67505 2.08340 -0.00000
v 1.58028 2.28184 -0.00000
v 2.00931 2.14564 -0.00000
v 2.01349 1.90548 -0.00000
v 1.99768 1.90254 -0.15158
v 2.02043 1.65999 -0.00000
v 1.55925 1.34436 -0.00000
v 1.42009 1.24893 -0.00000
v 1.27386 1.14341 -0.00000
v 1.60141 1.30864 -0.21289
v 1.46872 1.18672 -0.24019
v 1.32718 1.07960 -0.24695
v 1.27542 0.83406 -0.45711
v 1.16611 0.96972 -0.25152
v 1.11365 1.02829 -0.00000
v 0.95625 0.87003 -0.00000
v 2.71211 1.19683 -0.00000
v 2.52444 1.19510 -0.00000
v 2.34016 1.19857 -0.00000
v 2.16612 1.25091 -0.00000
v 2.52673 1.15457 -0.18778
v 2.72023 1.16623 -0.17541
v 2.74857 1.09779 -0.32918
v 2.53500 1.06917 -0.34943
v 2.77998 1.00984 -0.40288
v 2.56107 0.94410 -0.44436
v 2.82349 0.90741 -0.40642
v 2.60704 0.79926 -0.44778
v 2.37807 0.71564 -0.47862
v 2.65927 0.67031 -0.35962
v 2.43921 0.54414 -0.38068
v 2.21729 0.44921 -0.41309
v 2.50121 0.43374 -0.20857
v 2.27789 0.30873 -0.22361
v 2.05196 0.22485 -0.23373
v 1.99809 0.38391 -0.44158
v 1.83540 0.15413 -0.24321
v 1.78737 0.32258 -0.45688
v 1.61784 0.08756 -0.25233
v 1.57274 0.26104 -0.45961
v 1.49010 0.46570 -0.56984
v 1.38739 0.66148 -0.56624
v 1.38536 0.00000 -0.00000
v 1.14294 0.05836 -0.00000
v 0.94502 0.19480 -0.00000
v 0.82841 0.40713 -0.00000
v 0.83788 0.65200 -0.00000
v 2.08240 0.14402 -0.00000
v 2.70964 0.58152 -0.19793
v 2.74034 0.54223 -0.00000
v 2.92935 0.71298 -0.00000
v 3.05540 1.31737 -0.00000
v 2.89743 1.21551 -0.00000
v 3.06308 1.30907 -0.14805
v 2.90826 1.20021 -0.15658
v 3.10022 1.27787 -0.27395
v 2.94363 1.15703 -0.29307
v 3.14113 1.24360 -0.33461
v 2.98170 1.10272 -0.36066
v 3.19479 1.19924 -0.33921
v 3.02509 1.03547 -0.36304
v 3.23836 1.16157 -0.28672
v 3.06731 0.97463 -0.30517
v 2.87155 0.81296 -0.33294
v 3.09874 0.92768 -0.17100
v 2.90765 0.74531 -0.18472
v 3.11351 0.90570 -0.00000
v 3.28404 1.11936 -0.00000
v 3.26936 1.13361 -0.16637
v 3.41136 1.35195 -0.16769
v 3.43008 1.34200 -0.00000
v 3.37349 1.37107 -0.29172
v 3.47377 1.58786 -0.31083
v 3.52637 1.57200 -0.17284
v 3.31578 1.39966 -0.34580
v 3.39735 1.61431 -0.37220
v 3.46324 1.83326 -0.40169
v 3.56154 1.80414 -0.32839
v 3.24652 1.43226 -0.34444
v 3.31099 1.64284 -0.37167
v 3.36136 1.86095 -0.40037
v 3.40776 2.08331 -0.42603
v 3.52876 2.05141 -0.42735
v 3.23605 1.66843 -0.30627
v 3.26874 1.88755 -0.32389
v 3.29643 2.11257 -0.33673
v 3.32292 2.33867 -0.34696
v 3.45241 2.30768 -0.44735
v 3.19637 1.90970 -0.17541
v 3.21329 2.13173 -0.18049
v 3.22910 2.35536 -0.18604
v 3.24730 2.57910 -0.19266
v 3.35114 2.56414 -0.35853
v 3.18269 2.35923 -0.00000
v 3.19493 2.58289 -0.00000
v 3.20815 2.80635 -0.00000
v 3.26440 2.80406 -0.20019
v 3.21895 3.03143 -0.00000
v 3.23045 3.25694 -0.00000
v 3.29630 3.25239 -0.21816
v 3.27980 3.02773 -0.20970
v 3.43680 3.23773 -0.40704
v 3.40903 3.01368 -0.39113
v 3.38000 2.78949 -0.37416
v 3.58797 2.98045 -0.51031
v 3.54210 2.75564 -0.48957
v 3.49677 2.53247 -0.46839
v 3.73486 2.70889 -0.49067
v 3.66924 2.48964 -0.47021
v 3.59831 2.27072 -0.44877
v 3.81696 2.44477 -0.36372
v 3.73108 2.23281 -0.35178
v 3.64647 2.01912 -0.34001
v 3.82036 2.20003 -0.18876
v 3.72610 1.99411 -0.18340
v 3.62941 1.78414 -0.17898
v 3.55202 1.56311 -0.00000
v 3.17448 1.69249 -0.16733
v 3.13898 1.48796 -0.15618
v 3.18846 1.46004 -0.28593
v 3.26790 3.71318 -0.00000
v 3.24545 3.48338 -0.00000
v 3.33540 3.70296 -0.22496
v 3.31375 3.47586 -0.22396
v 3.48892 3.68351 -0.42101
v 3.46428 3.46069 -0.41790
v 3.71298 3.64873 -0.55091
v 3.67436 3.42877 -0.54474
v 3.63058 3.20500 -0.53222
v 3.91692 3.37252 -0.54848
v 3.85826 3.15121 -0.53365
v 3.79732 2.93103 -0.51257
v 4.05592 3.09083 -0.41131
v 3.97781 2.87602 -0.39600
v 3.89830 2.65954 -0.37928
v 4.09912 2.82465 -0.21229
v 4.00726 2.61558 -0.20443
v 3.91365 2.40691 -0.19560
v 4.05934 2.58870 -0.00000
v 3.95981 2.38425 -0.00000
v 3.86078 2.18067 -0.00000
v 3.29990 3.95249 -0.00000
v 3.35748 3.93681 -0.22632
v 3.51469 3.90517 -0.42449
v 3.75250 3.86300 -0.54998
v 4.01212 3.80256 -0.56024
v 3.96904 3.58889 -0.55948
v 4.25900 3.73849 -0.44566
v 4.20575 3.51956 -0.43882
v 4.13441 3.30493 -0.42720
v 4.37032 3.47246 -0.23554
v 4.28848 3.24735 -0.22910
v 4.19398 3.03509 -0.22046
v 4.15862 2.79429 -0.00000
v 4.52470 3.96247 -0.00000
v 4.43735 3.70512 -0.24458
v 4.44945 4.24460 -0.00000
v 4.22733 4.46642 -0.00000
v 3.90987 4.51577 -0.00000
v 2.03328 1.42609 -0.16467
v 2.00784 1.66140 -0.14887
v 1.98038 1.41988 -0.28913
v 1.96489 1.66326 -0.25800
v 1.95525 1.89384 -0.26692
v 1.89574 1.66500 -0.30598
v 1.88232 1.88378 -0.31164
v 1.82802 1.66433 -0.26237
v 1.80899 1.87720 -0.26913
v 1.78918 1.66406 -0.14186
v 1.76712 1.87711 -0.14310
v 1.72653 1.46439 -0.16809
v 1.79672 1.45188 -0.29988
v 1.88783 1.43750 -0.34721
v 0.57570 2.35464 -0.00000
v 0.43811 2.24712 -0.00000
v 0.24600 2.22238 -0.00000
v 0.39293 3.33671 -0.00000
v 0.36134 3.53064 -0.00000
v 0.40749 3.69940 -0.00000
v 1.00633 4.49487 -0.00000
v 0.63649 4.39562 -0.00000
v 1.41327 4.49784 -0.00000
v 1.99036 3.32078 -0.00000
v 1.99634 3.07118 -0.00000
v 1.48502 2.48071 -0.00000
v 1.38994 2.67818 -0.00000
v 2.00043 2.60369 -0.00000
v 2.00479 2.37614 -0.00000
v 1.85970 0.06600 -0.00000
v 1.63020 0.01028 -0.00000
v 2.30988 0.24787 -0.00000
v 2.53337 0.38550 -0.00000
v 3.17250 2.13636 -0.00000
v 3.76184 1.97759 -0.00000
v 3.66096 1.77273 -0.00000
v 3.14827 1.70350 -0.00000
v 3.12439 1.49882 -0.00000
v 3.16048 1.91778 -0.00000
v 3.38655 4.20392 -0.00000
v 4.36378 3.21677 -0.00000
v 4.26154 3.00145 -0.00000
v 4.45010 3.44906 -0.00000
v 4.51343 3.69430 -0.00000
v 3.59567 4.42350 -0.00000
v 2.04802 1.42650 -0.00000
v 1.78029 1.66416 -0.00000
v 1.75529 1.87879 -0.00000
v 1.70296 1.47074 -0.00000
v 1.00732 0.58646 0.39454
v 1.19952 0.22989 0.40216
v 1.82721 0.92675 0.55755
v 4.29338 4.13226 0.41270
v 3.64825 4.26743 0.37626
v 2.09250 1.14472 0.36944
v 0.55856 2.36530 0.17491
v 1.11848 0.70070 0.43511
v 1.21249 0.55687 0.51300
v 1.04265 0.46161 0.42578
v 0.88989 0.62922 0.24582
v 1.00706 0.82488 0.24691
v 0.87492 0.41444 0.24467
v 1.11420 0.33284 0.42887
v 1.29388 0.40453 0.51762
v 1.35916 0.23588 0.44272
v 1.38580 0.06400 0.24847
v 1.15848 0.10791 0.24155
v 0.98080 0.22487 0.24317
v 1.93033 0.62195 0.57167
v 1.70602 0.54931 0.58377
v 1.58830 0.77606 0.58436
v 2.11618 0.90587 0.51091
v 2.15176 0.66398 0.52523
v 1.59932 1.08591 0.44020
v 1.70943 1.24414 0.38683
v 1.86967 1.18340 0.45345
v 1.44658 0.95529 0.46607
v 4.12180 4.23505 0.46353
v 4.19734 4.41301 0.27652
v 4.40118 4.20532 0.26208
v 4.29272 3.95824 0.43923
v 4.05836 4.02065 0.54855
v 4.45937 3.95130 0.24682
v 3.56723 4.11914 0.40822
v 3.42819 4.17098 0.22561
v 3.60492 4.36705 0.23534
v 3.89412 4.45919 0.25464
v 3.85442 4.28901 0.43896
v 3.80081 4.08017 0.52883
v 2.15462 1.22815 0.17815
v 2.33519 1.16223 0.18732
v 2.32762 1.06409 0.35675
v 2.33992 0.90455 0.47040
v 0.44281 2.27479 0.20377
v 0.44119 2.44744 0.34937
v 0.58214 2.51481 0.22043
v 0.11290 2.42897 0.28938
v 0.25267 2.39803 0.35259
v 0.24924 2.24208 0.18159
v 0.06129 2.36727 0.16069
v 0.02808 2.62942 0.16744
v 0.11224 2.62225 0.31905
v 0.04477 2.86429 0.18089
v 0.12814 2.86148 0.33251
v 0.25075 2.86990 0.39124
v 0.25679 2.62794 0.39372
v 0.37993 2.89609 0.35887
v 0.42229 2.66883 0.37001
v 0.47069 2.92564 0.21459
v 0.54015 2.72222 0.22023
v 0.05743 3.09729 0.18334
v 0.52805 3.81007 0.17413
v 0.68011 3.83730 0.18743
v 0.82111 3.79703 0.20389
v 0.68098 3.93227 0.34560
v 0.87184 3.91479 0.38104
v 1.04445 3.83605 0.40995
v 0.93497 3.70532 0.22322
v 1.02278 3.58553 0.23478
v 0.18840 3.87566 0.16814
v 0.10428 3.59814 0.16833
v 0.07344 3.33948 0.17635
v 0.15161 3.58555 0.28440
v 0.12956 3.34029 0.30286
v 0.13016 3.10268 0.32560
v 0.21564 3.34181 0.35220
v 0.23279 3.11047 0.37569
v 0.30304 3.34367 0.31222
v 0.33836 3.12258 0.33742
v 0.36560 3.34027 0.18334
v 0.41156 3.13299 0.20340
v 0.34546 3.53823 0.16357
v 0.39783 3.71048 0.16090
v 0.29347 3.55540 0.28305
v 0.35652 3.74413 0.28036
v 0.49829 3.87485 0.31052
v 0.29822 3.78467 0.33479
v 0.45039 3.96911 0.36602
v 0.67169 4.08201 0.41093
v 0.40161 4.06295 0.33010
v 0.65605 4.23279 0.36764
v 0.97527 4.29900 0.40060
v 0.93349 4.10772 0.46215
v 1.31116 4.28359 0.43253
v 1.19487 4.05310 0.50421
v 1.58624 4.10977 0.46867
v 1.37372 3.92452 0.52194
v 1.16635 3.72533 0.42797
v 1.47577 3.70587 0.52140
v 1.24857 3.55948 0.43352
v 1.10216 3.44062 0.23631
v 1.32204 3.35814 0.42574
v 1.18053 3.27121 0.23269
v 0.99844 4.43876 0.22696
v 0.63918 4.35552 0.21016
v 0.35696 4.14832 0.18538
v 0.23448 3.83200 0.29610
v 0.22252 3.57162 0.33039
v 1.38422 4.43808 0.25042
v 1.74356 4.25832 0.27922
v 1.88292 3.90476 0.24785
v 1.71146 3.82241 0.44026
v 1.90714 3.58655 0.23184
v 1.75105 3.53776 0.42515
v 1.53169 3.45832 0.50672
v 1.78847 3.28514 0.40944
v 1.58925 3.22451 0.48406
v 1.39534 3.15193 0.40471
v 1.64261 2.99818 0.45899
v 1.46617 2.94423 0.38435
v 1.35155 2.89783 0.21202
v 1.26581 3.09055 0.22256
v 1.92642 3.31375 0.22336
v 1.94267 3.06738 0.21465
v 1.82262 3.04354 0.38860
v 1.94951 2.82820 0.20510
v 1.84708 2.80859 0.36852
v 1.69049 2.77317 0.43293
v 1.86647 2.57647 0.35461
v 1.73749 2.54944 0.40650
v 1.61328 2.51709 0.35132
v 1.53793 2.73180 0.36771
v 1.52542 2.49294 0.19787
v 1.43610 2.69818 0.20509
v 1.95859 2.59585 0.19864
v 1.97102 2.36886 0.18821
v 1.89275 2.34727 0.33435
v 1.98524 2.13780 0.17112
v 1.92792 2.12187 0.30063
v 1.83995 2.10281 0.34634
v 1.78854 2.32284 0.37914
v 1.75308 2.08711 0.29727
v 1.68710 2.30058 0.33062
v 1.69737 2.08262 0.16548
v 1.61241 2.28845 0.18675
v 1.99768 1.90254 0.15158
v 1.60141 1.30864 0.21289
v 1.46872 1.18672 0.24019
v 1.32718 1.07960 0.24695
v 1.27542 0.83406 0.45711
v 1.16611 0.96972 0.25152
v 2.52673 1.15457 0.18778
v 2.72023 1.16623 0.17541
v 2.74857 1.09779 0.32918
v 2.53500 1.06917 0.34943
v 2.77998 1.00984 0.40288
v 2.56107 0.94410 0.44436
v 2.82349 0.90741 0.40642
v 2.60704 0.79926 0.44778
v 2.37807 0.71564 0.47862
v 2.65927 0.67031 0.35962
v 2.43921 0.54414 0.38068
v 2.21729 0.44921 0.41309
v 2.50121 0.43374 0.20857
v 2.27789 0.30873 0.22361
v 2.05196 0.22485 0.23373
v 1.99809 0.38391 0.44158
v 1.83540 0.15413 0.24321
v 1.78737 0.32258 0.45688
v 1.61784 0.08756 0.25233
v 1.57274 0.26104 0.45961
v 1.49010 0.46570 0.56984
v 1.38739 0.66148 0.56624
v 2.70964 0.58152 0.19793
v 3.06308 1.30907 0.14805
v 2.90826 1.20021 0.15658
v 3.10022 1.27787 0.27395
v 2.94363 1.15703 0.29307
v 3.14113 1.24360 0.33461
v 2.98170 1.10272 0.36066
v 3.19479 1.19924 0.33921
v 3.02509 1.03547 0.36304
v 3.23836 1.16157 0.28672
v 3.06731 0.97463 0.30517
v 2.87155 0.81296 0.33294
v 3.09874 0.92768 0.17100
v 2.90765 0.74531 0.18472
v 3.26936 1.13361 0.16637
v 3.41136 1.35195 0.16769
v 3.37349 1.37107 0.29172
v 3.47377 1.58786 0.31083
v 3.52637 1.57200 0.17284
v 3.31578 1.39966 0.34580
v 3.39735 1.61431 0.37220
v 3.46324 1.83326 0.40169
v 3.56154 1.80414 0.32839
v 3.24652 1.43226 0.34444
v 3.31099 1.64284 0.37167
v 3.36136 1.86095 0.40037
v 3.40776 2.08331 0.42603
v 3.52876 2.05141 0.42735
v 3.23605 1.66843 0.30627
v 3.26874 1.88755 0.32389
v 3.29643 2.11257 0.33673
v 3.32292 2.33867 0.34696
v 3.45241 2.30768 0.44735
v 3.19637 1.90970 0.17541
v 3.21329 2.13173 0.18049
v 3.22910 2.35536 0.18604
v 3.24730 2.57910 0.19266
v 3.35114 2.56414 0.35853
v 3.26440 2.80406 0.20019
v 3.29630 3.25239 0.21816
v 3.27980 3.02773 0.20970
v 3.43680 3.23773 0.40704
v 3.40903 3.01368 0.39113
v 3.38000 2.78949 0.37416
v 3.58797 2.98045 0.51031
v 3.54210 2.75564 0.48957
v 3.49677 2.53247 0.46839
v 3.73486 2.70889 0.49067
v 3.66924 2.48964 0.47021
v 3.59831 2.27072 0.44877
v 3.81696 2.44477 0.36372
v 3.73108 2.23281 0.35178
v 3.64647 2.01912 0.34001
v 3.82036 2.20003 0.18876
v 3.72610 1.99411 0.18340
v 3.62941 1.78414 0.17898
v 3.17448 1.69249 0.16733
v 3.13898 1.48796 0.15618
v 3.18846 1.46004 0.28593
v 3.33540 3.70296 0.22496
v 3.31375 3.47586 0.22396
v 3.48892 3.68351 0.42101
v 3.46428 3.46069 0.41790
v 3.71298 3.64873 0.55091
v 3.67436 3.42877 0.54474
v 3.63058 3.20500 0.53222
v 3.91692 3.37252 0.54848
v 3.85826 3.15121 0.53365
v 3.79732 2.93103 0.51257
v 4.05592 3.09083 0.41131
v 3.97781 2.87602 0.39600
v 3.89830 2.65954 0.37928
v 4.09912 2.82465 0.21229
v 4.00726 2.61558 0.20443
v 3.91365 2.40691 0.19560
v 3.35748 3.93681 0.22632
v 3.51469 3.90517 0.42449
v 3.75250 3.86300 0.54998
v 4.01212 3.80256 0.56024
v 3.96904 3.58889 0.55948
v 4.25900 3.73849 0.44566
v 4.20575 3.51956 0.43882
v 4.13441 3.30493 0.42720
v 4.37032 3.47246 0.23554
v 4.28848 3.24735 0.22910
v 4.19398 3.03509 0.22046
v 4.43735 3.70512 0.24458
v 2.03328 1.42609 0.16467
v 2.00784 1.66140 0.14887
v 1.98038 1.41988 0.28913
v 1.96489 1.66326 0.25800
v 1.95525 1.89384 0.26692
v 1.89574 1.66500 0.30598
v 1.88232 1.88378 0.31164
v 1.82802 1.66433 0.26237
v 1.80899 1.87720 0.26913
v 1.78918 1.66406 0.14186
v 1.76712 1.87711 0.14310
v 1.72653 1.46439 0.16809
v 1.79672 1.45188 0.29988
v 1.88783 1.43750 0.34721
vn -0.65030 0.17269 -0.73979
vn -0.52360 0.33830 -0.78192
vn -0.37287 0.02647 -0.92751
vn -0.58406 -0.11099 -0.80409
vn -0.85681 0.24300 -0.45478
vn -0.69520 0.54463 -0.46912
vn -0.86622 -0.21057 -0.45313
vn -0.28854 -0.62113 -0.72866
vn -0.44247 -0.40940 -0.79788
vn -0.22342 -0.29844 -0.92791
vn -0.09405 -0.61717 -0.78119
vn -0.06154 -0.88504 -0.46142
vn -0.36078 -0.82298 -0.43879
vn -0.66761 -0.59757 -0.44408
vn 0.02789 0.29049 -0.95647
vn 0.17314 -0.17816 -0.96865
vn 0.07909 -0.21917 -0.97248
vn -0.12526 0.20623 -0.97045
vn 0.21095 0.29489 -0.93195
vn 0.22847 -0.15777 -0.96068
vn -0.34630 0.53820 -0.76839
vn -0.42422 0.52964 -0.73452
vn 0.07125 0.42870 -0.90063
vn -0.35360 0.52716 -0.77270
vn 0.42553 0.55382 -0.71569
vn 0.59221 0.27888 -0.75598
vn 0.26881 0.47350 -0.83877
vn 0.39069 0.78262 -0.48464
vn 0.78456 0.41118 -0.46411
vn 0.60233 0.04205 -0.79714
vn 0.20446 0.15571 -0.96641
vn 0.88404 0.04940 -0.46480
vn -0.42656 0.56618 -0.70532
vn -0.55357 0.33815 -0.76106
vn -0.78824 0.44009 -0.43012
vn -0.50751 0.74856 -0.42673
vn -0.09262 0.88477 -0.45674
vn -0.13596 0.58216 -0.80163
vn -0.20424 0.26852 -0.94137
vn 0.59468 0.74197 -0.30957
vn 0.16510 0.92606 -0.33933
vn 0.12810 0.73448 -0.66643
vn 0.12391 0.33399 -0.93440
vn 0.59705 -0.39503 -0.69820
vn 0.40924 -0.79146 -0.45400
vn 0.42217 -0.31517 -0.84996
vn 0.87457 -0.09740 -0.47502
vn 0.83618 -0.53342 -0.12754
vn 0.99978 -0.02099 0.00179
vn 0.84108 -0.54090 0.00147
vn 0.39628 -0.91813 -0.00033
vn -0.64317 -0.34097 -0.68562
vn -0.18388 -0.45969 -0.86883
vn -0.20823 -0.88551 -0.41535
vn -0.51718 -0.78424 -0.34277
vn -0.55844 -0.82954 -0.00022
vn -0.94673 -0.12403 -0.29719
vn -0.98936 -0.14549 0.00072
vn -0.99895 -0.04580 0.00037
vn -0.94777 -0.04010 -0.31642
vn -0.69706 -0.05862 -0.71462
vn -0.94281 0.04341 -0.33048
vn -0.69267 0.02131 -0.72094
vn -0.11327 0.04714 -0.99245
vn -0.15629 -0.06214 -0.98576
vn 0.22834 0.08022 -0.97027
vn 0.14757 -0.04103 -0.98820
vn 0.74402 0.14926 -0.65127
vn 0.79651 0.22874 -0.55969
vn 0.87881 0.27382 -0.39079
vn 0.86854 0.21196 -0.44800
vn 0.94885 0.31571 -0.00016
vn 0.96339 0.26812 0.00002
vn -0.99852 0.05438 0.00000
vn -0.99774 0.06713 -0.00001
vn -0.94787 0.05563 -0.31376
vn -0.10742 -0.99421 0.00071
vn 0.38206 -0.92414 -0.00031
vn 0.37285 -0.88058 -0.29252
vn -0.07566 -0.93485 -0.34688
vn -0.45223 -0.79060 -0.41284
vn -0.53290 -0.84618 0.00015
vn -0.06483 -0.65751 -0.75065
vn -0.29482 -0.53823 -0.78955
vn -0.40857 -0.39136 -0.82457
vn -0.65775 -0.58442 -0.47521
vn -0.77229 -0.63527 -0.00063
vn -0.73841 -0.44335 -0.50812
vn -0.86091 -0.50876 0.00027
vn -0.97655 0.21530 -0.00005
vn -0.91211 0.40995 0.00005
vn -0.87639 0.39299 -0.27837
vn -0.94264 0.20596 -0.26270
vn -0.95410 0.09714 -0.28330
vn -0.99423 0.10725 -0.00013
vn -0.73288 0.16510 -0.66002
vn -0.73508 0.09020 -0.67195
vn -0.70823 0.04827 -0.70432
vn -0.49135 0.08525 -0.86678
vn -0.45359 0.04771 -0.88993
vn 0.32101 0.12625 -0.93862
vn 0.42895 0.12331 -0.89487
vn 0.69673 0.15209 -0.70103
vn 0.84622 0.22161 -0.48457
vn 0.94033 0.18141 -0.28785
vn 0.90781 0.25025 -0.33653
vn 0.98079 0.19509 0.00035
vn 0.96105 0.27639 0.00002
vn 0.99742 -0.07173 0.00005
vn 0.96196 -0.07682 -0.26216
vn 0.79065 -0.55070 -0.26758
vn 0.82349 -0.56733 -0.00012
vn 0.74959 -0.06646 -0.65855
vn 0.60886 -0.43849 -0.66107
vn 0.26574 -0.66170 -0.70109
vn 0.43714 -0.32593 -0.83826
vn 0.15738 -0.45645 -0.87572
vn -0.17216 -0.08118 -0.98172
vn -0.34518 0.19301 -0.91848
vn -0.52129 0.39632 -0.75577
vn -0.32060 0.51000 -0.79819
vn -0.13370 0.56461 -0.81446
vn -0.17814 -0.00506 -0.98399
vn 0.06179 0.52277 -0.85023
vn -0.13837 0.02911 -0.98995
vn 0.33540 0.31073 -0.88936
vn -0.06898 -0.00237 -0.99762
vn -0.46174 -0.27655 -0.84280
vn -0.00272 -0.05015 -0.99874
vn -0.49475 -0.22777 -0.83866
vn -0.77585 -0.38050 -0.50326
vn -0.50929 -0.24650 -0.82454
vn -0.78998 -0.37651 -0.48392
vn -0.89867 -0.43862 0.00003
vn -0.89173 -0.45256 0.00009
vn -0.43443 0.90071 -0.00013
vn -0.12998 0.99152 -0.00021
vn -0.12813 0.89253 -0.43241
vn -0.40984 0.82214 -0.39511
vn -0.70537 0.62537 -0.33372
vn -0.74245 0.66990 0.00001
vn -0.66478 0.27269 -0.69549
vn -0.44073 0.15040 -0.88495
vn -0.49846 0.12043 -0.85851
vn 0.52829 -0.04633 -0.84780
vn 0.21560 0.97648 -0.00007
vn 0.17478 0.85888 -0.48143
vn 0.43131 0.90220 -0.00004
vn 0.62486 0.57081 -0.53266
vn 0.93264 0.36080 0.00070
vn 0.97545 0.22021 0.00052
vn 0.84830 0.17571 -0.49951
vn 0.52019 0.08521 -0.84979
vn 0.87831 0.05529 -0.47488
vn 0.57591 0.02732 -0.81706
vn 0.02595 -0.08240 -0.99626
vn 0.60035 0.01973 -0.79950
vn 0.02572 -0.10666 -0.99396
vn -0.52930 -0.26979 -0.80440
vn -0.33064 -0.18580 -0.92529
vn -0.55898 -0.26642 -0.78521
vn -0.82129 -0.37216 -0.43242
vn -0.80044 -0.38339 -0.46077
vn -0.90659 -0.42201 0.00000
vn -0.89926 -0.43742 0.00003
vn 0.99823 0.05953 0.00029
vn 0.99909 0.04268 0.00008
vn 0.89336 0.04752 -0.44682
vn 0.99966 0.02593 -0.00003
vn 0.90947 0.03007 -0.41467
vn 0.62311 0.00322 -0.78213
vn 0.92176 0.02096 -0.38720
vn 0.64195 -0.00258 -0.76674
vn 0.38024 -0.02931 -0.92442
vn 0.37100 -0.02817 -0.92821
vn 0.65678 0.00349 -0.75408
vn 0.38565 -0.02834 -0.92221
vn -0.34486 -0.18529 -0.92018
vn -0.35994 -0.19479 -0.91242
vn -0.60564 -0.28099 -0.74447
vn -0.58259 -0.26848 -0.76714
vn -0.85235 -0.37959 -0.35975
vn -0.83829 -0.37191 -0.39868
vn -0.90843 -0.41803 0.00003
vn -0.90899 -0.41682 0.00005
vn 0.99985 0.01736 -0.00002
vn 0.99962 0.02768 -0.00003
vn 0.93183 0.03140 -0.36154
vn 0.99944 0.03350 0.00005
vn 0.94445 0.03831 -0.32642
vn 0.68476 0.00208 -0.72877
vn 0.95971 0.03716 -0.27853
vn 0.72945 -0.00536 -0.68402
vn 0.46811 -0.05175 -0.88216
vn 0.41347 -0.03934 -0.90967
vn -0.38946 -0.22399 -0.89339
vn -0.43430 -0.23838 -0.86865
vn -0.68735 -0.30294 -0.66013
vn -0.63872 -0.30299 -0.70727
vn -0.89878 -0.35890 -0.25175
vn -0.86943 -0.38421 -0.31062
vn -0.92473 -0.38063 0.00016
vn -0.91005 -0.41450 0.00008
vn 0.99948 0.03226 0.00011
vn 0.99948 0.03232 0.00011
vn 0.97026 0.03359 -0.23972
vn -0.59729 0.80203 -0.00065
vn -0.65838 0.75268 -0.00164
vn -0.62253 0.67333 -0.39885
vn -0.53594 0.70821 -0.45957
vn -0.50892 0.71820 -0.47454
vn -0.57989 0.81469 -0.00004
vn -0.42412 0.46007 -0.78004
vn -0.55945 0.67669 -0.47864
vn -0.63434 0.77305 0.00013
vn -0.78983 0.61333 -0.00023
vn 0.17274 0.98497 -0.00025
vn 0.00032 1.00000 0.00027
vn -0.00906 0.94275 -0.33338
vn 0.61197 0.79088 -0.00092
vn -0.09380 0.95184 -0.29188
vn -0.09016 0.79646 -0.59793
vn -0.01507 0.76402 -0.64502
vn -0.08062 0.99674 0.00047
vn 0.04330 0.39552 -0.91744
vn 0.06252 0.35495 -0.93279
vn 0.29533 -0.16928 -0.94028
vn 0.24479 -0.18267 -0.95221
vn 0.22450 -0.17229 -0.95912
vn 0.43722 -0.56419 -0.70038
vn 0.37301 -0.55495 -0.74357
vn 0.31348 -0.55994 -0.76694
vn 0.49514 -0.75259 -0.43411
vn 0.39708 -0.78956 -0.46789
vn 0.31273 -0.81435 -0.48891
vn 0.25347 -0.58184 -0.77280
vn 0.26895 -0.82674 -0.49412
vn 0.20630 -0.59412 -0.77747
vn 0.15581 -0.85988 -0.48613
vn 0.09236 -0.60875 -0.78797
vn -0.05650 -0.26261 -0.96325
vn -0.25052 0.12910 -0.95946
vn 0.29941 -0.95412 0.00030
vn 0.17012 -0.98542 -0.00003
vn -0.07468 -0.99721 0.00003
vn -0.39430 -0.91898 0.00065
vn -0.73691 -0.67599 0.00043
vn -0.97437 -0.22496 -0.00034
vn -0.95979 0.28070 -0.00085
vn 0.35852 -0.93352 0.00029
vn 0.45271 -0.89166 0.00035
vn 0.55555 -0.83148 0.00013
vn 0.56820 -0.72543 -0.38846
vn 0.62765 -0.77849 -0.00001
vn -0.35430 0.93513 0.00026
vn -0.77745 0.62895 -0.00006
vn -0.75267 0.61192 -0.24298
vn -0.35594 0.89951 -0.25334
vn -0.64034 0.53459 -0.55153
vn -0.31579 0.76966 -0.55489
vn -0.54245 0.46524 -0.69949
vn -0.08752 0.40816 -0.90871
vn -0.00199 0.04873 -0.99881
vn 0.30733 -0.16021 -0.93802
vn 0.53218 -0.38557 -0.75373
vn 0.66531 -0.48891 -0.56420
vn 0.59452 -0.53728 -0.59823
vn 0.51576 -0.55973 -0.64861
vn 0.71014 -0.64952 -0.27171
vn 0.63672 -0.69683 -0.33018
vn 0.74441 -0.66772 0.00003
vn 0.68489 -0.72864 -0.00009
vn 0.78305 -0.57605 -0.23452
vn 0.80791 -0.58931 0.00008
vn 0.83794 -0.49322 -0.23363
vn 0.85944 -0.51123 0.00007
vn 0.70611 -0.42134 -0.56910
vn 0.71112 -0.36459 -0.60116
vn 0.86022 -0.43660 -0.26343
vn 0.26356 -0.21240 -0.94097
vn 0.25783 -0.21478 -0.94202
vn 0.25684 -0.19810 -0.94593
vn 0.69949 -0.33166 -0.63302
vn -0.05532 -0.05843 -0.99676
vn -0.37204 -0.02552 -0.92787
vn -0.35662 -0.03948 -0.93342
vn -0.34530 -0.03043 -0.93800
vn 0.25858 -0.18314 -0.94847
vn -0.79428 0.09397 -0.60024
vn -0.77930 0.05926 -0.62385
vn -0.76342 0.05403 -0.64364
vn -0.74730 0.05376 -0.66231
vn -0.33634 -0.02490 -0.94141
vn -0.94314 0.07350 -0.32417
vn -0.93378 0.06281 -0.35229
vn -0.92362 0.06234 -0.37820
vn -0.91407 0.06221 -0.40076
vn -0.73163 0.04921 -0.67993
vn -0.99825 0.05908 0.00006
vn -0.99822 0.05958 0.00001
vn -0.99799 0.06342 0.00000
vn -0.99834 0.05754 0.00001
vn -0.90630 0.05469 -0.41908
vn -0.99852 0.05439 0.00000
vn -0.99806 0.06229 0.00000
vn -0.89118 0.05680 -0.45008
vn -0.89865 0.05065 -0.43573
vn -0.67869 0.04040 -0.73331
vn -0.69587 0.03415 -0.71736
vn -0.71409 0.04079 -0.69887
vn -0.30458 -0.03597 -0.95181
vn -0.31613 -0.03114 -0.94821
vn -0.32781 -0.02719 -0.94435
vn 0.24436 -0.16873 -0.95489
vn 0.25258 -0.17419 -0.95177
vn 0.25752 -0.17754 -0.94982
vn 0.65675 -0.30555 -0.68944
vn 0.67128 -0.31161 -0.67252
vn 0.68584 -0.31578 -0.65567
vn 0.84266 -0.39158 -0.36958
vn 0.85288 -0.39573 -0.34058
vn 0.86001 -0.40970 -0.30420
vn 0.90251 -0.43067 -0.00005
vn 0.89727 -0.44148 -0.00004
vn 0.88647 -0.46278 0.00006
vn -0.96622 0.25773 0.00008
vn -0.99418 0.10774 -0.00001
vn -0.95050 0.11333 -0.28933
vn -0.93153 0.26073 -0.25353
vn -0.78844 0.23315 -0.56921
vn -0.66044 0.19641 -0.72474
vn -0.99761 0.06909 -0.00007
vn -0.99665 0.08173 0.00001
vn -0.99458 0.10397 -0.00013
vn -0.88378 0.08910 -0.45934
vn -0.88522 0.07339 -0.45934
vn -0.64686 0.06893 -0.75949
vn -0.66213 0.05732 -0.74720
vn -0.26887 0.02445 -0.96287
vn -0.28016 0.00128 -0.95995
vn -0.29210 -0.02351 -0.95610
vn 0.21104 -0.11844 -0.97028
vn 0.22485 -0.14739 -0.96318
vn 0.23419 -0.16413 -0.95824
vn 0.60095 -0.27423 -0.75077
vn 0.62170 -0.28486 -0.72962
vn 0.64047 -0.29465 -0.70921
vn 0.81160 -0.37505 -0.44794
vn 0.82369 -0.37975 -0.42109
vn 0.83288 -0.38753 -0.39514
vn 0.90480 -0.42584 -0.00001
vn 0.90376 -0.42804 -0.00001
vn 0.90348 -0.42863 -0.00000
vn -0.97734 0.21170 0.00029
vn -0.86340 0.50452 -0.00028
vn -0.87357 0.18257 -0.45116
vn -0.62113 0.14025 -0.77105
vn -0.25129 0.08594 -0.96409
vn 0.19347 -0.01397 -0.98101
vn 0.19789 -0.07747 -0.97716
vn 0.58711 -0.11362 -0.80150
vn 0.58132 -0.19575 -0.78978
vn 0.58592 -0.24736 -0.77169
vn 0.82453 -0.27393 -0.49509
vn 0.80371 -0.33764 -0.48995
vn 0.79885 -0.37149 -0.47311
vn 0.92210 -0.38694 0.00004
vn 0.90353 -0.42852 0.00003
vn 0.90365 -0.42826 -0.00001
vn 0.95087 -0.30958 0.00022
vn 0.99636 0.08525 0.00021
vn 0.98572 -0.16839 -0.00030
vn 0.85739 -0.15876 -0.48957
vn 0.87460 0.48485 0.00094
vn 0.45277 0.89163 0.00011
vn -0.07942 0.99684 -0.00049
vn -0.53606 0.84418 -0.00111
vn 0.91307 0.31994 -0.25287
vn 0.94122 0.33778 -0.00055
vn 0.97008 0.07485 -0.23096
vn 0.99718 0.07504 0.00004
vn 0.71737 0.27985 -0.63802
vn 0.77532 0.07441 -0.62717
vn 0.76628 0.00366 -0.64250
vn 0.55284 0.06861 -0.83046
vn 0.52344 -0.02710 -0.85163
vn -0.49094 -0.14778 -0.85857
vn -0.50348 0.06538 -0.86153
vn -0.75956 0.07776 -0.64577
vn -0.75241 -0.18744 -0.63147
vn -0.96921 0.10145 -0.22439
vn -0.95348 -0.21831 -0.20790
vn -0.99291 0.11883 0.00007
vn -0.97308 -0.23046 0.00000
vn -0.82035 0.48374 -0.30498
vn -0.84440 0.53572 -0.00092
vn -0.61023 0.38985 -0.68967
vn -0.38688 0.31931 -0.86508
vn 0.51524 0.24236 -0.82206
vn 0.14063 -0.99006 0.00003
vn -0.58370 -0.10532 0.80511
vn -0.37753 0.02619 0.92563
vn -0.52774 0.33714 0.77963
vn -0.64742 0.17873 0.74088
vn -0.69539 0.54411 0.46944
vn -0.85328 0.24767 0.45889
vn -0.86494 -0.20583 0.45773
vn -0.09887 -0.61879 0.77931
vn -0.22690 -0.30189 0.92595
vn -0.43860 -0.41212 0.79862
vn -0.28393 -0.62127 0.73035
vn -0.35668 -0.82172 0.44448
vn -0.06296 -0.88422 0.46281
vn -0.66347 -0.59870 0.44874
vn -0.12391 0.20670 0.97053
vn 0.07976 -0.21804 0.97267
vn 0.17353 -0.17649 0.96889
vn 0.02873 0.28552 0.95794
vn 0.22848 -0.15696 0.96081
vn 0.21338 0.28975 0.93302
vn 0.06906 0.42597 0.90210
vn -0.42635 0.51893 0.74090
vn -0.34436 0.53786 0.76949
vn -0.35246 0.52662 0.77359
vn 0.42688 0.55959 0.71038
vn 0.78300 0.40890 0.46873
vn 0.39212 0.78007 0.48758
vn 0.27359 0.47223 0.83794
vn 0.59402 0.27892 0.75455
vn 0.20896 0.15827 0.96503
vn 0.60381 0.04624 0.79578
vn 0.88255 0.05086 0.46746
vn -0.50418 0.74937 0.42924
vn -0.78551 0.44172 0.43342
vn -0.55168 0.34167 0.76086
vn -0.42421 0.56889 0.70456
vn -0.13904 0.58417 0.79963
vn -0.09293 0.88454 0.45711
vn -0.20675 0.27176 0.93989
vn 0.13118 0.73428 0.66605
vn 0.16501 0.92637 0.33854
vn 0.59353 0.74490 0.30469
vn 0.12672 0.33327 0.93428
vn 0.88348 -0.10613 0.45628
vn 0.44019 -0.32240 0.83803
vn 0.42197 -0.79582 0.43430
vn 0.79664 -0.51577 0.31519
vn -0.52849 -0.77315 0.35062
vn -0.21444 -0.88159 0.42049
vn -0.18930 -0.45088 0.87228
vn -0.65088 -0.32826 0.68454
vn -0.94887 -0.03852 0.31331
vn -0.94909 -0.12055 0.29102
vn -0.69944 -0.05717 0.71240
vn -0.69270 0.02101 0.72092
vn -0.94285 0.04351 0.33036
vn -0.15560 -0.06311 0.98580
vn -0.11280 0.04596 0.99255
vn 0.14781 -0.04212 0.98812
vn 0.22916 0.07902 0.97018
vn 0.86893 0.21056 0.44792
vn 0.87896 0.27329 0.39082
vn 0.79671 0.22723 0.56002
vn 0.74481 0.14659 0.65097
vn -0.94797 0.05535 0.31352
vn -0.07759 -0.93622 0.34273
vn 0.37185 -0.88120 0.29193
vn -0.45096 -0.79089 0.41368
vn -0.29669 -0.54162 0.78653
vn -0.06853 -0.66003 0.74811
vn -0.65469 -0.58453 0.47927
vn -0.40629 -0.39258 0.82511
vn -0.73670 -0.44436 0.50972
vn -0.94266 0.20609 0.26253
vn -0.87656 0.39231 0.27881
vn -0.95418 0.09660 0.28321
vn -0.73472 0.09054 0.67231
vn -0.73170 0.16528 0.66128
vn -0.70829 0.04835 0.70426
vn -0.45323 0.04860 0.89007
vn -0.49037 0.08685 0.86718
vn 0.32100 0.12716 0.93850
vn 0.69782 0.15206 0.69994
vn 0.43158 0.12340 0.89359
vn 0.90782 0.25044 0.33637
vn 0.94049 0.18010 0.28816
vn 0.84612 0.22270 0.48423
vn 0.96194 -0.07711 0.26215
vn 0.79078 -0.54976 0.26913
vn 0.60827 -0.44100 0.65995
vn 0.74995 -0.06466 0.65833
vn 0.26722 -0.66286 0.69944
vn 0.16145 -0.45867 0.87382
vn 0.43757 -0.33369 0.83498
vn -0.17175 -0.07886 0.98198
vn -0.31954 0.51109 0.79793
vn -0.52182 0.39553 0.75582
vn -0.34625 0.19308 0.91806
vn -0.18074 -0.00665 0.98351
vn -0.13203 0.56633 0.81353
vn -0.14317 0.02544 0.98937
vn 0.06209 0.52263 0.85029
vn -0.06858 -0.00314 0.99764
vn 0.33769 0.31075 0.88848
vn -0.46066 -0.27735 0.84313
vn -0.49454 -0.22814 0.83868
vn 0.00014 -0.04921 0.99879
vn -0.77581 -0.38073 0.50316
vn -0.79005 -0.37743 0.48308
vn -0.50966 -0.24746 0.82402
vn -0.40979 0.82217 0.39511
vn -0.12781 0.89264 0.43227
vn -0.70566 0.62476 0.33425
vn -0.66406 0.27224 0.69636
vn -0.43894 0.15097 0.88574
vn -0.49538 0.12002 0.86034
vn 0.52909 -0.04364 0.84744
vn 0.17627 0.85939 0.47998
vn 0.62571 0.57034 0.53216
vn 0.84823 0.17507 0.49986
vn 0.52237 0.08625 0.84835
vn 0.57642 0.02787 0.81668
vn 0.87858 0.05569 0.47434
vn 0.02574 -0.08254 0.99626
vn 0.02588 -0.10627 0.99400
vn 0.60061 0.02000 0.79929
vn -0.52935 -0.26970 0.80440
vn -0.55900 -0.26675 0.78508
vn -0.33068 -0.18666 0.92510
vn -0.80056 -0.38333 0.46062
vn -0.82131 -0.37209 0.43244
vn 0.89346 0.04759 0.44662
vn 0.90948 0.03043 0.41464
vn 0.62315 0.00323 0.78210
vn 0.64194 -0.00232 0.76675
vn 0.92174 0.02156 0.38720
vn 0.37106 -0.02830 0.92818
vn 0.38028 -0.03002 0.92439
vn 0.38551 -0.02798 0.92228
vn 0.65679 0.00351 0.75406
vn -0.58269 -0.26832 0.76712
vn -0.60571 -0.28131 0.74430
vn -0.35995 -0.19522 0.91232
vn -0.34495 -0.18507 0.92019
vn -0.83831 -0.37187 0.39869
vn -0.85231 -0.37978 0.35964
vn 0.93188 0.03134 0.36142
vn 0.94441 0.03958 0.32637
vn 0.68476 0.00251 0.72876
vn 0.72947 -0.00504 0.68400
vn 0.95963 0.03744 0.27877
vn 0.41331 -0.03991 0.90972
vn 0.46843 -0.05175 0.88198
vn -0.63896 -0.30251 0.70726
vn -0.68758 -0.30217 0.66024
vn -0.43451 -0.23782 0.86870
vn -0.38945 -0.22381 0.89344
vn -0.86975 -0.38348 0.31062
vn -0.89887 -0.35851 0.25200
vn 0.97022 0.03238 0.24005
vn -0.53360 0.71091 0.45813
vn -0.62027 0.67469 0.40006
vn -0.50876 0.71807 0.47491
vn -0.55914 0.67673 0.47896
vn -0.42522 0.45933 0.77988
vn -0.00936 0.94281 0.33320
vn -0.01475 0.76443 0.64454
vn -0.09159 0.79508 0.59955
vn -0.09591 0.95142 0.29259
vn 0.06340 0.35554 0.93251
vn 0.04282 0.39377 0.91821
vn 0.24382 -0.18348 0.95231
vn 0.29551 -0.16917 0.94024
vn 0.22380 -0.17275 0.95920
vn 0.37118 -0.55644 0.74337
vn 0.43586 -0.56528 0.70035
vn 0.31383 -0.56001 0.76675
vn 0.39708 -0.78954 0.46792
vn 0.49425 -0.75325 0.43397
vn 0.25384 -0.58165 0.77282
vn 0.31315 -0.81402 0.48919
vn 0.20654 -0.59385 0.77761
vn 0.26907 -0.82650 0.49446
vn 0.09031 -0.60912 0.78792
vn 0.15591 -0.85974 0.48636
vn -0.05844 -0.26313 0.96299
vn -0.25217 0.12810 0.95917
vn 0.56877 -0.72502 0.38839
vn -0.35754 0.89861 0.25431
vn -0.75276 0.61201 0.24246
vn -0.31803 0.76763 0.55642
vn -0.64125 0.53534 0.54973
vn -0.08953 0.40706 0.90900
vn -0.54421 0.46672 0.69714
vn 0.30717 -0.15982 0.93814
vn -0.00390 0.05070 0.99871
vn 0.59423 -0.53835 0.59755
vn 0.66477 -0.48998 0.56392
vn 0.53148 -0.38674 0.75363
vn 0.51622 -0.55953 0.64841
vn 0.63696 -0.69680 0.32977
vn 0.70921 -0.65073 0.27125
vn 0.78284 -0.57641 0.23433
vn 0.83764 -0.49362 0.23389
vn 0.70588 -0.42134 0.56939
vn 0.85973 -0.43741 0.26368
vn 0.71068 -0.36539 0.60118
vn 0.26319 -0.21184 0.94120
vn 0.25823 -0.21461 0.94195
vn 0.69920 -0.33216 0.63309
vn 0.25668 -0.19836 0.94592
vn -0.37133 -0.02458 0.92818
vn -0.38318 0.07420 0.92069
vn -0.35654 -0.03934 0.93345
vn 0.25864 -0.18296 0.94849
vn -0.34528 -0.03036 0.93801
vn -0.77908 0.05982 0.62407
vn -0.79363 0.09526 0.60089
vn -0.76341 0.05407 0.64365
vn -0.33624 -0.02456 0.94146
vn -0.74725 0.05403 0.66234
vn -0.93374 0.06298 0.35236
vn -0.94307 0.07377 0.32431
vn -0.92364 0.06230 0.37817
vn -0.73156 0.04943 0.67999
vn -0.91401 0.06250 0.40084
vn -0.90630 0.05462 0.41909
vn -0.89867 0.05056 0.43570
vn -0.89117 0.05687 0.45009
vn -0.69579 0.03442 0.71742
vn -0.67873 0.04032 0.73328
vn -0.71407 0.04074 0.69889
vn -0.31608 -0.03111 0.94822
vn -0.30448 -0.03568 0.95185
vn -0.32780 -0.02725 0.94435
vn 0.25248 -0.17445 0.95175
vn 0.24436 -0.16869 0.95490
vn 0.25753 -0.17751 0.94982
vn 0.67120 -0.31199 0.67243
vn 0.65670 -0.30573 0.68940
vn 0.68595 -0.31561 0.65564
vn 0.85288 -0.39582 0.34047
vn 0.84256 -0.39190 0.36946
vn 0.85991 -0.40989 0.30421
vn -0.93145 0.26106 0.25348
vn -0.95031 0.11409 0.28965
vn -0.78886 0.23364 0.56843
vn -0.88524 0.07327 0.45933
vn -0.88382 0.08906 0.45926
vn -0.66220 0.05713 0.74714
vn -0.64676 0.06878 0.75959
vn -0.28028 0.00098 0.95992
vn -0.26881 0.02420 0.96289
vn -0.29218 -0.02375 0.95607
vn 0.22461 -0.14812 0.96312
vn 0.21102 -0.11880 0.97024
vn 0.23419 -0.16416 0.95823
vn 0.62145 -0.28537 0.72963
vn 0.60070 -0.27493 0.75071
vn 0.64049 -0.29462 0.70920
vn 0.82360 -0.37998 0.42107
vn 0.81134 -0.37560 0.44795
vn 0.83294 -0.38741 0.39513
vn -0.87344 0.18251 0.45144
vn -0.62109 0.13990 0.77115
vn -0.25120 0.08569 0.96413
vn 0.19333 -0.01399 0.98104
vn 0.19787 -0.07737 0.97717
vn 0.58105 -0.19558 0.79001
vn 0.58655 -0.11352 0.80192
vn 0.58606 -0.24730 0.77161
vn 0.80377 -0.33749 0.48996
vn 0.82420 -0.27410 0.49555
vn 0.79884 -0.37151 0.47312
vn 0.85725 -0.15878 0.48981
vn 0.91276 0.32304 0.25002
vn 0.97004 0.07450 0.23124
vn 0.77510 0.07354 0.62755
vn 0.71691 0.29265 0.63276
vn 0.76601 0.00338 0.64282
vn 0.52313 -0.02609 0.85186
vn 0.55254 0.06768 0.83073
vn -0.75226 -0.18807 0.63146
vn -0.75987 0.08219 0.64485
vn -0.50430 0.06860 0.86080
vn -0.49079 -0.14804 0.85861
vn -0.95323 -0.21943 0.20785
vn -0.96923 0.10267 0.22374
vn -0.82020 0.48285 0.30680
vn -0.61183 0.38186 0.69271
vn -0.38870 0.31071 0.86739
vn 0.51434 0.26152 0.81674
f 1//1 8//2 9//3 10//4
f 1//1 11//5 12//6 8//2
f 1//1 10//4 13//7 11//5
f 2//8 14//9 15//10 16//11
f 2//8 16//11 17//12 18//13
f 2//8 18//13 19//14 14//9
f 3//15 20//16 21//17 22//18
f 3//15 23//19 24//20 20//16
f 3//15 25//21 26//22 27//23
f 3//15 22//18 28//24 25//21
f 3//15 27//23 6//25 23//19
f 4//26 29//27 30//28 31//29
f 4//26 32//30 33//31 29//27
f 4//26 31//29 34//32 32//30
f 5//33 35//34 36//35 37//36
f 5//33 37//36 38//37 39//38
f 5//33 39//38 40//39 35//34
f 6//25 41//40 42//41 43//42
f 6//25 43//42 44//43 23//19
f 7//44 46//45 47//46 48//47
f 7//48 48//47 45//49 345//50
f 7//48 345//50 346//51 46//45
f 49//52 50//53 51//54 52//55
f 52//55 51//54 347//56 53//56
f 52//57 53//58 54//59 55//60
f 52//57 55//60 56//61 49//52
f 56//61 55//60 57//62 58//63
f 56//61 58//63 59//64 60//65
f 56//61 60//65 50//53 49//52
f 60//65 59//64 61//66 62//67
f 60//65 62//67 47//46 50//53
f 62//68 61//69 63//70 64//71
f 62//68 64//71 48//47 47//46
f 64//71 63//70 65//72 66//73
f 64//71 66//73 45//49 48//47
f 67//74 68//75 69//76 57//62
f 67//74 57//62 55//60 54//59
f 72//77 71//78 74//79 75//80
f 72//77 75//80 76//81 73//82
f 76//81 75//80 77//83 78//84
f 76//81 78//84 79//85 80//86
f 76//81 80//86 81//87 73//82
f 81//87 80//86 82//88 83//89
f 86//90 85//91 87//92 88//93
f 86//90 88//93 89//94 70//95
f 89//94 69//76 68//75 70//95
f 89//94 88//93 90//96 91//97
f 89//94 91//97 92//98 69//76
f 92//98 58//63 57//62 69//76
f 92//98 91//97 93//99 94//100
f 92//98 94//100 59//64 58//63
f 94//101 93//102 95//103 96//101
f 94//101 96//101 61//66 59//64
f 96//104 95//103 97//105 98//106
f 96//104 98//106 63//70 61//69
f 98//106 97//105 348//107 99//108
f 98//106 99//108 65//72 63//70
f 349//109 348//107 97//105 100//110
f 349//109 100//110 101//111 350//112
f 101//111 100//110 102//113 103//114
f 101//111 103//114 104//115 74//79
f 101//111 74//79 71//78 350//112
f 104//115 103//114 105//116 106//117
f 104//115 106//117 107//118 77//83
f 104//115 77//83 75//80 74//79
f 107//118 106//119 108//120 109//121
f 107//118 109//121 110//122 111//123
f 107//118 111//123 78//84 77//83
f 111//123 110//122 112//124 113//125
f 111//123 113//125 79//85 78//84
f 113//125 112//124 114//126 115//127
f 113//125 115//127 116//128 79//85
f 116//128 115//127 117//129 118//130
f 116//128 118//130 119//131 82//88
f 116//128 82//88 80//86 79//85
f 119//131 118//130 120//132 121//133
f 119//131 121//133 122//134 123//135
f 119//131 123//135 83//89 82//88
f 352//136 351//137 124//138 125//139
f 352//136 125//139 126//140 84//141
f 126//140 87//92 85//91 84//141
f 126//140 125//139 109//121 108//120
f 126//140 108//120 127//142 87//92
f 127//142 90//96 88//93 87//92
f 127//142 108//120 106//119 105//143
f 127//142 105//143 128//144 90//96
f 128//144 93//99 91//97 90//96
f 128//145 105//116 103//114 102//113
f 128//145 102//113 95//103 93//102
f 125//139 124//138 110//122 109//121
f 124//138 351//137 353//146 129//147
f 124//138 129//147 112//124 110//122
f 129//147 353//146 130//148 131//149
f 129//147 131//149 114//126 112//124
f 131//149 130//150 132//151 133//152
f 131//149 133//152 134//153 114//126
f 134//153 133//152 135//154 136//155
f 134//153 136//155 137//156 117//129
f 134//153 117//129 115//127 114//126
f 137//156 136//155 138//157 139//158
f 137//156 139//158 140//159 120//132
f 137//156 120//132 118//130 117//129
f 140//159 139//158 141//160 142//161
f 140//159 142//161 143//162 144//163
f 140//159 144//163 121//133 120//132
f 144//163 143//162 145//164 146//165
f 144//163 146//165 122//134 121//133
f 147//166 354//167 148//168 135//154
f 147//166 135//154 133//152 132//151
f 148//168 354//167 355//169 149//170
f 148//168 149//170 150//171 138//157
f 148//168 138//157 136//155 135//154
f 150//171 149//170 151//172 152//173
f 150//171 152//173 153//174 141//175
f 150//171 141//175 139//158 138//157
f 153//174 152//173 154//176 155//177
f 153//178 155//179 156//180 157//181
f 153//178 157//181 142//161 141//160
f 157//181 156//180 158//182 159//183
f 157//181 159//183 143//162 142//161
f 159//183 158//182 356//184 357//185
f 159//183 357//185 145//164 143//162
f 160//186 358//187 161//188 151//172
f 160//186 151//172 149//170 355//169
f 161//188 358//187 359//189 162//190
f 161//188 162//190 163//191 154//176
f 161//188 154//176 152//173 151//172
f 163//191 162//190 164//192 165//193
f 163//191 165//193 166//194 167//195
f 163//191 167//195 155//177 154//176
f 167//196 166//197 168//198 169//199
f 167//196 169//199 156//180 155//179
f 169//199 168//198 170//200 171//201
f 169//199 171//201 158//182 156//180
f 171//201 170//200 172//202 173//203
f 171//201 173//203 356//184 158//182
f 174//204 175//205 176//206 164//192
f 174//204 164//192 162//190 359//189
f 179//207 178//208 181//209 182//210
f 179//207 182//210 183//211 180//212
f 183//211 182//210 25//21 28//24
f 183//211 28//24 184//213 185//214
f 183//211 185//214 186//215 180//212
f 186//215 185//214 12//6 187//216
f 190//217 189//218 192//219 42//41
f 190//217 42//41 41//40 191//220
f 192//219 193//221 194//222 195//223
f 192//219 195//223 43//42 42//41
f 192//219 189//218 188//224 193//221
f 195//223 194//222 196//225 197//226
f 195//223 197//226 44//43 43//42
f 197//226 196//225 198//227 199//228
f 197//226 199//228 200//229 44//43
f 200//229 199//228 201//230 202//231
f 200//229 202//231 203//232 24//20
f 200//229 24//20 23//19 44//43
f 203//232 202//231 204//233 205//234
f 203//232 205//234 206//235 207//236
f 203//232 207//236 20//16 24//20
f 207//236 206//235 208//237 209//238
f 207//236 209//238 21//17 20//16
f 209//238 208//237 210//239 211//240
f 209//238 211//240 212//241 21//17
f 212//241 211//240 16//11 15//10
f 212//241 15//10 9//3 213//242
f 212//241 213//242 22//18 21//17
f 213//242 9//3 8//2 184//213
f 213//242 184//213 28//24 22//18
f 211//240 210//239 17//12 16//11
f 210//239 208//237 360//243 361//244
f 210//239 361//244 214//245 17//12
f 214//245 215//246 18//13 17//12
f 215//246 216//247 19//14 18//13
f 216//247 217//248 13//7 19//14
f 217//248 218//249 11//5 13//7
f 218//249 187//216 12//6 11//5
f 360//243 208//237 206//235 219//250
f 219//250 206//235 205//234 362//251
f 362//251 205//234 204//233 363//252
f 363//252 204//233 220//253 221//254
f 224//255 223//256 225//257 226//258
f 224//255 226//258 193//221 188//224
f 226//258 225//257 227//259 228//260
f 226//258 228//260 194//222 193//221
f 228//260 227//259 229//261 230//262
f 228//260 230//262 196//225 194//222
f 230//262 229//263 231//263 232//264
f 230//262 232//264 198//227 196//225
f 232//264 231//265 233//266 234//267
f 232//264 234//267 235//268 198//227
f 235//268 234//267 236//269 237//270
f 235//268 237//270 220//253 201//230
f 235//268 201//230 199//228 198//227
f 237//270 236//269 238//271 222//272
f 237//270 222//272 221//254 220//253
f 238//271 236//269 240//273 239//274
f 240//273 241//275 242//276 239//274
f 240//273 236//269 234//267 233//266
f 240//273 233//266 243//277 241//275
f 243//277 244//278 245//279 241//275
f 243//277 233//266 231//265 246//280
f 243//277 246//280 247//281 244//278
f 247//281 248//282 249//283 244//278
f 247//281 246//280 250//284 251//285
f 247//281 251//285 252//286 248//282
f 252//286 253//287 254//288 248//282
f 252//286 251//285 255//289 256//290
f 252//286 256//290 257//291 253//287
f 257//291 258//292 259//293 253//287
f 257//291 256//290 260//294 261//295
f 257//291 261//295 262//296 258//292
f 262//296 263//297 264//298 258//292
f 262//296 261//295 364//299 265//300
f 262//296 265//300 266//301 263//297
f 266//301 267//302 268//303 263//297
f 269//304 270//305 271//306 272//307
f 269//304 272//307 268//303 267//302
f 272//307 271//306 273//308 274//309
f 272//307 274//309 275//310 268//303
f 275//310 274//309 276//311 277//312
f 275//310 277//312 278//313 264//298
f 275//310 264//298 263//297 268//303
f 278//313 277//312 279//314 280//315
f 278//313 280//315 281//316 259//293
f 278//313 259//293 258//292 264//298
f 281//316 280//315 282//317 283//318
f 281//316 283//318 284//319 254//288
f 281//316 254//288 253//287 259//293
f 284//319 283//318 285//320 286//321
f 284//319 286//321 287//322 249//283
f 284//319 249//283 248//282 254//288
f 287//322 286//321 365//323 366//324
f 287//322 366//324 288//325 245//279
f 287//322 245//279 244//278 249//283
f 288//325 242//276 241//275 245//279
f 368//326 367//327 289//328 290//329
f 368//326 290//329 225//257 223//256
f 290//329 289//328 255//289 291//330
f 290//329 291//330 227//259 225//257
f 291//330 255//289 251//285 250//331
f 291//330 250//331 229//261 227//259
f 289//328 260//294 256//290 255//289
f 289//328 367//327 369//332 260//294
f 369//332 364//299 261//295 260//294
f 293//333 292//334 294//335 295//336
f 293//333 295//336 271//306 270//305
f 295//336 294//335 296//337 297//338
f 295//336 297//338 273//308 271//306
f 297//338 296//337 298//339 299//340
f 297//338 299//340 300//341 273//308
f 300//341 299//340 301//342 302//343
f 300//341 302//343 303//344 276//311
f 300//341 276//311 274//309 273//308
f 303//344 302//343 304//345 305//346
f 303//344 305//346 306//347 279//314
f 303//344 279//314 277//312 276//311
f 306//347 305//346 307//348 308//349
f 306//347 308//349 309//350 282//317
f 306//347 282//317 280//315 279//314
f 309//350 308//349 310//351 311//352
f 309//350 311//352 312//353 285//320
f 309//350 285//320 283//318 282//317
f 312//353 365//323 286//321 285//320
f 313//354 370//355 36//35 314//356
f 313//354 314//356 294//335 292//334
f 314//356 36//35 35//34 315//357
f 314//356 315//357 296//337 294//335
f 315//357 35//34 40//39 316//358
f 315//357 316//358 298//339 296//337
f 316//358 40//39 33//31 317//359
f 316//358 317//359 318//360 298//339
f 318//360 317//359 319//361 320//362
f 318//360 320//362 321//363 301//342
f 318//360 301//342 299//340 298//339
f 321//363 320//362 322//364 323//365
f 321//363 323//365 324//366 304//345
f 321//363 304//345 302//343 301//342
f 324//366 323//365 371//367 372//368
f 324//366 372//368 325//369 307//348
f 324//366 307//348 305//346 304//345
f 325//369 310//351 308//349 307//348
f 371//367 323//365 322//364 373//370
f 326//371 374//372 327//373 34//32
f 326//371 34//32 31//29 328//374
f 328//374 31//29 30//28 329//375
f 329//375 30//28 38//37 330//376
f 330//376 38//37 37//36 375//377
f 375//377 37//36 36//35 370//355
f 327//373 374//372 373//370 322//364
f 327//373 322//364 320//362 319//361
f 327//373 319//361 32//30 34//32
f 319//361 317//359 33//31 32//30
f 250//284 246//280 231//263 229//263
f 220//253 204//233 202//231 201//230
f 191//220 41//40 331//378 376//379
f 376//379 331//378 332//380 177//381
f 332//380 176//206 175//205 177//381
f 332//380 331//378 333//382 334//383
f 332//380 334//383 335//384 176//206
f 335//384 165//193 164//192 176//206
f 335//384 334//383 336//385 337//386
f 335//384 337//386 166//194 165//193
f 337//387 336//388 338//389 339//390
f 337//387 339//390 168//198 166//197
f 339//390 338//389 340//391 341//392
f 339//390 341//392 170//200 168//198
f 341//392 340//391 377//393 378//394
f 341//392 378//394 172//202 170//200
f 377//393 340//391 342//395 379//396
f 342//395 340//391 338//389 343//397
f 342//395 343//397 26//22 181//209
f 342//395 181//209 178//208 379//396
f 343//397 338//389 336//388 344//398
f 343//397 344//398 27//23 26//22
f 344//399 336//385 334//383 333//382
f 344//399 333//382 6//25 27//23
f 333//382 331//378 41//40 6//25
f 185//214 184//213 8//2 12//6
f 182//210 181//209 26//22 25//21
f 102//113 100//110 97//105 95//103
f 347//400 51//54 46//45 346//51
f 51//54 50//53 47//46 46//45
f 40//39 39//38 29//27 33//31
f 39//38 38//37 30//28 29//27
f 19//14 13//7 10//4 14//9
f 15//10 14//9 10//4 9//3
f 389//401 388//402 387//403 380//404
f 387//403 391//405 390//406 380//404
f 390//406 392//407 389//401 380//404
f 395//408 394//409 393//410 381//411
f 397//412 396//413 395//408 381//411
f 393//410 398//414 397//412 381//411
f 401//415 400//416 399//417 382//418
f 399//417 403//419 402//420 382//418
f 406//421 405//422 404//423 382//418
f 404//423 407//424 401//415 382//418
f 402//420 385//425 406//421 382//418
f 410//426 409//427 408//428 383//429
f 408//428 412//430 411//431 383//429
f 411//431 413//432 410//426 383//429
f 416//433 415//434 414//435 384//436
f 418//437 417//438 416//433 384//436
f 414//435 419//439 418//437 384//436
f 422//440 421//441 420//442 385//425
f 402//420 423//443 422//440 385//425
f 426//444 425//445 424//446 386//447
f 345//50 45//49 426//444 386//447
f 424//446 346//51 345//50 386//447
f 430//448 429//449 428//450 427//451
f 53//56 347//56 429//449 430//448
f 431//452 54//59 53//58 430//453
f 427//451 432//454 431//452 430//453
f 434//455 433//456 431//452 432//454
f 436//457 435//458 434//455 432//454
f 427//451 428//450 436//457 432//454
f 438//459 437//460 435//458 436//457
f 428//450 425//445 438//459 436//457
f 440//461 439//462 437//463 438//464
f 425//445 426//444 440//461 438//464
f 66//73 65//72 439//462 440//461
f 426//444 45//49 66//73 440//461
f 433//456 441//465 68//75 67//74
f 54//59 431//452 433//456 67//74
f 443//466 442//467 71//78 72//77
f 73//82 444//468 443//466 72//77
f 446//469 445//470 443//466 444//468
f 448//471 447//472 446//469 444//468
f 73//82 81//87 448//471 444//468
f 83//89 449//473 448//471 81//87
f 451//474 450//475 85//91 86//90
f 70//95 452//476 451//474 86//90
f 70//95 68//75 441//465 452//476
f 454//477 453//478 451//474 452//476
f 441//465 455//479 454//477 452//476
f 441//465 433//456 434//455 455//479
f 457//480 456//481 454//477 455//479
f 434//455 435//458 457//480 455//479
f 459//482 458//483 456//484 457//482
f 435//458 437//460 459//482 457//482
f 461//485 460//486 458//483 459//487
f 437//463 439//462 461//485 459//487
f 99//108 348//107 460//486 461//485
f 439//462 65//72 99//108 461//485
f 462//488 460//486 348//107 349//109
f 350//112 463//489 462//488 349//109
f 465//490 464//491 462//488 463//489
f 442//467 466//492 465//490 463//489
f 350//112 71//78 442//467 463//489
f 468//493 467//494 465//490 466//492
f 445//470 469//495 468//493 466//492
f 442//467 443//466 445//470 466//492
f 471//496 470//497 468//498 469//495
f 473//499 472//500 471//496 469//495
f 445//470 446//469 473//499 469//495
f 475//501 474//502 472//500 473//499
f 446//469 447//472 475//501 473//499
f 477//503 476//504 474//502 475//501
f 447//472 478//505 477//503 475//501
f 480//506 479//507 477//503 478//505
f 449//473 481//508 480//506 478//505
f 447//472 448//471 449//473 478//505
f 483//509 482//510 480//506 481//508
f 123//135 122//134 483//509 481//508
f 449//473 83//89 123//135 481//508
f 485//511 484//512 351//137 352//136
f 84//141 486//513 485//511 352//136
f 84//141 85//91 450//475 486//513
f 470//497 471//496 485//511 486//513
f 450//475 487//514 470//497 486//513
f 450//475 451//474 453//478 487//514
f 467//515 468//498 470//497 487//514
f 453//478 488//516 467//515 487//514
f 453//478 454//477 456//481 488//516
f 464//491 465//490 467//494 488//517
f 456//484 458//483 464//491 488//517
f 471//496 472//500 484//512 485//511
f 489//518 353//146 351//137 484//512
f 472//500 474//502 489//518 484//512
f 490//519 130//148 353//146 489//518
f 474//502 476//504 490//519 489//518
f 491//520 132//151 130//150 490//519
f 476//504 492//521 491//520 490//519
f 494//522 493//523 491//520 492//521
f 479//507 495//524 494//522 492//521
f 476//504 477//503 479//507 492//521
f 497//525 496//526 494//522 495//524
f 482//510 498//527 497//525 495//524
f 479//507 480//506 482//510 495//524
f 500//528 499//529 497//525 498//527
f 502//530 501//531 500//528 498//527
f 482//510 483//509 502//530 498//527
f 146//165 145//164 501//531 502//530
f 483//509 122//134 146//165 502//530
f 493//523 503//532 354//167 147//166
f 132//151 491//520 493//523 147//166
f 504//533 355//169 354//167 503//532
f 496//526 505//534 504//533 503//532
f 493//523 494//522 496//526 503//532
f 507//535 506//536 504//533 505//534
f 499//537 508//538 507//535 505//534
f 496//526 497//525 499//537 505//534
f 510//539 509//540 507//535 508//538
f 512//541 511//542 510//543 508//544
f 499//529 500//528 512//541 508//544
f 514//545 513//546 511//542 512//541
f 500//528 501//531 514//545 512//541
f 357//185 356//184 513//546 514//545
f 501//531 145//164 357//185 514//545
f 506//536 515//547 358//187 160//186
f 355//169 504//533 506//536 160//186
f 516//548 359//189 358//187 515//547
f 509//540 517//549 516//548 515//547
f 506//536 507//535 509//540 515//547
f 519//550 518//551 516//548 517//549
f 521//552 520//553 519//550 517//549
f 509//540 510//539 521//552 517//549
f 523//554 522//555 520//556 521//557
f 510//543 511//542 523//554 521//557
f 525//558 524//559 522//555 523//554
f 511//542 513//546 525//558 523//554
f 173//203 172//202 524//559 525//558
f 513//546 356//184 173//203 525//558
f 518//551 526//560 175//205 174//204
f 359//189 516//548 518//551 174//204
f 528//561 527//562 178//208 179//207
f 180//212 529//563 528//561 179//207
f 407//424 404//423 528//561 529//563
f 531//564 530//565 407//424 529//563
f 180//212 186//215 531//564 529//563
f 187//216 391//405 531//564 186//215
f 421//441 532//566 189//218 190//217
f 191//220 420//442 421//441 190//217
f 535//567 534//568 533//569 532//566
f 421//441 422//440 535//567 532//566
f 533//569 188//224 189//218 532//566
f 537//570 536//571 534//568 535//567
f 422//440 423//443 537//570 535//567
f 539//572 538//573 536//571 537//570
f 423//443 540//574 539//572 537//570
f 542//575 541//576 539//572 540//574
f 403//419 543//577 542//575 540//574
f 423//443 402//420 403//419 540//574
f 545//578 544//579 542//575 543//577
f 547//580 546//581 545//578 543//577
f 403//419 399//417 547//580 543//577
f 549//582 548//583 546//581 547//580
f 399//417 400//416 549//582 547//580
f 551//584 550//585 548//583 549//582
f 400//416 552//586 551//584 549//582
f 394//409 395//408 551//584 552//586
f 553//587 388//402 394//409 552//586
f 400//416 401//415 553//587 552//586
f 530//565 387//403 388//402 553//587
f 401//415 407//424 530//565 553//587
f 395//408 396//413 550//585 551//584
f 361//244 360//243 548//583 550//585
f 396//413 214//245 361//244 550//585
f 396//413 397//412 215//246 214//245
f 397//412 398//414 216//247 215//246
f 398//414 392//407 217//248 216//247
f 392//407 390//406 218//249 217//248
f 390//406 391//405 187//216 218//249
f 219//250 546//581 548//583 360//243
f 362//251 545//578 546//581 219//250
f 363//252 544//579 545//578 362//251
f 221//254 554//588 544//579 363//252
f 556//589 555//590 223//256 224//255
f 188//224 533//569 556//589 224//255
f 558//591 557//592 555//590 556//589
f 533//569 534//568 558//591 556//589
f 560//593 559//594 557//592 558//591
f 534//568 536//571 560//593 558//591
f 562//595 561//596 559//596 560//593
f 536//571 538//573 562//595 560//593
f 564//597 563//598 561//599 562//595
f 538//573 565//600 564//597 562//595
f 567//601 566//602 564//597 565//600
f 541//576 554//588 567//601 565//600
f 538//573 539//572 541//576 565//600
f 222//272 238//271 566//602 567//601
f 554//588 221//254 222//272 567//601
f 239//274 568//603 566//602 238//271
f 239//274 242//276 569//604 568//603
f 563//598 564//597 566//602 568//603
f 569//604 570//605 563//598 568//603
f 569//604 572//606 571//607 570//605
f 573//608 561//599 563//598 570//605
f 571//607 574//609 573//608 570//605
f 571//607 576//610 575//611 574//609
f 578//612 577//613 573//608 574//609
f 575//611 579//614 578//612 574//609
f 575//611 581//615 580//616 579//614
f 583//617 582//618 578//612 579//614
f 580//616 584//619 583//617 579//614
f 580//616 586//620 585//621 584//619
f 588//622 587//623 583//617 584//619
f 585//621 589//624 588//622 584//619
f 585//621 591//625 590//626 589//624
f 265//300 364//299 588//622 589//624
f 590//626 266//301 265//300 589//624
f 590//626 592//627 267//302 266//301
f 594//628 593//629 270//305 269//304
f 267//302 592//627 594//628 269//304
f 596//630 595//631 593//629 594//628
f 592//627 597//632 596//630 594//628
f 599//633 598//634 596//630 597//632
f 591//625 600//635 599//633 597//632
f 592//627 590//626 591//625 597//632
f 602//636 601//637 599//633 600//635
f 586//620 603//638 602//636 600//635
f 591//625 585//621 586//620 600//635
f 605//639 604//640 602//636 603//638
f 581//615 606//641 605//639 603//638
f 586//620 580//616 581//615 603//638
f 608//642 607//643 605//639 606//641
f 576//610 609//644 608//642 606//641
f 581//615 575//611 576//610 606//641
f 366//324 365//323 608//642 609//644
f 572//606 288//325 366//324 609//644
f 576//610 571//607 572//606 609//644
f 572//606 569//604 242//276 288//325
f 611//645 610//646 367//327 368//326
f 223//256 555//590 611//645 368//326
f 612//647 582//618 610//646 611//645
f 555//590 557//592 612//647 611//645
f 577//613 578//612 582//618 612//647
f 557//592 559//594 577//613 612//647
f 582//618 583//617 587//623 610//646
f 587//623 369//332 367//327 610//646
f 587//623 588//622 364//299 369//332
f 614//648 613//649 292//334 293//333
f 270//305 593//629 614//648 293//333
f 616//650 615//651 613//649 614//648
f 593//629 595//631 616//650 614//648
f 618//652 617//653 615//651 616//650
f 595//631 619//654 618//652 616//650
f 621//655 620//656 618//652 619//654
f 598//634 622//657 621//655 619//654
f 595//631 596//630 598//634 619//654
f 624//658 623//659 621//655 622//657
f 601//637 625//660 624//658 622//657
f 598//634 599//633 601//637 622//657
f 627//661 626//662 624//658 625//660
f 604//640 628//663 627//661 625//660
f 601//637 602//636 604//640 625//660
f 311//352 310//351 627//661 628//663
f 607//643 312//353 311//352 628//663
f 604//640 605//639 607//643 628//663
f 607//643 608//642 365//323 312//353
f 629//664 415//434 370//355 313//354
f 292//334 613//649 629//664 313//354
f 630//665 414//435 415//434 629//664
f 613//649 615//651 630//665 629//664
f 631//666 419//439 414//435 630//665
f 615//651 617//653 631//666 630//665
f 632//667 412//430 419//439 631//666
f 617//653 633//668 632//667 631//666
f 635//669 634//670 632//667 633//668
f 620//656 636//671 635//669 633//668
f 617//653 618//652 620//656 633//668
f 638//672 637//673 635//669 636//671
f 623//659 639//674 638//672 636//671
f 620//656 621//655 623//659 636//671
f 372//368 371//367 638//672 639//674
f 626//662 325//369 372//368 639//674
f 623//659 624//658 626//662 639//674
f 626//662 627//661 310//351 325//369
f 373//370 637//673 638//672 371//367
f 413//432 640//675 374//372 326//371
f 328//374 410//426 413//432 326//371
f 329//375 409//427 410//426 328//374
f 330//376 417//438 409//427 329//375
f 375//377 416//433 417//438 330//376
f 370//355 415//434 416//433 375//377
f 637//673 373//370 374//372 640//675
f 634//670 635//669 637//673 640//675
f 413//432 411//431 634//670 640//675
f 411//431 412//430 632//667 634//670
f 559//596 561//596 573//608 577//613
f 541//576 542//575 544//579 554//588
f 376//379 641//676 420//442 191//220
f 177//381 642//677 641//676 376//379
f 177//381 175//205 526//560 642//677
f 644//678 643//679 641//676 642//677
f 526//560 645//680 644//678 642//677
f 526//560 518//551 519//550 645//680
f 647//681 646//682 644//678 645//680
f 519//550 520//553 647//681 645//680
f 649//683 648//684 646//685 647//686
f 520//556 522//555 649//683 647//686
f 651//687 650//688 648//684 649//683
f 522//555 524//559 651//687 649//683
f 378//394 377//393 650//688 651//687
f 524//559 172//202 378//394 651//687
f 379//396 652//689 650//688 377//393
f 653//690 648//684 650//688 652//689
f 527//562 405//422 653//690 652//689
f 379//396 178//208 527//562 652//689
f 654//691 646//685 648//684 653//690
f 405//422 406//421 654//691 653//690
f 643//679 644//678 646//682 654//692
f 406//421 385//425 643//679 654//692
f 385//425 420//442 641//676 643//679
f 391//405 387//403 530//565 531//564
f 404//423 405//422 527//562 528//561
f 458//483 460//486 462//488 464//491
f 346//51 424//446 429//449 347//400
f 424//446 425//445 428//450 429//449
f 412//430 408//428 418//437 419//439
f 408//428 409//427 417//438 418//437
f 393//410 389//401 392//407 398//414
f 388//402 389//401 393//410 394//409
