# pilowlava3D glyph 'w' variant 1 — Vincent Wagner / Velvetyne, Free Art License
v 4.23239 0.82949 -0.60177
v 0.39980 2.51709 -0.22463
v 1.59790 3.98469 -0.51473
v 4.81955 4.16558 -0.31525
v 3.78021 3.71355 -0.27489
v 3.77579 3.00435 -0.43034
v 2.28165 4.04244 -0.30663
v 0.04285 2.57548 -0.21170
v 3.84183 0.82327 -0.56972
v 3.86716 1.17017 -0.53779
v 4.16586 1.19077 -0.56173
v 4.56848 0.70938 -0.51171
v 4.55157 0.42903 -0.49783
v 4.19360 0.43252 -0.55590
v 3.85571 0.47475 -0.54446
v 3.63547 0.24279 -0.31516
v 3.53128 0.52847 -0.36732
v 3.89716 0.16382 -0.35541
v 0.42035 2.47956 -0.00000
v 0.53453 2.73637 -0.00000
v 0.45465 2.73695 -0.28278
v 0.20883 2.48478 -0.26463
v 0.25114 2.75143 -0.38602
v 1.96945 3.88213 -0.52323
v 1.85025 3.55699 -0.53369
v 1.55624 3.62669 -0.53282
v 1.79776 4.35827 -0.36049
v 2.10794 4.22639 -0.38064
v 1.29588 3.85078 -0.31993
v 1.21654 4.02769 -0.28584
v 1.36806 4.19164 -0.41448
v 1.29068 3.62362 -0.32171
v 1.47549 4.43420 -0.29673
v 5.52124 4.43235 -0.30570
v 5.69516 4.26337 -0.35692
v 5.40457 4.16034 -0.52800
v 5.28592 4.40108 -0.36747
v 4.96606 4.42954 -0.00000
v 4.73315 4.20507 -0.00000
v 5.00531 4.30140 -0.36393
v 5.10382 4.03353 -0.51297
v 4.83914 3.89683 -0.35395
v 4.04907 3.57288 -0.00000
v 3.80380 3.77450 -0.00000
v 3.46271 3.72110 -0.00000
v 3.96570 3.54234 -0.31209
v 3.73318 3.44259 -0.45870
v 3.52789 3.63655 -0.31765
v 3.84021 2.82227 -0.22294
v 3.66849 2.68350 -0.26250
v 3.53336 2.84232 -0.47571
v 3.31476 3.03670 -0.50760
v 3.51248 3.26447 -0.49424
v 4.03708 2.86704 -0.32360
v 3.99979 2.81610 -0.20611
v 3.93445 3.18773 -0.42952
v 4.11380 2.93021 -0.33399
v 2.34268 3.70531 -0.00000
v 2.17917 4.36135 -0.00000
v 2.22250 3.75421 -0.33868
v 0.01384 2.54978 -0.00000
v 0.06494 2.80068 -0.26939
v 0.12277 3.07630 -0.28187
v 0.29887 3.03706 -0.39484
v 0.48006 3.00879 -0.28732
v 0.19572 3.35419 -0.27238
v 0.35814 3.31265 -0.38657
v 0.52386 3.27149 -0.27591
v 0.56427 2.99727 -0.00000
v 0.43370 3.58132 -0.36623
v 0.58226 3.52931 -0.25248
v 0.64259 3.78102 -0.21621
v 0.74327 3.98756 -0.00000
v 0.81662 4.32958 -0.00000
v 0.57727 4.13178 -0.00000
v 1.12761 4.42479 -0.24494
v 0.82024 4.30511 -0.19852
v 1.85809 4.49175 -0.00000
v 0.85031 4.22097 -0.30151
v 0.66101 4.06226 -0.29489
v 0.59117 4.12040 -0.18790
v 1.10873 4.27457 -0.34659
v 1.07190 4.12675 -0.24752
v 0.88531 4.12183 -0.21391
v 0.72655 4.00084 -0.19593
v 1.05606 4.09557 -0.00000
v 1.16173 3.61926 -0.00000
v 1.23383 3.38046 -0.31091
v 1.06403 3.14803 -0.00000
v 1.56149 2.37653 -0.00000
v 1.71188 2.61981 -0.00000
v 1.35962 2.16078 -0.25007
v 1.49933 2.40796 -0.25944
v 1.22337 1.91477 -0.23187
v 1.11430 1.95245 -0.38475
v 1.23149 2.21199 -0.41170
v 1.09413 1.67219 -0.20480
v 1.00330 1.69506 -0.35299
v 0.88535 1.73554 -0.34917
v 0.98732 2.00164 -0.38343
v 0.98389 1.43310 -0.18769
v 0.90791 1.43932 -0.32237
v 0.80090 1.45645 -0.32521
v 0.73611 1.46172 -0.19047
v 0.80968 1.76500 -0.20523
v 0.88365 1.17033 -0.33953
v 0.76469 1.13771 -0.34769
v 0.67331 1.10539 -0.20659
v 0.63988 1.09246 -0.00000
v 0.70758 1.46292 -0.00000
v 0.80894 0.76874 -0.39883
v 0.69244 0.67787 -0.25253
v 0.65045 0.64071 -0.00000
v 0.93375 0.25303 -0.29588
v 1.50449 1.05248 -0.00000
v 1.76785 1.37505 -0.00000
v 1.83902 1.30974 -0.28604
v 1.69006 1.11648 -0.28706
v 1.98474 1.52688 -0.28206
v 2.14810 1.40075 -0.48653
v 1.99091 1.16654 -0.48892
v 2.13751 1.75341 -0.27947
v 2.30475 1.63357 -0.48676
v 2.53073 1.47010 -0.48374
v 2.36530 1.23440 -0.48344
v 2.29083 1.98536 -0.28045
v 2.46274 1.86564 -0.48820
v 2.69272 1.70299 -0.48345
v 2.85675 1.58524 -0.27534
v 2.69122 1.35118 -0.27541
v 2.62363 2.09722 -0.48851
v 2.85504 1.93435 -0.48458
v 3.01996 1.81664 -0.27584
v 3.09171 1.76264 -0.00000
v 2.92752 1.53146 -0.00000
v 3.01636 2.16509 -0.48570
v 3.18140 2.04641 -0.27621
v 3.34152 2.27162 -0.27743
v 2.68619 2.74936 -0.00000
v 3.11121 3.17067 -0.30432
v 2.93945 2.92777 -0.29730
v 3.28851 3.42522 -0.31798
v 3.12500 2.79558 -0.50498
v 2.95065 2.56165 -0.49672
v 2.77100 2.68996 -0.29040
v 2.78482 2.32956 -0.49312
v 2.60904 2.45287 -0.28441
v 2.52722 2.50947 -0.00000
v 2.44937 2.21803 -0.28136
v 2.76074 1.29690 -0.00000
v 2.52087 1.11277 -0.27582
v 2.34332 0.85642 -0.27797
v 2.19543 0.98833 -0.48690
v 2.14450 0.55529 -0.28755
v 2.00046 0.71649 -0.49438
v 1.82019 0.93220 -0.49063
v 1.74576 0.46257 -0.50222
v 1.61224 0.74278 -0.48832
v 1.53253 0.97300 -0.28023
v 1.37337 0.66218 -0.47583
v 1.36739 0.90353 -0.26817
v 1.36813 0.98081 -0.00000
v 1.20407 0.91238 -0.25154
v 1.08014 1.04122 -0.00000
v 0.77711 1.77725 -0.00000
v 0.88232 2.04464 -0.22958
v 0.95561 2.31858 -0.25051
v 1.08791 2.26734 -0.41177
v 1.02396 2.58941 -0.26282
v 1.17969 2.53470 -0.43805
v 1.35219 2.46851 -0.43648
v 1.26756 2.80173 -0.46117
v 1.47128 2.72518 -0.45848
v 1.63779 2.65678 -0.27265
v 1.59613 2.98623 -0.48390
v 1.78128 2.90954 -0.28467
v 1.86310 2.86300 -0.00000
v 1.93155 3.16902 -0.30205
v 2.08813 3.44433 -0.32328
v 1.72098 3.25829 -0.51021
v 1.46472 3.33630 -0.51524
v 1.36174 3.06762 -0.48701
v 1.16304 3.12503 -0.29134
v 1.09210 2.86057 -0.27512
v 1.00847 2.88486 -0.00000
v 1.00984 1.43329 -0.00000
v 0.98891 1.20421 -0.00000
v 0.96626 1.19442 -0.19909
v 1.05565 1.00493 -0.22610
v 0.95573 0.89662 -0.39369
v 1.13724 0.71139 -0.44795
v 1.03101 0.45706 -0.45945
v 1.38683 0.34858 -0.49074
v 1.39859 0.09624 -0.31306
v 1.85849 0.24461 -0.30976
v 1.89981 0.16032 -0.00000
v 2.20789 0.48877 -0.00000
v 3.17755 2.39549 -0.48572
v 3.34460 2.62486 -0.48800
v 3.50125 2.48950 -0.27576
v 3.71820 2.62634 -0.00000
v 4.00021 2.78334 -0.00000
v 4.07306 2.62694 -0.00000
v 4.08707 2.63572 -0.19400
v 4.03149 2.38793 -0.20427
v 3.99771 2.39061 -0.00000
v 4.13654 2.64970 -0.29926
v 4.11703 2.39022 -0.34211
v 4.06857 2.10990 -0.40174
v 3.93790 2.11566 -0.23874
v 4.22086 2.66411 -0.29413
v 4.23868 2.38439 -0.34337
v 4.22446 2.10065 -0.40853
v 4.20197 1.80930 -0.46434
v 4.00641 1.81827 -0.44784
v 4.32062 2.37514 -0.20173
v 4.35336 2.09012 -0.25029
v 4.37982 1.81369 -0.29054
v 4.40671 1.54927 -0.32019
v 4.17499 1.51394 -0.51454
v 4.51630 1.57992 -0.00000
v 4.56921 1.36997 -0.00000
v 4.44910 1.30642 -0.34549
v 4.64069 1.19680 -0.00000
v 4.74344 1.07188 -0.00000
v 4.67911 0.97164 -0.31912
v 4.52896 1.09864 -0.36209
v 4.87302 0.92755 -0.27608
v 4.86978 0.73163 -0.45059
v 4.88895 1.00006 -0.00000
v 5.07663 1.00647 -0.00000
v 5.08472 0.97249 -0.24156
v 5.26929 1.10900 -0.00000
v 5.42102 1.30054 -0.00000
v 5.43307 1.29250 -0.17704
v 5.27933 1.09792 -0.20316
v 5.48975 1.25614 -0.31837
v 5.33600 1.03587 -0.34337
v 5.12927 0.85389 -0.39149
v 5.42343 0.94289 -0.34875
v 5.19257 0.71497 -0.38510
v 4.90024 0.52295 -0.43819
v 5.25131 0.60040 -0.24146
v 4.95627 0.35624 -0.27077
v 4.59595 0.18718 -0.30731
v 4.98907 0.28945 -0.00000
v 4.22729 0.13994 -0.34413
v 3.39188 0.52666 -0.00000
v 3.40982 0.89863 -0.00000
v 3.54883 0.87400 -0.34595
v 3.61548 1.21113 -0.32092
v 3.62766 1.56374 -0.00000
v 3.72592 1.53496 -0.29226
v 3.92661 1.50897 -0.49314
v 3.84033 1.83518 -0.26794
v 3.75900 1.85286 -0.00000
v 3.87854 2.12254 -0.00000
v 4.20703 2.99250 -0.00000
v 4.17227 2.97204 -0.21492
v 4.07990 3.26921 -0.28002
v 4.26495 2.67099 -0.17956
v 5.55069 1.52745 -0.00000
v 5.69205 1.75992 -0.14490
v 5.56461 1.52164 -0.15806
v 5.73703 1.74687 -0.28214
v 5.61581 1.49998 -0.30235
v 5.84863 1.70098 -0.28382
v 5.73352 1.44047 -0.30709
v 5.59863 1.18491 -0.32384
v 5.79193 1.40459 -0.16141
v 5.66257 1.13522 -0.18274
v 5.48672 0.86342 -0.20942
v 5.28204 0.54991 -0.00000
v 5.91330 1.67084 -0.00000
v 5.78021 2.25837 -0.16430
v 5.78961 2.00557 -0.14043
v 5.85669 2.25377 -0.30911
v 5.83685 1.99459 -0.27039
v 5.97031 2.25932 -0.31975
v 5.93823 1.97397 -0.27700
v 6.03867 2.27348 -0.17658
v 5.98477 1.96848 -0.14888
v 5.89749 1.67798 -0.14853
v 6.09250 2.58719 -0.00000
v 5.48959 2.68772 -0.00000
v 5.63293 2.47736 -0.00000
v 5.55057 2.72021 -0.25383
v 5.67743 2.48888 -0.22031
v 5.68558 2.77161 -0.42340
v 5.78821 2.51058 -0.37712
v 5.86444 2.82784 -0.42957
v 5.93127 2.54641 -0.38246
v 6.01819 2.86896 -0.25667
v 6.04391 2.57761 -0.22411
v 6.07574 3.16808 -0.00000
v 5.98618 3.15520 -0.27805
v 5.94727 3.43909 -0.29882
v 6.05301 3.45555 -0.00000
v 5.79858 3.10616 -0.46354
v 5.72479 3.38163 -0.49954
v 5.64014 3.65697 -0.52884
v 5.89880 3.72353 -0.32216
v 5.57574 3.02886 -0.45872
v 5.46564 3.28764 -0.49545
v 5.35492 3.54777 -0.52050
v 5.22638 3.78680 -0.52995
v 5.53436 3.91895 -0.54551
v 5.26950 3.18622 -0.29330
v 5.12750 3.41501 -0.31057
v 4.97977 3.63675 -0.32825
v 5.95013 4.03963 -0.00000
v 5.82611 4.00376 -0.34816
v 5.33340 2.90843 -0.00000
v 5.40869 2.95198 -0.27460
v 0.52544 3.83989 -0.32935
v 0.28745 3.62533 -0.24639
v 0.41347 3.88445 -0.21035
v 0.38635 3.89515 -0.00000
v 0.19855 2.41603 -0.00000
v 2.36871 4.07215 -0.00000
v 0.00000 2.82286 -0.00000
v 0.04881 3.09658 -0.00000
v 0.59714 3.25342 -0.00000
v 0.63449 3.50810 -0.00000
v 0.67181 3.76185 -0.00000
v 1.13383 4.47963 -0.00000
v 1.49927 4.53257 -0.00000
v 0.88979 4.09929 -0.00000
v 1.16289 3.99295 -0.00000
v 1.19023 3.82361 -0.00000
v 1.11613 3.39603 -0.00000
v 1.41257 2.13364 -0.00000
v 1.26761 1.89943 -0.00000
v 1.12553 1.66524 -0.00000
v 0.89478 0.18521 -0.00000
v 1.63663 1.19431 -0.00000
v 1.91000 1.58600 -0.00000
v 2.05969 1.80856 -0.00000
v 3.25412 1.99117 -0.00000
v 3.41440 2.21548 -0.00000
v 2.84888 2.99071 -0.00000
v 3.01431 3.23422 -0.00000
v 3.19751 3.49256 -0.00000
v 2.36963 2.27325 -0.00000
v 2.59006 1.05786 -0.00000
v 2.40942 0.79830 -0.00000
v 1.22466 0.97758 -0.00000
v 0.83649 2.06254 -0.00000
v 0.89407 2.33905 -0.00000
v 2.02924 3.11558 -0.00000
v 2.19730 3.38805 -0.00000
v 0.95131 2.61216 -0.00000
v 1.40154 0.00000 -0.00000
v 2.21326 2.04030 -0.00000
v 3.56808 2.43045 -0.00000
v 3.86765 2.77275 -0.00000
v 4.41199 2.08626 -0.00000
v 4.46490 1.82371 -0.00000
v 4.62473 0.09437 -0.00000
v 4.24500 0.01610 -0.00000
v 3.89404 0.03558 -0.00000
v 3.56750 0.18452 -0.00000
v 3.49686 1.24376 -0.00000
v 4.14578 3.28628 -0.00000
v 4.28546 2.67342 -0.00000
v 4.35211 2.37121 -0.00000
v 5.67960 1.76486 -0.00000
v 5.68323 1.11615 -0.00000
v 5.51105 0.83150 -0.00000
v 5.81094 1.39214 -0.00000
v 5.76053 2.26236 -0.00000
v 5.78036 2.00858 -0.00000
v 5.99976 1.96643 -0.00000
v 6.06378 2.27791 -0.00000
v 6.08990 2.88102 -0.00000
v 5.02271 3.34026 -0.00000
v 4.85846 3.56178 -0.00000
v 4.69360 3.84903 -0.00000
v 6.01532 3.74642 -0.00000
v 5.80927 4.32556 -0.00000
v 5.53418 4.51369 -0.00000
v 5.25320 4.52405 -0.00000
v 5.17966 3.12670 -0.00000
v 0.23985 3.63797 -0.00000
v 0.12938 3.37214 -0.00000
v 4.23239 0.82949 0.60177
v 0.39980 2.51709 0.22463
v 1.59790 3.98469 0.51473
v 4.81955 4.16558 0.31525
v 3.78021 3.71355 0.27489
v 3.77579 3.00435 0.43034
v 2.28165 4.04244 0.30663
v 0.04285 2.57548 0.21170
v 3.84183 0.82327 0.56972
v 3.86716 1.17017 0.53779
v 4.16586 1.19077 0.56173
v 4.56848 0.70938 0.51171
v 4.55157 0.42903 0.49783
v 4.19360 0.43252 0.55590
v 3.85571 0.47475 0.54446
v 3.63547 0.24279 0.31516
v 3.53128 0.52847 0.36732
v 3.89716 0.16382 0.35541
v 0.45465 2.73695 0.28278
v 0.20883 2.48478 0.26463
v 0.25114 2.75143 0.38602
v 1.96945 3.88213 0.52323
v 1.85025 3.55699 0.53369
v 1.55624 3.62669 0.53282
v 1.79776 4.35827 0.36049
v 2.10794 4.22639 0.38064
v 1.29588 3.85078 0.31993
v 1.21654 4.02769 0.28584
v 1.36806 4.19164 0.41448
v 1.29068 3.62362 0.32171
v 1.47549 4.43420 0.29673
v 5.52124 4.43235 0.30570
v 5.69516 4.26337 0.35692
v 5.40457 4.16034 0.52800
v 5.28592 4.40108 0.36747
v 5.00531 4.30140 0.36393
v 5.10382 4.03353 0.51297
v 4.83914 3.89683 0.35395
v 3.96570 3.54234 0.31209
v 3.73318 3.44259 0.45870
v 3.52789 3.63655 0.31765
v 3.84021 2.82227 0.22294
v 3.66849 2.68350 0.26250
v 3.53336 2.84232 0.47571
v 3.31476 3.03670 0.50760
v 3.51248 3.26447 0.49424
v 4.03708 2.86704 0.32360
v 3.99979 2.81610 0.20611
v 3.93445 3.18773 0.42952
v 4.11380 2.93021 0.33399
v 2.22250 3.75421 0.33868
v 0.06494 2.80068 0.26939
v 0.12277 3.07630 0.28187
v 0.29887 3.03706 0.39484
v 0.48006 3.00879 0.28732
v 0.19572 3.35419 0.27238
v 0.35814 3.31265 0.38657
v 0.52386 3.27149 0.27591
v 0.43370 3.58132 0.36623
v 0.58226 3.52931 0.25248
v 0.64259 3.78102 0.21621
v 1.12761 4.42479 0.24494
v 0.82024 4.30511 0.19852
v 0.85031 4.22097 0.30151
v 0.66101 4.06226 0.29489
v 0.59117 4.12040 0.18790
v 1.10873 4.27457 0.34659
v 1.07190 4.12675 0.24752
v 0.88531 4.12183 0.21391
v 0.72655 4.00084 0.19593
v 1.23383 3.38046 0.31091
v 1.35962 2.16078 0.25007
v 1.49933 2.40796 0.25944
v 1.22337 1.91477 0.23187
v 1.11430 1.95245 0.38475
v 1.23149 2.21199 0.41170
v 1.09413 1.67219 0.20480
v 1.00330 1.69506 0.35299
v 0.88535 1.73554 0.34917
v 0.98732 2.00164 0.38343
v 0.98389 1.43310 0.18769
v 0.90791 1.43932 0.32237
v 0.80090 1.45645 0.32521
v 0.73611 1.46172 0.19047
v 0.80968 1.76500 0.20523
v 0.88365 1.17033 0.33953
v 0.76469 1.13771 0.34769
v 0.67331 1.10539 0.20659
v 0.80894 0.76874 0.39883
v 0.69244 0.67787 0.25253
v 0.93375 0.25303 0.29588
v 1.83902 1.30974 0.28604
v 1.69006 1.11648 0.28706
v 1.98474 1.52688 0.28206
v 2.14810 1.40075 0.48653
v 1.99091 1.16654 0.48892
v 2.13751 1.75341 0.27947
v 2.30475 1.63357 0.48676
v 2.53073 1.47010 0.48374
v 2.36530 1.23440 0.48344
v 2.29083 1.98536 0.28045
v 2.46274 1.86564 0.48820
v 2.69272 1.70299 0.48345
v 2.85675 1.58524 0.27534
v 2.69122 1.35118 0.27541
v 2.62363 2.09722 0.48851
v 2.85504 1.93435 0.48458
v 3.01996 1.81664 0.27584
v 3.01636 2.16509 0.48570
v 3.18140 2.04641 0.27621
v 3.34152 2.27162 0.27743
v 3.11121 3.17067 0.30432
v 2.93945 2.92777 0.29730
v 3.28851 3.42522 0.31798
v 3.12500 2.79558 0.50498
v 2.95065 2.56165 0.49672
v 2.77100 2.68996 0.29040
v 2.78482 2.32956 0.49312
v 2.60904 2.45287 0.28441
v 2.44937 2.21803 0.28136
v 2.52087 1.11277 0.27582
v 2.34332 0.85642 0.27797
v 2.19543 0.98833 0.48690
v 2.14450 0.55529 0.28755
v 2.00046 0.71649 0.49438
v 1.82019 0.93220 0.49063
v 1.74576 0.46257 0.50222
v 1.61224 0.74278 0.48832
v 1.53253 0.97300 0.28023
v 1.37337 0.66218 0.47583
v 1.36739 0.90353 0.26817
v 1.20407 0.91238 0.25154
v 0.88232 2.04464 0.22958
v 0.95561 2.31858 0.25051
v 1.08791 2.26734 0.41177
v 1.02396 2.58941 0.26282
v 1.17969 2.53470 0.43805
v 1.35219 2.46851 0.43648
v 1.26756 2.80173 0.46117
v 1.47128 2.72518 0.45848
v 1.63779 2.65678 0.27265
v 1.59613 2.98623 0.48390
v 1.78128 2.90954 0.28467
v 1.93155 3.16902 0.30205
v 2.08813 3.44433 0.32328
v 1.72098 3.25829 0.51021
v 1.46472 3.33630 0.51524
v 1.36174 3.06762 0.48701
v 1.16304 3.12503 0.29134
v 1.09210 2.86057 0.27512
v 0.96626 1.19442 0.19909
v 1.05565 1.00493 0.22610
v 0.95573 0.89662 0.39369
v 1.13724 0.71139 0.44795
v 1.03101 0.45706 0.45945
v 1.38683 0.34858 0.49074
v 1.39859 0.09624 0.31306
v 1.85849 0.24461 0.30976
v 3.17755 2.39549 0.48572
v 3.34460 2.62486 0.48800
v 3.50125 2.48950 0.27576
v 4.08707 2.63572 0.19400
v 4.03149 2.38793 0.20427
v 4.13654 2.64970 0.29926
v 4.11703 2.39022 0.34211
v 4.06857 2.10990 0.40174
v 3.93790 2.11566 0.23874
v 4.22086 2.66411 0.29413
v 4.23868 2.38439 0.34337
v 4.22446 2.10065 0.40853
v 4.20197 1.80930 0.46434
v 4.00641 1.81827 0.44784
v 4.32062 2.37514 0.20173
v 4.35336 2.09012 0.25029
v 4.37982 1.81369 0.29054
v 4.40671 1.54927 0.32019
v 4.17499 1.51394 0.51454
v 4.44910 1.30642 0.34549
v 4.67911 0.97164 0.31912
v 4.52896 1.09864 0.36209
v 4.87302 0.92755 0.27608
v 4.86978 0.73163 0.45059
v 5.08472 0.97249 0.24156
v 5.43307 1.29250 0.17704
v 5.27933 1.09792 0.20316
v 5.48975 1.25614 0.31837
v 5.33600 1.03587 0.34337
v 5.12927 0.85389 0.39149
v 5.42343 0.94289 0.34875
v 5.19257 0.71497 0.38510
v 4.90024 0.52295 0.43819
v 5.25131 0.60040 0.24146
v 4.95627 0.35624 0.27077
v 4.59595 0.18718 0.30731
v 4.22729 0.13994 0.34413
v 3.54883 0.87400 0.34595
v 3.61548 1.21113 0.32092
v 3.72592 1.53496 0.29226
v 3.92661 1.50897 0.49314
v 3.84033 1.83518 0.26794
v 4.17227 2.97204 0.21492
v 4.07990 3.26921 0.28002
v 4.26495 2.67099 0.17956
v 5.69205 1.75992 0.14490
v 5.56461 1.52164 0.15806
v 5.73703 1.74687 0.28214
v 5.61581 1.49998 0.30235
v 5.84863 1.70098 0.28382
v 5.73352 1.44047 0.30709
v 5.59863 1.18491 0.32384
v 5.79193 1.40459 0.16141
v 5.66257 1.13522 0.18274
v 5.48672 0.86342 0.20942
v 5.78021 2.25837 0.16430
v 5.78961 2.00557 0.14043
v 5.85669 2.25377 0.30911
v 5.83685 1.99459 0.27039
v 5.97031 2.25932 0.31975
v 5.93823 1.97397 0.27700
v 6.03867 2.27348 0.17658
v 5.98477 1.96848 0.14888
v 5.89749 1.67798 0.14853
v 5.55057 2.72021 0.25383
v 5.67743 2.48888 0.22031
v 5.68558 2.77161 0.42340
v 5.78821 2.51058 0.37712
v 5.86444 2.82784 0.42957
v 5.93127 2.54641 0.38246
v 6.01819 2.86896 0.25667
v 6.04391 2.57761 0.22411
v 5.98618 3.15520 0.27805
v 5.94727 3.43909 0.29882
v 5.79858 3.10616 0.46354
v 5.72479 3.38163 0.49954
v 5.64014 3.65697 0.52884
v 5.89880 3.72353 0.32216
v 5.57574 3.02886 0.45872
v 5.46564 3.28764 0.49545
v 5.35492 3.54777 0.52050
v 5.22638 3.78680 0.52995
v 5.53436 3.91895 0.54551
v 5.26950 3.18622 0.29330
v 5.12750 3.41501 0.31057
v 4.97977 3.63675 0.32825
v 5.82611 4.00376 0.34816
v 5.40869 2.95198 0.27460
v 0.52544 3.83989 0.32935
v 0.28745 3.62533 0.24639
v 0.41347 3.88445 0.21035
vn 0.20267 0.10040 -0.97409
vn -0.33892 0.03903 -0.94000
vn -0.37267 0.16488 -0.91320
vn 0.24498 0.15882 -0.95643
vn 0.26133 0.20593 -0.94303
vn 0.21641 -0.34219 -0.91437
vn 0.05473 -0.34522 -0.93692
vn -0.26795 -0.27250 -0.92409
vn -0.35702 -0.38602 -0.85060
vn -0.73759 -0.20216 -0.64427
vn -0.22219 -0.75176 -0.62087
vn 0.92254 -0.33446 -0.19252
vn 0.94643 -0.21962 -0.23674
vn 0.97304 -0.23062 0.00331
vn 0.93686 -0.34965 0.00663
vn 0.23440 -0.95004 -0.20609
vn 0.24289 -0.97005 0.00231
vn 0.31565 -0.37057 -0.87352
vn 0.39915 -0.22995 -0.88758
vn -0.23756 0.16395 -0.95744
vn 0.30061 0.05678 -0.95206
vn 0.28853 -0.15495 -0.94485
vn -0.32819 0.04555 -0.94351
vn 0.01401 0.39040 -0.92054
vn 0.30907 0.20606 -0.92845
vn -0.80116 -0.05954 -0.59547
vn -0.46961 -0.24775 -0.84740
vn -0.79993 0.12141 -0.58768
vn -0.07137 0.47771 -0.87562
vn 0.20042 0.53255 -0.82233
vn 0.57069 0.53507 -0.62291
vn 0.10318 0.33568 -0.93631
vn 0.00014 0.50072 -0.86561
vn -0.63702 0.71542 -0.28701
vn -0.66787 0.74427 0.00442
vn -0.50823 0.86122 0.00223
vn -0.48052 0.81761 -0.31719
vn -0.46126 0.16797 -0.87122
vn -0.33692 0.31345 -0.88783
vn -0.31151 0.10606 -0.94430
vn -0.73092 -0.13934 -0.66808
vn 0.11844 0.49976 -0.85803
vn 0.61935 0.50271 -0.60307
vn 0.14180 0.29278 -0.94561
vn -0.08427 0.47022 -0.87852
vn 0.62737 0.74448 -0.22837
vn 0.64369 0.76528 0.00114
vn 0.81973 0.57274 0.00046
vn -0.20340 0.95023 -0.23600
vn -0.42553 0.85773 -0.28848
vn -0.44221 0.89691 0.00326
vn -0.20410 0.97893 0.00647
vn 0.26264 -0.22451 -0.93841
vn 0.60769 -0.63196 -0.48098
vn 0.64253 -0.58512 -0.49477
vn 0.35213 -0.27743 -0.89389
vn 0.11718 -0.03775 -0.99239
vn -0.12030 0.18716 -0.97494
vn -0.07092 -0.85254 -0.51784
vn -0.02182 -0.93243 -0.36068
vn 0.43567 0.03355 -0.89948
vn 0.10517 -0.18874 -0.97638
vn 0.77170 0.55980 -0.30184
vn 0.57918 0.73630 -0.34987
vn 0.62058 0.78414 0.00248
vn 0.96871 0.24815 0.00526
vn 0.51448 0.04876 -0.85611
vn 0.76296 -0.18176 -0.62036
vn 0.94707 -0.11711 -0.29891
vn 0.96317 -0.26886 0.00262
vn -0.47946 -0.23117 -0.84657
vn -0.50680 -0.08355 -0.85801
vn -0.98372 0.00758 -0.17955
vn -0.99999 -0.00011 0.00512
vn -0.99576 0.09200 0.00256
vn -0.97159 0.09370 -0.21734
vn -0.54326 -0.81539 -0.20002
vn -0.55840 -0.82957 0.00245
vn -0.97358 0.22835 -0.00003
vn -0.94170 0.22108 -0.25362
vn -0.52461 0.10939 -0.84428
vn 0.49736 -0.07562 -0.86424
vn -0.53551 0.19548 -0.82159
vn 0.54362 -0.07165 -0.83627
vn 0.95497 -0.15053 -0.25570
vn 0.98772 -0.15624 0.00012
vn 0.99244 -0.12274 -0.00015
vn 0.95407 -0.11810 -0.27531
vn 0.59754 -0.07660 -0.79817
vn 0.96269 -0.17132 -0.20945
vn 0.98464 -0.17458 -0.00000
vn 0.85387 -0.21699 -0.47310
vn 0.96787 -0.25147 -0.00021
vn -0.26052 0.96547 -0.00002
vn -0.24269 0.80965 -0.53438
vn -0.48772 0.76148 -0.42695
vn -0.52487 0.85118 0.00029
vn 0.01399 0.99990 -0.00074
vn 0.00999 0.95250 -0.30439
vn 0.23745 0.90204 -0.36048
vn -0.40902 0.60483 -0.68329
vn -0.53856 0.52942 -0.65549
vn -0.65388 0.64205 -0.40027
vn -0.71405 0.70009 -0.00021
vn -0.20034 0.57698 -0.79180
vn -0.23743 -0.50577 -0.82935
vn 0.16955 -0.61187 -0.77257
vn 0.31252 -0.94302 -0.11422
vn 0.31404 -0.94941 -0.00039
vn 0.80947 -0.58716 -0.00009
vn 0.71851 -0.52902 -0.45153
vn 0.55168 -0.41414 -0.72398
vn -0.34394 -0.92661 -0.15198
vn -0.34633 -0.93811 0.00124
vn -0.82255 -0.52169 -0.22638
vn -0.84140 -0.54040 0.00354
vn -0.99557 -0.09400 0.00285
vn -0.98958 0.14399 0.00079
vn -0.80260 0.17665 -0.56977
vn -0.91443 0.20130 -0.35114
vn 0.85938 -0.51133 -0.00012
vn 0.77102 -0.45548 -0.44505
vn 0.75705 -0.44728 -0.47625
vn 0.85931 -0.51146 -0.00002
vn 0.86204 -0.50684 -0.00004
vn 0.79142 -0.46177 -0.40052
vn 0.69915 -0.40382 -0.59001
vn 0.66463 -0.38930 -0.63773
vn 0.88288 -0.46961 0.00015
vn 0.82883 -0.43788 -0.34829
vn 0.75232 -0.39336 -0.52846
vn -0.04236 -0.09666 -0.99442
vn -0.04874 -0.09484 -0.99430
vn 0.91461 -0.24097 -0.32468
vn 0.83701 -0.21238 -0.50429
vn 0.00921 -0.01483 -0.99985
vn -0.86711 0.17892 -0.46487
vn -0.93048 0.19155 -0.31228
vn -0.91531 0.21517 -0.34045
vn -0.84141 0.20626 -0.49948
vn 0.00223 0.10809 -0.99414
vn -0.84430 0.07975 -0.52990
vn -0.93326 0.07994 -0.35019
vn -0.99696 0.07797 0.00003
vn -0.97957 0.20111 0.00008
vn -0.73476 -0.14719 -0.66216
vn -0.87141 -0.20600 -0.44521
vn -0.96673 -0.25580 -0.00001
vn -0.56448 -0.61445 -0.55120
vn -0.88014 -0.47472 -0.00008
vn -0.81456 0.58008 -0.00024
vn -0.68944 0.49399 -0.52976
vn -0.63689 0.55950 -0.53041
vn -0.75519 0.65551 -0.00087
vn -0.82846 0.56005 -0.00000
vn -0.70215 0.47713 -0.52852
vn -0.58179 0.39811 -0.70925
vn -0.56596 0.40888 -0.71589
vn -0.83140 0.55568 -0.00001
vn -0.70547 0.47268 -0.52809
vn -0.58682 0.39450 -0.70711
vn 0.00937 -0.00827 -0.99992
vn 0.01138 -0.00227 -0.99993
vn -0.70403 0.47237 -0.53029
vn -0.58385 0.39389 -0.70991
vn 0.01066 -0.01020 -0.99989
vn 0.58768 -0.41375 -0.69530
vn 0.70027 -0.49484 -0.51454
vn 0.70097 -0.49654 -0.51195
vn 0.59000 -0.41549 -0.69229
vn 0.01084 -0.01529 -0.99982
vn 0.58620 -0.41395 -0.69643
vn 0.69920 -0.49431 -0.51650
vn 0.81632 -0.57760 -0.00000
vn 0.81592 -0.57817 -0.00000
vn 0.58495 -0.41335 -0.69784
vn 0.69752 -0.49440 -0.51868
vn 0.81522 -0.57915 -0.00000
vn 0.69378 -0.49889 -0.51940
vn 0.81225 -0.58331 -0.00002
vn -0.77184 0.53172 -0.34862
vn -0.66039 0.47016 -0.58552
vn -0.68026 0.47063 -0.56191
vn -0.82475 0.56550 -0.00001
vn -0.74542 0.66660 -0.00007
vn -0.56923 0.53962 -0.62031
vn -0.50100 0.37449 -0.78023
vn -0.54713 0.38332 -0.74412
vn -0.56612 0.38425 -0.72929
vn -0.69229 0.46877 -0.54862
vn -0.82843 0.56009 0.00000
vn -0.57664 0.38621 -0.71995
vn -0.69950 0.46824 -0.53986
vn -0.83110 0.55612 -0.00000
vn -0.70083 0.47252 -0.53438
vn -0.82956 0.55842 0.00000
vn 0.81480 -0.57974 -0.00000
vn 0.81798 -0.57524 -0.00001
vn 0.70559 -0.49312 -0.50891
vn 0.83039 -0.55718 -0.00001
vn 0.71525 -0.47852 -0.50934
vn 0.60086 -0.40046 -0.69181
vn 0.59600 -0.41313 -0.68855
vn 0.67557 -0.51890 -0.52379
vn 0.55231 -0.41954 -0.72037
vn 0.01070 0.00737 -0.99992
vn -0.00338 0.01817 -0.99983
vn 0.16425 -0.25964 -0.95163
vn -0.21591 0.30759 -0.92670
vn -0.51154 0.45651 -0.72796
vn -0.48321 0.69385 -0.53392
vn -0.10801 0.36487 -0.92477
vn -0.18174 0.82427 -0.53624
vn -0.22233 0.97497 0.00031
vn -0.57872 0.81553 0.00016
vn 0.21368 0.83397 -0.50876
vn 0.23472 0.97206 -0.00137
vn -0.97526 0.22105 0.00006
vn -0.97520 0.22132 -0.00006
vn -0.89032 0.21087 -0.40356
vn -0.97529 0.22094 -0.00006
vn -0.86563 0.20099 -0.45857
vn -0.74134 0.17681 -0.64743
vn -0.78874 0.19629 -0.58255
vn -0.84875 0.19192 -0.49274
vn -0.71294 0.16322 -0.68197
vn -0.03365 -0.08713 -0.99563
vn -0.02344 -0.08212 -0.99635
vn -0.01881 -0.08365 -0.99632
vn 0.64329 -0.37600 -0.66693
vn 0.62340 -0.37044 -0.68858
vn 0.74249 -0.44350 -0.50201
vn 0.60099 -0.36833 -0.70932
vn 0.72379 -0.44556 -0.52688
vn 0.85089 -0.52535 -0.00008
vn 0.85766 -0.51422 -0.00006
vn 0.70738 -0.43637 -0.55606
vn 0.84964 -0.52737 -0.00002
vn 0.82631 -0.43839 -0.35359
vn 0.71507 -0.37303 -0.59120
vn 0.29960 -0.22992 -0.92595
vn -0.01223 -0.08031 -0.99669
vn -0.01673 -0.09174 -0.99564
vn -0.66855 0.15222 -0.72792
vn -0.81786 0.18721 -0.54412
vn -0.64185 0.14124 -0.75371
vn -0.69260 0.15675 -0.70408
vn -0.83444 0.18886 -0.51773
vn -0.97535 0.22064 -0.00005
vn -0.97474 0.22334 -0.00021
vn -0.97583 0.21853 0.00001
vn 0.97961 0.20091 0.00075
vn 0.91541 0.18490 -0.35753
vn 0.96496 -0.26238 0.00021
vn 0.70334 0.71085 -0.00028
vn 0.64381 0.62539 -0.44091
vn 0.55498 0.51361 -0.65437
vn 0.81612 0.16095 -0.55502
vn 0.03883 0.40308 -0.91434
vn -0.28910 -0.17820 -0.94057
vn -0.08409 0.13943 -0.98666
vn -0.05160 -0.27685 -0.95953
vn -0.02271 -0.80887 -0.58755
vn 0.44962 -0.69136 -0.56556
vn 0.54066 -0.84124 0.00021
vn -0.01607 -0.99987 -0.00034
vn 0.79081 -0.61207 0.00024
vn -0.33598 -0.94187 -0.00057
vn -0.83145 0.55559 0.00000
vn -0.57979 0.39175 -0.71440
vn 0.01675 -0.02183 -0.99962
vn 0.02606 -0.03404 -0.99908
vn 0.57991 -0.41771 -0.69944
vn 0.05260 -0.04202 -0.99773
vn 0.57060 -0.43356 -0.69746
vn 0.68348 -0.51947 -0.51283
vn 0.79591 -0.60541 0.00016
vn 0.73345 -0.67975 -0.00014
vn 0.68270 -0.73070 -0.00064
vn 0.03046 -0.99953 -0.00270
vn -0.90236 -0.43098 0.00063
vn -0.86502 -0.43022 -0.25817
vn -0.95105 -0.10808 -0.28951
vn -0.89876 0.28132 -0.33630
vn -0.94719 0.32066 -0.00032
vn -0.96459 0.26375 -0.00072
vn -0.80018 -0.41546 -0.43256
vn -0.87612 -0.12167 -0.46648
vn -0.82831 0.23743 -0.50748
vn -0.75015 0.28619 -0.59612
vn -0.84312 0.33399 -0.42143
vn -0.00045 0.19296 -0.98121
vn 0.01934 0.02439 -0.99952
vn -0.03395 0.19883 -0.97945
vn -0.06735 0.17553 -0.98217
vn -0.40865 0.24815 -0.87831
vn 0.77825 0.12940 -0.61448
vn 0.85585 0.15712 -0.49278
vn 0.92726 0.17611 -0.33042
vn 0.89126 0.15318 -0.42684
vn 0.84896 0.14213 -0.50898
vn 0.69911 0.11331 -0.70598
vn 0.80664 0.16217 -0.56836
vn 0.62777 0.12483 -0.76833
vn 0.98532 0.17072 0.00037
vn 0.98569 0.16855 -0.00005
vn 0.97998 0.19909 -0.00009
vn 0.88993 0.28630 -0.35505
vn 0.75228 0.24308 -0.61236
vn 0.78480 0.49913 -0.36736
vn 0.56651 0.82406 0.00106
vn 0.44511 0.65316 -0.61258
vn 0.65461 0.41094 -0.63452
vn 0.08972 0.84196 -0.53203
vn 0.12903 0.33645 -0.93282
vn 0.13065 0.99143 0.00040
vn -0.31033 0.95063 -0.00127
vn -0.29691 0.85979 -0.41546
vn -0.65183 0.75836 0.00047
vn -0.82625 0.56330 -0.00000
vn -0.79488 0.54703 -0.26253
vn -0.61649 0.71980 -0.31911
vn -0.73972 0.51437 -0.43387
vn -0.55221 0.64509 -0.52814
vn -0.26438 0.71805 -0.64383
vn 0.16076 0.04146 -0.98612
vn 0.07235 0.08310 -0.99391
vn 0.31862 -0.30969 -0.89586
vn 0.55947 -0.52345 -0.64265
vn 0.64570 -0.61939 -0.44658
vn 0.49360 -0.70637 -0.50734
vn 0.28043 -0.77620 -0.56468
vn 0.56404 -0.82575 -0.00018
vn 0.32530 -0.94561 0.00012
vn 0.06253 -0.99804 0.00029
vn 0.05326 -0.79548 -0.60364
vn -0.21965 -0.97557 0.00282
vn -0.37286 -0.92787 0.00544
vn -0.35459 -0.89309 -0.27687
vn -0.90535 -0.42465 -0.00364
vn -0.98166 -0.19062 -0.00212
vn -0.86250 -0.40854 -0.29865
vn -0.91965 0.13799 -0.36770
vn -0.78101 0.10954 -0.61484
vn -0.89117 0.28111 -0.35608
vn -0.78201 0.24493 -0.57312
vn -0.92462 0.38089 -0.00011
vn -0.78539 0.32205 -0.52862
vn -0.39217 0.22508 -0.89193
vn -0.80768 0.33769 -0.48334
vn -0.08495 0.15800 -0.98378
vn -0.92164 0.38805 0.00005
vn -0.92562 0.37845 0.00019
vn 0.95866 0.28457 -0.00049
vn 0.96977 0.24403 -0.00068
vn 0.90194 0.24204 -0.35767
vn 0.82941 0.25830 -0.49535
vn 0.81692 0.23459 -0.52689
vn 0.93216 0.22275 -0.28542
vn 0.87943 0.21214 -0.42614
vn 0.97276 0.23182 -0.00022
vn 0.98168 0.19051 0.00012
vn -0.87278 0.48812 -0.00002
vn -0.90427 0.42695 0.00001
vn -0.88306 0.41804 -0.21317
vn -0.84911 0.47537 -0.23027
vn -0.85088 0.40389 -0.33596
vn -0.81189 0.45519 -0.36558
vn 0.00205 0.07470 -0.99720
vn -0.00902 0.06410 -0.99790
vn 0.00857 0.08006 -0.99675
vn 0.76722 -0.40922 -0.49387
vn 0.83376 -0.35090 -0.42628
vn 0.88428 -0.37119 -0.28331
vn 0.83252 -0.44608 -0.32851
vn 0.75116 -0.53566 -0.38579
vn 0.67172 -0.47289 -0.57023
vn 0.88054 -0.47397 -0.00005
vn 0.81137 -0.58453 0.00002
vn 0.71505 -0.69907 0.00005
vn 0.92246 -0.38610 0.00004
vn -0.98690 0.16131 0.00000
vn -0.96179 -0.27379 -0.00051
vn -0.92267 -0.24806 -0.29522
vn -0.95799 0.16482 -0.23472
vn -0.86109 -0.21895 -0.45889
vn -0.91175 0.16588 -0.37576
vn -0.05870 -0.04626 -0.99720
vn -0.05815 -0.18820 -0.98041
vn 0.90325 -0.22644 -0.36450
vn 0.89053 -0.11243 -0.44081
vn 0.94691 -0.12359 -0.29680
vn 0.94199 -0.23407 -0.24055
vn 0.91739 -0.31156 -0.24765
vn 0.87666 -0.30241 -0.37418
vn 0.97105 -0.23888 -0.00012
vn 0.94835 -0.31724 0.00000
vn 0.99134 -0.13133 -0.00015
vn -0.86317 -0.50491 -0.00010
vn -0.83688 -0.54739 0.00036
vn -0.74878 -0.48031 -0.45676
vn -0.80435 -0.46003 -0.37602
vn -0.65351 -0.40808 -0.63749
vn -0.72888 -0.40794 -0.54984
vn -0.00773 -0.20180 -0.97940
vn 0.01224 -0.14511 -0.98934
vn 0.82348 -0.00330 -0.56733
vn 0.74797 0.05016 -0.66184
vn 0.87786 0.05155 -0.47613
vn 0.91849 -0.01070 -0.39529
vn 0.99867 0.05165 0.00000
vn 0.99985 -0.01752 -0.00008
vn 0.84771 0.07069 -0.52572
vn 0.99664 0.08196 0.00004
vn 0.82313 0.09230 -0.56030
vn 0.99344 0.11434 0.00003
vn 0.69734 0.05936 -0.71428
vn 0.36068 -0.02193 -0.93243
vn 0.31734 0.01330 -0.94822
vn 0.79380 0.13950 -0.59196
vn 0.01962 -0.12486 -0.99198
vn -0.29041 -0.25369 -0.92266
vn -0.27432 -0.22345 -0.93532
vn -0.26862 -0.15927 -0.94999
vn 0.24769 0.09404 -0.96426
vn -0.69084 -0.46024 -0.55761
vn -0.65889 -0.45648 -0.59790
vn -0.64983 -0.41558 -0.63641
vn -0.75505 -0.53636 -0.37712
vn -0.77061 -0.50190 -0.39275
vn -0.97193 -0.23524 0.00404
vn -0.99903 0.04336 0.00788
vn -0.94858 0.03507 -0.31458
vn 0.77196 0.63566 0.00365
vn 0.88482 0.31141 -0.34659
vn 0.73584 0.26414 -0.62352
vn 0.31052 0.90441 -0.29262
vn 0.31862 0.94788 0.00236
vn -0.15687 0.93543 -0.31681
vn -0.16798 0.98579 -0.00137
vn 0.98440 0.17594 0.00001
vn -0.83080 -0.55657 0.00007
vn -0.82713 -0.56202 0.00020
vn -0.71712 -0.47149 -0.51326
vn -0.60388 -0.38713 -0.69675
vn 0.65566 -0.15922 -0.73808
vn -0.57420 0.40947 -0.70896
vn -0.56111 0.29115 -0.77485
vn -0.77237 0.37318 -0.51399
vn -0.73962 0.50265 -0.44756
vn -0.90759 0.41987 0.00014
vn -0.83570 0.54919 0.00001
vn -0.94835 0.31722 0.00001
vn -0.92159 0.30768 -0.23665
vn 0.24868 0.16244 0.95487
vn -0.37225 0.16710 0.91297
vn -0.33928 0.03909 0.93987
vn 0.21171 0.10396 0.97179
vn 0.05651 -0.34598 0.93654
vn 0.22113 -0.34045 0.91389
vn 0.27643 0.21522 0.93663
vn -0.27860 -0.28562 0.91695
vn -0.23205 -0.75765 0.61002
vn -0.74668 -0.21264 0.63028
vn -0.39218 -0.43100 0.81267
vn 0.94273 -0.22813 0.24335
vn 0.91361 -0.35083 0.20551
vn 0.24072 -0.94747 0.21060
vn 0.40907 -0.23521 0.88167
vn 0.33313 -0.38227 0.86192
vn -0.32475 0.04647 0.94466
vn 0.28840 -0.15484 0.94491
vn 0.31008 0.06001 0.94881
vn -0.22817 0.16298 0.95988
vn 0.32774 0.21163 0.92076
vn 0.02023 0.38873 0.92113
vn -0.47206 -0.25524 0.84381
vn -0.79370 -0.06401 0.60493
vn -0.79753 0.12127 0.59096
vn -0.07500 0.47294 0.87790
vn 0.00312 0.51679 0.85611
vn 0.10551 0.34438 0.93288
vn 0.56779 0.54349 0.61824
vn 0.27881 0.82499 0.49158
vn -0.48270 0.81460 0.32160
vn -0.64080 0.70857 0.29546
vn -0.73784 -0.12946 0.66244
vn -0.32248 0.11159 0.93997
vn -0.35572 0.32588 0.87594
vn -0.49759 0.19450 0.84532
vn -0.07869 0.49408 0.86585
vn 0.13884 0.30955 0.94069
vn 0.61617 0.51706 0.59412
vn 0.13473 0.54015 0.83072
vn 0.62566 0.74524 0.23059
vn -0.42041 0.85805 0.29497
vn -0.19262 0.94927 0.24856
vn 0.54632 -0.48593 0.68221
vn 0.64382 -0.58574 0.49235
vn 0.61076 -0.63272 0.47606
vn 0.52665 -0.52562 0.66811
vn -0.12270 0.18933 0.97422
vn 0.11997 -0.03460 0.99217
vn 0.16841 -0.12110 0.97825
vn -0.04151 -0.92075 0.38794
vn -0.11277 -0.81359 0.57039
vn 0.43960 0.02065 0.89796
vn 0.11974 -0.20005 0.97244
vn 0.58234 0.73134 0.35500
vn 0.82824 0.18120 0.53028
vn 0.76852 -0.17651 0.61500
vn -0.49901 -0.23550 0.83398
vn -0.51684 -0.08561 0.85179
vn -0.97116 0.08581 0.22244
vn -0.98183 -0.00779 0.18962
vn -0.55042 -0.80937 0.20482
vn -0.94181 0.22069 0.25356
vn -0.52488 0.10925 0.84414
vn 0.49759 -0.07512 0.86415
vn -0.53626 0.19479 0.82127
vn 0.54373 -0.07164 0.83620
vn 0.95418 -0.11791 0.27501
vn 0.95474 -0.15155 0.25594
vn 0.59991 -0.07487 0.79656
vn 0.96291 -0.17010 0.20945
vn 0.85308 -0.21656 0.47472
vn -0.48593 0.76446 0.42365
vn -0.24439 0.81100 0.53155
vn 0.01667 0.95287 0.30293
vn 0.23983 0.90168 0.35979
vn -0.65525 0.64145 0.39898
vn -0.54111 0.52906 0.65368
vn -0.40462 0.61383 0.67786
vn -0.20555 0.58142 0.78721
vn 0.17659 -0.60510 0.77632
vn 0.26273 -0.83419 0.48488
vn -0.24497 -0.50138 0.82982
vn 0.71695 -0.53202 0.45048
vn 0.54899 -0.42113 0.72199
vn -0.34055 -0.92750 0.15416
vn -0.81523 -0.53017 0.23306
vn -0.91473 0.20064 0.35072
vn -0.80357 0.17581 0.56866
vn 0.75722 -0.44699 0.47626
vn 0.77133 -0.45487 0.44514
vn 0.79161 -0.46161 0.40035
vn 0.66526 -0.38767 0.63807
vn 0.69925 -0.40399 0.58978
vn 0.82913 -0.43708 0.34857
vn 0.75216 -0.39333 0.52873
vn -0.04878 -0.09517 0.99426
vn -0.04144 -0.09837 0.99429
vn 0.83710 -0.21098 0.50472
vn 0.91467 -0.24017 0.32512
vn 0.00950 -0.01638 0.99982
vn -0.84164 0.20245 0.50065
vn -0.91542 0.21361 0.34113
vn -0.92991 0.19148 0.31400
vn -0.86546 0.17892 0.46793
vn 0.00578 0.11290 0.99359
vn -0.93325 0.07961 0.35029
vn -0.84429 0.07891 0.53004
vn -0.87190 -0.20790 0.44336
vn -0.73670 -0.15106 0.65914
vn -0.56452 -0.61467 0.55090
vn -0.63720 0.55920 0.53035
vn -0.68942 0.49390 0.52988
vn -0.70214 0.47713 0.52853
vn -0.56558 0.40850 0.71641
vn -0.58177 0.39809 0.70927
vn -0.70550 0.47269 0.52806
vn -0.58688 0.39450 0.70706
vn 0.01134 -0.00225 0.99993
vn 0.00940 -0.00826 0.99992
vn -0.58388 0.39387 0.70990
vn -0.70404 0.47236 0.53028
vn 0.01069 -0.01020 0.99989
vn 0.59003 -0.41549 0.69226
vn 0.70098 -0.49654 0.51193
vn 0.70028 -0.49484 0.51453
vn 0.58770 -0.41375 0.69529
vn 0.01085 -0.01530 0.99982
vn 0.69920 -0.49431 0.51650
vn 0.58620 -0.41395 0.69643
vn 0.69752 -0.49440 0.51869
vn 0.58493 -0.41334 0.69786
vn 0.69378 -0.49886 0.51943
vn -0.68012 0.47070 0.56204
vn -0.66039 0.46948 0.58607
vn -0.77197 0.53148 0.34870
vn -0.57036 0.53942 0.61945
vn -0.50066 0.37326 0.78104
vn -0.69228 0.46878 0.54864
vn -0.56617 0.38414 0.72931
vn -0.54680 0.38338 0.74433
vn -0.69950 0.46823 0.53987
vn -0.57665 0.38616 0.71997
vn -0.70084 0.47252 0.53438
vn 0.70558 -0.49311 0.50891
vn 0.71518 -0.47834 0.50962
vn 0.59599 -0.41311 0.68857
vn 0.60060 -0.40000 0.69231
vn 0.55086 -0.41756 0.72263
vn 0.67514 -0.51786 0.52536
vn 0.01117 0.00697 0.99991
vn -0.00385 0.01932 0.99981
vn -0.21721 0.31037 0.92547
vn -0.03511 0.03218 0.99887
vn -0.48339 0.69448 0.53295
vn -0.51079 0.45559 0.72906
vn -0.18250 0.82666 0.53229
vn -0.10981 0.36817 0.92325
vn 0.21167 0.83413 0.50933
vn -0.89037 0.21040 0.40369
vn -0.86569 0.20084 0.45852
vn -0.78873 0.19529 0.58289
vn -0.74110 0.17776 0.64743
vn -0.71343 0.16195 0.68176
vn -0.84897 0.19123 0.49262
vn -0.03362 -0.08707 0.99563
vn -0.02341 -0.08203 0.99635
vn -0.01890 -0.08383 0.99630
vn 0.74248 -0.44358 0.50196
vn 0.62325 -0.37069 0.68858
vn 0.64322 -0.37606 0.66697
vn 0.72424 -0.44483 0.52688
vn 0.60161 -0.36710 0.70944
vn 0.70750 -0.43642 0.55586
vn 0.71469 -0.37373 0.59123
vn 0.82625 -0.43851 0.35359
vn 0.29992 -0.22995 0.92584
vn -0.01175 -0.07985 0.99674
vn -0.01664 -0.09167 0.99565
vn -0.64378 0.14035 0.75223
vn -0.81827 0.18656 0.54372
vn -0.66899 0.15208 0.72755
vn -0.83444 0.18879 0.51776
vn -0.69247 0.15679 0.70420
vn 0.91643 0.18705 0.35380
vn 0.64454 0.62503 0.44036
vn 0.81993 0.16735 0.54745
vn 0.55775 0.51199 0.65328
vn 0.03942 0.40184 0.91486
vn -0.07770 0.14958 0.98569
vn -0.28832 -0.17752 0.94094
vn -0.05154 -0.27800 0.95920
vn -0.02208 -0.80926 0.58704
vn 0.44948 -0.69134 0.56570
vn 0.34377 -0.52000 0.78194
vn -0.57979 0.39175 0.71440
vn 0.01670 -0.02184 0.99962
vn 0.02616 -0.03408 0.99908
vn 0.57986 -0.41764 0.69953
vn 0.05293 -0.04305 0.99767
vn 0.68327 -0.51968 0.51291
vn 0.57067 -0.43362 0.69736
vn -0.95049 -0.11028 0.29054
vn -0.86497 -0.42989 0.25889
vn -0.89804 0.28298 0.33681
vn -0.87451 -0.12740 0.46798
vn -0.80011 -0.41538 0.43276
vn -0.82758 0.23673 0.50899
vn -0.84185 0.33802 0.42074
vn -0.74855 0.29343 0.59462
vn 0.00033 0.19271 0.98126
vn 0.02413 0.02629 0.99936
vn -0.03410 0.19831 0.97955
vn -0.40879 0.24769 0.87837
vn -0.06764 0.17364 0.98248
vn 0.89204 0.14949 0.42652
vn 0.92872 0.16937 0.32985
vn 0.85845 0.14661 0.49150
vn 0.77936 0.12816 0.61332
vn 0.69884 0.11390 0.70615
vn 0.84895 0.14209 0.50902
vn 0.62929 0.12442 0.76715
vn 0.80715 0.16251 0.56753
vn 0.75430 0.24574 0.60881
vn 0.88988 0.28558 0.35575
vn 0.66177 0.41360 0.62530
vn 0.45195 0.65835 0.60192
vn 0.78692 0.49743 0.36514
vn 0.13633 0.34534 0.92852
vn 0.09527 0.84769 0.52187
vn -0.29389 0.86155 0.41395
vn -0.61842 0.71706 0.32152
vn -0.79492 0.54722 0.26202
vn -0.55320 0.64123 0.53179
vn -0.73995 0.51484 0.43292
vn -0.26055 0.72038 0.64278
vn 0.15799 0.04283 0.98651
vn 0.07019 0.08796 0.99365
vn 0.31953 -0.30992 0.89546
vn 0.49406 -0.70608 0.50731
vn 0.64516 -0.62043 0.44592
vn 0.55831 -0.52618 0.64142
vn 0.28177 -0.77532 0.56522
vn 0.05327 -0.79526 0.60393
vn -0.36083 -0.88727 0.28731
vn -0.86751 -0.40290 0.29171
vn -0.78107 0.10994 0.61469
vn -0.92000 0.13722 0.36712
vn -0.78179 0.24662 0.57270
vn -0.89160 0.28002 0.35588
vn -0.78521 0.32288 0.52838
vn -0.39210 0.22561 0.89183
vn -0.80773 0.33777 0.48320
vn -0.08510 0.15754 0.98384
vn 0.83123 0.25233 0.49536
vn 0.90531 0.23026 0.35694
vn 0.82305 0.21263 0.52667
vn 0.88065 0.20420 0.42751
vn 0.93263 0.22008 0.28593
vn -0.84892 0.47561 0.23050
vn -0.88299 0.41826 0.21303
vn -0.81157 0.45538 0.36604
vn -0.85075 0.40441 0.33568
vn 0.00211 0.07449 0.99722
vn -0.00822 0.06264 0.99800
vn 0.00808 0.08030 0.99674
vn 0.83245 -0.44593 0.32888
vn 0.88429 -0.37149 0.28290
vn 0.83378 -0.35188 0.42542
vn 0.76714 -0.40844 0.49464
vn 0.67126 -0.47308 0.57062
vn 0.75109 -0.53558 0.38601
vn -0.95749 0.16710 0.23515
vn -0.92215 -0.25111 0.29426
vn -0.91081 0.16919 0.37656
vn -0.86135 -0.22028 0.45778
vn -0.05777 -0.04747 0.99720
vn -0.05954 -0.19147 0.97969
vn 0.94177 -0.23431 0.24119
vn 0.94742 -0.11961 0.29680
vn 0.89092 -0.10824 0.44107
vn 0.90238 -0.22759 0.36593
vn 0.87646 -0.30288 0.37428
vn 0.91733 -0.31169 0.24771
vn -0.80329 -0.46245 0.37532
vn -0.74874 -0.47960 0.45758
vn -0.72873 -0.40955 0.54884
vn -0.65271 -0.40802 0.63835
vn -0.00930 -0.20466 0.97879
vn 0.01236 -0.14532 0.98931
vn 0.91886 -0.00904 0.39448
vn 0.87814 0.04829 0.47596
vn 0.74857 0.04483 0.66154
vn 0.82438 -0.00113 0.56603
vn 0.84771 0.07061 0.52575
vn 0.82317 0.09175 0.56034
vn 0.69738 0.05897 0.71427
vn 0.36063 -0.02177 0.93245
vn 0.79398 0.13754 0.59218
vn 0.31737 0.01125 0.94824
vn -0.29110 -0.25139 0.92307
vn 0.01969 -0.12528 0.99193
vn -0.27451 -0.22284 0.93541
vn 0.24817 0.09269 0.96427
vn -0.26901 -0.16112 0.94957
vn -0.65949 -0.45529 0.59815
vn -0.69206 -0.45751 0.55833
vn -0.65012 -0.41677 0.63533
vn -0.77103 -0.50153 0.39240
vn -0.75575 -0.53536 0.37714
vn -0.94298 0.04702 0.32951
vn 0.73629 0.26308 0.62343
vn 0.88482 0.31146 0.34655
vn -0.16194 0.93552 0.31398
vn -0.71690 -0.47199 0.51311
vn -0.60355 -0.38827 0.69640
vn 0.65189 -0.16175 0.74086
vn -0.73925 0.50361 0.44708
vn -0.77097 0.37549 0.51441
vn -0.55973 0.29260 0.77530
vn -0.57435 0.41050 0.70825
vn -0.92123 0.30873 0.23669
f 1//1 9//2 10//3 11//4
f 1//1 12//5 13//6 14//7
f 1//1 14//7 15//8 9//2
f 16//9 17//10 15//8 18//11
f 2//12 21//13 20//14 19//15
f 2//16 19//17 319//17 22//16
f 2//18 22//18 23//19 21//19
f 3//20 24//21 25//22 26//23
f 3//20 27//24 28//25 24//21
f 3//20 29//26 30//27 31//27
f 3//20 26//23 32//28 29//26
f 3//20 31//29 33//29 27//24
f 34//30 35//31 36//32 37//33
f 4//34 39//35 38//36 40//37
f 4//38 40//39 41//40 42//41
f 5//42 46//43 47//44 48//45
f 5//46 44//47 43//48 46//43
f 5//49 48//50 45//51 44//52
f 6//53 49//54 50//55 51//56
f 6//53 51//56 52//57 53//58
f 6//59 54//59 55//60 49//60
f 6//53 53//58 47//44 56//61
f 6//53 56//61 57//62 54//62
f 7//63 28//64 59//65 320//66
f 7//67 60//68 24//21 28//25
f 7//69 320//66 58//70 60//68
f 8//71 62//72 23//72 22//71
f 8//73 61//74 321//75 62//76
f 8//77 22//77 319//78 61//78
f 62//76 321//75 322//79 63//80
f 62//72 63//81 64//81 23//72
f 64//82 65//82 21//19 23//19
f 64//81 63//81 66//83 67//83
f 64//82 67//84 68//84 65//82
f 68//85 323//86 69//87 65//88
f 68//84 67//84 70//89 71//89
f 68//85 71//90 324//91 323//86
f 324//91 71//90 72//92 325//93
f 326//94 76//95 77//96 74//97
f 326//94 327//98 33//99 76//95
f 327//98 78//100 27//100 33//99
f 78//100 59//65 28//64 27//100
f 77//96 79//101 80//102 81//103
f 77//96 81//103 75//104 74//97
f 77//96 76//95 82//105 79//101
f 82//106 83//106 84//107 79//107
f 82//105 76//95 33//29 31//29
f 82//106 31//27 30//27 83//106
f 84//108 328//109 73//110 85//111
f 84//107 85//111 80//112 79//107
f 84//108 83//113 86//114 328//109
f 86//114 83//113 30//115 329//116
f 329//116 30//115 29//26 330//117
f 330//117 29//26 32//28 87//118
f 87//118 32//28 88//119 331//120
f 332//121 92//122 93//123 90//124
f 332//121 333//125 94//126 92//122
f 94//126 95//127 96//128 92//122
f 94//126 333//125 334//129 97//130
f 94//126 97//130 98//131 95//127
f 98//132 99//132 100//133 95//133
f 98//131 97//130 101//134 102//135
f 98//132 102//136 103//136 99//132
f 103//137 104//138 105//139 99//140
f 103//136 102//136 106//141 107//141
f 103//137 107//142 108//143 104//138
f 108//143 109//144 110//145 104//138
f 108//143 107//142 111//146 112//147
f 108//143 112//147 113//148 109//144
f 113//148 112//147 114//149 335//150
f 116//151 117//152 118//153 336//154
f 116//151 337//155 119//156 117//152
f 119//156 120//157 121//158 117//152
f 119//156 337//155 338//159 122//160
f 119//156 122//160 123//161 120//157
f 123//162 124//162 125//163 120//163
f 123//161 122//160 126//164 127//165
f 123//162 127//166 128//166 124//162
f 128//167 129//168 130//169 124//170
f 128//166 127//166 131//171 132//171
f 128//167 132//172 133//173 129//168
f 133//173 134//174 135//175 129//168
f 133//173 132//172 136//176 137//177
f 133//173 137//177 339//178 134//174
f 339//178 137//177 138//179 340//180
f 342//181 140//182 141//183 341//184
f 342//181 343//185 142//186 140//182
f 142//186 53//58 52//187 140//182
f 142//186 343//185 45//51 48//50
f 142//186 48//45 47//44 53//58
f 141//183 143//188 144//189 145//190
f 141//183 145//190 139//191 341//184
f 141//183 140//182 52//187 143//188
f 145//190 144//189 146//192 147//193
f 145//190 147//193 148//194 139//191
f 148//194 147//193 149//195 344//196
f 150//197 345//198 151//199 130//169
f 150//197 130//169 129//168 135//175
f 151//199 345//198 346//200 152//201
f 151//199 152//201 153//202 125//203
f 151//199 125//203 124//170 130//169
f 153//202 152//201 154//204 155//205
f 153//206 155//207 156//207 121//206
f 153//206 121//206 120//163 125//163
f 156//207 155//207 157//208 158//209
f 156//210 158//209 159//211 118//153
f 156//210 118//153 117//152 121//158
f 159//211 158//209 160//212 161//213
f 159//211 161//213 162//214 115//215
f 159//211 115//215 336//154 118//153
f 162//214 161//213 163//216 347//217
f 165//218 348//219 166//220 105//139
f 165//218 105//139 104//138 110//145
f 166//220 348//219 349//221 167//222
f 166//220 167//222 168//223 100//224
f 166//220 100//224 99//140 105//139
f 168//223 167//222 169//225 170//226
f 168//227 170//228 171//228 96//227
f 168//227 96//227 95//133 100//133
f 171//228 170//228 172//229 173//229
f 171//230 173//231 174//232 93//123
f 171//230 93//123 92//122 96//128
f 174//232 173//231 175//233 176//234
f 174//232 176//234 177//235 91//236
f 174//232 91//236 90//124 93//123
f 177//235 176//234 178//237 350//238
f 351//239 179//240 60//68 58//70
f 351//239 350//238 178//237 179//240
f 179//240 25//22 24//21 60//68
f 179//240 178//237 180//241 25//22
f 180//241 181//242 26//23 25//22
f 180//241 178//237 176//234 175//233
f 180//241 175//243 182//243 181//242
f 182//244 183//245 88//119 181//246
f 182//243 175//243 173//229 172//229
f 182//244 172//247 184//248 183//245
f 184//248 185//249 89//250 183//245
f 184//248 172//247 170//226 169//225
f 184//248 169//225 352//251 185//249
f 352//251 169//225 167//222 349//221
f 187//252 188//253 101//134 186//254
f 187//252 164//255 189//256 188//253
f 189//256 190//257 106//258 188//253
f 189//256 164//255 347//217 163//216
f 189//256 163//216 191//259 190//257
f 191//259 192//260 111//261 190//261
f 191//259 163//216 161//213 160//212
f 191//259 160//212 193//262 192//260
f 193//262 194//263 114//149 192//260
f 193//262 160//212 158//209 157//208
f 193//262 157//208 195//264 194//263
f 195//264 196//265 353//266 194//263
f 195//264 157//208 155//205 154//204
f 195//264 154//204 197//267 196//265
f 197//267 154//204 152//201 346//200
f 194//263 353//266 335//268 114//149
f 192//260 114//149 112//147 111//146
f 190//261 111//261 107//141 106//141
f 188//253 106//258 102//135 101//134
f 186//254 101//134 97//130 334//129
f 183//245 89//250 331//120 88//119
f 181//246 88//119 32//28 26//23
f 354//269 126//164 122//160 338//159
f 354//269 344//196 149//195 126//164
f 149//195 131//270 127//165 126//164
f 149//195 147//193 146//192 131//270
f 146//271 136//271 132//171 131//171
f 146//271 144//272 198//272 136//271
f 198//273 138//179 137//177 136//176
f 198//272 144//272 143//274 199//274
f 198//273 199//275 200//276 138//179
f 200//276 355//277 340//180 138//179
f 200//276 199//275 51//56 50//55
f 200//276 50//55 201//278 355//277
f 201//278 50//55 49//54 356//279
f 356//280 49//60 55//60 202//280
f 202//281 55//282 204//283 203//281
f 204//283 205//284 206//285 203//286
f 204//283 55//282 54//287 207//288
f 204//283 207//288 208//289 205//284
f 208//289 209//290 210//291 205//284
f 208//292 207//293 211//293 212//292
f 208//292 212//292 213//294 209//294
f 213//294 214//295 215//296 209//294
f 213//297 212//298 216//299 217//300
f 213//297 217//300 218//301 214//302
f 218//301 219//303 220//304 214//302
f 218//301 217//300 357//305 358//306
f 218//301 358//306 221//307 219//303
f 221//307 222//308 223//309 219//303
f 224//310 225//311 226//312 227//313
f 224//310 227//313 223//309 222//308
f 227//313 226//312 12//5 1//1
f 227//313 1//1 11//4 223//309
f 226//312 228//314 229//315 12//5
f 226//312 225//311 230//316 228//314
f 230//316 231//317 232//318 228//314
f 233//319 234//320 235//321 236//322
f 233//319 236//322 232//318 231//317
f 236//322 235//321 237//323 238//324
f 236//322 238//324 239//325 232//318
f 239//326 238//327 240//327 241//326
f 239//326 241//326 242//328 229//315
f 239//325 229//315 228//314 232//318
f 242//328 241//329 243//330 244//331
f 242//328 244//331 245//332 13//6
f 242//328 13//6 12//5 229//315
f 245//332 244//331 246//333 359//334
f 245//332 359//334 360//335 247//336
f 245//332 247//336 14//7 13//6
f 247//336 360//335 361//337 18//11
f 247//336 18//11 15//8 14//7
f 361//337 362//338 16//339 18//11
f 362//340 248//341 17//10 16//342
f 248//341 249//343 250//344 17//10
f 250//344 249//343 363//345 251//346
f 250//344 251//346 10//3 9//2
f 250//344 9//2 15//8 17//10
f 251//346 363//345 252//347 253//348
f 251//346 253//348 254//349 10//3
f 254//349 253//348 255//350 215//296
f 254//349 215//296 214//295 220//351
f 254//349 220//351 11//4 10//3
f 255//350 253//348 252//347 256//352
f 255//350 256//352 257//353 210//291
f 255//350 210//291 209//290 215//296
f 257//353 206//285 205//284 210//291
f 364//354 258//355 259//356 260//357
f 364//354 260//357 46//43 43//48
f 260//357 259//356 57//358 56//61
f 260//357 56//61 47//44 46//43
f 259//356 261//359 211//360 57//358
f 259//356 258//355 365//361 261//359
f 261//359 216//299 212//298 211//360
f 261//359 365//361 366//362 216//299
f 366//362 357//305 217//300 216//299
f 262//363 367//364 263//365 264//366
f 262//363 264//366 235//321 234//320
f 264//366 263//365 265//367 266//368
f 264//366 266//368 237//323 235//321
f 266//369 265//370 267//370 268//369
f 266//369 268//369 269//371 237//371
f 269//372 268//373 270//374 271//375
f 269//372 271//375 272//376 240//377
f 269//371 240//327 238//327 237//371
f 272//376 271//375 368//378 369//379
f 272//376 369//379 273//380 243//330
f 272//376 243//330 241//329 240//377
f 273//380 246//333 244//331 243//330
f 368//378 271//375 270//374 370//381
f 372//382 371//383 275//384 276//385
f 372//382 276//385 263//365 367//364
f 276//385 275//384 277//386 278//387
f 276//385 278//387 265//367 263//365
f 278//388 277//389 279//389 280//388
f 278//388 280//388 267//370 265//370
f 280//390 279//391 281//392 282//393
f 280//390 282//393 283//394 267//395
f 283//394 282//393 373//396 274//397
f 283//394 274//397 370//381 270//374
f 283//394 270//374 268//373 267//395
f 373//396 282//393 281//392 374//398
f 286//399 285//400 287//401 288//402
f 286//399 288//402 275//384 371//383
f 288//402 287//401 289//403 290//404
f 288//402 290//404 277//386 275//384
f 290//405 289//406 291//406 292//405
f 290//405 292//405 279//389 277//389
f 292//407 291//408 293//409 294//410
f 292//407 294//410 281//392 279//391
f 294//410 293//409 375//411 284//412
f 294//410 284//412 374//398 281//392
f 375//411 293//409 296//413 295//414
f 296//413 297//415 298//416 295//414
f 296//413 293//409 291//408 299//417
f 296//413 299//417 300//418 297//415
f 300//418 301//419 302//420 297//415
f 300//418 299//421 303//421 304//422
f 300//418 304//422 305//423 301//419
f 305//423 306//424 307//425 301//419
f 305//423 304//422 308//426 309//427
f 305//423 309//427 310//428 306//424
f 310//428 42//41 41//40 306//424
f 310//428 309//427 376//429 377//430
f 310//428 377//430 378//431 42//41
f 378//431 39//432 4//433 42//41
f 380//434 311//435 312//436 35//31
f 380//434 35//31 34//437 381//438
f 381//438 34//437 37//439 382//440
f 382//440 37//439 40//37 38//36
f 312//436 311//435 379//441 302//420
f 312//436 302//420 301//419 307//425
f 312//436 307//425 36//32 35//31
f 379//441 298//416 297//415 302//420
f 313//442 383//443 308//426 314//444
f 313//442 314//444 287//401 285//400
f 314//444 308//426 304//422 303//445
f 314//444 303//445 289//403 287//401
f 383//443 376//429 309//427 308//426
f 307//425 306//424 41//40 36//32
f 303//421 299//421 291//406 289//406
f 223//309 11//4 220//304 219//303
f 211//293 207//293 54//62 57//62
f 199//274 143//274 52//57 51//56
f 85//111 73//110 325//93 72//92
f 85//111 72//92 315//446 80//112
f 315//446 72//92 71//89 70//89
f 315//447 70//448 316//449 317//450
f 315//447 317//450 81//103 80//102
f 317//450 316//449 384//451 318//452
f 317//450 318//452 75//104 81//103
f 385//453 66//454 63//80 322//79
f 385//453 384//451 316//449 66//454
f 316//449 70//448 67//83 66//83
f 69//87 20//14 21//13 65//88
f 41//40 40//39 37//33 36//32
f 396//455 395//456 394//457 386//458
f 399//459 398//460 397//461 386//458
f 394//457 400//462 399//459 386//458
f 403//463 400//462 402//464 401//465
f 19//15 20//14 404//466 387//467
f 405//468 319//17 19//17 387//468
f 404//469 406//469 405//470 387//470
f 409//471 408//472 407//473 388//474
f 407//473 411//475 410//476 388//474
f 414//477 413//477 412//478 388//474
f 412//478 415//479 409//471 388//474
f 410//476 416//480 414//480 388//474
f 420//481 419//482 418//483 417//484
f 421//485 38//36 39//35 389//486
f 423//487 422//488 421//489 389//490
f 426//491 425//492 424//493 390//494
f 424//493 43//48 44//47 390//495
f 44//52 45//51 426//496 390//497
f 429//498 428//499 427//500 391//501
f 431//502 430//503 429//503 391//504
f 427//505 433//505 432//506 391//506
f 434//507 425//492 431//502 391//504
f 432//508 435//508 434//507 391//504
f 320//66 59//65 411//509 392//510
f 411//475 407//473 436//511 392//510
f 436//511 58//70 320//66 392//510
f 405//512 406//513 437//513 393//512
f 437//514 321//75 61//74 393//515
f 61//78 319//78 405//516 393//516
f 438//517 322//79 321//75 437//514
f 406//513 439//518 438//518 437//513
f 406//469 404//469 440//519 439//519
f 442//520 441//520 438//518 439//518
f 440//519 443//521 442//521 439//519
f 440//522 69//87 323//86 443//523
f 445//524 444//524 442//521 443//521
f 323//86 324//91 445//525 443//523
f 325//93 446//526 445//525 324//91
f 74//97 448//527 447//528 326//94
f 447//528 416//529 327//98 326//94
f 416//529 410//530 78//530 327//98
f 410//530 411//509 59//65 78//530
f 451//531 450//532 449//533 448//527
f 74//97 75//104 451//531 448//527
f 449//533 452//534 447//528 448//527
f 449//535 454//536 453//537 452//537
f 414//480 416//480 447//528 452//534
f 453//537 413//477 414//477 452//537
f 455//538 73//110 328//109 454//536
f 449//535 450//539 455//538 454//536
f 328//109 86//114 453//540 454//536
f 329//116 413//541 453//540 86//114
f 330//117 412//478 413//541 329//116
f 87//118 415//479 412//478 330//117
f 331//542 456//543 415//479 87//118
f 90//124 458//544 457//545 332//121
f 457//545 459//546 333//125 332//121
f 457//545 461//547 460//548 459//546
f 462//549 334//129 333//125 459//546
f 460//548 463//550 462//549 459//546
f 460//551 465//551 464//552 463//552
f 467//553 466//554 462//549 463//550
f 464//552 468//555 467//555 463//552
f 464//556 470//557 469//558 468//559
f 472//560 471//560 467//555 468//555
f 469//558 473//561 472//562 468//559
f 469//558 110//145 109//144 473//561
f 475//563 474//564 472//562 473//561
f 109//144 113//148 475//563 473//561
f 335//150 476//565 475//563 113//148
f 336//154 478//566 477//567 116//151
f 477//567 479//568 337//155 116//151
f 477//567 481//569 480//570 479//568
f 482//571 338//159 337//155 479//568
f 480//570 483//572 482//571 479//568
f 480//573 485//573 484//574 483//574
f 487//575 486//576 482//571 483//572
f 484//574 488//577 487//577 483//574
f 484//578 490//579 489//580 488//581
f 492//582 491//582 487//577 488//577
f 489//580 493//583 492//584 488//581
f 489//580 135//175 134//174 493//583
f 495//585 494//586 492//584 493//583
f 134//174 339//178 495//585 493//583
f 340//180 496//587 495//585 339//178
f 341//184 498//588 497//589 342//590
f 497//589 499//591 343//185 342//590
f 497//589 430//592 431//502 499//591
f 426//496 45//51 343//185 499//591
f 431//502 425//492 426//491 499//591
f 502//593 501//594 500//595 498//588
f 341//184 139//191 502//593 498//588
f 500//595 430//592 497//589 498//588
f 504//596 503//597 501//594 502//593
f 139//191 148//194 504//596 502//593
f 344//196 505//598 504//596 148//194
f 490//579 506//599 345//198 150//197
f 135//175 489//580 490//579 150//197
f 507//600 346//200 345//198 506//599
f 485//601 508//602 507//600 506//599
f 490//579 484//578 485//601 506//599
f 510//603 509//604 507//600 508//602
f 481//605 511//606 510//606 508//605
f 485//573 480//573 481//605 508//605
f 513//607 512//608 510//606 511//606
f 478//566 514//609 513//607 511//610
f 481//569 477//567 478//566 511//610
f 516//611 515//612 513//607 514//609
f 115//215 162//214 516//611 514//609
f 478//566 336//154 115//215 514//609
f 347//217 517//613 516//611 162//214
f 470//557 518//614 348//219 165//218
f 110//145 469//558 470//557 165//218
f 519//615 349//221 348//219 518//614
f 465//616 520//617 519//615 518//614
f 470//557 464//556 465//616 518//614
f 522//618 521//619 519//615 520//617
f 461//620 523//621 522//621 520//620
f 465//551 460//551 461//620 520//620
f 525//622 524//622 522//621 523//621
f 458//544 526//623 525//624 523//625
f 461//547 457//545 458//544 523//625
f 528//626 527//627 525//624 526//623
f 91//236 177//235 528//626 526//623
f 458//544 90//124 91//236 526//623
f 350//238 529//628 528//626 177//235
f 58//70 436//511 530//629 351//630
f 530//629 529//628 350//238 351//630
f 436//511 407//473 408//472 530//629
f 408//472 531//631 529//628 530//629
f 408//472 409//471 532//632 531//631
f 527//627 528//626 529//628 531//631
f 532//632 533//633 527//633 531//631
f 532//634 456//543 534//635 533//636
f 524//622 525//622 527//633 533//633
f 534//635 535//637 524//638 533//636
f 534//635 89//250 185//249 535//637
f 521//619 522//618 524//638 535//637
f 185//249 352//251 521//619 535//637
f 349//221 519//615 521//619 352//251
f 186//254 466//554 536//639 187//252
f 536//639 537//640 164//255 187//252
f 536//639 471//641 538//642 537//640
f 517//613 347//217 164//255 537//640
f 538//642 539//643 517//613 537//640
f 538//644 474//644 540//645 539//643
f 515//612 516//611 517//613 539//643
f 540//645 541//646 515//612 539//643
f 540//645 476//565 542//647 541//646
f 512//608 513//607 515//612 541//646
f 542//647 543//648 512//649 541//646
f 542//647 353//266 196//265 543//648
f 509//604 510//603 512//649 543//648
f 196//265 197//267 509//604 543//648
f 346//200 507//600 509//604 197//267
f 476//565 335//268 353//266 542//647
f 474//564 475//563 476//565 540//645
f 471//560 472//560 474//644 538//644
f 466//554 467//553 471//641 536//639
f 334//129 462//549 466//554 186//254
f 456//543 331//542 89//250 534//635
f 409//471 415//479 456//543 532//634
f 338//159 482//571 486//576 354//269
f 486//576 505//598 344//196 354//269
f 486//576 487//575 491//650 505//598
f 491//650 503//597 504//596 505//598
f 491//582 492//582 494//651 503//651
f 494//651 544//652 501//652 503//651
f 494//586 495//585 496//587 544//653
f 545//654 500//654 501//652 544//652
f 496//587 546//655 545//656 544//653
f 496//587 340//180 355//277 546//655
f 428//499 429//498 545//656 546//655
f 355//277 201//278 428//499 546//655
f 356//279 427//500 428//499 201//278
f 202//280 433//505 427//505 356//280
f 203//281 547//657 433//658 202//281
f 203//286 206//285 548//659 547//657
f 549//660 432//661 433//658 547//657
f 548//659 550//662 549//660 547//657
f 548//659 552//663 551//664 550//662
f 554//665 553//666 549//666 550//665
f 551//667 555//667 554//665 550//665
f 551//667 557//668 556//669 555//667
f 559//670 558//671 554//672 555//673
f 556//674 560//675 559//670 555//673
f 556//674 562//676 561//677 560//675
f 358//306 357//305 559//670 560//675
f 561//677 221//307 358//306 560//675
f 561//677 563//678 222//679 221//307
f 565//680 564//681 225//311 224//682
f 222//679 563//678 565//680 224//682
f 386//458 397//461 564//681 565//680
f 563//678 396//455 386//458 565//680
f 397//461 567//683 566//684 564//681
f 566//684 230//316 225//311 564//681
f 566//684 568//685 231//317 230//316
f 570//686 569//687 234//320 233//319
f 231//317 568//685 570//686 233//319
f 572//688 571//689 569//687 570//686
f 568//685 573//690 572//688 570//686
f 575//691 574//692 572//692 573//691
f 567//683 576//693 575//691 573//691
f 568//685 566//684 567//683 573//690
f 578//694 577//695 575//696 576//693
f 398//460 579//697 578//694 576//693
f 567//683 397//461 398//460 576//693
f 359//334 246//333 578//694 579//697
f 580//698 360//335 359//334 579//697
f 398//460 399//459 580//698 579//697
f 403//463 361//337 360//335 580//698
f 399//459 400//462 403//463 580//698
f 403//463 401//699 362//338 361//337
f 401//700 402//464 248//341 362//340
f 402//464 581//701 249//702 248//341
f 582//703 363//704 249//702 581//701
f 394//457 395//456 582//703 581//701
f 402//464 400//462 394//457 581//701
f 583//705 252//347 363//704 582//703
f 395//456 584//706 583//705 582//703
f 557//668 585//707 583//705 584//706
f 562//708 556//669 557//668 584//706
f 395//456 396//455 562//708 584//706
f 256//352 252//347 583//705 585//707
f 552//663 257//353 256//352 585//707
f 557//668 551//664 552//663 585//707
f 552//663 548//659 206//285 257//353
f 587//709 586//710 258//355 364//354
f 43//48 424//493 587//709 364//354
f 434//507 435//711 586//710 587//709
f 424//493 425//492 434//507 587//709
f 435//711 553//712 588//713 586//710
f 588//713 365//361 258//355 586//710
f 553//712 554//672 558//671 588//713
f 558//671 366//362 365//361 588//713
f 558//671 559//670 357//305 366//362
f 590//714 589//715 367//364 262//363
f 234//320 569//687 590//714 262//363
f 592//716 591//717 589//715 590//714
f 569//687 571//689 592//716 590//714
f 594//718 593//719 591//719 592//718
f 571//720 595//720 594//718 592//718
f 597//721 596//722 594//723 595//724
f 574//725 598//726 597//721 595//724
f 571//720 572//692 574//692 595//720
f 369//379 368//378 597//721 598//726
f 577//695 273//380 369//379 598//726
f 574//725 575//696 577//695 598//726
f 577//695 578//694 246//333 273//380
f 370//381 596//722 597//721 368//378
f 600//727 599//728 371//383 372//382
f 367//364 589//715 600//727 372//382
f 602//729 601//730 599//728 600//727
f 589//715 591//717 602//729 600//727
f 604//731 603//732 601//732 602//731
f 591//719 593//719 604//731 602//731
f 606//733 605//734 603//735 604//736
f 593//737 607//738 606//733 604//736
f 274//397 373//396 606//733 607//738
f 596//722 370//381 274//397 607//738
f 593//737 594//723 596//722 607//738
f 374//398 605//734 606//733 373//396
f 609//739 608//740 285//400 286//399
f 371//383 599//728 609//739 286//399
f 611//741 610//742 608//740 609//739
f 599//728 601//730 611//741 609//739
f 613//743 612//744 610//744 611//743
f 601//732 603//732 613//743 611//743
f 615//745 614//746 612//747 613//748
f 603//735 605//734 615//745 613//748
f 284//412 375//411 614//746 615//745
f 605//734 374//398 284//412 615//745
f 295//414 616//749 614//746 375//411
f 295//414 298//416 617//750 616//749
f 618//751 612//747 614//746 616//749
f 617//750 619//752 618//751 616//749
f 617//750 621//753 620//754 619//752
f 623//755 622//756 618//756 619//752
f 620//754 624//757 623//755 619//752
f 620//754 626//758 625//759 624//757
f 628//760 627//761 623//755 624//757
f 625//759 629//762 628//760 624//757
f 625//759 422//488 423//487 629//762
f 377//763 376//764 628//760 629//762
f 423//487 378//431 377//763 629//762
f 423//487 389//765 39//432 378//431
f 418//483 630//766 311//767 380//434
f 381//438 417//484 418//483 380//434
f 382//440 420//768 417//484 381//438
f 38//36 421//485 420//768 382//440
f 621//753 379//441 311//767 630//766
f 626//758 620//754 621//753 630//766
f 418//483 419//482 626//758 630//766
f 621//753 617//750 298//416 379//441
f 631//769 627//761 383//443 313//442
f 285//400 608//740 631//769 313//442
f 622//770 623//755 627//761 631//769
f 608//740 610//742 622//770 631//769
f 627//761 628//760 376//764 383//443
f 419//482 422//488 625//759 626//758
f 610//744 612//744 618//756 622//756
f 561//677 562//676 396//455 563//678
f 435//508 432//508 549//666 553//666
f 429//503 430//503 500//654 545//654
f 446//526 325//93 73//110 455//538
f 450//539 632//771 446//526 455//538
f 444//524 445//524 446//526 632//771
f 634//772 633//773 444//774 632//775
f 450//532 451//531 634//772 632//775
f 318//452 384//451 633//773 634//772
f 451//531 75//104 318//452 634//772
f 322//79 438//517 441//776 385//453
f 441//776 633//773 384//451 385//453
f 441//520 442//520 444//774 633//773
f 440//522 404//466 20//14 69//87
f 419//482 420//481 421//489 422//488
