# pilowlava3D glyph 'w' variant 2 — Vincent Wagner / Velvetyne, Free Art License
v 3.62558 3.57215 -0.36391
v 3.08652 3.02242 -0.46336
v 4.26917 0.81238 -0.55706
v 1.61621 4.01650 -0.49564
v 2.03711 3.71022 -0.48121
v 4.23218 3.00115 -0.34671
v 5.10931 3.70076 -0.47956
v 4.84930 4.20583 -0.26826
v 5.07233 3.24068 -0.28003
v 3.84280 3.28164 -0.45100
v 1.96527 4.00720 -0.48625
v 0.05328 2.57039 -0.19653
v 0.40573 2.51644 -0.18958
v 3.38690 3.41454 -0.38547
v 3.34418 3.56235 -0.20096
v 3.66495 3.71964 -0.21031
v 4.02161 3.52715 -0.23844
v 3.48129 3.18165 -0.49282
v 3.60364 2.93656 -0.44616
v 3.38278 2.74977 -0.45713
v 2.77286 3.23374 -0.33654
v 2.81433 3.32772 -0.30482
v 3.10953 3.29425 -0.37867
v 5.60583 4.35498 -0.29418
v 5.72314 4.16461 -0.33427
v 5.41586 4.09983 -0.49033
v 5.34958 4.36722 -0.33538
v 4.22250 0.43361 -0.52230
v 3.87085 0.48614 -0.51311
v 3.86533 0.80222 -0.53472
v 3.87851 1.14812 -0.51200
v 4.18057 1.17125 -0.52859
v 4.60132 0.70738 -0.47282
v 4.58154 0.43467 -0.45972
v 1.62079 3.70439 -0.51787
v 1.31039 3.67055 -0.32445
v 1.29926 3.85859 -0.31918
v 1.20673 4.02138 -0.27699
v 1.36246 4.18321 -0.38160
v 2.28946 3.88587 -0.27947
v 2.38422 3.67679 -0.22143
v 2.29465 3.56747 -0.35199
v 2.14621 4.20690 -0.32907
v 1.88028 3.35293 -0.44119
v 1.53415 3.42306 -0.49143
v 4.23087 2.62867 -0.30546
v 4.14908 2.62380 -0.30405
v 4.08060 2.86233 -0.33165
v 3.84131 2.99636 -0.40832
v 4.35623 2.91340 -0.17511
v 4.29181 2.63012 -0.18132
v 4.60696 3.18361 -0.27933
v 4.66074 3.13687 -0.19340
v 4.26019 3.27320 -0.20436
v 4.58218 3.26994 -0.18589
v 5.07565 4.03419 -0.46557
v 5.50662 3.83611 -0.50857
v 4.91330 3.41153 -0.35133
v 4.83441 3.47210 -0.22966
v 4.86041 3.71595 -0.29182
v 4.81567 3.98003 -0.31470
v 5.04974 4.29945 -0.32166
v 5.24866 2.99093 -0.00000
v 5.32819 3.06690 -0.27227
v 5.33066 3.43383 -0.46999
v 5.49799 3.19530 -0.44948
v 3.61044 0.29632 -0.30482
v 3.55066 0.54990 -0.34476
v 3.87509 0.17610 -0.34342
v 2.76578 2.94278 -0.25060
v 2.67923 3.15378 -0.20415
v 2.95084 2.63450 -0.46249
v 2.72751 2.68838 -0.26655
v 1.82150 4.36051 -0.30443
v 0.07684 2.79124 -0.24675
v 0.26480 2.73792 -0.33418
v 0.22479 2.48538 -0.22960
v 0.53485 2.72979 -0.00000
v 0.45395 2.72767 -0.24297
v 0.47983 2.99494 -0.25657
v 0.56641 2.98686 -0.00000
v 0.31088 3.02005 -0.35496
v 0.36392 3.29256 -0.34675
v 0.52460 3.25537 -0.24624
v 0.13525 3.06106 -0.26194
v 0.20114 3.33508 -0.24771
v 0.28607 3.60179 -0.22396
v 0.43134 3.55305 -0.32968
v 0.23459 3.62405 -0.00000
v 0.38116 3.87469 -0.00000
v 0.41159 3.85948 -0.19069
v 0.57324 4.11091 -0.00000
v 0.80923 4.31046 -0.00000
v 0.81897 4.28138 -0.17650
v 0.58972 4.09678 -0.16798
v 0.84927 4.20109 -0.27385
v 0.65601 4.04110 -0.27156
v 0.51755 3.81116 -0.29944
v 0.72015 3.98037 -0.17643
v 0.63516 3.75652 -0.19986
v 0.58115 3.51064 -0.22543
v 0.59973 3.24005 -0.00000
v 1.11554 4.46662 -0.00000
v 1.47473 4.42955 -0.25440
v 1.11523 4.40287 -0.21072
v 1.10080 4.25297 -0.30326
v 1.06189 4.11274 -0.22973
v 0.88379 4.10841 -0.19154
v 1.04724 4.08819 -0.00000
v 1.15564 3.98880 -0.00000
v 1.18311 3.83642 -0.00000
v 1.16269 3.65749 -0.00000
v 1.25967 3.43875 -0.30766
v 1.11954 3.44857 -0.00000
v 1.07187 3.20100 -0.00000
v 1.74435 2.65893 -0.00000
v 2.23251 3.28391 -0.00000
v 1.81342 2.95455 -0.26294
v 1.99588 3.19752 -0.25062
v 2.22702 3.32943 -0.21065
v 1.66293 2.70356 -0.25324
v 1.49707 2.77502 -0.43273
v 1.64325 3.04797 -0.44900
v 1.29773 2.85057 -0.44401
v 1.40616 3.12530 -0.46977
v 1.11462 2.91169 -0.26831
v 1.18936 3.17887 -0.28489
v 1.03983 2.63811 -0.25340
v 0.96777 2.36210 -0.23966
v 0.89941 2.37998 -0.00000
v 1.19992 2.58084 -0.41525
v 1.10443 2.31133 -0.39230
v 1.00278 2.04043 -0.36676
v 0.89392 2.08120 -0.22137
v 1.37109 2.51428 -0.41015
v 1.24780 2.25658 -0.39057
v 1.13162 1.99173 -0.36740
v 1.02341 1.72680 -0.33721
v 0.90384 1.76757 -0.33729
v 1.38339 2.19995 -0.23486
v 1.24377 1.94960 -0.22002
v 1.11346 1.69978 -0.19339
v 1.00021 1.45344 -0.17440
v 0.92783 1.46248 -0.31168
v 1.02069 1.45270 -0.00000
v 0.98636 1.21548 -0.00000
v 0.96579 1.20864 -0.18088
v 1.07291 1.04051 -0.00000
v 1.19821 0.91332 -0.22859
v 1.04703 1.01127 -0.20590
v 1.13660 0.72798 -0.41575
v 0.94781 0.91344 -0.37102
v 0.88281 1.18941 -0.31636
v 0.81857 0.80804 -0.37886
v 0.77026 1.16780 -0.33068
v 0.81821 1.48449 -0.31405
v 0.68152 1.13972 -0.19438
v 0.74701 1.49430 -0.18125
v 0.81873 1.79674 -0.19710
v 0.71671 1.49707 -0.00000
v 0.84058 2.09785 -0.00000
v 1.59180 2.41410 -0.00000
v 1.52350 2.44999 -0.24228
v 1.49924 1.04363 -0.00000
v 1.53137 0.96298 -0.25741
v 1.36523 0.89308 -0.24176
v 1.60825 0.74999 -0.45050
v 1.37042 0.67344 -0.43690
v 1.73187 0.47703 -0.46654
v 1.37695 0.37047 -0.46416
v 1.03043 0.50061 -0.43355
v 1.38049 0.11820 -0.30647
v 0.92407 0.29715 -0.29101
v 0.69110 0.71578 -0.24046
v 0.63739 0.67741 -0.00000
v 0.64545 1.12997 -0.00000
v 1.89032 0.15512 -0.00000
v 1.76315 1.37327 -0.00000
v 1.83978 1.30703 -0.26586
v 1.69031 1.10894 -0.26510
v 1.99234 1.16829 -0.45101
v 1.82065 0.93486 -0.44991
v 2.19223 0.99660 -0.45046
v 1.99408 0.72701 -0.45672
v 2.34216 0.86256 -0.26092
v 2.13379 0.56310 -0.27095
v 1.84003 0.25797 -0.29486
v 2.20053 0.48987 -0.00000
v 2.60208 1.05978 -0.00000
v 1.90717 1.58899 -0.00000
v 2.14307 1.75799 -0.26345
v 1.98767 1.52877 -0.26422
v 2.31107 1.63872 -0.45100
v 2.15164 1.40456 -0.45125
v 2.53094 1.48288 -0.44969
v 2.36462 1.24372 -0.44702
v 2.69678 1.36472 -0.26022
v 2.52530 1.12077 -0.25951
v 2.77634 1.30576 -0.00000
v 2.86395 1.60588 -0.26073
v 3.03354 1.84563 -0.26304
v 3.11755 1.78530 -0.00000
v 2.69617 1.72186 -0.45200
v 2.86090 1.96225 -0.45173
v 3.02701 2.20934 -0.45563
v 3.20340 2.08952 -0.26484
v 2.47183 1.87448 -0.45600
v 2.63385 2.10967 -0.45719
v 2.79520 2.34955 -0.45985
v 3.19650 2.47464 -0.46040
v 2.45438 2.22264 -0.26893
v 2.60489 2.45171 -0.27265
v 2.63708 2.71089 -0.00000
v 2.69470 2.92622 -0.00000
v 3.89117 2.77011 -0.00000
v 4.02133 2.76905 -0.00000
v 3.98685 2.37711 -0.00000
v 4.36026 2.34144 -0.00000
v 4.31253 2.62891 -0.00000
v 4.37640 2.90087 -0.00000
v 4.32339 2.34416 -0.20052
v 4.35333 2.06028 -0.24085
v 4.21887 2.06606 -0.38856
v 4.23508 2.35088 -0.33357
v 4.06195 2.07657 -0.38551
v 4.11292 2.35833 -0.33228
v 3.92719 2.09425 -0.23142
v 4.02277 2.36548 -0.20479
v 4.08716 2.61697 -0.18644
v 4.02798 2.79211 -0.19307
v 3.87195 2.82345 -0.21926
v 3.70993 2.73933 -0.25147
v 3.54425 2.56361 -0.26781
v 3.37402 2.33504 -0.26630
v 2.29950 1.99032 -0.26530
v 3.87006 2.11359 -0.00000
v 3.74542 1.83712 -0.00000
v 3.82733 1.81510 -0.25490
v 3.72516 1.51328 -0.28050
v 3.61862 1.54750 -0.00000
v 3.99725 1.79368 -0.42855
v 3.92783 1.48699 -0.46706
v 3.62625 1.19161 -0.30749
v 4.19482 1.78222 -0.43752
v 4.17340 1.49183 -0.48132
v 4.37717 1.78774 -0.27302
v 4.40512 1.52835 -0.30000
v 4.44763 1.28603 -0.31889
v 4.54407 1.08141 -0.33207
v 4.57700 1.35220 -0.00000
v 4.65381 1.18604 -0.00000
v 4.76260 1.05687 -0.00000
v 4.70175 0.96372 -0.28985
v 4.91397 0.99236 -0.00000
v 5.11221 1.01013 -0.00000
v 5.12381 0.98023 -0.21076
v 4.90250 0.92590 -0.25245
v 5.17322 0.87552 -0.35061
v 4.90164 0.73921 -0.41039
v 5.23221 0.74957 -0.35030
v 4.93201 0.54713 -0.39761
v 5.28723 0.64689 -0.21742
v 4.98947 0.38976 -0.24841
v 4.62015 0.19994 -0.28621
v 5.02899 0.32029 -0.00000
v 4.23364 0.14509 -0.32246
v 3.84882 0.03019 -0.00000
v 3.52017 0.22413 -0.00000
v 3.56259 0.86340 -0.32974
v 5.45941 1.35504 -0.00000
v 5.30814 1.13990 -0.00000
v 5.47638 1.34434 -0.15425
v 5.32043 1.12777 -0.17288
v 5.53232 1.31179 -0.29038
v 5.38129 1.06939 -0.30651
v 5.64081 1.24587 -0.28914
v 5.46890 0.98568 -0.31306
v 5.70044 1.20389 -0.15716
v 5.52390 0.92069 -0.18062
v 5.72079 1.18837 -0.00000
v 5.54800 0.89340 -0.00000
v 5.32050 0.59973 -0.00000
v 5.72397 1.85128 -0.00000
v 5.73819 1.84650 -0.13240
v 5.61215 1.59144 -0.14200
v 5.78674 1.83281 -0.25378
v 5.66418 1.57029 -0.27340
v 5.88657 1.79852 -0.25807
v 5.77676 1.51658 -0.27370
v 5.93518 1.78244 -0.13627
v 5.83252 1.48686 -0.14329
v 5.85031 1.47706 -0.00000
v 5.78937 2.11468 -0.00000
v 5.73267 2.36879 -0.17969
v 5.80151 2.11273 -0.13670
v 5.82227 2.37980 -0.32086
v 5.85391 2.10617 -0.26122
v 5.94904 2.40115 -0.32743
v 5.95267 2.09708 -0.27336
v 6.04514 2.42009 -0.18789
v 6.01425 2.09673 -0.14839
v 6.09692 2.74292 -0.00000
v 6.02722 2.73517 -0.23572
v 5.99298 3.04332 -0.25561
v 6.08618 3.04858 -0.00000
v 5.89355 2.70174 -0.38159
v 5.82022 3.00156 -0.41616
v 5.73120 3.29553 -0.44936
v 5.95056 3.34652 -0.27366
v 5.74042 2.65596 -0.37795
v 5.63556 2.93038 -0.41559
v 5.61667 2.61271 -0.23243
v 5.48352 2.85004 -0.26132
v 5.40356 2.79441 -0.00000
v 5.97134 3.94614 -0.00000
v 5.86960 4.22041 -0.00000
v 5.81802 3.91003 -0.32251
v 5.66977 4.44434 -0.00000
v 5.88995 3.63930 -0.29557
v 5.61899 3.57515 -0.48067
v 2.65121 3.13337 -0.00000
v 2.47186 3.28945 -0.00000
v 2.48309 3.30589 -0.18656
v 2.18253 3.42672 -0.35726
v 2.51294 3.36463 -0.29858
v 2.55273 3.44295 -0.28892
v 2.58572 3.50457 -0.17527
v 2.84470 3.41821 -0.17535
v 3.10275 3.44203 -0.19945
v 2.85327 3.44757 -0.00000
v 3.09723 3.49436 -0.00000
v 2.25024 4.30720 -0.00000
v 3.67670 3.77315 -0.00000
v 4.05347 3.57543 -0.00000
v 4.57779 3.29085 -0.00000
v 4.79187 3.49117 -0.00000
v 4.77905 4.25944 -0.00000
v 5.01938 4.44057 -0.00000
v 4.68112 3.96489 -0.00000
v 5.03806 3.12480 -0.00000
v 0.01392 2.54388 -0.00000
v 0.00000 2.82114 -0.00000
v 0.21133 2.40779 -0.00000
v 0.42899 2.47949 -0.00000
v 0.04852 3.08725 -0.00000
v 0.12680 3.35732 -0.00000
v 0.67123 3.74227 -0.00000
v 0.63724 3.49718 -0.00000
v 1.50259 4.52107 -0.00000
v 0.89148 4.08959 -0.00000
v 0.73770 3.96416 -0.00000
v 2.04755 3.13129 -0.00000
v 1.89639 2.90088 -0.00000
v 1.01749 2.93641 -0.00000
v 0.95837 2.66131 -0.00000
v 1.29272 1.92603 -0.00000
v 1.14590 1.68925 -0.00000
v 1.21683 0.97202 -0.00000
v 0.78073 1.80832 -0.00000
v 1.43976 2.16491 -0.00000
v 1.36124 0.97049 -0.00000
v 0.86993 0.20259 -0.00000
v 1.37851 0.00000 -0.00000
v 1.62952 1.18909 -0.00000
v 2.41541 0.79846 -0.00000
v 2.06030 1.81645 -0.00000
v 2.94647 1.54601 -0.00000
v 2.36780 2.27756 -0.00000
v 2.51453 2.50161 -0.00000
v 4.06619 2.61283 -0.00000
v 4.41882 2.06387 -0.00000
v 3.76309 2.66625 -0.00000
v 3.62180 2.48219 -0.00000
v 3.45944 2.26394 -0.00000
v 3.28925 2.02716 -0.00000
v 2.21463 2.04678 -0.00000
v 4.52707 1.56191 -0.00000
v 4.64905 0.09302 -0.00000
v 4.23984 0.00705 -0.00000
v 3.38361 0.55253 -0.00000
v 3.40463 0.90218 -0.00000
v 3.49490 1.23502 -0.00000
v 4.47400 1.80216 -0.00000
v 5.59482 1.59919 -0.00000
v 5.95285 1.77700 -0.00000
v 5.69815 2.36717 -0.00000
v 6.08191 2.42565 -0.00000
v 6.03394 2.09605 -0.00000
v 5.55341 2.58304 -0.00000
v 6.02786 3.65739 -0.00000
v 5.33865 4.52208 -0.00000
v 6.06589 3.35966 -0.00000
v 4.66833 3.10451 -0.00000
v 2.59805 3.52578 -0.00000
v 3.32681 3.62209 -0.00000
v 2.42532 3.72089 -0.00000
v 2.37732 3.94997 -0.00000
v 1.88528 4.47686 -0.00000
v 4.25821 3.31549 -0.00000
v 4.75870 3.70275 -0.00000
v 3.62558 3.57215 0.36391
v 3.08652 3.02242 0.46336
v 4.26917 0.81238 0.55706
v 1.61621 4.01650 0.49564
v 2.03711 3.71022 0.48121
v 4.23218 3.00115 0.34671
v 5.10931 3.70076 0.47956
v 4.84930 4.20583 0.26826
v 5.07233 3.24068 0.28003
v 3.84280 3.28164 0.45100
v 1.96527 4.00720 0.48625
v 0.05328 2.57039 0.19653
v 0.40573 2.51644 0.18958
v 3.38690 3.41454 0.38547
v 3.34418 3.56235 0.20096
v 3.66495 3.71964 0.21031
v 4.02161 3.52715 0.23844
v 3.48129 3.18165 0.49282
v 3.60364 2.93656 0.44616
v 3.38278 2.74977 0.45713
v 2.77286 3.23374 0.33654
v 2.81433 3.32772 0.30482
v 3.10953 3.29425 0.37867
v 5.60583 4.35498 0.29418
v 5.72314 4.16461 0.33427
v 5.41586 4.09983 0.49033
v 5.34958 4.36722 0.33538
v 4.22250 0.43361 0.52230
v 3.87085 0.48614 0.51311
v 3.86533 0.80222 0.53472
v 3.87851 1.14812 0.51200
v 4.18057 1.17125 0.52859
v 4.60132 0.70738 0.47282
v 4.58154 0.43467 0.45972
v 1.62079 3.70439 0.51787
v 1.31039 3.67055 0.32445
v 1.29926 3.85859 0.31918
v 1.20673 4.02138 0.27699
v 1.36246 4.18321 0.38160
v 2.28946 3.88587 0.27947
v 2.38422 3.67679 0.22143
v 2.29465 3.56747 0.35199
v 2.14621 4.20690 0.32907
v 1.88028 3.35293 0.44119
v 1.53415 3.42306 0.49143
v 4.23087 2.62867 0.30546
v 4.14908 2.62380 0.30405
v 4.08060 2.86233 0.33165
v 3.84131 2.99636 0.40832
v 4.35623 2.91340 0.17511
v 4.29181 2.63012 0.18132
v 4.60696 3.18361 0.27933
v 4.66074 3.13687 0.19340
v 4.26019 3.27320 0.20436
v 4.58218 3.26994 0.18589
v 5.07565 4.03419 0.46557
v 5.50662 3.83611 0.50857
v 4.91330 3.41153 0.35133
v 4.83441 3.47210 0.22966
v 4.86041 3.71595 0.29182
v 4.81567 3.98003 0.31470
v 5.04974 4.29945 0.32166
v 5.32819 3.06690 0.27227
v 5.33066 3.43383 0.46999
v 5.49799 3.19530 0.44948
v 3.61044 0.29632 0.30482
v 3.55066 0.54990 0.34476
v 3.87509 0.17610 0.34342
v 2.76578 2.94278 0.25060
v 2.67923 3.15378 0.20415
v 2.95084 2.63450 0.46249
v 2.72751 2.68838 0.26655
v 1.82150 4.36051 0.30443
v 0.07684 2.79124 0.24675
v 0.26480 2.73792 0.33418
v 0.22479 2.48538 0.22960
v 0.45395 2.72767 0.24297
v 0.47983 2.99494 0.25657
v 0.31088 3.02005 0.35496
v 0.36392 3.29256 0.34675
v 0.52460 3.25537 0.24624
v 0.13525 3.06106 0.26194
v 0.20114 3.33508 0.24771
v 0.28607 3.60179 0.22396
v 0.43134 3.55305 0.32968
v 0.41159 3.85948 0.19069
v 0.81897 4.28138 0.17650
v 0.58972 4.09678 0.16798
v 0.84927 4.20109 0.27385
v 0.65601 4.04110 0.27156
v 0.51755 3.81116 0.29944
v 0.72015 3.98037 0.17643
v 0.63516 3.75652 0.19986
v 0.58115 3.51064 0.22543
v 1.47473 4.42955 0.25440
v 1.11523 4.40287 0.21072
v 1.10080 4.25297 0.30326
v 1.06189 4.11274 0.22973
v 0.88379 4.10841 0.19154
v 1.25967 3.43875 0.30766
v 1.81342 2.95455 0.26294
v 1.99588 3.19752 0.25062
v 2.22702 3.32943 0.21065
v 1.66293 2.70356 0.25324
v 1.49707 2.77502 0.43273
v 1.64325 3.04797 0.44900
v 1.29773 2.85057 0.44401
v 1.40616 3.12530 0.46977
v 1.11462 2.91169 0.26831
v 1.18936 3.17887 0.28489
v 1.03983 2.63811 0.25340
v 0.96777 2.36210 0.23966
v 1.19992 2.58084 0.41525
v 1.10443 2.31133 0.39230
v 1.00278 2.04043 0.36676
v 0.89392 2.08120 0.22137
v 1.37109 2.51428 0.41015
v 1.24780 2.25658 0.39057
v 1.13162 1.99173 0.36740
v 1.02341 1.72680 0.33721
v 0.90384 1.76757 0.33729
v 1.38339 2.19995 0.23486
v 1.24377 1.94960 0.22002
v 1.11346 1.69978 0.19339
v 1.00021 1.45344 0.17440
v 0.92783 1.46248 0.31168
v 0.96579 1.20864 0.18088
v 1.19821 0.91332 0.22859
v 1.04703 1.01127 0.20590
v 1.13660 0.72798 0.41575
v 0.94781 0.91344 0.37102
v 0.88281 1.18941 0.31636
v 0.81857 0.80804 0.37886
v 0.77026 1.16780 0.33068
v 0.81821 1.48449 0.31405
v 0.68152 1.13972 0.19438
v 0.74701 1.49430 0.18125
v 0.81873 1.79674 0.19710
v 1.52350 2.44999 0.24228
v 1.53137 0.96298 0.25741
v 1.36523 0.89308 0.24176
v 1.60825 0.74999 0.45050
v 1.37042 0.67344 0.43690
v 1.73187 0.47703 0.46654
v 1.37695 0.37047 0.46416
v 1.03043 0.50061 0.43355
v 1.38049 0.11820 0.30647
v 0.92407 0.29715 0.29101
v 0.69110 0.71578 0.24046
v 1.83978 1.30703 0.26586
v 1.69031 1.10894 0.26510
v 1.99234 1.16829 0.45101
v 1.82065 0.93486 0.44991
v 2.19223 0.99660 0.45046
v 1.99408 0.72701 0.45672
v 2.34216 0.86256 0.26092
v 2.13379 0.56310 0.27095
v 1.84003 0.25797 0.29486
v 2.14307 1.75799 0.26345
v 1.98767 1.52877 0.26422
v 2.31107 1.63872 0.45100
v 2.15164 1.40456 0.45125
v 2.53094 1.48288 0.44969
v 2.36462 1.24372 0.44702
v 2.69678 1.36472 0.26022
v 2.52530 1.12077 0.25951
v 2.86395 1.60588 0.26073
v 3.03354 1.84563 0.26304
v 2.69617 1.72186 0.45200
v 2.86090 1.96225 0.45173
v 3.02701 2.20934 0.45563
v 3.20340 2.08952 0.26484
v 2.47183 1.87448 0.45600
v 2.63385 2.10967 0.45719
v 2.79520 2.34955 0.45985
v 3.19650 2.47464 0.46040
v 2.45438 2.22264 0.26893
v 2.60489 2.45171 0.27265
v 4.32339 2.34416 0.20052
v 4.35333 2.06028 0.24085
v 4.21887 2.06606 0.38856
v 4.23508 2.35088 0.33357
v 4.06195 2.07657 0.38551
v 4.11292 2.35833 0.33228
v 3.92719 2.09425 0.23142
v 4.02277 2.36548 0.20479
v 4.08716 2.61697 0.18644
v 4.02798 2.79211 0.19307
v 3.87195 2.82345 0.21926
v 3.70993 2.73933 0.25147
v 3.54425 2.56361 0.26781
v 3.37402 2.33504 0.26630
v 2.29950 1.99032 0.26530
v 3.82733 1.81510 0.25490
v 3.72516 1.51328 0.28050
v 3.99725 1.79368 0.42855
v 3.92783 1.48699 0.46706
v 3.62625 1.19161 0.30749
v 4.19482 1.78222 0.43752
v 4.17340 1.49183 0.48132
v 4.37717 1.78774 0.27302
v 4.40512 1.52835 0.30000
v 4.44763 1.28603 0.31889
v 4.54407 1.08141 0.33207
v 4.70175 0.96372 0.28985
v 5.12381 0.98023 0.21076
v 4.90250 0.92590 0.25245
v 5.17322 0.87552 0.35061
v 4.90164 0.73921 0.41039
v 5.23221 0.74957 0.35030
v 4.93201 0.54713 0.39761
v 5.28723 0.64689 0.21742
v 4.98947 0.38976 0.24841
v 4.62015 0.19994 0.28621
v 4.23364 0.14509 0.32246
v 3.56259 0.86340 0.32974
v 5.47638 1.34434 0.15425
v 5.32043 1.12777 0.17288
v 5.53232 1.31179 0.29038
v 5.38129 1.06939 0.30651
v 5.64081 1.24587 0.28914
v 5.46890 0.98568 0.31306
v 5.70044 1.20389 0.15716
v 5.52390 0.92069 0.18062
v 5.73819 1.84650 0.13240
v 5.61215 1.59144 0.14200
v 5.78674 1.83281 0.25378
v 5.66418 1.57029 0.27340
v 5.88657 1.79852 0.25807
v 5.77676 1.51658 0.27370
v 5.93518 1.78244 0.13627
v 5.83252 1.48686 0.14329
v 5.73267 2.36879 0.17969
v 5.80151 2.11273 0.13670
v 5.82227 2.37980 0.32086
v 5.85391 2.10617 0.26122
v 5.94904 2.40115 0.32743
v 5.95267 2.09708 0.27336
v 6.04514 2.42009 0.18789
v 6.01425 2.09673 0.14839
v 6.02722 2.73517 0.23572
v 5.99298 3.04332 0.25561
v 5.89355 2.70174 0.38159
v 5.82022 3.00156 0.41616
v 5.73120 3.29553 0.44936
v 5.95056 3.34652 0.27366
v 5.74042 2.65596 0.37795
v 5.63556 2.93038 0.41559
v 5.61667 2.61271 0.23243
v 5.48352 2.85004 0.26132
v 5.81802 3.91003 0.32251
v 5.88995 3.63930 0.29557
v 5.61899 3.57515 0.48067
v 2.48309 3.30589 0.18656
v 2.18253 3.42672 0.35726
v 2.51294 3.36463 0.29858
v 2.55273 3.44295 0.28892
v 2.58572 3.50457 0.17527
v 2.84470 3.41821 0.17535
v 3.10275 3.44203 0.19945
vn -0.03222 0.56976 -0.82118
vn -0.25363 0.53851 -0.80354
vn -0.40425 0.80063 -0.44223
vn -0.40516 0.80477 -0.43381
vn 0.42440 0.74328 -0.51713
vn 0.54826 0.64826 -0.52836
vn 0.23748 0.20230 -0.95009
vn -0.27416 0.09762 -0.95672
vn -0.00830 0.11609 -0.99320
vn 0.27657 -0.33288 -0.90150
vn 0.27869 -0.23773 -0.93049
vn -0.08822 0.28704 -0.95385
vn 0.00292 0.57621 -0.81730
vn -0.20860 0.56803 -0.79613
vn 0.23096 0.42106 -0.87714
vn 0.60732 0.39767 -0.68777
vn 0.11715 0.28688 -0.95077
vn 0.00632 0.72706 -0.68654
vn 0.21198 0.10909 -0.97117
vn 0.06452 -0.32564 -0.94329
vn -0.25462 -0.24251 -0.93614
vn -0.31032 0.02684 -0.95025
vn -0.34445 0.14244 -0.92794
vn 0.25567 0.15756 -0.95384
vn 0.26088 0.21827 -0.94037
vn 0.22745 -0.32581 -0.91767
vn -0.19321 0.21265 -0.95784
vn -0.23784 -0.00127 -0.97130
vn -0.75642 0.07985 -0.64920
vn -0.76468 -0.08266 -0.63909
vn 0.24969 0.23759 -0.93873
vn 0.35348 -0.00498 -0.93543
vn -0.43438 -0.17391 -0.88378
vn 0.78495 0.22969 -0.57540
vn 0.73930 0.45461 -0.49676
vn 0.44571 0.13254 -0.88531
vn 0.53410 0.50429 -0.67855
vn 0.31158 -0.31557 -0.89629
vn 0.10017 -0.10863 -0.98902
vn 0.17165 0.18381 -0.96786
vn -0.00910 -0.00462 -0.99995
vn 0.08108 -0.14862 -0.98557
vn 0.14701 -0.46863 -0.87108
vn 0.67565 -0.41134 -0.61180
vn 0.77532 -0.49728 -0.38935
vn 0.94329 -0.03072 -0.33053
vn 0.85910 -0.01919 -0.51145
vn 0.29778 -0.62836 -0.71867
vn 0.33885 -0.80426 -0.48820
vn 0.24394 0.50527 -0.82776
vn -0.44431 0.69132 -0.56979
vn -0.29256 0.60278 -0.74234
vn -0.34157 -0.11290 -0.93305
vn -0.31745 0.18708 -0.92964
vn 0.22682 0.05639 -0.97230
vn -0.41120 -0.13361 -0.90170
vn -0.81205 0.34002 -0.47431
vn -0.82474 -0.10055 -0.55650
vn -0.76192 0.06325 -0.64458
vn -0.75777 0.55055 -0.35025
vn -0.80968 0.58683 0.00712
vn -0.40629 0.91374 0.00368
vn -0.35706 0.65768 -0.66330
vn -0.99989 0.01440 0.00318
vn -0.44126 0.30498 -0.84396
vn -0.19101 -0.69763 -0.69053
vn -0.56446 -0.56601 -0.60085
vn -0.63131 -0.68054 -0.37191
vn -0.21823 -0.97589 0.00316
vn -0.15911 -0.25840 -0.95284
vn -0.22485 -0.26677 -0.93716
vn -0.36571 -0.32055 -0.87379
vn -0.71148 -0.15743 -0.68484
vn -0.24930 -0.70046 -0.66873
vn -0.83572 -0.02774 -0.54845
vn -0.72826 -0.51085 -0.45680
vn -0.57877 -0.43961 -0.68686
vn -0.31152 0.12505 -0.94197
vn -0.76869 0.29965 -0.56509
vn 0.14426 0.73735 -0.65993
vn -0.37378 -0.23115 -0.89825
vn -0.41025 -0.10422 -0.90600
vn -0.97061 0.00696 -0.24056
vn -0.99998 -0.00050 0.00602
vn -0.99572 0.09233 0.00301
vn -0.95527 0.09235 -0.28096
vn -0.50533 -0.82471 -0.25397
vn -0.52695 -0.84988 0.00507
vn 0.92006 -0.31740 -0.22967
vn 0.93689 -0.21574 -0.27511
vn 0.97337 -0.22921 0.00368
vn 0.94205 -0.33539 0.00730
vn 0.31813 -0.34951 -0.88127
vn 0.39067 -0.23440 -0.89019
vn 0.25560 -0.93356 -0.25125
vn 0.26967 -0.96294 0.00426
vn 0.94169 -0.12389 -0.31284
vn 0.99143 -0.13065 0.00007
vn 0.48197 -0.08897 -0.87166
vn 0.52263 -0.06498 -0.85008
vn -0.45225 0.08092 -0.88821
vn -0.48183 0.17280 -0.85906
vn -0.74909 0.35564 -0.55892
vn -0.52545 0.26254 -0.80931
vn -0.90970 0.29499 -0.29227
vn -0.92433 0.21384 -0.31605
vn -0.97424 0.22552 -0.00005
vn -0.95141 0.30794 -0.00020
vn -0.90837 0.41817 -0.00011
vn -0.83270 0.55372 -0.00005
vn -0.72670 0.49148 -0.47996
vn -0.71512 0.69900 -0.00033
vn -0.53796 0.84297 0.00044
vn -0.47647 0.75202 -0.45545
vn -0.64686 0.63476 -0.42268
vn -0.38505 0.61117 -0.69153
vn -0.53365 0.52593 -0.66228
vn -0.56042 0.38911 -0.73111
vn 0.62426 -0.15298 -0.76609
vn 0.54434 -0.40241 -0.73604
vn 0.71816 -0.51352 -0.46962
vn 0.83786 -0.20571 -0.50564
vn 0.56318 -0.07119 -0.82326
vn 0.95601 -0.16177 -0.24468
vn 0.97065 -0.24050 0.00052
vn 0.98594 -0.16712 0.00013
vn 0.98766 -0.15661 0.00005
vn 0.94496 -0.15031 -0.29061
vn -0.28248 0.95927 0.00038
vn -0.00049 1.00000 -0.00008
vn -0.00049 0.94167 -0.33655
vn -0.24940 0.78994 -0.56018
vn -0.08767 0.50278 -0.85996
vn -0.20099 0.57222 -0.79509
vn -0.23381 -0.43713 -0.86847
vn 0.26959 -0.82530 -0.49619
vn 0.17403 -0.58789 -0.79000
vn -0.33069 -0.93343 -0.13915
vn -0.33131 -0.94352 0.00127
vn 0.32681 -0.94509 -0.00034
vn 0.81913 -0.57361 0.00017
vn -0.80359 -0.55098 -0.22510
vn -0.81990 -0.57248 0.00476
vn -0.98960 -0.14377 0.00390
vn -0.91379 0.10436 -0.39255
vn -0.75752 0.15071 -0.63518
vn -0.89645 0.18320 -0.40350
vn 0.71230 -0.70187 -0.00139
vn 0.83587 -0.54893 0.00066
vn 0.70283 -0.46548 -0.53792
vn 0.59921 -0.61946 -0.50716
vn 0.23322 -0.87711 -0.41986
vn 0.29060 -0.95684 -0.00326
vn 0.72168 -0.43920 -0.53506
vn 0.33377 -0.24757 -0.90956
vn 0.34518 -0.25337 -0.90369
vn 0.85432 -0.51974 0.00005
vn 0.02169 -0.09664 -0.99508
vn 0.06769 -0.08683 -0.99392
vn -0.60968 0.14794 -0.77872
vn -0.65238 0.15365 -0.74216
vn -0.80518 0.18792 -0.56247
vn -0.77978 0.17908 -0.59989
vn -0.56231 0.10702 -0.81997
vn -0.97413 0.22598 0.00008
vn -0.90157 0.19913 -0.38407
vn -0.82458 0.19148 -0.53236
vn -0.97442 0.22473 -0.00007
vn -0.84652 0.19730 -0.49445
vn -0.97522 0.22122 0.00002
vn -0.67790 0.15885 -0.71778
vn -0.71176 0.17237 -0.68095
vn -0.76332 0.18470 -0.61905
vn -0.87440 0.20394 -0.44026
vn -0.01778 -0.07835 -0.99677
vn -0.00173 -0.08754 -0.99616
vn -0.03169 -0.08784 -0.99563
vn -0.02431 -0.09036 -0.99561
vn 0.68401 -0.38454 -0.61989
vn 0.64153 -0.36702 -0.67360
vn 0.75507 -0.44056 -0.48557
vn 0.78005 -0.44943 -0.43536
vn 0.82454 -0.43299 -0.36423
vn 0.74936 -0.38040 -0.54200
vn 0.90705 -0.27533 -0.31852
vn 0.83249 -0.24474 -0.49705
vn 0.86158 -0.50763 -0.00024
vn 0.87966 -0.47560 0.00001
vn 0.95482 -0.29719 0.00012
vn 0.98937 0.14544 -0.00060
vn 0.92728 0.12808 -0.35179
vn 0.73026 0.68317 0.00061
vn 0.27307 0.96200 0.00012
vn 0.25200 0.82797 -0.50096
vn 0.66898 0.60354 -0.43383
vn 0.08056 0.41585 -0.90586
vn 0.58001 0.49900 -0.64389
vn 0.82863 0.10671 -0.54953
vn 0.04969 0.09635 -0.99411
vn -0.02969 0.15535 -0.98741
vn 0.03370 -0.03140 -0.99894
vn -0.84731 0.17950 -0.49985
vn -0.82889 0.08711 -0.55259
vn -0.92183 0.09464 -0.37586
vn -0.91998 0.19116 -0.34218
vn -0.90240 0.20536 -0.37882
vn -0.81691 0.19191 -0.54389
vn -0.97973 0.20035 -0.00007
vn -0.97645 0.21575 -0.00008
vn -0.97540 0.22044 0.00006
vn 0.86036 -0.50969 0.00010
vn 0.86020 -0.50996 -0.00002
vn 0.73872 -0.43500 -0.51484
vn 0.61930 -0.36160 -0.69693
vn -0.19894 0.98001 -0.00031
vn -0.58637 0.81004 -0.00009
vn -0.47876 0.68356 -0.55093
vn -0.15734 0.82450 -0.54354
vn -0.21276 0.31959 -0.92336
vn -0.08958 0.38629 -0.91802
vn 0.15236 -0.22845 -0.96156
vn -0.04894 -0.22973 -0.97202
vn -0.25994 -0.13642 -0.95594
vn -0.03971 -0.76326 -0.64487
vn -0.55977 -0.56182 -0.60911
vn -0.85413 -0.17703 -0.48901
vn -0.70699 -0.12503 -0.69609
vn -0.67982 -0.73338 0.00050
vn -0.97451 -0.22432 0.00015
vn -0.99503 0.09960 -0.00016
vn -0.03900 -0.92989 -0.36577
vn -0.76158 0.64807 -0.00069
vn -0.76571 0.53865 -0.35148
vn -0.67550 0.47598 -0.56316
vn -0.62520 0.54312 -0.56049
vn -0.54688 0.38626 -0.74278
vn -0.26810 0.24816 -0.93088
vn 0.00296 0.00595 -0.99998
vn -0.00946 0.02475 -0.99965
vn 0.51527 -0.40309 -0.75632
vn 0.56199 -0.38458 -0.73230
vn 0.68407 -0.47411 -0.55431
vn 0.64515 -0.51147 -0.56761
vn 0.42766 -0.66492 -0.61237
vn 0.78079 -0.62479 -0.00003
vn 0.53309 -0.84606 -0.00019
vn 0.81941 -0.57321 -0.00005
vn -0.77546 0.52162 -0.35577
vn -0.77462 0.52139 -0.35793
vn -0.68571 0.46075 -0.56347
vn -0.68488 0.46238 -0.56315
vn -0.55990 0.37531 -0.73869
vn -0.55682 0.37784 -0.73972
vn 0.00853 -0.00512 -0.99995
vn 0.00350 -0.01262 -0.99991
vn 0.55921 -0.39123 -0.73091
vn 0.55729 -0.39246 -0.73171
vn 0.67811 -0.47736 -0.55883
vn 0.67928 -0.47869 -0.55627
vn 0.76387 -0.53759 -0.35707
vn 0.76364 -0.54099 -0.35239
vn 0.67613 -0.47640 -0.56204
vn 0.76091 -0.53819 -0.36245
vn 0.67253 -0.47462 -0.56784
vn 0.75878 -0.53812 -0.36697
vn 0.55697 -0.39040 -0.73306
vn 0.55143 -0.38652 -0.73927
vn 0.54645 -0.37781 -0.74743
vn 0.66978 -0.46901 -0.57569
vn 0.01118 -0.01531 -0.99982
vn 0.00716 -0.01362 -0.99988
vn 0.00625 -0.01745 -0.99983
vn 0.28715 -0.20073 -0.93662
vn -0.56687 0.33637 -0.75201
vn -0.55646 0.36454 -0.74663
vn -0.68837 0.45170 -0.56755
vn -0.70692 0.42371 -0.56634
vn -0.78099 0.51308 -0.35609
vn -0.85622 0.51660 0.00044
vn -0.93578 0.35259 -0.00108
vn -0.99947 -0.03256 -0.00285
vn 0.99911 -0.04214 0.00001
vn 0.98767 0.15655 -0.00025
vn 0.91766 0.13409 -0.37405
vn 0.97460 -0.22394 0.00015
vn 0.87116 0.13976 -0.47069
vn 0.74493 0.11277 -0.65754
vn 0.82696 0.10993 -0.55141
vn 0.98571 0.16846 -0.00044
vn -0.00839 0.14659 -0.98916
vn -0.01230 0.17539 -0.98442
vn -0.79062 0.24677 -0.56039
vn -0.71603 0.27958 -0.63964
vn -0.82561 0.33264 -0.45577
vn -0.87821 0.29299 -0.37802
vn -0.94731 -0.02635 -0.31924
vn -0.86367 -0.04373 -0.50216
vn -0.94269 0.33366 -0.00048
vn -0.99998 -0.00673 0.00025
vn -0.95403 -0.29970 0.00141
vn -0.91040 -0.30363 -0.28103
vn -0.83582 -0.29681 -0.46185
vn -0.12528 -0.91616 -0.38072
vn -0.08878 -0.99604 -0.00495
vn 0.25121 -0.96792 -0.00410
vn 0.17823 -0.86408 -0.47074
vn -0.15264 -0.81151 -0.56405
vn 0.67515 -0.73768 -0.00177
vn 0.54451 -0.63366 -0.54952
vn 0.72935 -0.57494 -0.37081
vn 0.63272 -0.50471 -0.58731
vn 0.74790 -0.54373 -0.38079
vn 0.65853 -0.46969 -0.58799
vn 0.75760 -0.53534 -0.37343
vn -0.77721 0.51740 -0.35810
vn -0.68779 0.45657 -0.56435
vn -0.56106 0.37097 -0.73999
vn -0.92425 0.38178 -0.00014
vn -0.79464 0.32332 -0.51382
vn -0.92500 0.37998 -0.00024
vn -0.77183 0.29469 -0.56342
vn -0.93248 0.36122 -0.00012
vn -0.37812 0.22663 -0.89759
vn -0.36553 0.20231 -0.90855
vn -0.75703 0.22529 -0.61331
vn -0.03498 0.15368 -0.98750
vn 0.29489 0.14513 -0.94444
vn 0.66874 0.10532 -0.73600
vn 0.82368 0.13825 -0.54995
vn 0.78307 0.16270 -0.60028
vn 0.73104 0.25684 -0.63215
vn 0.63069 0.43562 -0.64223
vn 0.90662 0.18602 -0.37874
vn 0.86440 0.30091 -0.40282
vn 0.74940 0.52737 -0.40035
vn 0.52970 0.84819 0.00106
vn 0.41811 0.67001 -0.61341
vn 0.08475 0.99640 0.00082
vn -0.36840 0.92967 -0.00132
vn -0.34065 0.83859 -0.42511
vn 0.05930 0.84454 -0.53220
vn -0.29174 0.70027 -0.65154
vn 0.11787 0.33827 -0.93364
vn 0.13203 0.05600 -0.98966
vn 0.31924 -0.29563 -0.90038
vn 0.57032 -0.52239 -0.63392
vn 0.65572 -0.60457 -0.45225
vn 0.50923 -0.67613 -0.53248
vn 0.29690 -0.74568 -0.59650
vn 0.59495 -0.80376 -0.00042
vn 0.35168 -0.93612 -0.00006
vn 0.06110 -0.92028 -0.38647
vn 0.05882 -0.76737 -0.63850
vn -0.25861 -0.88804 -0.38015
vn -0.69851 -0.60161 -0.38749
vn -0.89958 -0.13314 -0.41597
vn -0.89101 0.13738 -0.43269
vn -0.74627 0.10086 -0.65796
vn -0.87197 0.26934 -0.40881
vn 0.98488 0.17326 0.00009
vn -0.70094 0.71322 0.00032
vn -0.84464 0.53534 0.00005
vn -0.80833 0.51322 -0.28847
vn -0.65815 0.67350 -0.33651
vn -0.75508 0.48005 -0.44655
vn -0.58856 0.60458 -0.53674
vn 0.05472 0.08235 -0.99510
vn 0.02482 0.05596 -0.99812
vn 0.69398 -0.47427 -0.54173
vn 0.77994 -0.40274 -0.47906
vn 0.83923 -0.43601 -0.32494
vn 0.76305 -0.52545 -0.37638
vn 0.88628 -0.46315 -0.00004
vn 0.82217 -0.56925 0.00003
vn 0.73358 -0.67960 0.00000
vn -0.88338 0.46865 -0.00002
vn -0.93840 0.34555 0.00001
vn -0.90867 0.33247 -0.25257
vn -0.85160 0.45261 -0.26442
vn -0.86626 0.31491 -0.38784
vn -0.80991 0.43143 -0.39739
vn 0.01607 0.05465 -0.99838
vn -0.04311 0.02248 -0.99882
vn 0.83661 -0.33482 -0.43357
vn 0.87290 -0.26416 -0.41019
vn 0.92078 -0.27672 -0.27495
vn 0.88859 -0.35424 -0.29142
vn 0.95818 -0.28616 0.00000
vn 0.92939 -0.36911 0.00002
vn -0.99926 -0.03841 0.00006
vn -0.91023 -0.41409 -0.00091
vn -0.85579 -0.37233 -0.35916
vn -0.95961 -0.03271 -0.27943
vn -0.78650 -0.32563 -0.52477
vn -0.90277 -0.02425 -0.42944
vn -0.08517 -0.11000 -0.99028
vn -0.03691 -0.19421 -0.98027
vn 0.87506 -0.16774 -0.45402
vn 0.82610 -0.05638 -0.56069
vn 0.91975 -0.06541 -0.38703
vn 0.93578 -0.17923 -0.30363
vn 0.99739 -0.07220 0.00016
vn 0.98200 -0.18891 0.00013
vn 0.87470 0.02453 -0.48404
vn 0.99972 0.02376 -0.00007
vn 0.82852 0.07256 -0.55524
vn 0.99710 0.07615 0.00001
vn 0.74426 0.02636 -0.66737
vn 0.37696 -0.02251 -0.92596
vn 0.33811 -0.00367 -0.94110
vn 0.78791 0.10186 -0.60730
vn 0.01666 -0.15241 -0.98818
vn -0.28457 -0.26429 -0.92151
vn -0.65608 -0.38502 -0.64908
vn -0.75335 -0.45800 -0.47191
vn -0.68537 -0.47780 -0.54953
vn -0.84682 -0.53188 -0.00052
vn -0.81571 -0.57846 0.00024
vn 0.79799 0.44724 -0.40396
vn 0.86805 0.24422 -0.43226
vn 0.70744 0.19754 -0.67860
vn 0.47192 0.79016 -0.39109
vn -0.02996 0.91644 -0.39905
vn 0.89350 0.15834 -0.42023
vn 0.74912 0.13178 -0.64919
vn 0.28902 0.00455 -0.95731
vn 0.91526 0.11000 -0.38756
vn 0.57913 -0.81524 0.00049
vn 0.36514 -0.93095 0.00276
vn -0.83700 -0.54720 -0.00162
vn -0.35255 -0.93579 -0.00149
vn -0.32102 -0.87229 -0.36885
vn 0.23136 -0.48760 -0.84185
vn -0.27743 -0.77847 -0.56305
vn 0.09387 0.09293 -0.99124
vn 0.40329 0.68766 -0.60372
vn 0.46993 0.78418 -0.40524
vn 0.08994 0.91374 -0.39622
vn -0.26731 0.85984 -0.43500
vn 0.52354 0.85200 -0.00030
vn 0.08053 0.99675 -0.00054
vn -0.31171 0.95018 -0.00045
vn -0.44429 0.89588 0.00091
vn 0.86304 0.50514 0.00037
vn 0.95092 0.30943 0.00067
vn 0.87496 0.32156 -0.36200
vn 0.37879 0.83990 -0.38869
vn 0.25198 0.89059 -0.37862
vn -0.42147 0.90684 0.00143
vn 0.46225 0.88675 0.00012
vn 0.62580 0.77999 -0.00094
vn 0.76374 0.64552 -0.00196
vn 0.74973 0.63730 -0.17821
vn 0.04808 0.99884 -0.00017
vn 0.04594 0.98659 -0.15659
vn -0.66204 0.74947 0.00193
vn -0.99827 -0.05856 0.00583
vn -0.98879 -0.14927 0.00289
vn -0.40176 0.80332 0.43963
vn -0.40208 0.79971 0.44587
vn -0.24413 0.53483 0.80893
vn -0.03969 0.56548 0.82380
vn 0.23024 0.19617 0.95316
vn 0.53788 0.65321 0.53292
vn 0.39694 0.75133 0.52720
vn 0.26971 -0.23612 0.93354
vn 0.26388 -0.32983 0.90641
vn -0.00859 0.11250 0.99361
vn -0.26270 0.08802 0.96085
vn -0.20056 0.56305 0.80172
vn 0.01028 0.57186 0.82029
vn -0.07813 0.27998 0.95682
vn 0.01000 0.73879 0.67386
vn 0.12385 0.29786 0.94654
vn 0.60904 0.40786 0.68023
vn 0.40755 0.71122 0.57277
vn -0.31048 0.02806 0.95017
vn -0.26797 -0.25257 0.92973
vn 0.06578 -0.32630 0.94298
vn 0.20651 0.10404 0.97290
vn 0.25364 0.15557 0.95471
vn -0.34420 0.14520 0.92760
vn 0.22975 -0.32515 0.91733
vn 0.25212 0.21006 0.94462
vn -0.75762 -0.08923 0.64657
vn -0.75404 0.07940 0.65201
vn -0.23607 -0.00291 0.97173
vn -0.18613 0.20563 0.96077
vn 0.34414 0.00083 0.93892
vn 0.25604 0.22617 0.93984
vn -0.43939 -0.18121 0.87983
vn 0.44444 0.13687 0.88529
vn 0.73202 0.46280 0.49997
vn 0.77355 0.24627 0.58393
vn 0.53919 0.49722 0.67974
vn 0.09589 -0.11242 0.98902
vn 0.31622 -0.31790 0.89384
vn 0.07635 -0.16113 0.98398
vn -0.00822 -0.00425 0.99996
vn 0.15225 0.17029 0.97356
vn 0.13712 -0.46363 0.87535
vn 0.85404 -0.00407 0.52019
vn 0.94176 -0.02364 0.33547
vn 0.77547 -0.49214 0.39552
vn 0.67287 -0.39985 0.62239
vn 0.32354 -0.81183 0.48605
vn 0.25800 -0.65086 0.71401
vn -0.32438 0.58261 0.74521
vn -0.46292 0.67632 0.57297
vn 0.21273 0.49557 0.84212
vn 0.22545 0.05568 0.97266
vn -0.32902 0.19319 0.92435
vn -0.32847 -0.09769 0.93945
vn -0.81856 -0.08059 0.56874
vn -0.79521 0.35977 0.48807
vn -0.40833 -0.12325 0.90448
vn -0.76784 0.07260 0.63651
vn -0.36590 0.65782 0.65832
vn -0.68309 0.48969 0.54183
vn -0.63110 -0.68047 0.37239
vn -0.55942 -0.57162 0.60024
vn -0.19060 -0.70013 0.68811
vn -0.21972 -0.27364 0.93640
vn -0.14689 -0.25810 0.95489
vn -0.26172 -0.70585 0.65824
vn -0.72361 -0.16412 0.67041
vn -0.62874 -0.53413 0.56514
vn -0.53719 -0.46228 0.70550
vn -0.71257 -0.52206 0.46872
vn -0.82665 -0.03473 0.56164
vn -0.76662 0.30167 0.56683
vn -0.30801 0.12544 0.94308
vn 0.14789 0.73302 0.66394
vn -0.39231 -0.23533 0.88922
vn -0.41992 -0.10576 0.90138
vn -0.95422 0.08470 0.28685
vn -0.96763 -0.00793 0.25223
vn -0.51263 -0.81709 0.26376
vn 0.93267 -0.22450 0.28237
vn 0.91038 -0.33428 0.24386
vn 0.39906 -0.23808 0.88547
vn 0.33245 -0.35812 0.87249
vn 0.26586 -0.92843 0.25948
vn 0.94160 -0.12429 0.31297
vn 0.48272 -0.08830 0.87131
vn 0.52204 -0.06518 0.85043
vn -0.45282 0.08114 0.88790
vn -0.48134 0.17288 0.85932
vn -0.52172 0.26562 0.81071
vn -0.74733 0.35780 0.55989
vn -0.92430 0.21408 0.31596
vn -0.91014 0.29404 0.29186
vn -0.72623 0.49280 0.47931
vn -0.64862 0.63391 0.42125
vn -0.48135 0.74638 0.45959
vn -0.53687 0.52502 0.66040
vn -0.39112 0.60032 0.69760
vn -0.56048 0.39067 0.73024
vn 0.83522 -0.20904 0.50863
vn 0.71492 -0.51769 0.46999
vn 0.53978 -0.40836 0.73613
vn 0.61901 -0.15546 0.76985
vn 0.56466 -0.07002 0.82234
vn 0.95586 -0.16230 0.24492
vn 0.94508 -0.14938 0.29071
vn -0.25202 0.78573 0.56490
vn -0.00043 0.94175 0.33631
vn -0.20378 0.56269 0.80116
vn -0.08797 0.50441 0.85897
vn -0.24130 -0.42321 0.87331
vn 0.18012 -0.57194 0.80028
vn 0.27349 -0.81983 0.50308
vn -0.32539 -0.93495 0.14137
vn -0.79236 -0.56336 0.23406
vn -0.91341 0.10274 0.39387
vn -0.89660 0.18270 0.40339
vn -0.75863 0.14983 0.63406
vn 0.60674 -0.61600 0.50241
vn 0.70277 -0.46607 0.53749
vn 0.24346 -0.87515 0.41814
vn 0.34486 -0.25562 0.90318
vn 0.33404 -0.24756 0.90946
vn 0.72188 -0.43897 0.53497
vn 0.06566 -0.08959 0.99381
vn 0.02203 -0.09642 0.99510
vn -0.78078 0.17886 0.59865
vn -0.80469 0.18876 0.56289
vn -0.65140 0.15507 0.74272
vn -0.61217 0.14756 0.77684
vn -0.56482 0.10594 0.81839
vn -0.90161 0.19922 0.38395
vn -0.82468 0.19123 0.53230
vn -0.84627 0.19839 0.49444
vn -0.67802 0.15840 0.71777
vn -0.71159 0.17325 0.68090
vn -0.87404 0.20558 0.44022
vn -0.76259 0.18829 0.61887
vn -0.01771 -0.07815 0.99678
vn -0.00186 -0.08775 0.99614
vn -0.03176 -0.08813 0.99560
vn -0.02402 -0.09099 0.99556
vn 0.77949 -0.45048 0.43526
vn 0.75444 -0.44185 0.48538
vn 0.64078 -0.36887 0.67331
vn 0.68391 -0.38440 0.62008
vn 0.74977 -0.38037 0.54145
vn 0.82454 -0.43322 0.36395
vn 0.83198 -0.24631 0.49714
vn 0.90696 -0.27548 0.31863
vn 0.92799 0.13143 0.34866
vn 0.67008 0.60164 0.43477
vn 0.25209 0.82620 0.50382
vn 0.58123 0.49629 0.64488
vn 0.07941 0.41259 0.90745
vn 0.83101 0.11162 0.54495
vn 0.03976 0.09233 0.99493
vn -0.03684 0.14715 0.98843
vn 0.03043 -0.03110 0.99905
vn -0.91966 0.19100 0.34313
vn -0.92070 0.09640 0.37817
vn -0.82549 0.09144 0.55696
vn -0.84639 0.17860 0.50172
vn -0.81640 0.19249 0.54446
vn -0.90230 0.20536 0.37906
vn 0.73870 -0.43495 0.51492
vn 0.61919 -0.36181 0.69692
vn -0.15672 0.82469 0.54344
vn -0.47874 0.68277 0.55193
vn -0.08800 0.38480 0.91880
vn -0.21210 0.31686 0.92445
vn -0.04795 -0.23418 0.97101
vn 0.15245 -0.23027 0.96111
vn -0.26142 -0.14036 0.95496
vn -0.56024 -0.56365 0.60699
vn -0.03958 -0.76539 0.64235
vn -0.70548 -0.12349 0.69789
vn -0.85365 -0.17622 0.49012
vn -0.03909 -0.92994 0.36563
vn -0.62630 0.54370 0.55870
vn -0.67548 0.47601 0.56316
vn -0.76561 0.53862 0.35176
vn -0.26901 0.24960 0.93023
vn -0.54704 0.38641 0.74258
vn -0.00952 0.02555 0.99963
vn 0.00354 0.00545 0.99998
vn 0.64487 -0.51097 0.56837
vn 0.68421 -0.47433 0.55395
vn 0.56239 -0.38500 0.73178
vn 0.51442 -0.40181 0.75758
vn 0.42740 -0.66517 0.61228
vn -0.68487 0.46238 0.56316
vn -0.68570 0.46075 0.56349
vn -0.77462 0.52139 0.35794
vn -0.77546 0.52162 0.35577
vn -0.55680 0.37783 0.73974
vn -0.55988 0.37531 0.73870
vn 0.00826 -0.00503 0.99995
vn 0.00338 -0.01259 0.99992
vn 0.67931 -0.47872 0.55620
vn 0.67812 -0.47736 0.55882
vn 0.55731 -0.39246 0.73170
vn 0.55930 -0.39129 0.73080
vn 0.76364 -0.54100 0.35238
vn 0.76388 -0.53758 0.35707
vn 0.76092 -0.53818 0.36245
vn 0.67615 -0.47640 0.56202
vn 0.75877 -0.53814 0.36697
vn 0.67254 -0.47463 0.56782
vn 0.55701 -0.39040 0.73303
vn 0.55145 -0.38654 0.73925
vn 0.66977 -0.46911 0.57563
vn 0.54648 -0.37807 0.74727
vn 0.01123 -0.01535 0.99982
vn 0.00713 -0.01362 0.99988
vn 0.00625 -0.01763 0.99983
vn 0.28764 -0.20182 0.93623
vn -0.70663 0.42339 0.56693
vn -0.68832 0.45167 0.56764
vn -0.55630 0.36448 0.74679
vn -0.56645 0.33624 0.75238
vn -0.78101 0.51307 0.35607
vn 0.91753 0.13378 0.37448
vn 0.82659 0.10703 0.55253
vn 0.74560 0.11149 0.65700
vn 0.87110 0.14237 0.47001
vn -0.00819 0.14564 0.98930
vn -0.01222 0.17609 0.98430
vn -0.87735 0.29546 0.37810
vn -0.82461 0.33594 0.45515
vn -0.71434 0.28573 0.63880
vn -0.78954 0.24807 0.56133
vn -0.86251 -0.04680 0.50386
vn -0.94684 -0.02692 0.32058
vn -0.91001 -0.30298 0.28299
vn -0.83538 -0.29633 0.46296
vn 0.17832 -0.85735 0.48286
vn -0.12646 -0.90887 0.39744
vn -0.16291 -0.78238 0.60112
vn 0.54410 -0.63018 0.55393
vn 0.63244 -0.50422 0.58803
vn 0.73048 -0.57398 0.37006
vn 0.65882 -0.47014 0.58730
vn 0.74791 -0.54369 0.38084
vn 0.75759 -0.53531 0.37350
vn -0.68776 0.45656 0.56440
vn -0.77722 0.51739 0.35810
vn -0.56097 0.37095 0.74007
vn -0.79468 0.32355 0.51361
vn -0.77134 0.29661 0.56308
vn -0.37815 0.22687 0.89751
vn -0.36572 0.20263 0.90840
vn -0.75670 0.22812 0.61267
vn 0.29479 0.14369 0.94470
vn -0.03524 0.15377 0.98748
vn 0.78301 0.16046 0.60095
vn 0.82327 0.13922 0.55031
vn 0.66810 0.10606 0.73647
vn 0.72944 0.25478 0.63483
vn 0.62701 0.42991 0.64965
vn 0.86406 0.30016 0.40411
vn 0.90659 0.18380 0.37988
vn 0.75280 0.52409 0.39827
vn 0.40954 0.66461 0.62496
vn 0.05677 0.84510 0.53158
vn -0.33677 0.84203 0.42140
vn 0.11608 0.34094 0.93289
vn -0.28756 0.70633 0.64684
vn 0.31996 -0.29406 0.90064
vn 0.13578 0.05706 0.98909
vn 0.50860 -0.67694 0.53205
vn 0.65516 -0.60477 0.45279
vn 0.56879 -0.52297 0.63480
vn 0.29782 -0.74501 0.59688
vn 0.05883 -0.76739 0.63847
vn 0.06202 -0.91997 0.38705
vn -0.26012 -0.88608 0.38367
vn -0.70460 -0.59596 0.38518
vn -0.90293 -0.12941 0.40984
vn -0.74628 0.10204 0.65776
vn -0.89131 0.13657 0.43235
vn -0.87201 0.26964 0.40853
vn -0.65924 0.67172 0.33792
vn -0.80857 0.51324 0.28777
vn -0.58870 0.60258 0.53882
vn -0.75553 0.48065 0.44515
vn 0.05794 0.07860 0.99522
vn 0.02614 0.05549 0.99812
vn 0.76360 -0.52428 0.37690
vn 0.83920 -0.43621 0.32475
vn 0.78005 -0.40284 0.47878
vn 0.69435 -0.47264 0.54266
vn -0.85155 0.45265 0.26451
vn -0.90861 0.33267 0.25252
vn -0.80988 0.43128 0.39760
vn -0.86626 0.31506 0.38773
vn 0.01605 0.05541 0.99833
vn -0.04188 0.02262 0.99887
vn 0.88857 -0.35429 0.29141
vn 0.92088 -0.27690 0.27444
vn 0.87326 -0.26448 0.40923
vn 0.83653 -0.33508 0.43351
vn -0.95951 -0.02775 0.28032
vn -0.85581 -0.37310 0.35831
vn -0.90209 -0.01897 0.43113
vn -0.78703 -0.32488 0.52444
vn -0.08112 -0.10768 0.99087
vn -0.03469 -0.19258 0.98067
vn 0.93511 -0.18183 0.30415
vn 0.91903 -0.06790 0.38829
vn 0.82430 -0.06349 0.56258
vn 0.87403 -0.17102 0.45477
vn 0.87449 0.02539 0.48438
vn 0.82864 0.07124 0.55523
vn 0.74358 0.02527 0.66816
vn 0.37706 -0.02230 0.92592
vn 0.78787 0.10202 0.60733
vn 0.33837 -0.00455 0.94100
vn -0.28450 -0.26300 0.92189
vn 0.01629 -0.15289 0.98811
vn -0.68594 -0.47611 0.55028
vn -0.75245 -0.46046 0.47095
vn -0.65637 -0.38588 0.64828
vn 0.70772 0.19623 0.67869
vn 0.86808 0.24485 0.43183
vn 0.79377 0.45018 0.40899
vn 0.46153 0.79710 0.38937
vn -0.03554 0.91933 0.39187
vn 0.74899 0.13313 0.64907
vn 0.89336 0.15976 0.41997
vn 0.28781 0.00542 0.95767
vn 0.91519 0.10990 0.38774
vn -0.31613 -0.87234 0.37293
vn -0.26915 -0.77513 0.57160
vn 0.24194 -0.48700 0.83922
vn 0.10369 0.08862 0.99065
vn 0.47850 0.78012 0.40305
vn 0.41472 0.68378 0.60037
vn 0.09048 0.91330 0.39711
vn -0.26560 0.85920 0.43731
vn 0.87443 0.32343 0.36160
vn 0.25121 0.89083 0.37856
vn 0.37969 0.83999 0.38763
vn 0.75383 0.63352 0.17435
vn 0.04903 0.98650 0.15625
f 1//1 14//2 15//3 16//4
f 1//1 16//5 17//6 10//7
f 2//8 18//9 19//10 20//11
f 2//8 21//12 22//13 23//14
f 2//8 23//14 14//2 18//9
f 24//15 25//16 26//17 27//18
f 3//19 28//20 29//21 30//22
f 3//19 30//22 31//23 32//24
f 3//19 33//25 34//26 28//20
f 4//27 35//28 36//29 37//30
f 4//27 11//31 5//32 35//28
f 4//27 37//30 38//33 39//33
f 5//32 40//34 41//35 42//36
f 5//32 11//31 43//37 40//34
f 5//32 44//38 45//39 35//28
f 6//40 46//41 47//41 48//42
f 6//40 48//42 49//43 10//7
f 6//44 50//45 51//46 46//47
f 6//44 52//48 53//49 50//45
f 6//40 54//50 55//51 52//52
f 6//40 10//7 17//6 54//50
f 7//53 56//54 26//17 57//55
f 7//53 58//56 59//57 60//58
f 7//53 60//58 61//59 56//54
f 8//60 337//61 338//62 62//63
f 8//60 61//59 339//64 337//61
f 8//65 62//63 56//54 61//59
f 9//66 64//67 63//68 340//69
f 9//66 65//70 66//71 64//67
f 9//66 58//56 7//53 65//70
f 10//7 49//43 19//10 18//9
f 10//7 18//9 14//2 1//1
f 67//72 68//73 29//21 69//74
f 2//8 70//75 71//76 21//77
f 2//8 72//78 73//79 70//75
f 11//31 4//27 74//80 43//37
f 12//81 75//82 76//82 77//81
f 12//83 341//84 342//85 75//86
f 12//87 77//87 343//88 341//88
f 13//89 79//90 78//91 344//92
f 13//93 77//93 76//94 79//94
f 13//95 344//96 343//96 77//95
f 79//90 80//97 81//98 78//91
f 79//94 76//94 82//99 80//99
f 82//99 83//100 84//100 80//99
f 82//101 76//82 75//82 85//101
f 82//101 85//101 86//102 83//102
f 86//102 87//103 88//104 83//102
f 86//105 85//106 345//107 346//108
f 86//105 346//108 89//109 87//103
f 89//109 90//110 91//111 87//103
f 92//112 93//113 94//114 95//115
f 92//112 95//115 91//111 90//110
f 95//115 94//114 96//116 97//117
f 95//115 97//117 98//118 91//111
f 98//119 97//120 99//121 100//122
f 98//119 100//122 101//123 88//123
f 98//118 88//104 87//103 91//111
f 101//124 100//122 347//125 348//126
f 101//124 348//126 102//127 84//128
f 101//123 84//100 83//100 88//123
f 102//127 81//98 80//97 84//128
f 103//129 349//130 104//131 105//132
f 103//129 105//132 94//114 93//113
f 105//132 104//133 39//133 106//134
f 105//132 106//134 96//116 94//114
f 106//135 39//33 38//33 107//135
f 106//135 107//135 108//136 96//137
f 108//136 107//138 109//139 350//140
f 108//136 350//140 351//141 99//121
f 108//136 99//121 97//120 96//137
f 109//139 107//138 38//142 110//143
f 110//143 38//142 37//30 111//144
f 111//144 37//30 36//29 112//145
f 112//145 36//29 113//146 114//147
f 352//148 353//149 118//150 119//151
f 352//148 119//151 120//152 117//153
f 118//150 121//154 122//155 123//156
f 118//150 123//156 44//38 119//151
f 118//150 353//149 116//157 121//154
f 123//156 122//155 124//158 125//159
f 123//156 125//159 45//39 44//38
f 125//160 124//161 126//162 127//163
f 125//160 127//163 113//146 45//164
f 127//163 126//162 354//165 115//166
f 127//163 115//166 114//147 113//146
f 354//165 126//162 128//167 355//168
f 128//167 129//169 130//170 355//168
f 128//167 126//162 124//161 131//171
f 128//167 131//171 132//172 129//169
f 132//172 133//173 134//174 129//169
f 132//175 131//176 135//176 136//175
f 132//175 136//175 137//177 133//177
f 137//177 138//178 139//178 133//177
f 137//179 136//180 140//181 141//182
f 137//179 141//182 142//183 138//184
f 142//183 143//185 144//186 138//184
f 142//183 141//182 356//187 357//188
f 142//183 357//188 145//189 143//185
f 145//189 146//190 147//191 143//185
f 148//192 358//193 149//194 150//195
f 148//192 150//195 147//191 146//190
f 150//195 149//194 151//196 152//197
f 150//195 152//197 153//198 147//191
f 153//199 152//200 154//200 155//199
f 153//199 155//199 156//201 144//201
f 153//198 144//186 143//185 147//191
f 156//202 155//203 157//204 158//205
f 156//202 158//205 159//206 139//207
f 156//201 139//178 138//178 144//201
f 159//206 158//205 160//208 359//209
f 159//206 359//209 161//210 134//174
f 159//206 134//174 133//173 139//207
f 161//210 130//170 129//169 134//174
f 162//211 360//212 140//181 163//213
f 162//211 163//213 121//154 116//157
f 163//213 140//181 136//180 135//214
f 163//213 135//214 122//155 121//154
f 360//212 356//187 141//182 140//181
f 361//215 164//216 165//217 166//218
f 361//215 166//218 149//194 358//193
f 166//218 165//217 167//219 168//220
f 166//218 168//220 151//196 149//194
f 168//220 167//219 169//221 170//222
f 168//220 170//222 171//223 151//196
f 171//223 170//222 172//224 173//225
f 171//223 173//225 174//226 154//227
f 171//223 154//200 152//200 151//196
f 174//226 173//225 362//228 175//229
f 174//226 175//229 176//230 157//204
f 174//226 157//204 155//203 154//227
f 176//230 160//208 158//205 157//204
f 362//228 173//225 172//224 363//231
f 364//232 178//233 179//234 180//235
f 364//232 180//235 165//217 164//216
f 180//235 179//234 181//236 182//237
f 180//235 182//237 167//219 165//217
f 182//237 181//238 183//238 184//239
f 182//237 184//239 169//221 167//219
f 184//240 183//241 185//242 186//243
f 184//240 186//243 187//244 169//221
f 187//244 186//243 188//245 177//246
f 187//244 177//246 363//231 172//224
f 187//244 172//224 170//222 169//221
f 188//245 186//243 185//242 365//247
f 190//248 366//249 191//250 192//251
f 190//248 192//251 179//234 178//233
f 192//251 191//250 193//252 194//253
f 192//251 194//253 181//236 179//234
f 194//254 193//255 195//255 196//254
f 194//254 196//254 183//238 181//238
f 196//256 195//257 197//258 198//259
f 196//256 198//259 185//242 183//241
f 198//259 197//258 199//260 189//261
f 198//259 189//261 365//247 185//242
f 199//260 197//258 200//262 367//263
f 200//262 201//264 202//265 367//263
f 200//262 197//258 195//257 203//266
f 200//262 203//266 204//267 201//264
f 204//267 205//268 206//269 201//264
f 204//270 203//271 207//271 208//270
f 204//270 208//270 209//272 205//272
f 209//272 72//78 210//273 205//272
f 209//274 208//275 211//276 212//277
f 209//274 212//277 73//79 72//78
f 212//277 211//276 368//278 369//279
f 212//277 369//279 213//280 73//79
f 213//280 214//281 70//75 73//79
f 219//282 218//283 221//284 51//46
f 219//282 51//46 50//45 220//285
f 221//284 222//286 223//287 224//288
f 221//284 224//288 46//47 51//46
f 221//284 218//283 371//289 222//286
f 224//290 223//291 225//291 226//290
f 224//290 226//290 47//41 46//41
f 226//292 225//293 227//294 228//295
f 226//292 228//295 229//296 47//297
f 229//296 228//295 217//298 370//299
f 229//296 370//299 216//300 230//301
f 229//296 230//301 48//302 47//297
f 230//303 216//304 215//305 231//306
f 230//303 231//306 49//43 48//307
f 231//306 215//305 372//308 232//309
f 231//306 232//309 19//10 49//43
f 232//309 372//308 373//310 233//311
f 232//309 233//311 20//11 19//10
f 233//311 373//310 374//312 234//313
f 233//311 234//313 210//273 20//11
f 234//313 374//312 375//314 206//269
f 234//313 206//269 205//268 210//273
f 375//314 202//265 201//264 206//269
f 376//315 368//278 211//276 235//316
f 376//315 235//316 191//250 366//249
f 235//316 211//276 208//275 207//317
f 235//316 207//317 193//252 191//250
f 228//295 227//294 236//318 217//298
f 236//318 227//294 238//319 237//320
f 238//319 239//321 240//322 237//320
f 238//319 227//294 225//293 241//323
f 238//319 241//323 242//324 239//321
f 242//324 31//23 243//325 239//321
f 242//324 241//323 244//326 245//327
f 242//324 245//327 32//24 31//23
f 245//327 244//328 246//329 247//330
f 245//327 247//330 248//331 32//24
f 248//331 249//332 3//19 32//24
f 248//331 247//330 377//333 250//334
f 248//331 250//334 251//335 249//332
f 251//335 252//336 253//337 249//332
f 254//338 255//339 256//340 257//341
f 254//338 257//341 253//337 252//336
f 257//341 256//340 258//342 259//343
f 257//341 259//343 33//25 253//337
f 259//343 258//344 260//344 261//345
f 259//343 261//345 34//26 33//25
f 261//345 260//346 262//347 263//348
f 261//345 263//348 264//349 34//26
f 264//349 263//348 265//350 378//351
f 264//349 378//351 379//352 266//353
f 264//349 266//353 28//20 34//26
f 266//353 379//352 267//354 69//74
f 266//353 69//74 29//21 28//20
f 267//354 268//355 67//355 69//74
f 268//355 380//356 68//73 67//355
f 380//356 381//357 269//358 68//73
f 269//358 381//357 382//359 243//325
f 269//358 243//325 31//23 30//22
f 269//358 30//22 29//21 68//73
f 382//359 240//322 239//321 243//325
f 383//360 377//333 247//330 246//329
f 383//360 246//329 222//286 371//289
f 271//361 270//362 272//363 273//364
f 271//361 273//364 256//340 255//339
f 273//364 272//363 274//365 275//366
f 273//364 275//366 258//342 256//340
f 275//367 274//368 276//368 277//367
f 275//367 277//367 260//344 258//344
f 277//369 276//370 278//371 279//372
f 277//369 279//372 262//347 260//346
f 279//372 278//371 280//373 281//374
f 279//372 281//374 282//375 262//347
f 282//375 265//350 263//348 262//347
f 384//376 283//377 284//378 285//379
f 384//376 285//379 272//363 270//362
f 285//379 284//378 286//380 287//381
f 285//379 287//381 274//365 272//363
f 287//382 286//383 288//383 289//382
f 287//382 289//382 276//368 274//368
f 289//384 288//385 290//386 291//387
f 289//384 291//387 278//371 276//370
f 291//387 290//386 385//388 292//389
f 291//387 292//389 280//373 278//371
f 293//390 386//391 294//392 295//393
f 293//390 295//393 284//378 283//377
f 295//393 294//392 296//394 297//395
f 295//393 297//395 286//380 284//378
f 297//396 296//397 298//397 299//396
f 297//396 299//396 288//383 286//383
f 299//398 298//399 300//400 301//401
f 299//398 301//401 290//386 288//385
f 301//401 300//400 387//402 388//403
f 301//401 388//403 385//388 290//386
f 387//402 300//400 303//404 302//405
f 303//404 304//406 305//407 302//405
f 303//404 300//400 298//399 306//408
f 303//404 306//408 307//409 304//406
f 307//409 308//410 309//411 304//406
f 307//409 306//412 310//412 311//413
f 307//409 311//413 66//71 308//410
f 311//413 310//414 312//415 313//416
f 311//413 313//416 64//67 66//71
f 313//416 312//415 389//417 314//418
f 313//416 314//418 63//68 64//67
f 316//419 315//420 317//421 25//16
f 316//419 25//16 24//422 318//422
f 318//422 24//422 27//18 391//423
f 391//423 27//18 62//63 338//62
f 317//421 315//420 390//424 319//425
f 317//421 319//425 320//426 57//55
f 317//421 57//55 26//17 25//16
f 320//426 319//425 309//411 308//410
f 320//426 308//410 66//71 65//70
f 320//426 65//70 7//53 57//55
f 319//425 390//424 392//427 309//411
f 392//427 305//407 304//406 309//411
f 389//417 312//415 294//392 386//391
f 312//415 310//414 296//394 294//392
f 310//412 306//412 298//397 296//397
f 253//337 33//25 3//19 249//332
f 246//329 244//328 223//287 222//286
f 244//326 241//323 225//291 223//291
f 220//428 50//45 53//49 393//429
f 393//429 53//49 9//66 340//69
f 214//281 321//430 71//76 70//75
f 321//430 322//431 323//432 71//76
f 323//432 322//431 117//153 120//152
f 323//432 120//152 324//433 325//434
f 323//432 325//434 21//77 71//76
f 325//435 324//433 42//36 326//435
f 325//435 326//435 22//13 21//12
f 326//436 42//36 41//35 327//437
f 326//436 327//437 328//438 22//13
f 328//438 329//439 23//14 22//13
f 328//438 327//437 394//440 330//441
f 328//438 330//441 331//442 329//439
f 331//442 395//443 15//3 329//439
f 396//444 394//440 327//437 41//35
f 396//444 41//35 40//34 397//445
f 397//445 40//34 43//37 332//446
f 332//447 43//37 74//80 398//448
f 398//448 74//80 104//131 349//130
f 395//443 333//449 16//4 15//3
f 333//450 334//451 17//6 16//5
f 334//451 399//452 54//453 17//6
f 399//454 335//454 55//455 54//455
f 335//456 336//456 59//57 55//51
f 336//457 400//458 60//58 59//57
f 400//458 339//64 61//59 60//58
f 329//439 15//3 14//2 23//14
f 210//273 72//78 2//8 20//11
f 207//271 203//271 195//255 193//255
f 135//176 131//176 124//158 122//155
f 113//146 36//29 35//28 45//164
f 104//133 74//80 4//27 39//133
f 351//141 347//125 100//122 99//121
f 345//107 85//106 75//86 342//85
f 9//66 53//49 52//48 58//56
f 62//63 27//18 26//17 56//54
f 59//57 58//56 52//52 55//51
f 324//433 120//152 119//151 44//38
f 324//433 44//38 5//32 42//36
f 416//459 415//460 414//461 401//462
f 410//463 417//464 416//465 401//462
f 420//466 419//467 418//468 402//469
f 423//470 422//471 421//472 402//469
f 418//468 414//461 423//470 402//469
f 427//473 426//474 425//475 424//476
f 430//477 429//478 428//479 403//480
f 432//481 431//482 430//477 403//480
f 428//479 434//483 433//484 403//480
f 437//485 436//486 435//487 404//488
f 435//487 405//489 411//490 404//488
f 439//491 438//491 437//485 404//488
f 442//492 441//493 440//494 405//489
f 440//494 443//495 411//490 405//489
f 435//487 445//496 444//497 405//489
f 448//498 447//499 446//499 406//500
f 410//463 449//501 448//498 406//500
f 446//502 451//503 450//504 406//505
f 450//504 453//506 452//507 406//505
f 452//508 455//509 454//510 406//500
f 454//510 417//464 410//463 406//500
f 457//511 426//474 456//512 407//513
f 460//514 459//515 458//516 407//513
f 456//512 461//517 460//514 407//513
f 462//518 338//62 337//61 408//519
f 337//61 339//64 461//517 408//519
f 461//517 456//512 462//518 408//519
f 340//69 63//520 463//521 409//522
f 463//521 465//523 464//524 409//522
f 464//524 407//513 458//516 409//522
f 418//468 419//467 449//501 410//463
f 401//462 414//461 418//468 410//463
f 468//525 429//478 467//526 466//527
f 421//528 470//529 469//530 402//469
f 469//530 472//531 471//532 402//469
f 443//495 473//533 404//488 411//490
f 476//534 475//535 474//535 412//534
f 474//536 342//85 341//84 412//537
f 341//88 343//88 476//538 412//538
f 344//92 78//91 477//539 413//540
f 477//541 475//541 476//542 413//542
f 476//543 343//96 344//96 413//543
f 78//91 81//98 478//544 477//539
f 478//545 479//545 475//541 477//541
f 478//545 481//546 480//546 479//545
f 482//547 474//535 475//535 479//547
f 480//548 483//548 482//547 479//547
f 480//548 485//549 484//550 483//548
f 346//108 345//107 482//551 483//552
f 484//550 89//109 346//108 483//552
f 484//550 486//553 90//110 89//109
f 488//554 487//555 93//113 92//112
f 90//110 486//553 488//554 92//112
f 490//556 489//557 487//555 488//554
f 486//553 491//558 490//556 488//554
f 493//559 492//560 490//561 491//562
f 485//563 494//563 493//559 491//562
f 486//553 484//550 485//549 491//558
f 348//126 347//125 493//559 494//564
f 481//565 102//127 348//126 494//564
f 485//563 480//546 481//546 494//563
f 481//565 478//544 81//98 102//127
f 496//566 495//567 349//130 103//129
f 93//113 487//555 496//566 103//129
f 497//568 439//569 495//569 496//566
f 487//555 489//557 497//568 496//566
f 498//570 438//491 439//491 497//570
f 489//571 499//572 498//570 497//570
f 350//140 109//139 498//573 499//572
f 492//560 351//141 350//140 499//572
f 489//571 490//561 492//560 499//572
f 110//143 438//574 498//573 109//139
f 111//144 437//485 438//574 110//143
f 112//575 436//486 437//485 111//144
f 114//576 500//577 436//486 112//575
f 502//578 501//579 353//149 352//148
f 117//153 503//580 502//578 352//148
f 506//581 505//582 504//583 501//579
f 502//578 444//497 506//581 501//579
f 504//583 116//157 353//149 501//579
f 508//584 507//585 505//582 506//581
f 444//497 445//496 508//584 506//581
f 510//586 509//587 507//588 508//589
f 445//590 500//577 510//586 508//589
f 115//591 354//165 509//587 510//586
f 500//577 114//576 115//591 510//586
f 355//168 511//592 509//587 354//165
f 355//168 130//170 512//593 511//592
f 513//594 507//588 509//587 511//592
f 512//593 514//595 513//594 511//592
f 512//593 516//596 515//597 514//595
f 518//598 517//599 513//599 514//598
f 515//600 519//600 518//598 514//598
f 515//600 521//601 520//601 519//600
f 523//602 522//603 518//604 519//605
f 520//606 524//607 523//602 519//605
f 520//606 526//608 525//609 524//607
f 357//188 356//187 523//602 524//607
f 525//609 145//189 357//188 524//607
f 525//609 527//610 146//190 145//189
f 529//611 528//612 358//193 148//192
f 146//190 527//610 529//611 148//192
f 531//613 530//614 528//612 529//611
f 527//610 532//615 531//613 529//611
f 534//616 533//617 531//617 532//616
f 526//618 535//618 534//616 532//616
f 527//610 525//609 526//608 532//615
f 537//619 536//620 534//621 535//622
f 521//623 538//624 537//619 535//622
f 526//618 520//601 521//601 535//618
f 359//209 160//208 537//619 538//624
f 516//596 161//210 359//209 538//624
f 521//623 515//597 516//596 538//624
f 516//596 512//593 130//170 161//210
f 539//625 522//603 360//212 162//211
f 116//157 504//583 539//625 162//211
f 517//626 518//604 522//603 539//625
f 504//583 505//582 517//626 539//625
f 522//603 523//602 356//187 360//212
f 541//627 540//628 164//216 361//215
f 358//193 528//612 541//627 361//215
f 543//629 542//630 540//628 541//627
f 528//612 530//614 543//629 541//627
f 545//631 544//632 542//630 543//629
f 530//614 546//633 545//631 543//629
f 548//634 547//635 545//631 546//633
f 533//636 549//637 548//634 546//633
f 530//614 531//617 533//617 546//633
f 175//229 362//228 548//634 549//637
f 536//620 176//230 175//229 549//637
f 533//636 534//621 536//620 549//637
f 536//620 537//619 160//208 176//230
f 363//638 547//635 548//634 362//228
f 551//639 550//640 178//641 364//232
f 164//216 540//628 551//639 364//232
f 553//642 552//643 550//640 551//639
f 540//628 542//630 553//642 551//639
f 555//644 554//645 552//645 553//642
f 542//630 544//632 555//644 553//642
f 557//646 556//647 554//648 555//649
f 544//632 558//650 557//646 555//649
f 177//246 188//245 557//646 558//650
f 547//635 363//638 177//246 558//650
f 544//632 545//631 547//635 558//650
f 365//247 556//647 557//646 188//245
f 560//651 559//652 366//653 190//654
f 178//641 550//640 560//651 190//654
f 562//655 561//656 559//652 560//651
f 550//640 552//643 562//655 560//651
f 564//657 563//658 561//658 562//657
f 552//645 554//645 564//657 562//657
f 566//659 565//660 563//661 564//662
f 554//648 556//647 566//659 564//662
f 189//663 199//664 565//660 566//659
f 556//647 365//247 189//663 566//659
f 367//665 567//666 565//660 199//664
f 367//665 202//667 568//668 567//666
f 569//669 563//661 565//660 567//666
f 568//668 570//670 569//669 567//666
f 568//668 572//671 571//672 570//670
f 574//673 573//674 569//674 570//673
f 571//675 575//675 574//673 570//673
f 571//675 576//676 471//532 575//675
f 578//677 577//678 574//679 575//680
f 471//532 472//531 578//677 575//680
f 369//279 368//681 577//678 578//677
f 472//531 213//280 369//279 578//677
f 472//531 469//530 214//281 213//280
f 451//503 579//682 218//283 219//282
f 220//285 450//504 451//503 219//282
f 582//683 581//684 580//685 579//682
f 451//503 446//502 582//683 579//682
f 580//685 371//289 218//283 579//682
f 584//686 583//687 581//687 582//686
f 446//499 447//499 584//686 582//686
f 586//688 585//689 583//690 584//691
f 447//692 587//693 586//688 584//691
f 370//299 217//298 586//688 587//693
f 588//694 216//300 370//299 587//693
f 447//692 448//695 588//694 587//693
f 589//696 215//305 216//304 588//697
f 448//698 449//501 589//696 588//697
f 590//699 372//308 215//305 589//696
f 449//501 419//467 590//699 589//696
f 591//700 373//701 372//308 590//699
f 419//467 420//466 591//700 590//699
f 592//702 374//703 373//701 591//700
f 420//466 576//676 592//702 591//700
f 572//671 375//704 374//703 592//702
f 576//676 571//672 572//671 592//702
f 572//671 568//668 202//667 375//704
f 593//705 577//678 368//681 376//706
f 366//653 559//652 593//705 376//706
f 573//707 574//679 577//678 593//705
f 559//652 561//656 573//707 593//705
f 217//298 236//318 585//689 586//688
f 237//320 594//708 585//689 236//318
f 237//320 240//322 595//709 594//708
f 596//710 583//690 585//689 594//708
f 595//709 597//711 596//710 594//708
f 595//709 598//712 431//482 597//711
f 600//713 599//714 596//710 597//711
f 431//482 432//481 600//713 597//711
f 602//715 601//716 599//717 600//713
f 432//481 603//718 602//715 600//713
f 432//481 403//480 604//719 603//718
f 250//720 377//721 602//715 603//718
f 604//719 251//722 250//720 603//718
f 604//719 605//723 252//336 251//722
f 607//724 606//725 255//339 254//338
f 252//336 605//723 607//724 254//338
f 609//726 608//727 606//725 607//724
f 605//723 433//484 609//726 607//724
f 611//728 610//729 608//729 609//726
f 433//484 434//483 611//728 609//726
f 613//730 612//731 610//732 611//728
f 434//483 614//733 613//730 611//728
f 378//351 265//350 613//730 614//733
f 615//734 379//735 378//351 614//733
f 434//483 428//479 615//734 614//733
f 468//525 267//736 379//735 615//734
f 428//479 429//478 468//525 615//734
f 468//525 466//527 268//737 267//736
f 466//527 467//526 380//738 268//737
f 467//526 616//739 381//740 380//738
f 598//712 382//741 381//740 616//739
f 430//477 431//482 598//712 616//739
f 467//526 429//478 430//477 616//739
f 598//712 595//709 240//322 382//741
f 601//716 602//715 377//721 383//360
f 371//289 580//685 601//716 383//360
f 618//742 617//743 270//362 271//361
f 255//339 606//725 618//742 271//361
f 620//744 619//745 617//743 618//742
f 606//725 608//727 620//744 618//742
f 622//746 621//747 619//747 620//746
f 608//729 610//729 622//746 620//746
f 624//748 623//749 621//750 622//751
f 610//732 612//731 624//748 622//751
f 281//374 280//373 623//749 624//748
f 612//731 282//375 281//374 624//748
f 612//731 613//730 265//350 282//375
f 626//752 625//753 283//377 384//376
f 270//362 617//743 626//752 384//376
f 628//754 627//755 625//753 626//752
f 617//743 619//745 628//754 626//752
f 630//756 629//757 627//757 628//756
f 619//747 621//747 630//756 628//756
f 632//758 631//759 629//760 630//761
f 621//750 623//749 632//758 630//761
f 292//389 385//388 631//759 632//758
f 623//749 280//373 292//389 632//758
f 634//762 633//763 386//391 293//390
f 283//377 625//753 634//762 293//390
f 636//764 635//765 633//763 634//762
f 625//753 627//755 636//764 634//762
f 638//766 637//767 635//767 636//766
f 627//757 629//757 638//766 636//766
f 640//768 639//769 637//770 638//771
f 629//760 631//759 640//768 638//771
f 388//403 387//402 639//769 640//768
f 631//759 385//388 388//403 640//768
f 302//405 641//772 639//769 387//402
f 302//405 305//407 642//773 641//772
f 643//774 637//770 639//769 641//772
f 642//773 644//775 643//774 641//772
f 642//773 646//776 645//777 644//775
f 648//778 647//779 643//779 644//775
f 645//777 465//523 648//778 644//775
f 650//780 649//781 647//782 648//778
f 465//523 463//521 650//780 648//778
f 314//418 389//417 649//781 650//780
f 463//521 63//520 314//418 650//780
f 425//475 651//783 315//784 316//785
f 318//786 424//476 425//475 316//785
f 391//787 427//473 424//476 318//786
f 338//62 462//518 427//473 391//787
f 652//788 390//789 315//784 651//783
f 457//511 653//790 652//788 651//783
f 425//475 426//474 457//511 651//783
f 645//777 646//776 652//788 653//790
f 464//524 465//523 645//777 653//790
f 457//511 407//513 464//524 653//790
f 646//776 392//791 390//789 652//788
f 646//776 642//773 305//407 392//791
f 386//391 633//763 649//781 389//417
f 633//763 635//765 647//782 649//781
f 635//767 637//767 643//779 647//779
f 604//719 403//480 433//484 605//723
f 580//685 581//684 599//717 601//716
f 581//687 583//687 596//710 599//714
f 393//429 453//506 450//504 220//428
f 340//69 409//522 453//506 393//429
f 469//530 470//529 321//430 214//281
f 470//529 654//792 322//431 321//430
f 503//580 117//153 322//431 654//792
f 656//793 655//794 503//580 654//792
f 470//529 421//528 656//793 654//792
f 657//795 442//492 655//794 656//795
f 421//472 422//471 657//795 656//795
f 658//796 441//493 442//492 657//797
f 422//471 659//798 658//796 657//797
f 422//471 423//470 660//799 659//798
f 330//441 394//440 658//796 659//798
f 660//799 331//442 330//441 659//798
f 660//799 415//460 395//443 331//442
f 441//493 658//796 394//440 396//444
f 397//445 440//494 441//493 396//444
f 332//800 443//495 440//494 397//445
f 398//801 473//533 443//495 332//802
f 349//130 495//567 473//533 398//801
f 415//460 416//459 333//449 395//443
f 416//465 417//464 334//451 333//450
f 417//464 454//803 399//452 334//451
f 454//804 455//804 335//454 399//454
f 455//509 459//515 336//456 335//456
f 459//515 460//514 400//458 336//457
f 460//514 461//517 339//64 400//458
f 423//470 414//461 415//460 660//799
f 420//466 402//469 471//532 576//676
f 561//658 563//658 569//674 573//674
f 505//582 507//585 513//599 517//599
f 445//590 435//487 436//486 500//577
f 439//569 404//488 473//533 495//569
f 492//560 493//559 347//125 351//141
f 342//85 474//536 482//551 345//107
f 458//516 452//507 453//506 409//522
f 456//512 426//474 427//473 462//518
f 455//509 452//508 458//516 459//515
f 444//497 502//578 503//580 655//794
f 442//492 405//489 444//497 655//794
