# pilowlava3D glyph 'w' variant 3 — Vincent Wagner / Velvetyne, Free Art License
v 4.01108 2.42687 -0.30710
v 6.15198 4.25337 -0.47154
v 4.80835 1.33268 -0.32121
v 0.58652 2.45709 -0.21174
v 0.07257 2.40465 -0.21204
v 2.28876 1.37311 -0.28717
v 0.99899 0.41147 -0.32308
v 1.25555 0.12369 -0.34115
v 2.02631 1.05984 -0.54108
v 3.45609 0.44525 -0.34736
v 4.48557 1.01797 -0.58617
v 3.94397 2.88076 -0.59416
v 4.20773 4.32392 -0.24176
v 3.70020 0.12232 -0.34072
v 3.62360 4.19364 -0.39230
v 3.85648 2.18851 -0.00000
v 4.26797 2.35364 -0.22810
v 4.18930 2.63399 -0.46343
v 4.35187 2.43094 -0.36998
v 3.78992 2.24523 -0.28265
v 3.61566 2.37227 -0.46919
v 3.76617 2.59563 -0.52070
v 6.04532 4.37642 -0.31868
v 6.35416 4.44168 -0.30638
v 6.41077 4.23242 -0.48776
v 6.42206 3.98264 -0.55400
v 6.07443 4.06268 -0.51917
v 5.83597 4.14370 -0.31458
v 4.88287 1.40636 -0.00000
v 4.78989 1.65493 -0.00000
v 5.06766 1.28201 -0.00000
v 4.54172 1.35461 -0.47427
v 4.58224 1.64855 -0.39841
v 4.72330 1.64837 -0.26883
v 5.06720 1.22016 -0.26148
v 5.08786 1.06406 -0.41462
v 4.81503 1.03032 -0.49748
v 0.61871 2.43044 -0.00000
v 0.61206 2.70092 -0.00000
v 0.46350 2.26618 -0.00000
v 0.55960 2.67672 -0.24379
v 0.45035 2.35803 -0.27925
v 0.40167 2.62434 -0.38542
v 0.00000 2.62501 -0.00000
v 0.04404 2.37075 -0.00000
v 0.22675 2.32804 -0.28132
v 0.05804 2.61626 -0.24322
v 0.20905 2.60239 -0.38642
v 2.33994 1.43090 -0.00000
v 2.23505 1.67347 -0.00000
v 2.53485 1.33453 -0.00000
v 2.05466 1.37828 -0.44995
v 2.06577 1.66575 -0.38079
v 2.18329 1.66733 -0.24257
v 2.54251 1.29263 -0.22925
v 2.32654 1.11015 -0.45659
v 2.57669 1.17111 -0.37227
v 1.14624 0.57556 -0.39761
v 1.29053 0.39192 -0.49123
v 1.09106 0.23218 -0.37084
v 0.97156 0.13579 -0.20534
v 0.91608 0.41876 -0.18924
v 1.05029 0.67829 -0.21616
v 1.24469 0.03619 -0.20736
v 1.44202 0.22141 -0.40804
v 1.53067 0.10644 -0.22802
v 2.38403 0.89294 -0.42814
v 2.16437 0.76228 -0.46771
v 1.75803 0.79545 -0.56134
v 1.56067 0.96257 -0.47620
v 1.74545 1.18846 -0.46345
v 1.91721 0.57980 -0.48295
v 1.86575 1.40297 -0.41685
v 3.36990 0.45684 -0.21040
v 3.49692 0.70703 -0.22984
v 3.59180 0.59894 -0.41944
v 3.53433 0.25259 -0.39346
v 3.41663 0.16776 -0.21777
v 3.73608 0.40114 -0.51135
v 4.18976 1.18459 -0.49356
v 4.32254 1.40249 -0.43436
v 4.86215 0.77341 -0.46305
v 4.61295 0.67442 -0.50936
v 4.20670 0.77746 -0.60222
v 4.01254 0.97021 -0.50584
v 4.36545 0.52873 -0.51394
v 4.22595 3.00519 -0.49990
v 4.34427 2.77061 -0.43590
v 3.89365 3.27460 -0.61396
v 4.14911 3.29914 -0.52309
v 3.49933 2.75568 -0.49015
v 3.56628 3.00966 -0.53054
v 6.58566 4.42676 -0.27363
v 6.72418 4.22591 -0.34479
v 4.36584 4.14069 -0.00000
v 4.24414 4.35890 -0.00000
v 4.04926 4.49359 -0.00000
v 4.26938 4.14042 -0.29492
v 4.06665 4.17653 -0.45236
v 4.05173 4.41491 -0.29587
v 3.89035 0.21035 -0.41501
v 3.96860 0.08878 -0.22291
v 3.68347 0.04021 -0.19851
v 3.54492 4.28300 -0.24459
v 3.78528 4.43724 -0.27731
v 3.81329 4.21990 -0.46371
v 3.59335 3.93966 -0.44374
v 3.42972 3.96267 -0.24301
v 3.83185 3.92501 -0.55713
v 3.85980 3.61254 -0.58923
v 3.60233 3.62842 -0.48297
v 4.09644 3.89656 -0.50276
v 4.12119 3.60354 -0.51953
v 4.31229 3.88017 -0.30001
v 4.33792 3.61230 -0.29555
v 4.37396 3.34591 -0.29144
v 4.43063 3.09928 -0.27813
v 4.49017 3.37154 -0.00000
v 4.58606 2.86595 -0.00000
v 4.50690 2.85163 -0.25705
v 4.63898 2.57450 -0.00000
v 4.64944 2.25238 -0.21582
v 4.58261 2.55514 -0.23083
v 4.55899 2.22767 -0.33565
v 4.47238 2.50564 -0.35935
v 4.45474 2.19470 -0.32604
v 4.47900 1.94208 -0.33129
v 4.40225 1.94137 -0.20043
v 4.39706 2.17448 -0.19940
v 4.59854 1.94601 -0.35451
v 4.42694 1.66690 -0.37360
v 4.69800 1.94983 -0.23314
v 4.74380 1.95091 -0.00000
v 4.24615 1.73348 -0.00000
v 4.07770 1.53259 -0.00000
v 3.92017 1.33910 -0.00000
v 3.76416 1.15377 -0.00000
v 3.60126 0.96188 -0.00000
v 4.74207 0.37746 -0.00000
v 4.97867 0.52866 -0.00000
v 4.46359 0.33345 -0.27504
v 4.69333 0.46841 -0.27561
v 4.93509 0.59953 -0.26400
v 5.14099 0.88979 -0.39964
v 5.20215 0.77154 -0.24344
v 5.23770 0.72043 -0.00000
v 5.46725 0.97793 -0.22200
v 6.14807 2.03398 -0.00000
v 5.84991 1.51802 -0.20529
v 5.97089 1.79414 -0.23015
v 6.08759 2.05812 -0.25078
v 5.86679 1.82490 -0.37639
v 5.95349 2.09836 -0.40790
v 6.04202 2.36757 -0.43835
v 6.20303 2.31853 -0.26318
v 6.27628 2.28889 -0.00000
v 6.31842 2.57813 -0.27957
v 6.40292 2.54330 -0.00000
v 5.55695 1.64959 -0.00000
v 5.47253 1.41842 -0.00000
v 5.58292 1.63322 -0.20187
v 5.48535 1.40468 -0.19611
v 5.29553 1.26248 -0.22488
v 5.28247 1.28811 -0.00000
v 5.54633 1.35183 -0.32355
v 5.34457 1.16997 -0.36383
v 5.63657 1.27839 -0.33053
v 5.41498 1.05796 -0.35779
v 5.69183 1.22877 -0.20005
v 5.77722 1.54491 -0.34055
v 5.66470 1.59163 -0.34027
v 5.72684 1.86545 -0.37615
v 5.62064 1.89693 -0.23097
v 5.64575 2.17522 -0.24787
v 5.77985 2.14579 -0.40545
v 5.66895 2.45473 -0.25505
v 5.83047 2.42189 -0.43368
v 5.68753 2.73333 -0.26879
v 5.87720 2.69993 -0.45812
v 6.12732 2.63763 -0.46609
v 5.92178 2.97763 -0.48652
v 6.20667 2.91195 -0.49792
v 6.42850 2.84074 -0.29665
v 6.28091 3.18402 -0.52195
v 6.53513 3.10120 -0.31381
v 6.52496 2.79693 -0.00000
v 5.59100 2.46413 -0.00000
v 5.70587 3.00998 -0.28157
v 5.61023 3.29556 -0.00000
v 5.72049 3.28794 -0.29424
v 5.96332 3.25592 -0.51107
v 5.74106 3.56464 -0.30119
v 6.00192 3.52812 -0.52532
v 6.35242 3.45294 -0.54439
v 6.02939 3.79287 -0.53227
v 6.39578 3.71926 -0.55661
v 6.71469 3.64465 -0.34717
v 6.64276 3.36487 -0.33530
v 5.76044 3.84901 -0.31152
v 5.74146 4.19716 -0.00000
v 5.98804 4.45495 -0.00000
v 6.32715 4.52703 -0.00000
v 6.62387 4.47909 -0.00000
v 6.85620 4.24627 -0.00000
v 6.74963 3.92683 -0.35238
v 4.22076 0.20288 -0.25727
v 4.12436 0.36531 -0.48230
v 3.96451 0.57839 -0.58064
v 3.80185 0.77831 -0.48112
v 3.67053 0.90763 -0.25943
v 3.84308 1.09624 -0.27032
v 3.99634 1.28660 -0.26845
v 4.13992 1.48777 -0.25269
v 4.29282 1.70423 -0.22974
v 3.44800 0.74612 -0.00000
v 3.33173 0.46669 -0.00000
v 3.38779 0.14941 -0.00000
v 3.67581 0.00549 -0.00000
v 3.18939 2.85587 -0.00000
v 3.13986 2.58225 -0.00000
v 3.69443 1.99505 -0.00000
v 3.46729 1.82930 -0.25169
v 3.62842 2.04456 -0.27343
v 3.35263 1.89308 -0.40035
v 3.48111 2.13325 -0.43751
v 3.20886 1.96672 -0.39487
v 3.30350 2.22916 -0.42396
v 3.39975 2.49062 -0.44811
v 3.15659 2.28718 -0.25209
v 3.22195 2.56294 -0.25872
v 3.28610 2.83391 -0.27683
v 3.33762 3.09355 -0.28931
v 3.38013 3.36289 -0.28217
v 3.59576 3.32113 -0.52161
v 3.40991 3.65008 -0.26310
v 3.36237 3.98218 -0.00000
v 3.50046 4.31642 -0.00000
v 3.77731 4.50259 -0.00000
v 3.09238 2.02048 -0.24494
v 3.01886 1.76670 -0.21854
v 2.98456 1.79071 -0.00000
v 3.10413 1.71676 -0.36126
v 2.97409 1.48969 -0.33125
v 2.91959 1.53896 -0.19602
v 3.22134 1.65024 -0.36460
v 3.06488 1.41769 -0.33650
v 2.86713 1.21644 -0.33884
v 2.79807 1.30526 -0.33097
v 3.30847 1.59886 -0.22848
v 3.13239 1.36591 -0.20723
v 2.92514 1.14274 -0.20437
v 2.69724 0.93083 -0.22556
v 2.63672 1.03434 -0.36946
v 2.72794 0.88795 -0.00000
v 2.50369 0.68600 -0.00000
v 2.46078 0.74438 -0.24681
v 2.29190 0.50733 -0.00000
v 2.02420 0.41047 -0.26461
v 2.24466 0.58371 -0.25986
v 1.78357 0.24939 -0.25293
v 1.68082 0.39169 -0.46303
v 1.00925 0.71265 -0.00000
v 1.23022 0.88034 -0.24451
v 0.88361 0.42681 -0.00000
v 0.94720 0.11783 -0.00000
v 1.24338 0.00000 -0.00000
v 1.40097 1.07792 -0.25812
v 1.35504 0.76175 -0.45306
v 1.51898 0.57939 -0.55042
v 1.56152 1.27298 -0.25513
v 1.64844 1.50727 -0.00000
v 1.70575 1.46500 -0.24373
v 1.78659 1.69591 -0.00000
v 1.83008 1.68683 -0.21310
v 1.93445 1.67654 -0.36074
v 1.88943 1.93050 -0.18455
v 1.95859 1.93688 -0.32745
v 2.07114 1.94392 -0.33988
v 1.92310 2.19143 -0.33339
v 2.03967 2.21563 -0.34016
v 2.11856 2.23389 -0.20968
v 2.15524 1.94843 -0.21558
v 2.15237 2.24092 -0.00000
v 2.19135 1.95105 -0.00000
v 1.84286 2.17721 -0.18826
v 1.70264 2.40106 -0.00000
v 2.03107 3.07467 -0.00000
v 1.98959 3.36190 -0.00000
v 1.93924 3.67409 -0.00000
v 1.95972 3.05796 -0.25579
v 1.91049 3.33914 -0.26603
v 1.84976 3.64186 -0.28026
v 1.74286 3.27750 -0.44779
v 1.66049 3.55937 -0.47436
v 1.57001 3.87307 -0.48927
v 1.78256 3.99736 -0.29234
v 1.86609 4.04370 -0.00000
v 1.53607 4.36176 -0.31201
v 1.59836 4.44854 -0.00000
v 1.43408 2.84682 -0.00000
v 1.57071 2.62315 -0.00000
v 1.49866 2.87879 -0.25376
v 1.62534 2.64671 -0.23977
v 1.74231 2.41301 -0.21600
v 1.74310 2.69129 -0.39377
v 1.84378 2.44209 -0.36363
v 1.89407 2.74538 -0.39484
v 1.97311 2.48188 -0.36619
v 2.01343 2.78604 -0.24617
v 2.06723 2.51322 -0.22476
v 1.81766 3.01070 -0.42171
v 1.63547 2.93914 -0.42052
v 1.52884 3.18722 -0.44578
v 1.37332 3.10658 -0.26334
v 1.25177 3.32268 -0.27515
v 1.42380 3.43585 -0.47105
v 1.13544 3.52067 -0.28241
v 1.30634 3.68806 -0.48478
v 1.01883 3.68028 -0.27530
v 1.17120 3.87871 -0.47766
v 1.37701 4.14200 -0.48591
v 0.96454 3.98726 -0.43766
v 1.04672 4.24960 -0.44870
v 1.09045 4.44301 -0.27952
v 0.68848 4.18968 -0.40371
v 0.65976 4.34732 -0.25838
v 0.65192 4.40815 -0.00000
v 1.10547 4.51298 -0.00000
v 0.88879 3.79896 -0.24713
v 0.71347 3.80130 -0.00000
v 0.71768 3.84143 -0.22269
v 0.71228 3.98867 -0.38985
v 0.53491 3.79044 -0.19952
v 0.48795 3.87568 -0.34663
v 0.40845 3.99165 -0.36098
v 0.33713 3.67512 -0.30758
v 0.24307 3.72608 -0.32966
v 0.16577 3.77940 -0.18859
v 0.33844 4.09932 -0.21887
v 0.39163 3.64131 -0.17743
v 0.36896 3.41211 -0.00000
v 0.34576 3.41903 -0.17720
v 0.27759 3.43362 -0.31219
v 0.38644 3.17718 -0.20730
v 0.29117 3.17458 -0.34906
v 0.16656 3.16687 -0.35348
v 0.16965 3.44763 -0.32302
v 0.06616 3.16181 -0.21403
v 0.09259 3.45769 -0.18985
v 0.06522 3.46340 -0.00000
v 0.42676 3.17947 -0.00000
v 0.46698 2.93252 -0.23791
v 0.06738 2.87974 -0.23757
v 0.19644 2.88142 -0.38034
v 0.34393 2.89967 -0.37886
v 2.75662 1.36512 -0.20116
v 2.74832 1.38134 -0.00000
v 4.24200 2.33364 -0.00000
v 4.04141 2.34504 -0.00000
v 0.23431 2.23811 -0.00000
v 4.45169 3.62496 -0.00000
v 4.53314 3.12825 -0.00000
v 4.69226 2.26161 -0.00000
v 4.50638 0.24282 -0.00000
v 5.49261 0.94153 -0.00000
v 6.01837 1.77771 -0.00000
v 5.87900 1.50448 -0.00000
v 5.71289 1.20900 -0.00000
v 6.64804 3.05313 -0.00000
v 5.59683 2.74173 -0.00000
v 5.57922 2.18306 -0.00000
v 5.57147 1.91254 -0.00000
v 5.60495 3.01608 -0.00000
v 6.86099 3.60999 -0.00000
v 6.77130 3.31851 -0.00000
v 5.62024 3.57877 -0.00000
v 5.64517 3.87671 -0.00000
v 6.89941 3.91455 -0.00000
v 4.25381 0.12586 -0.00000
v 4.37250 1.94365 -0.00000
v 4.37973 2.16897 -0.00000
v 3.98801 0.03508 -0.00000
v 4.41928 3.88444 -0.00000
v 3.23349 3.11991 -0.00000
v 3.52274 1.79215 -0.00000
v 3.27765 3.38494 -0.00000
v 3.31958 3.66583 -0.00000
v 3.08633 2.30160 -0.00000
v 3.03705 2.04208 -0.00000
v 3.15906 1.34426 -0.00000
v 2.94690 1.11578 -0.00000
v 2.06973 0.33557 -0.00000
v 1.82050 0.18333 -0.00000
v 1.55646 0.05918 -0.00000
v 1.17029 0.92867 -0.00000
v 1.33353 1.12755 -0.00000
v 1.49484 1.31811 -0.00000
v 1.81973 2.17408 -0.00000
v 1.87064 1.92937 -0.00000
v 2.07254 2.80264 -0.00000
v 1.30099 3.06456 -0.00000
v 2.11160 2.52606 -0.00000
v 1.06287 3.45293 -0.00000
v 1.17526 3.26750 -0.00000
v 0.96243 3.60591 -0.00000
v 0.85574 3.73745 -0.00000
v 0.14520 3.79660 -0.00000
v 0.31970 4.13629 -0.00000
v 0.40387 3.63136 -0.00000
v 0.54318 3.77201 -0.00000
v 0.02713 3.16238 -0.00000
v 0.51721 2.95092 -0.00000
v 0.01495 2.88488 -0.00000
v 3.34860 1.57288 -0.00000
v 2.90417 1.55693 -0.00000
v 4.01108 2.42687 0.30710
v 6.15198 4.25337 0.47154
v 4.80835 1.33268 0.32121
v 0.58652 2.45709 0.21174
v 0.07257 2.40465 0.21204
v 2.28876 1.37311 0.28717
v 0.99899 0.41147 0.32308
v 1.25555 0.12369 0.34115
v 2.02631 1.05984 0.54108
v 3.45609 0.44525 0.34736
v 4.48557 1.01797 0.58617
v 3.94397 2.88076 0.59416
v 4.20773 4.32392 0.24176
v 3.70020 0.12232 0.34072
v 3.62360 4.19364 0.39230
v 4.26797 2.35364 0.22810
v 4.18930 2.63399 0.46343
v 4.35187 2.43094 0.36998
v 3.78992 2.24523 0.28265
v 3.61566 2.37227 0.46919
v 3.76617 2.59563 0.52070
v 6.04532 4.37642 0.31868
v 6.35416 4.44168 0.30638
v 6.41077 4.23242 0.48776
v 6.42206 3.98264 0.55400
v 6.07443 4.06268 0.51917
v 5.83597 4.14370 0.31458
v 4.54172 1.35461 0.47427
v 4.58224 1.64855 0.39841
v 4.72330 1.64837 0.26883
v 5.06720 1.22016 0.26148
v 5.08786 1.06406 0.41462
v 4.81503 1.03032 0.49748
v 0.55960 2.67672 0.24379
v 0.45035 2.35803 0.27925
v 0.40167 2.62434 0.38542
v 0.22675 2.32804 0.28132
v 0.05804 2.61626 0.24322
v 0.20905 2.60239 0.38642
v 2.05466 1.37828 0.44995
v 2.06577 1.66575 0.38079
v 2.18329 1.66733 0.24257
v 2.54251 1.29263 0.22925
v 2.32654 1.11015 0.45659
v 2.57669 1.17111 0.37227
v 1.14624 0.57556 0.39761
v 1.29053 0.39192 0.49123
v 1.09106 0.23218 0.37084
v 0.97156 0.13579 0.20534
v 0.91608 0.41876 0.18924
v 1.05029 0.67829 0.21616
v 1.24469 0.03619 0.20736
v 1.44202 0.22141 0.40804
v 1.53067 0.10644 0.22802
v 2.38403 0.89294 0.42814
v 2.16437 0.76228 0.46771
v 1.75803 0.79545 0.56134
v 1.56067 0.96257 0.47620
v 1.74545 1.18846 0.46345
v 1.91721 0.57980 0.48295
v 1.86575 1.40297 0.41685
v 3.36990 0.45684 0.21040
v 3.49692 0.70703 0.22984
v 3.59180 0.59894 0.41944
v 3.53433 0.25259 0.39346
v 3.41663 0.16776 0.21777
v 3.73608 0.40114 0.51135
v 4.18976 1.18459 0.49356
v 4.32254 1.40249 0.43436
v 4.86215 0.77341 0.46305
v 4.61295 0.67442 0.50936
v 4.20670 0.77746 0.60222
v 4.01254 0.97021 0.50584
v 4.36545 0.52873 0.51394
v 4.22595 3.00519 0.49990
v 4.34427 2.77061 0.43590
v 3.89365 3.27460 0.61396
v 4.14911 3.29914 0.52309
v 3.49933 2.75568 0.49015
v 3.56628 3.00966 0.53054
v 6.58566 4.42676 0.27363
v 6.72418 4.22591 0.34479
v 4.26938 4.14042 0.29492
v 4.06665 4.17653 0.45236
v 4.05173 4.41491 0.29587
v 3.89035 0.21035 0.41501
v 3.96860 0.08878 0.22291
v 3.68347 0.04021 0.19851
v 3.54492 4.28300 0.24459
v 3.78528 4.43724 0.27731
v 3.81329 4.21990 0.46371
v 3.59335 3.93966 0.44374
v 3.42972 3.96267 0.24301
v 3.83185 3.92501 0.55713
v 3.85980 3.61254 0.58923
v 3.60233 3.62842 0.48297
v 4.09644 3.89656 0.50276
v 4.12119 3.60354 0.51953
v 4.31229 3.88017 0.30001
v 4.33792 3.61230 0.29555
v 4.37396 3.34591 0.29144
v 4.43063 3.09928 0.27813
v 4.50690 2.85163 0.25705
v 4.64944 2.25238 0.21582
v 4.58261 2.55514 0.23083
v 4.55899 2.22767 0.33565
v 4.47238 2.50564 0.35935
v 4.45474 2.19470 0.32604
v 4.47900 1.94208 0.33129
v 4.40225 1.94137 0.20043
v 4.39706 2.17448 0.19940
v 4.59854 1.94601 0.35451
v 4.42694 1.66690 0.37360
v 4.69800 1.94983 0.23314
v 4.46359 0.33345 0.27504
v 4.69333 0.46841 0.27561
v 4.93509 0.59953 0.26400
v 5.14099 0.88979 0.39964
v 5.20215 0.77154 0.24344
v 5.46725 0.97793 0.22200
v 5.84991 1.51802 0.20529
v 5.97089 1.79414 0.23015
v 6.08759 2.05812 0.25078
v 5.86679 1.82490 0.37639
v 5.95349 2.09836 0.40790
v 6.04202 2.36757 0.43835
v 6.20303 2.31853 0.26318
v 6.31842 2.57813 0.27957
v 5.58292 1.63322 0.20187
v 5.48535 1.40468 0.19611
v 5.29553 1.26248 0.22488
v 5.54633 1.35183 0.32355
v 5.34457 1.16997 0.36383
v 5.63657 1.27839 0.33053
v 5.41498 1.05796 0.35779
v 5.69183 1.22877 0.20005
v 5.77722 1.54491 0.34055
v 5.66470 1.59163 0.34027
v 5.72684 1.86545 0.37615
v 5.62064 1.89693 0.23097
v 5.64575 2.17522 0.24787
v 5.77985 2.14579 0.40545
v 5.66895 2.45473 0.25505
v 5.83047 2.42189 0.43368
v 5.68753 2.73333 0.26879
v 5.87720 2.69993 0.45812
v 6.12732 2.63763 0.46609
v 5.92178 2.97763 0.48652
v 6.20667 2.91195 0.49792
v 6.42850 2.84074 0.29665
v 6.28091 3.18402 0.52195
v 6.53513 3.10120 0.31381
v 5.70587 3.00998 0.28157
v 5.72049 3.28794 0.29424
v 5.96332 3.25592 0.51107
v 5.74106 3.56464 0.30119
v 6.00192 3.52812 0.52532
v 6.35242 3.45294 0.54439
v 6.02939 3.79287 0.53227
v 6.39578 3.71926 0.55661
v 6.71469 3.64465 0.34717
v 6.64276 3.36487 0.33530
v 5.76044 3.84901 0.31152
v 6.74963 3.92683 0.35238
v 4.22076 0.20288 0.25727
v 4.12436 0.36531 0.48230
v 3.96451 0.57839 0.58064
v 3.80185 0.77831 0.48112
v 3.67053 0.90763 0.25943
v 3.84308 1.09624 0.27032
v 3.99634 1.28660 0.26845
v 4.13992 1.48777 0.25269
v 4.29282 1.70423 0.22974
v 3.46729 1.82930 0.25169
v 3.62842 2.04456 0.27343
v 3.35263 1.89308 0.40035
v 3.48111 2.13325 0.43751
v 3.20886 1.96672 0.39487
v 3.30350 2.22916 0.42396
v 3.39975 2.49062 0.44811
v 3.15659 2.28718 0.25209
v 3.22195 2.56294 0.25872
v 3.28610 2.83391 0.27683
v 3.33762 3.09355 0.28931
v 3.38013 3.36289 0.28217
v 3.59576 3.32113 0.52161
v 3.40991 3.65008 0.26310
v 3.09238 2.02048 0.24494
v 3.01886 1.76670 0.21854
v 3.10413 1.71676 0.36126
v 2.97409 1.48969 0.33125
v 2.91959 1.53896 0.19602
v 3.22134 1.65024 0.36460
v 3.06488 1.41769 0.33650
v 2.86713 1.21644 0.33884
v 2.79807 1.30526 0.33097
v 3.30847 1.59886 0.22848
v 3.13239 1.36591 0.20723
v 2.92514 1.14274 0.20437
v 2.69724 0.93083 0.22556
v 2.63672 1.03434 0.36946
v 2.46078 0.74438 0.24681
v 2.02420 0.41047 0.26461
v 2.24466 0.58371 0.25986
v 1.78357 0.24939 0.25293
v 1.68082 0.39169 0.46303
v 1.23022 0.88034 0.24451
v 1.40097 1.07792 0.25812
v 1.35504 0.76175 0.45306
v 1.51898 0.57939 0.55042
v 1.56152 1.27298 0.25513
v 1.70575 1.46500 0.24373
v 1.83008 1.68683 0.21310
v 1.93445 1.67654 0.36074
v 1.88943 1.93050 0.18455
v 1.95859 1.93688 0.32745
v 2.07114 1.94392 0.33988
v 1.92310 2.19143 0.33339
v 2.03967 2.21563 0.34016
v 2.11856 2.23389 0.20968
v 2.15524 1.94843 0.21558
v 1.84286 2.17721 0.18826
v 1.95972 3.05796 0.25579
v 1.91049 3.33914 0.26603
v 1.84976 3.64186 0.28026
v 1.74286 3.27750 0.44779
v 1.66049 3.55937 0.47436
v 1.57001 3.87307 0.48927
v 1.78256 3.99736 0.29234
v 1.53607 4.36176 0.31201
v 1.49866 2.87879 0.25376
v 1.62534 2.64671 0.23977
v 1.74231 2.41301 0.21600
v 1.74310 2.69129 0.39377
v 1.84378 2.44209 0.36363
v 1.89407 2.74538 0.39484
v 1.97311 2.48188 0.36619
v 2.01343 2.78604 0.24617
v 2.06723 2.51322 0.22476
v 1.81766 3.01070 0.42171
v 1.63547 2.93914 0.42052
v 1.52884 3.18722 0.44578
v 1.37332 3.10658 0.26334
v 1.25177 3.32268 0.27515
v 1.42380 3.43585 0.47105
v 1.13544 3.52067 0.28241
v 1.30634 3.68806 0.48478
v 1.01883 3.68028 0.27530
v 1.17120 3.87871 0.47766
v 1.37701 4.14200 0.48591
v 0.96454 3.98726 0.43766
v 1.04672 4.24960 0.44870
v 1.09045 4.44301 0.27952
v 0.68848 4.18968 0.40371
v 0.65976 4.34732 0.25838
v 0.88879 3.79896 0.24713
v 0.71768 3.84143 0.22269
v 0.71228 3.98867 0.38985
v 0.53491 3.79044 0.19952
v 0.48795 3.87568 0.34663
v 0.40845 3.99165 0.36098
v 0.33713 3.67512 0.30758
v 0.24307 3.72608 0.32966
v 0.16577 3.77940 0.18859
v 0.33844 4.09932 0.21887
v 0.39163 3.64131 0.17743
v 0.34576 3.41903 0.17720
v 0.27759 3.43362 0.31219
v 0.38644 3.17718 0.20730
v 0.29117 3.17458 0.34906
v 0.16656 3.16687 0.35348
v 0.16965 3.44763 0.32302
v 0.06616 3.16181 0.21403
v 0.09259 3.45769 0.18985
v 0.46698 2.93252 0.23791
v 0.06738 2.87974 0.23757
v 0.19644 2.88142 0.38034
v 0.34393 2.89967 0.37886
v 2.75662 1.36512 0.20116
vn 0.18588 -0.76137 -0.62110
vn -0.49941 -0.75572 -0.42364
vn -0.14080 -0.98999 0.00945
vn 0.14138 -0.39091 -0.90951
vn -0.46880 -0.59396 -0.65379
vn 0.63092 -0.77584 -0.00133
vn 0.70332 -0.71088 -0.00065
vn 0.59137 -0.59584 -0.54337
vn 0.46113 -0.46285 -0.75706
vn 0.05328 -0.32647 -0.94371
vn 0.07943 -0.16089 -0.98377
vn -0.21414 0.49087 -0.84451
vn -0.39673 0.73924 -0.54418
vn 0.03466 0.84698 -0.53049
vn 0.16763 0.44619 -0.87910
vn 0.23285 0.10331 -0.96701
vn -0.33088 0.22688 -0.91599
vn -0.72629 0.38648 -0.56844
vn 0.57739 0.50671 -0.64020
vn 0.19197 0.30095 -0.93412
vn 0.65952 0.14177 -0.73820
vn 0.83864 0.19066 -0.51023
vn 0.97331 0.22949 0.00108
vn 0.77293 0.63447 0.00451
vn 0.21405 0.97681 0.00438
vn 0.15358 0.85664 -0.49252
vn 0.16256 0.36166 -0.91803
vn 0.29545 0.21417 -0.93104
vn 0.09992 0.13439 -0.98588
vn 0.98256 0.06248 -0.17513
vn 0.84693 0.13228 -0.51498
vn 0.97842 0.20663 0.00195
vn 0.99818 0.06016 0.00389
vn 0.67174 -0.70682 -0.22173
vn 0.69497 -0.71903 0.00394
vn 0.43747 -0.89923 0.00213
vn 0.41653 -0.86525 -0.27900
vn 0.59087 -0.11367 -0.79872
vn 0.33690 -0.24740 -0.90845
vn 0.35493 -0.06642 -0.93253
vn -0.53155 -0.81767 -0.22107
vn -0.21720 -0.93450 -0.28201
vn -0.22880 -0.97347 0.00136
vn -0.54930 -0.83562 0.00245
vn -0.57703 -0.23433 -0.78238
vn -0.86096 -0.08021 -0.50231
vn -0.33685 -0.15147 -0.92930
vn -0.27843 -0.31347 -0.90786
vn -0.97431 -0.12800 -0.18532
vn -0.99102 -0.13363 0.00388
vn -0.99908 -0.04289 0.00198
vn 0.56051 0.57046 -0.60034
vn 0.20459 0.30341 -0.93064
vn 0.72922 0.16307 -0.66457
vn 0.86637 0.21661 -0.44998
vn 0.39450 0.91888 0.00487
vn 0.06941 0.99758 0.00298
vn 0.01784 0.89807 -0.43950
vn 0.96533 0.26105 0.00062
vn 0.92409 0.38216 0.00130
vn 0.28377 0.26174 -0.92248
vn 0.10757 0.13761 -0.98463
vn -0.03712 0.74698 -0.66381
vn -0.71836 0.06889 -0.69225
vn -0.58196 0.27201 -0.76638
vn -0.24165 -0.17891 -0.95373
vn -0.47610 -0.38350 -0.79136
vn -0.90949 -0.20303 -0.36277
vn -0.91533 0.10978 -0.38746
vn -0.77037 0.48240 -0.41691
vn -0.08603 -0.70612 -0.70284
vn -0.07756 -0.91714 -0.39094
vn -0.35517 -0.85842 -0.37009
vn 0.13069 -0.61410 -0.77833
vn 0.30243 -0.85597 -0.41935
vn 0.38923 -0.32521 -0.86182
vn 0.36381 -0.36757 -0.85588
vn -0.02358 0.00311 -0.99972
vn -0.41392 0.36557 -0.83369
vn -0.37310 0.37855 -0.84705
vn 0.32547 -0.42475 -0.84479
vn -0.39549 0.35341 -0.84776
vn -0.72445 0.08145 -0.68450
vn -0.91339 0.12109 -0.38865
vn -0.77364 0.46983 -0.42514
vn -0.58880 0.26509 -0.76357
vn -0.49910 -0.38898 -0.77433
vn -0.91732 -0.16844 -0.36076
vn -0.25781 -0.20313 -0.94460
vn -0.35781 0.39400 -0.84660
vn -0.34156 0.38516 -0.85731
vn 0.34350 -0.36730 -0.86435
vn 0.30395 -0.40705 -0.86135
vn -0.04782 -0.01021 -0.99880
vn -0.41241 0.37288 -0.83119
vn 0.26210 -0.46731 -0.84435
vn 0.52673 0.04128 -0.84903
vn 0.51845 -0.00395 -0.85510
vn 0.01325 0.03665 -0.99924
vn 0.52259 0.07103 -0.84962
vn -0.45744 0.00012 -0.88924
vn -0.48243 0.01894 -0.87573
vn 0.24105 0.55509 -0.79610
vn 0.65027 0.40808 -0.64080
vn 0.69925 0.58635 -0.40895
vn 0.79037 0.31203 -0.52721
vn 0.37385 0.38167 -0.84532
vn 0.33315 0.77399 -0.53847
vn 0.75661 0.65386 0.00309
vn 0.94902 0.31519 0.00271
vn 0.31931 0.94765 0.00023
vn -0.11811 -0.73602 -0.66657
vn 0.09072 -0.65099 -0.75364
vn 0.22571 -0.88234 -0.41296
vn -0.14225 -0.91682 -0.37310
vn -0.41269 -0.84073 -0.35052
vn -0.53944 0.38769 -0.74746
vn -0.70157 0.54556 -0.45844
vn -0.22457 0.82415 -0.51995
vn -0.14875 0.45869 -0.87606
vn -0.59745 0.16222 -0.78533
vn -0.86717 0.19548 -0.45804
vn -0.10530 0.17464 -0.97898
vn -0.05296 0.08542 -0.99494
vn -0.57186 0.08808 -0.81561
vn 0.45318 0.15273 -0.87824
vn 0.50136 0.08332 -0.86122
vn 0.82804 0.13334 -0.54458
vn 0.83378 0.09841 -0.54326
vn 0.82804 0.12990 -0.54541
vn 0.82530 0.17334 -0.53743
vn 0.92644 0.11458 -0.35859
vn 0.91724 0.15229 -0.36808
vn 0.97750 0.21094 0.00034
vn 0.97621 0.21683 0.00049
vn 0.84017 0.18013 -0.51153
vn 0.98105 0.19374 0.00036
vn 0.98431 0.17644 0.00016
vn 0.88504 0.16896 -0.43377
vn 0.86566 0.17072 -0.47063
vn 0.75747 0.15551 -0.63408
vn 0.47482 -0.00323 -0.88008
vn -0.05003 -0.04883 -0.99755
vn 0.15265 -0.15124 -0.97664
vn -0.81344 -0.27071 -0.51481
vn -0.83047 0.13304 -0.54095
vn -0.91394 0.19355 -0.35672
vn -0.89443 -0.30359 -0.32836
vn -0.15444 0.09514 -0.98341
vn -0.14185 0.21533 -0.96618
vn -0.42152 0.30670 -0.85338
vn 0.74606 0.12584 -0.65388
vn 0.88509 0.13997 -0.44386
vn 0.98880 0.14927 -0.00005
vn 0.50760 -0.86159 0.00016
vn 0.46924 -0.88307 -0.00003
vn 0.40790 -0.75575 -0.51231
vn 0.43558 -0.73558 -0.51884
vn 0.47119 -0.72780 -0.49828
vn 0.54579 -0.83792 0.00004
vn 0.36510 -0.34144 -0.86610
vn 0.53879 -0.71058 -0.45253
vn 0.60908 -0.79311 -0.00008
vn 0.64517 -0.65672 -0.39047
vn 0.70432 -0.70989 0.00016
vn 0.90025 -0.43537 0.00015
vn 0.88757 -0.46068 0.00017
vn 0.83497 -0.42694 -0.34720
vn 0.82687 -0.38950 -0.40568
vn 0.80078 -0.38007 -0.46291
vn 0.90074 -0.43435 0.00004
vn 0.73674 -0.33627 -0.58663
vn 0.68787 -0.31970 -0.65164
vn 0.65276 -0.30765 -0.69228
vn 0.78052 -0.37219 -0.50225
vn 0.90113 -0.43354 0.00001
vn 0.76466 -0.35995 -0.53455
vn 0.90430 -0.42690 0.00005
vn -0.78655 0.61753 0.00021
vn -0.97303 0.23066 0.00034
vn -0.90651 0.22319 -0.35837
vn -0.73075 0.58410 -0.35331
vn -0.32522 0.85860 -0.39628
vn -0.34741 0.93771 0.00127
vn -0.63937 0.52167 -0.56486
vn -0.28831 0.73279 -0.61636
vn 0.12827 0.04458 -0.99074
vn 0.01494 0.02596 -0.99955
vn 0.57292 -0.58876 -0.57019
vn 0.70590 -0.49044 -0.51105
vn 0.77265 -0.53604 -0.34010
vn 0.76432 -0.38487 -0.51738
vn 0.82219 -0.56921 0.00020
vn -0.04901 -0.07139 -0.99624
vn -0.03940 -0.10815 -0.99335
vn -0.80071 0.07053 -0.59488
vn -0.80691 0.20895 -0.55248
vn -0.90961 0.07103 -0.40935
vn -0.88481 0.05721 -0.46242
vn -0.76153 0.05793 -0.64554
vn -0.03965 -0.09775 -0.99442
vn -0.86593 0.04753 -0.49791
vn -0.73287 0.04781 -0.67869
vn -0.04558 -0.08932 -0.99496
vn -0.84996 0.03471 -0.52570
vn -0.70777 0.03207 -0.70572
vn -0.05322 -0.08918 -0.99459
vn -0.39542 -0.03399 -0.91787
vn -0.05651 -0.08585 -0.99470
vn 0.62337 -0.29177 -0.72546
vn 0.59537 -0.27000 -0.75673
vn 0.75009 -0.34310 -0.56538
vn 0.26839 -0.16985 -0.94822
vn 0.73113 -0.33245 -0.59575
vn 0.84879 -0.38700 -0.36027
vn 0.90843 -0.41804 0.00008
vn -0.99847 0.05525 -0.00024
vn -0.99888 0.04729 0.00002
vn -0.99751 0.07048 0.00002
vn -0.99928 0.03784 0.00005
vn -0.99943 0.03362 0.00003
vn -0.83639 0.02761 -0.54743
vn -0.93469 0.03629 -0.35361
vn -0.82378 0.03412 -0.56588
vn -0.38234 -0.01902 -0.92383
vn -0.81364 0.04739 -0.57943
vn -0.37385 -0.00259 -0.92749
vn 0.25125 -0.12671 -0.95959
vn -0.36582 0.04922 -0.92938
vn 0.24272 -0.05228 -0.96869
vn 0.74886 -0.15349 -0.64471
vn 0.73206 -0.27120 -0.62493
vn 0.90088 -0.18819 -0.39115
vn 0.86751 -0.32180 -0.37931
vn -0.93031 0.05544 -0.36255
vn -0.98564 0.16887 -0.00035
vn -0.80245 0.12732 -0.58298
vn -0.87315 0.48745 0.00007
vn -0.49051 0.87144 0.00043
vn -0.03621 0.99934 0.00165
vn 0.46235 0.88670 -0.00097
vn 0.44110 0.85779 -0.26386
vn 0.90907 0.41662 -0.00324
vn 0.92233 -0.00672 -0.38635
vn 0.75174 0.02235 -0.65908
vn 0.34816 -0.80568 -0.47923
vn 0.19881 -0.55092 -0.81053
vn 0.39432 -0.91897 -0.00017
vn -0.13742 -0.09715 -0.98574
vn -0.47962 0.34601 -0.80638
vn -0.67837 0.55489 -0.48158
vn -0.65323 0.56181 -0.50760
vn -0.77662 0.62997 0.00005
vn -0.76319 0.64617 0.00005
vn -0.78011 0.62565 -0.00002
vn -0.65646 0.54820 -0.51821
vn -0.78689 0.61710 0.00007
vn -0.67111 0.53712 -0.51100
vn -0.83538 0.54968 0.00096
vn -0.75996 0.46714 -0.45193
vn -0.96892 0.24738 0.00060
vn -0.94558 -0.32540 -0.00003
vn -0.78511 -0.61936 0.00046
vn -0.86015 0.51004 0.00072
vn -0.99188 0.12715 0.00105
vn -0.98632 -0.16482 0.00062
vn -0.43463 -0.90061 -0.00082
vn -0.16409 -0.98645 -0.00125
vn 0.23746 -0.97140 -0.00092
vn 0.98915 0.14694 0.00006
vn 0.77227 -0.63529 -0.00004
vn 0.78668 -0.61737 -0.00005
vn 0.69850 -0.54159 -0.46773
vn 0.66558 -0.54044 -0.51472
vn 0.59795 -0.45617 -0.65907
vn 0.54698 -0.43673 -0.71420
vn -0.10924 -0.07090 -0.99148
vn -0.09359 -0.09133 -0.99141
vn -0.44295 0.03721 -0.89577
vn -0.14042 -0.08033 -0.98683
vn -0.71805 0.17192 -0.67442
vn -0.85260 0.19033 -0.48666
vn -0.83647 0.17469 -0.51942
vn -0.83134 0.14442 -0.53668
vn -0.97989 0.19953 -0.00003
vn -0.98323 0.18238 0.00002
vn -0.92533 0.15785 -0.34474
vn -0.83472 0.13123 -0.53481
vn -0.98853 0.15104 -0.00003
vn -0.84365 0.12821 -0.52136
vn -0.52388 0.07467 -0.84851
vn -0.86023 0.10658 -0.49864
vn -0.99242 0.12288 -0.00022
vn -0.97145 0.23723 0.00031
vn -0.78133 0.62412 0.00058
vn -0.26982 0.96291 -0.00002
vn -0.97849 0.20631 -0.00025
vn -0.87378 0.20600 -0.44055
vn -0.97567 0.21925 0.00009
vn -0.88213 0.28587 -0.37433
vn -0.95555 0.29482 0.00044
vn -0.75335 0.18874 -0.62995
vn -0.78437 0.27071 -0.55810
vn -0.72159 0.47719 -0.50159
vn -0.79904 0.50885 -0.32031
vn -0.08732 -0.08410 -0.99262
vn -0.06419 -0.01340 -0.99785
vn 0.03010 0.06793 -0.99724
vn 0.61988 -0.54513 -0.56443
vn 0.63284 -0.49021 -0.59934
vn 0.71912 -0.55899 -0.41280
vn 0.69822 -0.60811 -0.37775
vn 0.65936 -0.64352 -0.38875
vn 0.58020 -0.57272 -0.57910
vn 0.60942 -0.66179 -0.43662
vn 0.52605 -0.57538 -0.62627
vn 0.75645 -0.65405 0.00007
vn 0.71934 -0.69466 0.00008
vn 0.67951 -0.73367 0.00009
vn 0.63950 -0.76880 0.00015
vn 0.56001 -0.67406 -0.48170
vn 0.62205 -0.78298 0.00015
vn 0.57589 -0.81753 -0.00004
vn 0.50498 -0.70426 -0.49901
vn 0.54033 -0.67472 -0.50279
vn 0.43543 -0.76647 -0.47216
vn 0.25594 -0.51137 -0.82036
vn 0.49152 -0.87086 -0.00001
vn 0.32898 -0.94434 -0.00051
vn -0.85159 0.52420 0.00054
vn -0.77729 0.62915 0.00002
vn -0.68555 0.55463 -0.47161
vn -0.99289 0.11905 0.00084
vn -0.98120 -0.19299 0.00059
vn -0.35663 -0.93424 -0.00093
vn -0.08009 -0.99679 -0.00103
vn -0.76834 0.64005 0.00000
vn -0.66530 0.55928 -0.49455
vn -0.47701 0.34669 -0.80763
vn -0.11197 -0.07257 -0.99106
vn -0.77515 0.63178 -0.00002
vn -0.66665 0.55187 -0.50102
vn -0.80925 0.58746 0.00103
vn -0.72066 0.50617 -0.47376
vn -0.90376 0.42803 0.00129
vn -0.84551 0.36432 -0.39037
vn -0.48502 0.25822 -0.83551
vn -0.94713 0.04074 -0.31827
vn -0.87227 0.02752 -0.48825
vn -0.10455 0.06043 -0.99268
vn -0.13064 0.18814 -0.97341
vn -0.04524 -0.06639 -0.99677
vn 0.81254 0.10450 -0.57346
vn 0.82898 0.12162 -0.54589
vn 0.92060 0.13442 -0.36665
vn 0.91557 0.12089 -0.38355
vn 0.98955 0.14418 -0.00007
vn 0.99095 0.13427 -0.00004
vn -0.99867 0.05147 0.00025
vn -0.94860 -0.31648 0.00011
vn -0.90152 -0.28854 -0.32249
vn 0.98687 0.16155 -0.00002
vn 0.98710 0.16011 -0.00001
vn 0.86435 0.14470 -0.48162
vn 0.84968 0.14159 -0.50793
vn 0.83311 0.15102 -0.53210
vn 0.98409 0.17769 -0.00016
vn 0.71022 0.12118 -0.69348
vn 0.67767 0.12376 -0.72487
vn 0.30280 0.10937 -0.94676
vn 0.76179 0.30430 -0.57191
vn 0.92717 0.37464 -0.00004
vn 0.42115 0.67494 -0.60587
vn 0.83520 0.54995 0.00013
vn -0.86761 -0.49725 -0.00008
vn -0.86220 -0.50656 0.00013
vn -0.75899 -0.44055 -0.47942
vn -0.78128 -0.44320 -0.43952
vn -0.82348 -0.41922 -0.38229
vn -0.88754 -0.46073 -0.00003
vn -0.68152 -0.38220 -0.62406
vn -0.73836 -0.36680 -0.56593
vn -0.82889 -0.25144 -0.49973
vn 0.00600 -0.10864 -0.99406
vn 0.02522 -0.10033 -0.99463
vn 0.80434 0.13786 -0.57795
vn 0.76365 0.13715 -0.63089
vn 0.88219 0.15166 -0.44580
vn 0.90525 0.14922 -0.39782
vn 0.98664 0.16290 -0.00004
vn 0.98756 0.15723 -0.00006
vn 0.73380 0.12747 -0.66730
vn 0.02844 -0.09159 -0.99539
vn 0.02889 -0.08818 -0.99568
vn -0.62451 -0.35810 -0.69409
vn -0.65018 -0.37099 -0.66305
vn -0.74192 -0.43431 -0.51081
vn -0.72523 -0.43019 -0.53757
vn -0.59587 -0.34586 -0.72478
vn 0.02097 -0.06671 -0.99755
vn -0.70302 -0.44574 -0.55415
vn -0.30397 -0.19709 -0.93207
vn -0.65583 -0.52257 -0.54479
vn -0.31854 -0.21207 -0.92388
vn 0.10801 0.26074 -0.95935
vn -0.26218 -0.31669 -0.91157
vn -0.10935 0.33593 -0.93552
vn -0.05140 0.84335 -0.53490
vn -0.34939 0.61050 -0.71079
vn -0.40612 0.77522 -0.48383
vn -0.44008 0.89796 0.00011
vn -0.04272 0.99909 0.00048
vn 0.14459 0.98949 0.00089
vn -0.85646 -0.51622 -0.00008
vn -0.84097 -0.54108 -0.00023
vn -0.85959 -0.51099 -0.00002
vn -0.78614 -0.61805 -0.00075
vn -0.55748 -0.83019 0.00103
vn -0.46008 -0.72410 -0.51381
vn -0.06529 -0.99786 0.00236
vn -0.03268 -0.89833 -0.43811
vn 0.00383 -0.75321 -0.65777
vn 0.46383 -0.81586 -0.34531
vn 0.42439 -0.71797 -0.55173
vn -0.12541 -0.08261 -0.98866
vn -0.02443 -0.15365 -0.98782
vn 0.09608 -0.11397 -0.98883
vn -0.61991 0.45878 -0.63658
vn -0.78512 0.28114 -0.55186
vn -0.87817 0.31994 -0.35561
vn -0.71568 0.55890 -0.41885
vn -0.93793 0.34682 -0.00016
vn -0.77543 0.63143 0.00001
vn 0.48265 -0.87581 0.00079
vn 0.88720 -0.46139 -0.00020
vn 0.84401 -0.44710 -0.29622
vn 0.99987 0.01636 -0.00048
vn 0.95092 -0.00188 -0.30943
vn 0.87976 -0.01866 -0.47505
vn 0.77392 -0.41846 -0.47533
vn 0.89341 0.25096 -0.37261
vn 0.80600 0.21364 -0.55202
vn 0.10945 0.04387 -0.99302
vn 0.04327 0.11516 -0.99240
vn -0.83637 0.14615 -0.52833
vn -0.80860 0.05174 -0.58608
vn -0.91761 0.06205 -0.39260
vn -0.92438 0.16091 -0.34587
vn -0.99746 0.07124 0.00003
vn -0.98522 0.17129 -0.00001
vn 0.95913 0.28297 -0.00006
vn 0.93639 0.35095 0.00023
vn 0.84010 0.29954 -0.45223
vn -0.99926 0.03851 -0.00004
vn -0.89144 0.02551 -0.45242
vn -0.74763 0.01207 -0.66401
vn 0.00909 0.06331 -0.99795
vn 0.71045 0.23600 -0.66300
vn 0.78882 -0.61462 0.00009
vn -0.85093 0.52528 0.00008
vn -0.49902 0.79736 -0.33941
vn -0.52013 0.85409 0.00035
vn -0.45942 0.70881 -0.53528
vn 0.18077 0.05311 -0.98209
vn -0.48227 -0.76887 0.41983
vn 0.19355 -0.76343 0.61621
vn -0.43037 -0.63176 0.64472
vn 0.16394 -0.40274 0.90051
vn 0.58970 -0.59759 0.54327
vn 0.04660 -0.32789 0.94357
vn 0.45757 -0.46509 0.75784
vn 0.08053 -0.16381 0.98320
vn 0.16902 0.45128 0.87623
vn 0.03423 0.85017 0.52540
vn -0.39832 0.73319 0.55116
vn -0.21580 0.48173 0.84933
vn -0.32733 0.22772 0.91706
vn 0.23482 0.10028 0.96685
vn -0.72356 0.38811 0.57081
vn 0.83533 0.20250 0.51110
vn 0.65384 0.16498 0.73843
vn 0.18869 0.30746 0.93267
vn 0.58112 0.50695 0.63663
vn 0.16087 0.85292 0.49664
vn 0.31434 0.20968 0.92586
vn 0.17731 0.35610 0.91747
vn 0.10298 0.13342 0.98569
vn 0.85104 0.12952 0.50888
vn 0.98156 0.05589 0.18278
vn 0.42306 -0.86053 0.28374
vn 0.68233 -0.69412 0.22942
vn 0.36344 -0.06730 0.92918
vn 0.35294 -0.25355 0.90063
vn 0.61838 -0.12265 0.77625
vn -0.22163 -0.93254 0.28505
vn -0.53926 -0.81129 0.22585
vn -0.60865 -0.24533 0.75456
vn -0.66825 -0.11860 0.73442
vn -0.86459 -0.08510 0.49522
vn -0.84005 -0.20183 0.50357
vn 0.86302 0.22887 0.45036
vn 0.72326 0.18689 0.66481
vn 0.19989 0.31014 0.92944
vn 0.56509 0.57099 0.59552
vn 0.02820 0.89648 0.44218
vn 0.11038 0.13506 0.98467
vn 0.30707 0.25934 0.91567
vn -0.00905 0.74530 0.66667
vn -0.46916 -0.37609 0.79903
vn -0.24381 -0.18217 0.95256
vn -0.58398 0.26514 0.76725
vn -0.71279 0.07194 0.69768
vn -0.91113 0.11118 0.39684
vn -0.90773 -0.18604 0.37605
vn -0.77188 0.47618 0.42126
vn -0.34460 -0.85868 0.37937
vn -0.07587 -0.91449 0.39743
vn -0.08380 -0.70320 0.70604
vn 0.12629 -0.61514 0.77823
vn 0.29816 -0.85604 0.42225
vn 0.36675 -0.36644 0.85511
vn 0.39723 -0.32138 0.85961
vn -0.37172 0.37823 0.84780
vn -0.41133 0.36467 0.83536
vn -0.02143 0.00287 0.99977
vn 0.32531 -0.42455 0.84494
vn -0.39523 0.35971 0.84523
vn -0.58881 0.26129 0.76487
vn -0.77352 0.46653 0.42897
vn -0.91070 0.12039 0.39514
vn -0.72079 0.08184 0.68831
vn -0.91572 -0.15899 0.36902
vn -0.49287 -0.38430 0.78064
vn -0.25927 -0.20404 0.94401
vn -0.34139 0.38727 0.85643
vn -0.35632 0.39287 0.84775
vn 0.30619 -0.40527 0.86139
vn 0.34878 -0.36533 0.86307
vn -0.41137 0.37258 0.83184
vn -0.04582 -0.00717 0.99892
vn 0.26244 -0.46509 0.84547
vn 0.52225 -0.00682 0.85277
vn 0.52948 0.03996 0.84738
vn 0.52319 0.07085 0.84927
vn 0.01525 0.03422 0.99930
vn -0.48188 0.01504 0.87611
vn -0.45878 -0.00175 0.88855
vn 0.66048 0.41532 0.62551
vn 0.39947 0.79773 0.45172
vn 0.33886 0.77636 0.53144
vn 0.38064 0.38538 0.84059
vn 0.79092 0.31743 0.52314
vn 0.69889 0.59202 0.40132
vn -0.14256 -0.91433 0.37904
vn 0.22293 -0.88134 0.41659
vn 0.08507 -0.64913 0.75591
vn -0.11902 -0.73099 0.67193
vn -0.40361 -0.84214 0.35762
vn -0.15496 0.44976 0.87961
vn -0.23297 0.81680 0.52779
vn -0.70353 0.53663 0.46591
vn -0.54148 0.37644 0.75173
vn -0.86451 0.19825 0.46186
vn -0.59400 0.16646 0.78706
vn -0.10469 0.17709 0.97861
vn -0.57226 0.08975 0.81514
vn -0.05321 0.08708 0.99478
vn 0.45385 0.15255 0.87792
vn 0.50236 0.08386 0.86058
vn 0.83399 0.09884 0.54285
vn 0.82773 0.13230 0.54531
vn 0.82805 0.13017 0.54534
vn 0.82529 0.17272 0.53765
vn 0.91704 0.15268 0.36842
vn 0.92629 0.11463 0.35896
vn 0.83967 0.18104 0.51203
vn 0.86510 0.17117 0.47148
vn 0.88506 0.16770 0.43423
vn 0.47605 -0.00277 0.87941
vn 0.75739 0.15366 0.63463
vn 0.15656 -0.15075 0.97610
vn -0.05041 -0.04151 0.99787
vn -0.89513 -0.30667 0.32358
vn -0.91418 0.19860 0.35332
vn -0.83234 0.14621 0.53463
vn -0.81558 -0.27911 0.50687
vn -0.15811 0.09786 0.98256
vn -0.42112 0.31684 0.84986
vn -0.14265 0.21692 0.96571
vn 0.88463 0.14295 0.44383
vn 0.74536 0.12985 0.65389
vn 0.43600 -0.73530 0.51888
vn 0.40785 -0.75602 0.51195
vn 0.47222 -0.72704 0.49842
vn 0.54078 -0.70886 0.45285
vn 0.36844 -0.33977 0.86533
vn 0.64651 -0.65555 0.39022
vn 0.82555 -0.39192 0.40605
vn 0.83393 -0.42872 0.34752
vn 0.80059 -0.38045 0.46295
vn 0.68739 -0.32071 0.65164
vn 0.73445 -0.34055 0.58704
vn 0.78101 -0.37102 0.50236
vn 0.65371 -0.30526 0.69245
vn 0.76491 -0.35934 0.53458
vn -0.73038 0.58511 0.35242
vn -0.90543 0.22540 0.35971
vn -0.33046 0.85526 0.39915
vn -0.29278 0.72839 0.61945
vn -0.63874 0.52434 0.56310
vn 0.12470 0.04555 0.99115
vn 0.01517 0.02998 0.99944
vn 0.77272 -0.53627 0.33958
vn 0.70590 -0.49175 0.50980
vn 0.57445 -0.58798 0.56946
vn 0.76298 -0.38712 0.51768
vn -0.04711 -0.07222 0.99628
vn -0.03979 -0.10868 0.99328
vn -0.90939 0.07155 0.40976
vn -0.80524 0.21038 0.55437
vn -0.80026 0.07003 0.59555
vn -0.76219 0.05549 0.64497
vn -0.88520 0.05565 0.46188
vn -0.03983 -0.09823 0.99437
vn -0.73326 0.04575 0.67841
vn -0.86605 0.04685 0.49775
vn -0.04574 -0.08981 0.99491
vn -0.70815 0.03027 0.70541
vn -0.85007 0.03414 0.52556
vn -0.05324 -0.08930 0.99458
vn -0.05649 -0.08584 0.99471
vn -0.39541 -0.03393 0.91788
vn 0.75009 -0.34300 0.56543
vn 0.59548 -0.26976 0.75672
vn 0.62352 -0.29145 0.72545
vn 0.73173 -0.33121 0.59571
vn 0.26897 -0.16884 0.94823
vn 0.84867 -0.38726 0.36026
vn -0.83638 0.02769 0.54746
vn -0.82370 0.03410 0.56600
vn -0.93466 0.03587 0.35374
vn -0.38238 -0.01919 0.92381
vn -0.37372 -0.00305 0.92754
vn -0.81343 0.04693 0.57976
vn 0.25124 -0.12649 0.95962
vn 0.24194 -0.05271 0.96886
vn -0.36568 0.04905 0.92945
vn 0.73205 -0.27079 0.62512
vn 0.74827 -0.15394 0.64529
vn 0.86742 -0.32180 0.37950
vn 0.90067 -0.18847 0.39151
vn -0.80247 0.12728 0.58296
vn -0.93019 0.05503 0.36292
vn 0.75321 0.01943 0.65749
vn 0.92258 -0.00698 0.38575
vn 0.19971 -0.55021 0.81079
vn 0.35037 -0.80486 0.47900
vn -0.13775 -0.09636 0.98577
vn -0.47959 0.34680 0.80606
vn -0.67721 0.55638 0.48149
vn -0.65343 0.56154 0.50765
vn -0.65707 0.54660 0.51912
vn -0.67128 0.53768 0.51018
vn -0.75857 0.47298 0.44818
vn 0.66499 -0.54105 0.51483
vn 0.69849 -0.54190 0.46739
vn 0.54622 -0.43726 0.71445
vn 0.59772 -0.45719 0.65856
vn -0.10939 -0.07141 0.99143
vn -0.09415 -0.09259 0.99124
vn -0.14047 -0.08069 0.98679
vn -0.44303 0.03732 0.89573
vn -0.83639 0.17544 0.51930
vn -0.85230 0.19171 0.48664
vn -0.71711 0.17460 0.67473
vn -0.83155 0.14377 0.53652
vn -0.83512 0.13102 0.53424
vn -0.92535 0.15771 0.34476
vn -0.84389 0.12840 0.52093
vn -0.52320 0.07261 0.84911
vn -0.86026 0.10639 0.49864
vn -0.87387 0.20615 0.44029
vn -0.88126 0.28739 0.37521
vn -0.75403 0.18785 0.62940
vn -0.78389 0.27029 0.55898
vn -0.79757 0.51061 0.32117
vn -0.71959 0.47867 0.50305
vn -0.08829 -0.08437 0.99252
vn -0.06461 -0.01397 0.99781
vn 0.02932 0.06294 0.99759
vn 0.69760 -0.60851 0.37825
vn 0.71962 -0.55816 0.41305
vn 0.63353 -0.48894 0.59965
vn 0.61910 -0.54520 0.56522
vn 0.57941 -0.57380 0.57882
vn 0.65933 -0.64360 0.38866
vn 0.52701 -0.57526 0.62558
vn 0.60981 -0.66163 0.43633
vn 0.56074 -0.67334 0.48185
vn 0.54065 -0.67436 0.50292
vn 0.50488 -0.70449 0.49879
vn 0.25600 -0.51193 0.82000
vn 0.43492 -0.76684 0.47201
vn -0.68498 0.55507 0.47190
vn -0.66481 0.55921 0.49528
vn -0.47646 0.34593 0.80828
vn -0.11127 -0.07355 0.99107
vn -0.66667 0.55158 0.50131
vn -0.71998 0.50935 0.47137
vn -0.84572 0.36454 0.38971
vn -0.48463 0.26237 0.83444
vn -0.87162 0.02326 0.48963
vn -0.94698 0.03684 0.31917
vn -0.13031 0.18827 0.97343
vn -0.10502 0.05963 0.99268
vn -0.04634 -0.06762 0.99663
vn 0.91533 0.12312 0.38342
vn 0.92066 0.13525 0.36618
vn 0.82931 0.12272 0.54515
vn 0.81223 0.10770 0.57331
vn -0.90170 -0.28854 0.32199
vn 0.84976 0.14068 0.50805
vn 0.86439 0.14423 0.48170
vn 0.83333 0.15159 0.53158
vn 0.67822 0.12439 0.72425
vn 0.71031 0.11928 0.69371
vn 0.76317 0.30600 0.56915
vn 0.30479 0.11116 0.94591
vn 0.42384 0.67657 0.60217
vn -0.78143 -0.44254 0.43991
vn -0.75954 -0.43911 0.47987
vn -0.82356 -0.41918 0.38214
vn -0.73831 -0.36728 0.56569
vn -0.68203 -0.37998 0.62486
vn -0.82885 -0.25355 0.49871
vn 0.00567 -0.10907 0.99402
vn 0.02517 -0.09982 0.99469
vn 0.90544 0.14860 0.39762
vn 0.88238 0.15048 0.44583
vn 0.76374 0.13611 0.63101
vn 0.80467 0.13699 0.57770
vn 0.73373 0.12715 0.66744
vn 0.02841 -0.09147 0.99540
vn 0.02891 -0.08806 0.99570
vn -0.74199 -0.43446 0.51059
vn -0.65075 -0.36896 0.66362
vn -0.62466 -0.35848 0.69375
vn -0.59657 -0.34857 0.72291
vn -0.72530 -0.43159 0.53635
vn 0.02103 -0.06639 0.99757
vn -0.30512 -0.19825 0.93145
vn -0.70346 -0.44631 0.55312
vn -0.31292 -0.20917 0.92646
vn -0.65447 -0.52125 0.54770
vn 0.11374 0.26556 0.95736
vn -0.10278 0.34374 0.93342
vn -0.25789 -0.31346 0.91391
vn -0.04972 0.84462 0.53305
vn -0.40595 0.77532 0.48382
vn -0.34874 0.61105 0.71063
vn -0.45823 -0.72521 0.51390
vn -0.03091 -0.89740 0.44012
vn 0.00073 -0.75299 0.65804
vn 0.42641 -0.70771 0.56331
vn 0.46656 -0.81117 0.35261
vn -0.12209 -0.08278 0.98906
vn -0.02861 -0.15414 0.98763
vn 0.09567 -0.10817 0.98952
vn -0.71589 0.55929 0.41796
vn -0.87821 0.32075 0.35477
vn -0.78549 0.28251 0.55063
vn -0.62060 0.45987 0.63512
vn 0.84383 -0.44560 0.29899
vn 0.95123 0.00045 0.30849
vn 0.77258 -0.41492 0.48058
vn 0.88032 -0.01647 0.47410
vn 0.80554 0.21317 0.55286
vn 0.89316 0.25132 0.37297
vn 0.11164 0.04181 0.99287
vn 0.04137 0.11312 0.99272
vn -0.92384 0.16186 0.34688
vn -0.91726 0.06465 0.39302
vn -0.80788 0.05522 0.58676
vn -0.83502 0.14725 0.53015
vn 0.83949 0.29926 0.45355
vn -0.89129 0.02634 0.45266
vn -0.74718 0.01293 0.66449
vn 0.00890 0.06279 0.99799
vn 0.02851 -0.17067 0.98492
vn 0.70862 0.23640 0.66481
vn -0.50349 0.79316 0.34263
vn -0.46485 0.70133 0.54042
vn 0.18746 0.05457 0.98076
vn 0.05113 -0.35832 0.93220
f 1//1 17//2 358//3 359//3
f 1//1 18//4 19//5 17//2
f 1//1 359//6 16//7 20//8
f 1//1 20//8 21//9 22//10
f 1//1 22//10 12//11 18//4
f 2//12 23//13 24//14 25//15
f 2//12 25//15 26//16 27//17
f 2//12 27//17 28//18 23//13
f 3//19 32//20 33//21 34//22
f 3//19 34//22 30//23 29//24
f 3//19 29//24 31//25 35//26
f 3//19 35//26 36//27 37//28
f 3//19 37//28 11//29 32//20
f 4//30 41//31 39//32 38//33
f 4//34 38//35 40//36 42//37
f 4//38 42//39 43//40 41//31
f 5//41 46//42 360//43 45//44
f 5//45 47//46 48//47 46//48
f 5//49 45//50 44//51 47//46
f 6//52 52//53 53//54 54//55
f 6//52 49//56 51//57 55//58
f 6//52 54//55 50//59 49//60
f 6//52 56//61 9//62 52//53
f 6//52 55//58 57//63 56//61
f 7//64 58//65 59//66 60//67
f 7//64 60//67 61//68 62//69
f 7//64 62//69 63//70 58//65
f 8//71 64//72 61//73 60//67
f 8//71 60//67 59//66 65//74
f 8//71 65//74 66//75 64//72
f 9//62 56//61 67//76 68//77
f 9//62 69//78 70//79 71//80
f 9//62 68//77 72//81 69//78
f 9//62 71//80 73//82 52//53
f 10//83 74//84 75//85 76//86
f 10//83 77//87 78//88 74//84
f 10//83 76//86 79//89 77//87
f 11//29 80//90 81//91 32//20
f 11//29 37//28 82//92 83//93
f 11//29 84//94 85//95 80//90
f 11//29 83//93 86//96 84//94
f 12//11 87//97 88//98 18//4
f 12//11 89//99 90//100 87//97
f 12//11 22//10 91//101 92//102
f 93//103 94//104 25//15 24//14
f 13//105 98//106 99//107 100//108
f 13//105 96//109 95//110 98//106
f 13//105 100//108 97//111 96//109
f 14//112 101//113 102//114 103//115
f 14//112 103//115 78//116 77//87
f 14//112 77//87 79//89 101//113
f 15//117 104//118 105//119 106//120
f 15//117 107//121 108//122 104//118
f 15//117 106//120 109//123 107//121
f 109//123 110//124 111//125 107//121
f 109//123 106//120 99//107 112//126
f 109//123 112//126 113//127 110//124
f 113//127 90//100 89//99 110//124
f 113//127 112//126 114//128 115//129
f 113//127 115//129 116//130 90//100
f 116//130 117//131 87//97 90//100
f 116//130 115//129 361//132 118//133
f 116//130 118//133 362//134 117//131
f 362//134 119//135 120//136 117//131
f 121//137 363//138 122//139 123//140
f 121//137 123//140 120//136 119//135
f 123//140 122//139 124//141 125//142
f 123//140 125//142 88//98 120//136
f 125//142 124//143 126//143 19//144
f 125//142 19//144 18//4 88//98
f 126//145 127//146 128//147 129//148
f 126//145 129//148 17//2 19//5
f 126//143 124//143 130//149 127//149
f 130//149 33//150 131//151 127//149
f 130//152 124//141 122//139 132//153
f 130//152 132//153 34//22 33//21
f 132//153 122//139 363//138 133//154
f 132//153 133//154 30//23 34//22
f 139//155 364//156 141//157 142//158
f 139//155 142//158 143//159 140//160
f 143//159 142//158 83//93 82//92
f 143//159 82//92 144//161 145//162
f 143//159 145//162 146//163 140//160
f 146//163 145//162 147//164 365//165
f 366//166 367//167 149//168 150//169
f 366//166 150//169 151//170 148//171
f 151//170 150//169 152//172 153//173
f 151//170 153//173 154//174 155//175
f 151//170 155//175 156//176 148//171
f 156//176 155//175 157//177 158//178
f 160//179 159//180 161//181 162//182
f 160//179 162//182 163//183 164//184
f 164//184 163//183 35//26 31//25
f 163//183 162//182 165//185 166//186
f 163//183 166//186 36//27 35//26
f 166//187 165//188 167//188 168//187
f 166//187 168//187 144//161 36//27
f 168//189 167//190 169//191 147//164
f 168//189 147//164 145//162 144//161
f 169//191 167//190 170//192 149//168
f 169//191 149//168 367//167 368//193
f 169//191 368//193 365//165 147//164
f 170//194 167//188 165//188 171//194
f 170//194 171//194 172//195 152//195
f 170//192 152//172 150//169 149//168
f 172//196 171//197 161//181 173//198
f 172//196 173//198 174//199 175//200
f 172//195 175//201 153//201 152//195
f 175//200 174//199 176//202 177//203
f 175//201 177//204 154//204 153//201
f 177//203 176//202 178//205 179//206
f 177//204 179//207 180//207 154//204
f 180//207 179//207 181//208 182//209
f 180//210 182//211 183//212 157//177
f 180//210 157//177 155//175 154//174
f 183//212 182//211 184//213 185//214
f 183//212 185//214 369//215 186//216
f 183//212 186//216 158//178 157//177
f 371//217 187//218 176//202 174//199
f 371//217 174//199 173//198 372//219
f 187//218 370//220 178//205 176//202
f 370//220 373//221 188//222 178//205
f 188//222 373//221 189//223 190//224
f 188//222 190//224 191//225 181//208
f 188//222 181//208 179//206 178//205
f 191//225 190//224 192//226 193//227
f 191//225 193//227 194//228 184//213
f 191//225 184//213 182//209 181//208
f 194//228 193//227 195//229 196//230
f 194//228 196//230 197//231 198//232
f 194//228 198//232 185//214 184//213
f 198//232 197//231 374//233 375//234
f 198//232 375//234 369//215 185//214
f 376//235 377//236 199//237 192//226
f 376//235 192//226 190//224 189//223
f 199//237 377//236 200//238 28//18
f 199//237 28//18 27//17 195//229
f 199//237 195//229 193//227 192//226
f 200//238 201//239 23//13 28//18
f 201//239 202//240 24//14 23//13
f 202//240 203//241 93//242 24//14
f 203//241 204//243 94//104 93//242
f 204//243 378//244 205//245 94//104
f 205//245 197//231 196//230 26//16
f 205//245 26//16 25//15 94//104
f 205//245 378//244 374//233 197//231
f 196//230 195//229 27//17 26//16
f 173//198 161//181 159//180 372//219
f 171//197 165//185 162//182 161//181
f 144//161 82//92 37//28 36//27
f 142//158 141//157 86//96 83//93
f 141//157 206//246 207//247 86//96
f 141//157 364//156 379//248 206//246
f 207//247 101//113 79//89 208//249
f 207//247 208//249 84//94 86//96
f 207//247 206//246 102//114 101//113
f 208//249 79//89 76//86 209//250
f 208//249 209//250 85//95 84//94
f 209//250 76//86 75//85 210//251
f 209//250 210//251 211//252 85//95
f 211//252 210//251 138//253 137//254
f 211//252 137//254 136//255 212//256
f 211//252 212//256 80//90 85//95
f 212//256 136//255 135//257 213//258
f 212//256 213//258 81//91 80//90
f 213//258 135//257 134//259 214//260
f 213//258 214//260 131//151 81//91
f 214//260 134//259 380//261 128//147
f 214//260 128//147 127//146 131//151
f 380//261 381//262 129//148 128//147
f 381//262 358//263 17//2 129//148
f 210//251 75//85 215//264 138//253
f 215//264 75//85 74//84 216//265
f 216//265 74//84 78//88 217//266
f 217//267 78//116 103//115 218//268
f 218//268 103//115 102//114 382//269
f 382//269 102//114 206//246 379//248
f 131//151 33//150 32//20 81//91
f 383//270 361//132 115//129 114//128
f 383//270 114//128 98//106 95//110
f 221//271 385//272 222//273 223//274
f 221//271 223//274 20//8 16//7
f 223//274 222//273 224//275 225//276
f 223//274 225//276 21//9 20//8
f 225//277 224//278 226//278 227//277
f 225//277 227//277 228//279 21//280
f 228//279 227//281 229//282 230//283
f 228//279 230//283 231//284 91//101
f 228//279 91//101 22//10 21//280
f 231//284 230//283 220//285 219//286
f 231//284 219//286 384//287 232//288
f 231//284 232//288 92//102 91//101
f 232//288 384//287 386//289 233//290
f 232//288 233//290 234//291 92//102
f 234//291 233//290 235//292 111//125
f 234//291 111//125 110//124 89//99
f 234//291 89//99 12//11 92//102
f 235//292 233//290 386//289 387//293
f 235//292 387//293 236//294 108//122
f 235//292 108//122 107//121 111//125
f 236//294 237//295 104//118 108//122
f 237//295 238//296 105//119 104//118
f 238//296 97//111 100//108 105//119
f 230//283 229//282 388//297 220//285
f 388//297 229//282 239//298 389//299
f 239//298 240//300 241//301 389//299
f 239//298 229//282 227//281 226//302
f 239//298 226//302 242//303 240//300
f 242//303 243//304 244//305 240//300
f 242//306 226//278 224//278 245//306
f 242//306 245//306 246//307 243//307
f 246//307 247//308 248//308 243//307
f 246//309 245//310 249//311 250//312
f 246//309 250//312 251//313 247//314
f 251//313 252//315 253//316 247//314
f 251//313 250//312 390//317 391//318
f 251//313 391//318 254//319 252//315
f 254//319 255//320 256//321 252//315
f 257//322 392//323 258//324 259//325
f 257//322 259//325 256//321 255//320
f 259//325 258//324 72//81 68//77
f 259//325 68//77 67//76 256//321
f 258//324 260//326 261//327 72//81
f 258//324 392//323 393//328 260//326
f 393//328 394//329 66//75 260//326
f 262//330 395//331 263//332 63//70
f 262//330 63//70 62//69 264//333
f 264//333 62//69 61//68 265//334
f 265//335 61//73 64//72 266//336
f 266//336 64//72 66//75 394//329
f 263//332 395//331 396//337 267//338
f 263//332 267//338 70//79 268//339
f 263//332 268//339 58//65 63//70
f 268//339 70//79 69//78 269//340
f 268//339 269//340 59//66 58//65
f 269//340 69//78 72//81 261//327
f 269//340 261//327 65//74 59//66
f 267//338 396//337 397//341 270//342
f 267//338 270//342 71//80 70//79
f 270//342 397//341 271//343 272//344
f 270//342 272//344 73//82 71//80
f 272//344 271//343 273//345 274//346
f 272//344 274//346 275//347 73//82
f 275//347 274//346 276//348 277//349
f 275//347 277//350 278//350 53//351
f 275//347 53//351 52//53 73//82
f 278//350 277//350 279//352 280//352
f 278//353 280//354 281//355 282//356
f 278//353 282//356 54//55 53//54
f 282//356 281//355 283//357 284//358
f 282//356 284//358 50//59 54//55
f 399//359 398//360 285//361 276//348
f 399//359 276//348 274//346 273//345
f 288//362 287//363 290//364 291//365
f 288//362 291//365 292//366 289//367
f 292//366 291//365 293//368 294//369
f 292//366 294//369 295//370 296//371
f 292//366 296//371 297//372 289//367
f 297//372 296//371 298//373 299//374
f 301//375 300//376 302//377 303//378
f 301//375 303//378 304//379 286//380
f 304//379 285//361 398//360 286//380
f 304//379 303//378 305//381 306//382
f 304//379 306//382 279//383 285//361
f 306//384 305//385 307//385 308//384
f 306//384 308//384 280//352 279//352
f 308//386 307//387 309//388 310//389
f 308//386 310//389 281//355 280//354
f 310//389 309//388 400//390 402//391
f 310//389 402//391 283//357 281//355
f 309//388 307//387 311//392 290//364
f 309//388 290//364 287//363 400//390
f 311//393 307//385 305//385 312//393
f 311//393 312//393 313//394 293//394
f 311//392 293//368 291//365 290//364
f 313//395 312//396 302//377 314//397
f 313//395 314//397 315//398 316//399
f 313//394 316//400 294//400 293//394
f 316//399 315//398 317//401 318//402
f 316//400 318//402 295//370 294//400
f 318//402 317//401 319//403 320//404
f 318//402 320//404 321//405 295//370
f 321//405 320//404 322//406 323//407
f 321//405 323//407 324//408 298//373
f 321//405 298//373 296//371 295//370
f 324//408 323//407 325//409 326//410
f 324//408 326//410 327//411 328//412
f 324//408 328//412 299//413 298//373
f 404//414 403//415 317//401 315//398
f 404//414 315//398 314//397 401//416
f 403//415 405//417 319//403 317//401
f 405//417 406//418 329//419 319//403
f 329//419 406//418 330//420 331//421
f 329//419 331//421 332//422 322//406
f 329//419 322//406 320//404 319//403
f 332//422 331//421 333//423 334//424
f 332//425 334//426 335//426 325//425
f 332//425 325//425 323//407 322//406
f 335//426 334//426 336//427 337//427
f 335//428 337//429 338//430 339//431
f 335//428 339//431 326//410 325//409
f 339//431 338//430 407//432 408//433
f 339//431 408//433 327//411 326//410
f 410//434 409//435 340//436 333//423
f 410//434 333//423 331//421 330//420
f 340//436 409//435 341//437 342//438
f 340//436 342//438 343//439 336//440
f 340//436 336//440 334//424 333//423
f 343//439 342//438 344//441 345//442
f 343//443 345//444 346//444 347//443
f 343//443 347//443 337//427 336//427
f 347//445 346//446 348//447 349//448
f 347//445 349//448 338//430 337//429
f 349//448 348//447 411//449 350//450
f 349//448 350//450 407//432 338//430
f 351//451 412//452 352//453 344//441
f 351//451 344//441 342//438 341//437
f 413//454 411//449 348//447 353//455
f 413//454 353//455 47//46 44//51
f 353//455 348//447 346//446 354//456
f 353//455 354//456 48//47 47//46
f 354//457 346//444 345//444 355//457
f 354//457 355//457 43//40 48//47
f 355//458 345//442 344//441 352//453
f 355//458 352//453 41//31 43//40
f 352//453 412//452 39//32 41//31
f 314//397 302//377 300//376 401//416
f 312//396 305//381 303//378 302//377
f 285//361 279//383 277//349 276//348
f 261//327 260//326 66//75 65//74
f 414//459 390//317 250//312 249//311
f 414//459 249//311 222//273 385//272
f 415//460 241//301 240//300 244//305
f 415//460 244//305 356//461 357//462
f 357//462 356//461 55//58 51//57
f 356//461 244//305 243//304 248//463
f 356//461 248//463 57//63 55//58
f 256//321 67//76 253//316 252//315
f 253//464 67//76 56//61 57//464
f 253//464 57//464 248//308 247//308
f 249//311 245//310 224//275 222//273
f 120//136 88//98 87//97 117//131
f 114//128 112//126 99//107 98//106
f 106//120 105//119 100//108 99//107
f 48//47 43//40 42//39 46//48
f 46//42 42//37 40//36 360//43
f 359//3 358//3 431//465 416//466
f 431//465 433//467 432//468 416//466
f 434//469 16//7 359//6 416//466
f 436//470 435//471 434//469 416//466
f 432//468 427//472 436//470 416//466
f 439//473 438//474 437//475 417//476
f 441//477 440//478 439//473 417//476
f 437//475 442//479 441//477 417//476
f 445//480 444//481 443//482 418//483
f 29//24 30//23 445//480 418//483
f 446//484 31//25 29//24 418//483
f 448//485 447//486 446//484 418//483
f 443//482 426//487 448//485 418//483
f 38//33 39//32 449//488 419//489
f 450//490 40//36 38//35 419//491
f 449//488 451//492 450//493 419//494
f 45//44 360//43 452//495 420//496
f 452//497 454//498 453//499 420//500
f 453//499 44//51 45//50 420//500
f 457//501 456//502 455//503 421//504
f 458//505 51//57 49//56 421//504
f 49//60 50//59 457//501 421//504
f 455//503 424//506 459//507 421//504
f 459//507 460//508 458//505 421//504
f 463//509 462//510 461//511 422//512
f 465//513 464//514 463//509 422//512
f 461//511 466//515 465//513 422//512
f 463//509 464//516 467//517 423//518
f 468//519 462//510 463//509 423//518
f 467//517 469//520 468//519 423//518
f 471//521 470//522 459//507 424//506
f 474//523 473//524 472//525 424//506
f 472//525 475//526 471//521 424//506
f 455//503 476//527 474//523 424//506
f 479//528 478//529 477//530 425//531
f 477//530 481//532 480//533 425//531
f 480//533 482//534 479//528 425//531
f 443//482 484//535 483//536 426//487
f 486//537 485//538 448//485 426//487
f 483//536 488//539 487//540 426//487
f 487//540 489//541 486//537 426//487
f 432//468 491//542 490//543 427//472
f 490//543 493//544 492//545 427//472
f 495//546 494//547 436//470 427//472
f 438//474 439//473 497//548 496//549
f 500//550 499//551 498//552 428//553
f 498//552 95//110 96//109 428//553
f 96//109 97//111 500//550 428//553
f 503//554 502//555 501//556 429//557
f 480//533 481//558 503//554 429//557
f 501//556 482//534 480//533 429//557
f 506//559 505//560 504//561 430//562
f 504//561 508//563 507//564 430//562
f 507//564 509//565 506//559 430//562
f 507//564 511//566 510//567 509//565
f 512//568 499//551 506//559 509//565
f 510//567 513//569 512//568 509//565
f 510//567 492//545 493//544 513//569
f 515//570 514//571 512//568 513//569
f 493//544 516//572 515//570 513//569
f 493//544 490//543 517//573 516//572
f 118//574 361//575 515//570 516//572
f 517//573 362//134 118//574 516//572
f 517//573 518//576 119//135 362//134
f 520//577 519//578 363//138 121//137
f 119//135 518//576 520//577 121//137
f 522//579 521//580 519//578 520//577
f 518//576 491//542 522//579 520//577
f 433//581 523//582 521//582 522//579
f 491//542 432//468 433//581 522//579
f 526//583 525//584 524//585 523//586
f 433//467 431//465 526//583 523//586
f 524//587 527//587 521//582 523//582
f 524//587 528//588 444//589 527//587
f 529//590 519//578 521//580 527//591
f 444//481 445//480 529//590 527//591
f 133//154 363//138 519//578 529//590
f 445//480 30//23 133//154 529//590
f 531//592 530//593 364//156 139//155
f 140//160 532//594 531//592 139//155
f 485//538 486//537 531//592 532//594
f 534//595 533//596 485//538 532//594
f 140//160 146//163 534//595 532//594
f 365//165 535//597 534//595 146//163
f 537//598 536//599 367//167 366//166
f 148//171 538//600 537//598 366//166
f 540//601 539//602 537//598 538//600
f 542//603 541//604 540//601 538//600
f 148//171 156//176 542//603 538//600
f 158//178 543//605 542//603 156//176
f 545//606 544//607 159//180 160//179
f 164//184 546//608 545//606 160//179
f 31//25 446//484 546//608 164//184
f 548//609 547//610 545//606 546//608
f 446//484 447//486 548//609 546//608
f 550//611 549//612 547//612 548//611
f 447//486 533//596 550//611 548//611
f 535//597 551//613 549//614 550//615
f 533//596 534//595 535//597 550//615
f 536//599 552//616 549//614 551//613
f 368//193 367//167 536//599 551//613
f 535//597 365//165 368//193 551//613
f 553//617 547//612 549//612 552//617
f 539//618 554//618 553//617 552//617
f 536//599 537//598 539//602 552//616
f 555//619 544//607 553//620 554//621
f 557//622 556//623 555//619 554//621
f 539//618 540//624 557//624 554//618
f 559//625 558//626 556//623 557//622
f 540//624 541//627 559//627 557//624
f 561//628 560//629 558//626 559//625
f 541//627 562//630 561//630 559//627
f 564//631 563//632 561//630 562//630
f 543//605 565//633 564//634 562//635
f 541//604 542//603 543//605 562//635
f 567//636 566//637 564//634 565//633
f 186//216 369//638 567//636 565//633
f 543//605 158//178 186//216 565//633
f 556//623 558//626 187//218 371//217
f 372//219 555//619 556//623 371//217
f 558//626 560//629 370//220 187//218
f 560//629 568//639 373//221 370//220
f 569//640 189//641 373//221 568//639
f 563//632 570//642 569//640 568//639
f 560//629 561//628 563//632 568//639
f 572//643 571//644 569//640 570//642
f 566//637 573//645 572//643 570//642
f 563//632 564//631 566//637 570//642
f 575//646 574//647 572//643 573//645
f 577//648 576//649 575//646 573//645
f 566//637 567//636 577//648 573//645
f 375//650 374//651 576//649 577//648
f 567//636 369//638 375//650 577//648
f 571//644 578//652 377//236 376//653
f 189//641 569//640 571//644 376//653
f 442//479 200//238 377//236 578//652
f 574//647 441//477 442//479 578//652
f 571//644 572//643 574//647 578//652
f 442//479 437//475 201//239 200//238
f 437//475 438//474 202//240 201//239
f 438//474 496//549 203//241 202//240
f 496//549 497//548 204//243 203//241
f 497//548 579//654 378//655 204//243
f 440//478 575//646 576//649 579//654
f 497//548 439//473 440//478 579//654
f 576//649 374//651 378//655 579//654
f 440//478 441//477 574//647 575//646
f 372//219 159//180 544//607 555//619
f 544//607 545//606 547//610 553//620
f 447//486 448//485 485//538 533//596
f 486//537 489//541 530//593 531//592
f 489//541 581//656 580//657 530//593
f 580//657 379//248 364//156 530//593
f 582//658 482//534 501//556 581//656
f 489//541 487//540 582//658 581//656
f 501//556 502//555 580//657 581//656
f 583//659 479//528 482//534 582//658
f 487//540 488//539 583//659 582//658
f 584//660 478//529 479//528 583//659
f 488//539 585//661 584//660 583//659
f 137//254 138//253 584//660 585//661
f 586//662 136//255 137//254 585//661
f 488//539 483//536 586//662 585//661
f 587//663 135//257 136//255 586//662
f 483//536 484//535 587//663 586//662
f 588//664 134//259 135//257 587//663
f 484//535 528//588 588//664 587//663
f 525//584 380//261 134//259 588//664
f 528//588 524//585 525//584 588//664
f 525//584 526//583 381//262 380//261
f 526//583 431//465 358//263 381//262
f 138//253 215//264 478//529 584//660
f 216//265 477//530 478//529 215//264
f 217//266 481//532 477//530 216//265
f 218//268 503//554 481//558 217//267
f 382//269 502//555 503//554 218//268
f 379//248 580//657 502//555 382//269
f 484//535 443//482 444//589 528//588
f 514//571 515//570 361//575 383//270
f 95//110 498//552 514//571 383//270
f 590//665 589//666 385//272 221//271
f 16//7 434//469 590//665 221//271
f 592//667 591//668 589//666 590//665
f 434//469 435//471 592//667 590//665
f 594//669 593//670 591//670 592//669
f 435//671 595//672 594//669 592//669
f 597//673 596//674 594//675 595//672
f 494//547 598//676 597//673 595//672
f 435//671 436//470 494//547 595//672
f 219//286 220//285 597//673 598//676
f 599//677 384//678 219//286 598//676
f 494//547 495//546 599//677 598//676
f 600//679 386//289 384//678 599//677
f 495//546 601//680 600//679 599//677
f 511//566 602//681 600//679 601//680
f 492//545 510//567 511//566 601//680
f 495//546 427//472 492//545 601//680
f 387//293 386//289 600//679 602//681
f 508//563 236//294 387//293 602//681
f 511//566 507//564 508//563 602//681
f 508//563 504//561 237//295 236//294
f 504//561 505//560 238//296 237//295
f 505//560 500//550 97//111 238//296
f 220//285 388//297 596//674 597//673
f 389//299 603//682 596//674 388//297
f 389//299 241//301 604//683 603//682
f 593//684 594//675 596//674 603//682
f 604//683 605//685 593//684 603//682
f 604//683 607//686 606//687 605//685
f 608//688 591//670 593//670 605//688
f 606//689 609//689 608//688 605//688
f 606//689 611//690 610//690 609//689
f 613//691 612//692 608//693 609//694
f 610//695 614//696 613//691 609//694
f 610//695 616//697 615//698 614//696
f 391//318 390//317 613//691 614//696
f 615//698 254//319 391//318 614//696
f 615//698 617//699 255//320 254//319
f 619//700 618//701 392//323 257//322
f 255//320 617//699 619//700 257//322
f 471//521 475//526 618//701 619//700
f 617//699 470//522 471//521 619//700
f 475//526 621//702 620//703 618//701
f 620//703 393//328 392//323 618//701
f 620//703 469//520 394//329 393//328
f 466//515 622//704 395//331 262//330
f 264//333 465//513 466//515 262//330
f 265//334 464//514 465//513 264//333
f 266//336 467//517 464//516 265//335
f 394//329 469//520 467//517 266//336
f 623//705 396//337 395//331 622//704
f 624//706 473//524 623//705 622//704
f 466//515 461//511 624//706 622//704
f 625//707 472//525 473//524 624//706
f 461//511 462//510 625//707 624//706
f 621//702 475//526 472//525 625//707
f 462//510 468//519 621//702 625//707
f 626//708 397//341 396//337 623//705
f 473//524 474//523 626//708 623//705
f 627//709 271//343 397//341 626//708
f 474//523 476//527 627//709 626//708
f 628//710 273//345 271//343 627//709
f 476//527 629//711 628//710 627//709
f 631//712 630//713 628//710 629//711
f 456//714 632//715 631//715 629//711
f 476//527 455//503 456//714 629//711
f 634//716 633//716 631//715 632//715
f 636//717 635//718 634//719 632//720
f 456//502 457//501 636//717 632//720
f 284//358 283//357 635//718 636//717
f 457//501 50//59 284//358 636//717
f 630//713 637//721 398//360 399//359
f 273//345 628//710 630//713 399//359
f 639//722 638//723 287//363 288//362
f 289//367 640//724 639//722 288//362
f 642//725 641//726 639//722 640//724
f 644//727 643//728 642//725 640//724
f 289//367 297//372 644//727 640//724
f 299//374 645//729 644//727 297//372
f 647//730 646//731 300//376 301//375
f 286//380 648//732 647//730 301//375
f 286//380 398//360 637//721 648//732
f 650//733 649//734 647//730 648//732
f 637//721 633//735 650//733 648//732
f 652//736 651//737 649//737 650//736
f 633//716 634//716 652//736 650//736
f 654//738 653//739 651//740 652//741
f 634//719 635//718 654//738 652//741
f 402//391 400//390 653//739 654//738
f 635//718 283//357 402//391 654//738
f 638//723 655//742 651//740 653//739
f 400//390 287//363 638//723 653//739
f 656//743 649//737 651//737 655//743
f 641//744 657//744 656//743 655//743
f 638//723 639//722 641//726 655//742
f 658//745 646//731 656//746 657//747
f 660//748 659//749 658//745 657//747
f 641//744 642//750 660//750 657//744
f 662//751 661//752 659//749 660//748
f 642//750 643//728 662//751 660//750
f 664//753 663//754 661//752 662//751
f 643//728 665//755 664//753 662//751
f 667//756 666//757 664//753 665//755
f 645//729 668//758 667//756 665//755
f 643//728 644//727 645//729 665//755
f 670//759 669//760 667//756 668//758
f 328//412 327//411 670//759 668//758
f 645//729 299//413 328//412 668//758
f 659//749 661//752 403//415 404//414
f 401//416 658//745 659//749 404//414
f 661//752 663//754 405//417 403//415
f 663//754 671//761 406//418 405//417
f 672//762 330//420 406//418 671//761
f 666//757 673//763 672//762 671//761
f 663//754 664//753 666//757 671//761
f 675//764 674//765 672//762 673//763
f 669//766 676//767 675//767 673//766
f 666//757 667//756 669//766 673//766
f 678//768 677//768 675//767 676//767
f 680//769 679//770 678//771 676//772
f 669//760 670//759 680//769 676//772
f 408//433 407//432 679//770 680//769
f 670//759 327//411 408//433 680//769
f 674//765 681//773 409//435 410//434
f 330//420 672//762 674//765 410//434
f 682//774 341//437 409//435 681//773
f 677//775 683//776 682//774 681//773
f 674//765 675//764 677//775 681//773
f 685//777 684//778 682//774 683//776
f 687//779 686//780 685//780 683//779
f 677//768 678//768 687//779 683//779
f 689//781 688//782 686//783 687//784
f 678//771 679//770 689//781 687//784
f 350//450 411//449 688//782 689//781
f 679//770 407//432 350//450 689//781
f 684//778 690//785 412//452 351//451
f 341//437 682//774 684//778 351//451
f 691//786 688//782 411//449 413//454
f 44//51 453//499 691//786 413//454
f 692//787 686//783 688//782 691//786
f 453//499 454//498 692//787 691//786
f 693//788 685//780 686//780 692//788
f 454//789 451//492 693//788 692//788
f 690//785 684//778 685//777 693//790
f 451//492 449//488 690//785 693//790
f 449//488 39//32 412//452 690//785
f 401//416 300//376 646//731 658//745
f 646//731 647//730 649//734 656//746
f 630//713 631//712 633//735 637//721
f 468//519 469//520 620//703 621//702
f 612//692 613//691 390//317 414//459
f 385//272 589//666 612//692 414//459
f 607//686 604//683 241//301 415//460
f 357//462 694//791 607//686 415//460
f 51//57 458//505 694//791 357//462
f 611//792 606//687 607//686 694//791
f 458//505 460//508 611//792 694//791
f 615//698 616//697 470//522 617//699
f 460//793 459//507 470//522 616//793
f 610//690 611//690 460//793 616//793
f 589//666 591//668 608//693 612//692
f 517//573 490//543 491//542 518//576
f 498//552 499//551 512//568 514//571
f 499//551 500//550 505//560 506//559
f 452//794 450//493 451//492 454//789
f 360//43 40//36 450//490 452//495
