# pilowlava3D glyph 'x' variant 1 — Vincent Wagner / Velvetyne, Free Art License
v 0.16443 2.67665 -0.25978
v 3.27560 4.30457 -0.27351
v 0.56613 0.21271 -0.41508
v 1.87946 2.04427 -0.27312
v 1.77924 2.30888 -0.41116
v 4.06522 0.36612 -0.44798
v 0.32309 0.48248 -0.39299
v 4.10681 0.85447 -0.39515
v 0.48511 2.73153 -0.26651
v 0.13278 2.62642 -0.14116
v 0.06232 2.85417 -0.16289
v 0.13593 2.85479 -0.30957
v 0.28943 2.87038 -0.38378
v 0.33847 2.64881 -0.30561
v 0.35846 2.53917 -0.15580
v 3.23657 4.36828 -0.00000
v 3.10107 4.16625 -0.00000
v 3.51587 4.49470 -0.00000
v 3.51462 4.38534 -0.33678
v 3.49918 4.13439 -0.49650
v 3.21185 4.13925 -0.32198
v 0.55060 0.07900 -0.25465
v 0.28741 0.22740 -0.25902
v 0.42117 0.33654 -0.43323
v 0.77054 0.26198 -0.45890
v 0.88303 0.08897 -0.26956
v 0.58112 0.45478 -0.51604
v 1.71304 2.01813 -0.25891
v 1.67599 2.04829 -0.31622
v 1.92581 2.12789 -0.38399
v 2.08450 1.94654 -0.36506
v 1.95752 1.92546 -0.18607
v 1.72568 1.98974 -0.15743
v 1.62448 2.09204 -0.30266
v 2.02966 2.44841 -0.51295
v 2.18399 2.25435 -0.49191
v 1.70029 2.57605 -0.44246
v 1.89862 2.67221 -0.52642
v 4.17734 0.25489 -0.28772
v 3.90311 0.08580 -0.28657
v 3.88019 0.31205 -0.48129
v 4.11722 0.59926 -0.45344
v 4.29715 0.57408 -0.26577
v 3.90955 0.61057 -0.53489
v 0.19946 0.47878 -0.24973
v 0.40637 0.62087 -0.43228
v 0.25516 0.72142 -0.24706
v 4.04398 4.33811 -0.29395
v 4.14264 4.08273 -0.34123
v 3.84015 4.11238 -0.51604
v 3.81601 4.39273 -0.34505
v 3.93994 0.90588 -0.42854
v 3.98740 1.07598 -0.22728
v 4.21539 0.90655 -0.24619
v 0.53516 2.69678 -0.14735
v 0.44339 2.91634 -0.31682
v 0.51755 2.94718 -0.16678
v 0.43414 3.16633 -0.18666
v 0.35864 3.14197 -0.33447
v 0.29309 3.37359 -0.31777
v 0.35944 3.38213 -0.18060
v 0.24191 3.11365 -0.38503
v 0.19626 3.35944 -0.36877
v 0.16370 3.59886 -0.33664
v 0.24542 3.60051 -0.28470
v 0.12460 3.09761 -0.33348
v 0.09894 3.34561 -0.32294
v 0.08414 3.59261 -0.28357
v 0.11661 3.83770 -0.24843
v 0.17505 3.82418 -0.30088
v 0.02890 3.33394 -0.17861
v 0.03732 3.58526 -0.15835
v 0.08804 3.84338 -0.14195
v 0.21088 4.10710 -0.14934
v 0.23053 4.06343 -0.25302
v 0.43527 4.37663 -0.00000
v 0.43298 4.34635 -0.18320
v 0.78772 4.50949 -0.00000
v 1.12207 4.41669 -0.25766
v 0.77148 4.46912 -0.22447
v 1.02283 4.26512 -0.43614
v 0.73068 4.33753 -0.38753
v 0.43732 4.25875 -0.31552
v 0.67749 4.16123 -0.44429
v 0.44904 4.14202 -0.36074
v 0.26804 4.01218 -0.30637
v 0.46100 4.02001 -0.30830
v 0.31519 3.95667 -0.26501
v 0.23303 3.80463 -0.25391
v 0.33682 3.92503 -0.15900
v 0.27023 3.79199 -0.15077
v 0.29813 3.59901 -0.16162
v 0.32135 3.59724 -0.00000
v 0.39020 3.38603 -0.00000
v 0.03989 2.85632 -0.00000
v 0.12662 2.61288 -0.00000
v 0.04257 3.09091 -0.18437
v 0.36108 2.52255 -0.00000
v 1.60959 4.01437 -0.00000
v 1.43286 4.26268 -0.00000
v 1.54395 3.96486 -0.25269
v 1.37802 4.21028 -0.26008
v 1.40894 3.86421 -0.45890
v 1.24890 4.08560 -0.45370
v 1.22089 3.71711 -0.53650
v 1.06900 3.91061 -0.52686
v 0.89108 4.06532 -0.50343
v 0.91251 3.73615 -0.42795
v 0.77377 3.88471 -0.40801
v 0.62137 3.99071 -0.36521
v 0.69489 3.77215 -0.21341
v 0.57431 3.89310 -0.18730
v 0.45612 3.95228 -0.17003
v 0.44479 3.93079 -0.00000
v 0.76236 3.57885 -0.00000
v 1.82260 3.53240 -0.24766
v 1.68469 3.74346 -0.24989
v 1.68860 3.44039 -0.45128
v 1.54959 3.64795 -0.45471
v 1.49951 3.31261 -0.53823
v 1.36212 3.51435 -0.53796
v 1.31610 3.18724 -0.44231
v 1.18188 3.37813 -0.44121
v 1.04874 3.56408 -0.43637
v 1.06381 3.28360 -0.23674
v 0.93765 3.46166 -0.23364
v 0.81360 3.62536 -0.22994
v 0.87930 3.41455 -0.00000
v 1.13235 3.05436 -0.00000
v 2.02808 3.37020 -0.00000
v 2.09378 3.11487 -0.24537
v 1.95816 3.32265 -0.24587
v 1.95908 3.01977 -0.44714
v 1.82462 3.23197 -0.44803
v 1.76932 2.89852 -0.53424
v 1.63522 3.10912 -0.53763
v 1.58035 2.79372 -0.44716
v 1.44907 2.99261 -0.44493
v 1.44742 2.72486 -0.24569
v 1.32321 2.91241 -0.24186
v 1.19382 3.09960 -0.23923
v 1.26117 2.87039 -0.00000
v 1.55127 2.13343 -0.00000
v 1.39313 1.93959 -0.00000
v 1.62396 1.80805 -0.00000
v 1.72522 1.97958 -0.00000
v 1.91666 1.89877 -0.00000
v 1.60883 1.81681 -0.16721
v 1.53363 1.57369 -0.19154
v 1.47345 1.61496 -0.33416
v 1.57297 1.84005 -0.28102
v 1.38754 1.66697 -0.38670
v 1.51828 1.87563 -0.33219
v 1.30206 1.71470 -0.33865
v 1.45312 1.91272 -0.29222
v 1.23373 1.74758 -0.19096
v 1.40994 1.93226 -0.17148
v 1.57059 2.12543 -0.17648
v 1.61057 2.33018 -0.20888
v 1.55258 2.53319 -0.23788
v 1.02316 1.59776 -0.00000
v 1.06146 1.56847 -0.21308
v 0.88913 1.39229 -0.22769
v 0.84818 1.43831 -0.00000
v 1.14667 1.51427 -0.37875
v 0.98898 1.31329 -0.40612
v 0.83188 1.12011 -0.42922
v 0.72397 1.22804 -0.23485
v 1.25812 1.44710 -0.43648
v 1.13174 1.22476 -0.47826
v 1.00186 0.99609 -0.51172
v 0.86975 0.77839 -0.53676
v 0.67596 0.94560 -0.43995
v 1.27859 1.14172 -0.41623
v 1.18661 0.89808 -0.44673
v 1.10080 0.64861 -0.46868
v 0.97433 0.42071 -0.48002
v 0.73898 0.60012 -0.53889
v 1.34515 0.83962 -0.24636
v 1.28326 0.57350 -0.25882
v 1.16797 0.28216 -0.28164
v 1.22626 0.22923 -0.00000
v 0.90540 0.02890 -0.00000
v 0.54742 0.02801 -0.00000
v 0.19534 0.74883 -0.00000
v 0.38754 0.91680 -0.24820
v 0.14160 0.47137 -0.00000
v 0.55789 1.06877 -0.23812
v 0.53458 0.78377 -0.44671
v 1.40308 1.08613 -0.23278
v 1.46494 1.33154 -0.21729
v 1.37192 1.38334 -0.37958
v 2.10025 1.67487 -0.19077
v 2.20374 1.41061 -0.00000
v 2.81271 1.90991 -0.00000
v 2.55087 1.64767 -0.19241
v 2.65802 1.79193 -0.20736
v 2.78723 1.92850 -0.20395
v 2.94467 2.09665 -0.18847
v 2.96133 2.07771 -0.00000
v 2.54776 1.87513 -0.40448
v 2.71509 1.98029 -0.35998
v 2.91324 2.13352 -0.30819
v 3.07043 2.30700 -0.30090
v 3.10965 2.28268 -0.18424
v 2.61050 2.17093 -0.40110
v 2.85883 2.20669 -0.33089
v 3.00040 2.35296 -0.30926
v 3.08276 2.55471 -0.34511
v 3.18637 2.51113 -0.34163
v 2.82974 2.27371 -0.20771
v 2.95914 2.38424 -0.20021
v 3.00607 2.58865 -0.21299
v 3.04214 2.82130 -0.23830
v 3.15170 2.78235 -0.38782
v 2.98999 2.83980 -0.00000
v 3.00479 3.06737 -0.00000
v 3.07538 3.05458 -0.25672
v 3.01553 3.29309 -0.00000
v 3.13373 3.50904 -0.28719
v 3.10477 3.28602 -0.27336
v 3.35901 3.48046 -0.49153
v 3.28979 3.24770 -0.46116
v 3.22025 3.01467 -0.42553
v 3.52036 3.16648 -0.46039
v 3.40594 2.94435 -0.42568
v 3.29407 2.72626 -0.38836
v 3.54810 2.87703 -0.25589
v 3.40720 2.67721 -0.23300
v 3.26361 2.47857 -0.20439
v 3.45615 2.65144 -0.00000
v 3.29663 2.46166 -0.00000
v 2.83310 2.30331 -0.00000
v 2.42993 2.74879 -0.00000
v 2.67572 2.31073 -0.21748
v 2.50925 2.50261 -0.24452
v 2.36176 2.70328 -0.24378
v 2.36691 2.37577 -0.44249
v 2.22366 2.59543 -0.44302
v 2.09088 2.80315 -0.44496
v 2.22815 2.90722 -0.24511
v 3.05206 3.94761 -0.00000
v 3.03769 3.72779 -0.00000
v 3.17245 3.93631 -0.31642
v 3.15695 3.72299 -0.29965
v 3.46295 3.91285 -0.51490
v 3.41580 3.70312 -0.50931
v 3.81613 3.84793 -0.51854
v 3.74655 3.61694 -0.50937
v 3.64090 3.38901 -0.49053
v 3.99792 3.50515 -0.30680
v 3.84512 3.27846 -0.29076
v 3.69073 3.07830 -0.27260
v 4.26288 4.09279 -0.00000
v 4.12119 3.77429 -0.33143
v 4.09750 4.38513 -0.00000
v 3.81915 4.49753 -0.00000
v 2.47250 1.66795 -0.34898
v 2.49750 1.46063 -0.17224
v 2.44821 1.45589 -0.30052
v 2.50696 1.26483 -0.28297
v 2.46057 1.23676 -0.33472
v 2.37265 1.44546 -0.35895
v 2.36966 1.69768 -0.41481
v 2.54593 1.28653 -0.16712
v 2.70471 1.18720 -0.18514
v 2.66095 1.13502 -0.31772
v 2.55594 1.29305 -0.00000
v 2.71860 1.21321 -0.00000
v 2.92099 1.19747 -0.00000
v 2.91248 1.14268 -0.21437
v 3.12384 1.19087 -0.00000
v 3.33054 1.18336 -0.00000
v 3.32751 1.10816 -0.23375
v 3.12363 1.12362 -0.22847
v 3.31079 0.94358 -0.44155
v 3.09052 0.98459 -0.41899
v 2.86548 1.04645 -0.37478
v 3.02591 0.82413 -0.49052
v 2.80670 0.94002 -0.43490
v 2.60794 1.06979 -0.37374
v 2.74387 0.82785 -0.37991
v 2.55853 1.00238 -0.32795
v 2.40332 1.20129 -0.29832
v 2.52087 0.95225 -0.18926
v 2.36823 1.17787 -0.17704
v 2.23370 1.42005 -0.18476
v 2.28958 1.43316 -0.31468
v 2.20706 1.69868 -0.35822
v 2.36499 1.98418 -0.47634
v 2.34808 1.16523 -0.00000
v 2.49930 0.92803 -0.00000
v 3.53992 1.18094 -0.00000
v 3.75009 1.10448 -0.23023
v 3.53467 1.10370 -0.23589
v 3.72888 0.91220 -0.44913
v 3.52200 0.92108 -0.45200
v 3.69217 0.61771 -0.55543
v 3.47455 0.65042 -0.55329
v 3.25385 0.72072 -0.53169
v 3.38181 0.37459 -0.47759
v 3.15421 0.50050 -0.45790
v 2.94751 0.66025 -0.42562
v 3.05673 0.34635 -0.25651
v 2.86890 0.54395 -0.23943
v 2.68930 0.73980 -0.21740
v 2.65643 0.70220 -0.00000
v 3.57816 0.00000 -0.00000
v 3.92181 0.01288 -0.00000
v 3.58890 0.07629 -0.28398
v 4.23047 0.20605 -0.00000
v 4.35507 0.56023 -0.00000
v 4.26892 0.91457 -0.00000
v 3.29965 0.17951 -0.27010
v 3.63086 0.30866 -0.48968
v 0.46582 3.17614 -0.00000
v 0.53970 2.95639 -0.00000
v 0.54779 2.68522 -0.00000
v 0.01874 3.58221 -0.00000
v 0.07758 3.84790 -0.00000
v 0.20282 4.12479 -0.00000
v 1.15637 4.46771 -0.00000
v 0.28348 3.78751 -0.00000
v 0.00961 3.08880 -0.00000
v 0.00000 3.32916 -0.00000
v 0.55057 3.86147 -0.00000
v 0.33801 3.91199 -0.00000
v 0.65631 3.72911 -0.00000
v 1.89313 3.57873 -0.00000
v 1.75485 3.79148 -0.00000
v 1.00351 3.23800 -0.00000
v 2.16406 3.16175 -0.00000
v 1.38504 2.68884 -0.00000
v 1.56879 2.33626 -0.00000
v 1.56610 1.55625 -0.00000
v 1.49396 2.51646 -0.00000
v 1.20532 1.76326 -0.00000
v 1.35754 0.53852 -0.00000
v 0.33212 0.96701 -0.00000
v 0.24939 0.18924 -0.00000
v 0.50732 1.12882 -0.00000
v 0.67813 1.28313 -0.00000
v 1.46732 1.07212 -0.00000
v 1.51559 1.31126 -0.00000
v 1.41815 0.81838 -0.00000
v 2.06226 1.65582 -0.00000
v 2.68869 1.76960 -0.00000
v 2.57922 1.63350 -0.00000
v 2.94318 2.39823 -0.00000
v 2.97205 2.60220 -0.00000
v 3.02667 3.51342 -0.00000
v 3.12857 2.26827 -0.00000
v 2.56909 2.54508 -0.00000
v 2.70532 2.35614 -0.00000
v 2.29898 2.95544 -0.00000
v 3.93008 3.22011 -0.00000
v 3.76431 3.02665 -0.00000
v 3.61078 2.83844 -0.00000
v 4.10562 3.45300 -0.00000
v 4.24246 3.74624 -0.00000
v 2.51440 1.46005 -0.00000
v 3.76355 1.17590 -0.00000
v 2.81970 0.49805 -0.00000
v 3.26627 0.10549 -0.00000
v 4.02402 1.12035 -0.00000
v 3.01303 0.28747 -0.00000
v 0.16443 2.67665 0.25978
v 3.27560 4.30457 0.27351
v 0.56613 0.21271 0.41508
v 1.87946 2.04427 0.27312
v 1.77924 2.30888 0.41116
v 4.06522 0.36612 0.44798
v 0.32309 0.48248 0.39299
v 4.10681 0.85447 0.39515
v 0.48511 2.73153 0.26651
v 0.13278 2.62642 0.14116
v 0.06232 2.85417 0.16289
v 0.13593 2.85479 0.30957
v 0.28943 2.87038 0.38378
v 0.33847 2.64881 0.30561
v 0.35846 2.53917 0.15580
v 3.51462 4.38534 0.33678
v 3.49918 4.13439 0.49650
v 3.21185 4.13925 0.32198
v 0.55060 0.07900 0.25465
v 0.28741 0.22740 0.25902
v 0.42117 0.33654 0.43323
v 0.77054 0.26198 0.45890
v 0.88303 0.08897 0.26956
v 0.58112 0.45478 0.51604
v 1.71304 2.01813 0.25891
v 1.67599 2.04829 0.31622
v 1.92581 2.12789 0.38399
v 2.08450 1.94654 0.36506
v 1.95752 1.92546 0.18607
v 1.72568 1.98974 0.15743
v 1.62448 2.09204 0.30266
v 2.02966 2.44841 0.51295
v 2.18399 2.25435 0.49191
v 1.70029 2.57605 0.44246
v 1.89862 2.67221 0.52642
v 4.17734 0.25489 0.28772
v 3.90311 0.08580 0.28657
v 3.88019 0.31205 0.48129
v 4.11722 0.59926 0.45344
v 4.29715 0.57408 0.26577
v 3.90955 0.61057 0.53489
v 0.19946 0.47878 0.24973
v 0.40637 0.62087 0.43228
v 0.25516 0.72142 0.24706
v 4.04398 4.33811 0.29395
v 4.14264 4.08273 0.34123
v 3.84015 4.11238 0.51604
v 3.81601 4.39273 0.34505
v 3.93994 0.90588 0.42854
v 3.98740 1.07598 0.22728
v 4.21539 0.90655 0.24619
v 0.53516 2.69678 0.14735
v 0.44339 2.91634 0.31682
v 0.51755 2.94718 0.16678
v 0.43414 3.16633 0.18666
v 0.35864 3.14197 0.33447
v 0.29309 3.37359 0.31777
v 0.35944 3.38213 0.18060
v 0.24191 3.11365 0.38503
v 0.19626 3.35944 0.36877
v 0.16370 3.59886 0.33664
v 0.24542 3.60051 0.28470
v 0.12460 3.09761 0.33348
v 0.09894 3.34561 0.32294
v 0.08414 3.59261 0.28357
v 0.11661 3.83770 0.24843
v 0.17505 3.82418 0.30088
v 0.02890 3.33394 0.17861
v 0.03732 3.58526 0.15835
v 0.08804 3.84338 0.14195
v 0.21088 4.10710 0.14934
v 0.23053 4.06343 0.25302
v 0.43298 4.34635 0.18320
v 1.12207 4.41669 0.25766
v 0.77148 4.46912 0.22447
v 1.02283 4.26512 0.43614
v 0.73068 4.33753 0.38753
v 0.43732 4.25875 0.31552
v 0.67749 4.16123 0.44429
v 0.44904 4.14202 0.36074
v 0.26804 4.01218 0.30637
v 0.46100 4.02001 0.30830
v 0.31519 3.95667 0.26501
v 0.23303 3.80463 0.25391
v 0.33682 3.92503 0.15900
v 0.27023 3.79199 0.15077
v 0.29813 3.59901 0.16162
v 0.04257 3.09091 0.18437
v 1.54395 3.96486 0.25269
v 1.37802 4.21028 0.26008
v 1.40894 3.86421 0.45890
v 1.24890 4.08560 0.45370
v 1.22089 3.71711 0.53650
v 1.06900 3.91061 0.52686
v 0.89108 4.06532 0.50343
v 0.91251 3.73615 0.42795
v 0.77377 3.88471 0.40801
v 0.62137 3.99071 0.36521
v 0.69489 3.77215 0.21341
v 0.57431 3.89310 0.18730
v 0.45612 3.95228 0.17003
v 1.82260 3.53240 0.24766
v 1.68469 3.74346 0.24989
v 1.68860 3.44039 0.45128
v 1.54959 3.64795 0.45471
v 1.49951 3.31261 0.53823
v 1.36212 3.51435 0.53796
v 1.31610 3.18724 0.44231
v 1.18188 3.37813 0.44121
v 1.04874 3.56408 0.43637
v 1.06381 3.28360 0.23674
v 0.93765 3.46166 0.23364
v 0.81360 3.62536 0.22994
v 2.09378 3.11487 0.24537
v 1.95816 3.32265 0.24587
v 1.95908 3.01977 0.44714
v 1.82462 3.23197 0.44803
v 1.76932 2.89852 0.53424
v 1.63522 3.10912 0.53763
v 1.58035 2.79372 0.44716
v 1.44907 2.99261 0.44493
v 1.44742 2.72486 0.24569
v 1.32321 2.91241 0.24186
v 1.19382 3.09960 0.23923
v 1.60883 1.81681 0.16721
v 1.53363 1.57369 0.19154
v 1.47345 1.61496 0.33416
v 1.57297 1.84005 0.28102
v 1.38754 1.66697 0.38670
v 1.51828 1.87563 0.33219
v 1.30206 1.71470 0.33865
v 1.45312 1.91272 0.29222
v 1.23373 1.74758 0.19096
v 1.40994 1.93226 0.17148
v 1.57059 2.12543 0.17648
v 1.61057 2.33018 0.20888
v 1.55258 2.53319 0.23788
v 1.06146 1.56847 0.21308
v 0.88913 1.39229 0.22769
v 1.14667 1.51427 0.37875
v 0.98898 1.31329 0.40612
v 0.83188 1.12011 0.42922
v 0.72397 1.22804 0.23485
v 1.25812 1.44710 0.43648
v 1.13174 1.22476 0.47826
v 1.00186 0.99609 0.51172
v 0.86975 0.77839 0.53676
v 0.67596 0.94560 0.43995
v 1.27859 1.14172 0.41623
v 1.18661 0.89808 0.44673
v 1.10080 0.64861 0.46868
v 0.97433 0.42071 0.48002
v 0.73898 0.60012 0.53889
v 1.34515 0.83962 0.24636
v 1.28326 0.57350 0.25882
v 1.16797 0.28216 0.28164
v 0.38754 0.91680 0.24820
v 0.55789 1.06877 0.23812
v 0.53458 0.78377 0.44671
v 1.40308 1.08613 0.23278
v 1.46494 1.33154 0.21729
v 1.37192 1.38334 0.37958
v 2.10025 1.67487 0.19077
v 2.55087 1.64767 0.19241
v 2.65802 1.79193 0.20736
v 2.78723 1.92850 0.20395
v 2.94467 2.09665 0.18847
v 2.54776 1.87513 0.40448
v 2.71509 1.98029 0.35998
v 2.91324 2.13352 0.30819
v 3.07043 2.30700 0.30090
v 3.10965 2.28268 0.18424
v 2.61050 2.17093 0.40110
v 2.85883 2.20669 0.33089
v 3.00040 2.35296 0.30926
v 3.08276 2.55471 0.34511
v 3.18637 2.51113 0.34163
v 2.82974 2.27371 0.20771
v 2.95914 2.38424 0.20021
v 3.00607 2.58865 0.21299
v 3.04214 2.82130 0.23830
v 3.15170 2.78235 0.38782
v 3.07538 3.05458 0.25672
v 3.13373 3.50904 0.28719
v 3.10477 3.28602 0.27336
v 3.35901 3.48046 0.49153
v 3.28979 3.24770 0.46116
v 3.22025 3.01467 0.42553
v 3.52036 3.16648 0.46039
v 3.40594 2.94435 0.42568
v 3.29407 2.72626 0.38836
v 3.54810 2.87703 0.25589
v 3.40720 2.67721 0.23300
v 3.26361 2.47857 0.20439
v 2.67572 2.31073 0.21748
v 2.50925 2.50261 0.24452
v 2.36176 2.70328 0.24378
v 2.36691 2.37577 0.44249
v 2.22366 2.59543 0.44302
v 2.09088 2.80315 0.44496
v 2.22815 2.90722 0.24511
v 3.17245 3.93631 0.31642
v 3.15695 3.72299 0.29965
v 3.46295 3.91285 0.51490
v 3.41580 3.70312 0.50931
v 3.81613 3.84793 0.51854
v 3.74655 3.61694 0.50937
v 3.64090 3.38901 0.49053
v 3.99792 3.50515 0.30680
v 3.84512 3.27846 0.29076
v 3.69073 3.07830 0.27260
v 4.12119 3.77429 0.33143
v 2.47250 1.66795 0.34898
v 2.49750 1.46063 0.17224
v 2.44821 1.45589 0.30052
v 2.50696 1.26483 0.28297
v 2.46057 1.23676 0.33472
v 2.37265 1.44546 0.35895
v 2.36966 1.69768 0.41481
v 2.54593 1.28653 0.16712
v 2.70471 1.18720 0.18514
v 2.66095 1.13502 0.31772
v 2.91248 1.14268 0.21437
v 3.32751 1.10816 0.23375
v 3.12363 1.12362 0.22847
v 3.31079 0.94358 0.44155
v 3.09052 0.98459 0.41899
v 2.86548 1.04645 0.37478
v 3.02591 0.82413 0.49052
v 2.80670 0.94002 0.43490
v 2.60794 1.06979 0.37374
v 2.74387 0.82785 0.37991
v 2.55853 1.00238 0.32795
v 2.40332 1.20129 0.29832
v 2.52087 0.95225 0.18926
v 2.36823 1.17787 0.17704
v 2.23370 1.42005 0.18476
v 2.28958 1.43316 0.31468
v 2.20706 1.69868 0.35822
v 2.36499 1.98418 0.47634
v 3.75009 1.10448 0.23023
v 3.53467 1.10370 0.23589
v 3.72888 0.91220 0.44913
v 3.52200 0.92108 0.45200
v 3.69217 0.61771 0.55543
v 3.47455 0.65042 0.55329
v 3.25385 0.72072 0.53169
v 3.38181 0.37459 0.47759
v 3.15421 0.50050 0.45790
v 2.94751 0.66025 0.42562
v 3.05673 0.34635 0.25651
v 2.86890 0.54395 0.23943
v 2.68930 0.73980 0.21740
v 3.58890 0.07629 0.28398
v 3.29965 0.17951 0.27010
v 3.63086 0.30866 0.48968
vn -0.88067 -0.27324 -0.38698
vn -0.92242 -0.29856 -0.24495
vn -0.93763 -0.20462 -0.28103
vn -0.67051 -0.21845 -0.70901
vn -0.32915 -0.61433 -0.71712
vn -0.37152 -0.22152 -0.90161
vn -0.33485 -0.89453 -0.29611
vn -0.64323 0.71092 -0.28433
vn -0.66796 0.74419 0.00466
vn -0.21527 0.97655 0.00051
vn -0.20522 0.93459 -0.29057
vn -0.40115 0.44541 -0.80043
vn -0.21716 0.49607 -0.84069
vn -0.26034 0.30048 -0.91757
vn -0.72476 0.32812 -0.60585
vn -0.93530 0.35383 0.00377
vn -0.18821 -0.61191 -0.76821
vn -0.22916 -0.86411 -0.44811
vn -0.68363 -0.57141 -0.45403
vn -0.44972 -0.34189 -0.82514
vn 0.08035 -0.49930 -0.86270
vn 0.24542 -0.83418 -0.49387
vn -0.20557 -0.11458 -0.97191
vn -0.15616 -0.80693 -0.56964
vn 0.37809 -0.72616 -0.57423
vn 0.35322 -0.65111 -0.67179
vn -0.24164 -0.47952 -0.84361
vn -0.53648 -0.72223 -0.43655
vn -0.21335 -0.92052 -0.32730
vn -0.48077 -0.40305 -0.77872
vn -0.49929 -0.17242 -0.84911
vn -0.24902 0.04158 -0.96760
vn -0.00102 -0.06935 -0.99759
vn -0.01720 -0.10770 -0.99403
vn -0.53062 -0.28781 -0.79725
vn -0.00132 -0.02930 -0.99957
vn 0.46744 -0.33601 -0.81768
vn 0.67840 -0.53850 -0.49979
vn 0.24149 -0.81958 -0.51959
vn 0.18255 -0.42323 -0.88744
vn 0.54104 0.03140 -0.84041
vn 0.88660 -0.02406 -0.46191
vn 0.19302 0.06428 -0.97909
vn -0.64387 -0.02287 -0.76479
vn -0.88402 -0.04755 -0.46502
vn -0.52572 0.19545 -0.82790
vn -0.80157 0.35067 -0.48426
vn 0.37811 0.38802 -0.84052
vn 0.74376 0.19432 -0.63958
vn 0.22016 0.24388 -0.94448
vn 0.18077 0.46873 -0.86465
vn 0.50889 0.41056 -0.75662
vn 0.23315 0.53486 -0.81214
vn 0.32449 0.83351 -0.44717
vn 0.72836 0.52166 -0.44425
vn 0.50206 -0.46008 -0.73230
vn 0.61951 -0.72555 -0.29962
vn 0.91249 0.07031 -0.40302
vn 0.68224 0.06090 -0.72858
vn 0.93867 0.18362 -0.29187
vn 0.96413 0.05805 -0.25902
vn 0.39076 -0.06134 -0.91845
vn 0.89646 0.30967 -0.31697
vn 0.94292 0.33303 -0.00002
vn 0.98181 0.18984 -0.00058
vn 0.99895 0.04581 -0.00106
vn 0.65280 0.20940 -0.72802
vn 0.68483 0.23994 -0.68807
vn 0.90741 0.29716 -0.29716
vn 0.39177 0.11256 -0.91315
vn 0.44106 0.17935 -0.87938
vn 0.53816 0.16709 -0.82611
vn 0.75230 0.19034 -0.63072
vn -0.45564 0.03479 -0.88949
vn -0.41036 -0.05448 -0.91029
vn -0.68373 -0.07026 -0.72635
vn -0.71833 0.01215 -0.69559
vn -0.77762 0.12392 -0.61640
vn -0.54929 0.12597 -0.82608
vn -0.78675 0.27636 -0.55196
vn -0.60839 0.23066 -0.75938
vn -0.95609 -0.00279 -0.29307
vn -0.96478 0.12199 -0.23305
vn -0.93058 0.30828 -0.19743
vn -0.81439 0.53341 -0.22854
vn -0.69745 0.42478 -0.57717
vn -0.99100 0.13389 0.00015
vn -0.94952 0.31371 0.00022
vn -0.83373 0.55217 0.00016
vn -0.56190 0.82721 0.00005
vn -0.55292 0.77363 -0.30948
vn -0.12147 0.99260 -0.00012
vn 0.37780 0.92589 0.00018
vn 0.32033 0.81757 -0.47850
vn -0.13500 0.90538 -0.40257
vn 0.13828 0.50898 -0.84960
vn -0.18093 0.58692 -0.78917
vn -0.49191 0.54033 -0.68269
vn -0.30057 0.02624 -0.95340
vn -0.42076 0.34537 -0.83886
vn -0.56451 0.31432 -0.76324
vn 0.25973 -0.39371 -0.88178
vn -0.15914 -0.41325 -0.89660
vn -0.13111 -0.68652 -0.71519
vn 0.49009 -0.44717 -0.74823
vn 0.77008 -0.13273 -0.62399
vn 0.55505 -0.08480 -0.82748
vn 0.87391 -0.44379 -0.19832
vn 0.96175 -0.15275 -0.22738
vn 0.94137 0.21716 -0.25820
vn 0.99100 -0.13383 0.00065
vn 0.97199 0.23502 -0.00002
vn 0.94869 0.31622 -0.00006
vn -0.97591 -0.21818 0.00065
vn -0.99682 -0.07972 0.00011
vn -0.94514 -0.07978 -0.31676
vn -0.94744 -0.31993 0.00111
vn -0.99998 0.00674 0.00005
vn -0.36286 -0.93185 0.00010
vn 0.66267 -0.74891 -0.00026
vn 0.72556 0.68816 0.00015
vn 0.83289 0.55344 -0.00009
vn 0.73043 0.48400 -0.48189
vn 0.63054 0.60068 -0.49153
vn 0.46078 0.31805 -0.82857
vn 0.36140 0.38277 -0.85022
vn 0.24542 0.18849 -0.95092
vn -0.09256 0.00271 -0.99570
vn -0.18774 0.03358 -0.98164
vn -0.51227 -0.36875 -0.77563
vn -0.51951 -0.40380 -0.75303
vn -0.45368 -0.51799 -0.72516
vn -0.70488 -0.57921 -0.40946
vn -0.57592 -0.73391 -0.36013
vn -0.12681 -0.94567 -0.29938
vn -0.64105 -0.76749 -0.00048
vn -0.50866 -0.86096 -0.00066
vn 0.19387 -0.98103 0.00081
vn 0.21295 -0.94706 -0.24025
vn 0.22879 -0.89629 -0.37989
vn 0.90460 -0.42626 0.00110
vn 0.84023 0.54223 0.00002
vn 0.83949 0.54337 -0.00000
vn 0.73655 0.47542 -0.48112
vn 0.73784 0.47376 -0.48078
vn 0.49539 0.31832 -0.80825
vn 0.48743 0.31290 -0.81517
vn 0.29924 0.19179 -0.93471
vn 0.28219 0.18366 -0.94162
vn -0.32945 -0.22116 -0.91791
vn -0.32713 -0.21959 -0.91911
vn -0.51320 -0.34938 -0.78394
vn -0.51272 -0.35211 -0.78303
vn -0.51151 -0.35640 -0.78188
vn -0.33418 -0.21961 -0.91657
vn -0.72990 -0.50987 -0.45529
vn -0.72453 -0.51927 -0.45323
vn -0.72109 -0.53463 -0.44068
vn -0.81294 -0.58235 -0.00005
vn -0.80635 -0.59144 0.00009
vn -0.78195 -0.62334 -0.00001
vn -0.81845 -0.57457 -0.00000
vn 0.83902 0.54411 -0.00000
vn 0.83801 0.54566 -0.00000
vn 0.73427 0.47142 -0.48848
vn 0.73635 0.47437 -0.48245
vn 0.49843 0.30362 -0.81203
vn 0.50024 0.31630 -0.80605
vn 0.31008 0.17464 -0.93453
vn 0.30939 0.19121 -0.93151
vn -0.32348 -0.21283 -0.92199
vn -0.31362 -0.20403 -0.92737
vn -0.51996 -0.32421 -0.79027
vn -0.51596 -0.34055 -0.78601
vn -0.76201 -0.47400 -0.44120
vn -0.74123 -0.49786 -0.45024
vn -0.73268 -0.50689 -0.45415
vn -0.82667 -0.56269 -0.00003
vn -0.82030 -0.57193 0.00001
vn -0.84550 -0.53397 -0.00043
vn 0.84612 -0.53299 0.00089
vn 0.91725 -0.39831 0.00054
vn 0.88446 -0.40567 -0.23055
vn 0.81914 -0.54205 -0.18760
vn -0.33605 -0.94183 0.00457
vn -0.63637 -0.77138 0.00237
vn 0.91820 -0.24516 -0.31114
vn 0.71920 -0.16637 -0.67459
vn 0.73464 -0.34183 -0.58605
vn 0.97075 -0.24007 -0.00003
vn 0.51499 -0.07148 -0.85421
vn 0.57425 -0.25124 -0.77918
vn -0.26539 0.32696 -0.90701
vn -0.27258 0.39027 -0.87942
vn -0.48445 0.53487 -0.69226
vn -0.50672 0.50650 -0.69764
vn -0.67436 0.67454 -0.30039
vn -0.71356 0.65049 -0.26016
vn -0.86044 0.40090 -0.31451
vn -0.78438 0.39331 -0.47965
vn -0.73771 0.67512 0.00002
vn -0.91772 0.39723 -0.00032
vn -0.99389 -0.11038 -0.00122
vn -0.91462 -0.08885 -0.39444
vn -0.90319 -0.42924 -0.00127
vn -0.81670 -0.38974 -0.42557
vn -0.69577 0.71827 0.00015
vn -0.65178 0.66347 -0.36742
vn -0.68999 0.72382 -0.00010
vn -0.63413 0.64810 -0.42171
vn -0.68789 0.72582 -0.00027
vn -0.45879 0.49699 -0.73656
vn -0.43821 0.46105 -0.77163
vn -0.41820 0.43465 -0.79761
vn -0.61616 0.63915 -0.46025
vn -0.26519 0.34874 -0.89892
vn -0.26005 0.31240 -0.91366
vn 0.03451 0.13001 -0.99091
vn -0.00236 0.09242 -0.99572
vn -0.39990 0.40715 -0.82116
vn 0.37389 -0.03317 -0.92688
vn 0.60394 -0.11360 -0.78889
vn 0.55473 -0.10795 -0.82500
vn 0.48513 -0.14623 -0.86213
vn 0.33413 -0.30111 -0.89313
vn -0.07082 0.01622 -0.99736
vn 0.86067 -0.18834 -0.47305
vn 0.82589 -0.25372 -0.50351
vn 0.65220 -0.53864 -0.53339
vn 0.95637 -0.29214 0.00039
vn 0.77127 -0.63651 -0.00003
vn 0.28670 -0.95802 -0.00022
vn -0.24395 -0.96979 0.00047
vn -0.92395 0.38251 0.00026
vn -0.75950 0.65051 -0.00020
vn -0.65694 0.56123 -0.50344
vn -0.99757 -0.06960 0.00123
vn -0.94035 -0.34019 0.00119
vn -0.48229 -0.87601 0.00051
vn -0.67336 0.73932 0.00014
vn -0.59656 0.63759 -0.48743
vn -0.42254 0.33931 -0.84043
vn -0.68315 0.73028 -0.00004
vn 0.97549 -0.22005 0.00004
vn 0.97822 -0.20756 0.00021
vn 0.87838 -0.19558 -0.43611
vn 0.89732 -0.21663 -0.38456
vn 0.65480 -0.13340 -0.74393
vn 0.43198 -0.04254 -0.90088
vn 0.97834 -0.20699 0.00005
vn -0.82143 -0.43754 -0.36580
vn -0.86988 -0.49326 -0.00020
vn 0.76337 -0.64596 -0.00009
vn 0.88029 -0.47443 0.00034
vn 0.85196 -0.42013 -0.31249
vn 0.71783 -0.60042 -0.35244
vn 0.68602 -0.65176 -0.32339
vn 0.74078 -0.67175 0.00006
vn 0.71275 -0.64676 -0.27143
vn 0.74663 -0.66524 0.00006
vn 0.52110 -0.36966 -0.76929
vn 0.61856 -0.61950 -0.48333
vn 0.67187 -0.62207 -0.40201
vn 0.70899 -0.57883 -0.40284
vn 0.73689 -0.61790 -0.27421
vn 0.23060 -0.06293 -0.97101
vn 0.30243 -0.06346 -0.95106
vn 0.33483 0.27587 -0.90099
vn 0.07581 -0.11997 -0.98988
vn -0.03766 -0.17473 -0.98390
vn -0.74529 0.46101 -0.48169
vn -0.58369 0.66874 -0.46054
vn -0.62610 0.72554 -0.28565
vn -0.81719 0.48637 -0.30926
vn -0.92603 0.15325 -0.34494
vn -0.84046 0.16117 -0.51736
vn -0.90365 0.09767 -0.41697
vn -0.79602 0.09455 -0.59784
vn -0.86680 0.49865 0.00038
vn -0.98997 0.14130 0.00023
vn -0.99513 0.09855 0.00025
vn -0.99641 0.08469 0.00006
vn -0.87598 0.08495 -0.47481
vn -0.99699 0.07751 -0.00010
vn -0.99727 0.07379 0.00009
vn -0.82487 0.07164 -0.56076
vn -0.84949 0.07733 -0.52191
vn -0.37025 -0.01360 -0.92883
vn -0.70479 0.07666 -0.70526
vn -0.74750 0.08407 -0.65892
vn -0.05234 -0.13784 -0.98907
vn -0.04196 -0.12556 -0.99120
vn -0.05668 -0.15813 -0.98579
vn 0.63529 -0.48356 -0.60214
vn 0.59594 -0.44693 -0.66716
vn 0.69514 -0.53310 -0.48228
vn 0.71558 -0.55561 -0.42337
vn 0.73647 -0.58297 -0.34316
vn 0.68863 -0.52516 -0.49999
vn 0.78405 -0.62070 -0.00007
vn 0.77393 -0.63327 -0.00013
vn 0.75875 -0.65139 -0.00015
vn 0.80428 0.59425 -0.00068
vn 0.57697 0.81676 0.00095
vn 0.47516 0.75804 -0.44677
vn 0.69943 0.52433 -0.48567
vn 0.71902 0.48277 -0.49994
vn 0.82852 0.55996 0.00004
vn 0.42819 0.28618 -0.85718
vn 0.45417 0.27915 -0.84605
vn 0.48518 0.28724 -0.82589
vn 0.73162 0.46775 -0.49592
vn 0.83973 0.54300 0.00000
vn 0.21803 0.89743 -0.38351
vn 0.11427 0.81773 -0.56415
vn 0.31432 0.94931 0.00320
vn -0.64956 0.76031 0.00027
vn -0.93061 0.05729 -0.36151
vn -0.92727 0.11914 -0.35493
vn -0.78079 0.10467 -0.61597
vn -0.80335 0.05818 -0.59265
vn -0.30552 0.04761 -0.95099
vn -0.33615 0.00164 -0.94181
vn 0.25345 -0.07113 -0.96473
vn 0.26181 -0.18346 -0.94752
vn 0.26424 -0.25849 -0.92917
vn 0.68694 -0.40589 -0.60280
vn 0.65602 -0.50227 -0.56335
vn 0.66661 -0.52960 -0.52455
vn 0.55442 -0.43236 -0.71111
vn 0.78827 -0.61534 -0.00018
vn 0.77893 -0.62711 0.00010
vn 0.78827 -0.61533 0.00000
vn 0.80321 -0.48114 -0.35121
vn 0.97981 0.19992 0.00191
vn 0.96671 -0.25586 -0.00006
vn 0.74470 -0.20376 -0.63553
vn 0.86335 0.42887 -0.26587
vn 0.89334 0.44936 0.00418
vn 0.33019 0.94390 -0.00476
vn 0.32483 0.91302 -0.24673
vn 0.15464 0.94820 -0.27749
vn 0.15849 0.98736 -0.00245
vn 0.65525 -0.30717 -0.69014
vn 0.96741 -0.01567 -0.25274
vn 0.78954 -0.01364 -0.61355
vn 0.99945 -0.03331 0.00027
vn 0.64251 0.46613 -0.60820
vn 0.50619 0.36472 -0.78150
vn 0.60732 -0.02892 -0.79393
vn 0.05319 -0.24598 -0.96782
vn 0.77271 0.58219 -0.25293
vn 0.32655 0.89586 -0.30132
vn 0.27793 0.71419 -0.64240
vn 0.96731 0.25359 -0.00032
vn 0.48143 0.87648 -0.00085
vn 0.31227 0.94999 0.00027
vn 0.09136 0.99582 0.00052
vn 0.10703 0.91796 -0.38195
vn 0.05204 0.99864 -0.00023
vn 0.03349 0.99944 -0.00003
vn 0.04019 0.88203 -0.46948
vn 0.06149 0.89572 -0.44035
vn 0.02490 0.59917 -0.80023
vn 0.02911 0.63671 -0.77055
vn 0.07246 0.69469 -0.71565
vn -0.18055 0.11469 -0.97686
vn 0.01620 0.50233 -0.86452
vn 0.20165 0.55362 -0.80799
vn -0.44434 -0.22184 -0.86796
vn -0.39639 -0.22226 -0.89077
vn -0.55226 -0.40375 -0.72938
vn -0.62151 -0.40117 -0.67290
vn -0.65230 -0.38651 -0.65202
vn -0.43276 -0.24160 -0.86853
vn -0.78005 -0.55349 -0.29184
vn -0.82466 -0.50458 -0.25561
vn -0.84311 -0.44984 -0.29463
vn -0.63662 -0.35022 -0.68707
vn -0.39113 -0.25438 -0.88448
vn -0.58904 -0.31446 -0.74441
vn 0.05488 -0.15374 -0.98659
vn -0.85271 -0.52239 -0.00022
vn -0.87116 -0.49099 -0.00022
vn -0.82349 -0.56734 -0.00015
vn 0.01426 0.99990 0.00008
vn 0.09045 0.99590 -0.00120
vn 0.07532 0.87338 -0.48118
vn 0.02188 0.87454 -0.48446
vn 0.06596 0.56103 -0.82516
vn 0.02640 0.57620 -0.81688
vn 0.03224 0.06480 -0.99738
vn -0.05524 0.06830 -0.99613
vn -0.12319 0.08590 -0.98866
vn -0.23456 -0.43538 -0.86915
vn -0.37568 -0.40603 -0.83307
vn -0.47610 -0.39329 -0.78654
vn -0.57755 -0.66067 -0.47953
vn -0.67137 -0.60183 -0.43251
vn -0.72442 -0.58321 -0.36753
vn -0.75172 -0.65949 -0.00013
vn -0.78805 -0.61561 -0.00017
vn 0.29036 -0.95692 0.00002
vn -0.15293 -0.98824 0.00016
vn -0.13175 -0.83761 -0.53014
vn 0.77906 -0.62694 0.00023
vn 0.99888 -0.04722 -0.00005
vn 0.83794 0.54576 -0.00144
vn 0.40413 0.91470 -0.00258
vn -0.46166 -0.88705 0.00021
vn -0.39763 -0.76140 -0.51202
vn -0.05733 -0.44669 -0.89285
vn -0.66224 -0.74929 -0.00006
vn -0.66968 -0.21968 0.70941
vn -0.93579 -0.20754 0.28498
vn -0.91817 -0.30516 0.25269
vn -0.87179 -0.28333 0.39964
vn -0.34162 -0.60475 0.71943
vn -0.37756 -0.21956 0.89958
vn -0.34311 -0.88891 0.30350
vn -0.23241 0.76761 0.59729
vn -0.58635 0.65378 0.47830
vn -0.72527 0.33573 0.60105
vn -0.26670 0.30624 0.91383
vn -0.44664 -0.33944 0.82782
vn -0.67986 -0.56718 0.46487
vn -0.22667 -0.86063 0.45600
vn -0.18688 -0.60920 0.77068
vn 0.24320 -0.83323 0.49657
vn 0.07521 -0.50109 0.86212
vn -0.21040 -0.11935 0.97030
vn -0.26522 -0.48882 0.83109
vn 0.35379 -0.65654 0.66617
vn 0.36382 -0.72196 0.58856
vn -0.20572 -0.79136 0.57570
vn -0.24243 -0.90110 0.35950
vn -0.55962 -0.70272 0.43932
vn -0.49763 -0.39509 0.77218
vn -0.26657 0.00836 0.96378
vn -0.50198 -0.17598 0.84678
vn -0.01576 -0.10304 0.99455
vn -0.00179 -0.06799 0.99768
vn -0.00161 -0.02867 0.99959
vn -0.53050 -0.28696 0.79764
vn 0.18864 -0.42331 0.88613
vn 0.24309 -0.81700 0.52289
vn 0.67751 -0.53463 0.50512
vn 0.47087 -0.33441 0.81637
vn 0.88428 -0.02275 0.46640
vn 0.54408 0.03072 0.83847
vn 0.20124 0.06188 0.97759
vn -0.88051 -0.04788 0.47161
vn -0.64029 -0.02394 0.76776
vn -0.52590 0.19014 0.82902
vn -0.80111 0.34652 0.48801
vn 0.19318 0.49210 0.84883
vn 0.22879 0.25590 0.93924
vn 0.74761 0.20780 0.63079
vn 0.40270 0.43093 0.80755
vn 0.72976 0.51354 0.45137
vn 0.32947 0.82811 0.45352
vn 0.23874 0.52685 0.81574
vn 0.51079 0.40085 0.76053
vn 0.50892 -0.44732 0.73546
vn 0.62498 -0.71747 0.30764
vn 0.96278 0.05212 0.26523
vn 0.93830 0.18039 0.29504
vn 0.68141 0.05741 0.72965
vn 0.90729 0.05623 0.41673
vn 0.39489 -0.06050 0.91673
vn 0.89661 0.30890 0.31728
vn 0.65278 0.20988 0.72789
vn 0.90743 0.29653 0.29772
vn 0.68454 0.23906 0.68866
vn 0.39216 0.11437 0.91276
vn 0.44069 0.17972 0.87949
vn 0.75106 0.18853 0.63275
vn 0.53431 0.16249 0.82953
vn -0.71871 0.01294 0.69519
vn -0.68413 -0.06900 0.72609
vn -0.41081 -0.05229 0.91022
vn -0.45653 0.03328 0.88909
vn -0.54797 0.12580 0.82699
vn -0.77740 0.12427 0.61660
vn -0.60514 0.23196 0.76158
vn -0.78667 0.27667 0.55191
vn -0.96473 0.12307 0.23272
vn -0.95610 -0.00086 0.29303
vn -0.93109 0.30777 0.19582
vn -0.69818 0.42167 0.57856
vn -0.81452 0.53384 0.22709
vn -0.55283 0.77373 0.30938
vn -0.13411 0.90569 0.40218
vn 0.32162 0.81775 0.47734
vn -0.18366 0.58513 0.78987
vn 0.13890 0.50969 0.84907
vn -0.49428 0.53515 0.68506
vn -0.42425 0.33356 0.84187
vn -0.30472 0.02139 0.95220
vn -0.56377 0.30568 0.76729
vn 0.43205 -0.60115 0.67228
vn -0.13173 -0.69666 0.70521
vn -0.16568 -0.43399 0.88555
vn 0.25436 -0.40604 0.87774
vn 0.54677 -0.08541 0.83292
vn 0.76665 -0.13207 0.62833
vn 0.96170 -0.15174 0.22829
vn 0.87363 -0.44308 0.20114
vn 0.94139 0.21748 0.25785
vn -0.94524 -0.07920 0.31661
vn 0.63046 0.60083 0.49145
vn 0.73015 0.48400 0.48232
vn 0.36187 0.38293 0.84995
vn 0.46021 0.31772 0.82902
vn -0.09305 0.00255 0.99566
vn 0.24513 0.18817 0.95105
vn -0.18752 0.03384 0.98168
vn -0.52085 -0.40279 0.75264
vn -0.51331 -0.36889 0.77488
vn -0.45154 -0.51957 0.72537
vn -0.57578 -0.73306 0.36209
vn -0.70706 -0.57764 0.40792
vn -0.12528 -0.94603 0.29887
vn 0.20868 -0.94944 0.23458
vn 0.73784 0.47374 0.48080
vn 0.73655 0.47541 0.48112
vn 0.48746 0.31303 0.81511
vn 0.49537 0.31830 0.80826
vn 0.28227 0.18392 0.94154
vn 0.29920 0.19177 0.93472
vn -0.51268 -0.35205 0.78308
vn -0.51319 -0.34936 0.78396
vn -0.32707 -0.21951 0.91915
vn -0.32933 -0.22102 0.91798
vn -0.33404 -0.21945 0.91665
vn -0.51142 -0.35632 0.78197
vn -0.72456 -0.51923 0.45322
vn -0.72990 -0.50987 0.45528
vn -0.72112 -0.53483 0.44040
vn 0.73635 0.47436 0.48246
vn 0.73428 0.47146 0.48843
vn 0.50025 0.31632 0.80604
vn 0.49849 0.30378 0.81193
vn 0.30943 0.19128 0.93149
vn 0.31017 0.17488 0.93446
vn -0.51600 -0.34062 0.78595
vn -0.51984 -0.32426 0.79033
vn -0.31352 -0.20414 0.92738
vn -0.32354 -0.21293 0.92194
vn -0.74126 -0.49787 0.45018
vn -0.76200 -0.47430 0.44090
vn -0.73267 -0.50690 0.45414
vn 0.81976 -0.54160 0.18620
vn 0.88433 -0.40637 0.22984
vn 0.73415 -0.34554 0.58449
vn 0.71884 -0.16838 0.67447
vn 0.91881 -0.24349 0.31065
vn 0.57331 -0.25544 0.77850
vn 0.51380 -0.07478 0.85464
vn -0.50300 0.50864 0.69877
vn -0.48268 0.53694 0.69190
vn -0.27283 0.38967 0.87961
vn -0.25962 0.32884 0.90800
vn -0.71227 0.65182 0.26039
vn -0.67244 0.67662 0.30002
vn -0.76815 0.41412 0.48831
vn -0.85394 0.41054 0.31975
vn -0.91257 -0.08022 0.40097
vn -0.81629 -0.39152 0.42471
vn -0.65192 0.66337 0.36733
vn -0.63400 0.64836 0.42151
vn -0.45887 0.49671 0.73670
vn -0.43858 0.46029 0.77187
vn -0.61554 0.64009 0.45977
vn -0.41791 0.43525 0.79744
vn -0.26033 0.31129 0.91396
vn -0.26560 0.34797 0.89910
vn 0.03424 0.12989 0.99094
vn -0.39844 0.40832 0.82129
vn -0.00116 0.09318 0.99565
vn 0.55408 -0.10928 0.82526
vn 0.60198 -0.11751 0.78982
vn 0.37206 -0.03678 0.92748
vn 0.48443 -0.14499 0.86273
vn -0.07055 0.01521 0.99739
vn 0.33273 -0.30006 0.89401
vn 0.82503 -0.25225 0.50566
vn 0.86021 -0.18980 0.47330
vn 0.65170 -0.53672 0.53593
vn -0.65615 0.56173 0.50391
vn -0.59545 0.63818 0.48802
vn -0.42166 0.33961 0.84076
vn 0.89765 -0.21529 0.38453
vn 0.87746 -0.19768 0.43701
vn 0.65514 -0.13266 0.74377
vn 0.43221 -0.04264 0.90076
vn -0.81932 -0.44161 0.36564
vn 0.71330 -0.60827 0.34816
vn 0.85024 -0.42732 0.30738
vn 0.68572 -0.65269 0.32215
vn 0.71490 -0.64484 0.27037
vn 0.61839 -0.62150 0.48097
vn 0.51635 -0.38697 0.76396
vn 0.67666 -0.61825 0.39986
vn 0.73507 -0.61981 0.27477
vn 0.70458 -0.58326 0.40420
vn 0.23048 -0.07099 0.97048
vn 0.34432 0.28376 0.89494
vn 0.29757 -0.06117 0.95274
vn 0.07731 -0.12604 0.98901
vn -0.03950 -0.17652 0.98350
vn -0.81855 0.48556 0.30692
vn -0.62542 0.72728 0.28269
vn -0.58314 0.67328 0.45457
vn -0.74939 0.45890 0.47730
vn -0.84188 0.15912 0.51567
vn -0.92649 0.15196 0.34427
vn -0.79421 0.10041 0.59929
vn -0.90287 0.10039 0.41804
vn -0.87594 0.08503 0.47488
vn -0.84956 0.07691 0.52185
vn -0.82472 0.07206 0.56093
vn -0.70481 0.07601 0.70532
vn -0.37011 -0.01333 0.92889
vn -0.74748 0.08408 0.65894
vn -0.05228 -0.13774 0.98909
vn -0.04174 -0.12511 0.99126
vn -0.05734 -0.15942 0.98554
vn 0.71535 -0.55605 0.42318
vn 0.69378 -0.53526 0.48184
vn 0.59378 -0.45090 0.66642
vn 0.63670 -0.48200 0.60191
vn 0.68697 -0.52573 0.50168
vn 0.73556 -0.58365 0.34396
vn 0.70228 0.52371 0.48221
vn 0.48521 0.76002 0.43236
vn 0.71900 0.48255 0.50018
vn 0.45372 0.27953 0.84617
vn 0.43059 0.28847 0.85521
vn 0.73164 0.46780 0.49585
vn 0.48511 0.28713 0.82597
vn 0.15110 0.83780 0.52465
vn 0.23313 0.90174 0.36402
vn -0.80359 0.05799 0.59235
vn -0.78112 0.10612 0.61530
vn -0.92742 0.11899 0.35460
vn -0.93061 0.05660 0.36160
vn -0.33667 0.00176 0.94162
vn -0.30512 0.04853 0.95108
vn 0.25809 -0.18449 0.94834
vn 0.25228 -0.07216 0.96496
vn 0.26370 -0.25806 0.92944
vn 0.65573 -0.50211 0.56382
vn 0.68420 -0.40735 0.60493
vn 0.55481 -0.43197 0.71105
vn 0.66688 -0.52921 0.52460
vn 0.80322 -0.48112 0.35122
vn 0.74325 -0.20448 0.63700
vn 0.85700 0.43648 0.27393
vn 0.15011 0.95035 0.27257
vn 0.31590 0.91859 0.23748
vn 0.65224 -0.32493 0.68483
vn 0.78977 -0.01546 0.61321
vn 0.96770 -0.01762 0.25147
vn 0.60622 -0.02692 0.79484
vn 0.51095 0.35602 0.78242
vn 0.64575 0.45940 0.60989
vn 0.04824 -0.25185 0.96656
vn 0.77311 0.58116 0.25406
vn 0.28115 0.70945 0.64625
vn 0.33198 0.89273 0.30467
vn 0.11010 0.91719 0.38294
vn 0.06000 0.89634 0.43929
vn 0.04047 0.88188 0.46974
vn 0.03064 0.63569 0.77133
vn 0.02536 0.59861 0.80064
vn 0.07369 0.69477 0.71544
vn 0.01597 0.50387 0.86363
vn -0.17740 0.11263 0.97767
vn 0.19927 0.55141 0.81008
vn -0.62392 -0.39558 0.67397
vn -0.55431 -0.40035 0.72970
vn -0.39988 -0.21798 0.89027
vn -0.44575 -0.21728 0.86838
vn -0.43146 -0.23986 0.86966
vn -0.65147 -0.38503 0.65371
vn -0.82462 -0.50419 0.25650
vn -0.78126 -0.55135 0.29265
vn -0.63556 -0.35021 0.68805
vn -0.84083 -0.45390 0.29493
vn -0.39372 -0.24648 0.88557
vn -0.58875 -0.31531 0.74428
vn 0.05496 -0.15816 0.98588
vn 0.02171 0.87460 0.48436
vn 0.07501 0.87411 0.47990
vn 0.02571 0.57661 0.81661
vn 0.06605 0.56115 0.82507
vn -0.05667 0.07044 0.99591
vn 0.03168 0.06523 0.99737
vn -0.12238 0.08558 0.98879
vn -0.37641 -0.40394 0.83376
vn -0.23590 -0.43172 0.87061
vn -0.47580 -0.39299 0.78688
vn -0.67171 -0.60128 0.43274
vn -0.57894 -0.65895 0.48022
vn -0.72479 -0.58242 0.36806
vn -0.13218 -0.83711 0.53083
vn -0.39828 -0.75989 0.51376
vn -0.05829 -0.44556 0.89335
f 1//1 10//2 11//3 12//4
f 1//5 12//4 13//6 14//5
f 1//5 14//5 15//7 10//7
f 2//8 16//9 18//10 19//11
f 2//12 19//13 20//14 21//15
f 2//8 21//15 17//16 16//9
f 3//17 22//18 23//19 24//20
f 3//17 25//21 26//22 22//18
f 3//17 24//20 27//23 25//21
f 4//24 28//25 29//26 30//27
f 32//28 33//29 28//25 4//24
f 4//24 30//27 31//30 32//28
f 5//31 30//27 29//32 34//32
f 5//31 35//33 36//34 30//27
f 5//31 37//35 38//36 35//33
f 6//37 39//38 40//39 41//40
f 6//37 42//41 43//42 39//38
f 6//37 41//40 44//43 42//41
f 7//44 24//20 23//19 45//45
f 7//44 46//46 27//23 24//20
f 7//44 45//45 47//47 46//46
f 48//48 49//49 50//50 51//51
f 8//52 52//53 53//54 54//55
f 8//52 54//55 43//42 42//41
f 8//52 42//41 44//43 52//53
f 9//56 55//57 15//57 14//56
f 9//58 56//59 57//60 55//61
f 9//56 14//56 13//62 56//59
f 57//60 58//63 316//64 317//65
f 57//60 317//65 318//66 55//61
f 57//60 56//59 59//67 58//63
f 59//67 60//68 61//69 58//63
f 59//67 56//59 13//62 62//70
f 59//67 62//70 63//71 60//68
f 63//71 64//72 65//73 60//68
f 63//74 62//75 66//76 67//77
f 63//74 67//77 68//78 64//79
f 68//78 69//80 70//81 64//79
f 68//78 67//77 71//82 72//83
f 68//78 72//83 73//84 69//80
f 73//84 74//85 75//86 69//80
f 73//84 72//83 319//87 320//88
f 73//84 320//88 321//89 74//85
f 321//89 76//90 77//91 74//85
f 78//92 322//93 79//94 80//95
f 78//92 80//95 77//91 76//90
f 80//95 79//94 81//96 82//97
f 80//95 82//97 83//98 77//91
f 83//98 82//97 84//99 85//100
f 83//98 85//100 86//101 75//86
f 83//98 75//86 74//85 77//91
f 86//102 85//103 87//104 88//105
f 86//102 88//105 89//106 70//107
f 86//101 70//81 69//80 75//86
f 89//106 88//105 90//108 91//109
f 89//106 91//109 92//110 65//73
f 89//106 65//73 64//72 70//107
f 92//110 91//109 323//111 93//112
f 92//110 93//112 94//113 61//69
f 92//110 61//69 60//68 65//73
f 94//113 316//64 58//63 61//69
f 95//114 324//115 97//116 11//3
f 95//114 11//3 10//2 96//117
f 97//116 71//82 67//77 66//76
f 97//116 66//76 12//4 11//3
f 97//116 324//115 325//118 71//82
f 96//119 10//7 15//7 98//119
f 98//120 15//57 55//57 318//120
f 325//118 319//87 72//83 71//82
f 100//121 99//122 101//123 102//124
f 100//121 102//124 79//94 322//93
f 102//124 101//123 103//125 104//126
f 102//124 104//126 81//96 79//94
f 104//126 103//125 105//127 106//128
f 104//126 106//128 107//129 81//96
f 107//129 106//128 108//130 109//131
f 107//129 109//131 110//132 84//99
f 107//129 84//99 82//97 81//96
f 110//132 109//131 111//133 112//134
f 110//132 112//134 113//135 87//104
f 110//132 87//104 85//103 84//99
f 113//135 112//134 326//136 114//137
f 113//135 114//138 327//138 90//139
f 113//135 90//139 88//140 87//104
f 327//141 323//111 91//109 90//108
f 330//142 329//143 116//144 117//145
f 330//142 117//145 101//123 99//122
f 117//145 116//144 118//146 119//147
f 117//145 119//147 103//125 101//123
f 119//147 118//146 120//148 121//149
f 119//147 121//149 105//127 103//125
f 121//150 120//151 122//152 123//153
f 121//150 123//153 124//154 105//155
f 124//154 123//153 125//156 126//157
f 124//154 126//157 127//158 108//130
f 124//154 108//130 106//128 105//155
f 127//158 126//157 128//159 115//160
f 127//158 115//160 328//161 111//133
f 127//158 111//133 109//131 108//130
f 128//159 126//157 125//156 331//162
f 130//163 332//164 131//165 132//166
f 130//163 132//166 116//144 329//143
f 132//166 131//165 133//167 134//168
f 132//166 134//168 118//146 116//144
f 134//168 133//167 135//169 136//170
f 134//168 136//170 120//148 118//146
f 136//171 135//172 137//173 138//174
f 136//171 138//174 122//152 120//151
f 138//174 137//173 139//175 140//176
f 138//174 140//176 141//177 122//152
f 141//177 140//176 142//178 129//179
f 141//177 129//179 331//162 125//156
f 141//177 125//156 123//153 122//152
f 142//178 140//176 139//175 333//180
f 146//181 145//182 148//183 33//184
f 146//185 33//29 32//28 147//186
f 148//183 149//187 150//188 151//189
f 148//183 151//189 28//25 33//184
f 148//183 145//182 335//190 149//187
f 151//189 150//188 152//191 153//192
f 151//189 153//192 29//26 28//25
f 153//193 152//194 154//195 155//196
f 153//193 155//196 34//32 29//32
f 155//196 154//195 156//197 157//198
f 155//196 157//198 158//199 34//200
f 158//199 157//198 144//201 143//202
f 158//199 143//202 334//203 159//204
f 158//199 159//204 5//31 34//200
f 159//204 334//203 336//205 160//206
f 159//204 160//206 37//35 5//31
f 160//206 336//205 333//180 139//175
f 160//206 139//175 137//173 37//35
f 157//198 156//197 337//207 144//201
f 337//207 156//197 162//208 161//209
f 162//208 163//210 164//211 161//209
f 162//208 156//197 154//195 165//212
f 162//208 165//212 166//213 163//210
f 166//213 167//214 168//215 163//210
f 166//213 165//212 169//216 170//217
f 166//213 170//217 171//218 167//214
f 171//218 172//219 173//220 167//214
f 171//218 170//221 174//222 175//223
f 171//218 175//223 176//224 172//219
f 176//224 177//225 178//226 172//219
f 176//224 175//223 179//227 180//228
f 176//224 180//228 181//229 177//225
f 181//229 26//22 25//21 177//225
f 181//229 180//228 338//230 182//231
f 181//229 182//231 183//232 26//22
f 183//232 184//233 22//18 26//22
f 185//234 339//235 186//236 47//47
f 185//234 47//47 45//45 187//237
f 187//237 45//45 23//19 340//238
f 340//239 23//19 22//18 184//233
f 186//236 339//235 341//240 188//241
f 186//236 188//241 173//220 189//242
f 186//236 189//242 46//46 47//47
f 189//242 173//220 172//219 178//226
f 189//242 178//226 27//23 46//46
f 188//241 341//240 342//243 168//215
f 188//241 168//215 167//214 173//220
f 342//243 164//211 163//210 168//215
f 344//244 343//245 190//246 191//247
f 344//244 191//247 149//187 335//190
f 191//247 190//246 174//222 192//248
f 191//247 192//248 150//188 149//187
f 192//248 174//222 170//221 169//249
f 192//248 169//249 152//191 150//188
f 190//246 179//227 175//223 174//222
f 190//246 343//245 345//250 179//227
f 345//250 338//230 180//228 179//227
f 178//226 177//225 25//21 27//23
f 169//216 165//212 154//195 152//194
f 147//186 32//28 193//251 346//252
f 347//253 348//254 196//255 197//256
f 347//253 197//256 198//257 195//258
f 198//257 199//259 200//260 195//258
f 198//257 197//256 201//261 202//262
f 198//257 202//262 203//263 199//259
f 203//263 204//264 205//265 199//259
f 203//266 202//267 206//268 207//266
f 203//266 207//266 208//269 204//269
f 208//269 209//270 210//270 204//269
f 208//271 207//272 211//273 212//274
f 208//271 212//274 213//275 209//276
f 213//275 214//277 215//278 209//276
f 213//275 212//274 349//279 350//280
f 213//275 350//280 216//281 214//277
f 216//281 217//282 218//283 214//277
f 219//284 351//285 220//286 221//287
f 219//284 221//287 218//283 217//282
f 221//287 220//286 222//288 223//289
f 221//287 223//289 224//290 218//283
f 224//291 223//292 225//292 226//291
f 224//291 226//291 227//293 215//293
f 224//290 215//278 214//277 218//283
f 227//294 226//295 228//296 229//297
f 227//294 229//297 230//298 210//299
f 227//293 210//270 209//270 215//293
f 230//298 229//297 231//300 232//301
f 230//298 232//301 352//302 205//265
f 230//298 205//265 204//264 210//299
f 352//302 200//260 199//259 205//265
f 353//303 354//304 235//305 236//306
f 353//303 236//306 237//307 234//308
f 237//307 236//306 238//309 239//310
f 237//307 239//310 240//311 241//312
f 237//307 241//312 355//313 234//308
f 355//313 241//312 131//165 332//164
f 241//312 240//311 133//167 131//165
f 240//311 239//310 35//33 38//36
f 240//311 38//36 135//169 133//167
f 239//310 238//309 36//34 35//33
f 236//306 235//305 206//268 238//309
f 235//305 211//314 207//315 206//268
f 235//305 354//304 233//316 211//314
f 233//317 349//279 212//274 211//273
f 243//318 242//319 244//320 245//321
f 243//318 245//321 220//286 351//285
f 245//321 244//320 246//322 247//323
f 245//321 247//323 222//288 220//286
f 247//323 246//322 248//324 249//325
f 247//323 249//325 250//326 222//288
f 250//326 249//325 251//327 252//328
f 250//326 252//328 253//329 225//330
f 250//326 225//292 223//292 222//288
f 253//329 252//328 356//331 357//332
f 253//329 357//332 358//333 228//296
f 253//329 228//296 226//295 225//330
f 358//333 231//300 229//297 228//296
f 356//331 252//328 251//327 359//334
f 254//335 360//336 255//337 49//49
f 254//335 49//49 48//338 256//339
f 256//340 48//341 51//342 257//343
f 257//343 51//342 19//11 18//10
f 255//337 360//336 359//334 251//327
f 255//337 251//327 249//325 248//324
f 255//337 248//324 50//50 49//49
f 248//324 246//322 20//14 50//50
f 246//322 244//320 21//15 20//14
f 244//320 242//319 17//16 21//15
f 197//256 196//255 258//344 201//261
f 196//255 259//345 260//346 258//344
f 196//255 348//254 361//347 259//345
f 260//346 261//348 262//349 263//350
f 260//346 263//350 264//351 258//344
f 260//346 259//345 265//352 261//348
f 265//352 266//353 267//354 261//348
f 265//352 259//345 361//347 268//355
f 265//352 268//356 269//357 266//353
f 269//357 270//358 271//359 266//353
f 272//360 273//361 274//362 275//363
f 272//360 275//363 271//359 270//358
f 275//363 274//362 276//364 277//365
f 275//363 277//365 278//366 271//359
f 278//366 277//365 279//367 280//368
f 278//366 280//368 281//369 267//354
f 278//366 267//354 266//353 271//359
f 281//370 280//371 282//372 283//373
f 281//370 283//373 284//374 262//375
f 281//369 262//349 261//348 267//354
f 284//374 283//373 285//376 286//377
f 284//374 286//377 287//378 288//379
f 284//374 288//379 263//380 262//375
f 288//379 287//378 193//251 289//381
f 288//379 289//381 264//351 263//380
f 289//381 193//251 32//28 31//30
f 289//381 31//30 290//382 264//351
f 287//378 286//377 291//383 194//384
f 287//378 194//384 346//252 193//251
f 291//383 286//377 285//376 292//385
f 293//386 362//387 294//388 295//389
f 293//386 295//389 274//362 273//361
f 295//389 294//388 296//390 297//391
f 295//389 297//391 276//364 274//362
f 297//391 296//390 298//392 299//393
f 297//391 299//393 300//394 276//364
f 300//394 299//393 301//395 302//396
f 300//394 302//396 303//397 279//367
f 300//394 279//367 277//365 276//364
f 303//397 302//396 304//398 305//399
f 303//397 305//399 306//400 282//372
f 303//397 282//372 280//371 279//367
f 306//400 305//399 363//401 307//402
f 306//400 307//402 292//385 285//376
f 306//400 285//376 283//373 282//372
f 309//403 308//404 310//405 40//39
f 309//403 40//39 39//38 311//406
f 311//406 39//38 43//42 312//407
f 312//407 43//42 54//55 313//408
f 313//408 54//55 53//54 365//409
f 365//409 53//54 294//388 362//387
f 310//405 308//404 364//410 314//411
f 310//405 314//411 301//395 315//412
f 310//405 315//412 41//40 40//39
f 315//412 301//395 299//393 298//392
f 315//412 298//392 44//43 41//40
f 314//411 364//410 366//413 304//398
f 314//411 304//398 302//396 301//395
f 366//413 363//401 305//399 304//398
f 298//392 296//390 52//53 44//43
f 296//390 294//388 53//54 52//53
f 137//173 135//172 38//36 37//35
f 328//161 326//136 112//134 111//133
f 66//76 62//75 13//6 12//4
f 51//51 50//50 20//14 19//13
f 36//34 290//382 31//30 30//27
f 201//261 258//344 264//351 290//382
f 238//309 206//268 290//382 36//34
f 206//268 202//267 201//261 290//382
f 378//414 377//415 376//416 367//417
f 380//418 379//419 378//414 367//418
f 376//420 381//420 380//418 367//418
f 382//421 18//10 16//9 368//422
f 384//423 383//424 382//421 368//422
f 16//9 17//16 384//423 368//422
f 387//425 386//426 385//427 369//428
f 385//427 389//429 388//430 369//428
f 388//430 390//431 387//425 369//428
f 393//432 392//433 391//434 370//435
f 370//435 391//434 396//436 395//437
f 395//437 394//438 393//432 370//435
f 397//439 392//439 393//432 371//440
f 393//432 399//441 398//442 371//440
f 398//442 401//443 400//444 371//440
f 404//445 403//446 402//447 372//448
f 402//447 406//449 405//450 372//448
f 405//450 407//451 404//445 372//448
f 408//452 386//426 387//425 373//453
f 387//425 390//431 409//454 373//453
f 409//454 410//455 408//452 373//453
f 414//456 413//457 412//458 411//459
f 417//460 416//461 415//462 374//463
f 405//450 406//449 417//460 374//463
f 415//462 407//451 405//450 374//463
f 380//464 381//465 418//465 375//464
f 418//466 420//467 419//468 375//469
f 419//468 379//470 380//464 375//464
f 317//65 316//64 421//471 420//467
f 418//466 318//66 317//65 420//467
f 421//471 422//472 419//468 420//467
f 421//471 424//473 423//474 422//472
f 425//475 379//470 419//468 422//472
f 423//474 426//476 425//475 422//472
f 423//474 428//477 427//478 426//476
f 430//479 429//480 425//481 426//482
f 427//483 431//484 430//479 426//482
f 427//483 433//485 432//486 431//484
f 435//487 434//488 430//479 431//484
f 432//486 436//489 435//487 431//484
f 432//486 438//490 437//491 436//489
f 320//88 319//87 435//487 436//489
f 437//491 321//89 320//88 436//489
f 437//491 439//492 76//90 321//89
f 441//493 440//494 322//93 78//92
f 76//90 439//492 441//493 78//92
f 443//495 442//496 440//494 441//493
f 439//492 444//497 443//495 441//493
f 446//498 445//499 443//495 444//497
f 438//490 447//500 446//498 444//497
f 439//492 437//491 438//490 444//497
f 449//501 448//502 446//503 447//504
f 433//505 450//506 449//501 447//504
f 438//490 432//486 433//485 447//500
f 452//507 451//508 449//501 450//506
f 428//477 453//509 452//507 450//506
f 433//505 427//478 428//477 450//506
f 93//112 323//111 452//507 453//509
f 424//473 94//113 93//112 453//509
f 428//477 423//474 424//473 453//509
f 424//473 421//471 316//64 94//113
f 377//415 454//510 324//115 95//114
f 96//117 376//416 377//415 95//114
f 429//480 430//479 434//488 454//510
f 377//415 378//414 429//480 454//510
f 434//488 325//118 324//115 454//510
f 98//119 381//420 376//420 96//119
f 318//120 418//465 381//465 98//120
f 434//488 435//487 319//87 325//118
f 456//511 455//512 99//122 100//121
f 322//93 440//494 456//511 100//121
f 458//513 457//514 455//512 456//511
f 440//494 442//496 458//513 456//511
f 460//515 459//516 457//514 458//513
f 442//496 461//517 460//515 458//513
f 463//518 462//519 460//515 461//517
f 445//499 464//520 463//518 461//517
f 442//496 443//495 445//499 461//517
f 466//521 465//522 463//518 464//520
f 448//502 467//523 466//521 464//520
f 445//499 446//503 448//502 464//520
f 114//137 326//136 466//521 467//523
f 451//524 327//138 114//138 467//523
f 448//502 449//501 451//524 467//523
f 451//508 452//507 323//111 327//141
f 469//525 468//526 329//143 330//142
f 99//122 455//512 469//525 330//142
f 471//527 470//528 468//526 469//525
f 455//512 457//514 471//527 469//525
f 473//529 472//530 470//528 471//527
f 457//514 459//516 473//529 471//527
f 475//531 474//532 472//533 473//534
f 459//535 476//536 475//531 473//534
f 478//537 477//538 475//531 476//536
f 462//519 479//539 478//537 476//536
f 459//535 460//515 462//519 476//536
f 115//160 128//159 478//537 479//539
f 465//522 328//161 115//160 479//539
f 462//519 463//518 465//522 479//539
f 331//162 477//538 478//537 128//159
f 481//540 480//541 332//164 130//163
f 329//143 468//526 481//540 130//163
f 483//542 482//543 480//541 481//540
f 468//526 470//528 483//542 481//540
f 485//544 484//545 482//543 483//542
f 470//528 472//530 485//544 483//542
f 487//546 486//547 484//548 485//549
f 472//533 474//532 487//546 485//549
f 489//550 488//551 486//547 487//546
f 474//532 490//552 489//550 487//546
f 129//179 142//178 489//550 490//552
f 477//538 331//162 129//179 490//552
f 474//532 475//531 477//538 490//552
f 333//180 488//551 489//550 142//178
f 396//553 491//554 145//182 146//181
f 147//186 395//437 396//436 146//185
f 494//555 493//556 492//557 491//554
f 396//553 391//434 494//555 491//554
f 492//557 335//190 145//182 491//554
f 496//558 495//559 493//556 494//555
f 391//434 392//433 496//558 494//555
f 498//560 497//561 495//562 496//563
f 392//439 397//439 498//560 496//563
f 500//564 499//565 497//561 498//560
f 397//566 501//567 500//564 498//560
f 143//202 144//201 500//564 501//567
f 502//568 334//203 143//202 501//567
f 397//566 371//440 502//568 501//567
f 503//569 336//205 334//203 502//568
f 371//440 400//444 503//569 502//568
f 488//551 333//180 336//205 503//569
f 400//444 486//547 488//551 503//569
f 144//201 337//207 499//565 500//564
f 161//209 504//570 499//565 337//207
f 161//209 164//211 505//571 504//570
f 506//572 497//561 499//565 504//570
f 505//571 507//573 506//572 504//570
f 505//571 509//574 508//575 507//573
f 511//576 510//577 506//572 507//573
f 508//575 512//578 511//576 507//573
f 508//575 514//579 513//580 512//578
f 516//581 515//582 511//583 512//578
f 513//580 517//584 516//581 512//578
f 513//580 519//585 518//586 517//584
f 521//587 520//588 516//581 517//584
f 518//586 522//589 521//587 517//584
f 518//586 388//430 389//429 522//589
f 182//231 338//230 521//587 522//589
f 389//429 183//232 182//231 522//589
f 389//429 385//427 184//233 183//232
f 410//455 523//590 339//235 185//234
f 187//237 408//452 410//455 185//234
f 340//238 386//426 408//452 187//237
f 184//233 385//427 386//426 340//239
f 524//591 341//240 339//235 523//590
f 525//592 514//579 524//591 523//590
f 410//455 409//454 525//592 523//590
f 519//585 513//580 514//579 525//592
f 409//454 390//431 519//585 525//592
f 509//574 342//243 341//240 524//591
f 514//579 508//575 509//574 524//591
f 509//574 505//571 164//211 342//243
f 527//593 526//594 343//245 344//244
f 335//190 492//557 527//593 344//244
f 528//595 515//582 526//594 527//593
f 492//557 493//556 528//595 527//593
f 510//596 511//583 515//582 528//595
f 493//556 495//559 510//596 528//595
f 515//582 516//581 520//588 526//594
f 520//588 345//250 343//245 526//594
f 520//588 521//587 338//230 345//250
f 390//431 388//430 518//586 519//585
f 495//562 497//561 506//572 510//577
f 346//252 529//597 395//437 147//186
f 531//598 530//599 348//254 347//253
f 195//258 532//600 531//598 347//253
f 195//258 200//260 533//601 532//600
f 535//602 534//603 531//598 532//600
f 533//601 536//604 535//602 532//600
f 533//601 538//605 537//606 536//604
f 540//607 539//608 535//609 536//607
f 537//610 541//610 540//607 536//607
f 537//610 543//611 542//611 541//610
f 545//612 544//613 540//614 541//615
f 542//616 546//617 545//612 541//615
f 542//616 548//618 547//619 546//617
f 350//280 349//279 545//612 546//617
f 547//619 216//281 350//280 546//617
f 547//619 549//620 217//282 216//281
f 551//621 550//622 351//285 219//284
f 217//282 549//620 551//621 219//284
f 553//623 552//624 550//622 551//621
f 549//620 554//625 553//623 551//621
f 556//626 555//627 553//627 554//626
f 548//628 557//628 556//626 554//626
f 549//620 547//619 548//618 554//625
f 559//629 558//630 556//631 557//632
f 543//633 560//634 559//629 557//632
f 548//628 542//611 543//611 557//628
f 232//301 231//300 559//629 560//634
f 538//605 352//302 232//301 560//634
f 543//633 537//606 538//605 560//634
f 538//605 533//601 200//260 352//302
f 562//635 561//636 354//304 353//303
f 234//308 563//637 562//635 353//303
f 565//638 564//639 562//635 563//637
f 567//640 566//641 565//638 563//637
f 234//308 355//313 567//640 563//637
f 332//164 480//541 567//640 355//313
f 480//541 482//543 566//641 567//640
f 401//443 398//442 565//638 566//641
f 482//543 484//545 401//443 566//641
f 398//442 399//441 564//639 565//638
f 564//639 539//608 561//636 562//635
f 539//608 540//642 544//643 561//636
f 544//643 233//316 354//304 561//636
f 544//613 545//612 349//279 233//317
f 569//644 568//645 242//646 243//647
f 351//285 550//622 569//644 243//647
f 571//648 570//649 568//645 569//644
f 550//622 552//624 571//648 569//644
f 573//650 572//651 570//649 571//648
f 552//624 574//652 573//650 571//648
f 576//653 575//654 573//650 574//652
f 555//655 577//656 576//653 574//652
f 552//624 553//627 555//627 574//652
f 357//332 356//331 576//653 577//656
f 558//630 358//333 357//332 577//656
f 555//655 556//631 558//630 577//656
f 558//630 559//629 231//300 358//333
f 359//657 575//654 576//653 356//331
f 412//458 578//658 360//336 254//335
f 256//339 411//659 412//458 254//335
f 257//343 414//660 411//661 256//340
f 18//10 382//421 414//660 257//343
f 575//654 359//657 360//336 578//658
f 572//651 573//650 575//654 578//658
f 412//458 413//457 572//651 578//658
f 413//457 383//424 570//649 572//651
f 383//424 384//423 568//645 570//649
f 384//423 17//16 242//646 568//645
f 534//603 579//662 530//599 531//598
f 579//662 581//663 580//664 530//599
f 580//664 361//347 348//254 530//599
f 584//665 583//666 582//667 581//663
f 579//662 585//668 584//665 581//663
f 582//667 586//669 580//664 581//663
f 582//667 588//670 587//671 586//669
f 268//355 361//347 580//664 586//669
f 587//671 269//357 268//356 586//669
f 587//671 589//672 270//358 269//357
f 591//673 590//674 273//361 272//360
f 270//358 589//672 591//673 272//360
f 593//675 592//676 590//674 591//673
f 589//672 594//677 593//675 591//673
f 596//678 595//679 593//675 594//677
f 588//670 597//680 596//678 594//677
f 589//672 587//671 588//670 594//677
f 599//681 598//682 596//683 597//684
f 583//685 600//686 599//681 597//684
f 588//670 582//667 583//666 597//680
f 602//687 601//688 599//681 600//686
f 604//689 603//690 602//687 600//686
f 583//685 584//691 604//689 600//686
f 605//692 529//597 603//690 604//689
f 584//691 585//668 605//692 604//689
f 394//438 395//437 529//597 605//692
f 585//668 606//693 394//438 605//692
f 194//384 291//383 602//687 603//690
f 529//597 346//252 194//384 603//690
f 292//385 601//688 602//687 291//383
f 608//694 607//695 362//387 293//386
f 273//361 590//674 608//694 293//386
f 610//696 609//697 607//695 608//694
f 590//674 592//676 610//696 608//694
f 612//698 611//699 609//697 610//696
f 592//676 613//700 612//698 610//696
f 615//701 614//702 612//698 613//700
f 595//679 616//703 615//701 613//700
f 592//676 593//675 595//679 613//700
f 618//704 617//705 615//701 616//703
f 598//682 619//706 618//704 616//703
f 595//679 596//683 598//682 616//703
f 307//402 363//401 618//704 619//706
f 601//688 292//385 307//402 619//706
f 598//682 599//681 601//688 619//706
f 403//446 620//707 308//404 309//403
f 311//406 402//447 403//446 309//403
f 312//407 406//449 402//447 311//406
f 313//408 417//460 406//449 312//407
f 365//409 416//461 417//460 313//408
f 362//387 607//695 416//461 365//409
f 621//708 364//410 308//404 620//707
f 622//709 614//702 621//708 620//707
f 403//446 404//445 622//709 620//707
f 611//699 612//698 614//702 622//709
f 404//445 407//451 611//699 622//709
f 617//705 366//413 364//410 621//708
f 614//702 615//701 617//705 621//708
f 617//705 618//704 363//401 366//413
f 407//451 415//462 609//697 611//699
f 415//462 416//461 607//695 609//697
f 400//444 401//443 484//548 486//547
f 465//522 466//521 326//136 328//161
f 378//414 379//419 425//481 429//480
f 382//421 383//424 413//457 414//456
f 393//432 394//438 606//693 399//441
f 606//693 585//668 579//662 534//603
f 399//441 606//693 539//608 564//639
f 606//693 534//603 535//609 539//608
