# pilowlava3D glyph 'x' variant 2 — Vincent Wagner / Velvetyne, Free Art License
v 4.19064 1.83285 -0.25978
v 1.07947 0.20492 -0.27351
v 3.78894 4.29678 -0.41508
v 2.47562 2.46522 -0.27312
v 2.57584 2.20062 -0.41116
v 0.28983 4.14337 -0.44798
v 4.03195 4.02701 -0.39299
v 0.24826 3.65502 -0.39515
v 3.86996 1.77796 -0.26651
v 4.22229 1.88308 -0.14116
v 4.29276 1.65532 -0.16289
v 4.21915 1.65470 -0.30957
v 4.06564 1.63912 -0.38378
v 4.01660 1.86069 -0.30561
v 3.99661 1.97033 -0.15580
v 1.11850 0.14121 -0.00000
v 1.25400 0.34324 -0.00000
v 0.83917 0.01479 -0.00000
v 0.84045 0.12416 -0.33678
v 0.85590 0.37510 -0.49650
v 1.14322 0.37024 -0.32198
v 3.80447 4.43049 -0.25465
v 4.06766 4.28210 -0.25902
v 3.93390 4.17295 -0.43323
v 3.58453 4.24751 -0.45890
v 3.47202 4.42053 -0.26956
v 3.77396 4.05471 -0.51604
v 2.64203 2.49136 -0.25891
v 2.67905 2.46120 -0.31622
v 2.42926 2.38160 -0.38399
v 2.27057 2.56295 -0.36506
v 2.39752 2.58403 -0.18607
v 2.62939 2.51975 -0.15743
v 2.73059 2.41746 -0.30266
v 2.32538 2.06108 -0.51295
v 2.17108 2.25514 -0.49191
v 2.65479 1.93345 -0.44246
v 2.45645 1.83729 -0.52642
v 0.17770 4.25461 -0.28772
v 0.45193 4.42369 -0.28657
v 0.47488 4.19745 -0.48129
v 0.23785 3.91024 -0.45344
v 0.05792 3.93541 -0.26577
v 0.44553 3.89892 -0.53489
v 4.15561 4.03072 -0.24973
v 3.94870 3.88862 -0.43228
v 4.09991 3.78807 -0.24706
v 0.31110 0.17138 -0.29395
v 0.21243 0.42676 -0.34123
v 0.51492 0.39711 -0.51604
v 0.53903 0.11677 -0.34505
v 0.41513 3.60361 -0.42854
v 0.36768 3.43351 -0.22728
v 0.13968 3.60294 -0.24619
v 3.81992 1.81271 -0.14735
v 3.91168 1.59316 -0.31682
v 3.83752 1.56232 -0.16678
v 3.92090 1.34316 -0.18666
v 3.99643 1.36752 -0.33447
v 4.06198 1.13591 -0.31777
v 3.99564 1.12736 -0.18060
v 4.11316 1.39585 -0.38503
v 4.15878 1.15006 -0.36877
v 4.19138 0.91063 -0.33664
v 4.10965 0.90898 -0.28470
v 4.23047 1.41189 -0.33348
v 4.25613 1.16389 -0.32294
v 4.27094 0.91689 -0.28357
v 4.23846 0.67179 -0.24843
v 4.18002 0.68531 -0.30088
v 4.32617 1.17556 -0.17861
v 4.31775 0.92423 -0.15835
v 4.26703 0.66611 -0.14195
v 4.14420 0.40239 -0.14934
v 4.12454 0.44606 -0.25302
v 3.91977 0.13286 -0.00000
v 3.92209 0.16314 -0.18320
v 3.56735 0.00000 -0.00000
v 3.23300 0.09281 -0.25766
v 3.58359 0.04038 -0.22447
v 3.33224 0.24438 -0.43614
v 3.62439 0.17197 -0.38753
v 3.91772 0.25074 -0.31552
v 3.67758 0.34826 -0.44429
v 3.90604 0.36748 -0.36074
v 4.08704 0.49732 -0.30637
v 3.89404 0.48948 -0.30830
v 4.03989 0.55282 -0.26501
v 4.12201 0.70486 -0.25391
v 4.01822 0.58446 -0.15900
v 4.08484 0.71750 -0.15077
v 4.05695 0.91048 -0.16162
v 4.03369 0.91226 -0.00000
v 3.96487 1.12346 -0.00000
v 4.31516 1.65318 -0.00000
v 4.22845 1.89661 -0.00000
v 4.31250 1.41858 -0.18437
v 3.99399 1.98694 -0.00000
v 2.74545 0.49512 -0.00000
v 2.92221 0.24681 -0.00000
v 2.81113 0.54463 -0.25269
v 2.97705 0.29922 -0.26008
v 2.94614 0.64529 -0.45890
v 3.10617 0.42389 -0.45370
v 3.13419 0.79238 -0.53650
v 3.28607 0.59889 -0.52686
v 3.46399 0.44417 -0.50343
v 3.44257 0.77334 -0.42795
v 3.58130 0.62478 -0.40801
v 3.73370 0.51878 -0.36521
v 3.66019 0.73734 -0.21341
v 3.78076 0.61639 -0.18730
v 3.89896 0.55721 -0.17003
v 3.91028 0.57870 -0.00000
v 3.59268 0.93065 -0.00000
v 2.53247 0.97710 -0.24766
v 2.67038 0.76603 -0.24989
v 2.66644 1.06911 -0.45128
v 2.80548 0.86154 -0.45471
v 2.85556 1.19688 -0.53823
v 2.99292 0.99514 -0.53796
v 3.03897 1.32225 -0.44231
v 3.17319 1.13137 -0.44121
v 3.30634 0.94541 -0.43637
v 3.29126 1.22589 -0.23674
v 3.41742 1.04783 -0.23364
v 3.54147 0.88413 -0.22994
v 3.47577 1.09494 -0.00000
v 3.22272 1.45514 -0.00000
v 2.32697 1.13929 -0.00000
v 2.26129 1.39462 -0.24537
v 2.39691 1.18684 -0.24587
v 2.39600 1.48972 -0.44714
v 2.53046 1.27752 -0.44803
v 2.58572 1.61097 -0.53424
v 2.71985 1.40037 -0.53763
v 2.77472 1.71577 -0.44716
v 2.90601 1.51688 -0.44493
v 2.90765 1.78463 -0.24569
v 3.03183 1.59708 -0.24186
v 3.16125 1.40989 -0.23923
v 3.09390 1.63910 -0.00000
v 2.80377 2.37606 -0.00000
v 2.96194 2.56990 -0.00000
v 2.73111 2.70144 -0.00000
v 2.62985 2.52991 -0.00000
v 2.43842 2.61072 -0.00000
v 2.74625 2.69269 -0.16721
v 2.82144 2.93580 -0.19154
v 2.88162 2.89453 -0.33416
v 2.78210 2.66944 -0.28102
v 2.96753 2.84252 -0.38670
v 2.83679 2.63386 -0.33219
v 3.05301 2.79479 -0.33865
v 2.90195 2.59678 -0.29222
v 3.12134 2.76191 -0.19096
v 2.94513 2.57723 -0.17148
v 2.78448 2.38406 -0.17648
v 2.74451 2.17931 -0.20888
v 2.80249 1.97630 -0.23788
v 3.33188 2.91173 -0.00000
v 3.29361 2.94102 -0.21308
v 3.46591 3.11720 -0.22769
v 3.50690 3.07118 -0.00000
v 3.20840 2.99523 -0.37875
v 3.36609 3.19621 -0.40612
v 3.52319 3.38939 -0.42922
v 3.63110 3.28145 -0.23485
v 3.09695 3.06240 -0.43648
v 3.22333 3.28473 -0.47826
v 3.35321 3.51340 -0.51172
v 3.48532 3.73110 -0.53676
v 3.67911 3.56390 -0.43995
v 3.07648 3.36777 -0.41623
v 3.16846 3.61141 -0.44673
v 3.25427 3.86088 -0.46868
v 3.38071 4.08878 -0.48002
v 3.61606 3.90937 -0.53889
v 3.00992 3.66988 -0.24636
v 3.07178 3.93599 -0.25882
v 3.18710 4.22733 -0.28164
v 3.12881 4.28026 -0.00000
v 3.44968 4.48059 -0.00000
v 3.80765 4.48148 -0.00000
v 4.15973 3.76066 -0.00000
v 3.96750 3.59269 -0.24820
v 4.21344 4.03812 -0.00000
v 3.79718 3.44072 -0.23812
v 3.82050 3.72573 -0.44671
v 2.95200 3.42336 -0.23278
v 2.89014 3.17795 -0.21729
v 2.98315 3.12615 -0.37958
v 2.25482 2.83462 -0.19077
v 2.15131 3.09888 -0.00000
v 1.54233 2.59958 -0.00000
v 1.80420 2.86182 -0.19241
v 1.69705 2.71756 -0.20736
v 1.56784 2.58100 -0.20395
v 1.41040 2.41284 -0.18847
v 1.39374 2.43178 -0.00000
v 1.80731 2.63436 -0.40448
v 1.63998 2.52920 -0.35998
v 1.44183 2.37598 -0.30819
v 1.28464 2.20249 -0.30090
v 1.24542 2.22681 -0.18424
v 1.74454 2.33856 -0.40110
v 1.49625 2.30280 -0.33089
v 1.35464 2.15653 -0.30926
v 1.27228 1.95478 -0.34511
v 1.16870 1.99836 -0.34163
v 1.52533 2.23578 -0.20771
v 1.39594 2.12525 -0.20021
v 1.34900 1.92084 -0.21299
v 1.31293 1.68819 -0.23830
v 1.20337 1.72714 -0.38782
v 1.36505 1.66970 -0.00000
v 1.35028 1.44213 -0.00000
v 1.27969 1.45491 -0.25672
v 1.33954 1.21640 -0.00000
v 1.22134 1.00045 -0.28719
v 1.25031 1.22348 -0.27336
v 0.99606 1.02903 -0.49153
v 1.06528 1.26179 -0.46116
v 1.13483 1.49482 -0.42553
v 0.83472 1.34301 -0.46039
v 0.94910 1.56514 -0.42568
v 1.06100 1.78323 -0.38836
v 0.80698 1.63246 -0.25589
v 0.94788 1.83228 -0.23300
v 1.09146 2.03092 -0.20439
v 0.89893 1.85805 -0.00000
v 1.05844 2.04784 -0.00000
v 1.52197 2.20618 -0.00000
v 1.92514 1.76070 -0.00000
v 1.67935 2.19876 -0.21748
v 1.84583 2.00688 -0.24452
v 1.99332 1.80622 -0.24378
v 1.98816 2.13373 -0.44249
v 2.13141 1.91406 -0.44302
v 2.26416 1.70634 -0.44496
v 2.12689 1.60228 -0.24511
v 1.30301 0.56188 -0.00000
v 1.31738 0.78170 -0.00000
v 1.18262 0.57319 -0.31642
v 1.19812 0.78650 -0.29965
v 0.89209 0.59665 -0.51490
v 0.93927 0.80638 -0.50931
v 0.53891 0.66156 -0.51854
v 0.60852 0.89255 -0.50937
v 0.71414 1.12048 -0.49053
v 0.35712 1.00434 -0.30680
v 0.50995 1.23103 -0.29076
v 0.66434 1.43119 -0.27260
v 0.09219 0.41670 -0.00000
v 0.23389 0.73520 -0.33143
v 0.25757 0.12436 -0.00000
v 0.53592 0.01196 -0.00000
v 1.88257 2.84154 -0.34898
v 1.85757 3.04886 -0.17224
v 1.90683 3.05360 -0.30052
v 1.84811 3.24466 -0.28297
v 1.89447 3.27273 -0.33472
v 1.98239 3.06403 -0.35895
v 1.98541 2.81181 -0.41481
v 1.80914 3.22296 -0.16712
v 1.65036 3.32230 -0.18514
v 1.69412 3.37448 -0.31772
v 1.79913 3.21645 -0.00000
v 1.63647 3.29629 -0.00000
v 1.43408 3.31202 -0.00000
v 1.44260 3.36681 -0.21437
v 1.23123 3.31862 -0.00000
v 1.02454 3.32613 -0.00000
v 1.02753 3.40133 -0.23375
v 1.23141 3.38587 -0.22847
v 1.04428 3.56592 -0.44155
v 1.26456 3.52490 -0.41899
v 1.48956 3.46304 -0.37478
v 1.32916 3.68536 -0.49052
v 1.54837 3.56947 -0.43490
v 1.74710 3.43970 -0.37374
v 1.61121 3.68164 -0.37991
v 1.79651 3.50711 -0.32795
v 1.95175 3.30820 -0.29832
v 1.83420 3.55724 -0.18926
v 1.98685 3.33162 -0.17704
v 2.12137 3.08944 -0.18476
v 2.06549 3.07633 -0.31468
v 2.14801 2.81081 -0.35822
v 1.99005 2.52531 -0.47634
v 2.00699 3.34426 -0.00000
v 1.85577 3.58146 -0.00000
v 0.81516 3.32855 -0.00000
v 0.60498 3.40501 -0.23023
v 0.82040 3.40579 -0.23589
v 0.62619 3.59729 -0.44913
v 0.83307 3.58842 -0.45200
v 0.66287 3.89178 -0.55543
v 0.88052 3.85907 -0.55329
v 1.10123 3.78877 -0.53169
v 0.97327 4.13491 -0.47759
v 1.20087 4.00899 -0.45790
v 1.40753 3.84924 -0.42562
v 1.29834 4.16314 -0.25651
v 1.48615 3.96554 -0.23943
v 1.66577 3.76969 -0.21740
v 1.69861 3.80729 -0.00000
v 0.77692 4.50949 -0.00000
v 0.43323 4.49661 -0.00000
v 0.76617 4.43321 -0.28398
v 0.12457 4.30345 -0.00000
v 0.00000 3.94927 -0.00000
v 0.08612 3.59492 -0.00000
v 1.05542 4.32998 -0.27010
v 0.72418 4.20084 -0.48968
v 3.88925 1.33335 -0.00000
v 3.81537 1.55310 -0.00000
v 3.80728 1.82428 -0.00000
v 4.33633 0.92728 -0.00000
v 4.27750 0.66160 -0.00000
v 4.15222 0.38470 -0.00000
v 3.19870 0.04178 -0.00000
v 4.07156 0.72198 -0.00000
v 4.34546 1.42069 -0.00000
v 4.35507 1.18033 -0.00000
v 3.80450 0.64802 -0.00000
v 4.01706 0.59750 -0.00000
v 3.69873 0.78039 -0.00000
v 2.46191 0.93076 -0.00000
v 2.60022 0.71801 -0.00000
v 3.35156 1.27150 -0.00000
v 2.19101 1.34774 -0.00000
v 2.97003 1.82066 -0.00000
v 2.78625 2.17324 -0.00000
v 2.78897 2.95325 -0.00000
v 2.86111 1.99303 -0.00000
v 3.14975 2.74624 -0.00000
v 2.99753 3.97097 -0.00000
v 4.02292 3.54249 -0.00000
v 4.10568 4.32026 -0.00000
v 3.84775 3.38068 -0.00000
v 3.67694 3.22636 -0.00000
v 2.88776 3.43737 -0.00000
v 2.83948 3.19823 -0.00000
v 2.93692 3.69111 -0.00000
v 2.29282 2.85368 -0.00000
v 1.66638 2.73989 -0.00000
v 1.77585 2.87600 -0.00000
v 1.41190 2.11127 -0.00000
v 1.38300 1.90729 -0.00000
v 1.32837 0.99608 -0.00000
v 1.22650 2.24122 -0.00000
v 1.78595 1.96442 -0.00000
v 1.64975 2.15335 -0.00000
v 2.05609 1.55406 -0.00000
v 0.42499 1.28938 -0.00000
v 0.59076 1.48284 -0.00000
v 0.74429 1.67105 -0.00000
v 0.24945 1.05649 -0.00000
v 0.11261 0.76325 -0.00000
v 1.84067 3.04944 -0.00000
v 0.59152 3.33359 -0.00000
v 1.53537 4.01144 -0.00000
v 1.08881 4.40400 -0.00000
v 0.33105 3.38915 -0.00000
v 1.34204 4.22202 -0.00000
v 4.19064 1.83285 0.25978
v 1.07947 0.20492 0.27351
v 3.78894 4.29678 0.41508
v 2.47562 2.46522 0.27312
v 2.57584 2.20062 0.41116
v 0.28983 4.14337 0.44798
v 4.03195 4.02701 0.39299
v 0.24826 3.65502 0.39515
v 3.86996 1.77796 0.26651
v 4.22229 1.88308 0.14116
v 4.29276 1.65532 0.16289
v 4.21915 1.65470 0.30957
v 4.06564 1.63912 0.38378
v 4.01660 1.86069 0.30561
v 3.99661 1.97033 0.15580
v 0.84045 0.12416 0.33678
v 0.85590 0.37510 0.49650
v 1.14322 0.37024 0.32198
v 3.80447 4.43049 0.25465
v 4.06766 4.28210 0.25902
v 3.93390 4.17295 0.43323
v 3.58453 4.24751 0.45890
v 3.47202 4.42053 0.26956
v 3.77396 4.05471 0.51604
v 2.64203 2.49136 0.25891
v 2.67905 2.46120 0.31622
v 2.42926 2.38160 0.38399
v 2.27057 2.56295 0.36506
v 2.39752 2.58403 0.18607
v 2.62939 2.51975 0.15743
v 2.73059 2.41746 0.30266
v 2.32538 2.06108 0.51295
v 2.17108 2.25514 0.49191
v 2.65479 1.93345 0.44246
v 2.45645 1.83729 0.52642
v 0.17770 4.25461 0.28772
v 0.45193 4.42369 0.28657
v 0.47488 4.19745 0.48129
v 0.23785 3.91024 0.45344
v 0.05792 3.93541 0.26577
v 0.44553 3.89892 0.53489
v 4.15561 4.03072 0.24973
v 3.94870 3.88862 0.43228
v 4.09991 3.78807 0.24706
v 0.31110 0.17138 0.29395
v 0.21243 0.42676 0.34123
v 0.51492 0.39711 0.51604
v 0.53903 0.11677 0.34505
v 0.41513 3.60361 0.42854
v 0.36768 3.43351 0.22728
v 0.13968 3.60294 0.24619
v 3.81992 1.81271 0.14735
v 3.91168 1.59316 0.31682
v 3.83752 1.56232 0.16678
v 3.92090 1.34316 0.18666
v 3.99643 1.36752 0.33447
v 4.06198 1.13591 0.31777
v 3.99564 1.12736 0.18060
v 4.11316 1.39585 0.38503
v 4.15878 1.15006 0.36877
v 4.19138 0.91063 0.33664
v 4.10965 0.90898 0.28470
v 4.23047 1.41189 0.33348
v 4.25613 1.16389 0.32294
v 4.27094 0.91689 0.28357
v 4.23846 0.67179 0.24843
v 4.18002 0.68531 0.30088
v 4.32617 1.17556 0.17861
v 4.31775 0.92423 0.15835
v 4.26703 0.66611 0.14195
v 4.14420 0.40239 0.14934
v 4.12454 0.44606 0.25302
v 3.92209 0.16314 0.18320
v 3.23300 0.09281 0.25766
v 3.58359 0.04038 0.22447
v 3.33224 0.24438 0.43614
v 3.62439 0.17197 0.38753
v 3.91772 0.25074 0.31552
v 3.67758 0.34826 0.44429
v 3.90604 0.36748 0.36074
v 4.08704 0.49732 0.30637
v 3.89404 0.48948 0.30830
v 4.03989 0.55282 0.26501
v 4.12201 0.70486 0.25391
v 4.01822 0.58446 0.15900
v 4.08484 0.71750 0.15077
v 4.05695 0.91048 0.16162
v 4.31250 1.41858 0.18437
v 2.81113 0.54463 0.25269
v 2.97705 0.29922 0.26008
v 2.94614 0.64529 0.45890
v 3.10617 0.42389 0.45370
v 3.13419 0.79238 0.53650
v 3.28607 0.59889 0.52686
v 3.46399 0.44417 0.50343
v 3.44257 0.77334 0.42795
v 3.58130 0.62478 0.40801
v 3.73370 0.51878 0.36521
v 3.66019 0.73734 0.21341
v 3.78076 0.61639 0.18730
v 3.89896 0.55721 0.17003
v 2.53247 0.97710 0.24766
v 2.67038 0.76603 0.24989
v 2.66644 1.06911 0.45128
v 2.80548 0.86154 0.45471
v 2.85556 1.19688 0.53823
v 2.99292 0.99514 0.53796
v 3.03897 1.32225 0.44231
v 3.17319 1.13137 0.44121
v 3.30634 0.94541 0.43637
v 3.29126 1.22589 0.23674
v 3.41742 1.04783 0.23364
v 3.54147 0.88413 0.22994
v 2.26129 1.39462 0.24537
v 2.39691 1.18684 0.24587
v 2.39600 1.48972 0.44714
v 2.53046 1.27752 0.44803
v 2.58572 1.61097 0.53424
v 2.71985 1.40037 0.53763
v 2.77472 1.71577 0.44716
v 2.90601 1.51688 0.44493
v 2.90765 1.78463 0.24569
v 3.03183 1.59708 0.24186
v 3.16125 1.40989 0.23923
v 2.74625 2.69269 0.16721
v 2.82144 2.93580 0.19154
v 2.88162 2.89453 0.33416
v 2.78210 2.66944 0.28102
v 2.96753 2.84252 0.38670
v 2.83679 2.63386 0.33219
v 3.05301 2.79479 0.33865
v 2.90195 2.59678 0.29222
v 3.12134 2.76191 0.19096
v 2.94513 2.57723 0.17148
v 2.78448 2.38406 0.17648
v 2.74451 2.17931 0.20888
v 2.80249 1.97630 0.23788
v 3.29361 2.94102 0.21308
v 3.46591 3.11720 0.22769
v 3.20840 2.99523 0.37875
v 3.36609 3.19621 0.40612
v 3.52319 3.38939 0.42922
v 3.63110 3.28145 0.23485
v 3.09695 3.06240 0.43648
v 3.22333 3.28473 0.47826
v 3.35321 3.51340 0.51172
v 3.48532 3.73110 0.53676
v 3.67911 3.56390 0.43995
v 3.07648 3.36777 0.41623
v 3.16846 3.61141 0.44673
v 3.25427 3.86088 0.46868
v 3.38071 4.08878 0.48002
v 3.61606 3.90937 0.53889
v 3.00992 3.66988 0.24636
v 3.07178 3.93599 0.25882
v 3.18710 4.22733 0.28164
v 3.96750 3.59269 0.24820
v 3.79718 3.44072 0.23812
v 3.82050 3.72573 0.44671
v 2.95200 3.42336 0.23278
v 2.89014 3.17795 0.21729
v 2.98315 3.12615 0.37958
v 2.25482 2.83462 0.19077
v 1.80420 2.86182 0.19241
v 1.69705 2.71756 0.20736
v 1.56784 2.58100 0.20395
v 1.41040 2.41284 0.18847
v 1.80731 2.63436 0.40448
v 1.63998 2.52920 0.35998
v 1.44183 2.37598 0.30819
v 1.28464 2.20249 0.30090
v 1.24542 2.22681 0.18424
v 1.74454 2.33856 0.40110
v 1.49625 2.30280 0.33089
v 1.35464 2.15653 0.30926
v 1.27228 1.95478 0.34511
v 1.16870 1.99836 0.34163
v 1.52533 2.23578 0.20771
v 1.39594 2.12525 0.20021
v 1.34900 1.92084 0.21299
v 1.31293 1.68819 0.23830
v 1.20337 1.72714 0.38782
v 1.27969 1.45491 0.25672
v 1.22134 1.00045 0.28719
v 1.25031 1.22348 0.27336
v 0.99606 1.02903 0.49153
v 1.06528 1.26179 0.46116
v 1.13483 1.49482 0.42553
v 0.83472 1.34301 0.46039
v 0.94910 1.56514 0.42568
v 1.06100 1.78323 0.38836
v 0.80698 1.63246 0.25589
v 0.94788 1.83228 0.23300
v 1.09146 2.03092 0.20439
v 1.67935 2.19876 0.21748
v 1.84583 2.00688 0.24452
v 1.99332 1.80622 0.24378
v 1.98816 2.13373 0.44249
v 2.13141 1.91406 0.44302
v 2.26416 1.70634 0.44496
v 2.12689 1.60228 0.24511
v 1.18262 0.57319 0.31642
v 1.19812 0.78650 0.29965
v 0.89209 0.59665 0.51490
v 0.93927 0.80638 0.50931
v 0.53891 0.66156 0.51854
v 0.60852 0.89255 0.50937
v 0.71414 1.12048 0.49053
v 0.35712 1.00434 0.30680
v 0.50995 1.23103 0.29076
v 0.66434 1.43119 0.27260
v 0.23389 0.73520 0.33143
v 1.88257 2.84154 0.34898
v 1.85757 3.04886 0.17224
v 1.90683 3.05360 0.30052
v 1.84811 3.24466 0.28297
v 1.89447 3.27273 0.33472
v 1.98239 3.06403 0.35895
v 1.98541 2.81181 0.41481
v 1.80914 3.22296 0.16712
v 1.65036 3.32230 0.18514
v 1.69412 3.37448 0.31772
v 1.44260 3.36681 0.21437
v 1.02753 3.40133 0.23375
v 1.23141 3.38587 0.22847
v 1.04428 3.56592 0.44155
v 1.26456 3.52490 0.41899
v 1.48956 3.46304 0.37478
v 1.32916 3.68536 0.49052
v 1.54837 3.56947 0.43490
v 1.74710 3.43970 0.37374
v 1.61121 3.68164 0.37991
v 1.79651 3.50711 0.32795
v 1.95175 3.30820 0.29832
v 1.83420 3.55724 0.18926
v 1.98685 3.33162 0.17704
v 2.12137 3.08944 0.18476
v 2.06549 3.07633 0.31468
v 2.14801 2.81081 0.35822
v 1.99005 2.52531 0.47634
v 0.60498 3.40501 0.23023
v 0.82040 3.40579 0.23589
v 0.62619 3.59729 0.44913
v 0.83307 3.58842 0.45200
v 0.66287 3.89178 0.55543
v 0.88052 3.85907 0.55329
v 1.10123 3.78877 0.53169
v 0.97327 4.13491 0.47759
v 1.20087 4.00899 0.45790
v 1.40753 3.84924 0.42562
v 1.29834 4.16314 0.25651
v 1.48615 3.96554 0.23943
v 1.66577 3.76969 0.21740
v 0.76617 4.43321 0.28398
v 1.05542 4.32998 0.27010
v 0.72418 4.20084 0.48968
vn 0.88067 0.27324 -0.38698
vn 0.92244 0.29854 -0.24491
vn 0.93764 0.20462 -0.28099
vn 0.67051 0.21845 -0.70901
vn 0.32915 0.61433 -0.71712
vn 0.37152 0.22152 -0.90161
vn 0.33485 0.89453 -0.29611
vn 0.64322 -0.71093 -0.28433
vn 0.66795 -0.74419 0.00466
vn 0.21526 -0.97656 0.00051
vn 0.20522 -0.93459 -0.29056
vn 0.40115 -0.44541 -0.80043
vn 0.21715 -0.49607 -0.84069
vn 0.26033 -0.30047 -0.91758
vn 0.72476 -0.32811 -0.60586
vn 0.93530 -0.35383 0.00377
vn 0.18821 0.61191 -0.76821
vn 0.22916 0.86411 -0.44811
vn 0.68364 0.57138 -0.45404
vn 0.44973 0.34187 -0.82515
vn -0.08035 0.49930 -0.86270
vn -0.24543 0.83418 -0.49386
vn 0.20558 0.11458 -0.97191
vn 0.15614 0.80695 -0.56961
vn -0.37811 0.72618 -0.57419
vn -0.35325 0.65116 -0.67172
vn 0.24163 0.47954 -0.84360
vn 0.53648 0.72223 -0.43655
vn 0.21334 0.92052 -0.32730
vn 0.48078 0.40305 -0.77872
vn 0.49928 0.17243 -0.84911
vn 0.24900 -0.04154 -0.96761
vn 0.00101 0.06935 -0.99759
vn 0.01719 0.10769 -0.99404
vn 0.53062 0.28781 -0.79725
vn 0.00131 0.02930 -0.99957
vn -0.46744 0.33599 -0.81769
vn -0.67842 0.53847 -0.49979
vn -0.24148 0.81958 -0.51959
vn -0.18254 0.42323 -0.88744
vn -0.54105 -0.03143 -0.84041
vn -0.88660 0.02403 -0.46191
vn -0.19301 -0.06429 -0.97909
vn 0.64386 0.02288 -0.76480
vn 0.88402 0.04756 -0.46502
vn 0.52572 -0.19543 -0.82791
vn 0.80157 -0.35067 -0.48427
vn -0.37813 -0.38800 -0.84052
vn -0.74376 -0.19433 -0.63957
vn -0.22018 -0.24388 -0.94448
vn -0.18078 -0.46872 -0.86465
vn -0.50889 -0.41056 -0.75662
vn -0.23315 -0.53486 -0.81214
vn -0.32449 -0.83351 -0.44718
vn -0.72835 -0.52165 -0.44427
vn -0.50206 0.46008 -0.73230
vn -0.61951 0.72555 -0.29962
vn -0.91249 -0.07031 -0.40302
vn -0.68223 -0.06088 -0.72859
vn -0.93867 -0.18359 -0.29186
vn -0.96413 -0.05805 -0.25902
vn -0.39076 0.06134 -0.91845
vn -0.89646 -0.30967 -0.31697
vn -0.94292 -0.33303 -0.00002
vn -0.98182 -0.18982 -0.00058
vn -0.99895 -0.04581 -0.00106
vn -0.65279 -0.20938 -0.72803
vn -0.68484 -0.23995 -0.68806
vn -0.90740 -0.29717 -0.29718
vn -0.39180 -0.11255 -0.91314
vn -0.44111 -0.17935 -0.87935
vn -0.53813 -0.16708 -0.82614
vn -0.75231 -0.19032 -0.63072
vn 0.45558 -0.03480 -0.88951
vn 0.41034 0.05446 -0.91031
vn 0.68372 0.07025 -0.72636
vn 0.71831 -0.01216 -0.69562
vn 0.77761 -0.12392 -0.61641
vn 0.54927 -0.12596 -0.82610
vn 0.78675 -0.27636 -0.55196
vn 0.60839 -0.23066 -0.75938
vn 0.95609 0.00279 -0.29307
vn 0.96478 -0.12199 -0.23305
vn 0.93058 -0.30829 -0.19741
vn 0.81439 -0.53343 -0.22851
vn 0.69743 -0.42479 -0.57718
vn 0.99100 -0.13389 0.00015
vn 0.94951 -0.31373 0.00022
vn 0.83371 -0.55220 0.00016
vn 0.56190 -0.82720 0.00005
vn 0.55293 -0.77363 -0.30947
vn 0.12147 -0.99259 -0.00012
vn -0.37780 -0.92589 0.00018
vn -0.32033 -0.81757 -0.47850
vn 0.13500 -0.90538 -0.40257
vn -0.13828 -0.50898 -0.84960
vn 0.18094 -0.58692 -0.78917
vn 0.49191 -0.54033 -0.68269
vn 0.30058 -0.02624 -0.95339
vn 0.42077 -0.34541 -0.83883
vn 0.56451 -0.31435 -0.76322
vn -0.25971 0.39367 -0.88180
vn 0.15915 0.41326 -0.89660
vn 0.13113 0.68651 -0.71520
vn -0.49007 0.44714 -0.74826
vn -0.77006 0.13275 -0.62401
vn -0.55496 0.08477 -0.82755
vn -0.87391 0.44379 -0.19833
vn -0.96174 0.15277 -0.22740
vn -0.94137 -0.21712 -0.25824
vn -0.99101 0.13382 0.00065
vn -0.97200 -0.23499 -0.00002
vn -0.94869 -0.31622 -0.00006
vn 0.97591 0.21818 0.00065
vn 0.99682 0.07975 0.00011
vn 0.94515 0.07980 -0.31674
vn 0.94746 0.31987 0.00111
vn 0.99998 -0.00674 0.00005
vn 0.36286 0.93185 0.00010
vn -0.66267 0.74891 -0.00026
vn -0.72554 -0.68818 0.00015
vn -0.83289 -0.55344 -0.00009
vn -0.73042 -0.48399 -0.48191
vn -0.63053 -0.60069 -0.49154
vn -0.46078 -0.31806 -0.82857
vn -0.36140 -0.38277 -0.85022
vn -0.24542 -0.18850 -0.95091
vn 0.09256 -0.00271 -0.99570
vn 0.18774 -0.03358 -0.98164
vn 0.51227 0.36875 -0.77563
vn 0.51951 0.40380 -0.75303
vn 0.45369 0.51798 -0.72516
vn 0.70488 0.57923 -0.40943
vn 0.57592 0.73391 -0.36013
vn 0.12681 0.94567 -0.29939
vn 0.64103 0.76752 -0.00048
vn 0.50866 0.86096 -0.00066
vn -0.19390 0.98102 0.00081
vn -0.21295 0.94706 -0.24025
vn -0.22877 0.89629 -0.37990
vn -0.90461 0.42625 0.00111
vn -0.84023 -0.54223 0.00002
vn -0.83948 -0.54339 -0.00000
vn -0.73653 -0.47543 -0.48113
vn -0.73783 -0.47376 -0.48079
vn -0.49540 -0.31832 -0.80824
vn -0.48743 -0.31292 -0.81516
vn -0.29923 -0.19177 -0.93471
vn -0.28219 -0.18367 -0.94161
vn 0.32943 0.22115 -0.91791
vn 0.32713 0.21958 -0.91912
vn 0.51320 0.34939 -0.78394
vn 0.51271 0.35211 -0.78304
vn 0.51151 0.35640 -0.78188
vn 0.33417 0.21961 -0.91657
vn 0.72990 0.50987 -0.45529
vn 0.72454 0.51926 -0.45322
vn 0.72111 0.53463 -0.44065
vn 0.81295 0.58233 -0.00005
vn 0.80637 0.59141 0.00009
vn 0.78192 0.62338 -0.00001
vn 0.81845 0.57457 -0.00000
vn -0.83903 -0.54409 -0.00000
vn -0.83801 -0.54566 -0.00000
vn -0.73426 -0.47143 -0.48848
vn -0.73636 -0.47435 -0.48247
vn -0.49842 -0.30364 -0.81202
vn -0.50025 -0.31630 -0.80604
vn -0.31008 -0.17466 -0.93453
vn -0.30939 -0.19121 -0.93151
vn 0.32347 0.21283 -0.92199
vn 0.31360 0.20402 -0.92738
vn 0.51997 0.32420 -0.79027
vn 0.51597 0.34056 -0.78600
vn 0.76203 0.47398 -0.44120
vn 0.74123 0.49786 -0.45025
vn 0.73266 0.50691 -0.45415
vn 0.82667 0.56269 -0.00003
vn 0.82028 0.57196 0.00001
vn 0.84552 0.53395 -0.00043
vn -0.84612 0.53299 0.00089
vn -0.91725 0.39831 0.00054
vn -0.88446 0.40567 -0.23055
vn -0.81914 0.54205 -0.18760
vn 0.33603 0.94184 0.00458
vn 0.63638 0.77137 0.00237
vn -0.91820 0.24516 -0.31114
vn -0.71920 0.16637 -0.67459
vn -0.73464 0.34186 -0.58603
vn -0.97075 0.24007 -0.00003
vn -0.51499 0.07148 -0.85421
vn -0.57427 0.25129 -0.77915
vn 0.26537 -0.32696 -0.90702
vn 0.27258 -0.39027 -0.87942
vn 0.48445 -0.53487 -0.69226
vn 0.50671 -0.50650 -0.69764
vn 0.67437 -0.67453 -0.30038
vn 0.71356 -0.65050 -0.26015
vn 0.86045 -0.40092 -0.31446
vn 0.78438 -0.39331 -0.47965
vn 0.73769 -0.67513 0.00002
vn 0.91771 -0.39726 -0.00032
vn 0.99389 0.11040 -0.00122
vn 0.91464 0.08886 -0.39439
vn 0.90317 0.42927 -0.00127
vn 0.81670 0.38976 -0.42555
vn 0.69578 -0.71825 0.00015
vn 0.65180 -0.66346 -0.36740
vn 0.69001 -0.72380 -0.00010
vn 0.63413 -0.64811 -0.42170
vn 0.68787 -0.72583 -0.00027
vn 0.45881 -0.49698 -0.73655
vn 0.43822 -0.46106 -0.77161
vn 0.41820 -0.43466 -0.79761
vn 0.61615 -0.63917 -0.46025
vn 0.26519 -0.34874 -0.89892
vn 0.26005 -0.31240 -0.91366
vn -0.03451 -0.13001 -0.99091
vn 0.00236 -0.09242 -0.99572
vn 0.39991 -0.40714 -0.82116
vn -0.37389 0.03317 -0.92688
vn -0.60394 0.11360 -0.78889
vn -0.55472 0.10793 -0.82501
vn -0.48513 0.14621 -0.86213
vn -0.33413 0.30110 -0.89314
vn 0.07082 -0.01622 -0.99736
vn -0.86068 0.18832 -0.47304
vn -0.82591 0.25371 -0.50350
vn -0.65220 0.53865 -0.53338
vn -0.95638 0.29214 0.00039
vn -0.77126 0.63652 -0.00003
vn -0.28671 0.95802 -0.00022
vn 0.24395 0.96979 0.00047
vn 0.92394 -0.38253 0.00026
vn 0.75949 -0.65051 -0.00020
vn 0.65694 -0.56124 -0.50343
vn 0.99757 0.06961 0.00123
vn 0.94037 0.34015 0.00118
vn 0.48229 0.87601 0.00051
vn 0.67339 -0.73929 0.00014
vn 0.59658 -0.63758 -0.48743
vn 0.42254 -0.33931 -0.84043
vn 0.68313 -0.73029 -0.00004
vn -0.97549 0.22005 0.00004
vn -0.97822 0.20756 0.00021
vn -0.87838 0.19558 -0.43611
vn -0.89732 0.21663 -0.38456
vn -0.65480 0.13340 -0.74393
vn -0.43198 0.04254 -0.90088
vn -0.97835 0.20697 0.00005
vn 0.82144 0.43754 -0.36579
vn 0.86988 0.49326 -0.00020
vn -0.76335 0.64599 -0.00009
vn -0.88029 0.47443 0.00034
vn -0.85198 0.42011 -0.31247
vn -0.71782 0.60043 -0.35245
vn -0.68602 0.65175 -0.32342
vn -0.74078 0.67175 0.00006
vn -0.71276 0.64675 -0.27145
vn -0.74664 0.66522 0.00006
vn -0.52110 0.36967 -0.76928
vn -0.61856 0.61950 -0.48333
vn -0.67187 0.62207 -0.40201
vn -0.70899 0.57883 -0.40284
vn -0.73689 0.61790 -0.27421
vn -0.23062 0.06295 -0.97101
vn -0.30245 0.06349 -0.95105
vn -0.33483 -0.27587 -0.90099
vn -0.07581 0.11998 -0.98988
vn 0.03767 0.17473 -0.98390
vn 0.74522 -0.46099 -0.48181
vn 0.58362 -0.66875 -0.46060
vn 0.62607 -0.72555 -0.28568
vn 0.81717 -0.48638 -0.30931
vn 0.92602 -0.15325 -0.34496
vn 0.84040 -0.16111 -0.51747
vn 0.90367 -0.09764 -0.41695
vn 0.79600 -0.09451 -0.59787
vn 0.86678 -0.49868 0.00038
vn 0.98996 -0.14134 0.00023
vn 0.99513 -0.09852 0.00025
vn 0.99641 -0.08466 0.00006
vn 0.87599 -0.08493 -0.47480
vn 0.99699 -0.07755 -0.00011
vn 0.99727 -0.07379 0.00009
vn 0.82489 -0.07164 -0.56074
vn 0.84949 -0.07735 -0.52190
vn 0.37025 0.01360 -0.92883
vn 0.70479 -0.07666 -0.70526
vn 0.74750 -0.08407 -0.65892
vn 0.05233 0.13784 -0.98907
vn 0.04195 0.12556 -0.99120
vn 0.05668 0.15813 -0.98579
vn -0.63529 0.48358 -0.60212
vn -0.59597 0.44694 -0.66713
vn -0.69515 0.53310 -0.48226
vn -0.71558 0.55562 -0.42336
vn -0.73647 0.58297 -0.34316
vn -0.68863 0.52516 -0.49999
vn -0.78405 0.62070 -0.00007
vn -0.77393 0.63327 -0.00013
vn -0.75875 0.65139 -0.00015
vn -0.80428 -0.59425 -0.00068
vn -0.57699 -0.81675 0.00095
vn -0.47517 -0.75803 -0.44677
vn -0.69942 -0.52433 -0.48569
vn -0.71904 -0.48275 -0.49994
vn -0.82852 -0.55996 0.00004
vn -0.42819 -0.28619 -0.85717
vn -0.45419 -0.27913 -0.84605
vn -0.48518 -0.28723 -0.82589
vn -0.73163 -0.46775 -0.49590
vn -0.83973 -0.54300 0.00000
vn -0.21803 -0.89744 -0.38350
vn -0.11427 -0.81774 -0.56414
vn -0.31432 -0.94931 0.00320
vn 0.64956 -0.76031 0.00027
vn 0.93062 -0.05725 -0.36148
vn 0.92727 -0.11914 -0.35493
vn 0.78078 -0.10467 -0.61598
vn 0.80336 -0.05817 -0.59265
vn 0.30551 -0.04761 -0.95100
vn 0.33614 -0.00165 -0.94181
vn -0.25346 0.07112 -0.96473
vn -0.26180 0.18346 -0.94752
vn -0.26424 0.25850 -0.92917
vn -0.68695 0.40589 -0.60278
vn -0.65602 0.50229 -0.56333
vn -0.66662 0.52961 -0.52453
vn -0.55445 0.43237 -0.71109
vn -0.78825 0.61535 -0.00018
vn -0.77893 0.62711 0.00010
vn -0.78827 0.61533 0.00000
vn -0.80323 0.48115 -0.35118
vn -0.97981 -0.19992 0.00191
vn -0.96672 0.25584 -0.00006
vn -0.74471 0.20375 -0.63553
vn -0.86335 -0.42887 -0.26587
vn -0.89334 -0.44936 0.00418
vn -0.33021 -0.94390 -0.00476
vn -0.32484 -0.91302 -0.24672
vn -0.15465 -0.94820 -0.27748
vn -0.15850 -0.98736 -0.00245
vn -0.65528 0.30714 -0.69013
vn -0.96742 0.01566 -0.25269
vn -0.78959 0.01361 -0.61348
vn -0.99945 0.03331 0.00027
vn -0.64257 -0.46613 -0.60813
vn -0.50629 -0.36476 -0.78142
vn -0.60737 0.02888 -0.79389
vn -0.05321 0.24596 -0.96782
vn -0.77272 -0.58218 -0.25291
vn -0.32654 -0.89587 -0.30132
vn -0.27796 -0.71421 -0.64237
vn -0.96731 -0.25359 -0.00032
vn -0.48143 -0.87648 -0.00085
vn -0.31227 -0.94999 0.00027
vn -0.09135 -0.99582 0.00052
vn -0.10703 -0.91797 -0.38194
vn -0.05204 -0.99864 -0.00023
vn -0.03349 -0.99944 -0.00003
vn -0.04019 -0.88203 -0.46948
vn -0.06149 -0.89572 -0.44035
vn -0.02489 -0.59917 -0.80023
vn -0.02911 -0.63671 -0.77055
vn -0.07247 -0.69470 -0.71564
vn 0.18056 -0.11468 -0.97686
vn -0.01621 -0.50234 -0.86452
vn -0.20170 -0.55366 -0.80795
vn 0.44432 0.22181 -0.86797
vn 0.39641 0.22226 -0.89076
vn 0.55225 0.40375 -0.72939
vn 0.62149 0.40114 -0.67294
vn 0.65224 0.38650 -0.65207
vn 0.43267 0.24156 -0.86859
vn 0.78004 0.55350 -0.29187
vn 0.82466 0.50458 -0.25561
vn 0.84312 0.44984 -0.29460
vn 0.63658 0.35022 -0.68711
vn 0.39104 0.25435 -0.88453
vn 0.58903 0.31445 -0.74442
vn -0.05489 0.15375 -0.98658
vn 0.85272 0.52237 -0.00022
vn 0.87116 0.49099 -0.00022
vn 0.82347 0.56736 -0.00015
vn -0.01426 -0.99990 0.00008
vn -0.09045 -0.99590 -0.00120
vn -0.07532 -0.87338 -0.48118
vn -0.02188 -0.87454 -0.48446
vn -0.06596 -0.56103 -0.82516
vn -0.02640 -0.57620 -0.81688
vn -0.03224 -0.06480 -0.99738
vn 0.05524 -0.06830 -0.99613
vn 0.12320 -0.08589 -0.98866
vn 0.23456 0.43538 -0.86915
vn 0.37570 0.40602 -0.83306
vn 0.47611 0.39330 -0.78654
vn 0.57757 0.66065 -0.47954
vn 0.67137 0.60182 -0.43252
vn 0.72441 0.58323 -0.36753
vn 0.75173 0.65947 -0.00013
vn 0.78804 0.61562 -0.00017
vn -0.29036 0.95692 0.00002
vn 0.15293 0.98824 0.00016
vn 0.13175 0.83761 -0.53014
vn -0.77909 0.62691 0.00023
vn -0.99889 0.04720 -0.00005
vn -0.83794 -0.54576 -0.00144
vn -0.40411 -0.91471 -0.00257
vn 0.46166 0.88705 0.00021
vn 0.39763 0.76140 -0.51203
vn 0.05733 0.44669 -0.89285
vn 0.66226 0.74928 -0.00006
vn 0.66968 0.21968 0.70941
vn 0.93581 0.20754 0.28494
vn 0.91819 0.30513 0.25264
vn 0.87179 0.28333 0.39964
vn 0.34162 0.60475 0.71943
vn 0.37756 0.21956 0.89958
vn 0.34311 0.88891 0.30350
vn 0.23241 -0.76762 0.59729
vn 0.58634 -0.65379 0.47829
vn 0.72527 -0.33573 0.60106
vn 0.26670 -0.30623 0.91384
vn 0.44665 0.33943 0.82783
vn 0.67987 0.56716 0.46487
vn 0.22667 0.86063 0.45600
vn 0.18688 0.60920 0.77068
vn -0.24320 0.83323 0.49656
vn -0.07521 0.50110 0.86212
vn 0.21040 0.11935 0.97030
vn 0.26520 0.48884 0.83109
vn -0.35382 0.65659 0.66611
vn -0.36384 0.72198 0.58853
vn 0.20571 0.79138 0.57568
vn 0.24241 0.90110 0.35951
vn 0.55963 0.70271 0.43933
vn 0.49764 0.39509 0.77217
vn 0.26653 -0.00832 0.96379
vn 0.50197 0.17599 0.84679
vn 0.01575 0.10303 0.99455
vn 0.00178 0.06799 0.99768
vn 0.00161 0.02866 0.99959
vn 0.53049 0.28695 0.79765
vn -0.18863 0.42331 0.88613
vn -0.24309 0.81700 0.52290
vn -0.67753 0.53460 0.50513
vn -0.47086 0.33437 0.81638
vn -0.88428 0.02272 0.46641
vn -0.54408 -0.03074 0.83847
vn -0.20124 -0.06188 0.97759
vn 0.88051 0.04789 0.47160
vn 0.64029 0.02394 0.76776
vn 0.52591 -0.19014 0.82902
vn 0.80110 -0.34653 0.48800
vn -0.19319 -0.49209 0.84884
vn -0.22880 -0.25590 0.93924
vn -0.74762 -0.20780 0.63079
vn -0.40271 -0.43091 0.80755
vn -0.72975 -0.51353 0.45139
vn -0.32946 -0.82811 0.45353
vn -0.23874 -0.52685 0.81574
vn -0.51079 -0.40085 0.76053
vn -0.50892 0.44732 0.73546
vn -0.62498 0.71747 0.30764
vn -0.96278 -0.05212 0.26523
vn -0.93831 -0.18036 0.29504
vn -0.68140 -0.05739 0.72966
vn -0.90729 -0.05623 0.41673
vn -0.39489 0.06050 0.91673
vn -0.89661 -0.30890 0.31728
vn -0.65277 -0.20987 0.72791
vn -0.90742 -0.29654 0.29774
vn -0.68455 -0.23908 0.68865
vn -0.39219 -0.11437 0.91275
vn -0.44074 -0.17974 0.87946
vn -0.75107 -0.18852 0.63274
vn -0.53428 -0.16250 0.82954
vn 0.71869 -0.01294 0.69521
vn 0.68412 0.06899 0.72610
vn 0.41078 0.05228 0.91023
vn 0.45648 -0.03328 0.88911
vn 0.54794 -0.12578 0.82701
vn 0.77739 -0.12427 0.61662
vn 0.60514 -0.23196 0.76158
vn 0.78667 -0.27667 0.55191
vn 0.96473 -0.12307 0.23272
vn 0.95610 0.00086 0.29303
vn 0.93109 -0.30778 0.19580
vn 0.69817 -0.42169 0.57857
vn 0.81452 -0.53386 0.22706
vn 0.55283 -0.77374 0.30936
vn 0.13412 -0.90568 0.40218
vn -0.32162 -0.81775 0.47734
vn 0.18367 -0.58513 0.78986
vn -0.13890 -0.50969 0.84907
vn 0.49427 -0.53516 0.68505
vn 0.42426 -0.33362 0.84185
vn 0.30474 -0.02139 0.95220
vn 0.56377 -0.30572 0.76727
vn -0.43204 0.60113 0.67229
vn 0.13175 0.69666 0.70520
vn 0.16570 0.43401 0.88554
vn -0.25433 0.40600 0.87777
vn -0.54668 0.08539 0.83297
vn -0.76664 0.13209 0.62834
vn -0.96169 0.15175 0.22830
vn -0.87363 0.44307 0.20114
vn -0.94139 -0.21745 0.25788
vn 0.94525 0.07922 0.31658
vn -0.63045 -0.60083 0.49146
vn -0.73014 -0.48399 0.48234
vn -0.36187 -0.38293 0.84995
vn -0.46021 -0.31772 0.82901
vn 0.09305 -0.00255 0.99566
vn -0.24513 -0.18818 0.95105
vn 0.18752 -0.03384 0.98168
vn 0.52085 0.40279 0.75264
vn 0.51331 0.36889 0.77488
vn 0.45155 0.51957 0.72536
vn 0.57577 0.73306 0.36208
vn 0.70706 0.57767 0.40788
vn 0.12528 0.94603 0.29887
vn -0.20869 0.94943 0.23457
vn -0.73782 -0.47375 0.48081
vn -0.73654 -0.47542 0.48113
vn -0.48746 -0.31305 0.81510
vn -0.49539 -0.31830 0.80825
vn -0.28227 -0.18394 0.94154
vn -0.29920 -0.19176 0.93472
vn 0.51267 0.35205 0.78309
vn 0.51319 0.34936 0.78395
vn 0.32707 0.21949 0.91916
vn 0.32932 0.22101 0.91799
vn 0.33403 0.21946 0.91666
vn 0.51142 0.35632 0.78198
vn 0.72457 0.51922 0.45321
vn 0.72990 0.50987 0.45528
vn 0.72114 0.53483 0.44036
vn -0.73636 -0.47433 0.48248
vn -0.73427 -0.47147 0.48843
vn -0.50026 -0.31631 0.80603
vn -0.49848 -0.30381 0.81193
vn -0.30943 -0.19128 0.93149
vn -0.31018 -0.17490 0.93445
vn 0.51601 0.34063 0.78594
vn 0.51984 0.32425 0.79033
vn 0.31350 0.20414 0.92739
vn 0.32353 0.21294 0.92195
vn 0.74126 0.49787 0.45018
vn 0.76201 0.47428 0.44090
vn 0.73266 0.50692 0.45414
vn -0.81976 0.54160 0.18620
vn -0.88433 0.40637 0.22984
vn -0.73416 0.34556 0.58446
vn -0.71884 0.16838 0.67447
vn -0.91881 0.24349 0.31065
vn -0.57334 0.25549 0.77846
vn -0.51380 0.07478 0.85464
vn 0.50300 -0.50864 0.69877
vn 0.48268 -0.53694 0.69190
vn 0.27283 -0.38967 0.87961
vn 0.25961 -0.32884 0.90800
vn 0.71227 -0.65183 0.26038
vn 0.67245 -0.67661 0.30000
vn 0.76815 -0.41412 0.48831
vn 0.85395 -0.41056 0.31969
vn 0.91259 0.08024 0.40092
vn 0.81629 0.39154 0.42470
vn 0.65194 -0.66336 0.36731
vn 0.63400 -0.64837 0.42151
vn 0.45888 -0.49671 0.73669
vn 0.43859 -0.46030 0.77186
vn 0.61553 -0.64011 0.45977
vn 0.41791 -0.43526 0.79743
vn 0.26033 -0.31129 0.91396
vn 0.26560 -0.34797 0.89910
vn -0.03424 -0.12989 0.99094
vn 0.39846 -0.40831 0.82129
vn 0.00115 -0.09318 0.99565
vn -0.55408 0.10927 0.82526
vn -0.60198 0.11751 0.78982
vn -0.37206 0.03678 0.92748
vn -0.48443 0.14497 0.86274
vn 0.07054 -0.01521 0.99739
vn -0.33274 0.30005 0.89401
vn -0.82504 0.25225 0.50564
vn -0.86022 0.18977 0.47330
vn -0.65171 0.53673 0.53591
vn 0.65616 -0.56174 0.50389
vn 0.59547 -0.63816 0.48802
vn 0.42166 -0.33962 0.84075
vn -0.89765 0.21529 0.38453
vn -0.87746 0.19768 0.43701
vn -0.65514 0.13266 0.74377
vn -0.43221 0.04264 0.90076
vn 0.81933 0.44160 0.36563
vn -0.71328 0.60828 0.34818
vn -0.85026 0.42731 0.30736
vn -0.68571 0.65269 0.32218
vn -0.71490 0.64483 0.27038
vn -0.61839 0.62150 0.48097
vn -0.51636 0.38698 0.76395
vn -0.67666 0.61825 0.39986
vn -0.73507 0.61981 0.27477
vn -0.70458 0.58326 0.40420
vn -0.23049 0.07100 0.97048
vn -0.34434 -0.28377 0.89493
vn -0.29760 0.06119 0.95273
vn -0.07731 0.12605 0.98901
vn 0.03951 0.17652 0.98350
vn 0.81852 -0.48558 0.30697
vn 0.62540 -0.72729 0.28272
vn 0.58308 -0.67328 0.45465
vn 0.74932 -0.45888 0.47743
vn 0.84183 -0.15906 0.51578
vn 0.92649 -0.15196 0.34429
vn 0.79420 -0.10037 0.59931
vn 0.90288 -0.10036 0.41801
vn 0.87594 -0.08501 0.47486
vn 0.84957 -0.07693 0.52184
vn 0.82473 -0.07206 0.56091
vn 0.70481 -0.07601 0.70532
vn 0.37011 0.01333 0.92889
vn 0.74748 -0.08408 0.65894
vn 0.05227 0.13774 0.98909
vn 0.04173 0.12511 0.99126
vn 0.05734 0.15942 0.98554
vn -0.71535 0.55605 0.42317
vn -0.69379 0.53527 0.48182
vn -0.59381 0.45091 0.66639
vn -0.63670 0.48202 0.60189
vn -0.68697 0.52573 0.50168
vn -0.73556 0.58365 0.34396
vn -0.70227 -0.52371 0.48222
vn -0.48522 -0.76002 0.43236
vn -0.71901 -0.48253 0.50018
vn -0.45374 -0.27951 0.84617
vn -0.43060 -0.28848 0.85520
vn -0.73165 -0.46780 0.49583
vn -0.48511 -0.28713 0.82597
vn -0.15110 -0.83780 0.52465
vn -0.23313 -0.90174 0.36402
vn 0.80360 -0.05798 0.59234
vn 0.78111 -0.10612 0.61531
vn 0.92742 -0.11899 0.35460
vn 0.93062 -0.05657 0.36158
vn 0.33666 -0.00177 0.94162
vn 0.30511 -0.04853 0.95108
vn -0.25809 0.18449 0.94834
vn -0.25228 0.07215 0.96496
vn -0.26370 0.25807 0.92944
vn -0.65573 0.50213 0.56381
vn -0.68421 0.40735 0.60492
vn -0.55483 0.43198 0.71103
vn -0.66689 0.52921 0.52459
vn -0.80324 0.48112 0.35119
vn -0.74326 0.20446 0.63699
vn -0.85700 -0.43648 0.27393
vn -0.15012 -0.95035 0.27256
vn -0.31592 -0.91859 0.23747
vn -0.65227 0.32491 0.68482
vn -0.78983 0.01544 0.61313
vn -0.96772 0.01762 0.25142
vn -0.60628 0.02689 0.79479
vn -0.51106 -0.35605 0.78233
vn -0.64582 -0.45940 0.60981
vn -0.04827 0.25183 0.96657
vn -0.77313 -0.58115 0.25404
vn -0.28116 -0.70947 0.64622
vn -0.33197 -0.89273 0.30467
vn -0.11010 -0.91719 0.38294
vn -0.06000 -0.89634 0.43929
vn -0.04047 -0.88188 0.46974
vn -0.03064 -0.63569 0.77134
vn -0.02536 -0.59860 0.80064
vn -0.07369 -0.69478 0.71544
vn -0.01597 -0.50387 0.86363
vn 0.17741 -0.11262 0.97767
vn -0.19931 -0.55145 0.81005
vn 0.62390 0.39555 0.67401
vn 0.55430 0.40034 0.72971
vn 0.39990 0.21798 0.89026
vn 0.44574 0.21725 0.86840
vn 0.43136 0.23982 0.86972
vn 0.65141 0.38502 0.65378
vn 0.82462 0.50419 0.25650
vn 0.78125 0.55136 0.29267
vn 0.63552 0.35021 0.68809
vn 0.84084 0.45391 0.29489
vn 0.39362 0.24647 0.88561
vn 0.58875 0.31531 0.74429
vn -0.05497 0.15816 0.98588
vn -0.02171 -0.87460 0.48436
vn -0.07501 -0.87411 0.47990
vn -0.02571 -0.57661 0.81661
vn -0.06605 -0.56116 0.82507
vn 0.05667 -0.07044 0.99591
vn -0.03169 -0.06523 0.99737
vn 0.12239 -0.08558 0.98879
vn 0.37642 0.40393 0.83375
vn 0.23590 0.43172 0.87062
vn 0.47580 0.39300 0.78687
vn 0.67172 0.60127 0.43275
vn 0.57895 0.65893 0.48023
vn 0.72478 0.58243 0.36806
vn 0.13218 0.83711 0.53083
vn 0.39828 0.75989 0.51376
vn 0.05828 0.44556 0.89335
f 1//1 10//2 11//3 12//4
f 1//5 12//4 13//6 14//5
f 1//5 14//5 15//7 10//7
f 2//8 16//9 18//10 19//11
f 2//12 19//13 20//14 21//15
f 2//8 21//15 17//16 16//9
f 3//17 22//18 23//19 24//20
f 3//17 25//21 26//22 22//18
f 3//17 24//20 27//23 25//21
f 4//24 28//25 29//26 30//27
f 32//28 33//29 28//25 4//24
f 4//24 30//27 31//30 32//28
f 5//31 30//27 29//32 34//32
f 5//31 35//33 36//34 30//27
f 5//31 37//35 38//36 35//33
f 6//37 39//38 40//39 41//40
f 6//37 42//41 43//42 39//38
f 6//37 41//40 44//43 42//41
f 7//44 24//20 23//19 45//45
f 7//44 46//46 27//23 24//20
f 7//44 45//45 47//47 46//46
f 48//48 49//49 50//50 51//51
f 8//52 52//53 53//54 54//55
f 8//52 54//55 43//42 42//41
f 8//52 42//41 44//43 52//53
f 9//56 55//57 15//57 14//56
f 9//58 56//59 57//60 55//61
f 9//56 14//56 13//62 56//59
f 57//60 58//63 316//64 317//65
f 57//60 317//65 318//66 55//61
f 57//60 56//59 59//67 58//63
f 59//67 60//68 61//69 58//63
f 59//67 56//59 13//62 62//70
f 59//67 62//70 63//71 60//68
f 63//71 64//72 65//73 60//68
f 63//74 62//75 66//76 67//77
f 63//74 67//77 68//78 64//79
f 68//78 69//80 70//81 64//79
f 68//78 67//77 71//82 72//83
f 68//78 72//83 73//84 69//80
f 73//84 74//85 75//86 69//80
f 73//84 72//83 319//87 320//88
f 73//84 320//88 321//89 74//85
f 321//89 76//90 77//91 74//85
f 78//92 322//93 79//94 80//95
f 78//92 80//95 77//91 76//90
f 80//95 79//94 81//96 82//97
f 80//95 82//97 83//98 77//91
f 83//98 82//97 84//99 85//100
f 83//98 85//100 86//101 75//86
f 83//98 75//86 74//85 77//91
f 86//102 85//103 87//104 88//105
f 86//102 88//105 89//106 70//107
f 86//101 70//81 69//80 75//86
f 89//106 88//105 90//108 91//109
f 89//106 91//109 92//110 65//73
f 89//106 65//73 64//72 70//107
f 92//110 91//109 323//111 93//112
f 92//110 93//112 94//113 61//69
f 92//110 61//69 60//68 65//73
f 94//113 316//64 58//63 61//69
f 95//114 324//115 97//116 11//3
f 95//114 11//3 10//2 96//117
f 97//116 71//82 67//77 66//76
f 97//116 66//76 12//4 11//3
f 97//116 324//115 325//118 71//82
f 96//119 10//7 15//7 98//119
f 98//120 15//57 55//57 318//120
f 325//118 319//87 72//83 71//82
f 100//121 99//122 101//123 102//124
f 100//121 102//124 79//94 322//93
f 102//124 101//123 103//125 104//126
f 102//124 104//126 81//96 79//94
f 104//126 103//125 105//127 106//128
f 104//126 106//128 107//129 81//96
f 107//129 106//128 108//130 109//131
f 107//129 109//131 110//132 84//99
f 107//129 84//99 82//97 81//96
f 110//132 109//131 111//133 112//134
f 110//132 112//134 113//135 87//104
f 110//132 87//104 85//103 84//99
f 113//135 112//134 326//136 114//137
f 113//135 114//138 327//138 90//139
f 113//135 90//139 88//140 87//104
f 327//141 323//111 91//109 90//108
f 330//142 329//143 116//144 117//145
f 330//142 117//145 101//123 99//122
f 117//145 116//144 118//146 119//147
f 117//145 119//147 103//125 101//123
f 119//147 118//146 120//148 121//149
f 119//147 121//149 105//127 103//125
f 121//150 120//151 122//152 123//153
f 121//150 123//153 124//154 105//155
f 124//154 123//153 125//156 126//157
f 124//154 126//157 127//158 108//130
f 124//154 108//130 106//128 105//155
f 127//158 126//157 128//159 115//160
f 127//158 115//160 328//161 111//133
f 127//158 111//133 109//131 108//130
f 128//159 126//157 125//156 331//162
f 130//163 332//164 131//165 132//166
f 130//163 132//166 116//144 329//143
f 132//166 131//165 133//167 134//168
f 132//166 134//168 118//146 116//144
f 134//168 133//167 135//169 136//170
f 134//168 136//170 120//148 118//146
f 136//171 135//172 137//173 138//174
f 136//171 138//174 122//152 120//151
f 138//174 137//173 139//175 140//176
f 138//174 140//176 141//177 122//152
f 141//177 140//176 142//178 129//179
f 141//177 129//179 331//162 125//156
f 141//177 125//156 123//153 122//152
f 142//178 140//176 139//175 333//180
f 146//181 145//182 148//183 33//184
f 146//185 33//29 32//28 147//186
f 148//183 149//187 150//188 151//189
f 148//183 151//189 28//25 33//184
f 148//183 145//182 335//190 149//187
f 151//189 150//188 152//191 153//192
f 151//189 153//192 29//26 28//25
f 153//193 152//194 154//195 155//196
f 153//193 155//196 34//32 29//32
f 155//196 154//195 156//197 157//198
f 155//196 157//198 158//199 34//200
f 158//199 157//198 144//201 143//202
f 158//199 143//202 334//203 159//204
f 158//199 159//204 5//31 34//200
f 159//204 334//203 336//205 160//206
f 159//204 160//206 37//35 5//31
f 160//206 336//205 333//180 139//175
f 160//206 139//175 137//173 37//35
f 157//198 156//197 337//207 144//201
f 337//207 156//197 162//208 161//209
f 162//208 163//210 164//211 161//209
f 162//208 156//197 154//195 165//212
f 162//208 165//212 166//213 163//210
f 166//213 167//214 168//215 163//210
f 166//213 165//212 169//216 170//217
f 166//213 170//217 171//218 167//214
f 171//218 172//219 173//220 167//214
f 171//218 170//221 174//222 175//223
f 171//218 175//223 176//224 172//219
f 176//224 177//225 178//226 172//219
f 176//224 175//223 179//227 180//228
f 176//224 180//228 181//229 177//225
f 181//229 26//22 25//21 177//225
f 181//229 180//228 338//230 182//231
f 181//229 182//231 183//232 26//22
f 183//232 184//233 22//18 26//22
f 185//234 339//235 186//236 47//47
f 185//234 47//47 45//45 187//237
f 187//237 45//45 23//19 340//238
f 340//239 23//19 22//18 184//233
f 186//236 339//235 341//240 188//241
f 186//236 188//241 173//220 189//242
f 186//236 189//242 46//46 47//47
f 189//242 173//220 172//219 178//226
f 189//242 178//226 27//23 46//46
f 188//241 341//240 342//243 168//215
f 188//241 168//215 167//214 173//220
f 342//243 164//211 163//210 168//215
f 344//244 343//245 190//246 191//247
f 344//244 191//247 149//187 335//190
f 191//247 190//246 174//222 192//248
f 191//247 192//248 150//188 149//187
f 192//248 174//222 170//221 169//249
f 192//248 169//249 152//191 150//188
f 190//246 179//227 175//223 174//222
f 190//246 343//245 345//250 179//227
f 345//250 338//230 180//228 179//227
f 178//226 177//225 25//21 27//23
f 169//216 165//212 154//195 152//194
f 147//186 32//28 193//251 346//252
f 347//253 348//254 196//255 197//256
f 347//253 197//256 198//257 195//258
f 198//257 199//259 200//260 195//258
f 198//257 197//256 201//261 202//262
f 198//257 202//262 203//263 199//259
f 203//263 204//264 205//265 199//259
f 203//266 202//267 206//268 207//266
f 203//266 207//266 208//269 204//269
f 208//269 209//270 210//270 204//269
f 208//271 207//272 211//273 212//274
f 208//271 212//274 213//275 209//276
f 213//275 214//277 215//278 209//276
f 213//275 212//274 349//279 350//280
f 213//275 350//280 216//281 214//277
f 216//281 217//282 218//283 214//277
f 219//284 351//285 220//286 221//287
f 219//284 221//287 218//283 217//282
f 221//287 220//286 222//288 223//289
f 221//287 223//289 224//290 218//283
f 224//291 223//292 225//292 226//291
f 224//291 226//291 227//293 215//293
f 224//290 215//278 214//277 218//283
f 227//294 226//295 228//296 229//297
f 227//294 229//297 230//298 210//299
f 227//293 210//270 209//270 215//293
f 230//298 229//297 231//300 232//301
f 230//298 232//301 352//302 205//265
f 230//298 205//265 204//264 210//299
f 352//302 200//260 199//259 205//265
f 353//303 354//304 235//305 236//306
f 353//303 236//306 237//307 234//308
f 237//307 236//306 238//309 239//310
f 237//307 239//310 240//311 241//312
f 237//307 241//312 355//313 234//308
f 355//313 241//312 131//165 332//164
f 241//312 240//311 133//167 131//165
f 240//311 239//310 35//33 38//36
f 240//311 38//36 135//169 133//167
f 239//310 238//309 36//34 35//33
f 236//306 235//305 206//268 238//309
f 235//305 211//314 207//315 206//268
f 235//305 354//304 233//316 211//314
f 233//317 349//279 212//274 211//273
f 243//318 242//319 244//320 245//321
f 243//318 245//321 220//286 351//285
f 245//321 244//320 246//322 247//323
f 245//321 247//323 222//288 220//286
f 247//323 246//322 248//324 249//325
f 247//323 249//325 250//326 222//288
f 250//326 249//325 251//327 252//328
f 250//326 252//328 253//329 225//330
f 250//326 225//292 223//292 222//288
f 253//329 252//328 356//331 357//332
f 253//329 357//332 358//333 228//296
f 253//329 228//296 226//295 225//330
f 358//333 231//300 229//297 228//296
f 356//331 252//328 251//327 359//334
f 254//335 360//336 255//337 49//49
f 254//335 49//49 48//338 256//339
f 256//340 48//341 51//342 257//343
f 257//343 51//342 19//11 18//10
f 255//337 360//336 359//334 251//327
f 255//337 251//327 249//325 248//324
f 255//337 248//324 50//50 49//49
f 248//324 246//322 20//14 50//50
f 246//322 244//320 21//15 20//14
f 244//320 242//319 17//16 21//15
f 197//256 196//255 258//344 201//261
f 196//255 259//345 260//346 258//344
f 196//255 348//254 361//347 259//345
f 260//346 261//348 262//349 263//350
f 260//346 263//350 264//351 258//344
f 260//346 259//345 265//352 261//348
f 265//352 266//353 267//354 261//348
f 265//352 259//345 361//347 268//355
f 265//352 268//356 269//357 266//353
f 269//357 270//358 271//359 266//353
f 272//360 273//361 274//362 275//363
f 272//360 275//363 271//359 270//358
f 275//363 274//362 276//364 277//365
f 275//363 277//365 278//366 271//359
f 278//366 277//365 279//367 280//368
f 278//366 280//368 281//369 267//354
f 278//366 267//354 266//353 271//359
f 281//370 280//371 282//372 283//373
f 281//370 283//373 284//374 262//375
f 281//369 262//349 261//348 267//354
f 284//374 283//373 285//376 286//377
f 284//374 286//377 287//378 288//379
f 284//374 288//379 263//380 262//375
f 288//379 287//378 193//251 289//381
f 288//379 289//381 264//351 263//380
f 289//381 193//251 32//28 31//30
f 289//381 31//30 290//382 264//351
f 287//378 286//377 291//383 194//384
f 287//378 194//384 346//252 193//251
f 291//383 286//377 285//376 292//385
f 293//386 362//387 294//388 295//389
f 293//386 295//389 274//362 273//361
f 295//389 294//388 296//390 297//391
f 295//389 297//391 276//364 274//362
f 297//391 296//390 298//392 299//393
f 297//391 299//393 300//394 276//364
f 300//394 299//393 301//395 302//396
f 300//394 302//396 303//397 279//367
f 300//394 279//367 277//365 276//364
f 303//397 302//396 304//398 305//399
f 303//397 305//399 306//400 282//372
f 303//397 282//372 280//371 279//367
f 306//400 305//399 363//401 307//402
f 306//400 307//402 292//385 285//376
f 306//400 285//376 283//373 282//372
f 309//403 308//404 310//405 40//39
f 309//403 40//39 39//38 311//406
f 311//406 39//38 43//42 312//407
f 312//407 43//42 54//55 313//408
f 313//408 54//55 53//54 365//409
f 365//409 53//54 294//388 362//387
f 310//405 308//404 364//410 314//411
f 310//405 314//411 301//395 315//412
f 310//405 315//412 41//40 40//39
f 315//412 301//395 299//393 298//392
f 315//412 298//392 44//43 41//40
f 314//411 364//410 366//413 304//398
f 314//411 304//398 302//396 301//395
f 366//413 363//401 305//399 304//398
f 298//392 296//390 52//53 44//43
f 296//390 294//388 53//54 52//53
f 137//173 135//172 38//36 37//35
f 328//161 326//136 112//134 111//133
f 66//76 62//75 13//6 12//4
f 51//51 50//50 20//14 19//13
f 36//34 290//382 31//30 30//27
f 201//261 258//344 264//351 290//382
f 238//309 206//268 290//382 36//34
f 206//268 202//267 201//261 290//382
f 378//414 377//415 376//416 367//417
f 380//418 379//419 378//414 367//418
f 376//420 381//420 380//418 367//418
f 382//421 18//10 16//9 368//422
f 384//423 383//424 382//421 368//422
f 16//9 17//16 384//423 368//422
f 387//425 386//426 385//427 369//428
f 385//427 389//429 388//430 369//428
f 388//430 390//431 387//425 369//428
f 393//432 392//433 391//434 370//435
f 370//435 391//434 396//436 395//437
f 395//437 394//438 393//432 370//435
f 397//439 392//439 393//432 371//440
f 393//432 399//441 398//442 371//440
f 398//442 401//443 400//444 371//440
f 404//445 403//446 402//447 372//448
f 402//447 406//449 405//450 372//448
f 405//450 407//451 404//445 372//448
f 408//452 386//426 387//425 373//453
f 387//425 390//431 409//454 373//453
f 409//454 410//455 408//452 373//453
f 414//456 413//457 412//458 411//459
f 417//460 416//461 415//462 374//463
f 405//450 406//449 417//460 374//463
f 415//462 407//451 405//450 374//463
f 380//464 381//465 418//465 375//464
f 418//466 420//467 419//468 375//469
f 419//468 379//470 380//464 375//464
f 317//65 316//64 421//471 420//467
f 418//466 318//66 317//65 420//467
f 421//471 422//472 419//468 420//467
f 421//471 424//473 423//474 422//472
f 425//475 379//470 419//468 422//472
f 423//474 426//476 425//475 422//472
f 423//474 428//477 427//478 426//476
f 430//479 429//480 425//481 426//482
f 427//483 431//484 430//479 426//482
f 427//483 433//485 432//486 431//484
f 435//487 434//488 430//479 431//484
f 432//486 436//489 435//487 431//484
f 432//486 438//490 437//491 436//489
f 320//88 319//87 435//487 436//489
f 437//491 321//89 320//88 436//489
f 437//491 439//492 76//90 321//89
f 441//493 440//494 322//93 78//92
f 76//90 439//492 441//493 78//92
f 443//495 442//496 440//494 441//493
f 439//492 444//497 443//495 441//493
f 446//498 445//499 443//495 444//497
f 438//490 447//500 446//498 444//497
f 439//492 437//491 438//490 444//497
f 449//501 448//502 446//503 447//504
f 433//505 450//506 449//501 447//504
f 438//490 432//486 433//485 447//500
f 452//507 451//508 449//501 450//506
f 428//477 453//509 452//507 450//506
f 433//505 427//478 428//477 450//506
f 93//112 323//111 452//507 453//509
f 424//473 94//113 93//112 453//509
f 428//477 423//474 424//473 453//509
f 424//473 421//471 316//64 94//113
f 377//415 454//510 324//115 95//114
f 96//117 376//416 377//415 95//114
f 429//480 430//479 434//488 454//510
f 377//415 378//414 429//480 454//510
f 434//488 325//118 324//115 454//510
f 98//119 381//420 376//420 96//119
f 318//120 418//465 381//465 98//120
f 434//488 435//487 319//87 325//118
f 456//511 455//512 99//122 100//121
f 322//93 440//494 456//511 100//121
f 458//513 457//514 455//512 456//511
f 440//494 442//496 458//513 456//511
f 460//515 459//516 457//514 458//513
f 442//496 461//517 460//515 458//513
f 463//518 462//519 460//515 461//517
f 445//499 464//520 463//518 461//517
f 442//496 443//495 445//499 461//517
f 466//521 465//522 463//518 464//520
f 448//502 467//523 466//521 464//520
f 445//499 446//503 448//502 464//520
f 114//137 326//136 466//521 467//523
f 451//524 327//138 114//138 467//523
f 448//502 449//501 451//524 467//523
f 451//508 452//507 323//111 327//141
f 469//525 468//526 329//143 330//142
f 99//122 455//512 469//525 330//142
f 471//527 470//528 468//526 469//525
f 455//512 457//514 471//527 469//525
f 473//529 472//530 470//528 471//527
f 457//514 459//516 473//529 471//527
f 475//531 474//532 472//533 473//534
f 459//535 476//536 475//531 473//534
f 478//537 477//538 475//531 476//536
f 462//519 479//539 478//537 476//536
f 459//535 460//515 462//519 476//536
f 115//160 128//159 478//537 479//539
f 465//522 328//161 115//160 479//539
f 462//519 463//518 465//522 479//539
f 331//162 477//538 478//537 128//159
f 481//540 480//541 332//164 130//163
f 329//143 468//526 481//540 130//163
f 483//542 482//543 480//541 481//540
f 468//526 470//528 483//542 481//540
f 485//544 484//545 482//543 483//542
f 470//528 472//530 485//544 483//542
f 487//546 486//547 484//548 485//549
f 472//533 474//532 487//546 485//549
f 489//550 488//551 486//547 487//546
f 474//532 490//552 489//550 487//546
f 129//179 142//178 489//550 490//552
f 477//538 331//162 129//179 490//552
f 474//532 475//531 477//538 490//552
f 333//180 488//551 489//550 142//178
f 396//553 491//554 145//182 146//181
f 147//186 395//437 396//436 146//185
f 494//555 493//556 492//557 491//554
f 396//553 391//434 494//555 491//554
f 492//557 335//190 145//182 491//554
f 496//558 495//559 493//556 494//555
f 391//434 392//433 496//558 494//555
f 498//560 497//561 495//562 496//563
f 392//439 397//439 498//560 496//563
f 500//564 499//565 497//561 498//560
f 397//566 501//567 500//564 498//560
f 143//202 144//201 500//564 501//567
f 502//568 334//203 143//202 501//567
f 397//566 371//440 502//568 501//567
f 503//569 336//205 334//203 502//568
f 371//440 400//444 503//569 502//568
f 488//551 333//180 336//205 503//569
f 400//444 486//547 488//551 503//569
f 144//201 337//207 499//565 500//564
f 161//209 504//570 499//565 337//207
f 161//209 164//211 505//571 504//570
f 506//572 497//561 499//565 504//570
f 505//571 507//573 506//572 504//570
f 505//571 509//574 508//575 507//573
f 511//576 510//577 506//572 507//573
f 508//575 512//578 511//576 507//573
f 508//575 514//579 513//580 512//578
f 516//581 515//582 511//583 512//578
f 513//580 517//584 516//581 512//578
f 513//580 519//585 518//586 517//584
f 521//587 520//588 516//581 517//584
f 518//586 522//589 521//587 517//584
f 518//586 388//430 389//429 522//589
f 182//231 338//230 521//587 522//589
f 389//429 183//232 182//231 522//589
f 389//429 385//427 184//233 183//232
f 410//455 523//590 339//235 185//234
f 187//237 408//452 410//455 185//234
f 340//238 386//426 408//452 187//237
f 184//233 385//427 386//426 340//239
f 524//591 341//240 339//235 523//590
f 525//592 514//579 524//591 523//590
f 410//455 409//454 525//592 523//590
f 519//585 513//580 514//579 525//592
f 409//454 390//431 519//585 525//592
f 509//574 342//243 341//240 524//591
f 514//579 508//575 509//574 524//591
f 509//574 505//571 164//211 342//243
f 527//593 526//594 343//245 344//244
f 335//190 492//557 527//593 344//244
f 528//595 515//582 526//594 527//593
f 492//557 493//556 528//595 527//593
f 510//596 511//583 515//582 528//595
f 493//556 495//559 510//596 528//595
f 515//582 516//581 520//588 526//594
f 520//588 345//250 343//245 526//594
f 520//588 521//587 338//230 345//250
f 390//431 388//430 518//586 519//585
f 495//562 497//561 506//572 510//577
f 346//252 529//597 395//437 147//186
f 531//598 530//599 348//254 347//253
f 195//258 532//600 531//598 347//253
f 195//258 200//260 533//601 532//600
f 535//602 534//603 531//598 532//600
f 533//601 536//604 535//602 532//600
f 533//601 538//605 537//606 536//604
f 540//607 539//608 535//609 536//607
f 537//610 541//610 540//607 536//607
f 537//610 543//611 542//611 541//610
f 545//612 544//613 540//614 541//615
f 542//616 546//617 545//612 541//615
f 542//616 548//618 547//619 546//617
f 350//280 349//279 545//612 546//617
f 547//619 216//281 350//280 546//617
f 547//619 549//620 217//282 216//281
f 551//621 550//622 351//285 219//284
f 217//282 549//620 551//621 219//284
f 553//623 552//624 550//622 551//621
f 549//620 554//625 553//623 551//621
f 556//626 555//627 553//627 554//626
f 548//628 557//628 556//626 554//626
f 549//620 547//619 548//618 554//625
f 559//629 558//630 556//631 557//632
f 543//633 560//634 559//629 557//632
f 548//628 542//611 543//611 557//628
f 232//301 231//300 559//629 560//634
f 538//605 352//302 232//301 560//634
f 543//633 537//606 538//605 560//634
f 538//605 533//601 200//260 352//302
f 562//635 561//636 354//304 353//303
f 234//308 563//637 562//635 353//303
f 565//638 564//639 562//635 563//637
f 567//640 566//641 565//638 563//637
f 234//308 355//313 567//640 563//637
f 332//164 480//541 567//640 355//313
f 480//541 482//543 566//641 567//640
f 401//443 398//442 565//638 566//641
f 482//543 484//545 401//443 566//641
f 398//442 399//441 564//639 565//638
f 564//639 539//608 561//636 562//635
f 539//608 540//642 544//643 561//636
f 544//643 233//316 354//304 561//636
f 544//613 545//612 349//279 233//317
f 569//644 568//645 242//646 243//647
f 351//285 550//622 569//644 243//647
f 571//648 570//649 568//645 569//644
f 550//622 552//624 571//648 569//644
f 573//650 572//651 570//649 571//648
f 552//624 574//652 573//650 571//648
f 576//653 575//654 573//650 574//652
f 555//655 577//656 576//653 574//652
f 552//624 553//627 555//627 574//652
f 357//332 356//331 576//653 577//656
f 558//630 358//333 357//332 577//656
f 555//655 556//631 558//630 577//656
f 558//630 559//629 231//300 358//333
f 359//657 575//654 576//653 356//331
f 412//458 578//658 360//336 254//335
f 256//339 411//659 412//458 254//335
f 257//343 414//660 411//661 256//340
f 18//10 382//421 414//660 257//343
f 575//654 359//657 360//336 578//658
f 572//651 573//650 575//654 578//658
f 412//458 413//457 572//651 578//658
f 413//457 383//424 570//649 572//651
f 383//424 384//423 568//645 570//649
f 384//423 17//16 242//646 568//645
f 534//603 579//662 530//599 531//598
f 579//662 581//663 580//664 530//599
f 580//664 361//347 348//254 530//599
f 584//665 583//666 582//667 581//663
f 579//662 585//668 584//665 581//663
f 582//667 586//669 580//664 581//663
f 582//667 588//670 587//671 586//669
f 268//355 361//347 580//664 586//669
f 587//671 269//357 268//356 586//669
f 587//671 589//672 270//358 269//357
f 591//673 590//674 273//361 272//360
f 270//358 589//672 591//673 272//360
f 593//675 592//676 590//674 591//673
f 589//672 594//677 593//675 591//673
f 596//678 595//679 593//675 594//677
f 588//670 597//680 596//678 594//677
f 589//672 587//671 588//670 594//677
f 599//681 598//682 596//683 597//684
f 583//685 600//686 599//681 597//684
f 588//670 582//667 583//666 597//680
f 602//687 601//688 599//681 600//686
f 604//689 603//690 602//687 600//686
f 583//685 584//691 604//689 600//686
f 605//692 529//597 603//690 604//689
f 584//691 585//668 605//692 604//689
f 394//438 395//437 529//597 605//692
f 585//668 606//693 394//438 605//692
f 194//384 291//383 602//687 603//690
f 529//597 346//252 194//384 603//690
f 292//385 601//688 602//687 291//383
f 608//694 607//695 362//387 293//386
f 273//361 590//674 608//694 293//386
f 610//696 609//697 607//695 608//694
f 590//674 592//676 610//696 608//694
f 612//698 611//699 609//697 610//696
f 592//676 613//700 612//698 610//696
f 615//701 614//702 612//698 613//700
f 595//679 616//703 615//701 613//700
f 592//676 593//675 595//679 613//700
f 618//704 617//705 615//701 616//703
f 598//682 619//706 618//704 616//703
f 595//679 596//683 598//682 616//703
f 307//402 363//401 618//704 619//706
f 601//688 292//385 307//402 619//706
f 598//682 599//681 601//688 619//706
f 403//446 620//707 308//404 309//403
f 311//406 402//447 403//446 309//403
f 312//407 406//449 402//447 311//406
f 313//408 417//460 406//449 312//407
f 365//409 416//461 417//460 313//408
f 362//387 607//695 416//461 365//409
f 621//708 364//410 308//404 620//707
f 622//709 614//702 621//708 620//707
f 403//446 404//445 622//709 620//707
f 611//699 612//698 614//702 622//709
f 404//445 407//451 611//699 622//709
f 617//705 366//413 364//410 621//708
f 614//702 615//701 617//705 621//708
f 617//705 618//704 363//401 366//413
f 407//451 415//462 609//697 611//699
f 415//462 416//461 607//695 609//697
f 400//444 401//443 484//548 486//547
f 465//522 466//521 326//136 328//161
f 378//414 379//419 425//481 429//480
f 382//421 383//424 413//457 414//456
f 393//432 394//438 606//693 399//441
f 606//693 585//668 579//662 534//603
f 399//441 606//693 539//608 564//639
f 606//693 534//603 535//609 539//608
