# pilowlava3D glyph 'y' variant 1 — Vincent Wagner / Velvetyne, Free Art License
v 1.15677 0.92397 -0.37088
v 2.71326 1.71778 -0.46200
v 3.89713 4.25410 -0.42719
v 3.38489 4.28408 -0.40785
v 2.76675 1.97642 -0.41637
v 0.16681 2.61516 -0.16085
v 1.11469 0.72534 -0.43900
v 0.93912 0.71654 -0.25148
v 1.06503 0.98566 -0.22852
v 1.28406 1.11031 -0.21763
v 1.31357 0.97140 -0.39306
v 1.33517 0.74661 -0.51231
v 2.77911 1.66397 -0.43350
v 2.67087 1.42956 -0.40839
v 2.58618 1.51062 -0.42622
v 2.58630 1.78708 -0.46597
v 2.89362 1.83404 -0.41870
v 3.94830 4.08739 -0.47490
v 3.63632 4.12589 -0.52934
v 3.65115 4.29762 -0.44485
v 3.67572 4.46380 -0.25210
v 3.99710 4.35249 -0.26630
v 4.17142 4.09794 -0.28043
v 3.32257 4.14478 -0.44475
v 3.13925 4.19741 -0.25068
v 3.33450 4.40248 -0.24849
v 2.96716 2.07037 -0.34063
v 3.03186 1.98550 -0.38051
v 2.44928 2.00759 -0.48299
v 2.59406 2.15506 -0.41543
v 2.68237 2.27015 -0.22058
v 2.81146 2.16449 -0.20302
v 2.93179 2.14856 -0.19099
v 0.50742 2.82942 -0.27031
v 0.55923 2.79093 -0.14348
v 0.46777 2.60268 -0.18244
v 0.41141 2.74692 -0.34005
v 0.16174 2.60140 -0.00000
v 0.30392 2.52571 -0.00000
v 0.28943 2.55611 -0.20477
v 0.11148 2.74382 -0.20228
v 0.23740 2.72456 -0.33898
v 1.25061 0.28609 -0.43712
v 1.15701 0.46883 -0.45824
v 1.38382 0.50125 -0.53743
v 1.44260 0.25335 -0.45605
v 1.44452 0.06167 -0.26409
v 1.16306 0.16847 -0.27077
v 1.59937 0.52301 -0.54895
v 1.68777 0.27750 -0.45334
v 1.75061 0.09729 -0.25559
v 1.43518 0.00000 -0.00000
v 1.91351 0.38959 -0.42853
v 1.99887 0.26203 -0.23014
v 2.19180 0.46290 -0.21474
v 2.39508 0.64693 -0.00000
v 2.25403 1.63122 -0.00000
v 2.35437 1.46510 -0.00000
v 2.12851 1.80222 -0.00000
v 2.17691 1.82956 -0.21271
v 2.30066 1.65027 -0.19876
v 2.04672 2.01405 -0.21570
v 2.14908 2.08508 -0.40116
v 2.28809 1.89435 -0.39841
v 1.91263 2.19299 -0.21712
v 2.01328 2.26750 -0.40470
v 2.17041 2.38640 -0.49433
v 2.30499 2.20174 -0.49195
v 1.77805 2.37064 -0.21801
v 1.88037 2.44743 -0.40563
v 2.04099 2.56719 -0.49558
v 2.20374 2.68930 -0.41411
v 2.32895 2.51084 -0.41606
v 1.74921 2.62506 -0.40717
v 1.91248 2.74625 -0.49911
v 2.07822 2.86881 -0.41418
v 2.18362 2.94501 -0.22365
v 2.30807 2.76735 -0.22514
v 1.78183 2.92279 -0.50018
v 1.95129 3.04655 -0.41441
v 2.05991 3.12524 -0.22416
v 2.10928 3.15868 -0.00000
v 2.23254 2.97802 -0.00000
v 1.82550 3.22604 -0.41656
v 1.93411 3.30600 -0.22512
v 1.80493 3.48696 -0.22627
v 0.83871 3.53201 -0.00000
v 0.65060 3.84635 -0.21067
v 0.76779 3.71869 -0.22251
v 0.53882 3.95104 -0.18360
v 0.57361 4.05478 -0.35521
v 0.71890 3.95697 -0.39851
v 0.41922 3.98859 -0.16388
v 0.41397 4.06162 -0.30489
v 0.38757 4.15891 -0.36446
v 0.61389 4.20691 -0.43110
v 0.30374 3.94195 -0.15246
v 0.27777 3.97079 -0.25995
v 0.23056 4.01151 -0.30532
v 0.19504 4.05792 -0.25197
v 0.37280 4.25054 -0.31355
v 0.20944 3.81170 -0.24304
v 0.16364 3.82666 -0.28704
v 0.10974 3.83861 -0.24299
v 0.08215 3.84517 -0.14147
v 0.17834 4.09507 -0.15219
v 0.15817 3.62349 -0.32598
v 0.08624 3.61489 -0.27962
v 0.04028 3.60593 -0.15652
v 0.07184 3.85050 -0.00000
v 0.09750 3.39252 -0.32759
v 0.02597 3.37651 -0.18406
v 0.03519 3.15336 -0.20197
v 0.36725 3.42108 -0.00000
v 0.51788 3.03436 -0.00000
v 0.49695 3.02542 -0.15508
v 0.41141 3.22416 -0.17044
v 0.57034 2.78171 -0.00000
v 0.47543 2.58212 -0.00000
v 0.34329 3.20459 -0.32388
v 0.27750 3.41611 -0.30889
v 0.33939 3.41801 -0.16831
v 0.43466 2.99685 -0.30925
v 0.32272 2.95984 -0.38766
v 0.24545 3.18332 -0.38757
v 0.13177 3.16415 -0.35600
v 0.19144 3.40758 -0.36780
v 0.18185 2.93997 -0.36556
v 0.06348 2.93963 -0.20859
v 0.22977 3.62221 -0.27325
v 0.23856 3.80169 -0.14449
v 0.27466 3.61623 -0.15302
v 0.24954 3.79789 -0.00000
v 0.29568 3.61395 -0.00000
v 0.17365 4.10934 -0.00000
v 0.36279 4.32693 -0.18166
v 0.65692 4.46734 -0.21255
v 0.63681 4.35184 -0.37532
v 0.98315 4.45015 -0.23657
v 0.91690 4.31798 -0.41122
v 0.82083 4.13014 -0.47491
v 1.13934 4.16538 -0.42545
v 0.98676 3.99516 -0.49859
v 0.85110 3.82436 -0.41011
v 1.13367 3.82113 -0.50873
v 0.97998 3.67077 -0.41670
v 0.88431 3.57313 -0.22485
v 1.10724 3.50419 -0.41727
v 1.00488 3.41446 -0.22481
v 0.95679 3.37413 -0.00000
v 1.12930 3.24727 -0.22349
v 2.35620 2.80060 -0.00000
v 2.43076 2.59204 -0.22783
v 2.55466 2.42314 -0.22923
v 2.45801 2.33099 -0.41989
v 2.71268 2.30747 -0.00000
v 2.82297 2.20334 -0.00000
v 1.46765 2.68923 -0.00000
v 1.59909 2.51343 -0.00000
v 1.33600 2.86462 -0.00000
v 1.38440 2.90071 -0.22138
v 1.51511 2.72535 -0.21991
v 1.25677 3.07576 -0.22206
v 1.36115 3.15552 -0.41264
v 1.48920 2.97970 -0.41036
v 1.23337 3.33043 -0.41534
v 1.39749 3.45760 -0.50611
v 1.52722 3.27975 -0.50499
v 1.26816 3.63878 -0.50878
v 1.43454 3.77191 -0.42822
v 1.56583 3.58660 -0.42185
v 1.29584 3.96342 -0.42987
v 1.40576 4.05864 -0.23445
v 1.54541 3.86002 -0.23226
v 1.24020 4.27776 -0.23952
v 1.27713 4.31961 -0.00000
v 1.45209 4.10074 -0.00000
v 1.00385 4.48952 -0.00000
v 0.30466 3.93084 -0.00000
v 1.67633 3.67108 -0.22917
v 1.69702 3.40620 -0.41900
v 1.65515 3.10153 -0.50112
v 1.61737 2.80175 -0.40957
v 1.64719 2.54890 -0.21862
v 1.73093 2.33595 -0.00000
v 2.92743 2.17543 -0.00000
v 3.01144 2.23847 -0.00000
v 3.02713 2.22299 -0.18940
v 3.08228 2.18290 -0.31853
v 3.05432 2.38484 -0.00000
v 3.08118 2.37440 -0.19307
v 3.15042 2.34746 -0.32474
v 3.23300 2.31690 -0.36885
v 3.15033 2.13912 -0.35822
v 3.09787 2.56588 -0.20114
v 3.18262 2.54142 -0.35017
v 3.28995 2.50960 -0.40015
v 3.39102 2.47856 -0.34599
v 3.31055 2.28657 -0.32051
v 3.20505 2.74288 -0.37231
v 3.33926 2.70606 -0.43386
v 3.46954 2.67025 -0.37290
v 3.56601 2.64276 -0.20891
v 3.46896 2.45568 -0.19530
v 3.39081 2.90688 -0.46596
v 3.55035 2.86614 -0.39813
v 3.66364 2.82798 -0.22111
v 3.71063 2.80090 -0.00000
v 3.60748 2.62430 -0.00000
v 3.63138 3.06208 -0.42408
v 3.76126 3.01288 -0.23367
v 3.85736 3.20277 -0.24755
v 3.04321 3.75940 -0.00000
v 3.05008 3.56243 -0.00000
v 3.03177 3.97372 -0.00000
v 3.10095 3.96618 -0.25284
v 3.12112 3.76118 -0.24831
v 3.08844 4.23184 -0.00000
v 3.32336 4.45280 -0.00000
v 3.68674 4.51155 -0.00000
v 4.03268 4.39212 -0.00000
v 4.15900 3.81326 -0.27957
v 4.05109 3.59108 -0.26547
v 3.85995 3.66719 -0.48618
v 3.92554 3.86899 -0.48909
v 3.57764 3.74363 -0.56270
v 3.61050 3.93548 -0.55836
v 3.30185 3.76575 -0.46226
v 3.30167 3.95837 -0.46384
v 3.53799 3.53606 -0.55076
v 3.29538 3.56517 -0.45492
v 3.12656 3.56407 -0.24558
v 3.27719 3.35857 -0.43847
v 3.12531 3.36886 -0.23742
v 3.05322 3.36691 -0.00000
v 3.11954 3.16880 -0.22834
v 3.50208 2.44157 -0.00000
v 3.36627 2.26376 -0.18439
v 3.27496 2.05917 -0.00000
v 3.25519 2.07217 -0.17925
v 3.21170 2.09965 -0.31069
v 3.13684 1.88726 -0.17596
v 3.09012 1.92543 -0.31920
v 3.02048 1.71225 -0.17820
v 2.96579 1.75938 -0.33209
v 2.91425 1.54438 -0.17796
v 2.85614 1.59399 -0.33623
v 2.79919 1.35264 -0.17351
v 2.74045 1.38972 -0.32655
v 2.66531 1.12413 -0.17257
v 2.61771 1.16114 -0.31853
v 2.56494 1.19666 -0.38485
v 2.46927 0.94219 -0.33441
v 2.41553 1.00435 -0.40564
v 2.35550 1.07605 -0.39971
v 2.49713 1.24024 -0.38012
v 2.29596 1.14675 -0.32206
v 2.42856 1.28027 -0.30854
v 2.47394 1.47637 -0.33334
v 2.37601 1.30956 -0.16439
v 2.38510 1.47039 -0.17367
v 2.42209 1.69213 -0.37546
v 2.36273 1.31633 -0.00000
v 2.25433 1.20295 -0.17043
v 2.06476 1.19069 -0.00000
v 1.12592 0.12364 -0.00000
v 0.92651 0.38326 -0.00000
v 0.97711 0.40838 -0.26611
v 0.88565 0.71502 -0.00000
v 1.02231 1.00548 -0.00000
v 1.26312 1.15417 -0.00000
v 1.50107 1.12451 -0.21021
v 1.51172 0.98491 -0.39937
v 1.70004 1.11918 -0.20749
v 1.70334 0.98922 -0.39640
v 1.73285 0.80219 -0.52295
v 1.53598 0.76749 -0.52651
v 1.88611 1.12652 -0.20344
v 1.90283 1.01173 -0.38169
v 1.94650 0.86458 -0.49686
v 2.02042 0.70001 -0.50926
v 1.80728 0.58712 -0.53754
v 2.10892 1.06210 -0.35218
v 2.16196 0.95456 -0.45147
v 2.22742 0.84422 -0.45720
v 2.29456 0.74158 -0.36815
v 2.11108 0.55686 -0.40481
v 2.35748 0.67216 -0.20148
v 2.51642 0.89383 -0.18362
v 2.54343 0.87119 -0.00000
v 3.06213 2.57428 -0.00000
v 3.10587 2.76663 -0.20738
v 3.11346 2.96882 -0.21770
v 3.22986 2.94791 -0.39416
v 3.25424 3.15344 -0.41573
v 3.44281 3.11293 -0.49775
v 3.49063 3.31989 -0.52933
v 3.70718 3.26292 -0.44900
v 3.78275 3.46689 -0.47055
v 3.95087 3.39378 -0.25853
v 3.15756 1.87036 -0.00000
v 2.07513 1.14765 -0.18887
v 1.88519 1.18273 -0.00000
v 0.07901 2.75179 -0.00000
v 1.76755 0.03594 -0.00000
v 2.03232 0.21382 -0.00000
v 2.23151 0.42740 -0.00000
v 1.99786 1.98085 -0.00000
v 1.86505 2.15827 -0.00000
v 1.98273 3.33991 -0.00000
v 1.85434 3.52210 -0.00000
v 0.72812 3.67639 -0.00000
v 0.62527 3.80432 -0.00000
v 0.52536 3.91506 -0.00000
v 0.41345 3.96764 -0.00000
v 0.02130 3.60255 -0.00000
v 0.00000 3.37145 -0.00000
v 0.00452 3.15409 -0.00000
v 0.43921 3.23310 -0.00000
v 0.02948 2.94416 -0.00000
v 0.36337 4.35022 -0.00000
v 0.66602 4.49896 -0.00000
v 1.08038 3.20998 -0.00000
v 2.47754 2.62703 -0.00000
v 2.59537 2.46119 -0.00000
v 1.20789 3.03888 -0.00000
v 1.59433 3.89855 -0.00000
v 1.72577 3.70776 -0.00000
v 3.81702 2.98217 -0.00000
v 3.92331 3.16454 -0.00000
v 4.24030 4.11270 -0.00000
v 4.24451 3.80276 -0.00000
v 4.13754 3.55348 -0.00000
v 3.05533 3.16927 -0.00000
v 3.39099 2.25187 -0.00000
v 2.24368 1.22429 -0.00000
v 1.49655 1.18051 -0.00000
v 1.69843 1.18007 -0.00000
v 2.68979 1.10574 -0.00000
v 3.06281 2.77251 -0.00000
v 3.06104 2.97098 -0.00000
v 4.02841 3.35244 -0.00000
v 3.04581 1.69170 -0.00000
v 2.94180 1.52230 -0.00000
v 2.82565 1.33106 -0.00000
v 1.15677 0.92397 0.37088
v 2.71326 1.71778 0.46200
v 3.89713 4.25410 0.42719
v 3.38489 4.28408 0.40785
v 2.76675 1.97642 0.41637
v 0.16681 2.61516 0.16085
v 1.11469 0.72534 0.43900
v 0.93912 0.71654 0.25148
v 1.06503 0.98566 0.22852
v 1.28406 1.11031 0.21763
v 1.31357 0.97140 0.39306
v 1.33517 0.74661 0.51231
v 2.77911 1.66397 0.43350
v 2.67087 1.42956 0.40839
v 2.58618 1.51062 0.42622
v 2.58630 1.78708 0.46597
v 2.89362 1.83404 0.41870
v 3.94830 4.08739 0.47490
v 3.63632 4.12589 0.52934
v 3.65115 4.29762 0.44485
v 3.67572 4.46380 0.25210
v 3.99710 4.35249 0.26630
v 4.17142 4.09794 0.28043
v 3.32257 4.14478 0.44475
v 3.13925 4.19741 0.25068
v 3.33450 4.40248 0.24849
v 2.96716 2.07037 0.34063
v 3.03186 1.98550 0.38051
v 2.44928 2.00759 0.48299
v 2.59406 2.15506 0.41543
v 2.68237 2.27015 0.22058
v 2.81146 2.16449 0.20302
v 2.93179 2.14856 0.19099
v 0.50742 2.82942 0.27031
v 0.55923 2.79093 0.14348
v 0.46777 2.60268 0.18244
v 0.41141 2.74692 0.34005
v 0.28943 2.55611 0.20477
v 0.11148 2.74382 0.20228
v 0.23740 2.72456 0.33898
v 1.25061 0.28609 0.43712
v 1.15701 0.46883 0.45824
v 1.38382 0.50125 0.53743
v 1.44260 0.25335 0.45605
v 1.44452 0.06167 0.26409
v 1.16306 0.16847 0.27077
v 1.59937 0.52301 0.54895
v 1.68777 0.27750 0.45334
v 1.75061 0.09729 0.25559
v 1.91351 0.38959 0.42853
v 1.99887 0.26203 0.23014
v 2.19180 0.46290 0.21474
v 2.17691 1.82956 0.21271
v 2.30066 1.65027 0.19876
v 2.04672 2.01405 0.21570
v 2.14908 2.08508 0.40116
v 2.28809 1.89435 0.39841
v 1.91263 2.19299 0.21712
v 2.01328 2.26750 0.40470
v 2.17041 2.38640 0.49433
v 2.30499 2.20174 0.49195
v 1.77805 2.37064 0.21801
v 1.88037 2.44743 0.40563
v 2.04099 2.56719 0.49558
v 2.20374 2.68930 0.41411
v 2.32895 2.51084 0.41606
v 1.74921 2.62506 0.40717
v 1.91248 2.74625 0.49911
v 2.07822 2.86881 0.41418
v 2.18362 2.94501 0.22365
v 2.30807 2.76735 0.22514
v 1.78183 2.92279 0.50018
v 1.95129 3.04655 0.41441
v 2.05991 3.12524 0.22416
v 1.82550 3.22604 0.41656
v 1.93411 3.30600 0.22512
v 1.80493 3.48696 0.22627
v 0.65060 3.84635 0.21067
v 0.76779 3.71869 0.22251
v 0.53882 3.95104 0.18360
v 0.57361 4.05478 0.35521
v 0.71890 3.95697 0.39851
v 0.41922 3.98859 0.16388
v 0.41397 4.06162 0.30489
v 0.38757 4.15891 0.36446
v 0.61389 4.20691 0.43110
v 0.30374 3.94195 0.15246
v 0.27777 3.97079 0.25995
v 0.23056 4.01151 0.30532
v 0.19504 4.05792 0.25197
v 0.37280 4.25054 0.31355
v 0.20944 3.81170 0.24304
v 0.16364 3.82666 0.28704
v 0.10974 3.83861 0.24299
v 0.08215 3.84517 0.14147
v 0.17834 4.09507 0.15219
v 0.15817 3.62349 0.32598
v 0.08624 3.61489 0.27962
v 0.04028 3.60593 0.15652
v 0.09750 3.39252 0.32759
v 0.02597 3.37651 0.18406
v 0.03519 3.15336 0.20197
v 0.49695 3.02542 0.15508
v 0.41141 3.22416 0.17044
v 0.34329 3.20459 0.32388
v 0.27750 3.41611 0.30889
v 0.33939 3.41801 0.16831
v 0.43466 2.99685 0.30925
v 0.32272 2.95984 0.38766
v 0.24545 3.18332 0.38757
v 0.13177 3.16415 0.35600
v 0.19144 3.40758 0.36780
v 0.18185 2.93997 0.36556
v 0.06348 2.93963 0.20859
v 0.22977 3.62221 0.27325
v 0.23856 3.80169 0.14449
v 0.27466 3.61623 0.15302
v 0.36279 4.32693 0.18166
v 0.65692 4.46734 0.21255
v 0.63681 4.35184 0.37532
v 0.98315 4.45015 0.23657
v 0.91690 4.31798 0.41122
v 0.82083 4.13014 0.47491
v 1.13934 4.16538 0.42545
v 0.98676 3.99516 0.49859
v 0.85110 3.82436 0.41011
v 1.13367 3.82113 0.50873
v 0.97998 3.67077 0.41670
v 0.88431 3.57313 0.22485
v 1.10724 3.50419 0.41727
v 1.00488 3.41446 0.22481
v 1.12930 3.24727 0.22349
v 2.43076 2.59204 0.22783
v 2.55466 2.42314 0.22923
v 2.45801 2.33099 0.41989
v 1.38440 2.90071 0.22138
v 1.51511 2.72535 0.21991
v 1.25677 3.07576 0.22206
v 1.36115 3.15552 0.41264
v 1.48920 2.97970 0.41036
v 1.23337 3.33043 0.41534
v 1.39749 3.45760 0.50611
v 1.52722 3.27975 0.50499
v 1.26816 3.63878 0.50878
v 1.43454 3.77191 0.42822
v 1.56583 3.58660 0.42185
v 1.29584 3.96342 0.42987
v 1.40576 4.05864 0.23445
v 1.54541 3.86002 0.23226
v 1.24020 4.27776 0.23952
v 1.67633 3.67108 0.22917
v 1.69702 3.40620 0.41900
v 1.65515 3.10153 0.50112
v 1.61737 2.80175 0.40957
v 1.64719 2.54890 0.21862
v 3.02713 2.22299 0.18940
v 3.08228 2.18290 0.31853
v 3.08118 2.37440 0.19307
v 3.15042 2.34746 0.32474
v 3.23300 2.31690 0.36885
v 3.15033 2.13912 0.35822
v 3.09787 2.56588 0.20114
v 3.18262 2.54142 0.35017
v 3.28995 2.50960 0.40015
v 3.39102 2.47856 0.34599
v 3.31055 2.28657 0.32051
v 3.20505 2.74288 0.37231
v 3.33926 2.70606 0.43386
v 3.46954 2.67025 0.37290
v 3.56601 2.64276 0.20891
v 3.46896 2.45568 0.19530
v 3.39081 2.90688 0.46596
v 3.55035 2.86614 0.39813
v 3.66364 2.82798 0.22111
v 3.63138 3.06208 0.42408
v 3.76126 3.01288 0.23367
v 3.85736 3.20277 0.24755
v 3.10095 3.96618 0.25284
v 3.12112 3.76118 0.24831
v 4.15900 3.81326 0.27957
v 4.05109 3.59108 0.26547
v 3.85995 3.66719 0.48618
v 3.92554 3.86899 0.48909
v 3.57764 3.74363 0.56270
v 3.61050 3.93548 0.55836
v 3.30185 3.76575 0.46226
v 3.30167 3.95837 0.46384
v 3.53799 3.53606 0.55076
v 3.29538 3.56517 0.45492
v 3.12656 3.56407 0.24558
v 3.27719 3.35857 0.43847
v 3.12531 3.36886 0.23742
v 3.11954 3.16880 0.22834
v 3.36627 2.26376 0.18439
v 3.25519 2.07217 0.17925
v 3.21170 2.09965 0.31069
v 3.13684 1.88726 0.17596
v 3.09012 1.92543 0.31920
v 3.02048 1.71225 0.17820
v 2.96579 1.75938 0.33209
v 2.91425 1.54438 0.17796
v 2.85614 1.59399 0.33623
v 2.79919 1.35264 0.17351
v 2.74045 1.38972 0.32655
v 2.66531 1.12413 0.17257
v 2.61771 1.16114 0.31853
v 2.56494 1.19666 0.38485
v 2.46927 0.94219 0.33441
v 2.41553 1.00435 0.40564
v 2.35550 1.07605 0.39971
v 2.49713 1.24024 0.38012
v 2.29596 1.14675 0.32206
v 2.42856 1.28027 0.30854
v 2.47394 1.47637 0.33334
v 2.37601 1.30956 0.16439
v 2.38510 1.47039 0.17367
v 2.42209 1.69213 0.37546
v 2.25433 1.20295 0.17043
v 0.97711 0.40838 0.26611
v 1.50107 1.12451 0.21021
v 1.51172 0.98491 0.39937
v 1.70004 1.11918 0.20749
v 1.70334 0.98922 0.39640
v 1.73285 0.80219 0.52295
v 1.53598 0.76749 0.52651
v 1.88611 1.12652 0.20344
v 1.90283 1.01173 0.38169
v 1.94650 0.86458 0.49686
v 2.02042 0.70001 0.50926
v 1.80728 0.58712 0.53754
v 2.10892 1.06210 0.35218
v 2.16196 0.95456 0.45147
v 2.22742 0.84422 0.45720
v 2.29456 0.74158 0.36815
v 2.11108 0.55686 0.40481
v 2.35748 0.67216 0.20148
v 2.51642 0.89383 0.18362
v 3.10587 2.76663 0.20738
v 3.11346 2.96882 0.21770
v 3.22986 2.94791 0.39416
v 3.25424 3.15344 0.41573
v 3.44281 3.11293 0.49775
v 3.49063 3.31989 0.52933
v 3.70718 3.26292 0.44900
v 3.78275 3.46689 0.47055
v 3.95087 3.39378 0.25853
v 2.07513 1.14765 0.18887
vn -0.45763 0.52073 -0.72071
vn -0.53354 0.18948 -0.82427
vn -0.87558 0.16374 -0.45448
vn -0.64597 0.63532 -0.42319
vn -0.25293 0.87127 -0.42061
vn -0.19611 0.61990 -0.75978
vn -0.19558 0.24999 -0.94829
vn 0.07223 -0.04155 -0.99652
vn 0.39998 -0.23624 -0.88556
vn 0.35028 -0.27723 -0.89468
vn -0.25701 -0.08044 -0.96306
vn 0.17542 0.35049 -0.91999
vn 0.37630 -0.09730 -0.92137
vn -0.19045 -0.07618 -0.97874
vn 0.34459 0.53475 -0.77156
vn 0.43497 0.21936 -0.87332
vn -0.01865 0.25284 -0.96733
vn 0.01375 0.59298 -0.80510
vn 0.05725 0.90150 -0.42898
vn 0.52207 0.72114 -0.45542
vn 0.82047 0.25496 -0.51169
vn -0.32693 0.57386 -0.75087
vn -0.46523 0.30612 -0.83057
vn -0.79013 0.40115 -0.46343
vn -0.43434 0.78669 -0.43870
vn -0.18624 0.59033 -0.78538
vn -0.07791 0.32223 -0.94345
vn -0.03246 -0.06386 -0.99743
vn 0.45210 0.36142 -0.81547
vn 0.67420 0.61475 -0.40930
vn 0.38553 0.82983 -0.40343
vn -0.25558 0.89900 -0.35563
vn 0.79890 -0.02729 -0.60084
vn 0.95543 -0.08703 -0.28211
vn 0.85896 -0.41360 -0.30187
vn 0.40559 -0.32335 -0.85495
vn -0.68744 -0.66443 -0.29319
vn -0.54435 -0.74572 -0.38417
vn -0.46556 -0.88502 0.00024
vn -0.71256 -0.70161 0.00158
vn -0.83599 -0.38342 -0.39258
vn -0.66953 -0.38792 -0.63344
vn -0.93625 -0.35133 0.00141
vn -0.36245 -0.48933 -0.79321
vn -0.48991 -0.19209 -0.85035
vn -0.14796 -0.12802 -0.98067
vn -0.08183 -0.52690 -0.84598
vn -0.09871 -0.87243 -0.47866
vn -0.52845 -0.70808 -0.46835
vn 0.04300 -0.13127 -0.99041
vn 0.19235 -0.52378 -0.82985
vn 0.31143 -0.82155 -0.47756
vn 0.34935 -0.93699 -0.00003
vn -0.12720 -0.99188 -0.00051
vn 0.40647 -0.48622 -0.77355
vn 0.58478 -0.68436 -0.43553
vn 0.65140 -0.75873 0.00015
vn 0.69827 -0.59695 -0.39506
vn 0.76483 -0.64423 0.00007
vn -0.81051 -0.58572 -0.00002
vn -0.73416 -0.53783 -0.41442
vn -0.78238 -0.48172 -0.39475
vn -0.84439 -0.53573 -0.00039
vn -0.80553 -0.59255 0.00004
vn -0.73134 -0.54087 -0.41546
vn -0.51326 -0.39159 -0.76369
vn -0.50558 -0.39713 -0.76595
vn -0.79858 -0.60189 0.00000
vn -0.72621 -0.54789 -0.41525
vn -0.51564 -0.39069 -0.76255
vn -0.33008 -0.25166 -0.90979
vn -0.32278 -0.25877 -0.91041
vn -0.72823 -0.54434 -0.41637
vn -0.51537 -0.38643 -0.76490
vn -0.32814 -0.24801 -0.91149
vn 0.30510 0.21250 -0.92831
vn 0.51067 0.35956 -0.78098
vn 0.50034 0.36293 -0.78609
vn 0.29029 0.21080 -0.93343
vn -0.51352 -0.38797 -0.76536
vn -0.32485 -0.24990 -0.91215
vn 0.31019 0.21625 -0.92575
vn 0.51352 0.35931 -0.77923
vn 0.74580 0.51912 -0.41750
vn 0.74378 0.52360 -0.41548
vn 0.30962 0.21594 -0.92602
vn 0.51228 0.35634 -0.78140
vn 0.74583 0.51627 -0.42094
vn 0.82305 0.56796 -0.00000
vn 0.82232 0.56903 0.00000
vn 0.51200 0.35298 -0.78311
vn 0.74250 0.51995 -0.42231
vn 0.81837 0.57469 -0.00000
vn 0.74156 0.52001 -0.42389
vn 0.81902 0.57377 -0.00000
vn -0.74532 -0.66670 0.00005
vn -0.68383 -0.61883 -0.38655
vn -0.70352 -0.57799 -0.41349
vn -0.77617 -0.63052 0.00033
vn -0.56331 -0.82624 -0.00009
vn -0.50856 -0.78187 -0.36062
vn -0.38657 -0.57142 -0.72391
vn -0.50015 -0.42498 -0.75448
vn -0.37568 -0.92675 0.00029
vn 0.02019 -0.95244 -0.30405
vn 0.00908 -0.72943 -0.68400
vn -0.03715 -0.52371 -0.85108
vn -0.30127 -0.37922 -0.87488
vn 0.67215 -0.70554 -0.22456
vn 0.53052 -0.57695 -0.62103
vn 0.37039 -0.43798 -0.81914
vn -0.63348 0.26839 -0.72572
vn -0.75559 0.37260 -0.53875
vn -0.55125 0.54208 -0.63425
vn -0.47641 0.37181 -0.79673
vn 0.81335 -0.10417 -0.57237
vn 0.62366 -0.07766 -0.77783
vn -0.61881 0.19061 -0.76207
vn -0.80454 0.23051 -0.54734
vn -0.94598 0.26494 -0.18687
vn -0.85585 0.47765 -0.19840
vn -0.52663 0.15676 -0.83552
vn -0.76815 0.14559 -0.62350
vn -0.96433 0.12877 -0.23129
vn -0.99055 0.13716 -0.00018
vn -0.96106 0.27635 -0.00026
vn -0.69407 0.05667 -0.71767
vn -0.95568 0.02606 -0.29325
vn -0.99955 0.02991 0.00004
vn -0.93504 -0.07651 -0.34618
vn -0.99727 -0.07378 0.00005
vn 0.95306 0.30279 0.00071
vn 0.91736 0.30202 -0.25930
vn 0.89390 0.34489 -0.28633
vn 0.93095 0.36515 0.00007
vn 0.99448 -0.10489 0.00076
vn 0.90494 -0.42553 0.00010
vn 0.29083 -0.95677 0.00017
vn 0.28925 -0.94700 -0.13972
vn 0.71477 0.26870 -0.64568
vn 0.73469 0.27658 -0.61946
vn 0.90793 0.32202 -0.26826
vn 0.93899 0.34394 -0.00006
vn 0.73989 0.21491 -0.63748
vn 0.22018 0.00047 -0.97546
vn 0.51913 0.19238 -0.83276
vn -0.27144 -0.00160 -0.96245
vn -0.40943 0.08469 -0.90840
vn 0.53719 0.23173 -0.81100
vn -0.13096 -0.11205 -0.98504
vn -0.78600 -0.17973 -0.59152
vn -0.90512 -0.18650 -0.38206
vn -0.84510 -0.07702 -0.52903
vn 0.05859 -0.42820 -0.90178
vn -0.98283 -0.18454 0.00003
vn 0.60262 0.20321 -0.77173
vn 0.78860 0.22665 -0.57162
vn 0.97327 -0.11073 -0.20121
vn 0.94000 0.25561 -0.22598
vn 0.99524 -0.09749 0.00042
vn 0.96082 0.27719 -0.00009
vn -0.86901 0.49480 -0.00007
vn -0.62974 0.77681 0.00002
vn -0.61897 0.73788 -0.26908
vn -0.21024 0.97765 0.00006
vn -0.21266 0.91017 -0.35548
vn -0.21600 0.61766 -0.75620
vn 0.26347 0.86738 -0.42218
vn 0.12416 0.55490 -0.82260
vn -0.17090 0.03837 -0.98454
vn -0.20870 0.38372 -0.89956
vn 0.36538 0.43024 -0.82546
vn -0.07736 0.01479 -0.99689
vn -0.49428 -0.39170 -0.77606
vn -0.32116 -0.23169 -0.91824
vn -0.50238 -0.38101 -0.77618
vn -0.71680 -0.55302 -0.42469
vn -0.50553 -0.37996 -0.77464
vn -0.72284 -0.54348 -0.42677
vn -0.79927 -0.60098 -0.00001
vn -0.79344 -0.60864 0.00004
vn -0.72545 -0.54162 -0.42470
vn -0.80085 -0.59887 -0.00001
vn 0.81886 0.57399 -0.00000
vn 0.81442 0.58027 0.00005
vn 0.73943 0.53107 -0.41378
vn 0.79758 0.60321 0.00017
vn 0.72815 0.54931 -0.40996
vn 0.49021 0.35935 -0.79408
vn 0.28031 0.19277 -0.94035
vn 0.72888 0.68464 -0.00036
vn 0.45060 0.89272 -0.00147
vn -0.80343 -0.59540 0.00000
vn -0.72942 -0.53920 -0.42097
vn -0.72740 -0.54435 -0.41782
vn -0.80024 -0.59969 0.00000
vn -0.80416 -0.59442 0.00000
vn -0.72832 -0.53915 -0.42293
vn -0.50990 -0.38231 -0.77062
vn -0.51293 -0.38025 -0.76962
vn -0.50831 -0.38108 -0.77226
vn -0.32024 -0.24304 -0.91563
vn -0.32092 -0.24606 -0.91458
vn -0.31933 -0.23986 -0.91678
vn 0.29511 0.19927 -0.93445
vn 0.50120 0.34410 -0.79397
vn 0.50876 0.34676 -0.78798
vn 0.30624 0.20384 -0.92988
vn 0.25827 0.21447 -0.94197
vn 0.47174 0.35918 -0.80526
vn 0.72623 0.53421 -0.43267
vn 0.74194 0.51443 -0.42998
vn 0.60848 0.66137 -0.43857
vn 0.67556 0.73731 -0.00012
vn 0.80499 0.59329 0.00009
vn 0.29767 0.95467 -0.00015
vn 0.34378 -0.93905 0.00067
vn 0.91491 -0.40365 0.00078
vn 0.82121 0.57062 0.00000
vn 0.82286 0.56825 -0.00000
vn 0.74425 0.51337 -0.42725
vn 0.50973 0.35412 -0.78408
vn 0.31134 0.20893 -0.92705
vn 0.30923 0.20992 -0.92753
vn -0.32381 -0.24290 -0.91441
vn -0.32542 -0.24384 -0.91359
vn -0.51380 -0.38425 -0.76705
vn -0.72850 -0.54367 -0.41680
vn -0.80076 -0.59899 0.00000
vn -0.80224 -0.59700 0.00000
vn 0.20317 0.97914 -0.00189
vn -0.60719 0.79456 -0.00036
vn -0.81649 0.57735 -0.00050
vn -0.77344 0.55121 -0.31299
vn -0.54458 0.39774 -0.73840
vn -0.98259 0.18580 -0.00038
vn -0.92877 0.18899 -0.31884
vn -0.67906 0.12864 -0.72272
vn -0.44181 0.05817 -0.89522
vn -0.32528 0.24574 -0.91313
vn -0.93874 0.04496 -0.34169
vn -0.68402 0.00568 -0.72944
vn -0.44238 -0.03827 -0.89601
vn 0.38966 -0.26751 -0.88125
vn 0.61353 -0.35799 -0.70386
vn 0.64435 -0.37493 -0.66651
vn 0.42915 -0.27372 -0.86076
vn -0.66746 -0.00896 -0.74459
vn -0.42558 -0.04482 -0.90381
vn 0.35585 -0.25273 -0.89972
vn 0.58135 -0.34368 -0.73751
vn 0.81582 -0.44764 -0.36614
vn 0.82961 -0.45390 -0.32513
vn 0.32649 -0.24130 -0.91388
vn 0.55215 -0.33352 -0.76413
vn 0.80093 -0.44497 -0.40065
vn 0.87039 -0.49237 0.00010
vn 0.87252 -0.48857 0.00009
vn 0.52880 -0.31839 -0.78677
vn 0.78929 -0.43531 -0.43305
vn 0.87186 -0.48975 0.00005
vn 0.78080 -0.41619 -0.46597
vn 0.87791 -0.47882 -0.00002
vn -0.99838 0.05687 0.00051
vn -0.87164 0.05119 -0.48746
vn -0.87551 -0.04342 -0.48125
vn -0.99842 -0.05618 -0.00020
vn -0.88155 0.47209 0.00180
vn -0.45766 0.88912 0.00128
vn 0.07948 0.99684 0.00029
vn 0.59466 0.80398 -0.00043
vn 0.95325 0.30218 -0.00115
vn 0.97474 -0.22335 0.00001
vn 0.82250 -0.19124 -0.53565
vn 0.89453 -0.44701 0.00068
vn 0.76980 -0.37537 -0.51625
vn 0.46361 -0.20953 -0.86091
vn 0.45175 -0.07242 -0.88920
vn -0.05084 -0.04189 -0.99783
vn -0.03817 0.05622 -0.99769
vn -0.56532 -0.00888 -0.82483
vn -0.52748 0.07123 -0.84657
vn -0.05487 -0.09041 -0.99439
vn -0.59375 -0.01055 -0.80458
vn -0.88282 -0.01445 -0.46948
vn -0.61513 -0.01643 -0.78826
vn -0.89133 0.00076 -0.45335
vn -0.99999 -0.00439 -0.00003
vn -0.99975 -0.02230 -0.00000
vn -0.90262 0.00596 -0.43040
vn -1.00000 -0.00186 -0.00007
vn 0.87225 -0.48907 0.00004
vn 0.86531 -0.50124 0.00000
vn 0.83479 -0.47239 -0.28279
vn 0.85273 -0.52235 -0.00000
vn 0.82245 -0.50531 -0.26122
vn 0.66070 -0.40106 -0.63453
vn 0.80493 -0.52675 -0.27318
vn 0.66453 -0.42495 -0.61467
vn 0.51951 -0.30706 -0.79738
vn 0.47514 -0.28107 -0.83381
vn 0.80144 -0.51869 -0.29774
vn 0.67418 -0.42839 -0.60163
vn 0.80901 -0.50010 -0.30887
vn 0.69117 -0.42338 -0.58570
vn 0.82017 -0.48711 -0.30007
vn 0.71122 -0.41745 -0.56560
vn 0.81833 -0.49683 -0.28897
vn 0.71125 -0.42585 -0.55926
vn 0.60901 -0.36244 -0.70551
vn 0.67349 -0.44459 -0.59055
vn 0.56585 -0.36261 -0.74049
vn -0.01191 -0.00646 -0.99991
vn 0.07721 0.13607 -0.98769
vn -0.12497 0.37159 -0.91995
vn -0.30714 0.15112 -0.93959
vn -0.39008 0.69307 -0.60622
vn -0.70329 0.35872 -0.61375
vn -0.74246 -0.10378 -0.66181
vn -0.86105 0.42062 -0.28577
vn -0.92243 -0.19410 -0.33384
vn -0.57721 -0.34843 -0.73853
vn -0.99999 -0.00354 0.00185
vn -0.96833 -0.24966 0.00061
vn -0.63406 0.77328 0.00095
vn -0.44810 0.84514 -0.29146
vn -0.44512 0.89547 0.00088
vn -0.59912 -0.80066 -0.00032
vn -0.92621 -0.37701 0.00012
vn -0.82426 -0.31950 -0.46745
vn -0.98650 0.16377 -0.00004
vn -0.73640 0.67655 -0.00090
vn -0.30404 0.95266 -0.00127
vn -0.03444 0.99941 -0.00048
vn -0.02777 0.90169 -0.43150
vn -0.04204 0.66713 -0.74376
vn -0.00366 0.99999 0.00004
vn -0.00842 0.90501 -0.42531
vn -0.02605 0.70188 -0.71182
vn 0.00632 0.33571 -0.94194
vn -0.04510 0.30100 -0.95256
vn -0.05640 0.91387 -0.40208
vn -0.06151 0.73573 -0.67447
vn 0.03225 0.37886 -0.92489
vn 0.27538 -0.11692 -0.95420
vn 0.17041 -0.12883 -0.97692
vn -0.15557 0.75902 -0.63221
vn 0.01115 0.41260 -0.91084
vn 0.34343 -0.10414 -0.93339
vn 0.61615 -0.44889 -0.64719
vn 0.53477 -0.45925 -0.70930
vn 0.75505 -0.55407 -0.35057
vn 0.81230 -0.58324 0.00013
vn 0.79311 -0.52644 -0.30633
vn 0.83686 -0.54742 0.00007
vn 0.85283 -0.52219 -0.00000
vn -0.99991 0.01361 0.00003
vn -0.92937 0.02074 -0.36856
vn -0.99921 0.03969 -0.00013
vn -1.00000 0.00126 0.00004
vn -0.91654 0.01105 -0.39979
vn -0.65004 -0.01081 -0.75983
vn -0.63289 -0.01734 -0.77405
vn -0.40712 -0.04653 -0.91219
vn -0.41580 -0.04124 -0.90852
vn -0.05576 -0.12577 -0.99049
vn 0.51069 -0.28965 -0.80950
vn 0.30435 -0.22797 -0.92488
vn 0.48869 -0.25885 -0.83317
vn 0.77089 -0.40113 -0.49480
vn 0.88231 -0.47067 0.00000
vn 0.84302 -0.53788 0.00002
vn 0.84471 -0.53522 -0.00001
vn 0.85185 -0.52379 -0.00000
vn 0.85728 -0.51486 -0.00001
vn -0.16549 0.92158 -0.35116
vn -0.04601 0.99894 -0.00031
vn -0.15073 0.98857 0.00008
vn 0.16812 -0.63941 -0.75026
vn -0.64696 0.63169 0.42710
vn -0.87488 0.16465 0.45549
vn -0.53468 0.19337 0.82264
vn -0.45997 0.51807 0.72113
vn -0.19967 0.61828 0.76018
vn -0.25524 0.86905 0.42380
vn -0.19811 0.25341 0.94686
vn -0.21970 -0.09267 0.97116
vn 0.35129 -0.27852 0.89388
vn 0.40794 -0.22113 0.88583
vn 0.13997 -0.04493 0.98914
vn 0.39667 -0.07704 0.91472
vn 0.20838 0.34055 0.91684
vn -0.14376 -0.08730 0.98575
vn 0.01496 0.59751 0.80173
vn -0.01854 0.26018 0.96538
vn 0.43247 0.22411 0.87335
vn 0.34035 0.53607 0.77253
vn 0.51856 0.72035 0.46065
vn 0.05892 0.90023 0.43140
vn 0.81801 0.25705 0.51458
vn -0.42343 0.78834 0.44634
vn -0.78185 0.40457 0.47437
vn -0.45628 0.31112 0.83368
vn -0.31462 0.57872 0.75239
vn -0.05262 0.33906 0.93929
vn -0.18476 0.58408 0.79039
vn 0.44982 0.36301 0.81602
vn -0.03445 -0.06131 0.99752
vn 0.37671 0.82589 0.41951
vn 0.67462 0.61411 0.40958
vn -0.26851 0.88945 0.36983
vn 0.40886 -0.31337 0.85711
vn 0.86671 -0.39011 0.31084
vn 0.95714 -0.07004 0.28103
vn 0.80166 -0.00458 0.59776
vn -0.55779 -0.75160 0.35210
vn -0.69118 -0.66920 0.27284
vn -0.68818 -0.40203 0.60397
vn -0.83989 -0.39081 0.37663
vn -0.08672 -0.53709 0.83905
vn -0.15425 -0.13467 0.97881
vn -0.49172 -0.19941 0.84761
vn -0.36345 -0.50202 0.78478
vn -0.52426 -0.71167 0.46763
vn -0.09739 -0.87505 0.47414
vn 0.19349 -0.51974 0.83213
vn 0.04327 -0.12836 0.99078
vn 0.31214 -0.82062 0.47869
vn 0.58595 -0.68194 0.43774
vn 0.40629 -0.48301 0.77565
vn 0.69808 -0.59684 0.39556
vn -0.78126 -0.48565 0.39215
vn -0.73408 -0.53789 0.41449
vn -0.73131 -0.54084 0.41554
vn -0.50537 -0.39694 0.76619
vn -0.51326 -0.39163 0.76367
vn -0.72620 -0.54790 0.41525
vn -0.51564 -0.39071 0.76254
vn -0.32291 -0.25890 0.91033
vn -0.33009 -0.25167 0.90978
vn -0.51538 -0.38643 0.76489
vn -0.72823 -0.54435 0.41637
vn -0.32816 -0.24799 0.91149
vn 0.29056 0.21083 0.93334
vn 0.50046 0.36292 0.78602
vn 0.51069 0.35957 0.78097
vn 0.30512 0.21253 0.92830
vn -0.32485 -0.24989 0.91216
vn -0.51352 -0.38796 0.76536
vn 0.51351 0.35931 0.77923
vn 0.31014 0.21628 0.92576
vn 0.74379 0.52360 0.41547
vn 0.74581 0.51910 0.41750
vn 0.51229 0.35633 0.78140
vn 0.30960 0.21595 0.92602
vn 0.74584 0.51626 0.42094
vn 0.74250 0.51995 0.42231
vn 0.51200 0.35299 0.78311
vn 0.74156 0.51999 0.42390
vn -0.70308 -0.57816 0.41401
vn -0.68292 -0.61875 0.38829
vn -0.50944 -0.78233 0.35838
vn -0.49448 -0.42356 0.75900
vn -0.38185 -0.56589 0.73073
vn 0.02118 -0.95201 0.30535
vn 0.01223 -0.72699 0.68654
vn -0.28557 -0.36338 0.88679
vn -0.02911 -0.52081 0.85318
vn 0.53120 -0.57629 0.62107
vn 0.67471 -0.70156 0.22930
vn 0.36991 -0.44575 0.81515
vn -0.47725 0.36844 0.79780
vn -0.55216 0.54000 0.63523
vn -0.75427 0.36961 0.54265
vn -0.62878 0.26349 0.73158
vn 0.62469 -0.07125 0.77761
vn 0.81356 -0.10195 0.57248
vn -0.80279 0.22943 0.55035
vn -0.61552 0.18630 0.76579
vn -0.85622 0.47688 0.19868
vn -0.94567 0.26577 0.18731
vn -0.76889 0.14241 0.62332
vn -0.52900 0.15221 0.83486
vn -0.96434 0.12811 0.23158
vn -0.95564 0.02349 0.29360
vn -0.69429 0.05075 0.71791
vn -0.93454 -0.07822 0.34715
vn 0.89381 0.34542 0.28598
vn 0.91743 0.30579 0.25458
vn 0.28669 -0.94773 0.14006
vn 0.90757 0.32369 0.26749
vn 0.73451 0.27716 0.61942
vn 0.71485 0.26848 0.64568
vn 0.74201 0.21954 0.63342
vn 0.51885 0.19110 0.83324
vn 0.22055 -0.00073 0.97538
vn -0.41025 0.07903 0.90854
vn -0.27221 -0.00118 0.96224
vn 0.53669 0.22993 0.81185
vn -0.13027 -0.11375 0.98493
vn -0.84377 -0.08008 0.53069
vn -0.90510 -0.18764 0.38155
vn -0.78622 -0.18199 0.59054
vn 0.06007 -0.43422 0.89880
vn 0.78923 0.22815 0.57014
vn 0.60458 0.20673 0.76925
vn 0.94007 0.25539 0.22594
vn 0.97293 -0.11197 0.20217
vn -0.61941 0.73744 0.26927
vn -0.21301 0.90997 0.35578
vn -0.21614 0.61721 0.75653
vn 0.12554 0.55541 0.82205
vn 0.26328 0.86742 0.42221
vn -0.20867 0.38308 0.89984
vn -0.16447 0.04099 0.98553
vn -0.07611 0.01575 0.99697
vn 0.36649 0.43111 0.82452
vn -0.49411 -0.39165 0.77619
vn -0.50253 -0.38111 0.77603
vn -0.32142 -0.23191 0.91810
vn -0.71680 -0.55303 0.42467
vn -0.72285 -0.54350 0.42674
vn -0.50556 -0.38000 0.77460
vn -0.72546 -0.54164 0.42467
vn 0.73941 0.53105 0.41384
vn 0.72799 0.54952 0.40995
vn 0.49023 0.35935 0.79406
vn 0.28020 0.19245 0.94045
vn -0.72739 -0.54436 0.41782
vn -0.72942 -0.53920 0.42097
vn -0.72832 -0.53914 0.42293
vn -0.51293 -0.38025 0.76962
vn -0.50991 -0.38230 0.77061
vn -0.50833 -0.38110 0.77224
vn -0.32094 -0.24606 0.91458
vn -0.32026 -0.24305 0.91562
vn -0.31938 -0.23992 0.91675
vn 0.30632 0.20389 0.92984
vn 0.50881 0.34675 0.78796
vn 0.50122 0.34412 0.79395
vn 0.29511 0.19924 0.93446
vn 0.47170 0.35950 0.80514
vn 0.25881 0.21529 0.94163
vn 0.74195 0.51445 0.42995
vn 0.72607 0.53415 0.43301
vn 0.60862 0.66137 0.43838
vn 0.74426 0.51336 0.42726
vn 0.50975 0.35410 0.78407
vn 0.30926 0.20994 0.92751
vn 0.31135 0.20894 0.92704
vn -0.51380 -0.38426 0.76704
vn -0.32542 -0.24384 0.91359
vn -0.32381 -0.24288 0.91442
vn -0.72850 -0.54366 0.41680
vn -0.77350 0.55041 0.31425
vn -0.54434 0.39961 0.73757
vn -0.92889 0.18832 0.31889
vn -0.67845 0.12904 0.72323
vn -0.32690 0.25204 0.91083
vn -0.44111 0.05963 0.89547
vn -0.68396 0.00560 0.72950
vn -0.93893 0.04389 0.34131
vn -0.44173 -0.03703 0.89639
vn 0.43090 -0.27252 0.86026
vn 0.64560 -0.37354 0.66609
vn 0.61457 -0.35680 0.70356
vn 0.38973 -0.26793 0.88109
vn -0.42575 -0.04540 0.90370
vn -0.66774 -0.01004 0.74433
vn 0.58134 -0.34393 0.73740
vn 0.35554 -0.25321 0.89971
vn 0.83051 -0.45244 0.32488
vn 0.81613 -0.44713 0.36606
vn 0.55252 -0.33257 0.76427
vn 0.32723 -0.23925 0.91416
vn 0.80086 -0.44504 0.40070
vn 0.78978 -0.43418 0.43329
vn 0.52947 -0.31650 0.78708
vn 0.78150 -0.41468 0.46615
vn -0.87583 -0.04283 0.48072
vn -0.87131 0.05194 0.48798
vn 0.82143 -0.19209 0.53699
vn 0.76786 -0.37642 0.51836
vn 0.45030 -0.07388 0.88981
vn 0.46137 -0.20980 0.86204
vn -0.03805 0.05619 0.99769
vn -0.05113 -0.04102 0.99785
vn -0.52731 0.07284 0.84654
vn -0.56575 -0.00783 0.82454
vn -0.59428 -0.01160 0.80418
vn -0.05506 -0.09103 0.99432
vn -0.88291 -0.01456 0.46931
vn -0.89150 0.00006 0.45302
vn -0.61555 -0.01730 0.78791
vn -0.90261 0.00565 0.43043
vn 0.83510 -0.47187 0.28273
vn 0.82239 -0.50525 0.26153
vn 0.66100 -0.39984 0.63498
vn 0.66564 -0.42258 0.61510
vn 0.80514 -0.52634 0.27333
vn 0.47593 -0.27890 0.83409
vn 0.52099 -0.30334 0.79785
vn 0.67541 -0.42703 0.60122
vn 0.80161 -0.51841 0.29776
vn 0.69139 -0.42359 0.58528
vn 0.80904 -0.50000 0.30897
vn 0.71122 -0.41778 0.56536
vn 0.82030 -0.48691 0.30005
vn 0.71135 -0.42502 0.55977
vn 0.81850 -0.49655 0.28894
vn 0.60874 -0.36116 0.70640
vn 0.56440 -0.36346 0.74118
vn 0.67336 -0.44403 0.59112
vn -0.31032 0.14959 0.93879
vn -0.12640 0.37108 0.91996
vn 0.07598 0.13486 0.98795
vn -0.01197 -0.01168 0.99986
vn -0.70271 0.36146 0.61283
vn -0.39158 0.69251 0.60588
vn -0.74120 -0.09951 0.66387
vn -0.92108 -0.19596 0.33648
vn -0.85839 0.42334 0.28976
vn -0.57641 -0.34629 0.74016
vn -0.45030 0.84367 0.29232
vn -0.82210 -0.32008 0.47086
vn -0.02757 0.90203 0.43080
vn -0.04265 0.66707 0.74377
vn -0.00860 0.90481 0.42573
vn -0.02606 0.70198 0.71172
vn -0.04636 0.30042 0.95268
vn 0.00587 0.33564 0.94197
vn -0.06069 0.73632 0.67391
vn -0.05528 0.91443 0.40095
vn 0.03205 0.37847 0.92506
vn 0.16898 -0.12895 0.97715
vn 0.27472 -0.11799 0.95426
vn 0.00912 0.40981 0.91213
vn -0.15700 0.75742 0.63377
vn 0.34340 -0.10514 0.93329
vn 0.53405 -0.45997 0.70938
vn 0.61649 -0.44882 0.64692
vn 0.75490 -0.55414 0.35079
vn 0.79355 -0.52562 0.30660
vn -0.92947 0.02009 0.36834
vn -0.91651 0.01096 0.39986
vn -0.65012 -0.01118 0.75975
vn -0.63282 -0.01723 0.77411
vn -0.41604 -0.04193 0.90838
vn -0.40715 -0.04660 0.91217
vn -0.05600 -0.12648 0.99039
vn 0.30483 -0.22640 0.92511
vn 0.51101 -0.28899 0.80954
vn 0.48880 -0.25844 0.83324
vn 0.77087 -0.40091 0.49500
vn -0.16630 0.92132 0.35144
vn 0.16776 -0.64285 0.74740
f 1//1 7//2 8//3 9//4
f 1//1 9//4 10//5 11//6
f 1//1 11//6 12//7 7//2
f 2//8 13//9 14//10 15//11
f 5//12 17//13 13//9 2//8
f 2//8 15//11 16//14 5//12
f 3//15 18//16 19//17 20//18
f 3//15 20//18 21//19 22//20
f 3//15 22//20 23//21 18//16
f 4//22 24//23 25//24 26//25
f 4//22 20//18 19//17 24//23
f 5//12 27//26 28//27 17//13
f 5//12 16//14 29//28 30//29
f 5//12 30//29 31//30 32//31
f 5//12 32//31 33//32 27//26
f 34//33 35//34 36//35 37//36
f 6//37 40//38 39//39 38//40
f 6//37 41//41 42//42 40//38
f 6//37 38//40 304//43 41//41
f 43//44 44//45 45//46 46//47
f 46//47 47//48 48//49 43//44
f 46//47 45//46 49//50 50//51
f 46//47 50//51 51//52 47//48
f 51//52 305//53 52//54 47//48
f 51//52 50//51 53//55 54//56
f 51//52 54//56 306//57 305//53
f 306//57 54//56 55//58 307//59
f 59//60 60//61 61//62 57//63
f 59//60 308//64 62//65 60//61
f 62//65 63//66 64//67 60//61
f 62//65 308//64 309//68 65//69
f 62//65 65//69 66//70 63//66
f 66//70 67//71 68//72 63//66
f 66//70 65//69 69//73 70//74
f 66//70 70//74 71//75 67//71
f 71//76 72//77 73//78 67//79
f 71//75 70//74 74//80 75//81
f 71//76 75//82 76//83 72//77
f 76//83 77//84 78//85 72//77
f 76//83 75//82 79//86 80//87
f 76//83 80//87 81//88 77//84
f 81//88 82//89 83//90 77//84
f 81//88 80//87 84//91 85//92
f 81//88 85//92 310//93 82//89
f 310//93 85//92 86//94 311//95
f 313//96 88//97 89//98 312//99
f 313//96 314//100 90//101 88//97
f 90//101 91//102 92//103 88//97
f 90//101 314//100 315//104 93//105
f 90//101 93//105 94//106 91//102
f 94//106 95//107 96//108 91//102
f 94//106 93//105 97//109 98//110
f 94//106 98//110 99//111 95//107
f 99//112 100//113 101//114 95//115
f 99//111 98//110 102//116 103//117
f 99//112 103//118 104//119 100//113
f 104//119 105//120 106//121 100//113
f 104//119 103//118 107//122 108//123
f 104//119 108//123 109//124 105//120
f 109//124 316//125 110//126 105//120
f 109//124 108//123 111//127 112//128
f 109//124 112//128 317//129 316//125
f 317//129 112//128 113//130 318//131
f 115//132 116//133 117//134 319//135
f 115//132 118//136 35//34 116//133
f 118//136 119//137 36//35 35//34
f 119//138 39//138 40//139 36//139
f 117//134 120//140 121//141 122//142
f 117//134 122//142 114//143 319//135
f 117//134 116//133 123//144 120//140
f 123//144 124//145 125//146 120//140
f 123//144 116//133 35//34 34//33
f 123//144 34//33 37//36 124//145
f 125//147 126//147 111//127 127//148
f 125//146 127//149 121//141 120//140
f 125//147 124//145 128//150 126//147
f 128//151 129//152 113//130 126//153
f 128//150 124//145 37//36 42//154
f 128//151 42//42 41//41 129//152
f 129//152 320//155 318//131 113//130
f 129//152 41//41 304//43 320//155
f 127//148 111//127 108//123 107//122
f 127//149 107//156 130//157 121//141
f 130//157 107//156 103//117 102//116
f 130//157 102//116 131//158 132//159
f 130//157 132//159 122//142 121//141
f 132//159 131//158 133//160 134//161
f 132//159 134//161 114//143 122//142
f 135//162 321//163 136//164 106//121
f 135//162 106//121 105//120 110//126
f 136//164 321//163 322//165 137//166
f 136//164 137//166 138//167 101//114
f 136//164 101//114 100//113 106//121
f 138//167 137//166 139//168 140//169
f 138//167 140//169 141//170 96//171
f 138//167 96//171 95//115 101//114
f 141//170 140//169 142//172 143//173
f 141//170 143//173 144//174 92//103
f 141//170 92//103 91//102 96//108
f 144//174 143//173 145//175 146//176
f 144//174 146//176 147//177 89//98
f 144//174 89//98 88//97 92//103
f 147//177 146//176 148//178 149//179
f 147//177 149//179 150//180 87//181
f 147//177 87//181 312//99 89//98
f 150//180 149//179 151//182 323//183
f 152//184 324//185 153//186 78//85
f 152//184 78//85 77//84 83//90
f 153//186 324//185 325//187 154//188
f 153//186 154//188 155//189 73//78
f 153//186 73//78 72//77 78//85
f 155//189 154//188 31//30 30//29
f 155//189 30//29 29//28 68//190
f 155//189 68//190 67//79 73//78
f 154//188 325//187 156//191 31//30
f 156//191 157//192 32//31 31//30
f 160//193 161//194 162//195 158//196
f 160//193 326//197 163//198 161//194
f 163//198 164//199 165//200 161//194
f 163//198 326//197 323//183 151//182
f 163//198 151//182 166//201 164//199
f 166//201 167//202 168//203 164//199
f 166//201 151//182 149//179 148//178
f 166//201 148//178 169//204 167//202
f 169//205 170//206 171//207 167//208
f 169//204 148//178 146//176 145//175
f 169//205 145//209 172//210 170//206
f 172//210 173//211 174//212 170//206
f 172//210 145//209 143//173 142//172
f 172//210 142//172 175//213 173//211
f 175//213 176//214 177//215 173//211
f 175//213 142//172 140//169 139//168
f 175//213 139//168 178//216 176//214
f 178//216 139//168 137//166 322//165
f 179//217 97//109 93//105 315//217
f 179//218 133//160 131//158 97//109
f 327//219 328//220 180//221 174//212
f 327//219 174//212 173//211 177//215
f 180//221 328//220 311//95 86//94
f 180//221 86//94 181//222 171//207
f 180//221 171//207 170//206 174//212
f 181//222 86//94 85//92 84//91
f 181//222 84//91 182//223 168//224
f 181//222 168//224 167//208 171//207
f 182//223 84//91 80//87 79//86
f 182//225 79//226 183//227 165//200
f 182//225 165//200 164//199 168//203
f 183//227 79//226 75//81 74//80
f 183//227 74//80 184//228 162//195
f 183//227 162//195 161//194 165//200
f 184//228 74//80 70//74 69//73
f 184//228 69//73 185//229 159//230
f 184//228 159//230 158//196 162//195
f 185//229 69//73 65//69 309//68
f 157//192 186//231 33//32 32//31
f 186//232 187//233 188//234 33//32
f 188//234 189//235 27//26 33//32
f 188//234 187//233 190//236 191//237
f 188//234 191//237 192//238 189//235
f 192//238 193//239 194//240 189//235
f 192//238 191//237 195//241 196//242
f 192//238 196//242 197//243 193//239
f 197//244 198//245 199//246 193//247
f 197//243 196//242 200//248 201//249
f 197//244 201//250 202//251 198//245
f 202//251 203//252 204//253 198//245
f 202//251 201//250 205//254 206//255
f 202//251 206//255 207//256 203//252
f 207//256 208//257 209//258 203//252
f 207//256 206//255 210//259 211//260
f 207//256 211//260 329//261 208//257
f 329//261 211//260 212//262 330//263
f 215//264 216//265 217//266 213//267
f 215//264 218//268 25//24 216//265
f 218//268 219//269 26//25 25//24
f 219//269 220//270 21//19 26//25
f 220//270 221//271 22//20 21//19
f 221//271 331//272 23//21 22//20
f 331//272 332//273 222//274 23//21
f 222//274 332//273 333//275 223//276
f 222//274 223//276 224//277 225//278
f 222//274 225//278 18//16 23//21
f 225//278 224//277 226//279 227//280
f 225//278 227//280 19//17 18//16
f 227//280 226//279 228//281 229//282
f 227//280 229//282 24//23 19//17
f 229//282 228//281 217//266 216//265
f 229//282 216//265 25//24 24//23
f 228//281 226//279 230//283 231//284
f 228//281 231//284 232//285 217//266
f 232//285 231//284 233//286 234//287
f 232//285 234//287 235//288 214//289
f 232//285 214//289 213//267 217//266
f 235//288 234//287 236//290 334//291
f 237//292 335//293 238//294 204//253
f 237//292 204//253 203//252 209//258
f 238//294 335//293 239//295 240//296
f 238//294 240//296 241//297 199//246
f 238//294 199//246 198//245 204//253
f 241//297 240//296 242//298 243//299
f 241//297 243//299 28//300 194//301
f 241//297 194//301 193//247 199//246
f 243//299 242//298 244//302 245//303
f 243//299 245//303 17//13 28//300
f 245//303 244//302 246//304 247//305
f 245//303 247//305 13//9 17//13
f 247//305 246//304 248//306 249//307
f 247//305 249//307 14//10 13//9
f 249//307 248//306 250//308 251//309
f 249//307 251//309 252//310 14//10
f 252//310 251//309 253//311 254//312
f 252//313 254//314 255//315 256//316
f 252//313 256//316 15//11 14//10
f 256//316 255//315 257//317 258//318
f 256//316 258//318 259//319 15//11
f 259//319 258//318 260//320 261//321
f 259//319 261//321 61//62 262//322
f 259//319 262//322 16//14 15//11
f 262//322 61//62 60//61 64//67
f 262//322 64//67 29//28 16//14
f 261//321 260//320 263//323 58//324
f 261//321 58//324 57//63 61//62
f 263//325 260//320 264//326 336//327
f 266//328 267//329 268//330 48//49
f 266//328 48//49 47//48 52//54
f 269//331 270//332 9//4 8//3
f 269//331 8//3 268//330 267//329
f 270//332 271//333 10//5 9//4
f 271//333 337//334 272//335 10//5
f 272//335 273//336 11//6 10//5
f 272//335 337//334 338//337 274//338
f 272//335 274//338 275//339 273//336
f 275//339 276//340 277//341 273//336
f 275//339 274//338 278//342 279//343
f 275//339 279//343 280//344 276//340
f 280//344 281//345 282//346 276//340
f 280//344 279//343 283//347 284//348
f 280//344 284//348 285//349 281//345
f 285//349 286//350 287//351 281//345
f 285//349 284//348 255//315 254//314
f 285//349 254//312 253//311 286//350
f 287//351 55//58 54//56 53//55
f 287//351 53//55 282//346 281//345
f 287//351 286//350 288//352 55//58
f 288//352 56//353 307//59 55//58
f 288//352 286//350 253//311 289//354
f 288//352 289//354 290//355 56//353
f 290//355 289//354 250//308 339//356
f 340//357 292//358 195//241 291//359
f 340//357 341//360 293//361 292//358
f 293//361 294//362 200//248 292//358
f 293//361 341//360 334//291 236//290
f 293//361 236//290 295//363 294//362
f 295//363 296//364 205//365 294//362
f 295//363 236//290 234//287 233//286
f 295//363 233//286 297//366 296//364
f 297//366 298//367 210//259 296//368
f 297//366 233//286 231//284 230//283
f 297//366 230//283 299//369 298//367
f 299//369 300//370 212//262 298//367
f 299//369 230//283 226//279 224//277
f 299//369 224//277 223//276 300//370
f 300//370 342//371 330//263 212//262
f 300//370 223//276 333//275 342//371
f 298//367 212//262 211//260 210//259
f 296//368 210//259 206//255 205//254
f 294//362 205//365 201//249 200//248
f 292//358 200//248 196//242 195//241
f 291//359 195//241 191//237 190//236
f 301//372 343//373 244//302 242//298
f 301//372 242//298 240//296 239//295
f 343//373 344//374 246//304 244//302
f 344//374 345//375 248//306 246//304
f 345//375 339//356 250//308 248//306
f 289//354 253//311 251//309 250//308
f 284//348 283//347 257//317 255//315
f 283//347 279//343 278//342 302//376
f 283//347 302//376 264//326 257//317
f 302//376 278//342 303//377 265//378
f 302//376 265//378 336//327 264//326
f 303//377 278//342 274//338 338//337
f 282//346 53//55 50//51 49//50
f 282//346 49//50 277//341 276//340
f 277//341 49//50 45//46 12//7
f 277//341 12//7 11//6 273//336
f 268//330 8//3 7//2 44//45
f 268//330 44//45 43//44 48//49
f 264//326 260//320 258//318 257//317
f 194//240 28//27 27//26 189//235
f 131//158 102//116 98//110 97//109
f 126//153 113//130 112//128 111//127
f 68//72 29//28 64//67 63//66
f 45//46 44//45 7//2 12//7
f 42//154 37//36 36//379 40//379
f 26//25 21//19 20//18 4//22
f 354//380 353//381 352//382 346//383
f 356//384 355//385 354//380 346//383
f 352//382 357//386 356//384 346//383
f 360//387 359//388 358//389 347//390
f 347//390 358//389 362//391 350//392
f 350//392 361//393 360//387 347//390
f 365//394 364//395 363//396 348//397
f 367//398 366//399 365//394 348//397
f 363//396 368//400 367//398 348//397
f 371//401 370//402 369//403 349//404
f 369//403 364//395 365//394 349//404
f 362//391 373//405 372//406 350//392
f 375//407 374//408 361//393 350//392
f 377//409 376//410 375//407 350//392
f 372//406 378//411 377//409 350//392
f 382//412 381//413 380//414 379//415
f 38//40 39//39 383//416 351//417
f 383//416 385//418 384//419 351//417
f 384//419 304//43 38//40 351//417
f 389//420 388//421 387//422 386//423
f 386//423 391//424 390//425 389//420
f 393//426 392//427 388//421 389//420
f 390//425 394//428 393//426 389//420
f 390//425 52//54 305//53 394//428
f 396//429 395//430 393//426 394//428
f 305//53 306//57 396//429 394//428
f 307//59 397//431 396//429 306//57
f 57//63 399//432 398//433 59//60
f 398//433 400//434 308//64 59//60
f 398//433 402//435 401//436 400//434
f 403//437 309//68 308//64 400//434
f 401//436 404//438 403//437 400//434
f 401//436 406//439 405//440 404//438
f 408//441 407//442 403//437 404//438
f 405//440 409//443 408//441 404//438
f 405//444 411//445 410//446 409//447
f 413//448 412//449 408//441 409//443
f 410//446 414//450 413//451 409//447
f 410//446 416//452 415//453 414//450
f 418//454 417//455 413//451 414//450
f 415//453 419//456 418//454 414//450
f 415//453 83//90 82//89 419//456
f 421//457 420//458 418//454 419//456
f 82//89 310//93 421//457 419//456
f 311//95 422//459 421//457 310//93
f 312//99 424//460 423//461 313//96
f 423//461 425//462 314//100 313//96
f 423//461 427//463 426//464 425//462
f 428//465 315//104 314//100 425//462
f 426//464 429//466 428//465 425//462
f 426//464 431//467 430//468 429//466
f 433//469 432//470 428//465 429//466
f 430//468 434//471 433//469 429//466
f 430//472 436//473 435//474 434//475
f 438//476 437//477 433//469 434//471
f 435//474 439//478 438//479 434//475
f 435//474 441//480 440//481 439//478
f 443//482 442//483 438//479 439//478
f 440//481 444//484 443//482 439//478
f 440//481 110//126 316//125 444//484
f 446//485 445//486 443//482 444//484
f 316//125 317//129 446//485 444//484
f 318//131 447//487 446//485 317//129
f 319//135 449//488 448//489 115//132
f 448//489 380//414 118//136 115//132
f 380//414 381//413 119//137 118//136
f 381//490 383//490 39//138 119//138
f 452//491 451//492 450//493 449//488
f 319//135 114//143 452//491 449//488
f 450//493 453//494 448//489 449//488
f 450//493 455//495 454//496 453//494
f 379//415 380//414 448//489 453//494
f 454//496 382//412 379//415 453//494
f 457//497 445//486 456//498 455//498
f 450//493 451//492 457//499 455//495
f 456//498 458//500 454//496 455//498
f 456//501 447//487 459//502 458//503
f 385//504 382//412 454//496 458//500
f 459//502 384//419 385//418 458//503
f 447//487 318//131 320//155 459//502
f 320//155 304//43 384//419 459//502
f 442//483 443//482 445//486 457//497
f 451//492 460//505 442//506 457//499
f 437//477 438//476 442//506 460//505
f 462//507 461//508 437//477 460//505
f 451//492 452//491 462//507 460//505
f 134//161 133//160 461//508 462//507
f 452//491 114//143 134//161 462//507
f 441//480 463//509 321//163 135//162
f 110//126 440//481 441//480 135//162
f 464//510 322//165 321//163 463//509
f 436//473 465//511 464//510 463//509
f 441//480 435//474 436//473 463//509
f 467//512 466//513 464//510 465//511
f 431//514 468//515 467//512 465//511
f 436//473 430//472 431//514 465//511
f 470//516 469//517 467//512 468//515
f 427//463 471//518 470//516 468//515
f 431//467 426//464 427//463 468//515
f 473//519 472//520 470//516 471//518
f 424//460 474//521 473//519 471//518
f 427//463 423//461 424//460 471//518
f 476//522 475//523 473//519 474//521
f 87//181 150//180 476//522 474//521
f 424//460 312//99 87//181 474//521
f 323//183 477//524 476//522 150//180
f 416//452 478//525 324//185 152//184
f 83//90 415//453 416//452 152//184
f 479//526 325//187 324//185 478//525
f 411//445 480//527 479//526 478//525
f 416//452 410//446 411//445 478//525
f 375//407 376//410 479//526 480//527
f 406//528 374//408 375//407 480//527
f 411//445 405//444 406//528 480//527
f 376//410 156//191 325//187 479//526
f 376//410 377//409 157//192 156//191
f 158//196 482//529 481//530 160//193
f 481//530 483//531 326//197 160//193
f 481//530 485//532 484//533 483//531
f 477//524 323//183 326//197 483//531
f 484//533 486//534 477//524 483//531
f 484//533 488//535 487//536 486//534
f 475//523 476//522 477//524 486//534
f 487//536 489//537 475//523 486//534
f 487//538 491//539 490//540 489//541
f 472//520 473//519 475//523 489//537
f 490//540 492//542 472//543 489//541
f 490//540 494//544 493//545 492//542
f 469//517 470//516 472//543 492//542
f 493//545 495//546 469//517 492//542
f 493//545 177//215 176//214 495//546
f 466//513 467//512 469//517 495//546
f 176//214 178//216 466//513 495//546
f 322//165 464//510 466//513 178//216
f 315//217 428//465 432//470 179//217
f 432//470 461//508 133//160 179//218
f 494//544 496//547 328//220 327//219
f 177//215 493//545 494//544 327//219
f 422//459 311//95 328//220 496//547
f 491//539 497//548 422//459 496//547
f 494//544 490//540 491//539 496//547
f 420//458 421//457 422//459 497//548
f 488//549 498//550 420//458 497//548
f 491//539 487//538 488//549 497//548
f 417//455 418//454 420//458 498//550
f 485//532 499//551 417//552 498//553
f 488//535 484//533 485//532 498//553
f 412//449 413//448 417//552 499//551
f 482//529 500//554 412//449 499//551
f 485//532 481//530 482//529 499//551
f 407//442 408//441 412//449 500//554
f 159//230 185//229 407//442 500//554
f 482//529 158//196 159//230 500//554
f 309//68 403//437 407//442 185//229
f 377//409 378//411 186//231 157//192
f 378//411 501//555 187//233 186//232
f 378//411 372//406 502//556 501//555
f 503//557 190//236 187//233 501//555
f 502//556 504//558 503//557 501//555
f 502//556 506//559 505//560 504//558
f 508//561 507//562 503//557 504//558
f 505//560 509//563 508//561 504//558
f 505//564 511//565 510//566 509//567
f 513//568 512//569 508//561 509//563
f 510//566 514//570 513//571 509//567
f 510//566 516//572 515//573 514//570
f 518//574 517//575 513//571 514//570
f 515//573 519//576 518//574 514//570
f 515//573 209//258 208//257 519//576
f 521//577 520//578 518//574 519//576
f 208//257 329//261 521//577 519//576
f 330//263 522//579 521//577 329//261
f 213//267 524//580 523//581 215//264
f 523//581 370//402 218//268 215//264
f 370//402 371//401 219//269 218//268
f 371//401 366//399 220//270 219//269
f 366//399 367//398 221//271 220//270
f 367//398 368//400 331//272 221//271
f 368//400 525//582 332//273 331//272
f 526//583 333//275 332//273 525//582
f 528//584 527//585 526//583 525//582
f 368//400 363//396 528//584 525//582
f 530//586 529//587 527//585 528//584
f 363//396 364//395 530//586 528//584
f 532//588 531//589 529//587 530//586
f 364//395 369//403 532//588 530//586
f 523//581 524//580 531//589 532//588
f 369//403 370//402 523//581 532//588
f 534//590 533//591 529//587 531//589
f 524//580 535//592 534//590 531//589
f 537//593 536//594 534//590 535//592
f 214//289 235//288 537//593 535//592
f 524//580 213//267 214//289 535//592
f 334//291 538//595 537//593 235//288
f 516//572 539//596 335//293 237//292
f 209//258 515//573 516//572 237//292
f 540//597 239//295 335//293 539//596
f 511//565 541//598 540//597 539//596
f 516//572 510//566 511//565 539//596
f 543//599 542//600 540//597 541//598
f 506//601 373//602 543//599 541//598
f 511//565 505//564 506//601 541//598
f 545//603 544//604 542//600 543//599
f 373//602 362//391 545//603 543//599
f 547//605 546//606 544//604 545//603
f 362//391 358//389 547//605 545//603
f 549//607 548//608 546//606 547//605
f 358//389 359//388 549//607 547//605
f 551//609 550//610 548//608 549//607
f 359//388 552//611 551//609 549//607
f 554//612 553//613 551//609 552//611
f 556//614 555//615 554//616 552//617
f 359//388 360//387 556//614 552//617
f 558//618 557//619 555//615 556//614
f 360//387 559//620 558//618 556//614
f 561//621 560//622 558//618 559//620
f 562//623 399//432 561//621 559//620
f 360//387 361//393 562//623 559//620
f 402//435 398//433 399//432 562//623
f 361//393 374//408 402//435 562//623
f 58//324 263//323 560//622 561//621
f 399//432 57//63 58//324 561//621
f 336//327 563//624 560//622 263//325
f 391//424 564//625 267//329 266//328
f 52//54 390//425 391//424 266//328
f 353//381 354//380 270//332 269//331
f 267//329 564//625 353//381 269//331
f 354//380 355//385 271//333 270//332
f 355//385 565//626 337//334 271//333
f 355//385 356//384 566//627 565//626
f 567//628 338//337 337//334 565//626
f 566//627 568//629 567//628 565//626
f 566//627 570//630 569//631 568//629
f 572//632 571//633 567//628 568//629
f 569//631 573//634 572//632 568//629
f 569//631 575//635 574//636 573//634
f 577//637 576//638 572//632 573//634
f 574//636 578//639 577//637 573//634
f 574//636 580//640 579//641 578//639
f 554//616 555//615 577//637 578//639
f 579//641 553//613 554//612 578//639
f 395//430 396//429 397//431 580//640
f 574//636 575//635 395//430 580//640
f 397//431 581//642 579//641 580//640
f 397//431 307//59 56//353 581//642
f 582//643 553//613 579//641 581//642
f 56//353 290//355 582//643 581//642
f 339//356 550//610 582//643 290//355
f 291//359 507//562 583//644 340//357
f 583//644 584//645 341//360 340//357
f 583//644 512//569 585//646 584//645
f 538//595 334//291 341//360 584//645
f 585//646 586//647 538//595 584//645
f 585//646 517//648 587//649 586//647
f 536//594 537//593 538//595 586//647
f 587//649 588//650 536//594 586//647
f 587//651 520//578 589//652 588//650
f 533//591 534//590 536//594 588//650
f 589//652 590//653 533//591 588//650
f 589//652 522//579 591//654 590//653
f 527//585 529//587 533//591 590//653
f 591//654 526//583 527//585 590//653
f 522//579 330//263 342//371 591//654
f 342//371 333//275 526//583 591//654
f 520//578 521//577 522//579 589//652
f 517//575 518//574 520//578 587//651
f 512//569 513//568 517//648 585//646
f 507//562 508//561 512//569 583//644
f 190//236 503//557 507//562 291//359
f 542//600 544//604 343//373 301//372
f 239//295 540//597 542//600 301//372
f 544//604 546//606 344//374 343//373
f 546//606 548//608 345//375 344//374
f 548//608 550//610 339//356 345//375
f 550//610 551//609 553//613 582//643
f 555//615 557//619 576//638 577//637
f 592//655 571//633 572//632 576//638
f 557//619 563//624 592//655 576//638
f 265//378 303//377 571//633 592//655
f 563//624 336//327 265//378 592//655
f 338//337 567//628 571//633 303//377
f 392//427 393//426 395//430 575//635
f 569//631 570//630 392//427 575//635
f 357//386 388//421 392//427 570//630
f 566//627 356//384 357//386 570//630
f 387//422 352//382 353//381 564//625
f 391//424 386//423 387//422 564//625
f 557//619 558//618 560//622 563//624
f 502//556 372//406 373//405 506//559
f 432//470 433//469 437//477 461//508
f 445//486 446//485 447//487 456//501
f 401//436 402//435 374//408 406//439
f 357//386 352//382 387//422 388//421
f 383//656 381//656 382//412 385//504
f 349//404 365//394 366//399 371//401
