# pilowlava3D glyph 'z' variant 1 — Vincent Wagner / Velvetyne, Free Art License
v 1.41302 1.73086 -0.34194
v 0.22876 3.70756 -0.44825
v 0.85092 0.20107 -0.39823
v 0.19183 0.56685 -0.36746
v 3.74579 0.25032 -0.43738
v 3.45148 3.89249 -0.47203
v 1.58273 1.88908 -0.29132
v 3.93750 0.68594 -0.40905
v 1.52039 1.84818 -0.33879
v 1.68167 1.72949 -0.29723
v 1.64246 1.66415 -0.32208
v 1.28250 1.81133 -0.38451
v 1.42334 1.92396 -0.37313
v 1.61520 1.62040 -0.26518
v 1.41858 1.65391 -0.26406
v 0.34518 3.82902 -0.51166
v 0.46930 3.45781 -0.50582
v 0.29501 3.47039 -0.44556
v 0.07306 3.73320 -0.28523
v 0.18759 4.06296 -0.32191
v 0.97006 0.34226 -0.42258
v 1.11807 0.26975 -0.23602
v 0.88742 0.07716 -0.25026
v 0.60580 0.23113 -0.44566
v 0.72351 0.42823 -0.52964
v 0.54489 0.06258 -0.26270
v 0.07782 0.53628 -0.23423
v 0.16013 0.80958 -0.20993
v 0.28464 0.72973 -0.38853
v 0.33453 0.37960 -0.44156
v 0.22522 0.22240 -0.26377
v 0.48248 0.56944 -0.51567
v 3.86731 0.45572 -0.45723
v 4.03827 0.37267 -0.27498
v 3.82208 0.12205 -0.28165
v 3.52316 0.07458 -0.26222
v 3.56473 0.27395 -0.46039
v 3.68097 0.53992 -0.52598
v 3.61319 4.07006 -0.45157
v 3.84485 3.87580 -0.46655
v 3.74194 3.65534 -0.50050
v 3.59317 3.41339 -0.50203
v 3.34860 3.62043 -0.49155
v 3.29388 4.13980 -0.38464
v 3.38419 4.23654 -0.37737
v 4.08359 3.91085 -0.26120
v 4.06784 3.70543 -0.31463
v 3.93469 4.07544 -0.30169
v 1.56598 2.02844 -0.33692
v 1.63297 1.98464 -0.21364
v 1.69318 1.78737 -0.19274
v 3.80554 0.79915 -0.43641
v 3.91428 0.95182 -0.24844
v 4.07269 0.70376 -0.25994
v 0.49435 3.17391 -0.30251
v 0.18179 3.34375 -0.28637
v 0.00000 3.73753 -0.00000
v 0.46393 4.22022 -0.32331
v 0.56119 3.91271 -0.53993
v 0.71100 4.39662 -0.00000
v 0.73361 4.26442 -0.32199
v 0.78778 3.95862 -0.54081
v 0.88950 3.58128 -0.53438
v 0.68045 3.50994 -0.53395
v 0.98010 4.26342 -0.30434
v 1.02069 3.99181 -0.52613
v 1.10889 3.65432 -0.52485
v 1.21057 3.41054 -0.30165
v 0.99649 3.31216 -0.30451
v 1.25537 4.03150 -0.50178
v 1.33826 3.73022 -0.50387
v 1.42694 3.51133 -0.29269
v 1.48145 3.41086 -0.00000
v 1.27078 3.29373 -0.00000
v 1.56528 3.81525 -0.47649
v 1.64166 3.61783 -0.27896
v 1.85358 3.72655 -0.26528
v 2.15689 4.41479 -0.00000
v 2.63651 4.42084 -0.00000
v 2.64294 4.39328 -0.18288
v 2.40265 4.37279 -0.21289
v 2.89813 4.40189 -0.16521
v 2.89703 4.36505 -0.27870
v 2.66248 4.33052 -0.31419
v 3.17023 4.39189 -0.18371
v 3.13788 4.34367 -0.30462
v 3.10092 4.26261 -0.31440
v 2.89575 4.28549 -0.28303
v 3.44818 4.32513 -0.23010
v 3.75095 4.29134 -0.00000
v 3.71188 4.22096 -0.27901
v 3.98608 4.14688 -0.00000
v 4.14075 3.92901 -0.00000
v 3.95932 3.45019 -0.31542
v 3.76782 3.22247 -0.30245
v 3.60138 2.95262 -0.00000
v 3.53458 3.04331 -0.28853
v 3.39066 3.22534 -0.49145
v 3.18457 3.44095 -0.49972
v 3.29977 2.89857 -0.27844
v 3.17285 3.07600 -0.47825
v 2.99332 3.29226 -0.48462
v 2.83325 3.45288 -0.28878
v 2.99304 3.59352 -0.29756
v 2.95941 2.94374 -0.46448
v 2.80215 3.15220 -0.46929
v 2.66846 3.30283 -0.27593
v 2.59988 3.37130 -0.00000
v 2.75256 3.52480 -0.00000
v 2.60907 3.00916 -0.44925
v 2.49643 3.15031 -0.26405
v 2.43869 3.21371 -0.00000
v 2.32065 2.99386 -0.25292
v 2.21637 2.30870 -0.00000
v 1.79175 2.11611 -0.00000
v 1.76758 2.14311 -0.22279
v 1.97330 2.25102 -0.23403
v 1.66019 1.96664 -0.00000
v 1.91541 1.66643 -0.18274
v 2.15756 1.61921 -0.00000
v 2.13614 1.58440 -0.19350
v 2.09149 1.51866 -0.33506
v 1.88303 1.62088 -0.30250
v 2.03793 1.43254 -0.38159
v 1.83862 1.55203 -0.33873
v 1.98755 1.34771 -0.33182
v 1.80060 1.48631 -0.29130
v 1.95374 1.28250 -0.18631
v 1.77985 1.44156 -0.16598
v 1.60004 1.57712 -0.15000
v 1.59286 1.56483 -0.00000
v 1.43735 1.57552 -0.00000
v 1.43094 1.59073 -0.14551
v 1.35223 1.44485 -0.00000
v 1.32916 1.45852 -0.16216
v 1.26413 1.50383 -0.31360
v 1.19632 1.55084 -0.38972
v 1.27792 1.25173 -0.18660
v 1.19354 1.28750 -0.35184
v 1.08530 1.33737 -0.44603
v 0.97562 1.39088 -0.44783
v 1.10101 1.60659 -0.40840
v 1.14954 1.05060 -0.38362
v 1.00690 1.10317 -0.49036
v 0.85782 1.17061 -0.48934
v 0.72507 1.24687 -0.38175
v 0.87039 1.44657 -0.36230
v 0.92780 0.86131 -0.52271
v 0.73853 0.95003 -0.51581
v 0.58237 1.06072 -0.39549
v 0.48120 1.15290 -0.20667
v 0.63312 1.32061 -0.20604
v 0.61542 0.75303 -0.52809
v 0.43408 0.89407 -0.40016
v 0.31641 0.99648 -0.21059
v 0.26535 1.04135 -0.00000
v 0.43222 1.20396 -0.00000
v 0.10721 0.82611 -0.00000
v 0.02808 0.50976 -0.00000
v 0.19373 0.17041 -0.00000
v 0.52817 0.00514 -0.00000
v 0.89706 0.01802 -0.00000
v 1.22101 0.52600 -0.22921
v 0.58890 1.36715 -0.00000
v 0.78818 1.50030 -0.20023
v 0.92087 1.71586 -0.00000
v 0.95346 1.69059 -0.19338
v 1.02368 1.65004 -0.34569
v 1.12762 1.87639 -0.19015
v 1.19724 1.84592 -0.33399
v 1.28064 2.03209 -0.19384
v 1.33743 1.98753 -0.32805
v 1.43225 2.18308 -0.20032
v 1.47311 2.12907 -0.32354
v 1.60403 2.34852 -0.20932
v 1.64813 2.29083 -0.33354
v 1.71445 2.20617 -0.34290
v 1.83847 2.43889 -0.35833
v 1.91193 2.33545 -0.36373
v 2.03247 2.57866 -0.38563
v 2.11572 2.45723 -0.38832
v 2.18665 2.35569 -0.23891
v 2.32278 2.58025 -0.40910
v 2.40271 2.46008 -0.24518
v 2.43466 2.40257 -0.00000
v 2.61929 2.56579 -0.25060
v 2.89819 3.66641 -0.00000
v 3.13062 3.73702 -0.29369
v 3.20416 3.91002 -0.26837
v 3.17749 4.06970 -0.23246
v 3.05664 4.18195 -0.00000
v 3.06815 4.19570 -0.19792
v 2.89008 4.21060 -0.00000
v 2.89212 4.23111 -0.17847
v 2.69952 4.15260 -0.19296
v 2.68866 4.22887 -0.32085
v 2.49380 4.04350 -0.21995
v 2.47083 4.14464 -0.36411
v 2.43451 4.27239 -0.36127
v 2.24274 4.06561 -0.39785
v 2.20032 4.22031 -0.39696
v 2.16702 4.35253 -0.23582
v 1.96347 4.17599 -0.42428
v 1.92850 4.33371 -0.25187
v 1.92041 4.41178 -0.00000
v 1.69012 4.31338 -0.26509
v 1.05133 3.18584 -0.00000
v 0.77408 3.20979 -0.31153
v 0.97314 4.39894 -0.00000
v 1.21783 4.27397 -0.29167
v 1.45227 4.29341 -0.27782
v 1.48996 4.08016 -0.47796
v 1.72632 4.13038 -0.45063
v 1.79123 3.89931 -0.45062
v 2.01703 3.98390 -0.42475
v 2.06732 3.83439 -0.25293
v 2.27979 3.93923 -0.23897
v 2.29813 3.88345 -0.00000
v 2.50116 3.99992 -0.00000
v 3.35220 2.80895 -0.00000
v 3.06613 2.77922 -0.26755
v 2.84018 2.67182 -0.25831
v 2.74359 2.82150 -0.44467
v 2.53207 2.70071 -0.42640
v 2.41791 2.86415 -0.42778
v 2.22620 2.72039 -0.40774
v 2.14310 2.83654 -0.24353
v 1.96396 2.67800 -0.23392
v 1.93130 2.72257 -0.00000
v 1.78464 2.51546 -0.22161
v 1.75888 2.55204 -0.00000
v 1.32211 1.23814 -0.00000
v 1.32083 1.01603 -0.00000
v 1.26016 1.02173 -0.20858
v 1.25095 0.78367 -0.22007
v 1.11597 0.80826 -0.41214
v 1.06540 0.56635 -0.42864
v 0.83887 0.63691 -0.53795
v 2.37997 1.54862 -0.00000
v 2.57806 1.42495 -0.21426
v 2.35800 1.50346 -0.20641
v 2.52261 1.32002 -0.38611
v 2.30472 1.41634 -0.36324
v 2.44751 1.19080 -0.44835
v 2.24182 1.31289 -0.41644
v 2.36948 1.06084 -0.38727
v 2.17975 1.20845 -0.36357
v 2.30612 0.96338 -0.21548
v 2.12982 1.12401 -0.20371
v 2.27005 0.92178 -0.00000
v 2.10464 1.08720 -0.00000
v 3.03870 1.34016 -0.00000
v 2.81976 1.41017 -0.00000
v 3.01483 1.26914 -0.23077
v 2.79898 1.34767 -0.22284
v 2.95813 1.12952 -0.42132
v 2.74170 1.22542 -0.40341
v 2.86194 0.94404 -0.50391
v 2.65329 1.06827 -0.47636
v 2.75272 0.76355 -0.42706
v 2.55939 0.91198 -0.40572
v 2.65988 0.64059 -0.23483
v 2.48145 0.80057 -0.22580
v 3.47314 1.20557 -0.00000
v 3.25500 1.27179 -0.00000
v 3.44531 1.12640 -0.23787
v 3.23062 1.19446 -0.23747
v 3.38882 0.95807 -0.44479
v 3.17380 1.03697 -0.43885
v 3.28409 0.71454 -0.54026
v 3.07397 0.82327 -0.52698
v 3.14291 0.47261 -0.46015
v 2.94717 0.61684 -0.44123
v 3.02988 0.30563 -0.25614
v 2.84308 0.47945 -0.24263
v 3.71155 1.13989 -0.00000
v 3.67914 1.07304 -0.24402
v 3.60110 0.89045 -0.45048
v 3.48349 0.62390 -0.54291
v 3.34906 0.35850 -0.46731
v 3.25540 0.16314 -0.26030
v 3.52521 0.00000 -0.00000
v 3.86386 0.06276 -0.00000
v 4.09509 0.34007 -0.00000
v 1.09558 1.89300 -0.00000
v 0.47284 3.06928 -0.00000
v 0.12103 3.29802 -0.00000
v 0.11182 4.13758 -0.00000
v 0.41345 4.33641 -0.00000
v 1.68750 3.52982 -0.00000
v 1.89185 3.64928 -0.00000
v 2.39127 4.41755 -0.00000
v 2.89984 4.42248 -0.00000
v 3.18533 4.41746 -0.00000
v 3.47626 4.37578 -0.00000
v 4.16901 3.65764 -0.00000
v 4.05203 3.37030 -0.00000
v 3.84476 3.13569 -0.00000
v 2.27209 3.05245 -0.00000
v 2.00043 2.21351 -0.00000
v 1.72238 1.78599 -0.00000
v 1.93210 1.69129 -0.00000
v 1.77075 1.42348 -0.00000
v 1.15961 0.23065 -0.00000
v 1.27737 0.50742 -0.00000
v 0.74863 1.53639 -0.00000
v 2.65427 2.50035 -0.00000
v 3.02676 3.79516 -0.00000
v 3.12070 3.91825 -0.00000
v 3.14090 4.05760 -0.00000
v 2.70184 4.11908 -0.00000
v 1.68509 4.40762 -0.00000
v 0.79773 3.08800 -0.00000
v 1.21317 4.40025 -0.00000
v 1.44931 4.40300 -0.00000
v 2.09534 3.76712 -0.00000
v 3.10947 2.69518 -0.00000
v 2.87842 2.59570 -0.00000
v 2.10236 2.88830 -0.00000
v 1.58252 2.37854 -0.00000
v 1.31583 0.77556 -0.00000
v 2.59821 1.47859 -0.00000
v 1.93912 1.25375 -0.00000
v 2.61124 0.58736 -0.00000
v 2.43701 0.75432 -0.00000
v 2.98087 0.23959 -0.00000
v 2.78983 0.41788 -0.00000
v 3.96765 0.99148 -0.00000
v 3.22672 0.08775 -0.00000
v 4.13599 0.69809 -0.00000
v 1.25555 2.05389 -0.00000
v 1.41153 2.20999 -0.00000
v 1.41302 1.73086 0.34194
v 0.22876 3.70756 0.44825
v 0.85092 0.20107 0.39823
v 0.19183 0.56685 0.36746
v 3.74579 0.25032 0.43738
v 3.45148 3.89249 0.47203
v 1.58273 1.88908 0.29132
v 3.93750 0.68594 0.40905
v 1.52039 1.84818 0.33879
v 1.68167 1.72949 0.29723
v 1.64246 1.66415 0.32208
v 1.28250 1.81133 0.38451
v 1.42334 1.92396 0.37313
v 1.61520 1.62040 0.26518
v 1.41858 1.65391 0.26406
v 0.34518 3.82902 0.51166
v 0.46930 3.45781 0.50582
v 0.29501 3.47039 0.44556
v 0.07306 3.73320 0.28523
v 0.18759 4.06296 0.32191
v 0.97006 0.34226 0.42258
v 1.11807 0.26975 0.23602
v 0.88742 0.07716 0.25026
v 0.60580 0.23113 0.44566
v 0.72351 0.42823 0.52964
v 0.54489 0.06258 0.26270
v 0.07782 0.53628 0.23423
v 0.16013 0.80958 0.20993
v 0.28464 0.72973 0.38853
v 0.33453 0.37960 0.44156
v 0.22522 0.22240 0.26377
v 0.48248 0.56944 0.51567
v 3.86731 0.45572 0.45723
v 4.03827 0.37267 0.27498
v 3.82208 0.12205 0.28165
v 3.52316 0.07458 0.26222
v 3.56473 0.27395 0.46039
v 3.68097 0.53992 0.52598
v 3.61319 4.07006 0.45157
v 3.84485 3.87580 0.46655
v 3.74194 3.65534 0.50050
v 3.59317 3.41339 0.50203
v 3.34860 3.62043 0.49155
v 3.29388 4.13980 0.38464
v 3.38419 4.23654 0.37737
v 4.08359 3.91085 0.26120
v 4.06784 3.70543 0.31463
v 3.93469 4.07544 0.30169
v 1.56598 2.02844 0.33692
v 1.63297 1.98464 0.21364
v 1.69318 1.78737 0.19274
v 3.80554 0.79915 0.43641
v 3.91428 0.95182 0.24844
v 4.07269 0.70376 0.25994
v 0.49435 3.17391 0.30251
v 0.18179 3.34375 0.28637
v 0.46393 4.22022 0.32331
v 0.56119 3.91271 0.53993
v 0.73361 4.26442 0.32199
v 0.78778 3.95862 0.54081
v 0.88950 3.58128 0.53438
v 0.68045 3.50994 0.53395
v 0.98010 4.26342 0.30434
v 1.02069 3.99181 0.52613
v 1.10889 3.65432 0.52485
v 1.21057 3.41054 0.30165
v 0.99649 3.31216 0.30451
v 1.25537 4.03150 0.50178
v 1.33826 3.73022 0.50387
v 1.42694 3.51133 0.29269
v 1.56528 3.81525 0.47649
v 1.64166 3.61783 0.27896
v 1.85358 3.72655 0.26528
v 2.64294 4.39328 0.18288
v 2.40265 4.37279 0.21289
v 2.89813 4.40189 0.16521
v 2.89703 4.36505 0.27870
v 2.66248 4.33052 0.31419
v 3.17023 4.39189 0.18371
v 3.13788 4.34367 0.30462
v 3.10092 4.26261 0.31440
v 2.89575 4.28549 0.28303
v 3.44818 4.32513 0.23010
v 3.71188 4.22096 0.27901
v 3.95932 3.45019 0.31542
v 3.76782 3.22247 0.30245
v 3.53458 3.04331 0.28853
v 3.39066 3.22534 0.49145
v 3.18457 3.44095 0.49972
v 3.29977 2.89857 0.27844
v 3.17285 3.07600 0.47825
v 2.99332 3.29226 0.48462
v 2.83325 3.45288 0.28878
v 2.99304 3.59352 0.29756
v 2.95941 2.94374 0.46448
v 2.80215 3.15220 0.46929
v 2.66846 3.30283 0.27593
v 2.60907 3.00916 0.44925
v 2.49643 3.15031 0.26405
v 2.32065 2.99386 0.25292
v 1.76758 2.14311 0.22279
v 1.97330 2.25102 0.23403
v 1.91541 1.66643 0.18274
v 2.13614 1.58440 0.19350
v 2.09149 1.51866 0.33506
v 1.88303 1.62088 0.30250
v 2.03793 1.43254 0.38159
v 1.83862 1.55203 0.33873
v 1.98755 1.34771 0.33182
v 1.80060 1.48631 0.29130
v 1.95374 1.28250 0.18631
v 1.77985 1.44156 0.16598
v 1.60004 1.57712 0.15000
v 1.43094 1.59073 0.14551
v 1.32916 1.45852 0.16216
v 1.26413 1.50383 0.31360
v 1.19632 1.55084 0.38972
v 1.27792 1.25173 0.18660
v 1.19354 1.28750 0.35184
v 1.08530 1.33737 0.44603
v 0.97562 1.39088 0.44783
v 1.10101 1.60659 0.40840
v 1.14954 1.05060 0.38362
v 1.00690 1.10317 0.49036
v 0.85782 1.17061 0.48934
v 0.72507 1.24687 0.38175
v 0.87039 1.44657 0.36230
v 0.92780 0.86131 0.52271
v 0.73853 0.95003 0.51581
v 0.58237 1.06072 0.39549
v 0.48120 1.15290 0.20667
v 0.63312 1.32061 0.20604
v 0.61542 0.75303 0.52809
v 0.43408 0.89407 0.40016
v 0.31641 0.99648 0.21059
v 1.22101 0.52600 0.22921
v 0.78818 1.50030 0.20023
v 0.95346 1.69059 0.19338
v 1.02368 1.65004 0.34569
v 1.12762 1.87639 0.19015
v 1.19724 1.84592 0.33399
v 1.28064 2.03209 0.19384
v 1.33743 1.98753 0.32805
v 1.43225 2.18308 0.20032
v 1.47311 2.12907 0.32354
v 1.60403 2.34852 0.20932
v 1.64813 2.29083 0.33354
v 1.71445 2.20617 0.34290
v 1.83847 2.43889 0.35833
v 1.91193 2.33545 0.36373
v 2.03247 2.57866 0.38563
v 2.11572 2.45723 0.38832
v 2.18665 2.35569 0.23891
v 2.32278 2.58025 0.40910
v 2.40271 2.46008 0.24518
v 2.61929 2.56579 0.25060
v 3.13062 3.73702 0.29369
v 3.20416 3.91002 0.26837
v 3.17749 4.06970 0.23246
v 3.06815 4.19570 0.19792
v 2.89212 4.23111 0.17847
v 2.69952 4.15260 0.19296
v 2.68866 4.22887 0.32085
v 2.49380 4.04350 0.21995
v 2.47083 4.14464 0.36411
v 2.43451 4.27239 0.36127
v 2.24274 4.06561 0.39785
v 2.20032 4.22031 0.39696
v 2.16702 4.35253 0.23582
v 1.96347 4.17599 0.42428
v 1.92850 4.33371 0.25187
v 1.69012 4.31338 0.26509
v 0.77408 3.20979 0.31153
v 1.21783 4.27397 0.29167
v 1.45227 4.29341 0.27782
v 1.48996 4.08016 0.47796
v 1.72632 4.13038 0.45063
v 1.79123 3.89931 0.45062
v 2.01703 3.98390 0.42475
v 2.06732 3.83439 0.25293
v 2.27979 3.93923 0.23897
v 3.06613 2.77922 0.26755
v 2.84018 2.67182 0.25831
v 2.74359 2.82150 0.44467
v 2.53207 2.70071 0.42640
v 2.41791 2.86415 0.42778
v 2.22620 2.72039 0.40774
v 2.14310 2.83654 0.24353
v 1.96396 2.67800 0.23392
v 1.78464 2.51546 0.22161
v 1.26016 1.02173 0.20858
v 1.25095 0.78367 0.22007
v 1.11597 0.80826 0.41214
v 1.06540 0.56635 0.42864
v 0.83887 0.63691 0.53795
v 2.57806 1.42495 0.21426
v 2.35800 1.50346 0.20641
v 2.52261 1.32002 0.38611
v 2.30472 1.41634 0.36324
v 2.44751 1.19080 0.44835
v 2.24182 1.31289 0.41644
v 2.36948 1.06084 0.38727
v 2.17975 1.20845 0.36357
v 2.30612 0.96338 0.21548
v 2.12982 1.12401 0.20371
v 3.01483 1.26914 0.23077
v 2.79898 1.34767 0.22284
v 2.95813 1.12952 0.42132
v 2.74170 1.22542 0.40341
v 2.86194 0.94404 0.50391
v 2.65329 1.06827 0.47636
v 2.75272 0.76355 0.42706
v 2.55939 0.91198 0.40572
v 2.65988 0.64059 0.23483
v 2.48145 0.80057 0.22580
v 3.44531 1.12640 0.23787
v 3.23062 1.19446 0.23747
v 3.38882 0.95807 0.44479
v 3.17380 1.03697 0.43885
v 3.28409 0.71454 0.54026
v 3.07397 0.82327 0.52698
v 3.14291 0.47261 0.46015
v 2.94717 0.61684 0.44123
v 3.02988 0.30563 0.25614
v 2.84308 0.47945 0.24263
v 3.67914 1.07304 0.24402
v 3.60110 0.89045 0.45048
v 3.48349 0.62390 0.54291
v 3.34906 0.35850 0.46731
v 3.25540 0.16314 0.26030
vn 0.23843 -0.29557 -0.92509
vn 0.41198 0.05168 -0.90973
vn 0.38648 0.43443 -0.81357
vn -0.05881 -0.24358 -0.96810
vn -0.06231 0.15175 -0.98645
vn 0.08777 0.09312 -0.99178
vn -0.32727 -0.75057 -0.57405
vn 0.29590 -0.74021 -0.60376
vn -0.60370 -0.03726 -0.79634
vn -0.37779 0.13985 -0.91527
vn -0.19730 -0.35756 -0.91281
vn -0.48756 -0.32368 -0.81087
vn -0.86616 0.00750 -0.49972
vn -0.64975 0.48611 -0.58440
vn 0.26191 -0.59546 -0.75949
vn 0.46092 -0.37837 -0.80274
vn 0.72540 -0.52009 -0.45088
vn 0.33474 -0.82076 -0.46292
vn -0.07642 -0.53011 -0.84448
vn 0.07397 -0.22333 -0.97193
vn -0.18022 -0.85735 -0.48216
vn -0.65591 0.04197 -0.75368
vn -0.88888 -0.02774 -0.45731
vn -0.78465 0.43217 -0.44447
vn -0.55721 0.29427 -0.77648
vn -0.43653 -0.28523 -0.85328
vn -0.63851 -0.59229 -0.49143
vn -0.27580 0.01432 -0.96111
vn 0.26852 -0.50478 -0.82042
vn 0.47871 -0.16530 -0.86227
vn 0.80843 -0.32942 -0.48778
vn 0.41258 -0.75938 -0.50311
vn -0.08816 -0.86052 -0.50174
vn -0.02464 -0.49317 -0.86958
vn 0.16425 -0.02895 -0.98599
vn -0.29883 0.13520 -0.94468
vn 0.11790 0.43527 -0.89254
vn 0.38373 0.19962 -0.90161
vn 0.25324 -0.08691 -0.96349
vn 0.21560 -0.21259 -0.95306
vn -0.27810 0.21579 -0.93600
vn -0.45325 -0.03517 -0.89069
vn 0.01879 0.55681 -0.83043
vn 0.82747 0.31631 -0.46394
vn 0.79051 -0.06357 -0.60915
vn 0.58708 0.58994 -0.55435
vn 0.65729 0.11228 -0.74523
vn 0.38643 -0.08128 -0.91873
vn 0.72051 0.53828 -0.43719
vn 0.87333 -0.25155 -0.41714
vn 0.58489 0.18646 -0.78939
vn 0.37705 0.38681 -0.84155
vn 0.58375 0.65272 -0.48290
vn 0.84770 0.22302 -0.48131
vn -0.18660 -0.79139 -0.58214
vn -0.67753 -0.51749 -0.52265
vn -0.23017 -0.97315 0.00077
vn -0.79823 -0.60235 0.00168
vn -0.99996 0.00862 -0.00089
vn -0.79607 0.60520 -0.00187
vn -0.35870 0.93345 -0.00058
vn -0.27809 0.73073 -0.62346
vn -0.13249 0.25664 -0.95738
vn -0.08400 0.99647 0.00061
vn -0.06355 0.78224 -0.61973
vn -0.00941 0.30458 -0.95244
vn 0.14163 -0.30329 -0.94231
vn 0.04227 -0.31675 -0.94757
vn 0.00139 0.79513 -0.60643
vn 0.03947 0.33885 -0.94001
vn 0.18074 -0.30380 -0.93544
vn 0.34891 -0.72422 -0.59479
vn 0.32053 -0.72478 -0.60988
vn 0.03982 0.36286 -0.93099
vn 0.21467 -0.30168 -0.92893
vn 0.38276 -0.72643 -0.57078
vn 0.47164 -0.88179 0.00008
vn 0.44671 -0.89468 0.00012
vn 0.23267 -0.30909 -0.92213
vn 0.40468 -0.73406 -0.54534
vn 0.48557 -0.87420 0.00000
vn 0.41065 -0.75063 -0.51762
vn 0.48610 -0.87391 -0.00012
vn -0.02650 0.99965 0.00004
vn -0.03688 0.95246 -0.30241
vn -0.04487 0.92081 -0.38742
vn -0.03750 0.99930 0.00005
vn 0.00371 0.99999 0.00018
vn -0.00090 0.96862 -0.24853
vn 0.00520 0.60593 -0.79550
vn 0.06389 0.56487 -0.82270
vn 0.09734 0.99525 0.00003
vn 0.10112 0.95116 -0.29167
vn -0.02835 0.60895 -0.79271
vn -0.33175 -0.29901 -0.89473
vn 0.05296 -0.44939 -0.89176
vn 0.22424 0.88739 -0.40281
vn 0.24075 0.97059 -0.00007
vn 0.41956 0.90773 -0.00000
vn 0.35836 0.78564 -0.50433
vn 0.67108 0.74138 0.00143
vn 0.93872 0.34467 -0.00138
vn 0.98565 -0.16878 -0.00299
vn 0.84928 -0.52795 -0.00021
vn 0.67263 -0.39298 -0.62700
vn 0.67867 -0.73444 -0.00001
vn 0.54943 -0.57864 -0.60274
vn 0.55281 -0.83331 -0.00004
vn 0.45270 -0.68091 -0.57569
vn 0.18371 -0.30385 -0.93484
vn -0.24747 0.23127 -0.94089
vn 0.39260 -0.73356 -0.55475
vn 0.15627 -0.35051 -0.92343
vn -0.25917 0.22852 -0.93841
vn -0.56687 0.59717 -0.56749
vn -0.56677 0.58262 -0.58252
vn 0.13847 -0.37576 -0.91631
vn -0.27863 0.24012 -0.92990
vn -0.57865 0.60901 -0.54247
vn -0.69332 0.72063 -0.00001
vn -0.69193 0.72196 -0.00017
vn -0.29637 0.25110 -0.92148
vn -0.58590 0.62366 -0.51747
vn -0.68676 0.72689 0.00001
vn -0.59259 0.63610 -0.49418
vn -0.68459 0.72893 -0.00007
vn 0.60942 -0.79285 0.00001
vn 0.56744 -0.72915 -0.38255
vn 0.39980 -0.81944 -0.41071
vn 0.43007 -0.90280 0.00010
vn 0.97949 -0.20150 0.00034
vn 0.75985 0.65009 0.00159
vn 0.38604 0.92248 0.00114
vn 0.38181 0.87417 -0.30009
vn 0.31974 0.94750 -0.00007
vn 0.31235 0.88639 -0.34168
vn 0.20155 0.65887 -0.72475
vn 0.25224 0.63881 -0.72684
vn -0.16094 0.06752 -0.98465
vn -0.17288 -0.01472 -0.98483
vn -0.51348 -0.50982 -0.69023
vn -0.52591 -0.58296 -0.61934
vn -0.65362 -0.69355 -0.30293
vn -0.63199 -0.73313 -0.25120
vn -0.36404 -0.89656 -0.25229
vn -0.65696 -0.75393 0.00006
vn -0.36060 -0.93272 -0.00015
vn 0.42711 -0.90420 -0.00089
vn 0.38785 -0.87088 -0.30189
vn 0.92207 -0.38702 -0.00096
vn 0.87044 -0.38259 -0.30978
vn 0.73588 -0.33611 -0.58780
vn 0.43568 -0.13238 -0.89031
vn 0.92678 -0.11382 -0.35795
vn 0.76814 -0.09911 -0.63257
vn 0.40118 0.03406 -0.91537
vn -0.16694 0.28252 -0.94462
vn -0.11547 0.23660 -0.96472
vn 0.72829 -0.03737 -0.68425
vn 0.33265 0.05360 -0.94153
vn -0.19811 0.26482 -0.94373
vn -0.54160 0.46707 -0.69894
vn -0.55713 0.48563 -0.67363
vn 0.26520 0.01981 -0.96399
vn -0.20483 0.22486 -0.95262
vn -0.50794 0.45496 -0.73144
vn -0.64091 0.61617 -0.45778
vn -0.67408 0.60169 -0.42847
vn -0.21725 0.16571 -0.96195
vn -0.49311 0.41927 -0.76227
vn -0.65434 0.59417 -0.46776
vn -0.74135 0.67112 -0.00076
vn -0.71137 0.70282 0.00006
vn -0.89166 0.45271 0.00052
vn -0.99682 -0.07971 0.00185
vn -0.71566 -0.69845 0.00048
vn -0.20754 -0.97823 -0.00017
vn 0.36002 -0.93294 -0.00068
vn 0.80582 -0.59216 -0.00080
vn 0.86420 -0.22574 -0.44967
vn 0.96710 -0.25439 -0.00054
vn -0.73554 0.67748 -0.00009
vn -0.73810 0.67469 -0.00000
vn -0.69052 0.61036 -0.38814
vn -0.72812 0.68545 0.00018
vn -0.69083 0.63504 -0.34566
vn -0.54802 0.51017 -0.66288
vn -0.67944 0.65920 -0.32220
vn -0.50655 0.52603 -0.68316
vn -0.67354 0.66547 -0.32171
vn -0.43884 0.50152 -0.74559
vn -0.66691 0.66819 -0.32977
vn -0.39658 0.42634 -0.81300
vn -0.65082 0.67404 -0.34944
vn -0.39230 0.35947 -0.84669
vn 0.23015 -0.35557 -0.90587
vn -0.37338 0.32816 -0.86769
vn 0.13901 -0.40973 -0.90155
vn -0.34409 0.30218 -0.88898
vn 0.13315 -0.40670 -0.90381
vn 0.37937 -0.81275 -0.44217
vn 0.13901 -0.39759 -0.90697
vn 0.37342 -0.80120 -0.46758
vn 0.41602 -0.90936 -0.00004
vn 0.41611 -0.90932 -0.00001
vn 0.36516 -0.79125 -0.49048
vn 0.41383 -0.91035 0.00004
vn -0.69860 0.71551 -0.00019
vn -0.78783 0.61589 0.00296
vn -0.64644 0.49844 -0.57764
vn -0.96133 0.27534 0.00574
vn -0.81340 0.20256 -0.54529
vn -0.95019 -0.31164 0.00354
vn -0.83533 -0.31264 -0.45219
vn -0.52987 -0.84808 0.00061
vn -0.49020 -0.79484 -0.35768
vn 0.11650 -0.99319 -0.00029
vn 0.09750 -0.94375 -0.31596
vn 0.45553 -0.89022 -0.00008
vn 0.42299 -0.84422 -0.32919
vn 0.31335 -0.40332 -0.85973
vn 0.44513 -0.80784 -0.38633
vn 0.30790 -0.36932 -0.87681
vn 0.05538 0.50323 -0.86238
vn 0.26423 -0.35906 -0.89513
vn 0.04244 0.44870 -0.89268
vn -0.04041 0.89035 -0.45347
vn 0.03580 0.41759 -0.90793
vn -0.03947 0.86616 -0.49821
vn -0.03907 0.99924 0.00001
vn -0.03660 0.99933 0.00003
vn -0.04146 0.84518 -0.53287
vn -0.04189 0.99912 0.00014
vn 0.41331 -0.91059 0.00076
vn 0.24236 -0.97019 -0.00025
vn 0.18858 -0.76593 -0.61465
vn -0.02415 0.99971 0.00001
vn -0.02255 0.80783 -0.58898
vn -0.00013 1.00000 0.00020
vn -0.03836 0.99926 0.00007
vn -0.03845 0.82523 -0.56349
vn 0.03469 0.37921 -0.92466
vn 0.03402 0.39694 -0.91721
vn 0.23889 -0.32428 -0.91530
vn 0.24561 -0.34169 -0.90715
vn 0.41362 -0.77115 -0.48399
vn 0.42050 -0.79292 -0.44097
vn 0.47642 -0.87922 0.00007
vn 0.48002 -0.87726 -0.00018
vn 0.48715 -0.87332 0.00010
vn 0.41982 -0.90761 -0.00003
vn 0.35832 -0.76688 -0.53245
vn 0.46986 -0.88274 -0.00011
vn 0.40721 -0.91333 0.00004
vn 0.35311 -0.78369 -0.51102
vn 0.13242 -0.39094 -0.91084
vn 0.13823 -0.39297 -0.90910
vn -0.30623 0.26734 -0.91365
vn -0.31903 0.28538 -0.90376
vn -0.59952 0.64999 -0.46700
vn -0.61393 0.66131 -0.43101
vn -0.68740 0.72628 -0.00002
vn -0.68333 0.73011 -0.00005
vn -0.63214 0.67106 -0.38741
vn -0.69253 0.72139 0.00001
vn -0.69685 0.71722 0.00001
vn 0.99967 -0.02572 -0.00029
vn 0.91400 -0.03444 -0.40424
vn 0.99438 -0.10582 -0.00061
vn 0.99730 -0.07349 -0.00021
vn 0.89841 -0.06742 -0.43395
vn 0.67094 -0.05850 -0.73920
vn 0.59420 -0.17240 -0.78562
vn 0.19050 -0.05843 -0.97995
vn 0.31683 0.94848 -0.00001
vn 0.31230 0.94998 0.00003
vn 0.29057 0.86069 -0.41807
vn 0.30058 0.87218 -0.38594
vn 0.18908 0.60847 -0.77072
vn 0.19487 0.63193 -0.75012
vn -0.10976 0.07104 -0.99142
vn -0.12826 0.07445 -0.98894
vn -0.44918 -0.45312 -0.77001
vn -0.47483 -0.47701 -0.73960
vn -0.62958 -0.66217 -0.40640
vn -0.63952 -0.67826 -0.36191
vn -0.69665 -0.71741 -0.00006
vn -0.69459 -0.71940 -0.00001
vn -0.69577 -0.71827 0.00013
vn 0.31298 0.94976 -0.00004
vn 0.31392 0.94945 -0.00002
vn 0.28259 0.83620 -0.47002
vn 0.28737 0.84774 -0.44583
vn 0.18021 0.57166 -0.80045
vn 0.18690 0.58824 -0.78679
vn -0.09118 0.06393 -0.99378
vn -0.09971 0.06798 -0.99269
vn -0.40557 -0.42662 -0.80840
vn -0.42909 -0.43620 -0.79096
vn -0.59656 -0.65161 -0.46852
vn -0.61540 -0.65374 -0.44035
vn -0.68112 -0.73217 -0.00001
vn -0.69131 -0.72256 0.00006
vn 0.30285 0.95304 -0.00003
vn 0.26809 0.96339 -0.00019
vn 0.23619 0.83470 -0.49747
vn 0.26999 0.83020 -0.48772
vn 0.16059 0.53891 -0.82692
vn 0.17603 0.55524 -0.81285
vn -0.03837 0.04938 -0.99804
vn -0.07110 0.05703 -0.99584
vn -0.31672 -0.40995 -0.85535
vn -0.38059 -0.41042 -0.82868
vn -0.52467 -0.67827 -0.51446
vn -0.58989 -0.63938 -0.49317
vn -0.61280 -0.79024 0.00011
vn -0.68320 -0.73023 -0.00007
vn 0.36281 0.93186 0.00063
vn 0.68989 0.72391 -0.00035
vn 0.30856 0.80884 -0.50056
vn 0.20327 0.49476 -0.84493
vn 0.02719 0.02372 -0.99935
vn -0.20143 -0.44457 -0.87280
vn -0.36218 -0.77305 -0.52079
vn -0.06972 -0.99757 0.00029
vn -0.41853 -0.90820 -0.00031
vn 0.49396 -0.86948 0.00094
vn 0.92034 -0.39111 -0.00009
vn 0.97528 0.22098 -0.00144
vn -0.71610 0.69800 0.00014
vn -0.71028 0.70392 0.00006
vn -0.70426 0.70994 0.00001
vn -0.07159 -0.23764 0.96871
vn 0.38339 0.41568 0.82476
vn 0.39472 0.06151 0.91674
vn 0.23142 -0.29339 0.92756
vn 0.07927 0.13240 0.98802
vn -0.06140 0.15657 0.98576
vn 0.29425 -0.74129 0.60325
vn -0.32695 -0.74911 0.57615
vn -0.48645 -0.31501 0.81494
vn -0.19748 -0.35146 0.91514
vn -0.37268 0.13117 0.91864
vn -0.59550 -0.04849 0.80189
vn -0.65011 0.47992 0.58910
vn -0.86371 -0.00103 0.50398
vn 0.33407 -0.82012 0.46454
vn 0.72401 -0.52066 0.45245
vn 0.46125 -0.38398 0.79988
vn 0.26445 -0.59983 0.75516
vn 0.07678 -0.23087 0.96995
vn -0.07225 -0.53485 0.84185
vn -0.17908 -0.85664 0.48384
vn -0.55913 0.28975 0.77680
vn -0.78326 0.42977 0.44922
vn -0.88589 -0.03006 0.46292
vn -0.65683 0.03752 0.75310
vn -0.63844 -0.59111 0.49293
vn -0.44075 -0.28448 0.85136
vn -0.28098 0.01339 0.95962
vn 0.41267 -0.75421 0.51076
vn 0.80600 -0.32855 0.49236
vn 0.47985 -0.16737 0.86124
vn 0.27180 -0.50163 0.82127
vn -0.01762 -0.49224 0.87028
vn -0.08509 -0.85765 0.50714
vn 0.17079 -0.03269 0.98477
vn 0.25199 -0.08869 0.96366
vn 0.39602 0.20123 0.89592
vn 0.12105 0.43152 0.89395
vn -0.31072 0.14001 0.94013
vn -0.27892 0.21735 0.93539
vn 0.21528 -0.21242 0.95317
vn 0.01747 0.55610 0.83093
vn -0.47472 -0.03015 0.87962
vn 0.59699 0.58898 0.54470
vn 0.80165 -0.06400 0.59436
vn 0.83894 0.31284 0.44532
vn 0.39497 -0.04224 0.91772
vn 0.66707 0.12969 0.73362
vn 0.73596 0.52432 0.42830
vn 0.88488 -0.24058 0.39888
vn 0.84599 0.21740 0.48686
vn 0.58455 0.64732 0.48916
vn 0.37846 0.38004 0.84400
vn 0.58310 0.17931 0.79237
vn -0.67947 -0.51019 0.52728
vn -0.18981 -0.78712 0.58686
vn -0.27791 0.73121 0.62297
vn -0.13231 0.25674 0.95738
vn -0.06411 0.78174 0.62030
vn -0.00990 0.30449 0.95246
vn 0.04267 -0.31630 0.94770
vn 0.14250 -0.30225 0.94252
vn 0.03813 0.33900 0.94001
vn 0.00016 0.79511 0.60646
vn 0.18074 -0.30374 0.93545
vn 0.32102 -0.72358 0.61105
vn 0.34914 -0.72395 0.59497
vn 0.21455 -0.30174 0.92894
vn 0.03874 0.36266 0.93112
vn 0.38265 -0.72644 0.57085
vn 0.40550 -0.73372 0.54518
vn 0.23371 -0.30871 0.92200
vn 0.41225 -0.74996 0.51731
vn -0.04812 0.92080 0.38705
vn -0.04268 0.95258 0.30127
vn -0.00239 0.96910 0.24667
vn 0.05990 0.56547 0.82259
vn 0.00513 0.60876 0.79334
vn 0.09945 0.95158 0.29087
vn -0.03251 0.61147 0.79060
vn 0.05197 -0.44907 0.89198
vn -0.34205 -0.29822 0.89110
vn 0.22607 0.88649 0.40378
vn 0.36240 0.78257 0.50622
vn 0.67146 -0.39485 0.62708
vn 0.54745 -0.57942 0.60380
vn 0.45226 -0.68100 0.57593
vn 0.18439 -0.30401 0.93466
vn -0.24648 0.23113 0.94118
vn 0.15689 -0.35053 0.92332
vn 0.39332 -0.73342 0.55443
vn -0.25876 0.22873 0.93847
vn -0.56709 0.58260 0.58222
vn -0.56683 0.59727 0.56743
vn -0.27847 0.24012 0.92994
vn 0.13901 -0.37566 0.91627
vn -0.57845 0.60909 0.54260
vn -0.58643 0.62334 0.51725
vn -0.29724 0.25068 0.92131
vn -0.59339 0.63550 0.49399
vn 0.39918 -0.81986 0.41047
vn 0.56678 -0.72963 0.38262
vn 0.38266 0.87366 0.30048
vn 0.31212 0.88653 0.34155
vn 0.25449 0.63850 0.72633
vn 0.20160 0.65898 0.72464
vn -0.17191 -0.01586 0.98499
vn -0.16156 0.06795 0.98452
vn -0.52645 -0.58297 0.61887
vn -0.51398 -0.50931 0.69023
vn -0.63365 -0.73171 0.25119
vn -0.65385 -0.69325 0.30314
vn -0.36499 -0.89565 0.25416
vn 0.38564 -0.87007 0.30702
vn 0.87046 -0.38079 0.31193
vn 0.73498 -0.34181 0.58563
vn 0.44018 -0.13614 0.88753
vn 0.76839 -0.09855 0.63235
vn 0.92781 -0.11054 0.35631
vn 0.40078 0.03347 0.91556
vn -0.11309 0.23889 0.96444
vn -0.16649 0.28251 0.94471
vn 0.33416 0.05670 0.94081
vn 0.73021 -0.03293 0.68243
vn -0.19799 0.26578 0.94348
vn -0.55712 0.48544 0.67377
vn -0.54176 0.46696 0.69889
vn -0.20479 0.22561 0.95245
vn 0.26657 0.02398 0.96352
vn -0.50794 0.45491 0.73147
vn -0.67452 0.60098 0.42878
vn -0.64080 0.61605 0.45809
vn -0.49355 0.41802 0.76267
vn -0.21797 0.16400 0.96208
vn -0.65415 0.59481 0.46721
vn 0.86402 -0.22659 0.44958
vn -0.69056 0.61023 0.38825
vn -0.69073 0.63509 0.34576
vn -0.54749 0.51019 0.66329
vn -0.50616 0.52793 0.68197
vn -0.67931 0.65908 0.32272
vn -0.43694 0.50994 0.74098
vn -0.67330 0.66549 0.32216
vn -0.39518 0.43261 0.81036
vn -0.66688 0.66819 0.32985
vn -0.39333 0.35833 0.84670
vn -0.65150 0.67333 0.34954
vn 0.22872 -0.35657 0.90584
vn 0.13752 -0.41107 0.90117
vn -0.37526 0.32614 0.86764
vn 0.13298 -0.40684 0.90377
vn -0.34474 0.30150 0.88896
vn 0.37948 -0.81268 0.44220
vn 0.37390 -0.80094 0.46764
vn 0.13966 -0.39718 0.90705
vn 0.36538 -0.79112 0.49053
vn -0.64857 0.49554 0.57775
vn -0.82068 0.19736 0.53622
vn -0.84353 -0.31263 0.43671
vn -0.49597 -0.79463 0.35011
vn 0.09508 -0.94424 0.31523
vn 0.42371 -0.84371 0.32958
vn 0.31438 -0.40338 0.85933
vn 0.31085 -0.36848 0.87613
vn 0.44729 -0.80693 0.38574
vn 0.05405 0.50360 0.86225
vn 0.04283 0.44883 0.89259
vn 0.26430 -0.35907 0.89510
vn -0.04003 0.89047 0.45328
vn -0.04061 0.86597 0.49845
vn 0.03452 0.41730 0.90811
vn -0.04203 0.84508 0.53298
vn 0.18936 -0.76563 0.61478
vn -0.02333 0.80769 0.58914
vn -0.03836 0.82519 0.56355
vn 0.03486 0.37926 0.92464
vn 0.03409 0.39694 0.91721
vn 0.24003 -0.32388 0.91514
vn 0.24539 -0.34171 0.90720
vn 0.41409 -0.77095 0.48391
vn 0.42065 -0.79288 0.44091
vn 0.35889 -0.76673 0.53228
vn 0.35313 -0.78367 0.51104
vn 0.13218 -0.39109 0.91081
vn 0.13820 -0.39296 0.90911
vn -0.30682 0.26699 0.91355
vn -0.31878 0.28559 0.90378
vn -0.59968 0.64987 0.46696
vn -0.61425 0.66097 0.43106
vn -0.63340 0.66980 0.38752
vn 0.91456 -0.03231 0.40315
vn 0.89873 -0.06753 0.43328
vn 0.67232 -0.05495 0.73822
vn 0.59392 -0.17190 0.78594
vn 0.19065 -0.05753 0.97997
vn 0.29994 0.87242 0.38590
vn 0.29055 0.86068 0.41811
vn 0.19449 0.63206 0.75012
vn 0.18921 0.60839 0.77075
vn -0.12796 0.07421 0.98900
vn -0.10983 0.07109 0.99140
vn -0.47416 -0.47755 0.73967
vn -0.44936 -0.45301 0.76998
vn -0.63889 -0.67882 0.36198
vn -0.62965 -0.66213 0.40635
vn 0.28729 0.84779 0.44578
vn 0.28267 0.83616 0.47004
vn 0.18679 0.58827 0.78679
vn 0.18011 0.57173 0.80043
vn -0.09982 0.06802 0.99268
vn -0.09141 0.06413 0.99375
vn -0.42901 -0.43627 0.79096
vn -0.40572 -0.42659 0.80834
vn -0.61520 -0.65388 0.44043
vn -0.59657 -0.65167 0.46844
vn 0.26979 0.83031 0.48765
vn 0.23595 0.83463 0.49772
vn 0.17583 0.55542 0.81277
vn 0.15987 0.53863 0.82724
vn -0.07187 0.05782 0.99574
vn -0.03943 0.04981 0.99798
vn -0.38142 -0.40925 0.82887
vn -0.31789 -0.40924 0.85526
vn -0.58996 -0.63917 0.49337
vn -0.52504 -0.67796 0.51450
vn 0.30796 0.80867 0.50122
vn 0.20223 0.49502 0.84502
vn 0.02703 0.02372 0.99935
vn -0.20124 -0.44533 0.87246
vn -0.36234 -0.77354 0.51996
f 1//1 9//2 10//3 11//4
f 1//1 12//5 13//6 9//2
f 1//1 11//4 14//7 15//8
f 2//9 16//10 17//11 18//12
f 2//9 19//13 20//14 16//10
f 3//15 21//16 22//17 23//18
f 3//15 24//19 25//20 21//16
f 3//15 23//18 26//21 24//19
f 4//22 27//23 28//24 29//25
f 4//22 30//26 31//27 27//23
f 4//22 29//25 32//28 30//26
f 5//29 33//30 34//31 35//32
f 5//29 35//32 36//33 37//34
f 5//29 37//34 38//35 33//30
f 6//36 39//37 40//38 41//39
f 6//36 41//39 42//40 43//41
f 6//36 44//42 45//43 39//37
f 46//44 47//45 40//38 48//46
f 7//47 9//2 13//6 49//48
f 51//49 10//3 9//2 7//47
f 7//47 49//48 50//50 51//49
f 8//51 52//52 53//53 54//54
f 8//51 33//30 38//35 52//52
f 8//51 54//54 34//31 33//30
f 18//12 17//11 55//55 56//56
f 56//56 55//55 286//57 287//58
f 56//56 287//58 57//59 19//13
f 56//56 19//13 2//9 18//12
f 57//59 288//60 20//14 19//13
f 288//60 289//61 58//62 20//14
f 58//62 59//63 16//10 20//14
f 58//62 289//61 60//64 61//65
f 58//62 61//65 62//66 59//63
f 62//66 63//67 64//68 59//63
f 62//66 61//65 65//69 66//70
f 62//66 66//70 67//71 63//67
f 67//71 68//72 69//73 63//67
f 67//71 66//70 70//74 71//75
f 67//71 71//75 72//76 68//72
f 72//76 73//77 74//78 68//72
f 72//76 71//75 75//79 76//80
f 72//76 76//80 290//81 73//77
f 290//81 76//80 77//82 291//83
f 79//84 80//85 81//86 292//87
f 79//84 293//88 82//89 80//85
f 82//89 83//90 84//91 80//85
f 82//89 293//88 294//92 85//93
f 82//89 85//93 86//94 83//90
f 86//94 87//95 88//96 83//90
f 86//94 85//93 89//97 45//43
f 86//94 45//43 44//42 87//95
f 89//97 85//93 294//92 295//98
f 89//97 295//98 90//99 91//100
f 89//97 91//100 39//37 45//43
f 91//100 90//99 92//101 48//46
f 91//100 48//46 40//38 39//37
f 92//101 93//102 46//44 48//46
f 93//102 296//103 47//45 46//44
f 296//103 297//104 94//105 47//45
f 94//105 41//39 40//38 47//45
f 94//105 297//104 298//106 95//107
f 94//105 95//107 42//40 41//39
f 95//107 298//106 96//108 97//109
f 95//107 97//109 98//110 42//40
f 98//110 99//111 43//41 42//40
f 98//110 97//109 100//112 101//113
f 98//110 101//113 102//114 99//111
f 102//114 103//115 104//116 99//111
f 102//114 101//113 105//117 106//118
f 102//114 106//118 107//119 103//115
f 107//119 108//120 109//121 103//115
f 107//119 106//118 110//122 111//123
f 107//119 111//123 112//124 108//120
f 112//124 111//123 113//125 299//126
f 115//127 116//128 117//129 300//130
f 115//127 118//131 50//50 116//128
f 118//131 301//132 51//49 50//50
f 301//132 302//133 119//134 51//49
f 119//134 302//133 120//135 121//136
f 119//134 121//136 122//137 123//138
f 119//134 123//138 10//3 51//49
f 123//138 122//137 124//139 125//140
f 123//138 125//140 11//4 10//3
f 125//140 124//139 126//141 127//142
f 125//140 127//142 14//7 11//4
f 127//142 126//141 128//143 129//144
f 127//142 129//144 130//145 14//7
f 130//145 129//144 303//146 131//147
f 130//145 131//147 132//148 133//149
f 130//145 133//149 15//8 14//7
f 133//149 132//148 134//150 135//151
f 133//149 135//151 136//152 15//8
f 136//152 137//153 1//1 15//8
f 136//152 135//151 138//154 139//155
f 136//152 139//155 140//156 137//153
f 140//156 141//157 142//158 137//153
f 140//156 139//155 143//159 144//160
f 140//156 144//160 145//161 141//157
f 145//161 146//162 147//163 141//157
f 145//161 144//160 148//164 149//165
f 145//161 149//165 150//166 146//162
f 150//166 151//167 152//168 146//162
f 150//166 149//165 153//169 154//170
f 150//166 154//170 155//171 151//167
f 155//171 156//172 157//173 151//167
f 155//171 154//170 29//25 28//24
f 155//171 28//24 158//174 156//172
f 158//174 28//24 27//23 159//175
f 159//175 27//23 31//27 160//176
f 160//176 31//27 26//21 161//177
f 161//177 26//21 23//18 162//178
f 162//178 23//18 22//17 304//179
f 304//179 22//17 163//180 305//181
f 164//182 306//183 165//184 152//168
f 164//182 152//168 151//167 157//173
f 165//184 306//183 166//185 167//186
f 165//184 167//186 168//187 147//163
f 165//184 147//163 146//162 152//168
f 168//187 167//186 169//188 170//189
f 168//187 170//189 12//5 142//158
f 168//187 142//158 141//157 147//163
f 170//189 169//188 171//190 172//191
f 170//189 172//191 13//6 12//5
f 172//191 171//190 173//192 174//193
f 172//191 174//193 49//48 13//6
f 174//193 173//192 175//194 176//195
f 174//193 176//195 177//196 49//48
f 177//196 176//195 178//197 179//198
f 177//196 179//198 117//129 116//128
f 177//196 116//128 50//50 49//48
f 179//198 178//197 180//199 181//200
f 179//198 181//200 182//201 117//129
f 182//201 181//200 183//202 184//203
f 182//201 184//203 185//204 114//205
f 182//201 114//205 300//130 117//129
f 185//204 184//203 186//206 307//207
f 187//208 308//209 188//210 104//116
f 187//208 104//116 103//115 109//121
f 188//210 308//209 309//211 189//212
f 188//210 189//212 6//36 43//41
f 188//210 43//41 99//111 104//116
f 189//212 309//211 310//213 190//214
f 189//212 190//214 44//42 6//36
f 190//214 310//213 191//215 192//216
f 190//214 192//216 87//95 44//42
f 192//216 191//215 193//217 194//218
f 192//216 194//218 88//96 87//95
f 194//218 193//217 311//219 195//220
f 194//218 195//220 196//221 88//96
f 196//221 195//220 197//222 198//223
f 196//221 198//223 199//224 84//91
f 196//221 84//91 83//90 88//96
f 199//224 198//223 200//225 201//226
f 199//224 201//226 202//227 81//86
f 199//224 81//86 80//85 84//91
f 202//227 201//226 203//228 204//229
f 202//227 204//229 205//230 78//231
f 202//227 78//231 292//87 81//86
f 205//230 204//229 206//232 312//233
f 207//234 313//235 208//236 69//73
f 207//234 69//73 68//72 74//78
f 208//236 313//235 286//57 55//55
f 208//236 55//55 17//11 64//68
f 208//236 64//68 63//67 69//73
f 314//237 210//238 65//69 209//239
f 314//237 315//240 211//241 210//238
f 211//241 212//242 70//74 210//238
f 211//241 315//240 312//233 206//232
f 211//241 206//232 213//243 212//242
f 213//243 214//244 75//79 212//242
f 213//243 206//232 204//229 203//228
f 213//243 203//228 215//245 214//244
f 215//245 216//246 77//82 214//244
f 215//245 203//228 201//226 200//225
f 215//245 200//225 217//247 216//246
f 217//247 218//248 316//249 216//246
f 217//247 200//225 198//223 197//222
f 217//247 197//222 219//250 218//248
f 219//250 197//222 195//220 311//219
f 216//246 316//249 291//83 77//82
f 214//244 77//82 76//80 75//79
f 212//242 75//79 71//75 70//74
f 210//238 70//74 66//70 65//69
f 209//239 65//69 61//65 60//64
f 317//251 221//252 100//112 220//253
f 317//251 318//254 222//255 221//252
f 222//255 223//256 105//117 221//252
f 222//255 318//254 307//207 186//206
f 222//255 186//206 224//257 223//256
f 224//257 225//258 110//122 223//256
f 224//257 186//206 184//203 183//202
f 224//257 183//202 226//259 225//258
f 226//259 227//260 113//125 225//258
f 226//259 183//202 181//200 180//199
f 226//259 180//199 228//261 227//260
f 228//261 229//262 319//263 227//260
f 228//261 180//199 178//197 230//264
f 228//261 230//264 231//265 229//262
f 231//265 230//264 175//194 320//266
f 233//267 234//268 138//154 232//269
f 233//267 321//270 235//271 234//268
f 235//271 236//272 143//159 234//268
f 235//271 321//270 305//181 163//180
f 235//271 163//180 237//273 236//272
f 237//273 238//274 148//164 236//272
f 237//273 163//180 22//17 21//16
f 237//273 21//16 25//20 238//274
f 238//274 153//169 149//165 148//164
f 238//274 25//20 32//28 153//169
f 236//272 148//164 144//160 143//159
f 234//268 143//159 139//155 138//154
f 239//275 322//276 240//277 241//278
f 239//275 241//278 121//136 120//135
f 241//278 240//277 242//279 243//280
f 241//278 243//280 122//137 121//136
f 243//280 242//279 244//281 245//282
f 243//280 245//282 124//139 122//137
f 245//282 244//281 246//283 247//284
f 245//282 247//284 126//141 124//139
f 247//284 246//283 248//285 249//286
f 247//284 249//286 128//143 126//141
f 249//286 248//285 250//287 251//288
f 249//286 251//288 323//289 128//143
f 323//289 303//146 129//144 128//143
f 253//290 252//291 254//292 255//293
f 253//290 255//293 240//277 322//276
f 255//293 254//292 256//294 257//295
f 255//293 257//295 242//279 240//277
f 257//295 256//294 258//296 259//297
f 257//295 259//297 244//281 242//279
f 259//297 258//296 260//298 261//299
f 259//297 261//299 246//283 244//281
f 261//299 260//298 262//300 263//301
f 261//299 263//301 248//285 246//283
f 263//301 262//300 324//302 325//303
f 263//301 325//303 250//287 248//285
f 265//304 264//305 266//306 267//307
f 265//304 267//307 254//292 252//291
f 267//307 266//306 268//308 269//309
f 267//307 269//309 256//294 254//292
f 269//309 268//308 270//310 271//311
f 269//309 271//311 258//296 256//294
f 271//311 270//310 272//312 273//313
f 271//311 273//313 260//298 258//296
f 273//313 272//312 274//314 275//315
f 273//313 275//315 262//300 260//298
f 275//315 274//314 326//316 327//317
f 275//315 327//317 324//302 262//300
f 276//318 328//319 53//53 277//320
f 276//318 277//320 266//306 264//305
f 277//320 53//53 52//52 278//321
f 277//320 278//321 268//308 266//306
f 278//321 52//52 38//35 279//322
f 278//321 279//322 270//310 268//308
f 279//322 38//35 37//34 280//323
f 279//322 280//323 272//312 270//310
f 280//323 37//34 36//33 281//324
f 280//323 281//324 274//314 272//312
f 281//324 36//33 282//325 329//326
f 281//324 329//326 326//316 274//314
f 282//325 36//33 35//32 283//327
f 283//327 35//32 34//31 284//328
f 284//328 34//31 54//54 330//329
f 330//329 54//54 53//53 328//319
f 232//269 138//154 135//151 134//150
f 285//330 331//331 171//190 169//188
f 285//330 169//188 167//186 166//185
f 331//331 332//332 173//192 171//190
f 332//332 320//266 175//194 173//192
f 230//264 178//197 176//195 175//194
f 227//260 319//263 299//126 113//125
f 225//258 113//125 111//123 110//122
f 223//256 110//122 106//118 105//117
f 221//252 105//117 101//113 100//112
f 220//253 100//112 97//109 96//108
f 154//170 153//169 32//28 29//25
f 142//158 12//5 1//1 137//153
f 64//68 17//11 16//10 59//63
f 32//28 25//20 24//19 30//26
f 31//27 30//26 24//19 26//21
f 343//333 342//334 341//335 333//336
f 341//335 345//337 344//338 333//336
f 347//339 346//340 343//333 333//336
f 350//341 349//342 348//343 334//344
f 348//343 352//345 351//346 334//344
f 355//347 354//348 353//349 335//350
f 353//349 357//351 356//352 335//350
f 356//352 358//353 355//347 335//350
f 361//354 360//355 359//356 336//357
f 359//356 363//358 362//359 336//357
f 362//359 364//360 361//354 336//357
f 367//361 366//362 365//363 337//364
f 369//365 368//366 367//361 337//364
f 365//363 370//367 369//365 337//364
f 373//368 372//369 371//370 338//371
f 375//372 374//373 373//368 338//371
f 371//370 377//374 376//375 338//371
f 380//376 372//369 379//377 378//378
f 381//379 345//337 341//335 339//380
f 339//380 341//335 342//334 383//381
f 383//381 382//382 381//379 339//380
f 386//383 385//384 384//385 340//386
f 384//385 370//367 365//363 340//386
f 365//363 366//362 386//383 340//386
f 388//387 387//388 349//342 350//341
f 287//58 286//57 387//388 388//387
f 351//346 57//59 287//58 388//387
f 350//341 334//344 351//346 388//387
f 351//346 352//345 288//60 57//59
f 352//345 389//389 289//61 288//60
f 352//345 348//343 390//390 389//389
f 391//391 60//64 289//61 389//389
f 390//390 392//392 391//391 389//389
f 390//390 394//393 393//394 392//392
f 396//395 395//396 391//391 392//392
f 393//394 397//397 396//395 392//392
f 393//394 399//398 398//399 397//397
f 401//400 400//401 396//395 397//397
f 398//399 402//402 401//400 397//397
f 398//399 74//78 73//77 402//402
f 404//403 403//404 401//400 402//402
f 73//77 290//81 404//403 402//402
f 291//83 405//405 404//403 290//81
f 292//87 407//406 406//407 79//84
f 406//407 408//408 293//88 79//84
f 406//407 410//409 409//410 408//408
f 411//411 294//92 293//88 408//408
f 409//410 412//412 411//411 408//408
f 409//410 414//413 413//414 412//412
f 377//374 415//415 411//411 412//412
f 413//414 376//375 377//374 412//412
f 295//98 294//92 411//411 415//415
f 416//416 90//99 295//98 415//415
f 377//374 371//370 416//416 415//415
f 380//376 92//101 90//99 416//416
f 371//370 372//369 380//376 416//416
f 380//376 378//378 93//102 92//101
f 378//378 379//377 296//103 93//102
f 379//377 417//417 297//104 296//103
f 379//377 372//369 373//368 417//417
f 418//418 298//106 297//104 417//417
f 373//368 374//373 418//418 417//417
f 419//419 96//108 298//106 418//418
f 374//373 420//420 419//419 418//418
f 374//373 375//372 421//421 420//420
f 423//422 422//423 419//419 420//420
f 421//421 424//424 423//422 420//420
f 421//421 426//425 425//426 424//424
f 428//427 427//428 423//422 424//424
f 425//426 429//429 428//427 424//424
f 425//426 109//121 108//120 429//429
f 431//430 430//431 428//427 429//429
f 108//120 112//124 431//430 429//429
f 299//126 432//432 431//430 112//124
f 300//130 434//433 433//434 115//127
f 433//434 382//382 118//131 115//127
f 382//382 383//381 301//132 118//131
f 383//381 435//435 302//133 301//132
f 436//436 120//135 302//133 435//435
f 438//437 437//438 436//436 435//435
f 383//381 342//334 438//437 435//435
f 440//439 439//440 437//438 438//437
f 342//334 343//333 440//439 438//437
f 442//441 441//442 439//440 440//439
f 343//333 346//340 442//441 440//439
f 444//443 443//444 441//442 442//441
f 346//340 445//445 444//443 442//441
f 131//147 303//146 444//443 445//445
f 446//446 132//148 131//147 445//445
f 346//340 347//339 446//446 445//445
f 447//447 134//150 132//148 446//446
f 347//339 448//448 447//447 446//446
f 347//339 333//336 449//449 448//448
f 451//450 450//451 447//447 448//448
f 449//449 452//452 451//450 448//448
f 449//449 454//453 453//454 452//452
f 456//455 455//456 451//450 452//452
f 453//454 457//457 456//455 452//452
f 453//454 459//458 458//459 457//457
f 461//460 460//461 456//455 457//457
f 458//459 462//462 461//460 457//457
f 458//459 464//463 463//464 462//462
f 466//465 465//466 461//460 462//462
f 463//464 467//467 466//465 462//462
f 463//464 157//173 156//172 467//467
f 360//355 361//354 466//465 467//467
f 156//172 158//174 360//355 467//467
f 159//175 359//356 360//355 158//174
f 160//176 363//358 359//356 159//175
f 161//177 358//353 363//358 160//176
f 162//178 355//347 358//353 161//177
f 304//179 354//348 355//347 162//178
f 305//181 468//468 354//348 304//179
f 464//463 469//469 306//183 164//182
f 157//173 463//464 464//463 164//182
f 470//470 166//185 306//183 469//469
f 459//458 471//471 470//470 469//469
f 464//463 458//459 459//458 469//469
f 473//472 472//473 470//470 471//471
f 454//453 344//338 473//472 471//471
f 459//458 453//454 454//453 471//471
f 475//474 474//475 472//473 473//472
f 344//338 345//337 475//474 473//472
f 477//476 476//477 474//475 475//474
f 345//337 381//379 477//476 475//474
f 479//478 478//479 476//477 477//476
f 381//379 480//480 479//478 477//476
f 482//481 481//482 479//478 480//480
f 433//434 434//433 482//481 480//480
f 381//379 382//382 433//434 480//480
f 484//483 483//484 481//482 482//481
f 434//433 485//485 484//483 482//481
f 487//486 486//487 484//483 485//485
f 114//205 185//204 487//486 485//485
f 434//433 300//130 114//205 485//485
f 307//207 488//488 487//486 185//204
f 426//425 489//489 308//209 187//208
f 109//121 425//426 426//425 187//208
f 490//490 309//211 308//209 489//489
f 375//372 338//371 490//490 489//489
f 426//425 421//421 375//372 489//489
f 491//491 310//213 309//211 490//490
f 338//371 376//375 491//491 490//490
f 492//492 191//215 310//213 491//491
f 376//375 413//414 492//492 491//491
f 493//493 193//217 191//215 492//492
f 413//414 414//413 493//493 492//492
f 494//494 311//219 193//217 493//493
f 414//413 495//495 494//494 493//493
f 497//496 496//497 494//494 495//495
f 410//409 498//498 497//496 495//495
f 414//413 409//410 410//409 495//495
f 500//499 499//500 497//496 498//498
f 407//406 501//501 500//499 498//498
f 410//409 406//407 407//406 498//498
f 503//502 502//503 500//499 501//501
f 78//231 205//230 503//502 501//501
f 407//406 292//87 78//231 501//501
f 312//233 504//504 503//502 205//230
f 399//398 505//505 313//235 207//234
f 74//78 398//399 399//398 207//234
f 387//388 286//57 313//235 505//505
f 394//393 349//342 387//388 505//505
f 399//398 393//394 394//393 505//505
f 209//239 395//396 506//506 314//237
f 506//506 507//507 315//240 314//237
f 506//506 400//401 508//508 507//507
f 504//504 312//233 315//240 507//507
f 508//508 509//509 504//504 507//507
f 508//508 403//404 510//510 509//509
f 502//503 503//502 504//504 509//509
f 510//510 511//511 502//503 509//509
f 510//510 405//405 512//512 511//511
f 499//500 500//499 502//503 511//511
f 512//512 513//513 499//500 511//511
f 512//512 316//249 218//248 513//513
f 496//497 497//496 499//500 513//513
f 218//248 219//250 496//497 513//513
f 311//219 494//494 496//497 219//250
f 405//405 291//83 316//249 512//512
f 403//404 404//403 405//405 510//510
f 400//401 401//400 403//404 508//508
f 395//396 396//395 400//401 506//506
f 60//64 391//391 395//396 209//239
f 220//253 422//423 514//514 317//251
f 514//514 515//515 318//254 317//251
f 514//514 427//428 516//516 515//515
f 488//488 307//207 318//254 515//515
f 516//516 517//517 488//488 515//515
f 516//516 430//431 518//518 517//517
f 486//487 487//486 488//488 517//517
f 518//518 519//519 486//487 517//517
f 518//518 432//432 520//520 519//519
f 483//484 484//483 486//487 519//519
f 520//520 521//521 483//484 519//519
f 520//520 319//263 229//262 521//521
f 522//522 481//482 483//484 521//521
f 229//262 231//265 522//522 521//521
f 320//266 478//479 522//522 231//265
f 232//269 450//451 523//523 233//267
f 523//523 524//524 321//270 233//267
f 523//523 455//456 525//525 524//524
f 468//468 305//181 321//270 524//524
f 525//525 526//526 468//468 524//524
f 525//525 460//461 527//527 526//526
f 353//349 354//348 468//468 526//526
f 527//527 357//351 353//349 526//526
f 460//461 461//460 465//466 527//527
f 465//466 364//360 357//351 527//527
f 455//456 456//455 460//461 525//525
f 450//451 451//450 455//456 523//523
f 529//528 528//529 322//276 239//275
f 120//135 436//436 529//528 239//275
f 531//530 530//531 528//529 529//528
f 436//436 437//438 531//530 529//528
f 533//532 532//533 530//531 531//530
f 437//438 439//440 533//532 531//530
f 535//534 534//535 532//533 533//532
f 439//440 441//442 535//534 533//532
f 537//536 536//537 534//535 535//534
f 441//442 443//444 537//536 535//534
f 251//288 250//287 536//537 537//536
f 443//444 323//289 251//288 537//536
f 443//444 444//443 303//146 323//289
f 539//538 538//539 252//291 253//290
f 322//276 528//529 539//538 253//290
f 541//540 540//541 538//539 539//538
f 528//529 530//531 541//540 539//538
f 543//542 542//543 540//541 541//540
f 530//531 532//533 543//542 541//540
f 545//544 544//545 542//543 543//542
f 532//533 534//535 545//544 543//542
f 547//546 546//547 544//545 545//544
f 534//535 536//537 547//546 545//544
f 325//303 324//302 546//547 547//546
f 536//537 250//287 325//303 547//546
f 549//548 548//549 264//305 265//304
f 252//291 538//539 549//548 265//304
f 551//550 550//551 548//549 549//548
f 538//539 540//541 551//550 549//548
f 553//552 552//553 550//551 551//550
f 540//541 542//543 553//552 551//550
f 555//554 554//555 552//553 553//552
f 542//543 544//545 555//554 553//552
f 557//556 556//557 554//555 555//554
f 544//545 546//547 557//556 555//554
f 327//317 326//316 556//557 557//556
f 546//547 324//302 327//317 557//556
f 558//558 385//384 328//319 276//318
f 264//305 548//549 558//558 276//318
f 559//559 384//385 385//384 558//558
f 548//549 550//551 559//559 558//558
f 560//560 370//367 384//385 559//559
f 550//551 552//553 560//560 559//559
f 561//561 369//365 370//367 560//560
f 552//553 554//555 561//561 560//560
f 562//562 368//366 369//365 561//561
f 554//555 556//557 562//562 561//561
f 329//326 282//325 368//366 562//562
f 556//557 326//316 329//326 562//562
f 283//327 367//361 368//366 282//325
f 284//328 366//362 367//361 283//327
f 330//329 386//383 366//362 284//328
f 328//319 385//384 386//383 330//329
f 134//150 447//447 450//451 232//269
f 472//473 474//475 331//331 285//330
f 166//185 470//470 472//473 285//330
f 474//475 476//477 332//332 331//331
f 476//477 478//479 320//266 332//332
f 478//479 479//478 481//482 522//522
f 432//432 299//126 319//263 520//520
f 430//431 431//430 432//432 518//518
f 427//428 428//427 430//431 516//516
f 422//423 423//422 427//428 514//514
f 96//108 419//419 422//423 220//253
f 361//354 364//360 465//466 466//465
f 449//449 333//336 344//338 454//453
f 390//390 348//343 349//342 394//393
f 362//359 356//352 357//351 364//360
f 358//353 356//352 362//359 363//358
